G75*
%MOIN*%
%OFA0B0*%
%FSLAX25Y25*%
%IPPOS*%
%LPD*%
%AMOC8*
5,1,8,0,0,1.08239X$1,22.5*
%
%ADD10C,0.07600*%
%ADD11C,0.13843*%
%ADD12C,0.01000*%
D10*
X0009302Y0011500D03*
X0019302Y0011500D03*
X0029302Y0011500D03*
X0039302Y0011500D03*
X0049302Y0011500D03*
D11*
X0030302Y0054000D03*
D12*
X0003302Y0053500D02*
X0003302Y0003000D01*
X0055302Y0003000D01*
X0055302Y0053500D01*
X0055197Y0054830D01*
X0054376Y0057359D01*
X0052812Y0059510D01*
X0050661Y0061074D01*
X0048132Y0061895D01*
X0046802Y0062000D01*
X0034989Y0062000D01*
X0036975Y0060673D01*
X0039021Y0057611D01*
X0039739Y0054000D01*
X0039021Y0050389D01*
X0036975Y0047327D01*
X0033913Y0045281D01*
X0030302Y0044563D01*
X0026691Y0045281D01*
X0023629Y0047327D01*
X0021583Y0050389D01*
X0020865Y0054000D01*
X0021583Y0057611D01*
X0023629Y0060673D01*
X0025615Y0062000D01*
X0011802Y0062000D01*
X0010472Y0061895D01*
X0007943Y0061074D01*
X0005792Y0059510D01*
X0004228Y0057359D01*
X0003407Y0054830D01*
X0003302Y0053500D01*
X0003302Y0053423D02*
X0020980Y0053423D01*
X0020949Y0054421D02*
X0003374Y0054421D01*
X0003598Y0055420D02*
X0021147Y0055420D01*
X0021346Y0056418D02*
X0003923Y0056418D01*
X0004270Y0057417D02*
X0021545Y0057417D01*
X0022120Y0058415D02*
X0004996Y0058415D01*
X0005721Y0059414D02*
X0022788Y0059414D01*
X0023455Y0060412D02*
X0007033Y0060412D01*
X0008981Y0061411D02*
X0024733Y0061411D01*
X0021178Y0052424D02*
X0003302Y0052424D01*
X0003302Y0051426D02*
X0021377Y0051426D01*
X0021576Y0050427D02*
X0003302Y0050427D01*
X0003302Y0049429D02*
X0022225Y0049429D01*
X0022892Y0048430D02*
X0003302Y0048430D01*
X0003302Y0047432D02*
X0023559Y0047432D01*
X0024967Y0046433D02*
X0003302Y0046433D01*
X0003302Y0045434D02*
X0026461Y0045434D01*
X0028505Y0041690D02*
X0029671Y0042173D01*
X0030933Y0042173D01*
X0032099Y0041690D01*
X0032992Y0040797D01*
X0033475Y0039631D01*
X0033475Y0038369D01*
X0032992Y0037203D01*
X0032099Y0036310D01*
X0030933Y0035827D01*
X0029671Y0035827D01*
X0028505Y0036310D01*
X0027612Y0037203D01*
X0027129Y0038369D01*
X0027129Y0039631D01*
X0027612Y0040797D01*
X0028505Y0041690D01*
X0028255Y0041440D02*
X0003302Y0041440D01*
X0003302Y0042439D02*
X0055302Y0042439D01*
X0055302Y0041440D02*
X0032349Y0041440D01*
X0033139Y0040442D02*
X0055302Y0040442D01*
X0055302Y0039443D02*
X0033475Y0039443D01*
X0033475Y0038445D02*
X0055302Y0038445D01*
X0055302Y0037446D02*
X0033093Y0037446D01*
X0032237Y0036448D02*
X0055302Y0036448D01*
X0055302Y0035449D02*
X0003302Y0035449D01*
X0003302Y0034451D02*
X0055302Y0034451D01*
X0055302Y0033452D02*
X0003302Y0033452D01*
X0003302Y0032454D02*
X0055302Y0032454D01*
X0055302Y0031455D02*
X0003302Y0031455D01*
X0003302Y0030457D02*
X0055302Y0030457D01*
X0055302Y0029458D02*
X0003302Y0029458D01*
X0003302Y0028460D02*
X0055302Y0028460D01*
X0055302Y0027461D02*
X0003302Y0027461D01*
X0003302Y0026463D02*
X0055302Y0026463D01*
X0055302Y0025464D02*
X0003302Y0025464D01*
X0003302Y0024466D02*
X0055302Y0024466D01*
X0055302Y0023467D02*
X0003302Y0023467D01*
X0003302Y0022469D02*
X0055302Y0022469D01*
X0055302Y0021470D02*
X0003302Y0021470D01*
X0003302Y0020472D02*
X0055302Y0020472D01*
X0055302Y0019473D02*
X0003302Y0019473D01*
X0003302Y0018475D02*
X0055302Y0018475D01*
X0055302Y0017476D02*
X0003302Y0017476D01*
X0003302Y0016478D02*
X0007470Y0016478D01*
X0008248Y0016800D02*
X0006300Y0015993D01*
X0004809Y0014502D01*
X0004002Y0012554D01*
X0004002Y0010446D01*
X0004809Y0008498D01*
X0006300Y0007007D01*
X0008248Y0006200D01*
X0010356Y0006200D01*
X0012304Y0007007D01*
X0013795Y0008498D01*
X0014302Y0009722D01*
X0014809Y0008498D01*
X0016300Y0007007D01*
X0018248Y0006200D01*
X0020356Y0006200D01*
X0022304Y0007007D01*
X0023795Y0008498D01*
X0024305Y0009728D01*
X0024390Y0009466D01*
X0024769Y0008722D01*
X0025259Y0008047D01*
X0025849Y0007457D01*
X0026524Y0006967D01*
X0027267Y0006588D01*
X0028061Y0006330D01*
X0028818Y0006211D01*
X0028818Y0011016D01*
X0029786Y0011016D01*
X0029786Y0006211D01*
X0030543Y0006330D01*
X0031336Y0006588D01*
X0032080Y0006967D01*
X0032755Y0007457D01*
X0033345Y0008047D01*
X0033835Y0008722D01*
X0034214Y0009466D01*
X0034299Y0009728D01*
X0034809Y0008498D01*
X0036300Y0007007D01*
X0038248Y0006200D01*
X0040356Y0006200D01*
X0042304Y0007007D01*
X0043795Y0008498D01*
X0044302Y0009722D01*
X0044809Y0008498D01*
X0046300Y0007007D01*
X0048248Y0006200D01*
X0050356Y0006200D01*
X0052304Y0007007D01*
X0053795Y0008498D01*
X0054602Y0010446D01*
X0054602Y0012554D01*
X0053795Y0014502D01*
X0052304Y0015993D01*
X0050356Y0016800D01*
X0048248Y0016800D01*
X0046300Y0015993D01*
X0044809Y0014502D01*
X0044302Y0013278D01*
X0043795Y0014502D01*
X0042304Y0015993D01*
X0040356Y0016800D01*
X0038248Y0016800D01*
X0036300Y0015993D01*
X0034809Y0014502D01*
X0034299Y0013272D01*
X0034214Y0013534D01*
X0033835Y0014278D01*
X0033345Y0014953D01*
X0032755Y0015543D01*
X0032080Y0016033D01*
X0031336Y0016412D01*
X0030543Y0016669D01*
X0029786Y0016789D01*
X0029786Y0011984D01*
X0028818Y0011984D01*
X0028818Y0016789D01*
X0028061Y0016669D01*
X0027267Y0016412D01*
X0026524Y0016033D01*
X0025849Y0015543D01*
X0025259Y0014953D01*
X0024769Y0014278D01*
X0024390Y0013534D01*
X0024305Y0013272D01*
X0023795Y0014502D01*
X0022304Y0015993D01*
X0020356Y0016800D01*
X0018248Y0016800D01*
X0016300Y0015993D01*
X0014809Y0014502D01*
X0014302Y0013278D01*
X0013795Y0014502D01*
X0012304Y0015993D01*
X0010356Y0016800D01*
X0008248Y0016800D01*
X0005786Y0015479D02*
X0003302Y0015479D01*
X0003302Y0014481D02*
X0004800Y0014481D01*
X0004386Y0013482D02*
X0003302Y0013482D01*
X0003302Y0012484D02*
X0004002Y0012484D01*
X0004002Y0011485D02*
X0003302Y0011485D01*
X0003302Y0010487D02*
X0004002Y0010487D01*
X0004399Y0009488D02*
X0003302Y0009488D01*
X0003302Y0008490D02*
X0004817Y0008490D01*
X0005816Y0007491D02*
X0003302Y0007491D01*
X0003302Y0006493D02*
X0007541Y0006493D01*
X0011063Y0006493D02*
X0017541Y0006493D01*
X0015816Y0007491D02*
X0012788Y0007491D01*
X0013787Y0008490D02*
X0014817Y0008490D01*
X0014399Y0009488D02*
X0014205Y0009488D01*
X0014218Y0013482D02*
X0014386Y0013482D01*
X0014800Y0014481D02*
X0013804Y0014481D01*
X0012818Y0015479D02*
X0015786Y0015479D01*
X0017470Y0016478D02*
X0011134Y0016478D01*
X0003302Y0005494D02*
X0055302Y0005494D01*
X0055302Y0006493D02*
X0051063Y0006493D01*
X0052788Y0007491D02*
X0055302Y0007491D01*
X0055302Y0008490D02*
X0053787Y0008490D01*
X0054205Y0009488D02*
X0055302Y0009488D01*
X0055302Y0010487D02*
X0054602Y0010487D01*
X0054602Y0011485D02*
X0055302Y0011485D01*
X0055302Y0012484D02*
X0054602Y0012484D01*
X0054218Y0013482D02*
X0055302Y0013482D01*
X0055302Y0014481D02*
X0053804Y0014481D01*
X0052818Y0015479D02*
X0055302Y0015479D01*
X0055302Y0016478D02*
X0051134Y0016478D01*
X0047470Y0016478D02*
X0041134Y0016478D01*
X0042818Y0015479D02*
X0045786Y0015479D01*
X0044800Y0014481D02*
X0043804Y0014481D01*
X0044218Y0013482D02*
X0044386Y0013482D01*
X0044399Y0009488D02*
X0044205Y0009488D01*
X0043787Y0008490D02*
X0044817Y0008490D01*
X0045816Y0007491D02*
X0042788Y0007491D01*
X0041063Y0006493D02*
X0047541Y0006493D01*
X0055302Y0004496D02*
X0003302Y0004496D01*
X0003302Y0003497D02*
X0055302Y0003497D01*
X0037541Y0006493D02*
X0031042Y0006493D01*
X0029786Y0006493D02*
X0028818Y0006493D01*
X0028818Y0007491D02*
X0029786Y0007491D01*
X0029786Y0008490D02*
X0028818Y0008490D01*
X0028818Y0009488D02*
X0029786Y0009488D01*
X0029786Y0010487D02*
X0028818Y0010487D01*
X0028818Y0012484D02*
X0029786Y0012484D01*
X0029786Y0013482D02*
X0028818Y0013482D01*
X0028818Y0014481D02*
X0029786Y0014481D01*
X0029786Y0015479D02*
X0028818Y0015479D01*
X0028818Y0016478D02*
X0029786Y0016478D01*
X0031133Y0016478D02*
X0037470Y0016478D01*
X0035786Y0015479D02*
X0032818Y0015479D01*
X0033688Y0014481D02*
X0034800Y0014481D01*
X0034386Y0013482D02*
X0034231Y0013482D01*
X0034221Y0009488D02*
X0034399Y0009488D01*
X0034817Y0008490D02*
X0033666Y0008490D01*
X0032788Y0007491D02*
X0035816Y0007491D01*
X0027562Y0006493D02*
X0021063Y0006493D01*
X0022788Y0007491D02*
X0025816Y0007491D01*
X0024938Y0008490D02*
X0023787Y0008490D01*
X0024205Y0009488D02*
X0024383Y0009488D01*
X0024373Y0013482D02*
X0024218Y0013482D01*
X0023804Y0014481D02*
X0024916Y0014481D01*
X0025786Y0015479D02*
X0022818Y0015479D01*
X0021134Y0016478D02*
X0027471Y0016478D01*
X0028366Y0036448D02*
X0003302Y0036448D01*
X0003302Y0037446D02*
X0027511Y0037446D01*
X0027129Y0038445D02*
X0003302Y0038445D01*
X0003302Y0039443D02*
X0027129Y0039443D01*
X0027465Y0040442D02*
X0003302Y0040442D01*
X0003302Y0043437D02*
X0055302Y0043437D01*
X0055302Y0044436D02*
X0003302Y0044436D01*
X0034143Y0045434D02*
X0055302Y0045434D01*
X0055302Y0046433D02*
X0035637Y0046433D01*
X0037045Y0047432D02*
X0055302Y0047432D01*
X0055302Y0048430D02*
X0037712Y0048430D01*
X0038379Y0049429D02*
X0055302Y0049429D01*
X0055302Y0050427D02*
X0039028Y0050427D01*
X0039227Y0051426D02*
X0055302Y0051426D01*
X0055302Y0052424D02*
X0039426Y0052424D01*
X0039624Y0053423D02*
X0055302Y0053423D01*
X0055229Y0054421D02*
X0039655Y0054421D01*
X0039457Y0055420D02*
X0055006Y0055420D01*
X0054681Y0056418D02*
X0039258Y0056418D01*
X0039059Y0057417D02*
X0054334Y0057417D01*
X0053608Y0058415D02*
X0038484Y0058415D01*
X0037816Y0059414D02*
X0052883Y0059414D01*
X0051571Y0060412D02*
X0037149Y0060412D01*
X0035871Y0061411D02*
X0049623Y0061411D01*
M02*
