G75*
%MOIN*%
%OFA0B0*%
%FSLAX25Y25*%
%IPPOS*%
%LPD*%
%AMOC8*
5,1,8,0,0,1.08239X$1,22.5*
%
%ADD10R,0.06306X0.05518*%
%ADD11OC8,0.05600*%
%ADD12C,0.07400*%
%ADD13R,0.07400X0.07400*%
%ADD14C,0.03943*%
%ADD15C,0.07800*%
%ADD16C,0.08000*%
%ADD17R,0.05943X0.05943*%
%ADD18R,0.10636X0.09061*%
%ADD19R,0.05912X0.04731*%
%ADD20R,0.09061X0.02762*%
%ADD21R,0.04337X0.04731*%
%ADD22R,0.04731X0.04337*%
%ADD23R,0.04731X0.05912*%
%ADD24R,0.03156X0.05124*%
D10*
X0069100Y0012360D03*
X0069100Y0019840D03*
X0040600Y0041860D03*
X0040600Y0049340D03*
D11*
X0082600Y0020600D03*
X0082600Y0010600D03*
D12*
X0021600Y0011100D03*
X0031600Y0011100D03*
X0103742Y0039072D03*
X0131301Y0039072D03*
D13*
X0041600Y0011100D03*
D14*
X0040100Y0032214D03*
X0040100Y0058986D03*
D15*
X0044300Y0068100D03*
X0032900Y0068100D03*
D16*
X0009100Y0060600D03*
X0009100Y0050600D03*
X0009100Y0040600D03*
X0009100Y0030600D03*
X0009100Y0020600D03*
D17*
X0058100Y0021100D03*
X0058100Y0011100D03*
X0058100Y0053600D03*
X0058100Y0063600D03*
X0137600Y0011100D03*
X0145600Y0011100D03*
D18*
X0125443Y0027100D03*
X0105757Y0027100D03*
X0042943Y0025100D03*
X0023257Y0025100D03*
D19*
X0115600Y0051663D03*
X0115600Y0059537D03*
D20*
X0095836Y0058100D03*
X0095836Y0053100D03*
X0095836Y0048100D03*
X0095836Y0043100D03*
X0075364Y0043100D03*
X0075364Y0048100D03*
X0075364Y0053100D03*
X0075364Y0058100D03*
D21*
X0099754Y0065600D03*
X0106446Y0065600D03*
X0092946Y0031600D03*
X0086254Y0031600D03*
D22*
X0055600Y0031754D03*
X0055600Y0038446D03*
X0125600Y0052254D03*
X0125600Y0058946D03*
X0135100Y0059754D03*
X0146100Y0059446D03*
X0146100Y0052754D03*
X0135100Y0066446D03*
D23*
X0121537Y0039100D03*
X0113663Y0039100D03*
X0073537Y0034100D03*
X0065663Y0034100D03*
D24*
X0022600Y0038817D03*
X0022600Y0053383D03*
M02*
