G75*
%MOIN*%
%OFA0B0*%
%FSLAX25Y25*%
%IPPOS*%
%LPD*%
%AMOC8*
5,1,8,0,0,1.08239X$1,22.5*
%
%ADD10C,0.00300*%
%ADD11C,0.00200*%
%ADD12C,0.00600*%
%ADD13C,0.01000*%
%ADD14C,0.00500*%
%ADD15C,0.00400*%
%ADD16C,0.00800*%
%ADD17C,0.00100*%
D10*
X0029410Y0018034D02*
X0029894Y0017550D01*
X0030862Y0017550D01*
X0031345Y0018034D01*
X0032357Y0017550D02*
X0034292Y0017550D01*
X0033324Y0017550D02*
X0033324Y0020452D01*
X0032357Y0019485D01*
X0031345Y0019969D02*
X0030862Y0020452D01*
X0029894Y0020452D01*
X0029410Y0019969D01*
X0029410Y0018034D01*
X0035303Y0018034D02*
X0035787Y0017550D01*
X0036755Y0017550D01*
X0037238Y0018034D01*
X0037238Y0019969D01*
X0035303Y0018034D01*
X0035303Y0019969D01*
X0035787Y0020452D01*
X0036755Y0020452D01*
X0037238Y0019969D01*
X0029803Y0029050D02*
X0029803Y0031952D01*
X0031738Y0031952D01*
X0030771Y0030501D02*
X0029803Y0030501D01*
X0028792Y0030985D02*
X0028792Y0029050D01*
X0027341Y0029050D01*
X0026857Y0029534D01*
X0026857Y0030985D01*
X0025845Y0031469D02*
X0023910Y0029534D01*
X0024394Y0029050D01*
X0025362Y0029050D01*
X0025845Y0029534D01*
X0025845Y0031469D01*
X0025362Y0031952D01*
X0024394Y0031952D01*
X0023910Y0031469D01*
X0023910Y0029534D01*
X0022899Y0029534D02*
X0022415Y0029050D01*
X0021448Y0029050D01*
X0020964Y0029534D01*
X0020964Y0030501D02*
X0021931Y0030985D01*
X0022415Y0030985D01*
X0022899Y0030501D01*
X0022899Y0029534D01*
X0020964Y0030501D02*
X0020964Y0031952D01*
X0022899Y0031952D01*
X0018985Y0031952D02*
X0018985Y0029050D01*
X0019952Y0029050D02*
X0018017Y0029050D01*
X0018017Y0030985D02*
X0018985Y0031952D01*
X0065813Y0029238D02*
X0067047Y0030473D01*
X0067047Y0026770D01*
X0065813Y0026770D02*
X0068282Y0026770D01*
X0069496Y0027387D02*
X0071965Y0029856D01*
X0071965Y0027387D01*
X0071348Y0026770D01*
X0070113Y0026770D01*
X0069496Y0027387D01*
X0069496Y0029856D01*
X0070113Y0030473D01*
X0071348Y0030473D01*
X0071965Y0029856D01*
X0073179Y0029238D02*
X0073179Y0027387D01*
X0073796Y0026770D01*
X0075648Y0026770D01*
X0075648Y0029238D01*
X0076862Y0028621D02*
X0078097Y0028621D01*
X0076862Y0026770D02*
X0076862Y0030473D01*
X0079331Y0030473D01*
X0086750Y0027685D02*
X0087717Y0028652D01*
X0087717Y0025750D01*
X0086750Y0025750D02*
X0088685Y0025750D01*
X0089697Y0025750D02*
X0089697Y0028652D01*
X0091631Y0028652D02*
X0089697Y0026717D01*
X0090180Y0027201D02*
X0091631Y0025750D01*
X0091164Y0034250D02*
X0091164Y0037152D01*
X0090197Y0036185D01*
X0089185Y0036669D02*
X0089185Y0035701D01*
X0088701Y0035217D01*
X0087250Y0035217D01*
X0087250Y0034250D02*
X0087250Y0037152D01*
X0088701Y0037152D01*
X0089185Y0036669D01*
X0088217Y0035217D02*
X0089185Y0034250D01*
X0090197Y0034250D02*
X0092131Y0034250D01*
X0093143Y0034250D02*
X0093143Y0034734D01*
X0095078Y0036669D01*
X0095078Y0037152D01*
X0093143Y0037152D01*
X0075648Y0037695D02*
X0073179Y0037695D01*
X0071965Y0037695D02*
X0069496Y0037695D01*
X0070731Y0037695D02*
X0070731Y0041398D01*
X0069496Y0040164D01*
X0068282Y0040781D02*
X0067665Y0041398D01*
X0066430Y0041398D01*
X0065813Y0040781D01*
X0065813Y0038312D01*
X0066430Y0037695D01*
X0067665Y0037695D01*
X0068282Y0038312D01*
X0073179Y0040164D02*
X0074414Y0041398D01*
X0074414Y0037695D01*
X0074683Y0023738D02*
X0074199Y0023255D01*
X0074199Y0021803D01*
X0075166Y0021803D01*
X0075650Y0022287D01*
X0075650Y0023255D01*
X0075166Y0023738D01*
X0074683Y0023738D01*
X0073231Y0022771D02*
X0074199Y0021803D01*
X0074199Y0020792D02*
X0074683Y0020308D01*
X0074683Y0018857D01*
X0075650Y0018857D02*
X0072748Y0018857D01*
X0072748Y0020308D01*
X0073231Y0020792D01*
X0074199Y0020792D01*
X0074683Y0019824D02*
X0075650Y0020792D01*
X0073231Y0022771D02*
X0072748Y0023738D01*
X0073627Y0007652D02*
X0074594Y0007652D01*
X0075078Y0007169D01*
X0073143Y0005234D01*
X0073627Y0004750D01*
X0074594Y0004750D01*
X0075078Y0005234D01*
X0075078Y0007169D01*
X0073627Y0007652D02*
X0073143Y0007169D01*
X0073143Y0005234D01*
X0072131Y0005234D02*
X0071648Y0004750D01*
X0070680Y0004750D01*
X0070197Y0005234D01*
X0069185Y0005234D02*
X0068701Y0004750D01*
X0067734Y0004750D01*
X0067250Y0005234D01*
X0068217Y0006201D02*
X0068701Y0006201D01*
X0069185Y0005717D01*
X0069185Y0005234D01*
X0068701Y0006201D02*
X0069185Y0006685D01*
X0069185Y0007169D01*
X0068701Y0007652D01*
X0067734Y0007652D01*
X0067250Y0007169D01*
X0070197Y0007169D02*
X0070197Y0006685D01*
X0070680Y0006201D01*
X0072131Y0006201D01*
X0072131Y0005234D02*
X0072131Y0007169D01*
X0071648Y0007652D01*
X0070680Y0007652D01*
X0070197Y0007169D01*
X0109750Y0019250D02*
X0111685Y0019250D01*
X0110717Y0019250D02*
X0110717Y0022152D01*
X0109750Y0021185D01*
X0112697Y0020701D02*
X0113664Y0021185D01*
X0114148Y0021185D01*
X0114631Y0020701D01*
X0114631Y0019734D01*
X0114148Y0019250D01*
X0113180Y0019250D01*
X0112697Y0019734D01*
X0112697Y0020701D02*
X0112697Y0022152D01*
X0114631Y0022152D01*
X0115643Y0021669D02*
X0116127Y0022152D01*
X0117094Y0022152D01*
X0117578Y0021669D01*
X0115643Y0019734D01*
X0116127Y0019250D01*
X0117094Y0019250D01*
X0117578Y0019734D01*
X0117578Y0021669D01*
X0118590Y0021185D02*
X0118590Y0019734D01*
X0119073Y0019250D01*
X0120525Y0019250D01*
X0120525Y0021185D01*
X0121536Y0020701D02*
X0122504Y0020701D01*
X0123471Y0022152D02*
X0121536Y0022152D01*
X0121536Y0019250D01*
X0115643Y0019734D02*
X0115643Y0021669D01*
X0115148Y0031750D02*
X0114180Y0031750D01*
X0113697Y0032234D01*
X0113697Y0033201D01*
X0115148Y0033201D01*
X0115631Y0032717D01*
X0115631Y0032234D01*
X0115148Y0031750D01*
X0115047Y0031770D02*
X0115047Y0035473D01*
X0113813Y0034238D01*
X0114664Y0034169D02*
X0113697Y0033201D01*
X0114664Y0034169D02*
X0115631Y0034652D01*
X0117496Y0034856D02*
X0118113Y0035473D01*
X0119348Y0035473D01*
X0119965Y0034856D01*
X0117496Y0032387D01*
X0118113Y0031770D01*
X0119348Y0031770D01*
X0119965Y0032387D01*
X0119965Y0034856D01*
X0121179Y0034238D02*
X0121179Y0032387D01*
X0121796Y0031770D01*
X0123648Y0031770D01*
X0123648Y0034238D01*
X0124862Y0033621D02*
X0126097Y0033621D01*
X0124862Y0031770D02*
X0124862Y0035473D01*
X0127331Y0035473D01*
X0117496Y0034856D02*
X0117496Y0032387D01*
X0116282Y0031770D02*
X0113813Y0031770D01*
X0112685Y0032234D02*
X0112201Y0031750D01*
X0111234Y0031750D01*
X0110750Y0032234D01*
X0110750Y0034169D01*
X0111234Y0034652D01*
X0112201Y0034652D01*
X0112685Y0034169D01*
X0114430Y0042695D02*
X0115665Y0042695D01*
X0116282Y0043312D01*
X0117496Y0042695D02*
X0119965Y0042695D01*
X0118731Y0042695D02*
X0118731Y0046398D01*
X0117496Y0045164D01*
X0116282Y0045781D02*
X0115665Y0046398D01*
X0114430Y0046398D01*
X0113813Y0045781D01*
X0113813Y0043312D01*
X0114430Y0042695D01*
X0112170Y0048401D02*
X0112170Y0050336D01*
X0112170Y0049368D02*
X0109267Y0049368D01*
X0110235Y0048401D01*
X0109751Y0051347D02*
X0109267Y0051831D01*
X0109267Y0052799D01*
X0109751Y0053282D01*
X0111686Y0051347D01*
X0112170Y0051831D01*
X0112170Y0052799D01*
X0111686Y0053282D01*
X0109751Y0053282D01*
X0110235Y0054294D02*
X0111686Y0054294D01*
X0112170Y0054778D01*
X0112170Y0056229D01*
X0110235Y0056229D01*
X0110718Y0057240D02*
X0110718Y0058208D01*
X0109267Y0059175D02*
X0109267Y0057240D01*
X0112170Y0057240D01*
X0106131Y0059750D02*
X0104680Y0061201D01*
X0104197Y0060717D02*
X0106131Y0062652D01*
X0104197Y0062652D02*
X0104197Y0059750D01*
X0103185Y0059750D02*
X0101250Y0059750D01*
X0102217Y0059750D02*
X0102217Y0062652D01*
X0101250Y0061685D01*
X0100750Y0068250D02*
X0100750Y0071152D01*
X0102201Y0071152D01*
X0102685Y0070669D01*
X0102685Y0069701D01*
X0102201Y0069217D01*
X0100750Y0069217D01*
X0101717Y0069217D02*
X0102685Y0068250D01*
X0103697Y0068250D02*
X0105631Y0070185D01*
X0105631Y0070669D01*
X0105148Y0071152D01*
X0104180Y0071152D01*
X0103697Y0070669D01*
X0103697Y0068250D02*
X0105631Y0068250D01*
X0106643Y0068734D02*
X0108578Y0070669D01*
X0108578Y0068734D01*
X0108094Y0068250D01*
X0107127Y0068250D01*
X0106643Y0068734D01*
X0106643Y0070669D01*
X0107127Y0071152D01*
X0108094Y0071152D01*
X0108578Y0070669D01*
X0120048Y0061078D02*
X0120531Y0060111D01*
X0121499Y0059143D01*
X0121499Y0060594D01*
X0121983Y0061078D01*
X0122466Y0061078D01*
X0122950Y0060594D01*
X0122950Y0059627D01*
X0122466Y0059143D01*
X0121499Y0059143D01*
X0122950Y0058131D02*
X0122950Y0056197D01*
X0122950Y0057164D02*
X0120048Y0057164D01*
X0121015Y0056197D01*
X0121611Y0055729D02*
X0122095Y0055245D01*
X0122095Y0054278D01*
X0121611Y0053794D01*
X0119676Y0053794D01*
X0119192Y0054278D01*
X0119192Y0055245D01*
X0119676Y0055729D01*
X0120531Y0055185D02*
X0121499Y0055185D01*
X0121983Y0054701D01*
X0121983Y0053250D01*
X0122950Y0053250D02*
X0120048Y0053250D01*
X0120048Y0054701D01*
X0120531Y0055185D01*
X0121983Y0054217D02*
X0122950Y0055185D01*
X0122095Y0056740D02*
X0121611Y0056740D01*
X0119676Y0058675D01*
X0119192Y0058675D01*
X0119192Y0056740D01*
X0128548Y0056197D02*
X0131450Y0056197D01*
X0130483Y0056197D02*
X0128548Y0058131D01*
X0129999Y0056680D02*
X0131450Y0058131D01*
X0131450Y0055185D02*
X0131450Y0053250D01*
X0131450Y0054217D02*
X0128548Y0054217D01*
X0129515Y0053250D01*
X0140548Y0053750D02*
X0140548Y0055201D01*
X0141031Y0055685D01*
X0141999Y0055685D01*
X0142483Y0055201D01*
X0142483Y0053750D01*
X0143450Y0053750D02*
X0140548Y0053750D01*
X0142483Y0054717D02*
X0143450Y0055685D01*
X0143450Y0056697D02*
X0143450Y0058631D01*
X0143450Y0057664D02*
X0140548Y0057664D01*
X0141515Y0056697D01*
X0141999Y0059643D02*
X0141999Y0061578D01*
X0143450Y0061094D02*
X0140548Y0061094D01*
X0141999Y0059643D01*
X0150548Y0060127D02*
X0150548Y0061094D01*
X0151031Y0061578D01*
X0152966Y0059643D01*
X0153450Y0060127D01*
X0153450Y0061094D01*
X0152966Y0061578D01*
X0151031Y0061578D01*
X0150548Y0062590D02*
X0153450Y0062590D01*
X0152483Y0062590D02*
X0150548Y0064525D01*
X0151999Y0063073D02*
X0153450Y0064525D01*
X0150548Y0060127D02*
X0151031Y0059643D01*
X0152966Y0059643D01*
X0152966Y0058631D02*
X0151999Y0058631D01*
X0151515Y0058148D01*
X0151515Y0057664D01*
X0151999Y0056697D01*
X0150548Y0056697D01*
X0150548Y0058631D01*
X0152966Y0058631D02*
X0153450Y0058148D01*
X0153450Y0057180D01*
X0152966Y0056697D01*
X0153450Y0055685D02*
X0153450Y0053750D01*
X0153450Y0054717D02*
X0150548Y0054717D01*
X0151515Y0053750D01*
X0111686Y0051347D02*
X0109751Y0051347D01*
X0025096Y0068250D02*
X0025096Y0071152D01*
X0023161Y0071152D02*
X0025096Y0068250D01*
X0023161Y0068250D02*
X0023161Y0071152D01*
X0022164Y0071152D02*
X0021197Y0071152D01*
X0021680Y0071152D02*
X0021680Y0068250D01*
X0021197Y0068250D02*
X0022164Y0068250D01*
X0020185Y0069217D02*
X0020185Y0071152D01*
X0018250Y0071152D02*
X0018250Y0069217D01*
X0019217Y0068250D01*
X0020185Y0069217D01*
D11*
X0026899Y0069514D02*
X0026899Y0068580D01*
X0028300Y0068580D01*
X0028300Y0069514D01*
X0028300Y0070053D02*
X0026899Y0070053D01*
X0026899Y0070754D01*
X0027132Y0070988D01*
X0027599Y0070988D01*
X0027833Y0070754D01*
X0027833Y0070053D01*
X0027833Y0070521D02*
X0028300Y0070988D01*
X0028300Y0071994D02*
X0027599Y0071994D01*
X0027132Y0072461D01*
X0026899Y0072461D01*
X0027599Y0071994D02*
X0027132Y0071527D01*
X0026899Y0071527D01*
X0027599Y0069047D02*
X0027599Y0068580D01*
X0026899Y0068041D02*
X0026899Y0067107D01*
X0026899Y0067574D02*
X0028300Y0067574D01*
X0026899Y0066568D02*
X0026899Y0065634D01*
X0026899Y0066101D02*
X0028300Y0066101D01*
X0028300Y0065095D02*
X0027366Y0065095D01*
X0026899Y0064628D01*
X0027366Y0064160D01*
X0028300Y0064160D01*
X0028066Y0063621D02*
X0028300Y0063388D01*
X0028300Y0062687D01*
X0026899Y0062687D01*
X0026899Y0063388D01*
X0027132Y0063621D01*
X0027366Y0063621D01*
X0027599Y0063388D01*
X0027599Y0062687D01*
X0027599Y0063388D02*
X0027833Y0063621D01*
X0028066Y0063621D01*
X0027599Y0064160D02*
X0027599Y0065095D01*
X0046500Y0050878D02*
X0046500Y0049410D01*
X0046500Y0050144D02*
X0044298Y0050144D01*
X0045032Y0049410D01*
X0044665Y0048668D02*
X0044298Y0048301D01*
X0044298Y0047200D01*
X0046500Y0047200D01*
X0045766Y0047200D02*
X0045766Y0048301D01*
X0045399Y0048668D01*
X0044665Y0048668D01*
X0045766Y0047934D02*
X0046500Y0048668D01*
X0046500Y0042878D02*
X0045399Y0041777D01*
X0045766Y0041410D02*
X0044298Y0042878D01*
X0044298Y0041410D02*
X0046500Y0041410D01*
X0046500Y0040668D02*
X0046500Y0039200D01*
X0046500Y0039934D02*
X0044298Y0039934D01*
X0045032Y0039200D01*
X0043458Y0018002D02*
X0043458Y0015800D01*
X0041990Y0018002D01*
X0041990Y0015800D01*
X0041251Y0015800D02*
X0040517Y0015800D01*
X0040884Y0015800D02*
X0040884Y0018002D01*
X0040517Y0018002D02*
X0041251Y0018002D01*
X0035958Y0017635D02*
X0035958Y0016167D01*
X0035591Y0015800D01*
X0034490Y0015800D01*
X0034490Y0018002D01*
X0035591Y0018002D01*
X0035958Y0017635D01*
X0033748Y0018002D02*
X0033748Y0015800D01*
X0032280Y0018002D01*
X0032280Y0015800D01*
X0031538Y0016167D02*
X0031538Y0016901D01*
X0030804Y0016901D01*
X0030070Y0017635D02*
X0030070Y0016167D01*
X0030437Y0015800D01*
X0031171Y0015800D01*
X0031538Y0016167D01*
X0031538Y0017635D02*
X0031171Y0018002D01*
X0030437Y0018002D01*
X0030070Y0017635D01*
X0023458Y0018002D02*
X0021990Y0018002D01*
X0022724Y0018002D02*
X0022724Y0015800D01*
X0021248Y0016167D02*
X0021248Y0018002D01*
X0019780Y0018002D02*
X0019780Y0016167D01*
X0020147Y0015800D01*
X0020881Y0015800D01*
X0021248Y0016167D01*
X0019038Y0016167D02*
X0018671Y0015800D01*
X0017937Y0015800D01*
X0017570Y0016167D01*
X0017570Y0017635D01*
X0017937Y0018002D01*
X0018671Y0018002D01*
X0019038Y0017635D01*
X0019038Y0016167D01*
X0079360Y0017002D02*
X0079360Y0014800D01*
X0080828Y0014800D01*
X0081570Y0014800D02*
X0083038Y0014800D01*
X0083780Y0014800D02*
X0084881Y0014800D01*
X0085248Y0015167D01*
X0085248Y0016635D01*
X0084881Y0017002D01*
X0083780Y0017002D01*
X0083780Y0014800D01*
X0082304Y0015901D02*
X0081570Y0015901D01*
X0081570Y0017002D02*
X0081570Y0014800D01*
X0081570Y0017002D02*
X0083038Y0017002D01*
X0085990Y0016268D02*
X0086724Y0017002D01*
X0086724Y0014800D01*
X0085990Y0014800D02*
X0087458Y0014800D01*
D12*
X0079113Y0020482D02*
X0078988Y0020391D01*
X0078866Y0020297D01*
X0078747Y0020199D01*
X0078630Y0020099D01*
X0078516Y0019995D01*
X0078404Y0019889D01*
X0078296Y0019780D01*
X0078190Y0019668D01*
X0078087Y0019553D01*
X0077987Y0019436D01*
X0077889Y0019316D01*
X0077796Y0019194D01*
X0077705Y0019070D01*
X0077617Y0018943D01*
X0077533Y0018814D01*
X0077452Y0018682D01*
X0077375Y0018549D01*
X0077301Y0018414D01*
X0077230Y0018277D01*
X0077163Y0018138D01*
X0077100Y0017998D01*
X0077040Y0017855D01*
X0076984Y0017712D01*
X0076932Y0017567D01*
X0076883Y0017421D01*
X0076838Y0017273D01*
X0076797Y0017125D01*
X0076760Y0016975D01*
X0076726Y0016825D01*
X0076697Y0016673D01*
X0076671Y0016521D01*
X0076649Y0016369D01*
X0076632Y0016216D01*
X0076618Y0016062D01*
X0076608Y0015908D01*
X0076602Y0015754D01*
X0076600Y0015600D01*
X0086283Y0010864D02*
X0086402Y0010958D01*
X0086518Y0011056D01*
X0086632Y0011156D01*
X0086743Y0011260D01*
X0086851Y0011366D01*
X0086957Y0011474D01*
X0087059Y0011586D01*
X0087159Y0011700D01*
X0087257Y0011816D01*
X0087351Y0011935D01*
X0087442Y0012056D01*
X0087530Y0012180D01*
X0087615Y0012306D01*
X0087696Y0012433D01*
X0087775Y0012563D01*
X0087850Y0012695D01*
X0087921Y0012828D01*
X0087990Y0012964D01*
X0088055Y0013101D01*
X0088116Y0013239D01*
X0088174Y0013380D01*
X0088228Y0013521D01*
X0088279Y0013664D01*
X0088326Y0013808D01*
X0088370Y0013953D01*
X0088409Y0014100D01*
X0088445Y0014247D01*
X0088478Y0014395D01*
X0088506Y0014544D01*
X0088531Y0014694D01*
X0088552Y0014844D01*
X0088569Y0014994D01*
X0088583Y0015146D01*
X0088592Y0015297D01*
X0088598Y0015448D01*
X0088600Y0015600D01*
X0079000Y0010800D02*
X0078881Y0010892D01*
X0078764Y0010986D01*
X0078650Y0011084D01*
X0078538Y0011184D01*
X0078428Y0011288D01*
X0078322Y0011393D01*
X0078217Y0011502D01*
X0078116Y0011613D01*
X0078018Y0011727D01*
X0077922Y0011843D01*
X0077829Y0011961D01*
X0077740Y0012082D01*
X0077653Y0012205D01*
X0077570Y0012330D01*
X0077489Y0012457D01*
X0077412Y0012586D01*
X0077338Y0012717D01*
X0077267Y0012850D01*
X0077200Y0012984D01*
X0077136Y0013120D01*
X0077076Y0013258D01*
X0077019Y0013397D01*
X0076966Y0013538D01*
X0076916Y0013680D01*
X0076869Y0013823D01*
X0076827Y0013967D01*
X0076787Y0014112D01*
X0076752Y0014258D01*
X0076720Y0014405D01*
X0076692Y0014553D01*
X0076668Y0014701D01*
X0076647Y0014850D01*
X0076630Y0015000D01*
X0076617Y0015149D01*
X0076608Y0015299D01*
X0076602Y0015450D01*
X0076600Y0015600D01*
X0086283Y0020336D02*
X0086402Y0020242D01*
X0086518Y0020144D01*
X0086632Y0020044D01*
X0086743Y0019940D01*
X0086851Y0019834D01*
X0086957Y0019726D01*
X0087059Y0019614D01*
X0087159Y0019500D01*
X0087257Y0019384D01*
X0087351Y0019265D01*
X0087442Y0019144D01*
X0087530Y0019020D01*
X0087615Y0018894D01*
X0087696Y0018767D01*
X0087775Y0018637D01*
X0087850Y0018505D01*
X0087921Y0018372D01*
X0087990Y0018236D01*
X0088055Y0018099D01*
X0088116Y0017961D01*
X0088174Y0017820D01*
X0088228Y0017679D01*
X0088279Y0017536D01*
X0088326Y0017392D01*
X0088370Y0017247D01*
X0088409Y0017100D01*
X0088445Y0016953D01*
X0088478Y0016805D01*
X0088506Y0016656D01*
X0088531Y0016506D01*
X0088552Y0016356D01*
X0088569Y0016206D01*
X0088583Y0016054D01*
X0088592Y0015903D01*
X0088598Y0015752D01*
X0088600Y0015600D01*
D13*
X0078835Y0008541D02*
X0078667Y0008634D01*
X0078501Y0008730D01*
X0078337Y0008830D01*
X0078176Y0008935D01*
X0078017Y0009043D01*
X0077861Y0009155D01*
X0077707Y0009271D01*
X0077557Y0009390D01*
X0077409Y0009513D01*
X0077264Y0009639D01*
X0077123Y0009769D01*
X0076984Y0009902D01*
X0076849Y0010039D01*
X0076717Y0010179D01*
X0076589Y0010321D01*
X0076464Y0010467D01*
X0076342Y0010616D01*
X0076224Y0010768D01*
X0076110Y0010922D01*
X0076000Y0011080D01*
X0075893Y0011239D01*
X0075790Y0011402D01*
X0075691Y0011567D01*
X0075596Y0011734D01*
X0075506Y0011903D01*
X0075419Y0012074D01*
X0075336Y0012248D01*
X0075258Y0012423D01*
X0075184Y0012601D01*
X0075114Y0012780D01*
X0075048Y0012960D01*
X0074987Y0013142D01*
X0074930Y0013326D01*
X0074878Y0013511D01*
X0074830Y0013697D01*
X0074786Y0013884D01*
X0074747Y0014072D01*
X0074713Y0014261D01*
X0074683Y0014451D01*
X0074658Y0014641D01*
X0074637Y0014832D01*
X0074621Y0015024D01*
X0074609Y0015216D01*
X0074602Y0015408D01*
X0074600Y0015600D01*
X0086569Y0008654D02*
X0086738Y0008753D01*
X0086904Y0008857D01*
X0087068Y0008964D01*
X0087229Y0009075D01*
X0087387Y0009190D01*
X0087542Y0009309D01*
X0087695Y0009432D01*
X0087844Y0009558D01*
X0087990Y0009688D01*
X0088133Y0009822D01*
X0088273Y0009959D01*
X0088409Y0010099D01*
X0088542Y0010243D01*
X0088671Y0010390D01*
X0088797Y0010540D01*
X0088918Y0010693D01*
X0089037Y0010849D01*
X0089151Y0011008D01*
X0089261Y0011169D01*
X0089367Y0011334D01*
X0089470Y0011500D01*
X0089568Y0011670D01*
X0089662Y0011841D01*
X0089752Y0012015D01*
X0089837Y0012191D01*
X0089919Y0012369D01*
X0089995Y0012549D01*
X0090068Y0012731D01*
X0090136Y0012914D01*
X0090199Y0013099D01*
X0090258Y0013286D01*
X0090312Y0013474D01*
X0090362Y0013663D01*
X0090407Y0013853D01*
X0090447Y0014045D01*
X0090483Y0014237D01*
X0090514Y0014430D01*
X0090540Y0014624D01*
X0090562Y0014819D01*
X0090578Y0015014D01*
X0090590Y0015209D01*
X0090598Y0015405D01*
X0090600Y0015600D01*
X0090598Y0015793D01*
X0090591Y0015986D01*
X0090579Y0016178D01*
X0090563Y0016371D01*
X0090542Y0016563D01*
X0090516Y0016754D01*
X0090486Y0016944D01*
X0090451Y0017134D01*
X0090412Y0017323D01*
X0090368Y0017511D01*
X0090320Y0017698D01*
X0090267Y0017884D01*
X0090210Y0018068D01*
X0090148Y0018251D01*
X0090082Y0018432D01*
X0090011Y0018612D01*
X0089937Y0018790D01*
X0089858Y0018966D01*
X0089774Y0019140D01*
X0089687Y0019312D01*
X0089595Y0019482D01*
X0089499Y0019649D01*
X0089400Y0019815D01*
X0089296Y0019978D01*
X0089189Y0020138D01*
X0089077Y0020295D01*
X0088962Y0020450D01*
X0088843Y0020602D01*
X0088721Y0020751D01*
X0088595Y0020898D01*
X0088465Y0021041D01*
X0088332Y0021181D01*
X0088196Y0021317D01*
X0088056Y0021451D01*
X0087914Y0021580D01*
X0087768Y0021707D01*
X0077478Y0021746D02*
X0077330Y0021619D01*
X0077185Y0021489D01*
X0077044Y0021356D01*
X0076905Y0021219D01*
X0076770Y0021079D01*
X0076639Y0020935D01*
X0076511Y0020788D01*
X0076386Y0020639D01*
X0076265Y0020486D01*
X0076148Y0020331D01*
X0076035Y0020172D01*
X0075926Y0020011D01*
X0075821Y0019847D01*
X0075719Y0019681D01*
X0075622Y0019512D01*
X0075529Y0019342D01*
X0075440Y0019168D01*
X0075355Y0018993D01*
X0075275Y0018816D01*
X0075199Y0018637D01*
X0075127Y0018456D01*
X0075060Y0018273D01*
X0074997Y0018089D01*
X0074939Y0017903D01*
X0074885Y0017716D01*
X0074836Y0017528D01*
X0074791Y0017338D01*
X0074751Y0017148D01*
X0074716Y0016956D01*
X0074685Y0016764D01*
X0074659Y0016571D01*
X0074638Y0016377D01*
X0074621Y0016183D01*
X0074609Y0015989D01*
X0074602Y0015795D01*
X0074600Y0015600D01*
D14*
X0015600Y0006100D02*
X0015600Y0056600D01*
X0047600Y0056600D01*
X0047600Y0006100D01*
X0015600Y0006100D01*
X0050600Y0005600D02*
X0150600Y0005600D01*
X0150600Y0071600D01*
X0050600Y0071600D01*
X0050600Y0005600D01*
X0025600Y0039100D02*
X0019600Y0039100D01*
X0019600Y0053100D01*
X0025600Y0053100D01*
X0025600Y0039100D01*
D15*
X0025598Y0037901D02*
X0027466Y0037901D01*
X0028400Y0036967D01*
X0027466Y0036033D01*
X0025598Y0036033D01*
X0026065Y0034954D02*
X0025598Y0034487D01*
X0025598Y0033553D01*
X0026065Y0033086D01*
X0026532Y0034954D02*
X0028400Y0033086D01*
X0028400Y0034954D01*
X0026532Y0034954D02*
X0026065Y0034954D01*
X0028400Y0032008D02*
X0028400Y0030140D01*
X0028400Y0031074D02*
X0025598Y0031074D01*
X0026532Y0030140D01*
X0025598Y0029061D02*
X0028400Y0027193D01*
X0027466Y0026115D02*
X0025598Y0026115D01*
X0027466Y0026115D02*
X0028400Y0025181D01*
X0027466Y0024247D01*
X0025598Y0024247D01*
X0025598Y0023168D02*
X0025598Y0021300D01*
X0026999Y0021300D01*
X0026532Y0022234D01*
X0026532Y0022701D01*
X0026999Y0023168D01*
X0027933Y0023168D01*
X0028400Y0022701D01*
X0028400Y0021767D01*
X0027933Y0021300D01*
X0048296Y0032800D02*
X0048296Y0035102D01*
X0049063Y0035869D01*
X0050598Y0035869D01*
X0051365Y0035102D01*
X0051365Y0032800D01*
X0052900Y0032800D02*
X0048296Y0032800D01*
X0051365Y0034335D02*
X0052900Y0035869D01*
X0052900Y0037404D02*
X0049831Y0040473D01*
X0049063Y0040473D01*
X0048296Y0039706D01*
X0048296Y0038171D01*
X0049063Y0037404D01*
X0052900Y0037404D02*
X0052900Y0040473D01*
X0052900Y0042008D02*
X0049831Y0045077D01*
X0049063Y0045077D01*
X0048296Y0044310D01*
X0048296Y0042775D01*
X0049063Y0042008D01*
X0052900Y0042008D02*
X0052900Y0045077D01*
X0058296Y0039706D02*
X0059063Y0040473D01*
X0062133Y0037404D01*
X0062900Y0038171D01*
X0062900Y0039706D01*
X0062133Y0040473D01*
X0059063Y0040473D01*
X0058296Y0039706D02*
X0058296Y0038171D01*
X0059063Y0037404D01*
X0062133Y0037404D01*
X0062900Y0035869D02*
X0062900Y0032800D01*
X0062900Y0034335D02*
X0058296Y0034335D01*
X0059831Y0032800D01*
X0028400Y0041926D02*
X0025598Y0041926D01*
X0025598Y0043327D01*
X0026065Y0043794D01*
X0026999Y0043794D01*
X0027466Y0043327D01*
X0027466Y0041926D01*
X0027466Y0042860D02*
X0028400Y0043794D01*
X0028400Y0044872D02*
X0025598Y0044872D01*
X0025598Y0046740D01*
X0026065Y0047819D02*
X0027933Y0047819D01*
X0028400Y0048286D01*
X0028400Y0049220D01*
X0027933Y0049687D01*
X0026999Y0049687D01*
X0026999Y0048753D01*
X0026065Y0049687D02*
X0025598Y0049220D01*
X0025598Y0048286D01*
X0026065Y0047819D01*
X0028400Y0046740D02*
X0028400Y0044872D01*
X0026999Y0044872D02*
X0026999Y0045806D01*
X0078300Y0061300D02*
X0079835Y0061300D01*
X0079067Y0061300D02*
X0079067Y0065904D01*
X0078300Y0065904D02*
X0079835Y0065904D01*
X0081369Y0065137D02*
X0081369Y0062067D01*
X0082137Y0061300D01*
X0083671Y0061300D01*
X0084439Y0062067D01*
X0085973Y0062067D02*
X0086741Y0061300D01*
X0088275Y0061300D01*
X0089042Y0062067D01*
X0089042Y0062835D01*
X0088275Y0063602D01*
X0087508Y0063602D01*
X0088275Y0063602D02*
X0089042Y0064369D01*
X0089042Y0065137D01*
X0088275Y0065904D01*
X0086741Y0065904D01*
X0085973Y0065137D01*
X0084439Y0065137D02*
X0083671Y0065904D01*
X0082137Y0065904D01*
X0081369Y0065137D01*
X0127796Y0066939D02*
X0132400Y0066939D01*
X0132400Y0068473D02*
X0132400Y0065404D01*
X0132400Y0063869D02*
X0130865Y0062335D01*
X0130865Y0063102D02*
X0130865Y0060800D01*
X0132400Y0060800D02*
X0127796Y0060800D01*
X0127796Y0063102D01*
X0128563Y0063869D01*
X0130098Y0063869D01*
X0130865Y0063102D01*
X0129331Y0065404D02*
X0127796Y0066939D01*
X0128563Y0070008D02*
X0127796Y0070775D01*
X0127796Y0072310D01*
X0128563Y0073077D01*
X0129331Y0073077D01*
X0130098Y0072310D01*
X0130865Y0073077D01*
X0131633Y0073077D01*
X0132400Y0072310D01*
X0132400Y0070775D01*
X0131633Y0070008D01*
X0130098Y0071542D02*
X0130098Y0072310D01*
X0137796Y0072310D02*
X0137796Y0070775D01*
X0138563Y0070008D01*
X0141633Y0070008D01*
X0138563Y0073077D01*
X0141633Y0073077D01*
X0142400Y0072310D01*
X0142400Y0070775D01*
X0141633Y0070008D01*
X0141633Y0068473D02*
X0138563Y0068473D01*
X0141633Y0065404D01*
X0142400Y0066171D01*
X0142400Y0067706D01*
X0141633Y0068473D01*
X0138563Y0068473D02*
X0137796Y0067706D01*
X0137796Y0066171D01*
X0138563Y0065404D01*
X0141633Y0065404D01*
X0142400Y0063869D02*
X0142400Y0060800D01*
X0142400Y0062335D02*
X0137796Y0062335D01*
X0139331Y0060800D01*
X0137796Y0072310D02*
X0138563Y0073077D01*
X0137796Y0074612D02*
X0142400Y0074612D01*
X0140865Y0074612D02*
X0137796Y0077681D01*
X0140098Y0075379D02*
X0142400Y0077681D01*
D16*
X0127143Y0033545D02*
X0103958Y0033545D01*
X0103958Y0020655D02*
X0127143Y0020655D01*
X0048600Y0065600D02*
X0046100Y0063100D01*
X0041100Y0063100D01*
X0038600Y0065600D01*
X0036100Y0063100D01*
X0031100Y0063100D01*
X0028600Y0065600D01*
X0028600Y0070600D01*
X0031100Y0073100D01*
X0036100Y0073100D01*
X0038600Y0070600D01*
X0041100Y0073100D01*
X0046100Y0073100D01*
X0048600Y0070600D01*
X0048600Y0065600D01*
X0044742Y0031545D02*
X0021557Y0031545D01*
X0021557Y0018655D02*
X0044742Y0018655D01*
D17*
X0019095Y0041641D02*
X0019095Y0042642D01*
X0019095Y0043114D02*
X0017594Y0043114D01*
X0019095Y0044115D01*
X0017594Y0044115D01*
X0018344Y0044588D02*
X0018344Y0045589D01*
X0018094Y0046061D02*
X0017594Y0046561D01*
X0019095Y0046561D01*
X0019095Y0046061D02*
X0019095Y0047062D01*
X0018344Y0047534D02*
X0018344Y0048535D01*
X0018094Y0049007D02*
X0017844Y0049007D01*
X0017594Y0049258D01*
X0017594Y0049758D01*
X0017844Y0050008D01*
X0018094Y0050008D01*
X0018344Y0049758D01*
X0018344Y0049258D01*
X0018094Y0049007D01*
X0018344Y0049258D02*
X0018594Y0049007D01*
X0018845Y0049007D01*
X0019095Y0049258D01*
X0019095Y0049758D01*
X0018845Y0050008D01*
X0018594Y0050008D01*
X0018344Y0049758D01*
X0017594Y0048285D02*
X0018344Y0047534D01*
X0017594Y0048285D02*
X0019095Y0048285D01*
X0019095Y0045338D02*
X0017594Y0045338D01*
X0018344Y0044588D01*
X0017594Y0042142D02*
X0019095Y0042142D01*
X0018094Y0041641D02*
X0017594Y0042142D01*
X0026586Y0047534D02*
X0026586Y0048285D01*
X0026836Y0048535D01*
X0027837Y0048535D01*
X0028087Y0048285D01*
X0028087Y0047534D01*
X0026586Y0047534D01*
X0027086Y0049007D02*
X0026586Y0049508D01*
X0028087Y0049508D01*
X0028087Y0050008D02*
X0028087Y0049007D01*
M02*
