G75*
%MOIN*%
%OFA0B0*%
%FSLAX25Y25*%
%IPPOS*%
%LPD*%
%AMOC8*
5,1,8,0,0,1.08239X$1,22.5*
%
%ADD10OC8,0.05200*%
%ADD11C,0.07000*%
%ADD12R,0.07000X0.07000*%
%ADD13R,0.05512X0.04724*%
%ADD14C,0.07400*%
%ADD15C,0.07600*%
%ADD16R,0.05543X0.05543*%
%ADD17R,0.05906X0.06299*%
%ADD18R,0.04724X0.04724*%
%ADD19R,0.06000X0.12500*%
%ADD20C,0.01200*%
%ADD21C,0.03160*%
%ADD22C,0.03346*%
%ADD23C,0.01600*%
%ADD24C,0.03150*%
D10*
X0082600Y0010600D03*
X0082600Y0020600D03*
D11*
X0031600Y0011100D03*
X0021600Y0011100D03*
D12*
X0041600Y0011100D03*
D13*
X0031439Y0035757D03*
X0048761Y0045600D03*
X0031439Y0055443D03*
D14*
X0032900Y0068100D03*
X0044300Y0068100D03*
D15*
X0009100Y0060600D03*
X0009100Y0050600D03*
X0009100Y0040600D03*
X0009100Y0030600D03*
X0009100Y0020600D03*
D16*
X0058100Y0021100D03*
X0058100Y0011100D03*
X0058100Y0053600D03*
X0058100Y0063600D03*
X0137600Y0011100D03*
X0145600Y0011100D03*
D17*
X0072100Y0042506D03*
X0072600Y0055194D03*
X0090600Y0055194D03*
D18*
X0086663Y0068285D03*
X0094537Y0068285D03*
X0076537Y0068285D03*
X0068663Y0068285D03*
X0068163Y0029415D03*
X0076037Y0029415D03*
D19*
X0098435Y0022850D03*
X0135002Y0022850D03*
X0145924Y0022850D03*
X0127191Y0054460D03*
D20*
X0004250Y0018721D02*
X0004250Y0006250D01*
X0020505Y0006250D01*
X0018824Y0006946D01*
X0017446Y0008324D01*
X0016700Y0010125D01*
X0016700Y0012075D01*
X0017446Y0013876D01*
X0018824Y0015254D01*
X0020625Y0016000D01*
X0022575Y0016000D01*
X0024376Y0015254D01*
X0025754Y0013876D01*
X0026500Y0012075D01*
X0026500Y0010125D01*
X0025754Y0008324D01*
X0024376Y0006946D01*
X0022695Y0006250D01*
X0030023Y0006250D01*
X0029642Y0006374D01*
X0028927Y0006738D01*
X0028278Y0007210D01*
X0027710Y0007778D01*
X0027238Y0008427D01*
X0026874Y0009142D01*
X0026626Y0009906D01*
X0026500Y0010699D01*
X0026500Y0010814D01*
X0031314Y0010814D01*
X0031314Y0011386D01*
X0031314Y0016200D01*
X0031199Y0016200D01*
X0030406Y0016074D01*
X0029642Y0015826D01*
X0028927Y0015462D01*
X0028278Y0014990D01*
X0027710Y0014422D01*
X0027238Y0013773D01*
X0026874Y0013058D01*
X0026626Y0012294D01*
X0026500Y0011501D01*
X0026500Y0011386D01*
X0031314Y0011386D01*
X0031886Y0011386D01*
X0031886Y0016200D01*
X0032001Y0016200D01*
X0032794Y0016074D01*
X0033558Y0015826D01*
X0034273Y0015462D01*
X0034922Y0014990D01*
X0035490Y0014422D01*
X0035962Y0013773D01*
X0036326Y0013058D01*
X0036574Y0012294D01*
X0036700Y0011501D01*
X0036700Y0011386D01*
X0031886Y0011386D01*
X0031886Y0010814D01*
X0036700Y0010814D01*
X0036700Y0010699D01*
X0036574Y0009906D01*
X0036326Y0009142D01*
X0035962Y0008427D01*
X0035490Y0007778D01*
X0034922Y0007210D01*
X0034273Y0006738D01*
X0033558Y0006374D01*
X0033177Y0006250D01*
X0037470Y0006250D01*
X0036700Y0007020D01*
X0036700Y0015180D01*
X0037520Y0016000D01*
X0037872Y0016000D01*
X0030100Y0023772D01*
X0030100Y0031995D01*
X0028103Y0031995D01*
X0027283Y0032815D01*
X0027283Y0038700D01*
X0028103Y0039520D01*
X0028352Y0039520D01*
X0011787Y0056085D01*
X0010617Y0055600D01*
X0012046Y0055008D01*
X0013508Y0053546D01*
X0014300Y0051634D01*
X0014300Y0049566D01*
X0013508Y0047654D01*
X0012046Y0046192D01*
X0010867Y0045704D01*
X0011173Y0045604D01*
X0011930Y0045218D01*
X0012618Y0044719D01*
X0013219Y0044118D01*
X0013718Y0043430D01*
X0014104Y0042673D01*
X0014367Y0041865D01*
X0014500Y0041025D01*
X0014500Y0040984D01*
X0009484Y0040984D01*
X0009484Y0040216D01*
X0014500Y0040216D01*
X0014500Y0040175D01*
X0014367Y0039335D01*
X0014104Y0038527D01*
X0013718Y0037770D01*
X0013219Y0037082D01*
X0012618Y0036481D01*
X0011930Y0035982D01*
X0011173Y0035596D01*
X0010867Y0035496D01*
X0012046Y0035008D01*
X0013508Y0033546D01*
X0014300Y0031634D01*
X0014300Y0029566D01*
X0013508Y0027654D01*
X0012046Y0026192D01*
X0010617Y0025600D01*
X0012046Y0025008D01*
X0013508Y0023546D01*
X0014300Y0021634D01*
X0014300Y0019566D01*
X0013508Y0017654D01*
X0012046Y0016192D01*
X0010134Y0015400D01*
X0008066Y0015400D01*
X0006154Y0016192D01*
X0004692Y0017654D01*
X0004250Y0018721D01*
X0004250Y0017784D02*
X0004638Y0017784D01*
X0004250Y0016585D02*
X0005761Y0016585D01*
X0004250Y0015387D02*
X0019144Y0015387D01*
X0017758Y0014188D02*
X0004250Y0014188D01*
X0004250Y0012990D02*
X0017079Y0012990D01*
X0016700Y0011791D02*
X0004250Y0011791D01*
X0004250Y0010593D02*
X0016700Y0010593D01*
X0017003Y0009394D02*
X0004250Y0009394D01*
X0004250Y0008196D02*
X0017575Y0008196D01*
X0018773Y0006997D02*
X0004250Y0006997D01*
X0012439Y0016585D02*
X0037286Y0016585D01*
X0036907Y0015387D02*
X0034377Y0015387D01*
X0031886Y0015387D02*
X0031314Y0015387D01*
X0028823Y0015387D02*
X0024056Y0015387D01*
X0025442Y0014188D02*
X0027540Y0014188D01*
X0026852Y0012990D02*
X0026121Y0012990D01*
X0026500Y0011791D02*
X0026546Y0011791D01*
X0026500Y0010593D02*
X0026517Y0010593D01*
X0026792Y0009394D02*
X0026197Y0009394D01*
X0025625Y0008196D02*
X0027406Y0008196D01*
X0028571Y0006997D02*
X0024427Y0006997D01*
X0031314Y0011791D02*
X0031886Y0011791D01*
X0031886Y0012990D02*
X0031314Y0012990D01*
X0031314Y0014188D02*
X0031886Y0014188D01*
X0035660Y0014188D02*
X0036700Y0014188D01*
X0036700Y0012990D02*
X0036348Y0012990D01*
X0036654Y0011791D02*
X0036700Y0011791D01*
X0036683Y0010593D02*
X0036700Y0010593D01*
X0036700Y0009394D02*
X0036408Y0009394D01*
X0036700Y0008196D02*
X0035794Y0008196D01*
X0036723Y0006997D02*
X0034629Y0006997D01*
X0041600Y0011100D02*
X0042100Y0011600D01*
X0042100Y0014600D01*
X0032100Y0024600D01*
X0032100Y0035600D01*
X0031439Y0035757D01*
X0032100Y0035600D02*
X0033100Y0036600D01*
X0033100Y0037600D01*
X0012100Y0058600D01*
X0011100Y0058600D01*
X0009100Y0060600D01*
X0004250Y0062479D02*
X0004250Y0071950D01*
X0029538Y0071950D01*
X0028576Y0070989D01*
X0027800Y0069114D01*
X0027800Y0067128D01*
X0023100Y0062428D01*
X0023100Y0050772D01*
X0024272Y0049600D01*
X0026272Y0047600D01*
X0031893Y0047600D01*
X0031578Y0047285D01*
X0031125Y0046192D01*
X0031125Y0045008D01*
X0031578Y0043915D01*
X0032415Y0043078D01*
X0033508Y0042625D01*
X0034692Y0042625D01*
X0035785Y0043078D01*
X0036307Y0043600D01*
X0037272Y0043600D01*
X0042100Y0038772D01*
X0043272Y0037600D01*
X0043893Y0037600D01*
X0044415Y0037078D01*
X0045508Y0036625D01*
X0046692Y0036625D01*
X0047100Y0036794D01*
X0047100Y0014772D01*
X0051100Y0010772D01*
X0052272Y0009600D01*
X0053928Y0009600D01*
X0053928Y0007748D01*
X0054748Y0006928D01*
X0061452Y0006928D01*
X0062272Y0007748D01*
X0062272Y0014452D01*
X0062123Y0014600D01*
X0069928Y0014600D01*
X0071100Y0015772D01*
X0077928Y0022600D01*
X0078660Y0022600D01*
X0078400Y0022340D01*
X0078400Y0020800D01*
X0082400Y0020800D01*
X0082400Y0024800D01*
X0081128Y0024800D01*
X0084100Y0027772D01*
X0084100Y0029772D01*
X0093125Y0038797D01*
X0093125Y0038008D01*
X0093578Y0036915D01*
X0094415Y0036078D01*
X0095508Y0035625D01*
X0096692Y0035625D01*
X0097785Y0036078D01*
X0098622Y0036915D01*
X0098869Y0037510D01*
X0099418Y0036184D01*
X0100853Y0034749D01*
X0102727Y0033972D01*
X0104756Y0033972D01*
X0106631Y0034749D01*
X0108065Y0036184D01*
X0108842Y0038058D01*
X0108842Y0040087D01*
X0108065Y0041961D01*
X0106631Y0043396D01*
X0104756Y0044172D01*
X0102727Y0044172D01*
X0100853Y0043396D01*
X0099418Y0041961D01*
X0098673Y0040162D01*
X0098622Y0040285D01*
X0098118Y0040789D01*
X0101928Y0044600D01*
X0106272Y0044600D01*
X0108272Y0042600D01*
X0116272Y0042600D01*
X0102835Y0029163D01*
X0102835Y0029680D01*
X0102015Y0030500D01*
X0100864Y0030500D01*
X0101075Y0031008D01*
X0101075Y0032192D01*
X0100622Y0033285D01*
X0099785Y0034122D01*
X0098692Y0034575D01*
X0097508Y0034575D01*
X0096415Y0034122D01*
X0095578Y0033285D01*
X0095125Y0032192D01*
X0095125Y0031008D01*
X0095336Y0030500D01*
X0094855Y0030500D01*
X0094035Y0029680D01*
X0094035Y0016020D01*
X0094855Y0015200D01*
X0102015Y0015200D01*
X0102835Y0016020D01*
X0102835Y0023506D01*
X0119928Y0040600D01*
X0126413Y0040600D01*
X0126201Y0040087D01*
X0126201Y0038058D01*
X0126977Y0036184D01*
X0128412Y0034749D01*
X0130286Y0033972D01*
X0132315Y0033972D01*
X0134190Y0034749D01*
X0135624Y0036184D01*
X0136401Y0038058D01*
X0136401Y0040087D01*
X0135624Y0041961D01*
X0134190Y0043396D01*
X0132315Y0044172D01*
X0130286Y0044172D01*
X0129100Y0043681D01*
X0129100Y0046810D01*
X0130770Y0046810D01*
X0131591Y0047630D01*
X0131591Y0061290D01*
X0130770Y0062110D01*
X0123611Y0062110D01*
X0122791Y0061290D01*
X0122791Y0048278D01*
X0122415Y0048122D01*
X0121578Y0047285D01*
X0121294Y0046600D01*
X0109928Y0046600D01*
X0109100Y0047428D01*
X0107928Y0048600D01*
X0102928Y0048600D01*
X0105100Y0050772D01*
X0105100Y0057393D01*
X0105622Y0057915D01*
X0106075Y0059008D01*
X0106075Y0059747D01*
X0110411Y0064082D01*
X0110415Y0064078D01*
X0111508Y0063625D01*
X0112692Y0063625D01*
X0113785Y0064078D01*
X0114622Y0064915D01*
X0115075Y0066008D01*
X0115075Y0067192D01*
X0114622Y0068285D01*
X0113785Y0069122D01*
X0112692Y0069575D01*
X0111508Y0069575D01*
X0110415Y0069122D01*
X0109893Y0068600D01*
X0109272Y0068600D01*
X0103247Y0062575D01*
X0102508Y0062575D01*
X0101415Y0062122D01*
X0100578Y0061285D01*
X0100125Y0060192D01*
X0100125Y0059008D01*
X0100578Y0057915D01*
X0101100Y0057393D01*
X0101100Y0052428D01*
X0080100Y0031428D01*
X0080100Y0029428D01*
X0079799Y0029128D01*
X0079799Y0032357D01*
X0078979Y0033177D01*
X0073095Y0033177D01*
X0072275Y0032357D01*
X0072275Y0026473D01*
X0073095Y0025653D01*
X0075324Y0025653D01*
X0068272Y0018600D01*
X0062272Y0018600D01*
X0062272Y0024452D01*
X0061808Y0024915D01*
X0062508Y0024625D01*
X0063692Y0024625D01*
X0064785Y0025078D01*
X0065360Y0025653D01*
X0071105Y0025653D01*
X0071925Y0026473D01*
X0071925Y0032357D01*
X0071105Y0033177D01*
X0071100Y0033177D01*
X0071100Y0033600D01*
X0077928Y0033600D01*
X0079928Y0035600D01*
X0081100Y0036772D01*
X0081100Y0044600D01*
X0086893Y0044600D01*
X0087415Y0044078D01*
X0088508Y0043625D01*
X0089692Y0043625D01*
X0090785Y0044078D01*
X0091622Y0044915D01*
X0092075Y0046008D01*
X0092075Y0047192D01*
X0091622Y0048285D01*
X0090785Y0049122D01*
X0089692Y0049575D01*
X0088508Y0049575D01*
X0087415Y0049122D01*
X0086893Y0048600D01*
X0081100Y0048600D01*
X0081100Y0049393D01*
X0081415Y0049078D01*
X0082508Y0048625D01*
X0083692Y0048625D01*
X0084785Y0049078D01*
X0085622Y0049915D01*
X0086075Y0051008D01*
X0086075Y0052192D01*
X0085866Y0052697D01*
X0086247Y0052855D01*
X0086247Y0051465D01*
X0087067Y0050645D01*
X0094133Y0050645D01*
X0094953Y0051465D01*
X0094953Y0058924D01*
X0094133Y0059744D01*
X0091072Y0059744D01*
X0092100Y0060772D01*
X0095851Y0064523D01*
X0097479Y0064523D01*
X0098299Y0065343D01*
X0098299Y0071227D01*
X0097576Y0071950D01*
X0148950Y0071950D01*
X0148950Y0030700D01*
X0146524Y0030700D01*
X0146524Y0023450D01*
X0145324Y0023450D01*
X0145324Y0030700D01*
X0142713Y0030700D01*
X0142306Y0030591D01*
X0141941Y0030380D01*
X0141643Y0030082D01*
X0141433Y0029718D01*
X0141324Y0029311D01*
X0141324Y0023450D01*
X0145324Y0023450D01*
X0145324Y0022250D01*
X0141324Y0022250D01*
X0141324Y0016389D01*
X0141433Y0015982D01*
X0141643Y0015618D01*
X0141941Y0015320D01*
X0142166Y0015190D01*
X0141600Y0014623D01*
X0140952Y0015272D01*
X0138901Y0015272D01*
X0138984Y0015320D01*
X0139282Y0015618D01*
X0139493Y0015982D01*
X0139602Y0016389D01*
X0139602Y0022250D01*
X0135602Y0022250D01*
X0135602Y0023450D01*
X0139602Y0023450D01*
X0139602Y0029311D01*
X0139493Y0029718D01*
X0139282Y0030082D01*
X0138984Y0030380D01*
X0138619Y0030591D01*
X0138212Y0030700D01*
X0135602Y0030700D01*
X0135602Y0023450D01*
X0134402Y0023450D01*
X0134402Y0030700D01*
X0131791Y0030700D01*
X0131384Y0030591D01*
X0131019Y0030380D01*
X0130721Y0030082D01*
X0130511Y0029718D01*
X0130402Y0029311D01*
X0130402Y0023450D01*
X0134402Y0023450D01*
X0134402Y0022250D01*
X0130402Y0022250D01*
X0130402Y0016389D01*
X0130511Y0015982D01*
X0130721Y0015618D01*
X0131019Y0015320D01*
X0131384Y0015109D01*
X0131791Y0015000D01*
X0133977Y0015000D01*
X0133428Y0014452D01*
X0133428Y0007748D01*
X0134248Y0006928D01*
X0140952Y0006928D01*
X0141600Y0007577D01*
X0142248Y0006928D01*
X0148950Y0006928D01*
X0148950Y0006250D01*
X0045730Y0006250D01*
X0046500Y0007020D01*
X0046500Y0015180D01*
X0045680Y0016000D01*
X0043528Y0016000D01*
X0042928Y0016600D01*
X0034100Y0025428D01*
X0034100Y0031995D01*
X0034774Y0031995D01*
X0035594Y0032815D01*
X0035594Y0038700D01*
X0034774Y0039520D01*
X0034009Y0039520D01*
X0014201Y0059327D01*
X0014300Y0059566D01*
X0014300Y0061634D01*
X0013508Y0063546D01*
X0012046Y0065008D01*
X0010134Y0065800D01*
X0008066Y0065800D01*
X0006154Y0065008D01*
X0004692Y0063546D01*
X0004250Y0062479D01*
X0004250Y0063327D02*
X0004601Y0063327D01*
X0004250Y0064526D02*
X0005672Y0064526D01*
X0004250Y0065724D02*
X0007882Y0065724D01*
X0010318Y0065724D02*
X0026396Y0065724D01*
X0027594Y0066923D02*
X0004250Y0066923D01*
X0004250Y0068121D02*
X0027800Y0068121D01*
X0027885Y0069320D02*
X0004250Y0069320D01*
X0004250Y0070518D02*
X0028381Y0070518D01*
X0029304Y0071717D02*
X0004250Y0071717D01*
X0012528Y0064526D02*
X0025197Y0064526D01*
X0023999Y0063327D02*
X0013599Y0063327D01*
X0014095Y0062129D02*
X0023100Y0062129D01*
X0023100Y0060930D02*
X0014300Y0060930D01*
X0014300Y0059732D02*
X0023100Y0059732D01*
X0023100Y0058533D02*
X0014995Y0058533D01*
X0016194Y0057334D02*
X0023100Y0057334D01*
X0023100Y0056136D02*
X0017392Y0056136D01*
X0018591Y0054937D02*
X0023100Y0054937D01*
X0023100Y0053739D02*
X0019789Y0053739D01*
X0020988Y0052540D02*
X0023100Y0052540D01*
X0025100Y0051600D02*
X0025100Y0061600D01*
X0032100Y0068600D01*
X0032900Y0068100D01*
X0038000Y0068121D02*
X0039200Y0068121D01*
X0039200Y0069114D02*
X0039200Y0067086D01*
X0039976Y0065211D01*
X0041411Y0063776D01*
X0043286Y0063000D01*
X0045314Y0063000D01*
X0047189Y0063776D01*
X0048624Y0065211D01*
X0049400Y0067086D01*
X0049400Y0069114D01*
X0048624Y0070989D01*
X0047662Y0071950D01*
X0065624Y0071950D01*
X0064901Y0071227D01*
X0064901Y0065343D01*
X0065721Y0064523D01*
X0071605Y0064523D01*
X0072425Y0065343D01*
X0072425Y0071227D01*
X0071702Y0071950D01*
X0073498Y0071950D01*
X0072775Y0071227D01*
X0072775Y0065343D01*
X0072826Y0065292D01*
X0072415Y0065122D01*
X0071578Y0064285D01*
X0071125Y0063192D01*
X0071125Y0062453D01*
X0071100Y0062428D01*
X0071100Y0059744D01*
X0069067Y0059744D01*
X0068247Y0058924D01*
X0068247Y0051465D01*
X0069067Y0050645D01*
X0076133Y0050645D01*
X0076953Y0051465D01*
X0076953Y0058924D01*
X0076133Y0059744D01*
X0075100Y0059744D01*
X0075100Y0059794D01*
X0075785Y0060078D01*
X0076622Y0060915D01*
X0076720Y0061151D01*
X0077100Y0060772D01*
X0077100Y0038428D01*
X0076272Y0037600D01*
X0069272Y0037600D01*
X0068100Y0036428D01*
X0067100Y0035428D01*
X0067100Y0033177D01*
X0065221Y0033177D01*
X0064401Y0032357D01*
X0064401Y0030281D01*
X0064100Y0030406D01*
X0064100Y0035772D01*
X0067747Y0039419D01*
X0067747Y0038776D01*
X0068567Y0037956D01*
X0075633Y0037956D01*
X0076453Y0038776D01*
X0076453Y0046235D01*
X0075633Y0047055D01*
X0068567Y0047055D01*
X0067747Y0046235D01*
X0067747Y0043600D01*
X0066272Y0043600D01*
X0065100Y0042428D01*
X0060100Y0037428D01*
X0060100Y0027772D01*
X0060125Y0027747D01*
X0060125Y0027008D01*
X0060578Y0025915D01*
X0061221Y0025272D01*
X0060100Y0025272D01*
X0060100Y0044428D01*
X0055100Y0049428D01*
X0061452Y0049428D01*
X0062272Y0050248D01*
X0062272Y0056952D01*
X0061452Y0057772D01*
X0054748Y0057772D01*
X0053928Y0056952D01*
X0053928Y0050600D01*
X0052100Y0052428D01*
X0050928Y0053600D01*
X0037272Y0053600D01*
X0035272Y0051600D01*
X0027928Y0051600D01*
X0027100Y0052428D01*
X0027100Y0060772D01*
X0030077Y0063749D01*
X0031886Y0063000D01*
X0033914Y0063000D01*
X0035789Y0063776D01*
X0037224Y0065211D01*
X0038000Y0067086D01*
X0038000Y0069114D01*
X0037224Y0070989D01*
X0036262Y0071950D01*
X0040938Y0071950D01*
X0039976Y0070989D01*
X0039200Y0069114D01*
X0039285Y0069320D02*
X0037915Y0069320D01*
X0037419Y0070518D02*
X0039781Y0070518D01*
X0040704Y0071717D02*
X0036496Y0071717D01*
X0037932Y0066923D02*
X0039267Y0066923D01*
X0039764Y0065724D02*
X0037436Y0065724D01*
X0036538Y0064526D02*
X0040662Y0064526D01*
X0042496Y0063327D02*
X0034704Y0063327D01*
X0031096Y0063327D02*
X0029655Y0063327D01*
X0028457Y0062129D02*
X0038877Y0062129D01*
X0039429Y0062357D02*
X0038190Y0061844D01*
X0037242Y0060896D01*
X0036728Y0059656D01*
X0036728Y0058315D01*
X0037242Y0057076D01*
X0038190Y0056127D01*
X0039429Y0055614D01*
X0040771Y0055614D01*
X0042010Y0056127D01*
X0042958Y0057076D01*
X0043472Y0058315D01*
X0043472Y0059656D01*
X0042958Y0060896D01*
X0042010Y0061844D01*
X0040771Y0062357D01*
X0039429Y0062357D01*
X0041323Y0062129D02*
X0053728Y0062129D01*
X0053728Y0060930D02*
X0042924Y0060930D01*
X0043441Y0059732D02*
X0054162Y0059732D01*
X0054048Y0059846D02*
X0054346Y0059548D01*
X0054711Y0059337D01*
X0055118Y0059228D01*
X0057814Y0059228D01*
X0057814Y0063314D01*
X0053728Y0063314D01*
X0053728Y0060618D01*
X0053837Y0060211D01*
X0054048Y0059846D01*
X0057814Y0059732D02*
X0058386Y0059732D01*
X0058386Y0059228D02*
X0061082Y0059228D01*
X0061489Y0059337D01*
X0061854Y0059548D01*
X0062152Y0059846D01*
X0062363Y0060211D01*
X0062472Y0060618D01*
X0062472Y0063314D01*
X0058386Y0063314D01*
X0058386Y0063886D01*
X0057814Y0063886D01*
X0057814Y0067972D01*
X0055118Y0067972D01*
X0054711Y0067863D01*
X0054346Y0067652D01*
X0054048Y0067354D01*
X0053837Y0066989D01*
X0053728Y0066582D01*
X0053728Y0063886D01*
X0057814Y0063886D01*
X0057814Y0063314D01*
X0058386Y0063314D01*
X0058386Y0059228D01*
X0058386Y0060930D02*
X0057814Y0060930D01*
X0057814Y0062129D02*
X0058386Y0062129D01*
X0058386Y0063327D02*
X0071181Y0063327D01*
X0071608Y0064526D02*
X0071818Y0064526D01*
X0072425Y0065724D02*
X0072775Y0065724D01*
X0072775Y0066923D02*
X0072425Y0066923D01*
X0072425Y0068121D02*
X0072775Y0068121D01*
X0072775Y0069320D02*
X0072425Y0069320D01*
X0072425Y0070518D02*
X0072775Y0070518D01*
X0073264Y0071717D02*
X0071936Y0071717D01*
X0076537Y0068285D02*
X0077100Y0067600D01*
X0077100Y0063600D01*
X0079100Y0061600D01*
X0079100Y0046600D01*
X0089100Y0046600D01*
X0091845Y0047746D02*
X0096418Y0047746D01*
X0095219Y0046548D02*
X0092075Y0046548D01*
X0091802Y0045349D02*
X0094021Y0045349D01*
X0092822Y0044151D02*
X0090858Y0044151D01*
X0091624Y0042952D02*
X0081100Y0042952D01*
X0081100Y0044151D02*
X0087342Y0044151D01*
X0090425Y0041754D02*
X0081100Y0041754D01*
X0081100Y0040555D02*
X0089227Y0040555D01*
X0088028Y0039357D02*
X0081100Y0039357D01*
X0081100Y0038158D02*
X0086830Y0038158D01*
X0085631Y0036960D02*
X0081100Y0036960D01*
X0080090Y0035761D02*
X0084433Y0035761D01*
X0083234Y0034563D02*
X0078891Y0034563D01*
X0077100Y0035600D02*
X0079100Y0037600D01*
X0079100Y0046600D01*
X0077100Y0046548D02*
X0076140Y0046548D01*
X0077100Y0047746D02*
X0056782Y0047746D01*
X0057981Y0046548D02*
X0068060Y0046548D01*
X0067747Y0045349D02*
X0059179Y0045349D01*
X0060100Y0044151D02*
X0067747Y0044151D01*
X0065624Y0042952D02*
X0060100Y0042952D01*
X0058100Y0043600D02*
X0050100Y0051600D01*
X0038100Y0051600D01*
X0036100Y0049600D01*
X0027100Y0049600D01*
X0025100Y0051600D01*
X0023100Y0051342D02*
X0022186Y0051342D01*
X0023385Y0050143D02*
X0023728Y0050143D01*
X0024583Y0048945D02*
X0024927Y0048945D01*
X0025782Y0047746D02*
X0026125Y0047746D01*
X0026981Y0046548D02*
X0031273Y0046548D01*
X0031125Y0045349D02*
X0028179Y0045349D01*
X0029378Y0044151D02*
X0031480Y0044151D01*
X0030576Y0042952D02*
X0032718Y0042952D01*
X0031775Y0041754D02*
X0039118Y0041754D01*
X0040316Y0040555D02*
X0032973Y0040555D01*
X0034937Y0039357D02*
X0041515Y0039357D01*
X0042713Y0038158D02*
X0035594Y0038158D01*
X0035594Y0036960D02*
X0044700Y0036960D01*
X0047100Y0035761D02*
X0035594Y0035761D01*
X0035594Y0034563D02*
X0037680Y0034563D01*
X0037242Y0034124D02*
X0036728Y0032885D01*
X0036728Y0031544D01*
X0037242Y0030304D01*
X0038190Y0029356D01*
X0039429Y0028843D01*
X0040771Y0028843D01*
X0042010Y0029356D01*
X0042958Y0030304D01*
X0043472Y0031544D01*
X0043472Y0032885D01*
X0042958Y0034124D01*
X0042010Y0035073D01*
X0040771Y0035586D01*
X0039429Y0035586D01*
X0038190Y0035073D01*
X0037242Y0034124D01*
X0036927Y0033364D02*
X0035594Y0033364D01*
X0034945Y0032166D02*
X0036728Y0032166D01*
X0036967Y0030967D02*
X0034100Y0030967D01*
X0034100Y0029769D02*
X0037777Y0029769D01*
X0034100Y0028570D02*
X0047100Y0028570D01*
X0047100Y0027372D02*
X0034100Y0027372D01*
X0034100Y0026173D02*
X0047100Y0026173D01*
X0047100Y0024975D02*
X0034554Y0024975D01*
X0035752Y0023776D02*
X0047100Y0023776D01*
X0047100Y0022578D02*
X0036951Y0022578D01*
X0038149Y0021379D02*
X0047100Y0021379D01*
X0047100Y0020181D02*
X0039348Y0020181D01*
X0040546Y0018982D02*
X0047100Y0018982D01*
X0047100Y0017784D02*
X0041745Y0017784D01*
X0042943Y0016585D02*
X0047100Y0016585D01*
X0047100Y0015387D02*
X0046293Y0015387D01*
X0049100Y0015600D02*
X0053100Y0011600D01*
X0058100Y0011600D01*
X0058100Y0011100D01*
X0062272Y0010593D02*
X0078600Y0010593D01*
X0078600Y0009394D02*
X0062272Y0009394D01*
X0062272Y0008196D02*
X0079348Y0008196D01*
X0078600Y0008943D02*
X0080943Y0006600D01*
X0084257Y0006600D01*
X0086600Y0008943D01*
X0086600Y0012257D01*
X0084257Y0014600D01*
X0080943Y0014600D01*
X0078600Y0012257D01*
X0078600Y0008943D01*
X0080546Y0006997D02*
X0061520Y0006997D01*
X0054680Y0006997D02*
X0046477Y0006997D01*
X0046500Y0008196D02*
X0053928Y0008196D01*
X0053928Y0009394D02*
X0046500Y0009394D01*
X0046500Y0010593D02*
X0051279Y0010593D01*
X0050080Y0011791D02*
X0046500Y0011791D01*
X0046500Y0012990D02*
X0048882Y0012990D01*
X0047683Y0014188D02*
X0046500Y0014188D01*
X0049100Y0015600D02*
X0049100Y0045600D01*
X0048761Y0045600D01*
X0055583Y0048945D02*
X0077100Y0048945D01*
X0077100Y0050143D02*
X0062167Y0050143D01*
X0062272Y0051342D02*
X0068370Y0051342D01*
X0068247Y0052540D02*
X0062272Y0052540D01*
X0062272Y0053739D02*
X0068247Y0053739D01*
X0068247Y0054937D02*
X0062272Y0054937D01*
X0062272Y0056136D02*
X0068247Y0056136D01*
X0068247Y0057334D02*
X0061889Y0057334D01*
X0062038Y0059732D02*
X0069055Y0059732D01*
X0068247Y0058533D02*
X0043472Y0058533D01*
X0043065Y0057334D02*
X0054311Y0057334D01*
X0053928Y0056136D02*
X0042018Y0056136D01*
X0038182Y0056136D02*
X0035594Y0056136D01*
X0035594Y0054937D02*
X0053928Y0054937D01*
X0053928Y0053739D02*
X0035594Y0053739D01*
X0035594Y0052540D02*
X0036212Y0052540D01*
X0035594Y0052500D02*
X0034774Y0051680D01*
X0028103Y0051680D01*
X0027283Y0052500D01*
X0027283Y0058385D01*
X0028103Y0059205D01*
X0034774Y0059205D01*
X0035594Y0058385D01*
X0035594Y0052500D01*
X0027283Y0052540D02*
X0027100Y0052540D01*
X0027100Y0053739D02*
X0027283Y0053739D01*
X0027283Y0054937D02*
X0027100Y0054937D01*
X0027100Y0056136D02*
X0027283Y0056136D01*
X0027283Y0057334D02*
X0027100Y0057334D01*
X0027100Y0058533D02*
X0027431Y0058533D01*
X0027100Y0059732D02*
X0036759Y0059732D01*
X0036728Y0058533D02*
X0035446Y0058533D01*
X0035594Y0057334D02*
X0037135Y0057334D01*
X0037276Y0060930D02*
X0027258Y0060930D01*
X0014133Y0053739D02*
X0013315Y0053739D01*
X0013925Y0052540D02*
X0015331Y0052540D01*
X0014300Y0051342D02*
X0016530Y0051342D01*
X0017728Y0050143D02*
X0014300Y0050143D01*
X0014043Y0048945D02*
X0018927Y0048945D01*
X0020125Y0047746D02*
X0013546Y0047746D01*
X0012402Y0046548D02*
X0021324Y0046548D01*
X0022522Y0045349D02*
X0011673Y0045349D01*
X0013186Y0044151D02*
X0023721Y0044151D01*
X0024919Y0042952D02*
X0013962Y0042952D01*
X0014385Y0041754D02*
X0026118Y0041754D01*
X0027316Y0040555D02*
X0009484Y0040555D01*
X0013916Y0038158D02*
X0027283Y0038158D01*
X0027940Y0039357D02*
X0014370Y0039357D01*
X0013097Y0036960D02*
X0027283Y0036960D01*
X0027283Y0035761D02*
X0011498Y0035761D01*
X0012491Y0034563D02*
X0027283Y0034563D01*
X0027283Y0033364D02*
X0013583Y0033364D01*
X0014080Y0032166D02*
X0027932Y0032166D01*
X0030100Y0030967D02*
X0014300Y0030967D01*
X0014300Y0029769D02*
X0030100Y0029769D01*
X0030100Y0028570D02*
X0013888Y0028570D01*
X0013226Y0027372D02*
X0030100Y0027372D01*
X0030100Y0026173D02*
X0012001Y0026173D01*
X0012079Y0024975D02*
X0030100Y0024975D01*
X0030100Y0023776D02*
X0013278Y0023776D01*
X0013909Y0022578D02*
X0031294Y0022578D01*
X0032492Y0021379D02*
X0014300Y0021379D01*
X0014300Y0020181D02*
X0033691Y0020181D01*
X0034889Y0018982D02*
X0014058Y0018982D01*
X0013562Y0017784D02*
X0036088Y0017784D01*
X0051100Y0017600D02*
X0052100Y0016600D01*
X0069100Y0016600D01*
X0077100Y0024600D01*
X0078100Y0024600D01*
X0082100Y0028600D01*
X0082100Y0030600D01*
X0103100Y0051600D01*
X0103100Y0059600D01*
X0110100Y0066600D01*
X0112100Y0066600D01*
X0114957Y0065724D02*
X0148950Y0065724D01*
X0148950Y0066923D02*
X0115075Y0066923D01*
X0114690Y0068121D02*
X0148950Y0068121D01*
X0148950Y0069320D02*
X0113308Y0069320D01*
X0110892Y0069320D02*
X0098299Y0069320D01*
X0098299Y0070518D02*
X0148950Y0070518D01*
X0148950Y0071717D02*
X0097810Y0071717D01*
X0094537Y0068285D02*
X0094100Y0067600D01*
X0094100Y0065600D01*
X0090100Y0061600D01*
X0088100Y0061600D01*
X0087100Y0062600D01*
X0086100Y0062600D01*
X0082100Y0058600D01*
X0082100Y0052600D01*
X0083100Y0051600D01*
X0085931Y0052540D02*
X0086247Y0052540D01*
X0086370Y0051342D02*
X0086075Y0051342D01*
X0085717Y0050143D02*
X0098815Y0050143D01*
X0097616Y0048945D02*
X0090962Y0048945D01*
X0094830Y0051342D02*
X0100014Y0051342D01*
X0101100Y0052540D02*
X0094953Y0052540D01*
X0094953Y0053739D02*
X0101100Y0053739D01*
X0101100Y0054937D02*
X0094953Y0054937D01*
X0094953Y0056136D02*
X0101100Y0056136D01*
X0101100Y0057334D02*
X0094953Y0057334D01*
X0094953Y0058533D02*
X0100322Y0058533D01*
X0100125Y0059732D02*
X0094145Y0059732D01*
X0092258Y0060930D02*
X0100431Y0060930D01*
X0101430Y0062129D02*
X0093457Y0062129D01*
X0094655Y0063327D02*
X0103999Y0063327D01*
X0105197Y0064526D02*
X0097482Y0064526D01*
X0098299Y0065724D02*
X0106396Y0065724D01*
X0107594Y0066923D02*
X0098299Y0066923D01*
X0098299Y0068121D02*
X0108793Y0068121D01*
X0114233Y0064526D02*
X0148950Y0064526D01*
X0148950Y0063327D02*
X0109655Y0063327D01*
X0108457Y0062129D02*
X0148950Y0062129D01*
X0148950Y0060930D02*
X0131591Y0060930D01*
X0131591Y0059732D02*
X0148950Y0059732D01*
X0148950Y0058533D02*
X0131591Y0058533D01*
X0131591Y0057334D02*
X0148950Y0057334D01*
X0148950Y0056136D02*
X0131591Y0056136D01*
X0131591Y0054937D02*
X0148950Y0054937D01*
X0148950Y0053739D02*
X0131591Y0053739D01*
X0131591Y0052540D02*
X0148950Y0052540D01*
X0148950Y0051342D02*
X0131591Y0051342D01*
X0131591Y0050143D02*
X0148950Y0050143D01*
X0148950Y0048945D02*
X0131591Y0048945D01*
X0131591Y0047746D02*
X0148950Y0047746D01*
X0148950Y0046548D02*
X0129100Y0046548D01*
X0129100Y0045349D02*
X0148950Y0045349D01*
X0148950Y0044151D02*
X0132367Y0044151D01*
X0134633Y0042952D02*
X0148950Y0042952D01*
X0148950Y0041754D02*
X0135710Y0041754D01*
X0136207Y0040555D02*
X0148950Y0040555D01*
X0148950Y0039357D02*
X0136401Y0039357D01*
X0136401Y0038158D02*
X0148950Y0038158D01*
X0148950Y0036960D02*
X0135946Y0036960D01*
X0135202Y0035761D02*
X0148950Y0035761D01*
X0148950Y0034563D02*
X0133740Y0034563D01*
X0128861Y0034563D02*
X0113891Y0034563D01*
X0115090Y0035761D02*
X0127399Y0035761D01*
X0126656Y0036960D02*
X0116288Y0036960D01*
X0117487Y0038158D02*
X0126201Y0038158D01*
X0126201Y0039357D02*
X0118685Y0039357D01*
X0119884Y0040555D02*
X0126395Y0040555D01*
X0126100Y0042600D02*
X0119100Y0042600D01*
X0099100Y0022600D01*
X0098435Y0022850D01*
X0098100Y0023600D01*
X0098100Y0031600D01*
X0100543Y0033364D02*
X0107036Y0033364D01*
X0105837Y0032166D02*
X0101075Y0032166D01*
X0101058Y0030967D02*
X0104639Y0030967D01*
X0103440Y0029769D02*
X0102746Y0029769D01*
X0106700Y0027372D02*
X0130402Y0027372D01*
X0130402Y0028570D02*
X0107899Y0028570D01*
X0109097Y0029769D02*
X0130540Y0029769D01*
X0134402Y0029769D02*
X0135602Y0029769D01*
X0135602Y0028570D02*
X0134402Y0028570D01*
X0134402Y0027372D02*
X0135602Y0027372D01*
X0135602Y0026173D02*
X0134402Y0026173D01*
X0134402Y0024975D02*
X0135602Y0024975D01*
X0135602Y0023776D02*
X0134402Y0023776D01*
X0134402Y0022578D02*
X0102835Y0022578D01*
X0102835Y0021379D02*
X0130402Y0021379D01*
X0130402Y0020181D02*
X0102835Y0020181D01*
X0102835Y0018982D02*
X0130402Y0018982D01*
X0130402Y0017784D02*
X0102835Y0017784D01*
X0102835Y0016585D02*
X0130402Y0016585D01*
X0130952Y0015387D02*
X0102201Y0015387D01*
X0094668Y0015387D02*
X0070715Y0015387D01*
X0071914Y0016585D02*
X0080675Y0016585D01*
X0080860Y0016400D02*
X0082400Y0016400D01*
X0082400Y0020400D01*
X0082800Y0020400D01*
X0082800Y0020800D01*
X0082400Y0020800D01*
X0082400Y0020400D01*
X0078400Y0020400D01*
X0078400Y0018860D01*
X0080860Y0016400D01*
X0082400Y0016585D02*
X0082800Y0016585D01*
X0082800Y0016400D02*
X0084340Y0016400D01*
X0086800Y0018860D01*
X0086800Y0020400D01*
X0082800Y0020400D01*
X0082800Y0016400D01*
X0084525Y0016585D02*
X0094035Y0016585D01*
X0094035Y0017784D02*
X0085723Y0017784D01*
X0086800Y0018982D02*
X0094035Y0018982D01*
X0094035Y0020181D02*
X0086800Y0020181D01*
X0086800Y0020800D02*
X0086800Y0022340D01*
X0084340Y0024800D01*
X0082800Y0024800D01*
X0082800Y0020800D01*
X0086800Y0020800D01*
X0086800Y0021379D02*
X0094035Y0021379D01*
X0094035Y0022578D02*
X0086562Y0022578D01*
X0085363Y0023776D02*
X0094035Y0023776D01*
X0094035Y0024975D02*
X0081303Y0024975D01*
X0082400Y0023776D02*
X0082800Y0023776D01*
X0082800Y0022578D02*
X0082400Y0022578D01*
X0082400Y0021379D02*
X0082800Y0021379D01*
X0082800Y0020181D02*
X0082400Y0020181D01*
X0082400Y0018982D02*
X0082800Y0018982D01*
X0082800Y0017784D02*
X0082400Y0017784D01*
X0079477Y0017784D02*
X0073112Y0017784D01*
X0074311Y0018982D02*
X0078400Y0018982D01*
X0078400Y0020181D02*
X0075509Y0020181D01*
X0076708Y0021379D02*
X0078400Y0021379D01*
X0078638Y0022578D02*
X0077906Y0022578D01*
X0074646Y0024975D02*
X0064536Y0024975D01*
X0062272Y0023776D02*
X0073448Y0023776D01*
X0072249Y0022578D02*
X0062272Y0022578D01*
X0062272Y0021379D02*
X0071051Y0021379D01*
X0069852Y0020181D02*
X0062272Y0020181D01*
X0062272Y0018982D02*
X0068654Y0018982D01*
X0062272Y0014188D02*
X0080531Y0014188D01*
X0079333Y0012990D02*
X0062272Y0012990D01*
X0062272Y0011791D02*
X0078600Y0011791D01*
X0084669Y0014188D02*
X0133428Y0014188D01*
X0133428Y0012990D02*
X0085867Y0012990D01*
X0086600Y0011791D02*
X0133428Y0011791D01*
X0133428Y0010593D02*
X0086600Y0010593D01*
X0086600Y0009394D02*
X0133428Y0009394D01*
X0133428Y0008196D02*
X0085852Y0008196D01*
X0084654Y0006997D02*
X0134180Y0006997D01*
X0141020Y0006997D02*
X0142180Y0006997D01*
X0141874Y0015387D02*
X0139051Y0015387D01*
X0139602Y0016585D02*
X0141324Y0016585D01*
X0141324Y0017784D02*
X0139602Y0017784D01*
X0139602Y0018982D02*
X0141324Y0018982D01*
X0141324Y0020181D02*
X0139602Y0020181D01*
X0139602Y0021379D02*
X0141324Y0021379D01*
X0141324Y0023776D02*
X0139602Y0023776D01*
X0139602Y0024975D02*
X0141324Y0024975D01*
X0141324Y0026173D02*
X0139602Y0026173D01*
X0139602Y0027372D02*
X0141324Y0027372D01*
X0141324Y0028570D02*
X0139602Y0028570D01*
X0139463Y0029769D02*
X0141462Y0029769D01*
X0145324Y0029769D02*
X0146524Y0029769D01*
X0148950Y0030967D02*
X0110296Y0030967D01*
X0111494Y0032166D02*
X0148950Y0032166D01*
X0148950Y0033364D02*
X0112693Y0033364D01*
X0108234Y0034563D02*
X0106181Y0034563D01*
X0107643Y0035761D02*
X0109433Y0035761D01*
X0108387Y0036960D02*
X0110631Y0036960D01*
X0111830Y0038158D02*
X0108842Y0038158D01*
X0108842Y0039357D02*
X0113028Y0039357D01*
X0114227Y0040555D02*
X0108648Y0040555D01*
X0108151Y0041754D02*
X0115425Y0041754D01*
X0109100Y0044600D02*
X0107100Y0046600D01*
X0101100Y0046600D01*
X0096100Y0041600D01*
X0096100Y0038600D01*
X0093125Y0038158D02*
X0092487Y0038158D01*
X0093559Y0036960D02*
X0091288Y0036960D01*
X0090090Y0035761D02*
X0095179Y0035761D01*
X0097021Y0035761D02*
X0099840Y0035761D01*
X0099097Y0036960D02*
X0098641Y0036960D01*
X0098721Y0034563D02*
X0101302Y0034563D01*
X0097479Y0034563D02*
X0088891Y0034563D01*
X0087693Y0033364D02*
X0095657Y0033364D01*
X0095125Y0032166D02*
X0086494Y0032166D01*
X0085296Y0030967D02*
X0095142Y0030967D01*
X0094123Y0029769D02*
X0084100Y0029769D01*
X0084100Y0028570D02*
X0094035Y0028570D01*
X0094035Y0027372D02*
X0083700Y0027372D01*
X0082502Y0026173D02*
X0094035Y0026173D01*
X0103105Y0023776D02*
X0130402Y0023776D01*
X0130402Y0024975D02*
X0104303Y0024975D01*
X0105502Y0026173D02*
X0130402Y0026173D01*
X0135602Y0022578D02*
X0145324Y0022578D01*
X0145324Y0023776D02*
X0146524Y0023776D01*
X0146524Y0024975D02*
X0145324Y0024975D01*
X0145324Y0026173D02*
X0146524Y0026173D01*
X0146524Y0027372D02*
X0145324Y0027372D01*
X0145324Y0028570D02*
X0146524Y0028570D01*
X0127100Y0043600D02*
X0126100Y0042600D01*
X0127100Y0043600D02*
X0127100Y0053600D01*
X0127191Y0054460D01*
X0122791Y0054937D02*
X0105100Y0054937D01*
X0105100Y0056136D02*
X0122791Y0056136D01*
X0122791Y0057334D02*
X0105100Y0057334D01*
X0105878Y0058533D02*
X0122791Y0058533D01*
X0122791Y0059732D02*
X0106075Y0059732D01*
X0107258Y0060930D02*
X0122791Y0060930D01*
X0122791Y0053739D02*
X0105100Y0053739D01*
X0105100Y0052540D02*
X0122791Y0052540D01*
X0122791Y0051342D02*
X0105100Y0051342D01*
X0104472Y0050143D02*
X0122791Y0050143D01*
X0122791Y0048945D02*
X0103273Y0048945D01*
X0108782Y0047746D02*
X0122039Y0047746D01*
X0124100Y0045600D02*
X0123100Y0044600D01*
X0109100Y0044600D01*
X0107919Y0042952D02*
X0107074Y0042952D01*
X0106721Y0044151D02*
X0104808Y0044151D01*
X0102675Y0044151D02*
X0101479Y0044151D01*
X0100409Y0042952D02*
X0100281Y0042952D01*
X0099332Y0041754D02*
X0099082Y0041754D01*
X0098836Y0040555D02*
X0098352Y0040555D01*
X0087238Y0048945D02*
X0084464Y0048945D01*
X0081736Y0048945D02*
X0081100Y0048945D01*
X0077100Y0051342D02*
X0076830Y0051342D01*
X0076953Y0052540D02*
X0077100Y0052540D01*
X0077100Y0053739D02*
X0076953Y0053739D01*
X0076953Y0054937D02*
X0077100Y0054937D01*
X0077100Y0056136D02*
X0076953Y0056136D01*
X0076953Y0057334D02*
X0077100Y0057334D01*
X0077100Y0058533D02*
X0076953Y0058533D01*
X0077100Y0059732D02*
X0076145Y0059732D01*
X0076628Y0060930D02*
X0076942Y0060930D01*
X0074100Y0062600D02*
X0073100Y0061600D01*
X0073100Y0055600D01*
X0072600Y0055194D01*
X0071100Y0060930D02*
X0062472Y0060930D01*
X0062472Y0062129D02*
X0071100Y0062129D01*
X0065718Y0064526D02*
X0062472Y0064526D01*
X0062472Y0063886D02*
X0062472Y0066582D01*
X0062363Y0066989D01*
X0062152Y0067354D01*
X0061854Y0067652D01*
X0061489Y0067863D01*
X0061082Y0067972D01*
X0058386Y0067972D01*
X0058386Y0063886D01*
X0062472Y0063886D01*
X0062472Y0065724D02*
X0064901Y0065724D01*
X0064901Y0066923D02*
X0062380Y0066923D01*
X0064901Y0068121D02*
X0049400Y0068121D01*
X0049332Y0066923D02*
X0053820Y0066923D01*
X0053728Y0065724D02*
X0048836Y0065724D01*
X0047938Y0064526D02*
X0053728Y0064526D01*
X0057814Y0064526D02*
X0058386Y0064526D01*
X0057814Y0063327D02*
X0046104Y0063327D01*
X0049315Y0069320D02*
X0064901Y0069320D01*
X0064901Y0070518D02*
X0048819Y0070518D01*
X0047896Y0071717D02*
X0065390Y0071717D01*
X0058386Y0066923D02*
X0057814Y0066923D01*
X0057814Y0065724D02*
X0058386Y0065724D01*
X0053928Y0052540D02*
X0051988Y0052540D01*
X0053186Y0051342D02*
X0053928Y0051342D01*
X0058100Y0043600D02*
X0058100Y0021100D01*
X0053100Y0026600D02*
X0051100Y0024600D01*
X0051100Y0017600D01*
X0060100Y0026173D02*
X0060471Y0026173D01*
X0060125Y0027372D02*
X0060100Y0027372D01*
X0060100Y0028570D02*
X0060100Y0028570D01*
X0060100Y0029769D02*
X0060100Y0029769D01*
X0060100Y0030967D02*
X0060100Y0030967D01*
X0060100Y0032166D02*
X0060100Y0032166D01*
X0060100Y0033364D02*
X0060100Y0033364D01*
X0060100Y0034563D02*
X0060100Y0034563D01*
X0060100Y0035761D02*
X0060100Y0035761D01*
X0060100Y0036960D02*
X0060100Y0036960D01*
X0060100Y0038158D02*
X0060830Y0038158D01*
X0060100Y0039357D02*
X0062028Y0039357D01*
X0063227Y0040555D02*
X0060100Y0040555D01*
X0060100Y0041754D02*
X0064425Y0041754D01*
X0067100Y0041600D02*
X0072100Y0041600D01*
X0072100Y0042506D01*
X0076453Y0042952D02*
X0077100Y0042952D01*
X0077100Y0044151D02*
X0076453Y0044151D01*
X0076453Y0045349D02*
X0077100Y0045349D01*
X0077100Y0041754D02*
X0076453Y0041754D01*
X0076453Y0040555D02*
X0077100Y0040555D01*
X0077100Y0039357D02*
X0076453Y0039357D01*
X0076830Y0038158D02*
X0075835Y0038158D01*
X0077100Y0035600D02*
X0070100Y0035600D01*
X0069100Y0034600D01*
X0069100Y0029600D01*
X0068163Y0029415D01*
X0064401Y0030967D02*
X0064100Y0030967D01*
X0064100Y0032166D02*
X0064401Y0032166D01*
X0064100Y0033364D02*
X0067100Y0033364D01*
X0067100Y0034563D02*
X0064100Y0034563D01*
X0064100Y0035761D02*
X0067433Y0035761D01*
X0068631Y0036960D02*
X0065288Y0036960D01*
X0066487Y0038158D02*
X0068365Y0038158D01*
X0067747Y0039357D02*
X0067685Y0039357D01*
X0067100Y0041600D02*
X0062100Y0036600D01*
X0062100Y0028600D01*
X0063100Y0027600D01*
X0071626Y0026173D02*
X0072574Y0026173D01*
X0072275Y0027372D02*
X0071925Y0027372D01*
X0071925Y0028570D02*
X0072275Y0028570D01*
X0072275Y0029769D02*
X0071925Y0029769D01*
X0071925Y0030967D02*
X0072275Y0030967D01*
X0072275Y0032166D02*
X0071925Y0032166D01*
X0071100Y0033364D02*
X0082036Y0033364D01*
X0080837Y0032166D02*
X0079799Y0032166D01*
X0079799Y0030967D02*
X0080100Y0030967D01*
X0080100Y0029769D02*
X0079799Y0029769D01*
X0047100Y0029769D02*
X0042423Y0029769D01*
X0043233Y0030967D02*
X0047100Y0030967D01*
X0047100Y0032166D02*
X0043472Y0032166D01*
X0043273Y0033364D02*
X0047100Y0033364D01*
X0047100Y0034563D02*
X0042520Y0034563D01*
X0044100Y0039600D02*
X0046100Y0039600D01*
X0044100Y0039600D02*
X0038100Y0045600D01*
X0034100Y0045600D01*
X0035482Y0042952D02*
X0037919Y0042952D01*
X0012934Y0054937D02*
X0012116Y0054937D01*
X0085100Y0055600D02*
X0090100Y0055600D01*
X0090600Y0055194D01*
X0129100Y0044151D02*
X0130234Y0044151D01*
D21*
X0081100Y0034600D03*
D22*
X0108600Y0054600D03*
D23*
X0109600Y0054600D01*
X0117100Y0062100D01*
X0119600Y0062100D01*
X0124600Y0067100D01*
X0121925Y0069775D01*
X0110164Y0069775D01*
X0107989Y0067600D01*
X0102600Y0067600D01*
X0095153Y0060153D01*
X0095153Y0048163D01*
X0083479Y0036489D01*
X0082989Y0036489D01*
X0081100Y0034600D01*
X0137600Y0060100D02*
X0137600Y0064600D01*
X0135100Y0067100D01*
X0124600Y0067100D01*
X0137600Y0060100D02*
X0146100Y0051600D01*
X0146100Y0023026D01*
X0145924Y0022850D01*
D24*
X0124100Y0045600D03*
X0103100Y0059600D03*
X0112100Y0066600D03*
X0085100Y0055600D03*
X0083100Y0051600D03*
X0089100Y0046600D03*
X0096100Y0038600D03*
X0098100Y0031600D03*
X0063100Y0027600D03*
X0053100Y0026600D03*
X0046100Y0039600D03*
X0034100Y0045600D03*
X0074100Y0062600D03*
M02*
