%
M48
M72
T01C0.01550
T02C0.01575
T03C0.03200
T04C0.03543
T05C0.03937
T06C0.04000
T07C0.07000
%
T01
X53100Y26600
X63100Y27600
X81100Y34600
X96100Y38600
X98100Y31600
X124100Y45600
X103100Y59600
X112100Y66600
X85100Y55600
X83100Y51600
X89100Y46600
X74100Y62600
X34100Y45600
X46100Y39600
T02
X108600Y54600
T03
X82600Y20600
X82600Y10600
T04
X21600Y11100
X31600Y11100
X41600Y11100
X58100Y11100
X58100Y21100
X40100Y32214
X58100Y53600
X40100Y58986
X58100Y63600
X137600Y11100
X145600Y11100
T05
X9100Y20600
X9100Y30600
X9100Y40600
X9100Y50600
X9100Y60600
T06
X32900Y68100
X44300Y68100
T07
X103742Y39072
X131301Y39072
M30
