G75*
%MOIN*%
%OFA0B0*%
%FSLAX25Y25*%
%IPPOS*%
%LPD*%
%AMOC8*
5,1,8,0,0,1.08239X$1,22.5*
%
%ADD10C,0.00500*%
%ADD11C,0.01000*%
%ADD12C,0.00400*%
D10*
X0033210Y0028868D02*
X0046990Y0028868D01*
X0046990Y0062332D01*
X0033210Y0062332D01*
X0033210Y0028868D01*
X0037147Y0038907D02*
X0043053Y0038907D01*
X0043053Y0046781D01*
X0037147Y0046781D01*
X0037147Y0044813D01*
X0037147Y0038907D01*
X0037147Y0044813D02*
X0043053Y0044813D01*
X0043053Y0046781D02*
X0043053Y0052687D01*
X0037147Y0052687D01*
X0037147Y0046781D01*
D11*
X0066391Y0043490D02*
X0066391Y0035025D01*
X0077809Y0035025D02*
X0077809Y0043490D01*
X0075446Y0043490D01*
X0068754Y0043490D02*
X0066391Y0043490D01*
X0084569Y0051592D02*
X0088600Y0051592D01*
X0084569Y0051592D02*
X0084569Y0030608D01*
X0097350Y0025608D02*
X0135631Y0025608D01*
X0135631Y0051592D02*
X0128975Y0051592D01*
X0121100Y0051592D02*
X0117100Y0051592D01*
X0109350Y0051592D02*
X0101350Y0051592D01*
X0096309Y0054210D02*
X0093946Y0054210D01*
X0096309Y0054210D02*
X0096309Y0062675D01*
X0084891Y0062675D02*
X0084891Y0054210D01*
X0087254Y0054210D01*
X0078309Y0054210D02*
X0075946Y0054210D01*
X0078309Y0054210D02*
X0078309Y0062675D01*
X0066891Y0062675D02*
X0066891Y0054210D01*
X0069254Y0054210D01*
D12*
X0064904Y0054988D02*
X0064904Y0057290D01*
X0064137Y0058057D01*
X0062602Y0058057D01*
X0061835Y0057290D01*
X0061835Y0054988D01*
X0060300Y0054988D02*
X0064904Y0054988D01*
X0061835Y0056523D02*
X0060300Y0058057D01*
X0060300Y0059592D02*
X0060300Y0062661D01*
X0060300Y0061127D02*
X0064904Y0061127D01*
X0063369Y0059592D01*
X0063369Y0064196D02*
X0064137Y0064196D01*
X0064904Y0064963D01*
X0064904Y0066498D01*
X0064137Y0067265D01*
X0063369Y0067265D01*
X0062602Y0066498D01*
X0062602Y0064963D01*
X0063369Y0064196D01*
X0062602Y0064963D02*
X0061835Y0064196D01*
X0061067Y0064196D01*
X0060300Y0064963D01*
X0060300Y0066498D01*
X0061067Y0067265D01*
X0061835Y0067265D01*
X0062602Y0066498D01*
X0078300Y0066498D02*
X0078300Y0064963D01*
X0079067Y0064196D01*
X0080300Y0064196D02*
X0084904Y0064196D01*
X0082904Y0064963D02*
X0082137Y0064196D01*
X0081369Y0064196D01*
X0080602Y0064963D01*
X0080602Y0067265D01*
X0080300Y0067265D02*
X0082602Y0064963D01*
X0082904Y0064963D02*
X0082904Y0066498D01*
X0082137Y0067265D01*
X0079067Y0067265D01*
X0078300Y0066498D01*
X0081835Y0064196D02*
X0084904Y0067265D01*
X0084137Y0062661D02*
X0081067Y0062661D01*
X0080300Y0061894D01*
X0080300Y0060359D01*
X0081067Y0059592D01*
X0084137Y0062661D01*
X0084904Y0061894D01*
X0084904Y0060359D01*
X0084137Y0059592D01*
X0081067Y0059592D01*
X0081369Y0059592D02*
X0082904Y0061127D01*
X0078300Y0061127D01*
X0078300Y0062661D02*
X0078300Y0059592D01*
X0078300Y0058057D02*
X0079835Y0056523D01*
X0079835Y0057290D02*
X0079835Y0054988D01*
X0080300Y0054988D02*
X0083369Y0058057D01*
X0084137Y0058057D01*
X0084904Y0057290D01*
X0084904Y0055756D01*
X0084137Y0054988D01*
X0082904Y0054988D02*
X0082904Y0057290D01*
X0082137Y0058057D01*
X0080602Y0058057D01*
X0079835Y0057290D01*
X0080300Y0058057D02*
X0080300Y0054988D01*
X0078300Y0054988D02*
X0082904Y0054988D01*
X0098300Y0054988D02*
X0101369Y0058057D01*
X0102137Y0058057D01*
X0102904Y0057290D01*
X0102904Y0055756D01*
X0102137Y0054988D01*
X0098300Y0054988D02*
X0098300Y0058057D01*
X0099067Y0059592D02*
X0102137Y0062661D01*
X0099067Y0062661D01*
X0098300Y0061894D01*
X0098300Y0060359D01*
X0099067Y0059592D01*
X0102137Y0059592D01*
X0102904Y0060359D01*
X0102904Y0061894D01*
X0102137Y0062661D01*
X0102904Y0064196D02*
X0098300Y0064196D01*
X0099835Y0064196D02*
X0102904Y0067265D01*
X0100602Y0064963D02*
X0098300Y0067265D01*
X0064404Y0041577D02*
X0061335Y0038508D01*
X0062102Y0039275D02*
X0059800Y0041577D01*
X0059800Y0038508D02*
X0064404Y0038508D01*
X0063637Y0036973D02*
X0060567Y0036973D01*
X0059800Y0036206D01*
X0059800Y0034671D01*
X0060567Y0033904D01*
X0063637Y0036973D01*
X0064404Y0036206D01*
X0064404Y0034671D01*
X0063637Y0033904D01*
X0060567Y0033904D01*
X0059800Y0032369D02*
X0059800Y0029300D01*
X0059800Y0030835D02*
X0064404Y0030835D01*
X0062869Y0029300D01*
X0079800Y0029300D02*
X0084404Y0029300D01*
X0082102Y0029300D02*
X0082102Y0032369D01*
X0084404Y0032369D02*
X0079800Y0032369D01*
X0079800Y0033904D02*
X0084404Y0033904D01*
X0084404Y0036206D01*
X0083637Y0036973D01*
X0082102Y0036973D01*
X0081335Y0036206D01*
X0081335Y0033904D01*
M02*
