G75*
%MOIN*%
%OFA0B0*%
%FSLAX25Y25*%
%IPPOS*%
%LPD*%
%AMOC8*
5,1,8,0,0,1.08239X$1,22.5*
%
%ADD10C,0.00100*%
%ADD11R,0.05906X0.05118*%
%ADD12OC8,0.05200*%
%ADD13C,0.07000*%
%ADD14R,0.07000X0.07000*%
%ADD15C,0.00000*%
%ADD16C,0.07400*%
%ADD17C,0.07600*%
%ADD18R,0.05543X0.05543*%
%ADD19R,0.10236X0.08661*%
%ADD20R,0.05512X0.04331*%
%ADD21R,0.08661X0.02362*%
%ADD22R,0.03937X0.04331*%
%ADD23R,0.04331X0.03937*%
%ADD24R,0.04331X0.05512*%
%ADD25R,0.02756X0.04724*%
%ADD26C,0.01200*%
%ADD27C,0.01600*%
%ADD28C,0.03160*%
%ADD29C,0.03346*%
%ADD30C,0.03150*%
D10*
X0002600Y0004600D02*
X0002600Y0073600D01*
X0150600Y0073600D01*
X0150600Y0004600D01*
X0002600Y0004600D01*
D11*
X0069100Y0012360D03*
X0069100Y0019840D03*
X0040600Y0041860D03*
X0040600Y0049340D03*
D12*
X0082600Y0020600D03*
X0082600Y0010600D03*
D13*
X0031600Y0011100D03*
X0021600Y0011100D03*
D14*
X0041600Y0011100D03*
D15*
X0038328Y0032214D02*
X0038330Y0032298D01*
X0038336Y0032381D01*
X0038346Y0032464D01*
X0038360Y0032547D01*
X0038377Y0032629D01*
X0038399Y0032710D01*
X0038424Y0032789D01*
X0038453Y0032868D01*
X0038486Y0032945D01*
X0038522Y0033020D01*
X0038562Y0033094D01*
X0038605Y0033166D01*
X0038652Y0033235D01*
X0038702Y0033302D01*
X0038755Y0033367D01*
X0038811Y0033429D01*
X0038869Y0033489D01*
X0038931Y0033546D01*
X0038995Y0033599D01*
X0039062Y0033650D01*
X0039131Y0033697D01*
X0039202Y0033742D01*
X0039275Y0033782D01*
X0039350Y0033819D01*
X0039427Y0033853D01*
X0039505Y0033883D01*
X0039584Y0033909D01*
X0039665Y0033932D01*
X0039747Y0033950D01*
X0039829Y0033965D01*
X0039912Y0033976D01*
X0039995Y0033983D01*
X0040079Y0033986D01*
X0040163Y0033985D01*
X0040246Y0033980D01*
X0040330Y0033971D01*
X0040412Y0033958D01*
X0040494Y0033942D01*
X0040575Y0033921D01*
X0040656Y0033897D01*
X0040734Y0033869D01*
X0040812Y0033837D01*
X0040888Y0033801D01*
X0040962Y0033762D01*
X0041034Y0033720D01*
X0041104Y0033674D01*
X0041172Y0033625D01*
X0041237Y0033573D01*
X0041300Y0033518D01*
X0041360Y0033460D01*
X0041418Y0033399D01*
X0041472Y0033335D01*
X0041524Y0033269D01*
X0041572Y0033201D01*
X0041617Y0033130D01*
X0041658Y0033057D01*
X0041697Y0032983D01*
X0041731Y0032907D01*
X0041762Y0032829D01*
X0041789Y0032750D01*
X0041813Y0032669D01*
X0041832Y0032588D01*
X0041848Y0032506D01*
X0041860Y0032423D01*
X0041868Y0032339D01*
X0041872Y0032256D01*
X0041872Y0032172D01*
X0041868Y0032089D01*
X0041860Y0032005D01*
X0041848Y0031922D01*
X0041832Y0031840D01*
X0041813Y0031759D01*
X0041789Y0031678D01*
X0041762Y0031599D01*
X0041731Y0031521D01*
X0041697Y0031445D01*
X0041658Y0031371D01*
X0041617Y0031298D01*
X0041572Y0031227D01*
X0041524Y0031159D01*
X0041472Y0031093D01*
X0041418Y0031029D01*
X0041360Y0030968D01*
X0041300Y0030910D01*
X0041237Y0030855D01*
X0041172Y0030803D01*
X0041104Y0030754D01*
X0041034Y0030708D01*
X0040962Y0030666D01*
X0040888Y0030627D01*
X0040812Y0030591D01*
X0040734Y0030559D01*
X0040656Y0030531D01*
X0040575Y0030507D01*
X0040494Y0030486D01*
X0040412Y0030470D01*
X0040330Y0030457D01*
X0040246Y0030448D01*
X0040163Y0030443D01*
X0040079Y0030442D01*
X0039995Y0030445D01*
X0039912Y0030452D01*
X0039829Y0030463D01*
X0039747Y0030478D01*
X0039665Y0030496D01*
X0039584Y0030519D01*
X0039505Y0030545D01*
X0039427Y0030575D01*
X0039350Y0030609D01*
X0039275Y0030646D01*
X0039202Y0030686D01*
X0039131Y0030731D01*
X0039062Y0030778D01*
X0038995Y0030829D01*
X0038931Y0030882D01*
X0038869Y0030939D01*
X0038811Y0030999D01*
X0038755Y0031061D01*
X0038702Y0031126D01*
X0038652Y0031193D01*
X0038605Y0031262D01*
X0038562Y0031334D01*
X0038522Y0031408D01*
X0038486Y0031483D01*
X0038453Y0031560D01*
X0038424Y0031639D01*
X0038399Y0031718D01*
X0038377Y0031799D01*
X0038360Y0031881D01*
X0038346Y0031964D01*
X0038336Y0032047D01*
X0038330Y0032130D01*
X0038328Y0032214D01*
X0038328Y0058986D02*
X0038330Y0059070D01*
X0038336Y0059153D01*
X0038346Y0059236D01*
X0038360Y0059319D01*
X0038377Y0059401D01*
X0038399Y0059482D01*
X0038424Y0059561D01*
X0038453Y0059640D01*
X0038486Y0059717D01*
X0038522Y0059792D01*
X0038562Y0059866D01*
X0038605Y0059938D01*
X0038652Y0060007D01*
X0038702Y0060074D01*
X0038755Y0060139D01*
X0038811Y0060201D01*
X0038869Y0060261D01*
X0038931Y0060318D01*
X0038995Y0060371D01*
X0039062Y0060422D01*
X0039131Y0060469D01*
X0039202Y0060514D01*
X0039275Y0060554D01*
X0039350Y0060591D01*
X0039427Y0060625D01*
X0039505Y0060655D01*
X0039584Y0060681D01*
X0039665Y0060704D01*
X0039747Y0060722D01*
X0039829Y0060737D01*
X0039912Y0060748D01*
X0039995Y0060755D01*
X0040079Y0060758D01*
X0040163Y0060757D01*
X0040246Y0060752D01*
X0040330Y0060743D01*
X0040412Y0060730D01*
X0040494Y0060714D01*
X0040575Y0060693D01*
X0040656Y0060669D01*
X0040734Y0060641D01*
X0040812Y0060609D01*
X0040888Y0060573D01*
X0040962Y0060534D01*
X0041034Y0060492D01*
X0041104Y0060446D01*
X0041172Y0060397D01*
X0041237Y0060345D01*
X0041300Y0060290D01*
X0041360Y0060232D01*
X0041418Y0060171D01*
X0041472Y0060107D01*
X0041524Y0060041D01*
X0041572Y0059973D01*
X0041617Y0059902D01*
X0041658Y0059829D01*
X0041697Y0059755D01*
X0041731Y0059679D01*
X0041762Y0059601D01*
X0041789Y0059522D01*
X0041813Y0059441D01*
X0041832Y0059360D01*
X0041848Y0059278D01*
X0041860Y0059195D01*
X0041868Y0059111D01*
X0041872Y0059028D01*
X0041872Y0058944D01*
X0041868Y0058861D01*
X0041860Y0058777D01*
X0041848Y0058694D01*
X0041832Y0058612D01*
X0041813Y0058531D01*
X0041789Y0058450D01*
X0041762Y0058371D01*
X0041731Y0058293D01*
X0041697Y0058217D01*
X0041658Y0058143D01*
X0041617Y0058070D01*
X0041572Y0057999D01*
X0041524Y0057931D01*
X0041472Y0057865D01*
X0041418Y0057801D01*
X0041360Y0057740D01*
X0041300Y0057682D01*
X0041237Y0057627D01*
X0041172Y0057575D01*
X0041104Y0057526D01*
X0041034Y0057480D01*
X0040962Y0057438D01*
X0040888Y0057399D01*
X0040812Y0057363D01*
X0040734Y0057331D01*
X0040656Y0057303D01*
X0040575Y0057279D01*
X0040494Y0057258D01*
X0040412Y0057242D01*
X0040330Y0057229D01*
X0040246Y0057220D01*
X0040163Y0057215D01*
X0040079Y0057214D01*
X0039995Y0057217D01*
X0039912Y0057224D01*
X0039829Y0057235D01*
X0039747Y0057250D01*
X0039665Y0057268D01*
X0039584Y0057291D01*
X0039505Y0057317D01*
X0039427Y0057347D01*
X0039350Y0057381D01*
X0039275Y0057418D01*
X0039202Y0057458D01*
X0039131Y0057503D01*
X0039062Y0057550D01*
X0038995Y0057601D01*
X0038931Y0057654D01*
X0038869Y0057711D01*
X0038811Y0057771D01*
X0038755Y0057833D01*
X0038702Y0057898D01*
X0038652Y0057965D01*
X0038605Y0058034D01*
X0038562Y0058106D01*
X0038522Y0058180D01*
X0038486Y0058255D01*
X0038453Y0058332D01*
X0038424Y0058411D01*
X0038399Y0058490D01*
X0038377Y0058571D01*
X0038360Y0058653D01*
X0038346Y0058736D01*
X0038336Y0058819D01*
X0038330Y0058902D01*
X0038328Y0058986D01*
X0100242Y0039072D02*
X0100244Y0039190D01*
X0100250Y0039308D01*
X0100260Y0039426D01*
X0100274Y0039543D01*
X0100292Y0039660D01*
X0100314Y0039777D01*
X0100339Y0039892D01*
X0100369Y0040006D01*
X0100403Y0040120D01*
X0100440Y0040232D01*
X0100481Y0040343D01*
X0100526Y0040452D01*
X0100574Y0040560D01*
X0100626Y0040666D01*
X0100682Y0040771D01*
X0100741Y0040873D01*
X0100803Y0040973D01*
X0100869Y0041071D01*
X0100938Y0041167D01*
X0101011Y0041261D01*
X0101086Y0041352D01*
X0101165Y0041440D01*
X0101246Y0041526D01*
X0101331Y0041609D01*
X0101418Y0041689D01*
X0101507Y0041766D01*
X0101600Y0041840D01*
X0101694Y0041910D01*
X0101791Y0041978D01*
X0101891Y0042042D01*
X0101992Y0042103D01*
X0102095Y0042160D01*
X0102201Y0042214D01*
X0102308Y0042265D01*
X0102416Y0042311D01*
X0102526Y0042354D01*
X0102638Y0042393D01*
X0102751Y0042429D01*
X0102865Y0042460D01*
X0102980Y0042488D01*
X0103095Y0042512D01*
X0103212Y0042532D01*
X0103329Y0042548D01*
X0103447Y0042560D01*
X0103565Y0042568D01*
X0103683Y0042572D01*
X0103801Y0042572D01*
X0103919Y0042568D01*
X0104037Y0042560D01*
X0104155Y0042548D01*
X0104272Y0042532D01*
X0104389Y0042512D01*
X0104504Y0042488D01*
X0104619Y0042460D01*
X0104733Y0042429D01*
X0104846Y0042393D01*
X0104958Y0042354D01*
X0105068Y0042311D01*
X0105176Y0042265D01*
X0105283Y0042214D01*
X0105389Y0042160D01*
X0105492Y0042103D01*
X0105593Y0042042D01*
X0105693Y0041978D01*
X0105790Y0041910D01*
X0105884Y0041840D01*
X0105977Y0041766D01*
X0106066Y0041689D01*
X0106153Y0041609D01*
X0106238Y0041526D01*
X0106319Y0041440D01*
X0106398Y0041352D01*
X0106473Y0041261D01*
X0106546Y0041167D01*
X0106615Y0041071D01*
X0106681Y0040973D01*
X0106743Y0040873D01*
X0106802Y0040771D01*
X0106858Y0040666D01*
X0106910Y0040560D01*
X0106958Y0040452D01*
X0107003Y0040343D01*
X0107044Y0040232D01*
X0107081Y0040120D01*
X0107115Y0040006D01*
X0107145Y0039892D01*
X0107170Y0039777D01*
X0107192Y0039660D01*
X0107210Y0039543D01*
X0107224Y0039426D01*
X0107234Y0039308D01*
X0107240Y0039190D01*
X0107242Y0039072D01*
X0107240Y0038954D01*
X0107234Y0038836D01*
X0107224Y0038718D01*
X0107210Y0038601D01*
X0107192Y0038484D01*
X0107170Y0038367D01*
X0107145Y0038252D01*
X0107115Y0038138D01*
X0107081Y0038024D01*
X0107044Y0037912D01*
X0107003Y0037801D01*
X0106958Y0037692D01*
X0106910Y0037584D01*
X0106858Y0037478D01*
X0106802Y0037373D01*
X0106743Y0037271D01*
X0106681Y0037171D01*
X0106615Y0037073D01*
X0106546Y0036977D01*
X0106473Y0036883D01*
X0106398Y0036792D01*
X0106319Y0036704D01*
X0106238Y0036618D01*
X0106153Y0036535D01*
X0106066Y0036455D01*
X0105977Y0036378D01*
X0105884Y0036304D01*
X0105790Y0036234D01*
X0105693Y0036166D01*
X0105593Y0036102D01*
X0105492Y0036041D01*
X0105389Y0035984D01*
X0105283Y0035930D01*
X0105176Y0035879D01*
X0105068Y0035833D01*
X0104958Y0035790D01*
X0104846Y0035751D01*
X0104733Y0035715D01*
X0104619Y0035684D01*
X0104504Y0035656D01*
X0104389Y0035632D01*
X0104272Y0035612D01*
X0104155Y0035596D01*
X0104037Y0035584D01*
X0103919Y0035576D01*
X0103801Y0035572D01*
X0103683Y0035572D01*
X0103565Y0035576D01*
X0103447Y0035584D01*
X0103329Y0035596D01*
X0103212Y0035612D01*
X0103095Y0035632D01*
X0102980Y0035656D01*
X0102865Y0035684D01*
X0102751Y0035715D01*
X0102638Y0035751D01*
X0102526Y0035790D01*
X0102416Y0035833D01*
X0102308Y0035879D01*
X0102201Y0035930D01*
X0102095Y0035984D01*
X0101992Y0036041D01*
X0101891Y0036102D01*
X0101791Y0036166D01*
X0101694Y0036234D01*
X0101600Y0036304D01*
X0101507Y0036378D01*
X0101418Y0036455D01*
X0101331Y0036535D01*
X0101246Y0036618D01*
X0101165Y0036704D01*
X0101086Y0036792D01*
X0101011Y0036883D01*
X0100938Y0036977D01*
X0100869Y0037073D01*
X0100803Y0037171D01*
X0100741Y0037271D01*
X0100682Y0037373D01*
X0100626Y0037478D01*
X0100574Y0037584D01*
X0100526Y0037692D01*
X0100481Y0037801D01*
X0100440Y0037912D01*
X0100403Y0038024D01*
X0100369Y0038138D01*
X0100339Y0038252D01*
X0100314Y0038367D01*
X0100292Y0038484D01*
X0100274Y0038601D01*
X0100260Y0038718D01*
X0100250Y0038836D01*
X0100244Y0038954D01*
X0100242Y0039072D01*
X0127801Y0039072D02*
X0127803Y0039190D01*
X0127809Y0039308D01*
X0127819Y0039426D01*
X0127833Y0039543D01*
X0127851Y0039660D01*
X0127873Y0039777D01*
X0127898Y0039892D01*
X0127928Y0040006D01*
X0127962Y0040120D01*
X0127999Y0040232D01*
X0128040Y0040343D01*
X0128085Y0040452D01*
X0128133Y0040560D01*
X0128185Y0040666D01*
X0128241Y0040771D01*
X0128300Y0040873D01*
X0128362Y0040973D01*
X0128428Y0041071D01*
X0128497Y0041167D01*
X0128570Y0041261D01*
X0128645Y0041352D01*
X0128724Y0041440D01*
X0128805Y0041526D01*
X0128890Y0041609D01*
X0128977Y0041689D01*
X0129066Y0041766D01*
X0129159Y0041840D01*
X0129253Y0041910D01*
X0129350Y0041978D01*
X0129450Y0042042D01*
X0129551Y0042103D01*
X0129654Y0042160D01*
X0129760Y0042214D01*
X0129867Y0042265D01*
X0129975Y0042311D01*
X0130085Y0042354D01*
X0130197Y0042393D01*
X0130310Y0042429D01*
X0130424Y0042460D01*
X0130539Y0042488D01*
X0130654Y0042512D01*
X0130771Y0042532D01*
X0130888Y0042548D01*
X0131006Y0042560D01*
X0131124Y0042568D01*
X0131242Y0042572D01*
X0131360Y0042572D01*
X0131478Y0042568D01*
X0131596Y0042560D01*
X0131714Y0042548D01*
X0131831Y0042532D01*
X0131948Y0042512D01*
X0132063Y0042488D01*
X0132178Y0042460D01*
X0132292Y0042429D01*
X0132405Y0042393D01*
X0132517Y0042354D01*
X0132627Y0042311D01*
X0132735Y0042265D01*
X0132842Y0042214D01*
X0132948Y0042160D01*
X0133051Y0042103D01*
X0133152Y0042042D01*
X0133252Y0041978D01*
X0133349Y0041910D01*
X0133443Y0041840D01*
X0133536Y0041766D01*
X0133625Y0041689D01*
X0133712Y0041609D01*
X0133797Y0041526D01*
X0133878Y0041440D01*
X0133957Y0041352D01*
X0134032Y0041261D01*
X0134105Y0041167D01*
X0134174Y0041071D01*
X0134240Y0040973D01*
X0134302Y0040873D01*
X0134361Y0040771D01*
X0134417Y0040666D01*
X0134469Y0040560D01*
X0134517Y0040452D01*
X0134562Y0040343D01*
X0134603Y0040232D01*
X0134640Y0040120D01*
X0134674Y0040006D01*
X0134704Y0039892D01*
X0134729Y0039777D01*
X0134751Y0039660D01*
X0134769Y0039543D01*
X0134783Y0039426D01*
X0134793Y0039308D01*
X0134799Y0039190D01*
X0134801Y0039072D01*
X0134799Y0038954D01*
X0134793Y0038836D01*
X0134783Y0038718D01*
X0134769Y0038601D01*
X0134751Y0038484D01*
X0134729Y0038367D01*
X0134704Y0038252D01*
X0134674Y0038138D01*
X0134640Y0038024D01*
X0134603Y0037912D01*
X0134562Y0037801D01*
X0134517Y0037692D01*
X0134469Y0037584D01*
X0134417Y0037478D01*
X0134361Y0037373D01*
X0134302Y0037271D01*
X0134240Y0037171D01*
X0134174Y0037073D01*
X0134105Y0036977D01*
X0134032Y0036883D01*
X0133957Y0036792D01*
X0133878Y0036704D01*
X0133797Y0036618D01*
X0133712Y0036535D01*
X0133625Y0036455D01*
X0133536Y0036378D01*
X0133443Y0036304D01*
X0133349Y0036234D01*
X0133252Y0036166D01*
X0133152Y0036102D01*
X0133051Y0036041D01*
X0132948Y0035984D01*
X0132842Y0035930D01*
X0132735Y0035879D01*
X0132627Y0035833D01*
X0132517Y0035790D01*
X0132405Y0035751D01*
X0132292Y0035715D01*
X0132178Y0035684D01*
X0132063Y0035656D01*
X0131948Y0035632D01*
X0131831Y0035612D01*
X0131714Y0035596D01*
X0131596Y0035584D01*
X0131478Y0035576D01*
X0131360Y0035572D01*
X0131242Y0035572D01*
X0131124Y0035576D01*
X0131006Y0035584D01*
X0130888Y0035596D01*
X0130771Y0035612D01*
X0130654Y0035632D01*
X0130539Y0035656D01*
X0130424Y0035684D01*
X0130310Y0035715D01*
X0130197Y0035751D01*
X0130085Y0035790D01*
X0129975Y0035833D01*
X0129867Y0035879D01*
X0129760Y0035930D01*
X0129654Y0035984D01*
X0129551Y0036041D01*
X0129450Y0036102D01*
X0129350Y0036166D01*
X0129253Y0036234D01*
X0129159Y0036304D01*
X0129066Y0036378D01*
X0128977Y0036455D01*
X0128890Y0036535D01*
X0128805Y0036618D01*
X0128724Y0036704D01*
X0128645Y0036792D01*
X0128570Y0036883D01*
X0128497Y0036977D01*
X0128428Y0037073D01*
X0128362Y0037171D01*
X0128300Y0037271D01*
X0128241Y0037373D01*
X0128185Y0037478D01*
X0128133Y0037584D01*
X0128085Y0037692D01*
X0128040Y0037801D01*
X0127999Y0037912D01*
X0127962Y0038024D01*
X0127928Y0038138D01*
X0127898Y0038252D01*
X0127873Y0038367D01*
X0127851Y0038484D01*
X0127833Y0038601D01*
X0127819Y0038718D01*
X0127809Y0038836D01*
X0127803Y0038954D01*
X0127801Y0039072D01*
D16*
X0044300Y0068100D03*
X0032900Y0068100D03*
D17*
X0009100Y0060600D03*
X0009100Y0050600D03*
X0009100Y0040600D03*
X0009100Y0030600D03*
X0009100Y0020600D03*
D18*
X0058100Y0021100D03*
X0058100Y0011100D03*
X0058100Y0053600D03*
X0058100Y0063600D03*
X0137600Y0011100D03*
X0145600Y0011100D03*
D19*
X0125443Y0027100D03*
X0105757Y0027100D03*
X0042943Y0025100D03*
X0023257Y0025100D03*
D20*
X0115600Y0051663D03*
X0115600Y0059537D03*
D21*
X0095836Y0058100D03*
X0095836Y0053100D03*
X0095836Y0048100D03*
X0095836Y0043100D03*
X0075364Y0043100D03*
X0075364Y0048100D03*
X0075364Y0053100D03*
X0075364Y0058100D03*
D22*
X0099754Y0065600D03*
X0106446Y0065600D03*
X0092946Y0031600D03*
X0086254Y0031600D03*
D23*
X0055600Y0031754D03*
X0055600Y0038446D03*
X0125600Y0052254D03*
X0125600Y0058946D03*
X0135100Y0059754D03*
X0146100Y0059446D03*
X0146100Y0052754D03*
X0135100Y0066446D03*
D24*
X0121537Y0039100D03*
X0113663Y0039100D03*
X0073537Y0034100D03*
X0065663Y0034100D03*
D25*
X0022600Y0038817D03*
X0022600Y0053383D03*
D26*
X0023100Y0052600D01*
X0027100Y0052600D01*
X0034100Y0045600D01*
X0036161Y0047746D02*
X0036247Y0047746D01*
X0036247Y0047660D02*
X0035785Y0048122D01*
X0034692Y0048575D01*
X0033953Y0048575D01*
X0027928Y0054600D01*
X0025378Y0054600D01*
X0025378Y0056326D01*
X0024558Y0057146D01*
X0020642Y0057146D01*
X0019822Y0056326D01*
X0019822Y0050441D01*
X0020642Y0049621D01*
X0024558Y0049621D01*
X0025378Y0050441D01*
X0025378Y0050600D01*
X0026272Y0050600D01*
X0031125Y0045747D01*
X0031125Y0045403D01*
X0029100Y0047428D01*
X0027928Y0048600D01*
X0017272Y0048600D01*
X0013774Y0045102D01*
X0013218Y0044670D01*
X0013201Y0044529D01*
X0013100Y0044428D01*
X0013100Y0044237D01*
X0012618Y0044719D01*
X0011930Y0045218D01*
X0011173Y0045604D01*
X0010867Y0045704D01*
X0012046Y0046192D01*
X0013508Y0047654D01*
X0014300Y0049566D01*
X0014300Y0051634D01*
X0013508Y0053546D01*
X0012046Y0055008D01*
X0010617Y0055600D01*
X0012046Y0056192D01*
X0013508Y0057654D01*
X0014300Y0059566D01*
X0014300Y0061634D01*
X0013508Y0063546D01*
X0012046Y0065008D01*
X0010134Y0065800D01*
X0008066Y0065800D01*
X0006154Y0065008D01*
X0004692Y0063546D01*
X0004250Y0062479D01*
X0004250Y0071950D01*
X0029538Y0071950D01*
X0028576Y0070989D01*
X0027800Y0069114D01*
X0027800Y0067086D01*
X0028576Y0065211D01*
X0030011Y0063776D01*
X0031886Y0063000D01*
X0033914Y0063000D01*
X0035789Y0063776D01*
X0037224Y0065211D01*
X0038000Y0067086D01*
X0038000Y0069114D01*
X0037224Y0070989D01*
X0036262Y0071950D01*
X0040938Y0071950D01*
X0039976Y0070989D01*
X0039200Y0069114D01*
X0039200Y0067086D01*
X0039976Y0065211D01*
X0041411Y0063776D01*
X0043286Y0063000D01*
X0043872Y0063000D01*
X0044272Y0062600D01*
X0046100Y0060772D01*
X0046100Y0058772D01*
X0047272Y0057600D01*
X0053272Y0051600D01*
X0053928Y0051600D01*
X0053928Y0050248D01*
X0054748Y0049428D01*
X0061452Y0049428D01*
X0062272Y0050248D01*
X0062272Y0056952D01*
X0061452Y0057772D01*
X0054748Y0057772D01*
X0053928Y0056952D01*
X0053928Y0056600D01*
X0050100Y0060428D01*
X0050100Y0062428D01*
X0047970Y0064558D01*
X0048624Y0065211D01*
X0049400Y0067086D01*
X0049400Y0069114D01*
X0048624Y0070989D01*
X0047662Y0071950D01*
X0148950Y0071950D01*
X0148950Y0062710D01*
X0148845Y0062815D01*
X0143355Y0062815D01*
X0142535Y0061995D01*
X0142535Y0061600D01*
X0138665Y0061600D01*
X0138665Y0062302D01*
X0137867Y0063100D01*
X0138665Y0063898D01*
X0138665Y0068995D01*
X0137845Y0069815D01*
X0132355Y0069815D01*
X0131535Y0068995D01*
X0131535Y0068600D01*
X0114307Y0068600D01*
X0113785Y0069122D01*
X0112692Y0069575D01*
X0111508Y0069575D01*
X0110415Y0069122D01*
X0109726Y0068434D01*
X0108995Y0069165D01*
X0103898Y0069165D01*
X0103100Y0068367D01*
X0102302Y0069165D01*
X0097205Y0069165D01*
X0096385Y0068345D01*
X0096385Y0067600D01*
X0071272Y0067600D01*
X0067272Y0063600D01*
X0066100Y0062428D01*
X0066100Y0048772D01*
X0067100Y0047772D01*
X0068272Y0046600D01*
X0069633Y0046600D01*
X0069633Y0046339D01*
X0070279Y0045693D01*
X0070051Y0045561D01*
X0069753Y0045264D01*
X0069542Y0044899D01*
X0069433Y0044492D01*
X0069433Y0043100D01*
X0075364Y0043100D01*
X0081294Y0043100D01*
X0081294Y0044492D01*
X0081185Y0044899D01*
X0080975Y0045264D01*
X0080677Y0045561D01*
X0080449Y0045693D01*
X0081094Y0046339D01*
X0081094Y0049398D01*
X0081415Y0049078D01*
X0082100Y0048794D01*
X0082100Y0041428D01*
X0080600Y0039928D01*
X0080145Y0040383D01*
X0080312Y0040428D01*
X0080677Y0040639D01*
X0080975Y0040936D01*
X0081185Y0041301D01*
X0081294Y0041708D01*
X0081294Y0043100D01*
X0075364Y0043100D01*
X0075364Y0043100D01*
X0069433Y0043100D01*
X0069433Y0042600D01*
X0068928Y0042600D01*
X0064928Y0046600D01*
X0056928Y0046600D01*
X0051928Y0051600D01*
X0044953Y0051600D01*
X0044953Y0052479D01*
X0044133Y0053299D01*
X0037067Y0053299D01*
X0036247Y0052479D01*
X0036247Y0047660D01*
X0036247Y0048945D02*
X0033583Y0048945D01*
X0032385Y0050143D02*
X0036247Y0050143D01*
X0036247Y0051342D02*
X0031186Y0051342D01*
X0029988Y0052540D02*
X0036309Y0052540D01*
X0038190Y0056127D02*
X0039429Y0055614D01*
X0040771Y0055614D01*
X0042010Y0056127D01*
X0042958Y0057076D01*
X0043472Y0058315D01*
X0043472Y0059656D01*
X0042958Y0060896D01*
X0042010Y0061844D01*
X0040771Y0062357D01*
X0039429Y0062357D01*
X0038190Y0061844D01*
X0037242Y0060896D01*
X0036728Y0059656D01*
X0036728Y0058315D01*
X0037242Y0057076D01*
X0038190Y0056127D01*
X0038182Y0056136D02*
X0025378Y0056136D01*
X0025378Y0054937D02*
X0049934Y0054937D01*
X0048736Y0056136D02*
X0042018Y0056136D01*
X0043065Y0057334D02*
X0047537Y0057334D01*
X0046339Y0058533D02*
X0043472Y0058533D01*
X0043441Y0059732D02*
X0046100Y0059732D01*
X0048100Y0059600D02*
X0048100Y0061600D01*
X0045100Y0064600D01*
X0045100Y0067600D01*
X0044300Y0068100D01*
X0039764Y0065724D02*
X0037436Y0065724D01*
X0037932Y0066923D02*
X0039267Y0066923D01*
X0039200Y0068121D02*
X0038000Y0068121D01*
X0037915Y0069320D02*
X0039285Y0069320D01*
X0039781Y0070518D02*
X0037419Y0070518D01*
X0036496Y0071717D02*
X0040704Y0071717D01*
X0047896Y0071717D02*
X0148950Y0071717D01*
X0148950Y0070518D02*
X0048819Y0070518D01*
X0049315Y0069320D02*
X0110892Y0069320D01*
X0113308Y0069320D02*
X0131859Y0069320D01*
X0135100Y0066600D02*
X0135100Y0066446D01*
X0135100Y0066600D02*
X0112100Y0066600D01*
X0106446Y0065600D02*
X0106100Y0065600D01*
X0106100Y0061600D01*
X0108100Y0059600D01*
X0115100Y0059600D01*
X0115600Y0059537D01*
X0116100Y0059600D01*
X0121100Y0059600D01*
X0122100Y0058600D01*
X0125100Y0058600D01*
X0125600Y0058946D01*
X0126100Y0058600D01*
X0130100Y0058600D01*
X0131100Y0059600D01*
X0135100Y0059600D01*
X0135100Y0059754D01*
X0135100Y0059600D02*
X0146100Y0059600D01*
X0146100Y0059446D01*
X0142535Y0057600D02*
X0142535Y0056898D01*
X0143255Y0056177D01*
X0142952Y0056002D01*
X0142654Y0055704D01*
X0142444Y0055340D01*
X0142335Y0054933D01*
X0142335Y0053138D01*
X0145716Y0053138D01*
X0145716Y0052369D01*
X0146484Y0052369D01*
X0146484Y0049185D01*
X0148476Y0049185D01*
X0148883Y0049294D01*
X0148950Y0049333D01*
X0148950Y0015272D01*
X0142248Y0015272D01*
X0141600Y0014623D01*
X0140952Y0015272D01*
X0134248Y0015272D01*
X0133428Y0014452D01*
X0133428Y0007748D01*
X0134248Y0006928D01*
X0140952Y0006928D01*
X0141600Y0007577D01*
X0142248Y0006928D01*
X0148950Y0006928D01*
X0148950Y0006250D01*
X0064161Y0006250D01*
X0065347Y0008621D01*
X0065567Y0008401D01*
X0072633Y0008401D01*
X0073453Y0009221D01*
X0073453Y0015499D01*
X0072852Y0016100D01*
X0073453Y0016701D01*
X0073453Y0017419D01*
X0078607Y0012264D01*
X0078600Y0012257D01*
X0078600Y0008943D01*
X0080943Y0006600D01*
X0084257Y0006600D01*
X0086600Y0008943D01*
X0086600Y0012257D01*
X0084257Y0014600D01*
X0081928Y0014600D01*
X0074928Y0021600D01*
X0073453Y0021600D01*
X0073453Y0022979D01*
X0072633Y0023799D01*
X0065567Y0023799D01*
X0064747Y0022979D01*
X0064747Y0016701D01*
X0065348Y0016100D01*
X0064747Y0015499D01*
X0064747Y0014600D01*
X0064272Y0014600D01*
X0064020Y0014348D01*
X0063682Y0014235D01*
X0063456Y0013785D01*
X0063100Y0013428D01*
X0063100Y0013072D01*
X0062272Y0011415D01*
X0062272Y0014452D01*
X0061452Y0015272D01*
X0054748Y0015272D01*
X0053928Y0014452D01*
X0053928Y0008600D01*
X0050802Y0008600D01*
X0046500Y0012041D01*
X0046500Y0015180D01*
X0045680Y0016000D01*
X0037520Y0016000D01*
X0036700Y0015180D01*
X0036700Y0007020D01*
X0037470Y0006250D01*
X0033177Y0006250D01*
X0033558Y0006374D01*
X0034273Y0006738D01*
X0034922Y0007210D01*
X0035490Y0007778D01*
X0035962Y0008427D01*
X0036326Y0009142D01*
X0036574Y0009906D01*
X0036700Y0010699D01*
X0036700Y0010814D01*
X0031886Y0010814D01*
X0031886Y0011386D01*
X0031314Y0011386D01*
X0031314Y0016200D01*
X0031199Y0016200D01*
X0030406Y0016074D01*
X0029642Y0015826D01*
X0028927Y0015462D01*
X0028278Y0014990D01*
X0027710Y0014422D01*
X0027238Y0013773D01*
X0026874Y0013058D01*
X0026626Y0012294D01*
X0026500Y0011501D01*
X0026500Y0011386D01*
X0031314Y0011386D01*
X0031314Y0010814D01*
X0026500Y0010814D01*
X0026500Y0010699D01*
X0026626Y0009906D01*
X0026874Y0009142D01*
X0027238Y0008427D01*
X0027710Y0007778D01*
X0028278Y0007210D01*
X0028927Y0006738D01*
X0029642Y0006374D01*
X0030023Y0006250D01*
X0022695Y0006250D01*
X0024376Y0006946D01*
X0025754Y0008324D01*
X0026500Y0010125D01*
X0026500Y0012075D01*
X0025886Y0013557D01*
X0027928Y0015600D01*
X0028928Y0015600D01*
X0030100Y0016772D01*
X0034100Y0020772D01*
X0034100Y0033428D01*
X0032928Y0034600D01*
X0026928Y0040600D01*
X0025378Y0040600D01*
X0025378Y0041759D01*
X0024558Y0042579D01*
X0020642Y0042579D01*
X0019822Y0041759D01*
X0019822Y0035874D01*
X0020642Y0035054D01*
X0024558Y0035054D01*
X0025378Y0035874D01*
X0025378Y0036494D01*
X0030100Y0031772D01*
X0030100Y0022428D01*
X0029776Y0022104D01*
X0029776Y0030011D01*
X0028955Y0030831D01*
X0023698Y0030831D01*
X0019100Y0035428D01*
X0019100Y0041772D01*
X0019928Y0042600D01*
X0025272Y0042600D01*
X0033272Y0034600D01*
X0036928Y0034600D01*
X0037928Y0035600D01*
X0042272Y0035600D01*
X0044272Y0033600D01*
X0046272Y0033600D01*
X0050272Y0029600D01*
X0052035Y0029600D01*
X0052035Y0029379D01*
X0051415Y0029122D01*
X0050578Y0028285D01*
X0050125Y0027192D01*
X0050125Y0026008D01*
X0050578Y0024915D01*
X0051415Y0024078D01*
X0052508Y0023625D01*
X0053692Y0023625D01*
X0053928Y0023723D01*
X0053928Y0017748D01*
X0054748Y0016928D01*
X0061452Y0016928D01*
X0062272Y0017748D01*
X0062272Y0024452D01*
X0061808Y0024915D01*
X0062508Y0024625D01*
X0063692Y0024625D01*
X0064785Y0025078D01*
X0065307Y0025600D01*
X0078928Y0025600D01*
X0080100Y0026772D01*
X0081100Y0027772D01*
X0083272Y0025600D01*
X0084272Y0025600D01*
X0093272Y0016600D01*
X0112928Y0016600D01*
X0114100Y0017772D01*
X0117100Y0020772D01*
X0117100Y0033428D01*
X0116100Y0034428D01*
X0116100Y0034944D01*
X0116408Y0034944D01*
X0117228Y0035764D01*
X0117228Y0042436D01*
X0116408Y0043256D01*
X0110918Y0043256D01*
X0110098Y0042436D01*
X0110098Y0035764D01*
X0110918Y0034944D01*
X0112100Y0034944D01*
X0112100Y0032772D01*
X0113100Y0031772D01*
X0113100Y0022428D01*
X0111272Y0020600D01*
X0094928Y0020600D01*
X0087494Y0028035D01*
X0088802Y0028035D01*
X0089600Y0028833D01*
X0090398Y0028035D01*
X0095495Y0028035D01*
X0096315Y0028855D01*
X0096315Y0029178D01*
X0096415Y0029078D01*
X0097508Y0028625D01*
X0098247Y0028625D01*
X0099239Y0027632D01*
X0099239Y0022189D01*
X0100059Y0021369D01*
X0111455Y0021369D01*
X0112276Y0022189D01*
X0112276Y0032011D01*
X0111455Y0032831D01*
X0100810Y0032831D01*
X0100622Y0033285D01*
X0099785Y0034122D01*
X0098692Y0034575D01*
X0097508Y0034575D01*
X0096415Y0034122D01*
X0096315Y0034022D01*
X0096315Y0034345D01*
X0095495Y0035165D01*
X0095100Y0035165D01*
X0095100Y0035794D01*
X0095508Y0035625D01*
X0096692Y0035625D01*
X0097785Y0036078D01*
X0098622Y0036915D01*
X0098869Y0037510D01*
X0099418Y0036184D01*
X0100853Y0034749D01*
X0102727Y0033972D01*
X0104756Y0033972D01*
X0106631Y0034749D01*
X0108065Y0036184D01*
X0108842Y0038058D01*
X0108842Y0040087D01*
X0108065Y0041961D01*
X0106631Y0043396D01*
X0104756Y0044172D01*
X0102727Y0044172D01*
X0101567Y0043692D01*
X0101567Y0044861D01*
X0100828Y0045600D01*
X0101567Y0046339D01*
X0101567Y0049861D01*
X0100828Y0050600D01*
X0102272Y0050600D01*
X0109272Y0043600D01*
X0119100Y0043600D01*
X0119100Y0043256D01*
X0118792Y0043256D01*
X0117972Y0042436D01*
X0117972Y0035764D01*
X0118792Y0034944D01*
X0120100Y0034944D01*
X0120100Y0032831D01*
X0119745Y0032831D01*
X0118924Y0032011D01*
X0118924Y0022189D01*
X0119745Y0021369D01*
X0131141Y0021369D01*
X0131961Y0022189D01*
X0131961Y0032011D01*
X0131141Y0032831D01*
X0124100Y0032831D01*
X0124100Y0034944D01*
X0124282Y0034944D01*
X0125102Y0035764D01*
X0125102Y0042436D01*
X0124848Y0042690D01*
X0125785Y0043078D01*
X0126622Y0043915D01*
X0127075Y0045008D01*
X0127075Y0045747D01*
X0128100Y0046772D01*
X0128100Y0048885D01*
X0128345Y0048885D01*
X0129165Y0049705D01*
X0129165Y0054802D01*
X0128367Y0055600D01*
X0129165Y0056398D01*
X0129165Y0056600D01*
X0130928Y0056600D01*
X0131535Y0057206D01*
X0131535Y0057205D01*
X0132355Y0056385D01*
X0137845Y0056385D01*
X0138665Y0057205D01*
X0138665Y0057600D01*
X0142535Y0057600D01*
X0142535Y0057334D02*
X0138665Y0057334D01*
X0142336Y0054937D02*
X0129030Y0054937D01*
X0128903Y0056136D02*
X0143184Y0056136D01*
X0142335Y0053739D02*
X0129165Y0053739D01*
X0129165Y0052540D02*
X0145716Y0052540D01*
X0145716Y0052369D02*
X0142335Y0052369D01*
X0142335Y0050574D01*
X0142444Y0050167D01*
X0142654Y0049803D01*
X0142952Y0049505D01*
X0143317Y0049294D01*
X0143724Y0049185D01*
X0145716Y0049185D01*
X0145716Y0052369D01*
X0145716Y0051342D02*
X0146484Y0051342D01*
X0146484Y0050143D02*
X0145716Y0050143D01*
X0142458Y0050143D02*
X0129165Y0050143D01*
X0129165Y0051342D02*
X0142335Y0051342D01*
X0148950Y0048945D02*
X0128405Y0048945D01*
X0128100Y0047746D02*
X0148950Y0047746D01*
X0148950Y0046548D02*
X0127876Y0046548D01*
X0126100Y0047600D02*
X0124100Y0045600D01*
X0127075Y0045349D02*
X0148950Y0045349D01*
X0148950Y0044151D02*
X0132367Y0044151D01*
X0132315Y0044172D02*
X0130286Y0044172D01*
X0128412Y0043396D01*
X0126977Y0041961D01*
X0126201Y0040087D01*
X0126201Y0038058D01*
X0126977Y0036184D01*
X0128412Y0034749D01*
X0130286Y0033972D01*
X0132315Y0033972D01*
X0134190Y0034749D01*
X0135624Y0036184D01*
X0136401Y0038058D01*
X0136401Y0040087D01*
X0135624Y0041961D01*
X0134190Y0043396D01*
X0132315Y0044172D01*
X0134633Y0042952D02*
X0148950Y0042952D01*
X0148950Y0041754D02*
X0135710Y0041754D01*
X0136207Y0040555D02*
X0148950Y0040555D01*
X0148950Y0039357D02*
X0136401Y0039357D01*
X0136401Y0038158D02*
X0148950Y0038158D01*
X0148950Y0036960D02*
X0135946Y0036960D01*
X0135202Y0035761D02*
X0148950Y0035761D01*
X0148950Y0034563D02*
X0133740Y0034563D01*
X0131805Y0032166D02*
X0148950Y0032166D01*
X0148950Y0033364D02*
X0124100Y0033364D01*
X0124100Y0034563D02*
X0128861Y0034563D01*
X0127399Y0035761D02*
X0125099Y0035761D01*
X0125102Y0036960D02*
X0126656Y0036960D01*
X0126201Y0038158D02*
X0125102Y0038158D01*
X0125102Y0039357D02*
X0126201Y0039357D01*
X0126395Y0040555D02*
X0125102Y0040555D01*
X0125102Y0041754D02*
X0126891Y0041754D01*
X0127968Y0042952D02*
X0125482Y0042952D01*
X0126720Y0044151D02*
X0130234Y0044151D01*
X0126100Y0047600D02*
X0126100Y0051600D01*
X0125600Y0052254D01*
X0122035Y0052540D02*
X0119956Y0052540D01*
X0119956Y0052146D02*
X0119956Y0054039D01*
X0119847Y0054446D01*
X0119636Y0054811D01*
X0119338Y0055109D01*
X0118973Y0055319D01*
X0118567Y0055428D01*
X0116083Y0055428D01*
X0116083Y0052146D01*
X0115117Y0052146D01*
X0115117Y0055428D01*
X0112633Y0055428D01*
X0112227Y0055319D01*
X0111862Y0055109D01*
X0111564Y0054811D01*
X0111353Y0054446D01*
X0111244Y0054039D01*
X0111244Y0052146D01*
X0115117Y0052146D01*
X0115117Y0051180D01*
X0116083Y0051180D01*
X0116083Y0052146D01*
X0119956Y0052146D01*
X0119956Y0051180D02*
X0119956Y0049287D01*
X0119847Y0048880D01*
X0119636Y0048515D01*
X0119338Y0048217D01*
X0118973Y0048007D01*
X0118567Y0047898D01*
X0116083Y0047898D01*
X0116083Y0051180D01*
X0119956Y0051180D01*
X0119956Y0050143D02*
X0122035Y0050143D01*
X0122035Y0049705D02*
X0122855Y0048885D01*
X0124100Y0048885D01*
X0124100Y0048575D01*
X0123508Y0048575D01*
X0122415Y0048122D01*
X0121578Y0047285D01*
X0121480Y0047049D01*
X0120928Y0047600D01*
X0110928Y0047600D01*
X0105100Y0053428D01*
X0103928Y0054600D01*
X0101567Y0054600D01*
X0101567Y0054861D01*
X0100828Y0055600D01*
X0101928Y0055600D01*
X0102953Y0056625D01*
X0103692Y0056625D01*
X0104785Y0057078D01*
X0105622Y0057915D01*
X0106013Y0058859D01*
X0106100Y0058772D01*
X0107272Y0057600D01*
X0111444Y0057600D01*
X0111444Y0056792D01*
X0112264Y0055972D01*
X0118936Y0055972D01*
X0119756Y0056792D01*
X0119756Y0057600D01*
X0120272Y0057600D01*
X0121272Y0056600D01*
X0122035Y0056600D01*
X0122035Y0056398D01*
X0122833Y0055600D01*
X0122035Y0054802D01*
X0122035Y0049705D01*
X0122795Y0048945D02*
X0119864Y0048945D01*
X0122039Y0047746D02*
X0110782Y0047746D01*
X0111564Y0048515D02*
X0111862Y0048217D01*
X0112227Y0048007D01*
X0112633Y0047898D01*
X0115117Y0047898D01*
X0115117Y0051180D01*
X0111244Y0051180D01*
X0111244Y0049287D01*
X0111353Y0048880D01*
X0111564Y0048515D01*
X0111336Y0048945D02*
X0109583Y0048945D01*
X0108385Y0050143D02*
X0111244Y0050143D01*
X0115117Y0050143D02*
X0116083Y0050143D01*
X0116083Y0048945D02*
X0115117Y0048945D01*
X0115117Y0051342D02*
X0107186Y0051342D01*
X0105988Y0052540D02*
X0111244Y0052540D01*
X0111244Y0053739D02*
X0104789Y0053739D01*
X0103100Y0052600D02*
X0097100Y0052600D01*
X0095836Y0053100D01*
X0096100Y0052600D01*
X0091100Y0052600D01*
X0088100Y0055600D01*
X0088100Y0057600D01*
X0082100Y0063600D01*
X0075100Y0063600D01*
X0074100Y0062600D01*
X0072100Y0065600D02*
X0068100Y0061600D01*
X0068100Y0049600D01*
X0069100Y0048600D01*
X0075100Y0048600D01*
X0075364Y0048100D01*
X0081094Y0047746D02*
X0082100Y0047746D01*
X0082100Y0046548D02*
X0081094Y0046548D01*
X0080889Y0045349D02*
X0082100Y0045349D01*
X0082100Y0044151D02*
X0081294Y0044151D01*
X0081294Y0042952D02*
X0082100Y0042952D01*
X0082100Y0041754D02*
X0081294Y0041754D01*
X0081227Y0040555D02*
X0080533Y0040555D01*
X0078100Y0039600D02*
X0080100Y0037600D01*
X0081100Y0037600D01*
X0084100Y0040600D01*
X0084100Y0050600D01*
X0083100Y0051600D01*
X0082100Y0052600D01*
X0076100Y0052600D01*
X0075364Y0053100D01*
X0076100Y0057600D02*
X0075364Y0058100D01*
X0076100Y0057600D02*
X0082100Y0057600D01*
X0084100Y0055600D01*
X0085100Y0055600D01*
X0084100Y0055600D02*
X0086100Y0053600D01*
X0086100Y0031600D01*
X0086254Y0031600D01*
X0082885Y0031643D02*
X0081928Y0032600D01*
X0080272Y0032600D01*
X0077272Y0029600D01*
X0065307Y0029600D01*
X0064963Y0029944D01*
X0068408Y0029944D01*
X0069228Y0030764D01*
X0069228Y0037436D01*
X0068408Y0038256D01*
X0068273Y0038256D01*
X0067928Y0038600D01*
X0069272Y0038600D01*
X0070070Y0037801D01*
X0069881Y0037473D01*
X0069772Y0037067D01*
X0069772Y0034583D01*
X0073054Y0034583D01*
X0073054Y0033617D01*
X0074020Y0033617D01*
X0074020Y0034583D01*
X0077302Y0034583D01*
X0077302Y0036600D01*
X0077928Y0036600D01*
X0078100Y0036772D01*
X0078100Y0036772D01*
X0079272Y0035600D01*
X0081928Y0035600D01*
X0084100Y0037772D01*
X0084100Y0035165D01*
X0083705Y0035165D01*
X0082885Y0034345D01*
X0082885Y0031643D01*
X0082885Y0032166D02*
X0082363Y0032166D01*
X0082885Y0033364D02*
X0077302Y0033364D01*
X0077302Y0033617D02*
X0074020Y0033617D01*
X0074020Y0029744D01*
X0075913Y0029744D01*
X0076320Y0029853D01*
X0076685Y0030064D01*
X0076983Y0030362D01*
X0077193Y0030727D01*
X0077302Y0031133D01*
X0077302Y0033617D01*
X0077302Y0032166D02*
X0079837Y0032166D01*
X0078639Y0030967D02*
X0077258Y0030967D01*
X0077440Y0029769D02*
X0076005Y0029769D01*
X0074020Y0029769D02*
X0073054Y0029769D01*
X0073054Y0029744D02*
X0073054Y0033617D01*
X0069772Y0033617D01*
X0069772Y0031133D01*
X0069881Y0030727D01*
X0070091Y0030362D01*
X0070389Y0030064D01*
X0070754Y0029853D01*
X0071161Y0029744D01*
X0073054Y0029744D01*
X0073054Y0030967D02*
X0074020Y0030967D01*
X0074020Y0032166D02*
X0073054Y0032166D01*
X0073054Y0033364D02*
X0074020Y0033364D01*
X0074020Y0034563D02*
X0083103Y0034563D01*
X0084100Y0035761D02*
X0082090Y0035761D01*
X0083288Y0036960D02*
X0084100Y0036960D01*
X0079110Y0035761D02*
X0077302Y0035761D01*
X0077100Y0038600D02*
X0078100Y0039600D01*
X0077100Y0038600D02*
X0076100Y0039600D01*
X0071100Y0039600D01*
X0070100Y0040600D01*
X0068100Y0040600D01*
X0064100Y0044600D01*
X0056100Y0044600D01*
X0051100Y0049600D01*
X0041100Y0049600D01*
X0040600Y0049340D01*
X0044891Y0052540D02*
X0052331Y0052540D01*
X0051133Y0053739D02*
X0028789Y0053739D01*
X0026728Y0050143D02*
X0025080Y0050143D01*
X0027927Y0048945D02*
X0014043Y0048945D01*
X0014300Y0050143D02*
X0020120Y0050143D01*
X0019822Y0051342D02*
X0014300Y0051342D01*
X0013925Y0052540D02*
X0019822Y0052540D01*
X0019822Y0053739D02*
X0013315Y0053739D01*
X0012116Y0054937D02*
X0019822Y0054937D01*
X0019822Y0056136D02*
X0011911Y0056136D01*
X0013188Y0057334D02*
X0037135Y0057334D01*
X0036728Y0058533D02*
X0013872Y0058533D01*
X0014300Y0059732D02*
X0036759Y0059732D01*
X0037276Y0060930D02*
X0014300Y0060930D01*
X0014095Y0062129D02*
X0038877Y0062129D01*
X0041323Y0062129D02*
X0044743Y0062129D01*
X0045942Y0060930D02*
X0042924Y0060930D01*
X0042496Y0063327D02*
X0034704Y0063327D01*
X0036538Y0064526D02*
X0040662Y0064526D01*
X0048003Y0064526D02*
X0053728Y0064526D01*
X0053728Y0063886D02*
X0057814Y0063886D01*
X0057814Y0067972D01*
X0055118Y0067972D01*
X0054711Y0067863D01*
X0054346Y0067652D01*
X0054048Y0067354D01*
X0053837Y0066989D01*
X0053728Y0066582D01*
X0053728Y0063886D01*
X0053728Y0063314D02*
X0053728Y0060618D01*
X0053837Y0060211D01*
X0054048Y0059846D01*
X0054346Y0059548D01*
X0054711Y0059337D01*
X0055118Y0059228D01*
X0057814Y0059228D01*
X0057814Y0063314D01*
X0053728Y0063314D01*
X0053728Y0062129D02*
X0050100Y0062129D01*
X0050100Y0060930D02*
X0053728Y0060930D01*
X0054162Y0059732D02*
X0050797Y0059732D01*
X0051995Y0058533D02*
X0066100Y0058533D01*
X0066100Y0057334D02*
X0061889Y0057334D01*
X0062272Y0056136D02*
X0066100Y0056136D01*
X0066100Y0054937D02*
X0062272Y0054937D01*
X0062272Y0053739D02*
X0066100Y0053739D01*
X0066100Y0052540D02*
X0062272Y0052540D01*
X0062272Y0051342D02*
X0066100Y0051342D01*
X0066100Y0050143D02*
X0062167Y0050143D01*
X0066100Y0048945D02*
X0054583Y0048945D01*
X0054033Y0050143D02*
X0053385Y0050143D01*
X0053928Y0051342D02*
X0052186Y0051342D01*
X0054100Y0053600D02*
X0048100Y0059600D01*
X0053194Y0057334D02*
X0054311Y0057334D01*
X0057814Y0059732D02*
X0058386Y0059732D01*
X0058386Y0059228D02*
X0061082Y0059228D01*
X0061489Y0059337D01*
X0061854Y0059548D01*
X0062152Y0059846D01*
X0062363Y0060211D01*
X0062472Y0060618D01*
X0062472Y0063314D01*
X0058386Y0063314D01*
X0058386Y0063886D01*
X0057814Y0063886D01*
X0057814Y0063314D01*
X0058386Y0063314D01*
X0058386Y0059228D01*
X0058386Y0060930D02*
X0057814Y0060930D01*
X0057814Y0062129D02*
X0058386Y0062129D01*
X0058386Y0063327D02*
X0066999Y0063327D01*
X0068197Y0064526D02*
X0062472Y0064526D01*
X0062472Y0063886D02*
X0062472Y0066582D01*
X0062363Y0066989D01*
X0062152Y0067354D01*
X0061854Y0067652D01*
X0061489Y0067863D01*
X0061082Y0067972D01*
X0058386Y0067972D01*
X0058386Y0063886D01*
X0062472Y0063886D01*
X0062472Y0062129D02*
X0066100Y0062129D01*
X0066100Y0060930D02*
X0062472Y0060930D01*
X0062038Y0059732D02*
X0066100Y0059732D01*
X0057814Y0063327D02*
X0049201Y0063327D01*
X0048836Y0065724D02*
X0053728Y0065724D01*
X0053820Y0066923D02*
X0049332Y0066923D01*
X0049400Y0068121D02*
X0096385Y0068121D01*
X0099754Y0065600D02*
X0072100Y0065600D01*
X0070594Y0066923D02*
X0062380Y0066923D01*
X0062472Y0065724D02*
X0069396Y0065724D01*
X0058386Y0065724D02*
X0057814Y0065724D01*
X0057814Y0066923D02*
X0058386Y0066923D01*
X0058386Y0064526D02*
X0057814Y0064526D01*
X0058100Y0053600D02*
X0054100Y0053600D01*
X0055782Y0047746D02*
X0067125Y0047746D01*
X0064981Y0046548D02*
X0069633Y0046548D01*
X0069839Y0045349D02*
X0066179Y0045349D01*
X0067378Y0044151D02*
X0069433Y0044151D01*
X0069433Y0042952D02*
X0068576Y0042952D01*
X0063100Y0040600D02*
X0067100Y0036600D01*
X0067100Y0035600D01*
X0066100Y0034600D01*
X0065663Y0034100D01*
X0069228Y0034563D02*
X0073054Y0034563D01*
X0069772Y0035761D02*
X0069228Y0035761D01*
X0069228Y0036960D02*
X0069772Y0036960D01*
X0069713Y0038158D02*
X0068506Y0038158D01*
X0067928Y0038600D02*
X0067928Y0038600D01*
X0063100Y0040600D02*
X0062100Y0040600D01*
X0060100Y0038600D01*
X0056100Y0038600D01*
X0055600Y0038446D01*
X0055100Y0038600D01*
X0051100Y0038600D01*
X0050100Y0039600D01*
X0046100Y0039600D01*
X0043100Y0037600D02*
X0037100Y0037600D01*
X0036100Y0036600D01*
X0034100Y0036600D01*
X0026100Y0044600D01*
X0019100Y0044600D01*
X0017100Y0042600D01*
X0017100Y0034600D01*
X0023100Y0028600D01*
X0023100Y0025600D01*
X0023257Y0025100D01*
X0029776Y0024975D02*
X0030100Y0024975D01*
X0030100Y0023776D02*
X0029776Y0023776D01*
X0029776Y0022578D02*
X0030100Y0022578D01*
X0032100Y0021600D02*
X0028100Y0017600D01*
X0027100Y0017600D01*
X0021100Y0011600D01*
X0021600Y0011100D01*
X0026121Y0012990D02*
X0026852Y0012990D01*
X0026546Y0011791D02*
X0026500Y0011791D01*
X0026500Y0010593D02*
X0026517Y0010593D01*
X0026792Y0009394D02*
X0026197Y0009394D01*
X0025625Y0008196D02*
X0027406Y0008196D01*
X0028571Y0006997D02*
X0024427Y0006997D01*
X0031886Y0011386D02*
X0031886Y0016200D01*
X0032001Y0016200D01*
X0032794Y0016074D01*
X0033558Y0015826D01*
X0034273Y0015462D01*
X0034922Y0014990D01*
X0035490Y0014422D01*
X0035962Y0013773D01*
X0036326Y0013058D01*
X0036574Y0012294D01*
X0036700Y0011501D01*
X0036700Y0011386D01*
X0031886Y0011386D01*
X0031886Y0011791D02*
X0031314Y0011791D01*
X0031314Y0012990D02*
X0031886Y0012990D01*
X0031886Y0014188D02*
X0031314Y0014188D01*
X0031314Y0015387D02*
X0031886Y0015387D01*
X0034377Y0015387D02*
X0036907Y0015387D01*
X0036700Y0014188D02*
X0035660Y0014188D01*
X0036348Y0012990D02*
X0036700Y0012990D01*
X0036654Y0011791D02*
X0036700Y0011791D01*
X0036683Y0010593D02*
X0036700Y0010593D01*
X0036700Y0009394D02*
X0036408Y0009394D01*
X0036700Y0008196D02*
X0035794Y0008196D01*
X0036723Y0006997D02*
X0034629Y0006997D01*
X0041600Y0011100D02*
X0042100Y0010600D01*
X0045100Y0010600D01*
X0050100Y0006600D01*
X0062100Y0006600D01*
X0065100Y0012600D01*
X0069100Y0012600D01*
X0069100Y0012360D01*
X0073453Y0011791D02*
X0078600Y0011791D01*
X0077882Y0012990D02*
X0073453Y0012990D01*
X0073453Y0014188D02*
X0076683Y0014188D01*
X0075485Y0015387D02*
X0073453Y0015387D01*
X0073337Y0016585D02*
X0074286Y0016585D01*
X0077546Y0018982D02*
X0078400Y0018982D01*
X0078400Y0018860D02*
X0080860Y0016400D01*
X0082400Y0016400D01*
X0082400Y0020400D01*
X0078400Y0020400D01*
X0078400Y0018860D01*
X0078745Y0017784D02*
X0079477Y0017784D01*
X0082400Y0017784D02*
X0082800Y0017784D01*
X0082800Y0018982D02*
X0082400Y0018982D01*
X0082400Y0020181D02*
X0082800Y0020181D01*
X0082800Y0020400D02*
X0082400Y0020400D01*
X0082400Y0020800D01*
X0082400Y0024800D01*
X0080860Y0024800D01*
X0078400Y0022340D01*
X0078400Y0020800D01*
X0082400Y0020800D01*
X0082800Y0020800D01*
X0082800Y0024800D01*
X0084340Y0024800D01*
X0086800Y0022340D01*
X0086800Y0020800D01*
X0082800Y0020800D01*
X0082800Y0020400D01*
X0086800Y0020400D01*
X0086800Y0018860D01*
X0084340Y0016400D01*
X0082800Y0016400D01*
X0082800Y0020400D01*
X0082800Y0021379D02*
X0082400Y0021379D01*
X0082400Y0022578D02*
X0082800Y0022578D01*
X0082800Y0023776D02*
X0082400Y0023776D01*
X0079836Y0023776D02*
X0072656Y0023776D01*
X0073453Y0022578D02*
X0078638Y0022578D01*
X0078400Y0021379D02*
X0075149Y0021379D01*
X0076348Y0020181D02*
X0078400Y0020181D01*
X0074100Y0019600D02*
X0083100Y0010600D01*
X0082600Y0010600D01*
X0078600Y0010593D02*
X0073453Y0010593D01*
X0073453Y0009394D02*
X0078600Y0009394D01*
X0079348Y0008196D02*
X0065134Y0008196D01*
X0064535Y0006997D02*
X0080546Y0006997D01*
X0084654Y0006997D02*
X0134180Y0006997D01*
X0133428Y0008196D02*
X0085852Y0008196D01*
X0086600Y0009394D02*
X0133428Y0009394D01*
X0133428Y0010593D02*
X0086600Y0010593D01*
X0086600Y0011791D02*
X0133428Y0011791D01*
X0133428Y0012990D02*
X0085867Y0012990D01*
X0084669Y0014188D02*
X0133428Y0014188D01*
X0141020Y0006997D02*
X0142180Y0006997D01*
X0148950Y0015387D02*
X0081142Y0015387D01*
X0080675Y0016585D02*
X0079943Y0016585D01*
X0082400Y0016585D02*
X0082800Y0016585D01*
X0084525Y0016585D02*
X0148950Y0016585D01*
X0148950Y0017784D02*
X0114112Y0017784D01*
X0115311Y0018982D02*
X0148950Y0018982D01*
X0148950Y0020181D02*
X0116509Y0020181D01*
X0117100Y0021379D02*
X0119735Y0021379D01*
X0118924Y0022578D02*
X0117100Y0022578D01*
X0115100Y0021600D02*
X0112100Y0018600D01*
X0094100Y0018600D01*
X0085100Y0027600D01*
X0084100Y0027600D01*
X0081100Y0030600D01*
X0078100Y0027600D01*
X0063100Y0027600D01*
X0065139Y0029769D02*
X0071069Y0029769D01*
X0069816Y0030967D02*
X0069228Y0030967D01*
X0069228Y0032166D02*
X0069772Y0032166D01*
X0069772Y0033364D02*
X0069228Y0033364D01*
X0080700Y0027372D02*
X0081500Y0027372D01*
X0082698Y0026173D02*
X0079502Y0026173D01*
X0084897Y0024975D02*
X0064536Y0024975D01*
X0065544Y0023776D02*
X0062272Y0023776D01*
X0062272Y0022578D02*
X0064747Y0022578D01*
X0064747Y0021379D02*
X0062272Y0021379D01*
X0062272Y0020181D02*
X0064747Y0020181D01*
X0064747Y0018982D02*
X0062272Y0018982D01*
X0062272Y0017784D02*
X0064747Y0017784D01*
X0064863Y0016585D02*
X0029914Y0016585D01*
X0028823Y0015387D02*
X0027715Y0015387D01*
X0027540Y0014188D02*
X0026516Y0014188D01*
X0031112Y0017784D02*
X0053928Y0017784D01*
X0053928Y0018982D02*
X0032311Y0018982D01*
X0033509Y0020181D02*
X0036326Y0020181D01*
X0036333Y0020152D02*
X0036544Y0019787D01*
X0036842Y0019489D01*
X0037207Y0019278D01*
X0037614Y0019169D01*
X0042343Y0019169D01*
X0042343Y0024500D01*
X0043542Y0024500D01*
X0043542Y0019169D01*
X0048271Y0019169D01*
X0048678Y0019278D01*
X0049043Y0019489D01*
X0049341Y0019787D01*
X0049552Y0020152D01*
X0049661Y0020559D01*
X0049661Y0024500D01*
X0043543Y0024500D01*
X0043543Y0025700D01*
X0049661Y0025700D01*
X0049661Y0029641D01*
X0049552Y0030048D01*
X0049341Y0030413D01*
X0049043Y0030711D01*
X0048678Y0030922D01*
X0048271Y0031031D01*
X0043542Y0031031D01*
X0043542Y0025700D01*
X0042343Y0025700D01*
X0042343Y0029688D01*
X0042958Y0030304D01*
X0043472Y0031544D01*
X0043472Y0032885D01*
X0042958Y0034124D01*
X0042010Y0035073D01*
X0040771Y0035586D01*
X0039429Y0035586D01*
X0038190Y0035073D01*
X0037242Y0034124D01*
X0036728Y0032885D01*
X0036728Y0031544D01*
X0037029Y0030819D01*
X0036842Y0030711D01*
X0036544Y0030413D01*
X0036333Y0030048D01*
X0036224Y0029641D01*
X0036224Y0025700D01*
X0042342Y0025700D01*
X0042342Y0024500D01*
X0036224Y0024500D01*
X0036224Y0020559D01*
X0036333Y0020152D01*
X0036224Y0021379D02*
X0034100Y0021379D01*
X0034100Y0022578D02*
X0036224Y0022578D01*
X0036224Y0023776D02*
X0034100Y0023776D01*
X0034100Y0024975D02*
X0042342Y0024975D01*
X0042343Y0023776D02*
X0043542Y0023776D01*
X0043543Y0024975D02*
X0050553Y0024975D01*
X0049661Y0023776D02*
X0052143Y0023776D01*
X0053928Y0022578D02*
X0049661Y0022578D01*
X0049661Y0021379D02*
X0053928Y0021379D01*
X0053928Y0020181D02*
X0049559Y0020181D01*
X0043542Y0020181D02*
X0042343Y0020181D01*
X0042343Y0021379D02*
X0043542Y0021379D01*
X0043542Y0022578D02*
X0042343Y0022578D01*
X0042343Y0026173D02*
X0043542Y0026173D01*
X0043542Y0027372D02*
X0042343Y0027372D01*
X0042343Y0028570D02*
X0043542Y0028570D01*
X0043542Y0029769D02*
X0042423Y0029769D01*
X0043233Y0030967D02*
X0043542Y0030967D01*
X0043472Y0032166D02*
X0047706Y0032166D01*
X0046507Y0033364D02*
X0043273Y0033364D01*
X0043309Y0034563D02*
X0042520Y0034563D01*
X0045100Y0035600D02*
X0043100Y0037600D01*
X0045100Y0035600D02*
X0047100Y0035600D01*
X0051100Y0031600D01*
X0055100Y0031600D01*
X0055600Y0031754D01*
X0056100Y0031600D01*
X0056100Y0029600D01*
X0053100Y0026600D01*
X0050863Y0028570D02*
X0049661Y0028570D01*
X0049661Y0027372D02*
X0050200Y0027372D01*
X0050125Y0026173D02*
X0049661Y0026173D01*
X0049626Y0029769D02*
X0050103Y0029769D01*
X0048904Y0030967D02*
X0048508Y0030967D01*
X0037680Y0034563D02*
X0032966Y0034563D01*
X0032928Y0034600D02*
X0032928Y0034600D01*
X0032110Y0035761D02*
X0031767Y0035761D01*
X0030912Y0036960D02*
X0030569Y0036960D01*
X0029713Y0038158D02*
X0029370Y0038158D01*
X0028515Y0039357D02*
X0028172Y0039357D01*
X0026100Y0038600D02*
X0032100Y0032600D01*
X0032100Y0021600D01*
X0030100Y0026173D02*
X0029776Y0026173D01*
X0029776Y0027372D02*
X0030100Y0027372D01*
X0030100Y0028570D02*
X0029776Y0028570D01*
X0029776Y0029769D02*
X0030100Y0029769D01*
X0030100Y0030967D02*
X0023561Y0030967D01*
X0022363Y0032166D02*
X0029706Y0032166D01*
X0028507Y0033364D02*
X0021164Y0033364D01*
X0019966Y0034563D02*
X0027309Y0034563D01*
X0026110Y0035761D02*
X0025265Y0035761D01*
X0026100Y0038600D02*
X0023100Y0038600D01*
X0022600Y0038817D01*
X0019822Y0039357D02*
X0019100Y0039357D01*
X0019100Y0038158D02*
X0019822Y0038158D01*
X0019822Y0036960D02*
X0019100Y0036960D01*
X0019100Y0035761D02*
X0019935Y0035761D01*
X0014100Y0035600D02*
X0015100Y0043600D01*
X0018100Y0046600D01*
X0027100Y0046600D01*
X0031100Y0042600D01*
X0040100Y0042600D01*
X0040600Y0041860D01*
X0030324Y0046548D02*
X0029981Y0046548D01*
X0029125Y0047746D02*
X0028782Y0047746D01*
X0026118Y0041754D02*
X0025378Y0041754D01*
X0026973Y0040555D02*
X0027316Y0040555D01*
X0019822Y0040555D02*
X0019100Y0040555D01*
X0019100Y0041754D02*
X0019822Y0041754D01*
X0014021Y0045349D02*
X0011673Y0045349D01*
X0012402Y0046548D02*
X0015219Y0046548D01*
X0016418Y0047746D02*
X0013546Y0047746D01*
X0009484Y0045400D02*
X0009484Y0040984D01*
X0008716Y0040984D01*
X0008716Y0045400D01*
X0009484Y0045400D01*
X0009484Y0045349D02*
X0008716Y0045349D01*
X0008716Y0044151D02*
X0009484Y0044151D01*
X0009484Y0042952D02*
X0008716Y0042952D01*
X0008716Y0041754D02*
X0009484Y0041754D01*
X0034100Y0033364D02*
X0036927Y0033364D01*
X0036728Y0032166D02*
X0034100Y0032166D01*
X0034100Y0030967D02*
X0036967Y0030967D01*
X0036259Y0029769D02*
X0034100Y0029769D01*
X0034100Y0028570D02*
X0036224Y0028570D01*
X0036224Y0027372D02*
X0034100Y0027372D01*
X0034100Y0026173D02*
X0036224Y0026173D01*
X0046293Y0015387D02*
X0064747Y0015387D01*
X0063658Y0014188D02*
X0062272Y0014188D01*
X0062272Y0012990D02*
X0063059Y0012990D01*
X0062459Y0011791D02*
X0062272Y0011791D01*
X0053928Y0011791D02*
X0046813Y0011791D01*
X0046500Y0012990D02*
X0053928Y0012990D01*
X0053928Y0014188D02*
X0046500Y0014188D01*
X0048311Y0010593D02*
X0053928Y0010593D01*
X0053928Y0009394D02*
X0049809Y0009394D01*
X0069100Y0019600D02*
X0069100Y0019840D01*
X0069100Y0019600D02*
X0074100Y0019600D01*
X0085723Y0017784D02*
X0092088Y0017784D01*
X0090889Y0018982D02*
X0086800Y0018982D01*
X0086800Y0020181D02*
X0089691Y0020181D01*
X0088492Y0021379D02*
X0086800Y0021379D01*
X0086562Y0022578D02*
X0087294Y0022578D01*
X0086095Y0023776D02*
X0085363Y0023776D01*
X0089355Y0026173D02*
X0099239Y0026173D01*
X0099239Y0027372D02*
X0088157Y0027372D01*
X0089338Y0028570D02*
X0089862Y0028570D01*
X0090554Y0024975D02*
X0099239Y0024975D01*
X0099239Y0023776D02*
X0091752Y0023776D01*
X0092951Y0022578D02*
X0099239Y0022578D01*
X0100050Y0021379D02*
X0094149Y0021379D01*
X0102100Y0027600D02*
X0098100Y0031600D01*
X0100543Y0033364D02*
X0112100Y0033364D01*
X0112120Y0032166D02*
X0112706Y0032166D01*
X0114100Y0033600D02*
X0115100Y0032600D01*
X0115100Y0021600D01*
X0113100Y0022578D02*
X0112276Y0022578D01*
X0112051Y0021379D02*
X0111465Y0021379D01*
X0112276Y0023776D02*
X0113100Y0023776D01*
X0113100Y0024975D02*
X0112276Y0024975D01*
X0112276Y0026173D02*
X0113100Y0026173D01*
X0113100Y0027372D02*
X0112276Y0027372D01*
X0112276Y0028570D02*
X0113100Y0028570D01*
X0113100Y0029769D02*
X0112276Y0029769D01*
X0112276Y0030967D02*
X0113100Y0030967D01*
X0117100Y0030967D02*
X0118924Y0030967D01*
X0118924Y0029769D02*
X0117100Y0029769D01*
X0117100Y0028570D02*
X0118924Y0028570D01*
X0118924Y0027372D02*
X0117100Y0027372D01*
X0117100Y0026173D02*
X0118924Y0026173D01*
X0118924Y0024975D02*
X0117100Y0024975D01*
X0117100Y0023776D02*
X0118924Y0023776D01*
X0125100Y0027600D02*
X0125443Y0027100D01*
X0125100Y0027600D02*
X0122100Y0030600D01*
X0122100Y0038600D01*
X0121537Y0039100D01*
X0121100Y0039600D01*
X0121100Y0044600D01*
X0120100Y0045600D01*
X0110100Y0045600D01*
X0103100Y0052600D01*
X0102728Y0050143D02*
X0101284Y0050143D01*
X0101567Y0048945D02*
X0103927Y0048945D01*
X0105125Y0047746D02*
X0101567Y0047746D01*
X0101567Y0046548D02*
X0106324Y0046548D01*
X0107522Y0045349D02*
X0101079Y0045349D01*
X0101567Y0044151D02*
X0102675Y0044151D01*
X0104808Y0044151D02*
X0108721Y0044151D01*
X0107074Y0042952D02*
X0110614Y0042952D01*
X0110098Y0041754D02*
X0108151Y0041754D01*
X0108648Y0040555D02*
X0110098Y0040555D01*
X0110098Y0039357D02*
X0108842Y0039357D01*
X0108842Y0038158D02*
X0110098Y0038158D01*
X0110098Y0036960D02*
X0108387Y0036960D01*
X0107643Y0035761D02*
X0110101Y0035761D01*
X0112100Y0034563D02*
X0106181Y0034563D01*
X0101302Y0034563D02*
X0098721Y0034563D01*
X0097479Y0034563D02*
X0096097Y0034563D01*
X0095179Y0035761D02*
X0095100Y0035761D01*
X0093100Y0035600D02*
X0088100Y0040600D01*
X0088100Y0045600D01*
X0089100Y0046600D01*
X0090100Y0047600D01*
X0096100Y0047600D01*
X0095836Y0048100D01*
X0095836Y0043100D02*
X0096100Y0042600D01*
X0096100Y0038600D01*
X0098641Y0036960D02*
X0099097Y0036960D01*
X0099840Y0035761D02*
X0097021Y0035761D01*
X0093100Y0035600D02*
X0093100Y0031600D01*
X0092946Y0031600D01*
X0096030Y0028570D02*
X0098301Y0028570D01*
X0102100Y0027600D02*
X0105100Y0027600D01*
X0105757Y0027100D01*
X0114100Y0033600D02*
X0114100Y0038600D01*
X0113663Y0039100D01*
X0117228Y0039357D02*
X0117972Y0039357D01*
X0117972Y0038158D02*
X0117228Y0038158D01*
X0117228Y0036960D02*
X0117972Y0036960D01*
X0117975Y0035761D02*
X0117225Y0035761D01*
X0116100Y0034563D02*
X0120100Y0034563D01*
X0120100Y0033364D02*
X0117100Y0033364D01*
X0117100Y0032166D02*
X0119080Y0032166D01*
X0131961Y0030967D02*
X0148950Y0030967D01*
X0148950Y0029769D02*
X0131961Y0029769D01*
X0131961Y0028570D02*
X0148950Y0028570D01*
X0148950Y0027372D02*
X0131961Y0027372D01*
X0131961Y0026173D02*
X0148950Y0026173D01*
X0148950Y0024975D02*
X0131961Y0024975D01*
X0131961Y0023776D02*
X0148950Y0023776D01*
X0148950Y0022578D02*
X0131961Y0022578D01*
X0131150Y0021379D02*
X0148950Y0021379D01*
X0117972Y0040555D02*
X0117228Y0040555D01*
X0117228Y0041754D02*
X0117972Y0041754D01*
X0118488Y0042952D02*
X0116712Y0042952D01*
X0116083Y0051342D02*
X0122035Y0051342D01*
X0122035Y0053739D02*
X0119956Y0053739D01*
X0119509Y0054937D02*
X0122170Y0054937D01*
X0122297Y0056136D02*
X0119100Y0056136D01*
X0116083Y0054937D02*
X0115117Y0054937D01*
X0115117Y0053739D02*
X0116083Y0053739D01*
X0116083Y0052540D02*
X0115117Y0052540D01*
X0111690Y0054937D02*
X0101490Y0054937D01*
X0100828Y0055600D02*
X0100828Y0055600D01*
X0102464Y0056136D02*
X0112100Y0056136D01*
X0111444Y0057334D02*
X0105042Y0057334D01*
X0105878Y0058533D02*
X0106339Y0058533D01*
X0103100Y0059600D02*
X0101100Y0057600D01*
X0097100Y0057600D01*
X0095836Y0058100D01*
X0081736Y0048945D02*
X0081094Y0048945D01*
X0075364Y0043100D02*
X0075364Y0043100D01*
X0119756Y0057334D02*
X0120537Y0057334D01*
X0138094Y0063327D02*
X0148950Y0063327D01*
X0148950Y0064526D02*
X0138665Y0064526D01*
X0138665Y0065724D02*
X0148950Y0065724D01*
X0148950Y0066923D02*
X0138665Y0066923D01*
X0138665Y0068121D02*
X0148950Y0068121D01*
X0148950Y0069320D02*
X0138341Y0069320D01*
X0138665Y0062129D02*
X0142668Y0062129D01*
X0031096Y0063327D02*
X0013599Y0063327D01*
X0012528Y0064526D02*
X0029262Y0064526D01*
X0028364Y0065724D02*
X0010318Y0065724D01*
X0007882Y0065724D02*
X0004250Y0065724D01*
X0004250Y0066923D02*
X0027867Y0066923D01*
X0027800Y0068121D02*
X0004250Y0068121D01*
X0004250Y0069320D02*
X0027885Y0069320D01*
X0028381Y0070518D02*
X0004250Y0070518D01*
X0004250Y0071717D02*
X0029304Y0071717D01*
X0005672Y0064526D02*
X0004250Y0064526D01*
X0004250Y0063327D02*
X0004601Y0063327D01*
D27*
X0016100Y0059100D02*
X0017100Y0060100D01*
X0028100Y0060100D01*
X0029100Y0059100D01*
X0029100Y0056100D01*
X0031600Y0053600D01*
X0050294Y0053600D01*
X0054666Y0049228D01*
X0064567Y0049228D01*
X0065400Y0048396D01*
X0068100Y0045696D01*
X0069100Y0044100D01*
X0070100Y0043100D01*
X0075364Y0043100D01*
X0065400Y0048396D02*
X0065400Y0055300D01*
X0058100Y0063600D01*
X0016100Y0059100D02*
X0016100Y0048600D01*
X0009100Y0041600D01*
X0009100Y0040600D01*
X0014100Y0035600D02*
X0009100Y0030600D01*
X0031600Y0013757D02*
X0042943Y0025100D01*
X0046294Y0025100D01*
X0054666Y0016728D01*
X0061534Y0016728D01*
X0062472Y0017666D01*
X0062472Y0022482D01*
X0065090Y0025100D01*
X0078100Y0025100D01*
X0082600Y0020600D01*
X0080600Y0034100D02*
X0073537Y0034100D01*
X0080600Y0034100D02*
X0081100Y0034600D01*
X0108600Y0054600D02*
X0111537Y0051663D01*
X0115600Y0051663D01*
X0031600Y0013757D02*
X0031600Y0011100D01*
D28*
X0081100Y0034600D03*
D29*
X0108600Y0054600D03*
D30*
X0103100Y0059600D03*
X0112100Y0066600D03*
X0085100Y0055600D03*
X0083100Y0051600D03*
X0089100Y0046600D03*
X0096100Y0038600D03*
X0098100Y0031600D03*
X0124100Y0045600D03*
X0074100Y0062600D03*
X0034100Y0045600D03*
X0046100Y0039600D03*
X0063100Y0027600D03*
X0053100Y0026600D03*
M02*
