G75*
%MOIN*%
%OFA0B0*%
%FSLAX25Y25*%
%IPPOS*%
%LPD*%
%AMOC8*
5,1,8,0,0,1.08239X$1,22.5*
%
%ADD10R,0.03937X0.04331*%
%ADD11R,0.05118X0.05906*%
%ADD12R,0.08661X0.05512*%
%ADD13R,0.08661X0.02362*%
%ADD14R,0.04331X0.05512*%
%ADD15R,0.06299X0.08661*%
%ADD16R,0.05787X0.05000*%
%ADD17R,0.01575X0.03937*%
%ADD18R,0.03075X0.05709*%
%ADD19R,0.03000X0.05709*%
%ADD20R,0.07087X0.05906*%
%ADD21R,0.05906X0.02756*%
%ADD22R,0.02165X0.04724*%
%ADD23R,0.16535X0.05512*%
%ADD24R,0.04331X0.03937*%
%ADD25R,0.06299X0.07087*%
%ADD26R,0.02717X0.04724*%
%ADD27R,0.02165X0.03150*%
D10*
X0108841Y0024402D03*
X0115534Y0024402D03*
X0246983Y0059374D03*
X0253676Y0059374D03*
X0309766Y0057945D03*
X0316459Y0057945D03*
X0326443Y0057717D03*
X0333136Y0057717D03*
X0378617Y0049299D03*
X0385309Y0049299D03*
X0392963Y0049173D03*
X0399656Y0049173D03*
X0343723Y0045681D03*
X0337030Y0045681D03*
X0391109Y0067602D03*
X0397802Y0067602D03*
X0397928Y0083563D03*
X0391235Y0083563D03*
X0218061Y0081776D03*
X0211369Y0081776D03*
X0201786Y0081665D03*
X0195093Y0081665D03*
X0108290Y0065720D03*
X0101597Y0065720D03*
X0087079Y0084805D03*
X0080386Y0084805D03*
X0070534Y0084992D03*
X0063841Y0084992D03*
X0337424Y0020484D03*
X0344117Y0020484D03*
X0368920Y0020878D03*
X0375613Y0020878D03*
D11*
X0099731Y0040949D03*
X0093038Y0040949D03*
D12*
X0051183Y0023240D03*
X0063782Y0023240D03*
X0076321Y0023220D03*
X0088920Y0023220D03*
X0098644Y0083083D03*
X0111243Y0083083D03*
D13*
X0131715Y0040976D03*
X0152187Y0040976D03*
X0152187Y0035976D03*
X0152187Y0030976D03*
X0152187Y0025976D03*
X0131715Y0025976D03*
X0131715Y0030976D03*
X0131715Y0035976D03*
D14*
X0087227Y0065760D03*
X0079353Y0065760D03*
D15*
X0154943Y0052768D03*
X0165967Y0052768D03*
D16*
X0246443Y0071488D03*
X0246443Y0088417D03*
D17*
X0388546Y0036531D03*
X0391105Y0036531D03*
X0393664Y0036531D03*
X0396223Y0036531D03*
X0396223Y0019209D03*
X0393664Y0019209D03*
X0391105Y0019209D03*
X0388546Y0019209D03*
D18*
X0248825Y0032075D03*
D19*
X0261061Y0032075D03*
D20*
X0269447Y0021346D03*
X0240439Y0021346D03*
D21*
X0254943Y0021346D03*
D22*
X0289660Y0062681D03*
X0293400Y0062681D03*
X0297140Y0062681D03*
X0297140Y0072918D03*
X0289660Y0072918D03*
D23*
X0275306Y0055272D03*
X0275306Y0040705D03*
D24*
X0253565Y0044894D03*
X0246872Y0044894D03*
X0313605Y0040681D03*
X0320298Y0040681D03*
X0337384Y0032768D03*
X0344077Y0032768D03*
X0354353Y0036232D03*
X0361046Y0036232D03*
X0370140Y0036272D03*
X0376833Y0036272D03*
X0360101Y0020957D03*
X0353408Y0020957D03*
X0218644Y0068949D03*
X0211951Y0068949D03*
X0263487Y0084185D03*
X0270180Y0084185D03*
X0278369Y0084264D03*
X0285061Y0084264D03*
X0293093Y0084028D03*
X0299786Y0084028D03*
D25*
X0275691Y0068909D03*
X0264668Y0068909D03*
D26*
X0349235Y0062611D03*
X0356715Y0062611D03*
X0356715Y0052374D03*
X0352975Y0052374D03*
X0349235Y0052374D03*
D27*
X0373250Y0077571D03*
X0376991Y0077571D03*
X0380731Y0077571D03*
X0380731Y0087020D03*
X0376991Y0087020D03*
X0373250Y0087020D03*
M02*
