G75*
%MOIN*%
%OFA0B0*%
%FSLAX25Y25*%
%IPPOS*%
%LPD*%
%AMOC8*
5,1,8,0,0,1.08239X$1,22.5*
%
%ADD10C,0.00300*%
%ADD11C,0.00000*%
D10*
X0014786Y0013398D02*
X0014849Y0017335D01*
X0010849Y0017335D01*
X0010849Y0088201D01*
X0014786Y0088201D01*
X0014786Y0092138D01*
X0404550Y0092138D01*
X0404550Y0013398D01*
X0014786Y0013398D01*
D11*
X0021676Y0051193D02*
X0021678Y0051308D01*
X0021684Y0051424D01*
X0021694Y0051539D01*
X0021708Y0051654D01*
X0021726Y0051768D01*
X0021748Y0051881D01*
X0021773Y0051994D01*
X0021803Y0052105D01*
X0021836Y0052216D01*
X0021873Y0052325D01*
X0021914Y0052433D01*
X0021959Y0052540D01*
X0022007Y0052645D01*
X0022059Y0052748D01*
X0022115Y0052849D01*
X0022174Y0052949D01*
X0022236Y0053046D01*
X0022302Y0053141D01*
X0022370Y0053234D01*
X0022442Y0053324D01*
X0022517Y0053412D01*
X0022596Y0053497D01*
X0022677Y0053579D01*
X0022760Y0053659D01*
X0022847Y0053735D01*
X0022936Y0053809D01*
X0023027Y0053879D01*
X0023121Y0053947D01*
X0023217Y0054011D01*
X0023316Y0054071D01*
X0023416Y0054128D01*
X0023518Y0054182D01*
X0023622Y0054232D01*
X0023728Y0054279D01*
X0023835Y0054322D01*
X0023944Y0054361D01*
X0024054Y0054396D01*
X0024165Y0054427D01*
X0024277Y0054455D01*
X0024390Y0054479D01*
X0024504Y0054499D01*
X0024619Y0054515D01*
X0024734Y0054527D01*
X0024849Y0054535D01*
X0024964Y0054539D01*
X0025080Y0054539D01*
X0025195Y0054535D01*
X0025310Y0054527D01*
X0025425Y0054515D01*
X0025540Y0054499D01*
X0025654Y0054479D01*
X0025767Y0054455D01*
X0025879Y0054427D01*
X0025990Y0054396D01*
X0026100Y0054361D01*
X0026209Y0054322D01*
X0026316Y0054279D01*
X0026422Y0054232D01*
X0026526Y0054182D01*
X0026628Y0054128D01*
X0026728Y0054071D01*
X0026827Y0054011D01*
X0026923Y0053947D01*
X0027017Y0053879D01*
X0027108Y0053809D01*
X0027197Y0053735D01*
X0027284Y0053659D01*
X0027367Y0053579D01*
X0027448Y0053497D01*
X0027527Y0053412D01*
X0027602Y0053324D01*
X0027674Y0053234D01*
X0027742Y0053141D01*
X0027808Y0053046D01*
X0027870Y0052949D01*
X0027929Y0052849D01*
X0027985Y0052748D01*
X0028037Y0052645D01*
X0028085Y0052540D01*
X0028130Y0052433D01*
X0028171Y0052325D01*
X0028208Y0052216D01*
X0028241Y0052105D01*
X0028271Y0051994D01*
X0028296Y0051881D01*
X0028318Y0051768D01*
X0028336Y0051654D01*
X0028350Y0051539D01*
X0028360Y0051424D01*
X0028366Y0051308D01*
X0028368Y0051193D01*
X0028366Y0051078D01*
X0028360Y0050962D01*
X0028350Y0050847D01*
X0028336Y0050732D01*
X0028318Y0050618D01*
X0028296Y0050505D01*
X0028271Y0050392D01*
X0028241Y0050281D01*
X0028208Y0050170D01*
X0028171Y0050061D01*
X0028130Y0049953D01*
X0028085Y0049846D01*
X0028037Y0049741D01*
X0027985Y0049638D01*
X0027929Y0049537D01*
X0027870Y0049437D01*
X0027808Y0049340D01*
X0027742Y0049245D01*
X0027674Y0049152D01*
X0027602Y0049062D01*
X0027527Y0048974D01*
X0027448Y0048889D01*
X0027367Y0048807D01*
X0027284Y0048727D01*
X0027197Y0048651D01*
X0027108Y0048577D01*
X0027017Y0048507D01*
X0026923Y0048439D01*
X0026827Y0048375D01*
X0026728Y0048315D01*
X0026628Y0048258D01*
X0026526Y0048204D01*
X0026422Y0048154D01*
X0026316Y0048107D01*
X0026209Y0048064D01*
X0026100Y0048025D01*
X0025990Y0047990D01*
X0025879Y0047959D01*
X0025767Y0047931D01*
X0025654Y0047907D01*
X0025540Y0047887D01*
X0025425Y0047871D01*
X0025310Y0047859D01*
X0025195Y0047851D01*
X0025080Y0047847D01*
X0024964Y0047847D01*
X0024849Y0047851D01*
X0024734Y0047859D01*
X0024619Y0047871D01*
X0024504Y0047887D01*
X0024390Y0047907D01*
X0024277Y0047931D01*
X0024165Y0047959D01*
X0024054Y0047990D01*
X0023944Y0048025D01*
X0023835Y0048064D01*
X0023728Y0048107D01*
X0023622Y0048154D01*
X0023518Y0048204D01*
X0023416Y0048258D01*
X0023316Y0048315D01*
X0023217Y0048375D01*
X0023121Y0048439D01*
X0023027Y0048507D01*
X0022936Y0048577D01*
X0022847Y0048651D01*
X0022760Y0048727D01*
X0022677Y0048807D01*
X0022596Y0048889D01*
X0022517Y0048974D01*
X0022442Y0049062D01*
X0022370Y0049152D01*
X0022302Y0049245D01*
X0022236Y0049340D01*
X0022174Y0049437D01*
X0022115Y0049537D01*
X0022059Y0049638D01*
X0022007Y0049741D01*
X0021959Y0049846D01*
X0021914Y0049953D01*
X0021873Y0050061D01*
X0021836Y0050170D01*
X0021803Y0050281D01*
X0021773Y0050392D01*
X0021748Y0050505D01*
X0021726Y0050618D01*
X0021708Y0050732D01*
X0021694Y0050847D01*
X0021684Y0050962D01*
X0021678Y0051078D01*
X0021676Y0051193D01*
X0049235Y0051193D02*
X0049237Y0051308D01*
X0049243Y0051424D01*
X0049253Y0051539D01*
X0049267Y0051654D01*
X0049285Y0051768D01*
X0049307Y0051881D01*
X0049332Y0051994D01*
X0049362Y0052105D01*
X0049395Y0052216D01*
X0049432Y0052325D01*
X0049473Y0052433D01*
X0049518Y0052540D01*
X0049566Y0052645D01*
X0049618Y0052748D01*
X0049674Y0052849D01*
X0049733Y0052949D01*
X0049795Y0053046D01*
X0049861Y0053141D01*
X0049929Y0053234D01*
X0050001Y0053324D01*
X0050076Y0053412D01*
X0050155Y0053497D01*
X0050236Y0053579D01*
X0050319Y0053659D01*
X0050406Y0053735D01*
X0050495Y0053809D01*
X0050586Y0053879D01*
X0050680Y0053947D01*
X0050776Y0054011D01*
X0050875Y0054071D01*
X0050975Y0054128D01*
X0051077Y0054182D01*
X0051181Y0054232D01*
X0051287Y0054279D01*
X0051394Y0054322D01*
X0051503Y0054361D01*
X0051613Y0054396D01*
X0051724Y0054427D01*
X0051836Y0054455D01*
X0051949Y0054479D01*
X0052063Y0054499D01*
X0052178Y0054515D01*
X0052293Y0054527D01*
X0052408Y0054535D01*
X0052523Y0054539D01*
X0052639Y0054539D01*
X0052754Y0054535D01*
X0052869Y0054527D01*
X0052984Y0054515D01*
X0053099Y0054499D01*
X0053213Y0054479D01*
X0053326Y0054455D01*
X0053438Y0054427D01*
X0053549Y0054396D01*
X0053659Y0054361D01*
X0053768Y0054322D01*
X0053875Y0054279D01*
X0053981Y0054232D01*
X0054085Y0054182D01*
X0054187Y0054128D01*
X0054287Y0054071D01*
X0054386Y0054011D01*
X0054482Y0053947D01*
X0054576Y0053879D01*
X0054667Y0053809D01*
X0054756Y0053735D01*
X0054843Y0053659D01*
X0054926Y0053579D01*
X0055007Y0053497D01*
X0055086Y0053412D01*
X0055161Y0053324D01*
X0055233Y0053234D01*
X0055301Y0053141D01*
X0055367Y0053046D01*
X0055429Y0052949D01*
X0055488Y0052849D01*
X0055544Y0052748D01*
X0055596Y0052645D01*
X0055644Y0052540D01*
X0055689Y0052433D01*
X0055730Y0052325D01*
X0055767Y0052216D01*
X0055800Y0052105D01*
X0055830Y0051994D01*
X0055855Y0051881D01*
X0055877Y0051768D01*
X0055895Y0051654D01*
X0055909Y0051539D01*
X0055919Y0051424D01*
X0055925Y0051308D01*
X0055927Y0051193D01*
X0055925Y0051078D01*
X0055919Y0050962D01*
X0055909Y0050847D01*
X0055895Y0050732D01*
X0055877Y0050618D01*
X0055855Y0050505D01*
X0055830Y0050392D01*
X0055800Y0050281D01*
X0055767Y0050170D01*
X0055730Y0050061D01*
X0055689Y0049953D01*
X0055644Y0049846D01*
X0055596Y0049741D01*
X0055544Y0049638D01*
X0055488Y0049537D01*
X0055429Y0049437D01*
X0055367Y0049340D01*
X0055301Y0049245D01*
X0055233Y0049152D01*
X0055161Y0049062D01*
X0055086Y0048974D01*
X0055007Y0048889D01*
X0054926Y0048807D01*
X0054843Y0048727D01*
X0054756Y0048651D01*
X0054667Y0048577D01*
X0054576Y0048507D01*
X0054482Y0048439D01*
X0054386Y0048375D01*
X0054287Y0048315D01*
X0054187Y0048258D01*
X0054085Y0048204D01*
X0053981Y0048154D01*
X0053875Y0048107D01*
X0053768Y0048064D01*
X0053659Y0048025D01*
X0053549Y0047990D01*
X0053438Y0047959D01*
X0053326Y0047931D01*
X0053213Y0047907D01*
X0053099Y0047887D01*
X0052984Y0047871D01*
X0052869Y0047859D01*
X0052754Y0047851D01*
X0052639Y0047847D01*
X0052523Y0047847D01*
X0052408Y0047851D01*
X0052293Y0047859D01*
X0052178Y0047871D01*
X0052063Y0047887D01*
X0051949Y0047907D01*
X0051836Y0047931D01*
X0051724Y0047959D01*
X0051613Y0047990D01*
X0051503Y0048025D01*
X0051394Y0048064D01*
X0051287Y0048107D01*
X0051181Y0048154D01*
X0051077Y0048204D01*
X0050975Y0048258D01*
X0050875Y0048315D01*
X0050776Y0048375D01*
X0050680Y0048439D01*
X0050586Y0048507D01*
X0050495Y0048577D01*
X0050406Y0048651D01*
X0050319Y0048727D01*
X0050236Y0048807D01*
X0050155Y0048889D01*
X0050076Y0048974D01*
X0050001Y0049062D01*
X0049929Y0049152D01*
X0049861Y0049245D01*
X0049795Y0049340D01*
X0049733Y0049437D01*
X0049674Y0049537D01*
X0049618Y0049638D01*
X0049566Y0049741D01*
X0049518Y0049846D01*
X0049473Y0049953D01*
X0049432Y0050061D01*
X0049395Y0050170D01*
X0049362Y0050281D01*
X0049332Y0050392D01*
X0049307Y0050505D01*
X0049285Y0050618D01*
X0049267Y0050732D01*
X0049253Y0050847D01*
X0049243Y0050962D01*
X0049237Y0051078D01*
X0049235Y0051193D01*
X0112227Y0052768D02*
X0112229Y0052908D01*
X0112235Y0053048D01*
X0112245Y0053187D01*
X0112259Y0053326D01*
X0112277Y0053465D01*
X0112298Y0053603D01*
X0112324Y0053741D01*
X0112354Y0053878D01*
X0112387Y0054013D01*
X0112425Y0054148D01*
X0112466Y0054282D01*
X0112511Y0054415D01*
X0112559Y0054546D01*
X0112612Y0054675D01*
X0112668Y0054804D01*
X0112727Y0054930D01*
X0112791Y0055055D01*
X0112857Y0055178D01*
X0112928Y0055299D01*
X0113001Y0055418D01*
X0113078Y0055535D01*
X0113159Y0055649D01*
X0113242Y0055761D01*
X0113329Y0055871D01*
X0113419Y0055979D01*
X0113511Y0056083D01*
X0113607Y0056185D01*
X0113706Y0056285D01*
X0113807Y0056381D01*
X0113911Y0056475D01*
X0114018Y0056565D01*
X0114127Y0056652D01*
X0114239Y0056737D01*
X0114353Y0056818D01*
X0114469Y0056896D01*
X0114587Y0056970D01*
X0114708Y0057041D01*
X0114830Y0057109D01*
X0114955Y0057173D01*
X0115081Y0057234D01*
X0115208Y0057291D01*
X0115338Y0057344D01*
X0115469Y0057394D01*
X0115601Y0057439D01*
X0115734Y0057482D01*
X0115869Y0057520D01*
X0116004Y0057554D01*
X0116141Y0057585D01*
X0116278Y0057612D01*
X0116416Y0057634D01*
X0116555Y0057653D01*
X0116694Y0057668D01*
X0116833Y0057679D01*
X0116973Y0057686D01*
X0117113Y0057689D01*
X0117253Y0057688D01*
X0117393Y0057683D01*
X0117532Y0057674D01*
X0117672Y0057661D01*
X0117811Y0057644D01*
X0117949Y0057623D01*
X0118087Y0057599D01*
X0118224Y0057570D01*
X0118360Y0057538D01*
X0118495Y0057501D01*
X0118629Y0057461D01*
X0118762Y0057417D01*
X0118893Y0057369D01*
X0119023Y0057318D01*
X0119152Y0057263D01*
X0119279Y0057204D01*
X0119404Y0057141D01*
X0119527Y0057076D01*
X0119649Y0057006D01*
X0119768Y0056933D01*
X0119886Y0056857D01*
X0120001Y0056778D01*
X0120114Y0056695D01*
X0120224Y0056609D01*
X0120332Y0056520D01*
X0120437Y0056428D01*
X0120540Y0056333D01*
X0120640Y0056235D01*
X0120737Y0056135D01*
X0120831Y0056031D01*
X0120923Y0055925D01*
X0121011Y0055817D01*
X0121096Y0055706D01*
X0121178Y0055592D01*
X0121257Y0055476D01*
X0121332Y0055359D01*
X0121404Y0055239D01*
X0121472Y0055117D01*
X0121537Y0054993D01*
X0121599Y0054867D01*
X0121657Y0054740D01*
X0121711Y0054611D01*
X0121762Y0054480D01*
X0121808Y0054348D01*
X0121851Y0054215D01*
X0121891Y0054081D01*
X0121926Y0053946D01*
X0121958Y0053809D01*
X0121985Y0053672D01*
X0122009Y0053534D01*
X0122029Y0053396D01*
X0122045Y0053257D01*
X0122057Y0053117D01*
X0122065Y0052978D01*
X0122069Y0052838D01*
X0122069Y0052698D01*
X0122065Y0052558D01*
X0122057Y0052419D01*
X0122045Y0052279D01*
X0122029Y0052140D01*
X0122009Y0052002D01*
X0121985Y0051864D01*
X0121958Y0051727D01*
X0121926Y0051590D01*
X0121891Y0051455D01*
X0121851Y0051321D01*
X0121808Y0051188D01*
X0121762Y0051056D01*
X0121711Y0050925D01*
X0121657Y0050796D01*
X0121599Y0050669D01*
X0121537Y0050543D01*
X0121472Y0050419D01*
X0121404Y0050297D01*
X0121332Y0050177D01*
X0121257Y0050060D01*
X0121178Y0049944D01*
X0121096Y0049830D01*
X0121011Y0049719D01*
X0120923Y0049611D01*
X0120831Y0049505D01*
X0120737Y0049401D01*
X0120640Y0049301D01*
X0120540Y0049203D01*
X0120437Y0049108D01*
X0120332Y0049016D01*
X0120224Y0048927D01*
X0120114Y0048841D01*
X0120001Y0048758D01*
X0119886Y0048679D01*
X0119768Y0048603D01*
X0119649Y0048530D01*
X0119527Y0048460D01*
X0119404Y0048395D01*
X0119279Y0048332D01*
X0119152Y0048273D01*
X0119023Y0048218D01*
X0118893Y0048167D01*
X0118762Y0048119D01*
X0118629Y0048075D01*
X0118495Y0048035D01*
X0118360Y0047998D01*
X0118224Y0047966D01*
X0118087Y0047937D01*
X0117949Y0047913D01*
X0117811Y0047892D01*
X0117672Y0047875D01*
X0117532Y0047862D01*
X0117393Y0047853D01*
X0117253Y0047848D01*
X0117113Y0047847D01*
X0116973Y0047850D01*
X0116833Y0047857D01*
X0116694Y0047868D01*
X0116555Y0047883D01*
X0116416Y0047902D01*
X0116278Y0047924D01*
X0116141Y0047951D01*
X0116004Y0047982D01*
X0115869Y0048016D01*
X0115734Y0048054D01*
X0115601Y0048097D01*
X0115469Y0048142D01*
X0115338Y0048192D01*
X0115208Y0048245D01*
X0115081Y0048302D01*
X0114955Y0048363D01*
X0114830Y0048427D01*
X0114708Y0048495D01*
X0114587Y0048566D01*
X0114469Y0048640D01*
X0114353Y0048718D01*
X0114239Y0048799D01*
X0114127Y0048884D01*
X0114018Y0048971D01*
X0113911Y0049061D01*
X0113807Y0049155D01*
X0113706Y0049251D01*
X0113607Y0049351D01*
X0113511Y0049453D01*
X0113419Y0049557D01*
X0113329Y0049665D01*
X0113242Y0049775D01*
X0113159Y0049887D01*
X0113078Y0050001D01*
X0113001Y0050118D01*
X0112928Y0050237D01*
X0112857Y0050358D01*
X0112791Y0050481D01*
X0112727Y0050606D01*
X0112668Y0050732D01*
X0112612Y0050861D01*
X0112559Y0050990D01*
X0112511Y0051121D01*
X0112466Y0051254D01*
X0112425Y0051388D01*
X0112387Y0051523D01*
X0112354Y0051658D01*
X0112324Y0051795D01*
X0112298Y0051933D01*
X0112277Y0052071D01*
X0112259Y0052210D01*
X0112245Y0052349D01*
X0112235Y0052488D01*
X0112229Y0052628D01*
X0112227Y0052768D01*
X0245790Y0030008D02*
X0245792Y0030089D01*
X0245798Y0030171D01*
X0245808Y0030252D01*
X0245822Y0030332D01*
X0245839Y0030411D01*
X0245861Y0030490D01*
X0245886Y0030567D01*
X0245915Y0030644D01*
X0245948Y0030718D01*
X0245985Y0030791D01*
X0246024Y0030862D01*
X0246068Y0030931D01*
X0246114Y0030998D01*
X0246164Y0031062D01*
X0246217Y0031124D01*
X0246273Y0031184D01*
X0246331Y0031240D01*
X0246393Y0031294D01*
X0246457Y0031345D01*
X0246523Y0031392D01*
X0246591Y0031436D01*
X0246662Y0031477D01*
X0246734Y0031514D01*
X0246809Y0031548D01*
X0246884Y0031578D01*
X0246962Y0031604D01*
X0247040Y0031627D01*
X0247119Y0031645D01*
X0247199Y0031660D01*
X0247280Y0031671D01*
X0247361Y0031678D01*
X0247443Y0031681D01*
X0247524Y0031680D01*
X0247605Y0031675D01*
X0247686Y0031666D01*
X0247767Y0031653D01*
X0247847Y0031636D01*
X0247925Y0031616D01*
X0248003Y0031591D01*
X0248080Y0031563D01*
X0248155Y0031531D01*
X0248228Y0031496D01*
X0248299Y0031457D01*
X0248369Y0031414D01*
X0248436Y0031369D01*
X0248502Y0031320D01*
X0248564Y0031268D01*
X0248624Y0031212D01*
X0248681Y0031154D01*
X0248736Y0031094D01*
X0248787Y0031030D01*
X0248835Y0030965D01*
X0248880Y0030897D01*
X0248922Y0030827D01*
X0248960Y0030755D01*
X0248995Y0030681D01*
X0249026Y0030606D01*
X0249053Y0030529D01*
X0249076Y0030451D01*
X0249096Y0030372D01*
X0249112Y0030292D01*
X0249124Y0030211D01*
X0249132Y0030130D01*
X0249136Y0030049D01*
X0249136Y0029967D01*
X0249132Y0029886D01*
X0249124Y0029805D01*
X0249112Y0029724D01*
X0249096Y0029644D01*
X0249076Y0029565D01*
X0249053Y0029487D01*
X0249026Y0029410D01*
X0248995Y0029335D01*
X0248960Y0029261D01*
X0248922Y0029189D01*
X0248880Y0029119D01*
X0248835Y0029051D01*
X0248787Y0028986D01*
X0248736Y0028922D01*
X0248681Y0028862D01*
X0248624Y0028804D01*
X0248564Y0028748D01*
X0248502Y0028696D01*
X0248436Y0028647D01*
X0248369Y0028602D01*
X0248300Y0028559D01*
X0248228Y0028520D01*
X0248155Y0028485D01*
X0248080Y0028453D01*
X0248003Y0028425D01*
X0247925Y0028400D01*
X0247847Y0028380D01*
X0247767Y0028363D01*
X0247686Y0028350D01*
X0247605Y0028341D01*
X0247524Y0028336D01*
X0247443Y0028335D01*
X0247361Y0028338D01*
X0247280Y0028345D01*
X0247199Y0028356D01*
X0247119Y0028371D01*
X0247040Y0028389D01*
X0246962Y0028412D01*
X0246884Y0028438D01*
X0246809Y0028468D01*
X0246734Y0028502D01*
X0246662Y0028539D01*
X0246591Y0028580D01*
X0246523Y0028624D01*
X0246457Y0028671D01*
X0246393Y0028722D01*
X0246331Y0028776D01*
X0246273Y0028832D01*
X0246217Y0028892D01*
X0246164Y0028954D01*
X0246114Y0029018D01*
X0246068Y0029085D01*
X0246024Y0029154D01*
X0245985Y0029225D01*
X0245948Y0029298D01*
X0245915Y0029372D01*
X0245886Y0029449D01*
X0245861Y0029526D01*
X0245839Y0029605D01*
X0245822Y0029684D01*
X0245808Y0029764D01*
X0245798Y0029845D01*
X0245792Y0029927D01*
X0245790Y0030008D01*
X0260751Y0030008D02*
X0260753Y0030089D01*
X0260759Y0030171D01*
X0260769Y0030252D01*
X0260783Y0030332D01*
X0260800Y0030411D01*
X0260822Y0030490D01*
X0260847Y0030567D01*
X0260876Y0030644D01*
X0260909Y0030718D01*
X0260946Y0030791D01*
X0260985Y0030862D01*
X0261029Y0030931D01*
X0261075Y0030998D01*
X0261125Y0031062D01*
X0261178Y0031124D01*
X0261234Y0031184D01*
X0261292Y0031240D01*
X0261354Y0031294D01*
X0261418Y0031345D01*
X0261484Y0031392D01*
X0261552Y0031436D01*
X0261623Y0031477D01*
X0261695Y0031514D01*
X0261770Y0031548D01*
X0261845Y0031578D01*
X0261923Y0031604D01*
X0262001Y0031627D01*
X0262080Y0031645D01*
X0262160Y0031660D01*
X0262241Y0031671D01*
X0262322Y0031678D01*
X0262404Y0031681D01*
X0262485Y0031680D01*
X0262566Y0031675D01*
X0262647Y0031666D01*
X0262728Y0031653D01*
X0262808Y0031636D01*
X0262886Y0031616D01*
X0262964Y0031591D01*
X0263041Y0031563D01*
X0263116Y0031531D01*
X0263189Y0031496D01*
X0263260Y0031457D01*
X0263330Y0031414D01*
X0263397Y0031369D01*
X0263463Y0031320D01*
X0263525Y0031268D01*
X0263585Y0031212D01*
X0263642Y0031154D01*
X0263697Y0031094D01*
X0263748Y0031030D01*
X0263796Y0030965D01*
X0263841Y0030897D01*
X0263883Y0030827D01*
X0263921Y0030755D01*
X0263956Y0030681D01*
X0263987Y0030606D01*
X0264014Y0030529D01*
X0264037Y0030451D01*
X0264057Y0030372D01*
X0264073Y0030292D01*
X0264085Y0030211D01*
X0264093Y0030130D01*
X0264097Y0030049D01*
X0264097Y0029967D01*
X0264093Y0029886D01*
X0264085Y0029805D01*
X0264073Y0029724D01*
X0264057Y0029644D01*
X0264037Y0029565D01*
X0264014Y0029487D01*
X0263987Y0029410D01*
X0263956Y0029335D01*
X0263921Y0029261D01*
X0263883Y0029189D01*
X0263841Y0029119D01*
X0263796Y0029051D01*
X0263748Y0028986D01*
X0263697Y0028922D01*
X0263642Y0028862D01*
X0263585Y0028804D01*
X0263525Y0028748D01*
X0263463Y0028696D01*
X0263397Y0028647D01*
X0263330Y0028602D01*
X0263261Y0028559D01*
X0263189Y0028520D01*
X0263116Y0028485D01*
X0263041Y0028453D01*
X0262964Y0028425D01*
X0262886Y0028400D01*
X0262808Y0028380D01*
X0262728Y0028363D01*
X0262647Y0028350D01*
X0262566Y0028341D01*
X0262485Y0028336D01*
X0262404Y0028335D01*
X0262322Y0028338D01*
X0262241Y0028345D01*
X0262160Y0028356D01*
X0262080Y0028371D01*
X0262001Y0028389D01*
X0261923Y0028412D01*
X0261845Y0028438D01*
X0261770Y0028468D01*
X0261695Y0028502D01*
X0261623Y0028539D01*
X0261552Y0028580D01*
X0261484Y0028624D01*
X0261418Y0028671D01*
X0261354Y0028722D01*
X0261292Y0028776D01*
X0261234Y0028832D01*
X0261178Y0028892D01*
X0261125Y0028954D01*
X0261075Y0029018D01*
X0261029Y0029085D01*
X0260985Y0029154D01*
X0260946Y0029225D01*
X0260909Y0029298D01*
X0260876Y0029372D01*
X0260847Y0029449D01*
X0260822Y0029526D01*
X0260800Y0029605D01*
X0260783Y0029684D01*
X0260769Y0029764D01*
X0260759Y0029845D01*
X0260753Y0029927D01*
X0260751Y0030008D01*
X0293329Y0052768D02*
X0293331Y0052908D01*
X0293337Y0053048D01*
X0293347Y0053187D01*
X0293361Y0053326D01*
X0293379Y0053465D01*
X0293400Y0053603D01*
X0293426Y0053741D01*
X0293456Y0053878D01*
X0293489Y0054013D01*
X0293527Y0054148D01*
X0293568Y0054282D01*
X0293613Y0054415D01*
X0293661Y0054546D01*
X0293714Y0054675D01*
X0293770Y0054804D01*
X0293829Y0054930D01*
X0293893Y0055055D01*
X0293959Y0055178D01*
X0294030Y0055299D01*
X0294103Y0055418D01*
X0294180Y0055535D01*
X0294261Y0055649D01*
X0294344Y0055761D01*
X0294431Y0055871D01*
X0294521Y0055979D01*
X0294613Y0056083D01*
X0294709Y0056185D01*
X0294808Y0056285D01*
X0294909Y0056381D01*
X0295013Y0056475D01*
X0295120Y0056565D01*
X0295229Y0056652D01*
X0295341Y0056737D01*
X0295455Y0056818D01*
X0295571Y0056896D01*
X0295689Y0056970D01*
X0295810Y0057041D01*
X0295932Y0057109D01*
X0296057Y0057173D01*
X0296183Y0057234D01*
X0296310Y0057291D01*
X0296440Y0057344D01*
X0296571Y0057394D01*
X0296703Y0057439D01*
X0296836Y0057482D01*
X0296971Y0057520D01*
X0297106Y0057554D01*
X0297243Y0057585D01*
X0297380Y0057612D01*
X0297518Y0057634D01*
X0297657Y0057653D01*
X0297796Y0057668D01*
X0297935Y0057679D01*
X0298075Y0057686D01*
X0298215Y0057689D01*
X0298355Y0057688D01*
X0298495Y0057683D01*
X0298634Y0057674D01*
X0298774Y0057661D01*
X0298913Y0057644D01*
X0299051Y0057623D01*
X0299189Y0057599D01*
X0299326Y0057570D01*
X0299462Y0057538D01*
X0299597Y0057501D01*
X0299731Y0057461D01*
X0299864Y0057417D01*
X0299995Y0057369D01*
X0300125Y0057318D01*
X0300254Y0057263D01*
X0300381Y0057204D01*
X0300506Y0057141D01*
X0300629Y0057076D01*
X0300751Y0057006D01*
X0300870Y0056933D01*
X0300988Y0056857D01*
X0301103Y0056778D01*
X0301216Y0056695D01*
X0301326Y0056609D01*
X0301434Y0056520D01*
X0301539Y0056428D01*
X0301642Y0056333D01*
X0301742Y0056235D01*
X0301839Y0056135D01*
X0301933Y0056031D01*
X0302025Y0055925D01*
X0302113Y0055817D01*
X0302198Y0055706D01*
X0302280Y0055592D01*
X0302359Y0055476D01*
X0302434Y0055359D01*
X0302506Y0055239D01*
X0302574Y0055117D01*
X0302639Y0054993D01*
X0302701Y0054867D01*
X0302759Y0054740D01*
X0302813Y0054611D01*
X0302864Y0054480D01*
X0302910Y0054348D01*
X0302953Y0054215D01*
X0302993Y0054081D01*
X0303028Y0053946D01*
X0303060Y0053809D01*
X0303087Y0053672D01*
X0303111Y0053534D01*
X0303131Y0053396D01*
X0303147Y0053257D01*
X0303159Y0053117D01*
X0303167Y0052978D01*
X0303171Y0052838D01*
X0303171Y0052698D01*
X0303167Y0052558D01*
X0303159Y0052419D01*
X0303147Y0052279D01*
X0303131Y0052140D01*
X0303111Y0052002D01*
X0303087Y0051864D01*
X0303060Y0051727D01*
X0303028Y0051590D01*
X0302993Y0051455D01*
X0302953Y0051321D01*
X0302910Y0051188D01*
X0302864Y0051056D01*
X0302813Y0050925D01*
X0302759Y0050796D01*
X0302701Y0050669D01*
X0302639Y0050543D01*
X0302574Y0050419D01*
X0302506Y0050297D01*
X0302434Y0050177D01*
X0302359Y0050060D01*
X0302280Y0049944D01*
X0302198Y0049830D01*
X0302113Y0049719D01*
X0302025Y0049611D01*
X0301933Y0049505D01*
X0301839Y0049401D01*
X0301742Y0049301D01*
X0301642Y0049203D01*
X0301539Y0049108D01*
X0301434Y0049016D01*
X0301326Y0048927D01*
X0301216Y0048841D01*
X0301103Y0048758D01*
X0300988Y0048679D01*
X0300870Y0048603D01*
X0300751Y0048530D01*
X0300629Y0048460D01*
X0300506Y0048395D01*
X0300381Y0048332D01*
X0300254Y0048273D01*
X0300125Y0048218D01*
X0299995Y0048167D01*
X0299864Y0048119D01*
X0299731Y0048075D01*
X0299597Y0048035D01*
X0299462Y0047998D01*
X0299326Y0047966D01*
X0299189Y0047937D01*
X0299051Y0047913D01*
X0298913Y0047892D01*
X0298774Y0047875D01*
X0298634Y0047862D01*
X0298495Y0047853D01*
X0298355Y0047848D01*
X0298215Y0047847D01*
X0298075Y0047850D01*
X0297935Y0047857D01*
X0297796Y0047868D01*
X0297657Y0047883D01*
X0297518Y0047902D01*
X0297380Y0047924D01*
X0297243Y0047951D01*
X0297106Y0047982D01*
X0296971Y0048016D01*
X0296836Y0048054D01*
X0296703Y0048097D01*
X0296571Y0048142D01*
X0296440Y0048192D01*
X0296310Y0048245D01*
X0296183Y0048302D01*
X0296057Y0048363D01*
X0295932Y0048427D01*
X0295810Y0048495D01*
X0295689Y0048566D01*
X0295571Y0048640D01*
X0295455Y0048718D01*
X0295341Y0048799D01*
X0295229Y0048884D01*
X0295120Y0048971D01*
X0295013Y0049061D01*
X0294909Y0049155D01*
X0294808Y0049251D01*
X0294709Y0049351D01*
X0294613Y0049453D01*
X0294521Y0049557D01*
X0294431Y0049665D01*
X0294344Y0049775D01*
X0294261Y0049887D01*
X0294180Y0050001D01*
X0294103Y0050118D01*
X0294030Y0050237D01*
X0293959Y0050358D01*
X0293893Y0050481D01*
X0293829Y0050606D01*
X0293770Y0050732D01*
X0293714Y0050861D01*
X0293661Y0050990D01*
X0293613Y0051121D01*
X0293568Y0051254D01*
X0293527Y0051388D01*
X0293489Y0051523D01*
X0293456Y0051658D01*
X0293426Y0051795D01*
X0293400Y0051933D01*
X0293379Y0052071D01*
X0293361Y0052210D01*
X0293347Y0052349D01*
X0293337Y0052488D01*
X0293331Y0052628D01*
X0293329Y0052768D01*
X0306715Y0079461D02*
X0306717Y0079545D01*
X0306723Y0079628D01*
X0306733Y0079711D01*
X0306747Y0079794D01*
X0306764Y0079876D01*
X0306786Y0079957D01*
X0306811Y0080036D01*
X0306840Y0080115D01*
X0306873Y0080192D01*
X0306909Y0080267D01*
X0306949Y0080341D01*
X0306992Y0080413D01*
X0307039Y0080482D01*
X0307089Y0080549D01*
X0307142Y0080614D01*
X0307198Y0080676D01*
X0307256Y0080736D01*
X0307318Y0080793D01*
X0307382Y0080846D01*
X0307449Y0080897D01*
X0307518Y0080944D01*
X0307589Y0080989D01*
X0307662Y0081029D01*
X0307737Y0081066D01*
X0307814Y0081100D01*
X0307892Y0081130D01*
X0307971Y0081156D01*
X0308052Y0081179D01*
X0308134Y0081197D01*
X0308216Y0081212D01*
X0308299Y0081223D01*
X0308382Y0081230D01*
X0308466Y0081233D01*
X0308550Y0081232D01*
X0308633Y0081227D01*
X0308717Y0081218D01*
X0308799Y0081205D01*
X0308881Y0081189D01*
X0308962Y0081168D01*
X0309043Y0081144D01*
X0309121Y0081116D01*
X0309199Y0081084D01*
X0309275Y0081048D01*
X0309349Y0081009D01*
X0309421Y0080967D01*
X0309491Y0080921D01*
X0309559Y0080872D01*
X0309624Y0080820D01*
X0309687Y0080765D01*
X0309747Y0080707D01*
X0309805Y0080646D01*
X0309859Y0080582D01*
X0309911Y0080516D01*
X0309959Y0080448D01*
X0310004Y0080377D01*
X0310045Y0080304D01*
X0310084Y0080230D01*
X0310118Y0080154D01*
X0310149Y0080076D01*
X0310176Y0079997D01*
X0310200Y0079916D01*
X0310219Y0079835D01*
X0310235Y0079753D01*
X0310247Y0079670D01*
X0310255Y0079586D01*
X0310259Y0079503D01*
X0310259Y0079419D01*
X0310255Y0079336D01*
X0310247Y0079252D01*
X0310235Y0079169D01*
X0310219Y0079087D01*
X0310200Y0079006D01*
X0310176Y0078925D01*
X0310149Y0078846D01*
X0310118Y0078768D01*
X0310084Y0078692D01*
X0310045Y0078618D01*
X0310004Y0078545D01*
X0309959Y0078474D01*
X0309911Y0078406D01*
X0309859Y0078340D01*
X0309805Y0078276D01*
X0309747Y0078215D01*
X0309687Y0078157D01*
X0309624Y0078102D01*
X0309559Y0078050D01*
X0309491Y0078001D01*
X0309421Y0077955D01*
X0309349Y0077913D01*
X0309275Y0077874D01*
X0309199Y0077838D01*
X0309121Y0077806D01*
X0309043Y0077778D01*
X0308962Y0077754D01*
X0308881Y0077733D01*
X0308799Y0077717D01*
X0308717Y0077704D01*
X0308633Y0077695D01*
X0308550Y0077690D01*
X0308466Y0077689D01*
X0308382Y0077692D01*
X0308299Y0077699D01*
X0308216Y0077710D01*
X0308134Y0077725D01*
X0308052Y0077743D01*
X0307971Y0077766D01*
X0307892Y0077792D01*
X0307814Y0077822D01*
X0307737Y0077856D01*
X0307662Y0077893D01*
X0307589Y0077933D01*
X0307518Y0077978D01*
X0307449Y0078025D01*
X0307382Y0078076D01*
X0307318Y0078129D01*
X0307256Y0078186D01*
X0307198Y0078246D01*
X0307142Y0078308D01*
X0307089Y0078373D01*
X0307039Y0078440D01*
X0306992Y0078509D01*
X0306949Y0078581D01*
X0306909Y0078655D01*
X0306873Y0078730D01*
X0306840Y0078807D01*
X0306811Y0078886D01*
X0306786Y0078965D01*
X0306764Y0079046D01*
X0306747Y0079128D01*
X0306733Y0079211D01*
X0306723Y0079294D01*
X0306717Y0079377D01*
X0306715Y0079461D01*
X0333486Y0079461D02*
X0333488Y0079545D01*
X0333494Y0079628D01*
X0333504Y0079711D01*
X0333518Y0079794D01*
X0333535Y0079876D01*
X0333557Y0079957D01*
X0333582Y0080036D01*
X0333611Y0080115D01*
X0333644Y0080192D01*
X0333680Y0080267D01*
X0333720Y0080341D01*
X0333763Y0080413D01*
X0333810Y0080482D01*
X0333860Y0080549D01*
X0333913Y0080614D01*
X0333969Y0080676D01*
X0334027Y0080736D01*
X0334089Y0080793D01*
X0334153Y0080846D01*
X0334220Y0080897D01*
X0334289Y0080944D01*
X0334360Y0080989D01*
X0334433Y0081029D01*
X0334508Y0081066D01*
X0334585Y0081100D01*
X0334663Y0081130D01*
X0334742Y0081156D01*
X0334823Y0081179D01*
X0334905Y0081197D01*
X0334987Y0081212D01*
X0335070Y0081223D01*
X0335153Y0081230D01*
X0335237Y0081233D01*
X0335321Y0081232D01*
X0335404Y0081227D01*
X0335488Y0081218D01*
X0335570Y0081205D01*
X0335652Y0081189D01*
X0335733Y0081168D01*
X0335814Y0081144D01*
X0335892Y0081116D01*
X0335970Y0081084D01*
X0336046Y0081048D01*
X0336120Y0081009D01*
X0336192Y0080967D01*
X0336262Y0080921D01*
X0336330Y0080872D01*
X0336395Y0080820D01*
X0336458Y0080765D01*
X0336518Y0080707D01*
X0336576Y0080646D01*
X0336630Y0080582D01*
X0336682Y0080516D01*
X0336730Y0080448D01*
X0336775Y0080377D01*
X0336816Y0080304D01*
X0336855Y0080230D01*
X0336889Y0080154D01*
X0336920Y0080076D01*
X0336947Y0079997D01*
X0336971Y0079916D01*
X0336990Y0079835D01*
X0337006Y0079753D01*
X0337018Y0079670D01*
X0337026Y0079586D01*
X0337030Y0079503D01*
X0337030Y0079419D01*
X0337026Y0079336D01*
X0337018Y0079252D01*
X0337006Y0079169D01*
X0336990Y0079087D01*
X0336971Y0079006D01*
X0336947Y0078925D01*
X0336920Y0078846D01*
X0336889Y0078768D01*
X0336855Y0078692D01*
X0336816Y0078618D01*
X0336775Y0078545D01*
X0336730Y0078474D01*
X0336682Y0078406D01*
X0336630Y0078340D01*
X0336576Y0078276D01*
X0336518Y0078215D01*
X0336458Y0078157D01*
X0336395Y0078102D01*
X0336330Y0078050D01*
X0336262Y0078001D01*
X0336192Y0077955D01*
X0336120Y0077913D01*
X0336046Y0077874D01*
X0335970Y0077838D01*
X0335892Y0077806D01*
X0335814Y0077778D01*
X0335733Y0077754D01*
X0335652Y0077733D01*
X0335570Y0077717D01*
X0335488Y0077704D01*
X0335404Y0077695D01*
X0335321Y0077690D01*
X0335237Y0077689D01*
X0335153Y0077692D01*
X0335070Y0077699D01*
X0334987Y0077710D01*
X0334905Y0077725D01*
X0334823Y0077743D01*
X0334742Y0077766D01*
X0334663Y0077792D01*
X0334585Y0077822D01*
X0334508Y0077856D01*
X0334433Y0077893D01*
X0334360Y0077933D01*
X0334289Y0077978D01*
X0334220Y0078025D01*
X0334153Y0078076D01*
X0334089Y0078129D01*
X0334027Y0078186D01*
X0333969Y0078246D01*
X0333913Y0078308D01*
X0333860Y0078373D01*
X0333810Y0078440D01*
X0333763Y0078509D01*
X0333720Y0078581D01*
X0333680Y0078655D01*
X0333644Y0078730D01*
X0333611Y0078807D01*
X0333582Y0078886D01*
X0333557Y0078965D01*
X0333535Y0079046D01*
X0333518Y0079128D01*
X0333504Y0079211D01*
X0333494Y0079294D01*
X0333488Y0079377D01*
X0333486Y0079461D01*
M02*
