G75*
%MOIN*%
%OFA0B0*%
%FSLAX25Y25*%
%IPPOS*%
%LPD*%
%AMOC8*
5,1,8,0,0,1.08239X$1,22.5*
%
%ADD10C,0.00800*%
%ADD11C,0.00400*%
%ADD12C,0.02559*%
%ADD13C,0.01200*%
%ADD14C,0.00787*%
%ADD15C,0.00600*%
D10*
X0264006Y0037752D02*
X0265069Y0036689D01*
X0285542Y0036689D01*
X0286605Y0037752D01*
X0286605Y0058224D01*
X0285542Y0059287D01*
X0265069Y0059287D01*
X0264006Y0058224D01*
X0264006Y0037752D01*
X0306656Y0025484D02*
X0309156Y0027984D01*
X0314156Y0027984D01*
X0316656Y0025484D01*
X0319156Y0027984D01*
X0324156Y0027984D01*
X0326656Y0025484D01*
X0326656Y0020484D01*
X0324156Y0017984D01*
X0319156Y0017984D01*
X0316656Y0020484D01*
X0314156Y0017984D01*
X0309156Y0017984D01*
X0306656Y0020484D01*
X0306656Y0025484D01*
X0386282Y0021768D02*
X0386282Y0033972D01*
X0398388Y0033972D01*
X0398388Y0021768D01*
X0386282Y0021768D01*
X0299109Y0064650D02*
X0299109Y0070949D01*
X0295172Y0070949D02*
X0291628Y0070949D01*
X0287691Y0070949D02*
X0287691Y0064650D01*
X0252152Y0070898D02*
X0250380Y0070898D01*
X0252152Y0070898D02*
X0252152Y0089008D01*
X0250380Y0089008D01*
X0242506Y0089008D02*
X0240735Y0089008D01*
X0240735Y0070898D01*
X0242506Y0070898D01*
X0242506Y0083890D02*
X0250380Y0083890D01*
X0175317Y0080130D02*
X0175317Y0075130D01*
X0172817Y0072630D01*
X0167817Y0072630D01*
X0165317Y0075130D01*
X0162817Y0072630D01*
X0157817Y0072630D01*
X0155317Y0075130D01*
X0152817Y0072630D01*
X0147817Y0072630D01*
X0145317Y0075130D01*
X0142817Y0072630D01*
X0137817Y0072630D01*
X0135317Y0075130D01*
X0132817Y0072630D01*
X0127817Y0072630D01*
X0125317Y0075130D01*
X0125317Y0080130D01*
X0127817Y0082630D01*
X0132817Y0082630D01*
X0135317Y0080130D01*
X0137817Y0082630D01*
X0142817Y0082630D01*
X0145317Y0080130D01*
X0147817Y0082630D01*
X0152817Y0082630D01*
X0155317Y0080130D01*
X0157817Y0082630D01*
X0162817Y0082630D01*
X0165317Y0080130D01*
X0167817Y0082630D01*
X0172817Y0082630D01*
X0175317Y0080130D01*
D11*
X0053546Y0014972D02*
X0049215Y0019303D01*
X0049215Y0027177D01*
X0053546Y0031508D01*
X0065750Y0031508D01*
X0065750Y0026587D01*
X0062207Y0029146D02*
X0062207Y0017335D01*
X0059036Y0018325D02*
X0059036Y0018692D01*
X0058669Y0019059D01*
X0057568Y0019059D01*
X0057568Y0018325D01*
X0057935Y0017958D01*
X0058669Y0017958D01*
X0059036Y0018325D01*
X0058302Y0019793D02*
X0057568Y0019059D01*
X0058302Y0019793D02*
X0059036Y0020160D01*
X0055908Y0020160D02*
X0055174Y0019426D01*
X0054248Y0019793D02*
X0053881Y0020160D01*
X0053147Y0020160D01*
X0052780Y0019793D01*
X0052780Y0018325D01*
X0053147Y0017958D01*
X0053881Y0017958D01*
X0054248Y0018325D01*
X0055174Y0017958D02*
X0056642Y0017958D01*
X0055908Y0017958D02*
X0055908Y0020160D01*
X0050594Y0026586D02*
X0050677Y0026753D01*
X0050764Y0026917D01*
X0050856Y0027080D01*
X0050951Y0027240D01*
X0051050Y0027397D01*
X0051153Y0027552D01*
X0051260Y0027705D01*
X0051371Y0027855D01*
X0051485Y0028002D01*
X0051602Y0028147D01*
X0051723Y0028288D01*
X0051848Y0028427D01*
X0051975Y0028562D01*
X0052106Y0028695D01*
X0052241Y0028824D01*
X0052378Y0028950D01*
X0052518Y0029072D01*
X0052662Y0029191D01*
X0052808Y0029307D01*
X0052957Y0029418D01*
X0053108Y0029527D01*
X0053262Y0029631D01*
X0053419Y0029732D01*
X0053578Y0029829D01*
X0053739Y0029922D01*
X0053903Y0030011D01*
X0054069Y0030096D01*
X0054236Y0030177D01*
X0054406Y0030254D01*
X0054578Y0030327D01*
X0054751Y0030395D01*
X0054926Y0030459D01*
X0055102Y0030519D01*
X0055280Y0030575D01*
X0055459Y0030627D01*
X0055639Y0030674D01*
X0055820Y0030716D01*
X0056002Y0030755D01*
X0056186Y0030788D01*
X0056369Y0030818D01*
X0056554Y0030842D01*
X0056739Y0030863D01*
X0056925Y0030879D01*
X0057111Y0030890D01*
X0057297Y0030897D01*
X0057483Y0030899D01*
X0057669Y0030897D01*
X0057855Y0030890D01*
X0058041Y0030879D01*
X0058227Y0030863D01*
X0058412Y0030842D01*
X0058597Y0030818D01*
X0058780Y0030788D01*
X0058964Y0030755D01*
X0059146Y0030716D01*
X0059327Y0030674D01*
X0059507Y0030627D01*
X0059686Y0030575D01*
X0059864Y0030519D01*
X0060040Y0030459D01*
X0060215Y0030395D01*
X0060388Y0030327D01*
X0060560Y0030254D01*
X0060730Y0030177D01*
X0060897Y0030096D01*
X0061063Y0030011D01*
X0061227Y0029922D01*
X0061388Y0029829D01*
X0061547Y0029732D01*
X0061704Y0029631D01*
X0061858Y0029527D01*
X0062009Y0029418D01*
X0062158Y0029307D01*
X0062304Y0029191D01*
X0062448Y0029072D01*
X0062588Y0028950D01*
X0062725Y0028824D01*
X0062860Y0028695D01*
X0062991Y0028562D01*
X0063118Y0028427D01*
X0063243Y0028288D01*
X0063364Y0028147D01*
X0063481Y0028002D01*
X0063595Y0027855D01*
X0063706Y0027705D01*
X0063813Y0027552D01*
X0063916Y0027397D01*
X0064015Y0027240D01*
X0064110Y0027080D01*
X0064202Y0026917D01*
X0064289Y0026753D01*
X0064372Y0026586D01*
X0060743Y0027697D02*
X0060009Y0027697D01*
X0059083Y0028064D02*
X0059083Y0026596D01*
X0057982Y0026596D01*
X0057615Y0026963D01*
X0057615Y0028064D01*
X0056689Y0028431D02*
X0055221Y0026963D01*
X0055588Y0026596D01*
X0056322Y0026596D01*
X0056689Y0026963D01*
X0056689Y0028431D01*
X0056322Y0028798D01*
X0055588Y0028798D01*
X0055221Y0028431D01*
X0055221Y0026963D01*
X0054295Y0026596D02*
X0052827Y0026596D01*
X0053561Y0026596D02*
X0053561Y0028798D01*
X0052827Y0028064D01*
X0060009Y0028798D02*
X0060009Y0026596D01*
X0060009Y0028798D02*
X0061477Y0028798D01*
X0065750Y0031508D02*
X0065750Y0014972D01*
X0053546Y0014972D01*
X0065750Y0014972D02*
X0065750Y0019894D01*
X0074353Y0019283D02*
X0078683Y0014953D01*
X0090888Y0014953D01*
X0090888Y0019874D01*
X0085670Y0018715D02*
X0084202Y0018715D01*
X0084202Y0016513D01*
X0083276Y0016513D02*
X0083276Y0017981D01*
X0084202Y0017614D02*
X0084936Y0017614D01*
X0083276Y0016513D02*
X0082175Y0016513D01*
X0081808Y0016880D01*
X0081808Y0017981D01*
X0080882Y0018348D02*
X0079414Y0016880D01*
X0079781Y0016513D01*
X0080515Y0016513D01*
X0080882Y0016880D01*
X0080882Y0018348D01*
X0080515Y0018715D01*
X0079781Y0018715D01*
X0079414Y0018348D01*
X0079414Y0016880D01*
X0078488Y0016513D02*
X0077020Y0016513D01*
X0077754Y0016513D02*
X0077754Y0018715D01*
X0077020Y0017981D01*
X0074353Y0019283D02*
X0074353Y0027157D01*
X0078683Y0031488D01*
X0090888Y0031488D01*
X0090888Y0026567D01*
X0087345Y0029126D02*
X0087345Y0017315D01*
X0090888Y0014953D02*
X0090888Y0031488D01*
X0091852Y0035037D02*
X0092586Y0035037D01*
X0092953Y0035404D01*
X0093879Y0035037D02*
X0095347Y0035037D01*
X0094613Y0035037D02*
X0094613Y0037239D01*
X0093879Y0036505D01*
X0092953Y0036872D02*
X0092586Y0037239D01*
X0091852Y0037239D01*
X0091485Y0036872D01*
X0091485Y0035404D01*
X0091852Y0035037D01*
X0096273Y0035037D02*
X0097741Y0036505D01*
X0097741Y0036872D01*
X0097374Y0037239D01*
X0096640Y0037239D01*
X0096273Y0036872D01*
X0096273Y0035037D02*
X0097741Y0035037D01*
X0110163Y0030248D02*
X0111264Y0030248D01*
X0111631Y0029881D01*
X0111631Y0029147D01*
X0111264Y0028780D01*
X0110163Y0028780D01*
X0110163Y0028046D02*
X0110163Y0030248D01*
X0110897Y0028780D02*
X0111631Y0028046D01*
X0112557Y0028046D02*
X0114025Y0028046D01*
X0113291Y0028046D02*
X0113291Y0030248D01*
X0112557Y0029514D01*
X0114951Y0029147D02*
X0116052Y0029147D01*
X0116419Y0028780D01*
X0116419Y0028413D01*
X0116052Y0028046D01*
X0115318Y0028046D01*
X0114951Y0028413D01*
X0114951Y0029147D01*
X0115685Y0029881D01*
X0116419Y0030248D01*
X0083662Y0028156D02*
X0082194Y0028156D01*
X0082194Y0027055D01*
X0082928Y0027422D01*
X0083295Y0027422D01*
X0083662Y0027055D01*
X0083662Y0026321D01*
X0083295Y0025954D01*
X0082561Y0025954D01*
X0082194Y0026321D01*
X0081268Y0025954D02*
X0079800Y0025954D01*
X0080534Y0025954D02*
X0080534Y0028156D01*
X0079800Y0027422D01*
X0078874Y0027789D02*
X0078507Y0028156D01*
X0077773Y0028156D01*
X0077406Y0027789D01*
X0077406Y0026321D01*
X0077773Y0025954D01*
X0078507Y0025954D01*
X0078874Y0026321D01*
X0074943Y0023220D02*
X0074945Y0023408D01*
X0074952Y0023597D01*
X0074964Y0023785D01*
X0074980Y0023972D01*
X0075001Y0024160D01*
X0075026Y0024346D01*
X0075056Y0024532D01*
X0075091Y0024718D01*
X0075130Y0024902D01*
X0075173Y0025085D01*
X0075221Y0025268D01*
X0075274Y0025449D01*
X0075330Y0025628D01*
X0075392Y0025806D01*
X0075457Y0025983D01*
X0075527Y0026158D01*
X0075602Y0026331D01*
X0075680Y0026502D01*
X0075763Y0026672D01*
X0075849Y0026839D01*
X0075940Y0027004D01*
X0076035Y0027167D01*
X0076134Y0027327D01*
X0076237Y0027485D01*
X0076343Y0027640D01*
X0076454Y0027793D01*
X0076568Y0027943D01*
X0076686Y0028090D01*
X0076807Y0028234D01*
X0076932Y0028376D01*
X0077060Y0028514D01*
X0077192Y0028648D01*
X0077326Y0028780D01*
X0077464Y0028908D01*
X0077606Y0029033D01*
X0077750Y0029154D01*
X0077897Y0029272D01*
X0078047Y0029386D01*
X0078200Y0029497D01*
X0078355Y0029603D01*
X0078513Y0029706D01*
X0078673Y0029805D01*
X0078836Y0029900D01*
X0079001Y0029991D01*
X0079168Y0030077D01*
X0079338Y0030160D01*
X0079509Y0030238D01*
X0079682Y0030313D01*
X0079857Y0030383D01*
X0080034Y0030448D01*
X0080212Y0030510D01*
X0080391Y0030566D01*
X0080572Y0030619D01*
X0080755Y0030667D01*
X0080938Y0030710D01*
X0081122Y0030749D01*
X0081308Y0030784D01*
X0081494Y0030814D01*
X0081680Y0030839D01*
X0081868Y0030860D01*
X0082055Y0030876D01*
X0082243Y0030888D01*
X0082432Y0030895D01*
X0082620Y0030897D01*
X0082808Y0030895D01*
X0082997Y0030888D01*
X0083185Y0030876D01*
X0083372Y0030860D01*
X0083560Y0030839D01*
X0083746Y0030814D01*
X0083932Y0030784D01*
X0084118Y0030749D01*
X0084302Y0030710D01*
X0084485Y0030667D01*
X0084668Y0030619D01*
X0084849Y0030566D01*
X0085028Y0030510D01*
X0085206Y0030448D01*
X0085383Y0030383D01*
X0085558Y0030313D01*
X0085731Y0030238D01*
X0085902Y0030160D01*
X0086072Y0030077D01*
X0086239Y0029991D01*
X0086404Y0029900D01*
X0086567Y0029805D01*
X0086727Y0029706D01*
X0086885Y0029603D01*
X0087040Y0029497D01*
X0087193Y0029386D01*
X0087343Y0029272D01*
X0087490Y0029154D01*
X0087634Y0029033D01*
X0087776Y0028908D01*
X0087914Y0028780D01*
X0088048Y0028648D01*
X0088180Y0028514D01*
X0088308Y0028376D01*
X0088433Y0028234D01*
X0088554Y0028090D01*
X0088672Y0027943D01*
X0088786Y0027793D01*
X0088897Y0027640D01*
X0089003Y0027485D01*
X0089106Y0027327D01*
X0089205Y0027167D01*
X0089300Y0027004D01*
X0089391Y0026839D01*
X0089477Y0026672D01*
X0089560Y0026502D01*
X0089638Y0026331D01*
X0089713Y0026158D01*
X0089783Y0025983D01*
X0089848Y0025806D01*
X0089910Y0025628D01*
X0089966Y0025449D01*
X0090019Y0025268D01*
X0090067Y0025085D01*
X0090110Y0024902D01*
X0090149Y0024718D01*
X0090184Y0024532D01*
X0090214Y0024346D01*
X0090239Y0024160D01*
X0090260Y0023972D01*
X0090276Y0023785D01*
X0090288Y0023597D01*
X0090295Y0023408D01*
X0090297Y0023220D01*
X0090295Y0023032D01*
X0090288Y0022843D01*
X0090276Y0022655D01*
X0090260Y0022468D01*
X0090239Y0022280D01*
X0090214Y0022094D01*
X0090184Y0021908D01*
X0090149Y0021722D01*
X0090110Y0021538D01*
X0090067Y0021355D01*
X0090019Y0021172D01*
X0089966Y0020991D01*
X0089910Y0020812D01*
X0089848Y0020634D01*
X0089783Y0020457D01*
X0089713Y0020282D01*
X0089638Y0020109D01*
X0089560Y0019938D01*
X0089477Y0019768D01*
X0089391Y0019601D01*
X0089300Y0019436D01*
X0089205Y0019273D01*
X0089106Y0019113D01*
X0089003Y0018955D01*
X0088897Y0018800D01*
X0088786Y0018647D01*
X0088672Y0018497D01*
X0088554Y0018350D01*
X0088433Y0018206D01*
X0088308Y0018064D01*
X0088180Y0017926D01*
X0088048Y0017792D01*
X0087914Y0017660D01*
X0087776Y0017532D01*
X0087634Y0017407D01*
X0087490Y0017286D01*
X0087343Y0017168D01*
X0087193Y0017054D01*
X0087040Y0016943D01*
X0086885Y0016837D01*
X0086727Y0016734D01*
X0086567Y0016635D01*
X0086404Y0016540D01*
X0086239Y0016449D01*
X0086072Y0016363D01*
X0085902Y0016280D01*
X0085731Y0016202D01*
X0085558Y0016127D01*
X0085383Y0016057D01*
X0085206Y0015992D01*
X0085028Y0015930D01*
X0084849Y0015874D01*
X0084668Y0015821D01*
X0084485Y0015773D01*
X0084302Y0015730D01*
X0084118Y0015691D01*
X0083932Y0015656D01*
X0083746Y0015626D01*
X0083560Y0015601D01*
X0083372Y0015580D01*
X0083185Y0015564D01*
X0082997Y0015552D01*
X0082808Y0015545D01*
X0082620Y0015543D01*
X0082432Y0015545D01*
X0082243Y0015552D01*
X0082055Y0015564D01*
X0081868Y0015580D01*
X0081680Y0015601D01*
X0081494Y0015626D01*
X0081308Y0015656D01*
X0081122Y0015691D01*
X0080938Y0015730D01*
X0080755Y0015773D01*
X0080572Y0015821D01*
X0080391Y0015874D01*
X0080212Y0015930D01*
X0080034Y0015992D01*
X0079857Y0016057D01*
X0079682Y0016127D01*
X0079509Y0016202D01*
X0079338Y0016280D01*
X0079168Y0016363D01*
X0079001Y0016449D01*
X0078836Y0016540D01*
X0078673Y0016635D01*
X0078513Y0016734D01*
X0078355Y0016837D01*
X0078200Y0016943D01*
X0078047Y0017054D01*
X0077897Y0017168D01*
X0077750Y0017286D01*
X0077606Y0017407D01*
X0077464Y0017532D01*
X0077326Y0017660D01*
X0077192Y0017792D01*
X0077060Y0017926D01*
X0076932Y0018064D01*
X0076807Y0018206D01*
X0076686Y0018350D01*
X0076568Y0018497D01*
X0076454Y0018647D01*
X0076343Y0018800D01*
X0076237Y0018955D01*
X0076134Y0019113D01*
X0076035Y0019273D01*
X0075940Y0019436D01*
X0075849Y0019601D01*
X0075763Y0019768D01*
X0075680Y0019938D01*
X0075602Y0020109D01*
X0075527Y0020282D01*
X0075457Y0020457D01*
X0075392Y0020634D01*
X0075330Y0020812D01*
X0075274Y0020991D01*
X0075221Y0021172D01*
X0075173Y0021355D01*
X0075130Y0021538D01*
X0075091Y0021722D01*
X0075056Y0021908D01*
X0075026Y0022094D01*
X0075001Y0022280D01*
X0074980Y0022468D01*
X0074964Y0022655D01*
X0074952Y0022843D01*
X0074945Y0023032D01*
X0074943Y0023220D01*
X0075731Y0026566D02*
X0075814Y0026733D01*
X0075901Y0026897D01*
X0075993Y0027060D01*
X0076088Y0027220D01*
X0076187Y0027377D01*
X0076290Y0027532D01*
X0076397Y0027685D01*
X0076508Y0027835D01*
X0076622Y0027982D01*
X0076739Y0028127D01*
X0076860Y0028268D01*
X0076985Y0028407D01*
X0077112Y0028542D01*
X0077243Y0028675D01*
X0077378Y0028804D01*
X0077515Y0028930D01*
X0077655Y0029052D01*
X0077799Y0029171D01*
X0077945Y0029287D01*
X0078094Y0029398D01*
X0078245Y0029507D01*
X0078399Y0029611D01*
X0078556Y0029712D01*
X0078715Y0029809D01*
X0078876Y0029902D01*
X0079040Y0029991D01*
X0079206Y0030076D01*
X0079373Y0030157D01*
X0079543Y0030234D01*
X0079715Y0030307D01*
X0079888Y0030375D01*
X0080063Y0030439D01*
X0080239Y0030499D01*
X0080417Y0030555D01*
X0080596Y0030607D01*
X0080776Y0030654D01*
X0080957Y0030696D01*
X0081139Y0030735D01*
X0081323Y0030768D01*
X0081506Y0030798D01*
X0081691Y0030822D01*
X0081876Y0030843D01*
X0082062Y0030859D01*
X0082248Y0030870D01*
X0082434Y0030877D01*
X0082620Y0030879D01*
X0082806Y0030877D01*
X0082992Y0030870D01*
X0083178Y0030859D01*
X0083364Y0030843D01*
X0083549Y0030822D01*
X0083734Y0030798D01*
X0083917Y0030768D01*
X0084101Y0030735D01*
X0084283Y0030696D01*
X0084464Y0030654D01*
X0084644Y0030607D01*
X0084823Y0030555D01*
X0085001Y0030499D01*
X0085177Y0030439D01*
X0085352Y0030375D01*
X0085525Y0030307D01*
X0085697Y0030234D01*
X0085867Y0030157D01*
X0086034Y0030076D01*
X0086200Y0029991D01*
X0086364Y0029902D01*
X0086525Y0029809D01*
X0086684Y0029712D01*
X0086841Y0029611D01*
X0086995Y0029507D01*
X0087146Y0029398D01*
X0087295Y0029287D01*
X0087441Y0029171D01*
X0087585Y0029052D01*
X0087725Y0028930D01*
X0087862Y0028804D01*
X0087997Y0028675D01*
X0088128Y0028542D01*
X0088255Y0028407D01*
X0088380Y0028268D01*
X0088501Y0028127D01*
X0088618Y0027982D01*
X0088732Y0027835D01*
X0088843Y0027685D01*
X0088950Y0027532D01*
X0089053Y0027377D01*
X0089152Y0027220D01*
X0089247Y0027060D01*
X0089339Y0026897D01*
X0089426Y0026733D01*
X0089509Y0026566D01*
X0089509Y0019874D02*
X0089426Y0019707D01*
X0089339Y0019543D01*
X0089247Y0019380D01*
X0089152Y0019220D01*
X0089053Y0019063D01*
X0088950Y0018908D01*
X0088843Y0018755D01*
X0088732Y0018605D01*
X0088618Y0018458D01*
X0088501Y0018313D01*
X0088380Y0018172D01*
X0088255Y0018033D01*
X0088128Y0017898D01*
X0087997Y0017765D01*
X0087862Y0017636D01*
X0087725Y0017510D01*
X0087585Y0017388D01*
X0087441Y0017269D01*
X0087295Y0017153D01*
X0087146Y0017042D01*
X0086995Y0016933D01*
X0086841Y0016829D01*
X0086684Y0016728D01*
X0086525Y0016631D01*
X0086364Y0016538D01*
X0086200Y0016449D01*
X0086034Y0016364D01*
X0085867Y0016283D01*
X0085697Y0016206D01*
X0085525Y0016133D01*
X0085352Y0016065D01*
X0085177Y0016001D01*
X0085001Y0015941D01*
X0084823Y0015885D01*
X0084644Y0015833D01*
X0084464Y0015786D01*
X0084283Y0015744D01*
X0084101Y0015705D01*
X0083917Y0015672D01*
X0083734Y0015642D01*
X0083549Y0015618D01*
X0083364Y0015597D01*
X0083178Y0015581D01*
X0082992Y0015570D01*
X0082806Y0015563D01*
X0082620Y0015561D01*
X0082434Y0015563D01*
X0082248Y0015570D01*
X0082062Y0015581D01*
X0081876Y0015597D01*
X0081691Y0015618D01*
X0081506Y0015642D01*
X0081323Y0015672D01*
X0081139Y0015705D01*
X0080957Y0015744D01*
X0080776Y0015786D01*
X0080596Y0015833D01*
X0080417Y0015885D01*
X0080239Y0015941D01*
X0080063Y0016001D01*
X0079888Y0016065D01*
X0079715Y0016133D01*
X0079543Y0016206D01*
X0079373Y0016283D01*
X0079206Y0016364D01*
X0079040Y0016449D01*
X0078876Y0016538D01*
X0078715Y0016631D01*
X0078556Y0016728D01*
X0078399Y0016829D01*
X0078245Y0016933D01*
X0078094Y0017042D01*
X0077945Y0017153D01*
X0077799Y0017269D01*
X0077655Y0017388D01*
X0077515Y0017510D01*
X0077378Y0017636D01*
X0077243Y0017765D01*
X0077112Y0017898D01*
X0076985Y0018033D01*
X0076860Y0018172D01*
X0076739Y0018313D01*
X0076622Y0018458D01*
X0076508Y0018605D01*
X0076397Y0018755D01*
X0076290Y0018908D01*
X0076187Y0019063D01*
X0076088Y0019220D01*
X0075993Y0019380D01*
X0075901Y0019543D01*
X0075814Y0019707D01*
X0075731Y0019874D01*
X0049806Y0023240D02*
X0049808Y0023428D01*
X0049815Y0023617D01*
X0049827Y0023805D01*
X0049843Y0023992D01*
X0049864Y0024180D01*
X0049889Y0024366D01*
X0049919Y0024552D01*
X0049954Y0024738D01*
X0049993Y0024922D01*
X0050036Y0025105D01*
X0050084Y0025288D01*
X0050137Y0025469D01*
X0050193Y0025648D01*
X0050255Y0025826D01*
X0050320Y0026003D01*
X0050390Y0026178D01*
X0050465Y0026351D01*
X0050543Y0026522D01*
X0050626Y0026692D01*
X0050712Y0026859D01*
X0050803Y0027024D01*
X0050898Y0027187D01*
X0050997Y0027347D01*
X0051100Y0027505D01*
X0051206Y0027660D01*
X0051317Y0027813D01*
X0051431Y0027963D01*
X0051549Y0028110D01*
X0051670Y0028254D01*
X0051795Y0028396D01*
X0051923Y0028534D01*
X0052055Y0028668D01*
X0052189Y0028800D01*
X0052327Y0028928D01*
X0052469Y0029053D01*
X0052613Y0029174D01*
X0052760Y0029292D01*
X0052910Y0029406D01*
X0053063Y0029517D01*
X0053218Y0029623D01*
X0053376Y0029726D01*
X0053536Y0029825D01*
X0053699Y0029920D01*
X0053864Y0030011D01*
X0054031Y0030097D01*
X0054201Y0030180D01*
X0054372Y0030258D01*
X0054545Y0030333D01*
X0054720Y0030403D01*
X0054897Y0030468D01*
X0055075Y0030530D01*
X0055254Y0030586D01*
X0055435Y0030639D01*
X0055618Y0030687D01*
X0055801Y0030730D01*
X0055985Y0030769D01*
X0056171Y0030804D01*
X0056357Y0030834D01*
X0056543Y0030859D01*
X0056731Y0030880D01*
X0056918Y0030896D01*
X0057106Y0030908D01*
X0057295Y0030915D01*
X0057483Y0030917D01*
X0057671Y0030915D01*
X0057860Y0030908D01*
X0058048Y0030896D01*
X0058235Y0030880D01*
X0058423Y0030859D01*
X0058609Y0030834D01*
X0058795Y0030804D01*
X0058981Y0030769D01*
X0059165Y0030730D01*
X0059348Y0030687D01*
X0059531Y0030639D01*
X0059712Y0030586D01*
X0059891Y0030530D01*
X0060069Y0030468D01*
X0060246Y0030403D01*
X0060421Y0030333D01*
X0060594Y0030258D01*
X0060765Y0030180D01*
X0060935Y0030097D01*
X0061102Y0030011D01*
X0061267Y0029920D01*
X0061430Y0029825D01*
X0061590Y0029726D01*
X0061748Y0029623D01*
X0061903Y0029517D01*
X0062056Y0029406D01*
X0062206Y0029292D01*
X0062353Y0029174D01*
X0062497Y0029053D01*
X0062639Y0028928D01*
X0062777Y0028800D01*
X0062911Y0028668D01*
X0063043Y0028534D01*
X0063171Y0028396D01*
X0063296Y0028254D01*
X0063417Y0028110D01*
X0063535Y0027963D01*
X0063649Y0027813D01*
X0063760Y0027660D01*
X0063866Y0027505D01*
X0063969Y0027347D01*
X0064068Y0027187D01*
X0064163Y0027024D01*
X0064254Y0026859D01*
X0064340Y0026692D01*
X0064423Y0026522D01*
X0064501Y0026351D01*
X0064576Y0026178D01*
X0064646Y0026003D01*
X0064711Y0025826D01*
X0064773Y0025648D01*
X0064829Y0025469D01*
X0064882Y0025288D01*
X0064930Y0025105D01*
X0064973Y0024922D01*
X0065012Y0024738D01*
X0065047Y0024552D01*
X0065077Y0024366D01*
X0065102Y0024180D01*
X0065123Y0023992D01*
X0065139Y0023805D01*
X0065151Y0023617D01*
X0065158Y0023428D01*
X0065160Y0023240D01*
X0065158Y0023052D01*
X0065151Y0022863D01*
X0065139Y0022675D01*
X0065123Y0022488D01*
X0065102Y0022300D01*
X0065077Y0022114D01*
X0065047Y0021928D01*
X0065012Y0021742D01*
X0064973Y0021558D01*
X0064930Y0021375D01*
X0064882Y0021192D01*
X0064829Y0021011D01*
X0064773Y0020832D01*
X0064711Y0020654D01*
X0064646Y0020477D01*
X0064576Y0020302D01*
X0064501Y0020129D01*
X0064423Y0019958D01*
X0064340Y0019788D01*
X0064254Y0019621D01*
X0064163Y0019456D01*
X0064068Y0019293D01*
X0063969Y0019133D01*
X0063866Y0018975D01*
X0063760Y0018820D01*
X0063649Y0018667D01*
X0063535Y0018517D01*
X0063417Y0018370D01*
X0063296Y0018226D01*
X0063171Y0018084D01*
X0063043Y0017946D01*
X0062911Y0017812D01*
X0062777Y0017680D01*
X0062639Y0017552D01*
X0062497Y0017427D01*
X0062353Y0017306D01*
X0062206Y0017188D01*
X0062056Y0017074D01*
X0061903Y0016963D01*
X0061748Y0016857D01*
X0061590Y0016754D01*
X0061430Y0016655D01*
X0061267Y0016560D01*
X0061102Y0016469D01*
X0060935Y0016383D01*
X0060765Y0016300D01*
X0060594Y0016222D01*
X0060421Y0016147D01*
X0060246Y0016077D01*
X0060069Y0016012D01*
X0059891Y0015950D01*
X0059712Y0015894D01*
X0059531Y0015841D01*
X0059348Y0015793D01*
X0059165Y0015750D01*
X0058981Y0015711D01*
X0058795Y0015676D01*
X0058609Y0015646D01*
X0058423Y0015621D01*
X0058235Y0015600D01*
X0058048Y0015584D01*
X0057860Y0015572D01*
X0057671Y0015565D01*
X0057483Y0015563D01*
X0057295Y0015565D01*
X0057106Y0015572D01*
X0056918Y0015584D01*
X0056731Y0015600D01*
X0056543Y0015621D01*
X0056357Y0015646D01*
X0056171Y0015676D01*
X0055985Y0015711D01*
X0055801Y0015750D01*
X0055618Y0015793D01*
X0055435Y0015841D01*
X0055254Y0015894D01*
X0055075Y0015950D01*
X0054897Y0016012D01*
X0054720Y0016077D01*
X0054545Y0016147D01*
X0054372Y0016222D01*
X0054201Y0016300D01*
X0054031Y0016383D01*
X0053864Y0016469D01*
X0053699Y0016560D01*
X0053536Y0016655D01*
X0053376Y0016754D01*
X0053218Y0016857D01*
X0053063Y0016963D01*
X0052910Y0017074D01*
X0052760Y0017188D01*
X0052613Y0017306D01*
X0052469Y0017427D01*
X0052327Y0017552D01*
X0052189Y0017680D01*
X0052055Y0017812D01*
X0051923Y0017946D01*
X0051795Y0018084D01*
X0051670Y0018226D01*
X0051549Y0018370D01*
X0051431Y0018517D01*
X0051317Y0018667D01*
X0051206Y0018820D01*
X0051100Y0018975D01*
X0050997Y0019133D01*
X0050898Y0019293D01*
X0050803Y0019456D01*
X0050712Y0019621D01*
X0050626Y0019788D01*
X0050543Y0019958D01*
X0050465Y0020129D01*
X0050390Y0020302D01*
X0050320Y0020477D01*
X0050255Y0020654D01*
X0050193Y0020832D01*
X0050137Y0021011D01*
X0050084Y0021192D01*
X0050036Y0021375D01*
X0049993Y0021558D01*
X0049954Y0021742D01*
X0049919Y0021928D01*
X0049889Y0022114D01*
X0049864Y0022300D01*
X0049843Y0022488D01*
X0049827Y0022675D01*
X0049815Y0022863D01*
X0049808Y0023052D01*
X0049806Y0023240D01*
X0050594Y0019894D02*
X0050677Y0019727D01*
X0050764Y0019563D01*
X0050856Y0019400D01*
X0050951Y0019240D01*
X0051050Y0019083D01*
X0051153Y0018928D01*
X0051260Y0018775D01*
X0051371Y0018625D01*
X0051485Y0018478D01*
X0051602Y0018333D01*
X0051723Y0018192D01*
X0051848Y0018053D01*
X0051975Y0017918D01*
X0052106Y0017785D01*
X0052241Y0017656D01*
X0052378Y0017530D01*
X0052518Y0017408D01*
X0052662Y0017289D01*
X0052808Y0017173D01*
X0052957Y0017062D01*
X0053108Y0016953D01*
X0053262Y0016849D01*
X0053419Y0016748D01*
X0053578Y0016651D01*
X0053739Y0016558D01*
X0053903Y0016469D01*
X0054069Y0016384D01*
X0054236Y0016303D01*
X0054406Y0016226D01*
X0054578Y0016153D01*
X0054751Y0016085D01*
X0054926Y0016021D01*
X0055102Y0015961D01*
X0055280Y0015905D01*
X0055459Y0015853D01*
X0055639Y0015806D01*
X0055820Y0015764D01*
X0056002Y0015725D01*
X0056186Y0015692D01*
X0056369Y0015662D01*
X0056554Y0015638D01*
X0056739Y0015617D01*
X0056925Y0015601D01*
X0057111Y0015590D01*
X0057297Y0015583D01*
X0057483Y0015581D01*
X0057669Y0015583D01*
X0057855Y0015590D01*
X0058041Y0015601D01*
X0058227Y0015617D01*
X0058412Y0015638D01*
X0058597Y0015662D01*
X0058780Y0015692D01*
X0058964Y0015725D01*
X0059146Y0015764D01*
X0059327Y0015806D01*
X0059507Y0015853D01*
X0059686Y0015905D01*
X0059864Y0015961D01*
X0060040Y0016021D01*
X0060215Y0016085D01*
X0060388Y0016153D01*
X0060560Y0016226D01*
X0060730Y0016303D01*
X0060897Y0016384D01*
X0061063Y0016469D01*
X0061227Y0016558D01*
X0061388Y0016651D01*
X0061547Y0016748D01*
X0061704Y0016849D01*
X0061858Y0016953D01*
X0062009Y0017062D01*
X0062158Y0017173D01*
X0062304Y0017289D01*
X0062448Y0017408D01*
X0062588Y0017530D01*
X0062725Y0017656D01*
X0062860Y0017785D01*
X0062991Y0017918D01*
X0063118Y0018053D01*
X0063243Y0018192D01*
X0063364Y0018333D01*
X0063481Y0018478D01*
X0063595Y0018625D01*
X0063706Y0018775D01*
X0063813Y0018928D01*
X0063916Y0019083D01*
X0064015Y0019240D01*
X0064110Y0019400D01*
X0064202Y0019563D01*
X0064289Y0019727D01*
X0064372Y0019894D01*
X0110990Y0020420D02*
X0111724Y0021154D01*
X0111724Y0018952D01*
X0110990Y0018952D02*
X0112458Y0018952D01*
X0113384Y0018952D02*
X0113384Y0021154D01*
X0114485Y0020420D02*
X0113384Y0019686D01*
X0114485Y0018952D01*
X0132683Y0019724D02*
X0133050Y0019357D01*
X0133784Y0019357D01*
X0134151Y0019724D01*
X0134151Y0021192D01*
X0133784Y0021559D01*
X0133050Y0021559D01*
X0132683Y0021192D01*
X0132683Y0019724D01*
X0135077Y0019357D02*
X0135077Y0021559D01*
X0136178Y0021559D01*
X0136545Y0021192D01*
X0136545Y0020458D01*
X0136178Y0020091D01*
X0135077Y0020091D01*
X0137471Y0020458D02*
X0138939Y0020458D01*
X0138939Y0020825D02*
X0138939Y0019357D01*
X0139865Y0019357D02*
X0141333Y0020825D01*
X0141333Y0021192D01*
X0140966Y0021559D01*
X0140232Y0021559D01*
X0139865Y0021192D01*
X0138939Y0020825D02*
X0138205Y0021559D01*
X0137471Y0020825D01*
X0137471Y0019357D01*
X0139865Y0019357D02*
X0141333Y0019357D01*
X0142259Y0019357D02*
X0143727Y0019357D01*
X0142993Y0019357D02*
X0142993Y0021559D01*
X0142259Y0020825D01*
X0144653Y0021192D02*
X0145020Y0021559D01*
X0145754Y0021559D01*
X0146121Y0021192D01*
X0146121Y0020825D01*
X0145754Y0020458D01*
X0146121Y0020091D01*
X0146121Y0019724D01*
X0145754Y0019357D01*
X0145020Y0019357D01*
X0144653Y0019724D01*
X0145387Y0020458D02*
X0145754Y0020458D01*
X0147047Y0020458D02*
X0148148Y0021559D01*
X0148148Y0019357D01*
X0148515Y0020458D02*
X0147047Y0020458D01*
X0149441Y0019724D02*
X0149808Y0019357D01*
X0150542Y0019357D01*
X0150909Y0019724D01*
X0150909Y0021559D01*
X0151835Y0020825D02*
X0152569Y0021559D01*
X0153303Y0020825D01*
X0153303Y0019357D01*
X0153303Y0020458D02*
X0151835Y0020458D01*
X0151835Y0020825D02*
X0151835Y0019357D01*
X0149441Y0019724D02*
X0149441Y0021559D01*
X0233641Y0020041D02*
X0233641Y0019307D01*
X0234008Y0018941D01*
X0233641Y0018014D02*
X0233641Y0017280D01*
X0233641Y0017647D02*
X0235476Y0017647D01*
X0235843Y0017280D01*
X0235843Y0016913D01*
X0235476Y0016546D01*
X0235843Y0018941D02*
X0234375Y0020408D01*
X0234008Y0020408D01*
X0233641Y0020041D01*
X0235843Y0020408D02*
X0235843Y0018941D01*
X0309797Y0015835D02*
X0311264Y0015835D01*
X0320253Y0015894D02*
X0321721Y0015894D01*
X0320987Y0016628D02*
X0320987Y0015160D01*
X0337919Y0015271D02*
X0339387Y0015271D01*
X0338653Y0015271D02*
X0338653Y0017473D01*
X0337919Y0016739D01*
X0340313Y0017106D02*
X0340313Y0015638D01*
X0341781Y0017106D01*
X0341781Y0015638D01*
X0341414Y0015271D01*
X0340680Y0015271D01*
X0340313Y0015638D01*
X0342707Y0015271D02*
X0342707Y0017473D01*
X0343441Y0016739D01*
X0344175Y0017473D01*
X0344175Y0015271D01*
X0341781Y0017106D02*
X0341414Y0017473D01*
X0340680Y0017473D01*
X0340313Y0017106D01*
X0330095Y0020988D02*
X0329728Y0020621D01*
X0330095Y0020988D02*
X0330095Y0021355D01*
X0329728Y0021722D01*
X0327893Y0021722D01*
X0327893Y0022088D02*
X0327893Y0021355D01*
X0328627Y0023015D02*
X0327893Y0023749D01*
X0330095Y0023749D01*
X0330095Y0023015D02*
X0330095Y0024483D01*
X0338470Y0023918D02*
X0339571Y0023918D01*
X0339938Y0024285D01*
X0339938Y0025019D01*
X0339571Y0025386D01*
X0338470Y0025386D01*
X0338470Y0023184D01*
X0339204Y0023918D02*
X0339938Y0023184D01*
X0340864Y0023184D02*
X0342332Y0024652D01*
X0342332Y0025019D01*
X0341965Y0025386D01*
X0341231Y0025386D01*
X0340864Y0025019D01*
X0343258Y0025386D02*
X0344726Y0025386D01*
X0344726Y0025019D01*
X0343258Y0023551D01*
X0343258Y0023184D01*
X0342332Y0023184D02*
X0340864Y0023184D01*
X0354454Y0024024D02*
X0354821Y0023657D01*
X0355555Y0023657D01*
X0355922Y0024024D01*
X0356848Y0023657D02*
X0358316Y0023657D01*
X0357582Y0023657D02*
X0357582Y0025859D01*
X0356848Y0025125D01*
X0355922Y0025492D02*
X0355555Y0025859D01*
X0354821Y0025859D01*
X0354454Y0025492D01*
X0354454Y0024024D01*
X0359242Y0024024D02*
X0359609Y0023657D01*
X0360343Y0023657D01*
X0360710Y0024024D01*
X0360710Y0024391D01*
X0360343Y0024758D01*
X0359609Y0024758D01*
X0359242Y0025125D01*
X0359242Y0025492D01*
X0359609Y0025859D01*
X0360343Y0025859D01*
X0360710Y0025492D01*
X0360710Y0025125D01*
X0360343Y0024758D01*
X0359609Y0024758D02*
X0359242Y0024391D01*
X0359242Y0024024D01*
X0369966Y0024312D02*
X0371067Y0024312D01*
X0371434Y0024679D01*
X0371434Y0025413D01*
X0371067Y0025780D01*
X0369966Y0025780D01*
X0369966Y0023578D01*
X0370700Y0024312D02*
X0371434Y0023578D01*
X0372360Y0023578D02*
X0373828Y0025046D01*
X0373828Y0025413D01*
X0373461Y0025780D01*
X0372727Y0025780D01*
X0372360Y0025413D01*
X0374754Y0025413D02*
X0375121Y0025780D01*
X0375855Y0025780D01*
X0376222Y0025413D01*
X0376222Y0025046D01*
X0375855Y0024679D01*
X0375121Y0024679D01*
X0374754Y0025046D01*
X0374754Y0025413D01*
X0375121Y0024679D02*
X0374754Y0024312D01*
X0374754Y0023945D01*
X0375121Y0023578D01*
X0375855Y0023578D01*
X0376222Y0023945D01*
X0376222Y0024312D01*
X0375855Y0024679D01*
X0373828Y0023578D02*
X0372360Y0023578D01*
X0382805Y0024834D02*
X0382805Y0025568D01*
X0382805Y0025201D02*
X0385007Y0025201D01*
X0385007Y0024834D02*
X0385007Y0025568D01*
X0384640Y0026430D02*
X0385007Y0026797D01*
X0385007Y0027531D01*
X0384640Y0027898D01*
X0384640Y0028824D02*
X0385007Y0028824D01*
X0384640Y0028824D02*
X0383172Y0030292D01*
X0382805Y0030292D01*
X0382805Y0028824D01*
X0383172Y0027898D02*
X0382805Y0027531D01*
X0382805Y0026797D01*
X0383172Y0026430D01*
X0384640Y0026430D01*
X0374810Y0029812D02*
X0374810Y0032014D01*
X0375910Y0032014D01*
X0376277Y0031647D01*
X0376277Y0030913D01*
X0375910Y0030546D01*
X0374810Y0030546D01*
X0373883Y0030546D02*
X0372415Y0030546D01*
X0373883Y0032014D01*
X0373883Y0032381D01*
X0373516Y0032748D01*
X0372782Y0032748D01*
X0372415Y0032381D01*
X0370292Y0032381D02*
X0369925Y0032748D01*
X0369191Y0032748D01*
X0368824Y0032381D01*
X0370292Y0032381D02*
X0370292Y0032014D01*
X0368824Y0030546D01*
X0370292Y0030546D01*
X0371218Y0030546D02*
X0371585Y0030546D01*
X0371585Y0030913D01*
X0371218Y0030913D01*
X0371218Y0030546D01*
X0377204Y0030546D02*
X0377204Y0032748D01*
X0378671Y0032748D01*
X0377938Y0031647D02*
X0377204Y0031647D01*
X0363671Y0032709D02*
X0362204Y0032709D01*
X0362204Y0030507D01*
X0361277Y0030507D02*
X0361277Y0031975D01*
X0362204Y0031608D02*
X0362938Y0031608D01*
X0361277Y0030507D02*
X0360177Y0030507D01*
X0359810Y0030874D01*
X0359810Y0031975D01*
X0358883Y0030507D02*
X0357415Y0030507D01*
X0358149Y0030507D02*
X0358149Y0032709D01*
X0357415Y0031975D01*
X0356585Y0030874D02*
X0356585Y0030507D01*
X0356218Y0030507D01*
X0356218Y0030874D01*
X0356585Y0030874D01*
X0355292Y0030874D02*
X0354925Y0030507D01*
X0354191Y0030507D01*
X0353824Y0030874D01*
X0355292Y0032342D01*
X0355292Y0030874D01*
X0353824Y0030874D02*
X0353824Y0032342D01*
X0354191Y0032709D01*
X0354925Y0032709D01*
X0355292Y0032342D01*
X0343201Y0035978D02*
X0343201Y0038180D01*
X0342100Y0037079D01*
X0343568Y0037079D01*
X0341174Y0037446D02*
X0341174Y0037813D01*
X0340807Y0038180D01*
X0340073Y0038180D01*
X0339706Y0037813D01*
X0338779Y0037813D02*
X0338413Y0038180D01*
X0337679Y0038180D01*
X0337312Y0037813D01*
X0337312Y0036345D01*
X0337679Y0035978D01*
X0338413Y0035978D01*
X0338779Y0036345D01*
X0339706Y0035978D02*
X0341174Y0037446D01*
X0341174Y0035978D02*
X0339706Y0035978D01*
X0339683Y0039562D02*
X0340050Y0039562D01*
X0340050Y0039929D01*
X0339683Y0039929D01*
X0339683Y0039562D01*
X0338757Y0039562D02*
X0337289Y0039562D01*
X0338757Y0041030D01*
X0338757Y0041397D01*
X0338390Y0041764D01*
X0337656Y0041764D01*
X0337289Y0041397D01*
X0340880Y0041397D02*
X0341247Y0041764D01*
X0341981Y0041764D01*
X0342348Y0041397D01*
X0342348Y0041030D01*
X0340880Y0039562D01*
X0342348Y0039562D01*
X0343274Y0039562D02*
X0343274Y0041764D01*
X0344375Y0041030D02*
X0343274Y0040296D01*
X0344375Y0039562D01*
X0355399Y0039299D02*
X0355766Y0038932D01*
X0356500Y0038932D01*
X0356867Y0039299D01*
X0357793Y0038932D02*
X0359261Y0040400D01*
X0359261Y0040767D01*
X0358894Y0041134D01*
X0358160Y0041134D01*
X0357793Y0040767D01*
X0356867Y0040767D02*
X0356500Y0041134D01*
X0355766Y0041134D01*
X0355399Y0040767D01*
X0355399Y0039299D01*
X0357793Y0038932D02*
X0359261Y0038932D01*
X0360187Y0038932D02*
X0361655Y0040400D01*
X0361655Y0040767D01*
X0361288Y0041134D01*
X0360554Y0041134D01*
X0360187Y0040767D01*
X0360187Y0038932D02*
X0361655Y0038932D01*
X0370399Y0039732D02*
X0370399Y0041200D01*
X0370766Y0041567D01*
X0371500Y0041567D01*
X0371867Y0041200D01*
X0372793Y0040833D02*
X0373527Y0041567D01*
X0373527Y0039365D01*
X0372793Y0039365D02*
X0374261Y0039365D01*
X0375187Y0039732D02*
X0375554Y0039365D01*
X0376288Y0039365D01*
X0376655Y0039732D01*
X0376655Y0041200D01*
X0376288Y0041567D01*
X0375554Y0041567D01*
X0375187Y0041200D01*
X0375187Y0040833D01*
X0375554Y0040466D01*
X0376655Y0040466D01*
X0371867Y0039732D02*
X0371500Y0039365D01*
X0370766Y0039365D01*
X0370399Y0039732D01*
X0377790Y0041868D02*
X0377790Y0044070D01*
X0376690Y0042969D01*
X0378157Y0042969D01*
X0379084Y0042235D02*
X0379084Y0041868D01*
X0379084Y0042235D02*
X0380551Y0043703D01*
X0380551Y0044070D01*
X0379084Y0044070D01*
X0381478Y0043703D02*
X0381845Y0044070D01*
X0382579Y0044070D01*
X0382946Y0043703D01*
X0381478Y0042235D01*
X0381845Y0041868D01*
X0382579Y0041868D01*
X0382946Y0042235D01*
X0382946Y0043703D01*
X0381478Y0043703D02*
X0381478Y0042235D01*
X0394234Y0043869D02*
X0395702Y0043869D01*
X0394968Y0043869D02*
X0394968Y0046071D01*
X0394234Y0045337D01*
X0396628Y0046071D02*
X0397362Y0045337D01*
X0398096Y0046071D01*
X0398096Y0043869D01*
X0396628Y0043869D02*
X0396628Y0046071D01*
X0396520Y0052574D02*
X0396887Y0052941D01*
X0396887Y0053308D01*
X0396520Y0053675D01*
X0395419Y0053675D01*
X0395419Y0052941D01*
X0395786Y0052574D01*
X0396520Y0052574D01*
X0395419Y0053675D02*
X0396153Y0054409D01*
X0396887Y0054776D01*
X0394493Y0054409D02*
X0394493Y0053675D01*
X0394126Y0053308D01*
X0393025Y0053308D01*
X0393025Y0052574D02*
X0393025Y0054776D01*
X0394126Y0054776D01*
X0394493Y0054409D01*
X0393759Y0053308D02*
X0394493Y0052574D01*
X0384768Y0054281D02*
X0383300Y0054281D01*
X0384034Y0054281D02*
X0384034Y0056483D01*
X0383300Y0055749D01*
X0382374Y0054281D02*
X0380906Y0054281D01*
X0381640Y0054281D02*
X0381640Y0056483D01*
X0380906Y0055749D01*
X0379980Y0055382D02*
X0379613Y0055015D01*
X0378512Y0055015D01*
X0378512Y0054281D02*
X0378512Y0056483D01*
X0379613Y0056483D01*
X0379980Y0056116D01*
X0379980Y0055382D01*
X0379246Y0055015D02*
X0379980Y0054281D01*
X0372430Y0057471D02*
X0372063Y0057104D01*
X0371329Y0057104D01*
X0370962Y0057471D01*
X0370962Y0057838D01*
X0371329Y0058205D01*
X0372063Y0058205D01*
X0372430Y0057838D01*
X0372430Y0057471D01*
X0372063Y0058205D02*
X0372430Y0058572D01*
X0372430Y0058939D01*
X0372063Y0059306D01*
X0371329Y0059306D01*
X0370962Y0058939D01*
X0370962Y0058572D01*
X0371329Y0058205D01*
X0370036Y0058939D02*
X0369669Y0059306D01*
X0368935Y0059306D01*
X0368568Y0058939D01*
X0368568Y0057471D01*
X0368935Y0057104D01*
X0369669Y0057104D01*
X0370036Y0057471D01*
X0367706Y0057104D02*
X0366972Y0057104D01*
X0367339Y0057104D02*
X0367339Y0059306D01*
X0366972Y0059306D02*
X0367706Y0059306D01*
X0362381Y0059518D02*
X0362381Y0060251D01*
X0362014Y0060618D01*
X0361647Y0060618D01*
X0361280Y0060251D01*
X0361280Y0059518D01*
X0360913Y0059151D01*
X0360546Y0059151D01*
X0360179Y0059518D01*
X0360179Y0060251D01*
X0360546Y0060618D01*
X0360913Y0060618D01*
X0361280Y0060251D01*
X0361280Y0059518D02*
X0361647Y0059151D01*
X0362014Y0059151D01*
X0362381Y0059518D01*
X0362014Y0058224D02*
X0362381Y0057857D01*
X0362381Y0057123D01*
X0362014Y0056756D01*
X0361280Y0057490D02*
X0361280Y0057857D01*
X0361647Y0058224D01*
X0362014Y0058224D01*
X0361280Y0057857D02*
X0360913Y0058224D01*
X0360546Y0058224D01*
X0360179Y0057857D01*
X0360179Y0057123D01*
X0360546Y0056756D01*
X0360546Y0055830D02*
X0362014Y0054362D01*
X0362381Y0054362D01*
X0361280Y0053436D02*
X0360546Y0053436D01*
X0360179Y0053069D01*
X0360179Y0051968D01*
X0362381Y0051968D01*
X0361647Y0051968D02*
X0361647Y0053069D01*
X0361280Y0053436D01*
X0360179Y0054362D02*
X0360179Y0055830D01*
X0360546Y0055830D01*
X0345826Y0055473D02*
X0345826Y0054739D01*
X0345826Y0055106D02*
X0343624Y0055106D01*
X0343624Y0054739D02*
X0343624Y0055473D01*
X0343991Y0056335D02*
X0345459Y0056335D01*
X0345826Y0056702D01*
X0345826Y0057436D01*
X0345459Y0057803D01*
X0345826Y0058729D02*
X0345826Y0060197D01*
X0345826Y0059463D02*
X0343624Y0059463D01*
X0344358Y0058729D01*
X0343991Y0057803D02*
X0343624Y0057436D01*
X0343624Y0056702D01*
X0343991Y0056335D01*
X0333040Y0052876D02*
X0332673Y0053243D01*
X0331939Y0053243D01*
X0331572Y0052876D01*
X0331572Y0051408D01*
X0333040Y0052876D01*
X0333040Y0051408D01*
X0332673Y0051041D01*
X0331939Y0051041D01*
X0331572Y0051408D01*
X0330646Y0051408D02*
X0330279Y0051041D01*
X0329545Y0051041D01*
X0329178Y0051408D01*
X0328252Y0051408D02*
X0327885Y0051041D01*
X0327151Y0051041D01*
X0326784Y0051408D01*
X0327518Y0052142D02*
X0327885Y0052142D01*
X0328252Y0051775D01*
X0328252Y0051408D01*
X0327885Y0052142D02*
X0328252Y0052509D01*
X0328252Y0052876D01*
X0327885Y0053243D01*
X0327151Y0053243D01*
X0326784Y0052876D01*
X0329178Y0052876D02*
X0329545Y0053243D01*
X0330279Y0053243D01*
X0330646Y0052876D01*
X0330646Y0052509D01*
X0330279Y0052142D01*
X0330646Y0051775D01*
X0330646Y0051408D01*
X0330279Y0052142D02*
X0329912Y0052142D01*
X0337683Y0051370D02*
X0338784Y0051370D01*
X0339151Y0051003D01*
X0339151Y0050269D01*
X0338784Y0049902D01*
X0337683Y0049902D01*
X0337683Y0049169D02*
X0337683Y0051370D01*
X0340077Y0051003D02*
X0340444Y0051370D01*
X0341178Y0051370D01*
X0341545Y0051003D01*
X0341545Y0050636D01*
X0340077Y0049169D01*
X0341545Y0049169D01*
X0342471Y0049535D02*
X0342838Y0049169D01*
X0343572Y0049169D01*
X0343939Y0049535D01*
X0343939Y0049902D01*
X0343572Y0050269D01*
X0342471Y0050269D01*
X0342471Y0049535D01*
X0342471Y0050269D02*
X0343205Y0051003D01*
X0343939Y0051370D01*
X0339151Y0049169D02*
X0338417Y0049902D01*
X0319906Y0045805D02*
X0319906Y0045438D01*
X0319539Y0045071D01*
X0319906Y0044704D01*
X0319906Y0044337D01*
X0319539Y0043970D01*
X0318805Y0043970D01*
X0318438Y0044337D01*
X0317512Y0043970D02*
X0316044Y0043970D01*
X0317512Y0045438D01*
X0317512Y0045805D01*
X0317145Y0046172D01*
X0316411Y0046172D01*
X0316044Y0045805D01*
X0315118Y0045805D02*
X0314751Y0046172D01*
X0314017Y0046172D01*
X0313650Y0045805D01*
X0313650Y0044337D01*
X0314017Y0043970D01*
X0314751Y0043970D01*
X0315118Y0044337D01*
X0319172Y0045071D02*
X0319539Y0045071D01*
X0319906Y0045805D02*
X0319539Y0046172D01*
X0318805Y0046172D01*
X0318438Y0045805D01*
X0298753Y0041845D02*
X0298753Y0039643D01*
X0297285Y0039643D02*
X0297285Y0041845D01*
X0297285Y0040744D02*
X0298753Y0040744D01*
X0296359Y0041111D02*
X0296359Y0039643D01*
X0295258Y0039643D01*
X0294891Y0040010D01*
X0294891Y0041111D01*
X0293965Y0041478D02*
X0292497Y0040010D01*
X0292497Y0039643D01*
X0291667Y0039643D02*
X0291667Y0040010D01*
X0291300Y0040010D01*
X0291300Y0039643D01*
X0291667Y0039643D01*
X0290373Y0039643D02*
X0288906Y0039643D01*
X0290373Y0041111D01*
X0290373Y0041478D01*
X0290006Y0041845D01*
X0289273Y0041845D01*
X0288906Y0041478D01*
X0292497Y0041845D02*
X0293965Y0041845D01*
X0293965Y0041478D01*
X0278280Y0043554D02*
X0277913Y0043187D01*
X0277179Y0043187D01*
X0276812Y0043554D01*
X0275886Y0043187D02*
X0274418Y0043187D01*
X0274418Y0045388D01*
X0276812Y0045022D02*
X0277179Y0045388D01*
X0277913Y0045388D01*
X0278280Y0045022D01*
X0278280Y0044655D01*
X0277913Y0044288D01*
X0278280Y0043921D01*
X0278280Y0043554D01*
X0277913Y0044288D02*
X0277546Y0044288D01*
X0256191Y0042158D02*
X0254723Y0042158D01*
X0254723Y0039956D01*
X0253797Y0039956D02*
X0253797Y0041424D01*
X0254723Y0041057D02*
X0255457Y0041057D01*
X0253797Y0039956D02*
X0252696Y0039956D01*
X0252329Y0040323D01*
X0252329Y0041424D01*
X0251403Y0041791D02*
X0249935Y0040323D01*
X0249935Y0039956D01*
X0249105Y0039956D02*
X0248738Y0039956D01*
X0248738Y0040323D01*
X0249105Y0040323D01*
X0249105Y0039956D01*
X0247445Y0039956D02*
X0247445Y0042158D01*
X0246344Y0041057D01*
X0247812Y0041057D01*
X0249935Y0042158D02*
X0251403Y0042158D01*
X0251403Y0041791D01*
X0251387Y0048381D02*
X0249919Y0048381D01*
X0251387Y0049849D01*
X0251387Y0050216D01*
X0251020Y0050583D01*
X0250286Y0050583D01*
X0249919Y0050216D01*
X0248993Y0050216D02*
X0248626Y0050583D01*
X0247892Y0050583D01*
X0247525Y0050216D01*
X0247525Y0048748D01*
X0247892Y0048381D01*
X0248626Y0048381D01*
X0248993Y0048748D01*
X0252313Y0048748D02*
X0252313Y0048381D01*
X0252313Y0048748D02*
X0253781Y0050216D01*
X0253781Y0050583D01*
X0252313Y0050583D01*
X0252317Y0053574D02*
X0252317Y0055776D01*
X0251391Y0055776D02*
X0249923Y0055776D01*
X0249923Y0054675D01*
X0250657Y0055042D01*
X0251024Y0055042D01*
X0251391Y0054675D01*
X0251391Y0053941D01*
X0251024Y0053574D01*
X0250290Y0053574D01*
X0249923Y0053941D01*
X0248997Y0053574D02*
X0247529Y0053574D01*
X0248263Y0053574D02*
X0248263Y0055776D01*
X0247529Y0055042D01*
X0252317Y0054308D02*
X0253418Y0055042D01*
X0252317Y0054308D02*
X0253418Y0053574D01*
X0265882Y0062782D02*
X0266249Y0062415D01*
X0266983Y0062415D01*
X0267350Y0062782D01*
X0267350Y0063149D01*
X0266983Y0063516D01*
X0265882Y0063516D01*
X0265882Y0062782D01*
X0265882Y0063516D02*
X0266616Y0064250D01*
X0267350Y0064617D01*
X0268276Y0064250D02*
X0268276Y0063883D01*
X0268643Y0063516D01*
X0269377Y0063516D01*
X0269744Y0063149D01*
X0269744Y0062782D01*
X0269377Y0062415D01*
X0268643Y0062415D01*
X0268276Y0062782D01*
X0268276Y0063149D01*
X0268643Y0063516D01*
X0269377Y0063516D02*
X0269744Y0063883D01*
X0269744Y0064250D01*
X0269377Y0064617D01*
X0268643Y0064617D01*
X0268276Y0064250D01*
X0270670Y0063883D02*
X0270670Y0062782D01*
X0271037Y0062415D01*
X0272138Y0062415D01*
X0272138Y0063883D01*
X0273064Y0063516D02*
X0273798Y0063516D01*
X0273064Y0064617D02*
X0274532Y0064617D01*
X0273064Y0064617D02*
X0273064Y0062415D01*
X0283640Y0065015D02*
X0283640Y0065749D01*
X0283640Y0065382D02*
X0285842Y0065382D01*
X0285842Y0065015D02*
X0285842Y0065749D01*
X0285475Y0066611D02*
X0285842Y0066978D01*
X0285842Y0067712D01*
X0285475Y0068079D01*
X0285475Y0069005D02*
X0285842Y0069372D01*
X0285842Y0070106D01*
X0285475Y0070473D01*
X0284007Y0070473D01*
X0283640Y0070106D01*
X0283640Y0069372D01*
X0284007Y0069005D01*
X0284374Y0069005D01*
X0284741Y0069372D01*
X0284741Y0070473D01*
X0284007Y0068079D02*
X0283640Y0067712D01*
X0283640Y0066978D01*
X0284007Y0066611D01*
X0285475Y0066611D01*
X0300400Y0066621D02*
X0301501Y0065520D01*
X0301501Y0066988D01*
X0301501Y0067914D02*
X0301134Y0068648D01*
X0301134Y0069015D01*
X0301501Y0069382D01*
X0302235Y0069382D01*
X0302602Y0069015D01*
X0302602Y0068281D01*
X0302235Y0067914D01*
X0301501Y0067914D02*
X0300400Y0067914D01*
X0300400Y0069382D01*
X0300767Y0070308D02*
X0300400Y0070675D01*
X0300400Y0071409D01*
X0300767Y0071776D01*
X0302235Y0070308D01*
X0302602Y0070675D01*
X0302602Y0071409D01*
X0302235Y0071776D01*
X0300767Y0071776D01*
X0300767Y0072702D02*
X0300400Y0073069D01*
X0300400Y0073803D01*
X0300767Y0074170D01*
X0301134Y0074170D01*
X0301501Y0073803D01*
X0301868Y0074170D01*
X0302235Y0074170D01*
X0302602Y0073803D01*
X0302602Y0073069D01*
X0302235Y0072702D01*
X0301501Y0073436D02*
X0301501Y0073803D01*
X0302235Y0070308D02*
X0300767Y0070308D01*
X0300400Y0066621D02*
X0302602Y0066621D01*
X0302235Y0064593D02*
X0302602Y0064226D01*
X0302602Y0063493D01*
X0302235Y0063126D01*
X0300767Y0063126D01*
X0300400Y0063493D01*
X0300400Y0064226D01*
X0300767Y0064593D01*
X0309142Y0062825D02*
X0310243Y0062825D01*
X0310610Y0062459D01*
X0310610Y0061725D01*
X0310243Y0061358D01*
X0309142Y0061358D01*
X0309876Y0061358D02*
X0310610Y0060624D01*
X0311536Y0060624D02*
X0313004Y0062092D01*
X0313004Y0062459D01*
X0312637Y0062825D01*
X0311903Y0062825D01*
X0311536Y0062459D01*
X0311536Y0060624D02*
X0313004Y0060624D01*
X0313930Y0061725D02*
X0315398Y0061725D01*
X0315031Y0062825D02*
X0313930Y0061725D01*
X0315031Y0062825D02*
X0315031Y0060624D01*
X0309142Y0060624D02*
X0309142Y0062825D01*
X0302602Y0061832D02*
X0302602Y0061098D01*
X0302235Y0060731D01*
X0301501Y0061098D02*
X0301501Y0061832D01*
X0301868Y0062199D01*
X0302235Y0062199D01*
X0302602Y0061832D01*
X0301501Y0061098D02*
X0301134Y0060731D01*
X0300767Y0060731D01*
X0300400Y0061098D01*
X0300400Y0061832D01*
X0300767Y0062199D01*
X0326142Y0061759D02*
X0327243Y0061759D01*
X0327610Y0062126D01*
X0327610Y0062860D01*
X0327243Y0063227D01*
X0326142Y0063227D01*
X0326142Y0061025D01*
X0326876Y0061759D02*
X0327610Y0061025D01*
X0328536Y0061025D02*
X0330004Y0062493D01*
X0330004Y0062860D01*
X0329637Y0063227D01*
X0328903Y0063227D01*
X0328536Y0062860D01*
X0330930Y0063227D02*
X0330930Y0062126D01*
X0331664Y0062493D01*
X0332031Y0062493D01*
X0332398Y0062126D01*
X0332398Y0061392D01*
X0332031Y0061025D01*
X0331297Y0061025D01*
X0330930Y0061392D01*
X0330004Y0061025D02*
X0328536Y0061025D01*
X0330930Y0063227D02*
X0332398Y0063227D01*
X0343624Y0062224D02*
X0343624Y0061490D01*
X0343991Y0061123D01*
X0345459Y0061123D01*
X0343991Y0062591D01*
X0345459Y0062591D01*
X0345826Y0062224D01*
X0345826Y0061490D01*
X0345459Y0061123D01*
X0343991Y0062591D02*
X0343624Y0062224D01*
X0360179Y0061912D02*
X0360546Y0061545D01*
X0360179Y0061912D02*
X0360179Y0062646D01*
X0360546Y0063012D01*
X0360913Y0063012D01*
X0361280Y0062646D01*
X0361647Y0063012D01*
X0362014Y0063012D01*
X0362381Y0062646D01*
X0362381Y0061912D01*
X0362014Y0061545D01*
X0361280Y0062279D02*
X0361280Y0062646D01*
X0360913Y0063939D02*
X0360179Y0064673D01*
X0362381Y0064673D01*
X0362381Y0063939D02*
X0362381Y0065407D01*
X0362537Y0068578D02*
X0361437Y0068578D01*
X0361437Y0070780D01*
X0362537Y0070780D01*
X0362904Y0070413D01*
X0362904Y0070046D01*
X0362537Y0069679D01*
X0361437Y0069679D01*
X0362537Y0069679D02*
X0362904Y0069312D01*
X0362904Y0068945D01*
X0362537Y0068578D01*
X0363831Y0068945D02*
X0364198Y0068578D01*
X0364931Y0068578D01*
X0365298Y0068945D01*
X0365298Y0070413D01*
X0364931Y0070780D01*
X0364198Y0070780D01*
X0363831Y0070413D01*
X0363831Y0068945D01*
X0364565Y0069312D02*
X0365298Y0068578D01*
X0366225Y0068578D02*
X0367693Y0070046D01*
X0367693Y0070413D01*
X0367326Y0070780D01*
X0366592Y0070780D01*
X0366225Y0070413D01*
X0368619Y0070413D02*
X0368619Y0070046D01*
X0368986Y0069679D01*
X0370087Y0069679D01*
X0370087Y0068945D02*
X0370087Y0070413D01*
X0369720Y0070780D01*
X0368986Y0070780D01*
X0368619Y0070413D01*
X0371013Y0070780D02*
X0372481Y0070780D01*
X0372481Y0070413D01*
X0371013Y0068945D01*
X0371013Y0068578D01*
X0370087Y0068945D02*
X0369720Y0068578D01*
X0368986Y0068578D01*
X0368619Y0068945D01*
X0367693Y0068578D02*
X0366225Y0068578D01*
X0373407Y0068578D02*
X0374875Y0070780D01*
X0373407Y0070780D02*
X0374875Y0068578D01*
X0391356Y0070881D02*
X0391356Y0073083D01*
X0392457Y0073083D01*
X0392824Y0072716D01*
X0392824Y0071982D01*
X0392457Y0071615D01*
X0391356Y0071615D01*
X0392090Y0071615D02*
X0392824Y0070881D01*
X0393750Y0071248D02*
X0394117Y0070881D01*
X0394851Y0070881D01*
X0395218Y0071248D01*
X0395218Y0072716D01*
X0394851Y0073083D01*
X0394117Y0073083D01*
X0393750Y0072716D01*
X0393750Y0072349D01*
X0394117Y0071982D01*
X0395218Y0071982D01*
X0395069Y0076263D02*
X0395069Y0078465D01*
X0396170Y0077731D02*
X0395069Y0076997D01*
X0396170Y0076263D01*
X0394143Y0076263D02*
X0392675Y0076263D01*
X0393409Y0076263D02*
X0393409Y0078465D01*
X0392675Y0077731D01*
X0391015Y0078465D02*
X0391015Y0076263D01*
X0390281Y0076263D02*
X0391749Y0076263D01*
X0385452Y0077350D02*
X0385085Y0076983D01*
X0383617Y0076983D01*
X0383250Y0077350D01*
X0383250Y0078084D01*
X0383617Y0078451D01*
X0385085Y0078451D01*
X0385452Y0078084D01*
X0385452Y0077350D01*
X0384718Y0077717D02*
X0385452Y0078451D01*
X0385085Y0079378D02*
X0385452Y0079744D01*
X0385452Y0080478D01*
X0385085Y0080845D01*
X0384718Y0080845D01*
X0384351Y0080478D01*
X0384351Y0079744D01*
X0383984Y0079378D01*
X0383617Y0079378D01*
X0383250Y0079744D01*
X0383250Y0080478D01*
X0383617Y0080845D01*
X0384351Y0081772D02*
X0384351Y0082872D01*
X0384718Y0083239D01*
X0385085Y0083239D01*
X0385452Y0082872D01*
X0385452Y0082139D01*
X0385085Y0081772D01*
X0384351Y0081772D01*
X0383617Y0082506D01*
X0383250Y0083239D01*
X0383250Y0084166D02*
X0385452Y0084166D01*
X0384718Y0084166D02*
X0383250Y0085634D01*
X0382502Y0085248D02*
X0382502Y0079343D01*
X0390281Y0077731D02*
X0391015Y0078465D01*
X0371479Y0079343D02*
X0371479Y0085248D01*
X0370098Y0084804D02*
X0370098Y0083336D01*
X0370098Y0084070D02*
X0367896Y0084070D01*
X0368630Y0083336D01*
X0368263Y0082410D02*
X0367896Y0082043D01*
X0367896Y0081309D01*
X0368263Y0080942D01*
X0369731Y0080942D01*
X0370098Y0081309D01*
X0370098Y0082043D01*
X0369731Y0082410D01*
X0370098Y0080080D02*
X0370098Y0079346D01*
X0370098Y0079713D02*
X0367896Y0079713D01*
X0367896Y0079346D02*
X0367896Y0080080D01*
X0384351Y0084533D02*
X0385452Y0085634D01*
X0385452Y0086560D02*
X0385452Y0088028D01*
X0385452Y0087294D02*
X0383250Y0087294D01*
X0383984Y0086560D01*
X0391281Y0088763D02*
X0391281Y0090965D01*
X0392382Y0090965D01*
X0392749Y0090598D01*
X0392749Y0089864D01*
X0392382Y0089497D01*
X0391281Y0089497D01*
X0392015Y0089497D02*
X0392749Y0088763D01*
X0393675Y0088763D02*
X0395143Y0088763D01*
X0394409Y0088763D02*
X0394409Y0090965D01*
X0393675Y0090231D01*
X0396069Y0090598D02*
X0396436Y0090965D01*
X0397170Y0090965D01*
X0397537Y0090598D01*
X0396069Y0089130D01*
X0396436Y0088763D01*
X0397170Y0088763D01*
X0397537Y0089130D01*
X0397537Y0090598D01*
X0396069Y0090598D02*
X0396069Y0089130D01*
X0370098Y0087198D02*
X0370098Y0085730D01*
X0370098Y0086464D02*
X0367896Y0086464D01*
X0368630Y0085730D01*
X0302412Y0080780D02*
X0300944Y0080780D01*
X0300944Y0078578D01*
X0300018Y0078578D02*
X0300018Y0080046D01*
X0300944Y0079679D02*
X0301678Y0079679D01*
X0298917Y0078578D02*
X0298550Y0078945D01*
X0298550Y0080046D01*
X0297624Y0080413D02*
X0296156Y0078945D01*
X0296156Y0078578D01*
X0295326Y0078578D02*
X0294959Y0078578D01*
X0294959Y0078945D01*
X0295326Y0078945D01*
X0295326Y0078578D01*
X0293666Y0078578D02*
X0293666Y0080780D01*
X0292565Y0079679D01*
X0294032Y0079679D01*
X0296156Y0080780D02*
X0297624Y0080780D01*
X0297624Y0080413D01*
X0298917Y0078578D02*
X0300018Y0078578D01*
X0285615Y0080818D02*
X0284147Y0080818D01*
X0284147Y0078616D01*
X0283221Y0078616D02*
X0283221Y0080084D01*
X0284147Y0079717D02*
X0284881Y0079717D01*
X0283221Y0078616D02*
X0282120Y0078616D01*
X0281753Y0078983D01*
X0281753Y0080084D01*
X0280827Y0080451D02*
X0279359Y0078983D01*
X0279726Y0078616D01*
X0280460Y0078616D01*
X0280827Y0078983D01*
X0280827Y0080451D01*
X0280460Y0080818D01*
X0279726Y0080818D01*
X0279359Y0080451D01*
X0279359Y0078983D01*
X0278433Y0078616D02*
X0276965Y0078616D01*
X0277699Y0078616D02*
X0277699Y0080818D01*
X0276965Y0080084D01*
X0271608Y0080504D02*
X0270140Y0080504D01*
X0270140Y0078302D01*
X0269214Y0078302D02*
X0269214Y0079403D01*
X0268847Y0079770D01*
X0267746Y0079770D01*
X0267746Y0078302D01*
X0266820Y0078669D02*
X0266453Y0078302D01*
X0265719Y0078302D01*
X0265352Y0078669D01*
X0266820Y0080137D01*
X0266820Y0078669D01*
X0265352Y0078669D02*
X0265352Y0080137D01*
X0265719Y0080504D01*
X0266453Y0080504D01*
X0266820Y0080137D01*
X0263692Y0080504D02*
X0263692Y0078302D01*
X0262958Y0078302D02*
X0264426Y0078302D01*
X0270140Y0079403D02*
X0270874Y0079403D01*
X0263692Y0080504D02*
X0262958Y0079770D01*
X0255743Y0079436D02*
X0255743Y0078702D01*
X0255376Y0078335D01*
X0253908Y0079803D01*
X0255376Y0079803D01*
X0255743Y0079436D01*
X0255376Y0078335D02*
X0253908Y0078335D01*
X0253541Y0078702D01*
X0253541Y0079436D01*
X0253908Y0079803D01*
X0254642Y0080729D02*
X0254642Y0082197D01*
X0254275Y0083123D02*
X0253541Y0083857D01*
X0255743Y0083857D01*
X0255743Y0083123D02*
X0255743Y0084591D01*
X0255376Y0085517D02*
X0255743Y0085884D01*
X0255743Y0086618D01*
X0255376Y0086985D01*
X0255009Y0086985D01*
X0254642Y0086618D01*
X0254642Y0086251D01*
X0254642Y0086618D02*
X0254275Y0086985D01*
X0253908Y0086985D01*
X0253541Y0086618D01*
X0253541Y0085884D01*
X0253908Y0085517D01*
X0254642Y0087911D02*
X0254642Y0089379D01*
X0254642Y0090305D02*
X0254642Y0091039D01*
X0253541Y0090305D02*
X0253541Y0091773D01*
X0253541Y0090305D02*
X0255743Y0090305D01*
X0263746Y0090295D02*
X0263746Y0088827D01*
X0264113Y0088460D01*
X0264847Y0088460D01*
X0265214Y0088827D01*
X0266140Y0088460D02*
X0267608Y0089928D01*
X0267608Y0090295D01*
X0267241Y0090662D01*
X0266507Y0090662D01*
X0266140Y0090295D01*
X0265214Y0090295D02*
X0264847Y0090662D01*
X0264113Y0090662D01*
X0263746Y0090295D01*
X0268534Y0090662D02*
X0268534Y0089561D01*
X0269268Y0089928D01*
X0269635Y0089928D01*
X0270002Y0089561D01*
X0270002Y0088827D01*
X0269635Y0088460D01*
X0268901Y0088460D01*
X0268534Y0088827D01*
X0267608Y0088460D02*
X0266140Y0088460D01*
X0268534Y0090662D02*
X0270002Y0090662D01*
X0278138Y0090411D02*
X0278138Y0088943D01*
X0278505Y0088576D01*
X0279239Y0088576D01*
X0279606Y0088943D01*
X0280532Y0088576D02*
X0282000Y0090044D01*
X0282000Y0090411D01*
X0281633Y0090778D01*
X0280899Y0090778D01*
X0280532Y0090411D01*
X0279606Y0090411D02*
X0279239Y0090778D01*
X0278505Y0090778D01*
X0278138Y0090411D01*
X0282926Y0089677D02*
X0284027Y0089677D01*
X0284394Y0089310D01*
X0284394Y0088943D01*
X0284027Y0088576D01*
X0283293Y0088576D01*
X0282926Y0088943D01*
X0282926Y0089677D01*
X0283660Y0090411D01*
X0284394Y0090778D01*
X0282000Y0088576D02*
X0280532Y0088576D01*
X0294139Y0088669D02*
X0294506Y0088302D01*
X0295240Y0088302D01*
X0295607Y0088669D01*
X0296533Y0088302D02*
X0298001Y0089770D01*
X0298001Y0090137D01*
X0297634Y0090504D01*
X0296900Y0090504D01*
X0296533Y0090137D01*
X0295607Y0090137D02*
X0295240Y0090504D01*
X0294506Y0090504D01*
X0294139Y0090137D01*
X0294139Y0088669D01*
X0296533Y0088302D02*
X0298001Y0088302D01*
X0298927Y0088302D02*
X0300395Y0088302D01*
X0299661Y0088302D02*
X0299661Y0090504D01*
X0298927Y0089770D01*
X0255743Y0077042D02*
X0255376Y0077409D01*
X0255009Y0077409D01*
X0254642Y0077042D01*
X0254642Y0076675D01*
X0254642Y0077042D02*
X0254275Y0077409D01*
X0253908Y0077409D01*
X0253541Y0077042D01*
X0253541Y0076308D01*
X0253908Y0075941D01*
X0255376Y0075941D02*
X0255743Y0076308D01*
X0255743Y0077042D01*
X0255743Y0075015D02*
X0255743Y0073547D01*
X0255743Y0074281D02*
X0253541Y0074281D01*
X0254275Y0073547D01*
X0254275Y0072621D02*
X0254642Y0072254D01*
X0254642Y0071153D01*
X0253541Y0071153D02*
X0253541Y0072254D01*
X0253908Y0072621D01*
X0254275Y0072621D01*
X0254642Y0072254D02*
X0255009Y0072621D01*
X0255376Y0072621D01*
X0255743Y0072254D01*
X0255743Y0071153D01*
X0253541Y0071153D01*
X0267016Y0073451D02*
X0267383Y0073084D01*
X0268117Y0073084D01*
X0268484Y0073451D01*
X0269410Y0073084D02*
X0270878Y0074552D01*
X0270878Y0074919D01*
X0270511Y0075286D01*
X0269777Y0075286D01*
X0269410Y0074919D01*
X0268484Y0074919D02*
X0268117Y0075286D01*
X0267383Y0075286D01*
X0267016Y0074919D01*
X0267016Y0073451D01*
X0269410Y0073084D02*
X0270878Y0073084D01*
X0271804Y0073451D02*
X0273272Y0074919D01*
X0273272Y0073451D01*
X0272905Y0073084D01*
X0272171Y0073084D01*
X0271804Y0073451D01*
X0271804Y0074919D01*
X0272171Y0075286D01*
X0272905Y0075286D01*
X0273272Y0074919D01*
X0239743Y0078153D02*
X0239743Y0079254D01*
X0239376Y0079621D01*
X0237908Y0079621D01*
X0237541Y0079254D01*
X0237541Y0078153D01*
X0239743Y0078153D01*
X0239743Y0080547D02*
X0239743Y0082015D01*
X0239743Y0081281D02*
X0237541Y0081281D01*
X0238275Y0080547D01*
X0218128Y0078212D02*
X0216660Y0076744D01*
X0217027Y0076377D01*
X0217761Y0076377D01*
X0218128Y0076744D01*
X0218128Y0078212D01*
X0217761Y0078579D01*
X0217027Y0078579D01*
X0216660Y0078212D01*
X0216660Y0076744D01*
X0215734Y0076744D02*
X0215734Y0078212D01*
X0215367Y0078579D01*
X0214633Y0078579D01*
X0214266Y0078212D01*
X0214266Y0077845D01*
X0214633Y0077478D01*
X0215734Y0077478D01*
X0215734Y0076744D02*
X0215367Y0076377D01*
X0214633Y0076377D01*
X0214266Y0076744D01*
X0213340Y0076744D02*
X0212973Y0076377D01*
X0212239Y0076377D01*
X0211872Y0076744D01*
X0212606Y0077478D02*
X0212973Y0077478D01*
X0213340Y0077111D01*
X0213340Y0076744D01*
X0212973Y0077478D02*
X0213340Y0077845D01*
X0213340Y0078212D01*
X0212973Y0078579D01*
X0212239Y0078579D01*
X0211872Y0078212D01*
X0202426Y0077466D02*
X0201325Y0076732D01*
X0202426Y0075998D01*
X0201325Y0075998D02*
X0201325Y0078200D01*
X0200399Y0077833D02*
X0198931Y0076365D01*
X0199298Y0075998D01*
X0200032Y0075998D01*
X0200399Y0076365D01*
X0200399Y0077833D01*
X0200032Y0078200D01*
X0199298Y0078200D01*
X0198931Y0077833D01*
X0198931Y0076365D01*
X0198005Y0076365D02*
X0197638Y0075998D01*
X0196904Y0075998D01*
X0196537Y0076365D01*
X0198005Y0077833D01*
X0198005Y0076365D01*
X0196537Y0076365D02*
X0196537Y0077833D01*
X0196904Y0078200D01*
X0197638Y0078200D01*
X0198005Y0077833D01*
X0194877Y0078200D02*
X0194877Y0075998D01*
X0194143Y0075998D02*
X0195611Y0075998D01*
X0194143Y0077466D02*
X0194877Y0078200D01*
X0213391Y0074271D02*
X0213391Y0072803D01*
X0213758Y0072436D01*
X0214492Y0072436D01*
X0214859Y0072803D01*
X0215785Y0072436D02*
X0217253Y0072436D01*
X0216519Y0072436D02*
X0216519Y0074638D01*
X0215785Y0073904D01*
X0214859Y0074271D02*
X0214492Y0074638D01*
X0213758Y0074638D01*
X0213391Y0074271D01*
X0218179Y0074638D02*
X0219647Y0074638D01*
X0219647Y0074271D01*
X0218179Y0072803D01*
X0218179Y0072436D01*
X0217818Y0065425D02*
X0219285Y0065425D01*
X0217818Y0065425D02*
X0217818Y0063224D01*
X0216891Y0063224D02*
X0216891Y0064692D01*
X0217818Y0064325D02*
X0218552Y0064325D01*
X0216891Y0063224D02*
X0215791Y0063224D01*
X0215424Y0063591D01*
X0215424Y0064692D01*
X0214497Y0065059D02*
X0213029Y0063591D01*
X0213396Y0063224D01*
X0214130Y0063224D01*
X0214497Y0063591D01*
X0214497Y0065059D01*
X0214130Y0065425D01*
X0213396Y0065425D01*
X0213029Y0065059D01*
X0213029Y0063591D01*
X0212103Y0063224D02*
X0210635Y0063224D01*
X0211369Y0063224D02*
X0211369Y0065425D01*
X0210635Y0064692D01*
X0171477Y0061621D02*
X0171477Y0060153D01*
X0171477Y0061254D02*
X0170009Y0061254D01*
X0170009Y0061621D02*
X0170009Y0060153D01*
X0169083Y0060153D02*
X0169083Y0061254D01*
X0168716Y0061621D01*
X0168349Y0061254D01*
X0168349Y0060153D01*
X0167615Y0060153D02*
X0167615Y0061621D01*
X0167982Y0061621D01*
X0168349Y0061254D01*
X0170009Y0061621D02*
X0170743Y0062355D01*
X0171477Y0061621D01*
X0166689Y0061988D02*
X0165221Y0060520D01*
X0165588Y0060153D01*
X0166322Y0060153D01*
X0166689Y0060520D01*
X0166689Y0061988D01*
X0166322Y0062355D01*
X0165588Y0062355D01*
X0165221Y0061988D01*
X0165221Y0060520D01*
X0164295Y0060520D02*
X0163928Y0060153D01*
X0163194Y0060153D01*
X0162827Y0060520D01*
X0164295Y0061988D01*
X0164295Y0060520D01*
X0162827Y0060520D02*
X0162827Y0061988D01*
X0163194Y0062355D01*
X0163928Y0062355D01*
X0164295Y0061988D01*
X0161901Y0062355D02*
X0160433Y0062355D01*
X0160433Y0061254D01*
X0161167Y0061621D01*
X0161534Y0061621D01*
X0161901Y0061254D01*
X0161901Y0060520D01*
X0161534Y0060153D01*
X0160800Y0060153D01*
X0160433Y0060520D01*
X0159507Y0062355D02*
X0158039Y0060153D01*
X0157113Y0060153D02*
X0157113Y0062355D01*
X0157113Y0061254D02*
X0155645Y0061254D01*
X0154719Y0061621D02*
X0154719Y0060153D01*
X0153618Y0060153D01*
X0153251Y0060520D01*
X0153251Y0061621D01*
X0152325Y0061988D02*
X0150857Y0060520D01*
X0151224Y0060153D01*
X0151958Y0060153D01*
X0152325Y0060520D01*
X0152325Y0061988D01*
X0151958Y0062355D01*
X0151224Y0062355D01*
X0150857Y0061988D01*
X0150857Y0060520D01*
X0149930Y0060520D02*
X0149563Y0060153D01*
X0148830Y0060153D01*
X0148463Y0060520D01*
X0149930Y0061988D01*
X0149930Y0060520D01*
X0148463Y0060520D02*
X0148463Y0061988D01*
X0148830Y0062355D01*
X0149563Y0062355D01*
X0149930Y0061988D01*
X0146802Y0062355D02*
X0146802Y0060153D01*
X0146069Y0060153D02*
X0147536Y0060153D01*
X0146069Y0061621D02*
X0146802Y0062355D01*
X0155645Y0062355D02*
X0155645Y0060153D01*
X0155098Y0066923D02*
X0154364Y0066923D01*
X0153997Y0067290D01*
X0155465Y0068758D01*
X0155465Y0067290D01*
X0155098Y0066923D01*
X0153997Y0067290D02*
X0153997Y0068758D01*
X0154364Y0069125D01*
X0155098Y0069125D01*
X0155465Y0068758D01*
X0156391Y0068758D02*
X0156758Y0069125D01*
X0157492Y0069125D01*
X0157859Y0068758D01*
X0156391Y0067290D01*
X0156758Y0066923D01*
X0157492Y0066923D01*
X0157859Y0067290D01*
X0157859Y0068758D01*
X0156391Y0068758D02*
X0156391Y0067290D01*
X0153071Y0067290D02*
X0152704Y0066923D01*
X0151970Y0066923D01*
X0151603Y0067290D01*
X0150677Y0067290D02*
X0150310Y0066923D01*
X0149576Y0066923D01*
X0149209Y0067290D01*
X0150677Y0068758D01*
X0150677Y0067290D01*
X0150677Y0068758D02*
X0150310Y0069125D01*
X0149576Y0069125D01*
X0149209Y0068758D01*
X0149209Y0067290D01*
X0148283Y0068024D02*
X0146815Y0068024D01*
X0147916Y0069125D01*
X0147916Y0066923D01*
X0145889Y0067290D02*
X0145522Y0066923D01*
X0144788Y0066923D01*
X0144421Y0067290D01*
X0144788Y0068024D02*
X0145522Y0068024D01*
X0145889Y0067657D01*
X0145889Y0067290D01*
X0144788Y0068024D02*
X0144421Y0068391D01*
X0144421Y0068758D01*
X0144788Y0069125D01*
X0145522Y0069125D01*
X0145889Y0068758D01*
X0143495Y0068758D02*
X0143128Y0069125D01*
X0142394Y0069125D01*
X0142027Y0068758D01*
X0142027Y0067290D01*
X0142394Y0066923D01*
X0143128Y0066923D01*
X0143495Y0067290D01*
X0141165Y0066923D02*
X0140431Y0066923D01*
X0140798Y0066923D02*
X0140798Y0069125D01*
X0140431Y0069125D02*
X0141165Y0069125D01*
X0151603Y0068758D02*
X0151970Y0069125D01*
X0152704Y0069125D01*
X0153071Y0068758D01*
X0153071Y0068391D01*
X0152704Y0068024D01*
X0153071Y0067657D01*
X0153071Y0067290D01*
X0152704Y0068024D02*
X0152337Y0068024D01*
X0123667Y0075065D02*
X0123300Y0074698D01*
X0123667Y0075065D02*
X0123667Y0075432D01*
X0123300Y0075799D01*
X0121465Y0075799D01*
X0121465Y0075432D02*
X0121465Y0076166D01*
X0121465Y0077092D02*
X0121465Y0078193D01*
X0121832Y0078560D01*
X0122566Y0078560D01*
X0122933Y0078193D01*
X0122933Y0077092D01*
X0123667Y0077092D02*
X0121465Y0077092D01*
X0122199Y0079486D02*
X0121465Y0080220D01*
X0123667Y0080220D01*
X0123667Y0079486D02*
X0123667Y0080954D01*
X0128229Y0083941D02*
X0129330Y0083941D01*
X0129697Y0084308D01*
X0129697Y0085775D01*
X0129330Y0086142D01*
X0128229Y0086142D01*
X0128229Y0083941D01*
X0130623Y0084308D02*
X0130990Y0083941D01*
X0131724Y0083941D01*
X0132091Y0084308D01*
X0132091Y0085775D02*
X0131724Y0086142D01*
X0130990Y0086142D01*
X0130623Y0085775D01*
X0130623Y0084308D01*
X0138229Y0084334D02*
X0138229Y0085802D01*
X0138963Y0086536D01*
X0139697Y0085802D01*
X0139697Y0084334D01*
X0140623Y0084701D02*
X0140990Y0084334D01*
X0141724Y0084334D01*
X0142091Y0084701D01*
X0140623Y0084701D02*
X0140623Y0086169D01*
X0140990Y0086536D01*
X0141724Y0086536D01*
X0142091Y0086169D01*
X0139697Y0085435D02*
X0138229Y0085435D01*
X0147548Y0085775D02*
X0147548Y0084308D01*
X0147915Y0083941D01*
X0148649Y0083941D01*
X0149016Y0084308D01*
X0149016Y0085041D01*
X0148282Y0085041D01*
X0149016Y0085775D02*
X0148649Y0086142D01*
X0147915Y0086142D01*
X0147548Y0085775D01*
X0149942Y0086142D02*
X0151410Y0083941D01*
X0151410Y0086142D01*
X0152336Y0086142D02*
X0153437Y0086142D01*
X0153804Y0085775D01*
X0153804Y0084308D01*
X0153437Y0083941D01*
X0152336Y0083941D01*
X0152336Y0086142D01*
X0149942Y0086142D02*
X0149942Y0083941D01*
X0158229Y0084701D02*
X0158596Y0084334D01*
X0159330Y0084334D01*
X0159697Y0084701D01*
X0159697Y0085068D01*
X0159330Y0085435D01*
X0158963Y0085435D01*
X0159330Y0085435D02*
X0159697Y0085802D01*
X0159697Y0086169D01*
X0159330Y0086536D01*
X0158596Y0086536D01*
X0158229Y0086169D01*
X0160623Y0086536D02*
X0160623Y0085068D01*
X0161357Y0084334D01*
X0162091Y0085068D01*
X0162091Y0086536D01*
X0165846Y0086536D02*
X0165846Y0085068D01*
X0166580Y0084334D01*
X0167314Y0085068D01*
X0167314Y0086536D01*
X0168240Y0085802D02*
X0168607Y0085802D01*
X0168607Y0084334D01*
X0168240Y0084334D02*
X0168974Y0084334D01*
X0169836Y0084334D02*
X0169836Y0085802D01*
X0170937Y0085802D01*
X0171304Y0085435D01*
X0171304Y0084334D01*
X0168607Y0086536D02*
X0168607Y0086903D01*
X0197139Y0087235D02*
X0197139Y0085033D01*
X0197139Y0085767D02*
X0198240Y0085767D01*
X0198607Y0086134D01*
X0198607Y0086868D01*
X0198240Y0087235D01*
X0197139Y0087235D01*
X0199533Y0087235D02*
X0201001Y0087235D01*
X0201001Y0086868D01*
X0199533Y0085400D01*
X0199533Y0085033D01*
X0198607Y0085033D02*
X0197873Y0085767D01*
X0213887Y0085771D02*
X0214988Y0085771D01*
X0215355Y0086138D01*
X0215355Y0086872D01*
X0214988Y0087239D01*
X0213887Y0087239D01*
X0213887Y0085037D01*
X0214621Y0085771D02*
X0215355Y0085037D01*
X0216281Y0085404D02*
X0216648Y0085037D01*
X0217382Y0085037D01*
X0217749Y0085404D01*
X0217749Y0086138D01*
X0217382Y0086505D01*
X0217015Y0086505D01*
X0216281Y0086138D01*
X0216281Y0087239D01*
X0217749Y0087239D01*
X0247635Y0065063D02*
X0248736Y0065063D01*
X0249103Y0064696D01*
X0249103Y0063962D01*
X0248736Y0063595D01*
X0247635Y0063595D01*
X0247635Y0062861D02*
X0247635Y0065063D01*
X0248369Y0063595D02*
X0249103Y0062861D01*
X0250029Y0063228D02*
X0250029Y0063595D01*
X0250396Y0063962D01*
X0251130Y0063962D01*
X0251497Y0063595D01*
X0251497Y0063228D01*
X0251130Y0062861D01*
X0250396Y0062861D01*
X0250029Y0063228D01*
X0250396Y0063962D02*
X0250029Y0064329D01*
X0250029Y0064696D01*
X0250396Y0065063D01*
X0251130Y0065063D01*
X0251497Y0064696D01*
X0251497Y0064329D01*
X0251130Y0063962D01*
X0310458Y0053954D02*
X0311926Y0053954D01*
X0311559Y0052854D02*
X0311559Y0055055D01*
X0310458Y0053954D01*
X0312852Y0053221D02*
X0312852Y0052854D01*
X0313219Y0052854D01*
X0313219Y0053221D01*
X0312852Y0053221D01*
X0314049Y0053221D02*
X0314049Y0052854D01*
X0314049Y0053221D02*
X0315517Y0054688D01*
X0315517Y0055055D01*
X0314049Y0055055D01*
X0316443Y0055055D02*
X0316443Y0052854D01*
X0316443Y0053587D02*
X0317911Y0055055D01*
X0316810Y0053954D02*
X0317911Y0052854D01*
X0360179Y0050675D02*
X0360179Y0049941D01*
X0360546Y0049574D01*
X0362014Y0049574D01*
X0362381Y0049941D01*
X0362381Y0050675D01*
X0362014Y0051042D01*
X0360546Y0051042D02*
X0360179Y0050675D01*
X0360179Y0048648D02*
X0362381Y0048648D01*
X0360913Y0047914D02*
X0360179Y0048648D01*
X0360913Y0047914D02*
X0360179Y0047180D01*
X0362381Y0047180D01*
X0321560Y0037432D02*
X0320092Y0037432D01*
X0320092Y0035230D01*
X0319166Y0035230D02*
X0319166Y0036698D01*
X0320092Y0036331D02*
X0320826Y0036331D01*
X0319166Y0035230D02*
X0318065Y0035230D01*
X0317698Y0035597D01*
X0317698Y0036698D01*
X0316772Y0037065D02*
X0315304Y0035597D01*
X0315671Y0035230D01*
X0316405Y0035230D01*
X0316772Y0035597D01*
X0316772Y0037065D01*
X0316405Y0037432D01*
X0315671Y0037432D01*
X0315304Y0037065D01*
X0315304Y0035597D01*
X0314378Y0035230D02*
X0312910Y0035230D01*
X0313644Y0035230D02*
X0313644Y0037432D01*
X0312910Y0036698D01*
X0310383Y0031211D02*
X0310750Y0030844D01*
X0310750Y0030477D01*
X0310383Y0030110D01*
X0309282Y0030110D01*
X0310383Y0030110D02*
X0310750Y0029743D01*
X0310750Y0029376D01*
X0310383Y0029009D01*
X0309282Y0029009D01*
X0309282Y0031211D01*
X0310383Y0031211D01*
X0312043Y0030477D02*
X0312777Y0030477D01*
X0313144Y0030110D01*
X0313144Y0029009D01*
X0312043Y0029009D01*
X0311676Y0029376D01*
X0312043Y0029743D01*
X0313144Y0029743D01*
X0314070Y0030477D02*
X0314804Y0030477D01*
X0314437Y0030844D02*
X0314437Y0029376D01*
X0314804Y0029009D01*
X0316033Y0029376D02*
X0316400Y0029009D01*
X0316033Y0029376D02*
X0316033Y0030844D01*
X0315666Y0030477D02*
X0316400Y0030477D01*
X0317262Y0030110D02*
X0317629Y0030477D01*
X0318363Y0030477D01*
X0318730Y0030110D01*
X0318730Y0029743D01*
X0317262Y0029743D01*
X0317262Y0029376D02*
X0317262Y0030110D01*
X0317262Y0029376D02*
X0317629Y0029009D01*
X0318363Y0029009D01*
X0319656Y0029009D02*
X0319656Y0030477D01*
X0319656Y0029743D02*
X0320390Y0030477D01*
X0320757Y0030477D01*
X0321651Y0030477D02*
X0321651Y0029376D01*
X0322018Y0029009D01*
X0323119Y0029009D01*
X0323119Y0028642D02*
X0322752Y0028275D01*
X0322385Y0028275D01*
X0323119Y0028642D02*
X0323119Y0030477D01*
X0336492Y0027997D02*
X0337226Y0028731D01*
X0337226Y0026529D01*
X0336492Y0026529D02*
X0337960Y0026529D01*
X0338886Y0026896D02*
X0340354Y0028364D01*
X0340354Y0026896D01*
X0339987Y0026529D01*
X0339253Y0026529D01*
X0338886Y0026896D01*
X0338886Y0028364D01*
X0339253Y0028731D01*
X0339987Y0028731D01*
X0340354Y0028364D01*
X0341280Y0027997D02*
X0341280Y0026529D01*
X0341280Y0027997D02*
X0342381Y0027997D01*
X0342748Y0027630D01*
X0342748Y0026529D01*
X0343674Y0026529D02*
X0343674Y0028731D01*
X0345142Y0028731D01*
X0344408Y0027630D02*
X0343674Y0027630D01*
X0370360Y0017408D02*
X0371094Y0018142D01*
X0371094Y0015940D01*
X0370360Y0015940D02*
X0371828Y0015940D01*
X0372754Y0016307D02*
X0373121Y0015940D01*
X0373855Y0015940D01*
X0374222Y0016307D01*
X0374222Y0017775D01*
X0372754Y0016307D01*
X0372754Y0017775D01*
X0373121Y0018142D01*
X0373855Y0018142D01*
X0374222Y0017775D01*
X0375148Y0018142D02*
X0375882Y0017408D01*
X0376616Y0018142D01*
X0376616Y0015940D01*
X0375148Y0015940D02*
X0375148Y0018142D01*
X0361136Y0017670D02*
X0359668Y0017670D01*
X0359668Y0015468D01*
X0358742Y0015468D02*
X0358742Y0016569D01*
X0358375Y0016936D01*
X0357274Y0016936D01*
X0357274Y0015468D01*
X0356348Y0015835D02*
X0356348Y0016202D01*
X0355981Y0016569D01*
X0354880Y0016569D01*
X0354880Y0015835D01*
X0355247Y0015468D01*
X0355981Y0015468D01*
X0356348Y0015835D01*
X0355614Y0017303D02*
X0354880Y0016569D01*
X0353954Y0016569D02*
X0353954Y0015835D01*
X0353587Y0015468D01*
X0352853Y0015468D01*
X0352486Y0015835D01*
X0352486Y0016569D02*
X0353220Y0016936D01*
X0353587Y0016936D01*
X0353954Y0016569D01*
X0353954Y0017670D02*
X0352486Y0017670D01*
X0352486Y0016569D01*
X0355614Y0017303D02*
X0356348Y0017670D01*
X0359668Y0016569D02*
X0360402Y0016569D01*
X0399778Y0020054D02*
X0399778Y0021522D01*
X0399778Y0020788D02*
X0401980Y0020788D01*
X0401980Y0022448D02*
X0399778Y0022448D01*
X0399778Y0023549D01*
X0400145Y0023916D01*
X0400879Y0023916D01*
X0401246Y0023549D01*
X0401246Y0022448D01*
X0401613Y0024842D02*
X0401980Y0025209D01*
X0401980Y0025943D01*
X0401613Y0026310D01*
X0401246Y0026310D01*
X0400879Y0025943D01*
X0400879Y0025209D01*
X0400512Y0024842D01*
X0400145Y0024842D01*
X0399778Y0025209D01*
X0399778Y0025943D01*
X0400145Y0026310D01*
X0399778Y0027236D02*
X0399778Y0028704D01*
X0400145Y0028704D01*
X0401613Y0027236D01*
X0401980Y0027236D01*
X0401980Y0029631D02*
X0400512Y0029631D01*
X0399778Y0030364D01*
X0400512Y0031098D01*
X0401980Y0031098D01*
X0400879Y0031098D02*
X0400879Y0029631D01*
X0400879Y0032025D02*
X0400879Y0033492D01*
X0400512Y0034419D02*
X0400879Y0034786D01*
X0400879Y0035887D01*
X0401613Y0035887D02*
X0400145Y0035887D01*
X0399778Y0035520D01*
X0399778Y0034786D01*
X0400145Y0034419D01*
X0400512Y0034419D01*
X0401613Y0034419D02*
X0401980Y0034786D01*
X0401980Y0035520D01*
X0401613Y0035887D01*
X0401980Y0033125D02*
X0399778Y0033125D01*
X0400879Y0032025D01*
X0398938Y0061802D02*
X0397837Y0062536D01*
X0398938Y0063270D01*
X0397837Y0064004D02*
X0397837Y0061802D01*
X0396911Y0062169D02*
X0396544Y0061802D01*
X0395810Y0061802D01*
X0395443Y0062169D01*
X0396911Y0063637D01*
X0396911Y0062169D01*
X0395443Y0062169D02*
X0395443Y0063637D01*
X0395810Y0064004D01*
X0396544Y0064004D01*
X0396911Y0063637D01*
X0394517Y0063637D02*
X0393049Y0062169D01*
X0393416Y0061802D01*
X0394150Y0061802D01*
X0394517Y0062169D01*
X0394517Y0063637D01*
X0394150Y0064004D01*
X0393416Y0064004D01*
X0393049Y0063637D01*
X0393049Y0062169D01*
X0392123Y0061802D02*
X0390655Y0061802D01*
X0391389Y0061802D02*
X0391389Y0064004D01*
X0390655Y0063270D01*
X0165654Y0046277D02*
X0165287Y0046644D01*
X0164553Y0046644D01*
X0164186Y0046277D01*
X0165654Y0046277D02*
X0165654Y0045910D01*
X0164186Y0044443D01*
X0165654Y0044443D01*
X0163260Y0044443D02*
X0161792Y0044443D01*
X0161792Y0046644D01*
X0140109Y0046011D02*
X0139742Y0046378D01*
X0139008Y0046378D01*
X0138641Y0046011D01*
X0137715Y0046011D02*
X0137348Y0046378D01*
X0136614Y0046378D01*
X0136247Y0046011D01*
X0136247Y0044543D01*
X0136614Y0044176D01*
X0137348Y0044176D01*
X0137715Y0044543D01*
X0138641Y0044176D02*
X0140109Y0045644D01*
X0140109Y0046011D01*
X0135385Y0046378D02*
X0134651Y0046378D01*
X0135018Y0046378D02*
X0135018Y0044176D01*
X0134651Y0044176D02*
X0135385Y0044176D01*
X0138641Y0044176D02*
X0140109Y0044176D01*
X0099906Y0046664D02*
X0098438Y0046664D01*
X0098438Y0044462D01*
X0097512Y0044462D02*
X0097512Y0045930D01*
X0098438Y0045563D02*
X0099172Y0045563D01*
X0096411Y0044462D02*
X0096044Y0044829D01*
X0096044Y0045930D01*
X0094384Y0046664D02*
X0093650Y0045930D01*
X0094384Y0046664D02*
X0094384Y0044462D01*
X0093650Y0044462D02*
X0095118Y0044462D01*
X0096411Y0044462D02*
X0097512Y0044462D01*
X0092820Y0044462D02*
X0092453Y0044462D01*
X0092453Y0044829D01*
X0092820Y0044829D01*
X0092820Y0044462D01*
X0091527Y0044829D02*
X0091160Y0044462D01*
X0090426Y0044462D01*
X0090059Y0044829D01*
X0091527Y0046297D01*
X0091527Y0044829D01*
X0090059Y0044829D02*
X0090059Y0046297D01*
X0090426Y0046664D01*
X0091160Y0046664D01*
X0091527Y0046297D01*
X0087932Y0059661D02*
X0087932Y0061862D01*
X0089400Y0061862D01*
X0088666Y0060762D02*
X0087932Y0060762D01*
X0087006Y0061129D02*
X0087006Y0059661D01*
X0085905Y0059661D01*
X0085538Y0060028D01*
X0085538Y0061129D01*
X0083878Y0061862D02*
X0083878Y0059661D01*
X0083144Y0059661D02*
X0084612Y0059661D01*
X0082314Y0059661D02*
X0081947Y0059661D01*
X0081947Y0060028D01*
X0082314Y0060028D01*
X0082314Y0059661D01*
X0081021Y0060028D02*
X0080654Y0059661D01*
X0079920Y0059661D01*
X0079553Y0060028D01*
X0081021Y0061496D01*
X0081021Y0060028D01*
X0081021Y0061496D02*
X0080654Y0061862D01*
X0079920Y0061862D01*
X0079553Y0061496D01*
X0079553Y0060028D01*
X0083144Y0061129D02*
X0083878Y0061862D01*
X0103151Y0061546D02*
X0103885Y0062280D01*
X0103885Y0060078D01*
X0103151Y0060078D02*
X0104619Y0060078D01*
X0105545Y0060078D02*
X0105545Y0062280D01*
X0106646Y0061546D02*
X0105545Y0060812D01*
X0106646Y0060078D01*
X0106777Y0069064D02*
X0105309Y0069064D01*
X0106043Y0069064D02*
X0106043Y0071266D01*
X0105309Y0070532D01*
X0104382Y0070899D02*
X0104382Y0070165D01*
X0104016Y0069798D01*
X0102915Y0069798D01*
X0103649Y0069798D02*
X0104382Y0069064D01*
X0102915Y0069064D02*
X0102915Y0071266D01*
X0104016Y0071266D01*
X0104382Y0070899D01*
X0107703Y0071266D02*
X0107703Y0070165D01*
X0108437Y0070532D01*
X0108804Y0070532D01*
X0109171Y0070165D01*
X0109171Y0069431D01*
X0108804Y0069064D01*
X0108070Y0069064D01*
X0107703Y0069431D01*
X0107703Y0071266D02*
X0109171Y0071266D01*
X0108880Y0074815D02*
X0096676Y0074815D01*
X0096676Y0079736D01*
X0102643Y0077251D02*
X0103377Y0077985D01*
X0103377Y0075783D01*
X0102643Y0075783D02*
X0104111Y0075783D01*
X0105037Y0076150D02*
X0106505Y0077618D01*
X0106505Y0076150D01*
X0106138Y0075783D01*
X0105404Y0075783D01*
X0105037Y0076150D01*
X0105037Y0077618D01*
X0105404Y0077985D01*
X0106138Y0077985D01*
X0106505Y0077618D01*
X0107431Y0077251D02*
X0107431Y0076150D01*
X0107798Y0075783D01*
X0108899Y0075783D01*
X0108899Y0077251D01*
X0109825Y0076884D02*
X0110559Y0076884D01*
X0109825Y0075783D02*
X0109825Y0077985D01*
X0111293Y0077985D01*
X0113211Y0079146D02*
X0108880Y0074815D01*
X0100219Y0077177D02*
X0100219Y0088988D01*
X0102643Y0087618D02*
X0102643Y0086150D01*
X0103010Y0085783D01*
X0103744Y0085783D01*
X0104111Y0086150D01*
X0105037Y0085783D02*
X0106505Y0085783D01*
X0105771Y0085783D02*
X0105771Y0087985D01*
X0105037Y0087251D01*
X0104111Y0087618D02*
X0103744Y0087985D01*
X0103010Y0087985D01*
X0102643Y0087618D01*
X0107431Y0087618D02*
X0107798Y0087985D01*
X0108532Y0087985D01*
X0108899Y0087618D01*
X0108899Y0087251D01*
X0108532Y0086884D01*
X0108899Y0086517D01*
X0108899Y0086150D01*
X0108532Y0085783D01*
X0107798Y0085783D01*
X0107431Y0086150D01*
X0108165Y0086884D02*
X0108532Y0086884D01*
X0108880Y0091350D02*
X0113211Y0087020D01*
X0113211Y0079146D01*
X0097266Y0083083D02*
X0097268Y0083271D01*
X0097275Y0083460D01*
X0097287Y0083648D01*
X0097303Y0083835D01*
X0097324Y0084023D01*
X0097349Y0084209D01*
X0097379Y0084395D01*
X0097414Y0084581D01*
X0097453Y0084765D01*
X0097496Y0084948D01*
X0097544Y0085131D01*
X0097597Y0085312D01*
X0097653Y0085491D01*
X0097715Y0085669D01*
X0097780Y0085846D01*
X0097850Y0086021D01*
X0097925Y0086194D01*
X0098003Y0086365D01*
X0098086Y0086535D01*
X0098172Y0086702D01*
X0098263Y0086867D01*
X0098358Y0087030D01*
X0098457Y0087190D01*
X0098560Y0087348D01*
X0098666Y0087503D01*
X0098777Y0087656D01*
X0098891Y0087806D01*
X0099009Y0087953D01*
X0099130Y0088097D01*
X0099255Y0088239D01*
X0099383Y0088377D01*
X0099515Y0088511D01*
X0099649Y0088643D01*
X0099787Y0088771D01*
X0099929Y0088896D01*
X0100073Y0089017D01*
X0100220Y0089135D01*
X0100370Y0089249D01*
X0100523Y0089360D01*
X0100678Y0089466D01*
X0100836Y0089569D01*
X0100996Y0089668D01*
X0101159Y0089763D01*
X0101324Y0089854D01*
X0101491Y0089940D01*
X0101661Y0090023D01*
X0101832Y0090101D01*
X0102005Y0090176D01*
X0102180Y0090246D01*
X0102357Y0090311D01*
X0102535Y0090373D01*
X0102714Y0090429D01*
X0102895Y0090482D01*
X0103078Y0090530D01*
X0103261Y0090573D01*
X0103445Y0090612D01*
X0103631Y0090647D01*
X0103817Y0090677D01*
X0104003Y0090702D01*
X0104191Y0090723D01*
X0104378Y0090739D01*
X0104566Y0090751D01*
X0104755Y0090758D01*
X0104943Y0090760D01*
X0105131Y0090758D01*
X0105320Y0090751D01*
X0105508Y0090739D01*
X0105695Y0090723D01*
X0105883Y0090702D01*
X0106069Y0090677D01*
X0106255Y0090647D01*
X0106441Y0090612D01*
X0106625Y0090573D01*
X0106808Y0090530D01*
X0106991Y0090482D01*
X0107172Y0090429D01*
X0107351Y0090373D01*
X0107529Y0090311D01*
X0107706Y0090246D01*
X0107881Y0090176D01*
X0108054Y0090101D01*
X0108225Y0090023D01*
X0108395Y0089940D01*
X0108562Y0089854D01*
X0108727Y0089763D01*
X0108890Y0089668D01*
X0109050Y0089569D01*
X0109208Y0089466D01*
X0109363Y0089360D01*
X0109516Y0089249D01*
X0109666Y0089135D01*
X0109813Y0089017D01*
X0109957Y0088896D01*
X0110099Y0088771D01*
X0110237Y0088643D01*
X0110371Y0088511D01*
X0110503Y0088377D01*
X0110631Y0088239D01*
X0110756Y0088097D01*
X0110877Y0087953D01*
X0110995Y0087806D01*
X0111109Y0087656D01*
X0111220Y0087503D01*
X0111326Y0087348D01*
X0111429Y0087190D01*
X0111528Y0087030D01*
X0111623Y0086867D01*
X0111714Y0086702D01*
X0111800Y0086535D01*
X0111883Y0086365D01*
X0111961Y0086194D01*
X0112036Y0086021D01*
X0112106Y0085846D01*
X0112171Y0085669D01*
X0112233Y0085491D01*
X0112289Y0085312D01*
X0112342Y0085131D01*
X0112390Y0084948D01*
X0112433Y0084765D01*
X0112472Y0084581D01*
X0112507Y0084395D01*
X0112537Y0084209D01*
X0112562Y0084023D01*
X0112583Y0083835D01*
X0112599Y0083648D01*
X0112611Y0083460D01*
X0112618Y0083271D01*
X0112620Y0083083D01*
X0112618Y0082895D01*
X0112611Y0082706D01*
X0112599Y0082518D01*
X0112583Y0082331D01*
X0112562Y0082143D01*
X0112537Y0081957D01*
X0112507Y0081771D01*
X0112472Y0081585D01*
X0112433Y0081401D01*
X0112390Y0081218D01*
X0112342Y0081035D01*
X0112289Y0080854D01*
X0112233Y0080675D01*
X0112171Y0080497D01*
X0112106Y0080320D01*
X0112036Y0080145D01*
X0111961Y0079972D01*
X0111883Y0079801D01*
X0111800Y0079631D01*
X0111714Y0079464D01*
X0111623Y0079299D01*
X0111528Y0079136D01*
X0111429Y0078976D01*
X0111326Y0078818D01*
X0111220Y0078663D01*
X0111109Y0078510D01*
X0110995Y0078360D01*
X0110877Y0078213D01*
X0110756Y0078069D01*
X0110631Y0077927D01*
X0110503Y0077789D01*
X0110371Y0077655D01*
X0110237Y0077523D01*
X0110099Y0077395D01*
X0109957Y0077270D01*
X0109813Y0077149D01*
X0109666Y0077031D01*
X0109516Y0076917D01*
X0109363Y0076806D01*
X0109208Y0076700D01*
X0109050Y0076597D01*
X0108890Y0076498D01*
X0108727Y0076403D01*
X0108562Y0076312D01*
X0108395Y0076226D01*
X0108225Y0076143D01*
X0108054Y0076065D01*
X0107881Y0075990D01*
X0107706Y0075920D01*
X0107529Y0075855D01*
X0107351Y0075793D01*
X0107172Y0075737D01*
X0106991Y0075684D01*
X0106808Y0075636D01*
X0106625Y0075593D01*
X0106441Y0075554D01*
X0106255Y0075519D01*
X0106069Y0075489D01*
X0105883Y0075464D01*
X0105695Y0075443D01*
X0105508Y0075427D01*
X0105320Y0075415D01*
X0105131Y0075408D01*
X0104943Y0075406D01*
X0104755Y0075408D01*
X0104566Y0075415D01*
X0104378Y0075427D01*
X0104191Y0075443D01*
X0104003Y0075464D01*
X0103817Y0075489D01*
X0103631Y0075519D01*
X0103445Y0075554D01*
X0103261Y0075593D01*
X0103078Y0075636D01*
X0102895Y0075684D01*
X0102714Y0075737D01*
X0102535Y0075793D01*
X0102357Y0075855D01*
X0102180Y0075920D01*
X0102005Y0075990D01*
X0101832Y0076065D01*
X0101661Y0076143D01*
X0101491Y0076226D01*
X0101324Y0076312D01*
X0101159Y0076403D01*
X0100996Y0076498D01*
X0100836Y0076597D01*
X0100678Y0076700D01*
X0100523Y0076806D01*
X0100370Y0076917D01*
X0100220Y0077031D01*
X0100073Y0077149D01*
X0099929Y0077270D01*
X0099787Y0077395D01*
X0099649Y0077523D01*
X0099515Y0077655D01*
X0099383Y0077789D01*
X0099255Y0077927D01*
X0099130Y0078069D01*
X0099009Y0078213D01*
X0098891Y0078360D01*
X0098777Y0078510D01*
X0098666Y0078663D01*
X0098560Y0078818D01*
X0098457Y0078976D01*
X0098358Y0079136D01*
X0098263Y0079299D01*
X0098172Y0079464D01*
X0098086Y0079631D01*
X0098003Y0079801D01*
X0097925Y0079972D01*
X0097850Y0080145D01*
X0097780Y0080320D01*
X0097715Y0080497D01*
X0097653Y0080675D01*
X0097597Y0080854D01*
X0097544Y0081035D01*
X0097496Y0081218D01*
X0097453Y0081401D01*
X0097414Y0081585D01*
X0097379Y0081771D01*
X0097349Y0081957D01*
X0097324Y0082143D01*
X0097303Y0082331D01*
X0097287Y0082518D01*
X0097275Y0082706D01*
X0097268Y0082895D01*
X0097266Y0083083D01*
X0098054Y0079737D02*
X0098137Y0079570D01*
X0098224Y0079406D01*
X0098316Y0079243D01*
X0098411Y0079083D01*
X0098510Y0078926D01*
X0098613Y0078771D01*
X0098720Y0078618D01*
X0098831Y0078468D01*
X0098945Y0078321D01*
X0099062Y0078176D01*
X0099183Y0078035D01*
X0099308Y0077896D01*
X0099435Y0077761D01*
X0099566Y0077628D01*
X0099701Y0077499D01*
X0099838Y0077373D01*
X0099978Y0077251D01*
X0100122Y0077132D01*
X0100268Y0077016D01*
X0100417Y0076905D01*
X0100568Y0076796D01*
X0100722Y0076692D01*
X0100879Y0076591D01*
X0101038Y0076494D01*
X0101199Y0076401D01*
X0101363Y0076312D01*
X0101529Y0076227D01*
X0101696Y0076146D01*
X0101866Y0076069D01*
X0102038Y0075996D01*
X0102211Y0075928D01*
X0102386Y0075864D01*
X0102562Y0075804D01*
X0102740Y0075748D01*
X0102919Y0075696D01*
X0103099Y0075649D01*
X0103280Y0075607D01*
X0103462Y0075568D01*
X0103646Y0075535D01*
X0103829Y0075505D01*
X0104014Y0075481D01*
X0104199Y0075460D01*
X0104385Y0075444D01*
X0104571Y0075433D01*
X0104757Y0075426D01*
X0104943Y0075424D01*
X0105129Y0075426D01*
X0105315Y0075433D01*
X0105501Y0075444D01*
X0105687Y0075460D01*
X0105872Y0075481D01*
X0106057Y0075505D01*
X0106240Y0075535D01*
X0106424Y0075568D01*
X0106606Y0075607D01*
X0106787Y0075649D01*
X0106967Y0075696D01*
X0107146Y0075748D01*
X0107324Y0075804D01*
X0107500Y0075864D01*
X0107675Y0075928D01*
X0107848Y0075996D01*
X0108020Y0076069D01*
X0108190Y0076146D01*
X0108357Y0076227D01*
X0108523Y0076312D01*
X0108687Y0076401D01*
X0108848Y0076494D01*
X0109007Y0076591D01*
X0109164Y0076692D01*
X0109318Y0076796D01*
X0109469Y0076905D01*
X0109618Y0077016D01*
X0109764Y0077132D01*
X0109908Y0077251D01*
X0110048Y0077373D01*
X0110185Y0077499D01*
X0110320Y0077628D01*
X0110451Y0077761D01*
X0110578Y0077896D01*
X0110703Y0078035D01*
X0110824Y0078176D01*
X0110941Y0078321D01*
X0111055Y0078468D01*
X0111166Y0078618D01*
X0111273Y0078771D01*
X0111376Y0078926D01*
X0111475Y0079083D01*
X0111570Y0079243D01*
X0111662Y0079406D01*
X0111749Y0079570D01*
X0111832Y0079737D01*
X0111832Y0086429D02*
X0111749Y0086596D01*
X0111662Y0086760D01*
X0111570Y0086923D01*
X0111475Y0087083D01*
X0111376Y0087240D01*
X0111273Y0087395D01*
X0111166Y0087548D01*
X0111055Y0087698D01*
X0110941Y0087845D01*
X0110824Y0087990D01*
X0110703Y0088131D01*
X0110578Y0088270D01*
X0110451Y0088405D01*
X0110320Y0088538D01*
X0110185Y0088667D01*
X0110048Y0088793D01*
X0109908Y0088915D01*
X0109764Y0089034D01*
X0109618Y0089150D01*
X0109469Y0089261D01*
X0109318Y0089370D01*
X0109164Y0089474D01*
X0109007Y0089575D01*
X0108848Y0089672D01*
X0108687Y0089765D01*
X0108523Y0089854D01*
X0108357Y0089939D01*
X0108190Y0090020D01*
X0108020Y0090097D01*
X0107848Y0090170D01*
X0107675Y0090238D01*
X0107500Y0090302D01*
X0107324Y0090362D01*
X0107146Y0090418D01*
X0106967Y0090470D01*
X0106787Y0090517D01*
X0106606Y0090559D01*
X0106424Y0090598D01*
X0106240Y0090631D01*
X0106057Y0090661D01*
X0105872Y0090685D01*
X0105687Y0090706D01*
X0105501Y0090722D01*
X0105315Y0090733D01*
X0105129Y0090740D01*
X0104943Y0090742D01*
X0104757Y0090740D01*
X0104571Y0090733D01*
X0104385Y0090722D01*
X0104199Y0090706D01*
X0104014Y0090685D01*
X0103829Y0090661D01*
X0103646Y0090631D01*
X0103462Y0090598D01*
X0103280Y0090559D01*
X0103099Y0090517D01*
X0102919Y0090470D01*
X0102740Y0090418D01*
X0102562Y0090362D01*
X0102386Y0090302D01*
X0102211Y0090238D01*
X0102038Y0090170D01*
X0101866Y0090097D01*
X0101696Y0090020D01*
X0101529Y0089939D01*
X0101363Y0089854D01*
X0101199Y0089765D01*
X0101038Y0089672D01*
X0100879Y0089575D01*
X0100722Y0089474D01*
X0100568Y0089370D01*
X0100417Y0089261D01*
X0100268Y0089150D01*
X0100122Y0089034D01*
X0099978Y0088915D01*
X0099838Y0088793D01*
X0099701Y0088667D01*
X0099566Y0088538D01*
X0099435Y0088405D01*
X0099308Y0088270D01*
X0099183Y0088131D01*
X0099062Y0087990D01*
X0098945Y0087845D01*
X0098831Y0087698D01*
X0098720Y0087548D01*
X0098613Y0087395D01*
X0098510Y0087240D01*
X0098411Y0087083D01*
X0098316Y0086923D01*
X0098224Y0086760D01*
X0098137Y0086596D01*
X0098054Y0086429D01*
X0096676Y0086429D02*
X0096676Y0091350D01*
X0108880Y0091350D01*
X0096676Y0091350D02*
X0096676Y0074815D01*
X0085442Y0071607D02*
X0084341Y0070506D01*
X0085809Y0070506D01*
X0085442Y0069405D02*
X0085442Y0071607D01*
X0082681Y0071607D02*
X0081947Y0070873D01*
X0081021Y0071240D02*
X0080654Y0071607D01*
X0079920Y0071607D01*
X0079553Y0071240D01*
X0079553Y0069772D01*
X0079920Y0069405D01*
X0080654Y0069405D01*
X0081021Y0069772D01*
X0081947Y0069405D02*
X0083415Y0069405D01*
X0082681Y0069405D02*
X0082681Y0071607D01*
X0082581Y0079694D02*
X0081847Y0080428D01*
X0082214Y0080428D02*
X0081113Y0080428D01*
X0081113Y0079694D02*
X0081113Y0081896D01*
X0082214Y0081896D01*
X0082581Y0081529D01*
X0082581Y0080795D01*
X0082214Y0080428D01*
X0083507Y0081162D02*
X0084241Y0081896D01*
X0084241Y0079694D01*
X0083507Y0079694D02*
X0084975Y0079694D01*
X0085901Y0080061D02*
X0086268Y0079694D01*
X0087002Y0079694D01*
X0087369Y0080061D01*
X0087369Y0080428D01*
X0087002Y0080795D01*
X0086635Y0080795D01*
X0087002Y0080795D02*
X0087369Y0081162D01*
X0087369Y0081529D01*
X0087002Y0081896D01*
X0086268Y0081896D01*
X0085901Y0081529D01*
X0070982Y0080903D02*
X0069514Y0080903D01*
X0070615Y0082004D01*
X0070615Y0079802D01*
X0068588Y0079802D02*
X0067120Y0079802D01*
X0067854Y0079802D02*
X0067854Y0082004D01*
X0067120Y0081270D01*
X0066194Y0081637D02*
X0066194Y0080903D01*
X0065827Y0080536D01*
X0064726Y0080536D01*
X0065460Y0080536D02*
X0066194Y0079802D01*
X0064726Y0079802D02*
X0064726Y0082004D01*
X0065827Y0082004D01*
X0066194Y0081637D01*
X0078470Y0087706D02*
X0079938Y0087706D01*
X0079204Y0087706D02*
X0079204Y0089908D01*
X0078470Y0089174D01*
X0080865Y0088807D02*
X0080865Y0089908D01*
X0082332Y0089908D01*
X0081965Y0089174D02*
X0082332Y0088807D01*
X0082332Y0088073D01*
X0081965Y0087706D01*
X0081231Y0087706D01*
X0080865Y0088073D01*
X0080865Y0088807D02*
X0081598Y0089174D01*
X0081965Y0089174D01*
X0083259Y0089541D02*
X0083626Y0089908D01*
X0084359Y0089908D01*
X0084726Y0089541D01*
X0083259Y0088073D01*
X0083626Y0087706D01*
X0084359Y0087706D01*
X0084726Y0088073D01*
X0084726Y0089541D01*
X0085653Y0089908D02*
X0085653Y0087706D01*
X0085653Y0088440D02*
X0086754Y0087706D01*
X0085653Y0088440D02*
X0086754Y0089174D01*
X0083259Y0089541D02*
X0083259Y0088073D01*
X0070814Y0088356D02*
X0069713Y0089090D01*
X0070814Y0089824D01*
X0069713Y0090558D02*
X0069713Y0088356D01*
X0068787Y0088723D02*
X0068420Y0088356D01*
X0067686Y0088356D01*
X0067319Y0088723D01*
X0068787Y0090191D01*
X0068787Y0088723D01*
X0067319Y0088723D02*
X0067319Y0090191D01*
X0067686Y0090558D01*
X0068420Y0090558D01*
X0068787Y0090191D01*
X0066393Y0090558D02*
X0064925Y0090558D01*
X0064925Y0089457D01*
X0065659Y0089824D01*
X0066026Y0089824D01*
X0066393Y0089457D01*
X0066393Y0088723D01*
X0066026Y0088356D01*
X0065292Y0088356D01*
X0064925Y0088723D01*
X0063999Y0088356D02*
X0062531Y0088356D01*
X0063265Y0088356D02*
X0063265Y0090558D01*
X0062531Y0089824D01*
D12*
X0388841Y0024327D03*
D13*
X0270691Y0029220D02*
X0270691Y0033157D01*
X0266754Y0033157D01*
X0243132Y0033157D02*
X0239195Y0033157D01*
X0239223Y0033086D02*
X0239223Y0029220D01*
X0239195Y0029220D01*
X0239195Y0017409D02*
X0239195Y0013472D01*
X0270691Y0013472D02*
X0270691Y0017409D01*
D14*
X0374585Y0065803D03*
D15*
X0358683Y0060683D02*
X0358202Y0060683D01*
X0358683Y0060683D02*
X0358683Y0054302D01*
X0358202Y0054302D01*
X0355031Y0054302D02*
X0354658Y0054302D01*
X0351291Y0054302D02*
X0350918Y0054302D01*
X0347748Y0054302D02*
X0347266Y0054302D01*
X0347266Y0060683D01*
X0347748Y0060683D01*
X0350918Y0060683D02*
X0355031Y0060683D01*
M02*
