G75*
%MOIN*%
%OFA0B0*%
%FSLAX25Y25*%
%IPPOS*%
%LPD*%
%AMOC8*
5,1,8,0,0,1.08239X$1,22.5*
%
%ADD10C,0.00800*%
%ADD11C,0.00400*%
%ADD12C,0.00276*%
%ADD13R,0.03937X0.05906*%
%ADD14R,0.05906X0.05906*%
%ADD15C,0.00600*%
%ADD16C,0.01000*%
%ADD17C,0.00500*%
D10*
X0011243Y0039382D02*
X0011243Y0041350D01*
X0002384Y0041350D01*
X0001400Y0042335D01*
X0001400Y0060051D01*
X0002384Y0061035D01*
X0011243Y0061035D01*
X0011243Y0063004D01*
X0068329Y0063004D01*
X0068329Y0039382D01*
X0011243Y0039382D01*
X0011243Y0041350D02*
X0011243Y0061035D01*
X0182699Y0053358D02*
X0182699Y0025012D01*
X0184865Y0025012D01*
X0184865Y0022846D01*
X0228959Y0022846D01*
X0228959Y0025012D01*
X0231124Y0025012D01*
X0231124Y0053358D01*
X0197660Y0061823D02*
X0197663Y0062050D01*
X0197671Y0062277D01*
X0197685Y0062504D01*
X0197705Y0062730D01*
X0197730Y0062956D01*
X0197760Y0063181D01*
X0197796Y0063405D01*
X0197838Y0063628D01*
X0197885Y0063850D01*
X0197937Y0064071D01*
X0197995Y0064291D01*
X0198058Y0064509D01*
X0198127Y0064725D01*
X0198201Y0064940D01*
X0198280Y0065153D01*
X0198364Y0065364D01*
X0198454Y0065572D01*
X0198548Y0065779D01*
X0198648Y0065983D01*
X0198752Y0066184D01*
X0198862Y0066383D01*
X0198976Y0066579D01*
X0199095Y0066773D01*
X0199219Y0066963D01*
X0199348Y0067150D01*
X0199481Y0067334D01*
X0199618Y0067515D01*
X0199760Y0067692D01*
X0199906Y0067866D01*
X0200057Y0068036D01*
X0200211Y0068203D01*
X0200370Y0068365D01*
X0200532Y0068524D01*
X0200699Y0068678D01*
X0200869Y0068829D01*
X0201043Y0068975D01*
X0201220Y0069117D01*
X0201401Y0069254D01*
X0201585Y0069387D01*
X0201772Y0069516D01*
X0201962Y0069640D01*
X0202156Y0069759D01*
X0202352Y0069873D01*
X0202551Y0069983D01*
X0202752Y0070087D01*
X0202956Y0070187D01*
X0203163Y0070281D01*
X0203371Y0070371D01*
X0203582Y0070455D01*
X0203795Y0070534D01*
X0204010Y0070608D01*
X0204226Y0070677D01*
X0204444Y0070740D01*
X0204664Y0070798D01*
X0204885Y0070850D01*
X0205107Y0070897D01*
X0205330Y0070939D01*
X0205554Y0070975D01*
X0205779Y0071005D01*
X0206005Y0071030D01*
X0206231Y0071050D01*
X0206458Y0071064D01*
X0206685Y0071072D01*
X0206912Y0071075D01*
X0207139Y0071072D01*
X0207366Y0071064D01*
X0207593Y0071050D01*
X0207819Y0071030D01*
X0208045Y0071005D01*
X0208270Y0070975D01*
X0208494Y0070939D01*
X0208717Y0070897D01*
X0208939Y0070850D01*
X0209160Y0070798D01*
X0209380Y0070740D01*
X0209598Y0070677D01*
X0209814Y0070608D01*
X0210029Y0070534D01*
X0210242Y0070455D01*
X0210453Y0070371D01*
X0210661Y0070281D01*
X0210868Y0070187D01*
X0211072Y0070087D01*
X0211273Y0069983D01*
X0211472Y0069873D01*
X0211668Y0069759D01*
X0211862Y0069640D01*
X0212052Y0069516D01*
X0212239Y0069387D01*
X0212423Y0069254D01*
X0212604Y0069117D01*
X0212781Y0068975D01*
X0212955Y0068829D01*
X0213125Y0068678D01*
X0213292Y0068524D01*
X0213454Y0068365D01*
X0213613Y0068203D01*
X0213767Y0068036D01*
X0213918Y0067866D01*
X0214064Y0067692D01*
X0214206Y0067515D01*
X0214343Y0067334D01*
X0214476Y0067150D01*
X0214605Y0066963D01*
X0214729Y0066773D01*
X0214848Y0066579D01*
X0214962Y0066383D01*
X0215072Y0066184D01*
X0215176Y0065983D01*
X0215276Y0065779D01*
X0215370Y0065572D01*
X0215460Y0065364D01*
X0215544Y0065153D01*
X0215623Y0064940D01*
X0215697Y0064725D01*
X0215766Y0064509D01*
X0215829Y0064291D01*
X0215887Y0064071D01*
X0215939Y0063850D01*
X0215986Y0063628D01*
X0216028Y0063405D01*
X0216064Y0063181D01*
X0216094Y0062956D01*
X0216119Y0062730D01*
X0216139Y0062504D01*
X0216153Y0062277D01*
X0216161Y0062050D01*
X0216164Y0061823D01*
X0216161Y0061596D01*
X0216153Y0061369D01*
X0216139Y0061142D01*
X0216119Y0060916D01*
X0216094Y0060690D01*
X0216064Y0060465D01*
X0216028Y0060241D01*
X0215986Y0060018D01*
X0215939Y0059796D01*
X0215887Y0059575D01*
X0215829Y0059355D01*
X0215766Y0059137D01*
X0215697Y0058921D01*
X0215623Y0058706D01*
X0215544Y0058493D01*
X0215460Y0058282D01*
X0215370Y0058074D01*
X0215276Y0057867D01*
X0215176Y0057663D01*
X0215072Y0057462D01*
X0214962Y0057263D01*
X0214848Y0057067D01*
X0214729Y0056873D01*
X0214605Y0056683D01*
X0214476Y0056496D01*
X0214343Y0056312D01*
X0214206Y0056131D01*
X0214064Y0055954D01*
X0213918Y0055780D01*
X0213767Y0055610D01*
X0213613Y0055443D01*
X0213454Y0055281D01*
X0213292Y0055122D01*
X0213125Y0054968D01*
X0212955Y0054817D01*
X0212781Y0054671D01*
X0212604Y0054529D01*
X0212423Y0054392D01*
X0212239Y0054259D01*
X0212052Y0054130D01*
X0211862Y0054006D01*
X0211668Y0053887D01*
X0211472Y0053773D01*
X0211273Y0053663D01*
X0211072Y0053559D01*
X0210868Y0053459D01*
X0210661Y0053365D01*
X0210453Y0053275D01*
X0210242Y0053191D01*
X0210029Y0053112D01*
X0209814Y0053038D01*
X0209598Y0052969D01*
X0209380Y0052906D01*
X0209160Y0052848D01*
X0208939Y0052796D01*
X0208717Y0052749D01*
X0208494Y0052707D01*
X0208270Y0052671D01*
X0208045Y0052641D01*
X0207819Y0052616D01*
X0207593Y0052596D01*
X0207366Y0052582D01*
X0207139Y0052574D01*
X0206912Y0052571D01*
X0206685Y0052574D01*
X0206458Y0052582D01*
X0206231Y0052596D01*
X0206005Y0052616D01*
X0205779Y0052641D01*
X0205554Y0052671D01*
X0205330Y0052707D01*
X0205107Y0052749D01*
X0204885Y0052796D01*
X0204664Y0052848D01*
X0204444Y0052906D01*
X0204226Y0052969D01*
X0204010Y0053038D01*
X0203795Y0053112D01*
X0203582Y0053191D01*
X0203371Y0053275D01*
X0203163Y0053365D01*
X0202956Y0053459D01*
X0202752Y0053559D01*
X0202551Y0053663D01*
X0202352Y0053773D01*
X0202156Y0053887D01*
X0201962Y0054006D01*
X0201772Y0054130D01*
X0201585Y0054259D01*
X0201401Y0054392D01*
X0201220Y0054529D01*
X0201043Y0054671D01*
X0200869Y0054817D01*
X0200699Y0054968D01*
X0200532Y0055122D01*
X0200370Y0055281D01*
X0200211Y0055443D01*
X0200057Y0055610D01*
X0199906Y0055780D01*
X0199760Y0055954D01*
X0199618Y0056131D01*
X0199481Y0056312D01*
X0199348Y0056496D01*
X0199219Y0056683D01*
X0199095Y0056873D01*
X0198976Y0057067D01*
X0198862Y0057263D01*
X0198752Y0057462D01*
X0198648Y0057663D01*
X0198548Y0057867D01*
X0198454Y0058074D01*
X0198364Y0058282D01*
X0198280Y0058493D01*
X0198201Y0058706D01*
X0198127Y0058921D01*
X0198058Y0059137D01*
X0197995Y0059355D01*
X0197937Y0059575D01*
X0197885Y0059796D01*
X0197838Y0060018D01*
X0197796Y0060241D01*
X0197760Y0060465D01*
X0197730Y0060690D01*
X0197705Y0060916D01*
X0197685Y0061142D01*
X0197671Y0061369D01*
X0197663Y0061596D01*
X0197660Y0061823D01*
X0195495Y0061823D02*
X0195498Y0062103D01*
X0195509Y0062383D01*
X0195526Y0062663D01*
X0195550Y0062942D01*
X0195581Y0063221D01*
X0195619Y0063498D01*
X0195663Y0063775D01*
X0195714Y0064050D01*
X0195772Y0064324D01*
X0195837Y0064597D01*
X0195909Y0064868D01*
X0195987Y0065137D01*
X0196071Y0065404D01*
X0196162Y0065669D01*
X0196260Y0065932D01*
X0196364Y0066192D01*
X0196474Y0066450D01*
X0196591Y0066704D01*
X0196714Y0066956D01*
X0196843Y0067205D01*
X0196978Y0067450D01*
X0197119Y0067693D01*
X0197266Y0067931D01*
X0197419Y0068166D01*
X0197578Y0068397D01*
X0197742Y0068624D01*
X0197911Y0068847D01*
X0198087Y0069066D01*
X0198267Y0069280D01*
X0198453Y0069490D01*
X0198643Y0069695D01*
X0198839Y0069896D01*
X0199040Y0070092D01*
X0199245Y0070282D01*
X0199455Y0070468D01*
X0199669Y0070648D01*
X0199888Y0070824D01*
X0200111Y0070993D01*
X0200338Y0071157D01*
X0200569Y0071316D01*
X0200804Y0071469D01*
X0201042Y0071616D01*
X0201285Y0071757D01*
X0201530Y0071892D01*
X0201779Y0072021D01*
X0202031Y0072144D01*
X0202285Y0072261D01*
X0202543Y0072371D01*
X0202803Y0072475D01*
X0203066Y0072573D01*
X0203331Y0072664D01*
X0203598Y0072748D01*
X0203867Y0072826D01*
X0204138Y0072898D01*
X0204411Y0072963D01*
X0204685Y0073021D01*
X0204960Y0073072D01*
X0205237Y0073116D01*
X0205514Y0073154D01*
X0205793Y0073185D01*
X0206072Y0073209D01*
X0206352Y0073226D01*
X0206632Y0073237D01*
X0206912Y0073240D01*
X0207192Y0073237D01*
X0207472Y0073226D01*
X0207752Y0073209D01*
X0208031Y0073185D01*
X0208310Y0073154D01*
X0208587Y0073116D01*
X0208864Y0073072D01*
X0209139Y0073021D01*
X0209413Y0072963D01*
X0209686Y0072898D01*
X0209957Y0072826D01*
X0210226Y0072748D01*
X0210493Y0072664D01*
X0210758Y0072573D01*
X0211021Y0072475D01*
X0211281Y0072371D01*
X0211539Y0072261D01*
X0211793Y0072144D01*
X0212045Y0072021D01*
X0212294Y0071892D01*
X0212539Y0071757D01*
X0212782Y0071616D01*
X0213020Y0071469D01*
X0213255Y0071316D01*
X0213486Y0071157D01*
X0213713Y0070993D01*
X0213936Y0070824D01*
X0214155Y0070648D01*
X0214369Y0070468D01*
X0214579Y0070282D01*
X0214784Y0070092D01*
X0214985Y0069896D01*
X0215181Y0069695D01*
X0215371Y0069490D01*
X0215557Y0069280D01*
X0215737Y0069066D01*
X0215913Y0068847D01*
X0216082Y0068624D01*
X0216246Y0068397D01*
X0216405Y0068166D01*
X0216558Y0067931D01*
X0216705Y0067693D01*
X0216846Y0067450D01*
X0216981Y0067205D01*
X0217110Y0066956D01*
X0217233Y0066704D01*
X0217350Y0066450D01*
X0217460Y0066192D01*
X0217564Y0065932D01*
X0217662Y0065669D01*
X0217753Y0065404D01*
X0217837Y0065137D01*
X0217915Y0064868D01*
X0217987Y0064597D01*
X0218052Y0064324D01*
X0218110Y0064050D01*
X0218161Y0063775D01*
X0218205Y0063498D01*
X0218243Y0063221D01*
X0218274Y0062942D01*
X0218298Y0062663D01*
X0218315Y0062383D01*
X0218326Y0062103D01*
X0218329Y0061823D01*
X0218326Y0061543D01*
X0218315Y0061263D01*
X0218298Y0060983D01*
X0218274Y0060704D01*
X0218243Y0060425D01*
X0218205Y0060148D01*
X0218161Y0059871D01*
X0218110Y0059596D01*
X0218052Y0059322D01*
X0217987Y0059049D01*
X0217915Y0058778D01*
X0217837Y0058509D01*
X0217753Y0058242D01*
X0217662Y0057977D01*
X0217564Y0057714D01*
X0217460Y0057454D01*
X0217350Y0057196D01*
X0217233Y0056942D01*
X0217110Y0056690D01*
X0216981Y0056441D01*
X0216846Y0056196D01*
X0216705Y0055953D01*
X0216558Y0055715D01*
X0216405Y0055480D01*
X0216246Y0055249D01*
X0216082Y0055022D01*
X0215913Y0054799D01*
X0215737Y0054580D01*
X0215557Y0054366D01*
X0215371Y0054156D01*
X0215181Y0053951D01*
X0214985Y0053750D01*
X0214784Y0053554D01*
X0214579Y0053364D01*
X0214369Y0053178D01*
X0214155Y0052998D01*
X0213936Y0052822D01*
X0213713Y0052653D01*
X0213486Y0052489D01*
X0213255Y0052330D01*
X0213020Y0052177D01*
X0212782Y0052030D01*
X0212539Y0051889D01*
X0212294Y0051754D01*
X0212045Y0051625D01*
X0211793Y0051502D01*
X0211539Y0051385D01*
X0211281Y0051275D01*
X0211021Y0051171D01*
X0210758Y0051073D01*
X0210493Y0050982D01*
X0210226Y0050898D01*
X0209957Y0050820D01*
X0209686Y0050748D01*
X0209413Y0050683D01*
X0209139Y0050625D01*
X0208864Y0050574D01*
X0208587Y0050530D01*
X0208310Y0050492D01*
X0208031Y0050461D01*
X0207752Y0050437D01*
X0207472Y0050420D01*
X0207192Y0050409D01*
X0206912Y0050406D01*
X0206632Y0050409D01*
X0206352Y0050420D01*
X0206072Y0050437D01*
X0205793Y0050461D01*
X0205514Y0050492D01*
X0205237Y0050530D01*
X0204960Y0050574D01*
X0204685Y0050625D01*
X0204411Y0050683D01*
X0204138Y0050748D01*
X0203867Y0050820D01*
X0203598Y0050898D01*
X0203331Y0050982D01*
X0203066Y0051073D01*
X0202803Y0051171D01*
X0202543Y0051275D01*
X0202285Y0051385D01*
X0202031Y0051502D01*
X0201779Y0051625D01*
X0201530Y0051754D01*
X0201285Y0051889D01*
X0201042Y0052030D01*
X0200804Y0052177D01*
X0200569Y0052330D01*
X0200338Y0052489D01*
X0200111Y0052653D01*
X0199888Y0052822D01*
X0199669Y0052998D01*
X0199455Y0053178D01*
X0199245Y0053364D01*
X0199040Y0053554D01*
X0198839Y0053750D01*
X0198643Y0053951D01*
X0198453Y0054156D01*
X0198267Y0054366D01*
X0198087Y0054580D01*
X0197911Y0054799D01*
X0197742Y0055022D01*
X0197578Y0055249D01*
X0197419Y0055480D01*
X0197266Y0055715D01*
X0197119Y0055953D01*
X0196978Y0056196D01*
X0196843Y0056441D01*
X0196714Y0056690D01*
X0196591Y0056942D01*
X0196474Y0057196D01*
X0196364Y0057454D01*
X0196260Y0057714D01*
X0196162Y0057977D01*
X0196071Y0058242D01*
X0195987Y0058509D01*
X0195909Y0058778D01*
X0195837Y0059049D01*
X0195772Y0059322D01*
X0195714Y0059596D01*
X0195663Y0059871D01*
X0195619Y0060148D01*
X0195581Y0060425D01*
X0195550Y0060704D01*
X0195526Y0060983D01*
X0195509Y0061263D01*
X0195498Y0061543D01*
X0195495Y0061823D01*
X0182699Y0072256D02*
X0182699Y0084854D01*
X0184865Y0084854D01*
X0184865Y0087020D01*
X0228959Y0087020D01*
X0228959Y0084854D01*
X0231124Y0084854D01*
X0231124Y0072256D01*
D11*
X0027835Y0016893D02*
X0027502Y0017227D01*
X0027502Y0017894D01*
X0027835Y0018227D01*
X0028169Y0018227D01*
X0028502Y0017894D01*
X0028502Y0017560D01*
X0028502Y0017894D02*
X0028836Y0018227D01*
X0029170Y0018227D01*
X0029503Y0017894D01*
X0029503Y0017227D01*
X0029170Y0016893D01*
X0028502Y0019103D02*
X0028502Y0020437D01*
X0028169Y0021313D02*
X0028169Y0022314D01*
X0028502Y0022647D01*
X0029170Y0022647D01*
X0029503Y0022314D01*
X0029503Y0021313D01*
X0027502Y0021313D01*
X0028169Y0021980D02*
X0027502Y0022647D01*
X0027502Y0023523D02*
X0027502Y0024190D01*
X0027502Y0023856D02*
X0028836Y0023856D01*
X0028836Y0023523D01*
X0029503Y0023856D02*
X0029837Y0023856D01*
X0028836Y0024996D02*
X0027502Y0024996D01*
X0028836Y0024996D02*
X0028836Y0025997D01*
X0028502Y0026330D01*
X0027502Y0026330D01*
X0027835Y0027206D02*
X0027502Y0027539D01*
X0027502Y0028540D01*
X0027168Y0028540D02*
X0028836Y0028540D01*
X0028836Y0027539D01*
X0028502Y0027206D01*
X0027835Y0027206D01*
X0026834Y0027873D02*
X0026834Y0028207D01*
X0027168Y0028540D01*
X0041890Y0034947D02*
X0042257Y0034580D01*
X0042991Y0034580D01*
X0043358Y0034947D01*
X0042624Y0035681D02*
X0042257Y0035681D01*
X0041890Y0035314D01*
X0041890Y0034947D01*
X0042257Y0035681D02*
X0041890Y0036048D01*
X0041890Y0036415D01*
X0042257Y0036782D01*
X0042991Y0036782D01*
X0043358Y0036415D01*
X0044284Y0036782D02*
X0045018Y0036782D01*
X0044651Y0036782D02*
X0044651Y0034947D01*
X0045018Y0034580D01*
X0045385Y0034580D01*
X0045752Y0034947D01*
X0083002Y0043893D02*
X0083002Y0045227D01*
X0083002Y0046103D02*
X0083002Y0047437D01*
X0084003Y0048313D02*
X0084003Y0049647D01*
X0084003Y0048980D02*
X0082002Y0048980D01*
X0082002Y0050523D02*
X0082002Y0051190D01*
X0082002Y0050856D02*
X0083336Y0050856D01*
X0083336Y0050523D01*
X0084003Y0050856D02*
X0084337Y0050856D01*
X0083336Y0051996D02*
X0083336Y0052997D01*
X0083002Y0053330D01*
X0082335Y0053330D01*
X0082002Y0052997D01*
X0082002Y0051996D01*
X0081334Y0051996D02*
X0083336Y0051996D01*
X0084003Y0056416D02*
X0084003Y0057750D01*
X0084003Y0057083D02*
X0082002Y0057083D01*
X0082335Y0058625D02*
X0083002Y0058625D01*
X0083336Y0058959D01*
X0083336Y0059626D01*
X0083002Y0059960D01*
X0082669Y0059960D01*
X0082669Y0058625D01*
X0082335Y0058625D02*
X0082002Y0058959D01*
X0082002Y0059626D01*
X0082002Y0060835D02*
X0082002Y0061836D01*
X0082335Y0062170D01*
X0082669Y0061836D01*
X0082669Y0061169D01*
X0083002Y0060835D01*
X0083336Y0061169D01*
X0083336Y0062170D01*
X0083336Y0063045D02*
X0083336Y0063712D01*
X0083670Y0063379D02*
X0082335Y0063379D01*
X0082002Y0063712D01*
X0058503Y0074227D02*
X0058170Y0073893D01*
X0058503Y0074227D02*
X0058503Y0074894D01*
X0058170Y0075227D01*
X0057836Y0075227D01*
X0056502Y0073893D01*
X0056502Y0075227D01*
X0057502Y0076103D02*
X0057502Y0077437D01*
X0058503Y0078313D02*
X0058503Y0079647D01*
X0058503Y0078980D02*
X0056502Y0078980D01*
X0056502Y0080523D02*
X0056502Y0081190D01*
X0056502Y0080856D02*
X0057836Y0080856D01*
X0057836Y0080523D01*
X0058503Y0080856D02*
X0058837Y0080856D01*
X0057836Y0081996D02*
X0055834Y0081996D01*
X0056502Y0081996D02*
X0056502Y0082997D01*
X0056835Y0083330D01*
X0057502Y0083330D01*
X0057836Y0082997D01*
X0057836Y0081996D01*
X0022003Y0080356D02*
X0020002Y0080356D01*
X0020002Y0080023D02*
X0020002Y0080690D01*
X0020335Y0081496D02*
X0020002Y0081829D01*
X0020002Y0082497D01*
X0020669Y0082830D02*
X0020669Y0081496D01*
X0021002Y0081496D02*
X0021336Y0081829D01*
X0021336Y0082497D01*
X0021002Y0082830D01*
X0020669Y0082830D01*
X0020669Y0083706D02*
X0020669Y0085040D01*
X0021002Y0085040D01*
X0021336Y0084707D01*
X0021336Y0084039D01*
X0021002Y0083706D01*
X0020335Y0083706D01*
X0020002Y0084039D01*
X0020002Y0084707D01*
X0021336Y0085916D02*
X0020002Y0086583D01*
X0021336Y0087250D01*
X0021002Y0088125D02*
X0021336Y0088459D01*
X0021336Y0089126D01*
X0021002Y0089460D01*
X0020669Y0089460D01*
X0020669Y0088125D01*
X0021002Y0088125D02*
X0020335Y0088125D01*
X0020002Y0088459D01*
X0020002Y0089126D01*
X0020335Y0081496D02*
X0021002Y0081496D01*
X0022003Y0080356D02*
X0022003Y0080023D01*
X0021670Y0079147D02*
X0022003Y0078814D01*
X0022003Y0078146D01*
X0021670Y0077813D01*
X0021336Y0077813D01*
X0021002Y0078146D01*
X0021002Y0078814D01*
X0020669Y0079147D01*
X0020335Y0079147D01*
X0020002Y0078814D01*
X0020002Y0078146D01*
X0020335Y0077813D01*
X0021002Y0076937D02*
X0021002Y0075603D01*
X0020002Y0074727D02*
X0020002Y0073393D01*
X0020002Y0074060D02*
X0022003Y0074060D01*
X0021336Y0073393D01*
X0082002Y0044894D02*
X0084003Y0044894D01*
X0083002Y0043893D01*
X0186636Y0040957D02*
X0186638Y0041058D01*
X0186644Y0041159D01*
X0186654Y0041260D01*
X0186668Y0041360D01*
X0186686Y0041459D01*
X0186708Y0041558D01*
X0186733Y0041656D01*
X0186763Y0041753D01*
X0186796Y0041848D01*
X0186833Y0041942D01*
X0186874Y0042035D01*
X0186918Y0042126D01*
X0186966Y0042215D01*
X0187018Y0042302D01*
X0187073Y0042387D01*
X0187131Y0042469D01*
X0187192Y0042550D01*
X0187257Y0042628D01*
X0187324Y0042703D01*
X0187394Y0042775D01*
X0187468Y0042845D01*
X0187544Y0042912D01*
X0187622Y0042976D01*
X0187703Y0043036D01*
X0187786Y0043093D01*
X0187872Y0043147D01*
X0187960Y0043198D01*
X0188049Y0043245D01*
X0188140Y0043289D01*
X0188233Y0043328D01*
X0188328Y0043365D01*
X0188423Y0043397D01*
X0188520Y0043426D01*
X0188619Y0043450D01*
X0188717Y0043471D01*
X0188817Y0043488D01*
X0188917Y0043501D01*
X0189018Y0043510D01*
X0189119Y0043515D01*
X0189220Y0043516D01*
X0189321Y0043513D01*
X0189422Y0043506D01*
X0189523Y0043495D01*
X0189623Y0043480D01*
X0189722Y0043461D01*
X0189821Y0043438D01*
X0189918Y0043412D01*
X0190015Y0043381D01*
X0190110Y0043347D01*
X0190203Y0043309D01*
X0190296Y0043267D01*
X0190386Y0043222D01*
X0190475Y0043173D01*
X0190561Y0043121D01*
X0190645Y0043065D01*
X0190728Y0043006D01*
X0190807Y0042944D01*
X0190885Y0042879D01*
X0190959Y0042811D01*
X0191031Y0042739D01*
X0191100Y0042666D01*
X0191166Y0042589D01*
X0191229Y0042510D01*
X0191289Y0042428D01*
X0191345Y0042344D01*
X0191398Y0042258D01*
X0191448Y0042170D01*
X0191494Y0042080D01*
X0191537Y0041989D01*
X0191576Y0041895D01*
X0191611Y0041800D01*
X0191642Y0041704D01*
X0191670Y0041607D01*
X0191694Y0041509D01*
X0191714Y0041410D01*
X0191730Y0041310D01*
X0191742Y0041209D01*
X0191750Y0041109D01*
X0191754Y0041008D01*
X0191754Y0040906D01*
X0191750Y0040805D01*
X0191742Y0040705D01*
X0191730Y0040604D01*
X0191714Y0040504D01*
X0191694Y0040405D01*
X0191670Y0040307D01*
X0191642Y0040210D01*
X0191611Y0040114D01*
X0191576Y0040019D01*
X0191537Y0039925D01*
X0191494Y0039834D01*
X0191448Y0039744D01*
X0191398Y0039656D01*
X0191345Y0039570D01*
X0191289Y0039486D01*
X0191229Y0039404D01*
X0191166Y0039325D01*
X0191100Y0039248D01*
X0191031Y0039175D01*
X0190959Y0039103D01*
X0190885Y0039035D01*
X0190807Y0038970D01*
X0190728Y0038908D01*
X0190645Y0038849D01*
X0190561Y0038793D01*
X0190474Y0038741D01*
X0190386Y0038692D01*
X0190296Y0038647D01*
X0190203Y0038605D01*
X0190110Y0038567D01*
X0190015Y0038533D01*
X0189918Y0038502D01*
X0189821Y0038476D01*
X0189722Y0038453D01*
X0189623Y0038434D01*
X0189523Y0038419D01*
X0189422Y0038408D01*
X0189321Y0038401D01*
X0189220Y0038398D01*
X0189119Y0038399D01*
X0189018Y0038404D01*
X0188917Y0038413D01*
X0188817Y0038426D01*
X0188717Y0038443D01*
X0188619Y0038464D01*
X0188520Y0038488D01*
X0188423Y0038517D01*
X0188328Y0038549D01*
X0188233Y0038586D01*
X0188140Y0038625D01*
X0188049Y0038669D01*
X0187960Y0038716D01*
X0187872Y0038767D01*
X0187786Y0038821D01*
X0187703Y0038878D01*
X0187622Y0038938D01*
X0187544Y0039002D01*
X0187468Y0039069D01*
X0187394Y0039139D01*
X0187324Y0039211D01*
X0187257Y0039286D01*
X0187192Y0039364D01*
X0187131Y0039445D01*
X0187073Y0039527D01*
X0187018Y0039612D01*
X0186966Y0039699D01*
X0186918Y0039788D01*
X0186874Y0039879D01*
X0186833Y0039972D01*
X0186796Y0040066D01*
X0186763Y0040161D01*
X0186733Y0040258D01*
X0186708Y0040356D01*
X0186686Y0040455D01*
X0186668Y0040554D01*
X0186654Y0040654D01*
X0186644Y0040755D01*
X0186638Y0040856D01*
X0186636Y0040957D01*
X0222069Y0040957D02*
X0222071Y0041058D01*
X0222077Y0041159D01*
X0222087Y0041260D01*
X0222101Y0041360D01*
X0222119Y0041459D01*
X0222141Y0041558D01*
X0222166Y0041656D01*
X0222196Y0041753D01*
X0222229Y0041848D01*
X0222266Y0041942D01*
X0222307Y0042035D01*
X0222351Y0042126D01*
X0222399Y0042215D01*
X0222451Y0042302D01*
X0222506Y0042387D01*
X0222564Y0042469D01*
X0222625Y0042550D01*
X0222690Y0042628D01*
X0222757Y0042703D01*
X0222827Y0042775D01*
X0222901Y0042845D01*
X0222977Y0042912D01*
X0223055Y0042976D01*
X0223136Y0043036D01*
X0223219Y0043093D01*
X0223305Y0043147D01*
X0223393Y0043198D01*
X0223482Y0043245D01*
X0223573Y0043289D01*
X0223666Y0043328D01*
X0223761Y0043365D01*
X0223856Y0043397D01*
X0223953Y0043426D01*
X0224052Y0043450D01*
X0224150Y0043471D01*
X0224250Y0043488D01*
X0224350Y0043501D01*
X0224451Y0043510D01*
X0224552Y0043515D01*
X0224653Y0043516D01*
X0224754Y0043513D01*
X0224855Y0043506D01*
X0224956Y0043495D01*
X0225056Y0043480D01*
X0225155Y0043461D01*
X0225254Y0043438D01*
X0225351Y0043412D01*
X0225448Y0043381D01*
X0225543Y0043347D01*
X0225636Y0043309D01*
X0225729Y0043267D01*
X0225819Y0043222D01*
X0225908Y0043173D01*
X0225994Y0043121D01*
X0226078Y0043065D01*
X0226161Y0043006D01*
X0226240Y0042944D01*
X0226318Y0042879D01*
X0226392Y0042811D01*
X0226464Y0042739D01*
X0226533Y0042666D01*
X0226599Y0042589D01*
X0226662Y0042510D01*
X0226722Y0042428D01*
X0226778Y0042344D01*
X0226831Y0042258D01*
X0226881Y0042170D01*
X0226927Y0042080D01*
X0226970Y0041989D01*
X0227009Y0041895D01*
X0227044Y0041800D01*
X0227075Y0041704D01*
X0227103Y0041607D01*
X0227127Y0041509D01*
X0227147Y0041410D01*
X0227163Y0041310D01*
X0227175Y0041209D01*
X0227183Y0041109D01*
X0227187Y0041008D01*
X0227187Y0040906D01*
X0227183Y0040805D01*
X0227175Y0040705D01*
X0227163Y0040604D01*
X0227147Y0040504D01*
X0227127Y0040405D01*
X0227103Y0040307D01*
X0227075Y0040210D01*
X0227044Y0040114D01*
X0227009Y0040019D01*
X0226970Y0039925D01*
X0226927Y0039834D01*
X0226881Y0039744D01*
X0226831Y0039656D01*
X0226778Y0039570D01*
X0226722Y0039486D01*
X0226662Y0039404D01*
X0226599Y0039325D01*
X0226533Y0039248D01*
X0226464Y0039175D01*
X0226392Y0039103D01*
X0226318Y0039035D01*
X0226240Y0038970D01*
X0226161Y0038908D01*
X0226078Y0038849D01*
X0225994Y0038793D01*
X0225907Y0038741D01*
X0225819Y0038692D01*
X0225729Y0038647D01*
X0225636Y0038605D01*
X0225543Y0038567D01*
X0225448Y0038533D01*
X0225351Y0038502D01*
X0225254Y0038476D01*
X0225155Y0038453D01*
X0225056Y0038434D01*
X0224956Y0038419D01*
X0224855Y0038408D01*
X0224754Y0038401D01*
X0224653Y0038398D01*
X0224552Y0038399D01*
X0224451Y0038404D01*
X0224350Y0038413D01*
X0224250Y0038426D01*
X0224150Y0038443D01*
X0224052Y0038464D01*
X0223953Y0038488D01*
X0223856Y0038517D01*
X0223761Y0038549D01*
X0223666Y0038586D01*
X0223573Y0038625D01*
X0223482Y0038669D01*
X0223393Y0038716D01*
X0223305Y0038767D01*
X0223219Y0038821D01*
X0223136Y0038878D01*
X0223055Y0038938D01*
X0222977Y0039002D01*
X0222901Y0039069D01*
X0222827Y0039139D01*
X0222757Y0039211D01*
X0222690Y0039286D01*
X0222625Y0039364D01*
X0222564Y0039445D01*
X0222506Y0039527D01*
X0222451Y0039612D01*
X0222399Y0039699D01*
X0222351Y0039788D01*
X0222307Y0039879D01*
X0222266Y0039972D01*
X0222229Y0040066D01*
X0222196Y0040161D01*
X0222166Y0040258D01*
X0222141Y0040356D01*
X0222119Y0040455D01*
X0222101Y0040554D01*
X0222087Y0040654D01*
X0222077Y0040755D01*
X0222071Y0040856D01*
X0222069Y0040957D01*
X0275632Y0029970D02*
X0275999Y0030337D01*
X0277834Y0030337D01*
X0277834Y0029236D01*
X0277467Y0028869D01*
X0276733Y0028869D01*
X0276366Y0029236D01*
X0276366Y0030337D01*
X0275632Y0029970D02*
X0275632Y0029603D01*
X0276733Y0031263D02*
X0277467Y0031263D01*
X0277834Y0031630D01*
X0277834Y0032364D01*
X0277467Y0032731D01*
X0277100Y0032731D01*
X0277100Y0031263D01*
X0276733Y0031263D02*
X0276366Y0031630D01*
X0276366Y0032364D01*
X0287660Y0035298D02*
X0287660Y0036766D01*
X0288394Y0036032D02*
X0286926Y0036032D01*
X0297143Y0031747D02*
X0299345Y0031747D01*
X0298244Y0030646D01*
X0298244Y0032114D01*
X0297510Y0029720D02*
X0298978Y0029720D01*
X0299345Y0029353D01*
X0299345Y0028252D01*
X0297143Y0028252D01*
X0297143Y0029353D01*
X0297510Y0029720D01*
X0297143Y0027326D02*
X0297143Y0025858D01*
X0299345Y0025858D01*
X0299345Y0027326D01*
X0298244Y0026592D02*
X0298244Y0025858D01*
X0297143Y0024932D02*
X0297143Y0023464D01*
X0299345Y0023464D01*
X0278568Y0022085D02*
X0276366Y0022085D01*
X0276733Y0021159D02*
X0276366Y0020792D01*
X0276366Y0020058D01*
X0276733Y0019691D01*
X0278201Y0019691D01*
X0278568Y0020058D01*
X0278568Y0020792D01*
X0278201Y0021159D01*
X0277467Y0022085D02*
X0277834Y0022452D01*
X0277834Y0023186D01*
X0277467Y0023553D01*
X0276366Y0023553D01*
X0276733Y0024480D02*
X0277100Y0024846D01*
X0277100Y0025947D01*
X0277467Y0025947D02*
X0276366Y0025947D01*
X0276366Y0024846D01*
X0276733Y0024480D01*
X0277834Y0024846D02*
X0277834Y0025580D01*
X0277467Y0025947D01*
X0277100Y0026874D02*
X0277834Y0027608D01*
X0277834Y0027974D01*
X0277834Y0026874D02*
X0276366Y0026874D01*
X0287699Y0015939D02*
X0287699Y0014471D01*
X0353810Y0068093D02*
X0353810Y0069561D01*
X0345269Y0073739D02*
X0343067Y0073739D01*
X0343801Y0073739D02*
X0343801Y0074840D01*
X0344168Y0075207D01*
X0344902Y0075207D01*
X0345269Y0074840D01*
X0345269Y0073739D01*
X0344168Y0076133D02*
X0343434Y0076133D01*
X0343067Y0076500D01*
X0343067Y0077234D01*
X0343434Y0077601D01*
X0344168Y0077601D01*
X0344535Y0077234D01*
X0344535Y0076500D01*
X0344168Y0076133D01*
X0344535Y0078527D02*
X0343434Y0078527D01*
X0343067Y0078894D01*
X0343434Y0079261D01*
X0343067Y0079628D01*
X0343434Y0079995D01*
X0344535Y0079995D01*
X0344168Y0080921D02*
X0344535Y0081288D01*
X0344535Y0082022D01*
X0344168Y0082389D01*
X0343801Y0082389D01*
X0343801Y0080921D01*
X0343434Y0080921D02*
X0344168Y0080921D01*
X0343434Y0080921D02*
X0343067Y0081288D01*
X0343067Y0082022D01*
X0343067Y0083315D02*
X0344535Y0083315D01*
X0343801Y0083315D02*
X0344535Y0084049D01*
X0344535Y0084416D01*
X0328722Y0087295D02*
X0327254Y0087295D01*
X0327254Y0089497D01*
X0327254Y0088396D02*
X0327988Y0088396D01*
X0326328Y0087295D02*
X0324860Y0087295D01*
X0324860Y0089497D01*
X0323934Y0089130D02*
X0323934Y0087662D01*
X0323567Y0087295D01*
X0322833Y0087295D01*
X0322466Y0087662D01*
X0322466Y0089130D01*
X0322833Y0089497D01*
X0323567Y0089497D01*
X0323934Y0089130D01*
X0324860Y0088396D02*
X0325594Y0088396D01*
X0319241Y0089497D02*
X0319241Y0087295D01*
X0317774Y0087295D02*
X0319241Y0089497D01*
X0317774Y0089497D02*
X0317774Y0087295D01*
X0316847Y0087662D02*
X0316480Y0087295D01*
X0315747Y0087295D01*
X0315380Y0087662D01*
X0315380Y0089130D01*
X0315747Y0089497D01*
X0316480Y0089497D01*
X0316847Y0089130D01*
X0316847Y0087662D01*
X0353233Y0089339D02*
X0354701Y0089339D01*
X0353967Y0088605D02*
X0353967Y0090073D01*
X0362941Y0083781D02*
X0362941Y0083047D01*
X0363308Y0082680D01*
X0363308Y0081754D02*
X0364776Y0081754D01*
X0365143Y0081387D01*
X0365143Y0080286D01*
X0362941Y0080286D01*
X0362941Y0081387D01*
X0363308Y0081754D01*
X0364776Y0082680D02*
X0365143Y0083047D01*
X0365143Y0083781D01*
X0364776Y0084148D01*
X0364409Y0084148D01*
X0364042Y0083781D01*
X0363675Y0084148D01*
X0363308Y0084148D01*
X0362941Y0083781D01*
X0364042Y0083781D02*
X0364042Y0083414D01*
X0365143Y0079360D02*
X0365143Y0077892D01*
X0362941Y0077892D01*
X0362941Y0079360D01*
X0364042Y0078626D02*
X0364042Y0077892D01*
X0362941Y0076966D02*
X0362941Y0075498D01*
X0365143Y0075498D01*
X0234768Y0075169D02*
X0234768Y0076270D01*
X0234401Y0076637D01*
X0233667Y0076637D01*
X0233300Y0076270D01*
X0233300Y0075169D01*
X0232566Y0075169D02*
X0234768Y0075169D01*
X0234401Y0077563D02*
X0232933Y0077563D01*
X0232566Y0077930D01*
X0232566Y0078664D01*
X0232933Y0079031D01*
X0234401Y0079031D01*
X0234768Y0078664D01*
X0234768Y0077930D01*
X0234401Y0077563D01*
X0234768Y0079957D02*
X0234768Y0081425D01*
X0234768Y0080691D02*
X0232566Y0080691D01*
X0232566Y0082351D02*
X0232566Y0083819D01*
X0232566Y0083085D02*
X0234768Y0083085D01*
X0234034Y0082351D01*
X0222069Y0082689D02*
X0222071Y0082790D01*
X0222077Y0082891D01*
X0222087Y0082992D01*
X0222101Y0083092D01*
X0222119Y0083191D01*
X0222141Y0083290D01*
X0222166Y0083388D01*
X0222196Y0083485D01*
X0222229Y0083580D01*
X0222266Y0083674D01*
X0222307Y0083767D01*
X0222351Y0083858D01*
X0222399Y0083947D01*
X0222451Y0084034D01*
X0222506Y0084119D01*
X0222564Y0084201D01*
X0222625Y0084282D01*
X0222690Y0084360D01*
X0222757Y0084435D01*
X0222827Y0084507D01*
X0222901Y0084577D01*
X0222977Y0084644D01*
X0223055Y0084708D01*
X0223136Y0084768D01*
X0223219Y0084825D01*
X0223305Y0084879D01*
X0223393Y0084930D01*
X0223482Y0084977D01*
X0223573Y0085021D01*
X0223666Y0085060D01*
X0223761Y0085097D01*
X0223856Y0085129D01*
X0223953Y0085158D01*
X0224052Y0085182D01*
X0224150Y0085203D01*
X0224250Y0085220D01*
X0224350Y0085233D01*
X0224451Y0085242D01*
X0224552Y0085247D01*
X0224653Y0085248D01*
X0224754Y0085245D01*
X0224855Y0085238D01*
X0224956Y0085227D01*
X0225056Y0085212D01*
X0225155Y0085193D01*
X0225254Y0085170D01*
X0225351Y0085144D01*
X0225448Y0085113D01*
X0225543Y0085079D01*
X0225636Y0085041D01*
X0225729Y0084999D01*
X0225819Y0084954D01*
X0225908Y0084905D01*
X0225994Y0084853D01*
X0226078Y0084797D01*
X0226161Y0084738D01*
X0226240Y0084676D01*
X0226318Y0084611D01*
X0226392Y0084543D01*
X0226464Y0084471D01*
X0226533Y0084398D01*
X0226599Y0084321D01*
X0226662Y0084242D01*
X0226722Y0084160D01*
X0226778Y0084076D01*
X0226831Y0083990D01*
X0226881Y0083902D01*
X0226927Y0083812D01*
X0226970Y0083721D01*
X0227009Y0083627D01*
X0227044Y0083532D01*
X0227075Y0083436D01*
X0227103Y0083339D01*
X0227127Y0083241D01*
X0227147Y0083142D01*
X0227163Y0083042D01*
X0227175Y0082941D01*
X0227183Y0082841D01*
X0227187Y0082740D01*
X0227187Y0082638D01*
X0227183Y0082537D01*
X0227175Y0082437D01*
X0227163Y0082336D01*
X0227147Y0082236D01*
X0227127Y0082137D01*
X0227103Y0082039D01*
X0227075Y0081942D01*
X0227044Y0081846D01*
X0227009Y0081751D01*
X0226970Y0081657D01*
X0226927Y0081566D01*
X0226881Y0081476D01*
X0226831Y0081388D01*
X0226778Y0081302D01*
X0226722Y0081218D01*
X0226662Y0081136D01*
X0226599Y0081057D01*
X0226533Y0080980D01*
X0226464Y0080907D01*
X0226392Y0080835D01*
X0226318Y0080767D01*
X0226240Y0080702D01*
X0226161Y0080640D01*
X0226078Y0080581D01*
X0225994Y0080525D01*
X0225907Y0080473D01*
X0225819Y0080424D01*
X0225729Y0080379D01*
X0225636Y0080337D01*
X0225543Y0080299D01*
X0225448Y0080265D01*
X0225351Y0080234D01*
X0225254Y0080208D01*
X0225155Y0080185D01*
X0225056Y0080166D01*
X0224956Y0080151D01*
X0224855Y0080140D01*
X0224754Y0080133D01*
X0224653Y0080130D01*
X0224552Y0080131D01*
X0224451Y0080136D01*
X0224350Y0080145D01*
X0224250Y0080158D01*
X0224150Y0080175D01*
X0224052Y0080196D01*
X0223953Y0080220D01*
X0223856Y0080249D01*
X0223761Y0080281D01*
X0223666Y0080318D01*
X0223573Y0080357D01*
X0223482Y0080401D01*
X0223393Y0080448D01*
X0223305Y0080499D01*
X0223219Y0080553D01*
X0223136Y0080610D01*
X0223055Y0080670D01*
X0222977Y0080734D01*
X0222901Y0080801D01*
X0222827Y0080871D01*
X0222757Y0080943D01*
X0222690Y0081018D01*
X0222625Y0081096D01*
X0222564Y0081177D01*
X0222506Y0081259D01*
X0222451Y0081344D01*
X0222399Y0081431D01*
X0222351Y0081520D01*
X0222307Y0081611D01*
X0222266Y0081704D01*
X0222229Y0081798D01*
X0222196Y0081893D01*
X0222166Y0081990D01*
X0222141Y0082088D01*
X0222119Y0082187D01*
X0222101Y0082286D01*
X0222087Y0082386D01*
X0222077Y0082487D01*
X0222071Y0082588D01*
X0222069Y0082689D01*
X0186636Y0082689D02*
X0186638Y0082790D01*
X0186644Y0082891D01*
X0186654Y0082992D01*
X0186668Y0083092D01*
X0186686Y0083191D01*
X0186708Y0083290D01*
X0186733Y0083388D01*
X0186763Y0083485D01*
X0186796Y0083580D01*
X0186833Y0083674D01*
X0186874Y0083767D01*
X0186918Y0083858D01*
X0186966Y0083947D01*
X0187018Y0084034D01*
X0187073Y0084119D01*
X0187131Y0084201D01*
X0187192Y0084282D01*
X0187257Y0084360D01*
X0187324Y0084435D01*
X0187394Y0084507D01*
X0187468Y0084577D01*
X0187544Y0084644D01*
X0187622Y0084708D01*
X0187703Y0084768D01*
X0187786Y0084825D01*
X0187872Y0084879D01*
X0187960Y0084930D01*
X0188049Y0084977D01*
X0188140Y0085021D01*
X0188233Y0085060D01*
X0188328Y0085097D01*
X0188423Y0085129D01*
X0188520Y0085158D01*
X0188619Y0085182D01*
X0188717Y0085203D01*
X0188817Y0085220D01*
X0188917Y0085233D01*
X0189018Y0085242D01*
X0189119Y0085247D01*
X0189220Y0085248D01*
X0189321Y0085245D01*
X0189422Y0085238D01*
X0189523Y0085227D01*
X0189623Y0085212D01*
X0189722Y0085193D01*
X0189821Y0085170D01*
X0189918Y0085144D01*
X0190015Y0085113D01*
X0190110Y0085079D01*
X0190203Y0085041D01*
X0190296Y0084999D01*
X0190386Y0084954D01*
X0190475Y0084905D01*
X0190561Y0084853D01*
X0190645Y0084797D01*
X0190728Y0084738D01*
X0190807Y0084676D01*
X0190885Y0084611D01*
X0190959Y0084543D01*
X0191031Y0084471D01*
X0191100Y0084398D01*
X0191166Y0084321D01*
X0191229Y0084242D01*
X0191289Y0084160D01*
X0191345Y0084076D01*
X0191398Y0083990D01*
X0191448Y0083902D01*
X0191494Y0083812D01*
X0191537Y0083721D01*
X0191576Y0083627D01*
X0191611Y0083532D01*
X0191642Y0083436D01*
X0191670Y0083339D01*
X0191694Y0083241D01*
X0191714Y0083142D01*
X0191730Y0083042D01*
X0191742Y0082941D01*
X0191750Y0082841D01*
X0191754Y0082740D01*
X0191754Y0082638D01*
X0191750Y0082537D01*
X0191742Y0082437D01*
X0191730Y0082336D01*
X0191714Y0082236D01*
X0191694Y0082137D01*
X0191670Y0082039D01*
X0191642Y0081942D01*
X0191611Y0081846D01*
X0191576Y0081751D01*
X0191537Y0081657D01*
X0191494Y0081566D01*
X0191448Y0081476D01*
X0191398Y0081388D01*
X0191345Y0081302D01*
X0191289Y0081218D01*
X0191229Y0081136D01*
X0191166Y0081057D01*
X0191100Y0080980D01*
X0191031Y0080907D01*
X0190959Y0080835D01*
X0190885Y0080767D01*
X0190807Y0080702D01*
X0190728Y0080640D01*
X0190645Y0080581D01*
X0190561Y0080525D01*
X0190474Y0080473D01*
X0190386Y0080424D01*
X0190296Y0080379D01*
X0190203Y0080337D01*
X0190110Y0080299D01*
X0190015Y0080265D01*
X0189918Y0080234D01*
X0189821Y0080208D01*
X0189722Y0080185D01*
X0189623Y0080166D01*
X0189523Y0080151D01*
X0189422Y0080140D01*
X0189321Y0080133D01*
X0189220Y0080130D01*
X0189119Y0080131D01*
X0189018Y0080136D01*
X0188917Y0080145D01*
X0188817Y0080158D01*
X0188717Y0080175D01*
X0188619Y0080196D01*
X0188520Y0080220D01*
X0188423Y0080249D01*
X0188328Y0080281D01*
X0188233Y0080318D01*
X0188140Y0080357D01*
X0188049Y0080401D01*
X0187960Y0080448D01*
X0187872Y0080499D01*
X0187786Y0080553D01*
X0187703Y0080610D01*
X0187622Y0080670D01*
X0187544Y0080734D01*
X0187468Y0080801D01*
X0187394Y0080871D01*
X0187324Y0080943D01*
X0187257Y0081018D01*
X0187192Y0081096D01*
X0187131Y0081177D01*
X0187073Y0081259D01*
X0187018Y0081344D01*
X0186966Y0081431D01*
X0186918Y0081520D01*
X0186874Y0081611D01*
X0186833Y0081704D01*
X0186796Y0081798D01*
X0186763Y0081893D01*
X0186733Y0081990D01*
X0186708Y0082088D01*
X0186686Y0082187D01*
X0186668Y0082286D01*
X0186654Y0082386D01*
X0186644Y0082487D01*
X0186638Y0082588D01*
X0186636Y0082689D01*
X0180615Y0081992D02*
X0178413Y0081992D01*
X0179147Y0081992D02*
X0180615Y0083460D01*
X0179514Y0082359D02*
X0178413Y0083460D01*
X0178780Y0081066D02*
X0178413Y0080699D01*
X0178413Y0079965D01*
X0178780Y0079598D01*
X0180248Y0081066D01*
X0178780Y0081066D01*
X0178780Y0079598D02*
X0180248Y0079598D01*
X0180615Y0079965D01*
X0180615Y0080699D01*
X0180248Y0081066D01*
X0178413Y0078672D02*
X0178413Y0077204D01*
X0178413Y0077938D02*
X0180615Y0077938D01*
X0179881Y0077204D01*
D12*
X0002384Y0061035D02*
X0002384Y0041350D01*
D13*
X0027778Y0036429D03*
X0020494Y0066154D03*
D14*
X0057306Y0066154D03*
X0071676Y0048240D03*
D15*
X0291303Y0020866D02*
X0291422Y0020960D01*
X0291538Y0021058D01*
X0291652Y0021158D01*
X0291763Y0021262D01*
X0291871Y0021368D01*
X0291977Y0021476D01*
X0292079Y0021588D01*
X0292179Y0021702D01*
X0292277Y0021818D01*
X0292371Y0021937D01*
X0292462Y0022058D01*
X0292550Y0022182D01*
X0292635Y0022308D01*
X0292716Y0022435D01*
X0292795Y0022565D01*
X0292870Y0022697D01*
X0292941Y0022830D01*
X0293010Y0022966D01*
X0293075Y0023103D01*
X0293136Y0023241D01*
X0293194Y0023382D01*
X0293248Y0023523D01*
X0293299Y0023666D01*
X0293346Y0023810D01*
X0293390Y0023955D01*
X0293429Y0024102D01*
X0293465Y0024249D01*
X0293498Y0024397D01*
X0293526Y0024546D01*
X0293551Y0024696D01*
X0293572Y0024846D01*
X0293589Y0024996D01*
X0293603Y0025148D01*
X0293612Y0025299D01*
X0293618Y0025450D01*
X0293620Y0025602D01*
X0284020Y0030402D02*
X0283901Y0030310D01*
X0283784Y0030216D01*
X0283670Y0030118D01*
X0283558Y0030018D01*
X0283448Y0029914D01*
X0283342Y0029809D01*
X0283237Y0029700D01*
X0283136Y0029589D01*
X0283038Y0029475D01*
X0282942Y0029359D01*
X0282849Y0029241D01*
X0282760Y0029120D01*
X0282673Y0028997D01*
X0282590Y0028872D01*
X0282509Y0028745D01*
X0282432Y0028616D01*
X0282358Y0028485D01*
X0282287Y0028352D01*
X0282220Y0028218D01*
X0282156Y0028082D01*
X0282096Y0027944D01*
X0282039Y0027805D01*
X0281986Y0027664D01*
X0281936Y0027522D01*
X0281889Y0027379D01*
X0281847Y0027235D01*
X0281807Y0027090D01*
X0281772Y0026944D01*
X0281740Y0026797D01*
X0281712Y0026649D01*
X0281688Y0026501D01*
X0281667Y0026352D01*
X0281650Y0026202D01*
X0281637Y0026053D01*
X0281628Y0025903D01*
X0281622Y0025752D01*
X0281620Y0025602D01*
X0291303Y0030338D02*
X0291422Y0030244D01*
X0291538Y0030146D01*
X0291652Y0030046D01*
X0291763Y0029942D01*
X0291871Y0029836D01*
X0291977Y0029728D01*
X0292079Y0029616D01*
X0292179Y0029502D01*
X0292277Y0029386D01*
X0292371Y0029267D01*
X0292462Y0029146D01*
X0292550Y0029022D01*
X0292635Y0028896D01*
X0292716Y0028769D01*
X0292795Y0028639D01*
X0292870Y0028507D01*
X0292941Y0028374D01*
X0293010Y0028238D01*
X0293075Y0028101D01*
X0293136Y0027963D01*
X0293194Y0027822D01*
X0293248Y0027681D01*
X0293299Y0027538D01*
X0293346Y0027394D01*
X0293390Y0027249D01*
X0293429Y0027102D01*
X0293465Y0026955D01*
X0293498Y0026807D01*
X0293526Y0026658D01*
X0293551Y0026508D01*
X0293572Y0026358D01*
X0293589Y0026208D01*
X0293603Y0026056D01*
X0293612Y0025905D01*
X0293618Y0025754D01*
X0293620Y0025602D01*
X0284133Y0020720D02*
X0284008Y0020811D01*
X0283886Y0020905D01*
X0283767Y0021003D01*
X0283650Y0021103D01*
X0283536Y0021207D01*
X0283424Y0021313D01*
X0283316Y0021422D01*
X0283210Y0021534D01*
X0283107Y0021649D01*
X0283007Y0021766D01*
X0282909Y0021886D01*
X0282816Y0022008D01*
X0282725Y0022132D01*
X0282637Y0022259D01*
X0282553Y0022388D01*
X0282472Y0022520D01*
X0282395Y0022653D01*
X0282321Y0022788D01*
X0282250Y0022925D01*
X0282183Y0023064D01*
X0282120Y0023204D01*
X0282060Y0023347D01*
X0282004Y0023490D01*
X0281952Y0023635D01*
X0281903Y0023781D01*
X0281858Y0023929D01*
X0281817Y0024077D01*
X0281780Y0024227D01*
X0281746Y0024377D01*
X0281717Y0024529D01*
X0281691Y0024681D01*
X0281669Y0024833D01*
X0281652Y0024986D01*
X0281638Y0025140D01*
X0281628Y0025294D01*
X0281622Y0025448D01*
X0281620Y0025602D01*
X0359770Y0078752D02*
X0359768Y0078904D01*
X0359762Y0079055D01*
X0359753Y0079206D01*
X0359739Y0079358D01*
X0359722Y0079508D01*
X0359701Y0079658D01*
X0359676Y0079808D01*
X0359648Y0079957D01*
X0359615Y0080105D01*
X0359579Y0080252D01*
X0359540Y0080399D01*
X0359496Y0080544D01*
X0359449Y0080688D01*
X0359398Y0080831D01*
X0359344Y0080972D01*
X0359286Y0081113D01*
X0359225Y0081251D01*
X0359160Y0081388D01*
X0359091Y0081524D01*
X0359020Y0081657D01*
X0358945Y0081789D01*
X0358866Y0081919D01*
X0358785Y0082046D01*
X0358700Y0082172D01*
X0358612Y0082296D01*
X0358521Y0082417D01*
X0358427Y0082536D01*
X0358329Y0082652D01*
X0358229Y0082766D01*
X0358127Y0082878D01*
X0358021Y0082986D01*
X0357913Y0083092D01*
X0357802Y0083196D01*
X0357688Y0083296D01*
X0357572Y0083394D01*
X0357453Y0083488D01*
X0347770Y0078752D02*
X0347772Y0078598D01*
X0347778Y0078444D01*
X0347788Y0078290D01*
X0347802Y0078136D01*
X0347819Y0077983D01*
X0347841Y0077831D01*
X0347867Y0077679D01*
X0347896Y0077527D01*
X0347930Y0077377D01*
X0347967Y0077227D01*
X0348008Y0077079D01*
X0348053Y0076931D01*
X0348102Y0076785D01*
X0348154Y0076640D01*
X0348210Y0076497D01*
X0348270Y0076354D01*
X0348333Y0076214D01*
X0348400Y0076075D01*
X0348471Y0075938D01*
X0348545Y0075803D01*
X0348622Y0075670D01*
X0348703Y0075538D01*
X0348787Y0075409D01*
X0348875Y0075282D01*
X0348966Y0075158D01*
X0349059Y0075036D01*
X0349157Y0074916D01*
X0349257Y0074799D01*
X0349360Y0074684D01*
X0349466Y0074572D01*
X0349574Y0074463D01*
X0349686Y0074357D01*
X0349800Y0074253D01*
X0349917Y0074153D01*
X0350036Y0074055D01*
X0350158Y0073961D01*
X0350283Y0073870D01*
X0347770Y0078752D02*
X0347772Y0078902D01*
X0347778Y0079053D01*
X0347787Y0079203D01*
X0347800Y0079352D01*
X0347817Y0079502D01*
X0347838Y0079651D01*
X0347862Y0079799D01*
X0347890Y0079947D01*
X0347922Y0080094D01*
X0347957Y0080240D01*
X0347997Y0080385D01*
X0348039Y0080529D01*
X0348086Y0080672D01*
X0348136Y0080814D01*
X0348189Y0080955D01*
X0348246Y0081094D01*
X0348306Y0081232D01*
X0348370Y0081368D01*
X0348437Y0081502D01*
X0348508Y0081635D01*
X0348582Y0081766D01*
X0348659Y0081895D01*
X0348740Y0082022D01*
X0348823Y0082147D01*
X0348910Y0082270D01*
X0348999Y0082391D01*
X0349092Y0082509D01*
X0349188Y0082625D01*
X0349286Y0082739D01*
X0349387Y0082850D01*
X0349492Y0082959D01*
X0349598Y0083064D01*
X0349708Y0083168D01*
X0349820Y0083268D01*
X0349934Y0083366D01*
X0350051Y0083460D01*
X0350170Y0083552D01*
X0359770Y0078752D02*
X0359768Y0078600D01*
X0359762Y0078449D01*
X0359753Y0078298D01*
X0359739Y0078146D01*
X0359722Y0077996D01*
X0359701Y0077846D01*
X0359676Y0077696D01*
X0359648Y0077547D01*
X0359615Y0077399D01*
X0359579Y0077252D01*
X0359540Y0077105D01*
X0359496Y0076960D01*
X0359449Y0076816D01*
X0359398Y0076673D01*
X0359344Y0076532D01*
X0359286Y0076391D01*
X0359225Y0076253D01*
X0359160Y0076116D01*
X0359091Y0075980D01*
X0359020Y0075847D01*
X0358945Y0075715D01*
X0358866Y0075585D01*
X0358785Y0075458D01*
X0358700Y0075332D01*
X0358612Y0075208D01*
X0358521Y0075087D01*
X0358427Y0074968D01*
X0358329Y0074852D01*
X0358229Y0074738D01*
X0358127Y0074626D01*
X0358021Y0074518D01*
X0357913Y0074412D01*
X0357802Y0074308D01*
X0357688Y0074208D01*
X0357572Y0074110D01*
X0357453Y0074016D01*
D16*
X0345770Y0078752D02*
X0345772Y0078944D01*
X0345779Y0079136D01*
X0345791Y0079328D01*
X0345807Y0079520D01*
X0345828Y0079711D01*
X0345853Y0079901D01*
X0345883Y0080091D01*
X0345917Y0080280D01*
X0345956Y0080468D01*
X0346000Y0080655D01*
X0346048Y0080841D01*
X0346100Y0081026D01*
X0346157Y0081210D01*
X0346218Y0081392D01*
X0346284Y0081572D01*
X0346354Y0081751D01*
X0346428Y0081929D01*
X0346506Y0082104D01*
X0346589Y0082278D01*
X0346676Y0082449D01*
X0346766Y0082618D01*
X0346861Y0082785D01*
X0346960Y0082950D01*
X0347063Y0083113D01*
X0347170Y0083272D01*
X0347280Y0083430D01*
X0347394Y0083584D01*
X0347512Y0083736D01*
X0347634Y0083885D01*
X0347759Y0084031D01*
X0347887Y0084173D01*
X0348019Y0084313D01*
X0348154Y0084450D01*
X0348293Y0084583D01*
X0348434Y0084713D01*
X0348579Y0084839D01*
X0348727Y0084962D01*
X0348877Y0085081D01*
X0349031Y0085197D01*
X0349187Y0085309D01*
X0349346Y0085417D01*
X0349507Y0085522D01*
X0349671Y0085622D01*
X0349837Y0085718D01*
X0350005Y0085811D01*
X0357739Y0085698D02*
X0357908Y0085599D01*
X0358074Y0085495D01*
X0358238Y0085388D01*
X0358399Y0085277D01*
X0358557Y0085162D01*
X0358712Y0085043D01*
X0358865Y0084920D01*
X0359014Y0084794D01*
X0359160Y0084664D01*
X0359303Y0084530D01*
X0359443Y0084393D01*
X0359579Y0084253D01*
X0359712Y0084109D01*
X0359841Y0083962D01*
X0359967Y0083812D01*
X0360088Y0083659D01*
X0360207Y0083503D01*
X0360321Y0083344D01*
X0360431Y0083183D01*
X0360537Y0083018D01*
X0360640Y0082852D01*
X0360738Y0082682D01*
X0360832Y0082511D01*
X0360922Y0082337D01*
X0361007Y0082161D01*
X0361089Y0081983D01*
X0361165Y0081803D01*
X0361238Y0081621D01*
X0361306Y0081438D01*
X0361369Y0081253D01*
X0361428Y0081066D01*
X0361482Y0080878D01*
X0361532Y0080689D01*
X0361577Y0080499D01*
X0361617Y0080307D01*
X0361653Y0080115D01*
X0361684Y0079922D01*
X0361710Y0079728D01*
X0361732Y0079533D01*
X0361748Y0079338D01*
X0361760Y0079143D01*
X0361768Y0078947D01*
X0361770Y0078752D01*
X0361768Y0078559D01*
X0361761Y0078366D01*
X0361749Y0078174D01*
X0361733Y0077981D01*
X0361712Y0077789D01*
X0361686Y0077598D01*
X0361656Y0077408D01*
X0361621Y0077218D01*
X0361582Y0077029D01*
X0361538Y0076841D01*
X0361490Y0076654D01*
X0361437Y0076468D01*
X0361380Y0076284D01*
X0361318Y0076101D01*
X0361252Y0075920D01*
X0361181Y0075740D01*
X0361107Y0075562D01*
X0361028Y0075386D01*
X0360944Y0075212D01*
X0360857Y0075040D01*
X0360765Y0074870D01*
X0360669Y0074703D01*
X0360570Y0074537D01*
X0360466Y0074374D01*
X0360359Y0074214D01*
X0360247Y0074057D01*
X0360132Y0073902D01*
X0360013Y0073750D01*
X0359891Y0073601D01*
X0359765Y0073454D01*
X0359635Y0073311D01*
X0359502Y0073171D01*
X0359366Y0073035D01*
X0359226Y0072901D01*
X0359084Y0072772D01*
X0358938Y0072645D01*
X0348648Y0072606D02*
X0348500Y0072733D01*
X0348355Y0072863D01*
X0348214Y0072996D01*
X0348075Y0073133D01*
X0347940Y0073273D01*
X0347809Y0073417D01*
X0347681Y0073564D01*
X0347556Y0073713D01*
X0347435Y0073866D01*
X0347318Y0074021D01*
X0347205Y0074180D01*
X0347096Y0074341D01*
X0346991Y0074505D01*
X0346889Y0074671D01*
X0346792Y0074840D01*
X0346699Y0075010D01*
X0346610Y0075184D01*
X0346525Y0075359D01*
X0346445Y0075536D01*
X0346369Y0075715D01*
X0346297Y0075896D01*
X0346230Y0076079D01*
X0346167Y0076263D01*
X0346109Y0076449D01*
X0346055Y0076636D01*
X0346006Y0076824D01*
X0345961Y0077014D01*
X0345921Y0077204D01*
X0345886Y0077396D01*
X0345855Y0077588D01*
X0345829Y0077781D01*
X0345808Y0077975D01*
X0345791Y0078169D01*
X0345779Y0078363D01*
X0345772Y0078557D01*
X0345770Y0078752D01*
X0291589Y0032549D02*
X0291758Y0032450D01*
X0291924Y0032346D01*
X0292088Y0032239D01*
X0292249Y0032128D01*
X0292407Y0032013D01*
X0292562Y0031894D01*
X0292715Y0031771D01*
X0292864Y0031645D01*
X0293010Y0031515D01*
X0293153Y0031381D01*
X0293293Y0031244D01*
X0293429Y0031104D01*
X0293562Y0030960D01*
X0293691Y0030813D01*
X0293817Y0030663D01*
X0293938Y0030510D01*
X0294057Y0030354D01*
X0294171Y0030195D01*
X0294281Y0030034D01*
X0294387Y0029869D01*
X0294490Y0029703D01*
X0294588Y0029533D01*
X0294682Y0029362D01*
X0294772Y0029188D01*
X0294857Y0029012D01*
X0294939Y0028834D01*
X0295015Y0028654D01*
X0295088Y0028472D01*
X0295156Y0028289D01*
X0295219Y0028104D01*
X0295278Y0027917D01*
X0295332Y0027729D01*
X0295382Y0027540D01*
X0295427Y0027350D01*
X0295467Y0027158D01*
X0295503Y0026966D01*
X0295534Y0026773D01*
X0295560Y0026579D01*
X0295582Y0026384D01*
X0295598Y0026189D01*
X0295610Y0025994D01*
X0295618Y0025798D01*
X0295620Y0025603D01*
X0283855Y0032661D02*
X0283687Y0032568D01*
X0283521Y0032472D01*
X0283357Y0032372D01*
X0283196Y0032267D01*
X0283037Y0032159D01*
X0282881Y0032047D01*
X0282727Y0031931D01*
X0282577Y0031812D01*
X0282429Y0031689D01*
X0282284Y0031563D01*
X0282143Y0031433D01*
X0282004Y0031300D01*
X0281869Y0031163D01*
X0281737Y0031023D01*
X0281609Y0030881D01*
X0281484Y0030735D01*
X0281362Y0030586D01*
X0281244Y0030434D01*
X0281130Y0030280D01*
X0281020Y0030122D01*
X0280913Y0029963D01*
X0280810Y0029800D01*
X0280711Y0029635D01*
X0280616Y0029468D01*
X0280526Y0029299D01*
X0280439Y0029128D01*
X0280356Y0028954D01*
X0280278Y0028779D01*
X0280204Y0028601D01*
X0280134Y0028422D01*
X0280068Y0028242D01*
X0280007Y0028060D01*
X0279950Y0027876D01*
X0279898Y0027691D01*
X0279850Y0027505D01*
X0279806Y0027318D01*
X0279767Y0027130D01*
X0279733Y0026941D01*
X0279703Y0026751D01*
X0279678Y0026561D01*
X0279657Y0026370D01*
X0279641Y0026178D01*
X0279629Y0025986D01*
X0279622Y0025794D01*
X0279620Y0025602D01*
X0292788Y0019495D02*
X0292934Y0019622D01*
X0293076Y0019751D01*
X0293216Y0019885D01*
X0293352Y0020021D01*
X0293485Y0020161D01*
X0293615Y0020304D01*
X0293741Y0020451D01*
X0293863Y0020600D01*
X0293982Y0020752D01*
X0294097Y0020907D01*
X0294209Y0021064D01*
X0294316Y0021224D01*
X0294420Y0021387D01*
X0294519Y0021553D01*
X0294615Y0021720D01*
X0294707Y0021890D01*
X0294794Y0022062D01*
X0294878Y0022236D01*
X0294957Y0022412D01*
X0295031Y0022590D01*
X0295102Y0022770D01*
X0295168Y0022951D01*
X0295230Y0023134D01*
X0295287Y0023318D01*
X0295340Y0023504D01*
X0295388Y0023691D01*
X0295432Y0023879D01*
X0295471Y0024068D01*
X0295506Y0024258D01*
X0295536Y0024448D01*
X0295562Y0024639D01*
X0295583Y0024831D01*
X0295599Y0025024D01*
X0295611Y0025216D01*
X0295618Y0025409D01*
X0295620Y0025602D01*
X0282498Y0019456D02*
X0282350Y0019583D01*
X0282205Y0019713D01*
X0282064Y0019846D01*
X0281925Y0019983D01*
X0281790Y0020123D01*
X0281659Y0020267D01*
X0281531Y0020414D01*
X0281406Y0020563D01*
X0281285Y0020716D01*
X0281168Y0020871D01*
X0281055Y0021030D01*
X0280946Y0021191D01*
X0280841Y0021355D01*
X0280739Y0021521D01*
X0280642Y0021690D01*
X0280549Y0021860D01*
X0280460Y0022034D01*
X0280375Y0022209D01*
X0280295Y0022386D01*
X0280219Y0022565D01*
X0280147Y0022746D01*
X0280080Y0022929D01*
X0280017Y0023113D01*
X0279959Y0023299D01*
X0279905Y0023486D01*
X0279856Y0023674D01*
X0279811Y0023864D01*
X0279771Y0024054D01*
X0279736Y0024246D01*
X0279705Y0024438D01*
X0279679Y0024631D01*
X0279658Y0024825D01*
X0279641Y0025019D01*
X0279629Y0025213D01*
X0279622Y0025407D01*
X0279620Y0025602D01*
D17*
X0325272Y0068685D02*
X0326598Y0068685D01*
X0327040Y0069127D01*
X0327040Y0070011D01*
X0326598Y0070453D01*
X0325272Y0070453D01*
X0325272Y0071337D02*
X0325272Y0068685D01*
X0328172Y0069127D02*
X0328172Y0070895D01*
X0328614Y0071337D01*
X0329498Y0071337D01*
X0329940Y0070895D01*
X0329940Y0069127D01*
X0329498Y0068685D01*
X0328614Y0068685D01*
X0328172Y0069127D01*
X0331072Y0068685D02*
X0331072Y0071337D01*
X0331956Y0070453D01*
X0332840Y0071337D01*
X0332840Y0068685D01*
X0333972Y0068685D02*
X0333972Y0071337D01*
X0335740Y0071337D01*
X0336872Y0071337D02*
X0336872Y0068685D01*
X0338198Y0068685D01*
X0338640Y0069127D01*
X0338640Y0070011D01*
X0338198Y0070453D01*
X0336872Y0070453D01*
X0337756Y0070453D02*
X0338640Y0071337D01*
X0338605Y0072571D02*
X0305140Y0072571D01*
X0305140Y0086350D01*
X0338605Y0086350D01*
X0338605Y0072571D01*
X0334856Y0070011D02*
X0333972Y0070011D01*
X0333972Y0068685D02*
X0335740Y0068685D01*
X0328959Y0076508D02*
X0323054Y0076508D01*
X0315180Y0076508D01*
X0315180Y0082413D01*
X0321085Y0082413D01*
X0323054Y0082413D01*
X0323054Y0076508D01*
X0321085Y0076508D02*
X0321085Y0082413D01*
X0323054Y0082413D02*
X0328959Y0082413D01*
X0328959Y0076508D01*
M02*
