%
M48
M72
T01C0.0120
T02C0.0320
T03C0.0335
T04C0.0354
T05C0.0400
T06C0.0433
T07C0.0669
T08C0.0800
T09C0.0984
%
T01
X5745Y2366
X6405Y3866
X13785Y2606
X16425Y2126
X29685Y2666
X31545Y3686
X30645Y3926
X34785Y4766
X36105Y4166
X34965Y4046
X37365Y4406
X37665Y4526
X38325Y4526
X36045Y5486
X36285Y5786
X36525Y6206
X39105Y6326
X37305Y7046
X38025Y7406
X39405Y7946
X35925Y7646
X33105Y7346
X32745Y7406
X30045Y6986
X29385Y7646
X28545Y7886
X28905Y8246
X30585Y8606
X30825Y8366
X28245Y8966
X26685Y8786
X21585Y8606
X25365Y6626
X31305Y5426
X31785Y5186
X33705Y5786
X38325Y3446
X38865Y3206
X37425Y2786
X38865Y2606
X37245Y3206
X36645Y3266
X34905Y2246
X34785Y8726
X6465Y7226
T02
X28762Y3060
X28762Y2060
X35377Y7375
X35377Y8375
T03
X26242Y3001
X24746Y3001
T04
X30849Y7946
X33526Y7946
T05
X17032Y7713
X16032Y7813
X15032Y7713
X14032Y7813
X13032Y7713
X31096Y2298
X32236Y2298
T06
X22660Y1852
X21872Y1852
X21085Y1852
X20297Y1852
X19510Y1852
X18723Y1852
T07
X5258Y5119
X2502Y5119
T08
X18014Y6182
X23368Y6182
T09
X29825Y5277
X11715Y5277
M30
