G75*
%MOIN*%
%OFA0B0*%
%FSLAX25Y25*%
%IPPOS*%
%LPD*%
%AMOC8*
5,1,8,0,0,1.08239X$1,22.5*
%
%ADD10C,0.07400*%
%ADD11C,0.06600*%
%ADD12R,0.12000X0.12000*%
%ADD13R,0.08661X0.09843*%
%ADD14R,0.11024X0.09843*%
%ADD15R,0.09843X0.11024*%
%ADD16OC8,0.05200*%
%ADD17R,0.04724X0.05512*%
%ADD18C,0.00600*%
%ADD19C,0.02400*%
D10*
X0310956Y0022984D03*
X0322356Y0022984D03*
X0170317Y0077130D03*
X0160317Y0078130D03*
X0150317Y0077130D03*
X0140317Y0078130D03*
X0130317Y0077130D03*
D11*
X0187227Y0018516D03*
X0195101Y0018516D03*
X0202975Y0018516D03*
X0210849Y0018516D03*
X0218723Y0018516D03*
X0226597Y0018516D03*
D12*
X0233683Y0061823D03*
X0180140Y0061823D03*
D13*
X0028172Y0036035D03*
X0020691Y0066350D03*
D14*
X0057306Y0066350D03*
D15*
X0073644Y0048240D03*
D16*
X0287620Y0030602D03*
X0287620Y0020602D03*
X0353770Y0073752D03*
X0353770Y0083752D03*
D17*
X0331715Y0088122D03*
X0312030Y0088122D03*
X0321872Y0070799D03*
D18*
X0321446Y0071064D01*
X0324446Y0074064D01*
X0339446Y0059064D01*
X0339446Y0053064D01*
X0349646Y0042864D01*
X0349646Y0040464D01*
X0361046Y0041664D02*
X0361046Y0052464D01*
X0362846Y0054264D01*
X0362846Y0057864D01*
X0365246Y0062064D02*
X0368846Y0058464D01*
X0368846Y0032664D01*
X0371846Y0029664D01*
X0372446Y0029664D01*
X0374246Y0027864D01*
X0373646Y0025464D02*
X0388046Y0025464D01*
X0388646Y0026064D01*
X0388646Y0029064D01*
X0391046Y0031464D01*
X0391046Y0063264D01*
X0393446Y0063864D02*
X0383246Y0074064D01*
X0380246Y0074064D01*
X0376646Y0074064D01*
X0373046Y0070464D01*
X0370046Y0060264D02*
X0360446Y0069864D01*
X0331646Y0069864D01*
X0327446Y0074064D01*
X0324446Y0074064D02*
X0337646Y0087264D01*
X0347846Y0087264D01*
X0347846Y0084264D01*
X0352046Y0080064D01*
X0352646Y0080064D01*
X0356246Y0076464D01*
X0359246Y0076464D01*
X0359846Y0074064D02*
X0353846Y0074064D01*
X0353770Y0073752D01*
X0353246Y0073464D01*
X0331046Y0073464D01*
X0317846Y0075264D02*
X0317846Y0051864D01*
X0317846Y0029664D01*
X0311246Y0023064D01*
X0310956Y0022984D01*
X0313046Y0018264D02*
X0317246Y0022464D01*
X0322046Y0022464D01*
X0322356Y0022984D01*
X0322646Y0023064D01*
X0322646Y0043464D01*
X0337046Y0057864D01*
X0347846Y0047664D02*
X0355046Y0054864D01*
X0360446Y0054864D01*
X0370046Y0060264D02*
X0370046Y0044664D01*
X0372446Y0042264D01*
X0372446Y0032064D01*
X0388646Y0032064D01*
X0383246Y0034464D02*
X0373646Y0044064D01*
X0376646Y0045264D02*
X0383246Y0045264D01*
X0366446Y0032664D02*
X0356246Y0032664D01*
X0340646Y0017064D01*
X0265046Y0017064D01*
X0205046Y0077064D01*
X0170846Y0077064D01*
X0170317Y0077130D01*
X0150317Y0077130D02*
X0149846Y0077064D01*
X0137846Y0065064D01*
X0130646Y0072264D01*
X0064646Y0072264D01*
X0051446Y0072264D01*
X0046046Y0066864D01*
X0020846Y0066864D01*
X0020691Y0066350D01*
X0057306Y0066350D02*
X0057446Y0066264D01*
X0057446Y0063864D01*
X0073046Y0048264D01*
X0073644Y0048240D01*
X0073046Y0047664D01*
X0064046Y0038664D01*
X0061646Y0036264D01*
X0028646Y0036264D01*
X0028172Y0036035D01*
X0057446Y0023664D02*
X0182846Y0023664D01*
X0183446Y0024264D01*
X0197246Y0024264D01*
X0202646Y0018864D01*
X0202975Y0018516D01*
X0195101Y0018516D02*
X0194846Y0018864D01*
X0193046Y0018864D01*
X0188846Y0023064D01*
X0184046Y0023064D01*
X0182246Y0021264D01*
X0164246Y0021264D01*
X0137846Y0026064D02*
X0137846Y0065064D01*
X0215846Y0086064D02*
X0265646Y0086064D01*
X0266246Y0085464D01*
X0305246Y0085464D01*
X0305846Y0086064D01*
X0308246Y0083664D02*
X0308846Y0084264D01*
X0317846Y0075264D01*
X0300446Y0072864D02*
X0300446Y0069864D01*
X0315446Y0054864D01*
X0315446Y0036864D01*
X0306446Y0039264D02*
X0287846Y0020664D01*
X0287620Y0020602D01*
X0296846Y0026664D02*
X0305246Y0018264D01*
X0313046Y0018264D01*
X0349046Y0022464D02*
X0388046Y0022464D01*
X0393446Y0027864D01*
X0393446Y0063864D01*
X0365246Y0079464D02*
X0359846Y0074064D01*
X0365246Y0079464D02*
X0394046Y0079464D01*
X0312446Y0087864D02*
X0312030Y0088122D01*
X0312446Y0087864D02*
X0308846Y0084264D01*
X0300446Y0072864D02*
X0294446Y0078864D01*
X0293246Y0078864D01*
X0280646Y0066264D01*
X0253646Y0066264D01*
X0287846Y0051264D02*
X0293846Y0057264D01*
X0293846Y0059064D01*
X0301046Y0059064D01*
X0305846Y0054264D01*
X0313046Y0054264D01*
X0293846Y0059064D02*
X0293846Y0076464D01*
X0289046Y0082464D02*
X0285446Y0078864D01*
X0268646Y0089664D02*
X0266846Y0087864D01*
X0268646Y0089664D02*
X0282446Y0089664D01*
X0287846Y0051264D02*
X0287846Y0030864D01*
X0287620Y0030602D01*
X0366446Y0032664D02*
X0373646Y0025464D01*
D19*
X0057446Y0023664D03*
X0064046Y0038664D03*
X0137846Y0026064D03*
X0164246Y0021264D03*
X0296846Y0026664D03*
X0315446Y0036864D03*
X0306446Y0039264D03*
X0347846Y0047664D03*
X0361046Y0041664D03*
X0349646Y0040464D03*
X0373646Y0044064D03*
X0376646Y0045264D03*
X0383246Y0045264D03*
X0360446Y0054864D03*
X0362846Y0057864D03*
X0365246Y0062064D03*
X0391046Y0063264D03*
X0373046Y0070464D03*
X0380246Y0074064D03*
X0394046Y0079464D03*
X0359246Y0076464D03*
X0331046Y0073464D03*
X0327446Y0074064D03*
X0300446Y0069864D03*
X0293846Y0076464D03*
X0285446Y0078864D03*
X0289046Y0082464D03*
X0305846Y0086064D03*
X0308246Y0083664D03*
X0282446Y0089664D03*
X0266846Y0087864D03*
X0215846Y0086064D03*
X0253646Y0066264D03*
X0313046Y0054264D03*
X0317846Y0051864D03*
X0337046Y0057864D03*
X0383246Y0034464D03*
X0388646Y0032064D03*
X0374246Y0027864D03*
X0388646Y0026064D03*
X0372446Y0032064D03*
X0366446Y0032664D03*
X0349046Y0022464D03*
X0347846Y0087264D03*
X0064646Y0072264D03*
M02*
