G75*
%MOIN*%
%OFA0B0*%
%FSLAX25Y25*%
%IPPOS*%
%LPD*%
%AMOC8*
5,1,8,0,0,1.08239X$1,22.5*
%
%ADD10C,0.07400*%
%ADD11OC8,0.05200*%
%ADD12R,0.05937X0.05937*%
%ADD13R,0.08268X0.08268*%
%ADD14C,0.00600*%
%ADD15C,0.02978*%
D10*
X0025224Y0094813D03*
X0025224Y0104813D03*
X0105047Y0145581D03*
X0115047Y0145581D03*
X0138984Y0145581D03*
X0148984Y0145581D03*
X0149398Y0110561D03*
X0139398Y0110561D03*
X0157787Y0085341D03*
X0157787Y0075341D03*
X0178768Y0075128D03*
X0178768Y0085128D03*
X0190579Y0110561D03*
X0200579Y0110561D03*
X0196268Y0203270D03*
X0206268Y0203270D03*
X0322311Y0149931D03*
X0332311Y0149931D03*
X0331874Y0108793D03*
X0321874Y0108793D03*
X0024378Y0318306D03*
X0024378Y0329706D03*
D11*
X0052803Y0334321D03*
X0052803Y0344321D03*
X0136622Y0343809D03*
X0136622Y0333809D03*
D12*
X0208512Y0058337D03*
X0224260Y0058337D03*
X0240008Y0058337D03*
X0269496Y0058337D03*
X0285244Y0058337D03*
X0300992Y0058337D03*
D13*
X0304929Y0018967D03*
X0265559Y0018967D03*
X0243945Y0018967D03*
X0204575Y0018967D03*
D14*
X0240008Y0058337D02*
X0240283Y0058396D01*
X0253571Y0058396D01*
X0277193Y0082018D01*
X0300815Y0058396D01*
X0300992Y0058337D01*
X0242744Y0110561D02*
X0200579Y0110561D01*
X0190579Y0110561D02*
X0190579Y0089892D01*
X0209772Y0070699D01*
X0190579Y0089892D02*
X0178768Y0078081D01*
X0178768Y0075128D01*
X0138984Y0145581D02*
X0138906Y0145994D01*
X0121681Y0145994D01*
X0117252Y0150423D01*
X0109870Y0150423D01*
X0105441Y0145994D01*
X0105047Y0145581D01*
X0112823Y0195207D02*
X0112823Y0230640D01*
X0113807Y0258199D02*
X0119713Y0264104D01*
X0151701Y0264104D01*
X0120697Y0291663D02*
X0095598Y0291663D01*
X0092646Y0294616D01*
X0080343Y0294616D01*
X0073453Y0301506D01*
X0033591Y0301506D01*
X0024732Y0310364D01*
X0024378Y0318306D01*
X0052803Y0344321D02*
X0053276Y0344321D01*
X0100028Y0297569D01*
X0101996Y0297569D01*
X0091661Y0291663D02*
X0079358Y0291663D01*
X0076406Y0294616D01*
X0082803Y0304459D02*
X0059181Y0304459D01*
X0206268Y0203270D02*
X0206327Y0203081D01*
X0259476Y0149931D01*
X0322311Y0149931D01*
X0319024Y0187333D02*
X0227488Y0278868D01*
X0219122Y0266565D02*
X0299831Y0185856D01*
D15*
X0299831Y0185856D03*
X0319024Y0187333D03*
X0313339Y0126219D03*
X0308339Y0126219D03*
X0303339Y0126219D03*
X0277193Y0082018D03*
X0242744Y0110561D03*
X0227213Y0126222D03*
X0222213Y0126222D03*
X0217213Y0126222D03*
X0168551Y0096959D03*
X0168551Y0091959D03*
X0168551Y0086959D03*
X0168551Y0046959D03*
X0168551Y0041959D03*
X0168551Y0036959D03*
X0209772Y0070699D03*
X0128618Y0126289D03*
X0123618Y0126289D03*
X0118618Y0126289D03*
X0168551Y0176329D03*
X0168551Y0181329D03*
X0168551Y0186329D03*
X0112823Y0195207D03*
X0112823Y0230640D03*
X0113807Y0258199D03*
X0120697Y0291663D03*
X0101996Y0297569D03*
X0091661Y0291663D03*
X0080343Y0294616D03*
X0076406Y0294616D03*
X0082803Y0304459D03*
X0059181Y0304459D03*
X0151701Y0264104D03*
X0168551Y0299321D03*
X0168551Y0304321D03*
X0168551Y0309321D03*
X0219122Y0266565D03*
X0227488Y0278868D03*
X0049961Y0126293D03*
X0044961Y0126293D03*
X0039961Y0126293D03*
M02*
