G75*
%MOIN*%
%OFA0B0*%
%FSLAX25Y25*%
%IPPOS*%
%LPD*%
%AMOC8*
5,1,8,0,0,1.08239X$1,22.5*
%
%ADD10C,0.08200*%
%ADD11OC8,0.06000*%
%ADD12C,0.04343*%
%ADD13C,0.05524*%
%ADD14R,0.06737X0.06737*%
%ADD15R,0.09068X0.09068*%
%ADD16C,0.04146*%
D10*
X0025224Y0094813D03*
X0025224Y0104813D03*
X0105047Y0145581D03*
X0115047Y0145581D03*
X0138984Y0145581D03*
X0148984Y0145581D03*
X0149398Y0110561D03*
X0139398Y0110561D03*
X0157787Y0085341D03*
X0157787Y0075341D03*
X0178768Y0075128D03*
X0178768Y0085128D03*
X0190579Y0110561D03*
X0200579Y0110561D03*
X0196268Y0203270D03*
X0206268Y0203270D03*
X0322311Y0149931D03*
X0332311Y0149931D03*
X0331874Y0108793D03*
X0321874Y0108793D03*
X0024378Y0318306D03*
X0024378Y0329706D03*
D11*
X0052803Y0334321D03*
X0052803Y0344321D03*
X0136622Y0343809D03*
X0136622Y0333809D03*
D12*
X0104063Y0339321D03*
X0077291Y0339321D03*
X0195717Y0321880D03*
X0222488Y0321880D03*
X0247528Y0321880D03*
X0274299Y0321880D03*
D13*
X0309929Y0324006D03*
X0337488Y0324006D03*
X0337488Y0191329D03*
X0309929Y0191329D03*
D14*
X0300992Y0058337D03*
X0285244Y0058337D03*
X0269496Y0058337D03*
X0240008Y0058337D03*
X0224260Y0058337D03*
X0208512Y0058337D03*
D15*
X0204575Y0018967D03*
X0243945Y0018967D03*
X0265559Y0018967D03*
X0304929Y0018967D03*
D16*
X0030008Y0268533D03*
X0030008Y0283494D03*
M02*
