%
M48
M72
T01C0.0138
T02C0.0320
T03C0.0335
T04C0.0354
T05C0.0394
T06C0.0400
T07C0.0472
T08C0.0551
%
T01
X3996Y12629
X4496Y12629
X4996Y12629
X11862Y12629
X12362Y12629
X12862Y12629
X16855Y9696
X16855Y9196
X16855Y8696
X16855Y4696
X16855Y4196
X16855Y3696
X20977Y7070
X24274Y11056
X22721Y12622
X22221Y12622
X21721Y12622
X16855Y17633
X16855Y18133
X16855Y18633
X11282Y19521
X11282Y23064
X11381Y25820
X12070Y29166
X10200Y29757
X9166Y29166
X8034Y29462
X7641Y29462
X8280Y30446
X5918Y30446
X15170Y26410
X16855Y29932
X16855Y30432
X16855Y30932
X21912Y26656
X22749Y27887
X29983Y18586
X31902Y18733
X31334Y12622
X30834Y12622
X30334Y12622
X27719Y8202
T02
X13662Y33381
X13662Y34381
X5280Y34432
X5280Y33432
T03
X3001Y28349
X3001Y26853
T04
X7729Y33932
X10406Y33932
X19572Y32188
X22249Y32188
X24753Y32188
X27430Y32188
T05
X26950Y5834
X28524Y5834
X30099Y5834
X24001Y5834
X22426Y5834
X20851Y5834
T06
X2522Y9481
X2522Y10481
X10505Y14558
X11505Y14558
X13898Y14558
X14898Y14558
X14940Y11056
X13940Y11056
X15779Y8534
X15779Y7534
X17877Y7513
X17877Y8513
X19058Y11056
X20058Y11056
X19627Y20327
X20627Y20327
X32231Y14993
X33231Y14993
X33187Y10879
X32187Y10879
X2438Y31831
X2438Y32971
T07
X30993Y32401
X33749Y32401
X33749Y19133
X30993Y19133
T08
X30493Y1897
X26556Y1897
X24394Y1897
X20457Y1897
M30
