G75*
%MOIN*%
%OFA0B0*%
%FSLAX25Y25*%
%IPPOS*%
%LPD*%
%AMOC8*
5,1,8,0,0,1.08239X$1,22.5*
%
%ADD10C,0.00600*%
%ADD11C,0.00000*%
D10*
X0166051Y0049459D02*
X0166051Y0084459D01*
X0171051Y0084459D01*
X0171051Y0049459D01*
X0166051Y0049459D01*
X0166957Y0031781D02*
X0170894Y0031821D01*
X0171051Y0188829D02*
X0166051Y0188829D01*
X0166051Y0296821D01*
X0171051Y0296821D01*
X0171051Y0188829D01*
D11*
X0193945Y0321880D02*
X0193947Y0321964D01*
X0193953Y0322047D01*
X0193963Y0322130D01*
X0193977Y0322213D01*
X0193994Y0322295D01*
X0194016Y0322376D01*
X0194041Y0322455D01*
X0194070Y0322534D01*
X0194103Y0322611D01*
X0194139Y0322686D01*
X0194179Y0322760D01*
X0194222Y0322832D01*
X0194269Y0322901D01*
X0194319Y0322968D01*
X0194372Y0323033D01*
X0194428Y0323095D01*
X0194486Y0323155D01*
X0194548Y0323212D01*
X0194612Y0323265D01*
X0194679Y0323316D01*
X0194748Y0323363D01*
X0194819Y0323408D01*
X0194892Y0323448D01*
X0194967Y0323485D01*
X0195044Y0323519D01*
X0195122Y0323549D01*
X0195201Y0323575D01*
X0195282Y0323598D01*
X0195364Y0323616D01*
X0195446Y0323631D01*
X0195529Y0323642D01*
X0195612Y0323649D01*
X0195696Y0323652D01*
X0195780Y0323651D01*
X0195863Y0323646D01*
X0195947Y0323637D01*
X0196029Y0323624D01*
X0196111Y0323608D01*
X0196192Y0323587D01*
X0196273Y0323563D01*
X0196351Y0323535D01*
X0196429Y0323503D01*
X0196505Y0323467D01*
X0196579Y0323428D01*
X0196651Y0323386D01*
X0196721Y0323340D01*
X0196789Y0323291D01*
X0196854Y0323239D01*
X0196917Y0323184D01*
X0196977Y0323126D01*
X0197035Y0323065D01*
X0197089Y0323001D01*
X0197141Y0322935D01*
X0197189Y0322867D01*
X0197234Y0322796D01*
X0197275Y0322723D01*
X0197314Y0322649D01*
X0197348Y0322573D01*
X0197379Y0322495D01*
X0197406Y0322416D01*
X0197430Y0322335D01*
X0197449Y0322254D01*
X0197465Y0322172D01*
X0197477Y0322089D01*
X0197485Y0322005D01*
X0197489Y0321922D01*
X0197489Y0321838D01*
X0197485Y0321755D01*
X0197477Y0321671D01*
X0197465Y0321588D01*
X0197449Y0321506D01*
X0197430Y0321425D01*
X0197406Y0321344D01*
X0197379Y0321265D01*
X0197348Y0321187D01*
X0197314Y0321111D01*
X0197275Y0321037D01*
X0197234Y0320964D01*
X0197189Y0320893D01*
X0197141Y0320825D01*
X0197089Y0320759D01*
X0197035Y0320695D01*
X0196977Y0320634D01*
X0196917Y0320576D01*
X0196854Y0320521D01*
X0196789Y0320469D01*
X0196721Y0320420D01*
X0196651Y0320374D01*
X0196579Y0320332D01*
X0196505Y0320293D01*
X0196429Y0320257D01*
X0196351Y0320225D01*
X0196273Y0320197D01*
X0196192Y0320173D01*
X0196111Y0320152D01*
X0196029Y0320136D01*
X0195947Y0320123D01*
X0195863Y0320114D01*
X0195780Y0320109D01*
X0195696Y0320108D01*
X0195612Y0320111D01*
X0195529Y0320118D01*
X0195446Y0320129D01*
X0195364Y0320144D01*
X0195282Y0320162D01*
X0195201Y0320185D01*
X0195122Y0320211D01*
X0195044Y0320241D01*
X0194967Y0320275D01*
X0194892Y0320312D01*
X0194819Y0320352D01*
X0194748Y0320397D01*
X0194679Y0320444D01*
X0194612Y0320495D01*
X0194548Y0320548D01*
X0194486Y0320605D01*
X0194428Y0320665D01*
X0194372Y0320727D01*
X0194319Y0320792D01*
X0194269Y0320859D01*
X0194222Y0320928D01*
X0194179Y0321000D01*
X0194139Y0321074D01*
X0194103Y0321149D01*
X0194070Y0321226D01*
X0194041Y0321305D01*
X0194016Y0321384D01*
X0193994Y0321465D01*
X0193977Y0321547D01*
X0193963Y0321630D01*
X0193953Y0321713D01*
X0193947Y0321796D01*
X0193945Y0321880D01*
X0220716Y0321880D02*
X0220718Y0321964D01*
X0220724Y0322047D01*
X0220734Y0322130D01*
X0220748Y0322213D01*
X0220765Y0322295D01*
X0220787Y0322376D01*
X0220812Y0322455D01*
X0220841Y0322534D01*
X0220874Y0322611D01*
X0220910Y0322686D01*
X0220950Y0322760D01*
X0220993Y0322832D01*
X0221040Y0322901D01*
X0221090Y0322968D01*
X0221143Y0323033D01*
X0221199Y0323095D01*
X0221257Y0323155D01*
X0221319Y0323212D01*
X0221383Y0323265D01*
X0221450Y0323316D01*
X0221519Y0323363D01*
X0221590Y0323408D01*
X0221663Y0323448D01*
X0221738Y0323485D01*
X0221815Y0323519D01*
X0221893Y0323549D01*
X0221972Y0323575D01*
X0222053Y0323598D01*
X0222135Y0323616D01*
X0222217Y0323631D01*
X0222300Y0323642D01*
X0222383Y0323649D01*
X0222467Y0323652D01*
X0222551Y0323651D01*
X0222634Y0323646D01*
X0222718Y0323637D01*
X0222800Y0323624D01*
X0222882Y0323608D01*
X0222963Y0323587D01*
X0223044Y0323563D01*
X0223122Y0323535D01*
X0223200Y0323503D01*
X0223276Y0323467D01*
X0223350Y0323428D01*
X0223422Y0323386D01*
X0223492Y0323340D01*
X0223560Y0323291D01*
X0223625Y0323239D01*
X0223688Y0323184D01*
X0223748Y0323126D01*
X0223806Y0323065D01*
X0223860Y0323001D01*
X0223912Y0322935D01*
X0223960Y0322867D01*
X0224005Y0322796D01*
X0224046Y0322723D01*
X0224085Y0322649D01*
X0224119Y0322573D01*
X0224150Y0322495D01*
X0224177Y0322416D01*
X0224201Y0322335D01*
X0224220Y0322254D01*
X0224236Y0322172D01*
X0224248Y0322089D01*
X0224256Y0322005D01*
X0224260Y0321922D01*
X0224260Y0321838D01*
X0224256Y0321755D01*
X0224248Y0321671D01*
X0224236Y0321588D01*
X0224220Y0321506D01*
X0224201Y0321425D01*
X0224177Y0321344D01*
X0224150Y0321265D01*
X0224119Y0321187D01*
X0224085Y0321111D01*
X0224046Y0321037D01*
X0224005Y0320964D01*
X0223960Y0320893D01*
X0223912Y0320825D01*
X0223860Y0320759D01*
X0223806Y0320695D01*
X0223748Y0320634D01*
X0223688Y0320576D01*
X0223625Y0320521D01*
X0223560Y0320469D01*
X0223492Y0320420D01*
X0223422Y0320374D01*
X0223350Y0320332D01*
X0223276Y0320293D01*
X0223200Y0320257D01*
X0223122Y0320225D01*
X0223044Y0320197D01*
X0222963Y0320173D01*
X0222882Y0320152D01*
X0222800Y0320136D01*
X0222718Y0320123D01*
X0222634Y0320114D01*
X0222551Y0320109D01*
X0222467Y0320108D01*
X0222383Y0320111D01*
X0222300Y0320118D01*
X0222217Y0320129D01*
X0222135Y0320144D01*
X0222053Y0320162D01*
X0221972Y0320185D01*
X0221893Y0320211D01*
X0221815Y0320241D01*
X0221738Y0320275D01*
X0221663Y0320312D01*
X0221590Y0320352D01*
X0221519Y0320397D01*
X0221450Y0320444D01*
X0221383Y0320495D01*
X0221319Y0320548D01*
X0221257Y0320605D01*
X0221199Y0320665D01*
X0221143Y0320727D01*
X0221090Y0320792D01*
X0221040Y0320859D01*
X0220993Y0320928D01*
X0220950Y0321000D01*
X0220910Y0321074D01*
X0220874Y0321149D01*
X0220841Y0321226D01*
X0220812Y0321305D01*
X0220787Y0321384D01*
X0220765Y0321465D01*
X0220748Y0321547D01*
X0220734Y0321630D01*
X0220724Y0321713D01*
X0220718Y0321796D01*
X0220716Y0321880D01*
X0245756Y0321880D02*
X0245758Y0321964D01*
X0245764Y0322047D01*
X0245774Y0322130D01*
X0245788Y0322213D01*
X0245805Y0322295D01*
X0245827Y0322376D01*
X0245852Y0322455D01*
X0245881Y0322534D01*
X0245914Y0322611D01*
X0245950Y0322686D01*
X0245990Y0322760D01*
X0246033Y0322832D01*
X0246080Y0322901D01*
X0246130Y0322968D01*
X0246183Y0323033D01*
X0246239Y0323095D01*
X0246297Y0323155D01*
X0246359Y0323212D01*
X0246423Y0323265D01*
X0246490Y0323316D01*
X0246559Y0323363D01*
X0246630Y0323408D01*
X0246703Y0323448D01*
X0246778Y0323485D01*
X0246855Y0323519D01*
X0246933Y0323549D01*
X0247012Y0323575D01*
X0247093Y0323598D01*
X0247175Y0323616D01*
X0247257Y0323631D01*
X0247340Y0323642D01*
X0247423Y0323649D01*
X0247507Y0323652D01*
X0247591Y0323651D01*
X0247674Y0323646D01*
X0247758Y0323637D01*
X0247840Y0323624D01*
X0247922Y0323608D01*
X0248003Y0323587D01*
X0248084Y0323563D01*
X0248162Y0323535D01*
X0248240Y0323503D01*
X0248316Y0323467D01*
X0248390Y0323428D01*
X0248462Y0323386D01*
X0248532Y0323340D01*
X0248600Y0323291D01*
X0248665Y0323239D01*
X0248728Y0323184D01*
X0248788Y0323126D01*
X0248846Y0323065D01*
X0248900Y0323001D01*
X0248952Y0322935D01*
X0249000Y0322867D01*
X0249045Y0322796D01*
X0249086Y0322723D01*
X0249125Y0322649D01*
X0249159Y0322573D01*
X0249190Y0322495D01*
X0249217Y0322416D01*
X0249241Y0322335D01*
X0249260Y0322254D01*
X0249276Y0322172D01*
X0249288Y0322089D01*
X0249296Y0322005D01*
X0249300Y0321922D01*
X0249300Y0321838D01*
X0249296Y0321755D01*
X0249288Y0321671D01*
X0249276Y0321588D01*
X0249260Y0321506D01*
X0249241Y0321425D01*
X0249217Y0321344D01*
X0249190Y0321265D01*
X0249159Y0321187D01*
X0249125Y0321111D01*
X0249086Y0321037D01*
X0249045Y0320964D01*
X0249000Y0320893D01*
X0248952Y0320825D01*
X0248900Y0320759D01*
X0248846Y0320695D01*
X0248788Y0320634D01*
X0248728Y0320576D01*
X0248665Y0320521D01*
X0248600Y0320469D01*
X0248532Y0320420D01*
X0248462Y0320374D01*
X0248390Y0320332D01*
X0248316Y0320293D01*
X0248240Y0320257D01*
X0248162Y0320225D01*
X0248084Y0320197D01*
X0248003Y0320173D01*
X0247922Y0320152D01*
X0247840Y0320136D01*
X0247758Y0320123D01*
X0247674Y0320114D01*
X0247591Y0320109D01*
X0247507Y0320108D01*
X0247423Y0320111D01*
X0247340Y0320118D01*
X0247257Y0320129D01*
X0247175Y0320144D01*
X0247093Y0320162D01*
X0247012Y0320185D01*
X0246933Y0320211D01*
X0246855Y0320241D01*
X0246778Y0320275D01*
X0246703Y0320312D01*
X0246630Y0320352D01*
X0246559Y0320397D01*
X0246490Y0320444D01*
X0246423Y0320495D01*
X0246359Y0320548D01*
X0246297Y0320605D01*
X0246239Y0320665D01*
X0246183Y0320727D01*
X0246130Y0320792D01*
X0246080Y0320859D01*
X0246033Y0320928D01*
X0245990Y0321000D01*
X0245950Y0321074D01*
X0245914Y0321149D01*
X0245881Y0321226D01*
X0245852Y0321305D01*
X0245827Y0321384D01*
X0245805Y0321465D01*
X0245788Y0321547D01*
X0245774Y0321630D01*
X0245764Y0321713D01*
X0245758Y0321796D01*
X0245756Y0321880D01*
X0272527Y0321880D02*
X0272529Y0321964D01*
X0272535Y0322047D01*
X0272545Y0322130D01*
X0272559Y0322213D01*
X0272576Y0322295D01*
X0272598Y0322376D01*
X0272623Y0322455D01*
X0272652Y0322534D01*
X0272685Y0322611D01*
X0272721Y0322686D01*
X0272761Y0322760D01*
X0272804Y0322832D01*
X0272851Y0322901D01*
X0272901Y0322968D01*
X0272954Y0323033D01*
X0273010Y0323095D01*
X0273068Y0323155D01*
X0273130Y0323212D01*
X0273194Y0323265D01*
X0273261Y0323316D01*
X0273330Y0323363D01*
X0273401Y0323408D01*
X0273474Y0323448D01*
X0273549Y0323485D01*
X0273626Y0323519D01*
X0273704Y0323549D01*
X0273783Y0323575D01*
X0273864Y0323598D01*
X0273946Y0323616D01*
X0274028Y0323631D01*
X0274111Y0323642D01*
X0274194Y0323649D01*
X0274278Y0323652D01*
X0274362Y0323651D01*
X0274445Y0323646D01*
X0274529Y0323637D01*
X0274611Y0323624D01*
X0274693Y0323608D01*
X0274774Y0323587D01*
X0274855Y0323563D01*
X0274933Y0323535D01*
X0275011Y0323503D01*
X0275087Y0323467D01*
X0275161Y0323428D01*
X0275233Y0323386D01*
X0275303Y0323340D01*
X0275371Y0323291D01*
X0275436Y0323239D01*
X0275499Y0323184D01*
X0275559Y0323126D01*
X0275617Y0323065D01*
X0275671Y0323001D01*
X0275723Y0322935D01*
X0275771Y0322867D01*
X0275816Y0322796D01*
X0275857Y0322723D01*
X0275896Y0322649D01*
X0275930Y0322573D01*
X0275961Y0322495D01*
X0275988Y0322416D01*
X0276012Y0322335D01*
X0276031Y0322254D01*
X0276047Y0322172D01*
X0276059Y0322089D01*
X0276067Y0322005D01*
X0276071Y0321922D01*
X0276071Y0321838D01*
X0276067Y0321755D01*
X0276059Y0321671D01*
X0276047Y0321588D01*
X0276031Y0321506D01*
X0276012Y0321425D01*
X0275988Y0321344D01*
X0275961Y0321265D01*
X0275930Y0321187D01*
X0275896Y0321111D01*
X0275857Y0321037D01*
X0275816Y0320964D01*
X0275771Y0320893D01*
X0275723Y0320825D01*
X0275671Y0320759D01*
X0275617Y0320695D01*
X0275559Y0320634D01*
X0275499Y0320576D01*
X0275436Y0320521D01*
X0275371Y0320469D01*
X0275303Y0320420D01*
X0275233Y0320374D01*
X0275161Y0320332D01*
X0275087Y0320293D01*
X0275011Y0320257D01*
X0274933Y0320225D01*
X0274855Y0320197D01*
X0274774Y0320173D01*
X0274693Y0320152D01*
X0274611Y0320136D01*
X0274529Y0320123D01*
X0274445Y0320114D01*
X0274362Y0320109D01*
X0274278Y0320108D01*
X0274194Y0320111D01*
X0274111Y0320118D01*
X0274028Y0320129D01*
X0273946Y0320144D01*
X0273864Y0320162D01*
X0273783Y0320185D01*
X0273704Y0320211D01*
X0273626Y0320241D01*
X0273549Y0320275D01*
X0273474Y0320312D01*
X0273401Y0320352D01*
X0273330Y0320397D01*
X0273261Y0320444D01*
X0273194Y0320495D01*
X0273130Y0320548D01*
X0273068Y0320605D01*
X0273010Y0320665D01*
X0272954Y0320727D01*
X0272901Y0320792D01*
X0272851Y0320859D01*
X0272804Y0320928D01*
X0272761Y0321000D01*
X0272721Y0321074D01*
X0272685Y0321149D01*
X0272652Y0321226D01*
X0272623Y0321305D01*
X0272598Y0321384D01*
X0272576Y0321465D01*
X0272559Y0321547D01*
X0272545Y0321630D01*
X0272535Y0321713D01*
X0272529Y0321796D01*
X0272527Y0321880D01*
X0307567Y0324006D02*
X0307569Y0324103D01*
X0307575Y0324200D01*
X0307585Y0324296D01*
X0307599Y0324392D01*
X0307617Y0324488D01*
X0307638Y0324582D01*
X0307664Y0324676D01*
X0307693Y0324768D01*
X0307727Y0324859D01*
X0307763Y0324949D01*
X0307804Y0325037D01*
X0307848Y0325123D01*
X0307896Y0325208D01*
X0307947Y0325290D01*
X0308001Y0325371D01*
X0308059Y0325449D01*
X0308120Y0325524D01*
X0308183Y0325597D01*
X0308250Y0325668D01*
X0308320Y0325735D01*
X0308392Y0325800D01*
X0308467Y0325861D01*
X0308545Y0325920D01*
X0308624Y0325975D01*
X0308706Y0326027D01*
X0308790Y0326075D01*
X0308876Y0326120D01*
X0308964Y0326162D01*
X0309053Y0326200D01*
X0309144Y0326234D01*
X0309236Y0326264D01*
X0309329Y0326291D01*
X0309424Y0326313D01*
X0309519Y0326332D01*
X0309615Y0326347D01*
X0309711Y0326358D01*
X0309808Y0326365D01*
X0309905Y0326368D01*
X0310002Y0326367D01*
X0310099Y0326362D01*
X0310195Y0326353D01*
X0310291Y0326340D01*
X0310387Y0326323D01*
X0310482Y0326302D01*
X0310575Y0326278D01*
X0310668Y0326249D01*
X0310760Y0326217D01*
X0310850Y0326181D01*
X0310938Y0326142D01*
X0311025Y0326098D01*
X0311110Y0326052D01*
X0311193Y0326001D01*
X0311274Y0325948D01*
X0311352Y0325891D01*
X0311429Y0325831D01*
X0311502Y0325768D01*
X0311573Y0325702D01*
X0311641Y0325633D01*
X0311707Y0325561D01*
X0311769Y0325487D01*
X0311828Y0325410D01*
X0311884Y0325331D01*
X0311937Y0325249D01*
X0311987Y0325166D01*
X0312032Y0325080D01*
X0312075Y0324993D01*
X0312114Y0324904D01*
X0312149Y0324814D01*
X0312180Y0324722D01*
X0312207Y0324629D01*
X0312231Y0324535D01*
X0312251Y0324440D01*
X0312267Y0324344D01*
X0312279Y0324248D01*
X0312287Y0324151D01*
X0312291Y0324054D01*
X0312291Y0323958D01*
X0312287Y0323861D01*
X0312279Y0323764D01*
X0312267Y0323668D01*
X0312251Y0323572D01*
X0312231Y0323477D01*
X0312207Y0323383D01*
X0312180Y0323290D01*
X0312149Y0323198D01*
X0312114Y0323108D01*
X0312075Y0323019D01*
X0312032Y0322932D01*
X0311987Y0322846D01*
X0311937Y0322763D01*
X0311884Y0322681D01*
X0311828Y0322602D01*
X0311769Y0322525D01*
X0311707Y0322451D01*
X0311641Y0322379D01*
X0311573Y0322310D01*
X0311502Y0322244D01*
X0311429Y0322181D01*
X0311352Y0322121D01*
X0311274Y0322064D01*
X0311193Y0322011D01*
X0311110Y0321960D01*
X0311025Y0321914D01*
X0310938Y0321870D01*
X0310850Y0321831D01*
X0310760Y0321795D01*
X0310668Y0321763D01*
X0310575Y0321734D01*
X0310482Y0321710D01*
X0310387Y0321689D01*
X0310291Y0321672D01*
X0310195Y0321659D01*
X0310099Y0321650D01*
X0310002Y0321645D01*
X0309905Y0321644D01*
X0309808Y0321647D01*
X0309711Y0321654D01*
X0309615Y0321665D01*
X0309519Y0321680D01*
X0309424Y0321699D01*
X0309329Y0321721D01*
X0309236Y0321748D01*
X0309144Y0321778D01*
X0309053Y0321812D01*
X0308964Y0321850D01*
X0308876Y0321892D01*
X0308790Y0321937D01*
X0308706Y0321985D01*
X0308624Y0322037D01*
X0308545Y0322092D01*
X0308467Y0322151D01*
X0308392Y0322212D01*
X0308320Y0322277D01*
X0308250Y0322344D01*
X0308183Y0322415D01*
X0308120Y0322488D01*
X0308059Y0322563D01*
X0308001Y0322641D01*
X0307947Y0322722D01*
X0307896Y0322804D01*
X0307848Y0322889D01*
X0307804Y0322975D01*
X0307763Y0323063D01*
X0307727Y0323153D01*
X0307693Y0323244D01*
X0307664Y0323336D01*
X0307638Y0323430D01*
X0307617Y0323524D01*
X0307599Y0323620D01*
X0307585Y0323716D01*
X0307575Y0323812D01*
X0307569Y0323909D01*
X0307567Y0324006D01*
X0335126Y0324006D02*
X0335128Y0324103D01*
X0335134Y0324200D01*
X0335144Y0324296D01*
X0335158Y0324392D01*
X0335176Y0324488D01*
X0335197Y0324582D01*
X0335223Y0324676D01*
X0335252Y0324768D01*
X0335286Y0324859D01*
X0335322Y0324949D01*
X0335363Y0325037D01*
X0335407Y0325123D01*
X0335455Y0325208D01*
X0335506Y0325290D01*
X0335560Y0325371D01*
X0335618Y0325449D01*
X0335679Y0325524D01*
X0335742Y0325597D01*
X0335809Y0325668D01*
X0335879Y0325735D01*
X0335951Y0325800D01*
X0336026Y0325861D01*
X0336104Y0325920D01*
X0336183Y0325975D01*
X0336265Y0326027D01*
X0336349Y0326075D01*
X0336435Y0326120D01*
X0336523Y0326162D01*
X0336612Y0326200D01*
X0336703Y0326234D01*
X0336795Y0326264D01*
X0336888Y0326291D01*
X0336983Y0326313D01*
X0337078Y0326332D01*
X0337174Y0326347D01*
X0337270Y0326358D01*
X0337367Y0326365D01*
X0337464Y0326368D01*
X0337561Y0326367D01*
X0337658Y0326362D01*
X0337754Y0326353D01*
X0337850Y0326340D01*
X0337946Y0326323D01*
X0338041Y0326302D01*
X0338134Y0326278D01*
X0338227Y0326249D01*
X0338319Y0326217D01*
X0338409Y0326181D01*
X0338497Y0326142D01*
X0338584Y0326098D01*
X0338669Y0326052D01*
X0338752Y0326001D01*
X0338833Y0325948D01*
X0338911Y0325891D01*
X0338988Y0325831D01*
X0339061Y0325768D01*
X0339132Y0325702D01*
X0339200Y0325633D01*
X0339266Y0325561D01*
X0339328Y0325487D01*
X0339387Y0325410D01*
X0339443Y0325331D01*
X0339496Y0325249D01*
X0339546Y0325166D01*
X0339591Y0325080D01*
X0339634Y0324993D01*
X0339673Y0324904D01*
X0339708Y0324814D01*
X0339739Y0324722D01*
X0339766Y0324629D01*
X0339790Y0324535D01*
X0339810Y0324440D01*
X0339826Y0324344D01*
X0339838Y0324248D01*
X0339846Y0324151D01*
X0339850Y0324054D01*
X0339850Y0323958D01*
X0339846Y0323861D01*
X0339838Y0323764D01*
X0339826Y0323668D01*
X0339810Y0323572D01*
X0339790Y0323477D01*
X0339766Y0323383D01*
X0339739Y0323290D01*
X0339708Y0323198D01*
X0339673Y0323108D01*
X0339634Y0323019D01*
X0339591Y0322932D01*
X0339546Y0322846D01*
X0339496Y0322763D01*
X0339443Y0322681D01*
X0339387Y0322602D01*
X0339328Y0322525D01*
X0339266Y0322451D01*
X0339200Y0322379D01*
X0339132Y0322310D01*
X0339061Y0322244D01*
X0338988Y0322181D01*
X0338911Y0322121D01*
X0338833Y0322064D01*
X0338752Y0322011D01*
X0338669Y0321960D01*
X0338584Y0321914D01*
X0338497Y0321870D01*
X0338409Y0321831D01*
X0338319Y0321795D01*
X0338227Y0321763D01*
X0338134Y0321734D01*
X0338041Y0321710D01*
X0337946Y0321689D01*
X0337850Y0321672D01*
X0337754Y0321659D01*
X0337658Y0321650D01*
X0337561Y0321645D01*
X0337464Y0321644D01*
X0337367Y0321647D01*
X0337270Y0321654D01*
X0337174Y0321665D01*
X0337078Y0321680D01*
X0336983Y0321699D01*
X0336888Y0321721D01*
X0336795Y0321748D01*
X0336703Y0321778D01*
X0336612Y0321812D01*
X0336523Y0321850D01*
X0336435Y0321892D01*
X0336349Y0321937D01*
X0336265Y0321985D01*
X0336183Y0322037D01*
X0336104Y0322092D01*
X0336026Y0322151D01*
X0335951Y0322212D01*
X0335879Y0322277D01*
X0335809Y0322344D01*
X0335742Y0322415D01*
X0335679Y0322488D01*
X0335618Y0322563D01*
X0335560Y0322641D01*
X0335506Y0322722D01*
X0335455Y0322804D01*
X0335407Y0322889D01*
X0335363Y0322975D01*
X0335322Y0323063D01*
X0335286Y0323153D01*
X0335252Y0323244D01*
X0335223Y0323336D01*
X0335197Y0323430D01*
X0335176Y0323524D01*
X0335158Y0323620D01*
X0335144Y0323716D01*
X0335134Y0323812D01*
X0335128Y0323909D01*
X0335126Y0324006D01*
X0335126Y0191329D02*
X0335128Y0191426D01*
X0335134Y0191523D01*
X0335144Y0191619D01*
X0335158Y0191715D01*
X0335176Y0191811D01*
X0335197Y0191905D01*
X0335223Y0191999D01*
X0335252Y0192091D01*
X0335286Y0192182D01*
X0335322Y0192272D01*
X0335363Y0192360D01*
X0335407Y0192446D01*
X0335455Y0192531D01*
X0335506Y0192613D01*
X0335560Y0192694D01*
X0335618Y0192772D01*
X0335679Y0192847D01*
X0335742Y0192920D01*
X0335809Y0192991D01*
X0335879Y0193058D01*
X0335951Y0193123D01*
X0336026Y0193184D01*
X0336104Y0193243D01*
X0336183Y0193298D01*
X0336265Y0193350D01*
X0336349Y0193398D01*
X0336435Y0193443D01*
X0336523Y0193485D01*
X0336612Y0193523D01*
X0336703Y0193557D01*
X0336795Y0193587D01*
X0336888Y0193614D01*
X0336983Y0193636D01*
X0337078Y0193655D01*
X0337174Y0193670D01*
X0337270Y0193681D01*
X0337367Y0193688D01*
X0337464Y0193691D01*
X0337561Y0193690D01*
X0337658Y0193685D01*
X0337754Y0193676D01*
X0337850Y0193663D01*
X0337946Y0193646D01*
X0338041Y0193625D01*
X0338134Y0193601D01*
X0338227Y0193572D01*
X0338319Y0193540D01*
X0338409Y0193504D01*
X0338497Y0193465D01*
X0338584Y0193421D01*
X0338669Y0193375D01*
X0338752Y0193324D01*
X0338833Y0193271D01*
X0338911Y0193214D01*
X0338988Y0193154D01*
X0339061Y0193091D01*
X0339132Y0193025D01*
X0339200Y0192956D01*
X0339266Y0192884D01*
X0339328Y0192810D01*
X0339387Y0192733D01*
X0339443Y0192654D01*
X0339496Y0192572D01*
X0339546Y0192489D01*
X0339591Y0192403D01*
X0339634Y0192316D01*
X0339673Y0192227D01*
X0339708Y0192137D01*
X0339739Y0192045D01*
X0339766Y0191952D01*
X0339790Y0191858D01*
X0339810Y0191763D01*
X0339826Y0191667D01*
X0339838Y0191571D01*
X0339846Y0191474D01*
X0339850Y0191377D01*
X0339850Y0191281D01*
X0339846Y0191184D01*
X0339838Y0191087D01*
X0339826Y0190991D01*
X0339810Y0190895D01*
X0339790Y0190800D01*
X0339766Y0190706D01*
X0339739Y0190613D01*
X0339708Y0190521D01*
X0339673Y0190431D01*
X0339634Y0190342D01*
X0339591Y0190255D01*
X0339546Y0190169D01*
X0339496Y0190086D01*
X0339443Y0190004D01*
X0339387Y0189925D01*
X0339328Y0189848D01*
X0339266Y0189774D01*
X0339200Y0189702D01*
X0339132Y0189633D01*
X0339061Y0189567D01*
X0338988Y0189504D01*
X0338911Y0189444D01*
X0338833Y0189387D01*
X0338752Y0189334D01*
X0338669Y0189283D01*
X0338584Y0189237D01*
X0338497Y0189193D01*
X0338409Y0189154D01*
X0338319Y0189118D01*
X0338227Y0189086D01*
X0338134Y0189057D01*
X0338041Y0189033D01*
X0337946Y0189012D01*
X0337850Y0188995D01*
X0337754Y0188982D01*
X0337658Y0188973D01*
X0337561Y0188968D01*
X0337464Y0188967D01*
X0337367Y0188970D01*
X0337270Y0188977D01*
X0337174Y0188988D01*
X0337078Y0189003D01*
X0336983Y0189022D01*
X0336888Y0189044D01*
X0336795Y0189071D01*
X0336703Y0189101D01*
X0336612Y0189135D01*
X0336523Y0189173D01*
X0336435Y0189215D01*
X0336349Y0189260D01*
X0336265Y0189308D01*
X0336183Y0189360D01*
X0336104Y0189415D01*
X0336026Y0189474D01*
X0335951Y0189535D01*
X0335879Y0189600D01*
X0335809Y0189667D01*
X0335742Y0189738D01*
X0335679Y0189811D01*
X0335618Y0189886D01*
X0335560Y0189964D01*
X0335506Y0190045D01*
X0335455Y0190127D01*
X0335407Y0190212D01*
X0335363Y0190298D01*
X0335322Y0190386D01*
X0335286Y0190476D01*
X0335252Y0190567D01*
X0335223Y0190659D01*
X0335197Y0190753D01*
X0335176Y0190847D01*
X0335158Y0190943D01*
X0335144Y0191039D01*
X0335134Y0191135D01*
X0335128Y0191232D01*
X0335126Y0191329D01*
X0307567Y0191329D02*
X0307569Y0191426D01*
X0307575Y0191523D01*
X0307585Y0191619D01*
X0307599Y0191715D01*
X0307617Y0191811D01*
X0307638Y0191905D01*
X0307664Y0191999D01*
X0307693Y0192091D01*
X0307727Y0192182D01*
X0307763Y0192272D01*
X0307804Y0192360D01*
X0307848Y0192446D01*
X0307896Y0192531D01*
X0307947Y0192613D01*
X0308001Y0192694D01*
X0308059Y0192772D01*
X0308120Y0192847D01*
X0308183Y0192920D01*
X0308250Y0192991D01*
X0308320Y0193058D01*
X0308392Y0193123D01*
X0308467Y0193184D01*
X0308545Y0193243D01*
X0308624Y0193298D01*
X0308706Y0193350D01*
X0308790Y0193398D01*
X0308876Y0193443D01*
X0308964Y0193485D01*
X0309053Y0193523D01*
X0309144Y0193557D01*
X0309236Y0193587D01*
X0309329Y0193614D01*
X0309424Y0193636D01*
X0309519Y0193655D01*
X0309615Y0193670D01*
X0309711Y0193681D01*
X0309808Y0193688D01*
X0309905Y0193691D01*
X0310002Y0193690D01*
X0310099Y0193685D01*
X0310195Y0193676D01*
X0310291Y0193663D01*
X0310387Y0193646D01*
X0310482Y0193625D01*
X0310575Y0193601D01*
X0310668Y0193572D01*
X0310760Y0193540D01*
X0310850Y0193504D01*
X0310938Y0193465D01*
X0311025Y0193421D01*
X0311110Y0193375D01*
X0311193Y0193324D01*
X0311274Y0193271D01*
X0311352Y0193214D01*
X0311429Y0193154D01*
X0311502Y0193091D01*
X0311573Y0193025D01*
X0311641Y0192956D01*
X0311707Y0192884D01*
X0311769Y0192810D01*
X0311828Y0192733D01*
X0311884Y0192654D01*
X0311937Y0192572D01*
X0311987Y0192489D01*
X0312032Y0192403D01*
X0312075Y0192316D01*
X0312114Y0192227D01*
X0312149Y0192137D01*
X0312180Y0192045D01*
X0312207Y0191952D01*
X0312231Y0191858D01*
X0312251Y0191763D01*
X0312267Y0191667D01*
X0312279Y0191571D01*
X0312287Y0191474D01*
X0312291Y0191377D01*
X0312291Y0191281D01*
X0312287Y0191184D01*
X0312279Y0191087D01*
X0312267Y0190991D01*
X0312251Y0190895D01*
X0312231Y0190800D01*
X0312207Y0190706D01*
X0312180Y0190613D01*
X0312149Y0190521D01*
X0312114Y0190431D01*
X0312075Y0190342D01*
X0312032Y0190255D01*
X0311987Y0190169D01*
X0311937Y0190086D01*
X0311884Y0190004D01*
X0311828Y0189925D01*
X0311769Y0189848D01*
X0311707Y0189774D01*
X0311641Y0189702D01*
X0311573Y0189633D01*
X0311502Y0189567D01*
X0311429Y0189504D01*
X0311352Y0189444D01*
X0311274Y0189387D01*
X0311193Y0189334D01*
X0311110Y0189283D01*
X0311025Y0189237D01*
X0310938Y0189193D01*
X0310850Y0189154D01*
X0310760Y0189118D01*
X0310668Y0189086D01*
X0310575Y0189057D01*
X0310482Y0189033D01*
X0310387Y0189012D01*
X0310291Y0188995D01*
X0310195Y0188982D01*
X0310099Y0188973D01*
X0310002Y0188968D01*
X0309905Y0188967D01*
X0309808Y0188970D01*
X0309711Y0188977D01*
X0309615Y0188988D01*
X0309519Y0189003D01*
X0309424Y0189022D01*
X0309329Y0189044D01*
X0309236Y0189071D01*
X0309144Y0189101D01*
X0309053Y0189135D01*
X0308964Y0189173D01*
X0308876Y0189215D01*
X0308790Y0189260D01*
X0308706Y0189308D01*
X0308624Y0189360D01*
X0308545Y0189415D01*
X0308467Y0189474D01*
X0308392Y0189535D01*
X0308320Y0189600D01*
X0308250Y0189667D01*
X0308183Y0189738D01*
X0308120Y0189811D01*
X0308059Y0189886D01*
X0308001Y0189964D01*
X0307947Y0190045D01*
X0307896Y0190127D01*
X0307848Y0190212D01*
X0307804Y0190298D01*
X0307763Y0190386D01*
X0307727Y0190476D01*
X0307693Y0190567D01*
X0307664Y0190659D01*
X0307638Y0190753D01*
X0307617Y0190847D01*
X0307599Y0190943D01*
X0307585Y0191039D01*
X0307575Y0191135D01*
X0307569Y0191232D01*
X0307567Y0191329D01*
X0102291Y0339321D02*
X0102293Y0339405D01*
X0102299Y0339488D01*
X0102309Y0339571D01*
X0102323Y0339654D01*
X0102340Y0339736D01*
X0102362Y0339817D01*
X0102387Y0339896D01*
X0102416Y0339975D01*
X0102449Y0340052D01*
X0102485Y0340127D01*
X0102525Y0340201D01*
X0102568Y0340273D01*
X0102615Y0340342D01*
X0102665Y0340409D01*
X0102718Y0340474D01*
X0102774Y0340536D01*
X0102832Y0340596D01*
X0102894Y0340653D01*
X0102958Y0340706D01*
X0103025Y0340757D01*
X0103094Y0340804D01*
X0103165Y0340849D01*
X0103238Y0340889D01*
X0103313Y0340926D01*
X0103390Y0340960D01*
X0103468Y0340990D01*
X0103547Y0341016D01*
X0103628Y0341039D01*
X0103710Y0341057D01*
X0103792Y0341072D01*
X0103875Y0341083D01*
X0103958Y0341090D01*
X0104042Y0341093D01*
X0104126Y0341092D01*
X0104209Y0341087D01*
X0104293Y0341078D01*
X0104375Y0341065D01*
X0104457Y0341049D01*
X0104538Y0341028D01*
X0104619Y0341004D01*
X0104697Y0340976D01*
X0104775Y0340944D01*
X0104851Y0340908D01*
X0104925Y0340869D01*
X0104997Y0340827D01*
X0105067Y0340781D01*
X0105135Y0340732D01*
X0105200Y0340680D01*
X0105263Y0340625D01*
X0105323Y0340567D01*
X0105381Y0340506D01*
X0105435Y0340442D01*
X0105487Y0340376D01*
X0105535Y0340308D01*
X0105580Y0340237D01*
X0105621Y0340164D01*
X0105660Y0340090D01*
X0105694Y0340014D01*
X0105725Y0339936D01*
X0105752Y0339857D01*
X0105776Y0339776D01*
X0105795Y0339695D01*
X0105811Y0339613D01*
X0105823Y0339530D01*
X0105831Y0339446D01*
X0105835Y0339363D01*
X0105835Y0339279D01*
X0105831Y0339196D01*
X0105823Y0339112D01*
X0105811Y0339029D01*
X0105795Y0338947D01*
X0105776Y0338866D01*
X0105752Y0338785D01*
X0105725Y0338706D01*
X0105694Y0338628D01*
X0105660Y0338552D01*
X0105621Y0338478D01*
X0105580Y0338405D01*
X0105535Y0338334D01*
X0105487Y0338266D01*
X0105435Y0338200D01*
X0105381Y0338136D01*
X0105323Y0338075D01*
X0105263Y0338017D01*
X0105200Y0337962D01*
X0105135Y0337910D01*
X0105067Y0337861D01*
X0104997Y0337815D01*
X0104925Y0337773D01*
X0104851Y0337734D01*
X0104775Y0337698D01*
X0104697Y0337666D01*
X0104619Y0337638D01*
X0104538Y0337614D01*
X0104457Y0337593D01*
X0104375Y0337577D01*
X0104293Y0337564D01*
X0104209Y0337555D01*
X0104126Y0337550D01*
X0104042Y0337549D01*
X0103958Y0337552D01*
X0103875Y0337559D01*
X0103792Y0337570D01*
X0103710Y0337585D01*
X0103628Y0337603D01*
X0103547Y0337626D01*
X0103468Y0337652D01*
X0103390Y0337682D01*
X0103313Y0337716D01*
X0103238Y0337753D01*
X0103165Y0337793D01*
X0103094Y0337838D01*
X0103025Y0337885D01*
X0102958Y0337936D01*
X0102894Y0337989D01*
X0102832Y0338046D01*
X0102774Y0338106D01*
X0102718Y0338168D01*
X0102665Y0338233D01*
X0102615Y0338300D01*
X0102568Y0338369D01*
X0102525Y0338441D01*
X0102485Y0338515D01*
X0102449Y0338590D01*
X0102416Y0338667D01*
X0102387Y0338746D01*
X0102362Y0338825D01*
X0102340Y0338906D01*
X0102323Y0338988D01*
X0102309Y0339071D01*
X0102299Y0339154D01*
X0102293Y0339237D01*
X0102291Y0339321D01*
X0075519Y0339321D02*
X0075521Y0339405D01*
X0075527Y0339488D01*
X0075537Y0339571D01*
X0075551Y0339654D01*
X0075568Y0339736D01*
X0075590Y0339817D01*
X0075615Y0339896D01*
X0075644Y0339975D01*
X0075677Y0340052D01*
X0075713Y0340127D01*
X0075753Y0340201D01*
X0075796Y0340273D01*
X0075843Y0340342D01*
X0075893Y0340409D01*
X0075946Y0340474D01*
X0076002Y0340536D01*
X0076060Y0340596D01*
X0076122Y0340653D01*
X0076186Y0340706D01*
X0076253Y0340757D01*
X0076322Y0340804D01*
X0076393Y0340849D01*
X0076466Y0340889D01*
X0076541Y0340926D01*
X0076618Y0340960D01*
X0076696Y0340990D01*
X0076775Y0341016D01*
X0076856Y0341039D01*
X0076938Y0341057D01*
X0077020Y0341072D01*
X0077103Y0341083D01*
X0077186Y0341090D01*
X0077270Y0341093D01*
X0077354Y0341092D01*
X0077437Y0341087D01*
X0077521Y0341078D01*
X0077603Y0341065D01*
X0077685Y0341049D01*
X0077766Y0341028D01*
X0077847Y0341004D01*
X0077925Y0340976D01*
X0078003Y0340944D01*
X0078079Y0340908D01*
X0078153Y0340869D01*
X0078225Y0340827D01*
X0078295Y0340781D01*
X0078363Y0340732D01*
X0078428Y0340680D01*
X0078491Y0340625D01*
X0078551Y0340567D01*
X0078609Y0340506D01*
X0078663Y0340442D01*
X0078715Y0340376D01*
X0078763Y0340308D01*
X0078808Y0340237D01*
X0078849Y0340164D01*
X0078888Y0340090D01*
X0078922Y0340014D01*
X0078953Y0339936D01*
X0078980Y0339857D01*
X0079004Y0339776D01*
X0079023Y0339695D01*
X0079039Y0339613D01*
X0079051Y0339530D01*
X0079059Y0339446D01*
X0079063Y0339363D01*
X0079063Y0339279D01*
X0079059Y0339196D01*
X0079051Y0339112D01*
X0079039Y0339029D01*
X0079023Y0338947D01*
X0079004Y0338866D01*
X0078980Y0338785D01*
X0078953Y0338706D01*
X0078922Y0338628D01*
X0078888Y0338552D01*
X0078849Y0338478D01*
X0078808Y0338405D01*
X0078763Y0338334D01*
X0078715Y0338266D01*
X0078663Y0338200D01*
X0078609Y0338136D01*
X0078551Y0338075D01*
X0078491Y0338017D01*
X0078428Y0337962D01*
X0078363Y0337910D01*
X0078295Y0337861D01*
X0078225Y0337815D01*
X0078153Y0337773D01*
X0078079Y0337734D01*
X0078003Y0337698D01*
X0077925Y0337666D01*
X0077847Y0337638D01*
X0077766Y0337614D01*
X0077685Y0337593D01*
X0077603Y0337577D01*
X0077521Y0337564D01*
X0077437Y0337555D01*
X0077354Y0337550D01*
X0077270Y0337549D01*
X0077186Y0337552D01*
X0077103Y0337559D01*
X0077020Y0337570D01*
X0076938Y0337585D01*
X0076856Y0337603D01*
X0076775Y0337626D01*
X0076696Y0337652D01*
X0076618Y0337682D01*
X0076541Y0337716D01*
X0076466Y0337753D01*
X0076393Y0337793D01*
X0076322Y0337838D01*
X0076253Y0337885D01*
X0076186Y0337936D01*
X0076122Y0337989D01*
X0076060Y0338046D01*
X0076002Y0338106D01*
X0075946Y0338168D01*
X0075893Y0338233D01*
X0075843Y0338300D01*
X0075796Y0338369D01*
X0075753Y0338441D01*
X0075713Y0338515D01*
X0075677Y0338590D01*
X0075644Y0338667D01*
X0075615Y0338746D01*
X0075590Y0338825D01*
X0075568Y0338906D01*
X0075551Y0338988D01*
X0075537Y0339071D01*
X0075527Y0339154D01*
X0075521Y0339237D01*
X0075519Y0339321D01*
X0028335Y0283494D02*
X0028337Y0283575D01*
X0028343Y0283657D01*
X0028353Y0283738D01*
X0028367Y0283818D01*
X0028384Y0283897D01*
X0028406Y0283976D01*
X0028431Y0284053D01*
X0028460Y0284130D01*
X0028493Y0284204D01*
X0028530Y0284277D01*
X0028569Y0284348D01*
X0028613Y0284417D01*
X0028659Y0284484D01*
X0028709Y0284548D01*
X0028762Y0284610D01*
X0028818Y0284670D01*
X0028876Y0284726D01*
X0028938Y0284780D01*
X0029002Y0284831D01*
X0029068Y0284878D01*
X0029136Y0284922D01*
X0029207Y0284963D01*
X0029279Y0285000D01*
X0029354Y0285034D01*
X0029429Y0285064D01*
X0029507Y0285090D01*
X0029585Y0285113D01*
X0029664Y0285131D01*
X0029744Y0285146D01*
X0029825Y0285157D01*
X0029906Y0285164D01*
X0029988Y0285167D01*
X0030069Y0285166D01*
X0030150Y0285161D01*
X0030231Y0285152D01*
X0030312Y0285139D01*
X0030392Y0285122D01*
X0030470Y0285102D01*
X0030548Y0285077D01*
X0030625Y0285049D01*
X0030700Y0285017D01*
X0030773Y0284982D01*
X0030844Y0284943D01*
X0030914Y0284900D01*
X0030981Y0284855D01*
X0031047Y0284806D01*
X0031109Y0284754D01*
X0031169Y0284698D01*
X0031226Y0284640D01*
X0031281Y0284580D01*
X0031332Y0284516D01*
X0031380Y0284451D01*
X0031425Y0284383D01*
X0031467Y0284313D01*
X0031505Y0284241D01*
X0031540Y0284167D01*
X0031571Y0284092D01*
X0031598Y0284015D01*
X0031621Y0283937D01*
X0031641Y0283858D01*
X0031657Y0283778D01*
X0031669Y0283697D01*
X0031677Y0283616D01*
X0031681Y0283535D01*
X0031681Y0283453D01*
X0031677Y0283372D01*
X0031669Y0283291D01*
X0031657Y0283210D01*
X0031641Y0283130D01*
X0031621Y0283051D01*
X0031598Y0282973D01*
X0031571Y0282896D01*
X0031540Y0282821D01*
X0031505Y0282747D01*
X0031467Y0282675D01*
X0031425Y0282605D01*
X0031380Y0282537D01*
X0031332Y0282472D01*
X0031281Y0282408D01*
X0031226Y0282348D01*
X0031169Y0282290D01*
X0031109Y0282234D01*
X0031047Y0282182D01*
X0030981Y0282133D01*
X0030914Y0282088D01*
X0030845Y0282045D01*
X0030773Y0282006D01*
X0030700Y0281971D01*
X0030625Y0281939D01*
X0030548Y0281911D01*
X0030470Y0281886D01*
X0030392Y0281866D01*
X0030312Y0281849D01*
X0030231Y0281836D01*
X0030150Y0281827D01*
X0030069Y0281822D01*
X0029988Y0281821D01*
X0029906Y0281824D01*
X0029825Y0281831D01*
X0029744Y0281842D01*
X0029664Y0281857D01*
X0029585Y0281875D01*
X0029507Y0281898D01*
X0029429Y0281924D01*
X0029354Y0281954D01*
X0029279Y0281988D01*
X0029207Y0282025D01*
X0029136Y0282066D01*
X0029068Y0282110D01*
X0029002Y0282157D01*
X0028938Y0282208D01*
X0028876Y0282262D01*
X0028818Y0282318D01*
X0028762Y0282378D01*
X0028709Y0282440D01*
X0028659Y0282504D01*
X0028613Y0282571D01*
X0028569Y0282640D01*
X0028530Y0282711D01*
X0028493Y0282784D01*
X0028460Y0282858D01*
X0028431Y0282935D01*
X0028406Y0283012D01*
X0028384Y0283091D01*
X0028367Y0283170D01*
X0028353Y0283250D01*
X0028343Y0283331D01*
X0028337Y0283413D01*
X0028335Y0283494D01*
X0028335Y0268533D02*
X0028337Y0268614D01*
X0028343Y0268696D01*
X0028353Y0268777D01*
X0028367Y0268857D01*
X0028384Y0268936D01*
X0028406Y0269015D01*
X0028431Y0269092D01*
X0028460Y0269169D01*
X0028493Y0269243D01*
X0028530Y0269316D01*
X0028569Y0269387D01*
X0028613Y0269456D01*
X0028659Y0269523D01*
X0028709Y0269587D01*
X0028762Y0269649D01*
X0028818Y0269709D01*
X0028876Y0269765D01*
X0028938Y0269819D01*
X0029002Y0269870D01*
X0029068Y0269917D01*
X0029136Y0269961D01*
X0029207Y0270002D01*
X0029279Y0270039D01*
X0029354Y0270073D01*
X0029429Y0270103D01*
X0029507Y0270129D01*
X0029585Y0270152D01*
X0029664Y0270170D01*
X0029744Y0270185D01*
X0029825Y0270196D01*
X0029906Y0270203D01*
X0029988Y0270206D01*
X0030069Y0270205D01*
X0030150Y0270200D01*
X0030231Y0270191D01*
X0030312Y0270178D01*
X0030392Y0270161D01*
X0030470Y0270141D01*
X0030548Y0270116D01*
X0030625Y0270088D01*
X0030700Y0270056D01*
X0030773Y0270021D01*
X0030844Y0269982D01*
X0030914Y0269939D01*
X0030981Y0269894D01*
X0031047Y0269845D01*
X0031109Y0269793D01*
X0031169Y0269737D01*
X0031226Y0269679D01*
X0031281Y0269619D01*
X0031332Y0269555D01*
X0031380Y0269490D01*
X0031425Y0269422D01*
X0031467Y0269352D01*
X0031505Y0269280D01*
X0031540Y0269206D01*
X0031571Y0269131D01*
X0031598Y0269054D01*
X0031621Y0268976D01*
X0031641Y0268897D01*
X0031657Y0268817D01*
X0031669Y0268736D01*
X0031677Y0268655D01*
X0031681Y0268574D01*
X0031681Y0268492D01*
X0031677Y0268411D01*
X0031669Y0268330D01*
X0031657Y0268249D01*
X0031641Y0268169D01*
X0031621Y0268090D01*
X0031598Y0268012D01*
X0031571Y0267935D01*
X0031540Y0267860D01*
X0031505Y0267786D01*
X0031467Y0267714D01*
X0031425Y0267644D01*
X0031380Y0267576D01*
X0031332Y0267511D01*
X0031281Y0267447D01*
X0031226Y0267387D01*
X0031169Y0267329D01*
X0031109Y0267273D01*
X0031047Y0267221D01*
X0030981Y0267172D01*
X0030914Y0267127D01*
X0030845Y0267084D01*
X0030773Y0267045D01*
X0030700Y0267010D01*
X0030625Y0266978D01*
X0030548Y0266950D01*
X0030470Y0266925D01*
X0030392Y0266905D01*
X0030312Y0266888D01*
X0030231Y0266875D01*
X0030150Y0266866D01*
X0030069Y0266861D01*
X0029988Y0266860D01*
X0029906Y0266863D01*
X0029825Y0266870D01*
X0029744Y0266881D01*
X0029664Y0266896D01*
X0029585Y0266914D01*
X0029507Y0266937D01*
X0029429Y0266963D01*
X0029354Y0266993D01*
X0029279Y0267027D01*
X0029207Y0267064D01*
X0029136Y0267105D01*
X0029068Y0267149D01*
X0029002Y0267196D01*
X0028938Y0267247D01*
X0028876Y0267301D01*
X0028818Y0267357D01*
X0028762Y0267417D01*
X0028709Y0267479D01*
X0028659Y0267543D01*
X0028613Y0267610D01*
X0028569Y0267679D01*
X0028530Y0267750D01*
X0028493Y0267823D01*
X0028460Y0267897D01*
X0028431Y0267974D01*
X0028406Y0268051D01*
X0028384Y0268130D01*
X0028367Y0268209D01*
X0028353Y0268289D01*
X0028343Y0268370D01*
X0028337Y0268452D01*
X0028335Y0268533D01*
M02*
