%
M48
M72
T01C0.0240
T02C0.0400
T03C0.0433
T04C0.0890
%
T01
X4300Y5258
X3800Y8258
X5800Y11258
X11800Y8258
X12800Y10758
T02
X13771Y10888
X13771Y9888
X13771Y8888
X13771Y7888
X13771Y6888
X13771Y5888
X10800Y6133
X10800Y7133
X10800Y8133
X10800Y9133
X10800Y10133
X10800Y11133
X10800Y12133
X10800Y13133
X10800Y14133
X10800Y15133
X10800Y16133
X10800Y17133
X9800Y17133
X9804Y16133
X9804Y15133
X9804Y14133
X8776Y14135
X8776Y15135
X8776Y16135
X8800Y17133
X7800Y17133
X6800Y17133
X6800Y16133
X6800Y15133
X6800Y14133
X6800Y12883
X6800Y11883
X6800Y10883
X6800Y9883
X6800Y8883
X6800Y7883
X6800Y6883
X6800Y5883
X8771Y5888
X8771Y6888
X8771Y7888
X8771Y8888
X8771Y9888
X8771Y10888
X8771Y11888
X8771Y12888
X9800Y10133
X13771Y11888
X13771Y12888
X5800Y14133
X5800Y15133
X5800Y16133
X5800Y17133
X4800Y17133
X4800Y16133
X4800Y15133
X4800Y14133
X4800Y13133
X4800Y12133
X4800Y11133
X4800Y10133
X4800Y9133
X4800Y8133
X4800Y7133
X4800Y6133
X5800Y10133
X3050Y14758
X2050Y14758
X1800Y12883
X1800Y11883
X1800Y10883
X1800Y9883
X1800Y8883
X1800Y7883
X1800Y6883
X1800Y5883
T03
X2300Y2008
X3300Y2008
X4300Y2008
X5300Y2008
X6300Y2008
X7300Y2008
X7300Y4008
X6300Y4008
X5300Y4008
X4300Y4008
X3300Y4008
X2300Y4008
X9530Y4013
X10530Y4013
X11530Y4013
X12530Y4013
X13530Y4013
X14530Y4013
X14530Y2013
X13530Y2013
X12530Y2013
X11530Y2013
X10530Y2013
X9530Y2013
T04
X13682Y16709
X1807Y16709
M30
