G75*
G70*
%OFA0B0*%
%FSLAX24Y24*%
%IPPOS*%
%LPD*%
%AMOC8*
5,1,8,0,0,1.08239X$1,22.5*
%
%ADD10C,0.0050*%
%ADD11C,0.0040*%
%ADD12C,0.0030*%
%ADD13C,0.0080*%
%ADD14C,0.0100*%
%ADD15C,0.0020*%
%ADD16C,0.0010*%
D10*
X001425Y000258D02*
X001425Y000633D01*
X001300Y005383D02*
X001300Y013383D01*
X007300Y013383D01*
X007300Y005383D01*
X001300Y005383D01*
X002800Y005883D02*
X002800Y006383D01*
X003800Y006383D01*
X003800Y005883D01*
X002800Y005883D01*
X004050Y007883D02*
X004050Y009883D01*
X006050Y009883D01*
X006050Y007883D01*
X004050Y007883D01*
X003800Y011883D02*
X003756Y011885D01*
X003713Y011891D01*
X003671Y011900D01*
X003629Y011913D01*
X003589Y011930D01*
X003550Y011950D01*
X003513Y011973D01*
X003479Y012000D01*
X003446Y012029D01*
X003417Y012062D01*
X003390Y012096D01*
X003367Y012133D01*
X003347Y012172D01*
X003330Y012212D01*
X003317Y012254D01*
X003308Y012296D01*
X003302Y012339D01*
X003300Y012383D01*
X003302Y012427D01*
X003308Y012470D01*
X003317Y012512D01*
X003330Y012554D01*
X003347Y012594D01*
X003367Y012633D01*
X003390Y012670D01*
X003417Y012704D01*
X003446Y012737D01*
X003479Y012766D01*
X003513Y012793D01*
X003550Y012816D01*
X003589Y012836D01*
X003629Y012853D01*
X003671Y012866D01*
X003713Y012875D01*
X003756Y012881D01*
X003800Y012883D01*
X003844Y012881D01*
X003887Y012875D01*
X003929Y012866D01*
X003971Y012853D01*
X004011Y012836D01*
X004050Y012816D01*
X004087Y012793D01*
X004121Y012766D01*
X004154Y012737D01*
X004183Y012704D01*
X004210Y012670D01*
X004233Y012633D01*
X004253Y012594D01*
X004270Y012554D01*
X004283Y012512D01*
X004292Y012470D01*
X004298Y012427D01*
X004300Y012383D01*
X004298Y012339D01*
X004292Y012296D01*
X004283Y012254D01*
X004270Y012212D01*
X004253Y012172D01*
X004233Y012133D01*
X004210Y012096D01*
X004183Y012062D01*
X004154Y012029D01*
X004121Y012000D01*
X004087Y011973D01*
X004050Y011950D01*
X004011Y011930D01*
X003971Y011913D01*
X003929Y011900D01*
X003887Y011891D01*
X003844Y011885D01*
X003800Y011883D01*
X008271Y013388D02*
X008271Y005388D01*
X014271Y005388D01*
X014271Y013388D01*
X008271Y013388D01*
X009521Y010888D02*
X009521Y008888D01*
X011521Y008888D01*
X011521Y010888D01*
X009521Y010888D01*
X011771Y012388D02*
X012771Y012388D01*
X012771Y012888D01*
X011771Y012888D01*
X011771Y012388D01*
X011771Y006888D02*
X011815Y006886D01*
X011858Y006880D01*
X011900Y006871D01*
X011942Y006858D01*
X011982Y006841D01*
X012021Y006821D01*
X012058Y006798D01*
X012092Y006771D01*
X012125Y006742D01*
X012154Y006709D01*
X012181Y006675D01*
X012204Y006638D01*
X012224Y006599D01*
X012241Y006559D01*
X012254Y006517D01*
X012263Y006475D01*
X012269Y006432D01*
X012271Y006388D01*
X012269Y006344D01*
X012263Y006301D01*
X012254Y006259D01*
X012241Y006217D01*
X012224Y006177D01*
X012204Y006138D01*
X012181Y006101D01*
X012154Y006067D01*
X012125Y006034D01*
X012092Y006005D01*
X012058Y005978D01*
X012021Y005955D01*
X011982Y005935D01*
X011942Y005918D01*
X011900Y005905D01*
X011858Y005896D01*
X011815Y005890D01*
X011771Y005888D01*
X011727Y005890D01*
X011684Y005896D01*
X011642Y005905D01*
X011600Y005918D01*
X011560Y005935D01*
X011521Y005955D01*
X011484Y005978D01*
X011450Y006005D01*
X011417Y006034D01*
X011388Y006067D01*
X011361Y006101D01*
X011338Y006138D01*
X011318Y006177D01*
X011301Y006217D01*
X011288Y006259D01*
X011279Y006301D01*
X011273Y006344D01*
X011271Y006388D01*
X011273Y006432D01*
X011279Y006475D01*
X011288Y006517D01*
X011301Y006559D01*
X011318Y006599D01*
X011338Y006638D01*
X011361Y006675D01*
X011388Y006709D01*
X011417Y006742D01*
X011450Y006771D01*
X011484Y006798D01*
X011521Y006821D01*
X011560Y006841D01*
X011600Y006858D01*
X011642Y006871D01*
X011684Y006880D01*
X011727Y006886D01*
X011771Y006888D01*
D11*
X011749Y011658D02*
X011672Y011735D01*
X011672Y011812D01*
X011749Y011888D01*
X011903Y011888D01*
X011979Y011812D01*
X011979Y011735D01*
X011903Y011658D01*
X011749Y011658D01*
X011749Y011888D02*
X011672Y011965D01*
X011672Y012042D01*
X011749Y012119D01*
X011903Y012119D01*
X011979Y012042D01*
X011979Y011965D01*
X011903Y011888D01*
X012133Y011812D02*
X012133Y011735D01*
X012210Y011658D01*
X012363Y011658D01*
X012440Y011735D01*
X012440Y011812D01*
X012363Y011888D01*
X012210Y011888D01*
X012133Y011965D01*
X012133Y012042D01*
X012210Y012119D01*
X012363Y012119D01*
X012440Y012042D01*
X012440Y011965D01*
X012363Y011888D01*
X012210Y011888D02*
X012133Y011812D01*
X011519Y011888D02*
X011289Y011888D01*
X011212Y011965D01*
X011212Y012042D01*
X011289Y012119D01*
X011442Y012119D01*
X011519Y012042D01*
X011519Y011735D01*
X011442Y011658D01*
X011289Y011658D01*
X011212Y011735D01*
X011059Y011888D02*
X010752Y011888D01*
X010982Y012119D01*
X010982Y011658D01*
X010598Y011658D02*
X010598Y011965D01*
X010445Y012119D01*
X010291Y011965D01*
X010291Y011658D01*
X010291Y011888D02*
X010598Y011888D01*
X005167Y007036D02*
X005167Y006959D01*
X005090Y006883D01*
X004936Y006883D01*
X004860Y006959D01*
X004860Y007036D01*
X004936Y007113D01*
X005090Y007113D01*
X005167Y007036D01*
X005090Y006883D02*
X005167Y006806D01*
X005167Y006729D01*
X005090Y006653D01*
X004936Y006653D01*
X004860Y006729D01*
X004860Y006806D01*
X004936Y006883D01*
X004706Y006959D02*
X004630Y006883D01*
X004476Y006883D01*
X004399Y006959D01*
X004399Y007036D01*
X004476Y007113D01*
X004630Y007113D01*
X004706Y007036D01*
X004706Y006959D01*
X004630Y006883D02*
X004706Y006806D01*
X004706Y006729D01*
X004630Y006653D01*
X004476Y006653D01*
X004399Y006729D01*
X004399Y006806D01*
X004476Y006883D01*
X004246Y006883D02*
X004016Y006883D01*
X003939Y006959D01*
X003939Y007036D01*
X004016Y007113D01*
X004169Y007113D01*
X004246Y007036D01*
X004246Y006729D01*
X004169Y006653D01*
X004016Y006653D01*
X003939Y006729D01*
X003785Y006883D02*
X003479Y006883D01*
X003709Y007113D01*
X003709Y006653D01*
X003325Y006653D02*
X003325Y006959D01*
X003172Y007113D01*
X003018Y006959D01*
X003018Y006653D01*
X003018Y006883D02*
X003325Y006883D01*
D12*
X003058Y012113D02*
X002812Y012113D01*
X002750Y012174D01*
X002750Y012298D01*
X002812Y012359D01*
X002935Y012359D02*
X002935Y012236D01*
X002935Y012359D02*
X003058Y012359D01*
X003120Y012298D01*
X003120Y012174D01*
X003058Y012113D01*
X003120Y012481D02*
X002750Y012481D01*
X003120Y012728D01*
X002750Y012728D01*
X002750Y012849D02*
X002750Y013034D01*
X002812Y013096D01*
X003058Y013096D01*
X003120Y013034D01*
X003120Y012849D01*
X002750Y012849D01*
X002953Y015311D02*
X003200Y015311D01*
X003322Y015373D02*
X003569Y015619D01*
X003569Y015681D01*
X003507Y015743D01*
X003384Y015743D01*
X003322Y015681D01*
X003322Y015373D02*
X003569Y015373D01*
X002832Y015434D02*
X002770Y015373D01*
X002647Y015373D01*
X002585Y015434D01*
X002585Y015496D01*
X002647Y015558D01*
X002770Y015558D01*
X002832Y015496D01*
X002832Y015434D01*
X002770Y015558D02*
X002832Y015619D01*
X002832Y015681D01*
X002770Y015743D01*
X002647Y015743D01*
X002585Y015681D01*
X002585Y015619D01*
X002647Y015558D01*
X002464Y015619D02*
X002402Y015558D01*
X002279Y015558D01*
X002217Y015619D01*
X002217Y015681D01*
X002279Y015743D01*
X002402Y015743D01*
X002464Y015681D01*
X002464Y015619D01*
X002402Y015558D02*
X002464Y015496D01*
X002464Y015434D01*
X002402Y015373D01*
X002279Y015373D01*
X002217Y015434D01*
X002217Y015496D01*
X002279Y015558D01*
X002095Y015558D02*
X001910Y015558D01*
X001849Y015619D01*
X001849Y015681D01*
X001910Y015743D01*
X002034Y015743D01*
X002095Y015681D01*
X002095Y015434D01*
X002034Y015373D01*
X001910Y015373D01*
X001849Y015434D01*
X001727Y015558D02*
X001480Y015558D01*
X001665Y015743D01*
X001665Y015373D01*
X001359Y015373D02*
X001359Y015619D01*
X001235Y015743D01*
X001112Y015619D01*
X001112Y015373D01*
X001112Y015558D02*
X001359Y015558D01*
X012451Y006505D02*
X012451Y006320D01*
X012821Y006320D01*
X012821Y006505D01*
X012760Y006567D01*
X012513Y006567D01*
X012451Y006505D01*
X012451Y006198D02*
X012821Y006198D01*
X012451Y005952D01*
X012821Y005952D01*
X012760Y005830D02*
X012636Y005830D01*
X012636Y005707D01*
X012513Y005830D02*
X012451Y005768D01*
X012451Y005645D01*
X012513Y005583D01*
X012760Y005583D01*
X012821Y005645D01*
X012821Y005768D01*
X012760Y005830D01*
D13*
X010054Y013633D02*
X009554Y013633D01*
X009304Y013883D01*
X009304Y014383D01*
X009554Y014633D01*
X009304Y014883D01*
X009304Y015383D01*
X009554Y015633D01*
X009304Y015883D01*
X009304Y016383D01*
X009554Y016633D01*
X010054Y016633D01*
X010304Y016383D01*
X010304Y015883D01*
X010054Y015633D01*
X010304Y015383D01*
X010304Y014883D01*
X010054Y014633D01*
X010304Y014383D01*
X010304Y013883D01*
X010054Y013633D01*
X009276Y013885D02*
X009026Y013635D01*
X008526Y013635D01*
X008276Y013885D01*
X008276Y014385D01*
X008526Y014635D01*
X008276Y014885D01*
X008276Y015385D01*
X008526Y015635D01*
X008276Y015885D01*
X008276Y016385D01*
X008526Y016635D01*
X009026Y016635D01*
X009276Y016385D01*
X009276Y015885D01*
X009026Y015635D01*
X009276Y015385D01*
X009276Y014885D01*
X009026Y014635D01*
X009276Y014385D01*
X009276Y013885D01*
X007300Y013883D02*
X007050Y013633D01*
X006550Y013633D01*
X006300Y013883D01*
X006300Y014383D01*
X006550Y014633D01*
X006300Y014883D01*
X006300Y015383D01*
X006550Y015633D01*
X006300Y015883D01*
X006300Y016383D01*
X006550Y016633D01*
X007050Y016633D01*
X007300Y016383D01*
X007300Y015883D01*
X007050Y015633D01*
X007300Y015383D01*
X007300Y014883D01*
X007050Y014633D01*
X007300Y014383D01*
X007300Y013883D01*
X006300Y013883D02*
X006050Y013633D01*
X005550Y013633D01*
X005300Y013883D01*
X005300Y014383D01*
X005550Y014633D01*
X005300Y014883D01*
X005300Y015383D01*
X005550Y015633D01*
X005300Y015883D01*
X005300Y016383D01*
X005550Y016633D01*
X006050Y016633D01*
X006300Y016383D01*
X006300Y015883D01*
X006050Y015633D01*
X006300Y015383D01*
X006300Y014883D01*
X006050Y014633D01*
X006300Y014383D01*
X006300Y013883D01*
X003550Y014508D02*
X003300Y014258D01*
X002800Y014258D01*
X002550Y014508D01*
X002300Y014258D01*
X001800Y014258D01*
X001550Y014508D01*
X001550Y015008D01*
X001800Y015258D01*
X002300Y015258D01*
X002550Y015008D01*
X002800Y015258D01*
X003300Y015258D01*
X003550Y015008D01*
X003550Y014508D01*
D14*
X000646Y005111D02*
X007654Y005111D01*
X007654Y004370D01*
X007876Y005115D02*
X014884Y005115D01*
X014884Y004375D01*
X014884Y003588D02*
X014884Y002407D01*
X014884Y001659D02*
X014884Y000911D01*
X007876Y000911D01*
X007876Y005115D01*
X007654Y003583D02*
X007654Y002402D01*
X007654Y001654D02*
X007654Y000906D01*
X000646Y000906D01*
X000646Y005111D01*
D15*
X000435Y000738D02*
X000435Y000518D01*
X000582Y000518D02*
X000582Y000738D01*
X000508Y000665D01*
X000435Y000738D01*
X000656Y000702D02*
X000656Y000555D01*
X000693Y000518D01*
X000766Y000518D01*
X000803Y000555D01*
X000803Y000702D01*
X000766Y000738D01*
X000693Y000738D01*
X000656Y000702D01*
X000877Y000738D02*
X001024Y000738D01*
X000950Y000738D02*
X000950Y000518D01*
X001098Y000555D02*
X001098Y000702D01*
X001135Y000738D01*
X001208Y000738D01*
X001245Y000702D01*
X001245Y000555D01*
X001208Y000518D01*
X001135Y000518D01*
X001098Y000555D01*
X001319Y000592D02*
X001429Y000592D01*
X001466Y000628D01*
X001466Y000702D01*
X001429Y000738D01*
X001319Y000738D01*
X001319Y000518D01*
X001392Y000592D02*
X001466Y000518D01*
X002060Y000518D02*
X002207Y000518D01*
X002133Y000518D02*
X002133Y000738D01*
X002060Y000665D01*
X002281Y000665D02*
X002281Y000518D01*
X002281Y000628D02*
X002428Y000628D01*
X002428Y000665D02*
X002428Y000518D01*
X002428Y000665D02*
X002354Y000738D01*
X002281Y000665D01*
X003060Y000665D02*
X003133Y000738D01*
X003133Y000518D01*
X003060Y000518D02*
X003207Y000518D01*
X003281Y000518D02*
X003281Y000738D01*
X003391Y000738D01*
X003428Y000702D01*
X003428Y000665D01*
X003391Y000628D01*
X003281Y000628D01*
X003281Y000518D02*
X003391Y000518D01*
X003428Y000555D01*
X003428Y000592D01*
X003391Y000628D01*
X004060Y000702D02*
X004097Y000738D01*
X004170Y000738D01*
X004207Y000702D01*
X004207Y000665D01*
X004060Y000518D01*
X004207Y000518D01*
X004281Y000518D02*
X004281Y000665D01*
X004354Y000738D01*
X004428Y000665D01*
X004428Y000518D01*
X004428Y000628D02*
X004281Y000628D01*
X005060Y000702D02*
X005097Y000738D01*
X005170Y000738D01*
X005207Y000702D01*
X005207Y000665D01*
X005060Y000518D01*
X005207Y000518D01*
X005281Y000518D02*
X005391Y000518D01*
X005428Y000555D01*
X005428Y000592D01*
X005391Y000628D01*
X005281Y000628D01*
X005281Y000518D02*
X005281Y000738D01*
X005391Y000738D01*
X005428Y000702D01*
X005428Y000665D01*
X005391Y000628D01*
X005685Y000592D02*
X005758Y000518D01*
X005832Y000592D01*
X005832Y000738D01*
X005906Y000738D02*
X005906Y000518D01*
X006053Y000518D01*
X006127Y000518D02*
X006274Y000738D01*
X006348Y000738D02*
X006495Y000738D01*
X006421Y000738D02*
X006421Y000518D01*
X006274Y000518D02*
X006127Y000738D01*
X006053Y000738D02*
X005906Y000738D01*
X005906Y000628D02*
X005979Y000628D01*
X005685Y000592D02*
X005685Y000738D01*
X006569Y000482D02*
X006716Y000482D01*
X006790Y000518D02*
X006937Y000665D01*
X006937Y000702D01*
X006900Y000738D01*
X006827Y000738D01*
X006790Y000702D01*
X006790Y000518D02*
X006937Y000518D01*
X007060Y000555D02*
X007060Y000702D01*
X007097Y000738D01*
X007170Y000738D01*
X007207Y000702D01*
X007207Y000628D02*
X007133Y000628D01*
X007207Y000628D02*
X007207Y000555D01*
X007170Y000518D01*
X007097Y000518D01*
X007060Y000555D01*
X007281Y000518D02*
X007281Y000738D01*
X007428Y000518D01*
X007428Y000738D01*
X007502Y000738D02*
X007502Y000518D01*
X007612Y000518D01*
X007649Y000555D01*
X007649Y000702D01*
X007612Y000738D01*
X007502Y000738D01*
X008040Y000743D02*
X008040Y000523D01*
X008187Y000523D02*
X008187Y000743D01*
X008113Y000670D01*
X008040Y000743D01*
X008261Y000706D02*
X008261Y000560D01*
X008298Y000523D01*
X008371Y000523D01*
X008408Y000560D01*
X008408Y000706D01*
X008371Y000743D01*
X008298Y000743D01*
X008261Y000706D01*
X008482Y000743D02*
X008629Y000743D01*
X008555Y000743D02*
X008555Y000523D01*
X008703Y000560D02*
X008703Y000706D01*
X008740Y000743D01*
X008813Y000743D01*
X008850Y000706D01*
X008850Y000560D01*
X008813Y000523D01*
X008740Y000523D01*
X008703Y000560D01*
X008924Y000596D02*
X009034Y000596D01*
X009071Y000633D01*
X009071Y000706D01*
X009034Y000743D01*
X008924Y000743D01*
X008924Y000523D01*
X008997Y000596D02*
X009071Y000523D01*
X009415Y000523D02*
X009562Y000523D01*
X009488Y000523D02*
X009488Y000743D01*
X009415Y000670D01*
X009636Y000670D02*
X009636Y000523D01*
X009636Y000633D02*
X009783Y000633D01*
X009783Y000670D02*
X009783Y000523D01*
X009783Y000670D02*
X009709Y000743D01*
X009636Y000670D01*
X010540Y000670D02*
X010613Y000743D01*
X010613Y000523D01*
X010540Y000523D02*
X010687Y000523D01*
X010761Y000523D02*
X010761Y000743D01*
X010871Y000743D01*
X010908Y000706D01*
X010908Y000670D01*
X010871Y000633D01*
X010761Y000633D01*
X010871Y000633D02*
X010908Y000596D01*
X010908Y000560D01*
X010871Y000523D01*
X010761Y000523D01*
X011540Y000523D02*
X011687Y000670D01*
X011687Y000706D01*
X011650Y000743D01*
X011577Y000743D01*
X011540Y000706D01*
X011540Y000523D02*
X011687Y000523D01*
X011761Y000523D02*
X011761Y000670D01*
X011834Y000743D01*
X011908Y000670D01*
X011908Y000523D01*
X011908Y000633D02*
X011761Y000633D01*
X012290Y000706D02*
X012327Y000743D01*
X012400Y000743D01*
X012437Y000706D01*
X012437Y000670D01*
X012290Y000523D01*
X012437Y000523D01*
X012511Y000523D02*
X012621Y000523D01*
X012658Y000560D01*
X012658Y000596D01*
X012621Y000633D01*
X012511Y000633D01*
X012621Y000633D02*
X012658Y000670D01*
X012658Y000706D01*
X012621Y000743D01*
X012511Y000743D01*
X012511Y000523D01*
X012915Y000596D02*
X012988Y000523D01*
X013062Y000596D01*
X013062Y000743D01*
X013136Y000743D02*
X013136Y000523D01*
X013283Y000523D01*
X013357Y000523D02*
X013504Y000743D01*
X013578Y000743D02*
X013725Y000743D01*
X013651Y000743D02*
X013651Y000523D01*
X013504Y000523D02*
X013357Y000743D01*
X013283Y000743D02*
X013136Y000743D01*
X013136Y000633D02*
X013209Y000633D01*
X012915Y000596D02*
X012915Y000743D01*
X013799Y000486D02*
X013946Y000486D01*
X014020Y000523D02*
X014167Y000523D01*
X014093Y000523D02*
X014093Y000743D01*
X014020Y000670D01*
X014290Y000706D02*
X014290Y000560D01*
X014327Y000523D01*
X014400Y000523D01*
X014437Y000560D01*
X014437Y000633D01*
X014363Y000633D01*
X014290Y000706D02*
X014327Y000743D01*
X014400Y000743D01*
X014437Y000706D01*
X014511Y000743D02*
X014658Y000523D01*
X014658Y000743D01*
X014732Y000743D02*
X014732Y000523D01*
X014842Y000523D01*
X014879Y000560D01*
X014879Y000706D01*
X014842Y000743D01*
X014732Y000743D01*
X014511Y000743D02*
X014511Y000523D01*
X008024Y014018D02*
X007877Y014018D01*
X007950Y014018D02*
X007950Y014238D01*
X007877Y014165D01*
X007803Y014202D02*
X007766Y014238D01*
X007693Y014238D01*
X007656Y014202D01*
X007656Y014165D01*
X007693Y014128D01*
X007766Y014128D01*
X007803Y014092D01*
X007803Y014055D01*
X007766Y014018D01*
X007693Y014018D01*
X007656Y014055D01*
X007582Y014018D02*
X007582Y014238D01*
X007508Y014165D01*
X007435Y014238D01*
X007435Y014018D01*
X007435Y015018D02*
X007435Y015238D01*
X007508Y015165D01*
X007582Y015238D01*
X007582Y015018D01*
X007656Y015055D02*
X007693Y015018D01*
X007766Y015018D01*
X007803Y015055D01*
X007803Y015092D01*
X007766Y015128D01*
X007693Y015128D01*
X007656Y015165D01*
X007656Y015202D01*
X007693Y015238D01*
X007766Y015238D01*
X007803Y015202D01*
X007877Y015202D02*
X007914Y015238D01*
X007987Y015238D01*
X008024Y015202D01*
X008024Y015165D01*
X007877Y015018D01*
X008024Y015018D01*
X007987Y016018D02*
X007914Y016018D01*
X007877Y016055D01*
X007803Y016055D02*
X007766Y016018D01*
X007693Y016018D01*
X007656Y016055D01*
X007693Y016128D02*
X007766Y016128D01*
X007803Y016092D01*
X007803Y016055D01*
X007693Y016128D02*
X007656Y016165D01*
X007656Y016202D01*
X007693Y016238D01*
X007766Y016238D01*
X007803Y016202D01*
X007877Y016202D02*
X007914Y016238D01*
X007987Y016238D01*
X008024Y016202D01*
X008024Y016165D01*
X007987Y016128D01*
X008024Y016092D01*
X008024Y016055D01*
X007987Y016018D01*
X007987Y016128D02*
X007950Y016128D01*
X007582Y016238D02*
X007582Y016018D01*
X007435Y016018D02*
X007435Y016238D01*
X007508Y016165D01*
X007582Y016238D01*
X011577Y014655D02*
X011577Y014618D01*
X011577Y014545D02*
X011577Y014398D01*
X011613Y014398D02*
X011540Y014398D01*
X011540Y014545D02*
X011577Y014545D01*
X011687Y014545D02*
X011687Y014398D01*
X011687Y014545D02*
X011797Y014545D01*
X011834Y014508D01*
X011834Y014398D01*
X011908Y014398D02*
X012018Y014398D01*
X012055Y014435D01*
X012055Y014508D01*
X012018Y014545D01*
X011908Y014545D01*
X011908Y014325D01*
X012129Y014435D02*
X012166Y014398D01*
X012276Y014398D01*
X012276Y014545D01*
X012350Y014545D02*
X012424Y014545D01*
X012387Y014581D02*
X012387Y014435D01*
X012424Y014398D01*
X012498Y014398D02*
X012498Y014435D01*
X012534Y014435D01*
X012534Y014398D01*
X012498Y014398D01*
X012540Y014435D02*
X012540Y014471D01*
X012577Y014508D01*
X012650Y014508D01*
X012687Y014471D01*
X012687Y014435D01*
X012650Y014398D01*
X012577Y014398D01*
X012540Y014435D01*
X012534Y014508D02*
X012498Y014508D01*
X012498Y014545D01*
X012534Y014545D01*
X012534Y014508D01*
X012540Y014545D02*
X012540Y014581D01*
X012577Y014618D01*
X012650Y014618D01*
X012687Y014581D01*
X012687Y014545D01*
X012650Y014508D01*
X012577Y014508D02*
X012540Y014545D01*
X012761Y014508D02*
X012908Y014508D01*
X012982Y014435D02*
X013019Y014398D01*
X013092Y014398D01*
X013129Y014435D01*
X013129Y014471D01*
X013092Y014508D01*
X013055Y014508D01*
X013092Y014508D02*
X013129Y014545D01*
X013129Y014581D01*
X013092Y014618D01*
X013019Y014618D01*
X012982Y014581D01*
X013203Y014618D02*
X013203Y014508D01*
X013276Y014545D01*
X013313Y014545D01*
X013350Y014508D01*
X013350Y014435D01*
X013313Y014398D01*
X013240Y014398D01*
X013203Y014435D01*
X013203Y014618D02*
X013350Y014618D01*
X013424Y014618D02*
X013424Y014471D01*
X013497Y014398D01*
X013571Y014471D01*
X013571Y014618D01*
X012129Y014545D02*
X012129Y014435D01*
X003361Y014050D02*
X003324Y014050D01*
X003251Y013977D01*
X003251Y014050D02*
X003251Y013903D01*
X003177Y013977D02*
X003030Y013977D01*
X003030Y014013D02*
X003067Y014050D01*
X003140Y014050D01*
X003177Y014013D01*
X003177Y013977D01*
X003140Y013903D02*
X003067Y013903D01*
X003030Y013940D01*
X003030Y014013D01*
X002956Y014050D02*
X002956Y013940D01*
X002919Y013903D01*
X002882Y013940D01*
X002846Y013903D01*
X002809Y013940D01*
X002809Y014050D01*
X002735Y014013D02*
X002698Y014050D01*
X002625Y014050D01*
X002588Y014013D01*
X002588Y013940D01*
X002625Y013903D01*
X002698Y013903D01*
X002735Y013940D01*
X002735Y014013D01*
X002514Y014013D02*
X002514Y013940D01*
X002477Y013903D01*
X002367Y013903D01*
X002367Y013830D02*
X002367Y014050D01*
X002477Y014050D01*
X002514Y014013D01*
X002072Y014013D02*
X002072Y013977D01*
X001925Y013977D01*
X001925Y014013D02*
X001962Y014050D01*
X002035Y014050D01*
X002072Y014013D01*
X002035Y013903D02*
X001962Y013903D01*
X001925Y013940D01*
X001925Y014013D01*
X001851Y014050D02*
X001814Y014050D01*
X001741Y013977D01*
X001741Y014050D02*
X001741Y013903D01*
X001667Y013903D02*
X001556Y013903D01*
X001520Y013940D01*
X001556Y013977D01*
X001667Y013977D01*
X001667Y014013D02*
X001667Y013903D01*
X001667Y014013D02*
X001630Y014050D01*
X001556Y014050D01*
X001446Y014013D02*
X001446Y013903D01*
X001446Y014013D02*
X001409Y014050D01*
X001335Y014050D01*
X001299Y014013D01*
X001225Y014050D02*
X001114Y014050D01*
X001078Y014013D01*
X001114Y013977D01*
X001188Y013977D01*
X001225Y013940D01*
X001188Y013903D01*
X001078Y013903D01*
X001299Y013903D02*
X001299Y014123D01*
D16*
X001281Y013703D02*
X001331Y013703D01*
X001356Y013678D01*
X001356Y013603D01*
X001281Y013603D01*
X001256Y013628D01*
X001281Y013653D01*
X001356Y013653D01*
X001403Y013678D02*
X001428Y013703D01*
X001503Y013703D01*
X001550Y013678D02*
X001575Y013653D01*
X001626Y013653D01*
X001651Y013628D01*
X001626Y013603D01*
X001550Y013603D01*
X001503Y013628D02*
X001478Y013653D01*
X001428Y013653D01*
X001403Y013678D01*
X001403Y013603D02*
X001478Y013603D01*
X001503Y013628D01*
X001550Y013678D02*
X001575Y013703D01*
X001651Y013703D01*
X001845Y013703D02*
X001895Y013603D01*
X001945Y013703D01*
X001992Y013678D02*
X001992Y013628D01*
X002017Y013603D01*
X002067Y013603D01*
X002093Y013653D02*
X001992Y013653D01*
X001992Y013678D02*
X002017Y013703D01*
X002067Y013703D01*
X002093Y013678D01*
X002093Y013653D01*
X002140Y013603D02*
X002240Y013703D01*
X002287Y013703D02*
X002337Y013703D01*
X002312Y013728D02*
X002312Y013628D01*
X002337Y013603D01*
X002385Y013578D02*
X002485Y013578D01*
X002533Y013603D02*
X002633Y013603D01*
X002583Y013603D02*
X002583Y013753D01*
X002533Y013703D01*
X002827Y013703D02*
X002877Y013703D01*
X002852Y013728D02*
X002852Y013628D01*
X002877Y013603D01*
X002925Y013628D02*
X002925Y013678D01*
X002951Y013703D01*
X003001Y013703D01*
X003026Y013678D01*
X003026Y013628D01*
X003001Y013603D01*
X002951Y013603D01*
X002925Y013628D01*
X003220Y013703D02*
X003270Y013603D01*
X003320Y013703D01*
X003367Y013678D02*
X003367Y013628D01*
X003392Y013603D01*
X003443Y013603D01*
X003468Y013653D02*
X003367Y013653D01*
X003367Y013678D02*
X003392Y013703D01*
X003443Y013703D01*
X003468Y013678D01*
X003468Y013653D01*
X003515Y013603D02*
X003615Y013703D01*
X003662Y013703D02*
X003712Y013703D01*
X003687Y013728D02*
X003687Y013628D01*
X003712Y013603D01*
X003760Y013578D02*
X003860Y013578D01*
X003908Y013603D02*
X004008Y013703D01*
X004008Y013728D01*
X003983Y013753D01*
X003933Y013753D01*
X003908Y013728D01*
X003908Y013603D02*
X004008Y013603D01*
X003615Y013603D02*
X003515Y013703D01*
X002240Y013603D02*
X002140Y013703D01*
X001209Y013678D02*
X001209Y013628D01*
X001184Y013603D01*
X001108Y013603D01*
X001108Y013553D02*
X001108Y013703D01*
X001184Y013703D01*
X001209Y013678D01*
X000914Y013678D02*
X000914Y013628D01*
X000889Y013603D01*
X000839Y013603D01*
X000814Y013628D01*
X000814Y013678D01*
X000839Y013703D01*
X000889Y013703D01*
X000914Y013678D01*
X000766Y013703D02*
X000716Y013703D01*
X000741Y013728D02*
X000741Y013628D01*
X000766Y013603D01*
X000520Y013603D02*
X000495Y013628D01*
X000495Y013728D01*
X000470Y013703D02*
X000520Y013703D01*
X000422Y013703D02*
X000397Y013703D01*
X000347Y013653D01*
X000347Y013603D02*
X000347Y013703D01*
X000300Y013678D02*
X000300Y013628D01*
X000275Y013603D01*
X000225Y013603D01*
X000200Y013628D01*
X000200Y013678D01*
X000225Y013703D01*
X000275Y013703D01*
X000300Y013678D01*
X000153Y013678D02*
X000153Y013603D01*
X000153Y013678D02*
X000128Y013703D01*
X000078Y013703D01*
X000053Y013678D01*
X000005Y013703D02*
X-000070Y013703D01*
X-000095Y013678D01*
X-000070Y013653D01*
X-000020Y013653D01*
X000005Y013628D01*
X-000020Y013603D01*
X-000095Y013603D01*
X000053Y013603D02*
X000053Y013753D01*
M02*
