%
M48
M72
T01C0.0240
T02C0.0400
T03C0.0433
T04C0.0890
%
T01
X5292Y3885
X4792Y9885
X3292Y10885
X2292Y11385
X4792Y14885
X6792Y15385
X7792Y16385
X5292Y18885
X3292Y17885
X2792Y17885
X2792Y18885
X9292Y19885
X13792Y19885
X9792Y12385
X9792Y11385
X11792Y11385
T02
X11841Y10576
X10845Y10578
X10845Y9578
X10845Y8578
X10845Y7578
X10845Y6578
X10845Y5578
X10845Y4578
X10841Y3576
X11841Y3576
X12841Y3576
X12841Y4576
X12841Y5576
X12841Y6576
X12841Y7576
X12841Y8576
X12841Y9576
X12841Y10576
X12841Y11576
X12841Y12576
X12841Y13576
X12841Y14576
X13836Y14291
X13836Y15291
X13836Y16291
X13836Y17291
X13836Y18291
X15032Y19697
X16032Y19697
X12122Y19760
X11122Y19760
X10122Y19760
X10836Y18291
X10836Y17291
X10836Y16291
X10836Y15291
X10836Y14291
X10836Y13291
X10836Y12291
X8809Y12324
X8809Y13324
X8809Y14324
X8809Y15324
X8809Y16324
X8809Y17324
X8809Y18324
X8266Y19601
X7266Y19601
X5809Y18324
X5809Y17324
X5809Y16324
X5809Y15324
X5809Y14324
X5809Y13324
X5809Y12324
X6841Y12576
X6841Y13576
X6841Y14576
X6841Y11576
X6841Y10576
X6841Y9576
X6841Y8576
X6841Y7576
X6841Y6576
X6841Y5576
X6841Y4576
X6841Y3576
X7841Y3576
X8815Y4577
X8815Y5577
X8815Y6577
X8815Y7577
X8815Y8577
X8815Y9577
X8815Y10577
X7841Y10576
X5815Y10577
X5815Y9577
X5815Y8577
X5815Y7577
X5815Y6577
X5815Y5577
X5815Y4577
X8841Y3576
X9841Y3576
X13845Y4578
X13845Y5578
X13845Y6578
X13845Y7578
X13845Y8578
X13845Y9578
X13845Y10578
X13836Y12291
X13836Y13291
X15135Y3251
X16135Y3251
X4485Y19791
X3485Y19791
T03
X4015Y17252
X4015Y16252
X4015Y15252
X4015Y14252
X4015Y13252
X4015Y12252
X2015Y12252
X2015Y13252
X2015Y14252
X2015Y15252
X2015Y16252
X2015Y17252
X2008Y9524
X2008Y8524
X2008Y7524
X2008Y6524
X2008Y5524
X2008Y4524
X4008Y4524
X4008Y5524
X4008Y6524
X4008Y7524
X4008Y8524
X4008Y9524
X15604Y9662
X15604Y10662
X17604Y10662
X17604Y9662
X17604Y8662
X17604Y7662
X17604Y6662
X17604Y5662
X15604Y5662
X15604Y6662
X15604Y7662
X15604Y8662
X15568Y13576
X15568Y14576
X15568Y15576
X15568Y16576
X15568Y17576
X15568Y18576
X17568Y18576
X17568Y17576
X17568Y16576
X17568Y15576
X17568Y14576
X17568Y13576
T04
X1209Y3460
X1208Y19708
X18212Y3464
X18461Y19712
M30
