G75*
G70*
%OFA0B0*%
%FSLAX24Y24*%
%IPPOS*%
%LPD*%
%AMOC8*
5,1,8,0,0,1.08239X$1,22.5*
%
%ADD10C,0.0020*%
%ADD11C,0.0050*%
%ADD12C,0.0100*%
%ADD13C,0.0040*%
%ADD14C,0.0080*%
%ADD15R,0.4200X0.0300*%
%ADD16R,0.0750X0.0200*%
%ADD17R,0.0300X0.0200*%
D10*
X003446Y003121D02*
X003593Y003267D01*
X003593Y003304D01*
X003556Y003341D01*
X003483Y003341D01*
X003446Y003304D01*
X003446Y003121D02*
X003593Y003121D01*
X003667Y003231D02*
X003814Y003231D01*
X003888Y003267D02*
X003961Y003341D01*
X003961Y003121D01*
X003888Y003121D02*
X004035Y003121D01*
X004109Y003121D02*
X004256Y003121D01*
X004182Y003121D02*
X004182Y003341D01*
X004109Y003267D01*
X003838Y003568D02*
X003838Y003789D01*
X003948Y003789D01*
X003985Y003752D01*
X003985Y003678D01*
X003948Y003642D01*
X003838Y003642D01*
X003764Y003642D02*
X003764Y003752D01*
X003727Y003789D01*
X003617Y003789D01*
X003617Y003642D01*
X003543Y003642D02*
X003470Y003642D01*
X003506Y003642D02*
X003506Y003789D01*
X003470Y003789D01*
X003506Y003862D02*
X003506Y003899D01*
X004059Y003789D02*
X004059Y003678D01*
X004096Y003642D01*
X004206Y003642D01*
X004206Y003789D01*
X004280Y003789D02*
X004353Y003789D01*
X004317Y003825D02*
X004317Y003678D01*
X004353Y003642D01*
X004427Y003642D02*
X004427Y003678D01*
X004464Y003678D01*
X004464Y003642D01*
X004427Y003642D01*
X004427Y003752D02*
X004427Y003789D01*
X004464Y003789D01*
X004464Y003752D01*
X004427Y003752D01*
X004477Y003341D02*
X004477Y003194D01*
X004403Y003121D01*
X004330Y003194D01*
X004330Y003341D01*
X006486Y004256D02*
X006596Y004256D01*
X006633Y004292D01*
X006633Y004439D01*
X006596Y004476D01*
X006486Y004476D01*
X006486Y004256D01*
X006707Y004256D02*
X006707Y004476D01*
X006817Y004476D01*
X006854Y004439D01*
X006854Y004366D01*
X006817Y004329D01*
X006707Y004329D01*
X006780Y004329D02*
X006854Y004256D01*
X006928Y004329D02*
X006928Y004476D01*
X007075Y004476D02*
X007075Y004329D01*
X007001Y004256D01*
X006928Y004329D01*
X007149Y004329D02*
X007186Y004366D01*
X007259Y004366D01*
X007296Y004329D01*
X007296Y004292D01*
X007259Y004256D01*
X007186Y004256D01*
X007149Y004292D01*
X007149Y004329D01*
X007186Y004366D02*
X007149Y004402D01*
X007149Y004439D01*
X007186Y004476D01*
X007259Y004476D01*
X007296Y004439D01*
X007296Y004402D01*
X007259Y004366D01*
X007370Y004402D02*
X007370Y004439D01*
X007407Y004476D01*
X007480Y004476D01*
X007517Y004439D01*
X007517Y004402D01*
X007480Y004366D01*
X007407Y004366D01*
X007370Y004402D01*
X007407Y004366D02*
X007370Y004329D01*
X007370Y004292D01*
X007407Y004256D01*
X007480Y004256D01*
X007517Y004292D01*
X007517Y004329D01*
X007480Y004366D01*
X007591Y004439D02*
X007628Y004476D01*
X007701Y004476D01*
X007738Y004439D01*
X007738Y004402D01*
X007701Y004366D01*
X007738Y004329D01*
X007738Y004292D01*
X007701Y004256D01*
X007628Y004256D01*
X007591Y004292D01*
X007664Y004366D02*
X007701Y004366D01*
X007812Y004366D02*
X007885Y004402D01*
X007922Y004402D01*
X007959Y004366D01*
X007959Y004292D01*
X007922Y004256D01*
X007849Y004256D01*
X007812Y004292D01*
X007812Y004366D02*
X007812Y004476D01*
X007959Y004476D01*
X013532Y003388D02*
X013532Y003168D01*
X013532Y003241D02*
X013642Y003241D01*
X013678Y003278D01*
X013678Y003351D01*
X013642Y003388D01*
X013532Y003388D01*
X013605Y003102D02*
X013568Y003065D01*
X013568Y002881D01*
X013679Y002881D02*
X013679Y003028D01*
X013679Y002955D02*
X013752Y003028D01*
X013789Y003028D01*
X013863Y002991D02*
X013863Y002918D01*
X013900Y002881D01*
X013973Y002881D01*
X014010Y002918D01*
X014010Y002991D01*
X013973Y003028D01*
X013900Y003028D01*
X013863Y002991D01*
X014084Y003028D02*
X014084Y002881D01*
X014157Y002881D02*
X014157Y002991D01*
X014194Y003028D01*
X014231Y002991D01*
X014231Y002881D01*
X014157Y002991D02*
X014121Y003028D01*
X014084Y003028D01*
X014084Y003241D02*
X014120Y003278D01*
X014120Y003388D01*
X014195Y003351D02*
X014231Y003388D01*
X014305Y003388D01*
X014341Y003351D01*
X014341Y003315D01*
X014195Y003315D01*
X014195Y003351D02*
X014195Y003278D01*
X014231Y003241D01*
X014305Y003241D01*
X014416Y003241D02*
X014416Y003388D01*
X014489Y003388D02*
X014526Y003388D01*
X014489Y003388D02*
X014416Y003315D01*
X014526Y003102D02*
X014599Y003028D01*
X014673Y003102D01*
X014673Y002881D01*
X014747Y002918D02*
X014894Y003065D01*
X014894Y002918D01*
X014857Y002881D01*
X014784Y002881D01*
X014747Y002918D01*
X014747Y003065D01*
X014784Y003102D01*
X014857Y003102D01*
X014894Y003065D01*
X014526Y003102D02*
X014526Y002881D01*
X014084Y003241D02*
X014047Y003278D01*
X014010Y003241D01*
X013974Y003278D01*
X013974Y003388D01*
X013899Y003351D02*
X013863Y003388D01*
X013789Y003388D01*
X013753Y003351D01*
X013753Y003278D01*
X013789Y003241D01*
X013863Y003241D01*
X013899Y003278D01*
X013899Y003351D01*
X013605Y002991D02*
X013532Y002991D01*
X018874Y005745D02*
X018947Y005672D01*
X019094Y005672D01*
X018984Y005672D02*
X018984Y005819D01*
X018947Y005819D02*
X019094Y005819D01*
X019094Y005893D02*
X019094Y006040D01*
X019094Y005966D02*
X018874Y005966D01*
X018947Y005893D01*
X018947Y005819D02*
X018874Y005745D01*
X018947Y006672D02*
X018874Y006745D01*
X018947Y006819D01*
X019094Y006819D01*
X019094Y006893D02*
X018947Y007040D01*
X018910Y007040D01*
X018874Y007003D01*
X018874Y006929D01*
X018910Y006893D01*
X018984Y006819D02*
X018984Y006672D01*
X018947Y006672D02*
X019094Y006672D01*
X019094Y006893D02*
X019094Y007040D01*
X019094Y007672D02*
X018874Y007672D01*
X018874Y007782D01*
X018910Y007819D01*
X018947Y007819D01*
X018984Y007782D01*
X018984Y007672D01*
X018984Y007782D02*
X019021Y007819D01*
X019057Y007819D01*
X019094Y007782D01*
X019094Y007672D01*
X019094Y007893D02*
X019094Y008040D01*
X019094Y007966D02*
X018874Y007966D01*
X018947Y007893D01*
X018984Y008672D02*
X018984Y008782D01*
X019021Y008819D01*
X019057Y008819D01*
X019094Y008782D01*
X019094Y008672D01*
X018874Y008672D01*
X018874Y008782D01*
X018910Y008819D01*
X018947Y008819D01*
X018984Y008782D01*
X018910Y008893D02*
X018874Y008929D01*
X018874Y009003D01*
X018910Y009040D01*
X018947Y009040D01*
X019094Y008893D01*
X019094Y009040D01*
X019021Y009172D02*
X019094Y009245D01*
X019021Y009319D01*
X018874Y009319D01*
X018874Y009393D02*
X019094Y009393D01*
X019094Y009540D01*
X019094Y009614D02*
X018874Y009760D01*
X018874Y009835D02*
X018874Y009981D01*
X018874Y009908D02*
X019094Y009908D01*
X019094Y009760D02*
X018874Y009614D01*
X018874Y009540D02*
X018874Y009393D01*
X018984Y009393D02*
X018984Y009466D01*
X019021Y009172D02*
X018874Y009172D01*
X018910Y010172D02*
X019057Y010172D01*
X019094Y010208D01*
X019094Y010282D01*
X019057Y010319D01*
X018984Y010319D01*
X018984Y010245D01*
X018910Y010172D02*
X018874Y010208D01*
X018874Y010282D01*
X018910Y010319D01*
X018874Y010393D02*
X019094Y010540D01*
X018874Y010540D01*
X018874Y010614D02*
X018874Y010724D01*
X018910Y010760D01*
X019057Y010760D01*
X019094Y010724D01*
X019094Y010614D01*
X018874Y010614D01*
X018874Y010393D02*
X019094Y010393D01*
X019058Y013336D02*
X018911Y013336D01*
X018838Y013409D01*
X018911Y013482D01*
X019058Y013482D01*
X019058Y013557D02*
X019058Y013703D01*
X019058Y013630D02*
X018838Y013630D01*
X018911Y013557D01*
X018948Y013482D02*
X018948Y013336D01*
X018948Y014336D02*
X018948Y014482D01*
X018911Y014482D02*
X019058Y014482D01*
X019058Y014557D02*
X018911Y014703D01*
X018875Y014703D01*
X018838Y014667D01*
X018838Y014593D01*
X018875Y014557D01*
X018911Y014482D02*
X018838Y014409D01*
X018911Y014336D01*
X019058Y014336D01*
X019058Y014557D02*
X019058Y014703D01*
X019058Y015336D02*
X018838Y015336D01*
X018838Y015446D01*
X018875Y015482D01*
X018911Y015482D01*
X018948Y015446D01*
X018948Y015336D01*
X018948Y015446D02*
X018985Y015482D01*
X019022Y015482D01*
X019058Y015446D01*
X019058Y015336D01*
X019058Y015557D02*
X019058Y015703D01*
X019058Y015630D02*
X018838Y015630D01*
X018911Y015557D01*
X018948Y016336D02*
X018948Y016446D01*
X018985Y016482D01*
X019022Y016482D01*
X019058Y016446D01*
X019058Y016336D01*
X018838Y016336D01*
X018838Y016446D01*
X018875Y016482D01*
X018911Y016482D01*
X018948Y016446D01*
X018875Y016557D02*
X018838Y016593D01*
X018838Y016667D01*
X018875Y016703D01*
X018911Y016703D01*
X019058Y016557D01*
X019058Y016703D01*
X018985Y017086D02*
X019058Y017159D01*
X018985Y017232D01*
X018838Y017232D01*
X018838Y017307D02*
X019058Y017307D01*
X019058Y017453D01*
X019058Y017528D02*
X018838Y017674D01*
X018838Y017749D02*
X018838Y017895D01*
X018838Y017822D02*
X019058Y017822D01*
X019058Y017674D02*
X018838Y017528D01*
X018838Y017453D02*
X018838Y017307D01*
X018948Y017307D02*
X018948Y017380D01*
X018985Y017086D02*
X018838Y017086D01*
X018875Y018086D02*
X019022Y018086D01*
X019058Y018122D01*
X019058Y018196D01*
X019022Y018232D01*
X018948Y018232D01*
X018948Y018159D01*
X018875Y018232D02*
X018838Y018196D01*
X018838Y018122D01*
X018875Y018086D01*
X018838Y018307D02*
X019058Y018453D01*
X018838Y018453D01*
X018838Y018528D02*
X018838Y018638D01*
X018875Y018674D01*
X019022Y018674D01*
X019058Y018638D01*
X019058Y018528D01*
X018838Y018528D01*
X018838Y018307D02*
X019058Y018307D01*
X014701Y019514D02*
X014664Y019477D01*
X014590Y019477D01*
X014554Y019514D01*
X014701Y019661D01*
X014701Y019514D01*
X014701Y019661D02*
X014664Y019697D01*
X014590Y019697D01*
X014554Y019661D01*
X014554Y019514D01*
X014480Y019477D02*
X014480Y019697D01*
X014406Y019624D01*
X014333Y019697D01*
X014333Y019477D01*
X014038Y019477D02*
X014038Y019587D01*
X014001Y019624D01*
X013964Y019587D01*
X013964Y019477D01*
X013891Y019477D02*
X013891Y019624D01*
X013927Y019624D01*
X013964Y019587D01*
X013817Y019587D02*
X013817Y019514D01*
X013780Y019477D01*
X013706Y019477D01*
X013670Y019514D01*
X013670Y019587D01*
X013706Y019624D01*
X013780Y019624D01*
X013817Y019587D01*
X013596Y019624D02*
X013559Y019624D01*
X013486Y019550D01*
X013486Y019477D02*
X013486Y019624D01*
X013412Y019587D02*
X013338Y019587D01*
X013375Y019661D02*
X013412Y019697D01*
X013375Y019661D02*
X013375Y019477D01*
X013338Y019764D02*
X013338Y019984D01*
X013448Y019984D01*
X013485Y019947D01*
X013485Y019874D01*
X013448Y019837D01*
X013338Y019837D01*
X013559Y019874D02*
X013596Y019837D01*
X013669Y019837D01*
X013706Y019874D01*
X013706Y019947D01*
X013669Y019984D01*
X013596Y019984D01*
X013559Y019947D01*
X013559Y019874D01*
X013780Y019874D02*
X013817Y019837D01*
X013854Y019874D01*
X013890Y019837D01*
X013927Y019874D01*
X013927Y019984D01*
X014001Y019947D02*
X014038Y019984D01*
X014111Y019984D01*
X014148Y019947D01*
X014148Y019910D01*
X014001Y019910D01*
X014001Y019874D02*
X014001Y019947D01*
X014001Y019874D02*
X014038Y019837D01*
X014111Y019837D01*
X014222Y019837D02*
X014222Y019984D01*
X014222Y019910D02*
X014296Y019984D01*
X014332Y019984D01*
X013780Y019984D02*
X013780Y019874D01*
X012924Y019845D02*
X012924Y019992D01*
X012924Y019919D02*
X012704Y019919D01*
X012777Y019845D01*
X012741Y019771D02*
X012704Y019734D01*
X012704Y019661D01*
X012741Y019624D01*
X012887Y019624D01*
X012924Y019661D01*
X012924Y019734D01*
X012887Y019771D01*
X012924Y019550D02*
X012924Y019477D01*
X012924Y019514D02*
X012704Y019514D01*
X012704Y019550D02*
X012704Y019477D01*
X012632Y018613D02*
X012669Y018576D01*
X012669Y018540D01*
X012632Y018503D01*
X012559Y018503D01*
X012522Y018540D01*
X012522Y018576D01*
X012559Y018613D01*
X012632Y018613D01*
X012632Y018503D02*
X012669Y018466D01*
X012669Y018429D01*
X012632Y018393D01*
X012559Y018393D01*
X012522Y018429D01*
X012522Y018466D01*
X012559Y018503D01*
X012448Y018540D02*
X012411Y018503D01*
X012338Y018503D01*
X012301Y018540D01*
X012301Y018576D01*
X012338Y018613D01*
X012411Y018613D01*
X012448Y018576D01*
X012448Y018540D01*
X012411Y018503D02*
X012448Y018466D01*
X012448Y018429D01*
X012411Y018393D01*
X012338Y018393D01*
X012301Y018429D01*
X012301Y018466D01*
X012338Y018503D01*
X012227Y018466D02*
X012227Y018613D01*
X012227Y018466D02*
X012153Y018393D01*
X012080Y018466D01*
X012080Y018613D01*
X012006Y018576D02*
X012006Y018503D01*
X011969Y018466D01*
X011859Y018466D01*
X011859Y018393D02*
X011859Y018613D01*
X011969Y018613D01*
X012006Y018576D01*
X011932Y018466D02*
X012006Y018393D01*
X011785Y018429D02*
X011785Y018576D01*
X011748Y018613D01*
X011638Y018613D01*
X011638Y018393D01*
X011748Y018393D01*
X011785Y018429D01*
X012743Y018429D02*
X012780Y018393D01*
X012853Y018393D01*
X012890Y018429D01*
X012890Y018466D01*
X012853Y018503D01*
X012816Y018503D01*
X012853Y018503D02*
X012890Y018540D01*
X012890Y018576D01*
X012853Y018613D01*
X012780Y018613D01*
X012743Y018576D01*
X012964Y018613D02*
X012964Y018503D01*
X013037Y018540D01*
X013074Y018540D01*
X013111Y018503D01*
X013111Y018429D01*
X013074Y018393D01*
X013001Y018393D01*
X012964Y018429D01*
X012964Y018613D02*
X013111Y018613D01*
X008860Y020402D02*
X008860Y020438D01*
X008860Y020402D02*
X008786Y020328D01*
X008786Y020218D01*
X008786Y020328D02*
X008713Y020402D01*
X008713Y020438D01*
X008639Y020402D02*
X008602Y020438D01*
X008529Y020438D01*
X008492Y020402D01*
X008492Y020365D01*
X008529Y020328D01*
X008602Y020328D01*
X008639Y020292D01*
X008639Y020255D01*
X008602Y020218D01*
X008529Y020218D01*
X008492Y020255D01*
X008418Y020218D02*
X008418Y020438D01*
X008271Y020438D02*
X008418Y020218D01*
X008271Y020218D02*
X008271Y020438D01*
X008197Y020438D02*
X008050Y020438D01*
X008050Y020218D01*
X008197Y020218D01*
X008123Y020328D02*
X008050Y020328D01*
X007976Y020218D02*
X007829Y020218D01*
X007829Y020438D01*
X007976Y020438D01*
X007902Y020328D02*
X007829Y020328D01*
X007755Y020438D02*
X007608Y020438D01*
X007681Y020438D02*
X007681Y020218D01*
X007534Y020328D02*
X007387Y020328D01*
X007313Y020328D02*
X007276Y020292D01*
X007166Y020292D01*
X007239Y020292D02*
X007313Y020218D01*
X007313Y020328D02*
X007313Y020402D01*
X007276Y020438D01*
X007166Y020438D01*
X007166Y020218D01*
X007092Y020218D02*
X007092Y020438D01*
X006945Y020438D02*
X006945Y020218D01*
X007018Y020292D01*
X007092Y020218D01*
X006871Y020328D02*
X006834Y020292D01*
X006724Y020292D01*
X006724Y020218D02*
X006724Y020438D01*
X006834Y020438D01*
X006871Y020402D01*
X006871Y020328D01*
X006484Y019777D02*
X006520Y019740D01*
X006374Y019593D01*
X006410Y019557D01*
X006484Y019557D01*
X006520Y019593D01*
X006520Y019740D01*
X006484Y019777D02*
X006410Y019777D01*
X006374Y019740D01*
X006374Y019593D01*
X006299Y019557D02*
X006299Y019777D01*
X006226Y019703D01*
X006153Y019777D01*
X006153Y019557D01*
X005857Y019557D02*
X005857Y019667D01*
X005821Y019703D01*
X005784Y019667D01*
X005784Y019557D01*
X005711Y019557D02*
X005711Y019703D01*
X005747Y019703D01*
X005784Y019667D01*
X005636Y019667D02*
X005600Y019703D01*
X005526Y019703D01*
X005490Y019667D01*
X005490Y019593D01*
X005526Y019557D01*
X005600Y019557D01*
X005636Y019593D01*
X005636Y019667D01*
X005416Y019703D02*
X005379Y019703D01*
X005306Y019630D01*
X005306Y019557D02*
X005306Y019703D01*
X005232Y019667D02*
X005158Y019667D01*
X005195Y019740D02*
X005232Y019777D01*
X005195Y019740D02*
X005195Y019557D01*
X005158Y019843D02*
X005158Y020063D01*
X005268Y020063D01*
X005305Y020027D01*
X005305Y019953D01*
X005268Y019917D01*
X005158Y019917D01*
X005379Y019953D02*
X005379Y020027D01*
X005416Y020063D01*
X005489Y020063D01*
X005526Y020027D01*
X005526Y019953D01*
X005489Y019917D01*
X005416Y019917D01*
X005379Y019953D01*
X005600Y019953D02*
X005600Y020063D01*
X005600Y019953D02*
X005637Y019917D01*
X005674Y019953D01*
X005710Y019917D01*
X005747Y019953D01*
X005747Y020063D01*
X005821Y020027D02*
X005858Y020063D01*
X005931Y020063D01*
X005968Y020027D01*
X005968Y019990D01*
X005821Y019990D01*
X005821Y019953D02*
X005821Y020027D01*
X005821Y019953D02*
X005858Y019917D01*
X005931Y019917D01*
X006042Y019917D02*
X006042Y020063D01*
X006042Y019990D02*
X006116Y020063D01*
X006152Y020063D01*
X000745Y017437D02*
X000745Y017291D01*
X000745Y017364D02*
X000525Y017364D01*
X000599Y017291D01*
X000599Y017216D02*
X000525Y017143D01*
X000599Y017070D01*
X000745Y017070D01*
X000635Y017070D02*
X000635Y017216D01*
X000599Y017216D02*
X000745Y017216D01*
X000745Y016437D02*
X000745Y016291D01*
X000599Y016437D01*
X000562Y016437D01*
X000525Y016401D01*
X000525Y016327D01*
X000562Y016291D01*
X000599Y016216D02*
X000525Y016143D01*
X000599Y016070D01*
X000745Y016070D01*
X000635Y016070D02*
X000635Y016216D01*
X000599Y016216D02*
X000745Y016216D01*
X000745Y015437D02*
X000745Y015291D01*
X000745Y015364D02*
X000525Y015364D01*
X000599Y015291D01*
X000599Y015216D02*
X000635Y015180D01*
X000635Y015070D01*
X000635Y015180D02*
X000672Y015216D01*
X000709Y015216D01*
X000745Y015180D01*
X000745Y015070D01*
X000525Y015070D01*
X000525Y015180D01*
X000562Y015216D01*
X000599Y015216D01*
X000599Y014437D02*
X000562Y014437D01*
X000525Y014401D01*
X000525Y014327D01*
X000562Y014291D01*
X000562Y014216D02*
X000599Y014216D01*
X000635Y014180D01*
X000635Y014070D01*
X000635Y014180D02*
X000672Y014216D01*
X000709Y014216D01*
X000745Y014180D01*
X000745Y014070D01*
X000525Y014070D01*
X000525Y014180D01*
X000562Y014216D01*
X000745Y014291D02*
X000599Y014437D01*
X000745Y014437D02*
X000745Y014291D01*
X000525Y013687D02*
X000525Y013541D01*
X000525Y013614D02*
X000745Y013614D01*
X000745Y013466D02*
X000525Y013320D01*
X000525Y013245D02*
X000525Y013099D01*
X000745Y013099D01*
X000745Y013245D01*
X000745Y013320D02*
X000525Y013466D01*
X000635Y013172D02*
X000635Y013099D01*
X000672Y013024D02*
X000525Y013024D01*
X000525Y012878D02*
X000672Y012878D01*
X000745Y012951D01*
X000672Y013024D01*
X000709Y012687D02*
X000562Y012687D01*
X000525Y012651D01*
X000525Y012541D01*
X000745Y012541D01*
X000745Y012651D01*
X000709Y012687D01*
X000745Y012466D02*
X000525Y012466D01*
X000525Y012320D02*
X000745Y012466D01*
X000745Y012320D02*
X000525Y012320D01*
X000562Y012245D02*
X000525Y012209D01*
X000525Y012135D01*
X000562Y012099D01*
X000709Y012099D01*
X000745Y012135D01*
X000745Y012209D01*
X000709Y012245D01*
X000635Y012245D01*
X000635Y012172D01*
X000695Y009709D02*
X000695Y009562D01*
X000695Y009488D02*
X000548Y009488D01*
X000474Y009415D01*
X000548Y009341D01*
X000695Y009341D01*
X000585Y009341D02*
X000585Y009488D01*
X000548Y009562D02*
X000474Y009636D01*
X000695Y009636D01*
X000701Y008608D02*
X000701Y008461D01*
X000555Y008608D01*
X000518Y008608D01*
X000481Y008571D01*
X000481Y008498D01*
X000518Y008461D01*
X000555Y008387D02*
X000701Y008387D01*
X000591Y008387D02*
X000591Y008240D01*
X000555Y008240D02*
X000701Y008240D01*
X000555Y008240D02*
X000481Y008314D01*
X000555Y008387D01*
X000708Y007619D02*
X000708Y007472D01*
X000708Y007545D02*
X000488Y007545D01*
X000562Y007472D01*
X000562Y007398D02*
X000598Y007361D01*
X000598Y007251D01*
X000708Y007251D02*
X000488Y007251D01*
X000488Y007361D01*
X000525Y007398D01*
X000562Y007398D01*
X000598Y007361D02*
X000635Y007398D01*
X000672Y007398D01*
X000708Y007361D01*
X000708Y007251D01*
X000716Y006644D02*
X000716Y006498D01*
X000569Y006644D01*
X000533Y006644D01*
X000496Y006608D01*
X000496Y006534D01*
X000533Y006498D01*
X000533Y006423D02*
X000569Y006423D01*
X000606Y006387D01*
X000606Y006277D01*
X000606Y006387D02*
X000643Y006423D01*
X000680Y006423D01*
X000716Y006387D01*
X000716Y006277D01*
X000496Y006277D01*
X000496Y006387D01*
X000533Y006423D01*
X000484Y005803D02*
X000484Y005656D01*
X000484Y005729D02*
X000704Y005729D01*
X000704Y005582D02*
X000484Y005435D01*
X000484Y005361D02*
X000484Y005214D01*
X000704Y005214D01*
X000704Y005361D01*
X000704Y005435D02*
X000484Y005582D01*
X000594Y005287D02*
X000594Y005214D01*
X000630Y005140D02*
X000484Y005140D01*
X000630Y005140D02*
X000704Y005066D01*
X000630Y004993D01*
X000484Y004993D01*
X000527Y004710D02*
X000491Y004673D01*
X000491Y004563D01*
X000711Y004563D01*
X000711Y004673D01*
X000674Y004710D01*
X000527Y004710D01*
X000491Y004489D02*
X000711Y004489D01*
X000491Y004342D01*
X000711Y004342D01*
X000674Y004268D02*
X000601Y004268D01*
X000601Y004195D01*
X000674Y004268D02*
X000711Y004231D01*
X000711Y004158D01*
X000674Y004121D01*
X000527Y004121D01*
X000491Y004158D01*
X000491Y004231D01*
X000527Y004268D01*
X006480Y012003D02*
X006591Y012003D01*
X006627Y012039D01*
X006627Y012186D01*
X006591Y012223D01*
X006480Y012223D01*
X006480Y012003D01*
X006701Y012003D02*
X006701Y012223D01*
X006812Y012223D01*
X006848Y012186D01*
X006848Y012113D01*
X006812Y012076D01*
X006701Y012076D01*
X006775Y012076D02*
X006848Y012003D01*
X006922Y012076D02*
X006922Y012223D01*
X006922Y012076D02*
X006996Y012003D01*
X007069Y012076D01*
X007069Y012223D01*
X007143Y012186D02*
X007143Y012150D01*
X007180Y012113D01*
X007254Y012113D01*
X007290Y012076D01*
X007290Y012039D01*
X007254Y012003D01*
X007180Y012003D01*
X007143Y012039D01*
X007143Y012076D01*
X007180Y012113D01*
X007254Y012113D02*
X007290Y012150D01*
X007290Y012186D01*
X007254Y012223D01*
X007180Y012223D01*
X007143Y012186D01*
X007364Y012186D02*
X007364Y012150D01*
X007401Y012113D01*
X007475Y012113D01*
X007511Y012076D01*
X007511Y012039D01*
X007475Y012003D01*
X007401Y012003D01*
X007364Y012039D01*
X007364Y012076D01*
X007401Y012113D01*
X007475Y012113D02*
X007511Y012150D01*
X007511Y012186D01*
X007475Y012223D01*
X007401Y012223D01*
X007364Y012186D01*
X007585Y012186D02*
X007622Y012223D01*
X007696Y012223D01*
X007732Y012186D01*
X007732Y012150D01*
X007696Y012113D01*
X007732Y012076D01*
X007732Y012039D01*
X007696Y012003D01*
X007622Y012003D01*
X007585Y012039D01*
X007659Y012113D02*
X007696Y012113D01*
X007806Y012113D02*
X007880Y012150D01*
X007917Y012150D01*
X007953Y012113D01*
X007953Y012039D01*
X007917Y012003D01*
X007843Y012003D01*
X007806Y012039D01*
X007806Y012113D02*
X007806Y012223D01*
X007953Y012223D01*
X011647Y010899D02*
X011647Y010679D01*
X011757Y010679D01*
X011793Y010716D01*
X011793Y010863D01*
X011757Y010899D01*
X011647Y010899D01*
X011868Y010899D02*
X011868Y010679D01*
X011868Y010753D02*
X011978Y010753D01*
X012014Y010789D01*
X012014Y010863D01*
X011978Y010899D01*
X011868Y010899D01*
X011941Y010753D02*
X012014Y010679D01*
X012089Y010753D02*
X012162Y010679D01*
X012235Y010753D01*
X012235Y010899D01*
X012310Y010863D02*
X012310Y010826D01*
X012346Y010789D01*
X012420Y010789D01*
X012456Y010753D01*
X012456Y010716D01*
X012420Y010679D01*
X012346Y010679D01*
X012310Y010716D01*
X012310Y010753D01*
X012346Y010789D01*
X012420Y010789D02*
X012456Y010826D01*
X012456Y010863D01*
X012420Y010899D01*
X012346Y010899D01*
X012310Y010863D01*
X012531Y010863D02*
X012531Y010826D01*
X012567Y010789D01*
X012641Y010789D01*
X012677Y010753D01*
X012677Y010716D01*
X012641Y010679D01*
X012567Y010679D01*
X012531Y010716D01*
X012531Y010753D01*
X012567Y010789D01*
X012641Y010789D02*
X012677Y010826D01*
X012677Y010863D01*
X012641Y010899D01*
X012567Y010899D01*
X012531Y010863D01*
X012751Y010863D02*
X012788Y010899D01*
X012862Y010899D01*
X012898Y010863D01*
X012898Y010826D01*
X012862Y010789D01*
X012898Y010753D01*
X012898Y010716D01*
X012862Y010679D01*
X012788Y010679D01*
X012751Y010716D01*
X012825Y010789D02*
X012862Y010789D01*
X012972Y010789D02*
X012972Y010899D01*
X013119Y010899D01*
X013083Y010826D02*
X013119Y010789D01*
X013119Y010716D01*
X013083Y010679D01*
X013009Y010679D01*
X012972Y010716D01*
X012972Y010789D02*
X013046Y010826D01*
X013083Y010826D01*
X012089Y010899D02*
X012089Y010753D01*
D11*
X012345Y010328D02*
X012595Y010328D01*
X012595Y009828D01*
X012595Y009328D01*
X012345Y009328D01*
X012345Y009578D01*
X012095Y009578D01*
X012345Y009578D02*
X012345Y010078D01*
X012095Y010078D01*
X012345Y010078D02*
X012345Y010328D01*
X012595Y009828D02*
X012845Y009828D01*
X011845Y009828D02*
X011845Y009578D01*
X011595Y009578D01*
X011595Y009828D01*
X011845Y009828D01*
X010345Y011078D02*
X010345Y004078D01*
X014345Y004078D01*
X014345Y011078D01*
X010345Y011078D01*
X010336Y011791D02*
X010336Y018791D01*
X014336Y018791D01*
X014336Y011791D01*
X010336Y011791D01*
X009309Y011824D02*
X009309Y018824D01*
X005309Y018824D01*
X005309Y011824D01*
X009309Y011824D01*
X009315Y011077D02*
X009315Y004077D01*
X005315Y004077D01*
X005315Y011077D01*
X009315Y011077D01*
X007565Y010577D02*
X007565Y009577D01*
X007065Y009577D01*
X007065Y010577D01*
X007565Y010577D01*
X007564Y010343D02*
X007066Y010343D01*
X007066Y010363D01*
X007066Y009806D02*
X007557Y009806D01*
X007815Y008577D02*
X006815Y008577D01*
X006565Y008577D01*
X006815Y008577D02*
X006815Y007077D01*
X006565Y007077D01*
X006815Y007077D02*
X007815Y007077D01*
X008065Y007077D01*
X008065Y007327D02*
X007815Y007327D01*
X007815Y007077D01*
X007815Y007327D02*
X007815Y007577D01*
X008065Y007577D01*
X008065Y007827D02*
X007815Y007827D01*
X007815Y007577D01*
X007815Y007827D02*
X007815Y008077D01*
X008065Y008077D01*
X008065Y008327D02*
X007815Y008327D01*
X007815Y008077D01*
X007815Y008327D02*
X007815Y008577D01*
X008065Y008577D01*
X006815Y008327D02*
X006565Y008327D01*
X006565Y008077D02*
X006815Y008077D01*
X006815Y007827D02*
X006565Y007827D01*
X006565Y007577D02*
X006815Y007577D01*
X006815Y007327D02*
X006565Y007327D01*
X007065Y005827D02*
X007065Y005327D01*
X006815Y005327D01*
X007065Y005327D02*
X007065Y004827D01*
X007315Y004827D01*
X007315Y005077D01*
X007565Y005077D01*
X007315Y005077D02*
X007315Y005577D01*
X007315Y005827D01*
X007065Y005827D01*
X007315Y005577D02*
X007565Y005577D01*
X007815Y005577D02*
X007815Y005327D01*
X008065Y005327D01*
X008065Y005577D01*
X007815Y005577D01*
X011595Y006578D02*
X011845Y006578D01*
X011845Y006828D01*
X011595Y006828D01*
X011845Y006828D02*
X011845Y007078D01*
X011595Y007078D01*
X011845Y007078D02*
X011845Y007328D01*
X011595Y007328D01*
X011845Y007328D02*
X011845Y007578D01*
X011595Y007578D01*
X011845Y007578D02*
X011845Y007828D01*
X011595Y007828D01*
X011845Y007828D02*
X011845Y008078D01*
X011595Y008078D01*
X011845Y008078D02*
X012845Y008078D01*
X013095Y008078D01*
X013095Y007828D02*
X012845Y007828D01*
X012845Y008078D02*
X012845Y006578D01*
X013095Y006578D01*
X012845Y006578D02*
X011845Y006578D01*
X012095Y005578D02*
X012095Y004578D01*
X012595Y004578D01*
X012595Y005578D01*
X012095Y005578D01*
X012102Y005349D02*
X012594Y005349D01*
X012594Y004812D02*
X012096Y004812D01*
X012594Y004812D02*
X012594Y004792D01*
X012845Y006828D02*
X013095Y006828D01*
X013095Y007078D02*
X012845Y007078D01*
X012845Y007328D02*
X013095Y007328D01*
X013095Y007578D02*
X012845Y007578D01*
X012586Y012291D02*
X012086Y012291D01*
X012086Y013291D01*
X012586Y013291D01*
X012586Y012291D01*
X012585Y012506D02*
X012585Y012526D01*
X012087Y012526D01*
X012094Y013062D02*
X012585Y013062D01*
X012836Y014291D02*
X011836Y014291D01*
X011586Y014291D01*
X011836Y014291D02*
X011836Y014541D01*
X011586Y014541D01*
X011836Y014541D02*
X011836Y014791D01*
X011586Y014791D01*
X011836Y014791D02*
X011836Y015041D01*
X011586Y015041D01*
X011836Y015041D02*
X011836Y015291D01*
X011586Y015291D01*
X011836Y015291D02*
X011836Y015541D01*
X011586Y015541D01*
X011836Y015541D02*
X011836Y015791D01*
X011586Y015791D01*
X011836Y015791D02*
X012836Y015791D01*
X013086Y015791D01*
X013086Y015541D02*
X012836Y015541D01*
X012836Y015791D02*
X012836Y014291D01*
X013086Y014291D01*
X013086Y014541D02*
X012836Y014541D01*
X012836Y014791D02*
X013086Y014791D01*
X013086Y015041D02*
X012836Y015041D01*
X012836Y015291D02*
X013086Y015291D01*
X012586Y017041D02*
X012336Y017041D01*
X012336Y017291D01*
X012086Y017291D01*
X011836Y017291D02*
X011836Y017541D01*
X011586Y017541D01*
X011586Y017291D01*
X011836Y017291D01*
X012336Y017291D02*
X012336Y017791D01*
X012086Y017791D01*
X012336Y017791D02*
X012336Y018041D01*
X012586Y018041D01*
X012586Y017541D01*
X012586Y017041D01*
X012586Y017541D02*
X012836Y017541D01*
X012972Y019060D02*
X009272Y019060D01*
X009172Y019160D01*
X009122Y020310D01*
X009252Y019300D02*
X009254Y019320D01*
X009260Y019338D01*
X009269Y019356D01*
X009281Y019371D01*
X009296Y019383D01*
X009314Y019392D01*
X009332Y019398D01*
X009352Y019400D01*
X009372Y019398D01*
X009390Y019392D01*
X009408Y019383D01*
X009423Y019371D01*
X009435Y019356D01*
X009444Y019338D01*
X009450Y019320D01*
X009452Y019300D01*
X009450Y019280D01*
X009444Y019262D01*
X009435Y019244D01*
X009423Y019229D01*
X009408Y019217D01*
X009390Y019208D01*
X009372Y019202D01*
X009352Y019200D01*
X009332Y019202D01*
X009314Y019208D01*
X009296Y019217D01*
X009281Y019229D01*
X009269Y019244D01*
X009260Y019262D01*
X009254Y019280D01*
X009252Y019300D01*
X007559Y018324D02*
X007559Y017324D01*
X007059Y017324D01*
X007059Y018324D01*
X007559Y018324D01*
X007558Y018090D02*
X007060Y018090D01*
X007060Y018110D01*
X007060Y017553D02*
X007551Y017553D01*
X007809Y016324D02*
X006809Y016324D01*
X006559Y016324D01*
X006559Y016074D02*
X006809Y016074D01*
X006809Y015824D02*
X006559Y015824D01*
X006559Y015574D02*
X006809Y015574D01*
X006809Y015324D02*
X006559Y015324D01*
X006559Y015074D02*
X006809Y015074D01*
X006809Y014824D02*
X006559Y014824D01*
X006809Y014824D02*
X006809Y016324D01*
X007809Y016324D02*
X007809Y016074D01*
X008059Y016074D01*
X008059Y015824D02*
X007809Y015824D01*
X007809Y015574D01*
X008059Y015574D01*
X008059Y015324D02*
X007809Y015324D01*
X007809Y015074D01*
X008059Y015074D01*
X008059Y014824D02*
X007809Y014824D01*
X007809Y015074D01*
X007809Y014824D02*
X006809Y014824D01*
X007809Y015324D02*
X007809Y015574D01*
X007809Y015824D02*
X007809Y016074D01*
X007809Y016324D02*
X008059Y016324D01*
X007309Y013574D02*
X007059Y013574D01*
X007059Y013074D01*
X006809Y013074D01*
X007059Y013074D02*
X007059Y012574D01*
X007309Y012574D01*
X007309Y012824D01*
X007559Y012824D01*
X007309Y012824D02*
X007309Y013324D01*
X007309Y013574D01*
X007309Y013324D02*
X007559Y013324D01*
X007809Y013324D02*
X007809Y013074D01*
X008059Y013074D01*
X008059Y013324D01*
X007809Y013324D01*
X012972Y019060D02*
X013072Y019160D01*
X013122Y020310D01*
D12*
X014466Y018930D02*
X015206Y018930D01*
X014466Y018930D02*
X014466Y011922D01*
X018671Y011922D01*
X018671Y018930D01*
X017923Y018930D01*
X017175Y018930D02*
X015993Y018930D01*
X016029Y011016D02*
X017210Y011016D01*
X017958Y011016D02*
X018706Y011016D01*
X018706Y004008D01*
X014502Y004008D01*
X014502Y011016D01*
X015242Y011016D01*
X005111Y011177D02*
X005111Y004170D01*
X004370Y004170D01*
X003583Y004170D02*
X002402Y004170D01*
X001654Y004170D02*
X000906Y004170D01*
X000906Y011177D01*
X005111Y011177D01*
X005118Y011897D02*
X004378Y011897D01*
X005118Y011897D02*
X005118Y018905D01*
X000913Y018905D01*
X000913Y011897D01*
X001661Y011897D01*
X002409Y011897D02*
X003590Y011897D01*
D13*
X002103Y003628D02*
X002103Y003168D01*
X002410Y003168D02*
X002410Y003628D01*
X002257Y003475D01*
X002103Y003628D01*
X002564Y003551D02*
X002564Y003244D01*
X002871Y003551D01*
X002871Y003244D01*
X002794Y003168D01*
X002641Y003168D01*
X002564Y003244D01*
X002564Y003551D02*
X002641Y003628D01*
X002794Y003628D01*
X002871Y003551D01*
X016826Y003581D02*
X016826Y003121D01*
X017133Y003121D02*
X017133Y003581D01*
X016979Y003428D01*
X016826Y003581D01*
X017286Y003428D02*
X017440Y003581D01*
X017440Y003121D01*
X017593Y003121D02*
X017286Y003121D01*
X017277Y019504D02*
X017584Y019811D01*
X017584Y019888D01*
X017507Y019964D01*
X017354Y019964D01*
X017277Y019888D01*
X017124Y019964D02*
X017124Y019504D01*
X017277Y019504D02*
X017584Y019504D01*
X017124Y019964D02*
X016970Y019811D01*
X016817Y019964D01*
X016817Y019504D01*
X002652Y019603D02*
X002575Y019527D01*
X002421Y019527D01*
X002345Y019603D01*
X002191Y019527D02*
X002191Y019987D01*
X002038Y019834D01*
X001884Y019987D01*
X001884Y019527D01*
X002345Y019910D02*
X002421Y019987D01*
X002575Y019987D01*
X002652Y019910D01*
X002652Y019834D01*
X002575Y019757D01*
X002652Y019680D01*
X002652Y019603D01*
X002575Y019757D02*
X002498Y019757D01*
D14*
X002985Y019541D02*
X002985Y020041D01*
X003235Y020291D01*
X003735Y020291D01*
X003985Y020041D01*
X004235Y020291D01*
X004735Y020291D01*
X004985Y020041D01*
X004985Y019541D01*
X004735Y019291D01*
X004235Y019291D01*
X003985Y019541D01*
X003735Y019291D01*
X003235Y019291D01*
X002985Y019541D01*
X006766Y019351D02*
X006766Y019851D01*
X007016Y020101D01*
X007516Y020101D01*
X007766Y019851D01*
X008016Y020101D01*
X008516Y020101D01*
X008766Y019851D01*
X008766Y019351D01*
X008516Y019101D01*
X008016Y019101D01*
X007766Y019351D01*
X007516Y019101D01*
X007016Y019101D01*
X006766Y019351D01*
X014532Y019447D02*
X014782Y019197D01*
X015282Y019197D01*
X015532Y019447D01*
X015782Y019197D01*
X016282Y019197D01*
X016532Y019447D01*
X016532Y019947D01*
X016282Y020197D01*
X015782Y020197D01*
X015532Y019947D01*
X015282Y020197D01*
X014782Y020197D01*
X014532Y019947D01*
X014532Y019447D01*
X014885Y003751D02*
X014635Y003501D01*
X014635Y003001D01*
X014885Y002751D01*
X015385Y002751D01*
X015635Y003001D01*
X015885Y002751D01*
X016385Y002751D01*
X016635Y003001D01*
X016635Y003501D01*
X016385Y003751D01*
X015885Y003751D01*
X015635Y003501D01*
X015385Y003751D01*
X014885Y003751D01*
D15*
X011122Y020610D03*
D16*
X012847Y020360D03*
X009397Y020360D03*
D17*
X010622Y020360D03*
X011622Y020360D03*
M02*
