G75*
G70*
%OFA0B0*%
%FSLAX24Y24*%
%IPPOS*%
%LPD*%
%AMOC8*
5,1,8,0,0,1.08239X$1,22.5*
%
%ADD10R,0.0700X0.0700*%
%ADD11C,0.0700*%
%ADD12C,0.0748*%
%ADD13R,0.0740X0.0740*%
%ADD14C,0.0740*%
%ADD15C,0.0600*%
%ADD16C,0.0200*%
%ADD17C,0.0400*%
%ADD18C,0.0060*%
D10*
X005815Y004577D03*
X008815Y004577D03*
X010845Y010578D03*
X008809Y012324D03*
X005809Y012324D03*
X010836Y018291D03*
X013836Y018291D03*
X013845Y010578D03*
D11*
X013845Y009578D03*
X013845Y008578D03*
X013845Y007578D03*
X013845Y006578D03*
X013845Y005578D03*
X013845Y004578D03*
X010845Y004578D03*
X010845Y005578D03*
X010845Y006578D03*
X010845Y007578D03*
X010845Y008578D03*
X010845Y009578D03*
X008815Y009577D03*
X008815Y010577D03*
X008815Y008577D03*
X008815Y007577D03*
X008815Y006577D03*
X008815Y005577D03*
X005815Y005577D03*
X005815Y006577D03*
X005815Y007577D03*
X005815Y008577D03*
X005815Y009577D03*
X005815Y010577D03*
X005809Y013324D03*
X005809Y014324D03*
X005809Y015324D03*
X005809Y016324D03*
X005809Y017324D03*
X005809Y018324D03*
X008809Y018324D03*
X008809Y017324D03*
X008809Y016324D03*
X008809Y015324D03*
X008809Y014324D03*
X008809Y013324D03*
X010836Y013291D03*
X010836Y012291D03*
X010836Y014291D03*
X010836Y015291D03*
X010836Y016291D03*
X010836Y017291D03*
X013836Y017291D03*
X013836Y016291D03*
X013836Y015291D03*
X013836Y014291D03*
X013836Y013291D03*
X013836Y012291D03*
D12*
X015568Y013576D03*
X015568Y014576D03*
X015568Y015576D03*
X015568Y016576D03*
X015568Y017576D03*
X015568Y018576D03*
X017568Y018576D03*
X017568Y017576D03*
X017568Y016576D03*
X017568Y015576D03*
X017568Y014576D03*
X017568Y013576D03*
X017604Y010662D03*
X017604Y009662D03*
X017604Y008662D03*
X017604Y007662D03*
X017604Y006662D03*
X017604Y005662D03*
X015604Y005662D03*
X015604Y006662D03*
X015604Y007662D03*
X015604Y008662D03*
X015604Y009662D03*
X015604Y010662D03*
X004008Y009524D03*
X004008Y008524D03*
X004008Y007524D03*
X004008Y006524D03*
X004008Y005524D03*
X004008Y004524D03*
X002008Y004524D03*
X002008Y005524D03*
X002008Y006524D03*
X002008Y007524D03*
X002008Y008524D03*
X002008Y009524D03*
X002015Y012252D03*
X002015Y013252D03*
X002015Y014252D03*
X002015Y015252D03*
X002015Y016252D03*
X002015Y017252D03*
X004015Y017252D03*
X004015Y016252D03*
X004015Y015252D03*
X004015Y014252D03*
X004015Y013252D03*
X004015Y012252D03*
D13*
X012841Y014576D03*
D14*
X012841Y013576D03*
X012841Y012576D03*
X012841Y011576D03*
X012841Y010576D03*
X012841Y009576D03*
X012841Y008576D03*
X012841Y007576D03*
X012841Y006576D03*
X012841Y005576D03*
X012841Y004576D03*
X012841Y003576D03*
X011841Y003576D03*
X010841Y003576D03*
X009841Y003576D03*
X008841Y003576D03*
X007841Y003576D03*
X006841Y003576D03*
X006841Y004576D03*
X006841Y005576D03*
X006841Y006576D03*
X006841Y007576D03*
X006841Y008576D03*
X006841Y009576D03*
X006841Y010576D03*
X007841Y010576D03*
X006841Y011576D03*
X006841Y012576D03*
X006841Y013576D03*
X006841Y014576D03*
X007266Y019601D03*
X008266Y019601D03*
X004485Y019791D03*
X003485Y019791D03*
X011841Y010576D03*
X015135Y003251D03*
X016135Y003251D03*
X016032Y019697D03*
X015032Y019697D03*
D15*
X012122Y019460D02*
X012122Y020060D01*
X011122Y020060D02*
X011122Y019460D01*
X010122Y019460D02*
X010122Y020060D01*
D16*
X004008Y004524D02*
X003792Y004385D01*
X002792Y005385D01*
X002792Y012385D01*
X003792Y012385D01*
X004015Y012252D01*
X003792Y012385D02*
X002792Y013385D01*
X002792Y017885D01*
X003292Y017885D02*
X003292Y013385D01*
X003792Y013385D01*
X004015Y013252D01*
X004015Y015252D02*
X004292Y015385D01*
X005792Y015385D01*
X005809Y015324D01*
X005809Y016324D02*
X005792Y016385D01*
X004292Y016385D01*
X004015Y016252D01*
X004015Y017252D02*
X004292Y017385D01*
X005792Y017385D01*
X005809Y017324D01*
X007792Y018885D02*
X007292Y019385D01*
X007266Y019601D01*
X007292Y019885D01*
X004792Y019885D01*
X004485Y019791D01*
X004792Y019885D02*
X003292Y018385D01*
X001292Y018385D01*
X001292Y011885D01*
X001792Y011385D01*
X002292Y011385D01*
X003292Y010885D02*
X003292Y006385D01*
X003792Y005885D01*
X003792Y005385D01*
X004008Y005524D01*
X004292Y005385D01*
X005792Y005385D01*
X005815Y005577D01*
X005792Y006385D02*
X005815Y006577D01*
X005792Y006385D02*
X004292Y006385D01*
X004008Y006524D01*
X004292Y007385D02*
X004008Y007524D01*
X004292Y007385D02*
X005792Y007385D01*
X005815Y007577D01*
X005792Y008385D02*
X005815Y008577D01*
X005792Y008385D02*
X004292Y008385D01*
X004008Y008524D01*
X004292Y009385D02*
X004008Y009524D01*
X004292Y009385D02*
X005792Y009385D01*
X005815Y009577D01*
X007792Y011885D02*
X007792Y014385D01*
X006792Y014385D01*
X006841Y014576D01*
X007792Y014385D02*
X008792Y013385D01*
X008809Y013324D01*
X008792Y013385D02*
X009792Y013385D01*
X009792Y016385D01*
X010792Y017385D01*
X010836Y017291D01*
X010792Y017385D02*
X009792Y017385D01*
X008792Y018385D01*
X008809Y018324D01*
X007792Y018885D02*
X012792Y018885D01*
X013792Y019885D01*
X014292Y019885D02*
X014292Y018885D01*
X013292Y018885D01*
X012792Y018385D01*
X012292Y018385D01*
X012292Y012885D01*
X010792Y011385D01*
X009792Y012385D01*
X009792Y013385D02*
X010792Y012385D01*
X010836Y012291D01*
X008792Y010885D02*
X008815Y010577D01*
X008792Y010885D02*
X007792Y011885D01*
X008815Y005577D02*
X008792Y005385D01*
X010292Y005385D01*
X010792Y004885D01*
X010845Y004578D01*
X013845Y005578D02*
X013792Y005885D01*
X015792Y005885D01*
X015604Y005662D01*
X015604Y006662D02*
X015792Y006885D01*
X013792Y006885D01*
X013845Y006578D01*
X013845Y007578D02*
X013792Y007885D01*
X015792Y007885D01*
X015604Y007662D01*
X015604Y008662D02*
X015792Y008885D01*
X013792Y008885D01*
X013845Y008578D01*
X013845Y009578D02*
X013792Y009885D01*
X015792Y009885D01*
X015604Y009662D01*
X015792Y009385D01*
X016292Y009385D01*
X016292Y003385D01*
X016135Y003251D01*
X015604Y010662D02*
X015792Y010885D01*
X015792Y012885D01*
X016792Y013885D01*
X016792Y020385D01*
X014792Y020385D01*
X014292Y019885D01*
X014292Y018885D02*
X014792Y018885D01*
X015292Y018385D01*
X015568Y018576D01*
X015568Y017576D02*
X015792Y017385D01*
X016292Y017385D01*
X016292Y019885D01*
X016032Y019697D01*
X015568Y017576D02*
X015292Y017385D01*
X013792Y017385D01*
X013836Y017291D01*
X013792Y016385D02*
X013836Y016291D01*
X013792Y016385D02*
X015292Y016385D01*
X015568Y016576D01*
X015568Y015576D02*
X015292Y015385D01*
X013792Y015385D01*
X013836Y015291D01*
X013792Y014385D02*
X013836Y014291D01*
X013792Y014385D02*
X015292Y014385D01*
X015568Y014576D01*
X015568Y013576D02*
X015292Y013385D01*
X013792Y013385D01*
X013836Y013291D01*
X010292Y019385D02*
X008292Y019385D01*
X008266Y019601D01*
X008792Y020385D02*
X009292Y019885D01*
X008792Y020385D02*
X002792Y020385D01*
X002792Y018885D01*
X010122Y019760D02*
X010292Y019385D01*
D17*
X009292Y019885D03*
X007792Y016385D03*
X006792Y015385D03*
X004792Y014885D03*
X003292Y017885D03*
X002792Y017885D03*
X002792Y018885D03*
X005292Y018885D03*
X009792Y012385D03*
X009792Y011385D03*
X011792Y011385D03*
X005292Y003885D03*
X004792Y009885D03*
X003292Y010885D03*
X002292Y011385D03*
X013792Y019885D03*
D18*
X008792Y016385D02*
X008809Y016324D01*
X008792Y016385D02*
X008292Y015885D01*
X006792Y015885D01*
X006292Y015385D01*
X006292Y006885D01*
X006792Y006885D01*
X006841Y006576D01*
X006792Y005885D02*
X006841Y005576D01*
X006792Y005885D02*
X008292Y005885D01*
X008792Y006385D01*
X008815Y006577D01*
X008815Y007577D02*
X008792Y007885D01*
X008292Y008385D01*
X006792Y008385D01*
X006841Y008576D01*
X004792Y009885D02*
X004792Y014885D01*
X006792Y015385D02*
X008792Y015385D01*
X008809Y015324D01*
X007792Y016385D02*
X007792Y018385D01*
X006792Y018385D01*
X006292Y018885D01*
X005292Y018885D01*
X009792Y011385D02*
X009792Y008885D01*
X010792Y007885D01*
X010845Y007578D01*
X010792Y008385D02*
X010845Y008578D01*
X010792Y008385D02*
X012292Y006885D01*
X012292Y003885D01*
X012792Y003885D01*
X012841Y003576D01*
X011841Y003576D02*
X011792Y003885D01*
X011792Y004385D01*
X010792Y005385D01*
X010845Y005578D01*
X012841Y007576D02*
X012792Y007885D01*
X012292Y008385D01*
X011292Y008385D01*
X011292Y010885D01*
X011792Y011385D01*
X005292Y003885D02*
X006292Y002885D01*
X007292Y002885D01*
X007792Y003385D01*
X007841Y003576D01*
M02*
