G75*
G70*
%OFA0B0*%
%FSLAX24Y24*%
%IPPOS*%
%LPD*%
%AMOC8*
5,1,8,0,0,1.08239X$1,22.5*
%
%ADD10C,0.0970*%
%ADD11R,0.0780X0.0780*%
%ADD12C,0.0780*%
%ADD13C,0.0828*%
%ADD14R,0.0820X0.0820*%
%ADD15C,0.0820*%
%ADD16C,0.0680*%
%ADD17C,0.0480*%
D10*
X001209Y003460D03*
X001208Y019708D03*
X018212Y003464D03*
X018461Y019712D03*
D11*
X013836Y018291D03*
X010836Y018291D03*
X008809Y012324D03*
X010845Y010578D03*
X013845Y010578D03*
X008815Y004577D03*
X005815Y004577D03*
X005809Y012324D03*
D12*
X005809Y013324D03*
X005809Y014324D03*
X005809Y015324D03*
X005809Y016324D03*
X005809Y017324D03*
X005809Y018324D03*
X008809Y018324D03*
X008809Y017324D03*
X008809Y016324D03*
X008809Y015324D03*
X008809Y014324D03*
X008809Y013324D03*
X010836Y013291D03*
X010836Y012291D03*
X010836Y014291D03*
X010836Y015291D03*
X010836Y016291D03*
X010836Y017291D03*
X013836Y017291D03*
X013836Y016291D03*
X013836Y015291D03*
X013836Y014291D03*
X013836Y013291D03*
X013836Y012291D03*
X013845Y009578D03*
X013845Y008578D03*
X013845Y007578D03*
X013845Y006578D03*
X013845Y005578D03*
X013845Y004578D03*
X010845Y004578D03*
X010845Y005578D03*
X010845Y006578D03*
X010845Y007578D03*
X010845Y008578D03*
X010845Y009578D03*
X008815Y009577D03*
X008815Y010577D03*
X008815Y008577D03*
X008815Y007577D03*
X008815Y006577D03*
X008815Y005577D03*
X005815Y005577D03*
X005815Y006577D03*
X005815Y007577D03*
X005815Y008577D03*
X005815Y009577D03*
X005815Y010577D03*
D13*
X004008Y009524D03*
X004008Y008524D03*
X004008Y007524D03*
X004008Y006524D03*
X004008Y005524D03*
X004008Y004524D03*
X002008Y004524D03*
X002008Y005524D03*
X002008Y006524D03*
X002008Y007524D03*
X002008Y008524D03*
X002008Y009524D03*
X002015Y012252D03*
X002015Y013252D03*
X002015Y014252D03*
X002015Y015252D03*
X002015Y016252D03*
X002015Y017252D03*
X004015Y017252D03*
X004015Y016252D03*
X004015Y015252D03*
X004015Y014252D03*
X004015Y013252D03*
X004015Y012252D03*
X015568Y013576D03*
X015568Y014576D03*
X015568Y015576D03*
X015568Y016576D03*
X015568Y017576D03*
X015568Y018576D03*
X017568Y018576D03*
X017568Y017576D03*
X017568Y016576D03*
X017568Y015576D03*
X017568Y014576D03*
X017568Y013576D03*
X017604Y010662D03*
X017604Y009662D03*
X017604Y008662D03*
X017604Y007662D03*
X017604Y006662D03*
X017604Y005662D03*
X015604Y005662D03*
X015604Y006662D03*
X015604Y007662D03*
X015604Y008662D03*
X015604Y009662D03*
X015604Y010662D03*
D14*
X012841Y014576D03*
D15*
X012841Y013576D03*
X012841Y012576D03*
X012841Y011576D03*
X012841Y010576D03*
X012841Y009576D03*
X012841Y008576D03*
X012841Y007576D03*
X012841Y006576D03*
X012841Y005576D03*
X012841Y004576D03*
X012841Y003576D03*
X011841Y003576D03*
X010841Y003576D03*
X009841Y003576D03*
X008841Y003576D03*
X007841Y003576D03*
X006841Y003576D03*
X006841Y004576D03*
X006841Y005576D03*
X006841Y006576D03*
X006841Y007576D03*
X006841Y008576D03*
X006841Y009576D03*
X006841Y010576D03*
X007841Y010576D03*
X006841Y011576D03*
X006841Y012576D03*
X006841Y013576D03*
X006841Y014576D03*
X007266Y019601D03*
X008266Y019601D03*
X004485Y019791D03*
X003485Y019791D03*
X011841Y010576D03*
X015135Y003251D03*
X016135Y003251D03*
X016032Y019697D03*
X015032Y019697D03*
D16*
X012122Y019460D02*
X012122Y020060D01*
X011122Y020060D02*
X011122Y019460D01*
X010122Y019460D02*
X010122Y020060D01*
D17*
X009292Y019885D03*
X007792Y016385D03*
X006792Y015385D03*
X004792Y014885D03*
X003292Y017885D03*
X002792Y017885D03*
X002792Y018885D03*
X005292Y018885D03*
X009792Y012385D03*
X009792Y011385D03*
X011792Y011385D03*
X005292Y003885D03*
X004792Y009885D03*
X003292Y010885D03*
X002292Y011385D03*
X013792Y019885D03*
M02*
