G75*
G70*
%OFA0B0*%
%FSLAX24Y24*%
%IPPOS*%
%LPD*%
%AMOC8*
5,1,8,0,0,1.08239X$1,22.5*
%
%ADD10C,0.0000*%
D10*
X001402Y002442D02*
X018053Y002439D01*
X017767Y003464D02*
X017769Y003506D01*
X017775Y003547D01*
X017784Y003588D01*
X017798Y003627D01*
X017815Y003665D01*
X017836Y003701D01*
X017859Y003736D01*
X017886Y003767D01*
X017916Y003797D01*
X017949Y003823D01*
X017984Y003846D01*
X018020Y003866D01*
X018059Y003882D01*
X018099Y003894D01*
X018139Y003903D01*
X018181Y003908D01*
X018222Y003909D01*
X018264Y003906D01*
X018305Y003899D01*
X018346Y003888D01*
X018385Y003874D01*
X018422Y003856D01*
X018458Y003835D01*
X018492Y003810D01*
X018523Y003782D01*
X018551Y003752D01*
X018577Y003719D01*
X018599Y003683D01*
X018618Y003646D01*
X018633Y003607D01*
X018645Y003567D01*
X018653Y003526D01*
X018657Y003485D01*
X018657Y003443D01*
X018653Y003402D01*
X018645Y003361D01*
X018633Y003321D01*
X018618Y003282D01*
X018599Y003245D01*
X018577Y003209D01*
X018551Y003176D01*
X018523Y003146D01*
X018492Y003118D01*
X018458Y003093D01*
X018422Y003072D01*
X018385Y003054D01*
X018346Y003040D01*
X018305Y003029D01*
X018264Y003022D01*
X018222Y003019D01*
X018181Y003020D01*
X018139Y003025D01*
X018099Y003034D01*
X018059Y003046D01*
X018020Y003062D01*
X017984Y003082D01*
X017949Y003105D01*
X017916Y003131D01*
X017886Y003161D01*
X017859Y003192D01*
X017836Y003227D01*
X017815Y003263D01*
X017798Y003301D01*
X017784Y003340D01*
X017775Y003381D01*
X017769Y003422D01*
X017767Y003464D01*
X018053Y002438D02*
X018123Y002437D01*
X018193Y002440D01*
X018263Y002446D01*
X018333Y002456D01*
X018402Y002470D01*
X018470Y002487D01*
X018537Y002509D01*
X018603Y002533D01*
X018667Y002562D01*
X018730Y002594D01*
X018791Y002629D01*
X018850Y002667D01*
X018907Y002709D01*
X018961Y002753D01*
X019013Y002801D01*
X019063Y002851D01*
X019109Y002904D01*
X019153Y002959D01*
X019193Y003016D01*
X019231Y003076D01*
X019265Y003137D01*
X019296Y003201D01*
X019323Y003266D01*
X019347Y003332D01*
X019367Y003399D01*
X019383Y003468D01*
X019396Y003537D01*
X019405Y003607D01*
X019410Y003677D01*
X019424Y020008D01*
X018016Y019712D02*
X018018Y019754D01*
X018024Y019795D01*
X018033Y019836D01*
X018047Y019875D01*
X018064Y019913D01*
X018085Y019949D01*
X018108Y019984D01*
X018135Y020015D01*
X018165Y020045D01*
X018198Y020071D01*
X018233Y020094D01*
X018269Y020114D01*
X018308Y020130D01*
X018348Y020142D01*
X018388Y020151D01*
X018430Y020156D01*
X018471Y020157D01*
X018513Y020154D01*
X018554Y020147D01*
X018595Y020136D01*
X018634Y020122D01*
X018671Y020104D01*
X018707Y020083D01*
X018741Y020058D01*
X018772Y020030D01*
X018800Y020000D01*
X018826Y019967D01*
X018848Y019931D01*
X018867Y019894D01*
X018882Y019855D01*
X018894Y019815D01*
X018902Y019774D01*
X018906Y019733D01*
X018906Y019691D01*
X018902Y019650D01*
X018894Y019609D01*
X018882Y019569D01*
X018867Y019530D01*
X018848Y019493D01*
X018826Y019457D01*
X018800Y019424D01*
X018772Y019394D01*
X018741Y019366D01*
X018707Y019341D01*
X018671Y019320D01*
X018634Y019302D01*
X018595Y019288D01*
X018554Y019277D01*
X018513Y019270D01*
X018471Y019267D01*
X018430Y019268D01*
X018388Y019273D01*
X018348Y019282D01*
X018308Y019294D01*
X018269Y019310D01*
X018233Y019330D01*
X018198Y019353D01*
X018165Y019379D01*
X018135Y019409D01*
X018108Y019440D01*
X018085Y019475D01*
X018064Y019511D01*
X018047Y019549D01*
X018033Y019588D01*
X018024Y019629D01*
X018018Y019670D01*
X018016Y019712D01*
X018142Y021004D02*
X018209Y021010D01*
X018275Y021013D01*
X018342Y021012D01*
X018409Y021006D01*
X018475Y020997D01*
X018540Y020984D01*
X018605Y020968D01*
X018669Y020947D01*
X018731Y020923D01*
X018792Y020895D01*
X018851Y020864D01*
X018908Y020829D01*
X018963Y020792D01*
X019015Y020751D01*
X019066Y020707D01*
X019113Y020660D01*
X019158Y020610D01*
X019200Y020558D01*
X019239Y020504D01*
X019274Y020447D01*
X019306Y020389D01*
X019335Y020329D01*
X019360Y020267D01*
X019382Y020204D01*
X019400Y020139D01*
X019414Y020074D01*
X019424Y020008D01*
X018142Y021004D02*
X001112Y021004D01*
X001051Y020991D01*
X000991Y020975D01*
X000932Y020955D01*
X000874Y020931D01*
X000818Y020904D01*
X000764Y020874D01*
X000712Y020840D01*
X000662Y020802D01*
X000615Y020762D01*
X000570Y020719D01*
X000528Y020673D01*
X000489Y020625D01*
X000453Y020574D01*
X000421Y020521D01*
X000391Y020466D01*
X000365Y020410D01*
X000343Y020351D01*
X000325Y020292D01*
X000310Y020232D01*
X000299Y020170D01*
X000292Y020109D01*
X000289Y020046D01*
X000290Y019984D01*
X000295Y019922D01*
X000303Y019861D01*
X000303Y003707D01*
X000764Y003460D02*
X000766Y003502D01*
X000772Y003543D01*
X000781Y003584D01*
X000795Y003623D01*
X000812Y003661D01*
X000833Y003697D01*
X000856Y003732D01*
X000883Y003763D01*
X000913Y003793D01*
X000946Y003819D01*
X000981Y003842D01*
X001017Y003862D01*
X001056Y003878D01*
X001096Y003890D01*
X001136Y003899D01*
X001178Y003904D01*
X001219Y003905D01*
X001261Y003902D01*
X001302Y003895D01*
X001343Y003884D01*
X001382Y003870D01*
X001419Y003852D01*
X001455Y003831D01*
X001489Y003806D01*
X001520Y003778D01*
X001548Y003748D01*
X001574Y003715D01*
X001596Y003679D01*
X001615Y003642D01*
X001630Y003603D01*
X001642Y003563D01*
X001650Y003522D01*
X001654Y003481D01*
X001654Y003439D01*
X001650Y003398D01*
X001642Y003357D01*
X001630Y003317D01*
X001615Y003278D01*
X001596Y003241D01*
X001574Y003205D01*
X001548Y003172D01*
X001520Y003142D01*
X001489Y003114D01*
X001455Y003089D01*
X001419Y003068D01*
X001382Y003050D01*
X001343Y003036D01*
X001302Y003025D01*
X001261Y003018D01*
X001219Y003015D01*
X001178Y003016D01*
X001136Y003021D01*
X001096Y003030D01*
X001056Y003042D01*
X001017Y003058D01*
X000981Y003078D01*
X000946Y003101D01*
X000913Y003127D01*
X000883Y003157D01*
X000856Y003188D01*
X000833Y003223D01*
X000812Y003259D01*
X000795Y003297D01*
X000781Y003336D01*
X000772Y003377D01*
X000766Y003418D01*
X000764Y003460D01*
X000304Y003707D02*
X000301Y003641D01*
X000302Y003574D01*
X000307Y003508D01*
X000315Y003442D01*
X000327Y003377D01*
X000343Y003312D01*
X000362Y003248D01*
X000385Y003186D01*
X000411Y003125D01*
X000441Y003065D01*
X000474Y003008D01*
X000510Y002952D01*
X000549Y002898D01*
X000591Y002847D01*
X000636Y002798D01*
X000684Y002752D01*
X000734Y002708D01*
X000787Y002667D01*
X000842Y002630D01*
X000898Y002595D01*
X000957Y002564D01*
X001017Y002536D01*
X001079Y002511D01*
X001142Y002490D01*
X001206Y002473D01*
X001271Y002459D01*
X001337Y002448D01*
X001403Y002442D01*
X000763Y019708D02*
X000765Y019750D01*
X000771Y019791D01*
X000780Y019832D01*
X000794Y019871D01*
X000811Y019909D01*
X000832Y019945D01*
X000855Y019980D01*
X000882Y020011D01*
X000912Y020041D01*
X000945Y020067D01*
X000980Y020090D01*
X001016Y020110D01*
X001055Y020126D01*
X001095Y020138D01*
X001135Y020147D01*
X001177Y020152D01*
X001218Y020153D01*
X001260Y020150D01*
X001301Y020143D01*
X001342Y020132D01*
X001381Y020118D01*
X001418Y020100D01*
X001454Y020079D01*
X001488Y020054D01*
X001519Y020026D01*
X001547Y019996D01*
X001573Y019963D01*
X001595Y019927D01*
X001614Y019890D01*
X001629Y019851D01*
X001641Y019811D01*
X001649Y019770D01*
X001653Y019729D01*
X001653Y019687D01*
X001649Y019646D01*
X001641Y019605D01*
X001629Y019565D01*
X001614Y019526D01*
X001595Y019489D01*
X001573Y019453D01*
X001547Y019420D01*
X001519Y019390D01*
X001488Y019362D01*
X001454Y019337D01*
X001418Y019316D01*
X001381Y019298D01*
X001342Y019284D01*
X001301Y019273D01*
X001260Y019266D01*
X001218Y019263D01*
X001177Y019264D01*
X001135Y019269D01*
X001095Y019278D01*
X001055Y019290D01*
X001016Y019306D01*
X000980Y019326D01*
X000945Y019349D01*
X000912Y019375D01*
X000882Y019405D01*
X000855Y019436D01*
X000832Y019471D01*
X000811Y019507D01*
X000794Y019545D01*
X000780Y019584D01*
X000771Y019625D01*
X000765Y019666D01*
X000763Y019708D01*
M02*
