G75*
G70*
%OFA0B0*%
%FSLAX24Y24*%
%IPPOS*%
%LPD*%
%AMOC8*
5,1,8,0,0,1.08239X$1,22.5*
%
%ADD10C,0.0060*%
%ADD11C,0.0050*%
D10*
X006341Y003076D02*
X007341Y003076D01*
X007341Y015076D01*
X009441Y015076D01*
X009443Y015037D01*
X009449Y014998D01*
X009458Y014960D01*
X009471Y014923D01*
X009488Y014887D01*
X009508Y014854D01*
X009532Y014822D01*
X009558Y014793D01*
X009587Y014767D01*
X009619Y014743D01*
X009652Y014723D01*
X009688Y014706D01*
X009725Y014693D01*
X009763Y014684D01*
X009802Y014678D01*
X009841Y014676D01*
X009880Y014678D01*
X009919Y014684D01*
X009957Y014693D01*
X009994Y014706D01*
X010030Y014723D01*
X010063Y014743D01*
X010095Y014767D01*
X010124Y014793D01*
X010150Y014822D01*
X010174Y014854D01*
X010194Y014887D01*
X010211Y014923D01*
X010224Y014960D01*
X010233Y014998D01*
X010239Y015037D01*
X010241Y015076D01*
X012341Y015076D01*
X012341Y003076D01*
X013341Y003076D01*
X013341Y015076D01*
X012341Y015076D01*
X007341Y015076D02*
X006341Y015076D01*
X006341Y003076D01*
X007341Y003076D02*
X012341Y003076D01*
D11*
X010026Y008344D02*
X010026Y008645D01*
X010026Y008495D02*
X009575Y008495D01*
X009575Y008805D02*
X009575Y009105D01*
X009575Y009265D02*
X009575Y009566D01*
X009575Y009726D02*
X010026Y009726D01*
X009575Y010026D01*
X010026Y010026D01*
X009950Y010186D02*
X010026Y010261D01*
X010026Y010411D01*
X009950Y010486D01*
X009950Y010646D02*
X009800Y010797D01*
X009575Y010797D01*
X009800Y010797D02*
X009950Y010947D01*
X010026Y010947D01*
X010026Y010646D02*
X009950Y010646D01*
X009725Y010486D02*
X009650Y010486D01*
X009575Y010411D01*
X009575Y010261D01*
X009650Y010186D01*
X009800Y010261D02*
X009800Y010411D01*
X009725Y010486D01*
X009800Y010261D02*
X009875Y010186D01*
X009950Y010186D01*
X010026Y009566D02*
X010026Y009265D01*
X009575Y009265D01*
X009800Y009265D02*
X009800Y009415D01*
X010026Y009105D02*
X010026Y008805D01*
X009575Y008805D01*
X009800Y008805D02*
X009800Y008955D01*
M02*
