G75*
%MOIN*%
%OFA0B0*%
%FSLAX25Y25*%
%IPPOS*%
%LPD*%
%AMOC8*
5,1,8,0,0,1.08239X$1,22.5*
%
%ADD10C,0.08200*%
%ADD11R,0.11036X0.10249*%
%ADD12R,0.05131X0.06312*%
%ADD13R,0.06312X0.06312*%
%ADD14R,0.05524X0.03556*%
%ADD15R,0.09461X0.03162*%
%ADD16OC8,0.06000*%
%ADD17C,0.06400*%
%ADD18C,0.04343*%
%ADD19R,0.04343X0.03950*%
%ADD20R,0.03950X0.04343*%
%ADD21R,0.04737X0.05131*%
%ADD22R,0.06706X0.05918*%
%ADD23R,0.05131X0.04737*%
%ADD24R,0.06800X0.13300*%
%ADD25C,0.07800*%
%ADD26R,0.05162X0.05162*%
%ADD27R,0.06312X0.05131*%
%ADD28R,0.05800X0.06587*%
%ADD29R,0.07099X0.06312*%
%ADD30R,0.10643X0.05524*%
%ADD31R,0.22454X0.09265*%
%ADD32R,0.02965X0.05524*%
%ADD33R,0.02375X0.06509*%
%ADD34C,0.04146*%
%ADD35R,0.07874X0.06693*%
%ADD36R,0.10630X0.06693*%
%ADD37R,0.09500X0.03200*%
%ADD38R,0.02400X0.05524*%
D10*
X0412308Y0023846D03*
X0423708Y0023846D03*
D11*
X0284106Y0026346D03*
X0258909Y0026346D03*
X0143106Y0024846D03*
X0117909Y0024846D03*
X0073606Y0023346D03*
X0048409Y0023346D03*
D12*
X0099071Y0022346D03*
X0106945Y0022346D03*
X0170071Y0024846D03*
X0177945Y0024846D03*
X0124945Y0039846D03*
X0117071Y0039846D03*
X0344071Y0046846D03*
X0351945Y0046846D03*
D13*
X0380008Y0034327D03*
X0387008Y0034327D03*
X0387008Y0019366D03*
X0380008Y0019366D03*
X0033988Y0022346D03*
X0019028Y0022346D03*
D14*
X0082224Y0041846D03*
X0096791Y0041846D03*
D15*
X0172772Y0042346D03*
X0193244Y0042346D03*
X0193244Y0037346D03*
X0172772Y0037346D03*
X0172772Y0047346D03*
X0193244Y0047346D03*
X0193244Y0052346D03*
X0172772Y0052346D03*
D16*
X0368008Y0054846D03*
X0368008Y0044846D03*
X0368008Y0030846D03*
X0368008Y0020846D03*
X0368008Y0069846D03*
X0368008Y0079846D03*
D17*
X0202508Y0072783D03*
X0202508Y0064909D03*
D18*
X0111394Y0073846D03*
X0084622Y0073846D03*
X0071394Y0074217D03*
X0044622Y0074217D03*
X0394622Y0074046D03*
X0421394Y0074046D03*
D19*
X0118945Y0060087D03*
X0110677Y0056346D03*
X0118945Y0052606D03*
D20*
X0216768Y0060909D03*
X0224248Y0060909D03*
X0220508Y0069177D03*
D21*
X0189854Y0062346D03*
X0183161Y0062346D03*
X0230661Y0054846D03*
X0237354Y0054846D03*
X0223854Y0049846D03*
X0217161Y0049846D03*
X0208854Y0049846D03*
X0202161Y0049846D03*
X0230661Y0046846D03*
X0237354Y0046846D03*
X0208854Y0039846D03*
X0202161Y0039846D03*
X0103854Y0054846D03*
X0097161Y0054846D03*
X0087854Y0055846D03*
X0081161Y0055846D03*
X0085661Y0031846D03*
X0092354Y0031846D03*
X0216661Y0079846D03*
X0223354Y0079846D03*
X0344661Y0076346D03*
X0351354Y0076346D03*
X0434661Y0079846D03*
X0441354Y0079846D03*
X0337354Y0032346D03*
X0330661Y0032346D03*
X0331661Y0020346D03*
X0338354Y0020346D03*
X0347661Y0020846D03*
X0354354Y0020846D03*
D22*
X0399008Y0023106D03*
X0399008Y0030587D03*
D23*
X0086008Y0019000D03*
X0086008Y0025693D03*
X0155508Y0025693D03*
X0155508Y0019000D03*
X0188008Y0024000D03*
X0202008Y0021500D03*
X0211008Y0021500D03*
X0211008Y0028193D03*
X0202008Y0028193D03*
X0188008Y0030693D03*
X0241508Y0071000D03*
X0241508Y0077693D03*
X0186008Y0079193D03*
X0186008Y0072500D03*
D24*
X0031665Y0065707D03*
X0023854Y0034096D03*
X0012932Y0034096D03*
X0060421Y0034096D03*
X0405610Y0065596D03*
X0442177Y0065596D03*
X0453099Y0065596D03*
X0434366Y0033986D03*
D25*
X0438476Y0049374D03*
X0410917Y0049374D03*
X0055114Y0050319D03*
X0027555Y0050319D03*
D26*
X0132260Y0043319D03*
X0148008Y0043319D03*
X0163756Y0043319D03*
X0302260Y0043319D03*
X0318008Y0043319D03*
X0333756Y0043319D03*
X0337693Y0082689D03*
X0298323Y0082689D03*
X0167693Y0082689D03*
X0128323Y0082689D03*
D27*
X0105508Y0041283D03*
X0105508Y0033409D03*
X0351008Y0059409D03*
X0351008Y0067283D03*
D28*
X0259972Y0060346D03*
X0243043Y0060346D03*
D29*
X0232508Y0066835D03*
X0232508Y0077858D03*
X0321508Y0031358D03*
X0321508Y0020335D03*
D30*
X0284008Y0066350D03*
X0269008Y0066350D03*
X0269008Y0079343D03*
X0284008Y0079343D03*
D31*
X0303508Y0035406D03*
X0303508Y0020287D03*
D32*
X0343268Y0028228D03*
X0347008Y0028228D03*
X0350748Y0028228D03*
X0350748Y0038465D03*
X0347008Y0038478D03*
X0343268Y0038465D03*
X0251748Y0040728D03*
X0244268Y0040728D03*
X0244268Y0050965D03*
X0248008Y0050965D03*
X0251748Y0050965D03*
D33*
X0238126Y0032075D03*
X0235567Y0032075D03*
X0233008Y0032075D03*
X0230449Y0032075D03*
X0227890Y0032075D03*
D34*
X0225528Y0030008D03*
X0240488Y0030008D03*
D35*
X0247512Y0021346D03*
X0218504Y0021346D03*
D36*
X0233008Y0021346D03*
D37*
X0268208Y0043846D03*
X0288808Y0043846D03*
X0288808Y0048846D03*
X0288808Y0053846D03*
X0268208Y0053846D03*
X0268208Y0048846D03*
X0268208Y0058846D03*
X0288808Y0058846D03*
D38*
X0381169Y0061280D03*
X0383728Y0061280D03*
X0386287Y0061280D03*
X0388846Y0061280D03*
X0388846Y0040807D03*
X0386287Y0040807D03*
X0383728Y0040807D03*
X0381169Y0040807D03*
M02*
