%
M48
M72
T01C0.01550
T02C0.03200
T03C0.03543
T04C0.03937
T05C0.04000
T06C0.04724
%
T01
X31600Y17600
X37600Y31600
X62600Y41600
X66600Y49600
X81600Y53600
X82600Y57600
X60600Y60600
X56600Y66600
X84600Y41600
X76600Y37600
X98600Y23600
X79600Y21600
T02
X70100Y20600
X70100Y10600
T03
X9100Y11100
X19100Y11100
X29100Y11100
X45600Y11100
X45600Y21100
X27600Y32214
X45600Y53600
X45600Y63600
X27600Y58986
X125100Y11100
X133100Y11100
T04
X9100Y23100
X9100Y33100
X9100Y43100
X9100Y53100
X9100Y63100
T05
X20400Y68100
X31800Y68100
T06
X91242Y39072
X118801Y39072
M30
