G75*
%MOIN*%
%OFA0B0*%
%FSLAX25Y25*%
%IPPOS*%
%LPD*%
%AMOC8*
5,1,8,0,0,1.08239X$1,22.5*
%
%ADD10R,0.05518X0.06306*%
%ADD11OC8,0.05600*%
%ADD12R,0.06306X0.05518*%
%ADD13C,0.07400*%
%ADD14R,0.07400X0.07400*%
%ADD15C,0.03943*%
%ADD16C,0.07800*%
%ADD17C,0.08000*%
%ADD18R,0.05943X0.05943*%
%ADD19R,0.04731X0.05912*%
%ADD20R,0.05912X0.04731*%
%ADD21R,0.09061X0.02762*%
%ADD22R,0.04731X0.04337*%
%ADD23R,0.04337X0.04731*%
%ADD24R,0.03156X0.05124*%
%ADD25C,0.05124*%
D10*
X0028360Y0050100D03*
X0035840Y0050100D03*
D11*
X0070100Y0020600D03*
X0070100Y0010600D03*
D12*
X0056600Y0012360D03*
X0056600Y0019840D03*
D13*
X0009100Y0011100D03*
X0019100Y0011100D03*
D14*
X0029100Y0011100D03*
D15*
X0027600Y0032214D03*
X0027600Y0058986D03*
D16*
X0031800Y0068100D03*
X0020400Y0068100D03*
D17*
X0009100Y0063100D03*
X0009100Y0053100D03*
X0009100Y0043100D03*
X0009100Y0033100D03*
X0009100Y0023100D03*
D18*
X0045600Y0021100D03*
X0045600Y0011100D03*
X0045600Y0053600D03*
X0045600Y0063600D03*
X0125100Y0011100D03*
X0133100Y0011100D03*
D19*
X0104037Y0029100D03*
X0096163Y0029100D03*
X0035537Y0022600D03*
X0027663Y0022600D03*
D20*
X0051100Y0031163D03*
X0051100Y0039037D03*
X0130100Y0058163D03*
X0130100Y0066037D03*
D21*
X0074336Y0062600D03*
X0074336Y0057600D03*
X0074336Y0052600D03*
X0074336Y0047600D03*
X0053864Y0047600D03*
X0053864Y0052600D03*
X0053864Y0057600D03*
X0053864Y0062600D03*
D22*
X0042600Y0038946D03*
X0042600Y0032254D03*
X0111600Y0056754D03*
X0111600Y0063446D03*
X0115600Y0023946D03*
X0115600Y0017254D03*
D23*
X0103446Y0012100D03*
X0096754Y0012100D03*
X0098946Y0048600D03*
X0092254Y0048600D03*
X0092946Y0064100D03*
X0086254Y0064100D03*
D24*
X0019100Y0034383D03*
X0019100Y0019817D03*
D25*
X0091242Y0039072D03*
X0118801Y0039072D03*
M02*
