G75*
%MOIN*%
%OFA0B0*%
%FSLAX25Y25*%
%IPPOS*%
%LPD*%
%AMOC8*
5,1,8,0,0,1.08239X$1,22.5*
%
%ADD10R,0.04724X0.02165*%
%ADD11C,0.07600*%
%ADD12C,0.13843*%
%ADD13C,0.03543*%
%ADD14C,0.02756*%
%ADD15C,0.06614*%
%ADD16R,0.05512X0.04331*%
%ADD17R,0.04331X0.05512*%
%ADD18C,0.00800*%
%ADD19C,0.03150*%
D10*
X0006448Y0032503D03*
X0006448Y0036243D03*
X0006448Y0039983D03*
X0016685Y0039983D03*
X0016685Y0032503D03*
D11*
X0008500Y0011333D03*
X0018500Y0011333D03*
X0028500Y0011333D03*
X0038500Y0011333D03*
X0048500Y0011333D03*
D12*
X0029500Y0053833D03*
D13*
X0029500Y0028518D03*
X0025169Y0028518D03*
X0033831Y0028518D03*
D14*
X0034500Y0041944D03*
X0024500Y0041944D03*
D15*
X0029500Y0038833D03*
D16*
X0046398Y0036955D03*
X0046398Y0044829D03*
D17*
X0048559Y0020546D03*
X0040685Y0020546D03*
X0017378Y0020625D03*
X0009504Y0020625D03*
X0009031Y0053144D03*
X0016906Y0053144D03*
D18*
X0016200Y0053333D01*
X0012200Y0057333D01*
X0006600Y0057333D01*
X0005000Y0055733D01*
X0005000Y0046933D01*
X0010600Y0041333D01*
X0010600Y0037333D01*
X0009000Y0035733D01*
X0013000Y0031733D01*
X0013000Y0026133D01*
X0013800Y0026133D01*
X0013000Y0026133D02*
X0013000Y0025333D01*
X0017000Y0021333D01*
X0017378Y0020625D01*
X0018600Y0014933D02*
X0025000Y0021333D01*
X0025000Y0027733D01*
X0025169Y0028518D01*
X0025000Y0028533D01*
X0025000Y0031733D01*
X0029000Y0031733D01*
X0037800Y0040533D01*
X0049800Y0040533D01*
X0050600Y0039733D01*
X0050600Y0034133D01*
X0049000Y0032533D01*
X0049000Y0021333D01*
X0048559Y0020546D01*
X0045000Y0022933D02*
X0045000Y0014933D01*
X0048200Y0011733D01*
X0048500Y0011333D01*
X0050600Y0006133D02*
X0043400Y0006133D01*
X0038600Y0010933D01*
X0038500Y0011333D01*
X0036200Y0018933D02*
X0029000Y0011733D01*
X0028500Y0011333D01*
X0036200Y0018933D02*
X0036200Y0021333D01*
X0040200Y0021333D01*
X0040685Y0020546D01*
X0045000Y0022933D02*
X0038600Y0029333D01*
X0037800Y0028533D01*
X0034600Y0028533D01*
X0033831Y0028518D01*
X0029800Y0027733D02*
X0029500Y0028518D01*
X0029800Y0027733D02*
X0036200Y0021333D01*
X0038600Y0029333D02*
X0045800Y0036533D01*
X0046398Y0036955D01*
X0046600Y0044533D02*
X0046398Y0044829D01*
X0046600Y0044533D02*
X0048200Y0044533D01*
X0053800Y0038933D01*
X0053800Y0009333D01*
X0050600Y0006133D01*
X0025000Y0031733D02*
X0017000Y0039733D01*
X0016685Y0039983D01*
X0016200Y0040533D01*
X0009800Y0046933D01*
X0009800Y0052533D01*
X0009031Y0053144D01*
X0016906Y0053144D02*
X0017000Y0052533D01*
X0017000Y0049333D01*
X0024200Y0042133D01*
X0024500Y0041944D01*
X0025000Y0042133D01*
X0033800Y0042133D01*
X0034500Y0041944D01*
X0018600Y0014933D02*
X0018600Y0011733D01*
X0018500Y0011333D01*
X0009504Y0020625D02*
X0009000Y0020533D01*
X0009000Y0011733D01*
X0008500Y0011333D01*
X0009504Y0020625D02*
X0009000Y0021333D01*
X0006600Y0023733D01*
X0006600Y0031733D01*
X0006448Y0032503D01*
X0005800Y0031733D01*
X0002600Y0034933D01*
X0002600Y0038133D01*
X0004200Y0039733D01*
X0005800Y0039733D01*
X0006448Y0039983D01*
X0006448Y0036243D02*
X0006600Y0035733D01*
X0009000Y0035733D01*
D19*
X0013800Y0026133D03*
M02*
