G75*
%MOIN*%
%OFA0B0*%
%FSLAX25Y25*%
%IPPOS*%
%LPD*%
%AMOC8*
5,1,8,0,0,1.08239X$1,22.5*
%
%ADD10C,0.00500*%
%ADD11C,0.01000*%
%ADD12C,0.00400*%
D10*
X0020710Y0028868D02*
X0034490Y0028868D01*
X0034490Y0062332D01*
X0020710Y0062332D01*
X0020710Y0028868D01*
X0024647Y0038907D02*
X0030553Y0038907D01*
X0030553Y0046781D01*
X0024647Y0046781D01*
X0024647Y0044813D01*
X0024647Y0038907D01*
X0024647Y0044813D02*
X0030553Y0044813D01*
X0030553Y0046781D02*
X0030553Y0052687D01*
X0024647Y0052687D01*
X0024647Y0046781D01*
D11*
X0051391Y0041175D02*
X0051391Y0032710D01*
X0053754Y0032710D01*
X0060446Y0032710D02*
X0062809Y0032710D01*
X0062809Y0041175D01*
X0077069Y0030608D02*
X0077069Y0056592D01*
X0081100Y0056592D01*
X0088850Y0056592D02*
X0096850Y0056592D01*
X0104600Y0056592D02*
X0108600Y0056592D01*
X0116475Y0056592D02*
X0123131Y0056592D01*
X0123131Y0030608D02*
X0084850Y0030608D01*
X0067809Y0060525D02*
X0067809Y0068990D01*
X0065446Y0068990D01*
X0058754Y0068990D02*
X0056391Y0068990D01*
X0056391Y0060525D01*
D12*
X0054404Y0060171D02*
X0054404Y0061706D01*
X0053637Y0062473D01*
X0050567Y0059404D01*
X0049800Y0060171D01*
X0049800Y0061706D01*
X0050567Y0062473D01*
X0053637Y0062473D01*
X0054404Y0064008D02*
X0049800Y0064008D01*
X0051335Y0064008D02*
X0054404Y0067077D01*
X0052102Y0064775D02*
X0049800Y0067077D01*
X0054404Y0060171D02*
X0053637Y0059404D01*
X0050567Y0059404D01*
X0049800Y0057869D02*
X0049800Y0054800D01*
X0052869Y0057869D01*
X0053637Y0057869D01*
X0054404Y0057102D01*
X0054404Y0055567D01*
X0053637Y0054800D01*
X0048637Y0045765D02*
X0047869Y0045765D01*
X0047102Y0044998D01*
X0047102Y0043463D01*
X0047869Y0042696D01*
X0048637Y0042696D01*
X0049404Y0043463D01*
X0049404Y0044998D01*
X0048637Y0045765D01*
X0047102Y0044998D02*
X0046335Y0045765D01*
X0045567Y0045765D01*
X0044800Y0044998D01*
X0044800Y0043463D01*
X0045567Y0042696D01*
X0046335Y0042696D01*
X0047102Y0043463D01*
X0044800Y0041161D02*
X0044800Y0038092D01*
X0044800Y0036557D02*
X0046335Y0035023D01*
X0046335Y0035790D02*
X0046335Y0033488D01*
X0044800Y0033488D02*
X0049404Y0033488D01*
X0049404Y0035790D01*
X0048637Y0036557D01*
X0047102Y0036557D01*
X0046335Y0035790D01*
X0047869Y0038092D02*
X0049404Y0039627D01*
X0044800Y0039627D01*
X0064800Y0040394D02*
X0064800Y0038859D01*
X0065567Y0038092D01*
X0068637Y0041161D01*
X0065567Y0041161D01*
X0064800Y0040394D01*
X0065567Y0038092D02*
X0068637Y0038092D01*
X0069404Y0038859D01*
X0069404Y0040394D01*
X0068637Y0041161D01*
X0069404Y0042696D02*
X0064800Y0042696D01*
X0066335Y0042696D02*
X0069404Y0045765D01*
X0067102Y0043463D02*
X0064800Y0045765D01*
X0064800Y0036557D02*
X0064800Y0033488D01*
X0067869Y0036557D01*
X0068637Y0036557D01*
X0069404Y0035790D01*
X0069404Y0034256D01*
X0068637Y0033488D01*
X0069800Y0054800D02*
X0074404Y0054800D01*
X0074404Y0057102D01*
X0073637Y0057869D01*
X0072102Y0057869D01*
X0071335Y0057102D01*
X0071335Y0054800D01*
X0071335Y0056335D02*
X0069800Y0057869D01*
X0069800Y0059404D02*
X0069800Y0062473D01*
X0069800Y0060939D02*
X0074404Y0060939D01*
X0072869Y0059404D01*
X0072869Y0064008D02*
X0072102Y0064775D01*
X0072102Y0067077D01*
X0070567Y0067077D02*
X0073637Y0067077D01*
X0074404Y0066310D01*
X0074404Y0064775D01*
X0073637Y0064008D01*
X0072869Y0064008D01*
X0070567Y0064008D02*
X0069800Y0064775D01*
X0069800Y0066310D01*
X0070567Y0067077D01*
M02*
