G75*
%MOIN*%
%OFA0B0*%
%FSLAX25Y25*%
%IPPOS*%
%LPD*%
%AMOC8*
5,1,8,0,0,1.08239X$1,22.5*
%
%ADD10C,0.00600*%
D10*
X0009471Y0004268D02*
X0009471Y0006536D01*
X0009471Y0004268D02*
X0010605Y0003133D01*
X0011740Y0004268D01*
X0011740Y0006536D01*
X0013154Y0005969D02*
X0013154Y0005402D01*
X0015423Y0003133D01*
X0013154Y0003133D01*
X0013154Y0005969D02*
X0013721Y0006536D01*
X0014856Y0006536D01*
X0015423Y0005969D01*
X0017972Y0006536D02*
X0017972Y0003133D01*
X0019106Y0003133D02*
X0016837Y0003133D01*
X0019106Y0005402D02*
X0017972Y0006536D01*
X0020521Y0004835D02*
X0022789Y0004835D01*
X0024204Y0005402D02*
X0024771Y0004835D01*
X0024204Y0004268D01*
X0024204Y0003700D01*
X0024771Y0003133D01*
X0025905Y0003133D01*
X0026472Y0003700D01*
X0027747Y0003700D02*
X0027747Y0003133D01*
X0028314Y0003133D01*
X0028314Y0003700D01*
X0027747Y0003700D01*
X0029728Y0003700D02*
X0030296Y0003133D01*
X0031430Y0003133D01*
X0031997Y0003700D01*
X0030863Y0004835D02*
X0030296Y0004835D01*
X0029728Y0004268D01*
X0029728Y0003700D01*
X0030296Y0004835D02*
X0029728Y0005402D01*
X0029728Y0005969D01*
X0030296Y0006536D01*
X0031430Y0006536D01*
X0031997Y0005969D01*
X0036955Y0005402D02*
X0036955Y0004835D01*
X0037522Y0004835D01*
X0037522Y0005402D01*
X0036955Y0005402D01*
X0036955Y0003700D02*
X0036955Y0003133D01*
X0037522Y0003133D01*
X0037522Y0003700D01*
X0036955Y0003700D01*
X0038936Y0003133D02*
X0038936Y0006536D01*
X0041205Y0006536D02*
X0038936Y0003133D01*
X0041205Y0003133D02*
X0041205Y0006536D01*
X0042526Y0006536D02*
X0043660Y0006536D01*
X0043093Y0006536D02*
X0043093Y0003133D01*
X0043660Y0003133D02*
X0042526Y0003133D01*
X0045075Y0004268D02*
X0045075Y0006536D01*
X0047343Y0006536D02*
X0047343Y0004268D01*
X0046209Y0003133D01*
X0045075Y0004268D01*
X0026472Y0005969D02*
X0025905Y0006536D01*
X0024771Y0006536D01*
X0024204Y0005969D01*
X0024204Y0005402D01*
X0024771Y0004835D02*
X0025338Y0004835D01*
M02*
