G75*
%MOIN*%
%OFA0B0*%
%FSLAX25Y25*%
%IPPOS*%
%LPD*%
%AMOC8*
5,1,8,0,0,1.08239X$1,22.5*
%
%ADD10C,0.00000*%
D10*
X0001000Y0001333D02*
X0056000Y0001333D01*
X0056000Y0053333D01*
X0055997Y0053575D01*
X0055988Y0053816D01*
X0055974Y0054057D01*
X0055953Y0054298D01*
X0055927Y0054538D01*
X0055895Y0054778D01*
X0055857Y0055017D01*
X0055814Y0055254D01*
X0055764Y0055491D01*
X0055709Y0055726D01*
X0055649Y0055960D01*
X0055582Y0056192D01*
X0055511Y0056423D01*
X0055433Y0056652D01*
X0055350Y0056879D01*
X0055262Y0057104D01*
X0055168Y0057327D01*
X0055069Y0057547D01*
X0054964Y0057765D01*
X0054855Y0057980D01*
X0054740Y0058193D01*
X0054620Y0058403D01*
X0054495Y0058609D01*
X0054365Y0058813D01*
X0054230Y0059014D01*
X0054090Y0059211D01*
X0053946Y0059405D01*
X0053797Y0059595D01*
X0053643Y0059781D01*
X0053485Y0059964D01*
X0053323Y0060143D01*
X0053156Y0060318D01*
X0052985Y0060489D01*
X0052810Y0060656D01*
X0052631Y0060818D01*
X0052448Y0060976D01*
X0052262Y0061130D01*
X0052072Y0061279D01*
X0051878Y0061423D01*
X0051681Y0061563D01*
X0051480Y0061698D01*
X0051276Y0061828D01*
X0051070Y0061953D01*
X0050860Y0062073D01*
X0050647Y0062188D01*
X0050432Y0062297D01*
X0050214Y0062402D01*
X0049994Y0062501D01*
X0049771Y0062595D01*
X0049546Y0062683D01*
X0049319Y0062766D01*
X0049090Y0062844D01*
X0048859Y0062915D01*
X0048627Y0062982D01*
X0048393Y0063042D01*
X0048158Y0063097D01*
X0047921Y0063147D01*
X0047684Y0063190D01*
X0047445Y0063228D01*
X0047205Y0063260D01*
X0046965Y0063286D01*
X0046724Y0063307D01*
X0046483Y0063321D01*
X0046242Y0063330D01*
X0046000Y0063333D01*
X0011000Y0063333D01*
X0010758Y0063330D01*
X0010517Y0063321D01*
X0010276Y0063307D01*
X0010035Y0063286D01*
X0009795Y0063260D01*
X0009555Y0063228D01*
X0009316Y0063190D01*
X0009079Y0063147D01*
X0008842Y0063097D01*
X0008607Y0063042D01*
X0008373Y0062982D01*
X0008141Y0062915D01*
X0007910Y0062844D01*
X0007681Y0062766D01*
X0007454Y0062683D01*
X0007229Y0062595D01*
X0007006Y0062501D01*
X0006786Y0062402D01*
X0006568Y0062297D01*
X0006353Y0062188D01*
X0006140Y0062073D01*
X0005930Y0061953D01*
X0005724Y0061828D01*
X0005520Y0061698D01*
X0005319Y0061563D01*
X0005122Y0061423D01*
X0004928Y0061279D01*
X0004738Y0061130D01*
X0004552Y0060976D01*
X0004369Y0060818D01*
X0004190Y0060656D01*
X0004015Y0060489D01*
X0003844Y0060318D01*
X0003677Y0060143D01*
X0003515Y0059964D01*
X0003357Y0059781D01*
X0003203Y0059595D01*
X0003054Y0059405D01*
X0002910Y0059211D01*
X0002770Y0059014D01*
X0002635Y0058813D01*
X0002505Y0058609D01*
X0002380Y0058403D01*
X0002260Y0058193D01*
X0002145Y0057980D01*
X0002036Y0057765D01*
X0001931Y0057547D01*
X0001832Y0057327D01*
X0001738Y0057104D01*
X0001650Y0056879D01*
X0001567Y0056652D01*
X0001489Y0056423D01*
X0001418Y0056192D01*
X0001351Y0055960D01*
X0001291Y0055726D01*
X0001236Y0055491D01*
X0001186Y0055254D01*
X0001143Y0055017D01*
X0001105Y0054778D01*
X0001073Y0054538D01*
X0001047Y0054298D01*
X0001026Y0054057D01*
X0001012Y0053816D01*
X0001003Y0053575D01*
X0001000Y0053333D01*
X0001000Y0001333D01*
X0027827Y0038833D02*
X0027829Y0038914D01*
X0027835Y0038996D01*
X0027845Y0039077D01*
X0027859Y0039157D01*
X0027876Y0039236D01*
X0027898Y0039315D01*
X0027923Y0039392D01*
X0027952Y0039469D01*
X0027985Y0039543D01*
X0028022Y0039616D01*
X0028061Y0039687D01*
X0028105Y0039756D01*
X0028151Y0039823D01*
X0028201Y0039887D01*
X0028254Y0039949D01*
X0028310Y0040009D01*
X0028368Y0040065D01*
X0028430Y0040119D01*
X0028494Y0040170D01*
X0028560Y0040217D01*
X0028628Y0040261D01*
X0028699Y0040302D01*
X0028771Y0040339D01*
X0028846Y0040373D01*
X0028921Y0040403D01*
X0028999Y0040429D01*
X0029077Y0040452D01*
X0029156Y0040470D01*
X0029236Y0040485D01*
X0029317Y0040496D01*
X0029398Y0040503D01*
X0029480Y0040506D01*
X0029561Y0040505D01*
X0029642Y0040500D01*
X0029723Y0040491D01*
X0029804Y0040478D01*
X0029884Y0040461D01*
X0029962Y0040441D01*
X0030040Y0040416D01*
X0030117Y0040388D01*
X0030192Y0040356D01*
X0030265Y0040321D01*
X0030336Y0040282D01*
X0030406Y0040239D01*
X0030473Y0040194D01*
X0030539Y0040145D01*
X0030601Y0040093D01*
X0030661Y0040037D01*
X0030718Y0039979D01*
X0030773Y0039919D01*
X0030824Y0039855D01*
X0030872Y0039790D01*
X0030917Y0039722D01*
X0030959Y0039652D01*
X0030997Y0039580D01*
X0031032Y0039506D01*
X0031063Y0039431D01*
X0031090Y0039354D01*
X0031113Y0039276D01*
X0031133Y0039197D01*
X0031149Y0039117D01*
X0031161Y0039036D01*
X0031169Y0038955D01*
X0031173Y0038874D01*
X0031173Y0038792D01*
X0031169Y0038711D01*
X0031161Y0038630D01*
X0031149Y0038549D01*
X0031133Y0038469D01*
X0031113Y0038390D01*
X0031090Y0038312D01*
X0031063Y0038235D01*
X0031032Y0038160D01*
X0030997Y0038086D01*
X0030959Y0038014D01*
X0030917Y0037944D01*
X0030872Y0037876D01*
X0030824Y0037811D01*
X0030773Y0037747D01*
X0030718Y0037687D01*
X0030661Y0037629D01*
X0030601Y0037573D01*
X0030539Y0037521D01*
X0030473Y0037472D01*
X0030406Y0037427D01*
X0030337Y0037384D01*
X0030265Y0037345D01*
X0030192Y0037310D01*
X0030117Y0037278D01*
X0030040Y0037250D01*
X0029962Y0037225D01*
X0029884Y0037205D01*
X0029804Y0037188D01*
X0029723Y0037175D01*
X0029642Y0037166D01*
X0029561Y0037161D01*
X0029480Y0037160D01*
X0029398Y0037163D01*
X0029317Y0037170D01*
X0029236Y0037181D01*
X0029156Y0037196D01*
X0029077Y0037214D01*
X0028999Y0037237D01*
X0028921Y0037263D01*
X0028846Y0037293D01*
X0028771Y0037327D01*
X0028699Y0037364D01*
X0028628Y0037405D01*
X0028560Y0037449D01*
X0028494Y0037496D01*
X0028430Y0037547D01*
X0028368Y0037601D01*
X0028310Y0037657D01*
X0028254Y0037717D01*
X0028201Y0037779D01*
X0028151Y0037843D01*
X0028105Y0037910D01*
X0028061Y0037979D01*
X0028022Y0038050D01*
X0027985Y0038123D01*
X0027952Y0038197D01*
X0027923Y0038274D01*
X0027898Y0038351D01*
X0027876Y0038430D01*
X0027859Y0038509D01*
X0027845Y0038589D01*
X0027835Y0038670D01*
X0027829Y0038752D01*
X0027827Y0038833D01*
M02*
