G75*
%MOIN*%
%OFA0B0*%
%FSLAX25Y25*%
%IPPOS*%
%LPD*%
%AMOC8*
5,1,8,0,0,1.08239X$1,22.5*
%
%ADD10C,0.10643*%
%ADD11C,0.08200*%
%ADD12C,0.07531*%
%ADD13R,0.11824X0.11824*%
%ADD14OC8,0.06400*%
%ADD15R,0.05524X0.06312*%
%ADD16C,0.04343*%
%ADD17C,0.04146*%
%ADD18R,0.09461X0.10643*%
%ADD19R,0.11824X0.10643*%
%ADD20R,0.10643X0.11824*%
%ADD21C,0.07493*%
%ADD22C,0.03800*%
D10*
X0023054Y0013394D03*
X0023054Y0107882D03*
X0200219Y0107882D03*
X0200219Y0013394D03*
D11*
X0202928Y0043689D03*
X0203928Y0053689D03*
X0202928Y0063689D03*
X0203928Y0073689D03*
X0202928Y0083689D03*
X0030435Y0090354D03*
X0019035Y0090354D03*
D12*
X0093920Y0017331D03*
X0101794Y0017331D03*
X0109668Y0017331D03*
X0117542Y0017331D03*
X0125416Y0017331D03*
X0133290Y0017331D03*
D13*
X0140376Y0060638D03*
X0086833Y0060638D03*
D14*
X0156325Y0065638D03*
X0156325Y0055638D03*
X0176597Y0055638D03*
X0176597Y0065638D03*
D15*
X0080160Y0117787D03*
X0060475Y0117787D03*
X0070317Y0100465D03*
D16*
X0056931Y0109126D03*
X0083703Y0109126D03*
D17*
X0106124Y0103114D03*
X0121085Y0103114D03*
D18*
X0028172Y0045480D03*
X0020691Y0075795D03*
D19*
X0057306Y0075795D03*
D20*
X0073644Y0057685D03*
D21*
X0052581Y0060638D03*
X0025022Y0060638D03*
D22*
X0041243Y0052583D03*
X0056843Y0040583D03*
X0060443Y0040583D03*
X0042443Y0025583D03*
X0020243Y0039383D03*
X0043043Y0009983D03*
X0067043Y0008183D03*
X0097043Y0005183D03*
X0141443Y0005183D03*
X0179843Y0018983D03*
X0163643Y0033383D03*
X0157043Y0043583D03*
X0169043Y0048983D03*
X0179243Y0040583D03*
X0154643Y0070583D03*
X0159443Y0072983D03*
X0148643Y0086783D03*
X0134243Y0073583D03*
X0120443Y0082583D03*
X0116243Y0087383D03*
X0121643Y0098183D03*
X0103643Y0099983D03*
X0092843Y0088583D03*
X0067643Y0082583D03*
X0064043Y0082583D03*
X0097643Y0068783D03*
X0116243Y0065183D03*
X0116243Y0059183D03*
X0097043Y0045383D03*
X0085043Y0037583D03*
X0104843Y0033983D03*
X0121043Y0039383D03*
X0121043Y0044183D03*
M02*
