G75*
%MOIN*%
%OFA0B0*%
%FSLAX25Y25*%
%IPPOS*%
%LPD*%
%AMOC8*
5,1,8,0,0,1.08239X$1,22.5*
%
%ADD10C,0.10643*%
%ADD11C,0.08200*%
%ADD12C,0.07531*%
%ADD13R,0.12800X0.12800*%
%ADD14OC8,0.06400*%
%ADD15R,0.09461X0.10643*%
%ADD16R,0.11824X0.10643*%
%ADD17R,0.10643X0.11824*%
%ADD18C,0.07493*%
%ADD19R,0.05524X0.06312*%
%ADD20C,0.04343*%
%ADD21C,0.04146*%
%ADD22C,0.04400*%
D10*
X0023054Y0013111D03*
X0023054Y0107599D03*
X0196282Y0107599D03*
X0196282Y0013111D03*
D11*
X0202140Y0042225D03*
X0203140Y0052225D03*
X0202140Y0062225D03*
X0203140Y0072225D03*
X0202140Y0082225D03*
X0017148Y0086427D03*
X0017148Y0097827D03*
D12*
X0093920Y0017048D03*
X0101794Y0017048D03*
X0109668Y0017048D03*
X0117542Y0017048D03*
X0125416Y0017048D03*
X0133290Y0017048D03*
D13*
X0140376Y0060355D03*
X0086833Y0060355D03*
D14*
X0156912Y0064961D03*
X0156912Y0054961D03*
X0176597Y0055355D03*
X0176597Y0065355D03*
D15*
X0028172Y0045198D03*
X0020691Y0075513D03*
D16*
X0057306Y0075513D03*
D17*
X0073644Y0057402D03*
D18*
X0052581Y0060355D03*
X0025022Y0060355D03*
D19*
X0070691Y0099725D03*
X0060849Y0117048D03*
X0080534Y0117048D03*
D20*
X0084077Y0108387D03*
X0057306Y0108387D03*
D21*
X0111636Y0102875D03*
X0126597Y0102875D03*
D22*
X0120443Y0102700D03*
X0121043Y0093700D03*
X0131843Y0087100D03*
X0136043Y0087100D03*
X0145043Y0082900D03*
X0136043Y0078700D03*
X0140243Y0070900D03*
X0126443Y0063700D03*
X0112643Y0070900D03*
X0101843Y0084100D03*
X0094043Y0101500D03*
X0085643Y0101500D03*
X0079643Y0108700D03*
X0067043Y0086500D03*
X0073643Y0078700D03*
X0060443Y0054100D03*
X0058643Y0045700D03*
X0068843Y0045100D03*
X0083243Y0030100D03*
X0072443Y0025900D03*
X0066443Y0022900D03*
X0046043Y0037300D03*
X0031043Y0061300D03*
X0032843Y0086500D03*
X0103043Y0040300D03*
X0094643Y0034900D03*
X0119243Y0044500D03*
X0122843Y0047500D03*
X0157643Y0045100D03*
X0157643Y0037900D03*
X0168443Y0033100D03*
X0183443Y0054100D03*
X0161243Y0079900D03*
X0167243Y0086500D03*
X0171443Y0090700D03*
X0140843Y0096100D03*
M02*
