G75*
%MOIN*%
%OFA0B0*%
%FSLAX25Y25*%
%IPPOS*%
%LPD*%
%AMOC8*
5,1,8,0,0,1.08239X$1,22.5*
%
%ADD10C,0.10643*%
%ADD11C,0.08200*%
%ADD12R,0.04737X0.05131*%
%ADD13C,0.07531*%
%ADD14R,0.12800X0.12800*%
%ADD15OC8,0.06400*%
%ADD16R,0.06587X0.05800*%
%ADD17R,0.01772X0.04331*%
%ADD18R,0.05918X0.06706*%
%ADD19R,0.05524X0.02965*%
%ADD20C,0.07493*%
%ADD21R,0.17335X0.06312*%
%ADD22R,0.07099X0.07887*%
%ADD23R,0.05131X0.04737*%
%ADD24C,0.04343*%
%ADD25R,0.02000X0.01400*%
%ADD26R,0.03875X0.06509*%
%ADD27R,0.03800X0.06509*%
%ADD28C,0.04146*%
%ADD29R,0.07874X0.06693*%
%ADD30R,0.10630X0.06693*%
%ADD31R,0.01981X0.04556*%
%ADD32R,0.03517X0.05524*%
%ADD33R,0.02965X0.03950*%
%ADD34R,0.09461X0.03162*%
%ADD35R,0.05131X0.06312*%
%ADD36R,0.09461X0.07099*%
%ADD37R,0.09461X0.06312*%
%ADD38C,0.04400*%
D10*
X0023054Y0013111D03*
X0023054Y0107599D03*
X0196282Y0107599D03*
X0196282Y0013111D03*
D11*
X0202140Y0042225D03*
X0203140Y0052225D03*
X0202140Y0062225D03*
X0203140Y0072225D03*
X0202140Y0082225D03*
X0017148Y0086427D03*
X0017148Y0097827D03*
D12*
X0055376Y0098375D03*
X0062069Y0098375D03*
X0073849Y0074095D03*
X0080542Y0074095D03*
X0109683Y0091954D03*
X0116376Y0091954D03*
X0125983Y0092213D03*
X0132676Y0092213D03*
X0161439Y0074922D03*
X0168132Y0074922D03*
X0181124Y0074528D03*
X0187817Y0074528D03*
X0187030Y0045001D03*
X0180337Y0045001D03*
X0180097Y0032808D03*
X0173404Y0032808D03*
X0163802Y0033190D03*
X0157109Y0033190D03*
X0133093Y0028820D03*
X0126400Y0028820D03*
X0129156Y0071379D03*
X0135849Y0071379D03*
X0161833Y0112324D03*
X0168526Y0112324D03*
X0042400Y0060761D03*
X0035707Y0060761D03*
X0025957Y0046428D03*
X0019264Y0046428D03*
X0019274Y0034036D03*
X0025967Y0034036D03*
X0041124Y0026477D03*
X0047817Y0026477D03*
D13*
X0093920Y0017048D03*
X0101794Y0017048D03*
X0109668Y0017048D03*
X0117542Y0017048D03*
X0125416Y0017048D03*
X0133290Y0017048D03*
D14*
X0140376Y0060355D03*
X0086833Y0060355D03*
D15*
X0156912Y0064961D03*
X0156912Y0054961D03*
X0176597Y0055355D03*
X0176597Y0065355D03*
D16*
X0077880Y0045080D03*
X0077880Y0028150D03*
D17*
X0094117Y0089072D03*
X0096676Y0089072D03*
X0099235Y0089072D03*
X0101794Y0089072D03*
X0101794Y0106394D03*
X0099235Y0106394D03*
X0096676Y0106394D03*
X0094117Y0106394D03*
D18*
X0080628Y0098158D03*
X0073935Y0098158D03*
D19*
X0063861Y0048741D03*
X0063861Y0045001D03*
X0063861Y0041261D03*
X0053624Y0041261D03*
X0053624Y0048741D03*
D20*
X0052581Y0060355D03*
X0025022Y0060355D03*
D21*
X0043920Y0073938D03*
X0043920Y0088505D03*
D22*
X0047069Y0107993D03*
X0036046Y0107993D03*
D23*
X0074038Y0085946D03*
X0080731Y0085946D03*
X0116951Y0080828D03*
X0123644Y0080828D03*
X0145691Y0075316D03*
X0152384Y0075316D03*
X0152266Y0087757D03*
X0145573Y0087757D03*
X0177581Y0111930D03*
X0184274Y0111930D03*
X0101203Y0046576D03*
X0094510Y0046576D03*
X0127581Y0045001D03*
X0134274Y0045001D03*
X0144117Y0044607D03*
X0150809Y0044607D03*
X0165455Y0045237D03*
X0172148Y0045237D03*
X0047857Y0012402D03*
X0041164Y0012402D03*
D24*
X0057306Y0108387D03*
X0084077Y0108387D03*
D25*
X0116557Y0105808D03*
X0119117Y0105808D03*
X0121676Y0105808D03*
D26*
X0125235Y0100808D03*
D27*
X0112998Y0100808D03*
D28*
X0111636Y0102875D03*
X0126597Y0102875D03*
D29*
X0133620Y0111536D03*
X0104613Y0111536D03*
D30*
X0119117Y0111536D03*
D31*
X0162817Y0096520D03*
X0164786Y0096520D03*
X0166754Y0096520D03*
X0166754Y0091120D03*
X0164786Y0091120D03*
X0162817Y0091120D03*
D32*
X0151597Y0100119D03*
X0147857Y0100119D03*
X0144117Y0100119D03*
X0144117Y0110356D03*
X0151597Y0110356D03*
D33*
X0176006Y0096969D03*
X0179746Y0096969D03*
X0183487Y0096969D03*
X0183487Y0087520D03*
X0179746Y0087520D03*
X0176006Y0087520D03*
D34*
X0119904Y0071005D03*
X0119904Y0066005D03*
X0119904Y0061005D03*
X0119904Y0056005D03*
X0099431Y0056005D03*
X0099431Y0061005D03*
X0099431Y0066005D03*
X0099431Y0071005D03*
D35*
X0101006Y0029253D03*
X0093132Y0029253D03*
D36*
X0112030Y0029646D03*
X0112030Y0040670D03*
D37*
X0144707Y0012324D03*
X0157306Y0012324D03*
X0169117Y0012324D03*
X0181715Y0012324D03*
X0078959Y0012324D03*
X0066361Y0012324D03*
D38*
X0066443Y0022900D03*
X0072443Y0025900D03*
X0083243Y0030100D03*
X0094643Y0034900D03*
X0103043Y0040300D03*
X0119243Y0044500D03*
X0122843Y0047500D03*
X0126443Y0063700D03*
X0140243Y0070900D03*
X0136043Y0078700D03*
X0145043Y0082900D03*
X0136043Y0087100D03*
X0131843Y0087100D03*
X0121043Y0093700D03*
X0120443Y0102700D03*
X0140843Y0096100D03*
X0161243Y0079900D03*
X0167243Y0086500D03*
X0171443Y0090700D03*
X0183443Y0054100D03*
X0157643Y0045100D03*
X0157643Y0037900D03*
X0168443Y0033100D03*
X0112643Y0070900D03*
X0101843Y0084100D03*
X0094043Y0101500D03*
X0085643Y0101500D03*
X0079643Y0108700D03*
X0067043Y0086500D03*
X0073643Y0078700D03*
X0060443Y0054100D03*
X0058643Y0045700D03*
X0068843Y0045100D03*
X0046043Y0037300D03*
X0031043Y0061300D03*
X0032843Y0086500D03*
M02*
