G75*
%MOIN*%
%OFA0B0*%
%FSLAX25Y25*%
%IPPOS*%
%LPD*%
%AMOC8*
5,1,8,0,0,1.08239X$1,22.5*
%
%ADD10R,0.03937X0.04331*%
%ADD11R,0.05787X0.05000*%
%ADD12R,0.01575X0.03937*%
%ADD13R,0.05118X0.05906*%
%ADD14R,0.04724X0.02165*%
%ADD15R,0.16535X0.05512*%
%ADD16R,0.06299X0.07087*%
%ADD17R,0.04331X0.03937*%
%ADD18R,0.03075X0.05709*%
%ADD19R,0.03000X0.05709*%
%ADD20R,0.07087X0.05906*%
%ADD21R,0.05906X0.02756*%
%ADD22R,0.02717X0.04724*%
%ADD23R,0.02165X0.03150*%
%ADD24R,0.08661X0.02362*%
%ADD25R,0.04331X0.05512*%
%ADD26R,0.08661X0.06299*%
%ADD27R,0.08661X0.05512*%
D10*
X0041124Y0026477D03*
X0047817Y0026477D03*
X0025967Y0034036D03*
X0019274Y0034036D03*
X0019264Y0046428D03*
X0025957Y0046428D03*
X0035707Y0060761D03*
X0042400Y0060761D03*
X0073849Y0074095D03*
X0080542Y0074095D03*
X0109683Y0091954D03*
X0116376Y0091954D03*
X0125983Y0092213D03*
X0132676Y0092213D03*
X0161439Y0074922D03*
X0168132Y0074922D03*
X0181124Y0074528D03*
X0187817Y0074528D03*
X0187030Y0045001D03*
X0180337Y0045001D03*
X0180097Y0032808D03*
X0173404Y0032808D03*
X0163802Y0033190D03*
X0157109Y0033190D03*
X0133093Y0028820D03*
X0126400Y0028820D03*
X0129156Y0071379D03*
X0135849Y0071379D03*
X0161833Y0112324D03*
X0168526Y0112324D03*
X0062069Y0098375D03*
X0055376Y0098375D03*
D11*
X0077880Y0045080D03*
X0077880Y0028150D03*
D12*
X0094117Y0089072D03*
X0096676Y0089072D03*
X0099235Y0089072D03*
X0101794Y0089072D03*
X0101794Y0106394D03*
X0099235Y0106394D03*
X0096676Y0106394D03*
X0094117Y0106394D03*
D13*
X0080628Y0098158D03*
X0073935Y0098158D03*
D14*
X0063861Y0048741D03*
X0063861Y0045001D03*
X0063861Y0041261D03*
X0053624Y0041261D03*
X0053624Y0048741D03*
D15*
X0043920Y0073938D03*
X0043920Y0088505D03*
D16*
X0047069Y0107993D03*
X0036046Y0107993D03*
D17*
X0041164Y0012402D03*
X0047857Y0012402D03*
X0094510Y0046576D03*
X0101203Y0046576D03*
X0127581Y0045001D03*
X0134274Y0045001D03*
X0144117Y0044607D03*
X0150809Y0044607D03*
X0165455Y0045237D03*
X0172148Y0045237D03*
X0152384Y0075316D03*
X0145691Y0075316D03*
X0145573Y0087757D03*
X0152266Y0087757D03*
X0123644Y0080828D03*
X0116951Y0080828D03*
X0080731Y0085946D03*
X0074038Y0085946D03*
X0177581Y0111930D03*
X0184274Y0111930D03*
D18*
X0125235Y0100808D03*
D19*
X0112998Y0100808D03*
D20*
X0104613Y0111536D03*
X0133620Y0111536D03*
D21*
X0119117Y0111536D03*
D22*
X0144117Y0110356D03*
X0151597Y0110356D03*
X0151597Y0100119D03*
X0147857Y0100119D03*
X0144117Y0100119D03*
D23*
X0176006Y0096969D03*
X0179746Y0096969D03*
X0183487Y0096969D03*
X0183487Y0087520D03*
X0179746Y0087520D03*
X0176006Y0087520D03*
D24*
X0119904Y0071005D03*
X0119904Y0066005D03*
X0119904Y0061005D03*
X0119904Y0056005D03*
X0099431Y0056005D03*
X0099431Y0061005D03*
X0099431Y0066005D03*
X0099431Y0071005D03*
D25*
X0101006Y0029253D03*
X0093132Y0029253D03*
D26*
X0112030Y0029646D03*
X0112030Y0040670D03*
D27*
X0144707Y0012324D03*
X0157306Y0012324D03*
X0169117Y0012324D03*
X0181715Y0012324D03*
X0078959Y0012324D03*
X0066361Y0012324D03*
M02*
