G75*
%MOIN*%
%OFA0B0*%
%FSLAX25Y25*%
%IPPOS*%
%LPD*%
%AMOC8*
5,1,8,0,0,1.08239X$1,22.5*
%
%ADD10C,0.00800*%
%ADD11C,0.00400*%
%ADD12C,0.00500*%
%ADD13C,0.00276*%
%ADD14R,0.03937X0.05906*%
%ADD15R,0.05906X0.05906*%
D10*
X0011243Y0048827D02*
X0011243Y0050795D01*
X0002384Y0050795D01*
X0001400Y0051780D01*
X0001400Y0069496D01*
X0002384Y0070480D01*
X0011243Y0070480D01*
X0011243Y0072449D01*
X0068329Y0072449D01*
X0068329Y0048827D01*
X0011243Y0048827D01*
X0011243Y0050795D02*
X0011243Y0070480D01*
X0017235Y0085354D02*
X0022235Y0085354D01*
X0024735Y0087854D01*
X0027235Y0085354D01*
X0032235Y0085354D01*
X0034735Y0087854D01*
X0034735Y0092854D01*
X0032235Y0095354D01*
X0027235Y0095354D01*
X0024735Y0092854D01*
X0022235Y0095354D01*
X0017235Y0095354D01*
X0014735Y0092854D01*
X0014735Y0087854D01*
X0017235Y0085354D01*
X0089392Y0083669D02*
X0089392Y0071071D01*
X0089392Y0083669D02*
X0091557Y0083669D01*
X0091557Y0085835D01*
X0135652Y0085835D01*
X0135652Y0083669D01*
X0137817Y0083669D01*
X0137817Y0071071D01*
X0104353Y0060638D02*
X0104356Y0060865D01*
X0104364Y0061092D01*
X0104378Y0061319D01*
X0104398Y0061545D01*
X0104423Y0061771D01*
X0104453Y0061996D01*
X0104489Y0062220D01*
X0104531Y0062443D01*
X0104578Y0062665D01*
X0104630Y0062886D01*
X0104688Y0063106D01*
X0104751Y0063324D01*
X0104820Y0063540D01*
X0104894Y0063755D01*
X0104973Y0063968D01*
X0105057Y0064179D01*
X0105147Y0064387D01*
X0105241Y0064594D01*
X0105341Y0064798D01*
X0105445Y0064999D01*
X0105555Y0065198D01*
X0105669Y0065394D01*
X0105788Y0065588D01*
X0105912Y0065778D01*
X0106041Y0065965D01*
X0106174Y0066149D01*
X0106311Y0066330D01*
X0106453Y0066507D01*
X0106599Y0066681D01*
X0106750Y0066851D01*
X0106904Y0067018D01*
X0107063Y0067180D01*
X0107225Y0067339D01*
X0107392Y0067493D01*
X0107562Y0067644D01*
X0107736Y0067790D01*
X0107913Y0067932D01*
X0108094Y0068069D01*
X0108278Y0068202D01*
X0108465Y0068331D01*
X0108655Y0068455D01*
X0108849Y0068574D01*
X0109045Y0068688D01*
X0109244Y0068798D01*
X0109445Y0068902D01*
X0109649Y0069002D01*
X0109856Y0069096D01*
X0110064Y0069186D01*
X0110275Y0069270D01*
X0110488Y0069349D01*
X0110703Y0069423D01*
X0110919Y0069492D01*
X0111137Y0069555D01*
X0111357Y0069613D01*
X0111578Y0069665D01*
X0111800Y0069712D01*
X0112023Y0069754D01*
X0112247Y0069790D01*
X0112472Y0069820D01*
X0112698Y0069845D01*
X0112924Y0069865D01*
X0113151Y0069879D01*
X0113378Y0069887D01*
X0113605Y0069890D01*
X0113832Y0069887D01*
X0114059Y0069879D01*
X0114286Y0069865D01*
X0114512Y0069845D01*
X0114738Y0069820D01*
X0114963Y0069790D01*
X0115187Y0069754D01*
X0115410Y0069712D01*
X0115632Y0069665D01*
X0115853Y0069613D01*
X0116073Y0069555D01*
X0116291Y0069492D01*
X0116507Y0069423D01*
X0116722Y0069349D01*
X0116935Y0069270D01*
X0117146Y0069186D01*
X0117354Y0069096D01*
X0117561Y0069002D01*
X0117765Y0068902D01*
X0117966Y0068798D01*
X0118165Y0068688D01*
X0118361Y0068574D01*
X0118555Y0068455D01*
X0118745Y0068331D01*
X0118932Y0068202D01*
X0119116Y0068069D01*
X0119297Y0067932D01*
X0119474Y0067790D01*
X0119648Y0067644D01*
X0119818Y0067493D01*
X0119985Y0067339D01*
X0120147Y0067180D01*
X0120306Y0067018D01*
X0120460Y0066851D01*
X0120611Y0066681D01*
X0120757Y0066507D01*
X0120899Y0066330D01*
X0121036Y0066149D01*
X0121169Y0065965D01*
X0121298Y0065778D01*
X0121422Y0065588D01*
X0121541Y0065394D01*
X0121655Y0065198D01*
X0121765Y0064999D01*
X0121869Y0064798D01*
X0121969Y0064594D01*
X0122063Y0064387D01*
X0122153Y0064179D01*
X0122237Y0063968D01*
X0122316Y0063755D01*
X0122390Y0063540D01*
X0122459Y0063324D01*
X0122522Y0063106D01*
X0122580Y0062886D01*
X0122632Y0062665D01*
X0122679Y0062443D01*
X0122721Y0062220D01*
X0122757Y0061996D01*
X0122787Y0061771D01*
X0122812Y0061545D01*
X0122832Y0061319D01*
X0122846Y0061092D01*
X0122854Y0060865D01*
X0122857Y0060638D01*
X0122854Y0060411D01*
X0122846Y0060184D01*
X0122832Y0059957D01*
X0122812Y0059731D01*
X0122787Y0059505D01*
X0122757Y0059280D01*
X0122721Y0059056D01*
X0122679Y0058833D01*
X0122632Y0058611D01*
X0122580Y0058390D01*
X0122522Y0058170D01*
X0122459Y0057952D01*
X0122390Y0057736D01*
X0122316Y0057521D01*
X0122237Y0057308D01*
X0122153Y0057097D01*
X0122063Y0056889D01*
X0121969Y0056682D01*
X0121869Y0056478D01*
X0121765Y0056277D01*
X0121655Y0056078D01*
X0121541Y0055882D01*
X0121422Y0055688D01*
X0121298Y0055498D01*
X0121169Y0055311D01*
X0121036Y0055127D01*
X0120899Y0054946D01*
X0120757Y0054769D01*
X0120611Y0054595D01*
X0120460Y0054425D01*
X0120306Y0054258D01*
X0120147Y0054096D01*
X0119985Y0053937D01*
X0119818Y0053783D01*
X0119648Y0053632D01*
X0119474Y0053486D01*
X0119297Y0053344D01*
X0119116Y0053207D01*
X0118932Y0053074D01*
X0118745Y0052945D01*
X0118555Y0052821D01*
X0118361Y0052702D01*
X0118165Y0052588D01*
X0117966Y0052478D01*
X0117765Y0052374D01*
X0117561Y0052274D01*
X0117354Y0052180D01*
X0117146Y0052090D01*
X0116935Y0052006D01*
X0116722Y0051927D01*
X0116507Y0051853D01*
X0116291Y0051784D01*
X0116073Y0051721D01*
X0115853Y0051663D01*
X0115632Y0051611D01*
X0115410Y0051564D01*
X0115187Y0051522D01*
X0114963Y0051486D01*
X0114738Y0051456D01*
X0114512Y0051431D01*
X0114286Y0051411D01*
X0114059Y0051397D01*
X0113832Y0051389D01*
X0113605Y0051386D01*
X0113378Y0051389D01*
X0113151Y0051397D01*
X0112924Y0051411D01*
X0112698Y0051431D01*
X0112472Y0051456D01*
X0112247Y0051486D01*
X0112023Y0051522D01*
X0111800Y0051564D01*
X0111578Y0051611D01*
X0111357Y0051663D01*
X0111137Y0051721D01*
X0110919Y0051784D01*
X0110703Y0051853D01*
X0110488Y0051927D01*
X0110275Y0052006D01*
X0110064Y0052090D01*
X0109856Y0052180D01*
X0109649Y0052274D01*
X0109445Y0052374D01*
X0109244Y0052478D01*
X0109045Y0052588D01*
X0108849Y0052702D01*
X0108655Y0052821D01*
X0108465Y0052945D01*
X0108278Y0053074D01*
X0108094Y0053207D01*
X0107913Y0053344D01*
X0107736Y0053486D01*
X0107562Y0053632D01*
X0107392Y0053783D01*
X0107225Y0053937D01*
X0107063Y0054096D01*
X0106904Y0054258D01*
X0106750Y0054425D01*
X0106599Y0054595D01*
X0106453Y0054769D01*
X0106311Y0054946D01*
X0106174Y0055127D01*
X0106041Y0055311D01*
X0105912Y0055498D01*
X0105788Y0055688D01*
X0105669Y0055882D01*
X0105555Y0056078D01*
X0105445Y0056277D01*
X0105341Y0056478D01*
X0105241Y0056682D01*
X0105147Y0056889D01*
X0105057Y0057097D01*
X0104973Y0057308D01*
X0104894Y0057521D01*
X0104820Y0057736D01*
X0104751Y0057952D01*
X0104688Y0058170D01*
X0104630Y0058390D01*
X0104578Y0058611D01*
X0104531Y0058833D01*
X0104489Y0059056D01*
X0104453Y0059280D01*
X0104423Y0059505D01*
X0104398Y0059731D01*
X0104378Y0059957D01*
X0104364Y0060184D01*
X0104356Y0060411D01*
X0104353Y0060638D01*
X0102188Y0060638D02*
X0102191Y0060918D01*
X0102202Y0061198D01*
X0102219Y0061478D01*
X0102243Y0061757D01*
X0102274Y0062036D01*
X0102312Y0062313D01*
X0102356Y0062590D01*
X0102407Y0062865D01*
X0102465Y0063139D01*
X0102530Y0063412D01*
X0102602Y0063683D01*
X0102680Y0063952D01*
X0102764Y0064219D01*
X0102855Y0064484D01*
X0102953Y0064747D01*
X0103057Y0065007D01*
X0103167Y0065265D01*
X0103284Y0065519D01*
X0103407Y0065771D01*
X0103536Y0066020D01*
X0103671Y0066265D01*
X0103812Y0066508D01*
X0103959Y0066746D01*
X0104112Y0066981D01*
X0104271Y0067212D01*
X0104435Y0067439D01*
X0104604Y0067662D01*
X0104780Y0067881D01*
X0104960Y0068095D01*
X0105146Y0068305D01*
X0105336Y0068510D01*
X0105532Y0068711D01*
X0105733Y0068907D01*
X0105938Y0069097D01*
X0106148Y0069283D01*
X0106362Y0069463D01*
X0106581Y0069639D01*
X0106804Y0069808D01*
X0107031Y0069972D01*
X0107262Y0070131D01*
X0107497Y0070284D01*
X0107735Y0070431D01*
X0107978Y0070572D01*
X0108223Y0070707D01*
X0108472Y0070836D01*
X0108724Y0070959D01*
X0108978Y0071076D01*
X0109236Y0071186D01*
X0109496Y0071290D01*
X0109759Y0071388D01*
X0110024Y0071479D01*
X0110291Y0071563D01*
X0110560Y0071641D01*
X0110831Y0071713D01*
X0111104Y0071778D01*
X0111378Y0071836D01*
X0111653Y0071887D01*
X0111930Y0071931D01*
X0112207Y0071969D01*
X0112486Y0072000D01*
X0112765Y0072024D01*
X0113045Y0072041D01*
X0113325Y0072052D01*
X0113605Y0072055D01*
X0113885Y0072052D01*
X0114165Y0072041D01*
X0114445Y0072024D01*
X0114724Y0072000D01*
X0115003Y0071969D01*
X0115280Y0071931D01*
X0115557Y0071887D01*
X0115832Y0071836D01*
X0116106Y0071778D01*
X0116379Y0071713D01*
X0116650Y0071641D01*
X0116919Y0071563D01*
X0117186Y0071479D01*
X0117451Y0071388D01*
X0117714Y0071290D01*
X0117974Y0071186D01*
X0118232Y0071076D01*
X0118486Y0070959D01*
X0118738Y0070836D01*
X0118987Y0070707D01*
X0119232Y0070572D01*
X0119475Y0070431D01*
X0119713Y0070284D01*
X0119948Y0070131D01*
X0120179Y0069972D01*
X0120406Y0069808D01*
X0120629Y0069639D01*
X0120848Y0069463D01*
X0121062Y0069283D01*
X0121272Y0069097D01*
X0121477Y0068907D01*
X0121678Y0068711D01*
X0121874Y0068510D01*
X0122064Y0068305D01*
X0122250Y0068095D01*
X0122430Y0067881D01*
X0122606Y0067662D01*
X0122775Y0067439D01*
X0122939Y0067212D01*
X0123098Y0066981D01*
X0123251Y0066746D01*
X0123398Y0066508D01*
X0123539Y0066265D01*
X0123674Y0066020D01*
X0123803Y0065771D01*
X0123926Y0065519D01*
X0124043Y0065265D01*
X0124153Y0065007D01*
X0124257Y0064747D01*
X0124355Y0064484D01*
X0124446Y0064219D01*
X0124530Y0063952D01*
X0124608Y0063683D01*
X0124680Y0063412D01*
X0124745Y0063139D01*
X0124803Y0062865D01*
X0124854Y0062590D01*
X0124898Y0062313D01*
X0124936Y0062036D01*
X0124967Y0061757D01*
X0124991Y0061478D01*
X0125008Y0061198D01*
X0125019Y0060918D01*
X0125022Y0060638D01*
X0125019Y0060358D01*
X0125008Y0060078D01*
X0124991Y0059798D01*
X0124967Y0059519D01*
X0124936Y0059240D01*
X0124898Y0058963D01*
X0124854Y0058686D01*
X0124803Y0058411D01*
X0124745Y0058137D01*
X0124680Y0057864D01*
X0124608Y0057593D01*
X0124530Y0057324D01*
X0124446Y0057057D01*
X0124355Y0056792D01*
X0124257Y0056529D01*
X0124153Y0056269D01*
X0124043Y0056011D01*
X0123926Y0055757D01*
X0123803Y0055505D01*
X0123674Y0055256D01*
X0123539Y0055011D01*
X0123398Y0054768D01*
X0123251Y0054530D01*
X0123098Y0054295D01*
X0122939Y0054064D01*
X0122775Y0053837D01*
X0122606Y0053614D01*
X0122430Y0053395D01*
X0122250Y0053181D01*
X0122064Y0052971D01*
X0121874Y0052766D01*
X0121678Y0052565D01*
X0121477Y0052369D01*
X0121272Y0052179D01*
X0121062Y0051993D01*
X0120848Y0051813D01*
X0120629Y0051637D01*
X0120406Y0051468D01*
X0120179Y0051304D01*
X0119948Y0051145D01*
X0119713Y0050992D01*
X0119475Y0050845D01*
X0119232Y0050704D01*
X0118987Y0050569D01*
X0118738Y0050440D01*
X0118486Y0050317D01*
X0118232Y0050200D01*
X0117974Y0050090D01*
X0117714Y0049986D01*
X0117451Y0049888D01*
X0117186Y0049797D01*
X0116919Y0049713D01*
X0116650Y0049635D01*
X0116379Y0049563D01*
X0116106Y0049498D01*
X0115832Y0049440D01*
X0115557Y0049389D01*
X0115280Y0049345D01*
X0115003Y0049307D01*
X0114724Y0049276D01*
X0114445Y0049252D01*
X0114165Y0049235D01*
X0113885Y0049224D01*
X0113605Y0049221D01*
X0113325Y0049224D01*
X0113045Y0049235D01*
X0112765Y0049252D01*
X0112486Y0049276D01*
X0112207Y0049307D01*
X0111930Y0049345D01*
X0111653Y0049389D01*
X0111378Y0049440D01*
X0111104Y0049498D01*
X0110831Y0049563D01*
X0110560Y0049635D01*
X0110291Y0049713D01*
X0110024Y0049797D01*
X0109759Y0049888D01*
X0109496Y0049986D01*
X0109236Y0050090D01*
X0108978Y0050200D01*
X0108724Y0050317D01*
X0108472Y0050440D01*
X0108223Y0050569D01*
X0107978Y0050704D01*
X0107735Y0050845D01*
X0107497Y0050992D01*
X0107262Y0051145D01*
X0107031Y0051304D01*
X0106804Y0051468D01*
X0106581Y0051637D01*
X0106362Y0051813D01*
X0106148Y0051993D01*
X0105938Y0052179D01*
X0105733Y0052369D01*
X0105532Y0052565D01*
X0105336Y0052766D01*
X0105146Y0052971D01*
X0104960Y0053181D01*
X0104780Y0053395D01*
X0104604Y0053614D01*
X0104435Y0053837D01*
X0104271Y0054064D01*
X0104112Y0054295D01*
X0103959Y0054530D01*
X0103812Y0054768D01*
X0103671Y0055011D01*
X0103536Y0055256D01*
X0103407Y0055505D01*
X0103284Y0055757D01*
X0103167Y0056011D01*
X0103057Y0056269D01*
X0102953Y0056529D01*
X0102855Y0056792D01*
X0102764Y0057057D01*
X0102680Y0057324D01*
X0102602Y0057593D01*
X0102530Y0057864D01*
X0102465Y0058137D01*
X0102407Y0058411D01*
X0102356Y0058686D01*
X0102312Y0058963D01*
X0102274Y0059240D01*
X0102243Y0059519D01*
X0102219Y0059798D01*
X0102202Y0060078D01*
X0102191Y0060358D01*
X0102188Y0060638D01*
X0089392Y0052173D02*
X0089392Y0023827D01*
X0091557Y0023827D01*
X0091557Y0021661D01*
X0135652Y0021661D01*
X0135652Y0023827D01*
X0137817Y0023827D01*
X0137817Y0052173D01*
D11*
X0027835Y0026338D02*
X0027502Y0026671D01*
X0027502Y0027339D01*
X0027835Y0027672D01*
X0028169Y0027672D01*
X0028502Y0027339D01*
X0028502Y0027005D01*
X0028502Y0027339D02*
X0028836Y0027672D01*
X0029170Y0027672D01*
X0029503Y0027339D01*
X0029503Y0026671D01*
X0029170Y0026338D01*
X0028502Y0028548D02*
X0028502Y0029882D01*
X0028169Y0030758D02*
X0028169Y0031758D01*
X0028502Y0032092D01*
X0029170Y0032092D01*
X0029503Y0031758D01*
X0029503Y0030758D01*
X0027502Y0030758D01*
X0028169Y0031425D02*
X0027502Y0032092D01*
X0027502Y0032967D02*
X0027502Y0033635D01*
X0027502Y0033301D02*
X0028836Y0033301D01*
X0028836Y0032967D01*
X0029503Y0033301D02*
X0029837Y0033301D01*
X0028836Y0034441D02*
X0028836Y0035442D01*
X0028502Y0035775D01*
X0027502Y0035775D01*
X0027835Y0036651D02*
X0027502Y0036984D01*
X0027502Y0037985D01*
X0027168Y0037985D02*
X0028836Y0037985D01*
X0028836Y0036984D01*
X0028502Y0036651D01*
X0027835Y0036651D01*
X0026834Y0037318D02*
X0026834Y0037651D01*
X0027168Y0037985D01*
X0027502Y0034441D02*
X0028836Y0034441D01*
X0039528Y0043605D02*
X0039895Y0043238D01*
X0040629Y0043238D01*
X0040996Y0043605D01*
X0040262Y0044339D02*
X0039895Y0044339D01*
X0039528Y0043972D01*
X0039528Y0043605D01*
X0039895Y0044339D02*
X0039528Y0044706D01*
X0039528Y0045073D01*
X0039895Y0045440D01*
X0040629Y0045440D01*
X0040996Y0045073D01*
X0041922Y0045440D02*
X0042656Y0045440D01*
X0042289Y0045440D02*
X0042289Y0043605D01*
X0042656Y0043238D01*
X0043023Y0043238D01*
X0043390Y0043605D01*
X0082002Y0054339D02*
X0084003Y0054339D01*
X0083002Y0053338D01*
X0083002Y0054672D01*
X0083002Y0055548D02*
X0083002Y0056882D01*
X0084003Y0057758D02*
X0084003Y0059092D01*
X0084003Y0058425D02*
X0082002Y0058425D01*
X0082002Y0059967D02*
X0082002Y0060635D01*
X0082002Y0060301D02*
X0083336Y0060301D01*
X0083336Y0059967D01*
X0084003Y0060301D02*
X0084337Y0060301D01*
X0083336Y0061441D02*
X0081334Y0061441D01*
X0082002Y0061441D02*
X0082002Y0062442D01*
X0082335Y0062775D01*
X0083002Y0062775D01*
X0083336Y0062442D01*
X0083336Y0061441D01*
X0084003Y0065860D02*
X0084003Y0067195D01*
X0084003Y0066528D02*
X0082002Y0066528D01*
X0082335Y0068070D02*
X0083002Y0068070D01*
X0083336Y0068404D01*
X0083336Y0069071D01*
X0083002Y0069405D01*
X0082669Y0069405D01*
X0082669Y0068070D01*
X0082335Y0068070D02*
X0082002Y0068404D01*
X0082002Y0069071D01*
X0082002Y0070280D02*
X0082002Y0071281D01*
X0082335Y0071615D01*
X0082669Y0071281D01*
X0082669Y0070614D01*
X0083002Y0070280D01*
X0083336Y0070614D01*
X0083336Y0071615D01*
X0083336Y0072490D02*
X0083336Y0073157D01*
X0083670Y0072824D02*
X0082335Y0072824D01*
X0082002Y0073157D01*
X0085106Y0076019D02*
X0086574Y0077487D01*
X0086941Y0077487D01*
X0087308Y0077120D01*
X0087308Y0076386D01*
X0086941Y0076019D01*
X0085106Y0076019D02*
X0085106Y0077487D01*
X0085473Y0078413D02*
X0085106Y0078780D01*
X0085106Y0079514D01*
X0085473Y0079881D01*
X0086941Y0079881D01*
X0085473Y0078413D01*
X0086941Y0078413D01*
X0087308Y0078780D01*
X0087308Y0079514D01*
X0086941Y0079881D01*
X0087308Y0080807D02*
X0085106Y0080807D01*
X0085840Y0080807D02*
X0087308Y0082275D01*
X0086207Y0081174D02*
X0085106Y0082275D01*
X0093329Y0081504D02*
X0093331Y0081605D01*
X0093337Y0081706D01*
X0093347Y0081807D01*
X0093361Y0081907D01*
X0093379Y0082006D01*
X0093401Y0082105D01*
X0093426Y0082203D01*
X0093456Y0082300D01*
X0093489Y0082395D01*
X0093526Y0082489D01*
X0093567Y0082582D01*
X0093611Y0082673D01*
X0093659Y0082762D01*
X0093711Y0082849D01*
X0093766Y0082934D01*
X0093824Y0083016D01*
X0093885Y0083097D01*
X0093950Y0083175D01*
X0094017Y0083250D01*
X0094087Y0083322D01*
X0094161Y0083392D01*
X0094237Y0083459D01*
X0094315Y0083523D01*
X0094396Y0083583D01*
X0094479Y0083640D01*
X0094565Y0083694D01*
X0094653Y0083745D01*
X0094742Y0083792D01*
X0094833Y0083836D01*
X0094926Y0083875D01*
X0095021Y0083912D01*
X0095116Y0083944D01*
X0095213Y0083973D01*
X0095312Y0083997D01*
X0095410Y0084018D01*
X0095510Y0084035D01*
X0095610Y0084048D01*
X0095711Y0084057D01*
X0095812Y0084062D01*
X0095913Y0084063D01*
X0096014Y0084060D01*
X0096115Y0084053D01*
X0096216Y0084042D01*
X0096316Y0084027D01*
X0096415Y0084008D01*
X0096514Y0083985D01*
X0096611Y0083959D01*
X0096708Y0083928D01*
X0096803Y0083894D01*
X0096896Y0083856D01*
X0096989Y0083814D01*
X0097079Y0083769D01*
X0097168Y0083720D01*
X0097254Y0083668D01*
X0097338Y0083612D01*
X0097421Y0083553D01*
X0097500Y0083491D01*
X0097578Y0083426D01*
X0097652Y0083358D01*
X0097724Y0083286D01*
X0097793Y0083213D01*
X0097859Y0083136D01*
X0097922Y0083057D01*
X0097982Y0082975D01*
X0098038Y0082891D01*
X0098091Y0082805D01*
X0098141Y0082717D01*
X0098187Y0082627D01*
X0098230Y0082536D01*
X0098269Y0082442D01*
X0098304Y0082347D01*
X0098335Y0082251D01*
X0098363Y0082154D01*
X0098387Y0082056D01*
X0098407Y0081957D01*
X0098423Y0081857D01*
X0098435Y0081756D01*
X0098443Y0081656D01*
X0098447Y0081555D01*
X0098447Y0081453D01*
X0098443Y0081352D01*
X0098435Y0081252D01*
X0098423Y0081151D01*
X0098407Y0081051D01*
X0098387Y0080952D01*
X0098363Y0080854D01*
X0098335Y0080757D01*
X0098304Y0080661D01*
X0098269Y0080566D01*
X0098230Y0080472D01*
X0098187Y0080381D01*
X0098141Y0080291D01*
X0098091Y0080203D01*
X0098038Y0080117D01*
X0097982Y0080033D01*
X0097922Y0079951D01*
X0097859Y0079872D01*
X0097793Y0079795D01*
X0097724Y0079722D01*
X0097652Y0079650D01*
X0097578Y0079582D01*
X0097500Y0079517D01*
X0097421Y0079455D01*
X0097338Y0079396D01*
X0097254Y0079340D01*
X0097167Y0079288D01*
X0097079Y0079239D01*
X0096989Y0079194D01*
X0096896Y0079152D01*
X0096803Y0079114D01*
X0096708Y0079080D01*
X0096611Y0079049D01*
X0096514Y0079023D01*
X0096415Y0079000D01*
X0096316Y0078981D01*
X0096216Y0078966D01*
X0096115Y0078955D01*
X0096014Y0078948D01*
X0095913Y0078945D01*
X0095812Y0078946D01*
X0095711Y0078951D01*
X0095610Y0078960D01*
X0095510Y0078973D01*
X0095410Y0078990D01*
X0095312Y0079011D01*
X0095213Y0079035D01*
X0095116Y0079064D01*
X0095021Y0079096D01*
X0094926Y0079133D01*
X0094833Y0079172D01*
X0094742Y0079216D01*
X0094653Y0079263D01*
X0094565Y0079314D01*
X0094479Y0079368D01*
X0094396Y0079425D01*
X0094315Y0079485D01*
X0094237Y0079549D01*
X0094161Y0079616D01*
X0094087Y0079686D01*
X0094017Y0079758D01*
X0093950Y0079833D01*
X0093885Y0079911D01*
X0093824Y0079992D01*
X0093766Y0080074D01*
X0093711Y0080159D01*
X0093659Y0080246D01*
X0093611Y0080335D01*
X0093567Y0080426D01*
X0093526Y0080519D01*
X0093489Y0080613D01*
X0093456Y0080708D01*
X0093426Y0080805D01*
X0093401Y0080903D01*
X0093379Y0081002D01*
X0093361Y0081101D01*
X0093347Y0081201D01*
X0093337Y0081302D01*
X0093331Y0081403D01*
X0093329Y0081504D01*
X0058503Y0083671D02*
X0058170Y0083338D01*
X0058503Y0083671D02*
X0058503Y0084339D01*
X0058170Y0084672D01*
X0057836Y0084672D01*
X0056502Y0083338D01*
X0056502Y0084672D01*
X0057502Y0085548D02*
X0057502Y0086882D01*
X0058503Y0087758D02*
X0058503Y0089092D01*
X0058503Y0088425D02*
X0056502Y0088425D01*
X0056502Y0089967D02*
X0056502Y0090635D01*
X0056502Y0090301D02*
X0057836Y0090301D01*
X0057836Y0089967D01*
X0058503Y0090301D02*
X0058837Y0090301D01*
X0057836Y0091441D02*
X0055834Y0091441D01*
X0056502Y0091441D02*
X0056502Y0092442D01*
X0056835Y0092775D01*
X0057502Y0092775D01*
X0057836Y0092442D01*
X0057836Y0091441D01*
X0038026Y0091737D02*
X0037659Y0091370D01*
X0038026Y0091737D02*
X0038026Y0092471D01*
X0037659Y0092838D01*
X0037292Y0092838D01*
X0035824Y0091370D01*
X0035824Y0092838D01*
X0036191Y0090077D02*
X0038026Y0090077D01*
X0038026Y0089710D02*
X0038026Y0090444D01*
X0036191Y0090077D02*
X0035824Y0089710D01*
X0035824Y0089343D01*
X0036191Y0088976D01*
X0030498Y0084551D02*
X0030498Y0083083D01*
X0031231Y0083817D02*
X0029764Y0083817D01*
X0022003Y0083505D02*
X0020002Y0083505D01*
X0019924Y0083758D02*
X0018456Y0083758D01*
X0020002Y0084172D02*
X0020002Y0082838D01*
X0021336Y0082838D02*
X0022003Y0083505D01*
X0021002Y0085048D02*
X0021002Y0086382D01*
X0021336Y0087258D02*
X0021002Y0087591D01*
X0021002Y0088258D01*
X0020669Y0088592D01*
X0020335Y0088592D01*
X0020002Y0088258D01*
X0020002Y0087591D01*
X0020335Y0087258D01*
X0021336Y0087258D02*
X0021670Y0087258D01*
X0022003Y0087591D01*
X0022003Y0088258D01*
X0021670Y0088592D01*
X0022003Y0089467D02*
X0022003Y0089801D01*
X0020002Y0089801D01*
X0020002Y0089467D02*
X0020002Y0090135D01*
X0020335Y0090941D02*
X0021002Y0090941D01*
X0021336Y0091274D01*
X0021336Y0091942D01*
X0021002Y0092275D01*
X0020669Y0092275D01*
X0020669Y0090941D01*
X0020335Y0090941D02*
X0020002Y0091274D01*
X0020002Y0091942D01*
X0020335Y0093151D02*
X0021002Y0093151D01*
X0021336Y0093484D01*
X0021336Y0094151D01*
X0021002Y0094485D01*
X0020669Y0094485D01*
X0020669Y0093151D01*
X0020335Y0093151D02*
X0020002Y0093484D01*
X0020002Y0094151D01*
X0021336Y0095360D02*
X0020002Y0096028D01*
X0021336Y0096695D01*
X0021243Y0096771D02*
X0020509Y0097505D01*
X0020142Y0097505D01*
X0020335Y0097570D02*
X0021002Y0097570D01*
X0021336Y0097904D01*
X0021336Y0098571D01*
X0021002Y0098905D01*
X0020669Y0098905D01*
X0020669Y0097570D01*
X0020335Y0097570D02*
X0020002Y0097904D01*
X0020002Y0098571D01*
X0019248Y0097505D02*
X0019248Y0096404D01*
X0018881Y0096037D01*
X0017780Y0096037D01*
X0017780Y0095670D02*
X0018147Y0095303D01*
X0018514Y0095303D01*
X0017780Y0095670D02*
X0017780Y0097505D01*
X0021243Y0097505D02*
X0021243Y0096037D01*
X0022169Y0096771D02*
X0023637Y0096771D01*
X0023637Y0097138D02*
X0023270Y0097505D01*
X0022536Y0097505D01*
X0022169Y0097138D01*
X0022169Y0096771D01*
X0022536Y0096037D02*
X0023270Y0096037D01*
X0023637Y0096404D01*
X0023637Y0097138D01*
X0024499Y0097505D02*
X0025233Y0097505D01*
X0024866Y0097872D02*
X0024866Y0096404D01*
X0024499Y0096037D01*
X0026095Y0096037D02*
X0026462Y0096404D01*
X0026462Y0097872D01*
X0026829Y0097505D02*
X0026095Y0097505D01*
X0027755Y0097138D02*
X0027755Y0096037D01*
X0028856Y0096037D01*
X0029223Y0096404D01*
X0028856Y0096771D01*
X0027755Y0096771D01*
X0027755Y0097138D02*
X0028122Y0097505D01*
X0028856Y0097505D01*
X0030149Y0097505D02*
X0030516Y0097138D01*
X0031617Y0097138D01*
X0031617Y0096037D02*
X0031617Y0098239D01*
X0030516Y0098239D01*
X0030149Y0097872D01*
X0030149Y0097505D01*
X0030516Y0097138D02*
X0030149Y0096771D01*
X0030149Y0096404D01*
X0030516Y0096037D01*
X0031617Y0096037D01*
X0093329Y0039772D02*
X0093331Y0039873D01*
X0093337Y0039974D01*
X0093347Y0040075D01*
X0093361Y0040175D01*
X0093379Y0040274D01*
X0093401Y0040373D01*
X0093426Y0040471D01*
X0093456Y0040568D01*
X0093489Y0040663D01*
X0093526Y0040757D01*
X0093567Y0040850D01*
X0093611Y0040941D01*
X0093659Y0041030D01*
X0093711Y0041117D01*
X0093766Y0041202D01*
X0093824Y0041284D01*
X0093885Y0041365D01*
X0093950Y0041443D01*
X0094017Y0041518D01*
X0094087Y0041590D01*
X0094161Y0041660D01*
X0094237Y0041727D01*
X0094315Y0041791D01*
X0094396Y0041851D01*
X0094479Y0041908D01*
X0094565Y0041962D01*
X0094653Y0042013D01*
X0094742Y0042060D01*
X0094833Y0042104D01*
X0094926Y0042143D01*
X0095021Y0042180D01*
X0095116Y0042212D01*
X0095213Y0042241D01*
X0095312Y0042265D01*
X0095410Y0042286D01*
X0095510Y0042303D01*
X0095610Y0042316D01*
X0095711Y0042325D01*
X0095812Y0042330D01*
X0095913Y0042331D01*
X0096014Y0042328D01*
X0096115Y0042321D01*
X0096216Y0042310D01*
X0096316Y0042295D01*
X0096415Y0042276D01*
X0096514Y0042253D01*
X0096611Y0042227D01*
X0096708Y0042196D01*
X0096803Y0042162D01*
X0096896Y0042124D01*
X0096989Y0042082D01*
X0097079Y0042037D01*
X0097168Y0041988D01*
X0097254Y0041936D01*
X0097338Y0041880D01*
X0097421Y0041821D01*
X0097500Y0041759D01*
X0097578Y0041694D01*
X0097652Y0041626D01*
X0097724Y0041554D01*
X0097793Y0041481D01*
X0097859Y0041404D01*
X0097922Y0041325D01*
X0097982Y0041243D01*
X0098038Y0041159D01*
X0098091Y0041073D01*
X0098141Y0040985D01*
X0098187Y0040895D01*
X0098230Y0040804D01*
X0098269Y0040710D01*
X0098304Y0040615D01*
X0098335Y0040519D01*
X0098363Y0040422D01*
X0098387Y0040324D01*
X0098407Y0040225D01*
X0098423Y0040125D01*
X0098435Y0040024D01*
X0098443Y0039924D01*
X0098447Y0039823D01*
X0098447Y0039721D01*
X0098443Y0039620D01*
X0098435Y0039520D01*
X0098423Y0039419D01*
X0098407Y0039319D01*
X0098387Y0039220D01*
X0098363Y0039122D01*
X0098335Y0039025D01*
X0098304Y0038929D01*
X0098269Y0038834D01*
X0098230Y0038740D01*
X0098187Y0038649D01*
X0098141Y0038559D01*
X0098091Y0038471D01*
X0098038Y0038385D01*
X0097982Y0038301D01*
X0097922Y0038219D01*
X0097859Y0038140D01*
X0097793Y0038063D01*
X0097724Y0037990D01*
X0097652Y0037918D01*
X0097578Y0037850D01*
X0097500Y0037785D01*
X0097421Y0037723D01*
X0097338Y0037664D01*
X0097254Y0037608D01*
X0097167Y0037556D01*
X0097079Y0037507D01*
X0096989Y0037462D01*
X0096896Y0037420D01*
X0096803Y0037382D01*
X0096708Y0037348D01*
X0096611Y0037317D01*
X0096514Y0037291D01*
X0096415Y0037268D01*
X0096316Y0037249D01*
X0096216Y0037234D01*
X0096115Y0037223D01*
X0096014Y0037216D01*
X0095913Y0037213D01*
X0095812Y0037214D01*
X0095711Y0037219D01*
X0095610Y0037228D01*
X0095510Y0037241D01*
X0095410Y0037258D01*
X0095312Y0037279D01*
X0095213Y0037303D01*
X0095116Y0037332D01*
X0095021Y0037364D01*
X0094926Y0037401D01*
X0094833Y0037440D01*
X0094742Y0037484D01*
X0094653Y0037531D01*
X0094565Y0037582D01*
X0094479Y0037636D01*
X0094396Y0037693D01*
X0094315Y0037753D01*
X0094237Y0037817D01*
X0094161Y0037884D01*
X0094087Y0037954D01*
X0094017Y0038026D01*
X0093950Y0038101D01*
X0093885Y0038179D01*
X0093824Y0038260D01*
X0093766Y0038342D01*
X0093711Y0038427D01*
X0093659Y0038514D01*
X0093611Y0038603D01*
X0093567Y0038694D01*
X0093526Y0038787D01*
X0093489Y0038881D01*
X0093456Y0038976D01*
X0093426Y0039073D01*
X0093401Y0039171D01*
X0093379Y0039270D01*
X0093361Y0039369D01*
X0093347Y0039469D01*
X0093337Y0039570D01*
X0093331Y0039671D01*
X0093329Y0039772D01*
X0128762Y0039772D02*
X0128764Y0039873D01*
X0128770Y0039974D01*
X0128780Y0040075D01*
X0128794Y0040175D01*
X0128812Y0040274D01*
X0128834Y0040373D01*
X0128859Y0040471D01*
X0128889Y0040568D01*
X0128922Y0040663D01*
X0128959Y0040757D01*
X0129000Y0040850D01*
X0129044Y0040941D01*
X0129092Y0041030D01*
X0129144Y0041117D01*
X0129199Y0041202D01*
X0129257Y0041284D01*
X0129318Y0041365D01*
X0129383Y0041443D01*
X0129450Y0041518D01*
X0129520Y0041590D01*
X0129594Y0041660D01*
X0129670Y0041727D01*
X0129748Y0041791D01*
X0129829Y0041851D01*
X0129912Y0041908D01*
X0129998Y0041962D01*
X0130086Y0042013D01*
X0130175Y0042060D01*
X0130266Y0042104D01*
X0130359Y0042143D01*
X0130454Y0042180D01*
X0130549Y0042212D01*
X0130646Y0042241D01*
X0130745Y0042265D01*
X0130843Y0042286D01*
X0130943Y0042303D01*
X0131043Y0042316D01*
X0131144Y0042325D01*
X0131245Y0042330D01*
X0131346Y0042331D01*
X0131447Y0042328D01*
X0131548Y0042321D01*
X0131649Y0042310D01*
X0131749Y0042295D01*
X0131848Y0042276D01*
X0131947Y0042253D01*
X0132044Y0042227D01*
X0132141Y0042196D01*
X0132236Y0042162D01*
X0132329Y0042124D01*
X0132422Y0042082D01*
X0132512Y0042037D01*
X0132601Y0041988D01*
X0132687Y0041936D01*
X0132771Y0041880D01*
X0132854Y0041821D01*
X0132933Y0041759D01*
X0133011Y0041694D01*
X0133085Y0041626D01*
X0133157Y0041554D01*
X0133226Y0041481D01*
X0133292Y0041404D01*
X0133355Y0041325D01*
X0133415Y0041243D01*
X0133471Y0041159D01*
X0133524Y0041073D01*
X0133574Y0040985D01*
X0133620Y0040895D01*
X0133663Y0040804D01*
X0133702Y0040710D01*
X0133737Y0040615D01*
X0133768Y0040519D01*
X0133796Y0040422D01*
X0133820Y0040324D01*
X0133840Y0040225D01*
X0133856Y0040125D01*
X0133868Y0040024D01*
X0133876Y0039924D01*
X0133880Y0039823D01*
X0133880Y0039721D01*
X0133876Y0039620D01*
X0133868Y0039520D01*
X0133856Y0039419D01*
X0133840Y0039319D01*
X0133820Y0039220D01*
X0133796Y0039122D01*
X0133768Y0039025D01*
X0133737Y0038929D01*
X0133702Y0038834D01*
X0133663Y0038740D01*
X0133620Y0038649D01*
X0133574Y0038559D01*
X0133524Y0038471D01*
X0133471Y0038385D01*
X0133415Y0038301D01*
X0133355Y0038219D01*
X0133292Y0038140D01*
X0133226Y0038063D01*
X0133157Y0037990D01*
X0133085Y0037918D01*
X0133011Y0037850D01*
X0132933Y0037785D01*
X0132854Y0037723D01*
X0132771Y0037664D01*
X0132687Y0037608D01*
X0132600Y0037556D01*
X0132512Y0037507D01*
X0132422Y0037462D01*
X0132329Y0037420D01*
X0132236Y0037382D01*
X0132141Y0037348D01*
X0132044Y0037317D01*
X0131947Y0037291D01*
X0131848Y0037268D01*
X0131749Y0037249D01*
X0131649Y0037234D01*
X0131548Y0037223D01*
X0131447Y0037216D01*
X0131346Y0037213D01*
X0131245Y0037214D01*
X0131144Y0037219D01*
X0131043Y0037228D01*
X0130943Y0037241D01*
X0130843Y0037258D01*
X0130745Y0037279D01*
X0130646Y0037303D01*
X0130549Y0037332D01*
X0130454Y0037364D01*
X0130359Y0037401D01*
X0130266Y0037440D01*
X0130175Y0037484D01*
X0130086Y0037531D01*
X0129998Y0037582D01*
X0129912Y0037636D01*
X0129829Y0037693D01*
X0129748Y0037753D01*
X0129670Y0037817D01*
X0129594Y0037884D01*
X0129520Y0037954D01*
X0129450Y0038026D01*
X0129383Y0038101D01*
X0129318Y0038179D01*
X0129257Y0038260D01*
X0129199Y0038342D01*
X0129144Y0038427D01*
X0129092Y0038514D01*
X0129044Y0038603D01*
X0129000Y0038694D01*
X0128959Y0038787D01*
X0128922Y0038881D01*
X0128889Y0038976D01*
X0128859Y0039073D01*
X0128834Y0039171D01*
X0128812Y0039270D01*
X0128794Y0039369D01*
X0128780Y0039469D01*
X0128770Y0039570D01*
X0128764Y0039671D01*
X0128762Y0039772D01*
X0139259Y0073984D02*
X0141461Y0073984D01*
X0141461Y0075085D01*
X0141094Y0075452D01*
X0140360Y0075452D01*
X0139993Y0075085D01*
X0139993Y0073984D01*
X0139626Y0076378D02*
X0139259Y0076745D01*
X0139259Y0077479D01*
X0139626Y0077846D01*
X0141094Y0077846D01*
X0141461Y0077479D01*
X0141461Y0076745D01*
X0141094Y0076378D01*
X0139626Y0076378D01*
X0141461Y0078772D02*
X0141461Y0080240D01*
X0141461Y0079506D02*
X0139259Y0079506D01*
X0139259Y0081166D02*
X0139259Y0082634D01*
X0139259Y0081900D02*
X0141461Y0081900D01*
X0140727Y0081166D01*
X0128762Y0081504D02*
X0128764Y0081605D01*
X0128770Y0081706D01*
X0128780Y0081807D01*
X0128794Y0081907D01*
X0128812Y0082006D01*
X0128834Y0082105D01*
X0128859Y0082203D01*
X0128889Y0082300D01*
X0128922Y0082395D01*
X0128959Y0082489D01*
X0129000Y0082582D01*
X0129044Y0082673D01*
X0129092Y0082762D01*
X0129144Y0082849D01*
X0129199Y0082934D01*
X0129257Y0083016D01*
X0129318Y0083097D01*
X0129383Y0083175D01*
X0129450Y0083250D01*
X0129520Y0083322D01*
X0129594Y0083392D01*
X0129670Y0083459D01*
X0129748Y0083523D01*
X0129829Y0083583D01*
X0129912Y0083640D01*
X0129998Y0083694D01*
X0130086Y0083745D01*
X0130175Y0083792D01*
X0130266Y0083836D01*
X0130359Y0083875D01*
X0130454Y0083912D01*
X0130549Y0083944D01*
X0130646Y0083973D01*
X0130745Y0083997D01*
X0130843Y0084018D01*
X0130943Y0084035D01*
X0131043Y0084048D01*
X0131144Y0084057D01*
X0131245Y0084062D01*
X0131346Y0084063D01*
X0131447Y0084060D01*
X0131548Y0084053D01*
X0131649Y0084042D01*
X0131749Y0084027D01*
X0131848Y0084008D01*
X0131947Y0083985D01*
X0132044Y0083959D01*
X0132141Y0083928D01*
X0132236Y0083894D01*
X0132329Y0083856D01*
X0132422Y0083814D01*
X0132512Y0083769D01*
X0132601Y0083720D01*
X0132687Y0083668D01*
X0132771Y0083612D01*
X0132854Y0083553D01*
X0132933Y0083491D01*
X0133011Y0083426D01*
X0133085Y0083358D01*
X0133157Y0083286D01*
X0133226Y0083213D01*
X0133292Y0083136D01*
X0133355Y0083057D01*
X0133415Y0082975D01*
X0133471Y0082891D01*
X0133524Y0082805D01*
X0133574Y0082717D01*
X0133620Y0082627D01*
X0133663Y0082536D01*
X0133702Y0082442D01*
X0133737Y0082347D01*
X0133768Y0082251D01*
X0133796Y0082154D01*
X0133820Y0082056D01*
X0133840Y0081957D01*
X0133856Y0081857D01*
X0133868Y0081756D01*
X0133876Y0081656D01*
X0133880Y0081555D01*
X0133880Y0081453D01*
X0133876Y0081352D01*
X0133868Y0081252D01*
X0133856Y0081151D01*
X0133840Y0081051D01*
X0133820Y0080952D01*
X0133796Y0080854D01*
X0133768Y0080757D01*
X0133737Y0080661D01*
X0133702Y0080566D01*
X0133663Y0080472D01*
X0133620Y0080381D01*
X0133574Y0080291D01*
X0133524Y0080203D01*
X0133471Y0080117D01*
X0133415Y0080033D01*
X0133355Y0079951D01*
X0133292Y0079872D01*
X0133226Y0079795D01*
X0133157Y0079722D01*
X0133085Y0079650D01*
X0133011Y0079582D01*
X0132933Y0079517D01*
X0132854Y0079455D01*
X0132771Y0079396D01*
X0132687Y0079340D01*
X0132600Y0079288D01*
X0132512Y0079239D01*
X0132422Y0079194D01*
X0132329Y0079152D01*
X0132236Y0079114D01*
X0132141Y0079080D01*
X0132044Y0079049D01*
X0131947Y0079023D01*
X0131848Y0079000D01*
X0131749Y0078981D01*
X0131649Y0078966D01*
X0131548Y0078955D01*
X0131447Y0078948D01*
X0131346Y0078945D01*
X0131245Y0078946D01*
X0131144Y0078951D01*
X0131043Y0078960D01*
X0130943Y0078973D01*
X0130843Y0078990D01*
X0130745Y0079011D01*
X0130646Y0079035D01*
X0130549Y0079064D01*
X0130454Y0079096D01*
X0130359Y0079133D01*
X0130266Y0079172D01*
X0130175Y0079216D01*
X0130086Y0079263D01*
X0129998Y0079314D01*
X0129912Y0079368D01*
X0129829Y0079425D01*
X0129748Y0079485D01*
X0129670Y0079549D01*
X0129594Y0079616D01*
X0129520Y0079686D01*
X0129450Y0079758D01*
X0129383Y0079833D01*
X0129318Y0079911D01*
X0129257Y0079992D01*
X0129199Y0080074D01*
X0129144Y0080159D01*
X0129092Y0080246D01*
X0129044Y0080335D01*
X0129000Y0080426D01*
X0128959Y0080519D01*
X0128922Y0080613D01*
X0128889Y0080708D01*
X0128859Y0080805D01*
X0128834Y0080903D01*
X0128812Y0081002D01*
X0128794Y0081101D01*
X0128780Y0081201D01*
X0128770Y0081302D01*
X0128764Y0081403D01*
X0128762Y0081504D01*
D12*
X0087050Y0102236D02*
X0053585Y0102236D01*
X0053585Y0116016D01*
X0087050Y0116016D01*
X0087050Y0102236D01*
X0077404Y0106173D02*
X0077404Y0112079D01*
X0071498Y0112079D01*
X0069530Y0112079D01*
X0063624Y0112079D01*
X0063624Y0106173D01*
X0071498Y0106173D01*
X0071498Y0112079D01*
X0069530Y0112079D02*
X0069530Y0106173D01*
X0071498Y0106173D02*
X0077404Y0106173D01*
D13*
X0002384Y0070480D02*
X0002384Y0050795D01*
D14*
X0027778Y0045874D03*
X0020494Y0075598D03*
D15*
X0057306Y0075598D03*
X0071676Y0057685D03*
M02*
