%
M48
M72
T01C0.0060
T02C0.0320
T03C0.0335
T04C0.0354
T05C0.0400
T06C0.0433
T07C0.0630
T08C0.0669
T09C0.0984
%
T01
X4244Y2558
X2024Y3938
X4124Y5258
X5684Y4058
X6044Y4058
X8504Y3758
X9704Y4538
X10484Y3398
X12104Y3938
X12104Y4418
X11624Y5918
X11624Y6518
X13424Y7358
X12044Y8258
X11624Y8738
X12164Y9818
X10364Y9998
X9284Y8858
X6764Y8258
X6404Y8258
X9764Y6878
X14864Y8678
X15944Y7298
X15464Y7058
X16904Y4898
X15704Y4358
X16364Y3338
X17924Y4058
X17984Y1898
X14144Y518
X9704Y518
X6704Y818
X4304Y998
T02
X15633Y5564
X15633Y6564
X17660Y6564
X17660Y5564
T03
X12109Y10311
X10612Y10311
T04
X8370Y10913
X5693Y10913
T05
X3043Y9035
X1903Y9035
X20293Y8369
X20393Y7369
X20293Y6369
X20393Y5369
X20293Y4369
T06
X13329Y1733
X12542Y1733
X11754Y1733
X10967Y1733
X10179Y1733
X9392Y1733
T07
X8683Y6064
X14038Y6064
T08
X5258Y6064
X2502Y6064
T09
X2305Y1339
X2305Y10788
X20022Y10788
X20022Y1339
M30
