G75*
%MOIN*%
%OFA0B0*%
%FSLAX25Y25*%
%IPPOS*%
%LPD*%
%AMOC8*
5,1,8,0,0,1.08239X$1,22.5*
%
%ADD10R,0.08661X0.02362*%
%ADD11R,0.03937X0.04331*%
%ADD12R,0.05787X0.05000*%
%ADD13R,0.01575X0.03937*%
%ADD14R,0.05118X0.05906*%
%ADD15R,0.01575X0.05709*%
%ADD16R,0.07087X0.05906*%
%ADD17R,0.05906X0.02756*%
%ADD18R,0.01181X0.04921*%
%ADD19R,0.02165X0.04724*%
%ADD20R,0.00984X0.01575*%
%ADD21R,0.04724X0.02165*%
%ADD22R,0.19685X0.10433*%
%ADD23R,0.06299X0.07087*%
%ADD24R,0.04331X0.03937*%
%ADD25R,0.07677X0.05906*%
D10*
X0036376Y0007937D03*
X0036376Y0012937D03*
X0036376Y0017937D03*
X0036376Y0022937D03*
X0056849Y0022937D03*
X0056849Y0017937D03*
X0056849Y0012937D03*
X0056849Y0007937D03*
D11*
X0071439Y0008650D03*
X0078132Y0008650D03*
X0093723Y0033433D03*
X0100416Y0033433D03*
X0124034Y0051677D03*
X0130727Y0051677D03*
X0110782Y0068732D03*
X0104089Y0068732D03*
X0122231Y0069264D03*
X0128924Y0069264D03*
X0078967Y0087370D03*
X0072274Y0087370D03*
X0072306Y0099839D03*
X0078998Y0099839D03*
X0042400Y0060650D03*
X0035707Y0060650D03*
X0035603Y0046878D03*
X0042296Y0046878D03*
X0024973Y0047203D03*
X0018280Y0047203D03*
X0025278Y0033906D03*
X0031971Y0033906D03*
X0145845Y0029154D03*
X0152538Y0029154D03*
X0177144Y0029067D03*
X0183837Y0029067D03*
X0186613Y0095646D03*
X0179920Y0095646D03*
X0179762Y0109559D03*
X0186455Y0109559D03*
D12*
X0076306Y0037488D03*
X0076306Y0020559D03*
D13*
X0161046Y0096835D03*
X0163605Y0096835D03*
X0166164Y0096835D03*
X0168723Y0096835D03*
X0168723Y0114157D03*
X0166164Y0114157D03*
X0163605Y0114157D03*
X0161046Y0114157D03*
D14*
X0145589Y0100803D03*
X0138896Y0100803D03*
X0060042Y0034654D03*
X0053349Y0034654D03*
X0150140Y0013768D03*
X0156833Y0013768D03*
D15*
X0118723Y0101047D03*
X0108487Y0101047D03*
D16*
X0099101Y0111776D03*
X0128109Y0111776D03*
D17*
X0113605Y0111776D03*
D18*
X0113605Y0101047D03*
X0116164Y0101047D03*
X0111046Y0101047D03*
D19*
X0112203Y0092028D03*
X0108463Y0092028D03*
X0115943Y0092028D03*
X0115943Y0081791D03*
X0112203Y0081791D03*
X0108463Y0081791D03*
D20*
X0126463Y0036909D03*
X0128431Y0036909D03*
X0130400Y0036909D03*
X0130400Y0031594D03*
X0128431Y0031594D03*
X0126463Y0031594D03*
D21*
X0071735Y0044299D03*
X0071735Y0048039D03*
X0071735Y0051780D03*
X0061498Y0051780D03*
X0061498Y0044299D03*
D22*
X0050613Y0075717D03*
X0050613Y0092803D03*
D23*
X0048250Y0111819D03*
X0037227Y0111819D03*
D24*
X0066951Y0072449D03*
X0073644Y0072449D03*
X0109471Y0033866D03*
X0116164Y0033866D03*
X0145691Y0044890D03*
X0152384Y0044890D03*
X0161439Y0044890D03*
X0168132Y0044890D03*
X0177187Y0044890D03*
X0183880Y0044890D03*
X0167542Y0029220D03*
X0160849Y0029220D03*
X0159156Y0082134D03*
X0165849Y0082134D03*
X0174943Y0081976D03*
X0181636Y0081976D03*
X0152266Y0082134D03*
X0145573Y0082134D03*
D25*
X0171183Y0013394D03*
X0182010Y0013394D03*
M02*
