%
M48
M72
T01C0.0120
T02C0.0320
T03C0.0335
T04C0.0354
T05C0.0400
T06C0.0433
T07C0.0669
T08C0.0800
T09C0.0984
%
T01
X4604Y3730
X5864Y4570
X6884Y4510
X6044Y5410
X3104Y6130
X3284Y8650
X6704Y8650
X7364Y7870
X10184Y8410
X12104Y9370
X13184Y8710
X13604Y8710
X14504Y8290
X13604Y7870
X14024Y7090
X12644Y6370
X11264Y7090
X12284Y4750
X11924Y4450
X10304Y4030
X9464Y3490
X8324Y3010
X7244Y2590
X6644Y2290
X15764Y3790
X15764Y4510
X16844Y3310
X18344Y5410
X16124Y7990
X16724Y8650
X17144Y9070
X14084Y9610
X12044Y10270
X9404Y10150
X8564Y10150
X7964Y10870
T02
X15691Y6496
X15691Y5496
X17660Y5536
X17660Y6536
T03
X12660Y10287
X11164Y10287
T04
X8408Y10839
X5731Y10839
T05
X1715Y9783
X1715Y8643
X20214Y8223
X20314Y7223
X20214Y6223
X20314Y5223
X20214Y4223
T06
X13329Y1705
X12542Y1705
X11754Y1705
X10967Y1705
X10179Y1705
X9392Y1705
T07
X5258Y6036
X2502Y6036
T08
X8683Y6036
X14038Y6036
T09
X2305Y1311
X2305Y10760
X19628Y10760
X19628Y1311
M30
