G75*
%MOIN*%
%OFA0B0*%
%FSLAX25Y25*%
%IPPOS*%
%LPD*%
%AMOC8*
5,1,8,0,0,1.08239X$1,22.5*
%
%ADD10C,0.00800*%
%ADD11C,0.00400*%
%ADD12C,0.02559*%
%ADD13C,0.01200*%
%ADD14C,0.00787*%
%ADD15C,0.00600*%
D10*
X0055593Y0039292D02*
X0061892Y0039292D01*
X0055593Y0043229D02*
X0055593Y0046772D01*
X0055593Y0050709D02*
X0061892Y0050709D01*
X0072172Y0045670D02*
X0073943Y0045670D01*
X0072172Y0045670D02*
X0072172Y0027560D01*
X0073943Y0027560D01*
X0073943Y0032678D02*
X0081817Y0032678D01*
X0081817Y0027560D02*
X0083589Y0027560D01*
X0083589Y0045670D01*
X0081817Y0045670D01*
X0055219Y0070985D02*
X0054156Y0069922D01*
X0033683Y0069922D01*
X0032620Y0070985D01*
X0032620Y0091457D01*
X0033683Y0092520D01*
X0054156Y0092520D01*
X0055219Y0091457D01*
X0055219Y0070985D01*
X0022148Y0084627D02*
X0022148Y0089627D01*
X0019648Y0092127D01*
X0022148Y0094627D01*
X0022148Y0099627D01*
X0019648Y0102127D01*
X0014648Y0102127D01*
X0012148Y0099627D01*
X0012148Y0094627D01*
X0014648Y0092127D01*
X0012148Y0089627D01*
X0012148Y0084627D01*
X0014648Y0082127D01*
X0019648Y0082127D01*
X0022148Y0084627D01*
X0091951Y0091631D02*
X0091951Y0103835D01*
X0104057Y0103835D01*
X0104057Y0091631D01*
X0091951Y0091631D01*
X0197640Y0084725D02*
X0197640Y0079725D01*
X0200140Y0077225D01*
X0197640Y0074725D01*
X0197640Y0069725D01*
X0200140Y0067225D01*
X0197640Y0064725D01*
X0197640Y0059725D01*
X0200140Y0057225D01*
X0197640Y0054725D01*
X0197640Y0049725D01*
X0200140Y0047225D01*
X0197640Y0044725D01*
X0197640Y0039725D01*
X0200140Y0037225D01*
X0205140Y0037225D01*
X0207640Y0039725D01*
X0207640Y0044725D01*
X0205140Y0047225D01*
X0207640Y0049725D01*
X0207640Y0054725D01*
X0205140Y0057225D01*
X0207640Y0059725D01*
X0207640Y0064725D01*
X0205140Y0067225D01*
X0207640Y0069725D01*
X0207640Y0074725D01*
X0205140Y0077225D01*
X0207640Y0079725D01*
X0207640Y0084725D01*
X0205140Y0087225D01*
X0200140Y0087225D01*
X0197640Y0084725D01*
D11*
X0041566Y0008852D02*
X0040098Y0007384D01*
X0041566Y0007384D01*
X0042492Y0007384D02*
X0042859Y0007384D01*
X0042859Y0007751D01*
X0042492Y0007751D01*
X0042492Y0007384D01*
X0043690Y0007384D02*
X0045157Y0008852D01*
X0045157Y0009219D01*
X0044790Y0009586D01*
X0044056Y0009586D01*
X0043690Y0009219D01*
X0043690Y0007384D02*
X0045157Y0007384D01*
X0046084Y0007384D02*
X0047184Y0007384D01*
X0047551Y0007751D01*
X0047551Y0008485D01*
X0047184Y0008852D01*
X0046084Y0008852D01*
X0046084Y0006650D01*
X0048478Y0007384D02*
X0048478Y0009586D01*
X0049946Y0009586D01*
X0049212Y0008485D02*
X0048478Y0008485D01*
X0041566Y0008852D02*
X0041566Y0009219D01*
X0041199Y0009586D01*
X0040465Y0009586D01*
X0040098Y0009219D01*
X0042789Y0015376D02*
X0043523Y0015376D01*
X0043890Y0015743D01*
X0044816Y0015743D02*
X0045183Y0015376D01*
X0045917Y0015376D01*
X0046284Y0015743D01*
X0046284Y0016477D01*
X0045917Y0016844D01*
X0045550Y0016844D01*
X0044816Y0016477D01*
X0044816Y0017578D01*
X0046284Y0017578D01*
X0043890Y0017211D02*
X0043523Y0017578D01*
X0042789Y0017578D01*
X0042422Y0017211D01*
X0042422Y0015743D01*
X0042789Y0015376D01*
X0043273Y0021028D02*
X0044741Y0021028D01*
X0044007Y0021028D02*
X0044007Y0023229D01*
X0043273Y0022495D01*
X0045667Y0021762D02*
X0046768Y0022495D01*
X0045667Y0021762D02*
X0046768Y0021028D01*
X0045667Y0021028D02*
X0045667Y0023229D01*
X0046027Y0030516D02*
X0045660Y0030883D01*
X0046027Y0030516D02*
X0046761Y0030516D01*
X0047128Y0030883D01*
X0047128Y0031617D01*
X0046761Y0031984D01*
X0046394Y0031984D01*
X0045660Y0031617D01*
X0045660Y0032718D01*
X0047128Y0032718D01*
X0044000Y0032718D02*
X0044000Y0030516D01*
X0043266Y0030516D02*
X0044734Y0030516D01*
X0042340Y0030516D02*
X0041606Y0031250D01*
X0041973Y0031250D02*
X0040872Y0031250D01*
X0040872Y0030516D02*
X0040872Y0032718D01*
X0041973Y0032718D01*
X0042340Y0032351D01*
X0042340Y0031617D01*
X0041973Y0031250D01*
X0043266Y0031984D02*
X0044000Y0032718D01*
X0052340Y0036473D02*
X0052707Y0036106D01*
X0053441Y0036106D01*
X0053808Y0036473D01*
X0053808Y0036840D01*
X0053441Y0037207D01*
X0052707Y0037207D01*
X0052340Y0037574D01*
X0052340Y0037941D01*
X0052707Y0038308D01*
X0053441Y0038308D01*
X0053808Y0037941D01*
X0054734Y0037941D02*
X0054734Y0036473D01*
X0055101Y0036106D01*
X0055835Y0036106D01*
X0056202Y0036473D01*
X0057128Y0037207D02*
X0058596Y0037207D01*
X0059522Y0037207D02*
X0060256Y0037574D01*
X0060623Y0037574D01*
X0060990Y0037207D01*
X0060990Y0036473D01*
X0060623Y0036106D01*
X0059889Y0036106D01*
X0059522Y0036473D01*
X0059522Y0037207D02*
X0059522Y0038308D01*
X0060990Y0038308D01*
X0061916Y0037941D02*
X0062283Y0038308D01*
X0063017Y0038308D01*
X0063384Y0037941D01*
X0061916Y0036473D01*
X0062283Y0036106D01*
X0063017Y0036106D01*
X0063384Y0036473D01*
X0063384Y0037941D01*
X0064310Y0037941D02*
X0064677Y0038308D01*
X0065411Y0038308D01*
X0065778Y0037941D01*
X0065778Y0037574D01*
X0065411Y0037207D01*
X0065778Y0036840D01*
X0065778Y0036473D01*
X0065411Y0036106D01*
X0064677Y0036106D01*
X0064310Y0036473D01*
X0065044Y0037207D02*
X0065411Y0037207D01*
X0069067Y0037543D02*
X0069067Y0038277D01*
X0069434Y0038644D01*
X0070902Y0037176D01*
X0071269Y0037543D01*
X0071269Y0038277D01*
X0070902Y0038644D01*
X0069434Y0038644D01*
X0069801Y0039570D02*
X0069067Y0040304D01*
X0071269Y0040304D01*
X0071269Y0039570D02*
X0071269Y0041038D01*
X0070902Y0041964D02*
X0071269Y0042331D01*
X0071269Y0043065D01*
X0070902Y0043432D01*
X0070168Y0043432D01*
X0069801Y0043065D01*
X0069801Y0042698D01*
X0070168Y0041964D01*
X0069067Y0041964D01*
X0069067Y0043432D01*
X0069067Y0037543D02*
X0069434Y0037176D01*
X0070902Y0037176D01*
X0070902Y0036250D02*
X0071269Y0035883D01*
X0071269Y0035149D01*
X0070902Y0034782D01*
X0069434Y0034782D01*
X0069067Y0035149D01*
X0069067Y0035883D01*
X0069434Y0036250D01*
X0070902Y0036250D01*
X0071269Y0036250D02*
X0070535Y0035516D01*
X0070535Y0033856D02*
X0070902Y0033856D01*
X0071269Y0033489D01*
X0071269Y0032388D01*
X0069067Y0032388D01*
X0069067Y0033489D01*
X0069434Y0033856D01*
X0069801Y0033856D01*
X0070168Y0033489D01*
X0070168Y0032388D01*
X0070168Y0033489D02*
X0070535Y0033856D01*
X0070902Y0031462D02*
X0071269Y0031095D01*
X0071269Y0030361D01*
X0070902Y0029994D01*
X0069434Y0031462D01*
X0070902Y0031462D01*
X0070902Y0029994D02*
X0069434Y0029994D01*
X0069067Y0030361D01*
X0069067Y0031095D01*
X0069434Y0031462D01*
X0071269Y0029068D02*
X0071269Y0027600D01*
X0071269Y0028334D02*
X0069067Y0028334D01*
X0069801Y0027600D01*
X0069550Y0023781D02*
X0069183Y0023414D01*
X0069550Y0023781D02*
X0070284Y0023781D01*
X0070651Y0023414D01*
X0070651Y0023047D01*
X0070284Y0022680D01*
X0070651Y0022313D01*
X0070651Y0021946D01*
X0070284Y0021579D01*
X0069550Y0021579D01*
X0069183Y0021946D01*
X0068257Y0021579D02*
X0066789Y0021579D01*
X0067523Y0021579D02*
X0067523Y0023781D01*
X0066789Y0023047D01*
X0065863Y0023414D02*
X0065496Y0023781D01*
X0064762Y0023781D01*
X0064395Y0023414D01*
X0064395Y0021946D01*
X0064762Y0021579D01*
X0065496Y0021579D01*
X0065863Y0021946D01*
X0064392Y0020591D02*
X0076597Y0020591D01*
X0080928Y0016261D01*
X0079549Y0008978D02*
X0079466Y0008811D01*
X0079379Y0008647D01*
X0079287Y0008484D01*
X0079192Y0008324D01*
X0079093Y0008167D01*
X0078990Y0008012D01*
X0078883Y0007859D01*
X0078772Y0007709D01*
X0078658Y0007562D01*
X0078541Y0007417D01*
X0078420Y0007276D01*
X0078295Y0007137D01*
X0078168Y0007002D01*
X0078037Y0006869D01*
X0077902Y0006740D01*
X0077765Y0006614D01*
X0077625Y0006492D01*
X0077481Y0006373D01*
X0077335Y0006257D01*
X0077186Y0006146D01*
X0077035Y0006037D01*
X0076881Y0005933D01*
X0076724Y0005832D01*
X0076565Y0005735D01*
X0076404Y0005642D01*
X0076240Y0005553D01*
X0076074Y0005468D01*
X0075907Y0005387D01*
X0075737Y0005310D01*
X0075565Y0005237D01*
X0075392Y0005169D01*
X0075217Y0005105D01*
X0075041Y0005045D01*
X0074863Y0004989D01*
X0074684Y0004937D01*
X0074504Y0004890D01*
X0074323Y0004848D01*
X0074141Y0004809D01*
X0073957Y0004776D01*
X0073774Y0004746D01*
X0073589Y0004722D01*
X0073404Y0004701D01*
X0073218Y0004685D01*
X0073032Y0004674D01*
X0072846Y0004667D01*
X0072660Y0004665D01*
X0072474Y0004667D01*
X0072288Y0004674D01*
X0072102Y0004685D01*
X0071916Y0004701D01*
X0071731Y0004722D01*
X0071546Y0004746D01*
X0071363Y0004776D01*
X0071179Y0004809D01*
X0070997Y0004848D01*
X0070816Y0004890D01*
X0070636Y0004937D01*
X0070457Y0004989D01*
X0070279Y0005045D01*
X0070103Y0005105D01*
X0069928Y0005169D01*
X0069755Y0005237D01*
X0069583Y0005310D01*
X0069413Y0005387D01*
X0069246Y0005468D01*
X0069080Y0005553D01*
X0068916Y0005642D01*
X0068755Y0005735D01*
X0068596Y0005832D01*
X0068439Y0005933D01*
X0068285Y0006037D01*
X0068134Y0006146D01*
X0067985Y0006257D01*
X0067839Y0006373D01*
X0067695Y0006492D01*
X0067555Y0006614D01*
X0067418Y0006740D01*
X0067283Y0006869D01*
X0067152Y0007002D01*
X0067025Y0007137D01*
X0066900Y0007276D01*
X0066779Y0007417D01*
X0066662Y0007562D01*
X0066548Y0007709D01*
X0066437Y0007859D01*
X0066330Y0008012D01*
X0066227Y0008167D01*
X0066128Y0008324D01*
X0066033Y0008484D01*
X0065941Y0008647D01*
X0065854Y0008811D01*
X0065771Y0008978D01*
X0064392Y0008977D02*
X0064392Y0004056D01*
X0076597Y0004056D01*
X0080928Y0008387D01*
X0080877Y0006162D02*
X0080877Y0003961D01*
X0080143Y0003961D02*
X0081611Y0003961D01*
X0082537Y0004328D02*
X0084005Y0005796D01*
X0084005Y0004328D01*
X0083638Y0003961D01*
X0082904Y0003961D01*
X0082537Y0004328D01*
X0082537Y0005796D01*
X0082904Y0006162D01*
X0083638Y0006162D01*
X0084005Y0005796D01*
X0084931Y0005429D02*
X0084931Y0004328D01*
X0085298Y0003961D01*
X0086399Y0003961D01*
X0086399Y0005429D01*
X0087325Y0005062D02*
X0088059Y0005062D01*
X0087325Y0006162D02*
X0087325Y0003961D01*
X0087325Y0006162D02*
X0088793Y0006162D01*
X0080877Y0006162D02*
X0080143Y0005429D01*
X0079549Y0015670D02*
X0079466Y0015837D01*
X0079379Y0016001D01*
X0079287Y0016164D01*
X0079192Y0016324D01*
X0079093Y0016481D01*
X0078990Y0016636D01*
X0078883Y0016789D01*
X0078772Y0016939D01*
X0078658Y0017086D01*
X0078541Y0017231D01*
X0078420Y0017372D01*
X0078295Y0017511D01*
X0078168Y0017646D01*
X0078037Y0017779D01*
X0077902Y0017908D01*
X0077765Y0018034D01*
X0077625Y0018156D01*
X0077481Y0018275D01*
X0077335Y0018391D01*
X0077186Y0018502D01*
X0077035Y0018611D01*
X0076881Y0018715D01*
X0076724Y0018816D01*
X0076565Y0018913D01*
X0076404Y0019006D01*
X0076240Y0019095D01*
X0076074Y0019180D01*
X0075907Y0019261D01*
X0075737Y0019338D01*
X0075565Y0019411D01*
X0075392Y0019479D01*
X0075217Y0019543D01*
X0075041Y0019603D01*
X0074863Y0019659D01*
X0074684Y0019711D01*
X0074504Y0019758D01*
X0074323Y0019800D01*
X0074141Y0019839D01*
X0073957Y0019872D01*
X0073774Y0019902D01*
X0073589Y0019926D01*
X0073404Y0019947D01*
X0073218Y0019963D01*
X0073032Y0019974D01*
X0072846Y0019981D01*
X0072660Y0019983D01*
X0072474Y0019981D01*
X0072288Y0019974D01*
X0072102Y0019963D01*
X0071916Y0019947D01*
X0071731Y0019926D01*
X0071546Y0019902D01*
X0071363Y0019872D01*
X0071179Y0019839D01*
X0070997Y0019800D01*
X0070816Y0019758D01*
X0070636Y0019711D01*
X0070457Y0019659D01*
X0070279Y0019603D01*
X0070103Y0019543D01*
X0069928Y0019479D01*
X0069755Y0019411D01*
X0069583Y0019338D01*
X0069413Y0019261D01*
X0069246Y0019180D01*
X0069080Y0019095D01*
X0068916Y0019006D01*
X0068755Y0018913D01*
X0068596Y0018816D01*
X0068439Y0018715D01*
X0068285Y0018611D01*
X0068134Y0018502D01*
X0067985Y0018391D01*
X0067839Y0018275D01*
X0067695Y0018156D01*
X0067555Y0018034D01*
X0067418Y0017908D01*
X0067283Y0017779D01*
X0067152Y0017646D01*
X0067025Y0017511D01*
X0066900Y0017372D01*
X0066779Y0017231D01*
X0066662Y0017086D01*
X0066548Y0016939D01*
X0066437Y0016789D01*
X0066330Y0016636D01*
X0066227Y0016481D01*
X0066128Y0016324D01*
X0066033Y0016164D01*
X0065941Y0016001D01*
X0065854Y0015837D01*
X0065771Y0015670D01*
X0064392Y0015670D02*
X0064392Y0020591D01*
X0069917Y0022680D02*
X0070284Y0022680D01*
X0084854Y0034098D02*
X0084854Y0035199D01*
X0085221Y0035566D01*
X0086689Y0035566D01*
X0087056Y0035199D01*
X0087056Y0034098D01*
X0084854Y0034098D01*
X0085588Y0036492D02*
X0084854Y0037226D01*
X0087056Y0037226D01*
X0087056Y0036492D02*
X0087056Y0037960D01*
X0093332Y0034733D02*
X0093332Y0033265D01*
X0093699Y0032898D01*
X0094433Y0032898D01*
X0094800Y0033265D01*
X0095726Y0032898D02*
X0097194Y0032898D01*
X0096460Y0032898D02*
X0096460Y0035100D01*
X0095726Y0034366D01*
X0094800Y0034733D02*
X0094433Y0035100D01*
X0093699Y0035100D01*
X0093332Y0034733D01*
X0098120Y0035100D02*
X0099588Y0035100D01*
X0099588Y0034733D01*
X0098120Y0033265D01*
X0098120Y0032898D01*
X0103703Y0032928D02*
X0103703Y0032194D01*
X0104070Y0031827D01*
X0103703Y0032928D02*
X0104070Y0033295D01*
X0104437Y0033295D01*
X0105905Y0031827D01*
X0105905Y0033295D01*
X0105905Y0030901D02*
X0105905Y0029433D01*
X0103703Y0029433D01*
X0103179Y0025355D02*
X0101711Y0025355D01*
X0101711Y0023154D01*
X0100785Y0023154D02*
X0100785Y0024621D01*
X0101711Y0024254D02*
X0102445Y0024254D01*
X0100785Y0023154D02*
X0099684Y0023154D01*
X0099317Y0023521D01*
X0099317Y0024621D01*
X0098391Y0023154D02*
X0096923Y0023154D01*
X0097657Y0023154D02*
X0097657Y0025355D01*
X0096923Y0024621D01*
X0096093Y0023521D02*
X0096093Y0023154D01*
X0095726Y0023154D01*
X0095726Y0023521D01*
X0096093Y0023521D01*
X0094800Y0023521D02*
X0094433Y0023154D01*
X0093699Y0023154D01*
X0093332Y0023521D01*
X0094800Y0024988D01*
X0094800Y0023521D01*
X0094800Y0024988D02*
X0094433Y0025355D01*
X0093699Y0025355D01*
X0093332Y0024988D01*
X0093332Y0023521D01*
X0095924Y0039276D02*
X0095557Y0039643D01*
X0095924Y0039276D02*
X0096658Y0039276D01*
X0097025Y0039643D01*
X0097025Y0040377D01*
X0096658Y0040744D01*
X0096291Y0040744D01*
X0095557Y0040377D01*
X0095557Y0041477D01*
X0097025Y0041477D01*
X0097951Y0040377D02*
X0099052Y0040377D01*
X0099419Y0040010D01*
X0099419Y0039643D01*
X0099052Y0039276D01*
X0098318Y0039276D01*
X0097951Y0039643D01*
X0097951Y0040377D01*
X0098685Y0041110D01*
X0099419Y0041477D01*
X0100345Y0040744D02*
X0101446Y0040744D01*
X0101813Y0040377D01*
X0101813Y0039276D01*
X0102739Y0039276D02*
X0102739Y0041477D01*
X0104207Y0041477D01*
X0103473Y0040377D02*
X0102739Y0040377D01*
X0100345Y0040744D02*
X0100345Y0039276D01*
X0102735Y0048205D02*
X0103469Y0048205D01*
X0103836Y0048572D01*
X0103836Y0050040D01*
X0103469Y0050407D01*
X0102735Y0050407D01*
X0102368Y0050040D01*
X0102368Y0048572D01*
X0102735Y0048205D01*
X0104762Y0048205D02*
X0104762Y0050407D01*
X0105863Y0050407D01*
X0106230Y0050040D01*
X0106230Y0049306D01*
X0105863Y0048939D01*
X0104762Y0048939D01*
X0107156Y0049306D02*
X0108624Y0049306D01*
X0108624Y0049673D02*
X0108624Y0048205D01*
X0109550Y0048205D02*
X0111018Y0049673D01*
X0111018Y0050040D01*
X0110651Y0050407D01*
X0109917Y0050407D01*
X0109550Y0050040D01*
X0108624Y0049673D02*
X0107890Y0050407D01*
X0107156Y0049673D01*
X0107156Y0048205D01*
X0109550Y0048205D02*
X0111018Y0048205D01*
X0111944Y0048205D02*
X0113412Y0048205D01*
X0112678Y0048205D02*
X0112678Y0050407D01*
X0111944Y0049673D01*
X0114338Y0050040D02*
X0114705Y0050407D01*
X0115439Y0050407D01*
X0115806Y0050040D01*
X0115806Y0049673D01*
X0115439Y0049306D01*
X0115806Y0048939D01*
X0115806Y0048572D01*
X0115439Y0048205D01*
X0114705Y0048205D01*
X0114338Y0048572D01*
X0115072Y0049306D02*
X0115439Y0049306D01*
X0116732Y0049306D02*
X0118200Y0049306D01*
X0117833Y0050407D02*
X0116732Y0049306D01*
X0117833Y0048205D02*
X0117833Y0050407D01*
X0119126Y0050407D02*
X0119126Y0048572D01*
X0119493Y0048205D01*
X0120227Y0048205D01*
X0120594Y0048572D01*
X0120594Y0050407D01*
X0121520Y0049673D02*
X0122254Y0050407D01*
X0122988Y0049673D01*
X0122988Y0048205D01*
X0122988Y0049306D02*
X0121520Y0049306D01*
X0121520Y0049673D02*
X0121520Y0048205D01*
X0120787Y0047361D02*
X0119319Y0047361D01*
X0118585Y0046627D01*
X0119319Y0045893D01*
X0120787Y0045893D01*
X0120787Y0044967D02*
X0119686Y0044967D01*
X0119319Y0044600D01*
X0119686Y0044233D01*
X0120787Y0044233D01*
X0120787Y0043499D02*
X0119319Y0043499D01*
X0119319Y0043866D01*
X0119686Y0044233D01*
X0119686Y0045893D02*
X0119686Y0047361D01*
X0118952Y0042573D02*
X0120420Y0042573D01*
X0120787Y0042206D01*
X0120787Y0041472D01*
X0120420Y0041105D01*
X0118952Y0042573D01*
X0118585Y0042206D01*
X0118585Y0041472D01*
X0118952Y0041105D01*
X0120420Y0041105D01*
X0120420Y0040179D02*
X0120787Y0039812D01*
X0120787Y0039078D01*
X0120420Y0038711D01*
X0118952Y0040179D01*
X0120420Y0040179D01*
X0120420Y0038711D02*
X0118952Y0038711D01*
X0118585Y0039078D01*
X0118585Y0039812D01*
X0118952Y0040179D01*
X0118585Y0037785D02*
X0118585Y0036317D01*
X0119686Y0036317D01*
X0119319Y0037051D01*
X0119319Y0037418D01*
X0119686Y0037785D01*
X0120420Y0037785D01*
X0120787Y0037418D01*
X0120787Y0036684D01*
X0120420Y0036317D01*
X0118585Y0035391D02*
X0120787Y0033923D01*
X0120787Y0032997D02*
X0118585Y0032997D01*
X0119686Y0032997D02*
X0119686Y0031529D01*
X0119319Y0030603D02*
X0120787Y0030603D01*
X0120787Y0029502D01*
X0120420Y0029135D01*
X0119319Y0029135D01*
X0118952Y0028209D02*
X0120420Y0026741D01*
X0120787Y0027108D01*
X0120787Y0027842D01*
X0120420Y0028209D01*
X0118952Y0028209D01*
X0118585Y0027842D01*
X0118585Y0027108D01*
X0118952Y0026741D01*
X0120420Y0026741D01*
X0120420Y0025815D02*
X0118952Y0025815D01*
X0120420Y0024347D01*
X0120787Y0024714D01*
X0120787Y0025448D01*
X0120420Y0025815D01*
X0120420Y0024347D02*
X0118952Y0024347D01*
X0118585Y0024714D01*
X0118585Y0025448D01*
X0118952Y0025815D01*
X0120787Y0023421D02*
X0120787Y0021953D01*
X0120787Y0022687D02*
X0118585Y0022687D01*
X0119319Y0021953D01*
X0127954Y0023178D02*
X0129422Y0023178D01*
X0128688Y0023178D02*
X0128688Y0025379D01*
X0127954Y0024645D01*
X0130348Y0023912D02*
X0131449Y0024645D01*
X0130348Y0023912D02*
X0131449Y0023178D01*
X0130348Y0023178D02*
X0130348Y0025379D01*
X0130112Y0032163D02*
X0131580Y0032163D01*
X0130846Y0032163D02*
X0130846Y0034365D01*
X0130112Y0033631D01*
X0129186Y0033998D02*
X0129186Y0033264D01*
X0128819Y0032897D01*
X0127718Y0032897D01*
X0128452Y0032897D02*
X0129186Y0032163D01*
X0127718Y0032163D02*
X0127718Y0034365D01*
X0128819Y0034365D01*
X0129186Y0033998D01*
X0132506Y0033998D02*
X0132873Y0034365D01*
X0133607Y0034365D01*
X0133974Y0033998D01*
X0133974Y0033631D01*
X0133607Y0033264D01*
X0133974Y0032897D01*
X0133974Y0032530D01*
X0133607Y0032163D01*
X0132873Y0032163D01*
X0132506Y0032530D01*
X0133240Y0033264D02*
X0133607Y0033264D01*
X0133506Y0039394D02*
X0133506Y0040862D01*
X0134432Y0040495D02*
X0135166Y0040495D01*
X0134432Y0041596D02*
X0135900Y0041596D01*
X0134432Y0041596D02*
X0134432Y0039394D01*
X0133506Y0039394D02*
X0132405Y0039394D01*
X0132038Y0039761D01*
X0132038Y0040862D01*
X0131112Y0041229D02*
X0129644Y0039761D01*
X0130011Y0039394D01*
X0130745Y0039394D01*
X0131112Y0039761D01*
X0131112Y0041229D01*
X0130745Y0041596D01*
X0130011Y0041596D01*
X0129644Y0041229D01*
X0129644Y0039761D01*
X0128718Y0039394D02*
X0127250Y0039394D01*
X0127984Y0039394D02*
X0127984Y0041596D01*
X0127250Y0040862D01*
X0128995Y0047701D02*
X0129728Y0047701D01*
X0130095Y0048068D01*
X0131022Y0047701D02*
X0132490Y0047701D01*
X0131756Y0047701D02*
X0131756Y0049903D01*
X0131022Y0049169D01*
X0130095Y0049536D02*
X0129728Y0049903D01*
X0128995Y0049903D01*
X0128628Y0049536D01*
X0128628Y0048068D01*
X0128995Y0047701D01*
X0133416Y0048068D02*
X0133416Y0049536D01*
X0133783Y0049903D01*
X0134517Y0049903D01*
X0134884Y0049536D01*
X0133416Y0048068D01*
X0133783Y0047701D01*
X0134517Y0047701D01*
X0134884Y0048068D01*
X0134884Y0049536D01*
X0145163Y0049142D02*
X0145163Y0047674D01*
X0145530Y0047307D01*
X0146264Y0047307D01*
X0146631Y0047674D01*
X0147557Y0047674D02*
X0147924Y0047307D01*
X0148658Y0047307D01*
X0149025Y0047674D01*
X0149025Y0049142D01*
X0148658Y0049509D01*
X0147924Y0049509D01*
X0147557Y0049142D01*
X0147557Y0048775D01*
X0147924Y0048408D01*
X0149025Y0048408D01*
X0146631Y0049142D02*
X0146264Y0049509D01*
X0145530Y0049509D01*
X0145163Y0049142D01*
X0144322Y0041281D02*
X0144322Y0039079D01*
X0143588Y0039079D02*
X0145056Y0039079D01*
X0145982Y0039446D02*
X0147450Y0040914D01*
X0147450Y0039446D01*
X0147083Y0039079D01*
X0146349Y0039079D01*
X0145982Y0039446D01*
X0145982Y0040914D01*
X0146349Y0041281D01*
X0147083Y0041281D01*
X0147450Y0040914D01*
X0148376Y0040547D02*
X0149477Y0040547D01*
X0149844Y0040180D01*
X0149844Y0039079D01*
X0150770Y0039079D02*
X0150770Y0041281D01*
X0152238Y0041281D01*
X0151504Y0040180D02*
X0150770Y0040180D01*
X0148376Y0040547D02*
X0148376Y0039079D01*
X0144322Y0041281D02*
X0143588Y0040547D01*
X0158155Y0038092D02*
X0158155Y0035890D01*
X0158155Y0036624D02*
X0159256Y0036624D01*
X0159623Y0036991D01*
X0159623Y0037725D01*
X0159256Y0038092D01*
X0158155Y0038092D01*
X0158889Y0036624D02*
X0159623Y0035890D01*
X0160549Y0035890D02*
X0162017Y0035890D01*
X0161283Y0035890D02*
X0161283Y0038092D01*
X0160549Y0037358D01*
X0162943Y0036991D02*
X0164044Y0036991D01*
X0164411Y0036624D01*
X0164411Y0036257D01*
X0164044Y0035890D01*
X0163310Y0035890D01*
X0162943Y0036257D01*
X0162943Y0036991D01*
X0163677Y0037725D01*
X0164411Y0038092D01*
X0164927Y0039512D02*
X0166395Y0039512D01*
X0165661Y0039512D02*
X0165661Y0041714D01*
X0164927Y0040980D01*
X0167321Y0041347D02*
X0167688Y0041714D01*
X0168422Y0041714D01*
X0168789Y0041347D01*
X0167321Y0039879D01*
X0167688Y0039512D01*
X0168422Y0039512D01*
X0168789Y0039879D01*
X0168789Y0041347D01*
X0169715Y0040980D02*
X0169715Y0039879D01*
X0170082Y0039512D01*
X0171183Y0039512D01*
X0171183Y0040980D01*
X0172109Y0040613D02*
X0172843Y0040613D01*
X0172109Y0041714D02*
X0173577Y0041714D01*
X0172109Y0041714D02*
X0172109Y0039512D01*
X0174694Y0038548D02*
X0175795Y0038548D01*
X0176162Y0038181D01*
X0176162Y0037447D01*
X0175795Y0037080D01*
X0174694Y0037080D01*
X0174694Y0036346D02*
X0174694Y0038548D01*
X0177089Y0037814D02*
X0177822Y0038548D01*
X0177822Y0036346D01*
X0177089Y0036346D02*
X0178556Y0036346D01*
X0176162Y0036346D02*
X0175428Y0037080D01*
X0180990Y0039669D02*
X0182458Y0041137D01*
X0182458Y0041504D01*
X0182091Y0041871D01*
X0181357Y0041871D01*
X0180990Y0041504D01*
X0183384Y0040036D02*
X0183751Y0040036D01*
X0183751Y0039669D01*
X0183384Y0039669D01*
X0183384Y0040036D01*
X0182458Y0039669D02*
X0180990Y0039669D01*
X0184581Y0039669D02*
X0186049Y0041137D01*
X0186049Y0041504D01*
X0185682Y0041871D01*
X0184948Y0041871D01*
X0184581Y0041504D01*
X0186975Y0041871D02*
X0186975Y0039669D01*
X0186975Y0040403D02*
X0188076Y0039669D01*
X0186975Y0040403D02*
X0188076Y0041137D01*
X0186049Y0039669D02*
X0184581Y0039669D01*
X0193988Y0039925D02*
X0195456Y0039925D01*
X0196190Y0040659D01*
X0195456Y0041393D01*
X0193988Y0041393D01*
X0194722Y0042319D02*
X0194722Y0042686D01*
X0196190Y0042686D01*
X0196190Y0042319D02*
X0196190Y0043053D01*
X0196190Y0043915D02*
X0194722Y0043915D01*
X0194722Y0045016D01*
X0195089Y0045383D01*
X0196190Y0045383D01*
X0193988Y0042686D02*
X0193621Y0042686D01*
X0184878Y0047701D02*
X0184878Y0049903D01*
X0183778Y0048802D01*
X0185245Y0048802D01*
X0182851Y0048802D02*
X0182851Y0049536D01*
X0182484Y0049903D01*
X0181383Y0049903D01*
X0181383Y0047701D01*
X0181383Y0048435D02*
X0182484Y0048435D01*
X0182851Y0048802D01*
X0182117Y0048435D02*
X0182851Y0047701D01*
X0193988Y0050292D02*
X0193988Y0051026D01*
X0194355Y0051393D01*
X0194722Y0051393D01*
X0195089Y0051026D01*
X0195456Y0051393D01*
X0195823Y0051393D01*
X0196190Y0051026D01*
X0196190Y0050292D01*
X0195823Y0049925D01*
X0195089Y0050659D02*
X0195089Y0051026D01*
X0194355Y0049925D02*
X0193988Y0050292D01*
X0193988Y0052319D02*
X0195456Y0052319D01*
X0196190Y0053053D01*
X0195456Y0053787D01*
X0193988Y0053787D01*
X0194355Y0057425D02*
X0195823Y0057425D01*
X0196190Y0057792D01*
X0196190Y0058526D01*
X0195823Y0058893D01*
X0195089Y0058893D01*
X0195089Y0058159D01*
X0194355Y0057425D02*
X0193988Y0057792D01*
X0193988Y0058526D01*
X0194355Y0058893D01*
X0193988Y0059819D02*
X0196190Y0061287D01*
X0193988Y0061287D01*
X0193988Y0062213D02*
X0193988Y0063314D01*
X0194355Y0063681D01*
X0195823Y0063681D01*
X0196190Y0063314D01*
X0196190Y0062213D01*
X0193988Y0062213D01*
X0193988Y0059819D02*
X0196190Y0059819D01*
X0188427Y0067228D02*
X0188427Y0069430D01*
X0187693Y0068696D01*
X0186959Y0069430D01*
X0186959Y0067228D01*
X0186033Y0067595D02*
X0186033Y0069063D01*
X0184565Y0067595D01*
X0184932Y0067228D01*
X0185666Y0067228D01*
X0186033Y0067595D01*
X0184565Y0067595D02*
X0184565Y0069063D01*
X0184932Y0069430D01*
X0185666Y0069430D01*
X0186033Y0069063D01*
X0183639Y0067228D02*
X0182171Y0067228D01*
X0182905Y0067228D02*
X0182905Y0069430D01*
X0182171Y0068696D01*
X0193988Y0070659D02*
X0194722Y0069925D01*
X0196190Y0069925D01*
X0195089Y0069925D02*
X0195089Y0071393D01*
X0194722Y0071393D02*
X0196190Y0071393D01*
X0195823Y0072319D02*
X0194355Y0072319D01*
X0193988Y0072686D01*
X0193988Y0073420D01*
X0194355Y0073787D01*
X0195823Y0073787D02*
X0196190Y0073420D01*
X0196190Y0072686D01*
X0195823Y0072319D01*
X0194722Y0071393D02*
X0193988Y0070659D01*
X0188060Y0077228D02*
X0187326Y0077228D01*
X0186959Y0077595D01*
X0186033Y0077228D02*
X0184565Y0077228D01*
X0186033Y0078696D01*
X0186033Y0079063D01*
X0185666Y0079430D01*
X0184932Y0079430D01*
X0184565Y0079063D01*
X0183639Y0079063D02*
X0183639Y0078329D01*
X0183272Y0077962D01*
X0182171Y0077962D01*
X0182171Y0077228D02*
X0182171Y0079430D01*
X0183272Y0079430D01*
X0183639Y0079063D01*
X0182905Y0077962D02*
X0183639Y0077228D01*
X0186959Y0079063D02*
X0187326Y0079430D01*
X0188060Y0079430D01*
X0188427Y0079063D01*
X0188427Y0078696D01*
X0188060Y0078329D01*
X0188427Y0077962D01*
X0188427Y0077595D01*
X0188060Y0077228D01*
X0188060Y0078329D02*
X0187693Y0078329D01*
X0193988Y0079925D02*
X0193988Y0081026D01*
X0194355Y0081393D01*
X0195823Y0081393D01*
X0196190Y0081026D01*
X0196190Y0079925D01*
X0193988Y0079925D01*
X0194355Y0082319D02*
X0195823Y0082319D01*
X0196190Y0082686D01*
X0196190Y0083420D01*
X0195823Y0083787D01*
X0194355Y0083787D02*
X0193988Y0083420D01*
X0193988Y0082686D01*
X0194355Y0082319D01*
X0185872Y0082602D02*
X0184405Y0082602D01*
X0185138Y0082602D02*
X0185138Y0084804D01*
X0184405Y0084070D01*
X0183478Y0084804D02*
X0182010Y0083336D01*
X0182377Y0083703D02*
X0183478Y0082602D01*
X0182010Y0082602D02*
X0182010Y0084804D01*
X0181084Y0084804D02*
X0180350Y0084437D01*
X0179616Y0083703D01*
X0180717Y0083703D01*
X0181084Y0083336D01*
X0181084Y0082969D01*
X0180717Y0082602D01*
X0179983Y0082602D01*
X0179616Y0082969D01*
X0179616Y0083703D01*
X0178690Y0083336D02*
X0178690Y0082969D01*
X0178323Y0082602D01*
X0177589Y0082602D01*
X0177222Y0082969D01*
X0177589Y0083703D02*
X0178323Y0083703D01*
X0178690Y0083336D01*
X0178690Y0084437D02*
X0178323Y0084804D01*
X0177589Y0084804D01*
X0177222Y0084437D01*
X0177222Y0084070D01*
X0177589Y0083703D01*
X0176296Y0082969D02*
X0175929Y0082602D01*
X0175195Y0082602D01*
X0174828Y0082969D01*
X0174828Y0084437D01*
X0175195Y0084804D01*
X0175929Y0084804D01*
X0176296Y0084437D01*
X0176296Y0082969D01*
X0176296Y0082602D02*
X0175562Y0083336D01*
X0175432Y0086388D02*
X0173964Y0088590D01*
X0174235Y0089292D02*
X0174235Y0095198D01*
X0173982Y0099138D02*
X0174349Y0099505D01*
X0173982Y0099138D02*
X0173248Y0099138D01*
X0172881Y0099505D01*
X0172881Y0100973D01*
X0173248Y0101340D01*
X0173982Y0101340D01*
X0174349Y0100973D01*
X0175275Y0100239D02*
X0176376Y0100239D01*
X0176743Y0099872D01*
X0176743Y0099505D01*
X0176376Y0099138D01*
X0175642Y0099138D01*
X0175275Y0099505D01*
X0175275Y0100239D01*
X0176009Y0100973D01*
X0176743Y0101340D01*
X0172019Y0101340D02*
X0171285Y0101340D01*
X0171652Y0101340D02*
X0171652Y0099138D01*
X0171285Y0099138D02*
X0172019Y0099138D01*
X0163121Y0097169D02*
X0161653Y0097169D01*
X0162387Y0097169D02*
X0162387Y0099371D01*
X0161653Y0098637D01*
X0160727Y0099004D02*
X0160360Y0099371D01*
X0159626Y0099371D01*
X0159259Y0099004D01*
X0159259Y0097536D01*
X0159626Y0097169D01*
X0160360Y0097169D01*
X0160727Y0097536D01*
X0158397Y0097169D02*
X0157663Y0097169D01*
X0158030Y0097169D02*
X0158030Y0099371D01*
X0157663Y0099371D02*
X0158397Y0099371D01*
X0157657Y0100437D02*
X0155455Y0100437D01*
X0156189Y0101171D01*
X0155455Y0101905D01*
X0157657Y0101905D01*
X0157290Y0102831D02*
X0155822Y0102831D01*
X0155455Y0103198D01*
X0155455Y0103932D01*
X0155822Y0104299D01*
X0155455Y0105225D02*
X0155455Y0106326D01*
X0155822Y0106693D01*
X0156556Y0106693D01*
X0156923Y0106326D01*
X0156923Y0105225D01*
X0157657Y0105225D02*
X0155455Y0105225D01*
X0157290Y0104299D02*
X0157657Y0103932D01*
X0157657Y0103198D01*
X0157290Y0102831D01*
X0157290Y0107619D02*
X0157657Y0107619D01*
X0157290Y0107619D02*
X0155822Y0109087D01*
X0155455Y0109087D01*
X0155455Y0107619D01*
X0155822Y0110013D02*
X0155455Y0110380D01*
X0155455Y0111114D01*
X0155822Y0111481D01*
X0156189Y0111481D01*
X0156556Y0111114D01*
X0156923Y0111481D01*
X0157290Y0111481D01*
X0157657Y0111114D01*
X0157657Y0110380D01*
X0157290Y0110013D01*
X0156556Y0110747D02*
X0156556Y0111114D01*
X0156923Y0112407D02*
X0156556Y0112774D01*
X0156556Y0113508D01*
X0156923Y0113875D01*
X0157290Y0113875D01*
X0157657Y0113508D01*
X0157657Y0112774D01*
X0157290Y0112407D01*
X0156923Y0112407D01*
X0156556Y0112774D02*
X0156189Y0112407D01*
X0155822Y0112407D01*
X0155455Y0112774D01*
X0155455Y0113508D01*
X0155822Y0113875D01*
X0156189Y0113875D01*
X0156556Y0113508D01*
X0157290Y0114801D02*
X0157657Y0115168D01*
X0157657Y0115902D01*
X0157290Y0116269D01*
X0156923Y0116269D01*
X0156556Y0115902D01*
X0156556Y0115535D01*
X0156556Y0115902D02*
X0156189Y0116269D01*
X0155822Y0116269D01*
X0155455Y0115902D01*
X0155455Y0115168D01*
X0155822Y0114801D01*
X0156189Y0117195D02*
X0155455Y0117929D01*
X0157657Y0117929D01*
X0157657Y0117195D02*
X0157657Y0118663D01*
X0166246Y0117657D02*
X0166246Y0116556D01*
X0166980Y0116923D01*
X0167347Y0116923D01*
X0167714Y0116556D01*
X0167714Y0115822D01*
X0167347Y0115455D01*
X0166613Y0115455D01*
X0166246Y0115822D01*
X0166246Y0117657D02*
X0167714Y0117657D01*
X0168640Y0117657D02*
X0168640Y0115455D01*
X0168640Y0116189D02*
X0169741Y0115455D01*
X0168640Y0116189D02*
X0169741Y0116923D01*
X0172461Y0117290D02*
X0172461Y0115822D01*
X0173929Y0117290D01*
X0173929Y0115822D01*
X0173562Y0115455D01*
X0172828Y0115455D01*
X0172461Y0115822D01*
X0172461Y0117290D02*
X0172828Y0117657D01*
X0173562Y0117657D01*
X0173929Y0117290D01*
X0174855Y0115822D02*
X0175222Y0115822D01*
X0175222Y0115455D01*
X0174855Y0115455D01*
X0174855Y0115822D01*
X0176052Y0115455D02*
X0177520Y0115455D01*
X0176786Y0115455D02*
X0176786Y0117657D01*
X0176052Y0116923D01*
X0178446Y0116923D02*
X0178446Y0115822D01*
X0178813Y0115455D01*
X0179914Y0115455D01*
X0179914Y0116923D01*
X0180840Y0116556D02*
X0181574Y0116556D01*
X0180840Y0117657D02*
X0182308Y0117657D01*
X0180840Y0117657D02*
X0180840Y0115455D01*
X0181600Y0109232D02*
X0181234Y0108865D01*
X0181600Y0109232D02*
X0182334Y0109232D01*
X0182701Y0108865D01*
X0182701Y0108498D01*
X0181234Y0107030D01*
X0182701Y0107030D01*
X0180307Y0107397D02*
X0179940Y0107030D01*
X0179206Y0107030D01*
X0178839Y0107397D01*
X0178839Y0108865D01*
X0179206Y0109232D01*
X0179940Y0109232D01*
X0180307Y0108865D01*
X0166953Y0108892D02*
X0166586Y0108525D01*
X0166953Y0108158D01*
X0166953Y0107791D01*
X0166586Y0107424D01*
X0165852Y0107424D01*
X0165485Y0107791D01*
X0164559Y0107424D02*
X0163825Y0108158D01*
X0164192Y0108158D02*
X0163091Y0108158D01*
X0163091Y0107424D02*
X0163091Y0109625D01*
X0164192Y0109625D01*
X0164559Y0109259D01*
X0164559Y0108525D01*
X0164192Y0108158D01*
X0165485Y0109259D02*
X0165852Y0109625D01*
X0166586Y0109625D01*
X0166953Y0109259D01*
X0166953Y0108892D01*
X0166586Y0108525D02*
X0166219Y0108525D01*
X0185258Y0095198D02*
X0185258Y0089292D01*
X0175432Y0088590D02*
X0173964Y0086388D01*
X0173038Y0088223D02*
X0171570Y0086755D01*
X0171570Y0086388D01*
X0170644Y0086755D02*
X0170644Y0088223D01*
X0170277Y0088590D01*
X0169543Y0088590D01*
X0169176Y0088223D01*
X0169176Y0087856D01*
X0169543Y0087489D01*
X0170644Y0087489D01*
X0170644Y0086755D02*
X0170277Y0086388D01*
X0169543Y0086388D01*
X0169176Y0086755D01*
X0168250Y0086388D02*
X0166782Y0086388D01*
X0168250Y0087856D01*
X0168250Y0088223D01*
X0167883Y0088590D01*
X0167149Y0088590D01*
X0166782Y0088223D01*
X0165856Y0088223D02*
X0165856Y0086755D01*
X0165489Y0086388D01*
X0164755Y0086388D01*
X0164388Y0086755D01*
X0164388Y0088223D01*
X0164755Y0088590D01*
X0165489Y0088590D01*
X0165856Y0088223D01*
X0165122Y0087122D02*
X0165856Y0086388D01*
X0163462Y0086755D02*
X0163095Y0086388D01*
X0161994Y0086388D01*
X0161994Y0088590D01*
X0163095Y0088590D01*
X0163462Y0088223D01*
X0163462Y0087856D01*
X0163095Y0087489D01*
X0161994Y0087489D01*
X0163095Y0087489D02*
X0163462Y0087122D01*
X0163462Y0086755D01*
X0171570Y0088590D02*
X0173038Y0088590D01*
X0173038Y0088223D01*
X0168375Y0079824D02*
X0167641Y0079824D01*
X0167274Y0079457D01*
X0166348Y0079457D02*
X0165981Y0079824D01*
X0165247Y0079824D01*
X0164880Y0079457D01*
X0163954Y0079457D02*
X0163954Y0078723D01*
X0163587Y0078356D01*
X0162486Y0078356D01*
X0163220Y0078356D02*
X0163954Y0077622D01*
X0164880Y0077622D02*
X0166348Y0079090D01*
X0166348Y0079457D01*
X0166348Y0077622D02*
X0164880Y0077622D01*
X0163954Y0079457D02*
X0163587Y0079824D01*
X0162486Y0079824D01*
X0162486Y0077622D01*
X0167274Y0077622D02*
X0168742Y0079090D01*
X0168742Y0079457D01*
X0168375Y0079824D01*
X0168742Y0077622D02*
X0167274Y0077622D01*
X0167274Y0069824D02*
X0168008Y0069090D01*
X0168742Y0069824D01*
X0168742Y0067622D01*
X0167274Y0067622D02*
X0167274Y0069824D01*
X0166348Y0069457D02*
X0164880Y0067989D01*
X0165247Y0067622D01*
X0165981Y0067622D01*
X0166348Y0067989D01*
X0166348Y0069457D01*
X0165981Y0069824D01*
X0165247Y0069824D01*
X0164880Y0069457D01*
X0164880Y0067989D01*
X0163954Y0067622D02*
X0162486Y0067622D01*
X0163220Y0067622D02*
X0163220Y0069824D01*
X0162486Y0069090D01*
X0156585Y0070218D02*
X0155117Y0070218D01*
X0155117Y0068016D01*
X0154191Y0068016D02*
X0154191Y0069484D01*
X0155117Y0069117D02*
X0155851Y0069117D01*
X0154191Y0068016D02*
X0153090Y0068016D01*
X0152723Y0068383D01*
X0152723Y0069484D01*
X0151797Y0069851D02*
X0150329Y0068383D01*
X0150329Y0068016D01*
X0149499Y0068016D02*
X0149132Y0068016D01*
X0149132Y0068383D01*
X0149499Y0068383D01*
X0149499Y0068016D01*
X0147839Y0068016D02*
X0147839Y0070218D01*
X0146738Y0069117D01*
X0148206Y0069117D01*
X0150329Y0070218D02*
X0151797Y0070218D01*
X0151797Y0069851D01*
X0151893Y0078016D02*
X0152627Y0078016D01*
X0152994Y0078383D01*
X0152994Y0078750D01*
X0152627Y0079117D01*
X0151526Y0079117D01*
X0151526Y0078383D01*
X0151893Y0078016D01*
X0151526Y0079117D02*
X0152260Y0079851D01*
X0152994Y0080218D01*
X0152030Y0082228D02*
X0152030Y0084430D01*
X0153498Y0084430D01*
X0152764Y0083329D02*
X0152030Y0083329D01*
X0151104Y0083329D02*
X0151104Y0082228D01*
X0151104Y0083329D02*
X0150737Y0083696D01*
X0149636Y0083696D01*
X0149636Y0082228D01*
X0148710Y0082595D02*
X0148343Y0082228D01*
X0147609Y0082228D01*
X0147242Y0082595D01*
X0148710Y0084063D01*
X0148710Y0082595D01*
X0147242Y0082595D02*
X0147242Y0084063D01*
X0147609Y0084430D01*
X0148343Y0084430D01*
X0148710Y0084063D01*
X0145582Y0084430D02*
X0144848Y0083696D01*
X0145582Y0084430D02*
X0145582Y0082228D01*
X0144848Y0082228D02*
X0146316Y0082228D01*
X0147105Y0080218D02*
X0146738Y0079851D01*
X0146738Y0078383D01*
X0147105Y0078016D01*
X0147839Y0078016D01*
X0148206Y0078383D01*
X0149132Y0078016D02*
X0150600Y0078016D01*
X0149866Y0078016D02*
X0149866Y0080218D01*
X0149132Y0079484D01*
X0148206Y0079851D02*
X0147839Y0080218D01*
X0147105Y0080218D01*
X0134064Y0075914D02*
X0134064Y0075547D01*
X0132596Y0074079D01*
X0134064Y0074079D01*
X0131670Y0074079D02*
X0130936Y0074813D01*
X0131303Y0074813D02*
X0130202Y0074813D01*
X0130202Y0074079D02*
X0130202Y0076281D01*
X0131303Y0076281D01*
X0131670Y0075914D01*
X0131670Y0075180D01*
X0131303Y0074813D01*
X0132596Y0075914D02*
X0132963Y0076281D01*
X0133697Y0076281D01*
X0134064Y0075914D01*
X0125483Y0077304D02*
X0124015Y0077304D01*
X0124015Y0075102D01*
X0123088Y0075102D02*
X0123088Y0076570D01*
X0124015Y0076203D02*
X0124749Y0076203D01*
X0123088Y0075102D02*
X0121988Y0075102D01*
X0121621Y0075469D01*
X0121621Y0076570D01*
X0120694Y0076937D02*
X0120694Y0077304D01*
X0119227Y0077304D01*
X0120694Y0076937D02*
X0119227Y0075469D01*
X0119227Y0075102D01*
X0118396Y0075102D02*
X0118029Y0075102D01*
X0118029Y0075469D01*
X0118396Y0075469D01*
X0118396Y0075102D01*
X0116736Y0075102D02*
X0116736Y0077304D01*
X0115635Y0076203D01*
X0117103Y0076203D01*
X0107826Y0076040D02*
X0107826Y0075673D01*
X0106358Y0074205D01*
X0107826Y0074205D01*
X0105432Y0074572D02*
X0105065Y0074205D01*
X0104331Y0074205D01*
X0103964Y0074572D01*
X0103964Y0076040D01*
X0104331Y0076407D01*
X0105065Y0076407D01*
X0105432Y0076040D01*
X0106358Y0076040D02*
X0106725Y0076407D01*
X0107459Y0076407D01*
X0107826Y0076040D01*
X0103102Y0076407D02*
X0102368Y0076407D01*
X0102735Y0076407D02*
X0102735Y0074205D01*
X0102368Y0074205D02*
X0103102Y0074205D01*
X0117998Y0083895D02*
X0118365Y0083528D01*
X0119099Y0083528D01*
X0119466Y0083895D01*
X0120392Y0083528D02*
X0121860Y0083528D01*
X0121126Y0083528D02*
X0121126Y0085729D01*
X0120392Y0084995D01*
X0119466Y0085362D02*
X0119099Y0085729D01*
X0118365Y0085729D01*
X0117998Y0085362D01*
X0117998Y0083895D01*
X0117044Y0086189D02*
X0115944Y0086923D01*
X0117044Y0087657D01*
X0115944Y0088391D02*
X0115944Y0086189D01*
X0115017Y0086556D02*
X0114650Y0086189D01*
X0113916Y0086189D01*
X0113550Y0086556D01*
X0115017Y0088024D01*
X0115017Y0086556D01*
X0113550Y0086556D02*
X0113550Y0088024D01*
X0113916Y0088391D01*
X0114650Y0088391D01*
X0115017Y0088024D01*
X0112623Y0088024D02*
X0111155Y0086556D01*
X0111522Y0086189D01*
X0112256Y0086189D01*
X0112623Y0086556D01*
X0112623Y0088024D01*
X0112256Y0088391D01*
X0111522Y0088391D01*
X0111155Y0088024D01*
X0111155Y0086556D01*
X0110229Y0086189D02*
X0108761Y0086189D01*
X0109495Y0086189D02*
X0109495Y0088391D01*
X0108761Y0087657D01*
X0110100Y0095244D02*
X0110100Y0097446D01*
X0111201Y0097446D01*
X0111568Y0097079D01*
X0111568Y0096345D01*
X0111201Y0095978D01*
X0110100Y0095978D01*
X0110834Y0095978D02*
X0111568Y0095244D01*
X0112494Y0095611D02*
X0112861Y0095244D01*
X0113595Y0095244D01*
X0113962Y0095611D01*
X0113962Y0097079D01*
X0113595Y0097446D01*
X0112861Y0097446D01*
X0112494Y0097079D01*
X0112494Y0096712D01*
X0112861Y0096345D01*
X0113962Y0096345D01*
X0108032Y0096785D02*
X0108032Y0097519D01*
X0108032Y0097152D02*
X0105830Y0097152D01*
X0105830Y0096785D02*
X0105830Y0097519D01*
X0106197Y0098381D02*
X0107665Y0098381D01*
X0108032Y0098748D01*
X0108032Y0099482D01*
X0107665Y0099849D01*
X0107665Y0100775D02*
X0108032Y0101142D01*
X0108032Y0101876D01*
X0107665Y0102243D01*
X0106931Y0102243D01*
X0106564Y0101876D01*
X0106564Y0101509D01*
X0106931Y0100775D01*
X0105830Y0100775D01*
X0105830Y0102243D01*
X0106197Y0099849D02*
X0105830Y0099482D01*
X0105830Y0098748D01*
X0106197Y0098381D01*
X0091812Y0098399D02*
X0089610Y0098399D01*
X0090711Y0097299D01*
X0090711Y0098766D01*
X0090344Y0099693D02*
X0089977Y0099693D01*
X0089610Y0100060D01*
X0089610Y0100794D01*
X0089977Y0101160D01*
X0091445Y0101160D01*
X0091812Y0100794D01*
X0091812Y0100060D01*
X0091445Y0099693D01*
X0090711Y0100060D02*
X0090711Y0101160D01*
X0090711Y0100060D02*
X0090344Y0099693D01*
X0090344Y0096372D02*
X0091812Y0096372D01*
X0090711Y0096372D02*
X0090711Y0094904D01*
X0090344Y0094904D02*
X0089610Y0095638D01*
X0090344Y0096372D01*
X0090344Y0094904D02*
X0091812Y0094904D01*
X0089977Y0093978D02*
X0091445Y0092510D01*
X0091812Y0092510D01*
X0091445Y0091584D02*
X0091812Y0091217D01*
X0091812Y0090483D01*
X0091445Y0090116D01*
X0090711Y0090483D02*
X0090344Y0090116D01*
X0089977Y0090116D01*
X0089610Y0090483D01*
X0089610Y0091217D01*
X0089977Y0091584D01*
X0090711Y0091217D02*
X0091078Y0091584D01*
X0091445Y0091584D01*
X0090711Y0091217D02*
X0090711Y0090483D01*
X0090711Y0089190D02*
X0089977Y0089190D01*
X0089610Y0088823D01*
X0089610Y0087722D01*
X0091812Y0087722D01*
X0091078Y0087722D02*
X0091078Y0088823D01*
X0090711Y0089190D01*
X0089610Y0086796D02*
X0089610Y0085328D01*
X0089610Y0086062D02*
X0091812Y0086062D01*
X0082553Y0082816D02*
X0081085Y0082816D01*
X0081085Y0080614D01*
X0080159Y0080614D02*
X0080159Y0082082D01*
X0081085Y0081715D02*
X0081819Y0081715D01*
X0080159Y0080614D02*
X0079058Y0080614D01*
X0078691Y0080981D01*
X0078691Y0082082D01*
X0077765Y0082449D02*
X0076297Y0080981D01*
X0076664Y0080614D01*
X0077398Y0080614D01*
X0077765Y0080981D01*
X0077765Y0082449D01*
X0077398Y0082816D01*
X0076664Y0082816D01*
X0076297Y0082449D01*
X0076297Y0080981D01*
X0075371Y0080614D02*
X0073903Y0080614D01*
X0074637Y0080614D02*
X0074637Y0082816D01*
X0073903Y0082082D01*
X0074265Y0079627D02*
X0075366Y0079627D01*
X0075733Y0079260D01*
X0075733Y0078526D01*
X0075366Y0078159D01*
X0074265Y0078159D01*
X0074265Y0077425D02*
X0074265Y0079627D01*
X0074999Y0078159D02*
X0075733Y0077425D01*
X0076659Y0077792D02*
X0076659Y0078159D01*
X0077026Y0078526D01*
X0077760Y0078526D01*
X0078127Y0078159D01*
X0078127Y0077792D01*
X0077760Y0077425D01*
X0077026Y0077425D01*
X0076659Y0077792D01*
X0077026Y0078526D02*
X0076659Y0078893D01*
X0076659Y0079260D01*
X0077026Y0079627D01*
X0077760Y0079627D01*
X0078127Y0079260D01*
X0078127Y0078893D01*
X0077760Y0078526D01*
X0077288Y0070690D02*
X0077655Y0070323D01*
X0076187Y0068855D01*
X0076554Y0068488D01*
X0077288Y0068488D01*
X0077655Y0068855D01*
X0077655Y0070323D01*
X0077288Y0070690D02*
X0076554Y0070690D01*
X0076187Y0070323D01*
X0076187Y0068855D01*
X0075261Y0068488D02*
X0073793Y0068488D01*
X0074527Y0068488D02*
X0074527Y0070690D01*
X0073793Y0069956D01*
X0078581Y0070323D02*
X0078581Y0068855D01*
X0080049Y0070323D01*
X0080049Y0068855D01*
X0079682Y0068488D01*
X0078948Y0068488D01*
X0078581Y0068855D01*
X0078581Y0070323D02*
X0078948Y0070690D01*
X0079682Y0070690D01*
X0080049Y0070323D01*
X0080975Y0070690D02*
X0080975Y0068488D01*
X0080975Y0069222D02*
X0082076Y0069956D01*
X0080975Y0069222D02*
X0082076Y0068488D01*
X0061171Y0053997D02*
X0060070Y0052896D01*
X0061538Y0052896D01*
X0061171Y0051795D02*
X0061171Y0053997D01*
X0059144Y0053630D02*
X0058777Y0053997D01*
X0058043Y0053997D01*
X0057676Y0053630D01*
X0057676Y0052162D01*
X0058043Y0051795D01*
X0058777Y0051795D01*
X0059144Y0052162D01*
X0056814Y0051795D02*
X0056080Y0051795D01*
X0056447Y0051795D02*
X0056447Y0053997D01*
X0056080Y0053997D02*
X0056814Y0053997D01*
X0041686Y0055073D02*
X0040585Y0055807D01*
X0041686Y0056541D01*
X0040585Y0057275D02*
X0040585Y0055073D01*
X0039659Y0055440D02*
X0039659Y0056174D01*
X0039292Y0056541D01*
X0038925Y0056541D01*
X0038191Y0056174D01*
X0038191Y0057275D01*
X0039659Y0057275D01*
X0036531Y0057275D02*
X0035797Y0056541D01*
X0036531Y0057275D02*
X0036531Y0055073D01*
X0035797Y0055073D02*
X0037265Y0055073D01*
X0038191Y0055440D02*
X0038558Y0055073D01*
X0039292Y0055073D01*
X0039659Y0055440D01*
X0039726Y0063735D02*
X0040460Y0063735D01*
X0040827Y0064102D01*
X0040827Y0064469D01*
X0040460Y0064836D01*
X0039359Y0064836D01*
X0039359Y0064102D01*
X0039726Y0063735D01*
X0039359Y0064836D02*
X0040093Y0065570D01*
X0040827Y0065937D01*
X0038433Y0065570D02*
X0038433Y0064836D01*
X0038066Y0064469D01*
X0036965Y0064469D01*
X0036965Y0063735D02*
X0036965Y0065937D01*
X0038066Y0065937D01*
X0038433Y0065570D01*
X0037699Y0064469D02*
X0038433Y0063735D01*
X0039566Y0074807D02*
X0040667Y0074807D01*
X0040667Y0076275D01*
X0041593Y0075908D02*
X0043061Y0075908D01*
X0043061Y0077009D02*
X0043061Y0074807D01*
X0041593Y0074807D02*
X0041593Y0077009D01*
X0039199Y0076275D02*
X0039199Y0075174D01*
X0039566Y0074807D01*
X0038273Y0076642D02*
X0036805Y0075174D01*
X0036805Y0074807D01*
X0035975Y0074807D02*
X0035608Y0074807D01*
X0035608Y0075174D01*
X0035975Y0075174D01*
X0035975Y0074807D01*
X0034682Y0074807D02*
X0033214Y0074807D01*
X0034682Y0076275D01*
X0034682Y0076642D01*
X0034315Y0077009D01*
X0033581Y0077009D01*
X0033214Y0076642D01*
X0036805Y0077009D02*
X0038273Y0077009D01*
X0038273Y0076642D01*
X0028885Y0085870D02*
X0026683Y0085870D01*
X0026683Y0086971D01*
X0027050Y0087338D01*
X0027417Y0087338D01*
X0027784Y0086971D01*
X0027784Y0085870D01*
X0027784Y0086971D02*
X0028151Y0087338D01*
X0028518Y0087338D01*
X0028885Y0086971D01*
X0028885Y0085870D01*
X0025609Y0085699D02*
X0024875Y0084965D01*
X0024142Y0084965D01*
X0023408Y0085699D01*
X0024509Y0086561D02*
X0024509Y0088029D01*
X0025242Y0087295D02*
X0023775Y0087295D01*
X0023408Y0088955D02*
X0024142Y0089689D01*
X0024875Y0089689D01*
X0025609Y0088955D01*
X0027417Y0088631D02*
X0027417Y0089365D01*
X0027784Y0089732D01*
X0028885Y0089732D01*
X0028885Y0088631D01*
X0028518Y0088264D01*
X0028151Y0088631D01*
X0028151Y0089732D01*
X0027417Y0090658D02*
X0027417Y0091392D01*
X0027050Y0091025D02*
X0028518Y0091025D01*
X0028885Y0091392D01*
X0028518Y0092621D02*
X0027050Y0092621D01*
X0027417Y0092254D02*
X0027417Y0092988D01*
X0027784Y0093850D02*
X0027417Y0094217D01*
X0027417Y0094951D01*
X0027784Y0095318D01*
X0028151Y0095318D01*
X0028151Y0093850D01*
X0028518Y0093850D02*
X0027784Y0093850D01*
X0028518Y0093850D02*
X0028885Y0094217D01*
X0028885Y0094951D01*
X0028885Y0096244D02*
X0027417Y0096244D01*
X0028151Y0096244D02*
X0027417Y0096978D01*
X0027417Y0097345D01*
X0027417Y0098239D02*
X0028518Y0098239D01*
X0028885Y0098606D01*
X0028885Y0099707D01*
X0029252Y0099707D02*
X0029619Y0099340D01*
X0029619Y0098973D01*
X0029252Y0099707D02*
X0027417Y0099707D01*
X0025609Y0099585D02*
X0024875Y0100319D01*
X0024142Y0100319D01*
X0023408Y0099585D01*
X0024509Y0098658D02*
X0024509Y0097191D01*
X0025609Y0096328D02*
X0024875Y0095594D01*
X0024142Y0095594D01*
X0023408Y0096328D01*
X0028518Y0092621D02*
X0028885Y0092988D01*
X0037155Y0101026D02*
X0037889Y0101026D01*
X0038256Y0101393D01*
X0038256Y0101760D01*
X0037889Y0102127D01*
X0036788Y0102127D01*
X0036788Y0101393D01*
X0037155Y0101026D01*
X0036788Y0102127D02*
X0037522Y0102861D01*
X0038256Y0103228D01*
X0039182Y0102861D02*
X0039182Y0102494D01*
X0039549Y0102127D01*
X0040283Y0102127D01*
X0040650Y0101760D01*
X0040650Y0101393D01*
X0040283Y0101026D01*
X0039549Y0101026D01*
X0039182Y0101393D01*
X0039182Y0101760D01*
X0039549Y0102127D01*
X0040283Y0102127D02*
X0040650Y0102494D01*
X0040650Y0102861D01*
X0040283Y0103228D01*
X0039549Y0103228D01*
X0039182Y0102861D01*
X0041576Y0102494D02*
X0041576Y0101393D01*
X0041943Y0101026D01*
X0043044Y0101026D01*
X0043044Y0102494D01*
X0043970Y0102127D02*
X0044704Y0102127D01*
X0043970Y0103228D02*
X0045438Y0103228D01*
X0043970Y0103228D02*
X0043970Y0101026D01*
X0042820Y0095985D02*
X0042820Y0093783D01*
X0044288Y0093783D01*
X0045215Y0093783D02*
X0046682Y0093783D01*
X0045948Y0093783D02*
X0045948Y0095985D01*
X0045215Y0095251D01*
X0055926Y0095204D02*
X0055926Y0093002D01*
X0055926Y0093736D02*
X0057027Y0093736D01*
X0057394Y0094103D01*
X0057394Y0094837D01*
X0057027Y0095204D01*
X0055926Y0095204D01*
X0056660Y0093736D02*
X0057394Y0093002D01*
X0058320Y0093002D02*
X0058320Y0093369D01*
X0059788Y0094837D01*
X0059788Y0095204D01*
X0058320Y0095204D01*
X0058635Y0101624D02*
X0058635Y0103826D01*
X0059369Y0103092D01*
X0060103Y0103826D01*
X0060103Y0101624D01*
X0057709Y0101624D02*
X0056241Y0101624D01*
X0056975Y0101624D02*
X0056975Y0103826D01*
X0056241Y0103092D01*
X0043469Y0112771D02*
X0043469Y0113138D01*
X0043102Y0113505D01*
X0042001Y0113505D01*
X0042001Y0112771D01*
X0042368Y0112404D01*
X0043102Y0112404D01*
X0043469Y0112771D01*
X0042735Y0114239D02*
X0042001Y0113505D01*
X0042735Y0114239D02*
X0043469Y0114606D01*
X0041075Y0114239D02*
X0040708Y0114606D01*
X0039974Y0114606D01*
X0039607Y0114239D01*
X0039607Y0112771D01*
X0039974Y0112404D01*
X0040708Y0112404D01*
X0041075Y0112771D01*
X0016304Y0105051D02*
X0014836Y0105051D01*
X0014836Y0103950D01*
X0015570Y0104317D01*
X0015937Y0104317D01*
X0016304Y0103950D01*
X0016304Y0103216D01*
X0015937Y0102849D01*
X0015203Y0102849D01*
X0014836Y0103216D01*
X0013543Y0103216D02*
X0013543Y0105051D01*
X0013176Y0105051D02*
X0013910Y0105051D01*
X0013543Y0103216D02*
X0013176Y0102849D01*
X0012809Y0102849D01*
X0012442Y0103216D01*
X0073234Y0094280D02*
X0073234Y0092812D01*
X0074702Y0094280D01*
X0074702Y0092812D01*
X0074335Y0092445D01*
X0073601Y0092445D01*
X0073234Y0092812D01*
X0073234Y0094280D02*
X0073601Y0094647D01*
X0074335Y0094647D01*
X0074702Y0094280D01*
X0075628Y0092812D02*
X0075995Y0092812D01*
X0075995Y0092445D01*
X0075628Y0092445D01*
X0075628Y0092812D01*
X0076825Y0092445D02*
X0078293Y0092445D01*
X0077559Y0092445D02*
X0077559Y0094647D01*
X0076825Y0093913D01*
X0079219Y0093913D02*
X0079219Y0092812D01*
X0079586Y0092445D01*
X0080687Y0092445D01*
X0080687Y0093913D01*
X0081613Y0093546D02*
X0082347Y0093546D01*
X0081613Y0094647D02*
X0083081Y0094647D01*
X0081613Y0094647D02*
X0081613Y0092445D01*
X0078946Y0090481D02*
X0078946Y0090114D01*
X0078579Y0089747D01*
X0078946Y0089380D01*
X0078946Y0089013D01*
X0078579Y0088646D01*
X0077845Y0088646D01*
X0077478Y0089013D01*
X0076552Y0089013D02*
X0076185Y0088646D01*
X0075451Y0088646D01*
X0075084Y0089013D01*
X0075084Y0090481D01*
X0075451Y0090848D01*
X0076185Y0090848D01*
X0076552Y0090481D01*
X0077478Y0090481D02*
X0077845Y0090848D01*
X0078579Y0090848D01*
X0078946Y0090481D01*
X0078579Y0089747D02*
X0078212Y0089747D01*
X0089610Y0092510D02*
X0089610Y0093978D01*
X0089977Y0093978D01*
X0081655Y0101870D02*
X0080187Y0101870D01*
X0080921Y0101870D02*
X0080921Y0104072D01*
X0080187Y0103338D01*
X0079261Y0101870D02*
X0077793Y0101870D01*
X0078527Y0101870D02*
X0078527Y0104072D01*
X0077793Y0103338D01*
X0076867Y0103705D02*
X0076500Y0104072D01*
X0075766Y0104072D01*
X0075399Y0103705D01*
X0075399Y0102237D01*
X0075766Y0101870D01*
X0076500Y0101870D01*
X0076867Y0102237D01*
X0125257Y0088153D02*
X0125991Y0088887D01*
X0125991Y0086685D01*
X0125257Y0086685D02*
X0126725Y0086685D01*
X0127652Y0086685D02*
X0129119Y0086685D01*
X0128385Y0086685D02*
X0128385Y0088887D01*
X0127652Y0088153D01*
X0130046Y0088887D02*
X0130046Y0086685D01*
X0130046Y0087419D02*
X0131147Y0088153D01*
X0130046Y0087419D02*
X0131147Y0086685D01*
X0131633Y0095307D02*
X0131266Y0095674D01*
X0132734Y0097142D01*
X0132734Y0095674D01*
X0132367Y0095307D01*
X0131633Y0095307D01*
X0131266Y0095674D02*
X0131266Y0097142D01*
X0131633Y0097509D01*
X0132367Y0097509D01*
X0132734Y0097142D01*
X0130340Y0095307D02*
X0128872Y0095307D01*
X0129606Y0095307D02*
X0129606Y0097509D01*
X0128872Y0096775D01*
X0127946Y0096408D02*
X0127579Y0096041D01*
X0126478Y0096041D01*
X0127212Y0096041D02*
X0127946Y0095307D01*
X0127946Y0096408D02*
X0127946Y0097142D01*
X0127579Y0097509D01*
X0126478Y0097509D01*
X0126478Y0095307D01*
X0137955Y0100437D02*
X0137955Y0101171D01*
X0137955Y0100804D02*
X0140157Y0100804D01*
X0140157Y0100437D02*
X0140157Y0101171D01*
X0139790Y0102033D02*
X0140157Y0102400D01*
X0140157Y0103134D01*
X0139790Y0103501D01*
X0139790Y0104427D02*
X0140157Y0104794D01*
X0140157Y0105528D01*
X0139790Y0105895D01*
X0139423Y0105895D01*
X0139056Y0105528D01*
X0139056Y0105161D01*
X0139056Y0105528D02*
X0138689Y0105895D01*
X0138322Y0105895D01*
X0137955Y0105528D01*
X0137955Y0104794D01*
X0138322Y0104427D01*
X0138322Y0103501D02*
X0137955Y0103134D01*
X0137955Y0102400D01*
X0138322Y0102033D01*
X0139790Y0102033D01*
X0146987Y0092659D02*
X0146620Y0092292D01*
X0146620Y0090824D01*
X0146987Y0090457D01*
X0147721Y0090457D01*
X0148088Y0090824D01*
X0149014Y0090824D02*
X0149014Y0091191D01*
X0149381Y0091558D01*
X0150115Y0091558D01*
X0150482Y0091191D01*
X0150482Y0090824D01*
X0150115Y0090457D01*
X0149381Y0090457D01*
X0149014Y0090824D01*
X0149381Y0091558D02*
X0149014Y0091925D01*
X0149014Y0092292D01*
X0149381Y0092659D01*
X0150115Y0092659D01*
X0150482Y0092292D01*
X0150482Y0091925D01*
X0150115Y0091558D01*
X0148088Y0092292D02*
X0147721Y0092659D01*
X0146987Y0092659D01*
X0140050Y0111948D02*
X0140417Y0112315D01*
X0140417Y0112682D01*
X0140050Y0113049D01*
X0138215Y0113049D01*
X0138215Y0112682D02*
X0138215Y0113416D01*
X0139316Y0114342D02*
X0138215Y0115443D01*
X0140417Y0115443D01*
X0139316Y0115810D02*
X0139316Y0114342D01*
X0199708Y0089242D02*
X0200075Y0088875D01*
X0200442Y0088875D01*
X0200809Y0089242D01*
X0200809Y0091077D01*
X0200442Y0091077D02*
X0201176Y0091077D01*
X0202102Y0091077D02*
X0203203Y0091077D01*
X0203570Y0090710D01*
X0203570Y0089976D01*
X0203203Y0089609D01*
X0202102Y0089609D01*
X0202102Y0088875D02*
X0202102Y0091077D01*
X0204496Y0090343D02*
X0205230Y0091077D01*
X0205230Y0088875D01*
X0204496Y0088875D02*
X0205964Y0088875D01*
X0170364Y0050139D02*
X0168896Y0050139D01*
X0167969Y0049772D02*
X0167603Y0050139D01*
X0166869Y0050139D01*
X0166502Y0049772D01*
X0166502Y0048304D01*
X0166869Y0047937D01*
X0167603Y0047937D01*
X0167969Y0048304D01*
X0168896Y0048304D02*
X0168896Y0047937D01*
X0168896Y0048304D02*
X0170364Y0049772D01*
X0170364Y0050139D01*
X0167321Y0041347D02*
X0167321Y0039879D01*
X0173659Y0029547D02*
X0174393Y0029547D01*
X0174760Y0029180D01*
X0174760Y0028813D01*
X0174393Y0028446D01*
X0174760Y0028079D01*
X0174760Y0027712D01*
X0174393Y0027345D01*
X0173659Y0027345D01*
X0173292Y0027712D01*
X0174026Y0028446D02*
X0174393Y0028446D01*
X0173292Y0029180D02*
X0173659Y0029547D01*
X0175686Y0029180D02*
X0175686Y0028813D01*
X0176053Y0028446D01*
X0177154Y0028446D01*
X0177154Y0029180D02*
X0176787Y0029547D01*
X0176053Y0029547D01*
X0175686Y0029180D01*
X0177154Y0029180D02*
X0177154Y0027712D01*
X0176787Y0027345D01*
X0176053Y0027345D01*
X0175686Y0027712D01*
X0178080Y0027712D02*
X0178080Y0029180D01*
X0178447Y0029547D01*
X0179181Y0029547D01*
X0179548Y0029180D01*
X0178080Y0027712D01*
X0178447Y0027345D01*
X0179181Y0027345D01*
X0179548Y0027712D01*
X0179548Y0029180D01*
X0173355Y0023781D02*
X0172254Y0022680D01*
X0173722Y0022680D01*
X0173355Y0021579D02*
X0173355Y0023781D01*
X0170594Y0023781D02*
X0170594Y0021579D01*
X0169860Y0021579D02*
X0171328Y0021579D01*
X0169860Y0023047D02*
X0170594Y0023781D01*
X0168934Y0023414D02*
X0168567Y0023781D01*
X0167833Y0023781D01*
X0167466Y0023414D01*
X0167466Y0021946D01*
X0167833Y0021579D01*
X0168567Y0021579D01*
X0168934Y0021946D01*
X0167148Y0020591D02*
X0179353Y0020591D01*
X0183683Y0016261D01*
X0182305Y0008978D02*
X0182222Y0008811D01*
X0182135Y0008647D01*
X0182043Y0008484D01*
X0181948Y0008324D01*
X0181849Y0008167D01*
X0181746Y0008012D01*
X0181639Y0007859D01*
X0181528Y0007709D01*
X0181414Y0007562D01*
X0181297Y0007417D01*
X0181176Y0007276D01*
X0181051Y0007137D01*
X0180924Y0007002D01*
X0180793Y0006869D01*
X0180658Y0006740D01*
X0180521Y0006614D01*
X0180381Y0006492D01*
X0180237Y0006373D01*
X0180091Y0006257D01*
X0179942Y0006146D01*
X0179791Y0006037D01*
X0179637Y0005933D01*
X0179480Y0005832D01*
X0179321Y0005735D01*
X0179160Y0005642D01*
X0178996Y0005553D01*
X0178830Y0005468D01*
X0178663Y0005387D01*
X0178493Y0005310D01*
X0178321Y0005237D01*
X0178148Y0005169D01*
X0177973Y0005105D01*
X0177797Y0005045D01*
X0177619Y0004989D01*
X0177440Y0004937D01*
X0177260Y0004890D01*
X0177079Y0004848D01*
X0176897Y0004809D01*
X0176713Y0004776D01*
X0176530Y0004746D01*
X0176345Y0004722D01*
X0176160Y0004701D01*
X0175974Y0004685D01*
X0175788Y0004674D01*
X0175602Y0004667D01*
X0175416Y0004665D01*
X0175230Y0004667D01*
X0175044Y0004674D01*
X0174858Y0004685D01*
X0174672Y0004701D01*
X0174487Y0004722D01*
X0174302Y0004746D01*
X0174119Y0004776D01*
X0173935Y0004809D01*
X0173753Y0004848D01*
X0173572Y0004890D01*
X0173392Y0004937D01*
X0173213Y0004989D01*
X0173035Y0005045D01*
X0172859Y0005105D01*
X0172684Y0005169D01*
X0172511Y0005237D01*
X0172339Y0005310D01*
X0172169Y0005387D01*
X0172002Y0005468D01*
X0171836Y0005553D01*
X0171672Y0005642D01*
X0171511Y0005735D01*
X0171352Y0005832D01*
X0171195Y0005933D01*
X0171041Y0006037D01*
X0170890Y0006146D01*
X0170741Y0006257D01*
X0170595Y0006373D01*
X0170451Y0006492D01*
X0170311Y0006614D01*
X0170174Y0006740D01*
X0170039Y0006869D01*
X0169908Y0007002D01*
X0169781Y0007137D01*
X0169656Y0007276D01*
X0169535Y0007417D01*
X0169418Y0007562D01*
X0169304Y0007709D01*
X0169193Y0007859D01*
X0169086Y0008012D01*
X0168983Y0008167D01*
X0168884Y0008324D01*
X0168789Y0008484D01*
X0168697Y0008647D01*
X0168610Y0008811D01*
X0168527Y0008978D01*
X0167148Y0008977D02*
X0167148Y0004056D01*
X0179353Y0004056D01*
X0183683Y0008387D01*
X0184597Y0006477D02*
X0184230Y0006110D01*
X0184230Y0004643D01*
X0185698Y0006110D01*
X0185698Y0004643D01*
X0185331Y0004276D01*
X0184597Y0004276D01*
X0184230Y0004643D01*
X0183304Y0004276D02*
X0181836Y0004276D01*
X0182570Y0004276D02*
X0182570Y0006477D01*
X0181836Y0005744D01*
X0184597Y0006477D02*
X0185331Y0006477D01*
X0185698Y0006110D01*
X0186624Y0005744D02*
X0186624Y0004643D01*
X0186991Y0004276D01*
X0188092Y0004276D01*
X0188092Y0005744D01*
X0189018Y0005377D02*
X0189752Y0005377D01*
X0189018Y0006477D02*
X0190486Y0006477D01*
X0189018Y0006477D02*
X0189018Y0004276D01*
X0182305Y0015670D02*
X0182222Y0015837D01*
X0182135Y0016001D01*
X0182043Y0016164D01*
X0181948Y0016324D01*
X0181849Y0016481D01*
X0181746Y0016636D01*
X0181639Y0016789D01*
X0181528Y0016939D01*
X0181414Y0017086D01*
X0181297Y0017231D01*
X0181176Y0017372D01*
X0181051Y0017511D01*
X0180924Y0017646D01*
X0180793Y0017779D01*
X0180658Y0017908D01*
X0180521Y0018034D01*
X0180381Y0018156D01*
X0180237Y0018275D01*
X0180091Y0018391D01*
X0179942Y0018502D01*
X0179791Y0018611D01*
X0179637Y0018715D01*
X0179480Y0018816D01*
X0179321Y0018913D01*
X0179160Y0019006D01*
X0178996Y0019095D01*
X0178830Y0019180D01*
X0178663Y0019261D01*
X0178493Y0019338D01*
X0178321Y0019411D01*
X0178148Y0019479D01*
X0177973Y0019543D01*
X0177797Y0019603D01*
X0177619Y0019659D01*
X0177440Y0019711D01*
X0177260Y0019758D01*
X0177079Y0019800D01*
X0176897Y0019839D01*
X0176713Y0019872D01*
X0176530Y0019902D01*
X0176345Y0019926D01*
X0176160Y0019947D01*
X0175974Y0019963D01*
X0175788Y0019974D01*
X0175602Y0019981D01*
X0175416Y0019983D01*
X0175230Y0019981D01*
X0175044Y0019974D01*
X0174858Y0019963D01*
X0174672Y0019947D01*
X0174487Y0019926D01*
X0174302Y0019902D01*
X0174119Y0019872D01*
X0173935Y0019839D01*
X0173753Y0019800D01*
X0173572Y0019758D01*
X0173392Y0019711D01*
X0173213Y0019659D01*
X0173035Y0019603D01*
X0172859Y0019543D01*
X0172684Y0019479D01*
X0172511Y0019411D01*
X0172339Y0019338D01*
X0172169Y0019261D01*
X0172002Y0019180D01*
X0171836Y0019095D01*
X0171672Y0019006D01*
X0171511Y0018913D01*
X0171352Y0018816D01*
X0171195Y0018715D01*
X0171041Y0018611D01*
X0170890Y0018502D01*
X0170741Y0018391D01*
X0170595Y0018275D01*
X0170451Y0018156D01*
X0170311Y0018034D01*
X0170174Y0017908D01*
X0170039Y0017779D01*
X0169908Y0017646D01*
X0169781Y0017511D01*
X0169656Y0017372D01*
X0169535Y0017231D01*
X0169418Y0017086D01*
X0169304Y0016939D01*
X0169193Y0016789D01*
X0169086Y0016636D01*
X0168983Y0016481D01*
X0168884Y0016324D01*
X0168789Y0016164D01*
X0168697Y0016001D01*
X0168610Y0015837D01*
X0168527Y0015670D01*
X0167148Y0015670D02*
X0167148Y0020591D01*
X0164044Y0025890D02*
X0163310Y0025890D01*
X0162943Y0026257D01*
X0164411Y0027725D01*
X0164411Y0026257D01*
X0164044Y0025890D01*
X0162943Y0026257D02*
X0162943Y0027725D01*
X0163310Y0028092D01*
X0164044Y0028092D01*
X0164411Y0027725D01*
X0162017Y0027725D02*
X0161650Y0028092D01*
X0160916Y0028092D01*
X0160549Y0027725D01*
X0159623Y0027725D02*
X0159623Y0027358D01*
X0159256Y0026991D01*
X0159623Y0026624D01*
X0159623Y0026257D01*
X0159256Y0025890D01*
X0158522Y0025890D01*
X0158155Y0026257D01*
X0158889Y0026991D02*
X0159256Y0026991D01*
X0159623Y0027725D02*
X0159256Y0028092D01*
X0158522Y0028092D01*
X0158155Y0027725D01*
X0160549Y0026257D02*
X0160916Y0025890D01*
X0161650Y0025890D01*
X0162017Y0026257D01*
X0162017Y0026624D01*
X0161650Y0026991D01*
X0161283Y0026991D01*
X0161650Y0026991D02*
X0162017Y0027358D01*
X0162017Y0027725D01*
X0154943Y0020591D02*
X0159274Y0016261D01*
X0154943Y0020591D02*
X0142739Y0020591D01*
X0142739Y0015670D01*
X0144117Y0008978D02*
X0144200Y0008811D01*
X0144287Y0008647D01*
X0144379Y0008484D01*
X0144474Y0008324D01*
X0144573Y0008167D01*
X0144676Y0008012D01*
X0144783Y0007859D01*
X0144894Y0007709D01*
X0145008Y0007562D01*
X0145125Y0007417D01*
X0145246Y0007276D01*
X0145371Y0007137D01*
X0145498Y0007002D01*
X0145629Y0006869D01*
X0145764Y0006740D01*
X0145901Y0006614D01*
X0146041Y0006492D01*
X0146185Y0006373D01*
X0146331Y0006257D01*
X0146480Y0006146D01*
X0146631Y0006037D01*
X0146785Y0005933D01*
X0146942Y0005832D01*
X0147101Y0005735D01*
X0147262Y0005642D01*
X0147426Y0005553D01*
X0147592Y0005468D01*
X0147759Y0005387D01*
X0147929Y0005310D01*
X0148101Y0005237D01*
X0148274Y0005169D01*
X0148449Y0005105D01*
X0148625Y0005045D01*
X0148803Y0004989D01*
X0148982Y0004937D01*
X0149162Y0004890D01*
X0149343Y0004848D01*
X0149525Y0004809D01*
X0149709Y0004776D01*
X0149892Y0004746D01*
X0150077Y0004722D01*
X0150262Y0004701D01*
X0150448Y0004685D01*
X0150634Y0004674D01*
X0150820Y0004667D01*
X0151006Y0004665D01*
X0151192Y0004667D01*
X0151378Y0004674D01*
X0151564Y0004685D01*
X0151750Y0004701D01*
X0151935Y0004722D01*
X0152120Y0004746D01*
X0152303Y0004776D01*
X0152487Y0004809D01*
X0152669Y0004848D01*
X0152850Y0004890D01*
X0153030Y0004937D01*
X0153209Y0004989D01*
X0153387Y0005045D01*
X0153563Y0005105D01*
X0153738Y0005169D01*
X0153911Y0005237D01*
X0154083Y0005310D01*
X0154253Y0005387D01*
X0154420Y0005468D01*
X0154586Y0005553D01*
X0154750Y0005642D01*
X0154911Y0005735D01*
X0155070Y0005832D01*
X0155227Y0005933D01*
X0155381Y0006037D01*
X0155532Y0006146D01*
X0155681Y0006257D01*
X0155827Y0006373D01*
X0155971Y0006492D01*
X0156111Y0006614D01*
X0156248Y0006740D01*
X0156383Y0006869D01*
X0156514Y0007002D01*
X0156641Y0007137D01*
X0156766Y0007276D01*
X0156887Y0007417D01*
X0157004Y0007562D01*
X0157118Y0007709D01*
X0157229Y0007859D01*
X0157336Y0008012D01*
X0157439Y0008167D01*
X0157538Y0008324D01*
X0157633Y0008484D01*
X0157725Y0008647D01*
X0157812Y0008811D01*
X0157895Y0008978D01*
X0159274Y0008387D02*
X0154943Y0004056D01*
X0142739Y0004056D01*
X0142739Y0008977D01*
X0144117Y0015670D02*
X0144200Y0015837D01*
X0144287Y0016001D01*
X0144379Y0016164D01*
X0144474Y0016324D01*
X0144573Y0016481D01*
X0144676Y0016636D01*
X0144783Y0016789D01*
X0144894Y0016939D01*
X0145008Y0017086D01*
X0145125Y0017231D01*
X0145246Y0017372D01*
X0145371Y0017511D01*
X0145498Y0017646D01*
X0145629Y0017779D01*
X0145764Y0017908D01*
X0145901Y0018034D01*
X0146041Y0018156D01*
X0146185Y0018275D01*
X0146331Y0018391D01*
X0146480Y0018502D01*
X0146631Y0018611D01*
X0146785Y0018715D01*
X0146942Y0018816D01*
X0147101Y0018913D01*
X0147262Y0019006D01*
X0147426Y0019095D01*
X0147592Y0019180D01*
X0147759Y0019261D01*
X0147929Y0019338D01*
X0148101Y0019411D01*
X0148274Y0019479D01*
X0148449Y0019543D01*
X0148625Y0019603D01*
X0148803Y0019659D01*
X0148982Y0019711D01*
X0149162Y0019758D01*
X0149343Y0019800D01*
X0149525Y0019839D01*
X0149709Y0019872D01*
X0149892Y0019902D01*
X0150077Y0019926D01*
X0150262Y0019947D01*
X0150448Y0019963D01*
X0150634Y0019974D01*
X0150820Y0019981D01*
X0151006Y0019983D01*
X0151192Y0019981D01*
X0151378Y0019974D01*
X0151564Y0019963D01*
X0151750Y0019947D01*
X0151935Y0019926D01*
X0152120Y0019902D01*
X0152303Y0019872D01*
X0152487Y0019839D01*
X0152669Y0019800D01*
X0152850Y0019758D01*
X0153030Y0019711D01*
X0153209Y0019659D01*
X0153387Y0019603D01*
X0153563Y0019543D01*
X0153738Y0019479D01*
X0153911Y0019411D01*
X0154083Y0019338D01*
X0154253Y0019261D01*
X0154420Y0019180D01*
X0154586Y0019095D01*
X0154750Y0019006D01*
X0154911Y0018913D01*
X0155070Y0018816D01*
X0155227Y0018715D01*
X0155381Y0018611D01*
X0155532Y0018502D01*
X0155681Y0018391D01*
X0155827Y0018275D01*
X0155971Y0018156D01*
X0156111Y0018034D01*
X0156248Y0017908D01*
X0156383Y0017779D01*
X0156514Y0017646D01*
X0156641Y0017511D01*
X0156766Y0017372D01*
X0156887Y0017231D01*
X0157004Y0017086D01*
X0157118Y0016939D01*
X0157229Y0016789D01*
X0157336Y0016636D01*
X0157439Y0016481D01*
X0157538Y0016324D01*
X0157633Y0016164D01*
X0157725Y0016001D01*
X0157812Y0015837D01*
X0157895Y0015670D01*
X0149234Y0021500D02*
X0147766Y0021500D01*
X0149234Y0022968D01*
X0149234Y0023335D01*
X0148867Y0023702D01*
X0148133Y0023702D01*
X0147766Y0023335D01*
X0146106Y0023702D02*
X0146106Y0021500D01*
X0145372Y0021500D02*
X0146840Y0021500D01*
X0145372Y0022968D02*
X0146106Y0023702D01*
X0144446Y0023335D02*
X0144079Y0023702D01*
X0143345Y0023702D01*
X0142978Y0023335D01*
X0142978Y0021867D01*
X0143345Y0021500D01*
X0144079Y0021500D01*
X0144446Y0021867D01*
X0120787Y0031529D02*
X0118585Y0031529D01*
X0099052Y0049276D02*
X0099052Y0051477D01*
X0097951Y0050377D01*
X0099419Y0050377D01*
X0097025Y0051110D02*
X0096658Y0051477D01*
X0095924Y0051477D01*
X0095557Y0051110D01*
X0095557Y0049643D01*
X0095924Y0049276D01*
X0096658Y0049276D01*
X0097025Y0049643D01*
X0130202Y0065180D02*
X0131670Y0065180D01*
X0131303Y0066281D02*
X0130202Y0065180D01*
X0131303Y0064079D02*
X0131303Y0066281D01*
X0132596Y0066281D02*
X0134064Y0066281D01*
X0134064Y0065914D01*
X0132596Y0064446D01*
X0132596Y0064079D01*
X0134990Y0064446D02*
X0134990Y0065914D01*
X0135357Y0066281D01*
X0136091Y0066281D01*
X0136458Y0065914D01*
X0134990Y0064446D01*
X0135357Y0064079D01*
X0136091Y0064079D01*
X0136458Y0064446D01*
X0136458Y0065914D01*
X0201380Y0033423D02*
X0201380Y0032689D01*
X0201747Y0032323D01*
X0203215Y0032323D01*
X0201747Y0033790D01*
X0203215Y0033790D01*
X0203582Y0033423D01*
X0203582Y0032689D01*
X0203215Y0032323D01*
X0203215Y0031396D02*
X0203582Y0031029D01*
X0203582Y0030295D01*
X0203215Y0029928D01*
X0201747Y0031396D01*
X0203215Y0031396D01*
X0203215Y0029928D02*
X0201747Y0029928D01*
X0201380Y0030295D01*
X0201380Y0031029D01*
X0201747Y0031396D01*
X0201380Y0033423D02*
X0201747Y0033790D01*
X0201747Y0029002D02*
X0202114Y0029002D01*
X0202481Y0028635D01*
X0202848Y0029002D01*
X0203215Y0029002D01*
X0203582Y0028635D01*
X0203582Y0027901D01*
X0203215Y0027534D01*
X0203215Y0026608D02*
X0203582Y0026241D01*
X0203582Y0025507D01*
X0203215Y0025140D01*
X0201747Y0026608D01*
X0203215Y0026608D01*
X0201747Y0026608D02*
X0201380Y0026241D01*
X0201380Y0025507D01*
X0201747Y0025140D01*
X0203215Y0025140D01*
X0202481Y0024214D02*
X0202481Y0022746D01*
X0201380Y0023847D01*
X0203582Y0023847D01*
X0203215Y0021820D02*
X0203582Y0021453D01*
X0203582Y0020719D01*
X0203215Y0020352D01*
X0202481Y0020719D02*
X0202481Y0021453D01*
X0202848Y0021820D01*
X0203215Y0021820D01*
X0202481Y0020719D02*
X0202114Y0020352D01*
X0201747Y0020352D01*
X0201380Y0020719D01*
X0201380Y0021453D01*
X0201747Y0021820D01*
X0201747Y0019426D02*
X0201380Y0019059D01*
X0201380Y0018325D01*
X0201747Y0017958D01*
X0203215Y0017958D01*
X0203582Y0018325D01*
X0203582Y0019059D01*
X0203215Y0019426D01*
X0203582Y0017096D02*
X0203582Y0016362D01*
X0203582Y0016729D02*
X0201380Y0016729D01*
X0201380Y0016362D02*
X0201380Y0017096D01*
X0201747Y0027534D02*
X0201380Y0027901D01*
X0201380Y0028635D01*
X0201747Y0029002D01*
X0202481Y0028635D02*
X0202481Y0028268D01*
X0165959Y0005848D02*
X0164491Y0005848D01*
X0164491Y0003646D01*
X0163565Y0003646D02*
X0163565Y0005114D01*
X0164491Y0004747D02*
X0165225Y0004747D01*
X0163565Y0003646D02*
X0162464Y0003646D01*
X0162097Y0004013D01*
X0162097Y0005114D01*
X0161171Y0005481D02*
X0159703Y0004013D01*
X0160070Y0003646D01*
X0160804Y0003646D01*
X0161171Y0004013D01*
X0161171Y0005481D01*
X0160804Y0005848D01*
X0160070Y0005848D01*
X0159703Y0005481D01*
X0159703Y0004013D01*
X0158777Y0003646D02*
X0157309Y0003646D01*
X0158043Y0003646D02*
X0158043Y0005848D01*
X0157309Y0005114D01*
X0061916Y0036473D02*
X0061916Y0037941D01*
X0058229Y0038308D02*
X0058229Y0036106D01*
X0057128Y0037207D02*
X0058229Y0038308D01*
X0056202Y0037941D02*
X0055835Y0038308D01*
X0055101Y0038308D01*
X0054734Y0037941D01*
X0027379Y0041327D02*
X0026278Y0042061D01*
X0027379Y0042795D01*
X0026278Y0043529D02*
X0026278Y0041327D01*
X0025352Y0041694D02*
X0024985Y0041327D01*
X0024251Y0041327D01*
X0023884Y0041694D01*
X0025352Y0043162D01*
X0025352Y0041694D01*
X0025352Y0043162D02*
X0024985Y0043529D01*
X0024251Y0043529D01*
X0023884Y0043162D01*
X0023884Y0041694D01*
X0022958Y0041694D02*
X0022591Y0041327D01*
X0021857Y0041327D01*
X0021490Y0041694D01*
X0021490Y0042428D02*
X0022224Y0042795D01*
X0022591Y0042795D01*
X0022958Y0042428D01*
X0022958Y0041694D01*
X0021490Y0042428D02*
X0021490Y0043529D01*
X0022958Y0043529D01*
X0019830Y0043529D02*
X0019830Y0041327D01*
X0019096Y0041327D02*
X0020564Y0041327D01*
X0019096Y0042795D02*
X0019830Y0043529D01*
X0019401Y0039228D02*
X0018300Y0039228D01*
X0018300Y0037026D01*
X0018300Y0037760D02*
X0019401Y0037760D01*
X0019768Y0038127D01*
X0019768Y0038861D01*
X0019401Y0039228D01*
X0020694Y0038494D02*
X0021428Y0039228D01*
X0021428Y0037026D01*
X0020694Y0037026D02*
X0022162Y0037026D01*
X0023088Y0037026D02*
X0024556Y0038494D01*
X0024556Y0038861D01*
X0024189Y0039228D01*
X0023455Y0039228D01*
X0023088Y0038861D01*
X0023088Y0037026D02*
X0024556Y0037026D01*
X0019768Y0037026D02*
X0019034Y0037760D01*
X0019234Y0030674D02*
X0019234Y0028472D01*
X0018500Y0028472D02*
X0019968Y0028472D01*
X0020894Y0028839D02*
X0021261Y0028472D01*
X0021995Y0028472D01*
X0022362Y0028839D01*
X0022362Y0029573D01*
X0021995Y0029940D01*
X0021628Y0029940D01*
X0020894Y0029573D01*
X0020894Y0030674D01*
X0022362Y0030674D01*
X0023288Y0030307D02*
X0023655Y0030674D01*
X0024389Y0030674D01*
X0024756Y0030307D01*
X0023288Y0028839D01*
X0023655Y0028472D01*
X0024389Y0028472D01*
X0024756Y0028839D01*
X0024756Y0030307D01*
X0025682Y0030674D02*
X0025682Y0028472D01*
X0025682Y0029206D02*
X0026783Y0029940D01*
X0025682Y0029206D02*
X0026783Y0028472D01*
X0023288Y0028839D02*
X0023288Y0030307D01*
X0019234Y0030674D02*
X0018500Y0029940D01*
X0018448Y0049339D02*
X0018448Y0051541D01*
X0019549Y0051541D01*
X0019916Y0051174D01*
X0019916Y0050440D01*
X0019549Y0050073D01*
X0018448Y0050073D01*
X0019182Y0050073D02*
X0019916Y0049339D01*
X0020842Y0049339D02*
X0022310Y0049339D01*
X0021576Y0049339D02*
X0021576Y0051541D01*
X0020842Y0050807D01*
X0023236Y0050807D02*
X0023970Y0051541D01*
X0023970Y0049339D01*
X0023236Y0049339D02*
X0024704Y0049339D01*
D12*
X0101498Y0101276D03*
D13*
X0103369Y0099725D02*
X0107306Y0099725D01*
X0103369Y0099725D02*
X0103369Y0103662D01*
X0103369Y0115473D02*
X0103369Y0119410D01*
X0130928Y0099725D02*
X0134865Y0099725D01*
X0134837Y0099796D02*
X0134837Y0103662D01*
X0134865Y0103662D01*
X0134865Y0115473D02*
X0134865Y0119410D01*
D14*
X0160290Y0091851D03*
D15*
X0153565Y0102046D02*
X0153083Y0102046D01*
X0153565Y0102046D02*
X0153565Y0108428D01*
X0153083Y0108428D01*
X0149913Y0108428D02*
X0145800Y0108428D01*
X0142630Y0108428D02*
X0142148Y0108428D01*
X0142148Y0102046D01*
X0142630Y0102046D01*
X0145800Y0102046D02*
X0146173Y0102046D01*
X0149540Y0102046D02*
X0149913Y0102046D01*
M02*
