G75*
%MOIN*%
%OFA0B0*%
%FSLAX25Y25*%
%IPPOS*%
%LPD*%
%AMOC8*
5,1,8,0,0,1.08239X$1,22.5*
%
%ADD10C,0.00400*%
%ADD11C,0.00800*%
%ADD12C,0.00600*%
%ADD13C,0.01000*%
%ADD14C,0.00276*%
%ADD15R,0.03937X0.05906*%
%ADD16R,0.05906X0.05906*%
%ADD17C,0.00300*%
%ADD18C,0.00500*%
D10*
X0042257Y0043743D02*
X0042991Y0043743D01*
X0043358Y0044109D01*
X0042624Y0044843D02*
X0042257Y0044843D01*
X0041890Y0044476D01*
X0041890Y0044109D01*
X0042257Y0043743D01*
X0042257Y0044843D02*
X0041890Y0045210D01*
X0041890Y0045577D01*
X0042257Y0045944D01*
X0042991Y0045944D01*
X0043358Y0045577D01*
X0044284Y0045944D02*
X0045018Y0045944D01*
X0044651Y0045944D02*
X0044651Y0044109D01*
X0045018Y0043743D01*
X0045385Y0043743D01*
X0045752Y0044109D01*
X0085106Y0075736D02*
X0086574Y0077204D01*
X0086941Y0077204D01*
X0087308Y0076837D01*
X0087308Y0076103D01*
X0086941Y0075736D01*
X0085106Y0075736D02*
X0085106Y0077204D01*
X0085473Y0078130D02*
X0086941Y0079598D01*
X0085473Y0079598D01*
X0085106Y0079231D01*
X0085106Y0078497D01*
X0085473Y0078130D01*
X0086941Y0078130D01*
X0087308Y0078497D01*
X0087308Y0079231D01*
X0086941Y0079598D01*
X0087308Y0080524D02*
X0085106Y0080524D01*
X0085840Y0080524D02*
X0087308Y0081992D01*
X0086207Y0080891D02*
X0085106Y0081992D01*
X0093329Y0081221D02*
X0093331Y0081322D01*
X0093337Y0081423D01*
X0093347Y0081524D01*
X0093361Y0081624D01*
X0093379Y0081723D01*
X0093401Y0081822D01*
X0093426Y0081920D01*
X0093456Y0082017D01*
X0093489Y0082112D01*
X0093526Y0082206D01*
X0093567Y0082299D01*
X0093611Y0082390D01*
X0093659Y0082479D01*
X0093711Y0082566D01*
X0093766Y0082651D01*
X0093824Y0082733D01*
X0093885Y0082814D01*
X0093950Y0082892D01*
X0094017Y0082967D01*
X0094087Y0083039D01*
X0094161Y0083109D01*
X0094237Y0083176D01*
X0094315Y0083240D01*
X0094396Y0083300D01*
X0094479Y0083357D01*
X0094565Y0083411D01*
X0094653Y0083462D01*
X0094742Y0083509D01*
X0094833Y0083553D01*
X0094926Y0083592D01*
X0095021Y0083629D01*
X0095116Y0083661D01*
X0095213Y0083690D01*
X0095312Y0083714D01*
X0095410Y0083735D01*
X0095510Y0083752D01*
X0095610Y0083765D01*
X0095711Y0083774D01*
X0095812Y0083779D01*
X0095913Y0083780D01*
X0096014Y0083777D01*
X0096115Y0083770D01*
X0096216Y0083759D01*
X0096316Y0083744D01*
X0096415Y0083725D01*
X0096514Y0083702D01*
X0096611Y0083676D01*
X0096708Y0083645D01*
X0096803Y0083611D01*
X0096896Y0083573D01*
X0096989Y0083531D01*
X0097079Y0083486D01*
X0097168Y0083437D01*
X0097254Y0083385D01*
X0097338Y0083329D01*
X0097421Y0083270D01*
X0097500Y0083208D01*
X0097578Y0083143D01*
X0097652Y0083075D01*
X0097724Y0083003D01*
X0097793Y0082930D01*
X0097859Y0082853D01*
X0097922Y0082774D01*
X0097982Y0082692D01*
X0098038Y0082608D01*
X0098091Y0082522D01*
X0098141Y0082434D01*
X0098187Y0082344D01*
X0098230Y0082253D01*
X0098269Y0082159D01*
X0098304Y0082064D01*
X0098335Y0081968D01*
X0098363Y0081871D01*
X0098387Y0081773D01*
X0098407Y0081674D01*
X0098423Y0081574D01*
X0098435Y0081473D01*
X0098443Y0081373D01*
X0098447Y0081272D01*
X0098447Y0081170D01*
X0098443Y0081069D01*
X0098435Y0080969D01*
X0098423Y0080868D01*
X0098407Y0080768D01*
X0098387Y0080669D01*
X0098363Y0080571D01*
X0098335Y0080474D01*
X0098304Y0080378D01*
X0098269Y0080283D01*
X0098230Y0080189D01*
X0098187Y0080098D01*
X0098141Y0080008D01*
X0098091Y0079920D01*
X0098038Y0079834D01*
X0097982Y0079750D01*
X0097922Y0079668D01*
X0097859Y0079589D01*
X0097793Y0079512D01*
X0097724Y0079439D01*
X0097652Y0079367D01*
X0097578Y0079299D01*
X0097500Y0079234D01*
X0097421Y0079172D01*
X0097338Y0079113D01*
X0097254Y0079057D01*
X0097167Y0079005D01*
X0097079Y0078956D01*
X0096989Y0078911D01*
X0096896Y0078869D01*
X0096803Y0078831D01*
X0096708Y0078797D01*
X0096611Y0078766D01*
X0096514Y0078740D01*
X0096415Y0078717D01*
X0096316Y0078698D01*
X0096216Y0078683D01*
X0096115Y0078672D01*
X0096014Y0078665D01*
X0095913Y0078662D01*
X0095812Y0078663D01*
X0095711Y0078668D01*
X0095610Y0078677D01*
X0095510Y0078690D01*
X0095410Y0078707D01*
X0095312Y0078728D01*
X0095213Y0078752D01*
X0095116Y0078781D01*
X0095021Y0078813D01*
X0094926Y0078850D01*
X0094833Y0078889D01*
X0094742Y0078933D01*
X0094653Y0078980D01*
X0094565Y0079031D01*
X0094479Y0079085D01*
X0094396Y0079142D01*
X0094315Y0079202D01*
X0094237Y0079266D01*
X0094161Y0079333D01*
X0094087Y0079403D01*
X0094017Y0079475D01*
X0093950Y0079550D01*
X0093885Y0079628D01*
X0093824Y0079709D01*
X0093766Y0079791D01*
X0093711Y0079876D01*
X0093659Y0079963D01*
X0093611Y0080052D01*
X0093567Y0080143D01*
X0093526Y0080236D01*
X0093489Y0080330D01*
X0093456Y0080425D01*
X0093426Y0080522D01*
X0093401Y0080620D01*
X0093379Y0080719D01*
X0093361Y0080818D01*
X0093347Y0080918D01*
X0093337Y0081019D01*
X0093331Y0081120D01*
X0093329Y0081221D01*
X0128762Y0081221D02*
X0128764Y0081322D01*
X0128770Y0081423D01*
X0128780Y0081524D01*
X0128794Y0081624D01*
X0128812Y0081723D01*
X0128834Y0081822D01*
X0128859Y0081920D01*
X0128889Y0082017D01*
X0128922Y0082112D01*
X0128959Y0082206D01*
X0129000Y0082299D01*
X0129044Y0082390D01*
X0129092Y0082479D01*
X0129144Y0082566D01*
X0129199Y0082651D01*
X0129257Y0082733D01*
X0129318Y0082814D01*
X0129383Y0082892D01*
X0129450Y0082967D01*
X0129520Y0083039D01*
X0129594Y0083109D01*
X0129670Y0083176D01*
X0129748Y0083240D01*
X0129829Y0083300D01*
X0129912Y0083357D01*
X0129998Y0083411D01*
X0130086Y0083462D01*
X0130175Y0083509D01*
X0130266Y0083553D01*
X0130359Y0083592D01*
X0130454Y0083629D01*
X0130549Y0083661D01*
X0130646Y0083690D01*
X0130745Y0083714D01*
X0130843Y0083735D01*
X0130943Y0083752D01*
X0131043Y0083765D01*
X0131144Y0083774D01*
X0131245Y0083779D01*
X0131346Y0083780D01*
X0131447Y0083777D01*
X0131548Y0083770D01*
X0131649Y0083759D01*
X0131749Y0083744D01*
X0131848Y0083725D01*
X0131947Y0083702D01*
X0132044Y0083676D01*
X0132141Y0083645D01*
X0132236Y0083611D01*
X0132329Y0083573D01*
X0132422Y0083531D01*
X0132512Y0083486D01*
X0132601Y0083437D01*
X0132687Y0083385D01*
X0132771Y0083329D01*
X0132854Y0083270D01*
X0132933Y0083208D01*
X0133011Y0083143D01*
X0133085Y0083075D01*
X0133157Y0083003D01*
X0133226Y0082930D01*
X0133292Y0082853D01*
X0133355Y0082774D01*
X0133415Y0082692D01*
X0133471Y0082608D01*
X0133524Y0082522D01*
X0133574Y0082434D01*
X0133620Y0082344D01*
X0133663Y0082253D01*
X0133702Y0082159D01*
X0133737Y0082064D01*
X0133768Y0081968D01*
X0133796Y0081871D01*
X0133820Y0081773D01*
X0133840Y0081674D01*
X0133856Y0081574D01*
X0133868Y0081473D01*
X0133876Y0081373D01*
X0133880Y0081272D01*
X0133880Y0081170D01*
X0133876Y0081069D01*
X0133868Y0080969D01*
X0133856Y0080868D01*
X0133840Y0080768D01*
X0133820Y0080669D01*
X0133796Y0080571D01*
X0133768Y0080474D01*
X0133737Y0080378D01*
X0133702Y0080283D01*
X0133663Y0080189D01*
X0133620Y0080098D01*
X0133574Y0080008D01*
X0133524Y0079920D01*
X0133471Y0079834D01*
X0133415Y0079750D01*
X0133355Y0079668D01*
X0133292Y0079589D01*
X0133226Y0079512D01*
X0133157Y0079439D01*
X0133085Y0079367D01*
X0133011Y0079299D01*
X0132933Y0079234D01*
X0132854Y0079172D01*
X0132771Y0079113D01*
X0132687Y0079057D01*
X0132600Y0079005D01*
X0132512Y0078956D01*
X0132422Y0078911D01*
X0132329Y0078869D01*
X0132236Y0078831D01*
X0132141Y0078797D01*
X0132044Y0078766D01*
X0131947Y0078740D01*
X0131848Y0078717D01*
X0131749Y0078698D01*
X0131649Y0078683D01*
X0131548Y0078672D01*
X0131447Y0078665D01*
X0131346Y0078662D01*
X0131245Y0078663D01*
X0131144Y0078668D01*
X0131043Y0078677D01*
X0130943Y0078690D01*
X0130843Y0078707D01*
X0130745Y0078728D01*
X0130646Y0078752D01*
X0130549Y0078781D01*
X0130454Y0078813D01*
X0130359Y0078850D01*
X0130266Y0078889D01*
X0130175Y0078933D01*
X0130086Y0078980D01*
X0129998Y0079031D01*
X0129912Y0079085D01*
X0129829Y0079142D01*
X0129748Y0079202D01*
X0129670Y0079266D01*
X0129594Y0079333D01*
X0129520Y0079403D01*
X0129450Y0079475D01*
X0129383Y0079550D01*
X0129318Y0079628D01*
X0129257Y0079709D01*
X0129199Y0079791D01*
X0129144Y0079876D01*
X0129092Y0079963D01*
X0129044Y0080052D01*
X0129000Y0080143D01*
X0128959Y0080236D01*
X0128922Y0080330D01*
X0128889Y0080425D01*
X0128859Y0080522D01*
X0128834Y0080620D01*
X0128812Y0080719D01*
X0128794Y0080818D01*
X0128780Y0080918D01*
X0128770Y0081019D01*
X0128764Y0081120D01*
X0128762Y0081221D01*
X0139259Y0080883D02*
X0139259Y0082351D01*
X0139259Y0081617D02*
X0141461Y0081617D01*
X0140727Y0080883D01*
X0141461Y0079957D02*
X0141461Y0078489D01*
X0141461Y0079223D02*
X0139259Y0079223D01*
X0139626Y0077563D02*
X0141094Y0077563D01*
X0141461Y0077196D01*
X0141461Y0076462D01*
X0141094Y0076095D01*
X0139626Y0076095D01*
X0139259Y0076462D01*
X0139259Y0077196D01*
X0139626Y0077563D01*
X0140360Y0075169D02*
X0139993Y0074802D01*
X0139993Y0073701D01*
X0139259Y0073701D02*
X0141461Y0073701D01*
X0141461Y0074802D01*
X0141094Y0075169D01*
X0140360Y0075169D01*
X0143453Y0071058D02*
X0143086Y0070691D01*
X0143086Y0070325D01*
X0144554Y0070325D01*
X0144554Y0070691D02*
X0144554Y0069958D01*
X0144187Y0069591D01*
X0143453Y0069591D01*
X0143453Y0071058D02*
X0144187Y0071058D01*
X0144554Y0070691D01*
X0145480Y0071058D02*
X0145480Y0069224D01*
X0145847Y0068857D01*
X0146214Y0068857D01*
X0146581Y0069591D02*
X0145480Y0069591D01*
X0146581Y0069591D02*
X0146948Y0069958D01*
X0146948Y0070691D01*
X0146581Y0071058D01*
X0145480Y0071058D01*
X0147842Y0071058D02*
X0148209Y0071058D01*
X0148943Y0070325D01*
X0148943Y0071058D02*
X0148943Y0069591D01*
X0149869Y0069591D02*
X0150970Y0069591D01*
X0151337Y0069958D01*
X0150970Y0070325D01*
X0149869Y0070325D01*
X0149869Y0070691D02*
X0149869Y0069591D01*
X0149869Y0070691D02*
X0150236Y0071058D01*
X0150970Y0071058D01*
X0152263Y0070691D02*
X0152263Y0069591D01*
X0152263Y0070691D02*
X0152630Y0071058D01*
X0153364Y0071058D01*
X0153731Y0070691D01*
X0153731Y0069591D02*
X0153731Y0071792D01*
X0154657Y0071425D02*
X0155024Y0071792D01*
X0155758Y0071792D01*
X0156125Y0071425D01*
X0156125Y0069958D01*
X0155758Y0069591D01*
X0155024Y0069591D01*
X0154657Y0069958D01*
X0164980Y0064767D02*
X0164980Y0063299D01*
X0164980Y0064033D02*
X0167182Y0064033D01*
X0166448Y0063299D01*
X0166815Y0062373D02*
X0165347Y0062373D01*
X0164980Y0062006D01*
X0164980Y0060905D01*
X0167182Y0060905D01*
X0167182Y0062006D01*
X0166815Y0062373D01*
X0167182Y0059979D02*
X0167182Y0058511D01*
X0164980Y0058511D01*
X0164980Y0059979D01*
X0166081Y0059245D02*
X0166081Y0058511D01*
X0164980Y0057585D02*
X0164980Y0056117D01*
X0167182Y0056117D01*
X0148127Y0056934D02*
X0147760Y0056567D01*
X0148127Y0056934D02*
X0148127Y0057668D01*
X0147760Y0058034D01*
X0147393Y0058034D01*
X0145925Y0056567D01*
X0145925Y0058034D01*
X0146292Y0055640D02*
X0147760Y0055640D01*
X0148127Y0055273D01*
X0148127Y0054173D01*
X0145925Y0054173D01*
X0145925Y0055273D01*
X0146292Y0055640D01*
X0145925Y0053246D02*
X0145925Y0051778D01*
X0148127Y0051778D01*
X0148127Y0053246D01*
X0147026Y0052512D02*
X0147026Y0051778D01*
X0145925Y0050852D02*
X0145925Y0049384D01*
X0148127Y0049384D01*
X0128762Y0039489D02*
X0128764Y0039590D01*
X0128770Y0039691D01*
X0128780Y0039792D01*
X0128794Y0039892D01*
X0128812Y0039991D01*
X0128834Y0040090D01*
X0128859Y0040188D01*
X0128889Y0040285D01*
X0128922Y0040380D01*
X0128959Y0040474D01*
X0129000Y0040567D01*
X0129044Y0040658D01*
X0129092Y0040747D01*
X0129144Y0040834D01*
X0129199Y0040919D01*
X0129257Y0041001D01*
X0129318Y0041082D01*
X0129383Y0041160D01*
X0129450Y0041235D01*
X0129520Y0041307D01*
X0129594Y0041377D01*
X0129670Y0041444D01*
X0129748Y0041508D01*
X0129829Y0041568D01*
X0129912Y0041625D01*
X0129998Y0041679D01*
X0130086Y0041730D01*
X0130175Y0041777D01*
X0130266Y0041821D01*
X0130359Y0041860D01*
X0130454Y0041897D01*
X0130549Y0041929D01*
X0130646Y0041958D01*
X0130745Y0041982D01*
X0130843Y0042003D01*
X0130943Y0042020D01*
X0131043Y0042033D01*
X0131144Y0042042D01*
X0131245Y0042047D01*
X0131346Y0042048D01*
X0131447Y0042045D01*
X0131548Y0042038D01*
X0131649Y0042027D01*
X0131749Y0042012D01*
X0131848Y0041993D01*
X0131947Y0041970D01*
X0132044Y0041944D01*
X0132141Y0041913D01*
X0132236Y0041879D01*
X0132329Y0041841D01*
X0132422Y0041799D01*
X0132512Y0041754D01*
X0132601Y0041705D01*
X0132687Y0041653D01*
X0132771Y0041597D01*
X0132854Y0041538D01*
X0132933Y0041476D01*
X0133011Y0041411D01*
X0133085Y0041343D01*
X0133157Y0041271D01*
X0133226Y0041198D01*
X0133292Y0041121D01*
X0133355Y0041042D01*
X0133415Y0040960D01*
X0133471Y0040876D01*
X0133524Y0040790D01*
X0133574Y0040702D01*
X0133620Y0040612D01*
X0133663Y0040521D01*
X0133702Y0040427D01*
X0133737Y0040332D01*
X0133768Y0040236D01*
X0133796Y0040139D01*
X0133820Y0040041D01*
X0133840Y0039942D01*
X0133856Y0039842D01*
X0133868Y0039741D01*
X0133876Y0039641D01*
X0133880Y0039540D01*
X0133880Y0039438D01*
X0133876Y0039337D01*
X0133868Y0039237D01*
X0133856Y0039136D01*
X0133840Y0039036D01*
X0133820Y0038937D01*
X0133796Y0038839D01*
X0133768Y0038742D01*
X0133737Y0038646D01*
X0133702Y0038551D01*
X0133663Y0038457D01*
X0133620Y0038366D01*
X0133574Y0038276D01*
X0133524Y0038188D01*
X0133471Y0038102D01*
X0133415Y0038018D01*
X0133355Y0037936D01*
X0133292Y0037857D01*
X0133226Y0037780D01*
X0133157Y0037707D01*
X0133085Y0037635D01*
X0133011Y0037567D01*
X0132933Y0037502D01*
X0132854Y0037440D01*
X0132771Y0037381D01*
X0132687Y0037325D01*
X0132600Y0037273D01*
X0132512Y0037224D01*
X0132422Y0037179D01*
X0132329Y0037137D01*
X0132236Y0037099D01*
X0132141Y0037065D01*
X0132044Y0037034D01*
X0131947Y0037008D01*
X0131848Y0036985D01*
X0131749Y0036966D01*
X0131649Y0036951D01*
X0131548Y0036940D01*
X0131447Y0036933D01*
X0131346Y0036930D01*
X0131245Y0036931D01*
X0131144Y0036936D01*
X0131043Y0036945D01*
X0130943Y0036958D01*
X0130843Y0036975D01*
X0130745Y0036996D01*
X0130646Y0037020D01*
X0130549Y0037049D01*
X0130454Y0037081D01*
X0130359Y0037118D01*
X0130266Y0037157D01*
X0130175Y0037201D01*
X0130086Y0037248D01*
X0129998Y0037299D01*
X0129912Y0037353D01*
X0129829Y0037410D01*
X0129748Y0037470D01*
X0129670Y0037534D01*
X0129594Y0037601D01*
X0129520Y0037671D01*
X0129450Y0037743D01*
X0129383Y0037818D01*
X0129318Y0037896D01*
X0129257Y0037977D01*
X0129199Y0038059D01*
X0129144Y0038144D01*
X0129092Y0038231D01*
X0129044Y0038320D01*
X0129000Y0038411D01*
X0128959Y0038504D01*
X0128922Y0038598D01*
X0128889Y0038693D01*
X0128859Y0038790D01*
X0128834Y0038888D01*
X0128812Y0038987D01*
X0128794Y0039086D01*
X0128780Y0039186D01*
X0128770Y0039287D01*
X0128764Y0039388D01*
X0128762Y0039489D01*
X0093329Y0039489D02*
X0093331Y0039590D01*
X0093337Y0039691D01*
X0093347Y0039792D01*
X0093361Y0039892D01*
X0093379Y0039991D01*
X0093401Y0040090D01*
X0093426Y0040188D01*
X0093456Y0040285D01*
X0093489Y0040380D01*
X0093526Y0040474D01*
X0093567Y0040567D01*
X0093611Y0040658D01*
X0093659Y0040747D01*
X0093711Y0040834D01*
X0093766Y0040919D01*
X0093824Y0041001D01*
X0093885Y0041082D01*
X0093950Y0041160D01*
X0094017Y0041235D01*
X0094087Y0041307D01*
X0094161Y0041377D01*
X0094237Y0041444D01*
X0094315Y0041508D01*
X0094396Y0041568D01*
X0094479Y0041625D01*
X0094565Y0041679D01*
X0094653Y0041730D01*
X0094742Y0041777D01*
X0094833Y0041821D01*
X0094926Y0041860D01*
X0095021Y0041897D01*
X0095116Y0041929D01*
X0095213Y0041958D01*
X0095312Y0041982D01*
X0095410Y0042003D01*
X0095510Y0042020D01*
X0095610Y0042033D01*
X0095711Y0042042D01*
X0095812Y0042047D01*
X0095913Y0042048D01*
X0096014Y0042045D01*
X0096115Y0042038D01*
X0096216Y0042027D01*
X0096316Y0042012D01*
X0096415Y0041993D01*
X0096514Y0041970D01*
X0096611Y0041944D01*
X0096708Y0041913D01*
X0096803Y0041879D01*
X0096896Y0041841D01*
X0096989Y0041799D01*
X0097079Y0041754D01*
X0097168Y0041705D01*
X0097254Y0041653D01*
X0097338Y0041597D01*
X0097421Y0041538D01*
X0097500Y0041476D01*
X0097578Y0041411D01*
X0097652Y0041343D01*
X0097724Y0041271D01*
X0097793Y0041198D01*
X0097859Y0041121D01*
X0097922Y0041042D01*
X0097982Y0040960D01*
X0098038Y0040876D01*
X0098091Y0040790D01*
X0098141Y0040702D01*
X0098187Y0040612D01*
X0098230Y0040521D01*
X0098269Y0040427D01*
X0098304Y0040332D01*
X0098335Y0040236D01*
X0098363Y0040139D01*
X0098387Y0040041D01*
X0098407Y0039942D01*
X0098423Y0039842D01*
X0098435Y0039741D01*
X0098443Y0039641D01*
X0098447Y0039540D01*
X0098447Y0039438D01*
X0098443Y0039337D01*
X0098435Y0039237D01*
X0098423Y0039136D01*
X0098407Y0039036D01*
X0098387Y0038937D01*
X0098363Y0038839D01*
X0098335Y0038742D01*
X0098304Y0038646D01*
X0098269Y0038551D01*
X0098230Y0038457D01*
X0098187Y0038366D01*
X0098141Y0038276D01*
X0098091Y0038188D01*
X0098038Y0038102D01*
X0097982Y0038018D01*
X0097922Y0037936D01*
X0097859Y0037857D01*
X0097793Y0037780D01*
X0097724Y0037707D01*
X0097652Y0037635D01*
X0097578Y0037567D01*
X0097500Y0037502D01*
X0097421Y0037440D01*
X0097338Y0037381D01*
X0097254Y0037325D01*
X0097167Y0037273D01*
X0097079Y0037224D01*
X0096989Y0037179D01*
X0096896Y0037137D01*
X0096803Y0037099D01*
X0096708Y0037065D01*
X0096611Y0037034D01*
X0096514Y0037008D01*
X0096415Y0036985D01*
X0096316Y0036966D01*
X0096216Y0036951D01*
X0096115Y0036940D01*
X0096014Y0036933D01*
X0095913Y0036930D01*
X0095812Y0036931D01*
X0095711Y0036936D01*
X0095610Y0036945D01*
X0095510Y0036958D01*
X0095410Y0036975D01*
X0095312Y0036996D01*
X0095213Y0037020D01*
X0095116Y0037049D01*
X0095021Y0037081D01*
X0094926Y0037118D01*
X0094833Y0037157D01*
X0094742Y0037201D01*
X0094653Y0037248D01*
X0094565Y0037299D01*
X0094479Y0037353D01*
X0094396Y0037410D01*
X0094315Y0037470D01*
X0094237Y0037534D01*
X0094161Y0037601D01*
X0094087Y0037671D01*
X0094017Y0037743D01*
X0093950Y0037818D01*
X0093885Y0037896D01*
X0093824Y0037977D01*
X0093766Y0038059D01*
X0093711Y0038144D01*
X0093659Y0038231D01*
X0093611Y0038320D01*
X0093567Y0038411D01*
X0093526Y0038504D01*
X0093489Y0038598D01*
X0093456Y0038693D01*
X0093426Y0038790D01*
X0093401Y0038888D01*
X0093379Y0038987D01*
X0093361Y0039086D01*
X0093347Y0039186D01*
X0093337Y0039287D01*
X0093331Y0039388D01*
X0093329Y0039489D01*
X0091778Y0115673D02*
X0091044Y0115673D01*
X0090677Y0116040D01*
X0090677Y0117508D01*
X0091044Y0117875D01*
X0091778Y0117875D01*
X0092145Y0117508D01*
X0092145Y0116040D01*
X0091778Y0115673D01*
X0089751Y0115673D02*
X0089751Y0117875D01*
X0088283Y0117875D01*
X0087357Y0117875D02*
X0087357Y0115673D01*
X0087357Y0116774D02*
X0086623Y0116774D01*
X0087357Y0117875D02*
X0085889Y0117875D01*
X0089017Y0116774D02*
X0089751Y0116774D01*
X0055137Y0116828D02*
X0054770Y0116461D01*
X0054036Y0116461D01*
X0053669Y0116828D01*
X0053669Y0118296D01*
X0054036Y0118662D01*
X0054770Y0118662D01*
X0055137Y0118296D01*
X0055137Y0116828D01*
X0052743Y0116461D02*
X0052743Y0118662D01*
X0051275Y0116461D01*
X0051275Y0118662D01*
D11*
X0091557Y0085552D02*
X0091557Y0083387D01*
X0089392Y0083387D01*
X0089392Y0070788D01*
X0068329Y0072166D02*
X0068329Y0048544D01*
X0011243Y0048544D01*
X0011243Y0050513D01*
X0002384Y0050513D01*
X0001400Y0051497D01*
X0001400Y0069213D01*
X0002384Y0070198D01*
X0011243Y0070198D01*
X0011243Y0072166D01*
X0068329Y0072166D01*
X0091557Y0085552D02*
X0135652Y0085552D01*
X0135652Y0083387D01*
X0137817Y0083387D01*
X0137817Y0070788D01*
X0104353Y0060355D02*
X0104356Y0060582D01*
X0104364Y0060809D01*
X0104378Y0061036D01*
X0104398Y0061262D01*
X0104423Y0061488D01*
X0104453Y0061713D01*
X0104489Y0061937D01*
X0104531Y0062160D01*
X0104578Y0062382D01*
X0104630Y0062603D01*
X0104688Y0062823D01*
X0104751Y0063041D01*
X0104820Y0063257D01*
X0104894Y0063472D01*
X0104973Y0063685D01*
X0105057Y0063896D01*
X0105147Y0064104D01*
X0105241Y0064311D01*
X0105341Y0064515D01*
X0105445Y0064716D01*
X0105555Y0064915D01*
X0105669Y0065111D01*
X0105788Y0065305D01*
X0105912Y0065495D01*
X0106041Y0065682D01*
X0106174Y0065866D01*
X0106311Y0066047D01*
X0106453Y0066224D01*
X0106599Y0066398D01*
X0106750Y0066568D01*
X0106904Y0066735D01*
X0107063Y0066897D01*
X0107225Y0067056D01*
X0107392Y0067210D01*
X0107562Y0067361D01*
X0107736Y0067507D01*
X0107913Y0067649D01*
X0108094Y0067786D01*
X0108278Y0067919D01*
X0108465Y0068048D01*
X0108655Y0068172D01*
X0108849Y0068291D01*
X0109045Y0068405D01*
X0109244Y0068515D01*
X0109445Y0068619D01*
X0109649Y0068719D01*
X0109856Y0068813D01*
X0110064Y0068903D01*
X0110275Y0068987D01*
X0110488Y0069066D01*
X0110703Y0069140D01*
X0110919Y0069209D01*
X0111137Y0069272D01*
X0111357Y0069330D01*
X0111578Y0069382D01*
X0111800Y0069429D01*
X0112023Y0069471D01*
X0112247Y0069507D01*
X0112472Y0069537D01*
X0112698Y0069562D01*
X0112924Y0069582D01*
X0113151Y0069596D01*
X0113378Y0069604D01*
X0113605Y0069607D01*
X0113832Y0069604D01*
X0114059Y0069596D01*
X0114286Y0069582D01*
X0114512Y0069562D01*
X0114738Y0069537D01*
X0114963Y0069507D01*
X0115187Y0069471D01*
X0115410Y0069429D01*
X0115632Y0069382D01*
X0115853Y0069330D01*
X0116073Y0069272D01*
X0116291Y0069209D01*
X0116507Y0069140D01*
X0116722Y0069066D01*
X0116935Y0068987D01*
X0117146Y0068903D01*
X0117354Y0068813D01*
X0117561Y0068719D01*
X0117765Y0068619D01*
X0117966Y0068515D01*
X0118165Y0068405D01*
X0118361Y0068291D01*
X0118555Y0068172D01*
X0118745Y0068048D01*
X0118932Y0067919D01*
X0119116Y0067786D01*
X0119297Y0067649D01*
X0119474Y0067507D01*
X0119648Y0067361D01*
X0119818Y0067210D01*
X0119985Y0067056D01*
X0120147Y0066897D01*
X0120306Y0066735D01*
X0120460Y0066568D01*
X0120611Y0066398D01*
X0120757Y0066224D01*
X0120899Y0066047D01*
X0121036Y0065866D01*
X0121169Y0065682D01*
X0121298Y0065495D01*
X0121422Y0065305D01*
X0121541Y0065111D01*
X0121655Y0064915D01*
X0121765Y0064716D01*
X0121869Y0064515D01*
X0121969Y0064311D01*
X0122063Y0064104D01*
X0122153Y0063896D01*
X0122237Y0063685D01*
X0122316Y0063472D01*
X0122390Y0063257D01*
X0122459Y0063041D01*
X0122522Y0062823D01*
X0122580Y0062603D01*
X0122632Y0062382D01*
X0122679Y0062160D01*
X0122721Y0061937D01*
X0122757Y0061713D01*
X0122787Y0061488D01*
X0122812Y0061262D01*
X0122832Y0061036D01*
X0122846Y0060809D01*
X0122854Y0060582D01*
X0122857Y0060355D01*
X0122854Y0060128D01*
X0122846Y0059901D01*
X0122832Y0059674D01*
X0122812Y0059448D01*
X0122787Y0059222D01*
X0122757Y0058997D01*
X0122721Y0058773D01*
X0122679Y0058550D01*
X0122632Y0058328D01*
X0122580Y0058107D01*
X0122522Y0057887D01*
X0122459Y0057669D01*
X0122390Y0057453D01*
X0122316Y0057238D01*
X0122237Y0057025D01*
X0122153Y0056814D01*
X0122063Y0056606D01*
X0121969Y0056399D01*
X0121869Y0056195D01*
X0121765Y0055994D01*
X0121655Y0055795D01*
X0121541Y0055599D01*
X0121422Y0055405D01*
X0121298Y0055215D01*
X0121169Y0055028D01*
X0121036Y0054844D01*
X0120899Y0054663D01*
X0120757Y0054486D01*
X0120611Y0054312D01*
X0120460Y0054142D01*
X0120306Y0053975D01*
X0120147Y0053813D01*
X0119985Y0053654D01*
X0119818Y0053500D01*
X0119648Y0053349D01*
X0119474Y0053203D01*
X0119297Y0053061D01*
X0119116Y0052924D01*
X0118932Y0052791D01*
X0118745Y0052662D01*
X0118555Y0052538D01*
X0118361Y0052419D01*
X0118165Y0052305D01*
X0117966Y0052195D01*
X0117765Y0052091D01*
X0117561Y0051991D01*
X0117354Y0051897D01*
X0117146Y0051807D01*
X0116935Y0051723D01*
X0116722Y0051644D01*
X0116507Y0051570D01*
X0116291Y0051501D01*
X0116073Y0051438D01*
X0115853Y0051380D01*
X0115632Y0051328D01*
X0115410Y0051281D01*
X0115187Y0051239D01*
X0114963Y0051203D01*
X0114738Y0051173D01*
X0114512Y0051148D01*
X0114286Y0051128D01*
X0114059Y0051114D01*
X0113832Y0051106D01*
X0113605Y0051103D01*
X0113378Y0051106D01*
X0113151Y0051114D01*
X0112924Y0051128D01*
X0112698Y0051148D01*
X0112472Y0051173D01*
X0112247Y0051203D01*
X0112023Y0051239D01*
X0111800Y0051281D01*
X0111578Y0051328D01*
X0111357Y0051380D01*
X0111137Y0051438D01*
X0110919Y0051501D01*
X0110703Y0051570D01*
X0110488Y0051644D01*
X0110275Y0051723D01*
X0110064Y0051807D01*
X0109856Y0051897D01*
X0109649Y0051991D01*
X0109445Y0052091D01*
X0109244Y0052195D01*
X0109045Y0052305D01*
X0108849Y0052419D01*
X0108655Y0052538D01*
X0108465Y0052662D01*
X0108278Y0052791D01*
X0108094Y0052924D01*
X0107913Y0053061D01*
X0107736Y0053203D01*
X0107562Y0053349D01*
X0107392Y0053500D01*
X0107225Y0053654D01*
X0107063Y0053813D01*
X0106904Y0053975D01*
X0106750Y0054142D01*
X0106599Y0054312D01*
X0106453Y0054486D01*
X0106311Y0054663D01*
X0106174Y0054844D01*
X0106041Y0055028D01*
X0105912Y0055215D01*
X0105788Y0055405D01*
X0105669Y0055599D01*
X0105555Y0055795D01*
X0105445Y0055994D01*
X0105341Y0056195D01*
X0105241Y0056399D01*
X0105147Y0056606D01*
X0105057Y0056814D01*
X0104973Y0057025D01*
X0104894Y0057238D01*
X0104820Y0057453D01*
X0104751Y0057669D01*
X0104688Y0057887D01*
X0104630Y0058107D01*
X0104578Y0058328D01*
X0104531Y0058550D01*
X0104489Y0058773D01*
X0104453Y0058997D01*
X0104423Y0059222D01*
X0104398Y0059448D01*
X0104378Y0059674D01*
X0104364Y0059901D01*
X0104356Y0060128D01*
X0104353Y0060355D01*
X0102188Y0060355D02*
X0102191Y0060635D01*
X0102202Y0060915D01*
X0102219Y0061195D01*
X0102243Y0061474D01*
X0102274Y0061753D01*
X0102312Y0062030D01*
X0102356Y0062307D01*
X0102407Y0062582D01*
X0102465Y0062856D01*
X0102530Y0063129D01*
X0102602Y0063400D01*
X0102680Y0063669D01*
X0102764Y0063936D01*
X0102855Y0064201D01*
X0102953Y0064464D01*
X0103057Y0064724D01*
X0103167Y0064982D01*
X0103284Y0065236D01*
X0103407Y0065488D01*
X0103536Y0065737D01*
X0103671Y0065982D01*
X0103812Y0066225D01*
X0103959Y0066463D01*
X0104112Y0066698D01*
X0104271Y0066929D01*
X0104435Y0067156D01*
X0104604Y0067379D01*
X0104780Y0067598D01*
X0104960Y0067812D01*
X0105146Y0068022D01*
X0105336Y0068227D01*
X0105532Y0068428D01*
X0105733Y0068624D01*
X0105938Y0068814D01*
X0106148Y0069000D01*
X0106362Y0069180D01*
X0106581Y0069356D01*
X0106804Y0069525D01*
X0107031Y0069689D01*
X0107262Y0069848D01*
X0107497Y0070001D01*
X0107735Y0070148D01*
X0107978Y0070289D01*
X0108223Y0070424D01*
X0108472Y0070553D01*
X0108724Y0070676D01*
X0108978Y0070793D01*
X0109236Y0070903D01*
X0109496Y0071007D01*
X0109759Y0071105D01*
X0110024Y0071196D01*
X0110291Y0071280D01*
X0110560Y0071358D01*
X0110831Y0071430D01*
X0111104Y0071495D01*
X0111378Y0071553D01*
X0111653Y0071604D01*
X0111930Y0071648D01*
X0112207Y0071686D01*
X0112486Y0071717D01*
X0112765Y0071741D01*
X0113045Y0071758D01*
X0113325Y0071769D01*
X0113605Y0071772D01*
X0113885Y0071769D01*
X0114165Y0071758D01*
X0114445Y0071741D01*
X0114724Y0071717D01*
X0115003Y0071686D01*
X0115280Y0071648D01*
X0115557Y0071604D01*
X0115832Y0071553D01*
X0116106Y0071495D01*
X0116379Y0071430D01*
X0116650Y0071358D01*
X0116919Y0071280D01*
X0117186Y0071196D01*
X0117451Y0071105D01*
X0117714Y0071007D01*
X0117974Y0070903D01*
X0118232Y0070793D01*
X0118486Y0070676D01*
X0118738Y0070553D01*
X0118987Y0070424D01*
X0119232Y0070289D01*
X0119475Y0070148D01*
X0119713Y0070001D01*
X0119948Y0069848D01*
X0120179Y0069689D01*
X0120406Y0069525D01*
X0120629Y0069356D01*
X0120848Y0069180D01*
X0121062Y0069000D01*
X0121272Y0068814D01*
X0121477Y0068624D01*
X0121678Y0068428D01*
X0121874Y0068227D01*
X0122064Y0068022D01*
X0122250Y0067812D01*
X0122430Y0067598D01*
X0122606Y0067379D01*
X0122775Y0067156D01*
X0122939Y0066929D01*
X0123098Y0066698D01*
X0123251Y0066463D01*
X0123398Y0066225D01*
X0123539Y0065982D01*
X0123674Y0065737D01*
X0123803Y0065488D01*
X0123926Y0065236D01*
X0124043Y0064982D01*
X0124153Y0064724D01*
X0124257Y0064464D01*
X0124355Y0064201D01*
X0124446Y0063936D01*
X0124530Y0063669D01*
X0124608Y0063400D01*
X0124680Y0063129D01*
X0124745Y0062856D01*
X0124803Y0062582D01*
X0124854Y0062307D01*
X0124898Y0062030D01*
X0124936Y0061753D01*
X0124967Y0061474D01*
X0124991Y0061195D01*
X0125008Y0060915D01*
X0125019Y0060635D01*
X0125022Y0060355D01*
X0125019Y0060075D01*
X0125008Y0059795D01*
X0124991Y0059515D01*
X0124967Y0059236D01*
X0124936Y0058957D01*
X0124898Y0058680D01*
X0124854Y0058403D01*
X0124803Y0058128D01*
X0124745Y0057854D01*
X0124680Y0057581D01*
X0124608Y0057310D01*
X0124530Y0057041D01*
X0124446Y0056774D01*
X0124355Y0056509D01*
X0124257Y0056246D01*
X0124153Y0055986D01*
X0124043Y0055728D01*
X0123926Y0055474D01*
X0123803Y0055222D01*
X0123674Y0054973D01*
X0123539Y0054728D01*
X0123398Y0054485D01*
X0123251Y0054247D01*
X0123098Y0054012D01*
X0122939Y0053781D01*
X0122775Y0053554D01*
X0122606Y0053331D01*
X0122430Y0053112D01*
X0122250Y0052898D01*
X0122064Y0052688D01*
X0121874Y0052483D01*
X0121678Y0052282D01*
X0121477Y0052086D01*
X0121272Y0051896D01*
X0121062Y0051710D01*
X0120848Y0051530D01*
X0120629Y0051354D01*
X0120406Y0051185D01*
X0120179Y0051021D01*
X0119948Y0050862D01*
X0119713Y0050709D01*
X0119475Y0050562D01*
X0119232Y0050421D01*
X0118987Y0050286D01*
X0118738Y0050157D01*
X0118486Y0050034D01*
X0118232Y0049917D01*
X0117974Y0049807D01*
X0117714Y0049703D01*
X0117451Y0049605D01*
X0117186Y0049514D01*
X0116919Y0049430D01*
X0116650Y0049352D01*
X0116379Y0049280D01*
X0116106Y0049215D01*
X0115832Y0049157D01*
X0115557Y0049106D01*
X0115280Y0049062D01*
X0115003Y0049024D01*
X0114724Y0048993D01*
X0114445Y0048969D01*
X0114165Y0048952D01*
X0113885Y0048941D01*
X0113605Y0048938D01*
X0113325Y0048941D01*
X0113045Y0048952D01*
X0112765Y0048969D01*
X0112486Y0048993D01*
X0112207Y0049024D01*
X0111930Y0049062D01*
X0111653Y0049106D01*
X0111378Y0049157D01*
X0111104Y0049215D01*
X0110831Y0049280D01*
X0110560Y0049352D01*
X0110291Y0049430D01*
X0110024Y0049514D01*
X0109759Y0049605D01*
X0109496Y0049703D01*
X0109236Y0049807D01*
X0108978Y0049917D01*
X0108724Y0050034D01*
X0108472Y0050157D01*
X0108223Y0050286D01*
X0107978Y0050421D01*
X0107735Y0050562D01*
X0107497Y0050709D01*
X0107262Y0050862D01*
X0107031Y0051021D01*
X0106804Y0051185D01*
X0106581Y0051354D01*
X0106362Y0051530D01*
X0106148Y0051710D01*
X0105938Y0051896D01*
X0105733Y0052086D01*
X0105532Y0052282D01*
X0105336Y0052483D01*
X0105146Y0052688D01*
X0104960Y0052898D01*
X0104780Y0053112D01*
X0104604Y0053331D01*
X0104435Y0053554D01*
X0104271Y0053781D01*
X0104112Y0054012D01*
X0103959Y0054247D01*
X0103812Y0054485D01*
X0103671Y0054728D01*
X0103536Y0054973D01*
X0103407Y0055222D01*
X0103284Y0055474D01*
X0103167Y0055728D01*
X0103057Y0055986D01*
X0102953Y0056246D01*
X0102855Y0056509D01*
X0102764Y0056774D01*
X0102680Y0057041D01*
X0102602Y0057310D01*
X0102530Y0057581D01*
X0102465Y0057854D01*
X0102407Y0058128D01*
X0102356Y0058403D01*
X0102312Y0058680D01*
X0102274Y0058957D01*
X0102243Y0059236D01*
X0102219Y0059515D01*
X0102202Y0059795D01*
X0102191Y0060075D01*
X0102188Y0060355D01*
X0089392Y0051891D02*
X0089392Y0023544D01*
X0091557Y0023544D01*
X0091557Y0021379D01*
X0135652Y0021379D01*
X0135652Y0023544D01*
X0137817Y0023544D01*
X0137817Y0051891D01*
X0011243Y0050513D02*
X0011243Y0070198D01*
D12*
X0160595Y0064697D02*
X0160714Y0064603D01*
X0160830Y0064505D01*
X0160944Y0064405D01*
X0161055Y0064301D01*
X0161163Y0064195D01*
X0161269Y0064087D01*
X0161371Y0063975D01*
X0161471Y0063861D01*
X0161569Y0063745D01*
X0161663Y0063626D01*
X0161754Y0063505D01*
X0161842Y0063381D01*
X0161927Y0063255D01*
X0162008Y0063128D01*
X0162087Y0062998D01*
X0162162Y0062866D01*
X0162233Y0062733D01*
X0162302Y0062597D01*
X0162367Y0062460D01*
X0162428Y0062322D01*
X0162486Y0062181D01*
X0162540Y0062040D01*
X0162591Y0061897D01*
X0162638Y0061753D01*
X0162682Y0061608D01*
X0162721Y0061461D01*
X0162757Y0061314D01*
X0162790Y0061166D01*
X0162818Y0061017D01*
X0162843Y0060867D01*
X0162864Y0060717D01*
X0162881Y0060567D01*
X0162895Y0060415D01*
X0162904Y0060264D01*
X0162910Y0060113D01*
X0162912Y0059961D01*
X0153312Y0064761D02*
X0153193Y0064669D01*
X0153076Y0064575D01*
X0152962Y0064477D01*
X0152850Y0064377D01*
X0152740Y0064273D01*
X0152634Y0064168D01*
X0152529Y0064059D01*
X0152428Y0063948D01*
X0152330Y0063834D01*
X0152234Y0063718D01*
X0152141Y0063600D01*
X0152052Y0063479D01*
X0151965Y0063356D01*
X0151882Y0063231D01*
X0151801Y0063104D01*
X0151724Y0062975D01*
X0151650Y0062844D01*
X0151579Y0062711D01*
X0151512Y0062577D01*
X0151448Y0062441D01*
X0151388Y0062303D01*
X0151331Y0062164D01*
X0151278Y0062023D01*
X0151228Y0061881D01*
X0151181Y0061738D01*
X0151139Y0061594D01*
X0151099Y0061449D01*
X0151064Y0061303D01*
X0151032Y0061156D01*
X0151004Y0061008D01*
X0150980Y0060860D01*
X0150959Y0060711D01*
X0150942Y0060561D01*
X0150929Y0060412D01*
X0150920Y0060262D01*
X0150914Y0060111D01*
X0150912Y0059961D01*
X0160595Y0055225D02*
X0160714Y0055319D01*
X0160830Y0055417D01*
X0160944Y0055517D01*
X0161055Y0055621D01*
X0161163Y0055727D01*
X0161269Y0055835D01*
X0161371Y0055947D01*
X0161471Y0056061D01*
X0161569Y0056177D01*
X0161663Y0056296D01*
X0161754Y0056417D01*
X0161842Y0056541D01*
X0161927Y0056667D01*
X0162008Y0056794D01*
X0162087Y0056924D01*
X0162162Y0057056D01*
X0162233Y0057189D01*
X0162302Y0057325D01*
X0162367Y0057462D01*
X0162428Y0057600D01*
X0162486Y0057741D01*
X0162540Y0057882D01*
X0162591Y0058025D01*
X0162638Y0058169D01*
X0162682Y0058314D01*
X0162721Y0058461D01*
X0162757Y0058608D01*
X0162790Y0058756D01*
X0162818Y0058905D01*
X0162843Y0059055D01*
X0162864Y0059205D01*
X0162881Y0059355D01*
X0162895Y0059507D01*
X0162904Y0059658D01*
X0162910Y0059809D01*
X0162912Y0059961D01*
X0153425Y0055080D02*
X0153300Y0055171D01*
X0153178Y0055265D01*
X0153059Y0055363D01*
X0152942Y0055463D01*
X0152828Y0055567D01*
X0152716Y0055673D01*
X0152608Y0055782D01*
X0152502Y0055894D01*
X0152399Y0056009D01*
X0152299Y0056126D01*
X0152201Y0056246D01*
X0152108Y0056368D01*
X0152017Y0056492D01*
X0151929Y0056619D01*
X0151845Y0056748D01*
X0151764Y0056880D01*
X0151687Y0057013D01*
X0151613Y0057148D01*
X0151542Y0057285D01*
X0151475Y0057424D01*
X0151412Y0057564D01*
X0151352Y0057707D01*
X0151296Y0057850D01*
X0151244Y0057995D01*
X0151195Y0058141D01*
X0151150Y0058289D01*
X0151109Y0058437D01*
X0151072Y0058587D01*
X0151038Y0058737D01*
X0151009Y0058889D01*
X0150983Y0059041D01*
X0150961Y0059193D01*
X0150944Y0059346D01*
X0150930Y0059500D01*
X0150920Y0059654D01*
X0150914Y0059808D01*
X0150912Y0059962D01*
X0180280Y0065091D02*
X0180399Y0064997D01*
X0180515Y0064899D01*
X0180629Y0064799D01*
X0180740Y0064695D01*
X0180848Y0064589D01*
X0180954Y0064481D01*
X0181056Y0064369D01*
X0181156Y0064255D01*
X0181254Y0064139D01*
X0181348Y0064020D01*
X0181439Y0063899D01*
X0181527Y0063775D01*
X0181612Y0063649D01*
X0181693Y0063522D01*
X0181772Y0063392D01*
X0181847Y0063260D01*
X0181918Y0063127D01*
X0181987Y0062991D01*
X0182052Y0062854D01*
X0182113Y0062716D01*
X0182171Y0062575D01*
X0182225Y0062434D01*
X0182276Y0062291D01*
X0182323Y0062147D01*
X0182367Y0062002D01*
X0182406Y0061855D01*
X0182442Y0061708D01*
X0182475Y0061560D01*
X0182503Y0061411D01*
X0182528Y0061261D01*
X0182549Y0061111D01*
X0182566Y0060961D01*
X0182580Y0060809D01*
X0182589Y0060658D01*
X0182595Y0060507D01*
X0182597Y0060355D01*
X0172997Y0065155D02*
X0172878Y0065063D01*
X0172761Y0064969D01*
X0172647Y0064871D01*
X0172535Y0064771D01*
X0172425Y0064667D01*
X0172319Y0064562D01*
X0172214Y0064453D01*
X0172113Y0064342D01*
X0172015Y0064228D01*
X0171919Y0064112D01*
X0171826Y0063994D01*
X0171737Y0063873D01*
X0171650Y0063750D01*
X0171567Y0063625D01*
X0171486Y0063498D01*
X0171409Y0063369D01*
X0171335Y0063238D01*
X0171264Y0063105D01*
X0171197Y0062971D01*
X0171133Y0062835D01*
X0171073Y0062697D01*
X0171016Y0062558D01*
X0170963Y0062417D01*
X0170913Y0062275D01*
X0170866Y0062132D01*
X0170824Y0061988D01*
X0170784Y0061843D01*
X0170749Y0061697D01*
X0170717Y0061550D01*
X0170689Y0061402D01*
X0170665Y0061254D01*
X0170644Y0061105D01*
X0170627Y0060955D01*
X0170614Y0060806D01*
X0170605Y0060656D01*
X0170599Y0060505D01*
X0170597Y0060355D01*
X0180280Y0055619D02*
X0180399Y0055713D01*
X0180515Y0055811D01*
X0180629Y0055911D01*
X0180740Y0056015D01*
X0180848Y0056121D01*
X0180954Y0056229D01*
X0181056Y0056341D01*
X0181156Y0056455D01*
X0181254Y0056571D01*
X0181348Y0056690D01*
X0181439Y0056811D01*
X0181527Y0056935D01*
X0181612Y0057061D01*
X0181693Y0057188D01*
X0181772Y0057318D01*
X0181847Y0057450D01*
X0181918Y0057583D01*
X0181987Y0057719D01*
X0182052Y0057856D01*
X0182113Y0057994D01*
X0182171Y0058135D01*
X0182225Y0058276D01*
X0182276Y0058419D01*
X0182323Y0058563D01*
X0182367Y0058708D01*
X0182406Y0058855D01*
X0182442Y0059002D01*
X0182475Y0059150D01*
X0182503Y0059299D01*
X0182528Y0059449D01*
X0182549Y0059599D01*
X0182566Y0059749D01*
X0182580Y0059901D01*
X0182589Y0060052D01*
X0182595Y0060203D01*
X0182597Y0060355D01*
X0173110Y0055473D02*
X0172985Y0055564D01*
X0172863Y0055658D01*
X0172744Y0055756D01*
X0172627Y0055856D01*
X0172513Y0055960D01*
X0172401Y0056066D01*
X0172293Y0056175D01*
X0172187Y0056287D01*
X0172084Y0056402D01*
X0171984Y0056519D01*
X0171886Y0056639D01*
X0171793Y0056761D01*
X0171702Y0056885D01*
X0171614Y0057012D01*
X0171530Y0057141D01*
X0171449Y0057273D01*
X0171372Y0057406D01*
X0171298Y0057541D01*
X0171227Y0057678D01*
X0171160Y0057817D01*
X0171097Y0057957D01*
X0171037Y0058100D01*
X0170981Y0058243D01*
X0170929Y0058388D01*
X0170880Y0058534D01*
X0170835Y0058682D01*
X0170794Y0058830D01*
X0170757Y0058980D01*
X0170723Y0059130D01*
X0170694Y0059282D01*
X0170668Y0059434D01*
X0170646Y0059586D01*
X0170629Y0059739D01*
X0170615Y0059893D01*
X0170605Y0060047D01*
X0170599Y0060201D01*
X0170597Y0060355D01*
D13*
X0180566Y0067301D02*
X0180735Y0067202D01*
X0180901Y0067098D01*
X0181065Y0066991D01*
X0181226Y0066880D01*
X0181384Y0066765D01*
X0181539Y0066646D01*
X0181692Y0066523D01*
X0181841Y0066397D01*
X0181987Y0066267D01*
X0182130Y0066133D01*
X0182270Y0065996D01*
X0182406Y0065856D01*
X0182539Y0065712D01*
X0182668Y0065565D01*
X0182794Y0065415D01*
X0182915Y0065262D01*
X0183034Y0065106D01*
X0183148Y0064947D01*
X0183258Y0064786D01*
X0183364Y0064621D01*
X0183467Y0064455D01*
X0183565Y0064285D01*
X0183659Y0064114D01*
X0183749Y0063940D01*
X0183834Y0063764D01*
X0183916Y0063586D01*
X0183992Y0063406D01*
X0184065Y0063224D01*
X0184133Y0063041D01*
X0184196Y0062856D01*
X0184255Y0062669D01*
X0184309Y0062481D01*
X0184359Y0062292D01*
X0184404Y0062102D01*
X0184444Y0061910D01*
X0184480Y0061718D01*
X0184511Y0061525D01*
X0184537Y0061331D01*
X0184559Y0061136D01*
X0184575Y0060941D01*
X0184587Y0060746D01*
X0184595Y0060550D01*
X0184597Y0060355D01*
X0172832Y0067414D02*
X0172664Y0067321D01*
X0172498Y0067225D01*
X0172334Y0067125D01*
X0172173Y0067020D01*
X0172014Y0066912D01*
X0171858Y0066800D01*
X0171704Y0066684D01*
X0171554Y0066565D01*
X0171406Y0066442D01*
X0171261Y0066316D01*
X0171120Y0066186D01*
X0170981Y0066053D01*
X0170846Y0065916D01*
X0170714Y0065776D01*
X0170586Y0065634D01*
X0170461Y0065488D01*
X0170339Y0065339D01*
X0170221Y0065187D01*
X0170107Y0065033D01*
X0169997Y0064875D01*
X0169890Y0064716D01*
X0169787Y0064553D01*
X0169688Y0064388D01*
X0169593Y0064221D01*
X0169503Y0064052D01*
X0169416Y0063881D01*
X0169333Y0063707D01*
X0169255Y0063532D01*
X0169181Y0063354D01*
X0169111Y0063175D01*
X0169045Y0062995D01*
X0168984Y0062813D01*
X0168927Y0062629D01*
X0168875Y0062444D01*
X0168827Y0062258D01*
X0168783Y0062071D01*
X0168744Y0061883D01*
X0168710Y0061694D01*
X0168680Y0061504D01*
X0168655Y0061314D01*
X0168634Y0061123D01*
X0168618Y0060931D01*
X0168606Y0060739D01*
X0168599Y0060547D01*
X0168597Y0060355D01*
X0181765Y0054248D02*
X0181911Y0054375D01*
X0182053Y0054504D01*
X0182193Y0054638D01*
X0182329Y0054774D01*
X0182462Y0054914D01*
X0182592Y0055057D01*
X0182718Y0055204D01*
X0182840Y0055353D01*
X0182959Y0055505D01*
X0183074Y0055660D01*
X0183186Y0055817D01*
X0183293Y0055977D01*
X0183397Y0056140D01*
X0183496Y0056306D01*
X0183592Y0056473D01*
X0183684Y0056643D01*
X0183771Y0056815D01*
X0183855Y0056989D01*
X0183934Y0057165D01*
X0184008Y0057343D01*
X0184079Y0057523D01*
X0184145Y0057704D01*
X0184207Y0057887D01*
X0184264Y0058071D01*
X0184317Y0058257D01*
X0184365Y0058444D01*
X0184409Y0058632D01*
X0184448Y0058821D01*
X0184483Y0059011D01*
X0184513Y0059201D01*
X0184539Y0059392D01*
X0184560Y0059584D01*
X0184576Y0059777D01*
X0184588Y0059969D01*
X0184595Y0060162D01*
X0184597Y0060355D01*
X0171475Y0054209D02*
X0171327Y0054336D01*
X0171182Y0054466D01*
X0171041Y0054599D01*
X0170902Y0054736D01*
X0170767Y0054876D01*
X0170636Y0055020D01*
X0170508Y0055167D01*
X0170383Y0055316D01*
X0170262Y0055469D01*
X0170145Y0055624D01*
X0170032Y0055783D01*
X0169923Y0055944D01*
X0169818Y0056108D01*
X0169716Y0056274D01*
X0169619Y0056443D01*
X0169526Y0056613D01*
X0169437Y0056787D01*
X0169352Y0056962D01*
X0169272Y0057139D01*
X0169196Y0057318D01*
X0169124Y0057499D01*
X0169057Y0057682D01*
X0168994Y0057866D01*
X0168936Y0058052D01*
X0168882Y0058239D01*
X0168833Y0058427D01*
X0168788Y0058617D01*
X0168748Y0058807D01*
X0168713Y0058999D01*
X0168682Y0059191D01*
X0168656Y0059384D01*
X0168635Y0059578D01*
X0168618Y0059772D01*
X0168606Y0059966D01*
X0168599Y0060160D01*
X0168597Y0060355D01*
X0164912Y0059962D02*
X0164910Y0060157D01*
X0164902Y0060353D01*
X0164890Y0060548D01*
X0164874Y0060743D01*
X0164852Y0060938D01*
X0164826Y0061132D01*
X0164795Y0061325D01*
X0164759Y0061517D01*
X0164719Y0061709D01*
X0164674Y0061899D01*
X0164624Y0062088D01*
X0164570Y0062276D01*
X0164511Y0062463D01*
X0164448Y0062648D01*
X0164380Y0062831D01*
X0164307Y0063013D01*
X0164231Y0063193D01*
X0164149Y0063371D01*
X0164064Y0063547D01*
X0163974Y0063721D01*
X0163880Y0063892D01*
X0163782Y0064062D01*
X0163679Y0064228D01*
X0163573Y0064393D01*
X0163463Y0064554D01*
X0163349Y0064713D01*
X0163230Y0064869D01*
X0163109Y0065022D01*
X0162983Y0065172D01*
X0162854Y0065319D01*
X0162721Y0065463D01*
X0162585Y0065603D01*
X0162445Y0065740D01*
X0162302Y0065874D01*
X0162156Y0066004D01*
X0162007Y0066130D01*
X0161854Y0066253D01*
X0161699Y0066372D01*
X0161541Y0066487D01*
X0161380Y0066598D01*
X0161216Y0066705D01*
X0161050Y0066809D01*
X0160881Y0066908D01*
X0148912Y0059961D02*
X0148914Y0059766D01*
X0148921Y0059572D01*
X0148933Y0059378D01*
X0148950Y0059184D01*
X0148971Y0058990D01*
X0148997Y0058797D01*
X0149028Y0058605D01*
X0149063Y0058413D01*
X0149103Y0058223D01*
X0149148Y0058033D01*
X0149197Y0057845D01*
X0149251Y0057658D01*
X0149309Y0057472D01*
X0149372Y0057288D01*
X0149439Y0057105D01*
X0149511Y0056924D01*
X0149587Y0056745D01*
X0149667Y0056568D01*
X0149752Y0056393D01*
X0149841Y0056219D01*
X0149934Y0056049D01*
X0150031Y0055880D01*
X0150133Y0055714D01*
X0150238Y0055550D01*
X0150347Y0055389D01*
X0150460Y0055230D01*
X0150577Y0055075D01*
X0150698Y0054922D01*
X0150823Y0054773D01*
X0150951Y0054626D01*
X0151082Y0054482D01*
X0151217Y0054342D01*
X0151356Y0054205D01*
X0151497Y0054072D01*
X0151642Y0053942D01*
X0151790Y0053815D01*
X0148912Y0059961D02*
X0148914Y0060153D01*
X0148921Y0060345D01*
X0148933Y0060537D01*
X0148949Y0060729D01*
X0148970Y0060920D01*
X0148995Y0061110D01*
X0149025Y0061300D01*
X0149059Y0061489D01*
X0149098Y0061677D01*
X0149142Y0061864D01*
X0149190Y0062050D01*
X0149242Y0062235D01*
X0149299Y0062419D01*
X0149360Y0062601D01*
X0149426Y0062781D01*
X0149496Y0062960D01*
X0149570Y0063138D01*
X0149648Y0063313D01*
X0149731Y0063487D01*
X0149818Y0063658D01*
X0149908Y0063827D01*
X0150003Y0063994D01*
X0150102Y0064159D01*
X0150205Y0064322D01*
X0150312Y0064481D01*
X0150422Y0064639D01*
X0150536Y0064793D01*
X0150654Y0064945D01*
X0150776Y0065094D01*
X0150901Y0065240D01*
X0151029Y0065382D01*
X0151161Y0065522D01*
X0151296Y0065659D01*
X0151435Y0065792D01*
X0151576Y0065922D01*
X0151721Y0066048D01*
X0151869Y0066171D01*
X0152019Y0066290D01*
X0152173Y0066406D01*
X0152329Y0066518D01*
X0152488Y0066626D01*
X0152649Y0066731D01*
X0152813Y0066831D01*
X0152979Y0066927D01*
X0153147Y0067020D01*
X0164912Y0059961D02*
X0164910Y0059768D01*
X0164903Y0059575D01*
X0164891Y0059383D01*
X0164875Y0059190D01*
X0164854Y0058998D01*
X0164828Y0058807D01*
X0164798Y0058617D01*
X0164763Y0058427D01*
X0164724Y0058238D01*
X0164680Y0058050D01*
X0164632Y0057863D01*
X0164579Y0057677D01*
X0164522Y0057493D01*
X0164460Y0057310D01*
X0164394Y0057129D01*
X0164323Y0056949D01*
X0164249Y0056771D01*
X0164170Y0056595D01*
X0164086Y0056421D01*
X0163999Y0056249D01*
X0163907Y0056079D01*
X0163811Y0055912D01*
X0163712Y0055746D01*
X0163608Y0055583D01*
X0163501Y0055423D01*
X0163389Y0055266D01*
X0163274Y0055111D01*
X0163155Y0054959D01*
X0163033Y0054810D01*
X0162907Y0054663D01*
X0162777Y0054520D01*
X0162644Y0054380D01*
X0162508Y0054244D01*
X0162368Y0054110D01*
X0162226Y0053981D01*
X0162080Y0053854D01*
D14*
X0002384Y0050513D02*
X0002384Y0070198D01*
D15*
X0020494Y0075316D03*
X0027778Y0045591D03*
D16*
X0071676Y0057402D03*
X0057306Y0075316D03*
D17*
X0055185Y0065208D02*
X0055185Y0062305D01*
X0056152Y0062305D02*
X0054217Y0062305D01*
X0053206Y0062305D02*
X0051271Y0065208D01*
X0050259Y0064724D02*
X0050259Y0064240D01*
X0049776Y0063756D01*
X0048808Y0063756D01*
X0048324Y0063273D01*
X0048324Y0062789D01*
X0048808Y0062305D01*
X0049776Y0062305D01*
X0050259Y0062789D01*
X0050259Y0063273D01*
X0049776Y0063756D01*
X0048808Y0063756D02*
X0048324Y0064240D01*
X0048324Y0064724D01*
X0048808Y0065208D01*
X0049776Y0065208D01*
X0050259Y0064724D01*
X0047313Y0064240D02*
X0046829Y0064724D01*
X0046829Y0065691D01*
X0045862Y0065691D02*
X0045862Y0064724D01*
X0046345Y0064240D01*
X0044857Y0063756D02*
X0042922Y0063756D01*
X0041911Y0062789D02*
X0041427Y0062305D01*
X0040460Y0062305D01*
X0039976Y0062789D01*
X0039976Y0063273D01*
X0040460Y0063756D01*
X0040943Y0063756D01*
X0040460Y0063756D02*
X0039976Y0064240D01*
X0039976Y0064724D01*
X0040460Y0065208D01*
X0041427Y0065208D01*
X0041911Y0064724D01*
X0038964Y0062789D02*
X0038481Y0062789D01*
X0038481Y0062305D01*
X0038964Y0062305D01*
X0038964Y0062789D01*
X0037491Y0062789D02*
X0037007Y0062305D01*
X0036040Y0062305D01*
X0035556Y0062789D01*
X0035556Y0063756D01*
X0036040Y0064240D01*
X0036524Y0064240D01*
X0037491Y0063756D01*
X0037491Y0065208D01*
X0035556Y0065208D01*
X0034545Y0065208D02*
X0033577Y0064240D01*
X0032610Y0065208D01*
X0032610Y0062305D01*
X0031598Y0062305D02*
X0031598Y0065208D01*
X0030631Y0064240D01*
X0029663Y0065208D01*
X0029663Y0062305D01*
X0034545Y0062305D02*
X0034545Y0065208D01*
X0055185Y0065208D02*
X0056152Y0064240D01*
X0057164Y0063756D02*
X0059099Y0063756D01*
X0060110Y0063273D02*
X0060110Y0062789D01*
X0060594Y0062305D01*
X0061562Y0062305D01*
X0062045Y0062789D01*
X0061562Y0063756D02*
X0060594Y0063756D01*
X0060110Y0063273D01*
X0060110Y0064724D02*
X0060594Y0065208D01*
X0061562Y0065208D01*
X0062045Y0064724D01*
X0062045Y0064240D01*
X0061562Y0063756D01*
X0063057Y0063756D02*
X0063057Y0064724D01*
X0063541Y0065208D01*
X0064992Y0065208D01*
X0064992Y0062305D01*
X0064992Y0063273D02*
X0063541Y0063273D01*
X0063057Y0063756D01*
X0064024Y0063273D02*
X0063057Y0062305D01*
X0066971Y0062305D02*
X0066971Y0065208D01*
X0067938Y0065208D02*
X0066004Y0065208D01*
D18*
X0053959Y0101497D02*
X0087424Y0101497D01*
X0087424Y0115276D01*
X0053959Y0115276D01*
X0053959Y0101497D01*
X0063998Y0105434D02*
X0063998Y0111339D01*
X0069904Y0111339D01*
X0071872Y0111339D01*
X0071872Y0105434D01*
X0063998Y0105434D01*
X0069904Y0105434D02*
X0069904Y0111339D01*
X0071872Y0111339D02*
X0077778Y0111339D01*
X0077778Y0105434D01*
X0071872Y0105434D01*
M02*
