G75*
%MOIN*%
%OFA0B0*%
%FSLAX25Y25*%
%IPPOS*%
%LPD*%
%AMOC8*
5,1,8,0,0,1.08239X$1,22.5*
%
%ADD10C,0.00400*%
%ADD11C,0.00800*%
%ADD12C,0.00600*%
%ADD13C,0.01000*%
%ADD14C,0.02559*%
%ADD15C,0.01200*%
%ADD16C,0.00787*%
D10*
X0043490Y0026106D02*
X0044224Y0026106D01*
X0043857Y0026106D02*
X0043857Y0028307D01*
X0043490Y0028307D02*
X0044224Y0028307D01*
X0045086Y0027940D02*
X0045086Y0026472D01*
X0045453Y0026106D01*
X0046187Y0026106D01*
X0046554Y0026472D01*
X0047480Y0026472D02*
X0047480Y0027206D01*
X0048581Y0027206D01*
X0048948Y0026839D01*
X0048948Y0026472D01*
X0048581Y0026106D01*
X0047847Y0026106D01*
X0047480Y0026472D01*
X0047480Y0027206D02*
X0048214Y0027940D01*
X0048948Y0028307D01*
X0046554Y0027940D02*
X0046187Y0028307D01*
X0045453Y0028307D01*
X0045086Y0027940D01*
X0048492Y0023273D02*
X0049593Y0022172D01*
X0049593Y0023640D01*
X0050694Y0023273D02*
X0048492Y0023273D01*
X0048859Y0021246D02*
X0049226Y0021246D01*
X0049593Y0020879D01*
X0049960Y0021246D01*
X0050327Y0021246D01*
X0050694Y0020879D01*
X0050694Y0020145D01*
X0050327Y0019778D01*
X0050694Y0018852D02*
X0050694Y0017384D01*
X0050694Y0018118D02*
X0048492Y0018118D01*
X0049226Y0017384D01*
X0049226Y0016458D02*
X0048859Y0016458D01*
X0048492Y0016091D01*
X0048492Y0015357D01*
X0048859Y0014990D01*
X0049226Y0014064D02*
X0048492Y0013330D01*
X0049226Y0012596D01*
X0050694Y0012596D01*
X0049593Y0012596D02*
X0049593Y0014064D01*
X0049226Y0014064D02*
X0050694Y0014064D01*
X0050694Y0014990D02*
X0049226Y0016458D01*
X0050694Y0016458D02*
X0050694Y0014990D01*
X0049593Y0011670D02*
X0048859Y0011670D01*
X0048492Y0011303D01*
X0048492Y0010202D01*
X0050694Y0010202D01*
X0049960Y0010202D02*
X0049960Y0011303D01*
X0049593Y0011670D01*
X0050327Y0009276D02*
X0048859Y0009276D01*
X0048492Y0008909D01*
X0048492Y0008175D01*
X0048859Y0007808D01*
X0050327Y0007808D01*
X0050694Y0008175D01*
X0050694Y0008909D01*
X0050327Y0009276D01*
X0048859Y0019778D02*
X0048492Y0020145D01*
X0048492Y0020879D01*
X0048859Y0021246D01*
X0049593Y0020879D02*
X0049593Y0020512D01*
X0052175Y0029098D02*
X0053643Y0029098D01*
X0052909Y0029098D02*
X0052909Y0031300D01*
X0052175Y0030566D01*
X0054569Y0030933D02*
X0054936Y0031300D01*
X0055670Y0031300D01*
X0056037Y0030933D01*
X0054569Y0029465D01*
X0054936Y0029098D01*
X0055670Y0029098D01*
X0056037Y0029465D01*
X0056037Y0030933D01*
X0056963Y0030566D02*
X0056963Y0029465D01*
X0057330Y0029098D01*
X0058431Y0029098D01*
X0058431Y0030566D01*
X0059357Y0030199D02*
X0060091Y0030199D01*
X0059357Y0031300D02*
X0060825Y0031300D01*
X0059357Y0031300D02*
X0059357Y0029098D01*
X0054569Y0029465D02*
X0054569Y0030933D01*
X0054983Y0037735D02*
X0055717Y0037735D01*
X0056084Y0038102D01*
X0057010Y0037735D02*
X0058478Y0037735D01*
X0057744Y0037735D02*
X0057744Y0039937D01*
X0057010Y0039203D01*
X0056084Y0039570D02*
X0055717Y0039937D01*
X0054983Y0039937D01*
X0054616Y0039570D01*
X0054616Y0038102D01*
X0054983Y0037735D01*
X0059404Y0038836D02*
X0060872Y0038836D01*
X0060581Y0039145D02*
X0060214Y0039512D01*
X0060505Y0039937D02*
X0060505Y0037735D01*
X0060581Y0039145D02*
X0061315Y0039145D01*
X0061682Y0039512D01*
X0061682Y0039879D01*
X0061315Y0040246D01*
X0060581Y0040246D01*
X0060214Y0040613D01*
X0060214Y0040980D01*
X0060581Y0041347D01*
X0061315Y0041347D01*
X0061682Y0040980D01*
X0062608Y0040980D02*
X0062608Y0039512D01*
X0062975Y0039145D01*
X0063709Y0039145D01*
X0064076Y0039512D01*
X0065002Y0040246D02*
X0066470Y0040246D01*
X0067396Y0040246D02*
X0068130Y0040613D01*
X0068497Y0040613D01*
X0068864Y0040246D01*
X0068864Y0039512D01*
X0068497Y0039145D01*
X0067763Y0039145D01*
X0067396Y0039512D01*
X0067396Y0040246D02*
X0067396Y0041347D01*
X0068864Y0041347D01*
X0069790Y0040980D02*
X0070157Y0041347D01*
X0070891Y0041347D01*
X0071258Y0040980D01*
X0069790Y0039512D01*
X0070157Y0039145D01*
X0070891Y0039145D01*
X0071258Y0039512D01*
X0071258Y0040980D01*
X0072184Y0040980D02*
X0072551Y0041347D01*
X0073285Y0041347D01*
X0073652Y0040980D01*
X0073652Y0040613D01*
X0073285Y0040246D01*
X0073652Y0039879D01*
X0073652Y0039512D01*
X0073285Y0039145D01*
X0072551Y0039145D01*
X0072184Y0039512D01*
X0072918Y0040246D02*
X0073285Y0040246D01*
X0069790Y0039512D02*
X0069790Y0040980D01*
X0066103Y0041347D02*
X0066103Y0039145D01*
X0065002Y0040246D02*
X0066103Y0041347D01*
X0064076Y0040980D02*
X0063709Y0041347D01*
X0062975Y0041347D01*
X0062608Y0040980D01*
X0060505Y0039937D02*
X0059404Y0038836D01*
X0069330Y0031015D02*
X0069330Y0029547D01*
X0069330Y0030281D02*
X0067128Y0030281D01*
X0067862Y0029547D01*
X0067495Y0028621D02*
X0067128Y0028254D01*
X0067128Y0027153D01*
X0069330Y0027153D01*
X0069330Y0028254D01*
X0068963Y0028621D01*
X0067495Y0028621D01*
X0087640Y0028357D02*
X0087640Y0027256D01*
X0089842Y0027256D01*
X0089842Y0028357D01*
X0089475Y0028724D01*
X0089108Y0028724D01*
X0088741Y0028357D01*
X0088741Y0027256D01*
X0088741Y0028357D02*
X0088374Y0028724D01*
X0088007Y0028724D01*
X0087640Y0028357D01*
X0088007Y0029650D02*
X0087640Y0030017D01*
X0087640Y0030751D01*
X0088007Y0031118D01*
X0089475Y0031118D01*
X0089842Y0030751D01*
X0089842Y0030017D01*
X0089475Y0029650D01*
X0088007Y0029650D01*
X0089108Y0030384D02*
X0089842Y0031118D01*
X0089475Y0032044D02*
X0088007Y0033512D01*
X0089475Y0033512D01*
X0089842Y0033145D01*
X0089842Y0032411D01*
X0089475Y0032044D01*
X0088007Y0032044D01*
X0087640Y0032411D01*
X0087640Y0033145D01*
X0088007Y0033512D01*
X0088374Y0034438D02*
X0087640Y0035172D01*
X0089842Y0035172D01*
X0089842Y0034438D02*
X0089842Y0035906D01*
X0089475Y0036832D02*
X0089842Y0037199D01*
X0089842Y0037933D01*
X0089475Y0038300D01*
X0088741Y0038300D01*
X0088374Y0037933D01*
X0088374Y0037566D01*
X0088741Y0036832D01*
X0087640Y0036832D01*
X0087640Y0038300D01*
X0095041Y0038978D02*
X0095041Y0036776D01*
X0095041Y0037510D02*
X0096141Y0037510D01*
X0096508Y0037877D01*
X0096508Y0038611D01*
X0096141Y0038978D01*
X0095041Y0038978D01*
X0095775Y0037510D02*
X0096508Y0036776D01*
X0097435Y0036776D02*
X0098903Y0036776D01*
X0098169Y0036776D02*
X0098169Y0038978D01*
X0097435Y0038244D01*
X0099829Y0038611D02*
X0100196Y0038978D01*
X0100930Y0038978D01*
X0101297Y0038611D01*
X0101297Y0038244D01*
X0100930Y0037877D01*
X0101297Y0037510D01*
X0101297Y0037143D01*
X0100930Y0036776D01*
X0100196Y0036776D01*
X0099829Y0037143D01*
X0100563Y0037877D02*
X0100930Y0037877D01*
X0110517Y0038401D02*
X0110517Y0036933D01*
X0110884Y0036566D01*
X0111618Y0036566D01*
X0111985Y0036933D01*
X0112911Y0037667D02*
X0114379Y0037667D01*
X0114012Y0036566D02*
X0114012Y0038768D01*
X0112911Y0037667D01*
X0111985Y0038401D02*
X0111618Y0038768D01*
X0110884Y0038768D01*
X0110517Y0038401D01*
X0110625Y0044569D02*
X0110258Y0044935D01*
X0110258Y0046403D01*
X0110625Y0046770D01*
X0111359Y0046770D01*
X0111726Y0046403D01*
X0111726Y0044935D01*
X0111359Y0044569D01*
X0110625Y0044569D01*
X0110992Y0045302D02*
X0111726Y0044569D01*
X0112652Y0044569D02*
X0114120Y0046036D01*
X0114120Y0046403D01*
X0113753Y0046770D01*
X0113019Y0046770D01*
X0112652Y0046403D01*
X0112652Y0044569D02*
X0114120Y0044569D01*
X0115046Y0044935D02*
X0115413Y0044569D01*
X0116147Y0044569D01*
X0116514Y0044935D01*
X0116514Y0046403D01*
X0116147Y0046770D01*
X0115413Y0046770D01*
X0115046Y0046403D01*
X0115046Y0046036D01*
X0115413Y0045669D01*
X0116514Y0045669D01*
X0117440Y0044935D02*
X0117440Y0044569D01*
X0117440Y0044935D02*
X0118908Y0046403D01*
X0118908Y0046770D01*
X0117440Y0046770D01*
X0119834Y0046770D02*
X0121302Y0044569D01*
X0119834Y0044569D02*
X0121302Y0046770D01*
X0124075Y0047380D02*
X0124442Y0047747D01*
X0125176Y0047747D01*
X0125543Y0047380D01*
X0125543Y0047013D01*
X0125176Y0046646D01*
X0125543Y0046279D01*
X0125543Y0045912D01*
X0125176Y0045545D01*
X0124442Y0045545D01*
X0124075Y0045912D01*
X0124809Y0046646D02*
X0125176Y0046646D01*
X0126469Y0047380D02*
X0126836Y0047747D01*
X0127570Y0047747D01*
X0127937Y0047380D01*
X0127937Y0047013D01*
X0127570Y0046646D01*
X0127937Y0046279D01*
X0127937Y0045912D01*
X0127570Y0045545D01*
X0126836Y0045545D01*
X0126469Y0045912D01*
X0127203Y0046646D02*
X0127570Y0046646D01*
X0128863Y0045912D02*
X0128863Y0047380D01*
X0129230Y0047747D01*
X0129964Y0047747D01*
X0130331Y0047380D01*
X0128863Y0045912D01*
X0129230Y0045545D01*
X0129964Y0045545D01*
X0130331Y0045912D01*
X0130331Y0047380D01*
X0130008Y0054946D02*
X0129274Y0054946D01*
X0128907Y0055313D01*
X0128907Y0056047D02*
X0129641Y0056414D01*
X0130008Y0056414D01*
X0130375Y0056047D01*
X0130375Y0055313D01*
X0130008Y0054946D01*
X0128907Y0056047D02*
X0128907Y0057148D01*
X0130375Y0057148D01*
X0127981Y0056781D02*
X0127981Y0056047D01*
X0127614Y0055680D01*
X0126513Y0055680D01*
X0126513Y0054946D02*
X0126513Y0057148D01*
X0127614Y0057148D01*
X0127981Y0056781D01*
X0127247Y0055680D02*
X0127981Y0054946D01*
X0117495Y0056622D02*
X0117128Y0056255D01*
X0116394Y0056255D01*
X0116027Y0056622D01*
X0115101Y0056622D02*
X0114734Y0056255D01*
X0114000Y0056255D01*
X0113633Y0056622D01*
X0113633Y0058090D01*
X0114000Y0058457D01*
X0114734Y0058457D01*
X0115101Y0058090D01*
X0116027Y0058090D02*
X0116394Y0058457D01*
X0117128Y0058457D01*
X0117495Y0058090D01*
X0117495Y0057723D01*
X0117128Y0057356D01*
X0117495Y0056989D01*
X0117495Y0056622D01*
X0117128Y0057356D02*
X0116761Y0057356D01*
X0112771Y0056255D02*
X0112037Y0056255D01*
X0112404Y0056255D02*
X0112404Y0058457D01*
X0112037Y0058457D02*
X0112771Y0058457D01*
X0110690Y0063035D02*
X0109589Y0063769D01*
X0110690Y0064503D01*
X0109589Y0065237D02*
X0109589Y0063035D01*
X0108663Y0063402D02*
X0108663Y0064870D01*
X0107195Y0063402D01*
X0107562Y0063035D01*
X0108296Y0063035D01*
X0108663Y0063402D01*
X0108663Y0064870D02*
X0108296Y0065237D01*
X0107562Y0065237D01*
X0107195Y0064870D01*
X0107195Y0063402D01*
X0106269Y0063035D02*
X0104801Y0063035D01*
X0105535Y0063035D02*
X0105535Y0065237D01*
X0104801Y0064503D01*
X0105541Y0072094D02*
X0105541Y0074296D01*
X0106642Y0074296D01*
X0107009Y0073929D01*
X0107009Y0073195D01*
X0106642Y0072828D01*
X0105541Y0072828D01*
X0106275Y0072828D02*
X0107009Y0072094D01*
X0107935Y0073195D02*
X0109403Y0073195D01*
X0109036Y0072094D02*
X0109036Y0074296D01*
X0107935Y0073195D01*
X0119362Y0079182D02*
X0119362Y0080283D01*
X0119729Y0080650D01*
X0120096Y0080650D01*
X0120463Y0080283D01*
X0120463Y0079182D01*
X0121564Y0079182D02*
X0121564Y0080283D01*
X0121197Y0080650D01*
X0120830Y0080650D01*
X0120463Y0080283D01*
X0121197Y0081576D02*
X0121564Y0081943D01*
X0121564Y0082677D01*
X0121197Y0083044D01*
X0119729Y0083044D01*
X0119362Y0082677D01*
X0119362Y0081943D01*
X0119729Y0081576D01*
X0121197Y0081576D01*
X0120830Y0082310D02*
X0121564Y0083044D01*
X0121564Y0083970D02*
X0120096Y0085438D01*
X0119729Y0085438D01*
X0119362Y0085071D01*
X0119362Y0084337D01*
X0119729Y0083970D01*
X0121564Y0083970D02*
X0121564Y0085438D01*
X0121564Y0086364D02*
X0121564Y0087832D01*
X0121564Y0087098D02*
X0119362Y0087098D01*
X0120096Y0086364D01*
X0119729Y0088758D02*
X0119362Y0089125D01*
X0119362Y0089859D01*
X0119729Y0090226D01*
X0121197Y0088758D01*
X0121564Y0089125D01*
X0121564Y0089859D01*
X0121197Y0090226D01*
X0119729Y0090226D01*
X0120463Y0091152D02*
X0120463Y0092620D01*
X0121564Y0092253D02*
X0119362Y0092253D01*
X0120463Y0091152D01*
X0121197Y0088758D02*
X0119729Y0088758D01*
X0119729Y0093546D02*
X0119362Y0093913D01*
X0119362Y0094647D01*
X0119729Y0095014D01*
X0121197Y0093546D01*
X0121564Y0093913D01*
X0121564Y0094647D01*
X0121197Y0095014D01*
X0119729Y0095014D01*
X0119729Y0093546D02*
X0121197Y0093546D01*
X0104969Y0089187D02*
X0104969Y0087719D01*
X0103501Y0089187D01*
X0103134Y0089187D01*
X0102767Y0088820D01*
X0102767Y0088086D01*
X0103134Y0087719D01*
X0103134Y0086793D02*
X0102767Y0086426D01*
X0102767Y0085692D01*
X0103134Y0085325D01*
X0104602Y0085325D01*
X0104969Y0085692D01*
X0104969Y0086426D01*
X0104602Y0086793D01*
X0104969Y0084463D02*
X0104969Y0083729D01*
X0104969Y0084096D02*
X0102767Y0084096D01*
X0102767Y0083729D02*
X0102767Y0084463D01*
X0119362Y0079182D02*
X0121564Y0079182D01*
X0124395Y0074577D02*
X0125496Y0074577D01*
X0125862Y0074210D01*
X0125862Y0073477D01*
X0125496Y0073110D01*
X0124395Y0073110D01*
X0125129Y0073110D02*
X0125862Y0072376D01*
X0126789Y0072376D02*
X0128257Y0073844D01*
X0128257Y0074210D01*
X0127890Y0074577D01*
X0127156Y0074577D01*
X0126789Y0074210D01*
X0126789Y0072376D02*
X0128257Y0072376D01*
X0124395Y0072376D02*
X0124395Y0074577D01*
X0124767Y0065975D02*
X0125501Y0065975D01*
X0125868Y0065608D01*
X0124400Y0064140D01*
X0124767Y0063773D01*
X0125501Y0063773D01*
X0125868Y0064140D01*
X0125868Y0065608D01*
X0126794Y0065975D02*
X0126794Y0063773D01*
X0126794Y0064507D02*
X0127895Y0063773D01*
X0126794Y0064507D02*
X0127895Y0065241D01*
X0124767Y0065975D02*
X0124400Y0065608D01*
X0124400Y0064140D01*
X0123474Y0063773D02*
X0122006Y0063773D01*
X0122740Y0063773D02*
X0122740Y0065975D01*
X0122006Y0065241D01*
X0144848Y0076606D02*
X0146316Y0076606D01*
X0145582Y0076606D02*
X0145582Y0078807D01*
X0144848Y0078073D01*
X0147242Y0078440D02*
X0147242Y0076972D01*
X0148710Y0078440D01*
X0148710Y0076972D01*
X0148343Y0076606D01*
X0147609Y0076606D01*
X0147242Y0076972D01*
X0147242Y0078440D02*
X0147609Y0078807D01*
X0148343Y0078807D01*
X0148710Y0078440D01*
X0149636Y0078073D02*
X0149636Y0076606D01*
X0149636Y0078073D02*
X0150737Y0078073D01*
X0151104Y0077706D01*
X0151104Y0076606D01*
X0152030Y0076606D02*
X0152030Y0078807D01*
X0153498Y0078807D01*
X0152764Y0077706D02*
X0152030Y0077706D01*
X0158628Y0077877D02*
X0159362Y0078611D01*
X0159362Y0076409D01*
X0160095Y0076409D02*
X0158628Y0076409D01*
X0161022Y0076776D02*
X0161022Y0078244D01*
X0161389Y0078611D01*
X0162123Y0078611D01*
X0162490Y0078244D01*
X0161022Y0076776D01*
X0161389Y0076409D01*
X0162123Y0076409D01*
X0162490Y0076776D01*
X0162490Y0078244D01*
X0163416Y0077877D02*
X0163416Y0076776D01*
X0163783Y0076409D01*
X0164884Y0076409D01*
X0164884Y0077877D01*
X0165810Y0077510D02*
X0166544Y0077510D01*
X0165810Y0078611D02*
X0167278Y0078611D01*
X0165810Y0078611D02*
X0165810Y0076409D01*
X0158785Y0072212D02*
X0158419Y0072579D01*
X0157685Y0072579D01*
X0157318Y0072212D01*
X0156391Y0072212D02*
X0156024Y0072579D01*
X0154924Y0072579D01*
X0154924Y0070377D01*
X0156024Y0070377D01*
X0156391Y0070744D01*
X0156391Y0072212D01*
X0157318Y0070377D02*
X0158785Y0071845D01*
X0158785Y0072212D01*
X0158785Y0070377D02*
X0157318Y0070377D01*
X0153997Y0070377D02*
X0152529Y0070377D01*
X0152529Y0072579D01*
X0153997Y0072579D01*
X0153263Y0071478D02*
X0152529Y0071478D01*
X0151603Y0070377D02*
X0150135Y0070377D01*
X0150135Y0072579D01*
X0150115Y0084834D02*
X0149381Y0084834D01*
X0149014Y0085201D01*
X0149014Y0085568D01*
X0149381Y0085935D01*
X0150115Y0085935D01*
X0150482Y0085568D01*
X0150482Y0085201D01*
X0150115Y0084834D01*
X0150115Y0085935D02*
X0150482Y0086302D01*
X0150482Y0086669D01*
X0150115Y0087036D01*
X0149381Y0087036D01*
X0149014Y0086669D01*
X0149014Y0086302D01*
X0149381Y0085935D01*
X0148088Y0086669D02*
X0147721Y0087036D01*
X0146987Y0087036D01*
X0146620Y0086669D01*
X0146620Y0085201D01*
X0146987Y0084834D01*
X0147721Y0084834D01*
X0148088Y0085201D01*
X0160202Y0085201D02*
X0160569Y0084834D01*
X0161303Y0084834D01*
X0161670Y0085201D01*
X0162596Y0085201D02*
X0162596Y0084834D01*
X0162596Y0085201D02*
X0164064Y0086669D01*
X0164064Y0087036D01*
X0162596Y0087036D01*
X0161670Y0086669D02*
X0161303Y0087036D01*
X0160569Y0087036D01*
X0160202Y0086669D01*
X0160202Y0085201D01*
X0173864Y0078480D02*
X0174231Y0078847D01*
X0174965Y0078847D01*
X0175332Y0078480D01*
X0173864Y0077012D01*
X0174231Y0076645D01*
X0174965Y0076645D01*
X0175332Y0077012D01*
X0175332Y0078480D01*
X0173864Y0078480D02*
X0173864Y0077012D01*
X0176258Y0077012D02*
X0176625Y0077012D01*
X0176625Y0076645D01*
X0176258Y0076645D01*
X0176258Y0077012D01*
X0177455Y0076645D02*
X0178923Y0076645D01*
X0178189Y0076645D02*
X0178189Y0078847D01*
X0177455Y0078113D01*
X0179849Y0078113D02*
X0179849Y0077012D01*
X0180216Y0076645D01*
X0181317Y0076645D01*
X0181317Y0078113D01*
X0182243Y0077746D02*
X0182977Y0077746D01*
X0182243Y0078847D02*
X0183711Y0078847D01*
X0182243Y0078847D02*
X0182243Y0076645D01*
X0179852Y0084676D02*
X0178384Y0084676D01*
X0179852Y0086144D01*
X0179852Y0086511D01*
X0179485Y0086878D01*
X0178751Y0086878D01*
X0178384Y0086511D01*
X0177458Y0086511D02*
X0177091Y0086878D01*
X0176357Y0086878D01*
X0175990Y0086511D01*
X0175990Y0085043D01*
X0176357Y0084676D01*
X0177091Y0084676D01*
X0177458Y0085043D01*
X0179194Y0090117D02*
X0180662Y0090117D01*
X0179928Y0090117D02*
X0179928Y0092319D01*
X0179194Y0091585D01*
X0181589Y0091952D02*
X0181589Y0090484D01*
X0183056Y0091952D01*
X0183056Y0090484D01*
X0182689Y0090117D01*
X0181956Y0090117D01*
X0181589Y0090484D01*
X0183983Y0090484D02*
X0185450Y0091952D01*
X0185450Y0090484D01*
X0185084Y0090117D01*
X0184350Y0090117D01*
X0183983Y0090484D01*
X0183983Y0091952D01*
X0184350Y0092319D01*
X0185084Y0092319D01*
X0185450Y0091952D01*
X0186377Y0092319D02*
X0186377Y0090117D01*
X0186377Y0090851D02*
X0187478Y0090117D01*
X0186377Y0090851D02*
X0187478Y0091585D01*
X0183056Y0091952D02*
X0182689Y0092319D01*
X0181956Y0092319D01*
X0181589Y0091952D01*
X0181883Y0098739D02*
X0181149Y0099473D01*
X0181516Y0099473D02*
X0180415Y0099473D01*
X0180415Y0098739D02*
X0180415Y0100941D01*
X0181516Y0100941D01*
X0181883Y0100574D01*
X0181883Y0099840D01*
X0181516Y0099473D01*
X0182809Y0098739D02*
X0184277Y0098739D01*
X0183543Y0098739D02*
X0183543Y0100941D01*
X0182809Y0100207D01*
X0185203Y0100574D02*
X0185203Y0099106D01*
X0186671Y0100574D01*
X0186671Y0099106D01*
X0186304Y0098739D01*
X0185570Y0098739D01*
X0185203Y0099106D01*
X0185203Y0100574D02*
X0185570Y0100941D01*
X0186304Y0100941D01*
X0186671Y0100574D01*
X0186293Y0103794D02*
X0184825Y0103794D01*
X0186293Y0105262D01*
X0186293Y0105629D01*
X0185926Y0105996D01*
X0185192Y0105996D01*
X0184825Y0105629D01*
X0183995Y0104161D02*
X0183995Y0103794D01*
X0183628Y0103794D01*
X0183628Y0104161D01*
X0183995Y0104161D01*
X0182702Y0103794D02*
X0181234Y0103794D01*
X0181968Y0103794D02*
X0181968Y0105996D01*
X0181234Y0105262D01*
X0180308Y0104895D02*
X0179207Y0104895D01*
X0178840Y0105262D01*
X0178840Y0105629D01*
X0179207Y0105996D01*
X0179941Y0105996D01*
X0180308Y0105629D01*
X0180308Y0104161D01*
X0179941Y0103794D01*
X0179207Y0103794D01*
X0178840Y0104161D01*
X0174961Y0104548D02*
X0174961Y0105282D01*
X0174961Y0104915D02*
X0172760Y0104915D01*
X0172760Y0104548D02*
X0172760Y0105282D01*
X0173127Y0106144D02*
X0172760Y0106511D01*
X0172760Y0107245D01*
X0173127Y0107612D01*
X0172760Y0108538D02*
X0173860Y0108538D01*
X0173494Y0109272D01*
X0173494Y0109639D01*
X0173860Y0110006D01*
X0174594Y0110006D01*
X0174961Y0109639D01*
X0174961Y0108905D01*
X0174594Y0108538D01*
X0174594Y0107612D02*
X0174961Y0107245D01*
X0174961Y0106511D01*
X0174594Y0106144D01*
X0173127Y0106144D01*
X0172760Y0108538D02*
X0172760Y0110006D01*
X0180179Y0112850D02*
X0180179Y0115051D01*
X0181280Y0115051D01*
X0181647Y0114684D01*
X0181647Y0113951D01*
X0181280Y0113584D01*
X0180179Y0113584D01*
X0180913Y0113584D02*
X0181647Y0112850D01*
X0182573Y0113217D02*
X0182940Y0112850D01*
X0183674Y0112850D01*
X0184041Y0113217D01*
X0184041Y0114684D01*
X0183674Y0115051D01*
X0182940Y0115051D01*
X0182573Y0114684D01*
X0182573Y0114318D01*
X0182940Y0113951D01*
X0184041Y0113951D01*
X0187219Y0105996D02*
X0187219Y0103794D01*
X0187219Y0104528D02*
X0188320Y0105262D01*
X0187219Y0104528D02*
X0188320Y0103794D01*
X0201229Y0092541D02*
X0201963Y0092541D01*
X0201596Y0092541D02*
X0201596Y0090706D01*
X0201229Y0090339D01*
X0200862Y0090339D01*
X0200495Y0090706D01*
X0202889Y0091073D02*
X0203990Y0091073D01*
X0204357Y0091440D01*
X0204357Y0092174D01*
X0203990Y0092541D01*
X0202889Y0092541D01*
X0202889Y0090339D01*
X0205284Y0090339D02*
X0206751Y0090339D01*
X0206017Y0090339D02*
X0206017Y0092541D01*
X0205284Y0091807D01*
X0196978Y0084884D02*
X0196611Y0085251D01*
X0196978Y0084884D02*
X0196978Y0084150D01*
X0196611Y0083783D01*
X0195143Y0083783D01*
X0194776Y0084150D01*
X0194776Y0084884D01*
X0195143Y0085251D01*
X0195143Y0082857D02*
X0194776Y0082490D01*
X0194776Y0081389D01*
X0196978Y0081389D01*
X0196978Y0082490D01*
X0196611Y0082857D01*
X0195143Y0082857D01*
X0195143Y0075251D02*
X0194776Y0074884D01*
X0194776Y0074150D01*
X0195143Y0073783D01*
X0196611Y0073783D01*
X0196978Y0074150D01*
X0196978Y0074884D01*
X0196611Y0075251D01*
X0196978Y0072857D02*
X0195510Y0072857D01*
X0194776Y0072123D01*
X0195510Y0071389D01*
X0196978Y0071389D01*
X0195877Y0071389D02*
X0195877Y0072857D01*
X0196611Y0065145D02*
X0195143Y0065145D01*
X0194776Y0064778D01*
X0194776Y0063677D01*
X0196978Y0063677D01*
X0196978Y0064778D01*
X0196611Y0065145D01*
X0196978Y0062751D02*
X0194776Y0062751D01*
X0194776Y0061283D02*
X0196978Y0062751D01*
X0196978Y0061283D02*
X0194776Y0061283D01*
X0195143Y0060357D02*
X0194776Y0059990D01*
X0194776Y0059256D01*
X0195143Y0058889D01*
X0196611Y0058889D01*
X0196978Y0059256D01*
X0196978Y0059990D01*
X0196611Y0060357D01*
X0195877Y0060357D01*
X0195877Y0059623D01*
X0196244Y0055251D02*
X0194776Y0055251D01*
X0196244Y0055251D02*
X0196978Y0054517D01*
X0196244Y0053783D01*
X0194776Y0053783D01*
X0195143Y0052857D02*
X0195510Y0052857D01*
X0195877Y0052490D01*
X0196244Y0052857D01*
X0196611Y0052857D01*
X0196978Y0052490D01*
X0196978Y0051756D01*
X0196611Y0051389D01*
X0195877Y0052123D02*
X0195877Y0052490D01*
X0195143Y0052857D02*
X0194776Y0052490D01*
X0194776Y0051756D01*
X0195143Y0051389D01*
X0195877Y0046847D02*
X0196978Y0046847D01*
X0195877Y0046847D02*
X0195510Y0046480D01*
X0195510Y0045379D01*
X0196978Y0045379D01*
X0196978Y0044517D02*
X0196978Y0043783D01*
X0196978Y0044150D02*
X0195510Y0044150D01*
X0195510Y0043783D01*
X0194776Y0044150D02*
X0194409Y0044150D01*
X0194776Y0042857D02*
X0196244Y0042857D01*
X0196978Y0042123D01*
X0196244Y0041389D01*
X0194776Y0041389D01*
X0185309Y0041288D02*
X0183841Y0041288D01*
X0183841Y0039086D01*
X0182915Y0039086D02*
X0182915Y0040554D01*
X0183841Y0040187D02*
X0184575Y0040187D01*
X0182915Y0039086D02*
X0181814Y0039086D01*
X0181447Y0039453D01*
X0181447Y0040554D01*
X0180521Y0040921D02*
X0180521Y0039453D01*
X0180154Y0039086D01*
X0179420Y0039086D01*
X0179053Y0039453D01*
X0180521Y0040921D01*
X0180154Y0041288D01*
X0179420Y0041288D01*
X0179053Y0040921D01*
X0179053Y0039453D01*
X0178127Y0039086D02*
X0176659Y0039086D01*
X0177393Y0039086D02*
X0177393Y0041288D01*
X0176659Y0040554D01*
X0169758Y0041485D02*
X0168290Y0041485D01*
X0168290Y0039283D01*
X0167364Y0039283D02*
X0167364Y0040751D01*
X0168290Y0040384D02*
X0169024Y0040384D01*
X0167364Y0039283D02*
X0166263Y0039283D01*
X0165896Y0039650D01*
X0165896Y0040751D01*
X0164970Y0041118D02*
X0163502Y0039650D01*
X0163869Y0039283D01*
X0164603Y0039283D01*
X0164970Y0039650D01*
X0164970Y0041118D01*
X0164603Y0041485D01*
X0163869Y0041485D01*
X0163502Y0041118D01*
X0163502Y0039650D01*
X0162576Y0039283D02*
X0161108Y0039283D01*
X0161842Y0039283D02*
X0161842Y0041485D01*
X0161108Y0040751D01*
X0153813Y0041563D02*
X0152345Y0041563D01*
X0152345Y0039361D01*
X0151419Y0039361D02*
X0151419Y0040462D01*
X0151052Y0040829D01*
X0149951Y0040829D01*
X0149951Y0039361D01*
X0149025Y0039728D02*
X0149025Y0041196D01*
X0147557Y0039728D01*
X0147924Y0039361D01*
X0148658Y0039361D01*
X0149025Y0039728D01*
X0147557Y0039728D02*
X0147557Y0041196D01*
X0147924Y0041563D01*
X0148658Y0041563D01*
X0149025Y0041196D01*
X0146631Y0039361D02*
X0145163Y0039361D01*
X0145897Y0039361D02*
X0145897Y0041563D01*
X0145163Y0040829D01*
X0152345Y0040462D02*
X0153079Y0040462D01*
X0150263Y0034894D02*
X0150263Y0032692D01*
X0149529Y0032692D02*
X0150997Y0032692D01*
X0149529Y0034160D02*
X0150263Y0034894D01*
X0148603Y0034527D02*
X0148603Y0033793D01*
X0148236Y0033426D01*
X0147135Y0033426D01*
X0147135Y0032692D02*
X0147135Y0034894D01*
X0148236Y0034894D01*
X0148603Y0034527D01*
X0147869Y0033426D02*
X0148603Y0032692D01*
X0148494Y0025892D02*
X0148127Y0025525D01*
X0148127Y0025158D01*
X0148494Y0024791D01*
X0149595Y0024791D01*
X0149595Y0024058D02*
X0149595Y0025525D01*
X0149228Y0025892D01*
X0148494Y0025892D01*
X0147201Y0025525D02*
X0147201Y0025158D01*
X0146834Y0024791D01*
X0147201Y0024425D01*
X0147201Y0024058D01*
X0146834Y0023691D01*
X0146100Y0023691D01*
X0145733Y0024058D01*
X0146467Y0024791D02*
X0146834Y0024791D01*
X0147201Y0025525D02*
X0146834Y0025892D01*
X0146100Y0025892D01*
X0145733Y0025525D01*
X0148127Y0024058D02*
X0148494Y0023691D01*
X0149228Y0023691D01*
X0149595Y0024058D01*
X0150521Y0024058D02*
X0151989Y0025525D01*
X0151989Y0024058D01*
X0151622Y0023691D01*
X0150888Y0023691D01*
X0150521Y0024058D01*
X0150521Y0025525D01*
X0150888Y0025892D01*
X0151622Y0025892D01*
X0151989Y0025525D01*
X0159809Y0025606D02*
X0160176Y0025973D01*
X0160910Y0025973D01*
X0161277Y0025606D01*
X0161277Y0025239D01*
X0159809Y0023771D01*
X0161277Y0023771D01*
X0162203Y0023771D02*
X0162203Y0024138D01*
X0162570Y0024138D01*
X0162570Y0023771D01*
X0162203Y0023771D01*
X0163400Y0023771D02*
X0164868Y0025239D01*
X0164868Y0025606D01*
X0164501Y0025973D01*
X0163767Y0025973D01*
X0163400Y0025606D01*
X0165794Y0025239D02*
X0166895Y0025239D01*
X0167262Y0024872D01*
X0167262Y0024138D01*
X0166895Y0023771D01*
X0165794Y0023771D01*
X0165794Y0023037D02*
X0165794Y0025239D01*
X0164868Y0023771D02*
X0163400Y0023771D01*
X0168188Y0023771D02*
X0168188Y0025973D01*
X0169656Y0025973D01*
X0168922Y0024872D02*
X0168188Y0024872D01*
X0173250Y0020405D02*
X0173250Y0018937D01*
X0173617Y0018570D01*
X0174351Y0018570D01*
X0174718Y0018937D01*
X0175644Y0018570D02*
X0177112Y0018570D01*
X0176378Y0018570D02*
X0176378Y0020772D01*
X0175644Y0020038D01*
X0174718Y0020405D02*
X0174351Y0020772D01*
X0173617Y0020772D01*
X0173250Y0020405D01*
X0178038Y0020405D02*
X0178405Y0020772D01*
X0179139Y0020772D01*
X0179506Y0020405D01*
X0179506Y0020038D01*
X0179139Y0019671D01*
X0179506Y0019304D01*
X0179506Y0018937D01*
X0179139Y0018570D01*
X0178405Y0018570D01*
X0178038Y0018937D01*
X0178772Y0019671D02*
X0179139Y0019671D01*
X0178809Y0023606D02*
X0180277Y0023606D01*
X0179543Y0023606D02*
X0179543Y0025807D01*
X0178809Y0025073D01*
X0181203Y0024339D02*
X0182304Y0025073D01*
X0181203Y0024339D02*
X0182304Y0023606D01*
X0181203Y0023606D02*
X0181203Y0025807D01*
X0181125Y0032546D02*
X0180758Y0032913D01*
X0181125Y0032546D02*
X0181859Y0032546D01*
X0182226Y0032913D01*
X0182226Y0033280D01*
X0181859Y0033647D01*
X0181492Y0033647D01*
X0181859Y0033647D02*
X0182226Y0034014D01*
X0182226Y0034381D01*
X0181859Y0034748D01*
X0181125Y0034748D01*
X0180758Y0034381D01*
X0179832Y0034381D02*
X0179832Y0033647D01*
X0179465Y0033280D01*
X0178364Y0033280D01*
X0178364Y0032546D02*
X0178364Y0034748D01*
X0179465Y0034748D01*
X0179832Y0034381D01*
X0179098Y0033280D02*
X0179832Y0032546D01*
X0165757Y0032287D02*
X0165390Y0031920D01*
X0164656Y0031920D01*
X0164289Y0032287D01*
X0164289Y0033021D02*
X0165023Y0033388D01*
X0165390Y0033388D01*
X0165757Y0033021D01*
X0165757Y0032287D01*
X0164289Y0033021D02*
X0164289Y0034122D01*
X0165757Y0034122D01*
X0163363Y0033755D02*
X0162996Y0034122D01*
X0162262Y0034122D01*
X0161895Y0033755D01*
X0161895Y0032287D01*
X0162262Y0031920D01*
X0162996Y0031920D01*
X0163363Y0032287D01*
X0155342Y0019097D02*
X0154608Y0019097D01*
X0154241Y0018730D01*
X0155342Y0019097D02*
X0155709Y0018730D01*
X0155709Y0018363D01*
X0154241Y0016895D01*
X0155709Y0016895D01*
X0153315Y0016895D02*
X0151847Y0016895D01*
X0152581Y0016895D02*
X0152581Y0019097D01*
X0151847Y0018363D01*
X0150921Y0018730D02*
X0150554Y0019097D01*
X0149820Y0019097D01*
X0149453Y0018730D01*
X0149453Y0017262D01*
X0149820Y0016895D01*
X0150554Y0016895D01*
X0150921Y0017262D01*
X0151828Y0010444D02*
X0151461Y0010077D01*
X0151461Y0008609D01*
X0152929Y0010077D01*
X0152929Y0008609D01*
X0152562Y0008242D01*
X0151828Y0008242D01*
X0151461Y0008609D01*
X0150535Y0008242D02*
X0149067Y0008242D01*
X0149801Y0008242D02*
X0149801Y0010444D01*
X0149067Y0009710D01*
X0151828Y0010444D02*
X0152562Y0010444D01*
X0152929Y0010077D01*
X0153855Y0009710D02*
X0153855Y0008609D01*
X0154222Y0008242D01*
X0155323Y0008242D01*
X0155323Y0009710D01*
X0156249Y0009343D02*
X0156983Y0009343D01*
X0156249Y0010444D02*
X0157717Y0010444D01*
X0156249Y0010444D02*
X0156249Y0008242D01*
X0171478Y0007684D02*
X0172212Y0008418D01*
X0172212Y0006216D01*
X0171478Y0006216D02*
X0172946Y0006216D01*
X0173872Y0006583D02*
X0175340Y0008051D01*
X0175340Y0006583D01*
X0174973Y0006216D01*
X0174239Y0006216D01*
X0173872Y0006583D01*
X0173872Y0008051D01*
X0174239Y0008418D01*
X0174973Y0008418D01*
X0175340Y0008051D01*
X0176266Y0008051D02*
X0176633Y0008418D01*
X0177367Y0008418D01*
X0177734Y0008051D01*
X0176266Y0006583D01*
X0176633Y0006216D01*
X0177367Y0006216D01*
X0177734Y0006583D01*
X0177734Y0008051D01*
X0178660Y0007684D02*
X0178660Y0006583D01*
X0179027Y0006216D01*
X0180128Y0006216D01*
X0180128Y0007684D01*
X0181054Y0007317D02*
X0181788Y0007317D01*
X0181054Y0006216D02*
X0181054Y0008418D01*
X0182522Y0008418D01*
X0176266Y0008051D02*
X0176266Y0006583D01*
X0202167Y0017826D02*
X0202167Y0018560D01*
X0202167Y0018193D02*
X0204369Y0018193D01*
X0204369Y0017826D02*
X0204369Y0018560D01*
X0204002Y0019422D02*
X0202534Y0019422D01*
X0202167Y0019789D01*
X0202167Y0020523D01*
X0202534Y0020890D01*
X0202534Y0021816D02*
X0202901Y0021816D01*
X0203268Y0022183D01*
X0203268Y0022917D01*
X0203635Y0023284D01*
X0204002Y0023284D01*
X0204369Y0022917D01*
X0204369Y0022183D01*
X0204002Y0021816D01*
X0204002Y0020890D02*
X0204369Y0020523D01*
X0204369Y0019789D01*
X0204002Y0019422D01*
X0202534Y0021816D02*
X0202167Y0022183D01*
X0202167Y0022917D01*
X0202534Y0023284D01*
X0202534Y0024210D02*
X0202167Y0024577D01*
X0202167Y0025311D01*
X0202534Y0025678D01*
X0202901Y0025678D01*
X0203268Y0025311D01*
X0203635Y0025678D01*
X0204002Y0025678D01*
X0204369Y0025311D01*
X0204369Y0024577D01*
X0204002Y0024210D01*
X0203268Y0024944D02*
X0203268Y0025311D01*
X0204002Y0026604D02*
X0202534Y0026604D01*
X0202167Y0026971D01*
X0202167Y0027705D01*
X0202534Y0028072D01*
X0204002Y0026604D01*
X0204369Y0026971D01*
X0204369Y0027705D01*
X0204002Y0028072D01*
X0202534Y0028072D01*
X0203268Y0028998D02*
X0202167Y0030099D01*
X0204369Y0030099D01*
X0203268Y0030466D02*
X0203268Y0028998D01*
X0202534Y0031392D02*
X0202167Y0031759D01*
X0202167Y0032493D01*
X0202534Y0032860D01*
X0204002Y0031392D01*
X0204369Y0031759D01*
X0204369Y0032493D01*
X0204002Y0032860D01*
X0202534Y0032860D01*
X0202534Y0033786D02*
X0202167Y0034153D01*
X0202167Y0034887D01*
X0202534Y0035254D01*
X0204002Y0033786D01*
X0204369Y0034153D01*
X0204369Y0034887D01*
X0204002Y0035254D01*
X0202534Y0035254D01*
X0202534Y0033786D02*
X0204002Y0033786D01*
X0204002Y0031392D02*
X0202534Y0031392D01*
X0182096Y0047590D02*
X0180628Y0047590D01*
X0181362Y0047590D02*
X0181362Y0049792D01*
X0180628Y0049058D01*
X0179702Y0049425D02*
X0179335Y0049792D01*
X0178601Y0049792D01*
X0178234Y0049425D01*
X0178234Y0047957D01*
X0178601Y0047590D01*
X0179335Y0047590D01*
X0179702Y0047957D01*
X0168742Y0047957D02*
X0168375Y0047590D01*
X0167641Y0047590D01*
X0167274Y0047957D01*
X0168742Y0049425D01*
X0168742Y0047957D01*
X0168742Y0049425D02*
X0168375Y0049792D01*
X0167641Y0049792D01*
X0167274Y0049425D01*
X0167274Y0047957D01*
X0166348Y0047590D02*
X0164880Y0047590D01*
X0165614Y0047590D02*
X0165614Y0049792D01*
X0164880Y0049058D01*
X0163954Y0049425D02*
X0163587Y0049792D01*
X0162853Y0049792D01*
X0162486Y0049425D01*
X0162486Y0047957D01*
X0162853Y0047590D01*
X0163587Y0047590D01*
X0163954Y0047957D01*
X0150600Y0047957D02*
X0150233Y0047590D01*
X0149499Y0047590D01*
X0149132Y0047957D01*
X0149499Y0048691D02*
X0149132Y0049058D01*
X0149132Y0049425D01*
X0149499Y0049792D01*
X0150233Y0049792D01*
X0150600Y0049425D01*
X0150600Y0047957D01*
X0150600Y0048691D02*
X0149499Y0048691D01*
X0148206Y0049425D02*
X0147839Y0049792D01*
X0147105Y0049792D01*
X0146738Y0049425D01*
X0146738Y0047957D01*
X0147105Y0047590D01*
X0147839Y0047590D01*
X0148206Y0047957D01*
X0131384Y0036417D02*
X0131384Y0032087D01*
X0131717Y0029292D02*
X0132451Y0029292D01*
X0132818Y0028925D01*
X0131350Y0027457D01*
X0131717Y0027090D01*
X0132451Y0027090D01*
X0132818Y0027457D01*
X0132818Y0028925D01*
X0133744Y0028925D02*
X0134111Y0029292D01*
X0134845Y0029292D01*
X0135212Y0028925D01*
X0133744Y0027457D01*
X0134111Y0027090D01*
X0134845Y0027090D01*
X0135212Y0027457D01*
X0135212Y0028925D01*
X0133744Y0028925D02*
X0133744Y0027457D01*
X0131350Y0027457D02*
X0131350Y0028925D01*
X0131717Y0029292D01*
X0130057Y0029292D02*
X0128956Y0028191D01*
X0130424Y0028191D01*
X0130057Y0027090D02*
X0130057Y0029292D01*
X0128030Y0028925D02*
X0127663Y0029292D01*
X0126929Y0029292D01*
X0126562Y0028925D01*
X0125636Y0029292D02*
X0125636Y0027090D01*
X0124168Y0029292D01*
X0124168Y0027090D01*
X0123241Y0027090D02*
X0123241Y0029292D01*
X0122508Y0028558D01*
X0121774Y0029292D01*
X0121774Y0027090D01*
X0120847Y0027457D02*
X0120847Y0028925D01*
X0120480Y0029292D01*
X0119380Y0029292D01*
X0119380Y0027090D01*
X0120480Y0027090D01*
X0120847Y0027457D01*
X0119167Y0028768D02*
X0117699Y0028768D01*
X0117699Y0026566D01*
X0116773Y0026566D02*
X0116773Y0027667D01*
X0116406Y0028034D01*
X0115305Y0028034D01*
X0115305Y0026566D01*
X0114379Y0026933D02*
X0114379Y0027300D01*
X0114012Y0027667D01*
X0112911Y0027667D01*
X0112911Y0026933D01*
X0113278Y0026566D01*
X0114012Y0026566D01*
X0114379Y0026933D01*
X0113645Y0028401D02*
X0112911Y0027667D01*
X0111985Y0027667D02*
X0111985Y0026933D01*
X0111618Y0026566D01*
X0110884Y0026566D01*
X0110517Y0026933D01*
X0110517Y0027667D02*
X0111251Y0028034D01*
X0111618Y0028034D01*
X0111985Y0027667D01*
X0111985Y0028768D02*
X0110517Y0028768D01*
X0110517Y0027667D01*
X0113645Y0028401D02*
X0114379Y0028768D01*
X0117699Y0027667D02*
X0118433Y0027667D01*
X0120679Y0032956D02*
X0121413Y0032956D01*
X0121046Y0032956D02*
X0121046Y0035158D01*
X0120679Y0035158D02*
X0121413Y0035158D01*
X0122275Y0034791D02*
X0122275Y0033323D01*
X0122642Y0032956D01*
X0123376Y0032956D01*
X0123743Y0033323D01*
X0124669Y0032956D02*
X0126137Y0032956D01*
X0125403Y0032956D02*
X0125403Y0035158D01*
X0124669Y0034424D01*
X0123743Y0034791D02*
X0123376Y0035158D01*
X0122642Y0035158D01*
X0122275Y0034791D01*
X0125479Y0036417D02*
X0125479Y0032087D01*
X0128030Y0028925D02*
X0128030Y0028558D01*
X0126562Y0027090D01*
X0128030Y0027090D01*
X0109332Y0044935D02*
X0108965Y0044569D01*
X0107864Y0044569D01*
X0107864Y0046770D01*
X0108965Y0046770D01*
X0109332Y0046403D01*
X0109332Y0046036D01*
X0108965Y0045669D01*
X0107864Y0045669D01*
X0108965Y0045669D02*
X0109332Y0045302D01*
X0109332Y0044935D01*
X0097671Y0029993D02*
X0097671Y0027791D01*
X0097671Y0028525D02*
X0098772Y0029259D01*
X0097671Y0028525D02*
X0098772Y0027791D01*
X0096745Y0027791D02*
X0095277Y0027791D01*
X0096011Y0027791D02*
X0096011Y0029993D01*
X0095277Y0029259D01*
X0089842Y0025963D02*
X0089842Y0025229D01*
X0089475Y0024862D01*
X0088007Y0026330D01*
X0089475Y0026330D01*
X0089842Y0025963D01*
X0089475Y0024862D02*
X0088007Y0024862D01*
X0087640Y0025229D01*
X0087640Y0025963D01*
X0088007Y0026330D01*
X0089842Y0023936D02*
X0089842Y0022468D01*
X0089842Y0023202D02*
X0087640Y0023202D01*
X0088374Y0022468D01*
X0079017Y0014496D02*
X0077550Y0014496D01*
X0077550Y0013395D01*
X0078283Y0013762D01*
X0078650Y0013762D01*
X0079017Y0013395D01*
X0079017Y0012661D01*
X0078650Y0012294D01*
X0077916Y0012294D01*
X0077550Y0012661D01*
X0076623Y0012294D02*
X0075155Y0012294D01*
X0075889Y0012294D02*
X0075889Y0014496D01*
X0075155Y0013762D01*
X0074229Y0013395D02*
X0073862Y0013028D01*
X0072761Y0013028D01*
X0072761Y0012294D02*
X0072761Y0014496D01*
X0073862Y0014496D01*
X0074229Y0014129D01*
X0074229Y0013395D01*
X0073495Y0013028D02*
X0074229Y0012294D01*
X0074322Y0005402D02*
X0074322Y0003200D01*
X0073588Y0003200D02*
X0075056Y0003200D01*
X0075982Y0003200D02*
X0075982Y0005402D01*
X0077083Y0004668D02*
X0075982Y0003934D01*
X0077083Y0003200D01*
X0074322Y0005402D02*
X0073588Y0004668D01*
X0032787Y0028342D02*
X0031686Y0029076D01*
X0032787Y0029810D01*
X0031686Y0030544D02*
X0031686Y0028342D01*
X0030760Y0028709D02*
X0030393Y0028342D01*
X0029659Y0028342D01*
X0029292Y0028709D01*
X0030760Y0030177D01*
X0030760Y0028709D01*
X0030760Y0030177D02*
X0030393Y0030544D01*
X0029659Y0030544D01*
X0029292Y0030177D01*
X0029292Y0028709D01*
X0028366Y0028709D02*
X0027999Y0028342D01*
X0027265Y0028342D01*
X0026898Y0028709D01*
X0026898Y0029443D02*
X0027632Y0029810D01*
X0027999Y0029810D01*
X0028366Y0029443D01*
X0028366Y0028709D01*
X0026898Y0029443D02*
X0026898Y0030544D01*
X0028366Y0030544D01*
X0025972Y0028342D02*
X0024504Y0028342D01*
X0025238Y0028342D02*
X0025238Y0030544D01*
X0024504Y0029810D01*
X0024304Y0036896D02*
X0024304Y0039098D01*
X0025405Y0039098D01*
X0025772Y0038731D01*
X0025772Y0037997D01*
X0025405Y0037630D01*
X0024304Y0037630D01*
X0025038Y0037630D02*
X0025772Y0036896D01*
X0026698Y0036896D02*
X0028166Y0036896D01*
X0027432Y0036896D02*
X0027432Y0039098D01*
X0026698Y0038364D01*
X0029092Y0038731D02*
X0029459Y0039098D01*
X0030193Y0039098D01*
X0030560Y0038731D01*
X0030560Y0038364D01*
X0029092Y0036896D01*
X0030560Y0036896D01*
X0036881Y0041108D02*
X0038349Y0041108D01*
X0037615Y0041108D02*
X0037615Y0043310D01*
X0036881Y0042576D01*
X0039275Y0042943D02*
X0039642Y0043310D01*
X0040376Y0043310D01*
X0040743Y0042943D01*
X0039275Y0041475D01*
X0039642Y0041108D01*
X0040376Y0041108D01*
X0040743Y0041475D01*
X0040743Y0042943D01*
X0039275Y0042943D02*
X0039275Y0041475D01*
X0038402Y0050075D02*
X0036934Y0050075D01*
X0037668Y0050075D02*
X0037668Y0052277D01*
X0036934Y0051543D01*
X0036008Y0051910D02*
X0035641Y0052277D01*
X0034540Y0052277D01*
X0034540Y0050075D01*
X0034540Y0050809D02*
X0035641Y0050809D01*
X0036008Y0051176D01*
X0036008Y0051910D01*
X0035274Y0050809D02*
X0036008Y0050075D01*
X0039328Y0051176D02*
X0040429Y0052277D01*
X0040429Y0050075D01*
X0040796Y0051176D02*
X0039328Y0051176D01*
X0039475Y0055476D02*
X0039108Y0055843D01*
X0039475Y0055476D02*
X0040209Y0055476D01*
X0040576Y0055843D01*
X0040576Y0056577D01*
X0040209Y0056944D01*
X0039842Y0056944D01*
X0039108Y0056577D01*
X0039108Y0057677D01*
X0040576Y0057677D01*
X0041502Y0057677D02*
X0041502Y0055476D01*
X0041502Y0056210D02*
X0042603Y0055476D01*
X0041502Y0056210D02*
X0042603Y0056944D01*
X0038182Y0055476D02*
X0036714Y0055476D01*
X0037448Y0055476D02*
X0037448Y0057677D01*
X0036714Y0056944D01*
X0036754Y0063350D02*
X0036754Y0065551D01*
X0037854Y0065551D01*
X0038221Y0065184D01*
X0038221Y0064451D01*
X0037854Y0064084D01*
X0036754Y0064084D01*
X0037488Y0064084D02*
X0038221Y0063350D01*
X0039148Y0063717D02*
X0039148Y0064451D01*
X0040249Y0064451D01*
X0040616Y0064084D01*
X0040616Y0063717D01*
X0040249Y0063350D01*
X0039515Y0063350D01*
X0039148Y0063717D01*
X0039148Y0064451D02*
X0039882Y0065184D01*
X0040616Y0065551D01*
X0045813Y0066035D02*
X0047281Y0067503D01*
X0047281Y0067870D01*
X0046914Y0068237D01*
X0046180Y0068237D01*
X0045813Y0067870D01*
X0045813Y0066035D02*
X0047281Y0066035D01*
X0048207Y0066035D02*
X0048574Y0066035D01*
X0048574Y0066402D01*
X0048207Y0066402D01*
X0048207Y0066035D01*
X0049404Y0066035D02*
X0049404Y0066402D01*
X0050872Y0067870D01*
X0050872Y0068237D01*
X0049404Y0068237D01*
X0051798Y0067503D02*
X0051798Y0066402D01*
X0052165Y0066035D01*
X0053266Y0066035D01*
X0053266Y0067503D01*
X0054192Y0067136D02*
X0055660Y0067136D01*
X0055660Y0068237D02*
X0055660Y0066035D01*
X0054192Y0066035D02*
X0054192Y0068237D01*
X0067998Y0066617D02*
X0068732Y0067351D01*
X0068732Y0065149D01*
X0067998Y0065149D02*
X0069466Y0065149D01*
X0070392Y0065516D02*
X0071860Y0066984D01*
X0071860Y0065516D01*
X0071493Y0065149D01*
X0070759Y0065149D01*
X0070392Y0065516D01*
X0070392Y0066984D01*
X0070759Y0067351D01*
X0071493Y0067351D01*
X0071860Y0066984D01*
X0072786Y0066617D02*
X0072786Y0065516D01*
X0073153Y0065149D01*
X0074254Y0065149D01*
X0074254Y0066617D01*
X0075180Y0066250D02*
X0075914Y0066250D01*
X0075180Y0067351D02*
X0076648Y0067351D01*
X0075180Y0067351D02*
X0075180Y0065149D01*
X0069045Y0057036D02*
X0067944Y0055935D01*
X0069412Y0055935D01*
X0069045Y0054834D02*
X0069045Y0057036D01*
X0067018Y0056669D02*
X0066651Y0057036D01*
X0065917Y0057036D01*
X0065550Y0056669D01*
X0065550Y0055201D01*
X0065917Y0054834D01*
X0066651Y0054834D01*
X0067018Y0055201D01*
X0064688Y0054834D02*
X0063954Y0054834D01*
X0064321Y0054834D02*
X0064321Y0057036D01*
X0063954Y0057036D02*
X0064688Y0057036D01*
X0068365Y0075149D02*
X0067998Y0075516D01*
X0067998Y0076984D01*
X0068365Y0077351D01*
X0069099Y0077351D01*
X0069466Y0076984D01*
X0070392Y0076984D02*
X0070759Y0077351D01*
X0071493Y0077351D01*
X0071860Y0076984D01*
X0071860Y0076617D01*
X0071493Y0076250D01*
X0071860Y0075883D01*
X0071860Y0075516D01*
X0071493Y0075149D01*
X0070759Y0075149D01*
X0070392Y0075516D01*
X0069466Y0075516D02*
X0069099Y0075149D01*
X0068365Y0075149D01*
X0071126Y0076250D02*
X0071493Y0076250D01*
X0072218Y0081763D02*
X0073686Y0081763D01*
X0072952Y0081763D02*
X0072952Y0083965D01*
X0072218Y0083231D01*
X0074612Y0083598D02*
X0074612Y0082130D01*
X0076080Y0083598D01*
X0076080Y0082130D01*
X0075713Y0081763D01*
X0074979Y0081763D01*
X0074612Y0082130D01*
X0074612Y0083598D02*
X0074979Y0083965D01*
X0075713Y0083965D01*
X0076080Y0083598D01*
X0077006Y0083598D02*
X0077006Y0082130D01*
X0078474Y0083598D01*
X0078474Y0082130D01*
X0078107Y0081763D01*
X0077373Y0081763D01*
X0077006Y0082130D01*
X0077006Y0083598D02*
X0077373Y0083965D01*
X0078107Y0083965D01*
X0078474Y0083598D01*
X0079400Y0083965D02*
X0079400Y0081763D01*
X0079400Y0082497D02*
X0080501Y0083231D01*
X0079400Y0082497D02*
X0080501Y0081763D01*
X0076186Y0090700D02*
X0075452Y0090700D01*
X0075085Y0091067D01*
X0075085Y0091434D01*
X0075452Y0091801D01*
X0076186Y0091801D01*
X0076553Y0091434D01*
X0076553Y0091067D01*
X0076186Y0090700D01*
X0076186Y0091801D02*
X0076553Y0092168D01*
X0076553Y0092535D01*
X0076186Y0092902D01*
X0075452Y0092902D01*
X0075085Y0092535D01*
X0075085Y0092168D01*
X0075452Y0091801D01*
X0074158Y0091801D02*
X0074158Y0092535D01*
X0073791Y0092902D01*
X0072691Y0092902D01*
X0072691Y0090700D01*
X0072691Y0091434D02*
X0073791Y0091434D01*
X0074158Y0091801D01*
X0073425Y0091434D02*
X0074158Y0090700D01*
X0074480Y0094389D02*
X0074480Y0096591D01*
X0073746Y0095857D01*
X0076140Y0096591D02*
X0076874Y0095857D01*
X0077608Y0096591D01*
X0077608Y0094389D01*
X0076140Y0094389D02*
X0076140Y0096591D01*
X0075214Y0094389D02*
X0073746Y0094389D01*
X0074061Y0103011D02*
X0074061Y0105213D01*
X0075162Y0105213D01*
X0075529Y0104846D01*
X0075529Y0104112D01*
X0075162Y0103745D01*
X0074061Y0103745D01*
X0074795Y0103745D02*
X0075529Y0103011D01*
X0076455Y0103011D02*
X0076455Y0103378D01*
X0077923Y0104846D01*
X0077923Y0105213D01*
X0076455Y0105213D01*
X0052194Y0100365D02*
X0050726Y0100365D01*
X0051460Y0100365D02*
X0051460Y0102567D01*
X0050726Y0101833D01*
X0049800Y0100365D02*
X0048332Y0100365D01*
X0048332Y0102567D01*
X0046589Y0104221D02*
X0045121Y0104221D01*
X0045121Y0102019D01*
X0044195Y0102019D02*
X0044195Y0103487D01*
X0045121Y0103120D02*
X0045855Y0103120D01*
X0044195Y0102019D02*
X0043094Y0102019D01*
X0042727Y0102386D01*
X0042727Y0103487D01*
X0041801Y0103487D02*
X0041801Y0103854D01*
X0041434Y0104221D01*
X0040700Y0104221D01*
X0040333Y0103854D01*
X0040333Y0103487D01*
X0040700Y0103120D01*
X0041434Y0103120D01*
X0041801Y0102753D01*
X0041801Y0102386D01*
X0041434Y0102019D01*
X0040700Y0102019D01*
X0040333Y0102386D01*
X0040333Y0102753D01*
X0040700Y0103120D01*
X0041434Y0103120D02*
X0041801Y0103487D01*
X0039406Y0104221D02*
X0038673Y0103854D01*
X0037939Y0103120D01*
X0039040Y0103120D01*
X0039406Y0102753D01*
X0039406Y0102386D01*
X0039040Y0102019D01*
X0038306Y0102019D01*
X0037939Y0102386D01*
X0037939Y0103120D01*
X0038306Y0117019D02*
X0039040Y0117019D01*
X0039406Y0117386D01*
X0040333Y0117386D02*
X0040700Y0117019D01*
X0041434Y0117019D01*
X0041801Y0117386D01*
X0041801Y0117753D01*
X0041434Y0118120D01*
X0040333Y0118120D01*
X0040333Y0117386D01*
X0040333Y0118120D02*
X0041067Y0118854D01*
X0041801Y0119221D01*
X0039406Y0118854D02*
X0039040Y0119221D01*
X0038306Y0119221D01*
X0037939Y0118854D01*
X0037939Y0117386D01*
X0038306Y0117019D01*
X0132703Y0115316D02*
X0134905Y0115316D01*
X0134905Y0116049D02*
X0134905Y0114582D01*
X0134538Y0113288D02*
X0132703Y0113288D01*
X0132703Y0112921D02*
X0132703Y0113655D01*
X0133437Y0114582D02*
X0132703Y0115316D01*
X0134538Y0113288D02*
X0134905Y0112921D01*
X0134905Y0112554D01*
X0134538Y0112187D01*
X0140360Y0106350D02*
X0140727Y0106717D01*
X0141461Y0106717D01*
X0141828Y0106350D01*
X0142754Y0105983D02*
X0143488Y0106717D01*
X0143488Y0104515D01*
X0142754Y0104515D02*
X0144222Y0104515D01*
X0145148Y0104515D02*
X0146616Y0104515D01*
X0145882Y0104515D02*
X0145882Y0106717D01*
X0145148Y0105983D01*
X0141828Y0104882D02*
X0141461Y0104515D01*
X0140727Y0104515D01*
X0140360Y0104882D01*
X0140360Y0106350D01*
X0139295Y0097292D02*
X0138561Y0097292D01*
X0138194Y0096925D01*
X0138194Y0095457D01*
X0139662Y0096925D01*
X0139662Y0095457D01*
X0139295Y0095090D01*
X0138561Y0095090D01*
X0138194Y0095457D01*
X0139662Y0096925D02*
X0139295Y0097292D01*
X0141786Y0096558D02*
X0142520Y0097292D01*
X0142520Y0095090D01*
X0143253Y0095090D02*
X0141786Y0095090D01*
X0140956Y0095090D02*
X0140589Y0095090D01*
X0140589Y0095457D01*
X0140956Y0095457D01*
X0140956Y0095090D01*
X0144180Y0095457D02*
X0144180Y0096558D01*
X0144180Y0095457D02*
X0144547Y0095090D01*
X0145648Y0095090D01*
X0145648Y0096558D01*
X0146574Y0096191D02*
X0147308Y0096191D01*
X0146574Y0097292D02*
X0148042Y0097292D01*
X0146574Y0097292D02*
X0146574Y0095090D01*
X0154571Y0097422D02*
X0154571Y0098890D01*
X0154571Y0098156D02*
X0156772Y0098156D01*
X0156772Y0099816D02*
X0154571Y0099816D01*
X0154571Y0100917D01*
X0154938Y0101284D01*
X0155672Y0101284D01*
X0156038Y0100917D01*
X0156038Y0099816D01*
X0156405Y0102210D02*
X0156772Y0102577D01*
X0156772Y0103311D01*
X0156405Y0103678D01*
X0156038Y0103678D01*
X0155672Y0103311D01*
X0155672Y0102577D01*
X0155305Y0102210D01*
X0154938Y0102210D01*
X0154571Y0102577D01*
X0154571Y0103311D01*
X0154938Y0103678D01*
X0154571Y0104604D02*
X0154571Y0106072D01*
X0154938Y0106072D01*
X0156405Y0104604D01*
X0156772Y0104604D01*
X0156772Y0106998D02*
X0155305Y0106998D01*
X0154571Y0107732D01*
X0155305Y0108466D01*
X0156772Y0108466D01*
X0155672Y0108466D02*
X0155672Y0106998D01*
X0155672Y0109392D02*
X0155672Y0110860D01*
X0155305Y0111786D02*
X0155672Y0112153D01*
X0155672Y0113254D01*
X0156405Y0113254D02*
X0154938Y0113254D01*
X0154571Y0112887D01*
X0154571Y0112153D01*
X0154938Y0111786D01*
X0155305Y0111786D01*
X0156405Y0111786D02*
X0156772Y0112153D01*
X0156772Y0112887D01*
X0156405Y0113254D01*
X0156772Y0110493D02*
X0154571Y0110493D01*
X0155672Y0109392D01*
X0186012Y0064316D02*
X0188213Y0064316D01*
X0188213Y0065049D02*
X0188213Y0063582D01*
X0187846Y0062655D02*
X0186378Y0062655D01*
X0186012Y0062288D01*
X0186012Y0061187D01*
X0188213Y0061187D01*
X0188213Y0062288D01*
X0187846Y0062655D01*
X0186745Y0063582D02*
X0186012Y0064316D01*
X0186012Y0060261D02*
X0186012Y0058793D01*
X0188213Y0058793D01*
X0188213Y0060261D01*
X0187112Y0059527D02*
X0187112Y0058793D01*
X0188213Y0057867D02*
X0188213Y0056399D01*
X0186012Y0056399D01*
X0026394Y0043570D02*
X0025294Y0042836D01*
X0026394Y0042102D01*
X0025294Y0042102D02*
X0025294Y0044304D01*
X0024367Y0043937D02*
X0022900Y0042469D01*
X0023266Y0042102D01*
X0024000Y0042102D01*
X0024367Y0042469D01*
X0024367Y0043937D01*
X0024000Y0044304D01*
X0023266Y0044304D01*
X0022900Y0043937D01*
X0022900Y0042469D01*
X0021973Y0042469D02*
X0021606Y0042102D01*
X0020872Y0042102D01*
X0020505Y0042469D01*
X0020505Y0043203D02*
X0021239Y0043570D01*
X0021606Y0043570D01*
X0021973Y0043203D01*
X0021973Y0042469D01*
X0020505Y0043203D02*
X0020505Y0044304D01*
X0021973Y0044304D01*
X0018845Y0044304D02*
X0018845Y0042102D01*
X0018111Y0042102D02*
X0019579Y0042102D01*
X0018111Y0043570D02*
X0018845Y0044304D01*
X0018931Y0050114D02*
X0018197Y0050848D01*
X0018564Y0050848D02*
X0017464Y0050848D01*
X0017464Y0050114D02*
X0017464Y0052316D01*
X0018564Y0052316D01*
X0018931Y0051949D01*
X0018931Y0051215D01*
X0018564Y0050848D01*
X0019858Y0050114D02*
X0021325Y0050114D01*
X0020592Y0050114D02*
X0020592Y0052316D01*
X0019858Y0051582D01*
X0022252Y0051582D02*
X0022986Y0052316D01*
X0022986Y0050114D01*
X0022252Y0050114D02*
X0023720Y0050114D01*
D11*
X0039613Y0069291D02*
X0061613Y0069291D01*
X0062613Y0070291D01*
X0062613Y0098228D01*
X0061613Y0099228D01*
X0039613Y0099228D01*
X0038613Y0098228D01*
X0038613Y0070291D01*
X0039613Y0069291D01*
X0050113Y0086260D02*
X0050115Y0086304D01*
X0050121Y0086348D01*
X0050131Y0086391D01*
X0050144Y0086433D01*
X0050161Y0086474D01*
X0050182Y0086513D01*
X0050206Y0086550D01*
X0050233Y0086585D01*
X0050263Y0086617D01*
X0050296Y0086647D01*
X0050332Y0086673D01*
X0050369Y0086697D01*
X0050409Y0086716D01*
X0050450Y0086733D01*
X0050493Y0086745D01*
X0050536Y0086754D01*
X0050580Y0086759D01*
X0050624Y0086760D01*
X0050668Y0086757D01*
X0050712Y0086750D01*
X0050755Y0086739D01*
X0050797Y0086725D01*
X0050837Y0086707D01*
X0050876Y0086685D01*
X0050912Y0086661D01*
X0050946Y0086633D01*
X0050978Y0086602D01*
X0051007Y0086568D01*
X0051033Y0086532D01*
X0051055Y0086494D01*
X0051074Y0086454D01*
X0051089Y0086412D01*
X0051101Y0086370D01*
X0051109Y0086326D01*
X0051113Y0086282D01*
X0051113Y0086238D01*
X0051109Y0086194D01*
X0051101Y0086150D01*
X0051089Y0086108D01*
X0051074Y0086066D01*
X0051055Y0086026D01*
X0051033Y0085988D01*
X0051007Y0085952D01*
X0050978Y0085918D01*
X0050946Y0085887D01*
X0050912Y0085859D01*
X0050876Y0085835D01*
X0050837Y0085813D01*
X0050797Y0085795D01*
X0050755Y0085781D01*
X0050712Y0085770D01*
X0050668Y0085763D01*
X0050624Y0085760D01*
X0050580Y0085761D01*
X0050536Y0085766D01*
X0050493Y0085775D01*
X0050450Y0085787D01*
X0050409Y0085804D01*
X0050369Y0085823D01*
X0050332Y0085847D01*
X0050296Y0085873D01*
X0050263Y0085903D01*
X0050233Y0085935D01*
X0050206Y0085970D01*
X0050182Y0086007D01*
X0050161Y0086046D01*
X0050144Y0086087D01*
X0050131Y0086129D01*
X0050121Y0086172D01*
X0050115Y0086216D01*
X0050113Y0086260D01*
X0063467Y0053748D02*
X0069766Y0053748D01*
X0063467Y0049811D02*
X0063467Y0046268D01*
X0063467Y0042331D02*
X0069766Y0042331D01*
X0070597Y0038079D02*
X0072369Y0038079D01*
X0070597Y0038079D02*
X0070597Y0019969D01*
X0072369Y0019969D01*
X0080243Y0019969D02*
X0082014Y0019969D01*
X0082014Y0038079D01*
X0080243Y0038079D01*
X0080243Y0032961D02*
X0072369Y0032961D01*
X0106494Y0083760D02*
X0106494Y0090059D01*
X0110431Y0083760D02*
X0113975Y0083760D01*
X0117912Y0083760D02*
X0117912Y0090059D01*
X0158880Y0099394D02*
X0158880Y0111598D01*
X0170987Y0111598D01*
X0170987Y0099394D01*
X0158880Y0099394D01*
X0198428Y0086189D02*
X0198428Y0081189D01*
X0200928Y0078689D01*
X0198428Y0076189D01*
X0198428Y0071189D01*
X0200928Y0068689D01*
X0198428Y0066189D01*
X0198428Y0061189D01*
X0200928Y0058689D01*
X0198428Y0056189D01*
X0198428Y0051189D01*
X0200928Y0048689D01*
X0198428Y0046189D01*
X0198428Y0041189D01*
X0200928Y0038689D01*
X0205928Y0038689D01*
X0208428Y0041189D01*
X0208428Y0046189D01*
X0205928Y0048689D01*
X0208428Y0051189D01*
X0208428Y0056189D01*
X0205928Y0058689D01*
X0208428Y0061189D01*
X0208428Y0066189D01*
X0205928Y0068689D01*
X0208428Y0071189D01*
X0208428Y0076189D01*
X0205928Y0078689D01*
X0208428Y0081189D01*
X0208428Y0086189D01*
X0205928Y0088689D01*
X0200928Y0088689D01*
X0198428Y0086189D01*
X0186646Y0017331D02*
X0166548Y0017331D01*
X0166548Y0009457D01*
X0186646Y0009457D01*
X0186646Y0016850D01*
X0186646Y0016937D02*
X0186646Y0017331D01*
X0177347Y0015144D02*
X0177347Y0011644D01*
X0175847Y0011644D02*
X0177347Y0013394D01*
X0175847Y0015144D01*
X0175847Y0011644D01*
D12*
X0170597Y0060638D02*
X0170599Y0060790D01*
X0170605Y0060941D01*
X0170614Y0061092D01*
X0170628Y0061244D01*
X0170645Y0061394D01*
X0170666Y0061544D01*
X0170691Y0061694D01*
X0170719Y0061843D01*
X0170752Y0061991D01*
X0170788Y0062138D01*
X0170827Y0062285D01*
X0170871Y0062430D01*
X0170918Y0062574D01*
X0170969Y0062717D01*
X0171023Y0062858D01*
X0171081Y0062999D01*
X0171142Y0063137D01*
X0171207Y0063274D01*
X0171276Y0063410D01*
X0171347Y0063543D01*
X0171422Y0063675D01*
X0171501Y0063805D01*
X0171582Y0063932D01*
X0171667Y0064058D01*
X0171755Y0064182D01*
X0171846Y0064303D01*
X0171940Y0064422D01*
X0172038Y0064538D01*
X0172138Y0064652D01*
X0172240Y0064764D01*
X0172346Y0064872D01*
X0172454Y0064978D01*
X0172565Y0065082D01*
X0172679Y0065182D01*
X0172795Y0065280D01*
X0172914Y0065374D01*
X0182597Y0060638D02*
X0182595Y0060484D01*
X0182589Y0060330D01*
X0182579Y0060176D01*
X0182565Y0060022D01*
X0182548Y0059869D01*
X0182526Y0059717D01*
X0182500Y0059565D01*
X0182471Y0059413D01*
X0182437Y0059263D01*
X0182400Y0059113D01*
X0182359Y0058965D01*
X0182314Y0058817D01*
X0182265Y0058671D01*
X0182213Y0058526D01*
X0182157Y0058383D01*
X0182097Y0058240D01*
X0182034Y0058100D01*
X0181967Y0057961D01*
X0181896Y0057824D01*
X0181822Y0057689D01*
X0181745Y0057556D01*
X0181664Y0057424D01*
X0181580Y0057295D01*
X0181492Y0057168D01*
X0181401Y0057044D01*
X0181308Y0056922D01*
X0181210Y0056802D01*
X0181110Y0056685D01*
X0181007Y0056570D01*
X0180901Y0056458D01*
X0180793Y0056349D01*
X0180681Y0056243D01*
X0180567Y0056139D01*
X0180450Y0056039D01*
X0180331Y0055941D01*
X0180209Y0055847D01*
X0180084Y0055756D01*
X0182597Y0060638D02*
X0182595Y0060788D01*
X0182589Y0060939D01*
X0182580Y0061089D01*
X0182567Y0061238D01*
X0182550Y0061388D01*
X0182529Y0061537D01*
X0182505Y0061685D01*
X0182477Y0061833D01*
X0182445Y0061980D01*
X0182410Y0062126D01*
X0182370Y0062271D01*
X0182328Y0062415D01*
X0182281Y0062558D01*
X0182231Y0062700D01*
X0182178Y0062841D01*
X0182121Y0062980D01*
X0182061Y0063118D01*
X0181997Y0063254D01*
X0181930Y0063388D01*
X0181859Y0063521D01*
X0181785Y0063652D01*
X0181708Y0063781D01*
X0181627Y0063908D01*
X0181544Y0064033D01*
X0181457Y0064156D01*
X0181368Y0064277D01*
X0181275Y0064395D01*
X0181179Y0064511D01*
X0181081Y0064625D01*
X0180980Y0064736D01*
X0180875Y0064845D01*
X0180769Y0064950D01*
X0180659Y0065054D01*
X0180547Y0065154D01*
X0180433Y0065252D01*
X0180316Y0065346D01*
X0180197Y0065438D01*
X0170597Y0060638D02*
X0170599Y0060486D01*
X0170605Y0060335D01*
X0170614Y0060184D01*
X0170628Y0060032D01*
X0170645Y0059882D01*
X0170666Y0059732D01*
X0170691Y0059582D01*
X0170719Y0059433D01*
X0170752Y0059285D01*
X0170788Y0059138D01*
X0170827Y0058991D01*
X0170871Y0058846D01*
X0170918Y0058702D01*
X0170969Y0058559D01*
X0171023Y0058418D01*
X0171081Y0058277D01*
X0171142Y0058139D01*
X0171207Y0058002D01*
X0171276Y0057866D01*
X0171347Y0057733D01*
X0171422Y0057601D01*
X0171501Y0057471D01*
X0171582Y0057344D01*
X0171667Y0057218D01*
X0171755Y0057094D01*
X0171846Y0056973D01*
X0171940Y0056854D01*
X0172038Y0056738D01*
X0172138Y0056624D01*
X0172240Y0056512D01*
X0172346Y0056404D01*
X0172454Y0056298D01*
X0172565Y0056194D01*
X0172679Y0056094D01*
X0172795Y0055996D01*
X0172914Y0055902D01*
X0152642Y0065374D02*
X0152523Y0065280D01*
X0152407Y0065182D01*
X0152293Y0065082D01*
X0152182Y0064978D01*
X0152074Y0064872D01*
X0151968Y0064764D01*
X0151866Y0064652D01*
X0151766Y0064538D01*
X0151668Y0064422D01*
X0151574Y0064303D01*
X0151483Y0064182D01*
X0151395Y0064058D01*
X0151310Y0063932D01*
X0151229Y0063805D01*
X0151150Y0063675D01*
X0151075Y0063543D01*
X0151004Y0063410D01*
X0150935Y0063274D01*
X0150870Y0063137D01*
X0150809Y0062999D01*
X0150751Y0062858D01*
X0150697Y0062717D01*
X0150646Y0062574D01*
X0150599Y0062430D01*
X0150555Y0062285D01*
X0150516Y0062138D01*
X0150480Y0061991D01*
X0150447Y0061843D01*
X0150419Y0061694D01*
X0150394Y0061544D01*
X0150373Y0061394D01*
X0150356Y0061244D01*
X0150342Y0061092D01*
X0150333Y0060941D01*
X0150327Y0060790D01*
X0150325Y0060638D01*
X0159925Y0065438D02*
X0160044Y0065346D01*
X0160161Y0065252D01*
X0160275Y0065154D01*
X0160387Y0065054D01*
X0160497Y0064950D01*
X0160603Y0064845D01*
X0160708Y0064736D01*
X0160809Y0064625D01*
X0160907Y0064511D01*
X0161003Y0064395D01*
X0161096Y0064277D01*
X0161185Y0064156D01*
X0161272Y0064033D01*
X0161355Y0063908D01*
X0161436Y0063781D01*
X0161513Y0063652D01*
X0161587Y0063521D01*
X0161658Y0063388D01*
X0161725Y0063254D01*
X0161789Y0063118D01*
X0161849Y0062980D01*
X0161906Y0062841D01*
X0161959Y0062700D01*
X0162009Y0062558D01*
X0162056Y0062415D01*
X0162098Y0062271D01*
X0162138Y0062126D01*
X0162173Y0061980D01*
X0162205Y0061833D01*
X0162233Y0061685D01*
X0162257Y0061537D01*
X0162278Y0061388D01*
X0162295Y0061238D01*
X0162308Y0061089D01*
X0162317Y0060939D01*
X0162323Y0060788D01*
X0162325Y0060638D01*
X0152642Y0055902D02*
X0152523Y0055996D01*
X0152407Y0056094D01*
X0152293Y0056194D01*
X0152182Y0056298D01*
X0152074Y0056404D01*
X0151968Y0056512D01*
X0151866Y0056624D01*
X0151766Y0056738D01*
X0151668Y0056854D01*
X0151574Y0056973D01*
X0151483Y0057094D01*
X0151395Y0057218D01*
X0151310Y0057344D01*
X0151229Y0057471D01*
X0151150Y0057601D01*
X0151075Y0057733D01*
X0151004Y0057866D01*
X0150935Y0058002D01*
X0150870Y0058139D01*
X0150809Y0058277D01*
X0150751Y0058418D01*
X0150697Y0058559D01*
X0150646Y0058702D01*
X0150599Y0058846D01*
X0150555Y0058991D01*
X0150516Y0059138D01*
X0150480Y0059285D01*
X0150447Y0059433D01*
X0150419Y0059582D01*
X0150394Y0059732D01*
X0150373Y0059882D01*
X0150356Y0060032D01*
X0150342Y0060184D01*
X0150333Y0060335D01*
X0150327Y0060486D01*
X0150325Y0060638D01*
X0159812Y0055756D02*
X0159937Y0055847D01*
X0160059Y0055941D01*
X0160178Y0056039D01*
X0160295Y0056139D01*
X0160409Y0056243D01*
X0160521Y0056349D01*
X0160629Y0056458D01*
X0160735Y0056570D01*
X0160838Y0056685D01*
X0160938Y0056802D01*
X0161036Y0056922D01*
X0161129Y0057044D01*
X0161220Y0057168D01*
X0161308Y0057295D01*
X0161392Y0057424D01*
X0161473Y0057556D01*
X0161550Y0057689D01*
X0161624Y0057824D01*
X0161695Y0057961D01*
X0161762Y0058100D01*
X0161825Y0058240D01*
X0161885Y0058383D01*
X0161941Y0058526D01*
X0161993Y0058671D01*
X0162042Y0058817D01*
X0162087Y0058965D01*
X0162128Y0059113D01*
X0162165Y0059263D01*
X0162199Y0059413D01*
X0162228Y0059565D01*
X0162254Y0059717D01*
X0162276Y0059869D01*
X0162293Y0060022D01*
X0162307Y0060176D01*
X0162317Y0060330D01*
X0162323Y0060484D01*
X0162325Y0060638D01*
D13*
X0152356Y0067584D02*
X0152187Y0067485D01*
X0152021Y0067381D01*
X0151857Y0067274D01*
X0151696Y0067163D01*
X0151538Y0067048D01*
X0151383Y0066929D01*
X0151230Y0066806D01*
X0151081Y0066680D01*
X0150935Y0066550D01*
X0150792Y0066416D01*
X0150652Y0066279D01*
X0150516Y0066139D01*
X0150383Y0065995D01*
X0150254Y0065848D01*
X0150128Y0065698D01*
X0150007Y0065545D01*
X0149888Y0065389D01*
X0149774Y0065230D01*
X0149664Y0065069D01*
X0149558Y0064904D01*
X0149455Y0064738D01*
X0149357Y0064568D01*
X0149263Y0064397D01*
X0149173Y0064223D01*
X0149088Y0064047D01*
X0149006Y0063869D01*
X0148930Y0063689D01*
X0148857Y0063507D01*
X0148789Y0063324D01*
X0148726Y0063139D01*
X0148667Y0062952D01*
X0148613Y0062764D01*
X0148563Y0062575D01*
X0148518Y0062385D01*
X0148478Y0062193D01*
X0148442Y0062001D01*
X0148411Y0061808D01*
X0148385Y0061614D01*
X0148363Y0061419D01*
X0148347Y0061224D01*
X0148335Y0061029D01*
X0148327Y0060833D01*
X0148325Y0060638D01*
X0160090Y0067697D02*
X0160258Y0067604D01*
X0160424Y0067508D01*
X0160588Y0067408D01*
X0160749Y0067303D01*
X0160908Y0067195D01*
X0161064Y0067083D01*
X0161218Y0066967D01*
X0161368Y0066848D01*
X0161516Y0066725D01*
X0161661Y0066599D01*
X0161802Y0066469D01*
X0161941Y0066336D01*
X0162076Y0066199D01*
X0162208Y0066059D01*
X0162336Y0065917D01*
X0162461Y0065771D01*
X0162583Y0065622D01*
X0162701Y0065470D01*
X0162815Y0065316D01*
X0162925Y0065158D01*
X0163032Y0064999D01*
X0163135Y0064836D01*
X0163234Y0064671D01*
X0163329Y0064504D01*
X0163419Y0064335D01*
X0163506Y0064164D01*
X0163589Y0063990D01*
X0163667Y0063815D01*
X0163741Y0063637D01*
X0163811Y0063458D01*
X0163877Y0063278D01*
X0163938Y0063096D01*
X0163995Y0062912D01*
X0164047Y0062727D01*
X0164095Y0062541D01*
X0164139Y0062354D01*
X0164178Y0062166D01*
X0164212Y0061977D01*
X0164242Y0061787D01*
X0164267Y0061597D01*
X0164288Y0061406D01*
X0164304Y0061214D01*
X0164316Y0061022D01*
X0164323Y0060830D01*
X0164325Y0060638D01*
X0151157Y0054531D02*
X0151011Y0054658D01*
X0150869Y0054787D01*
X0150729Y0054921D01*
X0150593Y0055057D01*
X0150460Y0055197D01*
X0150330Y0055340D01*
X0150204Y0055487D01*
X0150082Y0055636D01*
X0149963Y0055788D01*
X0149848Y0055943D01*
X0149736Y0056100D01*
X0149629Y0056260D01*
X0149525Y0056423D01*
X0149426Y0056589D01*
X0149330Y0056756D01*
X0149238Y0056926D01*
X0149151Y0057098D01*
X0149067Y0057272D01*
X0148988Y0057448D01*
X0148914Y0057626D01*
X0148843Y0057806D01*
X0148777Y0057987D01*
X0148715Y0058170D01*
X0148658Y0058354D01*
X0148605Y0058540D01*
X0148557Y0058727D01*
X0148513Y0058915D01*
X0148474Y0059104D01*
X0148439Y0059294D01*
X0148409Y0059484D01*
X0148383Y0059675D01*
X0148362Y0059867D01*
X0148346Y0060060D01*
X0148334Y0060252D01*
X0148327Y0060445D01*
X0148325Y0060638D01*
X0161447Y0054492D02*
X0161595Y0054619D01*
X0161740Y0054749D01*
X0161881Y0054882D01*
X0162020Y0055019D01*
X0162155Y0055159D01*
X0162286Y0055303D01*
X0162414Y0055450D01*
X0162539Y0055599D01*
X0162660Y0055752D01*
X0162777Y0055907D01*
X0162890Y0056066D01*
X0162999Y0056227D01*
X0163104Y0056391D01*
X0163206Y0056557D01*
X0163303Y0056726D01*
X0163396Y0056896D01*
X0163485Y0057070D01*
X0163570Y0057245D01*
X0163650Y0057422D01*
X0163726Y0057601D01*
X0163798Y0057782D01*
X0163865Y0057965D01*
X0163928Y0058149D01*
X0163986Y0058335D01*
X0164040Y0058522D01*
X0164089Y0058710D01*
X0164134Y0058900D01*
X0164174Y0059090D01*
X0164209Y0059282D01*
X0164240Y0059474D01*
X0164266Y0059667D01*
X0164287Y0059861D01*
X0164304Y0060055D01*
X0164316Y0060249D01*
X0164323Y0060443D01*
X0164325Y0060638D01*
X0180362Y0067697D02*
X0180530Y0067604D01*
X0180696Y0067508D01*
X0180860Y0067408D01*
X0181021Y0067303D01*
X0181180Y0067195D01*
X0181336Y0067083D01*
X0181490Y0066967D01*
X0181640Y0066848D01*
X0181788Y0066725D01*
X0181933Y0066599D01*
X0182074Y0066469D01*
X0182213Y0066336D01*
X0182348Y0066199D01*
X0182480Y0066059D01*
X0182608Y0065917D01*
X0182733Y0065771D01*
X0182855Y0065622D01*
X0182973Y0065470D01*
X0183087Y0065316D01*
X0183197Y0065158D01*
X0183304Y0064999D01*
X0183407Y0064836D01*
X0183506Y0064671D01*
X0183601Y0064504D01*
X0183691Y0064335D01*
X0183778Y0064164D01*
X0183861Y0063990D01*
X0183939Y0063815D01*
X0184013Y0063637D01*
X0184083Y0063458D01*
X0184149Y0063278D01*
X0184210Y0063096D01*
X0184267Y0062912D01*
X0184319Y0062727D01*
X0184367Y0062541D01*
X0184411Y0062354D01*
X0184450Y0062166D01*
X0184484Y0061977D01*
X0184514Y0061787D01*
X0184539Y0061597D01*
X0184560Y0061406D01*
X0184576Y0061214D01*
X0184588Y0061022D01*
X0184595Y0060830D01*
X0184597Y0060638D01*
X0172628Y0067584D02*
X0172459Y0067485D01*
X0172293Y0067381D01*
X0172129Y0067274D01*
X0171968Y0067163D01*
X0171810Y0067048D01*
X0171655Y0066929D01*
X0171502Y0066806D01*
X0171353Y0066680D01*
X0171207Y0066550D01*
X0171064Y0066416D01*
X0170924Y0066279D01*
X0170788Y0066139D01*
X0170655Y0065995D01*
X0170526Y0065848D01*
X0170400Y0065698D01*
X0170279Y0065545D01*
X0170160Y0065389D01*
X0170046Y0065230D01*
X0169936Y0065069D01*
X0169830Y0064904D01*
X0169727Y0064738D01*
X0169629Y0064568D01*
X0169535Y0064397D01*
X0169445Y0064223D01*
X0169360Y0064047D01*
X0169278Y0063869D01*
X0169202Y0063689D01*
X0169129Y0063507D01*
X0169061Y0063324D01*
X0168998Y0063139D01*
X0168939Y0062952D01*
X0168885Y0062764D01*
X0168835Y0062575D01*
X0168790Y0062385D01*
X0168750Y0062193D01*
X0168714Y0062001D01*
X0168683Y0061808D01*
X0168657Y0061614D01*
X0168635Y0061419D01*
X0168619Y0061224D01*
X0168607Y0061029D01*
X0168599Y0060833D01*
X0168597Y0060638D01*
X0168599Y0060445D01*
X0168606Y0060252D01*
X0168618Y0060060D01*
X0168634Y0059867D01*
X0168655Y0059675D01*
X0168681Y0059484D01*
X0168711Y0059294D01*
X0168746Y0059104D01*
X0168785Y0058915D01*
X0168829Y0058727D01*
X0168877Y0058540D01*
X0168930Y0058354D01*
X0168987Y0058170D01*
X0169049Y0057987D01*
X0169115Y0057806D01*
X0169186Y0057626D01*
X0169260Y0057448D01*
X0169339Y0057272D01*
X0169423Y0057098D01*
X0169510Y0056926D01*
X0169602Y0056756D01*
X0169698Y0056589D01*
X0169797Y0056423D01*
X0169901Y0056260D01*
X0170008Y0056100D01*
X0170120Y0055943D01*
X0170235Y0055788D01*
X0170354Y0055636D01*
X0170476Y0055487D01*
X0170602Y0055340D01*
X0170732Y0055197D01*
X0170865Y0055057D01*
X0171001Y0054921D01*
X0171141Y0054787D01*
X0171283Y0054658D01*
X0171429Y0054531D01*
X0181719Y0054492D02*
X0181867Y0054619D01*
X0182012Y0054749D01*
X0182153Y0054882D01*
X0182292Y0055019D01*
X0182427Y0055159D01*
X0182558Y0055303D01*
X0182686Y0055450D01*
X0182811Y0055599D01*
X0182932Y0055752D01*
X0183049Y0055907D01*
X0183162Y0056066D01*
X0183271Y0056227D01*
X0183376Y0056391D01*
X0183478Y0056557D01*
X0183575Y0056726D01*
X0183668Y0056896D01*
X0183757Y0057070D01*
X0183842Y0057245D01*
X0183922Y0057422D01*
X0183998Y0057601D01*
X0184070Y0057782D01*
X0184137Y0057965D01*
X0184200Y0058149D01*
X0184258Y0058335D01*
X0184312Y0058522D01*
X0184361Y0058710D01*
X0184406Y0058900D01*
X0184446Y0059090D01*
X0184481Y0059282D01*
X0184512Y0059474D01*
X0184538Y0059667D01*
X0184559Y0059861D01*
X0184576Y0060055D01*
X0184588Y0060249D01*
X0184595Y0060443D01*
X0184597Y0060638D01*
D14*
X0168428Y0109039D03*
D15*
X0129353Y0103902D02*
X0129325Y0103902D01*
X0129325Y0100036D01*
X0129353Y0099965D02*
X0125416Y0099965D01*
X0129353Y0115713D02*
X0129353Y0119650D01*
X0101794Y0099965D02*
X0097857Y0099965D01*
X0097857Y0103902D01*
X0097857Y0115713D02*
X0097857Y0119650D01*
D16*
X0109349Y0049441D03*
X0126365Y0033268D03*
M02*
