G75*
%MOIN*%
%OFA0B0*%
%FSLAX25Y25*%
%IPPOS*%
%LPD*%
%AMOC8*
5,1,8,0,0,1.08239X$1,22.5*
%
%ADD10R,0.08661X0.02362*%
%ADD11C,0.07400*%
%ADD12R,0.03937X0.04331*%
%ADD13C,0.06731*%
%ADD14R,0.11024X0.11024*%
%ADD15OC8,0.05600*%
%ADD16R,0.05787X0.05000*%
%ADD17R,0.01575X0.03937*%
%ADD18R,0.05118X0.05906*%
%ADD19R,0.01575X0.05709*%
%ADD20R,0.07087X0.05906*%
%ADD21R,0.09843X0.05906*%
%ADD22R,0.02165X0.04724*%
%ADD23R,0.01181X0.02756*%
%ADD24R,0.01181X0.01772*%
%ADD25R,0.04724X0.02165*%
%ADD26R,0.19685X0.10433*%
%ADD27R,0.06299X0.07087*%
%ADD28R,0.04331X0.03937*%
%ADD29R,0.07677X0.05906*%
%ADD30C,0.00600*%
%ADD31C,0.03000*%
D10*
X0036376Y0007937D03*
X0036376Y0012937D03*
X0036376Y0017937D03*
X0036376Y0022937D03*
X0056849Y0022937D03*
X0056849Y0017937D03*
X0056849Y0012937D03*
X0056849Y0007937D03*
D11*
X0030435Y0090354D03*
X0019035Y0090354D03*
X0202928Y0083689D03*
X0203928Y0073689D03*
X0202928Y0063689D03*
X0203928Y0053689D03*
X0202928Y0043689D03*
D12*
X0183837Y0029067D03*
X0177144Y0029067D03*
X0152538Y0029154D03*
X0145845Y0029154D03*
X0130727Y0051677D03*
X0124034Y0051677D03*
X0110782Y0068732D03*
X0104089Y0068732D03*
X0122231Y0069264D03*
X0128924Y0069264D03*
X0078967Y0087370D03*
X0072274Y0087370D03*
X0072306Y0099839D03*
X0078998Y0099839D03*
X0042400Y0060650D03*
X0035707Y0060650D03*
X0035603Y0046878D03*
X0042296Y0046878D03*
X0024973Y0047203D03*
X0018280Y0047203D03*
X0025278Y0033906D03*
X0031971Y0033906D03*
X0071439Y0008650D03*
X0078132Y0008650D03*
X0093723Y0033433D03*
X0100416Y0033433D03*
X0179920Y0095646D03*
X0186613Y0095646D03*
X0186455Y0109559D03*
X0179762Y0109559D03*
D13*
X0133290Y0017331D03*
X0125416Y0017331D03*
X0117542Y0017331D03*
X0109668Y0017331D03*
X0101794Y0017331D03*
X0093920Y0017331D03*
D14*
X0086833Y0060638D03*
X0140376Y0060638D03*
D15*
X0156325Y0065638D03*
X0156325Y0055638D03*
X0176597Y0055638D03*
X0176597Y0065638D03*
D16*
X0076306Y0037488D03*
X0076306Y0020559D03*
D17*
X0161046Y0096835D03*
X0163605Y0096835D03*
X0166164Y0096835D03*
X0168723Y0096835D03*
X0168723Y0114157D03*
X0166164Y0114157D03*
X0163605Y0114157D03*
X0161046Y0114157D03*
D18*
X0145589Y0100803D03*
X0138896Y0100803D03*
X0060042Y0034654D03*
X0053349Y0034654D03*
X0150140Y0013768D03*
X0156833Y0013768D03*
D19*
X0118723Y0101047D03*
X0116164Y0101047D03*
X0113605Y0101047D03*
X0111046Y0101047D03*
X0108487Y0101047D03*
D20*
X0099097Y0111776D03*
X0128113Y0111776D03*
D21*
X0113605Y0111776D03*
D22*
X0112203Y0092028D03*
X0108463Y0092028D03*
X0115943Y0092028D03*
X0115943Y0081791D03*
X0112203Y0081791D03*
X0108463Y0081791D03*
D23*
X0111876Y0053575D03*
X0113845Y0053575D03*
X0115813Y0053575D03*
X0115813Y0049244D03*
X0113845Y0049244D03*
X0111876Y0049244D03*
D24*
X0126463Y0036909D03*
X0128431Y0036909D03*
X0130400Y0036909D03*
X0130400Y0031594D03*
X0128431Y0031594D03*
X0126463Y0031594D03*
D25*
X0071735Y0044299D03*
X0071735Y0048039D03*
X0071735Y0051780D03*
X0061498Y0051780D03*
X0061498Y0044299D03*
D26*
X0050613Y0075717D03*
X0050613Y0092803D03*
D27*
X0048250Y0111819D03*
X0037227Y0111819D03*
D28*
X0066951Y0072449D03*
X0073644Y0072449D03*
X0109471Y0033866D03*
X0116164Y0033866D03*
X0145691Y0044890D03*
X0152384Y0044890D03*
X0161439Y0044890D03*
X0168132Y0044890D03*
X0177187Y0044890D03*
X0183880Y0044890D03*
X0167542Y0029220D03*
X0160849Y0029220D03*
X0159156Y0082134D03*
X0165849Y0082134D03*
X0174943Y0081976D03*
X0181636Y0081976D03*
X0152266Y0082134D03*
X0145573Y0082134D03*
D29*
X0171183Y0013394D03*
X0182010Y0013394D03*
D30*
X0032243Y0020183D02*
X0022043Y0030383D01*
X0022043Y0036383D01*
X0022643Y0036983D01*
X0020243Y0039383D01*
X0014843Y0044783D01*
X0014843Y0060383D01*
X0040643Y0086183D01*
X0060443Y0086183D01*
X0067043Y0092783D01*
X0048443Y0111383D01*
X0048250Y0111819D01*
X0044843Y0116783D02*
X0061643Y0116783D01*
X0078443Y0099983D01*
X0078998Y0099839D01*
X0079043Y0099983D01*
X0098843Y0099983D01*
X0104843Y0105983D01*
X0116243Y0105983D01*
X0118043Y0104183D01*
X0118043Y0101783D01*
X0118643Y0101183D01*
X0118723Y0101047D01*
X0119243Y0100583D01*
X0121643Y0098183D01*
X0122843Y0095783D02*
X0110843Y0095783D01*
X0109043Y0093983D01*
X0109043Y0092183D01*
X0108463Y0092028D01*
X0112043Y0091583D02*
X0112043Y0090383D01*
X0110243Y0088583D01*
X0092843Y0088583D01*
X0090443Y0089783D02*
X0090443Y0081983D01*
X0103643Y0068783D01*
X0104089Y0068732D01*
X0104243Y0068183D01*
X0105443Y0068183D01*
X0108443Y0065183D01*
X0116243Y0065183D01*
X0125243Y0065183D01*
X0128843Y0068783D01*
X0128924Y0069264D01*
X0128843Y0069383D01*
X0125843Y0072383D01*
X0120443Y0072383D01*
X0112643Y0080183D01*
X0112643Y0081383D01*
X0112203Y0081791D01*
X0109043Y0081383D02*
X0109043Y0080183D01*
X0119843Y0069383D01*
X0121643Y0069383D01*
X0122231Y0069264D01*
X0128243Y0062783D02*
X0131843Y0066383D01*
X0131843Y0075983D01*
X0145043Y0089183D01*
X0145043Y0100583D01*
X0145589Y0100803D01*
X0145643Y0101183D01*
X0158243Y0113783D01*
X0160643Y0113783D01*
X0161046Y0114157D01*
X0166164Y0114157D02*
X0166643Y0113783D01*
X0166643Y0108983D01*
X0176243Y0099383D01*
X0176843Y0099383D01*
X0186443Y0108983D01*
X0186455Y0109559D01*
X0189443Y0111983D02*
X0189443Y0106583D01*
X0183443Y0100583D01*
X0183443Y0093383D01*
X0181043Y0090983D01*
X0169043Y0090983D01*
X0160643Y0082583D01*
X0159443Y0082583D01*
X0159156Y0082134D01*
X0159443Y0081983D01*
X0159443Y0072983D01*
X0159443Y0069383D02*
X0160043Y0069383D01*
X0156443Y0065783D01*
X0156325Y0065638D01*
X0156443Y0061583D02*
X0172643Y0061583D01*
X0176243Y0065183D01*
X0176597Y0065638D01*
X0180443Y0063983D02*
X0180443Y0067583D01*
X0178643Y0069383D01*
X0160043Y0069383D01*
X0159443Y0069383D02*
X0148643Y0080183D01*
X0148643Y0084383D01*
X0149843Y0085583D01*
X0148643Y0086783D01*
X0149843Y0085583D02*
X0158843Y0094583D01*
X0161243Y0094583D01*
X0162443Y0093383D01*
X0167243Y0093383D01*
X0168443Y0094583D01*
X0168443Y0096383D01*
X0168723Y0096835D01*
X0169043Y0092183D02*
X0163643Y0092183D01*
X0154043Y0082583D01*
X0152843Y0082583D01*
X0152266Y0082134D01*
X0145643Y0081983D02*
X0145643Y0079583D01*
X0154643Y0070583D01*
X0146843Y0066983D02*
X0146843Y0045983D01*
X0146243Y0045383D01*
X0145691Y0044890D01*
X0149243Y0042383D02*
X0149243Y0054383D01*
X0156443Y0061583D01*
X0156325Y0055638D02*
X0156443Y0055583D01*
X0166043Y0055583D01*
X0171443Y0050183D01*
X0171443Y0044783D01*
X0176843Y0039383D01*
X0176843Y0029183D01*
X0177144Y0029067D01*
X0180443Y0026783D02*
X0179243Y0025583D01*
X0143843Y0025583D01*
X0133643Y0035783D01*
X0133643Y0041783D01*
X0124043Y0051383D01*
X0124034Y0051677D01*
X0123443Y0051983D01*
X0123443Y0055583D01*
X0117443Y0061583D01*
X0115043Y0061583D01*
X0113843Y0060383D01*
X0113843Y0053783D01*
X0113845Y0053575D01*
X0112043Y0053783D02*
X0111876Y0053575D01*
X0111443Y0053183D01*
X0110243Y0051983D01*
X0110243Y0039383D01*
X0115643Y0033983D01*
X0116164Y0033866D01*
X0116243Y0033383D01*
X0117443Y0032183D01*
X0126443Y0032183D01*
X0126463Y0031594D01*
X0126443Y0031583D01*
X0126443Y0030383D01*
X0132443Y0024383D01*
X0155243Y0024383D01*
X0166043Y0013583D01*
X0170843Y0013583D01*
X0171183Y0013394D01*
X0170843Y0013583D02*
X0178643Y0021383D01*
X0181643Y0021383D01*
X0190643Y0030383D01*
X0190643Y0047183D01*
X0202643Y0059183D01*
X0202643Y0063383D01*
X0202928Y0063689D01*
X0208643Y0069383D02*
X0204443Y0073583D01*
X0203928Y0073689D01*
X0208643Y0069383D02*
X0208643Y0031583D01*
X0186443Y0009383D01*
X0166643Y0009383D01*
X0166043Y0009983D01*
X0166043Y0011783D01*
X0155843Y0021983D01*
X0113243Y0021983D01*
X0101843Y0033383D01*
X0100643Y0033383D01*
X0100416Y0033433D01*
X0097043Y0035783D02*
X0097043Y0030383D01*
X0109643Y0017783D01*
X0109668Y0017331D01*
X0109643Y0017183D01*
X0109643Y0014183D01*
X0098243Y0002783D01*
X0055043Y0002783D01*
X0045443Y0012383D01*
X0036443Y0012383D01*
X0036376Y0012937D01*
X0038243Y0009983D02*
X0036443Y0008183D01*
X0036376Y0007937D01*
X0038243Y0009983D02*
X0043043Y0009983D01*
X0049043Y0010583D02*
X0067643Y0010583D01*
X0068843Y0011783D01*
X0074843Y0011783D01*
X0077843Y0008783D01*
X0078132Y0008650D01*
X0078443Y0008783D01*
X0092843Y0008783D01*
X0101243Y0017183D01*
X0101794Y0017331D01*
X0094043Y0017783D02*
X0093920Y0017331D01*
X0093443Y0017183D01*
X0089243Y0012983D01*
X0057443Y0012983D01*
X0056849Y0012937D01*
X0061643Y0015383D02*
X0062243Y0015983D01*
X0062243Y0019583D01*
X0059243Y0022583D01*
X0057443Y0022583D01*
X0056849Y0022937D01*
X0056843Y0018383D02*
X0056849Y0017937D01*
X0056843Y0018383D02*
X0044843Y0018383D01*
X0040643Y0022583D01*
X0036443Y0022583D01*
X0036376Y0022937D01*
X0035843Y0023183D01*
X0031643Y0027383D01*
X0035243Y0030983D01*
X0035243Y0036383D01*
X0033443Y0038183D01*
X0027443Y0038183D01*
X0018443Y0047183D01*
X0018280Y0047203D01*
X0018443Y0047783D01*
X0018443Y0062183D01*
X0041243Y0084983D01*
X0065243Y0084983D01*
X0067643Y0082583D01*
X0064043Y0082583D02*
X0062243Y0080783D01*
X0066443Y0076583D01*
X0066443Y0072983D01*
X0066951Y0072449D01*
X0072443Y0074183D02*
X0073643Y0072983D01*
X0073644Y0072449D01*
X0074243Y0072383D01*
X0090443Y0072383D01*
X0102443Y0060383D01*
X0112043Y0060383D01*
X0112043Y0053783D01*
X0115813Y0053575D02*
X0116243Y0053183D01*
X0121043Y0048383D01*
X0122243Y0048383D01*
X0132443Y0038183D01*
X0132443Y0035783D01*
X0130643Y0033983D01*
X0130643Y0032183D01*
X0130400Y0031594D01*
X0128431Y0031594D02*
X0128243Y0032183D01*
X0128243Y0032783D01*
X0127643Y0033383D01*
X0127043Y0033383D01*
X0121043Y0039383D01*
X0119843Y0041783D02*
X0113843Y0047783D01*
X0113843Y0048983D01*
X0113845Y0049244D01*
X0115813Y0049244D02*
X0116243Y0048983D01*
X0121043Y0044183D01*
X0119843Y0041783D02*
X0124643Y0041783D01*
X0128243Y0038183D01*
X0128243Y0036983D01*
X0128431Y0036909D01*
X0130043Y0036383D02*
X0130400Y0036909D01*
X0130043Y0036383D02*
X0130043Y0035183D01*
X0129443Y0034583D01*
X0127643Y0034583D01*
X0126443Y0035783D01*
X0126443Y0036383D01*
X0126463Y0036909D01*
X0109471Y0033866D02*
X0109043Y0033983D01*
X0104843Y0033983D01*
X0097043Y0035783D02*
X0095843Y0036983D01*
X0091643Y0036983D01*
X0090443Y0035783D01*
X0090443Y0027983D01*
X0079043Y0016583D01*
X0071243Y0016583D01*
X0056243Y0031583D01*
X0056243Y0032183D01*
X0053843Y0034583D01*
X0053349Y0034654D01*
X0060042Y0034654D02*
X0060443Y0035183D01*
X0060443Y0040583D01*
X0056843Y0040583D02*
X0056843Y0051983D01*
X0045443Y0051983D01*
X0037043Y0060383D01*
X0035843Y0060383D01*
X0035707Y0060650D01*
X0039443Y0063383D02*
X0041843Y0060983D01*
X0042400Y0060650D01*
X0042443Y0060383D01*
X0046643Y0060383D01*
X0053243Y0053783D01*
X0064643Y0053783D01*
X0065243Y0053183D01*
X0065243Y0048383D01*
X0061643Y0044783D01*
X0061498Y0044299D01*
X0066443Y0048383D02*
X0066443Y0059783D01*
X0050843Y0075383D01*
X0050613Y0075717D01*
X0061043Y0081983D02*
X0040043Y0081983D01*
X0039443Y0081383D01*
X0039443Y0063383D01*
X0041243Y0052583D02*
X0035843Y0047183D01*
X0035603Y0046878D01*
X0035243Y0047183D01*
X0025043Y0047183D01*
X0024973Y0047203D01*
X0022643Y0036983D02*
X0028643Y0036983D01*
X0031643Y0033983D01*
X0031971Y0033906D01*
X0025643Y0033383D02*
X0025278Y0033906D01*
X0025643Y0033383D02*
X0031643Y0027383D01*
X0032243Y0020183D02*
X0041243Y0020183D01*
X0046043Y0015383D01*
X0061643Y0015383D01*
X0057443Y0008183D02*
X0056849Y0007937D01*
X0057443Y0008183D02*
X0067043Y0008183D01*
X0071439Y0008650D02*
X0071843Y0008183D01*
X0073043Y0008183D01*
X0076043Y0005183D01*
X0097043Y0005183D01*
X0094043Y0017783D02*
X0094043Y0033383D01*
X0093723Y0033433D01*
X0085043Y0037583D02*
X0076643Y0037583D01*
X0076306Y0037488D01*
X0071843Y0044183D02*
X0071735Y0044299D01*
X0071243Y0044783D01*
X0070043Y0044783D01*
X0066443Y0048383D01*
X0071843Y0051383D02*
X0071735Y0051780D01*
X0071843Y0051383D02*
X0073643Y0051383D01*
X0079643Y0045383D01*
X0097043Y0045383D01*
X0115813Y0053575D02*
X0116243Y0053783D01*
X0116243Y0059183D01*
X0114443Y0062783D02*
X0112043Y0060383D01*
X0114443Y0062783D02*
X0128243Y0062783D01*
X0131243Y0063983D02*
X0134243Y0066983D01*
X0134243Y0073583D01*
X0142043Y0071783D02*
X0146843Y0066983D01*
X0142043Y0071783D02*
X0142043Y0084383D01*
X0157643Y0099983D01*
X0162443Y0099983D01*
X0163043Y0099383D01*
X0163043Y0096983D01*
X0163605Y0096835D01*
X0161243Y0096383D02*
X0161243Y0094583D01*
X0161243Y0096383D02*
X0161046Y0096835D01*
X0169043Y0092183D02*
X0176243Y0099383D01*
X0179843Y0095783D01*
X0179920Y0095646D01*
X0181643Y0089783D02*
X0187043Y0095183D01*
X0186613Y0095646D01*
X0189443Y0092783D02*
X0190643Y0093983D01*
X0190643Y0112583D01*
X0185843Y0117383D01*
X0144443Y0117383D01*
X0122843Y0095783D01*
X0115943Y0092028D02*
X0115643Y0091583D01*
X0115643Y0090383D01*
X0112643Y0087383D01*
X0109043Y0087383D01*
X0106043Y0084383D01*
X0106043Y0078983D01*
X0110243Y0074783D01*
X0110243Y0068783D01*
X0110782Y0068732D01*
X0097643Y0068783D02*
X0097043Y0068783D01*
X0079043Y0086783D01*
X0078967Y0087370D01*
X0078443Y0087383D01*
X0078443Y0093383D01*
X0072443Y0099383D01*
X0072306Y0099839D01*
X0067043Y0092783D02*
X0072443Y0087383D01*
X0072274Y0087370D01*
X0072443Y0086783D01*
X0072443Y0074183D01*
X0062243Y0080783D02*
X0061043Y0081983D01*
X0050613Y0092803D02*
X0050243Y0092783D01*
X0032843Y0092783D01*
X0030443Y0090383D01*
X0030435Y0090354D01*
X0037227Y0111819D02*
X0037643Y0111983D01*
X0040043Y0111983D01*
X0044843Y0116783D01*
X0090443Y0089783D02*
X0100643Y0099983D01*
X0103643Y0099983D01*
X0107843Y0099983D01*
X0108443Y0100583D01*
X0108487Y0101047D01*
X0112203Y0092028D02*
X0112043Y0091583D01*
X0116243Y0087383D02*
X0116243Y0081983D01*
X0115943Y0081791D01*
X0120443Y0082583D02*
X0138443Y0100583D01*
X0138896Y0100803D01*
X0166043Y0082583D02*
X0165849Y0082134D01*
X0166043Y0082583D02*
X0169643Y0082583D01*
X0169643Y0080183D01*
X0181643Y0068183D01*
X0181643Y0060983D01*
X0176843Y0056183D01*
X0176597Y0055638D01*
X0172643Y0057383D02*
X0176843Y0061583D01*
X0178043Y0061583D01*
X0180443Y0063983D01*
X0183443Y0068183D02*
X0183443Y0045383D01*
X0183880Y0044890D01*
X0183443Y0044783D01*
X0179243Y0040583D01*
X0177187Y0044890D02*
X0176843Y0045383D01*
X0176843Y0049583D01*
X0172643Y0053783D01*
X0172643Y0057383D01*
X0169043Y0048983D02*
X0166643Y0046583D01*
X0168132Y0044890D01*
X0167843Y0045383D01*
X0166643Y0046583D01*
X0165443Y0047783D01*
X0157643Y0047783D01*
X0155243Y0045383D01*
X0152843Y0045383D01*
X0152384Y0044890D01*
X0149243Y0042383D02*
X0152243Y0039383D01*
X0152243Y0029183D01*
X0152538Y0029154D01*
X0145845Y0029154D02*
X0145643Y0029183D01*
X0145643Y0036983D01*
X0131243Y0051383D01*
X0130727Y0051677D01*
X0131243Y0051983D01*
X0131243Y0063983D01*
X0145643Y0081983D02*
X0145573Y0082134D01*
X0169643Y0082583D02*
X0176843Y0089783D01*
X0181643Y0089783D01*
X0189443Y0092783D02*
X0189443Y0038783D01*
X0184043Y0033383D01*
X0184043Y0029183D01*
X0183837Y0029067D01*
X0180443Y0026783D02*
X0180443Y0031583D01*
X0187043Y0038183D01*
X0187043Y0066383D01*
X0181643Y0071783D01*
X0181643Y0081383D01*
X0181636Y0081976D01*
X0175043Y0081383D02*
X0174943Y0081976D01*
X0175043Y0081383D02*
X0175043Y0076583D01*
X0183443Y0068183D01*
X0161439Y0044890D02*
X0161243Y0043583D01*
X0157043Y0043583D01*
X0161243Y0043583D02*
X0161243Y0029783D01*
X0160849Y0029220D01*
X0163643Y0033383D02*
X0167243Y0029783D01*
X0167542Y0029220D01*
X0179843Y0018983D02*
X0181643Y0017183D01*
X0181643Y0013583D01*
X0182010Y0013394D01*
X0156833Y0013768D02*
X0156443Y0014183D01*
X0154043Y0016583D01*
X0154043Y0017183D01*
X0153443Y0017783D01*
X0133643Y0017783D01*
X0133290Y0017331D01*
X0141443Y0005183D02*
X0149843Y0013583D01*
X0150140Y0013768D01*
X0161243Y0043583D02*
X0161243Y0044783D01*
X0161439Y0044890D01*
X0109043Y0081383D02*
X0108463Y0081791D01*
X0061498Y0051780D02*
X0061043Y0051983D01*
X0056843Y0051983D01*
X0042443Y0046583D02*
X0042296Y0046878D01*
X0042443Y0046583D02*
X0042443Y0025583D01*
X0041843Y0017783D02*
X0036443Y0017783D01*
X0036376Y0017937D01*
X0041843Y0017783D02*
X0049043Y0010583D01*
X0071843Y0024983D02*
X0076043Y0020783D01*
X0076306Y0020559D01*
X0071843Y0024983D02*
X0071843Y0044183D01*
X0175043Y0113783D02*
X0179243Y0109583D01*
X0179762Y0109559D01*
X0179843Y0109583D01*
X0183443Y0113183D01*
X0188243Y0113183D01*
X0189443Y0111983D01*
X0175043Y0113783D02*
X0169043Y0113783D01*
X0168723Y0114157D01*
D31*
X0148643Y0086783D03*
X0134243Y0073583D03*
X0120443Y0082583D03*
X0116243Y0087383D03*
X0121643Y0098183D03*
X0103643Y0099983D03*
X0092843Y0088583D03*
X0067643Y0082583D03*
X0064043Y0082583D03*
X0097643Y0068783D03*
X0116243Y0065183D03*
X0116243Y0059183D03*
X0097043Y0045383D03*
X0085043Y0037583D03*
X0104843Y0033983D03*
X0121043Y0039383D03*
X0121043Y0044183D03*
X0157043Y0043583D03*
X0169043Y0048983D03*
X0179243Y0040583D03*
X0163643Y0033383D03*
X0179843Y0018983D03*
X0141443Y0005183D03*
X0097043Y0005183D03*
X0067043Y0008183D03*
X0043043Y0009983D03*
X0042443Y0025583D03*
X0020243Y0039383D03*
X0041243Y0052583D03*
X0056843Y0040583D03*
X0060443Y0040583D03*
X0154643Y0070583D03*
X0159443Y0072983D03*
M02*
