G75*
%MOIN*%
%OFA0B0*%
%FSLAX25Y25*%
%IPPOS*%
%LPD*%
%AMOC8*
5,1,8,0,0,1.08239X$1,22.5*
%
%ADD10C,0.07400*%
%ADD11R,0.03937X0.04331*%
%ADD12C,0.06731*%
%ADD13R,0.12000X0.12000*%
%ADD14OC8,0.05600*%
%ADD15R,0.05787X0.05000*%
%ADD16R,0.01575X0.03937*%
%ADD17R,0.05118X0.05906*%
%ADD18R,0.04724X0.02165*%
%ADD19R,0.16535X0.05512*%
%ADD20R,0.06299X0.07087*%
%ADD21R,0.04331X0.03937*%
%ADD22R,0.01200X0.00600*%
%ADD23R,0.03075X0.05709*%
%ADD24R,0.03000X0.05709*%
%ADD25R,0.07087X0.05906*%
%ADD26R,0.09843X0.05906*%
%ADD27R,0.01181X0.03756*%
%ADD28R,0.02717X0.04724*%
%ADD29R,0.02165X0.03150*%
%ADD30R,0.08661X0.02362*%
%ADD31R,0.04331X0.05512*%
%ADD32R,0.08661X0.06299*%
%ADD33R,0.08661X0.05512*%
%ADD34C,0.00600*%
%ADD35C,0.03600*%
D10*
X0017148Y0086427D03*
X0017148Y0097827D03*
X0202140Y0082225D03*
X0203140Y0072225D03*
X0202140Y0062225D03*
X0203140Y0052225D03*
X0202140Y0042225D03*
D11*
X0187030Y0045001D03*
X0180337Y0045001D03*
X0180097Y0032808D03*
X0173404Y0032808D03*
X0163802Y0033190D03*
X0157109Y0033190D03*
X0133093Y0028820D03*
X0126400Y0028820D03*
X0129156Y0071379D03*
X0135849Y0071379D03*
X0161439Y0074922D03*
X0168132Y0074922D03*
X0181124Y0074528D03*
X0187817Y0074528D03*
X0132676Y0092213D03*
X0125983Y0092213D03*
X0116376Y0091954D03*
X0109683Y0091954D03*
X0080542Y0074095D03*
X0073849Y0074095D03*
X0042400Y0060761D03*
X0035707Y0060761D03*
X0025957Y0046428D03*
X0019264Y0046428D03*
X0019274Y0034036D03*
X0025967Y0034036D03*
X0041124Y0026477D03*
X0047817Y0026477D03*
X0055376Y0098375D03*
X0062069Y0098375D03*
X0161833Y0112324D03*
X0168526Y0112324D03*
D12*
X0133290Y0017048D03*
X0125416Y0017048D03*
X0117542Y0017048D03*
X0109668Y0017048D03*
X0101794Y0017048D03*
X0093920Y0017048D03*
D13*
X0086833Y0060355D03*
X0140376Y0060355D03*
D14*
X0156912Y0064961D03*
X0156912Y0054961D03*
X0176597Y0055355D03*
X0176597Y0065355D03*
D15*
X0077880Y0045080D03*
X0077880Y0028150D03*
D16*
X0094117Y0089072D03*
X0096676Y0089072D03*
X0099235Y0089072D03*
X0101794Y0089072D03*
X0101794Y0106394D03*
X0099235Y0106394D03*
X0096676Y0106394D03*
X0094117Y0106394D03*
D17*
X0080628Y0098158D03*
X0073935Y0098158D03*
D18*
X0063861Y0048741D03*
X0063861Y0045001D03*
X0063861Y0041261D03*
X0053624Y0041261D03*
X0053624Y0048741D03*
D19*
X0043920Y0073938D03*
X0043920Y0088505D03*
D20*
X0047069Y0107993D03*
X0036046Y0107993D03*
D21*
X0074038Y0085946D03*
X0080731Y0085946D03*
X0116951Y0080828D03*
X0123644Y0080828D03*
X0145691Y0075316D03*
X0152384Y0075316D03*
X0152266Y0087757D03*
X0145573Y0087757D03*
X0177581Y0111930D03*
X0184274Y0111930D03*
X0101203Y0046576D03*
X0094510Y0046576D03*
X0127581Y0045001D03*
X0134274Y0045001D03*
X0144117Y0044607D03*
X0150809Y0044607D03*
X0165455Y0045237D03*
X0172148Y0045237D03*
X0047857Y0012402D03*
X0041164Y0012402D03*
D22*
X0116557Y0105808D03*
X0119117Y0105808D03*
X0121676Y0105808D03*
D23*
X0125235Y0100808D03*
D24*
X0112998Y0100808D03*
D25*
X0104609Y0111536D03*
X0133624Y0111536D03*
D26*
X0119117Y0111536D03*
D27*
X0162817Y0096520D03*
X0164786Y0096520D03*
X0166754Y0096520D03*
X0166754Y0091120D03*
X0164786Y0091120D03*
X0162817Y0091120D03*
D28*
X0151597Y0100119D03*
X0147857Y0100119D03*
X0144117Y0100119D03*
X0144117Y0110356D03*
X0151597Y0110356D03*
D29*
X0176006Y0096969D03*
X0179746Y0096969D03*
X0183487Y0096969D03*
X0183487Y0087520D03*
X0179746Y0087520D03*
X0176006Y0087520D03*
D30*
X0119904Y0071005D03*
X0119904Y0066005D03*
X0119904Y0061005D03*
X0119904Y0056005D03*
X0099431Y0056005D03*
X0099431Y0061005D03*
X0099431Y0066005D03*
X0099431Y0071005D03*
D31*
X0101006Y0029253D03*
X0093132Y0029253D03*
D32*
X0112030Y0029646D03*
X0112030Y0040670D03*
D33*
X0144707Y0012324D03*
X0157306Y0012324D03*
X0169117Y0012324D03*
X0181715Y0012324D03*
X0078959Y0012324D03*
X0066361Y0012324D03*
D34*
X0037043Y0010900D02*
X0037043Y0032500D01*
X0032243Y0037300D01*
X0023243Y0037300D01*
X0022643Y0036700D01*
X0022643Y0031900D01*
X0021443Y0030700D01*
X0016643Y0030700D01*
X0016043Y0031300D01*
X0016043Y0073900D01*
X0048443Y0106300D01*
X0047069Y0107993D01*
X0047243Y0107500D01*
X0048443Y0106300D01*
X0055043Y0099700D01*
X0055043Y0098500D01*
X0055376Y0098375D01*
X0062069Y0098375D02*
X0062243Y0097900D01*
X0062243Y0091300D01*
X0067043Y0086500D01*
X0070643Y0088300D02*
X0070643Y0083500D01*
X0040643Y0083500D01*
X0019643Y0062500D01*
X0019643Y0046900D01*
X0019264Y0046428D01*
X0019643Y0046300D01*
X0019643Y0034300D01*
X0019274Y0034036D01*
X0023843Y0031900D02*
X0023843Y0031300D01*
X0022043Y0029500D01*
X0016043Y0029500D01*
X0014843Y0030700D01*
X0014843Y0077500D01*
X0035843Y0098500D01*
X0035843Y0107500D01*
X0036046Y0107993D01*
X0036443Y0108100D01*
X0041243Y0112900D01*
X0066443Y0112900D01*
X0077843Y0101500D01*
X0077843Y0100900D01*
X0080243Y0098500D01*
X0080628Y0098158D01*
X0080843Y0098500D01*
X0082643Y0098500D01*
X0085643Y0101500D01*
X0086843Y0104500D02*
X0089843Y0101500D01*
X0089843Y0098500D01*
X0094643Y0093700D01*
X0101243Y0093700D01*
X0113843Y0081100D01*
X0113843Y0078100D01*
X0116243Y0075700D01*
X0145643Y0075700D01*
X0145691Y0075316D01*
X0146243Y0075100D01*
X0149243Y0072100D01*
X0155243Y0072100D01*
X0161843Y0065500D01*
X0161843Y0045100D01*
X0157643Y0040900D01*
X0157643Y0037900D01*
X0157643Y0033700D01*
X0157109Y0033190D01*
X0160043Y0030700D02*
X0159443Y0030100D01*
X0154643Y0030100D01*
X0152843Y0031900D01*
X0124043Y0031900D01*
X0122243Y0030100D01*
X0112043Y0030100D01*
X0112030Y0029646D01*
X0119843Y0028300D02*
X0113243Y0021700D01*
X0098243Y0021700D01*
X0097643Y0021100D01*
X0097643Y0049300D01*
X0094043Y0052900D01*
X0094043Y0062500D01*
X0097043Y0065500D01*
X0098843Y0065500D01*
X0099431Y0066005D01*
X0101843Y0061300D02*
X0104843Y0064300D01*
X0112643Y0056500D01*
X0119843Y0056500D01*
X0119904Y0056005D01*
X0124043Y0053500D02*
X0124643Y0053500D01*
X0125243Y0054100D01*
X0125243Y0057700D01*
X0124043Y0058900D01*
X0115043Y0058900D01*
X0114443Y0059500D01*
X0114443Y0067900D01*
X0117443Y0070900D01*
X0119843Y0070900D01*
X0119904Y0071005D01*
X0119904Y0066005D02*
X0120443Y0065500D01*
X0124643Y0065500D01*
X0126443Y0063700D01*
X0124043Y0060700D02*
X0126443Y0058300D01*
X0126443Y0051100D01*
X0122843Y0047500D01*
X0119243Y0044500D02*
X0127043Y0044500D01*
X0127581Y0045001D01*
X0133043Y0044500D02*
X0124643Y0036100D01*
X0100643Y0036100D01*
X0100643Y0029500D01*
X0101006Y0029253D01*
X0093132Y0029253D02*
X0091043Y0031300D01*
X0094643Y0034900D01*
X0100643Y0036100D02*
X0100643Y0038500D01*
X0100043Y0039100D01*
X0100043Y0045700D01*
X0100643Y0046300D01*
X0101203Y0046576D01*
X0100643Y0046900D01*
X0100643Y0054700D01*
X0099443Y0055900D01*
X0099431Y0056005D01*
X0099431Y0061005D02*
X0099443Y0061300D01*
X0101843Y0061300D01*
X0104843Y0064300D02*
X0104843Y0067900D01*
X0104243Y0068500D01*
X0094643Y0068500D01*
X0081443Y0081700D01*
X0072443Y0081700D01*
X0070643Y0083500D01*
X0074038Y0085946D02*
X0074243Y0085900D01*
X0077243Y0082900D01*
X0083843Y0082900D01*
X0094643Y0093700D01*
X0095843Y0092500D02*
X0100043Y0092500D01*
X0101243Y0091300D01*
X0101243Y0089500D01*
X0101794Y0089072D01*
X0101843Y0088900D01*
X0101843Y0084100D01*
X0097043Y0084700D02*
X0107243Y0074500D01*
X0140843Y0074500D01*
X0156443Y0058900D01*
X0158243Y0058900D01*
X0160643Y0056500D01*
X0160643Y0052900D01*
X0155243Y0047500D01*
X0146843Y0047500D01*
X0144443Y0045100D01*
X0144117Y0044607D01*
X0147443Y0041500D02*
X0137843Y0041500D01*
X0134843Y0044500D01*
X0134274Y0045001D01*
X0134243Y0044500D01*
X0133043Y0044500D01*
X0134243Y0052900D02*
X0154643Y0052900D01*
X0156443Y0054700D01*
X0156912Y0054961D01*
X0165443Y0063700D02*
X0165443Y0045700D01*
X0165455Y0045237D01*
X0165443Y0045100D01*
X0160643Y0040300D01*
X0160643Y0031300D01*
X0160043Y0030700D01*
X0174443Y0016300D01*
X0174443Y0010900D01*
X0176843Y0008500D01*
X0186443Y0008500D01*
X0187043Y0009100D01*
X0187043Y0012700D01*
X0202043Y0027700D01*
X0202043Y0042100D01*
X0202140Y0042225D01*
X0197243Y0044500D02*
X0197243Y0066700D01*
X0202643Y0072100D01*
X0203140Y0072225D01*
X0191243Y0072100D02*
X0190043Y0070900D01*
X0185243Y0070900D01*
X0181643Y0074500D01*
X0181124Y0074528D01*
X0181043Y0074500D01*
X0178043Y0071500D01*
X0172643Y0071500D01*
X0172643Y0063700D01*
X0176243Y0060100D01*
X0176243Y0055900D01*
X0176597Y0055355D01*
X0176243Y0055300D01*
X0176243Y0045100D01*
X0172643Y0045100D01*
X0172148Y0045237D01*
X0169043Y0043300D02*
X0169043Y0061900D01*
X0158243Y0072700D01*
X0158243Y0096100D01*
X0161843Y0099700D01*
X0165443Y0099700D01*
X0164843Y0099100D01*
X0164843Y0096700D01*
X0164786Y0096520D01*
X0166754Y0096520D02*
X0167243Y0096700D01*
X0175643Y0096700D01*
X0176006Y0096969D01*
X0175643Y0097300D01*
X0184043Y0105700D01*
X0184043Y0111700D01*
X0184274Y0111930D01*
X0184043Y0112300D01*
X0179243Y0117100D01*
X0088043Y0117100D01*
X0079643Y0108700D01*
X0079643Y0104500D02*
X0086843Y0104500D01*
X0091043Y0107500D02*
X0091043Y0100300D01*
X0096443Y0094900D01*
X0107243Y0094900D01*
X0109643Y0092500D01*
X0109683Y0091954D01*
X0110243Y0091900D01*
X0113843Y0088300D01*
X0127643Y0088300D01*
X0129443Y0090100D01*
X0129443Y0094900D01*
X0138443Y0103900D01*
X0152843Y0103900D01*
X0154043Y0102700D01*
X0154043Y0096700D01*
X0145643Y0088300D01*
X0145573Y0087757D01*
X0145643Y0087700D01*
X0157043Y0076300D01*
X0157043Y0072100D01*
X0165443Y0063700D01*
X0166043Y0071500D02*
X0172643Y0071500D01*
X0168132Y0074922D02*
X0167843Y0075100D01*
X0167843Y0085900D01*
X0167243Y0086500D01*
X0164843Y0088900D01*
X0164843Y0090700D01*
X0164786Y0091120D01*
X0166754Y0091120D02*
X0167243Y0090700D01*
X0170243Y0087700D01*
X0175643Y0087700D01*
X0176006Y0087520D01*
X0175643Y0087100D01*
X0187643Y0075100D01*
X0187817Y0074528D01*
X0188843Y0078100D02*
X0190043Y0078100D01*
X0191243Y0076900D01*
X0191243Y0072100D01*
X0188843Y0078100D02*
X0179843Y0087100D01*
X0179746Y0087520D01*
X0182243Y0088900D02*
X0182243Y0089500D01*
X0181043Y0090700D01*
X0171443Y0090700D01*
X0162443Y0094900D02*
X0162443Y0096100D01*
X0162817Y0096520D01*
X0162443Y0094900D02*
X0161243Y0093700D01*
X0161243Y0079900D01*
X0161439Y0074922D02*
X0161843Y0074500D01*
X0163043Y0074500D01*
X0166043Y0071500D01*
X0176597Y0065355D02*
X0176843Y0064900D01*
X0190043Y0051700D01*
X0190043Y0042100D01*
X0189443Y0041500D01*
X0188843Y0041500D01*
X0180443Y0033100D01*
X0180097Y0032808D01*
X0182243Y0029500D02*
X0197243Y0044500D01*
X0187030Y0045001D02*
X0186443Y0045100D01*
X0183443Y0048100D01*
X0183443Y0054100D01*
X0180337Y0045001D02*
X0179843Y0045100D01*
X0176243Y0045100D01*
X0169043Y0043300D02*
X0164243Y0038500D01*
X0164243Y0033700D01*
X0163802Y0033190D01*
X0168443Y0033100D02*
X0173243Y0033100D01*
X0173404Y0032808D01*
X0182243Y0029500D02*
X0182243Y0012700D01*
X0181715Y0012324D01*
X0169117Y0012324D02*
X0169043Y0012700D01*
X0153443Y0028300D01*
X0133643Y0028300D01*
X0133093Y0028820D01*
X0126400Y0028820D02*
X0125843Y0028300D01*
X0119843Y0028300D01*
X0112030Y0040670D02*
X0111443Y0040300D01*
X0103043Y0040300D01*
X0112030Y0040670D02*
X0112043Y0040900D01*
X0116243Y0045100D01*
X0116243Y0045700D01*
X0124043Y0053500D01*
X0129443Y0057700D02*
X0134243Y0052900D01*
X0129443Y0057700D02*
X0129443Y0070900D01*
X0129156Y0071379D01*
X0135849Y0071379D02*
X0136043Y0070900D01*
X0140243Y0070900D01*
X0145643Y0075700D02*
X0145643Y0078100D01*
X0142043Y0081700D01*
X0142043Y0090100D01*
X0148643Y0096700D01*
X0149843Y0096700D01*
X0151043Y0097900D01*
X0151043Y0099700D01*
X0151597Y0100119D01*
X0147857Y0100119D02*
X0147443Y0099700D01*
X0147443Y0097900D01*
X0136643Y0087100D01*
X0136043Y0087100D01*
X0136643Y0087100D02*
X0130643Y0081100D01*
X0124043Y0081100D01*
X0123644Y0080828D01*
X0120443Y0077500D02*
X0134843Y0077500D01*
X0136043Y0078700D01*
X0145043Y0082900D02*
X0152243Y0075700D01*
X0152384Y0075316D01*
X0132443Y0087700D02*
X0131843Y0087100D01*
X0132443Y0087700D02*
X0132443Y0091900D01*
X0132676Y0092213D01*
X0126443Y0092500D02*
X0125983Y0092213D01*
X0125843Y0091900D01*
X0123443Y0091900D01*
X0122243Y0090700D01*
X0118043Y0090700D01*
X0116843Y0091900D01*
X0116376Y0091954D01*
X0116243Y0092500D01*
X0113243Y0095500D01*
X0108443Y0095500D01*
X0099443Y0104500D01*
X0099443Y0106300D01*
X0099235Y0106394D01*
X0101794Y0106394D02*
X0101843Y0106900D01*
X0107843Y0106900D01*
X0109643Y0108700D01*
X0109643Y0114700D01*
X0108443Y0115900D01*
X0099443Y0115900D01*
X0091043Y0107500D01*
X0094043Y0106300D02*
X0094117Y0106394D01*
X0094043Y0106300D02*
X0094043Y0101500D01*
X0080843Y0097900D02*
X0080628Y0098158D01*
X0080843Y0097900D02*
X0080843Y0086500D01*
X0080731Y0085946D01*
X0073643Y0091300D02*
X0070643Y0088300D01*
X0073643Y0091300D02*
X0073643Y0097900D01*
X0073935Y0098158D01*
X0079643Y0104500D02*
X0070043Y0114100D01*
X0034043Y0114100D01*
X0031643Y0111700D01*
X0031643Y0105700D01*
X0017243Y0091300D01*
X0017243Y0086500D01*
X0017148Y0086427D01*
X0032843Y0086500D02*
X0034643Y0088300D01*
X0043643Y0088300D01*
X0043920Y0088505D01*
X0043920Y0073938D02*
X0043643Y0073900D01*
X0039443Y0069700D01*
X0039443Y0057700D01*
X0050843Y0046300D01*
X0053843Y0046300D01*
X0058643Y0041500D01*
X0063443Y0041500D01*
X0063861Y0041261D01*
X0064043Y0041500D01*
X0074843Y0041500D01*
X0077843Y0044500D01*
X0077880Y0045080D01*
X0083243Y0046900D02*
X0079043Y0051100D01*
X0055643Y0051100D01*
X0053843Y0049300D01*
X0053624Y0048741D01*
X0053843Y0049300D02*
X0042443Y0060700D01*
X0042400Y0060761D01*
X0035843Y0060700D02*
X0035843Y0058900D01*
X0053243Y0041500D01*
X0053624Y0041261D01*
X0047843Y0040300D02*
X0059243Y0028900D01*
X0077243Y0028900D01*
X0077843Y0028300D01*
X0077880Y0028150D01*
X0078443Y0028300D01*
X0080243Y0030100D01*
X0083243Y0030100D01*
X0089243Y0033100D02*
X0091043Y0031300D01*
X0092843Y0029500D01*
X0093132Y0029253D01*
X0089243Y0033100D02*
X0056843Y0033100D01*
X0043643Y0046300D01*
X0026243Y0046300D01*
X0025957Y0046428D01*
X0025967Y0034036D02*
X0025643Y0033700D01*
X0023843Y0031900D01*
X0037043Y0032500D02*
X0044843Y0040300D01*
X0047843Y0040300D01*
X0046043Y0037300D02*
X0038243Y0029500D01*
X0038243Y0023500D01*
X0040643Y0021100D01*
X0040643Y0012700D01*
X0041164Y0012402D01*
X0038843Y0009100D02*
X0037043Y0010900D01*
X0038843Y0009100D02*
X0043643Y0009100D01*
X0046643Y0012100D01*
X0047843Y0012100D01*
X0047857Y0012402D01*
X0059843Y0008500D02*
X0140843Y0008500D01*
X0144443Y0012100D01*
X0144707Y0012324D01*
X0148643Y0016900D02*
X0133643Y0016900D01*
X0133290Y0017048D01*
X0148643Y0016900D02*
X0152843Y0012700D01*
X0157043Y0012700D01*
X0157306Y0012324D01*
X0147443Y0041500D02*
X0150443Y0044500D01*
X0150809Y0044607D01*
X0151043Y0045100D01*
X0157643Y0045100D01*
X0124043Y0060700D02*
X0120443Y0060700D01*
X0119904Y0061005D01*
X0112643Y0070900D02*
X0099443Y0070900D01*
X0099431Y0071005D01*
X0116951Y0080828D02*
X0117443Y0080500D01*
X0120443Y0077500D01*
X0126443Y0092500D02*
X0126443Y0093700D01*
X0137843Y0105100D01*
X0153443Y0105100D01*
X0155243Y0103300D01*
X0155243Y0096100D01*
X0152843Y0093700D01*
X0152843Y0088300D01*
X0152266Y0087757D01*
X0140843Y0096100D02*
X0144443Y0099700D01*
X0144117Y0100119D01*
X0145643Y0106300D02*
X0134243Y0106300D01*
X0128243Y0100300D01*
X0125243Y0100300D01*
X0125235Y0100808D01*
X0124643Y0100300D01*
X0124643Y0097300D01*
X0121043Y0093700D01*
X0118643Y0100300D02*
X0113243Y0100300D01*
X0112998Y0100808D01*
X0118643Y0100300D02*
X0121043Y0102700D01*
X0120443Y0102700D01*
X0121043Y0102700D02*
X0125243Y0106900D01*
X0125243Y0111100D01*
X0130043Y0115900D01*
X0164243Y0115900D01*
X0167243Y0112900D01*
X0168443Y0112900D01*
X0168526Y0112324D01*
X0161833Y0112324D02*
X0161243Y0112900D01*
X0154643Y0112900D01*
X0153443Y0114100D01*
X0148043Y0114100D01*
X0144443Y0110500D01*
X0144117Y0110356D01*
X0145643Y0106300D02*
X0149243Y0109900D01*
X0151043Y0109900D01*
X0151597Y0110356D01*
X0165443Y0099700D02*
X0177443Y0111700D01*
X0177581Y0111930D01*
X0179843Y0097300D02*
X0179746Y0096969D01*
X0179843Y0097300D02*
X0183443Y0097300D01*
X0183487Y0096969D01*
X0182243Y0088900D02*
X0183443Y0087700D01*
X0183487Y0087520D01*
X0097043Y0088900D02*
X0097043Y0084700D01*
X0097043Y0088900D02*
X0096676Y0089072D01*
X0094643Y0089500D02*
X0094643Y0091300D01*
X0095843Y0092500D01*
X0094643Y0089500D02*
X0094117Y0089072D01*
X0073643Y0078700D02*
X0073643Y0074500D01*
X0073849Y0074095D01*
X0080243Y0073900D02*
X0080542Y0074095D01*
X0080243Y0073900D02*
X0060443Y0054100D01*
X0063443Y0049300D02*
X0063861Y0048741D01*
X0063443Y0049300D02*
X0059843Y0045700D01*
X0058643Y0045700D01*
X0063861Y0045001D02*
X0064043Y0045100D01*
X0068843Y0045100D01*
X0083243Y0046900D02*
X0094043Y0046900D01*
X0094510Y0046576D01*
X0072443Y0025900D02*
X0047843Y0025900D01*
X0047817Y0026477D01*
X0042443Y0025900D02*
X0059843Y0008500D01*
X0066361Y0012324D02*
X0066443Y0012700D01*
X0066443Y0022900D01*
X0079043Y0012700D02*
X0078959Y0012324D01*
X0079043Y0012700D02*
X0105443Y0012700D01*
X0109643Y0016900D01*
X0109668Y0017048D01*
X0097643Y0021100D02*
X0094043Y0017500D01*
X0093920Y0017048D01*
X0042443Y0025900D02*
X0041243Y0025900D01*
X0041124Y0026477D01*
X0035843Y0060700D02*
X0035707Y0060761D01*
X0035243Y0061300D01*
X0031043Y0061300D01*
D35*
X0031043Y0061300D03*
X0058643Y0045700D03*
X0068843Y0045100D03*
X0060443Y0054100D03*
X0046043Y0037300D03*
X0066443Y0022900D03*
X0072443Y0025900D03*
X0083243Y0030100D03*
X0094643Y0034900D03*
X0103043Y0040300D03*
X0119243Y0044500D03*
X0122843Y0047500D03*
X0126443Y0063700D03*
X0140243Y0070900D03*
X0136043Y0078700D03*
X0145043Y0082900D03*
X0136043Y0087100D03*
X0131843Y0087100D03*
X0121043Y0093700D03*
X0120443Y0102700D03*
X0140843Y0096100D03*
X0161243Y0079900D03*
X0167243Y0086500D03*
X0171443Y0090700D03*
X0183443Y0054100D03*
X0157643Y0045100D03*
X0157643Y0037900D03*
X0168443Y0033100D03*
X0112643Y0070900D03*
X0101843Y0084100D03*
X0094043Y0101500D03*
X0085643Y0101500D03*
X0079643Y0108700D03*
X0067043Y0086500D03*
X0073643Y0078700D03*
X0032843Y0086500D03*
M02*
