G75*
%MOIN*%
%OFA0B0*%
%FSLAX25Y25*%
%IPPOS*%
%LPD*%
%AMOC8*
5,1,8,0,0,1.08239X$1,22.5*
%
%ADD10C,0.07400*%
%ADD11C,0.06731*%
%ADD12R,0.12000X0.12000*%
%ADD13OC8,0.05600*%
%ADD14R,0.08661X0.09843*%
%ADD15R,0.11024X0.09843*%
%ADD16R,0.09843X0.11024*%
%ADD17R,0.04724X0.05512*%
%ADD18C,0.00600*%
%ADD19C,0.03600*%
D10*
X0017148Y0086427D03*
X0017148Y0097827D03*
X0202140Y0082225D03*
X0203140Y0072225D03*
X0202140Y0062225D03*
X0203140Y0052225D03*
X0202140Y0042225D03*
D11*
X0133290Y0017048D03*
X0125416Y0017048D03*
X0117542Y0017048D03*
X0109668Y0017048D03*
X0101794Y0017048D03*
X0093920Y0017048D03*
D12*
X0086833Y0060355D03*
X0140376Y0060355D03*
D13*
X0156912Y0064961D03*
X0156912Y0054961D03*
X0176597Y0055355D03*
X0176597Y0065355D03*
D14*
X0028172Y0045198D03*
X0020691Y0075513D03*
D15*
X0057306Y0075513D03*
D16*
X0073644Y0057402D03*
D17*
X0070691Y0099725D03*
X0060849Y0117048D03*
X0080534Y0117048D03*
D18*
X0028643Y0045100D02*
X0039443Y0034300D01*
X0066443Y0034300D01*
X0066443Y0022900D01*
X0072443Y0025900D02*
X0092843Y0025900D01*
X0098843Y0019900D01*
X0122843Y0043900D01*
X0122843Y0047500D01*
X0119243Y0044500D02*
X0101843Y0044500D01*
X0101843Y0084100D01*
X0121043Y0093700D02*
X0136043Y0078700D01*
X0143243Y0078700D01*
X0156443Y0065500D01*
X0156912Y0064961D01*
X0152843Y0061300D02*
X0152843Y0045700D01*
X0156443Y0042100D01*
X0186443Y0042100D01*
X0201443Y0057100D01*
X0203843Y0057100D01*
X0206843Y0060100D01*
X0206843Y0064300D01*
X0203843Y0067300D01*
X0180443Y0067300D01*
X0151643Y0096100D01*
X0140843Y0096100D01*
X0136043Y0087100D02*
X0140243Y0082900D01*
X0145043Y0082900D01*
X0148043Y0079900D02*
X0139043Y0079900D01*
X0131843Y0087100D01*
X0118643Y0100300D01*
X0095243Y0100300D01*
X0094043Y0101500D01*
X0085643Y0101500D01*
X0079043Y0101500D01*
X0067643Y0090100D01*
X0073643Y0084100D01*
X0073643Y0078700D01*
X0067043Y0086500D02*
X0067043Y0051100D01*
X0071843Y0046300D01*
X0071843Y0043900D01*
X0070043Y0042100D01*
X0065843Y0042100D01*
X0060443Y0047500D01*
X0058643Y0045700D01*
X0050243Y0037300D01*
X0046043Y0037300D01*
X0060443Y0047500D02*
X0060443Y0054100D01*
X0064043Y0052300D02*
X0064043Y0089500D01*
X0067043Y0089500D01*
X0067643Y0090100D01*
X0064043Y0089500D02*
X0040043Y0089500D01*
X0026243Y0075700D01*
X0020843Y0075700D01*
X0020691Y0075513D01*
X0023243Y0069100D02*
X0016043Y0069100D01*
X0015443Y0069700D01*
X0015443Y0084700D01*
X0016643Y0085900D01*
X0017148Y0086427D01*
X0017243Y0086500D01*
X0032843Y0086500D01*
X0041843Y0097900D02*
X0017243Y0097900D01*
X0017148Y0097827D01*
X0041843Y0097900D02*
X0060443Y0116500D01*
X0060849Y0117048D01*
X0061043Y0116500D01*
X0064643Y0112900D01*
X0110243Y0112900D01*
X0120443Y0102700D01*
X0136043Y0087100D01*
X0148043Y0079900D02*
X0174443Y0053500D01*
X0166043Y0045100D01*
X0157643Y0045100D01*
X0157643Y0037900D02*
X0162443Y0033100D01*
X0168443Y0033100D01*
X0181043Y0051100D02*
X0176843Y0055300D01*
X0176597Y0055355D01*
X0176243Y0055300D01*
X0174443Y0053500D01*
X0181043Y0051100D02*
X0184643Y0051100D01*
X0195443Y0061900D01*
X0202043Y0061900D01*
X0202140Y0062225D01*
X0183443Y0054100D02*
X0178043Y0059500D01*
X0176843Y0059500D01*
X0161243Y0075100D01*
X0161243Y0079900D01*
X0167243Y0086500D02*
X0171443Y0090700D01*
X0143243Y0070900D02*
X0140243Y0070900D01*
X0143243Y0070900D02*
X0152843Y0061300D01*
X0133043Y0061300D02*
X0133043Y0017500D01*
X0133290Y0017048D01*
X0126443Y0033700D02*
X0110243Y0017500D01*
X0109668Y0017048D01*
X0101794Y0017048D02*
X0101243Y0017500D01*
X0098843Y0019900D01*
X0083243Y0030100D02*
X0097643Y0044500D01*
X0101843Y0044500D01*
X0103043Y0040300D02*
X0100043Y0040300D01*
X0094643Y0034900D01*
X0073643Y0043900D02*
X0073643Y0057100D01*
X0073644Y0057402D01*
X0064043Y0052300D02*
X0068843Y0047500D01*
X0068843Y0045100D01*
X0073643Y0043900D02*
X0066443Y0036700D01*
X0066443Y0034300D01*
X0028643Y0045100D02*
X0028172Y0045198D01*
X0028643Y0045700D01*
X0028643Y0046900D01*
X0056843Y0075100D01*
X0057306Y0075513D01*
X0031043Y0061300D02*
X0023243Y0069100D01*
X0070691Y0099725D02*
X0071243Y0100300D01*
X0079643Y0108700D01*
X0112643Y0070900D02*
X0123443Y0070900D01*
X0133043Y0061300D01*
X0126443Y0063700D02*
X0126443Y0033700D01*
D19*
X0119243Y0044500D03*
X0122843Y0047500D03*
X0103043Y0040300D03*
X0094643Y0034900D03*
X0083243Y0030100D03*
X0072443Y0025900D03*
X0066443Y0022900D03*
X0046043Y0037300D03*
X0058643Y0045700D03*
X0068843Y0045100D03*
X0060443Y0054100D03*
X0031043Y0061300D03*
X0032843Y0086500D03*
X0067043Y0086500D03*
X0073643Y0078700D03*
X0101843Y0084100D03*
X0121043Y0093700D03*
X0131843Y0087100D03*
X0136043Y0087100D03*
X0145043Y0082900D03*
X0136043Y0078700D03*
X0140243Y0070900D03*
X0126443Y0063700D03*
X0112643Y0070900D03*
X0140843Y0096100D03*
X0120443Y0102700D03*
X0094043Y0101500D03*
X0085643Y0101500D03*
X0079643Y0108700D03*
X0161243Y0079900D03*
X0167243Y0086500D03*
X0171443Y0090700D03*
X0183443Y0054100D03*
X0157643Y0045100D03*
X0157643Y0037900D03*
X0168443Y0033100D03*
M02*
