G75*
%MOIN*%
%OFA0B0*%
%FSLAX25Y25*%
%IPPOS*%
%LPD*%
%AMOC8*
5,1,8,0,0,1.08239X$1,22.5*
%
%ADD10C,0.00000*%
%ADD11C,0.00600*%
D10*
X0018133Y0013394D02*
X0018135Y0013534D01*
X0018141Y0013674D01*
X0018151Y0013813D01*
X0018165Y0013952D01*
X0018183Y0014091D01*
X0018204Y0014229D01*
X0018230Y0014367D01*
X0018260Y0014504D01*
X0018293Y0014639D01*
X0018331Y0014774D01*
X0018372Y0014908D01*
X0018417Y0015041D01*
X0018465Y0015172D01*
X0018518Y0015301D01*
X0018574Y0015430D01*
X0018633Y0015556D01*
X0018697Y0015681D01*
X0018763Y0015804D01*
X0018834Y0015925D01*
X0018907Y0016044D01*
X0018984Y0016161D01*
X0019065Y0016275D01*
X0019148Y0016387D01*
X0019235Y0016497D01*
X0019325Y0016605D01*
X0019417Y0016709D01*
X0019513Y0016811D01*
X0019612Y0016911D01*
X0019713Y0017007D01*
X0019817Y0017101D01*
X0019924Y0017191D01*
X0020033Y0017278D01*
X0020145Y0017363D01*
X0020259Y0017444D01*
X0020375Y0017522D01*
X0020493Y0017596D01*
X0020614Y0017667D01*
X0020736Y0017735D01*
X0020861Y0017799D01*
X0020987Y0017860D01*
X0021114Y0017917D01*
X0021244Y0017970D01*
X0021375Y0018020D01*
X0021507Y0018065D01*
X0021640Y0018108D01*
X0021775Y0018146D01*
X0021910Y0018180D01*
X0022047Y0018211D01*
X0022184Y0018238D01*
X0022322Y0018260D01*
X0022461Y0018279D01*
X0022600Y0018294D01*
X0022739Y0018305D01*
X0022879Y0018312D01*
X0023019Y0018315D01*
X0023159Y0018314D01*
X0023299Y0018309D01*
X0023438Y0018300D01*
X0023578Y0018287D01*
X0023717Y0018270D01*
X0023855Y0018249D01*
X0023993Y0018225D01*
X0024130Y0018196D01*
X0024266Y0018164D01*
X0024401Y0018127D01*
X0024535Y0018087D01*
X0024668Y0018043D01*
X0024799Y0017995D01*
X0024929Y0017944D01*
X0025058Y0017889D01*
X0025185Y0017830D01*
X0025310Y0017767D01*
X0025433Y0017702D01*
X0025555Y0017632D01*
X0025674Y0017559D01*
X0025792Y0017483D01*
X0025907Y0017404D01*
X0026020Y0017321D01*
X0026130Y0017235D01*
X0026238Y0017146D01*
X0026343Y0017054D01*
X0026446Y0016959D01*
X0026546Y0016861D01*
X0026643Y0016761D01*
X0026737Y0016657D01*
X0026829Y0016551D01*
X0026917Y0016443D01*
X0027002Y0016332D01*
X0027084Y0016218D01*
X0027163Y0016102D01*
X0027238Y0015985D01*
X0027310Y0015865D01*
X0027378Y0015743D01*
X0027443Y0015619D01*
X0027505Y0015493D01*
X0027563Y0015366D01*
X0027617Y0015237D01*
X0027668Y0015106D01*
X0027714Y0014974D01*
X0027757Y0014841D01*
X0027797Y0014707D01*
X0027832Y0014572D01*
X0027864Y0014435D01*
X0027891Y0014298D01*
X0027915Y0014160D01*
X0027935Y0014022D01*
X0027951Y0013883D01*
X0027963Y0013743D01*
X0027971Y0013604D01*
X0027975Y0013464D01*
X0027975Y0013324D01*
X0027971Y0013184D01*
X0027963Y0013045D01*
X0027951Y0012905D01*
X0027935Y0012766D01*
X0027915Y0012628D01*
X0027891Y0012490D01*
X0027864Y0012353D01*
X0027832Y0012216D01*
X0027797Y0012081D01*
X0027757Y0011947D01*
X0027714Y0011814D01*
X0027668Y0011682D01*
X0027617Y0011551D01*
X0027563Y0011422D01*
X0027505Y0011295D01*
X0027443Y0011169D01*
X0027378Y0011045D01*
X0027310Y0010923D01*
X0027238Y0010803D01*
X0027163Y0010686D01*
X0027084Y0010570D01*
X0027002Y0010456D01*
X0026917Y0010345D01*
X0026829Y0010237D01*
X0026737Y0010131D01*
X0026643Y0010027D01*
X0026546Y0009927D01*
X0026446Y0009829D01*
X0026343Y0009734D01*
X0026238Y0009642D01*
X0026130Y0009553D01*
X0026020Y0009467D01*
X0025907Y0009384D01*
X0025792Y0009305D01*
X0025674Y0009229D01*
X0025555Y0009156D01*
X0025433Y0009086D01*
X0025310Y0009021D01*
X0025185Y0008958D01*
X0025058Y0008899D01*
X0024929Y0008844D01*
X0024799Y0008793D01*
X0024668Y0008745D01*
X0024535Y0008701D01*
X0024401Y0008661D01*
X0024266Y0008624D01*
X0024130Y0008592D01*
X0023993Y0008563D01*
X0023855Y0008539D01*
X0023717Y0008518D01*
X0023578Y0008501D01*
X0023438Y0008488D01*
X0023299Y0008479D01*
X0023159Y0008474D01*
X0023019Y0008473D01*
X0022879Y0008476D01*
X0022739Y0008483D01*
X0022600Y0008494D01*
X0022461Y0008509D01*
X0022322Y0008528D01*
X0022184Y0008550D01*
X0022047Y0008577D01*
X0021910Y0008608D01*
X0021775Y0008642D01*
X0021640Y0008680D01*
X0021507Y0008723D01*
X0021375Y0008768D01*
X0021244Y0008818D01*
X0021114Y0008871D01*
X0020987Y0008928D01*
X0020861Y0008989D01*
X0020736Y0009053D01*
X0020614Y0009121D01*
X0020493Y0009192D01*
X0020375Y0009266D01*
X0020259Y0009344D01*
X0020145Y0009425D01*
X0020033Y0009510D01*
X0019924Y0009597D01*
X0019817Y0009687D01*
X0019713Y0009781D01*
X0019612Y0009877D01*
X0019513Y0009977D01*
X0019417Y0010079D01*
X0019325Y0010183D01*
X0019235Y0010291D01*
X0019148Y0010401D01*
X0019065Y0010513D01*
X0018984Y0010627D01*
X0018907Y0010744D01*
X0018834Y0010863D01*
X0018763Y0010984D01*
X0018697Y0011107D01*
X0018633Y0011232D01*
X0018574Y0011358D01*
X0018518Y0011487D01*
X0018465Y0011616D01*
X0018417Y0011747D01*
X0018372Y0011880D01*
X0018331Y0012014D01*
X0018293Y0012149D01*
X0018260Y0012284D01*
X0018230Y0012421D01*
X0018204Y0012559D01*
X0018183Y0012697D01*
X0018165Y0012836D01*
X0018151Y0012975D01*
X0018141Y0013114D01*
X0018135Y0013254D01*
X0018133Y0013394D01*
X0021676Y0060638D02*
X0021678Y0060753D01*
X0021684Y0060869D01*
X0021694Y0060984D01*
X0021708Y0061099D01*
X0021726Y0061213D01*
X0021748Y0061326D01*
X0021773Y0061439D01*
X0021803Y0061550D01*
X0021836Y0061661D01*
X0021873Y0061770D01*
X0021914Y0061878D01*
X0021959Y0061985D01*
X0022007Y0062090D01*
X0022059Y0062193D01*
X0022115Y0062294D01*
X0022174Y0062394D01*
X0022236Y0062491D01*
X0022302Y0062586D01*
X0022370Y0062679D01*
X0022442Y0062769D01*
X0022517Y0062857D01*
X0022596Y0062942D01*
X0022677Y0063024D01*
X0022760Y0063104D01*
X0022847Y0063180D01*
X0022936Y0063254D01*
X0023027Y0063324D01*
X0023121Y0063392D01*
X0023217Y0063456D01*
X0023316Y0063516D01*
X0023416Y0063573D01*
X0023518Y0063627D01*
X0023622Y0063677D01*
X0023728Y0063724D01*
X0023835Y0063767D01*
X0023944Y0063806D01*
X0024054Y0063841D01*
X0024165Y0063872D01*
X0024277Y0063900D01*
X0024390Y0063924D01*
X0024504Y0063944D01*
X0024619Y0063960D01*
X0024734Y0063972D01*
X0024849Y0063980D01*
X0024964Y0063984D01*
X0025080Y0063984D01*
X0025195Y0063980D01*
X0025310Y0063972D01*
X0025425Y0063960D01*
X0025540Y0063944D01*
X0025654Y0063924D01*
X0025767Y0063900D01*
X0025879Y0063872D01*
X0025990Y0063841D01*
X0026100Y0063806D01*
X0026209Y0063767D01*
X0026316Y0063724D01*
X0026422Y0063677D01*
X0026526Y0063627D01*
X0026628Y0063573D01*
X0026728Y0063516D01*
X0026827Y0063456D01*
X0026923Y0063392D01*
X0027017Y0063324D01*
X0027108Y0063254D01*
X0027197Y0063180D01*
X0027284Y0063104D01*
X0027367Y0063024D01*
X0027448Y0062942D01*
X0027527Y0062857D01*
X0027602Y0062769D01*
X0027674Y0062679D01*
X0027742Y0062586D01*
X0027808Y0062491D01*
X0027870Y0062394D01*
X0027929Y0062294D01*
X0027985Y0062193D01*
X0028037Y0062090D01*
X0028085Y0061985D01*
X0028130Y0061878D01*
X0028171Y0061770D01*
X0028208Y0061661D01*
X0028241Y0061550D01*
X0028271Y0061439D01*
X0028296Y0061326D01*
X0028318Y0061213D01*
X0028336Y0061099D01*
X0028350Y0060984D01*
X0028360Y0060869D01*
X0028366Y0060753D01*
X0028368Y0060638D01*
X0028366Y0060523D01*
X0028360Y0060407D01*
X0028350Y0060292D01*
X0028336Y0060177D01*
X0028318Y0060063D01*
X0028296Y0059950D01*
X0028271Y0059837D01*
X0028241Y0059726D01*
X0028208Y0059615D01*
X0028171Y0059506D01*
X0028130Y0059398D01*
X0028085Y0059291D01*
X0028037Y0059186D01*
X0027985Y0059083D01*
X0027929Y0058982D01*
X0027870Y0058882D01*
X0027808Y0058785D01*
X0027742Y0058690D01*
X0027674Y0058597D01*
X0027602Y0058507D01*
X0027527Y0058419D01*
X0027448Y0058334D01*
X0027367Y0058252D01*
X0027284Y0058172D01*
X0027197Y0058096D01*
X0027108Y0058022D01*
X0027017Y0057952D01*
X0026923Y0057884D01*
X0026827Y0057820D01*
X0026728Y0057760D01*
X0026628Y0057703D01*
X0026526Y0057649D01*
X0026422Y0057599D01*
X0026316Y0057552D01*
X0026209Y0057509D01*
X0026100Y0057470D01*
X0025990Y0057435D01*
X0025879Y0057404D01*
X0025767Y0057376D01*
X0025654Y0057352D01*
X0025540Y0057332D01*
X0025425Y0057316D01*
X0025310Y0057304D01*
X0025195Y0057296D01*
X0025080Y0057292D01*
X0024964Y0057292D01*
X0024849Y0057296D01*
X0024734Y0057304D01*
X0024619Y0057316D01*
X0024504Y0057332D01*
X0024390Y0057352D01*
X0024277Y0057376D01*
X0024165Y0057404D01*
X0024054Y0057435D01*
X0023944Y0057470D01*
X0023835Y0057509D01*
X0023728Y0057552D01*
X0023622Y0057599D01*
X0023518Y0057649D01*
X0023416Y0057703D01*
X0023316Y0057760D01*
X0023217Y0057820D01*
X0023121Y0057884D01*
X0023027Y0057952D01*
X0022936Y0058022D01*
X0022847Y0058096D01*
X0022760Y0058172D01*
X0022677Y0058252D01*
X0022596Y0058334D01*
X0022517Y0058419D01*
X0022442Y0058507D01*
X0022370Y0058597D01*
X0022302Y0058690D01*
X0022236Y0058785D01*
X0022174Y0058882D01*
X0022115Y0058982D01*
X0022059Y0059083D01*
X0022007Y0059186D01*
X0021959Y0059291D01*
X0021914Y0059398D01*
X0021873Y0059506D01*
X0021836Y0059615D01*
X0021803Y0059726D01*
X0021773Y0059837D01*
X0021748Y0059950D01*
X0021726Y0060063D01*
X0021708Y0060177D01*
X0021694Y0060292D01*
X0021684Y0060407D01*
X0021678Y0060523D01*
X0021676Y0060638D01*
X0049235Y0060638D02*
X0049237Y0060753D01*
X0049243Y0060869D01*
X0049253Y0060984D01*
X0049267Y0061099D01*
X0049285Y0061213D01*
X0049307Y0061326D01*
X0049332Y0061439D01*
X0049362Y0061550D01*
X0049395Y0061661D01*
X0049432Y0061770D01*
X0049473Y0061878D01*
X0049518Y0061985D01*
X0049566Y0062090D01*
X0049618Y0062193D01*
X0049674Y0062294D01*
X0049733Y0062394D01*
X0049795Y0062491D01*
X0049861Y0062586D01*
X0049929Y0062679D01*
X0050001Y0062769D01*
X0050076Y0062857D01*
X0050155Y0062942D01*
X0050236Y0063024D01*
X0050319Y0063104D01*
X0050406Y0063180D01*
X0050495Y0063254D01*
X0050586Y0063324D01*
X0050680Y0063392D01*
X0050776Y0063456D01*
X0050875Y0063516D01*
X0050975Y0063573D01*
X0051077Y0063627D01*
X0051181Y0063677D01*
X0051287Y0063724D01*
X0051394Y0063767D01*
X0051503Y0063806D01*
X0051613Y0063841D01*
X0051724Y0063872D01*
X0051836Y0063900D01*
X0051949Y0063924D01*
X0052063Y0063944D01*
X0052178Y0063960D01*
X0052293Y0063972D01*
X0052408Y0063980D01*
X0052523Y0063984D01*
X0052639Y0063984D01*
X0052754Y0063980D01*
X0052869Y0063972D01*
X0052984Y0063960D01*
X0053099Y0063944D01*
X0053213Y0063924D01*
X0053326Y0063900D01*
X0053438Y0063872D01*
X0053549Y0063841D01*
X0053659Y0063806D01*
X0053768Y0063767D01*
X0053875Y0063724D01*
X0053981Y0063677D01*
X0054085Y0063627D01*
X0054187Y0063573D01*
X0054287Y0063516D01*
X0054386Y0063456D01*
X0054482Y0063392D01*
X0054576Y0063324D01*
X0054667Y0063254D01*
X0054756Y0063180D01*
X0054843Y0063104D01*
X0054926Y0063024D01*
X0055007Y0062942D01*
X0055086Y0062857D01*
X0055161Y0062769D01*
X0055233Y0062679D01*
X0055301Y0062586D01*
X0055367Y0062491D01*
X0055429Y0062394D01*
X0055488Y0062294D01*
X0055544Y0062193D01*
X0055596Y0062090D01*
X0055644Y0061985D01*
X0055689Y0061878D01*
X0055730Y0061770D01*
X0055767Y0061661D01*
X0055800Y0061550D01*
X0055830Y0061439D01*
X0055855Y0061326D01*
X0055877Y0061213D01*
X0055895Y0061099D01*
X0055909Y0060984D01*
X0055919Y0060869D01*
X0055925Y0060753D01*
X0055927Y0060638D01*
X0055925Y0060523D01*
X0055919Y0060407D01*
X0055909Y0060292D01*
X0055895Y0060177D01*
X0055877Y0060063D01*
X0055855Y0059950D01*
X0055830Y0059837D01*
X0055800Y0059726D01*
X0055767Y0059615D01*
X0055730Y0059506D01*
X0055689Y0059398D01*
X0055644Y0059291D01*
X0055596Y0059186D01*
X0055544Y0059083D01*
X0055488Y0058982D01*
X0055429Y0058882D01*
X0055367Y0058785D01*
X0055301Y0058690D01*
X0055233Y0058597D01*
X0055161Y0058507D01*
X0055086Y0058419D01*
X0055007Y0058334D01*
X0054926Y0058252D01*
X0054843Y0058172D01*
X0054756Y0058096D01*
X0054667Y0058022D01*
X0054576Y0057952D01*
X0054482Y0057884D01*
X0054386Y0057820D01*
X0054287Y0057760D01*
X0054187Y0057703D01*
X0054085Y0057649D01*
X0053981Y0057599D01*
X0053875Y0057552D01*
X0053768Y0057509D01*
X0053659Y0057470D01*
X0053549Y0057435D01*
X0053438Y0057404D01*
X0053326Y0057376D01*
X0053213Y0057352D01*
X0053099Y0057332D01*
X0052984Y0057316D01*
X0052869Y0057304D01*
X0052754Y0057296D01*
X0052639Y0057292D01*
X0052523Y0057292D01*
X0052408Y0057296D01*
X0052293Y0057304D01*
X0052178Y0057316D01*
X0052063Y0057332D01*
X0051949Y0057352D01*
X0051836Y0057376D01*
X0051724Y0057404D01*
X0051613Y0057435D01*
X0051503Y0057470D01*
X0051394Y0057509D01*
X0051287Y0057552D01*
X0051181Y0057599D01*
X0051077Y0057649D01*
X0050975Y0057703D01*
X0050875Y0057760D01*
X0050776Y0057820D01*
X0050680Y0057884D01*
X0050586Y0057952D01*
X0050495Y0058022D01*
X0050406Y0058096D01*
X0050319Y0058172D01*
X0050236Y0058252D01*
X0050155Y0058334D01*
X0050076Y0058419D01*
X0050001Y0058507D01*
X0049929Y0058597D01*
X0049861Y0058690D01*
X0049795Y0058785D01*
X0049733Y0058882D01*
X0049674Y0058982D01*
X0049618Y0059083D01*
X0049566Y0059186D01*
X0049518Y0059291D01*
X0049473Y0059398D01*
X0049432Y0059506D01*
X0049395Y0059615D01*
X0049362Y0059726D01*
X0049332Y0059837D01*
X0049307Y0059950D01*
X0049285Y0060063D01*
X0049267Y0060177D01*
X0049253Y0060292D01*
X0049243Y0060407D01*
X0049237Y0060523D01*
X0049235Y0060638D01*
X0104451Y0103114D02*
X0104453Y0103195D01*
X0104459Y0103277D01*
X0104469Y0103358D01*
X0104483Y0103438D01*
X0104500Y0103517D01*
X0104522Y0103596D01*
X0104547Y0103673D01*
X0104576Y0103750D01*
X0104609Y0103824D01*
X0104646Y0103897D01*
X0104685Y0103968D01*
X0104729Y0104037D01*
X0104775Y0104104D01*
X0104825Y0104168D01*
X0104878Y0104230D01*
X0104934Y0104290D01*
X0104992Y0104346D01*
X0105054Y0104400D01*
X0105118Y0104451D01*
X0105184Y0104498D01*
X0105252Y0104542D01*
X0105323Y0104583D01*
X0105395Y0104620D01*
X0105470Y0104654D01*
X0105545Y0104684D01*
X0105623Y0104710D01*
X0105701Y0104733D01*
X0105780Y0104751D01*
X0105860Y0104766D01*
X0105941Y0104777D01*
X0106022Y0104784D01*
X0106104Y0104787D01*
X0106185Y0104786D01*
X0106266Y0104781D01*
X0106347Y0104772D01*
X0106428Y0104759D01*
X0106508Y0104742D01*
X0106586Y0104722D01*
X0106664Y0104697D01*
X0106741Y0104669D01*
X0106816Y0104637D01*
X0106889Y0104602D01*
X0106960Y0104563D01*
X0107030Y0104520D01*
X0107097Y0104475D01*
X0107163Y0104426D01*
X0107225Y0104374D01*
X0107285Y0104318D01*
X0107342Y0104260D01*
X0107397Y0104200D01*
X0107448Y0104136D01*
X0107496Y0104071D01*
X0107541Y0104003D01*
X0107583Y0103933D01*
X0107621Y0103861D01*
X0107656Y0103787D01*
X0107687Y0103712D01*
X0107714Y0103635D01*
X0107737Y0103557D01*
X0107757Y0103478D01*
X0107773Y0103398D01*
X0107785Y0103317D01*
X0107793Y0103236D01*
X0107797Y0103155D01*
X0107797Y0103073D01*
X0107793Y0102992D01*
X0107785Y0102911D01*
X0107773Y0102830D01*
X0107757Y0102750D01*
X0107737Y0102671D01*
X0107714Y0102593D01*
X0107687Y0102516D01*
X0107656Y0102441D01*
X0107621Y0102367D01*
X0107583Y0102295D01*
X0107541Y0102225D01*
X0107496Y0102157D01*
X0107448Y0102092D01*
X0107397Y0102028D01*
X0107342Y0101968D01*
X0107285Y0101910D01*
X0107225Y0101854D01*
X0107163Y0101802D01*
X0107097Y0101753D01*
X0107030Y0101708D01*
X0106961Y0101665D01*
X0106889Y0101626D01*
X0106816Y0101591D01*
X0106741Y0101559D01*
X0106664Y0101531D01*
X0106586Y0101506D01*
X0106508Y0101486D01*
X0106428Y0101469D01*
X0106347Y0101456D01*
X0106266Y0101447D01*
X0106185Y0101442D01*
X0106104Y0101441D01*
X0106022Y0101444D01*
X0105941Y0101451D01*
X0105860Y0101462D01*
X0105780Y0101477D01*
X0105701Y0101495D01*
X0105623Y0101518D01*
X0105545Y0101544D01*
X0105470Y0101574D01*
X0105395Y0101608D01*
X0105323Y0101645D01*
X0105252Y0101686D01*
X0105184Y0101730D01*
X0105118Y0101777D01*
X0105054Y0101828D01*
X0104992Y0101882D01*
X0104934Y0101938D01*
X0104878Y0101998D01*
X0104825Y0102060D01*
X0104775Y0102124D01*
X0104729Y0102191D01*
X0104685Y0102260D01*
X0104646Y0102331D01*
X0104609Y0102404D01*
X0104576Y0102478D01*
X0104547Y0102555D01*
X0104522Y0102632D01*
X0104500Y0102711D01*
X0104483Y0102790D01*
X0104469Y0102870D01*
X0104459Y0102951D01*
X0104453Y0103033D01*
X0104451Y0103114D01*
X0119412Y0103114D02*
X0119414Y0103195D01*
X0119420Y0103277D01*
X0119430Y0103358D01*
X0119444Y0103438D01*
X0119461Y0103517D01*
X0119483Y0103596D01*
X0119508Y0103673D01*
X0119537Y0103750D01*
X0119570Y0103824D01*
X0119607Y0103897D01*
X0119646Y0103968D01*
X0119690Y0104037D01*
X0119736Y0104104D01*
X0119786Y0104168D01*
X0119839Y0104230D01*
X0119895Y0104290D01*
X0119953Y0104346D01*
X0120015Y0104400D01*
X0120079Y0104451D01*
X0120145Y0104498D01*
X0120213Y0104542D01*
X0120284Y0104583D01*
X0120356Y0104620D01*
X0120431Y0104654D01*
X0120506Y0104684D01*
X0120584Y0104710D01*
X0120662Y0104733D01*
X0120741Y0104751D01*
X0120821Y0104766D01*
X0120902Y0104777D01*
X0120983Y0104784D01*
X0121065Y0104787D01*
X0121146Y0104786D01*
X0121227Y0104781D01*
X0121308Y0104772D01*
X0121389Y0104759D01*
X0121469Y0104742D01*
X0121547Y0104722D01*
X0121625Y0104697D01*
X0121702Y0104669D01*
X0121777Y0104637D01*
X0121850Y0104602D01*
X0121921Y0104563D01*
X0121991Y0104520D01*
X0122058Y0104475D01*
X0122124Y0104426D01*
X0122186Y0104374D01*
X0122246Y0104318D01*
X0122303Y0104260D01*
X0122358Y0104200D01*
X0122409Y0104136D01*
X0122457Y0104071D01*
X0122502Y0104003D01*
X0122544Y0103933D01*
X0122582Y0103861D01*
X0122617Y0103787D01*
X0122648Y0103712D01*
X0122675Y0103635D01*
X0122698Y0103557D01*
X0122718Y0103478D01*
X0122734Y0103398D01*
X0122746Y0103317D01*
X0122754Y0103236D01*
X0122758Y0103155D01*
X0122758Y0103073D01*
X0122754Y0102992D01*
X0122746Y0102911D01*
X0122734Y0102830D01*
X0122718Y0102750D01*
X0122698Y0102671D01*
X0122675Y0102593D01*
X0122648Y0102516D01*
X0122617Y0102441D01*
X0122582Y0102367D01*
X0122544Y0102295D01*
X0122502Y0102225D01*
X0122457Y0102157D01*
X0122409Y0102092D01*
X0122358Y0102028D01*
X0122303Y0101968D01*
X0122246Y0101910D01*
X0122186Y0101854D01*
X0122124Y0101802D01*
X0122058Y0101753D01*
X0121991Y0101708D01*
X0121922Y0101665D01*
X0121850Y0101626D01*
X0121777Y0101591D01*
X0121702Y0101559D01*
X0121625Y0101531D01*
X0121547Y0101506D01*
X0121469Y0101486D01*
X0121389Y0101469D01*
X0121308Y0101456D01*
X0121227Y0101447D01*
X0121146Y0101442D01*
X0121065Y0101441D01*
X0120983Y0101444D01*
X0120902Y0101451D01*
X0120821Y0101462D01*
X0120741Y0101477D01*
X0120662Y0101495D01*
X0120584Y0101518D01*
X0120506Y0101544D01*
X0120431Y0101574D01*
X0120356Y0101608D01*
X0120284Y0101645D01*
X0120213Y0101686D01*
X0120145Y0101730D01*
X0120079Y0101777D01*
X0120015Y0101828D01*
X0119953Y0101882D01*
X0119895Y0101938D01*
X0119839Y0101998D01*
X0119786Y0102060D01*
X0119736Y0102124D01*
X0119690Y0102191D01*
X0119646Y0102260D01*
X0119607Y0102331D01*
X0119570Y0102404D01*
X0119537Y0102478D01*
X0119508Y0102555D01*
X0119483Y0102632D01*
X0119461Y0102711D01*
X0119444Y0102790D01*
X0119430Y0102870D01*
X0119420Y0102951D01*
X0119414Y0103033D01*
X0119412Y0103114D01*
X0081931Y0109126D02*
X0081933Y0109210D01*
X0081939Y0109293D01*
X0081949Y0109376D01*
X0081963Y0109459D01*
X0081980Y0109541D01*
X0082002Y0109622D01*
X0082027Y0109701D01*
X0082056Y0109780D01*
X0082089Y0109857D01*
X0082125Y0109932D01*
X0082165Y0110006D01*
X0082208Y0110078D01*
X0082255Y0110147D01*
X0082305Y0110214D01*
X0082358Y0110279D01*
X0082414Y0110341D01*
X0082472Y0110401D01*
X0082534Y0110458D01*
X0082598Y0110511D01*
X0082665Y0110562D01*
X0082734Y0110609D01*
X0082805Y0110654D01*
X0082878Y0110694D01*
X0082953Y0110731D01*
X0083030Y0110765D01*
X0083108Y0110795D01*
X0083187Y0110821D01*
X0083268Y0110844D01*
X0083350Y0110862D01*
X0083432Y0110877D01*
X0083515Y0110888D01*
X0083598Y0110895D01*
X0083682Y0110898D01*
X0083766Y0110897D01*
X0083849Y0110892D01*
X0083933Y0110883D01*
X0084015Y0110870D01*
X0084097Y0110854D01*
X0084178Y0110833D01*
X0084259Y0110809D01*
X0084337Y0110781D01*
X0084415Y0110749D01*
X0084491Y0110713D01*
X0084565Y0110674D01*
X0084637Y0110632D01*
X0084707Y0110586D01*
X0084775Y0110537D01*
X0084840Y0110485D01*
X0084903Y0110430D01*
X0084963Y0110372D01*
X0085021Y0110311D01*
X0085075Y0110247D01*
X0085127Y0110181D01*
X0085175Y0110113D01*
X0085220Y0110042D01*
X0085261Y0109969D01*
X0085300Y0109895D01*
X0085334Y0109819D01*
X0085365Y0109741D01*
X0085392Y0109662D01*
X0085416Y0109581D01*
X0085435Y0109500D01*
X0085451Y0109418D01*
X0085463Y0109335D01*
X0085471Y0109251D01*
X0085475Y0109168D01*
X0085475Y0109084D01*
X0085471Y0109001D01*
X0085463Y0108917D01*
X0085451Y0108834D01*
X0085435Y0108752D01*
X0085416Y0108671D01*
X0085392Y0108590D01*
X0085365Y0108511D01*
X0085334Y0108433D01*
X0085300Y0108357D01*
X0085261Y0108283D01*
X0085220Y0108210D01*
X0085175Y0108139D01*
X0085127Y0108071D01*
X0085075Y0108005D01*
X0085021Y0107941D01*
X0084963Y0107880D01*
X0084903Y0107822D01*
X0084840Y0107767D01*
X0084775Y0107715D01*
X0084707Y0107666D01*
X0084637Y0107620D01*
X0084565Y0107578D01*
X0084491Y0107539D01*
X0084415Y0107503D01*
X0084337Y0107471D01*
X0084259Y0107443D01*
X0084178Y0107419D01*
X0084097Y0107398D01*
X0084015Y0107382D01*
X0083933Y0107369D01*
X0083849Y0107360D01*
X0083766Y0107355D01*
X0083682Y0107354D01*
X0083598Y0107357D01*
X0083515Y0107364D01*
X0083432Y0107375D01*
X0083350Y0107390D01*
X0083268Y0107408D01*
X0083187Y0107431D01*
X0083108Y0107457D01*
X0083030Y0107487D01*
X0082953Y0107521D01*
X0082878Y0107558D01*
X0082805Y0107598D01*
X0082734Y0107643D01*
X0082665Y0107690D01*
X0082598Y0107741D01*
X0082534Y0107794D01*
X0082472Y0107851D01*
X0082414Y0107911D01*
X0082358Y0107973D01*
X0082305Y0108038D01*
X0082255Y0108105D01*
X0082208Y0108174D01*
X0082165Y0108246D01*
X0082125Y0108320D01*
X0082089Y0108395D01*
X0082056Y0108472D01*
X0082027Y0108551D01*
X0082002Y0108630D01*
X0081980Y0108711D01*
X0081963Y0108793D01*
X0081949Y0108876D01*
X0081939Y0108959D01*
X0081933Y0109042D01*
X0081931Y0109126D01*
X0055159Y0109126D02*
X0055161Y0109210D01*
X0055167Y0109293D01*
X0055177Y0109376D01*
X0055191Y0109459D01*
X0055208Y0109541D01*
X0055230Y0109622D01*
X0055255Y0109701D01*
X0055284Y0109780D01*
X0055317Y0109857D01*
X0055353Y0109932D01*
X0055393Y0110006D01*
X0055436Y0110078D01*
X0055483Y0110147D01*
X0055533Y0110214D01*
X0055586Y0110279D01*
X0055642Y0110341D01*
X0055700Y0110401D01*
X0055762Y0110458D01*
X0055826Y0110511D01*
X0055893Y0110562D01*
X0055962Y0110609D01*
X0056033Y0110654D01*
X0056106Y0110694D01*
X0056181Y0110731D01*
X0056258Y0110765D01*
X0056336Y0110795D01*
X0056415Y0110821D01*
X0056496Y0110844D01*
X0056578Y0110862D01*
X0056660Y0110877D01*
X0056743Y0110888D01*
X0056826Y0110895D01*
X0056910Y0110898D01*
X0056994Y0110897D01*
X0057077Y0110892D01*
X0057161Y0110883D01*
X0057243Y0110870D01*
X0057325Y0110854D01*
X0057406Y0110833D01*
X0057487Y0110809D01*
X0057565Y0110781D01*
X0057643Y0110749D01*
X0057719Y0110713D01*
X0057793Y0110674D01*
X0057865Y0110632D01*
X0057935Y0110586D01*
X0058003Y0110537D01*
X0058068Y0110485D01*
X0058131Y0110430D01*
X0058191Y0110372D01*
X0058249Y0110311D01*
X0058303Y0110247D01*
X0058355Y0110181D01*
X0058403Y0110113D01*
X0058448Y0110042D01*
X0058489Y0109969D01*
X0058528Y0109895D01*
X0058562Y0109819D01*
X0058593Y0109741D01*
X0058620Y0109662D01*
X0058644Y0109581D01*
X0058663Y0109500D01*
X0058679Y0109418D01*
X0058691Y0109335D01*
X0058699Y0109251D01*
X0058703Y0109168D01*
X0058703Y0109084D01*
X0058699Y0109001D01*
X0058691Y0108917D01*
X0058679Y0108834D01*
X0058663Y0108752D01*
X0058644Y0108671D01*
X0058620Y0108590D01*
X0058593Y0108511D01*
X0058562Y0108433D01*
X0058528Y0108357D01*
X0058489Y0108283D01*
X0058448Y0108210D01*
X0058403Y0108139D01*
X0058355Y0108071D01*
X0058303Y0108005D01*
X0058249Y0107941D01*
X0058191Y0107880D01*
X0058131Y0107822D01*
X0058068Y0107767D01*
X0058003Y0107715D01*
X0057935Y0107666D01*
X0057865Y0107620D01*
X0057793Y0107578D01*
X0057719Y0107539D01*
X0057643Y0107503D01*
X0057565Y0107471D01*
X0057487Y0107443D01*
X0057406Y0107419D01*
X0057325Y0107398D01*
X0057243Y0107382D01*
X0057161Y0107369D01*
X0057077Y0107360D01*
X0056994Y0107355D01*
X0056910Y0107354D01*
X0056826Y0107357D01*
X0056743Y0107364D01*
X0056660Y0107375D01*
X0056578Y0107390D01*
X0056496Y0107408D01*
X0056415Y0107431D01*
X0056336Y0107457D01*
X0056258Y0107487D01*
X0056181Y0107521D01*
X0056106Y0107558D01*
X0056033Y0107598D01*
X0055962Y0107643D01*
X0055893Y0107690D01*
X0055826Y0107741D01*
X0055762Y0107794D01*
X0055700Y0107851D01*
X0055642Y0107911D01*
X0055586Y0107973D01*
X0055533Y0108038D01*
X0055483Y0108105D01*
X0055436Y0108174D01*
X0055393Y0108246D01*
X0055353Y0108320D01*
X0055317Y0108395D01*
X0055284Y0108472D01*
X0055255Y0108551D01*
X0055230Y0108630D01*
X0055208Y0108711D01*
X0055191Y0108793D01*
X0055177Y0108876D01*
X0055167Y0108959D01*
X0055161Y0109042D01*
X0055159Y0109126D01*
X0018133Y0107882D02*
X0018135Y0108022D01*
X0018141Y0108162D01*
X0018151Y0108301D01*
X0018165Y0108440D01*
X0018183Y0108579D01*
X0018204Y0108717D01*
X0018230Y0108855D01*
X0018260Y0108992D01*
X0018293Y0109127D01*
X0018331Y0109262D01*
X0018372Y0109396D01*
X0018417Y0109529D01*
X0018465Y0109660D01*
X0018518Y0109789D01*
X0018574Y0109918D01*
X0018633Y0110044D01*
X0018697Y0110169D01*
X0018763Y0110292D01*
X0018834Y0110413D01*
X0018907Y0110532D01*
X0018984Y0110649D01*
X0019065Y0110763D01*
X0019148Y0110875D01*
X0019235Y0110985D01*
X0019325Y0111093D01*
X0019417Y0111197D01*
X0019513Y0111299D01*
X0019612Y0111399D01*
X0019713Y0111495D01*
X0019817Y0111589D01*
X0019924Y0111679D01*
X0020033Y0111766D01*
X0020145Y0111851D01*
X0020259Y0111932D01*
X0020375Y0112010D01*
X0020493Y0112084D01*
X0020614Y0112155D01*
X0020736Y0112223D01*
X0020861Y0112287D01*
X0020987Y0112348D01*
X0021114Y0112405D01*
X0021244Y0112458D01*
X0021375Y0112508D01*
X0021507Y0112553D01*
X0021640Y0112596D01*
X0021775Y0112634D01*
X0021910Y0112668D01*
X0022047Y0112699D01*
X0022184Y0112726D01*
X0022322Y0112748D01*
X0022461Y0112767D01*
X0022600Y0112782D01*
X0022739Y0112793D01*
X0022879Y0112800D01*
X0023019Y0112803D01*
X0023159Y0112802D01*
X0023299Y0112797D01*
X0023438Y0112788D01*
X0023578Y0112775D01*
X0023717Y0112758D01*
X0023855Y0112737D01*
X0023993Y0112713D01*
X0024130Y0112684D01*
X0024266Y0112652D01*
X0024401Y0112615D01*
X0024535Y0112575D01*
X0024668Y0112531D01*
X0024799Y0112483D01*
X0024929Y0112432D01*
X0025058Y0112377D01*
X0025185Y0112318D01*
X0025310Y0112255D01*
X0025433Y0112190D01*
X0025555Y0112120D01*
X0025674Y0112047D01*
X0025792Y0111971D01*
X0025907Y0111892D01*
X0026020Y0111809D01*
X0026130Y0111723D01*
X0026238Y0111634D01*
X0026343Y0111542D01*
X0026446Y0111447D01*
X0026546Y0111349D01*
X0026643Y0111249D01*
X0026737Y0111145D01*
X0026829Y0111039D01*
X0026917Y0110931D01*
X0027002Y0110820D01*
X0027084Y0110706D01*
X0027163Y0110590D01*
X0027238Y0110473D01*
X0027310Y0110353D01*
X0027378Y0110231D01*
X0027443Y0110107D01*
X0027505Y0109981D01*
X0027563Y0109854D01*
X0027617Y0109725D01*
X0027668Y0109594D01*
X0027714Y0109462D01*
X0027757Y0109329D01*
X0027797Y0109195D01*
X0027832Y0109060D01*
X0027864Y0108923D01*
X0027891Y0108786D01*
X0027915Y0108648D01*
X0027935Y0108510D01*
X0027951Y0108371D01*
X0027963Y0108231D01*
X0027971Y0108092D01*
X0027975Y0107952D01*
X0027975Y0107812D01*
X0027971Y0107672D01*
X0027963Y0107533D01*
X0027951Y0107393D01*
X0027935Y0107254D01*
X0027915Y0107116D01*
X0027891Y0106978D01*
X0027864Y0106841D01*
X0027832Y0106704D01*
X0027797Y0106569D01*
X0027757Y0106435D01*
X0027714Y0106302D01*
X0027668Y0106170D01*
X0027617Y0106039D01*
X0027563Y0105910D01*
X0027505Y0105783D01*
X0027443Y0105657D01*
X0027378Y0105533D01*
X0027310Y0105411D01*
X0027238Y0105291D01*
X0027163Y0105174D01*
X0027084Y0105058D01*
X0027002Y0104944D01*
X0026917Y0104833D01*
X0026829Y0104725D01*
X0026737Y0104619D01*
X0026643Y0104515D01*
X0026546Y0104415D01*
X0026446Y0104317D01*
X0026343Y0104222D01*
X0026238Y0104130D01*
X0026130Y0104041D01*
X0026020Y0103955D01*
X0025907Y0103872D01*
X0025792Y0103793D01*
X0025674Y0103717D01*
X0025555Y0103644D01*
X0025433Y0103574D01*
X0025310Y0103509D01*
X0025185Y0103446D01*
X0025058Y0103387D01*
X0024929Y0103332D01*
X0024799Y0103281D01*
X0024668Y0103233D01*
X0024535Y0103189D01*
X0024401Y0103149D01*
X0024266Y0103112D01*
X0024130Y0103080D01*
X0023993Y0103051D01*
X0023855Y0103027D01*
X0023717Y0103006D01*
X0023578Y0102989D01*
X0023438Y0102976D01*
X0023299Y0102967D01*
X0023159Y0102962D01*
X0023019Y0102961D01*
X0022879Y0102964D01*
X0022739Y0102971D01*
X0022600Y0102982D01*
X0022461Y0102997D01*
X0022322Y0103016D01*
X0022184Y0103038D01*
X0022047Y0103065D01*
X0021910Y0103096D01*
X0021775Y0103130D01*
X0021640Y0103168D01*
X0021507Y0103211D01*
X0021375Y0103256D01*
X0021244Y0103306D01*
X0021114Y0103359D01*
X0020987Y0103416D01*
X0020861Y0103477D01*
X0020736Y0103541D01*
X0020614Y0103609D01*
X0020493Y0103680D01*
X0020375Y0103754D01*
X0020259Y0103832D01*
X0020145Y0103913D01*
X0020033Y0103998D01*
X0019924Y0104085D01*
X0019817Y0104175D01*
X0019713Y0104269D01*
X0019612Y0104365D01*
X0019513Y0104465D01*
X0019417Y0104567D01*
X0019325Y0104671D01*
X0019235Y0104779D01*
X0019148Y0104889D01*
X0019065Y0105001D01*
X0018984Y0105115D01*
X0018907Y0105232D01*
X0018834Y0105351D01*
X0018763Y0105472D01*
X0018697Y0105595D01*
X0018633Y0105720D01*
X0018574Y0105846D01*
X0018518Y0105975D01*
X0018465Y0106104D01*
X0018417Y0106235D01*
X0018372Y0106368D01*
X0018331Y0106502D01*
X0018293Y0106637D01*
X0018260Y0106772D01*
X0018230Y0106909D01*
X0018204Y0107047D01*
X0018183Y0107185D01*
X0018165Y0107324D01*
X0018151Y0107463D01*
X0018141Y0107602D01*
X0018135Y0107742D01*
X0018133Y0107882D01*
X0195298Y0107882D02*
X0195300Y0108022D01*
X0195306Y0108162D01*
X0195316Y0108301D01*
X0195330Y0108440D01*
X0195348Y0108579D01*
X0195369Y0108717D01*
X0195395Y0108855D01*
X0195425Y0108992D01*
X0195458Y0109127D01*
X0195496Y0109262D01*
X0195537Y0109396D01*
X0195582Y0109529D01*
X0195630Y0109660D01*
X0195683Y0109789D01*
X0195739Y0109918D01*
X0195798Y0110044D01*
X0195862Y0110169D01*
X0195928Y0110292D01*
X0195999Y0110413D01*
X0196072Y0110532D01*
X0196149Y0110649D01*
X0196230Y0110763D01*
X0196313Y0110875D01*
X0196400Y0110985D01*
X0196490Y0111093D01*
X0196582Y0111197D01*
X0196678Y0111299D01*
X0196777Y0111399D01*
X0196878Y0111495D01*
X0196982Y0111589D01*
X0197089Y0111679D01*
X0197198Y0111766D01*
X0197310Y0111851D01*
X0197424Y0111932D01*
X0197540Y0112010D01*
X0197658Y0112084D01*
X0197779Y0112155D01*
X0197901Y0112223D01*
X0198026Y0112287D01*
X0198152Y0112348D01*
X0198279Y0112405D01*
X0198409Y0112458D01*
X0198540Y0112508D01*
X0198672Y0112553D01*
X0198805Y0112596D01*
X0198940Y0112634D01*
X0199075Y0112668D01*
X0199212Y0112699D01*
X0199349Y0112726D01*
X0199487Y0112748D01*
X0199626Y0112767D01*
X0199765Y0112782D01*
X0199904Y0112793D01*
X0200044Y0112800D01*
X0200184Y0112803D01*
X0200324Y0112802D01*
X0200464Y0112797D01*
X0200603Y0112788D01*
X0200743Y0112775D01*
X0200882Y0112758D01*
X0201020Y0112737D01*
X0201158Y0112713D01*
X0201295Y0112684D01*
X0201431Y0112652D01*
X0201566Y0112615D01*
X0201700Y0112575D01*
X0201833Y0112531D01*
X0201964Y0112483D01*
X0202094Y0112432D01*
X0202223Y0112377D01*
X0202350Y0112318D01*
X0202475Y0112255D01*
X0202598Y0112190D01*
X0202720Y0112120D01*
X0202839Y0112047D01*
X0202957Y0111971D01*
X0203072Y0111892D01*
X0203185Y0111809D01*
X0203295Y0111723D01*
X0203403Y0111634D01*
X0203508Y0111542D01*
X0203611Y0111447D01*
X0203711Y0111349D01*
X0203808Y0111249D01*
X0203902Y0111145D01*
X0203994Y0111039D01*
X0204082Y0110931D01*
X0204167Y0110820D01*
X0204249Y0110706D01*
X0204328Y0110590D01*
X0204403Y0110473D01*
X0204475Y0110353D01*
X0204543Y0110231D01*
X0204608Y0110107D01*
X0204670Y0109981D01*
X0204728Y0109854D01*
X0204782Y0109725D01*
X0204833Y0109594D01*
X0204879Y0109462D01*
X0204922Y0109329D01*
X0204962Y0109195D01*
X0204997Y0109060D01*
X0205029Y0108923D01*
X0205056Y0108786D01*
X0205080Y0108648D01*
X0205100Y0108510D01*
X0205116Y0108371D01*
X0205128Y0108231D01*
X0205136Y0108092D01*
X0205140Y0107952D01*
X0205140Y0107812D01*
X0205136Y0107672D01*
X0205128Y0107533D01*
X0205116Y0107393D01*
X0205100Y0107254D01*
X0205080Y0107116D01*
X0205056Y0106978D01*
X0205029Y0106841D01*
X0204997Y0106704D01*
X0204962Y0106569D01*
X0204922Y0106435D01*
X0204879Y0106302D01*
X0204833Y0106170D01*
X0204782Y0106039D01*
X0204728Y0105910D01*
X0204670Y0105783D01*
X0204608Y0105657D01*
X0204543Y0105533D01*
X0204475Y0105411D01*
X0204403Y0105291D01*
X0204328Y0105174D01*
X0204249Y0105058D01*
X0204167Y0104944D01*
X0204082Y0104833D01*
X0203994Y0104725D01*
X0203902Y0104619D01*
X0203808Y0104515D01*
X0203711Y0104415D01*
X0203611Y0104317D01*
X0203508Y0104222D01*
X0203403Y0104130D01*
X0203295Y0104041D01*
X0203185Y0103955D01*
X0203072Y0103872D01*
X0202957Y0103793D01*
X0202839Y0103717D01*
X0202720Y0103644D01*
X0202598Y0103574D01*
X0202475Y0103509D01*
X0202350Y0103446D01*
X0202223Y0103387D01*
X0202094Y0103332D01*
X0201964Y0103281D01*
X0201833Y0103233D01*
X0201700Y0103189D01*
X0201566Y0103149D01*
X0201431Y0103112D01*
X0201295Y0103080D01*
X0201158Y0103051D01*
X0201020Y0103027D01*
X0200882Y0103006D01*
X0200743Y0102989D01*
X0200603Y0102976D01*
X0200464Y0102967D01*
X0200324Y0102962D01*
X0200184Y0102961D01*
X0200044Y0102964D01*
X0199904Y0102971D01*
X0199765Y0102982D01*
X0199626Y0102997D01*
X0199487Y0103016D01*
X0199349Y0103038D01*
X0199212Y0103065D01*
X0199075Y0103096D01*
X0198940Y0103130D01*
X0198805Y0103168D01*
X0198672Y0103211D01*
X0198540Y0103256D01*
X0198409Y0103306D01*
X0198279Y0103359D01*
X0198152Y0103416D01*
X0198026Y0103477D01*
X0197901Y0103541D01*
X0197779Y0103609D01*
X0197658Y0103680D01*
X0197540Y0103754D01*
X0197424Y0103832D01*
X0197310Y0103913D01*
X0197198Y0103998D01*
X0197089Y0104085D01*
X0196982Y0104175D01*
X0196878Y0104269D01*
X0196777Y0104365D01*
X0196678Y0104465D01*
X0196582Y0104567D01*
X0196490Y0104671D01*
X0196400Y0104779D01*
X0196313Y0104889D01*
X0196230Y0105001D01*
X0196149Y0105115D01*
X0196072Y0105232D01*
X0195999Y0105351D01*
X0195928Y0105472D01*
X0195862Y0105595D01*
X0195798Y0105720D01*
X0195739Y0105846D01*
X0195683Y0105975D01*
X0195630Y0106104D01*
X0195582Y0106235D01*
X0195537Y0106368D01*
X0195496Y0106502D01*
X0195458Y0106637D01*
X0195425Y0106772D01*
X0195395Y0106909D01*
X0195369Y0107047D01*
X0195348Y0107185D01*
X0195330Y0107324D01*
X0195316Y0107463D01*
X0195306Y0107602D01*
X0195300Y0107742D01*
X0195298Y0107882D01*
X0195298Y0013394D02*
X0195300Y0013534D01*
X0195306Y0013674D01*
X0195316Y0013813D01*
X0195330Y0013952D01*
X0195348Y0014091D01*
X0195369Y0014229D01*
X0195395Y0014367D01*
X0195425Y0014504D01*
X0195458Y0014639D01*
X0195496Y0014774D01*
X0195537Y0014908D01*
X0195582Y0015041D01*
X0195630Y0015172D01*
X0195683Y0015301D01*
X0195739Y0015430D01*
X0195798Y0015556D01*
X0195862Y0015681D01*
X0195928Y0015804D01*
X0195999Y0015925D01*
X0196072Y0016044D01*
X0196149Y0016161D01*
X0196230Y0016275D01*
X0196313Y0016387D01*
X0196400Y0016497D01*
X0196490Y0016605D01*
X0196582Y0016709D01*
X0196678Y0016811D01*
X0196777Y0016911D01*
X0196878Y0017007D01*
X0196982Y0017101D01*
X0197089Y0017191D01*
X0197198Y0017278D01*
X0197310Y0017363D01*
X0197424Y0017444D01*
X0197540Y0017522D01*
X0197658Y0017596D01*
X0197779Y0017667D01*
X0197901Y0017735D01*
X0198026Y0017799D01*
X0198152Y0017860D01*
X0198279Y0017917D01*
X0198409Y0017970D01*
X0198540Y0018020D01*
X0198672Y0018065D01*
X0198805Y0018108D01*
X0198940Y0018146D01*
X0199075Y0018180D01*
X0199212Y0018211D01*
X0199349Y0018238D01*
X0199487Y0018260D01*
X0199626Y0018279D01*
X0199765Y0018294D01*
X0199904Y0018305D01*
X0200044Y0018312D01*
X0200184Y0018315D01*
X0200324Y0018314D01*
X0200464Y0018309D01*
X0200603Y0018300D01*
X0200743Y0018287D01*
X0200882Y0018270D01*
X0201020Y0018249D01*
X0201158Y0018225D01*
X0201295Y0018196D01*
X0201431Y0018164D01*
X0201566Y0018127D01*
X0201700Y0018087D01*
X0201833Y0018043D01*
X0201964Y0017995D01*
X0202094Y0017944D01*
X0202223Y0017889D01*
X0202350Y0017830D01*
X0202475Y0017767D01*
X0202598Y0017702D01*
X0202720Y0017632D01*
X0202839Y0017559D01*
X0202957Y0017483D01*
X0203072Y0017404D01*
X0203185Y0017321D01*
X0203295Y0017235D01*
X0203403Y0017146D01*
X0203508Y0017054D01*
X0203611Y0016959D01*
X0203711Y0016861D01*
X0203808Y0016761D01*
X0203902Y0016657D01*
X0203994Y0016551D01*
X0204082Y0016443D01*
X0204167Y0016332D01*
X0204249Y0016218D01*
X0204328Y0016102D01*
X0204403Y0015985D01*
X0204475Y0015865D01*
X0204543Y0015743D01*
X0204608Y0015619D01*
X0204670Y0015493D01*
X0204728Y0015366D01*
X0204782Y0015237D01*
X0204833Y0015106D01*
X0204879Y0014974D01*
X0204922Y0014841D01*
X0204962Y0014707D01*
X0204997Y0014572D01*
X0205029Y0014435D01*
X0205056Y0014298D01*
X0205080Y0014160D01*
X0205100Y0014022D01*
X0205116Y0013883D01*
X0205128Y0013743D01*
X0205136Y0013604D01*
X0205140Y0013464D01*
X0205140Y0013324D01*
X0205136Y0013184D01*
X0205128Y0013045D01*
X0205116Y0012905D01*
X0205100Y0012766D01*
X0205080Y0012628D01*
X0205056Y0012490D01*
X0205029Y0012353D01*
X0204997Y0012216D01*
X0204962Y0012081D01*
X0204922Y0011947D01*
X0204879Y0011814D01*
X0204833Y0011682D01*
X0204782Y0011551D01*
X0204728Y0011422D01*
X0204670Y0011295D01*
X0204608Y0011169D01*
X0204543Y0011045D01*
X0204475Y0010923D01*
X0204403Y0010803D01*
X0204328Y0010686D01*
X0204249Y0010570D01*
X0204167Y0010456D01*
X0204082Y0010345D01*
X0203994Y0010237D01*
X0203902Y0010131D01*
X0203808Y0010027D01*
X0203711Y0009927D01*
X0203611Y0009829D01*
X0203508Y0009734D01*
X0203403Y0009642D01*
X0203295Y0009553D01*
X0203185Y0009467D01*
X0203072Y0009384D01*
X0202957Y0009305D01*
X0202839Y0009229D01*
X0202720Y0009156D01*
X0202598Y0009086D01*
X0202475Y0009021D01*
X0202350Y0008958D01*
X0202223Y0008899D01*
X0202094Y0008844D01*
X0201964Y0008793D01*
X0201833Y0008745D01*
X0201700Y0008701D01*
X0201566Y0008661D01*
X0201431Y0008624D01*
X0201295Y0008592D01*
X0201158Y0008563D01*
X0201020Y0008539D01*
X0200882Y0008518D01*
X0200743Y0008501D01*
X0200603Y0008488D01*
X0200464Y0008479D01*
X0200324Y0008474D01*
X0200184Y0008473D01*
X0200044Y0008476D01*
X0199904Y0008483D01*
X0199765Y0008494D01*
X0199626Y0008509D01*
X0199487Y0008528D01*
X0199349Y0008550D01*
X0199212Y0008577D01*
X0199075Y0008608D01*
X0198940Y0008642D01*
X0198805Y0008680D01*
X0198672Y0008723D01*
X0198540Y0008768D01*
X0198409Y0008818D01*
X0198279Y0008871D01*
X0198152Y0008928D01*
X0198026Y0008989D01*
X0197901Y0009053D01*
X0197779Y0009121D01*
X0197658Y0009192D01*
X0197540Y0009266D01*
X0197424Y0009344D01*
X0197310Y0009425D01*
X0197198Y0009510D01*
X0197089Y0009597D01*
X0196982Y0009687D01*
X0196878Y0009781D01*
X0196777Y0009877D01*
X0196678Y0009977D01*
X0196582Y0010079D01*
X0196490Y0010183D01*
X0196400Y0010291D01*
X0196313Y0010401D01*
X0196230Y0010513D01*
X0196149Y0010627D01*
X0196072Y0010744D01*
X0195999Y0010863D01*
X0195928Y0010984D01*
X0195862Y0011107D01*
X0195798Y0011232D01*
X0195739Y0011358D01*
X0195683Y0011487D01*
X0195630Y0011616D01*
X0195582Y0011747D01*
X0195537Y0011880D01*
X0195496Y0012014D01*
X0195458Y0012149D01*
X0195425Y0012284D01*
X0195395Y0012421D01*
X0195369Y0012559D01*
X0195348Y0012697D01*
X0195330Y0012836D01*
X0195316Y0012975D01*
X0195306Y0013114D01*
X0195300Y0013254D01*
X0195298Y0013394D01*
D11*
X0011243Y0013394D02*
X0011243Y0107882D01*
X0011246Y0108167D01*
X0011257Y0108453D01*
X0011274Y0108738D01*
X0011298Y0109022D01*
X0011329Y0109306D01*
X0011367Y0109589D01*
X0011412Y0109870D01*
X0011463Y0110151D01*
X0011521Y0110431D01*
X0011586Y0110709D01*
X0011658Y0110985D01*
X0011736Y0111259D01*
X0011821Y0111532D01*
X0011913Y0111802D01*
X0012011Y0112070D01*
X0012115Y0112336D01*
X0012226Y0112599D01*
X0012343Y0112859D01*
X0012466Y0113117D01*
X0012596Y0113371D01*
X0012732Y0113622D01*
X0012873Y0113870D01*
X0013021Y0114114D01*
X0013174Y0114355D01*
X0013334Y0114591D01*
X0013499Y0114824D01*
X0013669Y0115053D01*
X0013845Y0115278D01*
X0014027Y0115498D01*
X0014213Y0115714D01*
X0014405Y0115925D01*
X0014602Y0116132D01*
X0014804Y0116334D01*
X0015011Y0116531D01*
X0015222Y0116723D01*
X0015438Y0116909D01*
X0015658Y0117091D01*
X0015883Y0117267D01*
X0016112Y0117437D01*
X0016345Y0117602D01*
X0016581Y0117762D01*
X0016822Y0117915D01*
X0017066Y0118063D01*
X0017314Y0118204D01*
X0017565Y0118340D01*
X0017819Y0118470D01*
X0018077Y0118593D01*
X0018337Y0118710D01*
X0018600Y0118821D01*
X0018866Y0118925D01*
X0019134Y0119023D01*
X0019404Y0119115D01*
X0019677Y0119200D01*
X0019951Y0119278D01*
X0020227Y0119350D01*
X0020505Y0119415D01*
X0020785Y0119473D01*
X0021066Y0119524D01*
X0021347Y0119569D01*
X0021630Y0119607D01*
X0021914Y0119638D01*
X0022198Y0119662D01*
X0022483Y0119679D01*
X0022769Y0119690D01*
X0023054Y0119693D01*
X0200219Y0119693D01*
X0200504Y0119690D01*
X0200790Y0119679D01*
X0201075Y0119662D01*
X0201359Y0119638D01*
X0201643Y0119607D01*
X0201926Y0119569D01*
X0202207Y0119524D01*
X0202488Y0119473D01*
X0202768Y0119415D01*
X0203046Y0119350D01*
X0203322Y0119278D01*
X0203596Y0119200D01*
X0203869Y0119115D01*
X0204139Y0119023D01*
X0204407Y0118925D01*
X0204673Y0118821D01*
X0204936Y0118710D01*
X0205196Y0118593D01*
X0205454Y0118470D01*
X0205708Y0118340D01*
X0205959Y0118204D01*
X0206207Y0118063D01*
X0206451Y0117915D01*
X0206692Y0117762D01*
X0206928Y0117602D01*
X0207161Y0117437D01*
X0207390Y0117267D01*
X0207615Y0117091D01*
X0207835Y0116909D01*
X0208051Y0116723D01*
X0208262Y0116531D01*
X0208469Y0116334D01*
X0208671Y0116132D01*
X0208868Y0115925D01*
X0209060Y0115714D01*
X0209246Y0115498D01*
X0209428Y0115278D01*
X0209604Y0115053D01*
X0209774Y0114824D01*
X0209939Y0114591D01*
X0210099Y0114355D01*
X0210252Y0114114D01*
X0210400Y0113870D01*
X0210541Y0113622D01*
X0210677Y0113371D01*
X0210807Y0113117D01*
X0210930Y0112859D01*
X0211047Y0112599D01*
X0211158Y0112336D01*
X0211262Y0112070D01*
X0211360Y0111802D01*
X0211452Y0111532D01*
X0211537Y0111259D01*
X0211615Y0110985D01*
X0211687Y0110709D01*
X0211752Y0110431D01*
X0211810Y0110151D01*
X0211861Y0109870D01*
X0211906Y0109589D01*
X0211944Y0109306D01*
X0211975Y0109022D01*
X0211999Y0108738D01*
X0212016Y0108453D01*
X0212027Y0108167D01*
X0212030Y0107882D01*
X0212030Y0013394D01*
X0212027Y0013109D01*
X0212016Y0012823D01*
X0211999Y0012538D01*
X0211975Y0012254D01*
X0211944Y0011970D01*
X0211906Y0011687D01*
X0211861Y0011406D01*
X0211810Y0011125D01*
X0211752Y0010845D01*
X0211687Y0010567D01*
X0211615Y0010291D01*
X0211537Y0010017D01*
X0211452Y0009744D01*
X0211360Y0009474D01*
X0211262Y0009206D01*
X0211158Y0008940D01*
X0211047Y0008677D01*
X0210930Y0008417D01*
X0210807Y0008159D01*
X0210677Y0007905D01*
X0210541Y0007654D01*
X0210400Y0007406D01*
X0210252Y0007162D01*
X0210099Y0006921D01*
X0209939Y0006685D01*
X0209774Y0006452D01*
X0209604Y0006223D01*
X0209428Y0005998D01*
X0209246Y0005778D01*
X0209060Y0005562D01*
X0208868Y0005351D01*
X0208671Y0005144D01*
X0208469Y0004942D01*
X0208262Y0004745D01*
X0208051Y0004553D01*
X0207835Y0004367D01*
X0207615Y0004185D01*
X0207390Y0004009D01*
X0207161Y0003839D01*
X0206928Y0003674D01*
X0206692Y0003514D01*
X0206451Y0003361D01*
X0206207Y0003213D01*
X0205959Y0003072D01*
X0205708Y0002936D01*
X0205454Y0002806D01*
X0205196Y0002683D01*
X0204936Y0002566D01*
X0204673Y0002455D01*
X0204407Y0002351D01*
X0204139Y0002253D01*
X0203869Y0002161D01*
X0203596Y0002076D01*
X0203322Y0001998D01*
X0203046Y0001926D01*
X0202768Y0001861D01*
X0202488Y0001803D01*
X0202207Y0001752D01*
X0201926Y0001707D01*
X0201643Y0001669D01*
X0201359Y0001638D01*
X0201075Y0001614D01*
X0200790Y0001597D01*
X0200504Y0001586D01*
X0200219Y0001583D01*
X0023054Y0001583D01*
X0022769Y0001586D01*
X0022483Y0001597D01*
X0022198Y0001614D01*
X0021914Y0001638D01*
X0021630Y0001669D01*
X0021347Y0001707D01*
X0021066Y0001752D01*
X0020785Y0001803D01*
X0020505Y0001861D01*
X0020227Y0001926D01*
X0019951Y0001998D01*
X0019677Y0002076D01*
X0019404Y0002161D01*
X0019134Y0002253D01*
X0018866Y0002351D01*
X0018600Y0002455D01*
X0018337Y0002566D01*
X0018077Y0002683D01*
X0017819Y0002806D01*
X0017565Y0002936D01*
X0017314Y0003072D01*
X0017066Y0003213D01*
X0016822Y0003361D01*
X0016581Y0003514D01*
X0016345Y0003674D01*
X0016112Y0003839D01*
X0015883Y0004009D01*
X0015658Y0004185D01*
X0015438Y0004367D01*
X0015222Y0004553D01*
X0015011Y0004745D01*
X0014804Y0004942D01*
X0014602Y0005144D01*
X0014405Y0005351D01*
X0014213Y0005562D01*
X0014027Y0005778D01*
X0013845Y0005998D01*
X0013669Y0006223D01*
X0013499Y0006452D01*
X0013334Y0006685D01*
X0013174Y0006921D01*
X0013021Y0007162D01*
X0012873Y0007406D01*
X0012732Y0007654D01*
X0012596Y0007905D01*
X0012466Y0008159D01*
X0012343Y0008417D01*
X0012226Y0008677D01*
X0012115Y0008940D01*
X0012011Y0009206D01*
X0011913Y0009474D01*
X0011821Y0009744D01*
X0011736Y0010017D01*
X0011658Y0010291D01*
X0011586Y0010567D01*
X0011521Y0010845D01*
X0011463Y0011125D01*
X0011412Y0011406D01*
X0011367Y0011687D01*
X0011329Y0011970D01*
X0011298Y0012254D01*
X0011274Y0012538D01*
X0011257Y0012823D01*
X0011246Y0013109D01*
X0011243Y0013394D01*
M02*
