G75*
%MOIN*%
%OFA0B0*%
%FSLAX25Y25*%
%IPPOS*%
%LPD*%
%AMOC8*
5,1,8,0,0,1.08239X$1,22.5*
%
%ADD10C,0.07400*%
%ADD11R,0.09449X0.10236*%
%ADD12R,0.04331X0.05512*%
%ADD13R,0.10236X0.09449*%
%ADD14R,0.05512X0.05512*%
%ADD15R,0.04724X0.02756*%
%ADD16R,0.08661X0.02362*%
%ADD17OC8,0.05200*%
%ADD18R,0.04724X0.05512*%
%ADD19R,0.03150X0.03543*%
%ADD20R,0.05906X0.05118*%
%ADD21R,0.05118X0.05906*%
%ADD22R,0.05906X0.06299*%
%ADD23R,0.04724X0.04724*%
%ADD24R,0.06000X0.12500*%
%ADD25R,0.05937X0.05937*%
%ADD26R,0.08268X0.08268*%
%ADD27R,0.05000X0.05787*%
%ADD28R,0.05709X0.01575*%
%ADD29R,0.05906X0.07087*%
%ADD30R,0.05906X0.09843*%
%ADD31R,0.02165X0.04724*%
%ADD32R,0.01181X0.02756*%
%ADD33R,0.01181X0.01772*%
%ADD34R,0.16535X0.05512*%
%ADD35C,0.00600*%
%ADD36C,0.02978*%
D10*
X0025224Y0094813D03*
X0025224Y0104813D03*
X0105047Y0145581D03*
X0115047Y0145581D03*
X0138984Y0145581D03*
X0148984Y0145581D03*
X0149398Y0110561D03*
X0139398Y0110561D03*
X0157787Y0085341D03*
X0157787Y0075341D03*
X0178768Y0075128D03*
X0178768Y0085128D03*
X0190579Y0110561D03*
X0200579Y0110561D03*
X0196268Y0203270D03*
X0206268Y0203270D03*
X0322311Y0149931D03*
X0332311Y0149931D03*
X0331874Y0108793D03*
X0321874Y0108793D03*
X0024378Y0318306D03*
X0024378Y0329706D03*
D11*
X0296878Y0260955D03*
X0296878Y0235758D03*
X0339575Y0079321D03*
X0339575Y0054124D03*
X0099992Y0052305D03*
X0099992Y0027108D03*
D12*
X0041031Y0145935D03*
X0033157Y0145935D03*
X0033197Y0173533D03*
X0041071Y0173533D03*
X0040992Y0201132D03*
X0033118Y0201132D03*
X0064654Y0201171D03*
X0072528Y0201171D03*
X0040953Y0232628D03*
X0033079Y0232628D03*
X0107882Y0291683D03*
X0115756Y0291683D03*
X0143315Y0315384D03*
X0151189Y0315384D03*
X0151189Y0193376D03*
X0143315Y0193376D03*
X0285059Y0078860D03*
X0292933Y0078860D03*
X0308740Y0079037D03*
X0316614Y0079037D03*
D13*
X0127795Y0082994D03*
X0102598Y0082994D03*
D14*
X0048791Y0078663D03*
X0048791Y0063703D03*
X0048846Y0043238D03*
X0048846Y0028278D03*
X0233846Y0217203D03*
X0233846Y0232163D03*
X0233874Y0272348D03*
X0233874Y0287309D03*
D15*
X0115205Y0169596D03*
X0100638Y0169596D03*
D16*
X0220677Y0086545D03*
X0220677Y0081545D03*
X0220677Y0076545D03*
X0220677Y0071545D03*
X0241150Y0071545D03*
X0241150Y0076545D03*
X0241150Y0081545D03*
X0241150Y0086545D03*
D17*
X0136622Y0333809D03*
X0136622Y0343809D03*
X0052803Y0344321D03*
X0052803Y0334321D03*
D18*
X0080835Y0347982D03*
X0100520Y0347982D03*
X0090677Y0330659D03*
X0198748Y0330541D03*
X0209102Y0330541D03*
X0218984Y0330541D03*
X0209299Y0313337D03*
X0199260Y0313219D03*
X0218945Y0313219D03*
X0251071Y0330541D03*
X0270756Y0330541D03*
X0260913Y0313219D03*
D19*
X0266150Y0292392D03*
X0269890Y0284124D03*
X0262409Y0284124D03*
X0072268Y0102691D03*
X0064787Y0102691D03*
X0068528Y0110959D03*
D20*
X0025264Y0055254D03*
X0025264Y0047774D03*
X0072571Y0043407D03*
X0072571Y0035927D03*
X0127587Y0043829D03*
X0127587Y0051309D03*
X0196016Y0160270D03*
X0196016Y0167750D03*
X0271004Y0232809D03*
X0271004Y0240289D03*
X0324402Y0244545D03*
X0324402Y0252026D03*
X0210201Y0256344D03*
X0210201Y0263825D03*
D21*
X0190445Y0263919D03*
X0182965Y0263919D03*
X0150913Y0240423D03*
X0143433Y0240423D03*
X0143472Y0216880D03*
X0150953Y0216880D03*
X0151031Y0291644D03*
X0143551Y0291644D03*
X0115598Y0315384D03*
X0108118Y0315384D03*
X0052567Y0311329D03*
X0045087Y0311329D03*
X0045126Y0291683D03*
X0052606Y0291683D03*
X0066425Y0262707D03*
X0073906Y0262707D03*
X0072252Y0232589D03*
X0064772Y0232589D03*
X0064811Y0173455D03*
X0072291Y0173455D03*
X0088441Y0106600D03*
X0095921Y0106600D03*
X0230201Y0110644D03*
X0237681Y0110644D03*
X0249807Y0110573D03*
X0257287Y0110573D03*
X0269512Y0110526D03*
X0276992Y0110526D03*
X0293146Y0110510D03*
X0300626Y0110510D03*
X0269378Y0079872D03*
X0261898Y0079872D03*
D22*
X0185165Y0045581D03*
D23*
X0181228Y0032490D03*
X0189102Y0032490D03*
D24*
X0303630Y0177079D03*
X0319378Y0177079D03*
X0331189Y0177079D03*
X0299587Y0205579D03*
X0303630Y0309756D03*
X0319378Y0309756D03*
X0331189Y0309756D03*
X0299587Y0338256D03*
D25*
X0300992Y0058337D03*
X0285244Y0058337D03*
X0269496Y0058337D03*
X0240008Y0058337D03*
X0224260Y0058337D03*
X0208512Y0058337D03*
D26*
X0204575Y0018967D03*
X0243945Y0018967D03*
X0265559Y0018967D03*
X0304929Y0018967D03*
D27*
X0155685Y0169620D03*
X0138756Y0169620D03*
D28*
X0032075Y0270896D03*
X0032075Y0273455D03*
X0032075Y0276014D03*
X0032075Y0278573D03*
X0032075Y0281132D03*
D29*
X0021346Y0290522D03*
X0021346Y0261506D03*
D30*
X0021346Y0276014D03*
D31*
X0076504Y0299439D03*
X0080244Y0299439D03*
X0083984Y0299439D03*
X0083984Y0309676D03*
X0080244Y0309676D03*
X0076504Y0309676D03*
X0105520Y0199951D03*
X0109260Y0199951D03*
X0113000Y0199951D03*
X0113000Y0189714D03*
X0105520Y0189714D03*
D32*
X0109811Y0261919D03*
X0111780Y0261919D03*
X0113748Y0261919D03*
X0113748Y0266250D03*
X0111780Y0266250D03*
X0109811Y0266250D03*
D33*
X0145283Y0266742D03*
X0147252Y0266742D03*
X0149220Y0266742D03*
X0149220Y0261427D03*
X0147252Y0261427D03*
X0145283Y0261427D03*
D34*
X0107902Y0235955D03*
X0107902Y0221388D03*
D35*
X0029654Y0090384D02*
X0029654Y0043632D01*
X0025717Y0047569D01*
X0025264Y0047774D01*
X0029654Y0043632D02*
X0044909Y0028376D01*
X0048846Y0028376D01*
X0048846Y0028278D01*
X0048846Y0028376D02*
X0072469Y0028376D01*
X0072469Y0027392D01*
X0099535Y0027392D01*
X0099992Y0027108D01*
X0100028Y0027392D01*
X0111346Y0027392D01*
X0127587Y0043632D01*
X0127587Y0043829D01*
X0127587Y0044124D01*
X0132016Y0048553D01*
X0132016Y0051998D01*
X0157787Y0075341D01*
X0150224Y0080049D01*
X0150224Y0099734D01*
X0139398Y0110561D01*
X0137429Y0115482D02*
X0144319Y0115482D01*
X0144319Y0108100D01*
X0157681Y0096219D01*
X0157787Y0085341D01*
X0173846Y0087431D02*
X0176799Y0090384D01*
X0221091Y0090384D01*
X0221091Y0117943D01*
X0261937Y0117943D01*
X0269319Y0110561D01*
X0269512Y0110526D01*
X0273256Y0107116D02*
X0272272Y0106132D01*
X0260953Y0106132D01*
X0260953Y0114006D01*
X0258492Y0116467D01*
X0233886Y0116467D01*
X0233886Y0086447D01*
X0236346Y0083986D01*
X0246681Y0083986D01*
X0246681Y0074636D01*
X0243728Y0071683D01*
X0241268Y0071683D01*
X0241150Y0071545D01*
X0240776Y0076112D02*
X0235362Y0076112D01*
X0235362Y0062825D01*
X0239791Y0058396D01*
X0240008Y0058337D01*
X0227980Y0061841D02*
X0224535Y0058396D01*
X0224260Y0058337D01*
X0227980Y0061841D02*
X0227980Y0074144D01*
X0206819Y0074144D01*
X0206819Y0067746D01*
X0218630Y0055935D01*
X0218630Y0053967D01*
X0220106Y0052490D01*
X0339201Y0052490D01*
X0339201Y0053967D01*
X0339575Y0054124D01*
X0339201Y0054459D01*
X0339201Y0056427D01*
X0317055Y0078573D01*
X0316614Y0079037D01*
X0308740Y0079037D02*
X0308689Y0078573D01*
X0288512Y0058396D01*
X0285559Y0058396D01*
X0285244Y0058337D01*
X0288512Y0074636D02*
X0269811Y0074636D01*
X0265382Y0070207D01*
X0265382Y0053967D01*
X0221091Y0053967D01*
X0220106Y0054951D01*
X0220106Y0070699D01*
X0220677Y0071545D01*
X0220598Y0071191D01*
X0220106Y0070699D01*
X0209772Y0070699D01*
X0220677Y0076545D02*
X0221091Y0076604D01*
X0223059Y0076604D01*
X0226504Y0080049D01*
X0226504Y0107116D01*
X0229949Y0110561D01*
X0230201Y0110644D01*
X0237681Y0110644D02*
X0237823Y0111053D01*
X0241760Y0114990D01*
X0257016Y0114990D01*
X0257016Y0111053D01*
X0257287Y0110573D01*
X0257508Y0110561D01*
X0257508Y0083986D01*
X0261445Y0080049D01*
X0261898Y0079872D01*
X0261937Y0080049D01*
X0261937Y0083986D01*
X0272764Y0083986D01*
X0273256Y0083494D01*
X0273256Y0079065D01*
X0284575Y0079065D01*
X0285059Y0078860D01*
X0285067Y0079065D01*
X0300323Y0094321D01*
X0300323Y0110069D01*
X0300626Y0110510D01*
X0293146Y0110510D02*
X0292941Y0110561D01*
X0281130Y0110561D01*
X0281130Y0113514D01*
X0279654Y0114990D01*
X0273256Y0114990D01*
X0273256Y0107116D01*
X0277193Y0110069D02*
X0276992Y0110526D01*
X0277193Y0110069D02*
X0277193Y0082018D01*
X0269811Y0079557D02*
X0269378Y0079872D01*
X0269811Y0079557D02*
X0269811Y0074636D01*
X0288512Y0074636D02*
X0292449Y0078573D01*
X0292933Y0078860D01*
X0292941Y0079065D01*
X0292941Y0080049D01*
X0321484Y0108593D01*
X0321874Y0108793D01*
X0331874Y0108793D02*
X0332311Y0108593D01*
X0332311Y0086447D01*
X0339201Y0079557D01*
X0339575Y0079321D01*
X0332311Y0149931D02*
X0332311Y0176014D01*
X0331327Y0176998D01*
X0331189Y0177079D01*
X0330835Y0177490D01*
X0324437Y0183888D01*
X0324437Y0198159D01*
X0295402Y0198159D01*
X0295402Y0235561D01*
X0296878Y0235758D01*
X0296878Y0235561D01*
X0295402Y0235561D01*
X0271287Y0235561D01*
X0271287Y0233100D01*
X0271004Y0232809D01*
X0270795Y0232608D01*
X0249142Y0232608D01*
X0237331Y0220797D01*
X0229949Y0228179D01*
X0229949Y0236545D01*
X0210264Y0256230D01*
X0210201Y0256344D01*
X0210264Y0263612D02*
X0210201Y0263825D01*
X0209772Y0264104D01*
X0209772Y0304951D01*
X0205343Y0309380D01*
X0205343Y0334478D01*
X0195992Y0334478D01*
X0192547Y0331033D01*
X0192547Y0266073D01*
X0190579Y0264104D01*
X0190445Y0263919D01*
X0183197Y0263612D02*
X0182965Y0263919D01*
X0183197Y0263612D02*
X0195992Y0250817D01*
X0195992Y0203573D01*
X0196268Y0203270D01*
X0196484Y0203081D01*
X0196484Y0168140D01*
X0196016Y0167750D01*
X0196484Y0160758D02*
X0196016Y0160270D01*
X0196484Y0160758D02*
X0233394Y0197667D01*
X0233394Y0216860D01*
X0233846Y0217203D01*
X0233886Y0217352D01*
X0237331Y0220797D01*
X0233846Y0232163D02*
X0233886Y0232608D01*
X0233886Y0271978D01*
X0233874Y0272348D01*
X0229949Y0276900D02*
X0233886Y0280837D01*
X0233886Y0287234D01*
X0233874Y0287309D01*
X0233886Y0280837D02*
X0264398Y0280837D01*
X0265382Y0281821D01*
X0265382Y0291663D01*
X0265874Y0292156D01*
X0266150Y0292392D01*
X0269890Y0284124D02*
X0270303Y0283789D01*
X0270795Y0283297D01*
X0270795Y0261152D01*
X0296878Y0261152D01*
X0296878Y0260955D01*
X0302783Y0270994D02*
X0302783Y0208986D01*
X0299831Y0206033D01*
X0299587Y0205579D01*
X0299831Y0185856D02*
X0303276Y0182411D01*
X0303276Y0177490D01*
X0303630Y0177079D01*
X0319024Y0177490D02*
X0319378Y0177079D01*
X0319024Y0177490D02*
X0319024Y0187333D01*
X0324437Y0198159D02*
X0324437Y0244419D01*
X0324402Y0244545D01*
X0324437Y0244911D01*
X0330835Y0251309D01*
X0330835Y0309380D01*
X0331189Y0309756D01*
X0319378Y0309756D02*
X0319024Y0309872D01*
X0319024Y0317254D01*
X0274732Y0317254D01*
X0266858Y0325128D01*
X0266858Y0336447D01*
X0215185Y0336447D01*
X0209280Y0330541D01*
X0209102Y0330541D01*
X0215185Y0333494D02*
X0216169Y0334478D01*
X0265382Y0334478D01*
X0265382Y0324144D01*
X0279654Y0309872D01*
X0303276Y0309872D01*
X0303630Y0309756D01*
X0299339Y0330541D02*
X0299339Y0337923D01*
X0299587Y0338256D01*
X0299339Y0330541D02*
X0270756Y0330541D01*
X0263906Y0317254D02*
X0251110Y0317254D01*
X0251110Y0295108D01*
X0261937Y0284281D01*
X0262409Y0284124D01*
X0270795Y0261152D02*
X0270795Y0240482D01*
X0271004Y0240289D01*
X0302783Y0270994D02*
X0260953Y0312825D01*
X0260913Y0313219D01*
X0264398Y0311841D02*
X0264398Y0316762D01*
X0263906Y0317254D01*
X0264398Y0311841D02*
X0323945Y0252293D01*
X0324402Y0252026D01*
X0251110Y0317254D02*
X0251110Y0330541D01*
X0251071Y0330541D01*
X0227488Y0322175D02*
X0227488Y0278868D01*
X0229949Y0276900D02*
X0229949Y0263612D01*
X0210264Y0263612D01*
X0219122Y0266565D02*
X0219122Y0312825D01*
X0218945Y0313219D01*
X0215185Y0319222D02*
X0215185Y0333494D01*
X0218984Y0330541D02*
X0219122Y0330541D01*
X0227488Y0322175D01*
X0215185Y0319222D02*
X0209299Y0313337D01*
X0204358Y0307904D02*
X0204358Y0205049D01*
X0205835Y0203573D01*
X0206268Y0203270D01*
X0159575Y0176998D02*
X0159575Y0163711D01*
X0154161Y0163711D01*
X0154161Y0139104D01*
X0038512Y0139104D01*
X0036051Y0141565D01*
X0036051Y0143041D01*
X0033157Y0145935D01*
X0037528Y0142549D02*
X0038020Y0142057D01*
X0064594Y0142057D01*
X0101504Y0142057D01*
X0102980Y0140581D01*
X0114791Y0140581D01*
X0114791Y0145502D01*
X0115047Y0145581D01*
X0115283Y0145994D01*
X0133984Y0145994D01*
X0133984Y0147470D01*
X0136937Y0150423D01*
X0148748Y0150423D01*
X0148748Y0145994D01*
X0148984Y0145581D01*
X0154161Y0163711D02*
X0118728Y0163711D01*
X0118236Y0164203D01*
X0118236Y0166171D01*
X0115283Y0169124D01*
X0115205Y0169596D01*
X0119713Y0165187D02*
X0119713Y0193238D01*
X0113315Y0199636D01*
X0113000Y0199951D01*
X0112823Y0200128D01*
X0111839Y0201112D01*
X0111839Y0217352D01*
X0107902Y0221289D01*
X0107902Y0221388D01*
X0113315Y0227195D02*
X0096583Y0227195D01*
X0096583Y0203573D01*
X0103965Y0196191D01*
X0107902Y0196191D01*
X0107902Y0198652D01*
X0108886Y0199636D01*
X0109260Y0199951D01*
X0105520Y0199951D02*
X0105441Y0200128D01*
X0098059Y0207510D01*
X0098059Y0224242D01*
X0099535Y0225719D01*
X0150717Y0225719D01*
X0150717Y0239990D01*
X0150913Y0240423D01*
X0143827Y0240482D02*
X0143827Y0247864D01*
X0156622Y0260659D01*
X0156622Y0319715D01*
X0150717Y0319715D01*
X0136622Y0333809D01*
X0136622Y0343809D02*
X0136445Y0343829D01*
X0077882Y0343829D01*
X0076898Y0344813D01*
X0076898Y0348258D01*
X0051307Y0348258D01*
X0040972Y0337923D01*
X0040972Y0296093D01*
X0044909Y0292156D01*
X0045126Y0291683D01*
X0047862Y0287234D02*
X0027193Y0287234D01*
X0027193Y0242451D01*
X0031622Y0238022D01*
X0071976Y0238022D01*
X0071976Y0236053D01*
X0107902Y0236053D01*
X0107902Y0235955D01*
X0107902Y0235561D01*
X0112823Y0230640D01*
X0113315Y0227195D02*
X0117744Y0231624D01*
X0117744Y0255246D01*
X0112823Y0255246D01*
X0107902Y0260167D01*
X0107902Y0264596D01*
X0109378Y0266073D01*
X0109811Y0266250D01*
X0111780Y0266250D02*
X0111839Y0266565D01*
X0111839Y0294616D01*
X0132508Y0315285D01*
X0142843Y0315285D01*
X0143315Y0315384D01*
X0143335Y0315285D01*
X0143335Y0299045D01*
X0150717Y0291663D01*
X0151031Y0291644D01*
X0143551Y0291644D02*
X0143335Y0291663D01*
X0120697Y0291663D01*
X0115776Y0291663D02*
X0115756Y0291683D01*
X0115776Y0291663D02*
X0115776Y0270502D01*
X0150224Y0270502D01*
X0155146Y0275423D01*
X0155146Y0311348D01*
X0151209Y0315285D01*
X0151189Y0315384D01*
X0150717Y0315778D01*
X0146780Y0319715D01*
X0108394Y0319715D01*
X0108394Y0330541D01*
X0090677Y0330541D01*
X0090677Y0330659D01*
X0090677Y0330541D02*
X0081327Y0321191D01*
X0081327Y0310856D01*
X0080343Y0309872D01*
X0080244Y0309676D01*
X0079850Y0309380D01*
X0079850Y0307904D01*
X0073453Y0301506D01*
X0073453Y0277884D01*
X0066071Y0270502D01*
X0066071Y0263120D01*
X0066425Y0262707D01*
X0073906Y0262707D02*
X0073945Y0263120D01*
X0086248Y0275423D01*
X0086248Y0307411D01*
X0084280Y0309380D01*
X0083984Y0309676D01*
X0082803Y0304459D02*
X0082803Y0300522D01*
X0083787Y0299537D01*
X0083984Y0299439D01*
X0080343Y0299045D02*
X0080244Y0299439D01*
X0080343Y0299045D02*
X0080343Y0294616D01*
X0076406Y0294616D02*
X0076406Y0299045D01*
X0076504Y0299439D01*
X0076504Y0309676D02*
X0076406Y0309872D01*
X0062134Y0324144D01*
X0062134Y0281329D01*
X0032114Y0281329D01*
X0032075Y0281132D01*
X0027193Y0287234D02*
X0025717Y0287234D01*
X0025717Y0309380D01*
X0024732Y0310364D01*
X0024378Y0318306D01*
X0024732Y0322175D02*
X0024378Y0329706D01*
X0024732Y0322175D02*
X0024732Y0352195D01*
X0083787Y0352195D01*
X0084772Y0351211D01*
X0084772Y0348258D01*
X0100520Y0348258D01*
X0100520Y0347982D01*
X0108394Y0319715D02*
X0108394Y0315778D01*
X0108118Y0315384D01*
X0115283Y0315285D02*
X0115598Y0315384D01*
X0115283Y0315285D02*
X0091661Y0291663D01*
X0101996Y0297569D02*
X0107882Y0291683D01*
X0113807Y0270502D02*
X0113807Y0266565D01*
X0113748Y0266250D01*
X0113807Y0263612D02*
X0113807Y0262136D01*
X0113748Y0261919D01*
X0113807Y0263612D02*
X0146287Y0263612D01*
X0147272Y0262628D01*
X0147272Y0261644D01*
X0147252Y0261427D01*
X0149220Y0261427D02*
X0149240Y0261152D01*
X0154654Y0261152D01*
X0154654Y0266073D01*
X0150224Y0270502D01*
X0149240Y0269026D02*
X0149240Y0267057D01*
X0149220Y0266742D01*
X0147272Y0266565D02*
X0147252Y0266742D01*
X0147272Y0266565D02*
X0147272Y0265581D01*
X0148748Y0264104D01*
X0151701Y0264104D01*
X0149240Y0269026D02*
X0146287Y0269026D01*
X0145303Y0268041D01*
X0145303Y0267057D01*
X0145283Y0266742D01*
X0145283Y0261427D02*
X0144811Y0261152D01*
X0143827Y0260167D01*
X0143827Y0255246D01*
X0117744Y0255246D01*
X0113807Y0258199D02*
X0111839Y0260167D01*
X0111839Y0261644D01*
X0111780Y0261919D01*
X0113807Y0270502D02*
X0115776Y0270502D01*
X0143827Y0255246D02*
X0143827Y0247864D01*
X0143827Y0240482D02*
X0143433Y0240423D01*
X0150717Y0225719D02*
X0150717Y0217352D01*
X0150953Y0216880D01*
X0151209Y0216860D01*
X0151209Y0193730D01*
X0151189Y0193376D01*
X0143335Y0193238D02*
X0143315Y0193376D01*
X0143335Y0193730D01*
X0143335Y0216860D01*
X0143472Y0216880D01*
X0143335Y0193238D02*
X0152685Y0183888D01*
X0138906Y0170108D01*
X0138756Y0169620D01*
X0142843Y0169616D02*
X0142843Y0166663D01*
X0141366Y0165187D01*
X0119713Y0165187D01*
X0107902Y0148455D02*
X0105441Y0145994D01*
X0105047Y0145581D01*
X0107902Y0148455D02*
X0107902Y0185856D01*
X0072961Y0185856D01*
X0072961Y0201112D01*
X0072528Y0201171D01*
X0072469Y0201604D01*
X0068039Y0206033D01*
X0040972Y0206033D01*
X0040972Y0232608D01*
X0040953Y0232628D01*
X0037528Y0233100D02*
X0037528Y0236053D01*
X0038020Y0236545D01*
X0064594Y0236545D01*
X0064594Y0232608D01*
X0064772Y0232589D01*
X0065087Y0232116D01*
X0065087Y0230148D01*
X0105441Y0189793D01*
X0105520Y0189714D01*
X0107902Y0185856D02*
X0107902Y0196191D01*
X0112823Y0195207D02*
X0112823Y0189793D01*
X0113000Y0189714D01*
X0100638Y0169596D02*
X0100520Y0169616D01*
X0072469Y0169616D01*
X0072469Y0173061D01*
X0072291Y0173455D01*
X0071976Y0173553D01*
X0071484Y0174045D01*
X0071484Y0194715D01*
X0065087Y0201112D01*
X0064654Y0201171D01*
X0040992Y0201132D02*
X0040972Y0201604D01*
X0040972Y0206033D01*
X0040992Y0201132D02*
X0040972Y0201112D01*
X0040972Y0173553D01*
X0041071Y0173533D01*
X0040972Y0173061D01*
X0040972Y0145994D01*
X0041031Y0145935D01*
X0037528Y0142549D02*
X0037528Y0169124D01*
X0033591Y0173061D01*
X0033197Y0173533D01*
X0033118Y0201132D02*
X0033098Y0201604D01*
X0029654Y0205049D01*
X0029654Y0236053D01*
X0031622Y0238022D01*
X0033098Y0233100D02*
X0033079Y0232628D01*
X0033098Y0233100D02*
X0037528Y0233100D01*
X0071976Y0232608D02*
X0072252Y0232589D01*
X0071976Y0232608D02*
X0071976Y0236053D01*
X0066071Y0270502D02*
X0032114Y0270502D01*
X0032075Y0270896D01*
X0047862Y0287234D02*
X0052291Y0291663D01*
X0052606Y0291683D01*
X0059181Y0304459D02*
X0052783Y0310856D01*
X0052567Y0311329D01*
X0045402Y0311348D02*
X0052783Y0318730D01*
X0052783Y0333986D01*
X0052803Y0334321D01*
X0056720Y0329557D02*
X0056720Y0340876D01*
X0053276Y0344321D01*
X0052803Y0344321D01*
X0056720Y0329557D02*
X0062134Y0324144D01*
X0045402Y0311348D02*
X0045087Y0311329D01*
X0152685Y0183888D02*
X0159575Y0176998D01*
X0155685Y0169620D02*
X0155638Y0169616D01*
X0142843Y0169616D01*
X0149240Y0118927D02*
X0108394Y0118927D01*
X0096091Y0106624D01*
X0095921Y0106600D01*
X0088709Y0106132D02*
X0088441Y0106600D01*
X0088217Y0106624D01*
X0088217Y0114006D01*
X0066563Y0114006D01*
X0065579Y0113022D01*
X0065579Y0103671D01*
X0065087Y0103179D01*
X0064787Y0102691D01*
X0067547Y0097766D02*
X0048846Y0079065D01*
X0048791Y0078663D01*
X0048354Y0079065D01*
X0024240Y0103179D01*
X0024240Y0103671D01*
X0025224Y0104813D01*
X0025224Y0104656D01*
X0024240Y0103671D01*
X0020303Y0099734D01*
X0020303Y0060364D01*
X0025224Y0055443D01*
X0025264Y0055254D01*
X0048846Y0063317D02*
X0048846Y0043238D01*
X0048846Y0063317D02*
X0048791Y0063703D01*
X0072469Y0052490D02*
X0072469Y0043632D01*
X0072571Y0043407D01*
X0072571Y0035927D02*
X0072469Y0035758D01*
X0072469Y0028376D01*
X0072469Y0052490D02*
X0099535Y0052490D01*
X0099992Y0052305D01*
X0102980Y0076112D02*
X0102980Y0082510D01*
X0102598Y0082994D01*
X0102488Y0083002D01*
X0102488Y0092352D01*
X0088709Y0106132D01*
X0072469Y0102687D02*
X0072268Y0102691D01*
X0072469Y0102687D02*
X0072469Y0052490D01*
X0102980Y0076112D02*
X0127587Y0051506D01*
X0127587Y0051309D01*
X0127795Y0082994D02*
X0128079Y0083002D01*
X0134476Y0089400D01*
X0134476Y0112530D01*
X0137429Y0115482D01*
X0149240Y0118927D02*
X0149240Y0110561D01*
X0149398Y0110561D01*
X0173846Y0087431D02*
X0173846Y0056919D01*
X0185165Y0045600D01*
X0185165Y0045581D01*
X0189594Y0033297D02*
X0189594Y0074144D01*
X0182213Y0081526D01*
X0220598Y0081526D01*
X0220677Y0081545D01*
X0220677Y0086545D02*
X0221091Y0086939D01*
X0221091Y0090384D01*
X0227980Y0081526D02*
X0227980Y0074144D01*
X0227980Y0081526D02*
X0240776Y0081526D01*
X0241150Y0081545D01*
X0241150Y0076545D02*
X0240776Y0076112D01*
X0241150Y0086545D02*
X0241268Y0086939D01*
X0241268Y0102195D01*
X0246189Y0107116D01*
X0242744Y0110561D01*
X0246189Y0107116D02*
X0249634Y0110561D01*
X0249807Y0110573D01*
X0182213Y0081526D02*
X0178768Y0084970D01*
X0178768Y0085128D01*
X0189594Y0033297D02*
X0189102Y0032805D01*
X0189102Y0032490D01*
X0067547Y0097766D02*
X0067547Y0110069D01*
X0068039Y0110561D01*
X0068528Y0110959D01*
X0064594Y0142057D02*
X0064594Y0173061D01*
X0064811Y0173455D01*
X0025224Y0094813D02*
X0029654Y0090384D01*
X0204358Y0307904D02*
X0199437Y0312825D01*
X0199260Y0313219D01*
X0198945Y0313317D01*
X0198945Y0330541D01*
X0198748Y0330541D01*
D36*
X0168551Y0309321D03*
X0168551Y0304321D03*
X0168551Y0299321D03*
X0151701Y0264104D03*
X0120697Y0291663D03*
X0101996Y0297569D03*
X0091661Y0291663D03*
X0080343Y0294616D03*
X0076406Y0294616D03*
X0082803Y0304459D03*
X0059181Y0304459D03*
X0113807Y0258199D03*
X0112823Y0230640D03*
X0112823Y0195207D03*
X0168551Y0186329D03*
X0168551Y0181329D03*
X0168551Y0176329D03*
X0128618Y0126289D03*
X0123618Y0126289D03*
X0118618Y0126289D03*
X0168551Y0096959D03*
X0168551Y0091959D03*
X0168551Y0086959D03*
X0168551Y0046959D03*
X0168551Y0041959D03*
X0168551Y0036959D03*
X0209772Y0070699D03*
X0242744Y0110561D03*
X0227213Y0126222D03*
X0222213Y0126222D03*
X0217213Y0126222D03*
X0277193Y0082018D03*
X0303339Y0126219D03*
X0308339Y0126219D03*
X0313339Y0126219D03*
X0299831Y0185856D03*
X0319024Y0187333D03*
X0227488Y0278868D03*
X0219122Y0266565D03*
X0049961Y0126293D03*
X0044961Y0126293D03*
X0039961Y0126293D03*
M02*
