G75*
%MOIN*%
%OFA0B0*%
%FSLAX25Y25*%
%IPPOS*%
%LPD*%
%AMOC8*
5,1,8,0,0,1.08239X$1,22.5*
%
%ADD10C,0.07300*%
%ADD11R,0.07300X0.07300*%
%ADD12R,0.07099X0.08280*%
%ADD13R,0.08280X0.07099*%
%ADD14R,0.03162X0.09461*%
%ADD15C,0.07493*%
%ADD16C,0.08200*%
%ADD17R,0.07099X0.07887*%
%ADD18R,0.07887X0.07099*%
%ADD19R,0.06737X0.06737*%
%ADD20C,0.07887*%
%ADD21C,0.04146*%
%ADD22C,0.03778*%
D10*
X0368848Y0121916D03*
D11*
X0368848Y0111916D03*
D12*
X0345209Y0128526D03*
X0345209Y0141518D03*
X0258319Y0141715D03*
X0258319Y0128723D03*
X0224816Y0128723D03*
X0224816Y0141715D03*
X0137926Y0141912D03*
X0137926Y0128920D03*
X0104557Y0128963D03*
X0104557Y0141955D03*
X0017667Y0142152D03*
X0017667Y0129160D03*
X0013533Y0099121D03*
X0013533Y0086128D03*
X0133792Y0085888D03*
X0133792Y0098880D03*
X0254186Y0098683D03*
X0254186Y0085691D03*
D13*
X0224973Y0103014D03*
X0211981Y0103014D03*
X0104715Y0103254D03*
X0091722Y0103254D03*
X0332375Y0102817D03*
X0345367Y0102817D03*
D14*
X0311587Y0098683D03*
X0306587Y0098683D03*
X0301587Y0098683D03*
X0296587Y0098683D03*
X0291587Y0098683D03*
X0286587Y0098683D03*
X0281587Y0098683D03*
X0281587Y0078211D03*
X0286587Y0078211D03*
X0291587Y0078211D03*
X0296587Y0078211D03*
X0301587Y0078211D03*
X0306587Y0078211D03*
X0311587Y0078211D03*
X0191193Y0078408D03*
X0186193Y0078408D03*
X0181193Y0078408D03*
X0176193Y0078408D03*
X0171193Y0078408D03*
X0166193Y0078408D03*
X0161193Y0078408D03*
X0161193Y0098880D03*
X0166193Y0098880D03*
X0171193Y0098880D03*
X0176193Y0098880D03*
X0181193Y0098880D03*
X0186193Y0098880D03*
X0191193Y0098880D03*
X0070935Y0099121D03*
X0065935Y0099121D03*
X0060935Y0099121D03*
X0055935Y0099121D03*
X0050935Y0099121D03*
X0045935Y0099121D03*
X0040935Y0099121D03*
X0040935Y0078648D03*
X0045935Y0078648D03*
X0050935Y0078648D03*
X0055935Y0078648D03*
X0060935Y0078648D03*
X0065935Y0078648D03*
X0070935Y0078648D03*
D15*
X0077746Y0053018D03*
X0027746Y0053018D03*
X0027746Y0025459D03*
X0077746Y0025459D03*
X0148005Y0025219D03*
X0198005Y0025219D03*
X0198005Y0052778D03*
X0148005Y0052778D03*
X0268398Y0052581D03*
X0318398Y0052581D03*
X0318398Y0025022D03*
X0268398Y0025022D03*
X0357274Y0085892D03*
X0384833Y0085892D03*
D16*
X0366998Y0141491D03*
X0366998Y0152891D03*
D17*
X0055915Y0017546D03*
X0066939Y0017546D03*
X0092841Y0030581D03*
X0103864Y0030581D03*
X0103967Y0045286D03*
X0092943Y0045286D03*
X0073061Y0065223D03*
X0062037Y0065223D03*
X0047285Y0065215D03*
X0036262Y0065215D03*
X0093455Y0077191D03*
X0104478Y0077191D03*
X0104518Y0089081D03*
X0093494Y0089081D03*
X0156520Y0064975D03*
X0167544Y0064975D03*
X0182296Y0064983D03*
X0193319Y0064983D03*
X0213713Y0076951D03*
X0224737Y0076951D03*
X0224776Y0088841D03*
X0213753Y0088841D03*
X0276678Y0064463D03*
X0287701Y0064463D03*
X0300091Y0064550D03*
X0311115Y0064550D03*
X0334107Y0076754D03*
X0345130Y0076754D03*
X0345170Y0088644D03*
X0334146Y0088644D03*
X0321430Y0127935D03*
X0310406Y0127935D03*
X0290130Y0127935D03*
X0279107Y0127935D03*
X0279068Y0139865D03*
X0290091Y0139865D03*
X0310485Y0139746D03*
X0321508Y0139746D03*
X0324501Y0153723D03*
X0335524Y0153723D03*
X0275327Y0153920D03*
X0264304Y0153920D03*
X0215130Y0153920D03*
X0204107Y0153920D03*
X0201115Y0139943D03*
X0190091Y0139943D03*
X0169697Y0140061D03*
X0158674Y0140061D03*
X0158713Y0128132D03*
X0169737Y0128132D03*
X0190012Y0128132D03*
X0201036Y0128132D03*
X0154934Y0154117D03*
X0143910Y0154117D03*
X0094872Y0154160D03*
X0083848Y0154160D03*
X0080856Y0140184D03*
X0069833Y0140184D03*
X0049439Y0140302D03*
X0038415Y0140302D03*
X0038455Y0128372D03*
X0049478Y0128372D03*
X0069754Y0128372D03*
X0080778Y0128372D03*
X0034675Y0154357D03*
X0023652Y0154357D03*
X0213201Y0045046D03*
X0224225Y0045046D03*
X0224123Y0030341D03*
X0213099Y0030341D03*
X0187197Y0017306D03*
X0176174Y0017306D03*
X0296568Y0017109D03*
X0307591Y0017109D03*
X0329556Y0030144D03*
X0340579Y0030144D03*
X0340682Y0044849D03*
X0329658Y0044849D03*
D18*
X0296784Y0045302D03*
X0284138Y0043892D03*
X0296784Y0034278D03*
X0284138Y0032869D03*
X0253556Y0047857D03*
X0253556Y0058880D03*
X0176390Y0045498D03*
X0163745Y0044089D03*
X0163745Y0033065D03*
X0176390Y0034475D03*
X0133162Y0048054D03*
X0133162Y0059077D03*
X0056132Y0045739D03*
X0043486Y0044329D03*
X0056132Y0034715D03*
X0043486Y0033306D03*
X0012904Y0048294D03*
X0012904Y0059317D03*
D19*
X0013061Y0114947D03*
X0020935Y0114947D03*
X0028809Y0114947D03*
X0036683Y0114947D03*
X0044557Y0114947D03*
X0073061Y0114947D03*
X0080935Y0114947D03*
X0088809Y0114947D03*
X0096683Y0114947D03*
X0104557Y0114947D03*
X0133319Y0114707D03*
X0141193Y0114707D03*
X0149068Y0114707D03*
X0156942Y0114707D03*
X0164816Y0114707D03*
X0193319Y0114707D03*
X0201193Y0114707D03*
X0209068Y0114707D03*
X0216942Y0114707D03*
X0224816Y0114707D03*
X0253713Y0114510D03*
X0261587Y0114510D03*
X0269461Y0114510D03*
X0277335Y0114510D03*
X0285209Y0114510D03*
X0313713Y0114510D03*
X0321587Y0114510D03*
X0329461Y0114510D03*
X0337335Y0114510D03*
X0345209Y0114510D03*
X0349045Y0051955D03*
X0349045Y0044081D03*
X0349045Y0036207D03*
X0349045Y0028333D03*
X0349045Y0020459D03*
D20*
X0388415Y0017900D03*
X0388415Y0054514D03*
X0347768Y0153880D03*
X0311154Y0153880D03*
X0287768Y0153880D03*
X0251154Y0153880D03*
X0227375Y0154077D03*
X0190760Y0154077D03*
X0167375Y0154077D03*
X0130760Y0154077D03*
X0107116Y0154317D03*
X0070502Y0154317D03*
X0047116Y0154317D03*
X0010502Y0154317D03*
D21*
X0381565Y0149042D03*
X0381565Y0134081D03*
D22*
X0309957Y0091902D03*
X0306357Y0092165D03*
X0300957Y0092165D03*
X0318357Y0080765D03*
X0307557Y0071765D03*
X0296757Y0071765D03*
X0186357Y0071765D03*
X0186616Y0091661D03*
X0138957Y0090965D03*
X0129357Y0104765D03*
X0085557Y0099365D03*
X0066357Y0091902D03*
X0074757Y0081365D03*
X0058557Y0072365D03*
X0060357Y0059165D03*
X0213957Y0014165D03*
X0230157Y0121565D03*
X0026757Y0128765D03*
M02*
