G75*
%MOIN*%
%OFA0B0*%
%FSLAX25Y25*%
%IPPOS*%
%LPD*%
%AMOC8*
5,1,8,0,0,1.08239X$1,22.5*
%
%ADD10C,0.00800*%
%ADD11C,0.00500*%
%ADD12C,0.00100*%
%ADD13C,0.00400*%
D10*
X0008809Y0080813D02*
X0018258Y0080813D01*
X0018258Y0088687D01*
X0008809Y0088687D02*
X0008809Y0080813D01*
X0008809Y0096561D02*
X0008809Y0102861D01*
X0010384Y0104435D01*
X0016683Y0104435D01*
X0018258Y0102861D01*
X0018258Y0096561D01*
X0022392Y0123845D02*
X0012943Y0123845D01*
X0012943Y0131719D01*
X0022392Y0131719D02*
X0022392Y0123845D01*
X0022392Y0139593D02*
X0022392Y0145892D01*
X0020817Y0147467D01*
X0014518Y0147467D01*
X0012943Y0145892D01*
X0012943Y0139593D01*
X0086407Y0107979D02*
X0086407Y0098530D01*
X0094281Y0098530D01*
X0102156Y0098530D02*
X0108455Y0098530D01*
X0110030Y0100105D01*
X0110030Y0106404D01*
X0108455Y0107979D01*
X0102156Y0107979D01*
X0094281Y0107979D02*
X0086407Y0107979D01*
X0101407Y0123648D02*
X0099833Y0125223D01*
X0099833Y0131522D01*
X0109281Y0131522D02*
X0109281Y0125223D01*
X0107707Y0123648D01*
X0101407Y0123648D01*
X0133201Y0123605D02*
X0142650Y0123605D01*
X0142650Y0131479D01*
X0133201Y0131479D02*
X0133201Y0123605D01*
X0133201Y0139353D02*
X0133201Y0145652D01*
X0134776Y0147227D01*
X0141075Y0147227D01*
X0142650Y0145652D01*
X0142650Y0139353D01*
X0109281Y0139396D02*
X0109281Y0147270D01*
X0099833Y0147270D01*
X0099833Y0139396D01*
X0130642Y0104195D02*
X0136942Y0104195D01*
X0138516Y0102620D01*
X0138516Y0096321D01*
X0129068Y0096321D02*
X0129068Y0102620D01*
X0130642Y0104195D01*
X0129068Y0088447D02*
X0129068Y0080573D01*
X0138516Y0080573D01*
X0138516Y0088447D01*
X0206666Y0098290D02*
X0214540Y0098290D01*
X0222414Y0098290D02*
X0228713Y0098290D01*
X0230288Y0099865D01*
X0230288Y0106164D01*
X0228713Y0107739D01*
X0222414Y0107739D01*
X0214540Y0107739D02*
X0206666Y0107739D01*
X0206666Y0098290D01*
X0249461Y0096124D02*
X0249461Y0102424D01*
X0251036Y0103998D01*
X0257335Y0103998D01*
X0258910Y0102424D01*
X0258910Y0096124D01*
X0258910Y0088250D02*
X0258910Y0080376D01*
X0249461Y0080376D01*
X0249461Y0088250D01*
X0327060Y0098093D02*
X0334934Y0098093D01*
X0342808Y0098093D02*
X0349107Y0098093D01*
X0350682Y0099668D01*
X0350682Y0105967D01*
X0349107Y0107542D01*
X0342808Y0107542D01*
X0334934Y0107542D02*
X0327060Y0107542D01*
X0327060Y0098093D01*
X0342060Y0123211D02*
X0340485Y0124786D01*
X0340485Y0131085D01*
X0349934Y0131085D02*
X0349934Y0124786D01*
X0348359Y0123211D01*
X0342060Y0123211D01*
X0340485Y0138959D02*
X0340485Y0146833D01*
X0349934Y0146833D01*
X0349934Y0138959D01*
X0263044Y0139156D02*
X0263044Y0145455D01*
X0261469Y0147030D01*
X0255170Y0147030D01*
X0253595Y0145455D01*
X0253595Y0139156D01*
X0253595Y0131282D02*
X0253595Y0123408D01*
X0263044Y0123408D01*
X0263044Y0131282D01*
X0229540Y0131282D02*
X0229540Y0124983D01*
X0227965Y0123408D01*
X0221666Y0123408D01*
X0220091Y0124983D01*
X0220091Y0131282D01*
X0220091Y0139156D02*
X0220091Y0147030D01*
X0229540Y0147030D01*
X0229540Y0139156D01*
D11*
X0228816Y0133719D02*
X0220816Y0133719D01*
X0254319Y0136719D02*
X0262319Y0136719D01*
X0219977Y0107014D02*
X0219977Y0099014D01*
X0250186Y0093687D02*
X0258186Y0093687D01*
X0340371Y0098817D02*
X0340371Y0106817D01*
X0341209Y0133522D02*
X0349209Y0133522D01*
X0141926Y0136916D02*
X0133926Y0136916D01*
X0108557Y0133959D02*
X0100557Y0133959D01*
X0099719Y0107254D02*
X0099719Y0099254D01*
X0129792Y0093884D02*
X0137792Y0093884D01*
X0021667Y0137156D02*
X0013667Y0137156D01*
X0017533Y0094124D02*
X0009533Y0094124D01*
D12*
X0056850Y0011996D02*
X0056850Y0011746D01*
X0057100Y0011496D01*
X0057600Y0011496D01*
X0057850Y0011746D01*
X0057850Y0012246D01*
X0057100Y0012246D01*
X0056850Y0011996D01*
X0057350Y0012747D02*
X0057850Y0012246D01*
X0058323Y0012497D02*
X0058323Y0012747D01*
X0058573Y0012997D01*
X0059073Y0012997D01*
X0059324Y0012747D01*
X0059796Y0012747D02*
X0059796Y0012246D01*
X0060046Y0011996D01*
X0060797Y0011996D01*
X0060797Y0011496D02*
X0060797Y0012997D01*
X0060046Y0012997D01*
X0059796Y0012747D01*
X0060297Y0011996D02*
X0059796Y0011496D01*
X0059324Y0011496D02*
X0058323Y0012497D01*
X0058323Y0011496D02*
X0059324Y0011496D01*
X0057350Y0012747D02*
X0056850Y0012997D01*
X0057100Y0021996D02*
X0057350Y0022246D01*
X0056350Y0023247D01*
X0056350Y0022246D01*
X0056600Y0021996D01*
X0057100Y0021996D01*
X0057350Y0022246D02*
X0057350Y0023247D01*
X0057100Y0023497D01*
X0056600Y0023497D01*
X0056350Y0023247D01*
X0057823Y0023247D02*
X0058824Y0022246D01*
X0058824Y0021996D01*
X0059546Y0021996D02*
X0059546Y0023497D01*
X0060297Y0022746D01*
X0059296Y0022746D01*
X0058824Y0023497D02*
X0057823Y0023497D01*
X0057823Y0023247D01*
X0049537Y0033867D02*
X0048036Y0033867D01*
X0048537Y0033867D02*
X0048537Y0034618D01*
X0048787Y0034868D01*
X0049287Y0034868D01*
X0049537Y0034618D01*
X0049537Y0033867D01*
X0048537Y0034368D02*
X0048036Y0034868D01*
X0048036Y0035341D02*
X0049037Y0036341D01*
X0049287Y0036341D01*
X0049537Y0036091D01*
X0049537Y0035591D01*
X0049287Y0035341D01*
X0050182Y0035527D02*
X0050182Y0035027D01*
X0050432Y0034777D01*
X0050933Y0035277D02*
X0050933Y0035527D01*
X0050682Y0035778D01*
X0050432Y0035778D01*
X0050182Y0035527D01*
X0050933Y0035527D02*
X0051183Y0035778D01*
X0051433Y0035778D01*
X0051683Y0035527D01*
X0051683Y0035027D01*
X0051433Y0034777D01*
X0051433Y0036250D02*
X0051683Y0036500D01*
X0051683Y0037001D01*
X0051433Y0037251D01*
X0051183Y0037251D01*
X0050933Y0037001D01*
X0050682Y0037251D01*
X0050432Y0037251D01*
X0050182Y0037001D01*
X0050182Y0036500D01*
X0050432Y0036250D01*
X0050933Y0036750D02*
X0050933Y0037001D01*
X0051433Y0037723D02*
X0051683Y0037974D01*
X0051683Y0038474D01*
X0051433Y0038724D01*
X0050432Y0037723D01*
X0050182Y0037974D01*
X0050182Y0038474D01*
X0050432Y0038724D01*
X0051433Y0038724D01*
X0051433Y0037723D02*
X0050432Y0037723D01*
X0049537Y0037314D02*
X0048036Y0037314D01*
X0048036Y0036814D02*
X0048036Y0037815D01*
X0049037Y0036814D02*
X0049537Y0037314D01*
X0048036Y0036341D02*
X0048036Y0035341D01*
X0039038Y0035591D02*
X0038787Y0035841D01*
X0038537Y0035841D01*
X0038287Y0035591D01*
X0038037Y0035841D01*
X0037786Y0035841D01*
X0037536Y0035591D01*
X0037536Y0035091D01*
X0037786Y0034841D01*
X0037786Y0034368D02*
X0037536Y0034118D01*
X0037536Y0033618D01*
X0037786Y0033367D01*
X0038287Y0033868D02*
X0038287Y0034118D01*
X0038037Y0034368D01*
X0037786Y0034368D01*
X0038287Y0034118D02*
X0038537Y0034368D01*
X0038787Y0034368D01*
X0039038Y0034118D01*
X0039038Y0033618D01*
X0038787Y0033367D01*
X0038787Y0034841D02*
X0039038Y0035091D01*
X0039038Y0035591D01*
X0038287Y0035591D02*
X0038287Y0035341D01*
X0038787Y0036314D02*
X0039038Y0036564D01*
X0039038Y0037065D01*
X0038787Y0037315D01*
X0037786Y0036314D01*
X0037536Y0036564D01*
X0037536Y0037065D01*
X0037786Y0037315D01*
X0038787Y0037315D01*
X0038787Y0036314D02*
X0037786Y0036314D01*
X0060682Y0036278D02*
X0061182Y0035777D01*
X0061182Y0036027D02*
X0061182Y0035277D01*
X0060682Y0035277D02*
X0062183Y0035277D01*
X0062183Y0036027D01*
X0061933Y0036278D01*
X0061433Y0036278D01*
X0061182Y0036027D01*
X0060682Y0036750D02*
X0061683Y0037751D01*
X0061933Y0037751D01*
X0062183Y0037501D01*
X0062183Y0037000D01*
X0061933Y0036750D01*
X0060682Y0036750D02*
X0060682Y0037751D01*
X0060682Y0038223D02*
X0061683Y0039224D01*
X0061933Y0039224D01*
X0062183Y0038974D01*
X0062183Y0038474D01*
X0061933Y0038223D01*
X0060682Y0038223D02*
X0060682Y0039224D01*
X0099355Y0036382D02*
X0099605Y0036632D01*
X0100106Y0036632D01*
X0100356Y0036382D01*
X0100356Y0036132D01*
X0100106Y0035882D01*
X0099355Y0035882D01*
X0099355Y0036382D02*
X0099355Y0035381D01*
X0099605Y0035131D01*
X0100106Y0035131D01*
X0100356Y0035381D01*
X0100828Y0035131D02*
X0101829Y0035131D01*
X0100828Y0036132D01*
X0100828Y0036382D01*
X0101078Y0036632D01*
X0101579Y0036632D01*
X0101829Y0036382D01*
X0102302Y0036382D02*
X0102302Y0035882D01*
X0102552Y0035632D01*
X0103302Y0035632D01*
X0102802Y0035632D02*
X0102302Y0035131D01*
X0103302Y0035131D02*
X0103302Y0036632D01*
X0102552Y0036632D01*
X0102302Y0036382D01*
X0102431Y0039336D02*
X0102431Y0039586D01*
X0101431Y0040587D01*
X0101431Y0040837D01*
X0102431Y0040837D01*
X0103154Y0040837D02*
X0103154Y0039336D01*
X0102904Y0040087D02*
X0103905Y0040087D01*
X0103154Y0040837D01*
X0100958Y0040587D02*
X0100958Y0039586D01*
X0099957Y0040587D01*
X0099957Y0039586D01*
X0100208Y0039336D01*
X0100708Y0039336D01*
X0100958Y0039586D01*
X0100958Y0040587D02*
X0100708Y0040837D01*
X0100208Y0040837D01*
X0099957Y0040587D01*
X0099958Y0049836D02*
X0099958Y0051337D01*
X0100458Y0050837D01*
X0100931Y0050837D02*
X0101181Y0050587D01*
X0100931Y0050336D01*
X0100931Y0050086D01*
X0101181Y0049836D01*
X0101681Y0049836D01*
X0101931Y0050086D01*
X0102404Y0049836D02*
X0102904Y0050336D01*
X0102654Y0050336D02*
X0103405Y0050336D01*
X0103405Y0049836D02*
X0103405Y0051337D01*
X0102654Y0051337D01*
X0102404Y0051087D01*
X0102404Y0050587D01*
X0102654Y0050336D01*
X0101931Y0051087D02*
X0101681Y0051337D01*
X0101181Y0051337D01*
X0100931Y0051087D01*
X0100931Y0050837D01*
X0101181Y0050587D02*
X0101431Y0050587D01*
X0100458Y0049836D02*
X0099457Y0049836D01*
X0127212Y0049589D02*
X0127462Y0049589D01*
X0128463Y0050589D01*
X0128713Y0050589D01*
X0128713Y0049589D01*
X0128713Y0048866D02*
X0127963Y0048115D01*
X0127963Y0049116D01*
X0128713Y0048866D02*
X0127212Y0048866D01*
X0127462Y0051062D02*
X0128463Y0052063D01*
X0127462Y0052063D01*
X0127212Y0051812D01*
X0127212Y0051312D01*
X0127462Y0051062D01*
X0128463Y0051062D01*
X0128713Y0051312D01*
X0128713Y0051812D01*
X0128463Y0052063D01*
X0137712Y0052062D02*
X0139213Y0052062D01*
X0138713Y0051562D01*
X0138463Y0051089D02*
X0138463Y0050089D01*
X0139213Y0050839D01*
X0137712Y0050839D01*
X0137712Y0051562D02*
X0137712Y0052563D01*
X0137712Y0049616D02*
X0138212Y0049116D01*
X0138212Y0049366D02*
X0138212Y0048615D01*
X0137712Y0048615D02*
X0139213Y0048615D01*
X0139213Y0049366D01*
X0138963Y0049616D01*
X0138463Y0049616D01*
X0138212Y0049366D01*
X0157454Y0059175D02*
X0157705Y0058925D01*
X0158205Y0058925D01*
X0158455Y0059175D01*
X0158928Y0059175D02*
X0159178Y0058925D01*
X0159678Y0058925D01*
X0159929Y0059175D01*
X0160401Y0058925D02*
X0160901Y0059425D01*
X0160651Y0059425D02*
X0161402Y0059425D01*
X0161402Y0058925D02*
X0161402Y0060426D01*
X0160651Y0060426D01*
X0160401Y0060176D01*
X0160401Y0059675D01*
X0160651Y0059425D01*
X0159929Y0060176D02*
X0159678Y0060426D01*
X0159178Y0060426D01*
X0158928Y0060176D01*
X0158928Y0059926D01*
X0159178Y0059675D01*
X0158928Y0059425D01*
X0158928Y0059175D01*
X0159178Y0059675D02*
X0159428Y0059675D01*
X0158455Y0060176D02*
X0158205Y0060426D01*
X0157705Y0060426D01*
X0157454Y0060176D01*
X0157454Y0059926D01*
X0157705Y0059675D01*
X0157454Y0059425D01*
X0157454Y0059175D01*
X0157705Y0059675D02*
X0157955Y0059675D01*
X0157955Y0069425D02*
X0157955Y0070926D01*
X0157455Y0070426D01*
X0156954Y0070926D01*
X0156954Y0069425D01*
X0158428Y0069425D02*
X0159429Y0069425D01*
X0158928Y0069425D02*
X0158928Y0070926D01*
X0159429Y0070426D01*
X0140780Y0082684D02*
X0140530Y0082434D01*
X0139529Y0082434D01*
X0139279Y0082684D01*
X0139279Y0083185D01*
X0139529Y0083435D01*
X0139279Y0083908D02*
X0139279Y0084908D01*
X0139279Y0084408D02*
X0140780Y0084408D01*
X0140280Y0083908D01*
X0140530Y0083435D02*
X0140780Y0083185D01*
X0140780Y0082684D01*
X0140530Y0085381D02*
X0139529Y0085381D01*
X0140530Y0086382D01*
X0139529Y0086382D01*
X0139279Y0086131D01*
X0139279Y0085631D01*
X0139529Y0085381D01*
X0140530Y0085381D02*
X0140780Y0085631D01*
X0140780Y0086131D01*
X0140530Y0086382D01*
X0140337Y0094041D02*
X0139336Y0094041D01*
X0140337Y0095041D01*
X0139336Y0095041D01*
X0139086Y0094791D01*
X0139086Y0094291D01*
X0139336Y0094041D01*
X0140337Y0094041D02*
X0140587Y0094291D01*
X0140587Y0094791D01*
X0140337Y0095041D01*
X0139336Y0095514D02*
X0139336Y0095764D01*
X0139086Y0095764D01*
X0139086Y0095514D01*
X0139336Y0095514D01*
X0139837Y0096250D02*
X0139837Y0097251D01*
X0139336Y0097724D02*
X0139086Y0097724D01*
X0139336Y0097724D02*
X0140337Y0098725D01*
X0140587Y0098725D01*
X0140587Y0097724D01*
X0140587Y0097001D02*
X0139837Y0096250D01*
X0140587Y0097001D02*
X0139086Y0097001D01*
X0139336Y0099197D02*
X0139086Y0099447D01*
X0139086Y0100198D01*
X0140087Y0100198D01*
X0140087Y0099197D02*
X0139336Y0099197D01*
X0106404Y0097711D02*
X0106404Y0096710D01*
X0105404Y0097711D01*
X0105404Y0096710D01*
X0105654Y0096460D01*
X0106154Y0096460D01*
X0106404Y0096710D01*
X0106404Y0097711D02*
X0106154Y0097962D01*
X0105654Y0097962D01*
X0105404Y0097711D01*
X0104931Y0096710D02*
X0104681Y0096710D01*
X0104681Y0096460D01*
X0104931Y0096460D01*
X0104931Y0096710D01*
X0104195Y0097211D02*
X0103194Y0097211D01*
X0102721Y0096710D02*
X0102721Y0096460D01*
X0102721Y0096710D02*
X0101720Y0097711D01*
X0101720Y0097962D01*
X0102721Y0097962D01*
X0103444Y0097962D02*
X0103444Y0096460D01*
X0104195Y0097211D02*
X0103444Y0097962D01*
X0101248Y0097461D02*
X0101248Y0096710D01*
X0100998Y0096460D01*
X0100247Y0096460D01*
X0100247Y0097461D01*
X0100259Y0095132D02*
X0100759Y0095132D01*
X0101009Y0094882D01*
X0101482Y0094882D02*
X0101482Y0094632D01*
X0101732Y0094382D01*
X0101482Y0094132D01*
X0101482Y0093881D01*
X0101732Y0093631D01*
X0102232Y0093631D01*
X0102483Y0093881D01*
X0102955Y0093631D02*
X0103455Y0094132D01*
X0103205Y0094132D02*
X0103956Y0094132D01*
X0103956Y0093631D02*
X0103956Y0095132D01*
X0103205Y0095132D01*
X0102955Y0094882D01*
X0102955Y0094382D01*
X0103205Y0094132D01*
X0102483Y0094882D02*
X0102232Y0095132D01*
X0101732Y0095132D01*
X0101482Y0094882D01*
X0101732Y0094382D02*
X0101982Y0094382D01*
X0101009Y0093631D02*
X0100009Y0094632D01*
X0100009Y0094882D01*
X0100259Y0095132D01*
X0100009Y0093631D02*
X0101009Y0093631D01*
X0091115Y0096518D02*
X0091115Y0097518D01*
X0090865Y0097769D01*
X0090364Y0097769D01*
X0090114Y0097518D01*
X0089642Y0097518D02*
X0089642Y0097268D01*
X0089392Y0097018D01*
X0088641Y0097018D01*
X0088641Y0096518D02*
X0088641Y0097518D01*
X0088891Y0097769D01*
X0089392Y0097769D01*
X0089642Y0097518D01*
X0089642Y0096518D02*
X0089392Y0096267D01*
X0088891Y0096267D01*
X0088641Y0096518D01*
X0090114Y0096518D02*
X0090364Y0096267D01*
X0090865Y0096267D01*
X0091115Y0096518D01*
X0100759Y0084632D02*
X0100509Y0084382D01*
X0101509Y0083381D01*
X0101259Y0083131D01*
X0100759Y0083131D01*
X0100509Y0083381D01*
X0100509Y0084382D01*
X0100759Y0084632D02*
X0101259Y0084632D01*
X0101509Y0084382D01*
X0101509Y0083381D01*
X0101693Y0083243D02*
X0101442Y0082992D01*
X0101442Y0082742D01*
X0101693Y0082492D01*
X0101442Y0082242D01*
X0101442Y0081992D01*
X0101693Y0081741D01*
X0102193Y0081741D01*
X0102443Y0081992D01*
X0102916Y0081741D02*
X0103416Y0082242D01*
X0103166Y0082242D02*
X0103917Y0082242D01*
X0103917Y0081741D02*
X0103917Y0083243D01*
X0103166Y0083243D01*
X0102916Y0082992D01*
X0102916Y0082492D01*
X0103166Y0082242D01*
X0102983Y0083131D02*
X0102983Y0083381D01*
X0101982Y0084382D01*
X0101982Y0084632D01*
X0102983Y0084632D01*
X0103705Y0084632D02*
X0104456Y0083882D01*
X0103455Y0083882D01*
X0103705Y0084632D02*
X0103705Y0083131D01*
X0102443Y0082992D02*
X0102193Y0083243D01*
X0101693Y0083243D01*
X0101693Y0082492D02*
X0101943Y0082492D01*
X0100970Y0081992D02*
X0099969Y0082992D01*
X0099969Y0081992D01*
X0100219Y0081741D01*
X0100720Y0081741D01*
X0100970Y0081992D01*
X0100970Y0082992D01*
X0100720Y0083243D01*
X0100219Y0083243D01*
X0099969Y0082992D01*
X0100719Y0072743D02*
X0100469Y0072492D01*
X0101470Y0071492D01*
X0101220Y0071241D01*
X0100719Y0071241D01*
X0100469Y0071492D01*
X0100469Y0072492D01*
X0100719Y0072743D02*
X0101220Y0072743D01*
X0101470Y0072492D01*
X0101470Y0071492D01*
X0101942Y0072492D02*
X0102943Y0071492D01*
X0102943Y0071241D01*
X0103666Y0071241D02*
X0103666Y0072743D01*
X0104417Y0071992D01*
X0103416Y0071992D01*
X0102943Y0072743D02*
X0101942Y0072743D01*
X0101942Y0072492D01*
X0072499Y0071274D02*
X0072499Y0069773D01*
X0072499Y0070273D02*
X0071749Y0070273D01*
X0071498Y0070524D01*
X0071498Y0071024D01*
X0071749Y0071274D01*
X0072499Y0071274D01*
X0071999Y0070273D02*
X0071498Y0069773D01*
X0071026Y0069773D02*
X0070025Y0069773D01*
X0070526Y0069773D02*
X0070526Y0071274D01*
X0071026Y0070774D01*
X0069553Y0070524D02*
X0068802Y0071274D01*
X0068802Y0069773D01*
X0068552Y0070524D02*
X0069553Y0070524D01*
X0070525Y0060774D02*
X0070525Y0059273D01*
X0071526Y0059273D02*
X0071526Y0060774D01*
X0071026Y0060274D01*
X0070525Y0060774D01*
X0072499Y0060774D02*
X0072499Y0059273D01*
X0072999Y0059273D02*
X0071998Y0059273D01*
X0072999Y0060274D02*
X0072499Y0060774D01*
X0041143Y0060666D02*
X0041143Y0059165D01*
X0041143Y0059665D02*
X0040393Y0059665D01*
X0040143Y0059916D01*
X0040143Y0060416D01*
X0040393Y0060666D01*
X0041143Y0060666D01*
X0040643Y0059665D02*
X0040143Y0059165D01*
X0039670Y0059165D02*
X0038669Y0059165D01*
X0039170Y0059165D02*
X0039170Y0060666D01*
X0039670Y0060166D01*
X0038197Y0060416D02*
X0037947Y0060666D01*
X0037446Y0060666D01*
X0037196Y0060416D01*
X0037196Y0060166D01*
X0037446Y0059916D01*
X0037196Y0059665D01*
X0037196Y0059415D01*
X0037446Y0059165D01*
X0037947Y0059165D01*
X0038197Y0059415D01*
X0037696Y0059916D02*
X0037446Y0059916D01*
X0018955Y0052803D02*
X0018955Y0051802D01*
X0018204Y0051802D01*
X0018454Y0052302D01*
X0018454Y0052553D01*
X0018204Y0052803D01*
X0017704Y0052803D01*
X0017454Y0052553D01*
X0017454Y0052052D01*
X0017704Y0051802D01*
X0017454Y0051330D02*
X0017454Y0050329D01*
X0018454Y0051330D01*
X0018705Y0051330D01*
X0018955Y0051079D01*
X0018955Y0050579D01*
X0018705Y0050329D01*
X0018705Y0049856D02*
X0018204Y0049856D01*
X0017954Y0049606D01*
X0017954Y0048856D01*
X0017954Y0049356D02*
X0017454Y0049856D01*
X0017454Y0048856D02*
X0018955Y0048856D01*
X0018955Y0049606D01*
X0018705Y0049856D01*
X0008455Y0049829D02*
X0008455Y0050830D01*
X0008205Y0050830D01*
X0007204Y0049829D01*
X0006954Y0049829D01*
X0006954Y0049106D02*
X0008455Y0049106D01*
X0007704Y0048356D01*
X0007704Y0049356D01*
X0007204Y0051302D02*
X0008205Y0052303D01*
X0007204Y0052303D01*
X0006954Y0052053D01*
X0006954Y0051552D01*
X0007204Y0051302D01*
X0008205Y0051302D01*
X0008455Y0051552D01*
X0008455Y0052053D01*
X0008205Y0052303D01*
X0036696Y0069665D02*
X0036696Y0071166D01*
X0037196Y0070666D01*
X0037697Y0071166D01*
X0037697Y0069665D01*
X0038169Y0069665D02*
X0039170Y0069665D01*
X0038670Y0069665D02*
X0038670Y0071166D01*
X0039170Y0070666D01*
X0020522Y0082925D02*
X0020272Y0082674D01*
X0019271Y0082674D01*
X0019020Y0082925D01*
X0019020Y0083425D01*
X0019271Y0083675D01*
X0019271Y0084148D02*
X0019020Y0084398D01*
X0019020Y0084898D01*
X0019271Y0085149D01*
X0019521Y0085149D01*
X0019771Y0084898D01*
X0019771Y0084148D01*
X0019271Y0084148D01*
X0019771Y0084148D02*
X0020272Y0084648D01*
X0020522Y0085149D01*
X0020272Y0083675D02*
X0020522Y0083425D01*
X0020522Y0082925D01*
X0020079Y0094281D02*
X0020329Y0094531D01*
X0020329Y0095031D01*
X0020079Y0095282D01*
X0019078Y0094281D01*
X0018828Y0094531D01*
X0018828Y0095031D01*
X0019078Y0095282D01*
X0020079Y0095282D01*
X0020079Y0094281D02*
X0019078Y0094281D01*
X0019078Y0095754D02*
X0019078Y0096004D01*
X0018828Y0096004D01*
X0018828Y0095754D01*
X0019078Y0095754D01*
X0019578Y0096491D02*
X0019578Y0097491D01*
X0019078Y0097964D02*
X0018828Y0097964D01*
X0019078Y0097964D02*
X0020079Y0098965D01*
X0020329Y0098965D01*
X0020329Y0097964D01*
X0020329Y0097241D02*
X0019578Y0096491D01*
X0018828Y0097241D02*
X0020329Y0097241D01*
X0019828Y0099437D02*
X0019078Y0099437D01*
X0018828Y0099687D01*
X0018828Y0100438D01*
X0019828Y0100438D01*
X0039639Y0122322D02*
X0040140Y0122322D01*
X0040390Y0122573D01*
X0040390Y0123073D02*
X0039889Y0123323D01*
X0039639Y0123323D01*
X0039389Y0123073D01*
X0039389Y0122573D01*
X0039639Y0122322D01*
X0040390Y0123073D02*
X0040390Y0123824D01*
X0039389Y0123824D01*
X0041363Y0123824D02*
X0041363Y0122322D01*
X0041863Y0122322D02*
X0040862Y0122322D01*
X0041863Y0123323D02*
X0041363Y0123824D01*
X0042335Y0123574D02*
X0042335Y0123073D01*
X0042586Y0122823D01*
X0043336Y0122823D01*
X0042836Y0122823D02*
X0042335Y0122322D01*
X0043336Y0122322D02*
X0043336Y0123824D01*
X0042586Y0123824D01*
X0042335Y0123574D01*
X0041363Y0132822D02*
X0040362Y0132822D01*
X0039890Y0132822D02*
X0039890Y0134324D01*
X0039389Y0133823D01*
X0038889Y0134324D01*
X0038889Y0132822D01*
X0039600Y0134252D02*
X0040100Y0134252D01*
X0040350Y0134502D01*
X0040823Y0134252D02*
X0041824Y0134252D01*
X0040823Y0135252D01*
X0040823Y0135503D01*
X0041073Y0135753D01*
X0041573Y0135753D01*
X0041824Y0135503D01*
X0042296Y0135503D02*
X0042296Y0135002D01*
X0042546Y0134752D01*
X0043297Y0134752D01*
X0043297Y0134252D02*
X0043297Y0135753D01*
X0042546Y0135753D01*
X0042296Y0135503D01*
X0042797Y0134752D02*
X0042296Y0134252D01*
X0041363Y0133823D02*
X0040863Y0134324D01*
X0040863Y0132822D01*
X0039600Y0134252D02*
X0039350Y0134502D01*
X0039350Y0134752D01*
X0039600Y0135002D01*
X0039850Y0135002D01*
X0039600Y0135002D02*
X0039350Y0135252D01*
X0039350Y0135503D01*
X0039600Y0135753D01*
X0040100Y0135753D01*
X0040350Y0135503D01*
X0024463Y0137562D02*
X0024463Y0138063D01*
X0024212Y0138313D01*
X0023212Y0137312D01*
X0022961Y0137562D01*
X0022961Y0138063D01*
X0023212Y0138313D01*
X0024212Y0138313D01*
X0024463Y0137562D02*
X0024212Y0137312D01*
X0023212Y0137312D01*
X0023212Y0138786D02*
X0023212Y0139036D01*
X0022961Y0139036D01*
X0022961Y0138786D01*
X0023212Y0138786D01*
X0023712Y0139522D02*
X0023712Y0140523D01*
X0023212Y0140995D02*
X0022961Y0140995D01*
X0023212Y0140995D02*
X0024212Y0141996D01*
X0024463Y0141996D01*
X0024463Y0140995D01*
X0024463Y0140273D02*
X0023712Y0139522D01*
X0022961Y0140273D02*
X0024463Y0140273D01*
X0023962Y0142469D02*
X0023212Y0142469D01*
X0022961Y0142719D01*
X0022961Y0143469D01*
X0023962Y0143469D01*
X0030666Y0148657D02*
X0030916Y0148407D01*
X0031417Y0148407D01*
X0031667Y0148657D01*
X0030666Y0149658D01*
X0030666Y0148657D01*
X0030666Y0149658D02*
X0030916Y0149908D01*
X0031417Y0149908D01*
X0031667Y0149658D01*
X0031667Y0148657D01*
X0032139Y0149658D02*
X0033140Y0148657D01*
X0033140Y0148407D01*
X0033863Y0148407D02*
X0033863Y0149908D01*
X0034613Y0149157D01*
X0033613Y0149157D01*
X0033140Y0149908D02*
X0032139Y0149908D01*
X0032139Y0149658D01*
X0038850Y0146003D02*
X0039850Y0145002D01*
X0039600Y0144752D01*
X0039100Y0144752D01*
X0038850Y0145002D01*
X0038850Y0146003D01*
X0039100Y0146253D01*
X0039600Y0146253D01*
X0039850Y0146003D01*
X0039850Y0145002D01*
X0040323Y0145002D02*
X0040573Y0144752D01*
X0041073Y0144752D01*
X0041324Y0145002D01*
X0041796Y0145002D02*
X0042046Y0144752D01*
X0042547Y0144752D01*
X0042797Y0145002D01*
X0042297Y0145502D02*
X0042046Y0145502D01*
X0041796Y0145252D01*
X0041796Y0145002D01*
X0042046Y0145502D02*
X0041796Y0145752D01*
X0041796Y0146003D01*
X0042046Y0146253D01*
X0042547Y0146253D01*
X0042797Y0146003D01*
X0041324Y0146003D02*
X0041073Y0146253D01*
X0040573Y0146253D01*
X0040323Y0146003D01*
X0040323Y0145752D01*
X0040573Y0145502D01*
X0040323Y0145252D01*
X0040323Y0145002D01*
X0040573Y0145502D02*
X0040823Y0145502D01*
X0034113Y0158907D02*
X0034113Y0160408D01*
X0033363Y0160408D01*
X0033113Y0160158D01*
X0033113Y0159657D01*
X0033363Y0159407D01*
X0034113Y0159407D01*
X0033613Y0159407D02*
X0033113Y0158907D01*
X0032640Y0158907D02*
X0031639Y0159908D01*
X0031639Y0160158D01*
X0031889Y0160408D01*
X0032390Y0160408D01*
X0032640Y0160158D01*
X0032640Y0158907D02*
X0031639Y0158907D01*
X0031167Y0158907D02*
X0031167Y0159157D01*
X0030166Y0160158D01*
X0030166Y0160408D01*
X0031167Y0160408D01*
X0076347Y0145484D02*
X0077348Y0145484D01*
X0076597Y0146235D01*
X0076597Y0144734D01*
X0077820Y0144734D02*
X0078821Y0144734D01*
X0077820Y0145734D01*
X0077820Y0145985D01*
X0078071Y0146235D01*
X0078571Y0146235D01*
X0078821Y0145985D01*
X0079294Y0145985D02*
X0079294Y0145484D01*
X0079544Y0145234D01*
X0080294Y0145234D01*
X0079794Y0145234D02*
X0079294Y0144734D01*
X0080294Y0144734D02*
X0080294Y0146235D01*
X0079544Y0146235D01*
X0079294Y0145985D01*
X0084783Y0148360D02*
X0085033Y0148110D01*
X0085533Y0148110D01*
X0085784Y0148360D01*
X0085784Y0148610D01*
X0085533Y0148861D01*
X0085033Y0148861D01*
X0084783Y0148610D01*
X0084783Y0148360D01*
X0085033Y0148861D02*
X0084783Y0149111D01*
X0084783Y0149361D01*
X0085033Y0149611D01*
X0085533Y0149611D01*
X0085784Y0149361D01*
X0085784Y0149111D01*
X0085533Y0148861D01*
X0086256Y0149111D02*
X0086256Y0149361D01*
X0086506Y0149611D01*
X0087007Y0149611D01*
X0087257Y0149361D01*
X0087729Y0149361D02*
X0087729Y0148861D01*
X0087979Y0148610D01*
X0088730Y0148610D01*
X0088730Y0148110D02*
X0088730Y0149611D01*
X0087979Y0149611D01*
X0087729Y0149361D01*
X0088230Y0148610D02*
X0087729Y0148110D01*
X0087257Y0148110D02*
X0086256Y0149111D01*
X0086256Y0148110D02*
X0087257Y0148110D01*
X0097570Y0144786D02*
X0097570Y0144286D01*
X0097820Y0144036D01*
X0098070Y0144036D01*
X0098321Y0144286D01*
X0098321Y0144786D01*
X0098070Y0145037D01*
X0097820Y0145037D01*
X0097570Y0144786D01*
X0098321Y0144786D02*
X0098571Y0145037D01*
X0098821Y0145037D01*
X0099071Y0144786D01*
X0099071Y0144286D01*
X0098821Y0144036D01*
X0098571Y0144036D01*
X0098321Y0144286D01*
X0098821Y0143563D02*
X0099071Y0143313D01*
X0099071Y0142813D01*
X0098821Y0142563D01*
X0097820Y0142563D01*
X0097570Y0142813D01*
X0097570Y0143313D01*
X0097820Y0143563D01*
X0080794Y0135485D02*
X0080544Y0135735D01*
X0080044Y0135735D01*
X0079794Y0135485D01*
X0079794Y0135234D01*
X0080044Y0134984D01*
X0079794Y0134734D01*
X0079794Y0134484D01*
X0080044Y0134234D01*
X0080544Y0134234D01*
X0080794Y0134484D01*
X0080216Y0134424D02*
X0079465Y0134424D01*
X0079215Y0134174D01*
X0079215Y0133673D01*
X0079465Y0133423D01*
X0080216Y0133423D01*
X0080216Y0132922D02*
X0080216Y0134424D01*
X0080294Y0134984D02*
X0080044Y0134984D01*
X0079321Y0134484D02*
X0079071Y0134234D01*
X0078571Y0134234D01*
X0078320Y0134484D01*
X0078320Y0134734D01*
X0078571Y0134984D01*
X0078821Y0134984D01*
X0078571Y0134984D02*
X0078320Y0135234D01*
X0078320Y0135485D01*
X0078571Y0135735D01*
X0079071Y0135735D01*
X0079321Y0135485D01*
X0077848Y0135485D02*
X0077848Y0134484D01*
X0076847Y0135485D01*
X0076847Y0134484D01*
X0077097Y0134234D01*
X0077598Y0134234D01*
X0077848Y0134484D01*
X0078242Y0134424D02*
X0078242Y0132922D01*
X0078742Y0132922D02*
X0077742Y0132922D01*
X0077269Y0133173D02*
X0077019Y0132922D01*
X0076519Y0132922D01*
X0076268Y0133173D01*
X0076268Y0133423D01*
X0076519Y0133673D01*
X0077269Y0133673D01*
X0077269Y0133173D01*
X0077269Y0133673D02*
X0076769Y0134174D01*
X0076268Y0134424D01*
X0076847Y0135485D02*
X0077097Y0135735D01*
X0077598Y0135735D01*
X0077848Y0135485D01*
X0078242Y0134424D02*
X0078742Y0133923D01*
X0079715Y0133423D02*
X0079215Y0132922D01*
X0097763Y0132680D02*
X0097763Y0133430D01*
X0098764Y0133430D01*
X0098764Y0132430D02*
X0098013Y0132430D01*
X0097763Y0132680D01*
X0099014Y0131957D02*
X0098013Y0130956D01*
X0097763Y0130956D01*
X0097763Y0130234D02*
X0099264Y0130234D01*
X0098514Y0129483D01*
X0098514Y0130484D01*
X0099264Y0130956D02*
X0099264Y0131957D01*
X0099014Y0131957D01*
X0098013Y0128997D02*
X0097763Y0128997D01*
X0097763Y0128746D01*
X0098013Y0128746D01*
X0098013Y0128997D01*
X0098013Y0128274D02*
X0097763Y0128024D01*
X0097763Y0127523D01*
X0098013Y0127273D01*
X0099014Y0128274D01*
X0098013Y0128274D01*
X0098013Y0127273D02*
X0099014Y0127273D01*
X0099264Y0127523D01*
X0099264Y0128024D01*
X0099014Y0128274D01*
X0080716Y0123423D02*
X0080215Y0123924D01*
X0080215Y0122422D01*
X0079715Y0122422D02*
X0080716Y0122422D01*
X0079242Y0122422D02*
X0079242Y0123924D01*
X0078742Y0123423D01*
X0078242Y0123924D01*
X0078242Y0122422D01*
X0024656Y0125956D02*
X0024405Y0125706D01*
X0023405Y0125706D01*
X0023154Y0125956D01*
X0023154Y0126457D01*
X0023405Y0126707D01*
X0023405Y0127179D02*
X0023154Y0127179D01*
X0023405Y0127179D02*
X0024405Y0128180D01*
X0024656Y0128180D01*
X0024656Y0127179D01*
X0024405Y0126707D02*
X0024656Y0126457D01*
X0024656Y0125956D01*
X0084283Y0158860D02*
X0084533Y0158610D01*
X0085033Y0158610D01*
X0085284Y0158860D01*
X0084283Y0159861D01*
X0084283Y0158860D01*
X0085284Y0158860D02*
X0085284Y0159861D01*
X0085033Y0160111D01*
X0084533Y0160111D01*
X0084283Y0159861D01*
X0085756Y0159861D02*
X0086757Y0158860D01*
X0086757Y0158610D01*
X0087479Y0158610D02*
X0087479Y0160111D01*
X0088230Y0159361D01*
X0087229Y0159361D01*
X0086757Y0160111D02*
X0085756Y0160111D01*
X0085756Y0159861D01*
X0143220Y0143229D02*
X0144221Y0143229D01*
X0144221Y0142228D02*
X0143470Y0142228D01*
X0143220Y0142479D01*
X0143220Y0143229D01*
X0144471Y0141756D02*
X0143470Y0140755D01*
X0143220Y0140755D01*
X0143220Y0140033D02*
X0144721Y0140033D01*
X0143971Y0139282D01*
X0143971Y0140283D01*
X0144721Y0140755D02*
X0144721Y0141756D01*
X0144471Y0141756D01*
X0143470Y0138796D02*
X0143220Y0138796D01*
X0143220Y0138545D01*
X0143470Y0138545D01*
X0143470Y0138796D01*
X0143470Y0138073D02*
X0143220Y0137823D01*
X0143220Y0137322D01*
X0143470Y0137072D01*
X0144471Y0138073D01*
X0143470Y0138073D01*
X0144471Y0138073D02*
X0144721Y0137823D01*
X0144721Y0137322D01*
X0144471Y0137072D01*
X0143470Y0137072D01*
X0159147Y0134084D02*
X0159147Y0132582D01*
X0160148Y0132582D02*
X0160148Y0134084D01*
X0159648Y0133583D01*
X0159147Y0134084D01*
X0159608Y0134262D02*
X0159608Y0135262D01*
X0159858Y0135513D01*
X0160359Y0135513D01*
X0160609Y0135262D01*
X0160609Y0135012D01*
X0160359Y0134762D01*
X0159608Y0134762D01*
X0159608Y0134262D02*
X0159858Y0134011D01*
X0160359Y0134011D01*
X0160609Y0134262D01*
X0161081Y0134262D02*
X0161331Y0134011D01*
X0161832Y0134011D01*
X0162082Y0134262D01*
X0162555Y0134011D02*
X0163055Y0134512D01*
X0162805Y0134512D02*
X0163555Y0134512D01*
X0163555Y0134011D02*
X0163555Y0135513D01*
X0162805Y0135513D01*
X0162555Y0135262D01*
X0162555Y0134762D01*
X0162805Y0134512D01*
X0162082Y0135262D02*
X0161832Y0135513D01*
X0161331Y0135513D01*
X0161081Y0135262D01*
X0161081Y0135012D01*
X0161331Y0134762D01*
X0161081Y0134512D01*
X0161081Y0134262D01*
X0161121Y0134084D02*
X0161121Y0132582D01*
X0160621Y0132582D02*
X0161622Y0132582D01*
X0161622Y0133583D02*
X0161121Y0134084D01*
X0161331Y0134762D02*
X0161582Y0134762D01*
X0144914Y0128913D02*
X0143413Y0128913D01*
X0143413Y0129413D02*
X0143413Y0128412D01*
X0143413Y0127940D02*
X0143413Y0126939D01*
X0143413Y0127439D02*
X0144914Y0127439D01*
X0144414Y0126939D01*
X0144664Y0126467D02*
X0144914Y0126216D01*
X0144914Y0125716D01*
X0144664Y0125466D01*
X0143663Y0125466D01*
X0143413Y0125716D01*
X0143413Y0126216D01*
X0143663Y0126467D01*
X0144414Y0128412D02*
X0144914Y0128913D01*
X0159647Y0123584D02*
X0160648Y0123584D01*
X0160648Y0122833D01*
X0160148Y0123083D01*
X0159898Y0123083D01*
X0159647Y0122833D01*
X0159647Y0122332D01*
X0159898Y0122082D01*
X0160398Y0122082D01*
X0160648Y0122332D01*
X0161121Y0122332D02*
X0161371Y0122082D01*
X0161871Y0122082D01*
X0162122Y0122332D01*
X0162594Y0122082D02*
X0163094Y0122583D01*
X0162844Y0122583D02*
X0163595Y0122583D01*
X0163595Y0122082D02*
X0163595Y0123584D01*
X0162844Y0123584D01*
X0162594Y0123333D01*
X0162594Y0122833D01*
X0162844Y0122583D01*
X0162122Y0123333D02*
X0161871Y0123584D01*
X0161371Y0123584D01*
X0161121Y0123333D01*
X0161121Y0123083D01*
X0161371Y0122833D01*
X0161121Y0122583D01*
X0161121Y0122332D01*
X0161371Y0122833D02*
X0161621Y0122833D01*
X0196527Y0132932D02*
X0196527Y0133183D01*
X0196777Y0133433D01*
X0197528Y0133433D01*
X0197528Y0132932D01*
X0197277Y0132682D01*
X0196777Y0132682D01*
X0196527Y0132932D01*
X0197027Y0133933D02*
X0197528Y0133433D01*
X0198000Y0133683D02*
X0198250Y0133433D01*
X0198000Y0133183D01*
X0198000Y0132932D01*
X0198250Y0132682D01*
X0198751Y0132682D01*
X0199001Y0132932D01*
X0199473Y0132682D02*
X0199974Y0133183D01*
X0199724Y0133183D02*
X0200474Y0133183D01*
X0200474Y0132682D02*
X0200474Y0134184D01*
X0199724Y0134184D01*
X0199473Y0133933D01*
X0199473Y0133433D01*
X0199724Y0133183D01*
X0199329Y0133993D02*
X0199580Y0134244D01*
X0199329Y0133993D02*
X0198829Y0133993D01*
X0198579Y0134244D01*
X0198579Y0134494D01*
X0198829Y0134744D01*
X0199079Y0134744D01*
X0198829Y0134744D02*
X0198579Y0134994D01*
X0198579Y0135244D01*
X0198829Y0135495D01*
X0199329Y0135495D01*
X0199580Y0135244D01*
X0200052Y0135244D02*
X0200052Y0134994D01*
X0200302Y0134744D01*
X0200052Y0134494D01*
X0200052Y0134244D01*
X0200302Y0133993D01*
X0200803Y0133993D01*
X0201053Y0134244D01*
X0200553Y0134744D02*
X0200302Y0134744D01*
X0200052Y0135244D02*
X0200302Y0135495D01*
X0200803Y0135495D01*
X0201053Y0135244D01*
X0199001Y0133933D02*
X0198751Y0134184D01*
X0198250Y0134184D01*
X0198000Y0133933D01*
X0198000Y0133683D01*
X0197856Y0133993D02*
X0198106Y0134244D01*
X0197106Y0135244D01*
X0197106Y0134244D01*
X0197356Y0133993D01*
X0197856Y0133993D01*
X0198106Y0134244D02*
X0198106Y0135244D01*
X0197856Y0135495D01*
X0197356Y0135495D01*
X0197106Y0135244D01*
X0196527Y0134184D02*
X0197027Y0133933D01*
X0198250Y0133433D02*
X0198501Y0133433D01*
X0218021Y0133190D02*
X0219022Y0133190D01*
X0218021Y0133190D02*
X0218021Y0132440D01*
X0218272Y0132189D01*
X0219022Y0132189D01*
X0219273Y0131717D02*
X0218272Y0130716D01*
X0218021Y0130716D01*
X0218021Y0129993D02*
X0219523Y0129993D01*
X0218772Y0129243D01*
X0218772Y0130244D01*
X0219523Y0130716D02*
X0219523Y0131717D01*
X0219273Y0131717D01*
X0218272Y0128756D02*
X0218021Y0128756D01*
X0218021Y0128506D01*
X0218272Y0128506D01*
X0218272Y0128756D01*
X0218272Y0128034D02*
X0218021Y0127784D01*
X0218021Y0127283D01*
X0218272Y0127033D01*
X0219273Y0128034D01*
X0218272Y0128034D01*
X0219273Y0128034D02*
X0219523Y0127784D01*
X0219523Y0127283D01*
X0219273Y0127033D01*
X0218272Y0127033D01*
X0200974Y0123183D02*
X0200474Y0123684D01*
X0200474Y0122182D01*
X0200974Y0122182D02*
X0199973Y0122182D01*
X0199501Y0122182D02*
X0199501Y0123684D01*
X0199001Y0123183D01*
X0198500Y0123684D01*
X0198500Y0122182D01*
X0217829Y0141099D02*
X0217829Y0141600D01*
X0218079Y0141850D01*
X0217829Y0142322D02*
X0217829Y0143323D01*
X0217829Y0143796D02*
X0218829Y0144796D01*
X0219080Y0144796D01*
X0219330Y0144546D01*
X0219330Y0144046D01*
X0219080Y0143796D01*
X0219330Y0142823D02*
X0217829Y0142823D01*
X0217829Y0143796D02*
X0217829Y0144796D01*
X0219330Y0142823D02*
X0218829Y0142322D01*
X0219080Y0141850D02*
X0219330Y0141600D01*
X0219330Y0141099D01*
X0219080Y0140849D01*
X0218079Y0140849D01*
X0217829Y0141099D01*
X0208988Y0147870D02*
X0208988Y0149371D01*
X0208238Y0149371D01*
X0207988Y0149121D01*
X0207988Y0148620D01*
X0208238Y0148370D01*
X0208988Y0148370D01*
X0208488Y0148370D02*
X0207988Y0147870D01*
X0207515Y0148620D02*
X0206514Y0148620D01*
X0206042Y0148620D02*
X0205041Y0148620D01*
X0205291Y0147870D02*
X0205291Y0149371D01*
X0206042Y0148620D01*
X0206765Y0147870D02*
X0206765Y0149371D01*
X0207515Y0148620D01*
X0200553Y0145995D02*
X0200553Y0144493D01*
X0200553Y0144994D02*
X0199802Y0144994D01*
X0199552Y0145244D01*
X0199552Y0145744D01*
X0199802Y0145995D01*
X0200553Y0145995D01*
X0200053Y0144994D02*
X0199552Y0144493D01*
X0199080Y0145244D02*
X0198079Y0145244D01*
X0197606Y0144744D02*
X0197606Y0145744D01*
X0197356Y0145995D01*
X0196856Y0145995D01*
X0196606Y0145744D01*
X0197606Y0144744D01*
X0197356Y0144493D01*
X0196856Y0144493D01*
X0196606Y0144744D01*
X0196606Y0145744D01*
X0198329Y0145995D02*
X0199080Y0145244D01*
X0198329Y0144493D02*
X0198329Y0145995D01*
X0204791Y0158370D02*
X0205292Y0158370D01*
X0205542Y0158620D01*
X0204541Y0159621D01*
X0204541Y0158620D01*
X0204791Y0158370D01*
X0205542Y0158620D02*
X0205542Y0159621D01*
X0205292Y0159871D01*
X0204791Y0159871D01*
X0204541Y0159621D01*
X0206014Y0159621D02*
X0207015Y0158620D01*
X0207015Y0158370D01*
X0207738Y0158370D02*
X0207738Y0159871D01*
X0208488Y0159120D01*
X0207488Y0159120D01*
X0207015Y0159871D02*
X0206014Y0159871D01*
X0206014Y0159621D01*
X0163055Y0145762D02*
X0162805Y0146013D01*
X0162305Y0146013D01*
X0162055Y0145762D01*
X0162055Y0145512D01*
X0162305Y0145262D01*
X0162055Y0145012D01*
X0162055Y0144762D01*
X0162305Y0144511D01*
X0162805Y0144511D01*
X0163055Y0144762D01*
X0162555Y0145262D02*
X0162305Y0145262D01*
X0161582Y0144762D02*
X0161332Y0144511D01*
X0160831Y0144511D01*
X0160581Y0144762D01*
X0160581Y0145012D01*
X0160831Y0145262D01*
X0161082Y0145262D01*
X0160831Y0145262D02*
X0160581Y0145512D01*
X0160581Y0145762D01*
X0160831Y0146013D01*
X0161332Y0146013D01*
X0161582Y0145762D01*
X0160109Y0145762D02*
X0160109Y0144762D01*
X0159108Y0145762D01*
X0159108Y0144762D01*
X0159358Y0144511D01*
X0159859Y0144511D01*
X0160109Y0144762D01*
X0160109Y0145762D02*
X0159859Y0146013D01*
X0159358Y0146013D01*
X0159108Y0145762D01*
X0154872Y0148917D02*
X0153871Y0148917D01*
X0153399Y0148417D02*
X0153399Y0148167D01*
X0153399Y0148417D02*
X0152398Y0149418D01*
X0152398Y0149668D01*
X0153399Y0149668D01*
X0154121Y0149668D02*
X0154872Y0148917D01*
X0154121Y0148167D02*
X0154121Y0149668D01*
X0151925Y0149418D02*
X0151925Y0148417D01*
X0150924Y0149418D01*
X0150924Y0148417D01*
X0151175Y0148167D01*
X0151675Y0148167D01*
X0151925Y0148417D01*
X0151925Y0149418D02*
X0151675Y0149668D01*
X0151175Y0149668D01*
X0150924Y0149418D01*
X0150675Y0158667D02*
X0151175Y0158667D01*
X0151425Y0158917D01*
X0151898Y0159417D02*
X0152899Y0159417D01*
X0152148Y0160168D01*
X0152148Y0158667D01*
X0153371Y0158667D02*
X0153871Y0159167D01*
X0153621Y0159167D02*
X0154372Y0159167D01*
X0154372Y0158667D02*
X0154372Y0160168D01*
X0153621Y0160168D01*
X0153371Y0159918D01*
X0153371Y0159417D01*
X0153621Y0159167D01*
X0151425Y0159918D02*
X0151175Y0160168D01*
X0150675Y0160168D01*
X0150424Y0159918D01*
X0150424Y0159667D01*
X0150675Y0159417D01*
X0150424Y0159167D01*
X0150424Y0158917D01*
X0150675Y0158667D01*
X0150675Y0159417D02*
X0150925Y0159417D01*
X0263614Y0143032D02*
X0264614Y0143032D01*
X0264614Y0142032D02*
X0263864Y0142032D01*
X0263614Y0142282D01*
X0263614Y0143032D01*
X0264865Y0141559D02*
X0263864Y0140558D01*
X0263614Y0140558D01*
X0263614Y0139836D02*
X0265115Y0139836D01*
X0264364Y0139085D01*
X0264364Y0140086D01*
X0265115Y0140558D02*
X0265115Y0141559D01*
X0264865Y0141559D01*
X0263864Y0138599D02*
X0263614Y0138599D01*
X0263614Y0138348D01*
X0263864Y0138348D01*
X0263864Y0138599D01*
X0263864Y0137876D02*
X0263614Y0137626D01*
X0263614Y0137125D01*
X0263864Y0136875D01*
X0264865Y0137876D01*
X0263864Y0137876D01*
X0264865Y0137876D02*
X0265115Y0137626D01*
X0265115Y0137125D01*
X0264865Y0136875D01*
X0263864Y0136875D01*
X0279541Y0133887D02*
X0279541Y0132385D01*
X0280542Y0132385D02*
X0280542Y0133887D01*
X0280042Y0133386D01*
X0279541Y0133887D01*
X0280002Y0133815D02*
X0281003Y0133815D01*
X0280502Y0133815D02*
X0280502Y0135316D01*
X0281003Y0134815D01*
X0281475Y0135066D02*
X0282476Y0134065D01*
X0282476Y0133815D01*
X0282948Y0133815D02*
X0283449Y0134315D01*
X0283198Y0134315D02*
X0283949Y0134315D01*
X0283949Y0133815D02*
X0283949Y0135316D01*
X0283198Y0135316D01*
X0282948Y0135066D01*
X0282948Y0134565D01*
X0283198Y0134315D01*
X0282476Y0135316D02*
X0281475Y0135316D01*
X0281475Y0135066D01*
X0281515Y0133887D02*
X0281515Y0132385D01*
X0282015Y0132385D02*
X0281014Y0132385D01*
X0282015Y0133386D02*
X0281515Y0133887D01*
X0265308Y0128966D02*
X0265308Y0128466D01*
X0265058Y0128215D01*
X0264807Y0128215D01*
X0264557Y0128466D01*
X0264557Y0129216D01*
X0264057Y0129216D02*
X0265058Y0129216D01*
X0265308Y0128966D01*
X0264057Y0129216D02*
X0263806Y0128966D01*
X0263806Y0128466D01*
X0264057Y0128215D01*
X0263806Y0127743D02*
X0263806Y0126742D01*
X0263806Y0127243D02*
X0265308Y0127243D01*
X0264807Y0126742D01*
X0265058Y0126270D02*
X0265308Y0126020D01*
X0265308Y0125519D01*
X0265058Y0125269D01*
X0264057Y0125269D01*
X0263806Y0125519D01*
X0263806Y0126020D01*
X0264057Y0126270D01*
X0280041Y0123387D02*
X0280041Y0123136D01*
X0281042Y0122136D01*
X0281042Y0121885D01*
X0281514Y0122136D02*
X0281514Y0122386D01*
X0281765Y0122636D01*
X0282515Y0122636D01*
X0282515Y0122136D01*
X0282265Y0121885D01*
X0281765Y0121885D01*
X0281514Y0122136D01*
X0282015Y0123136D02*
X0282515Y0122636D01*
X0282988Y0122636D02*
X0283238Y0122386D01*
X0283988Y0122386D01*
X0283488Y0122386D02*
X0282988Y0121885D01*
X0282988Y0122636D02*
X0282988Y0123136D01*
X0283238Y0123387D01*
X0283988Y0123387D01*
X0283988Y0121885D01*
X0282015Y0123136D02*
X0281514Y0123387D01*
X0281042Y0123387D02*
X0280041Y0123387D01*
X0316921Y0132736D02*
X0317171Y0132485D01*
X0317671Y0132485D01*
X0317921Y0132736D01*
X0317921Y0132986D01*
X0317671Y0133236D01*
X0317171Y0133236D01*
X0316921Y0132986D01*
X0316921Y0132736D01*
X0317171Y0133236D02*
X0316921Y0133486D01*
X0316921Y0133736D01*
X0317171Y0133987D01*
X0317671Y0133987D01*
X0317921Y0133736D01*
X0317921Y0133486D01*
X0317671Y0133236D01*
X0317749Y0133796D02*
X0318250Y0133796D01*
X0318500Y0134047D01*
X0317499Y0135048D01*
X0317499Y0134047D01*
X0317749Y0133796D01*
X0318394Y0133987D02*
X0318894Y0133736D01*
X0319395Y0133236D01*
X0318644Y0133236D01*
X0318394Y0132986D01*
X0318394Y0132736D01*
X0318644Y0132485D01*
X0319144Y0132485D01*
X0319395Y0132736D01*
X0319395Y0133236D01*
X0319867Y0133236D02*
X0320117Y0132986D01*
X0320868Y0132986D01*
X0320367Y0132986D02*
X0319867Y0132485D01*
X0319867Y0133236D02*
X0319867Y0133736D01*
X0320117Y0133987D01*
X0320868Y0133987D01*
X0320868Y0132485D01*
X0320696Y0133796D02*
X0321196Y0133796D01*
X0321447Y0134047D01*
X0320946Y0134547D02*
X0320696Y0134547D01*
X0320446Y0134297D01*
X0320446Y0134047D01*
X0320696Y0133796D01*
X0320696Y0134547D02*
X0320446Y0134797D01*
X0320446Y0135048D01*
X0320696Y0135298D01*
X0321196Y0135298D01*
X0321447Y0135048D01*
X0319973Y0135048D02*
X0319723Y0135298D01*
X0319223Y0135298D01*
X0318973Y0135048D01*
X0318973Y0134797D01*
X0319223Y0134547D01*
X0318973Y0134297D01*
X0318973Y0134047D01*
X0319223Y0133796D01*
X0319723Y0133796D01*
X0319973Y0134047D01*
X0319473Y0134547D02*
X0319223Y0134547D01*
X0318500Y0134047D02*
X0318500Y0135048D01*
X0318250Y0135298D01*
X0317749Y0135298D01*
X0317499Y0135048D01*
X0338415Y0132993D02*
X0339416Y0132993D01*
X0339416Y0131992D02*
X0338665Y0131992D01*
X0338415Y0132243D01*
X0338415Y0132993D01*
X0339666Y0131520D02*
X0338665Y0130519D01*
X0338415Y0130519D01*
X0338415Y0129797D02*
X0339916Y0129797D01*
X0339166Y0129046D01*
X0339166Y0130047D01*
X0339916Y0130519D02*
X0339916Y0131520D01*
X0339666Y0131520D01*
X0338665Y0128560D02*
X0338415Y0128560D01*
X0338415Y0128309D01*
X0338665Y0128309D01*
X0338665Y0128560D01*
X0338665Y0127837D02*
X0338415Y0127587D01*
X0338415Y0127086D01*
X0338665Y0126836D01*
X0339666Y0127837D01*
X0338665Y0127837D01*
X0338665Y0126836D02*
X0339666Y0126836D01*
X0339916Y0127086D01*
X0339916Y0127587D01*
X0339666Y0127837D01*
X0321368Y0122986D02*
X0320867Y0123487D01*
X0320867Y0121985D01*
X0320367Y0121985D02*
X0321368Y0121985D01*
X0319895Y0121985D02*
X0319895Y0123487D01*
X0319394Y0122986D01*
X0318894Y0123487D01*
X0318894Y0121985D01*
X0338222Y0140902D02*
X0338222Y0141403D01*
X0338472Y0141653D01*
X0338222Y0142126D02*
X0339223Y0143126D01*
X0339473Y0143126D01*
X0339724Y0142876D01*
X0339724Y0142376D01*
X0339473Y0142126D01*
X0339473Y0141653D02*
X0339724Y0141403D01*
X0339724Y0140902D01*
X0339473Y0140652D01*
X0338472Y0140652D01*
X0338222Y0140902D01*
X0338222Y0142126D02*
X0338222Y0143126D01*
X0338472Y0143599D02*
X0339473Y0144600D01*
X0338472Y0144600D01*
X0338222Y0144349D01*
X0338222Y0143849D01*
X0338472Y0143599D01*
X0339473Y0143599D01*
X0339724Y0143849D01*
X0339724Y0144349D01*
X0339473Y0144600D01*
X0329382Y0147673D02*
X0329382Y0149174D01*
X0328632Y0149174D01*
X0328381Y0148924D01*
X0328381Y0148423D01*
X0328632Y0148173D01*
X0329382Y0148173D01*
X0328882Y0148173D02*
X0328381Y0147673D01*
X0327909Y0147673D02*
X0327909Y0147923D01*
X0326908Y0148924D01*
X0326908Y0149174D01*
X0327909Y0149174D01*
X0326436Y0148423D02*
X0325685Y0148423D01*
X0325435Y0148173D01*
X0325435Y0147923D01*
X0325685Y0147673D01*
X0326185Y0147673D01*
X0326436Y0147923D01*
X0326436Y0148423D01*
X0325935Y0148924D01*
X0325435Y0149174D01*
X0320947Y0145798D02*
X0320196Y0145798D01*
X0319946Y0145548D01*
X0319946Y0145047D01*
X0320196Y0144797D01*
X0320947Y0144797D01*
X0320947Y0144296D02*
X0320947Y0145798D01*
X0320446Y0144797D02*
X0319946Y0144296D01*
X0319473Y0144296D02*
X0319473Y0144547D01*
X0318473Y0145548D01*
X0318473Y0145798D01*
X0319473Y0145798D01*
X0318000Y0145548D02*
X0317750Y0145798D01*
X0317249Y0145798D01*
X0316999Y0145548D01*
X0316999Y0145297D01*
X0318000Y0144296D01*
X0316999Y0144296D01*
X0325185Y0158173D02*
X0324935Y0158423D01*
X0324935Y0159424D01*
X0325936Y0158423D01*
X0325685Y0158173D01*
X0325185Y0158173D01*
X0325936Y0158423D02*
X0325936Y0159424D01*
X0325685Y0159674D01*
X0325185Y0159674D01*
X0324935Y0159424D01*
X0326408Y0159424D02*
X0327409Y0158423D01*
X0327409Y0158173D01*
X0328132Y0158173D02*
X0328132Y0159674D01*
X0328882Y0158923D01*
X0327881Y0158923D01*
X0327409Y0159674D02*
X0326408Y0159674D01*
X0326408Y0159424D01*
X0283449Y0145566D02*
X0283199Y0145816D01*
X0282698Y0145816D01*
X0282448Y0145566D01*
X0282448Y0145315D01*
X0282698Y0145065D01*
X0282448Y0144815D01*
X0282448Y0144565D01*
X0282698Y0144315D01*
X0283199Y0144315D01*
X0283449Y0144565D01*
X0282949Y0145065D02*
X0282698Y0145065D01*
X0281976Y0144565D02*
X0281726Y0144315D01*
X0281225Y0144315D01*
X0280975Y0144565D01*
X0280975Y0144815D01*
X0281225Y0145065D01*
X0281475Y0145065D01*
X0281225Y0145065D02*
X0280975Y0145315D01*
X0280975Y0145566D01*
X0281225Y0145816D01*
X0281726Y0145816D01*
X0281976Y0145566D01*
X0280503Y0145566D02*
X0280252Y0145816D01*
X0279752Y0145816D01*
X0279502Y0145566D01*
X0280503Y0144565D01*
X0280252Y0144315D01*
X0279752Y0144315D01*
X0279502Y0144565D01*
X0279502Y0145566D01*
X0280503Y0145566D02*
X0280503Y0144565D01*
X0275266Y0148720D02*
X0274265Y0148720D01*
X0273792Y0148220D02*
X0273792Y0147970D01*
X0273792Y0148220D02*
X0272791Y0149221D01*
X0272791Y0149471D01*
X0273792Y0149471D01*
X0274515Y0149471D02*
X0275266Y0148720D01*
X0274515Y0147970D02*
X0274515Y0149471D01*
X0272319Y0149221D02*
X0272069Y0149471D01*
X0271568Y0149471D01*
X0271318Y0149221D01*
X0272319Y0148220D01*
X0272069Y0147970D01*
X0271568Y0147970D01*
X0271318Y0148220D01*
X0271318Y0149221D01*
X0272319Y0149221D02*
X0272319Y0148220D01*
X0271569Y0158470D02*
X0271819Y0158720D01*
X0271569Y0158470D02*
X0271068Y0158470D01*
X0270818Y0158720D01*
X0270818Y0159220D01*
X0271068Y0159471D01*
X0271319Y0159471D01*
X0271819Y0159220D01*
X0271819Y0159971D01*
X0270818Y0159971D01*
X0272291Y0159971D02*
X0272291Y0159721D01*
X0273292Y0158720D01*
X0273292Y0158470D01*
X0273765Y0158470D02*
X0274265Y0158970D01*
X0274015Y0158970D02*
X0274766Y0158970D01*
X0274766Y0158470D02*
X0274766Y0159971D01*
X0274015Y0159971D01*
X0273765Y0159721D01*
X0273765Y0159220D01*
X0274015Y0158970D01*
X0273292Y0159971D02*
X0272291Y0159971D01*
X0260481Y0100001D02*
X0259480Y0100001D01*
X0259480Y0099250D01*
X0259730Y0099000D01*
X0260481Y0099000D01*
X0260731Y0098528D02*
X0259730Y0097527D01*
X0259480Y0097527D01*
X0259480Y0096804D02*
X0260981Y0096804D01*
X0260230Y0096054D01*
X0260230Y0097054D01*
X0260981Y0097527D02*
X0260981Y0098528D01*
X0260731Y0098528D01*
X0259730Y0095567D02*
X0259480Y0095567D01*
X0259480Y0095317D01*
X0259730Y0095317D01*
X0259730Y0095567D01*
X0259730Y0094845D02*
X0259480Y0094594D01*
X0259480Y0094094D01*
X0259730Y0093844D01*
X0260731Y0094845D01*
X0259730Y0094845D01*
X0260731Y0094845D02*
X0260981Y0094594D01*
X0260981Y0094094D01*
X0260731Y0093844D01*
X0259730Y0093844D01*
X0259923Y0086185D02*
X0259673Y0085935D01*
X0259673Y0085434D01*
X0259923Y0085184D01*
X0260173Y0085184D01*
X0260423Y0085434D01*
X0260423Y0085935D01*
X0260173Y0086185D01*
X0259923Y0086185D01*
X0260423Y0085935D02*
X0260673Y0086185D01*
X0260924Y0086185D01*
X0261174Y0085935D01*
X0261174Y0085434D01*
X0260924Y0085184D01*
X0260673Y0085184D01*
X0260423Y0085434D01*
X0259673Y0084712D02*
X0259673Y0083711D01*
X0259673Y0084211D02*
X0261174Y0084211D01*
X0260673Y0083711D01*
X0260924Y0083238D02*
X0261174Y0082988D01*
X0261174Y0082488D01*
X0260924Y0082237D01*
X0259923Y0082237D01*
X0259673Y0082488D01*
X0259673Y0082988D01*
X0259923Y0083238D01*
X0277112Y0070414D02*
X0277112Y0068913D01*
X0278113Y0068913D02*
X0278113Y0070414D01*
X0277612Y0069914D01*
X0277112Y0070414D01*
X0279086Y0070414D02*
X0279086Y0068913D01*
X0279586Y0068913D02*
X0278585Y0068913D01*
X0279586Y0069914D02*
X0279086Y0070414D01*
X0279085Y0059914D02*
X0279586Y0059664D01*
X0280086Y0059164D01*
X0279335Y0059164D01*
X0279085Y0058913D01*
X0279085Y0058663D01*
X0279335Y0058413D01*
X0279836Y0058413D01*
X0280086Y0058663D01*
X0280086Y0059164D01*
X0280558Y0059164D02*
X0280809Y0058913D01*
X0281559Y0058913D01*
X0281559Y0058413D02*
X0281559Y0059914D01*
X0280809Y0059914D01*
X0280558Y0059664D01*
X0280558Y0059164D01*
X0281059Y0058913D02*
X0280558Y0058413D01*
X0278613Y0058663D02*
X0278363Y0058413D01*
X0277862Y0058413D01*
X0277612Y0058663D01*
X0277612Y0059164D01*
X0277862Y0059414D01*
X0278112Y0059414D01*
X0278613Y0059164D01*
X0278613Y0059914D01*
X0277612Y0059914D01*
X0259607Y0052116D02*
X0259357Y0052366D01*
X0259107Y0052366D01*
X0258856Y0052116D01*
X0258606Y0052366D01*
X0258356Y0052366D01*
X0258106Y0052116D01*
X0258106Y0051615D01*
X0258356Y0051365D01*
X0258856Y0051865D02*
X0258856Y0052116D01*
X0259607Y0052116D02*
X0259607Y0051615D01*
X0259357Y0051365D01*
X0259357Y0050893D02*
X0258356Y0049892D01*
X0258106Y0049892D01*
X0258106Y0049419D02*
X0258606Y0048919D01*
X0258606Y0049169D02*
X0258606Y0048419D01*
X0258106Y0048419D02*
X0259607Y0048419D01*
X0259607Y0049169D01*
X0259357Y0049419D01*
X0258856Y0049419D01*
X0258606Y0049169D01*
X0259607Y0049892D02*
X0259607Y0050893D01*
X0259357Y0050893D01*
X0249107Y0051115D02*
X0249107Y0051616D01*
X0248857Y0051866D01*
X0247856Y0050865D01*
X0247606Y0051115D01*
X0247606Y0051616D01*
X0247856Y0051866D01*
X0248857Y0051866D01*
X0249107Y0051115D02*
X0248857Y0050865D01*
X0247856Y0050865D01*
X0248857Y0050393D02*
X0247856Y0049392D01*
X0247606Y0049392D01*
X0247606Y0048669D02*
X0249107Y0048669D01*
X0248356Y0047919D01*
X0248356Y0048919D01*
X0249107Y0049392D02*
X0249107Y0050393D01*
X0248857Y0050393D01*
X0223663Y0050096D02*
X0222913Y0050096D01*
X0222662Y0050346D01*
X0222662Y0050847D01*
X0222913Y0051097D01*
X0223663Y0051097D01*
X0223663Y0049596D01*
X0223163Y0050096D02*
X0222662Y0049596D01*
X0222190Y0050346D02*
X0221189Y0050346D01*
X0220717Y0049846D02*
X0219716Y0050847D01*
X0219716Y0051097D01*
X0220717Y0051097D01*
X0221439Y0051097D02*
X0222190Y0050346D01*
X0221439Y0049596D02*
X0221439Y0051097D01*
X0220717Y0049846D02*
X0220717Y0049596D01*
X0220966Y0040597D02*
X0220466Y0040597D01*
X0220216Y0040347D01*
X0221217Y0039346D01*
X0220966Y0039096D01*
X0220466Y0039096D01*
X0220216Y0039346D01*
X0220216Y0040347D01*
X0220966Y0040597D02*
X0221217Y0040347D01*
X0221217Y0039346D01*
X0221689Y0040347D02*
X0222690Y0039346D01*
X0222690Y0039096D01*
X0223413Y0039096D02*
X0223413Y0040597D01*
X0224163Y0039846D01*
X0223162Y0039846D01*
X0222690Y0040597D02*
X0221689Y0040597D01*
X0221689Y0040347D01*
X0221337Y0036392D02*
X0222088Y0035642D01*
X0221087Y0035642D01*
X0220614Y0035642D02*
X0220114Y0035892D01*
X0219864Y0035892D01*
X0219613Y0035642D01*
X0219613Y0035141D01*
X0219864Y0034891D01*
X0220364Y0034891D01*
X0220614Y0035141D01*
X0220614Y0035642D02*
X0220614Y0036392D01*
X0219613Y0036392D01*
X0221337Y0036392D02*
X0221337Y0034891D01*
X0222560Y0034891D02*
X0223060Y0035391D01*
X0222810Y0035391D02*
X0223561Y0035391D01*
X0223561Y0034891D02*
X0223561Y0036392D01*
X0222810Y0036392D01*
X0222560Y0036142D01*
X0222560Y0035642D01*
X0222810Y0035391D01*
X0222588Y0025892D02*
X0221587Y0025892D01*
X0221587Y0025642D01*
X0222588Y0024641D01*
X0222588Y0024391D01*
X0223310Y0024391D02*
X0223310Y0025892D01*
X0224061Y0025142D01*
X0223060Y0025142D01*
X0221114Y0025642D02*
X0220864Y0025892D01*
X0220364Y0025892D01*
X0220113Y0025642D01*
X0221114Y0024641D01*
X0220864Y0024391D01*
X0220364Y0024391D01*
X0220113Y0024641D01*
X0220113Y0025642D01*
X0221114Y0025642D02*
X0221114Y0024641D01*
X0182442Y0035037D02*
X0182442Y0035787D01*
X0182191Y0036037D01*
X0181691Y0036037D01*
X0181441Y0035787D01*
X0181441Y0035037D01*
X0181441Y0035537D02*
X0180940Y0036037D01*
X0181191Y0036510D02*
X0180940Y0036760D01*
X0180940Y0037261D01*
X0181191Y0037511D01*
X0181441Y0037511D01*
X0181691Y0037261D01*
X0181691Y0037010D01*
X0181691Y0037261D02*
X0181941Y0037511D01*
X0182191Y0037511D01*
X0182442Y0037261D01*
X0182442Y0036760D01*
X0182191Y0036510D01*
X0182191Y0037983D02*
X0181941Y0037983D01*
X0181691Y0038233D01*
X0181691Y0038734D01*
X0181441Y0038984D01*
X0181191Y0038984D01*
X0180940Y0038734D01*
X0180940Y0038233D01*
X0181191Y0037983D01*
X0181441Y0037983D01*
X0181691Y0038233D01*
X0181691Y0038734D02*
X0181941Y0038984D01*
X0182191Y0038984D01*
X0182442Y0038734D01*
X0182442Y0038233D01*
X0182191Y0037983D01*
X0182442Y0035037D02*
X0180940Y0035037D01*
X0171942Y0034787D02*
X0171691Y0034537D01*
X0171942Y0034787D02*
X0171942Y0035287D01*
X0171691Y0035537D01*
X0171441Y0035537D01*
X0171191Y0035287D01*
X0170941Y0035537D01*
X0170691Y0035537D01*
X0170440Y0035287D01*
X0170440Y0034787D01*
X0170691Y0034537D01*
X0171191Y0035037D02*
X0171191Y0035287D01*
X0171691Y0036010D02*
X0171942Y0036260D01*
X0171942Y0036761D01*
X0171691Y0037011D01*
X0171441Y0037011D01*
X0171191Y0036761D01*
X0170941Y0037011D01*
X0170691Y0037011D01*
X0170440Y0036761D01*
X0170440Y0036260D01*
X0170691Y0036010D01*
X0171191Y0036510D02*
X0171191Y0036761D01*
X0171691Y0037483D02*
X0171942Y0037733D01*
X0171942Y0038234D01*
X0171691Y0038484D01*
X0170691Y0037483D01*
X0170440Y0037733D01*
X0170440Y0038234D01*
X0170691Y0038484D01*
X0171691Y0038484D01*
X0171691Y0037483D02*
X0170691Y0037483D01*
X0169796Y0037575D02*
X0169546Y0037575D01*
X0168545Y0036574D01*
X0168295Y0036574D01*
X0168545Y0036101D02*
X0168295Y0035851D01*
X0168295Y0035351D01*
X0168545Y0035100D01*
X0168295Y0034628D02*
X0168795Y0034128D01*
X0168795Y0034378D02*
X0168795Y0033627D01*
X0168295Y0033627D02*
X0169796Y0033627D01*
X0169796Y0034378D01*
X0169546Y0034628D01*
X0169045Y0034628D01*
X0168795Y0034378D01*
X0169546Y0035100D02*
X0169796Y0035351D01*
X0169796Y0035851D01*
X0169546Y0036101D01*
X0169296Y0036101D01*
X0169045Y0035851D01*
X0168795Y0036101D01*
X0168545Y0036101D01*
X0169045Y0035851D02*
X0169045Y0035601D01*
X0169796Y0036574D02*
X0169796Y0037575D01*
X0159296Y0036824D02*
X0159296Y0036324D01*
X0159046Y0036074D01*
X0158045Y0036074D01*
X0159046Y0037075D01*
X0158045Y0037075D01*
X0157795Y0036824D01*
X0157795Y0036324D01*
X0158045Y0036074D01*
X0158045Y0035601D02*
X0157795Y0035351D01*
X0157795Y0034851D01*
X0158045Y0034600D01*
X0158045Y0034128D02*
X0157795Y0033878D01*
X0157795Y0033377D01*
X0158045Y0033127D01*
X0158545Y0033628D02*
X0158545Y0033878D01*
X0158295Y0034128D01*
X0158045Y0034128D01*
X0158545Y0033878D02*
X0158796Y0034128D01*
X0159046Y0034128D01*
X0159296Y0033878D01*
X0159296Y0033377D01*
X0159046Y0033127D01*
X0159046Y0034600D02*
X0159296Y0034851D01*
X0159296Y0035351D01*
X0159046Y0035601D01*
X0158796Y0035601D01*
X0158545Y0035351D01*
X0158295Y0035601D01*
X0158045Y0035601D01*
X0158545Y0035351D02*
X0158545Y0035101D01*
X0159296Y0036824D02*
X0159046Y0037075D01*
X0176608Y0023007D02*
X0177609Y0022006D01*
X0177359Y0021756D01*
X0176858Y0021756D01*
X0176608Y0022006D01*
X0176608Y0023007D01*
X0176858Y0023257D01*
X0177359Y0023257D01*
X0177609Y0023007D01*
X0177609Y0022006D01*
X0178081Y0023007D02*
X0179082Y0022006D01*
X0179082Y0021756D01*
X0179805Y0021756D02*
X0179805Y0023257D01*
X0180555Y0022506D01*
X0179555Y0022506D01*
X0179082Y0023257D02*
X0178081Y0023257D01*
X0178081Y0023007D01*
X0177859Y0012757D02*
X0178109Y0012507D01*
X0177859Y0012757D02*
X0177358Y0012757D01*
X0177108Y0012507D01*
X0177108Y0012256D01*
X0178109Y0011256D01*
X0177108Y0011256D01*
X0178581Y0012006D02*
X0179582Y0012006D01*
X0178831Y0012757D01*
X0178831Y0011256D01*
X0180055Y0011256D02*
X0180555Y0011756D01*
X0180305Y0011756D02*
X0181055Y0011756D01*
X0181055Y0011256D02*
X0181055Y0012757D01*
X0180305Y0012757D01*
X0180055Y0012507D01*
X0180055Y0012006D01*
X0180305Y0011756D01*
X0103802Y0025382D02*
X0102802Y0025382D01*
X0102329Y0024881D02*
X0102329Y0024631D01*
X0102329Y0024881D02*
X0101328Y0025882D01*
X0101328Y0026132D01*
X0102329Y0026132D01*
X0103052Y0026132D02*
X0103802Y0025382D01*
X0103052Y0026132D02*
X0103052Y0024631D01*
X0100856Y0024881D02*
X0099855Y0025882D01*
X0099855Y0024881D01*
X0100105Y0024631D01*
X0100606Y0024631D01*
X0100856Y0024881D01*
X0100856Y0025882D01*
X0100606Y0026132D01*
X0100105Y0026132D01*
X0099855Y0025882D01*
X0190784Y0059033D02*
X0190784Y0060534D01*
X0191284Y0060034D01*
X0191784Y0060534D01*
X0191784Y0059033D01*
X0192257Y0059033D02*
X0193258Y0059033D01*
X0192757Y0059033D02*
X0192757Y0060534D01*
X0193258Y0060034D01*
X0192758Y0069533D02*
X0192758Y0071034D01*
X0192007Y0071034D01*
X0191757Y0070784D01*
X0191757Y0070283D01*
X0192007Y0070033D01*
X0192758Y0070033D01*
X0192257Y0070033D02*
X0191757Y0069533D01*
X0191284Y0069783D02*
X0191034Y0069533D01*
X0190534Y0069533D01*
X0190284Y0069783D01*
X0190284Y0070033D01*
X0190534Y0070283D01*
X0190784Y0070283D01*
X0190534Y0070283D02*
X0190284Y0070534D01*
X0190284Y0070784D01*
X0190534Y0071034D01*
X0191034Y0071034D01*
X0191284Y0070784D01*
X0189811Y0070283D02*
X0188810Y0070283D01*
X0189061Y0069533D02*
X0189061Y0071034D01*
X0189811Y0070283D01*
X0220728Y0071251D02*
X0220978Y0071001D01*
X0221478Y0071001D01*
X0221728Y0071251D01*
X0220728Y0072252D01*
X0220728Y0071251D01*
X0221728Y0071251D02*
X0221728Y0072252D01*
X0221478Y0072502D01*
X0220978Y0072502D01*
X0220728Y0072252D01*
X0222201Y0072252D02*
X0223202Y0071251D01*
X0223202Y0071001D01*
X0223924Y0071001D02*
X0223924Y0072502D01*
X0224675Y0071752D01*
X0223674Y0071752D01*
X0223202Y0072502D02*
X0222201Y0072502D01*
X0222201Y0072252D01*
X0221951Y0081501D02*
X0221951Y0083002D01*
X0222702Y0082252D01*
X0221701Y0082252D01*
X0221228Y0082252D02*
X0220478Y0082252D01*
X0220228Y0082002D01*
X0220228Y0081751D01*
X0220478Y0081501D01*
X0220978Y0081501D01*
X0221228Y0081751D01*
X0221228Y0082252D01*
X0220728Y0082752D01*
X0220228Y0083002D01*
X0220767Y0083141D02*
X0221017Y0082891D01*
X0221518Y0082891D01*
X0221768Y0083141D01*
X0220767Y0084142D01*
X0220767Y0083141D01*
X0221768Y0083141D02*
X0221768Y0084142D01*
X0221518Y0084392D01*
X0221017Y0084392D01*
X0220767Y0084142D01*
X0222240Y0084142D02*
X0223241Y0083141D01*
X0223241Y0082891D01*
X0223174Y0082752D02*
X0223174Y0082252D01*
X0223424Y0082002D01*
X0224175Y0082002D01*
X0223675Y0082002D02*
X0223174Y0081501D01*
X0224175Y0081501D02*
X0224175Y0083002D01*
X0223424Y0083002D01*
X0223174Y0082752D01*
X0223964Y0082891D02*
X0223964Y0084392D01*
X0224714Y0083642D01*
X0223714Y0083642D01*
X0223241Y0084392D02*
X0222240Y0084392D01*
X0222240Y0084142D01*
X0221990Y0093391D02*
X0221990Y0094892D01*
X0222741Y0094142D01*
X0221740Y0094142D01*
X0221268Y0094392D02*
X0221268Y0094642D01*
X0221018Y0094892D01*
X0220517Y0094892D01*
X0220267Y0094642D01*
X0220267Y0094392D01*
X0220517Y0094142D01*
X0221018Y0094142D01*
X0221268Y0094392D01*
X0221018Y0094142D02*
X0221268Y0093891D01*
X0221268Y0093641D01*
X0221018Y0093391D01*
X0220517Y0093391D01*
X0220267Y0093641D01*
X0220267Y0093891D01*
X0220517Y0094142D01*
X0220506Y0096220D02*
X0220506Y0097221D01*
X0221507Y0097221D02*
X0221507Y0096470D01*
X0221256Y0096220D01*
X0220506Y0096220D01*
X0221979Y0097471D02*
X0222980Y0096470D01*
X0222980Y0096220D01*
X0223702Y0096220D02*
X0223702Y0097721D01*
X0224453Y0096971D01*
X0223452Y0096971D01*
X0222980Y0097721D02*
X0221979Y0097721D01*
X0221979Y0097471D01*
X0224939Y0096470D02*
X0224939Y0096220D01*
X0225190Y0096220D01*
X0225190Y0096470D01*
X0224939Y0096470D01*
X0225662Y0096470D02*
X0225912Y0096220D01*
X0226413Y0096220D01*
X0226663Y0096470D01*
X0225662Y0097471D01*
X0225662Y0096470D01*
X0226663Y0096470D02*
X0226663Y0097471D01*
X0226413Y0097721D01*
X0225912Y0097721D01*
X0225662Y0097471D01*
X0224214Y0094892D02*
X0223464Y0094892D01*
X0223214Y0094642D01*
X0223214Y0094142D01*
X0223464Y0093891D01*
X0224214Y0093891D01*
X0224214Y0093391D02*
X0224214Y0094892D01*
X0223714Y0093891D02*
X0223214Y0093391D01*
X0212847Y0096277D02*
X0212847Y0097278D01*
X0212597Y0097528D01*
X0212096Y0097528D01*
X0211846Y0097278D01*
X0211373Y0097028D02*
X0210873Y0097528D01*
X0210873Y0096027D01*
X0211373Y0096027D02*
X0210373Y0096027D01*
X0209900Y0096277D02*
X0209650Y0096027D01*
X0209150Y0096027D01*
X0208899Y0096277D01*
X0208899Y0096528D01*
X0209150Y0096778D01*
X0209400Y0096778D01*
X0209150Y0096778D02*
X0208899Y0097028D01*
X0208899Y0097278D01*
X0209150Y0097528D01*
X0209650Y0097528D01*
X0209900Y0097278D01*
X0211846Y0096277D02*
X0212096Y0096027D01*
X0212597Y0096027D01*
X0212847Y0096277D01*
X0306606Y0070601D02*
X0307106Y0070351D01*
X0307606Y0069850D01*
X0306856Y0069850D01*
X0306606Y0069600D01*
X0306606Y0069350D01*
X0306856Y0069100D01*
X0307356Y0069100D01*
X0307606Y0069350D01*
X0307606Y0069850D01*
X0308079Y0069600D02*
X0308329Y0069850D01*
X0309080Y0069850D01*
X0309080Y0069350D01*
X0308829Y0069100D01*
X0308329Y0069100D01*
X0308079Y0069350D01*
X0308079Y0069600D01*
X0308579Y0070351D02*
X0309080Y0069850D01*
X0309552Y0069850D02*
X0309802Y0069600D01*
X0310553Y0069600D01*
X0310553Y0069100D02*
X0310553Y0070601D01*
X0309802Y0070601D01*
X0309552Y0070351D01*
X0309552Y0069850D01*
X0310053Y0069600D02*
X0309552Y0069100D01*
X0308579Y0070351D02*
X0308079Y0070601D01*
X0308579Y0060101D02*
X0308579Y0058600D01*
X0309580Y0058600D02*
X0309580Y0060101D01*
X0309079Y0059600D01*
X0308579Y0060101D01*
X0310553Y0060101D02*
X0310553Y0058600D01*
X0311053Y0058600D02*
X0310052Y0058600D01*
X0311053Y0059600D02*
X0310553Y0060101D01*
X0336173Y0050650D02*
X0336173Y0049649D01*
X0336423Y0049399D01*
X0336923Y0049399D01*
X0337173Y0049649D01*
X0336923Y0050149D02*
X0336173Y0050149D01*
X0336173Y0050650D02*
X0336423Y0050900D01*
X0336923Y0050900D01*
X0337173Y0050650D01*
X0337173Y0050400D01*
X0336923Y0050149D01*
X0337646Y0050650D02*
X0338647Y0049649D01*
X0338647Y0049399D01*
X0339119Y0049399D02*
X0339619Y0049899D01*
X0339369Y0049899D02*
X0340120Y0049899D01*
X0340120Y0049399D02*
X0340120Y0050900D01*
X0339369Y0050900D01*
X0339119Y0050650D01*
X0339119Y0050149D01*
X0339369Y0049899D01*
X0338647Y0050900D02*
X0337646Y0050900D01*
X0337646Y0050650D01*
X0337423Y0040400D02*
X0336923Y0040400D01*
X0336673Y0040150D01*
X0337673Y0039149D01*
X0337423Y0038899D01*
X0336923Y0038899D01*
X0336673Y0039149D01*
X0336673Y0040150D01*
X0337423Y0040400D02*
X0337673Y0040150D01*
X0337673Y0039149D01*
X0338146Y0040150D02*
X0339147Y0039149D01*
X0339147Y0038899D01*
X0339869Y0038899D02*
X0339869Y0040400D01*
X0340620Y0039649D01*
X0339619Y0039649D01*
X0339147Y0040400D02*
X0338146Y0040400D01*
X0338146Y0040150D01*
X0338544Y0036195D02*
X0337543Y0036195D01*
X0337543Y0035945D01*
X0338544Y0034944D01*
X0338544Y0034694D01*
X0339017Y0034694D02*
X0339517Y0035195D01*
X0339267Y0035195D02*
X0340018Y0035195D01*
X0340018Y0034694D02*
X0340018Y0036195D01*
X0339267Y0036195D01*
X0339017Y0035945D01*
X0339017Y0035445D01*
X0339267Y0035195D01*
X0337071Y0034944D02*
X0337071Y0034694D01*
X0337071Y0034944D02*
X0336070Y0035945D01*
X0336070Y0036195D01*
X0337071Y0036195D01*
X0337321Y0025695D02*
X0336820Y0025695D01*
X0336570Y0025445D01*
X0337571Y0024444D01*
X0337321Y0024194D01*
X0336820Y0024194D01*
X0336570Y0024444D01*
X0336570Y0025445D01*
X0337321Y0025695D02*
X0337571Y0025445D01*
X0337571Y0024444D01*
X0338043Y0025445D02*
X0339044Y0024444D01*
X0339044Y0024194D01*
X0339767Y0024194D02*
X0339767Y0025695D01*
X0340518Y0024945D01*
X0339517Y0024945D01*
X0339044Y0025695D02*
X0338043Y0025695D01*
X0338043Y0025445D01*
X0302835Y0034840D02*
X0302835Y0035590D01*
X0302585Y0035841D01*
X0302085Y0035841D01*
X0301834Y0035590D01*
X0301834Y0034840D01*
X0301334Y0034840D02*
X0302835Y0034840D01*
X0301834Y0035340D02*
X0301334Y0035841D01*
X0301334Y0036313D02*
X0301584Y0036313D01*
X0302585Y0037314D01*
X0302835Y0037314D01*
X0302835Y0036313D01*
X0302585Y0037786D02*
X0302835Y0038036D01*
X0302835Y0038537D01*
X0302585Y0038787D01*
X0301584Y0037786D01*
X0301334Y0038036D01*
X0301334Y0038537D01*
X0301584Y0038787D01*
X0302585Y0038787D01*
X0302585Y0037786D02*
X0301584Y0037786D01*
X0292335Y0037536D02*
X0292335Y0038037D01*
X0292085Y0038287D01*
X0291084Y0037286D01*
X0290834Y0037536D01*
X0290834Y0038037D01*
X0291084Y0038287D01*
X0292085Y0038287D01*
X0292335Y0037536D02*
X0292085Y0037286D01*
X0291084Y0037286D01*
X0291084Y0036814D02*
X0290834Y0036564D01*
X0290834Y0036063D01*
X0291084Y0035813D01*
X0291084Y0035341D02*
X0290834Y0035090D01*
X0290834Y0034590D01*
X0291084Y0034340D01*
X0291585Y0034840D02*
X0291585Y0035090D01*
X0291334Y0035341D01*
X0291084Y0035341D01*
X0291585Y0035090D02*
X0291835Y0035341D01*
X0292085Y0035341D01*
X0292335Y0035090D01*
X0292335Y0034590D01*
X0292085Y0034340D01*
X0292085Y0035813D02*
X0292335Y0036063D01*
X0292335Y0036564D01*
X0292085Y0036814D01*
X0291835Y0036814D01*
X0291585Y0036564D01*
X0291334Y0036814D01*
X0291084Y0036814D01*
X0291585Y0036564D02*
X0291585Y0036313D01*
X0290190Y0036627D02*
X0289939Y0036377D01*
X0289689Y0036377D01*
X0289439Y0036627D01*
X0289439Y0037378D01*
X0288939Y0037378D02*
X0289939Y0037378D01*
X0290190Y0037127D01*
X0290190Y0036627D01*
X0290190Y0035904D02*
X0289939Y0035404D01*
X0289439Y0034904D01*
X0289439Y0035654D01*
X0289189Y0035904D01*
X0288939Y0035904D01*
X0288688Y0035654D01*
X0288688Y0035154D01*
X0288939Y0034904D01*
X0289439Y0034904D01*
X0289439Y0034431D02*
X0289189Y0034181D01*
X0289189Y0033430D01*
X0288688Y0033430D02*
X0290190Y0033430D01*
X0290190Y0034181D01*
X0289939Y0034431D01*
X0289439Y0034431D01*
X0289189Y0033931D02*
X0288688Y0034431D01*
X0288939Y0036377D02*
X0288688Y0036627D01*
X0288688Y0037127D01*
X0288939Y0037378D01*
X0279690Y0036627D02*
X0279690Y0036127D01*
X0279439Y0035877D01*
X0278439Y0035877D01*
X0279439Y0036878D01*
X0278439Y0036878D01*
X0278188Y0036627D01*
X0278188Y0036127D01*
X0278439Y0035877D01*
X0278439Y0035404D02*
X0278188Y0035154D01*
X0278188Y0034654D01*
X0278439Y0034404D01*
X0278439Y0033931D02*
X0278188Y0033681D01*
X0278188Y0033181D01*
X0278439Y0032930D01*
X0278939Y0033431D02*
X0278939Y0033681D01*
X0278689Y0033931D01*
X0278439Y0033931D01*
X0278939Y0033681D02*
X0279189Y0033931D01*
X0279439Y0033931D01*
X0279690Y0033681D01*
X0279690Y0033181D01*
X0279439Y0032930D01*
X0279439Y0034404D02*
X0279690Y0034654D01*
X0279690Y0035154D01*
X0279439Y0035404D01*
X0279189Y0035404D01*
X0278939Y0035154D01*
X0278689Y0035404D01*
X0278439Y0035404D01*
X0278939Y0035154D02*
X0278939Y0034904D01*
X0279690Y0036627D02*
X0279439Y0036878D01*
X0297002Y0022810D02*
X0298003Y0021809D01*
X0297752Y0021559D01*
X0297252Y0021559D01*
X0297002Y0021809D01*
X0297002Y0022810D01*
X0297252Y0023060D01*
X0297752Y0023060D01*
X0298003Y0022810D01*
X0298003Y0021809D01*
X0298475Y0022810D02*
X0299476Y0021809D01*
X0299476Y0021559D01*
X0300198Y0021559D02*
X0300198Y0023060D01*
X0300949Y0022309D01*
X0299948Y0022309D01*
X0299476Y0023060D02*
X0298475Y0023060D01*
X0298475Y0022810D01*
X0298975Y0012560D02*
X0298975Y0012310D01*
X0299976Y0011309D01*
X0299976Y0011059D01*
X0300448Y0011059D02*
X0300949Y0011559D01*
X0300698Y0011559D02*
X0301449Y0011559D01*
X0301449Y0011059D02*
X0301449Y0012560D01*
X0300698Y0012560D01*
X0300448Y0012310D01*
X0300448Y0011809D01*
X0300698Y0011559D01*
X0299976Y0012560D02*
X0298975Y0012560D01*
X0298503Y0011809D02*
X0297752Y0012560D01*
X0297752Y0011059D01*
X0297502Y0011809D02*
X0298503Y0011809D01*
X0341372Y0070804D02*
X0341872Y0070804D01*
X0342122Y0071055D01*
X0341121Y0072055D01*
X0341121Y0071055D01*
X0341372Y0070804D01*
X0342122Y0071055D02*
X0342122Y0072055D01*
X0341872Y0072306D01*
X0341372Y0072306D01*
X0341121Y0072055D01*
X0342595Y0072055D02*
X0343595Y0071055D01*
X0343595Y0070804D01*
X0344318Y0070804D02*
X0344318Y0072306D01*
X0345069Y0071555D01*
X0344068Y0071555D01*
X0343595Y0072306D02*
X0342595Y0072306D01*
X0342595Y0072055D01*
X0343095Y0081304D02*
X0343095Y0081555D01*
X0342095Y0082555D01*
X0342095Y0082806D01*
X0343095Y0082806D01*
X0343568Y0082555D02*
X0343568Y0082055D01*
X0343818Y0081805D01*
X0344569Y0081805D01*
X0344569Y0081304D02*
X0344569Y0082806D01*
X0343818Y0082806D01*
X0343568Y0082555D01*
X0343635Y0082694D02*
X0343635Y0082944D01*
X0342634Y0083945D01*
X0342634Y0084195D01*
X0343635Y0084195D01*
X0344357Y0084195D02*
X0345108Y0083445D01*
X0344107Y0083445D01*
X0344357Y0084195D02*
X0344357Y0082694D01*
X0344068Y0081805D02*
X0343568Y0081304D01*
X0341622Y0081555D02*
X0341622Y0081805D01*
X0341372Y0082055D01*
X0340872Y0082055D01*
X0340621Y0081805D01*
X0340621Y0081555D01*
X0340872Y0081304D01*
X0341372Y0081304D01*
X0341622Y0081555D01*
X0341372Y0082055D02*
X0341622Y0082305D01*
X0341622Y0082555D01*
X0341372Y0082806D01*
X0340872Y0082806D01*
X0340621Y0082555D01*
X0340621Y0082305D01*
X0340872Y0082055D01*
X0341411Y0082694D02*
X0341911Y0082694D01*
X0342162Y0082944D01*
X0341161Y0083945D01*
X0341161Y0082944D01*
X0341411Y0082694D01*
X0342162Y0082944D02*
X0342162Y0083945D01*
X0341911Y0084195D01*
X0341411Y0084195D01*
X0341161Y0083945D01*
X0340911Y0093194D02*
X0341411Y0093194D01*
X0341662Y0093444D01*
X0340661Y0094445D01*
X0340661Y0093444D01*
X0340911Y0093194D01*
X0341662Y0093444D02*
X0341662Y0094445D01*
X0341411Y0094695D01*
X0340911Y0094695D01*
X0340661Y0094445D01*
X0342134Y0094445D02*
X0342134Y0094195D01*
X0342384Y0093945D01*
X0342885Y0093945D01*
X0343135Y0094195D01*
X0343135Y0094445D01*
X0342885Y0094695D01*
X0342384Y0094695D01*
X0342134Y0094445D01*
X0342384Y0093945D02*
X0342134Y0093695D01*
X0342134Y0093444D01*
X0342384Y0093194D01*
X0342885Y0093194D01*
X0343135Y0093444D01*
X0343135Y0093695D01*
X0342885Y0093945D01*
X0343607Y0093945D02*
X0343857Y0093695D01*
X0344608Y0093695D01*
X0344108Y0093695D02*
X0343607Y0093194D01*
X0343607Y0093945D02*
X0343607Y0094445D01*
X0343857Y0094695D01*
X0344608Y0094695D01*
X0344608Y0093194D01*
X0344096Y0096023D02*
X0344096Y0097525D01*
X0344847Y0096774D01*
X0343846Y0096774D01*
X0343373Y0096273D02*
X0343373Y0096023D01*
X0343373Y0096273D02*
X0342373Y0097274D01*
X0342373Y0097525D01*
X0343373Y0097525D01*
X0341900Y0097024D02*
X0341900Y0096273D01*
X0341650Y0096023D01*
X0340899Y0096023D01*
X0340899Y0097024D01*
X0345333Y0096273D02*
X0345333Y0096023D01*
X0345583Y0096023D01*
X0345583Y0096273D01*
X0345333Y0096273D01*
X0346056Y0096273D02*
X0346056Y0097274D01*
X0347057Y0096273D01*
X0346806Y0096023D01*
X0346306Y0096023D01*
X0346056Y0096273D01*
X0347057Y0096273D02*
X0347057Y0097274D01*
X0346806Y0097525D01*
X0346306Y0097525D01*
X0346056Y0097274D01*
X0333240Y0097081D02*
X0333240Y0096081D01*
X0332990Y0095830D01*
X0332490Y0095830D01*
X0332240Y0096081D01*
X0331767Y0095830D02*
X0330766Y0096831D01*
X0330766Y0097081D01*
X0331017Y0097332D01*
X0331517Y0097332D01*
X0331767Y0097081D01*
X0332240Y0097081D02*
X0332490Y0097332D01*
X0332990Y0097332D01*
X0333240Y0097081D01*
X0331767Y0095830D02*
X0330766Y0095830D01*
X0330294Y0095830D02*
X0329293Y0095830D01*
X0329794Y0095830D02*
X0329794Y0097332D01*
X0330294Y0096831D01*
D13*
X0319391Y0091890D02*
X0319391Y0088820D01*
X0317089Y0088820D01*
X0317856Y0090355D01*
X0317856Y0091122D01*
X0317089Y0091890D01*
X0315555Y0091890D01*
X0314787Y0091122D01*
X0314787Y0089588D01*
X0315555Y0088820D01*
X0315555Y0087286D02*
X0314787Y0086518D01*
X0314787Y0084984D01*
X0315555Y0084217D01*
X0318624Y0084217D01*
X0319391Y0084984D01*
X0319391Y0086518D01*
X0318624Y0087286D01*
X0319391Y0082682D02*
X0319391Y0081147D01*
X0319391Y0081915D02*
X0314787Y0081915D01*
X0314787Y0082682D02*
X0314787Y0081147D01*
X0276580Y0081891D02*
X0271976Y0081891D01*
X0272743Y0083426D02*
X0271976Y0084193D01*
X0271976Y0085728D01*
X0272743Y0086495D01*
X0273511Y0086495D01*
X0274278Y0085728D01*
X0274278Y0084961D01*
X0274278Y0085728D02*
X0275045Y0086495D01*
X0275813Y0086495D01*
X0276580Y0085728D01*
X0276580Y0084193D01*
X0275813Y0083426D01*
X0276580Y0081891D02*
X0275045Y0080357D01*
X0276580Y0078822D01*
X0271976Y0078822D01*
X0271976Y0077287D02*
X0271976Y0074218D01*
X0276580Y0074218D01*
X0275813Y0088030D02*
X0275045Y0088030D01*
X0274278Y0088797D01*
X0274278Y0091099D01*
X0272743Y0091099D02*
X0275813Y0091099D01*
X0276580Y0090332D01*
X0276580Y0088797D01*
X0275813Y0088030D01*
X0272743Y0088030D02*
X0271976Y0088797D01*
X0271976Y0090332D01*
X0272743Y0091099D01*
X0272743Y0092634D02*
X0275813Y0095703D01*
X0272743Y0095703D01*
X0271976Y0094936D01*
X0271976Y0093401D01*
X0272743Y0092634D01*
X0275813Y0092634D01*
X0276580Y0093401D01*
X0276580Y0094936D01*
X0275813Y0095703D01*
X0275813Y0097238D02*
X0272743Y0097238D01*
X0275813Y0100307D01*
X0272743Y0100307D01*
X0271976Y0099540D01*
X0271976Y0098005D01*
X0272743Y0097238D01*
X0275813Y0097238D02*
X0276580Y0098005D01*
X0276580Y0099540D01*
X0275813Y0100307D01*
X0276580Y0101842D02*
X0271976Y0101842D01*
X0271976Y0104144D01*
X0272743Y0104911D01*
X0275813Y0104911D01*
X0276580Y0104144D01*
X0276580Y0101842D01*
X0198997Y0091319D02*
X0198997Y0089785D01*
X0198230Y0089017D01*
X0198230Y0087483D02*
X0198997Y0086715D01*
X0198997Y0085181D01*
X0198230Y0084413D01*
X0195161Y0084413D01*
X0194393Y0085181D01*
X0194393Y0086715D01*
X0195161Y0087483D01*
X0195161Y0089017D02*
X0194393Y0089785D01*
X0194393Y0091319D01*
X0195161Y0092087D01*
X0195928Y0092087D01*
X0196695Y0091319D01*
X0196695Y0090552D01*
X0196695Y0091319D02*
X0197463Y0092087D01*
X0198230Y0092087D01*
X0198997Y0091319D01*
X0198997Y0082879D02*
X0198997Y0081344D01*
X0198997Y0082111D02*
X0194393Y0082111D01*
X0194393Y0081344D02*
X0194393Y0082879D01*
X0156186Y0082088D02*
X0154652Y0080554D01*
X0156186Y0079019D01*
X0151582Y0079019D01*
X0151582Y0077484D02*
X0151582Y0074415D01*
X0156186Y0074415D01*
X0156186Y0082088D02*
X0151582Y0082088D01*
X0152350Y0083623D02*
X0151582Y0084390D01*
X0151582Y0085925D01*
X0152350Y0086692D01*
X0153117Y0086692D01*
X0153884Y0085925D01*
X0153884Y0085157D01*
X0153884Y0085925D02*
X0154652Y0086692D01*
X0155419Y0086692D01*
X0156186Y0085925D01*
X0156186Y0084390D01*
X0155419Y0083623D01*
X0155419Y0088227D02*
X0154652Y0088227D01*
X0153884Y0088994D01*
X0153884Y0091296D01*
X0152350Y0091296D02*
X0155419Y0091296D01*
X0156186Y0090529D01*
X0156186Y0088994D01*
X0155419Y0088227D01*
X0152350Y0088227D02*
X0151582Y0088994D01*
X0151582Y0090529D01*
X0152350Y0091296D01*
X0152350Y0092831D02*
X0155419Y0095900D01*
X0152350Y0095900D01*
X0151582Y0095133D01*
X0151582Y0093598D01*
X0152350Y0092831D01*
X0155419Y0092831D01*
X0156186Y0093598D01*
X0156186Y0095133D01*
X0155419Y0095900D01*
X0155419Y0097435D02*
X0156186Y0098202D01*
X0156186Y0099737D01*
X0155419Y0100504D01*
X0152350Y0097435D01*
X0151582Y0098202D01*
X0151582Y0099737D01*
X0152350Y0100504D01*
X0155419Y0100504D01*
X0156186Y0102039D02*
X0151582Y0102039D01*
X0151582Y0104340D01*
X0152350Y0105108D01*
X0155419Y0105108D01*
X0156186Y0104340D01*
X0156186Y0102039D01*
X0155419Y0097435D02*
X0152350Y0097435D01*
X0078739Y0091559D02*
X0078739Y0090025D01*
X0077972Y0089258D01*
X0077972Y0087723D02*
X0078739Y0086956D01*
X0078739Y0085421D01*
X0077972Y0084654D01*
X0074902Y0084654D01*
X0074135Y0085421D01*
X0074135Y0086956D01*
X0074902Y0087723D01*
X0074135Y0089258D02*
X0077204Y0092327D01*
X0077972Y0092327D01*
X0078739Y0091559D01*
X0074135Y0092327D02*
X0074135Y0089258D01*
X0074135Y0083119D02*
X0074135Y0081584D01*
X0074135Y0082352D02*
X0078739Y0082352D01*
X0078739Y0083119D02*
X0078739Y0081584D01*
X0035928Y0082328D02*
X0034393Y0080794D01*
X0035928Y0079259D01*
X0031324Y0079259D01*
X0031324Y0077724D02*
X0031324Y0074655D01*
X0035928Y0074655D01*
X0035928Y0082328D02*
X0031324Y0082328D01*
X0032091Y0083863D02*
X0031324Y0084630D01*
X0031324Y0086165D01*
X0032091Y0086932D01*
X0032859Y0086932D01*
X0033626Y0086165D01*
X0033626Y0085398D01*
X0033626Y0086165D02*
X0034393Y0086932D01*
X0035161Y0086932D01*
X0035928Y0086165D01*
X0035928Y0084630D01*
X0035161Y0083863D01*
X0035161Y0088467D02*
X0034393Y0088467D01*
X0033626Y0089234D01*
X0033626Y0091536D01*
X0035161Y0091536D02*
X0035928Y0090769D01*
X0035928Y0089234D01*
X0035161Y0088467D01*
X0035161Y0091536D02*
X0032091Y0091536D01*
X0031324Y0090769D01*
X0031324Y0089234D01*
X0032091Y0088467D01*
X0032091Y0093071D02*
X0035161Y0096140D01*
X0032091Y0096140D01*
X0031324Y0095373D01*
X0031324Y0093838D01*
X0032091Y0093071D01*
X0035161Y0093071D01*
X0035928Y0093838D01*
X0035928Y0095373D01*
X0035161Y0096140D01*
X0035161Y0097675D02*
X0032091Y0097675D01*
X0035161Y0100744D01*
X0032091Y0100744D01*
X0031324Y0099977D01*
X0031324Y0098442D01*
X0032091Y0097675D01*
X0035161Y0097675D02*
X0035928Y0098442D01*
X0035928Y0099977D01*
X0035161Y0100744D01*
X0035928Y0102279D02*
X0031324Y0102279D01*
X0031324Y0104581D01*
X0032091Y0105348D01*
X0035161Y0105348D01*
X0035928Y0104581D01*
X0035928Y0102279D01*
M02*
