%
M48
M72
T01C0.0138
T02C0.0276
T03C0.0335
T04C0.0394
T05C0.0400
T06C0.0472
T07C0.0669
%
T01
X6036Y5916
X5856Y7236
X7476Y8136
X6636Y9190
X8556Y9936
X12936Y10476
X13896Y9096
X18662Y9166
X18636Y7176
X29676Y7176
X30756Y7176
X31836Y8076
X30996Y9190
X30636Y9216
X30096Y9216
X23016Y12156
X2676Y12876
X21396Y1416
T02
X36885Y11192
X36885Y12192
T03
X38156Y13408
X38156Y14904
T04
X34521Y11451
X33734Y11451
X32946Y11451
X32159Y11451
X31371Y11451
X28521Y11451
X27734Y11451
X26946Y11451
X26159Y11451
X25371Y11451
X22482Y11471
X21694Y11471
X20907Y11471
X20119Y11471
X19332Y11471
X16482Y11471
X15694Y11471
X14907Y11471
X14119Y11471
X13332Y11471
X10456Y11495
X9668Y11495
X8881Y11495
X8094Y11495
X7306Y11495
X4456Y11495
X3668Y11495
X2881Y11495
X2094Y11495
X1306Y11495
X34905Y5196
X34905Y4408
X34905Y3621
X34905Y2833
X34905Y2046
T05
X36700Y14149
X36700Y15289
T06
X34777Y15388
X31115Y15388
X28777Y15388
X25115Y15388
X22737Y15408
X19076Y15408
X16737Y15408
X13076Y15408
X10712Y15432
X7050Y15432
X4712Y15432
X1050Y15432
X38842Y5451
X38842Y1790
T07
X2775Y2546
X7775Y2546
X7775Y5302
X2775Y5302
X14800Y5278
X19800Y5278
X19800Y2522
X14800Y2522
X26840Y2502
X31840Y2502
X31840Y5258
X26840Y5258
X35727Y8589
X38483Y8589
M30
