G75*
%MOIN*%
%OFA0B0*%
%FSLAX25Y25*%
%IPPOS*%
%LPD*%
%AMOC8*
5,1,8,0,0,1.08239X$1,22.5*
%
%ADD10C,0.06500*%
%ADD11R,0.06500X0.06500*%
%ADD12R,0.06299X0.07480*%
%ADD13R,0.07480X0.06299*%
%ADD14R,0.02362X0.08661*%
%ADD15C,0.07400*%
%ADD16R,0.06299X0.07087*%
%ADD17R,0.07087X0.06299*%
%ADD18R,0.05937X0.05937*%
%ADD19C,0.07087*%
%ADD20C,0.00600*%
%ADD21C,0.02978*%
D10*
X0368848Y0121916D03*
D11*
X0368848Y0111916D03*
D12*
X0345209Y0128526D03*
X0345209Y0141518D03*
X0258319Y0141715D03*
X0258319Y0128723D03*
X0224816Y0128723D03*
X0224816Y0141715D03*
X0137926Y0141912D03*
X0137926Y0128920D03*
X0104557Y0128963D03*
X0104557Y0141955D03*
X0017667Y0142152D03*
X0017667Y0129160D03*
X0013533Y0099121D03*
X0013533Y0086128D03*
X0133792Y0085888D03*
X0133792Y0098880D03*
X0254186Y0098683D03*
X0254186Y0085691D03*
D13*
X0224973Y0103014D03*
X0211981Y0103014D03*
X0104715Y0103254D03*
X0091722Y0103254D03*
X0332375Y0102817D03*
X0345367Y0102817D03*
D14*
X0311587Y0098683D03*
X0306587Y0098683D03*
X0301587Y0098683D03*
X0296587Y0098683D03*
X0291587Y0098683D03*
X0286587Y0098683D03*
X0281587Y0098683D03*
X0281587Y0078211D03*
X0286587Y0078211D03*
X0291587Y0078211D03*
X0296587Y0078211D03*
X0301587Y0078211D03*
X0306587Y0078211D03*
X0311587Y0078211D03*
X0191193Y0078408D03*
X0186193Y0078408D03*
X0181193Y0078408D03*
X0176193Y0078408D03*
X0171193Y0078408D03*
X0166193Y0078408D03*
X0161193Y0078408D03*
X0161193Y0098880D03*
X0166193Y0098880D03*
X0171193Y0098880D03*
X0176193Y0098880D03*
X0181193Y0098880D03*
X0186193Y0098880D03*
X0191193Y0098880D03*
X0070935Y0099121D03*
X0065935Y0099121D03*
X0060935Y0099121D03*
X0055935Y0099121D03*
X0050935Y0099121D03*
X0045935Y0099121D03*
X0040935Y0099121D03*
X0040935Y0078648D03*
X0045935Y0078648D03*
X0050935Y0078648D03*
X0055935Y0078648D03*
X0060935Y0078648D03*
X0065935Y0078648D03*
X0070935Y0078648D03*
D15*
X0366998Y0141491D03*
X0366998Y0152891D03*
D16*
X0055915Y0017546D03*
X0066939Y0017546D03*
X0092841Y0030581D03*
X0103864Y0030581D03*
X0103967Y0045286D03*
X0092943Y0045286D03*
X0073061Y0065223D03*
X0062037Y0065223D03*
X0047285Y0065215D03*
X0036262Y0065215D03*
X0093455Y0077191D03*
X0104478Y0077191D03*
X0104518Y0089081D03*
X0093494Y0089081D03*
X0156520Y0064975D03*
X0167544Y0064975D03*
X0182296Y0064983D03*
X0193319Y0064983D03*
X0213713Y0076951D03*
X0224737Y0076951D03*
X0224776Y0088841D03*
X0213753Y0088841D03*
X0276678Y0064463D03*
X0287701Y0064463D03*
X0300091Y0064550D03*
X0311115Y0064550D03*
X0334107Y0076754D03*
X0345130Y0076754D03*
X0345170Y0088644D03*
X0334146Y0088644D03*
X0321430Y0127935D03*
X0310406Y0127935D03*
X0290130Y0127935D03*
X0279107Y0127935D03*
X0279068Y0139865D03*
X0290091Y0139865D03*
X0310485Y0139746D03*
X0321508Y0139746D03*
X0324501Y0153723D03*
X0335524Y0153723D03*
X0275327Y0153920D03*
X0264304Y0153920D03*
X0215130Y0153920D03*
X0204107Y0153920D03*
X0201115Y0139943D03*
X0190091Y0139943D03*
X0169697Y0140061D03*
X0158674Y0140061D03*
X0158713Y0128132D03*
X0169737Y0128132D03*
X0190012Y0128132D03*
X0201036Y0128132D03*
X0154934Y0154117D03*
X0143910Y0154117D03*
X0094872Y0154160D03*
X0083848Y0154160D03*
X0080856Y0140184D03*
X0069833Y0140184D03*
X0049439Y0140302D03*
X0038415Y0140302D03*
X0038455Y0128372D03*
X0049478Y0128372D03*
X0069754Y0128372D03*
X0080778Y0128372D03*
X0034675Y0154357D03*
X0023652Y0154357D03*
X0213201Y0045046D03*
X0224225Y0045046D03*
X0224123Y0030341D03*
X0213099Y0030341D03*
X0187197Y0017306D03*
X0176174Y0017306D03*
X0296568Y0017109D03*
X0307591Y0017109D03*
X0329556Y0030144D03*
X0340579Y0030144D03*
X0340682Y0044849D03*
X0329658Y0044849D03*
D17*
X0296784Y0045302D03*
X0284138Y0043892D03*
X0296784Y0034278D03*
X0284138Y0032869D03*
X0253556Y0047857D03*
X0253556Y0058880D03*
X0176390Y0045498D03*
X0163745Y0044089D03*
X0163745Y0033065D03*
X0176390Y0034475D03*
X0133162Y0048054D03*
X0133162Y0059077D03*
X0056132Y0045739D03*
X0043486Y0044329D03*
X0056132Y0034715D03*
X0043486Y0033306D03*
X0012904Y0048294D03*
X0012904Y0059317D03*
D18*
X0013061Y0114947D03*
X0020935Y0114947D03*
X0028809Y0114947D03*
X0036683Y0114947D03*
X0044557Y0114947D03*
X0073061Y0114947D03*
X0080935Y0114947D03*
X0088809Y0114947D03*
X0096683Y0114947D03*
X0104557Y0114947D03*
X0133319Y0114707D03*
X0141193Y0114707D03*
X0149068Y0114707D03*
X0156942Y0114707D03*
X0164816Y0114707D03*
X0193319Y0114707D03*
X0201193Y0114707D03*
X0209068Y0114707D03*
X0216942Y0114707D03*
X0224816Y0114707D03*
X0253713Y0114510D03*
X0261587Y0114510D03*
X0269461Y0114510D03*
X0277335Y0114510D03*
X0285209Y0114510D03*
X0313713Y0114510D03*
X0321587Y0114510D03*
X0329461Y0114510D03*
X0337335Y0114510D03*
X0345209Y0114510D03*
X0349045Y0051955D03*
X0349045Y0044081D03*
X0349045Y0036207D03*
X0349045Y0028333D03*
X0349045Y0020459D03*
D19*
X0388415Y0017900D03*
X0388415Y0054514D03*
X0347768Y0153880D03*
X0311154Y0153880D03*
X0287768Y0153880D03*
X0251154Y0153880D03*
X0227375Y0154077D03*
X0190760Y0154077D03*
X0167375Y0154077D03*
X0130760Y0154077D03*
X0107116Y0154317D03*
X0070502Y0154317D03*
X0047116Y0154317D03*
X0010502Y0154317D03*
D20*
X0023652Y0154357D02*
X0023757Y0154902D01*
X0027957Y0159102D01*
X0098157Y0159102D01*
X0099357Y0157902D01*
X0099357Y0155502D01*
X0104157Y0150702D01*
X0104157Y0142302D01*
X0104557Y0141955D01*
X0094557Y0145902D02*
X0094557Y0153702D01*
X0094872Y0154160D01*
X0083848Y0154160D02*
X0083757Y0153702D01*
X0081357Y0151302D01*
X0081357Y0140502D01*
X0080856Y0140184D01*
X0069957Y0139902D02*
X0069833Y0140184D01*
X0069957Y0139902D02*
X0069957Y0128502D01*
X0069754Y0128372D01*
X0069357Y0127902D01*
X0069357Y0119502D01*
X0051357Y0101502D01*
X0051357Y0099702D01*
X0050935Y0099121D01*
X0051357Y0099102D01*
X0051357Y0096702D01*
X0058557Y0089502D01*
X0093357Y0089502D01*
X0093494Y0089081D01*
X0094557Y0084102D02*
X0064557Y0084102D01*
X0060357Y0088302D01*
X0054957Y0088302D01*
X0045957Y0097302D01*
X0045957Y0099102D01*
X0045935Y0099121D01*
X0045957Y0099702D01*
X0045957Y0101502D01*
X0050157Y0105702D01*
X0050157Y0118902D01*
X0049557Y0119502D01*
X0049557Y0127902D01*
X0049478Y0128372D01*
X0049557Y0128502D01*
X0049557Y0139902D01*
X0049439Y0140302D01*
X0038415Y0140302D02*
X0038157Y0140502D01*
X0035157Y0143502D01*
X0035157Y0154302D01*
X0034675Y0154357D01*
X0023757Y0154302D02*
X0023652Y0154357D01*
X0023757Y0154302D02*
X0023757Y0146502D01*
X0038157Y0132102D01*
X0038157Y0128502D01*
X0038455Y0128372D01*
X0038757Y0128502D01*
X0048957Y0118302D01*
X0048957Y0111702D01*
X0041157Y0103902D01*
X0041157Y0099702D01*
X0040935Y0099121D01*
X0055935Y0099121D02*
X0056157Y0099702D01*
X0056157Y0101502D01*
X0059157Y0104502D01*
X0092157Y0104502D01*
X0091722Y0103254D01*
X0092157Y0103302D01*
X0092157Y0104502D01*
X0092157Y0110502D01*
X0092757Y0111102D01*
X0092757Y0118302D01*
X0083157Y0127902D01*
X0081357Y0127902D01*
X0080778Y0128372D01*
X0081357Y0128502D01*
X0081357Y0132702D01*
X0094557Y0145902D01*
X0104557Y0128963D02*
X0104157Y0128502D01*
X0104157Y0122502D01*
X0096957Y0115302D01*
X0096683Y0114947D01*
X0104557Y0114947D02*
X0104757Y0114702D01*
X0104757Y0103302D01*
X0104715Y0103254D01*
X0114957Y0093702D02*
X0069357Y0093702D01*
X0068757Y0094302D01*
X0066357Y0091902D01*
X0068757Y0094302D02*
X0066357Y0096702D01*
X0066357Y0099102D01*
X0065935Y0099121D01*
X0065757Y0099102D01*
X0060957Y0099102D01*
X0060935Y0099121D01*
X0070935Y0099121D02*
X0071157Y0099365D01*
X0085557Y0099365D01*
X0104518Y0089081D02*
X0104757Y0088902D01*
X0104757Y0077502D01*
X0104478Y0077191D01*
X0104757Y0077165D01*
X0104757Y0057365D01*
X0149757Y0012365D01*
X0204957Y0012365D01*
X0210357Y0017765D01*
X0213957Y0014165D01*
X0207957Y0017165D02*
X0217557Y0026765D01*
X0217557Y0033965D01*
X0210957Y0040565D01*
X0209157Y0040565D01*
X0206157Y0043565D01*
X0206157Y0055565D01*
X0197157Y0064565D01*
X0193557Y0064565D01*
X0193319Y0064983D01*
X0186616Y0068861D02*
X0186616Y0071765D01*
X0186357Y0071765D01*
X0186616Y0071765D02*
X0186616Y0077861D01*
X0186193Y0078408D01*
X0185757Y0078965D01*
X0185757Y0080765D01*
X0180957Y0085565D01*
X0164157Y0085565D01*
X0161757Y0083165D01*
X0161757Y0078965D01*
X0161193Y0078408D01*
X0165957Y0078365D02*
X0166193Y0078408D01*
X0165957Y0078365D02*
X0165957Y0074165D01*
X0156957Y0065165D01*
X0156520Y0064975D01*
X0156357Y0065165D01*
X0133557Y0065165D01*
X0133557Y0059165D01*
X0133162Y0059077D01*
X0133557Y0065165D02*
X0133557Y0085565D01*
X0133792Y0085888D01*
X0138957Y0090965D02*
X0141357Y0090965D01*
X0159357Y0072965D01*
X0162957Y0072965D01*
X0163557Y0073565D01*
X0163557Y0082565D01*
X0164757Y0083765D01*
X0168357Y0083765D01*
X0168357Y0073565D01*
X0167757Y0072965D01*
X0167157Y0072965D01*
X0162957Y0068765D01*
X0162957Y0063365D01*
X0158757Y0059165D01*
X0158757Y0040565D01*
X0160557Y0038765D01*
X0180357Y0038765D01*
X0186957Y0032165D01*
X0186957Y0017765D01*
X0187197Y0017306D01*
X0187557Y0017165D01*
X0207957Y0017165D01*
X0210357Y0017765D02*
X0218757Y0026165D01*
X0218757Y0047765D01*
X0224157Y0053165D01*
X0224157Y0076565D01*
X0224737Y0076951D01*
X0225016Y0076661D01*
X0224737Y0076951D02*
X0225016Y0077261D01*
X0225016Y0088661D01*
X0224776Y0088841D01*
X0217816Y0080861D02*
X0214816Y0083861D01*
X0184816Y0083861D01*
X0180616Y0088061D01*
X0175216Y0088061D01*
X0166216Y0097061D01*
X0166216Y0098861D01*
X0166193Y0098880D01*
X0166216Y0099461D01*
X0166216Y0101261D01*
X0170416Y0105461D01*
X0170416Y0118661D01*
X0169816Y0119261D01*
X0169816Y0127661D01*
X0169737Y0128132D01*
X0169816Y0128261D01*
X0169816Y0139661D01*
X0169697Y0140061D01*
X0158674Y0140061D02*
X0158416Y0140261D01*
X0155416Y0143261D01*
X0155416Y0154061D01*
X0154934Y0154117D01*
X0148216Y0158861D02*
X0144016Y0154661D01*
X0143910Y0154117D01*
X0144016Y0154061D01*
X0144016Y0146261D01*
X0158416Y0131861D01*
X0158416Y0128261D01*
X0158713Y0128132D01*
X0159016Y0128261D01*
X0169216Y0118061D01*
X0169216Y0111461D01*
X0161416Y0103661D01*
X0161416Y0099461D01*
X0161193Y0098880D01*
X0171193Y0098880D02*
X0171616Y0099461D01*
X0171616Y0101261D01*
X0189616Y0119261D01*
X0189616Y0127661D01*
X0190012Y0128132D01*
X0190216Y0128261D01*
X0190216Y0139661D01*
X0190091Y0139943D01*
X0201115Y0139943D02*
X0201616Y0140261D01*
X0201616Y0151061D01*
X0204016Y0153461D01*
X0204107Y0153920D01*
X0214816Y0153461D02*
X0215130Y0153920D01*
X0214816Y0153461D02*
X0214816Y0145661D01*
X0201616Y0132461D01*
X0201616Y0128261D01*
X0201036Y0128132D01*
X0201616Y0127661D01*
X0203416Y0127661D01*
X0213016Y0118061D01*
X0213016Y0110861D01*
X0212416Y0110261D01*
X0212416Y0104261D01*
X0211981Y0103014D01*
X0212416Y0103061D01*
X0212416Y0104261D01*
X0179416Y0104261D01*
X0176416Y0101261D01*
X0176416Y0099461D01*
X0176193Y0098880D01*
X0171616Y0098861D02*
X0171193Y0098880D01*
X0171616Y0098861D02*
X0171616Y0096461D01*
X0178816Y0089261D01*
X0213616Y0089261D01*
X0213753Y0088841D01*
X0217816Y0080861D02*
X0217816Y0073061D01*
X0213616Y0068861D01*
X0213616Y0045461D01*
X0213201Y0045046D01*
X0224225Y0045046D02*
X0224416Y0044861D01*
X0224416Y0030461D01*
X0224123Y0030341D01*
X0223557Y0029765D01*
X0223557Y0020165D01*
X0214557Y0011165D01*
X0149157Y0011165D01*
X0129957Y0030365D01*
X0104157Y0030365D01*
X0103864Y0030581D01*
X0104157Y0030702D01*
X0104157Y0045102D01*
X0103967Y0045286D01*
X0093357Y0045702D02*
X0092943Y0045286D01*
X0093357Y0045702D02*
X0093357Y0069102D01*
X0097557Y0073302D01*
X0097557Y0081102D01*
X0094557Y0084102D01*
X0093455Y0077191D02*
X0093357Y0077165D01*
X0076557Y0077165D01*
X0065157Y0065765D01*
X0062157Y0065765D01*
X0062037Y0065223D01*
X0061557Y0065765D01*
X0056157Y0071165D01*
X0056157Y0078365D01*
X0055935Y0078648D01*
X0058557Y0076565D02*
X0060357Y0078365D01*
X0060935Y0078648D01*
X0058557Y0076565D02*
X0058557Y0072365D01*
X0050757Y0068765D02*
X0047757Y0065765D01*
X0047285Y0065215D01*
X0047157Y0060702D01*
X0043557Y0057102D01*
X0043557Y0044502D01*
X0043486Y0044329D01*
X0043557Y0043902D01*
X0047157Y0040302D01*
X0074157Y0040302D01*
X0083757Y0030702D01*
X0092757Y0030702D01*
X0092841Y0030581D01*
X0096957Y0034565D02*
X0096957Y0026165D01*
X0088557Y0017765D01*
X0066957Y0017765D01*
X0066939Y0017546D01*
X0056157Y0018102D02*
X0055915Y0017546D01*
X0056157Y0018102D02*
X0056157Y0034302D01*
X0056132Y0034715D01*
X0043486Y0033306D02*
X0042957Y0033702D01*
X0027357Y0033702D01*
X0012957Y0048102D01*
X0012904Y0048294D01*
X0012904Y0059317D02*
X0012957Y0059765D01*
X0012957Y0065165D01*
X0035757Y0065165D01*
X0036262Y0065215D01*
X0036357Y0065765D01*
X0036357Y0066965D01*
X0045357Y0075965D01*
X0045357Y0078365D01*
X0045935Y0078648D01*
X0050757Y0078365D02*
X0050935Y0078648D01*
X0050757Y0078365D02*
X0050757Y0068765D01*
X0056157Y0059765D02*
X0061557Y0065165D01*
X0062037Y0065223D01*
X0063957Y0059165D02*
X0069957Y0065165D01*
X0072957Y0065165D01*
X0073061Y0065223D01*
X0073557Y0065165D01*
X0076557Y0065165D01*
X0085557Y0056165D01*
X0085557Y0044165D01*
X0089157Y0040565D01*
X0090957Y0040565D01*
X0096957Y0034565D01*
X0133216Y0047861D02*
X0133162Y0048054D01*
X0133216Y0047861D02*
X0147616Y0033461D01*
X0163216Y0033461D01*
X0163745Y0033065D01*
X0176416Y0034061D02*
X0176390Y0034475D01*
X0176416Y0034061D02*
X0176416Y0017861D01*
X0176174Y0017306D01*
X0194416Y0040061D02*
X0204016Y0030461D01*
X0213016Y0030461D01*
X0213099Y0030341D01*
X0224123Y0030341D02*
X0224157Y0029765D01*
X0252357Y0029765D01*
X0269757Y0012365D01*
X0326157Y0012365D01*
X0340557Y0026765D01*
X0340557Y0029765D01*
X0340579Y0030144D01*
X0341157Y0030365D01*
X0343557Y0030365D01*
X0348957Y0035765D01*
X0349045Y0036207D01*
X0348957Y0036365D01*
X0344757Y0040565D01*
X0344757Y0041165D01*
X0341157Y0044765D01*
X0340682Y0044849D01*
X0334009Y0045265D02*
X0329658Y0044849D01*
X0334009Y0045265D02*
X0334009Y0068665D01*
X0338209Y0072865D01*
X0338209Y0080665D01*
X0335209Y0083665D01*
X0305209Y0083665D01*
X0301009Y0087865D01*
X0295609Y0087865D01*
X0286609Y0096865D01*
X0286609Y0098665D01*
X0286587Y0098683D01*
X0286609Y0099265D01*
X0286609Y0101065D01*
X0290809Y0105265D01*
X0290809Y0118465D01*
X0290209Y0119065D01*
X0290209Y0127465D01*
X0290130Y0127935D01*
X0290209Y0128065D01*
X0290209Y0139465D01*
X0290091Y0139865D01*
X0279068Y0139865D02*
X0278809Y0140065D01*
X0275809Y0143065D01*
X0275809Y0153865D01*
X0275327Y0153920D01*
X0268609Y0158665D02*
X0264409Y0154465D01*
X0264304Y0153920D01*
X0264409Y0153865D01*
X0264409Y0146065D01*
X0278809Y0131665D01*
X0278809Y0128065D01*
X0279107Y0127935D01*
X0279409Y0128065D01*
X0289609Y0117865D01*
X0289609Y0111265D01*
X0281809Y0103465D01*
X0281809Y0099265D01*
X0281587Y0098683D01*
X0291587Y0098683D02*
X0292009Y0099265D01*
X0292009Y0101065D01*
X0310009Y0119065D01*
X0310009Y0127465D01*
X0310406Y0127935D01*
X0310609Y0128065D01*
X0310609Y0139465D01*
X0310485Y0139746D01*
X0321508Y0139746D02*
X0322009Y0140065D01*
X0322009Y0150865D01*
X0324409Y0153265D01*
X0324501Y0153723D01*
X0335209Y0153265D02*
X0335524Y0153723D01*
X0335209Y0153265D02*
X0335209Y0145465D01*
X0322009Y0132265D01*
X0322009Y0128065D01*
X0321430Y0127935D01*
X0322009Y0127465D01*
X0323809Y0127465D01*
X0333409Y0117865D01*
X0333409Y0110665D01*
X0332809Y0110065D01*
X0332809Y0104065D01*
X0332375Y0102817D01*
X0332809Y0102865D01*
X0332809Y0104065D01*
X0299809Y0104065D01*
X0296809Y0101065D01*
X0296809Y0099265D01*
X0296587Y0098683D01*
X0301587Y0098683D02*
X0301609Y0098665D01*
X0306409Y0098665D01*
X0306587Y0098683D01*
X0306957Y0098502D01*
X0306957Y0096102D01*
X0309957Y0093102D01*
X0309957Y0091902D01*
X0309957Y0093102D02*
X0345957Y0093102D01*
X0364557Y0111702D01*
X0364557Y0117702D01*
X0368757Y0121902D01*
X0368848Y0121916D01*
X0368848Y0122388D01*
X0358888Y0132349D01*
X0358888Y0144781D01*
X0366998Y0152891D01*
X0369357Y0157565D02*
X0371757Y0155165D01*
X0371757Y0146165D01*
X0367557Y0141965D01*
X0366998Y0141491D01*
X0357357Y0149765D02*
X0365157Y0157565D01*
X0369357Y0157565D01*
X0357357Y0149765D02*
X0357357Y0106565D01*
X0349557Y0098765D01*
X0311757Y0098765D01*
X0311587Y0098683D01*
X0306357Y0092165D02*
X0300957Y0092165D01*
X0299209Y0089065D02*
X0292009Y0096265D01*
X0292009Y0098665D01*
X0291587Y0098683D01*
X0281209Y0105265D02*
X0279409Y0103465D01*
X0279409Y0073465D01*
X0280009Y0072865D01*
X0283609Y0072865D01*
X0284209Y0073465D01*
X0284209Y0083065D01*
X0284809Y0083665D01*
X0293809Y0083665D01*
X0293809Y0071665D01*
X0292009Y0069865D01*
X0292009Y0041665D01*
X0292609Y0041065D01*
X0301009Y0041065D01*
X0301609Y0041665D01*
X0301609Y0047065D01*
X0309899Y0055354D01*
X0310817Y0054435D01*
X0310817Y0046522D01*
X0320108Y0037231D01*
X0332313Y0037231D01*
X0335197Y0034346D01*
X0335326Y0034346D01*
X0335326Y0025946D01*
X0328609Y0017065D01*
X0307609Y0017065D01*
X0307591Y0017109D01*
X0296809Y0017665D02*
X0296568Y0017109D01*
X0296809Y0017665D02*
X0296809Y0033865D01*
X0296784Y0034278D01*
X0284138Y0032869D02*
X0283609Y0033265D01*
X0268009Y0033265D01*
X0253609Y0047665D01*
X0253556Y0047857D01*
X0253556Y0058880D02*
X0254157Y0059165D01*
X0254157Y0085565D01*
X0254186Y0085691D01*
X0235216Y0093461D02*
X0189616Y0093461D01*
X0189016Y0094061D01*
X0186616Y0091661D01*
X0189016Y0094061D02*
X0186616Y0096461D01*
X0186616Y0098861D01*
X0186193Y0098880D01*
X0186016Y0098861D01*
X0181216Y0098861D01*
X0181193Y0098880D01*
X0191193Y0098880D02*
X0191757Y0098765D01*
X0228957Y0098765D01*
X0230157Y0099965D01*
X0230157Y0121565D01*
X0224416Y0122261D02*
X0217216Y0115061D01*
X0216942Y0114707D01*
X0224816Y0114707D02*
X0225016Y0114461D01*
X0225016Y0103061D01*
X0224973Y0103014D01*
X0254209Y0099265D02*
X0254186Y0098683D01*
X0254209Y0099265D02*
X0262009Y0099265D01*
X0277009Y0114265D01*
X0277335Y0114510D01*
X0278809Y0118465D02*
X0280609Y0118465D01*
X0281209Y0117865D01*
X0281209Y0105265D01*
X0285209Y0114510D02*
X0284809Y0114865D01*
X0284809Y0116065D01*
X0281209Y0119665D01*
X0279409Y0119665D01*
X0274609Y0124465D01*
X0274609Y0125065D01*
X0258409Y0141265D01*
X0258319Y0141715D01*
X0258319Y0128723D02*
X0258409Y0128665D01*
X0268609Y0128665D01*
X0278809Y0118465D01*
X0224416Y0122261D02*
X0224416Y0128261D01*
X0224816Y0128723D01*
X0224816Y0141715D02*
X0224416Y0142061D01*
X0224416Y0150461D01*
X0219616Y0155261D01*
X0219616Y0157661D01*
X0218416Y0158861D01*
X0148216Y0158861D01*
X0137926Y0141912D02*
X0138016Y0141461D01*
X0154216Y0125261D01*
X0154216Y0124661D01*
X0159016Y0119861D01*
X0160816Y0119861D01*
X0164416Y0116261D01*
X0164416Y0115061D01*
X0164816Y0114707D01*
X0156942Y0114707D02*
X0156616Y0114461D01*
X0141616Y0099461D01*
X0133816Y0099461D01*
X0133792Y0098880D01*
X0129357Y0104765D02*
X0129357Y0117965D01*
X0137757Y0126365D01*
X0137757Y0128765D01*
X0137926Y0128920D01*
X0044557Y0114947D02*
X0044157Y0115302D01*
X0044157Y0116502D01*
X0040557Y0120102D01*
X0038757Y0120102D01*
X0033957Y0124902D01*
X0033957Y0125502D01*
X0017757Y0141702D01*
X0017667Y0142152D01*
X0017667Y0129160D02*
X0017757Y0128765D01*
X0026757Y0128765D01*
X0036683Y0114947D02*
X0036357Y0114702D01*
X0021357Y0099702D01*
X0013557Y0099702D01*
X0013533Y0099121D01*
X0013533Y0086128D02*
X0012957Y0085565D01*
X0012957Y0065165D01*
X0040935Y0078648D02*
X0041157Y0078702D01*
X0041157Y0082902D01*
X0043557Y0085302D01*
X0061557Y0085302D01*
X0065757Y0081102D01*
X0065757Y0078702D01*
X0065935Y0078648D01*
X0066357Y0078702D01*
X0070557Y0078702D01*
X0070935Y0078648D01*
X0071157Y0078965D01*
X0072357Y0078965D01*
X0074757Y0081365D01*
X0104478Y0077191D02*
X0104757Y0076902D01*
X0063957Y0059165D02*
X0060357Y0059165D01*
X0056157Y0059765D02*
X0056157Y0045965D01*
X0056132Y0045739D01*
X0163745Y0044089D02*
X0164157Y0044165D01*
X0167157Y0047165D01*
X0167157Y0064565D01*
X0167544Y0064975D01*
X0167757Y0065165D01*
X0167757Y0071165D01*
X0170757Y0074165D01*
X0170757Y0078365D01*
X0171193Y0078408D01*
X0176193Y0078408D02*
X0176416Y0077861D01*
X0176416Y0075461D01*
X0176157Y0075365D02*
X0176193Y0078408D01*
X0180957Y0078965D02*
X0180957Y0080765D01*
X0177957Y0083765D01*
X0168357Y0083765D01*
X0180957Y0078965D02*
X0181193Y0078408D01*
X0186193Y0078408D02*
X0186616Y0078461D01*
X0190816Y0078461D01*
X0191193Y0078408D01*
X0196557Y0076565D02*
X0185157Y0065165D01*
X0182757Y0065165D01*
X0182296Y0064983D01*
X0182157Y0065165D01*
X0176157Y0071165D01*
X0176157Y0075365D01*
X0196557Y0076565D02*
X0213357Y0076565D01*
X0213713Y0076951D01*
X0182296Y0064983D02*
X0182157Y0064565D01*
X0176757Y0059165D01*
X0176757Y0045965D01*
X0176390Y0045498D01*
X0167416Y0040061D02*
X0163816Y0043661D01*
X0163745Y0044089D01*
X0167416Y0040061D02*
X0194416Y0040061D01*
X0253556Y0058880D02*
X0253557Y0059165D01*
X0254157Y0059165D01*
X0263757Y0059165D01*
X0268557Y0063965D01*
X0276357Y0063965D01*
X0276678Y0064463D01*
X0276957Y0063965D01*
X0286557Y0073565D01*
X0286557Y0077765D01*
X0286587Y0078211D01*
X0291357Y0077765D02*
X0291587Y0078211D01*
X0291357Y0077765D02*
X0291357Y0075965D01*
X0287757Y0072365D01*
X0287757Y0064565D01*
X0287701Y0064463D01*
X0287157Y0063965D01*
X0287157Y0047165D01*
X0284157Y0044165D01*
X0284138Y0043892D01*
X0284209Y0043465D01*
X0287809Y0039865D01*
X0314809Y0039865D01*
X0324409Y0030265D01*
X0333409Y0030265D01*
X0329556Y0030144D01*
X0344757Y0048365D02*
X0348957Y0044165D01*
X0349045Y0044081D01*
X0344757Y0048365D02*
X0344757Y0076565D01*
X0345130Y0076754D01*
X0345409Y0076465D01*
X0345130Y0076754D02*
X0345409Y0077065D01*
X0345409Y0088465D01*
X0345170Y0088644D01*
X0334146Y0088644D02*
X0334009Y0089065D01*
X0299209Y0089065D01*
X0302157Y0084965D02*
X0306357Y0080765D01*
X0306357Y0078365D01*
X0306587Y0078211D01*
X0306957Y0077765D01*
X0308157Y0076565D01*
X0309957Y0076565D01*
X0311157Y0077765D01*
X0311587Y0078211D01*
X0311209Y0078265D01*
X0308157Y0076565D02*
X0308157Y0071765D01*
X0307557Y0071765D01*
X0308157Y0071765D02*
X0308157Y0069702D01*
X0307557Y0069102D01*
X0311115Y0064550D02*
X0311157Y0063965D01*
X0311157Y0061565D01*
X0313557Y0059165D01*
X0313609Y0059065D01*
X0309899Y0055354D01*
X0299757Y0063965D02*
X0297357Y0061565D01*
X0297357Y0045365D01*
X0296784Y0045302D01*
X0299757Y0063965D02*
X0300091Y0064550D01*
X0299757Y0064565D01*
X0296757Y0067565D01*
X0296757Y0071765D01*
X0296757Y0075365D01*
X0296587Y0078211D01*
X0296809Y0077665D01*
X0296809Y0075265D01*
X0301009Y0078265D02*
X0301587Y0078211D01*
X0301009Y0078265D02*
X0301009Y0080665D01*
X0298009Y0083665D01*
X0293809Y0083665D01*
X0302157Y0084965D02*
X0284157Y0084965D01*
X0281757Y0082565D01*
X0281757Y0078365D01*
X0281587Y0078211D01*
X0306587Y0078211D02*
X0307009Y0078265D01*
X0318357Y0076565D02*
X0318409Y0076465D01*
X0334009Y0076465D01*
X0334107Y0076754D01*
X0318357Y0076565D02*
X0318357Y0080765D01*
X0345367Y0102817D02*
X0345409Y0102865D01*
X0345409Y0114265D01*
X0345209Y0114510D01*
X0344809Y0122065D02*
X0337609Y0114865D01*
X0337335Y0114510D01*
X0344809Y0122065D02*
X0344809Y0128065D01*
X0345209Y0128526D01*
X0345209Y0141518D02*
X0344809Y0141865D01*
X0344809Y0150265D01*
X0340009Y0155065D01*
X0340009Y0157465D01*
X0338809Y0158665D01*
X0268609Y0158665D01*
D21*
X0230157Y0121565D03*
X0186616Y0091661D03*
X0186357Y0071765D03*
X0138957Y0090965D03*
X0129357Y0104765D03*
X0085557Y0099365D03*
X0066357Y0091902D03*
X0074757Y0081365D03*
X0058557Y0072365D03*
X0060357Y0059165D03*
X0213957Y0014165D03*
X0296757Y0071765D03*
X0307557Y0071765D03*
X0318357Y0080765D03*
X0309957Y0091902D03*
X0306357Y0092165D03*
X0300957Y0092165D03*
X0026757Y0128765D03*
M02*
