G75*
%MOIN*%
%OFA0B0*%
%FSLAX25Y25*%
%IPPOS*%
%LPD*%
%AMOC8*
5,1,8,0,0,1.08239X$1,22.5*
%
%ADD10C,0.00400*%
%ADD11C,0.00800*%
%ADD12C,0.00100*%
%ADD13C,0.00276*%
%ADD14C,0.00300*%
%ADD15C,0.00700*%
%ADD16R,0.05906X0.03937*%
%ADD17R,0.05906X0.05906*%
%ADD18R,0.03937X0.05906*%
%ADD19C,0.00500*%
%ADD20C,0.01200*%
D10*
X0117863Y0014439D02*
X0119398Y0015973D01*
X0117863Y0017508D01*
X0122467Y0017508D01*
X0122467Y0019043D02*
X0122467Y0020577D01*
X0122467Y0019810D02*
X0119398Y0019810D01*
X0119398Y0019043D01*
X0117863Y0019810D02*
X0117096Y0019810D01*
X0119398Y0022112D02*
X0122467Y0025181D01*
X0121700Y0026716D02*
X0120165Y0026716D01*
X0119398Y0027483D01*
X0119398Y0029018D01*
X0120165Y0029785D01*
X0120933Y0029785D01*
X0120933Y0026716D01*
X0121700Y0026716D02*
X0122467Y0027483D01*
X0122467Y0029018D01*
X0122467Y0031320D02*
X0119398Y0031320D01*
X0119398Y0032854D02*
X0119398Y0033622D01*
X0119398Y0032854D02*
X0120933Y0031320D01*
X0120165Y0035156D02*
X0120165Y0038226D01*
X0120165Y0039760D02*
X0120165Y0042829D01*
X0119398Y0042829D02*
X0122467Y0042829D01*
X0122467Y0044364D02*
X0119398Y0044364D01*
X0119398Y0046666D01*
X0120165Y0047433D01*
X0122467Y0047433D01*
X0121700Y0048968D02*
X0120933Y0049735D01*
X0120933Y0052037D01*
X0120165Y0052037D02*
X0122467Y0052037D01*
X0122467Y0049735D01*
X0121700Y0048968D01*
X0119398Y0049735D02*
X0119398Y0051270D01*
X0120165Y0052037D01*
X0117863Y0053572D02*
X0117863Y0054339D01*
X0122467Y0054339D01*
X0122467Y0053572D02*
X0122467Y0055107D01*
X0121700Y0056641D02*
X0122467Y0057409D01*
X0122467Y0058943D01*
X0121700Y0059711D01*
X0120165Y0059711D01*
X0119398Y0058943D01*
X0119398Y0057409D01*
X0120165Y0056641D01*
X0121700Y0056641D01*
X0121700Y0061245D02*
X0122467Y0062012D01*
X0122467Y0064314D01*
X0123235Y0064314D02*
X0119398Y0064314D01*
X0119398Y0062012D01*
X0120165Y0061245D01*
X0121700Y0061245D01*
X0124002Y0062780D02*
X0124002Y0063547D01*
X0123235Y0064314D01*
X0120165Y0065849D02*
X0120165Y0068918D01*
X0117863Y0070453D02*
X0122467Y0070453D01*
X0122467Y0073522D01*
X0122467Y0075057D02*
X0117863Y0075057D01*
X0119398Y0076592D01*
X0117863Y0078126D01*
X0122467Y0078126D01*
X0121700Y0079661D02*
X0122467Y0080428D01*
X0122467Y0081963D01*
X0121700Y0082730D01*
X0120933Y0082730D01*
X0120165Y0081963D01*
X0120165Y0081196D01*
X0120165Y0081963D02*
X0119398Y0082730D01*
X0118631Y0082730D01*
X0117863Y0081963D01*
X0117863Y0080428D01*
X0118631Y0079661D01*
X0118631Y0084265D02*
X0119398Y0084265D01*
X0120165Y0085032D01*
X0120165Y0087334D01*
X0118631Y0087334D02*
X0121700Y0087334D01*
X0122467Y0086567D01*
X0122467Y0085032D01*
X0121700Y0084265D01*
X0118631Y0084265D02*
X0117863Y0085032D01*
X0117863Y0086567D01*
X0118631Y0087334D01*
X0118631Y0088869D02*
X0117863Y0089636D01*
X0117863Y0091171D01*
X0118631Y0091938D01*
X0121700Y0088869D01*
X0122467Y0089636D01*
X0122467Y0091171D01*
X0121700Y0091938D01*
X0118631Y0091938D01*
X0118631Y0093473D02*
X0117863Y0094240D01*
X0117863Y0095775D01*
X0118631Y0096542D01*
X0121700Y0093473D01*
X0122467Y0094240D01*
X0122467Y0095775D01*
X0121700Y0096542D01*
X0118631Y0096542D01*
X0120165Y0098077D02*
X0120165Y0101146D01*
X0120933Y0102681D02*
X0120933Y0104982D01*
X0120165Y0105750D01*
X0118631Y0105750D01*
X0117863Y0104982D01*
X0117863Y0102681D01*
X0122467Y0102681D01*
X0120933Y0104215D02*
X0122467Y0105750D01*
X0121700Y0107284D02*
X0120165Y0107284D01*
X0119398Y0108052D01*
X0119398Y0109586D01*
X0120165Y0110354D01*
X0120933Y0110354D01*
X0120933Y0107284D01*
X0121700Y0107284D02*
X0122467Y0108052D01*
X0122467Y0109586D01*
X0119398Y0111888D02*
X0122467Y0113423D01*
X0119398Y0114958D01*
X0120165Y0116492D02*
X0120165Y0119562D01*
X0120165Y0121096D02*
X0120165Y0124165D01*
X0119398Y0124165D02*
X0122467Y0124165D01*
X0119398Y0124165D02*
X0117863Y0122631D01*
X0119398Y0121096D01*
X0122467Y0121096D01*
X0121700Y0093473D02*
X0118631Y0093473D01*
X0118631Y0088869D02*
X0121700Y0088869D01*
X0119398Y0042829D02*
X0117863Y0041295D01*
X0119398Y0039760D01*
X0122467Y0039760D01*
X0119398Y0025181D02*
X0122467Y0022112D01*
X0122467Y0014439D02*
X0117863Y0014439D01*
D11*
X0136193Y0011439D02*
X0138162Y0011439D01*
X0138162Y0002581D01*
X0139146Y0001597D01*
X0156863Y0001597D01*
X0157847Y0002581D01*
X0157847Y0011439D01*
X0159816Y0011439D01*
X0159816Y0068526D01*
X0136193Y0068526D01*
X0136193Y0011439D01*
X0138162Y0011439D02*
X0157847Y0011439D01*
X0186193Y0011439D02*
X0188162Y0011439D01*
X0188162Y0002581D01*
X0189146Y0001597D01*
X0206863Y0001597D01*
X0207847Y0002581D01*
X0207847Y0011439D01*
X0209816Y0011439D01*
X0209816Y0068526D01*
X0186193Y0068526D01*
X0186193Y0011439D01*
X0188162Y0011439D02*
X0207847Y0011439D01*
X0256587Y0011243D02*
X0258556Y0011243D01*
X0258556Y0002384D01*
X0259540Y0001400D01*
X0277256Y0001400D01*
X0278241Y0002384D01*
X0278241Y0011243D01*
X0280209Y0011243D01*
X0280209Y0068329D01*
X0256587Y0068329D01*
X0256587Y0011243D01*
X0258556Y0011243D02*
X0278241Y0011243D01*
X0306587Y0011243D02*
X0308556Y0011243D01*
X0308556Y0002384D01*
X0309540Y0001400D01*
X0327256Y0001400D01*
X0328241Y0002384D01*
X0328241Y0011243D01*
X0330209Y0011243D01*
X0330209Y0068329D01*
X0306587Y0068329D01*
X0306587Y0011243D01*
X0308556Y0011243D02*
X0328241Y0011243D01*
X0341526Y0074081D02*
X0398612Y0074081D01*
X0398612Y0076050D01*
X0407470Y0076050D01*
X0408455Y0077034D01*
X0408455Y0094750D01*
X0407470Y0095735D01*
X0398612Y0095735D01*
X0398612Y0097703D01*
X0341526Y0097703D01*
X0341526Y0074081D01*
X0398612Y0076050D02*
X0398612Y0095735D01*
X0356053Y0116916D02*
X0356057Y0117230D01*
X0356068Y0117544D01*
X0356088Y0117857D01*
X0356115Y0118170D01*
X0356149Y0118482D01*
X0356191Y0118793D01*
X0356241Y0119103D01*
X0356299Y0119412D01*
X0356364Y0119719D01*
X0356436Y0120025D01*
X0356516Y0120329D01*
X0356604Y0120630D01*
X0356699Y0120930D01*
X0356801Y0121227D01*
X0356910Y0121521D01*
X0357027Y0121812D01*
X0357151Y0122101D01*
X0357281Y0122387D01*
X0357419Y0122669D01*
X0357564Y0122948D01*
X0357715Y0123223D01*
X0357873Y0123494D01*
X0358038Y0123761D01*
X0358209Y0124025D01*
X0358387Y0124283D01*
X0358571Y0124538D01*
X0358761Y0124788D01*
X0358957Y0125033D01*
X0359160Y0125273D01*
X0359368Y0125509D01*
X0359581Y0125739D01*
X0359801Y0125963D01*
X0360025Y0126183D01*
X0360255Y0126396D01*
X0360491Y0126604D01*
X0360731Y0126807D01*
X0360976Y0127003D01*
X0361226Y0127193D01*
X0361481Y0127377D01*
X0361739Y0127555D01*
X0362003Y0127726D01*
X0362270Y0127891D01*
X0362541Y0128049D01*
X0362816Y0128200D01*
X0363095Y0128345D01*
X0363377Y0128483D01*
X0363663Y0128613D01*
X0363952Y0128737D01*
X0364243Y0128854D01*
X0364537Y0128963D01*
X0364834Y0129065D01*
X0365134Y0129160D01*
X0365435Y0129248D01*
X0365739Y0129328D01*
X0366045Y0129400D01*
X0366352Y0129465D01*
X0366661Y0129523D01*
X0366971Y0129573D01*
X0367282Y0129615D01*
X0367594Y0129649D01*
X0367907Y0129676D01*
X0368220Y0129696D01*
X0368534Y0129707D01*
X0368848Y0129711D01*
X0369162Y0129707D01*
X0369476Y0129696D01*
X0369789Y0129676D01*
X0370102Y0129649D01*
X0370414Y0129615D01*
X0370725Y0129573D01*
X0371035Y0129523D01*
X0371344Y0129465D01*
X0371651Y0129400D01*
X0371957Y0129328D01*
X0372261Y0129248D01*
X0372562Y0129160D01*
X0372862Y0129065D01*
X0373159Y0128963D01*
X0373453Y0128854D01*
X0373744Y0128737D01*
X0374033Y0128613D01*
X0374319Y0128483D01*
X0374601Y0128345D01*
X0374880Y0128200D01*
X0375155Y0128049D01*
X0375426Y0127891D01*
X0375693Y0127726D01*
X0375957Y0127555D01*
X0376215Y0127377D01*
X0376470Y0127193D01*
X0376720Y0127003D01*
X0376965Y0126807D01*
X0377205Y0126604D01*
X0377441Y0126396D01*
X0377671Y0126183D01*
X0377895Y0125963D01*
X0378115Y0125739D01*
X0378328Y0125509D01*
X0378536Y0125273D01*
X0378739Y0125033D01*
X0378935Y0124788D01*
X0379125Y0124538D01*
X0379309Y0124283D01*
X0379487Y0124025D01*
X0379658Y0123761D01*
X0379823Y0123494D01*
X0379981Y0123223D01*
X0380132Y0122948D01*
X0380277Y0122669D01*
X0380415Y0122387D01*
X0380545Y0122101D01*
X0380669Y0121812D01*
X0380786Y0121521D01*
X0380895Y0121227D01*
X0380997Y0120930D01*
X0381092Y0120630D01*
X0381180Y0120329D01*
X0381260Y0120025D01*
X0381332Y0119719D01*
X0381397Y0119412D01*
X0381455Y0119103D01*
X0381505Y0118793D01*
X0381547Y0118482D01*
X0381581Y0118170D01*
X0381608Y0117857D01*
X0381628Y0117544D01*
X0381639Y0117230D01*
X0381643Y0116916D01*
X0381639Y0116602D01*
X0381628Y0116288D01*
X0381608Y0115975D01*
X0381581Y0115662D01*
X0381547Y0115350D01*
X0381505Y0115039D01*
X0381455Y0114729D01*
X0381397Y0114420D01*
X0381332Y0114113D01*
X0381260Y0113807D01*
X0381180Y0113503D01*
X0381092Y0113202D01*
X0380997Y0112902D01*
X0380895Y0112605D01*
X0380786Y0112311D01*
X0380669Y0112020D01*
X0380545Y0111731D01*
X0380415Y0111445D01*
X0380277Y0111163D01*
X0380132Y0110884D01*
X0379981Y0110609D01*
X0379823Y0110338D01*
X0379658Y0110071D01*
X0379487Y0109807D01*
X0379309Y0109549D01*
X0379125Y0109294D01*
X0378935Y0109044D01*
X0378739Y0108799D01*
X0378536Y0108559D01*
X0378328Y0108323D01*
X0378115Y0108093D01*
X0377895Y0107869D01*
X0377671Y0107649D01*
X0377441Y0107436D01*
X0377205Y0107228D01*
X0376965Y0107025D01*
X0376720Y0106829D01*
X0376470Y0106639D01*
X0376215Y0106455D01*
X0375957Y0106277D01*
X0375693Y0106106D01*
X0375426Y0105941D01*
X0375155Y0105783D01*
X0374880Y0105632D01*
X0374601Y0105487D01*
X0374319Y0105349D01*
X0374033Y0105219D01*
X0373744Y0105095D01*
X0373453Y0104978D01*
X0373159Y0104869D01*
X0372862Y0104767D01*
X0372562Y0104672D01*
X0372261Y0104584D01*
X0371957Y0104504D01*
X0371651Y0104432D01*
X0371344Y0104367D01*
X0371035Y0104309D01*
X0370725Y0104259D01*
X0370414Y0104217D01*
X0370102Y0104183D01*
X0369789Y0104156D01*
X0369476Y0104136D01*
X0369162Y0104125D01*
X0368848Y0104121D01*
X0368534Y0104125D01*
X0368220Y0104136D01*
X0367907Y0104156D01*
X0367594Y0104183D01*
X0367282Y0104217D01*
X0366971Y0104259D01*
X0366661Y0104309D01*
X0366352Y0104367D01*
X0366045Y0104432D01*
X0365739Y0104504D01*
X0365435Y0104584D01*
X0365134Y0104672D01*
X0364834Y0104767D01*
X0364537Y0104869D01*
X0364243Y0104978D01*
X0363952Y0105095D01*
X0363663Y0105219D01*
X0363377Y0105349D01*
X0363095Y0105487D01*
X0362816Y0105632D01*
X0362541Y0105783D01*
X0362270Y0105941D01*
X0362003Y0106106D01*
X0361739Y0106277D01*
X0361481Y0106455D01*
X0361226Y0106639D01*
X0360976Y0106829D01*
X0360731Y0107025D01*
X0360491Y0107228D01*
X0360255Y0107436D01*
X0360025Y0107649D01*
X0359801Y0107869D01*
X0359581Y0108093D01*
X0359368Y0108323D01*
X0359160Y0108559D01*
X0358957Y0108799D01*
X0358761Y0109044D01*
X0358571Y0109294D01*
X0358387Y0109549D01*
X0358209Y0109807D01*
X0358038Y0110071D01*
X0357873Y0110338D01*
X0357715Y0110609D01*
X0357564Y0110884D01*
X0357419Y0111163D01*
X0357281Y0111445D01*
X0357151Y0111731D01*
X0357027Y0112020D01*
X0356910Y0112311D01*
X0356801Y0112605D01*
X0356699Y0112902D01*
X0356604Y0113202D01*
X0356516Y0113503D01*
X0356436Y0113807D01*
X0356364Y0114113D01*
X0356299Y0114420D01*
X0356241Y0114729D01*
X0356191Y0115039D01*
X0356149Y0115350D01*
X0356115Y0115662D01*
X0356088Y0115975D01*
X0356068Y0116288D01*
X0356057Y0116602D01*
X0356053Y0116916D01*
X0373848Y0119416D02*
X0373848Y0124416D01*
X0369498Y0137191D02*
X0364498Y0137191D01*
X0361998Y0139691D01*
X0361998Y0144691D01*
X0364498Y0147191D01*
X0361998Y0149691D01*
X0361998Y0154691D01*
X0364498Y0157191D01*
X0369498Y0157191D01*
X0371998Y0154691D01*
X0371998Y0149691D01*
X0369498Y0147191D01*
X0371998Y0144691D01*
X0371998Y0139691D01*
X0369498Y0137191D01*
X0089557Y0068766D02*
X0065935Y0068766D01*
X0065935Y0011680D01*
X0067904Y0011680D01*
X0067904Y0002821D01*
X0068888Y0001837D01*
X0086604Y0001837D01*
X0087589Y0002821D01*
X0087589Y0011680D01*
X0089557Y0011680D01*
X0089557Y0068766D01*
X0039557Y0068766D02*
X0015935Y0068766D01*
X0015935Y0011680D01*
X0017904Y0011680D01*
X0017904Y0002821D01*
X0018888Y0001837D01*
X0036604Y0001837D01*
X0037589Y0002821D01*
X0037589Y0011680D01*
X0039557Y0011680D01*
X0039557Y0068766D01*
X0037589Y0011680D02*
X0017904Y0011680D01*
X0067904Y0011680D02*
X0087589Y0011680D01*
D12*
X0375397Y0117269D02*
X0375647Y0117019D01*
X0376648Y0117019D01*
X0376898Y0117269D01*
X0376898Y0117770D01*
X0376648Y0118020D01*
X0376648Y0118493D02*
X0376898Y0118743D01*
X0376898Y0119243D01*
X0376648Y0119493D01*
X0376148Y0119493D01*
X0375898Y0119243D01*
X0375898Y0118993D01*
X0376148Y0118493D01*
X0375397Y0118493D01*
X0375397Y0119493D01*
X0375647Y0118020D02*
X0375397Y0117770D01*
X0375397Y0117269D01*
D13*
X0037589Y0002821D02*
X0017904Y0002821D01*
X0067904Y0002821D02*
X0087589Y0002821D01*
X0138162Y0002581D02*
X0157847Y0002581D01*
X0188162Y0002581D02*
X0207847Y0002581D01*
X0258556Y0002384D02*
X0278241Y0002384D01*
X0308556Y0002384D02*
X0328241Y0002384D01*
X0407470Y0076050D02*
X0407470Y0095735D01*
D14*
X0380192Y0090745D02*
X0378257Y0090745D01*
X0379224Y0090745D02*
X0379224Y0087842D01*
X0377245Y0087842D02*
X0377245Y0090745D01*
X0376278Y0089777D01*
X0375310Y0090745D01*
X0375310Y0087842D01*
X0374299Y0088326D02*
X0374299Y0088810D01*
X0373815Y0089293D01*
X0372847Y0089293D01*
X0372364Y0089777D01*
X0372364Y0090261D01*
X0372847Y0090745D01*
X0373815Y0090745D01*
X0374299Y0090261D01*
X0371352Y0089293D02*
X0369417Y0089293D01*
X0368406Y0089293D02*
X0366471Y0089293D01*
X0367922Y0090745D01*
X0367922Y0087842D01*
X0365459Y0087842D02*
X0363524Y0087842D01*
X0365459Y0089777D01*
X0365459Y0090261D01*
X0364975Y0090745D01*
X0364008Y0090745D01*
X0363524Y0090261D01*
X0362512Y0090745D02*
X0360578Y0090745D01*
X0360578Y0089293D01*
X0361545Y0089777D01*
X0362029Y0089777D01*
X0362512Y0089293D01*
X0362512Y0088326D01*
X0362029Y0087842D01*
X0361061Y0087842D01*
X0360578Y0088326D01*
X0359566Y0088326D02*
X0359082Y0087842D01*
X0358115Y0087842D01*
X0357631Y0088326D01*
X0358598Y0089293D02*
X0359082Y0089293D01*
X0359566Y0088810D01*
X0359566Y0088326D01*
X0359082Y0089293D02*
X0359566Y0089777D01*
X0359566Y0090261D01*
X0359082Y0090745D01*
X0358115Y0090745D01*
X0357631Y0090261D01*
X0356619Y0089293D02*
X0354684Y0089293D01*
X0353673Y0090745D02*
X0352705Y0090745D01*
X0353189Y0090745D02*
X0353189Y0088326D01*
X0352705Y0087842D01*
X0352222Y0087842D01*
X0351738Y0088326D01*
X0350726Y0088326D02*
X0350243Y0087842D01*
X0349275Y0087842D01*
X0348791Y0088326D01*
X0349275Y0089293D02*
X0350243Y0089293D01*
X0350726Y0088810D01*
X0350726Y0088326D01*
X0349275Y0089293D02*
X0348791Y0089777D01*
X0348791Y0090261D01*
X0349275Y0090745D01*
X0350243Y0090745D01*
X0350726Y0090261D01*
X0372364Y0088326D02*
X0372847Y0087842D01*
X0373815Y0087842D01*
X0374299Y0088326D01*
X0323248Y0059384D02*
X0320346Y0059384D01*
X0320346Y0058417D02*
X0320346Y0060352D01*
X0320346Y0057405D02*
X0323248Y0057405D01*
X0323248Y0055470D02*
X0320346Y0055470D01*
X0321313Y0056438D01*
X0320346Y0057405D01*
X0320829Y0054459D02*
X0320346Y0053975D01*
X0320346Y0053007D01*
X0320829Y0052524D01*
X0321313Y0052524D01*
X0321797Y0053007D01*
X0321797Y0053975D01*
X0322281Y0054459D01*
X0322764Y0054459D01*
X0323248Y0053975D01*
X0323248Y0053007D01*
X0322764Y0052524D01*
X0321797Y0051512D02*
X0321797Y0049577D01*
X0321797Y0048566D02*
X0321797Y0046631D01*
X0320346Y0048082D01*
X0323248Y0048082D01*
X0323248Y0045619D02*
X0323248Y0043684D01*
X0321313Y0045619D01*
X0320829Y0045619D01*
X0320346Y0045135D01*
X0320346Y0044168D01*
X0320829Y0043684D01*
X0320346Y0042673D02*
X0320346Y0040738D01*
X0321797Y0040738D01*
X0321313Y0041705D01*
X0321313Y0042189D01*
X0321797Y0042673D01*
X0322764Y0042673D01*
X0323248Y0042189D01*
X0323248Y0041221D01*
X0322764Y0040738D01*
X0322764Y0039726D02*
X0323248Y0039242D01*
X0323248Y0038275D01*
X0322764Y0037791D01*
X0321797Y0038759D02*
X0321797Y0039242D01*
X0322281Y0039726D01*
X0322764Y0039726D01*
X0321797Y0039242D02*
X0321313Y0039726D01*
X0320829Y0039726D01*
X0320346Y0039242D01*
X0320346Y0038275D01*
X0320829Y0037791D01*
X0321797Y0036780D02*
X0321797Y0034845D01*
X0320346Y0033833D02*
X0320346Y0032866D01*
X0320346Y0033349D02*
X0322764Y0033349D01*
X0323248Y0032866D01*
X0323248Y0032382D01*
X0322764Y0031898D01*
X0322764Y0030887D02*
X0323248Y0030403D01*
X0323248Y0029435D01*
X0322764Y0028952D01*
X0321797Y0029435D02*
X0321797Y0030403D01*
X0322281Y0030887D01*
X0322764Y0030887D01*
X0321797Y0029435D02*
X0321313Y0028952D01*
X0320829Y0028952D01*
X0320346Y0029435D01*
X0320346Y0030403D01*
X0320829Y0030887D01*
X0273248Y0030403D02*
X0273248Y0029435D01*
X0272764Y0028952D01*
X0271797Y0029435D02*
X0271797Y0030403D01*
X0272281Y0030887D01*
X0272764Y0030887D01*
X0273248Y0030403D01*
X0272764Y0031898D02*
X0273248Y0032382D01*
X0273248Y0032866D01*
X0272764Y0033349D01*
X0270346Y0033349D01*
X0270346Y0032866D02*
X0270346Y0033833D01*
X0271797Y0034845D02*
X0271797Y0036780D01*
X0272764Y0037791D02*
X0273248Y0038275D01*
X0273248Y0039242D01*
X0272764Y0039726D01*
X0272281Y0039726D01*
X0271797Y0039242D01*
X0271797Y0038759D01*
X0271797Y0039242D02*
X0271313Y0039726D01*
X0270829Y0039726D01*
X0270346Y0039242D01*
X0270346Y0038275D01*
X0270829Y0037791D01*
X0270346Y0040738D02*
X0271797Y0040738D01*
X0271313Y0041705D01*
X0271313Y0042189D01*
X0271797Y0042673D01*
X0272764Y0042673D01*
X0273248Y0042189D01*
X0273248Y0041221D01*
X0272764Y0040738D01*
X0270346Y0040738D02*
X0270346Y0042673D01*
X0270829Y0043684D02*
X0270346Y0044168D01*
X0270346Y0045135D01*
X0270829Y0045619D01*
X0271313Y0045619D01*
X0273248Y0043684D01*
X0273248Y0045619D01*
X0271797Y0046631D02*
X0271797Y0048566D01*
X0271797Y0049577D02*
X0271797Y0051512D01*
X0271313Y0052524D02*
X0271797Y0053007D01*
X0271797Y0053975D01*
X0272281Y0054459D01*
X0272764Y0054459D01*
X0273248Y0053975D01*
X0273248Y0053007D01*
X0272764Y0052524D01*
X0271313Y0052524D02*
X0270829Y0052524D01*
X0270346Y0053007D01*
X0270346Y0053975D01*
X0270829Y0054459D01*
X0270346Y0055470D02*
X0271313Y0056438D01*
X0270346Y0057405D01*
X0273248Y0057405D01*
X0273248Y0055470D02*
X0270346Y0055470D01*
X0270346Y0058417D02*
X0270346Y0060352D01*
X0270346Y0059384D02*
X0273248Y0059384D01*
X0273248Y0048082D02*
X0270346Y0048082D01*
X0271797Y0046631D01*
X0270829Y0030887D02*
X0270346Y0030403D01*
X0270346Y0029435D01*
X0270829Y0028952D01*
X0271313Y0028952D01*
X0271797Y0029435D01*
X0202855Y0029632D02*
X0202371Y0029148D01*
X0202855Y0029632D02*
X0202855Y0030600D01*
X0202371Y0031083D01*
X0201887Y0031083D01*
X0201403Y0030600D01*
X0201403Y0029632D01*
X0200920Y0029148D01*
X0200436Y0029148D01*
X0199952Y0029632D01*
X0199952Y0030600D01*
X0200436Y0031083D01*
X0202371Y0032095D02*
X0202855Y0032579D01*
X0202855Y0033062D01*
X0202371Y0033546D01*
X0199952Y0033546D01*
X0199952Y0033062D02*
X0199952Y0034030D01*
X0201403Y0035041D02*
X0201403Y0036976D01*
X0200436Y0037988D02*
X0199952Y0038472D01*
X0199952Y0039439D01*
X0200436Y0039923D01*
X0200920Y0039923D01*
X0201403Y0039439D01*
X0201887Y0039923D01*
X0202371Y0039923D01*
X0202855Y0039439D01*
X0202855Y0038472D01*
X0202371Y0037988D01*
X0201403Y0038955D02*
X0201403Y0039439D01*
X0201403Y0040934D02*
X0200920Y0041902D01*
X0200920Y0042386D01*
X0201403Y0042869D01*
X0202371Y0042869D01*
X0202855Y0042386D01*
X0202855Y0041418D01*
X0202371Y0040934D01*
X0201403Y0040934D02*
X0199952Y0040934D01*
X0199952Y0042869D01*
X0200436Y0043881D02*
X0199952Y0044365D01*
X0199952Y0045332D01*
X0200436Y0045816D01*
X0200920Y0045816D01*
X0202855Y0043881D01*
X0202855Y0045816D01*
X0201403Y0046828D02*
X0201403Y0048763D01*
X0201403Y0049774D02*
X0201403Y0051709D01*
X0200920Y0052721D02*
X0201403Y0053204D01*
X0201403Y0054172D01*
X0201887Y0054656D01*
X0202371Y0054656D01*
X0202855Y0054172D01*
X0202855Y0053204D01*
X0202371Y0052721D01*
X0200920Y0052721D02*
X0200436Y0052721D01*
X0199952Y0053204D01*
X0199952Y0054172D01*
X0200436Y0054656D01*
X0199952Y0055667D02*
X0200920Y0056635D01*
X0199952Y0057602D01*
X0202855Y0057602D01*
X0202855Y0055667D02*
X0199952Y0055667D01*
X0199952Y0058614D02*
X0199952Y0060549D01*
X0199952Y0059581D02*
X0202855Y0059581D01*
X0202855Y0048279D02*
X0199952Y0048279D01*
X0201403Y0046828D01*
X0152855Y0045816D02*
X0152855Y0043881D01*
X0150920Y0045816D01*
X0150436Y0045816D01*
X0149952Y0045332D01*
X0149952Y0044365D01*
X0150436Y0043881D01*
X0149952Y0042869D02*
X0149952Y0040934D01*
X0151403Y0040934D01*
X0150920Y0041902D01*
X0150920Y0042386D01*
X0151403Y0042869D01*
X0152371Y0042869D01*
X0152855Y0042386D01*
X0152855Y0041418D01*
X0152371Y0040934D01*
X0152371Y0039923D02*
X0152855Y0039439D01*
X0152855Y0038472D01*
X0152371Y0037988D01*
X0151403Y0038955D02*
X0151403Y0039439D01*
X0151887Y0039923D01*
X0152371Y0039923D01*
X0151403Y0039439D02*
X0150920Y0039923D01*
X0150436Y0039923D01*
X0149952Y0039439D01*
X0149952Y0038472D01*
X0150436Y0037988D01*
X0151403Y0036976D02*
X0151403Y0035041D01*
X0149952Y0034030D02*
X0149952Y0033062D01*
X0149952Y0033546D02*
X0152371Y0033546D01*
X0152855Y0033062D01*
X0152855Y0032579D01*
X0152371Y0032095D01*
X0152371Y0031083D02*
X0151887Y0031083D01*
X0151403Y0030600D01*
X0151403Y0029632D01*
X0150920Y0029148D01*
X0150436Y0029148D01*
X0149952Y0029632D01*
X0149952Y0030600D01*
X0150436Y0031083D01*
X0152371Y0031083D02*
X0152855Y0030600D01*
X0152855Y0029632D01*
X0152371Y0029148D01*
X0151403Y0046828D02*
X0151403Y0048763D01*
X0151403Y0049774D02*
X0151403Y0051709D01*
X0150920Y0052721D02*
X0151403Y0053204D01*
X0151403Y0054172D01*
X0151887Y0054656D01*
X0152371Y0054656D01*
X0152855Y0054172D01*
X0152855Y0053204D01*
X0152371Y0052721D01*
X0150920Y0052721D02*
X0150436Y0052721D01*
X0149952Y0053204D01*
X0149952Y0054172D01*
X0150436Y0054656D01*
X0149952Y0055667D02*
X0150920Y0056635D01*
X0149952Y0057602D01*
X0152855Y0057602D01*
X0152855Y0055667D02*
X0149952Y0055667D01*
X0149952Y0058614D02*
X0149952Y0060549D01*
X0149952Y0059581D02*
X0152855Y0059581D01*
X0152855Y0048279D02*
X0149952Y0048279D01*
X0151403Y0046828D01*
X0082596Y0046056D02*
X0082596Y0044121D01*
X0080661Y0046056D01*
X0080177Y0046056D01*
X0079694Y0045572D01*
X0079694Y0044605D01*
X0080177Y0044121D01*
X0079694Y0043110D02*
X0079694Y0041175D01*
X0081145Y0041175D01*
X0080661Y0042142D01*
X0080661Y0042626D01*
X0081145Y0043110D01*
X0082112Y0043110D01*
X0082596Y0042626D01*
X0082596Y0041658D01*
X0082112Y0041175D01*
X0082112Y0040163D02*
X0082596Y0039679D01*
X0082596Y0038712D01*
X0082112Y0038228D01*
X0081145Y0039196D02*
X0081145Y0039679D01*
X0081629Y0040163D01*
X0082112Y0040163D01*
X0081145Y0039679D02*
X0080661Y0040163D01*
X0080177Y0040163D01*
X0079694Y0039679D01*
X0079694Y0038712D01*
X0080177Y0038228D01*
X0081145Y0037217D02*
X0081145Y0035282D01*
X0079694Y0034270D02*
X0079694Y0033303D01*
X0079694Y0033786D02*
X0082112Y0033786D01*
X0082596Y0033303D01*
X0082596Y0032819D01*
X0082112Y0032335D01*
X0082112Y0031324D02*
X0082596Y0030840D01*
X0082596Y0029872D01*
X0082112Y0029389D01*
X0081145Y0029872D02*
X0080661Y0029389D01*
X0080177Y0029389D01*
X0079694Y0029872D01*
X0079694Y0030840D01*
X0080177Y0031324D01*
X0081145Y0030840D02*
X0081629Y0031324D01*
X0082112Y0031324D01*
X0081145Y0030840D02*
X0081145Y0029872D01*
X0081145Y0047068D02*
X0081145Y0049003D01*
X0081145Y0050014D02*
X0081145Y0051949D01*
X0080661Y0052961D02*
X0081145Y0053445D01*
X0081145Y0054412D01*
X0081629Y0054896D01*
X0082112Y0054896D01*
X0082596Y0054412D01*
X0082596Y0053445D01*
X0082112Y0052961D01*
X0080661Y0052961D02*
X0080177Y0052961D01*
X0079694Y0053445D01*
X0079694Y0054412D01*
X0080177Y0054896D01*
X0079694Y0055907D02*
X0080661Y0056875D01*
X0079694Y0057842D01*
X0082596Y0057842D01*
X0082596Y0055907D02*
X0079694Y0055907D01*
X0079694Y0058854D02*
X0079694Y0060789D01*
X0079694Y0059821D02*
X0082596Y0059821D01*
X0082596Y0048519D02*
X0079694Y0048519D01*
X0081145Y0047068D01*
X0032596Y0046056D02*
X0032596Y0044121D01*
X0030661Y0046056D01*
X0030177Y0046056D01*
X0029694Y0045572D01*
X0029694Y0044605D01*
X0030177Y0044121D01*
X0029694Y0043110D02*
X0029694Y0041175D01*
X0031145Y0041175D01*
X0030661Y0042142D01*
X0030661Y0042626D01*
X0031145Y0043110D01*
X0032112Y0043110D01*
X0032596Y0042626D01*
X0032596Y0041658D01*
X0032112Y0041175D01*
X0032112Y0040163D02*
X0032596Y0039679D01*
X0032596Y0038712D01*
X0032112Y0038228D01*
X0031145Y0039196D02*
X0031145Y0039679D01*
X0031629Y0040163D01*
X0032112Y0040163D01*
X0031145Y0039679D02*
X0030661Y0040163D01*
X0030177Y0040163D01*
X0029694Y0039679D01*
X0029694Y0038712D01*
X0030177Y0038228D01*
X0031145Y0037217D02*
X0031145Y0035282D01*
X0029694Y0034270D02*
X0029694Y0033303D01*
X0029694Y0033786D02*
X0032112Y0033786D01*
X0032596Y0033303D01*
X0032596Y0032819D01*
X0032112Y0032335D01*
X0032112Y0031324D02*
X0032596Y0030840D01*
X0032596Y0029872D01*
X0032112Y0029389D01*
X0031145Y0029872D02*
X0030661Y0029389D01*
X0030177Y0029389D01*
X0029694Y0029872D01*
X0029694Y0030840D01*
X0030177Y0031324D01*
X0031145Y0030840D02*
X0031629Y0031324D01*
X0032112Y0031324D01*
X0031145Y0030840D02*
X0031145Y0029872D01*
X0031145Y0047068D02*
X0031145Y0049003D01*
X0031145Y0050014D02*
X0031145Y0051949D01*
X0030661Y0052961D02*
X0031145Y0053445D01*
X0031145Y0054412D01*
X0031629Y0054896D01*
X0032112Y0054896D01*
X0032596Y0054412D01*
X0032596Y0053445D01*
X0032112Y0052961D01*
X0030661Y0052961D02*
X0030177Y0052961D01*
X0029694Y0053445D01*
X0029694Y0054412D01*
X0030177Y0054896D01*
X0029694Y0055907D02*
X0030661Y0056875D01*
X0029694Y0057842D01*
X0032596Y0057842D01*
X0032596Y0055907D02*
X0029694Y0055907D01*
X0029694Y0058854D02*
X0029694Y0060789D01*
X0029694Y0059821D02*
X0032596Y0059821D01*
X0032596Y0048519D02*
X0029694Y0048519D01*
X0031145Y0047068D01*
D15*
X0012396Y0045474D02*
X0012396Y0043272D01*
X0012396Y0044373D02*
X0009093Y0044373D01*
X0010194Y0043272D01*
X0009093Y0041791D02*
X0009093Y0040690D01*
X0009093Y0041240D02*
X0011846Y0041240D01*
X0012396Y0040690D01*
X0012396Y0040139D01*
X0011846Y0039589D01*
X0059093Y0040690D02*
X0059093Y0041791D01*
X0059093Y0041240D02*
X0061846Y0041240D01*
X0062396Y0040690D01*
X0062396Y0040139D01*
X0061846Y0039589D01*
X0062396Y0043272D02*
X0060194Y0045474D01*
X0059644Y0045474D01*
X0059093Y0044923D01*
X0059093Y0043822D01*
X0059644Y0043272D01*
X0062396Y0043272D02*
X0062396Y0045474D01*
X0129352Y0045233D02*
X0129352Y0043032D01*
X0131003Y0043032D01*
X0130453Y0044133D01*
X0130453Y0044683D01*
X0131003Y0045233D01*
X0132104Y0045233D01*
X0132655Y0044683D01*
X0132655Y0043582D01*
X0132104Y0043032D01*
X0132104Y0041000D02*
X0129352Y0041000D01*
X0129352Y0041550D02*
X0129352Y0040449D01*
X0132104Y0041000D02*
X0132655Y0040449D01*
X0132655Y0039899D01*
X0132104Y0039348D01*
X0179352Y0040449D02*
X0179352Y0041550D01*
X0179352Y0041000D02*
X0182104Y0041000D01*
X0182655Y0040449D01*
X0182655Y0039899D01*
X0182104Y0039348D01*
X0182104Y0043032D02*
X0181003Y0043032D01*
X0181003Y0044683D01*
X0181554Y0045233D01*
X0182104Y0045233D01*
X0182655Y0044683D01*
X0182655Y0043582D01*
X0182104Y0043032D01*
X0181003Y0043032D02*
X0179902Y0044133D01*
X0179352Y0045233D01*
X0249745Y0043936D02*
X0250846Y0042835D01*
X0249745Y0043936D02*
X0253048Y0043936D01*
X0253048Y0042835D02*
X0253048Y0045037D01*
X0253048Y0046518D02*
X0253048Y0048720D01*
X0253048Y0047619D02*
X0249745Y0047619D01*
X0250846Y0046518D01*
X0249745Y0041353D02*
X0249745Y0040253D01*
X0249745Y0040803D02*
X0252498Y0040803D01*
X0253048Y0040253D01*
X0253048Y0039702D01*
X0252498Y0039152D01*
X0299745Y0040253D02*
X0299745Y0041353D01*
X0299745Y0040803D02*
X0302498Y0040803D01*
X0303048Y0040253D01*
X0303048Y0039702D01*
X0302498Y0039152D01*
X0303048Y0042835D02*
X0303048Y0045037D01*
X0303048Y0043936D02*
X0299745Y0043936D01*
X0300846Y0042835D01*
X0300296Y0046518D02*
X0299745Y0047068D01*
X0299745Y0048169D01*
X0300296Y0048720D01*
X0300846Y0048720D01*
X0303048Y0046518D01*
X0303048Y0048720D01*
X0364037Y0067793D02*
X0364587Y0067242D01*
X0365138Y0067242D01*
X0365688Y0067793D01*
X0365688Y0070545D01*
X0365138Y0070545D02*
X0366239Y0070545D01*
X0367720Y0070545D02*
X0369922Y0070545D01*
X0369922Y0069995D01*
X0367720Y0067793D01*
X0367720Y0067242D01*
D16*
X0303634Y0027778D03*
X0283359Y0020494D03*
X0253634Y0027778D03*
X0212965Y0020691D03*
X0183241Y0027975D03*
X0162965Y0020691D03*
X0133241Y0027975D03*
X0092707Y0020932D03*
X0062982Y0028215D03*
X0042707Y0020932D03*
X0012982Y0028215D03*
X0333359Y0020494D03*
D17*
X0333359Y0057306D03*
X0315445Y0071676D03*
X0338179Y0082939D03*
X0352549Y0100853D03*
X0265445Y0071676D03*
X0283359Y0057306D03*
X0212965Y0057502D03*
X0195052Y0071872D03*
X0162965Y0057502D03*
X0145052Y0071872D03*
X0092707Y0057743D03*
X0074793Y0072113D03*
X0042707Y0057743D03*
X0024793Y0072113D03*
D18*
X0382077Y0071128D03*
X0389360Y0100853D03*
D19*
X0353083Y0110573D02*
X0353083Y0126321D01*
X0353083Y0110573D02*
X0308398Y0110573D01*
X0308398Y0125337D01*
X0293083Y0126321D02*
X0293083Y0110573D01*
X0248398Y0110573D01*
X0248398Y0125337D01*
X0232690Y0126518D02*
X0232690Y0110770D01*
X0188005Y0110770D01*
X0188005Y0125534D01*
X0172690Y0126518D02*
X0172690Y0110770D01*
X0128005Y0110770D01*
X0128005Y0125534D01*
X0112431Y0126758D02*
X0112431Y0111010D01*
X0067746Y0111010D01*
X0067746Y0125774D01*
X0052431Y0126758D02*
X0052431Y0111010D01*
X0007746Y0111010D01*
X0007746Y0125774D01*
X0001250Y0144475D02*
X0001258Y0145151D01*
X0001283Y0145827D01*
X0001325Y0146502D01*
X0001383Y0147176D01*
X0001457Y0147849D01*
X0001548Y0148519D01*
X0001656Y0149187D01*
X0001780Y0149851D01*
X0001920Y0150513D01*
X0002076Y0151171D01*
X0002248Y0151825D01*
X0002437Y0152475D01*
X0002641Y0153120D01*
X0002861Y0153759D01*
X0003097Y0154393D01*
X0003348Y0155021D01*
X0003614Y0155643D01*
X0003896Y0156258D01*
X0004193Y0156866D01*
X0004504Y0157466D01*
X0004830Y0158059D01*
X0005171Y0158643D01*
X0005526Y0159219D01*
X0005895Y0159786D01*
X0006277Y0160344D01*
X0006673Y0160892D01*
X0007083Y0161430D01*
X0007506Y0161958D01*
X0007941Y0162476D01*
X0008389Y0162982D01*
X0008849Y0163478D01*
X0009322Y0163962D01*
X0009806Y0164435D01*
X0010302Y0164895D01*
X0010808Y0165343D01*
X0011326Y0165778D01*
X0011854Y0166201D01*
X0012392Y0166611D01*
X0012940Y0167007D01*
X0013498Y0167389D01*
X0014065Y0167758D01*
X0014641Y0168113D01*
X0015225Y0168454D01*
X0015818Y0168780D01*
X0016418Y0169091D01*
X0017026Y0169388D01*
X0017641Y0169670D01*
X0018263Y0169936D01*
X0018891Y0170187D01*
X0019525Y0170423D01*
X0020164Y0170643D01*
X0020809Y0170847D01*
X0021459Y0171036D01*
X0022113Y0171208D01*
X0022771Y0171364D01*
X0023433Y0171504D01*
X0024097Y0171628D01*
X0024765Y0171736D01*
X0025435Y0171827D01*
X0026108Y0171901D01*
X0026782Y0171959D01*
X0027457Y0172001D01*
X0028133Y0172026D01*
X0028809Y0172034D01*
X0029485Y0172026D01*
X0030161Y0172001D01*
X0030836Y0171959D01*
X0031510Y0171901D01*
X0032183Y0171827D01*
X0032853Y0171736D01*
X0033521Y0171628D01*
X0034185Y0171504D01*
X0034847Y0171364D01*
X0035505Y0171208D01*
X0036159Y0171036D01*
X0036809Y0170847D01*
X0037454Y0170643D01*
X0038093Y0170423D01*
X0038727Y0170187D01*
X0039355Y0169936D01*
X0039977Y0169670D01*
X0040592Y0169388D01*
X0041200Y0169091D01*
X0041800Y0168780D01*
X0042393Y0168454D01*
X0042977Y0168113D01*
X0043553Y0167758D01*
X0044120Y0167389D01*
X0044678Y0167007D01*
X0045226Y0166611D01*
X0045764Y0166201D01*
X0046292Y0165778D01*
X0046810Y0165343D01*
X0047316Y0164895D01*
X0047812Y0164435D01*
X0048296Y0163962D01*
X0048769Y0163478D01*
X0049229Y0162982D01*
X0049677Y0162476D01*
X0050112Y0161958D01*
X0050535Y0161430D01*
X0050945Y0160892D01*
X0051341Y0160344D01*
X0051723Y0159786D01*
X0052092Y0159219D01*
X0052447Y0158643D01*
X0052788Y0158059D01*
X0053114Y0157466D01*
X0053425Y0156866D01*
X0053722Y0156258D01*
X0054004Y0155643D01*
X0054270Y0155021D01*
X0054521Y0154393D01*
X0054757Y0153759D01*
X0054977Y0153120D01*
X0055181Y0152475D01*
X0055370Y0151825D01*
X0055542Y0151171D01*
X0055698Y0150513D01*
X0055838Y0149851D01*
X0055962Y0149187D01*
X0056070Y0148519D01*
X0056161Y0147849D01*
X0056235Y0147176D01*
X0056293Y0146502D01*
X0056335Y0145827D01*
X0056360Y0145151D01*
X0056368Y0144475D01*
X0056360Y0143799D01*
X0056335Y0143123D01*
X0056293Y0142448D01*
X0056235Y0141774D01*
X0056161Y0141101D01*
X0056070Y0140431D01*
X0055962Y0139763D01*
X0055838Y0139099D01*
X0055698Y0138437D01*
X0055542Y0137779D01*
X0055370Y0137125D01*
X0055181Y0136475D01*
X0054977Y0135830D01*
X0054757Y0135191D01*
X0054521Y0134557D01*
X0054270Y0133929D01*
X0054004Y0133307D01*
X0053722Y0132692D01*
X0053425Y0132084D01*
X0053114Y0131484D01*
X0052788Y0130891D01*
X0052447Y0130307D01*
X0052092Y0129731D01*
X0051723Y0129164D01*
X0051341Y0128606D01*
X0050945Y0128058D01*
X0050535Y0127520D01*
X0050112Y0126992D01*
X0049677Y0126474D01*
X0049229Y0125968D01*
X0048769Y0125472D01*
X0048296Y0124988D01*
X0047812Y0124515D01*
X0047316Y0124055D01*
X0046810Y0123607D01*
X0046292Y0123172D01*
X0045764Y0122749D01*
X0045226Y0122339D01*
X0044678Y0121943D01*
X0044120Y0121561D01*
X0043553Y0121192D01*
X0042977Y0120837D01*
X0042393Y0120496D01*
X0041800Y0120170D01*
X0041200Y0119859D01*
X0040592Y0119562D01*
X0039977Y0119280D01*
X0039355Y0119014D01*
X0038727Y0118763D01*
X0038093Y0118527D01*
X0037454Y0118307D01*
X0036809Y0118103D01*
X0036159Y0117914D01*
X0035505Y0117742D01*
X0034847Y0117586D01*
X0034185Y0117446D01*
X0033521Y0117322D01*
X0032853Y0117214D01*
X0032183Y0117123D01*
X0031510Y0117049D01*
X0030836Y0116991D01*
X0030161Y0116949D01*
X0029485Y0116924D01*
X0028809Y0116916D01*
X0028133Y0116924D01*
X0027457Y0116949D01*
X0026782Y0116991D01*
X0026108Y0117049D01*
X0025435Y0117123D01*
X0024765Y0117214D01*
X0024097Y0117322D01*
X0023433Y0117446D01*
X0022771Y0117586D01*
X0022113Y0117742D01*
X0021459Y0117914D01*
X0020809Y0118103D01*
X0020164Y0118307D01*
X0019525Y0118527D01*
X0018891Y0118763D01*
X0018263Y0119014D01*
X0017641Y0119280D01*
X0017026Y0119562D01*
X0016418Y0119859D01*
X0015818Y0120170D01*
X0015225Y0120496D01*
X0014641Y0120837D01*
X0014065Y0121192D01*
X0013498Y0121561D01*
X0012940Y0121943D01*
X0012392Y0122339D01*
X0011854Y0122749D01*
X0011326Y0123172D01*
X0010808Y0123607D01*
X0010302Y0124055D01*
X0009806Y0124515D01*
X0009322Y0124988D01*
X0008849Y0125472D01*
X0008389Y0125968D01*
X0007941Y0126474D01*
X0007506Y0126992D01*
X0007083Y0127520D01*
X0006673Y0128058D01*
X0006277Y0128606D01*
X0005895Y0129164D01*
X0005526Y0129731D01*
X0005171Y0130307D01*
X0004830Y0130891D01*
X0004504Y0131484D01*
X0004193Y0132084D01*
X0003896Y0132692D01*
X0003614Y0133307D01*
X0003348Y0133929D01*
X0003097Y0134557D01*
X0002861Y0135191D01*
X0002641Y0135830D01*
X0002437Y0136475D01*
X0002248Y0137125D01*
X0002076Y0137779D01*
X0001920Y0138437D01*
X0001780Y0139099D01*
X0001656Y0139763D01*
X0001548Y0140431D01*
X0001457Y0141101D01*
X0001383Y0141774D01*
X0001325Y0142448D01*
X0001283Y0143123D01*
X0001258Y0143799D01*
X0001250Y0144475D01*
X0061250Y0144475D02*
X0061258Y0145151D01*
X0061283Y0145827D01*
X0061325Y0146502D01*
X0061383Y0147176D01*
X0061457Y0147849D01*
X0061548Y0148519D01*
X0061656Y0149187D01*
X0061780Y0149851D01*
X0061920Y0150513D01*
X0062076Y0151171D01*
X0062248Y0151825D01*
X0062437Y0152475D01*
X0062641Y0153120D01*
X0062861Y0153759D01*
X0063097Y0154393D01*
X0063348Y0155021D01*
X0063614Y0155643D01*
X0063896Y0156258D01*
X0064193Y0156866D01*
X0064504Y0157466D01*
X0064830Y0158059D01*
X0065171Y0158643D01*
X0065526Y0159219D01*
X0065895Y0159786D01*
X0066277Y0160344D01*
X0066673Y0160892D01*
X0067083Y0161430D01*
X0067506Y0161958D01*
X0067941Y0162476D01*
X0068389Y0162982D01*
X0068849Y0163478D01*
X0069322Y0163962D01*
X0069806Y0164435D01*
X0070302Y0164895D01*
X0070808Y0165343D01*
X0071326Y0165778D01*
X0071854Y0166201D01*
X0072392Y0166611D01*
X0072940Y0167007D01*
X0073498Y0167389D01*
X0074065Y0167758D01*
X0074641Y0168113D01*
X0075225Y0168454D01*
X0075818Y0168780D01*
X0076418Y0169091D01*
X0077026Y0169388D01*
X0077641Y0169670D01*
X0078263Y0169936D01*
X0078891Y0170187D01*
X0079525Y0170423D01*
X0080164Y0170643D01*
X0080809Y0170847D01*
X0081459Y0171036D01*
X0082113Y0171208D01*
X0082771Y0171364D01*
X0083433Y0171504D01*
X0084097Y0171628D01*
X0084765Y0171736D01*
X0085435Y0171827D01*
X0086108Y0171901D01*
X0086782Y0171959D01*
X0087457Y0172001D01*
X0088133Y0172026D01*
X0088809Y0172034D01*
X0089485Y0172026D01*
X0090161Y0172001D01*
X0090836Y0171959D01*
X0091510Y0171901D01*
X0092183Y0171827D01*
X0092853Y0171736D01*
X0093521Y0171628D01*
X0094185Y0171504D01*
X0094847Y0171364D01*
X0095505Y0171208D01*
X0096159Y0171036D01*
X0096809Y0170847D01*
X0097454Y0170643D01*
X0098093Y0170423D01*
X0098727Y0170187D01*
X0099355Y0169936D01*
X0099977Y0169670D01*
X0100592Y0169388D01*
X0101200Y0169091D01*
X0101800Y0168780D01*
X0102393Y0168454D01*
X0102977Y0168113D01*
X0103553Y0167758D01*
X0104120Y0167389D01*
X0104678Y0167007D01*
X0105226Y0166611D01*
X0105764Y0166201D01*
X0106292Y0165778D01*
X0106810Y0165343D01*
X0107316Y0164895D01*
X0107812Y0164435D01*
X0108296Y0163962D01*
X0108769Y0163478D01*
X0109229Y0162982D01*
X0109677Y0162476D01*
X0110112Y0161958D01*
X0110535Y0161430D01*
X0110945Y0160892D01*
X0111341Y0160344D01*
X0111723Y0159786D01*
X0112092Y0159219D01*
X0112447Y0158643D01*
X0112788Y0158059D01*
X0113114Y0157466D01*
X0113425Y0156866D01*
X0113722Y0156258D01*
X0114004Y0155643D01*
X0114270Y0155021D01*
X0114521Y0154393D01*
X0114757Y0153759D01*
X0114977Y0153120D01*
X0115181Y0152475D01*
X0115370Y0151825D01*
X0115542Y0151171D01*
X0115698Y0150513D01*
X0115838Y0149851D01*
X0115962Y0149187D01*
X0116070Y0148519D01*
X0116161Y0147849D01*
X0116235Y0147176D01*
X0116293Y0146502D01*
X0116335Y0145827D01*
X0116360Y0145151D01*
X0116368Y0144475D01*
X0116360Y0143799D01*
X0116335Y0143123D01*
X0116293Y0142448D01*
X0116235Y0141774D01*
X0116161Y0141101D01*
X0116070Y0140431D01*
X0115962Y0139763D01*
X0115838Y0139099D01*
X0115698Y0138437D01*
X0115542Y0137779D01*
X0115370Y0137125D01*
X0115181Y0136475D01*
X0114977Y0135830D01*
X0114757Y0135191D01*
X0114521Y0134557D01*
X0114270Y0133929D01*
X0114004Y0133307D01*
X0113722Y0132692D01*
X0113425Y0132084D01*
X0113114Y0131484D01*
X0112788Y0130891D01*
X0112447Y0130307D01*
X0112092Y0129731D01*
X0111723Y0129164D01*
X0111341Y0128606D01*
X0110945Y0128058D01*
X0110535Y0127520D01*
X0110112Y0126992D01*
X0109677Y0126474D01*
X0109229Y0125968D01*
X0108769Y0125472D01*
X0108296Y0124988D01*
X0107812Y0124515D01*
X0107316Y0124055D01*
X0106810Y0123607D01*
X0106292Y0123172D01*
X0105764Y0122749D01*
X0105226Y0122339D01*
X0104678Y0121943D01*
X0104120Y0121561D01*
X0103553Y0121192D01*
X0102977Y0120837D01*
X0102393Y0120496D01*
X0101800Y0120170D01*
X0101200Y0119859D01*
X0100592Y0119562D01*
X0099977Y0119280D01*
X0099355Y0119014D01*
X0098727Y0118763D01*
X0098093Y0118527D01*
X0097454Y0118307D01*
X0096809Y0118103D01*
X0096159Y0117914D01*
X0095505Y0117742D01*
X0094847Y0117586D01*
X0094185Y0117446D01*
X0093521Y0117322D01*
X0092853Y0117214D01*
X0092183Y0117123D01*
X0091510Y0117049D01*
X0090836Y0116991D01*
X0090161Y0116949D01*
X0089485Y0116924D01*
X0088809Y0116916D01*
X0088133Y0116924D01*
X0087457Y0116949D01*
X0086782Y0116991D01*
X0086108Y0117049D01*
X0085435Y0117123D01*
X0084765Y0117214D01*
X0084097Y0117322D01*
X0083433Y0117446D01*
X0082771Y0117586D01*
X0082113Y0117742D01*
X0081459Y0117914D01*
X0080809Y0118103D01*
X0080164Y0118307D01*
X0079525Y0118527D01*
X0078891Y0118763D01*
X0078263Y0119014D01*
X0077641Y0119280D01*
X0077026Y0119562D01*
X0076418Y0119859D01*
X0075818Y0120170D01*
X0075225Y0120496D01*
X0074641Y0120837D01*
X0074065Y0121192D01*
X0073498Y0121561D01*
X0072940Y0121943D01*
X0072392Y0122339D01*
X0071854Y0122749D01*
X0071326Y0123172D01*
X0070808Y0123607D01*
X0070302Y0124055D01*
X0069806Y0124515D01*
X0069322Y0124988D01*
X0068849Y0125472D01*
X0068389Y0125968D01*
X0067941Y0126474D01*
X0067506Y0126992D01*
X0067083Y0127520D01*
X0066673Y0128058D01*
X0066277Y0128606D01*
X0065895Y0129164D01*
X0065526Y0129731D01*
X0065171Y0130307D01*
X0064830Y0130891D01*
X0064504Y0131484D01*
X0064193Y0132084D01*
X0063896Y0132692D01*
X0063614Y0133307D01*
X0063348Y0133929D01*
X0063097Y0134557D01*
X0062861Y0135191D01*
X0062641Y0135830D01*
X0062437Y0136475D01*
X0062248Y0137125D01*
X0062076Y0137779D01*
X0061920Y0138437D01*
X0061780Y0139099D01*
X0061656Y0139763D01*
X0061548Y0140431D01*
X0061457Y0141101D01*
X0061383Y0141774D01*
X0061325Y0142448D01*
X0061283Y0143123D01*
X0061258Y0143799D01*
X0061250Y0144475D01*
X0121509Y0144235D02*
X0121517Y0144911D01*
X0121542Y0145587D01*
X0121584Y0146262D01*
X0121642Y0146936D01*
X0121716Y0147609D01*
X0121807Y0148279D01*
X0121915Y0148947D01*
X0122039Y0149611D01*
X0122179Y0150273D01*
X0122335Y0150931D01*
X0122507Y0151585D01*
X0122696Y0152235D01*
X0122900Y0152880D01*
X0123120Y0153519D01*
X0123356Y0154153D01*
X0123607Y0154781D01*
X0123873Y0155403D01*
X0124155Y0156018D01*
X0124452Y0156626D01*
X0124763Y0157226D01*
X0125089Y0157819D01*
X0125430Y0158403D01*
X0125785Y0158979D01*
X0126154Y0159546D01*
X0126536Y0160104D01*
X0126932Y0160652D01*
X0127342Y0161190D01*
X0127765Y0161718D01*
X0128200Y0162236D01*
X0128648Y0162742D01*
X0129108Y0163238D01*
X0129581Y0163722D01*
X0130065Y0164195D01*
X0130561Y0164655D01*
X0131067Y0165103D01*
X0131585Y0165538D01*
X0132113Y0165961D01*
X0132651Y0166371D01*
X0133199Y0166767D01*
X0133757Y0167149D01*
X0134324Y0167518D01*
X0134900Y0167873D01*
X0135484Y0168214D01*
X0136077Y0168540D01*
X0136677Y0168851D01*
X0137285Y0169148D01*
X0137900Y0169430D01*
X0138522Y0169696D01*
X0139150Y0169947D01*
X0139784Y0170183D01*
X0140423Y0170403D01*
X0141068Y0170607D01*
X0141718Y0170796D01*
X0142372Y0170968D01*
X0143030Y0171124D01*
X0143692Y0171264D01*
X0144356Y0171388D01*
X0145024Y0171496D01*
X0145694Y0171587D01*
X0146367Y0171661D01*
X0147041Y0171719D01*
X0147716Y0171761D01*
X0148392Y0171786D01*
X0149068Y0171794D01*
X0149744Y0171786D01*
X0150420Y0171761D01*
X0151095Y0171719D01*
X0151769Y0171661D01*
X0152442Y0171587D01*
X0153112Y0171496D01*
X0153780Y0171388D01*
X0154444Y0171264D01*
X0155106Y0171124D01*
X0155764Y0170968D01*
X0156418Y0170796D01*
X0157068Y0170607D01*
X0157713Y0170403D01*
X0158352Y0170183D01*
X0158986Y0169947D01*
X0159614Y0169696D01*
X0160236Y0169430D01*
X0160851Y0169148D01*
X0161459Y0168851D01*
X0162059Y0168540D01*
X0162652Y0168214D01*
X0163236Y0167873D01*
X0163812Y0167518D01*
X0164379Y0167149D01*
X0164937Y0166767D01*
X0165485Y0166371D01*
X0166023Y0165961D01*
X0166551Y0165538D01*
X0167069Y0165103D01*
X0167575Y0164655D01*
X0168071Y0164195D01*
X0168555Y0163722D01*
X0169028Y0163238D01*
X0169488Y0162742D01*
X0169936Y0162236D01*
X0170371Y0161718D01*
X0170794Y0161190D01*
X0171204Y0160652D01*
X0171600Y0160104D01*
X0171982Y0159546D01*
X0172351Y0158979D01*
X0172706Y0158403D01*
X0173047Y0157819D01*
X0173373Y0157226D01*
X0173684Y0156626D01*
X0173981Y0156018D01*
X0174263Y0155403D01*
X0174529Y0154781D01*
X0174780Y0154153D01*
X0175016Y0153519D01*
X0175236Y0152880D01*
X0175440Y0152235D01*
X0175629Y0151585D01*
X0175801Y0150931D01*
X0175957Y0150273D01*
X0176097Y0149611D01*
X0176221Y0148947D01*
X0176329Y0148279D01*
X0176420Y0147609D01*
X0176494Y0146936D01*
X0176552Y0146262D01*
X0176594Y0145587D01*
X0176619Y0144911D01*
X0176627Y0144235D01*
X0176619Y0143559D01*
X0176594Y0142883D01*
X0176552Y0142208D01*
X0176494Y0141534D01*
X0176420Y0140861D01*
X0176329Y0140191D01*
X0176221Y0139523D01*
X0176097Y0138859D01*
X0175957Y0138197D01*
X0175801Y0137539D01*
X0175629Y0136885D01*
X0175440Y0136235D01*
X0175236Y0135590D01*
X0175016Y0134951D01*
X0174780Y0134317D01*
X0174529Y0133689D01*
X0174263Y0133067D01*
X0173981Y0132452D01*
X0173684Y0131844D01*
X0173373Y0131244D01*
X0173047Y0130651D01*
X0172706Y0130067D01*
X0172351Y0129491D01*
X0171982Y0128924D01*
X0171600Y0128366D01*
X0171204Y0127818D01*
X0170794Y0127280D01*
X0170371Y0126752D01*
X0169936Y0126234D01*
X0169488Y0125728D01*
X0169028Y0125232D01*
X0168555Y0124748D01*
X0168071Y0124275D01*
X0167575Y0123815D01*
X0167069Y0123367D01*
X0166551Y0122932D01*
X0166023Y0122509D01*
X0165485Y0122099D01*
X0164937Y0121703D01*
X0164379Y0121321D01*
X0163812Y0120952D01*
X0163236Y0120597D01*
X0162652Y0120256D01*
X0162059Y0119930D01*
X0161459Y0119619D01*
X0160851Y0119322D01*
X0160236Y0119040D01*
X0159614Y0118774D01*
X0158986Y0118523D01*
X0158352Y0118287D01*
X0157713Y0118067D01*
X0157068Y0117863D01*
X0156418Y0117674D01*
X0155764Y0117502D01*
X0155106Y0117346D01*
X0154444Y0117206D01*
X0153780Y0117082D01*
X0153112Y0116974D01*
X0152442Y0116883D01*
X0151769Y0116809D01*
X0151095Y0116751D01*
X0150420Y0116709D01*
X0149744Y0116684D01*
X0149068Y0116676D01*
X0148392Y0116684D01*
X0147716Y0116709D01*
X0147041Y0116751D01*
X0146367Y0116809D01*
X0145694Y0116883D01*
X0145024Y0116974D01*
X0144356Y0117082D01*
X0143692Y0117206D01*
X0143030Y0117346D01*
X0142372Y0117502D01*
X0141718Y0117674D01*
X0141068Y0117863D01*
X0140423Y0118067D01*
X0139784Y0118287D01*
X0139150Y0118523D01*
X0138522Y0118774D01*
X0137900Y0119040D01*
X0137285Y0119322D01*
X0136677Y0119619D01*
X0136077Y0119930D01*
X0135484Y0120256D01*
X0134900Y0120597D01*
X0134324Y0120952D01*
X0133757Y0121321D01*
X0133199Y0121703D01*
X0132651Y0122099D01*
X0132113Y0122509D01*
X0131585Y0122932D01*
X0131067Y0123367D01*
X0130561Y0123815D01*
X0130065Y0124275D01*
X0129581Y0124748D01*
X0129108Y0125232D01*
X0128648Y0125728D01*
X0128200Y0126234D01*
X0127765Y0126752D01*
X0127342Y0127280D01*
X0126932Y0127818D01*
X0126536Y0128366D01*
X0126154Y0128924D01*
X0125785Y0129491D01*
X0125430Y0130067D01*
X0125089Y0130651D01*
X0124763Y0131244D01*
X0124452Y0131844D01*
X0124155Y0132452D01*
X0123873Y0133067D01*
X0123607Y0133689D01*
X0123356Y0134317D01*
X0123120Y0134951D01*
X0122900Y0135590D01*
X0122696Y0136235D01*
X0122507Y0136885D01*
X0122335Y0137539D01*
X0122179Y0138197D01*
X0122039Y0138859D01*
X0121915Y0139523D01*
X0121807Y0140191D01*
X0121716Y0140861D01*
X0121642Y0141534D01*
X0121584Y0142208D01*
X0121542Y0142883D01*
X0121517Y0143559D01*
X0121509Y0144235D01*
X0181509Y0144235D02*
X0181517Y0144911D01*
X0181542Y0145587D01*
X0181584Y0146262D01*
X0181642Y0146936D01*
X0181716Y0147609D01*
X0181807Y0148279D01*
X0181915Y0148947D01*
X0182039Y0149611D01*
X0182179Y0150273D01*
X0182335Y0150931D01*
X0182507Y0151585D01*
X0182696Y0152235D01*
X0182900Y0152880D01*
X0183120Y0153519D01*
X0183356Y0154153D01*
X0183607Y0154781D01*
X0183873Y0155403D01*
X0184155Y0156018D01*
X0184452Y0156626D01*
X0184763Y0157226D01*
X0185089Y0157819D01*
X0185430Y0158403D01*
X0185785Y0158979D01*
X0186154Y0159546D01*
X0186536Y0160104D01*
X0186932Y0160652D01*
X0187342Y0161190D01*
X0187765Y0161718D01*
X0188200Y0162236D01*
X0188648Y0162742D01*
X0189108Y0163238D01*
X0189581Y0163722D01*
X0190065Y0164195D01*
X0190561Y0164655D01*
X0191067Y0165103D01*
X0191585Y0165538D01*
X0192113Y0165961D01*
X0192651Y0166371D01*
X0193199Y0166767D01*
X0193757Y0167149D01*
X0194324Y0167518D01*
X0194900Y0167873D01*
X0195484Y0168214D01*
X0196077Y0168540D01*
X0196677Y0168851D01*
X0197285Y0169148D01*
X0197900Y0169430D01*
X0198522Y0169696D01*
X0199150Y0169947D01*
X0199784Y0170183D01*
X0200423Y0170403D01*
X0201068Y0170607D01*
X0201718Y0170796D01*
X0202372Y0170968D01*
X0203030Y0171124D01*
X0203692Y0171264D01*
X0204356Y0171388D01*
X0205024Y0171496D01*
X0205694Y0171587D01*
X0206367Y0171661D01*
X0207041Y0171719D01*
X0207716Y0171761D01*
X0208392Y0171786D01*
X0209068Y0171794D01*
X0209744Y0171786D01*
X0210420Y0171761D01*
X0211095Y0171719D01*
X0211769Y0171661D01*
X0212442Y0171587D01*
X0213112Y0171496D01*
X0213780Y0171388D01*
X0214444Y0171264D01*
X0215106Y0171124D01*
X0215764Y0170968D01*
X0216418Y0170796D01*
X0217068Y0170607D01*
X0217713Y0170403D01*
X0218352Y0170183D01*
X0218986Y0169947D01*
X0219614Y0169696D01*
X0220236Y0169430D01*
X0220851Y0169148D01*
X0221459Y0168851D01*
X0222059Y0168540D01*
X0222652Y0168214D01*
X0223236Y0167873D01*
X0223812Y0167518D01*
X0224379Y0167149D01*
X0224937Y0166767D01*
X0225485Y0166371D01*
X0226023Y0165961D01*
X0226551Y0165538D01*
X0227069Y0165103D01*
X0227575Y0164655D01*
X0228071Y0164195D01*
X0228555Y0163722D01*
X0229028Y0163238D01*
X0229488Y0162742D01*
X0229936Y0162236D01*
X0230371Y0161718D01*
X0230794Y0161190D01*
X0231204Y0160652D01*
X0231600Y0160104D01*
X0231982Y0159546D01*
X0232351Y0158979D01*
X0232706Y0158403D01*
X0233047Y0157819D01*
X0233373Y0157226D01*
X0233684Y0156626D01*
X0233981Y0156018D01*
X0234263Y0155403D01*
X0234529Y0154781D01*
X0234780Y0154153D01*
X0235016Y0153519D01*
X0235236Y0152880D01*
X0235440Y0152235D01*
X0235629Y0151585D01*
X0235801Y0150931D01*
X0235957Y0150273D01*
X0236097Y0149611D01*
X0236221Y0148947D01*
X0236329Y0148279D01*
X0236420Y0147609D01*
X0236494Y0146936D01*
X0236552Y0146262D01*
X0236594Y0145587D01*
X0236619Y0144911D01*
X0236627Y0144235D01*
X0236619Y0143559D01*
X0236594Y0142883D01*
X0236552Y0142208D01*
X0236494Y0141534D01*
X0236420Y0140861D01*
X0236329Y0140191D01*
X0236221Y0139523D01*
X0236097Y0138859D01*
X0235957Y0138197D01*
X0235801Y0137539D01*
X0235629Y0136885D01*
X0235440Y0136235D01*
X0235236Y0135590D01*
X0235016Y0134951D01*
X0234780Y0134317D01*
X0234529Y0133689D01*
X0234263Y0133067D01*
X0233981Y0132452D01*
X0233684Y0131844D01*
X0233373Y0131244D01*
X0233047Y0130651D01*
X0232706Y0130067D01*
X0232351Y0129491D01*
X0231982Y0128924D01*
X0231600Y0128366D01*
X0231204Y0127818D01*
X0230794Y0127280D01*
X0230371Y0126752D01*
X0229936Y0126234D01*
X0229488Y0125728D01*
X0229028Y0125232D01*
X0228555Y0124748D01*
X0228071Y0124275D01*
X0227575Y0123815D01*
X0227069Y0123367D01*
X0226551Y0122932D01*
X0226023Y0122509D01*
X0225485Y0122099D01*
X0224937Y0121703D01*
X0224379Y0121321D01*
X0223812Y0120952D01*
X0223236Y0120597D01*
X0222652Y0120256D01*
X0222059Y0119930D01*
X0221459Y0119619D01*
X0220851Y0119322D01*
X0220236Y0119040D01*
X0219614Y0118774D01*
X0218986Y0118523D01*
X0218352Y0118287D01*
X0217713Y0118067D01*
X0217068Y0117863D01*
X0216418Y0117674D01*
X0215764Y0117502D01*
X0215106Y0117346D01*
X0214444Y0117206D01*
X0213780Y0117082D01*
X0213112Y0116974D01*
X0212442Y0116883D01*
X0211769Y0116809D01*
X0211095Y0116751D01*
X0210420Y0116709D01*
X0209744Y0116684D01*
X0209068Y0116676D01*
X0208392Y0116684D01*
X0207716Y0116709D01*
X0207041Y0116751D01*
X0206367Y0116809D01*
X0205694Y0116883D01*
X0205024Y0116974D01*
X0204356Y0117082D01*
X0203692Y0117206D01*
X0203030Y0117346D01*
X0202372Y0117502D01*
X0201718Y0117674D01*
X0201068Y0117863D01*
X0200423Y0118067D01*
X0199784Y0118287D01*
X0199150Y0118523D01*
X0198522Y0118774D01*
X0197900Y0119040D01*
X0197285Y0119322D01*
X0196677Y0119619D01*
X0196077Y0119930D01*
X0195484Y0120256D01*
X0194900Y0120597D01*
X0194324Y0120952D01*
X0193757Y0121321D01*
X0193199Y0121703D01*
X0192651Y0122099D01*
X0192113Y0122509D01*
X0191585Y0122932D01*
X0191067Y0123367D01*
X0190561Y0123815D01*
X0190065Y0124275D01*
X0189581Y0124748D01*
X0189108Y0125232D01*
X0188648Y0125728D01*
X0188200Y0126234D01*
X0187765Y0126752D01*
X0187342Y0127280D01*
X0186932Y0127818D01*
X0186536Y0128366D01*
X0186154Y0128924D01*
X0185785Y0129491D01*
X0185430Y0130067D01*
X0185089Y0130651D01*
X0184763Y0131244D01*
X0184452Y0131844D01*
X0184155Y0132452D01*
X0183873Y0133067D01*
X0183607Y0133689D01*
X0183356Y0134317D01*
X0183120Y0134951D01*
X0182900Y0135590D01*
X0182696Y0136235D01*
X0182507Y0136885D01*
X0182335Y0137539D01*
X0182179Y0138197D01*
X0182039Y0138859D01*
X0181915Y0139523D01*
X0181807Y0140191D01*
X0181716Y0140861D01*
X0181642Y0141534D01*
X0181584Y0142208D01*
X0181542Y0142883D01*
X0181517Y0143559D01*
X0181509Y0144235D01*
X0241902Y0144038D02*
X0241910Y0144714D01*
X0241935Y0145390D01*
X0241977Y0146065D01*
X0242035Y0146739D01*
X0242109Y0147412D01*
X0242200Y0148082D01*
X0242308Y0148750D01*
X0242432Y0149414D01*
X0242572Y0150076D01*
X0242728Y0150734D01*
X0242900Y0151388D01*
X0243089Y0152038D01*
X0243293Y0152683D01*
X0243513Y0153322D01*
X0243749Y0153956D01*
X0244000Y0154584D01*
X0244266Y0155206D01*
X0244548Y0155821D01*
X0244845Y0156429D01*
X0245156Y0157029D01*
X0245482Y0157622D01*
X0245823Y0158206D01*
X0246178Y0158782D01*
X0246547Y0159349D01*
X0246929Y0159907D01*
X0247325Y0160455D01*
X0247735Y0160993D01*
X0248158Y0161521D01*
X0248593Y0162039D01*
X0249041Y0162545D01*
X0249501Y0163041D01*
X0249974Y0163525D01*
X0250458Y0163998D01*
X0250954Y0164458D01*
X0251460Y0164906D01*
X0251978Y0165341D01*
X0252506Y0165764D01*
X0253044Y0166174D01*
X0253592Y0166570D01*
X0254150Y0166952D01*
X0254717Y0167321D01*
X0255293Y0167676D01*
X0255877Y0168017D01*
X0256470Y0168343D01*
X0257070Y0168654D01*
X0257678Y0168951D01*
X0258293Y0169233D01*
X0258915Y0169499D01*
X0259543Y0169750D01*
X0260177Y0169986D01*
X0260816Y0170206D01*
X0261461Y0170410D01*
X0262111Y0170599D01*
X0262765Y0170771D01*
X0263423Y0170927D01*
X0264085Y0171067D01*
X0264749Y0171191D01*
X0265417Y0171299D01*
X0266087Y0171390D01*
X0266760Y0171464D01*
X0267434Y0171522D01*
X0268109Y0171564D01*
X0268785Y0171589D01*
X0269461Y0171597D01*
X0270137Y0171589D01*
X0270813Y0171564D01*
X0271488Y0171522D01*
X0272162Y0171464D01*
X0272835Y0171390D01*
X0273505Y0171299D01*
X0274173Y0171191D01*
X0274837Y0171067D01*
X0275499Y0170927D01*
X0276157Y0170771D01*
X0276811Y0170599D01*
X0277461Y0170410D01*
X0278106Y0170206D01*
X0278745Y0169986D01*
X0279379Y0169750D01*
X0280007Y0169499D01*
X0280629Y0169233D01*
X0281244Y0168951D01*
X0281852Y0168654D01*
X0282452Y0168343D01*
X0283045Y0168017D01*
X0283629Y0167676D01*
X0284205Y0167321D01*
X0284772Y0166952D01*
X0285330Y0166570D01*
X0285878Y0166174D01*
X0286416Y0165764D01*
X0286944Y0165341D01*
X0287462Y0164906D01*
X0287968Y0164458D01*
X0288464Y0163998D01*
X0288948Y0163525D01*
X0289421Y0163041D01*
X0289881Y0162545D01*
X0290329Y0162039D01*
X0290764Y0161521D01*
X0291187Y0160993D01*
X0291597Y0160455D01*
X0291993Y0159907D01*
X0292375Y0159349D01*
X0292744Y0158782D01*
X0293099Y0158206D01*
X0293440Y0157622D01*
X0293766Y0157029D01*
X0294077Y0156429D01*
X0294374Y0155821D01*
X0294656Y0155206D01*
X0294922Y0154584D01*
X0295173Y0153956D01*
X0295409Y0153322D01*
X0295629Y0152683D01*
X0295833Y0152038D01*
X0296022Y0151388D01*
X0296194Y0150734D01*
X0296350Y0150076D01*
X0296490Y0149414D01*
X0296614Y0148750D01*
X0296722Y0148082D01*
X0296813Y0147412D01*
X0296887Y0146739D01*
X0296945Y0146065D01*
X0296987Y0145390D01*
X0297012Y0144714D01*
X0297020Y0144038D01*
X0297012Y0143362D01*
X0296987Y0142686D01*
X0296945Y0142011D01*
X0296887Y0141337D01*
X0296813Y0140664D01*
X0296722Y0139994D01*
X0296614Y0139326D01*
X0296490Y0138662D01*
X0296350Y0138000D01*
X0296194Y0137342D01*
X0296022Y0136688D01*
X0295833Y0136038D01*
X0295629Y0135393D01*
X0295409Y0134754D01*
X0295173Y0134120D01*
X0294922Y0133492D01*
X0294656Y0132870D01*
X0294374Y0132255D01*
X0294077Y0131647D01*
X0293766Y0131047D01*
X0293440Y0130454D01*
X0293099Y0129870D01*
X0292744Y0129294D01*
X0292375Y0128727D01*
X0291993Y0128169D01*
X0291597Y0127621D01*
X0291187Y0127083D01*
X0290764Y0126555D01*
X0290329Y0126037D01*
X0289881Y0125531D01*
X0289421Y0125035D01*
X0288948Y0124551D01*
X0288464Y0124078D01*
X0287968Y0123618D01*
X0287462Y0123170D01*
X0286944Y0122735D01*
X0286416Y0122312D01*
X0285878Y0121902D01*
X0285330Y0121506D01*
X0284772Y0121124D01*
X0284205Y0120755D01*
X0283629Y0120400D01*
X0283045Y0120059D01*
X0282452Y0119733D01*
X0281852Y0119422D01*
X0281244Y0119125D01*
X0280629Y0118843D01*
X0280007Y0118577D01*
X0279379Y0118326D01*
X0278745Y0118090D01*
X0278106Y0117870D01*
X0277461Y0117666D01*
X0276811Y0117477D01*
X0276157Y0117305D01*
X0275499Y0117149D01*
X0274837Y0117009D01*
X0274173Y0116885D01*
X0273505Y0116777D01*
X0272835Y0116686D01*
X0272162Y0116612D01*
X0271488Y0116554D01*
X0270813Y0116512D01*
X0270137Y0116487D01*
X0269461Y0116479D01*
X0268785Y0116487D01*
X0268109Y0116512D01*
X0267434Y0116554D01*
X0266760Y0116612D01*
X0266087Y0116686D01*
X0265417Y0116777D01*
X0264749Y0116885D01*
X0264085Y0117009D01*
X0263423Y0117149D01*
X0262765Y0117305D01*
X0262111Y0117477D01*
X0261461Y0117666D01*
X0260816Y0117870D01*
X0260177Y0118090D01*
X0259543Y0118326D01*
X0258915Y0118577D01*
X0258293Y0118843D01*
X0257678Y0119125D01*
X0257070Y0119422D01*
X0256470Y0119733D01*
X0255877Y0120059D01*
X0255293Y0120400D01*
X0254717Y0120755D01*
X0254150Y0121124D01*
X0253592Y0121506D01*
X0253044Y0121902D01*
X0252506Y0122312D01*
X0251978Y0122735D01*
X0251460Y0123170D01*
X0250954Y0123618D01*
X0250458Y0124078D01*
X0249974Y0124551D01*
X0249501Y0125035D01*
X0249041Y0125531D01*
X0248593Y0126037D01*
X0248158Y0126555D01*
X0247735Y0127083D01*
X0247325Y0127621D01*
X0246929Y0128169D01*
X0246547Y0128727D01*
X0246178Y0129294D01*
X0245823Y0129870D01*
X0245482Y0130454D01*
X0245156Y0131047D01*
X0244845Y0131647D01*
X0244548Y0132255D01*
X0244266Y0132870D01*
X0244000Y0133492D01*
X0243749Y0134120D01*
X0243513Y0134754D01*
X0243293Y0135393D01*
X0243089Y0136038D01*
X0242900Y0136688D01*
X0242728Y0137342D01*
X0242572Y0138000D01*
X0242432Y0138662D01*
X0242308Y0139326D01*
X0242200Y0139994D01*
X0242109Y0140664D01*
X0242035Y0141337D01*
X0241977Y0142011D01*
X0241935Y0142686D01*
X0241910Y0143362D01*
X0241902Y0144038D01*
X0301902Y0144038D02*
X0301910Y0144714D01*
X0301935Y0145390D01*
X0301977Y0146065D01*
X0302035Y0146739D01*
X0302109Y0147412D01*
X0302200Y0148082D01*
X0302308Y0148750D01*
X0302432Y0149414D01*
X0302572Y0150076D01*
X0302728Y0150734D01*
X0302900Y0151388D01*
X0303089Y0152038D01*
X0303293Y0152683D01*
X0303513Y0153322D01*
X0303749Y0153956D01*
X0304000Y0154584D01*
X0304266Y0155206D01*
X0304548Y0155821D01*
X0304845Y0156429D01*
X0305156Y0157029D01*
X0305482Y0157622D01*
X0305823Y0158206D01*
X0306178Y0158782D01*
X0306547Y0159349D01*
X0306929Y0159907D01*
X0307325Y0160455D01*
X0307735Y0160993D01*
X0308158Y0161521D01*
X0308593Y0162039D01*
X0309041Y0162545D01*
X0309501Y0163041D01*
X0309974Y0163525D01*
X0310458Y0163998D01*
X0310954Y0164458D01*
X0311460Y0164906D01*
X0311978Y0165341D01*
X0312506Y0165764D01*
X0313044Y0166174D01*
X0313592Y0166570D01*
X0314150Y0166952D01*
X0314717Y0167321D01*
X0315293Y0167676D01*
X0315877Y0168017D01*
X0316470Y0168343D01*
X0317070Y0168654D01*
X0317678Y0168951D01*
X0318293Y0169233D01*
X0318915Y0169499D01*
X0319543Y0169750D01*
X0320177Y0169986D01*
X0320816Y0170206D01*
X0321461Y0170410D01*
X0322111Y0170599D01*
X0322765Y0170771D01*
X0323423Y0170927D01*
X0324085Y0171067D01*
X0324749Y0171191D01*
X0325417Y0171299D01*
X0326087Y0171390D01*
X0326760Y0171464D01*
X0327434Y0171522D01*
X0328109Y0171564D01*
X0328785Y0171589D01*
X0329461Y0171597D01*
X0330137Y0171589D01*
X0330813Y0171564D01*
X0331488Y0171522D01*
X0332162Y0171464D01*
X0332835Y0171390D01*
X0333505Y0171299D01*
X0334173Y0171191D01*
X0334837Y0171067D01*
X0335499Y0170927D01*
X0336157Y0170771D01*
X0336811Y0170599D01*
X0337461Y0170410D01*
X0338106Y0170206D01*
X0338745Y0169986D01*
X0339379Y0169750D01*
X0340007Y0169499D01*
X0340629Y0169233D01*
X0341244Y0168951D01*
X0341852Y0168654D01*
X0342452Y0168343D01*
X0343045Y0168017D01*
X0343629Y0167676D01*
X0344205Y0167321D01*
X0344772Y0166952D01*
X0345330Y0166570D01*
X0345878Y0166174D01*
X0346416Y0165764D01*
X0346944Y0165341D01*
X0347462Y0164906D01*
X0347968Y0164458D01*
X0348464Y0163998D01*
X0348948Y0163525D01*
X0349421Y0163041D01*
X0349881Y0162545D01*
X0350329Y0162039D01*
X0350764Y0161521D01*
X0351187Y0160993D01*
X0351597Y0160455D01*
X0351993Y0159907D01*
X0352375Y0159349D01*
X0352744Y0158782D01*
X0353099Y0158206D01*
X0353440Y0157622D01*
X0353766Y0157029D01*
X0354077Y0156429D01*
X0354374Y0155821D01*
X0354656Y0155206D01*
X0354922Y0154584D01*
X0355173Y0153956D01*
X0355409Y0153322D01*
X0355629Y0152683D01*
X0355833Y0152038D01*
X0356022Y0151388D01*
X0356194Y0150734D01*
X0356350Y0150076D01*
X0356490Y0149414D01*
X0356614Y0148750D01*
X0356722Y0148082D01*
X0356813Y0147412D01*
X0356887Y0146739D01*
X0356945Y0146065D01*
X0356987Y0145390D01*
X0357012Y0144714D01*
X0357020Y0144038D01*
X0357012Y0143362D01*
X0356987Y0142686D01*
X0356945Y0142011D01*
X0356887Y0141337D01*
X0356813Y0140664D01*
X0356722Y0139994D01*
X0356614Y0139326D01*
X0356490Y0138662D01*
X0356350Y0138000D01*
X0356194Y0137342D01*
X0356022Y0136688D01*
X0355833Y0136038D01*
X0355629Y0135393D01*
X0355409Y0134754D01*
X0355173Y0134120D01*
X0354922Y0133492D01*
X0354656Y0132870D01*
X0354374Y0132255D01*
X0354077Y0131647D01*
X0353766Y0131047D01*
X0353440Y0130454D01*
X0353099Y0129870D01*
X0352744Y0129294D01*
X0352375Y0128727D01*
X0351993Y0128169D01*
X0351597Y0127621D01*
X0351187Y0127083D01*
X0350764Y0126555D01*
X0350329Y0126037D01*
X0349881Y0125531D01*
X0349421Y0125035D01*
X0348948Y0124551D01*
X0348464Y0124078D01*
X0347968Y0123618D01*
X0347462Y0123170D01*
X0346944Y0122735D01*
X0346416Y0122312D01*
X0345878Y0121902D01*
X0345330Y0121506D01*
X0344772Y0121124D01*
X0344205Y0120755D01*
X0343629Y0120400D01*
X0343045Y0120059D01*
X0342452Y0119733D01*
X0341852Y0119422D01*
X0341244Y0119125D01*
X0340629Y0118843D01*
X0340007Y0118577D01*
X0339379Y0118326D01*
X0338745Y0118090D01*
X0338106Y0117870D01*
X0337461Y0117666D01*
X0336811Y0117477D01*
X0336157Y0117305D01*
X0335499Y0117149D01*
X0334837Y0117009D01*
X0334173Y0116885D01*
X0333505Y0116777D01*
X0332835Y0116686D01*
X0332162Y0116612D01*
X0331488Y0116554D01*
X0330813Y0116512D01*
X0330137Y0116487D01*
X0329461Y0116479D01*
X0328785Y0116487D01*
X0328109Y0116512D01*
X0327434Y0116554D01*
X0326760Y0116612D01*
X0326087Y0116686D01*
X0325417Y0116777D01*
X0324749Y0116885D01*
X0324085Y0117009D01*
X0323423Y0117149D01*
X0322765Y0117305D01*
X0322111Y0117477D01*
X0321461Y0117666D01*
X0320816Y0117870D01*
X0320177Y0118090D01*
X0319543Y0118326D01*
X0318915Y0118577D01*
X0318293Y0118843D01*
X0317678Y0119125D01*
X0317070Y0119422D01*
X0316470Y0119733D01*
X0315877Y0120059D01*
X0315293Y0120400D01*
X0314717Y0120755D01*
X0314150Y0121124D01*
X0313592Y0121506D01*
X0313044Y0121902D01*
X0312506Y0122312D01*
X0311978Y0122735D01*
X0311460Y0123170D01*
X0310954Y0123618D01*
X0310458Y0124078D01*
X0309974Y0124551D01*
X0309501Y0125035D01*
X0309041Y0125531D01*
X0308593Y0126037D01*
X0308158Y0126555D01*
X0307735Y0127083D01*
X0307325Y0127621D01*
X0306929Y0128169D01*
X0306547Y0128727D01*
X0306178Y0129294D01*
X0305823Y0129870D01*
X0305482Y0130454D01*
X0305156Y0131047D01*
X0304845Y0131647D01*
X0304548Y0132255D01*
X0304266Y0132870D01*
X0304000Y0133492D01*
X0303749Y0134120D01*
X0303513Y0134754D01*
X0303293Y0135393D01*
X0303089Y0136038D01*
X0302900Y0136688D01*
X0302728Y0137342D01*
X0302572Y0138000D01*
X0302432Y0138662D01*
X0302308Y0139326D01*
X0302200Y0139994D01*
X0302109Y0140664D01*
X0302035Y0141337D01*
X0301977Y0142011D01*
X0301935Y0142686D01*
X0301910Y0143362D01*
X0301902Y0144038D01*
X0374444Y0145431D02*
X0374444Y0146932D01*
X0374444Y0146182D02*
X0378197Y0146182D01*
X0378948Y0145431D01*
X0378948Y0144680D01*
X0378197Y0143930D01*
X0377447Y0148534D02*
X0377447Y0150785D01*
X0376696Y0151536D01*
X0375195Y0151536D01*
X0374444Y0150785D01*
X0374444Y0148534D01*
X0378948Y0148534D01*
X0378948Y0153137D02*
X0378948Y0156140D01*
X0378948Y0154639D02*
X0374444Y0154639D01*
X0375945Y0153137D01*
X0391690Y0122813D02*
X0392324Y0122813D01*
X0392007Y0122813D02*
X0392007Y0121228D01*
X0391690Y0120911D01*
X0391374Y0120911D01*
X0391057Y0121228D01*
X0393266Y0121228D02*
X0393266Y0121545D01*
X0393583Y0121862D01*
X0394217Y0121862D01*
X0394534Y0121545D01*
X0394534Y0121228D01*
X0394217Y0120911D01*
X0393583Y0120911D01*
X0393266Y0121228D01*
X0393583Y0121862D02*
X0393266Y0122179D01*
X0393266Y0122496D01*
X0393583Y0122813D01*
X0394217Y0122813D01*
X0394534Y0122496D01*
X0394534Y0122179D01*
X0394217Y0121862D01*
X0359872Y0057270D02*
X0345108Y0057270D01*
X0345108Y0012585D01*
X0360856Y0012585D01*
X0351014Y0036207D02*
X0351022Y0036883D01*
X0351047Y0037559D01*
X0351089Y0038234D01*
X0351147Y0038908D01*
X0351221Y0039581D01*
X0351312Y0040251D01*
X0351420Y0040919D01*
X0351544Y0041583D01*
X0351684Y0042245D01*
X0351840Y0042903D01*
X0352012Y0043557D01*
X0352201Y0044207D01*
X0352405Y0044852D01*
X0352625Y0045491D01*
X0352861Y0046125D01*
X0353112Y0046753D01*
X0353378Y0047375D01*
X0353660Y0047990D01*
X0353957Y0048598D01*
X0354268Y0049198D01*
X0354594Y0049791D01*
X0354935Y0050375D01*
X0355290Y0050951D01*
X0355659Y0051518D01*
X0356041Y0052076D01*
X0356437Y0052624D01*
X0356847Y0053162D01*
X0357270Y0053690D01*
X0357705Y0054208D01*
X0358153Y0054714D01*
X0358613Y0055210D01*
X0359086Y0055694D01*
X0359570Y0056167D01*
X0360066Y0056627D01*
X0360572Y0057075D01*
X0361090Y0057510D01*
X0361618Y0057933D01*
X0362156Y0058343D01*
X0362704Y0058739D01*
X0363262Y0059121D01*
X0363829Y0059490D01*
X0364405Y0059845D01*
X0364989Y0060186D01*
X0365582Y0060512D01*
X0366182Y0060823D01*
X0366790Y0061120D01*
X0367405Y0061402D01*
X0368027Y0061668D01*
X0368655Y0061919D01*
X0369289Y0062155D01*
X0369928Y0062375D01*
X0370573Y0062579D01*
X0371223Y0062768D01*
X0371877Y0062940D01*
X0372535Y0063096D01*
X0373197Y0063236D01*
X0373861Y0063360D01*
X0374529Y0063468D01*
X0375199Y0063559D01*
X0375872Y0063633D01*
X0376546Y0063691D01*
X0377221Y0063733D01*
X0377897Y0063758D01*
X0378573Y0063766D01*
X0379249Y0063758D01*
X0379925Y0063733D01*
X0380600Y0063691D01*
X0381274Y0063633D01*
X0381947Y0063559D01*
X0382617Y0063468D01*
X0383285Y0063360D01*
X0383949Y0063236D01*
X0384611Y0063096D01*
X0385269Y0062940D01*
X0385923Y0062768D01*
X0386573Y0062579D01*
X0387218Y0062375D01*
X0387857Y0062155D01*
X0388491Y0061919D01*
X0389119Y0061668D01*
X0389741Y0061402D01*
X0390356Y0061120D01*
X0390964Y0060823D01*
X0391564Y0060512D01*
X0392157Y0060186D01*
X0392741Y0059845D01*
X0393317Y0059490D01*
X0393884Y0059121D01*
X0394442Y0058739D01*
X0394990Y0058343D01*
X0395528Y0057933D01*
X0396056Y0057510D01*
X0396574Y0057075D01*
X0397080Y0056627D01*
X0397576Y0056167D01*
X0398060Y0055694D01*
X0398533Y0055210D01*
X0398993Y0054714D01*
X0399441Y0054208D01*
X0399876Y0053690D01*
X0400299Y0053162D01*
X0400709Y0052624D01*
X0401105Y0052076D01*
X0401487Y0051518D01*
X0401856Y0050951D01*
X0402211Y0050375D01*
X0402552Y0049791D01*
X0402878Y0049198D01*
X0403189Y0048598D01*
X0403486Y0047990D01*
X0403768Y0047375D01*
X0404034Y0046753D01*
X0404285Y0046125D01*
X0404521Y0045491D01*
X0404741Y0044852D01*
X0404945Y0044207D01*
X0405134Y0043557D01*
X0405306Y0042903D01*
X0405462Y0042245D01*
X0405602Y0041583D01*
X0405726Y0040919D01*
X0405834Y0040251D01*
X0405925Y0039581D01*
X0405999Y0038908D01*
X0406057Y0038234D01*
X0406099Y0037559D01*
X0406124Y0036883D01*
X0406132Y0036207D01*
X0406124Y0035531D01*
X0406099Y0034855D01*
X0406057Y0034180D01*
X0405999Y0033506D01*
X0405925Y0032833D01*
X0405834Y0032163D01*
X0405726Y0031495D01*
X0405602Y0030831D01*
X0405462Y0030169D01*
X0405306Y0029511D01*
X0405134Y0028857D01*
X0404945Y0028207D01*
X0404741Y0027562D01*
X0404521Y0026923D01*
X0404285Y0026289D01*
X0404034Y0025661D01*
X0403768Y0025039D01*
X0403486Y0024424D01*
X0403189Y0023816D01*
X0402878Y0023216D01*
X0402552Y0022623D01*
X0402211Y0022039D01*
X0401856Y0021463D01*
X0401487Y0020896D01*
X0401105Y0020338D01*
X0400709Y0019790D01*
X0400299Y0019252D01*
X0399876Y0018724D01*
X0399441Y0018206D01*
X0398993Y0017700D01*
X0398533Y0017204D01*
X0398060Y0016720D01*
X0397576Y0016247D01*
X0397080Y0015787D01*
X0396574Y0015339D01*
X0396056Y0014904D01*
X0395528Y0014481D01*
X0394990Y0014071D01*
X0394442Y0013675D01*
X0393884Y0013293D01*
X0393317Y0012924D01*
X0392741Y0012569D01*
X0392157Y0012228D01*
X0391564Y0011902D01*
X0390964Y0011591D01*
X0390356Y0011294D01*
X0389741Y0011012D01*
X0389119Y0010746D01*
X0388491Y0010495D01*
X0387857Y0010259D01*
X0387218Y0010039D01*
X0386573Y0009835D01*
X0385923Y0009646D01*
X0385269Y0009474D01*
X0384611Y0009318D01*
X0383949Y0009178D01*
X0383285Y0009054D01*
X0382617Y0008946D01*
X0381947Y0008855D01*
X0381274Y0008781D01*
X0380600Y0008723D01*
X0379925Y0008681D01*
X0379249Y0008656D01*
X0378573Y0008648D01*
X0377897Y0008656D01*
X0377221Y0008681D01*
X0376546Y0008723D01*
X0375872Y0008781D01*
X0375199Y0008855D01*
X0374529Y0008946D01*
X0373861Y0009054D01*
X0373197Y0009178D01*
X0372535Y0009318D01*
X0371877Y0009474D01*
X0371223Y0009646D01*
X0370573Y0009835D01*
X0369928Y0010039D01*
X0369289Y0010259D01*
X0368655Y0010495D01*
X0368027Y0010746D01*
X0367405Y0011012D01*
X0366790Y0011294D01*
X0366182Y0011591D01*
X0365582Y0011902D01*
X0364989Y0012228D01*
X0364405Y0012569D01*
X0363829Y0012924D01*
X0363262Y0013293D01*
X0362704Y0013675D01*
X0362156Y0014071D01*
X0361618Y0014481D01*
X0361090Y0014904D01*
X0360572Y0015339D01*
X0360066Y0015787D01*
X0359570Y0016247D01*
X0359086Y0016720D01*
X0358613Y0017204D01*
X0358153Y0017700D01*
X0357705Y0018206D01*
X0357270Y0018724D01*
X0356847Y0019252D01*
X0356437Y0019790D01*
X0356041Y0020338D01*
X0355659Y0020896D01*
X0355290Y0021463D01*
X0354935Y0022039D01*
X0354594Y0022623D01*
X0354268Y0023216D01*
X0353957Y0023816D01*
X0353660Y0024424D01*
X0353378Y0025039D01*
X0353112Y0025661D01*
X0352861Y0026289D01*
X0352625Y0026923D01*
X0352405Y0027562D01*
X0352201Y0028207D01*
X0352012Y0028857D01*
X0351840Y0029511D01*
X0351684Y0030169D01*
X0351544Y0030831D01*
X0351420Y0031495D01*
X0351312Y0032163D01*
X0351221Y0032833D01*
X0351147Y0033506D01*
X0351089Y0034180D01*
X0351047Y0034855D01*
X0351022Y0035531D01*
X0351014Y0036207D01*
D20*
X0378415Y0125813D02*
X0378415Y0129750D01*
X0378486Y0125841D02*
X0382352Y0125841D01*
X0382352Y0125813D01*
X0394163Y0125813D02*
X0398100Y0125813D01*
X0378415Y0153372D02*
X0378415Y0157309D01*
X0382352Y0157309D01*
X0394163Y0157309D02*
X0398100Y0157309D01*
M02*
