G75*
%MOIN*%
%OFA0B0*%
%FSLAX25Y25*%
%IPPOS*%
%LPD*%
%AMOC8*
5,1,8,0,0,1.08239X$1,22.5*
%
%ADD10C,0.00000*%
D10*
X0004557Y0006365D02*
X0004557Y0163845D01*
X0398258Y0163648D01*
X0398258Y0006168D01*
X0004557Y0006365D01*
X0024400Y0025459D02*
X0024402Y0025574D01*
X0024408Y0025690D01*
X0024418Y0025805D01*
X0024432Y0025920D01*
X0024450Y0026034D01*
X0024472Y0026147D01*
X0024497Y0026260D01*
X0024527Y0026371D01*
X0024560Y0026482D01*
X0024597Y0026591D01*
X0024638Y0026699D01*
X0024683Y0026806D01*
X0024731Y0026911D01*
X0024783Y0027014D01*
X0024839Y0027115D01*
X0024898Y0027215D01*
X0024960Y0027312D01*
X0025026Y0027407D01*
X0025094Y0027500D01*
X0025166Y0027590D01*
X0025241Y0027678D01*
X0025320Y0027763D01*
X0025401Y0027845D01*
X0025484Y0027925D01*
X0025571Y0028001D01*
X0025660Y0028075D01*
X0025751Y0028145D01*
X0025845Y0028213D01*
X0025941Y0028277D01*
X0026040Y0028337D01*
X0026140Y0028394D01*
X0026242Y0028448D01*
X0026346Y0028498D01*
X0026452Y0028545D01*
X0026559Y0028588D01*
X0026668Y0028627D01*
X0026778Y0028662D01*
X0026889Y0028693D01*
X0027001Y0028721D01*
X0027114Y0028745D01*
X0027228Y0028765D01*
X0027343Y0028781D01*
X0027458Y0028793D01*
X0027573Y0028801D01*
X0027688Y0028805D01*
X0027804Y0028805D01*
X0027919Y0028801D01*
X0028034Y0028793D01*
X0028149Y0028781D01*
X0028264Y0028765D01*
X0028378Y0028745D01*
X0028491Y0028721D01*
X0028603Y0028693D01*
X0028714Y0028662D01*
X0028824Y0028627D01*
X0028933Y0028588D01*
X0029040Y0028545D01*
X0029146Y0028498D01*
X0029250Y0028448D01*
X0029352Y0028394D01*
X0029452Y0028337D01*
X0029551Y0028277D01*
X0029647Y0028213D01*
X0029741Y0028145D01*
X0029832Y0028075D01*
X0029921Y0028001D01*
X0030008Y0027925D01*
X0030091Y0027845D01*
X0030172Y0027763D01*
X0030251Y0027678D01*
X0030326Y0027590D01*
X0030398Y0027500D01*
X0030466Y0027407D01*
X0030532Y0027312D01*
X0030594Y0027215D01*
X0030653Y0027115D01*
X0030709Y0027014D01*
X0030761Y0026911D01*
X0030809Y0026806D01*
X0030854Y0026699D01*
X0030895Y0026591D01*
X0030932Y0026482D01*
X0030965Y0026371D01*
X0030995Y0026260D01*
X0031020Y0026147D01*
X0031042Y0026034D01*
X0031060Y0025920D01*
X0031074Y0025805D01*
X0031084Y0025690D01*
X0031090Y0025574D01*
X0031092Y0025459D01*
X0031090Y0025344D01*
X0031084Y0025228D01*
X0031074Y0025113D01*
X0031060Y0024998D01*
X0031042Y0024884D01*
X0031020Y0024771D01*
X0030995Y0024658D01*
X0030965Y0024547D01*
X0030932Y0024436D01*
X0030895Y0024327D01*
X0030854Y0024219D01*
X0030809Y0024112D01*
X0030761Y0024007D01*
X0030709Y0023904D01*
X0030653Y0023803D01*
X0030594Y0023703D01*
X0030532Y0023606D01*
X0030466Y0023511D01*
X0030398Y0023418D01*
X0030326Y0023328D01*
X0030251Y0023240D01*
X0030172Y0023155D01*
X0030091Y0023073D01*
X0030008Y0022993D01*
X0029921Y0022917D01*
X0029832Y0022843D01*
X0029741Y0022773D01*
X0029647Y0022705D01*
X0029551Y0022641D01*
X0029452Y0022581D01*
X0029352Y0022524D01*
X0029250Y0022470D01*
X0029146Y0022420D01*
X0029040Y0022373D01*
X0028933Y0022330D01*
X0028824Y0022291D01*
X0028714Y0022256D01*
X0028603Y0022225D01*
X0028491Y0022197D01*
X0028378Y0022173D01*
X0028264Y0022153D01*
X0028149Y0022137D01*
X0028034Y0022125D01*
X0027919Y0022117D01*
X0027804Y0022113D01*
X0027688Y0022113D01*
X0027573Y0022117D01*
X0027458Y0022125D01*
X0027343Y0022137D01*
X0027228Y0022153D01*
X0027114Y0022173D01*
X0027001Y0022197D01*
X0026889Y0022225D01*
X0026778Y0022256D01*
X0026668Y0022291D01*
X0026559Y0022330D01*
X0026452Y0022373D01*
X0026346Y0022420D01*
X0026242Y0022470D01*
X0026140Y0022524D01*
X0026040Y0022581D01*
X0025941Y0022641D01*
X0025845Y0022705D01*
X0025751Y0022773D01*
X0025660Y0022843D01*
X0025571Y0022917D01*
X0025484Y0022993D01*
X0025401Y0023073D01*
X0025320Y0023155D01*
X0025241Y0023240D01*
X0025166Y0023328D01*
X0025094Y0023418D01*
X0025026Y0023511D01*
X0024960Y0023606D01*
X0024898Y0023703D01*
X0024839Y0023803D01*
X0024783Y0023904D01*
X0024731Y0024007D01*
X0024683Y0024112D01*
X0024638Y0024219D01*
X0024597Y0024327D01*
X0024560Y0024436D01*
X0024527Y0024547D01*
X0024497Y0024658D01*
X0024472Y0024771D01*
X0024450Y0024884D01*
X0024432Y0024998D01*
X0024418Y0025113D01*
X0024408Y0025228D01*
X0024402Y0025344D01*
X0024400Y0025459D01*
X0074400Y0025459D02*
X0074402Y0025574D01*
X0074408Y0025690D01*
X0074418Y0025805D01*
X0074432Y0025920D01*
X0074450Y0026034D01*
X0074472Y0026147D01*
X0074497Y0026260D01*
X0074527Y0026371D01*
X0074560Y0026482D01*
X0074597Y0026591D01*
X0074638Y0026699D01*
X0074683Y0026806D01*
X0074731Y0026911D01*
X0074783Y0027014D01*
X0074839Y0027115D01*
X0074898Y0027215D01*
X0074960Y0027312D01*
X0075026Y0027407D01*
X0075094Y0027500D01*
X0075166Y0027590D01*
X0075241Y0027678D01*
X0075320Y0027763D01*
X0075401Y0027845D01*
X0075484Y0027925D01*
X0075571Y0028001D01*
X0075660Y0028075D01*
X0075751Y0028145D01*
X0075845Y0028213D01*
X0075941Y0028277D01*
X0076040Y0028337D01*
X0076140Y0028394D01*
X0076242Y0028448D01*
X0076346Y0028498D01*
X0076452Y0028545D01*
X0076559Y0028588D01*
X0076668Y0028627D01*
X0076778Y0028662D01*
X0076889Y0028693D01*
X0077001Y0028721D01*
X0077114Y0028745D01*
X0077228Y0028765D01*
X0077343Y0028781D01*
X0077458Y0028793D01*
X0077573Y0028801D01*
X0077688Y0028805D01*
X0077804Y0028805D01*
X0077919Y0028801D01*
X0078034Y0028793D01*
X0078149Y0028781D01*
X0078264Y0028765D01*
X0078378Y0028745D01*
X0078491Y0028721D01*
X0078603Y0028693D01*
X0078714Y0028662D01*
X0078824Y0028627D01*
X0078933Y0028588D01*
X0079040Y0028545D01*
X0079146Y0028498D01*
X0079250Y0028448D01*
X0079352Y0028394D01*
X0079452Y0028337D01*
X0079551Y0028277D01*
X0079647Y0028213D01*
X0079741Y0028145D01*
X0079832Y0028075D01*
X0079921Y0028001D01*
X0080008Y0027925D01*
X0080091Y0027845D01*
X0080172Y0027763D01*
X0080251Y0027678D01*
X0080326Y0027590D01*
X0080398Y0027500D01*
X0080466Y0027407D01*
X0080532Y0027312D01*
X0080594Y0027215D01*
X0080653Y0027115D01*
X0080709Y0027014D01*
X0080761Y0026911D01*
X0080809Y0026806D01*
X0080854Y0026699D01*
X0080895Y0026591D01*
X0080932Y0026482D01*
X0080965Y0026371D01*
X0080995Y0026260D01*
X0081020Y0026147D01*
X0081042Y0026034D01*
X0081060Y0025920D01*
X0081074Y0025805D01*
X0081084Y0025690D01*
X0081090Y0025574D01*
X0081092Y0025459D01*
X0081090Y0025344D01*
X0081084Y0025228D01*
X0081074Y0025113D01*
X0081060Y0024998D01*
X0081042Y0024884D01*
X0081020Y0024771D01*
X0080995Y0024658D01*
X0080965Y0024547D01*
X0080932Y0024436D01*
X0080895Y0024327D01*
X0080854Y0024219D01*
X0080809Y0024112D01*
X0080761Y0024007D01*
X0080709Y0023904D01*
X0080653Y0023803D01*
X0080594Y0023703D01*
X0080532Y0023606D01*
X0080466Y0023511D01*
X0080398Y0023418D01*
X0080326Y0023328D01*
X0080251Y0023240D01*
X0080172Y0023155D01*
X0080091Y0023073D01*
X0080008Y0022993D01*
X0079921Y0022917D01*
X0079832Y0022843D01*
X0079741Y0022773D01*
X0079647Y0022705D01*
X0079551Y0022641D01*
X0079452Y0022581D01*
X0079352Y0022524D01*
X0079250Y0022470D01*
X0079146Y0022420D01*
X0079040Y0022373D01*
X0078933Y0022330D01*
X0078824Y0022291D01*
X0078714Y0022256D01*
X0078603Y0022225D01*
X0078491Y0022197D01*
X0078378Y0022173D01*
X0078264Y0022153D01*
X0078149Y0022137D01*
X0078034Y0022125D01*
X0077919Y0022117D01*
X0077804Y0022113D01*
X0077688Y0022113D01*
X0077573Y0022117D01*
X0077458Y0022125D01*
X0077343Y0022137D01*
X0077228Y0022153D01*
X0077114Y0022173D01*
X0077001Y0022197D01*
X0076889Y0022225D01*
X0076778Y0022256D01*
X0076668Y0022291D01*
X0076559Y0022330D01*
X0076452Y0022373D01*
X0076346Y0022420D01*
X0076242Y0022470D01*
X0076140Y0022524D01*
X0076040Y0022581D01*
X0075941Y0022641D01*
X0075845Y0022705D01*
X0075751Y0022773D01*
X0075660Y0022843D01*
X0075571Y0022917D01*
X0075484Y0022993D01*
X0075401Y0023073D01*
X0075320Y0023155D01*
X0075241Y0023240D01*
X0075166Y0023328D01*
X0075094Y0023418D01*
X0075026Y0023511D01*
X0074960Y0023606D01*
X0074898Y0023703D01*
X0074839Y0023803D01*
X0074783Y0023904D01*
X0074731Y0024007D01*
X0074683Y0024112D01*
X0074638Y0024219D01*
X0074597Y0024327D01*
X0074560Y0024436D01*
X0074527Y0024547D01*
X0074497Y0024658D01*
X0074472Y0024771D01*
X0074450Y0024884D01*
X0074432Y0024998D01*
X0074418Y0025113D01*
X0074408Y0025228D01*
X0074402Y0025344D01*
X0074400Y0025459D01*
X0074400Y0053018D02*
X0074402Y0053133D01*
X0074408Y0053249D01*
X0074418Y0053364D01*
X0074432Y0053479D01*
X0074450Y0053593D01*
X0074472Y0053706D01*
X0074497Y0053819D01*
X0074527Y0053930D01*
X0074560Y0054041D01*
X0074597Y0054150D01*
X0074638Y0054258D01*
X0074683Y0054365D01*
X0074731Y0054470D01*
X0074783Y0054573D01*
X0074839Y0054674D01*
X0074898Y0054774D01*
X0074960Y0054871D01*
X0075026Y0054966D01*
X0075094Y0055059D01*
X0075166Y0055149D01*
X0075241Y0055237D01*
X0075320Y0055322D01*
X0075401Y0055404D01*
X0075484Y0055484D01*
X0075571Y0055560D01*
X0075660Y0055634D01*
X0075751Y0055704D01*
X0075845Y0055772D01*
X0075941Y0055836D01*
X0076040Y0055896D01*
X0076140Y0055953D01*
X0076242Y0056007D01*
X0076346Y0056057D01*
X0076452Y0056104D01*
X0076559Y0056147D01*
X0076668Y0056186D01*
X0076778Y0056221D01*
X0076889Y0056252D01*
X0077001Y0056280D01*
X0077114Y0056304D01*
X0077228Y0056324D01*
X0077343Y0056340D01*
X0077458Y0056352D01*
X0077573Y0056360D01*
X0077688Y0056364D01*
X0077804Y0056364D01*
X0077919Y0056360D01*
X0078034Y0056352D01*
X0078149Y0056340D01*
X0078264Y0056324D01*
X0078378Y0056304D01*
X0078491Y0056280D01*
X0078603Y0056252D01*
X0078714Y0056221D01*
X0078824Y0056186D01*
X0078933Y0056147D01*
X0079040Y0056104D01*
X0079146Y0056057D01*
X0079250Y0056007D01*
X0079352Y0055953D01*
X0079452Y0055896D01*
X0079551Y0055836D01*
X0079647Y0055772D01*
X0079741Y0055704D01*
X0079832Y0055634D01*
X0079921Y0055560D01*
X0080008Y0055484D01*
X0080091Y0055404D01*
X0080172Y0055322D01*
X0080251Y0055237D01*
X0080326Y0055149D01*
X0080398Y0055059D01*
X0080466Y0054966D01*
X0080532Y0054871D01*
X0080594Y0054774D01*
X0080653Y0054674D01*
X0080709Y0054573D01*
X0080761Y0054470D01*
X0080809Y0054365D01*
X0080854Y0054258D01*
X0080895Y0054150D01*
X0080932Y0054041D01*
X0080965Y0053930D01*
X0080995Y0053819D01*
X0081020Y0053706D01*
X0081042Y0053593D01*
X0081060Y0053479D01*
X0081074Y0053364D01*
X0081084Y0053249D01*
X0081090Y0053133D01*
X0081092Y0053018D01*
X0081090Y0052903D01*
X0081084Y0052787D01*
X0081074Y0052672D01*
X0081060Y0052557D01*
X0081042Y0052443D01*
X0081020Y0052330D01*
X0080995Y0052217D01*
X0080965Y0052106D01*
X0080932Y0051995D01*
X0080895Y0051886D01*
X0080854Y0051778D01*
X0080809Y0051671D01*
X0080761Y0051566D01*
X0080709Y0051463D01*
X0080653Y0051362D01*
X0080594Y0051262D01*
X0080532Y0051165D01*
X0080466Y0051070D01*
X0080398Y0050977D01*
X0080326Y0050887D01*
X0080251Y0050799D01*
X0080172Y0050714D01*
X0080091Y0050632D01*
X0080008Y0050552D01*
X0079921Y0050476D01*
X0079832Y0050402D01*
X0079741Y0050332D01*
X0079647Y0050264D01*
X0079551Y0050200D01*
X0079452Y0050140D01*
X0079352Y0050083D01*
X0079250Y0050029D01*
X0079146Y0049979D01*
X0079040Y0049932D01*
X0078933Y0049889D01*
X0078824Y0049850D01*
X0078714Y0049815D01*
X0078603Y0049784D01*
X0078491Y0049756D01*
X0078378Y0049732D01*
X0078264Y0049712D01*
X0078149Y0049696D01*
X0078034Y0049684D01*
X0077919Y0049676D01*
X0077804Y0049672D01*
X0077688Y0049672D01*
X0077573Y0049676D01*
X0077458Y0049684D01*
X0077343Y0049696D01*
X0077228Y0049712D01*
X0077114Y0049732D01*
X0077001Y0049756D01*
X0076889Y0049784D01*
X0076778Y0049815D01*
X0076668Y0049850D01*
X0076559Y0049889D01*
X0076452Y0049932D01*
X0076346Y0049979D01*
X0076242Y0050029D01*
X0076140Y0050083D01*
X0076040Y0050140D01*
X0075941Y0050200D01*
X0075845Y0050264D01*
X0075751Y0050332D01*
X0075660Y0050402D01*
X0075571Y0050476D01*
X0075484Y0050552D01*
X0075401Y0050632D01*
X0075320Y0050714D01*
X0075241Y0050799D01*
X0075166Y0050887D01*
X0075094Y0050977D01*
X0075026Y0051070D01*
X0074960Y0051165D01*
X0074898Y0051262D01*
X0074839Y0051362D01*
X0074783Y0051463D01*
X0074731Y0051566D01*
X0074683Y0051671D01*
X0074638Y0051778D01*
X0074597Y0051886D01*
X0074560Y0051995D01*
X0074527Y0052106D01*
X0074497Y0052217D01*
X0074472Y0052330D01*
X0074450Y0052443D01*
X0074432Y0052557D01*
X0074418Y0052672D01*
X0074408Y0052787D01*
X0074402Y0052903D01*
X0074400Y0053018D01*
X0024400Y0053018D02*
X0024402Y0053133D01*
X0024408Y0053249D01*
X0024418Y0053364D01*
X0024432Y0053479D01*
X0024450Y0053593D01*
X0024472Y0053706D01*
X0024497Y0053819D01*
X0024527Y0053930D01*
X0024560Y0054041D01*
X0024597Y0054150D01*
X0024638Y0054258D01*
X0024683Y0054365D01*
X0024731Y0054470D01*
X0024783Y0054573D01*
X0024839Y0054674D01*
X0024898Y0054774D01*
X0024960Y0054871D01*
X0025026Y0054966D01*
X0025094Y0055059D01*
X0025166Y0055149D01*
X0025241Y0055237D01*
X0025320Y0055322D01*
X0025401Y0055404D01*
X0025484Y0055484D01*
X0025571Y0055560D01*
X0025660Y0055634D01*
X0025751Y0055704D01*
X0025845Y0055772D01*
X0025941Y0055836D01*
X0026040Y0055896D01*
X0026140Y0055953D01*
X0026242Y0056007D01*
X0026346Y0056057D01*
X0026452Y0056104D01*
X0026559Y0056147D01*
X0026668Y0056186D01*
X0026778Y0056221D01*
X0026889Y0056252D01*
X0027001Y0056280D01*
X0027114Y0056304D01*
X0027228Y0056324D01*
X0027343Y0056340D01*
X0027458Y0056352D01*
X0027573Y0056360D01*
X0027688Y0056364D01*
X0027804Y0056364D01*
X0027919Y0056360D01*
X0028034Y0056352D01*
X0028149Y0056340D01*
X0028264Y0056324D01*
X0028378Y0056304D01*
X0028491Y0056280D01*
X0028603Y0056252D01*
X0028714Y0056221D01*
X0028824Y0056186D01*
X0028933Y0056147D01*
X0029040Y0056104D01*
X0029146Y0056057D01*
X0029250Y0056007D01*
X0029352Y0055953D01*
X0029452Y0055896D01*
X0029551Y0055836D01*
X0029647Y0055772D01*
X0029741Y0055704D01*
X0029832Y0055634D01*
X0029921Y0055560D01*
X0030008Y0055484D01*
X0030091Y0055404D01*
X0030172Y0055322D01*
X0030251Y0055237D01*
X0030326Y0055149D01*
X0030398Y0055059D01*
X0030466Y0054966D01*
X0030532Y0054871D01*
X0030594Y0054774D01*
X0030653Y0054674D01*
X0030709Y0054573D01*
X0030761Y0054470D01*
X0030809Y0054365D01*
X0030854Y0054258D01*
X0030895Y0054150D01*
X0030932Y0054041D01*
X0030965Y0053930D01*
X0030995Y0053819D01*
X0031020Y0053706D01*
X0031042Y0053593D01*
X0031060Y0053479D01*
X0031074Y0053364D01*
X0031084Y0053249D01*
X0031090Y0053133D01*
X0031092Y0053018D01*
X0031090Y0052903D01*
X0031084Y0052787D01*
X0031074Y0052672D01*
X0031060Y0052557D01*
X0031042Y0052443D01*
X0031020Y0052330D01*
X0030995Y0052217D01*
X0030965Y0052106D01*
X0030932Y0051995D01*
X0030895Y0051886D01*
X0030854Y0051778D01*
X0030809Y0051671D01*
X0030761Y0051566D01*
X0030709Y0051463D01*
X0030653Y0051362D01*
X0030594Y0051262D01*
X0030532Y0051165D01*
X0030466Y0051070D01*
X0030398Y0050977D01*
X0030326Y0050887D01*
X0030251Y0050799D01*
X0030172Y0050714D01*
X0030091Y0050632D01*
X0030008Y0050552D01*
X0029921Y0050476D01*
X0029832Y0050402D01*
X0029741Y0050332D01*
X0029647Y0050264D01*
X0029551Y0050200D01*
X0029452Y0050140D01*
X0029352Y0050083D01*
X0029250Y0050029D01*
X0029146Y0049979D01*
X0029040Y0049932D01*
X0028933Y0049889D01*
X0028824Y0049850D01*
X0028714Y0049815D01*
X0028603Y0049784D01*
X0028491Y0049756D01*
X0028378Y0049732D01*
X0028264Y0049712D01*
X0028149Y0049696D01*
X0028034Y0049684D01*
X0027919Y0049676D01*
X0027804Y0049672D01*
X0027688Y0049672D01*
X0027573Y0049676D01*
X0027458Y0049684D01*
X0027343Y0049696D01*
X0027228Y0049712D01*
X0027114Y0049732D01*
X0027001Y0049756D01*
X0026889Y0049784D01*
X0026778Y0049815D01*
X0026668Y0049850D01*
X0026559Y0049889D01*
X0026452Y0049932D01*
X0026346Y0049979D01*
X0026242Y0050029D01*
X0026140Y0050083D01*
X0026040Y0050140D01*
X0025941Y0050200D01*
X0025845Y0050264D01*
X0025751Y0050332D01*
X0025660Y0050402D01*
X0025571Y0050476D01*
X0025484Y0050552D01*
X0025401Y0050632D01*
X0025320Y0050714D01*
X0025241Y0050799D01*
X0025166Y0050887D01*
X0025094Y0050977D01*
X0025026Y0051070D01*
X0024960Y0051165D01*
X0024898Y0051262D01*
X0024839Y0051362D01*
X0024783Y0051463D01*
X0024731Y0051566D01*
X0024683Y0051671D01*
X0024638Y0051778D01*
X0024597Y0051886D01*
X0024560Y0051995D01*
X0024527Y0052106D01*
X0024497Y0052217D01*
X0024472Y0052330D01*
X0024450Y0052443D01*
X0024432Y0052557D01*
X0024418Y0052672D01*
X0024408Y0052787D01*
X0024402Y0052903D01*
X0024400Y0053018D01*
X0144659Y0052778D02*
X0144661Y0052893D01*
X0144667Y0053009D01*
X0144677Y0053124D01*
X0144691Y0053239D01*
X0144709Y0053353D01*
X0144731Y0053466D01*
X0144756Y0053579D01*
X0144786Y0053690D01*
X0144819Y0053801D01*
X0144856Y0053910D01*
X0144897Y0054018D01*
X0144942Y0054125D01*
X0144990Y0054230D01*
X0145042Y0054333D01*
X0145098Y0054434D01*
X0145157Y0054534D01*
X0145219Y0054631D01*
X0145285Y0054726D01*
X0145353Y0054819D01*
X0145425Y0054909D01*
X0145500Y0054997D01*
X0145579Y0055082D01*
X0145660Y0055164D01*
X0145743Y0055244D01*
X0145830Y0055320D01*
X0145919Y0055394D01*
X0146010Y0055464D01*
X0146104Y0055532D01*
X0146200Y0055596D01*
X0146299Y0055656D01*
X0146399Y0055713D01*
X0146501Y0055767D01*
X0146605Y0055817D01*
X0146711Y0055864D01*
X0146818Y0055907D01*
X0146927Y0055946D01*
X0147037Y0055981D01*
X0147148Y0056012D01*
X0147260Y0056040D01*
X0147373Y0056064D01*
X0147487Y0056084D01*
X0147602Y0056100D01*
X0147717Y0056112D01*
X0147832Y0056120D01*
X0147947Y0056124D01*
X0148063Y0056124D01*
X0148178Y0056120D01*
X0148293Y0056112D01*
X0148408Y0056100D01*
X0148523Y0056084D01*
X0148637Y0056064D01*
X0148750Y0056040D01*
X0148862Y0056012D01*
X0148973Y0055981D01*
X0149083Y0055946D01*
X0149192Y0055907D01*
X0149299Y0055864D01*
X0149405Y0055817D01*
X0149509Y0055767D01*
X0149611Y0055713D01*
X0149711Y0055656D01*
X0149810Y0055596D01*
X0149906Y0055532D01*
X0150000Y0055464D01*
X0150091Y0055394D01*
X0150180Y0055320D01*
X0150267Y0055244D01*
X0150350Y0055164D01*
X0150431Y0055082D01*
X0150510Y0054997D01*
X0150585Y0054909D01*
X0150657Y0054819D01*
X0150725Y0054726D01*
X0150791Y0054631D01*
X0150853Y0054534D01*
X0150912Y0054434D01*
X0150968Y0054333D01*
X0151020Y0054230D01*
X0151068Y0054125D01*
X0151113Y0054018D01*
X0151154Y0053910D01*
X0151191Y0053801D01*
X0151224Y0053690D01*
X0151254Y0053579D01*
X0151279Y0053466D01*
X0151301Y0053353D01*
X0151319Y0053239D01*
X0151333Y0053124D01*
X0151343Y0053009D01*
X0151349Y0052893D01*
X0151351Y0052778D01*
X0151349Y0052663D01*
X0151343Y0052547D01*
X0151333Y0052432D01*
X0151319Y0052317D01*
X0151301Y0052203D01*
X0151279Y0052090D01*
X0151254Y0051977D01*
X0151224Y0051866D01*
X0151191Y0051755D01*
X0151154Y0051646D01*
X0151113Y0051538D01*
X0151068Y0051431D01*
X0151020Y0051326D01*
X0150968Y0051223D01*
X0150912Y0051122D01*
X0150853Y0051022D01*
X0150791Y0050925D01*
X0150725Y0050830D01*
X0150657Y0050737D01*
X0150585Y0050647D01*
X0150510Y0050559D01*
X0150431Y0050474D01*
X0150350Y0050392D01*
X0150267Y0050312D01*
X0150180Y0050236D01*
X0150091Y0050162D01*
X0150000Y0050092D01*
X0149906Y0050024D01*
X0149810Y0049960D01*
X0149711Y0049900D01*
X0149611Y0049843D01*
X0149509Y0049789D01*
X0149405Y0049739D01*
X0149299Y0049692D01*
X0149192Y0049649D01*
X0149083Y0049610D01*
X0148973Y0049575D01*
X0148862Y0049544D01*
X0148750Y0049516D01*
X0148637Y0049492D01*
X0148523Y0049472D01*
X0148408Y0049456D01*
X0148293Y0049444D01*
X0148178Y0049436D01*
X0148063Y0049432D01*
X0147947Y0049432D01*
X0147832Y0049436D01*
X0147717Y0049444D01*
X0147602Y0049456D01*
X0147487Y0049472D01*
X0147373Y0049492D01*
X0147260Y0049516D01*
X0147148Y0049544D01*
X0147037Y0049575D01*
X0146927Y0049610D01*
X0146818Y0049649D01*
X0146711Y0049692D01*
X0146605Y0049739D01*
X0146501Y0049789D01*
X0146399Y0049843D01*
X0146299Y0049900D01*
X0146200Y0049960D01*
X0146104Y0050024D01*
X0146010Y0050092D01*
X0145919Y0050162D01*
X0145830Y0050236D01*
X0145743Y0050312D01*
X0145660Y0050392D01*
X0145579Y0050474D01*
X0145500Y0050559D01*
X0145425Y0050647D01*
X0145353Y0050737D01*
X0145285Y0050830D01*
X0145219Y0050925D01*
X0145157Y0051022D01*
X0145098Y0051122D01*
X0145042Y0051223D01*
X0144990Y0051326D01*
X0144942Y0051431D01*
X0144897Y0051538D01*
X0144856Y0051646D01*
X0144819Y0051755D01*
X0144786Y0051866D01*
X0144756Y0051977D01*
X0144731Y0052090D01*
X0144709Y0052203D01*
X0144691Y0052317D01*
X0144677Y0052432D01*
X0144667Y0052547D01*
X0144661Y0052663D01*
X0144659Y0052778D01*
X0194659Y0052778D02*
X0194661Y0052893D01*
X0194667Y0053009D01*
X0194677Y0053124D01*
X0194691Y0053239D01*
X0194709Y0053353D01*
X0194731Y0053466D01*
X0194756Y0053579D01*
X0194786Y0053690D01*
X0194819Y0053801D01*
X0194856Y0053910D01*
X0194897Y0054018D01*
X0194942Y0054125D01*
X0194990Y0054230D01*
X0195042Y0054333D01*
X0195098Y0054434D01*
X0195157Y0054534D01*
X0195219Y0054631D01*
X0195285Y0054726D01*
X0195353Y0054819D01*
X0195425Y0054909D01*
X0195500Y0054997D01*
X0195579Y0055082D01*
X0195660Y0055164D01*
X0195743Y0055244D01*
X0195830Y0055320D01*
X0195919Y0055394D01*
X0196010Y0055464D01*
X0196104Y0055532D01*
X0196200Y0055596D01*
X0196299Y0055656D01*
X0196399Y0055713D01*
X0196501Y0055767D01*
X0196605Y0055817D01*
X0196711Y0055864D01*
X0196818Y0055907D01*
X0196927Y0055946D01*
X0197037Y0055981D01*
X0197148Y0056012D01*
X0197260Y0056040D01*
X0197373Y0056064D01*
X0197487Y0056084D01*
X0197602Y0056100D01*
X0197717Y0056112D01*
X0197832Y0056120D01*
X0197947Y0056124D01*
X0198063Y0056124D01*
X0198178Y0056120D01*
X0198293Y0056112D01*
X0198408Y0056100D01*
X0198523Y0056084D01*
X0198637Y0056064D01*
X0198750Y0056040D01*
X0198862Y0056012D01*
X0198973Y0055981D01*
X0199083Y0055946D01*
X0199192Y0055907D01*
X0199299Y0055864D01*
X0199405Y0055817D01*
X0199509Y0055767D01*
X0199611Y0055713D01*
X0199711Y0055656D01*
X0199810Y0055596D01*
X0199906Y0055532D01*
X0200000Y0055464D01*
X0200091Y0055394D01*
X0200180Y0055320D01*
X0200267Y0055244D01*
X0200350Y0055164D01*
X0200431Y0055082D01*
X0200510Y0054997D01*
X0200585Y0054909D01*
X0200657Y0054819D01*
X0200725Y0054726D01*
X0200791Y0054631D01*
X0200853Y0054534D01*
X0200912Y0054434D01*
X0200968Y0054333D01*
X0201020Y0054230D01*
X0201068Y0054125D01*
X0201113Y0054018D01*
X0201154Y0053910D01*
X0201191Y0053801D01*
X0201224Y0053690D01*
X0201254Y0053579D01*
X0201279Y0053466D01*
X0201301Y0053353D01*
X0201319Y0053239D01*
X0201333Y0053124D01*
X0201343Y0053009D01*
X0201349Y0052893D01*
X0201351Y0052778D01*
X0201349Y0052663D01*
X0201343Y0052547D01*
X0201333Y0052432D01*
X0201319Y0052317D01*
X0201301Y0052203D01*
X0201279Y0052090D01*
X0201254Y0051977D01*
X0201224Y0051866D01*
X0201191Y0051755D01*
X0201154Y0051646D01*
X0201113Y0051538D01*
X0201068Y0051431D01*
X0201020Y0051326D01*
X0200968Y0051223D01*
X0200912Y0051122D01*
X0200853Y0051022D01*
X0200791Y0050925D01*
X0200725Y0050830D01*
X0200657Y0050737D01*
X0200585Y0050647D01*
X0200510Y0050559D01*
X0200431Y0050474D01*
X0200350Y0050392D01*
X0200267Y0050312D01*
X0200180Y0050236D01*
X0200091Y0050162D01*
X0200000Y0050092D01*
X0199906Y0050024D01*
X0199810Y0049960D01*
X0199711Y0049900D01*
X0199611Y0049843D01*
X0199509Y0049789D01*
X0199405Y0049739D01*
X0199299Y0049692D01*
X0199192Y0049649D01*
X0199083Y0049610D01*
X0198973Y0049575D01*
X0198862Y0049544D01*
X0198750Y0049516D01*
X0198637Y0049492D01*
X0198523Y0049472D01*
X0198408Y0049456D01*
X0198293Y0049444D01*
X0198178Y0049436D01*
X0198063Y0049432D01*
X0197947Y0049432D01*
X0197832Y0049436D01*
X0197717Y0049444D01*
X0197602Y0049456D01*
X0197487Y0049472D01*
X0197373Y0049492D01*
X0197260Y0049516D01*
X0197148Y0049544D01*
X0197037Y0049575D01*
X0196927Y0049610D01*
X0196818Y0049649D01*
X0196711Y0049692D01*
X0196605Y0049739D01*
X0196501Y0049789D01*
X0196399Y0049843D01*
X0196299Y0049900D01*
X0196200Y0049960D01*
X0196104Y0050024D01*
X0196010Y0050092D01*
X0195919Y0050162D01*
X0195830Y0050236D01*
X0195743Y0050312D01*
X0195660Y0050392D01*
X0195579Y0050474D01*
X0195500Y0050559D01*
X0195425Y0050647D01*
X0195353Y0050737D01*
X0195285Y0050830D01*
X0195219Y0050925D01*
X0195157Y0051022D01*
X0195098Y0051122D01*
X0195042Y0051223D01*
X0194990Y0051326D01*
X0194942Y0051431D01*
X0194897Y0051538D01*
X0194856Y0051646D01*
X0194819Y0051755D01*
X0194786Y0051866D01*
X0194756Y0051977D01*
X0194731Y0052090D01*
X0194709Y0052203D01*
X0194691Y0052317D01*
X0194677Y0052432D01*
X0194667Y0052547D01*
X0194661Y0052663D01*
X0194659Y0052778D01*
X0194659Y0025219D02*
X0194661Y0025334D01*
X0194667Y0025450D01*
X0194677Y0025565D01*
X0194691Y0025680D01*
X0194709Y0025794D01*
X0194731Y0025907D01*
X0194756Y0026020D01*
X0194786Y0026131D01*
X0194819Y0026242D01*
X0194856Y0026351D01*
X0194897Y0026459D01*
X0194942Y0026566D01*
X0194990Y0026671D01*
X0195042Y0026774D01*
X0195098Y0026875D01*
X0195157Y0026975D01*
X0195219Y0027072D01*
X0195285Y0027167D01*
X0195353Y0027260D01*
X0195425Y0027350D01*
X0195500Y0027438D01*
X0195579Y0027523D01*
X0195660Y0027605D01*
X0195743Y0027685D01*
X0195830Y0027761D01*
X0195919Y0027835D01*
X0196010Y0027905D01*
X0196104Y0027973D01*
X0196200Y0028037D01*
X0196299Y0028097D01*
X0196399Y0028154D01*
X0196501Y0028208D01*
X0196605Y0028258D01*
X0196711Y0028305D01*
X0196818Y0028348D01*
X0196927Y0028387D01*
X0197037Y0028422D01*
X0197148Y0028453D01*
X0197260Y0028481D01*
X0197373Y0028505D01*
X0197487Y0028525D01*
X0197602Y0028541D01*
X0197717Y0028553D01*
X0197832Y0028561D01*
X0197947Y0028565D01*
X0198063Y0028565D01*
X0198178Y0028561D01*
X0198293Y0028553D01*
X0198408Y0028541D01*
X0198523Y0028525D01*
X0198637Y0028505D01*
X0198750Y0028481D01*
X0198862Y0028453D01*
X0198973Y0028422D01*
X0199083Y0028387D01*
X0199192Y0028348D01*
X0199299Y0028305D01*
X0199405Y0028258D01*
X0199509Y0028208D01*
X0199611Y0028154D01*
X0199711Y0028097D01*
X0199810Y0028037D01*
X0199906Y0027973D01*
X0200000Y0027905D01*
X0200091Y0027835D01*
X0200180Y0027761D01*
X0200267Y0027685D01*
X0200350Y0027605D01*
X0200431Y0027523D01*
X0200510Y0027438D01*
X0200585Y0027350D01*
X0200657Y0027260D01*
X0200725Y0027167D01*
X0200791Y0027072D01*
X0200853Y0026975D01*
X0200912Y0026875D01*
X0200968Y0026774D01*
X0201020Y0026671D01*
X0201068Y0026566D01*
X0201113Y0026459D01*
X0201154Y0026351D01*
X0201191Y0026242D01*
X0201224Y0026131D01*
X0201254Y0026020D01*
X0201279Y0025907D01*
X0201301Y0025794D01*
X0201319Y0025680D01*
X0201333Y0025565D01*
X0201343Y0025450D01*
X0201349Y0025334D01*
X0201351Y0025219D01*
X0201349Y0025104D01*
X0201343Y0024988D01*
X0201333Y0024873D01*
X0201319Y0024758D01*
X0201301Y0024644D01*
X0201279Y0024531D01*
X0201254Y0024418D01*
X0201224Y0024307D01*
X0201191Y0024196D01*
X0201154Y0024087D01*
X0201113Y0023979D01*
X0201068Y0023872D01*
X0201020Y0023767D01*
X0200968Y0023664D01*
X0200912Y0023563D01*
X0200853Y0023463D01*
X0200791Y0023366D01*
X0200725Y0023271D01*
X0200657Y0023178D01*
X0200585Y0023088D01*
X0200510Y0023000D01*
X0200431Y0022915D01*
X0200350Y0022833D01*
X0200267Y0022753D01*
X0200180Y0022677D01*
X0200091Y0022603D01*
X0200000Y0022533D01*
X0199906Y0022465D01*
X0199810Y0022401D01*
X0199711Y0022341D01*
X0199611Y0022284D01*
X0199509Y0022230D01*
X0199405Y0022180D01*
X0199299Y0022133D01*
X0199192Y0022090D01*
X0199083Y0022051D01*
X0198973Y0022016D01*
X0198862Y0021985D01*
X0198750Y0021957D01*
X0198637Y0021933D01*
X0198523Y0021913D01*
X0198408Y0021897D01*
X0198293Y0021885D01*
X0198178Y0021877D01*
X0198063Y0021873D01*
X0197947Y0021873D01*
X0197832Y0021877D01*
X0197717Y0021885D01*
X0197602Y0021897D01*
X0197487Y0021913D01*
X0197373Y0021933D01*
X0197260Y0021957D01*
X0197148Y0021985D01*
X0197037Y0022016D01*
X0196927Y0022051D01*
X0196818Y0022090D01*
X0196711Y0022133D01*
X0196605Y0022180D01*
X0196501Y0022230D01*
X0196399Y0022284D01*
X0196299Y0022341D01*
X0196200Y0022401D01*
X0196104Y0022465D01*
X0196010Y0022533D01*
X0195919Y0022603D01*
X0195830Y0022677D01*
X0195743Y0022753D01*
X0195660Y0022833D01*
X0195579Y0022915D01*
X0195500Y0023000D01*
X0195425Y0023088D01*
X0195353Y0023178D01*
X0195285Y0023271D01*
X0195219Y0023366D01*
X0195157Y0023463D01*
X0195098Y0023563D01*
X0195042Y0023664D01*
X0194990Y0023767D01*
X0194942Y0023872D01*
X0194897Y0023979D01*
X0194856Y0024087D01*
X0194819Y0024196D01*
X0194786Y0024307D01*
X0194756Y0024418D01*
X0194731Y0024531D01*
X0194709Y0024644D01*
X0194691Y0024758D01*
X0194677Y0024873D01*
X0194667Y0024988D01*
X0194661Y0025104D01*
X0194659Y0025219D01*
X0144659Y0025219D02*
X0144661Y0025334D01*
X0144667Y0025450D01*
X0144677Y0025565D01*
X0144691Y0025680D01*
X0144709Y0025794D01*
X0144731Y0025907D01*
X0144756Y0026020D01*
X0144786Y0026131D01*
X0144819Y0026242D01*
X0144856Y0026351D01*
X0144897Y0026459D01*
X0144942Y0026566D01*
X0144990Y0026671D01*
X0145042Y0026774D01*
X0145098Y0026875D01*
X0145157Y0026975D01*
X0145219Y0027072D01*
X0145285Y0027167D01*
X0145353Y0027260D01*
X0145425Y0027350D01*
X0145500Y0027438D01*
X0145579Y0027523D01*
X0145660Y0027605D01*
X0145743Y0027685D01*
X0145830Y0027761D01*
X0145919Y0027835D01*
X0146010Y0027905D01*
X0146104Y0027973D01*
X0146200Y0028037D01*
X0146299Y0028097D01*
X0146399Y0028154D01*
X0146501Y0028208D01*
X0146605Y0028258D01*
X0146711Y0028305D01*
X0146818Y0028348D01*
X0146927Y0028387D01*
X0147037Y0028422D01*
X0147148Y0028453D01*
X0147260Y0028481D01*
X0147373Y0028505D01*
X0147487Y0028525D01*
X0147602Y0028541D01*
X0147717Y0028553D01*
X0147832Y0028561D01*
X0147947Y0028565D01*
X0148063Y0028565D01*
X0148178Y0028561D01*
X0148293Y0028553D01*
X0148408Y0028541D01*
X0148523Y0028525D01*
X0148637Y0028505D01*
X0148750Y0028481D01*
X0148862Y0028453D01*
X0148973Y0028422D01*
X0149083Y0028387D01*
X0149192Y0028348D01*
X0149299Y0028305D01*
X0149405Y0028258D01*
X0149509Y0028208D01*
X0149611Y0028154D01*
X0149711Y0028097D01*
X0149810Y0028037D01*
X0149906Y0027973D01*
X0150000Y0027905D01*
X0150091Y0027835D01*
X0150180Y0027761D01*
X0150267Y0027685D01*
X0150350Y0027605D01*
X0150431Y0027523D01*
X0150510Y0027438D01*
X0150585Y0027350D01*
X0150657Y0027260D01*
X0150725Y0027167D01*
X0150791Y0027072D01*
X0150853Y0026975D01*
X0150912Y0026875D01*
X0150968Y0026774D01*
X0151020Y0026671D01*
X0151068Y0026566D01*
X0151113Y0026459D01*
X0151154Y0026351D01*
X0151191Y0026242D01*
X0151224Y0026131D01*
X0151254Y0026020D01*
X0151279Y0025907D01*
X0151301Y0025794D01*
X0151319Y0025680D01*
X0151333Y0025565D01*
X0151343Y0025450D01*
X0151349Y0025334D01*
X0151351Y0025219D01*
X0151349Y0025104D01*
X0151343Y0024988D01*
X0151333Y0024873D01*
X0151319Y0024758D01*
X0151301Y0024644D01*
X0151279Y0024531D01*
X0151254Y0024418D01*
X0151224Y0024307D01*
X0151191Y0024196D01*
X0151154Y0024087D01*
X0151113Y0023979D01*
X0151068Y0023872D01*
X0151020Y0023767D01*
X0150968Y0023664D01*
X0150912Y0023563D01*
X0150853Y0023463D01*
X0150791Y0023366D01*
X0150725Y0023271D01*
X0150657Y0023178D01*
X0150585Y0023088D01*
X0150510Y0023000D01*
X0150431Y0022915D01*
X0150350Y0022833D01*
X0150267Y0022753D01*
X0150180Y0022677D01*
X0150091Y0022603D01*
X0150000Y0022533D01*
X0149906Y0022465D01*
X0149810Y0022401D01*
X0149711Y0022341D01*
X0149611Y0022284D01*
X0149509Y0022230D01*
X0149405Y0022180D01*
X0149299Y0022133D01*
X0149192Y0022090D01*
X0149083Y0022051D01*
X0148973Y0022016D01*
X0148862Y0021985D01*
X0148750Y0021957D01*
X0148637Y0021933D01*
X0148523Y0021913D01*
X0148408Y0021897D01*
X0148293Y0021885D01*
X0148178Y0021877D01*
X0148063Y0021873D01*
X0147947Y0021873D01*
X0147832Y0021877D01*
X0147717Y0021885D01*
X0147602Y0021897D01*
X0147487Y0021913D01*
X0147373Y0021933D01*
X0147260Y0021957D01*
X0147148Y0021985D01*
X0147037Y0022016D01*
X0146927Y0022051D01*
X0146818Y0022090D01*
X0146711Y0022133D01*
X0146605Y0022180D01*
X0146501Y0022230D01*
X0146399Y0022284D01*
X0146299Y0022341D01*
X0146200Y0022401D01*
X0146104Y0022465D01*
X0146010Y0022533D01*
X0145919Y0022603D01*
X0145830Y0022677D01*
X0145743Y0022753D01*
X0145660Y0022833D01*
X0145579Y0022915D01*
X0145500Y0023000D01*
X0145425Y0023088D01*
X0145353Y0023178D01*
X0145285Y0023271D01*
X0145219Y0023366D01*
X0145157Y0023463D01*
X0145098Y0023563D01*
X0145042Y0023664D01*
X0144990Y0023767D01*
X0144942Y0023872D01*
X0144897Y0023979D01*
X0144856Y0024087D01*
X0144819Y0024196D01*
X0144786Y0024307D01*
X0144756Y0024418D01*
X0144731Y0024531D01*
X0144709Y0024644D01*
X0144691Y0024758D01*
X0144677Y0024873D01*
X0144667Y0024988D01*
X0144661Y0025104D01*
X0144659Y0025219D01*
X0265052Y0025022D02*
X0265054Y0025137D01*
X0265060Y0025253D01*
X0265070Y0025368D01*
X0265084Y0025483D01*
X0265102Y0025597D01*
X0265124Y0025710D01*
X0265149Y0025823D01*
X0265179Y0025934D01*
X0265212Y0026045D01*
X0265249Y0026154D01*
X0265290Y0026262D01*
X0265335Y0026369D01*
X0265383Y0026474D01*
X0265435Y0026577D01*
X0265491Y0026678D01*
X0265550Y0026778D01*
X0265612Y0026875D01*
X0265678Y0026970D01*
X0265746Y0027063D01*
X0265818Y0027153D01*
X0265893Y0027241D01*
X0265972Y0027326D01*
X0266053Y0027408D01*
X0266136Y0027488D01*
X0266223Y0027564D01*
X0266312Y0027638D01*
X0266403Y0027708D01*
X0266497Y0027776D01*
X0266593Y0027840D01*
X0266692Y0027900D01*
X0266792Y0027957D01*
X0266894Y0028011D01*
X0266998Y0028061D01*
X0267104Y0028108D01*
X0267211Y0028151D01*
X0267320Y0028190D01*
X0267430Y0028225D01*
X0267541Y0028256D01*
X0267653Y0028284D01*
X0267766Y0028308D01*
X0267880Y0028328D01*
X0267995Y0028344D01*
X0268110Y0028356D01*
X0268225Y0028364D01*
X0268340Y0028368D01*
X0268456Y0028368D01*
X0268571Y0028364D01*
X0268686Y0028356D01*
X0268801Y0028344D01*
X0268916Y0028328D01*
X0269030Y0028308D01*
X0269143Y0028284D01*
X0269255Y0028256D01*
X0269366Y0028225D01*
X0269476Y0028190D01*
X0269585Y0028151D01*
X0269692Y0028108D01*
X0269798Y0028061D01*
X0269902Y0028011D01*
X0270004Y0027957D01*
X0270104Y0027900D01*
X0270203Y0027840D01*
X0270299Y0027776D01*
X0270393Y0027708D01*
X0270484Y0027638D01*
X0270573Y0027564D01*
X0270660Y0027488D01*
X0270743Y0027408D01*
X0270824Y0027326D01*
X0270903Y0027241D01*
X0270978Y0027153D01*
X0271050Y0027063D01*
X0271118Y0026970D01*
X0271184Y0026875D01*
X0271246Y0026778D01*
X0271305Y0026678D01*
X0271361Y0026577D01*
X0271413Y0026474D01*
X0271461Y0026369D01*
X0271506Y0026262D01*
X0271547Y0026154D01*
X0271584Y0026045D01*
X0271617Y0025934D01*
X0271647Y0025823D01*
X0271672Y0025710D01*
X0271694Y0025597D01*
X0271712Y0025483D01*
X0271726Y0025368D01*
X0271736Y0025253D01*
X0271742Y0025137D01*
X0271744Y0025022D01*
X0271742Y0024907D01*
X0271736Y0024791D01*
X0271726Y0024676D01*
X0271712Y0024561D01*
X0271694Y0024447D01*
X0271672Y0024334D01*
X0271647Y0024221D01*
X0271617Y0024110D01*
X0271584Y0023999D01*
X0271547Y0023890D01*
X0271506Y0023782D01*
X0271461Y0023675D01*
X0271413Y0023570D01*
X0271361Y0023467D01*
X0271305Y0023366D01*
X0271246Y0023266D01*
X0271184Y0023169D01*
X0271118Y0023074D01*
X0271050Y0022981D01*
X0270978Y0022891D01*
X0270903Y0022803D01*
X0270824Y0022718D01*
X0270743Y0022636D01*
X0270660Y0022556D01*
X0270573Y0022480D01*
X0270484Y0022406D01*
X0270393Y0022336D01*
X0270299Y0022268D01*
X0270203Y0022204D01*
X0270104Y0022144D01*
X0270004Y0022087D01*
X0269902Y0022033D01*
X0269798Y0021983D01*
X0269692Y0021936D01*
X0269585Y0021893D01*
X0269476Y0021854D01*
X0269366Y0021819D01*
X0269255Y0021788D01*
X0269143Y0021760D01*
X0269030Y0021736D01*
X0268916Y0021716D01*
X0268801Y0021700D01*
X0268686Y0021688D01*
X0268571Y0021680D01*
X0268456Y0021676D01*
X0268340Y0021676D01*
X0268225Y0021680D01*
X0268110Y0021688D01*
X0267995Y0021700D01*
X0267880Y0021716D01*
X0267766Y0021736D01*
X0267653Y0021760D01*
X0267541Y0021788D01*
X0267430Y0021819D01*
X0267320Y0021854D01*
X0267211Y0021893D01*
X0267104Y0021936D01*
X0266998Y0021983D01*
X0266894Y0022033D01*
X0266792Y0022087D01*
X0266692Y0022144D01*
X0266593Y0022204D01*
X0266497Y0022268D01*
X0266403Y0022336D01*
X0266312Y0022406D01*
X0266223Y0022480D01*
X0266136Y0022556D01*
X0266053Y0022636D01*
X0265972Y0022718D01*
X0265893Y0022803D01*
X0265818Y0022891D01*
X0265746Y0022981D01*
X0265678Y0023074D01*
X0265612Y0023169D01*
X0265550Y0023266D01*
X0265491Y0023366D01*
X0265435Y0023467D01*
X0265383Y0023570D01*
X0265335Y0023675D01*
X0265290Y0023782D01*
X0265249Y0023890D01*
X0265212Y0023999D01*
X0265179Y0024110D01*
X0265149Y0024221D01*
X0265124Y0024334D01*
X0265102Y0024447D01*
X0265084Y0024561D01*
X0265070Y0024676D01*
X0265060Y0024791D01*
X0265054Y0024907D01*
X0265052Y0025022D01*
X0315052Y0025022D02*
X0315054Y0025137D01*
X0315060Y0025253D01*
X0315070Y0025368D01*
X0315084Y0025483D01*
X0315102Y0025597D01*
X0315124Y0025710D01*
X0315149Y0025823D01*
X0315179Y0025934D01*
X0315212Y0026045D01*
X0315249Y0026154D01*
X0315290Y0026262D01*
X0315335Y0026369D01*
X0315383Y0026474D01*
X0315435Y0026577D01*
X0315491Y0026678D01*
X0315550Y0026778D01*
X0315612Y0026875D01*
X0315678Y0026970D01*
X0315746Y0027063D01*
X0315818Y0027153D01*
X0315893Y0027241D01*
X0315972Y0027326D01*
X0316053Y0027408D01*
X0316136Y0027488D01*
X0316223Y0027564D01*
X0316312Y0027638D01*
X0316403Y0027708D01*
X0316497Y0027776D01*
X0316593Y0027840D01*
X0316692Y0027900D01*
X0316792Y0027957D01*
X0316894Y0028011D01*
X0316998Y0028061D01*
X0317104Y0028108D01*
X0317211Y0028151D01*
X0317320Y0028190D01*
X0317430Y0028225D01*
X0317541Y0028256D01*
X0317653Y0028284D01*
X0317766Y0028308D01*
X0317880Y0028328D01*
X0317995Y0028344D01*
X0318110Y0028356D01*
X0318225Y0028364D01*
X0318340Y0028368D01*
X0318456Y0028368D01*
X0318571Y0028364D01*
X0318686Y0028356D01*
X0318801Y0028344D01*
X0318916Y0028328D01*
X0319030Y0028308D01*
X0319143Y0028284D01*
X0319255Y0028256D01*
X0319366Y0028225D01*
X0319476Y0028190D01*
X0319585Y0028151D01*
X0319692Y0028108D01*
X0319798Y0028061D01*
X0319902Y0028011D01*
X0320004Y0027957D01*
X0320104Y0027900D01*
X0320203Y0027840D01*
X0320299Y0027776D01*
X0320393Y0027708D01*
X0320484Y0027638D01*
X0320573Y0027564D01*
X0320660Y0027488D01*
X0320743Y0027408D01*
X0320824Y0027326D01*
X0320903Y0027241D01*
X0320978Y0027153D01*
X0321050Y0027063D01*
X0321118Y0026970D01*
X0321184Y0026875D01*
X0321246Y0026778D01*
X0321305Y0026678D01*
X0321361Y0026577D01*
X0321413Y0026474D01*
X0321461Y0026369D01*
X0321506Y0026262D01*
X0321547Y0026154D01*
X0321584Y0026045D01*
X0321617Y0025934D01*
X0321647Y0025823D01*
X0321672Y0025710D01*
X0321694Y0025597D01*
X0321712Y0025483D01*
X0321726Y0025368D01*
X0321736Y0025253D01*
X0321742Y0025137D01*
X0321744Y0025022D01*
X0321742Y0024907D01*
X0321736Y0024791D01*
X0321726Y0024676D01*
X0321712Y0024561D01*
X0321694Y0024447D01*
X0321672Y0024334D01*
X0321647Y0024221D01*
X0321617Y0024110D01*
X0321584Y0023999D01*
X0321547Y0023890D01*
X0321506Y0023782D01*
X0321461Y0023675D01*
X0321413Y0023570D01*
X0321361Y0023467D01*
X0321305Y0023366D01*
X0321246Y0023266D01*
X0321184Y0023169D01*
X0321118Y0023074D01*
X0321050Y0022981D01*
X0320978Y0022891D01*
X0320903Y0022803D01*
X0320824Y0022718D01*
X0320743Y0022636D01*
X0320660Y0022556D01*
X0320573Y0022480D01*
X0320484Y0022406D01*
X0320393Y0022336D01*
X0320299Y0022268D01*
X0320203Y0022204D01*
X0320104Y0022144D01*
X0320004Y0022087D01*
X0319902Y0022033D01*
X0319798Y0021983D01*
X0319692Y0021936D01*
X0319585Y0021893D01*
X0319476Y0021854D01*
X0319366Y0021819D01*
X0319255Y0021788D01*
X0319143Y0021760D01*
X0319030Y0021736D01*
X0318916Y0021716D01*
X0318801Y0021700D01*
X0318686Y0021688D01*
X0318571Y0021680D01*
X0318456Y0021676D01*
X0318340Y0021676D01*
X0318225Y0021680D01*
X0318110Y0021688D01*
X0317995Y0021700D01*
X0317880Y0021716D01*
X0317766Y0021736D01*
X0317653Y0021760D01*
X0317541Y0021788D01*
X0317430Y0021819D01*
X0317320Y0021854D01*
X0317211Y0021893D01*
X0317104Y0021936D01*
X0316998Y0021983D01*
X0316894Y0022033D01*
X0316792Y0022087D01*
X0316692Y0022144D01*
X0316593Y0022204D01*
X0316497Y0022268D01*
X0316403Y0022336D01*
X0316312Y0022406D01*
X0316223Y0022480D01*
X0316136Y0022556D01*
X0316053Y0022636D01*
X0315972Y0022718D01*
X0315893Y0022803D01*
X0315818Y0022891D01*
X0315746Y0022981D01*
X0315678Y0023074D01*
X0315612Y0023169D01*
X0315550Y0023266D01*
X0315491Y0023366D01*
X0315435Y0023467D01*
X0315383Y0023570D01*
X0315335Y0023675D01*
X0315290Y0023782D01*
X0315249Y0023890D01*
X0315212Y0023999D01*
X0315179Y0024110D01*
X0315149Y0024221D01*
X0315124Y0024334D01*
X0315102Y0024447D01*
X0315084Y0024561D01*
X0315070Y0024676D01*
X0315060Y0024791D01*
X0315054Y0024907D01*
X0315052Y0025022D01*
X0315052Y0052581D02*
X0315054Y0052696D01*
X0315060Y0052812D01*
X0315070Y0052927D01*
X0315084Y0053042D01*
X0315102Y0053156D01*
X0315124Y0053269D01*
X0315149Y0053382D01*
X0315179Y0053493D01*
X0315212Y0053604D01*
X0315249Y0053713D01*
X0315290Y0053821D01*
X0315335Y0053928D01*
X0315383Y0054033D01*
X0315435Y0054136D01*
X0315491Y0054237D01*
X0315550Y0054337D01*
X0315612Y0054434D01*
X0315678Y0054529D01*
X0315746Y0054622D01*
X0315818Y0054712D01*
X0315893Y0054800D01*
X0315972Y0054885D01*
X0316053Y0054967D01*
X0316136Y0055047D01*
X0316223Y0055123D01*
X0316312Y0055197D01*
X0316403Y0055267D01*
X0316497Y0055335D01*
X0316593Y0055399D01*
X0316692Y0055459D01*
X0316792Y0055516D01*
X0316894Y0055570D01*
X0316998Y0055620D01*
X0317104Y0055667D01*
X0317211Y0055710D01*
X0317320Y0055749D01*
X0317430Y0055784D01*
X0317541Y0055815D01*
X0317653Y0055843D01*
X0317766Y0055867D01*
X0317880Y0055887D01*
X0317995Y0055903D01*
X0318110Y0055915D01*
X0318225Y0055923D01*
X0318340Y0055927D01*
X0318456Y0055927D01*
X0318571Y0055923D01*
X0318686Y0055915D01*
X0318801Y0055903D01*
X0318916Y0055887D01*
X0319030Y0055867D01*
X0319143Y0055843D01*
X0319255Y0055815D01*
X0319366Y0055784D01*
X0319476Y0055749D01*
X0319585Y0055710D01*
X0319692Y0055667D01*
X0319798Y0055620D01*
X0319902Y0055570D01*
X0320004Y0055516D01*
X0320104Y0055459D01*
X0320203Y0055399D01*
X0320299Y0055335D01*
X0320393Y0055267D01*
X0320484Y0055197D01*
X0320573Y0055123D01*
X0320660Y0055047D01*
X0320743Y0054967D01*
X0320824Y0054885D01*
X0320903Y0054800D01*
X0320978Y0054712D01*
X0321050Y0054622D01*
X0321118Y0054529D01*
X0321184Y0054434D01*
X0321246Y0054337D01*
X0321305Y0054237D01*
X0321361Y0054136D01*
X0321413Y0054033D01*
X0321461Y0053928D01*
X0321506Y0053821D01*
X0321547Y0053713D01*
X0321584Y0053604D01*
X0321617Y0053493D01*
X0321647Y0053382D01*
X0321672Y0053269D01*
X0321694Y0053156D01*
X0321712Y0053042D01*
X0321726Y0052927D01*
X0321736Y0052812D01*
X0321742Y0052696D01*
X0321744Y0052581D01*
X0321742Y0052466D01*
X0321736Y0052350D01*
X0321726Y0052235D01*
X0321712Y0052120D01*
X0321694Y0052006D01*
X0321672Y0051893D01*
X0321647Y0051780D01*
X0321617Y0051669D01*
X0321584Y0051558D01*
X0321547Y0051449D01*
X0321506Y0051341D01*
X0321461Y0051234D01*
X0321413Y0051129D01*
X0321361Y0051026D01*
X0321305Y0050925D01*
X0321246Y0050825D01*
X0321184Y0050728D01*
X0321118Y0050633D01*
X0321050Y0050540D01*
X0320978Y0050450D01*
X0320903Y0050362D01*
X0320824Y0050277D01*
X0320743Y0050195D01*
X0320660Y0050115D01*
X0320573Y0050039D01*
X0320484Y0049965D01*
X0320393Y0049895D01*
X0320299Y0049827D01*
X0320203Y0049763D01*
X0320104Y0049703D01*
X0320004Y0049646D01*
X0319902Y0049592D01*
X0319798Y0049542D01*
X0319692Y0049495D01*
X0319585Y0049452D01*
X0319476Y0049413D01*
X0319366Y0049378D01*
X0319255Y0049347D01*
X0319143Y0049319D01*
X0319030Y0049295D01*
X0318916Y0049275D01*
X0318801Y0049259D01*
X0318686Y0049247D01*
X0318571Y0049239D01*
X0318456Y0049235D01*
X0318340Y0049235D01*
X0318225Y0049239D01*
X0318110Y0049247D01*
X0317995Y0049259D01*
X0317880Y0049275D01*
X0317766Y0049295D01*
X0317653Y0049319D01*
X0317541Y0049347D01*
X0317430Y0049378D01*
X0317320Y0049413D01*
X0317211Y0049452D01*
X0317104Y0049495D01*
X0316998Y0049542D01*
X0316894Y0049592D01*
X0316792Y0049646D01*
X0316692Y0049703D01*
X0316593Y0049763D01*
X0316497Y0049827D01*
X0316403Y0049895D01*
X0316312Y0049965D01*
X0316223Y0050039D01*
X0316136Y0050115D01*
X0316053Y0050195D01*
X0315972Y0050277D01*
X0315893Y0050362D01*
X0315818Y0050450D01*
X0315746Y0050540D01*
X0315678Y0050633D01*
X0315612Y0050728D01*
X0315550Y0050825D01*
X0315491Y0050925D01*
X0315435Y0051026D01*
X0315383Y0051129D01*
X0315335Y0051234D01*
X0315290Y0051341D01*
X0315249Y0051449D01*
X0315212Y0051558D01*
X0315179Y0051669D01*
X0315149Y0051780D01*
X0315124Y0051893D01*
X0315102Y0052006D01*
X0315084Y0052120D01*
X0315070Y0052235D01*
X0315060Y0052350D01*
X0315054Y0052466D01*
X0315052Y0052581D01*
X0265052Y0052581D02*
X0265054Y0052696D01*
X0265060Y0052812D01*
X0265070Y0052927D01*
X0265084Y0053042D01*
X0265102Y0053156D01*
X0265124Y0053269D01*
X0265149Y0053382D01*
X0265179Y0053493D01*
X0265212Y0053604D01*
X0265249Y0053713D01*
X0265290Y0053821D01*
X0265335Y0053928D01*
X0265383Y0054033D01*
X0265435Y0054136D01*
X0265491Y0054237D01*
X0265550Y0054337D01*
X0265612Y0054434D01*
X0265678Y0054529D01*
X0265746Y0054622D01*
X0265818Y0054712D01*
X0265893Y0054800D01*
X0265972Y0054885D01*
X0266053Y0054967D01*
X0266136Y0055047D01*
X0266223Y0055123D01*
X0266312Y0055197D01*
X0266403Y0055267D01*
X0266497Y0055335D01*
X0266593Y0055399D01*
X0266692Y0055459D01*
X0266792Y0055516D01*
X0266894Y0055570D01*
X0266998Y0055620D01*
X0267104Y0055667D01*
X0267211Y0055710D01*
X0267320Y0055749D01*
X0267430Y0055784D01*
X0267541Y0055815D01*
X0267653Y0055843D01*
X0267766Y0055867D01*
X0267880Y0055887D01*
X0267995Y0055903D01*
X0268110Y0055915D01*
X0268225Y0055923D01*
X0268340Y0055927D01*
X0268456Y0055927D01*
X0268571Y0055923D01*
X0268686Y0055915D01*
X0268801Y0055903D01*
X0268916Y0055887D01*
X0269030Y0055867D01*
X0269143Y0055843D01*
X0269255Y0055815D01*
X0269366Y0055784D01*
X0269476Y0055749D01*
X0269585Y0055710D01*
X0269692Y0055667D01*
X0269798Y0055620D01*
X0269902Y0055570D01*
X0270004Y0055516D01*
X0270104Y0055459D01*
X0270203Y0055399D01*
X0270299Y0055335D01*
X0270393Y0055267D01*
X0270484Y0055197D01*
X0270573Y0055123D01*
X0270660Y0055047D01*
X0270743Y0054967D01*
X0270824Y0054885D01*
X0270903Y0054800D01*
X0270978Y0054712D01*
X0271050Y0054622D01*
X0271118Y0054529D01*
X0271184Y0054434D01*
X0271246Y0054337D01*
X0271305Y0054237D01*
X0271361Y0054136D01*
X0271413Y0054033D01*
X0271461Y0053928D01*
X0271506Y0053821D01*
X0271547Y0053713D01*
X0271584Y0053604D01*
X0271617Y0053493D01*
X0271647Y0053382D01*
X0271672Y0053269D01*
X0271694Y0053156D01*
X0271712Y0053042D01*
X0271726Y0052927D01*
X0271736Y0052812D01*
X0271742Y0052696D01*
X0271744Y0052581D01*
X0271742Y0052466D01*
X0271736Y0052350D01*
X0271726Y0052235D01*
X0271712Y0052120D01*
X0271694Y0052006D01*
X0271672Y0051893D01*
X0271647Y0051780D01*
X0271617Y0051669D01*
X0271584Y0051558D01*
X0271547Y0051449D01*
X0271506Y0051341D01*
X0271461Y0051234D01*
X0271413Y0051129D01*
X0271361Y0051026D01*
X0271305Y0050925D01*
X0271246Y0050825D01*
X0271184Y0050728D01*
X0271118Y0050633D01*
X0271050Y0050540D01*
X0270978Y0050450D01*
X0270903Y0050362D01*
X0270824Y0050277D01*
X0270743Y0050195D01*
X0270660Y0050115D01*
X0270573Y0050039D01*
X0270484Y0049965D01*
X0270393Y0049895D01*
X0270299Y0049827D01*
X0270203Y0049763D01*
X0270104Y0049703D01*
X0270004Y0049646D01*
X0269902Y0049592D01*
X0269798Y0049542D01*
X0269692Y0049495D01*
X0269585Y0049452D01*
X0269476Y0049413D01*
X0269366Y0049378D01*
X0269255Y0049347D01*
X0269143Y0049319D01*
X0269030Y0049295D01*
X0268916Y0049275D01*
X0268801Y0049259D01*
X0268686Y0049247D01*
X0268571Y0049239D01*
X0268456Y0049235D01*
X0268340Y0049235D01*
X0268225Y0049239D01*
X0268110Y0049247D01*
X0267995Y0049259D01*
X0267880Y0049275D01*
X0267766Y0049295D01*
X0267653Y0049319D01*
X0267541Y0049347D01*
X0267430Y0049378D01*
X0267320Y0049413D01*
X0267211Y0049452D01*
X0267104Y0049495D01*
X0266998Y0049542D01*
X0266894Y0049592D01*
X0266792Y0049646D01*
X0266692Y0049703D01*
X0266593Y0049763D01*
X0266497Y0049827D01*
X0266403Y0049895D01*
X0266312Y0049965D01*
X0266223Y0050039D01*
X0266136Y0050115D01*
X0266053Y0050195D01*
X0265972Y0050277D01*
X0265893Y0050362D01*
X0265818Y0050450D01*
X0265746Y0050540D01*
X0265678Y0050633D01*
X0265612Y0050728D01*
X0265550Y0050825D01*
X0265491Y0050925D01*
X0265435Y0051026D01*
X0265383Y0051129D01*
X0265335Y0051234D01*
X0265290Y0051341D01*
X0265249Y0051449D01*
X0265212Y0051558D01*
X0265179Y0051669D01*
X0265149Y0051780D01*
X0265124Y0051893D01*
X0265102Y0052006D01*
X0265084Y0052120D01*
X0265070Y0052235D01*
X0265060Y0052350D01*
X0265054Y0052466D01*
X0265052Y0052581D01*
X0353928Y0085892D02*
X0353930Y0086007D01*
X0353936Y0086123D01*
X0353946Y0086238D01*
X0353960Y0086353D01*
X0353978Y0086467D01*
X0354000Y0086580D01*
X0354025Y0086693D01*
X0354055Y0086804D01*
X0354088Y0086915D01*
X0354125Y0087024D01*
X0354166Y0087132D01*
X0354211Y0087239D01*
X0354259Y0087344D01*
X0354311Y0087447D01*
X0354367Y0087548D01*
X0354426Y0087648D01*
X0354488Y0087745D01*
X0354554Y0087840D01*
X0354622Y0087933D01*
X0354694Y0088023D01*
X0354769Y0088111D01*
X0354848Y0088196D01*
X0354929Y0088278D01*
X0355012Y0088358D01*
X0355099Y0088434D01*
X0355188Y0088508D01*
X0355279Y0088578D01*
X0355373Y0088646D01*
X0355469Y0088710D01*
X0355568Y0088770D01*
X0355668Y0088827D01*
X0355770Y0088881D01*
X0355874Y0088931D01*
X0355980Y0088978D01*
X0356087Y0089021D01*
X0356196Y0089060D01*
X0356306Y0089095D01*
X0356417Y0089126D01*
X0356529Y0089154D01*
X0356642Y0089178D01*
X0356756Y0089198D01*
X0356871Y0089214D01*
X0356986Y0089226D01*
X0357101Y0089234D01*
X0357216Y0089238D01*
X0357332Y0089238D01*
X0357447Y0089234D01*
X0357562Y0089226D01*
X0357677Y0089214D01*
X0357792Y0089198D01*
X0357906Y0089178D01*
X0358019Y0089154D01*
X0358131Y0089126D01*
X0358242Y0089095D01*
X0358352Y0089060D01*
X0358461Y0089021D01*
X0358568Y0088978D01*
X0358674Y0088931D01*
X0358778Y0088881D01*
X0358880Y0088827D01*
X0358980Y0088770D01*
X0359079Y0088710D01*
X0359175Y0088646D01*
X0359269Y0088578D01*
X0359360Y0088508D01*
X0359449Y0088434D01*
X0359536Y0088358D01*
X0359619Y0088278D01*
X0359700Y0088196D01*
X0359779Y0088111D01*
X0359854Y0088023D01*
X0359926Y0087933D01*
X0359994Y0087840D01*
X0360060Y0087745D01*
X0360122Y0087648D01*
X0360181Y0087548D01*
X0360237Y0087447D01*
X0360289Y0087344D01*
X0360337Y0087239D01*
X0360382Y0087132D01*
X0360423Y0087024D01*
X0360460Y0086915D01*
X0360493Y0086804D01*
X0360523Y0086693D01*
X0360548Y0086580D01*
X0360570Y0086467D01*
X0360588Y0086353D01*
X0360602Y0086238D01*
X0360612Y0086123D01*
X0360618Y0086007D01*
X0360620Y0085892D01*
X0360618Y0085777D01*
X0360612Y0085661D01*
X0360602Y0085546D01*
X0360588Y0085431D01*
X0360570Y0085317D01*
X0360548Y0085204D01*
X0360523Y0085091D01*
X0360493Y0084980D01*
X0360460Y0084869D01*
X0360423Y0084760D01*
X0360382Y0084652D01*
X0360337Y0084545D01*
X0360289Y0084440D01*
X0360237Y0084337D01*
X0360181Y0084236D01*
X0360122Y0084136D01*
X0360060Y0084039D01*
X0359994Y0083944D01*
X0359926Y0083851D01*
X0359854Y0083761D01*
X0359779Y0083673D01*
X0359700Y0083588D01*
X0359619Y0083506D01*
X0359536Y0083426D01*
X0359449Y0083350D01*
X0359360Y0083276D01*
X0359269Y0083206D01*
X0359175Y0083138D01*
X0359079Y0083074D01*
X0358980Y0083014D01*
X0358880Y0082957D01*
X0358778Y0082903D01*
X0358674Y0082853D01*
X0358568Y0082806D01*
X0358461Y0082763D01*
X0358352Y0082724D01*
X0358242Y0082689D01*
X0358131Y0082658D01*
X0358019Y0082630D01*
X0357906Y0082606D01*
X0357792Y0082586D01*
X0357677Y0082570D01*
X0357562Y0082558D01*
X0357447Y0082550D01*
X0357332Y0082546D01*
X0357216Y0082546D01*
X0357101Y0082550D01*
X0356986Y0082558D01*
X0356871Y0082570D01*
X0356756Y0082586D01*
X0356642Y0082606D01*
X0356529Y0082630D01*
X0356417Y0082658D01*
X0356306Y0082689D01*
X0356196Y0082724D01*
X0356087Y0082763D01*
X0355980Y0082806D01*
X0355874Y0082853D01*
X0355770Y0082903D01*
X0355668Y0082957D01*
X0355568Y0083014D01*
X0355469Y0083074D01*
X0355373Y0083138D01*
X0355279Y0083206D01*
X0355188Y0083276D01*
X0355099Y0083350D01*
X0355012Y0083426D01*
X0354929Y0083506D01*
X0354848Y0083588D01*
X0354769Y0083673D01*
X0354694Y0083761D01*
X0354622Y0083851D01*
X0354554Y0083944D01*
X0354488Y0084039D01*
X0354426Y0084136D01*
X0354367Y0084236D01*
X0354311Y0084337D01*
X0354259Y0084440D01*
X0354211Y0084545D01*
X0354166Y0084652D01*
X0354125Y0084760D01*
X0354088Y0084869D01*
X0354055Y0084980D01*
X0354025Y0085091D01*
X0354000Y0085204D01*
X0353978Y0085317D01*
X0353960Y0085431D01*
X0353946Y0085546D01*
X0353936Y0085661D01*
X0353930Y0085777D01*
X0353928Y0085892D01*
X0381487Y0085892D02*
X0381489Y0086007D01*
X0381495Y0086123D01*
X0381505Y0086238D01*
X0381519Y0086353D01*
X0381537Y0086467D01*
X0381559Y0086580D01*
X0381584Y0086693D01*
X0381614Y0086804D01*
X0381647Y0086915D01*
X0381684Y0087024D01*
X0381725Y0087132D01*
X0381770Y0087239D01*
X0381818Y0087344D01*
X0381870Y0087447D01*
X0381926Y0087548D01*
X0381985Y0087648D01*
X0382047Y0087745D01*
X0382113Y0087840D01*
X0382181Y0087933D01*
X0382253Y0088023D01*
X0382328Y0088111D01*
X0382407Y0088196D01*
X0382488Y0088278D01*
X0382571Y0088358D01*
X0382658Y0088434D01*
X0382747Y0088508D01*
X0382838Y0088578D01*
X0382932Y0088646D01*
X0383028Y0088710D01*
X0383127Y0088770D01*
X0383227Y0088827D01*
X0383329Y0088881D01*
X0383433Y0088931D01*
X0383539Y0088978D01*
X0383646Y0089021D01*
X0383755Y0089060D01*
X0383865Y0089095D01*
X0383976Y0089126D01*
X0384088Y0089154D01*
X0384201Y0089178D01*
X0384315Y0089198D01*
X0384430Y0089214D01*
X0384545Y0089226D01*
X0384660Y0089234D01*
X0384775Y0089238D01*
X0384891Y0089238D01*
X0385006Y0089234D01*
X0385121Y0089226D01*
X0385236Y0089214D01*
X0385351Y0089198D01*
X0385465Y0089178D01*
X0385578Y0089154D01*
X0385690Y0089126D01*
X0385801Y0089095D01*
X0385911Y0089060D01*
X0386020Y0089021D01*
X0386127Y0088978D01*
X0386233Y0088931D01*
X0386337Y0088881D01*
X0386439Y0088827D01*
X0386539Y0088770D01*
X0386638Y0088710D01*
X0386734Y0088646D01*
X0386828Y0088578D01*
X0386919Y0088508D01*
X0387008Y0088434D01*
X0387095Y0088358D01*
X0387178Y0088278D01*
X0387259Y0088196D01*
X0387338Y0088111D01*
X0387413Y0088023D01*
X0387485Y0087933D01*
X0387553Y0087840D01*
X0387619Y0087745D01*
X0387681Y0087648D01*
X0387740Y0087548D01*
X0387796Y0087447D01*
X0387848Y0087344D01*
X0387896Y0087239D01*
X0387941Y0087132D01*
X0387982Y0087024D01*
X0388019Y0086915D01*
X0388052Y0086804D01*
X0388082Y0086693D01*
X0388107Y0086580D01*
X0388129Y0086467D01*
X0388147Y0086353D01*
X0388161Y0086238D01*
X0388171Y0086123D01*
X0388177Y0086007D01*
X0388179Y0085892D01*
X0388177Y0085777D01*
X0388171Y0085661D01*
X0388161Y0085546D01*
X0388147Y0085431D01*
X0388129Y0085317D01*
X0388107Y0085204D01*
X0388082Y0085091D01*
X0388052Y0084980D01*
X0388019Y0084869D01*
X0387982Y0084760D01*
X0387941Y0084652D01*
X0387896Y0084545D01*
X0387848Y0084440D01*
X0387796Y0084337D01*
X0387740Y0084236D01*
X0387681Y0084136D01*
X0387619Y0084039D01*
X0387553Y0083944D01*
X0387485Y0083851D01*
X0387413Y0083761D01*
X0387338Y0083673D01*
X0387259Y0083588D01*
X0387178Y0083506D01*
X0387095Y0083426D01*
X0387008Y0083350D01*
X0386919Y0083276D01*
X0386828Y0083206D01*
X0386734Y0083138D01*
X0386638Y0083074D01*
X0386539Y0083014D01*
X0386439Y0082957D01*
X0386337Y0082903D01*
X0386233Y0082853D01*
X0386127Y0082806D01*
X0386020Y0082763D01*
X0385911Y0082724D01*
X0385801Y0082689D01*
X0385690Y0082658D01*
X0385578Y0082630D01*
X0385465Y0082606D01*
X0385351Y0082586D01*
X0385236Y0082570D01*
X0385121Y0082558D01*
X0385006Y0082550D01*
X0384891Y0082546D01*
X0384775Y0082546D01*
X0384660Y0082550D01*
X0384545Y0082558D01*
X0384430Y0082570D01*
X0384315Y0082586D01*
X0384201Y0082606D01*
X0384088Y0082630D01*
X0383976Y0082658D01*
X0383865Y0082689D01*
X0383755Y0082724D01*
X0383646Y0082763D01*
X0383539Y0082806D01*
X0383433Y0082853D01*
X0383329Y0082903D01*
X0383227Y0082957D01*
X0383127Y0083014D01*
X0383028Y0083074D01*
X0382932Y0083138D01*
X0382838Y0083206D01*
X0382747Y0083276D01*
X0382658Y0083350D01*
X0382571Y0083426D01*
X0382488Y0083506D01*
X0382407Y0083588D01*
X0382328Y0083673D01*
X0382253Y0083761D01*
X0382181Y0083851D01*
X0382113Y0083944D01*
X0382047Y0084039D01*
X0381985Y0084136D01*
X0381926Y0084236D01*
X0381870Y0084337D01*
X0381818Y0084440D01*
X0381770Y0084545D01*
X0381725Y0084652D01*
X0381684Y0084760D01*
X0381647Y0084869D01*
X0381614Y0084980D01*
X0381584Y0085091D01*
X0381559Y0085204D01*
X0381537Y0085317D01*
X0381519Y0085431D01*
X0381505Y0085546D01*
X0381495Y0085661D01*
X0381489Y0085777D01*
X0381487Y0085892D01*
X0379892Y0134081D02*
X0379894Y0134162D01*
X0379900Y0134244D01*
X0379910Y0134325D01*
X0379924Y0134405D01*
X0379941Y0134484D01*
X0379963Y0134563D01*
X0379988Y0134640D01*
X0380017Y0134717D01*
X0380050Y0134791D01*
X0380087Y0134864D01*
X0380126Y0134935D01*
X0380170Y0135004D01*
X0380216Y0135071D01*
X0380266Y0135135D01*
X0380319Y0135197D01*
X0380375Y0135257D01*
X0380433Y0135313D01*
X0380495Y0135367D01*
X0380559Y0135418D01*
X0380625Y0135465D01*
X0380693Y0135509D01*
X0380764Y0135550D01*
X0380836Y0135587D01*
X0380911Y0135621D01*
X0380986Y0135651D01*
X0381064Y0135677D01*
X0381142Y0135700D01*
X0381221Y0135718D01*
X0381301Y0135733D01*
X0381382Y0135744D01*
X0381463Y0135751D01*
X0381545Y0135754D01*
X0381626Y0135753D01*
X0381707Y0135748D01*
X0381788Y0135739D01*
X0381869Y0135726D01*
X0381949Y0135709D01*
X0382027Y0135689D01*
X0382105Y0135664D01*
X0382182Y0135636D01*
X0382257Y0135604D01*
X0382330Y0135569D01*
X0382401Y0135530D01*
X0382471Y0135487D01*
X0382538Y0135442D01*
X0382604Y0135393D01*
X0382666Y0135341D01*
X0382726Y0135285D01*
X0382783Y0135227D01*
X0382838Y0135167D01*
X0382889Y0135103D01*
X0382937Y0135038D01*
X0382982Y0134970D01*
X0383024Y0134900D01*
X0383062Y0134828D01*
X0383097Y0134754D01*
X0383128Y0134679D01*
X0383155Y0134602D01*
X0383178Y0134524D01*
X0383198Y0134445D01*
X0383214Y0134365D01*
X0383226Y0134284D01*
X0383234Y0134203D01*
X0383238Y0134122D01*
X0383238Y0134040D01*
X0383234Y0133959D01*
X0383226Y0133878D01*
X0383214Y0133797D01*
X0383198Y0133717D01*
X0383178Y0133638D01*
X0383155Y0133560D01*
X0383128Y0133483D01*
X0383097Y0133408D01*
X0383062Y0133334D01*
X0383024Y0133262D01*
X0382982Y0133192D01*
X0382937Y0133124D01*
X0382889Y0133059D01*
X0382838Y0132995D01*
X0382783Y0132935D01*
X0382726Y0132877D01*
X0382666Y0132821D01*
X0382604Y0132769D01*
X0382538Y0132720D01*
X0382471Y0132675D01*
X0382402Y0132632D01*
X0382330Y0132593D01*
X0382257Y0132558D01*
X0382182Y0132526D01*
X0382105Y0132498D01*
X0382027Y0132473D01*
X0381949Y0132453D01*
X0381869Y0132436D01*
X0381788Y0132423D01*
X0381707Y0132414D01*
X0381626Y0132409D01*
X0381545Y0132408D01*
X0381463Y0132411D01*
X0381382Y0132418D01*
X0381301Y0132429D01*
X0381221Y0132444D01*
X0381142Y0132462D01*
X0381064Y0132485D01*
X0380986Y0132511D01*
X0380911Y0132541D01*
X0380836Y0132575D01*
X0380764Y0132612D01*
X0380693Y0132653D01*
X0380625Y0132697D01*
X0380559Y0132744D01*
X0380495Y0132795D01*
X0380433Y0132849D01*
X0380375Y0132905D01*
X0380319Y0132965D01*
X0380266Y0133027D01*
X0380216Y0133091D01*
X0380170Y0133158D01*
X0380126Y0133227D01*
X0380087Y0133298D01*
X0380050Y0133371D01*
X0380017Y0133445D01*
X0379988Y0133522D01*
X0379963Y0133599D01*
X0379941Y0133678D01*
X0379924Y0133757D01*
X0379910Y0133837D01*
X0379900Y0133918D01*
X0379894Y0134000D01*
X0379892Y0134081D01*
X0379892Y0149042D02*
X0379894Y0149123D01*
X0379900Y0149205D01*
X0379910Y0149286D01*
X0379924Y0149366D01*
X0379941Y0149445D01*
X0379963Y0149524D01*
X0379988Y0149601D01*
X0380017Y0149678D01*
X0380050Y0149752D01*
X0380087Y0149825D01*
X0380126Y0149896D01*
X0380170Y0149965D01*
X0380216Y0150032D01*
X0380266Y0150096D01*
X0380319Y0150158D01*
X0380375Y0150218D01*
X0380433Y0150274D01*
X0380495Y0150328D01*
X0380559Y0150379D01*
X0380625Y0150426D01*
X0380693Y0150470D01*
X0380764Y0150511D01*
X0380836Y0150548D01*
X0380911Y0150582D01*
X0380986Y0150612D01*
X0381064Y0150638D01*
X0381142Y0150661D01*
X0381221Y0150679D01*
X0381301Y0150694D01*
X0381382Y0150705D01*
X0381463Y0150712D01*
X0381545Y0150715D01*
X0381626Y0150714D01*
X0381707Y0150709D01*
X0381788Y0150700D01*
X0381869Y0150687D01*
X0381949Y0150670D01*
X0382027Y0150650D01*
X0382105Y0150625D01*
X0382182Y0150597D01*
X0382257Y0150565D01*
X0382330Y0150530D01*
X0382401Y0150491D01*
X0382471Y0150448D01*
X0382538Y0150403D01*
X0382604Y0150354D01*
X0382666Y0150302D01*
X0382726Y0150246D01*
X0382783Y0150188D01*
X0382838Y0150128D01*
X0382889Y0150064D01*
X0382937Y0149999D01*
X0382982Y0149931D01*
X0383024Y0149861D01*
X0383062Y0149789D01*
X0383097Y0149715D01*
X0383128Y0149640D01*
X0383155Y0149563D01*
X0383178Y0149485D01*
X0383198Y0149406D01*
X0383214Y0149326D01*
X0383226Y0149245D01*
X0383234Y0149164D01*
X0383238Y0149083D01*
X0383238Y0149001D01*
X0383234Y0148920D01*
X0383226Y0148839D01*
X0383214Y0148758D01*
X0383198Y0148678D01*
X0383178Y0148599D01*
X0383155Y0148521D01*
X0383128Y0148444D01*
X0383097Y0148369D01*
X0383062Y0148295D01*
X0383024Y0148223D01*
X0382982Y0148153D01*
X0382937Y0148085D01*
X0382889Y0148020D01*
X0382838Y0147956D01*
X0382783Y0147896D01*
X0382726Y0147838D01*
X0382666Y0147782D01*
X0382604Y0147730D01*
X0382538Y0147681D01*
X0382471Y0147636D01*
X0382402Y0147593D01*
X0382330Y0147554D01*
X0382257Y0147519D01*
X0382182Y0147487D01*
X0382105Y0147459D01*
X0382027Y0147434D01*
X0381949Y0147414D01*
X0381869Y0147397D01*
X0381788Y0147384D01*
X0381707Y0147375D01*
X0381626Y0147370D01*
X0381545Y0147369D01*
X0381463Y0147372D01*
X0381382Y0147379D01*
X0381301Y0147390D01*
X0381221Y0147405D01*
X0381142Y0147423D01*
X0381064Y0147446D01*
X0380986Y0147472D01*
X0380911Y0147502D01*
X0380836Y0147536D01*
X0380764Y0147573D01*
X0380693Y0147614D01*
X0380625Y0147658D01*
X0380559Y0147705D01*
X0380495Y0147756D01*
X0380433Y0147810D01*
X0380375Y0147866D01*
X0380319Y0147926D01*
X0380266Y0147988D01*
X0380216Y0148052D01*
X0380170Y0148119D01*
X0380126Y0148188D01*
X0380087Y0148259D01*
X0380050Y0148332D01*
X0380017Y0148406D01*
X0379988Y0148483D01*
X0379963Y0148560D01*
X0379941Y0148639D01*
X0379924Y0148718D01*
X0379910Y0148798D01*
X0379900Y0148879D01*
X0379894Y0148961D01*
X0379892Y0149042D01*
M02*
