G75*
%MOIN*%
%OFA0B0*%
%FSLAX25Y25*%
%IPPOS*%
%LPD*%
%AMOC8*
5,1,8,0,0,1.08239X$1,22.5*
%
%ADD10C,0.07300*%
%ADD11R,0.07300X0.07300*%
%ADD12R,0.10643X0.09461*%
%ADD13R,0.10643X0.11824*%
%ADD14R,0.11824X0.10643*%
%ADD15C,0.07493*%
%ADD16R,0.09461X0.10643*%
%ADD17C,0.08200*%
%ADD18R,0.06737X0.06737*%
%ADD19C,0.07887*%
%ADD20R,0.06509X0.02375*%
%ADD21C,0.04146*%
%ADD22R,0.06693X0.07874*%
%ADD23R,0.06693X0.10630*%
%ADD24C,0.03778*%
D10*
X0368848Y0121916D03*
D11*
X0368848Y0111916D03*
D12*
X0042904Y0021128D03*
X0062589Y0028609D03*
X0092904Y0021128D03*
X0132847Y0028369D03*
X0163162Y0020888D03*
X0182847Y0028369D03*
X0213162Y0020888D03*
X0253241Y0028172D03*
X0283556Y0020691D03*
X0303241Y0028172D03*
X0333556Y0020691D03*
X0012589Y0028609D03*
D13*
X0042904Y0057743D03*
X0092904Y0057743D03*
X0163162Y0057502D03*
X0213162Y0057502D03*
X0283556Y0057306D03*
X0333556Y0057306D03*
X0336211Y0082939D03*
D14*
X0315445Y0073644D03*
X0265445Y0073644D03*
X0195052Y0073841D03*
X0145052Y0073841D03*
X0074793Y0074081D03*
X0024793Y0074081D03*
X0352549Y0101050D03*
D15*
X0357274Y0085892D03*
X0384833Y0085892D03*
X0318398Y0052581D03*
X0268398Y0052581D03*
X0268398Y0025022D03*
X0318398Y0025022D03*
X0198005Y0025219D03*
X0148005Y0025219D03*
X0148005Y0052778D03*
X0198005Y0052778D03*
X0077746Y0053018D03*
X0027746Y0053018D03*
X0027746Y0025459D03*
X0077746Y0025459D03*
D16*
X0381683Y0070735D03*
X0389163Y0101050D03*
D17*
X0366998Y0141491D03*
X0366998Y0152891D03*
D18*
X0345209Y0114510D03*
X0337335Y0114510D03*
X0329461Y0114510D03*
X0321587Y0114510D03*
X0313713Y0114510D03*
X0285209Y0114510D03*
X0277335Y0114510D03*
X0269461Y0114510D03*
X0261587Y0114510D03*
X0253713Y0114510D03*
X0224816Y0114707D03*
X0216942Y0114707D03*
X0209068Y0114707D03*
X0201193Y0114707D03*
X0193319Y0114707D03*
X0164816Y0114707D03*
X0156942Y0114707D03*
X0149068Y0114707D03*
X0141193Y0114707D03*
X0133319Y0114707D03*
X0104557Y0114947D03*
X0096683Y0114947D03*
X0088809Y0114947D03*
X0080935Y0114947D03*
X0073061Y0114947D03*
X0044557Y0114947D03*
X0036683Y0114947D03*
X0028809Y0114947D03*
X0020935Y0114947D03*
X0013061Y0114947D03*
X0349045Y0051955D03*
X0349045Y0044081D03*
X0349045Y0036207D03*
X0349045Y0028333D03*
X0349045Y0020459D03*
D19*
X0388415Y0017900D03*
X0388415Y0054514D03*
X0347768Y0153880D03*
X0311154Y0153880D03*
X0287768Y0153880D03*
X0251154Y0153880D03*
X0227375Y0154077D03*
X0190760Y0154077D03*
X0167375Y0154077D03*
X0130760Y0154077D03*
X0107116Y0154317D03*
X0070502Y0154317D03*
X0047116Y0154317D03*
X0010502Y0154317D03*
D20*
X0379498Y0146680D03*
X0379498Y0144121D03*
X0379498Y0141561D03*
X0379498Y0139002D03*
X0379498Y0136443D03*
D21*
X0381565Y0134081D03*
X0381565Y0149042D03*
D22*
X0390226Y0156065D03*
X0390226Y0127058D03*
D23*
X0390226Y0141561D03*
D24*
X0309957Y0091902D03*
X0306357Y0092165D03*
X0300957Y0092165D03*
X0318357Y0080765D03*
X0307557Y0071765D03*
X0296757Y0071765D03*
X0186357Y0071765D03*
X0186616Y0091661D03*
X0138957Y0090965D03*
X0129357Y0104765D03*
X0085557Y0099365D03*
X0066357Y0091902D03*
X0074757Y0081365D03*
X0058557Y0072365D03*
X0060357Y0059165D03*
X0213957Y0014165D03*
X0230157Y0121565D03*
X0026757Y0128765D03*
M02*
