G75*
%MOIN*%
%OFA0B0*%
%FSLAX25Y25*%
%IPPOS*%
%LPD*%
%AMOC8*
5,1,8,0,0,1.08239X$1,22.5*
%
%ADD10C,0.00200*%
%ADD11R,0.05118X0.05906*%
%ADD12R,0.04331X0.05512*%
%ADD13R,0.08661X0.02362*%
%ADD14OC8,0.05200*%
%ADD15C,0.05600*%
%ADD16R,0.03150X0.03543*%
%ADD17R,0.03937X0.04331*%
%ADD18R,0.04331X0.03937*%
%ADD19R,0.05787X0.05000*%
%ADD20R,0.03937X0.05512*%
%ADD21R,0.10039X0.10630*%
%ADD22R,0.01575X0.03937*%
%ADD23C,0.07400*%
%ADD24R,0.01575X0.05709*%
%ADD25R,0.07087X0.05906*%
%ADD26R,0.09843X0.05906*%
%ADD27R,0.04724X0.02165*%
%ADD28R,0.01181X0.02756*%
%ADD29R,0.01181X0.01772*%
%ADD30R,0.02165X0.04724*%
%ADD31R,0.06299X0.07087*%
%ADD32R,0.05937X0.05937*%
%ADD33R,0.08268X0.08268*%
%ADD34C,0.00600*%
%ADD35C,0.02978*%
D10*
X0017657Y0082398D02*
X0017657Y0084599D01*
X0018758Y0084599D01*
X0019125Y0084232D01*
X0019125Y0083498D01*
X0018758Y0083131D01*
X0017657Y0083131D01*
X0019867Y0083131D02*
X0020601Y0083131D01*
X0020234Y0083131D02*
X0020234Y0084599D01*
X0019867Y0084599D01*
X0020234Y0085333D02*
X0020234Y0085700D01*
X0021341Y0084232D02*
X0021708Y0084599D01*
X0022442Y0084599D01*
X0022809Y0084232D01*
X0022809Y0083865D01*
X0021341Y0083865D01*
X0021341Y0083498D02*
X0021341Y0084232D01*
X0021341Y0083498D02*
X0021708Y0083131D01*
X0022442Y0083131D01*
X0023550Y0083131D02*
X0025018Y0083131D01*
X0025760Y0083498D02*
X0026127Y0083131D01*
X0026861Y0083131D01*
X0027228Y0083498D01*
X0027228Y0084232D01*
X0026861Y0084599D01*
X0026127Y0084599D01*
X0025760Y0084232D01*
X0025760Y0083498D01*
X0025018Y0084599D02*
X0023550Y0084599D01*
X0025018Y0084599D02*
X0023550Y0083131D01*
X0027970Y0084232D02*
X0029438Y0084232D01*
X0030180Y0083865D02*
X0030914Y0084599D01*
X0031281Y0084599D01*
X0032022Y0084232D02*
X0032389Y0084599D01*
X0033123Y0084599D01*
X0033490Y0084232D01*
X0033490Y0083865D01*
X0032022Y0083865D01*
X0032022Y0083498D02*
X0032022Y0084232D01*
X0032022Y0083498D02*
X0032389Y0083131D01*
X0033123Y0083131D01*
X0034232Y0084599D02*
X0034966Y0083131D01*
X0035699Y0084599D01*
X0036441Y0084232D02*
X0037909Y0084232D01*
X0038651Y0083498D02*
X0039018Y0083131D01*
X0039752Y0083131D01*
X0040119Y0083498D01*
X0040119Y0083865D01*
X0039752Y0084232D01*
X0039385Y0084232D01*
X0039752Y0084232D02*
X0040119Y0084599D01*
X0040119Y0084966D01*
X0039752Y0085333D01*
X0039018Y0085333D01*
X0038651Y0084966D01*
X0040861Y0084232D02*
X0042329Y0084232D01*
X0043071Y0084232D02*
X0044172Y0084232D01*
X0044539Y0083865D01*
X0044539Y0083498D01*
X0044172Y0083131D01*
X0043438Y0083131D01*
X0043071Y0083498D01*
X0043071Y0084232D01*
X0043805Y0084966D01*
X0044539Y0085333D01*
X0030180Y0084599D02*
X0030180Y0083131D01*
D11*
X0158656Y0039118D03*
X0165349Y0039118D03*
D12*
X0099872Y0022500D03*
X0091998Y0022500D03*
X0043203Y0049720D03*
X0035329Y0049720D03*
X0035546Y0066091D03*
X0043420Y0066091D03*
D13*
X0129223Y0065370D03*
X0129223Y0060370D03*
X0129223Y0055370D03*
X0129223Y0050370D03*
X0149695Y0050370D03*
X0149695Y0055370D03*
X0149695Y0060370D03*
X0149695Y0065370D03*
D14*
X0321825Y0057768D03*
X0321825Y0047768D03*
X0322620Y0034335D03*
X0322620Y0024335D03*
D15*
X0168707Y0079228D03*
X0160833Y0079228D03*
D16*
X0179680Y0042528D03*
X0183420Y0034260D03*
X0175939Y0034260D03*
D17*
X0150298Y0039134D03*
X0143605Y0039134D03*
X0136912Y0039043D03*
X0130219Y0039043D03*
X0098668Y0046555D03*
X0091975Y0046555D03*
X0067636Y0047209D03*
X0067636Y0053902D03*
X0070554Y0072878D03*
X0077246Y0072878D03*
X0091680Y0085496D03*
X0098372Y0085496D03*
X0192790Y0062276D03*
X0199483Y0062276D03*
X0212290Y0056618D03*
X0218983Y0056618D03*
X0182620Y0056965D03*
X0175928Y0056965D03*
X0168494Y0056980D03*
X0161802Y0056980D03*
X0211975Y0068673D03*
X0218668Y0068673D03*
X0275215Y0051417D03*
X0281908Y0051417D03*
X0338235Y0037146D03*
X0344928Y0037146D03*
X0308309Y0070150D03*
X0301617Y0070150D03*
X0290774Y0070165D03*
X0284081Y0070165D03*
X0175648Y0022217D03*
X0168955Y0022217D03*
X0157924Y0022059D03*
X0151231Y0022059D03*
X0139262Y0022295D03*
X0132569Y0022295D03*
X0120601Y0022472D03*
X0113908Y0022472D03*
X0078463Y0022327D03*
X0071770Y0022327D03*
D18*
X0060731Y0020843D03*
X0060731Y0027535D03*
X0029227Y0024461D03*
X0022534Y0024461D03*
X0116746Y0039067D03*
X0123439Y0039067D03*
X0118518Y0067768D03*
X0111825Y0067768D03*
X0237266Y0029484D03*
X0243959Y0029484D03*
X0260959Y0037098D03*
X0267652Y0037098D03*
X0275172Y0037020D03*
X0281865Y0037020D03*
X0267494Y0051311D03*
X0260802Y0051311D03*
X0261865Y0084185D03*
X0268557Y0084185D03*
X0275172Y0084264D03*
X0281865Y0084264D03*
X0288715Y0084421D03*
X0295408Y0084421D03*
D19*
X0243246Y0087236D03*
X0243246Y0070307D03*
D20*
X0049235Y0023004D03*
X0041754Y0023004D03*
X0045494Y0031665D03*
D21*
X0119475Y0081933D03*
X0144475Y0081933D03*
D22*
X0098144Y0073933D03*
X0095585Y0073933D03*
X0093026Y0073933D03*
X0090467Y0073933D03*
X0090467Y0056610D03*
X0093026Y0056610D03*
X0095585Y0056610D03*
X0098144Y0056610D03*
D23*
X0299128Y0034944D03*
X0299128Y0023544D03*
D24*
X0212770Y0032075D03*
X0210211Y0032075D03*
X0207652Y0032075D03*
X0205093Y0032075D03*
X0202534Y0032075D03*
D25*
X0193144Y0021346D03*
X0222160Y0021346D03*
D26*
X0207652Y0021346D03*
D27*
X0260175Y0066220D03*
X0260175Y0069961D03*
X0270412Y0069961D03*
X0270412Y0066220D03*
X0270412Y0073701D03*
X0260175Y0073701D03*
D28*
X0277546Y0024181D03*
X0279514Y0024181D03*
X0281483Y0024181D03*
X0281483Y0019850D03*
X0279514Y0019850D03*
X0277546Y0019850D03*
D29*
X0264955Y0019358D03*
X0262987Y0019358D03*
X0261018Y0019358D03*
X0261018Y0024673D03*
X0262987Y0024673D03*
X0264955Y0024673D03*
D30*
X0245518Y0050476D03*
X0241778Y0050476D03*
X0238038Y0050476D03*
X0238038Y0060713D03*
X0245518Y0060713D03*
D31*
X0200290Y0074815D03*
X0189266Y0074815D03*
D32*
X0191904Y0046075D03*
X0207652Y0046075D03*
X0223400Y0046075D03*
D33*
X0227337Y0085445D03*
X0187967Y0085445D03*
D34*
X0028802Y0016998D02*
X0022802Y0022998D01*
X0022802Y0024198D01*
X0022534Y0024461D01*
X0025802Y0022398D02*
X0025802Y0046998D01*
X0030002Y0051198D01*
X0030002Y0076398D01*
X0040202Y0069198D02*
X0043802Y0072798D01*
X0070202Y0072798D01*
X0070554Y0072878D01*
X0070802Y0072798D01*
X0070802Y0071598D01*
X0078002Y0064398D01*
X0107402Y0064398D01*
X0111602Y0060198D01*
X0122402Y0060198D01*
X0127202Y0055398D01*
X0129002Y0055398D01*
X0129223Y0055370D01*
X0124802Y0052998D02*
X0140402Y0052998D01*
X0142802Y0055398D01*
X0142802Y0062598D01*
X0145202Y0064998D01*
X0149402Y0064998D01*
X0149695Y0065370D01*
X0144602Y0062598D02*
X0144002Y0061998D01*
X0144002Y0058998D01*
X0147602Y0055398D01*
X0149402Y0055398D01*
X0149695Y0055370D01*
X0145202Y0052998D02*
X0142802Y0055398D01*
X0145202Y0052998D02*
X0154202Y0052998D01*
X0155402Y0051798D01*
X0155402Y0048798D01*
X0154802Y0048198D01*
X0146402Y0048198D01*
X0137402Y0039198D01*
X0136912Y0039043D01*
X0130219Y0039043D02*
X0130202Y0039198D01*
X0114002Y0022998D01*
X0113908Y0022472D01*
X0113402Y0022398D01*
X0108602Y0017598D01*
X0096602Y0017598D01*
X0094202Y0019998D01*
X0094202Y0020598D01*
X0092402Y0022398D01*
X0091998Y0022500D01*
X0091802Y0022998D01*
X0079202Y0035598D01*
X0070802Y0035598D01*
X0067802Y0032598D01*
X0060602Y0032598D01*
X0043802Y0049398D01*
X0043203Y0049720D01*
X0039602Y0052398D02*
X0039602Y0046998D01*
X0050402Y0036198D01*
X0050402Y0031998D01*
X0058202Y0024198D01*
X0063002Y0024198D01*
X0068402Y0018798D01*
X0073802Y0018798D01*
X0076802Y0021798D01*
X0078002Y0021798D01*
X0078463Y0022327D01*
X0078602Y0021798D01*
X0085202Y0015198D01*
X0237602Y0015198D01*
X0259202Y0036798D01*
X0260402Y0036798D01*
X0260959Y0037098D01*
X0263402Y0032598D02*
X0267602Y0036798D01*
X0267652Y0037098D01*
X0267602Y0037398D01*
X0267602Y0051198D01*
X0267494Y0051311D01*
X0265202Y0054798D02*
X0264002Y0053598D01*
X0264002Y0048798D01*
X0263402Y0048198D01*
X0262802Y0048198D01*
X0244202Y0029598D01*
X0243959Y0029484D01*
X0243602Y0028998D01*
X0242402Y0028998D01*
X0240002Y0026598D01*
X0234602Y0026598D01*
X0234002Y0027198D01*
X0234002Y0056598D01*
X0219002Y0056598D01*
X0218983Y0056618D01*
X0216002Y0052998D02*
X0212402Y0056598D01*
X0212290Y0056618D01*
X0207602Y0058998D02*
X0207602Y0053598D01*
X0213602Y0051198D02*
X0180602Y0051198D01*
X0179402Y0049998D01*
X0168602Y0049998D01*
X0162002Y0056598D01*
X0161802Y0056980D01*
X0161402Y0057198D01*
X0160202Y0057198D01*
X0154802Y0062598D01*
X0144602Y0062598D01*
X0149695Y0060370D02*
X0150002Y0060198D01*
X0151802Y0060198D01*
X0165002Y0046998D01*
X0166802Y0048798D01*
X0180002Y0048798D01*
X0181202Y0049998D01*
X0195602Y0049998D01*
X0199202Y0046398D01*
X0207602Y0046398D01*
X0207652Y0046075D01*
X0213002Y0048198D02*
X0213002Y0032598D01*
X0212770Y0032075D01*
X0220802Y0036198D02*
X0227402Y0042798D01*
X0227402Y0049398D01*
X0228602Y0050598D01*
X0227402Y0049398D02*
X0223802Y0052998D01*
X0216002Y0052998D01*
X0213602Y0051198D02*
X0218402Y0046398D01*
X0223202Y0046398D01*
X0223400Y0046075D01*
X0237602Y0049998D02*
X0238038Y0050476D01*
X0238202Y0050598D01*
X0238202Y0054198D01*
X0243002Y0058998D01*
X0243002Y0069798D01*
X0243246Y0070307D01*
X0240002Y0073998D02*
X0255002Y0073998D01*
X0258602Y0070398D01*
X0259802Y0070398D01*
X0260175Y0069961D01*
X0260175Y0066220D02*
X0260402Y0066198D01*
X0263402Y0063198D01*
X0263402Y0062598D01*
X0265802Y0061398D02*
X0258602Y0054198D01*
X0249602Y0054198D01*
X0246002Y0050598D01*
X0245518Y0050476D01*
X0241802Y0050598D02*
X0241778Y0050476D01*
X0241202Y0049998D01*
X0244202Y0046998D01*
X0247202Y0046998D01*
X0251402Y0051198D01*
X0260402Y0051198D01*
X0260802Y0051311D01*
X0260402Y0051798D01*
X0267002Y0058398D01*
X0267002Y0075198D01*
X0268202Y0076398D01*
X0268202Y0083598D01*
X0268557Y0084185D01*
X0268802Y0084198D01*
X0274802Y0084198D01*
X0275172Y0084264D01*
X0275402Y0084798D01*
X0276602Y0084798D01*
X0282002Y0090198D01*
X0306602Y0090198D01*
X0348002Y0048798D01*
X0348002Y0034398D01*
X0338402Y0024798D01*
X0322802Y0024798D01*
X0322620Y0024335D01*
X0312602Y0036798D02*
X0299402Y0023598D01*
X0299128Y0023544D01*
X0298802Y0030198D02*
X0291002Y0022398D01*
X0286802Y0022398D01*
X0286802Y0019998D01*
X0282602Y0015798D01*
X0261602Y0015798D01*
X0259202Y0018198D01*
X0259202Y0022398D01*
X0261002Y0024198D01*
X0261018Y0024673D01*
X0261002Y0024798D01*
X0261002Y0025998D01*
X0268802Y0033798D01*
X0271802Y0033798D01*
X0274802Y0036798D01*
X0275172Y0037020D01*
X0274802Y0037398D01*
X0271202Y0040998D01*
X0275402Y0043398D02*
X0281402Y0037398D01*
X0281865Y0037020D01*
X0281402Y0036798D01*
X0279602Y0034998D01*
X0279602Y0024198D01*
X0279514Y0024181D01*
X0277546Y0024181D02*
X0277202Y0024198D01*
X0276602Y0024798D01*
X0274802Y0024798D01*
X0274802Y0023598D01*
X0274802Y0024798D02*
X0265202Y0024798D01*
X0264955Y0024673D01*
X0263402Y0024198D02*
X0262987Y0024673D01*
X0263402Y0024198D02*
X0263402Y0022998D01*
X0264002Y0022398D01*
X0270002Y0022398D01*
X0264602Y0020598D02*
X0264602Y0019398D01*
X0264955Y0019358D01*
X0264602Y0020598D02*
X0264002Y0021198D01*
X0261602Y0021198D01*
X0261002Y0020598D01*
X0261002Y0019398D01*
X0261018Y0019358D01*
X0262987Y0019358D02*
X0263402Y0018798D01*
X0263402Y0017598D01*
X0264002Y0016998D01*
X0278402Y0016998D01*
X0279602Y0018198D01*
X0279602Y0019398D01*
X0279514Y0019850D01*
X0281483Y0019850D02*
X0282002Y0019998D01*
X0283202Y0021198D01*
X0284402Y0021198D01*
X0286802Y0022398D02*
X0285602Y0023598D01*
X0282002Y0023598D01*
X0281483Y0024181D01*
X0298802Y0030198D02*
X0301202Y0030198D01*
X0306602Y0035598D01*
X0306602Y0038598D01*
X0308402Y0040998D02*
X0304802Y0040998D01*
X0294602Y0051198D01*
X0282002Y0051198D01*
X0281908Y0051417D01*
X0281402Y0051798D01*
X0278402Y0054798D01*
X0265202Y0054798D01*
X0275215Y0051417D02*
X0275402Y0051198D01*
X0275402Y0043398D01*
X0308402Y0040998D02*
X0312602Y0036798D01*
X0313802Y0037998D01*
X0324002Y0037998D01*
X0324602Y0037398D01*
X0325802Y0037398D01*
X0325802Y0048798D01*
X0318002Y0056598D01*
X0318002Y0075198D01*
X0305402Y0087798D01*
X0292802Y0087798D01*
X0292202Y0087198D01*
X0292202Y0082398D01*
X0287402Y0077598D01*
X0287402Y0067998D01*
X0286202Y0066798D01*
X0282002Y0066798D01*
X0279002Y0069798D01*
X0270602Y0069798D01*
X0270412Y0069961D01*
X0277202Y0073398D02*
X0280202Y0070398D01*
X0283802Y0070398D01*
X0284081Y0070165D01*
X0290774Y0070165D02*
X0291002Y0070398D01*
X0295202Y0070398D01*
X0298202Y0073398D01*
X0304202Y0073398D01*
X0305402Y0072198D01*
X0305402Y0064398D01*
X0321602Y0048198D01*
X0321825Y0047768D01*
X0321825Y0057768D02*
X0321602Y0057798D01*
X0321602Y0073398D01*
X0306002Y0088998D01*
X0292202Y0088998D01*
X0289202Y0085998D01*
X0289202Y0084798D01*
X0288715Y0084421D01*
X0288602Y0084198D01*
X0282002Y0084198D01*
X0281865Y0084264D01*
X0295408Y0084421D02*
X0295802Y0084198D01*
X0307802Y0072198D01*
X0308309Y0070150D01*
X0307802Y0070398D01*
X0307802Y0072198D01*
X0313802Y0072198D01*
X0301617Y0070150D02*
X0301202Y0069798D01*
X0296402Y0069798D01*
X0292202Y0065598D01*
X0271202Y0065598D01*
X0270602Y0066198D01*
X0270412Y0066220D01*
X0265802Y0061398D02*
X0265802Y0072798D01*
X0262202Y0076398D01*
X0220802Y0076398D01*
X0213602Y0069198D01*
X0212402Y0069198D01*
X0211975Y0068673D01*
X0211802Y0069198D01*
X0211802Y0071598D01*
X0192602Y0090798D01*
X0111002Y0090798D01*
X0106202Y0085998D01*
X0098402Y0085998D01*
X0098372Y0085496D01*
X0097802Y0085998D01*
X0094802Y0088998D01*
X0084002Y0088998D01*
X0073802Y0078798D01*
X0073802Y0070398D01*
X0077402Y0066798D01*
X0106802Y0066798D01*
X0109202Y0064398D01*
X0114002Y0064398D01*
X0117002Y0067398D01*
X0118202Y0067398D01*
X0118518Y0067768D01*
X0113402Y0069198D02*
X0112202Y0067998D01*
X0111825Y0067768D01*
X0111602Y0067998D01*
X0101402Y0067998D01*
X0097802Y0071598D01*
X0097802Y0073398D01*
X0098144Y0073933D01*
X0096002Y0073998D02*
X0095585Y0073933D01*
X0096002Y0073998D02*
X0096002Y0076398D01*
X0096602Y0076998D01*
X0102002Y0076998D01*
X0106802Y0072198D01*
X0109202Y0072198D01*
X0111002Y0073998D01*
X0111002Y0079398D01*
X0108002Y0074598D02*
X0102602Y0079998D01*
X0104402Y0082398D02*
X0094802Y0082398D01*
X0085802Y0073398D01*
X0077402Y0073398D01*
X0077246Y0072878D01*
X0090467Y0073933D02*
X0090602Y0073398D01*
X0090602Y0072198D01*
X0091802Y0070998D01*
X0097202Y0070998D01*
X0097802Y0071598D01*
X0090602Y0073998D02*
X0090467Y0073933D01*
X0090602Y0073998D02*
X0090602Y0075798D01*
X0093002Y0078198D01*
X0094202Y0078198D01*
X0090002Y0081198D02*
X0091202Y0082398D01*
X0091202Y0085398D01*
X0091680Y0085496D01*
X0104402Y0082398D02*
X0111602Y0089598D01*
X0158402Y0089598D01*
X0168602Y0079398D01*
X0168707Y0079228D01*
X0165002Y0080598D02*
X0165002Y0077598D01*
X0167402Y0075198D01*
X0189002Y0075198D01*
X0189266Y0074815D01*
X0189602Y0075198D01*
X0195002Y0075198D01*
X0198002Y0074598D02*
X0187802Y0064398D01*
X0175802Y0064398D01*
X0161402Y0078798D01*
X0160833Y0079228D01*
X0165002Y0080598D02*
X0157202Y0088398D01*
X0114002Y0088398D01*
X0113402Y0087798D01*
X0113402Y0069198D01*
X0120002Y0081798D02*
X0129002Y0072798D01*
X0129002Y0065598D01*
X0129223Y0065370D01*
X0129602Y0064998D01*
X0129602Y0060798D01*
X0129223Y0060370D01*
X0124802Y0052998D02*
X0118802Y0058998D01*
X0111002Y0058998D01*
X0106802Y0063198D01*
X0087002Y0063198D01*
X0078002Y0054198D01*
X0067802Y0054198D01*
X0067636Y0053902D01*
X0067202Y0054198D01*
X0063602Y0054198D01*
X0052202Y0065598D01*
X0043802Y0065598D01*
X0043420Y0066091D01*
X0040202Y0064398D02*
X0040202Y0069198D01*
X0035546Y0066091D02*
X0035402Y0065598D01*
X0035402Y0060798D01*
X0035402Y0049998D01*
X0035329Y0049720D01*
X0035402Y0049398D01*
X0035402Y0024198D01*
X0029402Y0024198D01*
X0029227Y0024461D01*
X0035402Y0024198D02*
X0040802Y0024198D01*
X0041402Y0023598D01*
X0041754Y0023004D01*
X0049202Y0023598D02*
X0049235Y0023004D01*
X0049802Y0022998D01*
X0051602Y0021198D01*
X0060602Y0021198D01*
X0060731Y0020843D01*
X0071770Y0022327D02*
X0072002Y0022398D01*
X0072002Y0033198D01*
X0078602Y0029598D02*
X0091802Y0016398D01*
X0235202Y0016398D01*
X0236402Y0017598D01*
X0237266Y0029484D02*
X0237602Y0029598D01*
X0237602Y0049998D01*
X0241802Y0050598D02*
X0241802Y0054198D01*
X0243002Y0055398D01*
X0246002Y0055998D02*
X0246602Y0055398D01*
X0246002Y0055998D02*
X0246002Y0060198D01*
X0245518Y0060713D01*
X0238038Y0060713D02*
X0237602Y0060198D01*
X0234002Y0056598D01*
X0227402Y0061398D02*
X0240002Y0073998D01*
X0239402Y0075198D02*
X0258602Y0075198D01*
X0259802Y0073998D01*
X0260175Y0073701D01*
X0270412Y0073701D02*
X0270602Y0073398D01*
X0277202Y0073398D01*
X0261602Y0083598D02*
X0258002Y0079998D01*
X0237602Y0079998D01*
X0243602Y0082398D02*
X0243602Y0087198D01*
X0243246Y0087236D01*
X0261602Y0083598D02*
X0261865Y0084185D01*
X0239402Y0075198D02*
X0226802Y0062598D01*
X0199802Y0062598D01*
X0199483Y0062276D01*
X0196202Y0058998D02*
X0207602Y0058998D01*
X0208802Y0058998D01*
X0211202Y0061398D01*
X0227402Y0061398D01*
X0218402Y0068598D02*
X0215402Y0065598D01*
X0209402Y0065598D01*
X0200402Y0074598D01*
X0200290Y0074815D01*
X0199802Y0074598D01*
X0198002Y0074598D01*
X0218402Y0068598D02*
X0218668Y0068673D01*
X0196202Y0058998D02*
X0193202Y0061998D01*
X0192790Y0062276D01*
X0182620Y0056965D02*
X0182402Y0056598D01*
X0178202Y0052398D01*
X0175928Y0056965D02*
X0175802Y0057198D01*
X0175802Y0064398D01*
X0168002Y0058398D02*
X0144602Y0081798D01*
X0144475Y0081933D01*
X0120002Y0081798D02*
X0119475Y0081933D01*
X0098402Y0060798D02*
X0088202Y0060798D01*
X0098402Y0060798D02*
X0103202Y0055998D01*
X0103202Y0048198D01*
X0099602Y0045798D02*
X0098668Y0046555D01*
X0099002Y0046398D01*
X0099602Y0045798D01*
X0118202Y0045798D01*
X0119402Y0044598D01*
X0123602Y0044598D01*
X0129002Y0049998D01*
X0129223Y0050370D01*
X0129602Y0049998D01*
X0133802Y0045798D01*
X0123602Y0044598D02*
X0123602Y0039198D01*
X0123439Y0039067D01*
X0117002Y0039198D02*
X0116746Y0039067D01*
X0117002Y0039198D02*
X0117002Y0043398D01*
X0133802Y0041598D02*
X0142202Y0049998D01*
X0149402Y0049998D01*
X0149695Y0050370D01*
X0165002Y0046998D02*
X0165002Y0039198D01*
X0165349Y0039118D01*
X0158656Y0039118D02*
X0158402Y0039198D01*
X0154802Y0042798D01*
X0148202Y0042798D01*
X0147002Y0041598D01*
X0147002Y0036798D01*
X0144602Y0034398D01*
X0148202Y0034398D02*
X0148202Y0036798D01*
X0150002Y0038598D01*
X0150298Y0039134D01*
X0150602Y0038598D01*
X0151802Y0038598D01*
X0155402Y0034998D01*
X0168602Y0034998D01*
X0170402Y0036798D01*
X0170402Y0039798D01*
X0175202Y0044598D01*
X0173402Y0046398D01*
X0175202Y0044598D02*
X0176402Y0045798D01*
X0181202Y0045798D01*
X0182402Y0044598D01*
X0182402Y0037998D01*
X0178802Y0034398D01*
X0178802Y0031998D01*
X0169202Y0022398D01*
X0168955Y0022217D01*
X0168602Y0022398D01*
X0158402Y0022398D01*
X0157924Y0022059D01*
X0154802Y0025398D02*
X0151802Y0022398D01*
X0151231Y0022059D01*
X0151202Y0022398D01*
X0139802Y0022398D01*
X0139262Y0022295D01*
X0132602Y0022398D02*
X0132569Y0022295D01*
X0132602Y0022398D02*
X0132602Y0027798D01*
X0131402Y0030198D02*
X0133802Y0030198D01*
X0142202Y0038598D01*
X0143402Y0038598D01*
X0143605Y0039134D01*
X0133802Y0041598D02*
X0133802Y0036198D01*
X0120602Y0022998D01*
X0120601Y0022472D01*
X0123602Y0022398D02*
X0123602Y0019998D01*
X0123002Y0019398D01*
X0117002Y0019398D01*
X0114002Y0022398D01*
X0113908Y0022472D01*
X0123602Y0022398D02*
X0131402Y0030198D01*
X0121202Y0034998D02*
X0118802Y0034998D01*
X0102602Y0018798D01*
X0097202Y0018798D01*
X0095402Y0020598D01*
X0095402Y0033198D01*
X0081002Y0047598D01*
X0067802Y0047598D01*
X0067636Y0047209D01*
X0065402Y0050598D02*
X0093002Y0050598D01*
X0093002Y0056598D01*
X0093026Y0056610D01*
X0090467Y0056610D02*
X0090002Y0056598D01*
X0086402Y0052998D01*
X0093002Y0050598D02*
X0093002Y0047598D01*
X0092402Y0046998D01*
X0091975Y0046555D01*
X0098402Y0046998D02*
X0098668Y0046555D01*
X0098402Y0046998D02*
X0098402Y0056598D01*
X0098144Y0056610D01*
X0065402Y0050598D02*
X0058202Y0057798D01*
X0045002Y0057798D01*
X0039602Y0052398D01*
X0038402Y0046398D02*
X0038402Y0062598D01*
X0040202Y0064398D01*
X0038402Y0046398D02*
X0049202Y0035598D01*
X0049202Y0023598D01*
X0033602Y0021798D02*
X0032402Y0021798D01*
X0031802Y0021198D01*
X0027002Y0021198D01*
X0025802Y0022398D01*
X0060602Y0027798D02*
X0060731Y0027535D01*
X0060602Y0027798D02*
X0060602Y0032598D01*
X0090602Y0042198D02*
X0097202Y0042198D01*
X0099602Y0045798D02*
X0099602Y0022998D01*
X0099872Y0022500D01*
X0128402Y0020598D02*
X0130202Y0018798D01*
X0178202Y0018798D01*
X0186002Y0026598D01*
X0186002Y0038598D01*
X0184802Y0039798D01*
X0179680Y0042528D02*
X0179402Y0042198D01*
X0174602Y0042198D01*
X0171602Y0039198D01*
X0171602Y0036198D01*
X0160802Y0025398D01*
X0154802Y0025398D01*
X0175648Y0022217D02*
X0175802Y0022398D01*
X0183002Y0029598D01*
X0183002Y0033798D01*
X0183420Y0034260D01*
X0175939Y0034260D02*
X0175802Y0034398D01*
X0175802Y0039798D01*
X0202802Y0034998D02*
X0208802Y0040998D01*
X0202802Y0034998D02*
X0202802Y0032598D01*
X0202534Y0032075D01*
X0168494Y0056980D02*
X0168002Y0057198D01*
X0168002Y0058398D01*
X0322620Y0034335D02*
X0322802Y0033798D01*
X0341402Y0033798D01*
X0344402Y0036798D01*
X0344928Y0037146D01*
X0338235Y0037146D02*
X0337802Y0037398D01*
X0325802Y0037398D01*
X0352802Y0028998D02*
X0375002Y0028998D01*
X0397202Y0051198D01*
X0397202Y0017598D02*
X0325802Y0017598D01*
D35*
X0325802Y0017598D03*
X0352802Y0028998D03*
X0397202Y0017598D03*
X0306602Y0038598D03*
X0271202Y0040998D03*
X0263402Y0032598D03*
X0274802Y0023598D03*
X0270002Y0022398D03*
X0284402Y0021198D03*
X0236402Y0017598D03*
X0220802Y0036198D03*
X0208802Y0040998D03*
X0213002Y0048198D03*
X0228602Y0050598D03*
X0243002Y0055398D03*
X0246602Y0055398D03*
X0263402Y0062598D03*
X0313802Y0072198D03*
X0243602Y0082398D03*
X0237602Y0079998D03*
X0195002Y0075198D03*
X0207602Y0053598D03*
X0178202Y0052398D03*
X0173402Y0046398D03*
X0175802Y0039798D03*
X0184802Y0039798D03*
X0148202Y0034398D03*
X0144602Y0034398D03*
X0121202Y0034998D03*
X0132602Y0027798D03*
X0128402Y0020598D03*
X0078602Y0029598D03*
X0072002Y0033198D03*
X0090602Y0042198D03*
X0097202Y0042198D03*
X0103202Y0048198D03*
X0117002Y0043398D03*
X0133802Y0045798D03*
X0086402Y0052998D03*
X0081002Y0047598D03*
X0088202Y0060798D03*
X0108002Y0074598D03*
X0094202Y0078198D03*
X0090002Y0081198D03*
X0102602Y0079998D03*
X0111002Y0079398D03*
X0035402Y0060798D03*
X0030002Y0076398D03*
X0033602Y0021798D03*
X0028802Y0016998D03*
X0397202Y0051198D03*
M02*
