G75*
%MOIN*%
%OFA0B0*%
%FSLAX25Y25*%
%IPPOS*%
%LPD*%
%AMOC8*
5,1,8,0,0,1.08239X$1,22.5*
%
%ADD10C,0.10643*%
%ADD11R,0.05131X0.06312*%
%ADD12OC8,0.06000*%
%ADD13C,0.06400*%
%ADD14R,0.03950X0.04343*%
%ADD15R,0.04737X0.05131*%
%ADD16C,0.04343*%
%ADD17R,0.06587X0.05800*%
%ADD18R,0.04737X0.06312*%
%ADD19R,0.09461X0.07099*%
%ADD20R,0.01772X0.04331*%
%ADD21C,0.08200*%
%ADD22R,0.02000X0.01400*%
%ADD23R,0.03875X0.06509*%
%ADD24R,0.03800X0.06509*%
%ADD25C,0.04146*%
%ADD26R,0.07874X0.06693*%
%ADD27R,0.10630X0.06693*%
%ADD28R,0.01981X0.04556*%
%ADD29R,0.02965X0.05524*%
%ADD30R,0.17335X0.06312*%
%ADD31C,0.07493*%
%ADD32C,0.07800*%
%ADD33R,0.05131X0.04737*%
%ADD34R,0.07099X0.07887*%
%ADD35R,0.06737X0.06737*%
%ADD36R,0.09068X0.09068*%
%ADD37R,0.03517X0.05524*%
%ADD38R,0.02965X0.03950*%
%ADD39R,0.09461X0.03162*%
%ADD40R,0.09461X0.06312*%
%ADD41R,0.11036X0.06312*%
D10*
X0117101Y0052768D03*
X0298203Y0052768D03*
D11*
X0182790Y0065697D03*
X0174916Y0065697D03*
X0041628Y0039878D03*
X0033754Y0039878D03*
X0049479Y0022500D03*
X0057353Y0022500D03*
D12*
X0134030Y0047768D03*
X0159628Y0047768D03*
X0159628Y0057768D03*
X0134030Y0057768D03*
D13*
X0132030Y0025913D03*
X0124156Y0025913D03*
D14*
X0106648Y0022843D03*
X0099168Y0022843D03*
X0102908Y0031110D03*
D15*
X0034782Y0022524D03*
X0041475Y0022524D03*
X0065089Y0022472D03*
X0071782Y0022472D03*
X0082341Y0022610D03*
X0089034Y0022610D03*
X0088920Y0037280D03*
X0082227Y0037280D03*
X0068160Y0037413D03*
X0061467Y0037413D03*
X0061703Y0049461D03*
X0068396Y0049461D03*
X0040061Y0053307D03*
X0033369Y0053307D03*
X0062109Y0061878D03*
X0068802Y0061878D03*
X0066223Y0076421D03*
X0072916Y0076421D03*
X0167676Y0081232D03*
X0174369Y0081232D03*
X0193077Y0073004D03*
X0199770Y0073004D03*
X0209928Y0058980D03*
X0216620Y0058980D03*
X0264837Y0053220D03*
X0271530Y0053220D03*
X0282302Y0053386D03*
X0288994Y0053386D03*
X0338191Y0054685D03*
X0344884Y0054685D03*
X0347361Y0067209D03*
X0354054Y0067209D03*
X0299042Y0069378D03*
X0292349Y0069378D03*
X0347487Y0083169D03*
X0354180Y0083169D03*
X0181006Y0045161D03*
X0174313Y0045161D03*
X0264935Y0038201D03*
X0271628Y0038201D03*
X0285408Y0022453D03*
X0292101Y0022453D03*
X0319660Y0022453D03*
X0326353Y0022453D03*
D16*
X0335211Y0080642D03*
X0308439Y0080642D03*
X0106865Y0080642D03*
X0080093Y0080642D03*
X0055683Y0080642D03*
X0028912Y0080642D03*
D17*
X0243640Y0088811D03*
X0243640Y0071882D03*
D18*
X0026400Y0024185D03*
X0018920Y0024185D03*
X0022660Y0032846D03*
D19*
X0178266Y0030870D03*
X0178266Y0019846D03*
D20*
X0338105Y0026295D03*
X0340664Y0026295D03*
X0343223Y0026295D03*
X0345782Y0026295D03*
X0345782Y0043618D03*
X0343223Y0043618D03*
X0340664Y0043618D03*
X0338105Y0043618D03*
D21*
X0160498Y0022984D03*
X0149098Y0022984D03*
D22*
X0205093Y0027075D03*
X0207652Y0027075D03*
X0210211Y0027075D03*
D23*
X0201534Y0032075D03*
D24*
X0213770Y0032075D03*
D25*
X0215132Y0030008D03*
X0200172Y0030008D03*
D26*
X0193148Y0021346D03*
X0222156Y0021346D03*
D27*
X0207652Y0021346D03*
D28*
X0324372Y0050898D03*
X0326341Y0050898D03*
X0328309Y0050898D03*
X0328309Y0056298D03*
X0326341Y0056298D03*
X0324372Y0056298D03*
D29*
X0247487Y0054019D03*
X0243746Y0054019D03*
X0240006Y0054019D03*
X0240006Y0064256D03*
X0247487Y0064256D03*
D30*
X0241400Y0033224D03*
X0241400Y0018657D03*
D31*
X0052581Y0052768D03*
X0025022Y0052768D03*
D32*
X0360325Y0034370D03*
X0387884Y0034370D03*
X0387884Y0072370D03*
X0360325Y0072370D03*
D33*
X0298951Y0084421D03*
X0292258Y0084421D03*
X0284227Y0084264D03*
X0277534Y0084264D03*
X0268557Y0084185D03*
X0261865Y0084185D03*
X0200880Y0059106D03*
X0194187Y0059106D03*
X0240132Y0044106D03*
X0246825Y0044106D03*
X0284975Y0038280D03*
X0291668Y0038280D03*
X0302731Y0038201D03*
X0309424Y0038201D03*
X0319306Y0038240D03*
X0325998Y0038240D03*
X0309266Y0022531D03*
X0302573Y0022531D03*
X0271825Y0022177D03*
X0265132Y0022177D03*
D34*
X0222101Y0073240D03*
X0211077Y0073240D03*
D35*
X0206077Y0046862D03*
X0190329Y0046862D03*
X0221825Y0046862D03*
D36*
X0225762Y0086232D03*
X0186392Y0086232D03*
D37*
X0263754Y0074815D03*
X0271235Y0074815D03*
X0271235Y0064578D03*
X0267494Y0064578D03*
X0263754Y0064578D03*
D38*
X0311392Y0064185D03*
X0315132Y0064185D03*
X0318872Y0064185D03*
X0318872Y0073634D03*
X0315132Y0073634D03*
X0311392Y0073634D03*
D39*
X0103321Y0066567D03*
X0103321Y0061567D03*
X0103321Y0056567D03*
X0103321Y0051567D03*
X0082849Y0051567D03*
X0082849Y0056567D03*
X0082849Y0061567D03*
X0082849Y0066567D03*
D40*
X0114739Y0077177D03*
X0127337Y0077177D03*
D41*
X0139739Y0076783D03*
X0155880Y0076783D03*
M02*
