G75*
%MOIN*%
%OFA0B0*%
%FSLAX25Y25*%
%IPPOS*%
%LPD*%
%AMOC8*
5,1,8,0,0,1.08239X$1,22.5*
%
%ADD10C,0.05600*%
%ADD11OC8,0.05400*%
%ADD12C,0.07400*%
%ADD13OC8,0.06600*%
%ADD14OC8,0.06200*%
%ADD15C,0.06200*%
%ADD16OC8,0.04800*%
%ADD17OC8,0.04724*%
%ADD18C,0.02500*%
%ADD19OC8,0.04156*%
%ADD20C,0.01600*%
D10*
X0018297Y0099725D03*
X0018297Y0107599D03*
D11*
X0128573Y0060080D03*
X0128573Y0040080D03*
X0071605Y0190276D03*
X0051605Y0190276D03*
D12*
X0013561Y0170591D03*
X0012561Y0160591D03*
X0013561Y0150591D03*
X0239018Y0143505D03*
X0240018Y0153505D03*
X0240018Y0133505D03*
X0298325Y0048544D03*
X0297325Y0038544D03*
X0298325Y0028544D03*
D13*
X0277510Y0076300D03*
X0277510Y0086300D03*
X0328337Y0104883D03*
X0328337Y0114883D03*
X0376211Y0114331D03*
X0376211Y0104331D03*
X0276447Y0131379D03*
X0266447Y0131379D03*
X0172904Y0103662D03*
X0162904Y0103662D03*
X0065542Y0073229D03*
X0065542Y0063229D03*
X0053731Y0128465D03*
X0043731Y0128465D03*
X0040857Y0158780D03*
X0050857Y0158780D03*
X0115660Y0170591D03*
X0125660Y0170591D03*
D14*
X0156093Y0189213D03*
X0201053Y0142796D03*
X0191526Y0059292D03*
D15*
X0191526Y0069292D03*
X0191053Y0142796D03*
X0156093Y0199213D03*
D16*
X0077195Y0158544D03*
X0067195Y0158544D03*
D17*
X0228770Y0049296D03*
X0238770Y0049296D03*
X0248770Y0049296D03*
X0238770Y0044296D03*
X0238770Y0034296D03*
X0248770Y0034296D03*
X0248770Y0024296D03*
X0248770Y0024296D03*
X0238770Y0024296D03*
X0238770Y0024296D03*
X0228770Y0024296D03*
X0228770Y0024296D03*
X0228770Y0014296D03*
X0238770Y0014296D03*
X0248770Y0014296D03*
X0228770Y0034296D03*
D18*
X0228770Y0031796D02*
X0228770Y0026796D01*
X0228770Y0021796D02*
X0228770Y0016796D01*
X0238770Y0016796D02*
X0238770Y0022796D01*
X0238770Y0026796D02*
X0238770Y0031796D01*
X0238770Y0037796D02*
X0238770Y0041796D01*
X0248770Y0046796D02*
X0248770Y0036796D01*
X0248770Y0031796D02*
X0248770Y0026796D01*
X0248770Y0021796D02*
X0248770Y0016796D01*
X0228770Y0036796D02*
X0228770Y0046796D01*
D19*
X0283888Y0186339D03*
X0293888Y0186339D03*
X0303888Y0186339D03*
D20*
X0061749Y0063700D02*
X0018549Y0106900D01*
X0018297Y0107599D01*
X0013749Y0150100D02*
X0013561Y0150591D01*
X0013749Y0150100D02*
X0122549Y0041300D01*
X0127349Y0041300D01*
X0128573Y0040080D01*
X0065542Y0063229D02*
X0064949Y0063700D01*
X0061749Y0063700D01*
X0191349Y0142100D02*
X0191053Y0142796D01*
X0191349Y0142100D02*
X0237749Y0095700D01*
X0237749Y0049300D01*
X0238770Y0049296D01*
X0277510Y0076300D02*
X0277749Y0076500D01*
X0300149Y0076500D01*
X0327349Y0103700D01*
X0328337Y0104883D01*
X0328949Y0105300D01*
X0375349Y0105300D01*
X0376211Y0104331D01*
X0376211Y0114331D02*
X0375349Y0114900D01*
X0357749Y0114900D01*
X0287349Y0185300D01*
X0284149Y0185300D01*
X0283888Y0186339D01*
X0240949Y0153300D02*
X0240018Y0153505D01*
X0240949Y0153300D02*
X0260149Y0134100D01*
X0260149Y0084500D01*
X0296949Y0047700D01*
X0298325Y0048544D01*
X0277510Y0086300D02*
X0276149Y0087700D01*
X0266549Y0097300D01*
X0266549Y0130900D01*
X0266447Y0131379D01*
X0156093Y0189213D02*
X0154549Y0188500D01*
X0133749Y0188500D01*
X0116149Y0170900D01*
X0115660Y0170591D01*
X0114549Y0169300D01*
X0104949Y0159700D01*
X0077749Y0159700D01*
X0077195Y0158544D01*
X0076149Y0159700D01*
X0072949Y0159700D01*
X0068149Y0164500D01*
X0016949Y0164500D01*
X0013749Y0161300D01*
X0012561Y0160591D01*
X0071605Y0190276D02*
X0072949Y0191700D01*
X0079349Y0198100D01*
X0154549Y0198100D01*
X0156093Y0199213D01*
M02*
