G75*
%MOIN*%
%OFA0B0*%
%FSLAX25Y25*%
%IPPOS*%
%LPD*%
%AMOC8*
5,1,8,0,0,1.08239X$1,22.5*
%
%ADD10C,0.00600*%
%ADD11C,0.00000*%
D10*
X0002549Y0001300D02*
X0002549Y0261143D01*
X0396250Y0261143D01*
X0396250Y0001300D01*
X0002549Y0001300D01*
D11*
X0014360Y0020985D02*
X0014362Y0021178D01*
X0014369Y0021371D01*
X0014381Y0021564D01*
X0014398Y0021757D01*
X0014419Y0021949D01*
X0014445Y0022140D01*
X0014476Y0022331D01*
X0014511Y0022521D01*
X0014551Y0022710D01*
X0014596Y0022898D01*
X0014645Y0023085D01*
X0014699Y0023271D01*
X0014757Y0023455D01*
X0014820Y0023638D01*
X0014888Y0023819D01*
X0014959Y0023998D01*
X0015036Y0024176D01*
X0015116Y0024352D01*
X0015201Y0024525D01*
X0015290Y0024697D01*
X0015383Y0024866D01*
X0015480Y0025033D01*
X0015582Y0025198D01*
X0015687Y0025360D01*
X0015796Y0025519D01*
X0015910Y0025676D01*
X0016027Y0025829D01*
X0016147Y0025980D01*
X0016272Y0026128D01*
X0016400Y0026273D01*
X0016531Y0026414D01*
X0016666Y0026553D01*
X0016805Y0026688D01*
X0016946Y0026819D01*
X0017091Y0026947D01*
X0017239Y0027072D01*
X0017390Y0027192D01*
X0017543Y0027309D01*
X0017700Y0027423D01*
X0017859Y0027532D01*
X0018021Y0027637D01*
X0018186Y0027739D01*
X0018353Y0027836D01*
X0018522Y0027929D01*
X0018694Y0028018D01*
X0018867Y0028103D01*
X0019043Y0028183D01*
X0019221Y0028260D01*
X0019400Y0028331D01*
X0019581Y0028399D01*
X0019764Y0028462D01*
X0019948Y0028520D01*
X0020134Y0028574D01*
X0020321Y0028623D01*
X0020509Y0028668D01*
X0020698Y0028708D01*
X0020888Y0028743D01*
X0021079Y0028774D01*
X0021270Y0028800D01*
X0021462Y0028821D01*
X0021655Y0028838D01*
X0021848Y0028850D01*
X0022041Y0028857D01*
X0022234Y0028859D01*
X0022427Y0028857D01*
X0022620Y0028850D01*
X0022813Y0028838D01*
X0023006Y0028821D01*
X0023198Y0028800D01*
X0023389Y0028774D01*
X0023580Y0028743D01*
X0023770Y0028708D01*
X0023959Y0028668D01*
X0024147Y0028623D01*
X0024334Y0028574D01*
X0024520Y0028520D01*
X0024704Y0028462D01*
X0024887Y0028399D01*
X0025068Y0028331D01*
X0025247Y0028260D01*
X0025425Y0028183D01*
X0025601Y0028103D01*
X0025774Y0028018D01*
X0025946Y0027929D01*
X0026115Y0027836D01*
X0026282Y0027739D01*
X0026447Y0027637D01*
X0026609Y0027532D01*
X0026768Y0027423D01*
X0026925Y0027309D01*
X0027078Y0027192D01*
X0027229Y0027072D01*
X0027377Y0026947D01*
X0027522Y0026819D01*
X0027663Y0026688D01*
X0027802Y0026553D01*
X0027937Y0026414D01*
X0028068Y0026273D01*
X0028196Y0026128D01*
X0028321Y0025980D01*
X0028441Y0025829D01*
X0028558Y0025676D01*
X0028672Y0025519D01*
X0028781Y0025360D01*
X0028886Y0025198D01*
X0028988Y0025033D01*
X0029085Y0024866D01*
X0029178Y0024697D01*
X0029267Y0024525D01*
X0029352Y0024352D01*
X0029432Y0024176D01*
X0029509Y0023998D01*
X0029580Y0023819D01*
X0029648Y0023638D01*
X0029711Y0023455D01*
X0029769Y0023271D01*
X0029823Y0023085D01*
X0029872Y0022898D01*
X0029917Y0022710D01*
X0029957Y0022521D01*
X0029992Y0022331D01*
X0030023Y0022140D01*
X0030049Y0021949D01*
X0030070Y0021757D01*
X0030087Y0021564D01*
X0030099Y0021371D01*
X0030106Y0021178D01*
X0030108Y0020985D01*
X0030106Y0020792D01*
X0030099Y0020599D01*
X0030087Y0020406D01*
X0030070Y0020213D01*
X0030049Y0020021D01*
X0030023Y0019830D01*
X0029992Y0019639D01*
X0029957Y0019449D01*
X0029917Y0019260D01*
X0029872Y0019072D01*
X0029823Y0018885D01*
X0029769Y0018699D01*
X0029711Y0018515D01*
X0029648Y0018332D01*
X0029580Y0018151D01*
X0029509Y0017972D01*
X0029432Y0017794D01*
X0029352Y0017618D01*
X0029267Y0017445D01*
X0029178Y0017273D01*
X0029085Y0017104D01*
X0028988Y0016937D01*
X0028886Y0016772D01*
X0028781Y0016610D01*
X0028672Y0016451D01*
X0028558Y0016294D01*
X0028441Y0016141D01*
X0028321Y0015990D01*
X0028196Y0015842D01*
X0028068Y0015697D01*
X0027937Y0015556D01*
X0027802Y0015417D01*
X0027663Y0015282D01*
X0027522Y0015151D01*
X0027377Y0015023D01*
X0027229Y0014898D01*
X0027078Y0014778D01*
X0026925Y0014661D01*
X0026768Y0014547D01*
X0026609Y0014438D01*
X0026447Y0014333D01*
X0026282Y0014231D01*
X0026115Y0014134D01*
X0025946Y0014041D01*
X0025774Y0013952D01*
X0025601Y0013867D01*
X0025425Y0013787D01*
X0025247Y0013710D01*
X0025068Y0013639D01*
X0024887Y0013571D01*
X0024704Y0013508D01*
X0024520Y0013450D01*
X0024334Y0013396D01*
X0024147Y0013347D01*
X0023959Y0013302D01*
X0023770Y0013262D01*
X0023580Y0013227D01*
X0023389Y0013196D01*
X0023198Y0013170D01*
X0023006Y0013149D01*
X0022813Y0013132D01*
X0022620Y0013120D01*
X0022427Y0013113D01*
X0022234Y0013111D01*
X0022041Y0013113D01*
X0021848Y0013120D01*
X0021655Y0013132D01*
X0021462Y0013149D01*
X0021270Y0013170D01*
X0021079Y0013196D01*
X0020888Y0013227D01*
X0020698Y0013262D01*
X0020509Y0013302D01*
X0020321Y0013347D01*
X0020134Y0013396D01*
X0019948Y0013450D01*
X0019764Y0013508D01*
X0019581Y0013571D01*
X0019400Y0013639D01*
X0019221Y0013710D01*
X0019043Y0013787D01*
X0018867Y0013867D01*
X0018694Y0013952D01*
X0018522Y0014041D01*
X0018353Y0014134D01*
X0018186Y0014231D01*
X0018021Y0014333D01*
X0017859Y0014438D01*
X0017700Y0014547D01*
X0017543Y0014661D01*
X0017390Y0014778D01*
X0017239Y0014898D01*
X0017091Y0015023D01*
X0016946Y0015151D01*
X0016805Y0015282D01*
X0016666Y0015417D01*
X0016531Y0015556D01*
X0016400Y0015697D01*
X0016272Y0015842D01*
X0016147Y0015990D01*
X0016027Y0016141D01*
X0015910Y0016294D01*
X0015796Y0016451D01*
X0015687Y0016610D01*
X0015582Y0016772D01*
X0015480Y0016937D01*
X0015383Y0017104D01*
X0015290Y0017273D01*
X0015201Y0017445D01*
X0015116Y0017618D01*
X0015036Y0017794D01*
X0014959Y0017972D01*
X0014888Y0018151D01*
X0014820Y0018332D01*
X0014757Y0018515D01*
X0014699Y0018699D01*
X0014645Y0018885D01*
X0014596Y0019072D01*
X0014551Y0019260D01*
X0014511Y0019449D01*
X0014476Y0019639D01*
X0014445Y0019830D01*
X0014419Y0020021D01*
X0014398Y0020213D01*
X0014381Y0020406D01*
X0014369Y0020599D01*
X0014362Y0020792D01*
X0014360Y0020985D01*
X0343144Y0060946D02*
X0343146Y0061064D01*
X0343152Y0061182D01*
X0343162Y0061300D01*
X0343176Y0061417D01*
X0343194Y0061534D01*
X0343216Y0061651D01*
X0343241Y0061766D01*
X0343271Y0061880D01*
X0343305Y0061994D01*
X0343342Y0062106D01*
X0343383Y0062217D01*
X0343428Y0062326D01*
X0343476Y0062434D01*
X0343528Y0062540D01*
X0343584Y0062645D01*
X0343643Y0062747D01*
X0343705Y0062847D01*
X0343771Y0062945D01*
X0343840Y0063041D01*
X0343913Y0063135D01*
X0343988Y0063226D01*
X0344067Y0063314D01*
X0344148Y0063400D01*
X0344233Y0063483D01*
X0344320Y0063563D01*
X0344409Y0063640D01*
X0344502Y0063714D01*
X0344596Y0063784D01*
X0344693Y0063852D01*
X0344793Y0063916D01*
X0344894Y0063977D01*
X0344997Y0064034D01*
X0345103Y0064088D01*
X0345210Y0064139D01*
X0345318Y0064185D01*
X0345428Y0064228D01*
X0345540Y0064267D01*
X0345653Y0064303D01*
X0345767Y0064334D01*
X0345882Y0064362D01*
X0345997Y0064386D01*
X0346114Y0064406D01*
X0346231Y0064422D01*
X0346349Y0064434D01*
X0346467Y0064442D01*
X0346585Y0064446D01*
X0346703Y0064446D01*
X0346821Y0064442D01*
X0346939Y0064434D01*
X0347057Y0064422D01*
X0347174Y0064406D01*
X0347291Y0064386D01*
X0347406Y0064362D01*
X0347521Y0064334D01*
X0347635Y0064303D01*
X0347748Y0064267D01*
X0347860Y0064228D01*
X0347970Y0064185D01*
X0348078Y0064139D01*
X0348185Y0064088D01*
X0348291Y0064034D01*
X0348394Y0063977D01*
X0348495Y0063916D01*
X0348595Y0063852D01*
X0348692Y0063784D01*
X0348786Y0063714D01*
X0348879Y0063640D01*
X0348968Y0063563D01*
X0349055Y0063483D01*
X0349140Y0063400D01*
X0349221Y0063314D01*
X0349300Y0063226D01*
X0349375Y0063135D01*
X0349448Y0063041D01*
X0349517Y0062945D01*
X0349583Y0062847D01*
X0349645Y0062747D01*
X0349704Y0062645D01*
X0349760Y0062540D01*
X0349812Y0062434D01*
X0349860Y0062326D01*
X0349905Y0062217D01*
X0349946Y0062106D01*
X0349983Y0061994D01*
X0350017Y0061880D01*
X0350047Y0061766D01*
X0350072Y0061651D01*
X0350094Y0061534D01*
X0350112Y0061417D01*
X0350126Y0061300D01*
X0350136Y0061182D01*
X0350142Y0061064D01*
X0350144Y0060946D01*
X0350142Y0060828D01*
X0350136Y0060710D01*
X0350126Y0060592D01*
X0350112Y0060475D01*
X0350094Y0060358D01*
X0350072Y0060241D01*
X0350047Y0060126D01*
X0350017Y0060012D01*
X0349983Y0059898D01*
X0349946Y0059786D01*
X0349905Y0059675D01*
X0349860Y0059566D01*
X0349812Y0059458D01*
X0349760Y0059352D01*
X0349704Y0059247D01*
X0349645Y0059145D01*
X0349583Y0059045D01*
X0349517Y0058947D01*
X0349448Y0058851D01*
X0349375Y0058757D01*
X0349300Y0058666D01*
X0349221Y0058578D01*
X0349140Y0058492D01*
X0349055Y0058409D01*
X0348968Y0058329D01*
X0348879Y0058252D01*
X0348786Y0058178D01*
X0348692Y0058108D01*
X0348595Y0058040D01*
X0348495Y0057976D01*
X0348394Y0057915D01*
X0348291Y0057858D01*
X0348185Y0057804D01*
X0348078Y0057753D01*
X0347970Y0057707D01*
X0347860Y0057664D01*
X0347748Y0057625D01*
X0347635Y0057589D01*
X0347521Y0057558D01*
X0347406Y0057530D01*
X0347291Y0057506D01*
X0347174Y0057486D01*
X0347057Y0057470D01*
X0346939Y0057458D01*
X0346821Y0057450D01*
X0346703Y0057446D01*
X0346585Y0057446D01*
X0346467Y0057450D01*
X0346349Y0057458D01*
X0346231Y0057470D01*
X0346114Y0057486D01*
X0345997Y0057506D01*
X0345882Y0057530D01*
X0345767Y0057558D01*
X0345653Y0057589D01*
X0345540Y0057625D01*
X0345428Y0057664D01*
X0345318Y0057707D01*
X0345210Y0057753D01*
X0345103Y0057804D01*
X0344997Y0057858D01*
X0344894Y0057915D01*
X0344793Y0057976D01*
X0344693Y0058040D01*
X0344596Y0058108D01*
X0344502Y0058178D01*
X0344409Y0058252D01*
X0344320Y0058329D01*
X0344233Y0058409D01*
X0344148Y0058492D01*
X0344067Y0058578D01*
X0343988Y0058666D01*
X0343913Y0058757D01*
X0343840Y0058851D01*
X0343771Y0058947D01*
X0343705Y0059045D01*
X0343643Y0059145D01*
X0343584Y0059247D01*
X0343528Y0059352D01*
X0343476Y0059458D01*
X0343428Y0059566D01*
X0343383Y0059675D01*
X0343342Y0059786D01*
X0343305Y0059898D01*
X0343271Y0060012D01*
X0343241Y0060126D01*
X0343216Y0060241D01*
X0343194Y0060358D01*
X0343176Y0060475D01*
X0343162Y0060592D01*
X0343152Y0060710D01*
X0343146Y0060828D01*
X0343144Y0060946D01*
X0370703Y0060946D02*
X0370705Y0061064D01*
X0370711Y0061182D01*
X0370721Y0061300D01*
X0370735Y0061417D01*
X0370753Y0061534D01*
X0370775Y0061651D01*
X0370800Y0061766D01*
X0370830Y0061880D01*
X0370864Y0061994D01*
X0370901Y0062106D01*
X0370942Y0062217D01*
X0370987Y0062326D01*
X0371035Y0062434D01*
X0371087Y0062540D01*
X0371143Y0062645D01*
X0371202Y0062747D01*
X0371264Y0062847D01*
X0371330Y0062945D01*
X0371399Y0063041D01*
X0371472Y0063135D01*
X0371547Y0063226D01*
X0371626Y0063314D01*
X0371707Y0063400D01*
X0371792Y0063483D01*
X0371879Y0063563D01*
X0371968Y0063640D01*
X0372061Y0063714D01*
X0372155Y0063784D01*
X0372252Y0063852D01*
X0372352Y0063916D01*
X0372453Y0063977D01*
X0372556Y0064034D01*
X0372662Y0064088D01*
X0372769Y0064139D01*
X0372877Y0064185D01*
X0372987Y0064228D01*
X0373099Y0064267D01*
X0373212Y0064303D01*
X0373326Y0064334D01*
X0373441Y0064362D01*
X0373556Y0064386D01*
X0373673Y0064406D01*
X0373790Y0064422D01*
X0373908Y0064434D01*
X0374026Y0064442D01*
X0374144Y0064446D01*
X0374262Y0064446D01*
X0374380Y0064442D01*
X0374498Y0064434D01*
X0374616Y0064422D01*
X0374733Y0064406D01*
X0374850Y0064386D01*
X0374965Y0064362D01*
X0375080Y0064334D01*
X0375194Y0064303D01*
X0375307Y0064267D01*
X0375419Y0064228D01*
X0375529Y0064185D01*
X0375637Y0064139D01*
X0375744Y0064088D01*
X0375850Y0064034D01*
X0375953Y0063977D01*
X0376054Y0063916D01*
X0376154Y0063852D01*
X0376251Y0063784D01*
X0376345Y0063714D01*
X0376438Y0063640D01*
X0376527Y0063563D01*
X0376614Y0063483D01*
X0376699Y0063400D01*
X0376780Y0063314D01*
X0376859Y0063226D01*
X0376934Y0063135D01*
X0377007Y0063041D01*
X0377076Y0062945D01*
X0377142Y0062847D01*
X0377204Y0062747D01*
X0377263Y0062645D01*
X0377319Y0062540D01*
X0377371Y0062434D01*
X0377419Y0062326D01*
X0377464Y0062217D01*
X0377505Y0062106D01*
X0377542Y0061994D01*
X0377576Y0061880D01*
X0377606Y0061766D01*
X0377631Y0061651D01*
X0377653Y0061534D01*
X0377671Y0061417D01*
X0377685Y0061300D01*
X0377695Y0061182D01*
X0377701Y0061064D01*
X0377703Y0060946D01*
X0377701Y0060828D01*
X0377695Y0060710D01*
X0377685Y0060592D01*
X0377671Y0060475D01*
X0377653Y0060358D01*
X0377631Y0060241D01*
X0377606Y0060126D01*
X0377576Y0060012D01*
X0377542Y0059898D01*
X0377505Y0059786D01*
X0377464Y0059675D01*
X0377419Y0059566D01*
X0377371Y0059458D01*
X0377319Y0059352D01*
X0377263Y0059247D01*
X0377204Y0059145D01*
X0377142Y0059045D01*
X0377076Y0058947D01*
X0377007Y0058851D01*
X0376934Y0058757D01*
X0376859Y0058666D01*
X0376780Y0058578D01*
X0376699Y0058492D01*
X0376614Y0058409D01*
X0376527Y0058329D01*
X0376438Y0058252D01*
X0376345Y0058178D01*
X0376251Y0058108D01*
X0376154Y0058040D01*
X0376054Y0057976D01*
X0375953Y0057915D01*
X0375850Y0057858D01*
X0375744Y0057804D01*
X0375637Y0057753D01*
X0375529Y0057707D01*
X0375419Y0057664D01*
X0375307Y0057625D01*
X0375194Y0057589D01*
X0375080Y0057558D01*
X0374965Y0057530D01*
X0374850Y0057506D01*
X0374733Y0057486D01*
X0374616Y0057470D01*
X0374498Y0057458D01*
X0374380Y0057450D01*
X0374262Y0057446D01*
X0374144Y0057446D01*
X0374026Y0057450D01*
X0373908Y0057458D01*
X0373790Y0057470D01*
X0373673Y0057486D01*
X0373556Y0057506D01*
X0373441Y0057530D01*
X0373326Y0057558D01*
X0373212Y0057589D01*
X0373099Y0057625D01*
X0372987Y0057664D01*
X0372877Y0057707D01*
X0372769Y0057753D01*
X0372662Y0057804D01*
X0372556Y0057858D01*
X0372453Y0057915D01*
X0372352Y0057976D01*
X0372252Y0058040D01*
X0372155Y0058108D01*
X0372061Y0058178D01*
X0371968Y0058252D01*
X0371879Y0058329D01*
X0371792Y0058409D01*
X0371707Y0058492D01*
X0371626Y0058578D01*
X0371547Y0058666D01*
X0371472Y0058757D01*
X0371399Y0058851D01*
X0371330Y0058947D01*
X0371264Y0059045D01*
X0371202Y0059145D01*
X0371143Y0059247D01*
X0371087Y0059352D01*
X0371035Y0059458D01*
X0370987Y0059566D01*
X0370942Y0059675D01*
X0370901Y0059786D01*
X0370864Y0059898D01*
X0370830Y0060012D01*
X0370800Y0060126D01*
X0370775Y0060241D01*
X0370753Y0060358D01*
X0370735Y0060475D01*
X0370721Y0060592D01*
X0370711Y0060710D01*
X0370705Y0060828D01*
X0370703Y0060946D01*
X0368691Y0020985D02*
X0368693Y0021178D01*
X0368700Y0021371D01*
X0368712Y0021564D01*
X0368729Y0021757D01*
X0368750Y0021949D01*
X0368776Y0022140D01*
X0368807Y0022331D01*
X0368842Y0022521D01*
X0368882Y0022710D01*
X0368927Y0022898D01*
X0368976Y0023085D01*
X0369030Y0023271D01*
X0369088Y0023455D01*
X0369151Y0023638D01*
X0369219Y0023819D01*
X0369290Y0023998D01*
X0369367Y0024176D01*
X0369447Y0024352D01*
X0369532Y0024525D01*
X0369621Y0024697D01*
X0369714Y0024866D01*
X0369811Y0025033D01*
X0369913Y0025198D01*
X0370018Y0025360D01*
X0370127Y0025519D01*
X0370241Y0025676D01*
X0370358Y0025829D01*
X0370478Y0025980D01*
X0370603Y0026128D01*
X0370731Y0026273D01*
X0370862Y0026414D01*
X0370997Y0026553D01*
X0371136Y0026688D01*
X0371277Y0026819D01*
X0371422Y0026947D01*
X0371570Y0027072D01*
X0371721Y0027192D01*
X0371874Y0027309D01*
X0372031Y0027423D01*
X0372190Y0027532D01*
X0372352Y0027637D01*
X0372517Y0027739D01*
X0372684Y0027836D01*
X0372853Y0027929D01*
X0373025Y0028018D01*
X0373198Y0028103D01*
X0373374Y0028183D01*
X0373552Y0028260D01*
X0373731Y0028331D01*
X0373912Y0028399D01*
X0374095Y0028462D01*
X0374279Y0028520D01*
X0374465Y0028574D01*
X0374652Y0028623D01*
X0374840Y0028668D01*
X0375029Y0028708D01*
X0375219Y0028743D01*
X0375410Y0028774D01*
X0375601Y0028800D01*
X0375793Y0028821D01*
X0375986Y0028838D01*
X0376179Y0028850D01*
X0376372Y0028857D01*
X0376565Y0028859D01*
X0376758Y0028857D01*
X0376951Y0028850D01*
X0377144Y0028838D01*
X0377337Y0028821D01*
X0377529Y0028800D01*
X0377720Y0028774D01*
X0377911Y0028743D01*
X0378101Y0028708D01*
X0378290Y0028668D01*
X0378478Y0028623D01*
X0378665Y0028574D01*
X0378851Y0028520D01*
X0379035Y0028462D01*
X0379218Y0028399D01*
X0379399Y0028331D01*
X0379578Y0028260D01*
X0379756Y0028183D01*
X0379932Y0028103D01*
X0380105Y0028018D01*
X0380277Y0027929D01*
X0380446Y0027836D01*
X0380613Y0027739D01*
X0380778Y0027637D01*
X0380940Y0027532D01*
X0381099Y0027423D01*
X0381256Y0027309D01*
X0381409Y0027192D01*
X0381560Y0027072D01*
X0381708Y0026947D01*
X0381853Y0026819D01*
X0381994Y0026688D01*
X0382133Y0026553D01*
X0382268Y0026414D01*
X0382399Y0026273D01*
X0382527Y0026128D01*
X0382652Y0025980D01*
X0382772Y0025829D01*
X0382889Y0025676D01*
X0383003Y0025519D01*
X0383112Y0025360D01*
X0383217Y0025198D01*
X0383319Y0025033D01*
X0383416Y0024866D01*
X0383509Y0024697D01*
X0383598Y0024525D01*
X0383683Y0024352D01*
X0383763Y0024176D01*
X0383840Y0023998D01*
X0383911Y0023819D01*
X0383979Y0023638D01*
X0384042Y0023455D01*
X0384100Y0023271D01*
X0384154Y0023085D01*
X0384203Y0022898D01*
X0384248Y0022710D01*
X0384288Y0022521D01*
X0384323Y0022331D01*
X0384354Y0022140D01*
X0384380Y0021949D01*
X0384401Y0021757D01*
X0384418Y0021564D01*
X0384430Y0021371D01*
X0384437Y0021178D01*
X0384439Y0020985D01*
X0384437Y0020792D01*
X0384430Y0020599D01*
X0384418Y0020406D01*
X0384401Y0020213D01*
X0384380Y0020021D01*
X0384354Y0019830D01*
X0384323Y0019639D01*
X0384288Y0019449D01*
X0384248Y0019260D01*
X0384203Y0019072D01*
X0384154Y0018885D01*
X0384100Y0018699D01*
X0384042Y0018515D01*
X0383979Y0018332D01*
X0383911Y0018151D01*
X0383840Y0017972D01*
X0383763Y0017794D01*
X0383683Y0017618D01*
X0383598Y0017445D01*
X0383509Y0017273D01*
X0383416Y0017104D01*
X0383319Y0016937D01*
X0383217Y0016772D01*
X0383112Y0016610D01*
X0383003Y0016451D01*
X0382889Y0016294D01*
X0382772Y0016141D01*
X0382652Y0015990D01*
X0382527Y0015842D01*
X0382399Y0015697D01*
X0382268Y0015556D01*
X0382133Y0015417D01*
X0381994Y0015282D01*
X0381853Y0015151D01*
X0381708Y0015023D01*
X0381560Y0014898D01*
X0381409Y0014778D01*
X0381256Y0014661D01*
X0381099Y0014547D01*
X0380940Y0014438D01*
X0380778Y0014333D01*
X0380613Y0014231D01*
X0380446Y0014134D01*
X0380277Y0014041D01*
X0380105Y0013952D01*
X0379932Y0013867D01*
X0379756Y0013787D01*
X0379578Y0013710D01*
X0379399Y0013639D01*
X0379218Y0013571D01*
X0379035Y0013508D01*
X0378851Y0013450D01*
X0378665Y0013396D01*
X0378478Y0013347D01*
X0378290Y0013302D01*
X0378101Y0013262D01*
X0377911Y0013227D01*
X0377720Y0013196D01*
X0377529Y0013170D01*
X0377337Y0013149D01*
X0377144Y0013132D01*
X0376951Y0013120D01*
X0376758Y0013113D01*
X0376565Y0013111D01*
X0376372Y0013113D01*
X0376179Y0013120D01*
X0375986Y0013132D01*
X0375793Y0013149D01*
X0375601Y0013170D01*
X0375410Y0013196D01*
X0375219Y0013227D01*
X0375029Y0013262D01*
X0374840Y0013302D01*
X0374652Y0013347D01*
X0374465Y0013396D01*
X0374279Y0013450D01*
X0374095Y0013508D01*
X0373912Y0013571D01*
X0373731Y0013639D01*
X0373552Y0013710D01*
X0373374Y0013787D01*
X0373198Y0013867D01*
X0373025Y0013952D01*
X0372853Y0014041D01*
X0372684Y0014134D01*
X0372517Y0014231D01*
X0372352Y0014333D01*
X0372190Y0014438D01*
X0372031Y0014547D01*
X0371874Y0014661D01*
X0371721Y0014778D01*
X0371570Y0014898D01*
X0371422Y0015023D01*
X0371277Y0015151D01*
X0371136Y0015282D01*
X0370997Y0015417D01*
X0370862Y0015556D01*
X0370731Y0015697D01*
X0370603Y0015842D01*
X0370478Y0015990D01*
X0370358Y0016141D01*
X0370241Y0016294D01*
X0370127Y0016451D01*
X0370018Y0016610D01*
X0369913Y0016772D01*
X0369811Y0016937D01*
X0369714Y0017104D01*
X0369621Y0017273D01*
X0369532Y0017445D01*
X0369447Y0017618D01*
X0369367Y0017794D01*
X0369290Y0017972D01*
X0369219Y0018151D01*
X0369151Y0018332D01*
X0369088Y0018515D01*
X0369030Y0018699D01*
X0368976Y0018885D01*
X0368927Y0019072D01*
X0368882Y0019260D01*
X0368842Y0019449D01*
X0368807Y0019639D01*
X0368776Y0019830D01*
X0368750Y0020021D01*
X0368729Y0020213D01*
X0368712Y0020406D01*
X0368700Y0020599D01*
X0368693Y0020792D01*
X0368691Y0020985D01*
X0370703Y0155434D02*
X0370705Y0155552D01*
X0370711Y0155670D01*
X0370721Y0155788D01*
X0370735Y0155905D01*
X0370753Y0156022D01*
X0370775Y0156139D01*
X0370800Y0156254D01*
X0370830Y0156368D01*
X0370864Y0156482D01*
X0370901Y0156594D01*
X0370942Y0156705D01*
X0370987Y0156814D01*
X0371035Y0156922D01*
X0371087Y0157028D01*
X0371143Y0157133D01*
X0371202Y0157235D01*
X0371264Y0157335D01*
X0371330Y0157433D01*
X0371399Y0157529D01*
X0371472Y0157623D01*
X0371547Y0157714D01*
X0371626Y0157802D01*
X0371707Y0157888D01*
X0371792Y0157971D01*
X0371879Y0158051D01*
X0371968Y0158128D01*
X0372061Y0158202D01*
X0372155Y0158272D01*
X0372252Y0158340D01*
X0372352Y0158404D01*
X0372453Y0158465D01*
X0372556Y0158522D01*
X0372662Y0158576D01*
X0372769Y0158627D01*
X0372877Y0158673D01*
X0372987Y0158716D01*
X0373099Y0158755D01*
X0373212Y0158791D01*
X0373326Y0158822D01*
X0373441Y0158850D01*
X0373556Y0158874D01*
X0373673Y0158894D01*
X0373790Y0158910D01*
X0373908Y0158922D01*
X0374026Y0158930D01*
X0374144Y0158934D01*
X0374262Y0158934D01*
X0374380Y0158930D01*
X0374498Y0158922D01*
X0374616Y0158910D01*
X0374733Y0158894D01*
X0374850Y0158874D01*
X0374965Y0158850D01*
X0375080Y0158822D01*
X0375194Y0158791D01*
X0375307Y0158755D01*
X0375419Y0158716D01*
X0375529Y0158673D01*
X0375637Y0158627D01*
X0375744Y0158576D01*
X0375850Y0158522D01*
X0375953Y0158465D01*
X0376054Y0158404D01*
X0376154Y0158340D01*
X0376251Y0158272D01*
X0376345Y0158202D01*
X0376438Y0158128D01*
X0376527Y0158051D01*
X0376614Y0157971D01*
X0376699Y0157888D01*
X0376780Y0157802D01*
X0376859Y0157714D01*
X0376934Y0157623D01*
X0377007Y0157529D01*
X0377076Y0157433D01*
X0377142Y0157335D01*
X0377204Y0157235D01*
X0377263Y0157133D01*
X0377319Y0157028D01*
X0377371Y0156922D01*
X0377419Y0156814D01*
X0377464Y0156705D01*
X0377505Y0156594D01*
X0377542Y0156482D01*
X0377576Y0156368D01*
X0377606Y0156254D01*
X0377631Y0156139D01*
X0377653Y0156022D01*
X0377671Y0155905D01*
X0377685Y0155788D01*
X0377695Y0155670D01*
X0377701Y0155552D01*
X0377703Y0155434D01*
X0377701Y0155316D01*
X0377695Y0155198D01*
X0377685Y0155080D01*
X0377671Y0154963D01*
X0377653Y0154846D01*
X0377631Y0154729D01*
X0377606Y0154614D01*
X0377576Y0154500D01*
X0377542Y0154386D01*
X0377505Y0154274D01*
X0377464Y0154163D01*
X0377419Y0154054D01*
X0377371Y0153946D01*
X0377319Y0153840D01*
X0377263Y0153735D01*
X0377204Y0153633D01*
X0377142Y0153533D01*
X0377076Y0153435D01*
X0377007Y0153339D01*
X0376934Y0153245D01*
X0376859Y0153154D01*
X0376780Y0153066D01*
X0376699Y0152980D01*
X0376614Y0152897D01*
X0376527Y0152817D01*
X0376438Y0152740D01*
X0376345Y0152666D01*
X0376251Y0152596D01*
X0376154Y0152528D01*
X0376054Y0152464D01*
X0375953Y0152403D01*
X0375850Y0152346D01*
X0375744Y0152292D01*
X0375637Y0152241D01*
X0375529Y0152195D01*
X0375419Y0152152D01*
X0375307Y0152113D01*
X0375194Y0152077D01*
X0375080Y0152046D01*
X0374965Y0152018D01*
X0374850Y0151994D01*
X0374733Y0151974D01*
X0374616Y0151958D01*
X0374498Y0151946D01*
X0374380Y0151938D01*
X0374262Y0151934D01*
X0374144Y0151934D01*
X0374026Y0151938D01*
X0373908Y0151946D01*
X0373790Y0151958D01*
X0373673Y0151974D01*
X0373556Y0151994D01*
X0373441Y0152018D01*
X0373326Y0152046D01*
X0373212Y0152077D01*
X0373099Y0152113D01*
X0372987Y0152152D01*
X0372877Y0152195D01*
X0372769Y0152241D01*
X0372662Y0152292D01*
X0372556Y0152346D01*
X0372453Y0152403D01*
X0372352Y0152464D01*
X0372252Y0152528D01*
X0372155Y0152596D01*
X0372061Y0152666D01*
X0371968Y0152740D01*
X0371879Y0152817D01*
X0371792Y0152897D01*
X0371707Y0152980D01*
X0371626Y0153066D01*
X0371547Y0153154D01*
X0371472Y0153245D01*
X0371399Y0153339D01*
X0371330Y0153435D01*
X0371264Y0153533D01*
X0371202Y0153633D01*
X0371143Y0153735D01*
X0371087Y0153840D01*
X0371035Y0153946D01*
X0370987Y0154054D01*
X0370942Y0154163D01*
X0370901Y0154274D01*
X0370864Y0154386D01*
X0370830Y0154500D01*
X0370800Y0154614D01*
X0370775Y0154729D01*
X0370753Y0154846D01*
X0370735Y0154963D01*
X0370721Y0155080D01*
X0370711Y0155198D01*
X0370705Y0155316D01*
X0370703Y0155434D01*
X0343144Y0155434D02*
X0343146Y0155552D01*
X0343152Y0155670D01*
X0343162Y0155788D01*
X0343176Y0155905D01*
X0343194Y0156022D01*
X0343216Y0156139D01*
X0343241Y0156254D01*
X0343271Y0156368D01*
X0343305Y0156482D01*
X0343342Y0156594D01*
X0343383Y0156705D01*
X0343428Y0156814D01*
X0343476Y0156922D01*
X0343528Y0157028D01*
X0343584Y0157133D01*
X0343643Y0157235D01*
X0343705Y0157335D01*
X0343771Y0157433D01*
X0343840Y0157529D01*
X0343913Y0157623D01*
X0343988Y0157714D01*
X0344067Y0157802D01*
X0344148Y0157888D01*
X0344233Y0157971D01*
X0344320Y0158051D01*
X0344409Y0158128D01*
X0344502Y0158202D01*
X0344596Y0158272D01*
X0344693Y0158340D01*
X0344793Y0158404D01*
X0344894Y0158465D01*
X0344997Y0158522D01*
X0345103Y0158576D01*
X0345210Y0158627D01*
X0345318Y0158673D01*
X0345428Y0158716D01*
X0345540Y0158755D01*
X0345653Y0158791D01*
X0345767Y0158822D01*
X0345882Y0158850D01*
X0345997Y0158874D01*
X0346114Y0158894D01*
X0346231Y0158910D01*
X0346349Y0158922D01*
X0346467Y0158930D01*
X0346585Y0158934D01*
X0346703Y0158934D01*
X0346821Y0158930D01*
X0346939Y0158922D01*
X0347057Y0158910D01*
X0347174Y0158894D01*
X0347291Y0158874D01*
X0347406Y0158850D01*
X0347521Y0158822D01*
X0347635Y0158791D01*
X0347748Y0158755D01*
X0347860Y0158716D01*
X0347970Y0158673D01*
X0348078Y0158627D01*
X0348185Y0158576D01*
X0348291Y0158522D01*
X0348394Y0158465D01*
X0348495Y0158404D01*
X0348595Y0158340D01*
X0348692Y0158272D01*
X0348786Y0158202D01*
X0348879Y0158128D01*
X0348968Y0158051D01*
X0349055Y0157971D01*
X0349140Y0157888D01*
X0349221Y0157802D01*
X0349300Y0157714D01*
X0349375Y0157623D01*
X0349448Y0157529D01*
X0349517Y0157433D01*
X0349583Y0157335D01*
X0349645Y0157235D01*
X0349704Y0157133D01*
X0349760Y0157028D01*
X0349812Y0156922D01*
X0349860Y0156814D01*
X0349905Y0156705D01*
X0349946Y0156594D01*
X0349983Y0156482D01*
X0350017Y0156368D01*
X0350047Y0156254D01*
X0350072Y0156139D01*
X0350094Y0156022D01*
X0350112Y0155905D01*
X0350126Y0155788D01*
X0350136Y0155670D01*
X0350142Y0155552D01*
X0350144Y0155434D01*
X0350142Y0155316D01*
X0350136Y0155198D01*
X0350126Y0155080D01*
X0350112Y0154963D01*
X0350094Y0154846D01*
X0350072Y0154729D01*
X0350047Y0154614D01*
X0350017Y0154500D01*
X0349983Y0154386D01*
X0349946Y0154274D01*
X0349905Y0154163D01*
X0349860Y0154054D01*
X0349812Y0153946D01*
X0349760Y0153840D01*
X0349704Y0153735D01*
X0349645Y0153633D01*
X0349583Y0153533D01*
X0349517Y0153435D01*
X0349448Y0153339D01*
X0349375Y0153245D01*
X0349300Y0153154D01*
X0349221Y0153066D01*
X0349140Y0152980D01*
X0349055Y0152897D01*
X0348968Y0152817D01*
X0348879Y0152740D01*
X0348786Y0152666D01*
X0348692Y0152596D01*
X0348595Y0152528D01*
X0348495Y0152464D01*
X0348394Y0152403D01*
X0348291Y0152346D01*
X0348185Y0152292D01*
X0348078Y0152241D01*
X0347970Y0152195D01*
X0347860Y0152152D01*
X0347748Y0152113D01*
X0347635Y0152077D01*
X0347521Y0152046D01*
X0347406Y0152018D01*
X0347291Y0151994D01*
X0347174Y0151974D01*
X0347057Y0151958D01*
X0346939Y0151946D01*
X0346821Y0151938D01*
X0346703Y0151934D01*
X0346585Y0151934D01*
X0346467Y0151938D01*
X0346349Y0151946D01*
X0346231Y0151958D01*
X0346114Y0151974D01*
X0345997Y0151994D01*
X0345882Y0152018D01*
X0345767Y0152046D01*
X0345653Y0152077D01*
X0345540Y0152113D01*
X0345428Y0152152D01*
X0345318Y0152195D01*
X0345210Y0152241D01*
X0345103Y0152292D01*
X0344997Y0152346D01*
X0344894Y0152403D01*
X0344793Y0152464D01*
X0344693Y0152528D01*
X0344596Y0152596D01*
X0344502Y0152666D01*
X0344409Y0152740D01*
X0344320Y0152817D01*
X0344233Y0152897D01*
X0344148Y0152980D01*
X0344067Y0153066D01*
X0343988Y0153154D01*
X0343913Y0153245D01*
X0343840Y0153339D01*
X0343771Y0153435D01*
X0343705Y0153533D01*
X0343643Y0153633D01*
X0343584Y0153735D01*
X0343528Y0153840D01*
X0343476Y0153946D01*
X0343428Y0154054D01*
X0343383Y0154163D01*
X0343342Y0154274D01*
X0343305Y0154386D01*
X0343271Y0154500D01*
X0343241Y0154614D01*
X0343216Y0154729D01*
X0343194Y0154846D01*
X0343176Y0154963D01*
X0343162Y0155080D01*
X0343152Y0155198D01*
X0343146Y0155316D01*
X0343144Y0155434D01*
X0368691Y0237520D02*
X0368693Y0237713D01*
X0368700Y0237906D01*
X0368712Y0238099D01*
X0368729Y0238292D01*
X0368750Y0238484D01*
X0368776Y0238675D01*
X0368807Y0238866D01*
X0368842Y0239056D01*
X0368882Y0239245D01*
X0368927Y0239433D01*
X0368976Y0239620D01*
X0369030Y0239806D01*
X0369088Y0239990D01*
X0369151Y0240173D01*
X0369219Y0240354D01*
X0369290Y0240533D01*
X0369367Y0240711D01*
X0369447Y0240887D01*
X0369532Y0241060D01*
X0369621Y0241232D01*
X0369714Y0241401D01*
X0369811Y0241568D01*
X0369913Y0241733D01*
X0370018Y0241895D01*
X0370127Y0242054D01*
X0370241Y0242211D01*
X0370358Y0242364D01*
X0370478Y0242515D01*
X0370603Y0242663D01*
X0370731Y0242808D01*
X0370862Y0242949D01*
X0370997Y0243088D01*
X0371136Y0243223D01*
X0371277Y0243354D01*
X0371422Y0243482D01*
X0371570Y0243607D01*
X0371721Y0243727D01*
X0371874Y0243844D01*
X0372031Y0243958D01*
X0372190Y0244067D01*
X0372352Y0244172D01*
X0372517Y0244274D01*
X0372684Y0244371D01*
X0372853Y0244464D01*
X0373025Y0244553D01*
X0373198Y0244638D01*
X0373374Y0244718D01*
X0373552Y0244795D01*
X0373731Y0244866D01*
X0373912Y0244934D01*
X0374095Y0244997D01*
X0374279Y0245055D01*
X0374465Y0245109D01*
X0374652Y0245158D01*
X0374840Y0245203D01*
X0375029Y0245243D01*
X0375219Y0245278D01*
X0375410Y0245309D01*
X0375601Y0245335D01*
X0375793Y0245356D01*
X0375986Y0245373D01*
X0376179Y0245385D01*
X0376372Y0245392D01*
X0376565Y0245394D01*
X0376758Y0245392D01*
X0376951Y0245385D01*
X0377144Y0245373D01*
X0377337Y0245356D01*
X0377529Y0245335D01*
X0377720Y0245309D01*
X0377911Y0245278D01*
X0378101Y0245243D01*
X0378290Y0245203D01*
X0378478Y0245158D01*
X0378665Y0245109D01*
X0378851Y0245055D01*
X0379035Y0244997D01*
X0379218Y0244934D01*
X0379399Y0244866D01*
X0379578Y0244795D01*
X0379756Y0244718D01*
X0379932Y0244638D01*
X0380105Y0244553D01*
X0380277Y0244464D01*
X0380446Y0244371D01*
X0380613Y0244274D01*
X0380778Y0244172D01*
X0380940Y0244067D01*
X0381099Y0243958D01*
X0381256Y0243844D01*
X0381409Y0243727D01*
X0381560Y0243607D01*
X0381708Y0243482D01*
X0381853Y0243354D01*
X0381994Y0243223D01*
X0382133Y0243088D01*
X0382268Y0242949D01*
X0382399Y0242808D01*
X0382527Y0242663D01*
X0382652Y0242515D01*
X0382772Y0242364D01*
X0382889Y0242211D01*
X0383003Y0242054D01*
X0383112Y0241895D01*
X0383217Y0241733D01*
X0383319Y0241568D01*
X0383416Y0241401D01*
X0383509Y0241232D01*
X0383598Y0241060D01*
X0383683Y0240887D01*
X0383763Y0240711D01*
X0383840Y0240533D01*
X0383911Y0240354D01*
X0383979Y0240173D01*
X0384042Y0239990D01*
X0384100Y0239806D01*
X0384154Y0239620D01*
X0384203Y0239433D01*
X0384248Y0239245D01*
X0384288Y0239056D01*
X0384323Y0238866D01*
X0384354Y0238675D01*
X0384380Y0238484D01*
X0384401Y0238292D01*
X0384418Y0238099D01*
X0384430Y0237906D01*
X0384437Y0237713D01*
X0384439Y0237520D01*
X0384437Y0237327D01*
X0384430Y0237134D01*
X0384418Y0236941D01*
X0384401Y0236748D01*
X0384380Y0236556D01*
X0384354Y0236365D01*
X0384323Y0236174D01*
X0384288Y0235984D01*
X0384248Y0235795D01*
X0384203Y0235607D01*
X0384154Y0235420D01*
X0384100Y0235234D01*
X0384042Y0235050D01*
X0383979Y0234867D01*
X0383911Y0234686D01*
X0383840Y0234507D01*
X0383763Y0234329D01*
X0383683Y0234153D01*
X0383598Y0233980D01*
X0383509Y0233808D01*
X0383416Y0233639D01*
X0383319Y0233472D01*
X0383217Y0233307D01*
X0383112Y0233145D01*
X0383003Y0232986D01*
X0382889Y0232829D01*
X0382772Y0232676D01*
X0382652Y0232525D01*
X0382527Y0232377D01*
X0382399Y0232232D01*
X0382268Y0232091D01*
X0382133Y0231952D01*
X0381994Y0231817D01*
X0381853Y0231686D01*
X0381708Y0231558D01*
X0381560Y0231433D01*
X0381409Y0231313D01*
X0381256Y0231196D01*
X0381099Y0231082D01*
X0380940Y0230973D01*
X0380778Y0230868D01*
X0380613Y0230766D01*
X0380446Y0230669D01*
X0380277Y0230576D01*
X0380105Y0230487D01*
X0379932Y0230402D01*
X0379756Y0230322D01*
X0379578Y0230245D01*
X0379399Y0230174D01*
X0379218Y0230106D01*
X0379035Y0230043D01*
X0378851Y0229985D01*
X0378665Y0229931D01*
X0378478Y0229882D01*
X0378290Y0229837D01*
X0378101Y0229797D01*
X0377911Y0229762D01*
X0377720Y0229731D01*
X0377529Y0229705D01*
X0377337Y0229684D01*
X0377144Y0229667D01*
X0376951Y0229655D01*
X0376758Y0229648D01*
X0376565Y0229646D01*
X0376372Y0229648D01*
X0376179Y0229655D01*
X0375986Y0229667D01*
X0375793Y0229684D01*
X0375601Y0229705D01*
X0375410Y0229731D01*
X0375219Y0229762D01*
X0375029Y0229797D01*
X0374840Y0229837D01*
X0374652Y0229882D01*
X0374465Y0229931D01*
X0374279Y0229985D01*
X0374095Y0230043D01*
X0373912Y0230106D01*
X0373731Y0230174D01*
X0373552Y0230245D01*
X0373374Y0230322D01*
X0373198Y0230402D01*
X0373025Y0230487D01*
X0372853Y0230576D01*
X0372684Y0230669D01*
X0372517Y0230766D01*
X0372352Y0230868D01*
X0372190Y0230973D01*
X0372031Y0231082D01*
X0371874Y0231196D01*
X0371721Y0231313D01*
X0371570Y0231433D01*
X0371422Y0231558D01*
X0371277Y0231686D01*
X0371136Y0231817D01*
X0370997Y0231952D01*
X0370862Y0232091D01*
X0370731Y0232232D01*
X0370603Y0232377D01*
X0370478Y0232525D01*
X0370358Y0232676D01*
X0370241Y0232829D01*
X0370127Y0232986D01*
X0370018Y0233145D01*
X0369913Y0233307D01*
X0369811Y0233472D01*
X0369714Y0233639D01*
X0369621Y0233808D01*
X0369532Y0233980D01*
X0369447Y0234153D01*
X0369367Y0234329D01*
X0369290Y0234507D01*
X0369219Y0234686D01*
X0369151Y0234867D01*
X0369088Y0235050D01*
X0369030Y0235234D01*
X0368976Y0235420D01*
X0368927Y0235607D01*
X0368882Y0235795D01*
X0368842Y0235984D01*
X0368807Y0236174D01*
X0368776Y0236365D01*
X0368750Y0236556D01*
X0368729Y0236748D01*
X0368712Y0236941D01*
X0368700Y0237134D01*
X0368693Y0237327D01*
X0368691Y0237520D01*
X0014360Y0241457D02*
X0014362Y0241650D01*
X0014369Y0241843D01*
X0014381Y0242036D01*
X0014398Y0242229D01*
X0014419Y0242421D01*
X0014445Y0242612D01*
X0014476Y0242803D01*
X0014511Y0242993D01*
X0014551Y0243182D01*
X0014596Y0243370D01*
X0014645Y0243557D01*
X0014699Y0243743D01*
X0014757Y0243927D01*
X0014820Y0244110D01*
X0014888Y0244291D01*
X0014959Y0244470D01*
X0015036Y0244648D01*
X0015116Y0244824D01*
X0015201Y0244997D01*
X0015290Y0245169D01*
X0015383Y0245338D01*
X0015480Y0245505D01*
X0015582Y0245670D01*
X0015687Y0245832D01*
X0015796Y0245991D01*
X0015910Y0246148D01*
X0016027Y0246301D01*
X0016147Y0246452D01*
X0016272Y0246600D01*
X0016400Y0246745D01*
X0016531Y0246886D01*
X0016666Y0247025D01*
X0016805Y0247160D01*
X0016946Y0247291D01*
X0017091Y0247419D01*
X0017239Y0247544D01*
X0017390Y0247664D01*
X0017543Y0247781D01*
X0017700Y0247895D01*
X0017859Y0248004D01*
X0018021Y0248109D01*
X0018186Y0248211D01*
X0018353Y0248308D01*
X0018522Y0248401D01*
X0018694Y0248490D01*
X0018867Y0248575D01*
X0019043Y0248655D01*
X0019221Y0248732D01*
X0019400Y0248803D01*
X0019581Y0248871D01*
X0019764Y0248934D01*
X0019948Y0248992D01*
X0020134Y0249046D01*
X0020321Y0249095D01*
X0020509Y0249140D01*
X0020698Y0249180D01*
X0020888Y0249215D01*
X0021079Y0249246D01*
X0021270Y0249272D01*
X0021462Y0249293D01*
X0021655Y0249310D01*
X0021848Y0249322D01*
X0022041Y0249329D01*
X0022234Y0249331D01*
X0022427Y0249329D01*
X0022620Y0249322D01*
X0022813Y0249310D01*
X0023006Y0249293D01*
X0023198Y0249272D01*
X0023389Y0249246D01*
X0023580Y0249215D01*
X0023770Y0249180D01*
X0023959Y0249140D01*
X0024147Y0249095D01*
X0024334Y0249046D01*
X0024520Y0248992D01*
X0024704Y0248934D01*
X0024887Y0248871D01*
X0025068Y0248803D01*
X0025247Y0248732D01*
X0025425Y0248655D01*
X0025601Y0248575D01*
X0025774Y0248490D01*
X0025946Y0248401D01*
X0026115Y0248308D01*
X0026282Y0248211D01*
X0026447Y0248109D01*
X0026609Y0248004D01*
X0026768Y0247895D01*
X0026925Y0247781D01*
X0027078Y0247664D01*
X0027229Y0247544D01*
X0027377Y0247419D01*
X0027522Y0247291D01*
X0027663Y0247160D01*
X0027802Y0247025D01*
X0027937Y0246886D01*
X0028068Y0246745D01*
X0028196Y0246600D01*
X0028321Y0246452D01*
X0028441Y0246301D01*
X0028558Y0246148D01*
X0028672Y0245991D01*
X0028781Y0245832D01*
X0028886Y0245670D01*
X0028988Y0245505D01*
X0029085Y0245338D01*
X0029178Y0245169D01*
X0029267Y0244997D01*
X0029352Y0244824D01*
X0029432Y0244648D01*
X0029509Y0244470D01*
X0029580Y0244291D01*
X0029648Y0244110D01*
X0029711Y0243927D01*
X0029769Y0243743D01*
X0029823Y0243557D01*
X0029872Y0243370D01*
X0029917Y0243182D01*
X0029957Y0242993D01*
X0029992Y0242803D01*
X0030023Y0242612D01*
X0030049Y0242421D01*
X0030070Y0242229D01*
X0030087Y0242036D01*
X0030099Y0241843D01*
X0030106Y0241650D01*
X0030108Y0241457D01*
X0030106Y0241264D01*
X0030099Y0241071D01*
X0030087Y0240878D01*
X0030070Y0240685D01*
X0030049Y0240493D01*
X0030023Y0240302D01*
X0029992Y0240111D01*
X0029957Y0239921D01*
X0029917Y0239732D01*
X0029872Y0239544D01*
X0029823Y0239357D01*
X0029769Y0239171D01*
X0029711Y0238987D01*
X0029648Y0238804D01*
X0029580Y0238623D01*
X0029509Y0238444D01*
X0029432Y0238266D01*
X0029352Y0238090D01*
X0029267Y0237917D01*
X0029178Y0237745D01*
X0029085Y0237576D01*
X0028988Y0237409D01*
X0028886Y0237244D01*
X0028781Y0237082D01*
X0028672Y0236923D01*
X0028558Y0236766D01*
X0028441Y0236613D01*
X0028321Y0236462D01*
X0028196Y0236314D01*
X0028068Y0236169D01*
X0027937Y0236028D01*
X0027802Y0235889D01*
X0027663Y0235754D01*
X0027522Y0235623D01*
X0027377Y0235495D01*
X0027229Y0235370D01*
X0027078Y0235250D01*
X0026925Y0235133D01*
X0026768Y0235019D01*
X0026609Y0234910D01*
X0026447Y0234805D01*
X0026282Y0234703D01*
X0026115Y0234606D01*
X0025946Y0234513D01*
X0025774Y0234424D01*
X0025601Y0234339D01*
X0025425Y0234259D01*
X0025247Y0234182D01*
X0025068Y0234111D01*
X0024887Y0234043D01*
X0024704Y0233980D01*
X0024520Y0233922D01*
X0024334Y0233868D01*
X0024147Y0233819D01*
X0023959Y0233774D01*
X0023770Y0233734D01*
X0023580Y0233699D01*
X0023389Y0233668D01*
X0023198Y0233642D01*
X0023006Y0233621D01*
X0022813Y0233604D01*
X0022620Y0233592D01*
X0022427Y0233585D01*
X0022234Y0233583D01*
X0022041Y0233585D01*
X0021848Y0233592D01*
X0021655Y0233604D01*
X0021462Y0233621D01*
X0021270Y0233642D01*
X0021079Y0233668D01*
X0020888Y0233699D01*
X0020698Y0233734D01*
X0020509Y0233774D01*
X0020321Y0233819D01*
X0020134Y0233868D01*
X0019948Y0233922D01*
X0019764Y0233980D01*
X0019581Y0234043D01*
X0019400Y0234111D01*
X0019221Y0234182D01*
X0019043Y0234259D01*
X0018867Y0234339D01*
X0018694Y0234424D01*
X0018522Y0234513D01*
X0018353Y0234606D01*
X0018186Y0234703D01*
X0018021Y0234805D01*
X0017859Y0234910D01*
X0017700Y0235019D01*
X0017543Y0235133D01*
X0017390Y0235250D01*
X0017239Y0235370D01*
X0017091Y0235495D01*
X0016946Y0235623D01*
X0016805Y0235754D01*
X0016666Y0235889D01*
X0016531Y0236028D01*
X0016400Y0236169D01*
X0016272Y0236314D01*
X0016147Y0236462D01*
X0016027Y0236613D01*
X0015910Y0236766D01*
X0015796Y0236923D01*
X0015687Y0237082D01*
X0015582Y0237244D01*
X0015480Y0237409D01*
X0015383Y0237576D01*
X0015290Y0237745D01*
X0015201Y0237917D01*
X0015116Y0238090D01*
X0015036Y0238266D01*
X0014959Y0238444D01*
X0014888Y0238623D01*
X0014820Y0238804D01*
X0014757Y0238987D01*
X0014699Y0239171D01*
X0014645Y0239357D01*
X0014596Y0239544D01*
X0014551Y0239732D01*
X0014511Y0239921D01*
X0014476Y0240111D01*
X0014445Y0240302D01*
X0014419Y0240493D01*
X0014398Y0240685D01*
X0014381Y0240878D01*
X0014369Y0241071D01*
X0014362Y0241264D01*
X0014360Y0241457D01*
M02*
