G75*
%MOIN*%
%OFA0B0*%
%FSLAX25Y25*%
%IPPOS*%
%LPD*%
%AMOC8*
5,1,8,0,0,1.08239X$1,22.5*
%
%ADD10C,0.06406*%
%ADD11OC8,0.06800*%
%ADD12C,0.06800*%
%ADD13OC8,0.05300*%
%ADD14C,0.05500*%
%ADD15C,0.07900*%
%ADD16C,0.05300*%
%ADD17C,0.07500*%
%ADD18C,0.03500*%
%ADD19C,0.06500*%
%ADD20R,0.13000X0.06500*%
%ADD21C,0.05224*%
%ADD22C,0.07100*%
%ADD23C,0.03200*%
%ADD24C,0.06100*%
D10*
X0021433Y0072555D03*
X0104110Y0072555D03*
X0147417Y0119799D03*
D11*
X0142988Y0099878D03*
X0106394Y0044917D03*
D12*
X0116394Y0044917D03*
X0152988Y0099878D03*
D13*
X0124760Y0088028D03*
X0114760Y0088028D03*
X0099602Y0096768D03*
X0089602Y0096768D03*
X0077969Y0096768D03*
X0067969Y0096768D03*
X0055823Y0096768D03*
X0045823Y0096768D03*
X0033382Y0096768D03*
X0023382Y0096768D03*
X0023579Y0118500D03*
X0033579Y0118500D03*
X0045705Y0118835D03*
X0055705Y0118835D03*
X0068283Y0118972D03*
X0078283Y0118972D03*
X0089720Y0119406D03*
X0099720Y0119406D03*
X0114622Y0115665D03*
X0124622Y0115665D03*
X0078480Y0077870D03*
X0068480Y0077870D03*
X0143382Y0074425D03*
X0153382Y0074425D03*
D14*
X0172378Y0076610D03*
X0172378Y0066610D03*
X0172378Y0056610D03*
X0172378Y0046610D03*
X0202378Y0046610D03*
X0202378Y0056610D03*
X0202378Y0066610D03*
X0202378Y0076610D03*
D15*
X0116720Y0019465D03*
X0105320Y0019465D03*
D16*
X0053402Y0066435D02*
X0053402Y0071235D01*
X0043402Y0071235D02*
X0043402Y0066435D01*
X0033402Y0066435D02*
X0033402Y0071235D01*
D17*
X0171138Y0099652D03*
X0181138Y0099652D03*
X0191138Y0099652D03*
X0191138Y0109652D03*
X0181138Y0109652D03*
X0171138Y0109652D03*
D18*
X0234478Y0143047D02*
X0234480Y0143126D01*
X0234486Y0143206D01*
X0234496Y0143285D01*
X0234510Y0143363D01*
X0234528Y0143440D01*
X0234549Y0143517D01*
X0234575Y0143592D01*
X0234604Y0143666D01*
X0234637Y0143738D01*
X0234674Y0143809D01*
X0234714Y0143877D01*
X0234757Y0143944D01*
X0234804Y0144008D01*
X0234854Y0144070D01*
X0234907Y0144129D01*
X0234962Y0144186D01*
X0235021Y0144239D01*
X0235082Y0144290D01*
X0235146Y0144338D01*
X0235212Y0144382D01*
X0235280Y0144423D01*
X0235350Y0144460D01*
X0235422Y0144494D01*
X0235496Y0144524D01*
X0235570Y0144551D01*
X0235647Y0144573D01*
X0235724Y0144592D01*
X0235802Y0144607D01*
X0235881Y0144618D01*
X0235960Y0144625D01*
X0236039Y0144628D01*
X0236119Y0144627D01*
X0236198Y0144622D01*
X0236277Y0144613D01*
X0236355Y0144600D01*
X0236433Y0144583D01*
X0236510Y0144562D01*
X0236585Y0144538D01*
X0236659Y0144510D01*
X0236732Y0144478D01*
X0236803Y0144442D01*
X0236872Y0144403D01*
X0236939Y0144360D01*
X0237004Y0144314D01*
X0237067Y0144265D01*
X0237127Y0144213D01*
X0237184Y0144158D01*
X0237238Y0144100D01*
X0237290Y0144039D01*
X0237338Y0143976D01*
X0237383Y0143911D01*
X0237425Y0143843D01*
X0237463Y0143774D01*
X0237498Y0143702D01*
X0237529Y0143629D01*
X0237556Y0143554D01*
X0237580Y0143479D01*
X0237600Y0143402D01*
X0237616Y0143324D01*
X0237628Y0143245D01*
X0237636Y0143166D01*
X0237640Y0143087D01*
X0237640Y0143007D01*
X0237636Y0142928D01*
X0237628Y0142849D01*
X0237616Y0142770D01*
X0237600Y0142692D01*
X0237580Y0142615D01*
X0237556Y0142540D01*
X0237529Y0142465D01*
X0237498Y0142392D01*
X0237463Y0142320D01*
X0237425Y0142251D01*
X0237383Y0142183D01*
X0237338Y0142118D01*
X0237290Y0142055D01*
X0237238Y0141994D01*
X0237184Y0141936D01*
X0237127Y0141881D01*
X0237067Y0141829D01*
X0237004Y0141780D01*
X0236939Y0141734D01*
X0236872Y0141691D01*
X0236803Y0141652D01*
X0236732Y0141616D01*
X0236659Y0141584D01*
X0236585Y0141556D01*
X0236510Y0141532D01*
X0236433Y0141511D01*
X0236355Y0141494D01*
X0236277Y0141481D01*
X0236198Y0141472D01*
X0236119Y0141467D01*
X0236039Y0141466D01*
X0235960Y0141469D01*
X0235881Y0141476D01*
X0235802Y0141487D01*
X0235724Y0141502D01*
X0235647Y0141521D01*
X0235570Y0141543D01*
X0235496Y0141570D01*
X0235422Y0141600D01*
X0235350Y0141634D01*
X0235280Y0141671D01*
X0235212Y0141712D01*
X0235146Y0141756D01*
X0235082Y0141804D01*
X0235021Y0141855D01*
X0234962Y0141908D01*
X0234907Y0141965D01*
X0234854Y0142024D01*
X0234804Y0142086D01*
X0234757Y0142150D01*
X0234714Y0142217D01*
X0234674Y0142285D01*
X0234637Y0142356D01*
X0234604Y0142428D01*
X0234575Y0142502D01*
X0234549Y0142577D01*
X0234528Y0142654D01*
X0234510Y0142731D01*
X0234496Y0142809D01*
X0234486Y0142888D01*
X0234480Y0142968D01*
X0234478Y0143047D01*
X0234872Y0023205D02*
X0234874Y0023284D01*
X0234880Y0023364D01*
X0234890Y0023443D01*
X0234904Y0023521D01*
X0234922Y0023598D01*
X0234943Y0023675D01*
X0234969Y0023750D01*
X0234998Y0023824D01*
X0235031Y0023896D01*
X0235068Y0023967D01*
X0235108Y0024035D01*
X0235151Y0024102D01*
X0235198Y0024166D01*
X0235248Y0024228D01*
X0235301Y0024287D01*
X0235356Y0024344D01*
X0235415Y0024397D01*
X0235476Y0024448D01*
X0235540Y0024496D01*
X0235606Y0024540D01*
X0235674Y0024581D01*
X0235744Y0024618D01*
X0235816Y0024652D01*
X0235890Y0024682D01*
X0235964Y0024709D01*
X0236041Y0024731D01*
X0236118Y0024750D01*
X0236196Y0024765D01*
X0236275Y0024776D01*
X0236354Y0024783D01*
X0236433Y0024786D01*
X0236513Y0024785D01*
X0236592Y0024780D01*
X0236671Y0024771D01*
X0236749Y0024758D01*
X0236827Y0024741D01*
X0236904Y0024720D01*
X0236979Y0024696D01*
X0237053Y0024668D01*
X0237126Y0024636D01*
X0237197Y0024600D01*
X0237266Y0024561D01*
X0237333Y0024518D01*
X0237398Y0024472D01*
X0237461Y0024423D01*
X0237521Y0024371D01*
X0237578Y0024316D01*
X0237632Y0024258D01*
X0237684Y0024197D01*
X0237732Y0024134D01*
X0237777Y0024069D01*
X0237819Y0024001D01*
X0237857Y0023932D01*
X0237892Y0023860D01*
X0237923Y0023787D01*
X0237950Y0023712D01*
X0237974Y0023637D01*
X0237994Y0023560D01*
X0238010Y0023482D01*
X0238022Y0023403D01*
X0238030Y0023324D01*
X0238034Y0023245D01*
X0238034Y0023165D01*
X0238030Y0023086D01*
X0238022Y0023007D01*
X0238010Y0022928D01*
X0237994Y0022850D01*
X0237974Y0022773D01*
X0237950Y0022698D01*
X0237923Y0022623D01*
X0237892Y0022550D01*
X0237857Y0022478D01*
X0237819Y0022409D01*
X0237777Y0022341D01*
X0237732Y0022276D01*
X0237684Y0022213D01*
X0237632Y0022152D01*
X0237578Y0022094D01*
X0237521Y0022039D01*
X0237461Y0021987D01*
X0237398Y0021938D01*
X0237333Y0021892D01*
X0237266Y0021849D01*
X0237197Y0021810D01*
X0237126Y0021774D01*
X0237053Y0021742D01*
X0236979Y0021714D01*
X0236904Y0021690D01*
X0236827Y0021669D01*
X0236749Y0021652D01*
X0236671Y0021639D01*
X0236592Y0021630D01*
X0236513Y0021625D01*
X0236433Y0021624D01*
X0236354Y0021627D01*
X0236275Y0021634D01*
X0236196Y0021645D01*
X0236118Y0021660D01*
X0236041Y0021679D01*
X0235964Y0021701D01*
X0235890Y0021728D01*
X0235816Y0021758D01*
X0235744Y0021792D01*
X0235674Y0021829D01*
X0235606Y0021870D01*
X0235540Y0021914D01*
X0235476Y0021962D01*
X0235415Y0022013D01*
X0235356Y0022066D01*
X0235301Y0022123D01*
X0235248Y0022182D01*
X0235198Y0022244D01*
X0235151Y0022308D01*
X0235108Y0022375D01*
X0235068Y0022443D01*
X0235031Y0022514D01*
X0234998Y0022586D01*
X0234969Y0022660D01*
X0234943Y0022735D01*
X0234922Y0022812D01*
X0234904Y0022889D01*
X0234890Y0022967D01*
X0234880Y0023046D01*
X0234874Y0023126D01*
X0234872Y0023205D01*
D19*
X0236059Y0083126D03*
D20*
X0159699Y0057700D03*
X0131199Y0053657D03*
X0131199Y0037909D03*
X0131199Y0026098D03*
X0095722Y0057700D03*
X0067222Y0053657D03*
X0067222Y0037909D03*
X0067222Y0026098D03*
D21*
X0081472Y0019799D03*
X0081472Y0047358D03*
X0145449Y0047358D03*
X0145449Y0019799D03*
D22*
X0023264Y0022181D03*
X0031138Y0022181D03*
X0039012Y0022181D03*
X0046886Y0022181D03*
X0054760Y0022181D03*
X0169701Y0022181D03*
X0177575Y0022181D03*
X0185449Y0022181D03*
X0193323Y0022181D03*
X0201197Y0022181D03*
D23*
X0149386Y0058776D03*
D24*
X0171177Y0104563D03*
X0181138Y0104661D03*
X0191177Y0104661D03*
M02*
