G75*
%MOIN*%
%OFA0B0*%
%FSLAX25Y25*%
%IPPOS*%
%LPD*%
%AMOC8*
5,1,8,0,0,1.08239X$1,22.5*
%
%ADD10C,0.12205*%
%ADD11C,0.00000*%
D10*
X0007142Y0007102D02*
X0007102Y0169228D01*
X0268421Y0169228D01*
X0268618Y0007122D01*
X0007142Y0007102D01*
D11*
X0021433Y0013500D02*
X0021433Y0021374D01*
X0013559Y0021374D01*
X0013559Y0076492D01*
X0021433Y0076492D01*
X0021433Y0084366D01*
X0379701Y0084366D01*
X0379701Y0076492D01*
X0387575Y0076492D01*
X0387575Y0021374D01*
X0379701Y0021374D01*
X0379701Y0013500D01*
X0021433Y0013500D01*
X0018185Y0048803D02*
X0018187Y0048900D01*
X0018193Y0048997D01*
X0018203Y0049093D01*
X0018217Y0049189D01*
X0018235Y0049285D01*
X0018256Y0049379D01*
X0018282Y0049473D01*
X0018311Y0049565D01*
X0018345Y0049656D01*
X0018381Y0049746D01*
X0018422Y0049834D01*
X0018466Y0049920D01*
X0018514Y0050005D01*
X0018565Y0050087D01*
X0018619Y0050168D01*
X0018677Y0050246D01*
X0018738Y0050321D01*
X0018801Y0050394D01*
X0018868Y0050465D01*
X0018938Y0050532D01*
X0019010Y0050597D01*
X0019085Y0050658D01*
X0019163Y0050717D01*
X0019242Y0050772D01*
X0019324Y0050824D01*
X0019408Y0050872D01*
X0019494Y0050917D01*
X0019582Y0050959D01*
X0019671Y0050997D01*
X0019762Y0051031D01*
X0019854Y0051061D01*
X0019947Y0051088D01*
X0020042Y0051110D01*
X0020137Y0051129D01*
X0020233Y0051144D01*
X0020329Y0051155D01*
X0020426Y0051162D01*
X0020523Y0051165D01*
X0020620Y0051164D01*
X0020717Y0051159D01*
X0020813Y0051150D01*
X0020909Y0051137D01*
X0021005Y0051120D01*
X0021100Y0051099D01*
X0021193Y0051075D01*
X0021286Y0051046D01*
X0021378Y0051014D01*
X0021468Y0050978D01*
X0021556Y0050939D01*
X0021643Y0050895D01*
X0021728Y0050849D01*
X0021811Y0050798D01*
X0021892Y0050745D01*
X0021970Y0050688D01*
X0022047Y0050628D01*
X0022120Y0050565D01*
X0022191Y0050499D01*
X0022259Y0050430D01*
X0022325Y0050358D01*
X0022387Y0050284D01*
X0022446Y0050207D01*
X0022502Y0050128D01*
X0022555Y0050046D01*
X0022605Y0049963D01*
X0022650Y0049877D01*
X0022693Y0049790D01*
X0022732Y0049701D01*
X0022767Y0049611D01*
X0022798Y0049519D01*
X0022825Y0049426D01*
X0022849Y0049332D01*
X0022869Y0049237D01*
X0022885Y0049141D01*
X0022897Y0049045D01*
X0022905Y0048948D01*
X0022909Y0048851D01*
X0022909Y0048755D01*
X0022905Y0048658D01*
X0022897Y0048561D01*
X0022885Y0048465D01*
X0022869Y0048369D01*
X0022849Y0048274D01*
X0022825Y0048180D01*
X0022798Y0048087D01*
X0022767Y0047995D01*
X0022732Y0047905D01*
X0022693Y0047816D01*
X0022650Y0047729D01*
X0022605Y0047643D01*
X0022555Y0047560D01*
X0022502Y0047478D01*
X0022446Y0047399D01*
X0022387Y0047322D01*
X0022325Y0047248D01*
X0022259Y0047176D01*
X0022191Y0047107D01*
X0022120Y0047041D01*
X0022047Y0046978D01*
X0021970Y0046918D01*
X0021892Y0046861D01*
X0021811Y0046808D01*
X0021728Y0046757D01*
X0021643Y0046711D01*
X0021556Y0046667D01*
X0021468Y0046628D01*
X0021378Y0046592D01*
X0021286Y0046560D01*
X0021193Y0046531D01*
X0021100Y0046507D01*
X0021005Y0046486D01*
X0020909Y0046469D01*
X0020813Y0046456D01*
X0020717Y0046447D01*
X0020620Y0046442D01*
X0020523Y0046441D01*
X0020426Y0046444D01*
X0020329Y0046451D01*
X0020233Y0046462D01*
X0020137Y0046477D01*
X0020042Y0046496D01*
X0019947Y0046518D01*
X0019854Y0046545D01*
X0019762Y0046575D01*
X0019671Y0046609D01*
X0019582Y0046647D01*
X0019494Y0046689D01*
X0019408Y0046734D01*
X0019324Y0046782D01*
X0019242Y0046834D01*
X0019163Y0046889D01*
X0019085Y0046948D01*
X0019010Y0047009D01*
X0018938Y0047074D01*
X0018868Y0047141D01*
X0018801Y0047212D01*
X0018738Y0047285D01*
X0018677Y0047360D01*
X0018619Y0047438D01*
X0018565Y0047519D01*
X0018514Y0047601D01*
X0018466Y0047686D01*
X0018422Y0047772D01*
X0018381Y0047860D01*
X0018345Y0047950D01*
X0018311Y0048041D01*
X0018282Y0048133D01*
X0018256Y0048227D01*
X0018235Y0048321D01*
X0018217Y0048417D01*
X0018203Y0048513D01*
X0018193Y0048609D01*
X0018187Y0048706D01*
X0018185Y0048803D01*
X0026905Y0048992D02*
X0026907Y0049076D01*
X0026913Y0049159D01*
X0026923Y0049242D01*
X0026937Y0049325D01*
X0026954Y0049407D01*
X0026976Y0049488D01*
X0027001Y0049567D01*
X0027030Y0049646D01*
X0027063Y0049723D01*
X0027099Y0049798D01*
X0027139Y0049872D01*
X0027182Y0049944D01*
X0027229Y0050013D01*
X0027279Y0050080D01*
X0027332Y0050145D01*
X0027388Y0050207D01*
X0027446Y0050267D01*
X0027508Y0050324D01*
X0027572Y0050377D01*
X0027639Y0050428D01*
X0027708Y0050475D01*
X0027779Y0050520D01*
X0027852Y0050560D01*
X0027927Y0050597D01*
X0028004Y0050631D01*
X0028082Y0050661D01*
X0028161Y0050687D01*
X0028242Y0050710D01*
X0028324Y0050728D01*
X0028406Y0050743D01*
X0028489Y0050754D01*
X0028572Y0050761D01*
X0028656Y0050764D01*
X0028740Y0050763D01*
X0028823Y0050758D01*
X0028907Y0050749D01*
X0028989Y0050736D01*
X0029071Y0050720D01*
X0029152Y0050699D01*
X0029233Y0050675D01*
X0029311Y0050647D01*
X0029389Y0050615D01*
X0029465Y0050579D01*
X0029539Y0050540D01*
X0029611Y0050498D01*
X0029681Y0050452D01*
X0029749Y0050403D01*
X0029814Y0050351D01*
X0029877Y0050296D01*
X0029937Y0050238D01*
X0029995Y0050177D01*
X0030049Y0050113D01*
X0030101Y0050047D01*
X0030149Y0049979D01*
X0030194Y0049908D01*
X0030235Y0049835D01*
X0030274Y0049761D01*
X0030308Y0049685D01*
X0030339Y0049607D01*
X0030366Y0049528D01*
X0030390Y0049447D01*
X0030409Y0049366D01*
X0030425Y0049284D01*
X0030437Y0049201D01*
X0030445Y0049117D01*
X0030449Y0049034D01*
X0030449Y0048950D01*
X0030445Y0048867D01*
X0030437Y0048783D01*
X0030425Y0048700D01*
X0030409Y0048618D01*
X0030390Y0048537D01*
X0030366Y0048456D01*
X0030339Y0048377D01*
X0030308Y0048299D01*
X0030274Y0048223D01*
X0030235Y0048149D01*
X0030194Y0048076D01*
X0030149Y0048005D01*
X0030101Y0047937D01*
X0030049Y0047871D01*
X0029995Y0047807D01*
X0029937Y0047746D01*
X0029877Y0047688D01*
X0029814Y0047633D01*
X0029749Y0047581D01*
X0029681Y0047532D01*
X0029611Y0047486D01*
X0029539Y0047444D01*
X0029465Y0047405D01*
X0029389Y0047369D01*
X0029311Y0047337D01*
X0029233Y0047309D01*
X0029152Y0047285D01*
X0029071Y0047264D01*
X0028989Y0047248D01*
X0028907Y0047235D01*
X0028823Y0047226D01*
X0028740Y0047221D01*
X0028656Y0047220D01*
X0028572Y0047223D01*
X0028489Y0047230D01*
X0028406Y0047241D01*
X0028324Y0047256D01*
X0028242Y0047274D01*
X0028161Y0047297D01*
X0028082Y0047323D01*
X0028004Y0047353D01*
X0027927Y0047387D01*
X0027852Y0047424D01*
X0027779Y0047464D01*
X0027708Y0047509D01*
X0027639Y0047556D01*
X0027572Y0047607D01*
X0027508Y0047660D01*
X0027446Y0047717D01*
X0027388Y0047777D01*
X0027332Y0047839D01*
X0027279Y0047904D01*
X0027229Y0047971D01*
X0027182Y0048040D01*
X0027139Y0048112D01*
X0027099Y0048186D01*
X0027063Y0048261D01*
X0027030Y0048338D01*
X0027001Y0048417D01*
X0026976Y0048496D01*
X0026954Y0048577D01*
X0026937Y0048659D01*
X0026923Y0048742D01*
X0026913Y0048825D01*
X0026907Y0048908D01*
X0026905Y0048992D01*
X0045744Y0048803D02*
X0045746Y0048900D01*
X0045752Y0048997D01*
X0045762Y0049093D01*
X0045776Y0049189D01*
X0045794Y0049285D01*
X0045815Y0049379D01*
X0045841Y0049473D01*
X0045870Y0049565D01*
X0045904Y0049656D01*
X0045940Y0049746D01*
X0045981Y0049834D01*
X0046025Y0049920D01*
X0046073Y0050005D01*
X0046124Y0050087D01*
X0046178Y0050168D01*
X0046236Y0050246D01*
X0046297Y0050321D01*
X0046360Y0050394D01*
X0046427Y0050465D01*
X0046497Y0050532D01*
X0046569Y0050597D01*
X0046644Y0050658D01*
X0046722Y0050717D01*
X0046801Y0050772D01*
X0046883Y0050824D01*
X0046967Y0050872D01*
X0047053Y0050917D01*
X0047141Y0050959D01*
X0047230Y0050997D01*
X0047321Y0051031D01*
X0047413Y0051061D01*
X0047506Y0051088D01*
X0047601Y0051110D01*
X0047696Y0051129D01*
X0047792Y0051144D01*
X0047888Y0051155D01*
X0047985Y0051162D01*
X0048082Y0051165D01*
X0048179Y0051164D01*
X0048276Y0051159D01*
X0048372Y0051150D01*
X0048468Y0051137D01*
X0048564Y0051120D01*
X0048659Y0051099D01*
X0048752Y0051075D01*
X0048845Y0051046D01*
X0048937Y0051014D01*
X0049027Y0050978D01*
X0049115Y0050939D01*
X0049202Y0050895D01*
X0049287Y0050849D01*
X0049370Y0050798D01*
X0049451Y0050745D01*
X0049529Y0050688D01*
X0049606Y0050628D01*
X0049679Y0050565D01*
X0049750Y0050499D01*
X0049818Y0050430D01*
X0049884Y0050358D01*
X0049946Y0050284D01*
X0050005Y0050207D01*
X0050061Y0050128D01*
X0050114Y0050046D01*
X0050164Y0049963D01*
X0050209Y0049877D01*
X0050252Y0049790D01*
X0050291Y0049701D01*
X0050326Y0049611D01*
X0050357Y0049519D01*
X0050384Y0049426D01*
X0050408Y0049332D01*
X0050428Y0049237D01*
X0050444Y0049141D01*
X0050456Y0049045D01*
X0050464Y0048948D01*
X0050468Y0048851D01*
X0050468Y0048755D01*
X0050464Y0048658D01*
X0050456Y0048561D01*
X0050444Y0048465D01*
X0050428Y0048369D01*
X0050408Y0048274D01*
X0050384Y0048180D01*
X0050357Y0048087D01*
X0050326Y0047995D01*
X0050291Y0047905D01*
X0050252Y0047816D01*
X0050209Y0047729D01*
X0050164Y0047643D01*
X0050114Y0047560D01*
X0050061Y0047478D01*
X0050005Y0047399D01*
X0049946Y0047322D01*
X0049884Y0047248D01*
X0049818Y0047176D01*
X0049750Y0047107D01*
X0049679Y0047041D01*
X0049606Y0046978D01*
X0049529Y0046918D01*
X0049451Y0046861D01*
X0049370Y0046808D01*
X0049287Y0046757D01*
X0049202Y0046711D01*
X0049115Y0046667D01*
X0049027Y0046628D01*
X0048937Y0046592D01*
X0048845Y0046560D01*
X0048752Y0046531D01*
X0048659Y0046507D01*
X0048564Y0046486D01*
X0048468Y0046469D01*
X0048372Y0046456D01*
X0048276Y0046447D01*
X0048179Y0046442D01*
X0048082Y0046441D01*
X0047985Y0046444D01*
X0047888Y0046451D01*
X0047792Y0046462D01*
X0047696Y0046477D01*
X0047601Y0046496D01*
X0047506Y0046518D01*
X0047413Y0046545D01*
X0047321Y0046575D01*
X0047230Y0046609D01*
X0047141Y0046647D01*
X0047053Y0046689D01*
X0046967Y0046734D01*
X0046883Y0046782D01*
X0046801Y0046834D01*
X0046722Y0046889D01*
X0046644Y0046948D01*
X0046569Y0047009D01*
X0046497Y0047074D01*
X0046427Y0047141D01*
X0046360Y0047212D01*
X0046297Y0047285D01*
X0046236Y0047360D01*
X0046178Y0047438D01*
X0046124Y0047519D01*
X0046073Y0047601D01*
X0046025Y0047686D01*
X0045981Y0047772D01*
X0045940Y0047860D01*
X0045904Y0047950D01*
X0045870Y0048041D01*
X0045841Y0048133D01*
X0045815Y0048227D01*
X0045794Y0048321D01*
X0045776Y0048417D01*
X0045762Y0048513D01*
X0045752Y0048609D01*
X0045746Y0048706D01*
X0045744Y0048803D01*
X0053677Y0048992D02*
X0053679Y0049076D01*
X0053685Y0049159D01*
X0053695Y0049242D01*
X0053709Y0049325D01*
X0053726Y0049407D01*
X0053748Y0049488D01*
X0053773Y0049567D01*
X0053802Y0049646D01*
X0053835Y0049723D01*
X0053871Y0049798D01*
X0053911Y0049872D01*
X0053954Y0049944D01*
X0054001Y0050013D01*
X0054051Y0050080D01*
X0054104Y0050145D01*
X0054160Y0050207D01*
X0054218Y0050267D01*
X0054280Y0050324D01*
X0054344Y0050377D01*
X0054411Y0050428D01*
X0054480Y0050475D01*
X0054551Y0050520D01*
X0054624Y0050560D01*
X0054699Y0050597D01*
X0054776Y0050631D01*
X0054854Y0050661D01*
X0054933Y0050687D01*
X0055014Y0050710D01*
X0055096Y0050728D01*
X0055178Y0050743D01*
X0055261Y0050754D01*
X0055344Y0050761D01*
X0055428Y0050764D01*
X0055512Y0050763D01*
X0055595Y0050758D01*
X0055679Y0050749D01*
X0055761Y0050736D01*
X0055843Y0050720D01*
X0055924Y0050699D01*
X0056005Y0050675D01*
X0056083Y0050647D01*
X0056161Y0050615D01*
X0056237Y0050579D01*
X0056311Y0050540D01*
X0056383Y0050498D01*
X0056453Y0050452D01*
X0056521Y0050403D01*
X0056586Y0050351D01*
X0056649Y0050296D01*
X0056709Y0050238D01*
X0056767Y0050177D01*
X0056821Y0050113D01*
X0056873Y0050047D01*
X0056921Y0049979D01*
X0056966Y0049908D01*
X0057007Y0049835D01*
X0057046Y0049761D01*
X0057080Y0049685D01*
X0057111Y0049607D01*
X0057138Y0049528D01*
X0057162Y0049447D01*
X0057181Y0049366D01*
X0057197Y0049284D01*
X0057209Y0049201D01*
X0057217Y0049117D01*
X0057221Y0049034D01*
X0057221Y0048950D01*
X0057217Y0048867D01*
X0057209Y0048783D01*
X0057197Y0048700D01*
X0057181Y0048618D01*
X0057162Y0048537D01*
X0057138Y0048456D01*
X0057111Y0048377D01*
X0057080Y0048299D01*
X0057046Y0048223D01*
X0057007Y0048149D01*
X0056966Y0048076D01*
X0056921Y0048005D01*
X0056873Y0047937D01*
X0056821Y0047871D01*
X0056767Y0047807D01*
X0056709Y0047746D01*
X0056649Y0047688D01*
X0056586Y0047633D01*
X0056521Y0047581D01*
X0056453Y0047532D01*
X0056383Y0047486D01*
X0056311Y0047444D01*
X0056237Y0047405D01*
X0056161Y0047369D01*
X0056083Y0047337D01*
X0056005Y0047309D01*
X0055924Y0047285D01*
X0055843Y0047264D01*
X0055761Y0047248D01*
X0055679Y0047235D01*
X0055595Y0047226D01*
X0055512Y0047221D01*
X0055428Y0047220D01*
X0055344Y0047223D01*
X0055261Y0047230D01*
X0055178Y0047241D01*
X0055096Y0047256D01*
X0055014Y0047274D01*
X0054933Y0047297D01*
X0054854Y0047323D01*
X0054776Y0047353D01*
X0054699Y0047387D01*
X0054624Y0047424D01*
X0054551Y0047464D01*
X0054480Y0047509D01*
X0054411Y0047556D01*
X0054344Y0047607D01*
X0054280Y0047660D01*
X0054218Y0047717D01*
X0054160Y0047777D01*
X0054104Y0047839D01*
X0054051Y0047904D01*
X0054001Y0047971D01*
X0053954Y0048040D01*
X0053911Y0048112D01*
X0053871Y0048186D01*
X0053835Y0048261D01*
X0053802Y0048338D01*
X0053773Y0048417D01*
X0053748Y0048496D01*
X0053726Y0048577D01*
X0053709Y0048659D01*
X0053695Y0048742D01*
X0053685Y0048825D01*
X0053679Y0048908D01*
X0053677Y0048992D01*
X0092299Y0048933D02*
X0092301Y0049058D01*
X0092307Y0049183D01*
X0092317Y0049307D01*
X0092331Y0049431D01*
X0092348Y0049555D01*
X0092370Y0049678D01*
X0092396Y0049800D01*
X0092425Y0049922D01*
X0092458Y0050042D01*
X0092496Y0050161D01*
X0092536Y0050280D01*
X0092581Y0050396D01*
X0092629Y0050511D01*
X0092681Y0050625D01*
X0092737Y0050737D01*
X0092796Y0050847D01*
X0092858Y0050955D01*
X0092924Y0051062D01*
X0092993Y0051166D01*
X0093066Y0051267D01*
X0093141Y0051367D01*
X0093220Y0051464D01*
X0093302Y0051558D01*
X0093387Y0051650D01*
X0093474Y0051739D01*
X0093565Y0051825D01*
X0093658Y0051908D01*
X0093754Y0051989D01*
X0093852Y0052066D01*
X0093952Y0052140D01*
X0094055Y0052211D01*
X0094160Y0052278D01*
X0094268Y0052343D01*
X0094377Y0052403D01*
X0094488Y0052461D01*
X0094601Y0052514D01*
X0094715Y0052564D01*
X0094831Y0052611D01*
X0094948Y0052653D01*
X0095067Y0052692D01*
X0095187Y0052728D01*
X0095308Y0052759D01*
X0095430Y0052787D01*
X0095552Y0052810D01*
X0095676Y0052830D01*
X0095800Y0052846D01*
X0095924Y0052858D01*
X0096049Y0052866D01*
X0096174Y0052870D01*
X0096298Y0052870D01*
X0096423Y0052866D01*
X0096548Y0052858D01*
X0096672Y0052846D01*
X0096796Y0052830D01*
X0096920Y0052810D01*
X0097042Y0052787D01*
X0097164Y0052759D01*
X0097285Y0052728D01*
X0097405Y0052692D01*
X0097524Y0052653D01*
X0097641Y0052611D01*
X0097757Y0052564D01*
X0097871Y0052514D01*
X0097984Y0052461D01*
X0098095Y0052403D01*
X0098205Y0052343D01*
X0098312Y0052278D01*
X0098417Y0052211D01*
X0098520Y0052140D01*
X0098620Y0052066D01*
X0098718Y0051989D01*
X0098814Y0051908D01*
X0098907Y0051825D01*
X0098998Y0051739D01*
X0099085Y0051650D01*
X0099170Y0051558D01*
X0099252Y0051464D01*
X0099331Y0051367D01*
X0099406Y0051267D01*
X0099479Y0051166D01*
X0099548Y0051062D01*
X0099614Y0050955D01*
X0099676Y0050847D01*
X0099735Y0050737D01*
X0099791Y0050625D01*
X0099843Y0050511D01*
X0099891Y0050396D01*
X0099936Y0050280D01*
X0099976Y0050161D01*
X0100014Y0050042D01*
X0100047Y0049922D01*
X0100076Y0049800D01*
X0100102Y0049678D01*
X0100124Y0049555D01*
X0100141Y0049431D01*
X0100155Y0049307D01*
X0100165Y0049183D01*
X0100171Y0049058D01*
X0100173Y0048933D01*
X0100171Y0048808D01*
X0100165Y0048683D01*
X0100155Y0048559D01*
X0100141Y0048435D01*
X0100124Y0048311D01*
X0100102Y0048188D01*
X0100076Y0048066D01*
X0100047Y0047944D01*
X0100014Y0047824D01*
X0099976Y0047705D01*
X0099936Y0047586D01*
X0099891Y0047470D01*
X0099843Y0047355D01*
X0099791Y0047241D01*
X0099735Y0047129D01*
X0099676Y0047019D01*
X0099614Y0046911D01*
X0099548Y0046804D01*
X0099479Y0046700D01*
X0099406Y0046599D01*
X0099331Y0046499D01*
X0099252Y0046402D01*
X0099170Y0046308D01*
X0099085Y0046216D01*
X0098998Y0046127D01*
X0098907Y0046041D01*
X0098814Y0045958D01*
X0098718Y0045877D01*
X0098620Y0045800D01*
X0098520Y0045726D01*
X0098417Y0045655D01*
X0098312Y0045588D01*
X0098204Y0045523D01*
X0098095Y0045463D01*
X0097984Y0045405D01*
X0097871Y0045352D01*
X0097757Y0045302D01*
X0097641Y0045255D01*
X0097524Y0045213D01*
X0097405Y0045174D01*
X0097285Y0045138D01*
X0097164Y0045107D01*
X0097042Y0045079D01*
X0096920Y0045056D01*
X0096796Y0045036D01*
X0096672Y0045020D01*
X0096548Y0045008D01*
X0096423Y0045000D01*
X0096298Y0044996D01*
X0096174Y0044996D01*
X0096049Y0045000D01*
X0095924Y0045008D01*
X0095800Y0045020D01*
X0095676Y0045036D01*
X0095552Y0045056D01*
X0095430Y0045079D01*
X0095308Y0045107D01*
X0095187Y0045138D01*
X0095067Y0045174D01*
X0094948Y0045213D01*
X0094831Y0045255D01*
X0094715Y0045302D01*
X0094601Y0045352D01*
X0094488Y0045405D01*
X0094377Y0045463D01*
X0094267Y0045523D01*
X0094160Y0045588D01*
X0094055Y0045655D01*
X0093952Y0045726D01*
X0093852Y0045800D01*
X0093754Y0045877D01*
X0093658Y0045958D01*
X0093565Y0046041D01*
X0093474Y0046127D01*
X0093387Y0046216D01*
X0093302Y0046308D01*
X0093220Y0046402D01*
X0093141Y0046499D01*
X0093066Y0046599D01*
X0092993Y0046700D01*
X0092924Y0046804D01*
X0092858Y0046911D01*
X0092796Y0047019D01*
X0092737Y0047129D01*
X0092681Y0047241D01*
X0092629Y0047355D01*
X0092581Y0047470D01*
X0092536Y0047586D01*
X0092496Y0047705D01*
X0092458Y0047824D01*
X0092425Y0047944D01*
X0092396Y0048066D01*
X0092370Y0048188D01*
X0092348Y0048311D01*
X0092331Y0048435D01*
X0092317Y0048559D01*
X0092307Y0048683D01*
X0092301Y0048808D01*
X0092299Y0048933D01*
X0300961Y0048933D02*
X0300963Y0049058D01*
X0300969Y0049183D01*
X0300979Y0049307D01*
X0300993Y0049431D01*
X0301010Y0049555D01*
X0301032Y0049678D01*
X0301058Y0049800D01*
X0301087Y0049922D01*
X0301120Y0050042D01*
X0301158Y0050161D01*
X0301198Y0050280D01*
X0301243Y0050396D01*
X0301291Y0050511D01*
X0301343Y0050625D01*
X0301399Y0050737D01*
X0301458Y0050847D01*
X0301520Y0050955D01*
X0301586Y0051062D01*
X0301655Y0051166D01*
X0301728Y0051267D01*
X0301803Y0051367D01*
X0301882Y0051464D01*
X0301964Y0051558D01*
X0302049Y0051650D01*
X0302136Y0051739D01*
X0302227Y0051825D01*
X0302320Y0051908D01*
X0302416Y0051989D01*
X0302514Y0052066D01*
X0302614Y0052140D01*
X0302717Y0052211D01*
X0302822Y0052278D01*
X0302930Y0052343D01*
X0303039Y0052403D01*
X0303150Y0052461D01*
X0303263Y0052514D01*
X0303377Y0052564D01*
X0303493Y0052611D01*
X0303610Y0052653D01*
X0303729Y0052692D01*
X0303849Y0052728D01*
X0303970Y0052759D01*
X0304092Y0052787D01*
X0304214Y0052810D01*
X0304338Y0052830D01*
X0304462Y0052846D01*
X0304586Y0052858D01*
X0304711Y0052866D01*
X0304836Y0052870D01*
X0304960Y0052870D01*
X0305085Y0052866D01*
X0305210Y0052858D01*
X0305334Y0052846D01*
X0305458Y0052830D01*
X0305582Y0052810D01*
X0305704Y0052787D01*
X0305826Y0052759D01*
X0305947Y0052728D01*
X0306067Y0052692D01*
X0306186Y0052653D01*
X0306303Y0052611D01*
X0306419Y0052564D01*
X0306533Y0052514D01*
X0306646Y0052461D01*
X0306757Y0052403D01*
X0306867Y0052343D01*
X0306974Y0052278D01*
X0307079Y0052211D01*
X0307182Y0052140D01*
X0307282Y0052066D01*
X0307380Y0051989D01*
X0307476Y0051908D01*
X0307569Y0051825D01*
X0307660Y0051739D01*
X0307747Y0051650D01*
X0307832Y0051558D01*
X0307914Y0051464D01*
X0307993Y0051367D01*
X0308068Y0051267D01*
X0308141Y0051166D01*
X0308210Y0051062D01*
X0308276Y0050955D01*
X0308338Y0050847D01*
X0308397Y0050737D01*
X0308453Y0050625D01*
X0308505Y0050511D01*
X0308553Y0050396D01*
X0308598Y0050280D01*
X0308638Y0050161D01*
X0308676Y0050042D01*
X0308709Y0049922D01*
X0308738Y0049800D01*
X0308764Y0049678D01*
X0308786Y0049555D01*
X0308803Y0049431D01*
X0308817Y0049307D01*
X0308827Y0049183D01*
X0308833Y0049058D01*
X0308835Y0048933D01*
X0308833Y0048808D01*
X0308827Y0048683D01*
X0308817Y0048559D01*
X0308803Y0048435D01*
X0308786Y0048311D01*
X0308764Y0048188D01*
X0308738Y0048066D01*
X0308709Y0047944D01*
X0308676Y0047824D01*
X0308638Y0047705D01*
X0308598Y0047586D01*
X0308553Y0047470D01*
X0308505Y0047355D01*
X0308453Y0047241D01*
X0308397Y0047129D01*
X0308338Y0047019D01*
X0308276Y0046911D01*
X0308210Y0046804D01*
X0308141Y0046700D01*
X0308068Y0046599D01*
X0307993Y0046499D01*
X0307914Y0046402D01*
X0307832Y0046308D01*
X0307747Y0046216D01*
X0307660Y0046127D01*
X0307569Y0046041D01*
X0307476Y0045958D01*
X0307380Y0045877D01*
X0307282Y0045800D01*
X0307182Y0045726D01*
X0307079Y0045655D01*
X0306974Y0045588D01*
X0306866Y0045523D01*
X0306757Y0045463D01*
X0306646Y0045405D01*
X0306533Y0045352D01*
X0306419Y0045302D01*
X0306303Y0045255D01*
X0306186Y0045213D01*
X0306067Y0045174D01*
X0305947Y0045138D01*
X0305826Y0045107D01*
X0305704Y0045079D01*
X0305582Y0045056D01*
X0305458Y0045036D01*
X0305334Y0045020D01*
X0305210Y0045008D01*
X0305085Y0045000D01*
X0304960Y0044996D01*
X0304836Y0044996D01*
X0304711Y0045000D01*
X0304586Y0045008D01*
X0304462Y0045020D01*
X0304338Y0045036D01*
X0304214Y0045056D01*
X0304092Y0045079D01*
X0303970Y0045107D01*
X0303849Y0045138D01*
X0303729Y0045174D01*
X0303610Y0045213D01*
X0303493Y0045255D01*
X0303377Y0045302D01*
X0303263Y0045352D01*
X0303150Y0045405D01*
X0303039Y0045463D01*
X0302929Y0045523D01*
X0302822Y0045588D01*
X0302717Y0045655D01*
X0302614Y0045726D01*
X0302514Y0045800D01*
X0302416Y0045877D01*
X0302320Y0045958D01*
X0302227Y0046041D01*
X0302136Y0046127D01*
X0302049Y0046216D01*
X0301964Y0046308D01*
X0301882Y0046402D01*
X0301803Y0046499D01*
X0301728Y0046599D01*
X0301655Y0046700D01*
X0301586Y0046804D01*
X0301520Y0046911D01*
X0301458Y0047019D01*
X0301399Y0047129D01*
X0301343Y0047241D01*
X0301291Y0047355D01*
X0301243Y0047470D01*
X0301198Y0047586D01*
X0301158Y0047705D01*
X0301120Y0047824D01*
X0301087Y0047944D01*
X0301058Y0048066D01*
X0301032Y0048188D01*
X0301010Y0048311D01*
X0300993Y0048435D01*
X0300979Y0048559D01*
X0300969Y0048683D01*
X0300963Y0048808D01*
X0300961Y0048933D01*
X0347673Y0049110D02*
X0347675Y0049194D01*
X0347681Y0049277D01*
X0347691Y0049360D01*
X0347705Y0049443D01*
X0347722Y0049525D01*
X0347744Y0049606D01*
X0347769Y0049685D01*
X0347798Y0049764D01*
X0347831Y0049841D01*
X0347867Y0049916D01*
X0347907Y0049990D01*
X0347950Y0050062D01*
X0347997Y0050131D01*
X0348047Y0050198D01*
X0348100Y0050263D01*
X0348156Y0050325D01*
X0348214Y0050385D01*
X0348276Y0050442D01*
X0348340Y0050495D01*
X0348407Y0050546D01*
X0348476Y0050593D01*
X0348547Y0050638D01*
X0348620Y0050678D01*
X0348695Y0050715D01*
X0348772Y0050749D01*
X0348850Y0050779D01*
X0348929Y0050805D01*
X0349010Y0050828D01*
X0349092Y0050846D01*
X0349174Y0050861D01*
X0349257Y0050872D01*
X0349340Y0050879D01*
X0349424Y0050882D01*
X0349508Y0050881D01*
X0349591Y0050876D01*
X0349675Y0050867D01*
X0349757Y0050854D01*
X0349839Y0050838D01*
X0349920Y0050817D01*
X0350001Y0050793D01*
X0350079Y0050765D01*
X0350157Y0050733D01*
X0350233Y0050697D01*
X0350307Y0050658D01*
X0350379Y0050616D01*
X0350449Y0050570D01*
X0350517Y0050521D01*
X0350582Y0050469D01*
X0350645Y0050414D01*
X0350705Y0050356D01*
X0350763Y0050295D01*
X0350817Y0050231D01*
X0350869Y0050165D01*
X0350917Y0050097D01*
X0350962Y0050026D01*
X0351003Y0049953D01*
X0351042Y0049879D01*
X0351076Y0049803D01*
X0351107Y0049725D01*
X0351134Y0049646D01*
X0351158Y0049565D01*
X0351177Y0049484D01*
X0351193Y0049402D01*
X0351205Y0049319D01*
X0351213Y0049235D01*
X0351217Y0049152D01*
X0351217Y0049068D01*
X0351213Y0048985D01*
X0351205Y0048901D01*
X0351193Y0048818D01*
X0351177Y0048736D01*
X0351158Y0048655D01*
X0351134Y0048574D01*
X0351107Y0048495D01*
X0351076Y0048417D01*
X0351042Y0048341D01*
X0351003Y0048267D01*
X0350962Y0048194D01*
X0350917Y0048123D01*
X0350869Y0048055D01*
X0350817Y0047989D01*
X0350763Y0047925D01*
X0350705Y0047864D01*
X0350645Y0047806D01*
X0350582Y0047751D01*
X0350517Y0047699D01*
X0350449Y0047650D01*
X0350379Y0047604D01*
X0350307Y0047562D01*
X0350233Y0047523D01*
X0350157Y0047487D01*
X0350079Y0047455D01*
X0350001Y0047427D01*
X0349920Y0047403D01*
X0349839Y0047382D01*
X0349757Y0047366D01*
X0349675Y0047353D01*
X0349591Y0047344D01*
X0349508Y0047339D01*
X0349424Y0047338D01*
X0349340Y0047341D01*
X0349257Y0047348D01*
X0349174Y0047359D01*
X0349092Y0047374D01*
X0349010Y0047392D01*
X0348929Y0047415D01*
X0348850Y0047441D01*
X0348772Y0047471D01*
X0348695Y0047505D01*
X0348620Y0047542D01*
X0348547Y0047582D01*
X0348476Y0047627D01*
X0348407Y0047674D01*
X0348340Y0047725D01*
X0348276Y0047778D01*
X0348214Y0047835D01*
X0348156Y0047895D01*
X0348100Y0047957D01*
X0348047Y0048022D01*
X0347997Y0048089D01*
X0347950Y0048158D01*
X0347907Y0048230D01*
X0347867Y0048304D01*
X0347831Y0048379D01*
X0347798Y0048456D01*
X0347769Y0048535D01*
X0347744Y0048614D01*
X0347722Y0048695D01*
X0347705Y0048777D01*
X0347691Y0048860D01*
X0347681Y0048943D01*
X0347675Y0049026D01*
X0347673Y0049110D01*
X0348933Y0038114D02*
X0348935Y0038211D01*
X0348941Y0038308D01*
X0348951Y0038404D01*
X0348965Y0038500D01*
X0348983Y0038596D01*
X0349004Y0038690D01*
X0349030Y0038784D01*
X0349059Y0038876D01*
X0349093Y0038967D01*
X0349129Y0039057D01*
X0349170Y0039145D01*
X0349214Y0039231D01*
X0349262Y0039316D01*
X0349313Y0039398D01*
X0349367Y0039479D01*
X0349425Y0039557D01*
X0349486Y0039632D01*
X0349549Y0039705D01*
X0349616Y0039776D01*
X0349686Y0039843D01*
X0349758Y0039908D01*
X0349833Y0039969D01*
X0349911Y0040028D01*
X0349990Y0040083D01*
X0350072Y0040135D01*
X0350156Y0040183D01*
X0350242Y0040228D01*
X0350330Y0040270D01*
X0350419Y0040308D01*
X0350510Y0040342D01*
X0350602Y0040372D01*
X0350695Y0040399D01*
X0350790Y0040421D01*
X0350885Y0040440D01*
X0350981Y0040455D01*
X0351077Y0040466D01*
X0351174Y0040473D01*
X0351271Y0040476D01*
X0351368Y0040475D01*
X0351465Y0040470D01*
X0351561Y0040461D01*
X0351657Y0040448D01*
X0351753Y0040431D01*
X0351848Y0040410D01*
X0351941Y0040386D01*
X0352034Y0040357D01*
X0352126Y0040325D01*
X0352216Y0040289D01*
X0352304Y0040250D01*
X0352391Y0040206D01*
X0352476Y0040160D01*
X0352559Y0040109D01*
X0352640Y0040056D01*
X0352718Y0039999D01*
X0352795Y0039939D01*
X0352868Y0039876D01*
X0352939Y0039810D01*
X0353007Y0039741D01*
X0353073Y0039669D01*
X0353135Y0039595D01*
X0353194Y0039518D01*
X0353250Y0039439D01*
X0353303Y0039357D01*
X0353353Y0039274D01*
X0353398Y0039188D01*
X0353441Y0039101D01*
X0353480Y0039012D01*
X0353515Y0038922D01*
X0353546Y0038830D01*
X0353573Y0038737D01*
X0353597Y0038643D01*
X0353617Y0038548D01*
X0353633Y0038452D01*
X0353645Y0038356D01*
X0353653Y0038259D01*
X0353657Y0038162D01*
X0353657Y0038066D01*
X0353653Y0037969D01*
X0353645Y0037872D01*
X0353633Y0037776D01*
X0353617Y0037680D01*
X0353597Y0037585D01*
X0353573Y0037491D01*
X0353546Y0037398D01*
X0353515Y0037306D01*
X0353480Y0037216D01*
X0353441Y0037127D01*
X0353398Y0037040D01*
X0353353Y0036954D01*
X0353303Y0036871D01*
X0353250Y0036789D01*
X0353194Y0036710D01*
X0353135Y0036633D01*
X0353073Y0036559D01*
X0353007Y0036487D01*
X0352939Y0036418D01*
X0352868Y0036352D01*
X0352795Y0036289D01*
X0352718Y0036229D01*
X0352640Y0036172D01*
X0352559Y0036119D01*
X0352476Y0036068D01*
X0352391Y0036022D01*
X0352304Y0035978D01*
X0352216Y0035939D01*
X0352126Y0035903D01*
X0352034Y0035871D01*
X0351941Y0035842D01*
X0351848Y0035818D01*
X0351753Y0035797D01*
X0351657Y0035780D01*
X0351561Y0035767D01*
X0351465Y0035758D01*
X0351368Y0035753D01*
X0351271Y0035752D01*
X0351174Y0035755D01*
X0351077Y0035762D01*
X0350981Y0035773D01*
X0350885Y0035788D01*
X0350790Y0035807D01*
X0350695Y0035829D01*
X0350602Y0035856D01*
X0350510Y0035886D01*
X0350419Y0035920D01*
X0350330Y0035958D01*
X0350242Y0036000D01*
X0350156Y0036045D01*
X0350072Y0036093D01*
X0349990Y0036145D01*
X0349911Y0036200D01*
X0349833Y0036259D01*
X0349758Y0036320D01*
X0349686Y0036385D01*
X0349616Y0036452D01*
X0349549Y0036523D01*
X0349486Y0036596D01*
X0349425Y0036671D01*
X0349367Y0036749D01*
X0349313Y0036830D01*
X0349262Y0036912D01*
X0349214Y0036997D01*
X0349170Y0037083D01*
X0349129Y0037171D01*
X0349093Y0037261D01*
X0349059Y0037352D01*
X0349030Y0037444D01*
X0349004Y0037538D01*
X0348983Y0037632D01*
X0348965Y0037728D01*
X0348951Y0037824D01*
X0348941Y0037920D01*
X0348935Y0038017D01*
X0348933Y0038114D01*
X0374445Y0049110D02*
X0374447Y0049194D01*
X0374453Y0049277D01*
X0374463Y0049360D01*
X0374477Y0049443D01*
X0374494Y0049525D01*
X0374516Y0049606D01*
X0374541Y0049685D01*
X0374570Y0049764D01*
X0374603Y0049841D01*
X0374639Y0049916D01*
X0374679Y0049990D01*
X0374722Y0050062D01*
X0374769Y0050131D01*
X0374819Y0050198D01*
X0374872Y0050263D01*
X0374928Y0050325D01*
X0374986Y0050385D01*
X0375048Y0050442D01*
X0375112Y0050495D01*
X0375179Y0050546D01*
X0375248Y0050593D01*
X0375319Y0050638D01*
X0375392Y0050678D01*
X0375467Y0050715D01*
X0375544Y0050749D01*
X0375622Y0050779D01*
X0375701Y0050805D01*
X0375782Y0050828D01*
X0375864Y0050846D01*
X0375946Y0050861D01*
X0376029Y0050872D01*
X0376112Y0050879D01*
X0376196Y0050882D01*
X0376280Y0050881D01*
X0376363Y0050876D01*
X0376447Y0050867D01*
X0376529Y0050854D01*
X0376611Y0050838D01*
X0376692Y0050817D01*
X0376773Y0050793D01*
X0376851Y0050765D01*
X0376929Y0050733D01*
X0377005Y0050697D01*
X0377079Y0050658D01*
X0377151Y0050616D01*
X0377221Y0050570D01*
X0377289Y0050521D01*
X0377354Y0050469D01*
X0377417Y0050414D01*
X0377477Y0050356D01*
X0377535Y0050295D01*
X0377589Y0050231D01*
X0377641Y0050165D01*
X0377689Y0050097D01*
X0377734Y0050026D01*
X0377775Y0049953D01*
X0377814Y0049879D01*
X0377848Y0049803D01*
X0377879Y0049725D01*
X0377906Y0049646D01*
X0377930Y0049565D01*
X0377949Y0049484D01*
X0377965Y0049402D01*
X0377977Y0049319D01*
X0377985Y0049235D01*
X0377989Y0049152D01*
X0377989Y0049068D01*
X0377985Y0048985D01*
X0377977Y0048901D01*
X0377965Y0048818D01*
X0377949Y0048736D01*
X0377930Y0048655D01*
X0377906Y0048574D01*
X0377879Y0048495D01*
X0377848Y0048417D01*
X0377814Y0048341D01*
X0377775Y0048267D01*
X0377734Y0048194D01*
X0377689Y0048123D01*
X0377641Y0048055D01*
X0377589Y0047989D01*
X0377535Y0047925D01*
X0377477Y0047864D01*
X0377417Y0047806D01*
X0377354Y0047751D01*
X0377289Y0047699D01*
X0377221Y0047650D01*
X0377151Y0047604D01*
X0377079Y0047562D01*
X0377005Y0047523D01*
X0376929Y0047487D01*
X0376851Y0047455D01*
X0376773Y0047427D01*
X0376692Y0047403D01*
X0376611Y0047382D01*
X0376529Y0047366D01*
X0376447Y0047353D01*
X0376363Y0047344D01*
X0376280Y0047339D01*
X0376196Y0047338D01*
X0376112Y0047341D01*
X0376029Y0047348D01*
X0375946Y0047359D01*
X0375864Y0047374D01*
X0375782Y0047392D01*
X0375701Y0047415D01*
X0375622Y0047441D01*
X0375544Y0047471D01*
X0375467Y0047505D01*
X0375392Y0047542D01*
X0375319Y0047582D01*
X0375248Y0047627D01*
X0375179Y0047674D01*
X0375112Y0047725D01*
X0375048Y0047778D01*
X0374986Y0047835D01*
X0374928Y0047895D01*
X0374872Y0047957D01*
X0374819Y0048022D01*
X0374769Y0048089D01*
X0374722Y0048158D01*
X0374679Y0048230D01*
X0374639Y0048304D01*
X0374603Y0048379D01*
X0374570Y0048456D01*
X0374541Y0048535D01*
X0374516Y0048614D01*
X0374494Y0048695D01*
X0374477Y0048777D01*
X0374463Y0048860D01*
X0374453Y0048943D01*
X0374447Y0049026D01*
X0374445Y0049110D01*
X0376492Y0038114D02*
X0376494Y0038211D01*
X0376500Y0038308D01*
X0376510Y0038404D01*
X0376524Y0038500D01*
X0376542Y0038596D01*
X0376563Y0038690D01*
X0376589Y0038784D01*
X0376618Y0038876D01*
X0376652Y0038967D01*
X0376688Y0039057D01*
X0376729Y0039145D01*
X0376773Y0039231D01*
X0376821Y0039316D01*
X0376872Y0039398D01*
X0376926Y0039479D01*
X0376984Y0039557D01*
X0377045Y0039632D01*
X0377108Y0039705D01*
X0377175Y0039776D01*
X0377245Y0039843D01*
X0377317Y0039908D01*
X0377392Y0039969D01*
X0377470Y0040028D01*
X0377549Y0040083D01*
X0377631Y0040135D01*
X0377715Y0040183D01*
X0377801Y0040228D01*
X0377889Y0040270D01*
X0377978Y0040308D01*
X0378069Y0040342D01*
X0378161Y0040372D01*
X0378254Y0040399D01*
X0378349Y0040421D01*
X0378444Y0040440D01*
X0378540Y0040455D01*
X0378636Y0040466D01*
X0378733Y0040473D01*
X0378830Y0040476D01*
X0378927Y0040475D01*
X0379024Y0040470D01*
X0379120Y0040461D01*
X0379216Y0040448D01*
X0379312Y0040431D01*
X0379407Y0040410D01*
X0379500Y0040386D01*
X0379593Y0040357D01*
X0379685Y0040325D01*
X0379775Y0040289D01*
X0379863Y0040250D01*
X0379950Y0040206D01*
X0380035Y0040160D01*
X0380118Y0040109D01*
X0380199Y0040056D01*
X0380277Y0039999D01*
X0380354Y0039939D01*
X0380427Y0039876D01*
X0380498Y0039810D01*
X0380566Y0039741D01*
X0380632Y0039669D01*
X0380694Y0039595D01*
X0380753Y0039518D01*
X0380809Y0039439D01*
X0380862Y0039357D01*
X0380912Y0039274D01*
X0380957Y0039188D01*
X0381000Y0039101D01*
X0381039Y0039012D01*
X0381074Y0038922D01*
X0381105Y0038830D01*
X0381132Y0038737D01*
X0381156Y0038643D01*
X0381176Y0038548D01*
X0381192Y0038452D01*
X0381204Y0038356D01*
X0381212Y0038259D01*
X0381216Y0038162D01*
X0381216Y0038066D01*
X0381212Y0037969D01*
X0381204Y0037872D01*
X0381192Y0037776D01*
X0381176Y0037680D01*
X0381156Y0037585D01*
X0381132Y0037491D01*
X0381105Y0037398D01*
X0381074Y0037306D01*
X0381039Y0037216D01*
X0381000Y0037127D01*
X0380957Y0037040D01*
X0380912Y0036954D01*
X0380862Y0036871D01*
X0380809Y0036789D01*
X0380753Y0036710D01*
X0380694Y0036633D01*
X0380632Y0036559D01*
X0380566Y0036487D01*
X0380498Y0036418D01*
X0380427Y0036352D01*
X0380354Y0036289D01*
X0380277Y0036229D01*
X0380199Y0036172D01*
X0380118Y0036119D01*
X0380035Y0036068D01*
X0379950Y0036022D01*
X0379863Y0035978D01*
X0379775Y0035939D01*
X0379685Y0035903D01*
X0379593Y0035871D01*
X0379500Y0035842D01*
X0379407Y0035818D01*
X0379312Y0035797D01*
X0379216Y0035780D01*
X0379120Y0035767D01*
X0379024Y0035758D01*
X0378927Y0035753D01*
X0378830Y0035752D01*
X0378733Y0035755D01*
X0378636Y0035762D01*
X0378540Y0035773D01*
X0378444Y0035788D01*
X0378349Y0035807D01*
X0378254Y0035829D01*
X0378161Y0035856D01*
X0378069Y0035886D01*
X0377978Y0035920D01*
X0377889Y0035958D01*
X0377801Y0036000D01*
X0377715Y0036045D01*
X0377631Y0036093D01*
X0377549Y0036145D01*
X0377470Y0036200D01*
X0377392Y0036259D01*
X0377317Y0036320D01*
X0377245Y0036385D01*
X0377175Y0036452D01*
X0377108Y0036523D01*
X0377045Y0036596D01*
X0376984Y0036671D01*
X0376926Y0036749D01*
X0376872Y0036830D01*
X0376821Y0036912D01*
X0376773Y0036997D01*
X0376729Y0037083D01*
X0376688Y0037171D01*
X0376652Y0037261D01*
X0376618Y0037352D01*
X0376589Y0037444D01*
X0376563Y0037538D01*
X0376542Y0037632D01*
X0376524Y0037728D01*
X0376510Y0037824D01*
X0376500Y0037920D01*
X0376494Y0038017D01*
X0376492Y0038114D01*
M02*
