%
M48
M72
T01C0.0276
T02C0.0315
T03C0.0320
T04C0.0360
T05C0.0400
T06C0.0700
T07C0.1575
%
T01
X28389Y18634
X29389Y18634
X30389Y18634
T02
X24877Y4930
X23877Y4930
X23877Y4430
X22877Y4930
X22877Y3430
X23877Y3430
X24877Y3430
X24877Y2430
X24877Y2430
X23877Y2430
X23877Y2430
X22877Y2430
X22877Y2430
X22877Y1430
X23877Y1430
X24877Y1430
X1830Y9973
X1830Y10760
T03
X4373Y12847
X5373Y12847
X5086Y15878
X4086Y15878
X6720Y15854
X7720Y15854
X11566Y17059
X12566Y17059
X15609Y18921
X15609Y19921
X19105Y14280
X20105Y14280
X26645Y13138
X27645Y13138
X32834Y11488
X32834Y10488
X37621Y10433
X37621Y11433
X27751Y8630
X27751Y7630
X19153Y6929
X19153Y5929
X17290Y10366
X16290Y10366
X6554Y7323
X6554Y6323
T04
X12857Y6008
X12857Y4008
X7160Y19028
X5160Y19028
T05
X1356Y17059
X1256Y16059
X1356Y15059
X23902Y14350
X24002Y15350
X24002Y13350
X29833Y4854
X29733Y3854
X29833Y2854
T06
X34664Y6488
X37420Y6488
X37420Y15937
X34664Y15937
T07
X2223Y2099
X2223Y20209
X37657Y20209
X37657Y2099
M30
