G75*
%MOIN*%
%OFA0B0*%
%FSLAX25Y25*%
%IPPOS*%
%LPD*%
%AMOC8*
5,1,8,0,0,1.08239X$1,22.5*
%
%ADD10OC8,0.06300*%
%ADD11C,0.06300*%
%ADD12OC8,0.04800*%
%ADD13C,0.07400*%
%ADD14C,0.04800*%
%ADD15OC8,0.06600*%
%ADD16C,0.10050*%
%ADD17C,0.06600*%
%ADD18C,0.05000*%
%ADD19C,0.07087*%
%ADD20C,0.00600*%
%ADD21C,0.02700*%
%ADD22C,0.05906*%
D10*
X0069858Y0033835D03*
X0138559Y0052161D03*
D11*
X0128559Y0052161D03*
X0069858Y0023835D03*
D12*
X0048205Y0024169D03*
X0048205Y0034169D03*
X0287457Y0030016D03*
X0287693Y0039366D03*
X0287693Y0049366D03*
X0287457Y0020016D03*
D13*
X0020843Y0022583D03*
X0020843Y0033983D03*
D14*
X0302102Y0065864D02*
X0302102Y0070664D01*
X0312102Y0070664D02*
X0312102Y0065864D01*
X0322102Y0065864D02*
X0322102Y0070664D01*
D15*
X0335587Y0070980D03*
X0335587Y0060980D03*
X0334957Y0043480D03*
X0324957Y0043480D03*
X0312063Y0043992D03*
X0302063Y0043992D03*
X0287870Y0061610D03*
X0287870Y0071610D03*
X0138382Y0074740D03*
X0128382Y0074740D03*
X0108106Y0033500D03*
X0097102Y0033480D03*
X0086748Y0033382D03*
X0086748Y0023382D03*
X0097102Y0023480D03*
X0108106Y0023500D03*
X0034957Y0023382D03*
X0034957Y0033382D03*
D16*
X0155370Y0046512D03*
X0275213Y0046906D03*
D17*
X0309681Y0021945D03*
X0317555Y0021945D03*
X0325429Y0021945D03*
X0333303Y0021945D03*
X0341177Y0021945D03*
X0353402Y0021945D03*
X0361276Y0021945D03*
X0369150Y0021945D03*
X0377024Y0021945D03*
X0384898Y0021945D03*
D18*
X0107299Y0046610D03*
X0097299Y0046610D03*
X0087299Y0046610D03*
X0077299Y0046610D03*
X0077299Y0076610D03*
X0087299Y0076610D03*
X0097299Y0076610D03*
X0107299Y0076610D03*
D19*
X0133795Y0031374D03*
X0123795Y0021374D03*
X0143795Y0021374D03*
D20*
X0017496Y0019160D02*
X0017496Y0017437D01*
X0221828Y0015170D01*
X0389760Y0015064D01*
X0390588Y0015145D01*
X0392117Y0015779D01*
X0393288Y0016950D01*
X0393697Y0017937D01*
X0393697Y0079710D01*
X0393452Y0080193D01*
X0133665Y0080356D01*
X0135729Y0078292D01*
X0136565Y0079128D01*
X0140199Y0079128D01*
X0142769Y0076557D01*
X0142769Y0072923D01*
X0140199Y0070353D01*
X0136565Y0070353D01*
X0133994Y0072923D01*
X0133994Y0076102D01*
X0130484Y0079613D01*
X0109370Y0079613D01*
X0110340Y0078642D01*
X0110887Y0077324D01*
X0110887Y0075897D01*
X0110810Y0075711D01*
X0114134Y0072387D01*
X0114946Y0071575D01*
X0114946Y0037925D01*
X0112416Y0035395D01*
X0112494Y0035317D01*
X0112494Y0031683D01*
X0109924Y0029113D01*
X0106289Y0029113D01*
X0103719Y0031683D01*
X0103719Y0035317D01*
X0106289Y0037887D01*
X0109924Y0037887D01*
X0110454Y0037357D01*
X0112172Y0039075D01*
X0112172Y0070425D01*
X0109117Y0073480D01*
X0108013Y0073023D01*
X0106586Y0073023D01*
X0105267Y0073569D01*
X0104258Y0074578D01*
X0103712Y0075897D01*
X0103712Y0077324D01*
X0104258Y0078642D01*
X0105228Y0079613D01*
X0102446Y0079613D01*
X0102446Y0060425D01*
X0090435Y0048414D01*
X0090887Y0047324D01*
X0090887Y0045897D01*
X0090340Y0044578D01*
X0089331Y0043569D01*
X0088013Y0043023D01*
X0086586Y0043023D01*
X0085267Y0043569D01*
X0084258Y0044578D01*
X0083712Y0045897D01*
X0083712Y0047324D01*
X0084258Y0048642D01*
X0085267Y0049651D01*
X0086586Y0050198D01*
X0088013Y0050198D01*
X0088212Y0050115D01*
X0099672Y0061575D01*
X0099672Y0073909D01*
X0099331Y0073569D01*
X0098013Y0073023D01*
X0096586Y0073023D01*
X0095267Y0073569D01*
X0094258Y0074578D01*
X0093712Y0075897D01*
X0093712Y0077324D01*
X0094258Y0078642D01*
X0095267Y0079651D01*
X0096586Y0080198D01*
X0098013Y0080198D01*
X0099331Y0079651D01*
X0099672Y0079311D01*
X0099672Y0080378D01*
X0017496Y0080429D01*
X0017496Y0063678D01*
X0017816Y0063997D01*
X0019345Y0064631D01*
X0021001Y0064631D01*
X0022531Y0063997D01*
X0023702Y0062826D01*
X0024335Y0061296D01*
X0024335Y0059641D01*
X0023702Y0058111D01*
X0022531Y0056940D01*
X0021001Y0056306D01*
X0019345Y0056306D01*
X0017816Y0056940D01*
X0017496Y0057259D01*
X0017496Y0037407D01*
X0018131Y0038042D01*
X0019890Y0038771D01*
X0021795Y0038771D01*
X0023554Y0038042D01*
X0024901Y0036695D01*
X0025630Y0034936D01*
X0025630Y0033031D01*
X0024901Y0031272D01*
X0023554Y0029925D01*
X0021795Y0029196D01*
X0019890Y0029196D01*
X0018131Y0029925D01*
X0017496Y0030560D01*
X0017496Y0026007D01*
X0018131Y0026642D01*
X0019890Y0027371D01*
X0021795Y0027371D01*
X0023554Y0026642D01*
X0024901Y0025295D01*
X0025630Y0023536D01*
X0025630Y0021631D01*
X0024901Y0019872D01*
X0023554Y0018525D01*
X0021795Y0017796D01*
X0019890Y0017796D01*
X0018131Y0018525D01*
X0017496Y0019160D01*
X0017496Y0018887D02*
X0017769Y0018887D01*
X0017496Y0018288D02*
X0018702Y0018288D01*
X0017496Y0017690D02*
X0120931Y0017690D01*
X0121172Y0017448D02*
X0122874Y0016743D01*
X0124716Y0016743D01*
X0126418Y0017448D01*
X0127721Y0018751D01*
X0128426Y0020453D01*
X0128426Y0022295D01*
X0127954Y0023433D01*
X0129134Y0024613D01*
X0129795Y0025274D01*
X0130410Y0023790D01*
X0131546Y0022654D01*
X0133031Y0022039D01*
X0134638Y0022039D01*
X0136123Y0022654D01*
X0137260Y0023790D01*
X0137875Y0025275D01*
X0137875Y0026882D01*
X0137282Y0028312D01*
X0137721Y0028751D01*
X0138426Y0030453D01*
X0138426Y0032295D01*
X0137721Y0033997D01*
X0136418Y0035300D01*
X0134946Y0035909D01*
X0134946Y0049075D01*
X0132769Y0051252D01*
X0132796Y0051319D01*
X0132796Y0053004D01*
X0132151Y0054562D01*
X0130959Y0055754D01*
X0129402Y0056399D01*
X0127716Y0056399D01*
X0126159Y0055754D01*
X0124967Y0054562D01*
X0124322Y0053004D01*
X0124322Y0051319D01*
X0124967Y0049761D01*
X0126159Y0048569D01*
X0127716Y0047924D01*
X0129402Y0047924D01*
X0130959Y0048569D01*
X0131244Y0048853D01*
X0132172Y0047925D01*
X0132172Y0035714D01*
X0131172Y0035300D01*
X0129870Y0033997D01*
X0129165Y0032295D01*
X0129165Y0031068D01*
X0127281Y0029184D01*
X0127220Y0029332D01*
X0126084Y0030468D01*
X0124599Y0031083D01*
X0122992Y0031083D01*
X0121507Y0030468D01*
X0120370Y0029332D01*
X0119755Y0027847D01*
X0119755Y0026240D01*
X0120370Y0024755D01*
X0120499Y0024626D01*
X0119870Y0023997D01*
X0119165Y0022295D01*
X0119165Y0020453D01*
X0119870Y0018751D01*
X0121172Y0017448D01*
X0122035Y0017091D02*
X0048681Y0017091D01*
X0049649Y0020682D02*
X0046760Y0020682D01*
X0038462Y0020682D01*
X0039060Y0021281D02*
X0046161Y0021281D01*
X0045563Y0021879D02*
X0039344Y0021879D01*
X0039344Y0021565D02*
X0036774Y0018994D01*
X0033139Y0018994D01*
X0030569Y0021565D01*
X0030569Y0025199D01*
X0033139Y0027769D01*
X0036774Y0027769D01*
X0039344Y0025199D01*
X0039344Y0021565D01*
X0039344Y0022478D02*
X0044964Y0022478D01*
X0044717Y0022725D02*
X0046760Y0020682D01*
X0044717Y0022725D02*
X0044717Y0025614D01*
X0046760Y0027657D01*
X0048254Y0027657D01*
X0059672Y0039075D01*
X0060210Y0039613D01*
X0039946Y0039613D01*
X0039946Y0037925D01*
X0038282Y0036261D01*
X0039344Y0035199D01*
X0039344Y0031565D01*
X0036774Y0028994D01*
X0033139Y0028994D01*
X0030569Y0031565D01*
X0030569Y0035199D01*
X0033139Y0037769D01*
X0035866Y0037769D01*
X0037172Y0039075D01*
X0037172Y0041575D01*
X0037984Y0042387D01*
X0090484Y0042387D01*
X0093794Y0045697D01*
X0093712Y0045897D01*
X0093712Y0047324D01*
X0094258Y0048642D01*
X0095267Y0049651D01*
X0096586Y0050198D01*
X0098013Y0050198D01*
X0099331Y0049651D01*
X0100340Y0048642D01*
X0100887Y0047324D01*
X0100887Y0045897D01*
X0100340Y0044578D01*
X0099331Y0043569D01*
X0098013Y0043023D01*
X0096586Y0043023D01*
X0095496Y0043474D01*
X0092446Y0040425D01*
X0091634Y0039613D01*
X0084409Y0039613D01*
X0084946Y0039075D01*
X0084946Y0039075D01*
X0086252Y0037769D01*
X0088565Y0037769D01*
X0091135Y0035199D01*
X0091135Y0031565D01*
X0088565Y0028994D01*
X0084931Y0028994D01*
X0082361Y0031565D01*
X0082361Y0035199D01*
X0083629Y0036468D01*
X0082984Y0037113D01*
X0072874Y0037113D01*
X0074308Y0035678D01*
X0074308Y0034135D01*
X0070158Y0034135D01*
X0070158Y0033535D01*
X0074308Y0033535D01*
X0074308Y0031991D01*
X0071702Y0029385D01*
X0070158Y0029385D01*
X0070158Y0033535D01*
X0069558Y0033535D01*
X0065408Y0033535D01*
X0065408Y0031991D01*
X0068015Y0029385D01*
X0069558Y0029385D01*
X0069558Y0033535D01*
X0069558Y0034135D01*
X0065408Y0034135D01*
X0065408Y0035678D01*
X0066843Y0037113D01*
X0061634Y0037113D01*
X0050914Y0026392D01*
X0051692Y0025614D01*
X0051692Y0022725D01*
X0049649Y0020682D01*
X0067018Y0020682D01*
X0067458Y0020242D02*
X0066266Y0021434D01*
X0065621Y0022992D01*
X0065621Y0024678D01*
X0066266Y0026235D01*
X0067458Y0027427D01*
X0069015Y0028072D01*
X0070701Y0028072D01*
X0072259Y0027427D01*
X0073451Y0026235D01*
X0074009Y0024887D01*
X0082361Y0024887D01*
X0082361Y0025199D01*
X0084931Y0027769D01*
X0088565Y0027769D01*
X0091135Y0025199D01*
X0091135Y0021565D01*
X0088565Y0018994D01*
X0084931Y0018994D01*
X0082361Y0021565D01*
X0082361Y0022113D01*
X0073731Y0022113D01*
X0073451Y0021434D01*
X0072259Y0020242D01*
X0070701Y0019597D01*
X0069015Y0019597D01*
X0067458Y0020242D01*
X0067841Y0020084D02*
X0037863Y0020084D01*
X0037265Y0019485D02*
X0084440Y0019485D01*
X0083842Y0020084D02*
X0071875Y0020084D01*
X0072698Y0020682D02*
X0083243Y0020682D01*
X0082645Y0021281D02*
X0073297Y0021281D01*
X0073635Y0021879D02*
X0082361Y0021879D01*
X0086059Y0023500D02*
X0086748Y0023382D01*
X0086059Y0023500D02*
X0071059Y0023500D01*
X0069858Y0023835D01*
X0065949Y0025470D02*
X0051692Y0025470D01*
X0051692Y0024872D02*
X0065701Y0024872D01*
X0065621Y0024273D02*
X0051692Y0024273D01*
X0051692Y0023675D02*
X0065621Y0023675D01*
X0065621Y0023076D02*
X0051692Y0023076D01*
X0051445Y0022478D02*
X0065834Y0022478D01*
X0066082Y0021879D02*
X0050847Y0021879D01*
X0050248Y0021281D02*
X0066420Y0021281D01*
X0073767Y0025470D02*
X0082632Y0025470D01*
X0083230Y0026069D02*
X0073519Y0026069D01*
X0073018Y0026667D02*
X0083829Y0026667D01*
X0084427Y0027266D02*
X0072420Y0027266D01*
X0071203Y0027864D02*
X0095282Y0027864D01*
X0095285Y0027868D02*
X0092715Y0025298D01*
X0092715Y0021663D01*
X0095285Y0019093D01*
X0098920Y0019093D01*
X0101490Y0021663D01*
X0101490Y0025298D01*
X0098920Y0027868D01*
X0095285Y0027868D01*
X0094683Y0027266D02*
X0089069Y0027266D01*
X0089667Y0026667D02*
X0094085Y0026667D01*
X0093486Y0026069D02*
X0090266Y0026069D01*
X0090864Y0025470D02*
X0092888Y0025470D01*
X0092715Y0024872D02*
X0091135Y0024872D01*
X0091135Y0024273D02*
X0092715Y0024273D01*
X0092715Y0023675D02*
X0091135Y0023675D01*
X0091135Y0023076D02*
X0092715Y0023076D01*
X0092715Y0022478D02*
X0091135Y0022478D01*
X0091135Y0021879D02*
X0092715Y0021879D01*
X0093097Y0021281D02*
X0090852Y0021281D01*
X0090253Y0020682D02*
X0093696Y0020682D01*
X0094294Y0020084D02*
X0089654Y0020084D01*
X0089056Y0019485D02*
X0094893Y0019485D01*
X0099312Y0019485D02*
X0105916Y0019485D01*
X0106289Y0019113D02*
X0109924Y0019113D01*
X0112494Y0021683D01*
X0112494Y0025317D01*
X0109924Y0027887D01*
X0106289Y0027887D01*
X0103719Y0025317D01*
X0103719Y0021683D01*
X0106289Y0019113D01*
X0105318Y0020084D02*
X0099910Y0020084D01*
X0100509Y0020682D02*
X0104719Y0020682D01*
X0104121Y0021281D02*
X0101107Y0021281D01*
X0101490Y0021879D02*
X0103719Y0021879D01*
X0103719Y0022478D02*
X0101490Y0022478D01*
X0101490Y0023076D02*
X0103719Y0023076D01*
X0103719Y0023675D02*
X0101490Y0023675D01*
X0101490Y0024273D02*
X0103719Y0024273D01*
X0103719Y0024872D02*
X0101490Y0024872D01*
X0101317Y0025470D02*
X0103872Y0025470D01*
X0104470Y0026069D02*
X0100719Y0026069D01*
X0100120Y0026667D02*
X0105069Y0026667D01*
X0105667Y0027266D02*
X0099522Y0027266D01*
X0098923Y0027864D02*
X0106266Y0027864D01*
X0105742Y0029660D02*
X0099787Y0029660D01*
X0099189Y0029061D02*
X0120258Y0029061D01*
X0120010Y0028463D02*
X0052984Y0028463D01*
X0053582Y0029061D02*
X0084864Y0029061D01*
X0084265Y0029660D02*
X0071977Y0029660D01*
X0072575Y0030258D02*
X0083667Y0030258D01*
X0083068Y0030857D02*
X0073174Y0030857D01*
X0073772Y0031455D02*
X0082470Y0031455D01*
X0082361Y0032054D02*
X0074308Y0032054D01*
X0074308Y0032652D02*
X0082361Y0032652D01*
X0082361Y0033251D02*
X0074308Y0033251D01*
X0074308Y0034448D02*
X0082361Y0034448D01*
X0082361Y0035046D02*
X0074308Y0035046D01*
X0074308Y0035645D02*
X0082806Y0035645D01*
X0083405Y0036243D02*
X0073743Y0036243D01*
X0073144Y0036842D02*
X0083255Y0036842D01*
X0083559Y0038500D02*
X0086059Y0036000D01*
X0086059Y0033500D01*
X0086748Y0033382D01*
X0091135Y0033251D02*
X0096802Y0033251D01*
X0096802Y0033180D02*
X0092502Y0033180D01*
X0092502Y0031575D01*
X0095197Y0028880D01*
X0096802Y0028880D01*
X0096802Y0033180D01*
X0096802Y0033780D01*
X0092502Y0033780D01*
X0092502Y0035386D01*
X0095197Y0038080D01*
X0096802Y0038080D01*
X0096802Y0033780D01*
X0097402Y0033780D01*
X0097402Y0038080D01*
X0099008Y0038080D01*
X0101702Y0035386D01*
X0101702Y0033780D01*
X0097402Y0033780D01*
X0097402Y0033180D01*
X0097402Y0028880D01*
X0099008Y0028880D01*
X0101702Y0031575D01*
X0101702Y0033180D01*
X0097402Y0033180D01*
X0096802Y0033180D01*
X0096802Y0032652D02*
X0097402Y0032652D01*
X0097402Y0032054D02*
X0096802Y0032054D01*
X0096802Y0031455D02*
X0097402Y0031455D01*
X0097402Y0030857D02*
X0096802Y0030857D01*
X0096802Y0030258D02*
X0097402Y0030258D01*
X0097402Y0029660D02*
X0096802Y0029660D01*
X0096802Y0029061D02*
X0097402Y0029061D01*
X0095016Y0029061D02*
X0088632Y0029061D01*
X0089231Y0029660D02*
X0094417Y0029660D01*
X0093819Y0030258D02*
X0089829Y0030258D01*
X0090428Y0030857D02*
X0093220Y0030857D01*
X0092622Y0031455D02*
X0091026Y0031455D01*
X0091135Y0032054D02*
X0092502Y0032054D01*
X0092502Y0032652D02*
X0091135Y0032652D01*
X0091135Y0033849D02*
X0092502Y0033849D01*
X0092502Y0034448D02*
X0091135Y0034448D01*
X0091135Y0035046D02*
X0092502Y0035046D01*
X0092762Y0035645D02*
X0090690Y0035645D01*
X0090091Y0036243D02*
X0093360Y0036243D01*
X0093959Y0036842D02*
X0089493Y0036842D01*
X0088894Y0037440D02*
X0094557Y0037440D01*
X0095156Y0038039D02*
X0085982Y0038039D01*
X0085384Y0038637D02*
X0111734Y0038637D01*
X0112172Y0039236D02*
X0084785Y0039236D01*
X0083559Y0038500D02*
X0061059Y0038500D01*
X0048559Y0026000D01*
X0048205Y0024169D01*
X0045771Y0026667D02*
X0037876Y0026667D01*
X0038475Y0026069D02*
X0045172Y0026069D01*
X0044717Y0025470D02*
X0039073Y0025470D01*
X0039344Y0024872D02*
X0044717Y0024872D01*
X0044717Y0024273D02*
X0039344Y0024273D01*
X0039344Y0023675D02*
X0044717Y0023675D01*
X0044717Y0023076D02*
X0039344Y0023076D01*
X0037278Y0027266D02*
X0046369Y0027266D01*
X0048461Y0027864D02*
X0017496Y0027864D01*
X0017496Y0027266D02*
X0019637Y0027266D01*
X0018192Y0026667D02*
X0017496Y0026667D01*
X0017496Y0026069D02*
X0017557Y0026069D01*
X0017496Y0028463D02*
X0049060Y0028463D01*
X0049658Y0029061D02*
X0036841Y0029061D01*
X0037439Y0029660D02*
X0050257Y0029660D01*
X0050855Y0030258D02*
X0038038Y0030258D01*
X0038636Y0030857D02*
X0046285Y0030857D01*
X0046672Y0030469D02*
X0044505Y0032637D01*
X0044505Y0033869D01*
X0047905Y0033869D01*
X0048505Y0033869D01*
X0048505Y0034469D01*
X0051905Y0034469D01*
X0051905Y0035702D01*
X0049737Y0037869D01*
X0048505Y0037869D01*
X0048505Y0034469D01*
X0047905Y0034469D01*
X0047905Y0033869D01*
X0047905Y0030469D01*
X0046672Y0030469D01*
X0047905Y0030857D02*
X0048505Y0030857D01*
X0048505Y0030469D02*
X0049737Y0030469D01*
X0051905Y0032637D01*
X0051905Y0033869D01*
X0048505Y0033869D01*
X0048505Y0030469D01*
X0048505Y0031455D02*
X0047905Y0031455D01*
X0047905Y0032054D02*
X0048505Y0032054D01*
X0048505Y0032652D02*
X0047905Y0032652D01*
X0047905Y0033251D02*
X0048505Y0033251D01*
X0048505Y0033849D02*
X0047905Y0033849D01*
X0047905Y0034448D02*
X0039344Y0034448D01*
X0039344Y0035046D02*
X0044505Y0035046D01*
X0044505Y0034469D02*
X0047905Y0034469D01*
X0047905Y0037869D01*
X0046672Y0037869D01*
X0044505Y0035702D01*
X0044505Y0034469D01*
X0044505Y0033849D02*
X0039344Y0033849D01*
X0039344Y0033251D02*
X0044505Y0033251D01*
X0044505Y0032652D02*
X0039344Y0032652D01*
X0039344Y0032054D02*
X0045088Y0032054D01*
X0045686Y0031455D02*
X0039235Y0031455D01*
X0033073Y0029061D02*
X0017496Y0029061D01*
X0017496Y0029660D02*
X0018771Y0029660D01*
X0017797Y0030258D02*
X0017496Y0030258D01*
X0022914Y0029660D02*
X0032474Y0029660D01*
X0031876Y0030258D02*
X0023888Y0030258D01*
X0024486Y0030857D02*
X0031277Y0030857D01*
X0030679Y0031455D02*
X0024977Y0031455D01*
X0025225Y0032054D02*
X0030569Y0032054D01*
X0030569Y0032652D02*
X0025473Y0032652D01*
X0025630Y0033251D02*
X0030569Y0033251D01*
X0030569Y0033849D02*
X0025630Y0033849D01*
X0025630Y0034448D02*
X0030569Y0034448D01*
X0030569Y0035046D02*
X0025584Y0035046D01*
X0025336Y0035645D02*
X0031015Y0035645D01*
X0031614Y0036243D02*
X0025088Y0036243D01*
X0024754Y0036842D02*
X0032212Y0036842D01*
X0032811Y0037440D02*
X0024156Y0037440D01*
X0023557Y0038039D02*
X0036136Y0038039D01*
X0036734Y0038637D02*
X0022117Y0038637D01*
X0019568Y0038637D02*
X0017496Y0038637D01*
X0017496Y0038039D02*
X0018128Y0038039D01*
X0017529Y0037440D02*
X0017496Y0037440D01*
X0017496Y0039236D02*
X0037172Y0039236D01*
X0037172Y0039834D02*
X0017496Y0039834D01*
X0017496Y0040433D02*
X0037172Y0040433D01*
X0037172Y0041032D02*
X0017496Y0041032D01*
X0017496Y0041630D02*
X0037227Y0041630D01*
X0037826Y0042229D02*
X0017496Y0042229D01*
X0017496Y0042827D02*
X0090924Y0042827D01*
X0091523Y0043426D02*
X0088985Y0043426D01*
X0089786Y0044024D02*
X0092121Y0044024D01*
X0092720Y0044623D02*
X0090359Y0044623D01*
X0090607Y0045221D02*
X0093318Y0045221D01*
X0093744Y0045820D02*
X0090855Y0045820D01*
X0090887Y0046418D02*
X0093712Y0046418D01*
X0093712Y0047017D02*
X0090887Y0047017D01*
X0090766Y0047615D02*
X0093832Y0047615D01*
X0094080Y0048214D02*
X0090518Y0048214D01*
X0090833Y0048812D02*
X0094428Y0048812D01*
X0095026Y0049411D02*
X0091432Y0049411D01*
X0092030Y0050009D02*
X0096131Y0050009D01*
X0098468Y0050009D02*
X0105575Y0050009D01*
X0105499Y0049978D02*
X0104877Y0049562D01*
X0104348Y0049033D01*
X0103932Y0048410D01*
X0103645Y0047719D01*
X0103499Y0046984D01*
X0103499Y0046910D01*
X0106999Y0046910D01*
X0106999Y0046310D01*
X0103499Y0046310D01*
X0103499Y0046236D01*
X0103645Y0045502D01*
X0103932Y0044810D01*
X0104348Y0044188D01*
X0104877Y0043659D01*
X0105499Y0043243D01*
X0106191Y0042956D01*
X0106925Y0042810D01*
X0106999Y0042810D01*
X0106999Y0046310D01*
X0107599Y0046310D01*
X0107599Y0042810D01*
X0107673Y0042810D01*
X0108408Y0042956D01*
X0109099Y0043243D01*
X0109722Y0043659D01*
X0110251Y0044188D01*
X0110667Y0044810D01*
X0110953Y0045502D01*
X0111099Y0046236D01*
X0111099Y0046310D01*
X0107599Y0046310D01*
X0107599Y0046910D01*
X0106999Y0046910D01*
X0106999Y0050410D01*
X0106925Y0050410D01*
X0106191Y0050264D01*
X0105499Y0049978D01*
X0104726Y0049411D02*
X0099572Y0049411D01*
X0100171Y0048812D02*
X0104200Y0048812D01*
X0103850Y0048214D02*
X0100518Y0048214D01*
X0100766Y0047615D02*
X0103625Y0047615D01*
X0103506Y0047017D02*
X0100887Y0047017D01*
X0100887Y0046418D02*
X0106999Y0046418D01*
X0106999Y0045820D02*
X0107599Y0045820D01*
X0107599Y0046418D02*
X0112172Y0046418D01*
X0112172Y0045820D02*
X0111016Y0045820D01*
X0110837Y0045221D02*
X0112172Y0045221D01*
X0112172Y0044623D02*
X0110541Y0044623D01*
X0110087Y0044024D02*
X0112172Y0044024D01*
X0112172Y0043426D02*
X0109373Y0043426D01*
X0107758Y0042827D02*
X0112172Y0042827D01*
X0112172Y0042229D02*
X0094250Y0042229D01*
X0094848Y0042827D02*
X0106840Y0042827D01*
X0106999Y0042827D02*
X0107599Y0042827D01*
X0107599Y0043426D02*
X0106999Y0043426D01*
X0106999Y0044024D02*
X0107599Y0044024D01*
X0107599Y0044623D02*
X0106999Y0044623D01*
X0106999Y0045221D02*
X0107599Y0045221D01*
X0107599Y0046910D02*
X0111099Y0046910D01*
X0111099Y0046984D01*
X0110953Y0047719D01*
X0110667Y0048410D01*
X0110251Y0049033D01*
X0109722Y0049562D01*
X0109099Y0049978D01*
X0108408Y0050264D01*
X0107673Y0050410D01*
X0107599Y0050410D01*
X0107599Y0046910D01*
X0107599Y0047017D02*
X0106999Y0047017D01*
X0106999Y0047615D02*
X0107599Y0047615D01*
X0107599Y0048214D02*
X0106999Y0048214D01*
X0106999Y0048812D02*
X0107599Y0048812D01*
X0107599Y0049411D02*
X0106999Y0049411D01*
X0106999Y0050009D02*
X0107599Y0050009D01*
X0109023Y0050009D02*
X0112172Y0050009D01*
X0112172Y0049411D02*
X0109873Y0049411D01*
X0110398Y0048812D02*
X0112172Y0048812D01*
X0112172Y0048214D02*
X0110748Y0048214D01*
X0110974Y0047615D02*
X0112172Y0047615D01*
X0112172Y0047017D02*
X0111093Y0047017D01*
X0114946Y0047017D02*
X0132172Y0047017D01*
X0132172Y0047615D02*
X0114946Y0047615D01*
X0114946Y0048214D02*
X0127017Y0048214D01*
X0125916Y0048812D02*
X0114946Y0048812D01*
X0114946Y0049411D02*
X0125317Y0049411D01*
X0124864Y0050009D02*
X0114946Y0050009D01*
X0114946Y0050608D02*
X0124616Y0050608D01*
X0124368Y0051206D02*
X0114946Y0051206D01*
X0114946Y0051805D02*
X0124322Y0051805D01*
X0124322Y0052403D02*
X0114946Y0052403D01*
X0114946Y0053002D02*
X0124322Y0053002D01*
X0124569Y0053600D02*
X0114946Y0053600D01*
X0114946Y0054199D02*
X0124816Y0054199D01*
X0125202Y0054797D02*
X0114946Y0054797D01*
X0114946Y0055396D02*
X0125801Y0055396D01*
X0126740Y0055994D02*
X0114946Y0055994D01*
X0114946Y0056593D02*
X0142172Y0056593D01*
X0142172Y0057191D02*
X0114946Y0057191D01*
X0114946Y0057790D02*
X0142172Y0057790D01*
X0142172Y0058388D02*
X0114946Y0058388D01*
X0114946Y0058987D02*
X0142172Y0058987D01*
X0142172Y0059585D02*
X0114946Y0059585D01*
X0114946Y0060184D02*
X0142172Y0060184D01*
X0142172Y0060425D02*
X0142172Y0054541D01*
X0140314Y0056399D01*
X0136804Y0056399D01*
X0134322Y0053917D01*
X0134322Y0050406D01*
X0136804Y0047924D01*
X0140314Y0047924D01*
X0142172Y0049781D01*
X0142172Y0045425D01*
X0142984Y0044613D01*
X0147172Y0040425D01*
X0147172Y0028736D01*
X0147161Y0028761D01*
X0146025Y0029898D01*
X0144540Y0030513D01*
X0142933Y0030513D01*
X0141448Y0029898D01*
X0140311Y0028761D01*
X0139696Y0027276D01*
X0139696Y0025669D01*
X0140237Y0024364D01*
X0139870Y0023997D01*
X0139165Y0022295D01*
X0139165Y0020453D01*
X0139870Y0018751D01*
X0141172Y0017448D01*
X0142874Y0016743D01*
X0144716Y0016743D01*
X0146418Y0017448D01*
X0147721Y0018751D01*
X0148426Y0020453D01*
X0148426Y0021405D01*
X0149134Y0022113D01*
X0149946Y0022925D01*
X0149946Y0041575D01*
X0144946Y0046575D01*
X0144946Y0061575D01*
X0132769Y0073752D01*
X0132769Y0076557D01*
X0130199Y0079128D01*
X0126565Y0079128D01*
X0123994Y0076557D01*
X0123994Y0072923D01*
X0126565Y0070353D01*
X0130199Y0070353D01*
X0131222Y0071375D01*
X0142172Y0060425D01*
X0141815Y0060782D02*
X0114946Y0060782D01*
X0114946Y0061381D02*
X0141216Y0061381D01*
X0140618Y0061979D02*
X0114946Y0061979D01*
X0114946Y0062578D02*
X0140019Y0062578D01*
X0139421Y0063176D02*
X0114946Y0063176D01*
X0114946Y0063775D02*
X0138822Y0063775D01*
X0138223Y0064373D02*
X0114946Y0064373D01*
X0114946Y0064972D02*
X0137625Y0064972D01*
X0137026Y0065570D02*
X0114946Y0065570D01*
X0114946Y0066169D02*
X0136428Y0066169D01*
X0135829Y0066768D02*
X0114946Y0066768D01*
X0114946Y0067366D02*
X0135231Y0067366D01*
X0134632Y0067965D02*
X0114946Y0067965D01*
X0114946Y0068563D02*
X0134034Y0068563D01*
X0133435Y0069162D02*
X0114946Y0069162D01*
X0114946Y0069760D02*
X0132837Y0069760D01*
X0132238Y0070359D02*
X0130205Y0070359D01*
X0130804Y0070957D02*
X0131640Y0070957D01*
X0133769Y0072753D02*
X0134165Y0072753D01*
X0133994Y0073351D02*
X0133170Y0073351D01*
X0132769Y0073950D02*
X0133994Y0073950D01*
X0133994Y0074548D02*
X0132769Y0074548D01*
X0132769Y0075147D02*
X0133994Y0075147D01*
X0133994Y0075745D02*
X0132769Y0075745D01*
X0132769Y0076344D02*
X0133753Y0076344D01*
X0133155Y0076942D02*
X0132385Y0076942D01*
X0132556Y0077541D02*
X0131786Y0077541D01*
X0131958Y0078139D02*
X0131188Y0078139D01*
X0131359Y0078738D02*
X0130589Y0078738D01*
X0130761Y0079336D02*
X0109647Y0079336D01*
X0110245Y0078738D02*
X0126175Y0078738D01*
X0125576Y0078139D02*
X0110549Y0078139D01*
X0110797Y0077541D02*
X0124978Y0077541D01*
X0124379Y0076942D02*
X0110887Y0076942D01*
X0110887Y0076344D02*
X0123994Y0076344D01*
X0123994Y0075745D02*
X0110824Y0075745D01*
X0111374Y0075147D02*
X0123994Y0075147D01*
X0123994Y0074548D02*
X0111973Y0074548D01*
X0112571Y0073950D02*
X0123994Y0073950D01*
X0123994Y0073351D02*
X0113170Y0073351D01*
X0113769Y0072753D02*
X0124165Y0072753D01*
X0124763Y0072154D02*
X0114367Y0072154D01*
X0114946Y0071556D02*
X0125362Y0071556D01*
X0125960Y0070957D02*
X0114946Y0070957D01*
X0114946Y0070359D02*
X0126559Y0070359D01*
X0128382Y0074740D02*
X0128559Y0076000D01*
X0143559Y0061000D01*
X0143559Y0046000D01*
X0148559Y0041000D01*
X0148559Y0023500D01*
X0146059Y0021000D01*
X0143795Y0021374D01*
X0139488Y0023076D02*
X0136546Y0023076D01*
X0137144Y0023675D02*
X0139736Y0023675D01*
X0140146Y0024273D02*
X0137460Y0024273D01*
X0137708Y0024872D02*
X0140026Y0024872D01*
X0139778Y0025470D02*
X0137875Y0025470D01*
X0137875Y0026069D02*
X0139696Y0026069D01*
X0139696Y0026667D02*
X0137875Y0026667D01*
X0137716Y0027266D02*
X0139696Y0027266D01*
X0139940Y0027864D02*
X0137468Y0027864D01*
X0137433Y0028463D02*
X0140188Y0028463D01*
X0140611Y0029061D02*
X0137850Y0029061D01*
X0138097Y0029660D02*
X0141210Y0029660D01*
X0142319Y0030258D02*
X0138345Y0030258D01*
X0138426Y0030857D02*
X0147172Y0030857D01*
X0147172Y0031455D02*
X0138426Y0031455D01*
X0138426Y0032054D02*
X0147172Y0032054D01*
X0147172Y0032652D02*
X0138278Y0032652D01*
X0138030Y0033251D02*
X0147172Y0033251D01*
X0147172Y0033849D02*
X0137782Y0033849D01*
X0137270Y0034448D02*
X0147172Y0034448D01*
X0147172Y0035046D02*
X0136672Y0035046D01*
X0135585Y0035645D02*
X0147172Y0035645D01*
X0147172Y0036243D02*
X0134946Y0036243D01*
X0134946Y0036842D02*
X0147172Y0036842D01*
X0147172Y0037440D02*
X0134946Y0037440D01*
X0134946Y0038039D02*
X0147172Y0038039D01*
X0147172Y0038637D02*
X0134946Y0038637D01*
X0134946Y0039236D02*
X0147172Y0039236D01*
X0147172Y0039834D02*
X0134946Y0039834D01*
X0134946Y0040433D02*
X0147164Y0040433D01*
X0146565Y0041032D02*
X0134946Y0041032D01*
X0134946Y0041630D02*
X0145967Y0041630D01*
X0145368Y0042229D02*
X0134946Y0042229D01*
X0134946Y0042827D02*
X0144770Y0042827D01*
X0144171Y0043426D02*
X0134946Y0043426D01*
X0134946Y0044024D02*
X0143573Y0044024D01*
X0142974Y0044623D02*
X0134946Y0044623D01*
X0134946Y0045221D02*
X0142376Y0045221D01*
X0142172Y0045820D02*
X0134946Y0045820D01*
X0134946Y0046418D02*
X0142172Y0046418D01*
X0142172Y0047017D02*
X0134946Y0047017D01*
X0134946Y0047615D02*
X0142172Y0047615D01*
X0142172Y0048214D02*
X0140604Y0048214D01*
X0141202Y0048812D02*
X0142172Y0048812D01*
X0142172Y0049411D02*
X0141801Y0049411D01*
X0144946Y0049411D02*
X0149955Y0049411D01*
X0150188Y0049974D02*
X0149258Y0047728D01*
X0149258Y0045296D01*
X0150188Y0043049D01*
X0151908Y0041330D01*
X0154154Y0040399D01*
X0156586Y0040399D01*
X0158832Y0041330D01*
X0160552Y0043049D01*
X0161482Y0045296D01*
X0161482Y0047728D01*
X0160552Y0049974D01*
X0158832Y0051694D01*
X0156586Y0052624D01*
X0154154Y0052624D01*
X0151908Y0051694D01*
X0150188Y0049974D01*
X0150223Y0050009D02*
X0144946Y0050009D01*
X0144946Y0050608D02*
X0150822Y0050608D01*
X0151420Y0051206D02*
X0144946Y0051206D01*
X0144946Y0051805D02*
X0152176Y0051805D01*
X0153621Y0052403D02*
X0144946Y0052403D01*
X0144946Y0053002D02*
X0273958Y0053002D01*
X0273997Y0053018D02*
X0271750Y0052087D01*
X0270031Y0050368D01*
X0269100Y0048121D01*
X0269100Y0045690D01*
X0270031Y0043443D01*
X0271750Y0041724D01*
X0273997Y0040793D01*
X0276428Y0040793D01*
X0278675Y0041724D01*
X0280394Y0043443D01*
X0280879Y0044613D01*
X0285484Y0044613D01*
X0287243Y0042854D01*
X0286248Y0042854D01*
X0284206Y0040811D01*
X0284206Y0037922D01*
X0286248Y0035879D01*
X0289137Y0035879D01*
X0291180Y0037922D01*
X0291180Y0038917D01*
X0292172Y0037925D01*
X0292172Y0035425D01*
X0292984Y0034613D01*
X0317984Y0034613D01*
X0326101Y0026496D01*
X0325791Y0026545D01*
X0325729Y0026545D01*
X0325729Y0022245D01*
X0325129Y0022245D01*
X0325129Y0026545D01*
X0325067Y0026545D01*
X0324352Y0026432D01*
X0323663Y0026208D01*
X0323018Y0025879D01*
X0322432Y0025454D01*
X0321920Y0024942D01*
X0321495Y0024356D01*
X0321390Y0024151D01*
X0321275Y0024430D01*
X0320040Y0025664D01*
X0318428Y0026332D01*
X0316682Y0026332D01*
X0315070Y0025664D01*
X0313836Y0024430D01*
X0313618Y0023905D01*
X0313401Y0024430D01*
X0312166Y0025664D01*
X0310554Y0026332D01*
X0308808Y0026332D01*
X0307196Y0025664D01*
X0305962Y0024430D01*
X0305294Y0022818D01*
X0305294Y0021072D01*
X0305962Y0019460D01*
X0307196Y0018225D01*
X0308808Y0017557D01*
X0310554Y0017557D01*
X0312166Y0018225D01*
X0313401Y0019460D01*
X0313618Y0019985D01*
X0313836Y0019460D01*
X0315070Y0018225D01*
X0316682Y0017557D01*
X0318428Y0017557D01*
X0320040Y0018225D01*
X0321275Y0019460D01*
X0321390Y0019739D01*
X0321495Y0019534D01*
X0321920Y0018948D01*
X0322432Y0018436D01*
X0323018Y0018011D01*
X0323663Y0017682D01*
X0324352Y0017458D01*
X0325067Y0017345D01*
X0325129Y0017345D01*
X0325129Y0021645D01*
X0325729Y0021645D01*
X0325729Y0017345D01*
X0325791Y0017345D01*
X0326506Y0017458D01*
X0327195Y0017682D01*
X0327840Y0018011D01*
X0328426Y0018436D01*
X0328938Y0018948D01*
X0329363Y0019534D01*
X0329468Y0019739D01*
X0329584Y0019460D01*
X0330818Y0018225D01*
X0332430Y0017557D01*
X0334176Y0017557D01*
X0335788Y0018225D01*
X0337023Y0019460D01*
X0337240Y0019985D01*
X0337458Y0019460D01*
X0338692Y0018225D01*
X0340304Y0017557D01*
X0342050Y0017557D01*
X0343662Y0018225D01*
X0344897Y0019460D01*
X0345565Y0021072D01*
X0345565Y0022818D01*
X0344897Y0024430D01*
X0343662Y0025664D01*
X0342050Y0026332D01*
X0340304Y0026332D01*
X0338692Y0025664D01*
X0337458Y0024430D01*
X0337240Y0023905D01*
X0337023Y0024430D01*
X0335788Y0025664D01*
X0334176Y0026332D01*
X0332430Y0026332D01*
X0330845Y0025676D01*
X0319946Y0036575D01*
X0319134Y0037387D01*
X0294946Y0037387D01*
X0294946Y0039075D01*
X0288142Y0045879D01*
X0289137Y0045879D01*
X0291180Y0047922D01*
X0291180Y0050811D01*
X0289946Y0052045D01*
X0289946Y0052925D01*
X0296059Y0059038D01*
X0308482Y0046615D01*
X0307676Y0045809D01*
X0307676Y0042175D01*
X0310246Y0039605D01*
X0313880Y0039605D01*
X0316450Y0042175D01*
X0316450Y0045809D01*
X0313880Y0048380D01*
X0310642Y0048380D01*
X0298021Y0061000D01*
X0300028Y0063007D01*
X0300127Y0062907D01*
X0301409Y0062376D01*
X0302796Y0062376D01*
X0304078Y0062907D01*
X0305059Y0063888D01*
X0305590Y0065170D01*
X0305590Y0071357D01*
X0305059Y0072639D01*
X0304078Y0073620D01*
X0302796Y0074151D01*
X0301409Y0074151D01*
X0300127Y0073620D01*
X0299146Y0072639D01*
X0298615Y0071357D01*
X0298615Y0065518D01*
X0295484Y0062387D01*
X0294672Y0061575D01*
X0289946Y0056849D01*
X0289946Y0057482D01*
X0292257Y0059793D01*
X0292257Y0063428D01*
X0289687Y0065998D01*
X0286053Y0065998D01*
X0283483Y0063428D01*
X0283483Y0059793D01*
X0286053Y0057223D01*
X0287172Y0057223D01*
X0287172Y0052854D01*
X0286248Y0052854D01*
X0284206Y0050811D01*
X0284206Y0047922D01*
X0284740Y0047387D01*
X0281325Y0047387D01*
X0281325Y0048121D01*
X0280394Y0050368D01*
X0278675Y0052087D01*
X0276428Y0053018D01*
X0273997Y0053018D01*
X0272513Y0052403D02*
X0157119Y0052403D01*
X0158564Y0051805D02*
X0271468Y0051805D01*
X0270869Y0051206D02*
X0216501Y0051206D01*
X0216246Y0051312D02*
X0214337Y0051312D01*
X0212572Y0050581D01*
X0211222Y0049231D01*
X0210491Y0047467D01*
X0210491Y0045557D01*
X0211222Y0043793D01*
X0212572Y0042443D01*
X0214337Y0041712D01*
X0216246Y0041712D01*
X0218010Y0042443D01*
X0219361Y0043793D01*
X0220091Y0045557D01*
X0220091Y0047467D01*
X0219361Y0049231D01*
X0218010Y0050581D01*
X0216246Y0051312D01*
X0217946Y0050608D02*
X0270271Y0050608D01*
X0269882Y0050009D02*
X0218582Y0050009D01*
X0219181Y0049411D02*
X0269634Y0049411D01*
X0269386Y0048812D02*
X0219534Y0048812D01*
X0219782Y0048214D02*
X0269138Y0048214D01*
X0269100Y0047615D02*
X0220030Y0047615D01*
X0220091Y0047017D02*
X0269100Y0047017D01*
X0269100Y0046418D02*
X0220091Y0046418D01*
X0220091Y0045820D02*
X0269100Y0045820D01*
X0269294Y0045221D02*
X0219952Y0045221D01*
X0219704Y0044623D02*
X0269542Y0044623D01*
X0269790Y0044024D02*
X0219456Y0044024D01*
X0218993Y0043426D02*
X0270048Y0043426D01*
X0270647Y0042827D02*
X0218395Y0042827D01*
X0217494Y0042229D02*
X0271245Y0042229D01*
X0271976Y0041630D02*
X0159133Y0041630D01*
X0159731Y0042229D02*
X0213089Y0042229D01*
X0212188Y0042827D02*
X0160330Y0042827D01*
X0160708Y0043426D02*
X0211589Y0043426D01*
X0211126Y0044024D02*
X0160956Y0044024D01*
X0161204Y0044623D02*
X0210878Y0044623D01*
X0210630Y0045221D02*
X0161451Y0045221D01*
X0161482Y0045820D02*
X0210491Y0045820D01*
X0210491Y0046418D02*
X0161482Y0046418D01*
X0161482Y0047017D02*
X0210491Y0047017D01*
X0210553Y0047615D02*
X0161482Y0047615D01*
X0161281Y0048214D02*
X0210801Y0048214D01*
X0211049Y0048812D02*
X0161033Y0048812D01*
X0160785Y0049411D02*
X0211402Y0049411D01*
X0212001Y0050009D02*
X0160517Y0050009D01*
X0159918Y0050608D02*
X0212637Y0050608D01*
X0214082Y0051206D02*
X0159320Y0051206D01*
X0149707Y0048812D02*
X0144946Y0048812D01*
X0144946Y0048214D02*
X0149459Y0048214D01*
X0149258Y0047615D02*
X0144946Y0047615D01*
X0144946Y0047017D02*
X0149258Y0047017D01*
X0149258Y0046418D02*
X0145103Y0046418D01*
X0145702Y0045820D02*
X0149258Y0045820D01*
X0149289Y0045221D02*
X0146300Y0045221D01*
X0146899Y0044623D02*
X0149537Y0044623D01*
X0149785Y0044024D02*
X0147497Y0044024D01*
X0148096Y0043426D02*
X0150032Y0043426D01*
X0150411Y0042827D02*
X0148694Y0042827D01*
X0149293Y0042229D02*
X0151009Y0042229D01*
X0151608Y0041630D02*
X0149891Y0041630D01*
X0149946Y0041032D02*
X0152628Y0041032D01*
X0154073Y0040433D02*
X0149946Y0040433D01*
X0149946Y0039834D02*
X0284206Y0039834D01*
X0284206Y0039236D02*
X0149946Y0039236D01*
X0149946Y0038637D02*
X0284206Y0038637D01*
X0284206Y0038039D02*
X0149946Y0038039D01*
X0149946Y0037440D02*
X0284687Y0037440D01*
X0285285Y0036842D02*
X0149946Y0036842D01*
X0149946Y0036243D02*
X0285884Y0036243D01*
X0286012Y0033503D02*
X0283969Y0031460D01*
X0283969Y0028571D01*
X0286012Y0026528D01*
X0288901Y0026528D01*
X0290944Y0028571D01*
X0290944Y0031460D01*
X0288901Y0033503D01*
X0286012Y0033503D01*
X0285760Y0033251D02*
X0149946Y0033251D01*
X0149946Y0033849D02*
X0318748Y0033849D01*
X0319346Y0033251D02*
X0289153Y0033251D01*
X0289752Y0032652D02*
X0319945Y0032652D01*
X0320543Y0032054D02*
X0290350Y0032054D01*
X0290944Y0031455D02*
X0321142Y0031455D01*
X0321740Y0030857D02*
X0290944Y0030857D01*
X0290944Y0030258D02*
X0322339Y0030258D01*
X0322937Y0029660D02*
X0290944Y0029660D01*
X0290944Y0029061D02*
X0323536Y0029061D01*
X0324134Y0028463D02*
X0290836Y0028463D01*
X0290237Y0027864D02*
X0324733Y0027864D01*
X0325331Y0027266D02*
X0289639Y0027266D01*
X0289040Y0026667D02*
X0325930Y0026667D01*
X0325729Y0026069D02*
X0325129Y0026069D01*
X0325129Y0025470D02*
X0325729Y0025470D01*
X0325729Y0024872D02*
X0325129Y0024872D01*
X0325129Y0024273D02*
X0325729Y0024273D01*
X0325729Y0023675D02*
X0325129Y0023675D01*
X0325129Y0023076D02*
X0325729Y0023076D01*
X0325729Y0022478D02*
X0325129Y0022478D01*
X0325129Y0021281D02*
X0325729Y0021281D01*
X0325729Y0020682D02*
X0325129Y0020682D01*
X0325129Y0020084D02*
X0325729Y0020084D01*
X0325729Y0019485D02*
X0325129Y0019485D01*
X0325129Y0018887D02*
X0325729Y0018887D01*
X0325729Y0018288D02*
X0325129Y0018288D01*
X0325129Y0017690D02*
X0325729Y0017690D01*
X0327210Y0017690D02*
X0332112Y0017690D01*
X0330755Y0018288D02*
X0328222Y0018288D01*
X0328876Y0018887D02*
X0330157Y0018887D01*
X0329573Y0019485D02*
X0329328Y0019485D01*
X0331059Y0023500D02*
X0333303Y0021945D01*
X0331059Y0023500D02*
X0318559Y0036000D01*
X0293559Y0036000D01*
X0293559Y0038500D01*
X0286059Y0046000D01*
X0276059Y0046000D01*
X0275213Y0046906D01*
X0280791Y0049411D02*
X0284206Y0049411D01*
X0284206Y0050009D02*
X0280543Y0050009D01*
X0280155Y0050608D02*
X0284206Y0050608D01*
X0284601Y0051206D02*
X0279556Y0051206D01*
X0278958Y0051805D02*
X0285200Y0051805D01*
X0285798Y0052403D02*
X0277912Y0052403D01*
X0276467Y0053002D02*
X0287172Y0053002D01*
X0287172Y0053600D02*
X0144946Y0053600D01*
X0144946Y0054199D02*
X0287172Y0054199D01*
X0287172Y0054797D02*
X0144946Y0054797D01*
X0144946Y0055396D02*
X0287172Y0055396D01*
X0287172Y0055994D02*
X0144946Y0055994D01*
X0144946Y0056593D02*
X0287172Y0056593D01*
X0287172Y0057191D02*
X0144946Y0057191D01*
X0144946Y0057790D02*
X0285486Y0057790D01*
X0284887Y0058388D02*
X0144946Y0058388D01*
X0144946Y0058987D02*
X0284289Y0058987D01*
X0283690Y0059585D02*
X0144946Y0059585D01*
X0144946Y0060184D02*
X0283483Y0060184D01*
X0283483Y0060782D02*
X0144946Y0060782D01*
X0144946Y0061381D02*
X0283483Y0061381D01*
X0283483Y0061979D02*
X0144542Y0061979D01*
X0143943Y0062578D02*
X0283483Y0062578D01*
X0283483Y0063176D02*
X0143345Y0063176D01*
X0142746Y0063775D02*
X0283830Y0063775D01*
X0284429Y0064373D02*
X0142148Y0064373D01*
X0141549Y0064972D02*
X0285027Y0064972D01*
X0285626Y0065570D02*
X0140951Y0065570D01*
X0140352Y0066169D02*
X0298615Y0066169D01*
X0298615Y0065570D02*
X0290115Y0065570D01*
X0290713Y0064972D02*
X0298069Y0064972D01*
X0297470Y0064373D02*
X0291312Y0064373D01*
X0291910Y0063775D02*
X0296872Y0063775D01*
X0296273Y0063176D02*
X0292257Y0063176D01*
X0292257Y0062578D02*
X0295675Y0062578D01*
X0295484Y0062387D02*
X0295484Y0062387D01*
X0295076Y0061979D02*
X0292257Y0061979D01*
X0292257Y0061381D02*
X0294478Y0061381D01*
X0294672Y0061575D02*
X0294672Y0061575D01*
X0293879Y0060782D02*
X0292257Y0060782D01*
X0292257Y0060184D02*
X0293281Y0060184D01*
X0292682Y0059585D02*
X0292050Y0059585D01*
X0292084Y0058987D02*
X0291451Y0058987D01*
X0291485Y0058388D02*
X0290853Y0058388D01*
X0290887Y0057790D02*
X0290254Y0057790D01*
X0290288Y0057191D02*
X0289946Y0057191D01*
X0291818Y0054797D02*
X0300300Y0054797D01*
X0300898Y0054199D02*
X0291220Y0054199D01*
X0290621Y0053600D02*
X0301497Y0053600D01*
X0302095Y0053002D02*
X0290023Y0053002D01*
X0289946Y0052403D02*
X0302694Y0052403D01*
X0303292Y0051805D02*
X0290186Y0051805D01*
X0290785Y0051206D02*
X0303891Y0051206D01*
X0304489Y0050608D02*
X0291180Y0050608D01*
X0291180Y0050009D02*
X0305088Y0050009D01*
X0305686Y0049411D02*
X0291180Y0049411D01*
X0291180Y0048812D02*
X0306285Y0048812D01*
X0306883Y0048214D02*
X0304347Y0048214D01*
X0303968Y0048592D02*
X0302363Y0048592D01*
X0302363Y0044292D01*
X0306663Y0044292D01*
X0306663Y0045898D01*
X0303968Y0048592D01*
X0304945Y0047615D02*
X0307482Y0047615D01*
X0308080Y0047017D02*
X0305544Y0047017D01*
X0306142Y0046418D02*
X0308284Y0046418D01*
X0307686Y0045820D02*
X0306663Y0045820D01*
X0306663Y0045221D02*
X0307676Y0045221D01*
X0307676Y0044623D02*
X0306663Y0044623D01*
X0306663Y0043692D02*
X0302363Y0043692D01*
X0302363Y0039392D01*
X0303968Y0039392D01*
X0306663Y0042087D01*
X0306663Y0043692D01*
X0306663Y0043426D02*
X0307676Y0043426D01*
X0307676Y0044024D02*
X0302363Y0044024D01*
X0302363Y0044292D02*
X0302363Y0043692D01*
X0301763Y0043692D01*
X0301763Y0039392D01*
X0300158Y0039392D01*
X0297463Y0042087D01*
X0297463Y0043692D01*
X0301763Y0043692D01*
X0301763Y0044292D01*
X0297463Y0044292D01*
X0297463Y0045898D01*
X0300158Y0048592D01*
X0301763Y0048592D01*
X0301763Y0044292D01*
X0302363Y0044292D01*
X0302363Y0044623D02*
X0301763Y0044623D01*
X0301763Y0045221D02*
X0302363Y0045221D01*
X0302363Y0045820D02*
X0301763Y0045820D01*
X0301763Y0046418D02*
X0302363Y0046418D01*
X0302363Y0047017D02*
X0301763Y0047017D01*
X0301763Y0047615D02*
X0302363Y0047615D01*
X0302363Y0048214D02*
X0301763Y0048214D01*
X0299779Y0048214D02*
X0291180Y0048214D01*
X0290874Y0047615D02*
X0299181Y0047615D01*
X0298582Y0047017D02*
X0290275Y0047017D01*
X0289677Y0046418D02*
X0297984Y0046418D01*
X0297463Y0045820D02*
X0288202Y0045820D01*
X0288800Y0045221D02*
X0297463Y0045221D01*
X0297463Y0044623D02*
X0289399Y0044623D01*
X0289997Y0044024D02*
X0301763Y0044024D01*
X0301763Y0043426D02*
X0302363Y0043426D01*
X0302363Y0042827D02*
X0301763Y0042827D01*
X0301763Y0042229D02*
X0302363Y0042229D01*
X0302363Y0041630D02*
X0301763Y0041630D01*
X0301763Y0041032D02*
X0302363Y0041032D01*
X0302363Y0040433D02*
X0301763Y0040433D01*
X0301763Y0039834D02*
X0302363Y0039834D01*
X0304411Y0039834D02*
X0310016Y0039834D01*
X0309417Y0040433D02*
X0305009Y0040433D01*
X0305608Y0041032D02*
X0308819Y0041032D01*
X0308220Y0041630D02*
X0306206Y0041630D01*
X0306663Y0042229D02*
X0307676Y0042229D01*
X0307676Y0042827D02*
X0306663Y0042827D01*
X0311059Y0046000D02*
X0312063Y0043992D01*
X0311059Y0046000D02*
X0296059Y0061000D01*
X0301059Y0066000D01*
X0302102Y0068264D01*
X0298615Y0068563D02*
X0291028Y0068563D01*
X0291626Y0069162D02*
X0298615Y0069162D01*
X0298615Y0069760D02*
X0292225Y0069760D01*
X0292257Y0069793D02*
X0289687Y0067223D01*
X0286053Y0067223D01*
X0283483Y0069793D01*
X0283483Y0073428D01*
X0286053Y0075998D01*
X0289687Y0075998D01*
X0292257Y0073428D01*
X0292257Y0069793D01*
X0292257Y0070359D02*
X0298615Y0070359D01*
X0298615Y0070957D02*
X0292257Y0070957D01*
X0292257Y0071556D02*
X0298697Y0071556D01*
X0298945Y0072154D02*
X0292257Y0072154D01*
X0292257Y0072753D02*
X0299259Y0072753D01*
X0299858Y0073351D02*
X0292257Y0073351D01*
X0291735Y0073950D02*
X0300922Y0073950D01*
X0303283Y0073950D02*
X0310922Y0073950D01*
X0311409Y0074151D02*
X0310127Y0073620D01*
X0309146Y0072639D01*
X0308615Y0071357D01*
X0308615Y0065170D01*
X0309146Y0063888D01*
X0310127Y0062907D01*
X0311409Y0062376D01*
X0312796Y0062376D01*
X0314078Y0062907D01*
X0314384Y0063213D01*
X0319672Y0057925D01*
X0319672Y0047925D01*
X0321434Y0046163D01*
X0320569Y0045298D01*
X0320569Y0041663D01*
X0323139Y0039093D01*
X0326774Y0039093D01*
X0329344Y0041663D01*
X0329344Y0045298D01*
X0326774Y0047868D01*
X0323653Y0047868D01*
X0322446Y0049075D01*
X0322446Y0059075D01*
X0321634Y0059887D01*
X0315590Y0065931D01*
X0315590Y0071357D01*
X0315059Y0072639D01*
X0314078Y0073620D01*
X0312796Y0074151D01*
X0311409Y0074151D01*
X0309858Y0073351D02*
X0304347Y0073351D01*
X0304945Y0072753D02*
X0309259Y0072753D01*
X0308945Y0072154D02*
X0305260Y0072154D01*
X0305508Y0071556D02*
X0308697Y0071556D01*
X0308615Y0070957D02*
X0305590Y0070957D01*
X0305590Y0070359D02*
X0308615Y0070359D01*
X0308615Y0069760D02*
X0305590Y0069760D01*
X0305590Y0069162D02*
X0308615Y0069162D01*
X0308615Y0068563D02*
X0305590Y0068563D01*
X0305590Y0067965D02*
X0308615Y0067965D01*
X0308615Y0067366D02*
X0305590Y0067366D01*
X0305590Y0066768D02*
X0308615Y0066768D01*
X0308615Y0066169D02*
X0305590Y0066169D01*
X0305590Y0065570D02*
X0308615Y0065570D01*
X0308697Y0064972D02*
X0305508Y0064972D01*
X0305260Y0064373D02*
X0308945Y0064373D01*
X0309259Y0063775D02*
X0304945Y0063775D01*
X0304347Y0063176D02*
X0309858Y0063176D01*
X0310922Y0062578D02*
X0303283Y0062578D01*
X0300922Y0062578D02*
X0299599Y0062578D01*
X0299001Y0061979D02*
X0315618Y0061979D01*
X0316216Y0061381D02*
X0298402Y0061381D01*
X0298239Y0060782D02*
X0316815Y0060782D01*
X0317413Y0060184D02*
X0298837Y0060184D01*
X0299436Y0059585D02*
X0318012Y0059585D01*
X0318610Y0058987D02*
X0300034Y0058987D01*
X0300633Y0058388D02*
X0319209Y0058388D01*
X0319672Y0057790D02*
X0301231Y0057790D01*
X0301830Y0057191D02*
X0319672Y0057191D01*
X0319672Y0056593D02*
X0302428Y0056593D01*
X0303027Y0055994D02*
X0319672Y0055994D01*
X0319672Y0055396D02*
X0303625Y0055396D01*
X0304224Y0054797D02*
X0319672Y0054797D01*
X0319672Y0054199D02*
X0304822Y0054199D01*
X0305421Y0053600D02*
X0319672Y0053600D01*
X0319672Y0053002D02*
X0306019Y0053002D01*
X0306618Y0052403D02*
X0319672Y0052403D01*
X0319672Y0051805D02*
X0307216Y0051805D01*
X0307815Y0051206D02*
X0319672Y0051206D01*
X0319672Y0050608D02*
X0308413Y0050608D01*
X0309012Y0050009D02*
X0319672Y0050009D01*
X0319672Y0049411D02*
X0309610Y0049411D01*
X0310209Y0048812D02*
X0319672Y0048812D01*
X0319672Y0048214D02*
X0314046Y0048214D01*
X0314645Y0047615D02*
X0319982Y0047615D01*
X0320580Y0047017D02*
X0315243Y0047017D01*
X0315842Y0046418D02*
X0321179Y0046418D01*
X0321091Y0045820D02*
X0316440Y0045820D01*
X0316450Y0045221D02*
X0320569Y0045221D01*
X0320569Y0044623D02*
X0316450Y0044623D01*
X0316450Y0044024D02*
X0320569Y0044024D01*
X0320569Y0043426D02*
X0316450Y0043426D01*
X0316450Y0042827D02*
X0320569Y0042827D01*
X0320569Y0042229D02*
X0316450Y0042229D01*
X0315906Y0041630D02*
X0320602Y0041630D01*
X0321201Y0041032D02*
X0315307Y0041032D01*
X0314709Y0040433D02*
X0321799Y0040433D01*
X0322398Y0039834D02*
X0314110Y0039834D01*
X0319679Y0036842D02*
X0345755Y0036842D01*
X0345157Y0037440D02*
X0294946Y0037440D01*
X0294946Y0038039D02*
X0344558Y0038039D01*
X0343959Y0038637D02*
X0294946Y0038637D01*
X0294785Y0039236D02*
X0322996Y0039236D01*
X0326917Y0039236D02*
X0332696Y0039236D01*
X0333051Y0038880D02*
X0334657Y0038880D01*
X0334657Y0043180D01*
X0335257Y0043180D01*
X0335257Y0043780D01*
X0339557Y0043780D01*
X0339557Y0045386D01*
X0336862Y0048080D01*
X0335257Y0048080D01*
X0335257Y0043780D01*
X0334657Y0043780D01*
X0334657Y0043180D01*
X0330357Y0043180D01*
X0330357Y0041575D01*
X0333051Y0038880D01*
X0332097Y0039834D02*
X0327516Y0039834D01*
X0328114Y0040433D02*
X0331499Y0040433D01*
X0330900Y0041032D02*
X0328713Y0041032D01*
X0329311Y0041630D02*
X0330357Y0041630D01*
X0330357Y0042229D02*
X0329344Y0042229D01*
X0329344Y0042827D02*
X0330357Y0042827D01*
X0330357Y0043780D02*
X0334657Y0043780D01*
X0334657Y0048080D01*
X0333051Y0048080D01*
X0330357Y0045386D01*
X0330357Y0043780D01*
X0330357Y0044024D02*
X0329344Y0044024D01*
X0329344Y0043426D02*
X0334657Y0043426D01*
X0334657Y0044024D02*
X0335257Y0044024D01*
X0335257Y0043426D02*
X0339672Y0043426D01*
X0339557Y0043180D02*
X0335257Y0043180D01*
X0335257Y0038880D01*
X0336862Y0038880D01*
X0339557Y0041575D01*
X0339557Y0043180D01*
X0339672Y0042925D02*
X0340484Y0042113D01*
X0357861Y0024735D01*
X0357556Y0024430D01*
X0357339Y0023905D01*
X0357121Y0024430D01*
X0355887Y0025664D01*
X0354274Y0026332D01*
X0352529Y0026332D01*
X0350916Y0025664D01*
X0349682Y0024430D01*
X0349014Y0022818D01*
X0349014Y0021072D01*
X0349682Y0019460D01*
X0350916Y0018225D01*
X0352529Y0017557D01*
X0354274Y0017557D01*
X0355887Y0018225D01*
X0357121Y0019460D01*
X0357339Y0019985D01*
X0357556Y0019460D01*
X0358790Y0018225D01*
X0360403Y0017557D01*
X0362148Y0017557D01*
X0363761Y0018225D01*
X0364995Y0019460D01*
X0365213Y0019985D01*
X0365430Y0019460D01*
X0366664Y0018225D01*
X0368277Y0017557D01*
X0370022Y0017557D01*
X0371635Y0018225D01*
X0372869Y0019460D01*
X0373087Y0019985D01*
X0373304Y0019460D01*
X0374538Y0018225D01*
X0376151Y0017557D01*
X0377896Y0017557D01*
X0379509Y0018225D01*
X0380743Y0019460D01*
X0380961Y0019985D01*
X0381178Y0019460D01*
X0382412Y0018225D01*
X0384025Y0017557D01*
X0385770Y0017557D01*
X0387383Y0018225D01*
X0388617Y0019460D01*
X0389285Y0021072D01*
X0389285Y0022818D01*
X0388617Y0024430D01*
X0387383Y0025664D01*
X0385770Y0026332D01*
X0384025Y0026332D01*
X0382412Y0025664D01*
X0381178Y0024430D01*
X0380961Y0023905D01*
X0380743Y0024430D01*
X0379509Y0025664D01*
X0377896Y0026332D01*
X0376151Y0026332D01*
X0374538Y0025664D01*
X0373304Y0024430D01*
X0373087Y0023905D01*
X0372869Y0024430D01*
X0371635Y0025664D01*
X0370022Y0026332D01*
X0369946Y0026332D01*
X0369946Y0026575D01*
X0369134Y0027387D01*
X0343496Y0053025D01*
X0343496Y0053985D01*
X0343125Y0054881D01*
X0342440Y0055566D01*
X0341544Y0055937D01*
X0340574Y0055937D01*
X0339678Y0055566D01*
X0338993Y0054881D01*
X0338622Y0053985D01*
X0338622Y0053015D01*
X0338993Y0052119D01*
X0339678Y0051434D01*
X0340574Y0051063D01*
X0341534Y0051063D01*
X0366854Y0025743D01*
X0366664Y0025664D01*
X0365430Y0024430D01*
X0365213Y0023905D01*
X0364995Y0024430D01*
X0363761Y0025664D01*
X0362148Y0026332D01*
X0360403Y0026332D01*
X0360252Y0026270D01*
X0342446Y0044075D01*
X0342446Y0046575D01*
X0325080Y0063941D01*
X0325590Y0065170D01*
X0325590Y0071357D01*
X0325059Y0072639D01*
X0324078Y0073620D01*
X0322796Y0074151D01*
X0321409Y0074151D01*
X0320127Y0073620D01*
X0319146Y0072639D01*
X0318615Y0071357D01*
X0318615Y0065170D01*
X0319146Y0063888D01*
X0320127Y0062907D01*
X0321409Y0062376D01*
X0322721Y0062376D01*
X0322984Y0062113D01*
X0339672Y0045425D01*
X0339672Y0042925D01*
X0339770Y0042827D02*
X0339557Y0042827D01*
X0339557Y0042229D02*
X0340368Y0042229D01*
X0340967Y0041630D02*
X0339557Y0041630D01*
X0339013Y0041032D02*
X0341565Y0041032D01*
X0342164Y0040433D02*
X0338415Y0040433D01*
X0337816Y0039834D02*
X0342762Y0039834D01*
X0343361Y0039236D02*
X0337218Y0039236D01*
X0335257Y0039236D02*
X0334657Y0039236D01*
X0334657Y0039834D02*
X0335257Y0039834D01*
X0335257Y0040433D02*
X0334657Y0040433D01*
X0334657Y0041032D02*
X0335257Y0041032D01*
X0335257Y0041630D02*
X0334657Y0041630D01*
X0334657Y0042229D02*
X0335257Y0042229D01*
X0335257Y0042827D02*
X0334657Y0042827D01*
X0334657Y0044623D02*
X0335257Y0044623D01*
X0335257Y0045221D02*
X0334657Y0045221D01*
X0334657Y0045820D02*
X0335257Y0045820D01*
X0335257Y0046418D02*
X0334657Y0046418D01*
X0334657Y0047017D02*
X0335257Y0047017D01*
X0335257Y0047615D02*
X0334657Y0047615D01*
X0336285Y0048812D02*
X0322709Y0048812D01*
X0322446Y0049411D02*
X0335686Y0049411D01*
X0335088Y0050009D02*
X0322446Y0050009D01*
X0322446Y0050608D02*
X0334489Y0050608D01*
X0333891Y0051206D02*
X0322446Y0051206D01*
X0322446Y0051805D02*
X0333292Y0051805D01*
X0332694Y0052403D02*
X0322446Y0052403D01*
X0322446Y0053002D02*
X0332095Y0053002D01*
X0331497Y0053600D02*
X0322446Y0053600D01*
X0322446Y0054199D02*
X0330898Y0054199D01*
X0330300Y0054797D02*
X0322446Y0054797D01*
X0322446Y0055396D02*
X0329701Y0055396D01*
X0329103Y0055994D02*
X0322446Y0055994D01*
X0322446Y0056593D02*
X0328504Y0056593D01*
X0327906Y0057191D02*
X0322446Y0057191D01*
X0322446Y0057790D02*
X0327307Y0057790D01*
X0326709Y0058388D02*
X0322446Y0058388D01*
X0322446Y0058987D02*
X0326110Y0058987D01*
X0325512Y0059585D02*
X0321936Y0059585D01*
X0321337Y0060184D02*
X0324913Y0060184D01*
X0324315Y0060782D02*
X0320739Y0060782D01*
X0320140Y0061381D02*
X0323716Y0061381D01*
X0323118Y0061979D02*
X0319542Y0061979D01*
X0318943Y0062578D02*
X0320922Y0062578D01*
X0319858Y0063176D02*
X0318345Y0063176D01*
X0317746Y0063775D02*
X0319259Y0063775D01*
X0318945Y0064373D02*
X0317148Y0064373D01*
X0316549Y0064972D02*
X0318697Y0064972D01*
X0318615Y0065570D02*
X0315951Y0065570D01*
X0315590Y0066169D02*
X0318615Y0066169D01*
X0318615Y0066768D02*
X0315590Y0066768D01*
X0315590Y0067366D02*
X0318615Y0067366D01*
X0318615Y0067965D02*
X0315590Y0067965D01*
X0315590Y0068563D02*
X0318615Y0068563D01*
X0318615Y0069162D02*
X0315590Y0069162D01*
X0315590Y0069760D02*
X0318615Y0069760D01*
X0318615Y0070359D02*
X0315590Y0070359D01*
X0315590Y0070957D02*
X0318615Y0070957D01*
X0318697Y0071556D02*
X0315508Y0071556D01*
X0315260Y0072154D02*
X0318945Y0072154D01*
X0319259Y0072753D02*
X0314945Y0072753D01*
X0314347Y0073351D02*
X0319858Y0073351D01*
X0320922Y0073950D02*
X0313283Y0073950D01*
X0323283Y0073950D02*
X0332351Y0073950D01*
X0332950Y0074548D02*
X0291137Y0074548D01*
X0290538Y0075147D02*
X0333548Y0075147D01*
X0333769Y0075368D02*
X0331199Y0072798D01*
X0331199Y0069163D01*
X0333769Y0066593D01*
X0337404Y0066593D01*
X0339974Y0069163D01*
X0339974Y0072798D01*
X0337404Y0075368D01*
X0333769Y0075368D01*
X0331753Y0073351D02*
X0324347Y0073351D01*
X0324945Y0072753D02*
X0331199Y0072753D01*
X0331199Y0072154D02*
X0325260Y0072154D01*
X0325508Y0071556D02*
X0331199Y0071556D01*
X0331199Y0070957D02*
X0325590Y0070957D01*
X0325590Y0070359D02*
X0331199Y0070359D01*
X0331199Y0069760D02*
X0325590Y0069760D01*
X0325590Y0069162D02*
X0331201Y0069162D01*
X0331799Y0068563D02*
X0325590Y0068563D01*
X0325590Y0067965D02*
X0332398Y0067965D01*
X0332996Y0067366D02*
X0325590Y0067366D01*
X0325590Y0066768D02*
X0333595Y0066768D01*
X0333681Y0065580D02*
X0330987Y0062886D01*
X0330987Y0061280D01*
X0335287Y0061280D01*
X0335287Y0060680D01*
X0335887Y0060680D01*
X0335887Y0061280D01*
X0340187Y0061280D01*
X0340187Y0062886D01*
X0337492Y0065580D01*
X0335887Y0065580D01*
X0335887Y0061280D01*
X0335287Y0061280D01*
X0335287Y0065580D01*
X0333681Y0065580D01*
X0333671Y0065570D02*
X0325590Y0065570D01*
X0325590Y0066169D02*
X0393697Y0066169D01*
X0393697Y0065570D02*
X0337502Y0065570D01*
X0338100Y0064972D02*
X0393697Y0064972D01*
X0393697Y0064373D02*
X0338699Y0064373D01*
X0339297Y0063775D02*
X0360160Y0063775D01*
X0360467Y0063902D02*
X0358938Y0063269D01*
X0357767Y0062098D01*
X0357133Y0060568D01*
X0357133Y0058912D01*
X0357767Y0057382D01*
X0358938Y0056212D01*
X0360467Y0055578D01*
X0362123Y0055578D01*
X0363653Y0056212D01*
X0364824Y0057382D01*
X0365457Y0058912D01*
X0365457Y0060568D01*
X0364824Y0062098D01*
X0363653Y0063269D01*
X0362123Y0063902D01*
X0360467Y0063902D01*
X0358845Y0063176D02*
X0339896Y0063176D01*
X0340187Y0062578D02*
X0358247Y0062578D01*
X0357718Y0061979D02*
X0340187Y0061979D01*
X0340187Y0061381D02*
X0357470Y0061381D01*
X0357222Y0060782D02*
X0335887Y0060782D01*
X0335887Y0060680D02*
X0340187Y0060680D01*
X0340187Y0059075D01*
X0337492Y0056380D01*
X0335887Y0056380D01*
X0335887Y0060680D01*
X0335887Y0060184D02*
X0335287Y0060184D01*
X0335287Y0060680D02*
X0335287Y0056380D01*
X0333681Y0056380D01*
X0330987Y0059075D01*
X0330987Y0060680D01*
X0335287Y0060680D01*
X0335287Y0060782D02*
X0328239Y0060782D01*
X0328837Y0060184D02*
X0330987Y0060184D01*
X0330987Y0059585D02*
X0329436Y0059585D01*
X0330034Y0058987D02*
X0331075Y0058987D01*
X0330633Y0058388D02*
X0331673Y0058388D01*
X0331231Y0057790D02*
X0332272Y0057790D01*
X0331830Y0057191D02*
X0332870Y0057191D01*
X0332428Y0056593D02*
X0333469Y0056593D01*
X0333027Y0055994D02*
X0359462Y0055994D01*
X0358556Y0056593D02*
X0337704Y0056593D01*
X0338303Y0057191D02*
X0357958Y0057191D01*
X0357598Y0057790D02*
X0338902Y0057790D01*
X0339500Y0058388D02*
X0357350Y0058388D01*
X0357133Y0058987D02*
X0340099Y0058987D01*
X0340187Y0059585D02*
X0357133Y0059585D01*
X0357133Y0060184D02*
X0340187Y0060184D01*
X0335887Y0059585D02*
X0335287Y0059585D01*
X0335287Y0058987D02*
X0335887Y0058987D01*
X0335887Y0058388D02*
X0335287Y0058388D01*
X0335287Y0057790D02*
X0335887Y0057790D01*
X0335887Y0057191D02*
X0335287Y0057191D01*
X0335287Y0056593D02*
X0335887Y0056593D01*
X0334224Y0054797D02*
X0338958Y0054797D01*
X0338710Y0054199D02*
X0334822Y0054199D01*
X0335421Y0053600D02*
X0338622Y0053600D01*
X0338627Y0053002D02*
X0336019Y0053002D01*
X0336618Y0052403D02*
X0338875Y0052403D01*
X0339307Y0051805D02*
X0337216Y0051805D01*
X0337815Y0051206D02*
X0340227Y0051206D01*
X0339012Y0050009D02*
X0342588Y0050009D01*
X0343186Y0049411D02*
X0339610Y0049411D01*
X0340209Y0048812D02*
X0343785Y0048812D01*
X0344383Y0048214D02*
X0340807Y0048214D01*
X0341406Y0047615D02*
X0344982Y0047615D01*
X0345580Y0047017D02*
X0342004Y0047017D01*
X0342446Y0046418D02*
X0346179Y0046418D01*
X0346777Y0045820D02*
X0342446Y0045820D01*
X0342446Y0045221D02*
X0347376Y0045221D01*
X0347974Y0044623D02*
X0342446Y0044623D01*
X0342497Y0044024D02*
X0348573Y0044024D01*
X0349171Y0043426D02*
X0343096Y0043426D01*
X0343694Y0042827D02*
X0349770Y0042827D01*
X0350368Y0042229D02*
X0344293Y0042229D01*
X0344891Y0041630D02*
X0350967Y0041630D01*
X0351565Y0041032D02*
X0345490Y0041032D01*
X0346088Y0040433D02*
X0352164Y0040433D01*
X0352762Y0039834D02*
X0346687Y0039834D01*
X0347285Y0039236D02*
X0353361Y0039236D01*
X0353959Y0038637D02*
X0347884Y0038637D01*
X0348482Y0038039D02*
X0354558Y0038039D01*
X0355157Y0037440D02*
X0349081Y0037440D01*
X0349679Y0036842D02*
X0355755Y0036842D01*
X0356354Y0036243D02*
X0350278Y0036243D01*
X0350876Y0035645D02*
X0356952Y0035645D01*
X0357551Y0035046D02*
X0351475Y0035046D01*
X0352073Y0034448D02*
X0358149Y0034448D01*
X0358748Y0033849D02*
X0352672Y0033849D01*
X0353270Y0033251D02*
X0359346Y0033251D01*
X0359945Y0032652D02*
X0353869Y0032652D01*
X0354467Y0032054D02*
X0360543Y0032054D01*
X0361142Y0031455D02*
X0355066Y0031455D01*
X0355664Y0030857D02*
X0361740Y0030857D01*
X0362339Y0030258D02*
X0356263Y0030258D01*
X0356861Y0029660D02*
X0362937Y0029660D01*
X0363536Y0029061D02*
X0357460Y0029061D01*
X0358058Y0028463D02*
X0364134Y0028463D01*
X0364733Y0027864D02*
X0358657Y0027864D01*
X0359255Y0027266D02*
X0365331Y0027266D01*
X0365930Y0026667D02*
X0359854Y0026667D01*
X0357725Y0024872D02*
X0356679Y0024872D01*
X0357127Y0025470D02*
X0356081Y0025470D01*
X0356528Y0026069D02*
X0354911Y0026069D01*
X0355930Y0026667D02*
X0329854Y0026667D01*
X0330452Y0026069D02*
X0331794Y0026069D01*
X0329255Y0027266D02*
X0355331Y0027266D01*
X0354733Y0027864D02*
X0328657Y0027864D01*
X0328058Y0028463D02*
X0354134Y0028463D01*
X0353536Y0029061D02*
X0327460Y0029061D01*
X0326861Y0029660D02*
X0352937Y0029660D01*
X0352339Y0030258D02*
X0326263Y0030258D01*
X0325664Y0030857D02*
X0351740Y0030857D01*
X0351142Y0031455D02*
X0325066Y0031455D01*
X0324467Y0032054D02*
X0350543Y0032054D01*
X0349945Y0032652D02*
X0323869Y0032652D01*
X0323270Y0033251D02*
X0349346Y0033251D01*
X0348748Y0033849D02*
X0322672Y0033849D01*
X0322073Y0034448D02*
X0348149Y0034448D01*
X0347551Y0035046D02*
X0321475Y0035046D01*
X0320876Y0035645D02*
X0346952Y0035645D01*
X0346354Y0036243D02*
X0320278Y0036243D01*
X0318149Y0034448D02*
X0149946Y0034448D01*
X0149946Y0035046D02*
X0292551Y0035046D01*
X0292172Y0035645D02*
X0149946Y0035645D01*
X0149946Y0032652D02*
X0285161Y0032652D01*
X0284563Y0032054D02*
X0149946Y0032054D01*
X0149946Y0031455D02*
X0283969Y0031455D01*
X0283969Y0030857D02*
X0149946Y0030857D01*
X0149946Y0030258D02*
X0283969Y0030258D01*
X0283969Y0029660D02*
X0149946Y0029660D01*
X0149946Y0029061D02*
X0283969Y0029061D01*
X0284078Y0028463D02*
X0149946Y0028463D01*
X0149946Y0027864D02*
X0284676Y0027864D01*
X0285275Y0027266D02*
X0149946Y0027266D01*
X0149946Y0026667D02*
X0285873Y0026667D01*
X0285924Y0023716D02*
X0283757Y0021548D01*
X0283757Y0020316D01*
X0287157Y0020316D01*
X0287157Y0023716D01*
X0285924Y0023716D01*
X0285883Y0023675D02*
X0188192Y0023675D01*
X0188021Y0024086D02*
X0188745Y0022339D01*
X0188745Y0020448D01*
X0188021Y0018701D01*
X0186684Y0017365D01*
X0184937Y0016641D01*
X0183047Y0016641D01*
X0181300Y0017365D01*
X0179963Y0018701D01*
X0179239Y0020448D01*
X0179239Y0022339D01*
X0179963Y0024086D01*
X0181300Y0025423D01*
X0183047Y0026146D01*
X0184937Y0026146D01*
X0186684Y0025423D01*
X0188021Y0024086D01*
X0187834Y0024273D02*
X0305897Y0024273D01*
X0305649Y0023675D02*
X0289030Y0023675D01*
X0288989Y0023716D02*
X0287757Y0023716D01*
X0287757Y0020316D01*
X0291157Y0020316D01*
X0291157Y0021548D01*
X0288989Y0023716D01*
X0289629Y0023076D02*
X0305401Y0023076D01*
X0305294Y0022478D02*
X0290227Y0022478D01*
X0290826Y0021879D02*
X0305294Y0021879D01*
X0305294Y0021281D02*
X0291157Y0021281D01*
X0291157Y0020682D02*
X0305455Y0020682D01*
X0305703Y0020084D02*
X0287757Y0020084D01*
X0287757Y0020316D02*
X0287757Y0019716D01*
X0291157Y0019716D01*
X0291157Y0018483D01*
X0288989Y0016316D01*
X0287757Y0016316D01*
X0287757Y0019716D01*
X0287157Y0019716D01*
X0287157Y0016316D01*
X0285924Y0016316D01*
X0283757Y0018483D01*
X0283757Y0019716D01*
X0287157Y0019716D01*
X0287157Y0020316D01*
X0287757Y0020316D01*
X0287757Y0020682D02*
X0287157Y0020682D01*
X0287157Y0020084D02*
X0188594Y0020084D01*
X0188745Y0020682D02*
X0283757Y0020682D01*
X0283757Y0021281D02*
X0188745Y0021281D01*
X0188745Y0021879D02*
X0284088Y0021879D01*
X0284686Y0022478D02*
X0188687Y0022478D01*
X0188440Y0023076D02*
X0285285Y0023076D01*
X0287157Y0023076D02*
X0287757Y0023076D01*
X0287757Y0022478D02*
X0287157Y0022478D01*
X0287157Y0021879D02*
X0287757Y0021879D01*
X0287757Y0021281D02*
X0287157Y0021281D01*
X0287157Y0019485D02*
X0287757Y0019485D01*
X0287757Y0018887D02*
X0287157Y0018887D01*
X0287157Y0018288D02*
X0287757Y0018288D01*
X0287757Y0017690D02*
X0287157Y0017690D01*
X0287157Y0017091D02*
X0287757Y0017091D01*
X0287757Y0016493D02*
X0287157Y0016493D01*
X0285747Y0016493D02*
X0102635Y0016493D01*
X0110296Y0019485D02*
X0119565Y0019485D01*
X0119318Y0020084D02*
X0110895Y0020084D01*
X0111493Y0020682D02*
X0119165Y0020682D01*
X0119165Y0021281D02*
X0112092Y0021281D01*
X0112494Y0021879D02*
X0119165Y0021879D01*
X0119240Y0022478D02*
X0112494Y0022478D01*
X0112494Y0023076D02*
X0119488Y0023076D01*
X0119736Y0023675D02*
X0112494Y0023675D01*
X0112494Y0024273D02*
X0120146Y0024273D01*
X0120322Y0024872D02*
X0112494Y0024872D01*
X0112341Y0025470D02*
X0120074Y0025470D01*
X0119826Y0026069D02*
X0111742Y0026069D01*
X0111144Y0026667D02*
X0119755Y0026667D01*
X0119755Y0027266D02*
X0110545Y0027266D01*
X0109947Y0027864D02*
X0119762Y0027864D01*
X0120698Y0029660D02*
X0110471Y0029660D01*
X0111069Y0030258D02*
X0121297Y0030258D01*
X0122445Y0030857D02*
X0111668Y0030857D01*
X0112266Y0031455D02*
X0129165Y0031455D01*
X0129165Y0032054D02*
X0112494Y0032054D01*
X0112494Y0032652D02*
X0129313Y0032652D01*
X0129560Y0033251D02*
X0112494Y0033251D01*
X0112494Y0033849D02*
X0129808Y0033849D01*
X0130320Y0034448D02*
X0112494Y0034448D01*
X0112494Y0035046D02*
X0130919Y0035046D01*
X0132006Y0035645D02*
X0112666Y0035645D01*
X0113265Y0036243D02*
X0132172Y0036243D01*
X0132172Y0036842D02*
X0113863Y0036842D01*
X0114462Y0037440D02*
X0132172Y0037440D01*
X0132172Y0038039D02*
X0114946Y0038039D01*
X0114946Y0038637D02*
X0132172Y0038637D01*
X0132172Y0039236D02*
X0114946Y0039236D01*
X0114946Y0039834D02*
X0132172Y0039834D01*
X0132172Y0040433D02*
X0114946Y0040433D01*
X0114946Y0041032D02*
X0132172Y0041032D01*
X0132172Y0041630D02*
X0114946Y0041630D01*
X0114946Y0042229D02*
X0132172Y0042229D01*
X0132172Y0042827D02*
X0114946Y0042827D01*
X0114946Y0043426D02*
X0132172Y0043426D01*
X0132172Y0044024D02*
X0114946Y0044024D01*
X0114946Y0044623D02*
X0132172Y0044623D01*
X0132172Y0045221D02*
X0114946Y0045221D01*
X0114946Y0045820D02*
X0132172Y0045820D01*
X0132172Y0046418D02*
X0114946Y0046418D01*
X0112172Y0050608D02*
X0092629Y0050608D01*
X0093227Y0051206D02*
X0112172Y0051206D01*
X0112172Y0051805D02*
X0093826Y0051805D01*
X0094424Y0052403D02*
X0112172Y0052403D01*
X0112172Y0053002D02*
X0095023Y0053002D01*
X0095621Y0053600D02*
X0112172Y0053600D01*
X0112172Y0054199D02*
X0096220Y0054199D01*
X0096818Y0054797D02*
X0112172Y0054797D01*
X0112172Y0055396D02*
X0097417Y0055396D01*
X0098015Y0055994D02*
X0112172Y0055994D01*
X0112172Y0056593D02*
X0098614Y0056593D01*
X0099212Y0057191D02*
X0112172Y0057191D01*
X0112172Y0057790D02*
X0099811Y0057790D01*
X0100409Y0058388D02*
X0112172Y0058388D01*
X0112172Y0058987D02*
X0101008Y0058987D01*
X0101606Y0059585D02*
X0112172Y0059585D01*
X0112172Y0060184D02*
X0102205Y0060184D01*
X0102446Y0060782D02*
X0112172Y0060782D01*
X0112172Y0061381D02*
X0102446Y0061381D01*
X0102446Y0061979D02*
X0112172Y0061979D01*
X0112172Y0062578D02*
X0102446Y0062578D01*
X0102446Y0063176D02*
X0112172Y0063176D01*
X0112172Y0063775D02*
X0102446Y0063775D01*
X0102446Y0064373D02*
X0112172Y0064373D01*
X0112172Y0064972D02*
X0102446Y0064972D01*
X0102446Y0065570D02*
X0112172Y0065570D01*
X0112172Y0066169D02*
X0102446Y0066169D01*
X0102446Y0066768D02*
X0112172Y0066768D01*
X0112172Y0067366D02*
X0102446Y0067366D01*
X0102446Y0067965D02*
X0112172Y0067965D01*
X0112172Y0068563D02*
X0102446Y0068563D01*
X0102446Y0069162D02*
X0112172Y0069162D01*
X0112172Y0069760D02*
X0102446Y0069760D01*
X0102446Y0070359D02*
X0112172Y0070359D01*
X0111640Y0070957D02*
X0102446Y0070957D01*
X0102446Y0071556D02*
X0111041Y0071556D01*
X0110443Y0072154D02*
X0102446Y0072154D01*
X0102446Y0072753D02*
X0109844Y0072753D01*
X0109246Y0073351D02*
X0108805Y0073351D01*
X0105793Y0073351D02*
X0102446Y0073351D01*
X0102446Y0073950D02*
X0104886Y0073950D01*
X0104288Y0074548D02*
X0102446Y0074548D01*
X0102446Y0075147D02*
X0104022Y0075147D01*
X0103775Y0075745D02*
X0102446Y0075745D01*
X0102446Y0076344D02*
X0103712Y0076344D01*
X0103712Y0076942D02*
X0102446Y0076942D01*
X0102446Y0077541D02*
X0103802Y0077541D01*
X0104050Y0078139D02*
X0102446Y0078139D01*
X0102446Y0078738D02*
X0104353Y0078738D01*
X0104952Y0079336D02*
X0102446Y0079336D01*
X0101059Y0081000D02*
X0101059Y0061000D01*
X0088559Y0048500D01*
X0087299Y0046610D01*
X0083992Y0045221D02*
X0080607Y0045221D01*
X0080359Y0044623D02*
X0084240Y0044623D01*
X0084812Y0044024D02*
X0079786Y0044024D01*
X0079331Y0043569D02*
X0080340Y0044578D01*
X0080887Y0045897D01*
X0080887Y0047324D01*
X0080340Y0048642D01*
X0079331Y0049651D01*
X0078013Y0050198D01*
X0076586Y0050198D01*
X0075267Y0049651D01*
X0074258Y0048642D01*
X0073712Y0047324D01*
X0073712Y0045897D01*
X0074258Y0044578D01*
X0075267Y0043569D01*
X0076586Y0043023D01*
X0078013Y0043023D01*
X0079331Y0043569D01*
X0078985Y0043426D02*
X0085613Y0043426D01*
X0083744Y0045820D02*
X0080855Y0045820D01*
X0080887Y0046418D02*
X0083712Y0046418D01*
X0083712Y0047017D02*
X0080887Y0047017D01*
X0080766Y0047615D02*
X0083832Y0047615D01*
X0084080Y0048214D02*
X0080518Y0048214D01*
X0080171Y0048812D02*
X0084428Y0048812D01*
X0085026Y0049411D02*
X0079572Y0049411D01*
X0078468Y0050009D02*
X0086131Y0050009D01*
X0088705Y0050608D02*
X0017496Y0050608D01*
X0017496Y0051206D02*
X0089303Y0051206D01*
X0089902Y0051805D02*
X0017496Y0051805D01*
X0017496Y0052403D02*
X0090500Y0052403D01*
X0091099Y0053002D02*
X0017496Y0053002D01*
X0017496Y0053600D02*
X0091697Y0053600D01*
X0092296Y0054199D02*
X0017496Y0054199D01*
X0017496Y0054797D02*
X0092894Y0054797D01*
X0093493Y0055396D02*
X0017496Y0055396D01*
X0017496Y0055994D02*
X0094091Y0055994D01*
X0094690Y0056593D02*
X0049252Y0056593D01*
X0048560Y0056306D02*
X0050090Y0056940D01*
X0051261Y0058111D01*
X0051894Y0059641D01*
X0051894Y0061296D01*
X0051261Y0062826D01*
X0050090Y0063997D01*
X0048560Y0064631D01*
X0046904Y0064631D01*
X0045375Y0063997D01*
X0044204Y0062826D01*
X0043570Y0061296D01*
X0043570Y0059641D01*
X0044204Y0058111D01*
X0045375Y0056940D01*
X0046904Y0056306D01*
X0048560Y0056306D01*
X0050341Y0057191D02*
X0095288Y0057191D01*
X0095887Y0057790D02*
X0050940Y0057790D01*
X0051376Y0058388D02*
X0096485Y0058388D01*
X0097084Y0058987D02*
X0051624Y0058987D01*
X0051872Y0059585D02*
X0097682Y0059585D01*
X0098281Y0060184D02*
X0051894Y0060184D01*
X0051894Y0060782D02*
X0098879Y0060782D01*
X0099478Y0061381D02*
X0051859Y0061381D01*
X0051612Y0061979D02*
X0099672Y0061979D01*
X0099672Y0062578D02*
X0051364Y0062578D01*
X0050911Y0063176D02*
X0099672Y0063176D01*
X0099672Y0063775D02*
X0050312Y0063775D01*
X0049181Y0064373D02*
X0099672Y0064373D01*
X0099672Y0064972D02*
X0017496Y0064972D01*
X0017496Y0065570D02*
X0099672Y0065570D01*
X0099672Y0066169D02*
X0017496Y0066169D01*
X0017496Y0066768D02*
X0099672Y0066768D01*
X0099672Y0067366D02*
X0017496Y0067366D01*
X0017496Y0067965D02*
X0099672Y0067965D01*
X0099672Y0068563D02*
X0017496Y0068563D01*
X0017496Y0069162D02*
X0099672Y0069162D01*
X0099672Y0069760D02*
X0017496Y0069760D01*
X0017496Y0070359D02*
X0099672Y0070359D01*
X0099672Y0070957D02*
X0017496Y0070957D01*
X0017496Y0071556D02*
X0099672Y0071556D01*
X0099672Y0072154D02*
X0017496Y0072154D01*
X0017496Y0072753D02*
X0099672Y0072753D01*
X0099672Y0073351D02*
X0098805Y0073351D01*
X0095793Y0073351D02*
X0088805Y0073351D01*
X0089331Y0073569D02*
X0088013Y0073023D01*
X0086586Y0073023D01*
X0085267Y0073569D01*
X0084258Y0074578D01*
X0083712Y0075897D01*
X0083712Y0077324D01*
X0084258Y0078642D01*
X0085267Y0079651D01*
X0086586Y0080198D01*
X0088013Y0080198D01*
X0089331Y0079651D01*
X0090340Y0078642D01*
X0090887Y0077324D01*
X0090887Y0075897D01*
X0090340Y0074578D01*
X0089331Y0073569D01*
X0089712Y0073950D02*
X0094886Y0073950D01*
X0094288Y0074548D02*
X0090310Y0074548D01*
X0090576Y0075147D02*
X0094022Y0075147D01*
X0093775Y0075745D02*
X0090824Y0075745D01*
X0090887Y0076344D02*
X0093712Y0076344D01*
X0093712Y0076942D02*
X0090887Y0076942D01*
X0090797Y0077541D02*
X0093802Y0077541D01*
X0094050Y0078139D02*
X0090549Y0078139D01*
X0090245Y0078738D02*
X0094353Y0078738D01*
X0094952Y0079336D02*
X0089647Y0079336D01*
X0088647Y0079935D02*
X0095951Y0079935D01*
X0098647Y0079935D02*
X0099672Y0079935D01*
X0099647Y0079336D02*
X0099672Y0079336D01*
X0101059Y0081000D02*
X0131059Y0081000D01*
X0136059Y0076000D01*
X0138382Y0074740D01*
X0142769Y0074548D02*
X0246452Y0074548D01*
X0246204Y0073950D02*
X0142769Y0073950D01*
X0142769Y0073351D02*
X0246050Y0073351D01*
X0246050Y0073579D02*
X0246050Y0071688D01*
X0246774Y0069942D01*
X0248111Y0068605D01*
X0249858Y0067881D01*
X0251749Y0067881D01*
X0253495Y0068605D01*
X0254832Y0069942D01*
X0255556Y0071688D01*
X0255556Y0073579D01*
X0254832Y0075326D01*
X0253495Y0076663D01*
X0251749Y0077387D01*
X0249858Y0077387D01*
X0248111Y0076663D01*
X0246774Y0075326D01*
X0246050Y0073579D01*
X0246050Y0072753D02*
X0142599Y0072753D01*
X0142001Y0072154D02*
X0246050Y0072154D01*
X0246105Y0071556D02*
X0141402Y0071556D01*
X0140804Y0070957D02*
X0246353Y0070957D01*
X0246601Y0070359D02*
X0140205Y0070359D01*
X0137958Y0068563D02*
X0248211Y0068563D01*
X0247554Y0069162D02*
X0137360Y0069162D01*
X0136761Y0069760D02*
X0246956Y0069760D01*
X0249656Y0067965D02*
X0138557Y0067965D01*
X0139155Y0067366D02*
X0285910Y0067366D01*
X0285311Y0067965D02*
X0251950Y0067965D01*
X0253395Y0068563D02*
X0284713Y0068563D01*
X0284114Y0069162D02*
X0254052Y0069162D01*
X0254651Y0069760D02*
X0283516Y0069760D01*
X0283483Y0070359D02*
X0255005Y0070359D01*
X0255253Y0070957D02*
X0283483Y0070957D01*
X0283483Y0071556D02*
X0255501Y0071556D01*
X0255556Y0072154D02*
X0283483Y0072154D01*
X0283483Y0072753D02*
X0255556Y0072753D01*
X0255556Y0073351D02*
X0283483Y0073351D01*
X0284005Y0073950D02*
X0255402Y0073950D01*
X0255155Y0074548D02*
X0284603Y0074548D01*
X0285202Y0075147D02*
X0254907Y0075147D01*
X0254413Y0075745D02*
X0285800Y0075745D01*
X0289940Y0075745D02*
X0393697Y0075745D01*
X0393697Y0075147D02*
X0337625Y0075147D01*
X0338223Y0074548D02*
X0393697Y0074548D01*
X0393697Y0073950D02*
X0338822Y0073950D01*
X0339420Y0073351D02*
X0393697Y0073351D01*
X0393697Y0072753D02*
X0339974Y0072753D01*
X0339974Y0072154D02*
X0393697Y0072154D01*
X0393697Y0071556D02*
X0339974Y0071556D01*
X0339974Y0070957D02*
X0393697Y0070957D01*
X0393697Y0070359D02*
X0339974Y0070359D01*
X0339974Y0069760D02*
X0393697Y0069760D01*
X0393697Y0069162D02*
X0339973Y0069162D01*
X0339374Y0068563D02*
X0393697Y0068563D01*
X0393697Y0067965D02*
X0338776Y0067965D01*
X0338177Y0067366D02*
X0393697Y0067366D01*
X0393697Y0066768D02*
X0337579Y0066768D01*
X0335887Y0065570D02*
X0335287Y0065570D01*
X0335287Y0064972D02*
X0335887Y0064972D01*
X0335887Y0064373D02*
X0335287Y0064373D01*
X0335287Y0063775D02*
X0335887Y0063775D01*
X0335887Y0063176D02*
X0335287Y0063176D01*
X0335287Y0062578D02*
X0335887Y0062578D01*
X0335887Y0061979D02*
X0335287Y0061979D01*
X0335287Y0061381D02*
X0335887Y0061381D01*
X0332474Y0064373D02*
X0325260Y0064373D01*
X0325246Y0063775D02*
X0331876Y0063775D01*
X0331277Y0063176D02*
X0325845Y0063176D01*
X0326443Y0062578D02*
X0330987Y0062578D01*
X0330987Y0061979D02*
X0327042Y0061979D01*
X0327640Y0061381D02*
X0330987Y0061381D01*
X0333073Y0064972D02*
X0325508Y0064972D01*
X0323559Y0066000D02*
X0323559Y0063500D01*
X0341059Y0046000D01*
X0341059Y0043500D01*
X0361059Y0023500D01*
X0361276Y0021945D01*
X0364422Y0018887D02*
X0366003Y0018887D01*
X0365420Y0019485D02*
X0365006Y0019485D01*
X0363824Y0018288D02*
X0366602Y0018288D01*
X0367958Y0017690D02*
X0362467Y0017690D01*
X0360084Y0017690D02*
X0354593Y0017690D01*
X0355950Y0018288D02*
X0358728Y0018288D01*
X0358129Y0018887D02*
X0356548Y0018887D01*
X0357132Y0019485D02*
X0357546Y0019485D01*
X0352210Y0017690D02*
X0342369Y0017690D01*
X0343725Y0018288D02*
X0350854Y0018288D01*
X0350255Y0018887D02*
X0344324Y0018887D01*
X0344907Y0019485D02*
X0349672Y0019485D01*
X0349424Y0020084D02*
X0345155Y0020084D01*
X0345403Y0020682D02*
X0349176Y0020682D01*
X0349014Y0021281D02*
X0345565Y0021281D01*
X0345565Y0021879D02*
X0349014Y0021879D01*
X0349014Y0022478D02*
X0345565Y0022478D01*
X0345457Y0023076D02*
X0349121Y0023076D01*
X0349369Y0023675D02*
X0345210Y0023675D01*
X0344962Y0024273D02*
X0349617Y0024273D01*
X0350124Y0024872D02*
X0344455Y0024872D01*
X0343857Y0025470D02*
X0350722Y0025470D01*
X0351893Y0026069D02*
X0342686Y0026069D01*
X0339668Y0026069D02*
X0334812Y0026069D01*
X0335983Y0025470D02*
X0338498Y0025470D01*
X0337899Y0024872D02*
X0336581Y0024872D01*
X0337088Y0024273D02*
X0337393Y0024273D01*
X0337447Y0019485D02*
X0337033Y0019485D01*
X0336450Y0018887D02*
X0338031Y0018887D01*
X0338629Y0018288D02*
X0335851Y0018288D01*
X0334495Y0017690D02*
X0339986Y0017690D01*
X0323648Y0017690D02*
X0318747Y0017690D01*
X0320103Y0018288D02*
X0322636Y0018288D01*
X0321982Y0018887D02*
X0320702Y0018887D01*
X0321285Y0019485D02*
X0321530Y0019485D01*
X0316363Y0017690D02*
X0310873Y0017690D01*
X0312229Y0018288D02*
X0315007Y0018288D01*
X0314409Y0018887D02*
X0312828Y0018887D01*
X0313411Y0019485D02*
X0313825Y0019485D01*
X0308489Y0017690D02*
X0290363Y0017690D01*
X0290962Y0018288D02*
X0307133Y0018288D01*
X0306535Y0018887D02*
X0291157Y0018887D01*
X0291157Y0019485D02*
X0305951Y0019485D01*
X0306403Y0024872D02*
X0187236Y0024872D01*
X0186570Y0025470D02*
X0307002Y0025470D01*
X0308172Y0026069D02*
X0185125Y0026069D01*
X0182859Y0026069D02*
X0149946Y0026069D01*
X0149946Y0025470D02*
X0181414Y0025470D01*
X0180749Y0024872D02*
X0149946Y0024872D01*
X0149946Y0024273D02*
X0180150Y0024273D01*
X0179793Y0023675D02*
X0149946Y0023675D01*
X0149946Y0023076D02*
X0179545Y0023076D01*
X0179297Y0022478D02*
X0149499Y0022478D01*
X0148900Y0021879D02*
X0179239Y0021879D01*
X0179239Y0021281D02*
X0148426Y0021281D01*
X0148426Y0020682D02*
X0179239Y0020682D01*
X0179390Y0020084D02*
X0148273Y0020084D01*
X0148025Y0019485D02*
X0179638Y0019485D01*
X0179886Y0018887D02*
X0147777Y0018887D01*
X0147258Y0018288D02*
X0180376Y0018288D01*
X0180975Y0017690D02*
X0146660Y0017690D01*
X0145556Y0017091D02*
X0181960Y0017091D01*
X0186024Y0017091D02*
X0285149Y0017091D01*
X0284550Y0017690D02*
X0187009Y0017690D01*
X0187608Y0018288D02*
X0283952Y0018288D01*
X0283757Y0018887D02*
X0188098Y0018887D01*
X0188346Y0019485D02*
X0283757Y0019485D01*
X0289765Y0017091D02*
X0393347Y0017091D01*
X0393595Y0017690D02*
X0386089Y0017690D01*
X0387446Y0018288D02*
X0393697Y0018288D01*
X0393697Y0018887D02*
X0388044Y0018887D01*
X0388628Y0019485D02*
X0393697Y0019485D01*
X0393697Y0020084D02*
X0388876Y0020084D01*
X0389123Y0020682D02*
X0393697Y0020682D01*
X0393697Y0021281D02*
X0389285Y0021281D01*
X0389285Y0021879D02*
X0393697Y0021879D01*
X0393697Y0022478D02*
X0389285Y0022478D01*
X0389178Y0023076D02*
X0393697Y0023076D01*
X0393697Y0023675D02*
X0388930Y0023675D01*
X0388682Y0024273D02*
X0393697Y0024273D01*
X0393697Y0024872D02*
X0388176Y0024872D01*
X0387577Y0025470D02*
X0393697Y0025470D01*
X0393697Y0026069D02*
X0386407Y0026069D01*
X0383389Y0026069D02*
X0378533Y0026069D01*
X0379703Y0025470D02*
X0382218Y0025470D01*
X0381620Y0024872D02*
X0380302Y0024872D01*
X0380808Y0024273D02*
X0381113Y0024273D01*
X0375515Y0026069D02*
X0370659Y0026069D01*
X0369854Y0026667D02*
X0393697Y0026667D01*
X0393697Y0027266D02*
X0369255Y0027266D01*
X0368657Y0027864D02*
X0393697Y0027864D01*
X0393697Y0028463D02*
X0368058Y0028463D01*
X0367460Y0029061D02*
X0393697Y0029061D01*
X0393697Y0029660D02*
X0366861Y0029660D01*
X0366263Y0030258D02*
X0393697Y0030258D01*
X0393697Y0030857D02*
X0365664Y0030857D01*
X0365066Y0031455D02*
X0393697Y0031455D01*
X0393697Y0032054D02*
X0364467Y0032054D01*
X0363869Y0032652D02*
X0393697Y0032652D01*
X0393697Y0033251D02*
X0363270Y0033251D01*
X0362672Y0033849D02*
X0393697Y0033849D01*
X0393697Y0034448D02*
X0362073Y0034448D01*
X0361475Y0035046D02*
X0393697Y0035046D01*
X0393697Y0035645D02*
X0360876Y0035645D01*
X0360278Y0036243D02*
X0393697Y0036243D01*
X0393697Y0036842D02*
X0359679Y0036842D01*
X0359081Y0037440D02*
X0393697Y0037440D01*
X0393697Y0038039D02*
X0358482Y0038039D01*
X0357884Y0038637D02*
X0393697Y0038637D01*
X0393697Y0039236D02*
X0357285Y0039236D01*
X0356687Y0039834D02*
X0393697Y0039834D01*
X0393697Y0040433D02*
X0356088Y0040433D01*
X0355490Y0041032D02*
X0393697Y0041032D01*
X0393697Y0041630D02*
X0354891Y0041630D01*
X0354293Y0042229D02*
X0393697Y0042229D01*
X0393697Y0042827D02*
X0353694Y0042827D01*
X0353096Y0043426D02*
X0393697Y0043426D01*
X0393697Y0044024D02*
X0352497Y0044024D01*
X0351899Y0044623D02*
X0393697Y0044623D01*
X0393697Y0045221D02*
X0351300Y0045221D01*
X0350702Y0045820D02*
X0393697Y0045820D01*
X0393697Y0046418D02*
X0350103Y0046418D01*
X0349504Y0047017D02*
X0393697Y0047017D01*
X0393697Y0047615D02*
X0348906Y0047615D01*
X0348307Y0048214D02*
X0393697Y0048214D01*
X0393697Y0048812D02*
X0347709Y0048812D01*
X0347110Y0049411D02*
X0393697Y0049411D01*
X0393697Y0050009D02*
X0346512Y0050009D01*
X0345913Y0050608D02*
X0393697Y0050608D01*
X0393697Y0051206D02*
X0345315Y0051206D01*
X0344716Y0051805D02*
X0393697Y0051805D01*
X0393697Y0052403D02*
X0344118Y0052403D01*
X0343519Y0053002D02*
X0393697Y0053002D01*
X0393697Y0053600D02*
X0343496Y0053600D01*
X0343408Y0054199D02*
X0393697Y0054199D01*
X0393697Y0054797D02*
X0343160Y0054797D01*
X0342610Y0055396D02*
X0393697Y0055396D01*
X0393697Y0055994D02*
X0390687Y0055994D01*
X0391212Y0056212D02*
X0392383Y0057382D01*
X0393017Y0058912D01*
X0393017Y0060568D01*
X0392383Y0062098D01*
X0391212Y0063269D01*
X0389682Y0063902D01*
X0388026Y0063902D01*
X0386497Y0063269D01*
X0385326Y0062098D01*
X0384692Y0060568D01*
X0384692Y0058912D01*
X0385326Y0057382D01*
X0386497Y0056212D01*
X0388026Y0055578D01*
X0389682Y0055578D01*
X0391212Y0056212D01*
X0391593Y0056593D02*
X0393697Y0056593D01*
X0393697Y0057191D02*
X0392192Y0057191D01*
X0392552Y0057790D02*
X0393697Y0057790D01*
X0393697Y0058388D02*
X0392800Y0058388D01*
X0393017Y0058987D02*
X0393697Y0058987D01*
X0393697Y0059585D02*
X0393017Y0059585D01*
X0393017Y0060184D02*
X0393697Y0060184D01*
X0393697Y0060782D02*
X0392928Y0060782D01*
X0392680Y0061381D02*
X0393697Y0061381D01*
X0393697Y0061979D02*
X0392432Y0061979D01*
X0391903Y0062578D02*
X0393697Y0062578D01*
X0393697Y0063176D02*
X0391304Y0063176D01*
X0389990Y0063775D02*
X0393697Y0063775D01*
X0387719Y0063775D02*
X0362431Y0063775D01*
X0363745Y0063176D02*
X0386404Y0063176D01*
X0385806Y0062578D02*
X0364344Y0062578D01*
X0364873Y0061979D02*
X0385277Y0061979D01*
X0385029Y0061381D02*
X0365121Y0061381D01*
X0365369Y0060782D02*
X0384781Y0060782D01*
X0384692Y0060184D02*
X0365457Y0060184D01*
X0365457Y0059585D02*
X0384692Y0059585D01*
X0384692Y0058987D02*
X0365457Y0058987D01*
X0365240Y0058388D02*
X0384909Y0058388D01*
X0385157Y0057790D02*
X0364993Y0057790D01*
X0364633Y0057191D02*
X0385517Y0057191D01*
X0386115Y0056593D02*
X0364034Y0056593D01*
X0363128Y0055994D02*
X0387021Y0055994D01*
X0393697Y0076344D02*
X0253815Y0076344D01*
X0252821Y0076942D02*
X0393697Y0076942D01*
X0393697Y0077541D02*
X0141786Y0077541D01*
X0141188Y0078139D02*
X0393697Y0078139D01*
X0393697Y0078738D02*
X0140589Y0078738D01*
X0142385Y0076942D02*
X0248785Y0076942D01*
X0247792Y0076344D02*
X0142769Y0076344D01*
X0142769Y0075745D02*
X0247193Y0075745D01*
X0246700Y0075147D02*
X0142769Y0075147D01*
X0136175Y0078738D02*
X0135283Y0078738D01*
X0134685Y0079336D02*
X0393697Y0079336D01*
X0393583Y0079935D02*
X0134086Y0079935D01*
X0134367Y0072154D02*
X0134763Y0072154D01*
X0134966Y0071556D02*
X0135362Y0071556D01*
X0135564Y0070957D02*
X0135960Y0070957D01*
X0136163Y0070359D02*
X0136559Y0070359D01*
X0139754Y0066768D02*
X0298615Y0066768D01*
X0298615Y0067366D02*
X0289831Y0067366D01*
X0290429Y0067965D02*
X0298615Y0067965D01*
X0288559Y0061000D02*
X0287870Y0061610D01*
X0288559Y0061000D02*
X0288559Y0053500D01*
X0296059Y0061000D01*
X0296008Y0058987D02*
X0296110Y0058987D01*
X0296709Y0058388D02*
X0295409Y0058388D01*
X0294811Y0057790D02*
X0297307Y0057790D01*
X0297906Y0057191D02*
X0294212Y0057191D01*
X0293614Y0056593D02*
X0298504Y0056593D01*
X0299103Y0055994D02*
X0293015Y0055994D01*
X0292417Y0055396D02*
X0299701Y0055396D01*
X0288559Y0053500D02*
X0288559Y0051000D01*
X0287693Y0049366D01*
X0284206Y0048812D02*
X0281039Y0048812D01*
X0281287Y0048214D02*
X0284206Y0048214D01*
X0284512Y0047615D02*
X0281325Y0047615D01*
X0280635Y0044024D02*
X0286073Y0044024D01*
X0286671Y0043426D02*
X0280377Y0043426D01*
X0279778Y0042827D02*
X0286222Y0042827D01*
X0285623Y0042229D02*
X0279180Y0042229D01*
X0278449Y0041630D02*
X0285025Y0041630D01*
X0284426Y0041032D02*
X0277004Y0041032D01*
X0273421Y0041032D02*
X0158112Y0041032D01*
X0156667Y0040433D02*
X0284206Y0040433D01*
X0290699Y0037440D02*
X0292172Y0037440D01*
X0292172Y0036842D02*
X0290101Y0036842D01*
X0289502Y0036243D02*
X0292172Y0036243D01*
X0292058Y0038039D02*
X0291180Y0038039D01*
X0291180Y0038637D02*
X0291459Y0038637D01*
X0293588Y0040433D02*
X0299117Y0040433D01*
X0299715Y0039834D02*
X0294187Y0039834D01*
X0292990Y0041032D02*
X0298518Y0041032D01*
X0297920Y0041630D02*
X0292391Y0041630D01*
X0291793Y0042229D02*
X0297463Y0042229D01*
X0297463Y0042827D02*
X0291194Y0042827D01*
X0290596Y0043426D02*
X0297463Y0043426D01*
X0321059Y0048500D02*
X0323559Y0046000D01*
X0323559Y0043500D01*
X0324957Y0043480D01*
X0328822Y0045820D02*
X0330791Y0045820D01*
X0330357Y0045221D02*
X0329344Y0045221D01*
X0329344Y0044623D02*
X0330357Y0044623D01*
X0331389Y0046418D02*
X0328224Y0046418D01*
X0327625Y0047017D02*
X0331988Y0047017D01*
X0332586Y0047615D02*
X0327027Y0047615D01*
X0323307Y0048214D02*
X0336883Y0048214D01*
X0337327Y0047615D02*
X0337482Y0047615D01*
X0337926Y0047017D02*
X0338080Y0047017D01*
X0338524Y0046418D02*
X0338679Y0046418D01*
X0339123Y0045820D02*
X0339277Y0045820D01*
X0339557Y0045221D02*
X0339672Y0045221D01*
X0339672Y0044623D02*
X0339557Y0044623D01*
X0339557Y0044024D02*
X0339672Y0044024D01*
X0338413Y0050608D02*
X0341989Y0050608D01*
X0341059Y0053500D02*
X0368559Y0026000D01*
X0368559Y0023500D01*
X0369150Y0021945D01*
X0372296Y0018887D02*
X0373877Y0018887D01*
X0373294Y0019485D02*
X0372880Y0019485D01*
X0371698Y0018288D02*
X0374476Y0018288D01*
X0375832Y0017690D02*
X0370341Y0017690D01*
X0378215Y0017690D02*
X0383706Y0017690D01*
X0382350Y0018288D02*
X0379572Y0018288D01*
X0380170Y0018887D02*
X0381751Y0018887D01*
X0381168Y0019485D02*
X0380754Y0019485D01*
X0390950Y0015296D02*
X0210541Y0015296D01*
X0156588Y0015894D02*
X0392232Y0015894D01*
X0392831Y0016493D02*
X0289166Y0016493D01*
X0287757Y0023675D02*
X0287157Y0023675D01*
X0311190Y0026069D02*
X0316046Y0026069D01*
X0314876Y0025470D02*
X0312360Y0025470D01*
X0312959Y0024872D02*
X0314277Y0024872D01*
X0313771Y0024273D02*
X0313466Y0024273D01*
X0319064Y0026069D02*
X0323390Y0026069D01*
X0322455Y0025470D02*
X0320234Y0025470D01*
X0320833Y0024872D02*
X0321870Y0024872D01*
X0321453Y0024273D02*
X0321340Y0024273D01*
X0357186Y0024273D02*
X0357491Y0024273D01*
X0362785Y0026069D02*
X0366528Y0026069D01*
X0366470Y0025470D02*
X0363955Y0025470D01*
X0364553Y0024872D02*
X0365872Y0024872D01*
X0365365Y0024273D02*
X0365060Y0024273D01*
X0371829Y0025470D02*
X0374344Y0025470D01*
X0373746Y0024872D02*
X0372427Y0024872D01*
X0372934Y0024273D02*
X0373239Y0024273D01*
X0321059Y0048500D02*
X0321059Y0058500D01*
X0313559Y0066000D01*
X0312102Y0068264D01*
X0314347Y0063176D02*
X0314421Y0063176D01*
X0315019Y0062578D02*
X0313283Y0062578D01*
X0322102Y0068264D02*
X0323559Y0066000D01*
X0333625Y0055396D02*
X0339508Y0055396D01*
X0147172Y0030258D02*
X0145154Y0030258D01*
X0146262Y0029660D02*
X0147172Y0029660D01*
X0147172Y0029061D02*
X0146861Y0029061D01*
X0139240Y0022478D02*
X0135698Y0022478D01*
X0139165Y0021879D02*
X0128426Y0021879D01*
X0128426Y0021281D02*
X0139165Y0021281D01*
X0139165Y0020682D02*
X0128426Y0020682D01*
X0128273Y0020084D02*
X0139318Y0020084D01*
X0139565Y0019485D02*
X0128025Y0019485D01*
X0127777Y0018887D02*
X0139813Y0018887D01*
X0140332Y0018288D02*
X0127258Y0018288D01*
X0126660Y0017690D02*
X0140931Y0017690D01*
X0142035Y0017091D02*
X0125556Y0017091D01*
X0123795Y0021374D02*
X0126059Y0023500D01*
X0128559Y0026000D01*
X0128559Y0028500D01*
X0133559Y0033500D01*
X0133795Y0031374D01*
X0133559Y0033500D02*
X0133559Y0048500D01*
X0128559Y0053500D01*
X0128559Y0052161D01*
X0132550Y0053600D02*
X0134322Y0053600D01*
X0134322Y0053002D02*
X0132796Y0053002D01*
X0132796Y0052403D02*
X0134322Y0052403D01*
X0134322Y0051805D02*
X0132796Y0051805D01*
X0132815Y0051206D02*
X0134322Y0051206D01*
X0134322Y0050608D02*
X0133413Y0050608D01*
X0134012Y0050009D02*
X0134719Y0050009D01*
X0134610Y0049411D02*
X0135317Y0049411D01*
X0134946Y0048812D02*
X0135916Y0048812D01*
X0136514Y0048214D02*
X0134946Y0048214D01*
X0131883Y0048214D02*
X0130101Y0048214D01*
X0131202Y0048812D02*
X0131285Y0048812D01*
X0132302Y0054199D02*
X0134604Y0054199D01*
X0135202Y0054797D02*
X0131916Y0054797D01*
X0131317Y0055396D02*
X0135801Y0055396D01*
X0136399Y0055994D02*
X0130378Y0055994D01*
X0140719Y0055994D02*
X0142172Y0055994D01*
X0142172Y0055396D02*
X0141317Y0055396D01*
X0141916Y0054797D02*
X0142172Y0054797D01*
X0112172Y0041630D02*
X0093651Y0041630D01*
X0093053Y0041032D02*
X0112172Y0041032D01*
X0112172Y0040433D02*
X0092454Y0040433D01*
X0091856Y0039834D02*
X0112172Y0039834D01*
X0113559Y0038500D02*
X0108559Y0033500D01*
X0108106Y0033500D01*
X0103719Y0033251D02*
X0097402Y0033251D01*
X0097402Y0033849D02*
X0096802Y0033849D01*
X0096802Y0034448D02*
X0097402Y0034448D01*
X0097402Y0035046D02*
X0096802Y0035046D01*
X0096802Y0035645D02*
X0097402Y0035645D01*
X0097402Y0036243D02*
X0096802Y0036243D01*
X0096802Y0036842D02*
X0097402Y0036842D01*
X0097402Y0037440D02*
X0096802Y0037440D01*
X0096802Y0038039D02*
X0097402Y0038039D01*
X0099049Y0038039D02*
X0111136Y0038039D01*
X0110537Y0037440D02*
X0110371Y0037440D01*
X0113559Y0038500D02*
X0113559Y0071000D01*
X0108559Y0076000D01*
X0107299Y0076610D01*
X0085951Y0079935D02*
X0078647Y0079935D01*
X0078013Y0080198D02*
X0076586Y0080198D01*
X0075267Y0079651D01*
X0074258Y0078642D01*
X0073712Y0077324D01*
X0073712Y0075897D01*
X0074258Y0074578D01*
X0075267Y0073569D01*
X0076586Y0073023D01*
X0078013Y0073023D01*
X0079331Y0073569D01*
X0080340Y0074578D01*
X0080887Y0075897D01*
X0080887Y0077324D01*
X0080340Y0078642D01*
X0079331Y0079651D01*
X0078013Y0080198D01*
X0079647Y0079336D02*
X0084952Y0079336D01*
X0084353Y0078738D02*
X0080245Y0078738D01*
X0080549Y0078139D02*
X0084050Y0078139D01*
X0083802Y0077541D02*
X0080797Y0077541D01*
X0080887Y0076942D02*
X0083712Y0076942D01*
X0083712Y0076344D02*
X0080887Y0076344D01*
X0080824Y0075745D02*
X0083775Y0075745D01*
X0084022Y0075147D02*
X0080576Y0075147D01*
X0080310Y0074548D02*
X0084288Y0074548D01*
X0084886Y0073950D02*
X0079712Y0073950D01*
X0078805Y0073351D02*
X0085793Y0073351D01*
X0075793Y0073351D02*
X0017496Y0073351D01*
X0017496Y0073950D02*
X0074886Y0073950D01*
X0074288Y0074548D02*
X0017496Y0074548D01*
X0017496Y0075147D02*
X0074022Y0075147D01*
X0073775Y0075745D02*
X0017496Y0075745D01*
X0017496Y0076344D02*
X0073712Y0076344D01*
X0073712Y0076942D02*
X0017496Y0076942D01*
X0017496Y0077541D02*
X0073802Y0077541D01*
X0074050Y0078139D02*
X0017496Y0078139D01*
X0017496Y0078738D02*
X0074353Y0078738D01*
X0074952Y0079336D02*
X0017496Y0079336D01*
X0017496Y0079935D02*
X0075951Y0079935D01*
X0046283Y0064373D02*
X0021622Y0064373D01*
X0022753Y0063775D02*
X0045152Y0063775D01*
X0044554Y0063176D02*
X0023352Y0063176D01*
X0023805Y0062578D02*
X0044101Y0062578D01*
X0043853Y0061979D02*
X0024053Y0061979D01*
X0024300Y0061381D02*
X0043605Y0061381D01*
X0043570Y0060782D02*
X0024335Y0060782D01*
X0024335Y0060184D02*
X0043570Y0060184D01*
X0043593Y0059585D02*
X0024313Y0059585D01*
X0024065Y0058987D02*
X0043841Y0058987D01*
X0044089Y0058388D02*
X0023817Y0058388D01*
X0023381Y0057790D02*
X0044525Y0057790D01*
X0045123Y0057191D02*
X0022782Y0057191D01*
X0021693Y0056593D02*
X0046213Y0056593D01*
X0018654Y0056593D02*
X0017496Y0056593D01*
X0017496Y0057191D02*
X0017564Y0057191D01*
X0017496Y0050009D02*
X0076131Y0050009D01*
X0075026Y0049411D02*
X0017496Y0049411D01*
X0017496Y0048812D02*
X0074428Y0048812D01*
X0074080Y0048214D02*
X0017496Y0048214D01*
X0017496Y0047615D02*
X0073832Y0047615D01*
X0073712Y0047017D02*
X0017496Y0047017D01*
X0017496Y0046418D02*
X0073712Y0046418D01*
X0073744Y0045820D02*
X0017496Y0045820D01*
X0017496Y0045221D02*
X0073992Y0045221D01*
X0074240Y0044623D02*
X0017496Y0044623D01*
X0017496Y0044024D02*
X0074812Y0044024D01*
X0075613Y0043426D02*
X0017496Y0043426D01*
X0036059Y0036000D02*
X0036059Y0033500D01*
X0034957Y0033382D01*
X0036059Y0036000D02*
X0038559Y0038500D01*
X0038559Y0041000D01*
X0091059Y0041000D01*
X0096059Y0046000D01*
X0097299Y0046610D01*
X0100607Y0045221D02*
X0103762Y0045221D01*
X0103582Y0045820D02*
X0100855Y0045820D01*
X0100359Y0044623D02*
X0104057Y0044623D01*
X0104511Y0044024D02*
X0099786Y0044024D01*
X0098985Y0043426D02*
X0105226Y0043426D01*
X0105842Y0037440D02*
X0099648Y0037440D01*
X0100246Y0036842D02*
X0105244Y0036842D01*
X0104645Y0036243D02*
X0100845Y0036243D01*
X0101443Y0035645D02*
X0104047Y0035645D01*
X0103719Y0035046D02*
X0101702Y0035046D01*
X0101702Y0034448D02*
X0103719Y0034448D01*
X0103719Y0033849D02*
X0101702Y0033849D01*
X0101702Y0032652D02*
X0103719Y0032652D01*
X0103719Y0032054D02*
X0101702Y0032054D01*
X0101583Y0031455D02*
X0103946Y0031455D01*
X0104545Y0030857D02*
X0100984Y0030857D01*
X0100386Y0030258D02*
X0105143Y0030258D01*
X0125146Y0030857D02*
X0128954Y0030857D01*
X0128355Y0030258D02*
X0126294Y0030258D01*
X0126892Y0029660D02*
X0127757Y0029660D01*
X0129393Y0024872D02*
X0129962Y0024872D01*
X0130209Y0024273D02*
X0128794Y0024273D01*
X0128196Y0023675D02*
X0130525Y0023675D01*
X0131124Y0023076D02*
X0128102Y0023076D01*
X0128350Y0022478D02*
X0131971Y0022478D01*
X0120332Y0018288D02*
X0022983Y0018288D01*
X0023916Y0018887D02*
X0119813Y0018887D01*
X0082361Y0033849D02*
X0070158Y0033849D01*
X0070158Y0033251D02*
X0069558Y0033251D01*
X0069558Y0033849D02*
X0058371Y0033849D01*
X0058969Y0034448D02*
X0065408Y0034448D01*
X0065408Y0035046D02*
X0059568Y0035046D01*
X0060166Y0035645D02*
X0065408Y0035645D01*
X0065974Y0036243D02*
X0060765Y0036243D01*
X0061363Y0036842D02*
X0066572Y0036842D01*
X0065408Y0033251D02*
X0057772Y0033251D01*
X0057173Y0032652D02*
X0065408Y0032652D01*
X0065408Y0032054D02*
X0056575Y0032054D01*
X0055976Y0031455D02*
X0065944Y0031455D01*
X0066543Y0030857D02*
X0055378Y0030857D01*
X0054779Y0030258D02*
X0067141Y0030258D01*
X0067740Y0029660D02*
X0054181Y0029660D01*
X0052385Y0027864D02*
X0068514Y0027864D01*
X0067297Y0027266D02*
X0051787Y0027266D01*
X0051188Y0026667D02*
X0066698Y0026667D01*
X0066197Y0026069D02*
X0051237Y0026069D01*
X0051454Y0030857D02*
X0050125Y0030857D01*
X0050723Y0031455D02*
X0052052Y0031455D01*
X0052651Y0032054D02*
X0051322Y0032054D01*
X0051905Y0032652D02*
X0053249Y0032652D01*
X0053848Y0033251D02*
X0051905Y0033251D01*
X0051905Y0033849D02*
X0054446Y0033849D01*
X0055045Y0034448D02*
X0048505Y0034448D01*
X0048505Y0035046D02*
X0047905Y0035046D01*
X0047905Y0035645D02*
X0048505Y0035645D01*
X0048505Y0036243D02*
X0047905Y0036243D01*
X0047905Y0036842D02*
X0048505Y0036842D01*
X0048505Y0037440D02*
X0047905Y0037440D01*
X0046243Y0037440D02*
X0039462Y0037440D01*
X0039946Y0038039D02*
X0058636Y0038039D01*
X0059234Y0038637D02*
X0039946Y0038637D01*
X0039946Y0039236D02*
X0059833Y0039236D01*
X0058037Y0037440D02*
X0050166Y0037440D01*
X0050765Y0036842D02*
X0057439Y0036842D01*
X0056840Y0036243D02*
X0051363Y0036243D01*
X0051905Y0035645D02*
X0056242Y0035645D01*
X0055643Y0035046D02*
X0051905Y0035046D01*
X0045645Y0036842D02*
X0038863Y0036842D01*
X0038300Y0036243D02*
X0045046Y0036243D01*
X0044505Y0035645D02*
X0038898Y0035645D01*
X0032636Y0027266D02*
X0022049Y0027266D01*
X0023493Y0026667D02*
X0032037Y0026667D01*
X0031439Y0026069D02*
X0024128Y0026069D01*
X0024726Y0025470D02*
X0030840Y0025470D01*
X0030569Y0024872D02*
X0025077Y0024872D01*
X0025324Y0024273D02*
X0030569Y0024273D01*
X0030569Y0023675D02*
X0025572Y0023675D01*
X0025630Y0023076D02*
X0030569Y0023076D01*
X0030569Y0022478D02*
X0025630Y0022478D01*
X0025630Y0021879D02*
X0030569Y0021879D01*
X0030853Y0021281D02*
X0025485Y0021281D01*
X0025237Y0020682D02*
X0031452Y0020682D01*
X0032050Y0020084D02*
X0024989Y0020084D01*
X0024515Y0019485D02*
X0032649Y0019485D01*
X0069558Y0029660D02*
X0070158Y0029660D01*
X0070158Y0030258D02*
X0069558Y0030258D01*
X0069558Y0030857D02*
X0070158Y0030857D01*
X0070158Y0031455D02*
X0069558Y0031455D01*
X0069558Y0032054D02*
X0070158Y0032054D01*
X0070158Y0032652D02*
X0069558Y0032652D01*
X0095447Y0043426D02*
X0095613Y0043426D01*
X0018724Y0064373D02*
X0017496Y0064373D01*
X0017496Y0063775D02*
X0017593Y0063775D01*
D21*
X0341059Y0053500D03*
D22*
X0143736Y0026472D03*
X0133835Y0026079D03*
X0123795Y0027043D03*
M02*
