G75*
%MOIN*%
%OFA0B0*%
%FSLAX25Y25*%
%IPPOS*%
%LPD*%
%AMOC8*
5,1,8,0,0,1.08239X$1,22.5*
%
%ADD10R,0.04331X0.03937*%
%ADD11R,0.03937X0.04331*%
%ADD12R,0.02362X0.08661*%
%ADD13R,0.05512X0.04331*%
%ADD14R,0.06299X0.07087*%
%ADD15R,0.03937X0.05512*%
%ADD16R,0.07087X0.06299*%
%ADD17R,0.06000X0.12500*%
D10*
X0085227Y0049135D03*
X0085227Y0055828D03*
X0128534Y0072757D03*
X0128534Y0079450D03*
X0167904Y0044017D03*
X0167904Y0037324D03*
X0242707Y0076694D03*
X0242707Y0083387D03*
X0289951Y0088505D03*
X0289951Y0095198D03*
X0337195Y0104253D03*
X0337195Y0110946D03*
X0140345Y0194804D03*
X0140345Y0201497D03*
X0140345Y0222363D03*
X0140345Y0229056D03*
X0085227Y0181812D03*
X0085227Y0175119D03*
D11*
X0057077Y0111536D03*
X0050384Y0111536D03*
X0199990Y0107599D03*
X0206683Y0107599D03*
X0259045Y0135158D03*
X0265738Y0135158D03*
X0314164Y0229646D03*
X0320857Y0229646D03*
D12*
X0160030Y0150800D03*
X0155030Y0150800D03*
X0150030Y0150800D03*
X0145030Y0150800D03*
X0145030Y0130328D03*
X0150030Y0130328D03*
X0155030Y0130328D03*
X0160030Y0130328D03*
D13*
X0258455Y0213898D03*
X0258455Y0221772D03*
X0057668Y0217835D03*
X0057668Y0225709D03*
D14*
X0193888Y0154843D03*
X0204912Y0154843D03*
X0173416Y0107599D03*
X0162392Y0107599D03*
D15*
X0124597Y0111430D03*
X0117116Y0111430D03*
X0120857Y0120091D03*
X0089164Y0107993D03*
X0092904Y0099331D03*
X0085423Y0099331D03*
X0294282Y0127572D03*
X0301762Y0127572D03*
X0298022Y0136233D03*
D16*
X0199400Y0212324D03*
X0199400Y0223347D03*
X0116723Y0046182D03*
X0116723Y0035158D03*
D17*
X0341337Y0077168D03*
X0377904Y0077168D03*
X0388826Y0077168D03*
X0370093Y0045558D03*
X0370093Y0140046D03*
X0377904Y0171656D03*
X0388826Y0171656D03*
X0341337Y0171656D03*
M02*
