G75*
%MOIN*%
%OFA0B0*%
%FSLAX25Y25*%
%IPPOS*%
%LPD*%
%AMOC8*
5,1,8,0,0,1.08239X$1,22.5*
%
%ADD10C,0.10643*%
%ADD11OC8,0.06000*%
%ADD12C,0.06400*%
%ADD13R,0.05524X0.06312*%
%ADD14C,0.04343*%
%ADD15R,0.05162X0.05162*%
%ADD16C,0.08200*%
%ADD17C,0.04146*%
%ADD18R,0.09461X0.10643*%
%ADD19R,0.11824X0.10643*%
%ADD20R,0.10643X0.11824*%
%ADD21C,0.07493*%
%ADD22R,0.06800X0.13300*%
%ADD23C,0.07800*%
D10*
X0113164Y0052768D03*
X0302140Y0052768D03*
D11*
X0321825Y0057768D03*
X0321825Y0047768D03*
X0322620Y0034335D03*
X0322620Y0024335D03*
D12*
X0163589Y0078835D03*
X0155715Y0078835D03*
D13*
X0103321Y0071980D03*
X0093282Y0072098D03*
X0083636Y0071980D03*
X0042298Y0071980D03*
X0052140Y0089303D03*
X0032455Y0089303D03*
X0083597Y0089303D03*
X0093479Y0089303D03*
X0103833Y0089303D03*
X0311983Y0089303D03*
X0331668Y0089303D03*
X0321825Y0071980D03*
D14*
X0308439Y0080642D03*
X0335211Y0080642D03*
X0106865Y0080642D03*
X0080093Y0080642D03*
X0055683Y0080642D03*
X0028912Y0080642D03*
D15*
X0187967Y0089114D03*
X0227337Y0089114D03*
X0223400Y0049744D03*
X0207652Y0049744D03*
X0191904Y0049744D03*
D16*
X0299128Y0034944D03*
X0299128Y0023544D03*
D17*
X0215132Y0030008D03*
X0200172Y0030008D03*
D18*
X0028172Y0037610D03*
X0020691Y0067925D03*
D19*
X0057306Y0067925D03*
D20*
X0073644Y0049815D03*
D21*
X0052581Y0052768D03*
X0025022Y0052768D03*
D22*
X0355018Y0056148D03*
X0383774Y0049758D03*
X0391585Y0056148D03*
X0402507Y0056148D03*
X0383774Y0087758D03*
X0391585Y0018148D03*
X0402507Y0018148D03*
X0355018Y0018148D03*
D23*
X0360325Y0034370D03*
X0387884Y0034370D03*
X0387884Y0072370D03*
X0360325Y0072370D03*
M02*
