G75*
%MOIN*%
%OFA0B0*%
%FSLAX25Y25*%
%IPPOS*%
%LPD*%
%AMOC8*
5,1,8,0,0,1.08239X$1,22.5*
%
%ADD10C,0.00400*%
%ADD11C,0.00600*%
%ADD12C,0.01000*%
%ADD13C,0.00800*%
%ADD14C,0.02559*%
%ADD15C,0.01200*%
%ADD16C,0.00787*%
%ADD17C,0.00500*%
D10*
X0038194Y0015035D02*
X0039295Y0015035D01*
X0039662Y0015402D01*
X0039662Y0015769D01*
X0039295Y0016136D01*
X0038194Y0016136D01*
X0038194Y0015035D02*
X0038194Y0017237D01*
X0039295Y0017237D01*
X0039662Y0016870D01*
X0039662Y0016503D01*
X0039295Y0016136D01*
X0040589Y0016136D02*
X0042056Y0016136D01*
X0042056Y0016503D02*
X0042056Y0015035D01*
X0040589Y0015035D02*
X0040589Y0016503D01*
X0041322Y0017237D01*
X0042056Y0016503D01*
X0042983Y0017237D02*
X0044450Y0017237D01*
X0043717Y0017237D02*
X0043717Y0015035D01*
X0045377Y0015402D02*
X0045744Y0015035D01*
X0046478Y0015035D01*
X0046845Y0015402D01*
X0046845Y0016136D01*
X0046478Y0016503D01*
X0046111Y0016503D01*
X0045377Y0016136D01*
X0045377Y0017237D01*
X0046845Y0017237D01*
X0047771Y0016136D02*
X0048872Y0017237D01*
X0048872Y0015035D01*
X0049239Y0016136D02*
X0047771Y0016136D01*
X0050165Y0016503D02*
X0050532Y0016136D01*
X0051266Y0016136D01*
X0051633Y0015769D01*
X0051633Y0015402D01*
X0051266Y0015035D01*
X0050532Y0015035D01*
X0050165Y0015402D01*
X0050165Y0016503D02*
X0050165Y0016870D01*
X0050532Y0017237D01*
X0051266Y0017237D01*
X0051633Y0016870D01*
X0057193Y0016462D02*
X0057927Y0017196D01*
X0057927Y0014994D01*
X0057193Y0014994D02*
X0058661Y0014994D01*
X0059587Y0015361D02*
X0061055Y0016829D01*
X0061055Y0015361D01*
X0060688Y0014994D01*
X0059954Y0014994D01*
X0059587Y0015361D01*
X0059587Y0016829D01*
X0059954Y0017196D01*
X0060688Y0017196D01*
X0061055Y0016829D01*
X0061982Y0017196D02*
X0061982Y0014994D01*
X0063449Y0014994D02*
X0063449Y0017196D01*
X0062716Y0016462D01*
X0061982Y0017196D01*
X0071317Y0016527D02*
X0072784Y0016527D01*
X0072050Y0016527D02*
X0072050Y0018729D01*
X0071317Y0017995D01*
X0073711Y0018362D02*
X0073711Y0016894D01*
X0075178Y0018362D01*
X0075178Y0016894D01*
X0074812Y0016527D01*
X0074078Y0016527D01*
X0073711Y0016894D01*
X0076105Y0016894D02*
X0077573Y0018362D01*
X0077573Y0016894D01*
X0077206Y0016527D01*
X0076472Y0016527D01*
X0076105Y0016894D01*
X0076105Y0018362D01*
X0076472Y0018729D01*
X0077206Y0018729D01*
X0077573Y0018362D01*
X0078499Y0018729D02*
X0078499Y0016527D01*
X0078499Y0017261D02*
X0079600Y0017995D01*
X0078499Y0017261D02*
X0079600Y0016527D01*
X0075178Y0018362D02*
X0074812Y0018729D01*
X0074078Y0018729D01*
X0073711Y0018362D01*
X0091410Y0016710D02*
X0092144Y0017444D01*
X0092144Y0015242D01*
X0091410Y0015242D02*
X0092878Y0015242D01*
X0093804Y0015609D02*
X0095272Y0017077D01*
X0095272Y0015609D01*
X0094905Y0015242D01*
X0094171Y0015242D01*
X0093804Y0015609D01*
X0093804Y0017077D01*
X0094171Y0017444D01*
X0094905Y0017444D01*
X0095272Y0017077D01*
X0096198Y0016710D02*
X0096198Y0015609D01*
X0096565Y0015242D01*
X0097666Y0015242D01*
X0097666Y0016710D01*
X0098592Y0016343D02*
X0099326Y0016343D01*
X0098592Y0017444D02*
X0100060Y0017444D01*
X0098592Y0017444D02*
X0098592Y0015242D01*
X0113575Y0014718D02*
X0115043Y0016186D01*
X0115043Y0016553D01*
X0114676Y0016920D01*
X0113942Y0016920D01*
X0113575Y0016553D01*
X0115969Y0016553D02*
X0116336Y0016920D01*
X0117070Y0016920D01*
X0117437Y0016553D01*
X0117437Y0016186D01*
X0115969Y0014718D01*
X0117437Y0014718D01*
X0118363Y0015085D02*
X0118730Y0014718D01*
X0119464Y0014718D01*
X0119831Y0015085D01*
X0119831Y0016553D01*
X0118363Y0015085D01*
X0118363Y0016553D01*
X0118730Y0016920D01*
X0119464Y0016920D01*
X0119831Y0016553D01*
X0115043Y0014718D02*
X0113575Y0014718D01*
X0133525Y0014639D02*
X0134992Y0014639D01*
X0134258Y0014639D02*
X0134258Y0016841D01*
X0133525Y0016107D01*
X0135919Y0015373D02*
X0137386Y0016841D01*
X0135919Y0016841D02*
X0135919Y0014639D01*
X0136286Y0015740D02*
X0137386Y0014639D01*
X0151584Y0014832D02*
X0153051Y0014832D01*
X0152318Y0014832D02*
X0152318Y0017034D01*
X0151584Y0016300D01*
X0153978Y0017034D02*
X0153978Y0014832D01*
X0155446Y0014832D02*
X0155446Y0017034D01*
X0154712Y0016300D01*
X0153978Y0017034D01*
X0170002Y0016384D02*
X0170736Y0017118D01*
X0170736Y0014917D01*
X0171469Y0014917D02*
X0170002Y0014917D01*
X0172396Y0014917D02*
X0172763Y0014917D01*
X0172763Y0015284D01*
X0172396Y0015284D01*
X0172396Y0014917D01*
X0173593Y0014917D02*
X0175061Y0016384D01*
X0175061Y0016751D01*
X0174694Y0017118D01*
X0173960Y0017118D01*
X0173593Y0016751D01*
X0173593Y0014917D02*
X0175061Y0014917D01*
X0175987Y0014917D02*
X0175987Y0017118D01*
X0176354Y0016017D02*
X0177455Y0014917D01*
X0175987Y0015650D02*
X0177455Y0017118D01*
X0186350Y0017280D02*
X0186350Y0018014D01*
X0186350Y0017647D02*
X0188185Y0017647D01*
X0188552Y0017280D01*
X0188552Y0016913D01*
X0188185Y0016546D01*
X0187451Y0018941D02*
X0187451Y0020408D01*
X0186350Y0020041D02*
X0187451Y0018941D01*
X0188552Y0020041D02*
X0186350Y0020041D01*
X0176258Y0027284D02*
X0175891Y0026917D01*
X0175157Y0026917D01*
X0174790Y0027284D01*
X0176258Y0028751D01*
X0176258Y0027284D01*
X0176258Y0028751D02*
X0175891Y0029118D01*
X0175157Y0029118D01*
X0174790Y0028751D01*
X0174790Y0027284D01*
X0173864Y0026917D02*
X0172396Y0026917D01*
X0173130Y0026917D02*
X0173130Y0029118D01*
X0172396Y0028384D01*
X0171469Y0028751D02*
X0171469Y0028017D01*
X0171103Y0027650D01*
X0170002Y0027650D01*
X0170002Y0026917D02*
X0170002Y0029118D01*
X0171103Y0029118D01*
X0171469Y0028751D01*
X0170736Y0027650D02*
X0171469Y0026917D01*
X0155733Y0026947D02*
X0155733Y0028415D01*
X0155366Y0028782D01*
X0154632Y0028782D01*
X0154265Y0028415D01*
X0154265Y0028048D01*
X0154632Y0027681D01*
X0155733Y0027681D01*
X0155733Y0026947D02*
X0155366Y0026580D01*
X0154632Y0026580D01*
X0154265Y0026947D01*
X0153339Y0026580D02*
X0152605Y0027314D01*
X0152972Y0027314D02*
X0151871Y0027314D01*
X0151871Y0026580D02*
X0151871Y0028782D01*
X0152972Y0028782D01*
X0153339Y0028415D01*
X0153339Y0027681D01*
X0152972Y0027314D01*
X0137194Y0027270D02*
X0136827Y0026903D01*
X0136093Y0026903D01*
X0135726Y0027270D01*
X0135726Y0027637D01*
X0136093Y0028004D01*
X0136827Y0028004D01*
X0137194Y0027637D01*
X0137194Y0027270D01*
X0136827Y0028004D02*
X0137194Y0028371D01*
X0137194Y0028738D01*
X0136827Y0029105D01*
X0136093Y0029105D01*
X0135726Y0028738D01*
X0135726Y0028371D01*
X0136093Y0028004D01*
X0134800Y0028004D02*
X0134433Y0027637D01*
X0133332Y0027637D01*
X0134066Y0027637D02*
X0134800Y0026903D01*
X0134800Y0028004D02*
X0134800Y0028738D01*
X0134433Y0029105D01*
X0133332Y0029105D01*
X0133332Y0026903D01*
X0119225Y0028840D02*
X0117757Y0027372D01*
X0117757Y0027006D01*
X0116831Y0027006D02*
X0116097Y0027739D01*
X0116464Y0027739D02*
X0115363Y0027739D01*
X0115363Y0027006D02*
X0115363Y0029207D01*
X0116464Y0029207D01*
X0116831Y0028840D01*
X0116831Y0028106D01*
X0116464Y0027739D01*
X0117757Y0029207D02*
X0119225Y0029207D01*
X0119225Y0028840D01*
X0119319Y0033578D02*
X0119686Y0033945D01*
X0119686Y0034312D01*
X0119319Y0034679D01*
X0118218Y0034679D01*
X0118218Y0033945D01*
X0118585Y0033578D01*
X0119319Y0033578D01*
X0120612Y0033578D02*
X0120612Y0035046D01*
X0121713Y0035046D01*
X0122080Y0034679D01*
X0122080Y0033578D01*
X0123007Y0033578D02*
X0123007Y0035780D01*
X0124474Y0035780D01*
X0123741Y0034679D02*
X0123007Y0034679D01*
X0119686Y0035780D02*
X0118952Y0035413D01*
X0118218Y0034679D01*
X0117292Y0034679D02*
X0117292Y0033945D01*
X0116925Y0033578D01*
X0116191Y0033578D01*
X0115824Y0033945D01*
X0115824Y0034679D02*
X0116558Y0035046D01*
X0116925Y0035046D01*
X0117292Y0034679D01*
X0117292Y0035780D02*
X0115824Y0035780D01*
X0115824Y0034679D01*
X0129631Y0034735D02*
X0130365Y0035469D01*
X0130365Y0033267D01*
X0129631Y0033267D02*
X0131099Y0033267D01*
X0132026Y0033634D02*
X0133493Y0035102D01*
X0133493Y0033634D01*
X0133126Y0033267D01*
X0132393Y0033267D01*
X0132026Y0033634D01*
X0132026Y0035102D01*
X0132393Y0035469D01*
X0133126Y0035469D01*
X0133493Y0035102D01*
X0134420Y0035102D02*
X0134787Y0035469D01*
X0135521Y0035469D01*
X0135888Y0035102D01*
X0134420Y0033634D01*
X0134787Y0033267D01*
X0135521Y0033267D01*
X0135888Y0033634D01*
X0135888Y0035102D01*
X0136814Y0035469D02*
X0136814Y0033267D01*
X0136814Y0034001D02*
X0138282Y0035469D01*
X0137181Y0034368D02*
X0138282Y0033267D01*
X0134420Y0033634D02*
X0134420Y0035102D01*
X0142935Y0034699D02*
X0143669Y0035433D01*
X0143669Y0033231D01*
X0142935Y0033231D02*
X0144403Y0033231D01*
X0145329Y0033598D02*
X0146797Y0035066D01*
X0146797Y0033598D01*
X0146430Y0033231D01*
X0145696Y0033231D01*
X0145329Y0033598D01*
X0145329Y0035066D01*
X0145696Y0035433D01*
X0146430Y0035433D01*
X0146797Y0035066D01*
X0147723Y0035066D02*
X0148090Y0035433D01*
X0148824Y0035433D01*
X0149191Y0035066D01*
X0147723Y0033598D01*
X0148090Y0033231D01*
X0148824Y0033231D01*
X0149191Y0033598D01*
X0149191Y0035066D01*
X0150117Y0035433D02*
X0150117Y0033231D01*
X0150117Y0033965D02*
X0151585Y0035433D01*
X0150484Y0034332D02*
X0151585Y0033231D01*
X0147723Y0033598D02*
X0147723Y0035066D01*
X0158563Y0034666D02*
X0159297Y0035400D01*
X0159297Y0033198D01*
X0158563Y0033198D02*
X0160031Y0033198D01*
X0160957Y0033565D02*
X0162425Y0035033D01*
X0162425Y0033565D01*
X0162058Y0033198D01*
X0161324Y0033198D01*
X0160957Y0033565D01*
X0160957Y0035033D01*
X0161324Y0035400D01*
X0162058Y0035400D01*
X0162425Y0035033D01*
X0163351Y0034666D02*
X0163351Y0033565D01*
X0163718Y0033198D01*
X0164819Y0033198D01*
X0164819Y0034666D01*
X0165745Y0034299D02*
X0166479Y0034299D01*
X0165745Y0033198D02*
X0165745Y0035400D01*
X0167213Y0035400D01*
X0148228Y0041805D02*
X0148228Y0044007D01*
X0147127Y0042906D01*
X0148595Y0042906D01*
X0146201Y0042906D02*
X0145834Y0042539D01*
X0144733Y0042539D01*
X0145467Y0042539D02*
X0146201Y0041805D01*
X0146201Y0042906D02*
X0146201Y0043640D01*
X0145834Y0044007D01*
X0144733Y0044007D01*
X0144733Y0041805D01*
X0135576Y0042721D02*
X0135576Y0043088D01*
X0135209Y0043454D01*
X0134842Y0043454D01*
X0135209Y0043454D02*
X0135576Y0043821D01*
X0135576Y0044188D01*
X0135209Y0044555D01*
X0134475Y0044555D01*
X0134108Y0044188D01*
X0133182Y0044188D02*
X0133182Y0043454D01*
X0132815Y0043088D01*
X0131714Y0043088D01*
X0132448Y0043088D02*
X0133182Y0042354D01*
X0134108Y0042721D02*
X0134475Y0042354D01*
X0135209Y0042354D01*
X0135576Y0042721D01*
X0131714Y0042354D02*
X0131714Y0044555D01*
X0132815Y0044555D01*
X0133182Y0044188D01*
X0121655Y0043602D02*
X0121655Y0042134D01*
X0121288Y0041767D01*
X0120554Y0041767D01*
X0120187Y0042134D01*
X0120554Y0042868D02*
X0120187Y0043235D01*
X0120187Y0043602D01*
X0120554Y0043969D01*
X0121288Y0043969D01*
X0121655Y0043602D01*
X0121655Y0042868D02*
X0120554Y0042868D01*
X0119261Y0043602D02*
X0118894Y0043969D01*
X0118160Y0043969D01*
X0117793Y0043602D01*
X0117793Y0042134D01*
X0118160Y0041767D01*
X0118894Y0041767D01*
X0119261Y0042134D01*
X0096910Y0040723D02*
X0095809Y0039989D01*
X0096910Y0039255D01*
X0095809Y0039255D02*
X0095809Y0041457D01*
X0094149Y0041457D02*
X0093415Y0040723D01*
X0094149Y0041457D02*
X0094149Y0039255D01*
X0093415Y0039255D02*
X0094883Y0039255D01*
X0092489Y0039255D02*
X0091021Y0039255D01*
X0091755Y0039255D02*
X0091755Y0041457D01*
X0091021Y0040723D01*
X0073035Y0042654D02*
X0072668Y0042287D01*
X0073035Y0042654D02*
X0073035Y0043388D01*
X0072668Y0043755D01*
X0072301Y0043755D01*
X0071934Y0043388D01*
X0071934Y0043021D01*
X0071934Y0043388D02*
X0071567Y0043755D01*
X0071200Y0043755D01*
X0070833Y0043388D01*
X0070833Y0042654D01*
X0071200Y0042287D01*
X0071200Y0044681D02*
X0070833Y0045048D01*
X0070833Y0045782D01*
X0071200Y0046149D01*
X0071567Y0046149D01*
X0071934Y0045782D01*
X0072301Y0046149D01*
X0072668Y0046149D01*
X0073035Y0045782D01*
X0073035Y0045048D01*
X0072668Y0044681D01*
X0071934Y0045415D02*
X0071934Y0045782D01*
X0071567Y0047075D02*
X0071567Y0048176D01*
X0071934Y0048543D01*
X0073035Y0048543D01*
X0073035Y0049469D02*
X0070833Y0049469D01*
X0071934Y0049469D02*
X0071934Y0050937D01*
X0070833Y0050937D02*
X0073035Y0050937D01*
X0073035Y0051863D02*
X0070833Y0053331D01*
X0071567Y0054257D02*
X0071567Y0055725D01*
X0071934Y0056651D02*
X0071567Y0057385D01*
X0071567Y0057752D01*
X0071934Y0058119D01*
X0072668Y0058119D01*
X0073035Y0057752D01*
X0073035Y0057018D01*
X0072668Y0056651D01*
X0071934Y0056651D02*
X0070833Y0056651D01*
X0070833Y0058119D01*
X0070833Y0059045D02*
X0071200Y0059045D01*
X0071200Y0059412D01*
X0070833Y0059412D01*
X0070833Y0059045D01*
X0070833Y0060880D02*
X0073035Y0059045D01*
X0073035Y0060513D02*
X0073035Y0060880D01*
X0072668Y0060880D01*
X0072668Y0060513D01*
X0073035Y0060513D01*
X0073035Y0061838D02*
X0070833Y0063306D01*
X0070833Y0064232D02*
X0071934Y0064232D01*
X0071567Y0064966D01*
X0071567Y0065333D01*
X0071934Y0065700D01*
X0072668Y0065700D01*
X0073035Y0065333D01*
X0073035Y0064599D01*
X0072668Y0064232D01*
X0072519Y0064978D02*
X0071785Y0064978D01*
X0071418Y0065345D01*
X0072886Y0066813D01*
X0072886Y0065345D01*
X0072519Y0064978D01*
X0071418Y0065345D02*
X0071418Y0066813D01*
X0071785Y0067180D01*
X0072519Y0067180D01*
X0072886Y0066813D01*
X0073035Y0066993D02*
X0072668Y0066626D01*
X0071200Y0068094D01*
X0072668Y0068094D01*
X0073035Y0067727D01*
X0073035Y0066993D01*
X0072668Y0066626D02*
X0071200Y0066626D01*
X0070833Y0066993D01*
X0070833Y0067727D01*
X0071200Y0068094D01*
X0071200Y0069020D02*
X0070833Y0069387D01*
X0070833Y0070121D01*
X0071200Y0070488D01*
X0072668Y0069020D01*
X0073035Y0069387D01*
X0073035Y0070121D01*
X0072668Y0070488D01*
X0071200Y0070488D01*
X0071567Y0071414D02*
X0071567Y0071781D01*
X0071934Y0072148D01*
X0071567Y0072515D01*
X0071934Y0072882D01*
X0073035Y0072882D01*
X0073035Y0072148D02*
X0071934Y0072148D01*
X0071567Y0071414D02*
X0073035Y0071414D01*
X0073035Y0073808D02*
X0071567Y0073808D01*
X0070833Y0074542D01*
X0071567Y0075276D01*
X0073035Y0075276D01*
X0071934Y0075276D02*
X0071934Y0073808D01*
X0072812Y0077978D02*
X0072812Y0080180D01*
X0073913Y0080180D01*
X0074280Y0079813D01*
X0074280Y0079079D01*
X0073913Y0078712D01*
X0072812Y0078712D01*
X0073546Y0078712D02*
X0074280Y0077978D01*
X0075206Y0077978D02*
X0076674Y0077978D01*
X0075940Y0077978D02*
X0075940Y0080180D01*
X0075206Y0079446D01*
X0093107Y0079151D02*
X0094575Y0079151D01*
X0093841Y0079151D02*
X0093841Y0081353D01*
X0093107Y0080619D01*
X0095501Y0081353D02*
X0096235Y0080619D01*
X0096969Y0081353D01*
X0096969Y0079151D01*
X0095501Y0079151D02*
X0095501Y0081353D01*
X0095784Y0089344D02*
X0094316Y0089344D01*
X0095050Y0089344D02*
X0095050Y0091546D01*
X0094316Y0090812D01*
X0093390Y0091179D02*
X0093390Y0090445D01*
X0093023Y0090078D01*
X0091922Y0090078D01*
X0092656Y0090078D02*
X0093390Y0089344D01*
X0091922Y0089344D02*
X0091922Y0091546D01*
X0093023Y0091546D01*
X0093390Y0091179D01*
X0096710Y0091179D02*
X0096710Y0090812D01*
X0097077Y0090445D01*
X0097811Y0090445D01*
X0098178Y0090078D01*
X0098178Y0089711D01*
X0097811Y0089344D01*
X0097077Y0089344D01*
X0096710Y0089711D01*
X0096710Y0090078D01*
X0097077Y0090445D01*
X0097811Y0090445D02*
X0098178Y0090812D01*
X0098178Y0091179D01*
X0097811Y0091546D01*
X0097077Y0091546D01*
X0096710Y0091179D01*
X0130564Y0089431D02*
X0130564Y0087963D01*
X0130931Y0087596D01*
X0131665Y0087596D01*
X0132032Y0087963D01*
X0132958Y0087596D02*
X0134426Y0089064D01*
X0134426Y0089431D01*
X0134059Y0089798D01*
X0133325Y0089798D01*
X0132958Y0089431D01*
X0132032Y0089431D02*
X0131665Y0089798D01*
X0130931Y0089798D01*
X0130564Y0089431D01*
X0132958Y0087596D02*
X0134426Y0087596D01*
X0132771Y0076388D02*
X0133138Y0076022D01*
X0131670Y0074554D01*
X0132037Y0074187D01*
X0132771Y0074187D01*
X0133138Y0074554D01*
X0133138Y0076022D01*
X0132771Y0076388D02*
X0132037Y0076388D01*
X0131670Y0076022D01*
X0131670Y0074554D01*
X0130744Y0074554D02*
X0130377Y0074187D01*
X0129643Y0074187D01*
X0129276Y0074554D01*
X0130744Y0076022D01*
X0130744Y0074554D01*
X0129276Y0074554D02*
X0129276Y0076022D01*
X0129643Y0076388D01*
X0130377Y0076388D01*
X0130744Y0076022D01*
X0127616Y0076388D02*
X0126882Y0075655D01*
X0127616Y0076388D02*
X0127616Y0074187D01*
X0126882Y0074187D02*
X0128350Y0074187D01*
X0134064Y0074554D02*
X0134431Y0074187D01*
X0135532Y0074187D01*
X0135532Y0075655D01*
X0136458Y0075288D02*
X0137192Y0075288D01*
X0136458Y0076388D02*
X0137926Y0076388D01*
X0136458Y0076388D02*
X0136458Y0074187D01*
X0134064Y0074554D02*
X0134064Y0075655D01*
X0134122Y0070772D02*
X0133755Y0070405D01*
X0133755Y0068937D01*
X0134122Y0068570D01*
X0134856Y0068570D01*
X0135223Y0068937D01*
X0136149Y0068570D02*
X0137617Y0068570D01*
X0136883Y0068570D02*
X0136883Y0070772D01*
X0136149Y0070038D01*
X0135223Y0070405D02*
X0134856Y0070772D01*
X0134122Y0070772D01*
X0132893Y0070772D02*
X0132159Y0070772D01*
X0132526Y0070772D02*
X0132526Y0068570D01*
X0132159Y0068570D02*
X0132893Y0068570D01*
X0119128Y0070835D02*
X0119128Y0072303D01*
X0117660Y0070835D01*
X0118027Y0070468D01*
X0118761Y0070468D01*
X0119128Y0070835D01*
X0119128Y0072303D02*
X0118761Y0072670D01*
X0118027Y0072670D01*
X0117660Y0072303D01*
X0117660Y0070835D01*
X0116734Y0070468D02*
X0115266Y0070468D01*
X0116000Y0070468D02*
X0116000Y0072670D01*
X0115266Y0071936D01*
X0114340Y0072303D02*
X0113973Y0072670D01*
X0113239Y0072670D01*
X0112872Y0072303D01*
X0112872Y0070835D01*
X0113239Y0070468D01*
X0113973Y0070468D01*
X0114340Y0070835D01*
X0103901Y0070527D02*
X0101699Y0070527D01*
X0102800Y0069426D01*
X0102800Y0070894D01*
X0102433Y0071820D02*
X0102800Y0072187D01*
X0102800Y0073288D01*
X0103534Y0073288D02*
X0102066Y0073288D01*
X0101699Y0072921D01*
X0101699Y0072187D01*
X0102066Y0071820D01*
X0102433Y0071820D01*
X0103534Y0071820D02*
X0103901Y0072187D01*
X0103901Y0072921D01*
X0103534Y0073288D01*
X0103901Y0068500D02*
X0102433Y0068500D01*
X0101699Y0067766D01*
X0102433Y0067032D01*
X0103901Y0067032D01*
X0102800Y0067032D02*
X0102800Y0068500D01*
X0102066Y0066106D02*
X0103534Y0064638D01*
X0103901Y0064638D01*
X0103534Y0063712D02*
X0103901Y0063345D01*
X0103901Y0062611D01*
X0103534Y0062244D01*
X0102800Y0062611D02*
X0102433Y0062244D01*
X0102066Y0062244D01*
X0101699Y0062611D01*
X0101699Y0063345D01*
X0102066Y0063712D01*
X0102800Y0063345D02*
X0103167Y0063712D01*
X0103534Y0063712D01*
X0102800Y0063345D02*
X0102800Y0062611D01*
X0102800Y0061318D02*
X0103167Y0060951D01*
X0103167Y0059850D01*
X0103901Y0059850D02*
X0101699Y0059850D01*
X0101699Y0060951D01*
X0102066Y0061318D01*
X0102800Y0061318D01*
X0101699Y0058924D02*
X0101699Y0057456D01*
X0101699Y0058190D02*
X0103901Y0058190D01*
X0112872Y0060468D02*
X0114340Y0061936D01*
X0114340Y0062303D01*
X0113973Y0062670D01*
X0113239Y0062670D01*
X0112872Y0062303D01*
X0116463Y0062303D02*
X0116830Y0062670D01*
X0117564Y0062670D01*
X0117931Y0062303D01*
X0117931Y0061936D01*
X0116463Y0060468D01*
X0117931Y0060468D01*
X0118857Y0060468D02*
X0119958Y0060468D01*
X0120325Y0060835D01*
X0120325Y0061569D01*
X0119958Y0061936D01*
X0118857Y0061936D01*
X0118857Y0059734D01*
X0121251Y0060468D02*
X0121251Y0062670D01*
X0122719Y0062670D01*
X0121985Y0061569D02*
X0121251Y0061569D01*
X0115633Y0060835D02*
X0115633Y0060468D01*
X0115266Y0060468D01*
X0115266Y0060835D01*
X0115633Y0060835D01*
X0114340Y0060468D02*
X0112872Y0060468D01*
X0101699Y0064638D02*
X0101699Y0066106D01*
X0102066Y0066106D01*
X0086928Y0066592D02*
X0086928Y0067326D01*
X0086561Y0067693D01*
X0086194Y0067693D01*
X0085827Y0067326D01*
X0085827Y0066226D01*
X0086561Y0066226D01*
X0086928Y0066592D01*
X0085827Y0066226D02*
X0085093Y0066959D01*
X0084726Y0067693D01*
X0085093Y0065299D02*
X0084726Y0064932D01*
X0084726Y0064198D01*
X0085093Y0063831D01*
X0086561Y0063831D01*
X0086928Y0064198D01*
X0086928Y0064932D01*
X0086561Y0065299D01*
X0086928Y0062969D02*
X0086928Y0062235D01*
X0086928Y0062602D02*
X0084726Y0062602D01*
X0084726Y0062235D02*
X0084726Y0062969D01*
X0077674Y0064978D02*
X0076573Y0066079D01*
X0076206Y0065712D02*
X0077674Y0067180D01*
X0076206Y0067180D02*
X0076206Y0064978D01*
X0075280Y0065345D02*
X0074913Y0064978D01*
X0074179Y0064978D01*
X0073812Y0065345D01*
X0075280Y0066813D01*
X0075280Y0065345D01*
X0075280Y0066813D02*
X0074913Y0067180D01*
X0074179Y0067180D01*
X0073812Y0066813D01*
X0073812Y0065345D01*
X0070833Y0065700D02*
X0070833Y0064232D01*
X0070492Y0064978D02*
X0069024Y0064978D01*
X0069758Y0064978D02*
X0069758Y0067180D01*
X0069024Y0066446D01*
X0071200Y0069020D02*
X0072668Y0069020D01*
X0044166Y0060786D02*
X0042698Y0060786D01*
X0042698Y0058584D01*
X0041772Y0058584D02*
X0041772Y0060052D01*
X0042698Y0059685D02*
X0043432Y0059685D01*
X0041772Y0058584D02*
X0040671Y0058584D01*
X0040304Y0058951D01*
X0040304Y0060052D01*
X0038644Y0060786D02*
X0038644Y0058584D01*
X0037910Y0058584D02*
X0039378Y0058584D01*
X0037080Y0058584D02*
X0037080Y0058951D01*
X0036713Y0058951D01*
X0036713Y0058584D01*
X0037080Y0058584D01*
X0035787Y0058951D02*
X0035420Y0058584D01*
X0034686Y0058584D01*
X0034319Y0058951D01*
X0035787Y0060419D01*
X0035787Y0058951D01*
X0034319Y0058951D02*
X0034319Y0060419D01*
X0034686Y0060786D01*
X0035420Y0060786D01*
X0035787Y0060419D01*
X0037910Y0060052D02*
X0038644Y0060786D01*
X0038716Y0056577D02*
X0037982Y0056577D01*
X0037615Y0056210D01*
X0037615Y0054743D01*
X0037982Y0054376D01*
X0038716Y0054376D01*
X0039083Y0054743D01*
X0040009Y0054743D02*
X0040376Y0054376D01*
X0041110Y0054376D01*
X0041477Y0054743D01*
X0041477Y0055110D01*
X0041110Y0055477D01*
X0040743Y0055477D01*
X0041110Y0055477D02*
X0041477Y0055844D01*
X0041477Y0056210D01*
X0041110Y0056577D01*
X0040376Y0056577D01*
X0040009Y0056210D01*
X0039083Y0056210D02*
X0038716Y0056577D01*
X0058486Y0051383D02*
X0059220Y0050649D01*
X0058486Y0051383D02*
X0060688Y0051383D01*
X0060688Y0050649D02*
X0060688Y0052117D01*
X0060688Y0049723D02*
X0060688Y0048255D01*
X0058486Y0048255D01*
X0071567Y0047075D02*
X0073035Y0047075D01*
X0092021Y0051755D02*
X0092021Y0053957D01*
X0093122Y0053957D01*
X0093489Y0053590D01*
X0093489Y0052856D01*
X0093122Y0052489D01*
X0092021Y0052489D01*
X0092755Y0052489D02*
X0093489Y0051755D01*
X0094415Y0051755D02*
X0095883Y0053223D01*
X0095883Y0053590D01*
X0095516Y0053957D01*
X0094782Y0053957D01*
X0094415Y0053590D01*
X0096809Y0053223D02*
X0097543Y0053957D01*
X0097543Y0051755D01*
X0096809Y0051755D02*
X0098277Y0051755D01*
X0095883Y0051755D02*
X0094415Y0051755D01*
X0073035Y0054257D02*
X0073035Y0055725D01*
X0072301Y0054991D02*
X0070833Y0054991D01*
X0044477Y0044503D02*
X0043009Y0044503D01*
X0043009Y0042301D01*
X0042083Y0042301D02*
X0042083Y0043769D01*
X0043009Y0043402D02*
X0043743Y0043402D01*
X0042083Y0042301D02*
X0040982Y0042301D01*
X0040615Y0042668D01*
X0040615Y0043769D01*
X0039689Y0042301D02*
X0038221Y0042301D01*
X0038955Y0042301D02*
X0038955Y0044503D01*
X0038221Y0043769D01*
X0037391Y0042668D02*
X0037024Y0042668D01*
X0037024Y0042301D01*
X0037391Y0042301D01*
X0037391Y0042668D01*
X0036098Y0042668D02*
X0036098Y0044136D01*
X0034630Y0042668D01*
X0034997Y0042301D01*
X0035731Y0042301D01*
X0036098Y0042668D01*
X0036098Y0044136D02*
X0035731Y0044503D01*
X0034997Y0044503D01*
X0034630Y0044136D01*
X0034630Y0042668D01*
X0038194Y0034237D02*
X0039295Y0034237D01*
X0039662Y0033870D01*
X0039662Y0032402D01*
X0039295Y0032035D01*
X0038194Y0032035D01*
X0038194Y0034237D01*
X0040589Y0033503D02*
X0041322Y0034237D01*
X0041322Y0032035D01*
X0040589Y0032035D02*
X0042056Y0032035D01*
X0027442Y0028996D02*
X0027442Y0028629D01*
X0027075Y0028262D01*
X0026341Y0028262D01*
X0025974Y0028629D01*
X0025974Y0028996D01*
X0026341Y0029362D01*
X0027075Y0029362D01*
X0027442Y0028996D01*
X0027075Y0028262D02*
X0027442Y0027895D01*
X0027442Y0027528D01*
X0027075Y0027161D01*
X0026341Y0027161D01*
X0025974Y0027528D01*
X0025974Y0027895D01*
X0026341Y0028262D01*
X0025048Y0028996D02*
X0024681Y0029362D01*
X0023947Y0029362D01*
X0023580Y0028996D01*
X0023580Y0027528D01*
X0023947Y0027161D01*
X0024681Y0027161D01*
X0025048Y0027528D01*
X0024314Y0019363D02*
X0024314Y0017161D01*
X0023580Y0017161D02*
X0025048Y0017161D01*
X0025974Y0017528D02*
X0027442Y0018996D01*
X0027442Y0017528D01*
X0027075Y0017161D01*
X0026341Y0017161D01*
X0025974Y0017528D01*
X0025974Y0018996D01*
X0026341Y0019363D01*
X0027075Y0019363D01*
X0027442Y0018996D01*
X0028368Y0018629D02*
X0028368Y0017528D01*
X0028735Y0017161D01*
X0029836Y0017161D01*
X0029836Y0018629D01*
X0030762Y0018262D02*
X0031496Y0018262D01*
X0030762Y0017161D02*
X0030762Y0019363D01*
X0032230Y0019363D01*
X0024314Y0019363D02*
X0023580Y0018629D01*
X0059084Y0031409D02*
X0059084Y0033611D01*
X0060185Y0033611D01*
X0060552Y0033244D01*
X0060552Y0032510D01*
X0060185Y0032143D01*
X0059084Y0032143D01*
X0059818Y0032143D02*
X0060552Y0031409D01*
X0061478Y0031409D02*
X0062946Y0032877D01*
X0062946Y0033244D01*
X0062579Y0033611D01*
X0061845Y0033611D01*
X0061478Y0033244D01*
X0061478Y0031409D02*
X0062946Y0031409D01*
X0072017Y0027807D02*
X0073118Y0027807D01*
X0073485Y0027440D01*
X0073485Y0026706D01*
X0073118Y0026339D01*
X0072017Y0026339D01*
X0072017Y0025606D02*
X0072017Y0027807D01*
X0072751Y0026339D02*
X0073485Y0025606D01*
X0074411Y0025606D02*
X0075879Y0027073D01*
X0075879Y0027440D01*
X0075512Y0027807D01*
X0074778Y0027807D01*
X0074411Y0027440D01*
X0076805Y0027440D02*
X0077172Y0027807D01*
X0077906Y0027807D01*
X0078273Y0027440D01*
X0076805Y0025972D01*
X0077172Y0025606D01*
X0077906Y0025606D01*
X0078273Y0025972D01*
X0078273Y0027440D01*
X0076805Y0027440D02*
X0076805Y0025972D01*
X0075879Y0025606D02*
X0074411Y0025606D01*
X0093895Y0027894D02*
X0094262Y0027527D01*
X0094996Y0027527D01*
X0095363Y0027894D01*
X0096289Y0027527D02*
X0097757Y0027527D01*
X0097023Y0027527D02*
X0097023Y0029729D01*
X0096289Y0028995D01*
X0095363Y0029362D02*
X0094996Y0029729D01*
X0094262Y0029729D01*
X0093895Y0029362D01*
X0093895Y0027894D01*
X0160351Y0043640D02*
X0160718Y0043273D01*
X0161452Y0043273D01*
X0161819Y0043640D01*
X0162745Y0043640D02*
X0163112Y0043273D01*
X0163846Y0043273D01*
X0164213Y0043640D01*
X0164213Y0044374D01*
X0163846Y0044741D01*
X0163479Y0044741D01*
X0162745Y0044374D01*
X0162745Y0045475D01*
X0164213Y0045475D01*
X0161819Y0045108D02*
X0161452Y0045475D01*
X0160718Y0045475D01*
X0160351Y0045108D01*
X0160351Y0043640D01*
X0177630Y0045764D02*
X0177997Y0045397D01*
X0178730Y0045397D01*
X0179097Y0045764D01*
X0179097Y0047232D01*
X0178730Y0047599D01*
X0177997Y0047599D01*
X0177630Y0047232D01*
X0177630Y0045764D01*
X0178363Y0046131D02*
X0179097Y0045397D01*
X0180024Y0045397D02*
X0181491Y0045397D01*
X0180758Y0045397D02*
X0180758Y0047599D01*
X0180024Y0046865D01*
X0180718Y0049932D02*
X0179250Y0049932D01*
X0180718Y0051400D01*
X0180718Y0051767D01*
X0180351Y0052134D01*
X0179617Y0052134D01*
X0179250Y0051767D01*
X0178420Y0050299D02*
X0178420Y0049932D01*
X0178053Y0049932D01*
X0178053Y0050299D01*
X0178420Y0050299D01*
X0177127Y0049932D02*
X0175659Y0049932D01*
X0177127Y0051400D01*
X0177127Y0051767D01*
X0176760Y0052134D01*
X0176026Y0052134D01*
X0175659Y0051767D01*
X0181644Y0052134D02*
X0181644Y0049932D01*
X0181644Y0050666D02*
X0183112Y0052134D01*
X0182011Y0051033D02*
X0183112Y0049932D01*
X0167816Y0050172D02*
X0167449Y0049805D01*
X0166715Y0049805D01*
X0166348Y0050172D01*
X0167816Y0051640D01*
X0167816Y0050172D01*
X0167816Y0051640D02*
X0167449Y0052007D01*
X0166715Y0052007D01*
X0166348Y0051640D01*
X0166348Y0050172D01*
X0165422Y0049805D02*
X0163954Y0049805D01*
X0165422Y0051273D01*
X0165422Y0051640D01*
X0165055Y0052007D01*
X0164321Y0052007D01*
X0163954Y0051640D01*
X0163028Y0051640D02*
X0162661Y0052007D01*
X0161927Y0052007D01*
X0161560Y0051640D01*
X0163028Y0051640D02*
X0163028Y0051273D01*
X0161560Y0049805D01*
X0163028Y0049805D01*
X0193482Y0057184D02*
X0194950Y0057184D01*
X0194216Y0057184D02*
X0194216Y0059386D01*
X0193482Y0058652D01*
X0195876Y0059019D02*
X0195876Y0057551D01*
X0197344Y0059019D01*
X0197344Y0057551D01*
X0196977Y0057184D01*
X0196243Y0057184D01*
X0195876Y0057551D01*
X0198270Y0057184D02*
X0198270Y0059386D01*
X0197344Y0059019D02*
X0196977Y0059386D01*
X0196243Y0059386D01*
X0195876Y0059019D01*
X0198270Y0057918D02*
X0199371Y0058652D01*
X0198270Y0057918D02*
X0199371Y0057184D01*
X0213336Y0059318D02*
X0213336Y0061520D01*
X0214437Y0061520D01*
X0214804Y0061153D01*
X0214804Y0060419D01*
X0214437Y0060052D01*
X0213336Y0060052D01*
X0214070Y0060052D02*
X0214804Y0059318D01*
X0215730Y0059318D02*
X0217198Y0059318D01*
X0216464Y0059318D02*
X0216464Y0061520D01*
X0215730Y0060786D01*
X0218124Y0061520D02*
X0219592Y0061520D01*
X0219592Y0061153D01*
X0218124Y0059685D01*
X0218124Y0059318D01*
X0232018Y0058268D02*
X0232018Y0056800D01*
X0233119Y0056800D01*
X0232752Y0057534D01*
X0232752Y0057901D01*
X0233119Y0058268D01*
X0233853Y0058268D01*
X0234220Y0057901D01*
X0234220Y0057167D01*
X0233853Y0056800D01*
X0233853Y0055874D02*
X0234220Y0055507D01*
X0234220Y0054773D01*
X0233853Y0054406D01*
X0232385Y0054406D01*
X0232018Y0054773D01*
X0232018Y0055507D01*
X0232385Y0055874D01*
X0232018Y0053544D02*
X0232018Y0052810D01*
X0232018Y0053177D02*
X0234220Y0053177D01*
X0234220Y0052810D02*
X0234220Y0053544D01*
X0248778Y0054416D02*
X0249879Y0053315D01*
X0249879Y0054783D01*
X0249879Y0055709D02*
X0248778Y0055709D01*
X0248778Y0057177D01*
X0249512Y0056810D02*
X0249512Y0056443D01*
X0249879Y0055709D01*
X0250613Y0055709D02*
X0250980Y0056076D01*
X0250980Y0056810D01*
X0250613Y0057177D01*
X0249879Y0057177D01*
X0249512Y0056810D01*
X0249145Y0058103D02*
X0248778Y0058470D01*
X0248778Y0059204D01*
X0249145Y0059571D01*
X0250613Y0058103D01*
X0250980Y0058470D01*
X0250980Y0059204D01*
X0250613Y0059571D01*
X0249145Y0059571D01*
X0249145Y0060497D02*
X0248778Y0060864D01*
X0248778Y0061598D01*
X0249145Y0061965D01*
X0249512Y0061965D01*
X0249879Y0061598D01*
X0250246Y0061965D01*
X0250613Y0061965D01*
X0250980Y0061598D01*
X0250980Y0060864D01*
X0250613Y0060497D01*
X0249879Y0061231D02*
X0249879Y0061598D01*
X0250613Y0058103D02*
X0249145Y0058103D01*
X0248778Y0054416D02*
X0250980Y0054416D01*
X0250613Y0052389D02*
X0250980Y0052022D01*
X0250980Y0051288D01*
X0250613Y0050921D01*
X0249145Y0050921D01*
X0248778Y0051288D01*
X0248778Y0052022D01*
X0249145Y0052389D01*
X0249145Y0049995D02*
X0248778Y0049628D01*
X0248778Y0048894D01*
X0249145Y0048527D01*
X0249512Y0048527D01*
X0249879Y0048894D01*
X0249879Y0049628D01*
X0250246Y0049995D01*
X0250613Y0049995D01*
X0250980Y0049628D01*
X0250980Y0048894D01*
X0250613Y0048527D01*
X0260106Y0047328D02*
X0260840Y0048062D01*
X0260840Y0045860D01*
X0260106Y0045860D02*
X0261574Y0045860D01*
X0262501Y0046227D02*
X0263968Y0047695D01*
X0263968Y0046227D01*
X0263601Y0045860D01*
X0262868Y0045860D01*
X0262501Y0046227D01*
X0262501Y0047695D01*
X0262868Y0048062D01*
X0263601Y0048062D01*
X0263968Y0047695D01*
X0264895Y0047328D02*
X0264895Y0046227D01*
X0265262Y0045860D01*
X0266363Y0045860D01*
X0266363Y0047328D01*
X0267289Y0046961D02*
X0268023Y0046961D01*
X0267289Y0048062D02*
X0268757Y0048062D01*
X0267289Y0048062D02*
X0267289Y0045860D01*
X0275556Y0046577D02*
X0275923Y0046944D01*
X0276657Y0046944D01*
X0277024Y0046577D01*
X0277024Y0046210D01*
X0276657Y0045843D01*
X0277024Y0045476D01*
X0277024Y0045109D01*
X0276657Y0044742D01*
X0275923Y0044742D01*
X0275556Y0045109D01*
X0276290Y0045843D02*
X0276657Y0045843D01*
X0277950Y0046577D02*
X0278317Y0046944D01*
X0279051Y0046944D01*
X0279418Y0046577D01*
X0279418Y0046210D01*
X0279051Y0045843D01*
X0279418Y0045476D01*
X0279418Y0045109D01*
X0279051Y0044742D01*
X0278317Y0044742D01*
X0277950Y0045109D01*
X0278684Y0045843D02*
X0279051Y0045843D01*
X0280344Y0045109D02*
X0280344Y0046577D01*
X0280711Y0046944D01*
X0281445Y0046944D01*
X0281812Y0046577D01*
X0280344Y0045109D01*
X0280711Y0044742D01*
X0281445Y0044742D01*
X0281812Y0045109D01*
X0281812Y0046577D01*
X0280080Y0041922D02*
X0280080Y0041555D01*
X0278612Y0040087D01*
X0278612Y0039720D01*
X0277686Y0040087D02*
X0277319Y0039720D01*
X0276585Y0039720D01*
X0276218Y0040087D01*
X0276218Y0041555D01*
X0276585Y0041922D01*
X0277319Y0041922D01*
X0277686Y0041555D01*
X0278612Y0041922D02*
X0280080Y0041922D01*
X0267142Y0041777D02*
X0266775Y0041410D01*
X0267142Y0041043D01*
X0267142Y0040676D01*
X0266775Y0040309D01*
X0266041Y0040309D01*
X0265674Y0040676D01*
X0264748Y0040309D02*
X0263280Y0040309D01*
X0264014Y0040309D02*
X0264014Y0042511D01*
X0263280Y0041777D01*
X0262354Y0042144D02*
X0261987Y0042511D01*
X0261253Y0042511D01*
X0260886Y0042144D01*
X0260886Y0040676D01*
X0261253Y0040309D01*
X0261987Y0040309D01*
X0262354Y0040676D01*
X0266408Y0041410D02*
X0266775Y0041410D01*
X0267142Y0041777D02*
X0267142Y0042144D01*
X0266775Y0042511D01*
X0266041Y0042511D01*
X0265674Y0042144D01*
X0291977Y0035577D02*
X0291977Y0034109D01*
X0286065Y0031922D02*
X0284597Y0031922D01*
X0284597Y0029720D01*
X0283671Y0029720D02*
X0283671Y0031188D01*
X0284597Y0030821D02*
X0285331Y0030821D01*
X0283671Y0029720D02*
X0282570Y0029720D01*
X0282203Y0030087D01*
X0282203Y0031188D01*
X0281277Y0029720D02*
X0279809Y0029720D01*
X0280543Y0029720D02*
X0280543Y0031922D01*
X0279809Y0031188D01*
X0278979Y0030087D02*
X0278979Y0029720D01*
X0278612Y0029720D01*
X0278612Y0030087D01*
X0278979Y0030087D01*
X0277686Y0030087D02*
X0277686Y0031555D01*
X0276218Y0030087D01*
X0276585Y0029720D01*
X0277319Y0029720D01*
X0277686Y0030087D01*
X0277381Y0028748D02*
X0276647Y0028748D01*
X0277014Y0028748D02*
X0277014Y0026546D01*
X0276647Y0026546D02*
X0277381Y0026546D01*
X0278243Y0026913D02*
X0278610Y0026546D01*
X0279344Y0026546D01*
X0279711Y0026913D01*
X0280637Y0027647D02*
X0282105Y0027647D01*
X0281738Y0026546D02*
X0281738Y0028748D01*
X0280637Y0027647D01*
X0279711Y0028381D02*
X0279344Y0028748D01*
X0278610Y0028748D01*
X0278243Y0028381D01*
X0278243Y0026913D01*
X0265939Y0024181D02*
X0265939Y0019850D01*
X0265468Y0017676D02*
X0264367Y0016575D01*
X0265835Y0016575D01*
X0265468Y0015474D02*
X0265468Y0017676D01*
X0266761Y0017309D02*
X0267128Y0017676D01*
X0267862Y0017676D01*
X0268229Y0017309D01*
X0266761Y0015841D01*
X0267128Y0015474D01*
X0267862Y0015474D01*
X0268229Y0015841D01*
X0268229Y0017309D01*
X0269155Y0017309D02*
X0269522Y0017676D01*
X0270256Y0017676D01*
X0270623Y0017309D01*
X0269155Y0015841D01*
X0269522Y0015474D01*
X0270256Y0015474D01*
X0270623Y0015841D01*
X0270623Y0017309D01*
X0269155Y0017309D02*
X0269155Y0015841D01*
X0266761Y0015841D02*
X0266761Y0017309D01*
X0263441Y0017309D02*
X0263441Y0016942D01*
X0261973Y0015474D01*
X0263441Y0015474D01*
X0261047Y0015474D02*
X0261047Y0017676D01*
X0261973Y0017309D02*
X0262340Y0017676D01*
X0263074Y0017676D01*
X0263441Y0017309D01*
X0261047Y0015474D02*
X0259579Y0017676D01*
X0259579Y0015474D01*
X0258652Y0015474D02*
X0258652Y0017676D01*
X0257919Y0016942D01*
X0257185Y0017676D01*
X0257185Y0015474D01*
X0256258Y0015841D02*
X0256258Y0017309D01*
X0255891Y0017676D01*
X0254791Y0017676D01*
X0254791Y0015474D01*
X0255891Y0015474D01*
X0256258Y0015841D01*
X0260034Y0019850D02*
X0260034Y0024181D01*
X0260362Y0026616D02*
X0261096Y0026616D01*
X0260729Y0026616D02*
X0260729Y0028818D01*
X0260362Y0028818D02*
X0261096Y0028818D01*
X0261958Y0028451D02*
X0261958Y0026983D01*
X0262325Y0026616D01*
X0263059Y0026616D01*
X0263425Y0026983D01*
X0264352Y0026616D02*
X0265820Y0028084D01*
X0265820Y0028451D01*
X0265453Y0028818D01*
X0264719Y0028818D01*
X0264352Y0028451D01*
X0263425Y0028451D02*
X0263059Y0028818D01*
X0262325Y0028818D01*
X0261958Y0028451D01*
X0261535Y0030860D02*
X0260067Y0030860D01*
X0260801Y0030860D02*
X0260801Y0033062D01*
X0260067Y0032328D01*
X0262461Y0032695D02*
X0262461Y0031227D01*
X0263929Y0032695D01*
X0263929Y0031227D01*
X0263562Y0030860D01*
X0262828Y0030860D01*
X0262461Y0031227D01*
X0262461Y0032695D02*
X0262828Y0033062D01*
X0263562Y0033062D01*
X0263929Y0032695D01*
X0264855Y0032328D02*
X0265956Y0032328D01*
X0266323Y0031961D01*
X0266323Y0030860D01*
X0267249Y0030860D02*
X0267249Y0033062D01*
X0268717Y0033062D01*
X0267983Y0031961D02*
X0267249Y0031961D01*
X0264855Y0032328D02*
X0264855Y0030860D01*
X0276218Y0031555D02*
X0276218Y0030087D01*
X0276218Y0031555D02*
X0276585Y0031922D01*
X0277319Y0031922D01*
X0277686Y0031555D01*
X0265820Y0026616D02*
X0264352Y0026616D01*
X0247918Y0026938D02*
X0246450Y0025470D01*
X0247918Y0025470D01*
X0247918Y0026938D02*
X0247918Y0027305D01*
X0247551Y0027672D01*
X0246817Y0027672D01*
X0246450Y0027305D01*
X0246450Y0029407D02*
X0246450Y0031609D01*
X0246450Y0030508D02*
X0247918Y0030508D01*
X0247918Y0031609D02*
X0247918Y0029407D01*
X0245524Y0029407D02*
X0245524Y0030875D01*
X0244056Y0030875D02*
X0244056Y0029774D01*
X0244423Y0029407D01*
X0245524Y0029407D01*
X0244056Y0027672D02*
X0244056Y0025470D01*
X0245524Y0025470D01*
X0241662Y0029407D02*
X0241662Y0029774D01*
X0243130Y0031242D01*
X0243130Y0031609D01*
X0241662Y0031609D01*
X0240832Y0029774D02*
X0240832Y0029407D01*
X0240465Y0029407D01*
X0240465Y0029774D01*
X0240832Y0029774D01*
X0239539Y0029407D02*
X0238071Y0029407D01*
X0239539Y0030875D01*
X0239539Y0031242D01*
X0239172Y0031609D01*
X0238438Y0031609D01*
X0238071Y0031242D01*
X0205129Y0030802D02*
X0202827Y0033104D01*
X0202060Y0032337D02*
X0205129Y0035406D01*
X0202060Y0035406D02*
X0202060Y0030802D01*
X0200525Y0031570D02*
X0199758Y0030802D01*
X0198223Y0030802D01*
X0197456Y0031570D01*
X0200525Y0034639D01*
X0200525Y0031570D01*
X0197456Y0031570D02*
X0197456Y0034639D01*
X0198223Y0035406D01*
X0199758Y0035406D01*
X0200525Y0034639D01*
X0195921Y0035406D02*
X0192852Y0035406D01*
X0192852Y0033104D01*
X0194387Y0033872D01*
X0195154Y0033872D01*
X0195921Y0033104D01*
X0195921Y0031570D01*
X0195154Y0030802D01*
X0193619Y0030802D01*
X0192852Y0031570D01*
X0212836Y0050818D02*
X0214304Y0050818D01*
X0213570Y0050818D02*
X0213570Y0053020D01*
X0212836Y0052286D01*
X0215230Y0051919D02*
X0215964Y0052286D01*
X0216331Y0052286D01*
X0216698Y0051919D01*
X0216698Y0051185D01*
X0216331Y0050818D01*
X0215597Y0050818D01*
X0215230Y0051185D01*
X0215230Y0051919D02*
X0215230Y0053020D01*
X0216698Y0053020D01*
X0217624Y0053020D02*
X0217624Y0050818D01*
X0217624Y0051552D02*
X0218725Y0050818D01*
X0217624Y0051552D02*
X0218725Y0052286D01*
X0182521Y0061543D02*
X0181053Y0061543D01*
X0181787Y0061543D02*
X0181787Y0063744D01*
X0181053Y0063010D01*
X0180127Y0061543D02*
X0178659Y0061543D01*
X0179393Y0061543D02*
X0179393Y0063744D01*
X0178659Y0063010D01*
X0177733Y0062643D02*
X0177366Y0062276D01*
X0176265Y0062276D01*
X0176265Y0061543D02*
X0176265Y0063744D01*
X0177366Y0063744D01*
X0177733Y0063377D01*
X0177733Y0062643D01*
X0176999Y0062276D02*
X0177733Y0061543D01*
X0167012Y0062144D02*
X0166645Y0061777D01*
X0165912Y0061777D01*
X0165545Y0062144D01*
X0165545Y0062878D02*
X0166278Y0063245D01*
X0166645Y0063245D01*
X0167012Y0062878D01*
X0167012Y0062144D01*
X0165545Y0062878D02*
X0165545Y0063979D01*
X0167012Y0063979D01*
X0164618Y0063612D02*
X0164618Y0062878D01*
X0164251Y0062511D01*
X0163150Y0062511D01*
X0163150Y0061777D02*
X0163150Y0063979D01*
X0164251Y0063979D01*
X0164618Y0063612D01*
X0163884Y0062511D02*
X0164618Y0061777D01*
X0190293Y0068059D02*
X0190660Y0067692D01*
X0191394Y0067692D01*
X0191761Y0068059D01*
X0191761Y0068426D01*
X0191394Y0068793D01*
X0190293Y0068793D01*
X0190293Y0068059D01*
X0190293Y0068793D02*
X0191027Y0069527D01*
X0191761Y0069894D01*
X0192687Y0069527D02*
X0192687Y0069160D01*
X0193054Y0068793D01*
X0193788Y0068793D01*
X0194155Y0068426D01*
X0194155Y0068059D01*
X0193788Y0067692D01*
X0193054Y0067692D01*
X0192687Y0068059D01*
X0192687Y0068426D01*
X0193054Y0068793D01*
X0193788Y0068793D02*
X0194155Y0069160D01*
X0194155Y0069527D01*
X0193788Y0069894D01*
X0193054Y0069894D01*
X0192687Y0069527D01*
X0195081Y0069160D02*
X0195081Y0068059D01*
X0195448Y0067692D01*
X0196549Y0067692D01*
X0196549Y0069160D01*
X0197475Y0068793D02*
X0198209Y0068793D01*
X0198449Y0067550D02*
X0198816Y0067183D01*
X0198816Y0066816D01*
X0198449Y0066449D01*
X0198816Y0066082D01*
X0198816Y0065715D01*
X0198449Y0065348D01*
X0197715Y0065348D01*
X0197348Y0065715D01*
X0196422Y0065348D02*
X0194954Y0065348D01*
X0195688Y0065348D02*
X0195688Y0067550D01*
X0194954Y0066816D01*
X0194028Y0067183D02*
X0194028Y0066449D01*
X0193661Y0066082D01*
X0192560Y0066082D01*
X0193294Y0066082D02*
X0194028Y0065348D01*
X0192560Y0065348D02*
X0192560Y0067550D01*
X0193661Y0067550D01*
X0194028Y0067183D01*
X0197348Y0067183D02*
X0197715Y0067550D01*
X0198449Y0067550D01*
X0197475Y0067692D02*
X0197475Y0069894D01*
X0198943Y0069894D01*
X0198449Y0066449D02*
X0198082Y0066449D01*
X0210839Y0065975D02*
X0210839Y0063773D01*
X0210839Y0064507D02*
X0211940Y0064507D01*
X0212307Y0064874D01*
X0212307Y0065608D01*
X0211940Y0065975D01*
X0210839Y0065975D01*
X0213233Y0065241D02*
X0213967Y0065975D01*
X0213967Y0063773D01*
X0213233Y0063773D02*
X0214701Y0063773D01*
X0215627Y0064140D02*
X0215994Y0063773D01*
X0216728Y0063773D01*
X0217095Y0064140D01*
X0217095Y0065608D01*
X0216728Y0065975D01*
X0215994Y0065975D01*
X0215627Y0065608D01*
X0215627Y0065241D01*
X0215994Y0064874D01*
X0217095Y0064874D01*
X0212307Y0063773D02*
X0211573Y0064507D01*
X0211312Y0071273D02*
X0209844Y0071273D01*
X0210578Y0071273D02*
X0210578Y0073475D01*
X0209844Y0072741D01*
X0212238Y0073108D02*
X0212238Y0071640D01*
X0213706Y0073108D01*
X0213706Y0071640D01*
X0213339Y0071273D01*
X0212605Y0071273D01*
X0212238Y0071640D01*
X0212238Y0073108D02*
X0212605Y0073475D01*
X0213339Y0073475D01*
X0213706Y0073108D01*
X0214632Y0073108D02*
X0214999Y0073475D01*
X0215733Y0073475D01*
X0216100Y0073108D01*
X0214632Y0071640D01*
X0214999Y0071273D01*
X0215733Y0071273D01*
X0216100Y0071640D01*
X0216100Y0073108D01*
X0217026Y0073475D02*
X0217026Y0071273D01*
X0217026Y0072007D02*
X0218127Y0071273D01*
X0217026Y0072007D02*
X0218127Y0072741D01*
X0214632Y0073108D02*
X0214632Y0071640D01*
X0234345Y0076972D02*
X0234345Y0078073D01*
X0234712Y0078440D01*
X0236179Y0078440D01*
X0236546Y0078073D01*
X0236546Y0076972D01*
X0234345Y0076972D01*
X0234712Y0079366D02*
X0234345Y0079733D01*
X0234345Y0080467D01*
X0234712Y0080834D01*
X0235079Y0080834D01*
X0236546Y0079366D01*
X0236546Y0080834D01*
X0250345Y0080649D02*
X0250345Y0079915D01*
X0250712Y0079548D01*
X0252179Y0079548D01*
X0250712Y0081016D01*
X0252179Y0081016D01*
X0252546Y0080649D01*
X0252546Y0079915D01*
X0252179Y0079548D01*
X0252179Y0078622D02*
X0252546Y0078255D01*
X0252546Y0077521D01*
X0252179Y0077154D01*
X0250712Y0077154D01*
X0250345Y0077521D01*
X0250345Y0078255D01*
X0250712Y0078622D01*
X0252179Y0078622D01*
X0252546Y0078622D02*
X0251812Y0077888D01*
X0251812Y0076228D02*
X0252179Y0076228D01*
X0252546Y0075861D01*
X0252546Y0074760D01*
X0250345Y0074760D01*
X0250345Y0075861D01*
X0250712Y0076228D01*
X0251079Y0076228D01*
X0251446Y0075861D01*
X0251446Y0074760D01*
X0251446Y0075861D02*
X0251812Y0076228D01*
X0252179Y0073834D02*
X0252546Y0073467D01*
X0252546Y0072733D01*
X0252179Y0072366D01*
X0250712Y0073834D01*
X0252179Y0073834D01*
X0253561Y0073960D02*
X0253561Y0073226D01*
X0253928Y0072859D01*
X0253928Y0071933D02*
X0253561Y0071566D01*
X0253561Y0070832D01*
X0253928Y0070465D01*
X0255396Y0070465D01*
X0255763Y0070832D01*
X0255763Y0071566D01*
X0255396Y0071933D01*
X0255396Y0072859D02*
X0255763Y0073226D01*
X0255763Y0073960D01*
X0255396Y0074327D01*
X0255029Y0074327D01*
X0254662Y0073960D01*
X0254662Y0073593D01*
X0254662Y0073960D02*
X0254295Y0074327D01*
X0253928Y0074327D01*
X0253561Y0073960D01*
X0250712Y0073834D02*
X0250345Y0073467D01*
X0250345Y0072733D01*
X0250712Y0072366D01*
X0252179Y0072366D01*
X0252546Y0071440D02*
X0252546Y0069972D01*
X0252546Y0070706D02*
X0250345Y0070706D01*
X0251079Y0069972D01*
X0253561Y0069603D02*
X0253561Y0068869D01*
X0253561Y0069236D02*
X0255763Y0069236D01*
X0255763Y0068869D02*
X0255763Y0069603D01*
X0274392Y0069510D02*
X0275126Y0068776D01*
X0275126Y0067850D02*
X0274759Y0067850D01*
X0274392Y0067483D01*
X0274392Y0066749D01*
X0274759Y0066382D01*
X0274759Y0065456D02*
X0276227Y0065456D01*
X0276594Y0065089D01*
X0276594Y0064355D01*
X0276227Y0063988D01*
X0274759Y0063988D01*
X0274392Y0064355D01*
X0274392Y0065089D01*
X0274759Y0065456D01*
X0275860Y0064722D02*
X0276594Y0065456D01*
X0276594Y0066382D02*
X0275126Y0067850D01*
X0276594Y0067850D02*
X0276594Y0066382D01*
X0276594Y0068776D02*
X0276594Y0070244D01*
X0276594Y0069510D02*
X0274392Y0069510D01*
X0274759Y0071170D02*
X0274392Y0071537D01*
X0274392Y0072271D01*
X0274759Y0072638D01*
X0276227Y0071170D01*
X0276594Y0071537D01*
X0276594Y0072271D01*
X0276227Y0072638D01*
X0274759Y0072638D01*
X0275493Y0073564D02*
X0275493Y0075032D01*
X0276594Y0074665D02*
X0274392Y0074665D01*
X0275493Y0073564D01*
X0276227Y0071170D02*
X0274759Y0071170D01*
X0283977Y0075147D02*
X0283977Y0077349D01*
X0285078Y0077349D01*
X0285445Y0076982D01*
X0285445Y0076248D01*
X0285078Y0075881D01*
X0283977Y0075881D01*
X0284711Y0075881D02*
X0285445Y0075147D01*
X0286371Y0075147D02*
X0287839Y0075147D01*
X0287105Y0075147D02*
X0287105Y0077349D01*
X0286371Y0076615D01*
X0288765Y0076248D02*
X0289866Y0077349D01*
X0289866Y0075147D01*
X0290233Y0076248D02*
X0288765Y0076248D01*
X0288921Y0078972D02*
X0288921Y0081174D01*
X0288187Y0080440D01*
X0290581Y0080807D02*
X0290948Y0081174D01*
X0291682Y0081174D01*
X0292049Y0080807D01*
X0290581Y0079339D01*
X0290948Y0078972D01*
X0291682Y0078972D01*
X0292049Y0079339D01*
X0292049Y0080807D01*
X0292975Y0080440D02*
X0292975Y0079339D01*
X0293342Y0078972D01*
X0294443Y0078972D01*
X0294443Y0080440D01*
X0295369Y0080073D02*
X0296103Y0080073D01*
X0295369Y0081174D02*
X0296837Y0081174D01*
X0295369Y0081174D02*
X0295369Y0078972D01*
X0301753Y0077570D02*
X0302853Y0077570D01*
X0303220Y0077203D01*
X0303220Y0076469D01*
X0302853Y0076102D01*
X0301753Y0076102D01*
X0302486Y0076102D02*
X0303220Y0075368D01*
X0304147Y0075368D02*
X0305614Y0075368D01*
X0304881Y0075368D02*
X0304881Y0077570D01*
X0304147Y0076836D01*
X0306541Y0076469D02*
X0307275Y0076836D01*
X0307642Y0076836D01*
X0308009Y0076469D01*
X0308009Y0075735D01*
X0307642Y0075368D01*
X0306908Y0075368D01*
X0306541Y0075735D01*
X0306541Y0076469D02*
X0306541Y0077570D01*
X0308009Y0077570D01*
X0301753Y0077570D02*
X0301753Y0075368D01*
X0289655Y0078972D02*
X0288187Y0078972D01*
X0290581Y0079339D02*
X0290581Y0080807D01*
X0282418Y0080818D02*
X0280950Y0080818D01*
X0280950Y0078616D01*
X0280024Y0078616D02*
X0280024Y0080084D01*
X0280950Y0079717D02*
X0281684Y0079717D01*
X0280024Y0078616D02*
X0278923Y0078616D01*
X0278556Y0078983D01*
X0278556Y0080084D01*
X0277630Y0080451D02*
X0276162Y0078983D01*
X0276529Y0078616D01*
X0277263Y0078616D01*
X0277630Y0078983D01*
X0277630Y0080451D01*
X0277263Y0080818D01*
X0276529Y0080818D01*
X0276162Y0080451D01*
X0276162Y0078983D01*
X0275236Y0078616D02*
X0273768Y0078616D01*
X0274502Y0078616D02*
X0274502Y0080818D01*
X0273768Y0080084D01*
X0269986Y0080504D02*
X0268518Y0080504D01*
X0268518Y0078302D01*
X0267592Y0078302D02*
X0267592Y0079403D01*
X0267225Y0079770D01*
X0266124Y0079770D01*
X0266124Y0078302D01*
X0265198Y0078669D02*
X0265198Y0080137D01*
X0263730Y0078669D01*
X0264097Y0078302D01*
X0264831Y0078302D01*
X0265198Y0078669D01*
X0263730Y0078669D02*
X0263730Y0080137D01*
X0264097Y0080504D01*
X0264831Y0080504D01*
X0265198Y0080137D01*
X0262804Y0078302D02*
X0261336Y0078302D01*
X0262070Y0078302D02*
X0262070Y0080504D01*
X0261336Y0079770D01*
X0268518Y0079403D02*
X0269252Y0079403D01*
X0274392Y0077059D02*
X0274759Y0077426D01*
X0276227Y0075958D01*
X0276594Y0076325D01*
X0276594Y0077059D01*
X0276227Y0077426D01*
X0274759Y0077426D01*
X0274392Y0077059D02*
X0274392Y0076325D01*
X0274759Y0075958D01*
X0276227Y0075958D01*
X0252546Y0081942D02*
X0252546Y0083410D01*
X0252546Y0082676D02*
X0250345Y0082676D01*
X0251079Y0081942D01*
X0250712Y0081016D02*
X0250345Y0080649D01*
X0250345Y0084336D02*
X0251446Y0084336D01*
X0251079Y0085070D01*
X0251079Y0085437D01*
X0251446Y0085804D01*
X0252179Y0085804D01*
X0252546Y0085437D01*
X0252546Y0084703D01*
X0252179Y0084336D01*
X0250345Y0084336D02*
X0250345Y0085804D01*
X0262911Y0087252D02*
X0262911Y0088720D01*
X0263278Y0089087D01*
X0264012Y0089087D01*
X0264379Y0088720D01*
X0265305Y0088353D02*
X0266039Y0089087D01*
X0266039Y0086885D01*
X0265305Y0086885D02*
X0266773Y0086885D01*
X0267699Y0087986D02*
X0269167Y0087986D01*
X0268800Y0089087D02*
X0267699Y0087986D01*
X0268800Y0086885D02*
X0268800Y0089087D01*
X0264379Y0087252D02*
X0264012Y0086885D01*
X0263278Y0086885D01*
X0262911Y0087252D01*
X0275335Y0087762D02*
X0275702Y0087395D01*
X0276436Y0087395D01*
X0276803Y0087762D01*
X0277729Y0087395D02*
X0279197Y0087395D01*
X0278463Y0087395D02*
X0278463Y0089597D01*
X0277729Y0088863D01*
X0276803Y0089230D02*
X0276436Y0089597D01*
X0275702Y0089597D01*
X0275335Y0089230D01*
X0275335Y0087762D01*
X0280123Y0087762D02*
X0280490Y0087395D01*
X0281224Y0087395D01*
X0281591Y0087762D01*
X0281591Y0088496D01*
X0281224Y0088863D01*
X0280857Y0088863D01*
X0280123Y0088496D01*
X0280123Y0089597D01*
X0281591Y0089597D01*
X0289761Y0088956D02*
X0289761Y0087488D01*
X0290128Y0087121D01*
X0290862Y0087121D01*
X0291229Y0087488D01*
X0292155Y0087488D02*
X0292522Y0087121D01*
X0293256Y0087121D01*
X0293623Y0087488D01*
X0293623Y0087855D01*
X0293256Y0088222D01*
X0292155Y0088222D01*
X0292155Y0087488D01*
X0292155Y0088222D02*
X0292889Y0088956D01*
X0293623Y0089323D01*
X0291229Y0088956D02*
X0290862Y0089323D01*
X0290128Y0089323D01*
X0289761Y0088956D01*
X0287341Y0064936D02*
X0287341Y0062734D01*
X0287341Y0063468D02*
X0288442Y0062734D01*
X0287341Y0063468D02*
X0288442Y0064202D01*
X0286415Y0062734D02*
X0284947Y0062734D01*
X0285681Y0062734D02*
X0285681Y0064936D01*
X0284947Y0064202D01*
X0276594Y0062695D02*
X0276594Y0061594D01*
X0274392Y0061594D01*
X0274392Y0062695D01*
X0274759Y0063062D01*
X0275126Y0063062D01*
X0275493Y0062695D01*
X0275493Y0061594D01*
X0275493Y0062695D02*
X0275860Y0063062D01*
X0276227Y0063062D01*
X0276594Y0062695D01*
X0276015Y0056928D02*
X0276382Y0056561D01*
X0276382Y0055827D01*
X0276015Y0055460D01*
X0274914Y0055460D01*
X0275648Y0055460D02*
X0276382Y0054726D01*
X0277308Y0054726D02*
X0278776Y0054726D01*
X0278042Y0054726D02*
X0278042Y0056928D01*
X0277308Y0056194D01*
X0276015Y0056928D02*
X0274914Y0056928D01*
X0274914Y0054726D01*
X0279702Y0055093D02*
X0279702Y0055827D01*
X0280803Y0055827D01*
X0281170Y0055460D01*
X0281170Y0055093D01*
X0280803Y0054726D01*
X0280069Y0054726D01*
X0279702Y0055093D01*
X0279702Y0055827D02*
X0280436Y0056561D01*
X0281170Y0056928D01*
X0267103Y0056435D02*
X0266736Y0056802D01*
X0266002Y0056802D01*
X0265635Y0056435D01*
X0267103Y0056435D02*
X0267103Y0056068D01*
X0265635Y0054600D01*
X0267103Y0054600D01*
X0264709Y0054600D02*
X0263241Y0054600D01*
X0263975Y0054600D02*
X0263975Y0056802D01*
X0263241Y0056068D01*
X0262315Y0056435D02*
X0261948Y0056802D01*
X0261214Y0056802D01*
X0260847Y0056435D01*
X0260847Y0054967D01*
X0261214Y0054600D01*
X0261948Y0054600D01*
X0262315Y0054967D01*
X0301947Y0062718D02*
X0303415Y0062718D01*
X0302681Y0062718D02*
X0302681Y0064920D01*
X0301947Y0064186D01*
X0304341Y0064553D02*
X0304341Y0063085D01*
X0305809Y0064553D01*
X0305809Y0063085D01*
X0305442Y0062718D01*
X0304708Y0062718D01*
X0304341Y0063085D01*
X0304341Y0064553D02*
X0304708Y0064920D01*
X0305442Y0064920D01*
X0305809Y0064553D01*
X0306735Y0064920D02*
X0306735Y0062718D01*
X0306735Y0063452D02*
X0307836Y0064186D01*
X0306735Y0063452D02*
X0307836Y0062718D01*
X0310467Y0059279D02*
X0310100Y0058912D01*
X0310100Y0058178D01*
X0310467Y0057811D01*
X0310467Y0056885D02*
X0310100Y0056518D01*
X0310100Y0055417D01*
X0312302Y0055417D01*
X0312302Y0056518D01*
X0311935Y0056885D01*
X0310467Y0056885D01*
X0312302Y0057811D02*
X0310834Y0059279D01*
X0310467Y0059279D01*
X0312302Y0059279D02*
X0312302Y0057811D01*
X0312302Y0054491D02*
X0312302Y0053023D01*
X0310100Y0053023D01*
X0310100Y0054491D01*
X0311201Y0053757D02*
X0311201Y0053023D01*
X0312302Y0052097D02*
X0312302Y0050629D01*
X0310100Y0050629D01*
X0330878Y0049251D02*
X0333080Y0049251D01*
X0332713Y0048325D02*
X0333080Y0047958D01*
X0333080Y0047224D01*
X0332713Y0046857D01*
X0331245Y0046857D01*
X0330878Y0047224D01*
X0330878Y0047958D01*
X0331245Y0048325D01*
X0331979Y0049251D02*
X0331612Y0049618D01*
X0331612Y0050352D01*
X0331979Y0050719D01*
X0333080Y0050719D01*
X0332713Y0051645D02*
X0332346Y0052012D01*
X0332346Y0053113D01*
X0331979Y0053113D02*
X0333080Y0053113D01*
X0333080Y0052012D01*
X0332713Y0051645D01*
X0331612Y0052012D02*
X0331612Y0052746D01*
X0331979Y0053113D01*
X0332346Y0054039D02*
X0331612Y0054773D01*
X0331612Y0055140D01*
X0331979Y0056034D02*
X0332713Y0056034D01*
X0333080Y0056401D01*
X0333080Y0057502D01*
X0333447Y0057502D02*
X0331612Y0057502D01*
X0331612Y0056401D01*
X0331979Y0056034D01*
X0333813Y0056768D02*
X0333813Y0057135D01*
X0333447Y0057502D01*
X0332713Y0058428D02*
X0331979Y0058428D01*
X0331612Y0058795D01*
X0331612Y0059529D01*
X0331979Y0059896D01*
X0332346Y0059896D01*
X0332346Y0058428D01*
X0332713Y0058428D02*
X0333080Y0058795D01*
X0333080Y0059529D01*
X0322520Y0063197D02*
X0321052Y0063197D01*
X0321786Y0062463D02*
X0321786Y0063931D01*
X0331612Y0054039D02*
X0333080Y0054039D01*
X0338415Y0043729D02*
X0339516Y0043729D01*
X0339883Y0043362D01*
X0339883Y0042628D01*
X0339516Y0042261D01*
X0338415Y0042261D01*
X0339149Y0042261D02*
X0339883Y0041527D01*
X0340809Y0041527D02*
X0342277Y0041527D01*
X0341543Y0041527D02*
X0341543Y0043729D01*
X0340809Y0042995D01*
X0343203Y0043362D02*
X0343570Y0043729D01*
X0344304Y0043729D01*
X0344671Y0043362D01*
X0344671Y0042995D01*
X0343203Y0041527D01*
X0344671Y0041527D01*
X0338415Y0041527D02*
X0338415Y0043729D01*
X0323157Y0039922D02*
X0321690Y0039922D01*
X0322423Y0039188D02*
X0322423Y0040656D01*
X0321746Y0041637D02*
X0321746Y0043105D01*
X0308088Y0035725D02*
X0308088Y0035358D01*
X0308088Y0035725D02*
X0307721Y0036092D01*
X0305886Y0036092D01*
X0307354Y0036092D02*
X0307354Y0034991D01*
X0306987Y0034624D01*
X0305886Y0034624D01*
X0305886Y0033730D02*
X0305886Y0033363D01*
X0306620Y0032629D01*
X0307354Y0032629D02*
X0305886Y0032629D01*
X0306253Y0031703D02*
X0306620Y0031703D01*
X0306620Y0030235D01*
X0306987Y0030235D02*
X0306253Y0030235D01*
X0305886Y0030602D01*
X0305886Y0031336D01*
X0306253Y0031703D01*
X0307354Y0031336D02*
X0307354Y0030602D01*
X0306987Y0030235D01*
X0307354Y0029373D02*
X0306987Y0029006D01*
X0305519Y0029006D01*
X0305886Y0028639D02*
X0305886Y0029373D01*
X0305886Y0027777D02*
X0305886Y0027043D01*
X0305519Y0027410D02*
X0306987Y0027410D01*
X0307354Y0027777D01*
X0307354Y0026117D02*
X0307354Y0025016D01*
X0306987Y0024649D01*
X0306620Y0025016D01*
X0306620Y0026117D01*
X0306253Y0026117D02*
X0307354Y0026117D01*
X0306253Y0026117D02*
X0305886Y0025750D01*
X0305886Y0025016D01*
X0311248Y0026081D02*
X0313450Y0026081D01*
X0313450Y0027548D01*
X0313450Y0028475D02*
X0311248Y0028475D01*
X0311248Y0029942D01*
X0311248Y0030869D02*
X0311248Y0031970D01*
X0311615Y0032337D01*
X0313083Y0032337D01*
X0313450Y0031970D01*
X0313450Y0030869D01*
X0311248Y0030869D01*
X0313450Y0029942D02*
X0313450Y0028475D01*
X0312349Y0028475D02*
X0312349Y0029209D01*
X0311982Y0033263D02*
X0311248Y0033997D01*
X0313450Y0033997D01*
X0313450Y0033263D02*
X0313450Y0034731D01*
X0331856Y0034632D02*
X0331856Y0034999D01*
X0331856Y0034632D02*
X0332590Y0033898D01*
X0333324Y0033898D02*
X0331856Y0033898D01*
X0332223Y0032972D02*
X0332590Y0032972D01*
X0332590Y0031504D01*
X0332957Y0031504D02*
X0332223Y0031504D01*
X0331856Y0031871D01*
X0331856Y0032605D01*
X0332223Y0032972D01*
X0333324Y0032605D02*
X0333324Y0031871D01*
X0332957Y0031504D01*
X0332957Y0030578D02*
X0331856Y0030578D01*
X0332957Y0030578D02*
X0333324Y0030211D01*
X0332957Y0029844D01*
X0333324Y0029477D01*
X0332957Y0029110D01*
X0331856Y0029110D01*
X0332223Y0028184D02*
X0331856Y0027817D01*
X0331856Y0027083D01*
X0332223Y0026716D01*
X0332957Y0026716D01*
X0333324Y0027083D01*
X0333324Y0027817D01*
X0332957Y0028184D01*
X0332223Y0028184D01*
X0332223Y0025790D02*
X0332590Y0025423D01*
X0332590Y0024322D01*
X0333324Y0024322D02*
X0331122Y0024322D01*
X0331122Y0025423D01*
X0331489Y0025790D01*
X0332223Y0025790D01*
X0338036Y0030081D02*
X0338403Y0029714D01*
X0339137Y0029714D01*
X0339504Y0030081D01*
X0339504Y0030448D01*
X0339137Y0030815D01*
X0338770Y0030815D01*
X0339137Y0030815D02*
X0339504Y0031182D01*
X0339504Y0031549D01*
X0339137Y0031916D01*
X0338403Y0031916D01*
X0338036Y0031549D01*
X0340430Y0031549D02*
X0340430Y0031182D01*
X0340797Y0030815D01*
X0341898Y0030815D01*
X0341898Y0030081D02*
X0341898Y0031549D01*
X0341531Y0031916D01*
X0340797Y0031916D01*
X0340430Y0031549D01*
X0340430Y0030081D02*
X0340797Y0029714D01*
X0341531Y0029714D01*
X0341898Y0030081D01*
X0342824Y0030081D02*
X0344292Y0031549D01*
X0344292Y0030081D01*
X0343925Y0029714D01*
X0343191Y0029714D01*
X0342824Y0030081D01*
X0342824Y0031549D01*
X0343191Y0031916D01*
X0343925Y0031916D01*
X0344292Y0031549D01*
X0307354Y0023356D02*
X0307354Y0022255D01*
X0305152Y0022255D01*
X0305152Y0023356D01*
X0305519Y0023723D01*
X0305886Y0023723D01*
X0306253Y0023356D01*
X0306253Y0022255D01*
X0306253Y0023356D02*
X0306620Y0023723D01*
X0306987Y0023723D01*
X0307354Y0023356D01*
X0292770Y0024387D02*
X0291302Y0024387D01*
X0292036Y0023653D02*
X0292036Y0025121D01*
X0297499Y0018007D02*
X0298233Y0018007D01*
X0297866Y0018007D02*
X0297866Y0016172D01*
X0297499Y0015805D01*
X0297132Y0015805D01*
X0296765Y0016172D01*
X0299159Y0016172D02*
X0299526Y0015805D01*
X0300260Y0015805D01*
X0300627Y0016172D01*
X0300627Y0016906D01*
X0300260Y0017273D01*
X0299893Y0017273D01*
X0299159Y0016906D01*
X0299159Y0018007D01*
X0300627Y0018007D01*
X0287641Y0017274D02*
X0286173Y0015072D01*
X0287641Y0015072D02*
X0286173Y0017274D01*
X0285246Y0017274D02*
X0285246Y0016907D01*
X0283779Y0015439D01*
X0283779Y0015072D01*
X0282852Y0015439D02*
X0282852Y0016907D01*
X0282485Y0017274D01*
X0281751Y0017274D01*
X0281384Y0016907D01*
X0281384Y0016540D01*
X0281751Y0016173D01*
X0282852Y0016173D01*
X0282852Y0015439D02*
X0282485Y0015072D01*
X0281751Y0015072D01*
X0281384Y0015439D01*
X0280458Y0015072D02*
X0278990Y0015072D01*
X0280458Y0016540D01*
X0280458Y0016907D01*
X0280091Y0017274D01*
X0279357Y0017274D01*
X0278990Y0016907D01*
X0278064Y0016907D02*
X0278064Y0015439D01*
X0277697Y0015072D01*
X0276963Y0015072D01*
X0276596Y0015439D01*
X0276596Y0016907D01*
X0276963Y0017274D01*
X0277697Y0017274D01*
X0278064Y0016907D01*
X0277330Y0015806D02*
X0278064Y0015072D01*
X0275670Y0015439D02*
X0275303Y0015072D01*
X0274202Y0015072D01*
X0274202Y0017274D01*
X0275303Y0017274D01*
X0275670Y0016907D01*
X0275670Y0016540D01*
X0275303Y0016173D01*
X0274202Y0016173D01*
X0275303Y0016173D02*
X0275670Y0015806D01*
X0275670Y0015439D01*
X0283779Y0017274D02*
X0285246Y0017274D01*
X0322581Y0018676D02*
X0322581Y0020144D01*
X0198596Y0079857D02*
X0197128Y0079857D01*
X0197862Y0079857D02*
X0197862Y0082059D01*
X0197128Y0081325D01*
X0196202Y0079857D02*
X0194734Y0079857D01*
X0195468Y0079857D02*
X0195468Y0082059D01*
X0194734Y0081325D01*
X0193808Y0081692D02*
X0193441Y0082059D01*
X0192707Y0082059D01*
X0192340Y0081692D01*
X0192340Y0080224D01*
X0192707Y0079857D01*
X0193441Y0079857D01*
X0193808Y0080224D01*
X0192852Y0105802D02*
X0192852Y0110406D01*
X0195154Y0110406D01*
X0195921Y0109639D01*
X0195921Y0108104D01*
X0195154Y0107337D01*
X0192852Y0107337D01*
X0194387Y0107337D02*
X0195921Y0105802D01*
X0197456Y0106570D02*
X0198223Y0105802D01*
X0199758Y0105802D01*
X0200525Y0106570D01*
X0200525Y0107337D01*
X0199758Y0108104D01*
X0197456Y0108104D01*
X0197456Y0106570D01*
X0197456Y0108104D02*
X0198991Y0109639D01*
X0200525Y0110406D01*
X0040930Y0071697D02*
X0039462Y0071697D01*
X0040563Y0072798D01*
X0040563Y0070596D01*
X0038536Y0070963D02*
X0038169Y0070596D01*
X0037435Y0070596D01*
X0037068Y0070963D01*
X0037068Y0072431D01*
X0037435Y0072798D01*
X0038169Y0072798D01*
X0038536Y0072431D01*
D11*
X0039894Y0029935D02*
X0042094Y0029935D01*
X0039894Y0029935D02*
X0039894Y0026735D01*
X0048894Y0029935D02*
X0051094Y0029935D01*
X0051094Y0026735D01*
X0326220Y0034135D02*
X0326339Y0034043D01*
X0326456Y0033949D01*
X0326570Y0033851D01*
X0326682Y0033751D01*
X0326792Y0033647D01*
X0326898Y0033542D01*
X0327003Y0033433D01*
X0327104Y0033322D01*
X0327202Y0033208D01*
X0327298Y0033092D01*
X0327391Y0032974D01*
X0327480Y0032853D01*
X0327567Y0032730D01*
X0327650Y0032605D01*
X0327731Y0032478D01*
X0327808Y0032349D01*
X0327882Y0032218D01*
X0327953Y0032085D01*
X0328020Y0031951D01*
X0328084Y0031815D01*
X0328144Y0031677D01*
X0328201Y0031538D01*
X0328254Y0031397D01*
X0328304Y0031255D01*
X0328351Y0031112D01*
X0328393Y0030968D01*
X0328433Y0030823D01*
X0328468Y0030677D01*
X0328500Y0030530D01*
X0328528Y0030382D01*
X0328552Y0030234D01*
X0328573Y0030085D01*
X0328590Y0029935D01*
X0328603Y0029786D01*
X0328612Y0029636D01*
X0328618Y0029485D01*
X0328620Y0029335D01*
X0318937Y0034071D02*
X0318818Y0033977D01*
X0318702Y0033879D01*
X0318588Y0033779D01*
X0318477Y0033675D01*
X0318369Y0033569D01*
X0318263Y0033461D01*
X0318161Y0033349D01*
X0318061Y0033235D01*
X0317963Y0033119D01*
X0317869Y0033000D01*
X0317778Y0032879D01*
X0317690Y0032755D01*
X0317605Y0032629D01*
X0317524Y0032502D01*
X0317445Y0032372D01*
X0317370Y0032240D01*
X0317299Y0032107D01*
X0317230Y0031971D01*
X0317165Y0031834D01*
X0317104Y0031696D01*
X0317046Y0031555D01*
X0316992Y0031414D01*
X0316941Y0031271D01*
X0316894Y0031127D01*
X0316850Y0030982D01*
X0316811Y0030835D01*
X0316775Y0030688D01*
X0316742Y0030540D01*
X0316714Y0030391D01*
X0316689Y0030241D01*
X0316668Y0030091D01*
X0316651Y0029941D01*
X0316637Y0029789D01*
X0316628Y0029638D01*
X0316622Y0029487D01*
X0316620Y0029335D01*
X0326107Y0024453D02*
X0326232Y0024544D01*
X0326354Y0024638D01*
X0326473Y0024736D01*
X0326590Y0024836D01*
X0326704Y0024940D01*
X0326816Y0025046D01*
X0326924Y0025155D01*
X0327030Y0025267D01*
X0327133Y0025382D01*
X0327233Y0025499D01*
X0327331Y0025619D01*
X0327424Y0025741D01*
X0327515Y0025865D01*
X0327603Y0025992D01*
X0327687Y0026121D01*
X0327768Y0026253D01*
X0327845Y0026386D01*
X0327919Y0026521D01*
X0327990Y0026658D01*
X0328057Y0026797D01*
X0328120Y0026937D01*
X0328180Y0027080D01*
X0328236Y0027223D01*
X0328288Y0027368D01*
X0328337Y0027514D01*
X0328382Y0027662D01*
X0328423Y0027810D01*
X0328460Y0027960D01*
X0328494Y0028110D01*
X0328523Y0028262D01*
X0328549Y0028414D01*
X0328571Y0028566D01*
X0328588Y0028719D01*
X0328602Y0028873D01*
X0328612Y0029027D01*
X0328618Y0029181D01*
X0328620Y0029335D01*
X0318937Y0024599D02*
X0318818Y0024693D01*
X0318702Y0024791D01*
X0318588Y0024891D01*
X0318477Y0024995D01*
X0318369Y0025101D01*
X0318263Y0025209D01*
X0318161Y0025321D01*
X0318061Y0025435D01*
X0317963Y0025551D01*
X0317869Y0025670D01*
X0317778Y0025791D01*
X0317690Y0025915D01*
X0317605Y0026041D01*
X0317524Y0026168D01*
X0317445Y0026298D01*
X0317370Y0026430D01*
X0317299Y0026563D01*
X0317230Y0026699D01*
X0317165Y0026836D01*
X0317104Y0026974D01*
X0317046Y0027115D01*
X0316992Y0027256D01*
X0316941Y0027399D01*
X0316894Y0027543D01*
X0316850Y0027688D01*
X0316811Y0027835D01*
X0316775Y0027982D01*
X0316742Y0028130D01*
X0316714Y0028279D01*
X0316689Y0028429D01*
X0316668Y0028579D01*
X0316651Y0028729D01*
X0316637Y0028881D01*
X0316628Y0029032D01*
X0316622Y0029183D01*
X0316620Y0029335D01*
X0315825Y0052768D02*
X0315827Y0052920D01*
X0315833Y0053071D01*
X0315842Y0053222D01*
X0315856Y0053374D01*
X0315873Y0053524D01*
X0315894Y0053674D01*
X0315919Y0053824D01*
X0315947Y0053973D01*
X0315980Y0054121D01*
X0316016Y0054268D01*
X0316055Y0054415D01*
X0316099Y0054560D01*
X0316146Y0054704D01*
X0316197Y0054847D01*
X0316251Y0054988D01*
X0316309Y0055129D01*
X0316370Y0055267D01*
X0316435Y0055404D01*
X0316504Y0055540D01*
X0316575Y0055673D01*
X0316650Y0055805D01*
X0316729Y0055935D01*
X0316810Y0056062D01*
X0316895Y0056188D01*
X0316983Y0056312D01*
X0317074Y0056433D01*
X0317168Y0056552D01*
X0317266Y0056668D01*
X0317366Y0056782D01*
X0317468Y0056894D01*
X0317574Y0057002D01*
X0317682Y0057108D01*
X0317793Y0057212D01*
X0317907Y0057312D01*
X0318023Y0057410D01*
X0318142Y0057504D01*
X0327825Y0052768D02*
X0327823Y0052614D01*
X0327817Y0052460D01*
X0327807Y0052306D01*
X0327793Y0052152D01*
X0327776Y0051999D01*
X0327754Y0051847D01*
X0327728Y0051695D01*
X0327699Y0051543D01*
X0327665Y0051393D01*
X0327628Y0051243D01*
X0327587Y0051095D01*
X0327542Y0050947D01*
X0327493Y0050801D01*
X0327441Y0050656D01*
X0327385Y0050513D01*
X0327325Y0050370D01*
X0327262Y0050230D01*
X0327195Y0050091D01*
X0327124Y0049954D01*
X0327050Y0049819D01*
X0326973Y0049686D01*
X0326892Y0049554D01*
X0326808Y0049425D01*
X0326720Y0049298D01*
X0326629Y0049174D01*
X0326536Y0049052D01*
X0326438Y0048932D01*
X0326338Y0048815D01*
X0326235Y0048700D01*
X0326129Y0048588D01*
X0326021Y0048479D01*
X0325909Y0048373D01*
X0325795Y0048269D01*
X0325678Y0048169D01*
X0325559Y0048071D01*
X0325437Y0047977D01*
X0325312Y0047886D01*
X0327825Y0052768D02*
X0327823Y0052918D01*
X0327817Y0053069D01*
X0327808Y0053219D01*
X0327795Y0053368D01*
X0327778Y0053518D01*
X0327757Y0053667D01*
X0327733Y0053815D01*
X0327705Y0053963D01*
X0327673Y0054110D01*
X0327638Y0054256D01*
X0327598Y0054401D01*
X0327556Y0054545D01*
X0327509Y0054688D01*
X0327459Y0054830D01*
X0327406Y0054971D01*
X0327349Y0055110D01*
X0327289Y0055248D01*
X0327225Y0055384D01*
X0327158Y0055518D01*
X0327087Y0055651D01*
X0327013Y0055782D01*
X0326936Y0055911D01*
X0326855Y0056038D01*
X0326772Y0056163D01*
X0326685Y0056286D01*
X0326596Y0056407D01*
X0326503Y0056525D01*
X0326407Y0056641D01*
X0326309Y0056755D01*
X0326208Y0056866D01*
X0326103Y0056975D01*
X0325997Y0057080D01*
X0325887Y0057184D01*
X0325775Y0057284D01*
X0325661Y0057382D01*
X0325544Y0057476D01*
X0325425Y0057568D01*
X0315825Y0052768D02*
X0315827Y0052616D01*
X0315833Y0052465D01*
X0315842Y0052314D01*
X0315856Y0052162D01*
X0315873Y0052012D01*
X0315894Y0051862D01*
X0315919Y0051712D01*
X0315947Y0051563D01*
X0315980Y0051415D01*
X0316016Y0051268D01*
X0316055Y0051121D01*
X0316099Y0050976D01*
X0316146Y0050832D01*
X0316197Y0050689D01*
X0316251Y0050548D01*
X0316309Y0050407D01*
X0316370Y0050269D01*
X0316435Y0050132D01*
X0316504Y0049996D01*
X0316575Y0049863D01*
X0316650Y0049731D01*
X0316729Y0049601D01*
X0316810Y0049474D01*
X0316895Y0049348D01*
X0316983Y0049224D01*
X0317074Y0049103D01*
X0317168Y0048984D01*
X0317266Y0048868D01*
X0317366Y0048754D01*
X0317468Y0048642D01*
X0317574Y0048534D01*
X0317682Y0048428D01*
X0317793Y0048324D01*
X0317907Y0048224D01*
X0318023Y0048126D01*
X0318142Y0048032D01*
D12*
X0329825Y0052767D02*
X0329823Y0052959D01*
X0329816Y0053151D01*
X0329804Y0053343D01*
X0329788Y0053535D01*
X0329767Y0053726D01*
X0329742Y0053916D01*
X0329712Y0054106D01*
X0329678Y0054295D01*
X0329639Y0054483D01*
X0329595Y0054670D01*
X0329547Y0054856D01*
X0329495Y0055041D01*
X0329438Y0055225D01*
X0329377Y0055407D01*
X0329311Y0055587D01*
X0329241Y0055766D01*
X0329167Y0055944D01*
X0329089Y0056119D01*
X0329006Y0056293D01*
X0328919Y0056464D01*
X0328829Y0056633D01*
X0328734Y0056800D01*
X0328635Y0056965D01*
X0328532Y0057128D01*
X0328425Y0057287D01*
X0328315Y0057445D01*
X0328201Y0057599D01*
X0328083Y0057751D01*
X0327961Y0057900D01*
X0327836Y0058046D01*
X0327708Y0058188D01*
X0327576Y0058328D01*
X0327441Y0058465D01*
X0327302Y0058598D01*
X0327161Y0058728D01*
X0327016Y0058854D01*
X0326868Y0058977D01*
X0326718Y0059096D01*
X0326564Y0059212D01*
X0326408Y0059324D01*
X0326249Y0059432D01*
X0326088Y0059537D01*
X0325924Y0059637D01*
X0325758Y0059733D01*
X0325590Y0059826D01*
X0317856Y0059714D02*
X0317687Y0059615D01*
X0317521Y0059511D01*
X0317357Y0059404D01*
X0317196Y0059293D01*
X0317038Y0059178D01*
X0316883Y0059059D01*
X0316730Y0058936D01*
X0316581Y0058810D01*
X0316435Y0058680D01*
X0316292Y0058546D01*
X0316152Y0058409D01*
X0316016Y0058269D01*
X0315883Y0058125D01*
X0315754Y0057978D01*
X0315628Y0057828D01*
X0315507Y0057675D01*
X0315388Y0057519D01*
X0315274Y0057360D01*
X0315164Y0057199D01*
X0315058Y0057034D01*
X0314955Y0056868D01*
X0314857Y0056698D01*
X0314763Y0056527D01*
X0314673Y0056353D01*
X0314588Y0056177D01*
X0314506Y0055999D01*
X0314430Y0055819D01*
X0314357Y0055637D01*
X0314289Y0055454D01*
X0314226Y0055269D01*
X0314167Y0055082D01*
X0314113Y0054894D01*
X0314063Y0054705D01*
X0314018Y0054515D01*
X0313978Y0054323D01*
X0313942Y0054131D01*
X0313911Y0053938D01*
X0313885Y0053744D01*
X0313863Y0053549D01*
X0313847Y0053354D01*
X0313835Y0053159D01*
X0313827Y0052963D01*
X0313825Y0052768D01*
X0313827Y0052575D01*
X0313834Y0052382D01*
X0313846Y0052190D01*
X0313862Y0051997D01*
X0313883Y0051805D01*
X0313909Y0051614D01*
X0313939Y0051424D01*
X0313974Y0051234D01*
X0314013Y0051045D01*
X0314057Y0050857D01*
X0314105Y0050670D01*
X0314158Y0050484D01*
X0314215Y0050300D01*
X0314277Y0050117D01*
X0314343Y0049936D01*
X0314414Y0049756D01*
X0314488Y0049578D01*
X0314567Y0049402D01*
X0314651Y0049228D01*
X0314738Y0049056D01*
X0314830Y0048886D01*
X0314926Y0048719D01*
X0315025Y0048553D01*
X0315129Y0048390D01*
X0315236Y0048230D01*
X0315348Y0048073D01*
X0315463Y0047918D01*
X0315582Y0047766D01*
X0315704Y0047617D01*
X0315830Y0047470D01*
X0315960Y0047327D01*
X0316093Y0047187D01*
X0316229Y0047051D01*
X0316369Y0046917D01*
X0316511Y0046788D01*
X0316657Y0046661D01*
X0326947Y0046622D02*
X0327095Y0046749D01*
X0327240Y0046879D01*
X0327381Y0047012D01*
X0327520Y0047149D01*
X0327655Y0047289D01*
X0327786Y0047433D01*
X0327914Y0047580D01*
X0328039Y0047729D01*
X0328160Y0047882D01*
X0328277Y0048037D01*
X0328390Y0048196D01*
X0328499Y0048357D01*
X0328604Y0048521D01*
X0328706Y0048687D01*
X0328803Y0048856D01*
X0328896Y0049026D01*
X0328985Y0049200D01*
X0329070Y0049375D01*
X0329150Y0049552D01*
X0329226Y0049731D01*
X0329298Y0049912D01*
X0329365Y0050095D01*
X0329428Y0050279D01*
X0329486Y0050465D01*
X0329540Y0050652D01*
X0329589Y0050840D01*
X0329634Y0051030D01*
X0329674Y0051220D01*
X0329709Y0051412D01*
X0329740Y0051604D01*
X0329766Y0051797D01*
X0329787Y0051991D01*
X0329804Y0052185D01*
X0329816Y0052379D01*
X0329823Y0052573D01*
X0329825Y0052768D01*
X0318651Y0036281D02*
X0318482Y0036182D01*
X0318316Y0036078D01*
X0318152Y0035971D01*
X0317991Y0035860D01*
X0317833Y0035745D01*
X0317678Y0035626D01*
X0317525Y0035503D01*
X0317376Y0035377D01*
X0317230Y0035247D01*
X0317087Y0035113D01*
X0316947Y0034976D01*
X0316811Y0034836D01*
X0316678Y0034692D01*
X0316549Y0034545D01*
X0316423Y0034395D01*
X0316302Y0034242D01*
X0316183Y0034086D01*
X0316069Y0033927D01*
X0315959Y0033766D01*
X0315853Y0033601D01*
X0315750Y0033435D01*
X0315652Y0033265D01*
X0315558Y0033094D01*
X0315468Y0032920D01*
X0315383Y0032744D01*
X0315301Y0032566D01*
X0315225Y0032386D01*
X0315152Y0032204D01*
X0315084Y0032021D01*
X0315021Y0031836D01*
X0314962Y0031649D01*
X0314908Y0031461D01*
X0314858Y0031272D01*
X0314813Y0031082D01*
X0314773Y0030890D01*
X0314737Y0030698D01*
X0314706Y0030505D01*
X0314680Y0030311D01*
X0314658Y0030116D01*
X0314642Y0029921D01*
X0314630Y0029726D01*
X0314622Y0029530D01*
X0314620Y0029335D01*
X0326385Y0036393D02*
X0326553Y0036300D01*
X0326719Y0036204D01*
X0326883Y0036104D01*
X0327044Y0035999D01*
X0327203Y0035891D01*
X0327359Y0035779D01*
X0327513Y0035663D01*
X0327663Y0035544D01*
X0327811Y0035421D01*
X0327956Y0035295D01*
X0328097Y0035165D01*
X0328236Y0035032D01*
X0328371Y0034895D01*
X0328503Y0034755D01*
X0328631Y0034613D01*
X0328756Y0034467D01*
X0328878Y0034318D01*
X0328996Y0034166D01*
X0329110Y0034012D01*
X0329220Y0033854D01*
X0329327Y0033695D01*
X0329430Y0033532D01*
X0329529Y0033367D01*
X0329624Y0033200D01*
X0329714Y0033031D01*
X0329801Y0032860D01*
X0329884Y0032686D01*
X0329962Y0032511D01*
X0330036Y0032333D01*
X0330106Y0032154D01*
X0330172Y0031974D01*
X0330233Y0031792D01*
X0330290Y0031608D01*
X0330342Y0031423D01*
X0330390Y0031237D01*
X0330434Y0031050D01*
X0330473Y0030862D01*
X0330507Y0030673D01*
X0330537Y0030483D01*
X0330562Y0030293D01*
X0330583Y0030102D01*
X0330599Y0029910D01*
X0330611Y0029718D01*
X0330618Y0029526D01*
X0330620Y0029334D01*
X0317452Y0023227D02*
X0317306Y0023354D01*
X0317164Y0023483D01*
X0317024Y0023617D01*
X0316888Y0023753D01*
X0316755Y0023893D01*
X0316625Y0024036D01*
X0316499Y0024183D01*
X0316377Y0024332D01*
X0316258Y0024484D01*
X0316143Y0024639D01*
X0316031Y0024796D01*
X0315924Y0024956D01*
X0315820Y0025119D01*
X0315721Y0025285D01*
X0315625Y0025452D01*
X0315533Y0025622D01*
X0315446Y0025794D01*
X0315362Y0025968D01*
X0315283Y0026144D01*
X0315209Y0026322D01*
X0315138Y0026502D01*
X0315072Y0026683D01*
X0315010Y0026866D01*
X0314953Y0027050D01*
X0314900Y0027236D01*
X0314852Y0027423D01*
X0314808Y0027611D01*
X0314769Y0027800D01*
X0314734Y0027990D01*
X0314704Y0028180D01*
X0314678Y0028371D01*
X0314657Y0028563D01*
X0314641Y0028756D01*
X0314629Y0028948D01*
X0314622Y0029141D01*
X0314620Y0029334D01*
X0327742Y0023189D02*
X0327890Y0023316D01*
X0328035Y0023446D01*
X0328176Y0023579D01*
X0328315Y0023716D01*
X0328450Y0023856D01*
X0328581Y0024000D01*
X0328709Y0024147D01*
X0328834Y0024296D01*
X0328955Y0024449D01*
X0329072Y0024604D01*
X0329185Y0024763D01*
X0329294Y0024924D01*
X0329399Y0025088D01*
X0329501Y0025254D01*
X0329598Y0025423D01*
X0329691Y0025593D01*
X0329780Y0025767D01*
X0329865Y0025942D01*
X0329945Y0026119D01*
X0330021Y0026298D01*
X0330093Y0026479D01*
X0330160Y0026662D01*
X0330223Y0026846D01*
X0330281Y0027032D01*
X0330335Y0027219D01*
X0330384Y0027407D01*
X0330429Y0027597D01*
X0330469Y0027787D01*
X0330504Y0027979D01*
X0330535Y0028171D01*
X0330561Y0028364D01*
X0330582Y0028558D01*
X0330599Y0028752D01*
X0330611Y0028946D01*
X0330618Y0029140D01*
X0330620Y0029335D01*
D13*
X0304128Y0031744D02*
X0301628Y0029244D01*
X0304128Y0026744D01*
X0304128Y0021744D01*
X0301628Y0019244D01*
X0296628Y0019244D01*
X0294128Y0021744D01*
X0294128Y0026744D01*
X0296628Y0029244D01*
X0294128Y0031744D01*
X0294128Y0036744D01*
X0296628Y0039244D01*
X0301628Y0039244D01*
X0304128Y0036744D01*
X0304128Y0031744D01*
X0247487Y0052445D02*
X0247487Y0058744D01*
X0243550Y0058744D02*
X0240006Y0058744D01*
X0236069Y0058744D02*
X0236069Y0052445D01*
X0262144Y0064252D02*
X0268443Y0064252D01*
X0262144Y0068189D02*
X0262144Y0071732D01*
X0262144Y0075669D02*
X0268443Y0075669D01*
X0248955Y0069717D02*
X0247183Y0069717D01*
X0248955Y0069717D02*
X0248955Y0087827D01*
X0247183Y0087827D01*
X0239309Y0087827D02*
X0237538Y0087827D01*
X0237538Y0069717D01*
X0239309Y0069717D01*
X0239309Y0082709D02*
X0247183Y0082709D01*
X0150292Y0090594D02*
X0150292Y0073272D01*
X0113658Y0073272D01*
X0113658Y0090594D01*
X0150292Y0090594D01*
X0127725Y0083683D02*
X0126225Y0081933D01*
X0127725Y0080183D01*
X0127725Y0083683D01*
X0126225Y0083683D02*
X0126225Y0080183D01*
X0100309Y0071374D02*
X0100309Y0059169D01*
X0088203Y0059169D01*
X0088203Y0071374D01*
X0100309Y0071374D01*
X0174168Y0040953D02*
X0174168Y0037803D01*
X0174168Y0040953D02*
X0176530Y0040953D01*
X0182829Y0040953D02*
X0185191Y0040953D01*
X0185191Y0037803D01*
D14*
X0090762Y0061728D03*
D15*
X0191904Y0033157D02*
X0195841Y0033157D01*
X0191932Y0033086D02*
X0191932Y0029220D01*
X0191904Y0029220D01*
X0219463Y0033157D02*
X0223400Y0033157D01*
X0223400Y0029220D01*
X0223400Y0017409D02*
X0223400Y0013472D01*
X0191904Y0013472D02*
X0191904Y0017409D01*
D16*
X0265054Y0023000D03*
X0275019Y0020047D03*
D17*
X0228321Y0046075D02*
X0186983Y0046075D01*
X0186983Y0075602D01*
X0186989Y0076105D01*
X0187008Y0076608D01*
X0187038Y0077111D01*
X0187081Y0077612D01*
X0187136Y0078113D01*
X0187203Y0078611D01*
X0187283Y0079108D01*
X0187374Y0079603D01*
X0187477Y0080096D01*
X0187593Y0080586D01*
X0187720Y0081073D01*
X0187859Y0081557D01*
X0188010Y0082037D01*
X0188173Y0082513D01*
X0188347Y0082986D01*
X0188532Y0083454D01*
X0188729Y0083917D01*
X0188937Y0084375D01*
X0189156Y0084828D01*
X0189387Y0085276D01*
X0189628Y0085718D01*
X0189879Y0086154D01*
X0190141Y0086583D01*
X0190414Y0087006D01*
X0190697Y0087423D01*
X0190990Y0087832D01*
X0191293Y0088234D01*
X0191605Y0088629D01*
X0191927Y0089016D01*
X0192258Y0089395D01*
X0192599Y0089766D01*
X0192948Y0090128D01*
X0193306Y0090482D01*
X0193673Y0090827D01*
X0194048Y0091163D01*
X0194431Y0091489D01*
X0194821Y0091806D01*
X0195220Y0092114D01*
X0195626Y0092412D01*
X0196038Y0092700D01*
X0196458Y0092977D01*
X0196885Y0093245D01*
X0197318Y0093502D01*
X0197756Y0093748D01*
X0198201Y0093984D01*
X0198652Y0094208D01*
X0199107Y0094422D01*
X0199568Y0094625D01*
X0200034Y0094816D01*
X0200504Y0094996D01*
X0200978Y0095164D01*
X0201457Y0095321D01*
X0201939Y0095466D01*
X0202424Y0095599D01*
X0202913Y0095720D01*
X0203404Y0095830D01*
X0203898Y0095927D01*
X0204394Y0096013D01*
X0204892Y0096086D01*
X0205391Y0096147D01*
X0205892Y0096196D01*
X0206394Y0096233D01*
X0206897Y0096257D01*
X0207400Y0096269D01*
X0207904Y0096269D01*
X0208407Y0096257D01*
X0208910Y0096233D01*
X0209412Y0096196D01*
X0209913Y0096147D01*
X0210412Y0096086D01*
X0210910Y0096013D01*
X0211406Y0095927D01*
X0211900Y0095830D01*
X0212391Y0095720D01*
X0212880Y0095599D01*
X0213365Y0095466D01*
X0213847Y0095321D01*
X0214326Y0095164D01*
X0214800Y0094996D01*
X0215270Y0094816D01*
X0215736Y0094625D01*
X0216197Y0094422D01*
X0216652Y0094208D01*
X0217103Y0093984D01*
X0217548Y0093748D01*
X0217987Y0093502D01*
X0218419Y0093245D01*
X0218846Y0092977D01*
X0219266Y0092700D01*
X0219678Y0092412D01*
X0220084Y0092114D01*
X0220483Y0091806D01*
X0220873Y0091489D01*
X0221256Y0091163D01*
X0221631Y0090827D01*
X0221998Y0090482D01*
X0222356Y0090128D01*
X0222705Y0089766D01*
X0223046Y0089395D01*
X0223377Y0089016D01*
X0223699Y0088629D01*
X0224011Y0088234D01*
X0224314Y0087832D01*
X0224607Y0087423D01*
X0224890Y0087006D01*
X0225163Y0086583D01*
X0225425Y0086154D01*
X0225676Y0085718D01*
X0225917Y0085276D01*
X0226148Y0084828D01*
X0226367Y0084375D01*
X0226575Y0083917D01*
X0226772Y0083454D01*
X0226957Y0082986D01*
X0227131Y0082513D01*
X0227294Y0082037D01*
X0227445Y0081557D01*
X0227584Y0081073D01*
X0227711Y0080586D01*
X0227827Y0080096D01*
X0227930Y0079603D01*
X0228021Y0079108D01*
X0228101Y0078611D01*
X0228168Y0078113D01*
X0228223Y0077612D01*
X0228266Y0077111D01*
X0228296Y0076608D01*
X0228315Y0076105D01*
X0228321Y0075602D01*
X0228321Y0046075D01*
X0180093Y0075602D02*
X0180101Y0076278D01*
X0180126Y0076954D01*
X0180168Y0077629D01*
X0180226Y0078303D01*
X0180300Y0078976D01*
X0180391Y0079646D01*
X0180499Y0080314D01*
X0180623Y0080978D01*
X0180763Y0081640D01*
X0180919Y0082298D01*
X0181091Y0082952D01*
X0181280Y0083602D01*
X0181484Y0084247D01*
X0181704Y0084886D01*
X0181940Y0085520D01*
X0182191Y0086148D01*
X0182457Y0086770D01*
X0182739Y0087385D01*
X0183036Y0087993D01*
X0183347Y0088593D01*
X0183673Y0089186D01*
X0184014Y0089770D01*
X0184369Y0090346D01*
X0184738Y0090913D01*
X0185120Y0091471D01*
X0185516Y0092019D01*
X0185926Y0092557D01*
X0186349Y0093085D01*
X0186784Y0093603D01*
X0187232Y0094109D01*
X0187692Y0094605D01*
X0188165Y0095089D01*
X0188649Y0095562D01*
X0189145Y0096022D01*
X0189651Y0096470D01*
X0190169Y0096905D01*
X0190697Y0097328D01*
X0191235Y0097738D01*
X0191783Y0098134D01*
X0192341Y0098516D01*
X0192908Y0098885D01*
X0193484Y0099240D01*
X0194068Y0099581D01*
X0194661Y0099907D01*
X0195261Y0100218D01*
X0195869Y0100515D01*
X0196484Y0100797D01*
X0197106Y0101063D01*
X0197734Y0101314D01*
X0198368Y0101550D01*
X0199007Y0101770D01*
X0199652Y0101974D01*
X0200302Y0102163D01*
X0200956Y0102335D01*
X0201614Y0102491D01*
X0202276Y0102631D01*
X0202940Y0102755D01*
X0203608Y0102863D01*
X0204278Y0102954D01*
X0204951Y0103028D01*
X0205625Y0103086D01*
X0206300Y0103128D01*
X0206976Y0103153D01*
X0207652Y0103161D01*
X0208328Y0103153D01*
X0209004Y0103128D01*
X0209679Y0103086D01*
X0210353Y0103028D01*
X0211026Y0102954D01*
X0211696Y0102863D01*
X0212364Y0102755D01*
X0213028Y0102631D01*
X0213690Y0102491D01*
X0214348Y0102335D01*
X0215002Y0102163D01*
X0215652Y0101974D01*
X0216297Y0101770D01*
X0216936Y0101550D01*
X0217570Y0101314D01*
X0218198Y0101063D01*
X0218820Y0100797D01*
X0219435Y0100515D01*
X0220043Y0100218D01*
X0220643Y0099907D01*
X0221236Y0099581D01*
X0221820Y0099240D01*
X0222396Y0098885D01*
X0222963Y0098516D01*
X0223521Y0098134D01*
X0224069Y0097738D01*
X0224607Y0097328D01*
X0225135Y0096905D01*
X0225653Y0096470D01*
X0226159Y0096022D01*
X0226655Y0095562D01*
X0227139Y0095089D01*
X0227612Y0094605D01*
X0228072Y0094109D01*
X0228520Y0093603D01*
X0228955Y0093085D01*
X0229378Y0092557D01*
X0229788Y0092019D01*
X0230184Y0091471D01*
X0230566Y0090913D01*
X0230935Y0090346D01*
X0231290Y0089770D01*
X0231631Y0089186D01*
X0231957Y0088593D01*
X0232268Y0087993D01*
X0232565Y0087385D01*
X0232847Y0086770D01*
X0233113Y0086148D01*
X0233364Y0085520D01*
X0233600Y0084886D01*
X0233820Y0084247D01*
X0234024Y0083602D01*
X0234213Y0082952D01*
X0234385Y0082298D01*
X0234541Y0081640D01*
X0234681Y0080978D01*
X0234805Y0080314D01*
X0234913Y0079646D01*
X0235004Y0078976D01*
X0235078Y0078303D01*
X0235136Y0077629D01*
X0235178Y0076954D01*
X0235203Y0076278D01*
X0235211Y0075602D01*
X0235203Y0074926D01*
X0235178Y0074250D01*
X0235136Y0073575D01*
X0235078Y0072901D01*
X0235004Y0072228D01*
X0234913Y0071558D01*
X0234805Y0070890D01*
X0234681Y0070226D01*
X0234541Y0069564D01*
X0234385Y0068906D01*
X0234213Y0068252D01*
X0234024Y0067602D01*
X0233820Y0066957D01*
X0233600Y0066318D01*
X0233364Y0065684D01*
X0233113Y0065056D01*
X0232847Y0064434D01*
X0232565Y0063819D01*
X0232268Y0063211D01*
X0231957Y0062611D01*
X0231631Y0062018D01*
X0231290Y0061434D01*
X0230935Y0060858D01*
X0230566Y0060291D01*
X0230184Y0059733D01*
X0229788Y0059185D01*
X0229378Y0058647D01*
X0228955Y0058119D01*
X0228520Y0057601D01*
X0228072Y0057095D01*
X0227612Y0056599D01*
X0227139Y0056115D01*
X0226655Y0055642D01*
X0226159Y0055182D01*
X0225653Y0054734D01*
X0225135Y0054299D01*
X0224607Y0053876D01*
X0224069Y0053466D01*
X0223521Y0053070D01*
X0222963Y0052688D01*
X0222396Y0052319D01*
X0221820Y0051964D01*
X0221236Y0051623D01*
X0220643Y0051297D01*
X0220043Y0050986D01*
X0219435Y0050689D01*
X0218820Y0050407D01*
X0218198Y0050141D01*
X0217570Y0049890D01*
X0216936Y0049654D01*
X0216297Y0049434D01*
X0215652Y0049230D01*
X0215002Y0049041D01*
X0214348Y0048869D01*
X0213690Y0048713D01*
X0213028Y0048573D01*
X0212364Y0048449D01*
X0211696Y0048341D01*
X0211026Y0048250D01*
X0210353Y0048176D01*
X0209679Y0048118D01*
X0209004Y0048076D01*
X0208328Y0048051D01*
X0207652Y0048043D01*
X0206976Y0048051D01*
X0206300Y0048076D01*
X0205625Y0048118D01*
X0204951Y0048176D01*
X0204278Y0048250D01*
X0203608Y0048341D01*
X0202940Y0048449D01*
X0202276Y0048573D01*
X0201614Y0048713D01*
X0200956Y0048869D01*
X0200302Y0049041D01*
X0199652Y0049230D01*
X0199007Y0049434D01*
X0198368Y0049654D01*
X0197734Y0049890D01*
X0197106Y0050141D01*
X0196484Y0050407D01*
X0195869Y0050689D01*
X0195261Y0050986D01*
X0194661Y0051297D01*
X0194068Y0051623D01*
X0193484Y0051964D01*
X0192908Y0052319D01*
X0192341Y0052688D01*
X0191783Y0053070D01*
X0191235Y0053466D01*
X0190697Y0053876D01*
X0190169Y0054299D01*
X0189651Y0054734D01*
X0189145Y0055182D01*
X0188649Y0055642D01*
X0188165Y0056115D01*
X0187692Y0056599D01*
X0187232Y0057095D01*
X0186784Y0057601D01*
X0186349Y0058119D01*
X0185926Y0058647D01*
X0185516Y0059185D01*
X0185120Y0059733D01*
X0184738Y0060291D01*
X0184369Y0060858D01*
X0184014Y0061434D01*
X0183673Y0062018D01*
X0183347Y0062611D01*
X0183036Y0063211D01*
X0182739Y0063819D01*
X0182457Y0064434D01*
X0182191Y0065056D01*
X0181940Y0065684D01*
X0181704Y0066318D01*
X0181484Y0066957D01*
X0181280Y0067602D01*
X0181091Y0068252D01*
X0180919Y0068906D01*
X0180763Y0069564D01*
X0180623Y0070226D01*
X0180499Y0070890D01*
X0180391Y0071558D01*
X0180300Y0072228D01*
X0180226Y0072901D01*
X0180168Y0073575D01*
X0180126Y0074250D01*
X0180101Y0074926D01*
X0180093Y0075602D01*
M02*
