G75*
%MOIN*%
%OFA0B0*%
%FSLAX25Y25*%
%IPPOS*%
%LPD*%
%AMOC8*
5,1,8,0,0,1.08239X$1,22.5*
%
%ADD10OC8,0.06300*%
%ADD11C,0.06300*%
%ADD12OC8,0.04800*%
%ADD13C,0.05000*%
%ADD14C,0.07400*%
%ADD15C,0.04800*%
%ADD16C,0.07000*%
%ADD17C,0.10050*%
%ADD18C,0.06600*%
%ADD19C,0.00600*%
%ADD20C,0.02700*%
%ADD21C,0.05600*%
D10*
X0106394Y0044917D03*
X0142988Y0099878D03*
D11*
X0152988Y0099878D03*
X0116394Y0044917D03*
D12*
X0143382Y0074425D03*
X0153382Y0074425D03*
X0124760Y0088028D03*
X0114760Y0088028D03*
X0099602Y0096768D03*
X0089602Y0096768D03*
X0077969Y0096768D03*
X0067969Y0096768D03*
X0055823Y0096768D03*
X0045823Y0096768D03*
X0033382Y0096768D03*
X0023382Y0096768D03*
X0023579Y0118500D03*
X0033579Y0118500D03*
X0045705Y0118835D03*
X0055705Y0118835D03*
X0068283Y0118972D03*
X0078283Y0118972D03*
X0089720Y0119406D03*
X0099720Y0119406D03*
X0114622Y0115665D03*
X0124622Y0115665D03*
X0078480Y0077870D03*
X0068480Y0077870D03*
D13*
X0172378Y0076610D03*
X0172378Y0066610D03*
X0172378Y0056610D03*
X0172378Y0046610D03*
X0202378Y0046610D03*
X0202378Y0056610D03*
X0202378Y0066610D03*
X0202378Y0076610D03*
D14*
X0116720Y0019465D03*
X0105320Y0019465D03*
D15*
X0053402Y0066435D02*
X0053402Y0071235D01*
X0043402Y0071235D02*
X0043402Y0066435D01*
X0033402Y0066435D02*
X0033402Y0071235D01*
D16*
X0171138Y0099652D03*
X0181138Y0099652D03*
X0191138Y0099652D03*
X0191138Y0109652D03*
X0181138Y0109652D03*
X0171138Y0109652D03*
D17*
X0236059Y0143047D03*
X0236453Y0023205D03*
D18*
X0201197Y0022181D03*
X0193323Y0022181D03*
X0185449Y0022181D03*
X0177575Y0022181D03*
X0169701Y0022181D03*
X0054760Y0022181D03*
X0046886Y0022181D03*
X0039012Y0022181D03*
X0031138Y0022181D03*
X0023264Y0022181D03*
D19*
X0021433Y0015469D02*
X0015528Y0021374D01*
X0015528Y0078461D01*
X0033244Y0096177D01*
X0033382Y0096768D01*
X0036869Y0096693D02*
X0045523Y0096693D01*
X0045523Y0096468D02*
X0042123Y0096468D01*
X0042123Y0095235D01*
X0044290Y0093068D01*
X0045523Y0093068D01*
X0045523Y0096468D01*
X0045523Y0097068D01*
X0045523Y0100468D01*
X0044290Y0100468D01*
X0042123Y0098300D01*
X0042123Y0097068D01*
X0045523Y0097068D01*
X0046123Y0097068D01*
X0046123Y0100468D01*
X0047355Y0100468D01*
X0049523Y0098300D01*
X0049523Y0097068D01*
X0046123Y0097068D01*
X0046123Y0096468D01*
X0049523Y0096468D01*
X0049523Y0095235D01*
X0047355Y0093068D01*
X0046123Y0093068D01*
X0046123Y0096468D01*
X0045523Y0096468D01*
X0045523Y0096095D02*
X0046123Y0096095D01*
X0046123Y0096693D02*
X0052335Y0096693D01*
X0052335Y0096095D02*
X0049523Y0096095D01*
X0049523Y0095496D02*
X0052335Y0095496D01*
X0052335Y0095323D02*
X0054378Y0093280D01*
X0057267Y0093280D01*
X0059310Y0095323D01*
X0059310Y0096758D01*
X0063346Y0096758D01*
X0064481Y0097893D01*
X0064481Y0095323D01*
X0066524Y0093280D01*
X0067290Y0093280D01*
X0067290Y0083791D01*
X0069724Y0081357D01*
X0067036Y0081357D01*
X0064993Y0079315D01*
X0064993Y0076426D01*
X0067036Y0074383D01*
X0069925Y0074383D01*
X0071968Y0076426D01*
X0071968Y0079114D01*
X0073195Y0077886D01*
X0073195Y0075917D01*
X0086975Y0062138D01*
X0087788Y0061325D01*
X0184244Y0061325D01*
X0198791Y0046779D01*
X0198791Y0045897D01*
X0199337Y0044578D01*
X0200346Y0043569D01*
X0201664Y0043023D01*
X0203092Y0043023D01*
X0204410Y0043569D01*
X0205419Y0044578D01*
X0205965Y0045897D01*
X0205965Y0047324D01*
X0205419Y0048642D01*
X0204410Y0049651D01*
X0203092Y0050198D01*
X0201664Y0050198D01*
X0200346Y0049651D01*
X0200094Y0049400D01*
X0185394Y0064100D01*
X0174941Y0064100D01*
X0175419Y0064578D01*
X0175965Y0065897D01*
X0175965Y0067324D01*
X0175419Y0068642D01*
X0174410Y0069651D01*
X0173092Y0070198D01*
X0171664Y0070198D01*
X0170346Y0069651D01*
X0169337Y0068642D01*
X0169250Y0068433D01*
X0162578Y0075105D01*
X0169119Y0075105D01*
X0169337Y0074578D01*
X0170346Y0073569D01*
X0171664Y0073023D01*
X0173092Y0073023D01*
X0174410Y0073569D01*
X0175419Y0074578D01*
X0175965Y0075897D01*
X0175965Y0077324D01*
X0175419Y0078642D01*
X0174410Y0079651D01*
X0173092Y0080198D01*
X0171664Y0080198D01*
X0170346Y0079651D01*
X0169337Y0078642D01*
X0169021Y0077880D01*
X0159803Y0077880D01*
X0142042Y0095641D01*
X0144743Y0095641D01*
X0147226Y0098123D01*
X0147226Y0101633D01*
X0144743Y0104115D01*
X0141233Y0104115D01*
X0140588Y0103470D01*
X0097630Y0103470D01*
X0096817Y0102657D01*
X0092880Y0098720D01*
X0092880Y0098422D01*
X0092725Y0098577D01*
X0110922Y0116775D01*
X0110922Y0115965D01*
X0114322Y0115965D01*
X0114322Y0115365D01*
X0114922Y0115365D01*
X0114922Y0111965D01*
X0116155Y0111965D01*
X0118322Y0114133D01*
X0118322Y0115365D01*
X0114922Y0115365D01*
X0114922Y0115965D01*
X0118322Y0115965D01*
X0118322Y0117198D01*
X0116155Y0119365D01*
X0114922Y0119365D01*
X0114922Y0115965D01*
X0114322Y0115965D01*
X0114322Y0119365D01*
X0113512Y0119365D01*
X0121820Y0127673D01*
X0171046Y0127673D01*
X0187020Y0111699D01*
X0186550Y0110564D01*
X0186550Y0108739D01*
X0187249Y0107053D01*
X0187752Y0106550D01*
X0187290Y0105435D01*
X0187290Y0103888D01*
X0187758Y0102759D01*
X0187249Y0102250D01*
X0186550Y0100564D01*
X0186550Y0098739D01*
X0187249Y0097053D01*
X0188539Y0095763D01*
X0189337Y0095432D01*
X0189337Y0066075D01*
X0190150Y0065262D01*
X0198791Y0056621D01*
X0198791Y0055897D01*
X0199337Y0054578D01*
X0200346Y0053569D01*
X0201664Y0053023D01*
X0203092Y0053023D01*
X0204410Y0053569D01*
X0205419Y0054578D01*
X0205965Y0055897D01*
X0205965Y0057324D01*
X0205419Y0058642D01*
X0204410Y0059651D01*
X0203092Y0060198D01*
X0201664Y0060198D01*
X0200346Y0059651D01*
X0200015Y0059321D01*
X0192112Y0067224D01*
X0192112Y0095090D01*
X0193736Y0095763D01*
X0195027Y0097053D01*
X0195725Y0098739D01*
X0195725Y0100564D01*
X0195543Y0101003D01*
X0197205Y0102664D01*
X0198017Y0103476D01*
X0198017Y0108563D01*
X0195519Y0111061D01*
X0195027Y0112250D01*
X0193736Y0113541D01*
X0192050Y0114239D01*
X0190225Y0114239D01*
X0188938Y0113706D01*
X0174970Y0127673D01*
X0210409Y0127673D01*
X0210409Y0151295D01*
X0257654Y0151295D01*
X0257654Y0017437D01*
X0238501Y0017437D01*
X0239915Y0018023D01*
X0241635Y0019742D01*
X0242565Y0021989D01*
X0242565Y0024421D01*
X0241635Y0026667D01*
X0239915Y0028387D01*
X0237669Y0029317D01*
X0235237Y0029317D01*
X0232990Y0028387D01*
X0231271Y0026667D01*
X0230340Y0024421D01*
X0230340Y0021989D01*
X0231027Y0020331D01*
X0228132Y0017437D01*
X0200560Y0017437D01*
X0200119Y0017879D01*
X0200324Y0017794D01*
X0202070Y0017794D01*
X0203682Y0018462D01*
X0204916Y0019696D01*
X0205584Y0021308D01*
X0205584Y0023054D01*
X0204916Y0024666D01*
X0203682Y0025901D01*
X0202070Y0026568D01*
X0200324Y0026568D01*
X0198712Y0025901D01*
X0197477Y0024666D01*
X0197260Y0024141D01*
X0197042Y0024666D01*
X0195808Y0025901D01*
X0194196Y0026568D01*
X0192450Y0026568D01*
X0190838Y0025901D01*
X0189603Y0024666D01*
X0189488Y0024387D01*
X0189383Y0024592D01*
X0188957Y0025178D01*
X0188446Y0025690D01*
X0187860Y0026115D01*
X0187215Y0026444D01*
X0186526Y0026668D01*
X0185811Y0026781D01*
X0185749Y0026781D01*
X0185749Y0022481D01*
X0185149Y0022481D01*
X0185149Y0026781D01*
X0185087Y0026781D01*
X0184372Y0026668D01*
X0183683Y0026444D01*
X0183038Y0026115D01*
X0182452Y0025690D01*
X0181940Y0025178D01*
X0181515Y0024592D01*
X0181410Y0024387D01*
X0181294Y0024666D01*
X0180060Y0025901D01*
X0178448Y0026568D01*
X0176702Y0026568D01*
X0175090Y0025901D01*
X0173855Y0024666D01*
X0173638Y0024141D01*
X0173420Y0024666D01*
X0172186Y0025901D01*
X0170573Y0026568D01*
X0168828Y0026568D01*
X0167216Y0025901D01*
X0165981Y0024666D01*
X0165313Y0023054D01*
X0165313Y0021308D01*
X0165981Y0019696D01*
X0167216Y0018462D01*
X0168828Y0017794D01*
X0170573Y0017794D01*
X0172186Y0018462D01*
X0173420Y0019696D01*
X0173638Y0020221D01*
X0173855Y0019696D01*
X0175090Y0018462D01*
X0176702Y0017794D01*
X0178448Y0017794D01*
X0180060Y0018462D01*
X0181294Y0019696D01*
X0181410Y0019975D01*
X0181515Y0019770D01*
X0181940Y0019184D01*
X0182452Y0018672D01*
X0183038Y0018247D01*
X0183683Y0017918D01*
X0184372Y0017694D01*
X0185087Y0017581D01*
X0185149Y0017581D01*
X0185149Y0021881D01*
X0185749Y0021881D01*
X0185749Y0017581D01*
X0185811Y0017581D01*
X0186526Y0017694D01*
X0187215Y0017918D01*
X0187860Y0018247D01*
X0188446Y0018672D01*
X0188957Y0019184D01*
X0189383Y0019770D01*
X0189488Y0019975D01*
X0189603Y0019696D01*
X0190838Y0018462D01*
X0192450Y0017794D01*
X0194196Y0017794D01*
X0195669Y0018404D01*
X0196636Y0017437D01*
X0148973Y0017437D01*
X0148977Y0017442D01*
X0149611Y0018971D01*
X0149611Y0020627D01*
X0148977Y0022157D01*
X0147807Y0023328D01*
X0146277Y0023961D01*
X0144621Y0023961D01*
X0143091Y0023328D01*
X0141920Y0022157D01*
X0141287Y0020627D01*
X0141287Y0018971D01*
X0141920Y0017442D01*
X0141925Y0017437D01*
X0121062Y0017437D01*
X0121302Y0018018D01*
X0136181Y0018018D01*
X0171326Y0053163D01*
X0171664Y0053023D01*
X0173092Y0053023D01*
X0174410Y0053569D01*
X0175419Y0054578D01*
X0175965Y0055897D01*
X0175965Y0057324D01*
X0175419Y0058642D01*
X0174410Y0059651D01*
X0173092Y0060198D01*
X0171664Y0060198D01*
X0170346Y0059651D01*
X0169337Y0058642D01*
X0168791Y0057324D01*
X0168791Y0055897D01*
X0169184Y0054946D01*
X0135032Y0020793D01*
X0121351Y0020793D01*
X0120778Y0022176D01*
X0119432Y0023523D01*
X0117672Y0024252D01*
X0115767Y0024252D01*
X0114008Y0023523D01*
X0112661Y0022176D01*
X0111932Y0020417D01*
X0111932Y0018512D01*
X0112378Y0017437D01*
X0109662Y0017437D01*
X0110107Y0018512D01*
X0110107Y0020417D01*
X0109378Y0022176D01*
X0109111Y0022444D01*
X0117309Y0030642D01*
X0117309Y0040710D01*
X0118794Y0041325D01*
X0119986Y0042517D01*
X0120631Y0044074D01*
X0120631Y0045760D01*
X0119986Y0047318D01*
X0118794Y0048510D01*
X0117237Y0049155D01*
X0115551Y0049155D01*
X0113993Y0048510D01*
X0112801Y0047318D01*
X0112156Y0045760D01*
X0112156Y0044074D01*
X0112801Y0042517D01*
X0113993Y0041325D01*
X0114534Y0041101D01*
X0114534Y0031791D01*
X0106783Y0024040D01*
X0106272Y0024252D01*
X0104367Y0024252D01*
X0102608Y0023523D01*
X0101261Y0022176D01*
X0100532Y0020417D01*
X0100532Y0018512D01*
X0100744Y0018001D01*
X0100180Y0017437D01*
X0084996Y0017437D01*
X0085001Y0017442D01*
X0085635Y0018971D01*
X0085635Y0020627D01*
X0085001Y0022157D01*
X0083830Y0023328D01*
X0082300Y0023961D01*
X0080645Y0023961D01*
X0079115Y0023328D01*
X0077944Y0022157D01*
X0077310Y0020627D01*
X0077310Y0018971D01*
X0077944Y0017442D01*
X0077948Y0017437D01*
X0021427Y0017437D01*
X0017496Y0021368D01*
X0017496Y0069771D01*
X0018741Y0068526D01*
X0020488Y0067802D01*
X0022378Y0067802D01*
X0024125Y0068526D01*
X0025462Y0069863D01*
X0026186Y0071610D01*
X0026186Y0073500D01*
X0025462Y0075247D01*
X0024125Y0076584D01*
X0022378Y0077308D01*
X0020488Y0077308D01*
X0018741Y0076584D01*
X0017496Y0075340D01*
X0017496Y0078467D01*
X0032309Y0093280D01*
X0034826Y0093280D01*
X0036869Y0095323D01*
X0036869Y0098212D01*
X0034826Y0100255D01*
X0031937Y0100255D01*
X0029894Y0098212D01*
X0029894Y0095323D01*
X0030161Y0095056D01*
X0017496Y0082391D01*
X0017496Y0127673D01*
X0117896Y0127673D01*
X0090478Y0100255D01*
X0088158Y0100255D01*
X0086115Y0098212D01*
X0086115Y0095323D01*
X0088158Y0093280D01*
X0091047Y0093280D01*
X0092880Y0095114D01*
X0092880Y0094783D01*
X0079454Y0081357D01*
X0077036Y0081357D01*
X0075342Y0079664D01*
X0075157Y0079848D01*
X0070065Y0084941D01*
X0070065Y0093932D01*
X0071456Y0095323D01*
X0071456Y0098212D01*
X0069413Y0100255D01*
X0066843Y0100255D01*
X0067283Y0100695D01*
X0077132Y0100695D01*
X0077132Y0100255D01*
X0076524Y0100255D01*
X0074481Y0098212D01*
X0074481Y0095323D01*
X0076524Y0093280D01*
X0079413Y0093280D01*
X0081456Y0095323D01*
X0081456Y0098212D01*
X0079907Y0099761D01*
X0079907Y0107413D01*
X0088412Y0115918D01*
X0091165Y0115918D01*
X0093208Y0117961D01*
X0093208Y0120850D01*
X0091165Y0122893D01*
X0088276Y0122893D01*
X0086233Y0120850D01*
X0086233Y0117961D01*
X0086382Y0117812D01*
X0077132Y0108563D01*
X0077132Y0103470D01*
X0066134Y0103470D01*
X0065321Y0102657D01*
X0062197Y0099533D01*
X0057989Y0099533D01*
X0057267Y0100255D01*
X0054378Y0100255D01*
X0052335Y0098212D01*
X0052335Y0095323D01*
X0052761Y0094898D02*
X0049185Y0094898D01*
X0048587Y0094299D02*
X0053360Y0094299D01*
X0053958Y0093701D02*
X0047988Y0093701D01*
X0047390Y0093102D02*
X0067290Y0093102D01*
X0067290Y0092503D02*
X0031532Y0092503D01*
X0030934Y0091905D02*
X0067290Y0091905D01*
X0067290Y0091306D02*
X0030335Y0091306D01*
X0029737Y0090708D02*
X0067290Y0090708D01*
X0067290Y0090109D02*
X0029138Y0090109D01*
X0028540Y0089511D02*
X0067290Y0089511D01*
X0067290Y0088912D02*
X0027941Y0088912D01*
X0027343Y0088314D02*
X0067290Y0088314D01*
X0067290Y0087715D02*
X0026744Y0087715D01*
X0026146Y0087117D02*
X0067290Y0087117D01*
X0067290Y0086518D02*
X0025547Y0086518D01*
X0024949Y0085920D02*
X0067290Y0085920D01*
X0067290Y0085321D02*
X0024350Y0085321D01*
X0023752Y0084723D02*
X0067290Y0084723D01*
X0067290Y0084124D02*
X0023153Y0084124D01*
X0022555Y0083526D02*
X0067555Y0083526D01*
X0068154Y0082927D02*
X0021956Y0082927D01*
X0021358Y0082329D02*
X0068752Y0082329D01*
X0069351Y0081730D02*
X0020759Y0081730D01*
X0020161Y0081132D02*
X0066810Y0081132D01*
X0066212Y0080533D02*
X0019562Y0080533D01*
X0018964Y0079935D02*
X0065613Y0079935D01*
X0065015Y0079336D02*
X0018365Y0079336D01*
X0017767Y0078738D02*
X0064993Y0078738D01*
X0064993Y0078139D02*
X0017496Y0078139D01*
X0017496Y0077541D02*
X0064993Y0077541D01*
X0064993Y0076942D02*
X0023261Y0076942D01*
X0024366Y0076344D02*
X0065075Y0076344D01*
X0065673Y0075745D02*
X0024964Y0075745D01*
X0025504Y0075147D02*
X0066272Y0075147D01*
X0066870Y0074548D02*
X0054515Y0074548D01*
X0054095Y0074722D02*
X0052708Y0074722D01*
X0051426Y0074191D01*
X0050445Y0073210D01*
X0049914Y0071928D01*
X0049914Y0065741D01*
X0050445Y0064459D01*
X0051426Y0063478D01*
X0052708Y0062947D01*
X0054095Y0062947D01*
X0055377Y0063478D01*
X0056358Y0064459D01*
X0056889Y0065741D01*
X0056889Y0071928D01*
X0056358Y0073210D01*
X0055377Y0074191D01*
X0054095Y0074722D01*
X0055618Y0073950D02*
X0075163Y0073950D01*
X0074565Y0074548D02*
X0070090Y0074548D01*
X0070689Y0075147D02*
X0073966Y0075147D01*
X0073368Y0075745D02*
X0071287Y0075745D01*
X0071886Y0076344D02*
X0073195Y0076344D01*
X0073195Y0076942D02*
X0071968Y0076942D01*
X0071968Y0077541D02*
X0073195Y0077541D01*
X0072942Y0078139D02*
X0071968Y0078139D01*
X0071968Y0078738D02*
X0072343Y0078738D01*
X0074583Y0078461D02*
X0074583Y0076492D01*
X0088362Y0062713D01*
X0184819Y0062713D01*
X0200567Y0046965D01*
X0202378Y0046610D01*
X0205686Y0045221D02*
X0257654Y0045221D01*
X0257654Y0044623D02*
X0205438Y0044623D01*
X0204865Y0044024D02*
X0257654Y0044024D01*
X0257654Y0043426D02*
X0204064Y0043426D01*
X0205933Y0045820D02*
X0257654Y0045820D01*
X0257654Y0046418D02*
X0205965Y0046418D01*
X0205965Y0047017D02*
X0257654Y0047017D01*
X0257654Y0047615D02*
X0205845Y0047615D01*
X0205597Y0048214D02*
X0257654Y0048214D01*
X0257654Y0048812D02*
X0205249Y0048812D01*
X0204651Y0049411D02*
X0257654Y0049411D01*
X0257654Y0050009D02*
X0203546Y0050009D01*
X0201209Y0050009D02*
X0199484Y0050009D01*
X0198886Y0050608D02*
X0257654Y0050608D01*
X0257654Y0051206D02*
X0198287Y0051206D01*
X0197689Y0051805D02*
X0257654Y0051805D01*
X0257654Y0052403D02*
X0197090Y0052403D01*
X0196492Y0053002D02*
X0257654Y0053002D01*
X0257654Y0053600D02*
X0204441Y0053600D01*
X0205040Y0054199D02*
X0257654Y0054199D01*
X0257654Y0054797D02*
X0205510Y0054797D01*
X0205758Y0055396D02*
X0257654Y0055396D01*
X0257654Y0055994D02*
X0205965Y0055994D01*
X0205965Y0056593D02*
X0257654Y0056593D01*
X0257654Y0057191D02*
X0205965Y0057191D01*
X0205772Y0057790D02*
X0257654Y0057790D01*
X0257654Y0058388D02*
X0205524Y0058388D01*
X0205075Y0058987D02*
X0257654Y0058987D01*
X0257654Y0059585D02*
X0204476Y0059585D01*
X0203125Y0060184D02*
X0257654Y0060184D01*
X0257654Y0060782D02*
X0198554Y0060782D01*
X0199152Y0060184D02*
X0201631Y0060184D01*
X0200280Y0059585D02*
X0199751Y0059585D01*
X0197955Y0061381D02*
X0257654Y0061381D01*
X0257654Y0061979D02*
X0197357Y0061979D01*
X0196758Y0062578D02*
X0257654Y0062578D01*
X0257654Y0063176D02*
X0203462Y0063176D01*
X0203092Y0063023D02*
X0204410Y0063569D01*
X0205419Y0064578D01*
X0205965Y0065897D01*
X0205965Y0067324D01*
X0205419Y0068642D01*
X0204410Y0069651D01*
X0203092Y0070198D01*
X0201664Y0070198D01*
X0200346Y0069651D01*
X0199337Y0068642D01*
X0198791Y0067324D01*
X0198791Y0065897D01*
X0199337Y0064578D01*
X0200346Y0063569D01*
X0201664Y0063023D01*
X0203092Y0063023D01*
X0204616Y0063775D02*
X0257654Y0063775D01*
X0257654Y0064373D02*
X0205215Y0064373D01*
X0205582Y0064972D02*
X0257654Y0064972D01*
X0257654Y0065570D02*
X0205830Y0065570D01*
X0205965Y0066169D02*
X0257654Y0066169D01*
X0257654Y0066768D02*
X0205965Y0066768D01*
X0205948Y0067366D02*
X0257654Y0067366D01*
X0257654Y0067965D02*
X0205700Y0067965D01*
X0205452Y0068563D02*
X0257654Y0068563D01*
X0257654Y0069162D02*
X0204900Y0069162D01*
X0204148Y0069760D02*
X0257654Y0069760D01*
X0257654Y0070359D02*
X0192112Y0070359D01*
X0192112Y0070957D02*
X0257654Y0070957D01*
X0257654Y0071556D02*
X0192112Y0071556D01*
X0192112Y0072154D02*
X0257654Y0072154D01*
X0257654Y0072753D02*
X0192112Y0072753D01*
X0192112Y0073351D02*
X0200872Y0073351D01*
X0200346Y0073569D02*
X0201664Y0073023D01*
X0203092Y0073023D01*
X0204410Y0073569D01*
X0205419Y0074578D01*
X0205965Y0075897D01*
X0205965Y0077324D01*
X0205419Y0078642D01*
X0204410Y0079651D01*
X0203092Y0080198D01*
X0201664Y0080198D01*
X0200346Y0079651D01*
X0199337Y0078642D01*
X0198791Y0077324D01*
X0198791Y0075897D01*
X0199337Y0074578D01*
X0200346Y0073569D01*
X0199965Y0073950D02*
X0192112Y0073950D01*
X0192112Y0074548D02*
X0199367Y0074548D01*
X0199101Y0075147D02*
X0192112Y0075147D01*
X0192112Y0075745D02*
X0198853Y0075745D01*
X0198791Y0076344D02*
X0192112Y0076344D01*
X0192112Y0076942D02*
X0198791Y0076942D01*
X0198880Y0077541D02*
X0192112Y0077541D01*
X0192112Y0078139D02*
X0199128Y0078139D01*
X0199432Y0078738D02*
X0192112Y0078738D01*
X0192112Y0079336D02*
X0200031Y0079336D01*
X0201030Y0079935D02*
X0192112Y0079935D01*
X0192112Y0080533D02*
X0231937Y0080533D01*
X0231990Y0080407D02*
X0233340Y0079057D01*
X0235104Y0078326D01*
X0237014Y0078326D01*
X0238778Y0079057D01*
X0240128Y0080407D01*
X0240859Y0082171D01*
X0240859Y0084081D01*
X0240128Y0085845D01*
X0238778Y0087195D01*
X0237014Y0087926D01*
X0235104Y0087926D01*
X0233340Y0087195D01*
X0231990Y0085845D01*
X0231259Y0084081D01*
X0231259Y0082171D01*
X0231990Y0080407D01*
X0232462Y0079935D02*
X0203726Y0079935D01*
X0204725Y0079336D02*
X0233061Y0079336D01*
X0234110Y0078738D02*
X0205324Y0078738D01*
X0205628Y0078139D02*
X0257654Y0078139D01*
X0257654Y0077541D02*
X0205876Y0077541D01*
X0205965Y0076942D02*
X0257654Y0076942D01*
X0257654Y0076344D02*
X0205965Y0076344D01*
X0205903Y0075745D02*
X0257654Y0075745D01*
X0257654Y0075147D02*
X0205655Y0075147D01*
X0205389Y0074548D02*
X0257654Y0074548D01*
X0257654Y0073950D02*
X0204791Y0073950D01*
X0203884Y0073351D02*
X0257654Y0073351D01*
X0257654Y0078738D02*
X0238008Y0078738D01*
X0239058Y0079336D02*
X0257654Y0079336D01*
X0257654Y0079935D02*
X0239656Y0079935D01*
X0240181Y0080533D02*
X0257654Y0080533D01*
X0257654Y0081132D02*
X0240428Y0081132D01*
X0240676Y0081730D02*
X0257654Y0081730D01*
X0257654Y0082329D02*
X0240859Y0082329D01*
X0240859Y0082927D02*
X0257654Y0082927D01*
X0257654Y0083526D02*
X0240859Y0083526D01*
X0240841Y0084124D02*
X0257654Y0084124D01*
X0257654Y0084723D02*
X0240593Y0084723D01*
X0240345Y0085321D02*
X0257654Y0085321D01*
X0257654Y0085920D02*
X0240053Y0085920D01*
X0239455Y0086518D02*
X0257654Y0086518D01*
X0257654Y0087117D02*
X0238856Y0087117D01*
X0237522Y0087715D02*
X0257654Y0087715D01*
X0257654Y0088314D02*
X0192112Y0088314D01*
X0192112Y0088912D02*
X0257654Y0088912D01*
X0257654Y0089511D02*
X0192112Y0089511D01*
X0192112Y0090109D02*
X0257654Y0090109D01*
X0257654Y0090708D02*
X0192112Y0090708D01*
X0192112Y0091306D02*
X0257654Y0091306D01*
X0257654Y0091905D02*
X0192112Y0091905D01*
X0192112Y0092503D02*
X0257654Y0092503D01*
X0257654Y0093102D02*
X0192112Y0093102D01*
X0192112Y0093701D02*
X0257654Y0093701D01*
X0257654Y0094299D02*
X0192112Y0094299D01*
X0192112Y0094898D02*
X0257654Y0094898D01*
X0257654Y0095496D02*
X0193093Y0095496D01*
X0194068Y0096095D02*
X0257654Y0096095D01*
X0257654Y0096693D02*
X0194667Y0096693D01*
X0195126Y0097292D02*
X0257654Y0097292D01*
X0257654Y0097890D02*
X0195374Y0097890D01*
X0195621Y0098489D02*
X0257654Y0098489D01*
X0257654Y0099087D02*
X0195725Y0099087D01*
X0195725Y0099686D02*
X0257654Y0099686D01*
X0257654Y0100284D02*
X0195725Y0100284D01*
X0195593Y0100883D02*
X0257654Y0100883D01*
X0257654Y0101481D02*
X0196022Y0101481D01*
X0196620Y0102080D02*
X0257654Y0102080D01*
X0257654Y0102678D02*
X0197219Y0102678D01*
X0197818Y0103277D02*
X0257654Y0103277D01*
X0257654Y0103875D02*
X0198017Y0103875D01*
X0198017Y0104474D02*
X0257654Y0104474D01*
X0257654Y0105072D02*
X0198017Y0105072D01*
X0198017Y0105671D02*
X0257654Y0105671D01*
X0257654Y0106269D02*
X0198017Y0106269D01*
X0198017Y0106868D02*
X0257654Y0106868D01*
X0257654Y0107466D02*
X0198017Y0107466D01*
X0198017Y0108065D02*
X0257654Y0108065D01*
X0257654Y0108663D02*
X0197917Y0108663D01*
X0197318Y0109262D02*
X0257654Y0109262D01*
X0257654Y0109860D02*
X0196720Y0109860D01*
X0196121Y0110459D02*
X0257654Y0110459D01*
X0257654Y0111057D02*
X0195523Y0111057D01*
X0195273Y0111656D02*
X0257654Y0111656D01*
X0257654Y0112254D02*
X0195023Y0112254D01*
X0194424Y0112853D02*
X0257654Y0112853D01*
X0257654Y0113451D02*
X0193826Y0113451D01*
X0192507Y0114050D02*
X0257654Y0114050D01*
X0257654Y0114648D02*
X0187995Y0114648D01*
X0188593Y0114050D02*
X0189769Y0114050D01*
X0188756Y0111925D02*
X0191138Y0109652D01*
X0190724Y0109957D01*
X0188756Y0111925D01*
X0192693Y0111925D01*
X0196630Y0107988D01*
X0196630Y0104051D01*
X0192693Y0100114D01*
X0191138Y0099652D01*
X0190724Y0098146D01*
X0190724Y0066650D01*
X0200567Y0056807D01*
X0202378Y0056610D01*
X0198791Y0056593D02*
X0192901Y0056593D01*
X0193499Y0055994D02*
X0198791Y0055994D01*
X0198998Y0055396D02*
X0194098Y0055396D01*
X0194696Y0054797D02*
X0199246Y0054797D01*
X0199716Y0054199D02*
X0195295Y0054199D01*
X0195893Y0053600D02*
X0200315Y0053600D01*
X0198221Y0057191D02*
X0192302Y0057191D01*
X0191704Y0057790D02*
X0197622Y0057790D01*
X0197024Y0058388D02*
X0191105Y0058388D01*
X0190507Y0058987D02*
X0196425Y0058987D01*
X0195827Y0059585D02*
X0189908Y0059585D01*
X0189310Y0060184D02*
X0195228Y0060184D01*
X0194630Y0060782D02*
X0188711Y0060782D01*
X0188113Y0061381D02*
X0194031Y0061381D01*
X0193433Y0061979D02*
X0187514Y0061979D01*
X0186916Y0062578D02*
X0192834Y0062578D01*
X0192235Y0063176D02*
X0186317Y0063176D01*
X0185719Y0063775D02*
X0191637Y0063775D01*
X0191038Y0064373D02*
X0175215Y0064373D01*
X0175582Y0064972D02*
X0190440Y0064972D01*
X0189841Y0065570D02*
X0175830Y0065570D01*
X0175965Y0066169D02*
X0189337Y0066169D01*
X0189337Y0066768D02*
X0175965Y0066768D01*
X0175948Y0067366D02*
X0189337Y0067366D01*
X0189337Y0067965D02*
X0175700Y0067965D01*
X0175452Y0068563D02*
X0189337Y0068563D01*
X0189337Y0069162D02*
X0174900Y0069162D01*
X0174148Y0069760D02*
X0189337Y0069760D01*
X0189337Y0070359D02*
X0167324Y0070359D01*
X0166725Y0070957D02*
X0189337Y0070957D01*
X0189337Y0071556D02*
X0166127Y0071556D01*
X0165528Y0072154D02*
X0189337Y0072154D01*
X0189337Y0072753D02*
X0164930Y0072753D01*
X0164331Y0073351D02*
X0170872Y0073351D01*
X0169965Y0073950D02*
X0163733Y0073950D01*
X0163134Y0074548D02*
X0169367Y0074548D01*
X0171039Y0076492D02*
X0172378Y0076610D01*
X0171039Y0076492D02*
X0159228Y0076492D01*
X0139543Y0096177D01*
X0100173Y0096177D01*
X0099602Y0096768D01*
X0102556Y0094790D02*
X0138969Y0094790D01*
X0157841Y0075917D01*
X0158654Y0075105D01*
X0169658Y0064100D01*
X0088937Y0064100D01*
X0078654Y0074383D01*
X0079925Y0074383D01*
X0081968Y0076426D01*
X0081968Y0079315D01*
X0081652Y0079631D01*
X0094842Y0092821D01*
X0095655Y0093634D01*
X0095655Y0097571D01*
X0096115Y0098031D01*
X0096115Y0095323D01*
X0098158Y0093280D01*
X0101047Y0093280D01*
X0102556Y0094790D01*
X0102066Y0094299D02*
X0139459Y0094299D01*
X0140058Y0093701D02*
X0101467Y0093701D01*
X0097738Y0093701D02*
X0095655Y0093701D01*
X0095655Y0094299D02*
X0097139Y0094299D01*
X0096541Y0094898D02*
X0095655Y0094898D01*
X0095655Y0095496D02*
X0096115Y0095496D01*
X0096115Y0096095D02*
X0095655Y0096095D01*
X0095655Y0096693D02*
X0096115Y0096693D01*
X0096115Y0097292D02*
X0095655Y0097292D01*
X0095974Y0097890D02*
X0096115Y0097890D01*
X0094268Y0098146D02*
X0098205Y0102083D01*
X0141512Y0102083D01*
X0143480Y0100114D01*
X0142988Y0099878D01*
X0145796Y0096693D02*
X0150180Y0096693D01*
X0150588Y0096286D02*
X0152145Y0095641D01*
X0153831Y0095641D01*
X0155388Y0096286D01*
X0156580Y0097478D01*
X0157226Y0099035D01*
X0157226Y0100721D01*
X0156580Y0102278D01*
X0155388Y0103470D01*
X0153831Y0104115D01*
X0152145Y0104115D01*
X0150588Y0103470D01*
X0149396Y0102278D01*
X0148751Y0100721D01*
X0148751Y0099035D01*
X0149396Y0097478D01*
X0150588Y0096286D01*
X0151049Y0096095D02*
X0145197Y0096095D01*
X0146394Y0097292D02*
X0149582Y0097292D01*
X0149225Y0097890D02*
X0146993Y0097890D01*
X0147226Y0098489D02*
X0148977Y0098489D01*
X0148751Y0099087D02*
X0147226Y0099087D01*
X0147226Y0099686D02*
X0148751Y0099686D01*
X0148751Y0100284D02*
X0147226Y0100284D01*
X0147226Y0100883D02*
X0148818Y0100883D01*
X0149066Y0101481D02*
X0147226Y0101481D01*
X0146779Y0102080D02*
X0149314Y0102080D01*
X0149796Y0102678D02*
X0146181Y0102678D01*
X0145582Y0103277D02*
X0150394Y0103277D01*
X0151566Y0103875D02*
X0144984Y0103875D01*
X0140993Y0103875D02*
X0098022Y0103875D01*
X0097437Y0103277D02*
X0097424Y0103277D01*
X0096838Y0102678D02*
X0096825Y0102678D01*
X0096240Y0102080D02*
X0096227Y0102080D01*
X0095641Y0101481D02*
X0095628Y0101481D01*
X0095043Y0100883D02*
X0095030Y0100883D01*
X0094444Y0100284D02*
X0094431Y0100284D01*
X0093846Y0099686D02*
X0093833Y0099686D01*
X0093247Y0099087D02*
X0093234Y0099087D01*
X0092880Y0098489D02*
X0092813Y0098489D01*
X0094268Y0098146D02*
X0094268Y0094209D01*
X0078520Y0078461D01*
X0078480Y0077870D01*
X0081968Y0078139D02*
X0155619Y0078139D01*
X0155499Y0077541D02*
X0156218Y0077541D01*
X0156097Y0076942D02*
X0156816Y0076942D01*
X0156696Y0076344D02*
X0157415Y0076344D01*
X0157082Y0075958D02*
X0157082Y0074725D01*
X0153682Y0074725D01*
X0153682Y0074125D01*
X0153682Y0070725D01*
X0154914Y0070725D01*
X0157082Y0072893D01*
X0157082Y0074125D01*
X0153682Y0074125D01*
X0153082Y0074125D01*
X0153082Y0070725D01*
X0151849Y0070725D01*
X0149682Y0072893D01*
X0149682Y0074125D01*
X0153082Y0074125D01*
X0153082Y0074725D01*
X0149682Y0074725D01*
X0149682Y0075958D01*
X0151849Y0078125D01*
X0153082Y0078125D01*
X0153082Y0074725D01*
X0153682Y0074725D01*
X0153682Y0078125D01*
X0154914Y0078125D01*
X0157082Y0075958D01*
X0157082Y0075745D02*
X0158013Y0075745D01*
X0158612Y0075147D02*
X0157082Y0075147D01*
X0157082Y0073950D02*
X0159809Y0073950D01*
X0159210Y0074548D02*
X0153682Y0074548D01*
X0153682Y0073950D02*
X0153082Y0073950D01*
X0153082Y0074548D02*
X0146869Y0074548D01*
X0146869Y0073950D02*
X0149682Y0073950D01*
X0149682Y0073351D02*
X0146869Y0073351D01*
X0146869Y0072981D02*
X0144826Y0070938D01*
X0141937Y0070938D01*
X0139894Y0072981D01*
X0139894Y0075870D01*
X0141937Y0077913D01*
X0144826Y0077913D01*
X0146869Y0075870D01*
X0146869Y0072981D01*
X0146641Y0072753D02*
X0149822Y0072753D01*
X0150420Y0072154D02*
X0146043Y0072154D01*
X0145444Y0071556D02*
X0151019Y0071556D01*
X0151617Y0070957D02*
X0144846Y0070957D01*
X0141918Y0070957D02*
X0108593Y0070957D01*
X0108841Y0071556D02*
X0141320Y0071556D01*
X0140721Y0072154D02*
X0108863Y0072154D01*
X0108863Y0071610D02*
X0108139Y0069863D01*
X0106802Y0068526D01*
X0105056Y0067802D01*
X0103165Y0067802D01*
X0101418Y0068526D01*
X0100081Y0069863D01*
X0099357Y0071610D01*
X0099357Y0073500D01*
X0100081Y0075247D01*
X0101418Y0076584D01*
X0103165Y0077308D01*
X0105056Y0077308D01*
X0106802Y0076584D01*
X0108139Y0075247D01*
X0108863Y0073500D01*
X0108863Y0071610D01*
X0108863Y0072753D02*
X0140123Y0072753D01*
X0139894Y0073351D02*
X0108863Y0073351D01*
X0108677Y0073950D02*
X0139894Y0073950D01*
X0139894Y0074548D02*
X0108429Y0074548D01*
X0108181Y0075147D02*
X0139894Y0075147D01*
X0139894Y0075745D02*
X0107642Y0075745D01*
X0107043Y0076344D02*
X0140368Y0076344D01*
X0140967Y0076942D02*
X0105938Y0076942D01*
X0102282Y0076942D02*
X0081968Y0076942D01*
X0081968Y0077541D02*
X0141565Y0077541D01*
X0145198Y0077541D02*
X0151265Y0077541D01*
X0150666Y0076942D02*
X0145797Y0076942D01*
X0146395Y0076344D02*
X0150068Y0076344D01*
X0149682Y0075745D02*
X0146869Y0075745D01*
X0146869Y0075147D02*
X0149682Y0075147D01*
X0153082Y0075147D02*
X0153682Y0075147D01*
X0153682Y0075745D02*
X0153082Y0075745D01*
X0153082Y0076344D02*
X0153682Y0076344D01*
X0153682Y0076942D02*
X0153082Y0076942D01*
X0153082Y0077541D02*
X0153682Y0077541D01*
X0155021Y0078738D02*
X0081968Y0078738D01*
X0081946Y0079336D02*
X0154422Y0079336D01*
X0153824Y0079935D02*
X0081956Y0079935D01*
X0082554Y0080533D02*
X0153225Y0080533D01*
X0152627Y0081132D02*
X0083153Y0081132D01*
X0083751Y0081730D02*
X0152028Y0081730D01*
X0151430Y0082329D02*
X0084350Y0082329D01*
X0084948Y0082927D02*
X0150831Y0082927D01*
X0150233Y0083526D02*
X0085547Y0083526D01*
X0086145Y0084124D02*
X0149634Y0084124D01*
X0149036Y0084723D02*
X0126387Y0084723D01*
X0126204Y0084540D02*
X0128247Y0086583D01*
X0128247Y0089472D01*
X0126204Y0091515D01*
X0123315Y0091515D01*
X0121272Y0089472D01*
X0121272Y0086583D01*
X0123315Y0084540D01*
X0126204Y0084540D01*
X0126986Y0085321D02*
X0148437Y0085321D01*
X0147839Y0085920D02*
X0127584Y0085920D01*
X0128183Y0086518D02*
X0147240Y0086518D01*
X0146641Y0087117D02*
X0128247Y0087117D01*
X0128247Y0087715D02*
X0146043Y0087715D01*
X0145444Y0088314D02*
X0128247Y0088314D01*
X0128247Y0088912D02*
X0144846Y0088912D01*
X0144247Y0089511D02*
X0128208Y0089511D01*
X0127610Y0090109D02*
X0143649Y0090109D01*
X0143050Y0090708D02*
X0127011Y0090708D01*
X0126413Y0091306D02*
X0142452Y0091306D01*
X0141853Y0091905D02*
X0093926Y0091905D01*
X0093328Y0091306D02*
X0113107Y0091306D01*
X0113315Y0091515D02*
X0111272Y0089472D01*
X0111272Y0086583D01*
X0113315Y0084540D01*
X0116204Y0084540D01*
X0118247Y0086583D01*
X0118247Y0089472D01*
X0116204Y0091515D01*
X0113315Y0091515D01*
X0112508Y0090708D02*
X0092729Y0090708D01*
X0092131Y0090109D02*
X0111910Y0090109D01*
X0111311Y0089511D02*
X0091532Y0089511D01*
X0090934Y0088912D02*
X0111272Y0088912D01*
X0111272Y0088314D02*
X0090335Y0088314D01*
X0089737Y0087715D02*
X0111272Y0087715D01*
X0111272Y0087117D02*
X0089138Y0087117D01*
X0088540Y0086518D02*
X0111337Y0086518D01*
X0111936Y0085920D02*
X0087941Y0085920D01*
X0087342Y0085321D02*
X0112534Y0085321D01*
X0113133Y0084723D02*
X0086744Y0084723D01*
X0084615Y0086518D02*
X0070065Y0086518D01*
X0070065Y0085920D02*
X0084017Y0085920D01*
X0083418Y0085321D02*
X0070065Y0085321D01*
X0070283Y0084723D02*
X0082820Y0084723D01*
X0082221Y0084124D02*
X0070881Y0084124D01*
X0071480Y0083526D02*
X0081623Y0083526D01*
X0081024Y0082927D02*
X0072078Y0082927D01*
X0072677Y0082329D02*
X0080426Y0082329D01*
X0079827Y0081730D02*
X0073275Y0081730D01*
X0073874Y0081132D02*
X0076810Y0081132D01*
X0076212Y0080533D02*
X0074472Y0080533D01*
X0075071Y0079935D02*
X0075613Y0079935D01*
X0074583Y0078461D02*
X0068677Y0084366D01*
X0068677Y0096177D01*
X0067969Y0096768D01*
X0071456Y0096693D02*
X0074481Y0096693D01*
X0074481Y0096095D02*
X0071456Y0096095D01*
X0071456Y0095496D02*
X0074481Y0095496D01*
X0074907Y0094898D02*
X0071030Y0094898D01*
X0070432Y0094299D02*
X0075505Y0094299D01*
X0076104Y0093701D02*
X0070065Y0093701D01*
X0070065Y0093102D02*
X0091199Y0093102D01*
X0091467Y0093701D02*
X0091797Y0093701D01*
X0092066Y0094299D02*
X0092396Y0094299D01*
X0092664Y0094898D02*
X0092880Y0094898D01*
X0095123Y0093102D02*
X0140656Y0093102D01*
X0141255Y0092503D02*
X0094525Y0092503D01*
X0090600Y0092503D02*
X0070065Y0092503D01*
X0070065Y0091905D02*
X0090002Y0091905D01*
X0089403Y0091306D02*
X0070065Y0091306D01*
X0070065Y0090708D02*
X0088805Y0090708D01*
X0088206Y0090109D02*
X0070065Y0090109D01*
X0070065Y0089511D02*
X0087608Y0089511D01*
X0087009Y0088912D02*
X0070065Y0088912D01*
X0070065Y0088314D02*
X0086411Y0088314D01*
X0085812Y0087715D02*
X0070065Y0087715D01*
X0070065Y0087117D02*
X0085214Y0087117D01*
X0087738Y0093701D02*
X0079833Y0093701D01*
X0080432Y0094299D02*
X0087139Y0094299D01*
X0086541Y0094898D02*
X0081030Y0094898D01*
X0081456Y0095496D02*
X0086115Y0095496D01*
X0086115Y0096095D02*
X0081456Y0096095D01*
X0081456Y0096693D02*
X0086115Y0096693D01*
X0086115Y0097292D02*
X0081456Y0097292D01*
X0081456Y0097890D02*
X0086115Y0097890D01*
X0086391Y0098489D02*
X0081180Y0098489D01*
X0080581Y0099087D02*
X0086990Y0099087D01*
X0087588Y0099686D02*
X0079982Y0099686D01*
X0079907Y0100284D02*
X0090507Y0100284D01*
X0091106Y0100883D02*
X0079907Y0100883D01*
X0079907Y0101481D02*
X0091704Y0101481D01*
X0092303Y0102080D02*
X0079907Y0102080D01*
X0079907Y0102678D02*
X0092901Y0102678D01*
X0093500Y0103277D02*
X0079907Y0103277D01*
X0079907Y0103875D02*
X0094098Y0103875D01*
X0094697Y0104474D02*
X0079907Y0104474D01*
X0079907Y0105072D02*
X0095295Y0105072D01*
X0095894Y0105671D02*
X0079907Y0105671D01*
X0079907Y0106269D02*
X0096492Y0106269D01*
X0097091Y0106868D02*
X0079907Y0106868D01*
X0079960Y0107466D02*
X0097689Y0107466D01*
X0098288Y0108065D02*
X0080558Y0108065D01*
X0081157Y0108663D02*
X0098886Y0108663D01*
X0099485Y0109262D02*
X0081755Y0109262D01*
X0082354Y0109860D02*
X0100083Y0109860D01*
X0100682Y0110459D02*
X0082952Y0110459D01*
X0083551Y0111057D02*
X0101280Y0111057D01*
X0101879Y0111656D02*
X0084149Y0111656D01*
X0084748Y0112254D02*
X0102477Y0112254D01*
X0103076Y0112853D02*
X0085346Y0112853D01*
X0085945Y0113451D02*
X0103674Y0113451D01*
X0104273Y0114050D02*
X0086543Y0114050D01*
X0087142Y0114648D02*
X0104871Y0114648D01*
X0105470Y0115247D02*
X0087740Y0115247D01*
X0088339Y0115845D02*
X0106068Y0115845D01*
X0106667Y0116444D02*
X0101691Y0116444D01*
X0101165Y0115918D02*
X0103208Y0117961D01*
X0103208Y0120850D01*
X0101165Y0122893D01*
X0098276Y0122893D01*
X0096233Y0120850D01*
X0096233Y0117961D01*
X0098276Y0115918D01*
X0101165Y0115918D01*
X0102289Y0117042D02*
X0107265Y0117042D01*
X0107864Y0117641D02*
X0102888Y0117641D01*
X0103208Y0118239D02*
X0108462Y0118239D01*
X0109061Y0118838D02*
X0103208Y0118838D01*
X0103208Y0119437D02*
X0109659Y0119437D01*
X0110258Y0120035D02*
X0103208Y0120035D01*
X0103208Y0120634D02*
X0110856Y0120634D01*
X0111455Y0121232D02*
X0102826Y0121232D01*
X0102227Y0121831D02*
X0112054Y0121831D01*
X0112652Y0122429D02*
X0101629Y0122429D01*
X0097812Y0122429D02*
X0091629Y0122429D01*
X0092227Y0121831D02*
X0097214Y0121831D01*
X0096615Y0121232D02*
X0092826Y0121232D01*
X0093208Y0120634D02*
X0096233Y0120634D01*
X0096233Y0120035D02*
X0093208Y0120035D01*
X0093208Y0119437D02*
X0096233Y0119437D01*
X0096233Y0118838D02*
X0093208Y0118838D01*
X0093208Y0118239D02*
X0096233Y0118239D01*
X0096553Y0117641D02*
X0092888Y0117641D01*
X0092289Y0117042D02*
X0097152Y0117042D01*
X0097750Y0116444D02*
X0091691Y0116444D01*
X0089720Y0119406D02*
X0088362Y0117831D01*
X0078520Y0107988D01*
X0078520Y0102083D01*
X0066709Y0102083D01*
X0062772Y0098146D01*
X0056866Y0098146D01*
X0055823Y0096768D01*
X0059310Y0096693D02*
X0064481Y0096693D01*
X0064481Y0096095D02*
X0059310Y0096095D01*
X0059310Y0095496D02*
X0064481Y0095496D01*
X0064907Y0094898D02*
X0058885Y0094898D01*
X0058286Y0094299D02*
X0065505Y0094299D01*
X0066104Y0093701D02*
X0057688Y0093701D01*
X0052335Y0097292D02*
X0049523Y0097292D01*
X0049523Y0097890D02*
X0052335Y0097890D01*
X0052612Y0098489D02*
X0049335Y0098489D01*
X0048736Y0099087D02*
X0053210Y0099087D01*
X0053809Y0099686D02*
X0048137Y0099686D01*
X0047539Y0100284D02*
X0062948Y0100284D01*
X0062350Y0099686D02*
X0057837Y0099686D01*
X0063547Y0100883D02*
X0017496Y0100883D01*
X0017496Y0101481D02*
X0064145Y0101481D01*
X0064744Y0102080D02*
X0017496Y0102080D01*
X0017496Y0102678D02*
X0065342Y0102678D01*
X0065941Y0103277D02*
X0017496Y0103277D01*
X0017496Y0103875D02*
X0077132Y0103875D01*
X0077132Y0104474D02*
X0017496Y0104474D01*
X0017496Y0105072D02*
X0077132Y0105072D01*
X0077132Y0105671D02*
X0017496Y0105671D01*
X0017496Y0106269D02*
X0077132Y0106269D01*
X0077132Y0106868D02*
X0017496Y0106868D01*
X0017496Y0107466D02*
X0077132Y0107466D01*
X0077132Y0108065D02*
X0017496Y0108065D01*
X0017496Y0108663D02*
X0077233Y0108663D01*
X0077831Y0109262D02*
X0017496Y0109262D01*
X0017496Y0109860D02*
X0078430Y0109860D01*
X0079028Y0110459D02*
X0017496Y0110459D01*
X0017496Y0111057D02*
X0079627Y0111057D01*
X0080225Y0111656D02*
X0017496Y0111656D01*
X0017496Y0112254D02*
X0080824Y0112254D01*
X0081422Y0112853D02*
X0017496Y0112853D01*
X0017496Y0113451D02*
X0082021Y0113451D01*
X0082619Y0114050D02*
X0017496Y0114050D01*
X0017496Y0114648D02*
X0083218Y0114648D01*
X0083816Y0115247D02*
X0047350Y0115247D01*
X0047237Y0115135D02*
X0049405Y0117302D01*
X0049405Y0118535D01*
X0046005Y0118535D01*
X0046005Y0119135D01*
X0045405Y0119135D01*
X0045405Y0122535D01*
X0044172Y0122535D01*
X0042005Y0120367D01*
X0042005Y0119135D01*
X0045405Y0119135D01*
X0045405Y0118535D01*
X0042005Y0118535D01*
X0042005Y0117302D01*
X0044172Y0115135D01*
X0045405Y0115135D01*
X0045405Y0118535D01*
X0046005Y0118535D01*
X0046005Y0115135D01*
X0047237Y0115135D01*
X0047948Y0115845D02*
X0053762Y0115845D01*
X0054260Y0115347D02*
X0057149Y0115347D01*
X0059192Y0117390D01*
X0059192Y0120279D01*
X0057149Y0122322D01*
X0054260Y0122322D01*
X0052217Y0120279D01*
X0052217Y0117390D01*
X0054260Y0115347D01*
X0053163Y0116444D02*
X0048547Y0116444D01*
X0049145Y0117042D02*
X0052565Y0117042D01*
X0052217Y0117641D02*
X0049405Y0117641D01*
X0049405Y0118239D02*
X0052217Y0118239D01*
X0052217Y0118838D02*
X0046005Y0118838D01*
X0046005Y0119135D02*
X0049405Y0119135D01*
X0049405Y0120367D01*
X0047237Y0122535D01*
X0046005Y0122535D01*
X0046005Y0119135D01*
X0046005Y0119437D02*
X0045405Y0119437D01*
X0045405Y0120035D02*
X0046005Y0120035D01*
X0046005Y0120634D02*
X0045405Y0120634D01*
X0045405Y0121232D02*
X0046005Y0121232D01*
X0046005Y0121831D02*
X0045405Y0121831D01*
X0045405Y0122429D02*
X0046005Y0122429D01*
X0047343Y0122429D02*
X0066508Y0122429D01*
X0066751Y0122672D02*
X0064583Y0120505D01*
X0064583Y0119272D01*
X0067983Y0119272D01*
X0067983Y0118672D01*
X0064583Y0118672D01*
X0064583Y0117440D01*
X0066751Y0115272D01*
X0067983Y0115272D01*
X0067983Y0118672D01*
X0068583Y0118672D01*
X0068583Y0115272D01*
X0069816Y0115272D01*
X0071983Y0117440D01*
X0071983Y0118672D01*
X0068584Y0118672D01*
X0068584Y0119272D01*
X0071983Y0119272D01*
X0071983Y0120505D01*
X0069816Y0122672D01*
X0068583Y0122672D01*
X0068583Y0119272D01*
X0067983Y0119272D01*
X0067983Y0122672D01*
X0066751Y0122672D01*
X0065909Y0121831D02*
X0057641Y0121831D01*
X0058239Y0121232D02*
X0065310Y0121232D01*
X0064712Y0120634D02*
X0058838Y0120634D01*
X0059192Y0120035D02*
X0064583Y0120035D01*
X0064583Y0119437D02*
X0059192Y0119437D01*
X0059192Y0118838D02*
X0067983Y0118838D01*
X0067983Y0119437D02*
X0068583Y0119437D01*
X0068583Y0120035D02*
X0067983Y0120035D01*
X0067983Y0120634D02*
X0068583Y0120634D01*
X0068583Y0121232D02*
X0067983Y0121232D01*
X0067983Y0121831D02*
X0068583Y0121831D01*
X0068583Y0122429D02*
X0067983Y0122429D01*
X0070059Y0122429D02*
X0076808Y0122429D01*
X0076839Y0122460D02*
X0074796Y0120417D01*
X0074796Y0117528D01*
X0076839Y0115485D01*
X0079728Y0115485D01*
X0081771Y0117528D01*
X0081771Y0120417D01*
X0079728Y0122460D01*
X0076839Y0122460D01*
X0076210Y0121831D02*
X0070658Y0121831D01*
X0071256Y0121232D02*
X0075611Y0121232D01*
X0075013Y0120634D02*
X0071855Y0120634D01*
X0071983Y0120035D02*
X0074796Y0120035D01*
X0074796Y0119437D02*
X0071983Y0119437D01*
X0071983Y0118239D02*
X0074796Y0118239D01*
X0074796Y0117641D02*
X0071983Y0117641D01*
X0071586Y0117042D02*
X0075282Y0117042D01*
X0075880Y0116444D02*
X0070988Y0116444D01*
X0070389Y0115845D02*
X0076479Y0115845D01*
X0074796Y0118838D02*
X0068584Y0118838D01*
X0068583Y0118239D02*
X0067983Y0118239D01*
X0067983Y0117641D02*
X0068583Y0117641D01*
X0068583Y0117042D02*
X0067983Y0117042D01*
X0067983Y0116444D02*
X0068583Y0116444D01*
X0068583Y0115845D02*
X0067983Y0115845D01*
X0066178Y0115845D02*
X0057647Y0115845D01*
X0058246Y0116444D02*
X0065579Y0116444D01*
X0064981Y0117042D02*
X0058844Y0117042D01*
X0059192Y0117641D02*
X0064583Y0117641D01*
X0064583Y0118239D02*
X0059192Y0118239D01*
X0053769Y0121831D02*
X0047941Y0121831D01*
X0048540Y0121232D02*
X0053170Y0121232D01*
X0052572Y0120634D02*
X0049138Y0120634D01*
X0049405Y0120035D02*
X0052217Y0120035D01*
X0052217Y0119437D02*
X0049405Y0119437D01*
X0046005Y0118239D02*
X0045405Y0118239D01*
X0045405Y0117641D02*
X0046005Y0117641D01*
X0046005Y0117042D02*
X0045405Y0117042D01*
X0045405Y0116444D02*
X0046005Y0116444D01*
X0046005Y0115845D02*
X0045405Y0115845D01*
X0045405Y0115247D02*
X0046005Y0115247D01*
X0044060Y0115247D02*
X0035558Y0115247D01*
X0035111Y0114800D02*
X0037279Y0116967D01*
X0037279Y0118200D01*
X0033879Y0118200D01*
X0033879Y0118800D01*
X0037279Y0118800D01*
X0037279Y0120033D01*
X0035111Y0122200D01*
X0033879Y0122200D01*
X0033879Y0118800D01*
X0033279Y0118800D01*
X0033279Y0122200D01*
X0032046Y0122200D01*
X0029879Y0120033D01*
X0029879Y0118800D01*
X0033279Y0118800D01*
X0033279Y0118200D01*
X0033879Y0118200D01*
X0033879Y0114800D01*
X0035111Y0114800D01*
X0033879Y0115247D02*
X0033279Y0115247D01*
X0033279Y0114800D02*
X0033279Y0118200D01*
X0029879Y0118200D01*
X0029879Y0116967D01*
X0032046Y0114800D01*
X0033279Y0114800D01*
X0033279Y0115845D02*
X0033879Y0115845D01*
X0033879Y0116444D02*
X0033279Y0116444D01*
X0033279Y0117042D02*
X0033879Y0117042D01*
X0033879Y0117641D02*
X0033279Y0117641D01*
X0033279Y0118239D02*
X0027066Y0118239D01*
X0027066Y0117641D02*
X0029879Y0117641D01*
X0029879Y0117042D02*
X0027053Y0117042D01*
X0027066Y0117055D02*
X0025023Y0115013D01*
X0022134Y0115013D01*
X0020091Y0117055D01*
X0020091Y0119945D01*
X0022134Y0121987D01*
X0025023Y0121987D01*
X0027066Y0119945D01*
X0027066Y0117055D01*
X0026455Y0116444D02*
X0030402Y0116444D01*
X0031001Y0115845D02*
X0025856Y0115845D01*
X0025258Y0115247D02*
X0031599Y0115247D01*
X0033879Y0118239D02*
X0042005Y0118239D01*
X0042005Y0117641D02*
X0037279Y0117641D01*
X0037279Y0117042D02*
X0042264Y0117042D01*
X0042863Y0116444D02*
X0036755Y0116444D01*
X0036157Y0115845D02*
X0043461Y0115845D01*
X0045405Y0118838D02*
X0037279Y0118838D01*
X0037279Y0119437D02*
X0042005Y0119437D01*
X0042005Y0120035D02*
X0037276Y0120035D01*
X0036678Y0120634D02*
X0042271Y0120634D01*
X0042870Y0121232D02*
X0036079Y0121232D01*
X0035481Y0121831D02*
X0043468Y0121831D01*
X0044067Y0122429D02*
X0017496Y0122429D01*
X0017496Y0121831D02*
X0021977Y0121831D01*
X0021379Y0121232D02*
X0017496Y0121232D01*
X0017496Y0120634D02*
X0020780Y0120634D01*
X0020182Y0120035D02*
X0017496Y0120035D01*
X0017496Y0119437D02*
X0020091Y0119437D01*
X0020091Y0118838D02*
X0017496Y0118838D01*
X0017496Y0118239D02*
X0020091Y0118239D01*
X0020091Y0117641D02*
X0017496Y0117641D01*
X0017496Y0117042D02*
X0020104Y0117042D01*
X0020703Y0116444D02*
X0017496Y0116444D01*
X0017496Y0115845D02*
X0021301Y0115845D01*
X0021900Y0115247D02*
X0017496Y0115247D01*
X0025180Y0121831D02*
X0031677Y0121831D01*
X0031078Y0121232D02*
X0025779Y0121232D01*
X0026377Y0120634D02*
X0030480Y0120634D01*
X0029881Y0120035D02*
X0026976Y0120035D01*
X0027066Y0119437D02*
X0029879Y0119437D01*
X0029879Y0118838D02*
X0027066Y0118838D01*
X0033279Y0118838D02*
X0033879Y0118838D01*
X0033879Y0119437D02*
X0033279Y0119437D01*
X0033279Y0120035D02*
X0033879Y0120035D01*
X0033879Y0120634D02*
X0033279Y0120634D01*
X0033279Y0121232D02*
X0033879Y0121232D01*
X0033879Y0121831D02*
X0033279Y0121831D01*
X0017496Y0123028D02*
X0113251Y0123028D01*
X0113849Y0123626D02*
X0017496Y0123626D01*
X0017496Y0124225D02*
X0114448Y0124225D01*
X0115046Y0124823D02*
X0017496Y0124823D01*
X0017496Y0125422D02*
X0115645Y0125422D01*
X0116243Y0126020D02*
X0017496Y0126020D01*
X0017496Y0126619D02*
X0116842Y0126619D01*
X0117440Y0127217D02*
X0017496Y0127217D01*
X0017496Y0100284D02*
X0044107Y0100284D01*
X0043508Y0099686D02*
X0035396Y0099686D01*
X0035994Y0099087D02*
X0042910Y0099087D01*
X0042311Y0098489D02*
X0036593Y0098489D01*
X0036869Y0097890D02*
X0042123Y0097890D01*
X0042123Y0097292D02*
X0036869Y0097292D01*
X0036869Y0096095D02*
X0042123Y0096095D01*
X0042123Y0095496D02*
X0036869Y0095496D01*
X0036444Y0094898D02*
X0042460Y0094898D01*
X0043059Y0094299D02*
X0035845Y0094299D01*
X0035247Y0093701D02*
X0043657Y0093701D01*
X0044256Y0093102D02*
X0032131Y0093102D01*
X0030002Y0094898D02*
X0026444Y0094898D01*
X0026869Y0095323D02*
X0024826Y0093280D01*
X0021937Y0093280D01*
X0019894Y0095323D01*
X0019894Y0098212D01*
X0021937Y0100255D01*
X0024826Y0100255D01*
X0026869Y0098212D01*
X0026869Y0095323D01*
X0026869Y0095496D02*
X0029894Y0095496D01*
X0029894Y0096095D02*
X0026869Y0096095D01*
X0026869Y0096693D02*
X0029894Y0096693D01*
X0029894Y0097292D02*
X0026869Y0097292D01*
X0026869Y0097890D02*
X0029894Y0097890D01*
X0030171Y0098489D02*
X0026593Y0098489D01*
X0025994Y0099087D02*
X0030769Y0099087D01*
X0031368Y0099686D02*
X0025396Y0099686D01*
X0021368Y0099686D02*
X0017496Y0099686D01*
X0017496Y0099087D02*
X0020769Y0099087D01*
X0020171Y0098489D02*
X0017496Y0098489D01*
X0017496Y0097890D02*
X0019894Y0097890D01*
X0019894Y0097292D02*
X0017496Y0097292D01*
X0017496Y0096693D02*
X0019894Y0096693D01*
X0019894Y0096095D02*
X0017496Y0096095D01*
X0017496Y0095496D02*
X0019894Y0095496D01*
X0020320Y0094898D02*
X0017496Y0094898D01*
X0017496Y0094299D02*
X0020919Y0094299D01*
X0021517Y0093701D02*
X0017496Y0093701D01*
X0017496Y0093102D02*
X0028207Y0093102D01*
X0028805Y0093701D02*
X0025247Y0093701D01*
X0025845Y0094299D02*
X0029404Y0094299D01*
X0027608Y0092503D02*
X0017496Y0092503D01*
X0017496Y0091905D02*
X0027010Y0091905D01*
X0026411Y0091306D02*
X0017496Y0091306D01*
X0017496Y0090708D02*
X0025813Y0090708D01*
X0025214Y0090109D02*
X0017496Y0090109D01*
X0017496Y0089511D02*
X0024616Y0089511D01*
X0024017Y0088912D02*
X0017496Y0088912D01*
X0017496Y0088314D02*
X0023419Y0088314D01*
X0022820Y0087715D02*
X0017496Y0087715D01*
X0017496Y0087117D02*
X0022222Y0087117D01*
X0021623Y0086518D02*
X0017496Y0086518D01*
X0017496Y0085920D02*
X0021025Y0085920D01*
X0020426Y0085321D02*
X0017496Y0085321D01*
X0017496Y0084723D02*
X0019828Y0084723D01*
X0019229Y0084124D02*
X0017496Y0084124D01*
X0017496Y0083526D02*
X0018631Y0083526D01*
X0018032Y0082927D02*
X0017496Y0082927D01*
X0017496Y0076942D02*
X0019605Y0076942D01*
X0018500Y0076344D02*
X0017496Y0076344D01*
X0017496Y0075745D02*
X0017902Y0075745D01*
X0017496Y0069760D02*
X0017507Y0069760D01*
X0017496Y0069162D02*
X0018105Y0069162D01*
X0018704Y0068563D02*
X0017496Y0068563D01*
X0017496Y0067965D02*
X0020096Y0067965D01*
X0017496Y0067366D02*
X0029914Y0067366D01*
X0029914Y0066768D02*
X0017496Y0066768D01*
X0017496Y0066169D02*
X0029914Y0066169D01*
X0029914Y0065741D02*
X0030445Y0064459D01*
X0031426Y0063478D01*
X0032708Y0062947D01*
X0034095Y0062947D01*
X0035377Y0063478D01*
X0036358Y0064459D01*
X0036889Y0065741D01*
X0036889Y0071928D01*
X0036358Y0073210D01*
X0035377Y0074191D01*
X0034095Y0074722D01*
X0032708Y0074722D01*
X0031426Y0074191D01*
X0030445Y0073210D01*
X0029914Y0071928D01*
X0029914Y0065741D01*
X0029985Y0065570D02*
X0017496Y0065570D01*
X0017496Y0064972D02*
X0030233Y0064972D01*
X0030531Y0064373D02*
X0017496Y0064373D01*
X0017496Y0063775D02*
X0031129Y0063775D01*
X0032155Y0063176D02*
X0017496Y0063176D01*
X0017496Y0062578D02*
X0086535Y0062578D01*
X0087133Y0061979D02*
X0017496Y0061979D01*
X0017496Y0061381D02*
X0087732Y0061381D01*
X0085936Y0063176D02*
X0054649Y0063176D01*
X0055674Y0063775D02*
X0085338Y0063775D01*
X0084739Y0064373D02*
X0056272Y0064373D01*
X0056570Y0064972D02*
X0084141Y0064972D01*
X0083542Y0065570D02*
X0056818Y0065570D01*
X0056889Y0066169D02*
X0082944Y0066169D01*
X0082345Y0066768D02*
X0056889Y0066768D01*
X0056889Y0067366D02*
X0081747Y0067366D01*
X0081148Y0067965D02*
X0056889Y0067965D01*
X0056889Y0068563D02*
X0080550Y0068563D01*
X0079951Y0069162D02*
X0056889Y0069162D01*
X0056889Y0069760D02*
X0079353Y0069760D01*
X0078754Y0070359D02*
X0056889Y0070359D01*
X0056889Y0070957D02*
X0078156Y0070957D01*
X0077557Y0071556D02*
X0056889Y0071556D01*
X0056795Y0072154D02*
X0076959Y0072154D01*
X0076360Y0072753D02*
X0056548Y0072753D01*
X0056217Y0073351D02*
X0075762Y0073351D01*
X0079087Y0073950D02*
X0099544Y0073950D01*
X0099357Y0073351D02*
X0079686Y0073351D01*
X0080284Y0072753D02*
X0099357Y0072753D01*
X0099357Y0072154D02*
X0080883Y0072154D01*
X0081481Y0071556D02*
X0099380Y0071556D01*
X0099628Y0070957D02*
X0082080Y0070957D01*
X0082678Y0070359D02*
X0099876Y0070359D01*
X0100184Y0069760D02*
X0083277Y0069760D01*
X0083875Y0069162D02*
X0100782Y0069162D01*
X0101381Y0068563D02*
X0084474Y0068563D01*
X0085072Y0067965D02*
X0102773Y0067965D01*
X0105447Y0067965D02*
X0165794Y0067965D01*
X0165195Y0068563D02*
X0106840Y0068563D01*
X0107438Y0069162D02*
X0164597Y0069162D01*
X0163998Y0069760D02*
X0108037Y0069760D01*
X0108345Y0070359D02*
X0163400Y0070359D01*
X0162801Y0070957D02*
X0155146Y0070957D01*
X0155745Y0071556D02*
X0162203Y0071556D01*
X0161604Y0072154D02*
X0156343Y0072154D01*
X0156942Y0072753D02*
X0161006Y0072753D01*
X0160407Y0073351D02*
X0157082Y0073351D01*
X0158654Y0075105D02*
X0158654Y0075105D01*
X0159228Y0076492D02*
X0171039Y0064681D01*
X0172378Y0066610D01*
X0169385Y0064373D02*
X0088663Y0064373D01*
X0088065Y0064972D02*
X0168786Y0064972D01*
X0168188Y0065570D02*
X0087466Y0065570D01*
X0086868Y0066169D02*
X0167589Y0066169D01*
X0166991Y0066768D02*
X0086269Y0066768D01*
X0085671Y0067366D02*
X0166392Y0067366D01*
X0168521Y0069162D02*
X0169856Y0069162D01*
X0169304Y0068563D02*
X0169119Y0068563D01*
X0167922Y0069760D02*
X0170608Y0069760D01*
X0173884Y0073351D02*
X0189337Y0073351D01*
X0189337Y0073950D02*
X0174791Y0073950D01*
X0175389Y0074548D02*
X0189337Y0074548D01*
X0189337Y0075147D02*
X0175655Y0075147D01*
X0175903Y0075745D02*
X0189337Y0075745D01*
X0189337Y0076344D02*
X0175965Y0076344D01*
X0175965Y0076942D02*
X0189337Y0076942D01*
X0189337Y0077541D02*
X0175876Y0077541D01*
X0175628Y0078139D02*
X0189337Y0078139D01*
X0189337Y0078738D02*
X0175324Y0078738D01*
X0174725Y0079336D02*
X0189337Y0079336D01*
X0189337Y0079935D02*
X0173726Y0079935D01*
X0171030Y0079935D02*
X0157748Y0079935D01*
X0157149Y0080533D02*
X0189337Y0080533D01*
X0189337Y0081132D02*
X0156551Y0081132D01*
X0155952Y0081730D02*
X0189337Y0081730D01*
X0189337Y0082329D02*
X0155354Y0082329D01*
X0154755Y0082927D02*
X0189337Y0082927D01*
X0189337Y0083526D02*
X0154157Y0083526D01*
X0153558Y0084124D02*
X0189337Y0084124D01*
X0189337Y0084723D02*
X0152960Y0084723D01*
X0152361Y0085321D02*
X0189337Y0085321D01*
X0189337Y0085920D02*
X0151763Y0085920D01*
X0151164Y0086518D02*
X0189337Y0086518D01*
X0189337Y0087117D02*
X0150566Y0087117D01*
X0149967Y0087715D02*
X0189337Y0087715D01*
X0189337Y0088314D02*
X0149369Y0088314D01*
X0148770Y0088912D02*
X0189337Y0088912D01*
X0189337Y0089511D02*
X0148172Y0089511D01*
X0147573Y0090109D02*
X0189337Y0090109D01*
X0189337Y0090708D02*
X0146975Y0090708D01*
X0146376Y0091306D02*
X0189337Y0091306D01*
X0189337Y0091905D02*
X0145778Y0091905D01*
X0145179Y0092503D02*
X0189337Y0092503D01*
X0189337Y0093102D02*
X0144581Y0093102D01*
X0143982Y0093701D02*
X0189337Y0093701D01*
X0189337Y0094299D02*
X0143384Y0094299D01*
X0142785Y0094898D02*
X0189337Y0094898D01*
X0189183Y0095496D02*
X0183093Y0095496D01*
X0183736Y0095763D02*
X0185027Y0097053D01*
X0185725Y0098739D01*
X0185725Y0100564D01*
X0185027Y0102250D01*
X0184546Y0102731D01*
X0185025Y0103888D01*
X0185025Y0105435D01*
X0184552Y0106578D01*
X0185027Y0107053D01*
X0185725Y0108739D01*
X0185725Y0110564D01*
X0185027Y0112250D01*
X0183736Y0113541D01*
X0182050Y0114239D01*
X0180225Y0114239D01*
X0178539Y0113541D01*
X0177249Y0112250D01*
X0176550Y0110564D01*
X0176550Y0108739D01*
X0177249Y0107053D01*
X0177724Y0106578D01*
X0177250Y0105435D01*
X0177250Y0103888D01*
X0177730Y0102731D01*
X0177249Y0102250D01*
X0176550Y0100564D01*
X0176550Y0098739D01*
X0177249Y0097053D01*
X0178539Y0095763D01*
X0180225Y0095064D01*
X0182050Y0095064D01*
X0183736Y0095763D01*
X0184068Y0096095D02*
X0188207Y0096095D01*
X0187609Y0096693D02*
X0184667Y0096693D01*
X0185126Y0097292D02*
X0187150Y0097292D01*
X0186902Y0097890D02*
X0185374Y0097890D01*
X0185621Y0098489D02*
X0186654Y0098489D01*
X0186550Y0099087D02*
X0185725Y0099087D01*
X0185725Y0099686D02*
X0186550Y0099686D01*
X0186550Y0100284D02*
X0185725Y0100284D01*
X0185593Y0100883D02*
X0186682Y0100883D01*
X0186930Y0101481D02*
X0185345Y0101481D01*
X0185097Y0102080D02*
X0187178Y0102080D01*
X0187677Y0102678D02*
X0184599Y0102678D01*
X0184772Y0103277D02*
X0187543Y0103277D01*
X0187295Y0103875D02*
X0185020Y0103875D01*
X0185025Y0104474D02*
X0187290Y0104474D01*
X0187290Y0105072D02*
X0185025Y0105072D01*
X0184927Y0105671D02*
X0187388Y0105671D01*
X0187635Y0106269D02*
X0184679Y0106269D01*
X0184842Y0106868D02*
X0187434Y0106868D01*
X0187078Y0107466D02*
X0185198Y0107466D01*
X0185446Y0108065D02*
X0186830Y0108065D01*
X0186582Y0108663D02*
X0185694Y0108663D01*
X0185725Y0109262D02*
X0186550Y0109262D01*
X0186550Y0109860D02*
X0185725Y0109860D01*
X0185725Y0110459D02*
X0186550Y0110459D01*
X0186755Y0111057D02*
X0185521Y0111057D01*
X0185273Y0111656D02*
X0187003Y0111656D01*
X0186465Y0112254D02*
X0185023Y0112254D01*
X0184424Y0112853D02*
X0185866Y0112853D01*
X0185268Y0113451D02*
X0183826Y0113451D01*
X0184669Y0114050D02*
X0182507Y0114050D01*
X0183472Y0115247D02*
X0148847Y0115247D01*
X0148363Y0115046D02*
X0150110Y0115770D01*
X0151447Y0117107D01*
X0152170Y0118854D01*
X0152170Y0120745D01*
X0151447Y0122491D01*
X0150110Y0123828D01*
X0148363Y0124552D01*
X0146472Y0124552D01*
X0144725Y0123828D01*
X0143388Y0122491D01*
X0142665Y0120745D01*
X0142665Y0118854D01*
X0143388Y0117107D01*
X0144725Y0115770D01*
X0146472Y0115046D01*
X0148363Y0115046D01*
X0150185Y0115845D02*
X0182874Y0115845D01*
X0182275Y0116444D02*
X0150783Y0116444D01*
X0151382Y0117042D02*
X0181677Y0117042D01*
X0181078Y0117641D02*
X0151668Y0117641D01*
X0151916Y0118239D02*
X0180480Y0118239D01*
X0179881Y0118838D02*
X0152163Y0118838D01*
X0152170Y0119437D02*
X0179283Y0119437D01*
X0178684Y0120035D02*
X0152170Y0120035D01*
X0152170Y0120634D02*
X0178085Y0120634D01*
X0177487Y0121232D02*
X0151968Y0121232D01*
X0151720Y0121831D02*
X0176888Y0121831D01*
X0176290Y0122429D02*
X0151472Y0122429D01*
X0150910Y0123028D02*
X0175691Y0123028D01*
X0175093Y0123626D02*
X0150312Y0123626D01*
X0149153Y0124225D02*
X0174494Y0124225D01*
X0173896Y0124823D02*
X0118970Y0124823D01*
X0118372Y0124225D02*
X0145682Y0124225D01*
X0144523Y0123626D02*
X0117773Y0123626D01*
X0117175Y0123028D02*
X0143924Y0123028D01*
X0143362Y0122429D02*
X0116576Y0122429D01*
X0115978Y0121831D02*
X0143114Y0121831D01*
X0142866Y0121232D02*
X0115379Y0121232D01*
X0114781Y0120634D02*
X0142665Y0120634D01*
X0142665Y0120035D02*
X0114182Y0120035D01*
X0113584Y0119437D02*
X0142665Y0119437D01*
X0142671Y0118838D02*
X0126381Y0118838D01*
X0126067Y0119153D02*
X0123178Y0119153D01*
X0121135Y0117110D01*
X0121135Y0114221D01*
X0123178Y0112178D01*
X0126067Y0112178D01*
X0128109Y0114221D01*
X0128109Y0117110D01*
X0126067Y0119153D01*
X0126980Y0118239D02*
X0142919Y0118239D01*
X0143167Y0117641D02*
X0127578Y0117641D01*
X0128109Y0117042D02*
X0143453Y0117042D01*
X0144051Y0116444D02*
X0128109Y0116444D01*
X0128109Y0115845D02*
X0144650Y0115845D01*
X0145988Y0115247D02*
X0128109Y0115247D01*
X0128109Y0114648D02*
X0184071Y0114648D01*
X0186199Y0116444D02*
X0257654Y0116444D01*
X0257654Y0117042D02*
X0185601Y0117042D01*
X0185002Y0117641D02*
X0257654Y0117641D01*
X0257654Y0118239D02*
X0184404Y0118239D01*
X0183805Y0118838D02*
X0257654Y0118838D01*
X0257654Y0119437D02*
X0183207Y0119437D01*
X0182608Y0120035D02*
X0257654Y0120035D01*
X0257654Y0120634D02*
X0182010Y0120634D01*
X0181411Y0121232D02*
X0257654Y0121232D01*
X0257654Y0121831D02*
X0180813Y0121831D01*
X0180214Y0122429D02*
X0257654Y0122429D01*
X0257654Y0123028D02*
X0179616Y0123028D01*
X0179017Y0123626D02*
X0257654Y0123626D01*
X0257654Y0124225D02*
X0178419Y0124225D01*
X0177820Y0124823D02*
X0257654Y0124823D01*
X0257654Y0125422D02*
X0177222Y0125422D01*
X0176623Y0126020D02*
X0257654Y0126020D01*
X0257654Y0126619D02*
X0176025Y0126619D01*
X0175426Y0127217D02*
X0257654Y0127217D01*
X0257654Y0127816D02*
X0210409Y0127816D01*
X0210409Y0128414D02*
X0257654Y0128414D01*
X0257654Y0129013D02*
X0210409Y0129013D01*
X0210409Y0129611D02*
X0257654Y0129611D01*
X0257654Y0130210D02*
X0210409Y0130210D01*
X0210409Y0130808D02*
X0257654Y0130808D01*
X0257654Y0131407D02*
X0210409Y0131407D01*
X0210409Y0132005D02*
X0257654Y0132005D01*
X0257654Y0132604D02*
X0210409Y0132604D01*
X0210409Y0133202D02*
X0257654Y0133202D01*
X0257654Y0133801D02*
X0210409Y0133801D01*
X0210409Y0134399D02*
X0257654Y0134399D01*
X0257654Y0134998D02*
X0210409Y0134998D01*
X0210409Y0135596D02*
X0257654Y0135596D01*
X0257654Y0136195D02*
X0210409Y0136195D01*
X0210409Y0136793D02*
X0257654Y0136793D01*
X0257654Y0137392D02*
X0238378Y0137392D01*
X0237275Y0136935D02*
X0239521Y0137865D01*
X0241241Y0139585D01*
X0242171Y0141831D01*
X0242171Y0144263D01*
X0241241Y0146510D01*
X0239521Y0148229D01*
X0237275Y0149160D01*
X0234843Y0149160D01*
X0232597Y0148229D01*
X0230877Y0146510D01*
X0229947Y0144263D01*
X0229947Y0141831D01*
X0230877Y0139585D01*
X0232597Y0137865D01*
X0234843Y0136935D01*
X0237275Y0136935D01*
X0239646Y0137990D02*
X0257654Y0137990D01*
X0257654Y0138589D02*
X0240245Y0138589D01*
X0240843Y0139187D02*
X0257654Y0139187D01*
X0257654Y0139786D02*
X0241324Y0139786D01*
X0241572Y0140384D02*
X0257654Y0140384D01*
X0257654Y0140983D02*
X0241820Y0140983D01*
X0242068Y0141581D02*
X0257654Y0141581D01*
X0257654Y0142180D02*
X0242171Y0142180D01*
X0242171Y0142778D02*
X0257654Y0142778D01*
X0257654Y0143377D02*
X0242171Y0143377D01*
X0242171Y0143975D02*
X0257654Y0143975D01*
X0257654Y0144574D02*
X0242043Y0144574D01*
X0241795Y0145172D02*
X0257654Y0145172D01*
X0257654Y0145771D02*
X0241547Y0145771D01*
X0241299Y0146370D02*
X0257654Y0146370D01*
X0257654Y0146968D02*
X0240782Y0146968D01*
X0240184Y0147567D02*
X0257654Y0147567D01*
X0257654Y0148165D02*
X0239585Y0148165D01*
X0238231Y0148764D02*
X0257654Y0148764D01*
X0257654Y0149362D02*
X0210409Y0149362D01*
X0210409Y0148764D02*
X0233887Y0148764D01*
X0232533Y0148165D02*
X0210409Y0148165D01*
X0210409Y0147567D02*
X0231934Y0147567D01*
X0231336Y0146968D02*
X0210409Y0146968D01*
X0210409Y0146370D02*
X0230819Y0146370D01*
X0230571Y0145771D02*
X0210409Y0145771D01*
X0210409Y0145172D02*
X0230323Y0145172D01*
X0230075Y0144574D02*
X0210409Y0144574D01*
X0210409Y0143975D02*
X0229947Y0143975D01*
X0229947Y0143377D02*
X0210409Y0143377D01*
X0210409Y0142778D02*
X0229947Y0142778D01*
X0229947Y0142180D02*
X0210409Y0142180D01*
X0210409Y0141581D02*
X0230050Y0141581D01*
X0230298Y0140983D02*
X0210409Y0140983D01*
X0210409Y0140384D02*
X0230546Y0140384D01*
X0230794Y0139786D02*
X0210409Y0139786D01*
X0210409Y0139187D02*
X0231275Y0139187D01*
X0231873Y0138589D02*
X0210409Y0138589D01*
X0210409Y0137990D02*
X0232472Y0137990D01*
X0233740Y0137392D02*
X0210409Y0137392D01*
X0210409Y0149961D02*
X0257654Y0149961D01*
X0257654Y0150559D02*
X0210409Y0150559D01*
X0210409Y0151158D02*
X0257654Y0151158D01*
X0257654Y0115845D02*
X0186798Y0115845D01*
X0187396Y0115247D02*
X0257654Y0115247D01*
X0234596Y0087715D02*
X0192112Y0087715D01*
X0192112Y0087117D02*
X0233262Y0087117D01*
X0232663Y0086518D02*
X0192112Y0086518D01*
X0192112Y0085920D02*
X0232065Y0085920D01*
X0231773Y0085321D02*
X0192112Y0085321D01*
X0192112Y0084723D02*
X0231525Y0084723D01*
X0231277Y0084124D02*
X0192112Y0084124D01*
X0192112Y0083526D02*
X0231259Y0083526D01*
X0231259Y0082927D02*
X0192112Y0082927D01*
X0192112Y0082329D02*
X0231259Y0082329D01*
X0231442Y0081730D02*
X0192112Y0081730D01*
X0192112Y0081132D02*
X0231690Y0081132D01*
X0201294Y0063176D02*
X0196160Y0063176D01*
X0195561Y0063775D02*
X0200140Y0063775D01*
X0199541Y0064373D02*
X0194963Y0064373D01*
X0194364Y0064972D02*
X0199174Y0064972D01*
X0198926Y0065570D02*
X0193766Y0065570D01*
X0193167Y0066169D02*
X0198791Y0066169D01*
X0198791Y0066768D02*
X0192569Y0066768D01*
X0192112Y0067366D02*
X0198808Y0067366D01*
X0199056Y0067965D02*
X0192112Y0067965D01*
X0192112Y0068563D02*
X0199304Y0068563D01*
X0199856Y0069162D02*
X0192112Y0069162D01*
X0192112Y0069760D02*
X0200608Y0069760D01*
X0185984Y0059585D02*
X0174476Y0059585D01*
X0175075Y0058987D02*
X0186583Y0058987D01*
X0187181Y0058388D02*
X0175524Y0058388D01*
X0175772Y0057790D02*
X0187780Y0057790D01*
X0188378Y0057191D02*
X0175965Y0057191D01*
X0175965Y0056593D02*
X0188977Y0056593D01*
X0189575Y0055994D02*
X0175965Y0055994D01*
X0175758Y0055396D02*
X0190174Y0055396D01*
X0190772Y0054797D02*
X0175510Y0054797D01*
X0175040Y0054199D02*
X0191371Y0054199D01*
X0191969Y0053600D02*
X0174441Y0053600D01*
X0171165Y0053002D02*
X0192568Y0053002D01*
X0193166Y0052403D02*
X0170566Y0052403D01*
X0169968Y0051805D02*
X0193765Y0051805D01*
X0194363Y0051206D02*
X0169369Y0051206D01*
X0168771Y0050608D02*
X0194962Y0050608D01*
X0195560Y0050009D02*
X0174102Y0050009D01*
X0174178Y0049978D02*
X0173486Y0050264D01*
X0172752Y0050410D01*
X0172678Y0050410D01*
X0172678Y0046910D01*
X0176178Y0046910D01*
X0176178Y0046984D01*
X0176032Y0047719D01*
X0175745Y0048410D01*
X0175330Y0049033D01*
X0174800Y0049562D01*
X0174178Y0049978D01*
X0174952Y0049411D02*
X0196159Y0049411D01*
X0196757Y0048812D02*
X0175477Y0048812D01*
X0175827Y0048214D02*
X0197356Y0048214D01*
X0197954Y0047615D02*
X0176053Y0047615D01*
X0176172Y0047017D02*
X0198553Y0047017D01*
X0198791Y0046418D02*
X0172678Y0046418D01*
X0172678Y0046310D02*
X0172678Y0046910D01*
X0172078Y0046910D01*
X0172078Y0046310D01*
X0172678Y0046310D01*
X0172678Y0042810D01*
X0172752Y0042810D01*
X0173486Y0042956D01*
X0174178Y0043243D01*
X0174800Y0043659D01*
X0175330Y0044188D01*
X0175745Y0044810D01*
X0176032Y0045502D01*
X0176178Y0046236D01*
X0176178Y0046310D01*
X0172678Y0046310D01*
X0172678Y0045820D02*
X0172078Y0045820D01*
X0172078Y0046310D02*
X0172078Y0042810D01*
X0172004Y0042810D01*
X0171270Y0042956D01*
X0170578Y0043243D01*
X0169956Y0043659D01*
X0169426Y0044188D01*
X0169010Y0044810D01*
X0168724Y0045502D01*
X0168578Y0046236D01*
X0168578Y0046310D01*
X0172078Y0046310D01*
X0172078Y0046418D02*
X0164581Y0046418D01*
X0163982Y0045820D02*
X0168661Y0045820D01*
X0168840Y0045221D02*
X0163384Y0045221D01*
X0162785Y0044623D02*
X0169136Y0044623D01*
X0169590Y0044024D02*
X0162187Y0044024D01*
X0161588Y0043426D02*
X0170304Y0043426D01*
X0171919Y0042827D02*
X0160990Y0042827D01*
X0160391Y0042229D02*
X0257654Y0042229D01*
X0257654Y0042827D02*
X0172837Y0042827D01*
X0172678Y0042827D02*
X0172078Y0042827D01*
X0172078Y0043426D02*
X0172678Y0043426D01*
X0172678Y0044024D02*
X0172078Y0044024D01*
X0172078Y0044623D02*
X0172678Y0044623D01*
X0172678Y0045221D02*
X0172078Y0045221D01*
X0172078Y0046910D02*
X0168578Y0046910D01*
X0168578Y0046984D01*
X0168724Y0047719D01*
X0169010Y0048410D01*
X0169426Y0049033D01*
X0169956Y0049562D01*
X0170578Y0049978D01*
X0171270Y0050264D01*
X0172004Y0050410D01*
X0172078Y0050410D01*
X0172078Y0046910D01*
X0172078Y0047017D02*
X0172678Y0047017D01*
X0172678Y0047615D02*
X0172078Y0047615D01*
X0172078Y0048214D02*
X0172678Y0048214D01*
X0172678Y0048812D02*
X0172078Y0048812D01*
X0172078Y0049411D02*
X0172678Y0049411D01*
X0172678Y0050009D02*
X0172078Y0050009D01*
X0170654Y0050009D02*
X0168172Y0050009D01*
X0167574Y0049411D02*
X0169804Y0049411D01*
X0169279Y0048812D02*
X0166975Y0048812D01*
X0166377Y0048214D02*
X0168929Y0048214D01*
X0168703Y0047615D02*
X0165778Y0047615D01*
X0165179Y0047017D02*
X0168584Y0047017D01*
X0164846Y0050608D02*
X0148086Y0050608D01*
X0147807Y0050887D02*
X0146277Y0051520D01*
X0144621Y0051520D01*
X0143091Y0050887D01*
X0141920Y0049716D01*
X0141287Y0048186D01*
X0141287Y0046530D01*
X0141920Y0045001D01*
X0143091Y0043830D01*
X0144621Y0043196D01*
X0146277Y0043196D01*
X0147807Y0043830D01*
X0148977Y0045001D01*
X0149611Y0046530D01*
X0149611Y0048186D01*
X0148977Y0049716D01*
X0147807Y0050887D01*
X0147035Y0051206D02*
X0165445Y0051206D01*
X0166043Y0051805D02*
X0077448Y0051805D01*
X0078046Y0052403D02*
X0166642Y0052403D01*
X0167240Y0053002D02*
X0078645Y0053002D01*
X0079243Y0053600D02*
X0167839Y0053600D01*
X0168437Y0054199D02*
X0079842Y0054199D01*
X0080440Y0054797D02*
X0169036Y0054797D01*
X0168998Y0055396D02*
X0081039Y0055396D01*
X0081637Y0055994D02*
X0168791Y0055994D01*
X0168791Y0056593D02*
X0150485Y0056593D01*
X0150766Y0056709D02*
X0151452Y0057395D01*
X0151823Y0058291D01*
X0151823Y0059260D01*
X0151452Y0060156D01*
X0150766Y0060842D01*
X0149871Y0061213D01*
X0148901Y0061213D01*
X0148005Y0060842D01*
X0147326Y0060163D01*
X0083031Y0060163D01*
X0081882Y0060163D01*
X0048133Y0026414D01*
X0047759Y0026568D01*
X0046013Y0026568D01*
X0044401Y0025901D01*
X0043166Y0024666D01*
X0042949Y0024141D01*
X0042731Y0024666D01*
X0041497Y0025901D01*
X0039885Y0026568D01*
X0038139Y0026568D01*
X0036527Y0025901D01*
X0035292Y0024666D01*
X0035075Y0024141D01*
X0034857Y0024666D01*
X0033623Y0025901D01*
X0032011Y0026568D01*
X0030265Y0026568D01*
X0028653Y0025901D01*
X0027418Y0024666D01*
X0027201Y0024141D01*
X0026983Y0024666D01*
X0025749Y0025901D01*
X0024136Y0026568D01*
X0022391Y0026568D01*
X0020779Y0025901D01*
X0019544Y0024666D01*
X0018876Y0023054D01*
X0018876Y0021308D01*
X0019544Y0019696D01*
X0020779Y0018462D01*
X0022391Y0017794D01*
X0024136Y0017794D01*
X0025749Y0018462D01*
X0026983Y0019696D01*
X0027201Y0020221D01*
X0027418Y0019696D01*
X0028653Y0018462D01*
X0030265Y0017794D01*
X0032011Y0017794D01*
X0033623Y0018462D01*
X0034857Y0019696D01*
X0035075Y0020221D01*
X0035292Y0019696D01*
X0036527Y0018462D01*
X0038139Y0017794D01*
X0039885Y0017794D01*
X0041497Y0018462D01*
X0042731Y0019696D01*
X0042949Y0020221D01*
X0043166Y0019696D01*
X0044401Y0018462D01*
X0046013Y0017794D01*
X0047759Y0017794D01*
X0049371Y0018462D01*
X0050605Y0019696D01*
X0050823Y0020221D01*
X0051040Y0019696D01*
X0052275Y0018462D01*
X0053887Y0017794D01*
X0055633Y0017794D01*
X0057245Y0018462D01*
X0058479Y0019696D01*
X0059147Y0021308D01*
X0059147Y0023054D01*
X0058479Y0024666D01*
X0057245Y0025901D01*
X0055633Y0026568D01*
X0053887Y0026568D01*
X0052275Y0025901D01*
X0051040Y0024666D01*
X0050823Y0024141D01*
X0050605Y0024666D01*
X0050457Y0024814D01*
X0083031Y0057388D01*
X0147326Y0057388D01*
X0148005Y0056709D01*
X0148901Y0056338D01*
X0149871Y0056338D01*
X0150766Y0056709D01*
X0151249Y0057191D02*
X0168791Y0057191D01*
X0168984Y0057790D02*
X0151616Y0057790D01*
X0151823Y0058388D02*
X0169232Y0058388D01*
X0169681Y0058987D02*
X0151823Y0058987D01*
X0151689Y0059585D02*
X0170280Y0059585D01*
X0171631Y0060184D02*
X0151425Y0060184D01*
X0150826Y0060782D02*
X0184787Y0060782D01*
X0185386Y0060184D02*
X0173125Y0060184D01*
X0172378Y0056610D02*
X0171039Y0054839D01*
X0135606Y0019406D01*
X0117890Y0019406D01*
X0116720Y0019465D01*
X0121149Y0021281D02*
X0135519Y0021281D01*
X0136118Y0021879D02*
X0120901Y0021879D01*
X0120477Y0022478D02*
X0136716Y0022478D01*
X0137315Y0023076D02*
X0119878Y0023076D01*
X0119066Y0023675D02*
X0137913Y0023675D01*
X0138512Y0024273D02*
X0110940Y0024273D01*
X0110341Y0023675D02*
X0114374Y0023675D01*
X0113561Y0023076D02*
X0109743Y0023076D01*
X0109144Y0022478D02*
X0112962Y0022478D01*
X0112538Y0021879D02*
X0109501Y0021879D01*
X0109749Y0021281D02*
X0112290Y0021281D01*
X0112042Y0020682D02*
X0109997Y0020682D01*
X0110107Y0020084D02*
X0111932Y0020084D01*
X0111932Y0019485D02*
X0110107Y0019485D01*
X0110107Y0018887D02*
X0111932Y0018887D01*
X0112025Y0018288D02*
X0110014Y0018288D01*
X0109766Y0017690D02*
X0112273Y0017690D01*
X0105320Y0019465D02*
X0106079Y0021374D01*
X0115921Y0031217D01*
X0115921Y0043028D01*
X0116394Y0044917D01*
X0120359Y0046418D02*
X0141333Y0046418D01*
X0141287Y0047017D02*
X0120111Y0047017D01*
X0119688Y0047615D02*
X0141287Y0047615D01*
X0141298Y0048214D02*
X0119090Y0048214D01*
X0118064Y0048812D02*
X0141546Y0048812D01*
X0141794Y0049411D02*
X0085127Y0049411D01*
X0085001Y0049716D02*
X0083830Y0050887D01*
X0082300Y0051520D01*
X0080645Y0051520D01*
X0079115Y0050887D01*
X0077944Y0049716D01*
X0077310Y0048186D01*
X0077310Y0046530D01*
X0077944Y0045001D01*
X0079115Y0043830D01*
X0080645Y0043196D01*
X0082300Y0043196D01*
X0083830Y0043830D01*
X0085001Y0045001D01*
X0085635Y0046530D01*
X0085635Y0048186D01*
X0085001Y0049716D01*
X0084708Y0050009D02*
X0142214Y0050009D01*
X0142812Y0050608D02*
X0084109Y0050608D01*
X0083059Y0051206D02*
X0143862Y0051206D01*
X0148684Y0050009D02*
X0164248Y0050009D01*
X0163649Y0049411D02*
X0149104Y0049411D01*
X0149352Y0048812D02*
X0163051Y0048812D01*
X0162452Y0048214D02*
X0149600Y0048214D01*
X0149611Y0047615D02*
X0161854Y0047615D01*
X0161255Y0047017D02*
X0149611Y0047017D01*
X0149565Y0046418D02*
X0160657Y0046418D01*
X0160058Y0045820D02*
X0149317Y0045820D01*
X0149069Y0045221D02*
X0159460Y0045221D01*
X0158861Y0044623D02*
X0148599Y0044623D01*
X0148001Y0044024D02*
X0158263Y0044024D01*
X0157664Y0043426D02*
X0146831Y0043426D01*
X0144067Y0043426D02*
X0120362Y0043426D01*
X0120610Y0044024D02*
X0142897Y0044024D01*
X0142298Y0044623D02*
X0120631Y0044623D01*
X0120631Y0045221D02*
X0141829Y0045221D01*
X0141581Y0045820D02*
X0120606Y0045820D01*
X0120114Y0042827D02*
X0157066Y0042827D01*
X0156467Y0042229D02*
X0119698Y0042229D01*
X0119099Y0041630D02*
X0155869Y0041630D01*
X0155270Y0041032D02*
X0118085Y0041032D01*
X0117309Y0040433D02*
X0154672Y0040433D01*
X0154073Y0039834D02*
X0117309Y0039834D01*
X0117309Y0039236D02*
X0153475Y0039236D01*
X0152876Y0038637D02*
X0117309Y0038637D01*
X0117309Y0038039D02*
X0152278Y0038039D01*
X0151679Y0037440D02*
X0117309Y0037440D01*
X0117309Y0036842D02*
X0151081Y0036842D01*
X0150482Y0036243D02*
X0117309Y0036243D01*
X0117309Y0035645D02*
X0149884Y0035645D01*
X0149285Y0035046D02*
X0117309Y0035046D01*
X0117309Y0034448D02*
X0148687Y0034448D01*
X0148088Y0033849D02*
X0117309Y0033849D01*
X0117309Y0033251D02*
X0147490Y0033251D01*
X0146891Y0032652D02*
X0117309Y0032652D01*
X0117309Y0032054D02*
X0146293Y0032054D01*
X0145694Y0031455D02*
X0117309Y0031455D01*
X0117309Y0030857D02*
X0145096Y0030857D01*
X0144497Y0030258D02*
X0116925Y0030258D01*
X0116327Y0029660D02*
X0143899Y0029660D01*
X0143300Y0029061D02*
X0115728Y0029061D01*
X0115130Y0028463D02*
X0142702Y0028463D01*
X0142103Y0027864D02*
X0114531Y0027864D01*
X0113933Y0027266D02*
X0141504Y0027266D01*
X0140906Y0026667D02*
X0113334Y0026667D01*
X0112736Y0026069D02*
X0140307Y0026069D01*
X0139709Y0025470D02*
X0112137Y0025470D01*
X0111539Y0024872D02*
X0139110Y0024872D01*
X0141239Y0023076D02*
X0142840Y0023076D01*
X0142241Y0022478D02*
X0140641Y0022478D01*
X0140042Y0021879D02*
X0141805Y0021879D01*
X0141557Y0021281D02*
X0139444Y0021281D01*
X0138845Y0020682D02*
X0141309Y0020682D01*
X0141287Y0020084D02*
X0138246Y0020084D01*
X0137648Y0019485D02*
X0141287Y0019485D01*
X0141322Y0018887D02*
X0137049Y0018887D01*
X0136451Y0018288D02*
X0141570Y0018288D01*
X0141818Y0017690D02*
X0121166Y0017690D01*
X0108213Y0025470D02*
X0057675Y0025470D01*
X0058274Y0024872D02*
X0107614Y0024872D01*
X0107016Y0024273D02*
X0058642Y0024273D01*
X0058890Y0023675D02*
X0079952Y0023675D01*
X0078863Y0023076D02*
X0059138Y0023076D01*
X0059147Y0022478D02*
X0078265Y0022478D01*
X0077829Y0021879D02*
X0059147Y0021879D01*
X0059136Y0021281D02*
X0077581Y0021281D01*
X0077333Y0020682D02*
X0058888Y0020682D01*
X0058640Y0020084D02*
X0077310Y0020084D01*
X0077310Y0019485D02*
X0058269Y0019485D01*
X0057670Y0018887D02*
X0077345Y0018887D01*
X0077593Y0018288D02*
X0056826Y0018288D01*
X0052694Y0018288D02*
X0048952Y0018288D01*
X0049796Y0018887D02*
X0051850Y0018887D01*
X0051251Y0019485D02*
X0050395Y0019485D01*
X0050766Y0020084D02*
X0050880Y0020084D01*
X0046886Y0022181D02*
X0047024Y0023343D01*
X0082457Y0058776D01*
X0149386Y0058776D01*
X0148286Y0056593D02*
X0082236Y0056593D01*
X0082835Y0057191D02*
X0147523Y0057191D01*
X0147347Y0060184D02*
X0017496Y0060184D01*
X0017496Y0060782D02*
X0147946Y0060782D01*
X0153082Y0070957D02*
X0153682Y0070957D01*
X0153682Y0071556D02*
X0153082Y0071556D01*
X0153082Y0072154D02*
X0153682Y0072154D01*
X0153682Y0072753D02*
X0153082Y0072753D01*
X0153082Y0073351D02*
X0153682Y0073351D01*
X0158945Y0078738D02*
X0169432Y0078738D01*
X0169128Y0078139D02*
X0159543Y0078139D01*
X0158346Y0079336D02*
X0170031Y0079336D01*
X0170225Y0095064D02*
X0172050Y0095064D01*
X0173736Y0095763D01*
X0175027Y0097053D01*
X0175725Y0098739D01*
X0175725Y0100564D01*
X0175027Y0102250D01*
X0174603Y0102674D01*
X0175065Y0103790D01*
X0175065Y0105336D01*
X0174551Y0106577D01*
X0175027Y0107053D01*
X0175725Y0108739D01*
X0175725Y0110564D01*
X0175027Y0112250D01*
X0173736Y0113541D01*
X0172050Y0114239D01*
X0170225Y0114239D01*
X0168539Y0113541D01*
X0167249Y0112250D01*
X0166550Y0110564D01*
X0166550Y0108739D01*
X0167249Y0107053D01*
X0167781Y0106521D01*
X0167290Y0105336D01*
X0167290Y0103790D01*
X0167729Y0102730D01*
X0167249Y0102250D01*
X0166550Y0100564D01*
X0166550Y0098739D01*
X0167249Y0097053D01*
X0168539Y0095763D01*
X0170225Y0095064D01*
X0169183Y0095496D02*
X0142186Y0095496D01*
X0154927Y0096095D02*
X0168207Y0096095D01*
X0167609Y0096693D02*
X0155796Y0096693D01*
X0156394Y0097292D02*
X0167150Y0097292D01*
X0166902Y0097890D02*
X0156751Y0097890D01*
X0156999Y0098489D02*
X0166654Y0098489D01*
X0166550Y0099087D02*
X0157226Y0099087D01*
X0157226Y0099686D02*
X0166550Y0099686D01*
X0166550Y0100284D02*
X0157226Y0100284D01*
X0157159Y0100883D02*
X0166682Y0100883D01*
X0166930Y0101481D02*
X0156911Y0101481D01*
X0156663Y0102080D02*
X0167178Y0102080D01*
X0167677Y0102678D02*
X0156181Y0102678D01*
X0155582Y0103277D02*
X0167502Y0103277D01*
X0167290Y0103875D02*
X0154411Y0103875D01*
X0167290Y0104474D02*
X0098621Y0104474D01*
X0099219Y0105072D02*
X0167290Y0105072D01*
X0167428Y0105671D02*
X0099818Y0105671D01*
X0100416Y0106269D02*
X0167676Y0106269D01*
X0167434Y0106868D02*
X0101015Y0106868D01*
X0101613Y0107466D02*
X0167078Y0107466D01*
X0166830Y0108065D02*
X0102212Y0108065D01*
X0102810Y0108663D02*
X0166582Y0108663D01*
X0166550Y0109262D02*
X0103409Y0109262D01*
X0104007Y0109860D02*
X0166550Y0109860D01*
X0166550Y0110459D02*
X0104606Y0110459D01*
X0105204Y0111057D02*
X0166755Y0111057D01*
X0167003Y0111656D02*
X0105803Y0111656D01*
X0106401Y0112254D02*
X0112800Y0112254D01*
X0113089Y0111965D02*
X0110922Y0114133D01*
X0110922Y0115365D01*
X0114322Y0115365D01*
X0114322Y0111965D01*
X0113089Y0111965D01*
X0112202Y0112853D02*
X0107000Y0112853D01*
X0107599Y0113451D02*
X0111603Y0113451D01*
X0111005Y0114050D02*
X0108197Y0114050D01*
X0108796Y0114648D02*
X0110922Y0114648D01*
X0110922Y0115247D02*
X0109394Y0115247D01*
X0109993Y0115845D02*
X0114322Y0115845D01*
X0114322Y0115247D02*
X0114922Y0115247D01*
X0114922Y0115845D02*
X0121135Y0115845D01*
X0121135Y0115247D02*
X0118322Y0115247D01*
X0118322Y0114648D02*
X0121135Y0114648D01*
X0121306Y0114050D02*
X0118239Y0114050D01*
X0117641Y0113451D02*
X0121904Y0113451D01*
X0122503Y0112853D02*
X0117042Y0112853D01*
X0116444Y0112254D02*
X0123101Y0112254D01*
X0126143Y0112254D02*
X0167253Y0112254D01*
X0167852Y0112853D02*
X0126741Y0112853D01*
X0127340Y0113451D02*
X0168450Y0113451D01*
X0169769Y0114050D02*
X0127939Y0114050D01*
X0122264Y0118239D02*
X0117280Y0118239D01*
X0116682Y0118838D02*
X0122863Y0118838D01*
X0121666Y0117641D02*
X0117879Y0117641D01*
X0118322Y0117042D02*
X0121135Y0117042D01*
X0121135Y0116444D02*
X0118322Y0116444D01*
X0114922Y0116444D02*
X0114322Y0116444D01*
X0114322Y0117042D02*
X0114922Y0117042D01*
X0114922Y0117641D02*
X0114322Y0117641D01*
X0114322Y0118239D02*
X0114922Y0118239D01*
X0114922Y0118838D02*
X0114322Y0118838D01*
X0110922Y0116444D02*
X0110591Y0116444D01*
X0114322Y0114648D02*
X0114922Y0114648D01*
X0114922Y0114050D02*
X0114322Y0114050D01*
X0114322Y0113451D02*
X0114922Y0113451D01*
X0114922Y0112853D02*
X0114322Y0112853D01*
X0114322Y0112254D02*
X0114922Y0112254D01*
X0119569Y0125422D02*
X0173297Y0125422D01*
X0172699Y0126020D02*
X0120167Y0126020D01*
X0120766Y0126619D02*
X0172100Y0126619D01*
X0171502Y0127217D02*
X0121364Y0127217D01*
X0121827Y0129642D02*
X0171039Y0129642D01*
X0188756Y0111925D01*
X0179769Y0114050D02*
X0172507Y0114050D01*
X0173826Y0113451D02*
X0178450Y0113451D01*
X0177852Y0112853D02*
X0174424Y0112853D01*
X0175023Y0112254D02*
X0177253Y0112254D01*
X0177003Y0111656D02*
X0175273Y0111656D01*
X0175521Y0111057D02*
X0176755Y0111057D01*
X0176550Y0110459D02*
X0175725Y0110459D01*
X0175725Y0109860D02*
X0176550Y0109860D01*
X0176550Y0109262D02*
X0175725Y0109262D01*
X0175694Y0108663D02*
X0176582Y0108663D01*
X0176830Y0108065D02*
X0175446Y0108065D01*
X0175198Y0107466D02*
X0177078Y0107466D01*
X0177434Y0106868D02*
X0174842Y0106868D01*
X0174678Y0106269D02*
X0177596Y0106269D01*
X0177348Y0105671D02*
X0174926Y0105671D01*
X0175065Y0105072D02*
X0177250Y0105072D01*
X0177250Y0104474D02*
X0175065Y0104474D01*
X0175065Y0103875D02*
X0177256Y0103875D01*
X0177504Y0103277D02*
X0174852Y0103277D01*
X0174604Y0102678D02*
X0177677Y0102678D01*
X0177178Y0102080D02*
X0175097Y0102080D01*
X0175345Y0101481D02*
X0176930Y0101481D01*
X0176682Y0100883D02*
X0175593Y0100883D01*
X0175725Y0100284D02*
X0176550Y0100284D01*
X0176550Y0099686D02*
X0175725Y0099686D01*
X0175725Y0099087D02*
X0176550Y0099087D01*
X0176654Y0098489D02*
X0175621Y0098489D01*
X0175374Y0097890D02*
X0176902Y0097890D01*
X0177150Y0097292D02*
X0175126Y0097292D01*
X0174667Y0096693D02*
X0177609Y0096693D01*
X0178207Y0096095D02*
X0174068Y0096095D01*
X0173093Y0095496D02*
X0179183Y0095496D01*
X0123107Y0091306D02*
X0116413Y0091306D01*
X0117011Y0090708D02*
X0122508Y0090708D01*
X0121910Y0090109D02*
X0117610Y0090109D01*
X0118208Y0089511D02*
X0121311Y0089511D01*
X0121272Y0088912D02*
X0118247Y0088912D01*
X0118247Y0088314D02*
X0121272Y0088314D01*
X0121272Y0087715D02*
X0118247Y0087715D01*
X0118247Y0087117D02*
X0121272Y0087117D01*
X0121337Y0086518D02*
X0118183Y0086518D01*
X0117584Y0085920D02*
X0121936Y0085920D01*
X0122534Y0085321D02*
X0116986Y0085321D01*
X0116387Y0084723D02*
X0123133Y0084723D01*
X0101177Y0076344D02*
X0081886Y0076344D01*
X0081287Y0075745D02*
X0100579Y0075745D01*
X0100039Y0075147D02*
X0080689Y0075147D01*
X0080090Y0074548D02*
X0099791Y0074548D01*
X0081304Y0059585D02*
X0017496Y0059585D01*
X0017496Y0058987D02*
X0080706Y0058987D01*
X0080107Y0058388D02*
X0017496Y0058388D01*
X0017496Y0057790D02*
X0079509Y0057790D01*
X0078910Y0057191D02*
X0017496Y0057191D01*
X0017496Y0056593D02*
X0078312Y0056593D01*
X0077713Y0055994D02*
X0017496Y0055994D01*
X0017496Y0055396D02*
X0077115Y0055396D01*
X0076516Y0054797D02*
X0017496Y0054797D01*
X0017496Y0054199D02*
X0075918Y0054199D01*
X0075319Y0053600D02*
X0017496Y0053600D01*
X0017496Y0053002D02*
X0074721Y0053002D01*
X0074122Y0052403D02*
X0017496Y0052403D01*
X0017496Y0051805D02*
X0073524Y0051805D01*
X0072925Y0051206D02*
X0017496Y0051206D01*
X0017496Y0050608D02*
X0072327Y0050608D01*
X0071728Y0050009D02*
X0017496Y0050009D01*
X0017496Y0049411D02*
X0071130Y0049411D01*
X0070531Y0048812D02*
X0017496Y0048812D01*
X0017496Y0048214D02*
X0069933Y0048214D01*
X0069334Y0047615D02*
X0017496Y0047615D01*
X0017496Y0047017D02*
X0068736Y0047017D01*
X0068137Y0046418D02*
X0017496Y0046418D01*
X0017496Y0045820D02*
X0067539Y0045820D01*
X0066940Y0045221D02*
X0017496Y0045221D01*
X0017496Y0044623D02*
X0066342Y0044623D01*
X0065743Y0044024D02*
X0017496Y0044024D01*
X0017496Y0043426D02*
X0065145Y0043426D01*
X0064546Y0042827D02*
X0017496Y0042827D01*
X0017496Y0042229D02*
X0063948Y0042229D01*
X0063349Y0041630D02*
X0017496Y0041630D01*
X0017496Y0041032D02*
X0062751Y0041032D01*
X0062152Y0040433D02*
X0017496Y0040433D01*
X0017496Y0039834D02*
X0061554Y0039834D01*
X0060955Y0039236D02*
X0017496Y0039236D01*
X0017496Y0038637D02*
X0060356Y0038637D01*
X0059758Y0038039D02*
X0017496Y0038039D01*
X0017496Y0037440D02*
X0059159Y0037440D01*
X0058561Y0036842D02*
X0017496Y0036842D01*
X0017496Y0036243D02*
X0057962Y0036243D01*
X0057364Y0035645D02*
X0017496Y0035645D01*
X0017496Y0035046D02*
X0056765Y0035046D01*
X0056167Y0034448D02*
X0017496Y0034448D01*
X0017496Y0033849D02*
X0055568Y0033849D01*
X0054970Y0033251D02*
X0017496Y0033251D01*
X0017496Y0032652D02*
X0054371Y0032652D01*
X0053773Y0032054D02*
X0017496Y0032054D01*
X0017496Y0031455D02*
X0053174Y0031455D01*
X0052576Y0030857D02*
X0017496Y0030857D01*
X0017496Y0030258D02*
X0051977Y0030258D01*
X0051379Y0029660D02*
X0017496Y0029660D01*
X0017496Y0029061D02*
X0050780Y0029061D01*
X0050182Y0028463D02*
X0017496Y0028463D01*
X0017496Y0027864D02*
X0049583Y0027864D01*
X0048985Y0027266D02*
X0017496Y0027266D01*
X0017496Y0026667D02*
X0048386Y0026667D01*
X0050515Y0024872D02*
X0051246Y0024872D01*
X0051113Y0025470D02*
X0051844Y0025470D01*
X0051712Y0026069D02*
X0052681Y0026069D01*
X0052310Y0026667D02*
X0109410Y0026667D01*
X0108811Y0026069D02*
X0056839Y0026069D01*
X0054106Y0028463D02*
X0111205Y0028463D01*
X0110607Y0027864D02*
X0053507Y0027864D01*
X0052909Y0027266D02*
X0110008Y0027266D01*
X0111804Y0029061D02*
X0054704Y0029061D01*
X0055303Y0029660D02*
X0112402Y0029660D01*
X0113001Y0030258D02*
X0055902Y0030258D01*
X0056500Y0030857D02*
X0113599Y0030857D01*
X0114198Y0031455D02*
X0057099Y0031455D01*
X0057697Y0032054D02*
X0114534Y0032054D01*
X0114534Y0032652D02*
X0058296Y0032652D01*
X0058894Y0033251D02*
X0114534Y0033251D01*
X0114534Y0033849D02*
X0059493Y0033849D01*
X0060091Y0034448D02*
X0114534Y0034448D01*
X0114534Y0035046D02*
X0060690Y0035046D01*
X0061288Y0035645D02*
X0114534Y0035645D01*
X0114534Y0036243D02*
X0061887Y0036243D01*
X0062485Y0036842D02*
X0114534Y0036842D01*
X0114534Y0037440D02*
X0063084Y0037440D01*
X0063682Y0038039D02*
X0114534Y0038039D01*
X0114534Y0038637D02*
X0064281Y0038637D01*
X0064879Y0039236D02*
X0114534Y0039236D01*
X0114534Y0039834D02*
X0065478Y0039834D01*
X0066076Y0040433D02*
X0114534Y0040433D01*
X0114534Y0041032D02*
X0108801Y0041032D01*
X0108237Y0040467D02*
X0106694Y0040467D01*
X0106694Y0044617D01*
X0106694Y0045217D01*
X0110844Y0045217D01*
X0110844Y0046761D01*
X0108237Y0049367D01*
X0106694Y0049367D01*
X0106694Y0045217D01*
X0106094Y0045217D01*
X0106094Y0044617D01*
X0106694Y0044617D01*
X0110844Y0044617D01*
X0110844Y0043074D01*
X0108237Y0040467D01*
X0106694Y0041032D02*
X0106094Y0041032D01*
X0106094Y0040467D02*
X0104550Y0040467D01*
X0101944Y0043074D01*
X0101944Y0044617D01*
X0106094Y0044617D01*
X0106094Y0040467D01*
X0106094Y0041630D02*
X0106694Y0041630D01*
X0106694Y0042229D02*
X0106094Y0042229D01*
X0106094Y0042827D02*
X0106694Y0042827D01*
X0106694Y0043426D02*
X0106094Y0043426D01*
X0106094Y0044024D02*
X0106694Y0044024D01*
X0106694Y0044623D02*
X0112156Y0044623D01*
X0112156Y0045221D02*
X0110844Y0045221D01*
X0110844Y0045820D02*
X0112181Y0045820D01*
X0112429Y0046418D02*
X0110844Y0046418D01*
X0110588Y0047017D02*
X0112677Y0047017D01*
X0113099Y0047615D02*
X0109989Y0047615D01*
X0109391Y0048214D02*
X0113697Y0048214D01*
X0114724Y0048812D02*
X0108792Y0048812D01*
X0106694Y0048812D02*
X0106094Y0048812D01*
X0106094Y0049367D02*
X0104550Y0049367D01*
X0101944Y0046761D01*
X0101944Y0045217D01*
X0106094Y0045217D01*
X0106094Y0049367D01*
X0106094Y0048214D02*
X0106694Y0048214D01*
X0106694Y0047615D02*
X0106094Y0047615D01*
X0106094Y0047017D02*
X0106694Y0047017D01*
X0106694Y0046418D02*
X0106094Y0046418D01*
X0106094Y0045820D02*
X0106694Y0045820D01*
X0106694Y0045221D02*
X0106094Y0045221D01*
X0106094Y0044623D02*
X0084623Y0044623D01*
X0085092Y0045221D02*
X0101944Y0045221D01*
X0101944Y0045820D02*
X0085340Y0045820D01*
X0085588Y0046418D02*
X0101944Y0046418D01*
X0102200Y0047017D02*
X0085635Y0047017D01*
X0085635Y0047615D02*
X0102798Y0047615D01*
X0103397Y0048214D02*
X0085623Y0048214D01*
X0085375Y0048812D02*
X0103995Y0048812D01*
X0101944Y0044024D02*
X0084024Y0044024D01*
X0082854Y0043426D02*
X0101944Y0043426D01*
X0102191Y0042827D02*
X0068470Y0042827D01*
X0067872Y0042229D02*
X0102789Y0042229D01*
X0103388Y0041630D02*
X0067273Y0041630D01*
X0066675Y0041032D02*
X0103986Y0041032D01*
X0109400Y0041630D02*
X0113688Y0041630D01*
X0113090Y0042229D02*
X0109998Y0042229D01*
X0110597Y0042827D02*
X0112673Y0042827D01*
X0112425Y0043426D02*
X0110844Y0043426D01*
X0110844Y0044024D02*
X0112177Y0044024D01*
X0102974Y0023675D02*
X0082993Y0023675D01*
X0084082Y0023076D02*
X0102161Y0023076D01*
X0101562Y0022478D02*
X0084680Y0022478D01*
X0085116Y0021879D02*
X0101138Y0021879D01*
X0100890Y0021281D02*
X0085364Y0021281D01*
X0085612Y0020682D02*
X0100642Y0020682D01*
X0100532Y0020084D02*
X0085635Y0020084D01*
X0085635Y0019485D02*
X0100532Y0019485D01*
X0100532Y0018887D02*
X0085600Y0018887D01*
X0085352Y0018288D02*
X0100625Y0018288D01*
X0100432Y0017690D02*
X0085104Y0017690D01*
X0077841Y0017690D02*
X0021174Y0017690D01*
X0021197Y0018288D02*
X0020576Y0018288D01*
X0020354Y0018887D02*
X0019977Y0018887D01*
X0019755Y0019485D02*
X0019379Y0019485D01*
X0019384Y0020084D02*
X0018780Y0020084D01*
X0019136Y0020682D02*
X0018182Y0020682D01*
X0017583Y0021281D02*
X0018888Y0021281D01*
X0018876Y0021879D02*
X0017496Y0021879D01*
X0017496Y0022478D02*
X0018876Y0022478D01*
X0018886Y0023076D02*
X0017496Y0023076D01*
X0017496Y0023675D02*
X0019134Y0023675D01*
X0019381Y0024273D02*
X0017496Y0024273D01*
X0017496Y0024872D02*
X0019750Y0024872D01*
X0020348Y0025470D02*
X0017496Y0025470D01*
X0017496Y0026069D02*
X0021185Y0026069D01*
X0025343Y0026069D02*
X0029059Y0026069D01*
X0028222Y0025470D02*
X0026179Y0025470D01*
X0026778Y0024872D02*
X0027624Y0024872D01*
X0027255Y0024273D02*
X0027146Y0024273D01*
X0027144Y0020084D02*
X0027258Y0020084D01*
X0027629Y0019485D02*
X0026773Y0019485D01*
X0026174Y0018887D02*
X0028228Y0018887D01*
X0029071Y0018288D02*
X0025330Y0018288D01*
X0021433Y0015469D02*
X0100173Y0015469D01*
X0104110Y0019406D01*
X0105320Y0019465D01*
X0080090Y0043426D02*
X0069069Y0043426D01*
X0069667Y0044024D02*
X0078920Y0044024D01*
X0078322Y0044623D02*
X0070266Y0044623D01*
X0070864Y0045221D02*
X0077853Y0045221D01*
X0077605Y0045820D02*
X0071463Y0045820D01*
X0072061Y0046418D02*
X0077357Y0046418D01*
X0077310Y0047017D02*
X0072660Y0047017D01*
X0073258Y0047615D02*
X0077310Y0047615D01*
X0077322Y0048214D02*
X0073857Y0048214D01*
X0074455Y0048812D02*
X0077570Y0048812D01*
X0077817Y0049411D02*
X0075054Y0049411D01*
X0075652Y0050009D02*
X0078237Y0050009D01*
X0078836Y0050608D02*
X0076251Y0050608D01*
X0076849Y0051206D02*
X0079886Y0051206D01*
X0052155Y0063176D02*
X0044649Y0063176D01*
X0044095Y0062947D02*
X0045377Y0063478D01*
X0046358Y0064459D01*
X0046889Y0065741D01*
X0046889Y0071928D01*
X0046358Y0073210D01*
X0045377Y0074191D01*
X0044095Y0074722D01*
X0042708Y0074722D01*
X0041426Y0074191D01*
X0040445Y0073210D01*
X0039914Y0071928D01*
X0039914Y0065741D01*
X0040445Y0064459D01*
X0041426Y0063478D01*
X0042708Y0062947D01*
X0044095Y0062947D01*
X0045674Y0063775D02*
X0051129Y0063775D01*
X0050531Y0064373D02*
X0046272Y0064373D01*
X0046570Y0064972D02*
X0050233Y0064972D01*
X0049985Y0065570D02*
X0046818Y0065570D01*
X0046889Y0066169D02*
X0049914Y0066169D01*
X0049914Y0066768D02*
X0046889Y0066768D01*
X0046889Y0067366D02*
X0049914Y0067366D01*
X0049914Y0067965D02*
X0046889Y0067965D01*
X0046889Y0068563D02*
X0049914Y0068563D01*
X0049914Y0069162D02*
X0046889Y0069162D01*
X0046889Y0069760D02*
X0049914Y0069760D01*
X0049914Y0070359D02*
X0046889Y0070359D01*
X0046889Y0070957D02*
X0049914Y0070957D01*
X0049914Y0071556D02*
X0046889Y0071556D01*
X0046795Y0072154D02*
X0050008Y0072154D01*
X0050256Y0072753D02*
X0046548Y0072753D01*
X0046217Y0073351D02*
X0050586Y0073351D01*
X0051185Y0073950D02*
X0045618Y0073950D01*
X0044515Y0074548D02*
X0052288Y0074548D01*
X0042288Y0074548D02*
X0034515Y0074548D01*
X0035618Y0073950D02*
X0041185Y0073950D01*
X0040586Y0073351D02*
X0036217Y0073351D01*
X0036548Y0072753D02*
X0040256Y0072753D01*
X0040008Y0072154D02*
X0036795Y0072154D01*
X0036889Y0071556D02*
X0039914Y0071556D01*
X0039914Y0070957D02*
X0036889Y0070957D01*
X0036889Y0070359D02*
X0039914Y0070359D01*
X0039914Y0069760D02*
X0036889Y0069760D01*
X0036889Y0069162D02*
X0039914Y0069162D01*
X0039914Y0068563D02*
X0036889Y0068563D01*
X0036889Y0067965D02*
X0039914Y0067965D01*
X0039914Y0067366D02*
X0036889Y0067366D01*
X0036889Y0066768D02*
X0039914Y0066768D01*
X0039914Y0066169D02*
X0036889Y0066169D01*
X0036818Y0065570D02*
X0039985Y0065570D01*
X0040233Y0064972D02*
X0036570Y0064972D01*
X0036272Y0064373D02*
X0040531Y0064373D01*
X0041129Y0063775D02*
X0035674Y0063775D01*
X0034649Y0063176D02*
X0042155Y0063176D01*
X0029914Y0067965D02*
X0022770Y0067965D01*
X0024162Y0068563D02*
X0029914Y0068563D01*
X0029914Y0069162D02*
X0024761Y0069162D01*
X0025359Y0069760D02*
X0029914Y0069760D01*
X0029914Y0070359D02*
X0025668Y0070359D01*
X0025915Y0070957D02*
X0029914Y0070957D01*
X0029914Y0071556D02*
X0026163Y0071556D01*
X0026186Y0072154D02*
X0030008Y0072154D01*
X0030256Y0072753D02*
X0026186Y0072753D01*
X0026186Y0073351D02*
X0030586Y0073351D01*
X0031185Y0073950D02*
X0026000Y0073950D01*
X0025752Y0074548D02*
X0032288Y0074548D01*
X0045523Y0093102D02*
X0046123Y0093102D01*
X0046123Y0093701D02*
X0045523Y0093701D01*
X0045523Y0094299D02*
X0046123Y0094299D01*
X0046123Y0094898D02*
X0045523Y0094898D01*
X0045523Y0095496D02*
X0046123Y0095496D01*
X0046123Y0097292D02*
X0045523Y0097292D01*
X0045523Y0097890D02*
X0046123Y0097890D01*
X0046123Y0098489D02*
X0045523Y0098489D01*
X0045523Y0099087D02*
X0046123Y0099087D01*
X0046123Y0099686D02*
X0045523Y0099686D01*
X0045523Y0100284D02*
X0046123Y0100284D01*
X0063880Y0097292D02*
X0064481Y0097292D01*
X0064478Y0097890D02*
X0064481Y0097890D01*
X0066872Y0100284D02*
X0077132Y0100284D01*
X0075955Y0099686D02*
X0069982Y0099686D01*
X0070581Y0099087D02*
X0075356Y0099087D01*
X0074757Y0098489D02*
X0071180Y0098489D01*
X0071456Y0097890D02*
X0074481Y0097890D01*
X0074481Y0097292D02*
X0071456Y0097292D01*
X0077969Y0096768D02*
X0078520Y0098146D01*
X0078520Y0102083D01*
X0089602Y0096768D02*
X0090331Y0098146D01*
X0121827Y0129642D01*
X0087812Y0122429D02*
X0079759Y0122429D01*
X0080357Y0121831D02*
X0087214Y0121831D01*
X0086615Y0121232D02*
X0080956Y0121232D01*
X0081554Y0120634D02*
X0086233Y0120634D01*
X0086233Y0120035D02*
X0081771Y0120035D01*
X0081771Y0119437D02*
X0086233Y0119437D01*
X0086233Y0118838D02*
X0081771Y0118838D01*
X0081771Y0118239D02*
X0086233Y0118239D01*
X0086210Y0117641D02*
X0081771Y0117641D01*
X0081285Y0117042D02*
X0085612Y0117042D01*
X0085013Y0116444D02*
X0080687Y0116444D01*
X0080088Y0115845D02*
X0084415Y0115845D01*
X0176095Y0045820D02*
X0198822Y0045820D01*
X0199070Y0045221D02*
X0175916Y0045221D01*
X0175620Y0044623D02*
X0199318Y0044623D01*
X0199891Y0044024D02*
X0175166Y0044024D01*
X0174452Y0043426D02*
X0200692Y0043426D01*
X0200105Y0049411D02*
X0200083Y0049411D01*
X0199118Y0026069D02*
X0195402Y0026069D01*
X0196238Y0025470D02*
X0198281Y0025470D01*
X0197683Y0024872D02*
X0196837Y0024872D01*
X0197205Y0024273D02*
X0197315Y0024273D01*
X0194661Y0021374D02*
X0193323Y0022181D01*
X0194661Y0021374D02*
X0200567Y0015469D01*
X0228126Y0015469D01*
X0236000Y0023343D01*
X0236453Y0023205D01*
X0240779Y0018887D02*
X0257654Y0018887D01*
X0257654Y0019485D02*
X0241377Y0019485D01*
X0241776Y0020084D02*
X0257654Y0020084D01*
X0257654Y0020682D02*
X0242024Y0020682D01*
X0242272Y0021281D02*
X0257654Y0021281D01*
X0257654Y0021879D02*
X0242520Y0021879D01*
X0242565Y0022478D02*
X0257654Y0022478D01*
X0257654Y0023076D02*
X0242565Y0023076D01*
X0242565Y0023675D02*
X0257654Y0023675D01*
X0257654Y0024273D02*
X0242565Y0024273D01*
X0242378Y0024872D02*
X0257654Y0024872D01*
X0257654Y0025470D02*
X0242130Y0025470D01*
X0241882Y0026069D02*
X0257654Y0026069D01*
X0257654Y0026667D02*
X0241634Y0026667D01*
X0241036Y0027266D02*
X0257654Y0027266D01*
X0257654Y0027864D02*
X0240437Y0027864D01*
X0239731Y0028463D02*
X0257654Y0028463D01*
X0257654Y0029061D02*
X0238286Y0029061D01*
X0234619Y0029061D02*
X0147224Y0029061D01*
X0146626Y0028463D02*
X0233174Y0028463D01*
X0232468Y0027864D02*
X0146027Y0027864D01*
X0145429Y0027266D02*
X0231870Y0027266D01*
X0231271Y0026667D02*
X0186528Y0026667D01*
X0185749Y0026667D02*
X0185149Y0026667D01*
X0185149Y0026069D02*
X0185749Y0026069D01*
X0185749Y0025470D02*
X0185149Y0025470D01*
X0185149Y0024872D02*
X0185749Y0024872D01*
X0185749Y0024273D02*
X0185149Y0024273D01*
X0185149Y0023675D02*
X0185749Y0023675D01*
X0185749Y0023076D02*
X0185149Y0023076D01*
X0185149Y0021879D02*
X0185749Y0021879D01*
X0185749Y0021281D02*
X0185149Y0021281D01*
X0185149Y0020682D02*
X0185749Y0020682D01*
X0185749Y0020084D02*
X0185149Y0020084D01*
X0185149Y0019485D02*
X0185749Y0019485D01*
X0185749Y0018887D02*
X0185149Y0018887D01*
X0185149Y0018288D02*
X0185749Y0018288D01*
X0185749Y0017690D02*
X0185149Y0017690D01*
X0184402Y0017690D02*
X0149080Y0017690D01*
X0149328Y0018288D02*
X0167634Y0018288D01*
X0166791Y0018887D02*
X0149576Y0018887D01*
X0149611Y0019485D02*
X0166192Y0019485D01*
X0165821Y0020084D02*
X0149611Y0020084D01*
X0149588Y0020682D02*
X0165573Y0020682D01*
X0165325Y0021281D02*
X0149340Y0021281D01*
X0149092Y0021879D02*
X0165313Y0021879D01*
X0165313Y0022478D02*
X0148657Y0022478D01*
X0148058Y0023076D02*
X0165323Y0023076D01*
X0165571Y0023675D02*
X0146969Y0023675D01*
X0143929Y0023675D02*
X0141838Y0023675D01*
X0142436Y0024273D02*
X0165818Y0024273D01*
X0166187Y0024872D02*
X0143035Y0024872D01*
X0143633Y0025470D02*
X0166785Y0025470D01*
X0167622Y0026069D02*
X0144232Y0026069D01*
X0144830Y0026667D02*
X0184370Y0026667D01*
X0182974Y0026069D02*
X0179654Y0026069D01*
X0180490Y0025470D02*
X0182233Y0025470D01*
X0181718Y0024872D02*
X0181089Y0024872D01*
X0175496Y0026069D02*
X0171780Y0026069D01*
X0172616Y0025470D02*
X0174659Y0025470D01*
X0174061Y0024872D02*
X0173215Y0024872D01*
X0173583Y0024273D02*
X0173692Y0024273D01*
X0173695Y0020084D02*
X0173581Y0020084D01*
X0173210Y0019485D02*
X0174066Y0019485D01*
X0174665Y0018887D02*
X0172611Y0018887D01*
X0171767Y0018288D02*
X0175509Y0018288D01*
X0179641Y0018288D02*
X0182981Y0018288D01*
X0182238Y0018887D02*
X0180485Y0018887D01*
X0181084Y0019485D02*
X0181722Y0019485D01*
X0186496Y0017690D02*
X0196384Y0017690D01*
X0195785Y0018288D02*
X0195389Y0018288D01*
X0191257Y0018288D02*
X0187917Y0018288D01*
X0188660Y0018887D02*
X0190413Y0018887D01*
X0189814Y0019485D02*
X0189176Y0019485D01*
X0189180Y0024872D02*
X0189809Y0024872D01*
X0190407Y0025470D02*
X0188665Y0025470D01*
X0187924Y0026069D02*
X0191244Y0026069D01*
X0203276Y0026069D02*
X0231023Y0026069D01*
X0230775Y0025470D02*
X0204112Y0025470D01*
X0204711Y0024872D02*
X0230527Y0024872D01*
X0230340Y0024273D02*
X0205079Y0024273D01*
X0205327Y0023675D02*
X0230340Y0023675D01*
X0230340Y0023076D02*
X0205575Y0023076D01*
X0205584Y0022478D02*
X0230340Y0022478D01*
X0230386Y0021879D02*
X0205584Y0021879D01*
X0205573Y0021281D02*
X0230634Y0021281D01*
X0230882Y0020682D02*
X0205325Y0020682D01*
X0205077Y0020084D02*
X0230779Y0020084D01*
X0230181Y0019485D02*
X0204706Y0019485D01*
X0204107Y0018887D02*
X0229582Y0018887D01*
X0228984Y0018288D02*
X0203263Y0018288D01*
X0200308Y0017690D02*
X0228385Y0017690D01*
X0239110Y0017690D02*
X0257654Y0017690D01*
X0257654Y0018288D02*
X0240180Y0018288D01*
X0257654Y0029660D02*
X0147823Y0029660D01*
X0148421Y0030258D02*
X0257654Y0030258D01*
X0257654Y0030857D02*
X0149020Y0030857D01*
X0149618Y0031455D02*
X0257654Y0031455D01*
X0257654Y0032054D02*
X0150217Y0032054D01*
X0150815Y0032652D02*
X0257654Y0032652D01*
X0257654Y0033251D02*
X0151414Y0033251D01*
X0152012Y0033849D02*
X0257654Y0033849D01*
X0257654Y0034448D02*
X0152611Y0034448D01*
X0153209Y0035046D02*
X0257654Y0035046D01*
X0257654Y0035645D02*
X0153808Y0035645D01*
X0154406Y0036243D02*
X0257654Y0036243D01*
X0257654Y0036842D02*
X0155005Y0036842D01*
X0155603Y0037440D02*
X0257654Y0037440D01*
X0257654Y0038039D02*
X0156202Y0038039D01*
X0156800Y0038637D02*
X0257654Y0038637D01*
X0257654Y0039236D02*
X0157399Y0039236D01*
X0157997Y0039834D02*
X0257654Y0039834D01*
X0257654Y0040433D02*
X0158596Y0040433D01*
X0159194Y0041032D02*
X0257654Y0041032D01*
X0257654Y0041630D02*
X0159793Y0041630D01*
X0050878Y0024273D02*
X0050768Y0024273D01*
X0044807Y0026069D02*
X0041091Y0026069D01*
X0041927Y0025470D02*
X0043970Y0025470D01*
X0043372Y0024872D02*
X0042526Y0024872D01*
X0042894Y0024273D02*
X0043004Y0024273D01*
X0036933Y0026069D02*
X0033217Y0026069D01*
X0034053Y0025470D02*
X0036096Y0025470D01*
X0035498Y0024872D02*
X0034652Y0024872D01*
X0035020Y0024273D02*
X0035130Y0024273D01*
X0035132Y0020084D02*
X0035018Y0020084D01*
X0034647Y0019485D02*
X0035503Y0019485D01*
X0036102Y0018887D02*
X0034048Y0018887D01*
X0033204Y0018288D02*
X0036946Y0018288D01*
X0041078Y0018288D02*
X0044820Y0018288D01*
X0043976Y0018887D02*
X0041922Y0018887D01*
X0042521Y0019485D02*
X0043377Y0019485D01*
X0043006Y0020084D02*
X0042892Y0020084D01*
D20*
X0149386Y0058776D03*
D21*
X0171177Y0104563D03*
X0181138Y0104661D03*
X0191177Y0104661D03*
M02*
