G75*
%MOIN*%
%OFA0B0*%
%FSLAX25Y25*%
%IPPOS*%
%LPD*%
%AMOC8*
5,1,8,0,0,1.08239X$1,22.5*
%
%ADD10C,0.10643*%
%ADD11OC8,0.06000*%
%ADD12C,0.06400*%
%ADD13R,0.05524X0.06312*%
%ADD14C,0.04343*%
%ADD15C,0.08200*%
%ADD16C,0.04146*%
%ADD17R,0.09461X0.10643*%
%ADD18R,0.11824X0.10643*%
%ADD19R,0.10643X0.11824*%
%ADD20C,0.07493*%
%ADD21R,0.06800X0.13300*%
%ADD22C,0.07800*%
%ADD23R,0.06737X0.06737*%
%ADD24R,0.09068X0.09068*%
D10*
X0117101Y0052768D03*
X0298203Y0052768D03*
D11*
X0159628Y0057768D03*
X0134030Y0057768D03*
X0134030Y0047768D03*
X0159628Y0047768D03*
D12*
X0124156Y0025913D03*
X0132030Y0025913D03*
D13*
X0103321Y0071980D03*
X0093282Y0072098D03*
X0083636Y0071980D03*
X0042298Y0071980D03*
X0052140Y0089303D03*
X0032455Y0089303D03*
X0083597Y0089303D03*
X0093479Y0089303D03*
X0103833Y0089303D03*
X0311983Y0089303D03*
X0331668Y0089303D03*
X0321825Y0071980D03*
D14*
X0308439Y0080642D03*
X0335211Y0080642D03*
X0106865Y0080642D03*
X0080093Y0080642D03*
X0055683Y0080642D03*
X0028912Y0080642D03*
D15*
X0149098Y0022984D03*
X0160498Y0022984D03*
D16*
X0200172Y0030008D03*
X0215132Y0030008D03*
D17*
X0028172Y0037610D03*
X0020691Y0067925D03*
D18*
X0057306Y0067925D03*
D19*
X0073644Y0049815D03*
D20*
X0052581Y0052768D03*
X0025022Y0052768D03*
D21*
X0355018Y0056148D03*
X0383774Y0049758D03*
X0391585Y0056148D03*
X0402507Y0056148D03*
X0383774Y0087758D03*
X0391585Y0018148D03*
X0402507Y0018148D03*
X0355018Y0018148D03*
D22*
X0360325Y0034370D03*
X0387884Y0034370D03*
X0387884Y0072370D03*
X0360325Y0072370D03*
D23*
X0221825Y0046862D03*
X0206077Y0046862D03*
X0190329Y0046862D03*
D24*
X0186392Y0086232D03*
X0225762Y0086232D03*
M02*
