%
M48
M72
T01C0.0138
T02C0.0315
T03C0.0320
T04C0.0335
T05C0.0354
T06C0.0394
T07C0.0400
T08C0.0551
T09C0.0669
T10C0.0700
T11C0.0984
%
T01
X11370Y2530
X9340Y3160
X8850Y3090
X6470Y3300
X7660Y4140
X9760Y4630
X10320Y4560
X13120Y4490
X16130Y3580
X21310Y3790
X23970Y3860
X27330Y3580
X29710Y3650
X30970Y4070
X32300Y4560
X31040Y4980
X31600Y5120
X34190Y4700
X34890Y4980
X36640Y5610
X32580Y6240
X31880Y6240
X28940Y6310
X27820Y6310
X26630Y6800
X24880Y6030
X24250Y5890
X26840Y5470
X28240Y5610
X25370Y4980
X28660Y4630
X33350Y3790
X31880Y3160
X34400Y2530
X36500Y2460
X36290Y1830
X28660Y2530
X27820Y2670
X36920Y4210
X31390Y7080
X29780Y7290
X27960Y7990
X25230Y7990
X23830Y6940
X19700Y6380
X19350Y6590
X15780Y5400
X9620Y5680
X8990Y5610
X3880Y5820
X4930Y7220
X5630Y7640
X6890Y8900
X9900Y8900
X10810Y7640
X10810Y7150
X13610Y7150
X1920Y4000
X30760Y8480
X32860Y8410
T02
X13203Y2591
X12416Y2591
T03
X17503Y3077
X17503Y2077
X33363Y5077
X33363Y6077
T04
X21513Y3001
X20017Y3001
T05
X10686Y8064
X8009Y8064
X5568Y8064
X2891Y8064
X30844Y8064
X33521Y8064
T06
X22183Y4686
X20608Y4686
X19033Y4686
T07
X15139Y3410
X15139Y2270
T08
X18639Y8623
X22576Y8623
T09
X5258Y5277
X2502Y5277
T10
X36033Y3437
X38788Y3437
X38788Y7237
X36033Y7237
T11
X29820Y5277
X11710Y5277
M30
