G75*
%MOIN*%
%OFA0B0*%
%FSLAX25Y25*%
%IPPOS*%
%LPD*%
%AMOC8*
5,1,8,0,0,1.08239X$1,22.5*
%
%ADD10OC8,0.05200*%
%ADD11C,0.05600*%
%ADD12R,0.04724X0.05512*%
%ADD13R,0.04362X0.04362*%
%ADD14C,0.07400*%
%ADD15R,0.08661X0.09843*%
%ADD16R,0.11024X0.09843*%
%ADD17R,0.09843X0.11024*%
%ADD18R,0.06000X0.12500*%
%ADD19C,0.00600*%
%ADD20C,0.02978*%
D10*
X0322620Y0024335D03*
X0322620Y0034335D03*
X0321825Y0047768D03*
X0321825Y0057768D03*
D11*
X0163589Y0078835D03*
X0155715Y0078835D03*
D12*
X0103321Y0071980D03*
X0093282Y0072098D03*
X0083636Y0071980D03*
X0042298Y0071980D03*
X0052140Y0089303D03*
X0032455Y0089303D03*
X0083597Y0089303D03*
X0093479Y0089303D03*
X0103833Y0089303D03*
X0311983Y0089303D03*
X0331668Y0089303D03*
X0321825Y0071980D03*
D13*
X0227337Y0089114D03*
X0187967Y0089114D03*
X0191904Y0049744D03*
X0207652Y0049744D03*
X0223400Y0049744D03*
D14*
X0299128Y0034944D03*
X0299128Y0023544D03*
D15*
X0028172Y0037610D03*
X0020691Y0067925D03*
D16*
X0057306Y0067925D03*
D17*
X0073644Y0049815D03*
D18*
X0355018Y0056148D03*
X0383774Y0049758D03*
X0391585Y0056148D03*
X0402507Y0056148D03*
X0383774Y0087758D03*
X0391585Y0018148D03*
X0402507Y0018148D03*
X0355018Y0018148D03*
D19*
X0355202Y0018198D01*
X0355202Y0055998D01*
X0355018Y0056148D01*
X0383402Y0049998D02*
X0383774Y0049758D01*
X0383402Y0049998D02*
X0383402Y0070998D01*
X0382802Y0071598D01*
X0382802Y0086598D01*
X0383402Y0087198D01*
X0383774Y0087758D01*
X0321825Y0071980D02*
X0321602Y0072198D01*
X0318002Y0075798D01*
X0317402Y0075798D01*
X0307202Y0085998D02*
X0185402Y0085998D01*
X0183602Y0087798D01*
X0159002Y0087798D01*
X0139202Y0067998D01*
X0100802Y0067998D01*
X0099602Y0069198D01*
X0099602Y0072198D01*
X0094802Y0076998D01*
X0052802Y0076998D01*
X0048002Y0072198D01*
X0042602Y0072198D01*
X0042298Y0071980D01*
X0042002Y0064398D02*
X0053402Y0075798D01*
X0086402Y0075798D01*
X0090002Y0072198D01*
X0090002Y0066798D01*
X0096002Y0060798D01*
X0098402Y0059598D02*
X0098402Y0061998D01*
X0093602Y0066798D01*
X0093602Y0071598D01*
X0093282Y0072098D01*
X0101402Y0072198D02*
X0088202Y0085398D01*
X0036602Y0085398D01*
X0033002Y0088998D01*
X0032455Y0089303D01*
X0088202Y0089598D02*
X0088202Y0087798D01*
X0098402Y0077598D01*
X0100202Y0077598D01*
X0145202Y0077598D01*
X0155402Y0087798D01*
X0159602Y0084798D02*
X0160202Y0085398D01*
X0159602Y0084798D02*
X0159602Y0076998D01*
X0160202Y0076398D01*
X0160202Y0027798D01*
X0159002Y0026598D01*
X0136802Y0026598D01*
X0135602Y0024198D02*
X0158402Y0024198D01*
X0173402Y0039198D01*
X0173402Y0048798D01*
X0208202Y0083598D01*
X0242402Y0076398D02*
X0249602Y0076398D01*
X0255602Y0070398D01*
X0253802Y0064998D02*
X0260402Y0064998D01*
X0270002Y0055398D01*
X0253802Y0064998D02*
X0244202Y0055398D01*
X0244202Y0054798D01*
X0226802Y0037398D01*
X0211802Y0037398D01*
X0201602Y0047598D01*
X0196202Y0049398D02*
X0199802Y0052998D01*
X0210602Y0052998D01*
X0213602Y0049998D01*
X0223202Y0049998D01*
X0223400Y0049744D01*
X0228002Y0055998D02*
X0210002Y0073998D01*
X0188402Y0052398D01*
X0188402Y0049998D01*
X0158402Y0019998D01*
X0051602Y0019998D01*
X0038402Y0033198D01*
X0028172Y0037610D02*
X0028202Y0037998D01*
X0057602Y0067398D01*
X0057306Y0067925D01*
X0057602Y0067398D02*
X0074402Y0050598D01*
X0073644Y0049815D01*
X0073802Y0049998D01*
X0074402Y0050598D01*
X0083402Y0059598D01*
X0083402Y0071598D01*
X0083636Y0071980D01*
X0101402Y0072198D02*
X0103202Y0072198D01*
X0103321Y0071980D01*
X0137402Y0055398D02*
X0142802Y0060798D01*
X0137402Y0055398D02*
X0132602Y0060198D01*
X0111002Y0060198D01*
X0074402Y0023598D01*
X0053402Y0023598D01*
X0051002Y0022398D02*
X0051002Y0024798D01*
X0067802Y0041598D01*
X0080402Y0041598D01*
X0098402Y0059598D01*
X0120602Y0057798D02*
X0120602Y0039198D01*
X0135602Y0024198D01*
X0157202Y0021198D02*
X0175802Y0039798D01*
X0175802Y0040998D01*
X0175802Y0047598D01*
X0180602Y0052398D01*
X0157802Y0044598D02*
X0157802Y0072198D01*
X0155402Y0078798D02*
X0150602Y0073998D01*
X0150602Y0050598D01*
X0142802Y0050598D01*
X0150602Y0050598D02*
X0150602Y0046998D01*
X0157802Y0039798D01*
X0157802Y0028998D01*
X0157202Y0021198D02*
X0052202Y0021198D01*
X0051002Y0022398D01*
X0029402Y0017598D02*
X0240602Y0017598D01*
X0240602Y0027198D01*
X0253802Y0017598D02*
X0262802Y0026598D01*
X0262802Y0031998D01*
X0277202Y0027798D02*
X0258002Y0046998D01*
X0241802Y0055998D02*
X0228002Y0055998D01*
X0299128Y0034944D02*
X0299402Y0034998D01*
X0311402Y0046998D01*
X0311402Y0088998D01*
X0311983Y0089303D01*
X0391585Y0056148D02*
X0391802Y0055998D01*
X0393002Y0054798D01*
X0393002Y0032598D01*
X0391802Y0031398D01*
X0391802Y0018198D01*
X0391585Y0018148D01*
X0355018Y0018148D02*
X0354602Y0018198D01*
X0328802Y0018198D01*
X0322802Y0024198D01*
X0322620Y0024335D01*
X0322202Y0024798D01*
X0318002Y0028998D01*
X0290402Y0028998D01*
X0289202Y0027798D01*
X0277202Y0027798D01*
X0291602Y0026598D02*
X0297002Y0021198D01*
X0299128Y0023544D01*
X0298802Y0022998D01*
X0297002Y0021198D01*
X0291002Y0015198D01*
X0252602Y0015198D01*
X0250202Y0017598D01*
X0240602Y0017598D01*
X0137402Y0043998D02*
X0137402Y0055398D01*
X0071402Y0039198D02*
X0071402Y0030198D01*
X0087602Y0023598D02*
X0091802Y0027798D01*
X0042002Y0064398D02*
X0031202Y0064398D01*
X0028202Y0067398D01*
X0021002Y0067398D01*
X0020691Y0067925D01*
X0093479Y0089303D02*
X0093602Y0088998D01*
X0097202Y0088998D01*
X0102002Y0084198D01*
X0144602Y0084198D01*
X0147002Y0088998D02*
X0104402Y0088998D01*
X0103833Y0089303D01*
X0155402Y0078798D02*
X0155715Y0078835D01*
X0397202Y0055998D02*
X0402002Y0055998D01*
X0402507Y0056148D01*
D20*
X0029402Y0017598D03*
X0053402Y0023598D03*
X0071402Y0030198D03*
X0091802Y0027798D03*
X0087602Y0023598D03*
X0136802Y0026598D03*
X0157802Y0028998D03*
X0175802Y0040998D03*
X0157802Y0044598D03*
X0150602Y0046998D03*
X0142802Y0050598D03*
X0137402Y0043998D03*
X0180602Y0052398D03*
X0196202Y0049398D03*
X0201602Y0047598D03*
X0211802Y0037398D03*
X0240602Y0027198D03*
X0262802Y0031998D03*
X0277202Y0027798D03*
X0291602Y0026598D03*
X0253802Y0017598D03*
X0258002Y0046998D03*
X0270002Y0055398D03*
X0241802Y0055998D03*
X0253802Y0064998D03*
X0255602Y0070398D03*
X0242402Y0076398D03*
X0210002Y0073998D03*
X0208202Y0083598D03*
X0160202Y0085398D03*
X0155402Y0087798D03*
X0147002Y0088998D03*
X0144602Y0084198D03*
X0100202Y0077598D03*
X0088202Y0089598D03*
X0157802Y0072198D03*
X0142802Y0060798D03*
X0120602Y0057798D03*
X0111002Y0060198D03*
X0096002Y0060798D03*
X0031202Y0064398D03*
X0071402Y0039198D03*
X0038402Y0033198D03*
X0307202Y0085998D03*
X0317402Y0075798D03*
X0397202Y0055998D03*
M02*
