%
M48
M72
T01C0.01300
T02C0.03150
T03C0.03200
T04C0.03937
T05C0.04000
T06C0.04724
T07C0.05906
T08C0.06000
T09C0.06700
%
T01
X341059Y53500
T02
X333303Y21945
X325429Y21945
X317555Y21945
X361276Y21945
X369150Y21945
X377024Y21945
T03
X334957Y43480
X324957Y43480
X312063Y43992
X302063Y43992
X287693Y39366
X287457Y30016
X287457Y20016
X287693Y49366
X287870Y61610
X302102Y68264
X312102Y68264
X322102Y68264
X335587Y70980
X335587Y60980
X287870Y71610
X138382Y74740
X128382Y74740
X107299Y76610
X97299Y76610
X87299Y76610
X77299Y76610
X128559Y52161
X138559Y52161
X107299Y46610
X97299Y46610
X87299Y46610
X77299Y46610
X69858Y33835
X86748Y33382
X97102Y33480
X108106Y33500
X108106Y23500
X97102Y23480
X86748Y23382
X69858Y23835
X48205Y24169
X34957Y23382
X34957Y33382
X48205Y34169
T04
X123795Y27043
X133835Y26079
X143736Y26472
X309681Y21945
X341177Y21945
X353402Y21945
X384898Y21945
T05
X20843Y22583
X20843Y33983
T06
X20173Y60469
X47732Y60469
X123795Y21374
X133795Y31374
X143795Y21374
X361295Y59740
X388854Y59740
T07
X250803Y72634
X183992Y21394
T08
X215291Y46512
T09
X155370Y46512
X275213Y46906
M30
