G75*
%MOIN*%
%OFA0B0*%
%FSLAX25Y25*%
%IPPOS*%
%LPD*%
%AMOC8*
5,1,8,0,0,1.08239X$1,22.5*
%
%ADD10C,0.00400*%
%ADD11R,0.04331X0.05512*%
%ADD12OC8,0.05200*%
%ADD13C,0.05600*%
%ADD14R,0.03150X0.03543*%
%ADD15R,0.03937X0.04331*%
%ADD16R,0.05787X0.05000*%
%ADD17R,0.03937X0.05512*%
%ADD18R,0.08661X0.06299*%
%ADD19R,0.01575X0.03937*%
%ADD20C,0.07400*%
%ADD21R,0.01200X0.00600*%
%ADD22R,0.03075X0.05709*%
%ADD23R,0.03000X0.05709*%
%ADD24R,0.07087X0.05906*%
%ADD25R,0.09843X0.05906*%
%ADD26R,0.01181X0.03756*%
%ADD27R,0.02165X0.04724*%
%ADD28R,0.16535X0.05512*%
%ADD29R,0.04331X0.03937*%
%ADD30R,0.06299X0.07087*%
%ADD31R,0.05937X0.05937*%
%ADD32R,0.08268X0.08268*%
%ADD33R,0.02717X0.04724*%
%ADD34R,0.02165X0.03150*%
%ADD35R,0.08661X0.02362*%
%ADD36R,0.08661X0.05512*%
%ADD37R,0.10236X0.05512*%
%ADD38C,0.00600*%
%ADD39C,0.02978*%
D10*
X0016970Y0085647D02*
X0016970Y0087849D01*
X0018071Y0087849D01*
X0018438Y0087482D01*
X0018438Y0086748D01*
X0018071Y0086381D01*
X0016970Y0086381D01*
X0019364Y0086381D02*
X0020098Y0086381D01*
X0019731Y0086381D02*
X0019731Y0087849D01*
X0019364Y0087849D01*
X0019731Y0088583D02*
X0019731Y0088950D01*
X0020960Y0087482D02*
X0021327Y0087849D01*
X0022061Y0087849D01*
X0022428Y0087482D01*
X0022428Y0087115D01*
X0020960Y0087115D01*
X0020960Y0086748D02*
X0020960Y0087482D01*
X0020960Y0086748D02*
X0021327Y0086381D01*
X0022061Y0086381D01*
X0023354Y0086381D02*
X0024822Y0086381D01*
X0025748Y0086748D02*
X0025748Y0087482D01*
X0026115Y0087849D01*
X0026849Y0087849D01*
X0027216Y0087482D01*
X0027216Y0086748D01*
X0026849Y0086381D01*
X0026115Y0086381D01*
X0025748Y0086748D01*
X0024822Y0087849D02*
X0023354Y0086381D01*
X0023354Y0087849D02*
X0024822Y0087849D01*
X0028142Y0087482D02*
X0029610Y0087482D01*
X0030536Y0087115D02*
X0031270Y0087849D01*
X0031637Y0087849D01*
X0032531Y0087482D02*
X0032898Y0087849D01*
X0033632Y0087849D01*
X0033999Y0087482D01*
X0033999Y0087115D01*
X0032531Y0087115D01*
X0032531Y0086748D02*
X0032531Y0087482D01*
X0032531Y0086748D02*
X0032898Y0086381D01*
X0033632Y0086381D01*
X0034925Y0087849D02*
X0035659Y0086381D01*
X0036393Y0087849D01*
X0037319Y0087482D02*
X0038787Y0087482D01*
X0039713Y0086748D02*
X0040080Y0086381D01*
X0040814Y0086381D01*
X0041181Y0086748D01*
X0041181Y0087115D01*
X0040814Y0087482D01*
X0040447Y0087482D01*
X0040814Y0087482D02*
X0041181Y0087849D01*
X0041181Y0088216D01*
X0040814Y0088583D01*
X0040080Y0088583D01*
X0039713Y0088216D01*
X0042108Y0087482D02*
X0043575Y0087482D01*
X0044502Y0086748D02*
X0044502Y0086381D01*
X0044502Y0086748D02*
X0045970Y0088216D01*
X0045970Y0088583D01*
X0044502Y0088583D01*
X0030536Y0087849D02*
X0030536Y0086381D01*
D11*
X0174916Y0065697D03*
X0182790Y0065697D03*
X0041628Y0039878D03*
X0033754Y0039878D03*
X0049479Y0022500D03*
X0057353Y0022500D03*
D12*
X0134030Y0047768D03*
X0159628Y0047768D03*
X0159628Y0057768D03*
X0134030Y0057768D03*
D13*
X0132030Y0025913D03*
X0124156Y0025913D03*
D14*
X0106648Y0022843D03*
X0099168Y0022843D03*
X0102908Y0031110D03*
D15*
X0088920Y0037280D03*
X0082227Y0037280D03*
X0068160Y0037413D03*
X0061467Y0037413D03*
X0061703Y0049461D03*
X0068396Y0049461D03*
X0040061Y0053307D03*
X0033369Y0053307D03*
X0062109Y0061878D03*
X0068802Y0061878D03*
X0066223Y0076421D03*
X0072916Y0076421D03*
X0167676Y0081232D03*
X0174369Y0081232D03*
X0193077Y0073004D03*
X0199770Y0073004D03*
X0209928Y0058980D03*
X0216620Y0058980D03*
X0264837Y0053220D03*
X0271530Y0053220D03*
X0282302Y0053386D03*
X0288994Y0053386D03*
X0338191Y0054685D03*
X0344884Y0054685D03*
X0347361Y0067209D03*
X0354054Y0067209D03*
X0299042Y0069378D03*
X0292349Y0069378D03*
X0347487Y0083169D03*
X0354180Y0083169D03*
X0181006Y0045161D03*
X0174313Y0045161D03*
X0089034Y0022610D03*
X0082341Y0022610D03*
X0071782Y0022472D03*
X0065089Y0022472D03*
X0041475Y0022524D03*
X0034782Y0022524D03*
X0264935Y0038201D03*
X0271628Y0038201D03*
X0285408Y0022453D03*
X0292101Y0022453D03*
X0319660Y0022453D03*
X0326353Y0022453D03*
D16*
X0243640Y0071882D03*
X0243640Y0088811D03*
D17*
X0022660Y0032846D03*
X0026400Y0024185D03*
X0018920Y0024185D03*
D18*
X0178266Y0019846D03*
X0178266Y0030870D03*
D19*
X0338105Y0026295D03*
X0340664Y0026295D03*
X0343223Y0026295D03*
X0345782Y0026295D03*
X0345782Y0043618D03*
X0343223Y0043618D03*
X0340664Y0043618D03*
X0338105Y0043618D03*
D20*
X0160498Y0022984D03*
X0149098Y0022984D03*
D21*
X0205093Y0027075D03*
X0207652Y0027075D03*
X0210211Y0027075D03*
D22*
X0201534Y0032075D03*
D23*
X0213770Y0032075D03*
D24*
X0222160Y0021346D03*
X0193144Y0021346D03*
D25*
X0207652Y0021346D03*
D26*
X0324372Y0050898D03*
X0326341Y0050898D03*
X0328309Y0050898D03*
X0328309Y0056298D03*
X0326341Y0056298D03*
X0324372Y0056298D03*
D27*
X0247487Y0054019D03*
X0243746Y0054019D03*
X0240006Y0054019D03*
X0240006Y0064256D03*
X0247487Y0064256D03*
D28*
X0241400Y0033224D03*
X0241400Y0018657D03*
D29*
X0265132Y0022177D03*
X0271825Y0022177D03*
X0302573Y0022531D03*
X0309266Y0022531D03*
X0309424Y0038201D03*
X0302731Y0038201D03*
X0291668Y0038280D03*
X0284975Y0038280D03*
X0319306Y0038240D03*
X0325998Y0038240D03*
X0246825Y0044106D03*
X0240132Y0044106D03*
X0200880Y0059106D03*
X0194187Y0059106D03*
X0261865Y0084185D03*
X0268557Y0084185D03*
X0277534Y0084264D03*
X0284227Y0084264D03*
X0292258Y0084421D03*
X0298951Y0084421D03*
D30*
X0222101Y0073240D03*
X0211077Y0073240D03*
D31*
X0206077Y0046862D03*
X0190329Y0046862D03*
X0221825Y0046862D03*
D32*
X0225762Y0086232D03*
X0186392Y0086232D03*
D33*
X0263754Y0074815D03*
X0271235Y0074815D03*
X0271235Y0064578D03*
X0267494Y0064578D03*
X0263754Y0064578D03*
D34*
X0311392Y0064185D03*
X0315132Y0064185D03*
X0318872Y0064185D03*
X0318872Y0073634D03*
X0315132Y0073634D03*
X0311392Y0073634D03*
D35*
X0103321Y0066567D03*
X0103321Y0061567D03*
X0103321Y0056567D03*
X0103321Y0051567D03*
X0082849Y0051567D03*
X0082849Y0056567D03*
X0082849Y0061567D03*
X0082849Y0066567D03*
D36*
X0114739Y0077177D03*
X0127337Y0077177D03*
D37*
X0139739Y0076783D03*
X0155880Y0076783D03*
D38*
X0054202Y0018298D02*
X0050002Y0022498D01*
X0049479Y0022500D01*
X0049302Y0022498D01*
X0041602Y0022498D01*
X0041475Y0022524D01*
X0041602Y0023198D01*
X0041602Y0039298D01*
X0041628Y0039878D01*
X0041602Y0039998D01*
X0033902Y0047698D01*
X0033902Y0053298D01*
X0033369Y0053307D01*
X0033902Y0053998D01*
X0041602Y0061698D01*
X0061902Y0061698D01*
X0062109Y0061878D01*
X0068202Y0061698D02*
X0068802Y0061878D01*
X0068202Y0061698D02*
X0057702Y0051198D01*
X0057702Y0035098D01*
X0066802Y0025998D01*
X0067502Y0025998D01*
X0068202Y0025298D01*
X0068202Y0019698D01*
X0069602Y0018298D01*
X0137502Y0018298D01*
X0149402Y0030198D01*
X0178102Y0030198D01*
X0178266Y0030870D01*
X0178802Y0030898D01*
X0184402Y0036498D01*
X0205402Y0036498D01*
X0211702Y0042798D01*
X0211702Y0051198D01*
X0206802Y0056098D01*
X0206802Y0058898D01*
X0200502Y0065198D01*
X0183002Y0065198D01*
X0182790Y0065697D01*
X0182302Y0065898D01*
X0175302Y0072898D01*
X0134002Y0072898D01*
X0133302Y0073598D01*
X0133302Y0079898D01*
X0131902Y0081298D01*
X0122802Y0081298D01*
X0121402Y0079898D01*
X0121402Y0074998D01*
X0113002Y0066598D01*
X0103902Y0066598D01*
X0103321Y0066567D01*
X0092702Y0070798D02*
X0089902Y0067998D01*
X0089902Y0066598D01*
X0089202Y0069398D02*
X0085702Y0069398D01*
X0082902Y0066598D01*
X0082849Y0066567D01*
X0082902Y0065898D01*
X0082902Y0061698D01*
X0082849Y0061567D01*
X0078002Y0058898D02*
X0077302Y0059598D01*
X0077302Y0066598D01*
X0073102Y0070798D01*
X0073102Y0076398D01*
X0072916Y0076421D01*
X0066802Y0076398D02*
X0066802Y0074998D01*
X0066223Y0076421D01*
X0066802Y0076398D01*
X0066802Y0074998D02*
X0055602Y0063798D01*
X0038102Y0063798D01*
X0029702Y0055398D01*
X0029702Y0051198D01*
X0030402Y0050498D01*
X0030402Y0023198D01*
X0034602Y0023198D01*
X0034782Y0022524D01*
X0030402Y0023198D02*
X0027602Y0023198D01*
X0026902Y0023898D01*
X0026400Y0024185D01*
X0024102Y0018998D02*
X0019202Y0023898D01*
X0018920Y0024185D01*
X0024102Y0018998D02*
X0037402Y0018998D01*
X0038102Y0019698D01*
X0038102Y0035098D01*
X0033902Y0039298D01*
X0033754Y0039878D01*
X0061467Y0037413D02*
X0061902Y0037898D01*
X0061902Y0042798D01*
X0068202Y0049098D01*
X0068396Y0049461D01*
X0061902Y0049798D02*
X0061703Y0049461D01*
X0061902Y0049798D02*
X0070302Y0058198D01*
X0071002Y0058198D01*
X0073102Y0060298D01*
X0073102Y0064498D01*
X0075902Y0065898D02*
X0075902Y0058898D01*
X0078002Y0056798D01*
X0082202Y0056798D01*
X0082849Y0056567D01*
X0078002Y0058898D02*
X0093402Y0058898D01*
X0098302Y0053998D01*
X0108102Y0053998D01*
X0110902Y0051198D01*
X0110902Y0046998D01*
X0131902Y0025998D01*
X0132030Y0025913D01*
X0136102Y0024598D02*
X0136102Y0023898D01*
X0134002Y0021798D01*
X0127702Y0021798D01*
X0124202Y0025298D01*
X0124156Y0025913D01*
X0123502Y0025998D01*
X0121402Y0028098D01*
X0087802Y0028098D01*
X0082902Y0023198D01*
X0082341Y0022610D01*
X0089034Y0022610D02*
X0089202Y0022498D01*
X0092002Y0019698D01*
X0101102Y0019698D01*
X0103902Y0022498D01*
X0106002Y0022498D01*
X0106648Y0022843D01*
X0099168Y0022843D02*
X0099002Y0023198D01*
X0096902Y0023198D01*
X0094802Y0025298D01*
X0102502Y0031598D02*
X0102908Y0031110D01*
X0102502Y0031598D02*
X0099002Y0031598D01*
X0094802Y0031598D02*
X0089202Y0037198D01*
X0088920Y0037280D01*
X0082227Y0037280D02*
X0082202Y0037198D01*
X0068202Y0037198D01*
X0068160Y0037413D01*
X0067502Y0037898D01*
X0067502Y0039998D01*
X0065402Y0042098D01*
X0082202Y0037898D02*
X0082227Y0037280D01*
X0082202Y0037898D02*
X0082202Y0051198D01*
X0082849Y0051567D01*
X0085702Y0039998D02*
X0096902Y0051198D01*
X0103202Y0051198D01*
X0103321Y0051567D01*
X0103321Y0056567D02*
X0103902Y0056798D01*
X0112302Y0056798D01*
X0120002Y0064498D01*
X0154302Y0064498D01*
X0174916Y0065697D02*
X0175302Y0065198D01*
X0178802Y0061698D01*
X0185802Y0061698D01*
X0186502Y0062398D01*
X0197702Y0062398D01*
X0200502Y0059598D01*
X0200880Y0059106D01*
X0201202Y0058898D01*
X0208902Y0051198D01*
X0209602Y0051198D01*
X0210302Y0050498D01*
X0210302Y0043498D01*
X0208202Y0041398D01*
X0166202Y0041398D01*
X0159902Y0047698D01*
X0159628Y0047768D01*
X0159202Y0047698D01*
X0136102Y0024598D01*
X0149098Y0022984D02*
X0149402Y0023198D01*
X0153602Y0023198D01*
X0158502Y0028098D01*
X0171802Y0028098D01*
X0173902Y0025998D01*
X0187202Y0025998D01*
X0190702Y0029498D01*
X0194202Y0029498D01*
X0201202Y0022498D01*
X0201202Y0018298D01*
X0202602Y0016898D01*
X0213102Y0016898D01*
X0213802Y0017598D01*
X0213802Y0027398D01*
X0211702Y0029498D01*
X0211702Y0030898D01*
X0213102Y0032298D01*
X0213770Y0032075D01*
X0213102Y0032298D02*
X0218002Y0037198D01*
X0239002Y0037198D01*
X0245302Y0043498D01*
X0246702Y0043498D01*
X0246825Y0044106D01*
X0247402Y0044198D01*
X0248102Y0044898D01*
X0251602Y0044898D01*
X0253002Y0047698D02*
X0254402Y0046298D01*
X0254402Y0032998D01*
X0241802Y0020398D01*
X0241802Y0018998D01*
X0241400Y0018657D01*
X0263502Y0014798D02*
X0150102Y0014798D01*
X0148002Y0016898D01*
X0178266Y0019846D02*
X0178802Y0020398D01*
X0183702Y0020398D01*
X0190002Y0026698D01*
X0192802Y0026698D01*
X0201534Y0032075D02*
X0201902Y0032298D01*
X0200502Y0033698D01*
X0195602Y0033698D01*
X0181006Y0045161D02*
X0180902Y0045598D01*
X0174602Y0051898D01*
X0169702Y0051898D01*
X0166902Y0056098D02*
X0151502Y0071498D01*
X0133302Y0071498D01*
X0127702Y0077098D01*
X0127337Y0077177D01*
X0127002Y0077098D01*
X0111602Y0061698D01*
X0103902Y0061698D01*
X0103321Y0061567D01*
X0075902Y0065898D02*
X0066802Y0074998D01*
X0075202Y0079898D02*
X0082202Y0072898D01*
X0088502Y0072898D01*
X0091302Y0071498D02*
X0091302Y0074298D01*
X0089202Y0076398D01*
X0089202Y0082698D01*
X0092702Y0086198D01*
X0129102Y0086198D01*
X0138202Y0077098D01*
X0139602Y0077098D01*
X0139739Y0076783D01*
X0155880Y0076783D02*
X0156402Y0077098D01*
X0159902Y0080598D01*
X0167602Y0080598D01*
X0167676Y0081232D01*
X0174369Y0081232D02*
X0174602Y0080598D01*
X0184402Y0070798D01*
X0193077Y0073004D02*
X0193502Y0072898D01*
X0199802Y0066598D01*
X0233402Y0066598D01*
X0236202Y0063798D01*
X0238302Y0065898D02*
X0239702Y0064498D01*
X0240006Y0064256D01*
X0240402Y0063798D01*
X0237602Y0060998D01*
X0237602Y0058898D01*
X0217302Y0058898D01*
X0216620Y0058980D01*
X0214502Y0063798D02*
X0210302Y0059598D01*
X0209928Y0058980D01*
X0194187Y0059106D02*
X0193502Y0058898D01*
X0171802Y0058898D01*
X0166902Y0056098D02*
X0188602Y0056098D01*
X0197702Y0046998D01*
X0205402Y0046998D01*
X0206077Y0046862D01*
X0237602Y0046298D02*
X0239702Y0044198D01*
X0240132Y0044106D01*
X0240402Y0044198D01*
X0243902Y0047698D01*
X0253002Y0047698D01*
X0254402Y0049098D02*
X0247402Y0049098D01*
X0243902Y0052598D01*
X0243902Y0053998D01*
X0243746Y0054019D01*
X0240402Y0053998D02*
X0240006Y0054019D01*
X0240402Y0054698D01*
X0240402Y0059598D01*
X0243202Y0062398D01*
X0243202Y0071498D01*
X0243640Y0071882D01*
X0240402Y0075698D02*
X0254402Y0075698D01*
X0254402Y0082698D01*
X0259302Y0087598D01*
X0264202Y0087598D01*
X0267002Y0084798D01*
X0268402Y0084798D01*
X0268557Y0084185D01*
X0269102Y0084798D01*
X0277502Y0084798D01*
X0277534Y0084264D01*
X0278202Y0084798D01*
X0283802Y0090398D01*
X0346802Y0090398D01*
X0353802Y0083398D01*
X0354180Y0083169D01*
X0354502Y0082698D01*
X0356602Y0082698D01*
X0365002Y0074298D01*
X0365002Y0065898D01*
X0365002Y0053998D01*
X0346102Y0035098D01*
X0346102Y0026698D01*
X0345782Y0026295D01*
X0341202Y0026698D02*
X0340664Y0026295D01*
X0340502Y0025998D01*
X0340502Y0023898D01*
X0332802Y0016198D01*
X0283802Y0016198D01*
X0280302Y0019698D01*
X0280302Y0028798D01*
X0284502Y0032998D01*
X0284502Y0037898D01*
X0284975Y0038280D01*
X0288702Y0041398D02*
X0291502Y0038598D01*
X0291668Y0038280D01*
X0291502Y0037898D01*
X0281702Y0028098D01*
X0281702Y0020398D01*
X0284502Y0017598D01*
X0327202Y0017598D01*
X0335602Y0025998D01*
X0337702Y0025998D01*
X0338105Y0026295D01*
X0338402Y0026698D01*
X0338402Y0031598D01*
X0348202Y0041398D01*
X0348202Y0065898D01*
X0347502Y0066598D01*
X0347361Y0067209D01*
X0347502Y0073598D02*
X0353802Y0067298D01*
X0354054Y0067209D01*
X0353802Y0066598D01*
X0353802Y0044898D01*
X0341202Y0032298D01*
X0341202Y0026698D01*
X0332102Y0036498D02*
X0326502Y0030898D01*
X0326502Y0022498D01*
X0326353Y0022453D01*
X0319660Y0022453D02*
X0319502Y0022498D01*
X0316702Y0022498D01*
X0316702Y0032298D01*
X0312502Y0035098D02*
X0309702Y0037898D01*
X0309424Y0038201D01*
X0306202Y0041398D02*
X0303402Y0038598D01*
X0302731Y0038201D01*
X0299202Y0039998D02*
X0299202Y0044898D01*
X0309002Y0054698D01*
X0309002Y0066598D01*
X0309702Y0067298D01*
X0316702Y0067298D01*
X0319502Y0064498D01*
X0318872Y0064185D01*
X0319502Y0063798D01*
X0320902Y0063798D01*
X0326502Y0058198D01*
X0326502Y0056798D01*
X0326341Y0056298D01*
X0324372Y0056298D02*
X0324402Y0056798D01*
X0320902Y0056798D01*
X0317402Y0056798D01*
X0311802Y0062398D01*
X0311802Y0063798D01*
X0311392Y0064185D01*
X0315132Y0064185D02*
X0315302Y0063798D01*
X0315302Y0063098D01*
X0318102Y0060298D01*
X0313202Y0058198D02*
X0320902Y0050498D01*
X0311802Y0041398D01*
X0306202Y0041398D01*
X0299202Y0039998D02*
X0292202Y0032998D01*
X0292202Y0022498D01*
X0292101Y0022453D01*
X0288702Y0018998D02*
X0285902Y0021798D01*
X0285408Y0022453D01*
X0288702Y0018998D02*
X0305502Y0018998D01*
X0309002Y0022498D01*
X0309266Y0022531D01*
X0309702Y0022498D01*
X0316702Y0022498D01*
X0302573Y0022531D02*
X0302002Y0023198D01*
X0302002Y0028798D01*
X0297102Y0033698D01*
X0312502Y0035098D02*
X0328602Y0035098D01*
X0329302Y0035798D01*
X0329302Y0043498D01*
X0334202Y0048398D01*
X0334202Y0054698D01*
X0320202Y0068698D01*
X0309002Y0068698D01*
X0302002Y0061698D01*
X0288002Y0061698D01*
X0282402Y0056098D01*
X0282402Y0053998D01*
X0282302Y0053386D01*
X0274702Y0051898D02*
X0274702Y0046998D01*
X0268402Y0040698D01*
X0268402Y0019698D01*
X0263502Y0014798D01*
X0265132Y0022177D02*
X0264902Y0022498D01*
X0264902Y0037898D01*
X0264935Y0038201D01*
X0264902Y0038598D01*
X0254402Y0049098D01*
X0254402Y0075698D01*
X0259302Y0075698D02*
X0262102Y0078498D01*
X0265602Y0078498D01*
X0267002Y0077098D01*
X0268402Y0078498D01*
X0273302Y0078498D01*
X0278202Y0073598D01*
X0285202Y0073598D01*
X0288002Y0076398D01*
X0288002Y0086198D01*
X0289402Y0087598D01*
X0295702Y0087598D01*
X0298502Y0084798D01*
X0298951Y0084421D01*
X0299202Y0084798D01*
X0300602Y0086198D01*
X0304102Y0086198D01*
X0313202Y0088998D02*
X0344702Y0057498D01*
X0344702Y0054698D01*
X0344884Y0054685D01*
X0345402Y0053998D01*
X0345402Y0044198D01*
X0345782Y0043618D01*
X0345402Y0043498D01*
X0345402Y0041398D01*
X0344002Y0039998D01*
X0339802Y0039998D01*
X0338402Y0041398D01*
X0338402Y0042798D01*
X0338105Y0043618D01*
X0338402Y0043498D01*
X0338402Y0042798D01*
X0334902Y0042798D01*
X0329302Y0043498D02*
X0326502Y0046298D01*
X0326502Y0050498D01*
X0326341Y0050898D01*
X0328309Y0050898D02*
X0328602Y0050498D01*
X0331402Y0050498D01*
X0324402Y0050498D02*
X0324372Y0050898D01*
X0324402Y0050498D02*
X0320902Y0050498D01*
X0316702Y0050498D02*
X0309002Y0050498D01*
X0303402Y0044898D01*
X0313902Y0039298D02*
X0320202Y0045598D01*
X0325102Y0045598D01*
X0326502Y0044198D01*
X0326502Y0038598D01*
X0325998Y0038240D01*
X0323702Y0042798D02*
X0319502Y0038598D01*
X0319306Y0038240D01*
X0332102Y0036498D02*
X0332102Y0044198D01*
X0337002Y0049098D01*
X0342602Y0049798D02*
X0342602Y0044198D01*
X0343223Y0043618D01*
X0338191Y0054685D02*
X0337702Y0054698D01*
X0336302Y0054698D01*
X0320902Y0070098D01*
X0306202Y0070098D01*
X0299042Y0069378D02*
X0298502Y0068698D01*
X0292902Y0063098D01*
X0285902Y0063098D01*
X0274702Y0051898D01*
X0271530Y0053220D02*
X0271202Y0053298D01*
X0263502Y0060998D01*
X0261402Y0060998D01*
X0260702Y0061698D01*
X0260702Y0071498D01*
X0263502Y0074298D01*
X0263754Y0074815D01*
X0259302Y0075698D02*
X0259302Y0060998D01*
X0264202Y0056098D01*
X0264202Y0053298D01*
X0264837Y0053220D01*
X0264202Y0052598D01*
X0259302Y0052598D01*
X0248102Y0054698D02*
X0247487Y0054019D01*
X0248102Y0054698D02*
X0243902Y0058898D01*
X0237602Y0058898D02*
X0237602Y0046298D01*
X0240402Y0048398D02*
X0240402Y0053998D01*
X0264202Y0062398D02*
X0265602Y0060998D01*
X0273302Y0060998D01*
X0281002Y0068698D01*
X0292202Y0068698D01*
X0292349Y0069378D01*
X0285902Y0072198D02*
X0275402Y0072198D01*
X0274002Y0072198D01*
X0271902Y0074298D01*
X0271235Y0074815D01*
X0267002Y0077098D02*
X0267002Y0065198D01*
X0267494Y0064578D01*
X0264202Y0064498D02*
X0263754Y0064578D01*
X0264202Y0064498D02*
X0264202Y0062398D01*
X0271235Y0064578D02*
X0271902Y0065198D01*
X0274002Y0067298D01*
X0275402Y0067298D01*
X0285902Y0072198D02*
X0292202Y0078498D01*
X0292202Y0084098D01*
X0292258Y0084421D01*
X0288702Y0088998D02*
X0284502Y0084798D01*
X0284227Y0084264D01*
X0283802Y0084098D01*
X0280302Y0080598D01*
X0280302Y0077798D01*
X0282402Y0074998D02*
X0284502Y0077098D01*
X0282402Y0074998D02*
X0278902Y0074998D01*
X0273302Y0080598D01*
X0265602Y0080598D01*
X0262102Y0084098D01*
X0261865Y0084185D01*
X0243640Y0088811D02*
X0243202Y0088298D01*
X0238302Y0088298D01*
X0232702Y0082698D01*
X0237602Y0077798D01*
X0240402Y0075698D02*
X0232702Y0067998D01*
X0218702Y0067998D01*
X0213802Y0072898D01*
X0211702Y0072898D01*
X0211077Y0073240D01*
X0211002Y0072898D01*
X0199802Y0072898D01*
X0199770Y0073004D01*
X0222101Y0073240D02*
X0222202Y0073598D01*
X0223602Y0073598D01*
X0232702Y0082698D01*
X0238302Y0069398D02*
X0238302Y0065898D01*
X0247487Y0064256D02*
X0248102Y0063798D01*
X0250902Y0066598D01*
X0288702Y0058198D02*
X0288702Y0053998D01*
X0288994Y0053386D01*
X0311802Y0058198D02*
X0313202Y0058198D01*
X0317402Y0080598D02*
X0337002Y0060998D01*
X0383202Y0063098D02*
X0383202Y0079198D01*
X0347502Y0082698D02*
X0347502Y0073598D01*
X0318872Y0073634D02*
X0318802Y0073598D01*
X0315302Y0073598D01*
X0315132Y0073634D01*
X0311802Y0074298D02*
X0311392Y0073634D01*
X0311802Y0074298D02*
X0311802Y0074998D01*
X0314602Y0077798D01*
X0347502Y0082698D02*
X0347487Y0083169D01*
X0313202Y0088998D02*
X0288702Y0088998D01*
X0171802Y0045598D02*
X0159902Y0057498D01*
X0159628Y0057768D01*
X0171802Y0045598D02*
X0173902Y0045598D01*
X0174313Y0045161D01*
X0241400Y0033224D02*
X0241802Y0033698D01*
X0244602Y0036498D01*
X0244602Y0038598D01*
X0271628Y0038201D02*
X0271902Y0038598D01*
X0278202Y0044898D01*
X0282402Y0041398D02*
X0288702Y0041398D01*
X0282402Y0041398D02*
X0271902Y0030898D01*
X0271902Y0026698D01*
X0271902Y0022498D01*
X0271825Y0022177D01*
X0349602Y0017598D02*
X0397202Y0017598D01*
X0114739Y0077177D02*
X0114402Y0077098D01*
X0106002Y0077098D01*
X0099702Y0083398D01*
X0094102Y0083398D01*
X0092002Y0079198D02*
X0092702Y0078498D01*
X0092702Y0070798D01*
X0091302Y0071498D02*
X0089202Y0069398D01*
X0075202Y0079898D02*
X0059102Y0079898D01*
X0048602Y0069398D01*
X0035302Y0069398D01*
X0028302Y0062398D01*
X0028302Y0058198D01*
X0033202Y0063098D02*
X0036702Y0066598D01*
X0040202Y0066598D01*
X0040061Y0053307D02*
X0040202Y0053298D01*
X0040202Y0048398D01*
X0057002Y0031598D01*
X0057002Y0023198D01*
X0057353Y0022500D01*
X0059802Y0018298D02*
X0063302Y0021798D01*
X0064702Y0021798D01*
X0065089Y0022472D01*
X0071782Y0022472D02*
X0072402Y0022498D01*
X0073802Y0022498D01*
X0085702Y0034398D01*
X0085702Y0039998D01*
X0073102Y0034398D02*
X0071002Y0034398D01*
X0070302Y0033698D01*
X0065402Y0033698D01*
X0061902Y0037198D01*
X0061467Y0037413D01*
X0059802Y0018298D02*
X0054202Y0018298D01*
D39*
X0094802Y0025298D03*
X0094802Y0031598D03*
X0099002Y0031598D03*
X0073102Y0034398D03*
X0065402Y0042098D03*
X0040202Y0048398D03*
X0028302Y0058198D03*
X0033202Y0063098D03*
X0040202Y0066598D03*
X0073102Y0064498D03*
X0089902Y0066598D03*
X0088502Y0072898D03*
X0092002Y0079198D03*
X0094102Y0083398D03*
X0154302Y0064498D03*
X0171802Y0058898D03*
X0169702Y0051898D03*
X0214502Y0063798D03*
X0236202Y0063798D03*
X0250902Y0066598D03*
X0238302Y0069398D03*
X0237602Y0077798D03*
X0275402Y0072198D03*
X0275402Y0067298D03*
X0306202Y0070098D03*
X0314602Y0077798D03*
X0317402Y0080598D03*
X0304102Y0086198D03*
X0284502Y0077098D03*
X0280302Y0077798D03*
X0318102Y0060298D03*
X0311802Y0058198D03*
X0320902Y0056798D03*
X0337002Y0060998D03*
X0365002Y0065898D03*
X0383202Y0063098D03*
X0342602Y0049798D03*
X0337002Y0049098D03*
X0331402Y0050498D03*
X0316702Y0050498D03*
X0303402Y0044898D03*
X0323702Y0042798D03*
X0313902Y0039298D03*
X0297102Y0033698D03*
X0316702Y0032298D03*
X0334902Y0042798D03*
X0278202Y0044898D03*
X0251602Y0044898D03*
X0240402Y0048398D03*
X0259302Y0052598D03*
X0243902Y0058898D03*
X0288702Y0058198D03*
X0244602Y0038598D03*
X0271902Y0026698D03*
X0195602Y0033698D03*
X0192802Y0026698D03*
X0148002Y0016898D03*
X0038102Y0035098D03*
X0184402Y0070798D03*
X0383202Y0079198D03*
X0397202Y0017598D03*
X0349602Y0017598D03*
M02*
