G75*
%MOIN*%
%OFA0B0*%
%FSLAX25Y25*%
%IPPOS*%
%LPD*%
%AMOC8*
5,1,8,0,0,1.08239X$1,22.5*
%
%ADD10R,0.03937X0.04331*%
%ADD11R,0.02362X0.08661*%
%ADD12C,0.05600*%
%ADD13R,0.05512X0.04331*%
%ADD14R,0.06299X0.07087*%
%ADD15R,0.04331X0.03937*%
%ADD16OC8,0.05400*%
%ADD17R,0.03937X0.05512*%
%ADD18C,0.07400*%
%ADD19OC8,0.06600*%
%ADD20OC8,0.06200*%
%ADD21C,0.06200*%
%ADD22R,0.05512X0.03937*%
%ADD23OC8,0.04800*%
%ADD24OC8,0.04724*%
%ADD25R,0.06000X0.12500*%
%ADD26OC8,0.04156*%
%ADD27C,0.01600*%
D10*
X0042510Y0107599D03*
X0049203Y0107599D03*
X0161920Y0127402D03*
X0168612Y0127402D03*
X0266920Y0150906D03*
X0273612Y0150906D03*
X0124006Y0198150D03*
X0117313Y0198150D03*
D11*
X0118534Y0119304D03*
X0123534Y0119304D03*
X0128534Y0119304D03*
X0113534Y0119304D03*
X0113534Y0098831D03*
X0118534Y0098831D03*
X0123534Y0098831D03*
X0128534Y0098831D03*
D12*
X0018297Y0099725D03*
X0018297Y0107599D03*
D13*
X0163967Y0068229D03*
X0163967Y0060355D03*
X0179715Y0190276D03*
X0179715Y0198150D03*
D14*
X0189400Y0163898D03*
X0200423Y0163898D03*
D15*
X0299045Y0110946D03*
X0299045Y0104253D03*
X0250581Y0083387D03*
X0250581Y0076694D03*
X0352943Y0104253D03*
X0352943Y0110946D03*
X0085227Y0071576D03*
X0085227Y0064883D03*
D16*
X0128573Y0060080D03*
X0128573Y0040080D03*
X0071605Y0190276D03*
X0051605Y0190276D03*
D17*
X0290345Y0147257D03*
X0297825Y0147257D03*
X0294085Y0155918D03*
D18*
X0240018Y0153505D03*
X0239018Y0143505D03*
X0240018Y0133505D03*
X0298325Y0048544D03*
X0297325Y0038544D03*
X0298325Y0028544D03*
X0013561Y0150591D03*
X0012561Y0160591D03*
X0013561Y0170591D03*
D19*
X0065542Y0063229D03*
X0065542Y0073229D03*
X0162904Y0103662D03*
X0172904Y0103662D03*
X0266447Y0131379D03*
X0276447Y0131379D03*
X0328337Y0114883D03*
X0328337Y0104883D03*
X0376211Y0104331D03*
X0376211Y0114331D03*
X0277510Y0086300D03*
X0277510Y0076300D03*
X0125660Y0170591D03*
X0115660Y0170591D03*
X0050857Y0158780D03*
X0040857Y0158780D03*
X0043731Y0128465D03*
X0053731Y0128465D03*
D20*
X0156093Y0189213D03*
X0201053Y0142796D03*
X0191526Y0059292D03*
D21*
X0191526Y0069292D03*
X0191053Y0142796D03*
X0156093Y0199213D03*
D22*
X0089557Y0127087D03*
X0080896Y0123347D03*
X0089557Y0119607D03*
D23*
X0077195Y0158544D03*
X0067195Y0158544D03*
D24*
X0228770Y0049296D03*
X0238770Y0049296D03*
X0248770Y0049296D03*
X0238770Y0044296D03*
X0238770Y0034296D03*
X0248770Y0034296D03*
X0248770Y0024296D03*
X0248770Y0024296D03*
X0238770Y0024296D03*
X0238770Y0024296D03*
X0228770Y0024296D03*
X0228770Y0024296D03*
X0228770Y0014296D03*
X0238770Y0014296D03*
X0248770Y0014296D03*
X0228770Y0034296D03*
D25*
X0341337Y0081105D03*
X0377904Y0081105D03*
X0388826Y0081105D03*
X0370093Y0049495D03*
X0370093Y0143983D03*
X0377904Y0175593D03*
X0388826Y0175593D03*
X0341337Y0175593D03*
D26*
X0303888Y0186339D03*
X0293888Y0186339D03*
X0283888Y0186339D03*
D27*
X0288949Y0188500D02*
X0288949Y0156500D01*
X0282549Y0156500D01*
X0282549Y0129300D01*
X0277749Y0124500D01*
X0272949Y0124500D01*
X0266549Y0130900D01*
X0266447Y0131379D01*
X0263349Y0137300D02*
X0260149Y0134100D01*
X0240949Y0134100D01*
X0240018Y0133505D01*
X0239018Y0143505D02*
X0237749Y0143700D01*
X0202549Y0143700D01*
X0201053Y0142796D01*
X0200949Y0143700D01*
X0200949Y0162900D01*
X0200423Y0163898D01*
X0189749Y0162900D02*
X0189400Y0163898D01*
X0188149Y0164500D01*
X0172149Y0164500D01*
X0133749Y0202900D01*
X0112949Y0202900D01*
X0109749Y0199700D01*
X0109749Y0167700D01*
X0117749Y0159700D01*
X0117749Y0119700D01*
X0118534Y0119304D01*
X0123534Y0119304D02*
X0124149Y0118100D01*
X0124149Y0113300D01*
X0125749Y0111700D01*
X0138549Y0111700D01*
X0159349Y0132500D01*
X0165749Y0132500D01*
X0167349Y0130900D01*
X0167349Y0127700D01*
X0168612Y0127402D01*
X0168949Y0126100D01*
X0168949Y0106900D01*
X0172149Y0103700D01*
X0172904Y0103662D01*
X0173749Y0102100D01*
X0271349Y0102100D01*
X0284149Y0089300D01*
X0284149Y0073300D01*
X0280949Y0070100D01*
X0250549Y0070100D01*
X0229749Y0049300D01*
X0228770Y0049296D01*
X0229749Y0047700D01*
X0229749Y0034900D01*
X0228770Y0034296D01*
X0228149Y0033300D01*
X0228149Y0025300D01*
X0228770Y0024296D01*
X0229749Y0023700D01*
X0229749Y0015700D01*
X0228770Y0014296D01*
X0238770Y0014296D02*
X0239349Y0015700D01*
X0239349Y0023700D01*
X0238770Y0024296D01*
X0239349Y0025300D01*
X0247349Y0025300D01*
X0248770Y0024296D01*
X0248949Y0025300D01*
X0248949Y0033300D01*
X0248770Y0034296D01*
X0239349Y0034900D02*
X0238770Y0034296D01*
X0239349Y0033300D01*
X0239349Y0025300D01*
X0239349Y0034900D02*
X0239349Y0042900D01*
X0238770Y0044296D01*
X0239349Y0044500D01*
X0239349Y0047700D01*
X0238770Y0049296D01*
X0239349Y0049300D01*
X0247349Y0049300D01*
X0248770Y0049296D01*
X0234549Y0060500D02*
X0250549Y0076500D01*
X0250581Y0076694D01*
X0252149Y0076500D01*
X0276149Y0076500D01*
X0277510Y0076300D01*
X0274549Y0084500D02*
X0276149Y0086100D01*
X0277510Y0086300D01*
X0274549Y0084500D02*
X0252149Y0084500D01*
X0250581Y0083387D01*
X0234549Y0060500D02*
X0192949Y0060500D01*
X0191526Y0059292D01*
X0191349Y0060500D01*
X0164149Y0060500D01*
X0163967Y0060355D01*
X0162549Y0058900D01*
X0157749Y0054100D01*
X0125749Y0054100D01*
X0116149Y0063700D01*
X0085749Y0063700D01*
X0085227Y0064883D01*
X0084149Y0063700D01*
X0066549Y0063700D01*
X0065542Y0063229D01*
X0066549Y0071700D02*
X0065542Y0073229D01*
X0064949Y0073300D01*
X0050549Y0087700D01*
X0050549Y0106900D01*
X0049203Y0107599D01*
X0050549Y0108500D01*
X0050549Y0126100D01*
X0052149Y0127700D01*
X0053731Y0128465D01*
X0053749Y0127700D01*
X0056949Y0124500D01*
X0079349Y0124500D01*
X0080896Y0123347D01*
X0085749Y0127700D02*
X0061749Y0151700D01*
X0047349Y0151700D01*
X0040949Y0158100D01*
X0040857Y0158780D01*
X0039349Y0159700D01*
X0029749Y0169300D01*
X0013749Y0169300D01*
X0013561Y0170591D01*
X0010549Y0177300D02*
X0005749Y0172500D01*
X0005749Y0158100D01*
X0012149Y0151700D01*
X0013561Y0150591D01*
X0018549Y0146900D02*
X0020149Y0148500D01*
X0020149Y0153300D01*
X0013749Y0159700D01*
X0012561Y0160591D01*
X0018549Y0146900D02*
X0018549Y0108500D01*
X0018297Y0107599D01*
X0018549Y0100500D02*
X0018297Y0099725D01*
X0018549Y0100500D02*
X0034549Y0100500D01*
X0040949Y0106900D01*
X0042510Y0107599D01*
X0042549Y0108500D01*
X0042549Y0127700D01*
X0043731Y0128465D01*
X0085749Y0127700D02*
X0088949Y0127700D01*
X0089557Y0127087D01*
X0095349Y0124500D02*
X0095349Y0154900D01*
X0053749Y0196500D01*
X0031349Y0196500D01*
X0012149Y0177300D01*
X0010549Y0177300D01*
X0040949Y0159700D02*
X0040857Y0158780D01*
X0040949Y0159700D02*
X0050549Y0169300D01*
X0050549Y0190100D01*
X0051605Y0190276D01*
X0071605Y0190276D02*
X0072949Y0190100D01*
X0112949Y0150100D01*
X0112949Y0119700D01*
X0113534Y0119304D01*
X0128534Y0119304D02*
X0128949Y0119700D01*
X0128949Y0166100D01*
X0125749Y0169300D01*
X0125660Y0170591D01*
X0124149Y0170900D01*
X0124149Y0198100D01*
X0124006Y0198150D01*
X0117313Y0198150D02*
X0116149Y0198100D01*
X0116149Y0170900D01*
X0115660Y0170591D01*
X0156093Y0189213D02*
X0156149Y0190100D01*
X0178549Y0190100D01*
X0179715Y0190276D01*
X0179715Y0198150D02*
X0178549Y0198100D01*
X0156149Y0198100D01*
X0156093Y0199213D01*
X0189749Y0162900D02*
X0189749Y0143700D01*
X0191053Y0142796D01*
X0161920Y0127402D02*
X0162549Y0126100D01*
X0162549Y0106900D01*
X0162904Y0103662D01*
X0162549Y0103700D01*
X0162549Y0106900D01*
X0122549Y0106900D01*
X0119349Y0103700D01*
X0119349Y0098900D01*
X0118534Y0098831D01*
X0117749Y0098900D01*
X0114549Y0098900D01*
X0113534Y0098831D01*
X0122549Y0097300D02*
X0123534Y0098831D01*
X0122549Y0097300D02*
X0122549Y0092500D01*
X0101749Y0071700D01*
X0085749Y0071700D01*
X0085227Y0071576D01*
X0084149Y0071700D01*
X0066549Y0071700D01*
X0128949Y0097300D02*
X0128534Y0098831D01*
X0128949Y0097300D02*
X0128949Y0068500D01*
X0162549Y0068500D01*
X0163967Y0068229D01*
X0164149Y0068500D01*
X0191349Y0068500D01*
X0191526Y0069292D01*
X0128949Y0068500D02*
X0128949Y0060500D01*
X0128573Y0060080D01*
X0090549Y0119700D02*
X0089557Y0119607D01*
X0090549Y0119700D02*
X0095349Y0124500D01*
X0067195Y0158544D02*
X0066549Y0158100D01*
X0052149Y0158100D01*
X0050857Y0158780D01*
X0263349Y0137300D02*
X0274549Y0137300D01*
X0274549Y0150100D01*
X0273612Y0150906D01*
X0268149Y0151700D02*
X0266920Y0150906D01*
X0268149Y0151700D02*
X0268149Y0153300D01*
X0271349Y0156500D01*
X0282549Y0156500D01*
X0288949Y0156500D02*
X0293749Y0156500D01*
X0294085Y0155918D01*
X0298549Y0159700D02*
X0298549Y0148500D01*
X0297825Y0147257D01*
X0298549Y0146900D01*
X0298549Y0111700D01*
X0299045Y0110946D01*
X0300149Y0111700D01*
X0325749Y0111700D01*
X0327349Y0113300D01*
X0328337Y0114883D01*
X0327349Y0105300D02*
X0328337Y0104883D01*
X0327349Y0105300D02*
X0300149Y0105300D01*
X0299045Y0104253D01*
X0340149Y0081300D02*
X0341337Y0081105D01*
X0340149Y0081300D02*
X0340149Y0174100D01*
X0341337Y0175593D01*
X0348149Y0145300D02*
X0373749Y0170900D01*
X0383349Y0161300D01*
X0383349Y0111700D01*
X0376949Y0105300D01*
X0376211Y0104331D01*
X0376949Y0103700D01*
X0376949Y0081300D01*
X0377904Y0081105D01*
X0388149Y0079700D02*
X0388826Y0081105D01*
X0388149Y0079700D02*
X0388149Y0054100D01*
X0373749Y0039700D01*
X0298549Y0039700D01*
X0297325Y0038544D01*
X0290549Y0036500D02*
X0296949Y0030100D01*
X0298325Y0028544D01*
X0290549Y0036500D02*
X0290549Y0071700D01*
X0344949Y0071700D01*
X0357749Y0084500D01*
X0357749Y0108500D01*
X0352949Y0113300D01*
X0352949Y0111700D01*
X0352943Y0110946D01*
X0352949Y0113300D02*
X0352949Y0140500D01*
X0365749Y0153300D01*
X0373749Y0153300D01*
X0376949Y0150100D01*
X0376949Y0114900D01*
X0376211Y0114331D01*
X0352943Y0104253D02*
X0351349Y0105300D01*
X0349749Y0105300D01*
X0348149Y0106900D01*
X0348149Y0145300D01*
X0367349Y0142100D02*
X0368949Y0143700D01*
X0370093Y0143983D01*
X0367349Y0142100D02*
X0367349Y0063700D01*
X0368949Y0062100D01*
X0368949Y0050900D01*
X0370093Y0049495D01*
X0290549Y0071700D02*
X0290549Y0146900D01*
X0290345Y0147257D01*
X0298549Y0159700D02*
X0295349Y0162900D01*
X0295349Y0185300D01*
X0293888Y0186339D01*
X0295349Y0191700D02*
X0300149Y0186900D01*
X0303349Y0186900D01*
X0303888Y0186339D01*
X0295349Y0191700D02*
X0292149Y0191700D01*
X0288949Y0188500D01*
X0373749Y0170900D02*
X0376949Y0174100D01*
X0377904Y0175593D01*
X0274549Y0137300D02*
X0274549Y0134100D01*
X0276149Y0132500D01*
X0276447Y0131379D01*
X0248770Y0014296D02*
X0247349Y0014100D01*
X0239349Y0014100D01*
X0238770Y0014296D01*
M02*
