G75*
%MOIN*%
%OFA0B0*%
%FSLAX25Y25*%
%IPPOS*%
%LPD*%
%AMOC8*
5,1,8,0,0,1.08239X$1,22.5*
%
%ADD10C,0.00600*%
%ADD11C,0.00000*%
D10*
X0002549Y0001300D02*
X0002549Y0221772D01*
X0396250Y0221772D01*
X0396250Y0001300D01*
X0002549Y0001300D01*
D11*
X0014360Y0020985D02*
X0014362Y0021178D01*
X0014369Y0021371D01*
X0014381Y0021564D01*
X0014398Y0021757D01*
X0014419Y0021949D01*
X0014445Y0022140D01*
X0014476Y0022331D01*
X0014511Y0022521D01*
X0014551Y0022710D01*
X0014596Y0022898D01*
X0014645Y0023085D01*
X0014699Y0023271D01*
X0014757Y0023455D01*
X0014820Y0023638D01*
X0014888Y0023819D01*
X0014959Y0023998D01*
X0015036Y0024176D01*
X0015116Y0024352D01*
X0015201Y0024525D01*
X0015290Y0024697D01*
X0015383Y0024866D01*
X0015480Y0025033D01*
X0015582Y0025198D01*
X0015687Y0025360D01*
X0015796Y0025519D01*
X0015910Y0025676D01*
X0016027Y0025829D01*
X0016147Y0025980D01*
X0016272Y0026128D01*
X0016400Y0026273D01*
X0016531Y0026414D01*
X0016666Y0026553D01*
X0016805Y0026688D01*
X0016946Y0026819D01*
X0017091Y0026947D01*
X0017239Y0027072D01*
X0017390Y0027192D01*
X0017543Y0027309D01*
X0017700Y0027423D01*
X0017859Y0027532D01*
X0018021Y0027637D01*
X0018186Y0027739D01*
X0018353Y0027836D01*
X0018522Y0027929D01*
X0018694Y0028018D01*
X0018867Y0028103D01*
X0019043Y0028183D01*
X0019221Y0028260D01*
X0019400Y0028331D01*
X0019581Y0028399D01*
X0019764Y0028462D01*
X0019948Y0028520D01*
X0020134Y0028574D01*
X0020321Y0028623D01*
X0020509Y0028668D01*
X0020698Y0028708D01*
X0020888Y0028743D01*
X0021079Y0028774D01*
X0021270Y0028800D01*
X0021462Y0028821D01*
X0021655Y0028838D01*
X0021848Y0028850D01*
X0022041Y0028857D01*
X0022234Y0028859D01*
X0022427Y0028857D01*
X0022620Y0028850D01*
X0022813Y0028838D01*
X0023006Y0028821D01*
X0023198Y0028800D01*
X0023389Y0028774D01*
X0023580Y0028743D01*
X0023770Y0028708D01*
X0023959Y0028668D01*
X0024147Y0028623D01*
X0024334Y0028574D01*
X0024520Y0028520D01*
X0024704Y0028462D01*
X0024887Y0028399D01*
X0025068Y0028331D01*
X0025247Y0028260D01*
X0025425Y0028183D01*
X0025601Y0028103D01*
X0025774Y0028018D01*
X0025946Y0027929D01*
X0026115Y0027836D01*
X0026282Y0027739D01*
X0026447Y0027637D01*
X0026609Y0027532D01*
X0026768Y0027423D01*
X0026925Y0027309D01*
X0027078Y0027192D01*
X0027229Y0027072D01*
X0027377Y0026947D01*
X0027522Y0026819D01*
X0027663Y0026688D01*
X0027802Y0026553D01*
X0027937Y0026414D01*
X0028068Y0026273D01*
X0028196Y0026128D01*
X0028321Y0025980D01*
X0028441Y0025829D01*
X0028558Y0025676D01*
X0028672Y0025519D01*
X0028781Y0025360D01*
X0028886Y0025198D01*
X0028988Y0025033D01*
X0029085Y0024866D01*
X0029178Y0024697D01*
X0029267Y0024525D01*
X0029352Y0024352D01*
X0029432Y0024176D01*
X0029509Y0023998D01*
X0029580Y0023819D01*
X0029648Y0023638D01*
X0029711Y0023455D01*
X0029769Y0023271D01*
X0029823Y0023085D01*
X0029872Y0022898D01*
X0029917Y0022710D01*
X0029957Y0022521D01*
X0029992Y0022331D01*
X0030023Y0022140D01*
X0030049Y0021949D01*
X0030070Y0021757D01*
X0030087Y0021564D01*
X0030099Y0021371D01*
X0030106Y0021178D01*
X0030108Y0020985D01*
X0030106Y0020792D01*
X0030099Y0020599D01*
X0030087Y0020406D01*
X0030070Y0020213D01*
X0030049Y0020021D01*
X0030023Y0019830D01*
X0029992Y0019639D01*
X0029957Y0019449D01*
X0029917Y0019260D01*
X0029872Y0019072D01*
X0029823Y0018885D01*
X0029769Y0018699D01*
X0029711Y0018515D01*
X0029648Y0018332D01*
X0029580Y0018151D01*
X0029509Y0017972D01*
X0029432Y0017794D01*
X0029352Y0017618D01*
X0029267Y0017445D01*
X0029178Y0017273D01*
X0029085Y0017104D01*
X0028988Y0016937D01*
X0028886Y0016772D01*
X0028781Y0016610D01*
X0028672Y0016451D01*
X0028558Y0016294D01*
X0028441Y0016141D01*
X0028321Y0015990D01*
X0028196Y0015842D01*
X0028068Y0015697D01*
X0027937Y0015556D01*
X0027802Y0015417D01*
X0027663Y0015282D01*
X0027522Y0015151D01*
X0027377Y0015023D01*
X0027229Y0014898D01*
X0027078Y0014778D01*
X0026925Y0014661D01*
X0026768Y0014547D01*
X0026609Y0014438D01*
X0026447Y0014333D01*
X0026282Y0014231D01*
X0026115Y0014134D01*
X0025946Y0014041D01*
X0025774Y0013952D01*
X0025601Y0013867D01*
X0025425Y0013787D01*
X0025247Y0013710D01*
X0025068Y0013639D01*
X0024887Y0013571D01*
X0024704Y0013508D01*
X0024520Y0013450D01*
X0024334Y0013396D01*
X0024147Y0013347D01*
X0023959Y0013302D01*
X0023770Y0013262D01*
X0023580Y0013227D01*
X0023389Y0013196D01*
X0023198Y0013170D01*
X0023006Y0013149D01*
X0022813Y0013132D01*
X0022620Y0013120D01*
X0022427Y0013113D01*
X0022234Y0013111D01*
X0022041Y0013113D01*
X0021848Y0013120D01*
X0021655Y0013132D01*
X0021462Y0013149D01*
X0021270Y0013170D01*
X0021079Y0013196D01*
X0020888Y0013227D01*
X0020698Y0013262D01*
X0020509Y0013302D01*
X0020321Y0013347D01*
X0020134Y0013396D01*
X0019948Y0013450D01*
X0019764Y0013508D01*
X0019581Y0013571D01*
X0019400Y0013639D01*
X0019221Y0013710D01*
X0019043Y0013787D01*
X0018867Y0013867D01*
X0018694Y0013952D01*
X0018522Y0014041D01*
X0018353Y0014134D01*
X0018186Y0014231D01*
X0018021Y0014333D01*
X0017859Y0014438D01*
X0017700Y0014547D01*
X0017543Y0014661D01*
X0017390Y0014778D01*
X0017239Y0014898D01*
X0017091Y0015023D01*
X0016946Y0015151D01*
X0016805Y0015282D01*
X0016666Y0015417D01*
X0016531Y0015556D01*
X0016400Y0015697D01*
X0016272Y0015842D01*
X0016147Y0015990D01*
X0016027Y0016141D01*
X0015910Y0016294D01*
X0015796Y0016451D01*
X0015687Y0016610D01*
X0015582Y0016772D01*
X0015480Y0016937D01*
X0015383Y0017104D01*
X0015290Y0017273D01*
X0015201Y0017445D01*
X0015116Y0017618D01*
X0015036Y0017794D01*
X0014959Y0017972D01*
X0014888Y0018151D01*
X0014820Y0018332D01*
X0014757Y0018515D01*
X0014699Y0018699D01*
X0014645Y0018885D01*
X0014596Y0019072D01*
X0014551Y0019260D01*
X0014511Y0019449D01*
X0014476Y0019639D01*
X0014445Y0019830D01*
X0014419Y0020021D01*
X0014398Y0020213D01*
X0014381Y0020406D01*
X0014369Y0020599D01*
X0014362Y0020792D01*
X0014360Y0020985D01*
X0014360Y0202087D02*
X0014362Y0202280D01*
X0014369Y0202473D01*
X0014381Y0202666D01*
X0014398Y0202859D01*
X0014419Y0203051D01*
X0014445Y0203242D01*
X0014476Y0203433D01*
X0014511Y0203623D01*
X0014551Y0203812D01*
X0014596Y0204000D01*
X0014645Y0204187D01*
X0014699Y0204373D01*
X0014757Y0204557D01*
X0014820Y0204740D01*
X0014888Y0204921D01*
X0014959Y0205100D01*
X0015036Y0205278D01*
X0015116Y0205454D01*
X0015201Y0205627D01*
X0015290Y0205799D01*
X0015383Y0205968D01*
X0015480Y0206135D01*
X0015582Y0206300D01*
X0015687Y0206462D01*
X0015796Y0206621D01*
X0015910Y0206778D01*
X0016027Y0206931D01*
X0016147Y0207082D01*
X0016272Y0207230D01*
X0016400Y0207375D01*
X0016531Y0207516D01*
X0016666Y0207655D01*
X0016805Y0207790D01*
X0016946Y0207921D01*
X0017091Y0208049D01*
X0017239Y0208174D01*
X0017390Y0208294D01*
X0017543Y0208411D01*
X0017700Y0208525D01*
X0017859Y0208634D01*
X0018021Y0208739D01*
X0018186Y0208841D01*
X0018353Y0208938D01*
X0018522Y0209031D01*
X0018694Y0209120D01*
X0018867Y0209205D01*
X0019043Y0209285D01*
X0019221Y0209362D01*
X0019400Y0209433D01*
X0019581Y0209501D01*
X0019764Y0209564D01*
X0019948Y0209622D01*
X0020134Y0209676D01*
X0020321Y0209725D01*
X0020509Y0209770D01*
X0020698Y0209810D01*
X0020888Y0209845D01*
X0021079Y0209876D01*
X0021270Y0209902D01*
X0021462Y0209923D01*
X0021655Y0209940D01*
X0021848Y0209952D01*
X0022041Y0209959D01*
X0022234Y0209961D01*
X0022427Y0209959D01*
X0022620Y0209952D01*
X0022813Y0209940D01*
X0023006Y0209923D01*
X0023198Y0209902D01*
X0023389Y0209876D01*
X0023580Y0209845D01*
X0023770Y0209810D01*
X0023959Y0209770D01*
X0024147Y0209725D01*
X0024334Y0209676D01*
X0024520Y0209622D01*
X0024704Y0209564D01*
X0024887Y0209501D01*
X0025068Y0209433D01*
X0025247Y0209362D01*
X0025425Y0209285D01*
X0025601Y0209205D01*
X0025774Y0209120D01*
X0025946Y0209031D01*
X0026115Y0208938D01*
X0026282Y0208841D01*
X0026447Y0208739D01*
X0026609Y0208634D01*
X0026768Y0208525D01*
X0026925Y0208411D01*
X0027078Y0208294D01*
X0027229Y0208174D01*
X0027377Y0208049D01*
X0027522Y0207921D01*
X0027663Y0207790D01*
X0027802Y0207655D01*
X0027937Y0207516D01*
X0028068Y0207375D01*
X0028196Y0207230D01*
X0028321Y0207082D01*
X0028441Y0206931D01*
X0028558Y0206778D01*
X0028672Y0206621D01*
X0028781Y0206462D01*
X0028886Y0206300D01*
X0028988Y0206135D01*
X0029085Y0205968D01*
X0029178Y0205799D01*
X0029267Y0205627D01*
X0029352Y0205454D01*
X0029432Y0205278D01*
X0029509Y0205100D01*
X0029580Y0204921D01*
X0029648Y0204740D01*
X0029711Y0204557D01*
X0029769Y0204373D01*
X0029823Y0204187D01*
X0029872Y0204000D01*
X0029917Y0203812D01*
X0029957Y0203623D01*
X0029992Y0203433D01*
X0030023Y0203242D01*
X0030049Y0203051D01*
X0030070Y0202859D01*
X0030087Y0202666D01*
X0030099Y0202473D01*
X0030106Y0202280D01*
X0030108Y0202087D01*
X0030106Y0201894D01*
X0030099Y0201701D01*
X0030087Y0201508D01*
X0030070Y0201315D01*
X0030049Y0201123D01*
X0030023Y0200932D01*
X0029992Y0200741D01*
X0029957Y0200551D01*
X0029917Y0200362D01*
X0029872Y0200174D01*
X0029823Y0199987D01*
X0029769Y0199801D01*
X0029711Y0199617D01*
X0029648Y0199434D01*
X0029580Y0199253D01*
X0029509Y0199074D01*
X0029432Y0198896D01*
X0029352Y0198720D01*
X0029267Y0198547D01*
X0029178Y0198375D01*
X0029085Y0198206D01*
X0028988Y0198039D01*
X0028886Y0197874D01*
X0028781Y0197712D01*
X0028672Y0197553D01*
X0028558Y0197396D01*
X0028441Y0197243D01*
X0028321Y0197092D01*
X0028196Y0196944D01*
X0028068Y0196799D01*
X0027937Y0196658D01*
X0027802Y0196519D01*
X0027663Y0196384D01*
X0027522Y0196253D01*
X0027377Y0196125D01*
X0027229Y0196000D01*
X0027078Y0195880D01*
X0026925Y0195763D01*
X0026768Y0195649D01*
X0026609Y0195540D01*
X0026447Y0195435D01*
X0026282Y0195333D01*
X0026115Y0195236D01*
X0025946Y0195143D01*
X0025774Y0195054D01*
X0025601Y0194969D01*
X0025425Y0194889D01*
X0025247Y0194812D01*
X0025068Y0194741D01*
X0024887Y0194673D01*
X0024704Y0194610D01*
X0024520Y0194552D01*
X0024334Y0194498D01*
X0024147Y0194449D01*
X0023959Y0194404D01*
X0023770Y0194364D01*
X0023580Y0194329D01*
X0023389Y0194298D01*
X0023198Y0194272D01*
X0023006Y0194251D01*
X0022813Y0194234D01*
X0022620Y0194222D01*
X0022427Y0194215D01*
X0022234Y0194213D01*
X0022041Y0194215D01*
X0021848Y0194222D01*
X0021655Y0194234D01*
X0021462Y0194251D01*
X0021270Y0194272D01*
X0021079Y0194298D01*
X0020888Y0194329D01*
X0020698Y0194364D01*
X0020509Y0194404D01*
X0020321Y0194449D01*
X0020134Y0194498D01*
X0019948Y0194552D01*
X0019764Y0194610D01*
X0019581Y0194673D01*
X0019400Y0194741D01*
X0019221Y0194812D01*
X0019043Y0194889D01*
X0018867Y0194969D01*
X0018694Y0195054D01*
X0018522Y0195143D01*
X0018353Y0195236D01*
X0018186Y0195333D01*
X0018021Y0195435D01*
X0017859Y0195540D01*
X0017700Y0195649D01*
X0017543Y0195763D01*
X0017390Y0195880D01*
X0017239Y0196000D01*
X0017091Y0196125D01*
X0016946Y0196253D01*
X0016805Y0196384D01*
X0016666Y0196519D01*
X0016531Y0196658D01*
X0016400Y0196799D01*
X0016272Y0196944D01*
X0016147Y0197092D01*
X0016027Y0197243D01*
X0015910Y0197396D01*
X0015796Y0197553D01*
X0015687Y0197712D01*
X0015582Y0197874D01*
X0015480Y0198039D01*
X0015383Y0198206D01*
X0015290Y0198375D01*
X0015201Y0198547D01*
X0015116Y0198720D01*
X0015036Y0198896D01*
X0014959Y0199074D01*
X0014888Y0199253D01*
X0014820Y0199434D01*
X0014757Y0199617D01*
X0014699Y0199801D01*
X0014645Y0199987D01*
X0014596Y0200174D01*
X0014551Y0200362D01*
X0014511Y0200551D01*
X0014476Y0200741D01*
X0014445Y0200932D01*
X0014419Y0201123D01*
X0014398Y0201315D01*
X0014381Y0201508D01*
X0014369Y0201701D01*
X0014362Y0201894D01*
X0014360Y0202087D01*
X0343144Y0159371D02*
X0343146Y0159489D01*
X0343152Y0159607D01*
X0343162Y0159725D01*
X0343176Y0159842D01*
X0343194Y0159959D01*
X0343216Y0160076D01*
X0343241Y0160191D01*
X0343271Y0160305D01*
X0343305Y0160419D01*
X0343342Y0160531D01*
X0343383Y0160642D01*
X0343428Y0160751D01*
X0343476Y0160859D01*
X0343528Y0160965D01*
X0343584Y0161070D01*
X0343643Y0161172D01*
X0343705Y0161272D01*
X0343771Y0161370D01*
X0343840Y0161466D01*
X0343913Y0161560D01*
X0343988Y0161651D01*
X0344067Y0161739D01*
X0344148Y0161825D01*
X0344233Y0161908D01*
X0344320Y0161988D01*
X0344409Y0162065D01*
X0344502Y0162139D01*
X0344596Y0162209D01*
X0344693Y0162277D01*
X0344793Y0162341D01*
X0344894Y0162402D01*
X0344997Y0162459D01*
X0345103Y0162513D01*
X0345210Y0162564D01*
X0345318Y0162610D01*
X0345428Y0162653D01*
X0345540Y0162692D01*
X0345653Y0162728D01*
X0345767Y0162759D01*
X0345882Y0162787D01*
X0345997Y0162811D01*
X0346114Y0162831D01*
X0346231Y0162847D01*
X0346349Y0162859D01*
X0346467Y0162867D01*
X0346585Y0162871D01*
X0346703Y0162871D01*
X0346821Y0162867D01*
X0346939Y0162859D01*
X0347057Y0162847D01*
X0347174Y0162831D01*
X0347291Y0162811D01*
X0347406Y0162787D01*
X0347521Y0162759D01*
X0347635Y0162728D01*
X0347748Y0162692D01*
X0347860Y0162653D01*
X0347970Y0162610D01*
X0348078Y0162564D01*
X0348185Y0162513D01*
X0348291Y0162459D01*
X0348394Y0162402D01*
X0348495Y0162341D01*
X0348595Y0162277D01*
X0348692Y0162209D01*
X0348786Y0162139D01*
X0348879Y0162065D01*
X0348968Y0161988D01*
X0349055Y0161908D01*
X0349140Y0161825D01*
X0349221Y0161739D01*
X0349300Y0161651D01*
X0349375Y0161560D01*
X0349448Y0161466D01*
X0349517Y0161370D01*
X0349583Y0161272D01*
X0349645Y0161172D01*
X0349704Y0161070D01*
X0349760Y0160965D01*
X0349812Y0160859D01*
X0349860Y0160751D01*
X0349905Y0160642D01*
X0349946Y0160531D01*
X0349983Y0160419D01*
X0350017Y0160305D01*
X0350047Y0160191D01*
X0350072Y0160076D01*
X0350094Y0159959D01*
X0350112Y0159842D01*
X0350126Y0159725D01*
X0350136Y0159607D01*
X0350142Y0159489D01*
X0350144Y0159371D01*
X0350142Y0159253D01*
X0350136Y0159135D01*
X0350126Y0159017D01*
X0350112Y0158900D01*
X0350094Y0158783D01*
X0350072Y0158666D01*
X0350047Y0158551D01*
X0350017Y0158437D01*
X0349983Y0158323D01*
X0349946Y0158211D01*
X0349905Y0158100D01*
X0349860Y0157991D01*
X0349812Y0157883D01*
X0349760Y0157777D01*
X0349704Y0157672D01*
X0349645Y0157570D01*
X0349583Y0157470D01*
X0349517Y0157372D01*
X0349448Y0157276D01*
X0349375Y0157182D01*
X0349300Y0157091D01*
X0349221Y0157003D01*
X0349140Y0156917D01*
X0349055Y0156834D01*
X0348968Y0156754D01*
X0348879Y0156677D01*
X0348786Y0156603D01*
X0348692Y0156533D01*
X0348595Y0156465D01*
X0348495Y0156401D01*
X0348394Y0156340D01*
X0348291Y0156283D01*
X0348185Y0156229D01*
X0348078Y0156178D01*
X0347970Y0156132D01*
X0347860Y0156089D01*
X0347748Y0156050D01*
X0347635Y0156014D01*
X0347521Y0155983D01*
X0347406Y0155955D01*
X0347291Y0155931D01*
X0347174Y0155911D01*
X0347057Y0155895D01*
X0346939Y0155883D01*
X0346821Y0155875D01*
X0346703Y0155871D01*
X0346585Y0155871D01*
X0346467Y0155875D01*
X0346349Y0155883D01*
X0346231Y0155895D01*
X0346114Y0155911D01*
X0345997Y0155931D01*
X0345882Y0155955D01*
X0345767Y0155983D01*
X0345653Y0156014D01*
X0345540Y0156050D01*
X0345428Y0156089D01*
X0345318Y0156132D01*
X0345210Y0156178D01*
X0345103Y0156229D01*
X0344997Y0156283D01*
X0344894Y0156340D01*
X0344793Y0156401D01*
X0344693Y0156465D01*
X0344596Y0156533D01*
X0344502Y0156603D01*
X0344409Y0156677D01*
X0344320Y0156754D01*
X0344233Y0156834D01*
X0344148Y0156917D01*
X0344067Y0157003D01*
X0343988Y0157091D01*
X0343913Y0157182D01*
X0343840Y0157276D01*
X0343771Y0157372D01*
X0343705Y0157470D01*
X0343643Y0157570D01*
X0343584Y0157672D01*
X0343528Y0157777D01*
X0343476Y0157883D01*
X0343428Y0157991D01*
X0343383Y0158100D01*
X0343342Y0158211D01*
X0343305Y0158323D01*
X0343271Y0158437D01*
X0343241Y0158551D01*
X0343216Y0158666D01*
X0343194Y0158783D01*
X0343176Y0158900D01*
X0343162Y0159017D01*
X0343152Y0159135D01*
X0343146Y0159253D01*
X0343144Y0159371D01*
X0370703Y0159371D02*
X0370705Y0159489D01*
X0370711Y0159607D01*
X0370721Y0159725D01*
X0370735Y0159842D01*
X0370753Y0159959D01*
X0370775Y0160076D01*
X0370800Y0160191D01*
X0370830Y0160305D01*
X0370864Y0160419D01*
X0370901Y0160531D01*
X0370942Y0160642D01*
X0370987Y0160751D01*
X0371035Y0160859D01*
X0371087Y0160965D01*
X0371143Y0161070D01*
X0371202Y0161172D01*
X0371264Y0161272D01*
X0371330Y0161370D01*
X0371399Y0161466D01*
X0371472Y0161560D01*
X0371547Y0161651D01*
X0371626Y0161739D01*
X0371707Y0161825D01*
X0371792Y0161908D01*
X0371879Y0161988D01*
X0371968Y0162065D01*
X0372061Y0162139D01*
X0372155Y0162209D01*
X0372252Y0162277D01*
X0372352Y0162341D01*
X0372453Y0162402D01*
X0372556Y0162459D01*
X0372662Y0162513D01*
X0372769Y0162564D01*
X0372877Y0162610D01*
X0372987Y0162653D01*
X0373099Y0162692D01*
X0373212Y0162728D01*
X0373326Y0162759D01*
X0373441Y0162787D01*
X0373556Y0162811D01*
X0373673Y0162831D01*
X0373790Y0162847D01*
X0373908Y0162859D01*
X0374026Y0162867D01*
X0374144Y0162871D01*
X0374262Y0162871D01*
X0374380Y0162867D01*
X0374498Y0162859D01*
X0374616Y0162847D01*
X0374733Y0162831D01*
X0374850Y0162811D01*
X0374965Y0162787D01*
X0375080Y0162759D01*
X0375194Y0162728D01*
X0375307Y0162692D01*
X0375419Y0162653D01*
X0375529Y0162610D01*
X0375637Y0162564D01*
X0375744Y0162513D01*
X0375850Y0162459D01*
X0375953Y0162402D01*
X0376054Y0162341D01*
X0376154Y0162277D01*
X0376251Y0162209D01*
X0376345Y0162139D01*
X0376438Y0162065D01*
X0376527Y0161988D01*
X0376614Y0161908D01*
X0376699Y0161825D01*
X0376780Y0161739D01*
X0376859Y0161651D01*
X0376934Y0161560D01*
X0377007Y0161466D01*
X0377076Y0161370D01*
X0377142Y0161272D01*
X0377204Y0161172D01*
X0377263Y0161070D01*
X0377319Y0160965D01*
X0377371Y0160859D01*
X0377419Y0160751D01*
X0377464Y0160642D01*
X0377505Y0160531D01*
X0377542Y0160419D01*
X0377576Y0160305D01*
X0377606Y0160191D01*
X0377631Y0160076D01*
X0377653Y0159959D01*
X0377671Y0159842D01*
X0377685Y0159725D01*
X0377695Y0159607D01*
X0377701Y0159489D01*
X0377703Y0159371D01*
X0377701Y0159253D01*
X0377695Y0159135D01*
X0377685Y0159017D01*
X0377671Y0158900D01*
X0377653Y0158783D01*
X0377631Y0158666D01*
X0377606Y0158551D01*
X0377576Y0158437D01*
X0377542Y0158323D01*
X0377505Y0158211D01*
X0377464Y0158100D01*
X0377419Y0157991D01*
X0377371Y0157883D01*
X0377319Y0157777D01*
X0377263Y0157672D01*
X0377204Y0157570D01*
X0377142Y0157470D01*
X0377076Y0157372D01*
X0377007Y0157276D01*
X0376934Y0157182D01*
X0376859Y0157091D01*
X0376780Y0157003D01*
X0376699Y0156917D01*
X0376614Y0156834D01*
X0376527Y0156754D01*
X0376438Y0156677D01*
X0376345Y0156603D01*
X0376251Y0156533D01*
X0376154Y0156465D01*
X0376054Y0156401D01*
X0375953Y0156340D01*
X0375850Y0156283D01*
X0375744Y0156229D01*
X0375637Y0156178D01*
X0375529Y0156132D01*
X0375419Y0156089D01*
X0375307Y0156050D01*
X0375194Y0156014D01*
X0375080Y0155983D01*
X0374965Y0155955D01*
X0374850Y0155931D01*
X0374733Y0155911D01*
X0374616Y0155895D01*
X0374498Y0155883D01*
X0374380Y0155875D01*
X0374262Y0155871D01*
X0374144Y0155871D01*
X0374026Y0155875D01*
X0373908Y0155883D01*
X0373790Y0155895D01*
X0373673Y0155911D01*
X0373556Y0155931D01*
X0373441Y0155955D01*
X0373326Y0155983D01*
X0373212Y0156014D01*
X0373099Y0156050D01*
X0372987Y0156089D01*
X0372877Y0156132D01*
X0372769Y0156178D01*
X0372662Y0156229D01*
X0372556Y0156283D01*
X0372453Y0156340D01*
X0372352Y0156401D01*
X0372252Y0156465D01*
X0372155Y0156533D01*
X0372061Y0156603D01*
X0371968Y0156677D01*
X0371879Y0156754D01*
X0371792Y0156834D01*
X0371707Y0156917D01*
X0371626Y0157003D01*
X0371547Y0157091D01*
X0371472Y0157182D01*
X0371399Y0157276D01*
X0371330Y0157372D01*
X0371264Y0157470D01*
X0371202Y0157570D01*
X0371143Y0157672D01*
X0371087Y0157777D01*
X0371035Y0157883D01*
X0370987Y0157991D01*
X0370942Y0158100D01*
X0370901Y0158211D01*
X0370864Y0158323D01*
X0370830Y0158437D01*
X0370800Y0158551D01*
X0370775Y0158666D01*
X0370753Y0158783D01*
X0370735Y0158900D01*
X0370721Y0159017D01*
X0370711Y0159135D01*
X0370705Y0159253D01*
X0370703Y0159371D01*
X0368691Y0202087D02*
X0368693Y0202280D01*
X0368700Y0202473D01*
X0368712Y0202666D01*
X0368729Y0202859D01*
X0368750Y0203051D01*
X0368776Y0203242D01*
X0368807Y0203433D01*
X0368842Y0203623D01*
X0368882Y0203812D01*
X0368927Y0204000D01*
X0368976Y0204187D01*
X0369030Y0204373D01*
X0369088Y0204557D01*
X0369151Y0204740D01*
X0369219Y0204921D01*
X0369290Y0205100D01*
X0369367Y0205278D01*
X0369447Y0205454D01*
X0369532Y0205627D01*
X0369621Y0205799D01*
X0369714Y0205968D01*
X0369811Y0206135D01*
X0369913Y0206300D01*
X0370018Y0206462D01*
X0370127Y0206621D01*
X0370241Y0206778D01*
X0370358Y0206931D01*
X0370478Y0207082D01*
X0370603Y0207230D01*
X0370731Y0207375D01*
X0370862Y0207516D01*
X0370997Y0207655D01*
X0371136Y0207790D01*
X0371277Y0207921D01*
X0371422Y0208049D01*
X0371570Y0208174D01*
X0371721Y0208294D01*
X0371874Y0208411D01*
X0372031Y0208525D01*
X0372190Y0208634D01*
X0372352Y0208739D01*
X0372517Y0208841D01*
X0372684Y0208938D01*
X0372853Y0209031D01*
X0373025Y0209120D01*
X0373198Y0209205D01*
X0373374Y0209285D01*
X0373552Y0209362D01*
X0373731Y0209433D01*
X0373912Y0209501D01*
X0374095Y0209564D01*
X0374279Y0209622D01*
X0374465Y0209676D01*
X0374652Y0209725D01*
X0374840Y0209770D01*
X0375029Y0209810D01*
X0375219Y0209845D01*
X0375410Y0209876D01*
X0375601Y0209902D01*
X0375793Y0209923D01*
X0375986Y0209940D01*
X0376179Y0209952D01*
X0376372Y0209959D01*
X0376565Y0209961D01*
X0376758Y0209959D01*
X0376951Y0209952D01*
X0377144Y0209940D01*
X0377337Y0209923D01*
X0377529Y0209902D01*
X0377720Y0209876D01*
X0377911Y0209845D01*
X0378101Y0209810D01*
X0378290Y0209770D01*
X0378478Y0209725D01*
X0378665Y0209676D01*
X0378851Y0209622D01*
X0379035Y0209564D01*
X0379218Y0209501D01*
X0379399Y0209433D01*
X0379578Y0209362D01*
X0379756Y0209285D01*
X0379932Y0209205D01*
X0380105Y0209120D01*
X0380277Y0209031D01*
X0380446Y0208938D01*
X0380613Y0208841D01*
X0380778Y0208739D01*
X0380940Y0208634D01*
X0381099Y0208525D01*
X0381256Y0208411D01*
X0381409Y0208294D01*
X0381560Y0208174D01*
X0381708Y0208049D01*
X0381853Y0207921D01*
X0381994Y0207790D01*
X0382133Y0207655D01*
X0382268Y0207516D01*
X0382399Y0207375D01*
X0382527Y0207230D01*
X0382652Y0207082D01*
X0382772Y0206931D01*
X0382889Y0206778D01*
X0383003Y0206621D01*
X0383112Y0206462D01*
X0383217Y0206300D01*
X0383319Y0206135D01*
X0383416Y0205968D01*
X0383509Y0205799D01*
X0383598Y0205627D01*
X0383683Y0205454D01*
X0383763Y0205278D01*
X0383840Y0205100D01*
X0383911Y0204921D01*
X0383979Y0204740D01*
X0384042Y0204557D01*
X0384100Y0204373D01*
X0384154Y0204187D01*
X0384203Y0204000D01*
X0384248Y0203812D01*
X0384288Y0203623D01*
X0384323Y0203433D01*
X0384354Y0203242D01*
X0384380Y0203051D01*
X0384401Y0202859D01*
X0384418Y0202666D01*
X0384430Y0202473D01*
X0384437Y0202280D01*
X0384439Y0202087D01*
X0384437Y0201894D01*
X0384430Y0201701D01*
X0384418Y0201508D01*
X0384401Y0201315D01*
X0384380Y0201123D01*
X0384354Y0200932D01*
X0384323Y0200741D01*
X0384288Y0200551D01*
X0384248Y0200362D01*
X0384203Y0200174D01*
X0384154Y0199987D01*
X0384100Y0199801D01*
X0384042Y0199617D01*
X0383979Y0199434D01*
X0383911Y0199253D01*
X0383840Y0199074D01*
X0383763Y0198896D01*
X0383683Y0198720D01*
X0383598Y0198547D01*
X0383509Y0198375D01*
X0383416Y0198206D01*
X0383319Y0198039D01*
X0383217Y0197874D01*
X0383112Y0197712D01*
X0383003Y0197553D01*
X0382889Y0197396D01*
X0382772Y0197243D01*
X0382652Y0197092D01*
X0382527Y0196944D01*
X0382399Y0196799D01*
X0382268Y0196658D01*
X0382133Y0196519D01*
X0381994Y0196384D01*
X0381853Y0196253D01*
X0381708Y0196125D01*
X0381560Y0196000D01*
X0381409Y0195880D01*
X0381256Y0195763D01*
X0381099Y0195649D01*
X0380940Y0195540D01*
X0380778Y0195435D01*
X0380613Y0195333D01*
X0380446Y0195236D01*
X0380277Y0195143D01*
X0380105Y0195054D01*
X0379932Y0194969D01*
X0379756Y0194889D01*
X0379578Y0194812D01*
X0379399Y0194741D01*
X0379218Y0194673D01*
X0379035Y0194610D01*
X0378851Y0194552D01*
X0378665Y0194498D01*
X0378478Y0194449D01*
X0378290Y0194404D01*
X0378101Y0194364D01*
X0377911Y0194329D01*
X0377720Y0194298D01*
X0377529Y0194272D01*
X0377337Y0194251D01*
X0377144Y0194234D01*
X0376951Y0194222D01*
X0376758Y0194215D01*
X0376565Y0194213D01*
X0376372Y0194215D01*
X0376179Y0194222D01*
X0375986Y0194234D01*
X0375793Y0194251D01*
X0375601Y0194272D01*
X0375410Y0194298D01*
X0375219Y0194329D01*
X0375029Y0194364D01*
X0374840Y0194404D01*
X0374652Y0194449D01*
X0374465Y0194498D01*
X0374279Y0194552D01*
X0374095Y0194610D01*
X0373912Y0194673D01*
X0373731Y0194741D01*
X0373552Y0194812D01*
X0373374Y0194889D01*
X0373198Y0194969D01*
X0373025Y0195054D01*
X0372853Y0195143D01*
X0372684Y0195236D01*
X0372517Y0195333D01*
X0372352Y0195435D01*
X0372190Y0195540D01*
X0372031Y0195649D01*
X0371874Y0195763D01*
X0371721Y0195880D01*
X0371570Y0196000D01*
X0371422Y0196125D01*
X0371277Y0196253D01*
X0371136Y0196384D01*
X0370997Y0196519D01*
X0370862Y0196658D01*
X0370731Y0196799D01*
X0370603Y0196944D01*
X0370478Y0197092D01*
X0370358Y0197243D01*
X0370241Y0197396D01*
X0370127Y0197553D01*
X0370018Y0197712D01*
X0369913Y0197874D01*
X0369811Y0198039D01*
X0369714Y0198206D01*
X0369621Y0198375D01*
X0369532Y0198547D01*
X0369447Y0198720D01*
X0369367Y0198896D01*
X0369290Y0199074D01*
X0369219Y0199253D01*
X0369151Y0199434D01*
X0369088Y0199617D01*
X0369030Y0199801D01*
X0368976Y0199987D01*
X0368927Y0200174D01*
X0368882Y0200362D01*
X0368842Y0200551D01*
X0368807Y0200741D01*
X0368776Y0200932D01*
X0368750Y0201123D01*
X0368729Y0201315D01*
X0368712Y0201508D01*
X0368700Y0201701D01*
X0368693Y0201894D01*
X0368691Y0202087D01*
X0370703Y0064883D02*
X0370705Y0065001D01*
X0370711Y0065119D01*
X0370721Y0065237D01*
X0370735Y0065354D01*
X0370753Y0065471D01*
X0370775Y0065588D01*
X0370800Y0065703D01*
X0370830Y0065817D01*
X0370864Y0065931D01*
X0370901Y0066043D01*
X0370942Y0066154D01*
X0370987Y0066263D01*
X0371035Y0066371D01*
X0371087Y0066477D01*
X0371143Y0066582D01*
X0371202Y0066684D01*
X0371264Y0066784D01*
X0371330Y0066882D01*
X0371399Y0066978D01*
X0371472Y0067072D01*
X0371547Y0067163D01*
X0371626Y0067251D01*
X0371707Y0067337D01*
X0371792Y0067420D01*
X0371879Y0067500D01*
X0371968Y0067577D01*
X0372061Y0067651D01*
X0372155Y0067721D01*
X0372252Y0067789D01*
X0372352Y0067853D01*
X0372453Y0067914D01*
X0372556Y0067971D01*
X0372662Y0068025D01*
X0372769Y0068076D01*
X0372877Y0068122D01*
X0372987Y0068165D01*
X0373099Y0068204D01*
X0373212Y0068240D01*
X0373326Y0068271D01*
X0373441Y0068299D01*
X0373556Y0068323D01*
X0373673Y0068343D01*
X0373790Y0068359D01*
X0373908Y0068371D01*
X0374026Y0068379D01*
X0374144Y0068383D01*
X0374262Y0068383D01*
X0374380Y0068379D01*
X0374498Y0068371D01*
X0374616Y0068359D01*
X0374733Y0068343D01*
X0374850Y0068323D01*
X0374965Y0068299D01*
X0375080Y0068271D01*
X0375194Y0068240D01*
X0375307Y0068204D01*
X0375419Y0068165D01*
X0375529Y0068122D01*
X0375637Y0068076D01*
X0375744Y0068025D01*
X0375850Y0067971D01*
X0375953Y0067914D01*
X0376054Y0067853D01*
X0376154Y0067789D01*
X0376251Y0067721D01*
X0376345Y0067651D01*
X0376438Y0067577D01*
X0376527Y0067500D01*
X0376614Y0067420D01*
X0376699Y0067337D01*
X0376780Y0067251D01*
X0376859Y0067163D01*
X0376934Y0067072D01*
X0377007Y0066978D01*
X0377076Y0066882D01*
X0377142Y0066784D01*
X0377204Y0066684D01*
X0377263Y0066582D01*
X0377319Y0066477D01*
X0377371Y0066371D01*
X0377419Y0066263D01*
X0377464Y0066154D01*
X0377505Y0066043D01*
X0377542Y0065931D01*
X0377576Y0065817D01*
X0377606Y0065703D01*
X0377631Y0065588D01*
X0377653Y0065471D01*
X0377671Y0065354D01*
X0377685Y0065237D01*
X0377695Y0065119D01*
X0377701Y0065001D01*
X0377703Y0064883D01*
X0377701Y0064765D01*
X0377695Y0064647D01*
X0377685Y0064529D01*
X0377671Y0064412D01*
X0377653Y0064295D01*
X0377631Y0064178D01*
X0377606Y0064063D01*
X0377576Y0063949D01*
X0377542Y0063835D01*
X0377505Y0063723D01*
X0377464Y0063612D01*
X0377419Y0063503D01*
X0377371Y0063395D01*
X0377319Y0063289D01*
X0377263Y0063184D01*
X0377204Y0063082D01*
X0377142Y0062982D01*
X0377076Y0062884D01*
X0377007Y0062788D01*
X0376934Y0062694D01*
X0376859Y0062603D01*
X0376780Y0062515D01*
X0376699Y0062429D01*
X0376614Y0062346D01*
X0376527Y0062266D01*
X0376438Y0062189D01*
X0376345Y0062115D01*
X0376251Y0062045D01*
X0376154Y0061977D01*
X0376054Y0061913D01*
X0375953Y0061852D01*
X0375850Y0061795D01*
X0375744Y0061741D01*
X0375637Y0061690D01*
X0375529Y0061644D01*
X0375419Y0061601D01*
X0375307Y0061562D01*
X0375194Y0061526D01*
X0375080Y0061495D01*
X0374965Y0061467D01*
X0374850Y0061443D01*
X0374733Y0061423D01*
X0374616Y0061407D01*
X0374498Y0061395D01*
X0374380Y0061387D01*
X0374262Y0061383D01*
X0374144Y0061383D01*
X0374026Y0061387D01*
X0373908Y0061395D01*
X0373790Y0061407D01*
X0373673Y0061423D01*
X0373556Y0061443D01*
X0373441Y0061467D01*
X0373326Y0061495D01*
X0373212Y0061526D01*
X0373099Y0061562D01*
X0372987Y0061601D01*
X0372877Y0061644D01*
X0372769Y0061690D01*
X0372662Y0061741D01*
X0372556Y0061795D01*
X0372453Y0061852D01*
X0372352Y0061913D01*
X0372252Y0061977D01*
X0372155Y0062045D01*
X0372061Y0062115D01*
X0371968Y0062189D01*
X0371879Y0062266D01*
X0371792Y0062346D01*
X0371707Y0062429D01*
X0371626Y0062515D01*
X0371547Y0062603D01*
X0371472Y0062694D01*
X0371399Y0062788D01*
X0371330Y0062884D01*
X0371264Y0062982D01*
X0371202Y0063082D01*
X0371143Y0063184D01*
X0371087Y0063289D01*
X0371035Y0063395D01*
X0370987Y0063503D01*
X0370942Y0063612D01*
X0370901Y0063723D01*
X0370864Y0063835D01*
X0370830Y0063949D01*
X0370800Y0064063D01*
X0370775Y0064178D01*
X0370753Y0064295D01*
X0370735Y0064412D01*
X0370721Y0064529D01*
X0370711Y0064647D01*
X0370705Y0064765D01*
X0370703Y0064883D01*
X0343144Y0064883D02*
X0343146Y0065001D01*
X0343152Y0065119D01*
X0343162Y0065237D01*
X0343176Y0065354D01*
X0343194Y0065471D01*
X0343216Y0065588D01*
X0343241Y0065703D01*
X0343271Y0065817D01*
X0343305Y0065931D01*
X0343342Y0066043D01*
X0343383Y0066154D01*
X0343428Y0066263D01*
X0343476Y0066371D01*
X0343528Y0066477D01*
X0343584Y0066582D01*
X0343643Y0066684D01*
X0343705Y0066784D01*
X0343771Y0066882D01*
X0343840Y0066978D01*
X0343913Y0067072D01*
X0343988Y0067163D01*
X0344067Y0067251D01*
X0344148Y0067337D01*
X0344233Y0067420D01*
X0344320Y0067500D01*
X0344409Y0067577D01*
X0344502Y0067651D01*
X0344596Y0067721D01*
X0344693Y0067789D01*
X0344793Y0067853D01*
X0344894Y0067914D01*
X0344997Y0067971D01*
X0345103Y0068025D01*
X0345210Y0068076D01*
X0345318Y0068122D01*
X0345428Y0068165D01*
X0345540Y0068204D01*
X0345653Y0068240D01*
X0345767Y0068271D01*
X0345882Y0068299D01*
X0345997Y0068323D01*
X0346114Y0068343D01*
X0346231Y0068359D01*
X0346349Y0068371D01*
X0346467Y0068379D01*
X0346585Y0068383D01*
X0346703Y0068383D01*
X0346821Y0068379D01*
X0346939Y0068371D01*
X0347057Y0068359D01*
X0347174Y0068343D01*
X0347291Y0068323D01*
X0347406Y0068299D01*
X0347521Y0068271D01*
X0347635Y0068240D01*
X0347748Y0068204D01*
X0347860Y0068165D01*
X0347970Y0068122D01*
X0348078Y0068076D01*
X0348185Y0068025D01*
X0348291Y0067971D01*
X0348394Y0067914D01*
X0348495Y0067853D01*
X0348595Y0067789D01*
X0348692Y0067721D01*
X0348786Y0067651D01*
X0348879Y0067577D01*
X0348968Y0067500D01*
X0349055Y0067420D01*
X0349140Y0067337D01*
X0349221Y0067251D01*
X0349300Y0067163D01*
X0349375Y0067072D01*
X0349448Y0066978D01*
X0349517Y0066882D01*
X0349583Y0066784D01*
X0349645Y0066684D01*
X0349704Y0066582D01*
X0349760Y0066477D01*
X0349812Y0066371D01*
X0349860Y0066263D01*
X0349905Y0066154D01*
X0349946Y0066043D01*
X0349983Y0065931D01*
X0350017Y0065817D01*
X0350047Y0065703D01*
X0350072Y0065588D01*
X0350094Y0065471D01*
X0350112Y0065354D01*
X0350126Y0065237D01*
X0350136Y0065119D01*
X0350142Y0065001D01*
X0350144Y0064883D01*
X0350142Y0064765D01*
X0350136Y0064647D01*
X0350126Y0064529D01*
X0350112Y0064412D01*
X0350094Y0064295D01*
X0350072Y0064178D01*
X0350047Y0064063D01*
X0350017Y0063949D01*
X0349983Y0063835D01*
X0349946Y0063723D01*
X0349905Y0063612D01*
X0349860Y0063503D01*
X0349812Y0063395D01*
X0349760Y0063289D01*
X0349704Y0063184D01*
X0349645Y0063082D01*
X0349583Y0062982D01*
X0349517Y0062884D01*
X0349448Y0062788D01*
X0349375Y0062694D01*
X0349300Y0062603D01*
X0349221Y0062515D01*
X0349140Y0062429D01*
X0349055Y0062346D01*
X0348968Y0062266D01*
X0348879Y0062189D01*
X0348786Y0062115D01*
X0348692Y0062045D01*
X0348595Y0061977D01*
X0348495Y0061913D01*
X0348394Y0061852D01*
X0348291Y0061795D01*
X0348185Y0061741D01*
X0348078Y0061690D01*
X0347970Y0061644D01*
X0347860Y0061601D01*
X0347748Y0061562D01*
X0347635Y0061526D01*
X0347521Y0061495D01*
X0347406Y0061467D01*
X0347291Y0061443D01*
X0347174Y0061423D01*
X0347057Y0061407D01*
X0346939Y0061395D01*
X0346821Y0061387D01*
X0346703Y0061383D01*
X0346585Y0061383D01*
X0346467Y0061387D01*
X0346349Y0061395D01*
X0346231Y0061407D01*
X0346114Y0061423D01*
X0345997Y0061443D01*
X0345882Y0061467D01*
X0345767Y0061495D01*
X0345653Y0061526D01*
X0345540Y0061562D01*
X0345428Y0061601D01*
X0345318Y0061644D01*
X0345210Y0061690D01*
X0345103Y0061741D01*
X0344997Y0061795D01*
X0344894Y0061852D01*
X0344793Y0061913D01*
X0344693Y0061977D01*
X0344596Y0062045D01*
X0344502Y0062115D01*
X0344409Y0062189D01*
X0344320Y0062266D01*
X0344233Y0062346D01*
X0344148Y0062429D01*
X0344067Y0062515D01*
X0343988Y0062603D01*
X0343913Y0062694D01*
X0343840Y0062788D01*
X0343771Y0062884D01*
X0343705Y0062982D01*
X0343643Y0063082D01*
X0343584Y0063184D01*
X0343528Y0063289D01*
X0343476Y0063395D01*
X0343428Y0063503D01*
X0343383Y0063612D01*
X0343342Y0063723D01*
X0343305Y0063835D01*
X0343271Y0063949D01*
X0343241Y0064063D01*
X0343216Y0064178D01*
X0343194Y0064295D01*
X0343176Y0064412D01*
X0343162Y0064529D01*
X0343152Y0064647D01*
X0343146Y0064765D01*
X0343144Y0064883D01*
X0368691Y0020985D02*
X0368693Y0021178D01*
X0368700Y0021371D01*
X0368712Y0021564D01*
X0368729Y0021757D01*
X0368750Y0021949D01*
X0368776Y0022140D01*
X0368807Y0022331D01*
X0368842Y0022521D01*
X0368882Y0022710D01*
X0368927Y0022898D01*
X0368976Y0023085D01*
X0369030Y0023271D01*
X0369088Y0023455D01*
X0369151Y0023638D01*
X0369219Y0023819D01*
X0369290Y0023998D01*
X0369367Y0024176D01*
X0369447Y0024352D01*
X0369532Y0024525D01*
X0369621Y0024697D01*
X0369714Y0024866D01*
X0369811Y0025033D01*
X0369913Y0025198D01*
X0370018Y0025360D01*
X0370127Y0025519D01*
X0370241Y0025676D01*
X0370358Y0025829D01*
X0370478Y0025980D01*
X0370603Y0026128D01*
X0370731Y0026273D01*
X0370862Y0026414D01*
X0370997Y0026553D01*
X0371136Y0026688D01*
X0371277Y0026819D01*
X0371422Y0026947D01*
X0371570Y0027072D01*
X0371721Y0027192D01*
X0371874Y0027309D01*
X0372031Y0027423D01*
X0372190Y0027532D01*
X0372352Y0027637D01*
X0372517Y0027739D01*
X0372684Y0027836D01*
X0372853Y0027929D01*
X0373025Y0028018D01*
X0373198Y0028103D01*
X0373374Y0028183D01*
X0373552Y0028260D01*
X0373731Y0028331D01*
X0373912Y0028399D01*
X0374095Y0028462D01*
X0374279Y0028520D01*
X0374465Y0028574D01*
X0374652Y0028623D01*
X0374840Y0028668D01*
X0375029Y0028708D01*
X0375219Y0028743D01*
X0375410Y0028774D01*
X0375601Y0028800D01*
X0375793Y0028821D01*
X0375986Y0028838D01*
X0376179Y0028850D01*
X0376372Y0028857D01*
X0376565Y0028859D01*
X0376758Y0028857D01*
X0376951Y0028850D01*
X0377144Y0028838D01*
X0377337Y0028821D01*
X0377529Y0028800D01*
X0377720Y0028774D01*
X0377911Y0028743D01*
X0378101Y0028708D01*
X0378290Y0028668D01*
X0378478Y0028623D01*
X0378665Y0028574D01*
X0378851Y0028520D01*
X0379035Y0028462D01*
X0379218Y0028399D01*
X0379399Y0028331D01*
X0379578Y0028260D01*
X0379756Y0028183D01*
X0379932Y0028103D01*
X0380105Y0028018D01*
X0380277Y0027929D01*
X0380446Y0027836D01*
X0380613Y0027739D01*
X0380778Y0027637D01*
X0380940Y0027532D01*
X0381099Y0027423D01*
X0381256Y0027309D01*
X0381409Y0027192D01*
X0381560Y0027072D01*
X0381708Y0026947D01*
X0381853Y0026819D01*
X0381994Y0026688D01*
X0382133Y0026553D01*
X0382268Y0026414D01*
X0382399Y0026273D01*
X0382527Y0026128D01*
X0382652Y0025980D01*
X0382772Y0025829D01*
X0382889Y0025676D01*
X0383003Y0025519D01*
X0383112Y0025360D01*
X0383217Y0025198D01*
X0383319Y0025033D01*
X0383416Y0024866D01*
X0383509Y0024697D01*
X0383598Y0024525D01*
X0383683Y0024352D01*
X0383763Y0024176D01*
X0383840Y0023998D01*
X0383911Y0023819D01*
X0383979Y0023638D01*
X0384042Y0023455D01*
X0384100Y0023271D01*
X0384154Y0023085D01*
X0384203Y0022898D01*
X0384248Y0022710D01*
X0384288Y0022521D01*
X0384323Y0022331D01*
X0384354Y0022140D01*
X0384380Y0021949D01*
X0384401Y0021757D01*
X0384418Y0021564D01*
X0384430Y0021371D01*
X0384437Y0021178D01*
X0384439Y0020985D01*
X0384437Y0020792D01*
X0384430Y0020599D01*
X0384418Y0020406D01*
X0384401Y0020213D01*
X0384380Y0020021D01*
X0384354Y0019830D01*
X0384323Y0019639D01*
X0384288Y0019449D01*
X0384248Y0019260D01*
X0384203Y0019072D01*
X0384154Y0018885D01*
X0384100Y0018699D01*
X0384042Y0018515D01*
X0383979Y0018332D01*
X0383911Y0018151D01*
X0383840Y0017972D01*
X0383763Y0017794D01*
X0383683Y0017618D01*
X0383598Y0017445D01*
X0383509Y0017273D01*
X0383416Y0017104D01*
X0383319Y0016937D01*
X0383217Y0016772D01*
X0383112Y0016610D01*
X0383003Y0016451D01*
X0382889Y0016294D01*
X0382772Y0016141D01*
X0382652Y0015990D01*
X0382527Y0015842D01*
X0382399Y0015697D01*
X0382268Y0015556D01*
X0382133Y0015417D01*
X0381994Y0015282D01*
X0381853Y0015151D01*
X0381708Y0015023D01*
X0381560Y0014898D01*
X0381409Y0014778D01*
X0381256Y0014661D01*
X0381099Y0014547D01*
X0380940Y0014438D01*
X0380778Y0014333D01*
X0380613Y0014231D01*
X0380446Y0014134D01*
X0380277Y0014041D01*
X0380105Y0013952D01*
X0379932Y0013867D01*
X0379756Y0013787D01*
X0379578Y0013710D01*
X0379399Y0013639D01*
X0379218Y0013571D01*
X0379035Y0013508D01*
X0378851Y0013450D01*
X0378665Y0013396D01*
X0378478Y0013347D01*
X0378290Y0013302D01*
X0378101Y0013262D01*
X0377911Y0013227D01*
X0377720Y0013196D01*
X0377529Y0013170D01*
X0377337Y0013149D01*
X0377144Y0013132D01*
X0376951Y0013120D01*
X0376758Y0013113D01*
X0376565Y0013111D01*
X0376372Y0013113D01*
X0376179Y0013120D01*
X0375986Y0013132D01*
X0375793Y0013149D01*
X0375601Y0013170D01*
X0375410Y0013196D01*
X0375219Y0013227D01*
X0375029Y0013262D01*
X0374840Y0013302D01*
X0374652Y0013347D01*
X0374465Y0013396D01*
X0374279Y0013450D01*
X0374095Y0013508D01*
X0373912Y0013571D01*
X0373731Y0013639D01*
X0373552Y0013710D01*
X0373374Y0013787D01*
X0373198Y0013867D01*
X0373025Y0013952D01*
X0372853Y0014041D01*
X0372684Y0014134D01*
X0372517Y0014231D01*
X0372352Y0014333D01*
X0372190Y0014438D01*
X0372031Y0014547D01*
X0371874Y0014661D01*
X0371721Y0014778D01*
X0371570Y0014898D01*
X0371422Y0015023D01*
X0371277Y0015151D01*
X0371136Y0015282D01*
X0370997Y0015417D01*
X0370862Y0015556D01*
X0370731Y0015697D01*
X0370603Y0015842D01*
X0370478Y0015990D01*
X0370358Y0016141D01*
X0370241Y0016294D01*
X0370127Y0016451D01*
X0370018Y0016610D01*
X0369913Y0016772D01*
X0369811Y0016937D01*
X0369714Y0017104D01*
X0369621Y0017273D01*
X0369532Y0017445D01*
X0369447Y0017618D01*
X0369367Y0017794D01*
X0369290Y0017972D01*
X0369219Y0018151D01*
X0369151Y0018332D01*
X0369088Y0018515D01*
X0369030Y0018699D01*
X0368976Y0018885D01*
X0368927Y0019072D01*
X0368882Y0019260D01*
X0368842Y0019449D01*
X0368807Y0019639D01*
X0368776Y0019830D01*
X0368750Y0020021D01*
X0368729Y0020213D01*
X0368712Y0020406D01*
X0368700Y0020599D01*
X0368693Y0020792D01*
X0368691Y0020985D01*
M02*
