%
M48
M72
T01C0.0138
T02C0.0236
T03C0.0315
T04C0.0320
T05C0.0335
T06C0.0354
T07C0.0400
T08C0.0669
T09C0.0700
T10C0.0984
%
T01
X2940Y1760
X5340Y2360
X7140Y3020
X9180Y2780
X8760Y2360
X13680Y2660
X15780Y2900
X17580Y4100
X15780Y4460
X15060Y4700
X14280Y5060
X13740Y4400
X18060Y5240
X19620Y4940
X20160Y4760
X21180Y3740
X24060Y2720
X26280Y3200
X27720Y2780
X29160Y2660
X25380Y1760
X25800Y4700
X27000Y5540
X24180Y5600
X25380Y6500
X25560Y7040
X24240Y7640
X21000Y7400
X20820Y8360
X16020Y8540
X15540Y8780
X14700Y8900
X14460Y8420
X10020Y7760
X8820Y8960
X15780Y7220
X14280Y6080
X12060Y5780
X11100Y6020
X9600Y6080
X3120Y6440
X7140Y3920
X3840Y3320
X30720Y8600
X31740Y7580
X39720Y5600
T02
X22734Y8911
X18797Y8911
X19190Y4974
X20765Y4974
X22340Y4974
T03
X16359Y7883
X15571Y7883
T04
X32183Y5777
X32183Y4777
X32262Y3433
X32262Y2433
T05
X21513Y3001
X20017Y3001
T06
X10686Y8064
X8009Y8064
X5568Y8064
X2891Y8064
X30844Y8064
X33521Y8064
T07
X29913Y3494
X29913Y2354
T08
X5258Y5277
X2502Y5277
T09
X36033Y3437
X38788Y3437
X38788Y7237
X36033Y7237
T10
X30214Y5277
X11316Y5277
M30
