%
M48
M72
T01C0.0130
T02C0.0315
T03C0.0320
T04C0.0354
T05C0.0472
T06C0.0551
T07C0.0787
%
T01
X4616Y4194
X10166Y1697
X14606Y2946
X14536Y4819
X12039Y6067
X21126Y3362
X33960Y1836
X35555Y2946
T02
X21569Y2061
X20781Y2061
T03
X18565Y2349
X18596Y3801
X18600Y5070
X15600Y5070
X13849Y4785
X15596Y3801
X13911Y3059
X15565Y2349
X13911Y2059
X10849Y4785
X10849Y5785
X9772Y6417
X10849Y6785
X9756Y7721
X10849Y7785
X13849Y7785
X13849Y6785
X13849Y5785
X18848Y6802
X19863Y7531
X18848Y7802
X22863Y7531
X23731Y7295
X24731Y7295
X25731Y7295
X26489Y5075
X26481Y3739
X27628Y3732
X30628Y3732
X32288Y4187
X32288Y5187
X32720Y2304
X30720Y2304
X29641Y2298
X27641Y2298
X26454Y2313
X23454Y2313
X23481Y3739
X23489Y5075
X6772Y6417
X6756Y7721
X4870Y7764
X3870Y7764
T04
X2868Y4899
X5545Y4899
X34944Y4911
X37622Y4911
T05
X37885Y3811
X35130Y3811
X22151Y6385
X20191Y6385
X21171Y4421
X4811Y4880
X2055Y4880
T06
X27360Y7237
X29722Y7237
X34604Y7237
X36966Y7237
T07
X30490Y4893
X9624Y4893
M30
