G75*
%MOIN*%
%OFA0B0*%
%FSLAX25Y25*%
%IPPOS*%
%LPD*%
%AMOC8*
5,1,8,0,0,1.08239X$1,22.5*
%
%ADD10C,0.16248*%
%ADD11C,0.06100*%
%ADD12OC8,0.05900*%
%ADD13C,0.07900*%
%ADD14OC8,0.07100*%
%ADD15OC8,0.06700*%
%ADD16C,0.06700*%
%ADD17C,0.07500*%
%ADD18OC8,0.05300*%
%ADD19OC8,0.05224*%
%ADD20OC8,0.04656*%
%ADD21C,0.03200*%
D10*
X0022234Y0020985D03*
X0022234Y0241457D03*
X0376565Y0237520D03*
X0376565Y0020985D03*
D11*
X0014360Y0103662D03*
X0014360Y0111536D03*
D12*
X0020108Y0190276D03*
X0040108Y0190276D03*
D13*
X0010423Y0151606D03*
X0010423Y0140206D03*
X0238270Y0125158D03*
X0239270Y0115158D03*
X0239270Y0135158D03*
X0312577Y0055985D03*
X0311577Y0045985D03*
X0312577Y0035985D03*
D14*
X0266329Y0078977D03*
X0266329Y0088977D03*
X0267392Y0115473D03*
X0257392Y0115473D03*
X0212274Y0080040D03*
X0202274Y0080040D03*
X0191526Y0049607D03*
X0191526Y0039607D03*
X0108849Y0071103D03*
X0108849Y0081103D03*
X0061605Y0085158D03*
X0051605Y0085158D03*
X0061605Y0057481D03*
X0061605Y0047481D03*
X0054794Y0162717D03*
X0044794Y0162717D03*
X0108849Y0173465D03*
X0108849Y0183465D03*
X0163967Y0193150D03*
X0163967Y0203150D03*
X0163967Y0224646D03*
X0163967Y0234646D03*
X0316447Y0206024D03*
X0326447Y0206024D03*
X0360817Y0112599D03*
X0360817Y0102599D03*
X0313573Y0100788D03*
X0313573Y0090788D03*
D15*
X0204400Y0131221D03*
X0172904Y0080040D03*
X0140345Y0035670D03*
X0226959Y0212835D03*
X0282077Y0212835D03*
X0081290Y0216772D03*
D16*
X0081290Y0226772D03*
X0226959Y0222835D03*
X0282077Y0222835D03*
X0194400Y0131221D03*
X0162904Y0080040D03*
X0140345Y0045670D03*
D17*
X0346644Y0060946D03*
X0374203Y0060946D03*
X0374203Y0155434D03*
X0346644Y0155434D03*
D18*
X0054794Y0139095D03*
X0044794Y0139095D03*
D19*
X0236644Y0053233D03*
X0246644Y0053233D03*
X0246644Y0048233D03*
X0256644Y0053233D03*
X0256644Y0038233D03*
X0246644Y0038233D03*
X0236644Y0038233D03*
X0236644Y0028233D03*
X0236644Y0028233D03*
X0246644Y0028233D03*
X0246644Y0028233D03*
X0256644Y0028233D03*
X0256644Y0028233D03*
X0256644Y0018233D03*
X0246644Y0018233D03*
X0236644Y0018233D03*
D20*
X0103101Y0143032D03*
X0093101Y0143032D03*
X0083101Y0143032D03*
X0287825Y0174528D03*
X0297825Y0174528D03*
X0307825Y0174528D03*
D21*
X0288949Y0132500D03*
X0186549Y0151700D03*
X0156149Y0119700D03*
X0111349Y0114900D03*
M02*
