G75*
%MOIN*%
%OFA0B0*%
%FSLAX25Y25*%
%IPPOS*%
%LPD*%
%AMOC8*
5,1,8,0,0,1.08239X$1,22.5*
%
%ADD10R,0.04331X0.05512*%
%ADD11R,0.03150X0.03543*%
%ADD12R,0.03937X0.04331*%
%ADD13R,0.05787X0.05000*%
%ADD14R,0.03937X0.05512*%
%ADD15R,0.08661X0.06299*%
%ADD16R,0.01575X0.03937*%
%ADD17R,0.03075X0.05709*%
%ADD18R,0.03000X0.05709*%
%ADD19R,0.07087X0.05906*%
%ADD20R,0.05906X0.02756*%
%ADD21R,0.02165X0.04724*%
%ADD22R,0.16535X0.05512*%
%ADD23R,0.04331X0.03937*%
%ADD24R,0.06299X0.07087*%
%ADD25R,0.02717X0.04724*%
%ADD26R,0.02165X0.03150*%
%ADD27R,0.08661X0.02362*%
%ADD28R,0.08661X0.05512*%
%ADD29R,0.10236X0.05512*%
D10*
X0049479Y0022500D03*
X0057353Y0022500D03*
X0041628Y0039878D03*
X0033754Y0039878D03*
X0174916Y0065697D03*
X0182790Y0065697D03*
D11*
X0102908Y0031110D03*
X0106648Y0022843D03*
X0099168Y0022843D03*
D12*
X0034782Y0022524D03*
X0041475Y0022524D03*
X0065089Y0022472D03*
X0071782Y0022472D03*
X0082341Y0022610D03*
X0089034Y0022610D03*
X0088920Y0037280D03*
X0082227Y0037280D03*
X0068160Y0037413D03*
X0061467Y0037413D03*
X0061703Y0049461D03*
X0068396Y0049461D03*
X0040061Y0053307D03*
X0033369Y0053307D03*
X0062109Y0061878D03*
X0068802Y0061878D03*
X0066223Y0076421D03*
X0072916Y0076421D03*
X0167676Y0081232D03*
X0174369Y0081232D03*
X0193077Y0073004D03*
X0199770Y0073004D03*
X0209928Y0058980D03*
X0216620Y0058980D03*
X0264837Y0053220D03*
X0271530Y0053220D03*
X0282302Y0053386D03*
X0288994Y0053386D03*
X0338191Y0054685D03*
X0344884Y0054685D03*
X0347361Y0067209D03*
X0354054Y0067209D03*
X0299042Y0069378D03*
X0292349Y0069378D03*
X0347487Y0083169D03*
X0354180Y0083169D03*
X0181006Y0045161D03*
X0174313Y0045161D03*
X0264935Y0038201D03*
X0271628Y0038201D03*
X0285408Y0022453D03*
X0292101Y0022453D03*
X0319660Y0022453D03*
X0326353Y0022453D03*
D13*
X0243640Y0071882D03*
X0243640Y0088811D03*
D14*
X0022660Y0032846D03*
X0026400Y0024185D03*
X0018920Y0024185D03*
D15*
X0178266Y0019846D03*
X0178266Y0030870D03*
D16*
X0338105Y0026295D03*
X0340664Y0026295D03*
X0343223Y0026295D03*
X0345782Y0026295D03*
X0345782Y0043618D03*
X0343223Y0043618D03*
X0340664Y0043618D03*
X0338105Y0043618D03*
D17*
X0201534Y0032075D03*
D18*
X0213770Y0032075D03*
D19*
X0222156Y0021346D03*
X0193148Y0021346D03*
D20*
X0207652Y0021346D03*
D21*
X0240006Y0054019D03*
X0243746Y0054019D03*
X0247487Y0054019D03*
X0247487Y0064256D03*
X0240006Y0064256D03*
D22*
X0241400Y0033224D03*
X0241400Y0018657D03*
D23*
X0265132Y0022177D03*
X0271825Y0022177D03*
X0302573Y0022531D03*
X0309266Y0022531D03*
X0309424Y0038201D03*
X0302731Y0038201D03*
X0291668Y0038280D03*
X0284975Y0038280D03*
X0319306Y0038240D03*
X0325998Y0038240D03*
X0246825Y0044106D03*
X0240132Y0044106D03*
X0200880Y0059106D03*
X0194187Y0059106D03*
X0261865Y0084185D03*
X0268557Y0084185D03*
X0277534Y0084264D03*
X0284227Y0084264D03*
X0292258Y0084421D03*
X0298951Y0084421D03*
D24*
X0222101Y0073240D03*
X0211077Y0073240D03*
D25*
X0263754Y0074815D03*
X0271235Y0074815D03*
X0271235Y0064578D03*
X0267494Y0064578D03*
X0263754Y0064578D03*
D26*
X0311392Y0064185D03*
X0315132Y0064185D03*
X0318872Y0064185D03*
X0318872Y0073634D03*
X0315132Y0073634D03*
X0311392Y0073634D03*
D27*
X0103321Y0066567D03*
X0103321Y0061567D03*
X0103321Y0056567D03*
X0103321Y0051567D03*
X0082849Y0051567D03*
X0082849Y0056567D03*
X0082849Y0061567D03*
X0082849Y0066567D03*
D28*
X0114739Y0077177D03*
X0127337Y0077177D03*
D29*
X0139739Y0076783D03*
X0155880Y0076783D03*
M02*
