G75*
%MOIN*%
%OFA0B0*%
%FSLAX26Y26*%
%IPPOS*%
%LPD*%
%AMOC8*
5,1,8,0,0,1.08239X$1,22.5*
%
%ADD10C,0.064055*%
%ADD11OC8,0.068000*%
%ADD12C,0.068000*%
%ADD13OC8,0.053000*%
%ADD14C,0.055000*%
%ADD15C,0.079000*%
%ADD16C,0.053000*%
%ADD17C,0.075000*%
%ADD18C,0.035000*%
%ADD19C,0.065000*%
%ADD20R,0.130000X0.065000*%
%ADD21C,0.052244*%
%ADD22C,0.071000*%
%ADD23C,0.032000*%
%ADD24C,0.061000*%
D10*
X00078740Y00590551D03*
X00905512Y00590551D03*
X01338583Y01062992D03*
D11*
X01294291Y00863780D03*
X00928346Y00314173D03*
D12*
X01028346Y00314173D03*
X01394291Y00863780D03*
D13*
X01112008Y00745276D03*
X01012008Y00745276D03*
X00860433Y00832677D03*
X00760433Y00832677D03*
X00644094Y00832677D03*
X00544094Y00832677D03*
X00422638Y00832677D03*
X00322638Y00832677D03*
X00198228Y00832677D03*
X00098228Y00832677D03*
X00100197Y01050000D03*
X00200197Y01050000D03*
X00321457Y01053346D03*
X00421457Y01053346D03*
X00547244Y01054724D03*
X00647244Y01054724D03*
X00761614Y01059055D03*
X00861614Y01059055D03*
X01010630Y01021654D03*
X01110630Y01021654D03*
X00649213Y00643701D03*
X00549213Y00643701D03*
X01298228Y00609252D03*
X01398228Y00609252D03*
D14*
X01588189Y00631102D03*
X01588189Y00531102D03*
X01588189Y00431102D03*
X01588189Y00331102D03*
X01888189Y00331102D03*
X01888189Y00431102D03*
X01888189Y00531102D03*
X01888189Y00631102D03*
D15*
X01031606Y00059646D03*
X00917606Y00059646D03*
D16*
X00398425Y00529346D02*
X00398425Y00577346D01*
X00298425Y00577346D02*
X00298425Y00529346D01*
X00198425Y00529346D02*
X00198425Y00577346D01*
D17*
X01575787Y00861516D03*
X01675787Y00861516D03*
X01775787Y00861516D03*
X01775787Y00961516D03*
X01675787Y00961516D03*
X01575787Y00961516D03*
D18*
X02209189Y01295472D02*
X02209194Y01295860D01*
X02209208Y01296248D01*
X02209232Y01296635D01*
X02209265Y01297022D01*
X02209308Y01297407D01*
X02209360Y01297792D01*
X02209422Y01298175D01*
X02209493Y01298557D01*
X02209573Y01298936D01*
X02209663Y01299314D01*
X02209762Y01299689D01*
X02209870Y01300062D01*
X02209987Y01300432D01*
X02210113Y01300799D01*
X02210248Y01301162D01*
X02210393Y01301523D01*
X02210545Y01301879D01*
X02210707Y01302232D01*
X02210877Y01302581D01*
X02211056Y01302925D01*
X02211243Y01303265D01*
X02211438Y01303600D01*
X02211642Y01303931D01*
X02211854Y01304256D01*
X02212073Y01304576D01*
X02212300Y01304891D01*
X02212535Y01305199D01*
X02212778Y01305502D01*
X02213028Y01305799D01*
X02213285Y01306090D01*
X02213549Y01306374D01*
X02213820Y01306652D01*
X02214098Y01306923D01*
X02214382Y01307187D01*
X02214673Y01307444D01*
X02214970Y01307694D01*
X02215273Y01307937D01*
X02215581Y01308172D01*
X02215896Y01308399D01*
X02216216Y01308618D01*
X02216541Y01308830D01*
X02216872Y01309034D01*
X02217207Y01309229D01*
X02217547Y01309416D01*
X02217891Y01309595D01*
X02218240Y01309765D01*
X02218593Y01309927D01*
X02218949Y01310079D01*
X02219310Y01310224D01*
X02219673Y01310359D01*
X02220040Y01310485D01*
X02220410Y01310602D01*
X02220783Y01310710D01*
X02221158Y01310809D01*
X02221536Y01310899D01*
X02221915Y01310979D01*
X02222297Y01311050D01*
X02222680Y01311112D01*
X02223065Y01311164D01*
X02223450Y01311207D01*
X02223837Y01311240D01*
X02224224Y01311264D01*
X02224612Y01311278D01*
X02225000Y01311283D01*
X02225388Y01311278D01*
X02225776Y01311264D01*
X02226163Y01311240D01*
X02226550Y01311207D01*
X02226935Y01311164D01*
X02227320Y01311112D01*
X02227703Y01311050D01*
X02228085Y01310979D01*
X02228464Y01310899D01*
X02228842Y01310809D01*
X02229217Y01310710D01*
X02229590Y01310602D01*
X02229960Y01310485D01*
X02230327Y01310359D01*
X02230690Y01310224D01*
X02231051Y01310079D01*
X02231407Y01309927D01*
X02231760Y01309765D01*
X02232109Y01309595D01*
X02232453Y01309416D01*
X02232793Y01309229D01*
X02233128Y01309034D01*
X02233459Y01308830D01*
X02233784Y01308618D01*
X02234104Y01308399D01*
X02234419Y01308172D01*
X02234727Y01307937D01*
X02235030Y01307694D01*
X02235327Y01307444D01*
X02235618Y01307187D01*
X02235902Y01306923D01*
X02236180Y01306652D01*
X02236451Y01306374D01*
X02236715Y01306090D01*
X02236972Y01305799D01*
X02237222Y01305502D01*
X02237465Y01305199D01*
X02237700Y01304891D01*
X02237927Y01304576D01*
X02238146Y01304256D01*
X02238358Y01303931D01*
X02238562Y01303600D01*
X02238757Y01303265D01*
X02238944Y01302925D01*
X02239123Y01302581D01*
X02239293Y01302232D01*
X02239455Y01301879D01*
X02239607Y01301523D01*
X02239752Y01301162D01*
X02239887Y01300799D01*
X02240013Y01300432D01*
X02240130Y01300062D01*
X02240238Y01299689D01*
X02240337Y01299314D01*
X02240427Y01298936D01*
X02240507Y01298557D01*
X02240578Y01298175D01*
X02240640Y01297792D01*
X02240692Y01297407D01*
X02240735Y01297022D01*
X02240768Y01296635D01*
X02240792Y01296248D01*
X02240806Y01295860D01*
X02240811Y01295472D01*
X02240806Y01295084D01*
X02240792Y01294696D01*
X02240768Y01294309D01*
X02240735Y01293922D01*
X02240692Y01293537D01*
X02240640Y01293152D01*
X02240578Y01292769D01*
X02240507Y01292387D01*
X02240427Y01292008D01*
X02240337Y01291630D01*
X02240238Y01291255D01*
X02240130Y01290882D01*
X02240013Y01290512D01*
X02239887Y01290145D01*
X02239752Y01289782D01*
X02239607Y01289421D01*
X02239455Y01289065D01*
X02239293Y01288712D01*
X02239123Y01288363D01*
X02238944Y01288019D01*
X02238757Y01287679D01*
X02238562Y01287344D01*
X02238358Y01287013D01*
X02238146Y01286688D01*
X02237927Y01286368D01*
X02237700Y01286053D01*
X02237465Y01285745D01*
X02237222Y01285442D01*
X02236972Y01285145D01*
X02236715Y01284854D01*
X02236451Y01284570D01*
X02236180Y01284292D01*
X02235902Y01284021D01*
X02235618Y01283757D01*
X02235327Y01283500D01*
X02235030Y01283250D01*
X02234727Y01283007D01*
X02234419Y01282772D01*
X02234104Y01282545D01*
X02233784Y01282326D01*
X02233459Y01282114D01*
X02233128Y01281910D01*
X02232793Y01281715D01*
X02232453Y01281528D01*
X02232109Y01281349D01*
X02231760Y01281179D01*
X02231407Y01281017D01*
X02231051Y01280865D01*
X02230690Y01280720D01*
X02230327Y01280585D01*
X02229960Y01280459D01*
X02229590Y01280342D01*
X02229217Y01280234D01*
X02228842Y01280135D01*
X02228464Y01280045D01*
X02228085Y01279965D01*
X02227703Y01279894D01*
X02227320Y01279832D01*
X02226935Y01279780D01*
X02226550Y01279737D01*
X02226163Y01279704D01*
X02225776Y01279680D01*
X02225388Y01279666D01*
X02225000Y01279661D01*
X02224612Y01279666D01*
X02224224Y01279680D01*
X02223837Y01279704D01*
X02223450Y01279737D01*
X02223065Y01279780D01*
X02222680Y01279832D01*
X02222297Y01279894D01*
X02221915Y01279965D01*
X02221536Y01280045D01*
X02221158Y01280135D01*
X02220783Y01280234D01*
X02220410Y01280342D01*
X02220040Y01280459D01*
X02219673Y01280585D01*
X02219310Y01280720D01*
X02218949Y01280865D01*
X02218593Y01281017D01*
X02218240Y01281179D01*
X02217891Y01281349D01*
X02217547Y01281528D01*
X02217207Y01281715D01*
X02216872Y01281910D01*
X02216541Y01282114D01*
X02216216Y01282326D01*
X02215896Y01282545D01*
X02215581Y01282772D01*
X02215273Y01283007D01*
X02214970Y01283250D01*
X02214673Y01283500D01*
X02214382Y01283757D01*
X02214098Y01284021D01*
X02213820Y01284292D01*
X02213549Y01284570D01*
X02213285Y01284854D01*
X02213028Y01285145D01*
X02212778Y01285442D01*
X02212535Y01285745D01*
X02212300Y01286053D01*
X02212073Y01286368D01*
X02211854Y01286688D01*
X02211642Y01287013D01*
X02211438Y01287344D01*
X02211243Y01287679D01*
X02211056Y01288019D01*
X02210877Y01288363D01*
X02210707Y01288712D01*
X02210545Y01289065D01*
X02210393Y01289421D01*
X02210248Y01289782D01*
X02210113Y01290145D01*
X02209987Y01290512D01*
X02209870Y01290882D01*
X02209762Y01291255D01*
X02209663Y01291630D01*
X02209573Y01292008D01*
X02209493Y01292387D01*
X02209422Y01292769D01*
X02209360Y01293152D01*
X02209308Y01293537D01*
X02209265Y01293922D01*
X02209232Y01294309D01*
X02209208Y01294696D01*
X02209194Y01295084D01*
X02209189Y01295472D01*
X02213126Y00097047D02*
X02213131Y00097435D01*
X02213145Y00097823D01*
X02213169Y00098210D01*
X02213202Y00098597D01*
X02213245Y00098982D01*
X02213297Y00099367D01*
X02213359Y00099750D01*
X02213430Y00100132D01*
X02213510Y00100511D01*
X02213600Y00100889D01*
X02213699Y00101264D01*
X02213807Y00101637D01*
X02213924Y00102007D01*
X02214050Y00102374D01*
X02214185Y00102737D01*
X02214330Y00103098D01*
X02214482Y00103454D01*
X02214644Y00103807D01*
X02214814Y00104156D01*
X02214993Y00104500D01*
X02215180Y00104840D01*
X02215375Y00105175D01*
X02215579Y00105506D01*
X02215791Y00105831D01*
X02216010Y00106151D01*
X02216237Y00106466D01*
X02216472Y00106774D01*
X02216715Y00107077D01*
X02216965Y00107374D01*
X02217222Y00107665D01*
X02217486Y00107949D01*
X02217757Y00108227D01*
X02218035Y00108498D01*
X02218319Y00108762D01*
X02218610Y00109019D01*
X02218907Y00109269D01*
X02219210Y00109512D01*
X02219518Y00109747D01*
X02219833Y00109974D01*
X02220153Y00110193D01*
X02220478Y00110405D01*
X02220809Y00110609D01*
X02221144Y00110804D01*
X02221484Y00110991D01*
X02221828Y00111170D01*
X02222177Y00111340D01*
X02222530Y00111502D01*
X02222886Y00111654D01*
X02223247Y00111799D01*
X02223610Y00111934D01*
X02223977Y00112060D01*
X02224347Y00112177D01*
X02224720Y00112285D01*
X02225095Y00112384D01*
X02225473Y00112474D01*
X02225852Y00112554D01*
X02226234Y00112625D01*
X02226617Y00112687D01*
X02227002Y00112739D01*
X02227387Y00112782D01*
X02227774Y00112815D01*
X02228161Y00112839D01*
X02228549Y00112853D01*
X02228937Y00112858D01*
X02229325Y00112853D01*
X02229713Y00112839D01*
X02230100Y00112815D01*
X02230487Y00112782D01*
X02230872Y00112739D01*
X02231257Y00112687D01*
X02231640Y00112625D01*
X02232022Y00112554D01*
X02232401Y00112474D01*
X02232779Y00112384D01*
X02233154Y00112285D01*
X02233527Y00112177D01*
X02233897Y00112060D01*
X02234264Y00111934D01*
X02234627Y00111799D01*
X02234988Y00111654D01*
X02235344Y00111502D01*
X02235697Y00111340D01*
X02236046Y00111170D01*
X02236390Y00110991D01*
X02236730Y00110804D01*
X02237065Y00110609D01*
X02237396Y00110405D01*
X02237721Y00110193D01*
X02238041Y00109974D01*
X02238356Y00109747D01*
X02238664Y00109512D01*
X02238967Y00109269D01*
X02239264Y00109019D01*
X02239555Y00108762D01*
X02239839Y00108498D01*
X02240117Y00108227D01*
X02240388Y00107949D01*
X02240652Y00107665D01*
X02240909Y00107374D01*
X02241159Y00107077D01*
X02241402Y00106774D01*
X02241637Y00106466D01*
X02241864Y00106151D01*
X02242083Y00105831D01*
X02242295Y00105506D01*
X02242499Y00105175D01*
X02242694Y00104840D01*
X02242881Y00104500D01*
X02243060Y00104156D01*
X02243230Y00103807D01*
X02243392Y00103454D01*
X02243544Y00103098D01*
X02243689Y00102737D01*
X02243824Y00102374D01*
X02243950Y00102007D01*
X02244067Y00101637D01*
X02244175Y00101264D01*
X02244274Y00100889D01*
X02244364Y00100511D01*
X02244444Y00100132D01*
X02244515Y00099750D01*
X02244577Y00099367D01*
X02244629Y00098982D01*
X02244672Y00098597D01*
X02244705Y00098210D01*
X02244729Y00097823D01*
X02244743Y00097435D01*
X02244748Y00097047D01*
X02244743Y00096659D01*
X02244729Y00096271D01*
X02244705Y00095884D01*
X02244672Y00095497D01*
X02244629Y00095112D01*
X02244577Y00094727D01*
X02244515Y00094344D01*
X02244444Y00093962D01*
X02244364Y00093583D01*
X02244274Y00093205D01*
X02244175Y00092830D01*
X02244067Y00092457D01*
X02243950Y00092087D01*
X02243824Y00091720D01*
X02243689Y00091357D01*
X02243544Y00090996D01*
X02243392Y00090640D01*
X02243230Y00090287D01*
X02243060Y00089938D01*
X02242881Y00089594D01*
X02242694Y00089254D01*
X02242499Y00088919D01*
X02242295Y00088588D01*
X02242083Y00088263D01*
X02241864Y00087943D01*
X02241637Y00087628D01*
X02241402Y00087320D01*
X02241159Y00087017D01*
X02240909Y00086720D01*
X02240652Y00086429D01*
X02240388Y00086145D01*
X02240117Y00085867D01*
X02239839Y00085596D01*
X02239555Y00085332D01*
X02239264Y00085075D01*
X02238967Y00084825D01*
X02238664Y00084582D01*
X02238356Y00084347D01*
X02238041Y00084120D01*
X02237721Y00083901D01*
X02237396Y00083689D01*
X02237065Y00083485D01*
X02236730Y00083290D01*
X02236390Y00083103D01*
X02236046Y00082924D01*
X02235697Y00082754D01*
X02235344Y00082592D01*
X02234988Y00082440D01*
X02234627Y00082295D01*
X02234264Y00082160D01*
X02233897Y00082034D01*
X02233527Y00081917D01*
X02233154Y00081809D01*
X02232779Y00081710D01*
X02232401Y00081620D01*
X02232022Y00081540D01*
X02231640Y00081469D01*
X02231257Y00081407D01*
X02230872Y00081355D01*
X02230487Y00081312D01*
X02230100Y00081279D01*
X02229713Y00081255D01*
X02229325Y00081241D01*
X02228937Y00081236D01*
X02228549Y00081241D01*
X02228161Y00081255D01*
X02227774Y00081279D01*
X02227387Y00081312D01*
X02227002Y00081355D01*
X02226617Y00081407D01*
X02226234Y00081469D01*
X02225852Y00081540D01*
X02225473Y00081620D01*
X02225095Y00081710D01*
X02224720Y00081809D01*
X02224347Y00081917D01*
X02223977Y00082034D01*
X02223610Y00082160D01*
X02223247Y00082295D01*
X02222886Y00082440D01*
X02222530Y00082592D01*
X02222177Y00082754D01*
X02221828Y00082924D01*
X02221484Y00083103D01*
X02221144Y00083290D01*
X02220809Y00083485D01*
X02220478Y00083689D01*
X02220153Y00083901D01*
X02219833Y00084120D01*
X02219518Y00084347D01*
X02219210Y00084582D01*
X02218907Y00084825D01*
X02218610Y00085075D01*
X02218319Y00085332D01*
X02218035Y00085596D01*
X02217757Y00085867D01*
X02217486Y00086145D01*
X02217222Y00086429D01*
X02216965Y00086720D01*
X02216715Y00087017D01*
X02216472Y00087320D01*
X02216237Y00087628D01*
X02216010Y00087943D01*
X02215791Y00088263D01*
X02215579Y00088588D01*
X02215375Y00088919D01*
X02215180Y00089254D01*
X02214993Y00089594D01*
X02214814Y00089938D01*
X02214644Y00090287D01*
X02214482Y00090640D01*
X02214330Y00090996D01*
X02214185Y00091357D01*
X02214050Y00091720D01*
X02213924Y00092087D01*
X02213807Y00092457D01*
X02213699Y00092830D01*
X02213600Y00093205D01*
X02213510Y00093583D01*
X02213430Y00093962D01*
X02213359Y00094344D01*
X02213297Y00094727D01*
X02213245Y00095112D01*
X02213202Y00095497D01*
X02213169Y00095884D01*
X02213145Y00096271D01*
X02213131Y00096659D01*
X02213126Y00097047D01*
D19*
X02225000Y00696260D03*
D20*
X01461398Y00442000D03*
X01176398Y00401575D03*
X01176398Y00244094D03*
X01176398Y00125984D03*
X00821634Y00442000D03*
X00536634Y00401575D03*
X00536634Y00244094D03*
X00536634Y00125984D03*
D21*
X00679134Y00062992D03*
X00679134Y00338583D03*
X01318898Y00338583D03*
X01318898Y00062992D03*
D22*
X00097047Y00086811D03*
X00175787Y00086811D03*
X00254528Y00086811D03*
X00333268Y00086811D03*
X00412008Y00086811D03*
X01561417Y00086811D03*
X01640157Y00086811D03*
X01718898Y00086811D03*
X01797638Y00086811D03*
X01876378Y00086811D03*
D23*
X01358268Y00452756D03*
D24*
X01576181Y00910630D03*
X01675787Y00911614D03*
X01776181Y00911614D03*
M02*
