G75*
%MOIN*%
%OFA0B0*%
%FSLAX25Y25*%
%IPPOS*%
%LPD*%
%AMOC8*
5,1,8,0,0,1.08239X$1,22.5*
%
%ADD10C,0.10643*%
%ADD11R,0.05918X0.06706*%
%ADD12R,0.05131X0.06312*%
%ADD13R,0.09461X0.03162*%
%ADD14OC8,0.06000*%
%ADD15C,0.06400*%
%ADD16R,0.03950X0.04343*%
%ADD17R,0.04737X0.05131*%
%ADD18C,0.04343*%
%ADD19R,0.05131X0.04737*%
%ADD20R,0.06587X0.05800*%
%ADD21R,0.04737X0.06312*%
%ADD22R,0.10839X0.11430*%
%ADD23R,0.01772X0.04331*%
%ADD24C,0.08200*%
%ADD25R,0.02375X0.06509*%
%ADD26C,0.04146*%
%ADD27R,0.07874X0.06693*%
%ADD28R,0.10630X0.06693*%
%ADD29R,0.05524X0.02965*%
%ADD30R,0.01981X0.03556*%
%ADD31R,0.01378X0.01969*%
%ADD32R,0.02965X0.05524*%
%ADD33C,0.07493*%
%ADD34C,0.07800*%
%ADD35R,0.07099X0.07887*%
%ADD36R,0.06737X0.06737*%
%ADD37R,0.09068X0.09068*%
D10*
X0113164Y0052768D03*
X0302140Y0052768D03*
D11*
X0165349Y0039118D03*
X0158656Y0039118D03*
D12*
X0099872Y0022500D03*
X0091998Y0022500D03*
X0043203Y0049720D03*
X0035329Y0049720D03*
X0035546Y0066091D03*
X0043420Y0066091D03*
D13*
X0129223Y0065370D03*
X0129223Y0060370D03*
X0129223Y0055370D03*
X0129223Y0050370D03*
X0149695Y0050370D03*
X0149695Y0055370D03*
X0149695Y0060370D03*
X0149695Y0065370D03*
D14*
X0321825Y0057768D03*
X0321825Y0047768D03*
X0322620Y0034335D03*
X0322620Y0024335D03*
D15*
X0168707Y0079228D03*
X0160833Y0079228D03*
D16*
X0179680Y0042528D03*
X0183420Y0034260D03*
X0175939Y0034260D03*
D17*
X0150298Y0039134D03*
X0143605Y0039134D03*
X0136912Y0039043D03*
X0130219Y0039043D03*
X0098668Y0046555D03*
X0091975Y0046555D03*
X0067636Y0047209D03*
X0067636Y0053902D03*
X0070554Y0072878D03*
X0077246Y0072878D03*
X0091680Y0085496D03*
X0098372Y0085496D03*
X0192790Y0062276D03*
X0199483Y0062276D03*
X0212290Y0056618D03*
X0218983Y0056618D03*
X0182620Y0056965D03*
X0175928Y0056965D03*
X0168494Y0056980D03*
X0161802Y0056980D03*
X0211975Y0068673D03*
X0218668Y0068673D03*
X0275215Y0051417D03*
X0281908Y0051417D03*
X0338235Y0037146D03*
X0344928Y0037146D03*
X0308309Y0070150D03*
X0301617Y0070150D03*
X0290774Y0070165D03*
X0284081Y0070165D03*
X0175648Y0022217D03*
X0168955Y0022217D03*
X0157924Y0022059D03*
X0151231Y0022059D03*
X0139262Y0022295D03*
X0132569Y0022295D03*
X0120601Y0022472D03*
X0113908Y0022472D03*
X0078463Y0022327D03*
X0071770Y0022327D03*
D18*
X0080093Y0080642D03*
X0055683Y0080642D03*
X0028912Y0080642D03*
X0106865Y0080642D03*
X0308439Y0080642D03*
X0335211Y0080642D03*
D19*
X0060731Y0020843D03*
X0060731Y0027535D03*
X0029227Y0024461D03*
X0022534Y0024461D03*
X0116746Y0039067D03*
X0123439Y0039067D03*
X0118518Y0067768D03*
X0111825Y0067768D03*
X0237266Y0029484D03*
X0243959Y0029484D03*
X0260959Y0037098D03*
X0267652Y0037098D03*
X0275172Y0037020D03*
X0281865Y0037020D03*
X0267494Y0051311D03*
X0260802Y0051311D03*
X0261865Y0084185D03*
X0268557Y0084185D03*
X0275172Y0084264D03*
X0281865Y0084264D03*
X0288715Y0084421D03*
X0295408Y0084421D03*
D20*
X0243246Y0087236D03*
X0243246Y0070307D03*
D21*
X0049235Y0023004D03*
X0041754Y0023004D03*
X0045494Y0031665D03*
D22*
X0119475Y0081933D03*
X0144475Y0081933D03*
D23*
X0098144Y0073933D03*
X0095585Y0073933D03*
X0093026Y0073933D03*
X0090467Y0073933D03*
X0090467Y0056610D03*
X0093026Y0056610D03*
X0095585Y0056610D03*
X0098144Y0056610D03*
D24*
X0299128Y0034944D03*
X0299128Y0023544D03*
D25*
X0212770Y0032075D03*
X0210211Y0032075D03*
X0207652Y0032075D03*
X0205093Y0032075D03*
X0202534Y0032075D03*
D26*
X0200172Y0030008D03*
X0215132Y0030008D03*
D27*
X0222156Y0021346D03*
X0193148Y0021346D03*
D28*
X0207652Y0021346D03*
D29*
X0260175Y0066220D03*
X0260175Y0069961D03*
X0270412Y0069961D03*
X0270412Y0066220D03*
X0270412Y0073701D03*
X0260175Y0073701D03*
D30*
X0277546Y0024181D03*
X0279514Y0024181D03*
X0281483Y0024181D03*
X0281483Y0019850D03*
X0279514Y0019850D03*
X0277546Y0019850D03*
D31*
X0264955Y0019358D03*
X0262987Y0019358D03*
X0261018Y0019358D03*
X0261018Y0024673D03*
X0262987Y0024673D03*
X0264955Y0024673D03*
D32*
X0245518Y0050476D03*
X0241778Y0050476D03*
X0238038Y0050476D03*
X0238038Y0060713D03*
X0245518Y0060713D03*
D33*
X0052581Y0052768D03*
X0025022Y0052768D03*
D34*
X0360325Y0034370D03*
X0387884Y0034370D03*
X0387884Y0072370D03*
X0360325Y0072370D03*
D35*
X0200290Y0074815D03*
X0189266Y0074815D03*
D36*
X0191904Y0046075D03*
X0207652Y0046075D03*
X0223400Y0046075D03*
D37*
X0227337Y0085445D03*
X0187967Y0085445D03*
M02*
