%
M48
M72
T01C0.01300
T02C0.01969
T03C0.03150
T04C0.03200
T05C0.03543
T06C0.03937
T07C0.04000
T08C0.04724
T09C0.05906
T10C0.06000
T11C0.06700
%
T01
X149386Y58776
T02
X171177Y104563
X181138Y104661
X191177Y104661
T03
X193323Y22181
X185449Y22181
X177575Y22181
X46886Y22181
X39012Y22181
X31138Y22181
T04
X33402Y68835
X43402Y68835
X53402Y68835
X68480Y77870
X78480Y77870
X77969Y96768
X67969Y96768
X55823Y96768
X45823Y96768
X33382Y96768
X23382Y96768
X23579Y118500
X33579Y118500
X45705Y118835
X55705Y118835
X68283Y118972
X78283Y118972
X89720Y119406
X99720Y119406
X114622Y115665
X124622Y115665
X142988Y99878
X152988Y99878
X124760Y88028
X114760Y88028
X99602Y96768
X89602Y96768
X143382Y74425
X153382Y74425
X172378Y76610
X172378Y66610
X172378Y56610
X172378Y46610
X202378Y46610
X202378Y56610
X202378Y66610
X202378Y76610
X116394Y44917
X106394Y44917
T05
X171138Y99652
X181138Y99652
X191138Y99652
X191138Y109652
X181138Y109652
X171138Y109652
T06
X23264Y22181
X54760Y22181
X169701Y22181
X201197Y22181
T07
X116720Y19465
X105320Y19465
T08
X81472Y19799
X81472Y47358
X145449Y47358
X145449Y19799
T09
X104110Y72555
X147417Y119799
X21433Y72555
T10
X236059Y83126
T11
X236453Y23205
X236059Y143047
M30
