G75*
%MOIN*%
%OFA0B0*%
%FSLAX25Y25*%
%IPPOS*%
%LPD*%
%AMOC8*
5,1,8,0,0,1.08239X$1,22.5*
%
%ADD10C,0.06406*%
%ADD11OC8,0.06800*%
%ADD12C,0.06800*%
%ADD13OC8,0.05300*%
%ADD14C,0.07900*%
%ADD15C,0.05300*%
%ADD16OC8,0.07100*%
%ADD17C,0.03500*%
%ADD18C,0.06500*%
%ADD19R,0.06500X0.13000*%
%ADD20C,0.05224*%
%ADD21C,0.07100*%
%ADD22C,0.05500*%
%ADD23C,0.07587*%
%ADD24C,0.03200*%
D10*
X0123795Y0027043D03*
X0133835Y0026079D03*
X0143736Y0026472D03*
X0183992Y0021394D03*
X0250803Y0072634D03*
D11*
X0138559Y0052161D03*
X0069858Y0033835D03*
D12*
X0069858Y0023835D03*
X0128559Y0052161D03*
D13*
X0048205Y0034169D03*
X0048205Y0024169D03*
X0287457Y0020016D03*
X0287457Y0030016D03*
X0287693Y0039366D03*
X0287693Y0049366D03*
D14*
X0020843Y0022583D03*
X0020843Y0033983D03*
D15*
X0302102Y0065864D02*
X0302102Y0070664D01*
X0312102Y0070664D02*
X0312102Y0065864D01*
X0322102Y0065864D02*
X0322102Y0070664D01*
D16*
X0335587Y0070980D03*
X0335587Y0060980D03*
X0334957Y0043480D03*
X0324957Y0043480D03*
X0312063Y0043992D03*
X0302063Y0043992D03*
X0287870Y0061610D03*
X0287870Y0071610D03*
X0138382Y0074740D03*
X0128382Y0074740D03*
X0108106Y0033500D03*
X0097102Y0033480D03*
X0086748Y0033382D03*
X0086748Y0023382D03*
X0097102Y0023480D03*
X0108106Y0023500D03*
X0034957Y0023382D03*
X0034957Y0033382D03*
D17*
X0153789Y0046512D02*
X0153791Y0046591D01*
X0153797Y0046671D01*
X0153807Y0046750D01*
X0153821Y0046828D01*
X0153839Y0046905D01*
X0153860Y0046982D01*
X0153886Y0047057D01*
X0153915Y0047131D01*
X0153948Y0047203D01*
X0153985Y0047274D01*
X0154025Y0047342D01*
X0154068Y0047409D01*
X0154115Y0047473D01*
X0154165Y0047535D01*
X0154218Y0047594D01*
X0154273Y0047651D01*
X0154332Y0047704D01*
X0154393Y0047755D01*
X0154457Y0047803D01*
X0154523Y0047847D01*
X0154591Y0047888D01*
X0154661Y0047925D01*
X0154733Y0047959D01*
X0154807Y0047989D01*
X0154881Y0048016D01*
X0154958Y0048038D01*
X0155035Y0048057D01*
X0155113Y0048072D01*
X0155192Y0048083D01*
X0155271Y0048090D01*
X0155350Y0048093D01*
X0155430Y0048092D01*
X0155509Y0048087D01*
X0155588Y0048078D01*
X0155666Y0048065D01*
X0155744Y0048048D01*
X0155821Y0048027D01*
X0155896Y0048003D01*
X0155970Y0047975D01*
X0156043Y0047943D01*
X0156114Y0047907D01*
X0156183Y0047868D01*
X0156250Y0047825D01*
X0156315Y0047779D01*
X0156378Y0047730D01*
X0156438Y0047678D01*
X0156495Y0047623D01*
X0156549Y0047565D01*
X0156601Y0047504D01*
X0156649Y0047441D01*
X0156694Y0047376D01*
X0156736Y0047308D01*
X0156774Y0047239D01*
X0156809Y0047167D01*
X0156840Y0047094D01*
X0156867Y0047019D01*
X0156891Y0046944D01*
X0156911Y0046867D01*
X0156927Y0046789D01*
X0156939Y0046710D01*
X0156947Y0046631D01*
X0156951Y0046552D01*
X0156951Y0046472D01*
X0156947Y0046393D01*
X0156939Y0046314D01*
X0156927Y0046235D01*
X0156911Y0046157D01*
X0156891Y0046080D01*
X0156867Y0046005D01*
X0156840Y0045930D01*
X0156809Y0045857D01*
X0156774Y0045785D01*
X0156736Y0045716D01*
X0156694Y0045648D01*
X0156649Y0045583D01*
X0156601Y0045520D01*
X0156549Y0045459D01*
X0156495Y0045401D01*
X0156438Y0045346D01*
X0156378Y0045294D01*
X0156315Y0045245D01*
X0156250Y0045199D01*
X0156183Y0045156D01*
X0156114Y0045117D01*
X0156043Y0045081D01*
X0155970Y0045049D01*
X0155896Y0045021D01*
X0155821Y0044997D01*
X0155744Y0044976D01*
X0155666Y0044959D01*
X0155588Y0044946D01*
X0155509Y0044937D01*
X0155430Y0044932D01*
X0155350Y0044931D01*
X0155271Y0044934D01*
X0155192Y0044941D01*
X0155113Y0044952D01*
X0155035Y0044967D01*
X0154958Y0044986D01*
X0154881Y0045008D01*
X0154807Y0045035D01*
X0154733Y0045065D01*
X0154661Y0045099D01*
X0154591Y0045136D01*
X0154523Y0045177D01*
X0154457Y0045221D01*
X0154393Y0045269D01*
X0154332Y0045320D01*
X0154273Y0045373D01*
X0154218Y0045430D01*
X0154165Y0045489D01*
X0154115Y0045551D01*
X0154068Y0045615D01*
X0154025Y0045682D01*
X0153985Y0045750D01*
X0153948Y0045821D01*
X0153915Y0045893D01*
X0153886Y0045967D01*
X0153860Y0046042D01*
X0153839Y0046119D01*
X0153821Y0046196D01*
X0153807Y0046274D01*
X0153797Y0046353D01*
X0153791Y0046433D01*
X0153789Y0046512D01*
X0273632Y0046906D02*
X0273634Y0046985D01*
X0273640Y0047065D01*
X0273650Y0047144D01*
X0273664Y0047222D01*
X0273682Y0047299D01*
X0273703Y0047376D01*
X0273729Y0047451D01*
X0273758Y0047525D01*
X0273791Y0047597D01*
X0273828Y0047668D01*
X0273868Y0047736D01*
X0273911Y0047803D01*
X0273958Y0047867D01*
X0274008Y0047929D01*
X0274061Y0047988D01*
X0274116Y0048045D01*
X0274175Y0048098D01*
X0274236Y0048149D01*
X0274300Y0048197D01*
X0274366Y0048241D01*
X0274434Y0048282D01*
X0274504Y0048319D01*
X0274576Y0048353D01*
X0274650Y0048383D01*
X0274724Y0048410D01*
X0274801Y0048432D01*
X0274878Y0048451D01*
X0274956Y0048466D01*
X0275035Y0048477D01*
X0275114Y0048484D01*
X0275193Y0048487D01*
X0275273Y0048486D01*
X0275352Y0048481D01*
X0275431Y0048472D01*
X0275509Y0048459D01*
X0275587Y0048442D01*
X0275664Y0048421D01*
X0275739Y0048397D01*
X0275813Y0048369D01*
X0275886Y0048337D01*
X0275957Y0048301D01*
X0276026Y0048262D01*
X0276093Y0048219D01*
X0276158Y0048173D01*
X0276221Y0048124D01*
X0276281Y0048072D01*
X0276338Y0048017D01*
X0276392Y0047959D01*
X0276444Y0047898D01*
X0276492Y0047835D01*
X0276537Y0047770D01*
X0276579Y0047702D01*
X0276617Y0047633D01*
X0276652Y0047561D01*
X0276683Y0047488D01*
X0276710Y0047413D01*
X0276734Y0047338D01*
X0276754Y0047261D01*
X0276770Y0047183D01*
X0276782Y0047104D01*
X0276790Y0047025D01*
X0276794Y0046946D01*
X0276794Y0046866D01*
X0276790Y0046787D01*
X0276782Y0046708D01*
X0276770Y0046629D01*
X0276754Y0046551D01*
X0276734Y0046474D01*
X0276710Y0046399D01*
X0276683Y0046324D01*
X0276652Y0046251D01*
X0276617Y0046179D01*
X0276579Y0046110D01*
X0276537Y0046042D01*
X0276492Y0045977D01*
X0276444Y0045914D01*
X0276392Y0045853D01*
X0276338Y0045795D01*
X0276281Y0045740D01*
X0276221Y0045688D01*
X0276158Y0045639D01*
X0276093Y0045593D01*
X0276026Y0045550D01*
X0275957Y0045511D01*
X0275886Y0045475D01*
X0275813Y0045443D01*
X0275739Y0045415D01*
X0275664Y0045391D01*
X0275587Y0045370D01*
X0275509Y0045353D01*
X0275431Y0045340D01*
X0275352Y0045331D01*
X0275273Y0045326D01*
X0275193Y0045325D01*
X0275114Y0045328D01*
X0275035Y0045335D01*
X0274956Y0045346D01*
X0274878Y0045361D01*
X0274801Y0045380D01*
X0274724Y0045402D01*
X0274650Y0045429D01*
X0274576Y0045459D01*
X0274504Y0045493D01*
X0274434Y0045530D01*
X0274366Y0045571D01*
X0274300Y0045615D01*
X0274236Y0045663D01*
X0274175Y0045714D01*
X0274116Y0045767D01*
X0274061Y0045824D01*
X0274008Y0045883D01*
X0273958Y0045945D01*
X0273911Y0046009D01*
X0273868Y0046076D01*
X0273828Y0046144D01*
X0273791Y0046215D01*
X0273758Y0046287D01*
X0273729Y0046361D01*
X0273703Y0046436D01*
X0273682Y0046513D01*
X0273664Y0046590D01*
X0273650Y0046668D01*
X0273640Y0046747D01*
X0273634Y0046827D01*
X0273632Y0046906D01*
D18*
X0215291Y0046512D03*
D19*
X0350954Y0073990D03*
X0354996Y0045490D03*
X0370744Y0045490D03*
X0382555Y0045490D03*
X0058074Y0046219D03*
X0054031Y0074719D03*
X0038283Y0074719D03*
X0026472Y0074719D03*
D20*
X0020173Y0060469D03*
X0047732Y0060469D03*
X0361295Y0059740D03*
X0388854Y0059740D03*
D21*
X0384898Y0021945D03*
X0377024Y0021945D03*
X0369150Y0021945D03*
X0361276Y0021945D03*
X0353402Y0021945D03*
X0341177Y0021945D03*
X0333303Y0021945D03*
X0325429Y0021945D03*
X0317555Y0021945D03*
X0309681Y0021945D03*
D22*
X0107299Y0046610D03*
X0097299Y0046610D03*
X0087299Y0046610D03*
X0077299Y0046610D03*
X0077299Y0076610D03*
X0087299Y0076610D03*
X0097299Y0076610D03*
X0107299Y0076610D03*
D23*
X0133795Y0031374D03*
X0123795Y0021374D03*
X0143795Y0021374D03*
D24*
X0341059Y0053500D03*
M02*
