  0
SECTION
  2
HEADER
  9
$ACADVER
  1
AC1009
  9
$FILLMODE
 70
1
  9
$EXTMIN
 10
-5.8420
 20
-4.5720
 30
0.0000
  9
$EXTMAX
 10
28.7020
 20
41.4020
 30
0.0000
  0
ENDSEC
  0
SECTION
  2
TABLES
  0
TABLE
  2
LTYPE
 70
1
  0
LTYPE
  2
CONTINUOUS
 70
64
  3
Solid line
 72
65
 73
0
 40
0
  0
ENDTAB
  0
TABLE
  2
LAYER
 70
255
  0
LAYER
  2
1
 70
64
 62
22
  6
CONTINUOUS
  0
LAYER
  2
16
 70
64
 62
175
  6
CONTINUOUS
  0
LAYER
  2
17
 70
64
 62
82
  6
CONTINUOUS
  0
LAYER
  2
18
 70
64
 62
82
  6
CONTINUOUS
  0
LAYER
  2
19
 70
64
 62
53
  6
CONTINUOUS
  0
LAYER
  2
20
 70
64
 62
7
  6
CONTINUOUS
  0
LAYER
  2
21
 70
64
 62
253
  6
CONTINUOUS
  0
LAYER
  2
22
 70
64
 62
253
  6
CONTINUOUS
  0
LAYER
  2
23
 70
64
 62
7
  6
CONTINUOUS
  0
LAYER
  2
24
 70
64
 62
7
  6
CONTINUOUS
  0
LAYER
  2
25
 70
64
 62
253
  6
CONTINUOUS
  0
LAYER
  2
26
 70
64
 62
253
  6
CONTINUOUS
  0
LAYER
  2
27
 70
64
 62
253
  6
CONTINUOUS
  0
LAYER
  2
28
 70
64
 62
253
  6
CONTINUOUS
  0
LAYER
  2
39
 70
64
 62
22
  6
CONTINUOUS
  0
LAYER
  2
40
 70
64
 62
175
  6
CONTINUOUS
  0
LAYER
  2
41
 70
64
 62
22
  6
CONTINUOUS
  0
LAYER
  2
42
 70
64
 62
175
  6
CONTINUOUS
  0
LAYER
  2
43
 70
64
 62
82
  6
CONTINUOUS
  0
LAYER
  2
48
 70
64
 62
253
  6
CONTINUOUS
  0
LAYER
  2
49
 70
64
 62
253
  6
CONTINUOUS
  0
LAYER
  2
51
 70
64
 62
253
  6
CONTINUOUS
  0
LAYER
  2
52
 70
64
 62
253
  6
CONTINUOUS
  0
LAYER
  2
101
 70
64
 62
1
  6
CONTINUOUS
  0
LAYER
  2
102
 70
64
 62
253
  6
CONTINUOUS
  0
LAYER
  2
103
 70
64
 62
253
  6
CONTINUOUS
  0
LAYER
  2
104
 70
64
 62
32
  6
CONTINUOUS
  0
LAYER
  2
105
 70
64
 62
253
  6
CONTINUOUS
  0
LAYER
  2
106
 70
64
 62
253
  6
CONTINUOUS
  0
LAYER
  2
107
 70
64
 62
253
  6
CONTINUOUS
  0
LAYER
  2
108
 70
64
 62
3
  6
CONTINUOUS
  0
LAYER
  2
109
 70
64
 62
4
  6
CONTINUOUS
  0
LAYER
  2
110
 70
64
 62
253
  6
CONTINUOUS
  0
LAYER
  2
111
 70
64
 62
253
  6
CONTINUOUS
  0
LAYER
  2
112
 70
64
 62
253
  6
CONTINUOUS
  0
LAYER
  2
113
 70
64
 62
22
  6
CONTINUOUS
  0
LAYER
  2
114
 70
64
 62
253
  6
CONTINUOUS
  0
LAYER
  2
115
 70
64
 62
253
  6
CONTINUOUS
  0
LAYER
  2
116
 70
64
 62
5
  6
CONTINUOUS
  0
LAYER
  2
121
 70
64
 62
253
  6
CONTINUOUS
  0
LAYER
  2
122
 70
64
 62
253
  6
CONTINUOUS
  0
LAYER
  2
123
 70
64
 62
253
  6
CONTINUOUS
  0
LAYER
  2
124
 70
64
 62
253
  6
CONTINUOUS
  0
LAYER
  2
125
 70
64
 62
253
  6
CONTINUOUS
  0
LAYER
  2
126
 70
64
 62
253
  6
CONTINUOUS
  0
LAYER
  2
127
 70
64
 62
253
  6
CONTINUOUS
  0
LAYER
  2
128
 70
64
 62
253
  6
CONTINUOUS
  0
LAYER
  2
129
 70
64
 62
253
  6
CONTINUOUS
  0
LAYER
  2
131
 70
64
 62
253
  6
CONTINUOUS
  0
LAYER
  2
132
 70
64
 62
253
  6
CONTINUOUS
  0
LAYER
  2
144
 70
64
 62
253
  6
CONTINUOUS
  0
LAYER
  2
150
 70
64
 62
253
  6
CONTINUOUS
  0
LAYER
  2
151
 70
64
 62
253
  6
CONTINUOUS
  0
LAYER
  2
152
 70
64
 62
253
  6
CONTINUOUS
  0
LAYER
  2
153
 70
64
 62
253
  6
CONTINUOUS
  0
LAYER
  2
154
 70
64
 62
253
  6
CONTINUOUS
  0
LAYER
  2
155
 70
64
 62
253
  6
CONTINUOUS
  0
LAYER
  2
199
 70
64
 62
253
  6
CONTINUOUS
  0
LAYER
  2
200
 70
64
 62
175
  6
CONTINUOUS
  0
LAYER
  2
201
 70
64
 62
82
  6
CONTINUOUS
  0
LAYER
  2
202
 70
64
 62
140
  6
CONTINUOUS
  0
LAYER
  2
203
 70
64
 62
22
  6
CONTINUOUS
  0
LAYER
  2
204
 70
64
 62
213
  6
CONTINUOUS
  0
LAYER
  2
205
 70
64
 62
53
  6
CONTINUOUS
  0
LAYER
  2
206
 70
64
 62
253
  6
CONTINUOUS
  0
LAYER
  2
207
 70
64
 62
250
  6
CONTINUOUS
  0
LAYER
  2
208
 70
64
 62
5
  6
CONTINUOUS
  0
LAYER
  2
209
 70
64
 62
253
  6
CONTINUOUS
  0
LAYER
  2
210
 70
64
 62
253
  6
CONTINUOUS
  0
LAYER
  2
211
 70
64
 62
253
  6
CONTINUOUS
  0
LAYER
  2
212
 70
64
 62
253
  6
CONTINUOUS
  0
LAYER
  2
213
 70
64
 62
253
  6
CONTINUOUS
  0
LAYER
  2
214
 70
64
 62
253
  6
CONTINUOUS
  0
LAYER
  2
215
 70
64
 62
253
  6
CONTINUOUS
  0
LAYER
  2
216
 70
64
 62
253
  6
CONTINUOUS
  0
LAYER
  2
225
 70
64
 62
253
  6
CONTINUOUS
  0
LAYER
  2
226
 70
64
 62
253
  6
CONTINUOUS
  0
LAYER
  2
227
 70
64
 62
253
  6
CONTINUOUS
  0
LAYER
  2
228
 70
64
 62
253
  6
CONTINUOUS
  0
LAYER
  2
229
 70
64
 62
253
  6
CONTINUOUS
  0
LAYER
  2
230
 70
64
 62
253
  6
CONTINUOUS
  0
LAYER
  2
248
 70
64
 62
253
  6
CONTINUOUS
  0
LAYER
  2
249
 70
64
 62
253
  6
CONTINUOUS
  0
LAYER
  2
254
 70
64
 62
253
  6
CONTINUOUS
  0
LAYER
  2
255
 70
64
 62
253
  6
CONTINUOUS
  0
ENDTAB
  0
ENDSEC
  0
SECTION
  2
BLOCKS
  0
BLOCK
  8
0
  2
RECT
 70
64
 10
0.0000
 20
0.0000
 30
0.0000
  3
RECT
  0
SOLID
  8
0
 10
-0.5000
 20
-0.5000
 30
0.0000
 11
0.5000
 21
-0.5000
 31
0.0000
 12
-0.5000
 22
0.5000
 32
0.0000
 13
0.5000
 23
0.5000
 33
0.0000
  0
ENDBLK
  8
0
  0
BLOCK
  8
0
  2
PIE
 70
64
 10
0.0000
 20
0.0000
 30
0.0000
  3
PIE
  0
POLYLINE
  8
0
 66
1
 10
0.0000
 20
0.0000
 30
0.0000
 40
0.5000
 41
0.5000
 70
0
  0
VERTEX
  8
0
 10
0.0000
 20
-0.2500
 30
0.0000
 42
1.0000
  0
VERTEX
  8
0
 10
0.0000
 20
0.2500
 30
0.0000
 42
1.0000
  0
VERTEX
  8
0
 10
0.0000
 20
-0.2500
 30
0.0000
  0
SEQEND
  8
0
  0
ENDBLK
  8
0
  0
BLOCK
  8
0
  2
OCTAGONP
 70
64
 10
0.0000
 20
0.0000
 30
0.0000
  3
OCTAGONP
  0
POLYLINE
  8
0
 66
1
 10
0.0000
 20
0.0000
 30
0.0000
 40
0.5000
 41
0.5000
 70
0
  0
VERTEX
  8
0
 10
-0.2500
 20
-0.1036
 30
0.0000
  0
VERTEX
  8
0
 10
-0.2500
 20
0.1036
 30
0.0000
  0
VERTEX
  8
0
 10
-0.1036
 20
0.2500
 30
0.0000
  0
VERTEX
  8
0
 10
0.1036
 20
0.2500
 30
0.0000
  0
VERTEX
  8
0
 10
0.2500
 20
0.1036
 30
0.0000
  0
VERTEX
  8
0
 10
0.2500
 20
-0.1036
 30
0.0000
  0
VERTEX
  8
0
 10
0.1036
 20
-0.2500
 30
0.0000
  0
VERTEX
  8
0
 10
-0.1036
 20
-0.2500
 30
0.0000
  0
VERTEX
  8
0
 10
-0.2500
 20
-0.1036
 30
0.0000
  0
VERTEX
  8
0
 10
-0.2500
 20
0.1036
 30
0.0000
  0
SEQEND
  8
0
  0
ENDBLK
  8
0
  0
BLOCK
  8
0
  2
SQUAREP
 70
64
 10
0.0000
 20
0.0000
 30
0.0000
  3
SQUAREP
  0
SOLID
  8
0
 10
-0.5000
 20
-0.5000
 30
0.0000
 11
0.5000
 21
-0.5000
 31
0.0000
 12
-0.5000
 22
0.5000
 32
0.0000
 13
0.5000
 23
0.5000
 33
0.0000
  0
ENDBLK
  8
0
  0
BLOCK
  8
0
  2
ROUNDP
 70
64
 10
0.0000
 20
0.0000
 30
0.0000
  3
ROUNDP
  0
POLYLINE
  8
0
 66
1
 10
0.0000
 20
0.0000
 30
0.0000
 40
0.5000
 41
0.5000
 70
0
  0
VERTEX
  8
0
 10
0.0000
 20
-0.2500
 30
0.0000
 42
1.0000
  0
VERTEX
  8
0
 10
0.0000
 20
0.2500
 30
0.0000
 42
1.0000
  0
VERTEX
  8
0
 10
0.0000
 20
-0.2500
 30
0.0000
  0
SEQEND
  8
0
  0
ENDBLK
  8
0
  0
BLOCK
  8
0
  2
ANNULUSP
 70
64
 10
0.0000
 20
0.0000
 30
0.0000
  3
ANNULUSP
  0
POLYLINE
  8
0
 66
1
 10
0.0000
 20
0.0000
 30
0.0000
 40
0.5000
 41
0.5000
 70
0
  0
VERTEX
  8
0
 10
0.0000
 20
-0.2500
 30
0.0000
 42
1.0000
  0
VERTEX
  8
0
 10
0.0000
 20
0.2500
 30
0.0000
 42
1.0000
  0
VERTEX
  8
0
 10
0.0000
 20
-0.2500
 30
0.0000
  0
SEQEND
  8
0
  0
ENDBLK
  8
0
  0
BLOCK
  8
0
  2
THERMALP
 70
64
 10
0.0000
 20
0.0000
 30
0.0000
  3
THERMALP
  0
POLYLINE
  8
0
 66
1
 10
0.0000
 20
0.0000
 30
0.0000
 40
0.1000
 41
0.1000
 70
0
  0
VERTEX
  8
0
 10
-0.2379
 20
0.4500
 30
0.0000
  0
VERTEX
  8
0
 10
0.2379
 20
0.4500
 30
0.0000
  0
SEQEND
  8
0
  0
POLYLINE
  8
0
 66
1
 10
0.0000
 20
0.0000
 30
0.0000
 40
0.0500
 41
0.0500
 70
0
  0
VERTEX
  8
0
 10
0.2379
 20
0.4250
 30
0.0000
 42
1.0000
  0
VERTEX
  8
0
 10
0.2379
 20
0.4750
 30
0.0000
  0
SEQEND
  8
0
  0
POLYLINE
  8
0
 66
1
 10
0.0000
 20
0.0000
 30
0.0000
 40
0.0500
 41
0.0500
 70
0
  0
VERTEX
  8
0
 10
-0.2379
 20
0.4750
 30
0.0000
 42
1.0000
  0
VERTEX
  8
0
 10
-0.2379
 20
0.4250
 30
0.0000
  0
SEQEND
  8
0
  0
POLYLINE
  8
0
 66
1
 10
0.0000
 20
0.0000
 30
0.0000
 40
0.1000
 41
0.1000
 70
0
  0
VERTEX
  8
0
 10
0.4500
 20
0.2379
 30
0.0000
  0
VERTEX
  8
0
 10
0.4500
 20
-0.2379
 30
0.0000
  0
SEQEND
  8
0
  0
POLYLINE
  8
0
 66
1
 10
0.0000
 20
0.0000
 30
0.0000
 40
0.0500
 41
0.0500
 70
0
  0
VERTEX
  8
0
 10
0.4250
 20
-0.2379
 30
0.0000
 42
1.0000
  0
VERTEX
  8
0
 10
0.4750
 20
-0.2379
 30
0.0000
  0
SEQEND
  8
0
  0
POLYLINE
  8
0
 66
1
 10
0.0000
 20
0.0000
 30
0.0000
 40
0.0500
 41
0.0500
 70
0
  0
VERTEX
  8
0
 10
0.4750
 20
0.2379
 30
0.0000
 42
1.0000
  0
VERTEX
  8
0
 10
0.4250
 20
0.2379
 30
0.0000
  0
SEQEND
  8
0
  0
POLYLINE
  8
0
 66
1
 10
0.0000
 20
0.0000
 30
0.0000
 40
0.1000
 41
0.1000
 70
0
  0
VERTEX
  8
0
 10
0.2379
 20
-0.4500
 30
0.0000
  0
VERTEX
  8
0
 10
-0.2379
 20
-0.4500
 30
0.0000
  0
SEQEND
  8
0
  0
POLYLINE
  8
0
 66
1
 10
0.0000
 20
0.0000
 30
0.0000
 40
0.0500
 41
0.0500
 70
0
  0
VERTEX
  8
0
 10
-0.2379
 20
-0.4250
 30
0.0000
 42
1.0000
  0
VERTEX
  8
0
 10
-0.2379
 20
-0.4750
 30
0.0000
  0
SEQEND
  8
0
  0
POLYLINE
  8
0
 66
1
 10
0.0000
 20
0.0000
 30
0.0000
 40
0.0500
 41
0.0500
 70
0
  0
VERTEX
  8
0
 10
0.2379
 20
-0.4750
 30
0.0000
 42
1.0000
  0
VERTEX
  8
0
 10
0.2379
 20
-0.4250
 30
0.0000
  0
SEQEND
  8
0
  0
POLYLINE
  8
0
 66
1
 10
0.0000
 20
0.0000
 30
0.0000
 40
0.1000
 41
0.1000
 70
0
  0
VERTEX
  8
0
 10
-0.4500
 20
-0.2379
 30
0.0000
  0
VERTEX
  8
0
 10
-0.4500
 20
0.2379
 30
0.0000
  0
SEQEND
  8
0
  0
POLYLINE
  8
0
 66
1
 10
0.0000
 20
0.0000
 30
0.0000
 40
0.0500
 41
0.0500
 70
0
  0
VERTEX
  8
0
 10
-0.4250
 20
0.2379
 30
0.0000
 42
1.0000
  0
VERTEX
  8
0
 10
-0.4750
 20
0.2379
 30
0.0000
  0
SEQEND
  8
0
  0
POLYLINE
  8
0
 66
1
 10
0.0000
 20
0.0000
 30
0.0000
 40
0.0500
 41
0.0500
 70
0
  0
VERTEX
  8
0
 10
-0.4750
 20
-0.2379
 30
0.0000
 42
1.0000
  0
VERTEX
  8
0
 10
-0.4250
 20
-0.2379
 30
0.0000
  0
SEQEND
  8
0
  0
ENDBLK
  8
0
  0
BLOCK
  8
0
  2
OCTAGONV
 70
64
 10
0.0000
 20
0.0000
 30
0.0000
  3
OCTAGONV
  0
POLYLINE
  8
0
 66
1
 10
0.0000
 20
0.0000
 30
0.0000
 40
0.5000
 41
0.5000
 70
0
  0
VERTEX
  8
0
 10
-0.2500
 20
-0.1036
 30
0.0000
  0
VERTEX
  8
0
 10
-0.2500
 20
0.1036
 30
0.0000
  0
VERTEX
  8
0
 10
-0.1036
 20
0.2500
 30
0.0000
  0
VERTEX
  8
0
 10
0.1036
 20
0.2500
 30
0.0000
  0
VERTEX
  8
0
 10
0.2500
 20
0.1036
 30
0.0000
  0
VERTEX
  8
0
 10
0.2500
 20
-0.1036
 30
0.0000
  0
VERTEX
  8
0
 10
0.1036
 20
-0.2500
 30
0.0000
  0
VERTEX
  8
0
 10
-0.1036
 20
-0.2500
 30
0.0000
  0
VERTEX
  8
0
 10
-0.2500
 20
-0.1036
 30
0.0000
  0
VERTEX
  8
0
 10
-0.2500
 20
0.1036
 30
0.0000
  0
SEQEND
  8
0
  0
ENDBLK
  8
0
  0
BLOCK
  8
0
  2
SQUAREV
 70
64
 10
0.0000
 20
0.0000
 30
0.0000
  3
SQUAREV
  0
SOLID
  8
0
 10
-0.5000
 20
-0.5000
 30
0.0000
 11
0.5000
 21
-0.5000
 31
0.0000
 12
-0.5000
 22
0.5000
 32
0.0000
 13
0.5000
 23
0.5000
 33
0.0000
  0
ENDBLK
  8
0
  0
BLOCK
  8
0
  2
ROUNDV
 70
64
 10
0.0000
 20
0.0000
 30
0.0000
  3
ROUNDV
  0
POLYLINE
  8
0
 66
1
 10
0.0000
 20
0.0000
 30
0.0000
 40
0.5000
 41
0.5000
 70
0
  0
VERTEX
  8
0
 10
0.0000
 20
-0.2500
 30
0.0000
 42
1.0000
  0
VERTEX
  8
0
 10
0.0000
 20
0.2500
 30
0.0000
 42
1.0000
  0
VERTEX
  8
0
 10
0.0000
 20
-0.2500
 30
0.0000
  0
SEQEND
  8
0
  0
ENDBLK
  8
0
  0
BLOCK
  8
0
  2
ANNULUSV
 70
64
 10
0.0000
 20
0.0000
 30
0.0000
  3
ANNULUSV
  0
POLYLINE
  8
0
 66
1
 10
0.0000
 20
0.0000
 30
0.0000
 40
0.5000
 41
0.5000
 70
0
  0
VERTEX
  8
0
 10
0.0000
 20
-0.2500
 30
0.0000
 42
1.0000
  0
VERTEX
  8
0
 10
0.0000
 20
0.2500
 30
0.0000
 42
1.0000
  0
VERTEX
  8
0
 10
0.0000
 20
-0.2500
 30
0.0000
  0
SEQEND
  8
0
  0
ENDBLK
  8
0
  0
BLOCK
  8
0
  2
THERMALV
 70
64
 10
0.0000
 20
0.0000
 30
0.0000
  3
THERMALV
  0
POLYLINE
  8
0
 66
1
 10
0.0000
 20
0.0000
 30
0.0000
 40
0.1000
 41
0.1000
 70
0
  0
VERTEX
  8
0
 10
-0.2379
 20
0.4500
 30
0.0000
  0
VERTEX
  8
0
 10
0.2379
 20
0.4500
 30
0.0000
  0
SEQEND
  8
0
  0
POLYLINE
  8
0
 66
1
 10
0.0000
 20
0.0000
 30
0.0000
 40
0.0500
 41
0.0500
 70
0
  0
VERTEX
  8
0
 10
0.2379
 20
0.4250
 30
0.0000
 42
1.0000
  0
VERTEX
  8
0
 10
0.2379
 20
0.4750
 30
0.0000
  0
SEQEND
  8
0
  0
POLYLINE
  8
0
 66
1
 10
0.0000
 20
0.0000
 30
0.0000
 40
0.0500
 41
0.0500
 70
0
  0
VERTEX
  8
0
 10
-0.2379
 20
0.4750
 30
0.0000
 42
1.0000
  0
VERTEX
  8
0
 10
-0.2379
 20
0.4250
 30
0.0000
  0
SEQEND
  8
0
  0
POLYLINE
  8
0
 66
1
 10
0.0000
 20
0.0000
 30
0.0000
 40
0.1000
 41
0.1000
 70
0
  0
VERTEX
  8
0
 10
0.4500
 20
0.2379
 30
0.0000
  0
VERTEX
  8
0
 10
0.4500
 20
-0.2379
 30
0.0000
  0
SEQEND
  8
0
  0
POLYLINE
  8
0
 66
1
 10
0.0000
 20
0.0000
 30
0.0000
 40
0.0500
 41
0.0500
 70
0
  0
VERTEX
  8
0
 10
0.4250
 20
-0.2379
 30
0.0000
 42
1.0000
  0
VERTEX
  8
0
 10
0.4750
 20
-0.2379
 30
0.0000
  0
SEQEND
  8
0
  0
POLYLINE
  8
0
 66
1
 10
0.0000
 20
0.0000
 30
0.0000
 40
0.0500
 41
0.0500
 70
0
  0
VERTEX
  8
0
 10
0.4750
 20
0.2379
 30
0.0000
 42
1.0000
  0
VERTEX
  8
0
 10
0.4250
 20
0.2379
 30
0.0000
  0
SEQEND
  8
0
  0
POLYLINE
  8
0
 66
1
 10
0.0000
 20
0.0000
 30
0.0000
 40
0.1000
 41
0.1000
 70
0
  0
VERTEX
  8
0
 10
0.2379
 20
-0.4500
 30
0.0000
  0
VERTEX
  8
0
 10
-0.2379
 20
-0.4500
 30
0.0000
  0
SEQEND
  8
0
  0
POLYLINE
  8
0
 66
1
 10
0.0000
 20
0.0000
 30
0.0000
 40
0.0500
 41
0.0500
 70
0
  0
VERTEX
  8
0
 10
-0.2379
 20
-0.4250
 30
0.0000
 42
1.0000
  0
VERTEX
  8
0
 10
-0.2379
 20
-0.4750
 30
0.0000
  0
SEQEND
  8
0
  0
POLYLINE
  8
0
 66
1
 10
0.0000
 20
0.0000
 30
0.0000
 40
0.0500
 41
0.0500
 70
0
  0
VERTEX
  8
0
 10
0.2379
 20
-0.4750
 30
0.0000
 42
1.0000
  0
VERTEX
  8
0
 10
0.2379
 20
-0.4250
 30
0.0000
  0
SEQEND
  8
0
  0
POLYLINE
  8
0
 66
1
 10
0.0000
 20
0.0000
 30
0.0000
 40
0.1000
 41
0.1000
 70
0
  0
VERTEX
  8
0
 10
-0.4500
 20
-0.2379
 30
0.0000
  0
VERTEX
  8
0
 10
-0.4500
 20
0.2379
 30
0.0000
  0
SEQEND
  8
0
  0
POLYLINE
  8
0
 66
1
 10
0.0000
 20
0.0000
 30
0.0000
 40
0.0500
 41
0.0500
 70
0
  0
VERTEX
  8
0
 10
-0.4250
 20
0.2379
 30
0.0000
 42
1.0000
  0
VERTEX
  8
0
 10
-0.4750
 20
0.2379
 30
0.0000
  0
SEQEND
  8
0
  0
POLYLINE
  8
0
 66
1
 10
0.0000
 20
0.0000
 30
0.0000
 40
0.0500
 41
0.0500
 70
0
  0
VERTEX
  8
0
 10
-0.4750
 20
-0.2379
 30
0.0000
 42
1.0000
  0
VERTEX
  8
0
 10
-0.4250
 20
-0.2379
 30
0.0000
  0
SEQEND
  8
0
  0
ENDBLK
  8
0
  0
ENDSEC
  0
SECTION
  2
ENTITIES
  0
LINE
  8
20
 10
0.0000
 20
0.0000
 30
0.0000
 11
23.8000
 21
0.0000
 31
0.0000
  0
LINE
  8
20
 10
23.8000
 20
0.0000
 30
0.0000
 11
23.8000
 21
38.0900
 31
0.0000
  0
LINE
  8
20
 10
23.8000
 20
38.0900
 30
0.0000
 11
0.0000
 21
38.0900
 31
0.0000
  0
LINE
  8
20
 10
0.0000
 20
38.0900
 30
0.0000
 11
0.0000
 21
0.0000
 31
0.0000
  0
POINT
  8
23
 10
8.8900
 20
18.4150
 30
0.0000
  0
POLYLINE
  8
21
 66
1
 10
0.0000
 20
0.0000
 30
0.0000
 40
0.2032
 41
0.2032
 70
0
  0
VERTEX
  8
21
 10
6.1150
 20
24.1300
 30
0.0000
  0
VERTEX
  8
21
 10
6.1150
 20
22.8600
 30
0.0000
  0
SEQEND
  8
0
  0
POLYLINE
  8
21
 66
1
 10
0.0000
 20
0.0000
 30
0.0000
 40
0.1016
 41
0.1016
 70
0
  0
VERTEX
  8
21
 10
6.0642
 20
22.8600
 30
0.0000
 42
1.0000
  0
VERTEX
  8
21
 10
6.1658
 20
22.8600
 30
0.0000
  0
SEQEND
  8
0
  0
POLYLINE
  8
21
 66
1
 10
0.0000
 20
0.0000
 30
0.0000
 40
0.1016
 41
0.1016
 70
0
  0
VERTEX
  8
21
 10
6.1658
 20
24.1300
 30
0.0000
 42
1.0000
  0
VERTEX
  8
21
 10
6.0642
 20
24.1300
 30
0.0000
  0
SEQEND
  8
0
  0
POLYLINE
  8
21
 66
1
 10
0.0000
 20
0.0000
 30
0.0000
 40
0.2032
 41
0.2032
 70
0
  0
VERTEX
  8
21
 10
13.3900
 20
28.5150
 30
0.0000
  0
VERTEX
  8
21
 10
13.3900
 20
8.3150
 30
0.0000
  0
SEQEND
  8
0
  0
POLYLINE
  8
21
 66
1
 10
0.0000
 20
0.0000
 30
0.0000
 40
0.1016
 41
0.1016
 70
0
  0
VERTEX
  8
21
 10
13.3392
 20
8.3150
 30
0.0000
 42
1.0000
  0
VERTEX
  8
21
 10
13.4408
 20
8.3150
 30
0.0000
  0
SEQEND
  8
0
  0
POLYLINE
  8
21
 66
1
 10
0.0000
 20
0.0000
 30
0.0000
 40
0.1016
 41
0.1016
 70
0
  0
VERTEX
  8
21
 10
13.4408
 20
28.5150
 30
0.0000
 42
1.0000
  0
VERTEX
  8
21
 10
13.3392
 20
28.5150
 30
0.0000
  0
SEQEND
  8
0
  0
POLYLINE
  8
21
 66
1
 10
0.0000
 20
0.0000
 30
0.0000
 40
0.2032
 41
0.2032
 70
0
  0
VERTEX
  8
21
 10
4.3900
 20
8.3150
 30
0.0000
  0
VERTEX
  8
21
 10
4.3900
 20
16.2150
 30
0.0000
  0
SEQEND
  8
0
  0
POLYLINE
  8
21
 66
1
 10
0.0000
 20
0.0000
 30
0.0000
 40
0.1016
 41
0.1016
 70
0
  0
VERTEX
  8
21
 10
4.4408
 20
16.2150
 30
0.0000
 42
1.0000
  0
VERTEX
  8
21
 10
4.3392
 20
16.2150
 30
0.0000
  0
SEQEND
  8
0
  0
POLYLINE
  8
21
 66
1
 10
0.0000
 20
0.0000
 30
0.0000
 40
0.1016
 41
0.1016
 70
0
  0
VERTEX
  8
21
 10
4.3392
 20
8.3150
 30
0.0000
 42
1.0000
  0
VERTEX
  8
21
 10
4.4408
 20
8.3150
 30
0.0000
  0
SEQEND
  8
0
  0
POLYLINE
  8
21
 66
1
 10
0.0000
 20
0.0000
 30
0.0000
 40
0.2032
 41
0.2032
 70
0
  0
VERTEX
  8
21
 10
4.3900
 20
16.2150
 30
0.0000
  0
VERTEX
  8
21
 10
4.3900
 20
20.6150
 30
0.0000
  0
SEQEND
  8
0
  0
POLYLINE
  8
21
 66
1
 10
0.0000
 20
0.0000
 30
0.0000
 40
0.1016
 41
0.1016
 70
0
  0
VERTEX
  8
21
 10
4.4408
 20
20.6150
 30
0.0000
 42
1.0000
  0
VERTEX
  8
21
 10
4.3392
 20
20.6150
 30
0.0000
  0
SEQEND
  8
0
  0
POLYLINE
  8
21
 66
1
 10
0.0000
 20
0.0000
 30
0.0000
 40
0.1016
 41
0.1016
 70
0
  0
VERTEX
  8
21
 10
4.3392
 20
16.2150
 30
0.0000
 42
1.0000
  0
VERTEX
  8
21
 10
4.4408
 20
16.2150
 30
0.0000
  0
SEQEND
  8
0
  0
POLYLINE
  8
21
 66
1
 10
0.0000
 20
0.0000
 30
0.0000
 40
0.2032
 41
0.2032
 70
0
  0
VERTEX
  8
21
 10
4.3900
 20
20.6150
 30
0.0000
  0
VERTEX
  8
21
 10
4.3900
 20
28.5150
 30
0.0000
  0
SEQEND
  8
0
  0
POLYLINE
  8
21
 66
1
 10
0.0000
 20
0.0000
 30
0.0000
 40
0.1016
 41
0.1016
 70
0
  0
VERTEX
  8
21
 10
4.4408
 20
28.5150
 30
0.0000
 42
1.0000
  0
VERTEX
  8
21
 10
4.3392
 20
28.5150
 30
0.0000
  0
SEQEND
  8
0
  0
POLYLINE
  8
21
 66
1
 10
0.0000
 20
0.0000
 30
0.0000
 40
0.1016
 41
0.1016
 70
0
  0
VERTEX
  8
21
 10
4.3392
 20
20.6150
 30
0.0000
 42
1.0000
  0
VERTEX
  8
21
 10
4.4408
 20
20.6150
 30
0.0000
  0
SEQEND
  8
0
  0
POLYLINE
  8
21
 66
1
 10
0.0000
 20
0.0000
 30
0.0000
 40
0.2032
 41
0.2032
 70
0
  0
VERTEX
  8
21
 10
4.3900
 20
28.5150
 30
0.0000
  0
VERTEX
  8
21
 10
13.2900
 20
28.5150
 30
0.0000
  0
SEQEND
  8
0
  0
POLYLINE
  8
21
 66
1
 10
0.0000
 20
0.0000
 30
0.0000
 40
0.1016
 41
0.1016
 70
0
  0
VERTEX
  8
21
 10
13.2900
 20
28.4642
 30
0.0000
 42
1.0000
  0
VERTEX
  8
21
 10
13.2900
 20
28.5658
 30
0.0000
  0
SEQEND
  8
0
  0
POLYLINE
  8
21
 66
1
 10
0.0000
 20
0.0000
 30
0.0000
 40
0.1016
 41
0.1016
 70
0
  0
VERTEX
  8
21
 10
4.3900
 20
28.5658
 30
0.0000
 42
1.0000
  0
VERTEX
  8
21
 10
4.3900
 20
28.4642
 30
0.0000
  0
SEQEND
  8
0
  0
POLYLINE
  8
21
 66
1
 10
0.0000
 20
0.0000
 30
0.0000
 40
0.2032
 41
0.2032
 70
0
  0
VERTEX
  8
21
 10
13.3900
 20
8.3150
 30
0.0000
  0
VERTEX
  8
21
 10
4.3900
 20
8.3150
 30
0.0000
  0
SEQEND
  8
0
  0
POLYLINE
  8
21
 66
1
 10
0.0000
 20
0.0000
 30
0.0000
 40
0.1016
 41
0.1016
 70
0
  0
VERTEX
  8
21
 10
4.3900
 20
8.3658
 30
0.0000
 42
1.0000
  0
VERTEX
  8
21
 10
4.3900
 20
8.2642
 30
0.0000
  0
SEQEND
  8
0
  0
POLYLINE
  8
21
 66
1
 10
0.0000
 20
0.0000
 30
0.0000
 40
0.1016
 41
0.1016
 70
0
  0
VERTEX
  8
21
 10
13.3900
 20
8.2642
 30
0.0000
 42
1.0000
  0
VERTEX
  8
21
 10
13.3900
 20
8.3658
 30
0.0000
  0
SEQEND
  8
0
  0
POLYLINE
  8
51
 66
1
 10
0.0000
 20
0.0000
 30
0.0000
 40
0.2032
 41
0.2032
 70
0
  0
VERTEX
  8
51
 10
5.4900
 20
27.4150
 30
0.0000
  0
VERTEX
  8
51
 10
12.2900
 20
27.4150
 30
0.0000
  0
SEQEND
  8
0
  0
POLYLINE
  8
51
 66
1
 10
0.0000
 20
0.0000
 30
0.0000
 40
0.1016
 41
0.1016
 70
0
  0
VERTEX
  8
51
 10
12.2900
 20
27.3642
 30
0.0000
 42
1.0000
  0
VERTEX
  8
51
 10
12.2900
 20
27.4658
 30
0.0000
  0
SEQEND
  8
0
  0
POLYLINE
  8
51
 66
1
 10
0.0000
 20
0.0000
 30
0.0000
 40
0.1016
 41
0.1016
 70
0
  0
VERTEX
  8
51
 10
5.4900
 20
27.4658
 30
0.0000
 42
1.0000
  0
VERTEX
  8
51
 10
5.4900
 20
27.3642
 30
0.0000
  0
SEQEND
  8
0
  0
POLYLINE
  8
51
 66
1
 10
0.0000
 20
0.0000
 30
0.0000
 40
0.2032
 41
0.2032
 70
0
  0
VERTEX
  8
51
 10
12.2900
 20
27.4150
 30
0.0000
  0
VERTEX
  8
51
 10
12.2900
 20
9.4150
 30
0.0000
  0
SEQEND
  8
0
  0
POLYLINE
  8
51
 66
1
 10
0.0000
 20
0.0000
 30
0.0000
 40
0.1016
 41
0.1016
 70
0
  0
VERTEX
  8
51
 10
12.2392
 20
9.4150
 30
0.0000
 42
1.0000
  0
VERTEX
  8
51
 10
12.3408
 20
9.4150
 30
0.0000
  0
SEQEND
  8
0
  0
POLYLINE
  8
51
 66
1
 10
0.0000
 20
0.0000
 30
0.0000
 40
0.1016
 41
0.1016
 70
0
  0
VERTEX
  8
51
 10
12.3408
 20
27.4150
 30
0.0000
 42
1.0000
  0
VERTEX
  8
51
 10
12.2392
 20
27.4150
 30
0.0000
  0
SEQEND
  8
0
  0
POLYLINE
  8
51
 66
1
 10
0.0000
 20
0.0000
 30
0.0000
 40
0.2032
 41
0.2032
 70
0
  0
VERTEX
  8
51
 10
5.4900
 20
9.4150
 30
0.0000
  0
VERTEX
  8
51
 10
12.2900
 20
9.4150
 30
0.0000
  0
SEQEND
  8
0
  0
POLYLINE
  8
51
 66
1
 10
0.0000
 20
0.0000
 30
0.0000
 40
0.1016
 41
0.1016
 70
0
  0
VERTEX
  8
51
 10
12.2900
 20
9.3642
 30
0.0000
 42
1.0000
  0
VERTEX
  8
51
 10
12.2900
 20
9.4658
 30
0.0000
  0
SEQEND
  8
0
  0
POLYLINE
  8
51
 66
1
 10
0.0000
 20
0.0000
 30
0.0000
 40
0.1016
 41
0.1016
 70
0
  0
VERTEX
  8
51
 10
5.4900
 20
9.4658
 30
0.0000
 42
1.0000
  0
VERTEX
  8
51
 10
5.4900
 20
9.3642
 30
0.0000
  0
SEQEND
  8
0
  0
POLYLINE
  8
21
 66
1
 10
0.0000
 20
0.0000
 30
0.0000
 40
0.2032
 41
0.2032
 70
0
  0
VERTEX
  8
21
 10
4.3900
 20
20.6150
 30
0.0000
  0
VERTEX
  8
21
 10
5.8900
 20
20.6150
 30
0.0000
  0
SEQEND
  8
0
  0
POLYLINE
  8
21
 66
1
 10
0.0000
 20
0.0000
 30
0.0000
 40
0.1016
 41
0.1016
 70
0
  0
VERTEX
  8
21
 10
5.8900
 20
20.5642
 30
0.0000
 42
1.0000
  0
VERTEX
  8
21
 10
5.8900
 20
20.6658
 30
0.0000
  0
SEQEND
  8
0
  0
POLYLINE
  8
21
 66
1
 10
0.0000
 20
0.0000
 30
0.0000
 40
0.1016
 41
0.1016
 70
0
  0
VERTEX
  8
21
 10
4.3900
 20
20.6658
 30
0.0000
 42
1.0000
  0
VERTEX
  8
21
 10
4.3900
 20
20.5642
 30
0.0000
  0
SEQEND
  8
0
  0
POLYLINE
  8
21
 66
1
 10
0.0000
 20
0.0000
 30
0.0000
 40
0.2032
 41
0.2032
 70
0
  0
VERTEX
  8
21
 10
5.8900
 20
20.6150
 30
0.0000
  0
VERTEX
  8
21
 10
5.8900
 20
16.2150
 30
0.0000
  0
SEQEND
  8
0
  0
POLYLINE
  8
21
 66
1
 10
0.0000
 20
0.0000
 30
0.0000
 40
0.1016
 41
0.1016
 70
0
  0
VERTEX
  8
21
 10
5.8392
 20
16.2150
 30
0.0000
 42
1.0000
  0
VERTEX
  8
21
 10
5.9408
 20
16.2150
 30
0.0000
  0
SEQEND
  8
0
  0
POLYLINE
  8
21
 66
1
 10
0.0000
 20
0.0000
 30
0.0000
 40
0.1016
 41
0.1016
 70
0
  0
VERTEX
  8
21
 10
5.9408
 20
20.6150
 30
0.0000
 42
1.0000
  0
VERTEX
  8
21
 10
5.8392
 20
20.6150
 30
0.0000
  0
SEQEND
  8
0
  0
POLYLINE
  8
21
 66
1
 10
0.0000
 20
0.0000
 30
0.0000
 40
0.2032
 41
0.2032
 70
0
  0
VERTEX
  8
21
 10
5.8900
 20
16.2150
 30
0.0000
  0
VERTEX
  8
21
 10
4.3900
 20
16.2150
 30
0.0000
  0
SEQEND
  8
0
  0
POLYLINE
  8
21
 66
1
 10
0.0000
 20
0.0000
 30
0.0000
 40
0.1016
 41
0.1016
 70
0
  0
VERTEX
  8
21
 10
4.3900
 20
16.2658
 30
0.0000
 42
1.0000
  0
VERTEX
  8
21
 10
4.3900
 20
16.1642
 30
0.0000
  0
SEQEND
  8
0
  0
POLYLINE
  8
21
 66
1
 10
0.0000
 20
0.0000
 30
0.0000
 40
0.1016
 41
0.1016
 70
0
  0
VERTEX
  8
21
 10
5.8900
 20
16.1642
 30
0.0000
 42
1.0000
  0
VERTEX
  8
21
 10
5.8900
 20
16.2658
 30
0.0000
  0
SEQEND
  8
0
  0
POLYLINE
  8
51
 66
1
 10
0.0000
 20
0.0000
 30
0.0000
 40
0.2032
 41
0.2032
 70
0
  0
VERTEX
  8
51
 10
5.4900
 20
27.4150
 30
0.0000
  0
VERTEX
  8
51
 10
5.4900
 20
20.6150
 30
0.0000
  0
SEQEND
  8
0
  0
POLYLINE
  8
51
 66
1
 10
0.0000
 20
0.0000
 30
0.0000
 40
0.1016
 41
0.1016
 70
0
  0
VERTEX
  8
51
 10
5.4392
 20
20.6150
 30
0.0000
 42
1.0000
  0
VERTEX
  8
51
 10
5.5408
 20
20.6150
 30
0.0000
  0
SEQEND
  8
0
  0
POLYLINE
  8
51
 66
1
 10
0.0000
 20
0.0000
 30
0.0000
 40
0.1016
 41
0.1016
 70
0
  0
VERTEX
  8
51
 10
5.5408
 20
27.4150
 30
0.0000
 42
1.0000
  0
VERTEX
  8
51
 10
5.4392
 20
27.4150
 30
0.0000
  0
SEQEND
  8
0
  0
POLYLINE
  8
51
 66
1
 10
0.0000
 20
0.0000
 30
0.0000
 40
0.2032
 41
0.2032
 70
0
  0
VERTEX
  8
51
 10
5.4900
 20
9.4150
 30
0.0000
  0
VERTEX
  8
51
 10
5.4900
 20
16.2150
 30
0.0000
  0
SEQEND
  8
0
  0
POLYLINE
  8
51
 66
1
 10
0.0000
 20
0.0000
 30
0.0000
 40
0.1016
 41
0.1016
 70
0
  0
VERTEX
  8
51
 10
5.5408
 20
16.2150
 30
0.0000
 42
1.0000
  0
VERTEX
  8
51
 10
5.4392
 20
16.2150
 30
0.0000
  0
SEQEND
  8
0
  0
POLYLINE
  8
51
 66
1
 10
0.0000
 20
0.0000
 30
0.0000
 40
0.1016
 41
0.1016
 70
0
  0
VERTEX
  8
51
 10
5.4392
 20
9.4150
 30
0.0000
 42
1.0000
  0
VERTEX
  8
51
 10
5.5408
 20
9.4150
 30
0.0000
  0
SEQEND
  8
0
  0
POLYLINE
  8
22
 66
1
 10
0.0000
 20
0.0000
 30
0.0000
 40
0.2032
 41
0.2032
 70
0
  0
VERTEX
  8
22
 10
6.0770
 20
24.1300
 30
0.0000
  0
VERTEX
  8
22
 10
6.0770
 20
22.8600
 30
0.0000
  0
SEQEND
  8
0
  0
POLYLINE
  8
22
 66
1
 10
0.0000
 20
0.0000
 30
0.0000
 40
0.1016
 41
0.1016
 70
0
  0
VERTEX
  8
22
 10
6.0262
 20
22.8600
 30
0.0000
 42
1.0000
  0
VERTEX
  8
22
 10
6.1278
 20
22.8600
 30
0.0000
  0
SEQEND
  8
0
  0
POLYLINE
  8
22
 66
1
 10
0.0000
 20
0.0000
 30
0.0000
 40
0.1016
 41
0.1016
 70
0
  0
VERTEX
  8
22
 10
6.1278
 20
24.1300
 30
0.0000
 42
1.0000
  0
VERTEX
  8
22
 10
6.0262
 20
24.1300
 30
0.0000
  0
SEQEND
  8
0
  0
POLYLINE
  8
25
 66
1
 10
0.0000
 20
0.0000
 30
0.0000
 40
0.1270
 41
0.1270
 70
0
  0
VERTEX
  8
25
 10
4.7625
 20
29.1000
 30
0.0000
  0
VERTEX
  8
25
 10
4.8430
 20
29.0195
 30
0.0000
  0
SEQEND
  8
0
  0
POLYLINE
  8
25
 66
1
 10
0.0000
 20
0.0000
 30
0.0000
 40
0.0635
 41
0.0635
 70
0
  0
VERTEX
  8
25
 10
4.8205
 20
28.9970
 30
0.0000
 42
1.0000
  0
VERTEX
  8
25
 10
4.8655
 20
29.0420
 30
0.0000
  0
SEQEND
  8
0
  0
POLYLINE
  8
25
 66
1
 10
0.0000
 20
0.0000
 30
0.0000
 40
0.0635
 41
0.0635
 70
0
  0
VERTEX
  8
25
 10
4.7850
 20
29.1225
 30
0.0000
 42
1.0000
  0
VERTEX
  8
25
 10
4.7400
 20
29.0775
 30
0.0000
  0
SEQEND
  8
0
  0
POLYLINE
  8
25
 66
1
 10
0.0000
 20
0.0000
 30
0.0000
 40
0.1270
 41
0.1270
 70
0
  0
VERTEX
  8
25
 10
4.8430
 20
29.0195
 30
0.0000
  0
VERTEX
  8
25
 10
4.9235
 20
29.0195
 30
0.0000
  0
SEQEND
  8
0
  0
POLYLINE
  8
25
 66
1
 10
0.0000
 20
0.0000
 30
0.0000
 40
0.0635
 41
0.0635
 70
0
  0
VERTEX
  8
25
 10
4.9235
 20
28.9878
 30
0.0000
 42
1.0000
  0
VERTEX
  8
25
 10
4.9235
 20
29.0512
 30
0.0000
  0
SEQEND
  8
0
  0
POLYLINE
  8
25
 66
1
 10
0.0000
 20
0.0000
 30
0.0000
 40
0.0635
 41
0.0635
 70
0
  0
VERTEX
  8
25
 10
4.8430
 20
29.0512
 30
0.0000
 42
1.0000
  0
VERTEX
  8
25
 10
4.8430
 20
28.9878
 30
0.0000
  0
SEQEND
  8
0
  0
POLYLINE
  8
25
 66
1
 10
0.0000
 20
0.0000
 30
0.0000
 40
0.1270
 41
0.1270
 70
0
  0
VERTEX
  8
25
 10
4.9235
 20
29.0195
 30
0.0000
  0
VERTEX
  8
25
 10
5.0040
 20
29.1000
 30
0.0000
  0
SEQEND
  8
0
  0
POLYLINE
  8
25
 66
1
 10
0.0000
 20
0.0000
 30
0.0000
 40
0.0635
 41
0.0635
 70
0
  0
VERTEX
  8
25
 10
5.0265
 20
29.0775
 30
0.0000
 42
1.0000
  0
VERTEX
  8
25
 10
4.9816
 20
29.1225
 30
0.0000
  0
SEQEND
  8
0
  0
POLYLINE
  8
25
 66
1
 10
0.0000
 20
0.0000
 30
0.0000
 40
0.0635
 41
0.0635
 70
0
  0
VERTEX
  8
25
 10
4.9011
 20
29.0420
 30
0.0000
 42
1.0000
  0
VERTEX
  8
25
 10
4.9460
 20
28.9970
 30
0.0000
  0
SEQEND
  8
0
  0
POLYLINE
  8
25
 66
1
 10
0.0000
 20
0.0000
 30
0.0000
 40
0.1270
 41
0.1270
 70
0
  0
VERTEX
  8
25
 10
5.0040
 20
29.1000
 30
0.0000
  0
VERTEX
  8
25
 10
5.0040
 20
29.5025
 30
0.0000
  0
SEQEND
  8
0
  0
POLYLINE
  8
25
 66
1
 10
0.0000
 20
0.0000
 30
0.0000
 40
0.0635
 41
0.0635
 70
0
  0
VERTEX
  8
25
 10
5.0358
 20
29.5025
 30
0.0000
 42
1.0000
  0
VERTEX
  8
25
 10
4.9723
 20
29.5025
 30
0.0000
  0
SEQEND
  8
0
  0
POLYLINE
  8
25
 66
1
 10
0.0000
 20
0.0000
 30
0.0000
 40
0.0635
 41
0.0635
 70
0
  0
VERTEX
  8
25
 10
4.9723
 20
29.1000
 30
0.0000
 42
1.0000
  0
VERTEX
  8
25
 10
5.0358
 20
29.1000
 30
0.0000
  0
SEQEND
  8
0
  0
POLYLINE
  8
25
 66
1
 10
0.0000
 20
0.0000
 30
0.0000
 40
0.1270
 41
0.1270
 70
0
  0
VERTEX
  8
25
 10
4.9235
 20
29.5025
 30
0.0000
  0
VERTEX
  8
25
 10
5.0845
 20
29.5025
 30
0.0000
  0
SEQEND
  8
0
  0
POLYLINE
  8
25
 66
1
 10
0.0000
 20
0.0000
 30
0.0000
 40
0.0635
 41
0.0635
 70
0
  0
VERTEX
  8
25
 10
5.0845
 20
29.4708
 30
0.0000
 42
1.0000
  0
VERTEX
  8
25
 10
5.0845
 20
29.5343
 30
0.0000
  0
SEQEND
  8
0
  0
POLYLINE
  8
25
 66
1
 10
0.0000
 20
0.0000
 30
0.0000
 40
0.0635
 41
0.0635
 70
0
  0
VERTEX
  8
25
 10
4.9235
 20
29.5343
 30
0.0000
 42
1.0000
  0
VERTEX
  8
25
 10
4.9235
 20
29.4708
 30
0.0000
  0
SEQEND
  8
0
  0
POLYLINE
  8
25
 66
1
 10
0.0000
 20
0.0000
 30
0.0000
 40
0.1270
 41
0.1270
 70
0
  0
VERTEX
  8
25
 10
5.3238
 20
29.3415
 30
0.0000
  0
VERTEX
  8
25
 10
5.4848
 20
29.5025
 30
0.0000
  0
SEQEND
  8
0
  0
POLYLINE
  8
25
 66
1
 10
0.0000
 20
0.0000
 30
0.0000
 40
0.0635
 41
0.0635
 70
0
  0
VERTEX
  8
25
 10
5.5073
 20
29.4801
 30
0.0000
 42
1.0000
  0
VERTEX
  8
25
 10
5.4624
 20
29.5250
 30
0.0000
  0
SEQEND
  8
0
  0
POLYLINE
  8
25
 66
1
 10
0.0000
 20
0.0000
 30
0.0000
 40
0.0635
 41
0.0635
 70
0
  0
VERTEX
  8
25
 10
5.3014
 20
29.3640
 30
0.0000
 42
1.0000
  0
VERTEX
  8
25
 10
5.3463
 20
29.3191
 30
0.0000
  0
SEQEND
  8
0
  0
POLYLINE
  8
25
 66
1
 10
0.0000
 20
0.0000
 30
0.0000
 40
0.1270
 41
0.1270
 70
0
  0
VERTEX
  8
25
 10
5.4848
 20
29.5025
 30
0.0000
  0
VERTEX
  8
25
 10
5.4848
 20
29.0195
 30
0.0000
  0
SEQEND
  8
0
  0
POLYLINE
  8
25
 66
1
 10
0.0000
 20
0.0000
 30
0.0000
 40
0.0635
 41
0.0635
 70
0
  0
VERTEX
  8
25
 10
5.4531
 20
29.0195
 30
0.0000
 42
1.0000
  0
VERTEX
  8
25
 10
5.5166
 20
29.0195
 30
0.0000
  0
SEQEND
  8
0
  0
POLYLINE
  8
25
 66
1
 10
0.0000
 20
0.0000
 30
0.0000
 40
0.0635
 41
0.0635
 70
0
  0
VERTEX
  8
25
 10
5.5166
 20
29.5025
 30
0.0000
 42
1.0000
  0
VERTEX
  8
25
 10
5.4531
 20
29.5025
 30
0.0000
  0
SEQEND
  8
0
  0
POLYLINE
  8
25
 66
1
 10
0.0000
 20
0.0000
 30
0.0000
 40
0.1270
 41
0.1270
 70
0
  0
VERTEX
  8
25
 10
5.3238
 20
29.0195
 30
0.0000
  0
VERTEX
  8
25
 10
5.6458
 20
29.0195
 30
0.0000
  0
SEQEND
  8
0
  0
POLYLINE
  8
25
 66
1
 10
0.0000
 20
0.0000
 30
0.0000
 40
0.0635
 41
0.0635
 70
0
  0
VERTEX
  8
25
 10
5.6458
 20
28.9878
 30
0.0000
 42
1.0000
  0
VERTEX
  8
25
 10
5.6458
 20
29.0512
 30
0.0000
  0
SEQEND
  8
0
  0
POLYLINE
  8
25
 66
1
 10
0.0000
 20
0.0000
 30
0.0000
 40
0.0635
 41
0.0635
 70
0
  0
VERTEX
  8
25
 10
5.3238
 20
29.0512
 30
0.0000
 42
1.0000
  0
VERTEX
  8
25
 10
5.3238
 20
28.9878
 30
0.0000
  0
SEQEND
  8
0
  0
INSERT
  8
51
  2
RECT
 10
7.6200
 20
23.4950
 30
0.0000
 41
0.5080
 42
0.5080
 43
1.0000
 50
270.0000
  0
INSERT
  8
51
  2
RECT
 10
10.1600
 20
23.4950
 30
0.0000
 41
0.5080
 42
0.5080
 43
1.0000
 50
270.0000
  0
INSERT
  8
51
  2
RECT
 10
10.1600
 20
20.9550
 30
0.0000
 41
0.5080
 42
0.5080
 43
1.0000
 50
270.0000
  0
INSERT
  8
51
  2
RECT
 10
7.6200
 20
20.9550
 30
0.0000
 41
0.5080
 42
0.5080
 43
1.0000
 50
270.0000
  0
INSERT
  8
51
  2
RECT
 10
10.1600
 20
18.4150
 30
0.0000
 41
0.5080
 42
0.5080
 43
1.0000
 50
270.0000
  0
INSERT
  8
51
  2
RECT
 10
7.6200
 20
18.4150
 30
0.0000
 41
0.5080
 42
0.5080
 43
1.0000
 50
270.0000
  0
INSERT
  8
51
  2
RECT
 10
10.1600
 20
15.8750
 30
0.0000
 41
0.5080
 42
0.5080
 43
1.0000
 50
270.0000
  0
INSERT
  8
51
  2
RECT
 10
7.6200
 20
15.8750
 30
0.0000
 41
0.5080
 42
0.5080
 43
1.0000
 50
270.0000
  0
INSERT
  8
51
  2
RECT
 10
10.1600
 20
13.3350
 30
0.0000
 41
0.5080
 42
0.5080
 43
1.0000
 50
270.0000
  0
INSERT
  8
51
  2
RECT
 10
7.6200
 20
13.3350
 30
0.0000
 41
0.5080
 42
0.5080
 43
1.0000
 50
270.0000
  0
INSERT
  8
51
  2
RECT
 10
7.6200
 20
15.8750
 30
0.0000
 41
0.5080
 42
0.5080
 43
1.0000
 50
270.0000
  0
INSERT
  8
51
  2
RECT
 10
10.1600
 20
15.8750
 30
0.0000
 41
0.5080
 42
0.5080
 43
1.0000
 50
270.0000
  0
INSERT
  8
17
  2
ROUNDP
 10
7.4930
 20
23.4950
 30
0.0000
 41
1.8796
 42
1.8796
 43
1.0000
 50
270.0000
  0
INSERT
  8
17
  2
ROUNDP
 10
7.4930
 20
23.4950
 30
0.0000
 41
1.8796
 42
1.8796
 43
1.0000
 50
270.0000
  0
INSERT
  8
17
  2
ROUNDP
 10
10.2870
 20
23.4950
 30
0.0000
 41
1.8796
 42
1.8796
 43
1.0000
 50
270.0000
  0
INSERT
  8
17
  2
ROUNDP
 10
10.2870
 20
23.4950
 30
0.0000
 41
1.8796
 42
1.8796
 43
1.0000
 50
270.0000
  0
INSERT
  8
17
  2
ROUNDP
 10
7.4930
 20
20.9550
 30
0.0000
 41
1.8796
 42
1.8796
 43
1.0000
 50
270.0000
  0
INSERT
  8
17
  2
ROUNDP
 10
7.4930
 20
20.9550
 30
0.0000
 41
1.8796
 42
1.8796
 43
1.0000
 50
270.0000
  0
INSERT
  8
17
  2
ROUNDP
 10
10.2870
 20
20.9550
 30
0.0000
 41
1.8796
 42
1.8796
 43
1.0000
 50
270.0000
  0
INSERT
  8
17
  2
ROUNDP
 10
10.2870
 20
20.9550
 30
0.0000
 41
1.8796
 42
1.8796
 43
1.0000
 50
270.0000
  0
INSERT
  8
17
  2
ROUNDP
 10
7.4930
 20
18.4150
 30
0.0000
 41
1.8796
 42
1.8796
 43
1.0000
 50
270.0000
  0
INSERT
  8
17
  2
ROUNDP
 10
7.4930
 20
18.4150
 30
0.0000
 41
1.8796
 42
1.8796
 43
1.0000
 50
270.0000
  0
INSERT
  8
17
  2
ROUNDP
 10
10.2870
 20
18.4150
 30
0.0000
 41
1.8796
 42
1.8796
 43
1.0000
 50
270.0000
  0
INSERT
  8
17
  2
ROUNDP
 10
10.2870
 20
18.4150
 30
0.0000
 41
1.8796
 42
1.8796
 43
1.0000
 50
270.0000
  0
INSERT
  8
17
  2
ROUNDP
 10
7.4930
 20
15.8750
 30
0.0000
 41
1.8796
 42
1.8796
 43
1.0000
 50
270.0000
  0
INSERT
  8
17
  2
ROUNDP
 10
7.4930
 20
15.8750
 30
0.0000
 41
1.8796
 42
1.8796
 43
1.0000
 50
270.0000
  0
INSERT
  8
17
  2
ROUNDP
 10
10.2870
 20
15.8750
 30
0.0000
 41
1.8796
 42
1.8796
 43
1.0000
 50
270.0000
  0
INSERT
  8
17
  2
ROUNDP
 10
10.2870
 20
15.8750
 30
0.0000
 41
1.8796
 42
1.8796
 43
1.0000
 50
270.0000
  0
INSERT
  8
17
  2
ROUNDP
 10
7.4930
 20
13.3350
 30
0.0000
 41
1.8796
 42
1.8796
 43
1.0000
 50
270.0000
  0
INSERT
  8
17
  2
ROUNDP
 10
7.4930
 20
13.3350
 30
0.0000
 41
1.8796
 42
1.8796
 43
1.0000
 50
270.0000
  0
INSERT
  8
17
  2
ROUNDP
 10
10.2870
 20
13.3350
 30
0.0000
 41
1.8796
 42
1.8796
 43
1.0000
 50
270.0000
  0
INSERT
  8
17
  2
ROUNDP
 10
10.2870
 20
13.3350
 30
0.0000
 41
1.8796
 42
1.8796
 43
1.0000
 50
270.0000
  0
POINT
  8
23
 10
11.4300
 20
33.0200
 30
0.0000
  0
POLYLINE
  8
21
 66
1
 10
0.0000
 20
0.0000
 30
0.0000
 40
0.2032
 41
0.2032
 70
0
  0
VERTEX
  8
21
 10
13.9700
 20
31.1150
 30
0.0000
  0
VERTEX
  8
21
 10
13.9700
 20
34.9250
 30
0.0000
  0
SEQEND
  8
0
  0
POLYLINE
  8
21
 66
1
 10
0.0000
 20
0.0000
 30
0.0000
 40
0.1016
 41
0.1016
 70
0
  0
VERTEX
  8
21
 10
14.0208
 20
34.9250
 30
0.0000
 42
1.0000
  0
VERTEX
  8
21
 10
13.9192
 20
34.9250
 30
0.0000
  0
SEQEND
  8
0
  0
POLYLINE
  8
21
 66
1
 10
0.0000
 20
0.0000
 30
0.0000
 40
0.1016
 41
0.1016
 70
0
  0
VERTEX
  8
21
 10
13.9192
 20
31.1150
 30
0.0000
 42
1.0000
  0
VERTEX
  8
21
 10
14.0208
 20
31.1150
 30
0.0000
  0
SEQEND
  8
0
  0
POLYLINE
  8
21
 66
1
 10
0.0000
 20
0.0000
 30
0.0000
 40
0.2540
 41
0.2540
 70
0
  0
VERTEX
  8
21
 10
13.9700
 20
34.9250
 30
0.0000
 42
3.0000
  0
VERTEX
  8
21
 10
13.9700
 20
31.1150
 30
0.0000
  0
SEQEND
  8
0
  0
POLYLINE
  8
51
 66
1
 10
0.0000
 20
0.0000
 30
0.0000
 40
0.1524
 41
0.1524
 70
0
  0
VERTEX
  8
51
 10
11.4300
 20
34.1630
 30
0.0000
 42
0.4142
  0
VERTEX
  8
51
 10
10.2870
 20
33.0200
 30
0.0000
  0
SEQEND
  8
0
  0
POLYLINE
  8
51
 66
1
 10
0.0000
 20
0.0000
 30
0.0000
 40
0.1524
 41
0.1524
 70
0
  0
VERTEX
  8
51
 10
11.4300
 20
31.8770
 30
0.0000
 42
0.4142
  0
VERTEX
  8
51
 10
12.5730
 20
33.0200
 30
0.0000
  0
SEQEND
  8
0
  0
POLYLINE
  8
51
 66
1
 10
0.0000
 20
0.0000
 30
0.0000
 40
0.1524
 41
0.1524
 70
0
  0
VERTEX
  8
51
 10
11.4300
 20
34.6710
 30
0.0000
 42
0.4142
  0
VERTEX
  8
51
 10
9.7790
 20
33.0200
 30
0.0000
  0
SEQEND
  8
0
  0
POLYLINE
  8
51
 66
1
 10
0.0000
 20
0.0000
 30
0.0000
 40
0.1524
 41
0.1524
 70
0
  0
VERTEX
  8
51
 10
11.4300
 20
31.3690
 30
0.0000
 42
0.4142
  0
VERTEX
  8
51
 10
13.0810
 20
33.0200
 30
0.0000
  0
SEQEND
  8
0
  0
POLYLINE
  8
51
 66
1
 10
0.0000
 20
0.0000
 30
0.0000
 40
0.1524
 41
0.1524
 70
0
  0
VERTEX
  8
51
 10
11.4300
 20
35.1790
 30
0.0000
 42
0.4142
  0
VERTEX
  8
51
 10
9.2710
 20
33.0200
 30
0.0000
  0
SEQEND
  8
0
  0
POLYLINE
  8
51
 66
1
 10
0.0000
 20
0.0000
 30
0.0000
 40
0.1524
 41
0.1524
 70
0
  0
VERTEX
  8
51
 10
11.4300
 20
30.8610
 30
0.0000
 42
0.4142
  0
VERTEX
  8
51
 10
13.5890
 20
33.0200
 30
0.0000
  0
SEQEND
  8
0
  0
POLYLINE
  8
25
 66
1
 10
0.0000
 20
0.0000
 30
0.0000
 40
0.1270
 41
0.1270
 70
0
  0
VERTEX
  8
25
 10
14.6685
 20
34.7609
 30
0.0000
  0
VERTEX
  8
25
 10
14.6685
 20
33.6169
 30
0.0000
  0
SEQEND
  8
0
  0
POLYLINE
  8
25
 66
1
 10
0.0000
 20
0.0000
 30
0.0000
 40
0.0635
 41
0.0635
 70
0
  0
VERTEX
  8
25
 10
14.6367
 20
33.6169
 30
0.0000
 42
1.0000
  0
VERTEX
  8
25
 10
14.7003
 20
33.6169
 30
0.0000
  0
SEQEND
  8
0
  0
POLYLINE
  8
25
 66
1
 10
0.0000
 20
0.0000
 30
0.0000
 40
0.0635
 41
0.0635
 70
0
  0
VERTEX
  8
25
 10
14.7003
 20
34.7609
 30
0.0000
 42
1.0000
  0
VERTEX
  8
25
 10
14.6367
 20
34.7609
 30
0.0000
  0
SEQEND
  8
0
  0
POLYLINE
  8
25
 66
1
 10
0.0000
 20
0.0000
 30
0.0000
 40
0.1270
 41
0.1270
 70
0
  0
VERTEX
  8
25
 10
14.6685
 20
33.6169
 30
0.0000
  0
VERTEX
  8
25
 10
15.4312
 20
33.6169
 30
0.0000
  0
SEQEND
  8
0
  0
POLYLINE
  8
25
 66
1
 10
0.0000
 20
0.0000
 30
0.0000
 40
0.0635
 41
0.0635
 70
0
  0
VERTEX
  8
25
 10
15.4312
 20
33.5851
 30
0.0000
 42
1.0000
  0
VERTEX
  8
25
 10
15.4312
 20
33.6487
 30
0.0000
  0
SEQEND
  8
0
  0
POLYLINE
  8
25
 66
1
 10
0.0000
 20
0.0000
 30
0.0000
 40
0.0635
 41
0.0635
 70
0
  0
VERTEX
  8
25
 10
14.6685
 20
33.6487
 30
0.0000
 42
1.0000
  0
VERTEX
  8
25
 10
14.6685
 20
33.5851
 30
0.0000
  0
SEQEND
  8
0
  0
POLYLINE
  8
25
 66
1
 10
0.0000
 20
0.0000
 30
0.0000
 40
0.1270
 41
0.1270
 70
0
  0
VERTEX
  8
25
 10
16.6005
 20
34.7609
 30
0.0000
  0
VERTEX
  8
25
 10
15.8379
 20
34.7609
 30
0.0000
  0
SEQEND
  8
0
  0
POLYLINE
  8
25
 66
1
 10
0.0000
 20
0.0000
 30
0.0000
 40
0.0635
 41
0.0635
 70
0
  0
VERTEX
  8
25
 10
15.8379
 20
34.7926
 30
0.0000
 42
1.0000
  0
VERTEX
  8
25
 10
15.8379
 20
34.7291
 30
0.0000
  0
SEQEND
  8
0
  0
POLYLINE
  8
25
 66
1
 10
0.0000
 20
0.0000
 30
0.0000
 40
0.0635
 41
0.0635
 70
0
  0
VERTEX
  8
25
 10
16.6005
 20
34.7291
 30
0.0000
 42
1.0000
  0
VERTEX
  8
25
 10
16.6005
 20
34.7926
 30
0.0000
  0
SEQEND
  8
0
  0
POLYLINE
  8
25
 66
1
 10
0.0000
 20
0.0000
 30
0.0000
 40
0.1270
 41
0.1270
 70
0
  0
VERTEX
  8
25
 10
15.8379
 20
34.7609
 30
0.0000
  0
VERTEX
  8
25
 10
15.8379
 20
33.6169
 30
0.0000
  0
SEQEND
  8
0
  0
POLYLINE
  8
25
 66
1
 10
0.0000
 20
0.0000
 30
0.0000
 40
0.0635
 41
0.0635
 70
0
  0
VERTEX
  8
25
 10
15.8061
 20
33.6169
 30
0.0000
 42
1.0000
  0
VERTEX
  8
25
 10
15.8696
 20
33.6169
 30
0.0000
  0
SEQEND
  8
0
  0
POLYLINE
  8
25
 66
1
 10
0.0000
 20
0.0000
 30
0.0000
 40
0.0635
 41
0.0635
 70
0
  0
VERTEX
  8
25
 10
15.8696
 20
34.7609
 30
0.0000
 42
1.0000
  0
VERTEX
  8
25
 10
15.8061
 20
34.7609
 30
0.0000
  0
SEQEND
  8
0
  0
POLYLINE
  8
25
 66
1
 10
0.0000
 20
0.0000
 30
0.0000
 40
0.1270
 41
0.1270
 70
0
  0
VERTEX
  8
25
 10
15.8379
 20
33.6169
 30
0.0000
  0
VERTEX
  8
25
 10
16.6005
 20
33.6169
 30
0.0000
  0
SEQEND
  8
0
  0
POLYLINE
  8
25
 66
1
 10
0.0000
 20
0.0000
 30
0.0000
 40
0.0635
 41
0.0635
 70
0
  0
VERTEX
  8
25
 10
16.6005
 20
33.5851
 30
0.0000
 42
1.0000
  0
VERTEX
  8
25
 10
16.6005
 20
33.6487
 30
0.0000
  0
SEQEND
  8
0
  0
POLYLINE
  8
25
 66
1
 10
0.0000
 20
0.0000
 30
0.0000
 40
0.0635
 41
0.0635
 70
0
  0
VERTEX
  8
25
 10
15.8379
 20
33.6487
 30
0.0000
 42
1.0000
  0
VERTEX
  8
25
 10
15.8379
 20
33.5851
 30
0.0000
  0
SEQEND
  8
0
  0
POLYLINE
  8
25
 66
1
 10
0.0000
 20
0.0000
 30
0.0000
 40
0.1270
 41
0.1270
 70
0
  0
VERTEX
  8
25
 10
15.8379
 20
34.1889
 30
0.0000
  0
VERTEX
  8
25
 10
16.2192
 20
34.1889
 30
0.0000
  0
SEQEND
  8
0
  0
POLYLINE
  8
25
 66
1
 10
0.0000
 20
0.0000
 30
0.0000
 40
0.0635
 41
0.0635
 70
0
  0
VERTEX
  8
25
 10
16.2192
 20
34.1571
 30
0.0000
 42
1.0000
  0
VERTEX
  8
25
 10
16.2192
 20
34.2206
 30
0.0000
  0
SEQEND
  8
0
  0
POLYLINE
  8
25
 66
1
 10
0.0000
 20
0.0000
 30
0.0000
 40
0.0635
 41
0.0635
 70
0
  0
VERTEX
  8
25
 10
15.8379
 20
34.2206
 30
0.0000
 42
1.0000
  0
VERTEX
  8
25
 10
15.8379
 20
34.1571
 30
0.0000
  0
SEQEND
  8
0
  0
POLYLINE
  8
25
 66
1
 10
0.0000
 20
0.0000
 30
0.0000
 40
0.1270
 41
0.1270
 70
0
  0
VERTEX
  8
25
 10
17.0073
 20
34.7609
 30
0.0000
  0
VERTEX
  8
25
 10
17.0073
 20
33.6169
 30
0.0000
  0
SEQEND
  8
0
  0
POLYLINE
  8
25
 66
1
 10
0.0000
 20
0.0000
 30
0.0000
 40
0.0635
 41
0.0635
 70
0
  0
VERTEX
  8
25
 10
16.9755
 20
33.6169
 30
0.0000
 42
1.0000
  0
VERTEX
  8
25
 10
17.0390
 20
33.6169
 30
0.0000
  0
SEQEND
  8
0
  0
POLYLINE
  8
25
 66
1
 10
0.0000
 20
0.0000
 30
0.0000
 40
0.0635
 41
0.0635
 70
0
  0
VERTEX
  8
25
 10
17.0390
 20
34.7609
 30
0.0000
 42
1.0000
  0
VERTEX
  8
25
 10
16.9755
 20
34.7609
 30
0.0000
  0
SEQEND
  8
0
  0
POLYLINE
  8
25
 66
1
 10
0.0000
 20
0.0000
 30
0.0000
 40
0.1270
 41
0.1270
 70
0
  0
VERTEX
  8
25
 10
17.0073
 20
33.6169
 30
0.0000
  0
VERTEX
  8
25
 10
17.5793
 20
33.6169
 30
0.0000
  0
SEQEND
  8
0
  0
POLYLINE
  8
25
 66
1
 10
0.0000
 20
0.0000
 30
0.0000
 40
0.0635
 41
0.0635
 70
0
  0
VERTEX
  8
25
 10
17.5793
 20
33.5851
 30
0.0000
 42
1.0000
  0
VERTEX
  8
25
 10
17.5793
 20
33.6487
 30
0.0000
  0
SEQEND
  8
0
  0
POLYLINE
  8
25
 66
1
 10
0.0000
 20
0.0000
 30
0.0000
 40
0.0635
 41
0.0635
 70
0
  0
VERTEX
  8
25
 10
17.0073
 20
33.6487
 30
0.0000
 42
1.0000
  0
VERTEX
  8
25
 10
17.0073
 20
33.5851
 30
0.0000
  0
SEQEND
  8
0
  0
POLYLINE
  8
25
 66
1
 10
0.0000
 20
0.0000
 30
0.0000
 40
0.1270
 41
0.1270
 70
0
  0
VERTEX
  8
25
 10
17.5793
 20
33.6169
 30
0.0000
  0
VERTEX
  8
25
 10
17.7699
 20
33.8076
 30
0.0000
  0
SEQEND
  8
0
  0
POLYLINE
  8
25
 66
1
 10
0.0000
 20
0.0000
 30
0.0000
 40
0.0635
 41
0.0635
 70
0
  0
VERTEX
  8
25
 10
17.7924
 20
33.7851
 30
0.0000
 42
1.0000
  0
VERTEX
  8
25
 10
17.7475
 20
33.8300
 30
0.0000
  0
SEQEND
  8
0
  0
POLYLINE
  8
25
 66
1
 10
0.0000
 20
0.0000
 30
0.0000
 40
0.0635
 41
0.0635
 70
0
  0
VERTEX
  8
25
 10
17.5568
 20
33.6394
 30
0.0000
 42
1.0000
  0
VERTEX
  8
25
 10
17.6017
 20
33.5944
 30
0.0000
  0
SEQEND
  8
0
  0
POLYLINE
  8
25
 66
1
 10
0.0000
 20
0.0000
 30
0.0000
 40
0.1270
 41
0.1270
 70
0
  0
VERTEX
  8
25
 10
17.7699
 20
33.8076
 30
0.0000
  0
VERTEX
  8
25
 10
17.7699
 20
34.5702
 30
0.0000
  0
SEQEND
  8
0
  0
POLYLINE
  8
25
 66
1
 10
0.0000
 20
0.0000
 30
0.0000
 40
0.0635
 41
0.0635
 70
0
  0
VERTEX
  8
25
 10
17.8017
 20
34.5702
 30
0.0000
 42
1.0000
  0
VERTEX
  8
25
 10
17.7382
 20
34.5702
 30
0.0000
  0
SEQEND
  8
0
  0
POLYLINE
  8
25
 66
1
 10
0.0000
 20
0.0000
 30
0.0000
 40
0.0635
 41
0.0635
 70
0
  0
VERTEX
  8
25
 10
17.7382
 20
33.8076
 30
0.0000
 42
1.0000
  0
VERTEX
  8
25
 10
17.8017
 20
33.8076
 30
0.0000
  0
SEQEND
  8
0
  0
POLYLINE
  8
25
 66
1
 10
0.0000
 20
0.0000
 30
0.0000
 40
0.1270
 41
0.1270
 70
0
  0
VERTEX
  8
25
 10
17.7699
 20
34.5702
 30
0.0000
  0
VERTEX
  8
25
 10
17.5793
 20
34.7609
 30
0.0000
  0
SEQEND
  8
0
  0
POLYLINE
  8
25
 66
1
 10
0.0000
 20
0.0000
 30
0.0000
 40
0.0635
 41
0.0635
 70
0
  0
VERTEX
  8
25
 10
17.6017
 20
34.7833
 30
0.0000
 42
1.0000
  0
VERTEX
  8
25
 10
17.5568
 20
34.7384
 30
0.0000
  0
SEQEND
  8
0
  0
POLYLINE
  8
25
 66
1
 10
0.0000
 20
0.0000
 30
0.0000
 40
0.0635
 41
0.0635
 70
0
  0
VERTEX
  8
25
 10
17.7475
 20
34.5478
 30
0.0000
 42
1.0000
  0
VERTEX
  8
25
 10
17.7924
 20
34.5927
 30
0.0000
  0
SEQEND
  8
0
  0
POLYLINE
  8
25
 66
1
 10
0.0000
 20
0.0000
 30
0.0000
 40
0.1270
 41
0.1270
 70
0
  0
VERTEX
  8
25
 10
17.5793
 20
34.7609
 30
0.0000
  0
VERTEX
  8
25
 10
17.0073
 20
34.7609
 30
0.0000
  0
SEQEND
  8
0
  0
POLYLINE
  8
25
 66
1
 10
0.0000
 20
0.0000
 30
0.0000
 40
0.0635
 41
0.0635
 70
0
  0
VERTEX
  8
25
 10
17.0073
 20
34.7926
 30
0.0000
 42
1.0000
  0
VERTEX
  8
25
 10
17.0073
 20
34.7291
 30
0.0000
  0
SEQEND
  8
0
  0
POLYLINE
  8
25
 66
1
 10
0.0000
 20
0.0000
 30
0.0000
 40
0.0635
 41
0.0635
 70
0
  0
VERTEX
  8
25
 10
17.5793
 20
34.7291
 30
0.0000
 42
1.0000
  0
VERTEX
  8
25
 10
17.5793
 20
34.7926
 30
0.0000
  0
SEQEND
  8
0
  0
POLYLINE
  8
25
 66
1
 10
0.0000
 20
0.0000
 30
0.0000
 40
0.1270
 41
0.1270
 70
0
  0
VERTEX
  8
25
 10
18.1767
 20
34.3796
 30
0.0000
  0
VERTEX
  8
25
 10
18.5580
 20
34.7609
 30
0.0000
  0
SEQEND
  8
0
  0
POLYLINE
  8
25
 66
1
 10
0.0000
 20
0.0000
 30
0.0000
 40
0.0635
 41
0.0635
 70
0
  0
VERTEX
  8
25
 10
18.5805
 20
34.7384
 30
0.0000
 42
1.0000
  0
VERTEX
  8
25
 10
18.5356
 20
34.7833
 30
0.0000
  0
SEQEND
  8
0
  0
POLYLINE
  8
25
 66
1
 10
0.0000
 20
0.0000
 30
0.0000
 40
0.0635
 41
0.0635
 70
0
  0
VERTEX
  8
25
 10
18.1542
 20
34.4020
 30
0.0000
 42
1.0000
  0
VERTEX
  8
25
 10
18.1991
 20
34.3571
 30
0.0000
  0
SEQEND
  8
0
  0
POLYLINE
  8
25
 66
1
 10
0.0000
 20
0.0000
 30
0.0000
 40
0.1270
 41
0.1270
 70
0
  0
VERTEX
  8
25
 10
18.5580
 20
34.7609
 30
0.0000
  0
VERTEX
  8
25
 10
18.5580
 20
33.6169
 30
0.0000
  0
SEQEND
  8
0
  0
POLYLINE
  8
25
 66
1
 10
0.0000
 20
0.0000
 30
0.0000
 40
0.0635
 41
0.0635
 70
0
  0
VERTEX
  8
25
 10
18.5263
 20
33.6169
 30
0.0000
 42
1.0000
  0
VERTEX
  8
25
 10
18.5898
 20
33.6169
 30
0.0000
  0
SEQEND
  8
0
  0
POLYLINE
  8
25
 66
1
 10
0.0000
 20
0.0000
 30
0.0000
 40
0.0635
 41
0.0635
 70
0
  0
VERTEX
  8
25
 10
18.5898
 20
34.7609
 30
0.0000
 42
1.0000
  0
VERTEX
  8
25
 10
18.5263
 20
34.7609
 30
0.0000
  0
SEQEND
  8
0
  0
POLYLINE
  8
25
 66
1
 10
0.0000
 20
0.0000
 30
0.0000
 40
0.1270
 41
0.1270
 70
0
  0
VERTEX
  8
25
 10
18.1767
 20
33.6169
 30
0.0000
  0
VERTEX
  8
25
 10
18.9393
 20
33.6169
 30
0.0000
  0
SEQEND
  8
0
  0
POLYLINE
  8
25
 66
1
 10
0.0000
 20
0.0000
 30
0.0000
 40
0.0635
 41
0.0635
 70
0
  0
VERTEX
  8
25
 10
18.9393
 20
33.5851
 30
0.0000
 42
1.0000
  0
VERTEX
  8
25
 10
18.9393
 20
33.6487
 30
0.0000
  0
SEQEND
  8
0
  0
POLYLINE
  8
25
 66
1
 10
0.0000
 20
0.0000
 30
0.0000
 40
0.0635
 41
0.0635
 70
0
  0
VERTEX
  8
25
 10
18.1767
 20
33.6487
 30
0.0000
 42
1.0000
  0
VERTEX
  8
25
 10
18.1767
 20
33.5851
 30
0.0000
  0
SEQEND
  8
0
  0
POLYLINE
  8
21
 66
1
 10
0.0000
 20
0.0000
 30
0.0000
 40
0.1524
 41
0.1524
 70
0
  0
VERTEX
  8
21
 10
11.4300
 20
30.4800
 30
0.0000
 42
1.0000
  0
VERTEX
  8
21
 10
11.4300
 20
35.5600
 30
0.0000
 42
1.0000
  0
VERTEX
  8
21
 10
11.4300
 20
30.4800
 30
0.0000
  0
SEQEND
  8
0
  0
INSERT
  8
17
  2
OCTAGONP
 10
10.1600
 20
33.0200
 30
0.0000
 41
1.6764
 42
1.6764
 43
1.0000
 50
0.0000
  0
INSERT
  8
17
  2
OCTAGONP
 10
10.1600
 20
33.0200
 30
0.0000
 41
1.6764
 42
1.6764
 43
1.0000
 50
0.0000
  0
INSERT
  8
17
  2
OCTAGONP
 10
12.7000
 20
33.0200
 30
0.0000
 41
1.6764
 42
1.6764
 43
1.0000
 50
0.0000
  0
INSERT
  8
17
  2
OCTAGONP
 10
12.7000
 20
33.0200
 30
0.0000
 41
1.6764
 42
1.6764
 43
1.0000
 50
0.0000
  0
POINT
  8
23
 10
19.0500
 20
33.0200
 30
0.0000
  0
POLYLINE
  8
21
 66
1
 10
0.0000
 20
0.0000
 30
0.0000
 40
0.2032
 41
0.2032
 70
0
  0
VERTEX
  8
21
 10
21.5900
 20
31.1150
 30
0.0000
  0
VERTEX
  8
21
 10
21.5900
 20
34.9250
 30
0.0000
  0
SEQEND
  8
0
  0
POLYLINE
  8
21
 66
1
 10
0.0000
 20
0.0000
 30
0.0000
 40
0.1016
 41
0.1016
 70
0
  0
VERTEX
  8
21
 10
21.6408
 20
34.9250
 30
0.0000
 42
1.0000
  0
VERTEX
  8
21
 10
21.5392
 20
34.9250
 30
0.0000
  0
SEQEND
  8
0
  0
POLYLINE
  8
21
 66
1
 10
0.0000
 20
0.0000
 30
0.0000
 40
0.1016
 41
0.1016
 70
0
  0
VERTEX
  8
21
 10
21.5392
 20
31.1150
 30
0.0000
 42
1.0000
  0
VERTEX
  8
21
 10
21.6408
 20
31.1150
 30
0.0000
  0
SEQEND
  8
0
  0
POLYLINE
  8
21
 66
1
 10
0.0000
 20
0.0000
 30
0.0000
 40
0.2540
 41
0.2540
 70
0
  0
VERTEX
  8
21
 10
21.5900
 20
34.9250
 30
0.0000
 42
3.0000
  0
VERTEX
  8
21
 10
21.5900
 20
31.1150
 30
0.0000
  0
SEQEND
  8
0
  0
POLYLINE
  8
51
 66
1
 10
0.0000
 20
0.0000
 30
0.0000
 40
0.1524
 41
0.1524
 70
0
  0
VERTEX
  8
51
 10
19.0500
 20
34.1630
 30
0.0000
 42
0.4142
  0
VERTEX
  8
51
 10
17.9070
 20
33.0200
 30
0.0000
  0
SEQEND
  8
0
  0
POLYLINE
  8
51
 66
1
 10
0.0000
 20
0.0000
 30
0.0000
 40
0.1524
 41
0.1524
 70
0
  0
VERTEX
  8
51
 10
19.0500
 20
31.8770
 30
0.0000
 42
0.4142
  0
VERTEX
  8
51
 10
20.1930
 20
33.0200
 30
0.0000
  0
SEQEND
  8
0
  0
POLYLINE
  8
51
 66
1
 10
0.0000
 20
0.0000
 30
0.0000
 40
0.1524
 41
0.1524
 70
0
  0
VERTEX
  8
51
 10
19.0500
 20
34.6710
 30
0.0000
 42
0.4142
  0
VERTEX
  8
51
 10
17.3990
 20
33.0200
 30
0.0000
  0
SEQEND
  8
0
  0
POLYLINE
  8
51
 66
1
 10
0.0000
 20
0.0000
 30
0.0000
 40
0.1524
 41
0.1524
 70
0
  0
VERTEX
  8
51
 10
19.0500
 20
31.3690
 30
0.0000
 42
0.4142
  0
VERTEX
  8
51
 10
20.7010
 20
33.0200
 30
0.0000
  0
SEQEND
  8
0
  0
POLYLINE
  8
51
 66
1
 10
0.0000
 20
0.0000
 30
0.0000
 40
0.1524
 41
0.1524
 70
0
  0
VERTEX
  8
51
 10
19.0500
 20
35.1790
 30
0.0000
 42
0.4142
  0
VERTEX
  8
51
 10
16.8910
 20
33.0200
 30
0.0000
  0
SEQEND
  8
0
  0
POLYLINE
  8
51
 66
1
 10
0.0000
 20
0.0000
 30
0.0000
 40
0.1524
 41
0.1524
 70
0
  0
VERTEX
  8
51
 10
19.0500
 20
30.8610
 30
0.0000
 42
0.4142
  0
VERTEX
  8
51
 10
21.2090
 20
33.0200
 30
0.0000
  0
SEQEND
  8
0
  0
POLYLINE
  8
25
 66
1
 10
0.0000
 20
0.0000
 30
0.0000
 40
0.1270
 41
0.1270
 70
0
  0
VERTEX
  8
25
 10
22.2885
 20
34.7609
 30
0.0000
  0
VERTEX
  8
25
 10
22.2885
 20
33.6169
 30
0.0000
  0
SEQEND
  8
0
  0
POLYLINE
  8
25
 66
1
 10
0.0000
 20
0.0000
 30
0.0000
 40
0.0635
 41
0.0635
 70
0
  0
VERTEX
  8
25
 10
22.2568
 20
33.6169
 30
0.0000
 42
1.0000
  0
VERTEX
  8
25
 10
22.3203
 20
33.6169
 30
0.0000
  0
SEQEND
  8
0
  0
POLYLINE
  8
25
 66
1
 10
0.0000
 20
0.0000
 30
0.0000
 40
0.0635
 41
0.0635
 70
0
  0
VERTEX
  8
25
 10
22.3203
 20
34.7609
 30
0.0000
 42
1.0000
  0
VERTEX
  8
25
 10
22.2568
 20
34.7609
 30
0.0000
  0
SEQEND
  8
0
  0
POLYLINE
  8
25
 66
1
 10
0.0000
 20
0.0000
 30
0.0000
 40
0.1270
 41
0.1270
 70
0
  0
VERTEX
  8
25
 10
22.2885
 20
33.6169
 30
0.0000
  0
VERTEX
  8
25
 10
23.0511
 20
33.6169
 30
0.0000
  0
SEQEND
  8
0
  0
POLYLINE
  8
25
 66
1
 10
0.0000
 20
0.0000
 30
0.0000
 40
0.0635
 41
0.0635
 70
0
  0
VERTEX
  8
25
 10
23.0511
 20
33.5851
 30
0.0000
 42
1.0000
  0
VERTEX
  8
25
 10
23.0511
 20
33.6487
 30
0.0000
  0
SEQEND
  8
0
  0
POLYLINE
  8
25
 66
1
 10
0.0000
 20
0.0000
 30
0.0000
 40
0.0635
 41
0.0635
 70
0
  0
VERTEX
  8
25
 10
22.2885
 20
33.6487
 30
0.0000
 42
1.0000
  0
VERTEX
  8
25
 10
22.2885
 20
33.5851
 30
0.0000
  0
SEQEND
  8
0
  0
POLYLINE
  8
25
 66
1
 10
0.0000
 20
0.0000
 30
0.0000
 40
0.1270
 41
0.1270
 70
0
  0
VERTEX
  8
25
 10
24.2205
 20
34.7609
 30
0.0000
  0
VERTEX
  8
25
 10
23.4579
 20
34.7609
 30
0.0000
  0
SEQEND
  8
0
  0
POLYLINE
  8
25
 66
1
 10
0.0000
 20
0.0000
 30
0.0000
 40
0.0635
 41
0.0635
 70
0
  0
VERTEX
  8
25
 10
23.4579
 20
34.7926
 30
0.0000
 42
1.0000
  0
VERTEX
  8
25
 10
23.4579
 20
34.7291
 30
0.0000
  0
SEQEND
  8
0
  0
POLYLINE
  8
25
 66
1
 10
0.0000
 20
0.0000
 30
0.0000
 40
0.0635
 41
0.0635
 70
0
  0
VERTEX
  8
25
 10
24.2205
 20
34.7291
 30
0.0000
 42
1.0000
  0
VERTEX
  8
25
 10
24.2205
 20
34.7926
 30
0.0000
  0
SEQEND
  8
0
  0
POLYLINE
  8
25
 66
1
 10
0.0000
 20
0.0000
 30
0.0000
 40
0.1270
 41
0.1270
 70
0
  0
VERTEX
  8
25
 10
23.4579
 20
34.7609
 30
0.0000
  0
VERTEX
  8
25
 10
23.4579
 20
33.6169
 30
0.0000
  0
SEQEND
  8
0
  0
POLYLINE
  8
25
 66
1
 10
0.0000
 20
0.0000
 30
0.0000
 40
0.0635
 41
0.0635
 70
0
  0
VERTEX
  8
25
 10
23.4261
 20
33.6169
 30
0.0000
 42
1.0000
  0
VERTEX
  8
25
 10
23.4896
 20
33.6169
 30
0.0000
  0
SEQEND
  8
0
  0
POLYLINE
  8
25
 66
1
 10
0.0000
 20
0.0000
 30
0.0000
 40
0.0635
 41
0.0635
 70
0
  0
VERTEX
  8
25
 10
23.4896
 20
34.7609
 30
0.0000
 42
1.0000
  0
VERTEX
  8
25
 10
23.4261
 20
34.7609
 30
0.0000
  0
SEQEND
  8
0
  0
POLYLINE
  8
25
 66
1
 10
0.0000
 20
0.0000
 30
0.0000
 40
0.1270
 41
0.1270
 70
0
  0
VERTEX
  8
25
 10
23.4579
 20
33.6169
 30
0.0000
  0
VERTEX
  8
25
 10
24.2205
 20
33.6169
 30
0.0000
  0
SEQEND
  8
0
  0
POLYLINE
  8
25
 66
1
 10
0.0000
 20
0.0000
 30
0.0000
 40
0.0635
 41
0.0635
 70
0
  0
VERTEX
  8
25
 10
24.2205
 20
33.5851
 30
0.0000
 42
1.0000
  0
VERTEX
  8
25
 10
24.2205
 20
33.6487
 30
0.0000
  0
SEQEND
  8
0
  0
POLYLINE
  8
25
 66
1
 10
0.0000
 20
0.0000
 30
0.0000
 40
0.0635
 41
0.0635
 70
0
  0
VERTEX
  8
25
 10
23.4579
 20
33.6487
 30
0.0000
 42
1.0000
  0
VERTEX
  8
25
 10
23.4579
 20
33.5851
 30
0.0000
  0
SEQEND
  8
0
  0
POLYLINE
  8
25
 66
1
 10
0.0000
 20
0.0000
 30
0.0000
 40
0.1270
 41
0.1270
 70
0
  0
VERTEX
  8
25
 10
23.4579
 20
34.1889
 30
0.0000
  0
VERTEX
  8
25
 10
23.8392
 20
34.1889
 30
0.0000
  0
SEQEND
  8
0
  0
POLYLINE
  8
25
 66
1
 10
0.0000
 20
0.0000
 30
0.0000
 40
0.0635
 41
0.0635
 70
0
  0
VERTEX
  8
25
 10
23.8392
 20
34.1571
 30
0.0000
 42
1.0000
  0
VERTEX
  8
25
 10
23.8392
 20
34.2206
 30
0.0000
  0
SEQEND
  8
0
  0
POLYLINE
  8
25
 66
1
 10
0.0000
 20
0.0000
 30
0.0000
 40
0.0635
 41
0.0635
 70
0
  0
VERTEX
  8
25
 10
23.4579
 20
34.2206
 30
0.0000
 42
1.0000
  0
VERTEX
  8
25
 10
23.4579
 20
34.1571
 30
0.0000
  0
SEQEND
  8
0
  0
POLYLINE
  8
25
 66
1
 10
0.0000
 20
0.0000
 30
0.0000
 40
0.1270
 41
0.1270
 70
0
  0
VERTEX
  8
25
 10
24.6273
 20
34.7609
 30
0.0000
  0
VERTEX
  8
25
 10
24.6273
 20
33.6169
 30
0.0000
  0
SEQEND
  8
0
  0
POLYLINE
  8
25
 66
1
 10
0.0000
 20
0.0000
 30
0.0000
 40
0.0635
 41
0.0635
 70
0
  0
VERTEX
  8
25
 10
24.5955
 20
33.6169
 30
0.0000
 42
1.0000
  0
VERTEX
  8
25
 10
24.6590
 20
33.6169
 30
0.0000
  0
SEQEND
  8
0
  0
POLYLINE
  8
25
 66
1
 10
0.0000
 20
0.0000
 30
0.0000
 40
0.0635
 41
0.0635
 70
0
  0
VERTEX
  8
25
 10
24.6590
 20
34.7609
 30
0.0000
 42
1.0000
  0
VERTEX
  8
25
 10
24.5955
 20
34.7609
 30
0.0000
  0
SEQEND
  8
0
  0
POLYLINE
  8
25
 66
1
 10
0.0000
 20
0.0000
 30
0.0000
 40
0.1270
 41
0.1270
 70
0
  0
VERTEX
  8
25
 10
24.6273
 20
33.6169
 30
0.0000
  0
VERTEX
  8
25
 10
25.1993
 20
33.6169
 30
0.0000
  0
SEQEND
  8
0
  0
POLYLINE
  8
25
 66
1
 10
0.0000
 20
0.0000
 30
0.0000
 40
0.0635
 41
0.0635
 70
0
  0
VERTEX
  8
25
 10
25.1993
 20
33.5851
 30
0.0000
 42
1.0000
  0
VERTEX
  8
25
 10
25.1993
 20
33.6487
 30
0.0000
  0
SEQEND
  8
0
  0
POLYLINE
  8
25
 66
1
 10
0.0000
 20
0.0000
 30
0.0000
 40
0.0635
 41
0.0635
 70
0
  0
VERTEX
  8
25
 10
24.6273
 20
33.6487
 30
0.0000
 42
1.0000
  0
VERTEX
  8
25
 10
24.6273
 20
33.5851
 30
0.0000
  0
SEQEND
  8
0
  0
POLYLINE
  8
25
 66
1
 10
0.0000
 20
0.0000
 30
0.0000
 40
0.1270
 41
0.1270
 70
0
  0
VERTEX
  8
25
 10
25.1993
 20
33.6169
 30
0.0000
  0
VERTEX
  8
25
 10
25.3899
 20
33.8076
 30
0.0000
  0
SEQEND
  8
0
  0
POLYLINE
  8
25
 66
1
 10
0.0000
 20
0.0000
 30
0.0000
 40
0.0635
 41
0.0635
 70
0
  0
VERTEX
  8
25
 10
25.4124
 20
33.7851
 30
0.0000
 42
1.0000
  0
VERTEX
  8
25
 10
25.3675
 20
33.8300
 30
0.0000
  0
SEQEND
  8
0
  0
POLYLINE
  8
25
 66
1
 10
0.0000
 20
0.0000
 30
0.0000
 40
0.0635
 41
0.0635
 70
0
  0
VERTEX
  8
25
 10
25.1768
 20
33.6394
 30
0.0000
 42
1.0000
  0
VERTEX
  8
25
 10
25.2217
 20
33.5944
 30
0.0000
  0
SEQEND
  8
0
  0
POLYLINE
  8
25
 66
1
 10
0.0000
 20
0.0000
 30
0.0000
 40
0.1270
 41
0.1270
 70
0
  0
VERTEX
  8
25
 10
25.3899
 20
33.8076
 30
0.0000
  0
VERTEX
  8
25
 10
25.3899
 20
34.5702
 30
0.0000
  0
SEQEND
  8
0
  0
POLYLINE
  8
25
 66
1
 10
0.0000
 20
0.0000
 30
0.0000
 40
0.0635
 41
0.0635
 70
0
  0
VERTEX
  8
25
 10
25.4217
 20
34.5702
 30
0.0000
 42
1.0000
  0
VERTEX
  8
25
 10
25.3582
 20
34.5702
 30
0.0000
  0
SEQEND
  8
0
  0
POLYLINE
  8
25
 66
1
 10
0.0000
 20
0.0000
 30
0.0000
 40
0.0635
 41
0.0635
 70
0
  0
VERTEX
  8
25
 10
25.3582
 20
33.8076
 30
0.0000
 42
1.0000
  0
VERTEX
  8
25
 10
25.4217
 20
33.8076
 30
0.0000
  0
SEQEND
  8
0
  0
POLYLINE
  8
25
 66
1
 10
0.0000
 20
0.0000
 30
0.0000
 40
0.1270
 41
0.1270
 70
0
  0
VERTEX
  8
25
 10
25.3899
 20
34.5702
 30
0.0000
  0
VERTEX
  8
25
 10
25.1993
 20
34.7609
 30
0.0000
  0
SEQEND
  8
0
  0
POLYLINE
  8
25
 66
1
 10
0.0000
 20
0.0000
 30
0.0000
 40
0.0635
 41
0.0635
 70
0
  0
VERTEX
  8
25
 10
25.2217
 20
34.7833
 30
0.0000
 42
1.0000
  0
VERTEX
  8
25
 10
25.1768
 20
34.7384
 30
0.0000
  0
SEQEND
  8
0
  0
POLYLINE
  8
25
 66
1
 10
0.0000
 20
0.0000
 30
0.0000
 40
0.0635
 41
0.0635
 70
0
  0
VERTEX
  8
25
 10
25.3675
 20
34.5478
 30
0.0000
 42
1.0000
  0
VERTEX
  8
25
 10
25.4124
 20
34.5927
 30
0.0000
  0
SEQEND
  8
0
  0
POLYLINE
  8
25
 66
1
 10
0.0000
 20
0.0000
 30
0.0000
 40
0.1270
 41
0.1270
 70
0
  0
VERTEX
  8
25
 10
25.1993
 20
34.7609
 30
0.0000
  0
VERTEX
  8
25
 10
24.6273
 20
34.7609
 30
0.0000
  0
SEQEND
  8
0
  0
POLYLINE
  8
25
 66
1
 10
0.0000
 20
0.0000
 30
0.0000
 40
0.0635
 41
0.0635
 70
0
  0
VERTEX
  8
25
 10
24.6273
 20
34.7926
 30
0.0000
 42
1.0000
  0
VERTEX
  8
25
 10
24.6273
 20
34.7291
 30
0.0000
  0
SEQEND
  8
0
  0
POLYLINE
  8
25
 66
1
 10
0.0000
 20
0.0000
 30
0.0000
 40
0.0635
 41
0.0635
 70
0
  0
VERTEX
  8
25
 10
25.1993
 20
34.7291
 30
0.0000
 42
1.0000
  0
VERTEX
  8
25
 10
25.1993
 20
34.7926
 30
0.0000
  0
SEQEND
  8
0
  0
POLYLINE
  8
25
 66
1
 10
0.0000
 20
0.0000
 30
0.0000
 40
0.1270
 41
0.1270
 70
0
  0
VERTEX
  8
25
 10
26.5593
 20
33.6169
 30
0.0000
  0
VERTEX
  8
25
 10
25.7967
 20
33.6169
 30
0.0000
  0
SEQEND
  8
0
  0
POLYLINE
  8
25
 66
1
 10
0.0000
 20
0.0000
 30
0.0000
 40
0.0635
 41
0.0635
 70
0
  0
VERTEX
  8
25
 10
25.7967
 20
33.6487
 30
0.0000
 42
1.0000
  0
VERTEX
  8
25
 10
25.7967
 20
33.5851
 30
0.0000
  0
SEQEND
  8
0
  0
POLYLINE
  8
25
 66
1
 10
0.0000
 20
0.0000
 30
0.0000
 40
0.0635
 41
0.0635
 70
0
  0
VERTEX
  8
25
 10
26.5593
 20
33.5851
 30
0.0000
 42
1.0000
  0
VERTEX
  8
25
 10
26.5593
 20
33.6487
 30
0.0000
  0
SEQEND
  8
0
  0
POLYLINE
  8
25
 66
1
 10
0.0000
 20
0.0000
 30
0.0000
 40
0.1270
 41
0.1270
 70
0
  0
VERTEX
  8
25
 10
25.7967
 20
33.6169
 30
0.0000
  0
VERTEX
  8
25
 10
26.5593
 20
34.3796
 30
0.0000
  0
SEQEND
  8
0
  0
POLYLINE
  8
25
 66
1
 10
0.0000
 20
0.0000
 30
0.0000
 40
0.0635
 41
0.0635
 70
0
  0
VERTEX
  8
25
 10
26.5818
 20
34.3571
 30
0.0000
 42
1.0000
  0
VERTEX
  8
25
 10
26.5369
 20
34.4020
 30
0.0000
  0
SEQEND
  8
0
  0
POLYLINE
  8
25
 66
1
 10
0.0000
 20
0.0000
 30
0.0000
 40
0.0635
 41
0.0635
 70
0
  0
VERTEX
  8
25
 10
25.7742
 20
33.6394
 30
0.0000
 42
1.0000
  0
VERTEX
  8
25
 10
25.8191
 20
33.5944
 30
0.0000
  0
SEQEND
  8
0
  0
POLYLINE
  8
25
 66
1
 10
0.0000
 20
0.0000
 30
0.0000
 40
0.1270
 41
0.1270
 70
0
  0
VERTEX
  8
25
 10
26.5593
 20
34.3796
 30
0.0000
  0
VERTEX
  8
25
 10
26.5593
 20
34.5702
 30
0.0000
  0
SEQEND
  8
0
  0
POLYLINE
  8
25
 66
1
 10
0.0000
 20
0.0000
 30
0.0000
 40
0.0635
 41
0.0635
 70
0
  0
VERTEX
  8
25
 10
26.5911
 20
34.5702
 30
0.0000
 42
1.0000
  0
VERTEX
  8
25
 10
26.5276
 20
34.5702
 30
0.0000
  0
SEQEND
  8
0
  0
POLYLINE
  8
25
 66
1
 10
0.0000
 20
0.0000
 30
0.0000
 40
0.0635
 41
0.0635
 70
0
  0
VERTEX
  8
25
 10
26.5276
 20
34.3796
 30
0.0000
 42
1.0000
  0
VERTEX
  8
25
 10
26.5911
 20
34.3796
 30
0.0000
  0
SEQEND
  8
0
  0
POLYLINE
  8
25
 66
1
 10
0.0000
 20
0.0000
 30
0.0000
 40
0.1270
 41
0.1270
 70
0
  0
VERTEX
  8
25
 10
26.5593
 20
34.5702
 30
0.0000
  0
VERTEX
  8
25
 10
26.3687
 20
34.7609
 30
0.0000
  0
SEQEND
  8
0
  0
POLYLINE
  8
25
 66
1
 10
0.0000
 20
0.0000
 30
0.0000
 40
0.0635
 41
0.0635
 70
0
  0
VERTEX
  8
25
 10
26.3911
 20
34.7833
 30
0.0000
 42
1.0000
  0
VERTEX
  8
25
 10
26.3462
 20
34.7384
 30
0.0000
  0
SEQEND
  8
0
  0
POLYLINE
  8
25
 66
1
 10
0.0000
 20
0.0000
 30
0.0000
 40
0.0635
 41
0.0635
 70
0
  0
VERTEX
  8
25
 10
26.5369
 20
34.5478
 30
0.0000
 42
1.0000
  0
VERTEX
  8
25
 10
26.5818
 20
34.5927
 30
0.0000
  0
SEQEND
  8
0
  0
POLYLINE
  8
25
 66
1
 10
0.0000
 20
0.0000
 30
0.0000
 40
0.1270
 41
0.1270
 70
0
  0
VERTEX
  8
25
 10
26.3687
 20
34.7609
 30
0.0000
  0
VERTEX
  8
25
 10
25.9874
 20
34.7609
 30
0.0000
  0
SEQEND
  8
0
  0
POLYLINE
  8
25
 66
1
 10
0.0000
 20
0.0000
 30
0.0000
 40
0.0635
 41
0.0635
 70
0
  0
VERTEX
  8
25
 10
25.9874
 20
34.7926
 30
0.0000
 42
1.0000
  0
VERTEX
  8
25
 10
25.9874
 20
34.7291
 30
0.0000
  0
SEQEND
  8
0
  0
POLYLINE
  8
25
 66
1
 10
0.0000
 20
0.0000
 30
0.0000
 40
0.0635
 41
0.0635
 70
0
  0
VERTEX
  8
25
 10
26.3687
 20
34.7291
 30
0.0000
 42
1.0000
  0
VERTEX
  8
25
 10
26.3687
 20
34.7926
 30
0.0000
  0
SEQEND
  8
0
  0
POLYLINE
  8
25
 66
1
 10
0.0000
 20
0.0000
 30
0.0000
 40
0.1270
 41
0.1270
 70
0
  0
VERTEX
  8
25
 10
25.9874
 20
34.7609
 30
0.0000
  0
VERTEX
  8
25
 10
25.7967
 20
34.5702
 30
0.0000
  0
SEQEND
  8
0
  0
POLYLINE
  8
25
 66
1
 10
0.0000
 20
0.0000
 30
0.0000
 40
0.0635
 41
0.0635
 70
0
  0
VERTEX
  8
25
 10
25.7742
 20
34.5927
 30
0.0000
 42
1.0000
  0
VERTEX
  8
25
 10
25.8191
 20
34.5478
 30
0.0000
  0
SEQEND
  8
0
  0
POLYLINE
  8
25
 66
1
 10
0.0000
 20
0.0000
 30
0.0000
 40
0.0635
 41
0.0635
 70
0
  0
VERTEX
  8
25
 10
26.0098
 20
34.7384
 30
0.0000
 42
1.0000
  0
VERTEX
  8
25
 10
25.9649
 20
34.7833
 30
0.0000
  0
SEQEND
  8
0
  0
POLYLINE
  8
21
 66
1
 10
0.0000
 20
0.0000
 30
0.0000
 40
0.1524
 41
0.1524
 70
0
  0
VERTEX
  8
21
 10
19.0500
 20
30.4800
 30
0.0000
 42
1.0000
  0
VERTEX
  8
21
 10
19.0500
 20
35.5600
 30
0.0000
 42
1.0000
  0
VERTEX
  8
21
 10
19.0500
 20
30.4800
 30
0.0000
  0
SEQEND
  8
0
  0
INSERT
  8
17
  2
OCTAGONP
 10
17.7800
 20
33.0200
 30
0.0000
 41
1.6764
 42
1.6764
 43
1.0000
 50
0.0000
  0
INSERT
  8
17
  2
OCTAGONP
 10
17.7800
 20
33.0200
 30
0.0000
 41
1.6764
 42
1.6764
 43
1.0000
 50
0.0000
  0
INSERT
  8
17
  2
OCTAGONP
 10
20.3200
 20
33.0200
 30
0.0000
 41
1.6764
 42
1.6764
 43
1.0000
 50
0.0000
  0
INSERT
  8
17
  2
OCTAGONP
 10
20.3200
 20
33.0200
 30
0.0000
 41
1.6764
 42
1.6764
 43
1.0000
 50
0.0000
  0
POINT
  8
23
 10
3.8100
 20
33.0200
 30
0.0000
  0
POLYLINE
  8
21
 66
1
 10
0.0000
 20
0.0000
 30
0.0000
 40
0.2032
 41
0.2032
 70
0
  0
VERTEX
  8
21
 10
6.3500
 20
31.1150
 30
0.0000
  0
VERTEX
  8
21
 10
6.3500
 20
34.9250
 30
0.0000
  0
SEQEND
  8
0
  0
POLYLINE
  8
21
 66
1
 10
0.0000
 20
0.0000
 30
0.0000
 40
0.1016
 41
0.1016
 70
0
  0
VERTEX
  8
21
 10
6.4008
 20
34.9250
 30
0.0000
 42
1.0000
  0
VERTEX
  8
21
 10
6.2992
 20
34.9250
 30
0.0000
  0
SEQEND
  8
0
  0
POLYLINE
  8
21
 66
1
 10
0.0000
 20
0.0000
 30
0.0000
 40
0.1016
 41
0.1016
 70
0
  0
VERTEX
  8
21
 10
6.2992
 20
31.1150
 30
0.0000
 42
1.0000
  0
VERTEX
  8
21
 10
6.4008
 20
31.1150
 30
0.0000
  0
SEQEND
  8
0
  0
POLYLINE
  8
21
 66
1
 10
0.0000
 20
0.0000
 30
0.0000
 40
0.2540
 41
0.2540
 70
0
  0
VERTEX
  8
21
 10
6.3500
 20
34.9250
 30
0.0000
 42
3.0000
  0
VERTEX
  8
21
 10
6.3500
 20
31.1150
 30
0.0000
  0
SEQEND
  8
0
  0
POLYLINE
  8
51
 66
1
 10
0.0000
 20
0.0000
 30
0.0000
 40
0.1524
 41
0.1524
 70
0
  0
VERTEX
  8
51
 10
3.8100
 20
34.1630
 30
0.0000
 42
0.4142
  0
VERTEX
  8
51
 10
2.6670
 20
33.0200
 30
0.0000
  0
SEQEND
  8
0
  0
POLYLINE
  8
51
 66
1
 10
0.0000
 20
0.0000
 30
0.0000
 40
0.1524
 41
0.1524
 70
0
  0
VERTEX
  8
51
 10
3.8100
 20
31.8770
 30
0.0000
 42
0.4142
  0
VERTEX
  8
51
 10
4.9530
 20
33.0200
 30
0.0000
  0
SEQEND
  8
0
  0
POLYLINE
  8
51
 66
1
 10
0.0000
 20
0.0000
 30
0.0000
 40
0.1524
 41
0.1524
 70
0
  0
VERTEX
  8
51
 10
3.8100
 20
34.6710
 30
0.0000
 42
0.4142
  0
VERTEX
  8
51
 10
2.1590
 20
33.0200
 30
0.0000
  0
SEQEND
  8
0
  0
POLYLINE
  8
51
 66
1
 10
0.0000
 20
0.0000
 30
0.0000
 40
0.1524
 41
0.1524
 70
0
  0
VERTEX
  8
51
 10
3.8100
 20
31.3690
 30
0.0000
 42
0.4142
  0
VERTEX
  8
51
 10
5.4610
 20
33.0200
 30
0.0000
  0
SEQEND
  8
0
  0
POLYLINE
  8
51
 66
1
 10
0.0000
 20
0.0000
 30
0.0000
 40
0.1524
 41
0.1524
 70
0
  0
VERTEX
  8
51
 10
3.8100
 20
35.1790
 30
0.0000
 42
0.4142
  0
VERTEX
  8
51
 10
1.6510
 20
33.0200
 30
0.0000
  0
SEQEND
  8
0
  0
POLYLINE
  8
51
 66
1
 10
0.0000
 20
0.0000
 30
0.0000
 40
0.1524
 41
0.1524
 70
0
  0
VERTEX
  8
51
 10
3.8100
 20
30.8610
 30
0.0000
 42
0.4142
  0
VERTEX
  8
51
 10
5.9690
 20
33.0200
 30
0.0000
  0
SEQEND
  8
0
  0
POLYLINE
  8
25
 66
1
 10
0.0000
 20
0.0000
 30
0.0000
 40
0.1270
 41
0.1270
 70
0
  0
VERTEX
  8
25
 10
7.0485
 20
34.7609
 30
0.0000
  0
VERTEX
  8
25
 10
7.0485
 20
33.6169
 30
0.0000
  0
SEQEND
  8
0
  0
POLYLINE
  8
25
 66
1
 10
0.0000
 20
0.0000
 30
0.0000
 40
0.0635
 41
0.0635
 70
0
  0
VERTEX
  8
25
 10
7.0168
 20
33.6169
 30
0.0000
 42
1.0000
  0
VERTEX
  8
25
 10
7.0803
 20
33.6169
 30
0.0000
  0
SEQEND
  8
0
  0
POLYLINE
  8
25
 66
1
 10
0.0000
 20
0.0000
 30
0.0000
 40
0.0635
 41
0.0635
 70
0
  0
VERTEX
  8
25
 10
7.0803
 20
34.7609
 30
0.0000
 42
1.0000
  0
VERTEX
  8
25
 10
7.0168
 20
34.7609
 30
0.0000
  0
SEQEND
  8
0
  0
POLYLINE
  8
25
 66
1
 10
0.0000
 20
0.0000
 30
0.0000
 40
0.1270
 41
0.1270
 70
0
  0
VERTEX
  8
25
 10
7.0485
 20
33.6169
 30
0.0000
  0
VERTEX
  8
25
 10
7.8112
 20
33.6169
 30
0.0000
  0
SEQEND
  8
0
  0
POLYLINE
  8
25
 66
1
 10
0.0000
 20
0.0000
 30
0.0000
 40
0.0635
 41
0.0635
 70
0
  0
VERTEX
  8
25
 10
7.8112
 20
33.5851
 30
0.0000
 42
1.0000
  0
VERTEX
  8
25
 10
7.8112
 20
33.6487
 30
0.0000
  0
SEQEND
  8
0
  0
POLYLINE
  8
25
 66
1
 10
0.0000
 20
0.0000
 30
0.0000
 40
0.0635
 41
0.0635
 70
0
  0
VERTEX
  8
25
 10
7.0485
 20
33.6487
 30
0.0000
 42
1.0000
  0
VERTEX
  8
25
 10
7.0485
 20
33.5851
 30
0.0000
  0
SEQEND
  8
0
  0
POLYLINE
  8
25
 66
1
 10
0.0000
 20
0.0000
 30
0.0000
 40
0.1270
 41
0.1270
 70
0
  0
VERTEX
  8
25
 10
8.9805
 20
34.7609
 30
0.0000
  0
VERTEX
  8
25
 10
8.2179
 20
34.7609
 30
0.0000
  0
SEQEND
  8
0
  0
POLYLINE
  8
25
 66
1
 10
0.0000
 20
0.0000
 30
0.0000
 40
0.0635
 41
0.0635
 70
0
  0
VERTEX
  8
25
 10
8.2179
 20
34.7926
 30
0.0000
 42
1.0000
  0
VERTEX
  8
25
 10
8.2179
 20
34.7291
 30
0.0000
  0
SEQEND
  8
0
  0
POLYLINE
  8
25
 66
1
 10
0.0000
 20
0.0000
 30
0.0000
 40
0.0635
 41
0.0635
 70
0
  0
VERTEX
  8
25
 10
8.9805
 20
34.7291
 30
0.0000
 42
1.0000
  0
VERTEX
  8
25
 10
8.9805
 20
34.7926
 30
0.0000
  0
SEQEND
  8
0
  0
POLYLINE
  8
25
 66
1
 10
0.0000
 20
0.0000
 30
0.0000
 40
0.1270
 41
0.1270
 70
0
  0
VERTEX
  8
25
 10
8.2179
 20
34.7609
 30
0.0000
  0
VERTEX
  8
25
 10
8.2179
 20
33.6169
 30
0.0000
  0
SEQEND
  8
0
  0
POLYLINE
  8
25
 66
1
 10
0.0000
 20
0.0000
 30
0.0000
 40
0.0635
 41
0.0635
 70
0
  0
VERTEX
  8
25
 10
8.1861
 20
33.6169
 30
0.0000
 42
1.0000
  0
VERTEX
  8
25
 10
8.2496
 20
33.6169
 30
0.0000
  0
SEQEND
  8
0
  0
POLYLINE
  8
25
 66
1
 10
0.0000
 20
0.0000
 30
0.0000
 40
0.0635
 41
0.0635
 70
0
  0
VERTEX
  8
25
 10
8.2496
 20
34.7609
 30
0.0000
 42
1.0000
  0
VERTEX
  8
25
 10
8.1861
 20
34.7609
 30
0.0000
  0
SEQEND
  8
0
  0
POLYLINE
  8
25
 66
1
 10
0.0000
 20
0.0000
 30
0.0000
 40
0.1270
 41
0.1270
 70
0
  0
VERTEX
  8
25
 10
8.2179
 20
33.6169
 30
0.0000
  0
VERTEX
  8
25
 10
8.9805
 20
33.6169
 30
0.0000
  0
SEQEND
  8
0
  0
POLYLINE
  8
25
 66
1
 10
0.0000
 20
0.0000
 30
0.0000
 40
0.0635
 41
0.0635
 70
0
  0
VERTEX
  8
25
 10
8.9805
 20
33.5851
 30
0.0000
 42
1.0000
  0
VERTEX
  8
25
 10
8.9805
 20
33.6487
 30
0.0000
  0
SEQEND
  8
0
  0
POLYLINE
  8
25
 66
1
 10
0.0000
 20
0.0000
 30
0.0000
 40
0.0635
 41
0.0635
 70
0
  0
VERTEX
  8
25
 10
8.2179
 20
33.6487
 30
0.0000
 42
1.0000
  0
VERTEX
  8
25
 10
8.2179
 20
33.5851
 30
0.0000
  0
SEQEND
  8
0
  0
POLYLINE
  8
25
 66
1
 10
0.0000
 20
0.0000
 30
0.0000
 40
0.1270
 41
0.1270
 70
0
  0
VERTEX
  8
25
 10
8.2179
 20
34.1889
 30
0.0000
  0
VERTEX
  8
25
 10
8.5992
 20
34.1889
 30
0.0000
  0
SEQEND
  8
0
  0
POLYLINE
  8
25
 66
1
 10
0.0000
 20
0.0000
 30
0.0000
 40
0.0635
 41
0.0635
 70
0
  0
VERTEX
  8
25
 10
8.5992
 20
34.1571
 30
0.0000
 42
1.0000
  0
VERTEX
  8
25
 10
8.5992
 20
34.2206
 30
0.0000
  0
SEQEND
  8
0
  0
POLYLINE
  8
25
 66
1
 10
0.0000
 20
0.0000
 30
0.0000
 40
0.0635
 41
0.0635
 70
0
  0
VERTEX
  8
25
 10
8.2179
 20
34.2206
 30
0.0000
 42
1.0000
  0
VERTEX
  8
25
 10
8.2179
 20
34.1571
 30
0.0000
  0
SEQEND
  8
0
  0
POLYLINE
  8
25
 66
1
 10
0.0000
 20
0.0000
 30
0.0000
 40
0.1270
 41
0.1270
 70
0
  0
VERTEX
  8
25
 10
9.3873
 20
34.7609
 30
0.0000
  0
VERTEX
  8
25
 10
9.3873
 20
33.6169
 30
0.0000
  0
SEQEND
  8
0
  0
POLYLINE
  8
25
 66
1
 10
0.0000
 20
0.0000
 30
0.0000
 40
0.0635
 41
0.0635
 70
0
  0
VERTEX
  8
25
 10
9.3555
 20
33.6169
 30
0.0000
 42
1.0000
  0
VERTEX
  8
25
 10
9.4190
 20
33.6169
 30
0.0000
  0
SEQEND
  8
0
  0
POLYLINE
  8
25
 66
1
 10
0.0000
 20
0.0000
 30
0.0000
 40
0.0635
 41
0.0635
 70
0
  0
VERTEX
  8
25
 10
9.4190
 20
34.7609
 30
0.0000
 42
1.0000
  0
VERTEX
  8
25
 10
9.3555
 20
34.7609
 30
0.0000
  0
SEQEND
  8
0
  0
POLYLINE
  8
25
 66
1
 10
0.0000
 20
0.0000
 30
0.0000
 40
0.1270
 41
0.1270
 70
0
  0
VERTEX
  8
25
 10
9.3873
 20
33.6169
 30
0.0000
  0
VERTEX
  8
25
 10
9.9593
 20
33.6169
 30
0.0000
  0
SEQEND
  8
0
  0
POLYLINE
  8
25
 66
1
 10
0.0000
 20
0.0000
 30
0.0000
 40
0.0635
 41
0.0635
 70
0
  0
VERTEX
  8
25
 10
9.9593
 20
33.5851
 30
0.0000
 42
1.0000
  0
VERTEX
  8
25
 10
9.9593
 20
33.6487
 30
0.0000
  0
SEQEND
  8
0
  0
POLYLINE
  8
25
 66
1
 10
0.0000
 20
0.0000
 30
0.0000
 40
0.0635
 41
0.0635
 70
0
  0
VERTEX
  8
25
 10
9.3873
 20
33.6487
 30
0.0000
 42
1.0000
  0
VERTEX
  8
25
 10
9.3873
 20
33.5851
 30
0.0000
  0
SEQEND
  8
0
  0
POLYLINE
  8
25
 66
1
 10
0.0000
 20
0.0000
 30
0.0000
 40
0.1270
 41
0.1270
 70
0
  0
VERTEX
  8
25
 10
9.9593
 20
33.6169
 30
0.0000
  0
VERTEX
  8
25
 10
10.1499
 20
33.8076
 30
0.0000
  0
SEQEND
  8
0
  0
POLYLINE
  8
25
 66
1
 10
0.0000
 20
0.0000
 30
0.0000
 40
0.0635
 41
0.0635
 70
0
  0
VERTEX
  8
25
 10
10.1724
 20
33.7851
 30
0.0000
 42
1.0000
  0
VERTEX
  8
25
 10
10.1275
 20
33.8300
 30
0.0000
  0
SEQEND
  8
0
  0
POLYLINE
  8
25
 66
1
 10
0.0000
 20
0.0000
 30
0.0000
 40
0.0635
 41
0.0635
 70
0
  0
VERTEX
  8
25
 10
9.9368
 20
33.6394
 30
0.0000
 42
1.0000
  0
VERTEX
  8
25
 10
9.9817
 20
33.5944
 30
0.0000
  0
SEQEND
  8
0
  0
POLYLINE
  8
25
 66
1
 10
0.0000
 20
0.0000
 30
0.0000
 40
0.1270
 41
0.1270
 70
0
  0
VERTEX
  8
25
 10
10.1499
 20
33.8076
 30
0.0000
  0
VERTEX
  8
25
 10
10.1499
 20
34.5702
 30
0.0000
  0
SEQEND
  8
0
  0
POLYLINE
  8
25
 66
1
 10
0.0000
 20
0.0000
 30
0.0000
 40
0.0635
 41
0.0635
 70
0
  0
VERTEX
  8
25
 10
10.1817
 20
34.5702
 30
0.0000
 42
1.0000
  0
VERTEX
  8
25
 10
10.1182
 20
34.5702
 30
0.0000
  0
SEQEND
  8
0
  0
POLYLINE
  8
25
 66
1
 10
0.0000
 20
0.0000
 30
0.0000
 40
0.0635
 41
0.0635
 70
0
  0
VERTEX
  8
25
 10
10.1182
 20
33.8076
 30
0.0000
 42
1.0000
  0
VERTEX
  8
25
 10
10.1817
 20
33.8076
 30
0.0000
  0
SEQEND
  8
0
  0
POLYLINE
  8
25
 66
1
 10
0.0000
 20
0.0000
 30
0.0000
 40
0.1270
 41
0.1270
 70
0
  0
VERTEX
  8
25
 10
10.1499
 20
34.5702
 30
0.0000
  0
VERTEX
  8
25
 10
9.9593
 20
34.7609
 30
0.0000
  0
SEQEND
  8
0
  0
POLYLINE
  8
25
 66
1
 10
0.0000
 20
0.0000
 30
0.0000
 40
0.0635
 41
0.0635
 70
0
  0
VERTEX
  8
25
 10
9.9817
 20
34.7833
 30
0.0000
 42
1.0000
  0
VERTEX
  8
25
 10
9.9368
 20
34.7384
 30
0.0000
  0
SEQEND
  8
0
  0
POLYLINE
  8
25
 66
1
 10
0.0000
 20
0.0000
 30
0.0000
 40
0.0635
 41
0.0635
 70
0
  0
VERTEX
  8
25
 10
10.1275
 20
34.5478
 30
0.0000
 42
1.0000
  0
VERTEX
  8
25
 10
10.1724
 20
34.5927
 30
0.0000
  0
SEQEND
  8
0
  0
POLYLINE
  8
25
 66
1
 10
0.0000
 20
0.0000
 30
0.0000
 40
0.1270
 41
0.1270
 70
0
  0
VERTEX
  8
25
 10
9.9593
 20
34.7609
 30
0.0000
  0
VERTEX
  8
25
 10
9.3873
 20
34.7609
 30
0.0000
  0
SEQEND
  8
0
  0
POLYLINE
  8
25
 66
1
 10
0.0000
 20
0.0000
 30
0.0000
 40
0.0635
 41
0.0635
 70
0
  0
VERTEX
  8
25
 10
9.3873
 20
34.7926
 30
0.0000
 42
1.0000
  0
VERTEX
  8
25
 10
9.3873
 20
34.7291
 30
0.0000
  0
SEQEND
  8
0
  0
POLYLINE
  8
25
 66
1
 10
0.0000
 20
0.0000
 30
0.0000
 40
0.0635
 41
0.0635
 70
0
  0
VERTEX
  8
25
 10
9.9593
 20
34.7291
 30
0.0000
 42
1.0000
  0
VERTEX
  8
25
 10
9.9593
 20
34.7926
 30
0.0000
  0
SEQEND
  8
0
  0
POLYLINE
  8
25
 66
1
 10
0.0000
 20
0.0000
 30
0.0000
 40
0.1270
 41
0.1270
 70
0
  0
VERTEX
  8
25
 10
10.5567
 20
34.5702
 30
0.0000
  0
VERTEX
  8
25
 10
10.7474
 20
34.7609
 30
0.0000
  0
SEQEND
  8
0
  0
POLYLINE
  8
25
 66
1
 10
0.0000
 20
0.0000
 30
0.0000
 40
0.0635
 41
0.0635
 70
0
  0
VERTEX
  8
25
 10
10.7698
 20
34.7384
 30
0.0000
 42
1.0000
  0
VERTEX
  8
25
 10
10.7249
 20
34.7833
 30
0.0000
  0
SEQEND
  8
0
  0
POLYLINE
  8
25
 66
1
 10
0.0000
 20
0.0000
 30
0.0000
 40
0.0635
 41
0.0635
 70
0
  0
VERTEX
  8
25
 10
10.5342
 20
34.5927
 30
0.0000
 42
1.0000
  0
VERTEX
  8
25
 10
10.5791
 20
34.5478
 30
0.0000
  0
SEQEND
  8
0
  0
POLYLINE
  8
25
 66
1
 10
0.0000
 20
0.0000
 30
0.0000
 40
0.1270
 41
0.1270
 70
0
  0
VERTEX
  8
25
 10
10.7474
 20
34.7609
 30
0.0000
  0
VERTEX
  8
25
 10
11.1287
 20
34.7609
 30
0.0000
  0
SEQEND
  8
0
  0
POLYLINE
  8
25
 66
1
 10
0.0000
 20
0.0000
 30
0.0000
 40
0.0635
 41
0.0635
 70
0
  0
VERTEX
  8
25
 10
11.1287
 20
34.7291
 30
0.0000
 42
1.0000
  0
VERTEX
  8
25
 10
11.1287
 20
34.7926
 30
0.0000
  0
SEQEND
  8
0
  0
POLYLINE
  8
25
 66
1
 10
0.0000
 20
0.0000
 30
0.0000
 40
0.0635
 41
0.0635
 70
0
  0
VERTEX
  8
25
 10
10.7474
 20
34.7926
 30
0.0000
 42
1.0000
  0
VERTEX
  8
25
 10
10.7474
 20
34.7291
 30
0.0000
  0
SEQEND
  8
0
  0
POLYLINE
  8
25
 66
1
 10
0.0000
 20
0.0000
 30
0.0000
 40
0.1270
 41
0.1270
 70
0
  0
VERTEX
  8
25
 10
11.1287
 20
34.7609
 30
0.0000
  0
VERTEX
  8
25
 10
11.3193
 20
34.5702
 30
0.0000
  0
SEQEND
  8
0
  0
POLYLINE
  8
25
 66
1
 10
0.0000
 20
0.0000
 30
0.0000
 40
0.0635
 41
0.0635
 70
0
  0
VERTEX
  8
25
 10
11.2969
 20
34.5478
 30
0.0000
 42
1.0000
  0
VERTEX
  8
25
 10
11.3418
 20
34.5927
 30
0.0000
  0
SEQEND
  8
0
  0
POLYLINE
  8
25
 66
1
 10
0.0000
 20
0.0000
 30
0.0000
 40
0.0635
 41
0.0635
 70
0
  0
VERTEX
  8
25
 10
11.1511
 20
34.7833
 30
0.0000
 42
1.0000
  0
VERTEX
  8
25
 10
11.1062
 20
34.7384
 30
0.0000
  0
SEQEND
  8
0
  0
POLYLINE
  8
25
 66
1
 10
0.0000
 20
0.0000
 30
0.0000
 40
0.1270
 41
0.1270
 70
0
  0
VERTEX
  8
25
 10
11.3193
 20
34.5702
 30
0.0000
  0
VERTEX
  8
25
 10
11.3193
 20
34.3796
 30
0.0000
  0
SEQEND
  8
0
  0
POLYLINE
  8
25
 66
1
 10
0.0000
 20
0.0000
 30
0.0000
 40
0.0635
 41
0.0635
 70
0
  0
VERTEX
  8
25
 10
11.2876
 20
34.3796
 30
0.0000
 42
1.0000
  0
VERTEX
  8
25
 10
11.3511
 20
34.3796
 30
0.0000
  0
SEQEND
  8
0
  0
POLYLINE
  8
25
 66
1
 10
0.0000
 20
0.0000
 30
0.0000
 40
0.0635
 41
0.0635
 70
0
  0
VERTEX
  8
25
 10
11.3511
 20
34.5702
 30
0.0000
 42
1.0000
  0
VERTEX
  8
25
 10
11.2876
 20
34.5702
 30
0.0000
  0
SEQEND
  8
0
  0
POLYLINE
  8
25
 66
1
 10
0.0000
 20
0.0000
 30
0.0000
 40
0.1270
 41
0.1270
 70
0
  0
VERTEX
  8
25
 10
11.3193
 20
34.3796
 30
0.0000
  0
VERTEX
  8
25
 10
11.1287
 20
34.1889
 30
0.0000
  0
SEQEND
  8
0
  0
POLYLINE
  8
25
 66
1
 10
0.0000
 20
0.0000
 30
0.0000
 40
0.0635
 41
0.0635
 70
0
  0
VERTEX
  8
25
 10
11.1062
 20
34.2113
 30
0.0000
 42
1.0000
  0
VERTEX
  8
25
 10
11.1511
 20
34.1664
 30
0.0000
  0
SEQEND
  8
0
  0
POLYLINE
  8
25
 66
1
 10
0.0000
 20
0.0000
 30
0.0000
 40
0.0635
 41
0.0635
 70
0
  0
VERTEX
  8
25
 10
11.3418
 20
34.3571
 30
0.0000
 42
1.0000
  0
VERTEX
  8
25
 10
11.2969
 20
34.4020
 30
0.0000
  0
SEQEND
  8
0
  0
POLYLINE
  8
25
 66
1
 10
0.0000
 20
0.0000
 30
0.0000
 40
0.1270
 41
0.1270
 70
0
  0
VERTEX
  8
25
 10
11.1287
 20
34.1889
 30
0.0000
  0
VERTEX
  8
25
 10
10.9380
 20
34.1889
 30
0.0000
  0
SEQEND
  8
0
  0
POLYLINE
  8
25
 66
1
 10
0.0000
 20
0.0000
 30
0.0000
 40
0.0635
 41
0.0635
 70
0
  0
VERTEX
  8
25
 10
10.9380
 20
34.2206
 30
0.0000
 42
1.0000
  0
VERTEX
  8
25
 10
10.9380
 20
34.1571
 30
0.0000
  0
SEQEND
  8
0
  0
POLYLINE
  8
25
 66
1
 10
0.0000
 20
0.0000
 30
0.0000
 40
0.0635
 41
0.0635
 70
0
  0
VERTEX
  8
25
 10
11.1287
 20
34.1571
 30
0.0000
 42
1.0000
  0
VERTEX
  8
25
 10
11.1287
 20
34.2206
 30
0.0000
  0
SEQEND
  8
0
  0
POLYLINE
  8
25
 66
1
 10
0.0000
 20
0.0000
 30
0.0000
 40
0.1270
 41
0.1270
 70
0
  0
VERTEX
  8
25
 10
11.1287
 20
34.1889
 30
0.0000
  0
VERTEX
  8
25
 10
11.3193
 20
33.9982
 30
0.0000
  0
SEQEND
  8
0
  0
POLYLINE
  8
25
 66
1
 10
0.0000
 20
0.0000
 30
0.0000
 40
0.0635
 41
0.0635
 70
0
  0
VERTEX
  8
25
 10
11.2969
 20
33.9758
 30
0.0000
 42
1.0000
  0
VERTEX
  8
25
 10
11.3418
 20
34.0207
 30
0.0000
  0
SEQEND
  8
0
  0
POLYLINE
  8
25
 66
1
 10
0.0000
 20
0.0000
 30
0.0000
 40
0.0635
 41
0.0635
 70
0
  0
VERTEX
  8
25
 10
11.1511
 20
34.2113
 30
0.0000
 42
1.0000
  0
VERTEX
  8
25
 10
11.1062
 20
34.1664
 30
0.0000
  0
SEQEND
  8
0
  0
POLYLINE
  8
25
 66
1
 10
0.0000
 20
0.0000
 30
0.0000
 40
0.1270
 41
0.1270
 70
0
  0
VERTEX
  8
25
 10
11.3193
 20
33.9982
 30
0.0000
  0
VERTEX
  8
25
 10
11.3193
 20
33.8076
 30
0.0000
  0
SEQEND
  8
0
  0
POLYLINE
  8
25
 66
1
 10
0.0000
 20
0.0000
 30
0.0000
 40
0.0635
 41
0.0635
 70
0
  0
VERTEX
  8
25
 10
11.2876
 20
33.8076
 30
0.0000
 42
1.0000
  0
VERTEX
  8
25
 10
11.3511
 20
33.8076
 30
0.0000
  0
SEQEND
  8
0
  0
POLYLINE
  8
25
 66
1
 10
0.0000
 20
0.0000
 30
0.0000
 40
0.0635
 41
0.0635
 70
0
  0
VERTEX
  8
25
 10
11.3511
 20
33.9982
 30
0.0000
 42
1.0000
  0
VERTEX
  8
25
 10
11.2876
 20
33.9982
 30
0.0000
  0
SEQEND
  8
0
  0
POLYLINE
  8
25
 66
1
 10
0.0000
 20
0.0000
 30
0.0000
 40
0.1270
 41
0.1270
 70
0
  0
VERTEX
  8
25
 10
11.3193
 20
33.8076
 30
0.0000
  0
VERTEX
  8
25
 10
11.1287
 20
33.6169
 30
0.0000
  0
SEQEND
  8
0
  0
POLYLINE
  8
25
 66
1
 10
0.0000
 20
0.0000
 30
0.0000
 40
0.0635
 41
0.0635
 70
0
  0
VERTEX
  8
25
 10
11.1062
 20
33.6394
 30
0.0000
 42
1.0000
  0
VERTEX
  8
25
 10
11.1511
 20
33.5944
 30
0.0000
  0
SEQEND
  8
0
  0
POLYLINE
  8
25
 66
1
 10
0.0000
 20
0.0000
 30
0.0000
 40
0.0635
 41
0.0635
 70
0
  0
VERTEX
  8
25
 10
11.3418
 20
33.7851
 30
0.0000
 42
1.0000
  0
VERTEX
  8
25
 10
11.2969
 20
33.8300
 30
0.0000
  0
SEQEND
  8
0
  0
POLYLINE
  8
25
 66
1
 10
0.0000
 20
0.0000
 30
0.0000
 40
0.1270
 41
0.1270
 70
0
  0
VERTEX
  8
25
 10
11.1287
 20
33.6169
 30
0.0000
  0
VERTEX
  8
25
 10
10.7474
 20
33.6169
 30
0.0000
  0
SEQEND
  8
0
  0
POLYLINE
  8
25
 66
1
 10
0.0000
 20
0.0000
 30
0.0000
 40
0.0635
 41
0.0635
 70
0
  0
VERTEX
  8
25
 10
10.7474
 20
33.6487
 30
0.0000
 42
1.0000
  0
VERTEX
  8
25
 10
10.7474
 20
33.5851
 30
0.0000
  0
SEQEND
  8
0
  0
POLYLINE
  8
25
 66
1
 10
0.0000
 20
0.0000
 30
0.0000
 40
0.0635
 41
0.0635
 70
0
  0
VERTEX
  8
25
 10
11.1287
 20
33.5851
 30
0.0000
 42
1.0000
  0
VERTEX
  8
25
 10
11.1287
 20
33.6487
 30
0.0000
  0
SEQEND
  8
0
  0
POLYLINE
  8
25
 66
1
 10
0.0000
 20
0.0000
 30
0.0000
 40
0.1270
 41
0.1270
 70
0
  0
VERTEX
  8
25
 10
10.7474
 20
33.6169
 30
0.0000
  0
VERTEX
  8
25
 10
10.5567
 20
33.8076
 30
0.0000
  0
SEQEND
  8
0
  0
POLYLINE
  8
25
 66
1
 10
0.0000
 20
0.0000
 30
0.0000
 40
0.0635
 41
0.0635
 70
0
  0
VERTEX
  8
25
 10
10.5791
 20
33.8300
 30
0.0000
 42
1.0000
  0
VERTEX
  8
25
 10
10.5342
 20
33.7851
 30
0.0000
  0
SEQEND
  8
0
  0
POLYLINE
  8
25
 66
1
 10
0.0000
 20
0.0000
 30
0.0000
 40
0.0635
 41
0.0635
 70
0
  0
VERTEX
  8
25
 10
10.7249
 20
33.5944
 30
0.0000
 42
1.0000
  0
VERTEX
  8
25
 10
10.7698
 20
33.6394
 30
0.0000
  0
SEQEND
  8
0
  0
POLYLINE
  8
21
 66
1
 10
0.0000
 20
0.0000
 30
0.0000
 40
0.1524
 41
0.1524
 70
0
  0
VERTEX
  8
21
 10
3.8100
 20
30.4800
 30
0.0000
 42
1.0000
  0
VERTEX
  8
21
 10
3.8100
 20
35.5600
 30
0.0000
 42
1.0000
  0
VERTEX
  8
21
 10
3.8100
 20
30.4800
 30
0.0000
  0
SEQEND
  8
0
  0
INSERT
  8
17
  2
OCTAGONP
 10
2.5400
 20
33.0200
 30
0.0000
 41
1.6764
 42
1.6764
 43
1.0000
 50
0.0000
  0
INSERT
  8
17
  2
OCTAGONP
 10
2.5400
 20
33.0200
 30
0.0000
 41
1.6764
 42
1.6764
 43
1.0000
 50
0.0000
  0
INSERT
  8
17
  2
OCTAGONP
 10
5.0800
 20
33.0200
 30
0.0000
 41
1.6764
 42
1.6764
 43
1.0000
 50
0.0000
  0
INSERT
  8
17
  2
OCTAGONP
 10
5.0800
 20
33.0200
 30
0.0000
 41
1.6764
 42
1.6764
 43
1.0000
 50
0.0000
  0
POINT
  8
23
 10
19.0500
 20
24.1300
 30
0.0000
  0
POLYLINE
  8
21
 66
1
 10
0.0000
 20
0.0000
 30
0.0000
 40
0.2032
 41
0.2032
 70
0
  0
VERTEX
  8
21
 10
21.5900
 20
22.2250
 30
0.0000
  0
VERTEX
  8
21
 10
21.5900
 20
26.0350
 30
0.0000
  0
SEQEND
  8
0
  0
POLYLINE
  8
21
 66
1
 10
0.0000
 20
0.0000
 30
0.0000
 40
0.1016
 41
0.1016
 70
0
  0
VERTEX
  8
21
 10
21.6408
 20
26.0350
 30
0.0000
 42
1.0000
  0
VERTEX
  8
21
 10
21.5392
 20
26.0350
 30
0.0000
  0
SEQEND
  8
0
  0
POLYLINE
  8
21
 66
1
 10
0.0000
 20
0.0000
 30
0.0000
 40
0.1016
 41
0.1016
 70
0
  0
VERTEX
  8
21
 10
21.5392
 20
22.2250
 30
0.0000
 42
1.0000
  0
VERTEX
  8
21
 10
21.6408
 20
22.2250
 30
0.0000
  0
SEQEND
  8
0
  0
POLYLINE
  8
21
 66
1
 10
0.0000
 20
0.0000
 30
0.0000
 40
0.2540
 41
0.2540
 70
0
  0
VERTEX
  8
21
 10
21.5900
 20
26.0350
 30
0.0000
 42
3.0000
  0
VERTEX
  8
21
 10
21.5900
 20
22.2250
 30
0.0000
  0
SEQEND
  8
0
  0
POLYLINE
  8
51
 66
1
 10
0.0000
 20
0.0000
 30
0.0000
 40
0.1524
 41
0.1524
 70
0
  0
VERTEX
  8
51
 10
19.0500
 20
25.2730
 30
0.0000
 42
0.4142
  0
VERTEX
  8
51
 10
17.9070
 20
24.1300
 30
0.0000
  0
SEQEND
  8
0
  0
POLYLINE
  8
51
 66
1
 10
0.0000
 20
0.0000
 30
0.0000
 40
0.1524
 41
0.1524
 70
0
  0
VERTEX
  8
51
 10
19.0500
 20
22.9870
 30
0.0000
 42
0.4142
  0
VERTEX
  8
51
 10
20.1930
 20
24.1300
 30
0.0000
  0
SEQEND
  8
0
  0
POLYLINE
  8
51
 66
1
 10
0.0000
 20
0.0000
 30
0.0000
 40
0.1524
 41
0.1524
 70
0
  0
VERTEX
  8
51
 10
19.0500
 20
25.7810
 30
0.0000
 42
0.4142
  0
VERTEX
  8
51
 10
17.3990
 20
24.1300
 30
0.0000
  0
SEQEND
  8
0
  0
POLYLINE
  8
51
 66
1
 10
0.0000
 20
0.0000
 30
0.0000
 40
0.1524
 41
0.1524
 70
0
  0
VERTEX
  8
51
 10
19.0500
 20
22.4790
 30
0.0000
 42
0.4142
  0
VERTEX
  8
51
 10
20.7010
 20
24.1300
 30
0.0000
  0
SEQEND
  8
0
  0
POLYLINE
  8
51
 66
1
 10
0.0000
 20
0.0000
 30
0.0000
 40
0.1524
 41
0.1524
 70
0
  0
VERTEX
  8
51
 10
19.0500
 20
26.2890
 30
0.0000
 42
0.4142
  0
VERTEX
  8
51
 10
16.8910
 20
24.1300
 30
0.0000
  0
SEQEND
  8
0
  0
POLYLINE
  8
51
 66
1
 10
0.0000
 20
0.0000
 30
0.0000
 40
0.1524
 41
0.1524
 70
0
  0
VERTEX
  8
51
 10
19.0500
 20
21.9710
 30
0.0000
 42
0.4142
  0
VERTEX
  8
51
 10
21.2090
 20
24.1300
 30
0.0000
  0
SEQEND
  8
0
  0
POLYLINE
  8
25
 66
1
 10
0.0000
 20
0.0000
 30
0.0000
 40
0.1270
 41
0.1270
 70
0
  0
VERTEX
  8
25
 10
22.2885
 20
25.8709
 30
0.0000
  0
VERTEX
  8
25
 10
22.2885
 20
24.7269
 30
0.0000
  0
SEQEND
  8
0
  0
POLYLINE
  8
25
 66
1
 10
0.0000
 20
0.0000
 30
0.0000
 40
0.0635
 41
0.0635
 70
0
  0
VERTEX
  8
25
 10
22.2568
 20
24.7269
 30
0.0000
 42
1.0000
  0
VERTEX
  8
25
 10
22.3203
 20
24.7269
 30
0.0000
  0
SEQEND
  8
0
  0
POLYLINE
  8
25
 66
1
 10
0.0000
 20
0.0000
 30
0.0000
 40
0.0635
 41
0.0635
 70
0
  0
VERTEX
  8
25
 10
22.3203
 20
25.8709
 30
0.0000
 42
1.0000
  0
VERTEX
  8
25
 10
22.2568
 20
25.8709
 30
0.0000
  0
SEQEND
  8
0
  0
POLYLINE
  8
25
 66
1
 10
0.0000
 20
0.0000
 30
0.0000
 40
0.1270
 41
0.1270
 70
0
  0
VERTEX
  8
25
 10
22.2885
 20
24.7269
 30
0.0000
  0
VERTEX
  8
25
 10
23.0511
 20
24.7269
 30
0.0000
  0
SEQEND
  8
0
  0
POLYLINE
  8
25
 66
1
 10
0.0000
 20
0.0000
 30
0.0000
 40
0.0635
 41
0.0635
 70
0
  0
VERTEX
  8
25
 10
23.0511
 20
24.6952
 30
0.0000
 42
1.0000
  0
VERTEX
  8
25
 10
23.0511
 20
24.7586
 30
0.0000
  0
SEQEND
  8
0
  0
POLYLINE
  8
25
 66
1
 10
0.0000
 20
0.0000
 30
0.0000
 40
0.0635
 41
0.0635
 70
0
  0
VERTEX
  8
25
 10
22.2885
 20
24.7586
 30
0.0000
 42
1.0000
  0
VERTEX
  8
25
 10
22.2885
 20
24.6952
 30
0.0000
  0
SEQEND
  8
0
  0
POLYLINE
  8
25
 66
1
 10
0.0000
 20
0.0000
 30
0.0000
 40
0.1270
 41
0.1270
 70
0
  0
VERTEX
  8
25
 10
24.2205
 20
25.8709
 30
0.0000
  0
VERTEX
  8
25
 10
23.4579
 20
25.8709
 30
0.0000
  0
SEQEND
  8
0
  0
POLYLINE
  8
25
 66
1
 10
0.0000
 20
0.0000
 30
0.0000
 40
0.0635
 41
0.0635
 70
0
  0
VERTEX
  8
25
 10
23.4579
 20
25.9026
 30
0.0000
 42
1.0000
  0
VERTEX
  8
25
 10
23.4579
 20
25.8391
 30
0.0000
  0
SEQEND
  8
0
  0
POLYLINE
  8
25
 66
1
 10
0.0000
 20
0.0000
 30
0.0000
 40
0.0635
 41
0.0635
 70
0
  0
VERTEX
  8
25
 10
24.2205
 20
25.8391
 30
0.0000
 42
1.0000
  0
VERTEX
  8
25
 10
24.2205
 20
25.9026
 30
0.0000
  0
SEQEND
  8
0
  0
POLYLINE
  8
25
 66
1
 10
0.0000
 20
0.0000
 30
0.0000
 40
0.1270
 41
0.1270
 70
0
  0
VERTEX
  8
25
 10
23.4579
 20
25.8709
 30
0.0000
  0
VERTEX
  8
25
 10
23.4579
 20
24.7269
 30
0.0000
  0
SEQEND
  8
0
  0
POLYLINE
  8
25
 66
1
 10
0.0000
 20
0.0000
 30
0.0000
 40
0.0635
 41
0.0635
 70
0
  0
VERTEX
  8
25
 10
23.4261
 20
24.7269
 30
0.0000
 42
1.0000
  0
VERTEX
  8
25
 10
23.4896
 20
24.7269
 30
0.0000
  0
SEQEND
  8
0
  0
POLYLINE
  8
25
 66
1
 10
0.0000
 20
0.0000
 30
0.0000
 40
0.0635
 41
0.0635
 70
0
  0
VERTEX
  8
25
 10
23.4896
 20
25.8709
 30
0.0000
 42
1.0000
  0
VERTEX
  8
25
 10
23.4261
 20
25.8709
 30
0.0000
  0
SEQEND
  8
0
  0
POLYLINE
  8
25
 66
1
 10
0.0000
 20
0.0000
 30
0.0000
 40
0.1270
 41
0.1270
 70
0
  0
VERTEX
  8
25
 10
23.4579
 20
24.7269
 30
0.0000
  0
VERTEX
  8
25
 10
24.2205
 20
24.7269
 30
0.0000
  0
SEQEND
  8
0
  0
POLYLINE
  8
25
 66
1
 10
0.0000
 20
0.0000
 30
0.0000
 40
0.0635
 41
0.0635
 70
0
  0
VERTEX
  8
25
 10
24.2205
 20
24.6952
 30
0.0000
 42
1.0000
  0
VERTEX
  8
25
 10
24.2205
 20
24.7586
 30
0.0000
  0
SEQEND
  8
0
  0
POLYLINE
  8
25
 66
1
 10
0.0000
 20
0.0000
 30
0.0000
 40
0.0635
 41
0.0635
 70
0
  0
VERTEX
  8
25
 10
23.4579
 20
24.7586
 30
0.0000
 42
1.0000
  0
VERTEX
  8
25
 10
23.4579
 20
24.6952
 30
0.0000
  0
SEQEND
  8
0
  0
POLYLINE
  8
25
 66
1
 10
0.0000
 20
0.0000
 30
0.0000
 40
0.1270
 41
0.1270
 70
0
  0
VERTEX
  8
25
 10
23.4579
 20
25.2989
 30
0.0000
  0
VERTEX
  8
25
 10
23.8392
 20
25.2989
 30
0.0000
  0
SEQEND
  8
0
  0
POLYLINE
  8
25
 66
1
 10
0.0000
 20
0.0000
 30
0.0000
 40
0.0635
 41
0.0635
 70
0
  0
VERTEX
  8
25
 10
23.8392
 20
25.2671
 30
0.0000
 42
1.0000
  0
VERTEX
  8
25
 10
23.8392
 20
25.3306
 30
0.0000
  0
SEQEND
  8
0
  0
POLYLINE
  8
25
 66
1
 10
0.0000
 20
0.0000
 30
0.0000
 40
0.0635
 41
0.0635
 70
0
  0
VERTEX
  8
25
 10
23.4579
 20
25.3306
 30
0.0000
 42
1.0000
  0
VERTEX
  8
25
 10
23.4579
 20
25.2671
 30
0.0000
  0
SEQEND
  8
0
  0
POLYLINE
  8
25
 66
1
 10
0.0000
 20
0.0000
 30
0.0000
 40
0.1270
 41
0.1270
 70
0
  0
VERTEX
  8
25
 10
24.6273
 20
25.8709
 30
0.0000
  0
VERTEX
  8
25
 10
24.6273
 20
24.7269
 30
0.0000
  0
SEQEND
  8
0
  0
POLYLINE
  8
25
 66
1
 10
0.0000
 20
0.0000
 30
0.0000
 40
0.0635
 41
0.0635
 70
0
  0
VERTEX
  8
25
 10
24.5955
 20
24.7269
 30
0.0000
 42
1.0000
  0
VERTEX
  8
25
 10
24.6590
 20
24.7269
 30
0.0000
  0
SEQEND
  8
0
  0
POLYLINE
  8
25
 66
1
 10
0.0000
 20
0.0000
 30
0.0000
 40
0.0635
 41
0.0635
 70
0
  0
VERTEX
  8
25
 10
24.6590
 20
25.8709
 30
0.0000
 42
1.0000
  0
VERTEX
  8
25
 10
24.5955
 20
25.8709
 30
0.0000
  0
SEQEND
  8
0
  0
POLYLINE
  8
25
 66
1
 10
0.0000
 20
0.0000
 30
0.0000
 40
0.1270
 41
0.1270
 70
0
  0
VERTEX
  8
25
 10
24.6273
 20
24.7269
 30
0.0000
  0
VERTEX
  8
25
 10
25.1993
 20
24.7269
 30
0.0000
  0
SEQEND
  8
0
  0
POLYLINE
  8
25
 66
1
 10
0.0000
 20
0.0000
 30
0.0000
 40
0.0635
 41
0.0635
 70
0
  0
VERTEX
  8
25
 10
25.1993
 20
24.6952
 30
0.0000
 42
1.0000
  0
VERTEX
  8
25
 10
25.1993
 20
24.7586
 30
0.0000
  0
SEQEND
  8
0
  0
POLYLINE
  8
25
 66
1
 10
0.0000
 20
0.0000
 30
0.0000
 40
0.0635
 41
0.0635
 70
0
  0
VERTEX
  8
25
 10
24.6273
 20
24.7586
 30
0.0000
 42
1.0000
  0
VERTEX
  8
25
 10
24.6273
 20
24.6952
 30
0.0000
  0
SEQEND
  8
0
  0
POLYLINE
  8
25
 66
1
 10
0.0000
 20
0.0000
 30
0.0000
 40
0.1270
 41
0.1270
 70
0
  0
VERTEX
  8
25
 10
25.1993
 20
24.7269
 30
0.0000
  0
VERTEX
  8
25
 10
25.3899
 20
24.9176
 30
0.0000
  0
SEQEND
  8
0
  0
POLYLINE
  8
25
 66
1
 10
0.0000
 20
0.0000
 30
0.0000
 40
0.0635
 41
0.0635
 70
0
  0
VERTEX
  8
25
 10
25.4124
 20
24.8951
 30
0.0000
 42
1.0000
  0
VERTEX
  8
25
 10
25.3675
 20
24.9400
 30
0.0000
  0
SEQEND
  8
0
  0
POLYLINE
  8
25
 66
1
 10
0.0000
 20
0.0000
 30
0.0000
 40
0.0635
 41
0.0635
 70
0
  0
VERTEX
  8
25
 10
25.1768
 20
24.7494
 30
0.0000
 42
1.0000
  0
VERTEX
  8
25
 10
25.2217
 20
24.7044
 30
0.0000
  0
SEQEND
  8
0
  0
POLYLINE
  8
25
 66
1
 10
0.0000
 20
0.0000
 30
0.0000
 40
0.1270
 41
0.1270
 70
0
  0
VERTEX
  8
25
 10
25.3899
 20
24.9176
 30
0.0000
  0
VERTEX
  8
25
 10
25.3899
 20
25.6802
 30
0.0000
  0
SEQEND
  8
0
  0
POLYLINE
  8
25
 66
1
 10
0.0000
 20
0.0000
 30
0.0000
 40
0.0635
 41
0.0635
 70
0
  0
VERTEX
  8
25
 10
25.4217
 20
25.6802
 30
0.0000
 42
1.0000
  0
VERTEX
  8
25
 10
25.3582
 20
25.6802
 30
0.0000
  0
SEQEND
  8
0
  0
POLYLINE
  8
25
 66
1
 10
0.0000
 20
0.0000
 30
0.0000
 40
0.0635
 41
0.0635
 70
0
  0
VERTEX
  8
25
 10
25.3582
 20
24.9176
 30
0.0000
 42
1.0000
  0
VERTEX
  8
25
 10
25.4217
 20
24.9176
 30
0.0000
  0
SEQEND
  8
0
  0
POLYLINE
  8
25
 66
1
 10
0.0000
 20
0.0000
 30
0.0000
 40
0.1270
 41
0.1270
 70
0
  0
VERTEX
  8
25
 10
25.3899
 20
25.6802
 30
0.0000
  0
VERTEX
  8
25
 10
25.1993
 20
25.8709
 30
0.0000
  0
SEQEND
  8
0
  0
POLYLINE
  8
25
 66
1
 10
0.0000
 20
0.0000
 30
0.0000
 40
0.0635
 41
0.0635
 70
0
  0
VERTEX
  8
25
 10
25.2217
 20
25.8933
 30
0.0000
 42
1.0000
  0
VERTEX
  8
25
 10
25.1768
 20
25.8484
 30
0.0000
  0
SEQEND
  8
0
  0
POLYLINE
  8
25
 66
1
 10
0.0000
 20
0.0000
 30
0.0000
 40
0.0635
 41
0.0635
 70
0
  0
VERTEX
  8
25
 10
25.3675
 20
25.6578
 30
0.0000
 42
1.0000
  0
VERTEX
  8
25
 10
25.4124
 20
25.7027
 30
0.0000
  0
SEQEND
  8
0
  0
POLYLINE
  8
25
 66
1
 10
0.0000
 20
0.0000
 30
0.0000
 40
0.1270
 41
0.1270
 70
0
  0
VERTEX
  8
25
 10
25.1993
 20
25.8709
 30
0.0000
  0
VERTEX
  8
25
 10
24.6273
 20
25.8709
 30
0.0000
  0
SEQEND
  8
0
  0
POLYLINE
  8
25
 66
1
 10
0.0000
 20
0.0000
 30
0.0000
 40
0.0635
 41
0.0635
 70
0
  0
VERTEX
  8
25
 10
24.6273
 20
25.9026
 30
0.0000
 42
1.0000
  0
VERTEX
  8
25
 10
24.6273
 20
25.8391
 30
0.0000
  0
SEQEND
  8
0
  0
POLYLINE
  8
25
 66
1
 10
0.0000
 20
0.0000
 30
0.0000
 40
0.0635
 41
0.0635
 70
0
  0
VERTEX
  8
25
 10
25.1993
 20
25.8391
 30
0.0000
 42
1.0000
  0
VERTEX
  8
25
 10
25.1993
 20
25.9026
 30
0.0000
  0
SEQEND
  8
0
  0
POLYLINE
  8
25
 66
1
 10
0.0000
 20
0.0000
 30
0.0000
 40
0.1270
 41
0.1270
 70
0
  0
VERTEX
  8
25
 10
26.3687
 20
24.7269
 30
0.0000
  0
VERTEX
  8
25
 10
26.3687
 20
25.8709
 30
0.0000
  0
SEQEND
  8
0
  0
POLYLINE
  8
25
 66
1
 10
0.0000
 20
0.0000
 30
0.0000
 40
0.0635
 41
0.0635
 70
0
  0
VERTEX
  8
25
 10
26.4004
 20
25.8709
 30
0.0000
 42
1.0000
  0
VERTEX
  8
25
 10
26.3369
 20
25.8709
 30
0.0000
  0
SEQEND
  8
0
  0
POLYLINE
  8
25
 66
1
 10
0.0000
 20
0.0000
 30
0.0000
 40
0.0635
 41
0.0635
 70
0
  0
VERTEX
  8
25
 10
26.3369
 20
24.7269
 30
0.0000
 42
1.0000
  0
VERTEX
  8
25
 10
26.4004
 20
24.7269
 30
0.0000
  0
SEQEND
  8
0
  0
POLYLINE
  8
25
 66
1
 10
0.0000
 20
0.0000
 30
0.0000
 40
0.1270
 41
0.1270
 70
0
  0
VERTEX
  8
25
 10
26.3687
 20
25.8709
 30
0.0000
  0
VERTEX
  8
25
 10
25.7967
 20
25.2989
 30
0.0000
  0
SEQEND
  8
0
  0
POLYLINE
  8
25
 66
1
 10
0.0000
 20
0.0000
 30
0.0000
 40
0.0635
 41
0.0635
 70
0
  0
VERTEX
  8
25
 10
25.7742
 20
25.3213
 30
0.0000
 42
1.0000
  0
VERTEX
  8
25
 10
25.8191
 20
25.2764
 30
0.0000
  0
SEQEND
  8
0
  0
POLYLINE
  8
25
 66
1
 10
0.0000
 20
0.0000
 30
0.0000
 40
0.0635
 41
0.0635
 70
0
  0
VERTEX
  8
25
 10
26.3911
 20
25.8484
 30
0.0000
 42
1.0000
  0
VERTEX
  8
25
 10
26.3462
 20
25.8933
 30
0.0000
  0
SEQEND
  8
0
  0
POLYLINE
  8
25
 66
1
 10
0.0000
 20
0.0000
 30
0.0000
 40
0.1270
 41
0.1270
 70
0
  0
VERTEX
  8
25
 10
25.7967
 20
25.2989
 30
0.0000
  0
VERTEX
  8
25
 10
26.5593
 20
25.2989
 30
0.0000
  0
SEQEND
  8
0
  0
POLYLINE
  8
25
 66
1
 10
0.0000
 20
0.0000
 30
0.0000
 40
0.0635
 41
0.0635
 70
0
  0
VERTEX
  8
25
 10
26.5593
 20
25.2671
 30
0.0000
 42
1.0000
  0
VERTEX
  8
25
 10
26.5593
 20
25.3306
 30
0.0000
  0
SEQEND
  8
0
  0
POLYLINE
  8
25
 66
1
 10
0.0000
 20
0.0000
 30
0.0000
 40
0.0635
 41
0.0635
 70
0
  0
VERTEX
  8
25
 10
25.7967
 20
25.3306
 30
0.0000
 42
1.0000
  0
VERTEX
  8
25
 10
25.7967
 20
25.2671
 30
0.0000
  0
SEQEND
  8
0
  0
POLYLINE
  8
21
 66
1
 10
0.0000
 20
0.0000
 30
0.0000
 40
0.1524
 41
0.1524
 70
0
  0
VERTEX
  8
21
 10
19.0500
 20
21.5900
 30
0.0000
 42
1.0000
  0
VERTEX
  8
21
 10
19.0500
 20
26.6700
 30
0.0000
 42
1.0000
  0
VERTEX
  8
21
 10
19.0500
 20
21.5900
 30
0.0000
  0
SEQEND
  8
0
  0
INSERT
  8
17
  2
OCTAGONP
 10
17.7800
 20
24.1300
 30
0.0000
 41
1.6764
 42
1.6764
 43
1.0000
 50
0.0000
  0
INSERT
  8
17
  2
OCTAGONP
 10
17.7800
 20
24.1300
 30
0.0000
 41
1.6764
 42
1.6764
 43
1.0000
 50
0.0000
  0
INSERT
  8
17
  2
OCTAGONP
 10
20.3200
 20
24.1300
 30
0.0000
 41
1.6764
 42
1.6764
 43
1.0000
 50
0.0000
  0
INSERT
  8
17
  2
OCTAGONP
 10
20.3200
 20
24.1300
 30
0.0000
 41
1.6764
 42
1.6764
 43
1.0000
 50
0.0000
  0
POINT
  8
23
 10
3.8100
 20
3.8100
 30
0.0000
  0
POLYLINE
  8
21
 66
1
 10
0.0000
 20
0.0000
 30
0.0000
 40
0.2032
 41
0.2032
 70
0
  0
VERTEX
  8
21
 10
6.3500
 20
1.9050
 30
0.0000
  0
VERTEX
  8
21
 10
6.3500
 20
5.7150
 30
0.0000
  0
SEQEND
  8
0
  0
POLYLINE
  8
21
 66
1
 10
0.0000
 20
0.0000
 30
0.0000
 40
0.1016
 41
0.1016
 70
0
  0
VERTEX
  8
21
 10
6.4008
 20
5.7150
 30
0.0000
 42
1.0000
  0
VERTEX
  8
21
 10
6.2992
 20
5.7150
 30
0.0000
  0
SEQEND
  8
0
  0
POLYLINE
  8
21
 66
1
 10
0.0000
 20
0.0000
 30
0.0000
 40
0.1016
 41
0.1016
 70
0
  0
VERTEX
  8
21
 10
6.2992
 20
1.9050
 30
0.0000
 42
1.0000
  0
VERTEX
  8
21
 10
6.4008
 20
1.9050
 30
0.0000
  0
SEQEND
  8
0
  0
POLYLINE
  8
21
 66
1
 10
0.0000
 20
0.0000
 30
0.0000
 40
0.2540
 41
0.2540
 70
0
  0
VERTEX
  8
21
 10
6.3500
 20
5.7150
 30
0.0000
 42
3.0000
  0
VERTEX
  8
21
 10
6.3500
 20
1.9050
 30
0.0000
  0
SEQEND
  8
0
  0
POLYLINE
  8
51
 66
1
 10
0.0000
 20
0.0000
 30
0.0000
 40
0.1524
 41
0.1524
 70
0
  0
VERTEX
  8
51
 10
3.8100
 20
4.9530
 30
0.0000
 42
0.4142
  0
VERTEX
  8
51
 10
2.6670
 20
3.8100
 30
0.0000
  0
SEQEND
  8
0
  0
POLYLINE
  8
51
 66
1
 10
0.0000
 20
0.0000
 30
0.0000
 40
0.1524
 41
0.1524
 70
0
  0
VERTEX
  8
51
 10
3.8100
 20
2.6670
 30
0.0000
 42
0.4142
  0
VERTEX
  8
51
 10
4.9530
 20
3.8100
 30
0.0000
  0
SEQEND
  8
0
  0
POLYLINE
  8
51
 66
1
 10
0.0000
 20
0.0000
 30
0.0000
 40
0.1524
 41
0.1524
 70
0
  0
VERTEX
  8
51
 10
3.8100
 20
5.4610
 30
0.0000
 42
0.4142
  0
VERTEX
  8
51
 10
2.1590
 20
3.8100
 30
0.0000
  0
SEQEND
  8
0
  0
POLYLINE
  8
51
 66
1
 10
0.0000
 20
0.0000
 30
0.0000
 40
0.1524
 41
0.1524
 70
0
  0
VERTEX
  8
51
 10
3.8100
 20
2.1590
 30
0.0000
 42
0.4142
  0
VERTEX
  8
51
 10
5.4610
 20
3.8100
 30
0.0000
  0
SEQEND
  8
0
  0
POLYLINE
  8
51
 66
1
 10
0.0000
 20
0.0000
 30
0.0000
 40
0.1524
 41
0.1524
 70
0
  0
VERTEX
  8
51
 10
3.8100
 20
5.9690
 30
0.0000
 42
0.4142
  0
VERTEX
  8
51
 10
1.6510
 20
3.8100
 30
0.0000
  0
SEQEND
  8
0
  0
POLYLINE
  8
51
 66
1
 10
0.0000
 20
0.0000
 30
0.0000
 40
0.1524
 41
0.1524
 70
0
  0
VERTEX
  8
51
 10
3.8100
 20
1.6510
 30
0.0000
 42
0.4142
  0
VERTEX
  8
51
 10
5.9690
 20
3.8100
 30
0.0000
  0
SEQEND
  8
0
  0
POLYLINE
  8
25
 66
1
 10
0.0000
 20
0.0000
 30
0.0000
 40
0.1270
 41
0.1270
 70
0
  0
VERTEX
  8
25
 10
7.0485
 20
5.5509
 30
0.0000
  0
VERTEX
  8
25
 10
7.0485
 20
4.4069
 30
0.0000
  0
SEQEND
  8
0
  0
POLYLINE
  8
25
 66
1
 10
0.0000
 20
0.0000
 30
0.0000
 40
0.0635
 41
0.0635
 70
0
  0
VERTEX
  8
25
 10
7.0168
 20
4.4069
 30
0.0000
 42
1.0000
  0
VERTEX
  8
25
 10
7.0803
 20
4.4069
 30
0.0000
  0
SEQEND
  8
0
  0
POLYLINE
  8
25
 66
1
 10
0.0000
 20
0.0000
 30
0.0000
 40
0.0635
 41
0.0635
 70
0
  0
VERTEX
  8
25
 10
7.0803
 20
5.5509
 30
0.0000
 42
1.0000
  0
VERTEX
  8
25
 10
7.0168
 20
5.5509
 30
0.0000
  0
SEQEND
  8
0
  0
POLYLINE
  8
25
 66
1
 10
0.0000
 20
0.0000
 30
0.0000
 40
0.1270
 41
0.1270
 70
0
  0
VERTEX
  8
25
 10
7.0485
 20
4.4069
 30
0.0000
  0
VERTEX
  8
25
 10
7.8112
 20
4.4069
 30
0.0000
  0
SEQEND
  8
0
  0
POLYLINE
  8
25
 66
1
 10
0.0000
 20
0.0000
 30
0.0000
 40
0.0635
 41
0.0635
 70
0
  0
VERTEX
  8
25
 10
7.8112
 20
4.3752
 30
0.0000
 42
1.0000
  0
VERTEX
  8
25
 10
7.8112
 20
4.4386
 30
0.0000
  0
SEQEND
  8
0
  0
POLYLINE
  8
25
 66
1
 10
0.0000
 20
0.0000
 30
0.0000
 40
0.0635
 41
0.0635
 70
0
  0
VERTEX
  8
25
 10
7.0485
 20
4.4386
 30
0.0000
 42
1.0000
  0
VERTEX
  8
25
 10
7.0485
 20
4.3752
 30
0.0000
  0
SEQEND
  8
0
  0
POLYLINE
  8
25
 66
1
 10
0.0000
 20
0.0000
 30
0.0000
 40
0.1270
 41
0.1270
 70
0
  0
VERTEX
  8
25
 10
8.9805
 20
5.5509
 30
0.0000
  0
VERTEX
  8
25
 10
8.2179
 20
5.5509
 30
0.0000
  0
SEQEND
  8
0
  0
POLYLINE
  8
25
 66
1
 10
0.0000
 20
0.0000
 30
0.0000
 40
0.0635
 41
0.0635
 70
0
  0
VERTEX
  8
25
 10
8.2179
 20
5.5826
 30
0.0000
 42
1.0000
  0
VERTEX
  8
25
 10
8.2179
 20
5.5191
 30
0.0000
  0
SEQEND
  8
0
  0
POLYLINE
  8
25
 66
1
 10
0.0000
 20
0.0000
 30
0.0000
 40
0.0635
 41
0.0635
 70
0
  0
VERTEX
  8
25
 10
8.9805
 20
5.5191
 30
0.0000
 42
1.0000
  0
VERTEX
  8
25
 10
8.9805
 20
5.5826
 30
0.0000
  0
SEQEND
  8
0
  0
POLYLINE
  8
25
 66
1
 10
0.0000
 20
0.0000
 30
0.0000
 40
0.1270
 41
0.1270
 70
0
  0
VERTEX
  8
25
 10
8.2179
 20
5.5509
 30
0.0000
  0
VERTEX
  8
25
 10
8.2179
 20
4.4069
 30
0.0000
  0
SEQEND
  8
0
  0
POLYLINE
  8
25
 66
1
 10
0.0000
 20
0.0000
 30
0.0000
 40
0.0635
 41
0.0635
 70
0
  0
VERTEX
  8
25
 10
8.1861
 20
4.4069
 30
0.0000
 42
1.0000
  0
VERTEX
  8
25
 10
8.2496
 20
4.4069
 30
0.0000
  0
SEQEND
  8
0
  0
POLYLINE
  8
25
 66
1
 10
0.0000
 20
0.0000
 30
0.0000
 40
0.0635
 41
0.0635
 70
0
  0
VERTEX
  8
25
 10
8.2496
 20
5.5509
 30
0.0000
 42
1.0000
  0
VERTEX
  8
25
 10
8.1861
 20
5.5509
 30
0.0000
  0
SEQEND
  8
0
  0
POLYLINE
  8
25
 66
1
 10
0.0000
 20
0.0000
 30
0.0000
 40
0.1270
 41
0.1270
 70
0
  0
VERTEX
  8
25
 10
8.2179
 20
4.4069
 30
0.0000
  0
VERTEX
  8
25
 10
8.9805
 20
4.4069
 30
0.0000
  0
SEQEND
  8
0
  0
POLYLINE
  8
25
 66
1
 10
0.0000
 20
0.0000
 30
0.0000
 40
0.0635
 41
0.0635
 70
0
  0
VERTEX
  8
25
 10
8.9805
 20
4.3752
 30
0.0000
 42
1.0000
  0
VERTEX
  8
25
 10
8.9805
 20
4.4386
 30
0.0000
  0
SEQEND
  8
0
  0
POLYLINE
  8
25
 66
1
 10
0.0000
 20
0.0000
 30
0.0000
 40
0.0635
 41
0.0635
 70
0
  0
VERTEX
  8
25
 10
8.2179
 20
4.4386
 30
0.0000
 42
1.0000
  0
VERTEX
  8
25
 10
8.2179
 20
4.3752
 30
0.0000
  0
SEQEND
  8
0
  0
POLYLINE
  8
25
 66
1
 10
0.0000
 20
0.0000
 30
0.0000
 40
0.1270
 41
0.1270
 70
0
  0
VERTEX
  8
25
 10
8.2179
 20
4.9789
 30
0.0000
  0
VERTEX
  8
25
 10
8.5992
 20
4.9789
 30
0.0000
  0
SEQEND
  8
0
  0
POLYLINE
  8
25
 66
1
 10
0.0000
 20
0.0000
 30
0.0000
 40
0.0635
 41
0.0635
 70
0
  0
VERTEX
  8
25
 10
8.5992
 20
4.9471
 30
0.0000
 42
1.0000
  0
VERTEX
  8
25
 10
8.5992
 20
5.0106
 30
0.0000
  0
SEQEND
  8
0
  0
POLYLINE
  8
25
 66
1
 10
0.0000
 20
0.0000
 30
0.0000
 40
0.0635
 41
0.0635
 70
0
  0
VERTEX
  8
25
 10
8.2179
 20
5.0106
 30
0.0000
 42
1.0000
  0
VERTEX
  8
25
 10
8.2179
 20
4.9471
 30
0.0000
  0
SEQEND
  8
0
  0
POLYLINE
  8
25
 66
1
 10
0.0000
 20
0.0000
 30
0.0000
 40
0.1270
 41
0.1270
 70
0
  0
VERTEX
  8
25
 10
9.3873
 20
5.5509
 30
0.0000
  0
VERTEX
  8
25
 10
9.3873
 20
4.4069
 30
0.0000
  0
SEQEND
  8
0
  0
POLYLINE
  8
25
 66
1
 10
0.0000
 20
0.0000
 30
0.0000
 40
0.0635
 41
0.0635
 70
0
  0
VERTEX
  8
25
 10
9.3555
 20
4.4069
 30
0.0000
 42
1.0000
  0
VERTEX
  8
25
 10
9.4190
 20
4.4069
 30
0.0000
  0
SEQEND
  8
0
  0
POLYLINE
  8
25
 66
1
 10
0.0000
 20
0.0000
 30
0.0000
 40
0.0635
 41
0.0635
 70
0
  0
VERTEX
  8
25
 10
9.4190
 20
5.5509
 30
0.0000
 42
1.0000
  0
VERTEX
  8
25
 10
9.3555
 20
5.5509
 30
0.0000
  0
SEQEND
  8
0
  0
POLYLINE
  8
25
 66
1
 10
0.0000
 20
0.0000
 30
0.0000
 40
0.1270
 41
0.1270
 70
0
  0
VERTEX
  8
25
 10
9.3873
 20
4.4069
 30
0.0000
  0
VERTEX
  8
25
 10
9.9593
 20
4.4069
 30
0.0000
  0
SEQEND
  8
0
  0
POLYLINE
  8
25
 66
1
 10
0.0000
 20
0.0000
 30
0.0000
 40
0.0635
 41
0.0635
 70
0
  0
VERTEX
  8
25
 10
9.9593
 20
4.3752
 30
0.0000
 42
1.0000
  0
VERTEX
  8
25
 10
9.9593
 20
4.4386
 30
0.0000
  0
SEQEND
  8
0
  0
POLYLINE
  8
25
 66
1
 10
0.0000
 20
0.0000
 30
0.0000
 40
0.0635
 41
0.0635
 70
0
  0
VERTEX
  8
25
 10
9.3873
 20
4.4386
 30
0.0000
 42
1.0000
  0
VERTEX
  8
25
 10
9.3873
 20
4.3752
 30
0.0000
  0
SEQEND
  8
0
  0
POLYLINE
  8
25
 66
1
 10
0.0000
 20
0.0000
 30
0.0000
 40
0.1270
 41
0.1270
 70
0
  0
VERTEX
  8
25
 10
9.9593
 20
4.4069
 30
0.0000
  0
VERTEX
  8
25
 10
10.1499
 20
4.5976
 30
0.0000
  0
SEQEND
  8
0
  0
POLYLINE
  8
25
 66
1
 10
0.0000
 20
0.0000
 30
0.0000
 40
0.0635
 41
0.0635
 70
0
  0
VERTEX
  8
25
 10
10.1724
 20
4.5751
 30
0.0000
 42
1.0000
  0
VERTEX
  8
25
 10
10.1275
 20
4.6200
 30
0.0000
  0
SEQEND
  8
0
  0
POLYLINE
  8
25
 66
1
 10
0.0000
 20
0.0000
 30
0.0000
 40
0.0635
 41
0.0635
 70
0
  0
VERTEX
  8
25
 10
9.9368
 20
4.4294
 30
0.0000
 42
1.0000
  0
VERTEX
  8
25
 10
9.9817
 20
4.3844
 30
0.0000
  0
SEQEND
  8
0
  0
POLYLINE
  8
25
 66
1
 10
0.0000
 20
0.0000
 30
0.0000
 40
0.1270
 41
0.1270
 70
0
  0
VERTEX
  8
25
 10
10.1499
 20
4.5976
 30
0.0000
  0
VERTEX
  8
25
 10
10.1499
 20
5.3602
 30
0.0000
  0
SEQEND
  8
0
  0
POLYLINE
  8
25
 66
1
 10
0.0000
 20
0.0000
 30
0.0000
 40
0.0635
 41
0.0635
 70
0
  0
VERTEX
  8
25
 10
10.1817
 20
5.3602
 30
0.0000
 42
1.0000
  0
VERTEX
  8
25
 10
10.1182
 20
5.3602
 30
0.0000
  0
SEQEND
  8
0
  0
POLYLINE
  8
25
 66
1
 10
0.0000
 20
0.0000
 30
0.0000
 40
0.0635
 41
0.0635
 70
0
  0
VERTEX
  8
25
 10
10.1182
 20
4.5976
 30
0.0000
 42
1.0000
  0
VERTEX
  8
25
 10
10.1817
 20
4.5976
 30
0.0000
  0
SEQEND
  8
0
  0
POLYLINE
  8
25
 66
1
 10
0.0000
 20
0.0000
 30
0.0000
 40
0.1270
 41
0.1270
 70
0
  0
VERTEX
  8
25
 10
10.1499
 20
5.3602
 30
0.0000
  0
VERTEX
  8
25
 10
9.9593
 20
5.5509
 30
0.0000
  0
SEQEND
  8
0
  0
POLYLINE
  8
25
 66
1
 10
0.0000
 20
0.0000
 30
0.0000
 40
0.0635
 41
0.0635
 70
0
  0
VERTEX
  8
25
 10
9.9817
 20
5.5733
 30
0.0000
 42
1.0000
  0
VERTEX
  8
25
 10
9.9368
 20
5.5284
 30
0.0000
  0
SEQEND
  8
0
  0
POLYLINE
  8
25
 66
1
 10
0.0000
 20
0.0000
 30
0.0000
 40
0.0635
 41
0.0635
 70
0
  0
VERTEX
  8
25
 10
10.1275
 20
5.3378
 30
0.0000
 42
1.0000
  0
VERTEX
  8
25
 10
10.1724
 20
5.3827
 30
0.0000
  0
SEQEND
  8
0
  0
POLYLINE
  8
25
 66
1
 10
0.0000
 20
0.0000
 30
0.0000
 40
0.1270
 41
0.1270
 70
0
  0
VERTEX
  8
25
 10
9.9593
 20
5.5509
 30
0.0000
  0
VERTEX
  8
25
 10
9.3873
 20
5.5509
 30
0.0000
  0
SEQEND
  8
0
  0
POLYLINE
  8
25
 66
1
 10
0.0000
 20
0.0000
 30
0.0000
 40
0.0635
 41
0.0635
 70
0
  0
VERTEX
  8
25
 10
9.3873
 20
5.5826
 30
0.0000
 42
1.0000
  0
VERTEX
  8
25
 10
9.3873
 20
5.5191
 30
0.0000
  0
SEQEND
  8
0
  0
POLYLINE
  8
25
 66
1
 10
0.0000
 20
0.0000
 30
0.0000
 40
0.0635
 41
0.0635
 70
0
  0
VERTEX
  8
25
 10
9.9593
 20
5.5191
 30
0.0000
 42
1.0000
  0
VERTEX
  8
25
 10
9.9593
 20
5.5826
 30
0.0000
  0
SEQEND
  8
0
  0
POLYLINE
  8
25
 66
1
 10
0.0000
 20
0.0000
 30
0.0000
 40
0.1270
 41
0.1270
 70
0
  0
VERTEX
  8
25
 10
11.3193
 20
5.5509
 30
0.0000
  0
VERTEX
  8
25
 10
10.5567
 20
5.5509
 30
0.0000
  0
SEQEND
  8
0
  0
POLYLINE
  8
25
 66
1
 10
0.0000
 20
0.0000
 30
0.0000
 40
0.0635
 41
0.0635
 70
0
  0
VERTEX
  8
25
 10
10.5567
 20
5.5826
 30
0.0000
 42
1.0000
  0
VERTEX
  8
25
 10
10.5567
 20
5.5191
 30
0.0000
  0
SEQEND
  8
0
  0
POLYLINE
  8
25
 66
1
 10
0.0000
 20
0.0000
 30
0.0000
 40
0.0635
 41
0.0635
 70
0
  0
VERTEX
  8
25
 10
11.3193
 20
5.5191
 30
0.0000
 42
1.0000
  0
VERTEX
  8
25
 10
11.3193
 20
5.5826
 30
0.0000
  0
SEQEND
  8
0
  0
POLYLINE
  8
25
 66
1
 10
0.0000
 20
0.0000
 30
0.0000
 40
0.1270
 41
0.1270
 70
0
  0
VERTEX
  8
25
 10
10.5567
 20
5.5509
 30
0.0000
  0
VERTEX
  8
25
 10
10.5567
 20
4.9789
 30
0.0000
  0
SEQEND
  8
0
  0
POLYLINE
  8
25
 66
1
 10
0.0000
 20
0.0000
 30
0.0000
 40
0.0635
 41
0.0635
 70
0
  0
VERTEX
  8
25
 10
10.5249
 20
4.9789
 30
0.0000
 42
1.0000
  0
VERTEX
  8
25
 10
10.5884
 20
4.9789
 30
0.0000
  0
SEQEND
  8
0
  0
POLYLINE
  8
25
 66
1
 10
0.0000
 20
0.0000
 30
0.0000
 40
0.0635
 41
0.0635
 70
0
  0
VERTEX
  8
25
 10
10.5884
 20
5.5509
 30
0.0000
 42
1.0000
  0
VERTEX
  8
25
 10
10.5249
 20
5.5509
 30
0.0000
  0
SEQEND
  8
0
  0
POLYLINE
  8
25
 66
1
 10
0.0000
 20
0.0000
 30
0.0000
 40
0.1270
 41
0.1270
 70
0
  0
VERTEX
  8
25
 10
10.5567
 20
4.9789
 30
0.0000
  0
VERTEX
  8
25
 10
10.9380
 20
5.1696
 30
0.0000
  0
SEQEND
  8
0
  0
POLYLINE
  8
25
 66
1
 10
0.0000
 20
0.0000
 30
0.0000
 40
0.0635
 41
0.0635
 70
0
  0
VERTEX
  8
25
 10
10.9522
 20
5.1412
 30
0.0000
 42
1.0000
  0
VERTEX
  8
25
 10
10.9238
 20
5.1979
 30
0.0000
  0
SEQEND
  8
0
  0
POLYLINE
  8
25
 66
1
 10
0.0000
 20
0.0000
 30
0.0000
 40
0.0635
 41
0.0635
 70
0
  0
VERTEX
  8
25
 10
10.5425
 20
5.0073
 30
0.0000
 42
1.0000
  0
VERTEX
  8
25
 10
10.5709
 20
4.9505
 30
0.0000
  0
SEQEND
  8
0
  0
POLYLINE
  8
25
 66
1
 10
0.0000
 20
0.0000
 30
0.0000
 40
0.1270
 41
0.1270
 70
0
  0
VERTEX
  8
25
 10
10.9380
 20
5.1696
 30
0.0000
  0
VERTEX
  8
25
 10
11.1287
 20
5.1696
 30
0.0000
  0
SEQEND
  8
0
  0
POLYLINE
  8
25
 66
1
 10
0.0000
 20
0.0000
 30
0.0000
 40
0.0635
 41
0.0635
 70
0
  0
VERTEX
  8
25
 10
11.1287
 20
5.1378
 30
0.0000
 42
1.0000
  0
VERTEX
  8
25
 10
11.1287
 20
5.2013
 30
0.0000
  0
SEQEND
  8
0
  0
POLYLINE
  8
25
 66
1
 10
0.0000
 20
0.0000
 30
0.0000
 40
0.0635
 41
0.0635
 70
0
  0
VERTEX
  8
25
 10
10.9380
 20
5.2013
 30
0.0000
 42
1.0000
  0
VERTEX
  8
25
 10
10.9380
 20
5.1378
 30
0.0000
  0
SEQEND
  8
0
  0
POLYLINE
  8
25
 66
1
 10
0.0000
 20
0.0000
 30
0.0000
 40
0.1270
 41
0.1270
 70
0
  0
VERTEX
  8
25
 10
11.1287
 20
5.1696
 30
0.0000
  0
VERTEX
  8
25
 10
11.3193
 20
4.9789
 30
0.0000
  0
SEQEND
  8
0
  0
POLYLINE
  8
25
 66
1
 10
0.0000
 20
0.0000
 30
0.0000
 40
0.0635
 41
0.0635
 70
0
  0
VERTEX
  8
25
 10
11.2969
 20
4.9564
 30
0.0000
 42
1.0000
  0
VERTEX
  8
25
 10
11.3418
 20
5.0013
 30
0.0000
  0
SEQEND
  8
0
  0
POLYLINE
  8
25
 66
1
 10
0.0000
 20
0.0000
 30
0.0000
 40
0.0635
 41
0.0635
 70
0
  0
VERTEX
  8
25
 10
11.1511
 20
5.1920
 30
0.0000
 42
1.0000
  0
VERTEX
  8
25
 10
11.1062
 20
5.1471
 30
0.0000
  0
SEQEND
  8
0
  0
POLYLINE
  8
25
 66
1
 10
0.0000
 20
0.0000
 30
0.0000
 40
0.1270
 41
0.1270
 70
0
  0
VERTEX
  8
25
 10
11.3193
 20
4.9789
 30
0.0000
  0
VERTEX
  8
25
 10
11.3193
 20
4.5976
 30
0.0000
  0
SEQEND
  8
0
  0
POLYLINE
  8
25
 66
1
 10
0.0000
 20
0.0000
 30
0.0000
 40
0.0635
 41
0.0635
 70
0
  0
VERTEX
  8
25
 10
11.2876
 20
4.5976
 30
0.0000
 42
1.0000
  0
VERTEX
  8
25
 10
11.3511
 20
4.5976
 30
0.0000
  0
SEQEND
  8
0
  0
POLYLINE
  8
25
 66
1
 10
0.0000
 20
0.0000
 30
0.0000
 40
0.0635
 41
0.0635
 70
0
  0
VERTEX
  8
25
 10
11.3511
 20
4.9789
 30
0.0000
 42
1.0000
  0
VERTEX
  8
25
 10
11.2876
 20
4.9789
 30
0.0000
  0
SEQEND
  8
0
  0
POLYLINE
  8
25
 66
1
 10
0.0000
 20
0.0000
 30
0.0000
 40
0.1270
 41
0.1270
 70
0
  0
VERTEX
  8
25
 10
11.3193
 20
4.5976
 30
0.0000
  0
VERTEX
  8
25
 10
11.1287
 20
4.4069
 30
0.0000
  0
SEQEND
  8
0
  0
POLYLINE
  8
25
 66
1
 10
0.0000
 20
0.0000
 30
0.0000
 40
0.0635
 41
0.0635
 70
0
  0
VERTEX
  8
25
 10
11.1062
 20
4.4294
 30
0.0000
 42
1.0000
  0
VERTEX
  8
25
 10
11.1511
 20
4.3844
 30
0.0000
  0
SEQEND
  8
0
  0
POLYLINE
  8
25
 66
1
 10
0.0000
 20
0.0000
 30
0.0000
 40
0.0635
 41
0.0635
 70
0
  0
VERTEX
  8
25
 10
11.3418
 20
4.5751
 30
0.0000
 42
1.0000
  0
VERTEX
  8
25
 10
11.2969
 20
4.6200
 30
0.0000
  0
SEQEND
  8
0
  0
POLYLINE
  8
25
 66
1
 10
0.0000
 20
0.0000
 30
0.0000
 40
0.1270
 41
0.1270
 70
0
  0
VERTEX
  8
25
 10
11.1287
 20
4.4069
 30
0.0000
  0
VERTEX
  8
25
 10
10.7474
 20
4.4069
 30
0.0000
  0
SEQEND
  8
0
  0
POLYLINE
  8
25
 66
1
 10
0.0000
 20
0.0000
 30
0.0000
 40
0.0635
 41
0.0635
 70
0
  0
VERTEX
  8
25
 10
10.7474
 20
4.4386
 30
0.0000
 42
1.0000
  0
VERTEX
  8
25
 10
10.7474
 20
4.3752
 30
0.0000
  0
SEQEND
  8
0
  0
POLYLINE
  8
25
 66
1
 10
0.0000
 20
0.0000
 30
0.0000
 40
0.0635
 41
0.0635
 70
0
  0
VERTEX
  8
25
 10
11.1287
 20
4.3752
 30
0.0000
 42
1.0000
  0
VERTEX
  8
25
 10
11.1287
 20
4.4386
 30
0.0000
  0
SEQEND
  8
0
  0
POLYLINE
  8
25
 66
1
 10
0.0000
 20
0.0000
 30
0.0000
 40
0.1270
 41
0.1270
 70
0
  0
VERTEX
  8
25
 10
10.7474
 20
4.4069
 30
0.0000
  0
VERTEX
  8
25
 10
10.5567
 20
4.5976
 30
0.0000
  0
SEQEND
  8
0
  0
POLYLINE
  8
25
 66
1
 10
0.0000
 20
0.0000
 30
0.0000
 40
0.0635
 41
0.0635
 70
0
  0
VERTEX
  8
25
 10
10.5791
 20
4.6200
 30
0.0000
 42
1.0000
  0
VERTEX
  8
25
 10
10.5342
 20
4.5751
 30
0.0000
  0
SEQEND
  8
0
  0
POLYLINE
  8
25
 66
1
 10
0.0000
 20
0.0000
 30
0.0000
 40
0.0635
 41
0.0635
 70
0
  0
VERTEX
  8
25
 10
10.7249
 20
4.3844
 30
0.0000
 42
1.0000
  0
VERTEX
  8
25
 10
10.7698
 20
4.4294
 30
0.0000
  0
SEQEND
  8
0
  0
POLYLINE
  8
21
 66
1
 10
0.0000
 20
0.0000
 30
0.0000
 40
0.1524
 41
0.1524
 70
0
  0
VERTEX
  8
21
 10
3.8100
 20
1.2700
 30
0.0000
 42
1.0000
  0
VERTEX
  8
21
 10
3.8100
 20
6.3500
 30
0.0000
 42
1.0000
  0
VERTEX
  8
21
 10
3.8100
 20
1.2700
 30
0.0000
  0
SEQEND
  8
0
  0
INSERT
  8
17
  2
OCTAGONP
 10
2.5400
 20
3.8100
 30
0.0000
 41
1.6764
 42
1.6764
 43
1.0000
 50
0.0000
  0
INSERT
  8
17
  2
OCTAGONP
 10
2.5400
 20
3.8100
 30
0.0000
 41
1.6764
 42
1.6764
 43
1.0000
 50
0.0000
  0
INSERT
  8
17
  2
OCTAGONP
 10
5.0800
 20
3.8100
 30
0.0000
 41
1.6764
 42
1.6764
 43
1.0000
 50
0.0000
  0
INSERT
  8
17
  2
OCTAGONP
 10
5.0800
 20
3.8100
 30
0.0000
 41
1.6764
 42
1.6764
 43
1.0000
 50
0.0000
  0
POINT
  8
23
 10
19.0500
 20
13.9700
 30
0.0000
  0
POLYLINE
  8
21
 66
1
 10
0.0000
 20
0.0000
 30
0.0000
 40
0.2032
 41
0.2032
 70
0
  0
VERTEX
  8
21
 10
21.5900
 20
12.0650
 30
0.0000
  0
VERTEX
  8
21
 10
21.5900
 20
15.8750
 30
0.0000
  0
SEQEND
  8
0
  0
POLYLINE
  8
21
 66
1
 10
0.0000
 20
0.0000
 30
0.0000
 40
0.1016
 41
0.1016
 70
0
  0
VERTEX
  8
21
 10
21.6408
 20
15.8750
 30
0.0000
 42
1.0000
  0
VERTEX
  8
21
 10
21.5392
 20
15.8750
 30
0.0000
  0
SEQEND
  8
0
  0
POLYLINE
  8
21
 66
1
 10
0.0000
 20
0.0000
 30
0.0000
 40
0.1016
 41
0.1016
 70
0
  0
VERTEX
  8
21
 10
21.5392
 20
12.0650
 30
0.0000
 42
1.0000
  0
VERTEX
  8
21
 10
21.6408
 20
12.0650
 30
0.0000
  0
SEQEND
  8
0
  0
POLYLINE
  8
21
 66
1
 10
0.0000
 20
0.0000
 30
0.0000
 40
0.2540
 41
0.2540
 70
0
  0
VERTEX
  8
21
 10
21.5900
 20
15.8750
 30
0.0000
 42
3.0000
  0
VERTEX
  8
21
 10
21.5900
 20
12.0650
 30
0.0000
  0
SEQEND
  8
0
  0
POLYLINE
  8
51
 66
1
 10
0.0000
 20
0.0000
 30
0.0000
 40
0.1524
 41
0.1524
 70
0
  0
VERTEX
  8
51
 10
19.0500
 20
15.1130
 30
0.0000
 42
0.4142
  0
VERTEX
  8
51
 10
17.9070
 20
13.9700
 30
0.0000
  0
SEQEND
  8
0
  0
POLYLINE
  8
51
 66
1
 10
0.0000
 20
0.0000
 30
0.0000
 40
0.1524
 41
0.1524
 70
0
  0
VERTEX
  8
51
 10
19.0500
 20
12.8270
 30
0.0000
 42
0.4142
  0
VERTEX
  8
51
 10
20.1930
 20
13.9700
 30
0.0000
  0
SEQEND
  8
0
  0
POLYLINE
  8
51
 66
1
 10
0.0000
 20
0.0000
 30
0.0000
 40
0.1524
 41
0.1524
 70
0
  0
VERTEX
  8
51
 10
19.0500
 20
15.6210
 30
0.0000
 42
0.4142
  0
VERTEX
  8
51
 10
17.3990
 20
13.9700
 30
0.0000
  0
SEQEND
  8
0
  0
POLYLINE
  8
51
 66
1
 10
0.0000
 20
0.0000
 30
0.0000
 40
0.1524
 41
0.1524
 70
0
  0
VERTEX
  8
51
 10
19.0500
 20
12.3190
 30
0.0000
 42
0.4142
  0
VERTEX
  8
51
 10
20.7010
 20
13.9700
 30
0.0000
  0
SEQEND
  8
0
  0
POLYLINE
  8
51
 66
1
 10
0.0000
 20
0.0000
 30
0.0000
 40
0.1524
 41
0.1524
 70
0
  0
VERTEX
  8
51
 10
19.0500
 20
16.1290
 30
0.0000
 42
0.4142
  0
VERTEX
  8
51
 10
16.8910
 20
13.9700
 30
0.0000
  0
SEQEND
  8
0
  0
POLYLINE
  8
51
 66
1
 10
0.0000
 20
0.0000
 30
0.0000
 40
0.1524
 41
0.1524
 70
0
  0
VERTEX
  8
51
 10
19.0500
 20
11.8110
 30
0.0000
 42
0.4142
  0
VERTEX
  8
51
 10
21.2090
 20
13.9700
 30
0.0000
  0
SEQEND
  8
0
  0
POLYLINE
  8
25
 66
1
 10
0.0000
 20
0.0000
 30
0.0000
 40
0.1270
 41
0.1270
 70
0
  0
VERTEX
  8
25
 10
22.2885
 20
15.7109
 30
0.0000
  0
VERTEX
  8
25
 10
22.2885
 20
14.5669
 30
0.0000
  0
SEQEND
  8
0
  0
POLYLINE
  8
25
 66
1
 10
0.0000
 20
0.0000
 30
0.0000
 40
0.0635
 41
0.0635
 70
0
  0
VERTEX
  8
25
 10
22.2568
 20
14.5669
 30
0.0000
 42
1.0000
  0
VERTEX
  8
25
 10
22.3203
 20
14.5669
 30
0.0000
  0
SEQEND
  8
0
  0
POLYLINE
  8
25
 66
1
 10
0.0000
 20
0.0000
 30
0.0000
 40
0.0635
 41
0.0635
 70
0
  0
VERTEX
  8
25
 10
22.3203
 20
15.7109
 30
0.0000
 42
1.0000
  0
VERTEX
  8
25
 10
22.2568
 20
15.7109
 30
0.0000
  0
SEQEND
  8
0
  0
POLYLINE
  8
25
 66
1
 10
0.0000
 20
0.0000
 30
0.0000
 40
0.1270
 41
0.1270
 70
0
  0
VERTEX
  8
25
 10
22.2885
 20
14.5669
 30
0.0000
  0
VERTEX
  8
25
 10
23.0511
 20
14.5669
 30
0.0000
  0
SEQEND
  8
0
  0
POLYLINE
  8
25
 66
1
 10
0.0000
 20
0.0000
 30
0.0000
 40
0.0635
 41
0.0635
 70
0
  0
VERTEX
  8
25
 10
23.0511
 20
14.5351
 30
0.0000
 42
1.0000
  0
VERTEX
  8
25
 10
23.0511
 20
14.5987
 30
0.0000
  0
SEQEND
  8
0
  0
POLYLINE
  8
25
 66
1
 10
0.0000
 20
0.0000
 30
0.0000
 40
0.0635
 41
0.0635
 70
0
  0
VERTEX
  8
25
 10
22.2885
 20
14.5987
 30
0.0000
 42
1.0000
  0
VERTEX
  8
25
 10
22.2885
 20
14.5351
 30
0.0000
  0
SEQEND
  8
0
  0
POLYLINE
  8
25
 66
1
 10
0.0000
 20
0.0000
 30
0.0000
 40
0.1270
 41
0.1270
 70
0
  0
VERTEX
  8
25
 10
24.2205
 20
15.7109
 30
0.0000
  0
VERTEX
  8
25
 10
23.4579
 20
15.7109
 30
0.0000
  0
SEQEND
  8
0
  0
POLYLINE
  8
25
 66
1
 10
0.0000
 20
0.0000
 30
0.0000
 40
0.0635
 41
0.0635
 70
0
  0
VERTEX
  8
25
 10
23.4579
 20
15.7426
 30
0.0000
 42
1.0000
  0
VERTEX
  8
25
 10
23.4579
 20
15.6791
 30
0.0000
  0
SEQEND
  8
0
  0
POLYLINE
  8
25
 66
1
 10
0.0000
 20
0.0000
 30
0.0000
 40
0.0635
 41
0.0635
 70
0
  0
VERTEX
  8
25
 10
24.2205
 20
15.6791
 30
0.0000
 42
1.0000
  0
VERTEX
  8
25
 10
24.2205
 20
15.7426
 30
0.0000
  0
SEQEND
  8
0
  0
POLYLINE
  8
25
 66
1
 10
0.0000
 20
0.0000
 30
0.0000
 40
0.1270
 41
0.1270
 70
0
  0
VERTEX
  8
25
 10
23.4579
 20
15.7109
 30
0.0000
  0
VERTEX
  8
25
 10
23.4579
 20
14.5669
 30
0.0000
  0
SEQEND
  8
0
  0
POLYLINE
  8
25
 66
1
 10
0.0000
 20
0.0000
 30
0.0000
 40
0.0635
 41
0.0635
 70
0
  0
VERTEX
  8
25
 10
23.4261
 20
14.5669
 30
0.0000
 42
1.0000
  0
VERTEX
  8
25
 10
23.4896
 20
14.5669
 30
0.0000
  0
SEQEND
  8
0
  0
POLYLINE
  8
25
 66
1
 10
0.0000
 20
0.0000
 30
0.0000
 40
0.0635
 41
0.0635
 70
0
  0
VERTEX
  8
25
 10
23.4896
 20
15.7109
 30
0.0000
 42
1.0000
  0
VERTEX
  8
25
 10
23.4261
 20
15.7109
 30
0.0000
  0
SEQEND
  8
0
  0
POLYLINE
  8
25
 66
1
 10
0.0000
 20
0.0000
 30
0.0000
 40
0.1270
 41
0.1270
 70
0
  0
VERTEX
  8
25
 10
23.4579
 20
14.5669
 30
0.0000
  0
VERTEX
  8
25
 10
24.2205
 20
14.5669
 30
0.0000
  0
SEQEND
  8
0
  0
POLYLINE
  8
25
 66
1
 10
0.0000
 20
0.0000
 30
0.0000
 40
0.0635
 41
0.0635
 70
0
  0
VERTEX
  8
25
 10
24.2205
 20
14.5351
 30
0.0000
 42
1.0000
  0
VERTEX
  8
25
 10
24.2205
 20
14.5987
 30
0.0000
  0
SEQEND
  8
0
  0
POLYLINE
  8
25
 66
1
 10
0.0000
 20
0.0000
 30
0.0000
 40
0.0635
 41
0.0635
 70
0
  0
VERTEX
  8
25
 10
23.4579
 20
14.5987
 30
0.0000
 42
1.0000
  0
VERTEX
  8
25
 10
23.4579
 20
14.5351
 30
0.0000
  0
SEQEND
  8
0
  0
POLYLINE
  8
25
 66
1
 10
0.0000
 20
0.0000
 30
0.0000
 40
0.1270
 41
0.1270
 70
0
  0
VERTEX
  8
25
 10
23.4579
 20
15.1389
 30
0.0000
  0
VERTEX
  8
25
 10
23.8392
 20
15.1389
 30
0.0000
  0
SEQEND
  8
0
  0
POLYLINE
  8
25
 66
1
 10
0.0000
 20
0.0000
 30
0.0000
 40
0.0635
 41
0.0635
 70
0
  0
VERTEX
  8
25
 10
23.8392
 20
15.1071
 30
0.0000
 42
1.0000
  0
VERTEX
  8
25
 10
23.8392
 20
15.1706
 30
0.0000
  0
SEQEND
  8
0
  0
POLYLINE
  8
25
 66
1
 10
0.0000
 20
0.0000
 30
0.0000
 40
0.0635
 41
0.0635
 70
0
  0
VERTEX
  8
25
 10
23.4579
 20
15.1706
 30
0.0000
 42
1.0000
  0
VERTEX
  8
25
 10
23.4579
 20
15.1071
 30
0.0000
  0
SEQEND
  8
0
  0
POLYLINE
  8
25
 66
1
 10
0.0000
 20
0.0000
 30
0.0000
 40
0.1270
 41
0.1270
 70
0
  0
VERTEX
  8
25
 10
24.6273
 20
15.7109
 30
0.0000
  0
VERTEX
  8
25
 10
24.6273
 20
14.5669
 30
0.0000
  0
SEQEND
  8
0
  0
POLYLINE
  8
25
 66
1
 10
0.0000
 20
0.0000
 30
0.0000
 40
0.0635
 41
0.0635
 70
0
  0
VERTEX
  8
25
 10
24.5955
 20
14.5669
 30
0.0000
 42
1.0000
  0
VERTEX
  8
25
 10
24.6590
 20
14.5669
 30
0.0000
  0
SEQEND
  8
0
  0
POLYLINE
  8
25
 66
1
 10
0.0000
 20
0.0000
 30
0.0000
 40
0.0635
 41
0.0635
 70
0
  0
VERTEX
  8
25
 10
24.6590
 20
15.7109
 30
0.0000
 42
1.0000
  0
VERTEX
  8
25
 10
24.5955
 20
15.7109
 30
0.0000
  0
SEQEND
  8
0
  0
POLYLINE
  8
25
 66
1
 10
0.0000
 20
0.0000
 30
0.0000
 40
0.1270
 41
0.1270
 70
0
  0
VERTEX
  8
25
 10
24.6273
 20
14.5669
 30
0.0000
  0
VERTEX
  8
25
 10
25.1993
 20
14.5669
 30
0.0000
  0
SEQEND
  8
0
  0
POLYLINE
  8
25
 66
1
 10
0.0000
 20
0.0000
 30
0.0000
 40
0.0635
 41
0.0635
 70
0
  0
VERTEX
  8
25
 10
25.1993
 20
14.5351
 30
0.0000
 42
1.0000
  0
VERTEX
  8
25
 10
25.1993
 20
14.5987
 30
0.0000
  0
SEQEND
  8
0
  0
POLYLINE
  8
25
 66
1
 10
0.0000
 20
0.0000
 30
0.0000
 40
0.0635
 41
0.0635
 70
0
  0
VERTEX
  8
25
 10
24.6273
 20
14.5987
 30
0.0000
 42
1.0000
  0
VERTEX
  8
25
 10
24.6273
 20
14.5351
 30
0.0000
  0
SEQEND
  8
0
  0
POLYLINE
  8
25
 66
1
 10
0.0000
 20
0.0000
 30
0.0000
 40
0.1270
 41
0.1270
 70
0
  0
VERTEX
  8
25
 10
25.1993
 20
14.5669
 30
0.0000
  0
VERTEX
  8
25
 10
25.3899
 20
14.7576
 30
0.0000
  0
SEQEND
  8
0
  0
POLYLINE
  8
25
 66
1
 10
0.0000
 20
0.0000
 30
0.0000
 40
0.0635
 41
0.0635
 70
0
  0
VERTEX
  8
25
 10
25.4124
 20
14.7351
 30
0.0000
 42
1.0000
  0
VERTEX
  8
25
 10
25.3675
 20
14.7800
 30
0.0000
  0
SEQEND
  8
0
  0
POLYLINE
  8
25
 66
1
 10
0.0000
 20
0.0000
 30
0.0000
 40
0.0635
 41
0.0635
 70
0
  0
VERTEX
  8
25
 10
25.1768
 20
14.5894
 30
0.0000
 42
1.0000
  0
VERTEX
  8
25
 10
25.2217
 20
14.5444
 30
0.0000
  0
SEQEND
  8
0
  0
POLYLINE
  8
25
 66
1
 10
0.0000
 20
0.0000
 30
0.0000
 40
0.1270
 41
0.1270
 70
0
  0
VERTEX
  8
25
 10
25.3899
 20
14.7576
 30
0.0000
  0
VERTEX
  8
25
 10
25.3899
 20
15.5202
 30
0.0000
  0
SEQEND
  8
0
  0
POLYLINE
  8
25
 66
1
 10
0.0000
 20
0.0000
 30
0.0000
 40
0.0635
 41
0.0635
 70
0
  0
VERTEX
  8
25
 10
25.4217
 20
15.5202
 30
0.0000
 42
1.0000
  0
VERTEX
  8
25
 10
25.3582
 20
15.5202
 30
0.0000
  0
SEQEND
  8
0
  0
POLYLINE
  8
25
 66
1
 10
0.0000
 20
0.0000
 30
0.0000
 40
0.0635
 41
0.0635
 70
0
  0
VERTEX
  8
25
 10
25.3582
 20
14.7576
 30
0.0000
 42
1.0000
  0
VERTEX
  8
25
 10
25.4217
 20
14.7576
 30
0.0000
  0
SEQEND
  8
0
  0
POLYLINE
  8
25
 66
1
 10
0.0000
 20
0.0000
 30
0.0000
 40
0.1270
 41
0.1270
 70
0
  0
VERTEX
  8
25
 10
25.3899
 20
15.5202
 30
0.0000
  0
VERTEX
  8
25
 10
25.1993
 20
15.7109
 30
0.0000
  0
SEQEND
  8
0
  0
POLYLINE
  8
25
 66
1
 10
0.0000
 20
0.0000
 30
0.0000
 40
0.0635
 41
0.0635
 70
0
  0
VERTEX
  8
25
 10
25.2217
 20
15.7333
 30
0.0000
 42
1.0000
  0
VERTEX
  8
25
 10
25.1768
 20
15.6884
 30
0.0000
  0
SEQEND
  8
0
  0
POLYLINE
  8
25
 66
1
 10
0.0000
 20
0.0000
 30
0.0000
 40
0.0635
 41
0.0635
 70
0
  0
VERTEX
  8
25
 10
25.3675
 20
15.4978
 30
0.0000
 42
1.0000
  0
VERTEX
  8
25
 10
25.4124
 20
15.5427
 30
0.0000
  0
SEQEND
  8
0
  0
POLYLINE
  8
25
 66
1
 10
0.0000
 20
0.0000
 30
0.0000
 40
0.1270
 41
0.1270
 70
0
  0
VERTEX
  8
25
 10
25.1993
 20
15.7109
 30
0.0000
  0
VERTEX
  8
25
 10
24.6273
 20
15.7109
 30
0.0000
  0
SEQEND
  8
0
  0
POLYLINE
  8
25
 66
1
 10
0.0000
 20
0.0000
 30
0.0000
 40
0.0635
 41
0.0635
 70
0
  0
VERTEX
  8
25
 10
24.6273
 20
15.7426
 30
0.0000
 42
1.0000
  0
VERTEX
  8
25
 10
24.6273
 20
15.6791
 30
0.0000
  0
SEQEND
  8
0
  0
POLYLINE
  8
25
 66
1
 10
0.0000
 20
0.0000
 30
0.0000
 40
0.0635
 41
0.0635
 70
0
  0
VERTEX
  8
25
 10
25.1993
 20
15.6791
 30
0.0000
 42
1.0000
  0
VERTEX
  8
25
 10
25.1993
 20
15.7426
 30
0.0000
  0
SEQEND
  8
0
  0
POLYLINE
  8
25
 66
1
 10
0.0000
 20
0.0000
 30
0.0000
 40
0.1270
 41
0.1270
 70
0
  0
VERTEX
  8
25
 10
26.5593
 20
15.7109
 30
0.0000
  0
VERTEX
  8
25
 10
26.1780
 20
15.5202
 30
0.0000
  0
SEQEND
  8
0
  0
POLYLINE
  8
25
 66
1
 10
0.0000
 20
0.0000
 30
0.0000
 40
0.0635
 41
0.0635
 70
0
  0
VERTEX
  8
25
 10
26.1638
 20
15.5486
 30
0.0000
 42
1.0000
  0
VERTEX
  8
25
 10
26.1922
 20
15.4918
 30
0.0000
  0
SEQEND
  8
0
  0
POLYLINE
  8
25
 66
1
 10
0.0000
 20
0.0000
 30
0.0000
 40
0.0635
 41
0.0635
 70
0
  0
VERTEX
  8
25
 10
26.5735
 20
15.6825
 30
0.0000
 42
1.0000
  0
VERTEX
  8
25
 10
26.5451
 20
15.7393
 30
0.0000
  0
SEQEND
  8
0
  0
POLYLINE
  8
25
 66
1
 10
0.0000
 20
0.0000
 30
0.0000
 40
0.1270
 41
0.1270
 70
0
  0
VERTEX
  8
25
 10
26.1780
 20
15.5202
 30
0.0000
  0
VERTEX
  8
25
 10
25.7967
 20
15.1389
 30
0.0000
  0
SEQEND
  8
0
  0
POLYLINE
  8
25
 66
1
 10
0.0000
 20
0.0000
 30
0.0000
 40
0.0635
 41
0.0635
 70
0
  0
VERTEX
  8
25
 10
25.7742
 20
15.1613
 30
0.0000
 42
1.0000
  0
VERTEX
  8
25
 10
25.8191
 20
15.1164
 30
0.0000
  0
SEQEND
  8
0
  0
POLYLINE
  8
25
 66
1
 10
0.0000
 20
0.0000
 30
0.0000
 40
0.0635
 41
0.0635
 70
0
  0
VERTEX
  8
25
 10
26.2005
 20
15.4978
 30
0.0000
 42
1.0000
  0
VERTEX
  8
25
 10
26.1556
 20
15.5427
 30
0.0000
  0
SEQEND
  8
0
  0
POLYLINE
  8
25
 66
1
 10
0.0000
 20
0.0000
 30
0.0000
 40
0.1270
 41
0.1270
 70
0
  0
VERTEX
  8
25
 10
25.7967
 20
15.1389
 30
0.0000
  0
VERTEX
  8
25
 10
25.7967
 20
14.7576
 30
0.0000
  0
SEQEND
  8
0
  0
POLYLINE
  8
25
 66
1
 10
0.0000
 20
0.0000
 30
0.0000
 40
0.0635
 41
0.0635
 70
0
  0
VERTEX
  8
25
 10
25.7649
 20
14.7576
 30
0.0000
 42
1.0000
  0
VERTEX
  8
25
 10
25.8284
 20
14.7576
 30
0.0000
  0
SEQEND
  8
0
  0
POLYLINE
  8
25
 66
1
 10
0.0000
 20
0.0000
 30
0.0000
 40
0.0635
 41
0.0635
 70
0
  0
VERTEX
  8
25
 10
25.8284
 20
15.1389
 30
0.0000
 42
1.0000
  0
VERTEX
  8
25
 10
25.7649
 20
15.1389
 30
0.0000
  0
SEQEND
  8
0
  0
POLYLINE
  8
25
 66
1
 10
0.0000
 20
0.0000
 30
0.0000
 40
0.1270
 41
0.1270
 70
0
  0
VERTEX
  8
25
 10
25.7967
 20
14.7576
 30
0.0000
  0
VERTEX
  8
25
 10
25.9874
 20
14.5669
 30
0.0000
  0
SEQEND
  8
0
  0
POLYLINE
  8
25
 66
1
 10
0.0000
 20
0.0000
 30
0.0000
 40
0.0635
 41
0.0635
 70
0
  0
VERTEX
  8
25
 10
25.9649
 20
14.5444
 30
0.0000
 42
1.0000
  0
VERTEX
  8
25
 10
26.0098
 20
14.5894
 30
0.0000
  0
SEQEND
  8
0
  0
POLYLINE
  8
25
 66
1
 10
0.0000
 20
0.0000
 30
0.0000
 40
0.0635
 41
0.0635
 70
0
  0
VERTEX
  8
25
 10
25.8191
 20
14.7800
 30
0.0000
 42
1.0000
  0
VERTEX
  8
25
 10
25.7742
 20
14.7351
 30
0.0000
  0
SEQEND
  8
0
  0
POLYLINE
  8
25
 66
1
 10
0.0000
 20
0.0000
 30
0.0000
 40
0.1270
 41
0.1270
 70
0
  0
VERTEX
  8
25
 10
25.9874
 20
14.5669
 30
0.0000
  0
VERTEX
  8
25
 10
26.3687
 20
14.5669
 30
0.0000
  0
SEQEND
  8
0
  0
POLYLINE
  8
25
 66
1
 10
0.0000
 20
0.0000
 30
0.0000
 40
0.0635
 41
0.0635
 70
0
  0
VERTEX
  8
25
 10
26.3687
 20
14.5351
 30
0.0000
 42
1.0000
  0
VERTEX
  8
25
 10
26.3687
 20
14.5987
 30
0.0000
  0
SEQEND
  8
0
  0
POLYLINE
  8
25
 66
1
 10
0.0000
 20
0.0000
 30
0.0000
 40
0.0635
 41
0.0635
 70
0
  0
VERTEX
  8
25
 10
25.9874
 20
14.5987
 30
0.0000
 42
1.0000
  0
VERTEX
  8
25
 10
25.9874
 20
14.5351
 30
0.0000
  0
SEQEND
  8
0
  0
POLYLINE
  8
25
 66
1
 10
0.0000
 20
0.0000
 30
0.0000
 40
0.1270
 41
0.1270
 70
0
  0
VERTEX
  8
25
 10
26.3687
 20
14.5669
 30
0.0000
  0
VERTEX
  8
25
 10
26.5593
 20
14.7576
 30
0.0000
  0
SEQEND
  8
0
  0
POLYLINE
  8
25
 66
1
 10
0.0000
 20
0.0000
 30
0.0000
 40
0.0635
 41
0.0635
 70
0
  0
VERTEX
  8
25
 10
26.5818
 20
14.7351
 30
0.0000
 42
1.0000
  0
VERTEX
  8
25
 10
26.5369
 20
14.7800
 30
0.0000
  0
SEQEND
  8
0
  0
POLYLINE
  8
25
 66
1
 10
0.0000
 20
0.0000
 30
0.0000
 40
0.0635
 41
0.0635
 70
0
  0
VERTEX
  8
25
 10
26.3462
 20
14.5894
 30
0.0000
 42
1.0000
  0
VERTEX
  8
25
 10
26.3911
 20
14.5444
 30
0.0000
  0
SEQEND
  8
0
  0
POLYLINE
  8
25
 66
1
 10
0.0000
 20
0.0000
 30
0.0000
 40
0.1270
 41
0.1270
 70
0
  0
VERTEX
  8
25
 10
26.5593
 20
14.7576
 30
0.0000
  0
VERTEX
  8
25
 10
26.5593
 20
14.9482
 30
0.0000
  0
SEQEND
  8
0
  0
POLYLINE
  8
25
 66
1
 10
0.0000
 20
0.0000
 30
0.0000
 40
0.0635
 41
0.0635
 70
0
  0
VERTEX
  8
25
 10
26.5911
 20
14.9482
 30
0.0000
 42
1.0000
  0
VERTEX
  8
25
 10
26.5276
 20
14.9482
 30
0.0000
  0
SEQEND
  8
0
  0
POLYLINE
  8
25
 66
1
 10
0.0000
 20
0.0000
 30
0.0000
 40
0.0635
 41
0.0635
 70
0
  0
VERTEX
  8
25
 10
26.5276
 20
14.7576
 30
0.0000
 42
1.0000
  0
VERTEX
  8
25
 10
26.5911
 20
14.7576
 30
0.0000
  0
SEQEND
  8
0
  0
POLYLINE
  8
25
 66
1
 10
0.0000
 20
0.0000
 30
0.0000
 40
0.1270
 41
0.1270
 70
0
  0
VERTEX
  8
25
 10
26.5593
 20
14.9482
 30
0.0000
  0
VERTEX
  8
25
 10
26.3687
 20
15.1389
 30
0.0000
  0
SEQEND
  8
0
  0
POLYLINE
  8
25
 66
1
 10
0.0000
 20
0.0000
 30
0.0000
 40
0.0635
 41
0.0635
 70
0
  0
VERTEX
  8
25
 10
26.3911
 20
15.1613
 30
0.0000
 42
1.0000
  0
VERTEX
  8
25
 10
26.3462
 20
15.1164
 30
0.0000
  0
SEQEND
  8
0
  0
POLYLINE
  8
25
 66
1
 10
0.0000
 20
0.0000
 30
0.0000
 40
0.0635
 41
0.0635
 70
0
  0
VERTEX
  8
25
 10
26.5369
 20
14.9258
 30
0.0000
 42
1.0000
  0
VERTEX
  8
25
 10
26.5818
 20
14.9707
 30
0.0000
  0
SEQEND
  8
0
  0
POLYLINE
  8
25
 66
1
 10
0.0000
 20
0.0000
 30
0.0000
 40
0.1270
 41
0.1270
 70
0
  0
VERTEX
  8
25
 10
26.3687
 20
15.1389
 30
0.0000
  0
VERTEX
  8
25
 10
25.7967
 20
15.1389
 30
0.0000
  0
SEQEND
  8
0
  0
POLYLINE
  8
25
 66
1
 10
0.0000
 20
0.0000
 30
0.0000
 40
0.0635
 41
0.0635
 70
0
  0
VERTEX
  8
25
 10
25.7967
 20
15.1706
 30
0.0000
 42
1.0000
  0
VERTEX
  8
25
 10
25.7967
 20
15.1071
 30
0.0000
  0
SEQEND
  8
0
  0
POLYLINE
  8
25
 66
1
 10
0.0000
 20
0.0000
 30
0.0000
 40
0.0635
 41
0.0635
 70
0
  0
VERTEX
  8
25
 10
26.3687
 20
15.1071
 30
0.0000
 42
1.0000
  0
VERTEX
  8
25
 10
26.3687
 20
15.1706
 30
0.0000
  0
SEQEND
  8
0
  0
POLYLINE
  8
21
 66
1
 10
0.0000
 20
0.0000
 30
0.0000
 40
0.1524
 41
0.1524
 70
0
  0
VERTEX
  8
21
 10
19.0500
 20
11.4300
 30
0.0000
 42
1.0000
  0
VERTEX
  8
21
 10
19.0500
 20
16.5100
 30
0.0000
 42
1.0000
  0
VERTEX
  8
21
 10
19.0500
 20
11.4300
 30
0.0000
  0
SEQEND
  8
0
  0
INSERT
  8
17
  2
OCTAGONP
 10
17.7800
 20
13.9700
 30
0.0000
 41
1.6764
 42
1.6764
 43
1.0000
 50
0.0000
  0
INSERT
  8
17
  2
OCTAGONP
 10
17.7800
 20
13.9700
 30
0.0000
 41
1.6764
 42
1.6764
 43
1.0000
 50
0.0000
  0
INSERT
  8
17
  2
OCTAGONP
 10
20.3200
 20
13.9700
 30
0.0000
 41
1.6764
 42
1.6764
 43
1.0000
 50
0.0000
  0
INSERT
  8
17
  2
OCTAGONP
 10
20.3200
 20
13.9700
 30
0.0000
 41
1.6764
 42
1.6764
 43
1.0000
 50
0.0000
  0
POINT
  8
23
 10
11.4300
 20
3.8100
 30
0.0000
  0
POLYLINE
  8
21
 66
1
 10
0.0000
 20
0.0000
 30
0.0000
 40
0.2032
 41
0.2032
 70
0
  0
VERTEX
  8
21
 10
13.9700
 20
1.9050
 30
0.0000
  0
VERTEX
  8
21
 10
13.9700
 20
5.7150
 30
0.0000
  0
SEQEND
  8
0
  0
POLYLINE
  8
21
 66
1
 10
0.0000
 20
0.0000
 30
0.0000
 40
0.1016
 41
0.1016
 70
0
  0
VERTEX
  8
21
 10
14.0208
 20
5.7150
 30
0.0000
 42
1.0000
  0
VERTEX
  8
21
 10
13.9192
 20
5.7150
 30
0.0000
  0
SEQEND
  8
0
  0
POLYLINE
  8
21
 66
1
 10
0.0000
 20
0.0000
 30
0.0000
 40
0.1016
 41
0.1016
 70
0
  0
VERTEX
  8
21
 10
13.9192
 20
1.9050
 30
0.0000
 42
1.0000
  0
VERTEX
  8
21
 10
14.0208
 20
1.9050
 30
0.0000
  0
SEQEND
  8
0
  0
POLYLINE
  8
21
 66
1
 10
0.0000
 20
0.0000
 30
0.0000
 40
0.2540
 41
0.2540
 70
0
  0
VERTEX
  8
21
 10
13.9700
 20
5.7150
 30
0.0000
 42
3.0000
  0
VERTEX
  8
21
 10
13.9700
 20
1.9050
 30
0.0000
  0
SEQEND
  8
0
  0
POLYLINE
  8
51
 66
1
 10
0.0000
 20
0.0000
 30
0.0000
 40
0.1524
 41
0.1524
 70
0
  0
VERTEX
  8
51
 10
11.4300
 20
4.9530
 30
0.0000
 42
0.4142
  0
VERTEX
  8
51
 10
10.2870
 20
3.8100
 30
0.0000
  0
SEQEND
  8
0
  0
POLYLINE
  8
51
 66
1
 10
0.0000
 20
0.0000
 30
0.0000
 40
0.1524
 41
0.1524
 70
0
  0
VERTEX
  8
51
 10
11.4300
 20
2.6670
 30
0.0000
 42
0.4142
  0
VERTEX
  8
51
 10
12.5730
 20
3.8100
 30
0.0000
  0
SEQEND
  8
0
  0
POLYLINE
  8
51
 66
1
 10
0.0000
 20
0.0000
 30
0.0000
 40
0.1524
 41
0.1524
 70
0
  0
VERTEX
  8
51
 10
11.4300
 20
5.4610
 30
0.0000
 42
0.4142
  0
VERTEX
  8
51
 10
9.7790
 20
3.8100
 30
0.0000
  0
SEQEND
  8
0
  0
POLYLINE
  8
51
 66
1
 10
0.0000
 20
0.0000
 30
0.0000
 40
0.1524
 41
0.1524
 70
0
  0
VERTEX
  8
51
 10
11.4300
 20
2.1590
 30
0.0000
 42
0.4142
  0
VERTEX
  8
51
 10
13.0810
 20
3.8100
 30
0.0000
  0
SEQEND
  8
0
  0
POLYLINE
  8
51
 66
1
 10
0.0000
 20
0.0000
 30
0.0000
 40
0.1524
 41
0.1524
 70
0
  0
VERTEX
  8
51
 10
11.4300
 20
5.9690
 30
0.0000
 42
0.4142
  0
VERTEX
  8
51
 10
9.2710
 20
3.8100
 30
0.0000
  0
SEQEND
  8
0
  0
POLYLINE
  8
51
 66
1
 10
0.0000
 20
0.0000
 30
0.0000
 40
0.1524
 41
0.1524
 70
0
  0
VERTEX
  8
51
 10
11.4300
 20
1.6510
 30
0.0000
 42
0.4142
  0
VERTEX
  8
51
 10
13.5890
 20
3.8100
 30
0.0000
  0
SEQEND
  8
0
  0
POLYLINE
  8
25
 66
1
 10
0.0000
 20
0.0000
 30
0.0000
 40
0.1270
 41
0.1270
 70
0
  0
VERTEX
  8
25
 10
14.6685
 20
5.5509
 30
0.0000
  0
VERTEX
  8
25
 10
14.6685
 20
4.4069
 30
0.0000
  0
SEQEND
  8
0
  0
POLYLINE
  8
25
 66
1
 10
0.0000
 20
0.0000
 30
0.0000
 40
0.0635
 41
0.0635
 70
0
  0
VERTEX
  8
25
 10
14.6367
 20
4.4069
 30
0.0000
 42
1.0000
  0
VERTEX
  8
25
 10
14.7003
 20
4.4069
 30
0.0000
  0
SEQEND
  8
0
  0
POLYLINE
  8
25
 66
1
 10
0.0000
 20
0.0000
 30
0.0000
 40
0.0635
 41
0.0635
 70
0
  0
VERTEX
  8
25
 10
14.7003
 20
5.5509
 30
0.0000
 42
1.0000
  0
VERTEX
  8
25
 10
14.6367
 20
5.5509
 30
0.0000
  0
SEQEND
  8
0
  0
POLYLINE
  8
25
 66
1
 10
0.0000
 20
0.0000
 30
0.0000
 40
0.1270
 41
0.1270
 70
0
  0
VERTEX
  8
25
 10
14.6685
 20
4.4069
 30
0.0000
  0
VERTEX
  8
25
 10
15.4312
 20
4.4069
 30
0.0000
  0
SEQEND
  8
0
  0
POLYLINE
  8
25
 66
1
 10
0.0000
 20
0.0000
 30
0.0000
 40
0.0635
 41
0.0635
 70
0
  0
VERTEX
  8
25
 10
15.4312
 20
4.3752
 30
0.0000
 42
1.0000
  0
VERTEX
  8
25
 10
15.4312
 20
4.4386
 30
0.0000
  0
SEQEND
  8
0
  0
POLYLINE
  8
25
 66
1
 10
0.0000
 20
0.0000
 30
0.0000
 40
0.0635
 41
0.0635
 70
0
  0
VERTEX
  8
25
 10
14.6685
 20
4.4386
 30
0.0000
 42
1.0000
  0
VERTEX
  8
25
 10
14.6685
 20
4.3752
 30
0.0000
  0
SEQEND
  8
0
  0
POLYLINE
  8
25
 66
1
 10
0.0000
 20
0.0000
 30
0.0000
 40
0.1270
 41
0.1270
 70
0
  0
VERTEX
  8
25
 10
16.6005
 20
5.5509
 30
0.0000
  0
VERTEX
  8
25
 10
15.8379
 20
5.5509
 30
0.0000
  0
SEQEND
  8
0
  0
POLYLINE
  8
25
 66
1
 10
0.0000
 20
0.0000
 30
0.0000
 40
0.0635
 41
0.0635
 70
0
  0
VERTEX
  8
25
 10
15.8379
 20
5.5826
 30
0.0000
 42
1.0000
  0
VERTEX
  8
25
 10
15.8379
 20
5.5191
 30
0.0000
  0
SEQEND
  8
0
  0
POLYLINE
  8
25
 66
1
 10
0.0000
 20
0.0000
 30
0.0000
 40
0.0635
 41
0.0635
 70
0
  0
VERTEX
  8
25
 10
16.6005
 20
5.5191
 30
0.0000
 42
1.0000
  0
VERTEX
  8
25
 10
16.6005
 20
5.5826
 30
0.0000
  0
SEQEND
  8
0
  0
POLYLINE
  8
25
 66
1
 10
0.0000
 20
0.0000
 30
0.0000
 40
0.1270
 41
0.1270
 70
0
  0
VERTEX
  8
25
 10
15.8379
 20
5.5509
 30
0.0000
  0
VERTEX
  8
25
 10
15.8379
 20
4.4069
 30
0.0000
  0
SEQEND
  8
0
  0
POLYLINE
  8
25
 66
1
 10
0.0000
 20
0.0000
 30
0.0000
 40
0.0635
 41
0.0635
 70
0
  0
VERTEX
  8
25
 10
15.8061
 20
4.4069
 30
0.0000
 42
1.0000
  0
VERTEX
  8
25
 10
15.8696
 20
4.4069
 30
0.0000
  0
SEQEND
  8
0
  0
POLYLINE
  8
25
 66
1
 10
0.0000
 20
0.0000
 30
0.0000
 40
0.0635
 41
0.0635
 70
0
  0
VERTEX
  8
25
 10
15.8696
 20
5.5509
 30
0.0000
 42
1.0000
  0
VERTEX
  8
25
 10
15.8061
 20
5.5509
 30
0.0000
  0
SEQEND
  8
0
  0
POLYLINE
  8
25
 66
1
 10
0.0000
 20
0.0000
 30
0.0000
 40
0.1270
 41
0.1270
 70
0
  0
VERTEX
  8
25
 10
15.8379
 20
4.4069
 30
0.0000
  0
VERTEX
  8
25
 10
16.6005
 20
4.4069
 30
0.0000
  0
SEQEND
  8
0
  0
POLYLINE
  8
25
 66
1
 10
0.0000
 20
0.0000
 30
0.0000
 40
0.0635
 41
0.0635
 70
0
  0
VERTEX
  8
25
 10
16.6005
 20
4.3752
 30
0.0000
 42
1.0000
  0
VERTEX
  8
25
 10
16.6005
 20
4.4386
 30
0.0000
  0
SEQEND
  8
0
  0
POLYLINE
  8
25
 66
1
 10
0.0000
 20
0.0000
 30
0.0000
 40
0.0635
 41
0.0635
 70
0
  0
VERTEX
  8
25
 10
15.8379
 20
4.4386
 30
0.0000
 42
1.0000
  0
VERTEX
  8
25
 10
15.8379
 20
4.3752
 30
0.0000
  0
SEQEND
  8
0
  0
POLYLINE
  8
25
 66
1
 10
0.0000
 20
0.0000
 30
0.0000
 40
0.1270
 41
0.1270
 70
0
  0
VERTEX
  8
25
 10
15.8379
 20
4.9789
 30
0.0000
  0
VERTEX
  8
25
 10
16.2192
 20
4.9789
 30
0.0000
  0
SEQEND
  8
0
  0
POLYLINE
  8
25
 66
1
 10
0.0000
 20
0.0000
 30
0.0000
 40
0.0635
 41
0.0635
 70
0
  0
VERTEX
  8
25
 10
16.2192
 20
4.9471
 30
0.0000
 42
1.0000
  0
VERTEX
  8
25
 10
16.2192
 20
5.0106
 30
0.0000
  0
SEQEND
  8
0
  0
POLYLINE
  8
25
 66
1
 10
0.0000
 20
0.0000
 30
0.0000
 40
0.0635
 41
0.0635
 70
0
  0
VERTEX
  8
25
 10
15.8379
 20
5.0106
 30
0.0000
 42
1.0000
  0
VERTEX
  8
25
 10
15.8379
 20
4.9471
 30
0.0000
  0
SEQEND
  8
0
  0
POLYLINE
  8
25
 66
1
 10
0.0000
 20
0.0000
 30
0.0000
 40
0.1270
 41
0.1270
 70
0
  0
VERTEX
  8
25
 10
17.0073
 20
5.5509
 30
0.0000
  0
VERTEX
  8
25
 10
17.0073
 20
4.4069
 30
0.0000
  0
SEQEND
  8
0
  0
POLYLINE
  8
25
 66
1
 10
0.0000
 20
0.0000
 30
0.0000
 40
0.0635
 41
0.0635
 70
0
  0
VERTEX
  8
25
 10
16.9755
 20
4.4069
 30
0.0000
 42
1.0000
  0
VERTEX
  8
25
 10
17.0390
 20
4.4069
 30
0.0000
  0
SEQEND
  8
0
  0
POLYLINE
  8
25
 66
1
 10
0.0000
 20
0.0000
 30
0.0000
 40
0.0635
 41
0.0635
 70
0
  0
VERTEX
  8
25
 10
17.0390
 20
5.5509
 30
0.0000
 42
1.0000
  0
VERTEX
  8
25
 10
16.9755
 20
5.5509
 30
0.0000
  0
SEQEND
  8
0
  0
POLYLINE
  8
25
 66
1
 10
0.0000
 20
0.0000
 30
0.0000
 40
0.1270
 41
0.1270
 70
0
  0
VERTEX
  8
25
 10
17.0073
 20
4.4069
 30
0.0000
  0
VERTEX
  8
25
 10
17.5793
 20
4.4069
 30
0.0000
  0
SEQEND
  8
0
  0
POLYLINE
  8
25
 66
1
 10
0.0000
 20
0.0000
 30
0.0000
 40
0.0635
 41
0.0635
 70
0
  0
VERTEX
  8
25
 10
17.5793
 20
4.3752
 30
0.0000
 42
1.0000
  0
VERTEX
  8
25
 10
17.5793
 20
4.4386
 30
0.0000
  0
SEQEND
  8
0
  0
POLYLINE
  8
25
 66
1
 10
0.0000
 20
0.0000
 30
0.0000
 40
0.0635
 41
0.0635
 70
0
  0
VERTEX
  8
25
 10
17.0073
 20
4.4386
 30
0.0000
 42
1.0000
  0
VERTEX
  8
25
 10
17.0073
 20
4.3752
 30
0.0000
  0
SEQEND
  8
0
  0
POLYLINE
  8
25
 66
1
 10
0.0000
 20
0.0000
 30
0.0000
 40
0.1270
 41
0.1270
 70
0
  0
VERTEX
  8
25
 10
17.5793
 20
4.4069
 30
0.0000
  0
VERTEX
  8
25
 10
17.7699
 20
4.5976
 30
0.0000
  0
SEQEND
  8
0
  0
POLYLINE
  8
25
 66
1
 10
0.0000
 20
0.0000
 30
0.0000
 40
0.0635
 41
0.0635
 70
0
  0
VERTEX
  8
25
 10
17.7924
 20
4.5751
 30
0.0000
 42
1.0000
  0
VERTEX
  8
25
 10
17.7475
 20
4.6200
 30
0.0000
  0
SEQEND
  8
0
  0
POLYLINE
  8
25
 66
1
 10
0.0000
 20
0.0000
 30
0.0000
 40
0.0635
 41
0.0635
 70
0
  0
VERTEX
  8
25
 10
17.5568
 20
4.4294
 30
0.0000
 42
1.0000
  0
VERTEX
  8
25
 10
17.6017
 20
4.3844
 30
0.0000
  0
SEQEND
  8
0
  0
POLYLINE
  8
25
 66
1
 10
0.0000
 20
0.0000
 30
0.0000
 40
0.1270
 41
0.1270
 70
0
  0
VERTEX
  8
25
 10
17.7699
 20
4.5976
 30
0.0000
  0
VERTEX
  8
25
 10
17.7699
 20
5.3602
 30
0.0000
  0
SEQEND
  8
0
  0
POLYLINE
  8
25
 66
1
 10
0.0000
 20
0.0000
 30
0.0000
 40
0.0635
 41
0.0635
 70
0
  0
VERTEX
  8
25
 10
17.8017
 20
5.3602
 30
0.0000
 42
1.0000
  0
VERTEX
  8
25
 10
17.7382
 20
5.3602
 30
0.0000
  0
SEQEND
  8
0
  0
POLYLINE
  8
25
 66
1
 10
0.0000
 20
0.0000
 30
0.0000
 40
0.0635
 41
0.0635
 70
0
  0
VERTEX
  8
25
 10
17.7382
 20
4.5976
 30
0.0000
 42
1.0000
  0
VERTEX
  8
25
 10
17.8017
 20
4.5976
 30
0.0000
  0
SEQEND
  8
0
  0
POLYLINE
  8
25
 66
1
 10
0.0000
 20
0.0000
 30
0.0000
 40
0.1270
 41
0.1270
 70
0
  0
VERTEX
  8
25
 10
17.7699
 20
5.3602
 30
0.0000
  0
VERTEX
  8
25
 10
17.5793
 20
5.5509
 30
0.0000
  0
SEQEND
  8
0
  0
POLYLINE
  8
25
 66
1
 10
0.0000
 20
0.0000
 30
0.0000
 40
0.0635
 41
0.0635
 70
0
  0
VERTEX
  8
25
 10
17.6017
 20
5.5733
 30
0.0000
 42
1.0000
  0
VERTEX
  8
25
 10
17.5568
 20
5.5284
 30
0.0000
  0
SEQEND
  8
0
  0
POLYLINE
  8
25
 66
1
 10
0.0000
 20
0.0000
 30
0.0000
 40
0.0635
 41
0.0635
 70
0
  0
VERTEX
  8
25
 10
17.7475
 20
5.3378
 30
0.0000
 42
1.0000
  0
VERTEX
  8
25
 10
17.7924
 20
5.3827
 30
0.0000
  0
SEQEND
  8
0
  0
POLYLINE
  8
25
 66
1
 10
0.0000
 20
0.0000
 30
0.0000
 40
0.1270
 41
0.1270
 70
0
  0
VERTEX
  8
25
 10
17.5793
 20
5.5509
 30
0.0000
  0
VERTEX
  8
25
 10
17.0073
 20
5.5509
 30
0.0000
  0
SEQEND
  8
0
  0
POLYLINE
  8
25
 66
1
 10
0.0000
 20
0.0000
 30
0.0000
 40
0.0635
 41
0.0635
 70
0
  0
VERTEX
  8
25
 10
17.0073
 20
5.5826
 30
0.0000
 42
1.0000
  0
VERTEX
  8
25
 10
17.0073
 20
5.5191
 30
0.0000
  0
SEQEND
  8
0
  0
POLYLINE
  8
25
 66
1
 10
0.0000
 20
0.0000
 30
0.0000
 40
0.0635
 41
0.0635
 70
0
  0
VERTEX
  8
25
 10
17.5793
 20
5.5191
 30
0.0000
 42
1.0000
  0
VERTEX
  8
25
 10
17.5793
 20
5.5826
 30
0.0000
  0
SEQEND
  8
0
  0
POLYLINE
  8
25
 66
1
 10
0.0000
 20
0.0000
 30
0.0000
 40
0.1270
 41
0.1270
 70
0
  0
VERTEX
  8
25
 10
18.1767
 20
5.5509
 30
0.0000
  0
VERTEX
  8
25
 10
18.9393
 20
5.5509
 30
0.0000
  0
SEQEND
  8
0
  0
POLYLINE
  8
25
 66
1
 10
0.0000
 20
0.0000
 30
0.0000
 40
0.0635
 41
0.0635
 70
0
  0
VERTEX
  8
25
 10
18.9393
 20
5.5191
 30
0.0000
 42
1.0000
  0
VERTEX
  8
25
 10
18.9393
 20
5.5826
 30
0.0000
  0
SEQEND
  8
0
  0
POLYLINE
  8
25
 66
1
 10
0.0000
 20
0.0000
 30
0.0000
 40
0.0635
 41
0.0635
 70
0
  0
VERTEX
  8
25
 10
18.1767
 20
5.5826
 30
0.0000
 42
1.0000
  0
VERTEX
  8
25
 10
18.1767
 20
5.5191
 30
0.0000
  0
SEQEND
  8
0
  0
POLYLINE
  8
25
 66
1
 10
0.0000
 20
0.0000
 30
0.0000
 40
0.1270
 41
0.1270
 70
0
  0
VERTEX
  8
25
 10
18.9393
 20
5.5509
 30
0.0000
  0
VERTEX
  8
25
 10
18.9393
 20
5.3602
 30
0.0000
  0
SEQEND
  8
0
  0
POLYLINE
  8
25
 66
1
 10
0.0000
 20
0.0000
 30
0.0000
 40
0.0635
 41
0.0635
 70
0
  0
VERTEX
  8
25
 10
18.9076
 20
5.3602
 30
0.0000
 42
1.0000
  0
VERTEX
  8
25
 10
18.9711
 20
5.3602
 30
0.0000
  0
SEQEND
  8
0
  0
POLYLINE
  8
25
 66
1
 10
0.0000
 20
0.0000
 30
0.0000
 40
0.0635
 41
0.0635
 70
0
  0
VERTEX
  8
25
 10
18.9711
 20
5.5509
 30
0.0000
 42
1.0000
  0
VERTEX
  8
25
 10
18.9076
 20
5.5509
 30
0.0000
  0
SEQEND
  8
0
  0
POLYLINE
  8
25
 66
1
 10
0.0000
 20
0.0000
 30
0.0000
 40
0.1270
 41
0.1270
 70
0
  0
VERTEX
  8
25
 10
18.9393
 20
5.3602
 30
0.0000
  0
VERTEX
  8
25
 10
18.1767
 20
4.5976
 30
0.0000
  0
SEQEND
  8
0
  0
POLYLINE
  8
25
 66
1
 10
0.0000
 20
0.0000
 30
0.0000
 40
0.0635
 41
0.0635
 70
0
  0
VERTEX
  8
25
 10
18.1542
 20
4.6200
 30
0.0000
 42
1.0000
  0
VERTEX
  8
25
 10
18.1991
 20
4.5751
 30
0.0000
  0
SEQEND
  8
0
  0
POLYLINE
  8
25
 66
1
 10
0.0000
 20
0.0000
 30
0.0000
 40
0.0635
 41
0.0635
 70
0
  0
VERTEX
  8
25
 10
18.9618
 20
5.3378
 30
0.0000
 42
1.0000
  0
VERTEX
  8
25
 10
18.9169
 20
5.3827
 30
0.0000
  0
SEQEND
  8
0
  0
POLYLINE
  8
25
 66
1
 10
0.0000
 20
0.0000
 30
0.0000
 40
0.1270
 41
0.1270
 70
0
  0
VERTEX
  8
25
 10
18.1767
 20
4.5976
 30
0.0000
  0
VERTEX
  8
25
 10
18.1767
 20
4.4069
 30
0.0000
  0
SEQEND
  8
0
  0
POLYLINE
  8
25
 66
1
 10
0.0000
 20
0.0000
 30
0.0000
 40
0.0635
 41
0.0635
 70
0
  0
VERTEX
  8
25
 10
18.1449
 20
4.4069
 30
0.0000
 42
1.0000
  0
VERTEX
  8
25
 10
18.2084
 20
4.4069
 30
0.0000
  0
SEQEND
  8
0
  0
POLYLINE
  8
25
 66
1
 10
0.0000
 20
0.0000
 30
0.0000
 40
0.0635
 41
0.0635
 70
0
  0
VERTEX
  8
25
 10
18.2084
 20
4.5976
 30
0.0000
 42
1.0000
  0
VERTEX
  8
25
 10
18.1449
 20
4.5976
 30
0.0000
  0
SEQEND
  8
0
  0
POLYLINE
  8
21
 66
1
 10
0.0000
 20
0.0000
 30
0.0000
 40
0.1524
 41
0.1524
 70
0
  0
VERTEX
  8
21
 10
11.4300
 20
1.2700
 30
0.0000
 42
1.0000
  0
VERTEX
  8
21
 10
11.4300
 20
6.3500
 30
0.0000
 42
1.0000
  0
VERTEX
  8
21
 10
11.4300
 20
1.2700
 30
0.0000
  0
SEQEND
  8
0
  0
INSERT
  8
17
  2
OCTAGONP
 10
10.1600
 20
3.8100
 30
0.0000
 41
1.6764
 42
1.6764
 43
1.0000
 50
0.0000
  0
INSERT
  8
17
  2
OCTAGONP
 10
10.1600
 20
3.8100
 30
0.0000
 41
1.6764
 42
1.6764
 43
1.0000
 50
0.0000
  0
INSERT
  8
17
  2
OCTAGONP
 10
12.7000
 20
3.8100
 30
0.0000
 41
1.6764
 42
1.6764
 43
1.0000
 50
0.0000
  0
INSERT
  8
17
  2
OCTAGONP
 10
12.7000
 20
3.8100
 30
0.0000
 41
1.6764
 42
1.6764
 43
1.0000
 50
0.0000
  0
POINT
  8
23
 10
19.0500
 20
3.8100
 30
0.0000
  0
POLYLINE
  8
21
 66
1
 10
0.0000
 20
0.0000
 30
0.0000
 40
0.2032
 41
0.2032
 70
0
  0
VERTEX
  8
21
 10
21.5900
 20
1.9050
 30
0.0000
  0
VERTEX
  8
21
 10
21.5900
 20
5.7150
 30
0.0000
  0
SEQEND
  8
0
  0
POLYLINE
  8
21
 66
1
 10
0.0000
 20
0.0000
 30
0.0000
 40
0.1016
 41
0.1016
 70
0
  0
VERTEX
  8
21
 10
21.6408
 20
5.7150
 30
0.0000
 42
1.0000
  0
VERTEX
  8
21
 10
21.5392
 20
5.7150
 30
0.0000
  0
SEQEND
  8
0
  0
POLYLINE
  8
21
 66
1
 10
0.0000
 20
0.0000
 30
0.0000
 40
0.1016
 41
0.1016
 70
0
  0
VERTEX
  8
21
 10
21.5392
 20
1.9050
 30
0.0000
 42
1.0000
  0
VERTEX
  8
21
 10
21.6408
 20
1.9050
 30
0.0000
  0
SEQEND
  8
0
  0
POLYLINE
  8
21
 66
1
 10
0.0000
 20
0.0000
 30
0.0000
 40
0.2540
 41
0.2540
 70
0
  0
VERTEX
  8
21
 10
21.5900
 20
5.7150
 30
0.0000
 42
3.0000
  0
VERTEX
  8
21
 10
21.5900
 20
1.9050
 30
0.0000
  0
SEQEND
  8
0
  0
POLYLINE
  8
51
 66
1
 10
0.0000
 20
0.0000
 30
0.0000
 40
0.1524
 41
0.1524
 70
0
  0
VERTEX
  8
51
 10
19.0500
 20
4.9530
 30
0.0000
 42
0.4142
  0
VERTEX
  8
51
 10
17.9070
 20
3.8100
 30
0.0000
  0
SEQEND
  8
0
  0
POLYLINE
  8
51
 66
1
 10
0.0000
 20
0.0000
 30
0.0000
 40
0.1524
 41
0.1524
 70
0
  0
VERTEX
  8
51
 10
19.0500
 20
2.6670
 30
0.0000
 42
0.4142
  0
VERTEX
  8
51
 10
20.1930
 20
3.8100
 30
0.0000
  0
SEQEND
  8
0
  0
POLYLINE
  8
51
 66
1
 10
0.0000
 20
0.0000
 30
0.0000
 40
0.1524
 41
0.1524
 70
0
  0
VERTEX
  8
51
 10
19.0500
 20
5.4610
 30
0.0000
 42
0.4142
  0
VERTEX
  8
51
 10
17.3990
 20
3.8100
 30
0.0000
  0
SEQEND
  8
0
  0
POLYLINE
  8
51
 66
1
 10
0.0000
 20
0.0000
 30
0.0000
 40
0.1524
 41
0.1524
 70
0
  0
VERTEX
  8
51
 10
19.0500
 20
2.1590
 30
0.0000
 42
0.4142
  0
VERTEX
  8
51
 10
20.7010
 20
3.8100
 30
0.0000
  0
SEQEND
  8
0
  0
POLYLINE
  8
51
 66
1
 10
0.0000
 20
0.0000
 30
0.0000
 40
0.1524
 41
0.1524
 70
0
  0
VERTEX
  8
51
 10
19.0500
 20
5.9690
 30
0.0000
 42
0.4142
  0
VERTEX
  8
51
 10
16.8910
 20
3.8100
 30
0.0000
  0
SEQEND
  8
0
  0
POLYLINE
  8
51
 66
1
 10
0.0000
 20
0.0000
 30
0.0000
 40
0.1524
 41
0.1524
 70
0
  0
VERTEX
  8
51
 10
19.0500
 20
1.6510
 30
0.0000
 42
0.4142
  0
VERTEX
  8
51
 10
21.2090
 20
3.8100
 30
0.0000
  0
SEQEND
  8
0
  0
POLYLINE
  8
25
 66
1
 10
0.0000
 20
0.0000
 30
0.0000
 40
0.1270
 41
0.1270
 70
0
  0
VERTEX
  8
25
 10
22.2885
 20
5.5509
 30
0.0000
  0
VERTEX
  8
25
 10
22.2885
 20
4.4069
 30
0.0000
  0
SEQEND
  8
0
  0
POLYLINE
  8
25
 66
1
 10
0.0000
 20
0.0000
 30
0.0000
 40
0.0635
 41
0.0635
 70
0
  0
VERTEX
  8
25
 10
22.2568
 20
4.4069
 30
0.0000
 42
1.0000
  0
VERTEX
  8
25
 10
22.3203
 20
4.4069
 30
0.0000
  0
SEQEND
  8
0
  0
POLYLINE
  8
25
 66
1
 10
0.0000
 20
0.0000
 30
0.0000
 40
0.0635
 41
0.0635
 70
0
  0
VERTEX
  8
25
 10
22.3203
 20
5.5509
 30
0.0000
 42
1.0000
  0
VERTEX
  8
25
 10
22.2568
 20
5.5509
 30
0.0000
  0
SEQEND
  8
0
  0
POLYLINE
  8
25
 66
1
 10
0.0000
 20
0.0000
 30
0.0000
 40
0.1270
 41
0.1270
 70
0
  0
VERTEX
  8
25
 10
22.2885
 20
4.4069
 30
0.0000
  0
VERTEX
  8
25
 10
23.0511
 20
4.4069
 30
0.0000
  0
SEQEND
  8
0
  0
POLYLINE
  8
25
 66
1
 10
0.0000
 20
0.0000
 30
0.0000
 40
0.0635
 41
0.0635
 70
0
  0
VERTEX
  8
25
 10
23.0511
 20
4.3752
 30
0.0000
 42
1.0000
  0
VERTEX
  8
25
 10
23.0511
 20
4.4386
 30
0.0000
  0
SEQEND
  8
0
  0
POLYLINE
  8
25
 66
1
 10
0.0000
 20
0.0000
 30
0.0000
 40
0.0635
 41
0.0635
 70
0
  0
VERTEX
  8
25
 10
22.2885
 20
4.4386
 30
0.0000
 42
1.0000
  0
VERTEX
  8
25
 10
22.2885
 20
4.3752
 30
0.0000
  0
SEQEND
  8
0
  0
POLYLINE
  8
25
 66
1
 10
0.0000
 20
0.0000
 30
0.0000
 40
0.1270
 41
0.1270
 70
0
  0
VERTEX
  8
25
 10
24.2205
 20
5.5509
 30
0.0000
  0
VERTEX
  8
25
 10
23.4579
 20
5.5509
 30
0.0000
  0
SEQEND
  8
0
  0
POLYLINE
  8
25
 66
1
 10
0.0000
 20
0.0000
 30
0.0000
 40
0.0635
 41
0.0635
 70
0
  0
VERTEX
  8
25
 10
23.4579
 20
5.5826
 30
0.0000
 42
1.0000
  0
VERTEX
  8
25
 10
23.4579
 20
5.5191
 30
0.0000
  0
SEQEND
  8
0
  0
POLYLINE
  8
25
 66
1
 10
0.0000
 20
0.0000
 30
0.0000
 40
0.0635
 41
0.0635
 70
0
  0
VERTEX
  8
25
 10
24.2205
 20
5.5191
 30
0.0000
 42
1.0000
  0
VERTEX
  8
25
 10
24.2205
 20
5.5826
 30
0.0000
  0
SEQEND
  8
0
  0
POLYLINE
  8
25
 66
1
 10
0.0000
 20
0.0000
 30
0.0000
 40
0.1270
 41
0.1270
 70
0
  0
VERTEX
  8
25
 10
23.4579
 20
5.5509
 30
0.0000
  0
VERTEX
  8
25
 10
23.4579
 20
4.4069
 30
0.0000
  0
SEQEND
  8
0
  0
POLYLINE
  8
25
 66
1
 10
0.0000
 20
0.0000
 30
0.0000
 40
0.0635
 41
0.0635
 70
0
  0
VERTEX
  8
25
 10
23.4261
 20
4.4069
 30
0.0000
 42
1.0000
  0
VERTEX
  8
25
 10
23.4896
 20
4.4069
 30
0.0000
  0
SEQEND
  8
0
  0
POLYLINE
  8
25
 66
1
 10
0.0000
 20
0.0000
 30
0.0000
 40
0.0635
 41
0.0635
 70
0
  0
VERTEX
  8
25
 10
23.4896
 20
5.5509
 30
0.0000
 42
1.0000
  0
VERTEX
  8
25
 10
23.4261
 20
5.5509
 30
0.0000
  0
SEQEND
  8
0
  0
POLYLINE
  8
25
 66
1
 10
0.0000
 20
0.0000
 30
0.0000
 40
0.1270
 41
0.1270
 70
0
  0
VERTEX
  8
25
 10
23.4579
 20
4.4069
 30
0.0000
  0
VERTEX
  8
25
 10
24.2205
 20
4.4069
 30
0.0000
  0
SEQEND
  8
0
  0
POLYLINE
  8
25
 66
1
 10
0.0000
 20
0.0000
 30
0.0000
 40
0.0635
 41
0.0635
 70
0
  0
VERTEX
  8
25
 10
24.2205
 20
4.3752
 30
0.0000
 42
1.0000
  0
VERTEX
  8
25
 10
24.2205
 20
4.4386
 30
0.0000
  0
SEQEND
  8
0
  0
POLYLINE
  8
25
 66
1
 10
0.0000
 20
0.0000
 30
0.0000
 40
0.0635
 41
0.0635
 70
0
  0
VERTEX
  8
25
 10
23.4579
 20
4.4386
 30
0.0000
 42
1.0000
  0
VERTEX
  8
25
 10
23.4579
 20
4.3752
 30
0.0000
  0
SEQEND
  8
0
  0
POLYLINE
  8
25
 66
1
 10
0.0000
 20
0.0000
 30
0.0000
 40
0.1270
 41
0.1270
 70
0
  0
VERTEX
  8
25
 10
23.4579
 20
4.9789
 30
0.0000
  0
VERTEX
  8
25
 10
23.8392
 20
4.9789
 30
0.0000
  0
SEQEND
  8
0
  0
POLYLINE
  8
25
 66
1
 10
0.0000
 20
0.0000
 30
0.0000
 40
0.0635
 41
0.0635
 70
0
  0
VERTEX
  8
25
 10
23.8392
 20
4.9471
 30
0.0000
 42
1.0000
  0
VERTEX
  8
25
 10
23.8392
 20
5.0106
 30
0.0000
  0
SEQEND
  8
0
  0
POLYLINE
  8
25
 66
1
 10
0.0000
 20
0.0000
 30
0.0000
 40
0.0635
 41
0.0635
 70
0
  0
VERTEX
  8
25
 10
23.4579
 20
5.0106
 30
0.0000
 42
1.0000
  0
VERTEX
  8
25
 10
23.4579
 20
4.9471
 30
0.0000
  0
SEQEND
  8
0
  0
POLYLINE
  8
25
 66
1
 10
0.0000
 20
0.0000
 30
0.0000
 40
0.1270
 41
0.1270
 70
0
  0
VERTEX
  8
25
 10
24.6273
 20
5.5509
 30
0.0000
  0
VERTEX
  8
25
 10
24.6273
 20
4.4069
 30
0.0000
  0
SEQEND
  8
0
  0
POLYLINE
  8
25
 66
1
 10
0.0000
 20
0.0000
 30
0.0000
 40
0.0635
 41
0.0635
 70
0
  0
VERTEX
  8
25
 10
24.5955
 20
4.4069
 30
0.0000
 42
1.0000
  0
VERTEX
  8
25
 10
24.6590
 20
4.4069
 30
0.0000
  0
SEQEND
  8
0
  0
POLYLINE
  8
25
 66
1
 10
0.0000
 20
0.0000
 30
0.0000
 40
0.0635
 41
0.0635
 70
0
  0
VERTEX
  8
25
 10
24.6590
 20
5.5509
 30
0.0000
 42
1.0000
  0
VERTEX
  8
25
 10
24.5955
 20
5.5509
 30
0.0000
  0
SEQEND
  8
0
  0
POLYLINE
  8
25
 66
1
 10
0.0000
 20
0.0000
 30
0.0000
 40
0.1270
 41
0.1270
 70
0
  0
VERTEX
  8
25
 10
24.6273
 20
4.4069
 30
0.0000
  0
VERTEX
  8
25
 10
25.1993
 20
4.4069
 30
0.0000
  0
SEQEND
  8
0
  0
POLYLINE
  8
25
 66
1
 10
0.0000
 20
0.0000
 30
0.0000
 40
0.0635
 41
0.0635
 70
0
  0
VERTEX
  8
25
 10
25.1993
 20
4.3752
 30
0.0000
 42
1.0000
  0
VERTEX
  8
25
 10
25.1993
 20
4.4386
 30
0.0000
  0
SEQEND
  8
0
  0
POLYLINE
  8
25
 66
1
 10
0.0000
 20
0.0000
 30
0.0000
 40
0.0635
 41
0.0635
 70
0
  0
VERTEX
  8
25
 10
24.6273
 20
4.4386
 30
0.0000
 42
1.0000
  0
VERTEX
  8
25
 10
24.6273
 20
4.3752
 30
0.0000
  0
SEQEND
  8
0
  0
POLYLINE
  8
25
 66
1
 10
0.0000
 20
0.0000
 30
0.0000
 40
0.1270
 41
0.1270
 70
0
  0
VERTEX
  8
25
 10
25.1993
 20
4.4069
 30
0.0000
  0
VERTEX
  8
25
 10
25.3899
 20
4.5976
 30
0.0000
  0
SEQEND
  8
0
  0
POLYLINE
  8
25
 66
1
 10
0.0000
 20
0.0000
 30
0.0000
 40
0.0635
 41
0.0635
 70
0
  0
VERTEX
  8
25
 10
25.4124
 20
4.5751
 30
0.0000
 42
1.0000
  0
VERTEX
  8
25
 10
25.3675
 20
4.6200
 30
0.0000
  0
SEQEND
  8
0
  0
POLYLINE
  8
25
 66
1
 10
0.0000
 20
0.0000
 30
0.0000
 40
0.0635
 41
0.0635
 70
0
  0
VERTEX
  8
25
 10
25.1768
 20
4.4294
 30
0.0000
 42
1.0000
  0
VERTEX
  8
25
 10
25.2217
 20
4.3844
 30
0.0000
  0
SEQEND
  8
0
  0
POLYLINE
  8
25
 66
1
 10
0.0000
 20
0.0000
 30
0.0000
 40
0.1270
 41
0.1270
 70
0
  0
VERTEX
  8
25
 10
25.3899
 20
4.5976
 30
0.0000
  0
VERTEX
  8
25
 10
25.3899
 20
5.3602
 30
0.0000
  0
SEQEND
  8
0
  0
POLYLINE
  8
25
 66
1
 10
0.0000
 20
0.0000
 30
0.0000
 40
0.0635
 41
0.0635
 70
0
  0
VERTEX
  8
25
 10
25.4217
 20
5.3602
 30
0.0000
 42
1.0000
  0
VERTEX
  8
25
 10
25.3582
 20
5.3602
 30
0.0000
  0
SEQEND
  8
0
  0
POLYLINE
  8
25
 66
1
 10
0.0000
 20
0.0000
 30
0.0000
 40
0.0635
 41
0.0635
 70
0
  0
VERTEX
  8
25
 10
25.3582
 20
4.5976
 30
0.0000
 42
1.0000
  0
VERTEX
  8
25
 10
25.4217
 20
4.5976
 30
0.0000
  0
SEQEND
  8
0
  0
POLYLINE
  8
25
 66
1
 10
0.0000
 20
0.0000
 30
0.0000
 40
0.1270
 41
0.1270
 70
0
  0
VERTEX
  8
25
 10
25.3899
 20
5.3602
 30
0.0000
  0
VERTEX
  8
25
 10
25.1993
 20
5.5509
 30
0.0000
  0
SEQEND
  8
0
  0
POLYLINE
  8
25
 66
1
 10
0.0000
 20
0.0000
 30
0.0000
 40
0.0635
 41
0.0635
 70
0
  0
VERTEX
  8
25
 10
25.2217
 20
5.5733
 30
0.0000
 42
1.0000
  0
VERTEX
  8
25
 10
25.1768
 20
5.5284
 30
0.0000
  0
SEQEND
  8
0
  0
POLYLINE
  8
25
 66
1
 10
0.0000
 20
0.0000
 30
0.0000
 40
0.0635
 41
0.0635
 70
0
  0
VERTEX
  8
25
 10
25.3675
 20
5.3378
 30
0.0000
 42
1.0000
  0
VERTEX
  8
25
 10
25.4124
 20
5.3827
 30
0.0000
  0
SEQEND
  8
0
  0
POLYLINE
  8
25
 66
1
 10
0.0000
 20
0.0000
 30
0.0000
 40
0.1270
 41
0.1270
 70
0
  0
VERTEX
  8
25
 10
25.1993
 20
5.5509
 30
0.0000
  0
VERTEX
  8
25
 10
24.6273
 20
5.5509
 30
0.0000
  0
SEQEND
  8
0
  0
POLYLINE
  8
25
 66
1
 10
0.0000
 20
0.0000
 30
0.0000
 40
0.0635
 41
0.0635
 70
0
  0
VERTEX
  8
25
 10
24.6273
 20
5.5826
 30
0.0000
 42
1.0000
  0
VERTEX
  8
25
 10
24.6273
 20
5.5191
 30
0.0000
  0
SEQEND
  8
0
  0
POLYLINE
  8
25
 66
1
 10
0.0000
 20
0.0000
 30
0.0000
 40
0.0635
 41
0.0635
 70
0
  0
VERTEX
  8
25
 10
25.1993
 20
5.5191
 30
0.0000
 42
1.0000
  0
VERTEX
  8
25
 10
25.1993
 20
5.5826
 30
0.0000
  0
SEQEND
  8
0
  0
POLYLINE
  8
25
 66
1
 10
0.0000
 20
0.0000
 30
0.0000
 40
0.1270
 41
0.1270
 70
0
  0
VERTEX
  8
25
 10
25.7967
 20
5.3602
 30
0.0000
  0
VERTEX
  8
25
 10
25.9874
 20
5.5509
 30
0.0000
  0
SEQEND
  8
0
  0
POLYLINE
  8
25
 66
1
 10
0.0000
 20
0.0000
 30
0.0000
 40
0.0635
 41
0.0635
 70
0
  0
VERTEX
  8
25
 10
26.0098
 20
5.5284
 30
0.0000
 42
1.0000
  0
VERTEX
  8
25
 10
25.9649
 20
5.5733
 30
0.0000
  0
SEQEND
  8
0
  0
POLYLINE
  8
25
 66
1
 10
0.0000
 20
0.0000
 30
0.0000
 40
0.0635
 41
0.0635
 70
0
  0
VERTEX
  8
25
 10
25.7742
 20
5.3827
 30
0.0000
 42
1.0000
  0
VERTEX
  8
25
 10
25.8191
 20
5.3378
 30
0.0000
  0
SEQEND
  8
0
  0
POLYLINE
  8
25
 66
1
 10
0.0000
 20
0.0000
 30
0.0000
 40
0.1270
 41
0.1270
 70
0
  0
VERTEX
  8
25
 10
25.9874
 20
5.5509
 30
0.0000
  0
VERTEX
  8
25
 10
26.3687
 20
5.5509
 30
0.0000
  0
SEQEND
  8
0
  0
POLYLINE
  8
25
 66
1
 10
0.0000
 20
0.0000
 30
0.0000
 40
0.0635
 41
0.0635
 70
0
  0
VERTEX
  8
25
 10
26.3687
 20
5.5191
 30
0.0000
 42
1.0000
  0
VERTEX
  8
25
 10
26.3687
 20
5.5826
 30
0.0000
  0
SEQEND
  8
0
  0
POLYLINE
  8
25
 66
1
 10
0.0000
 20
0.0000
 30
0.0000
 40
0.0635
 41
0.0635
 70
0
  0
VERTEX
  8
25
 10
25.9874
 20
5.5826
 30
0.0000
 42
1.0000
  0
VERTEX
  8
25
 10
25.9874
 20
5.5191
 30
0.0000
  0
SEQEND
  8
0
  0
POLYLINE
  8
25
 66
1
 10
0.0000
 20
0.0000
 30
0.0000
 40
0.1270
 41
0.1270
 70
0
  0
VERTEX
  8
25
 10
26.3687
 20
5.5509
 30
0.0000
  0
VERTEX
  8
25
 10
26.5593
 20
5.3602
 30
0.0000
  0
SEQEND
  8
0
  0
POLYLINE
  8
25
 66
1
 10
0.0000
 20
0.0000
 30
0.0000
 40
0.0635
 41
0.0635
 70
0
  0
VERTEX
  8
25
 10
26.5369
 20
5.3378
 30
0.0000
 42
1.0000
  0
VERTEX
  8
25
 10
26.5818
 20
5.3827
 30
0.0000
  0
SEQEND
  8
0
  0
POLYLINE
  8
25
 66
1
 10
0.0000
 20
0.0000
 30
0.0000
 40
0.0635
 41
0.0635
 70
0
  0
VERTEX
  8
25
 10
26.3911
 20
5.5733
 30
0.0000
 42
1.0000
  0
VERTEX
  8
25
 10
26.3462
 20
5.5284
 30
0.0000
  0
SEQEND
  8
0
  0
POLYLINE
  8
25
 66
1
 10
0.0000
 20
0.0000
 30
0.0000
 40
0.1270
 41
0.1270
 70
0
  0
VERTEX
  8
25
 10
26.5593
 20
5.3602
 30
0.0000
  0
VERTEX
  8
25
 10
26.5593
 20
5.1696
 30
0.0000
  0
SEQEND
  8
0
  0
POLYLINE
  8
25
 66
1
 10
0.0000
 20
0.0000
 30
0.0000
 40
0.0635
 41
0.0635
 70
0
  0
VERTEX
  8
25
 10
26.5276
 20
5.1696
 30
0.0000
 42
1.0000
  0
VERTEX
  8
25
 10
26.5911
 20
5.1696
 30
0.0000
  0
SEQEND
  8
0
  0
POLYLINE
  8
25
 66
1
 10
0.0000
 20
0.0000
 30
0.0000
 40
0.0635
 41
0.0635
 70
0
  0
VERTEX
  8
25
 10
26.5911
 20
5.3602
 30
0.0000
 42
1.0000
  0
VERTEX
  8
25
 10
26.5276
 20
5.3602
 30
0.0000
  0
SEQEND
  8
0
  0
POLYLINE
  8
25
 66
1
 10
0.0000
 20
0.0000
 30
0.0000
 40
0.1270
 41
0.1270
 70
0
  0
VERTEX
  8
25
 10
26.5593
 20
5.1696
 30
0.0000
  0
VERTEX
  8
25
 10
26.3687
 20
4.9789
 30
0.0000
  0
SEQEND
  8
0
  0
POLYLINE
  8
25
 66
1
 10
0.0000
 20
0.0000
 30
0.0000
 40
0.0635
 41
0.0635
 70
0
  0
VERTEX
  8
25
 10
26.3462
 20
5.0013
 30
0.0000
 42
1.0000
  0
VERTEX
  8
25
 10
26.3911
 20
4.9564
 30
0.0000
  0
SEQEND
  8
0
  0
POLYLINE
  8
25
 66
1
 10
0.0000
 20
0.0000
 30
0.0000
 40
0.0635
 41
0.0635
 70
0
  0
VERTEX
  8
25
 10
26.5818
 20
5.1471
 30
0.0000
 42
1.0000
  0
VERTEX
  8
25
 10
26.5369
 20
5.1920
 30
0.0000
  0
SEQEND
  8
0
  0
POLYLINE
  8
25
 66
1
 10
0.0000
 20
0.0000
 30
0.0000
 40
0.1270
 41
0.1270
 70
0
  0
VERTEX
  8
25
 10
26.3687
 20
4.9789
 30
0.0000
  0
VERTEX
  8
25
 10
26.5593
 20
4.7882
 30
0.0000
  0
SEQEND
  8
0
  0
POLYLINE
  8
25
 66
1
 10
0.0000
 20
0.0000
 30
0.0000
 40
0.0635
 41
0.0635
 70
0
  0
VERTEX
  8
25
 10
26.5369
 20
4.7658
 30
0.0000
 42
1.0000
  0
VERTEX
  8
25
 10
26.5818
 20
4.8107
 30
0.0000
  0
SEQEND
  8
0
  0
POLYLINE
  8
25
 66
1
 10
0.0000
 20
0.0000
 30
0.0000
 40
0.0635
 41
0.0635
 70
0
  0
VERTEX
  8
25
 10
26.3911
 20
5.0013
 30
0.0000
 42
1.0000
  0
VERTEX
  8
25
 10
26.3462
 20
4.9564
 30
0.0000
  0
SEQEND
  8
0
  0
POLYLINE
  8
25
 66
1
 10
0.0000
 20
0.0000
 30
0.0000
 40
0.1270
 41
0.1270
 70
0
  0
VERTEX
  8
25
 10
26.5593
 20
4.7882
 30
0.0000
  0
VERTEX
  8
25
 10
26.5593
 20
4.5976
 30
0.0000
  0
SEQEND
  8
0
  0
POLYLINE
  8
25
 66
1
 10
0.0000
 20
0.0000
 30
0.0000
 40
0.0635
 41
0.0635
 70
0
  0
VERTEX
  8
25
 10
26.5276
 20
4.5976
 30
0.0000
 42
1.0000
  0
VERTEX
  8
25
 10
26.5911
 20
4.5976
 30
0.0000
  0
SEQEND
  8
0
  0
POLYLINE
  8
25
 66
1
 10
0.0000
 20
0.0000
 30
0.0000
 40
0.0635
 41
0.0635
 70
0
  0
VERTEX
  8
25
 10
26.5911
 20
4.7882
 30
0.0000
 42
1.0000
  0
VERTEX
  8
25
 10
26.5276
 20
4.7882
 30
0.0000
  0
SEQEND
  8
0
  0
POLYLINE
  8
25
 66
1
 10
0.0000
 20
0.0000
 30
0.0000
 40
0.1270
 41
0.1270
 70
0
  0
VERTEX
  8
25
 10
26.5593
 20
4.5976
 30
0.0000
  0
VERTEX
  8
25
 10
26.3687
 20
4.4069
 30
0.0000
  0
SEQEND
  8
0
  0
POLYLINE
  8
25
 66
1
 10
0.0000
 20
0.0000
 30
0.0000
 40
0.0635
 41
0.0635
 70
0
  0
VERTEX
  8
25
 10
26.3462
 20
4.4294
 30
0.0000
 42
1.0000
  0
VERTEX
  8
25
 10
26.3911
 20
4.3844
 30
0.0000
  0
SEQEND
  8
0
  0
POLYLINE
  8
25
 66
1
 10
0.0000
 20
0.0000
 30
0.0000
 40
0.0635
 41
0.0635
 70
0
  0
VERTEX
  8
25
 10
26.5818
 20
4.5751
 30
0.0000
 42
1.0000
  0
VERTEX
  8
25
 10
26.5369
 20
4.6200
 30
0.0000
  0
SEQEND
  8
0
  0
POLYLINE
  8
25
 66
1
 10
0.0000
 20
0.0000
 30
0.0000
 40
0.1270
 41
0.1270
 70
0
  0
VERTEX
  8
25
 10
26.3687
 20
4.4069
 30
0.0000
  0
VERTEX
  8
25
 10
25.9874
 20
4.4069
 30
0.0000
  0
SEQEND
  8
0
  0
POLYLINE
  8
25
 66
1
 10
0.0000
 20
0.0000
 30
0.0000
 40
0.0635
 41
0.0635
 70
0
  0
VERTEX
  8
25
 10
25.9874
 20
4.4386
 30
0.0000
 42
1.0000
  0
VERTEX
  8
25
 10
25.9874
 20
4.3752
 30
0.0000
  0
SEQEND
  8
0
  0
POLYLINE
  8
25
 66
1
 10
0.0000
 20
0.0000
 30
0.0000
 40
0.0635
 41
0.0635
 70
0
  0
VERTEX
  8
25
 10
26.3687
 20
4.3752
 30
0.0000
 42
1.0000
  0
VERTEX
  8
25
 10
26.3687
 20
4.4386
 30
0.0000
  0
SEQEND
  8
0
  0
POLYLINE
  8
25
 66
1
 10
0.0000
 20
0.0000
 30
0.0000
 40
0.1270
 41
0.1270
 70
0
  0
VERTEX
  8
25
 10
25.9874
 20
4.4069
 30
0.0000
  0
VERTEX
  8
25
 10
25.7967
 20
4.5976
 30
0.0000
  0
SEQEND
  8
0
  0
POLYLINE
  8
25
 66
1
 10
0.0000
 20
0.0000
 30
0.0000
 40
0.0635
 41
0.0635
 70
0
  0
VERTEX
  8
25
 10
25.8191
 20
4.6200
 30
0.0000
 42
1.0000
  0
VERTEX
  8
25
 10
25.7742
 20
4.5751
 30
0.0000
  0
SEQEND
  8
0
  0
POLYLINE
  8
25
 66
1
 10
0.0000
 20
0.0000
 30
0.0000
 40
0.0635
 41
0.0635
 70
0
  0
VERTEX
  8
25
 10
25.9649
 20
4.3844
 30
0.0000
 42
1.0000
  0
VERTEX
  8
25
 10
26.0098
 20
4.4294
 30
0.0000
  0
SEQEND
  8
0
  0
POLYLINE
  8
25
 66
1
 10
0.0000
 20
0.0000
 30
0.0000
 40
0.1270
 41
0.1270
 70
0
  0
VERTEX
  8
25
 10
25.7967
 20
4.5976
 30
0.0000
  0
VERTEX
  8
25
 10
25.7967
 20
4.7882
 30
0.0000
  0
SEQEND
  8
0
  0
POLYLINE
  8
25
 66
1
 10
0.0000
 20
0.0000
 30
0.0000
 40
0.0635
 41
0.0635
 70
0
  0
VERTEX
  8
25
 10
25.8284
 20
4.7882
 30
0.0000
 42
1.0000
  0
VERTEX
  8
25
 10
25.7649
 20
4.7882
 30
0.0000
  0
SEQEND
  8
0
  0
POLYLINE
  8
25
 66
1
 10
0.0000
 20
0.0000
 30
0.0000
 40
0.0635
 41
0.0635
 70
0
  0
VERTEX
  8
25
 10
25.7649
 20
4.5976
 30
0.0000
 42
1.0000
  0
VERTEX
  8
25
 10
25.8284
 20
4.5976
 30
0.0000
  0
SEQEND
  8
0
  0
POLYLINE
  8
25
 66
1
 10
0.0000
 20
0.0000
 30
0.0000
 40
0.1270
 41
0.1270
 70
0
  0
VERTEX
  8
25
 10
25.7967
 20
4.7882
 30
0.0000
  0
VERTEX
  8
25
 10
25.9874
 20
4.9789
 30
0.0000
  0
SEQEND
  8
0
  0
POLYLINE
  8
25
 66
1
 10
0.0000
 20
0.0000
 30
0.0000
 40
0.0635
 41
0.0635
 70
0
  0
VERTEX
  8
25
 10
26.0098
 20
4.9564
 30
0.0000
 42
1.0000
  0
VERTEX
  8
25
 10
25.9649
 20
5.0013
 30
0.0000
  0
SEQEND
  8
0
  0
POLYLINE
  8
25
 66
1
 10
0.0000
 20
0.0000
 30
0.0000
 40
0.0635
 41
0.0635
 70
0
  0
VERTEX
  8
25
 10
25.7742
 20
4.8107
 30
0.0000
 42
1.0000
  0
VERTEX
  8
25
 10
25.8191
 20
4.7658
 30
0.0000
  0
SEQEND
  8
0
  0
POLYLINE
  8
25
 66
1
 10
0.0000
 20
0.0000
 30
0.0000
 40
0.1270
 41
0.1270
 70
0
  0
VERTEX
  8
25
 10
25.9874
 20
4.9789
 30
0.0000
  0
VERTEX
  8
25
 10
25.7967
 20
5.1696
 30
0.0000
  0
SEQEND
  8
0
  0
POLYLINE
  8
25
 66
1
 10
0.0000
 20
0.0000
 30
0.0000
 40
0.0635
 41
0.0635
 70
0
  0
VERTEX
  8
25
 10
25.8191
 20
5.1920
 30
0.0000
 42
1.0000
  0
VERTEX
  8
25
 10
25.7742
 20
5.1471
 30
0.0000
  0
SEQEND
  8
0
  0
POLYLINE
  8
25
 66
1
 10
0.0000
 20
0.0000
 30
0.0000
 40
0.0635
 41
0.0635
 70
0
  0
VERTEX
  8
25
 10
25.9649
 20
4.9564
 30
0.0000
 42
1.0000
  0
VERTEX
  8
25
 10
26.0098
 20
5.0013
 30
0.0000
  0
SEQEND
  8
0
  0
POLYLINE
  8
25
 66
1
 10
0.0000
 20
0.0000
 30
0.0000
 40
0.1270
 41
0.1270
 70
0
  0
VERTEX
  8
25
 10
25.7967
 20
5.1696
 30
0.0000
  0
VERTEX
  8
25
 10
25.7967
 20
5.3602
 30
0.0000
  0
SEQEND
  8
0
  0
POLYLINE
  8
25
 66
1
 10
0.0000
 20
0.0000
 30
0.0000
 40
0.0635
 41
0.0635
 70
0
  0
VERTEX
  8
25
 10
25.8284
 20
5.3602
 30
0.0000
 42
1.0000
  0
VERTEX
  8
25
 10
25.7649
 20
5.3602
 30
0.0000
  0
SEQEND
  8
0
  0
POLYLINE
  8
25
 66
1
 10
0.0000
 20
0.0000
 30
0.0000
 40
0.0635
 41
0.0635
 70
0
  0
VERTEX
  8
25
 10
25.7649
 20
5.1696
 30
0.0000
 42
1.0000
  0
VERTEX
  8
25
 10
25.8284
 20
5.1696
 30
0.0000
  0
SEQEND
  8
0
  0
POLYLINE
  8
25
 66
1
 10
0.0000
 20
0.0000
 30
0.0000
 40
0.1270
 41
0.1270
 70
0
  0
VERTEX
  8
25
 10
25.9874
 20
4.9789
 30
0.0000
  0
VERTEX
  8
25
 10
26.3687
 20
4.9789
 30
0.0000
  0
SEQEND
  8
0
  0
POLYLINE
  8
25
 66
1
 10
0.0000
 20
0.0000
 30
0.0000
 40
0.0635
 41
0.0635
 70
0
  0
VERTEX
  8
25
 10
26.3687
 20
4.9471
 30
0.0000
 42
1.0000
  0
VERTEX
  8
25
 10
26.3687
 20
5.0106
 30
0.0000
  0
SEQEND
  8
0
  0
POLYLINE
  8
25
 66
1
 10
0.0000
 20
0.0000
 30
0.0000
 40
0.0635
 41
0.0635
 70
0
  0
VERTEX
  8
25
 10
25.9874
 20
5.0106
 30
0.0000
 42
1.0000
  0
VERTEX
  8
25
 10
25.9874
 20
4.9471
 30
0.0000
  0
SEQEND
  8
0
  0
POLYLINE
  8
21
 66
1
 10
0.0000
 20
0.0000
 30
0.0000
 40
0.1524
 41
0.1524
 70
0
  0
VERTEX
  8
21
 10
19.0500
 20
1.2700
 30
0.0000
 42
1.0000
  0
VERTEX
  8
21
 10
19.0500
 20
6.3500
 30
0.0000
 42
1.0000
  0
VERTEX
  8
21
 10
19.0500
 20
1.2700
 30
0.0000
  0
SEQEND
  8
0
  0
INSERT
  8
17
  2
OCTAGONP
 10
17.7800
 20
3.8100
 30
0.0000
 41
1.6764
 42
1.6764
 43
1.0000
 50
0.0000
  0
INSERT
  8
17
  2
OCTAGONP
 10
17.7800
 20
3.8100
 30
0.0000
 41
1.6764
 42
1.6764
 43
1.0000
 50
0.0000
  0
INSERT
  8
17
  2
OCTAGONP
 10
20.3200
 20
3.8100
 30
0.0000
 41
1.6764
 42
1.6764
 43
1.0000
 50
0.0000
  0
INSERT
  8
17
  2
OCTAGONP
 10
20.3200
 20
3.8100
 30
0.0000
 41
1.6764
 42
1.6764
 43
1.0000
 50
0.0000
  0
POLYLINE
  8
16
 66
1
 10
0.0000
 20
0.0000
 30
0.0000
 40
0.4064
 41
0.4064
 70
0
  0
VERTEX
  8
16
 10
0.0000
 20
0.0000
 30
0.0000
  0
VERTEX
  8
16
 10
24.1300
 20
0.0000
 30
0.0000
  0
SEQEND
  8
0
  0
POLYLINE
  8
16
 66
1
 10
0.0000
 20
0.0000
 30
0.0000
 40
0.2032
 41
0.2032
 70
0
  0
VERTEX
  8
16
 10
24.1300
 20
-0.1016
 30
0.0000
 42
1.0000
  0
VERTEX
  8
16
 10
24.1300
 20
0.1016
 30
0.0000
  0
SEQEND
  8
0
  0
POLYLINE
  8
16
 66
1
 10
0.0000
 20
0.0000
 30
0.0000
 40
0.2032
 41
0.2032
 70
0
  0
VERTEX
  8
16
 10
0.0000
 20
0.1016
 30
0.0000
 42
1.0000
  0
VERTEX
  8
16
 10
0.0000
 20
-0.1016
 30
0.0000
  0
SEQEND
  8
0
  0
POLYLINE
  8
16
 66
1
 10
0.0000
 20
0.0000
 30
0.0000
 40
0.4064
 41
0.4064
 70
0
  0
VERTEX
  8
16
 10
24.1300
 20
0.0000
 30
0.0000
  0
VERTEX
  8
16
 10
24.1300
 20
38.1000
 30
0.0000
  0
SEQEND
  8
0
  0
POLYLINE
  8
16
 66
1
 10
0.0000
 20
0.0000
 30
0.0000
 40
0.2032
 41
0.2032
 70
0
  0
VERTEX
  8
16
 10
24.2316
 20
38.1000
 30
0.0000
 42
1.0000
  0
VERTEX
  8
16
 10
24.0284
 20
38.1000
 30
0.0000
  0
SEQEND
  8
0
  0
POLYLINE
  8
16
 66
1
 10
0.0000
 20
0.0000
 30
0.0000
 40
0.2032
 41
0.2032
 70
0
  0
VERTEX
  8
16
 10
24.0284
 20
0.0000
 30
0.0000
 42
1.0000
  0
VERTEX
  8
16
 10
24.2316
 20
0.0000
 30
0.0000
  0
SEQEND
  8
0
  0
POLYLINE
  8
16
 66
1
 10
0.0000
 20
0.0000
 30
0.0000
 40
0.4064
 41
0.4064
 70
0
  0
VERTEX
  8
16
 10
24.1300
 20
38.1000
 30
0.0000
  0
VERTEX
  8
16
 10
0.0000
 20
38.1000
 30
0.0000
  0
SEQEND
  8
0
  0
POLYLINE
  8
16
 66
1
 10
0.0000
 20
0.0000
 30
0.0000
 40
0.2032
 41
0.2032
 70
0
  0
VERTEX
  8
16
 10
0.0000
 20
38.2016
 30
0.0000
 42
1.0000
  0
VERTEX
  8
16
 10
0.0000
 20
37.9984
 30
0.0000
  0
SEQEND
  8
0
  0
POLYLINE
  8
16
 66
1
 10
0.0000
 20
0.0000
 30
0.0000
 40
0.2032
 41
0.2032
 70
0
  0
VERTEX
  8
16
 10
24.1300
 20
37.9984
 30
0.0000
 42
1.0000
  0
VERTEX
  8
16
 10
24.1300
 20
38.2016
 30
0.0000
  0
SEQEND
  8
0
  0
POLYLINE
  8
16
 66
1
 10
0.0000
 20
0.0000
 30
0.0000
 40
0.4064
 41
0.4064
 70
0
  0
VERTEX
  8
16
 10
0.0000
 20
38.1000
 30
0.0000
  0
VERTEX
  8
16
 10
0.0000
 20
0.0000
 30
0.0000
  0
SEQEND
  8
0
  0
POLYLINE
  8
16
 66
1
 10
0.0000
 20
0.0000
 30
0.0000
 40
0.2032
 41
0.2032
 70
0
  0
VERTEX
  8
16
 10
-0.1016
 20
0.0000
 30
0.0000
 42
1.0000
  0
VERTEX
  8
16
 10
0.1016
 20
0.0000
 30
0.0000
  0
SEQEND
  8
0
  0
POLYLINE
  8
16
 66
1
 10
0.0000
 20
0.0000
 30
0.0000
 40
0.2032
 41
0.2032
 70
0
  0
VERTEX
  8
16
 10
0.1016
 20
38.1000
 30
0.0000
 42
1.0000
  0
VERTEX
  8
16
 10
-0.1016
 20
38.1000
 30
0.0000
  0
SEQEND
  8
0
  0
POLYLINE
  8
16
 66
1
 10
0.0000
 20
0.0000
 30
0.0000
 40
0.8128
 41
0.8128
 70
0
  0
VERTEX
  8
16
 10
10.2870
 20
23.4950
 30
0.0000
  0
VERTEX
  8
16
 10
17.7800
 20
33.0200
 30
0.0000
  0
SEQEND
  8
0
  0
POLYLINE
  8
16
 66
1
 10
0.0000
 20
0.0000
 30
0.0000
 40
0.4064
 41
0.4064
 70
0
  0
VERTEX
  8
16
 10
17.9397
 20
32.8944
 30
0.0000
 42
1.0000
  0
VERTEX
  8
16
 10
17.6203
 20
33.1456
 30
0.0000
  0
SEQEND
  8
0
  0
POLYLINE
  8
16
 66
1
 10
0.0000
 20
0.0000
 30
0.0000
 40
0.4064
 41
0.4064
 70
0
  0
VERTEX
  8
16
 10
10.1273
 20
23.6206
 30
0.0000
 42
1.0000
  0
VERTEX
  8
16
 10
10.4467
 20
23.3694
 30
0.0000
  0
SEQEND
  8
0
  0
POLYLINE
  8
16
 66
1
 10
0.0000
 20
0.0000
 30
0.0000
 40
0.8128
 41
0.8128
 70
0
  0
VERTEX
  8
16
 10
10.2870
 20
18.4150
 30
0.0000
  0
VERTEX
  8
16
 10
17.7800
 20
13.9700
 30
0.0000
  0
SEQEND
  8
0
  0
POLYLINE
  8
16
 66
1
 10
0.0000
 20
0.0000
 30
0.0000
 40
0.4064
 41
0.4064
 70
0
  0
VERTEX
  8
16
 10
17.6763
 20
13.7952
 30
0.0000
 42
1.0000
  0
VERTEX
  8
16
 10
17.8837
 20
14.1448
 30
0.0000
  0
SEQEND
  8
0
  0
POLYLINE
  8
16
 66
1
 10
0.0000
 20
0.0000
 30
0.0000
 40
0.4064
 41
0.4064
 70
0
  0
VERTEX
  8
16
 10
10.3907
 20
18.5898
 30
0.0000
 42
1.0000
  0
VERTEX
  8
16
 10
10.1833
 20
18.2402
 30
0.0000
  0
SEQEND
  8
0
  0
POLYLINE
  8
16
 66
1
 10
0.0000
 20
0.0000
 30
0.0000
 40
0.8128
 41
0.8128
 70
0
  0
VERTEX
  8
16
 10
10.2870
 20
20.9550
 30
0.0000
  0
VERTEX
  8
16
 10
17.7800
 20
24.1300
 30
0.0000
  0
SEQEND
  8
0
  0
POLYLINE
  8
16
 66
1
 10
0.0000
 20
0.0000
 30
0.0000
 40
0.4064
 41
0.4064
 70
0
  0
VERTEX
  8
16
 10
17.8593
 20
23.9429
 30
0.0000
 42
1.0000
  0
VERTEX
  8
16
 10
17.7007
 20
24.3171
 30
0.0000
  0
SEQEND
  8
0
  0
POLYLINE
  8
16
 66
1
 10
0.0000
 20
0.0000
 30
0.0000
 40
0.4064
 41
0.4064
 70
0
  0
VERTEX
  8
16
 10
10.2077
 20
21.1421
 30
0.0000
 42
1.0000
  0
VERTEX
  8
16
 10
10.3663
 20
20.7679
 30
0.0000
  0
SEQEND
  8
0
  0
POLYLINE
  8
16
 66
1
 10
0.0000
 20
0.0000
 30
0.0000
 40
0.8128
 41
0.8128
 70
0
  0
VERTEX
  8
16
 10
10.2870
 20
15.8750
 30
0.0000
  0
VERTEX
  8
16
 10
10.7950
 20
15.8750
 30
0.0000
  0
SEQEND
  8
0
  0
POLYLINE
  8
16
 66
1
 10
0.0000
 20
0.0000
 30
0.0000
 40
0.4064
 41
0.4064
 70
0
  0
VERTEX
  8
16
 10
10.7950
 20
15.6718
 30
0.0000
 42
1.0000
  0
VERTEX
  8
16
 10
10.7950
 20
16.0782
 30
0.0000
  0
SEQEND
  8
0
  0
POLYLINE
  8
16
 66
1
 10
0.0000
 20
0.0000
 30
0.0000
 40
0.4064
 41
0.4064
 70
0
  0
VERTEX
  8
16
 10
10.2870
 20
16.0782
 30
0.0000
 42
1.0000
  0
VERTEX
  8
16
 10
10.2870
 20
15.6718
 30
0.0000
  0
SEQEND
  8
0
  0
POLYLINE
  8
16
 66
1
 10
0.0000
 20
0.0000
 30
0.0000
 40
0.8128
 41
0.8128
 70
0
  0
VERTEX
  8
16
 10
12.7000
 20
13.9700
 30
0.0000
 42
0.4142
  0
VERTEX
  8
16
 10
10.7950
 20
15.8750
 30
0.0000
  0
SEQEND
  8
0
  0
POLYLINE
  8
16
 66
1
 10
0.0000
 20
0.0000
 30
0.0000
 40
0.4064
 41
0.4064
 70
0
  0
VERTEX
  8
16
 10
12.4968
 20
13.9700
 30
0.0000
 42
1.0000
  0
VERTEX
  8
16
 10
12.9032
 20
13.9700
 30
0.0000
  0
SEQEND
  8
0
  0
POLYLINE
  8
16
 66
1
 10
0.0000
 20
0.0000
 30
0.0000
 40
0.4064
 41
0.4064
 70
0
  0
VERTEX
  8
16
 10
10.7950
 20
16.0782
 30
0.0000
 42
1.0000
  0
VERTEX
  8
16
 10
10.7950
 20
15.6718
 30
0.0000
  0
SEQEND
  8
0
  0
POLYLINE
  8
16
 66
1
 10
0.0000
 20
0.0000
 30
0.0000
 40
0.8128
 41
0.8128
 70
0
  0
VERTEX
  8
16
 10
12.7000
 20
13.9700
 30
0.0000
  0
VERTEX
  8
16
 10
12.7000
 20
10.1600
 30
0.0000
  0
SEQEND
  8
0
  0
POLYLINE
  8
16
 66
1
 10
0.0000
 20
0.0000
 30
0.0000
 40
0.4064
 41
0.4064
 70
0
  0
VERTEX
  8
16
 10
12.4968
 20
10.1600
 30
0.0000
 42
1.0000
  0
VERTEX
  8
16
 10
12.9032
 20
10.1600
 30
0.0000
  0
SEQEND
  8
0
  0
POLYLINE
  8
16
 66
1
 10
0.0000
 20
0.0000
 30
0.0000
 40
0.4064
 41
0.4064
 70
0
  0
VERTEX
  8
16
 10
12.9032
 20
13.9700
 30
0.0000
 42
1.0000
  0
VERTEX
  8
16
 10
12.4968
 20
13.9700
 30
0.0000
  0
SEQEND
  8
0
  0
POLYLINE
  8
16
 66
1
 10
0.0000
 20
0.0000
 30
0.0000
 40
0.8128
 41
0.8128
 70
0
  0
VERTEX
  8
16
 10
12.7000
 20
10.1600
 30
0.0000
 42
0.4142
  0
VERTEX
  8
16
 10
13.9700
 20
8.8900
 30
0.0000
  0
SEQEND
  8
0
  0
POLYLINE
  8
16
 66
1
 10
0.0000
 20
0.0000
 30
0.0000
 40
0.4064
 41
0.4064
 70
0
  0
VERTEX
  8
16
 10
12.9032
 20
10.1600
 30
0.0000
 42
1.0000
  0
VERTEX
  8
16
 10
12.4968
 20
10.1600
 30
0.0000
  0
SEQEND
  8
0
  0
POLYLINE
  8
16
 66
1
 10
0.0000
 20
0.0000
 30
0.0000
 40
0.4064
 41
0.4064
 70
0
  0
VERTEX
  8
16
 10
13.9700
 20
8.6868
 30
0.0000
 42
1.0000
  0
VERTEX
  8
16
 10
13.9700
 20
9.0932
 30
0.0000
  0
SEQEND
  8
0
  0
POLYLINE
  8
16
 66
1
 10
0.0000
 20
0.0000
 30
0.0000
 40
0.8128
 41
0.8128
 70
0
  0
VERTEX
  8
16
 10
17.7800
 20
3.8100
 30
0.0000
 42
0.5000
  0
VERTEX
  8
16
 10
13.9700
 20
8.8900
 30
0.0000
  0
SEQEND
  8
0
  0
POLYLINE
  8
16
 66
1
 10
0.0000
 20
0.0000
 30
0.0000
 40
0.4064
 41
0.4064
 70
0
  0
VERTEX
  8
16
 10
17.5849
 20
3.8669
 30
0.0000
 42
1.0000
  0
VERTEX
  8
16
 10
17.9751
 20
3.7531
 30
0.0000
  0
SEQEND
  8
0
  0
POLYLINE
  8
16
 66
1
 10
0.0000
 20
0.0000
 30
0.0000
 40
0.4064
 41
0.4064
 70
0
  0
VERTEX
  8
16
 10
13.9700
 20
9.0932
 30
0.0000
 42
1.0000
  0
VERTEX
  8
16
 10
13.9700
 20
8.6868
 30
0.0000
  0
SEQEND
  8
0
  0
POLYLINE
  8
16
 66
1
 10
0.0000
 20
0.0000
 30
0.0000
 40
0.8128
 41
0.8128
 70
0
  0
VERTEX
  8
16
 10
7.4930
 20
23.4950
 30
0.0000
  0
VERTEX
  8
16
 10
10.1600
 20
33.0200
 30
0.0000
  0
SEQEND
  8
0
  0
POLYLINE
  8
16
 66
1
 10
0.0000
 20
0.0000
 30
0.0000
 40
0.4064
 41
0.4064
 70
0
  0
VERTEX
  8
16
 10
10.3557
 20
32.9652
 30
0.0000
 42
1.0000
  0
VERTEX
  8
16
 10
9.9643
 20
33.0748
 30
0.0000
  0
SEQEND
  8
0
  0
POLYLINE
  8
16
 66
1
 10
0.0000
 20
0.0000
 30
0.0000
 40
0.4064
 41
0.4064
 70
0
  0
VERTEX
  8
16
 10
7.2973
 20
23.5498
 30
0.0000
 42
1.0000
  0
VERTEX
  8
16
 10
7.6887
 20
23.4402
 30
0.0000
  0
SEQEND
  8
0
  0
POLYLINE
  8
16
 66
1
 10
0.0000
 20
0.0000
 30
0.0000
 40
0.8128
 41
0.8128
 70
0
  0
VERTEX
  8
16
 10
7.4930
 20
18.4150
 30
0.0000
 42
0.4142
  0
VERTEX
  8
16
 10
2.5400
 20
13.4620
 30
0.0000
  0
SEQEND
  8
0
  0
POLYLINE
  8
16
 66
1
 10
0.0000
 20
0.0000
 30
0.0000
 40
0.4064
 41
0.4064
 70
0
  0
VERTEX
  8
16
 10
7.4930
 20
18.2118
 30
0.0000
 42
1.0000
  0
VERTEX
  8
16
 10
7.4930
 20
18.6182
 30
0.0000
  0
SEQEND
  8
0
  0
POLYLINE
  8
16
 66
1
 10
0.0000
 20
0.0000
 30
0.0000
 40
0.4064
 41
0.4064
 70
0
  0
VERTEX
  8
16
 10
2.3368
 20
13.4620
 30
0.0000
 42
1.0000
  0
VERTEX
  8
16
 10
2.7432
 20
13.4620
 30
0.0000
  0
SEQEND
  8
0
  0
POLYLINE
  8
16
 66
1
 10
0.0000
 20
0.0000
 30
0.0000
 40
0.8128
 41
0.8128
 70
0
  0
VERTEX
  8
16
 10
2.5400
 20
13.4620
 30
0.0000
  0
VERTEX
  8
16
 10
2.5400
 20
3.8100
 30
0.0000
  0
SEQEND
  8
0
  0
POLYLINE
  8
16
 66
1
 10
0.0000
 20
0.0000
 30
0.0000
 40
0.4064
 41
0.4064
 70
0
  0
VERTEX
  8
16
 10
2.3368
 20
3.8100
 30
0.0000
 42
1.0000
  0
VERTEX
  8
16
 10
2.7432
 20
3.8100
 30
0.0000
  0
SEQEND
  8
0
  0
POLYLINE
  8
16
 66
1
 10
0.0000
 20
0.0000
 30
0.0000
 40
0.4064
 41
0.4064
 70
0
  0
VERTEX
  8
16
 10
2.7432
 20
13.4620
 30
0.0000
 42
1.0000
  0
VERTEX
  8
16
 10
2.3368
 20
13.4620
 30
0.0000
  0
SEQEND
  8
0
  0
POLYLINE
  8
16
 66
1
 10
0.0000
 20
0.0000
 30
0.0000
 40
0.8128
 41
0.8128
 70
0
  0
VERTEX
  8
16
 10
2.5400
 20
25.9080
 30
0.0000
 42
0.4142
  0
VERTEX
  8
16
 10
7.4930
 20
20.9550
 30
0.0000
  0
SEQEND
  8
0
  0
POLYLINE
  8
16
 66
1
 10
0.0000
 20
0.0000
 30
0.0000
 40
0.4064
 41
0.4064
 70
0
  0
VERTEX
  8
16
 10
2.7432
 20
25.9080
 30
0.0000
 42
1.0000
  0
VERTEX
  8
16
 10
2.3368
 20
25.9080
 30
0.0000
  0
SEQEND
  8
0
  0
POLYLINE
  8
16
 66
1
 10
0.0000
 20
0.0000
 30
0.0000
 40
0.4064
 41
0.4064
 70
0
  0
VERTEX
  8
16
 10
7.4930
 20
20.7518
 30
0.0000
 42
1.0000
  0
VERTEX
  8
16
 10
7.4930
 20
21.1582
 30
0.0000
  0
SEQEND
  8
0
  0
POLYLINE
  8
16
 66
1
 10
0.0000
 20
0.0000
 30
0.0000
 40
0.8128
 41
0.8128
 70
0
  0
VERTEX
  8
16
 10
2.5400
 20
25.9080
 30
0.0000
  0
VERTEX
  8
16
 10
2.5400
 20
33.0200
 30
0.0000
  0
SEQEND
  8
0
  0
POLYLINE
  8
16
 66
1
 10
0.0000
 20
0.0000
 30
0.0000
 40
0.4064
 41
0.4064
 70
0
  0
VERTEX
  8
16
 10
2.7432
 20
33.0200
 30
0.0000
 42
1.0000
  0
VERTEX
  8
16
 10
2.3368
 20
33.0200
 30
0.0000
  0
SEQEND
  8
0
  0
POLYLINE
  8
16
 66
1
 10
0.0000
 20
0.0000
 30
0.0000
 40
0.4064
 41
0.4064
 70
0
  0
VERTEX
  8
16
 10
2.3368
 20
25.9080
 30
0.0000
 42
1.0000
  0
VERTEX
  8
16
 10
2.7432
 20
25.9080
 30
0.0000
  0
SEQEND
  8
0
  0
POLYLINE
  8
16
 66
1
 10
0.0000
 20
0.0000
 30
0.0000
 40
0.8128
 41
0.8128
 70
0
  0
VERTEX
  8
16
 10
7.4930
 20
15.8750
 30
0.0000
 42
0.4142
  0
VERTEX
  8
16
 10
5.0800
 20
13.4620
 30
0.0000
  0
SEQEND
  8
0
  0
POLYLINE
  8
16
 66
1
 10
0.0000
 20
0.0000
 30
0.0000
 40
0.4064
 41
0.4064
 70
0
  0
VERTEX
  8
16
 10
7.4930
 20
15.6718
 30
0.0000
 42
1.0000
  0
VERTEX
  8
16
 10
7.4930
 20
16.0782
 30
0.0000
  0
SEQEND
  8
0
  0
POLYLINE
  8
16
 66
1
 10
0.0000
 20
0.0000
 30
0.0000
 40
0.4064
 41
0.4064
 70
0
  0
VERTEX
  8
16
 10
4.8768
 20
13.4620
 30
0.0000
 42
1.0000
  0
VERTEX
  8
16
 10
5.2832
 20
13.4620
 30
0.0000
  0
SEQEND
  8
0
  0
POLYLINE
  8
16
 66
1
 10
0.0000
 20
0.0000
 30
0.0000
 40
0.8128
 41
0.8128
 70
0
  0
VERTEX
  8
16
 10
5.0800
 20
13.4620
 30
0.0000
  0
VERTEX
  8
16
 10
5.0800
 20
11.4300
 30
0.0000
  0
SEQEND
  8
0
  0
POLYLINE
  8
16
 66
1
 10
0.0000
 20
0.0000
 30
0.0000
 40
0.4064
 41
0.4064
 70
0
  0
VERTEX
  8
16
 10
4.8768
 20
11.4300
 30
0.0000
 42
1.0000
  0
VERTEX
  8
16
 10
5.2832
 20
11.4300
 30
0.0000
  0
SEQEND
  8
0
  0
POLYLINE
  8
16
 66
1
 10
0.0000
 20
0.0000
 30
0.0000
 40
0.4064
 41
0.4064
 70
0
  0
VERTEX
  8
16
 10
5.2832
 20
13.4620
 30
0.0000
 42
1.0000
  0
VERTEX
  8
16
 10
4.8768
 20
13.4620
 30
0.0000
  0
SEQEND
  8
0
  0
POLYLINE
  8
16
 66
1
 10
0.0000
 20
0.0000
 30
0.0000
 40
0.8128
 41
0.8128
 70
0
  0
VERTEX
  8
16
 10
5.0800
 20
11.4300
 30
0.0000
 42
0.4142
  0
VERTEX
  8
16
 10
7.6200
 20
8.8900
 30
0.0000
  0
SEQEND
  8
0
  0
POLYLINE
  8
16
 66
1
 10
0.0000
 20
0.0000
 30
0.0000
 40
0.4064
 41
0.4064
 70
0
  0
VERTEX
  8
16
 10
5.2832
 20
11.4300
 30
0.0000
 42
1.0000
  0
VERTEX
  8
16
 10
4.8768
 20
11.4300
 30
0.0000
  0
SEQEND
  8
0
  0
POLYLINE
  8
16
 66
1
 10
0.0000
 20
0.0000
 30
0.0000
 40
0.4064
 41
0.4064
 70
0
  0
VERTEX
  8
16
 10
7.6200
 20
8.6868
 30
0.0000
 42
1.0000
  0
VERTEX
  8
16
 10
7.6200
 20
9.0932
 30
0.0000
  0
SEQEND
  8
0
  0
POLYLINE
  8
16
 66
1
 10
0.0000
 20
0.0000
 30
0.0000
 40
0.8128
 41
0.8128
 70
0
  0
VERTEX
  8
16
 10
10.1600
 20
6.3500
 30
0.0000
 42
0.4142
  0
VERTEX
  8
16
 10
7.6200
 20
8.8900
 30
0.0000
  0
SEQEND
  8
0
  0
POLYLINE
  8
16
 66
1
 10
0.0000
 20
0.0000
 30
0.0000
 40
0.4064
 41
0.4064
 70
0
  0
VERTEX
  8
16
 10
9.9568
 20
6.3500
 30
0.0000
 42
1.0000
  0
VERTEX
  8
16
 10
10.3632
 20
6.3500
 30
0.0000
  0
SEQEND
  8
0
  0
POLYLINE
  8
16
 66
1
 10
0.0000
 20
0.0000
 30
0.0000
 40
0.4064
 41
0.4064
 70
0
  0
VERTEX
  8
16
 10
7.6200
 20
9.0932
 30
0.0000
 42
1.0000
  0
VERTEX
  8
16
 10
7.6200
 20
8.6868
 30
0.0000
  0
SEQEND
  8
0
  0
POLYLINE
  8
16
 66
1
 10
0.0000
 20
0.0000
 30
0.0000
 40
0.8128
 41
0.8128
 70
0
  0
VERTEX
  8
16
 10
10.1600
 20
6.3500
 30
0.0000
  0
VERTEX
  8
16
 10
10.1600
 20
3.8100
 30
0.0000
  0
SEQEND
  8
0
  0
POLYLINE
  8
16
 66
1
 10
0.0000
 20
0.0000
 30
0.0000
 40
0.4064
 41
0.4064
 70
0
  0
VERTEX
  8
16
 10
9.9568
 20
3.8100
 30
0.0000
 42
1.0000
  0
VERTEX
  8
16
 10
10.3632
 20
3.8100
 30
0.0000
  0
SEQEND
  8
0
  0
POLYLINE
  8
16
 66
1
 10
0.0000
 20
0.0000
 30
0.0000
 40
0.4064
 41
0.4064
 70
0
  0
VERTEX
  8
16
 10
10.3632
 20
6.3500
 30
0.0000
 42
1.0000
  0
VERTEX
  8
16
 10
9.9568
 20
6.3500
 30
0.0000
  0
SEQEND
  8
0
  0
ENDSEC
  0
EOF
