%
M48
M72
T01C0.01550
T02C0.03200
T03C0.03543
T04C0.03937
T05C0.04000
T06C0.04724
%
T01
X57100Y27600
X90100Y43600
X94100Y46600
X106100Y44600
X106100Y32600
X129100Y49600
X114100Y56600
X73100Y60600
X69100Y67600
T02
X82600Y20600
X82600Y10600
T03
X21600Y11100
X31600Y11100
X41600Y11100
X58100Y11100
X58100Y21100
X40100Y32214
X58100Y53600
X40100Y58986
X58100Y63600
X137600Y11100
X145600Y11100
T04
X9100Y20600
X9100Y30600
X9100Y40600
X9100Y50600
X9100Y60600
T05
X32900Y68100
X44300Y68100
T06
X103742Y39072
X131301Y39072
M30
