G75*
%MOIN*%
%OFA0B0*%
%FSLAX25Y25*%
%IPPOS*%
%LPD*%
%AMOC8*
5,1,8,0,0,1.08239X$1,22.5*
%
%ADD10C,0.00300*%
%ADD11C,0.00200*%
%ADD12C,0.00600*%
%ADD13C,0.01000*%
%ADD14C,0.00500*%
%ADD15C,0.00400*%
%ADD16C,0.00800*%
%ADD17C,0.00100*%
D10*
X0040410Y0015534D02*
X0040894Y0015050D01*
X0041862Y0015050D01*
X0042345Y0015534D01*
X0043357Y0015050D02*
X0045292Y0015050D01*
X0044324Y0015050D02*
X0044324Y0017952D01*
X0043357Y0016985D01*
X0042345Y0017469D02*
X0041862Y0017952D01*
X0040894Y0017952D01*
X0040410Y0017469D01*
X0040410Y0015534D01*
X0046303Y0015534D02*
X0048238Y0017469D01*
X0048238Y0015534D01*
X0047755Y0015050D01*
X0046787Y0015050D01*
X0046303Y0015534D01*
X0046303Y0017469D01*
X0046787Y0017952D01*
X0047755Y0017952D01*
X0048238Y0017469D01*
X0056267Y0025689D02*
X0057501Y0024454D01*
X0056267Y0025689D02*
X0059970Y0025689D01*
X0059970Y0026923D02*
X0059970Y0024454D01*
X0062410Y0025034D02*
X0062894Y0024550D01*
X0063862Y0024550D01*
X0064345Y0025034D01*
X0064345Y0025517D01*
X0063862Y0026001D01*
X0063378Y0026001D01*
X0063862Y0026001D02*
X0064345Y0026485D01*
X0064345Y0026969D01*
X0063862Y0027452D01*
X0062894Y0027452D01*
X0062410Y0026969D01*
X0065357Y0026969D02*
X0065357Y0026485D01*
X0065841Y0026001D01*
X0067292Y0026001D01*
X0067292Y0025034D02*
X0067292Y0026969D01*
X0066808Y0027452D01*
X0065841Y0027452D01*
X0065357Y0026969D01*
X0067192Y0028755D02*
X0067809Y0028138D01*
X0070278Y0028138D01*
X0070895Y0028755D01*
X0070895Y0029989D01*
X0070278Y0030606D01*
X0070895Y0031821D02*
X0070895Y0034289D01*
X0070895Y0033055D02*
X0067192Y0033055D01*
X0068426Y0031821D01*
X0067809Y0030606D02*
X0067192Y0029989D01*
X0067192Y0028755D01*
X0068787Y0027452D02*
X0068303Y0026969D01*
X0068303Y0025034D01*
X0070238Y0026969D01*
X0070238Y0025034D01*
X0069755Y0024550D01*
X0068787Y0024550D01*
X0068303Y0025034D01*
X0067292Y0025034D02*
X0066808Y0024550D01*
X0065841Y0024550D01*
X0065357Y0025034D01*
X0068787Y0027452D02*
X0069755Y0027452D01*
X0070238Y0026969D01*
X0059970Y0028755D02*
X0059352Y0028138D01*
X0056884Y0030606D01*
X0059352Y0030606D01*
X0059970Y0029989D01*
X0059970Y0028755D01*
X0059352Y0028138D02*
X0056884Y0028138D01*
X0056267Y0028755D01*
X0056267Y0029989D01*
X0056884Y0030606D01*
X0057501Y0031821D02*
X0059352Y0031821D01*
X0059970Y0032438D01*
X0059970Y0034289D01*
X0057501Y0034289D01*
X0058118Y0035504D02*
X0058118Y0036738D01*
X0056267Y0035504D02*
X0056267Y0037973D01*
X0056267Y0035504D02*
X0059970Y0035504D01*
X0067192Y0036738D02*
X0070895Y0036738D01*
X0070895Y0035504D02*
X0070895Y0037973D01*
X0068426Y0035504D02*
X0067192Y0036738D01*
X0042738Y0029452D02*
X0040803Y0029452D01*
X0040803Y0026550D01*
X0039792Y0026550D02*
X0039792Y0028485D01*
X0040803Y0028001D02*
X0041771Y0028001D01*
X0039792Y0026550D02*
X0038341Y0026550D01*
X0037857Y0027034D01*
X0037857Y0028485D01*
X0036845Y0028969D02*
X0036362Y0029452D01*
X0035394Y0029452D01*
X0034910Y0028969D01*
X0034910Y0027034D01*
X0036845Y0028969D01*
X0036845Y0027034D01*
X0036362Y0026550D01*
X0035394Y0026550D01*
X0034910Y0027034D01*
X0033899Y0027034D02*
X0033415Y0026550D01*
X0032448Y0026550D01*
X0031964Y0027034D01*
X0031964Y0028001D02*
X0032931Y0028485D01*
X0033415Y0028485D01*
X0033899Y0028001D01*
X0033899Y0027034D01*
X0031964Y0028001D02*
X0031964Y0029452D01*
X0033899Y0029452D01*
X0029985Y0029452D02*
X0029985Y0026550D01*
X0030952Y0026550D02*
X0029017Y0026550D01*
X0029017Y0028485D02*
X0029985Y0029452D01*
X0062548Y0012631D02*
X0063031Y0011664D01*
X0063999Y0010697D01*
X0063999Y0012148D01*
X0064483Y0012631D01*
X0064966Y0012631D01*
X0065450Y0012148D01*
X0065450Y0011180D01*
X0064966Y0010697D01*
X0063999Y0010697D01*
X0063999Y0009685D02*
X0063031Y0009685D01*
X0062548Y0009201D01*
X0062548Y0007750D01*
X0065450Y0007750D01*
X0064483Y0007750D02*
X0064483Y0009201D01*
X0063999Y0009685D01*
X0064483Y0008717D02*
X0065450Y0009685D01*
X0109750Y0008185D02*
X0110717Y0009152D01*
X0110717Y0006250D01*
X0109750Y0006250D02*
X0111685Y0006250D01*
X0112697Y0006250D02*
X0112697Y0009152D01*
X0113180Y0007701D02*
X0114631Y0006250D01*
X0112697Y0007217D02*
X0114631Y0009152D01*
X0114164Y0014750D02*
X0114164Y0017652D01*
X0113197Y0016685D01*
X0112185Y0017169D02*
X0112185Y0016201D01*
X0111701Y0015717D01*
X0110250Y0015717D01*
X0110250Y0014750D02*
X0110250Y0017652D01*
X0111701Y0017652D01*
X0112185Y0017169D01*
X0111217Y0015717D02*
X0112185Y0014750D01*
X0113197Y0014750D02*
X0115131Y0014750D01*
X0116143Y0014750D02*
X0116143Y0015234D01*
X0118078Y0017169D01*
X0118078Y0017652D01*
X0116143Y0017652D01*
X0116148Y0023750D02*
X0115180Y0023750D01*
X0114697Y0024234D01*
X0114697Y0025201D02*
X0115664Y0025685D01*
X0116148Y0025685D01*
X0116631Y0025201D01*
X0116631Y0024234D01*
X0116148Y0023750D01*
X0117643Y0024234D02*
X0119578Y0026169D01*
X0119578Y0024234D01*
X0119094Y0023750D01*
X0118127Y0023750D01*
X0117643Y0024234D01*
X0117643Y0026169D01*
X0118127Y0026652D01*
X0119094Y0026652D01*
X0119578Y0026169D01*
X0120590Y0025685D02*
X0120590Y0024234D01*
X0121073Y0023750D01*
X0122525Y0023750D01*
X0122525Y0025685D01*
X0123536Y0025201D02*
X0124504Y0025201D01*
X0123536Y0023750D02*
X0123536Y0026652D01*
X0125471Y0026652D01*
X0116631Y0026652D02*
X0114697Y0026652D01*
X0114697Y0025201D01*
X0113685Y0023750D02*
X0111750Y0023750D01*
X0112717Y0023750D02*
X0112717Y0026652D01*
X0111750Y0025685D01*
X0113234Y0036250D02*
X0114201Y0036250D01*
X0114685Y0036734D01*
X0115697Y0036734D02*
X0115697Y0037701D01*
X0117148Y0037701D01*
X0117631Y0037217D01*
X0117631Y0036734D01*
X0117148Y0036250D01*
X0116180Y0036250D01*
X0115697Y0036734D01*
X0115697Y0037701D02*
X0116664Y0038669D01*
X0117631Y0039152D01*
X0114685Y0038669D02*
X0114201Y0039152D01*
X0113234Y0039152D01*
X0112750Y0038669D01*
X0112750Y0036734D01*
X0113234Y0036250D01*
X0137548Y0036250D02*
X0137548Y0037701D01*
X0138031Y0038185D01*
X0138999Y0038185D01*
X0139483Y0037701D01*
X0139483Y0036250D01*
X0140450Y0036250D02*
X0137548Y0036250D01*
X0139483Y0037217D02*
X0140450Y0038185D01*
X0140450Y0039197D02*
X0138515Y0041131D01*
X0138031Y0041131D01*
X0137548Y0040648D01*
X0137548Y0039680D01*
X0138031Y0039197D01*
X0140450Y0039197D02*
X0140450Y0041131D01*
X0139966Y0042143D02*
X0138031Y0042143D01*
X0137548Y0042627D01*
X0137548Y0043594D01*
X0138031Y0044078D01*
X0139966Y0042143D01*
X0140450Y0042627D01*
X0140450Y0043594D01*
X0139966Y0044078D01*
X0138031Y0044078D01*
X0146048Y0041631D02*
X0147983Y0039697D01*
X0147499Y0040180D02*
X0148950Y0041631D01*
X0148950Y0039697D02*
X0146048Y0039697D01*
X0148950Y0038685D02*
X0148950Y0036750D01*
X0148950Y0037717D02*
X0146048Y0037717D01*
X0147015Y0036750D01*
X0138170Y0054401D02*
X0138170Y0056336D01*
X0138170Y0055368D02*
X0135267Y0055368D01*
X0136235Y0054401D01*
X0135751Y0057347D02*
X0135267Y0057831D01*
X0135267Y0058799D01*
X0135751Y0059282D01*
X0137686Y0057347D01*
X0138170Y0057831D01*
X0138170Y0058799D01*
X0137686Y0059282D01*
X0135751Y0059282D01*
X0136235Y0060294D02*
X0137686Y0060294D01*
X0138170Y0060778D01*
X0138170Y0062229D01*
X0136235Y0062229D01*
X0136718Y0063240D02*
X0136718Y0064208D01*
X0135267Y0065175D02*
X0135267Y0063240D01*
X0138170Y0063240D01*
X0145192Y0062740D02*
X0145192Y0064675D01*
X0145676Y0064675D01*
X0147611Y0062740D01*
X0148095Y0062740D01*
X0147611Y0061729D02*
X0148095Y0061245D01*
X0148095Y0060278D01*
X0147611Y0059794D01*
X0145676Y0059794D01*
X0145192Y0060278D01*
X0145192Y0061245D01*
X0145676Y0061729D01*
X0137686Y0057347D02*
X0135751Y0057347D01*
X0129950Y0057750D02*
X0129950Y0059685D01*
X0129950Y0058717D02*
X0127048Y0058717D01*
X0128015Y0057750D01*
X0127048Y0060697D02*
X0129950Y0060697D01*
X0128983Y0060697D02*
X0127048Y0062631D01*
X0128499Y0061180D02*
X0129950Y0062631D01*
X0121450Y0062631D02*
X0121450Y0060697D01*
X0121450Y0061664D02*
X0118548Y0061664D01*
X0119515Y0060697D01*
X0119031Y0059685D02*
X0119999Y0059685D01*
X0120483Y0059201D01*
X0120483Y0057750D01*
X0121450Y0057750D02*
X0118548Y0057750D01*
X0118548Y0059201D01*
X0119031Y0059685D01*
X0120483Y0058717D02*
X0121450Y0059685D01*
X0120966Y0063643D02*
X0119999Y0063643D01*
X0119999Y0065094D01*
X0120483Y0065578D01*
X0120966Y0065578D01*
X0121450Y0065094D01*
X0121450Y0064127D01*
X0120966Y0063643D01*
X0119999Y0063643D02*
X0119031Y0064611D01*
X0118548Y0065578D01*
X0110525Y0059652D02*
X0108590Y0057717D01*
X0109073Y0058201D02*
X0110525Y0056750D01*
X0108590Y0056750D02*
X0108590Y0059652D01*
X0107578Y0059169D02*
X0105643Y0057234D01*
X0106127Y0056750D01*
X0107094Y0056750D01*
X0107578Y0057234D01*
X0107578Y0059169D01*
X0107094Y0059652D01*
X0106127Y0059652D01*
X0105643Y0059169D01*
X0105643Y0057234D01*
X0104631Y0057234D02*
X0104148Y0056750D01*
X0103180Y0056750D01*
X0102697Y0057234D01*
X0101685Y0056750D02*
X0099750Y0056750D01*
X0100717Y0056750D02*
X0100717Y0059652D01*
X0099750Y0058685D01*
X0102697Y0058201D02*
X0103664Y0058685D01*
X0104148Y0058685D01*
X0104631Y0058201D01*
X0104631Y0057234D01*
X0102697Y0058201D02*
X0102697Y0059652D01*
X0104631Y0059652D01*
X0104631Y0066750D02*
X0102697Y0066750D01*
X0103664Y0066750D02*
X0103664Y0069652D01*
X0102697Y0068685D01*
X0101685Y0069169D02*
X0101685Y0068201D01*
X0101201Y0067717D01*
X0099750Y0067717D01*
X0099750Y0066750D02*
X0099750Y0069652D01*
X0101201Y0069652D01*
X0101685Y0069169D01*
X0100717Y0067717D02*
X0101685Y0066750D01*
X0105643Y0068201D02*
X0107578Y0068201D01*
X0107094Y0066750D02*
X0107094Y0069652D01*
X0105643Y0068201D01*
X0025096Y0068250D02*
X0025096Y0071152D01*
X0023161Y0071152D02*
X0025096Y0068250D01*
X0023161Y0068250D02*
X0023161Y0071152D01*
X0022164Y0071152D02*
X0021197Y0071152D01*
X0021680Y0071152D02*
X0021680Y0068250D01*
X0021197Y0068250D02*
X0022164Y0068250D01*
X0020185Y0069217D02*
X0020185Y0071152D01*
X0020185Y0069217D02*
X0019217Y0068250D01*
X0018250Y0069217D01*
X0018250Y0071152D01*
D11*
X0026899Y0071527D02*
X0027132Y0071527D01*
X0027599Y0071994D01*
X0028300Y0071994D01*
X0027599Y0071994D02*
X0027132Y0072461D01*
X0026899Y0072461D01*
X0027132Y0070988D02*
X0027599Y0070988D01*
X0027833Y0070754D01*
X0027833Y0070053D01*
X0028300Y0070053D02*
X0026899Y0070053D01*
X0026899Y0070754D01*
X0027132Y0070988D01*
X0027833Y0070521D02*
X0028300Y0070988D01*
X0028300Y0069514D02*
X0028300Y0068580D01*
X0026899Y0068580D01*
X0026899Y0069514D01*
X0027599Y0069047D02*
X0027599Y0068580D01*
X0026899Y0068041D02*
X0026899Y0067107D01*
X0026899Y0067574D02*
X0028300Y0067574D01*
X0026899Y0066568D02*
X0026899Y0065634D01*
X0026899Y0066101D02*
X0028300Y0066101D01*
X0028300Y0065095D02*
X0027366Y0065095D01*
X0026899Y0064628D01*
X0027366Y0064160D01*
X0028300Y0064160D01*
X0028066Y0063621D02*
X0028300Y0063388D01*
X0028300Y0062687D01*
X0026899Y0062687D01*
X0026899Y0063388D01*
X0027132Y0063621D01*
X0027366Y0063621D01*
X0027599Y0063388D01*
X0027599Y0062687D01*
X0027599Y0063388D02*
X0027833Y0063621D01*
X0028066Y0063621D01*
X0027599Y0064160D02*
X0027599Y0065095D01*
X0038934Y0046402D02*
X0038934Y0044200D01*
X0038200Y0044200D02*
X0039668Y0044200D01*
X0040410Y0044200D02*
X0040410Y0046402D01*
X0040410Y0044934D02*
X0041878Y0046402D01*
X0040777Y0045301D02*
X0041878Y0044200D01*
X0046200Y0044200D02*
X0046200Y0046402D01*
X0047301Y0046402D01*
X0047668Y0046035D01*
X0047668Y0045301D01*
X0047301Y0044934D01*
X0046200Y0044934D01*
X0046934Y0044934D02*
X0047668Y0044200D01*
X0048410Y0044200D02*
X0049878Y0044200D01*
X0049144Y0044200D02*
X0049144Y0046402D01*
X0048410Y0045668D01*
X0038934Y0046402D02*
X0038200Y0045668D01*
X0040517Y0018002D02*
X0041251Y0018002D01*
X0040884Y0018002D02*
X0040884Y0015800D01*
X0040517Y0015800D02*
X0041251Y0015800D01*
X0041990Y0015800D02*
X0041990Y0018002D01*
X0043458Y0015800D01*
X0043458Y0018002D01*
X0035958Y0017635D02*
X0035958Y0016167D01*
X0035591Y0015800D01*
X0034490Y0015800D01*
X0034490Y0018002D01*
X0035591Y0018002D01*
X0035958Y0017635D01*
X0033748Y0018002D02*
X0033748Y0015800D01*
X0032280Y0018002D01*
X0032280Y0015800D01*
X0031538Y0016167D02*
X0031538Y0016901D01*
X0030804Y0016901D01*
X0030070Y0017635D02*
X0030070Y0016167D01*
X0030437Y0015800D01*
X0031171Y0015800D01*
X0031538Y0016167D01*
X0031538Y0017635D02*
X0031171Y0018002D01*
X0030437Y0018002D01*
X0030070Y0017635D01*
X0023458Y0018002D02*
X0021990Y0018002D01*
X0022724Y0018002D02*
X0022724Y0015800D01*
X0021248Y0016167D02*
X0021248Y0018002D01*
X0019780Y0018002D02*
X0019780Y0016167D01*
X0020147Y0015800D01*
X0020881Y0015800D01*
X0021248Y0016167D01*
X0019038Y0016167D02*
X0018671Y0015800D01*
X0017937Y0015800D01*
X0017570Y0016167D01*
X0017570Y0017635D01*
X0017937Y0018002D01*
X0018671Y0018002D01*
X0019038Y0017635D01*
X0019038Y0016167D01*
X0079360Y0017002D02*
X0079360Y0014800D01*
X0080828Y0014800D01*
X0081570Y0014800D02*
X0083038Y0014800D01*
X0083780Y0014800D02*
X0084881Y0014800D01*
X0085248Y0015167D01*
X0085248Y0016635D01*
X0084881Y0017002D01*
X0083780Y0017002D01*
X0083780Y0014800D01*
X0082304Y0015901D02*
X0081570Y0015901D01*
X0081570Y0017002D02*
X0081570Y0014800D01*
X0081570Y0017002D02*
X0083038Y0017002D01*
X0085990Y0016268D02*
X0086724Y0017002D01*
X0086724Y0014800D01*
X0085990Y0014800D02*
X0087458Y0014800D01*
D12*
X0079113Y0020482D02*
X0078988Y0020391D01*
X0078866Y0020297D01*
X0078747Y0020199D01*
X0078630Y0020099D01*
X0078516Y0019995D01*
X0078404Y0019889D01*
X0078296Y0019780D01*
X0078190Y0019668D01*
X0078087Y0019553D01*
X0077987Y0019436D01*
X0077889Y0019316D01*
X0077796Y0019194D01*
X0077705Y0019070D01*
X0077617Y0018943D01*
X0077533Y0018814D01*
X0077452Y0018682D01*
X0077375Y0018549D01*
X0077301Y0018414D01*
X0077230Y0018277D01*
X0077163Y0018138D01*
X0077100Y0017998D01*
X0077040Y0017855D01*
X0076984Y0017712D01*
X0076932Y0017567D01*
X0076883Y0017421D01*
X0076838Y0017273D01*
X0076797Y0017125D01*
X0076760Y0016975D01*
X0076726Y0016825D01*
X0076697Y0016673D01*
X0076671Y0016521D01*
X0076649Y0016369D01*
X0076632Y0016216D01*
X0076618Y0016062D01*
X0076608Y0015908D01*
X0076602Y0015754D01*
X0076600Y0015600D01*
X0086283Y0010864D02*
X0086402Y0010958D01*
X0086518Y0011056D01*
X0086632Y0011156D01*
X0086743Y0011260D01*
X0086851Y0011366D01*
X0086957Y0011474D01*
X0087059Y0011586D01*
X0087159Y0011700D01*
X0087257Y0011816D01*
X0087351Y0011935D01*
X0087442Y0012056D01*
X0087530Y0012180D01*
X0087615Y0012306D01*
X0087696Y0012433D01*
X0087775Y0012563D01*
X0087850Y0012695D01*
X0087921Y0012828D01*
X0087990Y0012964D01*
X0088055Y0013101D01*
X0088116Y0013239D01*
X0088174Y0013380D01*
X0088228Y0013521D01*
X0088279Y0013664D01*
X0088326Y0013808D01*
X0088370Y0013953D01*
X0088409Y0014100D01*
X0088445Y0014247D01*
X0088478Y0014395D01*
X0088506Y0014544D01*
X0088531Y0014694D01*
X0088552Y0014844D01*
X0088569Y0014994D01*
X0088583Y0015146D01*
X0088592Y0015297D01*
X0088598Y0015448D01*
X0088600Y0015600D01*
X0079000Y0010800D02*
X0078881Y0010892D01*
X0078764Y0010986D01*
X0078650Y0011084D01*
X0078538Y0011184D01*
X0078428Y0011288D01*
X0078322Y0011393D01*
X0078217Y0011502D01*
X0078116Y0011613D01*
X0078018Y0011727D01*
X0077922Y0011843D01*
X0077829Y0011961D01*
X0077740Y0012082D01*
X0077653Y0012205D01*
X0077570Y0012330D01*
X0077489Y0012457D01*
X0077412Y0012586D01*
X0077338Y0012717D01*
X0077267Y0012850D01*
X0077200Y0012984D01*
X0077136Y0013120D01*
X0077076Y0013258D01*
X0077019Y0013397D01*
X0076966Y0013538D01*
X0076916Y0013680D01*
X0076869Y0013823D01*
X0076827Y0013967D01*
X0076787Y0014112D01*
X0076752Y0014258D01*
X0076720Y0014405D01*
X0076692Y0014553D01*
X0076668Y0014701D01*
X0076647Y0014850D01*
X0076630Y0015000D01*
X0076617Y0015149D01*
X0076608Y0015299D01*
X0076602Y0015450D01*
X0076600Y0015600D01*
X0086283Y0020336D02*
X0086402Y0020242D01*
X0086518Y0020144D01*
X0086632Y0020044D01*
X0086743Y0019940D01*
X0086851Y0019834D01*
X0086957Y0019726D01*
X0087059Y0019614D01*
X0087159Y0019500D01*
X0087257Y0019384D01*
X0087351Y0019265D01*
X0087442Y0019144D01*
X0087530Y0019020D01*
X0087615Y0018894D01*
X0087696Y0018767D01*
X0087775Y0018637D01*
X0087850Y0018505D01*
X0087921Y0018372D01*
X0087990Y0018236D01*
X0088055Y0018099D01*
X0088116Y0017961D01*
X0088174Y0017820D01*
X0088228Y0017679D01*
X0088279Y0017536D01*
X0088326Y0017392D01*
X0088370Y0017247D01*
X0088409Y0017100D01*
X0088445Y0016953D01*
X0088478Y0016805D01*
X0088506Y0016656D01*
X0088531Y0016506D01*
X0088552Y0016356D01*
X0088569Y0016206D01*
X0088583Y0016054D01*
X0088592Y0015903D01*
X0088598Y0015752D01*
X0088600Y0015600D01*
D13*
X0078835Y0008541D02*
X0078667Y0008634D01*
X0078501Y0008730D01*
X0078337Y0008830D01*
X0078176Y0008935D01*
X0078017Y0009043D01*
X0077861Y0009155D01*
X0077707Y0009271D01*
X0077557Y0009390D01*
X0077409Y0009513D01*
X0077264Y0009639D01*
X0077123Y0009769D01*
X0076984Y0009902D01*
X0076849Y0010039D01*
X0076717Y0010179D01*
X0076589Y0010321D01*
X0076464Y0010467D01*
X0076342Y0010616D01*
X0076224Y0010768D01*
X0076110Y0010922D01*
X0076000Y0011080D01*
X0075893Y0011239D01*
X0075790Y0011402D01*
X0075691Y0011567D01*
X0075596Y0011734D01*
X0075506Y0011903D01*
X0075419Y0012074D01*
X0075336Y0012248D01*
X0075258Y0012423D01*
X0075184Y0012601D01*
X0075114Y0012780D01*
X0075048Y0012960D01*
X0074987Y0013142D01*
X0074930Y0013326D01*
X0074878Y0013511D01*
X0074830Y0013697D01*
X0074786Y0013884D01*
X0074747Y0014072D01*
X0074713Y0014261D01*
X0074683Y0014451D01*
X0074658Y0014641D01*
X0074637Y0014832D01*
X0074621Y0015024D01*
X0074609Y0015216D01*
X0074602Y0015408D01*
X0074600Y0015600D01*
X0086569Y0008654D02*
X0086738Y0008753D01*
X0086904Y0008857D01*
X0087068Y0008964D01*
X0087229Y0009075D01*
X0087387Y0009190D01*
X0087542Y0009309D01*
X0087695Y0009432D01*
X0087844Y0009558D01*
X0087990Y0009688D01*
X0088133Y0009822D01*
X0088273Y0009959D01*
X0088409Y0010099D01*
X0088542Y0010243D01*
X0088671Y0010390D01*
X0088797Y0010540D01*
X0088918Y0010693D01*
X0089037Y0010849D01*
X0089151Y0011008D01*
X0089261Y0011169D01*
X0089367Y0011334D01*
X0089470Y0011500D01*
X0089568Y0011670D01*
X0089662Y0011841D01*
X0089752Y0012015D01*
X0089837Y0012191D01*
X0089919Y0012369D01*
X0089995Y0012549D01*
X0090068Y0012731D01*
X0090136Y0012914D01*
X0090199Y0013099D01*
X0090258Y0013286D01*
X0090312Y0013474D01*
X0090362Y0013663D01*
X0090407Y0013853D01*
X0090447Y0014045D01*
X0090483Y0014237D01*
X0090514Y0014430D01*
X0090540Y0014624D01*
X0090562Y0014819D01*
X0090578Y0015014D01*
X0090590Y0015209D01*
X0090598Y0015405D01*
X0090600Y0015600D01*
X0090598Y0015793D01*
X0090591Y0015986D01*
X0090579Y0016178D01*
X0090563Y0016371D01*
X0090542Y0016563D01*
X0090516Y0016754D01*
X0090486Y0016944D01*
X0090451Y0017134D01*
X0090412Y0017323D01*
X0090368Y0017511D01*
X0090320Y0017698D01*
X0090267Y0017884D01*
X0090210Y0018068D01*
X0090148Y0018251D01*
X0090082Y0018432D01*
X0090011Y0018612D01*
X0089937Y0018790D01*
X0089858Y0018966D01*
X0089774Y0019140D01*
X0089687Y0019312D01*
X0089595Y0019482D01*
X0089499Y0019649D01*
X0089400Y0019815D01*
X0089296Y0019978D01*
X0089189Y0020138D01*
X0089077Y0020295D01*
X0088962Y0020450D01*
X0088843Y0020602D01*
X0088721Y0020751D01*
X0088595Y0020898D01*
X0088465Y0021041D01*
X0088332Y0021181D01*
X0088196Y0021317D01*
X0088056Y0021451D01*
X0087914Y0021580D01*
X0087768Y0021707D01*
X0077478Y0021746D02*
X0077330Y0021619D01*
X0077185Y0021489D01*
X0077044Y0021356D01*
X0076905Y0021219D01*
X0076770Y0021079D01*
X0076639Y0020935D01*
X0076511Y0020788D01*
X0076386Y0020639D01*
X0076265Y0020486D01*
X0076148Y0020331D01*
X0076035Y0020172D01*
X0075926Y0020011D01*
X0075821Y0019847D01*
X0075719Y0019681D01*
X0075622Y0019512D01*
X0075529Y0019342D01*
X0075440Y0019168D01*
X0075355Y0018993D01*
X0075275Y0018816D01*
X0075199Y0018637D01*
X0075127Y0018456D01*
X0075060Y0018273D01*
X0074997Y0018089D01*
X0074939Y0017903D01*
X0074885Y0017716D01*
X0074836Y0017528D01*
X0074791Y0017338D01*
X0074751Y0017148D01*
X0074716Y0016956D01*
X0074685Y0016764D01*
X0074659Y0016571D01*
X0074638Y0016377D01*
X0074621Y0016183D01*
X0074609Y0015989D01*
X0074602Y0015795D01*
X0074600Y0015600D01*
D14*
X0015600Y0006100D02*
X0015600Y0056600D01*
X0047600Y0056600D01*
X0047600Y0006100D01*
X0015600Y0006100D01*
X0050600Y0005600D02*
X0150600Y0005600D01*
X0150600Y0071600D01*
X0050600Y0071600D01*
X0050600Y0005600D01*
X0034600Y0034100D02*
X0028600Y0034100D01*
X0028600Y0048100D01*
X0034600Y0048100D01*
X0034600Y0034100D01*
D15*
X0028400Y0034954D02*
X0028400Y0033086D01*
X0026532Y0034954D01*
X0026065Y0034954D01*
X0025598Y0034487D01*
X0025598Y0033553D01*
X0026065Y0033086D01*
X0028400Y0032008D02*
X0028400Y0030140D01*
X0028400Y0031074D02*
X0025598Y0031074D01*
X0026532Y0030140D01*
X0025598Y0029061D02*
X0028400Y0027193D01*
X0027466Y0026115D02*
X0025598Y0026115D01*
X0027466Y0026115D02*
X0028400Y0025181D01*
X0027466Y0024247D01*
X0025598Y0024247D01*
X0025598Y0023168D02*
X0025598Y0021300D01*
X0026999Y0021300D01*
X0026532Y0022234D01*
X0026532Y0022701D01*
X0026999Y0023168D01*
X0027933Y0023168D01*
X0028400Y0022701D01*
X0028400Y0021767D01*
X0027933Y0021300D01*
X0047796Y0033300D02*
X0047796Y0035602D01*
X0048563Y0036369D01*
X0050098Y0036369D01*
X0050865Y0035602D01*
X0050865Y0033300D01*
X0052400Y0033300D02*
X0047796Y0033300D01*
X0050865Y0034835D02*
X0052400Y0036369D01*
X0052400Y0037904D02*
X0049331Y0040973D01*
X0048563Y0040973D01*
X0047796Y0040206D01*
X0047796Y0038671D01*
X0048563Y0037904D01*
X0052400Y0037904D02*
X0052400Y0040973D01*
X0052400Y0042508D02*
X0049331Y0045577D01*
X0048563Y0045577D01*
X0047796Y0044810D01*
X0047796Y0043275D01*
X0048563Y0042508D01*
X0052400Y0042508D02*
X0052400Y0045577D01*
X0057796Y0040206D02*
X0058563Y0040973D01*
X0061633Y0037904D01*
X0062400Y0038671D01*
X0062400Y0040206D01*
X0061633Y0040973D01*
X0058563Y0040973D01*
X0057796Y0040206D02*
X0057796Y0038671D01*
X0058563Y0037904D01*
X0061633Y0037904D01*
X0062400Y0036369D02*
X0062400Y0033300D01*
X0062400Y0034835D02*
X0057796Y0034835D01*
X0059331Y0033300D01*
X0028400Y0036967D02*
X0027466Y0037901D01*
X0025598Y0037901D01*
X0027466Y0036033D02*
X0028400Y0036967D01*
X0027466Y0036033D02*
X0025598Y0036033D01*
X0025598Y0041926D02*
X0025598Y0043327D01*
X0026065Y0043794D01*
X0026999Y0043794D01*
X0027466Y0043327D01*
X0027466Y0041926D01*
X0027466Y0042860D02*
X0028400Y0043794D01*
X0028400Y0044872D02*
X0028400Y0046740D01*
X0027933Y0047819D02*
X0028400Y0048286D01*
X0028400Y0049220D01*
X0027933Y0049687D01*
X0026999Y0049687D01*
X0026999Y0048753D01*
X0026065Y0049687D02*
X0025598Y0049220D01*
X0025598Y0048286D01*
X0026065Y0047819D01*
X0027933Y0047819D01*
X0025598Y0046740D02*
X0025598Y0044872D01*
X0028400Y0044872D01*
X0026999Y0044872D02*
X0026999Y0045806D01*
X0028400Y0041926D02*
X0025598Y0041926D01*
X0069300Y0065800D02*
X0070835Y0065800D01*
X0070067Y0065800D02*
X0070067Y0070404D01*
X0069300Y0070404D02*
X0070835Y0070404D01*
X0072369Y0069637D02*
X0072369Y0066567D01*
X0073137Y0065800D01*
X0074671Y0065800D01*
X0075439Y0066567D01*
X0076973Y0066567D02*
X0077741Y0065800D01*
X0079275Y0065800D01*
X0080042Y0066567D01*
X0080042Y0067335D01*
X0079275Y0068102D01*
X0078508Y0068102D01*
X0079275Y0068102D02*
X0080042Y0068869D01*
X0080042Y0069637D01*
X0079275Y0070404D01*
X0077741Y0070404D01*
X0076973Y0069637D01*
X0075439Y0069637D02*
X0074671Y0070404D01*
X0073137Y0070404D01*
X0072369Y0069637D01*
X0092884Y0055369D02*
X0094419Y0056904D01*
X0094419Y0052300D01*
X0092884Y0052300D02*
X0095954Y0052300D01*
X0097488Y0053067D02*
X0100557Y0056137D01*
X0100557Y0053067D01*
X0099790Y0052300D01*
X0098255Y0052300D01*
X0097488Y0053067D01*
X0097488Y0056137D01*
X0098255Y0056904D01*
X0099790Y0056904D01*
X0100557Y0056137D01*
X0102092Y0056137D02*
X0102859Y0056904D01*
X0104394Y0056904D01*
X0105161Y0056137D01*
X0102092Y0053067D01*
X0102859Y0052300D01*
X0104394Y0052300D01*
X0105161Y0053067D01*
X0105161Y0056137D01*
X0106696Y0056904D02*
X0106696Y0052300D01*
X0106696Y0053835D02*
X0109765Y0056904D01*
X0107463Y0054602D02*
X0109765Y0052300D01*
X0102092Y0053067D02*
X0102092Y0056137D01*
X0103627Y0046904D02*
X0103627Y0042300D01*
X0105161Y0042300D02*
X0102092Y0042300D01*
X0100557Y0042300D02*
X0099023Y0043835D01*
X0099790Y0043835D02*
X0097488Y0043835D01*
X0099790Y0043835D02*
X0100557Y0044602D01*
X0100557Y0046137D01*
X0099790Y0046904D01*
X0097488Y0046904D01*
X0097488Y0042300D01*
X0102092Y0045369D02*
X0103627Y0046904D01*
X0106696Y0046137D02*
X0107463Y0046904D01*
X0108998Y0046904D01*
X0109765Y0046137D01*
X0109765Y0045369D01*
X0108998Y0044602D01*
X0109765Y0043835D01*
X0109765Y0043067D01*
X0108998Y0042300D01*
X0107463Y0042300D01*
X0106696Y0043067D01*
X0108231Y0044602D02*
X0108998Y0044602D01*
D16*
X0048600Y0065600D02*
X0048600Y0070600D01*
X0046100Y0073100D01*
X0041100Y0073100D01*
X0038600Y0070600D01*
X0036100Y0073100D01*
X0031100Y0073100D01*
X0028600Y0070600D01*
X0028600Y0065600D01*
X0031100Y0063100D01*
X0036100Y0063100D01*
X0038600Y0065600D01*
X0041100Y0063100D01*
X0046100Y0063100D01*
X0048600Y0065600D01*
D17*
X0037087Y0045008D02*
X0037087Y0044007D01*
X0037087Y0044508D02*
X0035586Y0044508D01*
X0036086Y0044007D01*
X0035836Y0043535D02*
X0035586Y0043285D01*
X0035586Y0042534D01*
X0037087Y0042534D01*
X0037087Y0043285D01*
X0036837Y0043535D01*
X0035836Y0043535D01*
X0028095Y0043285D02*
X0026594Y0043285D01*
X0027344Y0042534D01*
X0027344Y0043535D01*
X0027094Y0044007D02*
X0026844Y0044007D01*
X0026594Y0044258D01*
X0026594Y0044758D01*
X0026844Y0045008D01*
X0027094Y0045008D01*
X0027344Y0044758D01*
X0027344Y0044258D01*
X0027094Y0044007D01*
X0027344Y0044258D02*
X0027594Y0044007D01*
X0027845Y0044007D01*
X0028095Y0044258D01*
X0028095Y0044758D01*
X0027845Y0045008D01*
X0027594Y0045008D01*
X0027344Y0044758D01*
X0028095Y0042062D02*
X0028095Y0041061D01*
X0028095Y0041561D02*
X0026594Y0041561D01*
X0027094Y0041061D01*
X0027344Y0040589D02*
X0027344Y0039588D01*
X0026594Y0040338D01*
X0028095Y0040338D01*
X0028095Y0039115D02*
X0026594Y0039115D01*
X0026594Y0038114D02*
X0028095Y0039115D01*
X0028095Y0038114D02*
X0026594Y0038114D01*
X0026594Y0037142D02*
X0028095Y0037142D01*
X0028095Y0037642D02*
X0028095Y0036641D01*
X0027094Y0036641D02*
X0026594Y0037142D01*
M02*
