G75*
%MOIN*%
%OFA0B0*%
%FSLAX25Y25*%
%IPPOS*%
%LPD*%
%AMOC8*
5,1,8,0,0,1.08239X$1,22.5*
%
%ADD10C,0.00500*%
%ADD11C,0.01000*%
%ADD12C,0.00400*%
D10*
X0033210Y0028868D02*
X0046990Y0028868D01*
X0046990Y0062332D01*
X0033210Y0062332D01*
X0033210Y0028868D01*
X0037147Y0038907D02*
X0043053Y0038907D01*
X0043053Y0046781D01*
X0037147Y0046781D01*
X0037147Y0044813D01*
X0037147Y0038907D01*
X0037147Y0044813D02*
X0043053Y0044813D01*
X0043053Y0046781D02*
X0043053Y0052687D01*
X0037147Y0052687D01*
X0037147Y0046781D01*
D11*
X0063891Y0041175D02*
X0063891Y0032710D01*
X0066254Y0032710D01*
X0072946Y0032710D02*
X0075309Y0032710D01*
X0075309Y0041175D01*
X0089569Y0030608D02*
X0089569Y0056592D01*
X0093600Y0056592D01*
X0101350Y0056592D02*
X0109350Y0056592D01*
X0117100Y0056592D02*
X0121100Y0056592D01*
X0128975Y0056592D02*
X0135631Y0056592D01*
X0135631Y0030608D02*
X0097350Y0030608D01*
X0080309Y0060525D02*
X0080309Y0068990D01*
X0077946Y0068990D01*
X0071254Y0068990D02*
X0068891Y0068990D01*
X0068891Y0060525D01*
D12*
X0066904Y0060171D02*
X0066904Y0061706D01*
X0066137Y0062473D01*
X0063067Y0059404D01*
X0062300Y0060171D01*
X0062300Y0061706D01*
X0063067Y0062473D01*
X0066137Y0062473D01*
X0066904Y0064008D02*
X0062300Y0064008D01*
X0063835Y0064008D02*
X0066904Y0067077D01*
X0064602Y0064775D02*
X0062300Y0067077D01*
X0066904Y0060171D02*
X0066137Y0059404D01*
X0063067Y0059404D01*
X0062300Y0057869D02*
X0062300Y0054800D01*
X0065369Y0057869D01*
X0066137Y0057869D01*
X0066904Y0057102D01*
X0066904Y0055567D01*
X0066137Y0054800D01*
X0082300Y0054800D02*
X0086904Y0054800D01*
X0086904Y0057102D01*
X0086137Y0057869D01*
X0084602Y0057869D01*
X0083835Y0057102D01*
X0083835Y0054800D01*
X0083835Y0056335D02*
X0082300Y0057869D01*
X0082300Y0059404D02*
X0082300Y0062473D01*
X0082300Y0060939D02*
X0086904Y0060939D01*
X0085369Y0059404D01*
X0085369Y0064008D02*
X0084602Y0064775D01*
X0084602Y0067077D01*
X0083067Y0067077D02*
X0086137Y0067077D01*
X0086904Y0066310D01*
X0086904Y0064775D01*
X0086137Y0064008D01*
X0085369Y0064008D01*
X0083067Y0064008D02*
X0082300Y0064775D01*
X0082300Y0066310D01*
X0083067Y0067077D01*
X0081904Y0045765D02*
X0078835Y0042696D01*
X0079602Y0043463D02*
X0077300Y0045765D01*
X0077300Y0042696D02*
X0081904Y0042696D01*
X0081137Y0041161D02*
X0078067Y0038092D01*
X0077300Y0038859D01*
X0077300Y0040394D01*
X0078067Y0041161D01*
X0081137Y0041161D01*
X0081904Y0040394D01*
X0081904Y0038859D01*
X0081137Y0038092D01*
X0078067Y0038092D01*
X0077300Y0036557D02*
X0077300Y0033488D01*
X0080369Y0036557D01*
X0081137Y0036557D01*
X0081904Y0035790D01*
X0081904Y0034256D01*
X0081137Y0033488D01*
X0061904Y0033488D02*
X0061904Y0035790D01*
X0061137Y0036557D01*
X0059602Y0036557D01*
X0058835Y0035790D01*
X0058835Y0033488D01*
X0057300Y0033488D02*
X0061904Y0033488D01*
X0058835Y0035023D02*
X0057300Y0036557D01*
X0057300Y0038092D02*
X0057300Y0041161D01*
X0057300Y0039627D02*
X0061904Y0039627D01*
X0060369Y0038092D01*
X0060369Y0042696D02*
X0061137Y0042696D01*
X0061904Y0043463D01*
X0061904Y0044998D01*
X0061137Y0045765D01*
X0060369Y0045765D01*
X0059602Y0044998D01*
X0059602Y0043463D01*
X0060369Y0042696D01*
X0059602Y0043463D02*
X0058835Y0042696D01*
X0058067Y0042696D01*
X0057300Y0043463D01*
X0057300Y0044998D01*
X0058067Y0045765D01*
X0058835Y0045765D01*
X0059602Y0044998D01*
M02*
