G75*
%MOIN*%
%OFA0B0*%
%FSLAX25Y25*%
%IPPOS*%
%LPD*%
%AMOC8*
5,1,8,0,0,1.08239X$1,22.5*
%
%ADD10R,0.09843X0.08661*%
%ADD11R,0.09843X0.11024*%
%ADD12R,0.11024X0.09843*%
%ADD13R,0.08661X0.09843*%
%ADD14R,0.01575X0.05709*%
%ADD15R,0.07087X0.05906*%
%ADD16R,0.05906X0.02756*%
D10*
X0093369Y0301669D03*
X0114235Y0309150D03*
X0144550Y0301669D03*
X0165416Y0309150D03*
X0195731Y0301669D03*
X0216597Y0309150D03*
X0246912Y0301669D03*
X0267778Y0309150D03*
X0298093Y0301669D03*
X0318959Y0309150D03*
X0349274Y0301669D03*
X0063054Y0309150D03*
D11*
X0063054Y0272535D03*
X0114235Y0272535D03*
X0165416Y0272535D03*
X0216597Y0272535D03*
X0267778Y0272535D03*
X0318959Y0272535D03*
X0342581Y0214976D03*
X0073644Y0220843D03*
D12*
X0057306Y0202732D03*
X0081164Y0256197D03*
X0132345Y0256197D03*
X0183526Y0256197D03*
X0234707Y0256197D03*
X0285888Y0256197D03*
X0337069Y0256197D03*
X0358920Y0233087D03*
D13*
X0020691Y0202732D03*
X0028172Y0233047D03*
X0388054Y0202772D03*
X0395534Y0233087D03*
D14*
X0381203Y0301531D03*
X0378644Y0301531D03*
X0376085Y0301531D03*
X0373526Y0301531D03*
X0370967Y0301531D03*
D15*
X0361581Y0312260D03*
X0390589Y0312260D03*
D16*
X0376085Y0312260D03*
M02*
