G75*
%MOIN*%
%OFA0B0*%
%FSLAX25Y25*%
%IPPOS*%
%LPD*%
%AMOC8*
5,1,8,0,0,1.08239X$1,22.5*
%
%ADD10R,0.06299X0.07480*%
%ADD11R,0.04331X0.03937*%
%ADD12R,0.03937X0.04331*%
%ADD13R,0.01200X0.03900*%
%ADD14R,0.07480X0.06299*%
D10*
X0025809Y0027024D03*
X0025809Y0040016D03*
X0042778Y0039386D03*
X0042778Y0026394D03*
X0070337Y0026394D03*
X0070337Y0039386D03*
X0092739Y0040016D03*
X0092739Y0027024D03*
X0105770Y0026394D03*
X0105770Y0039386D03*
X0133329Y0039386D03*
X0133329Y0026394D03*
X0151794Y0027024D03*
X0151794Y0040016D03*
X0168762Y0039386D03*
X0168762Y0026394D03*
X0196321Y0026394D03*
X0196321Y0039386D03*
X0214786Y0040016D03*
X0214786Y0027024D03*
X0231754Y0026394D03*
X0231754Y0039386D03*
X0259313Y0039386D03*
X0259313Y0026394D03*
X0281715Y0027024D03*
X0281715Y0040016D03*
X0294746Y0039386D03*
X0294746Y0026394D03*
X0322306Y0026394D03*
X0322306Y0039386D03*
X0340770Y0040016D03*
X0340770Y0027024D03*
X0357739Y0026394D03*
X0357739Y0039386D03*
X0385298Y0039386D03*
X0385298Y0026394D03*
X0365180Y0152772D03*
X0365180Y0165764D03*
X0302187Y0165764D03*
X0302187Y0152772D03*
X0239195Y0152772D03*
X0239195Y0165764D03*
X0176203Y0165764D03*
X0176203Y0152772D03*
X0113211Y0152772D03*
X0113211Y0165764D03*
X0050219Y0165764D03*
X0050219Y0152772D03*
X0095219Y0273441D03*
X0095219Y0286433D03*
X0116164Y0292024D03*
X0116164Y0305016D03*
X0142463Y0286433D03*
X0142463Y0273441D03*
X0167345Y0292024D03*
X0167345Y0305016D03*
X0197581Y0286433D03*
X0197581Y0273441D03*
X0218526Y0292024D03*
X0218526Y0305016D03*
X0248762Y0286433D03*
X0248762Y0273441D03*
X0269707Y0292024D03*
X0269707Y0305016D03*
X0299943Y0286433D03*
X0299943Y0273441D03*
X0320888Y0292024D03*
X0320888Y0305016D03*
X0347187Y0286433D03*
X0347187Y0273441D03*
X0061046Y0292024D03*
X0061046Y0305016D03*
D11*
X0196912Y0202181D03*
X0203605Y0202181D03*
X0212660Y0202220D03*
X0219353Y0202220D03*
D12*
X0188644Y0169583D03*
X0188644Y0162890D03*
X0188565Y0151472D03*
X0188565Y0144780D03*
X0180573Y0134622D03*
X0180573Y0127929D03*
X0168762Y0127969D03*
X0168762Y0134661D03*
X0160888Y0159465D03*
X0160888Y0166157D03*
X0125652Y0162890D03*
X0125652Y0169583D03*
X0125573Y0151472D03*
X0125573Y0144780D03*
X0117581Y0134622D03*
X0117581Y0127929D03*
X0105770Y0127969D03*
X0105770Y0134661D03*
X0097896Y0159465D03*
X0097896Y0166157D03*
X0062660Y0162890D03*
X0062660Y0169583D03*
X0062581Y0151472D03*
X0062581Y0144780D03*
X0054589Y0134622D03*
X0054589Y0127929D03*
X0042778Y0127969D03*
X0042778Y0134661D03*
X0034904Y0159465D03*
X0034904Y0166157D03*
X0023093Y0079543D03*
X0023093Y0072850D03*
X0057384Y0031945D03*
X0057384Y0025252D03*
X0078211Y0072850D03*
X0078211Y0079543D03*
X0090022Y0079543D03*
X0090022Y0072850D03*
X0120376Y0031945D03*
X0120376Y0025252D03*
X0141203Y0072850D03*
X0141203Y0079543D03*
X0149077Y0079543D03*
X0149077Y0072850D03*
X0183369Y0031945D03*
X0183369Y0025252D03*
X0204195Y0072850D03*
X0212069Y0072850D03*
X0212069Y0079543D03*
X0204195Y0079543D03*
X0246361Y0031945D03*
X0246361Y0025252D03*
X0267187Y0072850D03*
X0267187Y0079543D03*
X0278998Y0079543D03*
X0278998Y0072850D03*
X0309353Y0031945D03*
X0309353Y0025252D03*
X0330180Y0072850D03*
X0330180Y0079543D03*
X0338054Y0079543D03*
X0338054Y0072850D03*
X0372345Y0031945D03*
X0372345Y0025252D03*
X0393172Y0072850D03*
X0393172Y0079543D03*
X0369550Y0127929D03*
X0369550Y0134622D03*
X0357739Y0134661D03*
X0357739Y0127969D03*
X0377542Y0144780D03*
X0377542Y0151472D03*
X0377620Y0162890D03*
X0377620Y0169583D03*
X0349865Y0166157D03*
X0349865Y0159465D03*
X0314628Y0162890D03*
X0314628Y0169583D03*
X0314550Y0151472D03*
X0314550Y0144780D03*
X0306557Y0134622D03*
X0306557Y0127929D03*
X0294746Y0127969D03*
X0294746Y0134661D03*
X0286872Y0159465D03*
X0286872Y0166157D03*
X0251636Y0162890D03*
X0251636Y0169583D03*
X0251557Y0151472D03*
X0251557Y0144780D03*
X0243565Y0134622D03*
X0243565Y0127929D03*
X0231754Y0127969D03*
X0231754Y0134661D03*
X0223880Y0159465D03*
X0223880Y0166157D03*
X0247502Y0242142D03*
X0247502Y0248835D03*
D13*
X0215809Y0237291D03*
X0213250Y0237291D03*
X0210691Y0237291D03*
X0208132Y0237291D03*
X0205573Y0237291D03*
X0203014Y0237291D03*
X0200455Y0237291D03*
X0200455Y0214316D03*
X0203014Y0214316D03*
X0205573Y0214316D03*
X0208132Y0214316D03*
X0210691Y0214316D03*
X0213250Y0214316D03*
X0215809Y0214316D03*
X0231872Y0077212D03*
X0234431Y0077212D03*
X0236991Y0077212D03*
X0239550Y0077212D03*
X0242109Y0077212D03*
X0244668Y0077212D03*
X0247227Y0077212D03*
X0247227Y0054237D03*
X0244668Y0054237D03*
X0242109Y0054237D03*
X0239550Y0054237D03*
X0236991Y0054237D03*
X0234431Y0054237D03*
X0231872Y0054237D03*
X0184235Y0054237D03*
X0181676Y0054237D03*
X0179117Y0054237D03*
X0176557Y0054237D03*
X0173998Y0054237D03*
X0171439Y0054237D03*
X0168880Y0054237D03*
X0168880Y0077212D03*
X0171439Y0077212D03*
X0173998Y0077212D03*
X0176557Y0077212D03*
X0179117Y0077212D03*
X0181676Y0077212D03*
X0184235Y0077212D03*
X0121243Y0077212D03*
X0118683Y0077212D03*
X0116124Y0077212D03*
X0113565Y0077212D03*
X0111006Y0077212D03*
X0108447Y0077212D03*
X0105888Y0077212D03*
X0105888Y0054237D03*
X0108447Y0054237D03*
X0111006Y0054237D03*
X0113565Y0054237D03*
X0116124Y0054237D03*
X0118683Y0054237D03*
X0121243Y0054237D03*
X0058250Y0054237D03*
X0055691Y0054237D03*
X0053132Y0054237D03*
X0050573Y0054237D03*
X0048014Y0054237D03*
X0045455Y0054237D03*
X0042896Y0054237D03*
X0042896Y0077212D03*
X0045455Y0077212D03*
X0048014Y0077212D03*
X0050573Y0077212D03*
X0053132Y0077212D03*
X0055691Y0077212D03*
X0058250Y0077212D03*
X0294865Y0077212D03*
X0297424Y0077212D03*
X0299983Y0077212D03*
X0302542Y0077212D03*
X0305101Y0077212D03*
X0307660Y0077212D03*
X0310219Y0077212D03*
X0310219Y0054237D03*
X0307660Y0054237D03*
X0305101Y0054237D03*
X0302542Y0054237D03*
X0299983Y0054237D03*
X0297424Y0054237D03*
X0294865Y0054237D03*
X0357857Y0054237D03*
X0360416Y0054237D03*
X0362975Y0054237D03*
X0365534Y0054237D03*
X0368093Y0054237D03*
X0370652Y0054237D03*
X0373211Y0054237D03*
X0373211Y0077212D03*
X0370652Y0077212D03*
X0368093Y0077212D03*
X0365534Y0077212D03*
X0362975Y0077212D03*
X0360416Y0077212D03*
X0357857Y0077212D03*
D14*
X0362581Y0202772D03*
X0349589Y0202772D03*
X0375809Y0233165D03*
X0388802Y0233165D03*
X0366479Y0252457D03*
X0353487Y0252457D03*
X0060337Y0233165D03*
X0047345Y0233165D03*
X0037778Y0202929D03*
X0024786Y0202929D03*
M02*
