G75*
%MOIN*%
%OFA0B0*%
%FSLAX25Y25*%
%IPPOS*%
%LPD*%
%AMOC8*
5,1,8,0,0,1.08239X$1,22.5*
%
%ADD10C,0.00800*%
%ADD11C,0.00500*%
%ADD12C,0.00100*%
%ADD13R,0.01800X0.03000*%
%ADD14R,0.03000X0.01800*%
%ADD15C,0.00600*%
%ADD16C,0.00200*%
D10*
X0022660Y0021709D02*
X0021085Y0023283D01*
X0021085Y0029583D01*
X0022660Y0021709D02*
X0028959Y0021709D01*
X0030534Y0023283D01*
X0030534Y0029583D01*
X0038054Y0028953D02*
X0038054Y0021079D01*
X0047502Y0021079D01*
X0047502Y0028953D01*
X0047502Y0036827D02*
X0047502Y0043126D01*
X0045928Y0044701D01*
X0039628Y0044701D01*
X0038054Y0043126D01*
X0038054Y0036827D01*
X0030534Y0037457D02*
X0030534Y0045331D01*
X0021085Y0045331D01*
X0021085Y0037457D01*
X0040673Y0056737D02*
X0040673Y0074712D01*
X0055173Y0060924D02*
X0055175Y0061008D01*
X0055181Y0061093D01*
X0055191Y0061176D01*
X0055205Y0061260D01*
X0055222Y0061342D01*
X0055244Y0061424D01*
X0055269Y0061504D01*
X0055298Y0061583D01*
X0055331Y0061661D01*
X0055367Y0061737D01*
X0055407Y0061812D01*
X0055451Y0061884D01*
X0055497Y0061955D01*
X0055547Y0062023D01*
X0055600Y0062088D01*
X0055656Y0062151D01*
X0055715Y0062212D01*
X0055777Y0062269D01*
X0055841Y0062324D01*
X0055908Y0062375D01*
X0055977Y0062424D01*
X0056049Y0062469D01*
X0056122Y0062510D01*
X0056197Y0062548D01*
X0056274Y0062583D01*
X0056353Y0062614D01*
X0056433Y0062641D01*
X0056514Y0062664D01*
X0056596Y0062684D01*
X0056679Y0062700D01*
X0056762Y0062712D01*
X0056847Y0062720D01*
X0056931Y0062724D01*
X0057015Y0062724D01*
X0057099Y0062720D01*
X0057184Y0062712D01*
X0057267Y0062700D01*
X0057350Y0062684D01*
X0057432Y0062664D01*
X0057513Y0062641D01*
X0057593Y0062614D01*
X0057672Y0062583D01*
X0057749Y0062548D01*
X0057824Y0062510D01*
X0057897Y0062469D01*
X0057969Y0062424D01*
X0058038Y0062375D01*
X0058105Y0062324D01*
X0058169Y0062269D01*
X0058231Y0062212D01*
X0058290Y0062151D01*
X0058346Y0062088D01*
X0058399Y0062023D01*
X0058449Y0061955D01*
X0058495Y0061884D01*
X0058539Y0061812D01*
X0058579Y0061737D01*
X0058615Y0061661D01*
X0058648Y0061583D01*
X0058677Y0061504D01*
X0058702Y0061424D01*
X0058724Y0061342D01*
X0058741Y0061260D01*
X0058755Y0061176D01*
X0058765Y0061093D01*
X0058771Y0061008D01*
X0058773Y0060924D01*
X0058771Y0060840D01*
X0058765Y0060755D01*
X0058755Y0060672D01*
X0058741Y0060588D01*
X0058724Y0060506D01*
X0058702Y0060424D01*
X0058677Y0060344D01*
X0058648Y0060265D01*
X0058615Y0060187D01*
X0058579Y0060111D01*
X0058539Y0060036D01*
X0058495Y0059964D01*
X0058449Y0059893D01*
X0058399Y0059825D01*
X0058346Y0059760D01*
X0058290Y0059697D01*
X0058231Y0059636D01*
X0058169Y0059579D01*
X0058105Y0059524D01*
X0058038Y0059473D01*
X0057969Y0059424D01*
X0057897Y0059379D01*
X0057824Y0059338D01*
X0057749Y0059300D01*
X0057672Y0059265D01*
X0057593Y0059234D01*
X0057513Y0059207D01*
X0057432Y0059184D01*
X0057350Y0059164D01*
X0057267Y0059148D01*
X0057184Y0059136D01*
X0057099Y0059128D01*
X0057015Y0059124D01*
X0056931Y0059124D01*
X0056847Y0059128D01*
X0056762Y0059136D01*
X0056679Y0059148D01*
X0056596Y0059164D01*
X0056514Y0059184D01*
X0056433Y0059207D01*
X0056353Y0059234D01*
X0056274Y0059265D01*
X0056197Y0059300D01*
X0056122Y0059338D01*
X0056049Y0059379D01*
X0055977Y0059424D01*
X0055908Y0059473D01*
X0055841Y0059524D01*
X0055777Y0059579D01*
X0055715Y0059636D01*
X0055656Y0059697D01*
X0055600Y0059760D01*
X0055547Y0059825D01*
X0055497Y0059893D01*
X0055451Y0059964D01*
X0055407Y0060036D01*
X0055367Y0060111D01*
X0055331Y0060187D01*
X0055298Y0060265D01*
X0055269Y0060344D01*
X0055244Y0060424D01*
X0055222Y0060506D01*
X0055205Y0060588D01*
X0055191Y0060672D01*
X0055181Y0060755D01*
X0055175Y0060840D01*
X0055173Y0060924D01*
X0060473Y0056737D02*
X0060473Y0074712D01*
X0067187Y0044701D02*
X0073487Y0044701D01*
X0075061Y0043126D01*
X0075061Y0036827D01*
X0067187Y0044701D02*
X0065613Y0043126D01*
X0065613Y0036827D01*
X0065613Y0028953D02*
X0065613Y0021079D01*
X0075061Y0021079D01*
X0075061Y0028953D01*
X0088014Y0029583D02*
X0088014Y0023283D01*
X0089589Y0021709D01*
X0095888Y0021709D01*
X0097463Y0023283D01*
X0097463Y0029583D01*
X0101046Y0028953D02*
X0101046Y0021079D01*
X0110494Y0021079D01*
X0110494Y0028953D01*
X0110494Y0036827D02*
X0110494Y0043126D01*
X0108920Y0044701D01*
X0102620Y0044701D01*
X0101046Y0043126D01*
X0101046Y0036827D01*
X0097463Y0037457D02*
X0097463Y0045331D01*
X0088014Y0045331D01*
X0088014Y0037457D01*
X0103665Y0056737D02*
X0103665Y0074712D01*
X0118165Y0060924D02*
X0118167Y0061008D01*
X0118173Y0061093D01*
X0118183Y0061176D01*
X0118197Y0061260D01*
X0118214Y0061342D01*
X0118236Y0061424D01*
X0118261Y0061504D01*
X0118290Y0061583D01*
X0118323Y0061661D01*
X0118359Y0061737D01*
X0118399Y0061812D01*
X0118443Y0061884D01*
X0118489Y0061955D01*
X0118539Y0062023D01*
X0118592Y0062088D01*
X0118648Y0062151D01*
X0118707Y0062212D01*
X0118769Y0062269D01*
X0118833Y0062324D01*
X0118900Y0062375D01*
X0118969Y0062424D01*
X0119041Y0062469D01*
X0119114Y0062510D01*
X0119189Y0062548D01*
X0119266Y0062583D01*
X0119345Y0062614D01*
X0119425Y0062641D01*
X0119506Y0062664D01*
X0119588Y0062684D01*
X0119671Y0062700D01*
X0119754Y0062712D01*
X0119839Y0062720D01*
X0119923Y0062724D01*
X0120007Y0062724D01*
X0120091Y0062720D01*
X0120176Y0062712D01*
X0120259Y0062700D01*
X0120342Y0062684D01*
X0120424Y0062664D01*
X0120505Y0062641D01*
X0120585Y0062614D01*
X0120664Y0062583D01*
X0120741Y0062548D01*
X0120816Y0062510D01*
X0120889Y0062469D01*
X0120961Y0062424D01*
X0121030Y0062375D01*
X0121097Y0062324D01*
X0121161Y0062269D01*
X0121223Y0062212D01*
X0121282Y0062151D01*
X0121338Y0062088D01*
X0121391Y0062023D01*
X0121441Y0061955D01*
X0121487Y0061884D01*
X0121531Y0061812D01*
X0121571Y0061737D01*
X0121607Y0061661D01*
X0121640Y0061583D01*
X0121669Y0061504D01*
X0121694Y0061424D01*
X0121716Y0061342D01*
X0121733Y0061260D01*
X0121747Y0061176D01*
X0121757Y0061093D01*
X0121763Y0061008D01*
X0121765Y0060924D01*
X0121763Y0060840D01*
X0121757Y0060755D01*
X0121747Y0060672D01*
X0121733Y0060588D01*
X0121716Y0060506D01*
X0121694Y0060424D01*
X0121669Y0060344D01*
X0121640Y0060265D01*
X0121607Y0060187D01*
X0121571Y0060111D01*
X0121531Y0060036D01*
X0121487Y0059964D01*
X0121441Y0059893D01*
X0121391Y0059825D01*
X0121338Y0059760D01*
X0121282Y0059697D01*
X0121223Y0059636D01*
X0121161Y0059579D01*
X0121097Y0059524D01*
X0121030Y0059473D01*
X0120961Y0059424D01*
X0120889Y0059379D01*
X0120816Y0059338D01*
X0120741Y0059300D01*
X0120664Y0059265D01*
X0120585Y0059234D01*
X0120505Y0059207D01*
X0120424Y0059184D01*
X0120342Y0059164D01*
X0120259Y0059148D01*
X0120176Y0059136D01*
X0120091Y0059128D01*
X0120007Y0059124D01*
X0119923Y0059124D01*
X0119839Y0059128D01*
X0119754Y0059136D01*
X0119671Y0059148D01*
X0119588Y0059164D01*
X0119506Y0059184D01*
X0119425Y0059207D01*
X0119345Y0059234D01*
X0119266Y0059265D01*
X0119189Y0059300D01*
X0119114Y0059338D01*
X0119041Y0059379D01*
X0118969Y0059424D01*
X0118900Y0059473D01*
X0118833Y0059524D01*
X0118769Y0059579D01*
X0118707Y0059636D01*
X0118648Y0059697D01*
X0118592Y0059760D01*
X0118539Y0059825D01*
X0118489Y0059893D01*
X0118443Y0059964D01*
X0118399Y0060036D01*
X0118359Y0060111D01*
X0118323Y0060187D01*
X0118290Y0060265D01*
X0118261Y0060344D01*
X0118236Y0060424D01*
X0118214Y0060506D01*
X0118197Y0060588D01*
X0118183Y0060672D01*
X0118173Y0060755D01*
X0118167Y0060840D01*
X0118165Y0060924D01*
X0123465Y0056737D02*
X0123465Y0074712D01*
X0130180Y0044701D02*
X0136479Y0044701D01*
X0138054Y0043126D01*
X0138054Y0036827D01*
X0147069Y0037457D02*
X0147069Y0045331D01*
X0156518Y0045331D01*
X0156518Y0037457D01*
X0164038Y0036827D02*
X0164038Y0043126D01*
X0165613Y0044701D01*
X0171912Y0044701D01*
X0173487Y0043126D01*
X0173487Y0036827D01*
X0173487Y0028953D02*
X0173487Y0021079D01*
X0164038Y0021079D01*
X0164038Y0028953D01*
X0156518Y0029583D02*
X0156518Y0023283D01*
X0154943Y0021709D01*
X0148644Y0021709D01*
X0147069Y0023283D01*
X0147069Y0029583D01*
X0138054Y0028953D02*
X0138054Y0021079D01*
X0128605Y0021079D01*
X0128605Y0028953D01*
X0128605Y0036827D02*
X0128605Y0043126D01*
X0130180Y0044701D01*
X0166657Y0056737D02*
X0166657Y0074712D01*
X0186457Y0074712D02*
X0186457Y0056737D01*
X0181157Y0060924D02*
X0181159Y0061008D01*
X0181165Y0061093D01*
X0181175Y0061176D01*
X0181189Y0061260D01*
X0181206Y0061342D01*
X0181228Y0061424D01*
X0181253Y0061504D01*
X0181282Y0061583D01*
X0181315Y0061661D01*
X0181351Y0061737D01*
X0181391Y0061812D01*
X0181435Y0061884D01*
X0181481Y0061955D01*
X0181531Y0062023D01*
X0181584Y0062088D01*
X0181640Y0062151D01*
X0181699Y0062212D01*
X0181761Y0062269D01*
X0181825Y0062324D01*
X0181892Y0062375D01*
X0181961Y0062424D01*
X0182033Y0062469D01*
X0182106Y0062510D01*
X0182181Y0062548D01*
X0182258Y0062583D01*
X0182337Y0062614D01*
X0182417Y0062641D01*
X0182498Y0062664D01*
X0182580Y0062684D01*
X0182663Y0062700D01*
X0182746Y0062712D01*
X0182831Y0062720D01*
X0182915Y0062724D01*
X0182999Y0062724D01*
X0183083Y0062720D01*
X0183168Y0062712D01*
X0183251Y0062700D01*
X0183334Y0062684D01*
X0183416Y0062664D01*
X0183497Y0062641D01*
X0183577Y0062614D01*
X0183656Y0062583D01*
X0183733Y0062548D01*
X0183808Y0062510D01*
X0183881Y0062469D01*
X0183953Y0062424D01*
X0184022Y0062375D01*
X0184089Y0062324D01*
X0184153Y0062269D01*
X0184215Y0062212D01*
X0184274Y0062151D01*
X0184330Y0062088D01*
X0184383Y0062023D01*
X0184433Y0061955D01*
X0184479Y0061884D01*
X0184523Y0061812D01*
X0184563Y0061737D01*
X0184599Y0061661D01*
X0184632Y0061583D01*
X0184661Y0061504D01*
X0184686Y0061424D01*
X0184708Y0061342D01*
X0184725Y0061260D01*
X0184739Y0061176D01*
X0184749Y0061093D01*
X0184755Y0061008D01*
X0184757Y0060924D01*
X0184755Y0060840D01*
X0184749Y0060755D01*
X0184739Y0060672D01*
X0184725Y0060588D01*
X0184708Y0060506D01*
X0184686Y0060424D01*
X0184661Y0060344D01*
X0184632Y0060265D01*
X0184599Y0060187D01*
X0184563Y0060111D01*
X0184523Y0060036D01*
X0184479Y0059964D01*
X0184433Y0059893D01*
X0184383Y0059825D01*
X0184330Y0059760D01*
X0184274Y0059697D01*
X0184215Y0059636D01*
X0184153Y0059579D01*
X0184089Y0059524D01*
X0184022Y0059473D01*
X0183953Y0059424D01*
X0183881Y0059379D01*
X0183808Y0059338D01*
X0183733Y0059300D01*
X0183656Y0059265D01*
X0183577Y0059234D01*
X0183497Y0059207D01*
X0183416Y0059184D01*
X0183334Y0059164D01*
X0183251Y0059148D01*
X0183168Y0059136D01*
X0183083Y0059128D01*
X0182999Y0059124D01*
X0182915Y0059124D01*
X0182831Y0059128D01*
X0182746Y0059136D01*
X0182663Y0059148D01*
X0182580Y0059164D01*
X0182498Y0059184D01*
X0182417Y0059207D01*
X0182337Y0059234D01*
X0182258Y0059265D01*
X0182181Y0059300D01*
X0182106Y0059338D01*
X0182033Y0059379D01*
X0181961Y0059424D01*
X0181892Y0059473D01*
X0181825Y0059524D01*
X0181761Y0059579D01*
X0181699Y0059636D01*
X0181640Y0059697D01*
X0181584Y0059760D01*
X0181531Y0059825D01*
X0181481Y0059893D01*
X0181435Y0059964D01*
X0181391Y0060036D01*
X0181351Y0060111D01*
X0181315Y0060187D01*
X0181282Y0060265D01*
X0181253Y0060344D01*
X0181228Y0060424D01*
X0181206Y0060506D01*
X0181189Y0060588D01*
X0181175Y0060672D01*
X0181165Y0060755D01*
X0181159Y0060840D01*
X0181157Y0060924D01*
X0193172Y0044701D02*
X0199471Y0044701D01*
X0201046Y0043126D01*
X0201046Y0036827D01*
X0210061Y0037457D02*
X0210061Y0045331D01*
X0219510Y0045331D01*
X0219510Y0037457D01*
X0227030Y0036827D02*
X0227030Y0043126D01*
X0228605Y0044701D01*
X0234904Y0044701D01*
X0236479Y0043126D01*
X0236479Y0036827D01*
X0236479Y0028953D02*
X0236479Y0021079D01*
X0227030Y0021079D01*
X0227030Y0028953D01*
X0219510Y0029583D02*
X0219510Y0023283D01*
X0217935Y0021709D01*
X0211636Y0021709D01*
X0210061Y0023283D01*
X0210061Y0029583D01*
X0201046Y0028953D02*
X0201046Y0021079D01*
X0191597Y0021079D01*
X0191597Y0028953D01*
X0191597Y0036827D02*
X0191597Y0043126D01*
X0193172Y0044701D01*
X0229650Y0056737D02*
X0229650Y0074712D01*
X0249450Y0074712D02*
X0249450Y0056737D01*
X0244150Y0060924D02*
X0244152Y0061008D01*
X0244158Y0061093D01*
X0244168Y0061176D01*
X0244182Y0061260D01*
X0244199Y0061342D01*
X0244221Y0061424D01*
X0244246Y0061504D01*
X0244275Y0061583D01*
X0244308Y0061661D01*
X0244344Y0061737D01*
X0244384Y0061812D01*
X0244428Y0061884D01*
X0244474Y0061955D01*
X0244524Y0062023D01*
X0244577Y0062088D01*
X0244633Y0062151D01*
X0244692Y0062212D01*
X0244754Y0062269D01*
X0244818Y0062324D01*
X0244885Y0062375D01*
X0244954Y0062424D01*
X0245026Y0062469D01*
X0245099Y0062510D01*
X0245174Y0062548D01*
X0245251Y0062583D01*
X0245330Y0062614D01*
X0245410Y0062641D01*
X0245491Y0062664D01*
X0245573Y0062684D01*
X0245656Y0062700D01*
X0245739Y0062712D01*
X0245824Y0062720D01*
X0245908Y0062724D01*
X0245992Y0062724D01*
X0246076Y0062720D01*
X0246161Y0062712D01*
X0246244Y0062700D01*
X0246327Y0062684D01*
X0246409Y0062664D01*
X0246490Y0062641D01*
X0246570Y0062614D01*
X0246649Y0062583D01*
X0246726Y0062548D01*
X0246801Y0062510D01*
X0246874Y0062469D01*
X0246946Y0062424D01*
X0247015Y0062375D01*
X0247082Y0062324D01*
X0247146Y0062269D01*
X0247208Y0062212D01*
X0247267Y0062151D01*
X0247323Y0062088D01*
X0247376Y0062023D01*
X0247426Y0061955D01*
X0247472Y0061884D01*
X0247516Y0061812D01*
X0247556Y0061737D01*
X0247592Y0061661D01*
X0247625Y0061583D01*
X0247654Y0061504D01*
X0247679Y0061424D01*
X0247701Y0061342D01*
X0247718Y0061260D01*
X0247732Y0061176D01*
X0247742Y0061093D01*
X0247748Y0061008D01*
X0247750Y0060924D01*
X0247748Y0060840D01*
X0247742Y0060755D01*
X0247732Y0060672D01*
X0247718Y0060588D01*
X0247701Y0060506D01*
X0247679Y0060424D01*
X0247654Y0060344D01*
X0247625Y0060265D01*
X0247592Y0060187D01*
X0247556Y0060111D01*
X0247516Y0060036D01*
X0247472Y0059964D01*
X0247426Y0059893D01*
X0247376Y0059825D01*
X0247323Y0059760D01*
X0247267Y0059697D01*
X0247208Y0059636D01*
X0247146Y0059579D01*
X0247082Y0059524D01*
X0247015Y0059473D01*
X0246946Y0059424D01*
X0246874Y0059379D01*
X0246801Y0059338D01*
X0246726Y0059300D01*
X0246649Y0059265D01*
X0246570Y0059234D01*
X0246490Y0059207D01*
X0246409Y0059184D01*
X0246327Y0059164D01*
X0246244Y0059148D01*
X0246161Y0059136D01*
X0246076Y0059128D01*
X0245992Y0059124D01*
X0245908Y0059124D01*
X0245824Y0059128D01*
X0245739Y0059136D01*
X0245656Y0059148D01*
X0245573Y0059164D01*
X0245491Y0059184D01*
X0245410Y0059207D01*
X0245330Y0059234D01*
X0245251Y0059265D01*
X0245174Y0059300D01*
X0245099Y0059338D01*
X0245026Y0059379D01*
X0244954Y0059424D01*
X0244885Y0059473D01*
X0244818Y0059524D01*
X0244754Y0059579D01*
X0244692Y0059636D01*
X0244633Y0059697D01*
X0244577Y0059760D01*
X0244524Y0059825D01*
X0244474Y0059893D01*
X0244428Y0059964D01*
X0244384Y0060036D01*
X0244344Y0060111D01*
X0244308Y0060187D01*
X0244275Y0060265D01*
X0244246Y0060344D01*
X0244221Y0060424D01*
X0244199Y0060506D01*
X0244182Y0060588D01*
X0244168Y0060672D01*
X0244158Y0060755D01*
X0244152Y0060840D01*
X0244150Y0060924D01*
X0256164Y0044701D02*
X0262463Y0044701D01*
X0264038Y0043126D01*
X0264038Y0036827D01*
X0254589Y0036827D02*
X0254589Y0043126D01*
X0256164Y0044701D01*
X0254589Y0028953D02*
X0254589Y0021079D01*
X0264038Y0021079D01*
X0264038Y0028953D01*
X0276991Y0029583D02*
X0276991Y0023283D01*
X0278565Y0021709D01*
X0284865Y0021709D01*
X0286439Y0023283D01*
X0286439Y0029583D01*
X0290022Y0028953D02*
X0290022Y0021079D01*
X0299471Y0021079D01*
X0299471Y0028953D01*
X0299471Y0036827D02*
X0299471Y0043126D01*
X0297896Y0044701D01*
X0291597Y0044701D01*
X0290022Y0043126D01*
X0290022Y0036827D01*
X0286439Y0037457D02*
X0286439Y0045331D01*
X0276991Y0045331D01*
X0276991Y0037457D01*
X0292642Y0056737D02*
X0292642Y0074712D01*
X0307142Y0060924D02*
X0307144Y0061008D01*
X0307150Y0061093D01*
X0307160Y0061176D01*
X0307174Y0061260D01*
X0307191Y0061342D01*
X0307213Y0061424D01*
X0307238Y0061504D01*
X0307267Y0061583D01*
X0307300Y0061661D01*
X0307336Y0061737D01*
X0307376Y0061812D01*
X0307420Y0061884D01*
X0307466Y0061955D01*
X0307516Y0062023D01*
X0307569Y0062088D01*
X0307625Y0062151D01*
X0307684Y0062212D01*
X0307746Y0062269D01*
X0307810Y0062324D01*
X0307877Y0062375D01*
X0307946Y0062424D01*
X0308018Y0062469D01*
X0308091Y0062510D01*
X0308166Y0062548D01*
X0308243Y0062583D01*
X0308322Y0062614D01*
X0308402Y0062641D01*
X0308483Y0062664D01*
X0308565Y0062684D01*
X0308648Y0062700D01*
X0308731Y0062712D01*
X0308816Y0062720D01*
X0308900Y0062724D01*
X0308984Y0062724D01*
X0309068Y0062720D01*
X0309153Y0062712D01*
X0309236Y0062700D01*
X0309319Y0062684D01*
X0309401Y0062664D01*
X0309482Y0062641D01*
X0309562Y0062614D01*
X0309641Y0062583D01*
X0309718Y0062548D01*
X0309793Y0062510D01*
X0309866Y0062469D01*
X0309938Y0062424D01*
X0310007Y0062375D01*
X0310074Y0062324D01*
X0310138Y0062269D01*
X0310200Y0062212D01*
X0310259Y0062151D01*
X0310315Y0062088D01*
X0310368Y0062023D01*
X0310418Y0061955D01*
X0310464Y0061884D01*
X0310508Y0061812D01*
X0310548Y0061737D01*
X0310584Y0061661D01*
X0310617Y0061583D01*
X0310646Y0061504D01*
X0310671Y0061424D01*
X0310693Y0061342D01*
X0310710Y0061260D01*
X0310724Y0061176D01*
X0310734Y0061093D01*
X0310740Y0061008D01*
X0310742Y0060924D01*
X0310740Y0060840D01*
X0310734Y0060755D01*
X0310724Y0060672D01*
X0310710Y0060588D01*
X0310693Y0060506D01*
X0310671Y0060424D01*
X0310646Y0060344D01*
X0310617Y0060265D01*
X0310584Y0060187D01*
X0310548Y0060111D01*
X0310508Y0060036D01*
X0310464Y0059964D01*
X0310418Y0059893D01*
X0310368Y0059825D01*
X0310315Y0059760D01*
X0310259Y0059697D01*
X0310200Y0059636D01*
X0310138Y0059579D01*
X0310074Y0059524D01*
X0310007Y0059473D01*
X0309938Y0059424D01*
X0309866Y0059379D01*
X0309793Y0059338D01*
X0309718Y0059300D01*
X0309641Y0059265D01*
X0309562Y0059234D01*
X0309482Y0059207D01*
X0309401Y0059184D01*
X0309319Y0059164D01*
X0309236Y0059148D01*
X0309153Y0059136D01*
X0309068Y0059128D01*
X0308984Y0059124D01*
X0308900Y0059124D01*
X0308816Y0059128D01*
X0308731Y0059136D01*
X0308648Y0059148D01*
X0308565Y0059164D01*
X0308483Y0059184D01*
X0308402Y0059207D01*
X0308322Y0059234D01*
X0308243Y0059265D01*
X0308166Y0059300D01*
X0308091Y0059338D01*
X0308018Y0059379D01*
X0307946Y0059424D01*
X0307877Y0059473D01*
X0307810Y0059524D01*
X0307746Y0059579D01*
X0307684Y0059636D01*
X0307625Y0059697D01*
X0307569Y0059760D01*
X0307516Y0059825D01*
X0307466Y0059893D01*
X0307420Y0059964D01*
X0307376Y0060036D01*
X0307336Y0060111D01*
X0307300Y0060187D01*
X0307267Y0060265D01*
X0307238Y0060344D01*
X0307213Y0060424D01*
X0307191Y0060506D01*
X0307174Y0060588D01*
X0307160Y0060672D01*
X0307150Y0060755D01*
X0307144Y0060840D01*
X0307142Y0060924D01*
X0312442Y0056737D02*
X0312442Y0074712D01*
X0319156Y0044701D02*
X0325455Y0044701D01*
X0327030Y0043126D01*
X0327030Y0036827D01*
X0336046Y0037457D02*
X0336046Y0045331D01*
X0345494Y0045331D01*
X0345494Y0037457D01*
X0353014Y0036827D02*
X0353014Y0043126D01*
X0354589Y0044701D01*
X0360888Y0044701D01*
X0362463Y0043126D01*
X0362463Y0036827D01*
X0362463Y0028953D02*
X0362463Y0021079D01*
X0353014Y0021079D01*
X0353014Y0028953D01*
X0345494Y0029583D02*
X0345494Y0023283D01*
X0343920Y0021709D01*
X0337620Y0021709D01*
X0336046Y0023283D01*
X0336046Y0029583D01*
X0327030Y0028953D02*
X0327030Y0021079D01*
X0317581Y0021079D01*
X0317581Y0028953D01*
X0317581Y0036827D02*
X0317581Y0043126D01*
X0319156Y0044701D01*
X0355634Y0056737D02*
X0355634Y0074712D01*
X0370134Y0060924D02*
X0370136Y0061008D01*
X0370142Y0061093D01*
X0370152Y0061176D01*
X0370166Y0061260D01*
X0370183Y0061342D01*
X0370205Y0061424D01*
X0370230Y0061504D01*
X0370259Y0061583D01*
X0370292Y0061661D01*
X0370328Y0061737D01*
X0370368Y0061812D01*
X0370412Y0061884D01*
X0370458Y0061955D01*
X0370508Y0062023D01*
X0370561Y0062088D01*
X0370617Y0062151D01*
X0370676Y0062212D01*
X0370738Y0062269D01*
X0370802Y0062324D01*
X0370869Y0062375D01*
X0370938Y0062424D01*
X0371010Y0062469D01*
X0371083Y0062510D01*
X0371158Y0062548D01*
X0371235Y0062583D01*
X0371314Y0062614D01*
X0371394Y0062641D01*
X0371475Y0062664D01*
X0371557Y0062684D01*
X0371640Y0062700D01*
X0371723Y0062712D01*
X0371808Y0062720D01*
X0371892Y0062724D01*
X0371976Y0062724D01*
X0372060Y0062720D01*
X0372145Y0062712D01*
X0372228Y0062700D01*
X0372311Y0062684D01*
X0372393Y0062664D01*
X0372474Y0062641D01*
X0372554Y0062614D01*
X0372633Y0062583D01*
X0372710Y0062548D01*
X0372785Y0062510D01*
X0372858Y0062469D01*
X0372930Y0062424D01*
X0372999Y0062375D01*
X0373066Y0062324D01*
X0373130Y0062269D01*
X0373192Y0062212D01*
X0373251Y0062151D01*
X0373307Y0062088D01*
X0373360Y0062023D01*
X0373410Y0061955D01*
X0373456Y0061884D01*
X0373500Y0061812D01*
X0373540Y0061737D01*
X0373576Y0061661D01*
X0373609Y0061583D01*
X0373638Y0061504D01*
X0373663Y0061424D01*
X0373685Y0061342D01*
X0373702Y0061260D01*
X0373716Y0061176D01*
X0373726Y0061093D01*
X0373732Y0061008D01*
X0373734Y0060924D01*
X0373732Y0060840D01*
X0373726Y0060755D01*
X0373716Y0060672D01*
X0373702Y0060588D01*
X0373685Y0060506D01*
X0373663Y0060424D01*
X0373638Y0060344D01*
X0373609Y0060265D01*
X0373576Y0060187D01*
X0373540Y0060111D01*
X0373500Y0060036D01*
X0373456Y0059964D01*
X0373410Y0059893D01*
X0373360Y0059825D01*
X0373307Y0059760D01*
X0373251Y0059697D01*
X0373192Y0059636D01*
X0373130Y0059579D01*
X0373066Y0059524D01*
X0372999Y0059473D01*
X0372930Y0059424D01*
X0372858Y0059379D01*
X0372785Y0059338D01*
X0372710Y0059300D01*
X0372633Y0059265D01*
X0372554Y0059234D01*
X0372474Y0059207D01*
X0372393Y0059184D01*
X0372311Y0059164D01*
X0372228Y0059148D01*
X0372145Y0059136D01*
X0372060Y0059128D01*
X0371976Y0059124D01*
X0371892Y0059124D01*
X0371808Y0059128D01*
X0371723Y0059136D01*
X0371640Y0059148D01*
X0371557Y0059164D01*
X0371475Y0059184D01*
X0371394Y0059207D01*
X0371314Y0059234D01*
X0371235Y0059265D01*
X0371158Y0059300D01*
X0371083Y0059338D01*
X0371010Y0059379D01*
X0370938Y0059424D01*
X0370869Y0059473D01*
X0370802Y0059524D01*
X0370738Y0059579D01*
X0370676Y0059636D01*
X0370617Y0059697D01*
X0370561Y0059760D01*
X0370508Y0059825D01*
X0370458Y0059893D01*
X0370412Y0059964D01*
X0370368Y0060036D01*
X0370328Y0060111D01*
X0370292Y0060187D01*
X0370259Y0060265D01*
X0370230Y0060344D01*
X0370205Y0060424D01*
X0370183Y0060506D01*
X0370166Y0060588D01*
X0370152Y0060672D01*
X0370142Y0060755D01*
X0370136Y0060840D01*
X0370134Y0060924D01*
X0375434Y0056737D02*
X0375434Y0074712D01*
X0382148Y0044701D02*
X0388447Y0044701D01*
X0390022Y0043126D01*
X0390022Y0036827D01*
X0380573Y0036827D02*
X0380573Y0043126D01*
X0382148Y0044701D01*
X0380573Y0028953D02*
X0380573Y0021079D01*
X0390022Y0021079D01*
X0390022Y0028953D01*
X0368329Y0147457D02*
X0362030Y0147457D01*
X0360455Y0149031D01*
X0360455Y0155331D01*
X0360455Y0163205D02*
X0360455Y0171079D01*
X0369904Y0171079D01*
X0369904Y0163205D01*
X0369904Y0155331D02*
X0369904Y0149031D01*
X0368329Y0147457D01*
X0367896Y0198047D02*
X0360022Y0198047D01*
X0352148Y0198047D02*
X0345849Y0198047D01*
X0344274Y0199622D01*
X0344274Y0205921D01*
X0345849Y0207496D01*
X0352148Y0207496D01*
X0360022Y0207496D02*
X0367896Y0207496D01*
X0367896Y0198047D01*
X0370494Y0228441D02*
X0378369Y0228441D01*
X0370494Y0228441D02*
X0370494Y0237890D01*
X0378369Y0237890D01*
X0386243Y0237890D02*
X0392542Y0237890D01*
X0394117Y0236315D01*
X0394117Y0230016D01*
X0392542Y0228441D01*
X0386243Y0228441D01*
X0370219Y0247732D02*
X0363920Y0247732D01*
X0370219Y0247732D02*
X0371794Y0249307D01*
X0371794Y0255606D01*
X0370219Y0257181D01*
X0363920Y0257181D01*
X0356046Y0257181D02*
X0348172Y0257181D01*
X0348172Y0247732D01*
X0356046Y0247732D01*
X0351912Y0268126D02*
X0342463Y0268126D01*
X0342463Y0276000D01*
X0351912Y0276000D02*
X0351912Y0268126D01*
X0351912Y0283874D02*
X0351912Y0290173D01*
X0350337Y0291748D01*
X0344038Y0291748D01*
X0342463Y0290173D01*
X0342463Y0283874D01*
X0325613Y0288283D02*
X0324038Y0286709D01*
X0317739Y0286709D01*
X0316164Y0288283D01*
X0316164Y0294583D01*
X0316164Y0302457D02*
X0316164Y0310331D01*
X0325613Y0310331D01*
X0325613Y0302457D01*
X0325613Y0294583D02*
X0325613Y0288283D01*
X0304668Y0290173D02*
X0304668Y0283874D01*
X0304668Y0290173D02*
X0303093Y0291748D01*
X0296794Y0291748D01*
X0295219Y0290173D01*
X0295219Y0283874D01*
X0295219Y0276000D02*
X0295219Y0268126D01*
X0304668Y0268126D01*
X0304668Y0276000D01*
X0274431Y0288283D02*
X0272857Y0286709D01*
X0266557Y0286709D01*
X0264983Y0288283D01*
X0264983Y0294583D01*
X0264983Y0302457D02*
X0264983Y0310331D01*
X0274431Y0310331D01*
X0274431Y0302457D01*
X0274431Y0294583D02*
X0274431Y0288283D01*
X0253487Y0290173D02*
X0253487Y0283874D01*
X0253487Y0290173D02*
X0251912Y0291748D01*
X0245613Y0291748D01*
X0244038Y0290173D01*
X0244038Y0283874D01*
X0244038Y0276000D02*
X0244038Y0268126D01*
X0253487Y0268126D01*
X0253487Y0276000D01*
X0223250Y0288283D02*
X0221676Y0286709D01*
X0215376Y0286709D01*
X0213802Y0288283D01*
X0213802Y0294583D01*
X0213802Y0302457D02*
X0213802Y0310331D01*
X0223250Y0310331D01*
X0223250Y0302457D01*
X0223250Y0294583D02*
X0223250Y0288283D01*
X0202306Y0290173D02*
X0202306Y0283874D01*
X0202306Y0290173D02*
X0200731Y0291748D01*
X0194431Y0291748D01*
X0192857Y0290173D01*
X0192857Y0283874D01*
X0192857Y0276000D02*
X0192857Y0268126D01*
X0202306Y0268126D01*
X0202306Y0276000D01*
X0172069Y0288283D02*
X0170494Y0286709D01*
X0164195Y0286709D01*
X0162620Y0288283D01*
X0162620Y0294583D01*
X0162620Y0302457D02*
X0162620Y0310331D01*
X0172069Y0310331D01*
X0172069Y0302457D01*
X0172069Y0294583D02*
X0172069Y0288283D01*
X0147187Y0290173D02*
X0147187Y0283874D01*
X0147187Y0290173D02*
X0145613Y0291748D01*
X0139313Y0291748D01*
X0137739Y0290173D01*
X0137739Y0283874D01*
X0137739Y0276000D02*
X0137739Y0268126D01*
X0147187Y0268126D01*
X0147187Y0276000D01*
X0120888Y0288283D02*
X0120888Y0294583D01*
X0120888Y0288283D02*
X0119313Y0286709D01*
X0113014Y0286709D01*
X0111439Y0288283D01*
X0111439Y0294583D01*
X0111439Y0302457D02*
X0111439Y0310331D01*
X0120888Y0310331D01*
X0120888Y0302457D01*
X0099943Y0290173D02*
X0099943Y0283874D01*
X0099943Y0290173D02*
X0098369Y0291748D01*
X0092069Y0291748D01*
X0090494Y0290173D01*
X0090494Y0283874D01*
X0090494Y0276000D02*
X0090494Y0268126D01*
X0099943Y0268126D01*
X0099943Y0276000D01*
X0065770Y0288283D02*
X0064195Y0286709D01*
X0057896Y0286709D01*
X0056321Y0288283D01*
X0056321Y0294583D01*
X0056321Y0302457D02*
X0056321Y0310331D01*
X0065770Y0310331D01*
X0065770Y0302457D01*
X0065770Y0294583D02*
X0065770Y0288283D01*
X0064077Y0237890D02*
X0057778Y0237890D01*
X0064077Y0237890D02*
X0065652Y0236315D01*
X0065652Y0230016D01*
X0064077Y0228441D01*
X0057778Y0228441D01*
X0049904Y0228441D02*
X0042030Y0228441D01*
X0042030Y0237890D01*
X0049904Y0237890D01*
X0043093Y0207654D02*
X0035219Y0207654D01*
X0043093Y0207654D02*
X0043093Y0198205D01*
X0035219Y0198205D01*
X0027345Y0198205D02*
X0021046Y0198205D01*
X0019471Y0199780D01*
X0019471Y0206079D01*
X0021046Y0207654D01*
X0027345Y0207654D01*
X0045494Y0171079D02*
X0045494Y0163205D01*
X0045494Y0155331D02*
X0045494Y0149031D01*
X0047069Y0147457D01*
X0053369Y0147457D01*
X0054943Y0149031D01*
X0054943Y0155331D01*
X0054943Y0163205D02*
X0054943Y0171079D01*
X0045494Y0171079D01*
X0108487Y0171079D02*
X0108487Y0163205D01*
X0108487Y0155331D02*
X0108487Y0149031D01*
X0110061Y0147457D01*
X0116361Y0147457D01*
X0117935Y0149031D01*
X0117935Y0155331D01*
X0117935Y0163205D02*
X0117935Y0171079D01*
X0108487Y0171079D01*
X0171479Y0171079D02*
X0171479Y0163205D01*
X0171479Y0155331D02*
X0171479Y0149031D01*
X0173054Y0147457D01*
X0179353Y0147457D01*
X0180928Y0149031D01*
X0180928Y0155331D01*
X0180928Y0163205D02*
X0180928Y0171079D01*
X0171479Y0171079D01*
X0198232Y0216816D02*
X0198232Y0234791D01*
X0212732Y0221003D02*
X0212734Y0221087D01*
X0212740Y0221172D01*
X0212750Y0221255D01*
X0212764Y0221339D01*
X0212781Y0221421D01*
X0212803Y0221503D01*
X0212828Y0221583D01*
X0212857Y0221662D01*
X0212890Y0221740D01*
X0212926Y0221816D01*
X0212966Y0221891D01*
X0213010Y0221963D01*
X0213056Y0222034D01*
X0213106Y0222102D01*
X0213159Y0222167D01*
X0213215Y0222230D01*
X0213274Y0222291D01*
X0213336Y0222348D01*
X0213400Y0222403D01*
X0213467Y0222454D01*
X0213536Y0222503D01*
X0213608Y0222548D01*
X0213681Y0222589D01*
X0213756Y0222627D01*
X0213833Y0222662D01*
X0213912Y0222693D01*
X0213992Y0222720D01*
X0214073Y0222743D01*
X0214155Y0222763D01*
X0214238Y0222779D01*
X0214321Y0222791D01*
X0214406Y0222799D01*
X0214490Y0222803D01*
X0214574Y0222803D01*
X0214658Y0222799D01*
X0214743Y0222791D01*
X0214826Y0222779D01*
X0214909Y0222763D01*
X0214991Y0222743D01*
X0215072Y0222720D01*
X0215152Y0222693D01*
X0215231Y0222662D01*
X0215308Y0222627D01*
X0215383Y0222589D01*
X0215456Y0222548D01*
X0215528Y0222503D01*
X0215597Y0222454D01*
X0215664Y0222403D01*
X0215728Y0222348D01*
X0215790Y0222291D01*
X0215849Y0222230D01*
X0215905Y0222167D01*
X0215958Y0222102D01*
X0216008Y0222034D01*
X0216054Y0221963D01*
X0216098Y0221891D01*
X0216138Y0221816D01*
X0216174Y0221740D01*
X0216207Y0221662D01*
X0216236Y0221583D01*
X0216261Y0221503D01*
X0216283Y0221421D01*
X0216300Y0221339D01*
X0216314Y0221255D01*
X0216324Y0221172D01*
X0216330Y0221087D01*
X0216332Y0221003D01*
X0216330Y0220919D01*
X0216324Y0220834D01*
X0216314Y0220751D01*
X0216300Y0220667D01*
X0216283Y0220585D01*
X0216261Y0220503D01*
X0216236Y0220423D01*
X0216207Y0220344D01*
X0216174Y0220266D01*
X0216138Y0220190D01*
X0216098Y0220115D01*
X0216054Y0220043D01*
X0216008Y0219972D01*
X0215958Y0219904D01*
X0215905Y0219839D01*
X0215849Y0219776D01*
X0215790Y0219715D01*
X0215728Y0219658D01*
X0215664Y0219603D01*
X0215597Y0219552D01*
X0215528Y0219503D01*
X0215456Y0219458D01*
X0215383Y0219417D01*
X0215308Y0219379D01*
X0215231Y0219344D01*
X0215152Y0219313D01*
X0215072Y0219286D01*
X0214991Y0219263D01*
X0214909Y0219243D01*
X0214826Y0219227D01*
X0214743Y0219215D01*
X0214658Y0219207D01*
X0214574Y0219203D01*
X0214490Y0219203D01*
X0214406Y0219207D01*
X0214321Y0219215D01*
X0214238Y0219227D01*
X0214155Y0219243D01*
X0214073Y0219263D01*
X0213992Y0219286D01*
X0213912Y0219313D01*
X0213833Y0219344D01*
X0213756Y0219379D01*
X0213681Y0219417D01*
X0213608Y0219458D01*
X0213536Y0219503D01*
X0213467Y0219552D01*
X0213400Y0219603D01*
X0213336Y0219658D01*
X0213274Y0219715D01*
X0213215Y0219776D01*
X0213159Y0219839D01*
X0213106Y0219904D01*
X0213056Y0219972D01*
X0213010Y0220043D01*
X0212966Y0220115D01*
X0212926Y0220190D01*
X0212890Y0220266D01*
X0212857Y0220344D01*
X0212828Y0220423D01*
X0212803Y0220503D01*
X0212781Y0220585D01*
X0212764Y0220667D01*
X0212750Y0220751D01*
X0212740Y0220834D01*
X0212734Y0220919D01*
X0212732Y0221003D01*
X0218032Y0216816D02*
X0218032Y0234791D01*
X0234471Y0171079D02*
X0234471Y0163205D01*
X0234471Y0155331D02*
X0234471Y0149031D01*
X0236046Y0147457D01*
X0242345Y0147457D01*
X0243920Y0149031D01*
X0243920Y0155331D01*
X0243920Y0163205D02*
X0243920Y0171079D01*
X0234471Y0171079D01*
X0297463Y0171079D02*
X0297463Y0163205D01*
X0297463Y0155331D02*
X0297463Y0149031D01*
X0299038Y0147457D01*
X0305337Y0147457D01*
X0306912Y0149031D01*
X0306912Y0155331D01*
X0306912Y0163205D02*
X0306912Y0171079D01*
X0297463Y0171079D01*
D11*
X0298187Y0157768D02*
X0306187Y0157768D01*
X0354585Y0198772D02*
X0354585Y0206772D01*
X0383806Y0229165D02*
X0383806Y0237165D01*
X0361483Y0248457D02*
X0361483Y0256457D01*
X0351187Y0281437D02*
X0343187Y0281437D01*
X0324888Y0297020D02*
X0316888Y0297020D01*
X0303943Y0281437D02*
X0295943Y0281437D01*
X0273707Y0297020D02*
X0265707Y0297020D01*
X0252762Y0281437D02*
X0244762Y0281437D01*
X0222526Y0297020D02*
X0214526Y0297020D01*
X0201581Y0281437D02*
X0193581Y0281437D01*
X0171345Y0297020D02*
X0163345Y0297020D01*
X0146463Y0281437D02*
X0138463Y0281437D01*
X0120164Y0297020D02*
X0112164Y0297020D01*
X0099219Y0281437D02*
X0091219Y0281437D01*
X0065046Y0297020D02*
X0057046Y0297020D01*
X0055341Y0237165D02*
X0055341Y0229165D01*
X0029782Y0206929D02*
X0029782Y0198929D01*
X0046219Y0157768D02*
X0054219Y0157768D01*
X0109211Y0157768D02*
X0117211Y0157768D01*
X0172203Y0157768D02*
X0180203Y0157768D01*
X0235195Y0157768D02*
X0243195Y0157768D01*
X0361180Y0157768D02*
X0369180Y0157768D01*
X0361739Y0034390D02*
X0353739Y0034390D01*
X0344770Y0032020D02*
X0336770Y0032020D01*
X0326306Y0034390D02*
X0318306Y0034390D01*
X0298746Y0034390D02*
X0290746Y0034390D01*
X0285715Y0032020D02*
X0277715Y0032020D01*
X0263313Y0034390D02*
X0255313Y0034390D01*
X0235754Y0034390D02*
X0227754Y0034390D01*
X0218786Y0032020D02*
X0210786Y0032020D01*
X0200321Y0034390D02*
X0192321Y0034390D01*
X0172762Y0034390D02*
X0164762Y0034390D01*
X0155794Y0032020D02*
X0147794Y0032020D01*
X0137329Y0034390D02*
X0129329Y0034390D01*
X0109770Y0034390D02*
X0101770Y0034390D01*
X0096739Y0032020D02*
X0088739Y0032020D01*
X0074337Y0034390D02*
X0066337Y0034390D01*
X0046778Y0034390D02*
X0038778Y0034390D01*
X0029809Y0032020D02*
X0021809Y0032020D01*
X0381298Y0034390D02*
X0389298Y0034390D01*
D12*
X0390592Y0034546D02*
X0390592Y0035547D01*
X0390592Y0035046D02*
X0392093Y0035046D01*
X0391593Y0034546D01*
X0391843Y0036019D02*
X0392093Y0036270D01*
X0392093Y0036770D01*
X0391843Y0037020D01*
X0390842Y0036019D01*
X0390592Y0036270D01*
X0390592Y0036770D01*
X0390842Y0037020D01*
X0391843Y0037020D01*
X0391593Y0037493D02*
X0390842Y0037493D01*
X0390592Y0037743D01*
X0390592Y0038493D01*
X0391593Y0038493D01*
X0391342Y0038966D02*
X0391342Y0039466D01*
X0390592Y0038966D02*
X0392093Y0038966D01*
X0392093Y0039967D01*
X0391843Y0036019D02*
X0390842Y0036019D01*
X0391035Y0026887D02*
X0390785Y0026637D01*
X0390785Y0026136D01*
X0391035Y0025886D01*
X0391285Y0025886D01*
X0391535Y0026136D01*
X0391535Y0026637D01*
X0391285Y0026887D01*
X0391035Y0026887D01*
X0391535Y0026637D02*
X0391785Y0026887D01*
X0392036Y0026887D01*
X0392286Y0026637D01*
X0392286Y0026136D01*
X0392036Y0025886D01*
X0391785Y0025886D01*
X0391535Y0026136D01*
X0391535Y0025414D02*
X0391035Y0025414D01*
X0390785Y0025164D01*
X0390785Y0024663D01*
X0391035Y0024413D01*
X0391035Y0023941D02*
X0390785Y0023690D01*
X0390785Y0023190D01*
X0391035Y0022940D01*
X0392036Y0022940D01*
X0392286Y0023190D01*
X0392286Y0023690D01*
X0392036Y0023941D01*
X0392286Y0024413D02*
X0391535Y0024413D01*
X0391785Y0024913D01*
X0391785Y0025164D01*
X0391535Y0025414D01*
X0392286Y0025414D02*
X0392286Y0024413D01*
X0376896Y0025148D02*
X0376896Y0025899D01*
X0376646Y0026149D01*
X0376146Y0026149D01*
X0375895Y0025899D01*
X0375895Y0025148D01*
X0375395Y0025148D02*
X0376896Y0025148D01*
X0375895Y0025649D02*
X0375395Y0026149D01*
X0375645Y0026622D02*
X0375395Y0026872D01*
X0375395Y0027372D01*
X0375645Y0027623D01*
X0375895Y0027623D01*
X0376146Y0027372D01*
X0376146Y0026622D01*
X0375645Y0026622D01*
X0376146Y0026622D02*
X0376646Y0027122D01*
X0376896Y0027623D01*
X0376646Y0028095D02*
X0376396Y0028095D01*
X0376146Y0028345D01*
X0376146Y0028846D01*
X0375895Y0029096D01*
X0375645Y0029096D01*
X0375395Y0028846D01*
X0375395Y0028345D01*
X0375645Y0028095D01*
X0375895Y0028095D01*
X0376146Y0028345D01*
X0376146Y0028846D02*
X0376396Y0029096D01*
X0376646Y0029096D01*
X0376896Y0028846D01*
X0376896Y0028345D01*
X0376646Y0028095D01*
X0369396Y0027595D02*
X0367895Y0027595D01*
X0368395Y0027595D02*
X0368896Y0028346D01*
X0368395Y0027595D02*
X0367895Y0028346D01*
X0368145Y0027123D02*
X0367895Y0026872D01*
X0367895Y0026372D01*
X0368145Y0026122D01*
X0369146Y0027123D01*
X0368145Y0027123D01*
X0369146Y0027123D02*
X0369396Y0026872D01*
X0369396Y0026372D01*
X0369146Y0026122D01*
X0368145Y0026122D01*
X0367895Y0025649D02*
X0367895Y0024648D01*
X0367895Y0025149D02*
X0369396Y0025149D01*
X0368896Y0024648D01*
X0364727Y0024413D02*
X0363976Y0024413D01*
X0364226Y0024913D01*
X0364226Y0025164D01*
X0363976Y0025414D01*
X0363476Y0025414D01*
X0363226Y0025164D01*
X0363226Y0024663D01*
X0363476Y0024413D01*
X0363476Y0023941D02*
X0363226Y0023690D01*
X0363226Y0023190D01*
X0363476Y0022940D01*
X0364477Y0022940D01*
X0364727Y0023190D01*
X0364727Y0023690D01*
X0364477Y0023941D01*
X0364727Y0024413D02*
X0364727Y0025414D01*
X0364477Y0025886D02*
X0364226Y0025886D01*
X0363976Y0026136D01*
X0363976Y0026887D01*
X0363476Y0026887D02*
X0364477Y0026887D01*
X0364727Y0026637D01*
X0364727Y0026136D01*
X0364477Y0025886D01*
X0363476Y0025886D02*
X0363226Y0026136D01*
X0363226Y0026637D01*
X0363476Y0026887D01*
X0363033Y0034546D02*
X0363033Y0035547D01*
X0363033Y0035046D02*
X0364534Y0035046D01*
X0364034Y0034546D01*
X0364284Y0036019D02*
X0364534Y0036270D01*
X0364534Y0036770D01*
X0364284Y0037020D01*
X0363283Y0036019D01*
X0363033Y0036270D01*
X0363033Y0036770D01*
X0363283Y0037020D01*
X0364284Y0037020D01*
X0364034Y0037493D02*
X0363283Y0037493D01*
X0363033Y0037743D01*
X0363033Y0038493D01*
X0364034Y0038493D01*
X0363783Y0038966D02*
X0363783Y0039466D01*
X0363033Y0038966D02*
X0364534Y0038966D01*
X0364534Y0039967D01*
X0364284Y0036019D02*
X0363283Y0036019D01*
X0335477Y0031491D02*
X0335477Y0030490D01*
X0333976Y0030490D01*
X0333976Y0030018D02*
X0334977Y0030018D01*
X0334727Y0030490D02*
X0334727Y0030991D01*
X0333976Y0030018D02*
X0333976Y0029267D01*
X0334226Y0029017D01*
X0334977Y0029017D01*
X0335227Y0028544D02*
X0334226Y0027544D01*
X0333976Y0027794D01*
X0333976Y0028294D01*
X0334226Y0028544D01*
X0335227Y0028544D01*
X0335477Y0028294D01*
X0335477Y0027794D01*
X0335227Y0027544D01*
X0334226Y0027544D01*
X0333976Y0027071D02*
X0333976Y0026070D01*
X0333976Y0026571D02*
X0335477Y0026571D01*
X0334977Y0026070D01*
X0329294Y0026136D02*
X0329044Y0025886D01*
X0329294Y0026136D02*
X0329294Y0026637D01*
X0329044Y0026887D01*
X0328793Y0026887D01*
X0327793Y0025886D01*
X0327793Y0026887D01*
X0328043Y0025414D02*
X0327793Y0025164D01*
X0327793Y0024663D01*
X0328043Y0024413D01*
X0328043Y0023941D02*
X0327793Y0023690D01*
X0327793Y0023190D01*
X0328043Y0022940D01*
X0329044Y0022940D01*
X0329294Y0023190D01*
X0329294Y0023690D01*
X0329044Y0023941D01*
X0329294Y0024413D02*
X0328543Y0024413D01*
X0328793Y0024913D01*
X0328793Y0025164D01*
X0328543Y0025414D01*
X0328043Y0025414D01*
X0329294Y0025414D02*
X0329294Y0024413D01*
X0328600Y0034546D02*
X0329101Y0035046D01*
X0327600Y0035046D01*
X0327600Y0034546D02*
X0327600Y0035547D01*
X0327850Y0036019D02*
X0328851Y0037020D01*
X0327850Y0037020D01*
X0327600Y0036770D01*
X0327600Y0036270D01*
X0327850Y0036019D01*
X0328851Y0036019D01*
X0329101Y0036270D01*
X0329101Y0036770D01*
X0328851Y0037020D01*
X0328600Y0037493D02*
X0327850Y0037493D01*
X0327600Y0037743D01*
X0327600Y0038493D01*
X0328600Y0038493D01*
X0328350Y0038966D02*
X0328350Y0039466D01*
X0327600Y0038966D02*
X0329101Y0038966D01*
X0329101Y0039967D01*
X0333783Y0039901D02*
X0334033Y0040151D01*
X0333783Y0039901D02*
X0333783Y0039400D01*
X0334033Y0039150D01*
X0335034Y0039150D01*
X0335284Y0039400D01*
X0335284Y0039901D01*
X0335034Y0040151D01*
X0335284Y0040623D02*
X0334534Y0040623D01*
X0334784Y0041124D01*
X0334784Y0041374D01*
X0334534Y0041624D01*
X0334033Y0041624D01*
X0333783Y0041374D01*
X0333783Y0040873D01*
X0334033Y0040623D01*
X0335284Y0040623D02*
X0335284Y0041624D01*
X0335284Y0042096D02*
X0334534Y0042096D01*
X0334784Y0042597D01*
X0334784Y0042847D01*
X0334534Y0043097D01*
X0334033Y0043097D01*
X0333783Y0042847D01*
X0333783Y0042347D01*
X0334033Y0042096D01*
X0335284Y0042096D02*
X0335284Y0043097D01*
X0313904Y0028846D02*
X0313654Y0029096D01*
X0312653Y0028095D01*
X0312403Y0028345D01*
X0312403Y0028846D01*
X0312653Y0029096D01*
X0313654Y0029096D01*
X0313904Y0028846D02*
X0313904Y0028345D01*
X0313654Y0028095D01*
X0312653Y0028095D01*
X0312653Y0027623D02*
X0312903Y0027623D01*
X0313153Y0027372D01*
X0313153Y0026622D01*
X0312653Y0026622D01*
X0312403Y0026872D01*
X0312403Y0027372D01*
X0312653Y0027623D01*
X0313153Y0026622D02*
X0313654Y0027122D01*
X0313904Y0027623D01*
X0313654Y0026149D02*
X0313153Y0026149D01*
X0312903Y0025899D01*
X0312903Y0025148D01*
X0312403Y0025148D02*
X0313904Y0025148D01*
X0313904Y0025899D01*
X0313654Y0026149D01*
X0312903Y0025649D02*
X0312403Y0026149D01*
X0306404Y0026372D02*
X0306404Y0026872D01*
X0306154Y0027123D01*
X0305153Y0026122D01*
X0304903Y0026372D01*
X0304903Y0026872D01*
X0305153Y0027123D01*
X0306154Y0027123D01*
X0306404Y0027595D02*
X0304903Y0027595D01*
X0305403Y0027595D02*
X0305904Y0028346D01*
X0305403Y0027595D02*
X0304903Y0028346D01*
X0305153Y0026122D02*
X0306154Y0026122D01*
X0306404Y0026372D01*
X0306404Y0025149D02*
X0304903Y0025149D01*
X0304903Y0025649D02*
X0304903Y0024648D01*
X0305904Y0024648D02*
X0306404Y0025149D01*
X0301735Y0025414D02*
X0301735Y0024413D01*
X0300984Y0024413D01*
X0301234Y0024913D01*
X0301234Y0025164D01*
X0300984Y0025414D01*
X0300484Y0025414D01*
X0300233Y0025164D01*
X0300233Y0024663D01*
X0300484Y0024413D01*
X0300484Y0023941D02*
X0300233Y0023690D01*
X0300233Y0023190D01*
X0300484Y0022940D01*
X0301485Y0022940D01*
X0301735Y0023190D01*
X0301735Y0023690D01*
X0301485Y0023941D01*
X0301485Y0025886D02*
X0301735Y0026136D01*
X0301735Y0026637D01*
X0301485Y0026887D01*
X0301234Y0026887D01*
X0300984Y0026637D01*
X0300734Y0026887D01*
X0300484Y0026887D01*
X0300233Y0026637D01*
X0300233Y0026136D01*
X0300484Y0025886D01*
X0300984Y0026387D02*
X0300984Y0026637D01*
X0301041Y0034546D02*
X0301542Y0035046D01*
X0300041Y0035046D01*
X0300041Y0034546D02*
X0300041Y0035547D01*
X0300291Y0036019D02*
X0301292Y0037020D01*
X0300291Y0037020D01*
X0300041Y0036770D01*
X0300041Y0036270D01*
X0300291Y0036019D01*
X0301292Y0036019D01*
X0301542Y0036270D01*
X0301542Y0036770D01*
X0301292Y0037020D01*
X0301041Y0037493D02*
X0300291Y0037493D01*
X0300041Y0037743D01*
X0300041Y0038493D01*
X0301041Y0038493D01*
X0300791Y0038966D02*
X0300791Y0039466D01*
X0300041Y0038966D02*
X0301542Y0038966D01*
X0301542Y0039967D01*
X0276229Y0039901D02*
X0276229Y0039400D01*
X0275979Y0039150D01*
X0274978Y0039150D01*
X0274728Y0039400D01*
X0274728Y0039901D01*
X0274978Y0040151D01*
X0275479Y0040623D02*
X0275479Y0041624D01*
X0275729Y0042096D02*
X0275479Y0042347D01*
X0275479Y0043097D01*
X0275979Y0043097D02*
X0276229Y0042847D01*
X0276229Y0042347D01*
X0275979Y0042096D01*
X0275729Y0042096D01*
X0274978Y0042096D02*
X0274728Y0042347D01*
X0274728Y0042847D01*
X0274978Y0043097D01*
X0275979Y0043097D01*
X0276229Y0041374D02*
X0275479Y0040623D01*
X0275979Y0040151D02*
X0276229Y0039901D01*
X0276229Y0041374D02*
X0274728Y0041374D01*
X0266109Y0039967D02*
X0266109Y0038966D01*
X0264607Y0038966D01*
X0264607Y0038493D02*
X0265608Y0038493D01*
X0265358Y0038966D02*
X0265358Y0039466D01*
X0264607Y0038493D02*
X0264607Y0037743D01*
X0264858Y0037493D01*
X0265608Y0037493D01*
X0265859Y0037020D02*
X0264858Y0036019D01*
X0264607Y0036270D01*
X0264607Y0036770D01*
X0264858Y0037020D01*
X0265859Y0037020D01*
X0266109Y0036770D01*
X0266109Y0036270D01*
X0265859Y0036019D01*
X0264858Y0036019D01*
X0264607Y0035547D02*
X0264607Y0034546D01*
X0264607Y0035046D02*
X0266109Y0035046D01*
X0265608Y0034546D01*
X0265301Y0026887D02*
X0265551Y0026637D01*
X0265551Y0025886D01*
X0265051Y0025886D01*
X0264800Y0026136D01*
X0264800Y0026637D01*
X0265051Y0026887D01*
X0265301Y0026887D01*
X0266051Y0026387D02*
X0266302Y0026887D01*
X0266051Y0026387D02*
X0265551Y0025886D01*
X0265551Y0025414D02*
X0265551Y0024413D01*
X0266302Y0025164D01*
X0264800Y0025164D01*
X0265051Y0023941D02*
X0264800Y0023690D01*
X0264800Y0023190D01*
X0265051Y0022940D01*
X0266051Y0022940D01*
X0266302Y0023190D01*
X0266302Y0023690D01*
X0266051Y0023941D01*
X0274921Y0026070D02*
X0274921Y0027071D01*
X0274921Y0026571D02*
X0276422Y0026571D01*
X0275922Y0026070D01*
X0276172Y0027544D02*
X0276422Y0027794D01*
X0276422Y0028294D01*
X0276172Y0028544D01*
X0275171Y0027544D01*
X0274921Y0027794D01*
X0274921Y0028294D01*
X0275171Y0028544D01*
X0276172Y0028544D01*
X0275922Y0029017D02*
X0275171Y0029017D01*
X0274921Y0029267D01*
X0274921Y0030018D01*
X0275922Y0030018D01*
X0275672Y0030490D02*
X0275672Y0030991D01*
X0276422Y0030490D02*
X0276422Y0031491D01*
X0276422Y0030490D02*
X0274921Y0030490D01*
X0275171Y0027544D02*
X0276172Y0027544D01*
X0250912Y0027623D02*
X0250912Y0026622D01*
X0250161Y0026622D01*
X0250411Y0027122D01*
X0250411Y0027372D01*
X0250161Y0027623D01*
X0249661Y0027623D01*
X0249411Y0027372D01*
X0249411Y0026872D01*
X0249661Y0026622D01*
X0249411Y0026149D02*
X0249911Y0025649D01*
X0249911Y0025899D02*
X0249911Y0025148D01*
X0249411Y0025148D02*
X0250912Y0025148D01*
X0250912Y0025899D01*
X0250662Y0026149D01*
X0250161Y0026149D01*
X0249911Y0025899D01*
X0249411Y0028095D02*
X0250411Y0029096D01*
X0250662Y0029096D01*
X0250912Y0028846D01*
X0250912Y0028345D01*
X0250662Y0028095D01*
X0249411Y0028095D02*
X0249411Y0029096D01*
X0243412Y0027595D02*
X0241911Y0027595D01*
X0242411Y0027595D02*
X0242911Y0028346D01*
X0242411Y0027595D02*
X0241911Y0028346D01*
X0242161Y0027123D02*
X0241911Y0026872D01*
X0241911Y0026372D01*
X0242161Y0026122D01*
X0243162Y0027123D01*
X0242161Y0027123D01*
X0243162Y0027123D02*
X0243412Y0026872D01*
X0243412Y0026372D01*
X0243162Y0026122D01*
X0242161Y0026122D01*
X0241911Y0025649D02*
X0241911Y0024648D01*
X0241911Y0025149D02*
X0243412Y0025149D01*
X0242911Y0024648D01*
X0238743Y0025164D02*
X0237992Y0024413D01*
X0237992Y0025414D01*
X0237492Y0025886D02*
X0237241Y0025886D01*
X0237492Y0025886D02*
X0238492Y0026887D01*
X0238743Y0026887D01*
X0238743Y0025886D01*
X0238743Y0025164D02*
X0237241Y0025164D01*
X0237492Y0023941D02*
X0237241Y0023690D01*
X0237241Y0023190D01*
X0237492Y0022940D01*
X0238492Y0022940D01*
X0238743Y0023190D01*
X0238743Y0023690D01*
X0238492Y0023941D01*
X0238049Y0034546D02*
X0238550Y0035046D01*
X0237048Y0035046D01*
X0237048Y0034546D02*
X0237048Y0035547D01*
X0237299Y0036019D02*
X0237048Y0036270D01*
X0237048Y0036770D01*
X0237299Y0037020D01*
X0238299Y0037020D01*
X0237299Y0036019D01*
X0238299Y0036019D01*
X0238550Y0036270D01*
X0238550Y0036770D01*
X0238299Y0037020D01*
X0238049Y0037493D02*
X0237299Y0037493D01*
X0237048Y0037743D01*
X0237048Y0038493D01*
X0238049Y0038493D01*
X0237799Y0038966D02*
X0237799Y0039466D01*
X0237048Y0038966D02*
X0238550Y0038966D01*
X0238550Y0039967D01*
X0209300Y0039901D02*
X0209300Y0039400D01*
X0209050Y0039150D01*
X0208049Y0039150D01*
X0207799Y0039400D01*
X0207799Y0039901D01*
X0208049Y0040151D01*
X0208549Y0040623D02*
X0208549Y0041624D01*
X0208049Y0042096D02*
X0207799Y0042347D01*
X0207799Y0042847D01*
X0208049Y0043097D01*
X0208299Y0043097D01*
X0208549Y0042847D01*
X0208549Y0042597D01*
X0208549Y0042847D02*
X0208800Y0043097D01*
X0209050Y0043097D01*
X0209300Y0042847D01*
X0209300Y0042347D01*
X0209050Y0042096D01*
X0209300Y0041374D02*
X0208549Y0040623D01*
X0209050Y0040151D02*
X0209300Y0039901D01*
X0209300Y0041374D02*
X0207799Y0041374D01*
X0203117Y0039967D02*
X0203117Y0038966D01*
X0201615Y0038966D01*
X0201615Y0038493D02*
X0202616Y0038493D01*
X0202366Y0038966D02*
X0202366Y0039466D01*
X0201615Y0038493D02*
X0201615Y0037743D01*
X0201866Y0037493D01*
X0202616Y0037493D01*
X0202866Y0037020D02*
X0201866Y0036019D01*
X0201615Y0036270D01*
X0201615Y0036770D01*
X0201866Y0037020D01*
X0202866Y0037020D01*
X0203117Y0036770D01*
X0203117Y0036270D01*
X0202866Y0036019D01*
X0201866Y0036019D01*
X0201615Y0035547D02*
X0201615Y0034546D01*
X0201615Y0035046D02*
X0203117Y0035046D01*
X0202616Y0034546D01*
X0207992Y0030490D02*
X0209493Y0030490D01*
X0209493Y0031491D01*
X0208742Y0030991D02*
X0208742Y0030490D01*
X0208993Y0030018D02*
X0207992Y0030018D01*
X0207992Y0029267D01*
X0208242Y0029017D01*
X0208993Y0029017D01*
X0209243Y0028544D02*
X0208242Y0027544D01*
X0207992Y0027794D01*
X0207992Y0028294D01*
X0208242Y0028544D01*
X0209243Y0028544D01*
X0209493Y0028294D01*
X0209493Y0027794D01*
X0209243Y0027544D01*
X0208242Y0027544D01*
X0207992Y0027071D02*
X0207992Y0026070D01*
X0207992Y0026571D02*
X0209493Y0026571D01*
X0208993Y0026070D01*
X0203310Y0026136D02*
X0203310Y0026637D01*
X0203059Y0026887D01*
X0202809Y0026887D01*
X0202559Y0026637D01*
X0202559Y0026136D01*
X0202809Y0025886D01*
X0203059Y0025886D01*
X0203310Y0026136D01*
X0202559Y0026136D02*
X0202309Y0025886D01*
X0202058Y0025886D01*
X0201808Y0026136D01*
X0201808Y0026637D01*
X0202058Y0026887D01*
X0202309Y0026887D01*
X0202559Y0026637D01*
X0202809Y0025414D02*
X0203059Y0025414D01*
X0203310Y0025164D01*
X0203310Y0024663D01*
X0203059Y0024413D01*
X0203059Y0023941D02*
X0203310Y0023690D01*
X0203310Y0023190D01*
X0203059Y0022940D01*
X0202058Y0022940D01*
X0201808Y0023190D01*
X0201808Y0023690D01*
X0202058Y0023941D01*
X0201808Y0024413D02*
X0202809Y0025414D01*
X0201808Y0025414D02*
X0201808Y0024413D01*
X0187920Y0025148D02*
X0187920Y0025899D01*
X0187670Y0026149D01*
X0187169Y0026149D01*
X0186919Y0025899D01*
X0186919Y0025148D01*
X0186419Y0025148D02*
X0187920Y0025148D01*
X0186919Y0025649D02*
X0186419Y0026149D01*
X0186419Y0026622D02*
X0187419Y0027623D01*
X0187670Y0027623D01*
X0187920Y0027372D01*
X0187920Y0026872D01*
X0187670Y0026622D01*
X0186419Y0026622D02*
X0186419Y0027623D01*
X0186669Y0028095D02*
X0186919Y0028095D01*
X0187169Y0028345D01*
X0187169Y0028846D01*
X0186919Y0029096D01*
X0186669Y0029096D01*
X0186419Y0028846D01*
X0186419Y0028345D01*
X0186669Y0028095D01*
X0187169Y0028345D02*
X0187419Y0028095D01*
X0187670Y0028095D01*
X0187920Y0028345D01*
X0187920Y0028846D01*
X0187670Y0029096D01*
X0187419Y0029096D01*
X0187169Y0028846D01*
X0180420Y0027595D02*
X0178919Y0027595D01*
X0179419Y0027595D02*
X0178919Y0028346D01*
X0179419Y0027595D02*
X0179919Y0028346D01*
X0180170Y0027123D02*
X0179169Y0026122D01*
X0178919Y0026372D01*
X0178919Y0026872D01*
X0179169Y0027123D01*
X0180170Y0027123D01*
X0180420Y0026872D01*
X0180420Y0026372D01*
X0180170Y0026122D01*
X0179169Y0026122D01*
X0178919Y0025649D02*
X0178919Y0024648D01*
X0178919Y0025149D02*
X0180420Y0025149D01*
X0179919Y0024648D01*
X0175750Y0024663D02*
X0175500Y0024413D01*
X0175750Y0024663D02*
X0175750Y0025164D01*
X0175500Y0025414D01*
X0175250Y0025414D01*
X0174249Y0024413D01*
X0174249Y0025414D01*
X0174499Y0025886D02*
X0174249Y0026136D01*
X0174249Y0026637D01*
X0174499Y0026887D01*
X0175500Y0026887D01*
X0175750Y0026637D01*
X0175750Y0026136D01*
X0175500Y0025886D01*
X0175250Y0025886D01*
X0175000Y0026136D01*
X0175000Y0026887D01*
X0175500Y0023941D02*
X0175750Y0023690D01*
X0175750Y0023190D01*
X0175500Y0022940D01*
X0174499Y0022940D01*
X0174249Y0023190D01*
X0174249Y0023690D01*
X0174499Y0023941D01*
X0174056Y0034546D02*
X0174056Y0035547D01*
X0174056Y0035046D02*
X0175558Y0035046D01*
X0175057Y0034546D01*
X0175307Y0036019D02*
X0175558Y0036270D01*
X0175558Y0036770D01*
X0175307Y0037020D01*
X0174307Y0036019D01*
X0174056Y0036270D01*
X0174056Y0036770D01*
X0174307Y0037020D01*
X0175307Y0037020D01*
X0175057Y0037493D02*
X0174307Y0037493D01*
X0174056Y0037743D01*
X0174056Y0038493D01*
X0175057Y0038493D01*
X0174807Y0038966D02*
X0174807Y0039466D01*
X0174056Y0038966D02*
X0175558Y0038966D01*
X0175558Y0039967D01*
X0175307Y0036019D02*
X0174307Y0036019D01*
X0146501Y0031491D02*
X0146501Y0030490D01*
X0145000Y0030490D01*
X0145000Y0030018D02*
X0146000Y0030018D01*
X0145750Y0030490D02*
X0145750Y0030991D01*
X0145000Y0030018D02*
X0145000Y0029267D01*
X0145250Y0029017D01*
X0146000Y0029017D01*
X0146251Y0028544D02*
X0145250Y0027544D01*
X0145000Y0027794D01*
X0145000Y0028294D01*
X0145250Y0028544D01*
X0146251Y0028544D01*
X0146501Y0028294D01*
X0146501Y0027794D01*
X0146251Y0027544D01*
X0145250Y0027544D01*
X0145000Y0027071D02*
X0145000Y0026070D01*
X0145000Y0026571D02*
X0146501Y0026571D01*
X0146000Y0026070D01*
X0140317Y0026136D02*
X0140067Y0025886D01*
X0140317Y0026136D02*
X0140317Y0026637D01*
X0140067Y0026887D01*
X0139817Y0026887D01*
X0138816Y0025886D01*
X0138816Y0026887D01*
X0138816Y0025414D02*
X0138816Y0024413D01*
X0139817Y0025414D01*
X0140067Y0025414D01*
X0140317Y0025164D01*
X0140317Y0024663D01*
X0140067Y0024413D01*
X0140067Y0023941D02*
X0140317Y0023690D01*
X0140317Y0023190D01*
X0140067Y0022940D01*
X0139066Y0022940D01*
X0138816Y0023190D01*
X0138816Y0023690D01*
X0139066Y0023941D01*
X0138623Y0034546D02*
X0138623Y0035547D01*
X0138623Y0035046D02*
X0140125Y0035046D01*
X0139624Y0034546D01*
X0139874Y0036019D02*
X0140125Y0036270D01*
X0140125Y0036770D01*
X0139874Y0037020D01*
X0138873Y0036019D01*
X0138623Y0036270D01*
X0138623Y0036770D01*
X0138873Y0037020D01*
X0139874Y0037020D01*
X0139624Y0037493D02*
X0138873Y0037493D01*
X0138623Y0037743D01*
X0138623Y0038493D01*
X0139624Y0038493D01*
X0139374Y0038966D02*
X0139374Y0039466D01*
X0140125Y0038966D02*
X0140125Y0039967D01*
X0140125Y0038966D02*
X0138623Y0038966D01*
X0138873Y0036019D02*
X0139874Y0036019D01*
X0144807Y0039400D02*
X0144807Y0039901D01*
X0145057Y0040151D01*
X0144807Y0040623D02*
X0145808Y0041624D01*
X0146058Y0041624D01*
X0146308Y0041374D01*
X0146308Y0040873D01*
X0146058Y0040623D01*
X0146058Y0040151D02*
X0146308Y0039901D01*
X0146308Y0039400D01*
X0146058Y0039150D01*
X0145057Y0039150D01*
X0144807Y0039400D01*
X0144807Y0040623D02*
X0144807Y0041624D01*
X0145057Y0042096D02*
X0144807Y0042347D01*
X0144807Y0042847D01*
X0145057Y0043097D01*
X0145557Y0043097D01*
X0145808Y0042847D01*
X0145808Y0042597D01*
X0145557Y0042096D01*
X0146308Y0042096D01*
X0146308Y0043097D01*
X0124928Y0028846D02*
X0124677Y0029096D01*
X0123677Y0028095D01*
X0123426Y0028345D01*
X0123426Y0028846D01*
X0123677Y0029096D01*
X0124677Y0029096D01*
X0124928Y0028846D02*
X0124928Y0028345D01*
X0124677Y0028095D01*
X0123677Y0028095D01*
X0123426Y0027623D02*
X0123426Y0026622D01*
X0124427Y0027623D01*
X0124677Y0027623D01*
X0124928Y0027372D01*
X0124928Y0026872D01*
X0124677Y0026622D01*
X0124677Y0026149D02*
X0124177Y0026149D01*
X0123927Y0025899D01*
X0123927Y0025148D01*
X0123426Y0025148D02*
X0124928Y0025148D01*
X0124928Y0025899D01*
X0124677Y0026149D01*
X0123927Y0025649D02*
X0123426Y0026149D01*
X0117428Y0026372D02*
X0117428Y0026872D01*
X0117177Y0027123D01*
X0116177Y0026122D01*
X0115926Y0026372D01*
X0115926Y0026872D01*
X0116177Y0027123D01*
X0117177Y0027123D01*
X0117428Y0027595D02*
X0115926Y0027595D01*
X0116427Y0027595D02*
X0116927Y0028346D01*
X0116427Y0027595D02*
X0115926Y0028346D01*
X0116177Y0026122D02*
X0117177Y0026122D01*
X0117428Y0026372D01*
X0117428Y0025149D02*
X0115926Y0025149D01*
X0115926Y0025649D02*
X0115926Y0024648D01*
X0116927Y0024648D02*
X0117428Y0025149D01*
X0112758Y0025164D02*
X0112758Y0024663D01*
X0112508Y0024413D01*
X0112508Y0023941D02*
X0112758Y0023690D01*
X0112758Y0023190D01*
X0112508Y0022940D01*
X0111507Y0022940D01*
X0111257Y0023190D01*
X0111257Y0023690D01*
X0111507Y0023941D01*
X0111257Y0024413D02*
X0112258Y0025414D01*
X0112508Y0025414D01*
X0112758Y0025164D01*
X0112508Y0025886D02*
X0112758Y0026136D01*
X0112758Y0026637D01*
X0112508Y0026887D01*
X0112258Y0026887D01*
X0112008Y0026637D01*
X0111758Y0026887D01*
X0111507Y0026887D01*
X0111257Y0026637D01*
X0111257Y0026136D01*
X0111507Y0025886D01*
X0111257Y0025414D02*
X0111257Y0024413D01*
X0112008Y0026387D02*
X0112008Y0026637D01*
X0112065Y0034546D02*
X0112565Y0035046D01*
X0111064Y0035046D01*
X0111064Y0034546D02*
X0111064Y0035547D01*
X0111314Y0036019D02*
X0112315Y0037020D01*
X0111314Y0037020D01*
X0111064Y0036770D01*
X0111064Y0036270D01*
X0111314Y0036019D01*
X0112315Y0036019D01*
X0112565Y0036270D01*
X0112565Y0036770D01*
X0112315Y0037020D01*
X0112065Y0037493D02*
X0111314Y0037493D01*
X0111064Y0037743D01*
X0111064Y0038493D01*
X0112065Y0038493D01*
X0111815Y0038966D02*
X0111815Y0039466D01*
X0112565Y0038966D02*
X0111064Y0038966D01*
X0112565Y0038966D02*
X0112565Y0039967D01*
X0087446Y0031491D02*
X0087446Y0030490D01*
X0085944Y0030490D01*
X0085944Y0030018D02*
X0086945Y0030018D01*
X0086695Y0030490D02*
X0086695Y0030991D01*
X0085944Y0030018D02*
X0085944Y0029267D01*
X0086195Y0029017D01*
X0086945Y0029017D01*
X0087196Y0028544D02*
X0086195Y0027544D01*
X0085944Y0027794D01*
X0085944Y0028294D01*
X0086195Y0028544D01*
X0087196Y0028544D01*
X0087446Y0028294D01*
X0087446Y0027794D01*
X0087196Y0027544D01*
X0086195Y0027544D01*
X0085944Y0027071D02*
X0085944Y0026070D01*
X0085944Y0026571D02*
X0087446Y0026571D01*
X0086945Y0026070D01*
X0077325Y0026387D02*
X0075824Y0026387D01*
X0075824Y0026887D02*
X0075824Y0025886D01*
X0075824Y0025414D02*
X0075824Y0024413D01*
X0075824Y0024913D02*
X0077325Y0024913D01*
X0076825Y0024413D01*
X0077075Y0023941D02*
X0077325Y0023690D01*
X0077325Y0023190D01*
X0077075Y0022940D01*
X0076074Y0022940D01*
X0075824Y0023190D01*
X0075824Y0023690D01*
X0076074Y0023941D01*
X0076825Y0025886D02*
X0077325Y0026387D01*
X0076632Y0034546D02*
X0077132Y0035046D01*
X0075631Y0035046D01*
X0075631Y0034546D02*
X0075631Y0035547D01*
X0075881Y0036019D02*
X0076882Y0037020D01*
X0075881Y0037020D01*
X0075631Y0036770D01*
X0075631Y0036270D01*
X0075881Y0036019D01*
X0076882Y0036019D01*
X0077132Y0036270D01*
X0077132Y0036770D01*
X0076882Y0037020D01*
X0076632Y0037493D02*
X0075881Y0037493D01*
X0075631Y0037743D01*
X0075631Y0038493D01*
X0076632Y0038493D01*
X0076382Y0038966D02*
X0076382Y0039466D01*
X0077132Y0038966D02*
X0077132Y0039967D01*
X0077132Y0038966D02*
X0075631Y0038966D01*
X0085752Y0039400D02*
X0085752Y0039901D01*
X0086002Y0040151D01*
X0085752Y0040623D02*
X0085752Y0041624D01*
X0085752Y0041124D02*
X0087253Y0041124D01*
X0086752Y0040623D01*
X0087003Y0040151D02*
X0087253Y0039901D01*
X0087253Y0039400D01*
X0087003Y0039150D01*
X0086002Y0039150D01*
X0085752Y0039400D01*
X0086002Y0042096D02*
X0085752Y0042347D01*
X0085752Y0042847D01*
X0086002Y0043097D01*
X0087003Y0043097D01*
X0087253Y0042847D01*
X0087253Y0042347D01*
X0087003Y0042096D01*
X0086752Y0042096D01*
X0086502Y0042347D01*
X0086502Y0043097D01*
X0061936Y0027623D02*
X0061685Y0027122D01*
X0061185Y0026622D01*
X0061185Y0027372D01*
X0060935Y0027623D01*
X0060684Y0027623D01*
X0060434Y0027372D01*
X0060434Y0026872D01*
X0060684Y0026622D01*
X0061185Y0026622D01*
X0061185Y0026149D02*
X0060935Y0025899D01*
X0060935Y0025148D01*
X0060434Y0025148D02*
X0061936Y0025148D01*
X0061936Y0025899D01*
X0061685Y0026149D01*
X0061185Y0026149D01*
X0060935Y0025649D02*
X0060434Y0026149D01*
X0054436Y0026372D02*
X0054436Y0026872D01*
X0054185Y0027123D01*
X0053184Y0026122D01*
X0052934Y0026372D01*
X0052934Y0026872D01*
X0053184Y0027123D01*
X0054185Y0027123D01*
X0054436Y0027595D02*
X0052934Y0027595D01*
X0053435Y0027595D02*
X0053935Y0028346D01*
X0053435Y0027595D02*
X0052934Y0028346D01*
X0053184Y0026122D02*
X0054185Y0026122D01*
X0054436Y0026372D01*
X0054436Y0025149D02*
X0052934Y0025149D01*
X0052934Y0025649D02*
X0052934Y0024648D01*
X0053935Y0024648D02*
X0054436Y0025149D01*
X0049766Y0025164D02*
X0049516Y0025414D01*
X0049266Y0025414D01*
X0049016Y0025164D01*
X0049016Y0024663D01*
X0049266Y0024413D01*
X0049516Y0024413D01*
X0049766Y0024663D01*
X0049766Y0025164D01*
X0049016Y0025164D02*
X0048765Y0025414D01*
X0048515Y0025414D01*
X0048265Y0025164D01*
X0048265Y0024663D01*
X0048515Y0024413D01*
X0048765Y0024413D01*
X0049016Y0024663D01*
X0049516Y0023941D02*
X0049766Y0023690D01*
X0049766Y0023190D01*
X0049516Y0022940D01*
X0048515Y0022940D01*
X0048265Y0023190D01*
X0048265Y0023690D01*
X0048515Y0023941D01*
X0048072Y0034546D02*
X0048072Y0035547D01*
X0048072Y0035046D02*
X0049573Y0035046D01*
X0049073Y0034546D01*
X0049323Y0036019D02*
X0049573Y0036270D01*
X0049573Y0036770D01*
X0049323Y0037020D01*
X0048322Y0036019D01*
X0048072Y0036270D01*
X0048072Y0036770D01*
X0048322Y0037020D01*
X0049323Y0037020D01*
X0049073Y0037493D02*
X0048322Y0037493D01*
X0048072Y0037743D01*
X0048072Y0038493D01*
X0049073Y0038493D01*
X0048823Y0038966D02*
X0048823Y0039466D01*
X0049573Y0038966D02*
X0049573Y0039967D01*
X0049573Y0038966D02*
X0048072Y0038966D01*
X0048322Y0036019D02*
X0049323Y0036019D01*
X0020517Y0031491D02*
X0020517Y0030490D01*
X0019015Y0030490D01*
X0019015Y0030018D02*
X0020016Y0030018D01*
X0019766Y0030490D02*
X0019766Y0030991D01*
X0019015Y0030018D02*
X0019015Y0029267D01*
X0019266Y0029017D01*
X0020016Y0029017D01*
X0020266Y0028544D02*
X0019266Y0027544D01*
X0019015Y0027794D01*
X0019015Y0028294D01*
X0019266Y0028544D01*
X0020266Y0028544D01*
X0020517Y0028294D01*
X0020517Y0027794D01*
X0020266Y0027544D01*
X0019266Y0027544D01*
X0019015Y0027071D02*
X0019015Y0026070D01*
X0019015Y0026571D02*
X0020517Y0026571D01*
X0020016Y0026070D01*
X0020073Y0040623D02*
X0019073Y0040623D01*
X0018822Y0040873D01*
X0018822Y0041374D01*
X0019073Y0041624D01*
X0019073Y0042096D02*
X0018822Y0042096D01*
X0019073Y0042096D02*
X0020073Y0043097D01*
X0020324Y0043097D01*
X0020324Y0042096D01*
X0020073Y0041624D02*
X0020324Y0041374D01*
X0020324Y0040873D01*
X0020073Y0040623D01*
X0019644Y0072247D02*
X0020144Y0072747D01*
X0018643Y0072747D01*
X0018643Y0072247D02*
X0018643Y0073248D01*
X0018893Y0073720D02*
X0019894Y0074721D01*
X0018893Y0074721D01*
X0018643Y0074471D01*
X0018643Y0073970D01*
X0018893Y0073720D01*
X0019894Y0073720D01*
X0020144Y0073970D01*
X0020144Y0074471D01*
X0019894Y0074721D01*
X0020144Y0075193D02*
X0018643Y0075193D01*
X0019143Y0075193D02*
X0019644Y0075944D01*
X0019143Y0075193D02*
X0018643Y0075944D01*
X0026143Y0074220D02*
X0026393Y0074220D01*
X0027394Y0075221D01*
X0027644Y0075221D01*
X0027644Y0074220D01*
X0027394Y0073748D02*
X0026894Y0073748D01*
X0026643Y0073497D01*
X0026643Y0072747D01*
X0026143Y0072747D02*
X0027644Y0072747D01*
X0027644Y0073497D01*
X0027394Y0073748D01*
X0026643Y0073247D02*
X0026143Y0073748D01*
X0073761Y0073970D02*
X0074011Y0073720D01*
X0075012Y0074721D01*
X0074011Y0074721D01*
X0073761Y0074471D01*
X0073761Y0073970D01*
X0074011Y0073720D02*
X0075012Y0073720D01*
X0075262Y0073970D01*
X0075262Y0074471D01*
X0075012Y0074721D01*
X0075262Y0075193D02*
X0073761Y0075193D01*
X0074261Y0075193D02*
X0074762Y0075944D01*
X0074261Y0075193D02*
X0073761Y0075944D01*
X0073761Y0073248D02*
X0073761Y0072247D01*
X0073761Y0072747D02*
X0075262Y0072747D01*
X0074762Y0072247D01*
X0081261Y0072747D02*
X0082762Y0072747D01*
X0082762Y0073497D01*
X0082512Y0073748D01*
X0082012Y0073748D01*
X0081761Y0073497D01*
X0081761Y0072747D01*
X0081761Y0073247D02*
X0081261Y0073748D01*
X0081261Y0074220D02*
X0081261Y0075221D01*
X0081261Y0075693D02*
X0081261Y0076694D01*
X0081261Y0076194D02*
X0082762Y0076194D01*
X0082262Y0075693D01*
X0082762Y0074721D02*
X0081261Y0074721D01*
X0082262Y0074220D02*
X0082762Y0074721D01*
X0085572Y0074471D02*
X0085572Y0073970D01*
X0085822Y0073720D01*
X0086823Y0074721D01*
X0085822Y0074721D01*
X0085572Y0074471D01*
X0085572Y0075193D02*
X0087073Y0075193D01*
X0086823Y0074721D02*
X0087073Y0074471D01*
X0087073Y0073970D01*
X0086823Y0073720D01*
X0085822Y0073720D01*
X0085572Y0073248D02*
X0085572Y0072247D01*
X0085572Y0072747D02*
X0087073Y0072747D01*
X0086573Y0072247D01*
X0086072Y0075193D02*
X0086573Y0075944D01*
X0086072Y0075193D02*
X0085572Y0075944D01*
X0093072Y0075944D02*
X0093072Y0076444D01*
X0093322Y0076694D01*
X0093572Y0076694D01*
X0093823Y0076444D01*
X0093823Y0075693D01*
X0093322Y0075693D01*
X0093072Y0075944D01*
X0093072Y0075221D02*
X0093072Y0074220D01*
X0094073Y0075221D01*
X0094323Y0075221D01*
X0094573Y0074971D01*
X0094573Y0074470D01*
X0094323Y0074220D01*
X0094323Y0073748D02*
X0093823Y0073748D01*
X0093572Y0073497D01*
X0093572Y0072747D01*
X0093072Y0072747D02*
X0094573Y0072747D01*
X0094573Y0073497D01*
X0094323Y0073748D01*
X0093572Y0073247D02*
X0093072Y0073748D01*
X0093823Y0075693D02*
X0094323Y0076194D01*
X0094573Y0076694D01*
X0136753Y0075944D02*
X0137254Y0075193D01*
X0137754Y0075944D01*
X0138254Y0075193D02*
X0136753Y0075193D01*
X0137003Y0074721D02*
X0136753Y0074471D01*
X0136753Y0073970D01*
X0137003Y0073720D01*
X0138004Y0074721D01*
X0137003Y0074721D01*
X0137003Y0073720D02*
X0138004Y0073720D01*
X0138254Y0073970D01*
X0138254Y0074471D01*
X0138004Y0074721D01*
X0136753Y0073248D02*
X0136753Y0072247D01*
X0136753Y0072747D02*
X0138254Y0072747D01*
X0137754Y0072247D01*
X0144253Y0072747D02*
X0145754Y0072747D01*
X0145754Y0073497D01*
X0145504Y0073748D01*
X0145004Y0073748D01*
X0144754Y0073497D01*
X0144754Y0072747D01*
X0144627Y0072747D02*
X0146128Y0072747D01*
X0145628Y0072247D01*
X0144627Y0072247D02*
X0144627Y0073248D01*
X0144754Y0073247D02*
X0144253Y0073748D01*
X0144627Y0073970D02*
X0144877Y0073720D01*
X0145878Y0074721D01*
X0144877Y0074721D01*
X0144627Y0074471D01*
X0144627Y0073970D01*
X0144877Y0073720D02*
X0145878Y0073720D01*
X0146128Y0073970D01*
X0146128Y0074471D01*
X0145878Y0074721D01*
X0145754Y0074971D02*
X0145754Y0074470D01*
X0145504Y0074220D01*
X0145754Y0074971D02*
X0145504Y0075221D01*
X0145254Y0075221D01*
X0144253Y0074220D01*
X0144253Y0075221D01*
X0144627Y0075193D02*
X0146128Y0075193D01*
X0145754Y0075693D02*
X0145754Y0076694D01*
X0145504Y0076694D01*
X0144503Y0075693D01*
X0144253Y0075693D01*
X0144627Y0075944D02*
X0145128Y0075193D01*
X0145628Y0075944D01*
X0152127Y0076444D02*
X0153628Y0076444D01*
X0152878Y0075693D01*
X0152878Y0076694D01*
X0153128Y0075221D02*
X0152878Y0074971D01*
X0152628Y0075221D01*
X0152377Y0075221D01*
X0152127Y0074971D01*
X0152127Y0074470D01*
X0152377Y0074220D01*
X0152127Y0073748D02*
X0152628Y0073247D01*
X0152628Y0073497D02*
X0152628Y0072747D01*
X0152127Y0072747D02*
X0153628Y0072747D01*
X0153628Y0073497D01*
X0153378Y0073748D01*
X0152878Y0073748D01*
X0152628Y0073497D01*
X0153378Y0074220D02*
X0153628Y0074470D01*
X0153628Y0074971D01*
X0153378Y0075221D01*
X0153128Y0075221D01*
X0152878Y0074971D02*
X0152878Y0074721D01*
X0199745Y0074471D02*
X0199745Y0073970D01*
X0199995Y0073720D01*
X0200996Y0074721D01*
X0199995Y0074721D01*
X0199745Y0074471D01*
X0199745Y0075193D02*
X0201247Y0075193D01*
X0200996Y0074721D02*
X0201247Y0074471D01*
X0201247Y0073970D01*
X0200996Y0073720D01*
X0199995Y0073720D01*
X0199745Y0073248D02*
X0199745Y0072247D01*
X0199745Y0072747D02*
X0201247Y0072747D01*
X0200746Y0072247D01*
X0200246Y0075193D02*
X0199745Y0075944D01*
X0200246Y0075193D02*
X0200746Y0075944D01*
X0207245Y0075944D02*
X0207495Y0075693D01*
X0207619Y0075944D02*
X0208120Y0075193D01*
X0208620Y0075944D01*
X0208747Y0075693D02*
X0207996Y0075693D01*
X0208246Y0076194D01*
X0208246Y0076444D01*
X0207996Y0076694D01*
X0207495Y0076694D01*
X0207245Y0076444D01*
X0207245Y0075944D01*
X0207495Y0075221D02*
X0207245Y0074971D01*
X0207245Y0074470D01*
X0207495Y0074220D01*
X0207619Y0073970D02*
X0207870Y0073720D01*
X0208870Y0074721D01*
X0207870Y0074721D01*
X0207619Y0074471D01*
X0207619Y0073970D01*
X0207870Y0073720D02*
X0208870Y0073720D01*
X0209121Y0073970D01*
X0209121Y0074471D01*
X0208870Y0074721D01*
X0208747Y0074971D02*
X0208496Y0075221D01*
X0208246Y0075221D01*
X0207996Y0074971D01*
X0207746Y0075221D01*
X0207495Y0075221D01*
X0207619Y0075193D02*
X0209121Y0075193D01*
X0208747Y0074971D02*
X0208747Y0074470D01*
X0208496Y0074220D01*
X0208496Y0073748D02*
X0207996Y0073748D01*
X0207746Y0073497D01*
X0207746Y0072747D01*
X0207619Y0072747D02*
X0209121Y0072747D01*
X0208620Y0072247D01*
X0208747Y0072747D02*
X0208747Y0073497D01*
X0208496Y0073748D01*
X0207746Y0073247D02*
X0207245Y0073748D01*
X0207619Y0073248D02*
X0207619Y0072247D01*
X0207245Y0072747D02*
X0208747Y0072747D01*
X0207996Y0074721D02*
X0207996Y0074971D01*
X0208747Y0075693D02*
X0208747Y0076694D01*
X0215119Y0076444D02*
X0215119Y0075944D01*
X0215370Y0075693D01*
X0215620Y0075693D01*
X0215870Y0075944D01*
X0215870Y0076444D01*
X0215620Y0076694D01*
X0215370Y0076694D01*
X0215119Y0076444D01*
X0215870Y0076444D02*
X0216120Y0076694D01*
X0216370Y0076694D01*
X0216621Y0076444D01*
X0216621Y0075944D01*
X0216370Y0075693D01*
X0216120Y0075693D01*
X0215870Y0075944D01*
X0215870Y0075221D02*
X0215370Y0075221D01*
X0215119Y0074971D01*
X0215119Y0074470D01*
X0215370Y0074220D01*
X0215870Y0074220D02*
X0216120Y0074721D01*
X0216120Y0074971D01*
X0215870Y0075221D01*
X0216621Y0075221D02*
X0216621Y0074220D01*
X0215870Y0074220D01*
X0215870Y0073748D02*
X0215620Y0073497D01*
X0215620Y0072747D01*
X0215620Y0073247D02*
X0215119Y0073748D01*
X0215870Y0073748D02*
X0216370Y0073748D01*
X0216621Y0073497D01*
X0216621Y0072747D01*
X0215119Y0072747D01*
X0262737Y0072747D02*
X0264239Y0072747D01*
X0263738Y0072247D01*
X0262737Y0072247D02*
X0262737Y0073248D01*
X0262988Y0073720D02*
X0263988Y0074721D01*
X0262988Y0074721D01*
X0262737Y0074471D01*
X0262737Y0073970D01*
X0262988Y0073720D01*
X0263988Y0073720D01*
X0264239Y0073970D01*
X0264239Y0074471D01*
X0263988Y0074721D01*
X0264239Y0075193D02*
X0262737Y0075193D01*
X0263238Y0075193D02*
X0263738Y0075944D01*
X0263238Y0075193D02*
X0262737Y0075944D01*
X0270237Y0075944D02*
X0270237Y0076444D01*
X0270488Y0076694D01*
X0271488Y0076694D01*
X0271739Y0076444D01*
X0271739Y0075944D01*
X0271488Y0075693D01*
X0271238Y0075693D01*
X0270988Y0075944D01*
X0270988Y0076694D01*
X0270237Y0075944D02*
X0270488Y0075693D01*
X0270488Y0075221D02*
X0270237Y0074971D01*
X0270237Y0074470D01*
X0270488Y0074220D01*
X0270988Y0074220D02*
X0271238Y0074721D01*
X0271238Y0074971D01*
X0270988Y0075221D01*
X0270488Y0075221D01*
X0270988Y0074220D02*
X0271739Y0074220D01*
X0271739Y0075221D01*
X0271488Y0073748D02*
X0270988Y0073748D01*
X0270738Y0073497D01*
X0270738Y0072747D01*
X0270738Y0073247D02*
X0270237Y0073748D01*
X0270237Y0072747D02*
X0271739Y0072747D01*
X0271739Y0073497D01*
X0271488Y0073748D01*
X0274548Y0073970D02*
X0274799Y0073720D01*
X0275799Y0074721D01*
X0274799Y0074721D01*
X0274548Y0074471D01*
X0274548Y0073970D01*
X0274799Y0073720D02*
X0275799Y0073720D01*
X0276050Y0073970D01*
X0276050Y0074471D01*
X0275799Y0074721D01*
X0276050Y0075193D02*
X0274548Y0075193D01*
X0275049Y0075193D02*
X0274548Y0075944D01*
X0275049Y0075193D02*
X0275549Y0075944D01*
X0274548Y0073248D02*
X0274548Y0072247D01*
X0274548Y0072747D02*
X0276050Y0072747D01*
X0275549Y0072247D01*
X0282048Y0072747D02*
X0283550Y0072747D01*
X0283550Y0073497D01*
X0283299Y0073748D01*
X0282799Y0073748D01*
X0282549Y0073497D01*
X0282549Y0072747D01*
X0282549Y0073247D02*
X0282048Y0073748D01*
X0282299Y0074220D02*
X0282048Y0074470D01*
X0282048Y0074971D01*
X0282299Y0075221D01*
X0282549Y0075221D01*
X0282799Y0074971D01*
X0282799Y0074220D01*
X0282299Y0074220D01*
X0282799Y0074220D02*
X0283299Y0074721D01*
X0283550Y0075221D01*
X0282799Y0075693D02*
X0283299Y0076194D01*
X0283550Y0076694D01*
X0282799Y0076444D02*
X0282799Y0075693D01*
X0282299Y0075693D01*
X0282048Y0075944D01*
X0282048Y0076444D01*
X0282299Y0076694D01*
X0282549Y0076694D01*
X0282799Y0076444D01*
X0325730Y0075944D02*
X0326230Y0075193D01*
X0326730Y0075944D01*
X0327231Y0075193D02*
X0325730Y0075193D01*
X0325980Y0074721D02*
X0325730Y0074471D01*
X0325730Y0073970D01*
X0325980Y0073720D01*
X0326981Y0074721D01*
X0325980Y0074721D01*
X0326981Y0074721D02*
X0327231Y0074471D01*
X0327231Y0073970D01*
X0326981Y0073720D01*
X0325980Y0073720D01*
X0325730Y0073248D02*
X0325730Y0072247D01*
X0325730Y0072747D02*
X0327231Y0072747D01*
X0326730Y0072247D01*
X0333230Y0072747D02*
X0334731Y0072747D01*
X0334731Y0073497D01*
X0334481Y0073748D01*
X0333980Y0073748D01*
X0333730Y0073497D01*
X0333730Y0072747D01*
X0333604Y0072747D02*
X0335105Y0072747D01*
X0334604Y0072247D01*
X0333604Y0072247D02*
X0333604Y0073248D01*
X0333730Y0073247D02*
X0333230Y0073748D01*
X0333604Y0073970D02*
X0333854Y0073720D01*
X0334855Y0074721D01*
X0333854Y0074721D01*
X0333604Y0074471D01*
X0333604Y0073970D01*
X0333480Y0074220D02*
X0333230Y0074470D01*
X0333230Y0074971D01*
X0333480Y0075221D01*
X0333730Y0075221D01*
X0333980Y0074971D01*
X0333980Y0074220D01*
X0333480Y0074220D01*
X0333980Y0074220D02*
X0334481Y0074721D01*
X0334731Y0075221D01*
X0335105Y0075193D02*
X0333604Y0075193D01*
X0334104Y0075193D02*
X0334604Y0075944D01*
X0334731Y0075693D02*
X0334731Y0076694D01*
X0334481Y0076694D01*
X0333480Y0075693D01*
X0333230Y0075693D01*
X0333604Y0075944D02*
X0334104Y0075193D01*
X0334855Y0074721D02*
X0335105Y0074471D01*
X0335105Y0073970D01*
X0334855Y0073720D01*
X0333854Y0073720D01*
X0341104Y0073748D02*
X0341604Y0073247D01*
X0341604Y0073497D02*
X0341604Y0072747D01*
X0341104Y0072747D02*
X0342605Y0072747D01*
X0342605Y0073497D01*
X0342355Y0073748D01*
X0341854Y0073748D01*
X0341604Y0073497D01*
X0341354Y0074220D02*
X0341104Y0074220D01*
X0341354Y0074220D02*
X0342355Y0075221D01*
X0342605Y0075221D01*
X0342605Y0074220D01*
X0341854Y0075693D02*
X0341854Y0076694D01*
X0341104Y0076444D02*
X0342605Y0076444D01*
X0341854Y0075693D01*
X0388722Y0075944D02*
X0389222Y0075193D01*
X0389723Y0075944D01*
X0390223Y0075193D02*
X0388722Y0075193D01*
X0388972Y0074721D02*
X0388722Y0074471D01*
X0388722Y0073970D01*
X0388972Y0073720D01*
X0389973Y0074721D01*
X0388972Y0074721D01*
X0389973Y0074721D02*
X0390223Y0074471D01*
X0390223Y0073970D01*
X0389973Y0073720D01*
X0388972Y0073720D01*
X0388722Y0073248D02*
X0388722Y0072247D01*
X0388722Y0072747D02*
X0390223Y0072747D01*
X0389723Y0072247D01*
X0396222Y0072747D02*
X0397723Y0072747D01*
X0397723Y0073497D01*
X0397473Y0073748D01*
X0396972Y0073748D01*
X0396722Y0073497D01*
X0396722Y0072747D01*
X0396722Y0073247D02*
X0396222Y0073748D01*
X0396222Y0074220D02*
X0396472Y0074220D01*
X0397473Y0075221D01*
X0397723Y0075221D01*
X0397723Y0074220D01*
X0397723Y0075693D02*
X0396972Y0075693D01*
X0397223Y0076194D01*
X0397223Y0076444D01*
X0396972Y0076694D01*
X0396472Y0076694D01*
X0396222Y0076444D01*
X0396222Y0075944D01*
X0396472Y0075693D01*
X0397723Y0075693D02*
X0397723Y0076694D01*
X0374101Y0127826D02*
X0374101Y0128576D01*
X0373851Y0128826D01*
X0373350Y0128826D01*
X0373100Y0128576D01*
X0373100Y0127826D01*
X0373100Y0128326D02*
X0372600Y0128826D01*
X0372600Y0129299D02*
X0372850Y0129299D01*
X0373851Y0130300D01*
X0374101Y0130300D01*
X0374101Y0129299D01*
X0374101Y0127826D02*
X0372600Y0127826D01*
X0372600Y0130772D02*
X0372600Y0131773D01*
X0372600Y0131273D02*
X0374101Y0131273D01*
X0373600Y0130772D01*
X0366601Y0129800D02*
X0365100Y0129800D01*
X0365100Y0128799D02*
X0366601Y0128799D01*
X0366100Y0129299D01*
X0366601Y0129800D01*
X0366601Y0127826D02*
X0365100Y0127826D01*
X0365100Y0127326D02*
X0365100Y0128326D01*
X0366100Y0127326D02*
X0366601Y0127826D01*
X0362290Y0127865D02*
X0362290Y0128616D01*
X0362040Y0128866D01*
X0361539Y0128866D01*
X0361289Y0128616D01*
X0361289Y0127865D01*
X0361289Y0128365D02*
X0360789Y0128866D01*
X0360789Y0129338D02*
X0361039Y0129338D01*
X0362040Y0130339D01*
X0362290Y0130339D01*
X0362290Y0129338D01*
X0362290Y0127865D02*
X0360789Y0127865D01*
X0361039Y0130811D02*
X0362040Y0131812D01*
X0361039Y0131812D01*
X0360789Y0131562D01*
X0360789Y0131062D01*
X0361039Y0130811D01*
X0362040Y0130811D01*
X0362290Y0131062D01*
X0362290Y0131562D01*
X0362040Y0131812D01*
X0354790Y0129839D02*
X0353289Y0129839D01*
X0353289Y0128838D02*
X0354790Y0128838D01*
X0354289Y0129339D01*
X0354790Y0129839D01*
X0354790Y0127865D02*
X0353289Y0127865D01*
X0353289Y0127365D02*
X0353289Y0128366D01*
X0354289Y0127365D02*
X0354790Y0127865D01*
X0372992Y0147256D02*
X0374493Y0147256D01*
X0374493Y0148007D01*
X0374243Y0148257D01*
X0373742Y0148257D01*
X0373492Y0148007D01*
X0373492Y0147256D01*
X0373492Y0147757D02*
X0372992Y0148257D01*
X0372992Y0148729D02*
X0373242Y0148729D01*
X0374243Y0149730D01*
X0374493Y0149730D01*
X0374493Y0148729D01*
X0374243Y0150203D02*
X0374493Y0150453D01*
X0374493Y0150953D01*
X0374243Y0151204D01*
X0373993Y0151204D01*
X0372992Y0150203D01*
X0372992Y0151204D01*
X0380492Y0151704D02*
X0381993Y0151704D01*
X0381493Y0151203D01*
X0381993Y0150703D01*
X0380492Y0150703D01*
X0380492Y0150230D02*
X0380492Y0149229D01*
X0380492Y0149730D02*
X0381993Y0149730D01*
X0381493Y0149229D01*
X0374572Y0165366D02*
X0374572Y0166117D01*
X0374322Y0166367D01*
X0373821Y0166367D01*
X0373571Y0166117D01*
X0373571Y0165366D01*
X0373070Y0165366D02*
X0374572Y0165366D01*
X0373571Y0165867D02*
X0373070Y0166367D01*
X0373070Y0166840D02*
X0373321Y0166840D01*
X0374322Y0167841D01*
X0374572Y0167841D01*
X0374572Y0166840D01*
X0374322Y0168313D02*
X0374572Y0168563D01*
X0374572Y0169064D01*
X0374322Y0169314D01*
X0374071Y0169314D01*
X0373821Y0169064D01*
X0373571Y0169314D01*
X0373321Y0169314D01*
X0373070Y0169064D01*
X0373070Y0168563D01*
X0373321Y0168313D01*
X0373821Y0168813D02*
X0373821Y0169064D01*
X0380570Y0168813D02*
X0382072Y0168813D01*
X0381571Y0169313D01*
X0382072Y0169814D01*
X0380570Y0169814D01*
X0380570Y0168341D02*
X0380570Y0167340D01*
X0380570Y0167840D02*
X0382072Y0167840D01*
X0381571Y0167340D01*
X0359694Y0167372D02*
X0359694Y0166371D01*
X0358943Y0166371D01*
X0359193Y0166872D01*
X0359193Y0167122D01*
X0358943Y0167372D01*
X0358443Y0167372D01*
X0358193Y0167122D01*
X0358193Y0166621D01*
X0358443Y0166371D01*
X0358443Y0165899D02*
X0358193Y0165649D01*
X0358193Y0165148D01*
X0358443Y0164898D01*
X0359444Y0164898D01*
X0359694Y0165148D01*
X0359694Y0165649D01*
X0359444Y0165899D01*
X0358943Y0167844D02*
X0358943Y0168595D01*
X0358693Y0168845D01*
X0358443Y0168845D01*
X0358193Y0168595D01*
X0358193Y0168095D01*
X0358443Y0167844D01*
X0358943Y0167844D01*
X0359444Y0168345D01*
X0359694Y0168845D01*
X0354316Y0165633D02*
X0352815Y0165633D01*
X0353315Y0165633D02*
X0353815Y0166384D01*
X0353315Y0165633D02*
X0352815Y0166384D01*
X0353065Y0165161D02*
X0352815Y0164911D01*
X0352815Y0164410D01*
X0353065Y0164160D01*
X0354066Y0165161D01*
X0353065Y0165161D01*
X0354066Y0165161D02*
X0354316Y0164911D01*
X0354316Y0164410D01*
X0354066Y0164160D01*
X0353065Y0164160D01*
X0352815Y0163688D02*
X0352815Y0162687D01*
X0352815Y0163187D02*
X0354316Y0163187D01*
X0353815Y0162687D01*
X0359887Y0157239D02*
X0359887Y0156238D01*
X0358385Y0156238D01*
X0358385Y0155766D02*
X0359386Y0155766D01*
X0359136Y0156238D02*
X0359136Y0156739D01*
X0358385Y0155766D02*
X0358385Y0155015D01*
X0358636Y0154765D01*
X0359386Y0154765D01*
X0359636Y0154292D02*
X0358636Y0153292D01*
X0358385Y0153542D01*
X0358385Y0154042D01*
X0358636Y0154292D01*
X0359636Y0154292D01*
X0359887Y0154042D01*
X0359887Y0153542D01*
X0359636Y0153292D01*
X0358636Y0153292D01*
X0358385Y0152819D02*
X0358385Y0151818D01*
X0358385Y0152319D02*
X0359887Y0152319D01*
X0359386Y0151818D01*
X0346816Y0161941D02*
X0346816Y0162692D01*
X0346566Y0162942D01*
X0346065Y0162942D01*
X0345815Y0162692D01*
X0345815Y0161941D01*
X0345315Y0161941D02*
X0346816Y0161941D01*
X0345815Y0162442D02*
X0345315Y0162942D01*
X0345565Y0163415D02*
X0345315Y0163665D01*
X0345315Y0164165D01*
X0345565Y0164415D01*
X0345815Y0164415D01*
X0346065Y0164165D01*
X0346065Y0163415D01*
X0345565Y0163415D01*
X0346065Y0163415D02*
X0346566Y0163915D01*
X0346816Y0164415D01*
X0346566Y0164888D02*
X0346315Y0164888D01*
X0346065Y0165138D01*
X0346065Y0165889D01*
X0345565Y0165889D02*
X0346566Y0165889D01*
X0346816Y0165638D01*
X0346816Y0165138D01*
X0346566Y0164888D01*
X0345565Y0164888D02*
X0345315Y0165138D01*
X0345315Y0165638D01*
X0345565Y0165889D01*
X0319080Y0167840D02*
X0317578Y0167840D01*
X0317578Y0167340D02*
X0317578Y0168341D01*
X0317578Y0168813D02*
X0319080Y0168813D01*
X0318579Y0169313D01*
X0319080Y0169814D01*
X0317578Y0169814D01*
X0319080Y0167840D02*
X0318579Y0167340D01*
X0311580Y0167841D02*
X0311329Y0167340D01*
X0310829Y0166840D01*
X0310829Y0167590D01*
X0310579Y0167841D01*
X0310329Y0167841D01*
X0310078Y0167590D01*
X0310078Y0167090D01*
X0310329Y0166840D01*
X0310829Y0166840D01*
X0310829Y0166367D02*
X0310579Y0166117D01*
X0310579Y0165366D01*
X0310078Y0165366D02*
X0311580Y0165366D01*
X0311580Y0166117D01*
X0311329Y0166367D01*
X0310829Y0166367D01*
X0310579Y0165867D02*
X0310078Y0166367D01*
X0310329Y0168313D02*
X0310078Y0168563D01*
X0310078Y0169064D01*
X0310329Y0169314D01*
X0310829Y0169314D01*
X0311079Y0169064D01*
X0311079Y0168813D01*
X0310829Y0168313D01*
X0311580Y0168313D01*
X0311580Y0169314D01*
X0296702Y0168595D02*
X0296451Y0168845D01*
X0295451Y0167844D01*
X0295200Y0168095D01*
X0295200Y0168595D01*
X0295451Y0168845D01*
X0296451Y0168845D01*
X0296702Y0168595D02*
X0296702Y0168095D01*
X0296451Y0167844D01*
X0295451Y0167844D01*
X0295451Y0167372D02*
X0295200Y0167122D01*
X0295200Y0166621D01*
X0295451Y0166371D01*
X0295451Y0165899D02*
X0295200Y0165649D01*
X0295200Y0165148D01*
X0295451Y0164898D01*
X0296451Y0164898D01*
X0296702Y0165148D01*
X0296702Y0165649D01*
X0296451Y0165899D01*
X0296702Y0166371D02*
X0295951Y0166371D01*
X0296201Y0166872D01*
X0296201Y0167122D01*
X0295951Y0167372D01*
X0295451Y0167372D01*
X0296702Y0167372D02*
X0296702Y0166371D01*
X0291324Y0165633D02*
X0289822Y0165633D01*
X0290323Y0165633D02*
X0290823Y0166384D01*
X0290323Y0165633D02*
X0289822Y0166384D01*
X0290073Y0165161D02*
X0289822Y0164911D01*
X0289822Y0164410D01*
X0290073Y0164160D01*
X0291073Y0165161D01*
X0290073Y0165161D01*
X0291073Y0165161D02*
X0291324Y0164911D01*
X0291324Y0164410D01*
X0291073Y0164160D01*
X0290073Y0164160D01*
X0289822Y0163688D02*
X0289822Y0162687D01*
X0289822Y0163187D02*
X0291324Y0163187D01*
X0290823Y0162687D01*
X0283824Y0162692D02*
X0283573Y0162942D01*
X0283073Y0162942D01*
X0282823Y0162692D01*
X0282823Y0161941D01*
X0282322Y0161941D02*
X0283824Y0161941D01*
X0283824Y0162692D01*
X0282823Y0162442D02*
X0282322Y0162942D01*
X0282573Y0163415D02*
X0282322Y0163665D01*
X0282322Y0164165D01*
X0282573Y0164415D01*
X0282823Y0164415D01*
X0283073Y0164165D01*
X0283073Y0163415D01*
X0282573Y0163415D01*
X0283073Y0163415D02*
X0283573Y0163915D01*
X0283824Y0164415D01*
X0283323Y0164888D02*
X0283824Y0165388D01*
X0282322Y0165388D01*
X0282322Y0164888D02*
X0282322Y0165889D01*
X0295393Y0156238D02*
X0296895Y0156238D01*
X0296895Y0157239D01*
X0296144Y0156739D02*
X0296144Y0156238D01*
X0296394Y0155766D02*
X0295393Y0155766D01*
X0295393Y0155015D01*
X0295644Y0154765D01*
X0296394Y0154765D01*
X0296644Y0154292D02*
X0295644Y0153292D01*
X0295393Y0153542D01*
X0295393Y0154042D01*
X0295644Y0154292D01*
X0296644Y0154292D01*
X0296895Y0154042D01*
X0296895Y0153542D01*
X0296644Y0153292D01*
X0295644Y0153292D01*
X0295393Y0152819D02*
X0295393Y0151818D01*
X0295393Y0152319D02*
X0296895Y0152319D01*
X0296394Y0151818D01*
X0310000Y0150953D02*
X0311501Y0150953D01*
X0310750Y0150203D01*
X0310750Y0151204D01*
X0310500Y0149730D02*
X0310750Y0149480D01*
X0310750Y0148729D01*
X0310250Y0148729D01*
X0310000Y0148980D01*
X0310000Y0149480D01*
X0310250Y0149730D01*
X0310500Y0149730D01*
X0311251Y0149230D02*
X0310750Y0148729D01*
X0310750Y0148257D02*
X0310500Y0148007D01*
X0310500Y0147256D01*
X0310000Y0147256D02*
X0311501Y0147256D01*
X0311501Y0148007D01*
X0311251Y0148257D01*
X0310750Y0148257D01*
X0310500Y0147757D02*
X0310000Y0148257D01*
X0311251Y0149230D02*
X0311501Y0149730D01*
X0317500Y0149730D02*
X0319001Y0149730D01*
X0318500Y0149229D01*
X0317500Y0149229D02*
X0317500Y0150230D01*
X0317500Y0150703D02*
X0319001Y0150703D01*
X0318500Y0151203D01*
X0319001Y0151704D01*
X0317500Y0151704D01*
X0310859Y0131773D02*
X0310608Y0131773D01*
X0310358Y0131523D01*
X0310108Y0131773D01*
X0309858Y0131773D01*
X0309607Y0131523D01*
X0309607Y0131022D01*
X0309858Y0130772D01*
X0309858Y0130300D02*
X0310108Y0130300D01*
X0310358Y0130049D01*
X0310358Y0129299D01*
X0309858Y0129299D01*
X0309607Y0129549D01*
X0309607Y0130049D01*
X0309858Y0130300D01*
X0310358Y0131273D02*
X0310358Y0131523D01*
X0310859Y0131773D02*
X0311109Y0131523D01*
X0311109Y0131022D01*
X0310859Y0130772D01*
X0311109Y0130300D02*
X0310859Y0129799D01*
X0310358Y0129299D01*
X0310358Y0128826D02*
X0310108Y0128576D01*
X0310108Y0127826D01*
X0310108Y0128326D02*
X0309607Y0128826D01*
X0310358Y0128826D02*
X0310859Y0128826D01*
X0311109Y0128576D01*
X0311109Y0127826D01*
X0309607Y0127826D01*
X0303609Y0127826D02*
X0302107Y0127826D01*
X0302107Y0127326D02*
X0302107Y0128326D01*
X0302107Y0128799D02*
X0303609Y0128799D01*
X0303108Y0129299D01*
X0303609Y0129800D01*
X0302107Y0129800D01*
X0303609Y0127826D02*
X0303108Y0127326D01*
X0299298Y0127865D02*
X0299298Y0128616D01*
X0299048Y0128866D01*
X0298547Y0128866D01*
X0298297Y0128616D01*
X0298297Y0127865D01*
X0298297Y0128365D02*
X0297796Y0128866D01*
X0298047Y0129338D02*
X0297796Y0129588D01*
X0297796Y0130089D01*
X0298047Y0130339D01*
X0298297Y0130339D01*
X0298547Y0130089D01*
X0298547Y0129338D01*
X0298047Y0129338D01*
X0298547Y0129338D02*
X0299048Y0129839D01*
X0299298Y0130339D01*
X0299048Y0130811D02*
X0299298Y0131062D01*
X0299298Y0131562D01*
X0299048Y0131812D01*
X0298797Y0131812D01*
X0297796Y0130811D01*
X0297796Y0131812D01*
X0297796Y0127865D02*
X0299298Y0127865D01*
X0291798Y0127865D02*
X0290296Y0127865D01*
X0290296Y0127365D02*
X0290296Y0128366D01*
X0290296Y0128838D02*
X0291798Y0128838D01*
X0291297Y0129339D01*
X0291798Y0129839D01*
X0290296Y0129839D01*
X0291798Y0127865D02*
X0291297Y0127365D01*
X0256009Y0149730D02*
X0254507Y0149730D01*
X0254507Y0150230D02*
X0254507Y0149229D01*
X0255508Y0149229D02*
X0256009Y0149730D01*
X0256009Y0150703D02*
X0255508Y0151203D01*
X0256009Y0151704D01*
X0254507Y0151704D01*
X0254507Y0150703D02*
X0256009Y0150703D01*
X0248509Y0151204D02*
X0248259Y0150703D01*
X0247758Y0150203D01*
X0247758Y0150953D01*
X0247508Y0151204D01*
X0247258Y0151204D01*
X0247007Y0150953D01*
X0247007Y0150453D01*
X0247258Y0150203D01*
X0247758Y0150203D01*
X0247758Y0149730D02*
X0247258Y0149730D01*
X0247007Y0149480D01*
X0247007Y0148980D01*
X0247258Y0148729D01*
X0247758Y0148729D02*
X0248008Y0149230D01*
X0248008Y0149480D01*
X0247758Y0149730D01*
X0248509Y0149730D02*
X0248509Y0148729D01*
X0247758Y0148729D01*
X0247758Y0148257D02*
X0247508Y0148007D01*
X0247508Y0147256D01*
X0247007Y0147256D02*
X0248509Y0147256D01*
X0248509Y0148007D01*
X0248259Y0148257D01*
X0247758Y0148257D01*
X0247508Y0147757D02*
X0247007Y0148257D01*
X0233902Y0152319D02*
X0232401Y0152319D01*
X0232401Y0152819D02*
X0232401Y0151818D01*
X0233402Y0151818D02*
X0233902Y0152319D01*
X0233652Y0153292D02*
X0233902Y0153542D01*
X0233902Y0154042D01*
X0233652Y0154292D01*
X0232651Y0153292D01*
X0232401Y0153542D01*
X0232401Y0154042D01*
X0232651Y0154292D01*
X0233652Y0154292D01*
X0233402Y0154765D02*
X0232651Y0154765D01*
X0232401Y0155015D01*
X0232401Y0155766D01*
X0233402Y0155766D01*
X0233152Y0156238D02*
X0233152Y0156739D01*
X0233902Y0156238D02*
X0233902Y0157239D01*
X0233902Y0156238D02*
X0232401Y0156238D01*
X0232651Y0153292D02*
X0233652Y0153292D01*
X0227831Y0162687D02*
X0228332Y0163187D01*
X0226830Y0163187D01*
X0226830Y0162687D02*
X0226830Y0163688D01*
X0227081Y0164160D02*
X0228081Y0165161D01*
X0227081Y0165161D01*
X0226830Y0164911D01*
X0226830Y0164410D01*
X0227081Y0164160D01*
X0228081Y0164160D01*
X0228332Y0164410D01*
X0228332Y0164911D01*
X0228081Y0165161D01*
X0228332Y0165633D02*
X0226830Y0165633D01*
X0227331Y0165633D02*
X0227831Y0166384D01*
X0227331Y0165633D02*
X0226830Y0166384D01*
X0232208Y0165649D02*
X0232458Y0165899D01*
X0232208Y0165649D02*
X0232208Y0165148D01*
X0232458Y0164898D01*
X0233459Y0164898D01*
X0233710Y0165148D01*
X0233710Y0165649D01*
X0233459Y0165899D01*
X0232959Y0166371D02*
X0232959Y0167372D01*
X0232959Y0167844D02*
X0232959Y0168845D01*
X0233710Y0168595D02*
X0232959Y0167844D01*
X0232208Y0167122D02*
X0233710Y0167122D01*
X0232959Y0166371D01*
X0232208Y0168595D02*
X0233710Y0168595D01*
X0220832Y0165638D02*
X0220581Y0165889D01*
X0220331Y0165889D01*
X0220081Y0165638D01*
X0219831Y0165889D01*
X0219581Y0165889D01*
X0219330Y0165638D01*
X0219330Y0165138D01*
X0219581Y0164888D01*
X0219581Y0164415D02*
X0219330Y0164165D01*
X0219330Y0163665D01*
X0219581Y0163415D01*
X0220081Y0163415D02*
X0220331Y0163915D01*
X0220331Y0164165D01*
X0220081Y0164415D01*
X0219581Y0164415D01*
X0220081Y0165388D02*
X0220081Y0165638D01*
X0220832Y0165638D02*
X0220832Y0165138D01*
X0220581Y0164888D01*
X0220832Y0164415D02*
X0220832Y0163415D01*
X0220081Y0163415D01*
X0220081Y0162942D02*
X0219831Y0162692D01*
X0219831Y0161941D01*
X0219831Y0162442D02*
X0219330Y0162942D01*
X0220081Y0162942D02*
X0220581Y0162942D01*
X0220832Y0162692D01*
X0220832Y0161941D01*
X0219330Y0161941D01*
X0193095Y0167840D02*
X0191594Y0167840D01*
X0191594Y0167340D02*
X0191594Y0168341D01*
X0191594Y0168813D02*
X0193095Y0168813D01*
X0192595Y0169313D01*
X0193095Y0169814D01*
X0191594Y0169814D01*
X0193095Y0167840D02*
X0192595Y0167340D01*
X0185595Y0167590D02*
X0185345Y0167841D01*
X0185095Y0167841D01*
X0184845Y0167590D01*
X0184595Y0167841D01*
X0184344Y0167841D01*
X0184094Y0167590D01*
X0184094Y0167090D01*
X0184344Y0166840D01*
X0184094Y0166367D02*
X0184595Y0165867D01*
X0184595Y0166117D02*
X0184595Y0165366D01*
X0184094Y0165366D02*
X0185595Y0165366D01*
X0185595Y0166117D01*
X0185345Y0166367D01*
X0184845Y0166367D01*
X0184595Y0166117D01*
X0185345Y0166840D02*
X0185595Y0167090D01*
X0185595Y0167590D01*
X0184845Y0167590D02*
X0184845Y0167340D01*
X0185345Y0168313D02*
X0185595Y0168563D01*
X0185595Y0169064D01*
X0185345Y0169314D01*
X0185095Y0169314D01*
X0184845Y0169064D01*
X0184595Y0169314D01*
X0184344Y0169314D01*
X0184094Y0169064D01*
X0184094Y0168563D01*
X0184344Y0168313D01*
X0184845Y0168813D02*
X0184845Y0169064D01*
X0170717Y0168845D02*
X0170467Y0168345D01*
X0169967Y0167844D01*
X0169967Y0168595D01*
X0169717Y0168845D01*
X0169466Y0168845D01*
X0169216Y0168595D01*
X0169216Y0168095D01*
X0169466Y0167844D01*
X0169967Y0167844D01*
X0170217Y0167372D02*
X0170467Y0167372D01*
X0170717Y0167122D01*
X0170717Y0166621D01*
X0170467Y0166371D01*
X0170467Y0165899D02*
X0170717Y0165649D01*
X0170717Y0165148D01*
X0170467Y0164898D01*
X0169466Y0164898D01*
X0169216Y0165148D01*
X0169216Y0165649D01*
X0169466Y0165899D01*
X0169216Y0166371D02*
X0170217Y0167372D01*
X0169216Y0167372D02*
X0169216Y0166371D01*
X0165339Y0165633D02*
X0163838Y0165633D01*
X0164339Y0165633D02*
X0164839Y0166384D01*
X0164339Y0165633D02*
X0163838Y0166384D01*
X0164088Y0165161D02*
X0163838Y0164911D01*
X0163838Y0164410D01*
X0164088Y0164160D01*
X0165089Y0165161D01*
X0164088Y0165161D01*
X0164088Y0164160D02*
X0165089Y0164160D01*
X0165339Y0164410D01*
X0165339Y0164911D01*
X0165089Y0165161D01*
X0163838Y0163688D02*
X0163838Y0162687D01*
X0163838Y0163187D02*
X0165339Y0163187D01*
X0164839Y0162687D01*
X0157839Y0162692D02*
X0157589Y0162942D01*
X0157089Y0162942D01*
X0156839Y0162692D01*
X0156839Y0161941D01*
X0156839Y0162442D02*
X0156338Y0162942D01*
X0156338Y0163415D02*
X0157339Y0164415D01*
X0157589Y0164415D01*
X0157839Y0164165D01*
X0157839Y0163665D01*
X0157589Y0163415D01*
X0157839Y0162692D02*
X0157839Y0161941D01*
X0156338Y0161941D01*
X0156338Y0163415D02*
X0156338Y0164415D01*
X0156588Y0164888D02*
X0156338Y0165138D01*
X0156338Y0165638D01*
X0156588Y0165889D01*
X0157589Y0165889D01*
X0157839Y0165638D01*
X0157839Y0165138D01*
X0157589Y0164888D01*
X0157339Y0164888D01*
X0157089Y0165138D01*
X0157089Y0165889D01*
X0169409Y0156238D02*
X0170910Y0156238D01*
X0170910Y0157239D01*
X0170160Y0156739D02*
X0170160Y0156238D01*
X0170410Y0155766D02*
X0169409Y0155766D01*
X0169409Y0155015D01*
X0169659Y0154765D01*
X0170410Y0154765D01*
X0170660Y0154292D02*
X0169659Y0154292D01*
X0169409Y0154042D01*
X0169409Y0153542D01*
X0169659Y0153292D01*
X0170660Y0154292D01*
X0170910Y0154042D01*
X0170910Y0153542D01*
X0170660Y0153292D01*
X0169659Y0153292D01*
X0169409Y0152819D02*
X0169409Y0151818D01*
X0169409Y0152319D02*
X0170910Y0152319D01*
X0170410Y0151818D01*
X0184015Y0151204D02*
X0184015Y0150203D01*
X0185016Y0151204D01*
X0185266Y0151204D01*
X0185517Y0150953D01*
X0185517Y0150453D01*
X0185266Y0150203D01*
X0185266Y0149730D02*
X0185016Y0149730D01*
X0184766Y0149480D01*
X0184516Y0149730D01*
X0184266Y0149730D01*
X0184015Y0149480D01*
X0184015Y0148980D01*
X0184266Y0148729D01*
X0184015Y0148257D02*
X0184516Y0147757D01*
X0184516Y0148007D02*
X0184516Y0147256D01*
X0184015Y0147256D02*
X0185517Y0147256D01*
X0185517Y0148007D01*
X0185266Y0148257D01*
X0184766Y0148257D01*
X0184516Y0148007D01*
X0185266Y0148729D02*
X0185517Y0148980D01*
X0185517Y0149480D01*
X0185266Y0149730D01*
X0184766Y0149480D02*
X0184766Y0149230D01*
X0191515Y0149229D02*
X0191515Y0150230D01*
X0191515Y0150703D02*
X0193017Y0150703D01*
X0192516Y0151203D01*
X0193017Y0151704D01*
X0191515Y0151704D01*
X0191515Y0149730D02*
X0193017Y0149730D01*
X0192516Y0149229D01*
X0185125Y0131273D02*
X0183623Y0131273D01*
X0183623Y0131773D02*
X0183623Y0130772D01*
X0183873Y0130300D02*
X0183623Y0130049D01*
X0183623Y0129549D01*
X0183873Y0129299D01*
X0183623Y0128826D02*
X0184124Y0128326D01*
X0184124Y0128576D02*
X0184124Y0127826D01*
X0183623Y0127826D02*
X0185125Y0127826D01*
X0185125Y0128576D01*
X0184874Y0128826D01*
X0184374Y0128826D01*
X0184124Y0128576D01*
X0184874Y0129299D02*
X0185125Y0129549D01*
X0185125Y0130049D01*
X0184874Y0130300D01*
X0184624Y0130300D01*
X0184374Y0130049D01*
X0184124Y0130300D01*
X0183873Y0130300D01*
X0184374Y0130049D02*
X0184374Y0129799D01*
X0184624Y0130772D02*
X0185125Y0131273D01*
X0177625Y0129800D02*
X0176123Y0129800D01*
X0176123Y0128799D02*
X0177625Y0128799D01*
X0177124Y0129299D01*
X0177625Y0129800D01*
X0177625Y0127826D02*
X0176123Y0127826D01*
X0176123Y0127326D02*
X0176123Y0128326D01*
X0177124Y0127326D02*
X0177625Y0127826D01*
X0173313Y0127865D02*
X0173313Y0128616D01*
X0173063Y0128866D01*
X0172563Y0128866D01*
X0172313Y0128616D01*
X0172313Y0127865D01*
X0172313Y0128365D02*
X0171812Y0128866D01*
X0172062Y0129338D02*
X0171812Y0129588D01*
X0171812Y0130089D01*
X0172062Y0130339D01*
X0172313Y0130339D01*
X0172563Y0130089D01*
X0172563Y0129839D01*
X0172563Y0130089D02*
X0172813Y0130339D01*
X0173063Y0130339D01*
X0173313Y0130089D01*
X0173313Y0129588D01*
X0173063Y0129338D01*
X0173063Y0130811D02*
X0173313Y0131062D01*
X0173313Y0131562D01*
X0173063Y0131812D01*
X0172062Y0130811D01*
X0171812Y0131062D01*
X0171812Y0131562D01*
X0172062Y0131812D01*
X0173063Y0131812D01*
X0173063Y0130811D02*
X0172062Y0130811D01*
X0171812Y0127865D02*
X0173313Y0127865D01*
X0165813Y0127865D02*
X0164312Y0127865D01*
X0164312Y0127365D02*
X0164312Y0128366D01*
X0164312Y0128838D02*
X0165813Y0128838D01*
X0165313Y0129339D01*
X0165813Y0129839D01*
X0164312Y0129839D01*
X0165813Y0127865D02*
X0165313Y0127365D01*
X0130025Y0149730D02*
X0128523Y0149730D01*
X0128523Y0150230D02*
X0128523Y0149229D01*
X0129524Y0149229D02*
X0130025Y0149730D01*
X0130025Y0150703D02*
X0128523Y0150703D01*
X0128523Y0151704D02*
X0130025Y0151704D01*
X0129524Y0151203D01*
X0130025Y0150703D01*
X0122525Y0150953D02*
X0121774Y0150203D01*
X0121774Y0151204D01*
X0121023Y0150953D02*
X0122525Y0150953D01*
X0122274Y0149730D02*
X0122525Y0149480D01*
X0122525Y0148980D01*
X0122274Y0148729D01*
X0122274Y0148257D02*
X0121774Y0148257D01*
X0121524Y0148007D01*
X0121524Y0147256D01*
X0121524Y0147757D02*
X0121023Y0148257D01*
X0121023Y0148729D02*
X0122024Y0149730D01*
X0122274Y0149730D01*
X0121023Y0149730D02*
X0121023Y0148729D01*
X0122274Y0148257D02*
X0122525Y0148007D01*
X0122525Y0147256D01*
X0121023Y0147256D01*
X0107918Y0152319D02*
X0106417Y0152319D01*
X0106417Y0152819D02*
X0106417Y0151818D01*
X0107418Y0151818D02*
X0107918Y0152319D01*
X0107668Y0153292D02*
X0107918Y0153542D01*
X0107918Y0154042D01*
X0107668Y0154292D01*
X0106667Y0153292D01*
X0106417Y0153542D01*
X0106417Y0154042D01*
X0106667Y0154292D01*
X0107668Y0154292D01*
X0107418Y0154765D02*
X0106667Y0154765D01*
X0106417Y0155015D01*
X0106417Y0155766D01*
X0107418Y0155766D01*
X0107168Y0156238D02*
X0107168Y0156739D01*
X0107918Y0156238D02*
X0107918Y0157239D01*
X0107918Y0156238D02*
X0106417Y0156238D01*
X0106667Y0153292D02*
X0107668Y0153292D01*
X0101847Y0162687D02*
X0102347Y0163187D01*
X0100846Y0163187D01*
X0100846Y0162687D02*
X0100846Y0163688D01*
X0101096Y0164160D02*
X0102097Y0165161D01*
X0101096Y0165161D01*
X0100846Y0164911D01*
X0100846Y0164410D01*
X0101096Y0164160D01*
X0102097Y0164160D01*
X0102347Y0164410D01*
X0102347Y0164911D01*
X0102097Y0165161D01*
X0102347Y0165633D02*
X0100846Y0165633D01*
X0101346Y0165633D02*
X0101847Y0166384D01*
X0101346Y0165633D02*
X0100846Y0166384D01*
X0106224Y0166371D02*
X0107225Y0167372D01*
X0107475Y0167372D01*
X0107725Y0167122D01*
X0107725Y0166621D01*
X0107475Y0166371D01*
X0107475Y0165899D02*
X0107725Y0165649D01*
X0107725Y0165148D01*
X0107475Y0164898D01*
X0106474Y0164898D01*
X0106224Y0165148D01*
X0106224Y0165649D01*
X0106474Y0165899D01*
X0106224Y0166371D02*
X0106224Y0167372D01*
X0106474Y0167844D02*
X0107475Y0168845D01*
X0106474Y0168845D01*
X0106224Y0168595D01*
X0106224Y0168095D01*
X0106474Y0167844D01*
X0107475Y0167844D01*
X0107725Y0168095D01*
X0107725Y0168595D01*
X0107475Y0168845D01*
X0094847Y0165388D02*
X0093346Y0165388D01*
X0093346Y0164888D02*
X0093346Y0165889D01*
X0094347Y0164888D02*
X0094847Y0165388D01*
X0094597Y0164415D02*
X0094847Y0164165D01*
X0094847Y0163665D01*
X0094597Y0163415D01*
X0094597Y0162942D02*
X0094097Y0162942D01*
X0093846Y0162692D01*
X0093846Y0161941D01*
X0093346Y0161941D02*
X0094847Y0161941D01*
X0094847Y0162692D01*
X0094597Y0162942D01*
X0093846Y0162442D02*
X0093346Y0162942D01*
X0093346Y0163415D02*
X0094347Y0164415D01*
X0094597Y0164415D01*
X0093346Y0164415D02*
X0093346Y0163415D01*
X0067111Y0167840D02*
X0065610Y0167840D01*
X0065610Y0167340D02*
X0065610Y0168341D01*
X0065610Y0168813D02*
X0067111Y0168813D01*
X0066611Y0169313D01*
X0067111Y0169814D01*
X0065610Y0169814D01*
X0067111Y0167840D02*
X0066611Y0167340D01*
X0059611Y0167590D02*
X0059361Y0167841D01*
X0058860Y0167841D01*
X0058610Y0167590D01*
X0058610Y0166840D01*
X0058610Y0167340D02*
X0058110Y0167841D01*
X0058360Y0168313D02*
X0058110Y0168563D01*
X0058110Y0169064D01*
X0058360Y0169314D01*
X0059361Y0169314D01*
X0059611Y0169064D01*
X0059611Y0168563D01*
X0059361Y0168313D01*
X0059111Y0168313D01*
X0058860Y0168563D01*
X0058860Y0169314D01*
X0059611Y0167590D02*
X0059611Y0166840D01*
X0058110Y0166840D01*
X0044733Y0166872D02*
X0044233Y0166371D01*
X0044483Y0165899D02*
X0044733Y0165649D01*
X0044733Y0165148D01*
X0044483Y0164898D01*
X0043482Y0164898D01*
X0043232Y0165148D01*
X0043232Y0165649D01*
X0043482Y0165899D01*
X0043232Y0166371D02*
X0043232Y0167372D01*
X0043232Y0166872D02*
X0044733Y0166872D01*
X0044483Y0167844D02*
X0044733Y0168095D01*
X0044733Y0168595D01*
X0044483Y0168845D01*
X0043482Y0167844D01*
X0043232Y0168095D01*
X0043232Y0168595D01*
X0043482Y0168845D01*
X0044483Y0168845D01*
X0044483Y0167844D02*
X0043482Y0167844D01*
X0039355Y0165633D02*
X0037854Y0165633D01*
X0038354Y0165633D02*
X0038855Y0166384D01*
X0038354Y0165633D02*
X0037854Y0166384D01*
X0038104Y0165161D02*
X0037854Y0164911D01*
X0037854Y0164410D01*
X0038104Y0164160D01*
X0039105Y0165161D01*
X0038104Y0165161D01*
X0038104Y0164160D02*
X0039105Y0164160D01*
X0039355Y0164410D01*
X0039355Y0164911D01*
X0039105Y0165161D01*
X0037854Y0163688D02*
X0037854Y0162687D01*
X0037854Y0163187D02*
X0039355Y0163187D01*
X0038855Y0162687D01*
X0044926Y0157239D02*
X0044926Y0156238D01*
X0043425Y0156238D01*
X0043425Y0155766D02*
X0044426Y0155766D01*
X0044175Y0156238D02*
X0044175Y0156739D01*
X0043425Y0155766D02*
X0043425Y0155015D01*
X0043675Y0154765D01*
X0044426Y0154765D01*
X0044676Y0154292D02*
X0043675Y0153292D01*
X0043425Y0153542D01*
X0043425Y0154042D01*
X0043675Y0154292D01*
X0044676Y0154292D01*
X0044926Y0154042D01*
X0044926Y0153542D01*
X0044676Y0153292D01*
X0043675Y0153292D01*
X0043425Y0152819D02*
X0043425Y0151818D01*
X0043425Y0152319D02*
X0044926Y0152319D01*
X0044426Y0151818D01*
X0058031Y0150953D02*
X0058031Y0150453D01*
X0058281Y0150203D01*
X0058532Y0150203D01*
X0058782Y0150453D01*
X0058782Y0150953D01*
X0058532Y0151204D01*
X0058281Y0151204D01*
X0058031Y0150953D01*
X0058782Y0150953D02*
X0059032Y0151204D01*
X0059282Y0151204D01*
X0059532Y0150953D01*
X0059532Y0150453D01*
X0059282Y0150203D01*
X0059032Y0150203D01*
X0058782Y0150453D01*
X0058782Y0149730D02*
X0058532Y0149480D01*
X0058532Y0148729D01*
X0058532Y0149230D02*
X0058031Y0149730D01*
X0058782Y0149730D02*
X0059282Y0149730D01*
X0059532Y0149480D01*
X0059532Y0148729D01*
X0058031Y0148729D01*
X0065531Y0149229D02*
X0065531Y0150230D01*
X0065531Y0150703D02*
X0067032Y0150703D01*
X0066532Y0151203D01*
X0067032Y0151704D01*
X0065531Y0151704D01*
X0065531Y0149730D02*
X0067032Y0149730D01*
X0066532Y0149229D01*
X0059140Y0130300D02*
X0059140Y0129299D01*
X0058390Y0129299D01*
X0058640Y0129799D01*
X0058640Y0130049D01*
X0058390Y0130300D01*
X0057889Y0130300D01*
X0057639Y0130049D01*
X0057639Y0129549D01*
X0057889Y0129299D01*
X0057639Y0128826D02*
X0058139Y0128326D01*
X0058139Y0128576D02*
X0058139Y0127826D01*
X0057639Y0127826D02*
X0059140Y0127826D01*
X0059140Y0128576D01*
X0058890Y0128826D01*
X0058390Y0128826D01*
X0058139Y0128576D01*
X0051640Y0128799D02*
X0051140Y0129299D01*
X0051640Y0129800D01*
X0050139Y0129800D01*
X0050139Y0128799D02*
X0051640Y0128799D01*
X0051640Y0127826D02*
X0050139Y0127826D01*
X0050139Y0127326D02*
X0050139Y0128326D01*
X0051140Y0127326D02*
X0051640Y0127826D01*
X0047329Y0127865D02*
X0047329Y0128616D01*
X0047079Y0128866D01*
X0046579Y0128866D01*
X0046328Y0128616D01*
X0046328Y0127865D01*
X0045828Y0127865D02*
X0047329Y0127865D01*
X0046328Y0128365D02*
X0045828Y0128866D01*
X0046579Y0129338D02*
X0046579Y0130339D01*
X0047329Y0130089D02*
X0046579Y0129338D01*
X0047329Y0130089D02*
X0045828Y0130089D01*
X0039829Y0129839D02*
X0038328Y0129839D01*
X0038328Y0128838D02*
X0039829Y0128838D01*
X0039329Y0129339D01*
X0039829Y0129839D01*
X0039829Y0127865D02*
X0038328Y0127865D01*
X0038328Y0127365D02*
X0038328Y0128366D01*
X0039329Y0127365D02*
X0039829Y0127865D01*
X0031855Y0161941D02*
X0031855Y0162692D01*
X0031605Y0162942D01*
X0031105Y0162942D01*
X0030854Y0162692D01*
X0030854Y0161941D01*
X0030354Y0161941D02*
X0031855Y0161941D01*
X0030854Y0162442D02*
X0030354Y0162942D01*
X0030354Y0163415D02*
X0030354Y0164415D01*
X0030354Y0163915D02*
X0031855Y0163915D01*
X0031355Y0163415D01*
X0031605Y0164888D02*
X0031855Y0165138D01*
X0031855Y0165638D01*
X0031605Y0165889D01*
X0030604Y0164888D01*
X0030354Y0165138D01*
X0030354Y0165638D01*
X0030604Y0165889D01*
X0031605Y0165889D01*
X0031605Y0164888D02*
X0030604Y0164888D01*
X0029626Y0208223D02*
X0028625Y0208223D01*
X0029125Y0208223D02*
X0029125Y0209725D01*
X0029626Y0209224D01*
X0028152Y0209474D02*
X0027902Y0209725D01*
X0027402Y0209725D01*
X0027151Y0209474D01*
X0028152Y0208473D01*
X0027902Y0208223D01*
X0027402Y0208223D01*
X0027151Y0208473D01*
X0027151Y0209474D01*
X0026679Y0209224D02*
X0026679Y0208473D01*
X0026429Y0208223D01*
X0025678Y0208223D01*
X0025678Y0209224D01*
X0025206Y0208974D02*
X0024705Y0208974D01*
X0025206Y0209725D02*
X0024205Y0209725D01*
X0025206Y0209725D02*
X0025206Y0208223D01*
X0028152Y0208473D02*
X0028152Y0209474D01*
X0038758Y0209417D02*
X0038758Y0209667D01*
X0039008Y0209917D01*
X0039508Y0209917D01*
X0039759Y0209667D01*
X0040231Y0209667D02*
X0040481Y0209917D01*
X0040982Y0209917D01*
X0041232Y0209667D01*
X0041232Y0208666D01*
X0040982Y0208416D01*
X0040481Y0208416D01*
X0040231Y0208666D01*
X0039759Y0208416D02*
X0038758Y0209417D01*
X0038758Y0208416D02*
X0039759Y0208416D01*
X0044514Y0226178D02*
X0045014Y0226178D01*
X0045264Y0226429D01*
X0045737Y0226429D02*
X0045987Y0226178D01*
X0046487Y0226178D01*
X0046737Y0226429D01*
X0046737Y0227429D01*
X0046487Y0227680D01*
X0045987Y0227680D01*
X0045737Y0227429D01*
X0045264Y0227429D02*
X0045014Y0227680D01*
X0044514Y0227680D01*
X0044263Y0227429D01*
X0044263Y0227179D01*
X0044514Y0226929D01*
X0044263Y0226679D01*
X0044263Y0226429D01*
X0044514Y0226178D01*
X0044514Y0226929D02*
X0044764Y0226929D01*
X0055870Y0227873D02*
X0056871Y0227873D01*
X0056871Y0226371D01*
X0057343Y0226371D02*
X0057343Y0227372D01*
X0056871Y0227122D02*
X0056370Y0227122D01*
X0057343Y0226371D02*
X0058094Y0226371D01*
X0058344Y0226621D01*
X0058344Y0227372D01*
X0058816Y0227622D02*
X0059817Y0226621D01*
X0059567Y0226371D01*
X0059066Y0226371D01*
X0058816Y0226621D01*
X0058816Y0227622D01*
X0059066Y0227873D01*
X0059567Y0227873D01*
X0059817Y0227622D01*
X0059817Y0226621D01*
X0060289Y0226371D02*
X0061290Y0226371D01*
X0060790Y0226371D02*
X0060790Y0227873D01*
X0061290Y0227372D01*
X0100956Y0269987D02*
X0100706Y0270237D01*
X0100706Y0270738D01*
X0100956Y0270988D01*
X0100956Y0271460D02*
X0100706Y0271710D01*
X0100706Y0272211D01*
X0100956Y0272461D01*
X0101206Y0272461D01*
X0101457Y0272211D01*
X0101457Y0271460D01*
X0100956Y0271460D01*
X0101457Y0271460D02*
X0101957Y0271961D01*
X0102207Y0272461D01*
X0101957Y0270988D02*
X0102207Y0270738D01*
X0102207Y0270237D01*
X0101957Y0269987D01*
X0100956Y0269987D01*
X0100513Y0281593D02*
X0100513Y0282594D01*
X0100513Y0282094D02*
X0102014Y0282094D01*
X0101514Y0281593D01*
X0101764Y0283067D02*
X0102014Y0283317D01*
X0102014Y0283817D01*
X0101764Y0284067D01*
X0100763Y0283067D01*
X0100513Y0283317D01*
X0100513Y0283817D01*
X0100763Y0284067D01*
X0101764Y0284067D01*
X0101514Y0284540D02*
X0100763Y0284540D01*
X0100513Y0284790D01*
X0100513Y0285541D01*
X0101514Y0285541D01*
X0101264Y0286013D02*
X0101264Y0286513D01*
X0102014Y0286013D02*
X0102014Y0287014D01*
X0102014Y0286013D02*
X0100513Y0286013D01*
X0100763Y0283067D02*
X0101764Y0283067D01*
X0109370Y0291070D02*
X0109370Y0292071D01*
X0109370Y0291571D02*
X0110871Y0291571D01*
X0110371Y0291070D01*
X0110621Y0292544D02*
X0110871Y0292794D01*
X0110871Y0293294D01*
X0110621Y0293544D01*
X0109620Y0292544D01*
X0109370Y0292794D01*
X0109370Y0293294D01*
X0109620Y0293544D01*
X0110621Y0293544D01*
X0110371Y0294017D02*
X0109620Y0294017D01*
X0109370Y0294267D01*
X0109370Y0295018D01*
X0110371Y0295018D01*
X0110120Y0295490D02*
X0110120Y0295991D01*
X0109370Y0295490D02*
X0110871Y0295490D01*
X0110871Y0296491D01*
X0110621Y0292544D02*
X0109620Y0292544D01*
X0109427Y0304150D02*
X0109177Y0304400D01*
X0109177Y0304901D01*
X0109427Y0305151D01*
X0109177Y0305623D02*
X0110178Y0306624D01*
X0110428Y0306624D01*
X0110678Y0306374D01*
X0110678Y0305873D01*
X0110428Y0305623D01*
X0110428Y0305151D02*
X0110678Y0304901D01*
X0110678Y0304400D01*
X0110428Y0304150D01*
X0109427Y0304150D01*
X0109177Y0305623D02*
X0109177Y0306624D01*
X0109177Y0307096D02*
X0109177Y0308097D01*
X0109177Y0307597D02*
X0110678Y0307597D01*
X0110178Y0307096D01*
X0147757Y0286013D02*
X0149258Y0286013D01*
X0149258Y0287014D01*
X0148508Y0286513D02*
X0148508Y0286013D01*
X0148758Y0285541D02*
X0147757Y0285541D01*
X0147757Y0284790D01*
X0148007Y0284540D01*
X0148758Y0284540D01*
X0149008Y0284067D02*
X0148007Y0283067D01*
X0147757Y0283317D01*
X0147757Y0283817D01*
X0148007Y0284067D01*
X0149008Y0284067D01*
X0149258Y0283817D01*
X0149258Y0283317D01*
X0149008Y0283067D01*
X0148007Y0283067D01*
X0147757Y0282594D02*
X0147757Y0281593D01*
X0147757Y0282094D02*
X0149258Y0282094D01*
X0148758Y0281593D01*
X0148951Y0273934D02*
X0148701Y0273684D01*
X0148701Y0273184D01*
X0148951Y0272934D01*
X0149201Y0272934D01*
X0149451Y0273184D01*
X0149451Y0273684D01*
X0149201Y0273934D01*
X0148951Y0273934D01*
X0148701Y0273684D02*
X0148450Y0273934D01*
X0148200Y0273934D01*
X0147950Y0273684D01*
X0147950Y0273184D01*
X0148200Y0272934D01*
X0148450Y0272934D01*
X0148701Y0273184D01*
X0147950Y0272461D02*
X0147950Y0271460D01*
X0147950Y0271961D02*
X0149451Y0271961D01*
X0148951Y0271460D01*
X0149201Y0270988D02*
X0149451Y0270738D01*
X0149451Y0270237D01*
X0149201Y0269987D01*
X0148200Y0269987D01*
X0147950Y0270237D01*
X0147950Y0270738D01*
X0148200Y0270988D01*
X0160551Y0291070D02*
X0160551Y0292071D01*
X0160551Y0291571D02*
X0162052Y0291571D01*
X0161552Y0291070D01*
X0161802Y0292544D02*
X0162052Y0292794D01*
X0162052Y0293294D01*
X0161802Y0293544D01*
X0160801Y0292544D01*
X0160551Y0292794D01*
X0160551Y0293294D01*
X0160801Y0293544D01*
X0161802Y0293544D01*
X0161552Y0294017D02*
X0160801Y0294017D01*
X0160551Y0294267D01*
X0160551Y0295018D01*
X0161552Y0295018D01*
X0161301Y0295490D02*
X0161301Y0295991D01*
X0160551Y0295490D02*
X0162052Y0295490D01*
X0162052Y0296491D01*
X0161802Y0292544D02*
X0160801Y0292544D01*
X0160608Y0304150D02*
X0160358Y0304400D01*
X0160358Y0304901D01*
X0160608Y0305151D01*
X0160358Y0305623D02*
X0161359Y0306624D01*
X0161609Y0306624D01*
X0161859Y0306374D01*
X0161859Y0305873D01*
X0161609Y0305623D01*
X0161609Y0305151D02*
X0161859Y0304901D01*
X0161859Y0304400D01*
X0161609Y0304150D01*
X0160608Y0304150D01*
X0160358Y0305623D02*
X0160358Y0306624D01*
X0160358Y0307096D02*
X0160608Y0307096D01*
X0161609Y0308097D01*
X0161859Y0308097D01*
X0161859Y0307096D01*
X0202875Y0286013D02*
X0204376Y0286013D01*
X0204376Y0287014D01*
X0203626Y0286513D02*
X0203626Y0286013D01*
X0203876Y0285541D02*
X0202875Y0285541D01*
X0202875Y0284790D01*
X0203125Y0284540D01*
X0203876Y0284540D01*
X0204126Y0284067D02*
X0203125Y0284067D01*
X0202875Y0283817D01*
X0202875Y0283317D01*
X0203125Y0283067D01*
X0204126Y0284067D01*
X0204376Y0283817D01*
X0204376Y0283317D01*
X0204126Y0283067D01*
X0203125Y0283067D01*
X0202875Y0282594D02*
X0202875Y0281593D01*
X0202875Y0282094D02*
X0204376Y0282094D01*
X0203876Y0281593D01*
X0203819Y0273934D02*
X0203819Y0272934D01*
X0204569Y0273684D01*
X0203068Y0273684D01*
X0203068Y0272461D02*
X0203068Y0271460D01*
X0204069Y0272461D01*
X0204319Y0272461D01*
X0204569Y0272211D01*
X0204569Y0271710D01*
X0204319Y0271460D01*
X0204319Y0270988D02*
X0204569Y0270738D01*
X0204569Y0270237D01*
X0204319Y0269987D01*
X0203318Y0269987D01*
X0203068Y0270237D01*
X0203068Y0270738D01*
X0203318Y0270988D01*
X0211732Y0291070D02*
X0211732Y0292071D01*
X0211732Y0291571D02*
X0213233Y0291571D01*
X0212733Y0291070D01*
X0212983Y0292544D02*
X0213233Y0292794D01*
X0213233Y0293294D01*
X0212983Y0293544D01*
X0211982Y0292544D01*
X0211732Y0292794D01*
X0211732Y0293294D01*
X0211982Y0293544D01*
X0212983Y0293544D01*
X0212733Y0294017D02*
X0211982Y0294017D01*
X0211732Y0294267D01*
X0211732Y0295018D01*
X0212733Y0295018D01*
X0212483Y0295490D02*
X0212483Y0295991D01*
X0213233Y0295490D02*
X0213233Y0296491D01*
X0213233Y0295490D02*
X0211732Y0295490D01*
X0211982Y0292544D02*
X0212983Y0292544D01*
X0212790Y0304150D02*
X0211789Y0304150D01*
X0211539Y0304400D01*
X0211539Y0304901D01*
X0211789Y0305151D01*
X0212290Y0305623D02*
X0212290Y0306624D01*
X0212290Y0307096D02*
X0212540Y0307597D01*
X0212540Y0307847D01*
X0212290Y0308097D01*
X0211789Y0308097D01*
X0211539Y0307847D01*
X0211539Y0307347D01*
X0211789Y0307096D01*
X0212290Y0307096D02*
X0213040Y0307096D01*
X0213040Y0308097D01*
X0213040Y0306374D02*
X0211539Y0306374D01*
X0212290Y0305623D02*
X0213040Y0306374D01*
X0212790Y0305151D02*
X0213040Y0304901D01*
X0213040Y0304400D01*
X0212790Y0304150D01*
X0254056Y0286013D02*
X0255558Y0286013D01*
X0255558Y0287014D01*
X0254807Y0286513D02*
X0254807Y0286013D01*
X0255057Y0285541D02*
X0254056Y0285541D01*
X0254056Y0284790D01*
X0254307Y0284540D01*
X0255057Y0284540D01*
X0255307Y0284067D02*
X0254307Y0283067D01*
X0254056Y0283317D01*
X0254056Y0283817D01*
X0254307Y0284067D01*
X0255307Y0284067D01*
X0255558Y0283817D01*
X0255558Y0283317D01*
X0255307Y0283067D01*
X0254307Y0283067D01*
X0254056Y0282594D02*
X0254056Y0281593D01*
X0254056Y0282094D02*
X0255558Y0282094D01*
X0255057Y0281593D01*
X0255250Y0273934D02*
X0255500Y0273934D01*
X0255750Y0273684D01*
X0255750Y0273184D01*
X0255500Y0272934D01*
X0255000Y0272461D02*
X0255000Y0271460D01*
X0255750Y0272211D01*
X0254249Y0272211D01*
X0254249Y0272934D02*
X0255250Y0273934D01*
X0254249Y0273934D02*
X0254249Y0272934D01*
X0254499Y0270988D02*
X0254249Y0270738D01*
X0254249Y0270237D01*
X0254499Y0269987D01*
X0255500Y0269987D01*
X0255750Y0270237D01*
X0255750Y0270738D01*
X0255500Y0270988D01*
X0262913Y0291070D02*
X0262913Y0292071D01*
X0262913Y0291571D02*
X0264414Y0291571D01*
X0263914Y0291070D01*
X0264164Y0292544D02*
X0264414Y0292794D01*
X0264414Y0293294D01*
X0264164Y0293544D01*
X0263163Y0292544D01*
X0262913Y0292794D01*
X0262913Y0293294D01*
X0263163Y0293544D01*
X0264164Y0293544D01*
X0263914Y0294017D02*
X0263163Y0294017D01*
X0262913Y0294267D01*
X0262913Y0295018D01*
X0263914Y0295018D01*
X0263664Y0295490D02*
X0263664Y0295991D01*
X0264414Y0295490D02*
X0264414Y0296491D01*
X0264414Y0295490D02*
X0262913Y0295490D01*
X0263163Y0292544D02*
X0264164Y0292544D01*
X0263971Y0304150D02*
X0262970Y0304150D01*
X0262720Y0304400D01*
X0262720Y0304901D01*
X0262970Y0305151D01*
X0262970Y0305623D02*
X0262720Y0305873D01*
X0262720Y0306374D01*
X0262970Y0306624D01*
X0263471Y0306624D01*
X0263721Y0306374D01*
X0263721Y0306124D01*
X0263471Y0305623D01*
X0264221Y0305623D01*
X0264221Y0306624D01*
X0263721Y0307096D02*
X0264221Y0307597D01*
X0262720Y0307597D01*
X0262720Y0308097D02*
X0262720Y0307096D01*
X0263971Y0305151D02*
X0264221Y0304901D01*
X0264221Y0304400D01*
X0263971Y0304150D01*
X0305237Y0286013D02*
X0306739Y0286013D01*
X0306739Y0287014D01*
X0305988Y0286513D02*
X0305988Y0286013D01*
X0306238Y0285541D02*
X0305237Y0285541D01*
X0305237Y0284790D01*
X0305488Y0284540D01*
X0306238Y0284540D01*
X0306488Y0284067D02*
X0305488Y0283067D01*
X0305237Y0283317D01*
X0305237Y0283817D01*
X0305488Y0284067D01*
X0306488Y0284067D01*
X0306739Y0283817D01*
X0306739Y0283317D01*
X0306488Y0283067D01*
X0305488Y0283067D01*
X0305237Y0282594D02*
X0305237Y0281593D01*
X0305237Y0282094D02*
X0306739Y0282094D01*
X0306238Y0281593D01*
X0306431Y0273934D02*
X0306181Y0273684D01*
X0306181Y0273184D01*
X0306431Y0272934D01*
X0306681Y0272934D01*
X0306932Y0273184D01*
X0306932Y0273684D01*
X0306681Y0273934D01*
X0306431Y0273934D01*
X0306181Y0273684D02*
X0305931Y0273934D01*
X0305681Y0273934D01*
X0305430Y0273684D01*
X0305430Y0273184D01*
X0305681Y0272934D01*
X0305931Y0272934D01*
X0306181Y0273184D01*
X0306181Y0272461D02*
X0306181Y0271460D01*
X0306932Y0272211D01*
X0305430Y0272211D01*
X0305681Y0270988D02*
X0305430Y0270738D01*
X0305430Y0270237D01*
X0305681Y0269987D01*
X0306681Y0269987D01*
X0306932Y0270237D01*
X0306932Y0270738D01*
X0306681Y0270988D01*
X0314094Y0291070D02*
X0314094Y0292071D01*
X0314094Y0291571D02*
X0315595Y0291571D01*
X0315095Y0291070D01*
X0315345Y0292544D02*
X0315595Y0292794D01*
X0315595Y0293294D01*
X0315345Y0293544D01*
X0314344Y0292544D01*
X0314094Y0292794D01*
X0314094Y0293294D01*
X0314344Y0293544D01*
X0315345Y0293544D01*
X0315095Y0294017D02*
X0314344Y0294017D01*
X0314094Y0294267D01*
X0314094Y0295018D01*
X0315095Y0295018D01*
X0314845Y0295490D02*
X0314845Y0295991D01*
X0315595Y0295490D02*
X0315595Y0296491D01*
X0315595Y0295490D02*
X0314094Y0295490D01*
X0314344Y0292544D02*
X0315345Y0292544D01*
X0315152Y0304150D02*
X0314151Y0304150D01*
X0313901Y0304400D01*
X0313901Y0304901D01*
X0314151Y0305151D01*
X0314151Y0305623D02*
X0313901Y0305873D01*
X0313901Y0306374D01*
X0314151Y0306624D01*
X0314652Y0306624D01*
X0314902Y0306374D01*
X0314902Y0306124D01*
X0314652Y0305623D01*
X0315402Y0305623D01*
X0315402Y0306624D01*
X0315402Y0307096D02*
X0315402Y0308097D01*
X0315152Y0308097D01*
X0314151Y0307096D01*
X0313901Y0307096D01*
X0315152Y0305151D02*
X0315402Y0304901D01*
X0315402Y0304400D01*
X0315152Y0304150D01*
X0352481Y0286013D02*
X0353983Y0286013D01*
X0353983Y0287014D01*
X0353232Y0286513D02*
X0353232Y0286013D01*
X0353482Y0285541D02*
X0352481Y0285541D01*
X0352481Y0284790D01*
X0352732Y0284540D01*
X0353482Y0284540D01*
X0353733Y0284067D02*
X0352732Y0283067D01*
X0352481Y0283317D01*
X0352481Y0283817D01*
X0352732Y0284067D01*
X0353733Y0284067D01*
X0353983Y0283817D01*
X0353983Y0283317D01*
X0353733Y0283067D01*
X0352732Y0283067D01*
X0352481Y0282594D02*
X0352481Y0281593D01*
X0352481Y0282094D02*
X0353983Y0282094D01*
X0353482Y0281593D01*
X0353425Y0273934D02*
X0353425Y0272934D01*
X0354176Y0273684D01*
X0352674Y0273684D01*
X0352925Y0272461D02*
X0352674Y0272211D01*
X0352674Y0271710D01*
X0352925Y0271460D01*
X0352925Y0270988D02*
X0352674Y0270738D01*
X0352674Y0270237D01*
X0352925Y0269987D01*
X0353925Y0269987D01*
X0354176Y0270237D01*
X0354176Y0270738D01*
X0353925Y0270988D01*
X0354176Y0271460D02*
X0353425Y0271460D01*
X0353675Y0271961D01*
X0353675Y0272211D01*
X0353425Y0272461D01*
X0352925Y0272461D01*
X0354176Y0272461D02*
X0354176Y0271460D01*
X0352629Y0246971D02*
X0352879Y0246721D01*
X0352879Y0245720D01*
X0352629Y0245470D01*
X0352129Y0245470D01*
X0351878Y0245720D01*
X0351406Y0245470D02*
X0350405Y0245470D01*
X0350906Y0245470D02*
X0350906Y0246971D01*
X0351406Y0246471D01*
X0351878Y0246721D02*
X0352129Y0246971D01*
X0352629Y0246971D01*
X0362011Y0247164D02*
X0363012Y0247164D01*
X0363012Y0245663D01*
X0363485Y0245663D02*
X0363485Y0246663D01*
X0363012Y0246413D02*
X0362512Y0246413D01*
X0363485Y0245663D02*
X0364235Y0245663D01*
X0364486Y0245913D01*
X0364486Y0246663D01*
X0364958Y0246914D02*
X0365959Y0245913D01*
X0365709Y0245663D01*
X0365208Y0245663D01*
X0364958Y0245913D01*
X0364958Y0246914D01*
X0365208Y0247164D01*
X0365709Y0247164D01*
X0365959Y0246914D01*
X0365959Y0245913D01*
X0366431Y0245663D02*
X0367432Y0245663D01*
X0366932Y0245663D02*
X0366932Y0247164D01*
X0367432Y0246663D01*
X0372978Y0227680D02*
X0373729Y0226929D01*
X0372728Y0226929D01*
X0372978Y0226178D02*
X0372978Y0227680D01*
X0374201Y0227429D02*
X0374451Y0227680D01*
X0374952Y0227680D01*
X0375202Y0227429D01*
X0375202Y0226429D01*
X0374952Y0226178D01*
X0374451Y0226178D01*
X0374201Y0226429D01*
X0384334Y0227873D02*
X0385335Y0227873D01*
X0385335Y0226371D01*
X0385807Y0226371D02*
X0385807Y0227372D01*
X0385335Y0227122D02*
X0384835Y0227122D01*
X0385807Y0226371D02*
X0386558Y0226371D01*
X0386808Y0226621D01*
X0386808Y0227372D01*
X0387281Y0227622D02*
X0388282Y0226621D01*
X0388031Y0226371D01*
X0387531Y0226371D01*
X0387281Y0226621D01*
X0387281Y0227622D01*
X0387531Y0227873D01*
X0388031Y0227873D01*
X0388282Y0227622D01*
X0388282Y0226621D01*
X0388754Y0226371D02*
X0389755Y0226371D01*
X0389254Y0226371D02*
X0389254Y0227873D01*
X0389755Y0227372D01*
X0366035Y0209510D02*
X0366035Y0208509D01*
X0365785Y0208259D01*
X0365284Y0208259D01*
X0365034Y0208509D01*
X0364562Y0208509D02*
X0364312Y0208259D01*
X0363811Y0208259D01*
X0363561Y0208509D01*
X0363561Y0209009D01*
X0363811Y0209260D01*
X0364061Y0209260D01*
X0364562Y0209009D01*
X0364562Y0209760D01*
X0363561Y0209760D01*
X0365034Y0209510D02*
X0365284Y0209760D01*
X0365785Y0209760D01*
X0366035Y0209510D01*
X0354429Y0209067D02*
X0353928Y0209567D01*
X0353928Y0208066D01*
X0353428Y0208066D02*
X0354429Y0208066D01*
X0352955Y0208316D02*
X0351955Y0209317D01*
X0351955Y0208316D01*
X0352205Y0208066D01*
X0352705Y0208066D01*
X0352955Y0208316D01*
X0352955Y0209317D01*
X0352705Y0209567D01*
X0352205Y0209567D01*
X0351955Y0209317D01*
X0351482Y0209067D02*
X0351482Y0208316D01*
X0351232Y0208066D01*
X0350481Y0208066D01*
X0350481Y0209067D01*
X0350009Y0208816D02*
X0349509Y0208816D01*
X0350009Y0208066D02*
X0350009Y0209567D01*
X0349008Y0209567D01*
X0256087Y0169814D02*
X0254586Y0169814D01*
X0254586Y0168813D02*
X0256087Y0168813D01*
X0255587Y0169313D01*
X0256087Y0169814D01*
X0256087Y0167840D02*
X0254586Y0167840D01*
X0254586Y0167340D02*
X0254586Y0168341D01*
X0255587Y0167340D02*
X0256087Y0167840D01*
X0248587Y0167841D02*
X0248587Y0166840D01*
X0247837Y0166840D01*
X0248087Y0167340D01*
X0248087Y0167590D01*
X0247837Y0167841D01*
X0247336Y0167841D01*
X0247086Y0167590D01*
X0247086Y0167090D01*
X0247336Y0166840D01*
X0247086Y0166367D02*
X0247587Y0165867D01*
X0247587Y0166117D02*
X0247587Y0165366D01*
X0247086Y0165366D02*
X0248587Y0165366D01*
X0248587Y0166117D01*
X0248337Y0166367D01*
X0247837Y0166367D01*
X0247587Y0166117D01*
X0247336Y0168313D02*
X0247086Y0168313D01*
X0247336Y0168313D02*
X0248337Y0169314D01*
X0248587Y0169314D01*
X0248587Y0168313D01*
X0219956Y0197770D02*
X0218955Y0197770D01*
X0218483Y0197770D02*
X0218483Y0199272D01*
X0217983Y0198771D01*
X0217482Y0199272D01*
X0217482Y0197770D01*
X0219456Y0197770D02*
X0219456Y0199272D01*
X0219956Y0198771D01*
X0219456Y0205270D02*
X0219456Y0206772D01*
X0218706Y0206772D01*
X0218455Y0206522D01*
X0218455Y0206021D01*
X0218706Y0205771D01*
X0219456Y0205771D01*
X0218956Y0205771D02*
X0218455Y0205270D01*
X0217983Y0205270D02*
X0216982Y0206271D01*
X0216982Y0206522D01*
X0217232Y0206772D01*
X0217733Y0206772D01*
X0217983Y0206522D01*
X0217983Y0205270D02*
X0216982Y0205270D01*
X0204208Y0198732D02*
X0203708Y0199232D01*
X0203708Y0197731D01*
X0204208Y0197731D02*
X0203207Y0197731D01*
X0202735Y0197731D02*
X0202735Y0199232D01*
X0202235Y0198732D01*
X0201734Y0199232D01*
X0201734Y0197731D01*
X0201484Y0205231D02*
X0201985Y0205231D01*
X0202235Y0205481D01*
X0202707Y0205231D02*
X0203208Y0205732D01*
X0202958Y0205732D02*
X0203708Y0205732D01*
X0203708Y0205231D02*
X0203708Y0206732D01*
X0202958Y0206732D01*
X0202707Y0206482D01*
X0202707Y0205982D01*
X0202958Y0205732D01*
X0202235Y0206482D02*
X0201985Y0206732D01*
X0201484Y0206732D01*
X0201234Y0206482D01*
X0201234Y0206232D01*
X0201484Y0205982D01*
X0201234Y0205732D01*
X0201234Y0205481D01*
X0201484Y0205231D01*
X0201484Y0205982D02*
X0201735Y0205982D01*
X0242952Y0246092D02*
X0244454Y0246092D01*
X0244454Y0246842D01*
X0244203Y0247093D01*
X0243703Y0247093D01*
X0243453Y0246842D01*
X0243453Y0246092D01*
X0243453Y0246592D02*
X0242952Y0247093D01*
X0242952Y0247565D02*
X0242952Y0248566D01*
X0242952Y0248065D02*
X0244454Y0248065D01*
X0243953Y0247565D01*
X0250452Y0247593D02*
X0250452Y0246592D01*
X0251453Y0247593D01*
X0251703Y0247593D01*
X0251954Y0247342D01*
X0251954Y0246842D01*
X0251703Y0246592D01*
X0251703Y0246119D02*
X0251954Y0245869D01*
X0251954Y0245369D01*
X0251703Y0245118D01*
X0251703Y0246119D02*
X0251453Y0246119D01*
X0250452Y0245118D01*
X0250452Y0246119D01*
X0250703Y0248065D02*
X0251703Y0249066D01*
X0250703Y0249066D01*
X0250452Y0248816D01*
X0250452Y0248315D01*
X0250703Y0248065D01*
X0251703Y0248065D01*
X0251954Y0248315D01*
X0251954Y0248816D01*
X0251703Y0249066D01*
X0130103Y0169814D02*
X0128602Y0169814D01*
X0128602Y0168813D02*
X0130103Y0168813D01*
X0129603Y0169313D01*
X0130103Y0169814D01*
X0130103Y0167840D02*
X0128602Y0167840D01*
X0128602Y0167340D02*
X0128602Y0168341D01*
X0129603Y0167340D02*
X0130103Y0167840D01*
X0122603Y0167590D02*
X0122603Y0167090D01*
X0122353Y0166840D01*
X0122353Y0166367D02*
X0121853Y0166367D01*
X0121602Y0166117D01*
X0121602Y0165366D01*
X0121102Y0165366D02*
X0122603Y0165366D01*
X0122603Y0166117D01*
X0122353Y0166367D01*
X0121602Y0165867D02*
X0121102Y0166367D01*
X0121102Y0166840D02*
X0122103Y0167841D01*
X0122353Y0167841D01*
X0122603Y0167590D01*
X0122603Y0168313D02*
X0121853Y0168313D01*
X0122103Y0168813D01*
X0122103Y0169064D01*
X0121853Y0169314D01*
X0121352Y0169314D01*
X0121102Y0169064D01*
X0121102Y0168563D01*
X0121352Y0168313D01*
X0121102Y0167841D02*
X0121102Y0166840D01*
X0122603Y0168313D02*
X0122603Y0169314D01*
X0121882Y0131773D02*
X0121632Y0131773D01*
X0121382Y0131523D01*
X0121132Y0131773D01*
X0120881Y0131773D01*
X0120631Y0131523D01*
X0120631Y0131022D01*
X0120881Y0130772D01*
X0120631Y0130300D02*
X0120631Y0129299D01*
X0121632Y0130300D01*
X0121882Y0130300D01*
X0122132Y0130049D01*
X0122132Y0129549D01*
X0121882Y0129299D01*
X0121882Y0128826D02*
X0121382Y0128826D01*
X0121132Y0128576D01*
X0121132Y0127826D01*
X0121132Y0128326D02*
X0120631Y0128826D01*
X0120631Y0127826D02*
X0122132Y0127826D01*
X0122132Y0128576D01*
X0121882Y0128826D01*
X0121882Y0130772D02*
X0122132Y0131022D01*
X0122132Y0131523D01*
X0121882Y0131773D01*
X0121382Y0131523D02*
X0121382Y0131273D01*
X0114632Y0129800D02*
X0113131Y0129800D01*
X0113131Y0128799D02*
X0114632Y0128799D01*
X0114132Y0129299D01*
X0114632Y0129800D01*
X0114632Y0127826D02*
X0113131Y0127826D01*
X0113131Y0127326D02*
X0113131Y0128326D01*
X0114132Y0127326D02*
X0114632Y0127826D01*
X0110321Y0127865D02*
X0110321Y0128616D01*
X0110071Y0128866D01*
X0109571Y0128866D01*
X0109320Y0128616D01*
X0109320Y0127865D01*
X0108820Y0127865D02*
X0110321Y0127865D01*
X0109320Y0128365D02*
X0108820Y0128866D01*
X0108820Y0129338D02*
X0109821Y0130339D01*
X0110071Y0130339D01*
X0110321Y0130089D01*
X0110321Y0129588D01*
X0110071Y0129338D01*
X0108820Y0129338D02*
X0108820Y0130339D01*
X0108820Y0130811D02*
X0109821Y0131812D01*
X0110071Y0131812D01*
X0110321Y0131562D01*
X0110321Y0131062D01*
X0110071Y0130811D01*
X0108820Y0130811D02*
X0108820Y0131812D01*
X0102821Y0129839D02*
X0101320Y0129839D01*
X0101320Y0128838D02*
X0102821Y0128838D01*
X0102321Y0129339D01*
X0102821Y0129839D01*
X0102821Y0127865D02*
X0101320Y0127865D01*
X0101320Y0127365D02*
X0101320Y0128366D01*
X0102321Y0127365D02*
X0102821Y0127865D01*
X0227304Y0127865D02*
X0228806Y0127865D01*
X0228305Y0127365D01*
X0227304Y0127365D02*
X0227304Y0128366D01*
X0227304Y0128838D02*
X0228806Y0128838D01*
X0228305Y0129339D01*
X0228806Y0129839D01*
X0227304Y0129839D01*
X0234804Y0130089D02*
X0234804Y0129588D01*
X0235055Y0129338D01*
X0235555Y0129338D02*
X0235805Y0129839D01*
X0235805Y0130089D01*
X0235555Y0130339D01*
X0235055Y0130339D01*
X0234804Y0130089D01*
X0235555Y0130811D02*
X0235555Y0131812D01*
X0236306Y0131562D02*
X0235555Y0130811D01*
X0236306Y0130339D02*
X0236306Y0129338D01*
X0235555Y0129338D01*
X0235555Y0128866D02*
X0235305Y0128616D01*
X0235305Y0127865D01*
X0235305Y0128365D02*
X0234804Y0128866D01*
X0235555Y0128866D02*
X0236055Y0128866D01*
X0236306Y0128616D01*
X0236306Y0127865D01*
X0234804Y0127865D01*
X0234804Y0131562D02*
X0236306Y0131562D01*
X0239115Y0129800D02*
X0240617Y0129800D01*
X0240116Y0129299D01*
X0240617Y0128799D01*
X0239115Y0128799D01*
X0239115Y0128326D02*
X0239115Y0127326D01*
X0239115Y0127826D02*
X0240617Y0127826D01*
X0240116Y0127326D01*
X0246615Y0127826D02*
X0248117Y0127826D01*
X0248117Y0128576D01*
X0247866Y0128826D01*
X0247366Y0128826D01*
X0247116Y0128576D01*
X0247116Y0127826D01*
X0247116Y0128326D02*
X0246615Y0128826D01*
X0246866Y0129299D02*
X0246615Y0129549D01*
X0246615Y0130049D01*
X0246866Y0130300D01*
X0247366Y0130300D01*
X0247616Y0130049D01*
X0247616Y0129799D01*
X0247366Y0129299D01*
X0248117Y0129299D01*
X0248117Y0130300D01*
X0248117Y0130772D02*
X0247366Y0130772D01*
X0247616Y0131273D01*
X0247616Y0131523D01*
X0247366Y0131773D01*
X0246866Y0131773D01*
X0246615Y0131523D01*
X0246615Y0131022D01*
X0246866Y0130772D01*
X0248117Y0130772D02*
X0248117Y0131773D01*
X0055753Y0291571D02*
X0054252Y0291571D01*
X0054252Y0292071D02*
X0054252Y0291070D01*
X0055252Y0291070D02*
X0055753Y0291571D01*
X0055503Y0292544D02*
X0055753Y0292794D01*
X0055753Y0293294D01*
X0055503Y0293544D01*
X0054502Y0292544D01*
X0054252Y0292794D01*
X0054252Y0293294D01*
X0054502Y0293544D01*
X0055503Y0293544D01*
X0055252Y0294017D02*
X0054502Y0294017D01*
X0054252Y0294267D01*
X0054252Y0295018D01*
X0055252Y0295018D01*
X0055002Y0295490D02*
X0055002Y0295991D01*
X0055753Y0295490D02*
X0055753Y0296491D01*
X0055753Y0295490D02*
X0054252Y0295490D01*
X0054502Y0292544D02*
X0055503Y0292544D01*
X0055310Y0305623D02*
X0054309Y0305623D01*
X0054059Y0305873D01*
X0054059Y0306374D01*
X0054309Y0306624D01*
X0054309Y0307096D02*
X0054059Y0307347D01*
X0054059Y0307847D01*
X0054309Y0308097D01*
X0055310Y0308097D01*
X0055560Y0307847D01*
X0055560Y0307347D01*
X0055310Y0307096D01*
X0055060Y0307096D01*
X0054809Y0307347D01*
X0054809Y0308097D01*
X0055310Y0306624D02*
X0055560Y0306374D01*
X0055560Y0305873D01*
X0055310Y0305623D01*
D13*
X0200258Y0202181D03*
X0216006Y0202220D03*
D14*
X0188644Y0166236D03*
X0188565Y0148126D03*
X0180573Y0131276D03*
X0168762Y0131315D03*
X0160888Y0162811D03*
X0125652Y0166236D03*
X0125573Y0148126D03*
X0117581Y0131276D03*
X0105770Y0131315D03*
X0097896Y0162811D03*
X0062660Y0166236D03*
X0062581Y0148126D03*
X0054589Y0131276D03*
X0042778Y0131315D03*
X0034904Y0162811D03*
X0023093Y0076197D03*
X0078211Y0076197D03*
X0090022Y0076197D03*
X0141203Y0076197D03*
X0149077Y0076197D03*
X0204195Y0076197D03*
X0212069Y0076197D03*
X0267187Y0076197D03*
X0278998Y0076197D03*
X0330180Y0076197D03*
X0338054Y0076197D03*
X0393172Y0076197D03*
X0372345Y0028598D03*
X0309353Y0028598D03*
X0246361Y0028598D03*
X0183369Y0028598D03*
X0120376Y0028598D03*
X0057384Y0028598D03*
X0223880Y0162811D03*
X0251636Y0166236D03*
X0251557Y0148126D03*
X0243565Y0131276D03*
X0231754Y0131315D03*
X0286872Y0162811D03*
X0314628Y0166236D03*
X0314550Y0148126D03*
X0306557Y0131276D03*
X0294746Y0131315D03*
X0349865Y0162811D03*
X0377620Y0166236D03*
X0377542Y0148126D03*
X0369550Y0131276D03*
X0357739Y0131315D03*
X0247502Y0245488D03*
D15*
X0222434Y0223681D02*
X0219832Y0223681D01*
X0219832Y0222814D02*
X0219832Y0224549D01*
X0221567Y0222814D02*
X0222434Y0223681D01*
X0222001Y0221602D02*
X0222434Y0221169D01*
X0222434Y0220301D01*
X0222001Y0219867D01*
X0220266Y0219867D01*
X0219832Y0220301D01*
X0219832Y0221169D01*
X0220266Y0221602D01*
X0219832Y0218771D02*
X0219832Y0217903D01*
X0219832Y0218337D02*
X0222434Y0218337D01*
X0222434Y0217903D02*
X0222434Y0218771D01*
X0377234Y0066983D02*
X0377234Y0066115D01*
X0377668Y0065682D01*
X0379402Y0067417D01*
X0377668Y0067417D01*
X0377234Y0066983D01*
X0377668Y0065682D02*
X0379402Y0065682D01*
X0379836Y0066115D01*
X0379836Y0066983D01*
X0379402Y0067417D01*
X0377234Y0064470D02*
X0377234Y0062735D01*
X0377234Y0063603D02*
X0379836Y0063603D01*
X0378969Y0062735D01*
X0379402Y0061524D02*
X0379836Y0061090D01*
X0379836Y0060222D01*
X0379402Y0059789D01*
X0377668Y0059789D01*
X0377234Y0060222D01*
X0377234Y0061090D01*
X0377668Y0061524D01*
X0377234Y0058692D02*
X0377234Y0057824D01*
X0377234Y0058258D02*
X0379836Y0058258D01*
X0379836Y0057824D02*
X0379836Y0058692D01*
X0316844Y0058692D02*
X0316844Y0057824D01*
X0316844Y0058258D02*
X0314242Y0058258D01*
X0314242Y0057824D02*
X0314242Y0058692D01*
X0314675Y0059789D02*
X0314242Y0060222D01*
X0314242Y0061090D01*
X0314675Y0061524D01*
X0314675Y0062735D02*
X0314242Y0063169D01*
X0314242Y0064036D01*
X0314675Y0064470D01*
X0316410Y0064470D01*
X0316844Y0064036D01*
X0316844Y0063169D01*
X0316410Y0062735D01*
X0315977Y0062735D01*
X0315543Y0063169D01*
X0315543Y0064470D01*
X0316410Y0061524D02*
X0316844Y0061090D01*
X0316844Y0060222D01*
X0316410Y0059789D01*
X0314675Y0059789D01*
X0253852Y0060222D02*
X0253418Y0059789D01*
X0251683Y0059789D01*
X0251250Y0060222D01*
X0251250Y0061090D01*
X0251683Y0061524D01*
X0251683Y0062735D02*
X0252117Y0062735D01*
X0252551Y0063169D01*
X0252551Y0064036D01*
X0252117Y0064470D01*
X0251683Y0064470D01*
X0251250Y0064036D01*
X0251250Y0063169D01*
X0251683Y0062735D01*
X0252551Y0063169D02*
X0252984Y0062735D01*
X0253418Y0062735D01*
X0253852Y0063169D01*
X0253852Y0064036D01*
X0253418Y0064470D01*
X0252984Y0064470D01*
X0252551Y0064036D01*
X0253418Y0061524D02*
X0253852Y0061090D01*
X0253852Y0060222D01*
X0253852Y0058692D02*
X0253852Y0057824D01*
X0253852Y0058258D02*
X0251250Y0058258D01*
X0251250Y0057824D02*
X0251250Y0058692D01*
X0190860Y0058692D02*
X0190860Y0057824D01*
X0190860Y0058258D02*
X0188257Y0058258D01*
X0188257Y0057824D02*
X0188257Y0058692D01*
X0188691Y0059789D02*
X0188257Y0060222D01*
X0188257Y0061090D01*
X0188691Y0061524D01*
X0188691Y0062735D02*
X0188257Y0063169D01*
X0188257Y0064036D01*
X0188691Y0064470D01*
X0189559Y0064470D01*
X0189992Y0064036D01*
X0189992Y0063603D01*
X0189559Y0062735D01*
X0190860Y0062735D01*
X0190860Y0064470D01*
X0190426Y0061524D02*
X0190860Y0061090D01*
X0190860Y0060222D01*
X0190426Y0059789D01*
X0188691Y0059789D01*
X0127868Y0060222D02*
X0127434Y0059789D01*
X0125699Y0059789D01*
X0125265Y0060222D01*
X0125265Y0061090D01*
X0125699Y0061524D01*
X0126566Y0062735D02*
X0126566Y0064470D01*
X0125265Y0064036D02*
X0127868Y0064036D01*
X0126566Y0062735D01*
X0127434Y0061524D02*
X0127868Y0061090D01*
X0127868Y0060222D01*
X0127868Y0058692D02*
X0127868Y0057824D01*
X0127868Y0058258D02*
X0125265Y0058258D01*
X0125265Y0057824D02*
X0125265Y0058692D01*
X0064875Y0058692D02*
X0064875Y0057824D01*
X0064875Y0058258D02*
X0062273Y0058258D01*
X0062273Y0057824D02*
X0062273Y0058692D01*
X0062707Y0059789D02*
X0062273Y0060222D01*
X0062273Y0061090D01*
X0062707Y0061524D01*
X0062273Y0062735D02*
X0062273Y0064470D01*
X0062273Y0062735D02*
X0064008Y0064470D01*
X0064442Y0064470D01*
X0064875Y0064036D01*
X0064875Y0063169D01*
X0064442Y0062735D01*
X0064442Y0061524D02*
X0064875Y0061090D01*
X0064875Y0060222D01*
X0064442Y0059789D01*
X0062707Y0059789D01*
D16*
X0039774Y0059798D02*
X0039541Y0060032D01*
X0039074Y0060032D01*
X0038840Y0059798D01*
X0038840Y0059098D01*
X0038373Y0059098D02*
X0039774Y0059098D01*
X0039774Y0059798D01*
X0039307Y0060571D02*
X0039774Y0061038D01*
X0039307Y0061505D01*
X0038373Y0061505D01*
X0038373Y0062044D02*
X0038373Y0062978D01*
X0038373Y0062511D02*
X0039774Y0062511D01*
X0039307Y0062044D01*
X0039074Y0061505D02*
X0039074Y0060571D01*
X0039307Y0060571D02*
X0038373Y0060571D01*
X0038607Y0058559D02*
X0039541Y0058559D01*
X0039774Y0058325D01*
X0039774Y0057858D01*
X0039541Y0057624D01*
X0038607Y0057624D01*
X0038373Y0057858D01*
X0038373Y0058325D01*
X0038607Y0058559D01*
X0038607Y0063517D02*
X0038373Y0063751D01*
X0038373Y0064218D01*
X0038607Y0064452D01*
X0038840Y0064452D01*
X0039074Y0064218D01*
X0039074Y0063517D01*
X0038607Y0063517D01*
X0039074Y0063517D02*
X0039541Y0063984D01*
X0039774Y0064452D01*
X0039074Y0064991D02*
X0039074Y0065925D01*
X0039074Y0066464D02*
X0039074Y0067398D01*
X0039774Y0067165D02*
X0039074Y0066464D01*
X0039774Y0067165D02*
X0038373Y0067165D01*
X0038373Y0065691D02*
X0039774Y0065691D01*
X0039074Y0064991D01*
X0101365Y0065691D02*
X0102767Y0065691D01*
X0102066Y0064991D01*
X0102066Y0065925D01*
X0102066Y0066464D02*
X0102066Y0067398D01*
X0102767Y0067165D02*
X0102066Y0066464D01*
X0101365Y0067165D02*
X0102767Y0067165D01*
X0102767Y0064452D02*
X0102533Y0063984D01*
X0102066Y0063517D01*
X0102066Y0064218D01*
X0101832Y0064452D01*
X0101599Y0064452D01*
X0101365Y0064218D01*
X0101365Y0063751D01*
X0101599Y0063517D01*
X0102066Y0063517D01*
X0101365Y0062978D02*
X0101365Y0062044D01*
X0101365Y0062511D02*
X0102767Y0062511D01*
X0102299Y0062044D01*
X0102299Y0061505D02*
X0101365Y0061505D01*
X0102066Y0061505D02*
X0102066Y0060571D01*
X0102299Y0060571D02*
X0102767Y0061038D01*
X0102299Y0061505D01*
X0102299Y0060571D02*
X0101365Y0060571D01*
X0102066Y0060032D02*
X0101832Y0059798D01*
X0101832Y0059098D01*
X0101365Y0059098D02*
X0102767Y0059098D01*
X0102767Y0059798D01*
X0102533Y0060032D01*
X0102066Y0060032D01*
X0102533Y0058559D02*
X0102767Y0058325D01*
X0102767Y0057858D01*
X0102533Y0057624D01*
X0101599Y0057624D01*
X0101365Y0057858D01*
X0101365Y0058325D01*
X0101599Y0058559D01*
X0102533Y0058559D01*
X0164357Y0058325D02*
X0164591Y0058559D01*
X0165525Y0058559D01*
X0165759Y0058325D01*
X0165759Y0057858D01*
X0165525Y0057624D01*
X0164591Y0057624D01*
X0164357Y0057858D01*
X0164357Y0058325D01*
X0164357Y0059098D02*
X0165759Y0059098D01*
X0165759Y0059798D01*
X0165525Y0060032D01*
X0165058Y0060032D01*
X0164825Y0059798D01*
X0164825Y0059098D01*
X0165058Y0060571D02*
X0165058Y0061505D01*
X0165292Y0061505D02*
X0164357Y0061505D01*
X0164357Y0062044D02*
X0164357Y0062978D01*
X0164357Y0062511D02*
X0165759Y0062511D01*
X0165292Y0062044D01*
X0165292Y0061505D02*
X0165759Y0061038D01*
X0165292Y0060571D01*
X0164357Y0060571D01*
X0164591Y0063517D02*
X0164357Y0063751D01*
X0164357Y0064218D01*
X0164591Y0064452D01*
X0164825Y0064452D01*
X0165058Y0064218D01*
X0165058Y0063517D01*
X0164591Y0063517D01*
X0165058Y0063517D02*
X0165525Y0063984D01*
X0165759Y0064452D01*
X0165058Y0064991D02*
X0165058Y0065925D01*
X0165058Y0066464D02*
X0165058Y0067398D01*
X0164357Y0067165D02*
X0165759Y0067165D01*
X0165058Y0066464D01*
X0164357Y0065691D02*
X0165759Y0065691D01*
X0165058Y0064991D01*
X0227350Y0065691D02*
X0228751Y0065691D01*
X0228050Y0064991D01*
X0228050Y0065925D01*
X0228050Y0066464D02*
X0228050Y0067398D01*
X0227350Y0067165D02*
X0228751Y0067165D01*
X0228050Y0066464D01*
X0227817Y0064452D02*
X0228050Y0064218D01*
X0228050Y0063517D01*
X0227583Y0063517D01*
X0227350Y0063751D01*
X0227350Y0064218D01*
X0227583Y0064452D01*
X0227817Y0064452D01*
X0228517Y0063984D02*
X0228050Y0063517D01*
X0228517Y0063984D02*
X0228751Y0064452D01*
X0228751Y0062511D02*
X0227350Y0062511D01*
X0227350Y0062044D02*
X0227350Y0062978D01*
X0228284Y0062044D02*
X0228751Y0062511D01*
X0228284Y0061505D02*
X0227350Y0061505D01*
X0228050Y0061505D02*
X0228050Y0060571D01*
X0228284Y0060571D02*
X0228751Y0061038D01*
X0228284Y0061505D01*
X0228284Y0060571D02*
X0227350Y0060571D01*
X0228050Y0060032D02*
X0227817Y0059798D01*
X0227817Y0059098D01*
X0227350Y0059098D02*
X0228751Y0059098D01*
X0228751Y0059798D01*
X0228517Y0060032D01*
X0228050Y0060032D01*
X0227583Y0058559D02*
X0228517Y0058559D01*
X0228751Y0058325D01*
X0228751Y0057858D01*
X0228517Y0057624D01*
X0227583Y0057624D01*
X0227350Y0057858D01*
X0227350Y0058325D01*
X0227583Y0058559D01*
X0290342Y0058325D02*
X0290575Y0058559D01*
X0291509Y0058559D01*
X0291743Y0058325D01*
X0291743Y0057858D01*
X0291509Y0057624D01*
X0290575Y0057624D01*
X0290342Y0057858D01*
X0290342Y0058325D01*
X0290342Y0059098D02*
X0291743Y0059098D01*
X0291743Y0059798D01*
X0291509Y0060032D01*
X0291042Y0060032D01*
X0290809Y0059798D01*
X0290809Y0059098D01*
X0291042Y0060571D02*
X0291042Y0061505D01*
X0291276Y0061505D02*
X0290342Y0061505D01*
X0290342Y0062044D02*
X0290342Y0062978D01*
X0290342Y0062511D02*
X0291743Y0062511D01*
X0291276Y0062044D01*
X0291276Y0061505D02*
X0291743Y0061038D01*
X0291276Y0060571D01*
X0290342Y0060571D01*
X0290575Y0063517D02*
X0290342Y0063751D01*
X0290342Y0064218D01*
X0290575Y0064452D01*
X0290809Y0064452D01*
X0291042Y0064218D01*
X0291042Y0063517D01*
X0290575Y0063517D01*
X0291042Y0063517D02*
X0291509Y0063984D01*
X0291743Y0064452D01*
X0291042Y0064991D02*
X0291743Y0065691D01*
X0290342Y0065691D01*
X0291042Y0065925D02*
X0291042Y0064991D01*
X0291042Y0066464D02*
X0291042Y0067398D01*
X0290342Y0067165D02*
X0291743Y0067165D01*
X0291042Y0066464D01*
X0353334Y0067165D02*
X0354735Y0067165D01*
X0354034Y0066464D01*
X0354034Y0067398D01*
X0354034Y0065925D02*
X0354034Y0064991D01*
X0354735Y0065691D01*
X0353334Y0065691D01*
X0353567Y0064452D02*
X0353801Y0064452D01*
X0354034Y0064218D01*
X0354034Y0063517D01*
X0353567Y0063517D01*
X0353334Y0063751D01*
X0353334Y0064218D01*
X0353567Y0064452D01*
X0354502Y0063984D02*
X0354034Y0063517D01*
X0354502Y0063984D02*
X0354735Y0064452D01*
X0354735Y0062511D02*
X0353334Y0062511D01*
X0353334Y0062044D02*
X0353334Y0062978D01*
X0354268Y0062044D02*
X0354735Y0062511D01*
X0354268Y0061505D02*
X0353334Y0061505D01*
X0354034Y0061505D02*
X0354034Y0060571D01*
X0354268Y0060571D02*
X0354735Y0061038D01*
X0354268Y0061505D01*
X0354268Y0060571D02*
X0353334Y0060571D01*
X0354034Y0060032D02*
X0353801Y0059798D01*
X0353801Y0059098D01*
X0353334Y0059098D02*
X0354735Y0059098D01*
X0354735Y0059798D01*
X0354502Y0060032D01*
X0354034Y0060032D01*
X0353567Y0058559D02*
X0354502Y0058559D01*
X0354735Y0058325D01*
X0354735Y0057858D01*
X0354502Y0057624D01*
X0353567Y0057624D01*
X0353334Y0057858D01*
X0353334Y0058325D01*
X0353567Y0058559D01*
X0197100Y0217703D02*
X0196166Y0217703D01*
X0195932Y0217937D01*
X0195932Y0218404D01*
X0196166Y0218637D01*
X0197100Y0218637D01*
X0197333Y0218404D01*
X0197333Y0217937D01*
X0197100Y0217703D01*
X0197333Y0219176D02*
X0197333Y0219877D01*
X0197100Y0220111D01*
X0196633Y0220111D01*
X0196399Y0219877D01*
X0196399Y0219176D01*
X0195932Y0219176D02*
X0197333Y0219176D01*
X0196866Y0220650D02*
X0197333Y0221117D01*
X0196866Y0221584D01*
X0195932Y0221584D01*
X0195932Y0222123D02*
X0195932Y0223057D01*
X0195932Y0222590D02*
X0197333Y0222590D01*
X0196866Y0222123D01*
X0196633Y0221584D02*
X0196633Y0220650D01*
X0196866Y0220650D02*
X0195932Y0220650D01*
X0196166Y0223596D02*
X0195932Y0223830D01*
X0195932Y0224297D01*
X0196166Y0224530D01*
X0196399Y0224530D01*
X0196633Y0224297D01*
X0196633Y0223596D01*
X0196166Y0223596D01*
X0196633Y0223596D02*
X0197100Y0224063D01*
X0197333Y0224530D01*
X0196633Y0225069D02*
X0196633Y0226004D01*
X0196633Y0226543D02*
X0196633Y0227477D01*
X0197333Y0227243D02*
X0196633Y0226543D01*
X0197333Y0227243D02*
X0195932Y0227243D01*
X0195932Y0225770D02*
X0197333Y0225770D01*
X0196633Y0225069D01*
M02*
