G75*
%MOIN*%
%OFA0B0*%
%FSLAX25Y25*%
%IPPOS*%
%LPD*%
%AMOC8*
5,1,8,0,0,1.08239X$1,22.5*
%
%ADD10R,0.04331X0.03937*%
%ADD11C,0.06600*%
%ADD12R,0.11024X0.11024*%
%ADD13R,0.05937X0.05937*%
%ADD14C,0.07087*%
%ADD15R,0.04331X0.05512*%
%ADD16R,0.02362X0.08661*%
%ADD17OC8,0.05200*%
%ADD18R,0.03937X0.04331*%
%ADD19R,0.05787X0.05000*%
%ADD20R,0.03937X0.01575*%
%ADD21C,0.07400*%
%ADD22R,0.04724X0.05512*%
%ADD23R,0.01575X0.05709*%
%ADD24R,0.07087X0.05906*%
%ADD25R,0.09843X0.05906*%
%ADD26R,0.02165X0.04724*%
%ADD27R,0.01181X0.02756*%
%ADD28R,0.01181X0.01772*%
%ADD29R,0.04724X0.02165*%
%ADD30R,0.10433X0.19685*%
%ADD31R,0.07087X0.06299*%
%ADD32C,0.00600*%
%ADD33C,0.02978*%
D10*
X0031748Y0090659D03*
X0038441Y0090659D03*
X0055488Y0090856D03*
X0062181Y0090856D03*
X0094740Y0090659D03*
X0101433Y0090659D03*
X0118480Y0090856D03*
X0125173Y0090856D03*
X0157732Y0090659D03*
X0164425Y0090659D03*
X0181472Y0090856D03*
X0188165Y0090856D03*
X0220724Y0090659D03*
X0227417Y0090659D03*
X0244465Y0090856D03*
X0251157Y0090856D03*
X0283717Y0090659D03*
X0290409Y0090659D03*
X0307457Y0090856D03*
X0314150Y0090856D03*
X0346709Y0090659D03*
X0353402Y0090659D03*
X0370449Y0090856D03*
X0377142Y0090856D03*
X0378756Y0046053D03*
X0372063Y0046053D03*
X0360882Y0030856D03*
X0354189Y0030856D03*
X0298244Y0028494D03*
X0291551Y0028494D03*
X0273165Y0027667D03*
X0266472Y0027667D03*
X0245134Y0042628D03*
X0238441Y0042628D03*
X0229189Y0028415D03*
X0222496Y0028415D03*
X0290882Y0041722D03*
X0297575Y0041722D03*
X0439150Y0034518D03*
X0445843Y0034518D03*
X0446079Y0045817D03*
X0439386Y0045817D03*
X0460055Y0142707D03*
X0466748Y0142707D03*
X0403165Y0143376D03*
X0396472Y0143376D03*
X0366472Y0165974D03*
X0359780Y0165974D03*
X0305961Y0145541D03*
X0299268Y0145541D03*
X0287024Y0167274D03*
X0280331Y0167274D03*
X0280409Y0177234D03*
X0287102Y0177234D03*
X0258520Y0179124D03*
X0251827Y0179124D03*
X0243795Y0177234D03*
X0237102Y0177234D03*
X0237024Y0167274D03*
X0243717Y0167274D03*
X0215213Y0179124D03*
X0208520Y0179124D03*
X0200488Y0177234D03*
X0193795Y0177234D03*
X0193717Y0167274D03*
X0200409Y0167274D03*
X0171906Y0179124D03*
X0165213Y0179124D03*
X0157181Y0177234D03*
X0150488Y0177234D03*
X0150409Y0167274D03*
X0157102Y0167274D03*
X0128598Y0179124D03*
X0121906Y0179124D03*
X0113874Y0177234D03*
X0107181Y0177234D03*
X0107102Y0167274D03*
X0113795Y0167274D03*
X0085291Y0179124D03*
X0078598Y0179124D03*
X0070567Y0177234D03*
X0063874Y0177234D03*
X0063795Y0167274D03*
X0070488Y0167274D03*
X0041984Y0179124D03*
X0035291Y0179124D03*
X0035291Y0189045D03*
X0041984Y0189045D03*
X0078598Y0189045D03*
X0085291Y0189045D03*
X0121906Y0189045D03*
X0128598Y0189045D03*
X0165213Y0189045D03*
X0171906Y0189045D03*
X0208520Y0189045D03*
X0215213Y0189045D03*
X0251827Y0189045D03*
X0258520Y0189045D03*
X0421709Y0177785D03*
X0428402Y0177785D03*
X0437260Y0177707D03*
X0443953Y0177707D03*
D11*
X0446276Y0116919D03*
X0438402Y0116919D03*
X0430528Y0116919D03*
X0422654Y0116919D03*
X0414780Y0116919D03*
X0454150Y0116919D03*
X0387220Y0071722D03*
X0379346Y0071722D03*
X0371472Y0071722D03*
X0363598Y0071722D03*
X0355724Y0071722D03*
X0347850Y0071722D03*
X0324228Y0071722D03*
X0316354Y0071722D03*
X0308480Y0071722D03*
X0300606Y0071722D03*
X0292732Y0071722D03*
X0284858Y0071722D03*
X0261236Y0071722D03*
X0253362Y0071722D03*
X0245488Y0071722D03*
X0237614Y0071722D03*
X0229740Y0071722D03*
X0221866Y0071722D03*
X0198244Y0071722D03*
X0190370Y0071722D03*
X0182496Y0071722D03*
X0174622Y0071722D03*
X0166748Y0071722D03*
X0158874Y0071722D03*
X0135252Y0071722D03*
X0127378Y0071722D03*
X0119504Y0071722D03*
X0111630Y0071722D03*
X0103756Y0071722D03*
X0095882Y0071722D03*
X0072260Y0071722D03*
X0064386Y0071722D03*
X0056512Y0071722D03*
X0048638Y0071722D03*
X0040764Y0071722D03*
X0032890Y0071722D03*
D12*
X0025803Y0115030D03*
X0079346Y0115030D03*
X0088795Y0115030D03*
X0142339Y0115030D03*
X0151787Y0115030D03*
X0205331Y0115030D03*
X0214780Y0115030D03*
X0268323Y0115030D03*
X0277772Y0115030D03*
X0331315Y0115030D03*
X0340764Y0115030D03*
X0394307Y0115030D03*
X0407693Y0160226D03*
X0461236Y0160226D03*
D13*
X0450213Y0060620D03*
X0442339Y0060620D03*
X0434465Y0060620D03*
X0426591Y0060620D03*
X0418717Y0060620D03*
X0383283Y0058337D03*
X0375409Y0058337D03*
X0367535Y0058337D03*
X0359661Y0058337D03*
X0351787Y0058337D03*
X0320291Y0058337D03*
X0312417Y0058337D03*
X0304543Y0058337D03*
X0296669Y0058337D03*
X0288795Y0058337D03*
X0257299Y0058337D03*
X0249425Y0058337D03*
X0241551Y0058337D03*
X0233677Y0058337D03*
X0225803Y0058337D03*
X0194307Y0058337D03*
X0186433Y0058337D03*
X0178559Y0058337D03*
X0170685Y0058337D03*
X0162811Y0058337D03*
X0131315Y0058337D03*
X0123441Y0058337D03*
X0115567Y0058337D03*
X0107693Y0058337D03*
X0099819Y0058337D03*
X0068323Y0058337D03*
X0060449Y0058337D03*
X0052575Y0058337D03*
X0044701Y0058337D03*
X0036827Y0058337D03*
D14*
X0034268Y0018967D03*
X0070882Y0018967D03*
X0097260Y0018967D03*
X0133874Y0018967D03*
X0160252Y0018967D03*
X0196866Y0018967D03*
X0223244Y0018967D03*
X0259858Y0018967D03*
X0286236Y0018967D03*
X0322850Y0018967D03*
X0349228Y0018967D03*
X0385843Y0018967D03*
X0416157Y0021250D03*
X0452772Y0021250D03*
D15*
X0429465Y0034400D03*
X0421591Y0034400D03*
X0418480Y0045817D03*
X0426354Y0045817D03*
X0286236Y0145384D03*
X0278362Y0145384D03*
X0262890Y0144478D03*
X0255016Y0144478D03*
X0242929Y0145384D03*
X0235055Y0145384D03*
X0219583Y0144478D03*
X0211709Y0144478D03*
X0199622Y0145384D03*
X0191748Y0145384D03*
X0176276Y0144478D03*
X0168402Y0144478D03*
X0156315Y0145384D03*
X0148441Y0145384D03*
X0132969Y0144478D03*
X0125094Y0144478D03*
X0113008Y0145384D03*
X0105134Y0145384D03*
X0089661Y0144478D03*
X0081787Y0144478D03*
X0069701Y0145384D03*
X0061827Y0145384D03*
X0046354Y0144478D03*
X0038480Y0144478D03*
X0405764Y0178100D03*
X0413638Y0178100D03*
X0453087Y0177589D03*
X0460961Y0177589D03*
D16*
X0449465Y0150778D03*
X0444465Y0150778D03*
X0439465Y0150778D03*
X0434465Y0150778D03*
X0429465Y0150778D03*
X0424465Y0150778D03*
X0419465Y0150778D03*
X0419465Y0130305D03*
X0424465Y0130305D03*
X0429465Y0130305D03*
X0434465Y0130305D03*
X0439465Y0130305D03*
X0444465Y0130305D03*
X0449465Y0130305D03*
D17*
X0450213Y0194793D03*
X0450213Y0204793D03*
X0345882Y0204636D03*
X0345882Y0194636D03*
D18*
X0388713Y0181089D03*
X0395406Y0181089D03*
X0396311Y0165608D03*
X0389618Y0165608D03*
X0381815Y0165880D03*
X0375122Y0165880D03*
X0374697Y0151766D03*
X0368004Y0151766D03*
X0366240Y0136344D03*
X0372933Y0136344D03*
X0360583Y0045514D03*
X0353890Y0045514D03*
X0273354Y0041722D03*
X0266661Y0041722D03*
X0245150Y0028329D03*
X0238457Y0028329D03*
X0228811Y0042841D03*
X0222118Y0042841D03*
X0182654Y0018876D03*
X0175961Y0018876D03*
D19*
X0397197Y0028376D03*
X0397197Y0045305D03*
D20*
X0212394Y0038179D03*
X0212394Y0035620D03*
X0212394Y0033061D03*
X0212394Y0030502D03*
X0195071Y0030502D03*
X0195071Y0033061D03*
X0195071Y0035620D03*
X0195071Y0038179D03*
D21*
X0475803Y0121062D03*
X0475803Y0132462D03*
X0475803Y0146467D03*
X0475803Y0157867D03*
D22*
X0415154Y0191746D03*
X0424996Y0209069D03*
X0405311Y0209069D03*
D23*
X0380449Y0193156D03*
X0377890Y0193156D03*
X0375331Y0193156D03*
X0372772Y0193156D03*
X0370213Y0193156D03*
D24*
X0360823Y0203884D03*
X0389839Y0203884D03*
D25*
X0375331Y0203884D03*
D26*
X0347874Y0142561D03*
X0344134Y0142561D03*
X0340394Y0142561D03*
X0340394Y0132324D03*
X0344134Y0132324D03*
X0347874Y0132324D03*
D27*
X0335760Y0159581D03*
X0333791Y0159581D03*
X0331823Y0159581D03*
X0331823Y0163911D03*
X0333791Y0163911D03*
X0335760Y0163911D03*
D28*
X0335425Y0175711D03*
X0333457Y0175711D03*
X0331488Y0175711D03*
X0331488Y0181026D03*
X0333457Y0181026D03*
X0335425Y0181026D03*
D29*
X0368696Y0028888D03*
X0368696Y0025148D03*
X0368696Y0021407D03*
X0378933Y0021407D03*
X0378933Y0028888D03*
D30*
X0331197Y0037274D03*
X0314110Y0037274D03*
D31*
X0175921Y0040896D03*
X0175921Y0029872D03*
D32*
X0176394Y0030220D01*
X0177794Y0031620D01*
X0181994Y0031620D01*
X0184794Y0033020D02*
X0184794Y0030220D01*
X0182694Y0028120D01*
X0182694Y0019020D01*
X0182654Y0018876D01*
X0176394Y0019020D02*
X0175961Y0018876D01*
X0176394Y0019020D02*
X0176394Y0029520D01*
X0175921Y0029872D01*
X0184794Y0033020D02*
X0199494Y0047720D01*
X0260394Y0047720D01*
X0265294Y0042820D01*
X0266661Y0041722D01*
X0266694Y0041420D01*
X0266694Y0028120D01*
X0266472Y0027667D01*
X0263894Y0023920D02*
X0259694Y0028120D01*
X0245694Y0028120D01*
X0245150Y0028329D01*
X0244994Y0028820D01*
X0244994Y0035820D01*
X0242194Y0038620D01*
X0242194Y0037920D01*
X0242194Y0038620D02*
X0238694Y0042120D01*
X0238441Y0042628D01*
X0228811Y0042841D02*
X0228194Y0042820D01*
X0221194Y0035820D01*
X0221894Y0035820D01*
X0228894Y0028820D01*
X0229189Y0028415D01*
X0229594Y0028120D01*
X0237994Y0028120D01*
X0238457Y0028329D01*
X0222496Y0028415D02*
X0221894Y0028120D01*
X0209994Y0028120D01*
X0205794Y0023920D01*
X0193894Y0023920D01*
X0185494Y0015520D01*
X0173594Y0015520D01*
X0141394Y0047720D01*
X0141394Y0083420D01*
X0137194Y0087620D01*
X0122494Y0087620D01*
X0121794Y0088320D01*
X0121794Y0097420D01*
X0123194Y0098820D01*
X0123194Y0107920D01*
X0101494Y0129620D01*
X0101494Y0161120D01*
X0107094Y0166720D01*
X0107102Y0167274D01*
X0107094Y0167420D01*
X0107094Y0170220D01*
X0100094Y0177220D01*
X0118994Y0196120D01*
X0127394Y0196120D01*
X0132294Y0191220D01*
X0132294Y0178620D01*
X0128794Y0178620D01*
X0128598Y0179124D01*
X0132294Y0178620D02*
X0142094Y0178620D01*
X0143494Y0177220D01*
X0164494Y0198220D01*
X0168694Y0198220D01*
X0175694Y0191220D01*
X0175694Y0189820D01*
X0185494Y0189820D01*
X0193194Y0197520D01*
X0212794Y0197520D01*
X0216294Y0194020D01*
X0215594Y0193320D01*
X0216294Y0194020D02*
X0220494Y0189820D01*
X0228894Y0189820D01*
X0233094Y0194020D01*
X0259694Y0194020D01*
X0261794Y0191920D01*
X0261794Y0178620D01*
X0258994Y0178620D01*
X0258520Y0179124D01*
X0261794Y0178620D02*
X0271594Y0178620D01*
X0273694Y0176520D01*
X0286294Y0189120D01*
X0289094Y0189120D01*
X0291894Y0186320D01*
X0319894Y0186320D01*
X0328994Y0182120D02*
X0331794Y0184920D01*
X0337394Y0184920D01*
X0356294Y0166020D01*
X0356294Y0163220D01*
X0356994Y0162520D01*
X0363294Y0162520D01*
X0366094Y0165320D01*
X0366472Y0165974D01*
X0366794Y0166020D01*
X0370294Y0169520D01*
X0377994Y0169520D01*
X0381494Y0166020D01*
X0381815Y0165880D01*
X0382194Y0166020D01*
X0391994Y0175820D01*
X0391994Y0183520D01*
X0392724Y0184250D01*
X0390496Y0184250D01*
X0380449Y0193156D01*
X0370213Y0193156D02*
X0357480Y0193195D01*
X0345882Y0204636D01*
X0345794Y0204520D01*
X0341594Y0200320D01*
X0341594Y0193320D01*
X0359094Y0175820D01*
X0359094Y0166020D01*
X0359780Y0165974D01*
X0365394Y0159020D02*
X0371694Y0165320D01*
X0374494Y0165320D01*
X0375122Y0165880D01*
X0380794Y0159020D02*
X0384994Y0163220D01*
X0384994Y0166720D01*
X0394794Y0176520D01*
X0394794Y0180720D01*
X0395406Y0181089D01*
X0392724Y0184250D02*
X0395757Y0191220D01*
X0410720Y0191220D01*
X0415154Y0191746D01*
X0408794Y0187720D02*
X0430462Y0187720D01*
X0432496Y0189754D01*
X0422094Y0184920D02*
X0417894Y0180720D01*
X0417894Y0165320D01*
X0424194Y0159020D01*
X0424194Y0151320D01*
X0424465Y0150778D01*
X0429094Y0151320D02*
X0429465Y0150778D01*
X0429794Y0150620D01*
X0429794Y0130320D01*
X0429465Y0130305D01*
X0429794Y0129620D01*
X0429794Y0127520D01*
X0432594Y0124720D01*
X0436094Y0124720D01*
X0438894Y0127520D01*
X0438894Y0129620D01*
X0439465Y0130305D01*
X0439594Y0130320D01*
X0439594Y0150620D01*
X0439465Y0150778D01*
X0439594Y0151320D01*
X0439594Y0153420D01*
X0443794Y0157620D01*
X0443794Y0177220D01*
X0443953Y0177707D01*
X0437494Y0177920D02*
X0437260Y0177707D01*
X0436794Y0177220D01*
X0436794Y0153420D01*
X0434694Y0151320D01*
X0434465Y0150778D01*
X0429094Y0151320D02*
X0429094Y0177220D01*
X0428402Y0177785D01*
X0431894Y0180020D02*
X0431894Y0167420D01*
X0431894Y0132420D01*
X0433994Y0130320D01*
X0434465Y0130305D01*
X0444465Y0130305D02*
X0444494Y0129620D01*
X0444494Y0127520D01*
X0449394Y0122620D01*
X0454294Y0123320D02*
X0454994Y0123320D01*
X0456394Y0124720D01*
X0456394Y0142920D01*
X0459894Y0142920D01*
X0460055Y0142707D01*
X0456394Y0142920D02*
X0450094Y0142920D01*
X0444494Y0148520D01*
X0444494Y0150620D01*
X0444465Y0150778D01*
X0449465Y0150778D02*
X0450094Y0151320D01*
X0452894Y0154120D01*
X0452894Y0177220D01*
X0453087Y0177589D01*
X0456394Y0181420D02*
X0456394Y0173720D01*
X0454294Y0171620D01*
X0454294Y0154120D01*
X0454994Y0153420D01*
X0455694Y0153420D01*
X0463394Y0145720D01*
X0463394Y0129620D01*
X0454294Y0120520D01*
X0454294Y0117020D01*
X0454150Y0116919D01*
X0447994Y0117020D02*
X0454294Y0123320D01*
X0453594Y0126120D02*
X0450094Y0129620D01*
X0449465Y0130305D01*
X0466194Y0121920D02*
X0426994Y0082720D01*
X0426994Y0061020D01*
X0426591Y0060620D01*
X0426294Y0060320D01*
X0422094Y0056120D01*
X0422094Y0034420D01*
X0421591Y0034400D01*
X0424194Y0030220D02*
X0418594Y0030220D01*
X0407394Y0041420D01*
X0407394Y0119120D01*
X0410194Y0120520D02*
X0410194Y0069420D01*
X0418594Y0061020D01*
X0418717Y0060620D01*
X0418594Y0060320D01*
X0418594Y0046320D01*
X0418480Y0045817D01*
X0426354Y0045817D02*
X0426994Y0046320D01*
X0438894Y0046320D01*
X0439386Y0045817D01*
X0439594Y0046320D01*
X0442394Y0049120D01*
X0446594Y0049120D01*
X0454294Y0056820D01*
X0454294Y0061020D01*
X0464094Y0070820D01*
X0464094Y0115620D01*
X0475803Y0121062D02*
X0475994Y0121220D01*
X0475994Y0125420D01*
X0480894Y0130320D01*
X0480894Y0148520D01*
X0478094Y0151320D01*
X0471094Y0151320D01*
X0468294Y0147120D02*
X0468294Y0166020D01*
X0461294Y0173020D01*
X0461294Y0177220D01*
X0460961Y0177589D01*
X0456394Y0181420D02*
X0452894Y0184920D01*
X0422094Y0184920D01*
X0425594Y0181420D02*
X0430494Y0181420D01*
X0431894Y0180020D01*
X0425594Y0181420D02*
X0422094Y0177920D01*
X0421709Y0177785D01*
X0413694Y0177920D02*
X0413638Y0178100D01*
X0413694Y0177920D02*
X0413694Y0167420D01*
X0419294Y0161820D01*
X0419294Y0151320D01*
X0419465Y0150778D01*
X0419294Y0150620D01*
X0414394Y0145720D01*
X0414394Y0117020D01*
X0414780Y0116919D01*
X0410194Y0120520D02*
X0403194Y0127520D01*
X0403194Y0142920D01*
X0403165Y0143376D01*
X0396894Y0143620D02*
X0396472Y0143376D01*
X0396894Y0143620D02*
X0396894Y0160420D01*
X0400394Y0163920D01*
X0400394Y0166020D01*
X0410194Y0175820D01*
X0410194Y0181420D01*
X0410894Y0182120D01*
X0416494Y0182120D01*
X0417894Y0180720D01*
X0408794Y0187720D02*
X0402494Y0181420D01*
X0402494Y0176520D01*
X0396894Y0170920D01*
X0396894Y0166020D01*
X0396311Y0165608D01*
X0389618Y0165608D02*
X0389194Y0165320D01*
X0389194Y0160420D01*
X0376594Y0147820D01*
X0374494Y0147820D01*
X0366794Y0140120D01*
X0366794Y0136620D01*
X0366240Y0136344D01*
X0366094Y0135920D01*
X0356994Y0126820D01*
X0391994Y0091820D01*
X0391994Y0070120D01*
X0388494Y0066620D01*
X0388494Y0042120D01*
X0390594Y0042120D01*
X0401794Y0030920D01*
X0401794Y0026020D01*
X0400394Y0024620D01*
X0399031Y0024620D01*
X0399031Y0024400D01*
X0401000Y0024400D01*
X0402969Y0026368D01*
X0444307Y0026368D01*
X0452181Y0034242D01*
X0479740Y0034242D01*
X0479740Y0093297D01*
X0475803Y0097234D01*
X0469898Y0097234D01*
X0469898Y0134636D01*
X0473835Y0138573D01*
X0475803Y0138573D01*
X0475803Y0146467D01*
X0466748Y0142707D02*
X0466194Y0142220D01*
X0466194Y0121920D01*
X0447994Y0117020D02*
X0446594Y0117020D01*
X0446276Y0116919D01*
X0424194Y0126120D02*
X0421394Y0123320D01*
X0424194Y0126120D02*
X0424194Y0129620D01*
X0424465Y0130305D01*
X0419465Y0130305D02*
X0419294Y0129620D01*
X0417194Y0127520D01*
X0417194Y0123320D01*
X0404594Y0121920D02*
X0404594Y0054720D01*
X0401794Y0051920D01*
X0401794Y0044920D01*
X0417894Y0028820D01*
X0439594Y0028820D01*
X0445194Y0034420D01*
X0445843Y0034518D01*
X0439150Y0034518D02*
X0438894Y0034420D01*
X0429794Y0034420D01*
X0429465Y0034400D01*
X0429094Y0033720D01*
X0427694Y0033720D01*
X0424194Y0030220D01*
X0399031Y0024620D02*
X0384294Y0024620D01*
X0381494Y0021820D01*
X0379394Y0021820D01*
X0378933Y0021407D01*
X0377994Y0026020D02*
X0373794Y0021820D01*
X0368894Y0021820D01*
X0368696Y0021407D01*
X0368194Y0021820D01*
X0353494Y0021820D01*
X0349294Y0026020D01*
X0325494Y0026020D01*
X0314294Y0037220D01*
X0314110Y0037274D01*
X0302394Y0044920D02*
X0300994Y0044920D01*
X0298194Y0042120D01*
X0297575Y0041722D01*
X0297494Y0042120D01*
X0293994Y0045620D01*
X0270894Y0045620D01*
X0270194Y0044920D01*
X0270194Y0038620D01*
X0272994Y0035820D01*
X0272994Y0028120D01*
X0273165Y0027667D01*
X0281394Y0023920D02*
X0263894Y0023920D01*
X0281394Y0023920D02*
X0285594Y0028120D01*
X0291194Y0028120D01*
X0291551Y0028494D01*
X0291194Y0028820D01*
X0291194Y0041420D01*
X0290882Y0041722D01*
X0290494Y0042120D01*
X0273694Y0042120D01*
X0273354Y0041722D01*
X0266661Y0041722D02*
X0265994Y0042120D01*
X0265294Y0042820D01*
X0270894Y0048420D01*
X0337394Y0048420D01*
X0346494Y0039320D01*
X0346494Y0032320D01*
X0351394Y0027420D01*
X0363294Y0027420D01*
X0364694Y0028820D01*
X0368194Y0028820D01*
X0368696Y0028888D01*
X0370994Y0031620D02*
X0373094Y0029520D01*
X0378694Y0029520D01*
X0378933Y0028888D01*
X0377994Y0026020D02*
X0394794Y0026020D01*
X0396894Y0028120D01*
X0397197Y0028376D01*
X0370994Y0031620D02*
X0360494Y0031620D01*
X0360882Y0030856D01*
X0360494Y0030920D01*
X0360494Y0031620D01*
X0360494Y0044920D01*
X0360583Y0045514D01*
X0356994Y0047720D02*
X0358394Y0049120D01*
X0368894Y0049120D01*
X0371694Y0046320D01*
X0372063Y0046053D01*
X0374494Y0050520D02*
X0378694Y0046320D01*
X0378756Y0046053D01*
X0379394Y0045620D01*
X0382894Y0042120D01*
X0388494Y0042120D01*
X0391294Y0044920D02*
X0394794Y0044920D01*
X0397197Y0045305D01*
X0396894Y0044920D01*
X0394794Y0044920D01*
X0394794Y0090420D01*
X0377142Y0090856D02*
X0376594Y0091120D01*
X0347894Y0119820D01*
X0347894Y0120520D01*
X0342994Y0125420D01*
X0333194Y0125420D01*
X0291894Y0166720D01*
X0287694Y0166720D01*
X0287024Y0167274D01*
X0286994Y0166720D01*
X0283494Y0163220D01*
X0283494Y0158320D01*
X0282794Y0155520D02*
X0272994Y0155520D01*
X0268794Y0159720D01*
X0268794Y0159020D01*
X0268794Y0159720D02*
X0251994Y0176520D01*
X0251994Y0178620D01*
X0251827Y0179124D01*
X0251994Y0179320D01*
X0251994Y0188420D01*
X0251827Y0189045D01*
X0249194Y0192620D02*
X0244994Y0188420D01*
X0215594Y0188420D01*
X0215213Y0189045D01*
X0214894Y0189120D01*
X0209294Y0194720D01*
X0208520Y0189045D02*
X0208594Y0188420D01*
X0208594Y0186320D01*
X0212094Y0182820D01*
X0208594Y0179320D01*
X0208520Y0179124D01*
X0207894Y0178620D01*
X0207894Y0174420D01*
X0200488Y0177234D02*
X0200194Y0177920D01*
X0200194Y0180720D01*
X0198794Y0182120D01*
X0195294Y0184920D02*
X0190394Y0180020D01*
X0190394Y0166720D01*
X0176394Y0152720D01*
X0176394Y0145020D01*
X0176276Y0144478D01*
X0178494Y0140120D02*
X0173594Y0140120D01*
X0172194Y0141520D01*
X0172194Y0178620D01*
X0171906Y0179124D01*
X0172194Y0179320D01*
X0172194Y0183520D01*
X0175694Y0187020D01*
X0175694Y0189820D01*
X0171906Y0189045D02*
X0171494Y0189120D01*
X0167994Y0192620D01*
X0167294Y0192620D01*
X0167294Y0195420D01*
X0167294Y0192620D02*
X0163094Y0192620D01*
X0157494Y0187020D01*
X0157494Y0177920D01*
X0157181Y0177234D01*
X0157494Y0177220D01*
X0157494Y0173020D01*
X0164494Y0166020D01*
X0164494Y0128920D01*
X0204394Y0089020D01*
X0204394Y0068720D01*
X0194594Y0058920D01*
X0194307Y0058337D01*
X0193894Y0058220D01*
X0189694Y0054020D01*
X0188994Y0054020D01*
X0176394Y0041420D01*
X0175921Y0040896D01*
X0191794Y0037220D02*
X0192494Y0037920D01*
X0194594Y0037920D01*
X0195071Y0038179D01*
X0191794Y0037220D02*
X0191794Y0031620D01*
X0187594Y0031620D01*
X0191794Y0031620D02*
X0192494Y0030920D01*
X0194594Y0030920D01*
X0195071Y0030502D01*
X0195294Y0033020D02*
X0195071Y0033061D01*
X0195294Y0033020D02*
X0202294Y0033020D01*
X0206494Y0028820D01*
X0209294Y0028820D02*
X0209294Y0037220D01*
X0209994Y0037920D01*
X0212094Y0037920D01*
X0212394Y0038179D01*
X0212794Y0038620D01*
X0217694Y0038620D01*
X0221894Y0042820D01*
X0222118Y0042841D01*
X0222594Y0043520D01*
X0225394Y0046320D01*
X0241494Y0046320D01*
X0244994Y0042820D01*
X0245134Y0042628D01*
X0221194Y0035820D02*
X0212794Y0035820D01*
X0212394Y0035620D01*
X0216994Y0033020D02*
X0214894Y0030920D01*
X0212794Y0030920D01*
X0212394Y0030502D01*
X0209994Y0028120D02*
X0209294Y0028820D01*
X0222594Y0054020D02*
X0324094Y0054020D01*
X0324794Y0054720D01*
X0324794Y0065920D01*
X0298894Y0065920D01*
X0293294Y0071520D01*
X0292732Y0071722D01*
X0284858Y0071722D02*
X0284194Y0072220D01*
X0284194Y0090420D01*
X0283717Y0090659D01*
X0286994Y0088320D02*
X0286994Y0093220D01*
X0272294Y0107920D01*
X0262494Y0107920D01*
X0246394Y0124020D01*
X0246394Y0148520D01*
X0244994Y0149920D01*
X0244294Y0149920D01*
X0244294Y0162520D01*
X0238694Y0162520D01*
X0244294Y0162520D02*
X0244294Y0166720D01*
X0243717Y0167274D01*
X0237024Y0167274D02*
X0236594Y0166720D01*
X0232394Y0162520D01*
X0222594Y0162520D01*
X0215594Y0169520D01*
X0215594Y0174420D01*
X0215594Y0178620D01*
X0215213Y0179124D01*
X0212094Y0182820D02*
X0224694Y0182820D01*
X0233794Y0173720D01*
X0248494Y0173720D01*
X0272294Y0149920D01*
X0272294Y0138720D01*
X0289794Y0121220D01*
X0289794Y0091120D01*
X0290409Y0090659D01*
X0286994Y0088320D02*
X0288394Y0086920D01*
X0292594Y0086920D01*
X0300294Y0094620D01*
X0310094Y0094620D01*
X0313594Y0091120D01*
X0314150Y0090856D01*
X0307994Y0090420D02*
X0307457Y0090856D01*
X0307994Y0090420D02*
X0307994Y0072220D01*
X0308480Y0071722D01*
X0306594Y0067320D02*
X0336694Y0067320D01*
X0338794Y0069420D01*
X0342994Y0065920D02*
X0324794Y0065920D01*
X0335294Y0062420D02*
X0355594Y0062420D01*
X0359094Y0058920D01*
X0359661Y0058337D01*
X0362594Y0063820D02*
X0367494Y0058920D01*
X0367535Y0058337D01*
X0376594Y0051920D02*
X0354194Y0051920D01*
X0349294Y0047020D01*
X0349294Y0039320D01*
X0350694Y0037920D01*
X0354194Y0037920D01*
X0354194Y0030920D01*
X0354189Y0030856D01*
X0354194Y0037920D02*
X0354194Y0038620D01*
X0356994Y0041420D01*
X0356994Y0047720D01*
X0357694Y0050520D02*
X0354194Y0047020D01*
X0354194Y0045620D01*
X0353890Y0045514D01*
X0353494Y0044920D01*
X0352094Y0043520D01*
X0352094Y0040720D01*
X0343694Y0037920D02*
X0331794Y0037920D01*
X0331197Y0037274D01*
X0357694Y0050520D02*
X0374494Y0050520D01*
X0376594Y0051920D02*
X0382894Y0058220D01*
X0383283Y0058337D01*
X0362594Y0063820D02*
X0349294Y0063820D01*
X0286294Y0126820D01*
X0286294Y0145020D01*
X0286236Y0145384D01*
X0289794Y0143620D02*
X0289794Y0148520D01*
X0282794Y0155520D01*
X0283494Y0150620D02*
X0278594Y0145720D01*
X0278362Y0145384D01*
X0289794Y0143620D02*
X0325494Y0107920D01*
X0335994Y0107920D01*
X0352794Y0091120D01*
X0353402Y0090659D01*
X0347194Y0090420D02*
X0346709Y0090659D01*
X0347194Y0090420D02*
X0347194Y0072220D01*
X0347850Y0071722D01*
X0370994Y0072220D02*
X0371472Y0071722D01*
X0370994Y0072220D02*
X0370994Y0090420D01*
X0370449Y0090856D01*
X0306594Y0067320D02*
X0302394Y0071520D01*
X0300994Y0071520D01*
X0300606Y0071722D01*
X0299594Y0063820D02*
X0286294Y0063820D01*
X0279994Y0070120D01*
X0279994Y0076420D01*
X0243594Y0112820D01*
X0243594Y0145020D01*
X0242929Y0145384D01*
X0239394Y0149920D02*
X0235194Y0145720D01*
X0235055Y0145384D01*
X0239394Y0149920D02*
X0244294Y0149920D01*
X0255016Y0144478D02*
X0255494Y0145020D01*
X0263894Y0153420D01*
X0263894Y0154120D01*
X0262890Y0144478D02*
X0263194Y0144320D01*
X0269494Y0138020D01*
X0242194Y0128920D02*
X0242194Y0112120D01*
X0265994Y0088320D01*
X0265994Y0070120D01*
X0258294Y0062420D01*
X0253394Y0062420D01*
X0249894Y0058920D01*
X0249425Y0058337D01*
X0245488Y0071722D02*
X0244994Y0072220D01*
X0244994Y0090420D01*
X0244465Y0090856D01*
X0250594Y0091120D02*
X0251157Y0090856D01*
X0250594Y0091120D02*
X0250594Y0096720D01*
X0216994Y0130320D01*
X0206494Y0130320D01*
X0191794Y0145020D01*
X0191748Y0145384D01*
X0191794Y0145720D01*
X0200194Y0154120D01*
X0200194Y0166720D01*
X0200409Y0167274D01*
X0200194Y0167420D01*
X0193894Y0173720D01*
X0193894Y0177220D01*
X0193795Y0177234D01*
X0200194Y0184920D02*
X0205094Y0180020D01*
X0205094Y0166020D01*
X0242194Y0128920D01*
X0219794Y0130320D02*
X0260394Y0089720D01*
X0247794Y0095320D02*
X0242894Y0095320D01*
X0237994Y0090420D01*
X0237994Y0072220D01*
X0237614Y0071722D01*
X0229740Y0071722D02*
X0229594Y0071520D01*
X0229594Y0070120D01*
X0221194Y0061720D01*
X0221194Y0055420D01*
X0222594Y0054020D01*
X0202994Y0070120D02*
X0195294Y0062420D01*
X0182694Y0062420D01*
X0179194Y0058920D01*
X0178559Y0058337D01*
X0181994Y0054020D02*
X0186194Y0058220D01*
X0186433Y0058337D01*
X0181994Y0054020D02*
X0159594Y0054020D01*
X0153994Y0059620D01*
X0153994Y0072920D01*
X0132994Y0093920D01*
X0125173Y0090856D02*
X0124594Y0091120D01*
X0124594Y0108620D01*
X0105694Y0127520D01*
X0105694Y0145020D01*
X0105134Y0145384D01*
X0105694Y0145720D01*
X0113394Y0153420D01*
X0113394Y0166720D01*
X0113795Y0167274D01*
X0113394Y0167420D01*
X0113394Y0171620D01*
X0107794Y0177220D01*
X0107181Y0177234D01*
X0113874Y0177234D02*
X0114094Y0177920D01*
X0114094Y0187020D01*
X0119694Y0192620D01*
X0123894Y0192620D01*
X0123894Y0193320D01*
X0123894Y0192620D02*
X0124594Y0192620D01*
X0128094Y0189120D01*
X0128598Y0189045D01*
X0122494Y0188420D02*
X0121906Y0189045D01*
X0122494Y0188420D02*
X0122494Y0179320D01*
X0121906Y0179124D01*
X0122494Y0178620D01*
X0122494Y0147120D01*
X0124594Y0145020D01*
X0125094Y0144478D01*
X0125294Y0144320D01*
X0125294Y0119120D01*
X0136494Y0107920D01*
X0146994Y0107920D01*
X0163794Y0091120D01*
X0164425Y0090659D01*
X0158194Y0090420D02*
X0157732Y0090659D01*
X0158194Y0090420D02*
X0158194Y0072220D01*
X0158874Y0071722D01*
X0166748Y0071722D02*
X0167294Y0072220D01*
X0167294Y0084820D01*
X0181294Y0098820D01*
X0184794Y0098820D01*
X0186894Y0095320D02*
X0179894Y0095320D01*
X0174994Y0090420D01*
X0174994Y0072220D01*
X0174622Y0071722D01*
X0181994Y0072220D02*
X0182496Y0071722D01*
X0181994Y0072220D02*
X0181994Y0090420D01*
X0181472Y0090856D01*
X0188165Y0090856D02*
X0188294Y0091120D01*
X0188294Y0092520D01*
X0189694Y0093920D01*
X0189694Y0099520D01*
X0149094Y0140120D01*
X0149094Y0145020D01*
X0148441Y0145384D01*
X0149094Y0145720D01*
X0156794Y0153420D01*
X0156794Y0166720D01*
X0157102Y0167274D01*
X0156794Y0167420D01*
X0156794Y0170920D01*
X0150494Y0177220D01*
X0150488Y0177234D01*
X0149794Y0170920D02*
X0143494Y0177220D01*
X0149794Y0170920D02*
X0149794Y0167420D01*
X0150409Y0167274D01*
X0165213Y0179124D02*
X0165894Y0178620D01*
X0165894Y0147120D01*
X0167994Y0145020D01*
X0168402Y0144478D01*
X0168694Y0144320D01*
X0168694Y0138720D01*
X0199494Y0107920D01*
X0209994Y0107920D01*
X0226794Y0091120D01*
X0227417Y0090659D01*
X0221194Y0090420D02*
X0220724Y0090659D01*
X0221194Y0090420D02*
X0221194Y0072220D01*
X0221866Y0071722D01*
X0202994Y0070120D02*
X0202994Y0088320D01*
X0156794Y0134520D01*
X0156794Y0145020D01*
X0156315Y0145384D01*
X0178494Y0140120D02*
X0193194Y0154820D01*
X0193194Y0166720D01*
X0193717Y0167274D01*
X0165213Y0179124D02*
X0165194Y0179320D01*
X0165194Y0188420D01*
X0165213Y0189045D01*
X0195294Y0184920D02*
X0200194Y0184920D01*
X0237294Y0182120D02*
X0237294Y0177920D01*
X0237102Y0177234D01*
X0243795Y0177234D02*
X0244294Y0177920D01*
X0244294Y0187720D01*
X0244994Y0188420D01*
X0249194Y0192620D02*
X0254794Y0192620D01*
X0258294Y0189120D01*
X0258520Y0189045D01*
X0273694Y0176520D02*
X0279994Y0170220D01*
X0279994Y0167420D01*
X0280331Y0167274D01*
X0280694Y0173720D02*
X0286994Y0167420D01*
X0287024Y0167274D01*
X0280694Y0173720D02*
X0280694Y0177220D01*
X0280409Y0177234D01*
X0287102Y0177234D02*
X0287694Y0177920D01*
X0287694Y0186320D01*
X0326194Y0168120D02*
X0326194Y0165320D01*
X0331794Y0159720D01*
X0331823Y0159581D01*
X0333791Y0159581D02*
X0333894Y0159020D01*
X0333894Y0157620D01*
X0334594Y0156920D01*
X0336694Y0156920D01*
X0340894Y0161120D01*
X0340894Y0179320D01*
X0336694Y0183520D01*
X0334594Y0183520D01*
X0333194Y0182120D01*
X0333194Y0181420D01*
X0333457Y0181026D01*
X0335294Y0180720D02*
X0335425Y0181026D01*
X0335294Y0180720D02*
X0335294Y0179320D01*
X0334594Y0178620D01*
X0332494Y0178620D01*
X0331094Y0180020D01*
X0331094Y0180720D01*
X0331488Y0181026D01*
X0328994Y0180020D02*
X0328994Y0182120D01*
X0328994Y0180020D02*
X0331094Y0177920D01*
X0331094Y0175820D01*
X0331488Y0175711D01*
X0331094Y0175120D01*
X0328994Y0173020D01*
X0329694Y0169520D02*
X0327594Y0169520D01*
X0326194Y0168120D01*
X0328994Y0166720D02*
X0331794Y0163920D01*
X0331823Y0163911D01*
X0333791Y0163911D02*
X0333894Y0163920D01*
X0333894Y0166720D01*
X0335294Y0168120D01*
X0338094Y0169520D02*
X0338094Y0166020D01*
X0335994Y0163920D01*
X0335760Y0163911D01*
X0338094Y0169520D02*
X0335994Y0171620D01*
X0335994Y0175120D01*
X0335425Y0175711D01*
X0335994Y0175820D01*
X0338094Y0177920D01*
X0333457Y0175711D02*
X0333194Y0175120D01*
X0333194Y0173020D01*
X0329694Y0169520D01*
X0340894Y0145020D02*
X0354894Y0159020D01*
X0365394Y0159020D01*
X0366094Y0157620D02*
X0367494Y0159020D01*
X0380794Y0159020D01*
X0368894Y0156220D02*
X0358394Y0156220D01*
X0355594Y0153420D01*
X0355594Y0145020D01*
X0349294Y0138720D01*
X0347894Y0138720D01*
X0347894Y0137320D01*
X0347894Y0138720D02*
X0345094Y0138720D01*
X0340894Y0134520D01*
X0340894Y0132420D01*
X0340394Y0132324D01*
X0343694Y0131720D02*
X0343694Y0130320D01*
X0341594Y0128220D01*
X0339494Y0128220D01*
X0336694Y0131020D01*
X0336694Y0133820D02*
X0335294Y0133820D01*
X0333894Y0132420D01*
X0333894Y0129620D01*
X0336694Y0126820D01*
X0356994Y0126820D01*
X0355594Y0132420D02*
X0347894Y0132420D01*
X0347874Y0132324D01*
X0344134Y0132324D02*
X0343694Y0131720D01*
X0336694Y0133820D02*
X0343694Y0140820D01*
X0343694Y0142220D01*
X0344134Y0142561D01*
X0340894Y0142920D02*
X0340894Y0145020D01*
X0340894Y0142920D02*
X0340394Y0142561D01*
X0347874Y0142561D02*
X0347894Y0142920D01*
X0347894Y0147820D01*
X0357694Y0157620D01*
X0366094Y0157620D01*
X0367494Y0152020D02*
X0358394Y0152020D01*
X0367494Y0152020D02*
X0368004Y0151766D01*
X0374494Y0151320D02*
X0374697Y0151766D01*
X0374494Y0151320D02*
X0355594Y0132420D01*
X0371694Y0137320D02*
X0372394Y0136620D01*
X0372933Y0136344D01*
X0371694Y0137320D02*
X0371694Y0140820D01*
X0400394Y0170220D02*
X0405294Y0175120D01*
X0405294Y0177920D01*
X0405764Y0178100D01*
X0388713Y0181089D02*
X0388494Y0181420D01*
X0359094Y0181420D01*
X0346494Y0194020D01*
X0345882Y0194636D01*
X0424996Y0209069D02*
X0431194Y0206807D01*
X0434663Y0206807D01*
X0441087Y0200384D01*
X0456157Y0200384D01*
X0456394Y0200320D01*
X0475294Y0181420D01*
X0475294Y0158320D01*
X0475803Y0157867D01*
X0453594Y0147120D02*
X0450094Y0150620D01*
X0449465Y0150778D01*
X0437494Y0177920D02*
X0437494Y0182120D01*
X0456157Y0200384D02*
X0456948Y0201174D01*
X0305961Y0145541D02*
X0305894Y0145720D01*
X0301694Y0149920D01*
X0299268Y0145541D02*
X0298894Y0145720D01*
X0298894Y0155520D01*
X0219794Y0144320D02*
X0219794Y0130320D01*
X0212094Y0133120D02*
X0200194Y0145020D01*
X0199622Y0145384D01*
X0211394Y0145020D02*
X0211709Y0144478D01*
X0211394Y0145020D02*
X0211394Y0152720D01*
X0219583Y0144478D02*
X0219794Y0144320D01*
X0132994Y0144320D02*
X0132994Y0115620D01*
X0114794Y0107220D02*
X0090294Y0131720D01*
X0090294Y0144320D01*
X0089661Y0144478D01*
X0081894Y0144320D02*
X0081787Y0144478D01*
X0081194Y0145020D01*
X0079094Y0147120D01*
X0079094Y0178620D01*
X0078598Y0179124D01*
X0079094Y0179320D01*
X0079094Y0188420D01*
X0078598Y0189045D01*
X0081894Y0185620D02*
X0081894Y0184920D01*
X0081894Y0185620D02*
X0084694Y0188420D01*
X0085291Y0189045D01*
X0087494Y0192620D02*
X0088894Y0191220D01*
X0088894Y0182820D01*
X0094494Y0182820D01*
X0100094Y0177220D01*
X0088894Y0182820D02*
X0085394Y0179320D01*
X0085291Y0179124D01*
X0070694Y0177920D02*
X0070694Y0186320D01*
X0066494Y0180720D02*
X0061594Y0180720D01*
X0058794Y0177920D01*
X0048994Y0177920D01*
X0044794Y0173720D01*
X0044794Y0166720D01*
X0046194Y0165320D01*
X0046194Y0145020D01*
X0046354Y0144478D01*
X0044094Y0140120D02*
X0041994Y0142220D01*
X0041994Y0178620D01*
X0041984Y0179124D01*
X0041994Y0179320D01*
X0058094Y0179320D01*
X0071394Y0192620D01*
X0087494Y0192620D01*
X0067194Y0180020D02*
X0066494Y0180720D01*
X0067194Y0180020D02*
X0067194Y0174420D01*
X0070694Y0170920D01*
X0072794Y0170920D01*
X0074194Y0169520D01*
X0074194Y0122620D01*
X0072094Y0120520D01*
X0072094Y0080620D01*
X0078394Y0074320D01*
X0078394Y0069420D01*
X0071394Y0062420D01*
X0064394Y0062420D01*
X0060894Y0058920D01*
X0060449Y0058337D01*
X0058094Y0063820D02*
X0053194Y0058920D01*
X0052575Y0058337D01*
X0058094Y0063820D02*
X0070694Y0063820D01*
X0076994Y0070120D01*
X0076994Y0073620D01*
X0069994Y0080620D01*
X0069994Y0145020D01*
X0069701Y0145384D01*
X0062294Y0145720D02*
X0061827Y0145384D01*
X0062294Y0145020D01*
X0062294Y0091120D01*
X0062181Y0090856D01*
X0055994Y0090420D02*
X0055488Y0090856D01*
X0055994Y0090420D02*
X0055994Y0072220D01*
X0056512Y0071722D01*
X0040764Y0071722D02*
X0040594Y0071520D01*
X0040594Y0070120D01*
X0032194Y0061720D01*
X0032194Y0055420D01*
X0033594Y0054020D01*
X0083294Y0054020D01*
X0096594Y0067320D01*
X0098694Y0067320D01*
X0103594Y0072220D01*
X0103756Y0071722D01*
X0104294Y0072220D01*
X0104294Y0084120D01*
X0120394Y0100220D01*
X0118480Y0090856D02*
X0118994Y0090420D01*
X0118994Y0072220D01*
X0119504Y0071722D01*
X0116194Y0067320D02*
X0111994Y0071520D01*
X0111630Y0071722D01*
X0111294Y0071520D01*
X0107094Y0067320D01*
X0100794Y0067320D01*
X0093094Y0059620D01*
X0095882Y0071722D02*
X0095194Y0072220D01*
X0095194Y0090420D01*
X0094740Y0090659D01*
X0100794Y0091120D02*
X0101433Y0090659D01*
X0100794Y0091120D02*
X0100794Y0119120D01*
X0081894Y0138020D01*
X0081894Y0144320D01*
X0069994Y0153420D02*
X0062294Y0145720D01*
X0063694Y0154820D02*
X0048994Y0140120D01*
X0044094Y0140120D01*
X0038494Y0144320D02*
X0038480Y0144478D01*
X0037794Y0145020D01*
X0035694Y0147120D01*
X0035694Y0178620D01*
X0035291Y0179124D01*
X0035694Y0179320D01*
X0035694Y0188420D01*
X0035291Y0189045D01*
X0041294Y0189120D02*
X0041984Y0189045D01*
X0041294Y0189120D02*
X0041294Y0195420D01*
X0063874Y0177234D02*
X0064394Y0177220D01*
X0064394Y0173020D01*
X0069994Y0167420D01*
X0070488Y0167274D01*
X0069994Y0166720D01*
X0069994Y0153420D01*
X0063694Y0154820D02*
X0063694Y0166720D01*
X0063795Y0167274D01*
X0070567Y0177234D02*
X0070694Y0177920D01*
X0038494Y0144320D02*
X0038494Y0091120D01*
X0038441Y0090659D01*
X0032194Y0090420D02*
X0031748Y0090659D01*
X0032194Y0090420D02*
X0032194Y0072220D01*
X0032890Y0071722D01*
X0116194Y0067320D02*
X0137194Y0067320D01*
X0139994Y0070120D01*
X0139994Y0073620D01*
X0138594Y0075020D01*
X0138594Y0082020D01*
X0112694Y0124720D02*
X0112694Y0145020D01*
X0113008Y0145384D01*
X0132969Y0144478D02*
X0132994Y0144320D01*
X0299594Y0063820D02*
X0304494Y0058920D01*
X0304543Y0058337D01*
X0296669Y0058337D02*
X0296094Y0058920D01*
X0292594Y0062420D01*
X0279294Y0062420D01*
X0298244Y0028494D02*
X0298194Y0028120D01*
X0295394Y0025320D01*
X0286994Y0025320D01*
X0446079Y0045817D02*
X0446594Y0046320D01*
X0450794Y0046320D01*
X0461294Y0056820D01*
X0461294Y0063820D01*
D33*
X0461294Y0063820D03*
X0450794Y0046320D03*
X0401794Y0051920D03*
X0391294Y0044920D03*
X0352094Y0040720D03*
X0343694Y0037920D03*
X0302394Y0044920D03*
X0286994Y0025320D03*
X0242194Y0037920D03*
X0216994Y0033020D03*
X0206494Y0028820D03*
X0187594Y0031620D03*
X0181994Y0031620D03*
X0093094Y0059620D03*
X0138594Y0082020D03*
X0132994Y0093920D03*
X0120394Y0100220D03*
X0114794Y0107220D03*
X0132994Y0115620D03*
X0112694Y0124720D03*
X0184794Y0098820D03*
X0186894Y0095320D03*
X0247794Y0095320D03*
X0260394Y0089720D03*
X0279294Y0062420D03*
X0335294Y0062420D03*
X0342994Y0065920D03*
X0338794Y0069420D03*
X0394794Y0090420D03*
X0407394Y0119120D03*
X0404594Y0121920D03*
X0417194Y0123320D03*
X0421394Y0123320D03*
X0449394Y0122620D03*
X0453594Y0126120D03*
X0464094Y0115620D03*
X0468294Y0147120D03*
X0471094Y0151320D03*
X0453594Y0147120D03*
X0431894Y0167420D03*
X0437494Y0182120D03*
X0432496Y0189754D03*
X0400394Y0170220D03*
X0368894Y0156220D03*
X0358394Y0152020D03*
X0371694Y0140820D03*
X0347894Y0137320D03*
X0336694Y0131020D03*
X0301694Y0149920D03*
X0298894Y0155520D03*
X0283494Y0158320D03*
X0268794Y0159020D03*
X0263894Y0154120D03*
X0283494Y0150620D03*
X0269494Y0138020D03*
X0238694Y0162520D03*
X0215594Y0174420D03*
X0207894Y0174420D03*
X0198794Y0182120D03*
X0215594Y0193320D03*
X0209294Y0194720D03*
X0237294Y0182120D03*
X0287694Y0186320D03*
X0319894Y0186320D03*
X0338094Y0177920D03*
X0328994Y0173020D03*
X0328994Y0166720D03*
X0335294Y0168120D03*
X0211394Y0152720D03*
X0212094Y0133120D03*
X0123894Y0193320D03*
X0081894Y0184920D03*
X0070694Y0186320D03*
X0041294Y0195420D03*
X0167294Y0195420D03*
M02*
