G75*
%MOIN*%
%OFA0B0*%
%FSLAX25Y25*%
%IPPOS*%
%LPD*%
%AMOC8*
5,1,8,0,0,1.08239X$1,22.5*
%
%ADD10C,0.00000*%
%ADD11C,0.00787*%
D10*
X0020140Y0095882D02*
X0020142Y0096051D01*
X0020148Y0096220D01*
X0020159Y0096389D01*
X0020173Y0096557D01*
X0020192Y0096725D01*
X0020215Y0096893D01*
X0020241Y0097060D01*
X0020272Y0097226D01*
X0020307Y0097392D01*
X0020346Y0097556D01*
X0020390Y0097720D01*
X0020437Y0097882D01*
X0020488Y0098043D01*
X0020543Y0098203D01*
X0020602Y0098362D01*
X0020664Y0098519D01*
X0020731Y0098674D01*
X0020802Y0098828D01*
X0020876Y0098980D01*
X0020954Y0099130D01*
X0021035Y0099278D01*
X0021120Y0099424D01*
X0021209Y0099568D01*
X0021301Y0099710D01*
X0021397Y0099849D01*
X0021496Y0099986D01*
X0021598Y0100121D01*
X0021704Y0100253D01*
X0021813Y0100382D01*
X0021925Y0100509D01*
X0022040Y0100633D01*
X0022158Y0100754D01*
X0022279Y0100872D01*
X0022403Y0100987D01*
X0022530Y0101099D01*
X0022659Y0101208D01*
X0022791Y0101314D01*
X0022926Y0101416D01*
X0023063Y0101515D01*
X0023202Y0101611D01*
X0023344Y0101703D01*
X0023488Y0101792D01*
X0023634Y0101877D01*
X0023782Y0101958D01*
X0023932Y0102036D01*
X0024084Y0102110D01*
X0024238Y0102181D01*
X0024393Y0102248D01*
X0024550Y0102310D01*
X0024709Y0102369D01*
X0024869Y0102424D01*
X0025030Y0102475D01*
X0025192Y0102522D01*
X0025356Y0102566D01*
X0025520Y0102605D01*
X0025686Y0102640D01*
X0025852Y0102671D01*
X0026019Y0102697D01*
X0026187Y0102720D01*
X0026355Y0102739D01*
X0026523Y0102753D01*
X0026692Y0102764D01*
X0026861Y0102770D01*
X0027030Y0102772D01*
X0027199Y0102770D01*
X0027368Y0102764D01*
X0027537Y0102753D01*
X0027705Y0102739D01*
X0027873Y0102720D01*
X0028041Y0102697D01*
X0028208Y0102671D01*
X0028374Y0102640D01*
X0028540Y0102605D01*
X0028704Y0102566D01*
X0028868Y0102522D01*
X0029030Y0102475D01*
X0029191Y0102424D01*
X0029351Y0102369D01*
X0029510Y0102310D01*
X0029667Y0102248D01*
X0029822Y0102181D01*
X0029976Y0102110D01*
X0030128Y0102036D01*
X0030278Y0101958D01*
X0030426Y0101877D01*
X0030572Y0101792D01*
X0030716Y0101703D01*
X0030858Y0101611D01*
X0030997Y0101515D01*
X0031134Y0101416D01*
X0031269Y0101314D01*
X0031401Y0101208D01*
X0031530Y0101099D01*
X0031657Y0100987D01*
X0031781Y0100872D01*
X0031902Y0100754D01*
X0032020Y0100633D01*
X0032135Y0100509D01*
X0032247Y0100382D01*
X0032356Y0100253D01*
X0032462Y0100121D01*
X0032564Y0099986D01*
X0032663Y0099849D01*
X0032759Y0099710D01*
X0032851Y0099568D01*
X0032940Y0099424D01*
X0033025Y0099278D01*
X0033106Y0099130D01*
X0033184Y0098980D01*
X0033258Y0098828D01*
X0033329Y0098674D01*
X0033396Y0098519D01*
X0033458Y0098362D01*
X0033517Y0098203D01*
X0033572Y0098043D01*
X0033623Y0097882D01*
X0033670Y0097720D01*
X0033714Y0097556D01*
X0033753Y0097392D01*
X0033788Y0097226D01*
X0033819Y0097060D01*
X0033845Y0096893D01*
X0033868Y0096725D01*
X0033887Y0096557D01*
X0033901Y0096389D01*
X0033912Y0096220D01*
X0033918Y0096051D01*
X0033920Y0095882D01*
X0033918Y0095713D01*
X0033912Y0095544D01*
X0033901Y0095375D01*
X0033887Y0095207D01*
X0033868Y0095039D01*
X0033845Y0094871D01*
X0033819Y0094704D01*
X0033788Y0094538D01*
X0033753Y0094372D01*
X0033714Y0094208D01*
X0033670Y0094044D01*
X0033623Y0093882D01*
X0033572Y0093721D01*
X0033517Y0093561D01*
X0033458Y0093402D01*
X0033396Y0093245D01*
X0033329Y0093090D01*
X0033258Y0092936D01*
X0033184Y0092784D01*
X0033106Y0092634D01*
X0033025Y0092486D01*
X0032940Y0092340D01*
X0032851Y0092196D01*
X0032759Y0092054D01*
X0032663Y0091915D01*
X0032564Y0091778D01*
X0032462Y0091643D01*
X0032356Y0091511D01*
X0032247Y0091382D01*
X0032135Y0091255D01*
X0032020Y0091131D01*
X0031902Y0091010D01*
X0031781Y0090892D01*
X0031657Y0090777D01*
X0031530Y0090665D01*
X0031401Y0090556D01*
X0031269Y0090450D01*
X0031134Y0090348D01*
X0030997Y0090249D01*
X0030858Y0090153D01*
X0030716Y0090061D01*
X0030572Y0089972D01*
X0030426Y0089887D01*
X0030278Y0089806D01*
X0030128Y0089728D01*
X0029976Y0089654D01*
X0029822Y0089583D01*
X0029667Y0089516D01*
X0029510Y0089454D01*
X0029351Y0089395D01*
X0029191Y0089340D01*
X0029030Y0089289D01*
X0028868Y0089242D01*
X0028704Y0089198D01*
X0028540Y0089159D01*
X0028374Y0089124D01*
X0028208Y0089093D01*
X0028041Y0089067D01*
X0027873Y0089044D01*
X0027705Y0089025D01*
X0027537Y0089011D01*
X0027368Y0089000D01*
X0027199Y0088994D01*
X0027030Y0088992D01*
X0026861Y0088994D01*
X0026692Y0089000D01*
X0026523Y0089011D01*
X0026355Y0089025D01*
X0026187Y0089044D01*
X0026019Y0089067D01*
X0025852Y0089093D01*
X0025686Y0089124D01*
X0025520Y0089159D01*
X0025356Y0089198D01*
X0025192Y0089242D01*
X0025030Y0089289D01*
X0024869Y0089340D01*
X0024709Y0089395D01*
X0024550Y0089454D01*
X0024393Y0089516D01*
X0024238Y0089583D01*
X0024084Y0089654D01*
X0023932Y0089728D01*
X0023782Y0089806D01*
X0023634Y0089887D01*
X0023488Y0089972D01*
X0023344Y0090061D01*
X0023202Y0090153D01*
X0023063Y0090249D01*
X0022926Y0090348D01*
X0022791Y0090450D01*
X0022659Y0090556D01*
X0022530Y0090665D01*
X0022403Y0090777D01*
X0022279Y0090892D01*
X0022158Y0091010D01*
X0022040Y0091131D01*
X0021925Y0091255D01*
X0021813Y0091382D01*
X0021704Y0091511D01*
X0021598Y0091643D01*
X0021496Y0091778D01*
X0021397Y0091915D01*
X0021301Y0092054D01*
X0021209Y0092196D01*
X0021120Y0092340D01*
X0021035Y0092486D01*
X0020954Y0092634D01*
X0020876Y0092784D01*
X0020802Y0092936D01*
X0020731Y0093090D01*
X0020664Y0093245D01*
X0020602Y0093402D01*
X0020543Y0093561D01*
X0020488Y0093721D01*
X0020437Y0093882D01*
X0020390Y0094044D01*
X0020346Y0094208D01*
X0020307Y0094372D01*
X0020272Y0094538D01*
X0020241Y0094704D01*
X0020215Y0094871D01*
X0020192Y0095039D01*
X0020173Y0095207D01*
X0020159Y0095375D01*
X0020148Y0095544D01*
X0020142Y0095713D01*
X0020140Y0095882D01*
X0021676Y0217890D02*
X0021678Y0218005D01*
X0021684Y0218121D01*
X0021694Y0218236D01*
X0021708Y0218351D01*
X0021726Y0218465D01*
X0021748Y0218578D01*
X0021773Y0218691D01*
X0021803Y0218802D01*
X0021836Y0218913D01*
X0021873Y0219022D01*
X0021914Y0219130D01*
X0021959Y0219237D01*
X0022007Y0219342D01*
X0022059Y0219445D01*
X0022115Y0219546D01*
X0022174Y0219646D01*
X0022236Y0219743D01*
X0022302Y0219838D01*
X0022370Y0219931D01*
X0022442Y0220021D01*
X0022517Y0220109D01*
X0022596Y0220194D01*
X0022677Y0220276D01*
X0022760Y0220356D01*
X0022847Y0220432D01*
X0022936Y0220506D01*
X0023027Y0220576D01*
X0023121Y0220644D01*
X0023217Y0220708D01*
X0023316Y0220768D01*
X0023416Y0220825D01*
X0023518Y0220879D01*
X0023622Y0220929D01*
X0023728Y0220976D01*
X0023835Y0221019D01*
X0023944Y0221058D01*
X0024054Y0221093D01*
X0024165Y0221124D01*
X0024277Y0221152D01*
X0024390Y0221176D01*
X0024504Y0221196D01*
X0024619Y0221212D01*
X0024734Y0221224D01*
X0024849Y0221232D01*
X0024964Y0221236D01*
X0025080Y0221236D01*
X0025195Y0221232D01*
X0025310Y0221224D01*
X0025425Y0221212D01*
X0025540Y0221196D01*
X0025654Y0221176D01*
X0025767Y0221152D01*
X0025879Y0221124D01*
X0025990Y0221093D01*
X0026100Y0221058D01*
X0026209Y0221019D01*
X0026316Y0220976D01*
X0026422Y0220929D01*
X0026526Y0220879D01*
X0026628Y0220825D01*
X0026728Y0220768D01*
X0026827Y0220708D01*
X0026923Y0220644D01*
X0027017Y0220576D01*
X0027108Y0220506D01*
X0027197Y0220432D01*
X0027284Y0220356D01*
X0027367Y0220276D01*
X0027448Y0220194D01*
X0027527Y0220109D01*
X0027602Y0220021D01*
X0027674Y0219931D01*
X0027742Y0219838D01*
X0027808Y0219743D01*
X0027870Y0219646D01*
X0027929Y0219546D01*
X0027985Y0219445D01*
X0028037Y0219342D01*
X0028085Y0219237D01*
X0028130Y0219130D01*
X0028171Y0219022D01*
X0028208Y0218913D01*
X0028241Y0218802D01*
X0028271Y0218691D01*
X0028296Y0218578D01*
X0028318Y0218465D01*
X0028336Y0218351D01*
X0028350Y0218236D01*
X0028360Y0218121D01*
X0028366Y0218005D01*
X0028368Y0217890D01*
X0028366Y0217775D01*
X0028360Y0217659D01*
X0028350Y0217544D01*
X0028336Y0217429D01*
X0028318Y0217315D01*
X0028296Y0217202D01*
X0028271Y0217089D01*
X0028241Y0216978D01*
X0028208Y0216867D01*
X0028171Y0216758D01*
X0028130Y0216650D01*
X0028085Y0216543D01*
X0028037Y0216438D01*
X0027985Y0216335D01*
X0027929Y0216234D01*
X0027870Y0216134D01*
X0027808Y0216037D01*
X0027742Y0215942D01*
X0027674Y0215849D01*
X0027602Y0215759D01*
X0027527Y0215671D01*
X0027448Y0215586D01*
X0027367Y0215504D01*
X0027284Y0215424D01*
X0027197Y0215348D01*
X0027108Y0215274D01*
X0027017Y0215204D01*
X0026923Y0215136D01*
X0026827Y0215072D01*
X0026728Y0215012D01*
X0026628Y0214955D01*
X0026526Y0214901D01*
X0026422Y0214851D01*
X0026316Y0214804D01*
X0026209Y0214761D01*
X0026100Y0214722D01*
X0025990Y0214687D01*
X0025879Y0214656D01*
X0025767Y0214628D01*
X0025654Y0214604D01*
X0025540Y0214584D01*
X0025425Y0214568D01*
X0025310Y0214556D01*
X0025195Y0214548D01*
X0025080Y0214544D01*
X0024964Y0214544D01*
X0024849Y0214548D01*
X0024734Y0214556D01*
X0024619Y0214568D01*
X0024504Y0214584D01*
X0024390Y0214604D01*
X0024277Y0214628D01*
X0024165Y0214656D01*
X0024054Y0214687D01*
X0023944Y0214722D01*
X0023835Y0214761D01*
X0023728Y0214804D01*
X0023622Y0214851D01*
X0023518Y0214901D01*
X0023416Y0214955D01*
X0023316Y0215012D01*
X0023217Y0215072D01*
X0023121Y0215136D01*
X0023027Y0215204D01*
X0022936Y0215274D01*
X0022847Y0215348D01*
X0022760Y0215424D01*
X0022677Y0215504D01*
X0022596Y0215586D01*
X0022517Y0215671D01*
X0022442Y0215759D01*
X0022370Y0215849D01*
X0022302Y0215942D01*
X0022236Y0216037D01*
X0022174Y0216134D01*
X0022115Y0216234D01*
X0022059Y0216335D01*
X0022007Y0216438D01*
X0021959Y0216543D01*
X0021914Y0216650D01*
X0021873Y0216758D01*
X0021836Y0216867D01*
X0021803Y0216978D01*
X0021773Y0217089D01*
X0021748Y0217202D01*
X0021726Y0217315D01*
X0021708Y0217429D01*
X0021694Y0217544D01*
X0021684Y0217659D01*
X0021678Y0217775D01*
X0021676Y0217890D01*
X0049235Y0217890D02*
X0049237Y0218005D01*
X0049243Y0218121D01*
X0049253Y0218236D01*
X0049267Y0218351D01*
X0049285Y0218465D01*
X0049307Y0218578D01*
X0049332Y0218691D01*
X0049362Y0218802D01*
X0049395Y0218913D01*
X0049432Y0219022D01*
X0049473Y0219130D01*
X0049518Y0219237D01*
X0049566Y0219342D01*
X0049618Y0219445D01*
X0049674Y0219546D01*
X0049733Y0219646D01*
X0049795Y0219743D01*
X0049861Y0219838D01*
X0049929Y0219931D01*
X0050001Y0220021D01*
X0050076Y0220109D01*
X0050155Y0220194D01*
X0050236Y0220276D01*
X0050319Y0220356D01*
X0050406Y0220432D01*
X0050495Y0220506D01*
X0050586Y0220576D01*
X0050680Y0220644D01*
X0050776Y0220708D01*
X0050875Y0220768D01*
X0050975Y0220825D01*
X0051077Y0220879D01*
X0051181Y0220929D01*
X0051287Y0220976D01*
X0051394Y0221019D01*
X0051503Y0221058D01*
X0051613Y0221093D01*
X0051724Y0221124D01*
X0051836Y0221152D01*
X0051949Y0221176D01*
X0052063Y0221196D01*
X0052178Y0221212D01*
X0052293Y0221224D01*
X0052408Y0221232D01*
X0052523Y0221236D01*
X0052639Y0221236D01*
X0052754Y0221232D01*
X0052869Y0221224D01*
X0052984Y0221212D01*
X0053099Y0221196D01*
X0053213Y0221176D01*
X0053326Y0221152D01*
X0053438Y0221124D01*
X0053549Y0221093D01*
X0053659Y0221058D01*
X0053768Y0221019D01*
X0053875Y0220976D01*
X0053981Y0220929D01*
X0054085Y0220879D01*
X0054187Y0220825D01*
X0054287Y0220768D01*
X0054386Y0220708D01*
X0054482Y0220644D01*
X0054576Y0220576D01*
X0054667Y0220506D01*
X0054756Y0220432D01*
X0054843Y0220356D01*
X0054926Y0220276D01*
X0055007Y0220194D01*
X0055086Y0220109D01*
X0055161Y0220021D01*
X0055233Y0219931D01*
X0055301Y0219838D01*
X0055367Y0219743D01*
X0055429Y0219646D01*
X0055488Y0219546D01*
X0055544Y0219445D01*
X0055596Y0219342D01*
X0055644Y0219237D01*
X0055689Y0219130D01*
X0055730Y0219022D01*
X0055767Y0218913D01*
X0055800Y0218802D01*
X0055830Y0218691D01*
X0055855Y0218578D01*
X0055877Y0218465D01*
X0055895Y0218351D01*
X0055909Y0218236D01*
X0055919Y0218121D01*
X0055925Y0218005D01*
X0055927Y0217890D01*
X0055925Y0217775D01*
X0055919Y0217659D01*
X0055909Y0217544D01*
X0055895Y0217429D01*
X0055877Y0217315D01*
X0055855Y0217202D01*
X0055830Y0217089D01*
X0055800Y0216978D01*
X0055767Y0216867D01*
X0055730Y0216758D01*
X0055689Y0216650D01*
X0055644Y0216543D01*
X0055596Y0216438D01*
X0055544Y0216335D01*
X0055488Y0216234D01*
X0055429Y0216134D01*
X0055367Y0216037D01*
X0055301Y0215942D01*
X0055233Y0215849D01*
X0055161Y0215759D01*
X0055086Y0215671D01*
X0055007Y0215586D01*
X0054926Y0215504D01*
X0054843Y0215424D01*
X0054756Y0215348D01*
X0054667Y0215274D01*
X0054576Y0215204D01*
X0054482Y0215136D01*
X0054386Y0215072D01*
X0054287Y0215012D01*
X0054187Y0214955D01*
X0054085Y0214901D01*
X0053981Y0214851D01*
X0053875Y0214804D01*
X0053768Y0214761D01*
X0053659Y0214722D01*
X0053549Y0214687D01*
X0053438Y0214656D01*
X0053326Y0214628D01*
X0053213Y0214604D01*
X0053099Y0214584D01*
X0052984Y0214568D01*
X0052869Y0214556D01*
X0052754Y0214548D01*
X0052639Y0214544D01*
X0052523Y0214544D01*
X0052408Y0214548D01*
X0052293Y0214556D01*
X0052178Y0214568D01*
X0052063Y0214584D01*
X0051949Y0214604D01*
X0051836Y0214628D01*
X0051724Y0214656D01*
X0051613Y0214687D01*
X0051503Y0214722D01*
X0051394Y0214761D01*
X0051287Y0214804D01*
X0051181Y0214851D01*
X0051077Y0214901D01*
X0050975Y0214955D01*
X0050875Y0215012D01*
X0050776Y0215072D01*
X0050680Y0215136D01*
X0050586Y0215204D01*
X0050495Y0215274D01*
X0050406Y0215348D01*
X0050319Y0215424D01*
X0050236Y0215504D01*
X0050155Y0215586D01*
X0050076Y0215671D01*
X0050001Y0215759D01*
X0049929Y0215849D01*
X0049861Y0215942D01*
X0049795Y0216037D01*
X0049733Y0216134D01*
X0049674Y0216234D01*
X0049618Y0216335D01*
X0049566Y0216438D01*
X0049518Y0216543D01*
X0049473Y0216650D01*
X0049432Y0216758D01*
X0049395Y0216867D01*
X0049362Y0216978D01*
X0049332Y0217089D01*
X0049307Y0217202D01*
X0049285Y0217315D01*
X0049267Y0217429D01*
X0049253Y0217544D01*
X0049243Y0217659D01*
X0049237Y0217775D01*
X0049235Y0217890D01*
X0020140Y0253362D02*
X0020142Y0253531D01*
X0020148Y0253700D01*
X0020159Y0253869D01*
X0020173Y0254037D01*
X0020192Y0254205D01*
X0020215Y0254373D01*
X0020241Y0254540D01*
X0020272Y0254706D01*
X0020307Y0254872D01*
X0020346Y0255036D01*
X0020390Y0255200D01*
X0020437Y0255362D01*
X0020488Y0255523D01*
X0020543Y0255683D01*
X0020602Y0255842D01*
X0020664Y0255999D01*
X0020731Y0256154D01*
X0020802Y0256308D01*
X0020876Y0256460D01*
X0020954Y0256610D01*
X0021035Y0256758D01*
X0021120Y0256904D01*
X0021209Y0257048D01*
X0021301Y0257190D01*
X0021397Y0257329D01*
X0021496Y0257466D01*
X0021598Y0257601D01*
X0021704Y0257733D01*
X0021813Y0257862D01*
X0021925Y0257989D01*
X0022040Y0258113D01*
X0022158Y0258234D01*
X0022279Y0258352D01*
X0022403Y0258467D01*
X0022530Y0258579D01*
X0022659Y0258688D01*
X0022791Y0258794D01*
X0022926Y0258896D01*
X0023063Y0258995D01*
X0023202Y0259091D01*
X0023344Y0259183D01*
X0023488Y0259272D01*
X0023634Y0259357D01*
X0023782Y0259438D01*
X0023932Y0259516D01*
X0024084Y0259590D01*
X0024238Y0259661D01*
X0024393Y0259728D01*
X0024550Y0259790D01*
X0024709Y0259849D01*
X0024869Y0259904D01*
X0025030Y0259955D01*
X0025192Y0260002D01*
X0025356Y0260046D01*
X0025520Y0260085D01*
X0025686Y0260120D01*
X0025852Y0260151D01*
X0026019Y0260177D01*
X0026187Y0260200D01*
X0026355Y0260219D01*
X0026523Y0260233D01*
X0026692Y0260244D01*
X0026861Y0260250D01*
X0027030Y0260252D01*
X0027199Y0260250D01*
X0027368Y0260244D01*
X0027537Y0260233D01*
X0027705Y0260219D01*
X0027873Y0260200D01*
X0028041Y0260177D01*
X0028208Y0260151D01*
X0028374Y0260120D01*
X0028540Y0260085D01*
X0028704Y0260046D01*
X0028868Y0260002D01*
X0029030Y0259955D01*
X0029191Y0259904D01*
X0029351Y0259849D01*
X0029510Y0259790D01*
X0029667Y0259728D01*
X0029822Y0259661D01*
X0029976Y0259590D01*
X0030128Y0259516D01*
X0030278Y0259438D01*
X0030426Y0259357D01*
X0030572Y0259272D01*
X0030716Y0259183D01*
X0030858Y0259091D01*
X0030997Y0258995D01*
X0031134Y0258896D01*
X0031269Y0258794D01*
X0031401Y0258688D01*
X0031530Y0258579D01*
X0031657Y0258467D01*
X0031781Y0258352D01*
X0031902Y0258234D01*
X0032020Y0258113D01*
X0032135Y0257989D01*
X0032247Y0257862D01*
X0032356Y0257733D01*
X0032462Y0257601D01*
X0032564Y0257466D01*
X0032663Y0257329D01*
X0032759Y0257190D01*
X0032851Y0257048D01*
X0032940Y0256904D01*
X0033025Y0256758D01*
X0033106Y0256610D01*
X0033184Y0256460D01*
X0033258Y0256308D01*
X0033329Y0256154D01*
X0033396Y0255999D01*
X0033458Y0255842D01*
X0033517Y0255683D01*
X0033572Y0255523D01*
X0033623Y0255362D01*
X0033670Y0255200D01*
X0033714Y0255036D01*
X0033753Y0254872D01*
X0033788Y0254706D01*
X0033819Y0254540D01*
X0033845Y0254373D01*
X0033868Y0254205D01*
X0033887Y0254037D01*
X0033901Y0253869D01*
X0033912Y0253700D01*
X0033918Y0253531D01*
X0033920Y0253362D01*
X0033918Y0253193D01*
X0033912Y0253024D01*
X0033901Y0252855D01*
X0033887Y0252687D01*
X0033868Y0252519D01*
X0033845Y0252351D01*
X0033819Y0252184D01*
X0033788Y0252018D01*
X0033753Y0251852D01*
X0033714Y0251688D01*
X0033670Y0251524D01*
X0033623Y0251362D01*
X0033572Y0251201D01*
X0033517Y0251041D01*
X0033458Y0250882D01*
X0033396Y0250725D01*
X0033329Y0250570D01*
X0033258Y0250416D01*
X0033184Y0250264D01*
X0033106Y0250114D01*
X0033025Y0249966D01*
X0032940Y0249820D01*
X0032851Y0249676D01*
X0032759Y0249534D01*
X0032663Y0249395D01*
X0032564Y0249258D01*
X0032462Y0249123D01*
X0032356Y0248991D01*
X0032247Y0248862D01*
X0032135Y0248735D01*
X0032020Y0248611D01*
X0031902Y0248490D01*
X0031781Y0248372D01*
X0031657Y0248257D01*
X0031530Y0248145D01*
X0031401Y0248036D01*
X0031269Y0247930D01*
X0031134Y0247828D01*
X0030997Y0247729D01*
X0030858Y0247633D01*
X0030716Y0247541D01*
X0030572Y0247452D01*
X0030426Y0247367D01*
X0030278Y0247286D01*
X0030128Y0247208D01*
X0029976Y0247134D01*
X0029822Y0247063D01*
X0029667Y0246996D01*
X0029510Y0246934D01*
X0029351Y0246875D01*
X0029191Y0246820D01*
X0029030Y0246769D01*
X0028868Y0246722D01*
X0028704Y0246678D01*
X0028540Y0246639D01*
X0028374Y0246604D01*
X0028208Y0246573D01*
X0028041Y0246547D01*
X0027873Y0246524D01*
X0027705Y0246505D01*
X0027537Y0246491D01*
X0027368Y0246480D01*
X0027199Y0246474D01*
X0027030Y0246472D01*
X0026861Y0246474D01*
X0026692Y0246480D01*
X0026523Y0246491D01*
X0026355Y0246505D01*
X0026187Y0246524D01*
X0026019Y0246547D01*
X0025852Y0246573D01*
X0025686Y0246604D01*
X0025520Y0246639D01*
X0025356Y0246678D01*
X0025192Y0246722D01*
X0025030Y0246769D01*
X0024869Y0246820D01*
X0024709Y0246875D01*
X0024550Y0246934D01*
X0024393Y0246996D01*
X0024238Y0247063D01*
X0024084Y0247134D01*
X0023932Y0247208D01*
X0023782Y0247286D01*
X0023634Y0247367D01*
X0023488Y0247452D01*
X0023344Y0247541D01*
X0023202Y0247633D01*
X0023063Y0247729D01*
X0022926Y0247828D01*
X0022791Y0247930D01*
X0022659Y0248036D01*
X0022530Y0248145D01*
X0022403Y0248257D01*
X0022279Y0248372D01*
X0022158Y0248490D01*
X0022040Y0248611D01*
X0021925Y0248735D01*
X0021813Y0248862D01*
X0021704Y0248991D01*
X0021598Y0249123D01*
X0021496Y0249258D01*
X0021397Y0249395D01*
X0021301Y0249534D01*
X0021209Y0249676D01*
X0021120Y0249820D01*
X0021035Y0249966D01*
X0020954Y0250114D01*
X0020876Y0250264D01*
X0020802Y0250416D01*
X0020731Y0250570D01*
X0020664Y0250725D01*
X0020602Y0250882D01*
X0020543Y0251041D01*
X0020488Y0251201D01*
X0020437Y0251362D01*
X0020390Y0251524D01*
X0020346Y0251688D01*
X0020307Y0251852D01*
X0020272Y0252018D01*
X0020241Y0252184D01*
X0020215Y0252351D01*
X0020192Y0252519D01*
X0020173Y0252687D01*
X0020159Y0252855D01*
X0020148Y0253024D01*
X0020142Y0253193D01*
X0020140Y0253362D01*
X0074865Y0277260D02*
X0074867Y0277375D01*
X0074873Y0277491D01*
X0074883Y0277606D01*
X0074897Y0277721D01*
X0074915Y0277835D01*
X0074937Y0277948D01*
X0074962Y0278061D01*
X0074992Y0278172D01*
X0075025Y0278283D01*
X0075062Y0278392D01*
X0075103Y0278500D01*
X0075148Y0278607D01*
X0075196Y0278712D01*
X0075248Y0278815D01*
X0075304Y0278916D01*
X0075363Y0279016D01*
X0075425Y0279113D01*
X0075491Y0279208D01*
X0075559Y0279301D01*
X0075631Y0279391D01*
X0075706Y0279479D01*
X0075785Y0279564D01*
X0075866Y0279646D01*
X0075949Y0279726D01*
X0076036Y0279802D01*
X0076125Y0279876D01*
X0076216Y0279946D01*
X0076310Y0280014D01*
X0076406Y0280078D01*
X0076505Y0280138D01*
X0076605Y0280195D01*
X0076707Y0280249D01*
X0076811Y0280299D01*
X0076917Y0280346D01*
X0077024Y0280389D01*
X0077133Y0280428D01*
X0077243Y0280463D01*
X0077354Y0280494D01*
X0077466Y0280522D01*
X0077579Y0280546D01*
X0077693Y0280566D01*
X0077808Y0280582D01*
X0077923Y0280594D01*
X0078038Y0280602D01*
X0078153Y0280606D01*
X0078269Y0280606D01*
X0078384Y0280602D01*
X0078499Y0280594D01*
X0078614Y0280582D01*
X0078729Y0280566D01*
X0078843Y0280546D01*
X0078956Y0280522D01*
X0079068Y0280494D01*
X0079179Y0280463D01*
X0079289Y0280428D01*
X0079398Y0280389D01*
X0079505Y0280346D01*
X0079611Y0280299D01*
X0079715Y0280249D01*
X0079817Y0280195D01*
X0079917Y0280138D01*
X0080016Y0280078D01*
X0080112Y0280014D01*
X0080206Y0279946D01*
X0080297Y0279876D01*
X0080386Y0279802D01*
X0080473Y0279726D01*
X0080556Y0279646D01*
X0080637Y0279564D01*
X0080716Y0279479D01*
X0080791Y0279391D01*
X0080863Y0279301D01*
X0080931Y0279208D01*
X0080997Y0279113D01*
X0081059Y0279016D01*
X0081118Y0278916D01*
X0081174Y0278815D01*
X0081226Y0278712D01*
X0081274Y0278607D01*
X0081319Y0278500D01*
X0081360Y0278392D01*
X0081397Y0278283D01*
X0081430Y0278172D01*
X0081460Y0278061D01*
X0081485Y0277948D01*
X0081507Y0277835D01*
X0081525Y0277721D01*
X0081539Y0277606D01*
X0081549Y0277491D01*
X0081555Y0277375D01*
X0081557Y0277260D01*
X0081555Y0277145D01*
X0081549Y0277029D01*
X0081539Y0276914D01*
X0081525Y0276799D01*
X0081507Y0276685D01*
X0081485Y0276572D01*
X0081460Y0276459D01*
X0081430Y0276348D01*
X0081397Y0276237D01*
X0081360Y0276128D01*
X0081319Y0276020D01*
X0081274Y0275913D01*
X0081226Y0275808D01*
X0081174Y0275705D01*
X0081118Y0275604D01*
X0081059Y0275504D01*
X0080997Y0275407D01*
X0080931Y0275312D01*
X0080863Y0275219D01*
X0080791Y0275129D01*
X0080716Y0275041D01*
X0080637Y0274956D01*
X0080556Y0274874D01*
X0080473Y0274794D01*
X0080386Y0274718D01*
X0080297Y0274644D01*
X0080206Y0274574D01*
X0080112Y0274506D01*
X0080016Y0274442D01*
X0079917Y0274382D01*
X0079817Y0274325D01*
X0079715Y0274271D01*
X0079611Y0274221D01*
X0079505Y0274174D01*
X0079398Y0274131D01*
X0079289Y0274092D01*
X0079179Y0274057D01*
X0079068Y0274026D01*
X0078956Y0273998D01*
X0078843Y0273974D01*
X0078729Y0273954D01*
X0078614Y0273938D01*
X0078499Y0273926D01*
X0078384Y0273918D01*
X0078269Y0273914D01*
X0078153Y0273914D01*
X0078038Y0273918D01*
X0077923Y0273926D01*
X0077808Y0273938D01*
X0077693Y0273954D01*
X0077579Y0273974D01*
X0077466Y0273998D01*
X0077354Y0274026D01*
X0077243Y0274057D01*
X0077133Y0274092D01*
X0077024Y0274131D01*
X0076917Y0274174D01*
X0076811Y0274221D01*
X0076707Y0274271D01*
X0076605Y0274325D01*
X0076505Y0274382D01*
X0076406Y0274442D01*
X0076310Y0274506D01*
X0076216Y0274574D01*
X0076125Y0274644D01*
X0076036Y0274718D01*
X0075949Y0274794D01*
X0075866Y0274874D01*
X0075785Y0274956D01*
X0075706Y0275041D01*
X0075631Y0275129D01*
X0075559Y0275219D01*
X0075491Y0275312D01*
X0075425Y0275407D01*
X0075363Y0275504D01*
X0075304Y0275604D01*
X0075248Y0275705D01*
X0075196Y0275808D01*
X0075148Y0275913D01*
X0075103Y0276020D01*
X0075062Y0276128D01*
X0075025Y0276237D01*
X0074992Y0276348D01*
X0074962Y0276459D01*
X0074937Y0276572D01*
X0074915Y0276685D01*
X0074897Y0276799D01*
X0074883Y0276914D01*
X0074873Y0277029D01*
X0074867Y0277145D01*
X0074865Y0277260D01*
X0074865Y0304819D02*
X0074867Y0304934D01*
X0074873Y0305050D01*
X0074883Y0305165D01*
X0074897Y0305280D01*
X0074915Y0305394D01*
X0074937Y0305507D01*
X0074962Y0305620D01*
X0074992Y0305731D01*
X0075025Y0305842D01*
X0075062Y0305951D01*
X0075103Y0306059D01*
X0075148Y0306166D01*
X0075196Y0306271D01*
X0075248Y0306374D01*
X0075304Y0306475D01*
X0075363Y0306575D01*
X0075425Y0306672D01*
X0075491Y0306767D01*
X0075559Y0306860D01*
X0075631Y0306950D01*
X0075706Y0307038D01*
X0075785Y0307123D01*
X0075866Y0307205D01*
X0075949Y0307285D01*
X0076036Y0307361D01*
X0076125Y0307435D01*
X0076216Y0307505D01*
X0076310Y0307573D01*
X0076406Y0307637D01*
X0076505Y0307697D01*
X0076605Y0307754D01*
X0076707Y0307808D01*
X0076811Y0307858D01*
X0076917Y0307905D01*
X0077024Y0307948D01*
X0077133Y0307987D01*
X0077243Y0308022D01*
X0077354Y0308053D01*
X0077466Y0308081D01*
X0077579Y0308105D01*
X0077693Y0308125D01*
X0077808Y0308141D01*
X0077923Y0308153D01*
X0078038Y0308161D01*
X0078153Y0308165D01*
X0078269Y0308165D01*
X0078384Y0308161D01*
X0078499Y0308153D01*
X0078614Y0308141D01*
X0078729Y0308125D01*
X0078843Y0308105D01*
X0078956Y0308081D01*
X0079068Y0308053D01*
X0079179Y0308022D01*
X0079289Y0307987D01*
X0079398Y0307948D01*
X0079505Y0307905D01*
X0079611Y0307858D01*
X0079715Y0307808D01*
X0079817Y0307754D01*
X0079917Y0307697D01*
X0080016Y0307637D01*
X0080112Y0307573D01*
X0080206Y0307505D01*
X0080297Y0307435D01*
X0080386Y0307361D01*
X0080473Y0307285D01*
X0080556Y0307205D01*
X0080637Y0307123D01*
X0080716Y0307038D01*
X0080791Y0306950D01*
X0080863Y0306860D01*
X0080931Y0306767D01*
X0080997Y0306672D01*
X0081059Y0306575D01*
X0081118Y0306475D01*
X0081174Y0306374D01*
X0081226Y0306271D01*
X0081274Y0306166D01*
X0081319Y0306059D01*
X0081360Y0305951D01*
X0081397Y0305842D01*
X0081430Y0305731D01*
X0081460Y0305620D01*
X0081485Y0305507D01*
X0081507Y0305394D01*
X0081525Y0305280D01*
X0081539Y0305165D01*
X0081549Y0305050D01*
X0081555Y0304934D01*
X0081557Y0304819D01*
X0081555Y0304704D01*
X0081549Y0304588D01*
X0081539Y0304473D01*
X0081525Y0304358D01*
X0081507Y0304244D01*
X0081485Y0304131D01*
X0081460Y0304018D01*
X0081430Y0303907D01*
X0081397Y0303796D01*
X0081360Y0303687D01*
X0081319Y0303579D01*
X0081274Y0303472D01*
X0081226Y0303367D01*
X0081174Y0303264D01*
X0081118Y0303163D01*
X0081059Y0303063D01*
X0080997Y0302966D01*
X0080931Y0302871D01*
X0080863Y0302778D01*
X0080791Y0302688D01*
X0080716Y0302600D01*
X0080637Y0302515D01*
X0080556Y0302433D01*
X0080473Y0302353D01*
X0080386Y0302277D01*
X0080297Y0302203D01*
X0080206Y0302133D01*
X0080112Y0302065D01*
X0080016Y0302001D01*
X0079917Y0301941D01*
X0079817Y0301884D01*
X0079715Y0301830D01*
X0079611Y0301780D01*
X0079505Y0301733D01*
X0079398Y0301690D01*
X0079289Y0301651D01*
X0079179Y0301616D01*
X0079068Y0301585D01*
X0078956Y0301557D01*
X0078843Y0301533D01*
X0078729Y0301513D01*
X0078614Y0301497D01*
X0078499Y0301485D01*
X0078384Y0301477D01*
X0078269Y0301473D01*
X0078153Y0301473D01*
X0078038Y0301477D01*
X0077923Y0301485D01*
X0077808Y0301497D01*
X0077693Y0301513D01*
X0077579Y0301533D01*
X0077466Y0301557D01*
X0077354Y0301585D01*
X0077243Y0301616D01*
X0077133Y0301651D01*
X0077024Y0301690D01*
X0076917Y0301733D01*
X0076811Y0301780D01*
X0076707Y0301830D01*
X0076605Y0301884D01*
X0076505Y0301941D01*
X0076406Y0302001D01*
X0076310Y0302065D01*
X0076216Y0302133D01*
X0076125Y0302203D01*
X0076036Y0302277D01*
X0075949Y0302353D01*
X0075866Y0302433D01*
X0075785Y0302515D01*
X0075706Y0302600D01*
X0075631Y0302688D01*
X0075559Y0302778D01*
X0075491Y0302871D01*
X0075425Y0302966D01*
X0075363Y0303063D01*
X0075304Y0303163D01*
X0075248Y0303264D01*
X0075196Y0303367D01*
X0075148Y0303472D01*
X0075103Y0303579D01*
X0075062Y0303687D01*
X0075025Y0303796D01*
X0074992Y0303907D01*
X0074962Y0304018D01*
X0074937Y0304131D01*
X0074915Y0304244D01*
X0074897Y0304358D01*
X0074883Y0304473D01*
X0074873Y0304588D01*
X0074867Y0304704D01*
X0074865Y0304819D01*
X0126046Y0304819D02*
X0126048Y0304934D01*
X0126054Y0305050D01*
X0126064Y0305165D01*
X0126078Y0305280D01*
X0126096Y0305394D01*
X0126118Y0305507D01*
X0126143Y0305620D01*
X0126173Y0305731D01*
X0126206Y0305842D01*
X0126243Y0305951D01*
X0126284Y0306059D01*
X0126329Y0306166D01*
X0126377Y0306271D01*
X0126429Y0306374D01*
X0126485Y0306475D01*
X0126544Y0306575D01*
X0126606Y0306672D01*
X0126672Y0306767D01*
X0126740Y0306860D01*
X0126812Y0306950D01*
X0126887Y0307038D01*
X0126966Y0307123D01*
X0127047Y0307205D01*
X0127130Y0307285D01*
X0127217Y0307361D01*
X0127306Y0307435D01*
X0127397Y0307505D01*
X0127491Y0307573D01*
X0127587Y0307637D01*
X0127686Y0307697D01*
X0127786Y0307754D01*
X0127888Y0307808D01*
X0127992Y0307858D01*
X0128098Y0307905D01*
X0128205Y0307948D01*
X0128314Y0307987D01*
X0128424Y0308022D01*
X0128535Y0308053D01*
X0128647Y0308081D01*
X0128760Y0308105D01*
X0128874Y0308125D01*
X0128989Y0308141D01*
X0129104Y0308153D01*
X0129219Y0308161D01*
X0129334Y0308165D01*
X0129450Y0308165D01*
X0129565Y0308161D01*
X0129680Y0308153D01*
X0129795Y0308141D01*
X0129910Y0308125D01*
X0130024Y0308105D01*
X0130137Y0308081D01*
X0130249Y0308053D01*
X0130360Y0308022D01*
X0130470Y0307987D01*
X0130579Y0307948D01*
X0130686Y0307905D01*
X0130792Y0307858D01*
X0130896Y0307808D01*
X0130998Y0307754D01*
X0131098Y0307697D01*
X0131197Y0307637D01*
X0131293Y0307573D01*
X0131387Y0307505D01*
X0131478Y0307435D01*
X0131567Y0307361D01*
X0131654Y0307285D01*
X0131737Y0307205D01*
X0131818Y0307123D01*
X0131897Y0307038D01*
X0131972Y0306950D01*
X0132044Y0306860D01*
X0132112Y0306767D01*
X0132178Y0306672D01*
X0132240Y0306575D01*
X0132299Y0306475D01*
X0132355Y0306374D01*
X0132407Y0306271D01*
X0132455Y0306166D01*
X0132500Y0306059D01*
X0132541Y0305951D01*
X0132578Y0305842D01*
X0132611Y0305731D01*
X0132641Y0305620D01*
X0132666Y0305507D01*
X0132688Y0305394D01*
X0132706Y0305280D01*
X0132720Y0305165D01*
X0132730Y0305050D01*
X0132736Y0304934D01*
X0132738Y0304819D01*
X0132736Y0304704D01*
X0132730Y0304588D01*
X0132720Y0304473D01*
X0132706Y0304358D01*
X0132688Y0304244D01*
X0132666Y0304131D01*
X0132641Y0304018D01*
X0132611Y0303907D01*
X0132578Y0303796D01*
X0132541Y0303687D01*
X0132500Y0303579D01*
X0132455Y0303472D01*
X0132407Y0303367D01*
X0132355Y0303264D01*
X0132299Y0303163D01*
X0132240Y0303063D01*
X0132178Y0302966D01*
X0132112Y0302871D01*
X0132044Y0302778D01*
X0131972Y0302688D01*
X0131897Y0302600D01*
X0131818Y0302515D01*
X0131737Y0302433D01*
X0131654Y0302353D01*
X0131567Y0302277D01*
X0131478Y0302203D01*
X0131387Y0302133D01*
X0131293Y0302065D01*
X0131197Y0302001D01*
X0131098Y0301941D01*
X0130998Y0301884D01*
X0130896Y0301830D01*
X0130792Y0301780D01*
X0130686Y0301733D01*
X0130579Y0301690D01*
X0130470Y0301651D01*
X0130360Y0301616D01*
X0130249Y0301585D01*
X0130137Y0301557D01*
X0130024Y0301533D01*
X0129910Y0301513D01*
X0129795Y0301497D01*
X0129680Y0301485D01*
X0129565Y0301477D01*
X0129450Y0301473D01*
X0129334Y0301473D01*
X0129219Y0301477D01*
X0129104Y0301485D01*
X0128989Y0301497D01*
X0128874Y0301513D01*
X0128760Y0301533D01*
X0128647Y0301557D01*
X0128535Y0301585D01*
X0128424Y0301616D01*
X0128314Y0301651D01*
X0128205Y0301690D01*
X0128098Y0301733D01*
X0127992Y0301780D01*
X0127888Y0301830D01*
X0127786Y0301884D01*
X0127686Y0301941D01*
X0127587Y0302001D01*
X0127491Y0302065D01*
X0127397Y0302133D01*
X0127306Y0302203D01*
X0127217Y0302277D01*
X0127130Y0302353D01*
X0127047Y0302433D01*
X0126966Y0302515D01*
X0126887Y0302600D01*
X0126812Y0302688D01*
X0126740Y0302778D01*
X0126672Y0302871D01*
X0126606Y0302966D01*
X0126544Y0303063D01*
X0126485Y0303163D01*
X0126429Y0303264D01*
X0126377Y0303367D01*
X0126329Y0303472D01*
X0126284Y0303579D01*
X0126243Y0303687D01*
X0126206Y0303796D01*
X0126173Y0303907D01*
X0126143Y0304018D01*
X0126118Y0304131D01*
X0126096Y0304244D01*
X0126078Y0304358D01*
X0126064Y0304473D01*
X0126054Y0304588D01*
X0126048Y0304704D01*
X0126046Y0304819D01*
X0126046Y0277260D02*
X0126048Y0277375D01*
X0126054Y0277491D01*
X0126064Y0277606D01*
X0126078Y0277721D01*
X0126096Y0277835D01*
X0126118Y0277948D01*
X0126143Y0278061D01*
X0126173Y0278172D01*
X0126206Y0278283D01*
X0126243Y0278392D01*
X0126284Y0278500D01*
X0126329Y0278607D01*
X0126377Y0278712D01*
X0126429Y0278815D01*
X0126485Y0278916D01*
X0126544Y0279016D01*
X0126606Y0279113D01*
X0126672Y0279208D01*
X0126740Y0279301D01*
X0126812Y0279391D01*
X0126887Y0279479D01*
X0126966Y0279564D01*
X0127047Y0279646D01*
X0127130Y0279726D01*
X0127217Y0279802D01*
X0127306Y0279876D01*
X0127397Y0279946D01*
X0127491Y0280014D01*
X0127587Y0280078D01*
X0127686Y0280138D01*
X0127786Y0280195D01*
X0127888Y0280249D01*
X0127992Y0280299D01*
X0128098Y0280346D01*
X0128205Y0280389D01*
X0128314Y0280428D01*
X0128424Y0280463D01*
X0128535Y0280494D01*
X0128647Y0280522D01*
X0128760Y0280546D01*
X0128874Y0280566D01*
X0128989Y0280582D01*
X0129104Y0280594D01*
X0129219Y0280602D01*
X0129334Y0280606D01*
X0129450Y0280606D01*
X0129565Y0280602D01*
X0129680Y0280594D01*
X0129795Y0280582D01*
X0129910Y0280566D01*
X0130024Y0280546D01*
X0130137Y0280522D01*
X0130249Y0280494D01*
X0130360Y0280463D01*
X0130470Y0280428D01*
X0130579Y0280389D01*
X0130686Y0280346D01*
X0130792Y0280299D01*
X0130896Y0280249D01*
X0130998Y0280195D01*
X0131098Y0280138D01*
X0131197Y0280078D01*
X0131293Y0280014D01*
X0131387Y0279946D01*
X0131478Y0279876D01*
X0131567Y0279802D01*
X0131654Y0279726D01*
X0131737Y0279646D01*
X0131818Y0279564D01*
X0131897Y0279479D01*
X0131972Y0279391D01*
X0132044Y0279301D01*
X0132112Y0279208D01*
X0132178Y0279113D01*
X0132240Y0279016D01*
X0132299Y0278916D01*
X0132355Y0278815D01*
X0132407Y0278712D01*
X0132455Y0278607D01*
X0132500Y0278500D01*
X0132541Y0278392D01*
X0132578Y0278283D01*
X0132611Y0278172D01*
X0132641Y0278061D01*
X0132666Y0277948D01*
X0132688Y0277835D01*
X0132706Y0277721D01*
X0132720Y0277606D01*
X0132730Y0277491D01*
X0132736Y0277375D01*
X0132738Y0277260D01*
X0132736Y0277145D01*
X0132730Y0277029D01*
X0132720Y0276914D01*
X0132706Y0276799D01*
X0132688Y0276685D01*
X0132666Y0276572D01*
X0132641Y0276459D01*
X0132611Y0276348D01*
X0132578Y0276237D01*
X0132541Y0276128D01*
X0132500Y0276020D01*
X0132455Y0275913D01*
X0132407Y0275808D01*
X0132355Y0275705D01*
X0132299Y0275604D01*
X0132240Y0275504D01*
X0132178Y0275407D01*
X0132112Y0275312D01*
X0132044Y0275219D01*
X0131972Y0275129D01*
X0131897Y0275041D01*
X0131818Y0274956D01*
X0131737Y0274874D01*
X0131654Y0274794D01*
X0131567Y0274718D01*
X0131478Y0274644D01*
X0131387Y0274574D01*
X0131293Y0274506D01*
X0131197Y0274442D01*
X0131098Y0274382D01*
X0130998Y0274325D01*
X0130896Y0274271D01*
X0130792Y0274221D01*
X0130686Y0274174D01*
X0130579Y0274131D01*
X0130470Y0274092D01*
X0130360Y0274057D01*
X0130249Y0274026D01*
X0130137Y0273998D01*
X0130024Y0273974D01*
X0129910Y0273954D01*
X0129795Y0273938D01*
X0129680Y0273926D01*
X0129565Y0273918D01*
X0129450Y0273914D01*
X0129334Y0273914D01*
X0129219Y0273918D01*
X0129104Y0273926D01*
X0128989Y0273938D01*
X0128874Y0273954D01*
X0128760Y0273974D01*
X0128647Y0273998D01*
X0128535Y0274026D01*
X0128424Y0274057D01*
X0128314Y0274092D01*
X0128205Y0274131D01*
X0128098Y0274174D01*
X0127992Y0274221D01*
X0127888Y0274271D01*
X0127786Y0274325D01*
X0127686Y0274382D01*
X0127587Y0274442D01*
X0127491Y0274506D01*
X0127397Y0274574D01*
X0127306Y0274644D01*
X0127217Y0274718D01*
X0127130Y0274794D01*
X0127047Y0274874D01*
X0126966Y0274956D01*
X0126887Y0275041D01*
X0126812Y0275129D01*
X0126740Y0275219D01*
X0126672Y0275312D01*
X0126606Y0275407D01*
X0126544Y0275504D01*
X0126485Y0275604D01*
X0126429Y0275705D01*
X0126377Y0275808D01*
X0126329Y0275913D01*
X0126284Y0276020D01*
X0126243Y0276128D01*
X0126206Y0276237D01*
X0126173Y0276348D01*
X0126143Y0276459D01*
X0126118Y0276572D01*
X0126096Y0276685D01*
X0126078Y0276799D01*
X0126064Y0276914D01*
X0126054Y0277029D01*
X0126048Y0277145D01*
X0126046Y0277260D01*
X0177227Y0277260D02*
X0177229Y0277375D01*
X0177235Y0277491D01*
X0177245Y0277606D01*
X0177259Y0277721D01*
X0177277Y0277835D01*
X0177299Y0277948D01*
X0177324Y0278061D01*
X0177354Y0278172D01*
X0177387Y0278283D01*
X0177424Y0278392D01*
X0177465Y0278500D01*
X0177510Y0278607D01*
X0177558Y0278712D01*
X0177610Y0278815D01*
X0177666Y0278916D01*
X0177725Y0279016D01*
X0177787Y0279113D01*
X0177853Y0279208D01*
X0177921Y0279301D01*
X0177993Y0279391D01*
X0178068Y0279479D01*
X0178147Y0279564D01*
X0178228Y0279646D01*
X0178311Y0279726D01*
X0178398Y0279802D01*
X0178487Y0279876D01*
X0178578Y0279946D01*
X0178672Y0280014D01*
X0178768Y0280078D01*
X0178867Y0280138D01*
X0178967Y0280195D01*
X0179069Y0280249D01*
X0179173Y0280299D01*
X0179279Y0280346D01*
X0179386Y0280389D01*
X0179495Y0280428D01*
X0179605Y0280463D01*
X0179716Y0280494D01*
X0179828Y0280522D01*
X0179941Y0280546D01*
X0180055Y0280566D01*
X0180170Y0280582D01*
X0180285Y0280594D01*
X0180400Y0280602D01*
X0180515Y0280606D01*
X0180631Y0280606D01*
X0180746Y0280602D01*
X0180861Y0280594D01*
X0180976Y0280582D01*
X0181091Y0280566D01*
X0181205Y0280546D01*
X0181318Y0280522D01*
X0181430Y0280494D01*
X0181541Y0280463D01*
X0181651Y0280428D01*
X0181760Y0280389D01*
X0181867Y0280346D01*
X0181973Y0280299D01*
X0182077Y0280249D01*
X0182179Y0280195D01*
X0182279Y0280138D01*
X0182378Y0280078D01*
X0182474Y0280014D01*
X0182568Y0279946D01*
X0182659Y0279876D01*
X0182748Y0279802D01*
X0182835Y0279726D01*
X0182918Y0279646D01*
X0182999Y0279564D01*
X0183078Y0279479D01*
X0183153Y0279391D01*
X0183225Y0279301D01*
X0183293Y0279208D01*
X0183359Y0279113D01*
X0183421Y0279016D01*
X0183480Y0278916D01*
X0183536Y0278815D01*
X0183588Y0278712D01*
X0183636Y0278607D01*
X0183681Y0278500D01*
X0183722Y0278392D01*
X0183759Y0278283D01*
X0183792Y0278172D01*
X0183822Y0278061D01*
X0183847Y0277948D01*
X0183869Y0277835D01*
X0183887Y0277721D01*
X0183901Y0277606D01*
X0183911Y0277491D01*
X0183917Y0277375D01*
X0183919Y0277260D01*
X0183917Y0277145D01*
X0183911Y0277029D01*
X0183901Y0276914D01*
X0183887Y0276799D01*
X0183869Y0276685D01*
X0183847Y0276572D01*
X0183822Y0276459D01*
X0183792Y0276348D01*
X0183759Y0276237D01*
X0183722Y0276128D01*
X0183681Y0276020D01*
X0183636Y0275913D01*
X0183588Y0275808D01*
X0183536Y0275705D01*
X0183480Y0275604D01*
X0183421Y0275504D01*
X0183359Y0275407D01*
X0183293Y0275312D01*
X0183225Y0275219D01*
X0183153Y0275129D01*
X0183078Y0275041D01*
X0182999Y0274956D01*
X0182918Y0274874D01*
X0182835Y0274794D01*
X0182748Y0274718D01*
X0182659Y0274644D01*
X0182568Y0274574D01*
X0182474Y0274506D01*
X0182378Y0274442D01*
X0182279Y0274382D01*
X0182179Y0274325D01*
X0182077Y0274271D01*
X0181973Y0274221D01*
X0181867Y0274174D01*
X0181760Y0274131D01*
X0181651Y0274092D01*
X0181541Y0274057D01*
X0181430Y0274026D01*
X0181318Y0273998D01*
X0181205Y0273974D01*
X0181091Y0273954D01*
X0180976Y0273938D01*
X0180861Y0273926D01*
X0180746Y0273918D01*
X0180631Y0273914D01*
X0180515Y0273914D01*
X0180400Y0273918D01*
X0180285Y0273926D01*
X0180170Y0273938D01*
X0180055Y0273954D01*
X0179941Y0273974D01*
X0179828Y0273998D01*
X0179716Y0274026D01*
X0179605Y0274057D01*
X0179495Y0274092D01*
X0179386Y0274131D01*
X0179279Y0274174D01*
X0179173Y0274221D01*
X0179069Y0274271D01*
X0178967Y0274325D01*
X0178867Y0274382D01*
X0178768Y0274442D01*
X0178672Y0274506D01*
X0178578Y0274574D01*
X0178487Y0274644D01*
X0178398Y0274718D01*
X0178311Y0274794D01*
X0178228Y0274874D01*
X0178147Y0274956D01*
X0178068Y0275041D01*
X0177993Y0275129D01*
X0177921Y0275219D01*
X0177853Y0275312D01*
X0177787Y0275407D01*
X0177725Y0275504D01*
X0177666Y0275604D01*
X0177610Y0275705D01*
X0177558Y0275808D01*
X0177510Y0275913D01*
X0177465Y0276020D01*
X0177424Y0276128D01*
X0177387Y0276237D01*
X0177354Y0276348D01*
X0177324Y0276459D01*
X0177299Y0276572D01*
X0177277Y0276685D01*
X0177259Y0276799D01*
X0177245Y0276914D01*
X0177235Y0277029D01*
X0177229Y0277145D01*
X0177227Y0277260D01*
X0177227Y0304819D02*
X0177229Y0304934D01*
X0177235Y0305050D01*
X0177245Y0305165D01*
X0177259Y0305280D01*
X0177277Y0305394D01*
X0177299Y0305507D01*
X0177324Y0305620D01*
X0177354Y0305731D01*
X0177387Y0305842D01*
X0177424Y0305951D01*
X0177465Y0306059D01*
X0177510Y0306166D01*
X0177558Y0306271D01*
X0177610Y0306374D01*
X0177666Y0306475D01*
X0177725Y0306575D01*
X0177787Y0306672D01*
X0177853Y0306767D01*
X0177921Y0306860D01*
X0177993Y0306950D01*
X0178068Y0307038D01*
X0178147Y0307123D01*
X0178228Y0307205D01*
X0178311Y0307285D01*
X0178398Y0307361D01*
X0178487Y0307435D01*
X0178578Y0307505D01*
X0178672Y0307573D01*
X0178768Y0307637D01*
X0178867Y0307697D01*
X0178967Y0307754D01*
X0179069Y0307808D01*
X0179173Y0307858D01*
X0179279Y0307905D01*
X0179386Y0307948D01*
X0179495Y0307987D01*
X0179605Y0308022D01*
X0179716Y0308053D01*
X0179828Y0308081D01*
X0179941Y0308105D01*
X0180055Y0308125D01*
X0180170Y0308141D01*
X0180285Y0308153D01*
X0180400Y0308161D01*
X0180515Y0308165D01*
X0180631Y0308165D01*
X0180746Y0308161D01*
X0180861Y0308153D01*
X0180976Y0308141D01*
X0181091Y0308125D01*
X0181205Y0308105D01*
X0181318Y0308081D01*
X0181430Y0308053D01*
X0181541Y0308022D01*
X0181651Y0307987D01*
X0181760Y0307948D01*
X0181867Y0307905D01*
X0181973Y0307858D01*
X0182077Y0307808D01*
X0182179Y0307754D01*
X0182279Y0307697D01*
X0182378Y0307637D01*
X0182474Y0307573D01*
X0182568Y0307505D01*
X0182659Y0307435D01*
X0182748Y0307361D01*
X0182835Y0307285D01*
X0182918Y0307205D01*
X0182999Y0307123D01*
X0183078Y0307038D01*
X0183153Y0306950D01*
X0183225Y0306860D01*
X0183293Y0306767D01*
X0183359Y0306672D01*
X0183421Y0306575D01*
X0183480Y0306475D01*
X0183536Y0306374D01*
X0183588Y0306271D01*
X0183636Y0306166D01*
X0183681Y0306059D01*
X0183722Y0305951D01*
X0183759Y0305842D01*
X0183792Y0305731D01*
X0183822Y0305620D01*
X0183847Y0305507D01*
X0183869Y0305394D01*
X0183887Y0305280D01*
X0183901Y0305165D01*
X0183911Y0305050D01*
X0183917Y0304934D01*
X0183919Y0304819D01*
X0183917Y0304704D01*
X0183911Y0304588D01*
X0183901Y0304473D01*
X0183887Y0304358D01*
X0183869Y0304244D01*
X0183847Y0304131D01*
X0183822Y0304018D01*
X0183792Y0303907D01*
X0183759Y0303796D01*
X0183722Y0303687D01*
X0183681Y0303579D01*
X0183636Y0303472D01*
X0183588Y0303367D01*
X0183536Y0303264D01*
X0183480Y0303163D01*
X0183421Y0303063D01*
X0183359Y0302966D01*
X0183293Y0302871D01*
X0183225Y0302778D01*
X0183153Y0302688D01*
X0183078Y0302600D01*
X0182999Y0302515D01*
X0182918Y0302433D01*
X0182835Y0302353D01*
X0182748Y0302277D01*
X0182659Y0302203D01*
X0182568Y0302133D01*
X0182474Y0302065D01*
X0182378Y0302001D01*
X0182279Y0301941D01*
X0182179Y0301884D01*
X0182077Y0301830D01*
X0181973Y0301780D01*
X0181867Y0301733D01*
X0181760Y0301690D01*
X0181651Y0301651D01*
X0181541Y0301616D01*
X0181430Y0301585D01*
X0181318Y0301557D01*
X0181205Y0301533D01*
X0181091Y0301513D01*
X0180976Y0301497D01*
X0180861Y0301485D01*
X0180746Y0301477D01*
X0180631Y0301473D01*
X0180515Y0301473D01*
X0180400Y0301477D01*
X0180285Y0301485D01*
X0180170Y0301497D01*
X0180055Y0301513D01*
X0179941Y0301533D01*
X0179828Y0301557D01*
X0179716Y0301585D01*
X0179605Y0301616D01*
X0179495Y0301651D01*
X0179386Y0301690D01*
X0179279Y0301733D01*
X0179173Y0301780D01*
X0179069Y0301830D01*
X0178967Y0301884D01*
X0178867Y0301941D01*
X0178768Y0302001D01*
X0178672Y0302065D01*
X0178578Y0302133D01*
X0178487Y0302203D01*
X0178398Y0302277D01*
X0178311Y0302353D01*
X0178228Y0302433D01*
X0178147Y0302515D01*
X0178068Y0302600D01*
X0177993Y0302688D01*
X0177921Y0302778D01*
X0177853Y0302871D01*
X0177787Y0302966D01*
X0177725Y0303063D01*
X0177666Y0303163D01*
X0177610Y0303264D01*
X0177558Y0303367D01*
X0177510Y0303472D01*
X0177465Y0303579D01*
X0177424Y0303687D01*
X0177387Y0303796D01*
X0177354Y0303907D01*
X0177324Y0304018D01*
X0177299Y0304131D01*
X0177277Y0304244D01*
X0177259Y0304358D01*
X0177245Y0304473D01*
X0177235Y0304588D01*
X0177229Y0304704D01*
X0177227Y0304819D01*
X0228408Y0304819D02*
X0228410Y0304934D01*
X0228416Y0305050D01*
X0228426Y0305165D01*
X0228440Y0305280D01*
X0228458Y0305394D01*
X0228480Y0305507D01*
X0228505Y0305620D01*
X0228535Y0305731D01*
X0228568Y0305842D01*
X0228605Y0305951D01*
X0228646Y0306059D01*
X0228691Y0306166D01*
X0228739Y0306271D01*
X0228791Y0306374D01*
X0228847Y0306475D01*
X0228906Y0306575D01*
X0228968Y0306672D01*
X0229034Y0306767D01*
X0229102Y0306860D01*
X0229174Y0306950D01*
X0229249Y0307038D01*
X0229328Y0307123D01*
X0229409Y0307205D01*
X0229492Y0307285D01*
X0229579Y0307361D01*
X0229668Y0307435D01*
X0229759Y0307505D01*
X0229853Y0307573D01*
X0229949Y0307637D01*
X0230048Y0307697D01*
X0230148Y0307754D01*
X0230250Y0307808D01*
X0230354Y0307858D01*
X0230460Y0307905D01*
X0230567Y0307948D01*
X0230676Y0307987D01*
X0230786Y0308022D01*
X0230897Y0308053D01*
X0231009Y0308081D01*
X0231122Y0308105D01*
X0231236Y0308125D01*
X0231351Y0308141D01*
X0231466Y0308153D01*
X0231581Y0308161D01*
X0231696Y0308165D01*
X0231812Y0308165D01*
X0231927Y0308161D01*
X0232042Y0308153D01*
X0232157Y0308141D01*
X0232272Y0308125D01*
X0232386Y0308105D01*
X0232499Y0308081D01*
X0232611Y0308053D01*
X0232722Y0308022D01*
X0232832Y0307987D01*
X0232941Y0307948D01*
X0233048Y0307905D01*
X0233154Y0307858D01*
X0233258Y0307808D01*
X0233360Y0307754D01*
X0233460Y0307697D01*
X0233559Y0307637D01*
X0233655Y0307573D01*
X0233749Y0307505D01*
X0233840Y0307435D01*
X0233929Y0307361D01*
X0234016Y0307285D01*
X0234099Y0307205D01*
X0234180Y0307123D01*
X0234259Y0307038D01*
X0234334Y0306950D01*
X0234406Y0306860D01*
X0234474Y0306767D01*
X0234540Y0306672D01*
X0234602Y0306575D01*
X0234661Y0306475D01*
X0234717Y0306374D01*
X0234769Y0306271D01*
X0234817Y0306166D01*
X0234862Y0306059D01*
X0234903Y0305951D01*
X0234940Y0305842D01*
X0234973Y0305731D01*
X0235003Y0305620D01*
X0235028Y0305507D01*
X0235050Y0305394D01*
X0235068Y0305280D01*
X0235082Y0305165D01*
X0235092Y0305050D01*
X0235098Y0304934D01*
X0235100Y0304819D01*
X0235098Y0304704D01*
X0235092Y0304588D01*
X0235082Y0304473D01*
X0235068Y0304358D01*
X0235050Y0304244D01*
X0235028Y0304131D01*
X0235003Y0304018D01*
X0234973Y0303907D01*
X0234940Y0303796D01*
X0234903Y0303687D01*
X0234862Y0303579D01*
X0234817Y0303472D01*
X0234769Y0303367D01*
X0234717Y0303264D01*
X0234661Y0303163D01*
X0234602Y0303063D01*
X0234540Y0302966D01*
X0234474Y0302871D01*
X0234406Y0302778D01*
X0234334Y0302688D01*
X0234259Y0302600D01*
X0234180Y0302515D01*
X0234099Y0302433D01*
X0234016Y0302353D01*
X0233929Y0302277D01*
X0233840Y0302203D01*
X0233749Y0302133D01*
X0233655Y0302065D01*
X0233559Y0302001D01*
X0233460Y0301941D01*
X0233360Y0301884D01*
X0233258Y0301830D01*
X0233154Y0301780D01*
X0233048Y0301733D01*
X0232941Y0301690D01*
X0232832Y0301651D01*
X0232722Y0301616D01*
X0232611Y0301585D01*
X0232499Y0301557D01*
X0232386Y0301533D01*
X0232272Y0301513D01*
X0232157Y0301497D01*
X0232042Y0301485D01*
X0231927Y0301477D01*
X0231812Y0301473D01*
X0231696Y0301473D01*
X0231581Y0301477D01*
X0231466Y0301485D01*
X0231351Y0301497D01*
X0231236Y0301513D01*
X0231122Y0301533D01*
X0231009Y0301557D01*
X0230897Y0301585D01*
X0230786Y0301616D01*
X0230676Y0301651D01*
X0230567Y0301690D01*
X0230460Y0301733D01*
X0230354Y0301780D01*
X0230250Y0301830D01*
X0230148Y0301884D01*
X0230048Y0301941D01*
X0229949Y0302001D01*
X0229853Y0302065D01*
X0229759Y0302133D01*
X0229668Y0302203D01*
X0229579Y0302277D01*
X0229492Y0302353D01*
X0229409Y0302433D01*
X0229328Y0302515D01*
X0229249Y0302600D01*
X0229174Y0302688D01*
X0229102Y0302778D01*
X0229034Y0302871D01*
X0228968Y0302966D01*
X0228906Y0303063D01*
X0228847Y0303163D01*
X0228791Y0303264D01*
X0228739Y0303367D01*
X0228691Y0303472D01*
X0228646Y0303579D01*
X0228605Y0303687D01*
X0228568Y0303796D01*
X0228535Y0303907D01*
X0228505Y0304018D01*
X0228480Y0304131D01*
X0228458Y0304244D01*
X0228440Y0304358D01*
X0228426Y0304473D01*
X0228416Y0304588D01*
X0228410Y0304704D01*
X0228408Y0304819D01*
X0228408Y0277260D02*
X0228410Y0277375D01*
X0228416Y0277491D01*
X0228426Y0277606D01*
X0228440Y0277721D01*
X0228458Y0277835D01*
X0228480Y0277948D01*
X0228505Y0278061D01*
X0228535Y0278172D01*
X0228568Y0278283D01*
X0228605Y0278392D01*
X0228646Y0278500D01*
X0228691Y0278607D01*
X0228739Y0278712D01*
X0228791Y0278815D01*
X0228847Y0278916D01*
X0228906Y0279016D01*
X0228968Y0279113D01*
X0229034Y0279208D01*
X0229102Y0279301D01*
X0229174Y0279391D01*
X0229249Y0279479D01*
X0229328Y0279564D01*
X0229409Y0279646D01*
X0229492Y0279726D01*
X0229579Y0279802D01*
X0229668Y0279876D01*
X0229759Y0279946D01*
X0229853Y0280014D01*
X0229949Y0280078D01*
X0230048Y0280138D01*
X0230148Y0280195D01*
X0230250Y0280249D01*
X0230354Y0280299D01*
X0230460Y0280346D01*
X0230567Y0280389D01*
X0230676Y0280428D01*
X0230786Y0280463D01*
X0230897Y0280494D01*
X0231009Y0280522D01*
X0231122Y0280546D01*
X0231236Y0280566D01*
X0231351Y0280582D01*
X0231466Y0280594D01*
X0231581Y0280602D01*
X0231696Y0280606D01*
X0231812Y0280606D01*
X0231927Y0280602D01*
X0232042Y0280594D01*
X0232157Y0280582D01*
X0232272Y0280566D01*
X0232386Y0280546D01*
X0232499Y0280522D01*
X0232611Y0280494D01*
X0232722Y0280463D01*
X0232832Y0280428D01*
X0232941Y0280389D01*
X0233048Y0280346D01*
X0233154Y0280299D01*
X0233258Y0280249D01*
X0233360Y0280195D01*
X0233460Y0280138D01*
X0233559Y0280078D01*
X0233655Y0280014D01*
X0233749Y0279946D01*
X0233840Y0279876D01*
X0233929Y0279802D01*
X0234016Y0279726D01*
X0234099Y0279646D01*
X0234180Y0279564D01*
X0234259Y0279479D01*
X0234334Y0279391D01*
X0234406Y0279301D01*
X0234474Y0279208D01*
X0234540Y0279113D01*
X0234602Y0279016D01*
X0234661Y0278916D01*
X0234717Y0278815D01*
X0234769Y0278712D01*
X0234817Y0278607D01*
X0234862Y0278500D01*
X0234903Y0278392D01*
X0234940Y0278283D01*
X0234973Y0278172D01*
X0235003Y0278061D01*
X0235028Y0277948D01*
X0235050Y0277835D01*
X0235068Y0277721D01*
X0235082Y0277606D01*
X0235092Y0277491D01*
X0235098Y0277375D01*
X0235100Y0277260D01*
X0235098Y0277145D01*
X0235092Y0277029D01*
X0235082Y0276914D01*
X0235068Y0276799D01*
X0235050Y0276685D01*
X0235028Y0276572D01*
X0235003Y0276459D01*
X0234973Y0276348D01*
X0234940Y0276237D01*
X0234903Y0276128D01*
X0234862Y0276020D01*
X0234817Y0275913D01*
X0234769Y0275808D01*
X0234717Y0275705D01*
X0234661Y0275604D01*
X0234602Y0275504D01*
X0234540Y0275407D01*
X0234474Y0275312D01*
X0234406Y0275219D01*
X0234334Y0275129D01*
X0234259Y0275041D01*
X0234180Y0274956D01*
X0234099Y0274874D01*
X0234016Y0274794D01*
X0233929Y0274718D01*
X0233840Y0274644D01*
X0233749Y0274574D01*
X0233655Y0274506D01*
X0233559Y0274442D01*
X0233460Y0274382D01*
X0233360Y0274325D01*
X0233258Y0274271D01*
X0233154Y0274221D01*
X0233048Y0274174D01*
X0232941Y0274131D01*
X0232832Y0274092D01*
X0232722Y0274057D01*
X0232611Y0274026D01*
X0232499Y0273998D01*
X0232386Y0273974D01*
X0232272Y0273954D01*
X0232157Y0273938D01*
X0232042Y0273926D01*
X0231927Y0273918D01*
X0231812Y0273914D01*
X0231696Y0273914D01*
X0231581Y0273918D01*
X0231466Y0273926D01*
X0231351Y0273938D01*
X0231236Y0273954D01*
X0231122Y0273974D01*
X0231009Y0273998D01*
X0230897Y0274026D01*
X0230786Y0274057D01*
X0230676Y0274092D01*
X0230567Y0274131D01*
X0230460Y0274174D01*
X0230354Y0274221D01*
X0230250Y0274271D01*
X0230148Y0274325D01*
X0230048Y0274382D01*
X0229949Y0274442D01*
X0229853Y0274506D01*
X0229759Y0274574D01*
X0229668Y0274644D01*
X0229579Y0274718D01*
X0229492Y0274794D01*
X0229409Y0274874D01*
X0229328Y0274956D01*
X0229249Y0275041D01*
X0229174Y0275129D01*
X0229102Y0275219D01*
X0229034Y0275312D01*
X0228968Y0275407D01*
X0228906Y0275504D01*
X0228847Y0275604D01*
X0228791Y0275705D01*
X0228739Y0275808D01*
X0228691Y0275913D01*
X0228646Y0276020D01*
X0228605Y0276128D01*
X0228568Y0276237D01*
X0228535Y0276348D01*
X0228505Y0276459D01*
X0228480Y0276572D01*
X0228458Y0276685D01*
X0228440Y0276799D01*
X0228426Y0276914D01*
X0228416Y0277029D01*
X0228410Y0277145D01*
X0228408Y0277260D01*
X0279589Y0277260D02*
X0279591Y0277375D01*
X0279597Y0277491D01*
X0279607Y0277606D01*
X0279621Y0277721D01*
X0279639Y0277835D01*
X0279661Y0277948D01*
X0279686Y0278061D01*
X0279716Y0278172D01*
X0279749Y0278283D01*
X0279786Y0278392D01*
X0279827Y0278500D01*
X0279872Y0278607D01*
X0279920Y0278712D01*
X0279972Y0278815D01*
X0280028Y0278916D01*
X0280087Y0279016D01*
X0280149Y0279113D01*
X0280215Y0279208D01*
X0280283Y0279301D01*
X0280355Y0279391D01*
X0280430Y0279479D01*
X0280509Y0279564D01*
X0280590Y0279646D01*
X0280673Y0279726D01*
X0280760Y0279802D01*
X0280849Y0279876D01*
X0280940Y0279946D01*
X0281034Y0280014D01*
X0281130Y0280078D01*
X0281229Y0280138D01*
X0281329Y0280195D01*
X0281431Y0280249D01*
X0281535Y0280299D01*
X0281641Y0280346D01*
X0281748Y0280389D01*
X0281857Y0280428D01*
X0281967Y0280463D01*
X0282078Y0280494D01*
X0282190Y0280522D01*
X0282303Y0280546D01*
X0282417Y0280566D01*
X0282532Y0280582D01*
X0282647Y0280594D01*
X0282762Y0280602D01*
X0282877Y0280606D01*
X0282993Y0280606D01*
X0283108Y0280602D01*
X0283223Y0280594D01*
X0283338Y0280582D01*
X0283453Y0280566D01*
X0283567Y0280546D01*
X0283680Y0280522D01*
X0283792Y0280494D01*
X0283903Y0280463D01*
X0284013Y0280428D01*
X0284122Y0280389D01*
X0284229Y0280346D01*
X0284335Y0280299D01*
X0284439Y0280249D01*
X0284541Y0280195D01*
X0284641Y0280138D01*
X0284740Y0280078D01*
X0284836Y0280014D01*
X0284930Y0279946D01*
X0285021Y0279876D01*
X0285110Y0279802D01*
X0285197Y0279726D01*
X0285280Y0279646D01*
X0285361Y0279564D01*
X0285440Y0279479D01*
X0285515Y0279391D01*
X0285587Y0279301D01*
X0285655Y0279208D01*
X0285721Y0279113D01*
X0285783Y0279016D01*
X0285842Y0278916D01*
X0285898Y0278815D01*
X0285950Y0278712D01*
X0285998Y0278607D01*
X0286043Y0278500D01*
X0286084Y0278392D01*
X0286121Y0278283D01*
X0286154Y0278172D01*
X0286184Y0278061D01*
X0286209Y0277948D01*
X0286231Y0277835D01*
X0286249Y0277721D01*
X0286263Y0277606D01*
X0286273Y0277491D01*
X0286279Y0277375D01*
X0286281Y0277260D01*
X0286279Y0277145D01*
X0286273Y0277029D01*
X0286263Y0276914D01*
X0286249Y0276799D01*
X0286231Y0276685D01*
X0286209Y0276572D01*
X0286184Y0276459D01*
X0286154Y0276348D01*
X0286121Y0276237D01*
X0286084Y0276128D01*
X0286043Y0276020D01*
X0285998Y0275913D01*
X0285950Y0275808D01*
X0285898Y0275705D01*
X0285842Y0275604D01*
X0285783Y0275504D01*
X0285721Y0275407D01*
X0285655Y0275312D01*
X0285587Y0275219D01*
X0285515Y0275129D01*
X0285440Y0275041D01*
X0285361Y0274956D01*
X0285280Y0274874D01*
X0285197Y0274794D01*
X0285110Y0274718D01*
X0285021Y0274644D01*
X0284930Y0274574D01*
X0284836Y0274506D01*
X0284740Y0274442D01*
X0284641Y0274382D01*
X0284541Y0274325D01*
X0284439Y0274271D01*
X0284335Y0274221D01*
X0284229Y0274174D01*
X0284122Y0274131D01*
X0284013Y0274092D01*
X0283903Y0274057D01*
X0283792Y0274026D01*
X0283680Y0273998D01*
X0283567Y0273974D01*
X0283453Y0273954D01*
X0283338Y0273938D01*
X0283223Y0273926D01*
X0283108Y0273918D01*
X0282993Y0273914D01*
X0282877Y0273914D01*
X0282762Y0273918D01*
X0282647Y0273926D01*
X0282532Y0273938D01*
X0282417Y0273954D01*
X0282303Y0273974D01*
X0282190Y0273998D01*
X0282078Y0274026D01*
X0281967Y0274057D01*
X0281857Y0274092D01*
X0281748Y0274131D01*
X0281641Y0274174D01*
X0281535Y0274221D01*
X0281431Y0274271D01*
X0281329Y0274325D01*
X0281229Y0274382D01*
X0281130Y0274442D01*
X0281034Y0274506D01*
X0280940Y0274574D01*
X0280849Y0274644D01*
X0280760Y0274718D01*
X0280673Y0274794D01*
X0280590Y0274874D01*
X0280509Y0274956D01*
X0280430Y0275041D01*
X0280355Y0275129D01*
X0280283Y0275219D01*
X0280215Y0275312D01*
X0280149Y0275407D01*
X0280087Y0275504D01*
X0280028Y0275604D01*
X0279972Y0275705D01*
X0279920Y0275808D01*
X0279872Y0275913D01*
X0279827Y0276020D01*
X0279786Y0276128D01*
X0279749Y0276237D01*
X0279716Y0276348D01*
X0279686Y0276459D01*
X0279661Y0276572D01*
X0279639Y0276685D01*
X0279621Y0276799D01*
X0279607Y0276914D01*
X0279597Y0277029D01*
X0279591Y0277145D01*
X0279589Y0277260D01*
X0279589Y0304819D02*
X0279591Y0304934D01*
X0279597Y0305050D01*
X0279607Y0305165D01*
X0279621Y0305280D01*
X0279639Y0305394D01*
X0279661Y0305507D01*
X0279686Y0305620D01*
X0279716Y0305731D01*
X0279749Y0305842D01*
X0279786Y0305951D01*
X0279827Y0306059D01*
X0279872Y0306166D01*
X0279920Y0306271D01*
X0279972Y0306374D01*
X0280028Y0306475D01*
X0280087Y0306575D01*
X0280149Y0306672D01*
X0280215Y0306767D01*
X0280283Y0306860D01*
X0280355Y0306950D01*
X0280430Y0307038D01*
X0280509Y0307123D01*
X0280590Y0307205D01*
X0280673Y0307285D01*
X0280760Y0307361D01*
X0280849Y0307435D01*
X0280940Y0307505D01*
X0281034Y0307573D01*
X0281130Y0307637D01*
X0281229Y0307697D01*
X0281329Y0307754D01*
X0281431Y0307808D01*
X0281535Y0307858D01*
X0281641Y0307905D01*
X0281748Y0307948D01*
X0281857Y0307987D01*
X0281967Y0308022D01*
X0282078Y0308053D01*
X0282190Y0308081D01*
X0282303Y0308105D01*
X0282417Y0308125D01*
X0282532Y0308141D01*
X0282647Y0308153D01*
X0282762Y0308161D01*
X0282877Y0308165D01*
X0282993Y0308165D01*
X0283108Y0308161D01*
X0283223Y0308153D01*
X0283338Y0308141D01*
X0283453Y0308125D01*
X0283567Y0308105D01*
X0283680Y0308081D01*
X0283792Y0308053D01*
X0283903Y0308022D01*
X0284013Y0307987D01*
X0284122Y0307948D01*
X0284229Y0307905D01*
X0284335Y0307858D01*
X0284439Y0307808D01*
X0284541Y0307754D01*
X0284641Y0307697D01*
X0284740Y0307637D01*
X0284836Y0307573D01*
X0284930Y0307505D01*
X0285021Y0307435D01*
X0285110Y0307361D01*
X0285197Y0307285D01*
X0285280Y0307205D01*
X0285361Y0307123D01*
X0285440Y0307038D01*
X0285515Y0306950D01*
X0285587Y0306860D01*
X0285655Y0306767D01*
X0285721Y0306672D01*
X0285783Y0306575D01*
X0285842Y0306475D01*
X0285898Y0306374D01*
X0285950Y0306271D01*
X0285998Y0306166D01*
X0286043Y0306059D01*
X0286084Y0305951D01*
X0286121Y0305842D01*
X0286154Y0305731D01*
X0286184Y0305620D01*
X0286209Y0305507D01*
X0286231Y0305394D01*
X0286249Y0305280D01*
X0286263Y0305165D01*
X0286273Y0305050D01*
X0286279Y0304934D01*
X0286281Y0304819D01*
X0286279Y0304704D01*
X0286273Y0304588D01*
X0286263Y0304473D01*
X0286249Y0304358D01*
X0286231Y0304244D01*
X0286209Y0304131D01*
X0286184Y0304018D01*
X0286154Y0303907D01*
X0286121Y0303796D01*
X0286084Y0303687D01*
X0286043Y0303579D01*
X0285998Y0303472D01*
X0285950Y0303367D01*
X0285898Y0303264D01*
X0285842Y0303163D01*
X0285783Y0303063D01*
X0285721Y0302966D01*
X0285655Y0302871D01*
X0285587Y0302778D01*
X0285515Y0302688D01*
X0285440Y0302600D01*
X0285361Y0302515D01*
X0285280Y0302433D01*
X0285197Y0302353D01*
X0285110Y0302277D01*
X0285021Y0302203D01*
X0284930Y0302133D01*
X0284836Y0302065D01*
X0284740Y0302001D01*
X0284641Y0301941D01*
X0284541Y0301884D01*
X0284439Y0301830D01*
X0284335Y0301780D01*
X0284229Y0301733D01*
X0284122Y0301690D01*
X0284013Y0301651D01*
X0283903Y0301616D01*
X0283792Y0301585D01*
X0283680Y0301557D01*
X0283567Y0301533D01*
X0283453Y0301513D01*
X0283338Y0301497D01*
X0283223Y0301485D01*
X0283108Y0301477D01*
X0282993Y0301473D01*
X0282877Y0301473D01*
X0282762Y0301477D01*
X0282647Y0301485D01*
X0282532Y0301497D01*
X0282417Y0301513D01*
X0282303Y0301533D01*
X0282190Y0301557D01*
X0282078Y0301585D01*
X0281967Y0301616D01*
X0281857Y0301651D01*
X0281748Y0301690D01*
X0281641Y0301733D01*
X0281535Y0301780D01*
X0281431Y0301830D01*
X0281329Y0301884D01*
X0281229Y0301941D01*
X0281130Y0302001D01*
X0281034Y0302065D01*
X0280940Y0302133D01*
X0280849Y0302203D01*
X0280760Y0302277D01*
X0280673Y0302353D01*
X0280590Y0302433D01*
X0280509Y0302515D01*
X0280430Y0302600D01*
X0280355Y0302688D01*
X0280283Y0302778D01*
X0280215Y0302871D01*
X0280149Y0302966D01*
X0280087Y0303063D01*
X0280028Y0303163D01*
X0279972Y0303264D01*
X0279920Y0303367D01*
X0279872Y0303472D01*
X0279827Y0303579D01*
X0279786Y0303687D01*
X0279749Y0303796D01*
X0279716Y0303907D01*
X0279686Y0304018D01*
X0279661Y0304131D01*
X0279639Y0304244D01*
X0279621Y0304358D01*
X0279607Y0304473D01*
X0279597Y0304588D01*
X0279591Y0304704D01*
X0279589Y0304819D01*
X0330771Y0304819D02*
X0330773Y0304934D01*
X0330779Y0305050D01*
X0330789Y0305165D01*
X0330803Y0305280D01*
X0330821Y0305394D01*
X0330843Y0305507D01*
X0330868Y0305620D01*
X0330898Y0305731D01*
X0330931Y0305842D01*
X0330968Y0305951D01*
X0331009Y0306059D01*
X0331054Y0306166D01*
X0331102Y0306271D01*
X0331154Y0306374D01*
X0331210Y0306475D01*
X0331269Y0306575D01*
X0331331Y0306672D01*
X0331397Y0306767D01*
X0331465Y0306860D01*
X0331537Y0306950D01*
X0331612Y0307038D01*
X0331691Y0307123D01*
X0331772Y0307205D01*
X0331855Y0307285D01*
X0331942Y0307361D01*
X0332031Y0307435D01*
X0332122Y0307505D01*
X0332216Y0307573D01*
X0332312Y0307637D01*
X0332411Y0307697D01*
X0332511Y0307754D01*
X0332613Y0307808D01*
X0332717Y0307858D01*
X0332823Y0307905D01*
X0332930Y0307948D01*
X0333039Y0307987D01*
X0333149Y0308022D01*
X0333260Y0308053D01*
X0333372Y0308081D01*
X0333485Y0308105D01*
X0333599Y0308125D01*
X0333714Y0308141D01*
X0333829Y0308153D01*
X0333944Y0308161D01*
X0334059Y0308165D01*
X0334175Y0308165D01*
X0334290Y0308161D01*
X0334405Y0308153D01*
X0334520Y0308141D01*
X0334635Y0308125D01*
X0334749Y0308105D01*
X0334862Y0308081D01*
X0334974Y0308053D01*
X0335085Y0308022D01*
X0335195Y0307987D01*
X0335304Y0307948D01*
X0335411Y0307905D01*
X0335517Y0307858D01*
X0335621Y0307808D01*
X0335723Y0307754D01*
X0335823Y0307697D01*
X0335922Y0307637D01*
X0336018Y0307573D01*
X0336112Y0307505D01*
X0336203Y0307435D01*
X0336292Y0307361D01*
X0336379Y0307285D01*
X0336462Y0307205D01*
X0336543Y0307123D01*
X0336622Y0307038D01*
X0336697Y0306950D01*
X0336769Y0306860D01*
X0336837Y0306767D01*
X0336903Y0306672D01*
X0336965Y0306575D01*
X0337024Y0306475D01*
X0337080Y0306374D01*
X0337132Y0306271D01*
X0337180Y0306166D01*
X0337225Y0306059D01*
X0337266Y0305951D01*
X0337303Y0305842D01*
X0337336Y0305731D01*
X0337366Y0305620D01*
X0337391Y0305507D01*
X0337413Y0305394D01*
X0337431Y0305280D01*
X0337445Y0305165D01*
X0337455Y0305050D01*
X0337461Y0304934D01*
X0337463Y0304819D01*
X0337461Y0304704D01*
X0337455Y0304588D01*
X0337445Y0304473D01*
X0337431Y0304358D01*
X0337413Y0304244D01*
X0337391Y0304131D01*
X0337366Y0304018D01*
X0337336Y0303907D01*
X0337303Y0303796D01*
X0337266Y0303687D01*
X0337225Y0303579D01*
X0337180Y0303472D01*
X0337132Y0303367D01*
X0337080Y0303264D01*
X0337024Y0303163D01*
X0336965Y0303063D01*
X0336903Y0302966D01*
X0336837Y0302871D01*
X0336769Y0302778D01*
X0336697Y0302688D01*
X0336622Y0302600D01*
X0336543Y0302515D01*
X0336462Y0302433D01*
X0336379Y0302353D01*
X0336292Y0302277D01*
X0336203Y0302203D01*
X0336112Y0302133D01*
X0336018Y0302065D01*
X0335922Y0302001D01*
X0335823Y0301941D01*
X0335723Y0301884D01*
X0335621Y0301830D01*
X0335517Y0301780D01*
X0335411Y0301733D01*
X0335304Y0301690D01*
X0335195Y0301651D01*
X0335085Y0301616D01*
X0334974Y0301585D01*
X0334862Y0301557D01*
X0334749Y0301533D01*
X0334635Y0301513D01*
X0334520Y0301497D01*
X0334405Y0301485D01*
X0334290Y0301477D01*
X0334175Y0301473D01*
X0334059Y0301473D01*
X0333944Y0301477D01*
X0333829Y0301485D01*
X0333714Y0301497D01*
X0333599Y0301513D01*
X0333485Y0301533D01*
X0333372Y0301557D01*
X0333260Y0301585D01*
X0333149Y0301616D01*
X0333039Y0301651D01*
X0332930Y0301690D01*
X0332823Y0301733D01*
X0332717Y0301780D01*
X0332613Y0301830D01*
X0332511Y0301884D01*
X0332411Y0301941D01*
X0332312Y0302001D01*
X0332216Y0302065D01*
X0332122Y0302133D01*
X0332031Y0302203D01*
X0331942Y0302277D01*
X0331855Y0302353D01*
X0331772Y0302433D01*
X0331691Y0302515D01*
X0331612Y0302600D01*
X0331537Y0302688D01*
X0331465Y0302778D01*
X0331397Y0302871D01*
X0331331Y0302966D01*
X0331269Y0303063D01*
X0331210Y0303163D01*
X0331154Y0303264D01*
X0331102Y0303367D01*
X0331054Y0303472D01*
X0331009Y0303579D01*
X0330968Y0303687D01*
X0330931Y0303796D01*
X0330898Y0303907D01*
X0330868Y0304018D01*
X0330843Y0304131D01*
X0330821Y0304244D01*
X0330803Y0304358D01*
X0330789Y0304473D01*
X0330779Y0304588D01*
X0330773Y0304704D01*
X0330771Y0304819D01*
X0330771Y0277260D02*
X0330773Y0277375D01*
X0330779Y0277491D01*
X0330789Y0277606D01*
X0330803Y0277721D01*
X0330821Y0277835D01*
X0330843Y0277948D01*
X0330868Y0278061D01*
X0330898Y0278172D01*
X0330931Y0278283D01*
X0330968Y0278392D01*
X0331009Y0278500D01*
X0331054Y0278607D01*
X0331102Y0278712D01*
X0331154Y0278815D01*
X0331210Y0278916D01*
X0331269Y0279016D01*
X0331331Y0279113D01*
X0331397Y0279208D01*
X0331465Y0279301D01*
X0331537Y0279391D01*
X0331612Y0279479D01*
X0331691Y0279564D01*
X0331772Y0279646D01*
X0331855Y0279726D01*
X0331942Y0279802D01*
X0332031Y0279876D01*
X0332122Y0279946D01*
X0332216Y0280014D01*
X0332312Y0280078D01*
X0332411Y0280138D01*
X0332511Y0280195D01*
X0332613Y0280249D01*
X0332717Y0280299D01*
X0332823Y0280346D01*
X0332930Y0280389D01*
X0333039Y0280428D01*
X0333149Y0280463D01*
X0333260Y0280494D01*
X0333372Y0280522D01*
X0333485Y0280546D01*
X0333599Y0280566D01*
X0333714Y0280582D01*
X0333829Y0280594D01*
X0333944Y0280602D01*
X0334059Y0280606D01*
X0334175Y0280606D01*
X0334290Y0280602D01*
X0334405Y0280594D01*
X0334520Y0280582D01*
X0334635Y0280566D01*
X0334749Y0280546D01*
X0334862Y0280522D01*
X0334974Y0280494D01*
X0335085Y0280463D01*
X0335195Y0280428D01*
X0335304Y0280389D01*
X0335411Y0280346D01*
X0335517Y0280299D01*
X0335621Y0280249D01*
X0335723Y0280195D01*
X0335823Y0280138D01*
X0335922Y0280078D01*
X0336018Y0280014D01*
X0336112Y0279946D01*
X0336203Y0279876D01*
X0336292Y0279802D01*
X0336379Y0279726D01*
X0336462Y0279646D01*
X0336543Y0279564D01*
X0336622Y0279479D01*
X0336697Y0279391D01*
X0336769Y0279301D01*
X0336837Y0279208D01*
X0336903Y0279113D01*
X0336965Y0279016D01*
X0337024Y0278916D01*
X0337080Y0278815D01*
X0337132Y0278712D01*
X0337180Y0278607D01*
X0337225Y0278500D01*
X0337266Y0278392D01*
X0337303Y0278283D01*
X0337336Y0278172D01*
X0337366Y0278061D01*
X0337391Y0277948D01*
X0337413Y0277835D01*
X0337431Y0277721D01*
X0337445Y0277606D01*
X0337455Y0277491D01*
X0337461Y0277375D01*
X0337463Y0277260D01*
X0337461Y0277145D01*
X0337455Y0277029D01*
X0337445Y0276914D01*
X0337431Y0276799D01*
X0337413Y0276685D01*
X0337391Y0276572D01*
X0337366Y0276459D01*
X0337336Y0276348D01*
X0337303Y0276237D01*
X0337266Y0276128D01*
X0337225Y0276020D01*
X0337180Y0275913D01*
X0337132Y0275808D01*
X0337080Y0275705D01*
X0337024Y0275604D01*
X0336965Y0275504D01*
X0336903Y0275407D01*
X0336837Y0275312D01*
X0336769Y0275219D01*
X0336697Y0275129D01*
X0336622Y0275041D01*
X0336543Y0274956D01*
X0336462Y0274874D01*
X0336379Y0274794D01*
X0336292Y0274718D01*
X0336203Y0274644D01*
X0336112Y0274574D01*
X0336018Y0274506D01*
X0335922Y0274442D01*
X0335823Y0274382D01*
X0335723Y0274325D01*
X0335621Y0274271D01*
X0335517Y0274221D01*
X0335411Y0274174D01*
X0335304Y0274131D01*
X0335195Y0274092D01*
X0335085Y0274057D01*
X0334974Y0274026D01*
X0334862Y0273998D01*
X0334749Y0273974D01*
X0334635Y0273954D01*
X0334520Y0273938D01*
X0334405Y0273926D01*
X0334290Y0273918D01*
X0334175Y0273914D01*
X0334059Y0273914D01*
X0333944Y0273918D01*
X0333829Y0273926D01*
X0333714Y0273938D01*
X0333599Y0273954D01*
X0333485Y0273974D01*
X0333372Y0273998D01*
X0333260Y0274026D01*
X0333149Y0274057D01*
X0333039Y0274092D01*
X0332930Y0274131D01*
X0332823Y0274174D01*
X0332717Y0274221D01*
X0332613Y0274271D01*
X0332511Y0274325D01*
X0332411Y0274382D01*
X0332312Y0274442D01*
X0332216Y0274506D01*
X0332122Y0274574D01*
X0332031Y0274644D01*
X0331942Y0274718D01*
X0331855Y0274794D01*
X0331772Y0274874D01*
X0331691Y0274956D01*
X0331612Y0275041D01*
X0331537Y0275129D01*
X0331465Y0275219D01*
X0331397Y0275312D01*
X0331331Y0275407D01*
X0331269Y0275504D01*
X0331210Y0275604D01*
X0331154Y0275705D01*
X0331102Y0275808D01*
X0331054Y0275913D01*
X0331009Y0276020D01*
X0330968Y0276128D01*
X0330931Y0276237D01*
X0330898Y0276348D01*
X0330868Y0276459D01*
X0330843Y0276572D01*
X0330821Y0276685D01*
X0330803Y0276799D01*
X0330789Y0276914D01*
X0330779Y0277029D01*
X0330773Y0277145D01*
X0330771Y0277260D01*
X0366932Y0303598D02*
X0366934Y0303679D01*
X0366940Y0303761D01*
X0366950Y0303842D01*
X0366964Y0303922D01*
X0366981Y0304001D01*
X0367003Y0304080D01*
X0367028Y0304157D01*
X0367057Y0304234D01*
X0367090Y0304308D01*
X0367127Y0304381D01*
X0367166Y0304452D01*
X0367210Y0304521D01*
X0367256Y0304588D01*
X0367306Y0304652D01*
X0367359Y0304714D01*
X0367415Y0304774D01*
X0367473Y0304830D01*
X0367535Y0304884D01*
X0367599Y0304935D01*
X0367665Y0304982D01*
X0367733Y0305026D01*
X0367804Y0305067D01*
X0367876Y0305104D01*
X0367951Y0305138D01*
X0368026Y0305168D01*
X0368104Y0305194D01*
X0368182Y0305217D01*
X0368261Y0305235D01*
X0368341Y0305250D01*
X0368422Y0305261D01*
X0368503Y0305268D01*
X0368585Y0305271D01*
X0368666Y0305270D01*
X0368747Y0305265D01*
X0368828Y0305256D01*
X0368909Y0305243D01*
X0368989Y0305226D01*
X0369067Y0305206D01*
X0369145Y0305181D01*
X0369222Y0305153D01*
X0369297Y0305121D01*
X0369370Y0305086D01*
X0369441Y0305047D01*
X0369511Y0305004D01*
X0369578Y0304959D01*
X0369644Y0304910D01*
X0369706Y0304858D01*
X0369766Y0304802D01*
X0369823Y0304744D01*
X0369878Y0304684D01*
X0369929Y0304620D01*
X0369977Y0304555D01*
X0370022Y0304487D01*
X0370064Y0304417D01*
X0370102Y0304345D01*
X0370137Y0304271D01*
X0370168Y0304196D01*
X0370195Y0304119D01*
X0370218Y0304041D01*
X0370238Y0303962D01*
X0370254Y0303882D01*
X0370266Y0303801D01*
X0370274Y0303720D01*
X0370278Y0303639D01*
X0370278Y0303557D01*
X0370274Y0303476D01*
X0370266Y0303395D01*
X0370254Y0303314D01*
X0370238Y0303234D01*
X0370218Y0303155D01*
X0370195Y0303077D01*
X0370168Y0303000D01*
X0370137Y0302925D01*
X0370102Y0302851D01*
X0370064Y0302779D01*
X0370022Y0302709D01*
X0369977Y0302641D01*
X0369929Y0302576D01*
X0369878Y0302512D01*
X0369823Y0302452D01*
X0369766Y0302394D01*
X0369706Y0302338D01*
X0369644Y0302286D01*
X0369578Y0302237D01*
X0369511Y0302192D01*
X0369442Y0302149D01*
X0369370Y0302110D01*
X0369297Y0302075D01*
X0369222Y0302043D01*
X0369145Y0302015D01*
X0369067Y0301990D01*
X0368989Y0301970D01*
X0368909Y0301953D01*
X0368828Y0301940D01*
X0368747Y0301931D01*
X0368666Y0301926D01*
X0368585Y0301925D01*
X0368503Y0301928D01*
X0368422Y0301935D01*
X0368341Y0301946D01*
X0368261Y0301961D01*
X0368182Y0301979D01*
X0368104Y0302002D01*
X0368026Y0302028D01*
X0367951Y0302058D01*
X0367876Y0302092D01*
X0367804Y0302129D01*
X0367733Y0302170D01*
X0367665Y0302214D01*
X0367599Y0302261D01*
X0367535Y0302312D01*
X0367473Y0302366D01*
X0367415Y0302422D01*
X0367359Y0302482D01*
X0367306Y0302544D01*
X0367256Y0302608D01*
X0367210Y0302675D01*
X0367166Y0302744D01*
X0367127Y0302815D01*
X0367090Y0302888D01*
X0367057Y0302962D01*
X0367028Y0303039D01*
X0367003Y0303116D01*
X0366981Y0303195D01*
X0366964Y0303274D01*
X0366950Y0303354D01*
X0366940Y0303435D01*
X0366934Y0303517D01*
X0366932Y0303598D01*
X0381892Y0303598D02*
X0381894Y0303679D01*
X0381900Y0303761D01*
X0381910Y0303842D01*
X0381924Y0303922D01*
X0381941Y0304001D01*
X0381963Y0304080D01*
X0381988Y0304157D01*
X0382017Y0304234D01*
X0382050Y0304308D01*
X0382087Y0304381D01*
X0382126Y0304452D01*
X0382170Y0304521D01*
X0382216Y0304588D01*
X0382266Y0304652D01*
X0382319Y0304714D01*
X0382375Y0304774D01*
X0382433Y0304830D01*
X0382495Y0304884D01*
X0382559Y0304935D01*
X0382625Y0304982D01*
X0382693Y0305026D01*
X0382764Y0305067D01*
X0382836Y0305104D01*
X0382911Y0305138D01*
X0382986Y0305168D01*
X0383064Y0305194D01*
X0383142Y0305217D01*
X0383221Y0305235D01*
X0383301Y0305250D01*
X0383382Y0305261D01*
X0383463Y0305268D01*
X0383545Y0305271D01*
X0383626Y0305270D01*
X0383707Y0305265D01*
X0383788Y0305256D01*
X0383869Y0305243D01*
X0383949Y0305226D01*
X0384027Y0305206D01*
X0384105Y0305181D01*
X0384182Y0305153D01*
X0384257Y0305121D01*
X0384330Y0305086D01*
X0384401Y0305047D01*
X0384471Y0305004D01*
X0384538Y0304959D01*
X0384604Y0304910D01*
X0384666Y0304858D01*
X0384726Y0304802D01*
X0384783Y0304744D01*
X0384838Y0304684D01*
X0384889Y0304620D01*
X0384937Y0304555D01*
X0384982Y0304487D01*
X0385024Y0304417D01*
X0385062Y0304345D01*
X0385097Y0304271D01*
X0385128Y0304196D01*
X0385155Y0304119D01*
X0385178Y0304041D01*
X0385198Y0303962D01*
X0385214Y0303882D01*
X0385226Y0303801D01*
X0385234Y0303720D01*
X0385238Y0303639D01*
X0385238Y0303557D01*
X0385234Y0303476D01*
X0385226Y0303395D01*
X0385214Y0303314D01*
X0385198Y0303234D01*
X0385178Y0303155D01*
X0385155Y0303077D01*
X0385128Y0303000D01*
X0385097Y0302925D01*
X0385062Y0302851D01*
X0385024Y0302779D01*
X0384982Y0302709D01*
X0384937Y0302641D01*
X0384889Y0302576D01*
X0384838Y0302512D01*
X0384783Y0302452D01*
X0384726Y0302394D01*
X0384666Y0302338D01*
X0384604Y0302286D01*
X0384538Y0302237D01*
X0384471Y0302192D01*
X0384402Y0302149D01*
X0384330Y0302110D01*
X0384257Y0302075D01*
X0384182Y0302043D01*
X0384105Y0302015D01*
X0384027Y0301990D01*
X0383949Y0301970D01*
X0383869Y0301953D01*
X0383788Y0301940D01*
X0383707Y0301931D01*
X0383626Y0301926D01*
X0383545Y0301925D01*
X0383463Y0301928D01*
X0383382Y0301935D01*
X0383301Y0301946D01*
X0383221Y0301961D01*
X0383142Y0301979D01*
X0383064Y0302002D01*
X0382986Y0302028D01*
X0382911Y0302058D01*
X0382836Y0302092D01*
X0382764Y0302129D01*
X0382693Y0302170D01*
X0382625Y0302214D01*
X0382559Y0302261D01*
X0382495Y0302312D01*
X0382433Y0302366D01*
X0382375Y0302422D01*
X0382319Y0302482D01*
X0382266Y0302544D01*
X0382216Y0302608D01*
X0382170Y0302675D01*
X0382126Y0302744D01*
X0382087Y0302815D01*
X0382050Y0302888D01*
X0382017Y0302962D01*
X0381988Y0303039D01*
X0381963Y0303116D01*
X0381941Y0303195D01*
X0381924Y0303274D01*
X0381910Y0303354D01*
X0381900Y0303435D01*
X0381894Y0303517D01*
X0381892Y0303598D01*
X0382345Y0253362D02*
X0382347Y0253531D01*
X0382353Y0253700D01*
X0382364Y0253869D01*
X0382378Y0254037D01*
X0382397Y0254205D01*
X0382420Y0254373D01*
X0382446Y0254540D01*
X0382477Y0254706D01*
X0382512Y0254872D01*
X0382551Y0255036D01*
X0382595Y0255200D01*
X0382642Y0255362D01*
X0382693Y0255523D01*
X0382748Y0255683D01*
X0382807Y0255842D01*
X0382869Y0255999D01*
X0382936Y0256154D01*
X0383007Y0256308D01*
X0383081Y0256460D01*
X0383159Y0256610D01*
X0383240Y0256758D01*
X0383325Y0256904D01*
X0383414Y0257048D01*
X0383506Y0257190D01*
X0383602Y0257329D01*
X0383701Y0257466D01*
X0383803Y0257601D01*
X0383909Y0257733D01*
X0384018Y0257862D01*
X0384130Y0257989D01*
X0384245Y0258113D01*
X0384363Y0258234D01*
X0384484Y0258352D01*
X0384608Y0258467D01*
X0384735Y0258579D01*
X0384864Y0258688D01*
X0384996Y0258794D01*
X0385131Y0258896D01*
X0385268Y0258995D01*
X0385407Y0259091D01*
X0385549Y0259183D01*
X0385693Y0259272D01*
X0385839Y0259357D01*
X0385987Y0259438D01*
X0386137Y0259516D01*
X0386289Y0259590D01*
X0386443Y0259661D01*
X0386598Y0259728D01*
X0386755Y0259790D01*
X0386914Y0259849D01*
X0387074Y0259904D01*
X0387235Y0259955D01*
X0387397Y0260002D01*
X0387561Y0260046D01*
X0387725Y0260085D01*
X0387891Y0260120D01*
X0388057Y0260151D01*
X0388224Y0260177D01*
X0388392Y0260200D01*
X0388560Y0260219D01*
X0388728Y0260233D01*
X0388897Y0260244D01*
X0389066Y0260250D01*
X0389235Y0260252D01*
X0389404Y0260250D01*
X0389573Y0260244D01*
X0389742Y0260233D01*
X0389910Y0260219D01*
X0390078Y0260200D01*
X0390246Y0260177D01*
X0390413Y0260151D01*
X0390579Y0260120D01*
X0390745Y0260085D01*
X0390909Y0260046D01*
X0391073Y0260002D01*
X0391235Y0259955D01*
X0391396Y0259904D01*
X0391556Y0259849D01*
X0391715Y0259790D01*
X0391872Y0259728D01*
X0392027Y0259661D01*
X0392181Y0259590D01*
X0392333Y0259516D01*
X0392483Y0259438D01*
X0392631Y0259357D01*
X0392777Y0259272D01*
X0392921Y0259183D01*
X0393063Y0259091D01*
X0393202Y0258995D01*
X0393339Y0258896D01*
X0393474Y0258794D01*
X0393606Y0258688D01*
X0393735Y0258579D01*
X0393862Y0258467D01*
X0393986Y0258352D01*
X0394107Y0258234D01*
X0394225Y0258113D01*
X0394340Y0257989D01*
X0394452Y0257862D01*
X0394561Y0257733D01*
X0394667Y0257601D01*
X0394769Y0257466D01*
X0394868Y0257329D01*
X0394964Y0257190D01*
X0395056Y0257048D01*
X0395145Y0256904D01*
X0395230Y0256758D01*
X0395311Y0256610D01*
X0395389Y0256460D01*
X0395463Y0256308D01*
X0395534Y0256154D01*
X0395601Y0255999D01*
X0395663Y0255842D01*
X0395722Y0255683D01*
X0395777Y0255523D01*
X0395828Y0255362D01*
X0395875Y0255200D01*
X0395919Y0255036D01*
X0395958Y0254872D01*
X0395993Y0254706D01*
X0396024Y0254540D01*
X0396050Y0254373D01*
X0396073Y0254205D01*
X0396092Y0254037D01*
X0396106Y0253869D01*
X0396117Y0253700D01*
X0396123Y0253531D01*
X0396125Y0253362D01*
X0396123Y0253193D01*
X0396117Y0253024D01*
X0396106Y0252855D01*
X0396092Y0252687D01*
X0396073Y0252519D01*
X0396050Y0252351D01*
X0396024Y0252184D01*
X0395993Y0252018D01*
X0395958Y0251852D01*
X0395919Y0251688D01*
X0395875Y0251524D01*
X0395828Y0251362D01*
X0395777Y0251201D01*
X0395722Y0251041D01*
X0395663Y0250882D01*
X0395601Y0250725D01*
X0395534Y0250570D01*
X0395463Y0250416D01*
X0395389Y0250264D01*
X0395311Y0250114D01*
X0395230Y0249966D01*
X0395145Y0249820D01*
X0395056Y0249676D01*
X0394964Y0249534D01*
X0394868Y0249395D01*
X0394769Y0249258D01*
X0394667Y0249123D01*
X0394561Y0248991D01*
X0394452Y0248862D01*
X0394340Y0248735D01*
X0394225Y0248611D01*
X0394107Y0248490D01*
X0393986Y0248372D01*
X0393862Y0248257D01*
X0393735Y0248145D01*
X0393606Y0248036D01*
X0393474Y0247930D01*
X0393339Y0247828D01*
X0393202Y0247729D01*
X0393063Y0247633D01*
X0392921Y0247541D01*
X0392777Y0247452D01*
X0392631Y0247367D01*
X0392483Y0247286D01*
X0392333Y0247208D01*
X0392181Y0247134D01*
X0392027Y0247063D01*
X0391872Y0246996D01*
X0391715Y0246934D01*
X0391556Y0246875D01*
X0391396Y0246820D01*
X0391235Y0246769D01*
X0391073Y0246722D01*
X0390909Y0246678D01*
X0390745Y0246639D01*
X0390579Y0246604D01*
X0390413Y0246573D01*
X0390246Y0246547D01*
X0390078Y0246524D01*
X0389910Y0246505D01*
X0389742Y0246491D01*
X0389573Y0246480D01*
X0389404Y0246474D01*
X0389235Y0246472D01*
X0389066Y0246474D01*
X0388897Y0246480D01*
X0388728Y0246491D01*
X0388560Y0246505D01*
X0388392Y0246524D01*
X0388224Y0246547D01*
X0388057Y0246573D01*
X0387891Y0246604D01*
X0387725Y0246639D01*
X0387561Y0246678D01*
X0387397Y0246722D01*
X0387235Y0246769D01*
X0387074Y0246820D01*
X0386914Y0246875D01*
X0386755Y0246934D01*
X0386598Y0246996D01*
X0386443Y0247063D01*
X0386289Y0247134D01*
X0386137Y0247208D01*
X0385987Y0247286D01*
X0385839Y0247367D01*
X0385693Y0247452D01*
X0385549Y0247541D01*
X0385407Y0247633D01*
X0385268Y0247729D01*
X0385131Y0247828D01*
X0384996Y0247930D01*
X0384864Y0248036D01*
X0384735Y0248145D01*
X0384608Y0248257D01*
X0384484Y0248372D01*
X0384363Y0248490D01*
X0384245Y0248611D01*
X0384130Y0248735D01*
X0384018Y0248862D01*
X0383909Y0248991D01*
X0383803Y0249123D01*
X0383701Y0249258D01*
X0383602Y0249395D01*
X0383506Y0249534D01*
X0383414Y0249676D01*
X0383325Y0249820D01*
X0383240Y0249966D01*
X0383159Y0250114D01*
X0383081Y0250264D01*
X0383007Y0250416D01*
X0382936Y0250570D01*
X0382869Y0250725D01*
X0382807Y0250882D01*
X0382748Y0251041D01*
X0382693Y0251201D01*
X0382642Y0251362D01*
X0382595Y0251524D01*
X0382551Y0251688D01*
X0382512Y0251852D01*
X0382477Y0252018D01*
X0382446Y0252184D01*
X0382420Y0252351D01*
X0382397Y0252519D01*
X0382378Y0252687D01*
X0382364Y0252855D01*
X0382353Y0253024D01*
X0382347Y0253193D01*
X0382345Y0253362D01*
X0387857Y0217929D02*
X0387859Y0218044D01*
X0387865Y0218160D01*
X0387875Y0218275D01*
X0387889Y0218390D01*
X0387907Y0218504D01*
X0387929Y0218617D01*
X0387954Y0218730D01*
X0387984Y0218841D01*
X0388017Y0218952D01*
X0388054Y0219061D01*
X0388095Y0219169D01*
X0388140Y0219276D01*
X0388188Y0219381D01*
X0388240Y0219484D01*
X0388296Y0219585D01*
X0388355Y0219685D01*
X0388417Y0219782D01*
X0388483Y0219877D01*
X0388551Y0219970D01*
X0388623Y0220060D01*
X0388698Y0220148D01*
X0388777Y0220233D01*
X0388858Y0220315D01*
X0388941Y0220395D01*
X0389028Y0220471D01*
X0389117Y0220545D01*
X0389208Y0220615D01*
X0389302Y0220683D01*
X0389398Y0220747D01*
X0389497Y0220807D01*
X0389597Y0220864D01*
X0389699Y0220918D01*
X0389803Y0220968D01*
X0389909Y0221015D01*
X0390016Y0221058D01*
X0390125Y0221097D01*
X0390235Y0221132D01*
X0390346Y0221163D01*
X0390458Y0221191D01*
X0390571Y0221215D01*
X0390685Y0221235D01*
X0390800Y0221251D01*
X0390915Y0221263D01*
X0391030Y0221271D01*
X0391145Y0221275D01*
X0391261Y0221275D01*
X0391376Y0221271D01*
X0391491Y0221263D01*
X0391606Y0221251D01*
X0391721Y0221235D01*
X0391835Y0221215D01*
X0391948Y0221191D01*
X0392060Y0221163D01*
X0392171Y0221132D01*
X0392281Y0221097D01*
X0392390Y0221058D01*
X0392497Y0221015D01*
X0392603Y0220968D01*
X0392707Y0220918D01*
X0392809Y0220864D01*
X0392909Y0220807D01*
X0393008Y0220747D01*
X0393104Y0220683D01*
X0393198Y0220615D01*
X0393289Y0220545D01*
X0393378Y0220471D01*
X0393465Y0220395D01*
X0393548Y0220315D01*
X0393629Y0220233D01*
X0393708Y0220148D01*
X0393783Y0220060D01*
X0393855Y0219970D01*
X0393923Y0219877D01*
X0393989Y0219782D01*
X0394051Y0219685D01*
X0394110Y0219585D01*
X0394166Y0219484D01*
X0394218Y0219381D01*
X0394266Y0219276D01*
X0394311Y0219169D01*
X0394352Y0219061D01*
X0394389Y0218952D01*
X0394422Y0218841D01*
X0394452Y0218730D01*
X0394477Y0218617D01*
X0394499Y0218504D01*
X0394517Y0218390D01*
X0394531Y0218275D01*
X0394541Y0218160D01*
X0394547Y0218044D01*
X0394549Y0217929D01*
X0394547Y0217814D01*
X0394541Y0217698D01*
X0394531Y0217583D01*
X0394517Y0217468D01*
X0394499Y0217354D01*
X0394477Y0217241D01*
X0394452Y0217128D01*
X0394422Y0217017D01*
X0394389Y0216906D01*
X0394352Y0216797D01*
X0394311Y0216689D01*
X0394266Y0216582D01*
X0394218Y0216477D01*
X0394166Y0216374D01*
X0394110Y0216273D01*
X0394051Y0216173D01*
X0393989Y0216076D01*
X0393923Y0215981D01*
X0393855Y0215888D01*
X0393783Y0215798D01*
X0393708Y0215710D01*
X0393629Y0215625D01*
X0393548Y0215543D01*
X0393465Y0215463D01*
X0393378Y0215387D01*
X0393289Y0215313D01*
X0393198Y0215243D01*
X0393104Y0215175D01*
X0393008Y0215111D01*
X0392909Y0215051D01*
X0392809Y0214994D01*
X0392707Y0214940D01*
X0392603Y0214890D01*
X0392497Y0214843D01*
X0392390Y0214800D01*
X0392281Y0214761D01*
X0392171Y0214726D01*
X0392060Y0214695D01*
X0391948Y0214667D01*
X0391835Y0214643D01*
X0391721Y0214623D01*
X0391606Y0214607D01*
X0391491Y0214595D01*
X0391376Y0214587D01*
X0391261Y0214583D01*
X0391145Y0214583D01*
X0391030Y0214587D01*
X0390915Y0214595D01*
X0390800Y0214607D01*
X0390685Y0214623D01*
X0390571Y0214643D01*
X0390458Y0214667D01*
X0390346Y0214695D01*
X0390235Y0214726D01*
X0390125Y0214761D01*
X0390016Y0214800D01*
X0389909Y0214843D01*
X0389803Y0214890D01*
X0389699Y0214940D01*
X0389597Y0214994D01*
X0389497Y0215051D01*
X0389398Y0215111D01*
X0389302Y0215175D01*
X0389208Y0215243D01*
X0389117Y0215313D01*
X0389028Y0215387D01*
X0388941Y0215463D01*
X0388858Y0215543D01*
X0388777Y0215625D01*
X0388698Y0215710D01*
X0388623Y0215798D01*
X0388551Y0215888D01*
X0388483Y0215981D01*
X0388417Y0216076D01*
X0388355Y0216173D01*
X0388296Y0216273D01*
X0388240Y0216374D01*
X0388188Y0216477D01*
X0388140Y0216582D01*
X0388095Y0216689D01*
X0388054Y0216797D01*
X0388017Y0216906D01*
X0387984Y0217017D01*
X0387954Y0217128D01*
X0387929Y0217241D01*
X0387907Y0217354D01*
X0387889Y0217468D01*
X0387875Y0217583D01*
X0387865Y0217698D01*
X0387859Y0217814D01*
X0387857Y0217929D01*
X0360298Y0217929D02*
X0360300Y0218044D01*
X0360306Y0218160D01*
X0360316Y0218275D01*
X0360330Y0218390D01*
X0360348Y0218504D01*
X0360370Y0218617D01*
X0360395Y0218730D01*
X0360425Y0218841D01*
X0360458Y0218952D01*
X0360495Y0219061D01*
X0360536Y0219169D01*
X0360581Y0219276D01*
X0360629Y0219381D01*
X0360681Y0219484D01*
X0360737Y0219585D01*
X0360796Y0219685D01*
X0360858Y0219782D01*
X0360924Y0219877D01*
X0360992Y0219970D01*
X0361064Y0220060D01*
X0361139Y0220148D01*
X0361218Y0220233D01*
X0361299Y0220315D01*
X0361382Y0220395D01*
X0361469Y0220471D01*
X0361558Y0220545D01*
X0361649Y0220615D01*
X0361743Y0220683D01*
X0361839Y0220747D01*
X0361938Y0220807D01*
X0362038Y0220864D01*
X0362140Y0220918D01*
X0362244Y0220968D01*
X0362350Y0221015D01*
X0362457Y0221058D01*
X0362566Y0221097D01*
X0362676Y0221132D01*
X0362787Y0221163D01*
X0362899Y0221191D01*
X0363012Y0221215D01*
X0363126Y0221235D01*
X0363241Y0221251D01*
X0363356Y0221263D01*
X0363471Y0221271D01*
X0363586Y0221275D01*
X0363702Y0221275D01*
X0363817Y0221271D01*
X0363932Y0221263D01*
X0364047Y0221251D01*
X0364162Y0221235D01*
X0364276Y0221215D01*
X0364389Y0221191D01*
X0364501Y0221163D01*
X0364612Y0221132D01*
X0364722Y0221097D01*
X0364831Y0221058D01*
X0364938Y0221015D01*
X0365044Y0220968D01*
X0365148Y0220918D01*
X0365250Y0220864D01*
X0365350Y0220807D01*
X0365449Y0220747D01*
X0365545Y0220683D01*
X0365639Y0220615D01*
X0365730Y0220545D01*
X0365819Y0220471D01*
X0365906Y0220395D01*
X0365989Y0220315D01*
X0366070Y0220233D01*
X0366149Y0220148D01*
X0366224Y0220060D01*
X0366296Y0219970D01*
X0366364Y0219877D01*
X0366430Y0219782D01*
X0366492Y0219685D01*
X0366551Y0219585D01*
X0366607Y0219484D01*
X0366659Y0219381D01*
X0366707Y0219276D01*
X0366752Y0219169D01*
X0366793Y0219061D01*
X0366830Y0218952D01*
X0366863Y0218841D01*
X0366893Y0218730D01*
X0366918Y0218617D01*
X0366940Y0218504D01*
X0366958Y0218390D01*
X0366972Y0218275D01*
X0366982Y0218160D01*
X0366988Y0218044D01*
X0366990Y0217929D01*
X0366988Y0217814D01*
X0366982Y0217698D01*
X0366972Y0217583D01*
X0366958Y0217468D01*
X0366940Y0217354D01*
X0366918Y0217241D01*
X0366893Y0217128D01*
X0366863Y0217017D01*
X0366830Y0216906D01*
X0366793Y0216797D01*
X0366752Y0216689D01*
X0366707Y0216582D01*
X0366659Y0216477D01*
X0366607Y0216374D01*
X0366551Y0216273D01*
X0366492Y0216173D01*
X0366430Y0216076D01*
X0366364Y0215981D01*
X0366296Y0215888D01*
X0366224Y0215798D01*
X0366149Y0215710D01*
X0366070Y0215625D01*
X0365989Y0215543D01*
X0365906Y0215463D01*
X0365819Y0215387D01*
X0365730Y0215313D01*
X0365639Y0215243D01*
X0365545Y0215175D01*
X0365449Y0215111D01*
X0365350Y0215051D01*
X0365250Y0214994D01*
X0365148Y0214940D01*
X0365044Y0214890D01*
X0364938Y0214843D01*
X0364831Y0214800D01*
X0364722Y0214761D01*
X0364612Y0214726D01*
X0364501Y0214695D01*
X0364389Y0214667D01*
X0364276Y0214643D01*
X0364162Y0214623D01*
X0364047Y0214607D01*
X0363932Y0214595D01*
X0363817Y0214587D01*
X0363702Y0214583D01*
X0363586Y0214583D01*
X0363471Y0214587D01*
X0363356Y0214595D01*
X0363241Y0214607D01*
X0363126Y0214623D01*
X0363012Y0214643D01*
X0362899Y0214667D01*
X0362787Y0214695D01*
X0362676Y0214726D01*
X0362566Y0214761D01*
X0362457Y0214800D01*
X0362350Y0214843D01*
X0362244Y0214890D01*
X0362140Y0214940D01*
X0362038Y0214994D01*
X0361938Y0215051D01*
X0361839Y0215111D01*
X0361743Y0215175D01*
X0361649Y0215243D01*
X0361558Y0215313D01*
X0361469Y0215387D01*
X0361382Y0215463D01*
X0361299Y0215543D01*
X0361218Y0215625D01*
X0361139Y0215710D01*
X0361064Y0215798D01*
X0360992Y0215888D01*
X0360924Y0215981D01*
X0360858Y0216076D01*
X0360796Y0216173D01*
X0360737Y0216273D01*
X0360681Y0216374D01*
X0360629Y0216477D01*
X0360581Y0216582D01*
X0360536Y0216689D01*
X0360495Y0216797D01*
X0360458Y0216906D01*
X0360425Y0217017D01*
X0360395Y0217128D01*
X0360370Y0217241D01*
X0360348Y0217354D01*
X0360330Y0217468D01*
X0360316Y0217583D01*
X0360306Y0217698D01*
X0360300Y0217814D01*
X0360298Y0217929D01*
X0382345Y0095882D02*
X0382347Y0096051D01*
X0382353Y0096220D01*
X0382364Y0096389D01*
X0382378Y0096557D01*
X0382397Y0096725D01*
X0382420Y0096893D01*
X0382446Y0097060D01*
X0382477Y0097226D01*
X0382512Y0097392D01*
X0382551Y0097556D01*
X0382595Y0097720D01*
X0382642Y0097882D01*
X0382693Y0098043D01*
X0382748Y0098203D01*
X0382807Y0098362D01*
X0382869Y0098519D01*
X0382936Y0098674D01*
X0383007Y0098828D01*
X0383081Y0098980D01*
X0383159Y0099130D01*
X0383240Y0099278D01*
X0383325Y0099424D01*
X0383414Y0099568D01*
X0383506Y0099710D01*
X0383602Y0099849D01*
X0383701Y0099986D01*
X0383803Y0100121D01*
X0383909Y0100253D01*
X0384018Y0100382D01*
X0384130Y0100509D01*
X0384245Y0100633D01*
X0384363Y0100754D01*
X0384484Y0100872D01*
X0384608Y0100987D01*
X0384735Y0101099D01*
X0384864Y0101208D01*
X0384996Y0101314D01*
X0385131Y0101416D01*
X0385268Y0101515D01*
X0385407Y0101611D01*
X0385549Y0101703D01*
X0385693Y0101792D01*
X0385839Y0101877D01*
X0385987Y0101958D01*
X0386137Y0102036D01*
X0386289Y0102110D01*
X0386443Y0102181D01*
X0386598Y0102248D01*
X0386755Y0102310D01*
X0386914Y0102369D01*
X0387074Y0102424D01*
X0387235Y0102475D01*
X0387397Y0102522D01*
X0387561Y0102566D01*
X0387725Y0102605D01*
X0387891Y0102640D01*
X0388057Y0102671D01*
X0388224Y0102697D01*
X0388392Y0102720D01*
X0388560Y0102739D01*
X0388728Y0102753D01*
X0388897Y0102764D01*
X0389066Y0102770D01*
X0389235Y0102772D01*
X0389404Y0102770D01*
X0389573Y0102764D01*
X0389742Y0102753D01*
X0389910Y0102739D01*
X0390078Y0102720D01*
X0390246Y0102697D01*
X0390413Y0102671D01*
X0390579Y0102640D01*
X0390745Y0102605D01*
X0390909Y0102566D01*
X0391073Y0102522D01*
X0391235Y0102475D01*
X0391396Y0102424D01*
X0391556Y0102369D01*
X0391715Y0102310D01*
X0391872Y0102248D01*
X0392027Y0102181D01*
X0392181Y0102110D01*
X0392333Y0102036D01*
X0392483Y0101958D01*
X0392631Y0101877D01*
X0392777Y0101792D01*
X0392921Y0101703D01*
X0393063Y0101611D01*
X0393202Y0101515D01*
X0393339Y0101416D01*
X0393474Y0101314D01*
X0393606Y0101208D01*
X0393735Y0101099D01*
X0393862Y0100987D01*
X0393986Y0100872D01*
X0394107Y0100754D01*
X0394225Y0100633D01*
X0394340Y0100509D01*
X0394452Y0100382D01*
X0394561Y0100253D01*
X0394667Y0100121D01*
X0394769Y0099986D01*
X0394868Y0099849D01*
X0394964Y0099710D01*
X0395056Y0099568D01*
X0395145Y0099424D01*
X0395230Y0099278D01*
X0395311Y0099130D01*
X0395389Y0098980D01*
X0395463Y0098828D01*
X0395534Y0098674D01*
X0395601Y0098519D01*
X0395663Y0098362D01*
X0395722Y0098203D01*
X0395777Y0098043D01*
X0395828Y0097882D01*
X0395875Y0097720D01*
X0395919Y0097556D01*
X0395958Y0097392D01*
X0395993Y0097226D01*
X0396024Y0097060D01*
X0396050Y0096893D01*
X0396073Y0096725D01*
X0396092Y0096557D01*
X0396106Y0096389D01*
X0396117Y0096220D01*
X0396123Y0096051D01*
X0396125Y0095882D01*
X0396123Y0095713D01*
X0396117Y0095544D01*
X0396106Y0095375D01*
X0396092Y0095207D01*
X0396073Y0095039D01*
X0396050Y0094871D01*
X0396024Y0094704D01*
X0395993Y0094538D01*
X0395958Y0094372D01*
X0395919Y0094208D01*
X0395875Y0094044D01*
X0395828Y0093882D01*
X0395777Y0093721D01*
X0395722Y0093561D01*
X0395663Y0093402D01*
X0395601Y0093245D01*
X0395534Y0093090D01*
X0395463Y0092936D01*
X0395389Y0092784D01*
X0395311Y0092634D01*
X0395230Y0092486D01*
X0395145Y0092340D01*
X0395056Y0092196D01*
X0394964Y0092054D01*
X0394868Y0091915D01*
X0394769Y0091778D01*
X0394667Y0091643D01*
X0394561Y0091511D01*
X0394452Y0091382D01*
X0394340Y0091255D01*
X0394225Y0091131D01*
X0394107Y0091010D01*
X0393986Y0090892D01*
X0393862Y0090777D01*
X0393735Y0090665D01*
X0393606Y0090556D01*
X0393474Y0090450D01*
X0393339Y0090348D01*
X0393202Y0090249D01*
X0393063Y0090153D01*
X0392921Y0090061D01*
X0392777Y0089972D01*
X0392631Y0089887D01*
X0392483Y0089806D01*
X0392333Y0089728D01*
X0392181Y0089654D01*
X0392027Y0089583D01*
X0391872Y0089516D01*
X0391715Y0089454D01*
X0391556Y0089395D01*
X0391396Y0089340D01*
X0391235Y0089289D01*
X0391073Y0089242D01*
X0390909Y0089198D01*
X0390745Y0089159D01*
X0390579Y0089124D01*
X0390413Y0089093D01*
X0390246Y0089067D01*
X0390078Y0089044D01*
X0389910Y0089025D01*
X0389742Y0089011D01*
X0389573Y0089000D01*
X0389404Y0088994D01*
X0389235Y0088992D01*
X0389066Y0088994D01*
X0388897Y0089000D01*
X0388728Y0089011D01*
X0388560Y0089025D01*
X0388392Y0089044D01*
X0388224Y0089067D01*
X0388057Y0089093D01*
X0387891Y0089124D01*
X0387725Y0089159D01*
X0387561Y0089198D01*
X0387397Y0089242D01*
X0387235Y0089289D01*
X0387074Y0089340D01*
X0386914Y0089395D01*
X0386755Y0089454D01*
X0386598Y0089516D01*
X0386443Y0089583D01*
X0386289Y0089654D01*
X0386137Y0089728D01*
X0385987Y0089806D01*
X0385839Y0089887D01*
X0385693Y0089972D01*
X0385549Y0090061D01*
X0385407Y0090153D01*
X0385268Y0090249D01*
X0385131Y0090348D01*
X0384996Y0090450D01*
X0384864Y0090556D01*
X0384735Y0090665D01*
X0384608Y0090777D01*
X0384484Y0090892D01*
X0384363Y0091010D01*
X0384245Y0091131D01*
X0384130Y0091255D01*
X0384018Y0091382D01*
X0383909Y0091511D01*
X0383803Y0091643D01*
X0383701Y0091778D01*
X0383602Y0091915D01*
X0383506Y0092054D01*
X0383414Y0092196D01*
X0383325Y0092340D01*
X0383240Y0092486D01*
X0383159Y0092634D01*
X0383081Y0092784D01*
X0383007Y0092936D01*
X0382936Y0093090D01*
X0382869Y0093245D01*
X0382807Y0093402D01*
X0382748Y0093561D01*
X0382693Y0093721D01*
X0382642Y0093882D01*
X0382595Y0094044D01*
X0382551Y0094208D01*
X0382512Y0094372D01*
X0382477Y0094538D01*
X0382446Y0094704D01*
X0382420Y0094871D01*
X0382397Y0095039D01*
X0382378Y0095207D01*
X0382364Y0095375D01*
X0382353Y0095544D01*
X0382347Y0095713D01*
X0382345Y0095882D01*
D11*
X0011282Y0013205D02*
X0011282Y0304543D01*
X0011287Y0304924D01*
X0011300Y0305304D01*
X0011323Y0305684D01*
X0011356Y0306063D01*
X0011397Y0306441D01*
X0011447Y0306818D01*
X0011507Y0307194D01*
X0011575Y0307569D01*
X0011653Y0307941D01*
X0011740Y0308312D01*
X0011835Y0308680D01*
X0011940Y0309046D01*
X0012053Y0309409D01*
X0012175Y0309770D01*
X0012305Y0310127D01*
X0012445Y0310481D01*
X0012592Y0310832D01*
X0012749Y0311179D01*
X0012913Y0311522D01*
X0013086Y0311861D01*
X0013267Y0312196D01*
X0013456Y0312527D01*
X0013653Y0312852D01*
X0013857Y0313173D01*
X0014070Y0313489D01*
X0014290Y0313799D01*
X0014517Y0314105D01*
X0014752Y0314404D01*
X0014994Y0314698D01*
X0015242Y0314986D01*
X0015498Y0315268D01*
X0015761Y0315543D01*
X0016030Y0315812D01*
X0016305Y0316075D01*
X0016587Y0316331D01*
X0016875Y0316579D01*
X0017169Y0316821D01*
X0017468Y0317056D01*
X0017774Y0317283D01*
X0018084Y0317503D01*
X0018400Y0317716D01*
X0018721Y0317920D01*
X0019046Y0318117D01*
X0019377Y0318306D01*
X0019712Y0318487D01*
X0020051Y0318660D01*
X0020394Y0318824D01*
X0020741Y0318981D01*
X0021092Y0319128D01*
X0021446Y0319268D01*
X0021803Y0319398D01*
X0022164Y0319520D01*
X0022527Y0319633D01*
X0022893Y0319738D01*
X0023261Y0319833D01*
X0023632Y0319920D01*
X0024004Y0319998D01*
X0024379Y0320066D01*
X0024755Y0320126D01*
X0025132Y0320176D01*
X0025510Y0320217D01*
X0025889Y0320250D01*
X0026269Y0320273D01*
X0026649Y0320286D01*
X0027030Y0320291D01*
X0389235Y0320291D01*
X0389234Y0320291D02*
X0389578Y0320325D01*
X0389922Y0320350D01*
X0390267Y0320368D01*
X0390612Y0320377D01*
X0390958Y0320377D01*
X0391303Y0320369D01*
X0391648Y0320353D01*
X0391992Y0320329D01*
X0392336Y0320296D01*
X0392679Y0320255D01*
X0393021Y0320205D01*
X0393361Y0320148D01*
X0393700Y0320082D01*
X0394038Y0320008D01*
X0394373Y0319925D01*
X0394706Y0319835D01*
X0395037Y0319737D01*
X0395366Y0319630D01*
X0395692Y0319516D01*
X0396015Y0319394D01*
X0396335Y0319264D01*
X0396651Y0319126D01*
X0396965Y0318981D01*
X0397274Y0318828D01*
X0397580Y0318668D01*
X0397882Y0318500D01*
X0398180Y0318325D01*
X0398473Y0318143D01*
X0398762Y0317954D01*
X0399047Y0317758D01*
X0399326Y0317555D01*
X0399601Y0317346D01*
X0399870Y0317129D01*
X0400134Y0316907D01*
X0400392Y0316678D01*
X0400645Y0316443D01*
X0400892Y0316201D01*
X0401134Y0315954D01*
X0401369Y0315701D01*
X0401598Y0315443D01*
X0401820Y0315179D01*
X0402037Y0314910D01*
X0402246Y0314635D01*
X0402449Y0314356D01*
X0402645Y0314071D01*
X0402834Y0313782D01*
X0403016Y0313489D01*
X0403191Y0313191D01*
X0403359Y0312889D01*
X0403519Y0312583D01*
X0403672Y0312274D01*
X0403817Y0311960D01*
X0403955Y0311644D01*
X0404085Y0311324D01*
X0404207Y0311001D01*
X0404321Y0310675D01*
X0404428Y0310346D01*
X0404526Y0310015D01*
X0404616Y0309682D01*
X0404699Y0309347D01*
X0404773Y0309009D01*
X0404839Y0308670D01*
X0404896Y0308330D01*
X0404946Y0307988D01*
X0404987Y0307645D01*
X0405020Y0307301D01*
X0405044Y0306957D01*
X0405060Y0306612D01*
X0405068Y0306267D01*
X0405068Y0305921D01*
X0405059Y0305576D01*
X0405041Y0305231D01*
X0405016Y0304887D01*
X0404982Y0304543D01*
X0404983Y0304543D02*
X0404983Y0017142D01*
X0404978Y0016761D01*
X0404965Y0016381D01*
X0404942Y0016001D01*
X0404909Y0015622D01*
X0404868Y0015244D01*
X0404818Y0014867D01*
X0404758Y0014491D01*
X0404690Y0014116D01*
X0404612Y0013744D01*
X0404525Y0013373D01*
X0404430Y0013005D01*
X0404325Y0012639D01*
X0404212Y0012276D01*
X0404090Y0011915D01*
X0403960Y0011558D01*
X0403820Y0011204D01*
X0403673Y0010853D01*
X0403516Y0010506D01*
X0403352Y0010163D01*
X0403179Y0009824D01*
X0402998Y0009489D01*
X0402809Y0009158D01*
X0402612Y0008833D01*
X0402408Y0008512D01*
X0402195Y0008196D01*
X0401975Y0007886D01*
X0401748Y0007580D01*
X0401513Y0007281D01*
X0401271Y0006987D01*
X0401023Y0006699D01*
X0400767Y0006417D01*
X0400504Y0006142D01*
X0400235Y0005873D01*
X0399960Y0005610D01*
X0399678Y0005354D01*
X0399390Y0005106D01*
X0399096Y0004864D01*
X0398797Y0004629D01*
X0398491Y0004402D01*
X0398181Y0004182D01*
X0397865Y0003969D01*
X0397544Y0003765D01*
X0397219Y0003568D01*
X0396888Y0003379D01*
X0396553Y0003198D01*
X0396214Y0003025D01*
X0395871Y0002861D01*
X0395524Y0002704D01*
X0395173Y0002557D01*
X0394819Y0002417D01*
X0394462Y0002287D01*
X0394101Y0002165D01*
X0393738Y0002052D01*
X0393372Y0001947D01*
X0393004Y0001852D01*
X0392633Y0001765D01*
X0392261Y0001687D01*
X0391886Y0001619D01*
X0391510Y0001559D01*
X0391133Y0001509D01*
X0390755Y0001468D01*
X0390376Y0001435D01*
X0389996Y0001412D01*
X0389616Y0001399D01*
X0389235Y0001394D01*
X0023093Y0001394D01*
X0022808Y0001397D01*
X0022522Y0001408D01*
X0022237Y0001425D01*
X0021953Y0001449D01*
X0021669Y0001480D01*
X0021386Y0001518D01*
X0021105Y0001563D01*
X0020824Y0001614D01*
X0020544Y0001672D01*
X0020266Y0001737D01*
X0019990Y0001809D01*
X0019716Y0001887D01*
X0019443Y0001972D01*
X0019173Y0002064D01*
X0018905Y0002162D01*
X0018639Y0002266D01*
X0018376Y0002377D01*
X0018116Y0002494D01*
X0017858Y0002617D01*
X0017604Y0002747D01*
X0017353Y0002883D01*
X0017105Y0003024D01*
X0016861Y0003172D01*
X0016620Y0003325D01*
X0016384Y0003485D01*
X0016151Y0003650D01*
X0015922Y0003820D01*
X0015697Y0003996D01*
X0015477Y0004178D01*
X0015261Y0004364D01*
X0015050Y0004556D01*
X0014843Y0004753D01*
X0014641Y0004955D01*
X0014444Y0005162D01*
X0014252Y0005373D01*
X0014066Y0005589D01*
X0013884Y0005809D01*
X0013708Y0006034D01*
X0013538Y0006263D01*
X0013373Y0006496D01*
X0013213Y0006732D01*
X0013060Y0006973D01*
X0012912Y0007217D01*
X0012771Y0007465D01*
X0012635Y0007716D01*
X0012505Y0007970D01*
X0012382Y0008228D01*
X0012265Y0008488D01*
X0012154Y0008751D01*
X0012050Y0009017D01*
X0011952Y0009285D01*
X0011860Y0009555D01*
X0011775Y0009828D01*
X0011697Y0010102D01*
X0011625Y0010378D01*
X0011560Y0010656D01*
X0011502Y0010936D01*
X0011451Y0011217D01*
X0011406Y0011498D01*
X0011368Y0011781D01*
X0011337Y0012065D01*
X0011313Y0012349D01*
X0011296Y0012634D01*
X0011285Y0012920D01*
X0011282Y0013205D01*
M02*
