G75*
%MOIN*%
%OFA0B0*%
%FSLAX25Y25*%
%IPPOS*%
%LPD*%
%AMOC8*
5,1,8,0,0,1.08239X$1,22.5*
%
%ADD10C,0.14580*%
%ADD11R,0.10643X0.09461*%
%ADD12R,0.10643X0.11824*%
%ADD13R,0.11824X0.10643*%
%ADD14C,0.07493*%
%ADD15R,0.09461X0.10643*%
%ADD16C,0.08200*%
%ADD17R,0.02375X0.06509*%
%ADD18C,0.04146*%
%ADD19R,0.07874X0.06693*%
%ADD20R,0.10630X0.06693*%
%ADD21C,0.07400*%
%ADD22R,0.11824X0.11824*%
%ADD23OC8,0.06000*%
%ADD24C,0.03778*%
D10*
X0027030Y0095882D03*
X0027030Y0253362D03*
X0389235Y0253362D03*
X0389235Y0095882D03*
D11*
X0349274Y0301669D03*
X0318959Y0309150D03*
X0298093Y0301669D03*
X0267778Y0309150D03*
X0246912Y0301669D03*
X0216597Y0309150D03*
X0195731Y0301669D03*
X0165416Y0309150D03*
X0144550Y0301669D03*
X0114235Y0309150D03*
X0093369Y0301669D03*
X0063054Y0309150D03*
D12*
X0063054Y0272535D03*
X0114235Y0272535D03*
X0165416Y0272535D03*
X0216597Y0272535D03*
X0267778Y0272535D03*
X0318959Y0272535D03*
X0342581Y0214976D03*
X0073644Y0220843D03*
D13*
X0057306Y0202732D03*
X0081164Y0256197D03*
X0132345Y0256197D03*
X0183526Y0256197D03*
X0234707Y0256197D03*
X0285888Y0256197D03*
X0337069Y0256197D03*
X0358920Y0233087D03*
D14*
X0363644Y0217929D03*
X0391203Y0217929D03*
X0334117Y0277260D03*
X0334117Y0304819D03*
X0282935Y0304819D03*
X0282935Y0277260D03*
X0231754Y0277260D03*
X0231754Y0304819D03*
X0180573Y0304819D03*
X0180573Y0277260D03*
X0129392Y0277260D03*
X0129392Y0304819D03*
X0078211Y0304819D03*
X0078211Y0277260D03*
X0052581Y0217890D03*
X0025022Y0217890D03*
D15*
X0028172Y0233047D03*
X0020691Y0202732D03*
X0388054Y0202772D03*
X0395534Y0233087D03*
D16*
X0396943Y0287024D03*
X0385543Y0287024D03*
D17*
X0381203Y0301531D03*
X0378644Y0301531D03*
X0376085Y0301531D03*
X0373526Y0301531D03*
X0370967Y0301531D03*
D18*
X0368605Y0303598D03*
X0383565Y0303598D03*
D19*
X0390589Y0312260D03*
X0361581Y0312260D03*
D20*
X0376085Y0312260D03*
D21*
X0030967Y0013205D03*
X0038841Y0013205D03*
X0046715Y0013205D03*
X0054589Y0013205D03*
X0062463Y0013205D03*
X0070337Y0013205D03*
X0093959Y0013205D03*
X0101833Y0013205D03*
X0109707Y0013205D03*
X0117581Y0013205D03*
X0125455Y0013205D03*
X0133329Y0013205D03*
X0156951Y0013205D03*
X0164825Y0013205D03*
X0172699Y0013205D03*
X0180573Y0013205D03*
X0188447Y0013205D03*
X0196321Y0013205D03*
X0219943Y0013205D03*
X0227817Y0013205D03*
X0235691Y0013205D03*
X0243565Y0013205D03*
X0251439Y0013205D03*
X0259313Y0013205D03*
X0282935Y0013205D03*
X0290809Y0013205D03*
X0298683Y0013205D03*
X0306557Y0013205D03*
X0314431Y0013205D03*
X0322306Y0013205D03*
X0345928Y0013205D03*
X0353802Y0013205D03*
X0361676Y0013205D03*
X0369550Y0013205D03*
X0377424Y0013205D03*
X0385298Y0013205D03*
X0385298Y0114307D03*
X0377424Y0114307D03*
X0369550Y0114307D03*
X0361676Y0114307D03*
X0353802Y0114307D03*
X0345928Y0114307D03*
X0322306Y0114307D03*
X0314431Y0114307D03*
X0306557Y0114307D03*
X0298683Y0114307D03*
X0290809Y0114307D03*
X0282935Y0114307D03*
X0259313Y0114307D03*
X0251439Y0114307D03*
X0243565Y0114307D03*
X0235691Y0114307D03*
X0227817Y0114307D03*
X0219943Y0114307D03*
X0196321Y0114307D03*
X0188447Y0114307D03*
X0180573Y0114307D03*
X0172699Y0114307D03*
X0164825Y0114307D03*
X0156951Y0114307D03*
X0133329Y0114307D03*
X0125455Y0114307D03*
X0117581Y0114307D03*
X0109707Y0114307D03*
X0101833Y0114307D03*
X0093959Y0114307D03*
X0070337Y0114307D03*
X0062463Y0114307D03*
X0054589Y0114307D03*
X0046715Y0114307D03*
X0038841Y0114307D03*
X0030967Y0114307D03*
X0188447Y0198244D03*
X0188447Y0206118D03*
X0188447Y0213992D03*
X0188447Y0221866D03*
X0188447Y0229740D03*
X0188447Y0237614D03*
X0227817Y0237614D03*
X0227817Y0229740D03*
X0227817Y0221866D03*
X0227817Y0213992D03*
X0227817Y0206118D03*
X0227817Y0198244D03*
D22*
X0271124Y0191157D03*
X0266400Y0157614D03*
X0275849Y0157614D03*
X0329392Y0157614D03*
X0338841Y0157614D03*
X0392384Y0157614D03*
X0271124Y0244701D03*
X0212857Y0157614D03*
X0203408Y0157614D03*
X0149865Y0157614D03*
X0140416Y0157614D03*
X0145140Y0191157D03*
X0086872Y0157614D03*
X0077424Y0157614D03*
X0023880Y0157614D03*
X0145140Y0244701D03*
X0140416Y0056512D03*
X0149865Y0056512D03*
X0203408Y0056512D03*
X0212857Y0056512D03*
X0266400Y0056512D03*
X0275849Y0056512D03*
X0329392Y0056512D03*
X0338841Y0056512D03*
X0392384Y0056512D03*
X0086872Y0056512D03*
X0077424Y0056512D03*
X0023880Y0056512D03*
D23*
X0364550Y0284858D03*
X0374550Y0284858D03*
D24*
X0352817Y0274031D03*
X0366597Y0261236D03*
X0358723Y0246472D03*
X0367581Y0232693D03*
X0342975Y0230724D03*
X0339038Y0230724D03*
X0313447Y0211039D03*
X0300652Y0230724D03*
X0249471Y0253362D03*
X0220928Y0251394D03*
X0208132Y0248441D03*
X0218959Y0233677D03*
X0217975Y0227772D03*
X0212069Y0220882D03*
X0202227Y0218913D03*
X0203211Y0210055D03*
X0208132Y0205134D03*
X0214038Y0210055D03*
X0218959Y0210055D03*
X0208132Y0232693D03*
X0159904Y0224819D03*
X0133329Y0246472D03*
X0108723Y0224819D03*
X0094943Y0224819D03*
X0048683Y0203165D03*
X0057542Y0172654D03*
X0070337Y0150016D03*
X0080180Y0147063D03*
X0058526Y0139189D03*
X0059510Y0133283D03*
X0036872Y0127378D03*
X0066400Y0107693D03*
X0073290Y0098835D03*
X0060494Y0096866D03*
X0053605Y0092929D03*
X0063447Y0081118D03*
X0053605Y0072260D03*
X0049668Y0071276D03*
X0041794Y0065370D03*
X0041794Y0058480D03*
X0050652Y0058480D03*
X0058526Y0059465D03*
X0064431Y0063402D03*
X0067384Y0051591D03*
X0061479Y0050606D03*
X0065416Y0044701D03*
X0047699Y0049622D03*
X0044746Y0046669D03*
X0041794Y0032890D03*
X0096912Y0048638D03*
X0110691Y0049622D03*
X0107739Y0058480D03*
X0116597Y0058480D03*
X0130376Y0059465D03*
X0130376Y0067339D03*
X0136282Y0067339D03*
X0131361Y0081118D03*
X0127424Y0080134D03*
X0123487Y0081118D03*
X0110691Y0072260D03*
X0105770Y0072260D03*
X0103802Y0081118D03*
X0098880Y0081118D03*
X0085101Y0077181D03*
X0083132Y0081118D03*
X0079195Y0087024D03*
X0083132Y0089976D03*
X0083132Y0111630D03*
X0123487Y0102772D03*
X0140219Y0089976D03*
X0143172Y0092929D03*
X0151046Y0095882D03*
X0156951Y0101787D03*
X0153998Y0087024D03*
X0156951Y0084071D03*
X0153998Y0081118D03*
X0155967Y0070291D03*
X0168762Y0072260D03*
X0176636Y0067339D03*
X0179589Y0070291D03*
X0187463Y0078165D03*
X0190416Y0081118D03*
X0199274Y0081118D03*
X0193369Y0089976D03*
X0184510Y0095882D03*
X0179589Y0098835D03*
X0176636Y0095882D03*
X0173683Y0092929D03*
X0166794Y0081118D03*
X0165809Y0057496D03*
X0181557Y0049622D03*
X0187463Y0053559D03*
X0190416Y0057496D03*
X0196321Y0069307D03*
X0218959Y0064386D03*
X0230770Y0058480D03*
X0239628Y0061433D03*
X0243565Y0060449D03*
X0236676Y0069307D03*
X0244550Y0072260D03*
X0250455Y0081118D03*
X0254392Y0081118D03*
X0254392Y0089976D03*
X0269156Y0092929D03*
X0278014Y0087024D03*
X0283920Y0081118D03*
X0292778Y0081118D03*
X0307542Y0084071D03*
X0313447Y0084071D03*
X0320337Y0081118D03*
X0325258Y0081118D03*
X0325258Y0089976D03*
X0337069Y0104740D03*
X0338054Y0109661D03*
X0334117Y0109661D03*
X0341006Y0117535D03*
X0338054Y0129346D03*
X0334117Y0131315D03*
X0349865Y0137220D03*
X0349865Y0142142D03*
X0364628Y0141157D03*
X0374471Y0131315D03*
X0377424Y0134268D03*
X0370534Y0106709D03*
X0367581Y0095882D03*
X0370534Y0086039D03*
X0373487Y0083087D03*
X0357739Y0087024D03*
X0349865Y0075213D03*
X0357739Y0072260D03*
X0351833Y0063402D03*
X0343959Y0066354D03*
X0346912Y0051591D03*
X0346912Y0042732D03*
X0346912Y0037811D03*
X0356754Y0032890D03*
X0363644Y0028953D03*
X0366597Y0026000D03*
X0360691Y0020094D03*
X0376439Y0038795D03*
X0379392Y0041748D03*
X0385298Y0032890D03*
X0365613Y0049622D03*
X0368565Y0058480D03*
X0371518Y0066354D03*
X0376439Y0061433D03*
X0379392Y0064386D03*
X0385298Y0064386D03*
X0328211Y0041748D03*
X0319353Y0045685D03*
X0310494Y0049622D03*
X0304589Y0043717D03*
X0307542Y0040764D03*
X0303605Y0049622D03*
X0299668Y0049622D03*
X0313447Y0060449D03*
X0307542Y0063402D03*
X0310494Y0069307D03*
X0299668Y0069307D03*
X0295731Y0069307D03*
X0275061Y0069307D03*
X0272109Y0072260D03*
X0258329Y0067339D03*
X0258329Y0057496D03*
X0244550Y0047654D03*
X0236676Y0049622D03*
X0233723Y0046669D03*
X0239628Y0038795D03*
X0247502Y0036827D03*
X0265219Y0027969D03*
X0268172Y0011236D03*
X0286872Y0021079D03*
X0276046Y0043717D03*
X0245534Y0020094D03*
X0216991Y0033874D03*
X0202227Y0010252D03*
X0178605Y0023047D03*
X0161872Y0033874D03*
X0184510Y0036827D03*
X0184510Y0041748D03*
X0216991Y0080134D03*
X0210101Y0087024D03*
X0210101Y0092929D03*
X0201243Y0106709D03*
X0206164Y0112614D03*
X0219943Y0120488D03*
X0226833Y0132299D03*
X0217975Y0134268D03*
X0242581Y0143126D03*
X0245534Y0151000D03*
X0242581Y0158874D03*
X0264235Y0126394D03*
X0270140Y0119504D03*
X0275061Y0114583D03*
X0288841Y0127378D03*
X0284904Y0134268D03*
X0288841Y0148047D03*
X0286872Y0154937D03*
X0306557Y0140173D03*
X0319353Y0148047D03*
X0313447Y0106709D03*
X0322306Y0064386D03*
X0319353Y0053559D03*
X0325258Y0032890D03*
X0244550Y0106709D03*
X0230770Y0087024D03*
X0226833Y0081118D03*
X0180573Y0145094D03*
X0183526Y0148047D03*
X0182542Y0151984D03*
X0159904Y0174622D03*
X0129392Y0158874D03*
X0120534Y0148047D03*
X0114628Y0158874D03*
X0133329Y0134268D03*
X0129392Y0131315D03*
X0146124Y0126394D03*
X0130376Y0049622D03*
X0116597Y0035843D03*
X0133329Y0032890D03*
X0133329Y0020094D03*
X0378408Y0203165D03*
X0320337Y0280921D03*
X0299668Y0294701D03*
X0269156Y0280921D03*
X0248487Y0294701D03*
X0242581Y0280921D03*
X0217975Y0280921D03*
X0197306Y0294701D03*
X0166794Y0280921D03*
X0143172Y0294701D03*
X0115613Y0280921D03*
X0094943Y0294701D03*
X0061479Y0280921D03*
X0034904Y0233677D03*
X0347896Y0294701D03*
M02*
