%
M48
M72
T01C0.0138
T02C0.0320
T03C0.0335
T04C0.0354
T05C0.0394
T06C0.0400
T07C0.0433
T08C0.0472
T09C0.0630
T10C0.0669
T11C0.1378
%
T01
X9309Y5962
X13859Y8202
X13299Y9392
X12039Y10022
X11479Y10722
X13299Y11562
X11269Y12472
X18479Y9882
X18689Y9532
X24779Y9532
X26039Y8972
X27929Y6242
X30239Y4492
X28699Y2532
X24219Y3792
X21699Y3302
X20649Y2882
X18759Y3162
X18199Y3162
X33529Y6242
X34299Y6592
X33879Y6942
X39129Y4492
X40179Y5192
X45079Y4632
X46129Y6382
X39479Y9042
X40739Y11912
X40459Y12192
X41719Y12332
X42139Y12332
X44939Y12262
X45359Y12612
X46409Y11562
X46829Y14712
X47109Y15132
X45359Y14712
X43189Y16742
X43749Y18212
X43250Y18975
X40039Y17022
X36889Y15622
X35839Y15202
X37169Y14082
X34789Y13732
X33669Y13102
X30169Y14992
X29889Y15552
X28349Y15832
X26879Y15902
X26389Y15412
X28349Y15062
X26949Y13802
X23869Y16252
X21559Y17442
X20789Y17442
X19879Y18212
X21559Y19332
X20929Y19472
X23729Y18212
X28769Y18632
X31989Y18632
X33809Y17792
X32899Y17302
X32899Y16672
X33529Y16812
X21139Y15272
X21209Y13312
X12389Y19332
X8189Y18492
X7069Y18632
X4129Y19542
X16729Y19542
X35209Y4072
X34369Y3792
T02
X34588Y19464
X34588Y20464
X45021Y20479
X45021Y19479
T03
X38281Y19522
X36785Y19522
T04
X40177Y20041
X42854Y20041
T05
X42659Y6062
X41872Y6062
X43446Y6062
X44234Y6062
X45021Y6062
X38328Y5834
X37541Y5834
X36754Y5834
X35966Y5834
X35179Y5834
X32029Y5834
X31242Y5834
X30454Y5834
X29667Y5834
X28880Y5834
X25730Y5834
X24943Y5834
X24155Y5834
X23368Y5834
X22580Y5834
X19431Y5834
X18643Y5834
X17856Y5834
X17069Y5834
X16281Y5834
X13131Y5834
X12344Y5834
X11557Y5834
X10769Y5834
X9982Y5834
X6832Y5834
X6045Y5834
X5257Y5834
X4470Y5834
X3683Y5834
T06
X47580Y12106
X47580Y13246
X47580Y14647
X47580Y15787
T07
X45415Y11692
X44628Y11692
X43840Y11692
X43053Y11692
X42265Y11692
X41478Y11692
X38722Y7172
X37935Y7172
X37147Y7172
X36360Y7172
X35572Y7172
X34785Y7172
X32423Y7172
X31635Y7172
X30848Y7172
X30061Y7172
X29273Y7172
X28486Y7172
X26124Y7172
X25336Y7172
X24549Y7172
X23761Y7172
X22974Y7172
X22187Y7172
X19824Y7172
X19037Y7172
X18250Y7172
X17462Y7172
X16675Y7172
X15887Y7172
X13525Y7172
X12738Y7172
X11950Y7172
X11163Y7172
X10376Y7172
X9588Y7172
X7226Y7172
X6439Y7172
X5651Y7172
X4864Y7172
X4076Y7172
X3289Y7172
T08
X3427Y1897
X7088Y1897
X9726Y1897
X13387Y1897
X16025Y1897
X19687Y1897
X22324Y1897
X25986Y1897
X28624Y1897
X32285Y1897
X34923Y1897
X38584Y1897
X41616Y2125
X45277Y2125
T09
X39431Y11503
X34076Y11503
X33131Y11503
X27777Y11503
X26832Y11503
X21478Y11503
X20533Y11503
X15179Y11503
X14234Y11503
X8880Y11503
X7935Y11503
X2580Y11503
X40769Y16023
X46124Y16023
T10
X31525Y16991
X26911Y17023
X22580Y17023
X18250Y17023
X13919Y17023
X9588Y17023
X5257Y17023
X5257Y19779
X9588Y19779
X13919Y19779
X18250Y19779
X22580Y19779
X26911Y19779
X31525Y19747
X44446Y8897
X47202Y8897
T11
X47383Y2243
X47383Y19960
X1320Y19960
X1320Y2243
M30
