G75*
%MOIN*%
%OFA0B0*%
%FSLAX25Y25*%
%IPPOS*%
%LPD*%
%AMOC8*
5,1,8,0,0,1.08239X$1,22.5*
%
%ADD10R,0.04331X0.03937*%
%ADD11R,0.04331X0.05512*%
%ADD12R,0.02362X0.08661*%
%ADD13R,0.03937X0.04331*%
%ADD14R,0.05787X0.05000*%
%ADD15R,0.03937X0.01575*%
%ADD16R,0.04724X0.05512*%
%ADD17R,0.01575X0.05709*%
%ADD18R,0.07087X0.05906*%
%ADD19R,0.05906X0.02756*%
%ADD20R,0.01181X0.04921*%
%ADD21R,0.02165X0.04724*%
%ADD22R,0.00984X0.01575*%
%ADD23R,0.04724X0.02165*%
%ADD24R,0.10433X0.19685*%
%ADD25R,0.07087X0.06299*%
D10*
X0031748Y0090659D03*
X0038441Y0090659D03*
X0055488Y0090856D03*
X0062181Y0090856D03*
X0094740Y0090659D03*
X0101433Y0090659D03*
X0118480Y0090856D03*
X0125173Y0090856D03*
X0157732Y0090659D03*
X0164425Y0090659D03*
X0181472Y0090856D03*
X0188165Y0090856D03*
X0220724Y0090659D03*
X0227417Y0090659D03*
X0244465Y0090856D03*
X0251157Y0090856D03*
X0283717Y0090659D03*
X0290409Y0090659D03*
X0307457Y0090856D03*
X0314150Y0090856D03*
X0346709Y0090659D03*
X0353402Y0090659D03*
X0370449Y0090856D03*
X0377142Y0090856D03*
X0378756Y0046053D03*
X0372063Y0046053D03*
X0360882Y0030856D03*
X0354189Y0030856D03*
X0298244Y0028494D03*
X0291551Y0028494D03*
X0273165Y0027667D03*
X0266472Y0027667D03*
X0245134Y0042628D03*
X0238441Y0042628D03*
X0229189Y0028415D03*
X0222496Y0028415D03*
X0290882Y0041722D03*
X0297575Y0041722D03*
X0439150Y0034518D03*
X0445843Y0034518D03*
X0446079Y0045817D03*
X0439386Y0045817D03*
X0460055Y0142707D03*
X0466748Y0142707D03*
X0403165Y0143376D03*
X0396472Y0143376D03*
X0366472Y0165974D03*
X0359780Y0165974D03*
X0305961Y0145541D03*
X0299268Y0145541D03*
X0287024Y0167274D03*
X0280331Y0167274D03*
X0280409Y0177234D03*
X0287102Y0177234D03*
X0258520Y0179124D03*
X0251827Y0179124D03*
X0243795Y0177234D03*
X0237102Y0177234D03*
X0237024Y0167274D03*
X0243717Y0167274D03*
X0215213Y0179124D03*
X0208520Y0179124D03*
X0200488Y0177234D03*
X0193795Y0177234D03*
X0193717Y0167274D03*
X0200409Y0167274D03*
X0171906Y0179124D03*
X0165213Y0179124D03*
X0157181Y0177234D03*
X0150488Y0177234D03*
X0150409Y0167274D03*
X0157102Y0167274D03*
X0128598Y0179124D03*
X0121906Y0179124D03*
X0113874Y0177234D03*
X0107181Y0177234D03*
X0107102Y0167274D03*
X0113795Y0167274D03*
X0085291Y0179124D03*
X0078598Y0179124D03*
X0070567Y0177234D03*
X0063874Y0177234D03*
X0063795Y0167274D03*
X0070488Y0167274D03*
X0041984Y0179124D03*
X0035291Y0179124D03*
X0035291Y0189045D03*
X0041984Y0189045D03*
X0078598Y0189045D03*
X0085291Y0189045D03*
X0121906Y0189045D03*
X0128598Y0189045D03*
X0165213Y0189045D03*
X0171906Y0189045D03*
X0208520Y0189045D03*
X0215213Y0189045D03*
X0251827Y0189045D03*
X0258520Y0189045D03*
X0421709Y0177785D03*
X0428402Y0177785D03*
X0437260Y0177707D03*
X0443953Y0177707D03*
D11*
X0453087Y0177589D03*
X0460961Y0177589D03*
X0413638Y0178100D03*
X0405764Y0178100D03*
X0286236Y0145384D03*
X0278362Y0145384D03*
X0262890Y0144478D03*
X0255016Y0144478D03*
X0242929Y0145384D03*
X0235055Y0145384D03*
X0219583Y0144478D03*
X0211709Y0144478D03*
X0199622Y0145384D03*
X0191748Y0145384D03*
X0176276Y0144478D03*
X0168402Y0144478D03*
X0156315Y0145384D03*
X0148441Y0145384D03*
X0132969Y0144478D03*
X0125094Y0144478D03*
X0113008Y0145384D03*
X0105134Y0145384D03*
X0089661Y0144478D03*
X0081787Y0144478D03*
X0069701Y0145384D03*
X0061827Y0145384D03*
X0046354Y0144478D03*
X0038480Y0144478D03*
X0418480Y0045817D03*
X0426354Y0045817D03*
X0429465Y0034400D03*
X0421591Y0034400D03*
D12*
X0419465Y0130305D03*
X0424465Y0130305D03*
X0429465Y0130305D03*
X0434465Y0130305D03*
X0439465Y0130305D03*
X0444465Y0130305D03*
X0449465Y0130305D03*
X0449465Y0150778D03*
X0444465Y0150778D03*
X0439465Y0150778D03*
X0434465Y0150778D03*
X0429465Y0150778D03*
X0424465Y0150778D03*
X0419465Y0150778D03*
D13*
X0175961Y0018876D03*
X0182654Y0018876D03*
X0222118Y0042841D03*
X0228811Y0042841D03*
X0238457Y0028329D03*
X0245150Y0028329D03*
X0266661Y0041722D03*
X0273354Y0041722D03*
X0353890Y0045514D03*
X0360583Y0045514D03*
X0366240Y0136344D03*
X0372933Y0136344D03*
X0374697Y0151766D03*
X0368004Y0151766D03*
X0375122Y0165880D03*
X0381815Y0165880D03*
X0389618Y0165608D03*
X0396311Y0165608D03*
X0395406Y0181089D03*
X0388713Y0181089D03*
D14*
X0397197Y0045305D03*
X0397197Y0028376D03*
D15*
X0212394Y0030502D03*
X0212394Y0033061D03*
X0212394Y0035620D03*
X0212394Y0038179D03*
X0195071Y0038179D03*
X0195071Y0035620D03*
X0195071Y0033061D03*
X0195071Y0030502D03*
D16*
X0415154Y0191746D03*
X0424996Y0209069D03*
X0405311Y0209069D03*
D17*
X0380449Y0193156D03*
X0370213Y0193156D03*
D18*
X0360827Y0203884D03*
X0389835Y0203884D03*
D19*
X0375331Y0203884D03*
D20*
X0375331Y0193156D03*
X0377890Y0193156D03*
X0372772Y0193156D03*
D21*
X0347874Y0142561D03*
X0344134Y0142561D03*
X0340394Y0142561D03*
X0340394Y0132324D03*
X0344134Y0132324D03*
X0347874Y0132324D03*
D22*
X0335425Y0175711D03*
X0333457Y0175711D03*
X0331488Y0175711D03*
X0331488Y0181026D03*
X0333457Y0181026D03*
X0335425Y0181026D03*
D23*
X0368696Y0028888D03*
X0368696Y0025148D03*
X0368696Y0021407D03*
X0378933Y0021407D03*
X0378933Y0028888D03*
D24*
X0331197Y0037274D03*
X0314110Y0037274D03*
D25*
X0175921Y0040896D03*
X0175921Y0029872D03*
M02*
