G75*
%MOIN*%
%OFA0B0*%
%FSLAX25Y25*%
%IPPOS*%
%LPD*%
%AMOC8*
5,1,8,0,0,1.08239X$1,22.5*
%
%ADD10R,0.06299X0.07480*%
%ADD11C,0.07400*%
%ADD12R,0.04331X0.03937*%
%ADD13C,0.06600*%
%ADD14R,0.11024X0.11024*%
%ADD15R,0.03937X0.04331*%
%ADD16R,0.01200X0.03900*%
%ADD17R,0.07480X0.06299*%
%ADD18OC8,0.05200*%
%ADD19C,0.01200*%
%ADD20C,0.02978*%
D10*
X0025809Y0027024D03*
X0025809Y0040016D03*
X0042778Y0039386D03*
X0042778Y0026394D03*
X0070337Y0026394D03*
X0070337Y0039386D03*
X0092739Y0040016D03*
X0092739Y0027024D03*
X0105770Y0026394D03*
X0105770Y0039386D03*
X0133329Y0039386D03*
X0133329Y0026394D03*
X0151794Y0027024D03*
X0151794Y0040016D03*
X0168762Y0039386D03*
X0168762Y0026394D03*
X0196321Y0026394D03*
X0196321Y0039386D03*
X0214786Y0040016D03*
X0214786Y0027024D03*
X0231754Y0026394D03*
X0231754Y0039386D03*
X0259313Y0039386D03*
X0259313Y0026394D03*
X0281715Y0027024D03*
X0281715Y0040016D03*
X0294746Y0039386D03*
X0294746Y0026394D03*
X0322306Y0026394D03*
X0322306Y0039386D03*
X0340770Y0040016D03*
X0340770Y0027024D03*
X0357739Y0026394D03*
X0357739Y0039386D03*
X0385298Y0039386D03*
X0385298Y0026394D03*
X0365180Y0152772D03*
X0365180Y0165764D03*
X0302187Y0165764D03*
X0302187Y0152772D03*
X0239195Y0152772D03*
X0239195Y0165764D03*
X0176203Y0165764D03*
X0176203Y0152772D03*
X0113211Y0152772D03*
X0113211Y0165764D03*
X0050219Y0165764D03*
X0050219Y0152772D03*
X0095219Y0273441D03*
X0095219Y0286433D03*
X0116164Y0292024D03*
X0116164Y0305016D03*
X0142463Y0286433D03*
X0142463Y0273441D03*
X0167345Y0292024D03*
X0167345Y0305016D03*
X0197581Y0286433D03*
X0197581Y0273441D03*
X0218526Y0292024D03*
X0218526Y0305016D03*
X0248762Y0286433D03*
X0248762Y0273441D03*
X0269707Y0292024D03*
X0269707Y0305016D03*
X0299943Y0286433D03*
X0299943Y0273441D03*
X0320888Y0292024D03*
X0320888Y0305016D03*
X0347187Y0286433D03*
X0347187Y0273441D03*
X0061046Y0292024D03*
X0061046Y0305016D03*
D11*
X0385543Y0287024D03*
X0396943Y0287024D03*
D12*
X0219353Y0202220D03*
X0212660Y0202220D03*
X0203605Y0202181D03*
X0196912Y0202181D03*
D13*
X0188447Y0198244D03*
X0188447Y0206118D03*
X0188447Y0213992D03*
X0188447Y0221866D03*
X0188447Y0229740D03*
X0188447Y0237614D03*
X0227817Y0237614D03*
X0227817Y0229740D03*
X0227817Y0221866D03*
X0227817Y0213992D03*
X0227817Y0206118D03*
X0227817Y0198244D03*
X0227817Y0114307D03*
X0219943Y0114307D03*
X0235691Y0114307D03*
X0243565Y0114307D03*
X0251439Y0114307D03*
X0259313Y0114307D03*
X0282935Y0114307D03*
X0290809Y0114307D03*
X0298683Y0114307D03*
X0306557Y0114307D03*
X0314431Y0114307D03*
X0322306Y0114307D03*
X0345928Y0114307D03*
X0353802Y0114307D03*
X0361676Y0114307D03*
X0369550Y0114307D03*
X0377424Y0114307D03*
X0385298Y0114307D03*
X0385298Y0013205D03*
X0377424Y0013205D03*
X0369550Y0013205D03*
X0361676Y0013205D03*
X0353802Y0013205D03*
X0345928Y0013205D03*
X0322306Y0013205D03*
X0314431Y0013205D03*
X0306557Y0013205D03*
X0298683Y0013205D03*
X0290809Y0013205D03*
X0282935Y0013205D03*
X0259313Y0013205D03*
X0251439Y0013205D03*
X0243565Y0013205D03*
X0235691Y0013205D03*
X0227817Y0013205D03*
X0219943Y0013205D03*
X0196321Y0013205D03*
X0188447Y0013205D03*
X0180573Y0013205D03*
X0172699Y0013205D03*
X0164825Y0013205D03*
X0156951Y0013205D03*
X0133329Y0013205D03*
X0125455Y0013205D03*
X0117581Y0013205D03*
X0109707Y0013205D03*
X0101833Y0013205D03*
X0093959Y0013205D03*
X0070337Y0013205D03*
X0062463Y0013205D03*
X0054589Y0013205D03*
X0046715Y0013205D03*
X0038841Y0013205D03*
X0030967Y0013205D03*
X0030967Y0114307D03*
X0038841Y0114307D03*
X0046715Y0114307D03*
X0054589Y0114307D03*
X0062463Y0114307D03*
X0070337Y0114307D03*
X0093959Y0114307D03*
X0101833Y0114307D03*
X0109707Y0114307D03*
X0117581Y0114307D03*
X0125455Y0114307D03*
X0133329Y0114307D03*
X0156951Y0114307D03*
X0164825Y0114307D03*
X0172699Y0114307D03*
X0180573Y0114307D03*
X0188447Y0114307D03*
X0196321Y0114307D03*
D14*
X0203408Y0157614D03*
X0212857Y0157614D03*
X0266400Y0157614D03*
X0275849Y0157614D03*
X0271124Y0191157D03*
X0329392Y0157614D03*
X0338841Y0157614D03*
X0392384Y0157614D03*
X0271124Y0244701D03*
X0149865Y0157614D03*
X0140416Y0157614D03*
X0145140Y0191157D03*
X0086872Y0157614D03*
X0077424Y0157614D03*
X0023880Y0157614D03*
X0145140Y0244701D03*
X0140416Y0056512D03*
X0149865Y0056512D03*
X0203408Y0056512D03*
X0212857Y0056512D03*
X0266400Y0056512D03*
X0275849Y0056512D03*
X0329392Y0056512D03*
X0338841Y0056512D03*
X0392384Y0056512D03*
X0086872Y0056512D03*
X0077424Y0056512D03*
X0023880Y0056512D03*
D15*
X0023093Y0072850D03*
X0023093Y0079543D03*
X0078211Y0079543D03*
X0078211Y0072850D03*
X0090022Y0072850D03*
X0090022Y0079543D03*
X0141203Y0079543D03*
X0141203Y0072850D03*
X0149077Y0072850D03*
X0149077Y0079543D03*
X0204195Y0079543D03*
X0212069Y0079543D03*
X0212069Y0072850D03*
X0204195Y0072850D03*
X0183369Y0031945D03*
X0183369Y0025252D03*
X0246361Y0025252D03*
X0246361Y0031945D03*
X0267187Y0072850D03*
X0267187Y0079543D03*
X0278998Y0079543D03*
X0278998Y0072850D03*
X0309353Y0031945D03*
X0309353Y0025252D03*
X0330180Y0072850D03*
X0330180Y0079543D03*
X0338054Y0079543D03*
X0338054Y0072850D03*
X0372345Y0031945D03*
X0372345Y0025252D03*
X0393172Y0072850D03*
X0393172Y0079543D03*
X0369550Y0127929D03*
X0369550Y0134622D03*
X0357739Y0134661D03*
X0357739Y0127969D03*
X0377542Y0144780D03*
X0377542Y0151472D03*
X0377620Y0162890D03*
X0377620Y0169583D03*
X0349865Y0166157D03*
X0349865Y0159465D03*
X0314628Y0162890D03*
X0314628Y0169583D03*
X0314550Y0151472D03*
X0314550Y0144780D03*
X0306557Y0134622D03*
X0306557Y0127929D03*
X0294746Y0127969D03*
X0294746Y0134661D03*
X0286872Y0159465D03*
X0286872Y0166157D03*
X0251636Y0162890D03*
X0251636Y0169583D03*
X0251557Y0151472D03*
X0251557Y0144780D03*
X0243565Y0134622D03*
X0243565Y0127929D03*
X0231754Y0127969D03*
X0231754Y0134661D03*
X0223880Y0159465D03*
X0223880Y0166157D03*
X0188644Y0162890D03*
X0188644Y0169583D03*
X0188565Y0151472D03*
X0188565Y0144780D03*
X0180573Y0134622D03*
X0180573Y0127929D03*
X0168762Y0127969D03*
X0168762Y0134661D03*
X0160888Y0159465D03*
X0160888Y0166157D03*
X0125652Y0162890D03*
X0125652Y0169583D03*
X0125573Y0151472D03*
X0125573Y0144780D03*
X0117581Y0134622D03*
X0117581Y0127929D03*
X0105770Y0127969D03*
X0105770Y0134661D03*
X0097896Y0159465D03*
X0097896Y0166157D03*
X0062660Y0162890D03*
X0062660Y0169583D03*
X0062581Y0151472D03*
X0062581Y0144780D03*
X0054589Y0134622D03*
X0054589Y0127929D03*
X0042778Y0127969D03*
X0042778Y0134661D03*
X0034904Y0159465D03*
X0034904Y0166157D03*
X0057384Y0031945D03*
X0057384Y0025252D03*
X0120376Y0025252D03*
X0120376Y0031945D03*
X0247502Y0242142D03*
X0247502Y0248835D03*
D16*
X0215809Y0237291D03*
X0213250Y0237291D03*
X0210691Y0237291D03*
X0208132Y0237291D03*
X0205573Y0237291D03*
X0203014Y0237291D03*
X0200455Y0237291D03*
X0200455Y0214316D03*
X0203014Y0214316D03*
X0205573Y0214316D03*
X0208132Y0214316D03*
X0210691Y0214316D03*
X0213250Y0214316D03*
X0215809Y0214316D03*
X0231872Y0077212D03*
X0234431Y0077212D03*
X0236991Y0077212D03*
X0239550Y0077212D03*
X0242109Y0077212D03*
X0244668Y0077212D03*
X0247227Y0077212D03*
X0247227Y0054237D03*
X0244668Y0054237D03*
X0242109Y0054237D03*
X0239550Y0054237D03*
X0236991Y0054237D03*
X0234431Y0054237D03*
X0231872Y0054237D03*
X0184235Y0054237D03*
X0181676Y0054237D03*
X0179117Y0054237D03*
X0176557Y0054237D03*
X0173998Y0054237D03*
X0171439Y0054237D03*
X0168880Y0054237D03*
X0168880Y0077212D03*
X0171439Y0077212D03*
X0173998Y0077212D03*
X0176557Y0077212D03*
X0179117Y0077212D03*
X0181676Y0077212D03*
X0184235Y0077212D03*
X0121243Y0077212D03*
X0118683Y0077212D03*
X0116124Y0077212D03*
X0113565Y0077212D03*
X0111006Y0077212D03*
X0108447Y0077212D03*
X0105888Y0077212D03*
X0105888Y0054237D03*
X0108447Y0054237D03*
X0111006Y0054237D03*
X0113565Y0054237D03*
X0116124Y0054237D03*
X0118683Y0054237D03*
X0121243Y0054237D03*
X0058250Y0054237D03*
X0055691Y0054237D03*
X0053132Y0054237D03*
X0050573Y0054237D03*
X0048014Y0054237D03*
X0045455Y0054237D03*
X0042896Y0054237D03*
X0042896Y0077212D03*
X0045455Y0077212D03*
X0048014Y0077212D03*
X0050573Y0077212D03*
X0053132Y0077212D03*
X0055691Y0077212D03*
X0058250Y0077212D03*
X0294865Y0077212D03*
X0297424Y0077212D03*
X0299983Y0077212D03*
X0302542Y0077212D03*
X0305101Y0077212D03*
X0307660Y0077212D03*
X0310219Y0077212D03*
X0310219Y0054237D03*
X0307660Y0054237D03*
X0305101Y0054237D03*
X0302542Y0054237D03*
X0299983Y0054237D03*
X0297424Y0054237D03*
X0294865Y0054237D03*
X0357857Y0054237D03*
X0360416Y0054237D03*
X0362975Y0054237D03*
X0365534Y0054237D03*
X0368093Y0054237D03*
X0370652Y0054237D03*
X0373211Y0054237D03*
X0373211Y0077212D03*
X0370652Y0077212D03*
X0368093Y0077212D03*
X0365534Y0077212D03*
X0362975Y0077212D03*
X0360416Y0077212D03*
X0357857Y0077212D03*
D17*
X0362581Y0202772D03*
X0349589Y0202772D03*
X0375809Y0233165D03*
X0388802Y0233165D03*
X0366479Y0252457D03*
X0353487Y0252457D03*
X0060337Y0233165D03*
X0047345Y0233165D03*
X0037778Y0202929D03*
X0024786Y0202929D03*
D18*
X0364550Y0284858D03*
X0374550Y0284858D03*
D19*
X0030967Y0013205D02*
X0026046Y0013205D01*
X0026046Y0026984D01*
X0025809Y0027024D01*
X0030967Y0028953D02*
X0030967Y0039780D01*
X0026046Y0039780D01*
X0025809Y0040016D01*
X0030967Y0028953D02*
X0038841Y0021079D01*
X0052620Y0021079D01*
X0056557Y0025016D01*
X0057384Y0025252D01*
X0057384Y0031945D02*
X0056557Y0032890D01*
X0048683Y0032890D01*
X0067384Y0051591D01*
X0061479Y0050606D02*
X0058526Y0053559D01*
X0058250Y0054237D01*
X0058526Y0053559D02*
X0055573Y0053559D01*
X0055691Y0054237D01*
X0053605Y0054543D02*
X0053132Y0054237D01*
X0053605Y0054543D02*
X0053605Y0061433D01*
X0045731Y0061433D01*
X0041794Y0065370D01*
X0045731Y0064386D02*
X0053605Y0064386D01*
X0058526Y0059465D01*
X0064431Y0063402D02*
X0058526Y0069307D01*
X0051636Y0069307D01*
X0049668Y0071276D01*
X0053605Y0072260D02*
X0053605Y0077181D01*
X0053132Y0077212D01*
X0050573Y0077212D02*
X0050652Y0078165D01*
X0050652Y0084071D01*
X0110691Y0084071D01*
X0156951Y0084071D01*
X0176636Y0084071D01*
X0239628Y0084071D01*
X0286872Y0084071D01*
X0286872Y0053559D01*
X0281951Y0048638D01*
X0273093Y0048638D01*
X0273093Y0016157D01*
X0268172Y0011236D01*
X0273093Y0016157D02*
X0280967Y0008283D01*
X0285888Y0008283D01*
X0290809Y0013205D01*
X0282935Y0013205D02*
X0281951Y0013205D01*
X0281951Y0026984D01*
X0281715Y0027024D01*
X0285888Y0032890D02*
X0276046Y0032890D01*
X0276046Y0043717D01*
X0281715Y0040016D02*
X0287857Y0033874D01*
X0300652Y0033874D01*
X0308526Y0026000D01*
X0309353Y0025252D01*
X0309353Y0031945D02*
X0308526Y0032890D01*
X0308526Y0040764D01*
X0307542Y0040764D01*
X0304589Y0043717D02*
X0312463Y0043717D01*
X0317384Y0048638D01*
X0328211Y0048638D01*
X0328211Y0041748D01*
X0328211Y0036827D02*
X0328211Y0021079D01*
X0286872Y0021079D01*
X0291794Y0026984D02*
X0294746Y0026984D01*
X0294746Y0026394D01*
X0291794Y0026984D02*
X0285888Y0032890D01*
X0294746Y0039386D02*
X0294746Y0046669D01*
X0312463Y0046669D01*
X0319353Y0053559D01*
X0310494Y0053559D02*
X0310494Y0049622D01*
X0310494Y0053559D02*
X0310219Y0054237D01*
X0310494Y0054543D01*
X0307542Y0054543D01*
X0307660Y0054237D01*
X0305101Y0054237D02*
X0304589Y0054543D01*
X0304589Y0060449D01*
X0313447Y0060449D01*
X0312463Y0063402D02*
X0320337Y0071276D01*
X0320337Y0081118D01*
X0313447Y0078165D02*
X0310494Y0078165D01*
X0310219Y0077212D01*
X0310494Y0077181D01*
X0310494Y0069307D01*
X0312463Y0063402D02*
X0307542Y0063402D01*
X0297699Y0063402D01*
X0297699Y0054543D01*
X0297424Y0054237D01*
X0299668Y0053559D02*
X0299983Y0054237D01*
X0299668Y0053559D02*
X0299668Y0049622D01*
X0302620Y0049622D02*
X0303605Y0049622D01*
X0302620Y0049622D02*
X0302620Y0053559D01*
X0302542Y0054237D01*
X0294865Y0054237D02*
X0294746Y0053559D01*
X0294746Y0046669D01*
X0319353Y0045685D02*
X0319353Y0039780D01*
X0322306Y0039780D01*
X0322306Y0039386D01*
X0328211Y0036827D02*
X0337069Y0045685D01*
X0357739Y0045685D01*
X0357739Y0053559D01*
X0357857Y0054237D01*
X0360416Y0054237D02*
X0360691Y0053559D01*
X0360691Y0044701D01*
X0361676Y0044701D01*
X0371518Y0034858D01*
X0372502Y0034858D01*
X0376439Y0038795D01*
X0379392Y0041748D02*
X0383329Y0041748D01*
X0385298Y0039780D01*
X0385298Y0039386D01*
X0382345Y0044701D02*
X0389235Y0044701D01*
X0390219Y0043717D01*
X0390219Y0013205D01*
X0385298Y0013205D01*
X0385298Y0026394D02*
X0385298Y0032890D01*
X0372345Y0031945D02*
X0371518Y0032890D01*
X0371518Y0034858D01*
X0363644Y0028953D02*
X0363644Y0018126D01*
X0364628Y0018126D01*
X0369550Y0013205D01*
X0360691Y0020094D02*
X0352817Y0020094D01*
X0352817Y0036827D01*
X0346912Y0042732D01*
X0344943Y0039780D02*
X0341006Y0039780D01*
X0340770Y0040016D01*
X0344943Y0039780D02*
X0346912Y0037811D01*
X0357739Y0039386D02*
X0357739Y0045685D01*
X0349865Y0048638D02*
X0328211Y0048638D01*
X0325258Y0032890D02*
X0325258Y0026984D01*
X0322306Y0026984D01*
X0322306Y0026394D01*
X0340770Y0027024D02*
X0341006Y0026984D01*
X0341006Y0013205D01*
X0345928Y0013205D01*
X0348880Y0008283D02*
X0353802Y0013205D01*
X0348880Y0008283D02*
X0303605Y0008283D01*
X0298683Y0013205D01*
X0265219Y0027969D02*
X0264235Y0026984D01*
X0259313Y0026984D01*
X0259313Y0026394D01*
X0250455Y0020094D02*
X0245534Y0020094D01*
X0241597Y0021079D02*
X0227817Y0021079D01*
X0219943Y0028953D01*
X0219943Y0039780D01*
X0215022Y0039780D01*
X0214786Y0040016D01*
X0216991Y0033874D02*
X0216006Y0032890D01*
X0203211Y0032890D01*
X0197306Y0026984D01*
X0196321Y0026984D01*
X0196321Y0026394D01*
X0190416Y0032890D02*
X0183526Y0032890D01*
X0183369Y0031945D01*
X0182542Y0032890D01*
X0181557Y0032890D01*
X0181557Y0035843D01*
X0172699Y0044701D01*
X0171715Y0044701D01*
X0171715Y0053559D01*
X0171439Y0054237D01*
X0173683Y0054543D02*
X0173998Y0054237D01*
X0173683Y0054543D02*
X0173683Y0064386D01*
X0125455Y0064386D01*
X0115613Y0074228D01*
X0115613Y0077181D01*
X0116124Y0077212D01*
X0113565Y0077212D02*
X0113644Y0078165D01*
X0113644Y0081118D01*
X0110691Y0084071D01*
X0110691Y0081118D02*
X0103802Y0081118D01*
X0105770Y0077181D02*
X0105888Y0077212D01*
X0105770Y0077181D02*
X0105770Y0072260D01*
X0103802Y0069307D02*
X0098880Y0074228D01*
X0098880Y0081118D01*
X0105770Y0077181D02*
X0108723Y0077181D01*
X0108447Y0077212D01*
X0110691Y0078165D02*
X0111006Y0077212D01*
X0110691Y0078165D02*
X0110691Y0081118D01*
X0118565Y0081118D02*
X0118565Y0078165D01*
X0118683Y0077212D01*
X0121243Y0077212D02*
X0121518Y0078165D01*
X0125455Y0078165D01*
X0130376Y0078165D01*
X0130376Y0067339D01*
X0136282Y0067339D02*
X0141203Y0072260D01*
X0141203Y0072850D01*
X0141203Y0079543D02*
X0141203Y0080134D01*
X0132345Y0080134D01*
X0131361Y0081118D01*
X0127424Y0080134D02*
X0125455Y0078165D01*
X0123487Y0081118D02*
X0118565Y0081118D01*
X0115613Y0074228D02*
X0114628Y0073244D01*
X0111676Y0073244D01*
X0110691Y0072260D01*
X0113644Y0069307D02*
X0103802Y0069307D01*
X0093959Y0063402D02*
X0093959Y0045685D01*
X0089038Y0045685D01*
X0088054Y0044701D01*
X0088054Y0032890D01*
X0097896Y0032890D01*
X0103802Y0026984D01*
X0105770Y0026984D01*
X0105770Y0026394D01*
X0099865Y0033874D02*
X0093959Y0039780D01*
X0092975Y0039780D01*
X0092739Y0040016D01*
X0099865Y0033874D02*
X0111676Y0033874D01*
X0119550Y0026000D01*
X0120376Y0025252D01*
X0124471Y0026000D02*
X0124471Y0031906D01*
X0120534Y0031906D01*
X0120376Y0031945D01*
X0119550Y0032890D01*
X0116597Y0035843D01*
X0105770Y0039386D02*
X0105770Y0048638D01*
X0096912Y0048638D01*
X0105770Y0048638D02*
X0105770Y0053559D01*
X0105888Y0054237D01*
X0108447Y0054237D02*
X0108723Y0054543D01*
X0108723Y0058480D01*
X0107739Y0058480D01*
X0111006Y0054237D02*
X0110691Y0053559D01*
X0110691Y0049622D01*
X0113565Y0054237D02*
X0113644Y0054543D01*
X0113644Y0069307D01*
X0116597Y0058480D02*
X0116597Y0054543D01*
X0116124Y0054237D01*
X0118565Y0053559D02*
X0118683Y0054237D01*
X0118565Y0053559D02*
X0121518Y0053559D01*
X0121243Y0054237D01*
X0121518Y0053559D02*
X0125455Y0049622D01*
X0130376Y0049622D01*
X0130376Y0059465D02*
X0133329Y0059465D01*
X0133329Y0039386D01*
X0133329Y0032890D02*
X0133329Y0026394D01*
X0132345Y0021079D02*
X0129392Y0021079D01*
X0124471Y0026000D01*
X0132345Y0021079D02*
X0133329Y0020094D01*
X0151794Y0027024D02*
X0152030Y0026984D01*
X0152030Y0013205D01*
X0156951Y0013205D01*
X0159904Y0008283D02*
X0200258Y0008283D01*
X0202227Y0010252D01*
X0207148Y0018126D02*
X0216991Y0008283D01*
X0238644Y0008283D01*
X0243565Y0013205D01*
X0241597Y0021079D02*
X0245534Y0025016D01*
X0246361Y0025252D01*
X0250455Y0020094D02*
X0250455Y0038795D01*
X0249471Y0039780D01*
X0247502Y0039780D01*
X0239628Y0047654D01*
X0239628Y0053559D01*
X0239550Y0054237D01*
X0242109Y0054237D02*
X0242581Y0054543D01*
X0242581Y0060449D01*
X0243565Y0060449D01*
X0239628Y0061433D02*
X0234707Y0061433D01*
X0234707Y0054543D01*
X0234431Y0054237D01*
X0236676Y0053559D02*
X0236991Y0054237D01*
X0236676Y0053559D02*
X0236676Y0049622D01*
X0236676Y0047654D01*
X0247502Y0036827D01*
X0245534Y0032890D02*
X0246361Y0031945D01*
X0245534Y0032890D02*
X0239628Y0038795D01*
X0231754Y0039386D02*
X0231754Y0046669D01*
X0233723Y0046669D01*
X0231754Y0046669D02*
X0231754Y0053559D01*
X0231872Y0054237D01*
X0230770Y0058480D02*
X0230770Y0068323D01*
X0231754Y0069307D01*
X0231754Y0077181D01*
X0231872Y0077212D01*
X0231754Y0077181D02*
X0234707Y0077181D01*
X0234431Y0077212D01*
X0236676Y0078165D02*
X0236991Y0077212D01*
X0236676Y0078165D02*
X0236676Y0081118D01*
X0226833Y0081118D01*
X0230770Y0087024D02*
X0278014Y0087024D01*
X0338054Y0087024D01*
X0338054Y0079543D01*
X0338054Y0072850D02*
X0338054Y0072260D01*
X0343959Y0066354D01*
X0349865Y0063402D02*
X0351833Y0063402D01*
X0349865Y0063402D02*
X0349865Y0075213D01*
X0346912Y0077181D02*
X0347896Y0078165D01*
X0357739Y0078165D01*
X0357857Y0077212D01*
X0357739Y0077181D01*
X0360691Y0077181D01*
X0360416Y0077212D01*
X0362660Y0078165D02*
X0362975Y0077212D01*
X0362660Y0078165D02*
X0362660Y0087024D01*
X0357739Y0087024D01*
X0365534Y0077212D02*
X0365613Y0077181D01*
X0365613Y0072260D01*
X0357739Y0072260D01*
X0362660Y0069307D02*
X0367581Y0069307D01*
X0368565Y0070291D01*
X0368565Y0077181D01*
X0368093Y0077212D01*
X0370652Y0077212D02*
X0370534Y0078165D01*
X0370534Y0086039D01*
X0371518Y0089976D02*
X0325258Y0089976D01*
X0254392Y0089976D01*
X0193369Y0089976D01*
X0140219Y0089976D01*
X0143172Y0092929D02*
X0053605Y0092929D01*
X0047699Y0089976D02*
X0083132Y0089976D01*
X0086085Y0087024D01*
X0153998Y0087024D01*
X0210101Y0087024D01*
X0230770Y0087024D01*
X0239628Y0084071D02*
X0239628Y0078165D01*
X0239550Y0077212D01*
X0241597Y0077181D02*
X0241597Y0074228D01*
X0236676Y0069307D01*
X0244550Y0072260D02*
X0244550Y0077181D01*
X0244668Y0077212D01*
X0247227Y0077212D02*
X0247502Y0077181D01*
X0248487Y0077181D01*
X0258329Y0067339D01*
X0267187Y0072260D02*
X0267187Y0072850D01*
X0267187Y0072260D02*
X0272109Y0072260D01*
X0275061Y0069307D02*
X0276046Y0069307D01*
X0278998Y0072260D01*
X0278998Y0072850D01*
X0278998Y0079543D02*
X0278998Y0080134D01*
X0279983Y0081118D01*
X0283920Y0081118D01*
X0286872Y0084071D02*
X0302620Y0084071D01*
X0302620Y0078165D01*
X0302542Y0077212D01*
X0304589Y0077181D02*
X0304589Y0074228D01*
X0299668Y0069307D01*
X0295731Y0069307D02*
X0295731Y0077181D01*
X0294746Y0077181D01*
X0294865Y0077212D01*
X0295731Y0077181D02*
X0297699Y0077181D01*
X0297424Y0077212D01*
X0299668Y0078165D02*
X0299983Y0077212D01*
X0299668Y0078165D02*
X0299668Y0081118D01*
X0292778Y0081118D01*
X0304589Y0077181D02*
X0305101Y0077212D01*
X0307660Y0077212D02*
X0307542Y0078165D01*
X0307542Y0084071D01*
X0313447Y0084071D02*
X0313447Y0078165D01*
X0325258Y0081118D02*
X0329195Y0081118D01*
X0330180Y0080134D01*
X0330180Y0079543D01*
X0330180Y0072850D02*
X0330180Y0072260D01*
X0322306Y0064386D01*
X0346912Y0051591D02*
X0346912Y0077181D01*
X0362660Y0069307D02*
X0362660Y0058480D01*
X0356754Y0058480D01*
X0349865Y0051591D01*
X0349865Y0048638D01*
X0362660Y0054543D02*
X0362660Y0058480D01*
X0362660Y0054543D02*
X0362975Y0054237D01*
X0365534Y0054237D02*
X0365613Y0053559D01*
X0365613Y0049622D01*
X0368093Y0054237D02*
X0367581Y0054543D01*
X0367581Y0058480D01*
X0368565Y0058480D01*
X0370534Y0054543D02*
X0370652Y0054237D01*
X0370534Y0054543D02*
X0373487Y0054543D01*
X0373211Y0054237D01*
X0373487Y0053559D01*
X0382345Y0044701D01*
X0376439Y0061433D02*
X0371518Y0066354D01*
X0379392Y0064386D02*
X0379392Y0077181D01*
X0373487Y0077181D01*
X0373211Y0077212D01*
X0373487Y0078165D01*
X0373487Y0083087D01*
X0377424Y0084071D02*
X0371518Y0089976D01*
X0377424Y0084071D02*
X0389235Y0084071D01*
X0393172Y0080134D01*
X0393172Y0079543D01*
X0393172Y0072850D02*
X0393172Y0072260D01*
X0385298Y0064386D01*
X0367581Y0095882D02*
X0385298Y0113598D01*
X0385298Y0114307D01*
X0377424Y0114307D02*
X0377424Y0113598D01*
X0370534Y0106709D01*
X0372502Y0123441D02*
X0381361Y0132299D01*
X0381361Y0151000D01*
X0378408Y0151000D01*
X0377542Y0151472D01*
X0378408Y0151984D01*
X0378408Y0162811D01*
X0377620Y0162890D01*
X0378408Y0163795D01*
X0381361Y0163795D01*
X0381361Y0219898D01*
X0388250Y0226787D01*
X0394156Y0226787D01*
X0394156Y0237614D01*
X0393172Y0238598D01*
X0377424Y0238598D01*
X0377424Y0255331D01*
X0352817Y0279937D01*
X0341991Y0279937D01*
X0341991Y0283874D01*
X0321321Y0304543D01*
X0320888Y0305016D01*
X0337069Y0313402D02*
X0363644Y0286827D01*
X0363644Y0284858D01*
X0364550Y0284858D01*
X0374550Y0284858D02*
X0375455Y0284858D01*
X0378408Y0281906D01*
X0391203Y0281906D01*
X0396124Y0286827D01*
X0396943Y0287024D01*
X0366597Y0261236D02*
X0366597Y0253362D01*
X0366479Y0252457D01*
X0358723Y0246472D02*
X0347896Y0246472D01*
X0347896Y0273047D01*
X0347187Y0273441D01*
X0352817Y0274031D02*
X0352817Y0253362D01*
X0353487Y0252457D01*
X0339038Y0243520D02*
X0339038Y0230724D01*
X0342975Y0230724D02*
X0344943Y0232693D01*
X0367581Y0232693D01*
X0375455Y0232693D01*
X0375809Y0233165D01*
X0383329Y0227772D02*
X0237660Y0227772D01*
X0227817Y0237614D01*
X0220928Y0244504D01*
X0200258Y0244504D01*
X0200258Y0237614D01*
X0200455Y0237291D01*
X0203014Y0237291D02*
X0203211Y0236630D01*
X0203211Y0233677D01*
X0192384Y0233677D01*
X0188447Y0237614D01*
X0188447Y0229740D02*
X0213054Y0229740D01*
X0216006Y0229740D01*
X0217975Y0227772D01*
X0219943Y0224819D02*
X0221912Y0226787D01*
X0221912Y0240567D01*
X0217975Y0240567D01*
X0216991Y0241551D01*
X0209117Y0241551D01*
X0211085Y0239583D01*
X0211085Y0237614D01*
X0210691Y0237291D01*
X0213054Y0236630D02*
X0213250Y0237291D01*
X0213054Y0236630D02*
X0213054Y0229740D01*
X0208132Y0232693D02*
X0208132Y0237291D01*
X0205573Y0237291D02*
X0205180Y0237614D01*
X0205180Y0241551D01*
X0209117Y0241551D01*
X0215809Y0237291D02*
X0216006Y0236630D01*
X0218959Y0233677D01*
X0219943Y0224819D02*
X0209117Y0224819D01*
X0209117Y0217929D01*
X0211085Y0215961D01*
X0211085Y0214976D01*
X0210691Y0214316D01*
X0213054Y0213992D02*
X0213250Y0214316D01*
X0213054Y0213992D02*
X0213054Y0210055D01*
X0214038Y0210055D01*
X0218959Y0210055D02*
X0218959Y0203165D01*
X0219353Y0202220D01*
X0212660Y0202220D02*
X0212069Y0202181D01*
X0208132Y0202181D01*
X0208132Y0205134D01*
X0208132Y0208087D02*
X0206164Y0208087D01*
X0204195Y0206118D01*
X0201243Y0206118D01*
X0197306Y0202181D01*
X0196912Y0202181D01*
X0197306Y0202181D02*
X0224865Y0174622D01*
X0313447Y0174622D01*
X0313447Y0211039D01*
X0300652Y0230724D02*
X0300652Y0273047D01*
X0299943Y0273441D01*
X0303605Y0278953D02*
X0295731Y0278953D01*
X0270140Y0304543D01*
X0269707Y0305016D01*
X0264235Y0313402D02*
X0337069Y0313402D01*
X0347896Y0294701D02*
X0347896Y0286827D01*
X0347187Y0286433D01*
X0320888Y0292024D02*
X0320337Y0291748D01*
X0320337Y0280921D01*
X0303605Y0278953D02*
X0339038Y0243520D01*
X0338054Y0213992D02*
X0227817Y0213992D01*
X0216006Y0214976D02*
X0215809Y0214316D01*
X0216006Y0214976D02*
X0216006Y0220882D01*
X0212069Y0220882D01*
X0209117Y0217929D02*
X0205180Y0217929D01*
X0203211Y0217929D01*
X0202227Y0218913D01*
X0205180Y0217929D02*
X0205180Y0214976D01*
X0205573Y0214316D01*
X0203211Y0213992D02*
X0203014Y0214316D01*
X0203211Y0213992D02*
X0203211Y0210055D01*
X0200455Y0214316D02*
X0200258Y0214976D01*
X0193369Y0221866D01*
X0188447Y0221866D01*
X0071321Y0221866D01*
X0060494Y0232693D01*
X0060337Y0233165D01*
X0052620Y0226787D02*
X0045731Y0226787D01*
X0027030Y0208087D01*
X0020140Y0208087D01*
X0019156Y0207102D01*
X0019156Y0171669D01*
X0053605Y0171669D01*
X0061479Y0163795D01*
X0062463Y0163795D01*
X0062660Y0162890D01*
X0063447Y0162811D01*
X0063447Y0151984D01*
X0062581Y0151472D01*
X0063447Y0151000D01*
X0067384Y0147063D01*
X0080180Y0147063D01*
X0075258Y0144110D02*
X0125455Y0144110D01*
X0125573Y0144780D01*
X0126439Y0144110D01*
X0159904Y0144110D01*
X0168762Y0135252D01*
X0168762Y0134661D01*
X0168762Y0135252D02*
X0175652Y0142142D01*
X0186479Y0142142D01*
X0188447Y0144110D01*
X0188565Y0144780D01*
X0189431Y0144110D01*
X0222896Y0144110D01*
X0231754Y0135252D01*
X0231754Y0134661D01*
X0231754Y0135252D02*
X0236676Y0140173D01*
X0247502Y0140173D01*
X0251439Y0144110D01*
X0251557Y0144780D01*
X0252424Y0145094D01*
X0314431Y0145094D01*
X0314550Y0144780D01*
X0315416Y0145094D01*
X0322306Y0145094D01*
X0322306Y0168717D01*
X0316400Y0174622D01*
X0313447Y0174622D01*
X0312463Y0171669D02*
X0249471Y0171669D01*
X0251439Y0169701D01*
X0251636Y0169583D01*
X0249471Y0171669D02*
X0191400Y0171669D01*
X0189431Y0169701D01*
X0188644Y0169583D01*
X0188447Y0169701D01*
X0180573Y0177575D01*
X0134313Y0177575D01*
X0126439Y0169701D01*
X0125652Y0169583D01*
X0126439Y0168717D01*
X0129392Y0168717D01*
X0129392Y0158874D01*
X0126439Y0162811D02*
X0125652Y0162890D01*
X0126439Y0162811D02*
X0126439Y0151984D01*
X0125573Y0151472D01*
X0125455Y0151000D01*
X0123487Y0151000D01*
X0120534Y0148047D01*
X0113211Y0152772D02*
X0112660Y0151984D01*
X0110691Y0150016D01*
X0070337Y0150016D01*
X0075258Y0144110D02*
X0063447Y0144110D01*
X0062581Y0144780D01*
X0062463Y0144110D01*
X0051636Y0144110D01*
X0042778Y0135252D01*
X0042778Y0134661D01*
X0042778Y0128362D02*
X0042778Y0127969D01*
X0042778Y0127378D01*
X0036872Y0127378D01*
X0033920Y0132299D02*
X0033920Y0119504D01*
X0057542Y0119504D01*
X0062463Y0114583D01*
X0062463Y0114307D01*
X0066400Y0107693D02*
X0026046Y0107693D01*
X0026046Y0128362D01*
X0049668Y0151984D01*
X0050219Y0152772D01*
X0048683Y0147063D02*
X0033920Y0132299D01*
X0042778Y0128362D02*
X0048683Y0128362D01*
X0054589Y0134268D01*
X0054589Y0134622D01*
X0054589Y0135252D01*
X0058526Y0139189D01*
X0059510Y0133283D02*
X0054589Y0128362D01*
X0054589Y0127929D01*
X0075258Y0144110D02*
X0075258Y0111630D01*
X0065416Y0101787D01*
X0071321Y0095882D01*
X0145140Y0095882D01*
X0148093Y0092929D01*
X0153014Y0092929D01*
X0155967Y0095882D01*
X0176636Y0095882D01*
X0173683Y0092929D02*
X0204195Y0092929D01*
X0204195Y0105724D01*
X0217975Y0119504D01*
X0218959Y0119504D01*
X0219943Y0120488D01*
X0219943Y0114307D02*
X0219943Y0113598D01*
X0215022Y0108677D01*
X0210101Y0108677D01*
X0210101Y0092929D01*
X0212069Y0080134D02*
X0212069Y0079543D01*
X0212069Y0080134D02*
X0216991Y0080134D01*
X0212069Y0072850D02*
X0212069Y0072260D01*
X0216006Y0068323D01*
X0225849Y0068323D01*
X0226833Y0067339D01*
X0226833Y0026984D01*
X0231754Y0026984D01*
X0231754Y0026394D01*
X0215022Y0026984D02*
X0215022Y0013205D01*
X0219943Y0013205D01*
X0207148Y0018126D02*
X0183526Y0018126D01*
X0178605Y0023047D01*
X0176636Y0026000D02*
X0173683Y0023047D01*
X0173683Y0021079D01*
X0164825Y0021079D01*
X0156951Y0028953D01*
X0156951Y0039780D01*
X0152030Y0039780D01*
X0151794Y0040016D01*
X0161872Y0033874D02*
X0168762Y0026984D01*
X0168762Y0026394D01*
X0176636Y0026000D02*
X0182542Y0026000D01*
X0183369Y0025252D01*
X0190416Y0032890D02*
X0190416Y0057496D01*
X0187463Y0053559D02*
X0187463Y0036827D01*
X0184510Y0036827D01*
X0184510Y0041748D02*
X0184510Y0053559D01*
X0184235Y0054237D01*
X0184510Y0053559D02*
X0181557Y0053559D01*
X0181676Y0054237D01*
X0179589Y0054543D02*
X0179117Y0054237D01*
X0179589Y0054543D02*
X0179589Y0070291D01*
X0177620Y0073244D02*
X0178605Y0074228D01*
X0178605Y0077181D01*
X0179117Y0077212D01*
X0181676Y0077212D02*
X0181557Y0078165D01*
X0181557Y0081118D01*
X0190416Y0081118D01*
X0187463Y0078165D02*
X0184510Y0078165D01*
X0184235Y0077212D01*
X0176636Y0078165D02*
X0176636Y0084071D01*
X0173683Y0081118D02*
X0166794Y0081118D01*
X0168762Y0077181D02*
X0168880Y0077212D01*
X0168762Y0077181D02*
X0168762Y0072260D01*
X0173683Y0073244D02*
X0177620Y0073244D01*
X0173683Y0073244D02*
X0173683Y0064386D01*
X0176636Y0067339D02*
X0176636Y0054543D01*
X0176557Y0054237D01*
X0176636Y0053559D01*
X0176636Y0051591D01*
X0177620Y0050606D01*
X0180573Y0050606D01*
X0181557Y0049622D01*
X0168762Y0053559D02*
X0168762Y0039386D01*
X0168762Y0053559D02*
X0168880Y0054237D01*
X0168762Y0054543D01*
X0165809Y0057496D01*
X0155967Y0070291D02*
X0151046Y0070291D01*
X0149077Y0072260D01*
X0149077Y0072850D01*
X0149077Y0079543D02*
X0149077Y0080134D01*
X0150061Y0081118D01*
X0153998Y0081118D01*
X0151046Y0095882D02*
X0133329Y0113598D01*
X0133329Y0114307D01*
X0125455Y0114307D02*
X0125455Y0113598D01*
X0123487Y0113598D01*
X0123487Y0102772D01*
X0121518Y0123441D02*
X0129392Y0123441D01*
X0129392Y0131315D01*
X0133329Y0134268D02*
X0138250Y0134268D01*
X0146124Y0126394D01*
X0135298Y0123441D02*
X0156951Y0101787D01*
X0179589Y0098835D02*
X0189431Y0108677D01*
X0198290Y0108677D01*
X0201243Y0111630D01*
X0201243Y0134268D01*
X0217975Y0134268D01*
X0225849Y0132299D02*
X0226833Y0132299D01*
X0225849Y0132299D02*
X0206164Y0112614D01*
X0201243Y0106709D02*
X0190416Y0095882D01*
X0184510Y0095882D01*
X0173683Y0081118D02*
X0173683Y0078165D01*
X0173998Y0077212D01*
X0171715Y0077181D02*
X0171439Y0077212D01*
X0171715Y0077181D02*
X0168762Y0077181D01*
X0176557Y0077212D02*
X0176636Y0078165D01*
X0196321Y0069307D02*
X0196321Y0039386D01*
X0214786Y0027024D02*
X0215022Y0026984D01*
X0244550Y0047654D02*
X0244550Y0053559D01*
X0244668Y0054237D01*
X0244550Y0053559D02*
X0247502Y0053559D01*
X0247227Y0054237D01*
X0258329Y0057496D02*
X0259313Y0057496D01*
X0259313Y0039386D01*
X0218959Y0064386D02*
X0212069Y0064386D01*
X0204195Y0072260D01*
X0204195Y0072850D01*
X0204195Y0079543D02*
X0204195Y0080134D01*
X0203211Y0081118D01*
X0199274Y0081118D01*
X0241597Y0077181D02*
X0242109Y0077212D01*
X0247227Y0077212D02*
X0247502Y0078165D01*
X0250455Y0081118D01*
X0254392Y0081118D02*
X0266203Y0081118D01*
X0267187Y0080134D01*
X0267187Y0079543D01*
X0269156Y0092929D02*
X0278014Y0101787D01*
X0339038Y0101787D01*
X0345928Y0108677D01*
X0345928Y0114307D01*
X0341006Y0117535D02*
X0341006Y0106709D01*
X0339038Y0106709D01*
X0337069Y0104740D01*
X0338054Y0109661D02*
X0338054Y0123441D01*
X0372502Y0123441D01*
X0369550Y0127929D02*
X0369550Y0128362D01*
X0372502Y0131315D01*
X0374471Y0131315D01*
X0377424Y0134268D02*
X0369550Y0134268D01*
X0369550Y0134622D01*
X0369550Y0134268D02*
X0363644Y0134268D01*
X0357739Y0128362D01*
X0357739Y0127969D01*
X0357739Y0134268D02*
X0357739Y0134661D01*
X0357739Y0135252D01*
X0360691Y0138205D01*
X0371518Y0138205D01*
X0377424Y0144110D01*
X0377542Y0144780D01*
X0373487Y0150016D02*
X0373487Y0168717D01*
X0377424Y0168717D01*
X0377620Y0169583D01*
X0365180Y0165764D02*
X0349865Y0165764D01*
X0349865Y0166157D01*
X0349865Y0159465D02*
X0349865Y0142142D01*
X0349865Y0137220D02*
X0364628Y0151984D01*
X0365180Y0152772D01*
X0373487Y0150016D02*
X0364628Y0141157D01*
X0357739Y0134268D02*
X0342975Y0134268D01*
X0325258Y0134268D01*
X0315416Y0144110D01*
X0314550Y0144780D01*
X0319353Y0148047D02*
X0316400Y0151000D01*
X0315416Y0151000D01*
X0314550Y0151472D01*
X0315416Y0151984D01*
X0315416Y0162811D01*
X0314628Y0162890D01*
X0314628Y0169583D02*
X0314431Y0169701D01*
X0312463Y0171669D01*
X0302187Y0165764D02*
X0286872Y0165764D01*
X0286872Y0166157D01*
X0286872Y0159465D02*
X0286872Y0154937D01*
X0288841Y0148047D02*
X0297699Y0148047D01*
X0301636Y0151984D01*
X0302187Y0152772D01*
X0306557Y0140173D02*
X0306557Y0134622D01*
X0306557Y0134268D01*
X0300652Y0128362D01*
X0294746Y0128362D01*
X0294746Y0127969D01*
X0294746Y0127378D01*
X0288841Y0127378D01*
X0284904Y0134268D02*
X0294746Y0134268D01*
X0294746Y0134661D01*
X0306557Y0128362D02*
X0306557Y0127929D01*
X0306557Y0127378D01*
X0302620Y0123441D01*
X0247502Y0123441D01*
X0243565Y0127378D01*
X0243565Y0127929D01*
X0243565Y0134268D02*
X0237660Y0134268D01*
X0231754Y0128362D01*
X0231754Y0127969D01*
X0243565Y0134268D02*
X0243565Y0134622D01*
X0243565Y0134268D02*
X0256361Y0134268D01*
X0264235Y0126394D01*
X0270140Y0119504D02*
X0275061Y0114583D01*
X0282935Y0114583D02*
X0282935Y0114307D01*
X0282935Y0114583D02*
X0287857Y0119504D01*
X0324274Y0119504D01*
X0334117Y0109661D01*
X0313447Y0106709D02*
X0306557Y0113598D01*
X0306557Y0114307D01*
X0306557Y0128362D02*
X0309510Y0131315D01*
X0334117Y0131315D01*
X0338054Y0129346D02*
X0342975Y0134268D01*
X0349589Y0202772D02*
X0348880Y0203165D01*
X0338054Y0213992D01*
X0362660Y0203165D02*
X0362581Y0202772D01*
X0362660Y0203165D02*
X0378408Y0203165D01*
X0383329Y0227772D02*
X0388250Y0232693D01*
X0388802Y0233165D01*
X0299943Y0286433D02*
X0299668Y0286827D01*
X0299668Y0294701D01*
X0269707Y0292024D02*
X0269156Y0291748D01*
X0269156Y0280921D01*
X0248762Y0286433D02*
X0248487Y0286827D01*
X0248487Y0294701D01*
X0242581Y0280921D02*
X0218959Y0304543D01*
X0218526Y0305016D01*
X0218526Y0292024D02*
X0217975Y0291748D01*
X0217975Y0280921D01*
X0197581Y0286433D02*
X0197306Y0286827D01*
X0197306Y0294701D01*
X0197581Y0273441D02*
X0198290Y0273047D01*
X0219943Y0251394D01*
X0220928Y0251394D01*
X0208132Y0248441D02*
X0247502Y0248441D01*
X0247502Y0248835D01*
X0249471Y0253362D02*
X0249471Y0273047D01*
X0248762Y0273441D01*
X0264235Y0259268D02*
X0264235Y0313402D01*
X0264235Y0259268D02*
X0247502Y0242535D01*
X0247502Y0242142D01*
X0208132Y0214316D02*
X0208132Y0208087D01*
X0208132Y0202181D02*
X0203605Y0202181D01*
X0188447Y0198244D02*
X0028998Y0198244D01*
X0025061Y0202181D01*
X0024786Y0202929D01*
X0037778Y0202929D02*
X0037857Y0203165D01*
X0048683Y0203165D01*
X0052620Y0226787D02*
X0052620Y0296669D01*
X0060494Y0304543D01*
X0061046Y0305016D01*
X0061046Y0292024D02*
X0061479Y0291748D01*
X0061479Y0280921D01*
X0094943Y0286827D02*
X0095219Y0286433D01*
X0094943Y0286827D02*
X0094943Y0294701D01*
X0108723Y0297654D02*
X0108723Y0224819D01*
X0094943Y0224819D02*
X0094943Y0273047D01*
X0095219Y0273441D01*
X0115613Y0280921D02*
X0115613Y0291748D01*
X0116164Y0292024D01*
X0108723Y0297654D02*
X0115613Y0304543D01*
X0116164Y0305016D01*
X0143172Y0294701D02*
X0143172Y0286827D01*
X0142463Y0286433D01*
X0142463Y0273441D02*
X0142187Y0273047D01*
X0142187Y0252378D01*
X0139235Y0252378D01*
X0133329Y0246472D01*
X0159904Y0224819D02*
X0159904Y0297654D01*
X0166794Y0304543D01*
X0167345Y0305016D01*
X0167345Y0292024D02*
X0166794Y0291748D01*
X0166794Y0280921D01*
X0047345Y0233165D02*
X0046715Y0233677D01*
X0034904Y0233677D01*
X0057542Y0172654D02*
X0060494Y0169701D01*
X0062463Y0169701D01*
X0062660Y0169583D01*
X0063447Y0169701D01*
X0065416Y0171669D01*
X0123487Y0171669D01*
X0125455Y0169701D01*
X0125652Y0169583D01*
X0113211Y0165764D02*
X0097896Y0165764D01*
X0097896Y0166157D01*
X0097896Y0159465D02*
X0097896Y0158874D01*
X0114628Y0158874D01*
X0117581Y0134622D02*
X0117581Y0134268D01*
X0111676Y0134268D01*
X0105770Y0128362D01*
X0105770Y0127969D01*
X0105770Y0134268D02*
X0105770Y0134661D01*
X0105770Y0134268D02*
X0083132Y0111630D01*
X0083132Y0108677D02*
X0089038Y0108677D01*
X0093959Y0113598D01*
X0093959Y0114307D01*
X0083132Y0108677D02*
X0073290Y0098835D01*
X0065416Y0101787D02*
X0060494Y0096866D01*
X0047699Y0089976D02*
X0040809Y0083087D01*
X0026046Y0083087D01*
X0023093Y0080134D01*
X0023093Y0079543D01*
X0023093Y0072850D02*
X0023093Y0072260D01*
X0035888Y0059465D01*
X0035888Y0026984D01*
X0042778Y0026984D01*
X0042778Y0026394D01*
X0041794Y0032890D02*
X0048683Y0032890D01*
X0042778Y0039386D02*
X0042778Y0046669D01*
X0044746Y0046669D01*
X0042778Y0046669D02*
X0042778Y0053559D01*
X0042896Y0054237D01*
X0045455Y0054237D02*
X0045731Y0054543D01*
X0045731Y0058480D01*
X0041794Y0058480D01*
X0048014Y0054237D02*
X0047699Y0053559D01*
X0047699Y0049622D01*
X0050573Y0054237D02*
X0050652Y0054543D01*
X0050652Y0058480D01*
X0045731Y0064386D02*
X0045731Y0077181D01*
X0045455Y0077212D01*
X0045731Y0077181D02*
X0042778Y0077181D01*
X0042896Y0077212D01*
X0047699Y0078165D02*
X0048014Y0077212D01*
X0047699Y0078165D02*
X0047699Y0087024D01*
X0079195Y0087024D01*
X0083132Y0081118D02*
X0084117Y0080134D01*
X0090022Y0080134D01*
X0090022Y0079543D01*
X0085101Y0077181D02*
X0080180Y0077181D01*
X0078211Y0079150D01*
X0078211Y0079543D01*
X0078211Y0072850D02*
X0078211Y0072260D01*
X0070337Y0064386D01*
X0070337Y0044701D01*
X0074274Y0044701D01*
X0075258Y0043717D01*
X0075258Y0026984D01*
X0070337Y0026984D01*
X0070337Y0026394D01*
X0070337Y0039386D02*
X0070337Y0039780D01*
X0065416Y0044701D01*
X0090022Y0064386D02*
X0092975Y0064386D01*
X0093959Y0063402D01*
X0090022Y0064386D02*
X0090022Y0072850D01*
X0063447Y0081118D02*
X0055573Y0081118D01*
X0055573Y0078165D01*
X0055691Y0077212D01*
X0058250Y0077212D02*
X0058526Y0077181D01*
X0058526Y0069307D01*
X0092739Y0027024D02*
X0092975Y0026984D01*
X0092975Y0013205D01*
X0093959Y0013205D01*
X0096912Y0008283D02*
X0159904Y0008283D01*
X0164825Y0013205D01*
X0101833Y0013205D02*
X0096912Y0008283D01*
X0051636Y0008283D01*
X0046715Y0013205D01*
X0121518Y0123441D02*
X0117581Y0127378D01*
X0117581Y0127929D01*
X0117581Y0134268D02*
X0133329Y0134268D01*
X0135298Y0123441D02*
X0129392Y0123441D01*
X0135298Y0123441D02*
X0176636Y0123441D01*
X0180573Y0127378D01*
X0180573Y0127929D01*
X0180573Y0134268D02*
X0174668Y0134268D01*
X0168762Y0128362D01*
X0168762Y0127969D01*
X0180573Y0134268D02*
X0180573Y0134622D01*
X0180573Y0134268D02*
X0201243Y0134268D01*
X0183526Y0148047D02*
X0180573Y0148047D01*
X0176636Y0151984D01*
X0176203Y0152772D01*
X0182542Y0151984D02*
X0188447Y0151984D01*
X0188565Y0151472D01*
X0189431Y0151984D01*
X0189431Y0162811D01*
X0188644Y0162890D01*
X0188447Y0163795D01*
X0187463Y0163795D01*
X0179589Y0171669D01*
X0162857Y0171669D01*
X0159904Y0174622D01*
X0160888Y0166157D02*
X0160888Y0165764D01*
X0176203Y0165764D01*
X0160888Y0159465D02*
X0160888Y0158874D01*
X0174668Y0145094D01*
X0180573Y0145094D01*
X0223880Y0158874D02*
X0223880Y0159465D01*
X0223880Y0158874D02*
X0242581Y0158874D01*
X0239195Y0152772D02*
X0239628Y0151984D01*
X0239628Y0143126D01*
X0242581Y0143126D01*
X0245534Y0151000D02*
X0251439Y0151000D01*
X0251557Y0151472D01*
X0252424Y0151984D01*
X0252424Y0162811D01*
X0251636Y0162890D01*
X0239195Y0165764D02*
X0223880Y0165764D01*
X0223880Y0166157D01*
X0251439Y0114307D02*
X0251439Y0113598D01*
X0244550Y0106709D01*
X0356754Y0032890D02*
X0356754Y0026984D01*
X0357739Y0026984D01*
X0357739Y0026394D01*
X0366597Y0026000D02*
X0371518Y0026000D01*
X0372345Y0025252D01*
X0055573Y0147063D02*
X0048683Y0147063D01*
X0055573Y0147063D02*
X0055573Y0156906D01*
X0053605Y0158874D01*
X0034904Y0158874D01*
X0034904Y0159465D01*
X0034904Y0165764D02*
X0034904Y0166157D01*
X0034904Y0165764D02*
X0050219Y0165764D01*
D20*
X0057542Y0172654D03*
X0070337Y0150016D03*
X0080180Y0147063D03*
X0058526Y0139189D03*
X0059510Y0133283D03*
X0036872Y0127378D03*
X0066400Y0107693D03*
X0073290Y0098835D03*
X0060494Y0096866D03*
X0053605Y0092929D03*
X0063447Y0081118D03*
X0053605Y0072260D03*
X0049668Y0071276D03*
X0041794Y0065370D03*
X0041794Y0058480D03*
X0050652Y0058480D03*
X0058526Y0059465D03*
X0064431Y0063402D03*
X0067384Y0051591D03*
X0061479Y0050606D03*
X0065416Y0044701D03*
X0047699Y0049622D03*
X0044746Y0046669D03*
X0041794Y0032890D03*
X0096912Y0048638D03*
X0110691Y0049622D03*
X0107739Y0058480D03*
X0116597Y0058480D03*
X0130376Y0059465D03*
X0130376Y0067339D03*
X0136282Y0067339D03*
X0131361Y0081118D03*
X0127424Y0080134D03*
X0123487Y0081118D03*
X0110691Y0072260D03*
X0105770Y0072260D03*
X0103802Y0081118D03*
X0098880Y0081118D03*
X0085101Y0077181D03*
X0083132Y0081118D03*
X0079195Y0087024D03*
X0083132Y0089976D03*
X0083132Y0111630D03*
X0123487Y0102772D03*
X0140219Y0089976D03*
X0143172Y0092929D03*
X0151046Y0095882D03*
X0156951Y0101787D03*
X0153998Y0087024D03*
X0156951Y0084071D03*
X0153998Y0081118D03*
X0155967Y0070291D03*
X0168762Y0072260D03*
X0176636Y0067339D03*
X0179589Y0070291D03*
X0187463Y0078165D03*
X0190416Y0081118D03*
X0199274Y0081118D03*
X0193369Y0089976D03*
X0184510Y0095882D03*
X0179589Y0098835D03*
X0176636Y0095882D03*
X0173683Y0092929D03*
X0166794Y0081118D03*
X0165809Y0057496D03*
X0181557Y0049622D03*
X0187463Y0053559D03*
X0190416Y0057496D03*
X0196321Y0069307D03*
X0218959Y0064386D03*
X0230770Y0058480D03*
X0239628Y0061433D03*
X0243565Y0060449D03*
X0236676Y0069307D03*
X0244550Y0072260D03*
X0250455Y0081118D03*
X0254392Y0081118D03*
X0254392Y0089976D03*
X0269156Y0092929D03*
X0278014Y0087024D03*
X0283920Y0081118D03*
X0292778Y0081118D03*
X0307542Y0084071D03*
X0313447Y0084071D03*
X0320337Y0081118D03*
X0325258Y0081118D03*
X0325258Y0089976D03*
X0337069Y0104740D03*
X0338054Y0109661D03*
X0334117Y0109661D03*
X0341006Y0117535D03*
X0338054Y0129346D03*
X0334117Y0131315D03*
X0349865Y0137220D03*
X0349865Y0142142D03*
X0364628Y0141157D03*
X0374471Y0131315D03*
X0377424Y0134268D03*
X0370534Y0106709D03*
X0367581Y0095882D03*
X0370534Y0086039D03*
X0373487Y0083087D03*
X0357739Y0087024D03*
X0349865Y0075213D03*
X0357739Y0072260D03*
X0351833Y0063402D03*
X0343959Y0066354D03*
X0346912Y0051591D03*
X0346912Y0042732D03*
X0346912Y0037811D03*
X0356754Y0032890D03*
X0363644Y0028953D03*
X0366597Y0026000D03*
X0360691Y0020094D03*
X0376439Y0038795D03*
X0379392Y0041748D03*
X0385298Y0032890D03*
X0365613Y0049622D03*
X0368565Y0058480D03*
X0371518Y0066354D03*
X0376439Y0061433D03*
X0379392Y0064386D03*
X0385298Y0064386D03*
X0328211Y0041748D03*
X0319353Y0045685D03*
X0310494Y0049622D03*
X0304589Y0043717D03*
X0307542Y0040764D03*
X0303605Y0049622D03*
X0299668Y0049622D03*
X0313447Y0060449D03*
X0307542Y0063402D03*
X0310494Y0069307D03*
X0299668Y0069307D03*
X0295731Y0069307D03*
X0275061Y0069307D03*
X0272109Y0072260D03*
X0258329Y0067339D03*
X0258329Y0057496D03*
X0244550Y0047654D03*
X0236676Y0049622D03*
X0233723Y0046669D03*
X0239628Y0038795D03*
X0247502Y0036827D03*
X0265219Y0027969D03*
X0268172Y0011236D03*
X0286872Y0021079D03*
X0276046Y0043717D03*
X0245534Y0020094D03*
X0216991Y0033874D03*
X0202227Y0010252D03*
X0178605Y0023047D03*
X0161872Y0033874D03*
X0184510Y0036827D03*
X0184510Y0041748D03*
X0216991Y0080134D03*
X0210101Y0087024D03*
X0210101Y0092929D03*
X0201243Y0106709D03*
X0206164Y0112614D03*
X0219943Y0120488D03*
X0226833Y0132299D03*
X0217975Y0134268D03*
X0242581Y0143126D03*
X0245534Y0151000D03*
X0242581Y0158874D03*
X0264235Y0126394D03*
X0270140Y0119504D03*
X0275061Y0114583D03*
X0288841Y0127378D03*
X0284904Y0134268D03*
X0288841Y0148047D03*
X0286872Y0154937D03*
X0306557Y0140173D03*
X0319353Y0148047D03*
X0313447Y0106709D03*
X0322306Y0064386D03*
X0319353Y0053559D03*
X0325258Y0032890D03*
X0244550Y0106709D03*
X0230770Y0087024D03*
X0226833Y0081118D03*
X0180573Y0145094D03*
X0183526Y0148047D03*
X0182542Y0151984D03*
X0159904Y0174622D03*
X0129392Y0158874D03*
X0120534Y0148047D03*
X0114628Y0158874D03*
X0133329Y0134268D03*
X0129392Y0131315D03*
X0146124Y0126394D03*
X0130376Y0049622D03*
X0116597Y0035843D03*
X0133329Y0032890D03*
X0133329Y0020094D03*
X0048683Y0203165D03*
X0034904Y0233677D03*
X0061479Y0280921D03*
X0094943Y0294701D03*
X0115613Y0280921D03*
X0143172Y0294701D03*
X0166794Y0280921D03*
X0197306Y0294701D03*
X0217975Y0280921D03*
X0242581Y0280921D03*
X0248487Y0294701D03*
X0269156Y0280921D03*
X0299668Y0294701D03*
X0320337Y0280921D03*
X0347896Y0294701D03*
X0352817Y0274031D03*
X0366597Y0261236D03*
X0358723Y0246472D03*
X0367581Y0232693D03*
X0342975Y0230724D03*
X0339038Y0230724D03*
X0313447Y0211039D03*
X0300652Y0230724D03*
X0249471Y0253362D03*
X0220928Y0251394D03*
X0208132Y0248441D03*
X0218959Y0233677D03*
X0217975Y0227772D03*
X0212069Y0220882D03*
X0202227Y0218913D03*
X0203211Y0210055D03*
X0208132Y0205134D03*
X0214038Y0210055D03*
X0218959Y0210055D03*
X0208132Y0232693D03*
X0159904Y0224819D03*
X0133329Y0246472D03*
X0108723Y0224819D03*
X0094943Y0224819D03*
X0378408Y0203165D03*
M02*
