G75*
%MOIN*%
%OFA0B0*%
%FSLAX25Y25*%
%IPPOS*%
%LPD*%
%AMOC8*
5,1,8,0,0,1.08239X$1,22.5*
%
%ADD10C,0.00787*%
%ADD11C,0.00000*%
%ADD12C,0.00600*%
D10*
X0001394Y0195659D02*
X0001394Y0196841D01*
D11*
X0006315Y0199596D02*
X0006317Y0199765D01*
X0006323Y0199934D01*
X0006334Y0200103D01*
X0006348Y0200271D01*
X0006367Y0200439D01*
X0006390Y0200607D01*
X0006416Y0200774D01*
X0006447Y0200940D01*
X0006482Y0201106D01*
X0006521Y0201270D01*
X0006565Y0201434D01*
X0006612Y0201596D01*
X0006663Y0201757D01*
X0006718Y0201917D01*
X0006777Y0202076D01*
X0006839Y0202233D01*
X0006906Y0202388D01*
X0006977Y0202542D01*
X0007051Y0202694D01*
X0007129Y0202844D01*
X0007210Y0202992D01*
X0007295Y0203138D01*
X0007384Y0203282D01*
X0007476Y0203424D01*
X0007572Y0203563D01*
X0007671Y0203700D01*
X0007773Y0203835D01*
X0007879Y0203967D01*
X0007988Y0204096D01*
X0008100Y0204223D01*
X0008215Y0204347D01*
X0008333Y0204468D01*
X0008454Y0204586D01*
X0008578Y0204701D01*
X0008705Y0204813D01*
X0008834Y0204922D01*
X0008966Y0205028D01*
X0009101Y0205130D01*
X0009238Y0205229D01*
X0009377Y0205325D01*
X0009519Y0205417D01*
X0009663Y0205506D01*
X0009809Y0205591D01*
X0009957Y0205672D01*
X0010107Y0205750D01*
X0010259Y0205824D01*
X0010413Y0205895D01*
X0010568Y0205962D01*
X0010725Y0206024D01*
X0010884Y0206083D01*
X0011044Y0206138D01*
X0011205Y0206189D01*
X0011367Y0206236D01*
X0011531Y0206280D01*
X0011695Y0206319D01*
X0011861Y0206354D01*
X0012027Y0206385D01*
X0012194Y0206411D01*
X0012362Y0206434D01*
X0012530Y0206453D01*
X0012698Y0206467D01*
X0012867Y0206478D01*
X0013036Y0206484D01*
X0013205Y0206486D01*
X0013374Y0206484D01*
X0013543Y0206478D01*
X0013712Y0206467D01*
X0013880Y0206453D01*
X0014048Y0206434D01*
X0014216Y0206411D01*
X0014383Y0206385D01*
X0014549Y0206354D01*
X0014715Y0206319D01*
X0014879Y0206280D01*
X0015043Y0206236D01*
X0015205Y0206189D01*
X0015366Y0206138D01*
X0015526Y0206083D01*
X0015685Y0206024D01*
X0015842Y0205962D01*
X0015997Y0205895D01*
X0016151Y0205824D01*
X0016303Y0205750D01*
X0016453Y0205672D01*
X0016601Y0205591D01*
X0016747Y0205506D01*
X0016891Y0205417D01*
X0017033Y0205325D01*
X0017172Y0205229D01*
X0017309Y0205130D01*
X0017444Y0205028D01*
X0017576Y0204922D01*
X0017705Y0204813D01*
X0017832Y0204701D01*
X0017956Y0204586D01*
X0018077Y0204468D01*
X0018195Y0204347D01*
X0018310Y0204223D01*
X0018422Y0204096D01*
X0018531Y0203967D01*
X0018637Y0203835D01*
X0018739Y0203700D01*
X0018838Y0203563D01*
X0018934Y0203424D01*
X0019026Y0203282D01*
X0019115Y0203138D01*
X0019200Y0202992D01*
X0019281Y0202844D01*
X0019359Y0202694D01*
X0019433Y0202542D01*
X0019504Y0202388D01*
X0019571Y0202233D01*
X0019633Y0202076D01*
X0019692Y0201917D01*
X0019747Y0201757D01*
X0019798Y0201596D01*
X0019845Y0201434D01*
X0019889Y0201270D01*
X0019928Y0201106D01*
X0019963Y0200940D01*
X0019994Y0200774D01*
X0020020Y0200607D01*
X0020043Y0200439D01*
X0020062Y0200271D01*
X0020076Y0200103D01*
X0020087Y0199934D01*
X0020093Y0199765D01*
X0020095Y0199596D01*
X0020093Y0199427D01*
X0020087Y0199258D01*
X0020076Y0199089D01*
X0020062Y0198921D01*
X0020043Y0198753D01*
X0020020Y0198585D01*
X0019994Y0198418D01*
X0019963Y0198252D01*
X0019928Y0198086D01*
X0019889Y0197922D01*
X0019845Y0197758D01*
X0019798Y0197596D01*
X0019747Y0197435D01*
X0019692Y0197275D01*
X0019633Y0197116D01*
X0019571Y0196959D01*
X0019504Y0196804D01*
X0019433Y0196650D01*
X0019359Y0196498D01*
X0019281Y0196348D01*
X0019200Y0196200D01*
X0019115Y0196054D01*
X0019026Y0195910D01*
X0018934Y0195768D01*
X0018838Y0195629D01*
X0018739Y0195492D01*
X0018637Y0195357D01*
X0018531Y0195225D01*
X0018422Y0195096D01*
X0018310Y0194969D01*
X0018195Y0194845D01*
X0018077Y0194724D01*
X0017956Y0194606D01*
X0017832Y0194491D01*
X0017705Y0194379D01*
X0017576Y0194270D01*
X0017444Y0194164D01*
X0017309Y0194062D01*
X0017172Y0193963D01*
X0017033Y0193867D01*
X0016891Y0193775D01*
X0016747Y0193686D01*
X0016601Y0193601D01*
X0016453Y0193520D01*
X0016303Y0193442D01*
X0016151Y0193368D01*
X0015997Y0193297D01*
X0015842Y0193230D01*
X0015685Y0193168D01*
X0015526Y0193109D01*
X0015366Y0193054D01*
X0015205Y0193003D01*
X0015043Y0192956D01*
X0014879Y0192912D01*
X0014715Y0192873D01*
X0014549Y0192838D01*
X0014383Y0192807D01*
X0014216Y0192781D01*
X0014048Y0192758D01*
X0013880Y0192739D01*
X0013712Y0192725D01*
X0013543Y0192714D01*
X0013374Y0192708D01*
X0013205Y0192706D01*
X0013036Y0192708D01*
X0012867Y0192714D01*
X0012698Y0192725D01*
X0012530Y0192739D01*
X0012362Y0192758D01*
X0012194Y0192781D01*
X0012027Y0192807D01*
X0011861Y0192838D01*
X0011695Y0192873D01*
X0011531Y0192912D01*
X0011367Y0192956D01*
X0011205Y0193003D01*
X0011044Y0193054D01*
X0010884Y0193109D01*
X0010725Y0193168D01*
X0010568Y0193230D01*
X0010413Y0193297D01*
X0010259Y0193368D01*
X0010107Y0193442D01*
X0009957Y0193520D01*
X0009809Y0193601D01*
X0009663Y0193686D01*
X0009519Y0193775D01*
X0009377Y0193867D01*
X0009238Y0193963D01*
X0009101Y0194062D01*
X0008966Y0194164D01*
X0008834Y0194270D01*
X0008705Y0194379D01*
X0008578Y0194491D01*
X0008454Y0194606D01*
X0008333Y0194724D01*
X0008215Y0194845D01*
X0008100Y0194969D01*
X0007988Y0195096D01*
X0007879Y0195225D01*
X0007773Y0195357D01*
X0007671Y0195492D01*
X0007572Y0195629D01*
X0007476Y0195768D01*
X0007384Y0195910D01*
X0007295Y0196054D01*
X0007210Y0196200D01*
X0007129Y0196348D01*
X0007051Y0196498D01*
X0006977Y0196650D01*
X0006906Y0196804D01*
X0006839Y0196959D01*
X0006777Y0197116D01*
X0006718Y0197275D01*
X0006663Y0197435D01*
X0006612Y0197596D01*
X0006565Y0197758D01*
X0006521Y0197922D01*
X0006482Y0198086D01*
X0006447Y0198252D01*
X0006416Y0198418D01*
X0006390Y0198585D01*
X0006367Y0198753D01*
X0006348Y0198921D01*
X0006334Y0199089D01*
X0006323Y0199258D01*
X0006317Y0199427D01*
X0006315Y0199596D01*
X0049229Y0197785D02*
X0049231Y0197900D01*
X0049237Y0198016D01*
X0049247Y0198131D01*
X0049261Y0198246D01*
X0049279Y0198360D01*
X0049301Y0198473D01*
X0049326Y0198586D01*
X0049356Y0198697D01*
X0049389Y0198808D01*
X0049426Y0198917D01*
X0049467Y0199025D01*
X0049512Y0199132D01*
X0049560Y0199237D01*
X0049612Y0199340D01*
X0049668Y0199441D01*
X0049727Y0199541D01*
X0049789Y0199638D01*
X0049855Y0199733D01*
X0049923Y0199826D01*
X0049995Y0199916D01*
X0050070Y0200004D01*
X0050149Y0200089D01*
X0050230Y0200171D01*
X0050313Y0200251D01*
X0050400Y0200327D01*
X0050489Y0200401D01*
X0050580Y0200471D01*
X0050674Y0200539D01*
X0050770Y0200603D01*
X0050869Y0200663D01*
X0050969Y0200720D01*
X0051071Y0200774D01*
X0051175Y0200824D01*
X0051281Y0200871D01*
X0051388Y0200914D01*
X0051497Y0200953D01*
X0051607Y0200988D01*
X0051718Y0201019D01*
X0051830Y0201047D01*
X0051943Y0201071D01*
X0052057Y0201091D01*
X0052172Y0201107D01*
X0052287Y0201119D01*
X0052402Y0201127D01*
X0052517Y0201131D01*
X0052633Y0201131D01*
X0052748Y0201127D01*
X0052863Y0201119D01*
X0052978Y0201107D01*
X0053093Y0201091D01*
X0053207Y0201071D01*
X0053320Y0201047D01*
X0053432Y0201019D01*
X0053543Y0200988D01*
X0053653Y0200953D01*
X0053762Y0200914D01*
X0053869Y0200871D01*
X0053975Y0200824D01*
X0054079Y0200774D01*
X0054181Y0200720D01*
X0054281Y0200663D01*
X0054380Y0200603D01*
X0054476Y0200539D01*
X0054570Y0200471D01*
X0054661Y0200401D01*
X0054750Y0200327D01*
X0054837Y0200251D01*
X0054920Y0200171D01*
X0055001Y0200089D01*
X0055080Y0200004D01*
X0055155Y0199916D01*
X0055227Y0199826D01*
X0055295Y0199733D01*
X0055361Y0199638D01*
X0055423Y0199541D01*
X0055482Y0199441D01*
X0055538Y0199340D01*
X0055590Y0199237D01*
X0055638Y0199132D01*
X0055683Y0199025D01*
X0055724Y0198917D01*
X0055761Y0198808D01*
X0055794Y0198697D01*
X0055824Y0198586D01*
X0055849Y0198473D01*
X0055871Y0198360D01*
X0055889Y0198246D01*
X0055903Y0198131D01*
X0055913Y0198016D01*
X0055919Y0197900D01*
X0055921Y0197785D01*
X0055919Y0197670D01*
X0055913Y0197554D01*
X0055903Y0197439D01*
X0055889Y0197324D01*
X0055871Y0197210D01*
X0055849Y0197097D01*
X0055824Y0196984D01*
X0055794Y0196873D01*
X0055761Y0196762D01*
X0055724Y0196653D01*
X0055683Y0196545D01*
X0055638Y0196438D01*
X0055590Y0196333D01*
X0055538Y0196230D01*
X0055482Y0196129D01*
X0055423Y0196029D01*
X0055361Y0195932D01*
X0055295Y0195837D01*
X0055227Y0195744D01*
X0055155Y0195654D01*
X0055080Y0195566D01*
X0055001Y0195481D01*
X0054920Y0195399D01*
X0054837Y0195319D01*
X0054750Y0195243D01*
X0054661Y0195169D01*
X0054570Y0195099D01*
X0054476Y0195031D01*
X0054380Y0194967D01*
X0054281Y0194907D01*
X0054181Y0194850D01*
X0054079Y0194796D01*
X0053975Y0194746D01*
X0053869Y0194699D01*
X0053762Y0194656D01*
X0053653Y0194617D01*
X0053543Y0194582D01*
X0053432Y0194551D01*
X0053320Y0194523D01*
X0053207Y0194499D01*
X0053093Y0194479D01*
X0052978Y0194463D01*
X0052863Y0194451D01*
X0052748Y0194443D01*
X0052633Y0194439D01*
X0052517Y0194439D01*
X0052402Y0194443D01*
X0052287Y0194451D01*
X0052172Y0194463D01*
X0052057Y0194479D01*
X0051943Y0194499D01*
X0051830Y0194523D01*
X0051718Y0194551D01*
X0051607Y0194582D01*
X0051497Y0194617D01*
X0051388Y0194656D01*
X0051281Y0194699D01*
X0051175Y0194746D01*
X0051071Y0194796D01*
X0050969Y0194850D01*
X0050869Y0194907D01*
X0050770Y0194967D01*
X0050674Y0195031D01*
X0050580Y0195099D01*
X0050489Y0195169D01*
X0050400Y0195243D01*
X0050313Y0195319D01*
X0050230Y0195399D01*
X0050149Y0195481D01*
X0050070Y0195566D01*
X0049995Y0195654D01*
X0049923Y0195744D01*
X0049855Y0195837D01*
X0049789Y0195932D01*
X0049727Y0196029D01*
X0049668Y0196129D01*
X0049612Y0196230D01*
X0049560Y0196333D01*
X0049512Y0196438D01*
X0049467Y0196545D01*
X0049426Y0196653D01*
X0049389Y0196762D01*
X0049356Y0196873D01*
X0049326Y0196984D01*
X0049301Y0197097D01*
X0049279Y0197210D01*
X0049261Y0197324D01*
X0049247Y0197439D01*
X0049237Y0197554D01*
X0049231Y0197670D01*
X0049229Y0197785D01*
X0092536Y0197785D02*
X0092538Y0197900D01*
X0092544Y0198016D01*
X0092554Y0198131D01*
X0092568Y0198246D01*
X0092586Y0198360D01*
X0092608Y0198473D01*
X0092633Y0198586D01*
X0092663Y0198697D01*
X0092696Y0198808D01*
X0092733Y0198917D01*
X0092774Y0199025D01*
X0092819Y0199132D01*
X0092867Y0199237D01*
X0092919Y0199340D01*
X0092975Y0199441D01*
X0093034Y0199541D01*
X0093096Y0199638D01*
X0093162Y0199733D01*
X0093230Y0199826D01*
X0093302Y0199916D01*
X0093377Y0200004D01*
X0093456Y0200089D01*
X0093537Y0200171D01*
X0093620Y0200251D01*
X0093707Y0200327D01*
X0093796Y0200401D01*
X0093887Y0200471D01*
X0093981Y0200539D01*
X0094077Y0200603D01*
X0094176Y0200663D01*
X0094276Y0200720D01*
X0094378Y0200774D01*
X0094482Y0200824D01*
X0094588Y0200871D01*
X0094695Y0200914D01*
X0094804Y0200953D01*
X0094914Y0200988D01*
X0095025Y0201019D01*
X0095137Y0201047D01*
X0095250Y0201071D01*
X0095364Y0201091D01*
X0095479Y0201107D01*
X0095594Y0201119D01*
X0095709Y0201127D01*
X0095824Y0201131D01*
X0095940Y0201131D01*
X0096055Y0201127D01*
X0096170Y0201119D01*
X0096285Y0201107D01*
X0096400Y0201091D01*
X0096514Y0201071D01*
X0096627Y0201047D01*
X0096739Y0201019D01*
X0096850Y0200988D01*
X0096960Y0200953D01*
X0097069Y0200914D01*
X0097176Y0200871D01*
X0097282Y0200824D01*
X0097386Y0200774D01*
X0097488Y0200720D01*
X0097588Y0200663D01*
X0097687Y0200603D01*
X0097783Y0200539D01*
X0097877Y0200471D01*
X0097968Y0200401D01*
X0098057Y0200327D01*
X0098144Y0200251D01*
X0098227Y0200171D01*
X0098308Y0200089D01*
X0098387Y0200004D01*
X0098462Y0199916D01*
X0098534Y0199826D01*
X0098602Y0199733D01*
X0098668Y0199638D01*
X0098730Y0199541D01*
X0098789Y0199441D01*
X0098845Y0199340D01*
X0098897Y0199237D01*
X0098945Y0199132D01*
X0098990Y0199025D01*
X0099031Y0198917D01*
X0099068Y0198808D01*
X0099101Y0198697D01*
X0099131Y0198586D01*
X0099156Y0198473D01*
X0099178Y0198360D01*
X0099196Y0198246D01*
X0099210Y0198131D01*
X0099220Y0198016D01*
X0099226Y0197900D01*
X0099228Y0197785D01*
X0099226Y0197670D01*
X0099220Y0197554D01*
X0099210Y0197439D01*
X0099196Y0197324D01*
X0099178Y0197210D01*
X0099156Y0197097D01*
X0099131Y0196984D01*
X0099101Y0196873D01*
X0099068Y0196762D01*
X0099031Y0196653D01*
X0098990Y0196545D01*
X0098945Y0196438D01*
X0098897Y0196333D01*
X0098845Y0196230D01*
X0098789Y0196129D01*
X0098730Y0196029D01*
X0098668Y0195932D01*
X0098602Y0195837D01*
X0098534Y0195744D01*
X0098462Y0195654D01*
X0098387Y0195566D01*
X0098308Y0195481D01*
X0098227Y0195399D01*
X0098144Y0195319D01*
X0098057Y0195243D01*
X0097968Y0195169D01*
X0097877Y0195099D01*
X0097783Y0195031D01*
X0097687Y0194967D01*
X0097588Y0194907D01*
X0097488Y0194850D01*
X0097386Y0194796D01*
X0097282Y0194746D01*
X0097176Y0194699D01*
X0097069Y0194656D01*
X0096960Y0194617D01*
X0096850Y0194582D01*
X0096739Y0194551D01*
X0096627Y0194523D01*
X0096514Y0194499D01*
X0096400Y0194479D01*
X0096285Y0194463D01*
X0096170Y0194451D01*
X0096055Y0194443D01*
X0095940Y0194439D01*
X0095824Y0194439D01*
X0095709Y0194443D01*
X0095594Y0194451D01*
X0095479Y0194463D01*
X0095364Y0194479D01*
X0095250Y0194499D01*
X0095137Y0194523D01*
X0095025Y0194551D01*
X0094914Y0194582D01*
X0094804Y0194617D01*
X0094695Y0194656D01*
X0094588Y0194699D01*
X0094482Y0194746D01*
X0094378Y0194796D01*
X0094276Y0194850D01*
X0094176Y0194907D01*
X0094077Y0194967D01*
X0093981Y0195031D01*
X0093887Y0195099D01*
X0093796Y0195169D01*
X0093707Y0195243D01*
X0093620Y0195319D01*
X0093537Y0195399D01*
X0093456Y0195481D01*
X0093377Y0195566D01*
X0093302Y0195654D01*
X0093230Y0195744D01*
X0093162Y0195837D01*
X0093096Y0195932D01*
X0093034Y0196029D01*
X0092975Y0196129D01*
X0092919Y0196230D01*
X0092867Y0196333D01*
X0092819Y0196438D01*
X0092774Y0196545D01*
X0092733Y0196653D01*
X0092696Y0196762D01*
X0092663Y0196873D01*
X0092633Y0196984D01*
X0092608Y0197097D01*
X0092586Y0197210D01*
X0092568Y0197324D01*
X0092554Y0197439D01*
X0092544Y0197554D01*
X0092538Y0197670D01*
X0092536Y0197785D01*
X0135843Y0197785D02*
X0135845Y0197900D01*
X0135851Y0198016D01*
X0135861Y0198131D01*
X0135875Y0198246D01*
X0135893Y0198360D01*
X0135915Y0198473D01*
X0135940Y0198586D01*
X0135970Y0198697D01*
X0136003Y0198808D01*
X0136040Y0198917D01*
X0136081Y0199025D01*
X0136126Y0199132D01*
X0136174Y0199237D01*
X0136226Y0199340D01*
X0136282Y0199441D01*
X0136341Y0199541D01*
X0136403Y0199638D01*
X0136469Y0199733D01*
X0136537Y0199826D01*
X0136609Y0199916D01*
X0136684Y0200004D01*
X0136763Y0200089D01*
X0136844Y0200171D01*
X0136927Y0200251D01*
X0137014Y0200327D01*
X0137103Y0200401D01*
X0137194Y0200471D01*
X0137288Y0200539D01*
X0137384Y0200603D01*
X0137483Y0200663D01*
X0137583Y0200720D01*
X0137685Y0200774D01*
X0137789Y0200824D01*
X0137895Y0200871D01*
X0138002Y0200914D01*
X0138111Y0200953D01*
X0138221Y0200988D01*
X0138332Y0201019D01*
X0138444Y0201047D01*
X0138557Y0201071D01*
X0138671Y0201091D01*
X0138786Y0201107D01*
X0138901Y0201119D01*
X0139016Y0201127D01*
X0139131Y0201131D01*
X0139247Y0201131D01*
X0139362Y0201127D01*
X0139477Y0201119D01*
X0139592Y0201107D01*
X0139707Y0201091D01*
X0139821Y0201071D01*
X0139934Y0201047D01*
X0140046Y0201019D01*
X0140157Y0200988D01*
X0140267Y0200953D01*
X0140376Y0200914D01*
X0140483Y0200871D01*
X0140589Y0200824D01*
X0140693Y0200774D01*
X0140795Y0200720D01*
X0140895Y0200663D01*
X0140994Y0200603D01*
X0141090Y0200539D01*
X0141184Y0200471D01*
X0141275Y0200401D01*
X0141364Y0200327D01*
X0141451Y0200251D01*
X0141534Y0200171D01*
X0141615Y0200089D01*
X0141694Y0200004D01*
X0141769Y0199916D01*
X0141841Y0199826D01*
X0141909Y0199733D01*
X0141975Y0199638D01*
X0142037Y0199541D01*
X0142096Y0199441D01*
X0142152Y0199340D01*
X0142204Y0199237D01*
X0142252Y0199132D01*
X0142297Y0199025D01*
X0142338Y0198917D01*
X0142375Y0198808D01*
X0142408Y0198697D01*
X0142438Y0198586D01*
X0142463Y0198473D01*
X0142485Y0198360D01*
X0142503Y0198246D01*
X0142517Y0198131D01*
X0142527Y0198016D01*
X0142533Y0197900D01*
X0142535Y0197785D01*
X0142533Y0197670D01*
X0142527Y0197554D01*
X0142517Y0197439D01*
X0142503Y0197324D01*
X0142485Y0197210D01*
X0142463Y0197097D01*
X0142438Y0196984D01*
X0142408Y0196873D01*
X0142375Y0196762D01*
X0142338Y0196653D01*
X0142297Y0196545D01*
X0142252Y0196438D01*
X0142204Y0196333D01*
X0142152Y0196230D01*
X0142096Y0196129D01*
X0142037Y0196029D01*
X0141975Y0195932D01*
X0141909Y0195837D01*
X0141841Y0195744D01*
X0141769Y0195654D01*
X0141694Y0195566D01*
X0141615Y0195481D01*
X0141534Y0195399D01*
X0141451Y0195319D01*
X0141364Y0195243D01*
X0141275Y0195169D01*
X0141184Y0195099D01*
X0141090Y0195031D01*
X0140994Y0194967D01*
X0140895Y0194907D01*
X0140795Y0194850D01*
X0140693Y0194796D01*
X0140589Y0194746D01*
X0140483Y0194699D01*
X0140376Y0194656D01*
X0140267Y0194617D01*
X0140157Y0194582D01*
X0140046Y0194551D01*
X0139934Y0194523D01*
X0139821Y0194499D01*
X0139707Y0194479D01*
X0139592Y0194463D01*
X0139477Y0194451D01*
X0139362Y0194443D01*
X0139247Y0194439D01*
X0139131Y0194439D01*
X0139016Y0194443D01*
X0138901Y0194451D01*
X0138786Y0194463D01*
X0138671Y0194479D01*
X0138557Y0194499D01*
X0138444Y0194523D01*
X0138332Y0194551D01*
X0138221Y0194582D01*
X0138111Y0194617D01*
X0138002Y0194656D01*
X0137895Y0194699D01*
X0137789Y0194746D01*
X0137685Y0194796D01*
X0137583Y0194850D01*
X0137483Y0194907D01*
X0137384Y0194967D01*
X0137288Y0195031D01*
X0137194Y0195099D01*
X0137103Y0195169D01*
X0137014Y0195243D01*
X0136927Y0195319D01*
X0136844Y0195399D01*
X0136763Y0195481D01*
X0136684Y0195566D01*
X0136609Y0195654D01*
X0136537Y0195744D01*
X0136469Y0195837D01*
X0136403Y0195932D01*
X0136341Y0196029D01*
X0136282Y0196129D01*
X0136226Y0196230D01*
X0136174Y0196333D01*
X0136126Y0196438D01*
X0136081Y0196545D01*
X0136040Y0196653D01*
X0136003Y0196762D01*
X0135970Y0196873D01*
X0135940Y0196984D01*
X0135915Y0197097D01*
X0135893Y0197210D01*
X0135875Y0197324D01*
X0135861Y0197439D01*
X0135851Y0197554D01*
X0135845Y0197670D01*
X0135843Y0197785D01*
X0179150Y0197785D02*
X0179152Y0197900D01*
X0179158Y0198016D01*
X0179168Y0198131D01*
X0179182Y0198246D01*
X0179200Y0198360D01*
X0179222Y0198473D01*
X0179247Y0198586D01*
X0179277Y0198697D01*
X0179310Y0198808D01*
X0179347Y0198917D01*
X0179388Y0199025D01*
X0179433Y0199132D01*
X0179481Y0199237D01*
X0179533Y0199340D01*
X0179589Y0199441D01*
X0179648Y0199541D01*
X0179710Y0199638D01*
X0179776Y0199733D01*
X0179844Y0199826D01*
X0179916Y0199916D01*
X0179991Y0200004D01*
X0180070Y0200089D01*
X0180151Y0200171D01*
X0180234Y0200251D01*
X0180321Y0200327D01*
X0180410Y0200401D01*
X0180501Y0200471D01*
X0180595Y0200539D01*
X0180691Y0200603D01*
X0180790Y0200663D01*
X0180890Y0200720D01*
X0180992Y0200774D01*
X0181096Y0200824D01*
X0181202Y0200871D01*
X0181309Y0200914D01*
X0181418Y0200953D01*
X0181528Y0200988D01*
X0181639Y0201019D01*
X0181751Y0201047D01*
X0181864Y0201071D01*
X0181978Y0201091D01*
X0182093Y0201107D01*
X0182208Y0201119D01*
X0182323Y0201127D01*
X0182438Y0201131D01*
X0182554Y0201131D01*
X0182669Y0201127D01*
X0182784Y0201119D01*
X0182899Y0201107D01*
X0183014Y0201091D01*
X0183128Y0201071D01*
X0183241Y0201047D01*
X0183353Y0201019D01*
X0183464Y0200988D01*
X0183574Y0200953D01*
X0183683Y0200914D01*
X0183790Y0200871D01*
X0183896Y0200824D01*
X0184000Y0200774D01*
X0184102Y0200720D01*
X0184202Y0200663D01*
X0184301Y0200603D01*
X0184397Y0200539D01*
X0184491Y0200471D01*
X0184582Y0200401D01*
X0184671Y0200327D01*
X0184758Y0200251D01*
X0184841Y0200171D01*
X0184922Y0200089D01*
X0185001Y0200004D01*
X0185076Y0199916D01*
X0185148Y0199826D01*
X0185216Y0199733D01*
X0185282Y0199638D01*
X0185344Y0199541D01*
X0185403Y0199441D01*
X0185459Y0199340D01*
X0185511Y0199237D01*
X0185559Y0199132D01*
X0185604Y0199025D01*
X0185645Y0198917D01*
X0185682Y0198808D01*
X0185715Y0198697D01*
X0185745Y0198586D01*
X0185770Y0198473D01*
X0185792Y0198360D01*
X0185810Y0198246D01*
X0185824Y0198131D01*
X0185834Y0198016D01*
X0185840Y0197900D01*
X0185842Y0197785D01*
X0185840Y0197670D01*
X0185834Y0197554D01*
X0185824Y0197439D01*
X0185810Y0197324D01*
X0185792Y0197210D01*
X0185770Y0197097D01*
X0185745Y0196984D01*
X0185715Y0196873D01*
X0185682Y0196762D01*
X0185645Y0196653D01*
X0185604Y0196545D01*
X0185559Y0196438D01*
X0185511Y0196333D01*
X0185459Y0196230D01*
X0185403Y0196129D01*
X0185344Y0196029D01*
X0185282Y0195932D01*
X0185216Y0195837D01*
X0185148Y0195744D01*
X0185076Y0195654D01*
X0185001Y0195566D01*
X0184922Y0195481D01*
X0184841Y0195399D01*
X0184758Y0195319D01*
X0184671Y0195243D01*
X0184582Y0195169D01*
X0184491Y0195099D01*
X0184397Y0195031D01*
X0184301Y0194967D01*
X0184202Y0194907D01*
X0184102Y0194850D01*
X0184000Y0194796D01*
X0183896Y0194746D01*
X0183790Y0194699D01*
X0183683Y0194656D01*
X0183574Y0194617D01*
X0183464Y0194582D01*
X0183353Y0194551D01*
X0183241Y0194523D01*
X0183128Y0194499D01*
X0183014Y0194479D01*
X0182899Y0194463D01*
X0182784Y0194451D01*
X0182669Y0194443D01*
X0182554Y0194439D01*
X0182438Y0194439D01*
X0182323Y0194443D01*
X0182208Y0194451D01*
X0182093Y0194463D01*
X0181978Y0194479D01*
X0181864Y0194499D01*
X0181751Y0194523D01*
X0181639Y0194551D01*
X0181528Y0194582D01*
X0181418Y0194617D01*
X0181309Y0194656D01*
X0181202Y0194699D01*
X0181096Y0194746D01*
X0180992Y0194796D01*
X0180890Y0194850D01*
X0180790Y0194907D01*
X0180691Y0194967D01*
X0180595Y0195031D01*
X0180501Y0195099D01*
X0180410Y0195169D01*
X0180321Y0195243D01*
X0180234Y0195319D01*
X0180151Y0195399D01*
X0180070Y0195481D01*
X0179991Y0195566D01*
X0179916Y0195654D01*
X0179844Y0195744D01*
X0179776Y0195837D01*
X0179710Y0195932D01*
X0179648Y0196029D01*
X0179589Y0196129D01*
X0179533Y0196230D01*
X0179481Y0196333D01*
X0179433Y0196438D01*
X0179388Y0196545D01*
X0179347Y0196653D01*
X0179310Y0196762D01*
X0179277Y0196873D01*
X0179247Y0196984D01*
X0179222Y0197097D01*
X0179200Y0197210D01*
X0179182Y0197324D01*
X0179168Y0197439D01*
X0179158Y0197554D01*
X0179152Y0197670D01*
X0179150Y0197785D01*
X0222457Y0197785D02*
X0222459Y0197900D01*
X0222465Y0198016D01*
X0222475Y0198131D01*
X0222489Y0198246D01*
X0222507Y0198360D01*
X0222529Y0198473D01*
X0222554Y0198586D01*
X0222584Y0198697D01*
X0222617Y0198808D01*
X0222654Y0198917D01*
X0222695Y0199025D01*
X0222740Y0199132D01*
X0222788Y0199237D01*
X0222840Y0199340D01*
X0222896Y0199441D01*
X0222955Y0199541D01*
X0223017Y0199638D01*
X0223083Y0199733D01*
X0223151Y0199826D01*
X0223223Y0199916D01*
X0223298Y0200004D01*
X0223377Y0200089D01*
X0223458Y0200171D01*
X0223541Y0200251D01*
X0223628Y0200327D01*
X0223717Y0200401D01*
X0223808Y0200471D01*
X0223902Y0200539D01*
X0223998Y0200603D01*
X0224097Y0200663D01*
X0224197Y0200720D01*
X0224299Y0200774D01*
X0224403Y0200824D01*
X0224509Y0200871D01*
X0224616Y0200914D01*
X0224725Y0200953D01*
X0224835Y0200988D01*
X0224946Y0201019D01*
X0225058Y0201047D01*
X0225171Y0201071D01*
X0225285Y0201091D01*
X0225400Y0201107D01*
X0225515Y0201119D01*
X0225630Y0201127D01*
X0225745Y0201131D01*
X0225861Y0201131D01*
X0225976Y0201127D01*
X0226091Y0201119D01*
X0226206Y0201107D01*
X0226321Y0201091D01*
X0226435Y0201071D01*
X0226548Y0201047D01*
X0226660Y0201019D01*
X0226771Y0200988D01*
X0226881Y0200953D01*
X0226990Y0200914D01*
X0227097Y0200871D01*
X0227203Y0200824D01*
X0227307Y0200774D01*
X0227409Y0200720D01*
X0227509Y0200663D01*
X0227608Y0200603D01*
X0227704Y0200539D01*
X0227798Y0200471D01*
X0227889Y0200401D01*
X0227978Y0200327D01*
X0228065Y0200251D01*
X0228148Y0200171D01*
X0228229Y0200089D01*
X0228308Y0200004D01*
X0228383Y0199916D01*
X0228455Y0199826D01*
X0228523Y0199733D01*
X0228589Y0199638D01*
X0228651Y0199541D01*
X0228710Y0199441D01*
X0228766Y0199340D01*
X0228818Y0199237D01*
X0228866Y0199132D01*
X0228911Y0199025D01*
X0228952Y0198917D01*
X0228989Y0198808D01*
X0229022Y0198697D01*
X0229052Y0198586D01*
X0229077Y0198473D01*
X0229099Y0198360D01*
X0229117Y0198246D01*
X0229131Y0198131D01*
X0229141Y0198016D01*
X0229147Y0197900D01*
X0229149Y0197785D01*
X0229147Y0197670D01*
X0229141Y0197554D01*
X0229131Y0197439D01*
X0229117Y0197324D01*
X0229099Y0197210D01*
X0229077Y0197097D01*
X0229052Y0196984D01*
X0229022Y0196873D01*
X0228989Y0196762D01*
X0228952Y0196653D01*
X0228911Y0196545D01*
X0228866Y0196438D01*
X0228818Y0196333D01*
X0228766Y0196230D01*
X0228710Y0196129D01*
X0228651Y0196029D01*
X0228589Y0195932D01*
X0228523Y0195837D01*
X0228455Y0195744D01*
X0228383Y0195654D01*
X0228308Y0195566D01*
X0228229Y0195481D01*
X0228148Y0195399D01*
X0228065Y0195319D01*
X0227978Y0195243D01*
X0227889Y0195169D01*
X0227798Y0195099D01*
X0227704Y0195031D01*
X0227608Y0194967D01*
X0227509Y0194907D01*
X0227409Y0194850D01*
X0227307Y0194796D01*
X0227203Y0194746D01*
X0227097Y0194699D01*
X0226990Y0194656D01*
X0226881Y0194617D01*
X0226771Y0194582D01*
X0226660Y0194551D01*
X0226548Y0194523D01*
X0226435Y0194499D01*
X0226321Y0194479D01*
X0226206Y0194463D01*
X0226091Y0194451D01*
X0225976Y0194443D01*
X0225861Y0194439D01*
X0225745Y0194439D01*
X0225630Y0194443D01*
X0225515Y0194451D01*
X0225400Y0194463D01*
X0225285Y0194479D01*
X0225171Y0194499D01*
X0225058Y0194523D01*
X0224946Y0194551D01*
X0224835Y0194582D01*
X0224725Y0194617D01*
X0224616Y0194656D01*
X0224509Y0194699D01*
X0224403Y0194746D01*
X0224299Y0194796D01*
X0224197Y0194850D01*
X0224097Y0194907D01*
X0223998Y0194967D01*
X0223902Y0195031D01*
X0223808Y0195099D01*
X0223717Y0195169D01*
X0223628Y0195243D01*
X0223541Y0195319D01*
X0223458Y0195399D01*
X0223377Y0195481D01*
X0223298Y0195566D01*
X0223223Y0195654D01*
X0223151Y0195744D01*
X0223083Y0195837D01*
X0223017Y0195932D01*
X0222955Y0196029D01*
X0222896Y0196129D01*
X0222840Y0196230D01*
X0222788Y0196333D01*
X0222740Y0196438D01*
X0222695Y0196545D01*
X0222654Y0196653D01*
X0222617Y0196762D01*
X0222584Y0196873D01*
X0222554Y0196984D01*
X0222529Y0197097D01*
X0222507Y0197210D01*
X0222489Y0197324D01*
X0222475Y0197439D01*
X0222465Y0197554D01*
X0222459Y0197670D01*
X0222457Y0197785D01*
X0265764Y0197785D02*
X0265766Y0197900D01*
X0265772Y0198016D01*
X0265782Y0198131D01*
X0265796Y0198246D01*
X0265814Y0198360D01*
X0265836Y0198473D01*
X0265861Y0198586D01*
X0265891Y0198697D01*
X0265924Y0198808D01*
X0265961Y0198917D01*
X0266002Y0199025D01*
X0266047Y0199132D01*
X0266095Y0199237D01*
X0266147Y0199340D01*
X0266203Y0199441D01*
X0266262Y0199541D01*
X0266324Y0199638D01*
X0266390Y0199733D01*
X0266458Y0199826D01*
X0266530Y0199916D01*
X0266605Y0200004D01*
X0266684Y0200089D01*
X0266765Y0200171D01*
X0266848Y0200251D01*
X0266935Y0200327D01*
X0267024Y0200401D01*
X0267115Y0200471D01*
X0267209Y0200539D01*
X0267305Y0200603D01*
X0267404Y0200663D01*
X0267504Y0200720D01*
X0267606Y0200774D01*
X0267710Y0200824D01*
X0267816Y0200871D01*
X0267923Y0200914D01*
X0268032Y0200953D01*
X0268142Y0200988D01*
X0268253Y0201019D01*
X0268365Y0201047D01*
X0268478Y0201071D01*
X0268592Y0201091D01*
X0268707Y0201107D01*
X0268822Y0201119D01*
X0268937Y0201127D01*
X0269052Y0201131D01*
X0269168Y0201131D01*
X0269283Y0201127D01*
X0269398Y0201119D01*
X0269513Y0201107D01*
X0269628Y0201091D01*
X0269742Y0201071D01*
X0269855Y0201047D01*
X0269967Y0201019D01*
X0270078Y0200988D01*
X0270188Y0200953D01*
X0270297Y0200914D01*
X0270404Y0200871D01*
X0270510Y0200824D01*
X0270614Y0200774D01*
X0270716Y0200720D01*
X0270816Y0200663D01*
X0270915Y0200603D01*
X0271011Y0200539D01*
X0271105Y0200471D01*
X0271196Y0200401D01*
X0271285Y0200327D01*
X0271372Y0200251D01*
X0271455Y0200171D01*
X0271536Y0200089D01*
X0271615Y0200004D01*
X0271690Y0199916D01*
X0271762Y0199826D01*
X0271830Y0199733D01*
X0271896Y0199638D01*
X0271958Y0199541D01*
X0272017Y0199441D01*
X0272073Y0199340D01*
X0272125Y0199237D01*
X0272173Y0199132D01*
X0272218Y0199025D01*
X0272259Y0198917D01*
X0272296Y0198808D01*
X0272329Y0198697D01*
X0272359Y0198586D01*
X0272384Y0198473D01*
X0272406Y0198360D01*
X0272424Y0198246D01*
X0272438Y0198131D01*
X0272448Y0198016D01*
X0272454Y0197900D01*
X0272456Y0197785D01*
X0272454Y0197670D01*
X0272448Y0197554D01*
X0272438Y0197439D01*
X0272424Y0197324D01*
X0272406Y0197210D01*
X0272384Y0197097D01*
X0272359Y0196984D01*
X0272329Y0196873D01*
X0272296Y0196762D01*
X0272259Y0196653D01*
X0272218Y0196545D01*
X0272173Y0196438D01*
X0272125Y0196333D01*
X0272073Y0196230D01*
X0272017Y0196129D01*
X0271958Y0196029D01*
X0271896Y0195932D01*
X0271830Y0195837D01*
X0271762Y0195744D01*
X0271690Y0195654D01*
X0271615Y0195566D01*
X0271536Y0195481D01*
X0271455Y0195399D01*
X0271372Y0195319D01*
X0271285Y0195243D01*
X0271196Y0195169D01*
X0271105Y0195099D01*
X0271011Y0195031D01*
X0270915Y0194967D01*
X0270816Y0194907D01*
X0270716Y0194850D01*
X0270614Y0194796D01*
X0270510Y0194746D01*
X0270404Y0194699D01*
X0270297Y0194656D01*
X0270188Y0194617D01*
X0270078Y0194582D01*
X0269967Y0194551D01*
X0269855Y0194523D01*
X0269742Y0194499D01*
X0269628Y0194479D01*
X0269513Y0194463D01*
X0269398Y0194451D01*
X0269283Y0194443D01*
X0269168Y0194439D01*
X0269052Y0194439D01*
X0268937Y0194443D01*
X0268822Y0194451D01*
X0268707Y0194463D01*
X0268592Y0194479D01*
X0268478Y0194499D01*
X0268365Y0194523D01*
X0268253Y0194551D01*
X0268142Y0194582D01*
X0268032Y0194617D01*
X0267923Y0194656D01*
X0267816Y0194699D01*
X0267710Y0194746D01*
X0267606Y0194796D01*
X0267504Y0194850D01*
X0267404Y0194907D01*
X0267305Y0194967D01*
X0267209Y0195031D01*
X0267115Y0195099D01*
X0267024Y0195169D01*
X0266935Y0195243D01*
X0266848Y0195319D01*
X0266765Y0195399D01*
X0266684Y0195481D01*
X0266605Y0195566D01*
X0266530Y0195654D01*
X0266458Y0195744D01*
X0266390Y0195837D01*
X0266324Y0195932D01*
X0266262Y0196029D01*
X0266203Y0196129D01*
X0266147Y0196230D01*
X0266095Y0196333D01*
X0266047Y0196438D01*
X0266002Y0196545D01*
X0265961Y0196653D01*
X0265924Y0196762D01*
X0265891Y0196873D01*
X0265861Y0196984D01*
X0265836Y0197097D01*
X0265814Y0197210D01*
X0265796Y0197324D01*
X0265782Y0197439D01*
X0265772Y0197554D01*
X0265766Y0197670D01*
X0265764Y0197785D01*
X0311906Y0197470D02*
X0311908Y0197585D01*
X0311914Y0197701D01*
X0311924Y0197816D01*
X0311938Y0197931D01*
X0311956Y0198045D01*
X0311978Y0198158D01*
X0312003Y0198271D01*
X0312033Y0198382D01*
X0312066Y0198493D01*
X0312103Y0198602D01*
X0312144Y0198710D01*
X0312189Y0198817D01*
X0312237Y0198922D01*
X0312289Y0199025D01*
X0312345Y0199126D01*
X0312404Y0199226D01*
X0312466Y0199323D01*
X0312532Y0199418D01*
X0312600Y0199511D01*
X0312672Y0199601D01*
X0312747Y0199689D01*
X0312826Y0199774D01*
X0312907Y0199856D01*
X0312990Y0199936D01*
X0313077Y0200012D01*
X0313166Y0200086D01*
X0313257Y0200156D01*
X0313351Y0200224D01*
X0313447Y0200288D01*
X0313546Y0200348D01*
X0313646Y0200405D01*
X0313748Y0200459D01*
X0313852Y0200509D01*
X0313958Y0200556D01*
X0314065Y0200599D01*
X0314174Y0200638D01*
X0314284Y0200673D01*
X0314395Y0200704D01*
X0314507Y0200732D01*
X0314620Y0200756D01*
X0314734Y0200776D01*
X0314849Y0200792D01*
X0314964Y0200804D01*
X0315079Y0200812D01*
X0315194Y0200816D01*
X0315310Y0200816D01*
X0315425Y0200812D01*
X0315540Y0200804D01*
X0315655Y0200792D01*
X0315770Y0200776D01*
X0315884Y0200756D01*
X0315997Y0200732D01*
X0316109Y0200704D01*
X0316220Y0200673D01*
X0316330Y0200638D01*
X0316439Y0200599D01*
X0316546Y0200556D01*
X0316652Y0200509D01*
X0316756Y0200459D01*
X0316858Y0200405D01*
X0316958Y0200348D01*
X0317057Y0200288D01*
X0317153Y0200224D01*
X0317247Y0200156D01*
X0317338Y0200086D01*
X0317427Y0200012D01*
X0317514Y0199936D01*
X0317597Y0199856D01*
X0317678Y0199774D01*
X0317757Y0199689D01*
X0317832Y0199601D01*
X0317904Y0199511D01*
X0317972Y0199418D01*
X0318038Y0199323D01*
X0318100Y0199226D01*
X0318159Y0199126D01*
X0318215Y0199025D01*
X0318267Y0198922D01*
X0318315Y0198817D01*
X0318360Y0198710D01*
X0318401Y0198602D01*
X0318438Y0198493D01*
X0318471Y0198382D01*
X0318501Y0198271D01*
X0318526Y0198158D01*
X0318548Y0198045D01*
X0318566Y0197931D01*
X0318580Y0197816D01*
X0318590Y0197701D01*
X0318596Y0197585D01*
X0318598Y0197470D01*
X0318596Y0197355D01*
X0318590Y0197239D01*
X0318580Y0197124D01*
X0318566Y0197009D01*
X0318548Y0196895D01*
X0318526Y0196782D01*
X0318501Y0196669D01*
X0318471Y0196558D01*
X0318438Y0196447D01*
X0318401Y0196338D01*
X0318360Y0196230D01*
X0318315Y0196123D01*
X0318267Y0196018D01*
X0318215Y0195915D01*
X0318159Y0195814D01*
X0318100Y0195714D01*
X0318038Y0195617D01*
X0317972Y0195522D01*
X0317904Y0195429D01*
X0317832Y0195339D01*
X0317757Y0195251D01*
X0317678Y0195166D01*
X0317597Y0195084D01*
X0317514Y0195004D01*
X0317427Y0194928D01*
X0317338Y0194854D01*
X0317247Y0194784D01*
X0317153Y0194716D01*
X0317057Y0194652D01*
X0316958Y0194592D01*
X0316858Y0194535D01*
X0316756Y0194481D01*
X0316652Y0194431D01*
X0316546Y0194384D01*
X0316439Y0194341D01*
X0316330Y0194302D01*
X0316220Y0194267D01*
X0316109Y0194236D01*
X0315997Y0194208D01*
X0315884Y0194184D01*
X0315770Y0194164D01*
X0315655Y0194148D01*
X0315540Y0194136D01*
X0315425Y0194128D01*
X0315310Y0194124D01*
X0315194Y0194124D01*
X0315079Y0194128D01*
X0314964Y0194136D01*
X0314849Y0194148D01*
X0314734Y0194164D01*
X0314620Y0194184D01*
X0314507Y0194208D01*
X0314395Y0194236D01*
X0314284Y0194267D01*
X0314174Y0194302D01*
X0314065Y0194341D01*
X0313958Y0194384D01*
X0313852Y0194431D01*
X0313748Y0194481D01*
X0313646Y0194535D01*
X0313546Y0194592D01*
X0313447Y0194652D01*
X0313351Y0194716D01*
X0313257Y0194784D01*
X0313166Y0194854D01*
X0313077Y0194928D01*
X0312990Y0195004D01*
X0312907Y0195084D01*
X0312826Y0195166D01*
X0312747Y0195251D01*
X0312672Y0195339D01*
X0312600Y0195429D01*
X0312532Y0195522D01*
X0312466Y0195617D01*
X0312404Y0195714D01*
X0312345Y0195814D01*
X0312289Y0195915D01*
X0312237Y0196018D01*
X0312189Y0196123D01*
X0312144Y0196230D01*
X0312103Y0196338D01*
X0312066Y0196447D01*
X0312033Y0196558D01*
X0312003Y0196669D01*
X0311978Y0196782D01*
X0311956Y0196895D01*
X0311938Y0197009D01*
X0311924Y0197124D01*
X0311914Y0197239D01*
X0311908Y0197355D01*
X0311906Y0197470D01*
X0311906Y0169911D02*
X0311908Y0170026D01*
X0311914Y0170142D01*
X0311924Y0170257D01*
X0311938Y0170372D01*
X0311956Y0170486D01*
X0311978Y0170599D01*
X0312003Y0170712D01*
X0312033Y0170823D01*
X0312066Y0170934D01*
X0312103Y0171043D01*
X0312144Y0171151D01*
X0312189Y0171258D01*
X0312237Y0171363D01*
X0312289Y0171466D01*
X0312345Y0171567D01*
X0312404Y0171667D01*
X0312466Y0171764D01*
X0312532Y0171859D01*
X0312600Y0171952D01*
X0312672Y0172042D01*
X0312747Y0172130D01*
X0312826Y0172215D01*
X0312907Y0172297D01*
X0312990Y0172377D01*
X0313077Y0172453D01*
X0313166Y0172527D01*
X0313257Y0172597D01*
X0313351Y0172665D01*
X0313447Y0172729D01*
X0313546Y0172789D01*
X0313646Y0172846D01*
X0313748Y0172900D01*
X0313852Y0172950D01*
X0313958Y0172997D01*
X0314065Y0173040D01*
X0314174Y0173079D01*
X0314284Y0173114D01*
X0314395Y0173145D01*
X0314507Y0173173D01*
X0314620Y0173197D01*
X0314734Y0173217D01*
X0314849Y0173233D01*
X0314964Y0173245D01*
X0315079Y0173253D01*
X0315194Y0173257D01*
X0315310Y0173257D01*
X0315425Y0173253D01*
X0315540Y0173245D01*
X0315655Y0173233D01*
X0315770Y0173217D01*
X0315884Y0173197D01*
X0315997Y0173173D01*
X0316109Y0173145D01*
X0316220Y0173114D01*
X0316330Y0173079D01*
X0316439Y0173040D01*
X0316546Y0172997D01*
X0316652Y0172950D01*
X0316756Y0172900D01*
X0316858Y0172846D01*
X0316958Y0172789D01*
X0317057Y0172729D01*
X0317153Y0172665D01*
X0317247Y0172597D01*
X0317338Y0172527D01*
X0317427Y0172453D01*
X0317514Y0172377D01*
X0317597Y0172297D01*
X0317678Y0172215D01*
X0317757Y0172130D01*
X0317832Y0172042D01*
X0317904Y0171952D01*
X0317972Y0171859D01*
X0318038Y0171764D01*
X0318100Y0171667D01*
X0318159Y0171567D01*
X0318215Y0171466D01*
X0318267Y0171363D01*
X0318315Y0171258D01*
X0318360Y0171151D01*
X0318401Y0171043D01*
X0318438Y0170934D01*
X0318471Y0170823D01*
X0318501Y0170712D01*
X0318526Y0170599D01*
X0318548Y0170486D01*
X0318566Y0170372D01*
X0318580Y0170257D01*
X0318590Y0170142D01*
X0318596Y0170026D01*
X0318598Y0169911D01*
X0318596Y0169796D01*
X0318590Y0169680D01*
X0318580Y0169565D01*
X0318566Y0169450D01*
X0318548Y0169336D01*
X0318526Y0169223D01*
X0318501Y0169110D01*
X0318471Y0168999D01*
X0318438Y0168888D01*
X0318401Y0168779D01*
X0318360Y0168671D01*
X0318315Y0168564D01*
X0318267Y0168459D01*
X0318215Y0168356D01*
X0318159Y0168255D01*
X0318100Y0168155D01*
X0318038Y0168058D01*
X0317972Y0167963D01*
X0317904Y0167870D01*
X0317832Y0167780D01*
X0317757Y0167692D01*
X0317678Y0167607D01*
X0317597Y0167525D01*
X0317514Y0167445D01*
X0317427Y0167369D01*
X0317338Y0167295D01*
X0317247Y0167225D01*
X0317153Y0167157D01*
X0317057Y0167093D01*
X0316958Y0167033D01*
X0316858Y0166976D01*
X0316756Y0166922D01*
X0316652Y0166872D01*
X0316546Y0166825D01*
X0316439Y0166782D01*
X0316330Y0166743D01*
X0316220Y0166708D01*
X0316109Y0166677D01*
X0315997Y0166649D01*
X0315884Y0166625D01*
X0315770Y0166605D01*
X0315655Y0166589D01*
X0315540Y0166577D01*
X0315425Y0166569D01*
X0315310Y0166565D01*
X0315194Y0166565D01*
X0315079Y0166569D01*
X0314964Y0166577D01*
X0314849Y0166589D01*
X0314734Y0166605D01*
X0314620Y0166625D01*
X0314507Y0166649D01*
X0314395Y0166677D01*
X0314284Y0166708D01*
X0314174Y0166743D01*
X0314065Y0166782D01*
X0313958Y0166825D01*
X0313852Y0166872D01*
X0313748Y0166922D01*
X0313646Y0166976D01*
X0313546Y0167033D01*
X0313447Y0167093D01*
X0313351Y0167157D01*
X0313257Y0167225D01*
X0313166Y0167295D01*
X0313077Y0167369D01*
X0312990Y0167445D01*
X0312907Y0167525D01*
X0312826Y0167607D01*
X0312747Y0167692D01*
X0312672Y0167780D01*
X0312600Y0167870D01*
X0312532Y0167963D01*
X0312466Y0168058D01*
X0312404Y0168155D01*
X0312345Y0168255D01*
X0312289Y0168356D01*
X0312237Y0168459D01*
X0312189Y0168564D01*
X0312144Y0168671D01*
X0312103Y0168779D01*
X0312066Y0168888D01*
X0312033Y0168999D01*
X0312003Y0169110D01*
X0311978Y0169223D01*
X0311956Y0169336D01*
X0311938Y0169450D01*
X0311924Y0169565D01*
X0311914Y0169680D01*
X0311908Y0169796D01*
X0311906Y0169911D01*
X0265764Y0170226D02*
X0265766Y0170341D01*
X0265772Y0170457D01*
X0265782Y0170572D01*
X0265796Y0170687D01*
X0265814Y0170801D01*
X0265836Y0170914D01*
X0265861Y0171027D01*
X0265891Y0171138D01*
X0265924Y0171249D01*
X0265961Y0171358D01*
X0266002Y0171466D01*
X0266047Y0171573D01*
X0266095Y0171678D01*
X0266147Y0171781D01*
X0266203Y0171882D01*
X0266262Y0171982D01*
X0266324Y0172079D01*
X0266390Y0172174D01*
X0266458Y0172267D01*
X0266530Y0172357D01*
X0266605Y0172445D01*
X0266684Y0172530D01*
X0266765Y0172612D01*
X0266848Y0172692D01*
X0266935Y0172768D01*
X0267024Y0172842D01*
X0267115Y0172912D01*
X0267209Y0172980D01*
X0267305Y0173044D01*
X0267404Y0173104D01*
X0267504Y0173161D01*
X0267606Y0173215D01*
X0267710Y0173265D01*
X0267816Y0173312D01*
X0267923Y0173355D01*
X0268032Y0173394D01*
X0268142Y0173429D01*
X0268253Y0173460D01*
X0268365Y0173488D01*
X0268478Y0173512D01*
X0268592Y0173532D01*
X0268707Y0173548D01*
X0268822Y0173560D01*
X0268937Y0173568D01*
X0269052Y0173572D01*
X0269168Y0173572D01*
X0269283Y0173568D01*
X0269398Y0173560D01*
X0269513Y0173548D01*
X0269628Y0173532D01*
X0269742Y0173512D01*
X0269855Y0173488D01*
X0269967Y0173460D01*
X0270078Y0173429D01*
X0270188Y0173394D01*
X0270297Y0173355D01*
X0270404Y0173312D01*
X0270510Y0173265D01*
X0270614Y0173215D01*
X0270716Y0173161D01*
X0270816Y0173104D01*
X0270915Y0173044D01*
X0271011Y0172980D01*
X0271105Y0172912D01*
X0271196Y0172842D01*
X0271285Y0172768D01*
X0271372Y0172692D01*
X0271455Y0172612D01*
X0271536Y0172530D01*
X0271615Y0172445D01*
X0271690Y0172357D01*
X0271762Y0172267D01*
X0271830Y0172174D01*
X0271896Y0172079D01*
X0271958Y0171982D01*
X0272017Y0171882D01*
X0272073Y0171781D01*
X0272125Y0171678D01*
X0272173Y0171573D01*
X0272218Y0171466D01*
X0272259Y0171358D01*
X0272296Y0171249D01*
X0272329Y0171138D01*
X0272359Y0171027D01*
X0272384Y0170914D01*
X0272406Y0170801D01*
X0272424Y0170687D01*
X0272438Y0170572D01*
X0272448Y0170457D01*
X0272454Y0170341D01*
X0272456Y0170226D01*
X0272454Y0170111D01*
X0272448Y0169995D01*
X0272438Y0169880D01*
X0272424Y0169765D01*
X0272406Y0169651D01*
X0272384Y0169538D01*
X0272359Y0169425D01*
X0272329Y0169314D01*
X0272296Y0169203D01*
X0272259Y0169094D01*
X0272218Y0168986D01*
X0272173Y0168879D01*
X0272125Y0168774D01*
X0272073Y0168671D01*
X0272017Y0168570D01*
X0271958Y0168470D01*
X0271896Y0168373D01*
X0271830Y0168278D01*
X0271762Y0168185D01*
X0271690Y0168095D01*
X0271615Y0168007D01*
X0271536Y0167922D01*
X0271455Y0167840D01*
X0271372Y0167760D01*
X0271285Y0167684D01*
X0271196Y0167610D01*
X0271105Y0167540D01*
X0271011Y0167472D01*
X0270915Y0167408D01*
X0270816Y0167348D01*
X0270716Y0167291D01*
X0270614Y0167237D01*
X0270510Y0167187D01*
X0270404Y0167140D01*
X0270297Y0167097D01*
X0270188Y0167058D01*
X0270078Y0167023D01*
X0269967Y0166992D01*
X0269855Y0166964D01*
X0269742Y0166940D01*
X0269628Y0166920D01*
X0269513Y0166904D01*
X0269398Y0166892D01*
X0269283Y0166884D01*
X0269168Y0166880D01*
X0269052Y0166880D01*
X0268937Y0166884D01*
X0268822Y0166892D01*
X0268707Y0166904D01*
X0268592Y0166920D01*
X0268478Y0166940D01*
X0268365Y0166964D01*
X0268253Y0166992D01*
X0268142Y0167023D01*
X0268032Y0167058D01*
X0267923Y0167097D01*
X0267816Y0167140D01*
X0267710Y0167187D01*
X0267606Y0167237D01*
X0267504Y0167291D01*
X0267404Y0167348D01*
X0267305Y0167408D01*
X0267209Y0167472D01*
X0267115Y0167540D01*
X0267024Y0167610D01*
X0266935Y0167684D01*
X0266848Y0167760D01*
X0266765Y0167840D01*
X0266684Y0167922D01*
X0266605Y0168007D01*
X0266530Y0168095D01*
X0266458Y0168185D01*
X0266390Y0168278D01*
X0266324Y0168373D01*
X0266262Y0168470D01*
X0266203Y0168570D01*
X0266147Y0168671D01*
X0266095Y0168774D01*
X0266047Y0168879D01*
X0266002Y0168986D01*
X0265961Y0169094D01*
X0265924Y0169203D01*
X0265891Y0169314D01*
X0265861Y0169425D01*
X0265836Y0169538D01*
X0265814Y0169651D01*
X0265796Y0169765D01*
X0265782Y0169880D01*
X0265772Y0169995D01*
X0265766Y0170111D01*
X0265764Y0170226D01*
X0222457Y0170226D02*
X0222459Y0170341D01*
X0222465Y0170457D01*
X0222475Y0170572D01*
X0222489Y0170687D01*
X0222507Y0170801D01*
X0222529Y0170914D01*
X0222554Y0171027D01*
X0222584Y0171138D01*
X0222617Y0171249D01*
X0222654Y0171358D01*
X0222695Y0171466D01*
X0222740Y0171573D01*
X0222788Y0171678D01*
X0222840Y0171781D01*
X0222896Y0171882D01*
X0222955Y0171982D01*
X0223017Y0172079D01*
X0223083Y0172174D01*
X0223151Y0172267D01*
X0223223Y0172357D01*
X0223298Y0172445D01*
X0223377Y0172530D01*
X0223458Y0172612D01*
X0223541Y0172692D01*
X0223628Y0172768D01*
X0223717Y0172842D01*
X0223808Y0172912D01*
X0223902Y0172980D01*
X0223998Y0173044D01*
X0224097Y0173104D01*
X0224197Y0173161D01*
X0224299Y0173215D01*
X0224403Y0173265D01*
X0224509Y0173312D01*
X0224616Y0173355D01*
X0224725Y0173394D01*
X0224835Y0173429D01*
X0224946Y0173460D01*
X0225058Y0173488D01*
X0225171Y0173512D01*
X0225285Y0173532D01*
X0225400Y0173548D01*
X0225515Y0173560D01*
X0225630Y0173568D01*
X0225745Y0173572D01*
X0225861Y0173572D01*
X0225976Y0173568D01*
X0226091Y0173560D01*
X0226206Y0173548D01*
X0226321Y0173532D01*
X0226435Y0173512D01*
X0226548Y0173488D01*
X0226660Y0173460D01*
X0226771Y0173429D01*
X0226881Y0173394D01*
X0226990Y0173355D01*
X0227097Y0173312D01*
X0227203Y0173265D01*
X0227307Y0173215D01*
X0227409Y0173161D01*
X0227509Y0173104D01*
X0227608Y0173044D01*
X0227704Y0172980D01*
X0227798Y0172912D01*
X0227889Y0172842D01*
X0227978Y0172768D01*
X0228065Y0172692D01*
X0228148Y0172612D01*
X0228229Y0172530D01*
X0228308Y0172445D01*
X0228383Y0172357D01*
X0228455Y0172267D01*
X0228523Y0172174D01*
X0228589Y0172079D01*
X0228651Y0171982D01*
X0228710Y0171882D01*
X0228766Y0171781D01*
X0228818Y0171678D01*
X0228866Y0171573D01*
X0228911Y0171466D01*
X0228952Y0171358D01*
X0228989Y0171249D01*
X0229022Y0171138D01*
X0229052Y0171027D01*
X0229077Y0170914D01*
X0229099Y0170801D01*
X0229117Y0170687D01*
X0229131Y0170572D01*
X0229141Y0170457D01*
X0229147Y0170341D01*
X0229149Y0170226D01*
X0229147Y0170111D01*
X0229141Y0169995D01*
X0229131Y0169880D01*
X0229117Y0169765D01*
X0229099Y0169651D01*
X0229077Y0169538D01*
X0229052Y0169425D01*
X0229022Y0169314D01*
X0228989Y0169203D01*
X0228952Y0169094D01*
X0228911Y0168986D01*
X0228866Y0168879D01*
X0228818Y0168774D01*
X0228766Y0168671D01*
X0228710Y0168570D01*
X0228651Y0168470D01*
X0228589Y0168373D01*
X0228523Y0168278D01*
X0228455Y0168185D01*
X0228383Y0168095D01*
X0228308Y0168007D01*
X0228229Y0167922D01*
X0228148Y0167840D01*
X0228065Y0167760D01*
X0227978Y0167684D01*
X0227889Y0167610D01*
X0227798Y0167540D01*
X0227704Y0167472D01*
X0227608Y0167408D01*
X0227509Y0167348D01*
X0227409Y0167291D01*
X0227307Y0167237D01*
X0227203Y0167187D01*
X0227097Y0167140D01*
X0226990Y0167097D01*
X0226881Y0167058D01*
X0226771Y0167023D01*
X0226660Y0166992D01*
X0226548Y0166964D01*
X0226435Y0166940D01*
X0226321Y0166920D01*
X0226206Y0166904D01*
X0226091Y0166892D01*
X0225976Y0166884D01*
X0225861Y0166880D01*
X0225745Y0166880D01*
X0225630Y0166884D01*
X0225515Y0166892D01*
X0225400Y0166904D01*
X0225285Y0166920D01*
X0225171Y0166940D01*
X0225058Y0166964D01*
X0224946Y0166992D01*
X0224835Y0167023D01*
X0224725Y0167058D01*
X0224616Y0167097D01*
X0224509Y0167140D01*
X0224403Y0167187D01*
X0224299Y0167237D01*
X0224197Y0167291D01*
X0224097Y0167348D01*
X0223998Y0167408D01*
X0223902Y0167472D01*
X0223808Y0167540D01*
X0223717Y0167610D01*
X0223628Y0167684D01*
X0223541Y0167760D01*
X0223458Y0167840D01*
X0223377Y0167922D01*
X0223298Y0168007D01*
X0223223Y0168095D01*
X0223151Y0168185D01*
X0223083Y0168278D01*
X0223017Y0168373D01*
X0222955Y0168470D01*
X0222896Y0168570D01*
X0222840Y0168671D01*
X0222788Y0168774D01*
X0222740Y0168879D01*
X0222695Y0168986D01*
X0222654Y0169094D01*
X0222617Y0169203D01*
X0222584Y0169314D01*
X0222554Y0169425D01*
X0222529Y0169538D01*
X0222507Y0169651D01*
X0222489Y0169765D01*
X0222475Y0169880D01*
X0222465Y0169995D01*
X0222459Y0170111D01*
X0222457Y0170226D01*
X0179150Y0170226D02*
X0179152Y0170341D01*
X0179158Y0170457D01*
X0179168Y0170572D01*
X0179182Y0170687D01*
X0179200Y0170801D01*
X0179222Y0170914D01*
X0179247Y0171027D01*
X0179277Y0171138D01*
X0179310Y0171249D01*
X0179347Y0171358D01*
X0179388Y0171466D01*
X0179433Y0171573D01*
X0179481Y0171678D01*
X0179533Y0171781D01*
X0179589Y0171882D01*
X0179648Y0171982D01*
X0179710Y0172079D01*
X0179776Y0172174D01*
X0179844Y0172267D01*
X0179916Y0172357D01*
X0179991Y0172445D01*
X0180070Y0172530D01*
X0180151Y0172612D01*
X0180234Y0172692D01*
X0180321Y0172768D01*
X0180410Y0172842D01*
X0180501Y0172912D01*
X0180595Y0172980D01*
X0180691Y0173044D01*
X0180790Y0173104D01*
X0180890Y0173161D01*
X0180992Y0173215D01*
X0181096Y0173265D01*
X0181202Y0173312D01*
X0181309Y0173355D01*
X0181418Y0173394D01*
X0181528Y0173429D01*
X0181639Y0173460D01*
X0181751Y0173488D01*
X0181864Y0173512D01*
X0181978Y0173532D01*
X0182093Y0173548D01*
X0182208Y0173560D01*
X0182323Y0173568D01*
X0182438Y0173572D01*
X0182554Y0173572D01*
X0182669Y0173568D01*
X0182784Y0173560D01*
X0182899Y0173548D01*
X0183014Y0173532D01*
X0183128Y0173512D01*
X0183241Y0173488D01*
X0183353Y0173460D01*
X0183464Y0173429D01*
X0183574Y0173394D01*
X0183683Y0173355D01*
X0183790Y0173312D01*
X0183896Y0173265D01*
X0184000Y0173215D01*
X0184102Y0173161D01*
X0184202Y0173104D01*
X0184301Y0173044D01*
X0184397Y0172980D01*
X0184491Y0172912D01*
X0184582Y0172842D01*
X0184671Y0172768D01*
X0184758Y0172692D01*
X0184841Y0172612D01*
X0184922Y0172530D01*
X0185001Y0172445D01*
X0185076Y0172357D01*
X0185148Y0172267D01*
X0185216Y0172174D01*
X0185282Y0172079D01*
X0185344Y0171982D01*
X0185403Y0171882D01*
X0185459Y0171781D01*
X0185511Y0171678D01*
X0185559Y0171573D01*
X0185604Y0171466D01*
X0185645Y0171358D01*
X0185682Y0171249D01*
X0185715Y0171138D01*
X0185745Y0171027D01*
X0185770Y0170914D01*
X0185792Y0170801D01*
X0185810Y0170687D01*
X0185824Y0170572D01*
X0185834Y0170457D01*
X0185840Y0170341D01*
X0185842Y0170226D01*
X0185840Y0170111D01*
X0185834Y0169995D01*
X0185824Y0169880D01*
X0185810Y0169765D01*
X0185792Y0169651D01*
X0185770Y0169538D01*
X0185745Y0169425D01*
X0185715Y0169314D01*
X0185682Y0169203D01*
X0185645Y0169094D01*
X0185604Y0168986D01*
X0185559Y0168879D01*
X0185511Y0168774D01*
X0185459Y0168671D01*
X0185403Y0168570D01*
X0185344Y0168470D01*
X0185282Y0168373D01*
X0185216Y0168278D01*
X0185148Y0168185D01*
X0185076Y0168095D01*
X0185001Y0168007D01*
X0184922Y0167922D01*
X0184841Y0167840D01*
X0184758Y0167760D01*
X0184671Y0167684D01*
X0184582Y0167610D01*
X0184491Y0167540D01*
X0184397Y0167472D01*
X0184301Y0167408D01*
X0184202Y0167348D01*
X0184102Y0167291D01*
X0184000Y0167237D01*
X0183896Y0167187D01*
X0183790Y0167140D01*
X0183683Y0167097D01*
X0183574Y0167058D01*
X0183464Y0167023D01*
X0183353Y0166992D01*
X0183241Y0166964D01*
X0183128Y0166940D01*
X0183014Y0166920D01*
X0182899Y0166904D01*
X0182784Y0166892D01*
X0182669Y0166884D01*
X0182554Y0166880D01*
X0182438Y0166880D01*
X0182323Y0166884D01*
X0182208Y0166892D01*
X0182093Y0166904D01*
X0181978Y0166920D01*
X0181864Y0166940D01*
X0181751Y0166964D01*
X0181639Y0166992D01*
X0181528Y0167023D01*
X0181418Y0167058D01*
X0181309Y0167097D01*
X0181202Y0167140D01*
X0181096Y0167187D01*
X0180992Y0167237D01*
X0180890Y0167291D01*
X0180790Y0167348D01*
X0180691Y0167408D01*
X0180595Y0167472D01*
X0180501Y0167540D01*
X0180410Y0167610D01*
X0180321Y0167684D01*
X0180234Y0167760D01*
X0180151Y0167840D01*
X0180070Y0167922D01*
X0179991Y0168007D01*
X0179916Y0168095D01*
X0179844Y0168185D01*
X0179776Y0168278D01*
X0179710Y0168373D01*
X0179648Y0168470D01*
X0179589Y0168570D01*
X0179533Y0168671D01*
X0179481Y0168774D01*
X0179433Y0168879D01*
X0179388Y0168986D01*
X0179347Y0169094D01*
X0179310Y0169203D01*
X0179277Y0169314D01*
X0179247Y0169425D01*
X0179222Y0169538D01*
X0179200Y0169651D01*
X0179182Y0169765D01*
X0179168Y0169880D01*
X0179158Y0169995D01*
X0179152Y0170111D01*
X0179150Y0170226D01*
X0135843Y0170226D02*
X0135845Y0170341D01*
X0135851Y0170457D01*
X0135861Y0170572D01*
X0135875Y0170687D01*
X0135893Y0170801D01*
X0135915Y0170914D01*
X0135940Y0171027D01*
X0135970Y0171138D01*
X0136003Y0171249D01*
X0136040Y0171358D01*
X0136081Y0171466D01*
X0136126Y0171573D01*
X0136174Y0171678D01*
X0136226Y0171781D01*
X0136282Y0171882D01*
X0136341Y0171982D01*
X0136403Y0172079D01*
X0136469Y0172174D01*
X0136537Y0172267D01*
X0136609Y0172357D01*
X0136684Y0172445D01*
X0136763Y0172530D01*
X0136844Y0172612D01*
X0136927Y0172692D01*
X0137014Y0172768D01*
X0137103Y0172842D01*
X0137194Y0172912D01*
X0137288Y0172980D01*
X0137384Y0173044D01*
X0137483Y0173104D01*
X0137583Y0173161D01*
X0137685Y0173215D01*
X0137789Y0173265D01*
X0137895Y0173312D01*
X0138002Y0173355D01*
X0138111Y0173394D01*
X0138221Y0173429D01*
X0138332Y0173460D01*
X0138444Y0173488D01*
X0138557Y0173512D01*
X0138671Y0173532D01*
X0138786Y0173548D01*
X0138901Y0173560D01*
X0139016Y0173568D01*
X0139131Y0173572D01*
X0139247Y0173572D01*
X0139362Y0173568D01*
X0139477Y0173560D01*
X0139592Y0173548D01*
X0139707Y0173532D01*
X0139821Y0173512D01*
X0139934Y0173488D01*
X0140046Y0173460D01*
X0140157Y0173429D01*
X0140267Y0173394D01*
X0140376Y0173355D01*
X0140483Y0173312D01*
X0140589Y0173265D01*
X0140693Y0173215D01*
X0140795Y0173161D01*
X0140895Y0173104D01*
X0140994Y0173044D01*
X0141090Y0172980D01*
X0141184Y0172912D01*
X0141275Y0172842D01*
X0141364Y0172768D01*
X0141451Y0172692D01*
X0141534Y0172612D01*
X0141615Y0172530D01*
X0141694Y0172445D01*
X0141769Y0172357D01*
X0141841Y0172267D01*
X0141909Y0172174D01*
X0141975Y0172079D01*
X0142037Y0171982D01*
X0142096Y0171882D01*
X0142152Y0171781D01*
X0142204Y0171678D01*
X0142252Y0171573D01*
X0142297Y0171466D01*
X0142338Y0171358D01*
X0142375Y0171249D01*
X0142408Y0171138D01*
X0142438Y0171027D01*
X0142463Y0170914D01*
X0142485Y0170801D01*
X0142503Y0170687D01*
X0142517Y0170572D01*
X0142527Y0170457D01*
X0142533Y0170341D01*
X0142535Y0170226D01*
X0142533Y0170111D01*
X0142527Y0169995D01*
X0142517Y0169880D01*
X0142503Y0169765D01*
X0142485Y0169651D01*
X0142463Y0169538D01*
X0142438Y0169425D01*
X0142408Y0169314D01*
X0142375Y0169203D01*
X0142338Y0169094D01*
X0142297Y0168986D01*
X0142252Y0168879D01*
X0142204Y0168774D01*
X0142152Y0168671D01*
X0142096Y0168570D01*
X0142037Y0168470D01*
X0141975Y0168373D01*
X0141909Y0168278D01*
X0141841Y0168185D01*
X0141769Y0168095D01*
X0141694Y0168007D01*
X0141615Y0167922D01*
X0141534Y0167840D01*
X0141451Y0167760D01*
X0141364Y0167684D01*
X0141275Y0167610D01*
X0141184Y0167540D01*
X0141090Y0167472D01*
X0140994Y0167408D01*
X0140895Y0167348D01*
X0140795Y0167291D01*
X0140693Y0167237D01*
X0140589Y0167187D01*
X0140483Y0167140D01*
X0140376Y0167097D01*
X0140267Y0167058D01*
X0140157Y0167023D01*
X0140046Y0166992D01*
X0139934Y0166964D01*
X0139821Y0166940D01*
X0139707Y0166920D01*
X0139592Y0166904D01*
X0139477Y0166892D01*
X0139362Y0166884D01*
X0139247Y0166880D01*
X0139131Y0166880D01*
X0139016Y0166884D01*
X0138901Y0166892D01*
X0138786Y0166904D01*
X0138671Y0166920D01*
X0138557Y0166940D01*
X0138444Y0166964D01*
X0138332Y0166992D01*
X0138221Y0167023D01*
X0138111Y0167058D01*
X0138002Y0167097D01*
X0137895Y0167140D01*
X0137789Y0167187D01*
X0137685Y0167237D01*
X0137583Y0167291D01*
X0137483Y0167348D01*
X0137384Y0167408D01*
X0137288Y0167472D01*
X0137194Y0167540D01*
X0137103Y0167610D01*
X0137014Y0167684D01*
X0136927Y0167760D01*
X0136844Y0167840D01*
X0136763Y0167922D01*
X0136684Y0168007D01*
X0136609Y0168095D01*
X0136537Y0168185D01*
X0136469Y0168278D01*
X0136403Y0168373D01*
X0136341Y0168470D01*
X0136282Y0168570D01*
X0136226Y0168671D01*
X0136174Y0168774D01*
X0136126Y0168879D01*
X0136081Y0168986D01*
X0136040Y0169094D01*
X0136003Y0169203D01*
X0135970Y0169314D01*
X0135940Y0169425D01*
X0135915Y0169538D01*
X0135893Y0169651D01*
X0135875Y0169765D01*
X0135861Y0169880D01*
X0135851Y0169995D01*
X0135845Y0170111D01*
X0135843Y0170226D01*
X0092536Y0170226D02*
X0092538Y0170341D01*
X0092544Y0170457D01*
X0092554Y0170572D01*
X0092568Y0170687D01*
X0092586Y0170801D01*
X0092608Y0170914D01*
X0092633Y0171027D01*
X0092663Y0171138D01*
X0092696Y0171249D01*
X0092733Y0171358D01*
X0092774Y0171466D01*
X0092819Y0171573D01*
X0092867Y0171678D01*
X0092919Y0171781D01*
X0092975Y0171882D01*
X0093034Y0171982D01*
X0093096Y0172079D01*
X0093162Y0172174D01*
X0093230Y0172267D01*
X0093302Y0172357D01*
X0093377Y0172445D01*
X0093456Y0172530D01*
X0093537Y0172612D01*
X0093620Y0172692D01*
X0093707Y0172768D01*
X0093796Y0172842D01*
X0093887Y0172912D01*
X0093981Y0172980D01*
X0094077Y0173044D01*
X0094176Y0173104D01*
X0094276Y0173161D01*
X0094378Y0173215D01*
X0094482Y0173265D01*
X0094588Y0173312D01*
X0094695Y0173355D01*
X0094804Y0173394D01*
X0094914Y0173429D01*
X0095025Y0173460D01*
X0095137Y0173488D01*
X0095250Y0173512D01*
X0095364Y0173532D01*
X0095479Y0173548D01*
X0095594Y0173560D01*
X0095709Y0173568D01*
X0095824Y0173572D01*
X0095940Y0173572D01*
X0096055Y0173568D01*
X0096170Y0173560D01*
X0096285Y0173548D01*
X0096400Y0173532D01*
X0096514Y0173512D01*
X0096627Y0173488D01*
X0096739Y0173460D01*
X0096850Y0173429D01*
X0096960Y0173394D01*
X0097069Y0173355D01*
X0097176Y0173312D01*
X0097282Y0173265D01*
X0097386Y0173215D01*
X0097488Y0173161D01*
X0097588Y0173104D01*
X0097687Y0173044D01*
X0097783Y0172980D01*
X0097877Y0172912D01*
X0097968Y0172842D01*
X0098057Y0172768D01*
X0098144Y0172692D01*
X0098227Y0172612D01*
X0098308Y0172530D01*
X0098387Y0172445D01*
X0098462Y0172357D01*
X0098534Y0172267D01*
X0098602Y0172174D01*
X0098668Y0172079D01*
X0098730Y0171982D01*
X0098789Y0171882D01*
X0098845Y0171781D01*
X0098897Y0171678D01*
X0098945Y0171573D01*
X0098990Y0171466D01*
X0099031Y0171358D01*
X0099068Y0171249D01*
X0099101Y0171138D01*
X0099131Y0171027D01*
X0099156Y0170914D01*
X0099178Y0170801D01*
X0099196Y0170687D01*
X0099210Y0170572D01*
X0099220Y0170457D01*
X0099226Y0170341D01*
X0099228Y0170226D01*
X0099226Y0170111D01*
X0099220Y0169995D01*
X0099210Y0169880D01*
X0099196Y0169765D01*
X0099178Y0169651D01*
X0099156Y0169538D01*
X0099131Y0169425D01*
X0099101Y0169314D01*
X0099068Y0169203D01*
X0099031Y0169094D01*
X0098990Y0168986D01*
X0098945Y0168879D01*
X0098897Y0168774D01*
X0098845Y0168671D01*
X0098789Y0168570D01*
X0098730Y0168470D01*
X0098668Y0168373D01*
X0098602Y0168278D01*
X0098534Y0168185D01*
X0098462Y0168095D01*
X0098387Y0168007D01*
X0098308Y0167922D01*
X0098227Y0167840D01*
X0098144Y0167760D01*
X0098057Y0167684D01*
X0097968Y0167610D01*
X0097877Y0167540D01*
X0097783Y0167472D01*
X0097687Y0167408D01*
X0097588Y0167348D01*
X0097488Y0167291D01*
X0097386Y0167237D01*
X0097282Y0167187D01*
X0097176Y0167140D01*
X0097069Y0167097D01*
X0096960Y0167058D01*
X0096850Y0167023D01*
X0096739Y0166992D01*
X0096627Y0166964D01*
X0096514Y0166940D01*
X0096400Y0166920D01*
X0096285Y0166904D01*
X0096170Y0166892D01*
X0096055Y0166884D01*
X0095940Y0166880D01*
X0095824Y0166880D01*
X0095709Y0166884D01*
X0095594Y0166892D01*
X0095479Y0166904D01*
X0095364Y0166920D01*
X0095250Y0166940D01*
X0095137Y0166964D01*
X0095025Y0166992D01*
X0094914Y0167023D01*
X0094804Y0167058D01*
X0094695Y0167097D01*
X0094588Y0167140D01*
X0094482Y0167187D01*
X0094378Y0167237D01*
X0094276Y0167291D01*
X0094176Y0167348D01*
X0094077Y0167408D01*
X0093981Y0167472D01*
X0093887Y0167540D01*
X0093796Y0167610D01*
X0093707Y0167684D01*
X0093620Y0167760D01*
X0093537Y0167840D01*
X0093456Y0167922D01*
X0093377Y0168007D01*
X0093302Y0168095D01*
X0093230Y0168185D01*
X0093162Y0168278D01*
X0093096Y0168373D01*
X0093034Y0168470D01*
X0092975Y0168570D01*
X0092919Y0168671D01*
X0092867Y0168774D01*
X0092819Y0168879D01*
X0092774Y0168986D01*
X0092733Y0169094D01*
X0092696Y0169203D01*
X0092663Y0169314D01*
X0092633Y0169425D01*
X0092608Y0169538D01*
X0092586Y0169651D01*
X0092568Y0169765D01*
X0092554Y0169880D01*
X0092544Y0169995D01*
X0092538Y0170111D01*
X0092536Y0170226D01*
X0049229Y0170226D02*
X0049231Y0170341D01*
X0049237Y0170457D01*
X0049247Y0170572D01*
X0049261Y0170687D01*
X0049279Y0170801D01*
X0049301Y0170914D01*
X0049326Y0171027D01*
X0049356Y0171138D01*
X0049389Y0171249D01*
X0049426Y0171358D01*
X0049467Y0171466D01*
X0049512Y0171573D01*
X0049560Y0171678D01*
X0049612Y0171781D01*
X0049668Y0171882D01*
X0049727Y0171982D01*
X0049789Y0172079D01*
X0049855Y0172174D01*
X0049923Y0172267D01*
X0049995Y0172357D01*
X0050070Y0172445D01*
X0050149Y0172530D01*
X0050230Y0172612D01*
X0050313Y0172692D01*
X0050400Y0172768D01*
X0050489Y0172842D01*
X0050580Y0172912D01*
X0050674Y0172980D01*
X0050770Y0173044D01*
X0050869Y0173104D01*
X0050969Y0173161D01*
X0051071Y0173215D01*
X0051175Y0173265D01*
X0051281Y0173312D01*
X0051388Y0173355D01*
X0051497Y0173394D01*
X0051607Y0173429D01*
X0051718Y0173460D01*
X0051830Y0173488D01*
X0051943Y0173512D01*
X0052057Y0173532D01*
X0052172Y0173548D01*
X0052287Y0173560D01*
X0052402Y0173568D01*
X0052517Y0173572D01*
X0052633Y0173572D01*
X0052748Y0173568D01*
X0052863Y0173560D01*
X0052978Y0173548D01*
X0053093Y0173532D01*
X0053207Y0173512D01*
X0053320Y0173488D01*
X0053432Y0173460D01*
X0053543Y0173429D01*
X0053653Y0173394D01*
X0053762Y0173355D01*
X0053869Y0173312D01*
X0053975Y0173265D01*
X0054079Y0173215D01*
X0054181Y0173161D01*
X0054281Y0173104D01*
X0054380Y0173044D01*
X0054476Y0172980D01*
X0054570Y0172912D01*
X0054661Y0172842D01*
X0054750Y0172768D01*
X0054837Y0172692D01*
X0054920Y0172612D01*
X0055001Y0172530D01*
X0055080Y0172445D01*
X0055155Y0172357D01*
X0055227Y0172267D01*
X0055295Y0172174D01*
X0055361Y0172079D01*
X0055423Y0171982D01*
X0055482Y0171882D01*
X0055538Y0171781D01*
X0055590Y0171678D01*
X0055638Y0171573D01*
X0055683Y0171466D01*
X0055724Y0171358D01*
X0055761Y0171249D01*
X0055794Y0171138D01*
X0055824Y0171027D01*
X0055849Y0170914D01*
X0055871Y0170801D01*
X0055889Y0170687D01*
X0055903Y0170572D01*
X0055913Y0170457D01*
X0055919Y0170341D01*
X0055921Y0170226D01*
X0055919Y0170111D01*
X0055913Y0169995D01*
X0055903Y0169880D01*
X0055889Y0169765D01*
X0055871Y0169651D01*
X0055849Y0169538D01*
X0055824Y0169425D01*
X0055794Y0169314D01*
X0055761Y0169203D01*
X0055724Y0169094D01*
X0055683Y0168986D01*
X0055638Y0168879D01*
X0055590Y0168774D01*
X0055538Y0168671D01*
X0055482Y0168570D01*
X0055423Y0168470D01*
X0055361Y0168373D01*
X0055295Y0168278D01*
X0055227Y0168185D01*
X0055155Y0168095D01*
X0055080Y0168007D01*
X0055001Y0167922D01*
X0054920Y0167840D01*
X0054837Y0167760D01*
X0054750Y0167684D01*
X0054661Y0167610D01*
X0054570Y0167540D01*
X0054476Y0167472D01*
X0054380Y0167408D01*
X0054281Y0167348D01*
X0054181Y0167291D01*
X0054079Y0167237D01*
X0053975Y0167187D01*
X0053869Y0167140D01*
X0053762Y0167097D01*
X0053653Y0167058D01*
X0053543Y0167023D01*
X0053432Y0166992D01*
X0053320Y0166964D01*
X0053207Y0166940D01*
X0053093Y0166920D01*
X0052978Y0166904D01*
X0052863Y0166892D01*
X0052748Y0166884D01*
X0052633Y0166880D01*
X0052517Y0166880D01*
X0052402Y0166884D01*
X0052287Y0166892D01*
X0052172Y0166904D01*
X0052057Y0166920D01*
X0051943Y0166940D01*
X0051830Y0166964D01*
X0051718Y0166992D01*
X0051607Y0167023D01*
X0051497Y0167058D01*
X0051388Y0167097D01*
X0051281Y0167140D01*
X0051175Y0167187D01*
X0051071Y0167237D01*
X0050969Y0167291D01*
X0050869Y0167348D01*
X0050770Y0167408D01*
X0050674Y0167472D01*
X0050580Y0167540D01*
X0050489Y0167610D01*
X0050400Y0167684D01*
X0050313Y0167760D01*
X0050230Y0167840D01*
X0050149Y0167922D01*
X0050070Y0168007D01*
X0049995Y0168095D01*
X0049923Y0168185D01*
X0049855Y0168278D01*
X0049789Y0168373D01*
X0049727Y0168470D01*
X0049668Y0168570D01*
X0049612Y0168671D01*
X0049560Y0168774D01*
X0049512Y0168879D01*
X0049467Y0168986D01*
X0049426Y0169094D01*
X0049389Y0169203D01*
X0049356Y0169314D01*
X0049326Y0169425D01*
X0049301Y0169538D01*
X0049279Y0169651D01*
X0049261Y0169765D01*
X0049247Y0169880D01*
X0049237Y0169995D01*
X0049231Y0170111D01*
X0049229Y0170226D01*
X0366177Y0195222D02*
X0366179Y0195303D01*
X0366185Y0195385D01*
X0366195Y0195466D01*
X0366209Y0195546D01*
X0366226Y0195625D01*
X0366248Y0195704D01*
X0366273Y0195781D01*
X0366302Y0195858D01*
X0366335Y0195932D01*
X0366372Y0196005D01*
X0366411Y0196076D01*
X0366455Y0196145D01*
X0366501Y0196212D01*
X0366551Y0196276D01*
X0366604Y0196338D01*
X0366660Y0196398D01*
X0366718Y0196454D01*
X0366780Y0196508D01*
X0366844Y0196559D01*
X0366910Y0196606D01*
X0366978Y0196650D01*
X0367049Y0196691D01*
X0367121Y0196728D01*
X0367196Y0196762D01*
X0367271Y0196792D01*
X0367349Y0196818D01*
X0367427Y0196841D01*
X0367506Y0196859D01*
X0367586Y0196874D01*
X0367667Y0196885D01*
X0367748Y0196892D01*
X0367830Y0196895D01*
X0367911Y0196894D01*
X0367992Y0196889D01*
X0368073Y0196880D01*
X0368154Y0196867D01*
X0368234Y0196850D01*
X0368312Y0196830D01*
X0368390Y0196805D01*
X0368467Y0196777D01*
X0368542Y0196745D01*
X0368615Y0196710D01*
X0368686Y0196671D01*
X0368756Y0196628D01*
X0368823Y0196583D01*
X0368889Y0196534D01*
X0368951Y0196482D01*
X0369011Y0196426D01*
X0369068Y0196368D01*
X0369123Y0196308D01*
X0369174Y0196244D01*
X0369222Y0196179D01*
X0369267Y0196111D01*
X0369309Y0196041D01*
X0369347Y0195969D01*
X0369382Y0195895D01*
X0369413Y0195820D01*
X0369440Y0195743D01*
X0369463Y0195665D01*
X0369483Y0195586D01*
X0369499Y0195506D01*
X0369511Y0195425D01*
X0369519Y0195344D01*
X0369523Y0195263D01*
X0369523Y0195181D01*
X0369519Y0195100D01*
X0369511Y0195019D01*
X0369499Y0194938D01*
X0369483Y0194858D01*
X0369463Y0194779D01*
X0369440Y0194701D01*
X0369413Y0194624D01*
X0369382Y0194549D01*
X0369347Y0194475D01*
X0369309Y0194403D01*
X0369267Y0194333D01*
X0369222Y0194265D01*
X0369174Y0194200D01*
X0369123Y0194136D01*
X0369068Y0194076D01*
X0369011Y0194018D01*
X0368951Y0193962D01*
X0368889Y0193910D01*
X0368823Y0193861D01*
X0368756Y0193816D01*
X0368687Y0193773D01*
X0368615Y0193734D01*
X0368542Y0193699D01*
X0368467Y0193667D01*
X0368390Y0193639D01*
X0368312Y0193614D01*
X0368234Y0193594D01*
X0368154Y0193577D01*
X0368073Y0193564D01*
X0367992Y0193555D01*
X0367911Y0193550D01*
X0367830Y0193549D01*
X0367748Y0193552D01*
X0367667Y0193559D01*
X0367586Y0193570D01*
X0367506Y0193585D01*
X0367427Y0193603D01*
X0367349Y0193626D01*
X0367271Y0193652D01*
X0367196Y0193682D01*
X0367121Y0193716D01*
X0367049Y0193753D01*
X0366978Y0193794D01*
X0366910Y0193838D01*
X0366844Y0193885D01*
X0366780Y0193936D01*
X0366718Y0193990D01*
X0366660Y0194046D01*
X0366604Y0194106D01*
X0366551Y0194168D01*
X0366501Y0194232D01*
X0366455Y0194299D01*
X0366411Y0194368D01*
X0366372Y0194439D01*
X0366335Y0194512D01*
X0366302Y0194586D01*
X0366273Y0194663D01*
X0366248Y0194740D01*
X0366226Y0194819D01*
X0366209Y0194898D01*
X0366195Y0194978D01*
X0366185Y0195059D01*
X0366179Y0195141D01*
X0366177Y0195222D01*
X0381138Y0195222D02*
X0381140Y0195303D01*
X0381146Y0195385D01*
X0381156Y0195466D01*
X0381170Y0195546D01*
X0381187Y0195625D01*
X0381209Y0195704D01*
X0381234Y0195781D01*
X0381263Y0195858D01*
X0381296Y0195932D01*
X0381333Y0196005D01*
X0381372Y0196076D01*
X0381416Y0196145D01*
X0381462Y0196212D01*
X0381512Y0196276D01*
X0381565Y0196338D01*
X0381621Y0196398D01*
X0381679Y0196454D01*
X0381741Y0196508D01*
X0381805Y0196559D01*
X0381871Y0196606D01*
X0381939Y0196650D01*
X0382010Y0196691D01*
X0382082Y0196728D01*
X0382157Y0196762D01*
X0382232Y0196792D01*
X0382310Y0196818D01*
X0382388Y0196841D01*
X0382467Y0196859D01*
X0382547Y0196874D01*
X0382628Y0196885D01*
X0382709Y0196892D01*
X0382791Y0196895D01*
X0382872Y0196894D01*
X0382953Y0196889D01*
X0383034Y0196880D01*
X0383115Y0196867D01*
X0383195Y0196850D01*
X0383273Y0196830D01*
X0383351Y0196805D01*
X0383428Y0196777D01*
X0383503Y0196745D01*
X0383576Y0196710D01*
X0383647Y0196671D01*
X0383717Y0196628D01*
X0383784Y0196583D01*
X0383850Y0196534D01*
X0383912Y0196482D01*
X0383972Y0196426D01*
X0384029Y0196368D01*
X0384084Y0196308D01*
X0384135Y0196244D01*
X0384183Y0196179D01*
X0384228Y0196111D01*
X0384270Y0196041D01*
X0384308Y0195969D01*
X0384343Y0195895D01*
X0384374Y0195820D01*
X0384401Y0195743D01*
X0384424Y0195665D01*
X0384444Y0195586D01*
X0384460Y0195506D01*
X0384472Y0195425D01*
X0384480Y0195344D01*
X0384484Y0195263D01*
X0384484Y0195181D01*
X0384480Y0195100D01*
X0384472Y0195019D01*
X0384460Y0194938D01*
X0384444Y0194858D01*
X0384424Y0194779D01*
X0384401Y0194701D01*
X0384374Y0194624D01*
X0384343Y0194549D01*
X0384308Y0194475D01*
X0384270Y0194403D01*
X0384228Y0194333D01*
X0384183Y0194265D01*
X0384135Y0194200D01*
X0384084Y0194136D01*
X0384029Y0194076D01*
X0383972Y0194018D01*
X0383912Y0193962D01*
X0383850Y0193910D01*
X0383784Y0193861D01*
X0383717Y0193816D01*
X0383648Y0193773D01*
X0383576Y0193734D01*
X0383503Y0193699D01*
X0383428Y0193667D01*
X0383351Y0193639D01*
X0383273Y0193614D01*
X0383195Y0193594D01*
X0383115Y0193577D01*
X0383034Y0193564D01*
X0382953Y0193555D01*
X0382872Y0193550D01*
X0382791Y0193549D01*
X0382709Y0193552D01*
X0382628Y0193559D01*
X0382547Y0193570D01*
X0382467Y0193585D01*
X0382388Y0193603D01*
X0382310Y0193626D01*
X0382232Y0193652D01*
X0382157Y0193682D01*
X0382082Y0193716D01*
X0382010Y0193753D01*
X0381939Y0193794D01*
X0381871Y0193838D01*
X0381805Y0193885D01*
X0381741Y0193936D01*
X0381679Y0193990D01*
X0381621Y0194046D01*
X0381565Y0194106D01*
X0381512Y0194168D01*
X0381462Y0194232D01*
X0381416Y0194299D01*
X0381372Y0194368D01*
X0381333Y0194439D01*
X0381296Y0194512D01*
X0381263Y0194586D01*
X0381234Y0194663D01*
X0381209Y0194740D01*
X0381187Y0194819D01*
X0381170Y0194898D01*
X0381156Y0194978D01*
X0381146Y0195059D01*
X0381140Y0195141D01*
X0381138Y0195222D01*
X0399996Y0200407D02*
X0399998Y0200491D01*
X0400004Y0200574D01*
X0400014Y0200657D01*
X0400028Y0200740D01*
X0400045Y0200822D01*
X0400067Y0200903D01*
X0400092Y0200982D01*
X0400121Y0201061D01*
X0400154Y0201138D01*
X0400190Y0201213D01*
X0400230Y0201287D01*
X0400273Y0201359D01*
X0400320Y0201428D01*
X0400370Y0201495D01*
X0400423Y0201560D01*
X0400479Y0201622D01*
X0400537Y0201682D01*
X0400599Y0201739D01*
X0400663Y0201792D01*
X0400730Y0201843D01*
X0400799Y0201890D01*
X0400870Y0201935D01*
X0400943Y0201975D01*
X0401018Y0202012D01*
X0401095Y0202046D01*
X0401173Y0202076D01*
X0401252Y0202102D01*
X0401333Y0202125D01*
X0401415Y0202143D01*
X0401497Y0202158D01*
X0401580Y0202169D01*
X0401663Y0202176D01*
X0401747Y0202179D01*
X0401831Y0202178D01*
X0401914Y0202173D01*
X0401998Y0202164D01*
X0402080Y0202151D01*
X0402162Y0202135D01*
X0402243Y0202114D01*
X0402324Y0202090D01*
X0402402Y0202062D01*
X0402480Y0202030D01*
X0402556Y0201994D01*
X0402630Y0201955D01*
X0402702Y0201913D01*
X0402772Y0201867D01*
X0402840Y0201818D01*
X0402905Y0201766D01*
X0402968Y0201711D01*
X0403028Y0201653D01*
X0403086Y0201592D01*
X0403140Y0201528D01*
X0403192Y0201462D01*
X0403240Y0201394D01*
X0403285Y0201323D01*
X0403326Y0201250D01*
X0403365Y0201176D01*
X0403399Y0201100D01*
X0403430Y0201022D01*
X0403457Y0200943D01*
X0403481Y0200862D01*
X0403500Y0200781D01*
X0403516Y0200699D01*
X0403528Y0200616D01*
X0403536Y0200532D01*
X0403540Y0200449D01*
X0403540Y0200365D01*
X0403536Y0200282D01*
X0403528Y0200198D01*
X0403516Y0200115D01*
X0403500Y0200033D01*
X0403481Y0199952D01*
X0403457Y0199871D01*
X0403430Y0199792D01*
X0403399Y0199714D01*
X0403365Y0199638D01*
X0403326Y0199564D01*
X0403285Y0199491D01*
X0403240Y0199420D01*
X0403192Y0199352D01*
X0403140Y0199286D01*
X0403086Y0199222D01*
X0403028Y0199161D01*
X0402968Y0199103D01*
X0402905Y0199048D01*
X0402840Y0198996D01*
X0402772Y0198947D01*
X0402702Y0198901D01*
X0402630Y0198859D01*
X0402556Y0198820D01*
X0402480Y0198784D01*
X0402402Y0198752D01*
X0402324Y0198724D01*
X0402243Y0198700D01*
X0402162Y0198679D01*
X0402080Y0198663D01*
X0401998Y0198650D01*
X0401914Y0198641D01*
X0401831Y0198636D01*
X0401747Y0198635D01*
X0401663Y0198638D01*
X0401580Y0198645D01*
X0401497Y0198656D01*
X0401415Y0198671D01*
X0401333Y0198689D01*
X0401252Y0198712D01*
X0401173Y0198738D01*
X0401095Y0198768D01*
X0401018Y0198802D01*
X0400943Y0198839D01*
X0400870Y0198879D01*
X0400799Y0198924D01*
X0400730Y0198971D01*
X0400663Y0199022D01*
X0400599Y0199075D01*
X0400537Y0199132D01*
X0400479Y0199192D01*
X0400423Y0199254D01*
X0400370Y0199319D01*
X0400320Y0199386D01*
X0400273Y0199455D01*
X0400230Y0199527D01*
X0400190Y0199601D01*
X0400154Y0199676D01*
X0400121Y0199753D01*
X0400092Y0199832D01*
X0400067Y0199911D01*
X0400045Y0199992D01*
X0400028Y0200074D01*
X0400014Y0200157D01*
X0400004Y0200240D01*
X0399998Y0200323D01*
X0399996Y0200407D01*
X0426767Y0200407D02*
X0426769Y0200491D01*
X0426775Y0200574D01*
X0426785Y0200657D01*
X0426799Y0200740D01*
X0426816Y0200822D01*
X0426838Y0200903D01*
X0426863Y0200982D01*
X0426892Y0201061D01*
X0426925Y0201138D01*
X0426961Y0201213D01*
X0427001Y0201287D01*
X0427044Y0201359D01*
X0427091Y0201428D01*
X0427141Y0201495D01*
X0427194Y0201560D01*
X0427250Y0201622D01*
X0427308Y0201682D01*
X0427370Y0201739D01*
X0427434Y0201792D01*
X0427501Y0201843D01*
X0427570Y0201890D01*
X0427641Y0201935D01*
X0427714Y0201975D01*
X0427789Y0202012D01*
X0427866Y0202046D01*
X0427944Y0202076D01*
X0428023Y0202102D01*
X0428104Y0202125D01*
X0428186Y0202143D01*
X0428268Y0202158D01*
X0428351Y0202169D01*
X0428434Y0202176D01*
X0428518Y0202179D01*
X0428602Y0202178D01*
X0428685Y0202173D01*
X0428769Y0202164D01*
X0428851Y0202151D01*
X0428933Y0202135D01*
X0429014Y0202114D01*
X0429095Y0202090D01*
X0429173Y0202062D01*
X0429251Y0202030D01*
X0429327Y0201994D01*
X0429401Y0201955D01*
X0429473Y0201913D01*
X0429543Y0201867D01*
X0429611Y0201818D01*
X0429676Y0201766D01*
X0429739Y0201711D01*
X0429799Y0201653D01*
X0429857Y0201592D01*
X0429911Y0201528D01*
X0429963Y0201462D01*
X0430011Y0201394D01*
X0430056Y0201323D01*
X0430097Y0201250D01*
X0430136Y0201176D01*
X0430170Y0201100D01*
X0430201Y0201022D01*
X0430228Y0200943D01*
X0430252Y0200862D01*
X0430271Y0200781D01*
X0430287Y0200699D01*
X0430299Y0200616D01*
X0430307Y0200532D01*
X0430311Y0200449D01*
X0430311Y0200365D01*
X0430307Y0200282D01*
X0430299Y0200198D01*
X0430287Y0200115D01*
X0430271Y0200033D01*
X0430252Y0199952D01*
X0430228Y0199871D01*
X0430201Y0199792D01*
X0430170Y0199714D01*
X0430136Y0199638D01*
X0430097Y0199564D01*
X0430056Y0199491D01*
X0430011Y0199420D01*
X0429963Y0199352D01*
X0429911Y0199286D01*
X0429857Y0199222D01*
X0429799Y0199161D01*
X0429739Y0199103D01*
X0429676Y0199048D01*
X0429611Y0198996D01*
X0429543Y0198947D01*
X0429473Y0198901D01*
X0429401Y0198859D01*
X0429327Y0198820D01*
X0429251Y0198784D01*
X0429173Y0198752D01*
X0429095Y0198724D01*
X0429014Y0198700D01*
X0428933Y0198679D01*
X0428851Y0198663D01*
X0428769Y0198650D01*
X0428685Y0198641D01*
X0428602Y0198636D01*
X0428518Y0198635D01*
X0428434Y0198638D01*
X0428351Y0198645D01*
X0428268Y0198656D01*
X0428186Y0198671D01*
X0428104Y0198689D01*
X0428023Y0198712D01*
X0427944Y0198738D01*
X0427866Y0198768D01*
X0427789Y0198802D01*
X0427714Y0198839D01*
X0427641Y0198879D01*
X0427570Y0198924D01*
X0427501Y0198971D01*
X0427434Y0199022D01*
X0427370Y0199075D01*
X0427308Y0199132D01*
X0427250Y0199192D01*
X0427194Y0199254D01*
X0427141Y0199319D01*
X0427091Y0199386D01*
X0427044Y0199455D01*
X0427001Y0199527D01*
X0426961Y0199601D01*
X0426925Y0199676D01*
X0426892Y0199753D01*
X0426863Y0199832D01*
X0426838Y0199911D01*
X0426816Y0199992D01*
X0426799Y0200074D01*
X0426785Y0200157D01*
X0426775Y0200240D01*
X0426769Y0200323D01*
X0426767Y0200407D01*
X0466945Y0199596D02*
X0466947Y0199765D01*
X0466953Y0199934D01*
X0466964Y0200103D01*
X0466978Y0200271D01*
X0466997Y0200439D01*
X0467020Y0200607D01*
X0467046Y0200774D01*
X0467077Y0200940D01*
X0467112Y0201106D01*
X0467151Y0201270D01*
X0467195Y0201434D01*
X0467242Y0201596D01*
X0467293Y0201757D01*
X0467348Y0201917D01*
X0467407Y0202076D01*
X0467469Y0202233D01*
X0467536Y0202388D01*
X0467607Y0202542D01*
X0467681Y0202694D01*
X0467759Y0202844D01*
X0467840Y0202992D01*
X0467925Y0203138D01*
X0468014Y0203282D01*
X0468106Y0203424D01*
X0468202Y0203563D01*
X0468301Y0203700D01*
X0468403Y0203835D01*
X0468509Y0203967D01*
X0468618Y0204096D01*
X0468730Y0204223D01*
X0468845Y0204347D01*
X0468963Y0204468D01*
X0469084Y0204586D01*
X0469208Y0204701D01*
X0469335Y0204813D01*
X0469464Y0204922D01*
X0469596Y0205028D01*
X0469731Y0205130D01*
X0469868Y0205229D01*
X0470007Y0205325D01*
X0470149Y0205417D01*
X0470293Y0205506D01*
X0470439Y0205591D01*
X0470587Y0205672D01*
X0470737Y0205750D01*
X0470889Y0205824D01*
X0471043Y0205895D01*
X0471198Y0205962D01*
X0471355Y0206024D01*
X0471514Y0206083D01*
X0471674Y0206138D01*
X0471835Y0206189D01*
X0471997Y0206236D01*
X0472161Y0206280D01*
X0472325Y0206319D01*
X0472491Y0206354D01*
X0472657Y0206385D01*
X0472824Y0206411D01*
X0472992Y0206434D01*
X0473160Y0206453D01*
X0473328Y0206467D01*
X0473497Y0206478D01*
X0473666Y0206484D01*
X0473835Y0206486D01*
X0474004Y0206484D01*
X0474173Y0206478D01*
X0474342Y0206467D01*
X0474510Y0206453D01*
X0474678Y0206434D01*
X0474846Y0206411D01*
X0475013Y0206385D01*
X0475179Y0206354D01*
X0475345Y0206319D01*
X0475509Y0206280D01*
X0475673Y0206236D01*
X0475835Y0206189D01*
X0475996Y0206138D01*
X0476156Y0206083D01*
X0476315Y0206024D01*
X0476472Y0205962D01*
X0476627Y0205895D01*
X0476781Y0205824D01*
X0476933Y0205750D01*
X0477083Y0205672D01*
X0477231Y0205591D01*
X0477377Y0205506D01*
X0477521Y0205417D01*
X0477663Y0205325D01*
X0477802Y0205229D01*
X0477939Y0205130D01*
X0478074Y0205028D01*
X0478206Y0204922D01*
X0478335Y0204813D01*
X0478462Y0204701D01*
X0478586Y0204586D01*
X0478707Y0204468D01*
X0478825Y0204347D01*
X0478940Y0204223D01*
X0479052Y0204096D01*
X0479161Y0203967D01*
X0479267Y0203835D01*
X0479369Y0203700D01*
X0479468Y0203563D01*
X0479564Y0203424D01*
X0479656Y0203282D01*
X0479745Y0203138D01*
X0479830Y0202992D01*
X0479911Y0202844D01*
X0479989Y0202694D01*
X0480063Y0202542D01*
X0480134Y0202388D01*
X0480201Y0202233D01*
X0480263Y0202076D01*
X0480322Y0201917D01*
X0480377Y0201757D01*
X0480428Y0201596D01*
X0480475Y0201434D01*
X0480519Y0201270D01*
X0480558Y0201106D01*
X0480593Y0200940D01*
X0480624Y0200774D01*
X0480650Y0200607D01*
X0480673Y0200439D01*
X0480692Y0200271D01*
X0480706Y0200103D01*
X0480717Y0199934D01*
X0480723Y0199765D01*
X0480725Y0199596D01*
X0480723Y0199427D01*
X0480717Y0199258D01*
X0480706Y0199089D01*
X0480692Y0198921D01*
X0480673Y0198753D01*
X0480650Y0198585D01*
X0480624Y0198418D01*
X0480593Y0198252D01*
X0480558Y0198086D01*
X0480519Y0197922D01*
X0480475Y0197758D01*
X0480428Y0197596D01*
X0480377Y0197435D01*
X0480322Y0197275D01*
X0480263Y0197116D01*
X0480201Y0196959D01*
X0480134Y0196804D01*
X0480063Y0196650D01*
X0479989Y0196498D01*
X0479911Y0196348D01*
X0479830Y0196200D01*
X0479745Y0196054D01*
X0479656Y0195910D01*
X0479564Y0195768D01*
X0479468Y0195629D01*
X0479369Y0195492D01*
X0479267Y0195357D01*
X0479161Y0195225D01*
X0479052Y0195096D01*
X0478940Y0194969D01*
X0478825Y0194845D01*
X0478707Y0194724D01*
X0478586Y0194606D01*
X0478462Y0194491D01*
X0478335Y0194379D01*
X0478206Y0194270D01*
X0478074Y0194164D01*
X0477939Y0194062D01*
X0477802Y0193963D01*
X0477663Y0193867D01*
X0477521Y0193775D01*
X0477377Y0193686D01*
X0477231Y0193601D01*
X0477083Y0193520D01*
X0476933Y0193442D01*
X0476781Y0193368D01*
X0476627Y0193297D01*
X0476472Y0193230D01*
X0476315Y0193168D01*
X0476156Y0193109D01*
X0475996Y0193054D01*
X0475835Y0193003D01*
X0475673Y0192956D01*
X0475509Y0192912D01*
X0475345Y0192873D01*
X0475179Y0192838D01*
X0475013Y0192807D01*
X0474846Y0192781D01*
X0474678Y0192758D01*
X0474510Y0192739D01*
X0474342Y0192725D01*
X0474173Y0192714D01*
X0474004Y0192708D01*
X0473835Y0192706D01*
X0473666Y0192708D01*
X0473497Y0192714D01*
X0473328Y0192725D01*
X0473160Y0192739D01*
X0472992Y0192758D01*
X0472824Y0192781D01*
X0472657Y0192807D01*
X0472491Y0192838D01*
X0472325Y0192873D01*
X0472161Y0192912D01*
X0471997Y0192956D01*
X0471835Y0193003D01*
X0471674Y0193054D01*
X0471514Y0193109D01*
X0471355Y0193168D01*
X0471198Y0193230D01*
X0471043Y0193297D01*
X0470889Y0193368D01*
X0470737Y0193442D01*
X0470587Y0193520D01*
X0470439Y0193601D01*
X0470293Y0193686D01*
X0470149Y0193775D01*
X0470007Y0193867D01*
X0469868Y0193963D01*
X0469731Y0194062D01*
X0469596Y0194164D01*
X0469464Y0194270D01*
X0469335Y0194379D01*
X0469208Y0194491D01*
X0469084Y0194606D01*
X0468963Y0194724D01*
X0468845Y0194845D01*
X0468730Y0194969D01*
X0468618Y0195096D01*
X0468509Y0195225D01*
X0468403Y0195357D01*
X0468301Y0195492D01*
X0468202Y0195629D01*
X0468106Y0195768D01*
X0468014Y0195910D01*
X0467925Y0196054D01*
X0467840Y0196200D01*
X0467759Y0196348D01*
X0467681Y0196498D01*
X0467607Y0196650D01*
X0467536Y0196804D01*
X0467469Y0196959D01*
X0467407Y0197116D01*
X0467348Y0197275D01*
X0467293Y0197435D01*
X0467242Y0197596D01*
X0467195Y0197758D01*
X0467151Y0197922D01*
X0467112Y0198086D01*
X0467077Y0198252D01*
X0467046Y0198418D01*
X0467020Y0198585D01*
X0466997Y0198753D01*
X0466978Y0198921D01*
X0466964Y0199089D01*
X0466953Y0199258D01*
X0466947Y0199427D01*
X0466945Y0199596D01*
X0468678Y0088967D02*
X0468680Y0089082D01*
X0468686Y0089198D01*
X0468696Y0089313D01*
X0468710Y0089428D01*
X0468728Y0089542D01*
X0468750Y0089655D01*
X0468775Y0089768D01*
X0468805Y0089879D01*
X0468838Y0089990D01*
X0468875Y0090099D01*
X0468916Y0090207D01*
X0468961Y0090314D01*
X0469009Y0090419D01*
X0469061Y0090522D01*
X0469117Y0090623D01*
X0469176Y0090723D01*
X0469238Y0090820D01*
X0469304Y0090915D01*
X0469372Y0091008D01*
X0469444Y0091098D01*
X0469519Y0091186D01*
X0469598Y0091271D01*
X0469679Y0091353D01*
X0469762Y0091433D01*
X0469849Y0091509D01*
X0469938Y0091583D01*
X0470029Y0091653D01*
X0470123Y0091721D01*
X0470219Y0091785D01*
X0470318Y0091845D01*
X0470418Y0091902D01*
X0470520Y0091956D01*
X0470624Y0092006D01*
X0470730Y0092053D01*
X0470837Y0092096D01*
X0470946Y0092135D01*
X0471056Y0092170D01*
X0471167Y0092201D01*
X0471279Y0092229D01*
X0471392Y0092253D01*
X0471506Y0092273D01*
X0471621Y0092289D01*
X0471736Y0092301D01*
X0471851Y0092309D01*
X0471966Y0092313D01*
X0472082Y0092313D01*
X0472197Y0092309D01*
X0472312Y0092301D01*
X0472427Y0092289D01*
X0472542Y0092273D01*
X0472656Y0092253D01*
X0472769Y0092229D01*
X0472881Y0092201D01*
X0472992Y0092170D01*
X0473102Y0092135D01*
X0473211Y0092096D01*
X0473318Y0092053D01*
X0473424Y0092006D01*
X0473528Y0091956D01*
X0473630Y0091902D01*
X0473730Y0091845D01*
X0473829Y0091785D01*
X0473925Y0091721D01*
X0474019Y0091653D01*
X0474110Y0091583D01*
X0474199Y0091509D01*
X0474286Y0091433D01*
X0474369Y0091353D01*
X0474450Y0091271D01*
X0474529Y0091186D01*
X0474604Y0091098D01*
X0474676Y0091008D01*
X0474744Y0090915D01*
X0474810Y0090820D01*
X0474872Y0090723D01*
X0474931Y0090623D01*
X0474987Y0090522D01*
X0475039Y0090419D01*
X0475087Y0090314D01*
X0475132Y0090207D01*
X0475173Y0090099D01*
X0475210Y0089990D01*
X0475243Y0089879D01*
X0475273Y0089768D01*
X0475298Y0089655D01*
X0475320Y0089542D01*
X0475338Y0089428D01*
X0475352Y0089313D01*
X0475362Y0089198D01*
X0475368Y0089082D01*
X0475370Y0088967D01*
X0475368Y0088852D01*
X0475362Y0088736D01*
X0475352Y0088621D01*
X0475338Y0088506D01*
X0475320Y0088392D01*
X0475298Y0088279D01*
X0475273Y0088166D01*
X0475243Y0088055D01*
X0475210Y0087944D01*
X0475173Y0087835D01*
X0475132Y0087727D01*
X0475087Y0087620D01*
X0475039Y0087515D01*
X0474987Y0087412D01*
X0474931Y0087311D01*
X0474872Y0087211D01*
X0474810Y0087114D01*
X0474744Y0087019D01*
X0474676Y0086926D01*
X0474604Y0086836D01*
X0474529Y0086748D01*
X0474450Y0086663D01*
X0474369Y0086581D01*
X0474286Y0086501D01*
X0474199Y0086425D01*
X0474110Y0086351D01*
X0474019Y0086281D01*
X0473925Y0086213D01*
X0473829Y0086149D01*
X0473730Y0086089D01*
X0473630Y0086032D01*
X0473528Y0085978D01*
X0473424Y0085928D01*
X0473318Y0085881D01*
X0473211Y0085838D01*
X0473102Y0085799D01*
X0472992Y0085764D01*
X0472881Y0085733D01*
X0472769Y0085705D01*
X0472656Y0085681D01*
X0472542Y0085661D01*
X0472427Y0085645D01*
X0472312Y0085633D01*
X0472197Y0085625D01*
X0472082Y0085621D01*
X0471966Y0085621D01*
X0471851Y0085625D01*
X0471736Y0085633D01*
X0471621Y0085645D01*
X0471506Y0085661D01*
X0471392Y0085681D01*
X0471279Y0085705D01*
X0471167Y0085733D01*
X0471056Y0085764D01*
X0470946Y0085799D01*
X0470837Y0085838D01*
X0470730Y0085881D01*
X0470624Y0085928D01*
X0470520Y0085978D01*
X0470418Y0086032D01*
X0470318Y0086089D01*
X0470219Y0086149D01*
X0470123Y0086213D01*
X0470029Y0086281D01*
X0469938Y0086351D01*
X0469849Y0086425D01*
X0469762Y0086501D01*
X0469679Y0086581D01*
X0469598Y0086663D01*
X0469519Y0086748D01*
X0469444Y0086836D01*
X0469372Y0086926D01*
X0469304Y0087019D01*
X0469238Y0087114D01*
X0469176Y0087211D01*
X0469117Y0087311D01*
X0469061Y0087412D01*
X0469009Y0087515D01*
X0468961Y0087620D01*
X0468916Y0087727D01*
X0468875Y0087835D01*
X0468838Y0087944D01*
X0468805Y0088055D01*
X0468775Y0088166D01*
X0468750Y0088279D01*
X0468728Y0088392D01*
X0468710Y0088506D01*
X0468696Y0088621D01*
X0468686Y0088736D01*
X0468680Y0088852D01*
X0468678Y0088967D01*
X0441119Y0088967D02*
X0441121Y0089082D01*
X0441127Y0089198D01*
X0441137Y0089313D01*
X0441151Y0089428D01*
X0441169Y0089542D01*
X0441191Y0089655D01*
X0441216Y0089768D01*
X0441246Y0089879D01*
X0441279Y0089990D01*
X0441316Y0090099D01*
X0441357Y0090207D01*
X0441402Y0090314D01*
X0441450Y0090419D01*
X0441502Y0090522D01*
X0441558Y0090623D01*
X0441617Y0090723D01*
X0441679Y0090820D01*
X0441745Y0090915D01*
X0441813Y0091008D01*
X0441885Y0091098D01*
X0441960Y0091186D01*
X0442039Y0091271D01*
X0442120Y0091353D01*
X0442203Y0091433D01*
X0442290Y0091509D01*
X0442379Y0091583D01*
X0442470Y0091653D01*
X0442564Y0091721D01*
X0442660Y0091785D01*
X0442759Y0091845D01*
X0442859Y0091902D01*
X0442961Y0091956D01*
X0443065Y0092006D01*
X0443171Y0092053D01*
X0443278Y0092096D01*
X0443387Y0092135D01*
X0443497Y0092170D01*
X0443608Y0092201D01*
X0443720Y0092229D01*
X0443833Y0092253D01*
X0443947Y0092273D01*
X0444062Y0092289D01*
X0444177Y0092301D01*
X0444292Y0092309D01*
X0444407Y0092313D01*
X0444523Y0092313D01*
X0444638Y0092309D01*
X0444753Y0092301D01*
X0444868Y0092289D01*
X0444983Y0092273D01*
X0445097Y0092253D01*
X0445210Y0092229D01*
X0445322Y0092201D01*
X0445433Y0092170D01*
X0445543Y0092135D01*
X0445652Y0092096D01*
X0445759Y0092053D01*
X0445865Y0092006D01*
X0445969Y0091956D01*
X0446071Y0091902D01*
X0446171Y0091845D01*
X0446270Y0091785D01*
X0446366Y0091721D01*
X0446460Y0091653D01*
X0446551Y0091583D01*
X0446640Y0091509D01*
X0446727Y0091433D01*
X0446810Y0091353D01*
X0446891Y0091271D01*
X0446970Y0091186D01*
X0447045Y0091098D01*
X0447117Y0091008D01*
X0447185Y0090915D01*
X0447251Y0090820D01*
X0447313Y0090723D01*
X0447372Y0090623D01*
X0447428Y0090522D01*
X0447480Y0090419D01*
X0447528Y0090314D01*
X0447573Y0090207D01*
X0447614Y0090099D01*
X0447651Y0089990D01*
X0447684Y0089879D01*
X0447714Y0089768D01*
X0447739Y0089655D01*
X0447761Y0089542D01*
X0447779Y0089428D01*
X0447793Y0089313D01*
X0447803Y0089198D01*
X0447809Y0089082D01*
X0447811Y0088967D01*
X0447809Y0088852D01*
X0447803Y0088736D01*
X0447793Y0088621D01*
X0447779Y0088506D01*
X0447761Y0088392D01*
X0447739Y0088279D01*
X0447714Y0088166D01*
X0447684Y0088055D01*
X0447651Y0087944D01*
X0447614Y0087835D01*
X0447573Y0087727D01*
X0447528Y0087620D01*
X0447480Y0087515D01*
X0447428Y0087412D01*
X0447372Y0087311D01*
X0447313Y0087211D01*
X0447251Y0087114D01*
X0447185Y0087019D01*
X0447117Y0086926D01*
X0447045Y0086836D01*
X0446970Y0086748D01*
X0446891Y0086663D01*
X0446810Y0086581D01*
X0446727Y0086501D01*
X0446640Y0086425D01*
X0446551Y0086351D01*
X0446460Y0086281D01*
X0446366Y0086213D01*
X0446270Y0086149D01*
X0446171Y0086089D01*
X0446071Y0086032D01*
X0445969Y0085978D01*
X0445865Y0085928D01*
X0445759Y0085881D01*
X0445652Y0085838D01*
X0445543Y0085799D01*
X0445433Y0085764D01*
X0445322Y0085733D01*
X0445210Y0085705D01*
X0445097Y0085681D01*
X0444983Y0085661D01*
X0444868Y0085645D01*
X0444753Y0085633D01*
X0444638Y0085625D01*
X0444523Y0085621D01*
X0444407Y0085621D01*
X0444292Y0085625D01*
X0444177Y0085633D01*
X0444062Y0085645D01*
X0443947Y0085661D01*
X0443833Y0085681D01*
X0443720Y0085705D01*
X0443608Y0085733D01*
X0443497Y0085764D01*
X0443387Y0085799D01*
X0443278Y0085838D01*
X0443171Y0085881D01*
X0443065Y0085928D01*
X0442961Y0085978D01*
X0442859Y0086032D01*
X0442759Y0086089D01*
X0442660Y0086149D01*
X0442564Y0086213D01*
X0442470Y0086281D01*
X0442379Y0086351D01*
X0442290Y0086425D01*
X0442203Y0086501D01*
X0442120Y0086581D01*
X0442039Y0086663D01*
X0441960Y0086748D01*
X0441885Y0086836D01*
X0441813Y0086926D01*
X0441745Y0087019D01*
X0441679Y0087114D01*
X0441617Y0087211D01*
X0441558Y0087311D01*
X0441502Y0087412D01*
X0441450Y0087515D01*
X0441402Y0087620D01*
X0441357Y0087727D01*
X0441316Y0087835D01*
X0441279Y0087944D01*
X0441246Y0088055D01*
X0441216Y0088166D01*
X0441191Y0088279D01*
X0441169Y0088392D01*
X0441151Y0088506D01*
X0441137Y0088621D01*
X0441127Y0088736D01*
X0441121Y0088852D01*
X0441119Y0088967D01*
X0466945Y0022431D02*
X0466947Y0022600D01*
X0466953Y0022769D01*
X0466964Y0022938D01*
X0466978Y0023106D01*
X0466997Y0023274D01*
X0467020Y0023442D01*
X0467046Y0023609D01*
X0467077Y0023775D01*
X0467112Y0023941D01*
X0467151Y0024105D01*
X0467195Y0024269D01*
X0467242Y0024431D01*
X0467293Y0024592D01*
X0467348Y0024752D01*
X0467407Y0024911D01*
X0467469Y0025068D01*
X0467536Y0025223D01*
X0467607Y0025377D01*
X0467681Y0025529D01*
X0467759Y0025679D01*
X0467840Y0025827D01*
X0467925Y0025973D01*
X0468014Y0026117D01*
X0468106Y0026259D01*
X0468202Y0026398D01*
X0468301Y0026535D01*
X0468403Y0026670D01*
X0468509Y0026802D01*
X0468618Y0026931D01*
X0468730Y0027058D01*
X0468845Y0027182D01*
X0468963Y0027303D01*
X0469084Y0027421D01*
X0469208Y0027536D01*
X0469335Y0027648D01*
X0469464Y0027757D01*
X0469596Y0027863D01*
X0469731Y0027965D01*
X0469868Y0028064D01*
X0470007Y0028160D01*
X0470149Y0028252D01*
X0470293Y0028341D01*
X0470439Y0028426D01*
X0470587Y0028507D01*
X0470737Y0028585D01*
X0470889Y0028659D01*
X0471043Y0028730D01*
X0471198Y0028797D01*
X0471355Y0028859D01*
X0471514Y0028918D01*
X0471674Y0028973D01*
X0471835Y0029024D01*
X0471997Y0029071D01*
X0472161Y0029115D01*
X0472325Y0029154D01*
X0472491Y0029189D01*
X0472657Y0029220D01*
X0472824Y0029246D01*
X0472992Y0029269D01*
X0473160Y0029288D01*
X0473328Y0029302D01*
X0473497Y0029313D01*
X0473666Y0029319D01*
X0473835Y0029321D01*
X0474004Y0029319D01*
X0474173Y0029313D01*
X0474342Y0029302D01*
X0474510Y0029288D01*
X0474678Y0029269D01*
X0474846Y0029246D01*
X0475013Y0029220D01*
X0475179Y0029189D01*
X0475345Y0029154D01*
X0475509Y0029115D01*
X0475673Y0029071D01*
X0475835Y0029024D01*
X0475996Y0028973D01*
X0476156Y0028918D01*
X0476315Y0028859D01*
X0476472Y0028797D01*
X0476627Y0028730D01*
X0476781Y0028659D01*
X0476933Y0028585D01*
X0477083Y0028507D01*
X0477231Y0028426D01*
X0477377Y0028341D01*
X0477521Y0028252D01*
X0477663Y0028160D01*
X0477802Y0028064D01*
X0477939Y0027965D01*
X0478074Y0027863D01*
X0478206Y0027757D01*
X0478335Y0027648D01*
X0478462Y0027536D01*
X0478586Y0027421D01*
X0478707Y0027303D01*
X0478825Y0027182D01*
X0478940Y0027058D01*
X0479052Y0026931D01*
X0479161Y0026802D01*
X0479267Y0026670D01*
X0479369Y0026535D01*
X0479468Y0026398D01*
X0479564Y0026259D01*
X0479656Y0026117D01*
X0479745Y0025973D01*
X0479830Y0025827D01*
X0479911Y0025679D01*
X0479989Y0025529D01*
X0480063Y0025377D01*
X0480134Y0025223D01*
X0480201Y0025068D01*
X0480263Y0024911D01*
X0480322Y0024752D01*
X0480377Y0024592D01*
X0480428Y0024431D01*
X0480475Y0024269D01*
X0480519Y0024105D01*
X0480558Y0023941D01*
X0480593Y0023775D01*
X0480624Y0023609D01*
X0480650Y0023442D01*
X0480673Y0023274D01*
X0480692Y0023106D01*
X0480706Y0022938D01*
X0480717Y0022769D01*
X0480723Y0022600D01*
X0480725Y0022431D01*
X0480723Y0022262D01*
X0480717Y0022093D01*
X0480706Y0021924D01*
X0480692Y0021756D01*
X0480673Y0021588D01*
X0480650Y0021420D01*
X0480624Y0021253D01*
X0480593Y0021087D01*
X0480558Y0020921D01*
X0480519Y0020757D01*
X0480475Y0020593D01*
X0480428Y0020431D01*
X0480377Y0020270D01*
X0480322Y0020110D01*
X0480263Y0019951D01*
X0480201Y0019794D01*
X0480134Y0019639D01*
X0480063Y0019485D01*
X0479989Y0019333D01*
X0479911Y0019183D01*
X0479830Y0019035D01*
X0479745Y0018889D01*
X0479656Y0018745D01*
X0479564Y0018603D01*
X0479468Y0018464D01*
X0479369Y0018327D01*
X0479267Y0018192D01*
X0479161Y0018060D01*
X0479052Y0017931D01*
X0478940Y0017804D01*
X0478825Y0017680D01*
X0478707Y0017559D01*
X0478586Y0017441D01*
X0478462Y0017326D01*
X0478335Y0017214D01*
X0478206Y0017105D01*
X0478074Y0016999D01*
X0477939Y0016897D01*
X0477802Y0016798D01*
X0477663Y0016702D01*
X0477521Y0016610D01*
X0477377Y0016521D01*
X0477231Y0016436D01*
X0477083Y0016355D01*
X0476933Y0016277D01*
X0476781Y0016203D01*
X0476627Y0016132D01*
X0476472Y0016065D01*
X0476315Y0016003D01*
X0476156Y0015944D01*
X0475996Y0015889D01*
X0475835Y0015838D01*
X0475673Y0015791D01*
X0475509Y0015747D01*
X0475345Y0015708D01*
X0475179Y0015673D01*
X0475013Y0015642D01*
X0474846Y0015616D01*
X0474678Y0015593D01*
X0474510Y0015574D01*
X0474342Y0015560D01*
X0474173Y0015549D01*
X0474004Y0015543D01*
X0473835Y0015541D01*
X0473666Y0015543D01*
X0473497Y0015549D01*
X0473328Y0015560D01*
X0473160Y0015574D01*
X0472992Y0015593D01*
X0472824Y0015616D01*
X0472657Y0015642D01*
X0472491Y0015673D01*
X0472325Y0015708D01*
X0472161Y0015747D01*
X0471997Y0015791D01*
X0471835Y0015838D01*
X0471674Y0015889D01*
X0471514Y0015944D01*
X0471355Y0016003D01*
X0471198Y0016065D01*
X0471043Y0016132D01*
X0470889Y0016203D01*
X0470737Y0016277D01*
X0470587Y0016355D01*
X0470439Y0016436D01*
X0470293Y0016521D01*
X0470149Y0016610D01*
X0470007Y0016702D01*
X0469868Y0016798D01*
X0469731Y0016897D01*
X0469596Y0016999D01*
X0469464Y0017105D01*
X0469335Y0017214D01*
X0469208Y0017326D01*
X0469084Y0017441D01*
X0468963Y0017559D01*
X0468845Y0017680D01*
X0468730Y0017804D01*
X0468618Y0017931D01*
X0468509Y0018060D01*
X0468403Y0018192D01*
X0468301Y0018327D01*
X0468202Y0018464D01*
X0468106Y0018603D01*
X0468014Y0018745D01*
X0467925Y0018889D01*
X0467840Y0019035D01*
X0467759Y0019183D01*
X0467681Y0019333D01*
X0467607Y0019485D01*
X0467536Y0019639D01*
X0467469Y0019794D01*
X0467407Y0019951D01*
X0467348Y0020110D01*
X0467293Y0020270D01*
X0467242Y0020431D01*
X0467195Y0020593D01*
X0467151Y0020757D01*
X0467112Y0020921D01*
X0467077Y0021087D01*
X0467046Y0021253D01*
X0467020Y0021420D01*
X0466997Y0021588D01*
X0466978Y0021756D01*
X0466964Y0021924D01*
X0466953Y0022093D01*
X0466947Y0022262D01*
X0466945Y0022431D01*
X0006315Y0022431D02*
X0006317Y0022600D01*
X0006323Y0022769D01*
X0006334Y0022938D01*
X0006348Y0023106D01*
X0006367Y0023274D01*
X0006390Y0023442D01*
X0006416Y0023609D01*
X0006447Y0023775D01*
X0006482Y0023941D01*
X0006521Y0024105D01*
X0006565Y0024269D01*
X0006612Y0024431D01*
X0006663Y0024592D01*
X0006718Y0024752D01*
X0006777Y0024911D01*
X0006839Y0025068D01*
X0006906Y0025223D01*
X0006977Y0025377D01*
X0007051Y0025529D01*
X0007129Y0025679D01*
X0007210Y0025827D01*
X0007295Y0025973D01*
X0007384Y0026117D01*
X0007476Y0026259D01*
X0007572Y0026398D01*
X0007671Y0026535D01*
X0007773Y0026670D01*
X0007879Y0026802D01*
X0007988Y0026931D01*
X0008100Y0027058D01*
X0008215Y0027182D01*
X0008333Y0027303D01*
X0008454Y0027421D01*
X0008578Y0027536D01*
X0008705Y0027648D01*
X0008834Y0027757D01*
X0008966Y0027863D01*
X0009101Y0027965D01*
X0009238Y0028064D01*
X0009377Y0028160D01*
X0009519Y0028252D01*
X0009663Y0028341D01*
X0009809Y0028426D01*
X0009957Y0028507D01*
X0010107Y0028585D01*
X0010259Y0028659D01*
X0010413Y0028730D01*
X0010568Y0028797D01*
X0010725Y0028859D01*
X0010884Y0028918D01*
X0011044Y0028973D01*
X0011205Y0029024D01*
X0011367Y0029071D01*
X0011531Y0029115D01*
X0011695Y0029154D01*
X0011861Y0029189D01*
X0012027Y0029220D01*
X0012194Y0029246D01*
X0012362Y0029269D01*
X0012530Y0029288D01*
X0012698Y0029302D01*
X0012867Y0029313D01*
X0013036Y0029319D01*
X0013205Y0029321D01*
X0013374Y0029319D01*
X0013543Y0029313D01*
X0013712Y0029302D01*
X0013880Y0029288D01*
X0014048Y0029269D01*
X0014216Y0029246D01*
X0014383Y0029220D01*
X0014549Y0029189D01*
X0014715Y0029154D01*
X0014879Y0029115D01*
X0015043Y0029071D01*
X0015205Y0029024D01*
X0015366Y0028973D01*
X0015526Y0028918D01*
X0015685Y0028859D01*
X0015842Y0028797D01*
X0015997Y0028730D01*
X0016151Y0028659D01*
X0016303Y0028585D01*
X0016453Y0028507D01*
X0016601Y0028426D01*
X0016747Y0028341D01*
X0016891Y0028252D01*
X0017033Y0028160D01*
X0017172Y0028064D01*
X0017309Y0027965D01*
X0017444Y0027863D01*
X0017576Y0027757D01*
X0017705Y0027648D01*
X0017832Y0027536D01*
X0017956Y0027421D01*
X0018077Y0027303D01*
X0018195Y0027182D01*
X0018310Y0027058D01*
X0018422Y0026931D01*
X0018531Y0026802D01*
X0018637Y0026670D01*
X0018739Y0026535D01*
X0018838Y0026398D01*
X0018934Y0026259D01*
X0019026Y0026117D01*
X0019115Y0025973D01*
X0019200Y0025827D01*
X0019281Y0025679D01*
X0019359Y0025529D01*
X0019433Y0025377D01*
X0019504Y0025223D01*
X0019571Y0025068D01*
X0019633Y0024911D01*
X0019692Y0024752D01*
X0019747Y0024592D01*
X0019798Y0024431D01*
X0019845Y0024269D01*
X0019889Y0024105D01*
X0019928Y0023941D01*
X0019963Y0023775D01*
X0019994Y0023609D01*
X0020020Y0023442D01*
X0020043Y0023274D01*
X0020062Y0023106D01*
X0020076Y0022938D01*
X0020087Y0022769D01*
X0020093Y0022600D01*
X0020095Y0022431D01*
X0020093Y0022262D01*
X0020087Y0022093D01*
X0020076Y0021924D01*
X0020062Y0021756D01*
X0020043Y0021588D01*
X0020020Y0021420D01*
X0019994Y0021253D01*
X0019963Y0021087D01*
X0019928Y0020921D01*
X0019889Y0020757D01*
X0019845Y0020593D01*
X0019798Y0020431D01*
X0019747Y0020270D01*
X0019692Y0020110D01*
X0019633Y0019951D01*
X0019571Y0019794D01*
X0019504Y0019639D01*
X0019433Y0019485D01*
X0019359Y0019333D01*
X0019281Y0019183D01*
X0019200Y0019035D01*
X0019115Y0018889D01*
X0019026Y0018745D01*
X0018934Y0018603D01*
X0018838Y0018464D01*
X0018739Y0018327D01*
X0018637Y0018192D01*
X0018531Y0018060D01*
X0018422Y0017931D01*
X0018310Y0017804D01*
X0018195Y0017680D01*
X0018077Y0017559D01*
X0017956Y0017441D01*
X0017832Y0017326D01*
X0017705Y0017214D01*
X0017576Y0017105D01*
X0017444Y0016999D01*
X0017309Y0016897D01*
X0017172Y0016798D01*
X0017033Y0016702D01*
X0016891Y0016610D01*
X0016747Y0016521D01*
X0016601Y0016436D01*
X0016453Y0016355D01*
X0016303Y0016277D01*
X0016151Y0016203D01*
X0015997Y0016132D01*
X0015842Y0016065D01*
X0015685Y0016003D01*
X0015526Y0015944D01*
X0015366Y0015889D01*
X0015205Y0015838D01*
X0015043Y0015791D01*
X0014879Y0015747D01*
X0014715Y0015708D01*
X0014549Y0015673D01*
X0014383Y0015642D01*
X0014216Y0015616D01*
X0014048Y0015593D01*
X0013880Y0015574D01*
X0013712Y0015560D01*
X0013543Y0015549D01*
X0013374Y0015543D01*
X0013205Y0015541D01*
X0013036Y0015543D01*
X0012867Y0015549D01*
X0012698Y0015560D01*
X0012530Y0015574D01*
X0012362Y0015593D01*
X0012194Y0015616D01*
X0012027Y0015642D01*
X0011861Y0015673D01*
X0011695Y0015708D01*
X0011531Y0015747D01*
X0011367Y0015791D01*
X0011205Y0015838D01*
X0011044Y0015889D01*
X0010884Y0015944D01*
X0010725Y0016003D01*
X0010568Y0016065D01*
X0010413Y0016132D01*
X0010259Y0016203D01*
X0010107Y0016277D01*
X0009957Y0016355D01*
X0009809Y0016436D01*
X0009663Y0016521D01*
X0009519Y0016610D01*
X0009377Y0016702D01*
X0009238Y0016798D01*
X0009101Y0016897D01*
X0008966Y0016999D01*
X0008834Y0017105D01*
X0008705Y0017214D01*
X0008578Y0017326D01*
X0008454Y0017441D01*
X0008333Y0017559D01*
X0008215Y0017680D01*
X0008100Y0017804D01*
X0007988Y0017931D01*
X0007879Y0018060D01*
X0007773Y0018192D01*
X0007671Y0018327D01*
X0007572Y0018464D01*
X0007476Y0018603D01*
X0007384Y0018745D01*
X0007295Y0018889D01*
X0007210Y0019035D01*
X0007129Y0019183D01*
X0007051Y0019333D01*
X0006977Y0019485D01*
X0006906Y0019639D01*
X0006839Y0019794D01*
X0006777Y0019951D01*
X0006718Y0020110D01*
X0006663Y0020270D01*
X0006612Y0020431D01*
X0006565Y0020593D01*
X0006521Y0020757D01*
X0006482Y0020921D01*
X0006447Y0021087D01*
X0006416Y0021253D01*
X0006390Y0021420D01*
X0006367Y0021588D01*
X0006348Y0021756D01*
X0006334Y0021924D01*
X0006323Y0022093D01*
X0006317Y0022262D01*
X0006315Y0022431D01*
D12*
X0013205Y0010620D02*
X0473835Y0010620D01*
X0474120Y0010623D01*
X0474406Y0010634D01*
X0474691Y0010651D01*
X0474975Y0010675D01*
X0475259Y0010706D01*
X0475542Y0010744D01*
X0475823Y0010789D01*
X0476104Y0010840D01*
X0476384Y0010898D01*
X0476662Y0010963D01*
X0476938Y0011035D01*
X0477212Y0011113D01*
X0477485Y0011198D01*
X0477755Y0011290D01*
X0478023Y0011388D01*
X0478289Y0011492D01*
X0478552Y0011603D01*
X0478812Y0011720D01*
X0479070Y0011843D01*
X0479324Y0011973D01*
X0479575Y0012109D01*
X0479823Y0012250D01*
X0480067Y0012398D01*
X0480308Y0012551D01*
X0480544Y0012711D01*
X0480777Y0012876D01*
X0481006Y0013046D01*
X0481231Y0013222D01*
X0481451Y0013404D01*
X0481667Y0013590D01*
X0481878Y0013782D01*
X0482085Y0013979D01*
X0482287Y0014181D01*
X0482484Y0014388D01*
X0482676Y0014599D01*
X0482862Y0014815D01*
X0483044Y0015035D01*
X0483220Y0015260D01*
X0483390Y0015489D01*
X0483555Y0015722D01*
X0483715Y0015958D01*
X0483868Y0016199D01*
X0484016Y0016443D01*
X0484157Y0016691D01*
X0484293Y0016942D01*
X0484423Y0017196D01*
X0484546Y0017454D01*
X0484663Y0017714D01*
X0484774Y0017977D01*
X0484878Y0018243D01*
X0484976Y0018511D01*
X0485068Y0018781D01*
X0485153Y0019054D01*
X0485231Y0019328D01*
X0485303Y0019604D01*
X0485368Y0019882D01*
X0485426Y0020162D01*
X0485477Y0020443D01*
X0485522Y0020724D01*
X0485560Y0021007D01*
X0485591Y0021291D01*
X0485615Y0021575D01*
X0485632Y0021860D01*
X0485643Y0022146D01*
X0485646Y0022431D01*
X0485646Y0199596D01*
X0485643Y0199881D01*
X0485632Y0200167D01*
X0485615Y0200452D01*
X0485591Y0200736D01*
X0485560Y0201020D01*
X0485522Y0201303D01*
X0485477Y0201584D01*
X0485426Y0201865D01*
X0485368Y0202145D01*
X0485303Y0202423D01*
X0485231Y0202699D01*
X0485153Y0202973D01*
X0485068Y0203246D01*
X0484976Y0203516D01*
X0484878Y0203784D01*
X0484774Y0204050D01*
X0484663Y0204313D01*
X0484546Y0204573D01*
X0484423Y0204831D01*
X0484293Y0205085D01*
X0484157Y0205336D01*
X0484016Y0205584D01*
X0483868Y0205828D01*
X0483715Y0206069D01*
X0483555Y0206305D01*
X0483390Y0206538D01*
X0483220Y0206767D01*
X0483044Y0206992D01*
X0482862Y0207212D01*
X0482676Y0207428D01*
X0482484Y0207639D01*
X0482287Y0207846D01*
X0482085Y0208048D01*
X0481878Y0208245D01*
X0481667Y0208437D01*
X0481451Y0208623D01*
X0481231Y0208805D01*
X0481006Y0208981D01*
X0480777Y0209151D01*
X0480544Y0209316D01*
X0480308Y0209476D01*
X0480067Y0209629D01*
X0479823Y0209777D01*
X0479575Y0209918D01*
X0479324Y0210054D01*
X0479070Y0210184D01*
X0478812Y0210307D01*
X0478552Y0210424D01*
X0478289Y0210535D01*
X0478023Y0210639D01*
X0477755Y0210737D01*
X0477485Y0210829D01*
X0477212Y0210914D01*
X0476938Y0210992D01*
X0476662Y0211064D01*
X0476384Y0211129D01*
X0476104Y0211187D01*
X0475823Y0211238D01*
X0475542Y0211283D01*
X0475259Y0211321D01*
X0474975Y0211352D01*
X0474691Y0211376D01*
X0474406Y0211393D01*
X0474120Y0211404D01*
X0473835Y0211407D01*
X0013205Y0211407D01*
X0012920Y0211404D01*
X0012634Y0211393D01*
X0012349Y0211376D01*
X0012065Y0211352D01*
X0011781Y0211321D01*
X0011498Y0211283D01*
X0011217Y0211238D01*
X0010936Y0211187D01*
X0010656Y0211129D01*
X0010378Y0211064D01*
X0010102Y0210992D01*
X0009828Y0210914D01*
X0009555Y0210829D01*
X0009285Y0210737D01*
X0009017Y0210639D01*
X0008751Y0210535D01*
X0008488Y0210424D01*
X0008228Y0210307D01*
X0007970Y0210184D01*
X0007716Y0210054D01*
X0007465Y0209918D01*
X0007217Y0209777D01*
X0006973Y0209629D01*
X0006732Y0209476D01*
X0006496Y0209316D01*
X0006263Y0209151D01*
X0006034Y0208981D01*
X0005809Y0208805D01*
X0005589Y0208623D01*
X0005373Y0208437D01*
X0005162Y0208245D01*
X0004955Y0208048D01*
X0004753Y0207846D01*
X0004556Y0207639D01*
X0004364Y0207428D01*
X0004178Y0207212D01*
X0003996Y0206992D01*
X0003820Y0206767D01*
X0003650Y0206538D01*
X0003485Y0206305D01*
X0003325Y0206069D01*
X0003172Y0205828D01*
X0003024Y0205584D01*
X0002883Y0205336D01*
X0002747Y0205085D01*
X0002617Y0204831D01*
X0002494Y0204573D01*
X0002377Y0204313D01*
X0002266Y0204050D01*
X0002162Y0203784D01*
X0002064Y0203516D01*
X0001972Y0203246D01*
X0001887Y0202973D01*
X0001809Y0202699D01*
X0001737Y0202423D01*
X0001672Y0202145D01*
X0001614Y0201865D01*
X0001563Y0201584D01*
X0001518Y0201303D01*
X0001480Y0201020D01*
X0001449Y0200736D01*
X0001425Y0200452D01*
X0001408Y0200167D01*
X0001397Y0199881D01*
X0001394Y0199596D01*
X0001394Y0195659D01*
X0001394Y0022431D01*
X0001397Y0022146D01*
X0001408Y0021860D01*
X0001425Y0021575D01*
X0001449Y0021291D01*
X0001480Y0021007D01*
X0001518Y0020724D01*
X0001563Y0020443D01*
X0001614Y0020162D01*
X0001672Y0019882D01*
X0001737Y0019604D01*
X0001809Y0019328D01*
X0001887Y0019054D01*
X0001972Y0018781D01*
X0002064Y0018511D01*
X0002162Y0018243D01*
X0002266Y0017977D01*
X0002377Y0017714D01*
X0002494Y0017454D01*
X0002617Y0017196D01*
X0002747Y0016942D01*
X0002883Y0016691D01*
X0003024Y0016443D01*
X0003172Y0016199D01*
X0003325Y0015958D01*
X0003485Y0015722D01*
X0003650Y0015489D01*
X0003820Y0015260D01*
X0003996Y0015035D01*
X0004178Y0014815D01*
X0004364Y0014599D01*
X0004556Y0014388D01*
X0004753Y0014181D01*
X0004955Y0013979D01*
X0005162Y0013782D01*
X0005373Y0013590D01*
X0005589Y0013404D01*
X0005809Y0013222D01*
X0006034Y0013046D01*
X0006263Y0012876D01*
X0006496Y0012711D01*
X0006732Y0012551D01*
X0006973Y0012398D01*
X0007217Y0012250D01*
X0007465Y0012109D01*
X0007716Y0011973D01*
X0007970Y0011843D01*
X0008228Y0011720D01*
X0008488Y0011603D01*
X0008751Y0011492D01*
X0009017Y0011388D01*
X0009285Y0011290D01*
X0009555Y0011198D01*
X0009828Y0011113D01*
X0010102Y0011035D01*
X0010378Y0010963D01*
X0010656Y0010898D01*
X0010936Y0010840D01*
X0011217Y0010789D01*
X0011498Y0010744D01*
X0011781Y0010706D01*
X0012065Y0010675D01*
X0012349Y0010651D01*
X0012634Y0010634D01*
X0012920Y0010623D01*
X0013205Y0010620D01*
M02*
