%
M48
M72
T01C0.0138
T02C0.0320
T03C0.0335
T04C0.0400
T05C0.0433
T06C0.0630
T07C0.0669
T08C0.1378
%
T01
X4179Y3289
X4475Y4667
X4770Y4962
X5065Y5848
X5853Y5946
X6443Y6340
X5360Y7226
X4967Y7128
X4179Y6537
X4179Y5848
X6148Y5061
X6738Y5159
X6542Y4470
X9691Y4864
X11069Y4962
X10774Y5848
X11660Y5848
X13038Y5946
X13038Y6734
X13628Y6734
X13136Y8112
X12742Y8013
X12349Y8112
X11069Y7226
X10577Y7226
X10380Y8112
X9888Y8112
X8510Y7718
X8313Y8112
X7920Y8702
X8313Y8998
X7329Y9883
X6640Y10769
X6049Y9687
X5360Y9293
X6345Y8112
X8313Y11163
X5951Y13328
X5853Y13919
X7034Y15002
X8018Y14706
X5754Y17265
X4868Y20317
X3490Y23368
X6148Y28092
X9494Y29470
X11561Y28092
X14317Y29470
X16679Y28092
X19731Y29470
X21797Y28092
X24258Y28092
X24849Y29470
X26916Y28092
X29967Y29470
X32034Y28092
X34790Y29470
X35282Y27403
X36660Y26124
X35872Y24647
X36758Y23269
X34297Y23072
X33904Y23072
X31345Y21104
X30065Y23072
X24947Y25336
X22093Y25139
X20813Y24844
X21896Y23368
X21797Y22777
X21207Y22088
X20223Y21891
X20321Y21006
X20813Y20513
X21404Y21006
X21896Y21006
X20813Y23269
X15990Y22482
X13333Y24647
X10872Y22482
X9494Y22482
X15990Y17462
X18254Y15198
X18353Y14805
X18057Y14509
X14612Y12639
X13333Y13427
X12939Y13131
X12053Y14805
X11463Y15887
X12939Y15887
X12349Y10277
X14022Y8998
X14317Y9293
X15105Y9588
X15695Y10179
X15400Y8702
X15695Y8407
X15400Y8112
X15597Y7029
X16876Y7226
X17664Y6734
X17959Y7029
X18746Y7817
X19042Y8112
X19927Y8112
X19337Y8998
X18451Y9588
X17959Y9883
X17664Y9588
X17368Y9293
X16679Y8112
X16581Y5750
X18156Y4962
X18746Y5356
X19042Y5750
X19632Y6931
X21896Y6439
X23077Y5848
X23963Y6143
X24357Y6045
X23668Y6931
X24455Y7226
X25046Y8112
X25439Y8112
X25439Y8998
X26916Y9293
X27801Y8702
X28392Y8112
X29278Y8112
X30754Y8407
X31345Y8407
X32034Y8112
X32526Y8112
X32526Y8998
X33707Y10474
X33805Y10966
X33412Y10966
X34101Y11754
X33805Y12935
X33412Y13131
X34986Y13722
X34986Y14214
X36463Y14116
X37447Y13131
X37742Y13427
X37053Y10671
X36758Y9588
X37053Y8604
X37349Y8309
X35774Y8702
X34986Y7521
X35774Y7226
X35183Y6340
X34396Y6635
X34691Y5159
X34691Y4273
X34691Y3781
X35675Y3289
X36364Y2895
X36660Y2600
X36069Y2009
X37644Y3880
X37939Y4175
X38530Y3289
X36561Y4962
X36857Y5848
X37644Y6143
X37939Y6439
X38530Y6439
X37152Y6635
X32821Y4175
X31935Y4569
X31049Y4962
X30459Y4372
X30754Y4076
X30360Y4962
X29967Y4962
X31345Y6045
X30754Y6340
X31049Y6931
X29967Y6931
X29573Y6931
X27506Y6931
X27211Y7226
X25833Y6734
X25833Y5750
X24455Y4765
X23668Y4962
X23372Y4667
X23963Y3880
X24750Y3683
X26522Y2797
X26817Y1124
X28687Y2108
X27605Y4372
X24553Y2009
X21699Y3387
X20223Y1025
X17860Y2305
X16187Y3387
X18451Y3683
X18451Y4175
X21699Y8013
X21010Y8702
X21010Y9293
X20124Y10671
X20616Y11261
X21994Y12049
X22683Y13230
X21797Y13427
X24258Y14313
X24553Y15100
X24258Y15887
X26423Y12639
X27014Y11950
X27506Y11458
X28884Y12738
X28490Y13427
X28884Y14805
X28687Y15494
X30656Y14017
X31935Y14805
X31345Y10671
X32231Y6439
X31935Y5356
X32526Y3289
X24455Y10671
X23077Y8702
X22683Y8112
X13333Y3289
X13333Y2009
X11660Y3584
X13038Y4962
X3687Y12738
X37841Y20317
T02
X37455Y28486
X36455Y28486
T03
X36860Y30360
X38357Y30360
T04
X38554Y28702
X39694Y28702
T05
X3097Y1320
X3884Y1320
X4671Y1320
X5459Y1320
X6246Y1320
X7034Y1320
X9396Y1320
X10183Y1320
X10971Y1320
X11758Y1320
X12546Y1320
X13333Y1320
X15695Y1320
X16483Y1320
X17270Y1320
X18057Y1320
X18845Y1320
X19632Y1320
X21994Y1320
X22782Y1320
X23569Y1320
X24357Y1320
X25144Y1320
X25931Y1320
X28294Y1320
X29081Y1320
X29868Y1320
X30656Y1320
X31443Y1320
X32231Y1320
X34593Y1320
X35380Y1320
X36168Y1320
X36955Y1320
X37742Y1320
X38530Y1320
X38530Y11431
X37742Y11431
X36955Y11431
X36168Y11431
X35380Y11431
X34593Y11431
X32231Y11431
X31443Y11431
X30656Y11431
X29868Y11431
X29081Y11431
X28294Y11431
X25931Y11431
X25144Y11431
X24357Y11431
X23569Y11431
X22782Y11431
X21994Y11431
X19632Y11431
X18845Y11431
X18057Y11431
X17270Y11431
X16483Y11431
X15695Y11431
X13333Y11431
X12546Y11431
X11758Y11431
X10971Y11431
X10183Y11431
X9396Y11431
X7034Y11431
X6246Y11431
X5459Y11431
X4671Y11431
X3884Y11431
X3097Y11431
X18845Y19824
X18845Y20612
X18845Y21399
X18845Y22187
X18845Y22974
X18845Y23761
X22782Y23761
X22782Y22974
X22782Y22187
X22782Y21399
X22782Y20612
X22782Y19824
T06
X27112Y19116
X26640Y15761
X27585Y15761
X32939Y15761
X33884Y15761
X39238Y15761
X27112Y24470
X21286Y15761
X20341Y15761
X14986Y15761
X14042Y15761
X14514Y19116
X8687Y15761
X7742Y15761
X2388Y15761
X14514Y24470
X14042Y5651
X14986Y5651
X20341Y5651
X21286Y5651
X26640Y5651
X27585Y5651
X32939Y5651
X33884Y5651
X39238Y5651
X8687Y5651
X7742Y5651
X2388Y5651
T07
X2502Y21789
X5258Y21789
X7821Y27726
X7821Y30482
X12939Y30482
X12939Y27726
X18057Y27726
X18057Y30482
X23175Y30482
X23175Y27726
X28294Y27726
X28294Y30482
X33412Y30482
X33412Y27726
X36364Y21793
X39120Y21793
T08
X38923Y25336
X38923Y9588
X2703Y9588
X2703Y25336
M30
