G75*
%MOIN*%
%OFA0B0*%
%FSLAX25Y25*%
%IPPOS*%
%LPD*%
%AMOC8*
5,1,8,0,0,1.08239X$1,22.5*
%
%ADD10R,0.09843X0.08661*%
%ADD11R,0.09843X0.11024*%
%ADD12R,0.11024X0.09843*%
%ADD13R,0.08661X0.09843*%
%ADD14C,0.07400*%
%ADD15R,0.01575X0.05709*%
%ADD16R,0.07087X0.05906*%
%ADD17R,0.09843X0.05906*%
%ADD18C,0.06600*%
%ADD19R,0.11024X0.11024*%
%ADD20OC8,0.05200*%
%ADD21C,0.01200*%
%ADD22C,0.02978*%
%ADD23C,0.01600*%
D10*
X0093369Y0301669D03*
X0114235Y0309150D03*
X0144550Y0301669D03*
X0165416Y0309150D03*
X0195731Y0301669D03*
X0216597Y0309150D03*
X0246912Y0301669D03*
X0267778Y0309150D03*
X0298093Y0301669D03*
X0318959Y0309150D03*
X0349274Y0301669D03*
X0063054Y0309150D03*
D11*
X0063054Y0272535D03*
X0114235Y0272535D03*
X0165416Y0272535D03*
X0216597Y0272535D03*
X0267778Y0272535D03*
X0318959Y0272535D03*
X0342581Y0214976D03*
X0073644Y0220843D03*
D12*
X0057306Y0202732D03*
X0081164Y0256197D03*
X0132345Y0256197D03*
X0183526Y0256197D03*
X0234707Y0256197D03*
X0285888Y0256197D03*
X0337069Y0256197D03*
X0358920Y0233087D03*
D13*
X0395534Y0233087D03*
X0388054Y0202772D03*
X0028172Y0233047D03*
X0020691Y0202732D03*
D14*
X0385543Y0287024D03*
X0396943Y0287024D03*
D15*
X0381203Y0301531D03*
X0378644Y0301531D03*
X0376085Y0301531D03*
X0373526Y0301531D03*
X0370967Y0301531D03*
D16*
X0361577Y0312260D03*
X0390593Y0312260D03*
D17*
X0376085Y0312260D03*
D18*
X0030967Y0013205D03*
X0038841Y0013205D03*
X0046715Y0013205D03*
X0054589Y0013205D03*
X0062463Y0013205D03*
X0070337Y0013205D03*
X0093959Y0013205D03*
X0101833Y0013205D03*
X0109707Y0013205D03*
X0117581Y0013205D03*
X0125455Y0013205D03*
X0133329Y0013205D03*
X0156951Y0013205D03*
X0164825Y0013205D03*
X0172699Y0013205D03*
X0180573Y0013205D03*
X0188447Y0013205D03*
X0196321Y0013205D03*
X0219943Y0013205D03*
X0227817Y0013205D03*
X0235691Y0013205D03*
X0243565Y0013205D03*
X0251439Y0013205D03*
X0259313Y0013205D03*
X0282935Y0013205D03*
X0290809Y0013205D03*
X0298683Y0013205D03*
X0306557Y0013205D03*
X0314431Y0013205D03*
X0322306Y0013205D03*
X0345928Y0013205D03*
X0353802Y0013205D03*
X0361676Y0013205D03*
X0369550Y0013205D03*
X0377424Y0013205D03*
X0385298Y0013205D03*
X0385298Y0114307D03*
X0377424Y0114307D03*
X0369550Y0114307D03*
X0361676Y0114307D03*
X0353802Y0114307D03*
X0345928Y0114307D03*
X0322306Y0114307D03*
X0314431Y0114307D03*
X0306557Y0114307D03*
X0298683Y0114307D03*
X0290809Y0114307D03*
X0282935Y0114307D03*
X0259313Y0114307D03*
X0251439Y0114307D03*
X0243565Y0114307D03*
X0235691Y0114307D03*
X0227817Y0114307D03*
X0219943Y0114307D03*
X0196321Y0114307D03*
X0188447Y0114307D03*
X0180573Y0114307D03*
X0172699Y0114307D03*
X0164825Y0114307D03*
X0156951Y0114307D03*
X0133329Y0114307D03*
X0125455Y0114307D03*
X0117581Y0114307D03*
X0109707Y0114307D03*
X0101833Y0114307D03*
X0093959Y0114307D03*
X0070337Y0114307D03*
X0062463Y0114307D03*
X0054589Y0114307D03*
X0046715Y0114307D03*
X0038841Y0114307D03*
X0030967Y0114307D03*
X0188447Y0198244D03*
X0188447Y0206118D03*
X0188447Y0213992D03*
X0188447Y0221866D03*
X0188447Y0229740D03*
X0188447Y0237614D03*
X0227817Y0237614D03*
X0227817Y0229740D03*
X0227817Y0221866D03*
X0227817Y0213992D03*
X0227817Y0206118D03*
X0227817Y0198244D03*
D19*
X0271124Y0191157D03*
X0266400Y0157614D03*
X0275849Y0157614D03*
X0329392Y0157614D03*
X0338841Y0157614D03*
X0392384Y0157614D03*
X0271124Y0244701D03*
X0212857Y0157614D03*
X0203408Y0157614D03*
X0149865Y0157614D03*
X0140416Y0157614D03*
X0145140Y0191157D03*
X0086872Y0157614D03*
X0077424Y0157614D03*
X0023880Y0157614D03*
X0145140Y0244701D03*
X0140416Y0056512D03*
X0149865Y0056512D03*
X0203408Y0056512D03*
X0212857Y0056512D03*
X0266400Y0056512D03*
X0275849Y0056512D03*
X0329392Y0056512D03*
X0338841Y0056512D03*
X0392384Y0056512D03*
X0086872Y0056512D03*
X0077424Y0056512D03*
X0023880Y0056512D03*
D20*
X0364550Y0284858D03*
X0374550Y0284858D03*
D21*
X0374471Y0284858D01*
X0366597Y0276984D01*
X0366597Y0261236D01*
X0363644Y0261236D01*
X0313447Y0211039D01*
X0319353Y0205134D02*
X0319353Y0148047D01*
X0331164Y0136236D01*
X0331164Y0082102D01*
X0327227Y0078165D01*
X0318369Y0078165D01*
X0315416Y0081118D01*
X0292778Y0081118D01*
X0290809Y0078165D02*
X0286872Y0082102D01*
X0286872Y0102772D01*
X0278014Y0111630D01*
X0278014Y0116551D01*
X0288841Y0127378D01*
X0288841Y0133283D02*
X0272109Y0116551D01*
X0272109Y0080134D01*
X0291794Y0060449D01*
X0291794Y0027969D01*
X0306557Y0013205D01*
X0298683Y0013205D02*
X0290809Y0013205D01*
X0286872Y0021079D02*
X0266203Y0021079D01*
X0255376Y0031906D01*
X0255376Y0071276D01*
X0269156Y0085055D01*
X0269156Y0092929D01*
X0275061Y0085055D02*
X0275061Y0114583D01*
X0270140Y0119504D02*
X0284904Y0134268D01*
X0288841Y0133283D02*
X0288841Y0148047D01*
X0286872Y0154937D02*
X0314431Y0127378D01*
X0314431Y0114307D01*
X0314431Y0113598D01*
X0310494Y0109661D01*
X0310494Y0091945D01*
X0307542Y0088992D01*
X0307542Y0084071D01*
X0313447Y0084071D02*
X0313447Y0106709D01*
X0320337Y0111630D02*
X0322306Y0113598D01*
X0322306Y0114307D01*
X0320337Y0111630D02*
X0320337Y0081118D01*
X0325258Y0081118D02*
X0325258Y0089976D01*
X0334117Y0082102D02*
X0334117Y0109661D01*
X0338054Y0109661D02*
X0357739Y0089976D01*
X0357739Y0087024D01*
X0360691Y0091945D02*
X0338054Y0114583D01*
X0338054Y0129346D01*
X0334117Y0131315D02*
X0364628Y0161827D01*
X0364628Y0141157D01*
X0374471Y0131315D01*
X0377424Y0134268D02*
X0377424Y0135252D01*
X0375455Y0137220D01*
X0375455Y0229740D01*
X0358723Y0246472D01*
X0356754Y0249425D02*
X0377424Y0249425D01*
X0377424Y0248441D01*
X0392187Y0233677D01*
X0395140Y0233677D01*
X0395534Y0233087D01*
X0377424Y0249425D02*
X0377424Y0278953D01*
X0382345Y0283874D01*
X0376439Y0289780D01*
X0370967Y0289780D01*
X0362660Y0289780D01*
X0349865Y0276984D01*
X0352817Y0274031D01*
X0349865Y0276984D02*
X0318369Y0308480D01*
X0318959Y0309150D01*
X0318369Y0309465D01*
X0314431Y0313402D01*
X0279983Y0313402D01*
X0276046Y0309465D01*
X0268172Y0309465D01*
X0267778Y0309150D01*
X0267187Y0308480D01*
X0250455Y0291748D01*
X0208132Y0291748D01*
X0208132Y0264189D01*
X0165809Y0306512D01*
X0165809Y0308480D01*
X0165416Y0309150D01*
X0164825Y0309465D01*
X0160888Y0313402D01*
X0126439Y0313402D01*
X0122502Y0309465D01*
X0114628Y0309465D01*
X0114235Y0309150D01*
X0113644Y0309465D01*
X0109707Y0313402D01*
X0075258Y0313402D01*
X0071321Y0309465D01*
X0063447Y0309465D01*
X0063054Y0309150D01*
X0062463Y0308480D01*
X0056557Y0302575D01*
X0056557Y0237614D01*
X0028998Y0210055D01*
X0028014Y0210055D01*
X0020691Y0202732D01*
X0021124Y0202181D01*
X0030967Y0192339D01*
X0030967Y0172654D01*
X0057542Y0172654D01*
X0058526Y0151984D02*
X0058526Y0139189D01*
X0059510Y0133283D02*
X0030967Y0161827D01*
X0030967Y0172654D01*
X0058526Y0151984D02*
X0094943Y0188402D01*
X0094943Y0224819D01*
X0108723Y0224819D02*
X0108723Y0136236D01*
X0089038Y0116551D01*
X0089038Y0111630D01*
X0103802Y0096866D01*
X0103802Y0081118D01*
X0098880Y0081118D02*
X0098880Y0083087D01*
X0083132Y0098835D01*
X0083132Y0111630D01*
X0077227Y0114583D02*
X0077227Y0089976D01*
X0076243Y0088992D01*
X0076243Y0081118D01*
X0101833Y0055528D01*
X0101833Y0028953D01*
X0117581Y0013205D01*
X0109707Y0013205D02*
X0101833Y0013205D01*
X0104786Y0033874D02*
X0125455Y0013205D01*
X0130376Y0016157D02*
X0133329Y0013205D01*
X0130376Y0016157D02*
X0130376Y0049622D01*
X0130376Y0059465D02*
X0130376Y0067339D01*
X0133329Y0064386D02*
X0133329Y0032890D01*
X0133329Y0020094D02*
X0156951Y0043717D01*
X0156951Y0063402D01*
X0151046Y0069307D01*
X0151046Y0095882D01*
X0156951Y0101787D02*
X0156951Y0084071D01*
X0153998Y0087024D02*
X0153998Y0081118D01*
X0146124Y0088008D02*
X0146124Y0126394D01*
X0143172Y0128362D02*
X0214038Y0199228D01*
X0219943Y0193323D01*
X0219943Y0151000D01*
X0212069Y0143126D01*
X0212069Y0100803D01*
X0236676Y0076197D01*
X0236676Y0069307D01*
X0236676Y0049622D01*
X0233723Y0046669D02*
X0233723Y0069307D01*
X0210101Y0092929D01*
X0210101Y0087024D02*
X0216991Y0080134D01*
X0226833Y0081118D02*
X0226833Y0083087D01*
X0206164Y0103756D01*
X0206164Y0112614D01*
X0201243Y0116551D02*
X0201243Y0106709D01*
X0196321Y0114307D02*
X0196321Y0089976D01*
X0202227Y0084071D01*
X0202227Y0069307D01*
X0190416Y0057496D01*
X0187463Y0053559D02*
X0187463Y0067339D01*
X0184510Y0070291D01*
X0184510Y0095882D01*
X0179589Y0098835D02*
X0179589Y0070291D01*
X0176636Y0067339D02*
X0176636Y0095882D01*
X0173683Y0092929D02*
X0173683Y0027969D01*
X0178605Y0023047D01*
X0184510Y0017142D02*
X0180573Y0013205D01*
X0183526Y0008283D02*
X0188447Y0013205D01*
X0183526Y0008283D02*
X0154983Y0008283D01*
X0152030Y0011236D01*
X0152030Y0015173D01*
X0168762Y0031906D01*
X0168762Y0072260D01*
X0165809Y0075213D02*
X0169746Y0079150D01*
X0169746Y0100803D01*
X0156951Y0113598D01*
X0156951Y0114307D01*
X0152030Y0111630D02*
X0152030Y0121472D01*
X0182542Y0151984D01*
X0183526Y0148047D02*
X0183526Y0134268D01*
X0201243Y0116551D01*
X0190416Y0111630D02*
X0188447Y0113598D01*
X0188447Y0114307D01*
X0188447Y0114583D01*
X0180573Y0122457D01*
X0180573Y0145094D01*
X0215022Y0136236D02*
X0215022Y0102772D01*
X0230770Y0087024D01*
X0244550Y0072260D02*
X0244550Y0106709D01*
X0250455Y0106709D02*
X0243565Y0113598D01*
X0243565Y0114307D01*
X0251439Y0114307D02*
X0251439Y0150016D01*
X0242581Y0158874D01*
X0239628Y0160843D02*
X0239628Y0145094D01*
X0226833Y0132299D01*
X0217975Y0134268D02*
X0232739Y0149031D01*
X0232739Y0239583D01*
X0220928Y0251394D01*
X0232739Y0256315D02*
X0216991Y0272063D01*
X0216597Y0272535D01*
X0216991Y0273047D01*
X0217975Y0274031D01*
X0217975Y0280921D01*
X0208132Y0291748D02*
X0208132Y0300606D01*
X0216006Y0308480D01*
X0216597Y0309150D01*
X0197306Y0300606D02*
X0197306Y0294701D01*
X0197306Y0300606D02*
X0196321Y0301591D01*
X0195731Y0301669D01*
X0166794Y0280921D02*
X0166794Y0274031D01*
X0165809Y0273047D01*
X0165416Y0272535D01*
X0165809Y0272063D01*
X0181557Y0256315D01*
X0183526Y0256315D01*
X0183526Y0256197D01*
X0186479Y0242535D02*
X0183526Y0239583D01*
X0183526Y0203165D01*
X0188447Y0198244D01*
X0203211Y0191354D02*
X0203211Y0210055D01*
X0203211Y0213008D01*
X0193369Y0222850D01*
X0193369Y0224819D01*
X0188447Y0229740D01*
X0188447Y0237614D02*
X0214038Y0212024D01*
X0214038Y0210055D01*
X0225849Y0198244D01*
X0227817Y0198244D01*
X0225849Y0198244D02*
X0225849Y0147063D01*
X0215022Y0136236D01*
X0219943Y0120488D02*
X0242581Y0143126D01*
X0239628Y0145094D02*
X0245534Y0151000D01*
X0249471Y0154937D02*
X0264235Y0140173D01*
X0264235Y0126394D01*
X0264235Y0083087D01*
X0243565Y0062417D01*
X0243565Y0060449D01*
X0239628Y0061433D02*
X0239628Y0038795D01*
X0247502Y0036827D02*
X0276046Y0008283D01*
X0324274Y0008283D01*
X0328211Y0012220D01*
X0328211Y0041748D01*
X0325258Y0047654D02*
X0324274Y0048638D01*
X0323290Y0048638D01*
X0322306Y0049622D01*
X0322306Y0064386D01*
X0319353Y0067339D02*
X0334117Y0082102D01*
X0337069Y0088008D02*
X0349865Y0075213D01*
X0357739Y0072260D02*
X0357739Y0058480D01*
X0362660Y0053559D01*
X0362660Y0034858D01*
X0369550Y0027969D01*
X0369550Y0024031D01*
X0368565Y0023047D01*
X0358723Y0023047D01*
X0353802Y0018126D01*
X0353802Y0013205D01*
X0361676Y0013205D01*
X0360691Y0020094D02*
X0370534Y0020094D01*
X0377424Y0013205D01*
X0366597Y0026000D02*
X0358723Y0026000D01*
X0346912Y0037811D01*
X0346912Y0042732D02*
X0346912Y0051591D01*
X0354786Y0055528D02*
X0354786Y0034858D01*
X0356754Y0032890D01*
X0359707Y0032890D02*
X0363644Y0028953D01*
X0359707Y0032890D02*
X0359707Y0053559D01*
X0351833Y0061433D01*
X0351833Y0063402D01*
X0354786Y0055528D02*
X0343959Y0066354D01*
X0360691Y0066354D02*
X0360691Y0091945D01*
X0367581Y0095882D02*
X0367581Y0080134D01*
X0371518Y0076197D01*
X0371518Y0066354D01*
X0377424Y0067339D02*
X0377424Y0100803D01*
X0385298Y0108677D01*
X0387266Y0108677D01*
X0390219Y0111630D01*
X0390219Y0121472D01*
X0377424Y0134268D01*
X0377424Y0114583D02*
X0377424Y0114307D01*
X0377424Y0114583D02*
X0349865Y0142142D01*
X0349865Y0137220D02*
X0349865Y0126394D01*
X0341006Y0117535D01*
X0337069Y0104740D02*
X0337069Y0088008D01*
X0313447Y0071276D02*
X0306557Y0078165D01*
X0290809Y0078165D01*
X0283920Y0081118D02*
X0278014Y0087024D01*
X0275061Y0085055D02*
X0287857Y0072260D01*
X0301636Y0072260D01*
X0303605Y0070291D01*
X0303605Y0049622D01*
X0299668Y0049622D02*
X0299668Y0048638D01*
X0304589Y0043717D01*
X0307542Y0040764D02*
X0307542Y0063402D01*
X0310494Y0069307D02*
X0310494Y0054543D01*
X0319353Y0045685D01*
X0325258Y0047654D02*
X0325258Y0032890D01*
X0310494Y0025016D02*
X0322306Y0013205D01*
X0314431Y0013205D02*
X0295731Y0031906D01*
X0295731Y0069307D01*
X0299668Y0069307D02*
X0299668Y0049622D01*
X0310494Y0049622D02*
X0310494Y0025016D01*
X0285888Y0048638D02*
X0265219Y0027969D01*
X0251439Y0021079D02*
X0251439Y0013205D01*
X0259313Y0013205D02*
X0259313Y0016157D01*
X0244550Y0030921D01*
X0244550Y0047654D01*
X0230770Y0041748D02*
X0230770Y0058480D01*
X0239628Y0061433D02*
X0259313Y0081118D01*
X0259313Y0114307D01*
X0250455Y0106709D02*
X0250455Y0081118D01*
X0254392Y0081118D02*
X0254392Y0089976D01*
X0272109Y0072260D02*
X0277030Y0072260D01*
X0285888Y0063402D01*
X0285888Y0048638D01*
X0282935Y0049622D02*
X0277030Y0043717D01*
X0276046Y0043717D01*
X0282935Y0049622D02*
X0282935Y0063402D01*
X0277030Y0069307D01*
X0275061Y0069307D01*
X0258329Y0067339D02*
X0258329Y0057496D01*
X0230770Y0041748D02*
X0251439Y0021079D01*
X0245534Y0020094D02*
X0211085Y0020094D01*
X0181557Y0049622D01*
X0184510Y0041748D02*
X0196321Y0029937D01*
X0196321Y0013205D01*
X0202227Y0010252D02*
X0204195Y0008283D01*
X0222896Y0008283D01*
X0227817Y0013205D01*
X0235691Y0013205D01*
X0240613Y0008283D01*
X0265219Y0008283D01*
X0268172Y0011236D01*
X0219943Y0036827D02*
X0216991Y0033874D01*
X0219943Y0036827D02*
X0219943Y0063402D01*
X0218959Y0064386D01*
X0196321Y0069307D02*
X0187463Y0078165D01*
X0187463Y0106709D01*
X0180573Y0113598D01*
X0180573Y0114307D01*
X0190416Y0111630D02*
X0190416Y0081118D01*
X0199274Y0081118D02*
X0199274Y0084071D01*
X0193369Y0089976D01*
X0166794Y0096866D02*
X0166794Y0081118D01*
X0165809Y0075213D02*
X0165809Y0057496D01*
X0161872Y0062417D02*
X0161872Y0033874D01*
X0184510Y0036827D02*
X0184510Y0017142D01*
X0172699Y0013205D02*
X0164825Y0013205D01*
X0116597Y0035843D02*
X0107739Y0044701D01*
X0107739Y0058480D01*
X0104786Y0060449D02*
X0105770Y0061433D01*
X0105770Y0072260D01*
X0110691Y0072260D02*
X0127424Y0072260D01*
X0143172Y0088008D01*
X0143172Y0092929D01*
X0143172Y0128362D01*
X0140219Y0128362D02*
X0140219Y0089976D01*
X0131361Y0081118D01*
X0131361Y0079150D01*
X0129392Y0077181D01*
X0085101Y0077181D01*
X0083132Y0081118D02*
X0083132Y0089976D01*
X0080180Y0089976D02*
X0080180Y0147063D01*
X0070337Y0150016D02*
X0065416Y0150016D01*
X0064431Y0149031D01*
X0064431Y0127378D01*
X0077227Y0114583D01*
X0070337Y0114307D02*
X0070337Y0066354D01*
X0067384Y0063402D01*
X0067384Y0051591D01*
X0064431Y0049622D02*
X0064431Y0063402D01*
X0070337Y0063402D02*
X0073290Y0066354D01*
X0073290Y0098835D01*
X0066400Y0107693D02*
X0066400Y0072260D01*
X0055573Y0061433D01*
X0055573Y0014189D01*
X0054589Y0013205D01*
X0058526Y0017142D02*
X0062463Y0013205D01*
X0070337Y0013205D02*
X0061479Y0022063D01*
X0061479Y0050606D01*
X0064431Y0049622D02*
X0065416Y0048638D01*
X0065416Y0044701D01*
X0070337Y0049622D02*
X0070337Y0063402D01*
X0058526Y0059465D02*
X0058526Y0017142D01*
X0046715Y0013205D02*
X0038841Y0013205D01*
X0041794Y0032890D02*
X0041794Y0058480D01*
X0041794Y0065370D02*
X0041794Y0097850D01*
X0030967Y0108677D01*
X0028998Y0108677D01*
X0026046Y0111630D01*
X0026046Y0116551D01*
X0036872Y0127378D01*
X0030967Y0114307D02*
X0030967Y0113598D01*
X0044746Y0099819D01*
X0044746Y0046669D01*
X0047699Y0049622D02*
X0047699Y0064386D01*
X0053605Y0070291D01*
X0053605Y0072260D01*
X0053605Y0092929D01*
X0060494Y0096866D02*
X0060494Y0074228D01*
X0050652Y0064386D01*
X0050652Y0058480D01*
X0049668Y0071276D02*
X0049668Y0108677D01*
X0054589Y0113598D01*
X0054589Y0114307D01*
X0062463Y0114307D02*
X0062463Y0113598D01*
X0063447Y0112614D01*
X0063447Y0081118D01*
X0079195Y0087024D02*
X0079195Y0088992D01*
X0080180Y0089976D01*
X0110691Y0072260D02*
X0110691Y0049622D01*
X0116597Y0058480D02*
X0146124Y0088008D01*
X0155967Y0070291D02*
X0155967Y0068323D01*
X0161872Y0062417D01*
X0136282Y0067339D02*
X0133329Y0064386D01*
X0127424Y0080134D02*
X0127424Y0103756D01*
X0117581Y0113598D01*
X0117581Y0114307D01*
X0125455Y0114307D02*
X0125455Y0148047D01*
X0114628Y0158874D01*
X0120534Y0148047D02*
X0108723Y0136236D01*
X0129392Y0131315D02*
X0129392Y0158874D01*
X0133329Y0134268D02*
X0133329Y0246472D01*
X0132345Y0256197D02*
X0132345Y0256315D01*
X0130376Y0256315D01*
X0114628Y0272063D01*
X0114235Y0272535D01*
X0114628Y0273047D01*
X0115613Y0274031D01*
X0115613Y0280921D01*
X0094943Y0294701D02*
X0094943Y0300606D01*
X0093959Y0301591D01*
X0093369Y0301669D01*
X0061479Y0280921D02*
X0061479Y0276000D01*
X0063054Y0272535D01*
X0062463Y0273047D01*
X0061479Y0274031D01*
X0061479Y0276000D01*
X0081164Y0256315D01*
X0081164Y0256197D01*
X0073644Y0220843D02*
X0073290Y0219898D01*
X0056557Y0203165D01*
X0057306Y0202732D01*
X0056557Y0203165D02*
X0048683Y0203165D01*
X0028172Y0233047D02*
X0028998Y0233677D01*
X0034904Y0233677D01*
X0143172Y0294701D02*
X0143172Y0300606D01*
X0144156Y0301591D01*
X0144550Y0301669D01*
X0208132Y0264189D02*
X0208132Y0248441D01*
X0208132Y0232693D01*
X0215022Y0225803D01*
X0215022Y0215961D01*
X0218959Y0212024D01*
X0218959Y0210055D01*
X0217975Y0215961D02*
X0217975Y0227772D01*
X0218959Y0231709D02*
X0222896Y0227772D01*
X0222896Y0218913D01*
X0227817Y0213992D01*
X0227817Y0206118D02*
X0217975Y0215961D01*
X0212069Y0220882D02*
X0190416Y0242535D01*
X0186479Y0242535D01*
X0159904Y0224819D02*
X0159904Y0174622D01*
X0203211Y0191354D02*
X0140219Y0128362D01*
X0152030Y0111630D02*
X0166794Y0096866D01*
X0123487Y0102772D02*
X0123487Y0081118D01*
X0104786Y0060449D02*
X0104786Y0033874D01*
X0096912Y0048638D02*
X0071321Y0048638D01*
X0070337Y0049622D01*
X0239628Y0160843D02*
X0242581Y0163795D01*
X0242581Y0280921D01*
X0248487Y0294701D02*
X0248487Y0300606D01*
X0247502Y0301591D01*
X0246912Y0301669D01*
X0269156Y0280921D02*
X0269156Y0274031D01*
X0268172Y0273047D01*
X0267778Y0272535D01*
X0268172Y0272063D01*
X0283920Y0256315D01*
X0285888Y0256315D01*
X0285888Y0256197D01*
X0300652Y0230724D02*
X0300652Y0146079D01*
X0306557Y0140173D01*
X0249471Y0154937D02*
X0249471Y0253362D01*
X0234707Y0256197D02*
X0234707Y0256315D01*
X0232739Y0256315D01*
X0218959Y0233677D02*
X0218959Y0231709D01*
X0202227Y0218913D02*
X0208132Y0213008D01*
X0208132Y0205134D01*
X0214038Y0199228D01*
X0319353Y0205134D02*
X0339038Y0224819D01*
X0339038Y0230724D01*
X0342975Y0230724D02*
X0342975Y0214976D01*
X0342581Y0214976D01*
X0351833Y0217929D02*
X0351833Y0244504D01*
X0356754Y0249425D01*
X0358920Y0233087D02*
X0359707Y0232693D01*
X0367581Y0232693D01*
X0351833Y0217929D02*
X0364628Y0205134D01*
X0364628Y0161827D01*
X0378408Y0203165D02*
X0387266Y0203165D01*
X0388054Y0202772D01*
X0337069Y0256197D02*
X0337069Y0256315D01*
X0335101Y0256315D01*
X0319353Y0272063D01*
X0318959Y0272535D01*
X0319353Y0273047D01*
X0320337Y0274031D01*
X0320337Y0280921D01*
X0299668Y0294701D02*
X0299668Y0300606D01*
X0298683Y0301591D01*
X0298093Y0301669D01*
X0347896Y0300606D02*
X0347896Y0294701D01*
X0347896Y0300606D02*
X0348880Y0301591D01*
X0349274Y0301669D01*
X0382345Y0283874D02*
X0385298Y0286827D01*
X0385543Y0287024D01*
X0369550Y0114307D02*
X0369550Y0113598D01*
X0373487Y0109661D01*
X0373487Y0083087D01*
X0370534Y0086039D02*
X0370534Y0106709D01*
X0377424Y0067339D02*
X0368565Y0058480D01*
X0365613Y0061433D02*
X0360691Y0066354D01*
X0365613Y0061433D02*
X0365613Y0049622D01*
X0376439Y0038795D02*
X0376439Y0061433D01*
X0379392Y0064386D02*
X0379392Y0041748D01*
X0385298Y0032890D02*
X0385298Y0064386D01*
X0319353Y0067339D02*
X0319353Y0053559D01*
X0313447Y0060449D02*
X0313447Y0071276D01*
D22*
X0310494Y0069307D03*
X0307542Y0063402D03*
X0313447Y0060449D03*
X0319353Y0053559D03*
X0310494Y0049622D03*
X0304589Y0043717D03*
X0307542Y0040764D03*
X0303605Y0049622D03*
X0299668Y0049622D03*
X0319353Y0045685D03*
X0328211Y0041748D03*
X0325258Y0032890D03*
X0346912Y0037811D03*
X0346912Y0042732D03*
X0346912Y0051591D03*
X0351833Y0063402D03*
X0343959Y0066354D03*
X0349865Y0075213D03*
X0357739Y0072260D03*
X0371518Y0066354D03*
X0376439Y0061433D03*
X0379392Y0064386D03*
X0385298Y0064386D03*
X0368565Y0058480D03*
X0365613Y0049622D03*
X0376439Y0038795D03*
X0379392Y0041748D03*
X0385298Y0032890D03*
X0366597Y0026000D03*
X0363644Y0028953D03*
X0356754Y0032890D03*
X0360691Y0020094D03*
X0322306Y0064386D03*
X0320337Y0081118D03*
X0313447Y0084071D03*
X0307542Y0084071D03*
X0292778Y0081118D03*
X0283920Y0081118D03*
X0278014Y0087024D03*
X0269156Y0092929D03*
X0254392Y0089976D03*
X0254392Y0081118D03*
X0250455Y0081118D03*
X0244550Y0072260D03*
X0236676Y0069307D03*
X0239628Y0061433D03*
X0243565Y0060449D03*
X0230770Y0058480D03*
X0236676Y0049622D03*
X0233723Y0046669D03*
X0239628Y0038795D03*
X0247502Y0036827D03*
X0244550Y0047654D03*
X0258329Y0057496D03*
X0258329Y0067339D03*
X0272109Y0072260D03*
X0275061Y0069307D03*
X0295731Y0069307D03*
X0299668Y0069307D03*
X0325258Y0081118D03*
X0325258Y0089976D03*
X0337069Y0104740D03*
X0338054Y0109661D03*
X0334117Y0109661D03*
X0341006Y0117535D03*
X0338054Y0129346D03*
X0334117Y0131315D03*
X0349865Y0137220D03*
X0349865Y0142142D03*
X0364628Y0141157D03*
X0374471Y0131315D03*
X0377424Y0134268D03*
X0370534Y0106709D03*
X0367581Y0095882D03*
X0370534Y0086039D03*
X0373487Y0083087D03*
X0357739Y0087024D03*
X0313447Y0106709D03*
X0288841Y0127378D03*
X0284904Y0134268D03*
X0288841Y0148047D03*
X0286872Y0154937D03*
X0306557Y0140173D03*
X0319353Y0148047D03*
X0275061Y0114583D03*
X0270140Y0119504D03*
X0264235Y0126394D03*
X0242581Y0143126D03*
X0245534Y0151000D03*
X0242581Y0158874D03*
X0217975Y0134268D03*
X0226833Y0132299D03*
X0219943Y0120488D03*
X0206164Y0112614D03*
X0201243Y0106709D03*
X0210101Y0092929D03*
X0210101Y0087024D03*
X0216991Y0080134D03*
X0226833Y0081118D03*
X0230770Y0087024D03*
X0244550Y0106709D03*
X0199274Y0081118D03*
X0190416Y0081118D03*
X0187463Y0078165D03*
X0179589Y0070291D03*
X0176636Y0067339D03*
X0168762Y0072260D03*
X0166794Y0081118D03*
X0156951Y0084071D03*
X0153998Y0087024D03*
X0153998Y0081118D03*
X0155967Y0070291D03*
X0165809Y0057496D03*
X0181557Y0049622D03*
X0187463Y0053559D03*
X0190416Y0057496D03*
X0196321Y0069307D03*
X0218959Y0064386D03*
X0193369Y0089976D03*
X0184510Y0095882D03*
X0179589Y0098835D03*
X0176636Y0095882D03*
X0173683Y0092929D03*
X0156951Y0101787D03*
X0151046Y0095882D03*
X0143172Y0092929D03*
X0140219Y0089976D03*
X0131361Y0081118D03*
X0127424Y0080134D03*
X0123487Y0081118D03*
X0110691Y0072260D03*
X0105770Y0072260D03*
X0103802Y0081118D03*
X0098880Y0081118D03*
X0085101Y0077181D03*
X0083132Y0081118D03*
X0079195Y0087024D03*
X0083132Y0089976D03*
X0073290Y0098835D03*
X0066400Y0107693D03*
X0060494Y0096866D03*
X0053605Y0092929D03*
X0063447Y0081118D03*
X0053605Y0072260D03*
X0049668Y0071276D03*
X0041794Y0065370D03*
X0041794Y0058480D03*
X0050652Y0058480D03*
X0058526Y0059465D03*
X0064431Y0063402D03*
X0067384Y0051591D03*
X0061479Y0050606D03*
X0065416Y0044701D03*
X0047699Y0049622D03*
X0044746Y0046669D03*
X0041794Y0032890D03*
X0096912Y0048638D03*
X0110691Y0049622D03*
X0107739Y0058480D03*
X0116597Y0058480D03*
X0130376Y0059465D03*
X0130376Y0067339D03*
X0136282Y0067339D03*
X0130376Y0049622D03*
X0116597Y0035843D03*
X0133329Y0032890D03*
X0133329Y0020094D03*
X0161872Y0033874D03*
X0178605Y0023047D03*
X0184510Y0036827D03*
X0184510Y0041748D03*
X0216991Y0033874D03*
X0245534Y0020094D03*
X0265219Y0027969D03*
X0268172Y0011236D03*
X0286872Y0021079D03*
X0276046Y0043717D03*
X0202227Y0010252D03*
X0123487Y0102772D03*
X0146124Y0126394D03*
X0133329Y0134268D03*
X0129392Y0131315D03*
X0120534Y0148047D03*
X0114628Y0158874D03*
X0129392Y0158874D03*
X0159904Y0174622D03*
X0182542Y0151984D03*
X0183526Y0148047D03*
X0180573Y0145094D03*
X0208132Y0205134D03*
X0214038Y0210055D03*
X0218959Y0210055D03*
X0212069Y0220882D03*
X0217975Y0227772D03*
X0218959Y0233677D03*
X0208132Y0232693D03*
X0202227Y0218913D03*
X0203211Y0210055D03*
X0159904Y0224819D03*
X0133329Y0246472D03*
X0108723Y0224819D03*
X0094943Y0224819D03*
X0048683Y0203165D03*
X0057542Y0172654D03*
X0070337Y0150016D03*
X0080180Y0147063D03*
X0058526Y0139189D03*
X0059510Y0133283D03*
X0036872Y0127378D03*
X0083132Y0111630D03*
X0034904Y0233677D03*
X0061479Y0280921D03*
X0094943Y0294701D03*
X0115613Y0280921D03*
X0143172Y0294701D03*
X0166794Y0280921D03*
X0197306Y0294701D03*
X0217975Y0280921D03*
X0242581Y0280921D03*
X0248487Y0294701D03*
X0269156Y0280921D03*
X0299668Y0294701D03*
X0320337Y0280921D03*
X0347896Y0294701D03*
X0352817Y0274031D03*
X0366597Y0261236D03*
X0358723Y0246472D03*
X0367581Y0232693D03*
X0342975Y0230724D03*
X0339038Y0230724D03*
X0313447Y0211039D03*
X0300652Y0230724D03*
X0249471Y0253362D03*
X0220928Y0251394D03*
X0208132Y0248441D03*
X0378408Y0203165D03*
D23*
X0396943Y0287024D02*
X0396943Y0289316D01*
X0390967Y0295291D01*
X0384274Y0295291D01*
X0381203Y0298362D01*
X0381203Y0301531D01*
X0370967Y0301531D02*
X0370967Y0289780D01*
M02*
