G75*
%MOIN*%
%OFA0B0*%
%FSLAX25Y25*%
%IPPOS*%
%LPD*%
%AMOC8*
5,1,8,0,0,1.08239X$1,22.5*
%
%ADD10OC8,0.05200*%
%ADD11C,0.05600*%
%ADD12R,0.04724X0.05512*%
%ADD13C,0.07400*%
%ADD14R,0.08661X0.09843*%
%ADD15R,0.11024X0.09843*%
%ADD16R,0.09843X0.11024*%
%ADD17R,0.06000X0.12500*%
%ADD18R,0.05937X0.05937*%
%ADD19R,0.08268X0.08268*%
%ADD20C,0.00600*%
%ADD21C,0.02978*%
D10*
X0322620Y0024335D03*
X0322620Y0034335D03*
X0321825Y0047768D03*
X0321825Y0057768D03*
D11*
X0168707Y0079228D03*
X0160833Y0079228D03*
D12*
X0103833Y0089303D03*
X0093479Y0089303D03*
X0083597Y0089303D03*
X0052140Y0089303D03*
X0032455Y0089303D03*
X0042298Y0071980D03*
X0083636Y0071980D03*
X0093282Y0072098D03*
X0103321Y0071980D03*
X0311983Y0089303D03*
X0331668Y0089303D03*
X0321825Y0071980D03*
D13*
X0299128Y0034944D03*
X0299128Y0023544D03*
D14*
X0028172Y0037610D03*
X0020691Y0067925D03*
D15*
X0057306Y0067925D03*
D16*
X0073644Y0049815D03*
D17*
X0355018Y0056148D03*
X0383774Y0049758D03*
X0391585Y0056148D03*
X0402507Y0056148D03*
X0383774Y0087758D03*
X0391585Y0018148D03*
X0402507Y0018148D03*
X0355018Y0018148D03*
D18*
X0223400Y0046075D03*
X0207652Y0046075D03*
X0191904Y0046075D03*
D19*
X0187967Y0085445D03*
X0227337Y0085445D03*
D20*
X0236402Y0075198D02*
X0243602Y0082398D01*
X0263402Y0062598D01*
X0241802Y0040998D01*
X0208802Y0040998D01*
X0207602Y0038598D02*
X0217802Y0038598D01*
X0219002Y0039798D01*
X0270002Y0039798D01*
X0271202Y0040998D01*
X0286802Y0038598D02*
X0296402Y0028998D01*
X0352802Y0028998D01*
X0328802Y0018198D02*
X0322802Y0024198D01*
X0322620Y0024335D01*
X0322202Y0024198D01*
X0316802Y0018798D01*
X0283202Y0018798D01*
X0278402Y0023598D01*
X0274802Y0023598D01*
X0273602Y0025998D02*
X0279602Y0025998D01*
X0284402Y0021198D01*
X0295202Y0027198D02*
X0298802Y0023598D01*
X0299128Y0023544D01*
X0295202Y0027198D02*
X0242402Y0027198D01*
X0232202Y0016998D01*
X0028802Y0016998D01*
X0033002Y0018198D02*
X0132002Y0018198D01*
X0148202Y0034398D01*
X0136802Y0045798D01*
X0133802Y0045798D01*
X0132602Y0048198D02*
X0121202Y0036798D01*
X0121202Y0034998D01*
X0135602Y0025398D02*
X0144602Y0034398D01*
X0151202Y0034998D02*
X0138002Y0048198D01*
X0132602Y0048198D01*
X0132002Y0049398D02*
X0160802Y0049398D01*
X0174002Y0036198D01*
X0220802Y0036198D01*
X0219602Y0038598D02*
X0218402Y0037398D01*
X0174602Y0037398D01*
X0135002Y0076998D01*
X0101402Y0076998D01*
X0099602Y0075198D01*
X0099602Y0069798D01*
X0093002Y0063198D01*
X0093002Y0040398D01*
X0079802Y0027198D01*
X0025802Y0027198D01*
X0021602Y0031398D01*
X0021602Y0043398D01*
X0023402Y0045198D01*
X0024002Y0045198D01*
X0042002Y0063198D01*
X0042002Y0071598D01*
X0042298Y0071980D01*
X0043202Y0065598D02*
X0051602Y0073998D01*
X0051602Y0088998D01*
X0052140Y0089303D01*
X0032455Y0089303D02*
X0032402Y0088998D01*
X0032402Y0079998D01*
X0030002Y0077598D01*
X0030002Y0076398D01*
X0057306Y0067925D02*
X0057602Y0067998D01*
X0078602Y0088998D01*
X0083402Y0088998D01*
X0083597Y0089303D01*
X0087602Y0082398D02*
X0093002Y0087798D01*
X0093002Y0088998D01*
X0093479Y0089303D01*
X0102602Y0087798D02*
X0103802Y0088998D01*
X0103833Y0089303D01*
X0102602Y0087798D02*
X0102602Y0079998D01*
X0111002Y0079398D02*
X0155402Y0079398D01*
X0159002Y0082998D01*
X0180602Y0082998D01*
X0183602Y0079998D01*
X0237602Y0079998D01*
X0236402Y0075198D02*
X0195002Y0075198D01*
X0173402Y0066798D02*
X0161402Y0078798D01*
X0160833Y0079228D01*
X0173402Y0066798D02*
X0173402Y0055998D01*
X0208802Y0055998D01*
X0209402Y0055398D01*
X0243002Y0055398D01*
X0246602Y0055398D02*
X0241802Y0050598D01*
X0228602Y0050598D01*
X0213002Y0048198D02*
X0207602Y0053598D01*
X0203402Y0049398D01*
X0203402Y0042798D01*
X0207602Y0038598D01*
X0219602Y0038598D02*
X0286802Y0038598D01*
X0299128Y0034944D02*
X0299402Y0034998D01*
X0311402Y0046998D01*
X0311402Y0088998D01*
X0311983Y0089303D01*
X0313802Y0072198D02*
X0313802Y0047598D01*
X0306602Y0040398D01*
X0306602Y0038598D01*
X0301802Y0030198D02*
X0318002Y0046398D01*
X0318002Y0053598D01*
X0321602Y0057198D01*
X0321825Y0057768D01*
X0355018Y0056148D02*
X0355202Y0055998D01*
X0355202Y0018198D01*
X0355018Y0018148D01*
X0354602Y0018198D01*
X0328802Y0018198D01*
X0325802Y0017598D02*
X0236402Y0017598D01*
X0270002Y0022398D02*
X0273602Y0025998D01*
X0263402Y0032598D02*
X0216602Y0032598D01*
X0214202Y0034998D01*
X0151202Y0034998D01*
X0132602Y0027798D02*
X0124802Y0027798D01*
X0106802Y0045798D01*
X0106802Y0073398D01*
X0108002Y0074598D01*
X0103321Y0071980D02*
X0103202Y0071598D01*
X0103202Y0051798D01*
X0094202Y0042798D01*
X0094202Y0039798D01*
X0076202Y0021798D01*
X0033602Y0021798D01*
X0033002Y0018198D02*
X0020402Y0030798D01*
X0020402Y0067398D01*
X0020691Y0067925D01*
X0021002Y0067398D01*
X0028802Y0067398D01*
X0035402Y0060798D01*
X0043202Y0062598D02*
X0024602Y0043998D01*
X0024002Y0043998D01*
X0022802Y0042798D01*
X0022802Y0031998D01*
X0025202Y0029598D01*
X0078602Y0029598D01*
X0072002Y0033198D02*
X0072002Y0036198D01*
X0081002Y0045198D01*
X0081002Y0047598D01*
X0086402Y0052998D01*
X0073644Y0049815D02*
X0073202Y0049998D01*
X0057002Y0066198D01*
X0056402Y0066198D01*
X0057306Y0067925D01*
X0057602Y0067398D01*
X0056402Y0066198D01*
X0028202Y0037998D01*
X0028172Y0037610D01*
X0090602Y0042198D02*
X0090602Y0062598D01*
X0093002Y0064998D01*
X0093002Y0071598D01*
X0093282Y0072098D01*
X0094202Y0078198D02*
X0091202Y0081198D01*
X0090002Y0081198D01*
X0087602Y0082398D02*
X0087602Y0061398D01*
X0088202Y0060798D01*
X0126002Y0043398D02*
X0132002Y0049398D01*
X0126002Y0043398D02*
X0117002Y0043398D01*
X0106802Y0042198D02*
X0128402Y0020598D01*
X0125402Y0025398D02*
X0135602Y0025398D01*
X0125402Y0025398D02*
X0105602Y0045198D01*
X0105602Y0045798D01*
X0103202Y0048198D01*
X0106802Y0042198D02*
X0097202Y0042198D01*
X0043202Y0062598D02*
X0043202Y0065598D01*
X0173402Y0055998D02*
X0173402Y0046398D01*
X0175802Y0049998D02*
X0178202Y0052398D01*
X0175802Y0049998D02*
X0175802Y0039798D01*
X0184802Y0039798D01*
X0263402Y0062598D02*
X0264602Y0062598D01*
X0297002Y0030198D01*
X0301802Y0030198D01*
X0383402Y0049998D02*
X0383774Y0049758D01*
X0383402Y0049998D02*
X0383402Y0070998D01*
X0382802Y0071598D01*
X0382802Y0086598D01*
X0383402Y0087198D01*
X0383774Y0087758D01*
X0321825Y0071980D02*
X0321602Y0072198D01*
X0313802Y0072198D01*
X0391585Y0056148D02*
X0391802Y0055998D01*
X0393002Y0054798D01*
X0393002Y0032598D01*
X0391802Y0031398D01*
X0391802Y0018198D01*
X0391585Y0018148D01*
X0397202Y0017598D02*
X0402002Y0017598D01*
X0402507Y0018148D01*
X0397202Y0051198D02*
X0402002Y0055998D01*
X0402507Y0056148D01*
D21*
X0028802Y0016998D03*
X0033602Y0021798D03*
X0072002Y0033198D03*
X0078602Y0029598D03*
X0090602Y0042198D03*
X0097202Y0042198D03*
X0103202Y0048198D03*
X0117002Y0043398D03*
X0133802Y0045798D03*
X0173402Y0046398D03*
X0175802Y0039798D03*
X0184802Y0039798D03*
X0208802Y0040998D03*
X0220802Y0036198D03*
X0263402Y0032598D03*
X0271202Y0040998D03*
X0306602Y0038598D03*
X0352802Y0028998D03*
X0325802Y0017598D03*
X0284402Y0021198D03*
X0274802Y0023598D03*
X0270002Y0022398D03*
X0236402Y0017598D03*
X0148202Y0034398D03*
X0144602Y0034398D03*
X0121202Y0034998D03*
X0132602Y0027798D03*
X0128402Y0020598D03*
X0081002Y0047598D03*
X0086402Y0052998D03*
X0088202Y0060798D03*
X0108002Y0074598D03*
X0094202Y0078198D03*
X0090002Y0081198D03*
X0102602Y0079998D03*
X0111002Y0079398D03*
X0035402Y0060798D03*
X0030002Y0076398D03*
X0178202Y0052398D03*
X0207602Y0053598D03*
X0213002Y0048198D03*
X0228602Y0050598D03*
X0243002Y0055398D03*
X0246602Y0055398D03*
X0263402Y0062598D03*
X0313802Y0072198D03*
X0243602Y0082398D03*
X0237602Y0079998D03*
X0195002Y0075198D03*
X0397202Y0051198D03*
X0397202Y0017598D03*
M02*
