G75*
%MOIN*%
%OFA0B0*%
%FSLAX25Y25*%
%IPPOS*%
%LPD*%
%AMOC8*
5,1,8,0,0,1.08239X$1,22.5*
%
%ADD10C,0.16248*%
%ADD11C,0.06100*%
%ADD12OC8,0.05900*%
%ADD13C,0.07900*%
%ADD14OC8,0.07100*%
%ADD15OC8,0.06700*%
%ADD16C,0.06700*%
%ADD17OC8,0.05300*%
%ADD18OC8,0.05224*%
%ADD19C,0.07500*%
%ADD20OC8,0.04656*%
D10*
X0022234Y0020985D03*
X0022234Y0202087D03*
X0376565Y0202087D03*
X0376565Y0020985D03*
D11*
X0018297Y0099725D03*
X0018297Y0107599D03*
D12*
X0128573Y0060080D03*
X0128573Y0040080D03*
X0071605Y0190276D03*
X0051605Y0190276D03*
D13*
X0013561Y0170591D03*
X0012561Y0160591D03*
X0013561Y0150591D03*
X0239018Y0143505D03*
X0240018Y0153505D03*
X0240018Y0133505D03*
X0298325Y0048544D03*
X0297325Y0038544D03*
X0298325Y0028544D03*
D14*
X0277510Y0076300D03*
X0277510Y0086300D03*
X0328337Y0104883D03*
X0328337Y0114883D03*
X0376211Y0114331D03*
X0376211Y0104331D03*
X0276447Y0131379D03*
X0266447Y0131379D03*
X0172904Y0103662D03*
X0162904Y0103662D03*
X0065542Y0073229D03*
X0065542Y0063229D03*
X0053731Y0128465D03*
X0043731Y0128465D03*
X0040857Y0158780D03*
X0050857Y0158780D03*
X0115660Y0170591D03*
X0125660Y0170591D03*
D15*
X0156093Y0189213D03*
X0201053Y0142796D03*
X0191526Y0059292D03*
D16*
X0191526Y0069292D03*
X0191053Y0142796D03*
X0156093Y0199213D03*
D17*
X0077195Y0158544D03*
X0067195Y0158544D03*
D18*
X0228770Y0049296D03*
X0238770Y0049296D03*
X0248770Y0049296D03*
X0238770Y0044296D03*
X0238770Y0034296D03*
X0248770Y0034296D03*
X0248770Y0024296D03*
X0248770Y0024296D03*
X0238770Y0024296D03*
X0238770Y0024296D03*
X0228770Y0024296D03*
X0228770Y0024296D03*
X0228770Y0014296D03*
X0238770Y0014296D03*
X0248770Y0014296D03*
X0228770Y0034296D03*
D19*
X0346644Y0064883D03*
X0374203Y0064883D03*
X0374203Y0159371D03*
X0346644Y0159371D03*
D20*
X0303888Y0186339D03*
X0293888Y0186339D03*
X0283888Y0186339D03*
M02*
