%
M48
M72
T01C0.0138
T02C0.0315
T03C0.0320
T04C0.0335
T05C0.0354
T06C0.0394
T07C0.0400
T08C0.0551
T09C0.0669
T10C0.0700
T11C0.0984
%
T01
X2880Y1700
X3360Y2180
X7200Y3320
X7860Y2960
X9060Y4220
X9720Y4220
X10320Y4820
X11700Y4340
X13380Y4580
X17340Y4640
X17580Y3980
X18480Y3980
X20880Y4100
X22080Y3620
X26340Y3260
X27120Y4100
X30660Y3860
X35280Y2900
X32580Y1760
X28440Y2120
X27480Y2360
X27000Y2240
X23640Y1760
X14820Y3440
X14460Y3440
X12120Y3500
X13260Y2780
X12840Y2060
X8100Y4760
X8640Y5300
X8820Y6080
X10800Y7460
X9420Y7820
X9000Y8120
X10260Y8000
X11100Y7940
X3540Y6080
X3000Y7640
X17820Y5240
X20760Y5360
X21300Y4820
X22860Y5060
X24300Y5540
X24660Y5540
X26340Y6260
X31380Y7220
X24360Y8240
X23760Y8000
X19500Y7520
X39720Y5120
X39720Y1760
T02
X16871Y7923
X16083Y7923
T03
X32183Y5777
X32183Y4777
X32262Y3433
X32262Y2433
T04
X21513Y3001
X20017Y3001
T05
X10686Y8064
X8009Y8064
X5568Y8064
X2891Y8064
X30844Y8064
X33521Y8064
T06
X22340Y4607
X20765Y4607
X19190Y4607
T07
X29913Y3494
X29913Y2354
T08
X22734Y8544
X18797Y8544
T09
X5258Y5277
X2502Y5277
T10
X36033Y3437
X38788Y3437
X38788Y7237
X36033Y7237
T11
X30214Y5277
X11316Y5277
M30
