G75*
%MOIN*%
%OFA0B0*%
%FSLAX25Y25*%
%IPPOS*%
%LPD*%
%AMOC8*
5,1,8,0,0,1.08239X$1,22.5*
%
%ADD10C,0.08374*%
%ADD11OC8,0.06800*%
%ADD12C,0.06800*%
%ADD13OC8,0.05300*%
%ADD14C,0.05300*%
%ADD15R,0.06500X0.13000*%
%ADD16C,0.05224*%
%ADD17C,0.05500*%
%ADD18C,0.06100*%
%ADD19C,0.07587*%
%ADD20C,0.08768*%
%ADD21C,0.04043*%
%ADD22C,0.03200*%
D10*
X0096236Y0048933D03*
X0304898Y0048933D03*
D11*
X0188476Y0078016D03*
X0139110Y0030594D03*
D12*
X0139110Y0020594D03*
X0188476Y0068016D03*
D13*
X0198634Y0075315D03*
X0228634Y0075315D03*
X0234894Y0050752D03*
X0234815Y0037386D03*
X0234539Y0023126D03*
X0264539Y0023126D03*
X0276413Y0022976D03*
X0296413Y0022976D03*
X0307201Y0023039D03*
X0327201Y0023039D03*
X0306276Y0037319D03*
X0322882Y0041870D03*
X0322882Y0051870D03*
X0276276Y0037319D03*
X0264815Y0037386D03*
X0264894Y0050752D03*
X0186000Y0050697D03*
X0185961Y0038008D03*
X0185646Y0023492D03*
X0155646Y0023492D03*
X0155961Y0038008D03*
X0156000Y0050697D03*
X0097720Y0064169D03*
X0097555Y0077209D03*
X0067555Y0077209D03*
X0048701Y0077642D03*
X0038701Y0077642D03*
X0067720Y0064169D03*
D14*
X0237311Y0070553D02*
X0237311Y0075353D01*
X0247311Y0075353D02*
X0247311Y0070553D01*
X0257311Y0070553D02*
X0257311Y0075353D01*
D15*
X0058448Y0034553D03*
X0054406Y0063053D03*
X0038657Y0063053D03*
X0026846Y0063053D03*
X0340954Y0052364D03*
X0344996Y0023864D03*
X0360744Y0023864D03*
X0372555Y0023864D03*
D16*
X0378854Y0038114D03*
X0351295Y0038114D03*
X0048106Y0048803D03*
X0020547Y0048803D03*
D17*
X0108488Y0047850D03*
X0108488Y0057850D03*
X0108488Y0067850D03*
X0108488Y0077850D03*
X0138488Y0077850D03*
X0138488Y0067850D03*
X0138488Y0057850D03*
X0138488Y0047850D03*
D18*
X0207811Y0020614D03*
X0215685Y0020614D03*
D19*
X0211709Y0044209D03*
X0221512Y0063854D03*
X0201906Y0063854D03*
D20*
X0273598Y0072366D03*
X0297220Y0072366D03*
X0346039Y0072366D03*
X0369661Y0072366D03*
D21*
X0376217Y0049110D03*
X0349445Y0049110D03*
X0055449Y0048992D03*
X0028677Y0048992D03*
D22*
X0046163Y0041942D03*
X0101659Y0016969D03*
X0146056Y0029455D03*
X0145362Y0048185D03*
X0120389Y0060672D03*
X0211264Y0033617D03*
X0339598Y0018356D03*
X0355554Y0029455D03*
M02*
