G75*
%MOIN*%
%OFA0B0*%
%FSLAX25Y25*%
%IPPOS*%
%LPD*%
%AMOC8*
5,1,8,0,0,1.08239X$1,22.5*
%
%ADD10R,0.04331X0.03937*%
%ADD11R,0.03937X0.04331*%
%ADD12R,0.02362X0.08661*%
%ADD13C,0.05600*%
%ADD14R,0.05512X0.04331*%
%ADD15R,0.06299X0.07087*%
%ADD16OC8,0.05400*%
%ADD17R,0.03937X0.05512*%
%ADD18R,0.07087X0.06299*%
%ADD19C,0.07400*%
%ADD20OC8,0.06600*%
%ADD21OC8,0.06200*%
%ADD22C,0.06200*%
%ADD23R,0.06000X0.12500*%
%ADD24OC8,0.04800*%
%ADD25OC8,0.04724*%
%ADD26OC8,0.04156*%
%ADD27C,0.01600*%
%ADD28C,0.02700*%
D10*
X0085227Y0049135D03*
X0085227Y0055828D03*
X0128534Y0072757D03*
X0128534Y0079450D03*
X0167904Y0044017D03*
X0167904Y0037324D03*
X0242707Y0076694D03*
X0242707Y0083387D03*
X0289951Y0088505D03*
X0289951Y0095198D03*
X0337195Y0104253D03*
X0337195Y0110946D03*
X0140345Y0194804D03*
X0140345Y0201497D03*
X0140345Y0222363D03*
X0140345Y0229056D03*
X0085227Y0181812D03*
X0085227Y0175119D03*
D11*
X0057077Y0111536D03*
X0050384Y0111536D03*
X0199990Y0107599D03*
X0206683Y0107599D03*
X0259045Y0135158D03*
X0265738Y0135158D03*
X0314164Y0229646D03*
X0320857Y0229646D03*
D12*
X0160030Y0150800D03*
X0155030Y0150800D03*
X0150030Y0150800D03*
X0145030Y0150800D03*
X0145030Y0130328D03*
X0150030Y0130328D03*
X0155030Y0130328D03*
X0160030Y0130328D03*
D13*
X0014360Y0111536D03*
X0014360Y0103662D03*
D14*
X0057668Y0217835D03*
X0057668Y0225709D03*
X0258455Y0221772D03*
X0258455Y0213898D03*
D15*
X0204912Y0154843D03*
X0193888Y0154843D03*
X0173416Y0107599D03*
X0162392Y0107599D03*
D16*
X0040108Y0190276D03*
X0020108Y0190276D03*
D17*
X0120857Y0120091D03*
X0124597Y0111430D03*
X0117116Y0111430D03*
X0092904Y0099331D03*
X0085423Y0099331D03*
X0089164Y0107993D03*
X0294282Y0127572D03*
X0301762Y0127572D03*
X0298022Y0136233D03*
D18*
X0199400Y0212324D03*
X0199400Y0223347D03*
X0116723Y0046182D03*
X0116723Y0035158D03*
D19*
X0239270Y0115158D03*
X0238270Y0125158D03*
X0239270Y0135158D03*
X0312577Y0055985D03*
X0311577Y0045985D03*
X0312577Y0035985D03*
X0010423Y0140206D03*
X0010423Y0151606D03*
D20*
X0061605Y0047481D03*
X0061605Y0057481D03*
X0061605Y0085158D03*
X0051605Y0085158D03*
X0108849Y0081103D03*
X0108849Y0071103D03*
X0191526Y0049607D03*
X0191526Y0039607D03*
X0202274Y0080040D03*
X0212274Y0080040D03*
X0257392Y0115473D03*
X0267392Y0115473D03*
X0266329Y0088977D03*
X0266329Y0078977D03*
X0313573Y0090788D03*
X0313573Y0100788D03*
X0360817Y0102599D03*
X0360817Y0112599D03*
X0326447Y0206024D03*
X0316447Y0206024D03*
X0163967Y0203150D03*
X0163967Y0193150D03*
X0163967Y0224646D03*
X0163967Y0234646D03*
X0108849Y0183465D03*
X0108849Y0173465D03*
X0054794Y0162717D03*
X0044794Y0162717D03*
D21*
X0081290Y0216772D03*
X0204400Y0131221D03*
X0172904Y0080040D03*
X0140345Y0035670D03*
X0226959Y0212835D03*
X0282077Y0212835D03*
D22*
X0282077Y0222835D03*
X0226959Y0222835D03*
X0194400Y0131221D03*
X0162904Y0080040D03*
X0140345Y0045670D03*
X0081290Y0226772D03*
D23*
X0341337Y0171656D03*
X0377904Y0171656D03*
X0388826Y0171656D03*
X0370093Y0140046D03*
X0377904Y0077168D03*
X0388826Y0077168D03*
X0370093Y0045558D03*
X0341337Y0077168D03*
D24*
X0054794Y0139095D03*
X0044794Y0139095D03*
D25*
X0236644Y0053233D03*
X0246644Y0053233D03*
X0246644Y0048233D03*
X0256644Y0053233D03*
X0256644Y0038233D03*
X0246644Y0038233D03*
X0236644Y0038233D03*
X0236644Y0028233D03*
X0236644Y0028233D03*
X0246644Y0028233D03*
X0246644Y0028233D03*
X0256644Y0028233D03*
X0256644Y0028233D03*
X0256644Y0018233D03*
X0246644Y0018233D03*
X0236644Y0018233D03*
D26*
X0103101Y0143032D03*
X0093101Y0143032D03*
X0083101Y0143032D03*
X0287825Y0174528D03*
X0297825Y0174528D03*
X0307825Y0174528D03*
D27*
X0306549Y0174100D01*
X0306549Y0145300D01*
X0298549Y0137300D01*
X0298022Y0136233D01*
X0296949Y0137300D01*
X0268149Y0137300D01*
X0266549Y0135700D01*
X0265738Y0135158D01*
X0266549Y0134100D01*
X0266549Y0116500D01*
X0267392Y0115473D01*
X0266549Y0114900D01*
X0266549Y0089300D01*
X0266329Y0088977D01*
X0264949Y0087700D01*
X0261749Y0084500D01*
X0244149Y0084500D01*
X0242707Y0083387D01*
X0244149Y0078100D02*
X0242707Y0076694D01*
X0244149Y0078100D02*
X0264949Y0078100D01*
X0266329Y0078977D01*
X0266549Y0079700D01*
X0280949Y0079700D01*
X0288949Y0087700D01*
X0289951Y0088505D01*
X0290549Y0089300D01*
X0312949Y0089300D01*
X0313573Y0090788D01*
X0308149Y0095700D02*
X0312949Y0100500D01*
X0313573Y0100788D01*
X0312949Y0102100D01*
X0303349Y0111700D01*
X0303349Y0126100D01*
X0301762Y0127572D01*
X0303349Y0127700D01*
X0312949Y0137300D01*
X0312949Y0177300D01*
X0309749Y0180500D01*
X0306549Y0180500D01*
X0301749Y0175700D01*
X0298549Y0175700D01*
X0297825Y0174528D01*
X0328949Y0159700D02*
X0340149Y0170900D01*
X0341337Y0171656D01*
X0354549Y0172500D02*
X0327349Y0199700D01*
X0295349Y0199700D01*
X0282549Y0212500D01*
X0282077Y0212835D01*
X0280949Y0214100D01*
X0258549Y0214100D01*
X0258455Y0213898D01*
X0256949Y0214100D01*
X0228149Y0214100D01*
X0226959Y0212835D01*
X0226549Y0212500D01*
X0200949Y0212500D01*
X0199400Y0212324D01*
X0199349Y0210900D01*
X0181749Y0193300D01*
X0164149Y0193300D01*
X0163967Y0193150D01*
X0162549Y0193300D01*
X0141749Y0193300D01*
X0140345Y0194804D01*
X0135349Y0191700D02*
X0135349Y0225300D01*
X0082549Y0225300D01*
X0081290Y0226772D01*
X0080949Y0226900D01*
X0058549Y0226900D01*
X0057668Y0225709D01*
X0056949Y0226900D01*
X0040949Y0210900D01*
X0040949Y0191700D01*
X0040108Y0190276D01*
X0032949Y0174100D02*
X0020149Y0186900D01*
X0020149Y0190100D01*
X0020108Y0190276D01*
X0032949Y0174100D02*
X0010549Y0151700D01*
X0010423Y0151606D01*
X0010423Y0140206D02*
X0010549Y0138900D01*
X0013749Y0135700D01*
X0013749Y0134100D01*
X0048949Y0134100D01*
X0053749Y0138900D01*
X0054794Y0139095D01*
X0055349Y0138900D01*
X0084149Y0110100D01*
X0084149Y0100500D01*
X0085423Y0099331D01*
X0088949Y0094100D02*
X0092149Y0097300D01*
X0092149Y0098900D01*
X0092904Y0099331D01*
X0093749Y0100500D01*
X0093749Y0103700D01*
X0109749Y0119700D01*
X0103349Y0126100D01*
X0103349Y0142100D01*
X0103101Y0143032D01*
X0101749Y0148500D02*
X0096949Y0143700D01*
X0093749Y0143700D01*
X0093101Y0143032D01*
X0101749Y0148500D02*
X0104949Y0148500D01*
X0125749Y0127700D01*
X0125749Y0111700D01*
X0124597Y0111430D01*
X0125749Y0110100D01*
X0125749Y0079700D01*
X0127349Y0079700D01*
X0128534Y0079450D01*
X0125749Y0079700D02*
X0117749Y0079700D01*
X0117749Y0047700D01*
X0116723Y0046182D01*
X0117749Y0046100D01*
X0140149Y0046100D01*
X0140345Y0045670D01*
X0146549Y0047700D02*
X0146549Y0041300D01*
X0149749Y0038100D01*
X0167349Y0038100D01*
X0167904Y0037324D01*
X0168949Y0038100D01*
X0191349Y0038100D01*
X0191526Y0039607D01*
X0186549Y0044500D02*
X0191349Y0049300D01*
X0191526Y0049607D01*
X0192949Y0049300D01*
X0197749Y0044500D01*
X0197749Y0036500D01*
X0189749Y0028500D01*
X0112949Y0028500D01*
X0101749Y0039700D01*
X0101749Y0082900D01*
X0116149Y0097300D01*
X0116149Y0110100D01*
X0117116Y0111430D01*
X0116149Y0111700D01*
X0112949Y0114900D01*
X0111349Y0114900D01*
X0109749Y0119700D02*
X0119349Y0119700D01*
X0120857Y0120091D01*
X0133749Y0129300D02*
X0133749Y0076500D01*
X0128949Y0071700D01*
X0128534Y0072757D01*
X0128949Y0071700D02*
X0128949Y0065300D01*
X0146549Y0047700D01*
X0146549Y0041300D02*
X0141749Y0036500D01*
X0140345Y0035670D01*
X0140149Y0034900D01*
X0117749Y0034900D01*
X0116723Y0035158D01*
X0116149Y0036500D01*
X0109749Y0042900D01*
X0109749Y0070100D01*
X0108849Y0071103D01*
X0109749Y0079700D02*
X0108849Y0081103D01*
X0109749Y0079700D02*
X0117749Y0079700D01*
X0088949Y0094100D02*
X0058549Y0094100D01*
X0058549Y0110100D01*
X0057077Y0111536D01*
X0050549Y0110100D02*
X0050384Y0111536D01*
X0050549Y0110100D02*
X0050549Y0103700D01*
X0015349Y0103700D01*
X0014360Y0103662D01*
X0014360Y0111536D02*
X0013749Y0111700D01*
X0013749Y0134100D01*
X0044794Y0139095D02*
X0045749Y0140500D01*
X0045749Y0153300D01*
X0053749Y0161300D01*
X0054794Y0162717D01*
X0045749Y0162900D02*
X0044794Y0162717D01*
X0044149Y0162900D01*
X0032949Y0174100D01*
X0045749Y0162900D02*
X0063349Y0180500D01*
X0084149Y0180500D01*
X0085227Y0181812D01*
X0085749Y0182100D01*
X0108149Y0182100D01*
X0108849Y0183465D01*
X0108149Y0174100D02*
X0108849Y0173465D01*
X0108149Y0174100D02*
X0085749Y0174100D01*
X0085227Y0175119D01*
X0084149Y0174100D01*
X0084149Y0143700D01*
X0083101Y0143032D01*
X0133749Y0129300D02*
X0141749Y0137300D01*
X0157749Y0137300D01*
X0159349Y0135700D01*
X0159349Y0130900D01*
X0160030Y0130328D01*
X0156149Y0129300D02*
X0155030Y0130328D01*
X0156149Y0129300D02*
X0156149Y0119700D01*
X0149749Y0119700D02*
X0160949Y0108500D01*
X0162392Y0107599D01*
X0162549Y0106900D01*
X0162549Y0081300D01*
X0162904Y0080040D01*
X0172904Y0080040D02*
X0173749Y0081300D01*
X0173749Y0106900D01*
X0173416Y0107599D01*
X0173749Y0108500D01*
X0199349Y0108500D01*
X0199990Y0107599D01*
X0200949Y0106900D01*
X0200949Y0081300D01*
X0202274Y0080040D01*
X0207349Y0086100D02*
X0212149Y0081300D01*
X0212274Y0080040D01*
X0213749Y0079700D01*
X0236149Y0057300D01*
X0236149Y0054100D01*
X0236644Y0053233D01*
X0236149Y0052500D01*
X0236149Y0039700D01*
X0236644Y0038233D01*
X0236149Y0038100D01*
X0236149Y0028500D01*
X0236644Y0028233D01*
X0236149Y0026900D01*
X0236149Y0018900D01*
X0236644Y0018233D01*
X0246644Y0018233D02*
X0247349Y0018900D01*
X0247349Y0026900D01*
X0246644Y0028233D01*
X0247349Y0028500D01*
X0247349Y0038100D01*
X0246644Y0038233D01*
X0247349Y0039700D01*
X0247349Y0047700D01*
X0246644Y0048233D01*
X0247349Y0049300D01*
X0247349Y0052500D01*
X0246644Y0053233D01*
X0207349Y0086100D02*
X0207349Y0106900D01*
X0206683Y0107599D01*
X0207349Y0108500D01*
X0202549Y0113300D01*
X0188149Y0113300D01*
X0156149Y0145300D01*
X0156149Y0150100D01*
X0155030Y0150800D01*
X0160030Y0150800D02*
X0160949Y0151700D01*
X0186549Y0151700D01*
X0192949Y0154900D02*
X0189749Y0158100D01*
X0152949Y0158100D01*
X0149749Y0154900D01*
X0149749Y0151700D01*
X0150030Y0150800D01*
X0145030Y0150800D02*
X0144949Y0151700D01*
X0144949Y0182100D01*
X0135349Y0191700D01*
X0140345Y0201497D02*
X0141749Y0202900D01*
X0162549Y0202900D01*
X0163967Y0203150D01*
X0164149Y0204500D01*
X0164149Y0223700D01*
X0163967Y0224646D01*
X0164149Y0223700D02*
X0199349Y0223700D01*
X0199400Y0223347D01*
X0200949Y0223700D01*
X0226549Y0223700D01*
X0226959Y0222835D01*
X0228149Y0222100D01*
X0256949Y0222100D01*
X0258455Y0221772D01*
X0258549Y0222100D01*
X0280949Y0222100D01*
X0282077Y0222835D01*
X0282549Y0222100D01*
X0314549Y0222100D01*
X0314549Y0228500D01*
X0314164Y0229646D01*
X0320857Y0229646D02*
X0320949Y0228500D01*
X0320949Y0210900D01*
X0325749Y0206100D01*
X0326447Y0206024D01*
X0316447Y0206024D02*
X0316149Y0206100D01*
X0314549Y0207700D01*
X0314549Y0222100D01*
X0354549Y0172500D02*
X0376949Y0172500D01*
X0377904Y0171656D01*
X0378549Y0170900D01*
X0378549Y0159700D01*
X0380149Y0158100D01*
X0380149Y0122900D01*
X0360949Y0103700D01*
X0360817Y0102599D01*
X0360949Y0102100D01*
X0376949Y0086100D01*
X0376949Y0078100D01*
X0377904Y0077168D01*
X0388149Y0076500D02*
X0388149Y0073300D01*
X0381749Y0066900D01*
X0360949Y0066900D01*
X0340149Y0046100D01*
X0312949Y0046100D01*
X0311577Y0045985D01*
X0304949Y0034900D02*
X0304949Y0057300D01*
X0316149Y0068500D01*
X0346549Y0068500D01*
X0348149Y0070100D01*
X0348149Y0084500D01*
X0332149Y0100500D01*
X0332149Y0114900D01*
X0356149Y0138900D01*
X0368949Y0138900D01*
X0370093Y0140046D01*
X0360817Y0112599D02*
X0359349Y0111700D01*
X0338549Y0111700D01*
X0337195Y0110946D01*
X0337195Y0104253D02*
X0338549Y0103700D01*
X0359349Y0103700D01*
X0360817Y0102599D01*
X0340149Y0087700D02*
X0328949Y0098900D01*
X0328949Y0159700D01*
X0293749Y0127700D02*
X0288949Y0132500D01*
X0293749Y0127700D02*
X0294282Y0127572D01*
X0259045Y0135158D02*
X0258549Y0134100D01*
X0258549Y0116500D01*
X0257392Y0115473D01*
X0256949Y0116500D01*
X0239349Y0116500D01*
X0239270Y0115158D01*
X0238270Y0125158D02*
X0237749Y0126100D01*
X0210549Y0126100D01*
X0205749Y0130900D01*
X0204400Y0131221D01*
X0205749Y0132500D01*
X0205749Y0153300D01*
X0204912Y0154843D01*
X0194549Y0153300D02*
X0193888Y0154843D01*
X0192949Y0154900D01*
X0194549Y0153300D02*
X0194549Y0132500D01*
X0194400Y0131221D01*
X0150030Y0130328D02*
X0149749Y0129300D01*
X0149749Y0119700D01*
X0150030Y0130328D02*
X0149749Y0130900D01*
X0144949Y0130900D01*
X0145030Y0130328D01*
X0061605Y0085158D02*
X0061749Y0084500D01*
X0061749Y0058900D01*
X0061605Y0057481D01*
X0061749Y0057300D01*
X0084149Y0057300D01*
X0085227Y0055828D01*
X0085227Y0049135D02*
X0084149Y0047700D01*
X0061749Y0047700D01*
X0061605Y0047481D01*
X0061605Y0085158D02*
X0060149Y0086100D01*
X0058549Y0087700D01*
X0058549Y0094100D01*
X0050549Y0086100D02*
X0051605Y0085158D01*
X0050549Y0086100D02*
X0050549Y0103700D01*
X0167904Y0044017D02*
X0168949Y0044500D01*
X0186549Y0044500D01*
X0289951Y0095198D02*
X0290549Y0095700D01*
X0308149Y0095700D01*
X0340149Y0087700D02*
X0340149Y0078100D01*
X0341337Y0077168D01*
X0370093Y0045558D02*
X0368949Y0044500D01*
X0343349Y0044500D01*
X0327349Y0028500D01*
X0311349Y0028500D01*
X0304949Y0034900D01*
X0388149Y0076500D02*
X0388826Y0077168D01*
X0162549Y0233300D02*
X0159349Y0230100D01*
X0141749Y0230100D01*
X0140345Y0229056D01*
X0140149Y0230100D01*
X0135349Y0225300D01*
X0140149Y0222100D02*
X0140345Y0222363D01*
X0140149Y0222100D02*
X0140149Y0202900D01*
X0140345Y0201497D01*
X0162549Y0233300D02*
X0163967Y0234646D01*
X0081290Y0216772D02*
X0080949Y0217300D01*
X0058549Y0217300D01*
X0057668Y0217835D01*
D28*
X0186549Y0151700D03*
X0156149Y0119700D03*
X0111349Y0114900D03*
X0288949Y0132500D03*
M02*
