%
M48
M72
T01C0.0138
T02C0.0315
T03C0.0320
T04C0.0335
T05C0.0354
T06C0.0394
T07C0.0400
T08C0.0551
T09C0.0669
T10C0.0700
T11C0.0984
%
T01
X4800Y1700
X1800Y2480
X3540Y3020
X3840Y2780
X5220Y2780
X7860Y2900
X8700Y3260
X9240Y2900
X10620Y2900
X11700Y3020
X11940Y3320
X15060Y3440
X17220Y3140
X15840Y2660
X18420Y2060
X21480Y2300
X19620Y2960
X20700Y3800
X21540Y4280
X23400Y3560
X24120Y3380
X25260Y3500
X26520Y4160
X27480Y4160
X28740Y3920
X30240Y4400
X28500Y4700
X27840Y4700
X26700Y4700
X26700Y5540
X25020Y5660
X25020Y6020
X23400Y5360
X22620Y5360
X20700Y6200
X19320Y5780
X17940Y5300
X15660Y4640
X14640Y4340
X13140Y4700
X12780Y4340
X12060Y5240
X10560Y5360
X9540Y6140
X8940Y6740
X7380Y6740
X9720Y7880
X10260Y8420
X10860Y8840
X11520Y7160
X13140Y7160
X13680Y6620
X19500Y7520
X22620Y7040
X22020Y6440
X23880Y8300
X25740Y8480
X30720Y8480
X31200Y6860
X31800Y6620
X30960Y5780
X38940Y4760
X35520Y2900
X36060Y2360
X36960Y1820
X28440Y1940
X27480Y2180
X17640Y3920
X8760Y4340
X3120Y6740
X8820Y1760
T02
X16083Y7923
X16871Y7923
T03
X32183Y5777
X32183Y4777
X32262Y3433
X32262Y2433
T04
X21513Y3001
X20017Y3001
T05
X10686Y8064
X8009Y8064
X5568Y8064
X2891Y8064
X30844Y8064
X33521Y8064
T06
X22340Y4607
X20765Y4607
X19190Y4607
T07
X29913Y3494
X29913Y2354
T08
X22734Y8544
X18797Y8544
T09
X5258Y5277
X2502Y5277
T10
X36033Y3437
X38788Y3437
X38788Y7237
X36033Y7237
T11
X30214Y5277
X11316Y5277
M30
