G75*
%MOIN*%
%OFA0B0*%
%FSLAX25Y25*%
%IPPOS*%
%LPD*%
%AMOC8*
5,1,8,0,0,1.08239X$1,22.5*
%
%ADD10C,0.00500*%
%ADD11C,0.00400*%
%ADD12C,0.00800*%
%ADD13C,0.00276*%
%ADD14R,0.03937X0.05906*%
%ADD15R,0.05906X0.05906*%
%ADD16C,0.01000*%
D10*
X0187967Y0049744D02*
X0227337Y0049744D01*
X0227337Y0089114D01*
X0187967Y0089114D01*
X0187967Y0049744D01*
X0161620Y0070173D02*
X0157683Y0070173D01*
X0157683Y0072142D01*
X0147841Y0072142D01*
X0147841Y0089858D01*
X0171463Y0089858D01*
X0171463Y0072142D01*
X0161620Y0072142D01*
X0161620Y0070173D01*
X0186451Y0079272D02*
X0186457Y0079792D01*
X0186477Y0080312D01*
X0186508Y0080832D01*
X0186553Y0081350D01*
X0186610Y0081867D01*
X0186680Y0082383D01*
X0186763Y0082897D01*
X0186858Y0083408D01*
X0186966Y0083917D01*
X0187086Y0084423D01*
X0187219Y0084927D01*
X0187364Y0085426D01*
X0187521Y0085922D01*
X0187690Y0086414D01*
X0187872Y0086902D01*
X0188065Y0087385D01*
X0188270Y0087864D01*
X0188487Y0088337D01*
X0188715Y0088804D01*
X0188954Y0089266D01*
X0189205Y0089722D01*
X0189467Y0090171D01*
X0189740Y0090614D01*
X0190024Y0091051D01*
X0190318Y0091480D01*
X0190623Y0091901D01*
X0190938Y0092316D01*
X0191263Y0092722D01*
X0191598Y0093120D01*
X0191943Y0093510D01*
X0192297Y0093891D01*
X0192661Y0094263D01*
X0193033Y0094627D01*
X0193414Y0094981D01*
X0193804Y0095326D01*
X0194202Y0095661D01*
X0194608Y0095986D01*
X0195023Y0096301D01*
X0195444Y0096606D01*
X0195873Y0096900D01*
X0196310Y0097184D01*
X0196753Y0097457D01*
X0197202Y0097719D01*
X0197658Y0097970D01*
X0198120Y0098209D01*
X0198587Y0098437D01*
X0199060Y0098654D01*
X0199539Y0098859D01*
X0200022Y0099052D01*
X0200510Y0099234D01*
X0201002Y0099403D01*
X0201498Y0099560D01*
X0201997Y0099705D01*
X0202501Y0099838D01*
X0203007Y0099958D01*
X0203516Y0100066D01*
X0204027Y0100161D01*
X0204541Y0100244D01*
X0205057Y0100314D01*
X0205574Y0100371D01*
X0206092Y0100416D01*
X0206612Y0100447D01*
X0207132Y0100467D01*
X0207652Y0100473D01*
X0208172Y0100467D01*
X0208692Y0100447D01*
X0209212Y0100416D01*
X0209730Y0100371D01*
X0210247Y0100314D01*
X0210763Y0100244D01*
X0211277Y0100161D01*
X0211788Y0100066D01*
X0212297Y0099958D01*
X0212803Y0099838D01*
X0213307Y0099705D01*
X0213806Y0099560D01*
X0214302Y0099403D01*
X0214794Y0099234D01*
X0215282Y0099052D01*
X0215765Y0098859D01*
X0216244Y0098654D01*
X0216717Y0098437D01*
X0217184Y0098209D01*
X0217646Y0097970D01*
X0218102Y0097719D01*
X0218551Y0097457D01*
X0218994Y0097184D01*
X0219431Y0096900D01*
X0219860Y0096606D01*
X0220281Y0096301D01*
X0220696Y0095986D01*
X0221102Y0095661D01*
X0221500Y0095326D01*
X0221890Y0094981D01*
X0222271Y0094627D01*
X0222643Y0094263D01*
X0223007Y0093891D01*
X0223361Y0093510D01*
X0223706Y0093120D01*
X0224041Y0092722D01*
X0224366Y0092316D01*
X0224681Y0091901D01*
X0224986Y0091480D01*
X0225280Y0091051D01*
X0225564Y0090614D01*
X0225837Y0090171D01*
X0226099Y0089722D01*
X0226350Y0089266D01*
X0226589Y0088804D01*
X0226817Y0088337D01*
X0227034Y0087864D01*
X0227239Y0087385D01*
X0227432Y0086902D01*
X0227614Y0086414D01*
X0227783Y0085922D01*
X0227940Y0085426D01*
X0228085Y0084927D01*
X0228218Y0084423D01*
X0228338Y0083917D01*
X0228446Y0083408D01*
X0228541Y0082897D01*
X0228624Y0082383D01*
X0228694Y0081867D01*
X0228751Y0081350D01*
X0228796Y0080832D01*
X0228827Y0080312D01*
X0228847Y0079792D01*
X0228853Y0079272D01*
X0228847Y0078752D01*
X0228827Y0078232D01*
X0228796Y0077712D01*
X0228751Y0077194D01*
X0228694Y0076677D01*
X0228624Y0076161D01*
X0228541Y0075647D01*
X0228446Y0075136D01*
X0228338Y0074627D01*
X0228218Y0074121D01*
X0228085Y0073617D01*
X0227940Y0073118D01*
X0227783Y0072622D01*
X0227614Y0072130D01*
X0227432Y0071642D01*
X0227239Y0071159D01*
X0227034Y0070680D01*
X0226817Y0070207D01*
X0226589Y0069740D01*
X0226350Y0069278D01*
X0226099Y0068822D01*
X0225837Y0068373D01*
X0225564Y0067930D01*
X0225280Y0067493D01*
X0224986Y0067064D01*
X0224681Y0066643D01*
X0224366Y0066228D01*
X0224041Y0065822D01*
X0223706Y0065424D01*
X0223361Y0065034D01*
X0223007Y0064653D01*
X0222643Y0064281D01*
X0222271Y0063917D01*
X0221890Y0063563D01*
X0221500Y0063218D01*
X0221102Y0062883D01*
X0220696Y0062558D01*
X0220281Y0062243D01*
X0219860Y0061938D01*
X0219431Y0061644D01*
X0218994Y0061360D01*
X0218551Y0061087D01*
X0218102Y0060825D01*
X0217646Y0060574D01*
X0217184Y0060335D01*
X0216717Y0060107D01*
X0216244Y0059890D01*
X0215765Y0059685D01*
X0215282Y0059492D01*
X0214794Y0059310D01*
X0214302Y0059141D01*
X0213806Y0058984D01*
X0213307Y0058839D01*
X0212803Y0058706D01*
X0212297Y0058586D01*
X0211788Y0058478D01*
X0211277Y0058383D01*
X0210763Y0058300D01*
X0210247Y0058230D01*
X0209730Y0058173D01*
X0209212Y0058128D01*
X0208692Y0058097D01*
X0208172Y0058077D01*
X0207652Y0058071D01*
X0207132Y0058077D01*
X0206612Y0058097D01*
X0206092Y0058128D01*
X0205574Y0058173D01*
X0205057Y0058230D01*
X0204541Y0058300D01*
X0204027Y0058383D01*
X0203516Y0058478D01*
X0203007Y0058586D01*
X0202501Y0058706D01*
X0201997Y0058839D01*
X0201498Y0058984D01*
X0201002Y0059141D01*
X0200510Y0059310D01*
X0200022Y0059492D01*
X0199539Y0059685D01*
X0199060Y0059890D01*
X0198587Y0060107D01*
X0198120Y0060335D01*
X0197658Y0060574D01*
X0197202Y0060825D01*
X0196753Y0061087D01*
X0196310Y0061360D01*
X0195873Y0061644D01*
X0195444Y0061938D01*
X0195023Y0062243D01*
X0194608Y0062558D01*
X0194202Y0062883D01*
X0193804Y0063218D01*
X0193414Y0063563D01*
X0193033Y0063917D01*
X0192661Y0064281D01*
X0192297Y0064653D01*
X0191943Y0065034D01*
X0191598Y0065424D01*
X0191263Y0065822D01*
X0190938Y0066228D01*
X0190623Y0066643D01*
X0190318Y0067064D01*
X0190024Y0067493D01*
X0189740Y0067930D01*
X0189467Y0068373D01*
X0189205Y0068822D01*
X0188954Y0069278D01*
X0188715Y0069740D01*
X0188487Y0070207D01*
X0188270Y0070680D01*
X0188065Y0071159D01*
X0187872Y0071642D01*
X0187690Y0072130D01*
X0187521Y0072622D01*
X0187364Y0073118D01*
X0187219Y0073617D01*
X0187086Y0074121D01*
X0186966Y0074627D01*
X0186858Y0075136D01*
X0186763Y0075647D01*
X0186680Y0076161D01*
X0186610Y0076677D01*
X0186553Y0077194D01*
X0186508Y0077712D01*
X0186477Y0078232D01*
X0186457Y0078752D01*
X0186451Y0079272D01*
X0180093Y0079272D02*
X0180101Y0079948D01*
X0180126Y0080624D01*
X0180168Y0081299D01*
X0180226Y0081973D01*
X0180300Y0082646D01*
X0180391Y0083316D01*
X0180499Y0083984D01*
X0180623Y0084648D01*
X0180763Y0085310D01*
X0180919Y0085968D01*
X0181091Y0086622D01*
X0181280Y0087272D01*
X0181484Y0087917D01*
X0181704Y0088556D01*
X0181940Y0089190D01*
X0182191Y0089818D01*
X0182457Y0090440D01*
X0182739Y0091055D01*
X0183036Y0091663D01*
X0183347Y0092263D01*
X0183673Y0092856D01*
X0184014Y0093440D01*
X0184369Y0094016D01*
X0184738Y0094583D01*
X0185120Y0095141D01*
X0185516Y0095689D01*
X0185926Y0096227D01*
X0186349Y0096755D01*
X0186784Y0097273D01*
X0187232Y0097779D01*
X0187692Y0098275D01*
X0188165Y0098759D01*
X0188649Y0099232D01*
X0189145Y0099692D01*
X0189651Y0100140D01*
X0190169Y0100575D01*
X0190697Y0100998D01*
X0191235Y0101408D01*
X0191783Y0101804D01*
X0192341Y0102186D01*
X0192908Y0102555D01*
X0193484Y0102910D01*
X0194068Y0103251D01*
X0194661Y0103577D01*
X0195261Y0103888D01*
X0195869Y0104185D01*
X0196484Y0104467D01*
X0197106Y0104733D01*
X0197734Y0104984D01*
X0198368Y0105220D01*
X0199007Y0105440D01*
X0199652Y0105644D01*
X0200302Y0105833D01*
X0200956Y0106005D01*
X0201614Y0106161D01*
X0202276Y0106301D01*
X0202940Y0106425D01*
X0203608Y0106533D01*
X0204278Y0106624D01*
X0204951Y0106698D01*
X0205625Y0106756D01*
X0206300Y0106798D01*
X0206976Y0106823D01*
X0207652Y0106831D01*
X0208328Y0106823D01*
X0209004Y0106798D01*
X0209679Y0106756D01*
X0210353Y0106698D01*
X0211026Y0106624D01*
X0211696Y0106533D01*
X0212364Y0106425D01*
X0213028Y0106301D01*
X0213690Y0106161D01*
X0214348Y0106005D01*
X0215002Y0105833D01*
X0215652Y0105644D01*
X0216297Y0105440D01*
X0216936Y0105220D01*
X0217570Y0104984D01*
X0218198Y0104733D01*
X0218820Y0104467D01*
X0219435Y0104185D01*
X0220043Y0103888D01*
X0220643Y0103577D01*
X0221236Y0103251D01*
X0221820Y0102910D01*
X0222396Y0102555D01*
X0222963Y0102186D01*
X0223521Y0101804D01*
X0224069Y0101408D01*
X0224607Y0100998D01*
X0225135Y0100575D01*
X0225653Y0100140D01*
X0226159Y0099692D01*
X0226655Y0099232D01*
X0227139Y0098759D01*
X0227612Y0098275D01*
X0228072Y0097779D01*
X0228520Y0097273D01*
X0228955Y0096755D01*
X0229378Y0096227D01*
X0229788Y0095689D01*
X0230184Y0095141D01*
X0230566Y0094583D01*
X0230935Y0094016D01*
X0231290Y0093440D01*
X0231631Y0092856D01*
X0231957Y0092263D01*
X0232268Y0091663D01*
X0232565Y0091055D01*
X0232847Y0090440D01*
X0233113Y0089818D01*
X0233364Y0089190D01*
X0233600Y0088556D01*
X0233820Y0087917D01*
X0234024Y0087272D01*
X0234213Y0086622D01*
X0234385Y0085968D01*
X0234541Y0085310D01*
X0234681Y0084648D01*
X0234805Y0083984D01*
X0234913Y0083316D01*
X0235004Y0082646D01*
X0235078Y0081973D01*
X0235136Y0081299D01*
X0235178Y0080624D01*
X0235203Y0079948D01*
X0235211Y0079272D01*
X0235203Y0078596D01*
X0235178Y0077920D01*
X0235136Y0077245D01*
X0235078Y0076571D01*
X0235004Y0075898D01*
X0234913Y0075228D01*
X0234805Y0074560D01*
X0234681Y0073896D01*
X0234541Y0073234D01*
X0234385Y0072576D01*
X0234213Y0071922D01*
X0234024Y0071272D01*
X0233820Y0070627D01*
X0233600Y0069988D01*
X0233364Y0069354D01*
X0233113Y0068726D01*
X0232847Y0068104D01*
X0232565Y0067489D01*
X0232268Y0066881D01*
X0231957Y0066281D01*
X0231631Y0065688D01*
X0231290Y0065104D01*
X0230935Y0064528D01*
X0230566Y0063961D01*
X0230184Y0063403D01*
X0229788Y0062855D01*
X0229378Y0062317D01*
X0228955Y0061789D01*
X0228520Y0061271D01*
X0228072Y0060765D01*
X0227612Y0060269D01*
X0227139Y0059785D01*
X0226655Y0059312D01*
X0226159Y0058852D01*
X0225653Y0058404D01*
X0225135Y0057969D01*
X0224607Y0057546D01*
X0224069Y0057136D01*
X0223521Y0056740D01*
X0222963Y0056358D01*
X0222396Y0055989D01*
X0221820Y0055634D01*
X0221236Y0055293D01*
X0220643Y0054967D01*
X0220043Y0054656D01*
X0219435Y0054359D01*
X0218820Y0054077D01*
X0218198Y0053811D01*
X0217570Y0053560D01*
X0216936Y0053324D01*
X0216297Y0053104D01*
X0215652Y0052900D01*
X0215002Y0052711D01*
X0214348Y0052539D01*
X0213690Y0052383D01*
X0213028Y0052243D01*
X0212364Y0052119D01*
X0211696Y0052011D01*
X0211026Y0051920D01*
X0210353Y0051846D01*
X0209679Y0051788D01*
X0209004Y0051746D01*
X0208328Y0051721D01*
X0207652Y0051713D01*
X0206976Y0051721D01*
X0206300Y0051746D01*
X0205625Y0051788D01*
X0204951Y0051846D01*
X0204278Y0051920D01*
X0203608Y0052011D01*
X0202940Y0052119D01*
X0202276Y0052243D01*
X0201614Y0052383D01*
X0200956Y0052539D01*
X0200302Y0052711D01*
X0199652Y0052900D01*
X0199007Y0053104D01*
X0198368Y0053324D01*
X0197734Y0053560D01*
X0197106Y0053811D01*
X0196484Y0054077D01*
X0195869Y0054359D01*
X0195261Y0054656D01*
X0194661Y0054967D01*
X0194068Y0055293D01*
X0193484Y0055634D01*
X0192908Y0055989D01*
X0192341Y0056358D01*
X0191783Y0056740D01*
X0191235Y0057136D01*
X0190697Y0057546D01*
X0190169Y0057969D01*
X0189651Y0058404D01*
X0189145Y0058852D01*
X0188649Y0059312D01*
X0188165Y0059785D01*
X0187692Y0060269D01*
X0187232Y0060765D01*
X0186784Y0061271D01*
X0186349Y0061789D01*
X0185926Y0062317D01*
X0185516Y0062855D01*
X0185120Y0063403D01*
X0184738Y0063961D01*
X0184369Y0064528D01*
X0184014Y0065104D01*
X0183673Y0065688D01*
X0183347Y0066281D01*
X0183036Y0066881D01*
X0182739Y0067489D01*
X0182457Y0068104D01*
X0182191Y0068726D01*
X0181940Y0069354D01*
X0181704Y0069988D01*
X0181484Y0070627D01*
X0181280Y0071272D01*
X0181091Y0071922D01*
X0180919Y0072576D01*
X0180763Y0073234D01*
X0180623Y0073896D01*
X0180499Y0074560D01*
X0180391Y0075228D01*
X0180300Y0075898D01*
X0180226Y0076571D01*
X0180168Y0077245D01*
X0180126Y0077920D01*
X0180101Y0078596D01*
X0180093Y0079272D01*
X0110211Y0073752D02*
X0110211Y0087531D01*
X0076746Y0087531D01*
X0076746Y0073752D01*
X0110211Y0073752D01*
X0100172Y0077689D02*
X0100172Y0083594D01*
X0092298Y0083594D01*
X0092298Y0077689D01*
X0094266Y0077689D01*
X0100172Y0077689D01*
X0094266Y0077689D02*
X0094266Y0083594D01*
X0092298Y0083594D02*
X0086392Y0083594D01*
X0086392Y0077689D01*
X0092298Y0077689D01*
X0059030Y0073752D02*
X0025565Y0073752D01*
X0025565Y0087531D01*
X0059030Y0087531D01*
X0059030Y0073752D01*
X0049384Y0077689D02*
X0049384Y0083594D01*
X0043479Y0083594D01*
X0041510Y0083594D01*
X0035605Y0083594D01*
X0035605Y0077689D01*
X0043479Y0077689D01*
X0043479Y0083594D01*
X0041510Y0083594D02*
X0041510Y0077689D01*
X0043479Y0077689D02*
X0049384Y0077689D01*
X0305093Y0073752D02*
X0338557Y0073752D01*
X0338557Y0087531D01*
X0305093Y0087531D01*
X0305093Y0073752D01*
X0315132Y0077689D02*
X0315132Y0083594D01*
X0321038Y0083594D01*
X0323006Y0083594D01*
X0323006Y0077689D01*
X0315132Y0077689D01*
X0321038Y0077689D02*
X0321038Y0083594D01*
X0323006Y0083594D02*
X0328912Y0083594D01*
X0328912Y0077689D01*
X0323006Y0077689D01*
D11*
X0027835Y0018468D02*
X0027502Y0018801D01*
X0027502Y0019469D01*
X0027835Y0019802D01*
X0028169Y0019802D01*
X0028502Y0019469D01*
X0028502Y0019135D01*
X0028502Y0019469D02*
X0028836Y0019802D01*
X0029170Y0019802D01*
X0029503Y0019469D01*
X0029503Y0018801D01*
X0029170Y0018468D01*
X0028502Y0020678D02*
X0028502Y0022012D01*
X0028169Y0022887D02*
X0028169Y0023888D01*
X0028502Y0024222D01*
X0029170Y0024222D01*
X0029503Y0023888D01*
X0029503Y0022887D01*
X0027502Y0022887D01*
X0028169Y0023555D02*
X0027502Y0024222D01*
X0027502Y0025097D02*
X0027502Y0025765D01*
X0027502Y0025431D02*
X0028836Y0025431D01*
X0028836Y0025097D01*
X0029503Y0025431D02*
X0029837Y0025431D01*
X0028836Y0026571D02*
X0028836Y0027571D01*
X0028502Y0027905D01*
X0027502Y0027905D01*
X0027835Y0028780D02*
X0027502Y0029114D01*
X0027502Y0030115D01*
X0027168Y0030115D02*
X0028836Y0030115D01*
X0028836Y0029114D01*
X0028502Y0028780D01*
X0027835Y0028780D01*
X0026834Y0029448D02*
X0026834Y0029781D01*
X0027168Y0030115D01*
X0027502Y0026571D02*
X0028836Y0026571D01*
X0038950Y0036706D02*
X0039684Y0036706D01*
X0040051Y0037073D01*
X0039317Y0037807D02*
X0038950Y0037807D01*
X0038583Y0037440D01*
X0038583Y0037073D01*
X0038950Y0036706D01*
X0038950Y0037807D02*
X0038583Y0038174D01*
X0038583Y0038541D01*
X0038950Y0038908D01*
X0039684Y0038908D01*
X0040051Y0038541D01*
X0040977Y0038908D02*
X0041711Y0038908D01*
X0041344Y0038908D02*
X0041344Y0037073D01*
X0041711Y0036706D01*
X0042078Y0036706D01*
X0042445Y0037073D01*
X0082002Y0046469D02*
X0084003Y0046469D01*
X0083002Y0045468D01*
X0083002Y0046802D01*
X0083002Y0047678D02*
X0083002Y0049012D01*
X0084003Y0049887D02*
X0084003Y0051222D01*
X0084003Y0050555D02*
X0082002Y0050555D01*
X0082002Y0052097D02*
X0082002Y0052765D01*
X0082002Y0052431D02*
X0083336Y0052431D01*
X0083336Y0052097D01*
X0084003Y0052431D02*
X0084337Y0052431D01*
X0083336Y0053571D02*
X0081334Y0053571D01*
X0082002Y0053571D02*
X0082002Y0054571D01*
X0082335Y0054905D01*
X0083002Y0054905D01*
X0083336Y0054571D01*
X0083336Y0053571D01*
X0084003Y0057990D02*
X0084003Y0059325D01*
X0084003Y0058658D02*
X0082002Y0058658D01*
X0082335Y0060200D02*
X0083002Y0060200D01*
X0083336Y0060534D01*
X0083336Y0061201D01*
X0083002Y0061535D01*
X0082669Y0061535D01*
X0082669Y0060200D01*
X0082335Y0060200D02*
X0082002Y0060534D01*
X0082002Y0061201D01*
X0082002Y0062410D02*
X0082002Y0063411D01*
X0082335Y0063745D01*
X0082669Y0063411D01*
X0082669Y0062744D01*
X0083002Y0062410D01*
X0083336Y0062744D01*
X0083336Y0063745D01*
X0083336Y0064620D02*
X0083336Y0065287D01*
X0083670Y0064954D02*
X0082335Y0064954D01*
X0082002Y0065287D01*
X0058503Y0075801D02*
X0058170Y0075468D01*
X0058503Y0075801D02*
X0058503Y0076469D01*
X0058170Y0076802D01*
X0057836Y0076802D01*
X0056502Y0075468D01*
X0056502Y0076802D01*
X0057502Y0077678D02*
X0057502Y0079012D01*
X0058503Y0079887D02*
X0058503Y0081222D01*
X0058503Y0080555D02*
X0056502Y0080555D01*
X0056502Y0082097D02*
X0056502Y0082765D01*
X0056502Y0082431D02*
X0057836Y0082431D01*
X0057836Y0082097D01*
X0058503Y0082431D02*
X0058837Y0082431D01*
X0057836Y0083571D02*
X0057836Y0084571D01*
X0057502Y0084905D01*
X0056835Y0084905D01*
X0056502Y0084571D01*
X0056502Y0083571D01*
X0055834Y0083571D02*
X0057836Y0083571D01*
X0022003Y0081931D02*
X0020002Y0081931D01*
X0020002Y0081597D02*
X0020002Y0082265D01*
X0020335Y0083071D02*
X0021002Y0083071D01*
X0021336Y0083404D01*
X0021336Y0084071D01*
X0021002Y0084405D01*
X0020669Y0084405D01*
X0020669Y0083071D01*
X0020335Y0083071D02*
X0020002Y0083404D01*
X0020002Y0084071D01*
X0020335Y0085280D02*
X0021002Y0085280D01*
X0021336Y0085614D01*
X0021336Y0086281D01*
X0021002Y0086615D01*
X0020669Y0086615D01*
X0020669Y0085280D01*
X0020335Y0085280D02*
X0020002Y0085614D01*
X0020002Y0086281D01*
X0021336Y0087490D02*
X0020002Y0088158D01*
X0021336Y0088825D01*
X0021002Y0089700D02*
X0021336Y0090034D01*
X0021336Y0090701D01*
X0021002Y0091035D01*
X0020669Y0091035D01*
X0020669Y0089700D01*
X0021002Y0089700D02*
X0020335Y0089700D01*
X0020002Y0090034D01*
X0020002Y0090701D01*
X0022003Y0081931D02*
X0022003Y0081597D01*
X0021670Y0080722D02*
X0022003Y0080388D01*
X0022003Y0079721D01*
X0021670Y0079387D01*
X0021336Y0079387D01*
X0021002Y0079721D01*
X0021002Y0080388D01*
X0020669Y0080722D01*
X0020335Y0080722D01*
X0020002Y0080388D01*
X0020002Y0079721D01*
X0020335Y0079387D01*
X0021002Y0078512D02*
X0021002Y0077178D01*
X0020002Y0076302D02*
X0020002Y0074968D01*
X0020002Y0075635D02*
X0022003Y0075635D01*
X0021336Y0074968D01*
X0042126Y0070102D02*
X0042126Y0069735D01*
X0042126Y0069001D02*
X0042126Y0067533D01*
X0042493Y0067533D02*
X0041759Y0067533D01*
X0040897Y0067533D02*
X0039429Y0069001D01*
X0038502Y0068634D02*
X0038135Y0069001D01*
X0037402Y0069001D01*
X0037035Y0068634D01*
X0037035Y0068267D01*
X0038502Y0068267D01*
X0038502Y0067900D02*
X0038502Y0068634D01*
X0038502Y0067900D02*
X0038135Y0067533D01*
X0037402Y0067533D01*
X0036108Y0067533D02*
X0036108Y0069001D01*
X0035374Y0069001D02*
X0035007Y0069001D01*
X0035374Y0069001D02*
X0036108Y0068267D01*
X0039429Y0067533D02*
X0040897Y0069001D01*
X0042126Y0069001D02*
X0042493Y0069001D01*
X0043419Y0069735D02*
X0044153Y0069001D01*
X0044887Y0069735D01*
X0044887Y0067533D01*
X0043419Y0067533D02*
X0043419Y0069735D01*
X0144987Y0079337D02*
X0148056Y0079337D01*
X0146521Y0080871D02*
X0146521Y0077802D01*
X0165840Y0070916D02*
X0165840Y0068714D01*
X0166574Y0068714D02*
X0165106Y0068714D01*
X0166574Y0070182D02*
X0165840Y0070916D01*
X0167500Y0070916D02*
X0167500Y0068714D01*
X0168968Y0070916D01*
X0168968Y0068714D01*
X0169895Y0069081D02*
X0170262Y0068714D01*
X0170995Y0068714D01*
X0171362Y0069081D01*
X0171362Y0070549D01*
X0170995Y0070916D01*
X0170262Y0070916D01*
X0169895Y0070549D01*
X0173987Y0079337D02*
X0177056Y0079337D01*
X0196322Y0047300D02*
X0197790Y0045832D01*
X0197423Y0046199D02*
X0196322Y0045098D01*
X0197790Y0045098D02*
X0197790Y0047300D01*
X0198716Y0046933D02*
X0200184Y0045465D01*
X0199817Y0045098D01*
X0199083Y0045098D01*
X0198716Y0045465D01*
X0198716Y0046933D01*
X0199083Y0047300D01*
X0199817Y0047300D01*
X0200184Y0046933D01*
X0200184Y0045465D01*
X0201110Y0045465D02*
X0201477Y0045098D01*
X0202211Y0045098D01*
X0202578Y0045465D01*
X0202578Y0046199D02*
X0201844Y0046566D01*
X0201477Y0046566D01*
X0201110Y0046199D01*
X0201110Y0045465D01*
X0202578Y0046199D02*
X0202578Y0047300D01*
X0201110Y0047300D01*
X0213216Y0047300D02*
X0213950Y0046933D01*
X0214684Y0046199D01*
X0213583Y0046199D01*
X0213216Y0045832D01*
X0213216Y0045465D01*
X0213583Y0045098D01*
X0214317Y0045098D01*
X0214684Y0045465D01*
X0214684Y0046199D01*
X0215610Y0046199D02*
X0215977Y0045832D01*
X0217078Y0045832D01*
X0216344Y0045832D02*
X0215610Y0045098D01*
X0215610Y0046199D02*
X0215610Y0046933D01*
X0215977Y0047300D01*
X0217078Y0047300D01*
X0217078Y0045098D01*
X0335783Y0056127D02*
X0337985Y0056127D01*
X0337985Y0057228D01*
X0337618Y0057595D01*
X0336884Y0057595D01*
X0336517Y0057228D01*
X0336517Y0056127D01*
X0342122Y0055933D02*
X0342488Y0056300D01*
X0343222Y0056300D01*
X0343589Y0055933D01*
X0344516Y0056300D02*
X0345250Y0056300D01*
X0344883Y0056300D02*
X0344883Y0054465D01*
X0345250Y0054098D01*
X0345616Y0054098D01*
X0345983Y0054465D01*
X0345883Y0053300D02*
X0345883Y0051465D01*
X0346250Y0051098D01*
X0346616Y0051098D01*
X0346983Y0051465D01*
X0344589Y0051098D02*
X0343122Y0051098D01*
X0343855Y0051098D02*
X0343855Y0053300D01*
X0344589Y0052566D01*
X0345516Y0053300D02*
X0346250Y0053300D01*
X0343589Y0054098D02*
X0342122Y0055566D01*
X0342122Y0055933D01*
X0342122Y0054098D02*
X0343589Y0054098D01*
X0337985Y0058521D02*
X0335783Y0058521D01*
X0336884Y0058521D02*
X0336884Y0059989D01*
X0337985Y0059989D02*
X0335783Y0059989D01*
X0336150Y0060916D02*
X0335783Y0061282D01*
X0335783Y0062016D01*
X0336150Y0062383D01*
X0337618Y0062383D01*
X0337985Y0062016D01*
X0337985Y0061282D01*
X0337618Y0060916D01*
X0336150Y0060916D01*
X0335783Y0063310D02*
X0337985Y0063310D01*
X0335783Y0064777D01*
X0337985Y0064777D01*
X0337985Y0065704D02*
X0335783Y0065704D01*
X0335783Y0067172D01*
X0336884Y0066438D02*
X0336884Y0065704D01*
X0337985Y0065704D02*
X0337985Y0067172D01*
X0337517Y0049172D02*
X0337150Y0049172D01*
X0336783Y0048805D01*
X0336783Y0048071D01*
X0337150Y0047704D01*
X0337884Y0048071D02*
X0337884Y0048805D01*
X0337517Y0049172D01*
X0338618Y0049172D02*
X0338985Y0048805D01*
X0338985Y0048071D01*
X0338618Y0047704D01*
X0338251Y0047704D01*
X0337884Y0048071D01*
X0336783Y0046777D02*
X0336783Y0045310D01*
X0338985Y0045310D01*
X0338985Y0046777D01*
X0337884Y0046044D02*
X0337884Y0045310D01*
X0336783Y0044383D02*
X0338985Y0044383D01*
X0338985Y0042916D02*
X0336783Y0044383D01*
X0336783Y0042916D02*
X0338985Y0042916D01*
X0338618Y0041989D02*
X0338985Y0041622D01*
X0338985Y0040888D01*
X0338618Y0040521D01*
X0337150Y0040521D01*
X0336783Y0040888D01*
X0336783Y0041622D01*
X0337150Y0041989D01*
X0338618Y0041989D01*
X0338985Y0039595D02*
X0336783Y0039595D01*
X0337884Y0039595D02*
X0337884Y0038127D01*
X0337884Y0037201D02*
X0337517Y0036834D01*
X0337517Y0035733D01*
X0336783Y0035733D02*
X0338985Y0035733D01*
X0338985Y0036834D01*
X0338618Y0037201D01*
X0337884Y0037201D01*
X0336783Y0038127D02*
X0338985Y0038127D01*
X0338618Y0034807D02*
X0338985Y0034440D01*
X0338985Y0033339D01*
X0336783Y0033339D01*
X0336783Y0034440D01*
X0337150Y0034807D01*
X0338618Y0034807D01*
X0338251Y0032413D02*
X0336783Y0032413D01*
X0337884Y0032413D02*
X0337884Y0030945D01*
X0338251Y0030945D02*
X0338985Y0031679D01*
X0338251Y0032413D01*
X0338251Y0030945D02*
X0336783Y0030945D01*
X0336783Y0030019D02*
X0336783Y0028551D01*
X0338985Y0028551D01*
X0338985Y0030019D01*
X0337884Y0029285D02*
X0337884Y0028551D01*
X0337884Y0027625D02*
X0337884Y0026157D01*
X0336783Y0026157D02*
X0338985Y0026157D01*
X0338985Y0027625D02*
X0336783Y0027625D01*
D12*
X0068329Y0040957D02*
X0011243Y0040957D01*
X0011243Y0042925D01*
X0002384Y0042925D01*
X0001400Y0043909D01*
X0001400Y0061626D01*
X0002384Y0062610D01*
X0011243Y0062610D01*
X0011243Y0064579D01*
X0068329Y0064579D01*
X0068329Y0040957D01*
X0011243Y0042925D02*
X0011243Y0062610D01*
D13*
X0002384Y0062610D02*
X0002384Y0042925D01*
D14*
X0027778Y0038004D03*
X0020494Y0067728D03*
D15*
X0057306Y0067728D03*
X0071676Y0049815D03*
D16*
X0341152Y0046890D02*
X0341152Y0025906D01*
X0353933Y0020906D02*
X0392215Y0020906D01*
X0392215Y0046890D02*
X0385558Y0046890D01*
X0377683Y0046890D02*
X0373683Y0046890D01*
X0365933Y0046890D02*
X0357933Y0046890D01*
X0345183Y0046890D02*
X0341152Y0046890D01*
X0353933Y0058906D02*
X0392215Y0058906D01*
X0341152Y0063906D02*
X0341152Y0084890D01*
X0345183Y0084890D01*
X0357933Y0084890D02*
X0365933Y0084890D01*
X0373683Y0084890D02*
X0377683Y0084890D01*
X0385558Y0084890D02*
X0392215Y0084890D01*
M02*
