%
M48
M72
T01C0.0138
T02C0.0315
T03C0.0320
T04C0.0335
T05C0.0354
T06C0.0394
T07C0.0400
T08C0.0551
T09C0.0669
T10C0.0700
T11C0.0984
%
T01
X9480Y2530
X9480Y3160
X9900Y3160
X7310Y3440
X6540Y4210
X4020Y4840
X2830Y5820
X3320Y6310
X4020Y6660
X7310Y6450
X8990Y6660
X8850Y7290
X9200Y7920
X9410Y8340
X15430Y6450
X17180Y5890
X16970Y5190
X21450Y6380
X23620Y6380
X25090Y6660
X23830Y6940
X23760Y7780
X27540Y7220
X27540Y6730
X30620Y7010
X31460Y7780
X31740Y8060
X30410Y8620
X28450Y7710
X28030Y7780
X31810Y6030
X31180Y5820
X32090Y5680
X33700Y6100
X36500Y6590
X38320Y6310
X34260Y4980
X33700Y4910
X33140Y5050
X31670Y5050
X30340Y4490
X32370Y4280
X31390Y3930
X29710Y3370
X31670Y3230
X33490Y4280
X27820Y4490
X25160Y4490
X24040Y4840
X25930Y5260
X24390Y5890
X28870Y5820
X24460Y3860
X27190Y2670
X19560Y3370
X19280Y2670
X14800Y1690
X3810Y3510
X18440Y7080
X38320Y7920
X39720Y1760
X34960Y1760
T02
X13203Y2591
X12416Y2591
T03
X13403Y4777
X15963Y4777
X15963Y5777
X13403Y5777
T04
X20017Y3001
X21513Y3001
T05
X30844Y8064
X33521Y8064
X10686Y8064
X8009Y8064
X5568Y8064
X2891Y8064
T06
X19033Y4686
X20608Y4686
X22183Y4686
T07
X16050Y2298
X14910Y2298
T08
X18639Y8623
X22576Y8623
T09
X5258Y5277
X2502Y5277
T10
X36033Y3437
X38788Y3437
X38788Y7237
X36033Y7237
T11
X29820Y5277
X11710Y5277
M30
