G75*
%MOIN*%
%OFA0B0*%
%FSLAX25Y25*%
%IPPOS*%
%LPD*%
%AMOC8*
5,1,8,0,0,1.08239X$1,22.5*
%
%ADD10C,0.00600*%
%ADD11C,0.00000*%
D10*
X0014802Y0013398D02*
X0014802Y0017335D01*
X0010802Y0017335D01*
X0010802Y0088201D01*
X0014739Y0088201D01*
X0014739Y0092398D01*
X0405683Y0092398D01*
X0405683Y0013398D01*
X0014802Y0013398D01*
D11*
X0021676Y0052768D02*
X0021678Y0052883D01*
X0021684Y0052999D01*
X0021694Y0053114D01*
X0021708Y0053229D01*
X0021726Y0053343D01*
X0021748Y0053456D01*
X0021773Y0053569D01*
X0021803Y0053680D01*
X0021836Y0053791D01*
X0021873Y0053900D01*
X0021914Y0054008D01*
X0021959Y0054115D01*
X0022007Y0054220D01*
X0022059Y0054323D01*
X0022115Y0054424D01*
X0022174Y0054524D01*
X0022236Y0054621D01*
X0022302Y0054716D01*
X0022370Y0054809D01*
X0022442Y0054899D01*
X0022517Y0054987D01*
X0022596Y0055072D01*
X0022677Y0055154D01*
X0022760Y0055234D01*
X0022847Y0055310D01*
X0022936Y0055384D01*
X0023027Y0055454D01*
X0023121Y0055522D01*
X0023217Y0055586D01*
X0023316Y0055646D01*
X0023416Y0055703D01*
X0023518Y0055757D01*
X0023622Y0055807D01*
X0023728Y0055854D01*
X0023835Y0055897D01*
X0023944Y0055936D01*
X0024054Y0055971D01*
X0024165Y0056002D01*
X0024277Y0056030D01*
X0024390Y0056054D01*
X0024504Y0056074D01*
X0024619Y0056090D01*
X0024734Y0056102D01*
X0024849Y0056110D01*
X0024964Y0056114D01*
X0025080Y0056114D01*
X0025195Y0056110D01*
X0025310Y0056102D01*
X0025425Y0056090D01*
X0025540Y0056074D01*
X0025654Y0056054D01*
X0025767Y0056030D01*
X0025879Y0056002D01*
X0025990Y0055971D01*
X0026100Y0055936D01*
X0026209Y0055897D01*
X0026316Y0055854D01*
X0026422Y0055807D01*
X0026526Y0055757D01*
X0026628Y0055703D01*
X0026728Y0055646D01*
X0026827Y0055586D01*
X0026923Y0055522D01*
X0027017Y0055454D01*
X0027108Y0055384D01*
X0027197Y0055310D01*
X0027284Y0055234D01*
X0027367Y0055154D01*
X0027448Y0055072D01*
X0027527Y0054987D01*
X0027602Y0054899D01*
X0027674Y0054809D01*
X0027742Y0054716D01*
X0027808Y0054621D01*
X0027870Y0054524D01*
X0027929Y0054424D01*
X0027985Y0054323D01*
X0028037Y0054220D01*
X0028085Y0054115D01*
X0028130Y0054008D01*
X0028171Y0053900D01*
X0028208Y0053791D01*
X0028241Y0053680D01*
X0028271Y0053569D01*
X0028296Y0053456D01*
X0028318Y0053343D01*
X0028336Y0053229D01*
X0028350Y0053114D01*
X0028360Y0052999D01*
X0028366Y0052883D01*
X0028368Y0052768D01*
X0028366Y0052653D01*
X0028360Y0052537D01*
X0028350Y0052422D01*
X0028336Y0052307D01*
X0028318Y0052193D01*
X0028296Y0052080D01*
X0028271Y0051967D01*
X0028241Y0051856D01*
X0028208Y0051745D01*
X0028171Y0051636D01*
X0028130Y0051528D01*
X0028085Y0051421D01*
X0028037Y0051316D01*
X0027985Y0051213D01*
X0027929Y0051112D01*
X0027870Y0051012D01*
X0027808Y0050915D01*
X0027742Y0050820D01*
X0027674Y0050727D01*
X0027602Y0050637D01*
X0027527Y0050549D01*
X0027448Y0050464D01*
X0027367Y0050382D01*
X0027284Y0050302D01*
X0027197Y0050226D01*
X0027108Y0050152D01*
X0027017Y0050082D01*
X0026923Y0050014D01*
X0026827Y0049950D01*
X0026728Y0049890D01*
X0026628Y0049833D01*
X0026526Y0049779D01*
X0026422Y0049729D01*
X0026316Y0049682D01*
X0026209Y0049639D01*
X0026100Y0049600D01*
X0025990Y0049565D01*
X0025879Y0049534D01*
X0025767Y0049506D01*
X0025654Y0049482D01*
X0025540Y0049462D01*
X0025425Y0049446D01*
X0025310Y0049434D01*
X0025195Y0049426D01*
X0025080Y0049422D01*
X0024964Y0049422D01*
X0024849Y0049426D01*
X0024734Y0049434D01*
X0024619Y0049446D01*
X0024504Y0049462D01*
X0024390Y0049482D01*
X0024277Y0049506D01*
X0024165Y0049534D01*
X0024054Y0049565D01*
X0023944Y0049600D01*
X0023835Y0049639D01*
X0023728Y0049682D01*
X0023622Y0049729D01*
X0023518Y0049779D01*
X0023416Y0049833D01*
X0023316Y0049890D01*
X0023217Y0049950D01*
X0023121Y0050014D01*
X0023027Y0050082D01*
X0022936Y0050152D01*
X0022847Y0050226D01*
X0022760Y0050302D01*
X0022677Y0050382D01*
X0022596Y0050464D01*
X0022517Y0050549D01*
X0022442Y0050637D01*
X0022370Y0050727D01*
X0022302Y0050820D01*
X0022236Y0050915D01*
X0022174Y0051012D01*
X0022115Y0051112D01*
X0022059Y0051213D01*
X0022007Y0051316D01*
X0021959Y0051421D01*
X0021914Y0051528D01*
X0021873Y0051636D01*
X0021836Y0051745D01*
X0021803Y0051856D01*
X0021773Y0051967D01*
X0021748Y0052080D01*
X0021726Y0052193D01*
X0021708Y0052307D01*
X0021694Y0052422D01*
X0021684Y0052537D01*
X0021678Y0052653D01*
X0021676Y0052768D01*
X0049235Y0052768D02*
X0049237Y0052883D01*
X0049243Y0052999D01*
X0049253Y0053114D01*
X0049267Y0053229D01*
X0049285Y0053343D01*
X0049307Y0053456D01*
X0049332Y0053569D01*
X0049362Y0053680D01*
X0049395Y0053791D01*
X0049432Y0053900D01*
X0049473Y0054008D01*
X0049518Y0054115D01*
X0049566Y0054220D01*
X0049618Y0054323D01*
X0049674Y0054424D01*
X0049733Y0054524D01*
X0049795Y0054621D01*
X0049861Y0054716D01*
X0049929Y0054809D01*
X0050001Y0054899D01*
X0050076Y0054987D01*
X0050155Y0055072D01*
X0050236Y0055154D01*
X0050319Y0055234D01*
X0050406Y0055310D01*
X0050495Y0055384D01*
X0050586Y0055454D01*
X0050680Y0055522D01*
X0050776Y0055586D01*
X0050875Y0055646D01*
X0050975Y0055703D01*
X0051077Y0055757D01*
X0051181Y0055807D01*
X0051287Y0055854D01*
X0051394Y0055897D01*
X0051503Y0055936D01*
X0051613Y0055971D01*
X0051724Y0056002D01*
X0051836Y0056030D01*
X0051949Y0056054D01*
X0052063Y0056074D01*
X0052178Y0056090D01*
X0052293Y0056102D01*
X0052408Y0056110D01*
X0052523Y0056114D01*
X0052639Y0056114D01*
X0052754Y0056110D01*
X0052869Y0056102D01*
X0052984Y0056090D01*
X0053099Y0056074D01*
X0053213Y0056054D01*
X0053326Y0056030D01*
X0053438Y0056002D01*
X0053549Y0055971D01*
X0053659Y0055936D01*
X0053768Y0055897D01*
X0053875Y0055854D01*
X0053981Y0055807D01*
X0054085Y0055757D01*
X0054187Y0055703D01*
X0054287Y0055646D01*
X0054386Y0055586D01*
X0054482Y0055522D01*
X0054576Y0055454D01*
X0054667Y0055384D01*
X0054756Y0055310D01*
X0054843Y0055234D01*
X0054926Y0055154D01*
X0055007Y0055072D01*
X0055086Y0054987D01*
X0055161Y0054899D01*
X0055233Y0054809D01*
X0055301Y0054716D01*
X0055367Y0054621D01*
X0055429Y0054524D01*
X0055488Y0054424D01*
X0055544Y0054323D01*
X0055596Y0054220D01*
X0055644Y0054115D01*
X0055689Y0054008D01*
X0055730Y0053900D01*
X0055767Y0053791D01*
X0055800Y0053680D01*
X0055830Y0053569D01*
X0055855Y0053456D01*
X0055877Y0053343D01*
X0055895Y0053229D01*
X0055909Y0053114D01*
X0055919Y0052999D01*
X0055925Y0052883D01*
X0055927Y0052768D01*
X0055925Y0052653D01*
X0055919Y0052537D01*
X0055909Y0052422D01*
X0055895Y0052307D01*
X0055877Y0052193D01*
X0055855Y0052080D01*
X0055830Y0051967D01*
X0055800Y0051856D01*
X0055767Y0051745D01*
X0055730Y0051636D01*
X0055689Y0051528D01*
X0055644Y0051421D01*
X0055596Y0051316D01*
X0055544Y0051213D01*
X0055488Y0051112D01*
X0055429Y0051012D01*
X0055367Y0050915D01*
X0055301Y0050820D01*
X0055233Y0050727D01*
X0055161Y0050637D01*
X0055086Y0050549D01*
X0055007Y0050464D01*
X0054926Y0050382D01*
X0054843Y0050302D01*
X0054756Y0050226D01*
X0054667Y0050152D01*
X0054576Y0050082D01*
X0054482Y0050014D01*
X0054386Y0049950D01*
X0054287Y0049890D01*
X0054187Y0049833D01*
X0054085Y0049779D01*
X0053981Y0049729D01*
X0053875Y0049682D01*
X0053768Y0049639D01*
X0053659Y0049600D01*
X0053549Y0049565D01*
X0053438Y0049534D01*
X0053326Y0049506D01*
X0053213Y0049482D01*
X0053099Y0049462D01*
X0052984Y0049446D01*
X0052869Y0049434D01*
X0052754Y0049426D01*
X0052639Y0049422D01*
X0052523Y0049422D01*
X0052408Y0049426D01*
X0052293Y0049434D01*
X0052178Y0049446D01*
X0052063Y0049462D01*
X0051949Y0049482D01*
X0051836Y0049506D01*
X0051724Y0049534D01*
X0051613Y0049565D01*
X0051503Y0049600D01*
X0051394Y0049639D01*
X0051287Y0049682D01*
X0051181Y0049729D01*
X0051077Y0049779D01*
X0050975Y0049833D01*
X0050875Y0049890D01*
X0050776Y0049950D01*
X0050680Y0050014D01*
X0050586Y0050082D01*
X0050495Y0050152D01*
X0050406Y0050226D01*
X0050319Y0050302D01*
X0050236Y0050382D01*
X0050155Y0050464D01*
X0050076Y0050549D01*
X0050001Y0050637D01*
X0049929Y0050727D01*
X0049861Y0050820D01*
X0049795Y0050915D01*
X0049733Y0051012D01*
X0049674Y0051112D01*
X0049618Y0051213D01*
X0049566Y0051316D01*
X0049518Y0051421D01*
X0049473Y0051528D01*
X0049432Y0051636D01*
X0049395Y0051745D01*
X0049362Y0051856D01*
X0049332Y0051967D01*
X0049307Y0052080D01*
X0049285Y0052193D01*
X0049267Y0052307D01*
X0049253Y0052422D01*
X0049243Y0052537D01*
X0049237Y0052653D01*
X0049235Y0052768D01*
X0108243Y0052768D02*
X0108245Y0052908D01*
X0108251Y0053048D01*
X0108261Y0053187D01*
X0108275Y0053326D01*
X0108293Y0053465D01*
X0108314Y0053603D01*
X0108340Y0053741D01*
X0108370Y0053878D01*
X0108403Y0054013D01*
X0108441Y0054148D01*
X0108482Y0054282D01*
X0108527Y0054415D01*
X0108575Y0054546D01*
X0108628Y0054675D01*
X0108684Y0054804D01*
X0108743Y0054930D01*
X0108807Y0055055D01*
X0108873Y0055178D01*
X0108944Y0055299D01*
X0109017Y0055418D01*
X0109094Y0055535D01*
X0109175Y0055649D01*
X0109258Y0055761D01*
X0109345Y0055871D01*
X0109435Y0055979D01*
X0109527Y0056083D01*
X0109623Y0056185D01*
X0109722Y0056285D01*
X0109823Y0056381D01*
X0109927Y0056475D01*
X0110034Y0056565D01*
X0110143Y0056652D01*
X0110255Y0056737D01*
X0110369Y0056818D01*
X0110485Y0056896D01*
X0110603Y0056970D01*
X0110724Y0057041D01*
X0110846Y0057109D01*
X0110971Y0057173D01*
X0111097Y0057234D01*
X0111224Y0057291D01*
X0111354Y0057344D01*
X0111485Y0057394D01*
X0111617Y0057439D01*
X0111750Y0057482D01*
X0111885Y0057520D01*
X0112020Y0057554D01*
X0112157Y0057585D01*
X0112294Y0057612D01*
X0112432Y0057634D01*
X0112571Y0057653D01*
X0112710Y0057668D01*
X0112849Y0057679D01*
X0112989Y0057686D01*
X0113129Y0057689D01*
X0113269Y0057688D01*
X0113409Y0057683D01*
X0113548Y0057674D01*
X0113688Y0057661D01*
X0113827Y0057644D01*
X0113965Y0057623D01*
X0114103Y0057599D01*
X0114240Y0057570D01*
X0114376Y0057538D01*
X0114511Y0057501D01*
X0114645Y0057461D01*
X0114778Y0057417D01*
X0114909Y0057369D01*
X0115039Y0057318D01*
X0115168Y0057263D01*
X0115295Y0057204D01*
X0115420Y0057141D01*
X0115543Y0057076D01*
X0115665Y0057006D01*
X0115784Y0056933D01*
X0115902Y0056857D01*
X0116017Y0056778D01*
X0116130Y0056695D01*
X0116240Y0056609D01*
X0116348Y0056520D01*
X0116453Y0056428D01*
X0116556Y0056333D01*
X0116656Y0056235D01*
X0116753Y0056135D01*
X0116847Y0056031D01*
X0116939Y0055925D01*
X0117027Y0055817D01*
X0117112Y0055706D01*
X0117194Y0055592D01*
X0117273Y0055476D01*
X0117348Y0055359D01*
X0117420Y0055239D01*
X0117488Y0055117D01*
X0117553Y0054993D01*
X0117615Y0054867D01*
X0117673Y0054740D01*
X0117727Y0054611D01*
X0117778Y0054480D01*
X0117824Y0054348D01*
X0117867Y0054215D01*
X0117907Y0054081D01*
X0117942Y0053946D01*
X0117974Y0053809D01*
X0118001Y0053672D01*
X0118025Y0053534D01*
X0118045Y0053396D01*
X0118061Y0053257D01*
X0118073Y0053117D01*
X0118081Y0052978D01*
X0118085Y0052838D01*
X0118085Y0052698D01*
X0118081Y0052558D01*
X0118073Y0052419D01*
X0118061Y0052279D01*
X0118045Y0052140D01*
X0118025Y0052002D01*
X0118001Y0051864D01*
X0117974Y0051727D01*
X0117942Y0051590D01*
X0117907Y0051455D01*
X0117867Y0051321D01*
X0117824Y0051188D01*
X0117778Y0051056D01*
X0117727Y0050925D01*
X0117673Y0050796D01*
X0117615Y0050669D01*
X0117553Y0050543D01*
X0117488Y0050419D01*
X0117420Y0050297D01*
X0117348Y0050177D01*
X0117273Y0050060D01*
X0117194Y0049944D01*
X0117112Y0049830D01*
X0117027Y0049719D01*
X0116939Y0049611D01*
X0116847Y0049505D01*
X0116753Y0049401D01*
X0116656Y0049301D01*
X0116556Y0049203D01*
X0116453Y0049108D01*
X0116348Y0049016D01*
X0116240Y0048927D01*
X0116130Y0048841D01*
X0116017Y0048758D01*
X0115902Y0048679D01*
X0115784Y0048603D01*
X0115665Y0048530D01*
X0115543Y0048460D01*
X0115420Y0048395D01*
X0115295Y0048332D01*
X0115168Y0048273D01*
X0115039Y0048218D01*
X0114909Y0048167D01*
X0114778Y0048119D01*
X0114645Y0048075D01*
X0114511Y0048035D01*
X0114376Y0047998D01*
X0114240Y0047966D01*
X0114103Y0047937D01*
X0113965Y0047913D01*
X0113827Y0047892D01*
X0113688Y0047875D01*
X0113548Y0047862D01*
X0113409Y0047853D01*
X0113269Y0047848D01*
X0113129Y0047847D01*
X0112989Y0047850D01*
X0112849Y0047857D01*
X0112710Y0047868D01*
X0112571Y0047883D01*
X0112432Y0047902D01*
X0112294Y0047924D01*
X0112157Y0047951D01*
X0112020Y0047982D01*
X0111885Y0048016D01*
X0111750Y0048054D01*
X0111617Y0048097D01*
X0111485Y0048142D01*
X0111354Y0048192D01*
X0111224Y0048245D01*
X0111097Y0048302D01*
X0110971Y0048363D01*
X0110846Y0048427D01*
X0110724Y0048495D01*
X0110603Y0048566D01*
X0110485Y0048640D01*
X0110369Y0048718D01*
X0110255Y0048799D01*
X0110143Y0048884D01*
X0110034Y0048971D01*
X0109927Y0049061D01*
X0109823Y0049155D01*
X0109722Y0049251D01*
X0109623Y0049351D01*
X0109527Y0049453D01*
X0109435Y0049557D01*
X0109345Y0049665D01*
X0109258Y0049775D01*
X0109175Y0049887D01*
X0109094Y0050001D01*
X0109017Y0050118D01*
X0108944Y0050237D01*
X0108873Y0050358D01*
X0108807Y0050481D01*
X0108743Y0050606D01*
X0108684Y0050732D01*
X0108628Y0050861D01*
X0108575Y0050990D01*
X0108527Y0051121D01*
X0108482Y0051254D01*
X0108441Y0051388D01*
X0108403Y0051523D01*
X0108370Y0051658D01*
X0108340Y0051795D01*
X0108314Y0051933D01*
X0108293Y0052071D01*
X0108275Y0052210D01*
X0108261Y0052349D01*
X0108251Y0052488D01*
X0108245Y0052628D01*
X0108243Y0052768D01*
X0198499Y0030008D02*
X0198501Y0030089D01*
X0198507Y0030171D01*
X0198517Y0030252D01*
X0198531Y0030332D01*
X0198548Y0030411D01*
X0198570Y0030490D01*
X0198595Y0030567D01*
X0198624Y0030644D01*
X0198657Y0030718D01*
X0198694Y0030791D01*
X0198733Y0030862D01*
X0198777Y0030931D01*
X0198823Y0030998D01*
X0198873Y0031062D01*
X0198926Y0031124D01*
X0198982Y0031184D01*
X0199040Y0031240D01*
X0199102Y0031294D01*
X0199166Y0031345D01*
X0199232Y0031392D01*
X0199300Y0031436D01*
X0199371Y0031477D01*
X0199443Y0031514D01*
X0199518Y0031548D01*
X0199593Y0031578D01*
X0199671Y0031604D01*
X0199749Y0031627D01*
X0199828Y0031645D01*
X0199908Y0031660D01*
X0199989Y0031671D01*
X0200070Y0031678D01*
X0200152Y0031681D01*
X0200233Y0031680D01*
X0200314Y0031675D01*
X0200395Y0031666D01*
X0200476Y0031653D01*
X0200556Y0031636D01*
X0200634Y0031616D01*
X0200712Y0031591D01*
X0200789Y0031563D01*
X0200864Y0031531D01*
X0200937Y0031496D01*
X0201008Y0031457D01*
X0201078Y0031414D01*
X0201145Y0031369D01*
X0201211Y0031320D01*
X0201273Y0031268D01*
X0201333Y0031212D01*
X0201390Y0031154D01*
X0201445Y0031094D01*
X0201496Y0031030D01*
X0201544Y0030965D01*
X0201589Y0030897D01*
X0201631Y0030827D01*
X0201669Y0030755D01*
X0201704Y0030681D01*
X0201735Y0030606D01*
X0201762Y0030529D01*
X0201785Y0030451D01*
X0201805Y0030372D01*
X0201821Y0030292D01*
X0201833Y0030211D01*
X0201841Y0030130D01*
X0201845Y0030049D01*
X0201845Y0029967D01*
X0201841Y0029886D01*
X0201833Y0029805D01*
X0201821Y0029724D01*
X0201805Y0029644D01*
X0201785Y0029565D01*
X0201762Y0029487D01*
X0201735Y0029410D01*
X0201704Y0029335D01*
X0201669Y0029261D01*
X0201631Y0029189D01*
X0201589Y0029119D01*
X0201544Y0029051D01*
X0201496Y0028986D01*
X0201445Y0028922D01*
X0201390Y0028862D01*
X0201333Y0028804D01*
X0201273Y0028748D01*
X0201211Y0028696D01*
X0201145Y0028647D01*
X0201078Y0028602D01*
X0201009Y0028559D01*
X0200937Y0028520D01*
X0200864Y0028485D01*
X0200789Y0028453D01*
X0200712Y0028425D01*
X0200634Y0028400D01*
X0200556Y0028380D01*
X0200476Y0028363D01*
X0200395Y0028350D01*
X0200314Y0028341D01*
X0200233Y0028336D01*
X0200152Y0028335D01*
X0200070Y0028338D01*
X0199989Y0028345D01*
X0199908Y0028356D01*
X0199828Y0028371D01*
X0199749Y0028389D01*
X0199671Y0028412D01*
X0199593Y0028438D01*
X0199518Y0028468D01*
X0199443Y0028502D01*
X0199371Y0028539D01*
X0199300Y0028580D01*
X0199232Y0028624D01*
X0199166Y0028671D01*
X0199102Y0028722D01*
X0199040Y0028776D01*
X0198982Y0028832D01*
X0198926Y0028892D01*
X0198873Y0028954D01*
X0198823Y0029018D01*
X0198777Y0029085D01*
X0198733Y0029154D01*
X0198694Y0029225D01*
X0198657Y0029298D01*
X0198624Y0029372D01*
X0198595Y0029449D01*
X0198570Y0029526D01*
X0198548Y0029605D01*
X0198531Y0029684D01*
X0198517Y0029764D01*
X0198507Y0029845D01*
X0198501Y0029927D01*
X0198499Y0030008D01*
X0213459Y0030008D02*
X0213461Y0030089D01*
X0213467Y0030171D01*
X0213477Y0030252D01*
X0213491Y0030332D01*
X0213508Y0030411D01*
X0213530Y0030490D01*
X0213555Y0030567D01*
X0213584Y0030644D01*
X0213617Y0030718D01*
X0213654Y0030791D01*
X0213693Y0030862D01*
X0213737Y0030931D01*
X0213783Y0030998D01*
X0213833Y0031062D01*
X0213886Y0031124D01*
X0213942Y0031184D01*
X0214000Y0031240D01*
X0214062Y0031294D01*
X0214126Y0031345D01*
X0214192Y0031392D01*
X0214260Y0031436D01*
X0214331Y0031477D01*
X0214403Y0031514D01*
X0214478Y0031548D01*
X0214553Y0031578D01*
X0214631Y0031604D01*
X0214709Y0031627D01*
X0214788Y0031645D01*
X0214868Y0031660D01*
X0214949Y0031671D01*
X0215030Y0031678D01*
X0215112Y0031681D01*
X0215193Y0031680D01*
X0215274Y0031675D01*
X0215355Y0031666D01*
X0215436Y0031653D01*
X0215516Y0031636D01*
X0215594Y0031616D01*
X0215672Y0031591D01*
X0215749Y0031563D01*
X0215824Y0031531D01*
X0215897Y0031496D01*
X0215968Y0031457D01*
X0216038Y0031414D01*
X0216105Y0031369D01*
X0216171Y0031320D01*
X0216233Y0031268D01*
X0216293Y0031212D01*
X0216350Y0031154D01*
X0216405Y0031094D01*
X0216456Y0031030D01*
X0216504Y0030965D01*
X0216549Y0030897D01*
X0216591Y0030827D01*
X0216629Y0030755D01*
X0216664Y0030681D01*
X0216695Y0030606D01*
X0216722Y0030529D01*
X0216745Y0030451D01*
X0216765Y0030372D01*
X0216781Y0030292D01*
X0216793Y0030211D01*
X0216801Y0030130D01*
X0216805Y0030049D01*
X0216805Y0029967D01*
X0216801Y0029886D01*
X0216793Y0029805D01*
X0216781Y0029724D01*
X0216765Y0029644D01*
X0216745Y0029565D01*
X0216722Y0029487D01*
X0216695Y0029410D01*
X0216664Y0029335D01*
X0216629Y0029261D01*
X0216591Y0029189D01*
X0216549Y0029119D01*
X0216504Y0029051D01*
X0216456Y0028986D01*
X0216405Y0028922D01*
X0216350Y0028862D01*
X0216293Y0028804D01*
X0216233Y0028748D01*
X0216171Y0028696D01*
X0216105Y0028647D01*
X0216038Y0028602D01*
X0215969Y0028559D01*
X0215897Y0028520D01*
X0215824Y0028485D01*
X0215749Y0028453D01*
X0215672Y0028425D01*
X0215594Y0028400D01*
X0215516Y0028380D01*
X0215436Y0028363D01*
X0215355Y0028350D01*
X0215274Y0028341D01*
X0215193Y0028336D01*
X0215112Y0028335D01*
X0215030Y0028338D01*
X0214949Y0028345D01*
X0214868Y0028356D01*
X0214788Y0028371D01*
X0214709Y0028389D01*
X0214631Y0028412D01*
X0214553Y0028438D01*
X0214478Y0028468D01*
X0214403Y0028502D01*
X0214331Y0028539D01*
X0214260Y0028580D01*
X0214192Y0028624D01*
X0214126Y0028671D01*
X0214062Y0028722D01*
X0214000Y0028776D01*
X0213942Y0028832D01*
X0213886Y0028892D01*
X0213833Y0028954D01*
X0213783Y0029018D01*
X0213737Y0029085D01*
X0213693Y0029154D01*
X0213654Y0029225D01*
X0213617Y0029298D01*
X0213584Y0029372D01*
X0213555Y0029449D01*
X0213530Y0029526D01*
X0213508Y0029605D01*
X0213491Y0029684D01*
X0213477Y0029764D01*
X0213467Y0029845D01*
X0213461Y0029927D01*
X0213459Y0030008D01*
X0297219Y0052768D02*
X0297221Y0052908D01*
X0297227Y0053048D01*
X0297237Y0053187D01*
X0297251Y0053326D01*
X0297269Y0053465D01*
X0297290Y0053603D01*
X0297316Y0053741D01*
X0297346Y0053878D01*
X0297379Y0054013D01*
X0297417Y0054148D01*
X0297458Y0054282D01*
X0297503Y0054415D01*
X0297551Y0054546D01*
X0297604Y0054675D01*
X0297660Y0054804D01*
X0297719Y0054930D01*
X0297783Y0055055D01*
X0297849Y0055178D01*
X0297920Y0055299D01*
X0297993Y0055418D01*
X0298070Y0055535D01*
X0298151Y0055649D01*
X0298234Y0055761D01*
X0298321Y0055871D01*
X0298411Y0055979D01*
X0298503Y0056083D01*
X0298599Y0056185D01*
X0298698Y0056285D01*
X0298799Y0056381D01*
X0298903Y0056475D01*
X0299010Y0056565D01*
X0299119Y0056652D01*
X0299231Y0056737D01*
X0299345Y0056818D01*
X0299461Y0056896D01*
X0299579Y0056970D01*
X0299700Y0057041D01*
X0299822Y0057109D01*
X0299947Y0057173D01*
X0300073Y0057234D01*
X0300200Y0057291D01*
X0300330Y0057344D01*
X0300461Y0057394D01*
X0300593Y0057439D01*
X0300726Y0057482D01*
X0300861Y0057520D01*
X0300996Y0057554D01*
X0301133Y0057585D01*
X0301270Y0057612D01*
X0301408Y0057634D01*
X0301547Y0057653D01*
X0301686Y0057668D01*
X0301825Y0057679D01*
X0301965Y0057686D01*
X0302105Y0057689D01*
X0302245Y0057688D01*
X0302385Y0057683D01*
X0302524Y0057674D01*
X0302664Y0057661D01*
X0302803Y0057644D01*
X0302941Y0057623D01*
X0303079Y0057599D01*
X0303216Y0057570D01*
X0303352Y0057538D01*
X0303487Y0057501D01*
X0303621Y0057461D01*
X0303754Y0057417D01*
X0303885Y0057369D01*
X0304015Y0057318D01*
X0304144Y0057263D01*
X0304271Y0057204D01*
X0304396Y0057141D01*
X0304519Y0057076D01*
X0304641Y0057006D01*
X0304760Y0056933D01*
X0304878Y0056857D01*
X0304993Y0056778D01*
X0305106Y0056695D01*
X0305216Y0056609D01*
X0305324Y0056520D01*
X0305429Y0056428D01*
X0305532Y0056333D01*
X0305632Y0056235D01*
X0305729Y0056135D01*
X0305823Y0056031D01*
X0305915Y0055925D01*
X0306003Y0055817D01*
X0306088Y0055706D01*
X0306170Y0055592D01*
X0306249Y0055476D01*
X0306324Y0055359D01*
X0306396Y0055239D01*
X0306464Y0055117D01*
X0306529Y0054993D01*
X0306591Y0054867D01*
X0306649Y0054740D01*
X0306703Y0054611D01*
X0306754Y0054480D01*
X0306800Y0054348D01*
X0306843Y0054215D01*
X0306883Y0054081D01*
X0306918Y0053946D01*
X0306950Y0053809D01*
X0306977Y0053672D01*
X0307001Y0053534D01*
X0307021Y0053396D01*
X0307037Y0053257D01*
X0307049Y0053117D01*
X0307057Y0052978D01*
X0307061Y0052838D01*
X0307061Y0052698D01*
X0307057Y0052558D01*
X0307049Y0052419D01*
X0307037Y0052279D01*
X0307021Y0052140D01*
X0307001Y0052002D01*
X0306977Y0051864D01*
X0306950Y0051727D01*
X0306918Y0051590D01*
X0306883Y0051455D01*
X0306843Y0051321D01*
X0306800Y0051188D01*
X0306754Y0051056D01*
X0306703Y0050925D01*
X0306649Y0050796D01*
X0306591Y0050669D01*
X0306529Y0050543D01*
X0306464Y0050419D01*
X0306396Y0050297D01*
X0306324Y0050177D01*
X0306249Y0050060D01*
X0306170Y0049944D01*
X0306088Y0049830D01*
X0306003Y0049719D01*
X0305915Y0049611D01*
X0305823Y0049505D01*
X0305729Y0049401D01*
X0305632Y0049301D01*
X0305532Y0049203D01*
X0305429Y0049108D01*
X0305324Y0049016D01*
X0305216Y0048927D01*
X0305106Y0048841D01*
X0304993Y0048758D01*
X0304878Y0048679D01*
X0304760Y0048603D01*
X0304641Y0048530D01*
X0304519Y0048460D01*
X0304396Y0048395D01*
X0304271Y0048332D01*
X0304144Y0048273D01*
X0304015Y0048218D01*
X0303885Y0048167D01*
X0303754Y0048119D01*
X0303621Y0048075D01*
X0303487Y0048035D01*
X0303352Y0047998D01*
X0303216Y0047966D01*
X0303079Y0047937D01*
X0302941Y0047913D01*
X0302803Y0047892D01*
X0302664Y0047875D01*
X0302524Y0047862D01*
X0302385Y0047853D01*
X0302245Y0047848D01*
X0302105Y0047847D01*
X0301965Y0047850D01*
X0301825Y0047857D01*
X0301686Y0047868D01*
X0301547Y0047883D01*
X0301408Y0047902D01*
X0301270Y0047924D01*
X0301133Y0047951D01*
X0300996Y0047982D01*
X0300861Y0048016D01*
X0300726Y0048054D01*
X0300593Y0048097D01*
X0300461Y0048142D01*
X0300330Y0048192D01*
X0300200Y0048245D01*
X0300073Y0048302D01*
X0299947Y0048363D01*
X0299822Y0048427D01*
X0299700Y0048495D01*
X0299579Y0048566D01*
X0299461Y0048640D01*
X0299345Y0048718D01*
X0299231Y0048799D01*
X0299119Y0048884D01*
X0299010Y0048971D01*
X0298903Y0049061D01*
X0298799Y0049155D01*
X0298698Y0049251D01*
X0298599Y0049351D01*
X0298503Y0049453D01*
X0298411Y0049557D01*
X0298321Y0049665D01*
X0298234Y0049775D01*
X0298151Y0049887D01*
X0298070Y0050001D01*
X0297993Y0050118D01*
X0297920Y0050237D01*
X0297849Y0050358D01*
X0297783Y0050481D01*
X0297719Y0050606D01*
X0297660Y0050732D01*
X0297604Y0050861D01*
X0297551Y0050990D01*
X0297503Y0051121D01*
X0297458Y0051254D01*
X0297417Y0051388D01*
X0297379Y0051523D01*
X0297346Y0051658D01*
X0297316Y0051795D01*
X0297290Y0051933D01*
X0297269Y0052071D01*
X0297251Y0052210D01*
X0297237Y0052349D01*
X0297227Y0052488D01*
X0297221Y0052628D01*
X0297219Y0052768D01*
X0356825Y0034370D02*
X0356827Y0034488D01*
X0356833Y0034606D01*
X0356843Y0034724D01*
X0356857Y0034841D01*
X0356875Y0034958D01*
X0356897Y0035075D01*
X0356922Y0035190D01*
X0356952Y0035304D01*
X0356986Y0035418D01*
X0357023Y0035530D01*
X0357064Y0035641D01*
X0357109Y0035750D01*
X0357157Y0035858D01*
X0357209Y0035964D01*
X0357265Y0036069D01*
X0357324Y0036171D01*
X0357386Y0036271D01*
X0357452Y0036369D01*
X0357521Y0036465D01*
X0357594Y0036559D01*
X0357669Y0036650D01*
X0357748Y0036738D01*
X0357829Y0036824D01*
X0357914Y0036907D01*
X0358001Y0036987D01*
X0358090Y0037064D01*
X0358183Y0037138D01*
X0358277Y0037208D01*
X0358374Y0037276D01*
X0358474Y0037340D01*
X0358575Y0037401D01*
X0358678Y0037458D01*
X0358784Y0037512D01*
X0358891Y0037563D01*
X0358999Y0037609D01*
X0359109Y0037652D01*
X0359221Y0037691D01*
X0359334Y0037727D01*
X0359448Y0037758D01*
X0359563Y0037786D01*
X0359678Y0037810D01*
X0359795Y0037830D01*
X0359912Y0037846D01*
X0360030Y0037858D01*
X0360148Y0037866D01*
X0360266Y0037870D01*
X0360384Y0037870D01*
X0360502Y0037866D01*
X0360620Y0037858D01*
X0360738Y0037846D01*
X0360855Y0037830D01*
X0360972Y0037810D01*
X0361087Y0037786D01*
X0361202Y0037758D01*
X0361316Y0037727D01*
X0361429Y0037691D01*
X0361541Y0037652D01*
X0361651Y0037609D01*
X0361759Y0037563D01*
X0361866Y0037512D01*
X0361972Y0037458D01*
X0362075Y0037401D01*
X0362176Y0037340D01*
X0362276Y0037276D01*
X0362373Y0037208D01*
X0362467Y0037138D01*
X0362560Y0037064D01*
X0362649Y0036987D01*
X0362736Y0036907D01*
X0362821Y0036824D01*
X0362902Y0036738D01*
X0362981Y0036650D01*
X0363056Y0036559D01*
X0363129Y0036465D01*
X0363198Y0036369D01*
X0363264Y0036271D01*
X0363326Y0036171D01*
X0363385Y0036069D01*
X0363441Y0035964D01*
X0363493Y0035858D01*
X0363541Y0035750D01*
X0363586Y0035641D01*
X0363627Y0035530D01*
X0363664Y0035418D01*
X0363698Y0035304D01*
X0363728Y0035190D01*
X0363753Y0035075D01*
X0363775Y0034958D01*
X0363793Y0034841D01*
X0363807Y0034724D01*
X0363817Y0034606D01*
X0363823Y0034488D01*
X0363825Y0034370D01*
X0363823Y0034252D01*
X0363817Y0034134D01*
X0363807Y0034016D01*
X0363793Y0033899D01*
X0363775Y0033782D01*
X0363753Y0033665D01*
X0363728Y0033550D01*
X0363698Y0033436D01*
X0363664Y0033322D01*
X0363627Y0033210D01*
X0363586Y0033099D01*
X0363541Y0032990D01*
X0363493Y0032882D01*
X0363441Y0032776D01*
X0363385Y0032671D01*
X0363326Y0032569D01*
X0363264Y0032469D01*
X0363198Y0032371D01*
X0363129Y0032275D01*
X0363056Y0032181D01*
X0362981Y0032090D01*
X0362902Y0032002D01*
X0362821Y0031916D01*
X0362736Y0031833D01*
X0362649Y0031753D01*
X0362560Y0031676D01*
X0362467Y0031602D01*
X0362373Y0031532D01*
X0362276Y0031464D01*
X0362176Y0031400D01*
X0362075Y0031339D01*
X0361972Y0031282D01*
X0361866Y0031228D01*
X0361759Y0031177D01*
X0361651Y0031131D01*
X0361541Y0031088D01*
X0361429Y0031049D01*
X0361316Y0031013D01*
X0361202Y0030982D01*
X0361087Y0030954D01*
X0360972Y0030930D01*
X0360855Y0030910D01*
X0360738Y0030894D01*
X0360620Y0030882D01*
X0360502Y0030874D01*
X0360384Y0030870D01*
X0360266Y0030870D01*
X0360148Y0030874D01*
X0360030Y0030882D01*
X0359912Y0030894D01*
X0359795Y0030910D01*
X0359678Y0030930D01*
X0359563Y0030954D01*
X0359448Y0030982D01*
X0359334Y0031013D01*
X0359221Y0031049D01*
X0359109Y0031088D01*
X0358999Y0031131D01*
X0358891Y0031177D01*
X0358784Y0031228D01*
X0358678Y0031282D01*
X0358575Y0031339D01*
X0358474Y0031400D01*
X0358374Y0031464D01*
X0358277Y0031532D01*
X0358183Y0031602D01*
X0358090Y0031676D01*
X0358001Y0031753D01*
X0357914Y0031833D01*
X0357829Y0031916D01*
X0357748Y0032002D01*
X0357669Y0032090D01*
X0357594Y0032181D01*
X0357521Y0032275D01*
X0357452Y0032371D01*
X0357386Y0032469D01*
X0357324Y0032569D01*
X0357265Y0032671D01*
X0357209Y0032776D01*
X0357157Y0032882D01*
X0357109Y0032990D01*
X0357064Y0033099D01*
X0357023Y0033210D01*
X0356986Y0033322D01*
X0356952Y0033436D01*
X0356922Y0033550D01*
X0356897Y0033665D01*
X0356875Y0033782D01*
X0356857Y0033899D01*
X0356843Y0034016D01*
X0356833Y0034134D01*
X0356827Y0034252D01*
X0356825Y0034370D01*
X0384384Y0034370D02*
X0384386Y0034488D01*
X0384392Y0034606D01*
X0384402Y0034724D01*
X0384416Y0034841D01*
X0384434Y0034958D01*
X0384456Y0035075D01*
X0384481Y0035190D01*
X0384511Y0035304D01*
X0384545Y0035418D01*
X0384582Y0035530D01*
X0384623Y0035641D01*
X0384668Y0035750D01*
X0384716Y0035858D01*
X0384768Y0035964D01*
X0384824Y0036069D01*
X0384883Y0036171D01*
X0384945Y0036271D01*
X0385011Y0036369D01*
X0385080Y0036465D01*
X0385153Y0036559D01*
X0385228Y0036650D01*
X0385307Y0036738D01*
X0385388Y0036824D01*
X0385473Y0036907D01*
X0385560Y0036987D01*
X0385649Y0037064D01*
X0385742Y0037138D01*
X0385836Y0037208D01*
X0385933Y0037276D01*
X0386033Y0037340D01*
X0386134Y0037401D01*
X0386237Y0037458D01*
X0386343Y0037512D01*
X0386450Y0037563D01*
X0386558Y0037609D01*
X0386668Y0037652D01*
X0386780Y0037691D01*
X0386893Y0037727D01*
X0387007Y0037758D01*
X0387122Y0037786D01*
X0387237Y0037810D01*
X0387354Y0037830D01*
X0387471Y0037846D01*
X0387589Y0037858D01*
X0387707Y0037866D01*
X0387825Y0037870D01*
X0387943Y0037870D01*
X0388061Y0037866D01*
X0388179Y0037858D01*
X0388297Y0037846D01*
X0388414Y0037830D01*
X0388531Y0037810D01*
X0388646Y0037786D01*
X0388761Y0037758D01*
X0388875Y0037727D01*
X0388988Y0037691D01*
X0389100Y0037652D01*
X0389210Y0037609D01*
X0389318Y0037563D01*
X0389425Y0037512D01*
X0389531Y0037458D01*
X0389634Y0037401D01*
X0389735Y0037340D01*
X0389835Y0037276D01*
X0389932Y0037208D01*
X0390026Y0037138D01*
X0390119Y0037064D01*
X0390208Y0036987D01*
X0390295Y0036907D01*
X0390380Y0036824D01*
X0390461Y0036738D01*
X0390540Y0036650D01*
X0390615Y0036559D01*
X0390688Y0036465D01*
X0390757Y0036369D01*
X0390823Y0036271D01*
X0390885Y0036171D01*
X0390944Y0036069D01*
X0391000Y0035964D01*
X0391052Y0035858D01*
X0391100Y0035750D01*
X0391145Y0035641D01*
X0391186Y0035530D01*
X0391223Y0035418D01*
X0391257Y0035304D01*
X0391287Y0035190D01*
X0391312Y0035075D01*
X0391334Y0034958D01*
X0391352Y0034841D01*
X0391366Y0034724D01*
X0391376Y0034606D01*
X0391382Y0034488D01*
X0391384Y0034370D01*
X0391382Y0034252D01*
X0391376Y0034134D01*
X0391366Y0034016D01*
X0391352Y0033899D01*
X0391334Y0033782D01*
X0391312Y0033665D01*
X0391287Y0033550D01*
X0391257Y0033436D01*
X0391223Y0033322D01*
X0391186Y0033210D01*
X0391145Y0033099D01*
X0391100Y0032990D01*
X0391052Y0032882D01*
X0391000Y0032776D01*
X0390944Y0032671D01*
X0390885Y0032569D01*
X0390823Y0032469D01*
X0390757Y0032371D01*
X0390688Y0032275D01*
X0390615Y0032181D01*
X0390540Y0032090D01*
X0390461Y0032002D01*
X0390380Y0031916D01*
X0390295Y0031833D01*
X0390208Y0031753D01*
X0390119Y0031676D01*
X0390026Y0031602D01*
X0389932Y0031532D01*
X0389835Y0031464D01*
X0389735Y0031400D01*
X0389634Y0031339D01*
X0389531Y0031282D01*
X0389425Y0031228D01*
X0389318Y0031177D01*
X0389210Y0031131D01*
X0389100Y0031088D01*
X0388988Y0031049D01*
X0388875Y0031013D01*
X0388761Y0030982D01*
X0388646Y0030954D01*
X0388531Y0030930D01*
X0388414Y0030910D01*
X0388297Y0030894D01*
X0388179Y0030882D01*
X0388061Y0030874D01*
X0387943Y0030870D01*
X0387825Y0030870D01*
X0387707Y0030874D01*
X0387589Y0030882D01*
X0387471Y0030894D01*
X0387354Y0030910D01*
X0387237Y0030930D01*
X0387122Y0030954D01*
X0387007Y0030982D01*
X0386893Y0031013D01*
X0386780Y0031049D01*
X0386668Y0031088D01*
X0386558Y0031131D01*
X0386450Y0031177D01*
X0386343Y0031228D01*
X0386237Y0031282D01*
X0386134Y0031339D01*
X0386033Y0031400D01*
X0385933Y0031464D01*
X0385836Y0031532D01*
X0385742Y0031602D01*
X0385649Y0031676D01*
X0385560Y0031753D01*
X0385473Y0031833D01*
X0385388Y0031916D01*
X0385307Y0032002D01*
X0385228Y0032090D01*
X0385153Y0032181D01*
X0385080Y0032275D01*
X0385011Y0032371D01*
X0384945Y0032469D01*
X0384883Y0032569D01*
X0384824Y0032671D01*
X0384768Y0032776D01*
X0384716Y0032882D01*
X0384668Y0032990D01*
X0384623Y0033099D01*
X0384582Y0033210D01*
X0384545Y0033322D01*
X0384511Y0033436D01*
X0384481Y0033550D01*
X0384456Y0033665D01*
X0384434Y0033782D01*
X0384416Y0033899D01*
X0384402Y0034016D01*
X0384392Y0034134D01*
X0384386Y0034252D01*
X0384384Y0034370D01*
X0384384Y0072370D02*
X0384386Y0072488D01*
X0384392Y0072606D01*
X0384402Y0072724D01*
X0384416Y0072841D01*
X0384434Y0072958D01*
X0384456Y0073075D01*
X0384481Y0073190D01*
X0384511Y0073304D01*
X0384545Y0073418D01*
X0384582Y0073530D01*
X0384623Y0073641D01*
X0384668Y0073750D01*
X0384716Y0073858D01*
X0384768Y0073964D01*
X0384824Y0074069D01*
X0384883Y0074171D01*
X0384945Y0074271D01*
X0385011Y0074369D01*
X0385080Y0074465D01*
X0385153Y0074559D01*
X0385228Y0074650D01*
X0385307Y0074738D01*
X0385388Y0074824D01*
X0385473Y0074907D01*
X0385560Y0074987D01*
X0385649Y0075064D01*
X0385742Y0075138D01*
X0385836Y0075208D01*
X0385933Y0075276D01*
X0386033Y0075340D01*
X0386134Y0075401D01*
X0386237Y0075458D01*
X0386343Y0075512D01*
X0386450Y0075563D01*
X0386558Y0075609D01*
X0386668Y0075652D01*
X0386780Y0075691D01*
X0386893Y0075727D01*
X0387007Y0075758D01*
X0387122Y0075786D01*
X0387237Y0075810D01*
X0387354Y0075830D01*
X0387471Y0075846D01*
X0387589Y0075858D01*
X0387707Y0075866D01*
X0387825Y0075870D01*
X0387943Y0075870D01*
X0388061Y0075866D01*
X0388179Y0075858D01*
X0388297Y0075846D01*
X0388414Y0075830D01*
X0388531Y0075810D01*
X0388646Y0075786D01*
X0388761Y0075758D01*
X0388875Y0075727D01*
X0388988Y0075691D01*
X0389100Y0075652D01*
X0389210Y0075609D01*
X0389318Y0075563D01*
X0389425Y0075512D01*
X0389531Y0075458D01*
X0389634Y0075401D01*
X0389735Y0075340D01*
X0389835Y0075276D01*
X0389932Y0075208D01*
X0390026Y0075138D01*
X0390119Y0075064D01*
X0390208Y0074987D01*
X0390295Y0074907D01*
X0390380Y0074824D01*
X0390461Y0074738D01*
X0390540Y0074650D01*
X0390615Y0074559D01*
X0390688Y0074465D01*
X0390757Y0074369D01*
X0390823Y0074271D01*
X0390885Y0074171D01*
X0390944Y0074069D01*
X0391000Y0073964D01*
X0391052Y0073858D01*
X0391100Y0073750D01*
X0391145Y0073641D01*
X0391186Y0073530D01*
X0391223Y0073418D01*
X0391257Y0073304D01*
X0391287Y0073190D01*
X0391312Y0073075D01*
X0391334Y0072958D01*
X0391352Y0072841D01*
X0391366Y0072724D01*
X0391376Y0072606D01*
X0391382Y0072488D01*
X0391384Y0072370D01*
X0391382Y0072252D01*
X0391376Y0072134D01*
X0391366Y0072016D01*
X0391352Y0071899D01*
X0391334Y0071782D01*
X0391312Y0071665D01*
X0391287Y0071550D01*
X0391257Y0071436D01*
X0391223Y0071322D01*
X0391186Y0071210D01*
X0391145Y0071099D01*
X0391100Y0070990D01*
X0391052Y0070882D01*
X0391000Y0070776D01*
X0390944Y0070671D01*
X0390885Y0070569D01*
X0390823Y0070469D01*
X0390757Y0070371D01*
X0390688Y0070275D01*
X0390615Y0070181D01*
X0390540Y0070090D01*
X0390461Y0070002D01*
X0390380Y0069916D01*
X0390295Y0069833D01*
X0390208Y0069753D01*
X0390119Y0069676D01*
X0390026Y0069602D01*
X0389932Y0069532D01*
X0389835Y0069464D01*
X0389735Y0069400D01*
X0389634Y0069339D01*
X0389531Y0069282D01*
X0389425Y0069228D01*
X0389318Y0069177D01*
X0389210Y0069131D01*
X0389100Y0069088D01*
X0388988Y0069049D01*
X0388875Y0069013D01*
X0388761Y0068982D01*
X0388646Y0068954D01*
X0388531Y0068930D01*
X0388414Y0068910D01*
X0388297Y0068894D01*
X0388179Y0068882D01*
X0388061Y0068874D01*
X0387943Y0068870D01*
X0387825Y0068870D01*
X0387707Y0068874D01*
X0387589Y0068882D01*
X0387471Y0068894D01*
X0387354Y0068910D01*
X0387237Y0068930D01*
X0387122Y0068954D01*
X0387007Y0068982D01*
X0386893Y0069013D01*
X0386780Y0069049D01*
X0386668Y0069088D01*
X0386558Y0069131D01*
X0386450Y0069177D01*
X0386343Y0069228D01*
X0386237Y0069282D01*
X0386134Y0069339D01*
X0386033Y0069400D01*
X0385933Y0069464D01*
X0385836Y0069532D01*
X0385742Y0069602D01*
X0385649Y0069676D01*
X0385560Y0069753D01*
X0385473Y0069833D01*
X0385388Y0069916D01*
X0385307Y0070002D01*
X0385228Y0070090D01*
X0385153Y0070181D01*
X0385080Y0070275D01*
X0385011Y0070371D01*
X0384945Y0070469D01*
X0384883Y0070569D01*
X0384824Y0070671D01*
X0384768Y0070776D01*
X0384716Y0070882D01*
X0384668Y0070990D01*
X0384623Y0071099D01*
X0384582Y0071210D01*
X0384545Y0071322D01*
X0384511Y0071436D01*
X0384481Y0071550D01*
X0384456Y0071665D01*
X0384434Y0071782D01*
X0384416Y0071899D01*
X0384402Y0072016D01*
X0384392Y0072134D01*
X0384386Y0072252D01*
X0384384Y0072370D01*
X0356825Y0072370D02*
X0356827Y0072488D01*
X0356833Y0072606D01*
X0356843Y0072724D01*
X0356857Y0072841D01*
X0356875Y0072958D01*
X0356897Y0073075D01*
X0356922Y0073190D01*
X0356952Y0073304D01*
X0356986Y0073418D01*
X0357023Y0073530D01*
X0357064Y0073641D01*
X0357109Y0073750D01*
X0357157Y0073858D01*
X0357209Y0073964D01*
X0357265Y0074069D01*
X0357324Y0074171D01*
X0357386Y0074271D01*
X0357452Y0074369D01*
X0357521Y0074465D01*
X0357594Y0074559D01*
X0357669Y0074650D01*
X0357748Y0074738D01*
X0357829Y0074824D01*
X0357914Y0074907D01*
X0358001Y0074987D01*
X0358090Y0075064D01*
X0358183Y0075138D01*
X0358277Y0075208D01*
X0358374Y0075276D01*
X0358474Y0075340D01*
X0358575Y0075401D01*
X0358678Y0075458D01*
X0358784Y0075512D01*
X0358891Y0075563D01*
X0358999Y0075609D01*
X0359109Y0075652D01*
X0359221Y0075691D01*
X0359334Y0075727D01*
X0359448Y0075758D01*
X0359563Y0075786D01*
X0359678Y0075810D01*
X0359795Y0075830D01*
X0359912Y0075846D01*
X0360030Y0075858D01*
X0360148Y0075866D01*
X0360266Y0075870D01*
X0360384Y0075870D01*
X0360502Y0075866D01*
X0360620Y0075858D01*
X0360738Y0075846D01*
X0360855Y0075830D01*
X0360972Y0075810D01*
X0361087Y0075786D01*
X0361202Y0075758D01*
X0361316Y0075727D01*
X0361429Y0075691D01*
X0361541Y0075652D01*
X0361651Y0075609D01*
X0361759Y0075563D01*
X0361866Y0075512D01*
X0361972Y0075458D01*
X0362075Y0075401D01*
X0362176Y0075340D01*
X0362276Y0075276D01*
X0362373Y0075208D01*
X0362467Y0075138D01*
X0362560Y0075064D01*
X0362649Y0074987D01*
X0362736Y0074907D01*
X0362821Y0074824D01*
X0362902Y0074738D01*
X0362981Y0074650D01*
X0363056Y0074559D01*
X0363129Y0074465D01*
X0363198Y0074369D01*
X0363264Y0074271D01*
X0363326Y0074171D01*
X0363385Y0074069D01*
X0363441Y0073964D01*
X0363493Y0073858D01*
X0363541Y0073750D01*
X0363586Y0073641D01*
X0363627Y0073530D01*
X0363664Y0073418D01*
X0363698Y0073304D01*
X0363728Y0073190D01*
X0363753Y0073075D01*
X0363775Y0072958D01*
X0363793Y0072841D01*
X0363807Y0072724D01*
X0363817Y0072606D01*
X0363823Y0072488D01*
X0363825Y0072370D01*
X0363823Y0072252D01*
X0363817Y0072134D01*
X0363807Y0072016D01*
X0363793Y0071899D01*
X0363775Y0071782D01*
X0363753Y0071665D01*
X0363728Y0071550D01*
X0363698Y0071436D01*
X0363664Y0071322D01*
X0363627Y0071210D01*
X0363586Y0071099D01*
X0363541Y0070990D01*
X0363493Y0070882D01*
X0363441Y0070776D01*
X0363385Y0070671D01*
X0363326Y0070569D01*
X0363264Y0070469D01*
X0363198Y0070371D01*
X0363129Y0070275D01*
X0363056Y0070181D01*
X0362981Y0070090D01*
X0362902Y0070002D01*
X0362821Y0069916D01*
X0362736Y0069833D01*
X0362649Y0069753D01*
X0362560Y0069676D01*
X0362467Y0069602D01*
X0362373Y0069532D01*
X0362276Y0069464D01*
X0362176Y0069400D01*
X0362075Y0069339D01*
X0361972Y0069282D01*
X0361866Y0069228D01*
X0361759Y0069177D01*
X0361651Y0069131D01*
X0361541Y0069088D01*
X0361429Y0069049D01*
X0361316Y0069013D01*
X0361202Y0068982D01*
X0361087Y0068954D01*
X0360972Y0068930D01*
X0360855Y0068910D01*
X0360738Y0068894D01*
X0360620Y0068882D01*
X0360502Y0068874D01*
X0360384Y0068870D01*
X0360266Y0068870D01*
X0360148Y0068874D01*
X0360030Y0068882D01*
X0359912Y0068894D01*
X0359795Y0068910D01*
X0359678Y0068930D01*
X0359563Y0068954D01*
X0359448Y0068982D01*
X0359334Y0069013D01*
X0359221Y0069049D01*
X0359109Y0069088D01*
X0358999Y0069131D01*
X0358891Y0069177D01*
X0358784Y0069228D01*
X0358678Y0069282D01*
X0358575Y0069339D01*
X0358474Y0069400D01*
X0358374Y0069464D01*
X0358277Y0069532D01*
X0358183Y0069602D01*
X0358090Y0069676D01*
X0358001Y0069753D01*
X0357914Y0069833D01*
X0357829Y0069916D01*
X0357748Y0070002D01*
X0357669Y0070090D01*
X0357594Y0070181D01*
X0357521Y0070275D01*
X0357452Y0070371D01*
X0357386Y0070469D01*
X0357324Y0070569D01*
X0357265Y0070671D01*
X0357209Y0070776D01*
X0357157Y0070882D01*
X0357109Y0070990D01*
X0357064Y0071099D01*
X0357023Y0071210D01*
X0356986Y0071322D01*
X0356952Y0071436D01*
X0356922Y0071550D01*
X0356897Y0071665D01*
X0356875Y0071782D01*
X0356857Y0071899D01*
X0356843Y0072016D01*
X0356833Y0072134D01*
X0356827Y0072252D01*
X0356825Y0072370D01*
X0333439Y0080642D02*
X0333441Y0080726D01*
X0333447Y0080809D01*
X0333457Y0080892D01*
X0333471Y0080975D01*
X0333488Y0081057D01*
X0333510Y0081138D01*
X0333535Y0081217D01*
X0333564Y0081296D01*
X0333597Y0081373D01*
X0333633Y0081448D01*
X0333673Y0081522D01*
X0333716Y0081594D01*
X0333763Y0081663D01*
X0333813Y0081730D01*
X0333866Y0081795D01*
X0333922Y0081857D01*
X0333980Y0081917D01*
X0334042Y0081974D01*
X0334106Y0082027D01*
X0334173Y0082078D01*
X0334242Y0082125D01*
X0334313Y0082170D01*
X0334386Y0082210D01*
X0334461Y0082247D01*
X0334538Y0082281D01*
X0334616Y0082311D01*
X0334695Y0082337D01*
X0334776Y0082360D01*
X0334858Y0082378D01*
X0334940Y0082393D01*
X0335023Y0082404D01*
X0335106Y0082411D01*
X0335190Y0082414D01*
X0335274Y0082413D01*
X0335357Y0082408D01*
X0335441Y0082399D01*
X0335523Y0082386D01*
X0335605Y0082370D01*
X0335686Y0082349D01*
X0335767Y0082325D01*
X0335845Y0082297D01*
X0335923Y0082265D01*
X0335999Y0082229D01*
X0336073Y0082190D01*
X0336145Y0082148D01*
X0336215Y0082102D01*
X0336283Y0082053D01*
X0336348Y0082001D01*
X0336411Y0081946D01*
X0336471Y0081888D01*
X0336529Y0081827D01*
X0336583Y0081763D01*
X0336635Y0081697D01*
X0336683Y0081629D01*
X0336728Y0081558D01*
X0336769Y0081485D01*
X0336808Y0081411D01*
X0336842Y0081335D01*
X0336873Y0081257D01*
X0336900Y0081178D01*
X0336924Y0081097D01*
X0336943Y0081016D01*
X0336959Y0080934D01*
X0336971Y0080851D01*
X0336979Y0080767D01*
X0336983Y0080684D01*
X0336983Y0080600D01*
X0336979Y0080517D01*
X0336971Y0080433D01*
X0336959Y0080350D01*
X0336943Y0080268D01*
X0336924Y0080187D01*
X0336900Y0080106D01*
X0336873Y0080027D01*
X0336842Y0079949D01*
X0336808Y0079873D01*
X0336769Y0079799D01*
X0336728Y0079726D01*
X0336683Y0079655D01*
X0336635Y0079587D01*
X0336583Y0079521D01*
X0336529Y0079457D01*
X0336471Y0079396D01*
X0336411Y0079338D01*
X0336348Y0079283D01*
X0336283Y0079231D01*
X0336215Y0079182D01*
X0336145Y0079136D01*
X0336073Y0079094D01*
X0335999Y0079055D01*
X0335923Y0079019D01*
X0335845Y0078987D01*
X0335767Y0078959D01*
X0335686Y0078935D01*
X0335605Y0078914D01*
X0335523Y0078898D01*
X0335441Y0078885D01*
X0335357Y0078876D01*
X0335274Y0078871D01*
X0335190Y0078870D01*
X0335106Y0078873D01*
X0335023Y0078880D01*
X0334940Y0078891D01*
X0334858Y0078906D01*
X0334776Y0078924D01*
X0334695Y0078947D01*
X0334616Y0078973D01*
X0334538Y0079003D01*
X0334461Y0079037D01*
X0334386Y0079074D01*
X0334313Y0079114D01*
X0334242Y0079159D01*
X0334173Y0079206D01*
X0334106Y0079257D01*
X0334042Y0079310D01*
X0333980Y0079367D01*
X0333922Y0079427D01*
X0333866Y0079489D01*
X0333813Y0079554D01*
X0333763Y0079621D01*
X0333716Y0079690D01*
X0333673Y0079762D01*
X0333633Y0079836D01*
X0333597Y0079911D01*
X0333564Y0079988D01*
X0333535Y0080067D01*
X0333510Y0080146D01*
X0333488Y0080227D01*
X0333471Y0080309D01*
X0333457Y0080392D01*
X0333447Y0080475D01*
X0333441Y0080558D01*
X0333439Y0080642D01*
X0306667Y0080642D02*
X0306669Y0080726D01*
X0306675Y0080809D01*
X0306685Y0080892D01*
X0306699Y0080975D01*
X0306716Y0081057D01*
X0306738Y0081138D01*
X0306763Y0081217D01*
X0306792Y0081296D01*
X0306825Y0081373D01*
X0306861Y0081448D01*
X0306901Y0081522D01*
X0306944Y0081594D01*
X0306991Y0081663D01*
X0307041Y0081730D01*
X0307094Y0081795D01*
X0307150Y0081857D01*
X0307208Y0081917D01*
X0307270Y0081974D01*
X0307334Y0082027D01*
X0307401Y0082078D01*
X0307470Y0082125D01*
X0307541Y0082170D01*
X0307614Y0082210D01*
X0307689Y0082247D01*
X0307766Y0082281D01*
X0307844Y0082311D01*
X0307923Y0082337D01*
X0308004Y0082360D01*
X0308086Y0082378D01*
X0308168Y0082393D01*
X0308251Y0082404D01*
X0308334Y0082411D01*
X0308418Y0082414D01*
X0308502Y0082413D01*
X0308585Y0082408D01*
X0308669Y0082399D01*
X0308751Y0082386D01*
X0308833Y0082370D01*
X0308914Y0082349D01*
X0308995Y0082325D01*
X0309073Y0082297D01*
X0309151Y0082265D01*
X0309227Y0082229D01*
X0309301Y0082190D01*
X0309373Y0082148D01*
X0309443Y0082102D01*
X0309511Y0082053D01*
X0309576Y0082001D01*
X0309639Y0081946D01*
X0309699Y0081888D01*
X0309757Y0081827D01*
X0309811Y0081763D01*
X0309863Y0081697D01*
X0309911Y0081629D01*
X0309956Y0081558D01*
X0309997Y0081485D01*
X0310036Y0081411D01*
X0310070Y0081335D01*
X0310101Y0081257D01*
X0310128Y0081178D01*
X0310152Y0081097D01*
X0310171Y0081016D01*
X0310187Y0080934D01*
X0310199Y0080851D01*
X0310207Y0080767D01*
X0310211Y0080684D01*
X0310211Y0080600D01*
X0310207Y0080517D01*
X0310199Y0080433D01*
X0310187Y0080350D01*
X0310171Y0080268D01*
X0310152Y0080187D01*
X0310128Y0080106D01*
X0310101Y0080027D01*
X0310070Y0079949D01*
X0310036Y0079873D01*
X0309997Y0079799D01*
X0309956Y0079726D01*
X0309911Y0079655D01*
X0309863Y0079587D01*
X0309811Y0079521D01*
X0309757Y0079457D01*
X0309699Y0079396D01*
X0309639Y0079338D01*
X0309576Y0079283D01*
X0309511Y0079231D01*
X0309443Y0079182D01*
X0309373Y0079136D01*
X0309301Y0079094D01*
X0309227Y0079055D01*
X0309151Y0079019D01*
X0309073Y0078987D01*
X0308995Y0078959D01*
X0308914Y0078935D01*
X0308833Y0078914D01*
X0308751Y0078898D01*
X0308669Y0078885D01*
X0308585Y0078876D01*
X0308502Y0078871D01*
X0308418Y0078870D01*
X0308334Y0078873D01*
X0308251Y0078880D01*
X0308168Y0078891D01*
X0308086Y0078906D01*
X0308004Y0078924D01*
X0307923Y0078947D01*
X0307844Y0078973D01*
X0307766Y0079003D01*
X0307689Y0079037D01*
X0307614Y0079074D01*
X0307541Y0079114D01*
X0307470Y0079159D01*
X0307401Y0079206D01*
X0307334Y0079257D01*
X0307270Y0079310D01*
X0307208Y0079367D01*
X0307150Y0079427D01*
X0307094Y0079489D01*
X0307041Y0079554D01*
X0306991Y0079621D01*
X0306944Y0079690D01*
X0306901Y0079762D01*
X0306861Y0079836D01*
X0306825Y0079911D01*
X0306792Y0079988D01*
X0306763Y0080067D01*
X0306738Y0080146D01*
X0306716Y0080227D01*
X0306699Y0080309D01*
X0306685Y0080392D01*
X0306675Y0080475D01*
X0306669Y0080558D01*
X0306667Y0080642D01*
X0105093Y0080642D02*
X0105095Y0080726D01*
X0105101Y0080809D01*
X0105111Y0080892D01*
X0105125Y0080975D01*
X0105142Y0081057D01*
X0105164Y0081138D01*
X0105189Y0081217D01*
X0105218Y0081296D01*
X0105251Y0081373D01*
X0105287Y0081448D01*
X0105327Y0081522D01*
X0105370Y0081594D01*
X0105417Y0081663D01*
X0105467Y0081730D01*
X0105520Y0081795D01*
X0105576Y0081857D01*
X0105634Y0081917D01*
X0105696Y0081974D01*
X0105760Y0082027D01*
X0105827Y0082078D01*
X0105896Y0082125D01*
X0105967Y0082170D01*
X0106040Y0082210D01*
X0106115Y0082247D01*
X0106192Y0082281D01*
X0106270Y0082311D01*
X0106349Y0082337D01*
X0106430Y0082360D01*
X0106512Y0082378D01*
X0106594Y0082393D01*
X0106677Y0082404D01*
X0106760Y0082411D01*
X0106844Y0082414D01*
X0106928Y0082413D01*
X0107011Y0082408D01*
X0107095Y0082399D01*
X0107177Y0082386D01*
X0107259Y0082370D01*
X0107340Y0082349D01*
X0107421Y0082325D01*
X0107499Y0082297D01*
X0107577Y0082265D01*
X0107653Y0082229D01*
X0107727Y0082190D01*
X0107799Y0082148D01*
X0107869Y0082102D01*
X0107937Y0082053D01*
X0108002Y0082001D01*
X0108065Y0081946D01*
X0108125Y0081888D01*
X0108183Y0081827D01*
X0108237Y0081763D01*
X0108289Y0081697D01*
X0108337Y0081629D01*
X0108382Y0081558D01*
X0108423Y0081485D01*
X0108462Y0081411D01*
X0108496Y0081335D01*
X0108527Y0081257D01*
X0108554Y0081178D01*
X0108578Y0081097D01*
X0108597Y0081016D01*
X0108613Y0080934D01*
X0108625Y0080851D01*
X0108633Y0080767D01*
X0108637Y0080684D01*
X0108637Y0080600D01*
X0108633Y0080517D01*
X0108625Y0080433D01*
X0108613Y0080350D01*
X0108597Y0080268D01*
X0108578Y0080187D01*
X0108554Y0080106D01*
X0108527Y0080027D01*
X0108496Y0079949D01*
X0108462Y0079873D01*
X0108423Y0079799D01*
X0108382Y0079726D01*
X0108337Y0079655D01*
X0108289Y0079587D01*
X0108237Y0079521D01*
X0108183Y0079457D01*
X0108125Y0079396D01*
X0108065Y0079338D01*
X0108002Y0079283D01*
X0107937Y0079231D01*
X0107869Y0079182D01*
X0107799Y0079136D01*
X0107727Y0079094D01*
X0107653Y0079055D01*
X0107577Y0079019D01*
X0107499Y0078987D01*
X0107421Y0078959D01*
X0107340Y0078935D01*
X0107259Y0078914D01*
X0107177Y0078898D01*
X0107095Y0078885D01*
X0107011Y0078876D01*
X0106928Y0078871D01*
X0106844Y0078870D01*
X0106760Y0078873D01*
X0106677Y0078880D01*
X0106594Y0078891D01*
X0106512Y0078906D01*
X0106430Y0078924D01*
X0106349Y0078947D01*
X0106270Y0078973D01*
X0106192Y0079003D01*
X0106115Y0079037D01*
X0106040Y0079074D01*
X0105967Y0079114D01*
X0105896Y0079159D01*
X0105827Y0079206D01*
X0105760Y0079257D01*
X0105696Y0079310D01*
X0105634Y0079367D01*
X0105576Y0079427D01*
X0105520Y0079489D01*
X0105467Y0079554D01*
X0105417Y0079621D01*
X0105370Y0079690D01*
X0105327Y0079762D01*
X0105287Y0079836D01*
X0105251Y0079911D01*
X0105218Y0079988D01*
X0105189Y0080067D01*
X0105164Y0080146D01*
X0105142Y0080227D01*
X0105125Y0080309D01*
X0105111Y0080392D01*
X0105101Y0080475D01*
X0105095Y0080558D01*
X0105093Y0080642D01*
X0078321Y0080642D02*
X0078323Y0080726D01*
X0078329Y0080809D01*
X0078339Y0080892D01*
X0078353Y0080975D01*
X0078370Y0081057D01*
X0078392Y0081138D01*
X0078417Y0081217D01*
X0078446Y0081296D01*
X0078479Y0081373D01*
X0078515Y0081448D01*
X0078555Y0081522D01*
X0078598Y0081594D01*
X0078645Y0081663D01*
X0078695Y0081730D01*
X0078748Y0081795D01*
X0078804Y0081857D01*
X0078862Y0081917D01*
X0078924Y0081974D01*
X0078988Y0082027D01*
X0079055Y0082078D01*
X0079124Y0082125D01*
X0079195Y0082170D01*
X0079268Y0082210D01*
X0079343Y0082247D01*
X0079420Y0082281D01*
X0079498Y0082311D01*
X0079577Y0082337D01*
X0079658Y0082360D01*
X0079740Y0082378D01*
X0079822Y0082393D01*
X0079905Y0082404D01*
X0079988Y0082411D01*
X0080072Y0082414D01*
X0080156Y0082413D01*
X0080239Y0082408D01*
X0080323Y0082399D01*
X0080405Y0082386D01*
X0080487Y0082370D01*
X0080568Y0082349D01*
X0080649Y0082325D01*
X0080727Y0082297D01*
X0080805Y0082265D01*
X0080881Y0082229D01*
X0080955Y0082190D01*
X0081027Y0082148D01*
X0081097Y0082102D01*
X0081165Y0082053D01*
X0081230Y0082001D01*
X0081293Y0081946D01*
X0081353Y0081888D01*
X0081411Y0081827D01*
X0081465Y0081763D01*
X0081517Y0081697D01*
X0081565Y0081629D01*
X0081610Y0081558D01*
X0081651Y0081485D01*
X0081690Y0081411D01*
X0081724Y0081335D01*
X0081755Y0081257D01*
X0081782Y0081178D01*
X0081806Y0081097D01*
X0081825Y0081016D01*
X0081841Y0080934D01*
X0081853Y0080851D01*
X0081861Y0080767D01*
X0081865Y0080684D01*
X0081865Y0080600D01*
X0081861Y0080517D01*
X0081853Y0080433D01*
X0081841Y0080350D01*
X0081825Y0080268D01*
X0081806Y0080187D01*
X0081782Y0080106D01*
X0081755Y0080027D01*
X0081724Y0079949D01*
X0081690Y0079873D01*
X0081651Y0079799D01*
X0081610Y0079726D01*
X0081565Y0079655D01*
X0081517Y0079587D01*
X0081465Y0079521D01*
X0081411Y0079457D01*
X0081353Y0079396D01*
X0081293Y0079338D01*
X0081230Y0079283D01*
X0081165Y0079231D01*
X0081097Y0079182D01*
X0081027Y0079136D01*
X0080955Y0079094D01*
X0080881Y0079055D01*
X0080805Y0079019D01*
X0080727Y0078987D01*
X0080649Y0078959D01*
X0080568Y0078935D01*
X0080487Y0078914D01*
X0080405Y0078898D01*
X0080323Y0078885D01*
X0080239Y0078876D01*
X0080156Y0078871D01*
X0080072Y0078870D01*
X0079988Y0078873D01*
X0079905Y0078880D01*
X0079822Y0078891D01*
X0079740Y0078906D01*
X0079658Y0078924D01*
X0079577Y0078947D01*
X0079498Y0078973D01*
X0079420Y0079003D01*
X0079343Y0079037D01*
X0079268Y0079074D01*
X0079195Y0079114D01*
X0079124Y0079159D01*
X0079055Y0079206D01*
X0078988Y0079257D01*
X0078924Y0079310D01*
X0078862Y0079367D01*
X0078804Y0079427D01*
X0078748Y0079489D01*
X0078695Y0079554D01*
X0078645Y0079621D01*
X0078598Y0079690D01*
X0078555Y0079762D01*
X0078515Y0079836D01*
X0078479Y0079911D01*
X0078446Y0079988D01*
X0078417Y0080067D01*
X0078392Y0080146D01*
X0078370Y0080227D01*
X0078353Y0080309D01*
X0078339Y0080392D01*
X0078329Y0080475D01*
X0078323Y0080558D01*
X0078321Y0080642D01*
X0053911Y0080642D02*
X0053913Y0080726D01*
X0053919Y0080809D01*
X0053929Y0080892D01*
X0053943Y0080975D01*
X0053960Y0081057D01*
X0053982Y0081138D01*
X0054007Y0081217D01*
X0054036Y0081296D01*
X0054069Y0081373D01*
X0054105Y0081448D01*
X0054145Y0081522D01*
X0054188Y0081594D01*
X0054235Y0081663D01*
X0054285Y0081730D01*
X0054338Y0081795D01*
X0054394Y0081857D01*
X0054452Y0081917D01*
X0054514Y0081974D01*
X0054578Y0082027D01*
X0054645Y0082078D01*
X0054714Y0082125D01*
X0054785Y0082170D01*
X0054858Y0082210D01*
X0054933Y0082247D01*
X0055010Y0082281D01*
X0055088Y0082311D01*
X0055167Y0082337D01*
X0055248Y0082360D01*
X0055330Y0082378D01*
X0055412Y0082393D01*
X0055495Y0082404D01*
X0055578Y0082411D01*
X0055662Y0082414D01*
X0055746Y0082413D01*
X0055829Y0082408D01*
X0055913Y0082399D01*
X0055995Y0082386D01*
X0056077Y0082370D01*
X0056158Y0082349D01*
X0056239Y0082325D01*
X0056317Y0082297D01*
X0056395Y0082265D01*
X0056471Y0082229D01*
X0056545Y0082190D01*
X0056617Y0082148D01*
X0056687Y0082102D01*
X0056755Y0082053D01*
X0056820Y0082001D01*
X0056883Y0081946D01*
X0056943Y0081888D01*
X0057001Y0081827D01*
X0057055Y0081763D01*
X0057107Y0081697D01*
X0057155Y0081629D01*
X0057200Y0081558D01*
X0057241Y0081485D01*
X0057280Y0081411D01*
X0057314Y0081335D01*
X0057345Y0081257D01*
X0057372Y0081178D01*
X0057396Y0081097D01*
X0057415Y0081016D01*
X0057431Y0080934D01*
X0057443Y0080851D01*
X0057451Y0080767D01*
X0057455Y0080684D01*
X0057455Y0080600D01*
X0057451Y0080517D01*
X0057443Y0080433D01*
X0057431Y0080350D01*
X0057415Y0080268D01*
X0057396Y0080187D01*
X0057372Y0080106D01*
X0057345Y0080027D01*
X0057314Y0079949D01*
X0057280Y0079873D01*
X0057241Y0079799D01*
X0057200Y0079726D01*
X0057155Y0079655D01*
X0057107Y0079587D01*
X0057055Y0079521D01*
X0057001Y0079457D01*
X0056943Y0079396D01*
X0056883Y0079338D01*
X0056820Y0079283D01*
X0056755Y0079231D01*
X0056687Y0079182D01*
X0056617Y0079136D01*
X0056545Y0079094D01*
X0056471Y0079055D01*
X0056395Y0079019D01*
X0056317Y0078987D01*
X0056239Y0078959D01*
X0056158Y0078935D01*
X0056077Y0078914D01*
X0055995Y0078898D01*
X0055913Y0078885D01*
X0055829Y0078876D01*
X0055746Y0078871D01*
X0055662Y0078870D01*
X0055578Y0078873D01*
X0055495Y0078880D01*
X0055412Y0078891D01*
X0055330Y0078906D01*
X0055248Y0078924D01*
X0055167Y0078947D01*
X0055088Y0078973D01*
X0055010Y0079003D01*
X0054933Y0079037D01*
X0054858Y0079074D01*
X0054785Y0079114D01*
X0054714Y0079159D01*
X0054645Y0079206D01*
X0054578Y0079257D01*
X0054514Y0079310D01*
X0054452Y0079367D01*
X0054394Y0079427D01*
X0054338Y0079489D01*
X0054285Y0079554D01*
X0054235Y0079621D01*
X0054188Y0079690D01*
X0054145Y0079762D01*
X0054105Y0079836D01*
X0054069Y0079911D01*
X0054036Y0079988D01*
X0054007Y0080067D01*
X0053982Y0080146D01*
X0053960Y0080227D01*
X0053943Y0080309D01*
X0053929Y0080392D01*
X0053919Y0080475D01*
X0053913Y0080558D01*
X0053911Y0080642D01*
X0027140Y0080642D02*
X0027142Y0080726D01*
X0027148Y0080809D01*
X0027158Y0080892D01*
X0027172Y0080975D01*
X0027189Y0081057D01*
X0027211Y0081138D01*
X0027236Y0081217D01*
X0027265Y0081296D01*
X0027298Y0081373D01*
X0027334Y0081448D01*
X0027374Y0081522D01*
X0027417Y0081594D01*
X0027464Y0081663D01*
X0027514Y0081730D01*
X0027567Y0081795D01*
X0027623Y0081857D01*
X0027681Y0081917D01*
X0027743Y0081974D01*
X0027807Y0082027D01*
X0027874Y0082078D01*
X0027943Y0082125D01*
X0028014Y0082170D01*
X0028087Y0082210D01*
X0028162Y0082247D01*
X0028239Y0082281D01*
X0028317Y0082311D01*
X0028396Y0082337D01*
X0028477Y0082360D01*
X0028559Y0082378D01*
X0028641Y0082393D01*
X0028724Y0082404D01*
X0028807Y0082411D01*
X0028891Y0082414D01*
X0028975Y0082413D01*
X0029058Y0082408D01*
X0029142Y0082399D01*
X0029224Y0082386D01*
X0029306Y0082370D01*
X0029387Y0082349D01*
X0029468Y0082325D01*
X0029546Y0082297D01*
X0029624Y0082265D01*
X0029700Y0082229D01*
X0029774Y0082190D01*
X0029846Y0082148D01*
X0029916Y0082102D01*
X0029984Y0082053D01*
X0030049Y0082001D01*
X0030112Y0081946D01*
X0030172Y0081888D01*
X0030230Y0081827D01*
X0030284Y0081763D01*
X0030336Y0081697D01*
X0030384Y0081629D01*
X0030429Y0081558D01*
X0030470Y0081485D01*
X0030509Y0081411D01*
X0030543Y0081335D01*
X0030574Y0081257D01*
X0030601Y0081178D01*
X0030625Y0081097D01*
X0030644Y0081016D01*
X0030660Y0080934D01*
X0030672Y0080851D01*
X0030680Y0080767D01*
X0030684Y0080684D01*
X0030684Y0080600D01*
X0030680Y0080517D01*
X0030672Y0080433D01*
X0030660Y0080350D01*
X0030644Y0080268D01*
X0030625Y0080187D01*
X0030601Y0080106D01*
X0030574Y0080027D01*
X0030543Y0079949D01*
X0030509Y0079873D01*
X0030470Y0079799D01*
X0030429Y0079726D01*
X0030384Y0079655D01*
X0030336Y0079587D01*
X0030284Y0079521D01*
X0030230Y0079457D01*
X0030172Y0079396D01*
X0030112Y0079338D01*
X0030049Y0079283D01*
X0029984Y0079231D01*
X0029916Y0079182D01*
X0029846Y0079136D01*
X0029774Y0079094D01*
X0029700Y0079055D01*
X0029624Y0079019D01*
X0029546Y0078987D01*
X0029468Y0078959D01*
X0029387Y0078935D01*
X0029306Y0078914D01*
X0029224Y0078898D01*
X0029142Y0078885D01*
X0029058Y0078876D01*
X0028975Y0078871D01*
X0028891Y0078870D01*
X0028807Y0078873D01*
X0028724Y0078880D01*
X0028641Y0078891D01*
X0028559Y0078906D01*
X0028477Y0078924D01*
X0028396Y0078947D01*
X0028317Y0078973D01*
X0028239Y0079003D01*
X0028162Y0079037D01*
X0028087Y0079074D01*
X0028014Y0079114D01*
X0027943Y0079159D01*
X0027874Y0079206D01*
X0027807Y0079257D01*
X0027743Y0079310D01*
X0027681Y0079367D01*
X0027623Y0079427D01*
X0027567Y0079489D01*
X0027514Y0079554D01*
X0027464Y0079621D01*
X0027417Y0079690D01*
X0027374Y0079762D01*
X0027334Y0079836D01*
X0027298Y0079911D01*
X0027265Y0079988D01*
X0027236Y0080067D01*
X0027211Y0080146D01*
X0027189Y0080227D01*
X0027172Y0080309D01*
X0027158Y0080392D01*
X0027148Y0080475D01*
X0027142Y0080558D01*
X0027140Y0080642D01*
M02*
