%
M48
M72
T01C0.0130
T02C0.0276
T03C0.0315
T04C0.0320
T05C0.0360
T06C0.0400
T07C0.0700
T08C0.1575
%
T01
X11135Y11490
X15615Y11970
X18655Y15170
X28895Y13250
T02
X28783Y17453
X29783Y17453
X30783Y17453
X10310Y14303
X9310Y14303
X8310Y14303
T03
X1436Y11154
X1436Y10366
X23664Y5323
X24664Y5323
X24664Y4823
X25664Y5323
X25664Y3823
X24664Y3823
X23664Y3823
X23664Y2823
X23664Y2823
X24664Y2823
X24664Y2823
X25664Y2823
X25664Y2823
X25664Y1823
X24664Y1823
X23664Y1823
T04
X19153Y3961
X19153Y4961
X20227Y8004
X21227Y8004
X17290Y8004
X16290Y8004
X14034Y4567
X14034Y3567
X10885Y7110
X10885Y8110
X6160Y8516
X5160Y8516
X6160Y5748
X6160Y4748
X19440Y13122
X20440Y13122
X25739Y11547
X26739Y11547
X26633Y8898
X26633Y7898
X31357Y9079
X31357Y10079
X36082Y10260
X36082Y11260
X32645Y20602
X31645Y20602
X28208Y21284
X28208Y22284
X22696Y22284
X22696Y21284
X16397Y20315
X16397Y19315
X16397Y22465
X16397Y23465
X10885Y18347
X10885Y17347
X5479Y16272
X4479Y16272
X4479Y13910
X5479Y13910
X8129Y21677
X8129Y22677
T05
X4011Y19028
X2011Y19028
T06
X1042Y15161
X1042Y14021
X23827Y12516
X23927Y13516
X23927Y11516
X31258Y5599
X31158Y4599
X31258Y3599
T07
X34664Y6095
X37420Y6095
X37420Y15543
X34664Y15543
T08
X2223Y2099
X2223Y24146
X37657Y23752
X37657Y2099
M30
