G75*
%MOIN*%
%OFA0B0*%
%FSLAX25Y25*%
%IPPOS*%
%LPD*%
%AMOC8*
5,1,8,0,0,1.08239X$1,22.5*
%
%ADD10C,0.00400*%
%ADD11C,0.00500*%
%ADD12C,0.00800*%
%ADD13C,0.00600*%
%ADD14C,0.02559*%
%ADD15C,0.01200*%
%ADD16C,0.00787*%
D10*
X0048890Y0016423D02*
X0050358Y0016423D01*
X0049624Y0016423D02*
X0049624Y0018625D01*
X0048890Y0017891D01*
X0051284Y0018258D02*
X0051651Y0018625D01*
X0052385Y0018625D01*
X0052752Y0018258D01*
X0051284Y0016790D01*
X0051651Y0016423D01*
X0052385Y0016423D01*
X0052752Y0016790D01*
X0052752Y0018258D01*
X0053678Y0017891D02*
X0053678Y0016790D01*
X0054045Y0016423D01*
X0055146Y0016423D01*
X0055146Y0017891D01*
X0056072Y0017524D02*
X0056806Y0017524D01*
X0056072Y0016423D02*
X0056072Y0018625D01*
X0057540Y0018625D01*
X0051284Y0018258D02*
X0051284Y0016790D01*
X0040615Y0017356D02*
X0040615Y0019558D01*
X0039881Y0018824D01*
X0039147Y0019558D01*
X0039147Y0017356D01*
X0038221Y0017723D02*
X0037854Y0017356D01*
X0037120Y0017356D01*
X0036753Y0017723D01*
X0038221Y0019191D01*
X0038221Y0017723D01*
X0036753Y0017723D02*
X0036753Y0019191D01*
X0037120Y0019558D01*
X0037854Y0019558D01*
X0038221Y0019191D01*
X0035093Y0019558D02*
X0034359Y0018824D01*
X0035093Y0019558D02*
X0035093Y0017356D01*
X0034359Y0017356D02*
X0035827Y0017356D01*
X0029979Y0018158D02*
X0029612Y0017791D01*
X0028878Y0017791D01*
X0028511Y0018158D01*
X0028878Y0018891D02*
X0029612Y0018891D01*
X0029979Y0018525D01*
X0029979Y0018158D01*
X0028878Y0018891D02*
X0028511Y0019258D01*
X0028511Y0019625D01*
X0028878Y0019992D01*
X0029612Y0019992D01*
X0029979Y0019625D01*
X0027585Y0018891D02*
X0026117Y0018891D01*
X0027218Y0019992D01*
X0027218Y0017791D01*
X0025191Y0018158D02*
X0024824Y0017791D01*
X0024090Y0017791D01*
X0023723Y0018158D01*
X0023723Y0018891D02*
X0024457Y0019258D01*
X0024824Y0019258D01*
X0025191Y0018891D01*
X0025191Y0018158D01*
X0023723Y0018891D02*
X0023723Y0019992D01*
X0025191Y0019992D01*
X0022797Y0019992D02*
X0021329Y0019992D01*
X0022063Y0019992D02*
X0022063Y0017791D01*
X0020403Y0017791D02*
X0020403Y0019258D01*
X0019669Y0019992D01*
X0018935Y0019258D01*
X0018935Y0017791D01*
X0018009Y0018158D02*
X0017642Y0017791D01*
X0016541Y0017791D01*
X0016541Y0019992D01*
X0017642Y0019992D01*
X0018009Y0019625D01*
X0018009Y0019258D01*
X0017642Y0018891D01*
X0016541Y0018891D01*
X0017642Y0018891D02*
X0018009Y0018525D01*
X0018009Y0018158D01*
X0018935Y0018891D02*
X0020403Y0018891D01*
X0035856Y0025897D02*
X0035856Y0028099D01*
X0036957Y0028099D01*
X0037324Y0027732D01*
X0037324Y0026998D01*
X0036957Y0026631D01*
X0035856Y0026631D01*
X0036590Y0026631D02*
X0037324Y0025897D01*
X0038250Y0025897D02*
X0039718Y0027365D01*
X0039718Y0027732D01*
X0039351Y0028099D01*
X0038617Y0028099D01*
X0038250Y0027732D01*
X0038250Y0025897D02*
X0039718Y0025897D01*
X0051769Y0026713D02*
X0052136Y0026346D01*
X0052870Y0026346D01*
X0053237Y0026713D01*
X0054163Y0026346D02*
X0055631Y0026346D01*
X0054897Y0026346D02*
X0054897Y0028548D01*
X0054163Y0027814D01*
X0053237Y0028181D02*
X0052870Y0028548D01*
X0052136Y0028548D01*
X0051769Y0028181D01*
X0051769Y0026713D01*
X0062607Y0031368D02*
X0064075Y0031368D01*
X0063341Y0031368D02*
X0063341Y0033570D01*
X0062607Y0032836D01*
X0065001Y0033570D02*
X0065735Y0032836D01*
X0066469Y0033570D01*
X0066469Y0031368D01*
X0065001Y0031368D02*
X0065001Y0033570D01*
X0081958Y0032082D02*
X0082325Y0032449D01*
X0083059Y0032449D01*
X0083426Y0032082D01*
X0083426Y0031715D01*
X0081958Y0030247D01*
X0083426Y0030247D01*
X0084352Y0030247D02*
X0084719Y0030247D01*
X0084719Y0030614D01*
X0084352Y0030614D01*
X0084352Y0030247D01*
X0085549Y0030247D02*
X0087017Y0031715D01*
X0087017Y0032082D01*
X0086650Y0032449D01*
X0085916Y0032449D01*
X0085549Y0032082D01*
X0087943Y0032449D02*
X0087943Y0030247D01*
X0087943Y0030981D02*
X0089411Y0032449D01*
X0088310Y0031348D02*
X0089411Y0030247D01*
X0087017Y0030247D02*
X0085549Y0030247D01*
X0085728Y0028331D02*
X0085728Y0026129D01*
X0084994Y0026129D02*
X0086462Y0026129D01*
X0087388Y0026496D02*
X0088856Y0027964D01*
X0088856Y0026496D01*
X0088489Y0026129D01*
X0087755Y0026129D01*
X0087388Y0026496D01*
X0087388Y0027964D01*
X0087755Y0028331D01*
X0088489Y0028331D01*
X0088856Y0027964D01*
X0085728Y0028331D02*
X0084994Y0027597D01*
X0084068Y0027964D02*
X0084068Y0027230D01*
X0083701Y0026863D01*
X0082600Y0026863D01*
X0082600Y0026129D02*
X0082600Y0028331D01*
X0083701Y0028331D01*
X0084068Y0027964D01*
X0083334Y0026863D02*
X0084068Y0026129D01*
X0070406Y0027659D02*
X0068938Y0026191D01*
X0068938Y0025824D01*
X0068012Y0025824D02*
X0067278Y0026558D01*
X0067645Y0026558D02*
X0066544Y0026558D01*
X0066544Y0025824D02*
X0066544Y0028026D01*
X0067645Y0028026D01*
X0068012Y0027659D01*
X0068012Y0026925D01*
X0067645Y0026558D01*
X0068938Y0028026D02*
X0070406Y0028026D01*
X0070406Y0027659D01*
X0042902Y0034660D02*
X0041434Y0034660D01*
X0041434Y0032458D01*
X0040508Y0032458D02*
X0040508Y0033926D01*
X0041434Y0033559D02*
X0042168Y0033559D01*
X0040508Y0032458D02*
X0039407Y0032458D01*
X0039040Y0032825D01*
X0039040Y0033926D01*
X0037380Y0034660D02*
X0037380Y0032458D01*
X0036646Y0032458D02*
X0038114Y0032458D01*
X0035816Y0032458D02*
X0035816Y0032825D01*
X0035449Y0032825D01*
X0035449Y0032458D01*
X0035816Y0032458D01*
X0034523Y0032825D02*
X0034156Y0032458D01*
X0033422Y0032458D01*
X0033055Y0032825D01*
X0034523Y0034293D01*
X0034523Y0032825D01*
X0033055Y0032825D02*
X0033055Y0034293D01*
X0033422Y0034660D01*
X0034156Y0034660D01*
X0034523Y0034293D01*
X0036646Y0033926D02*
X0037380Y0034660D01*
X0019222Y0033216D02*
X0017754Y0033216D01*
X0018488Y0033216D02*
X0018488Y0035418D01*
X0017754Y0034684D01*
X0016828Y0035051D02*
X0016461Y0035418D01*
X0015360Y0035418D01*
X0015360Y0033216D01*
X0016461Y0033216D01*
X0016828Y0033583D01*
X0016828Y0035051D01*
X0036040Y0044900D02*
X0036407Y0044533D01*
X0037141Y0044533D01*
X0037508Y0044900D01*
X0038434Y0044900D02*
X0038801Y0044533D01*
X0039535Y0044533D01*
X0039902Y0044900D01*
X0039902Y0045267D01*
X0039535Y0045634D01*
X0039168Y0045634D01*
X0039535Y0045634D02*
X0039902Y0046001D01*
X0039902Y0046368D01*
X0039535Y0046735D01*
X0038801Y0046735D01*
X0038434Y0046368D01*
X0037508Y0046368D02*
X0037141Y0046735D01*
X0036407Y0046735D01*
X0036040Y0046368D01*
X0036040Y0044900D01*
X0036193Y0047405D02*
X0035459Y0047405D01*
X0035092Y0047772D01*
X0036560Y0049240D01*
X0036560Y0047772D01*
X0036193Y0047405D01*
X0035092Y0047772D02*
X0035092Y0049240D01*
X0035459Y0049607D01*
X0036193Y0049607D01*
X0036560Y0049240D01*
X0037487Y0049240D02*
X0037487Y0047772D01*
X0038954Y0049240D01*
X0038954Y0047772D01*
X0038587Y0047405D01*
X0037853Y0047405D01*
X0037487Y0047772D01*
X0037487Y0049240D02*
X0037853Y0049607D01*
X0038587Y0049607D01*
X0038954Y0049240D01*
X0039881Y0049607D02*
X0039881Y0047405D01*
X0039881Y0048139D02*
X0041348Y0049607D01*
X0040248Y0048506D02*
X0041348Y0047405D01*
X0034166Y0047405D02*
X0032698Y0047405D01*
X0033432Y0047405D02*
X0033432Y0049607D01*
X0032698Y0048873D01*
X0034497Y0055978D02*
X0034497Y0058180D01*
X0035598Y0058180D01*
X0035965Y0057813D01*
X0035965Y0057079D01*
X0035598Y0056712D01*
X0034497Y0056712D01*
X0035231Y0056712D02*
X0035965Y0055978D01*
X0036891Y0057079D02*
X0038359Y0057079D01*
X0037992Y0055978D02*
X0037992Y0058180D01*
X0036891Y0057079D01*
X0061521Y0057569D02*
X0062255Y0058303D01*
X0062255Y0056102D01*
X0061521Y0056102D02*
X0062989Y0056102D01*
X0063915Y0056469D02*
X0065383Y0057936D01*
X0065383Y0056469D01*
X0065016Y0056102D01*
X0064282Y0056102D01*
X0063915Y0056469D01*
X0063915Y0057936D01*
X0064282Y0058303D01*
X0065016Y0058303D01*
X0065383Y0057936D01*
X0066309Y0057936D02*
X0066676Y0058303D01*
X0067410Y0058303D01*
X0067777Y0057936D01*
X0066309Y0056469D01*
X0066676Y0056102D01*
X0067410Y0056102D01*
X0067777Y0056469D01*
X0067777Y0057936D01*
X0068703Y0058303D02*
X0068703Y0056102D01*
X0068703Y0056836D02*
X0070171Y0058303D01*
X0069070Y0057203D02*
X0070171Y0056102D01*
X0066309Y0056469D02*
X0066309Y0057936D01*
X0066354Y0054696D02*
X0066721Y0054329D01*
X0066721Y0053962D01*
X0066354Y0053595D01*
X0065620Y0053595D01*
X0065253Y0053962D01*
X0065253Y0054329D01*
X0065620Y0054696D01*
X0066354Y0054696D01*
X0066354Y0053595D02*
X0066721Y0053228D01*
X0066721Y0052861D01*
X0066354Y0052494D01*
X0065620Y0052494D01*
X0065253Y0052861D01*
X0065253Y0053228D01*
X0065620Y0053595D01*
X0064327Y0053595D02*
X0063960Y0053228D01*
X0062859Y0053228D01*
X0063593Y0053228D02*
X0064327Y0052494D01*
X0064327Y0053595D02*
X0064327Y0054329D01*
X0063960Y0054696D01*
X0062859Y0054696D01*
X0062859Y0052494D01*
X0086572Y0048331D02*
X0088040Y0048331D01*
X0087306Y0048331D02*
X0087306Y0046129D01*
X0088966Y0046129D02*
X0090434Y0046129D01*
X0091361Y0046496D02*
X0092828Y0047964D01*
X0092828Y0046496D01*
X0092461Y0046129D01*
X0091728Y0046129D01*
X0091361Y0046496D01*
X0091361Y0047964D01*
X0091728Y0048331D01*
X0092461Y0048331D01*
X0092828Y0047964D01*
X0093755Y0048331D02*
X0095222Y0048331D01*
X0095222Y0047964D01*
X0093755Y0046496D01*
X0093755Y0046129D01*
X0096149Y0046129D02*
X0097617Y0047597D01*
X0097617Y0047964D01*
X0097250Y0048331D01*
X0096516Y0048331D01*
X0096149Y0047964D01*
X0098543Y0048331D02*
X0099644Y0048331D01*
X0100011Y0047964D01*
X0100011Y0046496D01*
X0099644Y0046129D01*
X0098543Y0046129D01*
X0098543Y0048331D01*
X0097617Y0046129D02*
X0096149Y0046129D01*
X0088966Y0046129D02*
X0088966Y0048331D01*
X0088087Y0044059D02*
X0088087Y0041857D01*
X0087353Y0041857D02*
X0088821Y0041857D01*
X0086427Y0041857D02*
X0084959Y0041857D01*
X0085693Y0041857D02*
X0085693Y0044059D01*
X0084959Y0043325D01*
X0084032Y0043692D02*
X0084032Y0042958D01*
X0083666Y0042591D01*
X0082565Y0042591D01*
X0082565Y0041857D02*
X0082565Y0044059D01*
X0083666Y0044059D01*
X0084032Y0043692D01*
X0083299Y0042591D02*
X0084032Y0041857D01*
X0087353Y0043325D02*
X0088087Y0044059D01*
X0067308Y0043773D02*
X0066207Y0044874D01*
X0065840Y0044507D02*
X0067308Y0045975D01*
X0065840Y0045975D02*
X0065840Y0043773D01*
X0064914Y0043773D02*
X0063446Y0043773D01*
X0064180Y0043773D02*
X0064180Y0045975D01*
X0063446Y0045241D01*
X0063602Y0042562D02*
X0063969Y0042195D01*
X0063969Y0041461D01*
X0063602Y0041094D01*
X0062501Y0041094D01*
X0063235Y0041094D02*
X0063969Y0040360D01*
X0064895Y0040727D02*
X0065262Y0040360D01*
X0065996Y0040360D01*
X0066363Y0040727D01*
X0066363Y0042195D01*
X0065996Y0042562D01*
X0065262Y0042562D01*
X0064895Y0042195D01*
X0064895Y0041828D01*
X0065262Y0041461D01*
X0066363Y0041461D01*
X0063602Y0042562D02*
X0062501Y0042562D01*
X0062501Y0040360D01*
X0100858Y0035814D02*
X0100858Y0034347D01*
X0101225Y0033980D01*
X0101959Y0033980D01*
X0102326Y0034347D01*
X0102326Y0035814D01*
X0101959Y0036181D01*
X0101225Y0036181D01*
X0100858Y0035814D01*
X0103252Y0035447D02*
X0103986Y0036181D01*
X0103986Y0033980D01*
X0103252Y0033980D02*
X0104720Y0033980D01*
X0102326Y0033980D02*
X0101592Y0034713D01*
X0113828Y0026950D02*
X0113828Y0023881D01*
X0115362Y0025415D02*
X0112293Y0025415D01*
X0111764Y0019926D02*
X0111764Y0017924D01*
X0111097Y0017924D02*
X0112431Y0017924D01*
X0111097Y0019259D02*
X0111764Y0019926D01*
X0110221Y0019592D02*
X0108887Y0018258D01*
X0109220Y0017924D01*
X0109888Y0017924D01*
X0110221Y0018258D01*
X0110221Y0019592D01*
X0109888Y0019926D01*
X0109220Y0019926D01*
X0108887Y0019592D01*
X0108887Y0018258D01*
X0108011Y0017924D02*
X0106677Y0017924D01*
X0108011Y0019259D01*
X0108011Y0019592D01*
X0107678Y0019926D01*
X0107011Y0019926D01*
X0106677Y0019592D01*
X0105802Y0019926D02*
X0105134Y0019926D01*
X0105468Y0019926D02*
X0105468Y0018258D01*
X0105134Y0017924D01*
X0104801Y0017924D01*
X0104467Y0018258D01*
X0102924Y0018925D02*
X0102257Y0018925D01*
X0101382Y0018592D02*
X0101382Y0018258D01*
X0101048Y0017924D01*
X0100047Y0017924D01*
X0100047Y0019926D01*
X0101048Y0019926D01*
X0101382Y0019592D01*
X0101382Y0019259D01*
X0101048Y0018925D01*
X0100047Y0018925D01*
X0101048Y0018925D02*
X0101382Y0018592D01*
X0102257Y0017924D02*
X0102257Y0019926D01*
X0103592Y0019926D01*
X0099172Y0019926D02*
X0099172Y0017924D01*
X0097837Y0017924D02*
X0097837Y0019926D01*
X0098505Y0019259D01*
X0099172Y0019926D01*
X0096962Y0019926D02*
X0096962Y0017924D01*
X0095628Y0017924D02*
X0095628Y0019926D01*
X0096295Y0019259D01*
X0096962Y0019926D01*
X0089659Y0019481D02*
X0088191Y0018013D01*
X0088558Y0018380D02*
X0089659Y0017279D01*
X0088191Y0017279D02*
X0088191Y0019481D01*
X0087265Y0019114D02*
X0086898Y0019481D01*
X0086164Y0019481D01*
X0085797Y0019114D01*
X0087265Y0019114D02*
X0087265Y0018747D01*
X0085797Y0017279D01*
X0087265Y0017279D01*
X0084967Y0017279D02*
X0084600Y0017279D01*
X0084600Y0017646D01*
X0084967Y0017646D01*
X0084967Y0017279D01*
X0083674Y0017279D02*
X0082206Y0017279D01*
X0082940Y0017279D02*
X0082940Y0019481D01*
X0082206Y0018747D01*
X0071406Y0018522D02*
X0071406Y0017054D01*
X0071039Y0016687D01*
X0070305Y0016687D01*
X0069938Y0017054D01*
X0071406Y0018522D01*
X0071039Y0018888D01*
X0070305Y0018888D01*
X0069938Y0018522D01*
X0069938Y0017054D01*
X0069012Y0016687D02*
X0067544Y0016687D01*
X0069012Y0018155D01*
X0069012Y0018522D01*
X0068645Y0018888D01*
X0067911Y0018888D01*
X0067544Y0018522D01*
X0066618Y0018522D02*
X0066251Y0018888D01*
X0065517Y0018888D01*
X0065150Y0018522D01*
X0066618Y0018522D02*
X0066618Y0018155D01*
X0065150Y0016687D01*
X0066618Y0016687D01*
X0132234Y0033413D02*
X0132601Y0033046D01*
X0133335Y0033046D01*
X0133702Y0033413D01*
X0134628Y0033046D02*
X0134628Y0035248D01*
X0136096Y0033046D01*
X0136096Y0035248D01*
X0137022Y0034514D02*
X0137756Y0035248D01*
X0137756Y0033046D01*
X0137022Y0033046D02*
X0138490Y0033046D01*
X0133702Y0034881D02*
X0133335Y0035248D01*
X0132601Y0035248D01*
X0132234Y0034881D01*
X0132234Y0033413D01*
X0147423Y0031211D02*
X0147423Y0029009D01*
X0148524Y0029009D01*
X0148891Y0029376D01*
X0148891Y0029743D01*
X0148524Y0030110D01*
X0147423Y0030110D01*
X0148524Y0030110D02*
X0148891Y0030477D01*
X0148891Y0030844D01*
X0148524Y0031211D01*
X0147423Y0031211D01*
X0150184Y0030477D02*
X0150918Y0030477D01*
X0151285Y0030110D01*
X0151285Y0029009D01*
X0150184Y0029009D01*
X0149817Y0029376D01*
X0150184Y0029743D01*
X0151285Y0029743D01*
X0152211Y0030477D02*
X0152945Y0030477D01*
X0152578Y0030844D02*
X0152578Y0029376D01*
X0152945Y0029009D01*
X0154174Y0029376D02*
X0154541Y0029009D01*
X0154174Y0029376D02*
X0154174Y0030844D01*
X0153807Y0030477D02*
X0154541Y0030477D01*
X0155403Y0030110D02*
X0155770Y0030477D01*
X0156504Y0030477D01*
X0156871Y0030110D01*
X0156871Y0029743D01*
X0155403Y0029743D01*
X0155403Y0029376D02*
X0155403Y0030110D01*
X0155403Y0029376D02*
X0155770Y0029009D01*
X0156504Y0029009D01*
X0157798Y0029009D02*
X0157798Y0030477D01*
X0158531Y0030477D02*
X0157798Y0029743D01*
X0158531Y0030477D02*
X0158898Y0030477D01*
X0159793Y0030477D02*
X0159793Y0029376D01*
X0160160Y0029009D01*
X0161260Y0029009D01*
X0161260Y0028642D02*
X0160893Y0028275D01*
X0160527Y0028275D01*
X0161260Y0028642D02*
X0161260Y0030477D01*
X0171318Y0026920D02*
X0171318Y0025452D01*
X0171318Y0026186D02*
X0169116Y0026186D01*
X0169850Y0025452D01*
X0171318Y0024526D02*
X0171318Y0023058D01*
X0169116Y0023058D01*
X0168237Y0023382D02*
X0167870Y0023015D01*
X0168237Y0023382D02*
X0168237Y0024116D01*
X0167870Y0024483D01*
X0167136Y0024483D01*
X0166769Y0024116D01*
X0166769Y0023749D01*
X0167136Y0023015D01*
X0166035Y0023015D01*
X0166035Y0024483D01*
X0166035Y0022088D02*
X0166035Y0021355D01*
X0166035Y0021722D02*
X0167870Y0021722D01*
X0168237Y0021355D01*
X0168237Y0020988D01*
X0167870Y0020621D01*
X0159863Y0015894D02*
X0158395Y0015894D01*
X0159129Y0016628D02*
X0159129Y0015160D01*
X0149406Y0015835D02*
X0147938Y0015835D01*
X0144362Y0025415D02*
X0141293Y0025415D01*
X0186350Y0020041D02*
X0187451Y0018941D01*
X0187451Y0020408D01*
X0188552Y0020041D02*
X0186350Y0020041D01*
X0186350Y0018014D02*
X0186350Y0017280D01*
X0186350Y0017647D02*
X0188185Y0017647D01*
X0188552Y0017280D01*
X0188552Y0016913D01*
X0188185Y0016546D01*
X0225079Y0024289D02*
X0226547Y0025757D01*
X0226547Y0026124D01*
X0226180Y0026491D01*
X0225446Y0026491D01*
X0225079Y0026124D01*
X0225079Y0024289D02*
X0226547Y0024289D01*
X0227473Y0024289D02*
X0227840Y0024289D01*
X0227840Y0024656D01*
X0227473Y0024656D01*
X0227473Y0024289D01*
X0228670Y0024289D02*
X0228670Y0024656D01*
X0230138Y0026124D01*
X0230138Y0026491D01*
X0228670Y0026491D01*
X0231064Y0025757D02*
X0231064Y0024656D01*
X0231431Y0024289D01*
X0232532Y0024289D01*
X0232532Y0025757D01*
X0233458Y0025390D02*
X0234926Y0025390D01*
X0234926Y0026491D02*
X0234926Y0024289D01*
X0233458Y0024289D02*
X0233458Y0026491D01*
X0240513Y0023341D02*
X0240513Y0021139D01*
X0241981Y0021139D01*
X0242907Y0021139D02*
X0244375Y0022607D01*
X0244375Y0022974D01*
X0244008Y0023341D01*
X0243274Y0023341D01*
X0242907Y0022974D01*
X0242907Y0021139D02*
X0244375Y0021139D01*
X0264437Y0018194D02*
X0265171Y0018928D01*
X0265171Y0016726D01*
X0264437Y0016726D02*
X0265905Y0016726D01*
X0266831Y0017093D02*
X0267198Y0016726D01*
X0267932Y0016726D01*
X0268299Y0017093D01*
X0268299Y0018561D01*
X0266831Y0017093D01*
X0266831Y0018561D01*
X0267198Y0018928D01*
X0267932Y0018928D01*
X0268299Y0018561D01*
X0269225Y0018194D02*
X0269225Y0017093D01*
X0269592Y0016726D01*
X0270693Y0016726D01*
X0270693Y0018194D01*
X0271619Y0017827D02*
X0272353Y0017827D01*
X0271619Y0016726D02*
X0271619Y0018928D01*
X0273087Y0018928D01*
X0285903Y0018707D02*
X0286637Y0019441D01*
X0286637Y0017239D01*
X0285903Y0017239D02*
X0287371Y0017239D01*
X0288297Y0017606D02*
X0289765Y0019074D01*
X0289765Y0017606D01*
X0289398Y0017239D01*
X0288664Y0017239D01*
X0288297Y0017606D01*
X0288297Y0019074D01*
X0288664Y0019441D01*
X0289398Y0019441D01*
X0289765Y0019074D01*
X0290691Y0019441D02*
X0291425Y0018707D01*
X0292159Y0019441D01*
X0292159Y0017239D01*
X0290691Y0017239D02*
X0290691Y0019441D01*
X0301651Y0019244D02*
X0301651Y0018143D01*
X0302385Y0018510D01*
X0302752Y0018510D01*
X0303119Y0018143D01*
X0303119Y0017409D01*
X0302752Y0017043D01*
X0302018Y0017043D01*
X0301651Y0017409D01*
X0304045Y0017409D02*
X0304045Y0018143D01*
X0305146Y0018143D01*
X0305513Y0017776D01*
X0305513Y0017409D01*
X0305146Y0017043D01*
X0304412Y0017043D01*
X0304045Y0017409D01*
X0304045Y0018143D02*
X0304779Y0018877D01*
X0305513Y0019244D01*
X0306439Y0018510D02*
X0307540Y0018510D01*
X0307907Y0018143D01*
X0307907Y0017043D01*
X0308833Y0017043D02*
X0308833Y0019244D01*
X0310301Y0019244D01*
X0309567Y0018143D02*
X0308833Y0018143D01*
X0306439Y0018510D02*
X0306439Y0017043D01*
X0303119Y0019244D02*
X0301651Y0019244D01*
X0303987Y0025231D02*
X0304721Y0025231D01*
X0305088Y0025598D01*
X0306014Y0025598D02*
X0306381Y0025231D01*
X0307115Y0025231D01*
X0307482Y0025598D01*
X0307482Y0027066D01*
X0307115Y0027433D01*
X0306381Y0027433D01*
X0306014Y0027066D01*
X0306014Y0026699D01*
X0306381Y0026332D01*
X0307482Y0026332D01*
X0305088Y0027066D02*
X0304721Y0027433D01*
X0303987Y0027433D01*
X0303620Y0027066D01*
X0303620Y0025598D01*
X0303987Y0025231D01*
X0292710Y0025520D02*
X0292343Y0025153D01*
X0291609Y0025153D01*
X0291242Y0025520D01*
X0291242Y0026254D01*
X0292343Y0026254D01*
X0292710Y0025887D01*
X0292710Y0025520D01*
X0291976Y0026988D02*
X0291242Y0026254D01*
X0291976Y0026988D02*
X0292710Y0027355D01*
X0289582Y0027355D02*
X0288848Y0026621D01*
X0287922Y0026988D02*
X0287922Y0026254D01*
X0287555Y0025887D01*
X0286454Y0025887D01*
X0286454Y0025153D02*
X0286454Y0027355D01*
X0287555Y0027355D01*
X0287922Y0026988D01*
X0287188Y0025887D02*
X0287922Y0025153D01*
X0288848Y0025153D02*
X0290316Y0025153D01*
X0289582Y0025153D02*
X0289582Y0027355D01*
X0288871Y0032041D02*
X0288871Y0033509D01*
X0289972Y0033509D01*
X0290339Y0033142D01*
X0290339Y0032041D01*
X0291265Y0032041D02*
X0291265Y0034243D01*
X0292733Y0034243D01*
X0291999Y0033142D02*
X0291265Y0033142D01*
X0287945Y0033876D02*
X0287945Y0032408D01*
X0287578Y0032041D01*
X0286844Y0032041D01*
X0286477Y0032408D01*
X0287945Y0033876D01*
X0287578Y0034243D01*
X0286844Y0034243D01*
X0286477Y0033876D01*
X0286477Y0032408D01*
X0285551Y0032041D02*
X0284083Y0032041D01*
X0284817Y0032041D02*
X0284817Y0034243D01*
X0284083Y0033509D01*
X0272281Y0033550D02*
X0271180Y0032816D01*
X0272281Y0032082D01*
X0271180Y0032082D02*
X0271180Y0034284D01*
X0270253Y0033917D02*
X0269886Y0034284D01*
X0269153Y0034284D01*
X0268786Y0033917D01*
X0270253Y0033917D02*
X0270253Y0033550D01*
X0268786Y0032082D01*
X0270253Y0032082D01*
X0267956Y0032082D02*
X0267589Y0032082D01*
X0267589Y0032449D01*
X0267956Y0032449D01*
X0267956Y0032082D01*
X0266662Y0032082D02*
X0265194Y0032082D01*
X0266662Y0033550D01*
X0266662Y0033917D01*
X0266295Y0034284D01*
X0265561Y0034284D01*
X0265194Y0033917D01*
X0247983Y0039169D02*
X0247983Y0041370D01*
X0249451Y0041370D01*
X0248717Y0040269D02*
X0247983Y0040269D01*
X0247057Y0040636D02*
X0247057Y0039169D01*
X0245956Y0039169D01*
X0245589Y0039535D01*
X0245589Y0040636D01*
X0244663Y0041003D02*
X0243195Y0039535D01*
X0243195Y0039169D01*
X0242365Y0039169D02*
X0241998Y0039169D01*
X0241998Y0039535D01*
X0242365Y0039535D01*
X0242365Y0039169D01*
X0240705Y0039169D02*
X0240705Y0041370D01*
X0239604Y0040269D01*
X0241072Y0040269D01*
X0243195Y0041370D02*
X0244663Y0041370D01*
X0244663Y0041003D01*
X0265588Y0041688D02*
X0265588Y0043890D01*
X0266689Y0043890D01*
X0267056Y0043523D01*
X0267056Y0042789D01*
X0266689Y0042422D01*
X0265588Y0042422D01*
X0266322Y0042422D02*
X0267056Y0041688D01*
X0267982Y0041688D02*
X0269450Y0041688D01*
X0268716Y0041688D02*
X0268716Y0043890D01*
X0267982Y0043156D01*
X0270376Y0043890D02*
X0271844Y0043890D01*
X0271844Y0043523D01*
X0270376Y0042055D01*
X0270376Y0041688D01*
X0284902Y0041857D02*
X0285269Y0041490D01*
X0286003Y0041490D01*
X0286370Y0041857D01*
X0287296Y0041490D02*
X0288764Y0041490D01*
X0288030Y0041490D02*
X0288030Y0043692D01*
X0287296Y0042958D01*
X0286370Y0043325D02*
X0286003Y0043692D01*
X0285269Y0043692D01*
X0284902Y0043325D01*
X0284902Y0041857D01*
X0289690Y0041857D02*
X0290057Y0041490D01*
X0290791Y0041490D01*
X0291158Y0041857D01*
X0291158Y0042224D01*
X0290791Y0042591D01*
X0290424Y0042591D01*
X0290791Y0042591D02*
X0291158Y0042958D01*
X0291158Y0043325D01*
X0290791Y0043692D01*
X0290057Y0043692D01*
X0289690Y0043325D01*
X0288531Y0046710D02*
X0287797Y0046710D01*
X0287430Y0047077D01*
X0288898Y0048545D01*
X0288898Y0047077D01*
X0288531Y0046710D01*
X0287430Y0047077D02*
X0287430Y0048545D01*
X0287797Y0048912D01*
X0288531Y0048912D01*
X0288898Y0048545D01*
X0286504Y0048545D02*
X0286504Y0048178D01*
X0286137Y0047811D01*
X0286504Y0047444D01*
X0286504Y0047077D01*
X0286137Y0046710D01*
X0285403Y0046710D01*
X0285036Y0047077D01*
X0284110Y0047077D02*
X0283743Y0046710D01*
X0283009Y0046710D01*
X0282642Y0047077D01*
X0283376Y0047811D02*
X0283743Y0047811D01*
X0284110Y0047444D01*
X0284110Y0047077D01*
X0283743Y0047811D02*
X0284110Y0048178D01*
X0284110Y0048545D01*
X0283743Y0048912D01*
X0283009Y0048912D01*
X0282642Y0048545D01*
X0285036Y0048545D02*
X0285403Y0048912D01*
X0286137Y0048912D01*
X0286504Y0048545D01*
X0286137Y0047811D02*
X0285770Y0047811D01*
X0269024Y0048129D02*
X0267923Y0048863D01*
X0269024Y0049597D01*
X0267923Y0050331D02*
X0267923Y0048129D01*
X0266997Y0048496D02*
X0266630Y0048129D01*
X0265896Y0048129D01*
X0265529Y0048496D01*
X0265529Y0049230D02*
X0266263Y0049597D01*
X0266630Y0049597D01*
X0266997Y0049230D01*
X0266997Y0048496D01*
X0265529Y0049230D02*
X0265529Y0050331D01*
X0266997Y0050331D01*
X0252948Y0052437D02*
X0252581Y0052070D01*
X0252948Y0052437D02*
X0252948Y0053171D01*
X0252581Y0053538D01*
X0252214Y0053538D01*
X0251847Y0053171D01*
X0251847Y0052437D01*
X0251480Y0052070D01*
X0251113Y0052070D01*
X0250746Y0052437D01*
X0250746Y0053171D01*
X0251113Y0053538D01*
X0251113Y0054464D02*
X0252581Y0054464D01*
X0252948Y0054831D01*
X0252948Y0055565D01*
X0252581Y0055932D01*
X0251847Y0056858D02*
X0251847Y0058326D01*
X0251847Y0059252D02*
X0251480Y0059986D01*
X0251480Y0060353D01*
X0251847Y0060720D01*
X0252581Y0060720D01*
X0252948Y0060353D01*
X0252948Y0059619D01*
X0252581Y0059252D01*
X0251847Y0059252D02*
X0250746Y0059252D01*
X0250746Y0060720D01*
X0251113Y0061646D02*
X0250746Y0062013D01*
X0250746Y0062747D01*
X0251113Y0063114D01*
X0252581Y0061646D01*
X0252948Y0062013D01*
X0252948Y0062747D01*
X0252581Y0063114D01*
X0251113Y0063114D01*
X0251113Y0064040D02*
X0250746Y0064407D01*
X0250746Y0065141D01*
X0251113Y0065508D01*
X0251480Y0065508D01*
X0251847Y0065141D01*
X0252214Y0065508D01*
X0252581Y0065508D01*
X0252948Y0065141D01*
X0252948Y0064407D01*
X0252581Y0064040D01*
X0251847Y0064774D02*
X0251847Y0065141D01*
X0258144Y0066944D02*
X0258144Y0067678D01*
X0258144Y0067311D02*
X0260346Y0067311D01*
X0260346Y0066944D02*
X0260346Y0067678D01*
X0259979Y0068540D02*
X0260346Y0068907D01*
X0260346Y0069641D01*
X0259979Y0070008D01*
X0260346Y0070934D02*
X0258878Y0072402D01*
X0258511Y0072402D01*
X0258144Y0072035D01*
X0258144Y0071301D01*
X0258511Y0070934D01*
X0258511Y0070008D02*
X0258144Y0069641D01*
X0258144Y0068907D01*
X0258511Y0068540D01*
X0259979Y0068540D01*
X0260346Y0070934D02*
X0260346Y0072402D01*
X0252940Y0072647D02*
X0252940Y0071546D01*
X0250738Y0071546D01*
X0250738Y0072647D01*
X0251105Y0073014D01*
X0251472Y0073014D01*
X0251839Y0072647D01*
X0251839Y0071546D01*
X0251839Y0072647D02*
X0252206Y0073014D01*
X0252573Y0073014D01*
X0252940Y0072647D01*
X0252940Y0073941D02*
X0252940Y0075408D01*
X0252940Y0074674D02*
X0250738Y0074674D01*
X0251472Y0073941D01*
X0251105Y0076335D02*
X0250738Y0076702D01*
X0250738Y0077435D01*
X0251105Y0077802D01*
X0251472Y0077802D01*
X0251839Y0077435D01*
X0252206Y0077802D01*
X0252573Y0077802D01*
X0252940Y0077435D01*
X0252940Y0076702D01*
X0252573Y0076335D01*
X0251839Y0077069D02*
X0251839Y0077435D01*
X0251105Y0078729D02*
X0250738Y0079096D01*
X0250738Y0079830D01*
X0251105Y0080197D01*
X0252573Y0078729D01*
X0252940Y0079096D01*
X0252940Y0079830D01*
X0252573Y0080197D01*
X0251105Y0080197D01*
X0251839Y0081123D02*
X0251839Y0082591D01*
X0251472Y0083517D02*
X0250738Y0084251D01*
X0252940Y0084251D01*
X0252940Y0083517D02*
X0252940Y0084985D01*
X0252573Y0085911D02*
X0252940Y0086278D01*
X0252940Y0087012D01*
X0252573Y0087379D01*
X0252206Y0087379D01*
X0251839Y0087012D01*
X0251839Y0086645D01*
X0251839Y0087012D02*
X0251472Y0087379D01*
X0251105Y0087379D01*
X0250738Y0087012D01*
X0250738Y0086278D01*
X0251105Y0085911D01*
X0251839Y0088305D02*
X0251839Y0089773D01*
X0251839Y0090699D02*
X0251839Y0091433D01*
X0250738Y0090699D02*
X0250738Y0092167D01*
X0250738Y0090699D02*
X0252940Y0090699D01*
X0262124Y0090295D02*
X0262124Y0088827D01*
X0262491Y0088460D01*
X0263225Y0088460D01*
X0263592Y0088827D01*
X0264518Y0088460D02*
X0265986Y0088460D01*
X0265252Y0088460D02*
X0265252Y0090662D01*
X0264518Y0089928D01*
X0263592Y0090295D02*
X0263225Y0090662D01*
X0262491Y0090662D01*
X0262124Y0090295D01*
X0266912Y0089561D02*
X0268013Y0090662D01*
X0268013Y0088460D01*
X0268380Y0089561D02*
X0266912Y0089561D01*
X0277304Y0088943D02*
X0277671Y0088576D01*
X0278405Y0088576D01*
X0278772Y0088943D01*
X0279698Y0088576D02*
X0281166Y0088576D01*
X0280432Y0088576D02*
X0280432Y0090778D01*
X0279698Y0090044D01*
X0278772Y0090411D02*
X0278405Y0090778D01*
X0277671Y0090778D01*
X0277304Y0090411D01*
X0277304Y0088943D01*
X0282092Y0088943D02*
X0282459Y0088576D01*
X0283193Y0088576D01*
X0283560Y0088943D01*
X0283560Y0089677D01*
X0283193Y0090044D01*
X0282826Y0090044D01*
X0282092Y0089677D01*
X0282092Y0090778D01*
X0283560Y0090778D01*
X0293305Y0090531D02*
X0293305Y0089063D01*
X0293672Y0088696D01*
X0294406Y0088696D01*
X0294773Y0089063D01*
X0295699Y0089063D02*
X0295699Y0089797D01*
X0296800Y0089797D01*
X0297167Y0089430D01*
X0297167Y0089063D01*
X0296800Y0088696D01*
X0296066Y0088696D01*
X0295699Y0089063D01*
X0295699Y0089797D02*
X0296433Y0090531D01*
X0297167Y0090898D01*
X0294773Y0090531D02*
X0294406Y0090898D01*
X0293672Y0090898D01*
X0293305Y0090531D01*
X0292831Y0081174D02*
X0291730Y0080073D01*
X0293198Y0080073D01*
X0292831Y0078972D02*
X0292831Y0081174D01*
X0295321Y0081174D02*
X0296789Y0081174D01*
X0296789Y0080807D01*
X0295321Y0079339D01*
X0295321Y0078972D01*
X0294491Y0078972D02*
X0294124Y0078972D01*
X0294124Y0079339D01*
X0294491Y0079339D01*
X0294491Y0078972D01*
X0297715Y0079339D02*
X0297715Y0080440D01*
X0297715Y0079339D02*
X0298082Y0078972D01*
X0299183Y0078972D01*
X0299183Y0080440D01*
X0300109Y0080073D02*
X0300843Y0080073D01*
X0300109Y0078972D02*
X0300109Y0081174D01*
X0301577Y0081174D01*
X0284780Y0080818D02*
X0283312Y0080818D01*
X0283312Y0078616D01*
X0282386Y0078616D02*
X0282386Y0080084D01*
X0283312Y0079717D02*
X0284046Y0079717D01*
X0282386Y0078616D02*
X0281285Y0078616D01*
X0280918Y0078983D01*
X0280918Y0080084D01*
X0279992Y0080451D02*
X0278524Y0078983D01*
X0278891Y0078616D01*
X0279625Y0078616D01*
X0279992Y0078983D01*
X0279992Y0080451D01*
X0279625Y0080818D01*
X0278891Y0080818D01*
X0278524Y0080451D01*
X0278524Y0078983D01*
X0277598Y0078616D02*
X0276130Y0078616D01*
X0276864Y0078616D02*
X0276864Y0080818D01*
X0276130Y0080084D01*
X0269986Y0080504D02*
X0268518Y0080504D01*
X0268518Y0078302D01*
X0267592Y0078302D02*
X0267592Y0079403D01*
X0267225Y0079770D01*
X0266124Y0079770D01*
X0266124Y0078302D01*
X0265198Y0078669D02*
X0264831Y0078302D01*
X0264097Y0078302D01*
X0263730Y0078669D01*
X0265198Y0080137D01*
X0265198Y0078669D01*
X0263730Y0078669D02*
X0263730Y0080137D01*
X0264097Y0080504D01*
X0264831Y0080504D01*
X0265198Y0080137D01*
X0262070Y0080504D02*
X0262070Y0078302D01*
X0261336Y0078302D02*
X0262804Y0078302D01*
X0261336Y0079770D02*
X0262070Y0080504D01*
X0268518Y0079403D02*
X0269252Y0079403D01*
X0274699Y0076877D02*
X0276901Y0076877D01*
X0276901Y0076143D02*
X0276901Y0077611D01*
X0275433Y0076143D02*
X0274699Y0076877D01*
X0275066Y0075217D02*
X0275433Y0075217D01*
X0275800Y0074850D01*
X0276167Y0075217D01*
X0276534Y0075217D01*
X0276901Y0074850D01*
X0276901Y0074116D01*
X0276534Y0073749D01*
X0276534Y0072823D02*
X0276901Y0072456D01*
X0276901Y0071722D01*
X0276534Y0071355D01*
X0276167Y0071355D01*
X0275800Y0071722D01*
X0275800Y0072456D01*
X0276167Y0072823D01*
X0276534Y0072823D01*
X0275800Y0072456D02*
X0275433Y0072823D01*
X0275066Y0072823D01*
X0274699Y0072456D01*
X0274699Y0071722D01*
X0275066Y0071355D01*
X0275433Y0071355D01*
X0275800Y0071722D01*
X0276167Y0070429D02*
X0276534Y0070429D01*
X0276901Y0070062D01*
X0276901Y0069328D01*
X0276534Y0068961D01*
X0275800Y0069695D02*
X0275800Y0070062D01*
X0276167Y0070429D01*
X0275800Y0070062D02*
X0275433Y0070429D01*
X0275066Y0070429D01*
X0274699Y0070062D01*
X0274699Y0069328D01*
X0275066Y0068961D01*
X0275066Y0068035D02*
X0276534Y0066567D01*
X0276901Y0066567D01*
X0275800Y0065641D02*
X0276167Y0065274D01*
X0276167Y0064173D01*
X0276901Y0064173D02*
X0274699Y0064173D01*
X0274699Y0065274D01*
X0275066Y0065641D01*
X0275800Y0065641D01*
X0274699Y0066567D02*
X0274699Y0068035D01*
X0275066Y0068035D01*
X0275066Y0063247D02*
X0274699Y0062880D01*
X0274699Y0062146D01*
X0275066Y0061779D01*
X0276534Y0061779D01*
X0276901Y0062146D01*
X0276901Y0062880D01*
X0276534Y0063247D01*
X0276901Y0060853D02*
X0274699Y0060853D01*
X0275433Y0060119D01*
X0274699Y0059385D01*
X0276901Y0059385D01*
X0282001Y0058896D02*
X0283101Y0058896D01*
X0283468Y0058529D01*
X0283468Y0057795D01*
X0283101Y0057428D01*
X0282001Y0057428D01*
X0282734Y0057428D02*
X0283468Y0056694D01*
X0284395Y0056694D02*
X0285863Y0056694D01*
X0285129Y0056694D02*
X0285129Y0058896D01*
X0284395Y0058162D01*
X0286789Y0058162D02*
X0287156Y0057795D01*
X0287890Y0057795D01*
X0288257Y0057428D01*
X0288257Y0057061D01*
X0287890Y0056694D01*
X0287156Y0056694D01*
X0286789Y0057061D01*
X0286789Y0057428D01*
X0287156Y0057795D01*
X0286789Y0058162D02*
X0286789Y0058529D01*
X0287156Y0058896D01*
X0287890Y0058896D01*
X0288257Y0058529D01*
X0288257Y0058162D01*
X0287890Y0057795D01*
X0282001Y0056694D02*
X0282001Y0058896D01*
X0270469Y0057734D02*
X0270469Y0057367D01*
X0270102Y0057000D01*
X0270469Y0056633D01*
X0270469Y0056266D01*
X0270102Y0055899D01*
X0269368Y0055899D01*
X0269001Y0056266D01*
X0268075Y0055899D02*
X0266607Y0055899D01*
X0267341Y0055899D02*
X0267341Y0058101D01*
X0266607Y0057367D01*
X0265681Y0057000D02*
X0265314Y0056633D01*
X0264213Y0056633D01*
X0264213Y0055899D02*
X0264213Y0058101D01*
X0265314Y0058101D01*
X0265681Y0057734D01*
X0265681Y0057000D01*
X0264947Y0056633D02*
X0265681Y0055899D01*
X0269001Y0057734D02*
X0269368Y0058101D01*
X0270102Y0058101D01*
X0270469Y0057734D01*
X0270102Y0057000D02*
X0269735Y0057000D01*
X0252948Y0057959D02*
X0250746Y0057959D01*
X0251847Y0056858D01*
X0251113Y0055932D02*
X0250746Y0055565D01*
X0250746Y0054831D01*
X0251113Y0054464D01*
X0247041Y0049796D02*
X0246307Y0049429D01*
X0245573Y0048695D01*
X0246674Y0048695D01*
X0247041Y0048328D01*
X0247041Y0047961D01*
X0246674Y0047594D01*
X0245940Y0047594D01*
X0245573Y0047961D01*
X0245573Y0048695D01*
X0244647Y0047594D02*
X0243179Y0047594D01*
X0243913Y0047594D02*
X0243913Y0049796D01*
X0243179Y0049062D01*
X0242253Y0049429D02*
X0241886Y0049796D01*
X0241152Y0049796D01*
X0240785Y0049429D01*
X0240785Y0047961D01*
X0241152Y0047594D01*
X0241886Y0047594D01*
X0242253Y0047961D01*
X0216825Y0042847D02*
X0215357Y0041379D01*
X0215724Y0041746D02*
X0216825Y0040645D01*
X0215357Y0040645D02*
X0215357Y0042847D01*
X0214430Y0042480D02*
X0212963Y0041012D01*
X0213330Y0040645D01*
X0214063Y0040645D01*
X0214430Y0041012D01*
X0214430Y0042480D01*
X0214063Y0042847D01*
X0213330Y0042847D01*
X0212963Y0042480D01*
X0212963Y0041012D01*
X0212036Y0041012D02*
X0211669Y0040645D01*
X0210935Y0040645D01*
X0210569Y0041012D01*
X0210569Y0041746D02*
X0211302Y0042113D01*
X0211669Y0042113D01*
X0212036Y0041746D01*
X0212036Y0041012D01*
X0210569Y0041746D02*
X0210569Y0042847D01*
X0212036Y0042847D01*
X0201045Y0043044D02*
X0200311Y0042677D01*
X0199577Y0041943D01*
X0200678Y0041943D01*
X0201045Y0041576D01*
X0201045Y0041209D01*
X0200678Y0040842D01*
X0199944Y0040842D01*
X0199577Y0041209D01*
X0199577Y0041943D01*
X0198651Y0041943D02*
X0198651Y0042677D01*
X0198284Y0043044D01*
X0197183Y0043044D01*
X0197183Y0040842D01*
X0197183Y0041576D02*
X0198284Y0041576D01*
X0198651Y0041943D01*
X0197917Y0041576D02*
X0198651Y0040842D01*
X0181073Y0040130D02*
X0180706Y0039763D01*
X0179972Y0039763D01*
X0179605Y0040130D01*
X0181073Y0041598D01*
X0181073Y0040130D01*
X0181073Y0041598D02*
X0180706Y0041965D01*
X0179972Y0041965D01*
X0179605Y0041598D01*
X0179605Y0040130D01*
X0178678Y0040130D02*
X0178678Y0041598D01*
X0178312Y0041965D01*
X0177578Y0041965D01*
X0177211Y0041598D01*
X0177211Y0041231D01*
X0177578Y0040864D01*
X0178678Y0040864D01*
X0178678Y0040130D02*
X0178312Y0039763D01*
X0177578Y0039763D01*
X0177211Y0040130D01*
X0176284Y0040130D02*
X0175917Y0039763D01*
X0175184Y0039763D01*
X0174817Y0040130D01*
X0175550Y0040864D02*
X0175917Y0040864D01*
X0176284Y0040497D01*
X0176284Y0040130D01*
X0175917Y0040864D02*
X0176284Y0041231D01*
X0176284Y0041598D01*
X0175917Y0041965D01*
X0175184Y0041965D01*
X0174817Y0041598D01*
X0174438Y0048423D02*
X0174438Y0050625D01*
X0175538Y0050625D01*
X0175905Y0050258D01*
X0175905Y0049524D01*
X0175538Y0049157D01*
X0174438Y0049157D01*
X0175172Y0049157D02*
X0175905Y0048423D01*
X0176832Y0048423D02*
X0178300Y0048423D01*
X0177566Y0048423D02*
X0177566Y0050625D01*
X0176832Y0049891D01*
X0179226Y0050258D02*
X0179593Y0050625D01*
X0180327Y0050625D01*
X0180694Y0050258D01*
X0180694Y0049891D01*
X0179226Y0048423D01*
X0180694Y0048423D01*
X0192872Y0053381D02*
X0194340Y0053381D01*
X0193606Y0053381D02*
X0193606Y0055583D01*
X0192872Y0054849D01*
X0195266Y0055216D02*
X0195266Y0053748D01*
X0196734Y0055216D01*
X0196734Y0053748D01*
X0196367Y0053381D01*
X0195633Y0053381D01*
X0195266Y0053748D01*
X0195266Y0055216D02*
X0195633Y0055583D01*
X0196367Y0055583D01*
X0196734Y0055216D01*
X0197660Y0054849D02*
X0197660Y0053748D01*
X0198027Y0053381D01*
X0199128Y0053381D01*
X0199128Y0054849D01*
X0200054Y0054482D02*
X0200788Y0054482D01*
X0200054Y0055583D02*
X0201522Y0055583D01*
X0200054Y0055583D02*
X0200054Y0053381D01*
X0210474Y0053180D02*
X0211942Y0053180D01*
X0211208Y0053180D02*
X0211208Y0055382D01*
X0210474Y0054648D01*
X0212868Y0054281D02*
X0212868Y0055382D01*
X0214336Y0055382D01*
X0213969Y0054648D02*
X0214336Y0054281D01*
X0214336Y0053547D01*
X0213969Y0053180D01*
X0213235Y0053180D01*
X0212868Y0053547D01*
X0212868Y0054281D02*
X0213602Y0054648D01*
X0213969Y0054648D01*
X0215262Y0053914D02*
X0216363Y0054648D01*
X0215262Y0053914D02*
X0216363Y0053180D01*
X0215262Y0053180D02*
X0215262Y0055382D01*
X0233986Y0056354D02*
X0233986Y0057087D01*
X0233986Y0056721D02*
X0236188Y0056721D01*
X0236188Y0057087D02*
X0236188Y0056354D01*
X0235821Y0057950D02*
X0236188Y0058317D01*
X0236188Y0059051D01*
X0235821Y0059417D01*
X0235821Y0060344D02*
X0236188Y0060711D01*
X0236188Y0061445D01*
X0235821Y0061812D01*
X0235087Y0061812D01*
X0234720Y0061445D01*
X0234720Y0061078D01*
X0235087Y0060344D01*
X0233986Y0060344D01*
X0233986Y0061812D01*
X0234353Y0059417D02*
X0233986Y0059051D01*
X0233986Y0058317D01*
X0234353Y0057950D01*
X0235821Y0057950D01*
X0251113Y0061646D02*
X0252581Y0061646D01*
X0220942Y0068948D02*
X0219474Y0068948D01*
X0219474Y0066746D01*
X0218548Y0066746D02*
X0218548Y0068214D01*
X0219474Y0067847D02*
X0220208Y0067847D01*
X0218548Y0066746D02*
X0217447Y0066746D01*
X0217080Y0067113D01*
X0217080Y0068214D01*
X0216153Y0068214D02*
X0215787Y0067847D01*
X0215053Y0067847D01*
X0214686Y0068214D01*
X0214686Y0068581D01*
X0215053Y0068948D01*
X0215787Y0068948D01*
X0216153Y0068581D01*
X0216153Y0068214D01*
X0215787Y0067847D02*
X0216153Y0067480D01*
X0216153Y0067113D01*
X0215787Y0066746D01*
X0215053Y0066746D01*
X0214686Y0067113D01*
X0214686Y0067480D01*
X0215053Y0067847D01*
X0213759Y0067480D02*
X0213392Y0067847D01*
X0212292Y0067847D01*
X0212292Y0067113D01*
X0212659Y0066746D01*
X0213392Y0066746D01*
X0213759Y0067113D01*
X0213759Y0067480D01*
X0213025Y0068581D02*
X0212292Y0067847D01*
X0213025Y0068581D02*
X0213759Y0068948D01*
X0200411Y0068804D02*
X0199310Y0068070D01*
X0200411Y0067336D01*
X0199310Y0067336D02*
X0199310Y0069538D01*
X0198384Y0069171D02*
X0198017Y0069538D01*
X0197283Y0069538D01*
X0196916Y0069171D01*
X0196916Y0067703D01*
X0198384Y0069171D01*
X0198384Y0067703D01*
X0198017Y0067336D01*
X0197283Y0067336D01*
X0196916Y0067703D01*
X0195990Y0067703D02*
X0195623Y0067336D01*
X0194889Y0067336D01*
X0194522Y0067703D01*
X0195990Y0069171D01*
X0195990Y0067703D01*
X0195990Y0069171D02*
X0195623Y0069538D01*
X0194889Y0069538D01*
X0194522Y0069171D01*
X0194522Y0067703D01*
X0193595Y0067336D02*
X0192128Y0067336D01*
X0192862Y0067336D02*
X0192862Y0069538D01*
X0192128Y0068804D01*
X0180300Y0071303D02*
X0178832Y0071303D01*
X0179933Y0072404D01*
X0179933Y0070202D01*
X0177906Y0070569D02*
X0177539Y0070202D01*
X0176805Y0070202D01*
X0176438Y0070569D01*
X0176438Y0072037D01*
X0176805Y0072404D01*
X0177539Y0072404D01*
X0177906Y0072037D01*
X0174509Y0075395D02*
X0173408Y0076496D01*
X0173041Y0076129D02*
X0174509Y0077597D01*
X0173041Y0077597D02*
X0173041Y0075395D01*
X0172114Y0075395D02*
X0170647Y0075395D01*
X0172114Y0076863D01*
X0172114Y0077230D01*
X0171747Y0077597D01*
X0171014Y0077597D01*
X0170647Y0077230D01*
X0169817Y0075762D02*
X0169817Y0075395D01*
X0169450Y0075395D01*
X0169450Y0075762D01*
X0169817Y0075762D01*
X0168523Y0075395D02*
X0167055Y0075395D01*
X0168523Y0076863D01*
X0168523Y0077230D01*
X0168156Y0077597D01*
X0167422Y0077597D01*
X0167055Y0077230D01*
X0158046Y0080524D02*
X0158046Y0087020D01*
X0142888Y0087020D01*
X0137573Y0081705D01*
X0137573Y0080524D01*
X0129306Y0081114D02*
X0124975Y0085445D01*
X0112770Y0085445D01*
X0112770Y0080524D01*
X0114149Y0073831D02*
X0114232Y0073664D01*
X0114319Y0073500D01*
X0114411Y0073337D01*
X0114506Y0073177D01*
X0114605Y0073020D01*
X0114708Y0072865D01*
X0114815Y0072712D01*
X0114926Y0072562D01*
X0115040Y0072415D01*
X0115157Y0072270D01*
X0115278Y0072129D01*
X0115403Y0071990D01*
X0115530Y0071855D01*
X0115661Y0071722D01*
X0115796Y0071593D01*
X0115933Y0071467D01*
X0116073Y0071345D01*
X0116217Y0071226D01*
X0116363Y0071110D01*
X0116512Y0070999D01*
X0116663Y0070890D01*
X0116817Y0070786D01*
X0116974Y0070685D01*
X0117133Y0070588D01*
X0117294Y0070495D01*
X0117458Y0070406D01*
X0117624Y0070321D01*
X0117791Y0070240D01*
X0117961Y0070163D01*
X0118133Y0070090D01*
X0118306Y0070022D01*
X0118481Y0069958D01*
X0118657Y0069898D01*
X0118835Y0069842D01*
X0119014Y0069790D01*
X0119194Y0069743D01*
X0119375Y0069701D01*
X0119557Y0069662D01*
X0119741Y0069629D01*
X0119924Y0069599D01*
X0120109Y0069575D01*
X0120294Y0069554D01*
X0120480Y0069538D01*
X0120666Y0069527D01*
X0120852Y0069520D01*
X0121038Y0069518D01*
X0121224Y0069520D01*
X0121410Y0069527D01*
X0121596Y0069538D01*
X0121782Y0069554D01*
X0121967Y0069575D01*
X0122152Y0069599D01*
X0122335Y0069629D01*
X0122519Y0069662D01*
X0122701Y0069701D01*
X0122882Y0069743D01*
X0123062Y0069790D01*
X0123241Y0069842D01*
X0123419Y0069898D01*
X0123595Y0069958D01*
X0123770Y0070022D01*
X0123943Y0070090D01*
X0124115Y0070163D01*
X0124285Y0070240D01*
X0124452Y0070321D01*
X0124618Y0070406D01*
X0124782Y0070495D01*
X0124943Y0070588D01*
X0125102Y0070685D01*
X0125259Y0070786D01*
X0125413Y0070890D01*
X0125564Y0070999D01*
X0125713Y0071110D01*
X0125859Y0071226D01*
X0126003Y0071345D01*
X0126143Y0071467D01*
X0126280Y0071593D01*
X0126415Y0071722D01*
X0126546Y0071855D01*
X0126673Y0071990D01*
X0126798Y0072129D01*
X0126919Y0072270D01*
X0127036Y0072415D01*
X0127150Y0072562D01*
X0127261Y0072712D01*
X0127368Y0072865D01*
X0127471Y0073020D01*
X0127570Y0073177D01*
X0127665Y0073337D01*
X0127757Y0073500D01*
X0127844Y0073664D01*
X0127927Y0073831D01*
X0129306Y0073240D02*
X0124975Y0068909D01*
X0112770Y0068909D01*
X0112770Y0073831D01*
X0114149Y0080523D02*
X0114232Y0080690D01*
X0114319Y0080854D01*
X0114411Y0081017D01*
X0114506Y0081177D01*
X0114605Y0081334D01*
X0114708Y0081489D01*
X0114815Y0081642D01*
X0114926Y0081792D01*
X0115040Y0081939D01*
X0115157Y0082084D01*
X0115278Y0082225D01*
X0115403Y0082364D01*
X0115530Y0082499D01*
X0115661Y0082632D01*
X0115796Y0082761D01*
X0115933Y0082887D01*
X0116073Y0083009D01*
X0116217Y0083128D01*
X0116363Y0083244D01*
X0116512Y0083355D01*
X0116663Y0083464D01*
X0116817Y0083568D01*
X0116974Y0083669D01*
X0117133Y0083766D01*
X0117294Y0083859D01*
X0117458Y0083948D01*
X0117624Y0084033D01*
X0117791Y0084114D01*
X0117961Y0084191D01*
X0118133Y0084264D01*
X0118306Y0084332D01*
X0118481Y0084396D01*
X0118657Y0084456D01*
X0118835Y0084512D01*
X0119014Y0084564D01*
X0119194Y0084611D01*
X0119375Y0084653D01*
X0119557Y0084692D01*
X0119741Y0084725D01*
X0119924Y0084755D01*
X0120109Y0084779D01*
X0120294Y0084800D01*
X0120480Y0084816D01*
X0120666Y0084827D01*
X0120852Y0084834D01*
X0121038Y0084836D01*
X0121224Y0084834D01*
X0121410Y0084827D01*
X0121596Y0084816D01*
X0121782Y0084800D01*
X0121967Y0084779D01*
X0122152Y0084755D01*
X0122335Y0084725D01*
X0122519Y0084692D01*
X0122701Y0084653D01*
X0122882Y0084611D01*
X0123062Y0084564D01*
X0123241Y0084512D01*
X0123419Y0084456D01*
X0123595Y0084396D01*
X0123770Y0084332D01*
X0123943Y0084264D01*
X0124115Y0084191D01*
X0124285Y0084114D01*
X0124452Y0084033D01*
X0124618Y0083948D01*
X0124782Y0083859D01*
X0124943Y0083766D01*
X0125102Y0083669D01*
X0125259Y0083568D01*
X0125413Y0083464D01*
X0125564Y0083355D01*
X0125713Y0083244D01*
X0125859Y0083128D01*
X0126003Y0083009D01*
X0126143Y0082887D01*
X0126280Y0082761D01*
X0126415Y0082632D01*
X0126546Y0082499D01*
X0126673Y0082364D01*
X0126798Y0082225D01*
X0126919Y0082084D01*
X0127036Y0081939D01*
X0127150Y0081792D01*
X0127261Y0081642D01*
X0127368Y0081489D01*
X0127471Y0081334D01*
X0127570Y0081177D01*
X0127665Y0081017D01*
X0127757Y0080854D01*
X0127844Y0080690D01*
X0127927Y0080523D01*
X0138754Y0080130D02*
X0138838Y0080349D01*
X0138927Y0080566D01*
X0139022Y0080781D01*
X0139122Y0080994D01*
X0139227Y0081204D01*
X0139337Y0081411D01*
X0139452Y0081616D01*
X0139572Y0081818D01*
X0139697Y0082017D01*
X0139827Y0082213D01*
X0139961Y0082406D01*
X0140100Y0082595D01*
X0140244Y0082781D01*
X0140392Y0082963D01*
X0140545Y0083142D01*
X0140702Y0083317D01*
X0140863Y0083488D01*
X0141028Y0083655D01*
X0141197Y0083818D01*
X0141370Y0083976D01*
X0141547Y0084131D01*
X0141728Y0084281D01*
X0141912Y0084427D01*
X0142100Y0084568D01*
X0142291Y0084705D01*
X0142486Y0084837D01*
X0142683Y0084964D01*
X0142884Y0085086D01*
X0143087Y0085203D01*
X0143294Y0085316D01*
X0143503Y0085423D01*
X0143714Y0085525D01*
X0143928Y0085623D01*
X0144144Y0085714D01*
X0144363Y0085801D01*
X0144583Y0085882D01*
X0144805Y0085958D01*
X0145030Y0086028D01*
X0145255Y0086093D01*
X0145483Y0086153D01*
X0145711Y0086206D01*
X0145941Y0086255D01*
X0146172Y0086297D01*
X0146404Y0086334D01*
X0146637Y0086366D01*
X0146871Y0086391D01*
X0147105Y0086411D01*
X0147339Y0086426D01*
X0147574Y0086434D01*
X0147809Y0086437D01*
X0148044Y0086434D01*
X0148279Y0086426D01*
X0148513Y0086411D01*
X0148747Y0086391D01*
X0148981Y0086366D01*
X0149214Y0086334D01*
X0149446Y0086297D01*
X0149677Y0086255D01*
X0149907Y0086206D01*
X0150135Y0086153D01*
X0150363Y0086093D01*
X0150588Y0086028D01*
X0150813Y0085958D01*
X0151035Y0085882D01*
X0151255Y0085801D01*
X0151474Y0085714D01*
X0151690Y0085623D01*
X0151904Y0085525D01*
X0152115Y0085423D01*
X0152324Y0085316D01*
X0152531Y0085203D01*
X0152734Y0085086D01*
X0152935Y0084964D01*
X0153132Y0084837D01*
X0153327Y0084705D01*
X0153518Y0084568D01*
X0153706Y0084427D01*
X0153890Y0084281D01*
X0154071Y0084131D01*
X0154248Y0083976D01*
X0154421Y0083818D01*
X0154590Y0083655D01*
X0154755Y0083488D01*
X0154916Y0083317D01*
X0155073Y0083142D01*
X0155226Y0082963D01*
X0155374Y0082781D01*
X0155518Y0082595D01*
X0155657Y0082406D01*
X0155791Y0082213D01*
X0155921Y0082017D01*
X0156046Y0081818D01*
X0156166Y0081616D01*
X0156281Y0081411D01*
X0156391Y0081204D01*
X0156496Y0080994D01*
X0156596Y0080781D01*
X0156691Y0080566D01*
X0156780Y0080349D01*
X0156864Y0080130D01*
X0156864Y0073436D02*
X0156780Y0073217D01*
X0156691Y0073000D01*
X0156596Y0072785D01*
X0156496Y0072572D01*
X0156391Y0072362D01*
X0156281Y0072155D01*
X0156166Y0071950D01*
X0156046Y0071748D01*
X0155921Y0071549D01*
X0155791Y0071353D01*
X0155657Y0071160D01*
X0155518Y0070971D01*
X0155374Y0070785D01*
X0155226Y0070603D01*
X0155073Y0070424D01*
X0154916Y0070249D01*
X0154755Y0070078D01*
X0154590Y0069911D01*
X0154421Y0069748D01*
X0154248Y0069590D01*
X0154071Y0069435D01*
X0153890Y0069285D01*
X0153706Y0069139D01*
X0153518Y0068998D01*
X0153327Y0068861D01*
X0153132Y0068729D01*
X0152935Y0068602D01*
X0152734Y0068480D01*
X0152531Y0068363D01*
X0152324Y0068250D01*
X0152115Y0068143D01*
X0151904Y0068041D01*
X0151690Y0067943D01*
X0151474Y0067852D01*
X0151255Y0067765D01*
X0151035Y0067684D01*
X0150813Y0067608D01*
X0150588Y0067538D01*
X0150363Y0067473D01*
X0150135Y0067413D01*
X0149907Y0067360D01*
X0149677Y0067311D01*
X0149446Y0067269D01*
X0149214Y0067232D01*
X0148981Y0067200D01*
X0148747Y0067175D01*
X0148513Y0067155D01*
X0148279Y0067140D01*
X0148044Y0067132D01*
X0147809Y0067129D01*
X0147574Y0067132D01*
X0147339Y0067140D01*
X0147105Y0067155D01*
X0146871Y0067175D01*
X0146637Y0067200D01*
X0146404Y0067232D01*
X0146172Y0067269D01*
X0145941Y0067311D01*
X0145711Y0067360D01*
X0145483Y0067413D01*
X0145255Y0067473D01*
X0145030Y0067538D01*
X0144805Y0067608D01*
X0144583Y0067684D01*
X0144363Y0067765D01*
X0144144Y0067852D01*
X0143928Y0067943D01*
X0143714Y0068041D01*
X0143503Y0068143D01*
X0143294Y0068250D01*
X0143087Y0068363D01*
X0142884Y0068480D01*
X0142683Y0068602D01*
X0142486Y0068729D01*
X0142291Y0068861D01*
X0142100Y0068998D01*
X0141912Y0069139D01*
X0141728Y0069285D01*
X0141547Y0069435D01*
X0141370Y0069590D01*
X0141197Y0069748D01*
X0141028Y0069911D01*
X0140863Y0070078D01*
X0140702Y0070249D01*
X0140545Y0070424D01*
X0140392Y0070603D01*
X0140244Y0070785D01*
X0140100Y0070971D01*
X0139961Y0071160D01*
X0139827Y0071353D01*
X0139697Y0071549D01*
X0139572Y0071748D01*
X0139452Y0071950D01*
X0139337Y0072155D01*
X0139227Y0072362D01*
X0139122Y0072572D01*
X0139022Y0072785D01*
X0138927Y0073000D01*
X0138838Y0073217D01*
X0138754Y0073436D01*
X0137573Y0073043D02*
X0137573Y0071862D01*
X0142888Y0066547D01*
X0158046Y0066547D01*
X0158046Y0073043D01*
X0153973Y0065463D02*
X0152505Y0065463D01*
X0152505Y0063261D01*
X0151579Y0063261D02*
X0151579Y0064729D01*
X0152505Y0064362D02*
X0153239Y0064362D01*
X0151579Y0063261D02*
X0150478Y0063261D01*
X0150111Y0063628D01*
X0150111Y0064729D01*
X0149185Y0065096D02*
X0147717Y0063628D01*
X0148084Y0063261D01*
X0148818Y0063261D01*
X0149185Y0063628D01*
X0149185Y0065096D01*
X0148818Y0065463D01*
X0148084Y0065463D01*
X0147717Y0065096D01*
X0147717Y0063628D01*
X0146791Y0063628D02*
X0146424Y0063261D01*
X0145690Y0063261D01*
X0145323Y0063628D01*
X0146791Y0065096D01*
X0146791Y0063628D01*
X0145323Y0063628D02*
X0145323Y0065096D01*
X0145690Y0065463D01*
X0146424Y0065463D01*
X0146791Y0065096D01*
X0144397Y0063261D02*
X0142929Y0063261D01*
X0143663Y0063261D02*
X0143663Y0065463D01*
X0142929Y0064729D01*
X0125754Y0067866D02*
X0124286Y0067866D01*
X0124286Y0065665D01*
X0123360Y0065665D02*
X0123360Y0067132D01*
X0124286Y0066766D02*
X0125020Y0066766D01*
X0123360Y0065665D02*
X0122259Y0065665D01*
X0121892Y0066032D01*
X0121892Y0067132D01*
X0120966Y0067499D02*
X0119498Y0066032D01*
X0119865Y0065665D01*
X0120599Y0065665D01*
X0120966Y0066032D01*
X0120966Y0067499D01*
X0120599Y0067866D01*
X0119865Y0067866D01*
X0119498Y0067499D01*
X0119498Y0066032D01*
X0118572Y0065665D02*
X0117104Y0065665D01*
X0117838Y0065665D02*
X0117838Y0067866D01*
X0117104Y0067132D01*
X0091243Y0069767D02*
X0089775Y0069767D01*
X0090509Y0069767D02*
X0090509Y0071969D01*
X0089775Y0071235D01*
X0088849Y0071602D02*
X0088482Y0071969D01*
X0087748Y0071969D01*
X0087381Y0071602D01*
X0087381Y0070134D01*
X0087748Y0069767D01*
X0088482Y0069767D01*
X0088849Y0070134D01*
X0086519Y0069767D02*
X0085785Y0069767D01*
X0086152Y0069767D02*
X0086152Y0071969D01*
X0085785Y0071969D02*
X0086519Y0071969D01*
X0073737Y0071511D02*
X0072269Y0070043D01*
X0072636Y0070410D02*
X0073737Y0069309D01*
X0072269Y0069309D02*
X0072269Y0071511D01*
X0071343Y0071144D02*
X0069875Y0069676D01*
X0070242Y0069309D01*
X0070976Y0069309D01*
X0071343Y0069676D01*
X0071343Y0071144D01*
X0070976Y0071511D01*
X0070242Y0071511D01*
X0069875Y0071144D01*
X0069875Y0069676D01*
X0068949Y0069676D02*
X0068582Y0069309D01*
X0067848Y0069309D01*
X0067481Y0069676D01*
X0068949Y0071144D01*
X0068949Y0069676D01*
X0068949Y0071144D02*
X0068582Y0071511D01*
X0067848Y0071511D01*
X0067481Y0071144D01*
X0067481Y0069676D01*
X0066555Y0069309D02*
X0065087Y0069309D01*
X0065821Y0069309D02*
X0065821Y0071511D01*
X0065087Y0070777D01*
X0064311Y0067390D02*
X0064678Y0067023D01*
X0064678Y0066289D01*
X0064311Y0065922D01*
X0063210Y0065922D01*
X0063210Y0065188D02*
X0063210Y0067390D01*
X0064311Y0067390D01*
X0065604Y0067023D02*
X0065971Y0067390D01*
X0066705Y0067390D01*
X0067072Y0067023D01*
X0067072Y0066656D01*
X0066705Y0066289D01*
X0067072Y0065922D01*
X0067072Y0065555D01*
X0066705Y0065188D01*
X0065971Y0065188D01*
X0065604Y0065555D01*
X0064678Y0065188D02*
X0063944Y0065922D01*
X0066338Y0066289D02*
X0066705Y0066289D01*
X0067694Y0081521D02*
X0067694Y0083723D01*
X0068795Y0083723D01*
X0069162Y0083356D01*
X0069162Y0082622D01*
X0068795Y0082255D01*
X0067694Y0082255D01*
X0068428Y0082255D02*
X0069162Y0081521D01*
X0070088Y0081521D02*
X0071556Y0081521D01*
X0070822Y0081521D02*
X0070822Y0083723D01*
X0070088Y0082989D01*
X0118285Y0086799D02*
X0118652Y0086432D01*
X0119386Y0086432D01*
X0119753Y0086799D01*
X0120679Y0086799D02*
X0121046Y0086432D01*
X0121780Y0086432D01*
X0122147Y0086799D01*
X0122147Y0087533D01*
X0121780Y0087900D01*
X0121413Y0087900D01*
X0120679Y0087533D01*
X0120679Y0088634D01*
X0122147Y0088634D01*
X0119753Y0088267D02*
X0119386Y0088634D01*
X0118652Y0088634D01*
X0118285Y0088267D01*
X0118285Y0086799D01*
X0145977Y0087939D02*
X0146344Y0087572D01*
X0147078Y0087572D01*
X0147445Y0087939D01*
X0148371Y0087572D02*
X0149839Y0089040D01*
X0149839Y0089407D01*
X0149472Y0089774D01*
X0148738Y0089774D01*
X0148371Y0089407D01*
X0147445Y0089407D02*
X0147078Y0089774D01*
X0146344Y0089774D01*
X0145977Y0089407D01*
X0145977Y0087939D01*
X0148371Y0087572D02*
X0149839Y0087572D01*
X0168662Y0087207D02*
X0168662Y0085006D01*
X0168662Y0085739D02*
X0169763Y0085739D01*
X0170130Y0086106D01*
X0170130Y0086840D01*
X0169763Y0087207D01*
X0168662Y0087207D01*
X0169396Y0085739D02*
X0170130Y0085006D01*
X0171056Y0085372D02*
X0171423Y0085006D01*
X0172157Y0085006D01*
X0172524Y0085372D01*
X0172524Y0086106D01*
X0172157Y0086473D01*
X0171790Y0086473D01*
X0171056Y0086106D01*
X0171056Y0087207D01*
X0172524Y0087207D01*
X0192729Y0078574D02*
X0193830Y0078574D01*
X0194197Y0078207D01*
X0194197Y0077473D01*
X0193830Y0077106D01*
X0192729Y0077106D01*
X0193463Y0077106D02*
X0194197Y0076372D01*
X0195123Y0076372D02*
X0196591Y0077840D01*
X0196591Y0078207D01*
X0196224Y0078574D01*
X0195490Y0078574D01*
X0195123Y0078207D01*
X0192729Y0078574D02*
X0192729Y0076372D01*
X0195123Y0076372D02*
X0196591Y0076372D01*
X0197517Y0076372D02*
X0198985Y0076372D01*
X0198251Y0076372D02*
X0198251Y0078574D01*
X0197517Y0077840D01*
X0213426Y0077782D02*
X0213793Y0077415D01*
X0214527Y0077415D01*
X0214894Y0077782D01*
X0215820Y0077415D02*
X0217288Y0077415D01*
X0216554Y0077415D02*
X0216554Y0079617D01*
X0215820Y0078883D01*
X0214894Y0079250D02*
X0214527Y0079617D01*
X0213793Y0079617D01*
X0213426Y0079250D01*
X0213426Y0077782D01*
X0218214Y0077415D02*
X0219682Y0077415D01*
X0218948Y0077415D02*
X0218948Y0079617D01*
X0218214Y0078883D01*
X0234738Y0078546D02*
X0234738Y0079647D01*
X0235105Y0080014D01*
X0236573Y0080014D01*
X0236940Y0079647D01*
X0236940Y0078546D01*
X0234738Y0078546D01*
X0235105Y0080941D02*
X0234738Y0081307D01*
X0234738Y0082041D01*
X0235105Y0082408D01*
X0235472Y0082408D01*
X0236940Y0080941D01*
X0236940Y0082408D01*
X0251105Y0078729D02*
X0252573Y0078729D01*
X0274699Y0074850D02*
X0274699Y0074116D01*
X0275066Y0073749D01*
X0275800Y0074483D02*
X0275800Y0074850D01*
X0275066Y0075217D02*
X0274699Y0074850D01*
X0292245Y0075094D02*
X0293346Y0075094D01*
X0293713Y0075461D01*
X0293713Y0076195D01*
X0293346Y0076562D01*
X0292245Y0076562D01*
X0292245Y0074360D01*
X0292979Y0075094D02*
X0293713Y0074360D01*
X0294639Y0074360D02*
X0296107Y0074360D01*
X0295373Y0074360D02*
X0295373Y0076562D01*
X0294639Y0075828D01*
X0297033Y0075461D02*
X0298501Y0075461D01*
X0298134Y0076562D02*
X0297033Y0075461D01*
X0298134Y0074360D02*
X0298134Y0076562D01*
X0309620Y0071862D02*
X0309620Y0065957D01*
X0308239Y0065960D02*
X0308239Y0066694D01*
X0308239Y0066327D02*
X0306038Y0066327D01*
X0306038Y0065960D02*
X0306038Y0066694D01*
X0306404Y0067556D02*
X0307872Y0067556D01*
X0308239Y0067923D01*
X0308239Y0068657D01*
X0307872Y0069024D01*
X0307872Y0069950D02*
X0308239Y0070317D01*
X0308239Y0071051D01*
X0307872Y0071418D01*
X0307505Y0071418D01*
X0307138Y0071051D01*
X0307138Y0070684D01*
X0307138Y0071051D02*
X0306771Y0071418D01*
X0306404Y0071418D01*
X0306038Y0071051D01*
X0306038Y0070317D01*
X0306404Y0069950D01*
X0306404Y0069024D02*
X0306038Y0068657D01*
X0306038Y0067923D01*
X0306404Y0067556D01*
X0296678Y0063781D02*
X0295210Y0062313D01*
X0295577Y0061946D01*
X0296311Y0061946D01*
X0296678Y0062313D01*
X0296678Y0063781D01*
X0296311Y0064148D01*
X0295577Y0064148D01*
X0295210Y0063781D01*
X0295210Y0062313D01*
X0294284Y0063781D02*
X0292816Y0062313D01*
X0292816Y0061946D01*
X0291523Y0061946D02*
X0291523Y0064148D01*
X0290422Y0063047D01*
X0291890Y0063047D01*
X0292816Y0064148D02*
X0294284Y0064148D01*
X0294284Y0063781D01*
X0317688Y0060544D02*
X0317688Y0058342D01*
X0318789Y0058342D01*
X0319156Y0058709D01*
X0319156Y0059076D01*
X0318789Y0059443D01*
X0317688Y0059443D01*
X0317688Y0060544D02*
X0318789Y0060544D01*
X0319156Y0060177D01*
X0319156Y0059810D01*
X0318789Y0059443D01*
X0320083Y0058709D02*
X0320083Y0060177D01*
X0320450Y0060544D01*
X0321183Y0060544D01*
X0321550Y0060177D01*
X0321550Y0058709D01*
X0321183Y0058342D01*
X0320450Y0058342D01*
X0320083Y0058709D01*
X0320816Y0059076D02*
X0321550Y0058342D01*
X0322477Y0058342D02*
X0323944Y0059810D01*
X0323944Y0060177D01*
X0323578Y0060544D01*
X0322844Y0060544D01*
X0322477Y0060177D01*
X0324871Y0060177D02*
X0324871Y0059810D01*
X0325238Y0059443D01*
X0326339Y0059443D01*
X0326339Y0058709D02*
X0326339Y0060177D01*
X0325972Y0060544D01*
X0325238Y0060544D01*
X0324871Y0060177D01*
X0327265Y0060544D02*
X0328733Y0060544D01*
X0328733Y0060177D01*
X0327265Y0058709D01*
X0327265Y0058342D01*
X0326339Y0058709D02*
X0325972Y0058342D01*
X0325238Y0058342D01*
X0324871Y0058709D01*
X0323944Y0058342D02*
X0322477Y0058342D01*
X0329659Y0058342D02*
X0331127Y0060544D01*
X0329659Y0060544D02*
X0331127Y0058342D01*
X0338254Y0058086D02*
X0338254Y0060288D01*
X0339354Y0060288D01*
X0339721Y0059921D01*
X0339721Y0059187D01*
X0339354Y0058820D01*
X0338254Y0058820D01*
X0338988Y0058820D02*
X0339721Y0058086D01*
X0340648Y0058086D02*
X0342116Y0059554D01*
X0342116Y0059921D01*
X0341749Y0060288D01*
X0341015Y0060288D01*
X0340648Y0059921D01*
X0340648Y0058086D02*
X0342116Y0058086D01*
X0343042Y0058453D02*
X0344510Y0059921D01*
X0344510Y0058453D01*
X0344143Y0058086D01*
X0343409Y0058086D01*
X0343042Y0058453D01*
X0343042Y0059921D01*
X0343409Y0060288D01*
X0344143Y0060288D01*
X0344510Y0059921D01*
X0346907Y0061409D02*
X0348375Y0061409D01*
X0347641Y0061409D02*
X0347641Y0063611D01*
X0346907Y0062877D01*
X0349301Y0063244D02*
X0349301Y0061776D01*
X0350769Y0063244D01*
X0350769Y0061776D01*
X0350402Y0061409D01*
X0349668Y0061409D01*
X0349301Y0061776D01*
X0351695Y0061776D02*
X0353163Y0063244D01*
X0353163Y0061776D01*
X0352796Y0061409D01*
X0352062Y0061409D01*
X0351695Y0061776D01*
X0351695Y0063244D01*
X0352062Y0063611D01*
X0352796Y0063611D01*
X0353163Y0063244D01*
X0354089Y0063611D02*
X0354089Y0061409D01*
X0354089Y0062143D02*
X0355190Y0061409D01*
X0354089Y0062143D02*
X0355190Y0062877D01*
X0350769Y0063244D02*
X0350402Y0063611D01*
X0349668Y0063611D01*
X0349301Y0063244D01*
X0349076Y0070487D02*
X0348342Y0071221D01*
X0348709Y0071221D02*
X0347608Y0071221D01*
X0347608Y0070487D02*
X0347608Y0072689D01*
X0348709Y0072689D01*
X0349076Y0072322D01*
X0349076Y0071588D01*
X0348709Y0071221D01*
X0350002Y0070487D02*
X0351470Y0071955D01*
X0351470Y0072322D01*
X0351103Y0072689D01*
X0350369Y0072689D01*
X0350002Y0072322D01*
X0350002Y0070487D02*
X0351470Y0070487D01*
X0352396Y0070487D02*
X0353864Y0071955D01*
X0353864Y0072322D01*
X0353497Y0072689D01*
X0352763Y0072689D01*
X0352396Y0072322D01*
X0352396Y0070487D02*
X0353864Y0070487D01*
X0352422Y0075869D02*
X0351321Y0076603D01*
X0352422Y0077337D01*
X0351321Y0078071D02*
X0351321Y0075869D01*
X0350395Y0075869D02*
X0348927Y0075869D01*
X0349661Y0075869D02*
X0349661Y0078071D01*
X0348927Y0077337D01*
X0348001Y0075869D02*
X0346533Y0075869D01*
X0347267Y0075869D02*
X0347267Y0078071D01*
X0346533Y0077337D01*
X0323594Y0074642D02*
X0323594Y0073174D01*
X0323594Y0073908D02*
X0321392Y0073908D01*
X0322126Y0073174D01*
X0321392Y0072248D02*
X0322860Y0070780D01*
X0322493Y0071147D02*
X0323594Y0072248D01*
X0323594Y0070780D02*
X0321392Y0070780D01*
X0321392Y0069854D02*
X0321759Y0069120D01*
X0322493Y0068386D01*
X0322493Y0069487D01*
X0322860Y0069854D01*
X0323227Y0069854D01*
X0323594Y0069487D01*
X0323594Y0068753D01*
X0323227Y0068386D01*
X0322493Y0068386D01*
X0322860Y0067460D02*
X0323227Y0067460D01*
X0323594Y0067093D01*
X0323594Y0066359D01*
X0323227Y0065992D01*
X0322493Y0066359D02*
X0322126Y0065992D01*
X0321759Y0065992D01*
X0321392Y0066359D01*
X0321392Y0067093D01*
X0321759Y0067460D01*
X0322493Y0067093D02*
X0322860Y0067460D01*
X0322493Y0067093D02*
X0322493Y0066359D01*
X0320644Y0065957D02*
X0320644Y0071862D01*
X0321759Y0065066D02*
X0323227Y0065066D01*
X0323594Y0064699D01*
X0323594Y0063965D01*
X0323227Y0063598D01*
X0321759Y0063598D01*
X0321392Y0063965D01*
X0321392Y0064699D01*
X0321759Y0065066D01*
X0322860Y0064332D02*
X0323594Y0065066D01*
X0339462Y0050849D02*
X0340196Y0051583D01*
X0340196Y0049381D01*
X0339462Y0049381D02*
X0340930Y0049381D01*
X0341856Y0049381D02*
X0341856Y0051583D01*
X0342590Y0050849D01*
X0343324Y0051583D01*
X0343324Y0049381D01*
X0328682Y0047969D02*
X0327214Y0047969D01*
X0328315Y0049070D01*
X0328315Y0046868D01*
X0326288Y0047235D02*
X0325921Y0046868D01*
X0325187Y0046868D01*
X0324820Y0047235D01*
X0324820Y0048703D01*
X0325187Y0049070D01*
X0325921Y0049070D01*
X0326288Y0048703D01*
X0323958Y0049070D02*
X0323224Y0049070D01*
X0323591Y0049070D02*
X0323591Y0046868D01*
X0323224Y0046868D02*
X0323958Y0046868D01*
X0324720Y0043536D02*
X0325454Y0043536D01*
X0325821Y0043169D01*
X0324353Y0041701D01*
X0324720Y0041334D01*
X0325454Y0041334D01*
X0325821Y0041701D01*
X0325821Y0043169D01*
X0324720Y0043536D02*
X0324353Y0043169D01*
X0324353Y0041701D01*
X0323427Y0041334D02*
X0321959Y0041334D01*
X0322693Y0041334D02*
X0322693Y0043536D01*
X0321959Y0042802D01*
X0321032Y0043169D02*
X0320666Y0043536D01*
X0319932Y0043536D01*
X0319565Y0043169D01*
X0319565Y0041701D01*
X0319932Y0041334D01*
X0320666Y0041334D01*
X0321032Y0041701D01*
X0307639Y0042736D02*
X0306171Y0041268D01*
X0306171Y0040901D01*
X0305245Y0041268D02*
X0304878Y0040901D01*
X0304144Y0040901D01*
X0303777Y0041268D01*
X0303777Y0042736D01*
X0304144Y0043103D01*
X0304878Y0043103D01*
X0305245Y0042736D01*
X0306171Y0043103D02*
X0307639Y0043103D01*
X0307639Y0042736D01*
X0332364Y0037378D02*
X0332731Y0036645D01*
X0333465Y0035911D01*
X0333465Y0037011D01*
X0333832Y0037378D01*
X0334199Y0037378D01*
X0334566Y0037011D01*
X0334566Y0036278D01*
X0334199Y0035911D01*
X0333465Y0035911D01*
X0332731Y0034984D02*
X0332364Y0034617D01*
X0332364Y0033883D01*
X0332731Y0033516D01*
X0334199Y0033516D01*
X0334566Y0033883D01*
X0334566Y0034617D01*
X0334199Y0034984D01*
X0334566Y0032654D02*
X0334566Y0031920D01*
X0334566Y0032287D02*
X0332364Y0032287D01*
X0332364Y0031920D02*
X0332364Y0032654D01*
X0327837Y0034717D02*
X0326369Y0034717D01*
X0326369Y0032515D01*
X0325443Y0032882D02*
X0325076Y0032515D01*
X0323975Y0032515D01*
X0323975Y0031781D02*
X0323975Y0033983D01*
X0325076Y0033983D01*
X0325443Y0033616D01*
X0325443Y0032882D01*
X0326369Y0033616D02*
X0327103Y0033616D01*
X0323049Y0033983D02*
X0321581Y0032515D01*
X0323049Y0032515D01*
X0320751Y0032515D02*
X0320384Y0032515D01*
X0320384Y0032882D01*
X0320751Y0032882D01*
X0320751Y0032515D01*
X0319458Y0032515D02*
X0317990Y0032515D01*
X0319458Y0033983D01*
X0319458Y0034350D01*
X0319091Y0034717D01*
X0318357Y0034717D01*
X0317990Y0034350D01*
X0321581Y0034350D02*
X0321948Y0034717D01*
X0322682Y0034717D01*
X0323049Y0034350D01*
X0323049Y0033983D01*
X0312049Y0034677D02*
X0310582Y0034677D01*
X0310582Y0032476D01*
X0309655Y0032476D02*
X0309655Y0033944D01*
X0310582Y0033577D02*
X0311315Y0033577D01*
X0309655Y0032476D02*
X0308554Y0032476D01*
X0308187Y0032843D01*
X0308187Y0033944D01*
X0306527Y0034677D02*
X0306527Y0032476D01*
X0305793Y0032476D02*
X0307261Y0032476D01*
X0304963Y0032476D02*
X0304596Y0032476D01*
X0304596Y0032843D01*
X0304963Y0032843D01*
X0304963Y0032476D01*
X0303670Y0032843D02*
X0303303Y0032476D01*
X0302569Y0032476D01*
X0302202Y0032843D01*
X0303670Y0034310D01*
X0303670Y0032843D01*
X0303670Y0034310D02*
X0303303Y0034677D01*
X0302569Y0034677D01*
X0302202Y0034310D01*
X0302202Y0032843D01*
X0305793Y0033944D02*
X0306527Y0034677D01*
X0320706Y0027355D02*
X0321807Y0027355D01*
X0322174Y0026988D01*
X0322174Y0026254D01*
X0321807Y0025887D01*
X0320706Y0025887D01*
X0320706Y0025153D02*
X0320706Y0027355D01*
X0323100Y0026621D02*
X0323834Y0027355D01*
X0323834Y0025153D01*
X0323100Y0025153D02*
X0324568Y0025153D01*
X0325494Y0025520D02*
X0325861Y0025153D01*
X0326595Y0025153D01*
X0326962Y0025520D01*
X0326962Y0026254D01*
X0326595Y0026621D01*
X0326228Y0026621D01*
X0325494Y0026254D01*
X0325494Y0027355D01*
X0326962Y0027355D01*
X0322174Y0025153D02*
X0321440Y0025887D01*
X0321834Y0019717D02*
X0321834Y0017515D01*
X0321100Y0017515D02*
X0322568Y0017515D01*
X0323494Y0017882D02*
X0324962Y0019350D01*
X0324962Y0017882D01*
X0324595Y0017515D01*
X0323861Y0017515D01*
X0323494Y0017882D01*
X0323494Y0019350D01*
X0323861Y0019717D01*
X0324595Y0019717D01*
X0324962Y0019350D01*
X0325888Y0019717D02*
X0326622Y0018983D01*
X0327356Y0019717D01*
X0327356Y0017515D01*
X0325888Y0017515D02*
X0325888Y0019717D01*
X0321834Y0019717D02*
X0321100Y0018983D01*
X0349337Y0027141D02*
X0349337Y0028609D01*
X0349337Y0027875D02*
X0351539Y0027875D01*
X0351539Y0029535D02*
X0349337Y0029535D01*
X0349337Y0030636D01*
X0349704Y0031003D01*
X0350438Y0031003D01*
X0350805Y0030636D01*
X0350805Y0029535D01*
X0351172Y0031929D02*
X0351539Y0032296D01*
X0351539Y0033030D01*
X0351172Y0033397D01*
X0350805Y0033397D01*
X0350438Y0033030D01*
X0350438Y0032296D01*
X0350071Y0031929D01*
X0349704Y0031929D01*
X0349337Y0032296D01*
X0349337Y0033030D01*
X0349704Y0033397D01*
X0349337Y0034323D02*
X0349337Y0035791D01*
X0349704Y0035791D01*
X0351172Y0034323D01*
X0351539Y0034323D01*
X0351539Y0036717D02*
X0350071Y0036717D01*
X0349337Y0037451D01*
X0350071Y0038185D01*
X0351539Y0038185D01*
X0350438Y0038185D02*
X0350438Y0036717D01*
X0350438Y0039111D02*
X0350438Y0040579D01*
X0350071Y0041505D02*
X0350438Y0041872D01*
X0350438Y0042973D01*
X0351172Y0042973D02*
X0349704Y0042973D01*
X0349337Y0042606D01*
X0349337Y0041872D01*
X0349704Y0041505D01*
X0350071Y0041505D01*
X0351172Y0041505D02*
X0351539Y0041872D01*
X0351539Y0042606D01*
X0351172Y0042973D01*
X0351539Y0040212D02*
X0349337Y0040212D01*
X0350438Y0039111D01*
X0271434Y0027301D02*
X0271067Y0027668D01*
X0270333Y0027668D01*
X0269966Y0027301D01*
X0271434Y0027301D02*
X0271434Y0026934D01*
X0269966Y0025466D01*
X0271434Y0025466D01*
X0269040Y0025466D02*
X0267572Y0025466D01*
X0268306Y0025466D02*
X0268306Y0027668D01*
X0267572Y0026934D01*
X0266646Y0027301D02*
X0266279Y0027668D01*
X0265545Y0027668D01*
X0265178Y0027301D01*
X0265178Y0025833D01*
X0265545Y0025466D01*
X0266279Y0025466D01*
X0266646Y0025833D01*
X0182068Y0058191D02*
X0182068Y0060392D01*
X0183536Y0060392D01*
X0182802Y0059291D02*
X0182068Y0059291D01*
X0181142Y0059658D02*
X0181142Y0058191D01*
X0180041Y0058191D01*
X0179674Y0058558D01*
X0179674Y0059658D01*
X0178748Y0058191D02*
X0177280Y0058191D01*
X0178014Y0058191D02*
X0178014Y0060392D01*
X0177280Y0059658D01*
X0176450Y0058558D02*
X0176450Y0058191D01*
X0176083Y0058191D01*
X0176083Y0058558D01*
X0176450Y0058558D01*
X0175157Y0058558D02*
X0174790Y0058191D01*
X0174056Y0058191D01*
X0173689Y0058558D01*
X0175157Y0060025D01*
X0175157Y0058558D01*
X0173689Y0058558D02*
X0173689Y0060025D01*
X0174056Y0060392D01*
X0174790Y0060392D01*
X0175157Y0060025D01*
X0195628Y0062961D02*
X0195995Y0062594D01*
X0196728Y0062594D01*
X0197095Y0062961D01*
X0198022Y0062961D02*
X0198022Y0063328D01*
X0198389Y0063695D01*
X0199123Y0063695D01*
X0199490Y0063328D01*
X0199490Y0062961D01*
X0199123Y0062594D01*
X0198389Y0062594D01*
X0198022Y0062961D01*
X0198389Y0063695D02*
X0198022Y0064062D01*
X0198022Y0064429D01*
X0198389Y0064796D01*
X0199123Y0064796D01*
X0199490Y0064429D01*
X0199490Y0064062D01*
X0199123Y0063695D01*
X0197095Y0064429D02*
X0196728Y0064796D01*
X0195995Y0064796D01*
X0195628Y0064429D01*
X0195628Y0062961D01*
X0210580Y0063202D02*
X0211681Y0063202D01*
X0212048Y0063569D01*
X0212048Y0064303D01*
X0211681Y0064670D01*
X0210580Y0064670D01*
X0210580Y0062468D01*
X0211314Y0063202D02*
X0212048Y0062468D01*
X0212974Y0062468D02*
X0214442Y0062468D01*
X0213708Y0062468D02*
X0213708Y0064670D01*
X0212974Y0063936D01*
X0215368Y0063936D02*
X0215735Y0063569D01*
X0216836Y0063569D01*
X0216836Y0062835D02*
X0216836Y0064303D01*
X0216469Y0064670D01*
X0215735Y0064670D01*
X0215368Y0064303D01*
X0215368Y0063936D01*
X0215368Y0062835D02*
X0215735Y0062468D01*
X0216469Y0062468D01*
X0216836Y0062835D01*
X0347533Y0088369D02*
X0347533Y0090571D01*
X0348634Y0090571D01*
X0349001Y0090204D01*
X0349001Y0089470D01*
X0348634Y0089103D01*
X0347533Y0089103D01*
X0348267Y0089103D02*
X0349001Y0088369D01*
X0349927Y0088369D02*
X0351395Y0089837D01*
X0351395Y0090204D01*
X0351028Y0090571D01*
X0350294Y0090571D01*
X0349927Y0090204D01*
X0349927Y0088369D02*
X0351395Y0088369D01*
X0352321Y0088736D02*
X0352688Y0088369D01*
X0353422Y0088369D01*
X0353789Y0088736D01*
X0353789Y0089103D01*
X0353422Y0089470D01*
X0353055Y0089470D01*
X0353422Y0089470D02*
X0353789Y0089837D01*
X0353789Y0090204D01*
X0353422Y0090571D01*
X0352688Y0090571D01*
X0352321Y0090204D01*
D11*
X0226746Y0076390D02*
X0226746Y0046862D01*
X0185408Y0046862D01*
X0185408Y0076390D01*
X0185414Y0076893D01*
X0185433Y0077396D01*
X0185463Y0077899D01*
X0185506Y0078400D01*
X0185561Y0078901D01*
X0185628Y0079399D01*
X0185708Y0079896D01*
X0185799Y0080391D01*
X0185902Y0080884D01*
X0186018Y0081374D01*
X0186145Y0081861D01*
X0186284Y0082345D01*
X0186435Y0082825D01*
X0186598Y0083301D01*
X0186772Y0083774D01*
X0186957Y0084242D01*
X0187154Y0084705D01*
X0187362Y0085163D01*
X0187581Y0085616D01*
X0187812Y0086064D01*
X0188053Y0086506D01*
X0188304Y0086942D01*
X0188566Y0087371D01*
X0188839Y0087794D01*
X0189122Y0088211D01*
X0189415Y0088620D01*
X0189718Y0089022D01*
X0190030Y0089417D01*
X0190352Y0089804D01*
X0190683Y0090183D01*
X0191024Y0090554D01*
X0191373Y0090916D01*
X0191731Y0091270D01*
X0192098Y0091615D01*
X0192473Y0091951D01*
X0192856Y0092277D01*
X0193246Y0092594D01*
X0193645Y0092902D01*
X0194051Y0093200D01*
X0194463Y0093488D01*
X0194883Y0093765D01*
X0195310Y0094033D01*
X0195743Y0094290D01*
X0196181Y0094536D01*
X0196626Y0094772D01*
X0197077Y0094996D01*
X0197532Y0095210D01*
X0197993Y0095413D01*
X0198459Y0095604D01*
X0198929Y0095784D01*
X0199403Y0095952D01*
X0199882Y0096109D01*
X0200364Y0096254D01*
X0200849Y0096387D01*
X0201338Y0096508D01*
X0201829Y0096618D01*
X0202323Y0096715D01*
X0202819Y0096801D01*
X0203317Y0096874D01*
X0203816Y0096935D01*
X0204317Y0096984D01*
X0204819Y0097021D01*
X0205322Y0097045D01*
X0205825Y0097057D01*
X0206329Y0097057D01*
X0206832Y0097045D01*
X0207335Y0097021D01*
X0207837Y0096984D01*
X0208338Y0096935D01*
X0208837Y0096874D01*
X0209335Y0096801D01*
X0209831Y0096715D01*
X0210325Y0096618D01*
X0210816Y0096508D01*
X0211305Y0096387D01*
X0211790Y0096254D01*
X0212272Y0096109D01*
X0212751Y0095952D01*
X0213225Y0095784D01*
X0213695Y0095604D01*
X0214161Y0095413D01*
X0214622Y0095210D01*
X0215077Y0094996D01*
X0215528Y0094772D01*
X0215973Y0094536D01*
X0216412Y0094290D01*
X0216844Y0094033D01*
X0217271Y0093765D01*
X0217691Y0093488D01*
X0218103Y0093200D01*
X0218509Y0092902D01*
X0218908Y0092594D01*
X0219298Y0092277D01*
X0219681Y0091951D01*
X0220056Y0091615D01*
X0220423Y0091270D01*
X0220781Y0090916D01*
X0221130Y0090554D01*
X0221471Y0090183D01*
X0221802Y0089804D01*
X0222124Y0089417D01*
X0222436Y0089022D01*
X0222739Y0088620D01*
X0223032Y0088211D01*
X0223315Y0087794D01*
X0223588Y0087371D01*
X0223850Y0086942D01*
X0224101Y0086506D01*
X0224342Y0086064D01*
X0224573Y0085616D01*
X0224792Y0085163D01*
X0225000Y0084705D01*
X0225197Y0084242D01*
X0225382Y0083774D01*
X0225556Y0083301D01*
X0225719Y0082825D01*
X0225870Y0082345D01*
X0226009Y0081861D01*
X0226136Y0081374D01*
X0226252Y0080884D01*
X0226355Y0080391D01*
X0226446Y0079896D01*
X0226526Y0079399D01*
X0226593Y0078901D01*
X0226648Y0078400D01*
X0226691Y0077899D01*
X0226721Y0077396D01*
X0226740Y0076893D01*
X0226746Y0076390D01*
X0178518Y0076390D02*
X0178526Y0077066D01*
X0178551Y0077742D01*
X0178593Y0078417D01*
X0178651Y0079091D01*
X0178725Y0079764D01*
X0178816Y0080434D01*
X0178924Y0081102D01*
X0179048Y0081766D01*
X0179188Y0082428D01*
X0179344Y0083086D01*
X0179516Y0083740D01*
X0179705Y0084390D01*
X0179909Y0085035D01*
X0180129Y0085674D01*
X0180365Y0086308D01*
X0180616Y0086936D01*
X0180882Y0087558D01*
X0181164Y0088173D01*
X0181461Y0088781D01*
X0181772Y0089381D01*
X0182098Y0089974D01*
X0182439Y0090558D01*
X0182794Y0091134D01*
X0183163Y0091701D01*
X0183545Y0092259D01*
X0183941Y0092807D01*
X0184351Y0093345D01*
X0184774Y0093873D01*
X0185209Y0094391D01*
X0185657Y0094897D01*
X0186117Y0095393D01*
X0186590Y0095877D01*
X0187074Y0096350D01*
X0187570Y0096810D01*
X0188076Y0097258D01*
X0188594Y0097693D01*
X0189122Y0098116D01*
X0189660Y0098526D01*
X0190208Y0098922D01*
X0190766Y0099304D01*
X0191333Y0099673D01*
X0191909Y0100028D01*
X0192493Y0100369D01*
X0193086Y0100695D01*
X0193686Y0101006D01*
X0194294Y0101303D01*
X0194909Y0101585D01*
X0195531Y0101851D01*
X0196159Y0102102D01*
X0196793Y0102338D01*
X0197432Y0102558D01*
X0198077Y0102762D01*
X0198727Y0102951D01*
X0199381Y0103123D01*
X0200039Y0103279D01*
X0200701Y0103419D01*
X0201365Y0103543D01*
X0202033Y0103651D01*
X0202703Y0103742D01*
X0203376Y0103816D01*
X0204050Y0103874D01*
X0204725Y0103916D01*
X0205401Y0103941D01*
X0206077Y0103949D01*
X0206753Y0103941D01*
X0207429Y0103916D01*
X0208104Y0103874D01*
X0208778Y0103816D01*
X0209451Y0103742D01*
X0210121Y0103651D01*
X0210789Y0103543D01*
X0211453Y0103419D01*
X0212115Y0103279D01*
X0212773Y0103123D01*
X0213427Y0102951D01*
X0214077Y0102762D01*
X0214722Y0102558D01*
X0215361Y0102338D01*
X0215995Y0102102D01*
X0216623Y0101851D01*
X0217245Y0101585D01*
X0217860Y0101303D01*
X0218468Y0101006D01*
X0219068Y0100695D01*
X0219661Y0100369D01*
X0220245Y0100028D01*
X0220821Y0099673D01*
X0221388Y0099304D01*
X0221946Y0098922D01*
X0222494Y0098526D01*
X0223032Y0098116D01*
X0223560Y0097693D01*
X0224078Y0097258D01*
X0224584Y0096810D01*
X0225080Y0096350D01*
X0225564Y0095877D01*
X0226037Y0095393D01*
X0226497Y0094897D01*
X0226945Y0094391D01*
X0227380Y0093873D01*
X0227803Y0093345D01*
X0228213Y0092807D01*
X0228609Y0092259D01*
X0228991Y0091701D01*
X0229360Y0091134D01*
X0229715Y0090558D01*
X0230056Y0089974D01*
X0230382Y0089381D01*
X0230693Y0088781D01*
X0230990Y0088173D01*
X0231272Y0087558D01*
X0231538Y0086936D01*
X0231789Y0086308D01*
X0232025Y0085674D01*
X0232245Y0085035D01*
X0232449Y0084390D01*
X0232638Y0083740D01*
X0232810Y0083086D01*
X0232966Y0082428D01*
X0233106Y0081766D01*
X0233230Y0081102D01*
X0233338Y0080434D01*
X0233429Y0079764D01*
X0233503Y0079091D01*
X0233561Y0078417D01*
X0233603Y0077742D01*
X0233628Y0077066D01*
X0233636Y0076390D01*
X0233628Y0075714D01*
X0233603Y0075038D01*
X0233561Y0074363D01*
X0233503Y0073689D01*
X0233429Y0073016D01*
X0233338Y0072346D01*
X0233230Y0071678D01*
X0233106Y0071014D01*
X0232966Y0070352D01*
X0232810Y0069694D01*
X0232638Y0069040D01*
X0232449Y0068390D01*
X0232245Y0067745D01*
X0232025Y0067106D01*
X0231789Y0066472D01*
X0231538Y0065844D01*
X0231272Y0065222D01*
X0230990Y0064607D01*
X0230693Y0063999D01*
X0230382Y0063399D01*
X0230056Y0062806D01*
X0229715Y0062222D01*
X0229360Y0061646D01*
X0228991Y0061079D01*
X0228609Y0060521D01*
X0228213Y0059973D01*
X0227803Y0059435D01*
X0227380Y0058907D01*
X0226945Y0058389D01*
X0226497Y0057883D01*
X0226037Y0057387D01*
X0225564Y0056903D01*
X0225080Y0056430D01*
X0224584Y0055970D01*
X0224078Y0055522D01*
X0223560Y0055087D01*
X0223032Y0054664D01*
X0222494Y0054254D01*
X0221946Y0053858D01*
X0221388Y0053476D01*
X0220821Y0053107D01*
X0220245Y0052752D01*
X0219661Y0052411D01*
X0219068Y0052085D01*
X0218468Y0051774D01*
X0217860Y0051477D01*
X0217245Y0051195D01*
X0216623Y0050929D01*
X0215995Y0050678D01*
X0215361Y0050442D01*
X0214722Y0050222D01*
X0214077Y0050018D01*
X0213427Y0049829D01*
X0212773Y0049657D01*
X0212115Y0049501D01*
X0211453Y0049361D01*
X0210789Y0049237D01*
X0210121Y0049129D01*
X0209451Y0049038D01*
X0208778Y0048964D01*
X0208104Y0048906D01*
X0207429Y0048864D01*
X0206753Y0048839D01*
X0206077Y0048831D01*
X0205401Y0048839D01*
X0204725Y0048864D01*
X0204050Y0048906D01*
X0203376Y0048964D01*
X0202703Y0049038D01*
X0202033Y0049129D01*
X0201365Y0049237D01*
X0200701Y0049361D01*
X0200039Y0049501D01*
X0199381Y0049657D01*
X0198727Y0049829D01*
X0198077Y0050018D01*
X0197432Y0050222D01*
X0196793Y0050442D01*
X0196159Y0050678D01*
X0195531Y0050929D01*
X0194909Y0051195D01*
X0194294Y0051477D01*
X0193686Y0051774D01*
X0193086Y0052085D01*
X0192493Y0052411D01*
X0191909Y0052752D01*
X0191333Y0053107D01*
X0190766Y0053476D01*
X0190208Y0053858D01*
X0189660Y0054254D01*
X0189122Y0054664D01*
X0188594Y0055087D01*
X0188076Y0055522D01*
X0187570Y0055970D01*
X0187074Y0056430D01*
X0186590Y0056903D01*
X0186117Y0057387D01*
X0185657Y0057883D01*
X0185209Y0058389D01*
X0184774Y0058907D01*
X0184351Y0059435D01*
X0183941Y0059973D01*
X0183545Y0060521D01*
X0183163Y0061079D01*
X0182794Y0061646D01*
X0182439Y0062222D01*
X0182098Y0062806D01*
X0181772Y0063399D01*
X0181461Y0063999D01*
X0181164Y0064607D01*
X0180882Y0065222D01*
X0180616Y0065844D01*
X0180365Y0066472D01*
X0180129Y0067106D01*
X0179909Y0067745D01*
X0179705Y0068390D01*
X0179516Y0069040D01*
X0179344Y0069694D01*
X0179188Y0070352D01*
X0179048Y0071014D01*
X0178924Y0071678D01*
X0178816Y0072346D01*
X0178725Y0073016D01*
X0178651Y0073689D01*
X0178593Y0074363D01*
X0178551Y0075038D01*
X0178526Y0075714D01*
X0178518Y0076390D01*
X0130061Y0034575D02*
X0126124Y0034575D01*
X0126124Y0032606D01*
X0116282Y0032606D01*
X0116282Y0014890D01*
X0139904Y0014890D01*
X0139904Y0032606D01*
X0130061Y0032606D01*
X0130061Y0034575D01*
D12*
X0108420Y0029535D02*
X0108420Y0026386D01*
X0108420Y0029535D02*
X0106057Y0029535D01*
X0099758Y0029535D02*
X0097396Y0029535D01*
X0097396Y0026386D01*
X0144798Y0025484D02*
X0144798Y0020484D01*
X0147298Y0017984D01*
X0152298Y0017984D01*
X0154798Y0020484D01*
X0157298Y0017984D01*
X0162298Y0017984D01*
X0164798Y0020484D01*
X0164798Y0025484D01*
X0162298Y0027984D01*
X0157298Y0027984D01*
X0154798Y0025484D01*
X0152298Y0027984D01*
X0147298Y0027984D01*
X0144798Y0025484D01*
X0230101Y0015705D02*
X0231164Y0014642D01*
X0251636Y0014642D01*
X0252699Y0015705D01*
X0252699Y0036177D01*
X0251636Y0037240D01*
X0231164Y0037240D01*
X0230101Y0036177D01*
X0230101Y0015705D01*
X0335841Y0028854D02*
X0335841Y0041059D01*
X0347947Y0041059D01*
X0347947Y0028854D01*
X0335841Y0028854D01*
X0249455Y0055988D02*
X0249455Y0062287D01*
X0245518Y0062287D02*
X0241975Y0062287D01*
X0238038Y0062287D02*
X0238038Y0055988D01*
X0237931Y0071291D02*
X0237931Y0089402D01*
X0239703Y0089402D01*
X0247577Y0089402D02*
X0249349Y0089402D01*
X0249349Y0071291D01*
X0247577Y0071291D01*
X0239703Y0071291D02*
X0237931Y0071291D01*
X0239703Y0084283D02*
X0247577Y0084283D01*
D13*
X0261786Y0072887D02*
X0262268Y0072887D01*
X0261786Y0072887D02*
X0261786Y0066506D01*
X0262268Y0066506D01*
X0265438Y0066506D02*
X0265811Y0066506D01*
X0269178Y0066506D02*
X0269551Y0066506D01*
X0272721Y0066506D02*
X0273203Y0066506D01*
X0273203Y0072887D01*
X0272721Y0072887D01*
X0269551Y0072887D02*
X0265438Y0072887D01*
X0028260Y0031116D02*
X0028260Y0027916D01*
X0017060Y0027916D02*
X0017060Y0031116D01*
X0019260Y0031116D01*
X0026060Y0031116D02*
X0028260Y0031116D01*
D14*
X0338400Y0031413D03*
D15*
X0223400Y0033157D02*
X0223400Y0029220D01*
X0223400Y0033157D02*
X0219463Y0033157D01*
X0195841Y0033157D02*
X0191904Y0033157D01*
X0191932Y0033086D02*
X0191932Y0029220D01*
X0191904Y0029220D01*
X0191904Y0017409D02*
X0191904Y0013472D01*
X0223400Y0013472D02*
X0223400Y0017409D01*
D16*
X0330837Y0055567D03*
M02*
