G75*
%MOIN*%
%OFA0B0*%
%FSLAX25Y25*%
%IPPOS*%
%LPD*%
%AMOC8*
5,1,8,0,0,1.08239X$1,22.5*
%
%ADD10R,0.05118X0.05906*%
%ADD11R,0.04331X0.05512*%
%ADD12R,0.08661X0.02362*%
%ADD13R,0.03150X0.03543*%
%ADD14R,0.03937X0.04331*%
%ADD15R,0.04331X0.03937*%
%ADD16R,0.05787X0.05000*%
%ADD17R,0.03937X0.05512*%
%ADD18R,0.10039X0.10630*%
%ADD19R,0.01575X0.03937*%
%ADD20R,0.01575X0.05709*%
%ADD21R,0.07087X0.05906*%
%ADD22R,0.05906X0.02756*%
%ADD23R,0.01181X0.04921*%
%ADD24R,0.04724X0.02165*%
%ADD25R,0.00984X0.01575*%
%ADD26R,0.02165X0.04724*%
%ADD27R,0.06299X0.07087*%
D10*
X0158656Y0039118D03*
X0165349Y0039118D03*
D11*
X0099872Y0022500D03*
X0091998Y0022500D03*
X0043203Y0049720D03*
X0035329Y0049720D03*
X0035546Y0066091D03*
X0043420Y0066091D03*
D12*
X0129223Y0065370D03*
X0129223Y0060370D03*
X0129223Y0055370D03*
X0129223Y0050370D03*
X0149695Y0050370D03*
X0149695Y0055370D03*
X0149695Y0060370D03*
X0149695Y0065370D03*
D13*
X0179680Y0042528D03*
X0183420Y0034260D03*
X0175939Y0034260D03*
D14*
X0150298Y0039134D03*
X0143605Y0039134D03*
X0136912Y0039043D03*
X0130219Y0039043D03*
X0098668Y0046555D03*
X0091975Y0046555D03*
X0067636Y0047209D03*
X0067636Y0053902D03*
X0070554Y0072878D03*
X0077246Y0072878D03*
X0091680Y0085496D03*
X0098372Y0085496D03*
X0192790Y0062276D03*
X0199483Y0062276D03*
X0212290Y0056618D03*
X0218983Y0056618D03*
X0182620Y0056965D03*
X0175928Y0056965D03*
X0168494Y0056980D03*
X0161802Y0056980D03*
X0211975Y0068673D03*
X0218668Y0068673D03*
X0275215Y0051417D03*
X0281908Y0051417D03*
X0338235Y0037146D03*
X0344928Y0037146D03*
X0308309Y0070150D03*
X0301617Y0070150D03*
X0290774Y0070165D03*
X0284081Y0070165D03*
X0175648Y0022217D03*
X0168955Y0022217D03*
X0157924Y0022059D03*
X0151231Y0022059D03*
X0139262Y0022295D03*
X0132569Y0022295D03*
X0120601Y0022472D03*
X0113908Y0022472D03*
X0078463Y0022327D03*
X0071770Y0022327D03*
D15*
X0060731Y0020843D03*
X0060731Y0027535D03*
X0029227Y0024461D03*
X0022534Y0024461D03*
X0116746Y0039067D03*
X0123439Y0039067D03*
X0118518Y0067768D03*
X0111825Y0067768D03*
X0237266Y0029484D03*
X0243959Y0029484D03*
X0260959Y0037098D03*
X0267652Y0037098D03*
X0275172Y0037020D03*
X0281865Y0037020D03*
X0267494Y0051311D03*
X0260802Y0051311D03*
X0261865Y0084185D03*
X0268557Y0084185D03*
X0275172Y0084264D03*
X0281865Y0084264D03*
X0288715Y0084421D03*
X0295408Y0084421D03*
D16*
X0243246Y0087236D03*
X0243246Y0070307D03*
D17*
X0049235Y0023004D03*
X0041754Y0023004D03*
X0045494Y0031665D03*
D18*
X0119475Y0081933D03*
X0144475Y0081933D03*
D19*
X0098144Y0073933D03*
X0095585Y0073933D03*
X0093026Y0073933D03*
X0090467Y0073933D03*
X0090467Y0056610D03*
X0093026Y0056610D03*
X0095585Y0056610D03*
X0098144Y0056610D03*
D20*
X0202534Y0032075D03*
X0212770Y0032075D03*
D21*
X0222156Y0021346D03*
X0193148Y0021346D03*
D22*
X0207652Y0021346D03*
D23*
X0207652Y0032075D03*
X0210211Y0032075D03*
X0205093Y0032075D03*
D24*
X0260175Y0066220D03*
X0260175Y0069961D03*
X0270412Y0069961D03*
X0270412Y0066220D03*
X0270412Y0073701D03*
X0260175Y0073701D03*
D25*
X0261018Y0024673D03*
X0262987Y0024673D03*
X0264955Y0024673D03*
X0264955Y0019358D03*
X0262987Y0019358D03*
X0261018Y0019358D03*
D26*
X0245518Y0050476D03*
X0241778Y0050476D03*
X0238038Y0050476D03*
X0238038Y0060713D03*
X0245518Y0060713D03*
D27*
X0200290Y0074815D03*
X0189266Y0074815D03*
M02*
