G75*
%MOIN*%
%OFA0B0*%
%FSLAX25Y25*%
%IPPOS*%
%LPD*%
%AMOC8*
5,1,8,0,0,1.08239X$1,22.5*
%
%ADD10C,0.00600*%
%ADD11C,0.00800*%
%ADD12C,0.00300*%
%ADD13C,0.00400*%
%ADD14C,0.00500*%
%ADD15C,0.01000*%
%ADD16C,0.00000*%
%ADD17C,0.00100*%
%ADD18C,0.01200*%
%ADD19C,0.00787*%
D10*
X0018800Y0024459D02*
X0008800Y0034459D01*
X0008800Y0094459D01*
X0018800Y0104459D01*
X0031300Y0104459D01*
X0031300Y0109459D01*
X0018800Y0109459D01*
X0008800Y0119459D01*
X0008800Y0171959D01*
X0018800Y0181959D01*
X0018800Y0241959D01*
X0028800Y0251959D01*
X0151300Y0251959D01*
X0161300Y0241959D01*
X0161300Y0209459D01*
X0166300Y0209459D01*
X0166300Y0241959D01*
X0176300Y0251959D01*
X0328800Y0251959D01*
X0338800Y0241959D01*
X0338800Y0119459D01*
X0328800Y0109459D01*
X0311300Y0109459D01*
X0311300Y0104459D01*
X0346300Y0104459D01*
X0356300Y0094459D01*
X0356300Y0021959D01*
X0346300Y0011959D01*
X0176300Y0011959D01*
X0166300Y0021959D01*
X0166300Y0034459D01*
X0161300Y0034459D01*
X0151300Y0024459D01*
X0018800Y0024459D01*
X0046300Y0104459D02*
X0111300Y0104459D01*
X0111300Y0109459D01*
X0046300Y0109459D01*
X0046300Y0104459D01*
X0126300Y0104459D02*
X0156300Y0104459D01*
X0161300Y0099459D01*
X0166300Y0099459D01*
X0171300Y0104459D01*
X0211300Y0104459D01*
X0211300Y0109459D01*
X0171300Y0109459D01*
X0166300Y0114459D01*
X0166300Y0134459D01*
X0161300Y0134459D01*
X0161300Y0114459D01*
X0156300Y0109459D01*
X0126300Y0109459D01*
X0126300Y0104459D01*
X0161300Y0084459D02*
X0161300Y0049459D01*
X0166300Y0049459D01*
X0166300Y0084459D01*
X0161300Y0084459D01*
X0226300Y0104459D02*
X0296300Y0104459D01*
X0296300Y0109459D01*
X0226300Y0109459D01*
X0226300Y0104459D01*
X0166300Y0149459D02*
X0161300Y0149459D01*
X0161300Y0194459D01*
X0166300Y0194459D01*
X0166300Y0149459D01*
X0128000Y0192259D02*
X0128000Y0193560D01*
X0127566Y0193993D01*
X0127133Y0193993D01*
X0126699Y0193560D01*
X0126699Y0192259D01*
X0126699Y0193560D02*
X0126265Y0193993D01*
X0125831Y0193993D01*
X0125398Y0193560D01*
X0125398Y0192259D01*
X0128000Y0192259D01*
X0128000Y0195205D02*
X0126265Y0195205D01*
X0125398Y0196073D01*
X0126265Y0196940D01*
X0128000Y0196940D01*
X0126699Y0196940D02*
X0126699Y0195205D01*
X0125398Y0198152D02*
X0125398Y0199887D01*
X0125398Y0199019D02*
X0128000Y0199019D01*
X0128000Y0201966D02*
X0125398Y0201966D01*
X0125398Y0202833D02*
X0125398Y0201098D01*
X0125398Y0204045D02*
X0128000Y0204045D01*
X0128000Y0205780D01*
X0128000Y0206991D02*
X0125398Y0206991D01*
X0125398Y0208292D01*
X0125831Y0208726D01*
X0126699Y0208726D01*
X0127133Y0208292D01*
X0127133Y0206991D01*
X0127133Y0207859D02*
X0128000Y0208726D01*
X0128000Y0210805D02*
X0126699Y0210805D01*
X0125831Y0211673D01*
X0125398Y0211673D01*
X0126265Y0212884D02*
X0125398Y0213752D01*
X0128000Y0213752D01*
X0128000Y0214619D02*
X0128000Y0212884D01*
X0126699Y0210805D02*
X0125831Y0209938D01*
X0125398Y0209938D01*
X0125398Y0205780D02*
X0125398Y0204045D01*
X0126699Y0204045D02*
X0126699Y0204912D01*
X0107800Y0216959D02*
X0107802Y0217113D01*
X0107808Y0217267D01*
X0107818Y0217421D01*
X0107832Y0217575D01*
X0107849Y0217728D01*
X0107871Y0217880D01*
X0107897Y0218032D01*
X0107926Y0218184D01*
X0107960Y0218334D01*
X0107997Y0218484D01*
X0108038Y0218632D01*
X0108083Y0218780D01*
X0108132Y0218926D01*
X0108184Y0219071D01*
X0108240Y0219214D01*
X0108300Y0219357D01*
X0108363Y0219497D01*
X0108430Y0219636D01*
X0108501Y0219773D01*
X0108575Y0219908D01*
X0108652Y0220041D01*
X0108733Y0220173D01*
X0108817Y0220302D01*
X0108905Y0220429D01*
X0108996Y0220553D01*
X0109089Y0220675D01*
X0109187Y0220795D01*
X0109287Y0220912D01*
X0109390Y0221027D01*
X0109496Y0221139D01*
X0109604Y0221248D01*
X0109716Y0221354D01*
X0109830Y0221458D01*
X0109947Y0221558D01*
X0110066Y0221656D01*
X0110188Y0221750D01*
X0110313Y0221841D01*
X0119800Y0216959D02*
X0119798Y0216807D01*
X0119792Y0216656D01*
X0119783Y0216505D01*
X0119769Y0216353D01*
X0119752Y0216203D01*
X0119731Y0216053D01*
X0119706Y0215903D01*
X0119678Y0215754D01*
X0119645Y0215606D01*
X0119609Y0215459D01*
X0119570Y0215312D01*
X0119526Y0215167D01*
X0119479Y0215023D01*
X0119428Y0214880D01*
X0119374Y0214739D01*
X0119316Y0214598D01*
X0119255Y0214460D01*
X0119190Y0214323D01*
X0119121Y0214187D01*
X0119050Y0214054D01*
X0118975Y0213922D01*
X0118896Y0213792D01*
X0118815Y0213665D01*
X0118730Y0213539D01*
X0118642Y0213415D01*
X0118551Y0213294D01*
X0118457Y0213175D01*
X0118359Y0213059D01*
X0118259Y0212945D01*
X0118157Y0212833D01*
X0118051Y0212725D01*
X0117943Y0212619D01*
X0117832Y0212515D01*
X0117718Y0212415D01*
X0117602Y0212317D01*
X0117483Y0212223D01*
X0119800Y0216959D02*
X0119798Y0217111D01*
X0119792Y0217262D01*
X0119783Y0217413D01*
X0119769Y0217565D01*
X0119752Y0217715D01*
X0119731Y0217865D01*
X0119706Y0218015D01*
X0119678Y0218164D01*
X0119645Y0218312D01*
X0119609Y0218459D01*
X0119570Y0218606D01*
X0119526Y0218751D01*
X0119479Y0218895D01*
X0119428Y0219038D01*
X0119374Y0219179D01*
X0119316Y0219320D01*
X0119255Y0219458D01*
X0119190Y0219595D01*
X0119121Y0219731D01*
X0119050Y0219864D01*
X0118975Y0219996D01*
X0118896Y0220126D01*
X0118815Y0220253D01*
X0118730Y0220379D01*
X0118642Y0220503D01*
X0118551Y0220624D01*
X0118457Y0220743D01*
X0118359Y0220859D01*
X0118259Y0220973D01*
X0118157Y0221085D01*
X0118051Y0221193D01*
X0117943Y0221299D01*
X0117832Y0221403D01*
X0117718Y0221503D01*
X0117602Y0221601D01*
X0117483Y0221695D01*
X0107800Y0216959D02*
X0107802Y0216809D01*
X0107808Y0216658D01*
X0107817Y0216508D01*
X0107830Y0216359D01*
X0107847Y0216209D01*
X0107868Y0216060D01*
X0107892Y0215912D01*
X0107920Y0215764D01*
X0107952Y0215617D01*
X0107987Y0215471D01*
X0108027Y0215326D01*
X0108069Y0215182D01*
X0108116Y0215039D01*
X0108166Y0214897D01*
X0108219Y0214756D01*
X0108276Y0214617D01*
X0108336Y0214479D01*
X0108400Y0214343D01*
X0108467Y0214209D01*
X0108538Y0214076D01*
X0108612Y0213945D01*
X0108689Y0213816D01*
X0108770Y0213689D01*
X0108853Y0213564D01*
X0108940Y0213441D01*
X0109029Y0213320D01*
X0109122Y0213202D01*
X0109218Y0213086D01*
X0109316Y0212972D01*
X0109417Y0212861D01*
X0109522Y0212752D01*
X0109628Y0212647D01*
X0109738Y0212543D01*
X0109850Y0212443D01*
X0109964Y0212345D01*
X0110081Y0212251D01*
X0110200Y0212159D01*
X0071700Y0208613D02*
X0071700Y0207746D01*
X0071266Y0207312D01*
X0070399Y0208180D02*
X0070399Y0208613D01*
X0070833Y0209047D01*
X0071266Y0209047D01*
X0071700Y0208613D01*
X0070399Y0208613D02*
X0069965Y0209047D01*
X0069531Y0209047D01*
X0069098Y0208613D01*
X0069098Y0207746D01*
X0069531Y0207312D01*
X0069098Y0205233D02*
X0071700Y0205233D01*
X0071700Y0204366D02*
X0071700Y0206100D01*
X0069965Y0204366D02*
X0069098Y0205233D01*
X0069531Y0203154D02*
X0069098Y0202720D01*
X0069098Y0201853D01*
X0069531Y0201419D01*
X0069965Y0201419D01*
X0070399Y0201853D01*
X0070399Y0202720D01*
X0070833Y0203154D01*
X0071266Y0203154D01*
X0071700Y0202720D01*
X0071700Y0201853D01*
X0071266Y0201419D01*
X0071266Y0200207D02*
X0069098Y0200207D01*
X0069098Y0198473D02*
X0071266Y0198473D01*
X0071700Y0198906D01*
X0071700Y0199774D01*
X0071266Y0200207D01*
X0072134Y0202287D02*
X0068664Y0202287D01*
X0052860Y0174861D02*
X0052860Y0172259D01*
X0051993Y0172259D02*
X0053728Y0172259D01*
X0051993Y0173993D02*
X0052860Y0174861D01*
X0050781Y0174427D02*
X0050348Y0174861D01*
X0049480Y0174861D01*
X0049047Y0174427D01*
X0049047Y0173993D01*
X0049480Y0173560D01*
X0050348Y0173560D01*
X0050781Y0173126D01*
X0050781Y0172692D01*
X0050348Y0172259D01*
X0049480Y0172259D01*
X0049047Y0172692D01*
X0047835Y0172692D02*
X0047835Y0174861D01*
X0046100Y0174861D02*
X0046100Y0172692D01*
X0046534Y0172259D01*
X0047401Y0172259D01*
X0047835Y0172692D01*
X0049914Y0171825D02*
X0049914Y0175295D01*
X0057800Y0236959D02*
X0057802Y0237111D01*
X0057808Y0237262D01*
X0057817Y0237413D01*
X0057831Y0237565D01*
X0057848Y0237715D01*
X0057869Y0237865D01*
X0057894Y0238015D01*
X0057922Y0238164D01*
X0057955Y0238312D01*
X0057991Y0238459D01*
X0058030Y0238606D01*
X0058074Y0238751D01*
X0058121Y0238895D01*
X0058172Y0239038D01*
X0058226Y0239179D01*
X0058284Y0239320D01*
X0058345Y0239458D01*
X0058410Y0239595D01*
X0058479Y0239731D01*
X0058550Y0239864D01*
X0058625Y0239996D01*
X0058704Y0240126D01*
X0058785Y0240253D01*
X0058870Y0240379D01*
X0058958Y0240503D01*
X0059049Y0240624D01*
X0059143Y0240743D01*
X0059241Y0240859D01*
X0059341Y0240973D01*
X0059443Y0241085D01*
X0059549Y0241193D01*
X0059657Y0241299D01*
X0059768Y0241403D01*
X0059882Y0241503D01*
X0059998Y0241601D01*
X0060117Y0241695D01*
X0069800Y0236959D02*
X0069798Y0236805D01*
X0069792Y0236651D01*
X0069782Y0236497D01*
X0069768Y0236343D01*
X0069751Y0236190D01*
X0069729Y0236038D01*
X0069703Y0235886D01*
X0069674Y0235734D01*
X0069640Y0235584D01*
X0069603Y0235434D01*
X0069562Y0235286D01*
X0069517Y0235138D01*
X0069468Y0234992D01*
X0069416Y0234847D01*
X0069360Y0234704D01*
X0069300Y0234561D01*
X0069237Y0234421D01*
X0069170Y0234282D01*
X0069099Y0234145D01*
X0069025Y0234010D01*
X0068948Y0233877D01*
X0068867Y0233745D01*
X0068783Y0233616D01*
X0068695Y0233489D01*
X0068604Y0233365D01*
X0068511Y0233243D01*
X0068413Y0233123D01*
X0068313Y0233006D01*
X0068210Y0232891D01*
X0068104Y0232779D01*
X0067996Y0232670D01*
X0067884Y0232564D01*
X0067770Y0232460D01*
X0067653Y0232360D01*
X0067534Y0232262D01*
X0067412Y0232168D01*
X0067287Y0232077D01*
X0069800Y0236959D02*
X0069798Y0237109D01*
X0069792Y0237260D01*
X0069783Y0237410D01*
X0069770Y0237559D01*
X0069753Y0237709D01*
X0069732Y0237858D01*
X0069708Y0238006D01*
X0069680Y0238154D01*
X0069648Y0238301D01*
X0069613Y0238447D01*
X0069573Y0238592D01*
X0069531Y0238736D01*
X0069484Y0238879D01*
X0069434Y0239021D01*
X0069381Y0239162D01*
X0069324Y0239301D01*
X0069264Y0239439D01*
X0069200Y0239575D01*
X0069133Y0239709D01*
X0069062Y0239842D01*
X0068988Y0239973D01*
X0068911Y0240102D01*
X0068830Y0240229D01*
X0068747Y0240354D01*
X0068660Y0240477D01*
X0068571Y0240598D01*
X0068478Y0240716D01*
X0068382Y0240832D01*
X0068284Y0240946D01*
X0068183Y0241057D01*
X0068078Y0241166D01*
X0067972Y0241271D01*
X0067862Y0241375D01*
X0067750Y0241475D01*
X0067636Y0241573D01*
X0067519Y0241667D01*
X0067400Y0241759D01*
X0057800Y0236959D02*
X0057802Y0236807D01*
X0057808Y0236656D01*
X0057817Y0236505D01*
X0057831Y0236353D01*
X0057848Y0236203D01*
X0057869Y0236053D01*
X0057894Y0235903D01*
X0057922Y0235754D01*
X0057955Y0235606D01*
X0057991Y0235459D01*
X0058030Y0235312D01*
X0058074Y0235167D01*
X0058121Y0235023D01*
X0058172Y0234880D01*
X0058226Y0234739D01*
X0058284Y0234598D01*
X0058345Y0234460D01*
X0058410Y0234323D01*
X0058479Y0234187D01*
X0058550Y0234054D01*
X0058625Y0233922D01*
X0058704Y0233792D01*
X0058785Y0233665D01*
X0058870Y0233539D01*
X0058958Y0233415D01*
X0059049Y0233294D01*
X0059143Y0233175D01*
X0059241Y0233059D01*
X0059341Y0232945D01*
X0059443Y0232833D01*
X0059549Y0232725D01*
X0059657Y0232619D01*
X0059768Y0232515D01*
X0059882Y0232415D01*
X0059998Y0232317D01*
X0060117Y0232223D01*
D11*
X0065650Y0222667D02*
X0071950Y0222667D01*
X0071950Y0218730D02*
X0071950Y0215187D01*
X0071950Y0211250D02*
X0065650Y0211250D01*
X0044509Y0175108D02*
X0044509Y0168809D01*
X0040572Y0175108D02*
X0037028Y0175108D01*
X0033091Y0175108D02*
X0033091Y0168809D01*
X0089745Y0152667D02*
X0089745Y0150896D01*
X0089745Y0152667D02*
X0107855Y0152667D01*
X0107855Y0150896D01*
X0107855Y0143022D02*
X0107855Y0141250D01*
X0089745Y0141250D01*
X0089745Y0143022D01*
X0094863Y0143022D02*
X0094863Y0150896D01*
X0096300Y0126959D02*
X0093800Y0124459D01*
X0093800Y0119459D01*
X0096300Y0116959D01*
X0101300Y0116959D01*
X0103800Y0119459D01*
X0106300Y0116959D01*
X0111300Y0116959D01*
X0113800Y0119459D01*
X0113800Y0124459D01*
X0111300Y0126959D01*
X0106300Y0126959D01*
X0103800Y0124459D01*
X0101300Y0126959D01*
X0096300Y0126959D01*
X0083800Y0124459D02*
X0083800Y0119459D01*
X0081300Y0116959D01*
X0076300Y0116959D01*
X0073800Y0119459D01*
X0071300Y0116959D01*
X0066300Y0116959D01*
X0063800Y0119459D01*
X0063800Y0124459D01*
X0066300Y0126959D01*
X0071300Y0126959D01*
X0073800Y0124459D01*
X0076300Y0126959D01*
X0081300Y0126959D01*
X0083800Y0124459D01*
X0074194Y0090620D02*
X0071044Y0090620D01*
X0071044Y0088258D01*
X0071044Y0081959D02*
X0071044Y0079596D01*
X0074194Y0079596D01*
X0098308Y0091100D02*
X0098308Y0062856D01*
X0100591Y0062856D01*
X0113308Y0062856D02*
X0115591Y0062856D01*
X0115591Y0091100D01*
X0113308Y0091100D01*
X0123308Y0091061D02*
X0125591Y0091061D01*
X0123308Y0091061D02*
X0123308Y0062817D01*
X0125591Y0062817D01*
X0138308Y0062817D02*
X0140591Y0062817D01*
X0140591Y0091061D01*
X0138308Y0091061D01*
X0145650Y0089459D02*
X0148150Y0091959D01*
X0153150Y0091959D01*
X0155650Y0089459D01*
X0155650Y0084459D01*
X0153150Y0081959D01*
X0155650Y0079459D01*
X0155650Y0074459D01*
X0153150Y0071959D01*
X0155650Y0069459D01*
X0155650Y0064459D01*
X0153150Y0061959D01*
X0148150Y0061959D01*
X0145650Y0064459D01*
X0145650Y0069459D01*
X0148150Y0071959D01*
X0145650Y0074459D01*
X0145650Y0079459D01*
X0148150Y0081959D01*
X0145650Y0084459D01*
X0145650Y0089459D01*
X0170650Y0087884D02*
X0170650Y0082884D01*
X0173150Y0080384D01*
X0170650Y0077884D01*
X0170650Y0072884D01*
X0173150Y0070384D01*
X0170650Y0067884D01*
X0170650Y0062884D01*
X0173150Y0060384D01*
X0178150Y0060384D01*
X0180650Y0062884D01*
X0180650Y0067884D01*
X0178150Y0070384D01*
X0180650Y0072884D01*
X0180650Y0077884D01*
X0178150Y0080384D01*
X0180650Y0082884D01*
X0180650Y0087884D01*
X0178150Y0090384D01*
X0173150Y0090384D01*
X0170650Y0087884D01*
X0100591Y0091100D02*
X0098308Y0091100D01*
X0173800Y0152884D02*
X0176300Y0150384D01*
X0181300Y0150384D01*
X0183800Y0152884D01*
X0183800Y0157884D01*
X0181300Y0160384D01*
X0183800Y0162884D01*
X0183800Y0167884D01*
X0181300Y0170384D01*
X0183800Y0172884D01*
X0183800Y0177884D01*
X0181300Y0180384D01*
X0176300Y0180384D01*
X0173800Y0177884D01*
X0173800Y0172884D01*
X0176300Y0170384D01*
X0173800Y0167884D01*
X0173800Y0162884D01*
X0176300Y0160384D01*
X0173800Y0157884D01*
X0173800Y0152884D01*
X0226044Y0164872D02*
X0229194Y0164872D01*
X0226044Y0164872D02*
X0226044Y0167234D01*
X0226044Y0173533D02*
X0226044Y0175896D01*
X0229194Y0175896D01*
X0138800Y0194459D02*
X0136300Y0191959D01*
X0131300Y0191959D01*
X0128800Y0194459D01*
X0128800Y0199459D01*
X0131300Y0201959D01*
X0128800Y0204459D01*
X0128800Y0209459D01*
X0131300Y0211959D01*
X0136300Y0211959D01*
X0138800Y0209459D01*
X0138800Y0204459D01*
X0136300Y0201959D01*
X0138800Y0199459D01*
X0138800Y0194459D01*
X0318308Y0092636D02*
X0320591Y0092636D01*
X0318308Y0092636D02*
X0318308Y0064392D01*
X0320591Y0064392D01*
X0333308Y0064392D02*
X0335591Y0064392D01*
X0335591Y0092636D01*
X0333308Y0092636D01*
X0340650Y0092884D02*
X0340650Y0087884D01*
X0343150Y0085384D01*
X0340650Y0082884D01*
X0340650Y0077884D01*
X0343150Y0075384D01*
X0340650Y0072884D01*
X0340650Y0067884D01*
X0343150Y0065384D01*
X0348150Y0065384D01*
X0350650Y0067884D01*
X0350650Y0072884D01*
X0348150Y0075384D01*
X0350650Y0077884D01*
X0350650Y0082884D01*
X0348150Y0085384D01*
X0350650Y0087884D01*
X0350650Y0092884D01*
X0348150Y0095384D01*
X0343150Y0095384D01*
X0340650Y0092884D01*
D12*
X0333444Y0081609D02*
X0333444Y0079674D01*
X0333444Y0080641D02*
X0330542Y0080641D01*
X0331510Y0079674D01*
X0331026Y0078662D02*
X0330542Y0078179D01*
X0330542Y0077211D01*
X0331026Y0076727D01*
X0332961Y0076727D01*
X0333444Y0077211D01*
X0333444Y0078179D01*
X0332961Y0078662D01*
X0314520Y0070512D02*
X0313903Y0070512D01*
X0311434Y0072981D01*
X0310817Y0072981D01*
X0310817Y0070512D01*
X0311434Y0069298D02*
X0310817Y0068681D01*
X0310817Y0067446D01*
X0311434Y0066829D01*
X0313903Y0066829D01*
X0314520Y0067446D01*
X0314520Y0068681D01*
X0313903Y0069298D01*
X0289300Y0076183D02*
X0286397Y0076183D01*
X0286397Y0077635D01*
X0286881Y0078118D01*
X0287848Y0078118D01*
X0288332Y0077635D01*
X0288332Y0076183D01*
X0288332Y0077151D02*
X0289300Y0078118D01*
X0289300Y0079130D02*
X0288816Y0079130D01*
X0286881Y0081065D01*
X0286397Y0081065D01*
X0286397Y0079130D01*
X0284244Y0079555D02*
X0283627Y0078937D01*
X0284244Y0079555D02*
X0284244Y0080789D01*
X0283627Y0081406D01*
X0283010Y0081406D01*
X0282393Y0080789D01*
X0282393Y0080172D01*
X0282393Y0080789D02*
X0281776Y0081406D01*
X0281159Y0081406D01*
X0280541Y0080789D01*
X0280541Y0079555D01*
X0281159Y0078937D01*
X0281159Y0077723D02*
X0280541Y0077106D01*
X0280541Y0075871D01*
X0281159Y0075254D01*
X0283627Y0075254D01*
X0284244Y0075871D01*
X0284244Y0077106D01*
X0283627Y0077723D01*
X0262725Y0078394D02*
X0261757Y0077427D01*
X0261757Y0077910D02*
X0261757Y0076459D01*
X0262725Y0076459D02*
X0259822Y0076459D01*
X0259822Y0077910D01*
X0260306Y0078394D01*
X0261274Y0078394D01*
X0261757Y0077910D01*
X0261274Y0079406D02*
X0261274Y0080857D01*
X0261757Y0081341D01*
X0262241Y0081341D01*
X0262725Y0080857D01*
X0262725Y0079889D01*
X0262241Y0079406D01*
X0261274Y0079406D01*
X0260306Y0080373D01*
X0259822Y0081341D01*
X0255925Y0079964D02*
X0255925Y0078996D01*
X0255441Y0078513D01*
X0254957Y0078513D01*
X0254474Y0078996D01*
X0254474Y0079964D01*
X0254957Y0080448D01*
X0255441Y0080448D01*
X0255925Y0079964D01*
X0254474Y0079964D02*
X0253990Y0080448D01*
X0253506Y0080448D01*
X0253022Y0079964D01*
X0253022Y0078996D01*
X0253506Y0078513D01*
X0253990Y0078513D01*
X0254474Y0078996D01*
X0254474Y0077501D02*
X0254957Y0077017D01*
X0254957Y0075566D01*
X0254957Y0076534D02*
X0255925Y0077501D01*
X0254474Y0077501D02*
X0253506Y0077501D01*
X0253022Y0077017D01*
X0253022Y0075566D01*
X0255925Y0075566D01*
X0251805Y0089834D02*
X0250838Y0089834D01*
X0250354Y0090318D01*
X0250354Y0091285D02*
X0251321Y0091769D01*
X0251805Y0091769D01*
X0252289Y0091285D01*
X0252289Y0090318D01*
X0251805Y0089834D01*
X0250354Y0091285D02*
X0250354Y0092736D01*
X0252289Y0092736D01*
X0249342Y0092253D02*
X0249342Y0091285D01*
X0248859Y0090801D01*
X0247407Y0090801D01*
X0247407Y0089834D02*
X0247407Y0092736D01*
X0248859Y0092736D01*
X0249342Y0092253D01*
X0248375Y0090801D02*
X0249342Y0089834D01*
X0238128Y0100518D02*
X0237645Y0100034D01*
X0236677Y0100034D01*
X0236193Y0100518D01*
X0236193Y0101485D02*
X0237161Y0101969D01*
X0237645Y0101969D01*
X0238128Y0101485D01*
X0238128Y0100518D01*
X0236193Y0101485D02*
X0236193Y0102936D01*
X0238128Y0102936D01*
X0234214Y0102936D02*
X0234214Y0100034D01*
X0233247Y0100034D02*
X0235182Y0100034D01*
X0233247Y0101969D02*
X0234214Y0102936D01*
X0232235Y0102453D02*
X0232235Y0101485D01*
X0231752Y0101001D01*
X0230300Y0101001D01*
X0230300Y0100034D02*
X0230300Y0102936D01*
X0231752Y0102936D01*
X0232235Y0102453D01*
X0231268Y0101001D02*
X0232235Y0100034D01*
X0220754Y0088661D02*
X0220754Y0085758D01*
X0221721Y0085758D02*
X0219786Y0085758D01*
X0218775Y0086242D02*
X0218291Y0085758D01*
X0217323Y0085758D01*
X0216840Y0086242D01*
X0216840Y0088177D01*
X0217323Y0088661D01*
X0218291Y0088661D01*
X0218775Y0088177D01*
X0219786Y0087693D02*
X0220754Y0088661D01*
X0215843Y0088661D02*
X0214875Y0088661D01*
X0215359Y0088661D02*
X0215359Y0085758D01*
X0214875Y0085758D02*
X0215843Y0085758D01*
X0214273Y0149609D02*
X0213305Y0149609D01*
X0212822Y0150092D01*
X0211810Y0149609D02*
X0210843Y0150576D01*
X0211326Y0150576D02*
X0209875Y0150576D01*
X0209875Y0149609D02*
X0209875Y0152511D01*
X0211326Y0152511D01*
X0211810Y0152027D01*
X0211810Y0151060D01*
X0211326Y0150576D01*
X0212822Y0152027D02*
X0213305Y0152511D01*
X0214273Y0152511D01*
X0214757Y0152027D01*
X0214757Y0151544D01*
X0214273Y0151060D01*
X0214757Y0150576D01*
X0214757Y0150092D01*
X0214273Y0149609D01*
X0214273Y0151060D02*
X0213789Y0151060D01*
X0211150Y0158034D02*
X0208248Y0158034D01*
X0208248Y0159485D01*
X0208731Y0159969D01*
X0209699Y0159969D01*
X0210183Y0159485D01*
X0210183Y0158034D01*
X0210183Y0159001D02*
X0211150Y0159969D01*
X0211150Y0160980D02*
X0211150Y0162915D01*
X0211150Y0161948D02*
X0208248Y0161948D01*
X0209215Y0160980D01*
X0208731Y0163927D02*
X0208248Y0164411D01*
X0208248Y0165378D01*
X0208731Y0165862D01*
X0210666Y0163927D01*
X0211150Y0164411D01*
X0211150Y0165378D01*
X0210666Y0165862D01*
X0208731Y0165862D01*
X0208731Y0163927D02*
X0210666Y0163927D01*
X0218748Y0167768D02*
X0218748Y0168735D01*
X0219231Y0169219D01*
X0221166Y0169219D01*
X0221650Y0168735D01*
X0221650Y0167768D01*
X0221166Y0167284D01*
X0219231Y0167284D01*
X0218748Y0167768D01*
X0220683Y0168251D02*
X0221650Y0169219D01*
X0221650Y0170230D02*
X0219715Y0172165D01*
X0219231Y0172165D01*
X0218748Y0171682D01*
X0218748Y0170714D01*
X0219231Y0170230D01*
X0221650Y0170230D02*
X0221650Y0172165D01*
X0229619Y0162373D02*
X0231071Y0162373D01*
X0231554Y0161890D01*
X0231554Y0159955D01*
X0231071Y0159471D01*
X0229619Y0159471D01*
X0229619Y0162373D01*
X0232566Y0161406D02*
X0233533Y0162373D01*
X0233533Y0159471D01*
X0232566Y0159471D02*
X0234501Y0159471D01*
X0234017Y0152373D02*
X0233050Y0152373D01*
X0232566Y0151890D01*
X0231554Y0151890D02*
X0231071Y0152373D01*
X0229619Y0152373D01*
X0229619Y0149471D01*
X0231071Y0149471D01*
X0231554Y0149955D01*
X0231554Y0151890D01*
X0234017Y0152373D02*
X0234501Y0151890D01*
X0234501Y0151406D01*
X0232566Y0149471D01*
X0234501Y0149471D01*
X0248248Y0149485D02*
X0248731Y0149969D01*
X0249699Y0149969D01*
X0250183Y0149485D01*
X0250183Y0148034D01*
X0251150Y0148034D02*
X0248248Y0148034D01*
X0248248Y0149485D01*
X0248731Y0150980D02*
X0248248Y0151464D01*
X0248248Y0152432D01*
X0248731Y0152915D01*
X0249215Y0152915D01*
X0251150Y0150980D01*
X0251150Y0152915D01*
X0251150Y0149969D02*
X0250183Y0149001D01*
X0250183Y0163034D02*
X0250183Y0164485D01*
X0249699Y0164969D01*
X0248731Y0164969D01*
X0248248Y0164485D01*
X0248248Y0163034D01*
X0251150Y0163034D01*
X0250183Y0164001D02*
X0251150Y0164969D01*
X0251150Y0165980D02*
X0251150Y0167915D01*
X0251150Y0166948D02*
X0248248Y0166948D01*
X0249215Y0165980D01*
X0194575Y0160502D02*
X0194091Y0160502D01*
X0192156Y0162437D01*
X0191673Y0162437D01*
X0191673Y0160502D01*
X0191673Y0158523D02*
X0194575Y0158523D01*
X0194575Y0159490D02*
X0194575Y0157555D01*
X0194575Y0156544D02*
X0193608Y0155576D01*
X0193608Y0156060D02*
X0193608Y0154609D01*
X0194575Y0154609D02*
X0191673Y0154609D01*
X0191673Y0156060D01*
X0192156Y0156544D01*
X0193124Y0156544D01*
X0193608Y0156060D01*
X0192640Y0157555D02*
X0191673Y0158523D01*
X0126165Y0148640D02*
X0126165Y0148022D01*
X0125548Y0147405D01*
X0124313Y0147405D01*
X0123696Y0148022D01*
X0123696Y0148640D01*
X0124313Y0149257D01*
X0125548Y0149257D01*
X0126165Y0148640D01*
X0125548Y0147405D02*
X0126165Y0146788D01*
X0126165Y0146171D01*
X0125548Y0145554D01*
X0124313Y0145554D01*
X0123696Y0146171D01*
X0123696Y0146788D01*
X0124313Y0147405D01*
X0122482Y0146171D02*
X0121865Y0145554D01*
X0120630Y0145554D01*
X0120013Y0146171D01*
X0120013Y0148640D01*
X0120630Y0149257D01*
X0121865Y0149257D01*
X0122482Y0148640D01*
X0074501Y0148464D02*
X0074501Y0147981D01*
X0074017Y0147497D01*
X0074501Y0147013D01*
X0074501Y0146529D01*
X0074017Y0146046D01*
X0073050Y0146046D01*
X0072566Y0146529D01*
X0071554Y0146529D02*
X0071554Y0148464D01*
X0071071Y0148948D01*
X0069619Y0148948D01*
X0069619Y0146046D01*
X0071071Y0146046D01*
X0071554Y0146529D01*
X0072566Y0148464D02*
X0073050Y0148948D01*
X0074017Y0148948D01*
X0074501Y0148464D01*
X0074017Y0147497D02*
X0073533Y0147497D01*
X0060295Y0139550D02*
X0060295Y0138583D01*
X0059811Y0138099D01*
X0058844Y0138099D02*
X0058360Y0139067D01*
X0058360Y0139550D01*
X0058844Y0140034D01*
X0059811Y0140034D01*
X0060295Y0139550D01*
X0058844Y0138099D02*
X0057392Y0138099D01*
X0057392Y0140034D01*
X0057876Y0137088D02*
X0057392Y0136604D01*
X0057392Y0135636D01*
X0057876Y0135153D01*
X0059811Y0135153D01*
X0060295Y0135636D01*
X0060295Y0136604D01*
X0059811Y0137088D01*
X0051778Y0127511D02*
X0050811Y0127027D01*
X0049843Y0126060D01*
X0051294Y0126060D01*
X0051778Y0125576D01*
X0051778Y0125092D01*
X0051294Y0124609D01*
X0050327Y0124609D01*
X0049843Y0125092D01*
X0049843Y0126060D01*
X0048831Y0124609D02*
X0046897Y0124609D01*
X0047864Y0124609D02*
X0047864Y0127511D01*
X0046897Y0126544D01*
X0045885Y0127027D02*
X0045885Y0126060D01*
X0045401Y0125576D01*
X0043950Y0125576D01*
X0043950Y0124609D02*
X0043950Y0127511D01*
X0045401Y0127511D01*
X0045885Y0127027D01*
X0044917Y0125576D02*
X0045885Y0124609D01*
X0044811Y0135153D02*
X0042876Y0135153D01*
X0042392Y0135636D01*
X0042392Y0136604D01*
X0042876Y0137088D01*
X0042876Y0138099D02*
X0042392Y0138583D01*
X0042392Y0139550D01*
X0042876Y0140034D01*
X0043360Y0140034D01*
X0045295Y0138099D01*
X0045295Y0140034D01*
X0044811Y0137088D02*
X0045295Y0136604D01*
X0045295Y0135636D01*
X0044811Y0135153D01*
X0026165Y0128640D02*
X0026165Y0126171D01*
X0025548Y0125554D01*
X0024313Y0125554D01*
X0023696Y0126171D01*
X0022482Y0126171D02*
X0021865Y0125554D01*
X0020630Y0125554D01*
X0020013Y0126171D01*
X0020013Y0128640D01*
X0020630Y0129257D01*
X0021865Y0129257D01*
X0022482Y0128640D01*
X0023696Y0128640D02*
X0023696Y0128022D01*
X0024313Y0127405D01*
X0026165Y0127405D01*
X0026165Y0128640D02*
X0025548Y0129257D01*
X0024313Y0129257D01*
X0023696Y0128640D01*
X0023614Y0145554D02*
X0023614Y0149257D01*
X0022379Y0148022D01*
X0022379Y0145554D02*
X0024848Y0145554D01*
X0021165Y0145554D02*
X0018696Y0145554D01*
X0019931Y0145554D02*
X0019931Y0149257D01*
X0018696Y0148022D01*
X0017482Y0148640D02*
X0016865Y0149257D01*
X0015630Y0149257D01*
X0015013Y0148640D01*
X0015013Y0146171D01*
X0015630Y0145554D01*
X0016865Y0145554D01*
X0017482Y0146171D01*
X0016865Y0165554D02*
X0017482Y0166171D01*
X0016865Y0165554D02*
X0015630Y0165554D01*
X0015013Y0166171D01*
X0015013Y0168640D01*
X0015630Y0169257D01*
X0016865Y0169257D01*
X0017482Y0168640D01*
X0018696Y0168022D02*
X0019931Y0169257D01*
X0019931Y0165554D01*
X0021165Y0165554D02*
X0018696Y0165554D01*
X0022379Y0166171D02*
X0022996Y0165554D01*
X0024231Y0165554D01*
X0024848Y0166171D01*
X0024848Y0166788D01*
X0024231Y0167405D01*
X0023614Y0167405D01*
X0024231Y0167405D02*
X0024848Y0168022D01*
X0024848Y0168640D01*
X0024231Y0169257D01*
X0022996Y0169257D01*
X0022379Y0168640D01*
X0086502Y0188789D02*
X0087119Y0188172D01*
X0089588Y0188172D01*
X0090205Y0188789D01*
X0090205Y0190023D01*
X0089588Y0190640D01*
X0090205Y0191855D02*
X0090205Y0194324D01*
X0090205Y0195538D02*
X0087736Y0198007D01*
X0087119Y0198007D01*
X0086502Y0197390D01*
X0086502Y0196155D01*
X0087119Y0195538D01*
X0086502Y0193089D02*
X0090205Y0193089D01*
X0090205Y0195538D02*
X0090205Y0198007D01*
X0086502Y0193089D02*
X0087736Y0191855D01*
X0087119Y0190640D02*
X0086502Y0190023D01*
X0086502Y0188789D01*
X0109458Y0194164D02*
X0109458Y0197066D01*
X0110909Y0197066D01*
X0111393Y0196583D01*
X0111393Y0195615D01*
X0110909Y0195131D01*
X0109458Y0195131D01*
X0110425Y0195131D02*
X0111393Y0194164D01*
X0112404Y0194164D02*
X0114339Y0194164D01*
X0113372Y0194164D02*
X0113372Y0197066D01*
X0112404Y0196099D01*
X0115351Y0196583D02*
X0115835Y0197066D01*
X0116802Y0197066D01*
X0117286Y0196583D01*
X0117286Y0196099D01*
X0115351Y0194164D01*
X0117286Y0194164D01*
X0110181Y0210987D02*
X0110181Y0212922D01*
X0110181Y0213933D02*
X0110181Y0215868D01*
X0110181Y0216880D02*
X0110181Y0218331D01*
X0109698Y0218815D01*
X0107763Y0218815D01*
X0107279Y0218331D01*
X0107279Y0216880D01*
X0110181Y0216880D01*
X0108730Y0214901D02*
X0108730Y0213933D01*
X0107279Y0213933D02*
X0110181Y0213933D01*
X0107279Y0213933D02*
X0107279Y0215868D01*
X0108247Y0219826D02*
X0107279Y0220794D01*
X0110181Y0220794D01*
X0110181Y0221761D02*
X0110181Y0219826D01*
X0110181Y0210987D02*
X0107279Y0210987D01*
X0091095Y0210613D02*
X0091095Y0211848D01*
X0090478Y0212465D01*
X0091095Y0213679D02*
X0091095Y0216148D01*
X0091095Y0214914D02*
X0087392Y0214914D01*
X0088626Y0213679D01*
X0088009Y0212465D02*
X0087392Y0211848D01*
X0087392Y0210613D01*
X0088009Y0209996D01*
X0090478Y0209996D01*
X0091095Y0210613D01*
X0090478Y0217363D02*
X0088009Y0217363D01*
X0087392Y0217980D01*
X0087392Y0219214D01*
X0088009Y0219831D01*
X0090478Y0217363D01*
X0091095Y0217980D01*
X0091095Y0219214D01*
X0090478Y0219831D01*
X0088009Y0219831D01*
X0081650Y0089390D02*
X0081650Y0087455D01*
X0081650Y0088422D02*
X0078748Y0088422D01*
X0079715Y0087455D01*
X0079231Y0086443D02*
X0081166Y0086443D01*
X0081650Y0085959D01*
X0081650Y0084992D01*
X0081166Y0084508D01*
X0079231Y0084508D01*
X0078748Y0084992D01*
X0078748Y0085959D01*
X0079231Y0086443D01*
X0080683Y0085476D02*
X0081650Y0086443D01*
X0086450Y0085661D02*
X0086450Y0082758D01*
X0086450Y0083726D02*
X0087901Y0083726D01*
X0088385Y0084209D01*
X0088385Y0085177D01*
X0087901Y0085661D01*
X0086450Y0085661D01*
X0087417Y0083726D02*
X0088385Y0082758D01*
X0089397Y0082758D02*
X0091331Y0082758D01*
X0090364Y0082758D02*
X0090364Y0085661D01*
X0089397Y0084693D01*
X0092343Y0084693D02*
X0093311Y0085661D01*
X0093311Y0082758D01*
X0094278Y0082758D02*
X0092343Y0082758D01*
X0098452Y0084053D02*
X0098936Y0083086D01*
X0099903Y0082118D01*
X0099903Y0083569D01*
X0100387Y0084053D01*
X0100871Y0084053D01*
X0101355Y0083569D01*
X0101355Y0082602D01*
X0100871Y0082118D01*
X0099903Y0082118D01*
X0098936Y0081107D02*
X0098452Y0080623D01*
X0098452Y0079655D01*
X0098936Y0079172D01*
X0100871Y0079172D01*
X0101355Y0079655D01*
X0101355Y0080623D01*
X0100871Y0081107D01*
X0079278Y0074910D02*
X0077343Y0074910D01*
X0078794Y0076362D01*
X0078794Y0073459D01*
X0076331Y0073459D02*
X0074397Y0073459D01*
X0075364Y0073459D02*
X0075364Y0076362D01*
X0074397Y0075394D01*
X0073385Y0074910D02*
X0072901Y0074427D01*
X0071450Y0074427D01*
X0072417Y0074427D02*
X0073385Y0073459D01*
X0073385Y0074910D02*
X0073385Y0075878D01*
X0072901Y0076362D01*
X0071450Y0076362D01*
X0071450Y0073459D01*
X0044150Y0073394D02*
X0043183Y0072427D01*
X0043183Y0072910D02*
X0043183Y0071459D01*
X0044150Y0071459D02*
X0041248Y0071459D01*
X0041248Y0072910D01*
X0041731Y0073394D01*
X0042699Y0073394D01*
X0043183Y0072910D01*
X0044150Y0074406D02*
X0044150Y0076341D01*
X0044150Y0075373D02*
X0041248Y0075373D01*
X0042215Y0074406D01*
X0041731Y0077352D02*
X0041248Y0077836D01*
X0041248Y0078803D01*
X0041731Y0079287D01*
X0042215Y0079287D01*
X0042699Y0078803D01*
X0043183Y0079287D01*
X0043666Y0079287D01*
X0044150Y0078803D01*
X0044150Y0077836D01*
X0043666Y0077352D01*
X0042699Y0078320D02*
X0042699Y0078803D01*
X0018070Y0079377D02*
X0018070Y0077442D01*
X0015168Y0077442D01*
X0015168Y0079377D01*
X0015168Y0080389D02*
X0015168Y0082324D01*
X0015652Y0082324D01*
X0017587Y0080389D01*
X0018070Y0080389D01*
X0018070Y0082324D01*
X0017587Y0083335D02*
X0018070Y0083819D01*
X0018070Y0084787D01*
X0017587Y0085270D01*
X0015652Y0085270D01*
X0015168Y0084787D01*
X0015168Y0083819D01*
X0015652Y0083335D01*
X0017587Y0083335D01*
X0016619Y0078410D02*
X0016619Y0077442D01*
X0015168Y0076445D02*
X0015168Y0075478D01*
X0015168Y0075962D02*
X0018070Y0075962D01*
X0018070Y0076445D02*
X0018070Y0075478D01*
X0016619Y0074466D02*
X0017103Y0073983D01*
X0017103Y0072531D01*
X0018070Y0072531D02*
X0015168Y0072531D01*
X0015168Y0073983D01*
X0015652Y0074466D01*
X0016619Y0074466D01*
D13*
X0029298Y0062378D02*
X0029298Y0059308D01*
X0027763Y0060843D02*
X0030833Y0060843D01*
X0064783Y0072282D02*
X0064783Y0074583D01*
X0065551Y0075351D01*
X0068620Y0075351D01*
X0069387Y0074583D01*
X0069387Y0072282D01*
X0064783Y0072282D01*
X0067085Y0076885D02*
X0067085Y0079955D01*
X0069387Y0079187D02*
X0064783Y0079187D01*
X0067085Y0076885D01*
X0029298Y0088308D02*
X0029298Y0091378D01*
X0030757Y0144659D02*
X0029223Y0146193D01*
X0029990Y0146193D02*
X0027688Y0146193D01*
X0027688Y0144659D02*
X0027688Y0149263D01*
X0029990Y0149263D01*
X0030757Y0148495D01*
X0030757Y0146961D01*
X0029990Y0146193D01*
X0032292Y0144659D02*
X0035361Y0144659D01*
X0033827Y0144659D02*
X0033827Y0149263D01*
X0032292Y0147728D01*
X0036896Y0147728D02*
X0037663Y0146961D01*
X0039965Y0146961D01*
X0039965Y0148495D02*
X0039965Y0145426D01*
X0039198Y0144659D01*
X0037663Y0144659D01*
X0036896Y0145426D01*
X0036896Y0147728D02*
X0036896Y0148495D01*
X0037663Y0149263D01*
X0039198Y0149263D01*
X0039965Y0148495D01*
X0067933Y0182680D02*
X0071770Y0182680D01*
X0072537Y0183447D01*
X0072537Y0184982D01*
X0071770Y0185749D01*
X0067933Y0185749D01*
X0068700Y0187284D02*
X0067933Y0188051D01*
X0067933Y0189586D01*
X0068700Y0190353D01*
X0069468Y0191888D02*
X0067933Y0193422D01*
X0072537Y0193422D01*
X0072537Y0191888D02*
X0072537Y0194957D01*
X0070235Y0196492D02*
X0067933Y0198794D01*
X0072537Y0198794D01*
X0070235Y0199561D02*
X0070235Y0196492D01*
X0065965Y0194006D02*
X0061635Y0194006D01*
X0061635Y0199911D02*
X0065965Y0199911D01*
X0056100Y0205847D02*
X0051496Y0205847D01*
X0051496Y0208149D01*
X0052263Y0208916D01*
X0053798Y0208916D01*
X0054565Y0208149D01*
X0054565Y0205847D01*
X0054565Y0207381D02*
X0056100Y0208916D01*
X0056100Y0210451D02*
X0053031Y0213520D01*
X0052263Y0213520D01*
X0051496Y0212753D01*
X0051496Y0211218D01*
X0052263Y0210451D01*
X0056100Y0210451D02*
X0056100Y0213520D01*
X0056100Y0215055D02*
X0053031Y0218124D01*
X0052263Y0218124D01*
X0051496Y0217357D01*
X0051496Y0215822D01*
X0052263Y0215055D01*
X0056100Y0215055D02*
X0056100Y0218124D01*
X0046100Y0201936D02*
X0046100Y0198867D01*
X0046100Y0200401D02*
X0041496Y0200401D01*
X0043031Y0198867D01*
X0043031Y0197332D02*
X0042263Y0197332D01*
X0041496Y0196565D01*
X0041496Y0195030D01*
X0042263Y0194263D01*
X0042263Y0192728D02*
X0043798Y0192728D01*
X0044565Y0191961D01*
X0044565Y0189659D01*
X0044565Y0191193D02*
X0046100Y0192728D01*
X0046100Y0194263D02*
X0043031Y0197332D01*
X0046100Y0197332D02*
X0046100Y0194263D01*
X0042263Y0192728D02*
X0041496Y0191961D01*
X0041496Y0189659D01*
X0046100Y0189659D01*
X0067166Y0188818D02*
X0073304Y0188818D01*
X0072537Y0188051D02*
X0072537Y0189586D01*
X0071770Y0190353D01*
X0071002Y0190353D01*
X0070235Y0189586D01*
X0070235Y0188051D01*
X0069468Y0187284D01*
X0068700Y0187284D01*
X0071770Y0187284D02*
X0072537Y0188051D01*
X0081496Y0187753D02*
X0081496Y0186218D01*
X0082263Y0185451D01*
X0082263Y0183916D02*
X0083798Y0183916D01*
X0084565Y0183149D01*
X0084565Y0180847D01*
X0084565Y0182381D02*
X0086100Y0183916D01*
X0086100Y0185451D02*
X0083031Y0188520D01*
X0082263Y0188520D01*
X0081496Y0187753D01*
X0082263Y0190055D02*
X0081496Y0190822D01*
X0081496Y0192357D01*
X0082263Y0193124D01*
X0083031Y0193124D01*
X0083798Y0192357D01*
X0084565Y0193124D01*
X0085333Y0193124D01*
X0086100Y0192357D01*
X0086100Y0190822D01*
X0085333Y0190055D01*
X0086100Y0188520D02*
X0086100Y0185451D01*
X0082263Y0183916D02*
X0081496Y0183149D01*
X0081496Y0180847D01*
X0086100Y0180847D01*
X0083798Y0191589D02*
X0083798Y0192357D01*
X0091496Y0214659D02*
X0091496Y0216961D01*
X0092263Y0217728D01*
X0093798Y0217728D01*
X0094565Y0216961D01*
X0094565Y0214659D01*
X0094565Y0216193D02*
X0096100Y0217728D01*
X0096100Y0219263D02*
X0093031Y0222332D01*
X0092263Y0222332D01*
X0091496Y0221565D01*
X0091496Y0220030D01*
X0092263Y0219263D01*
X0096100Y0219263D02*
X0096100Y0222332D01*
X0095333Y0223867D02*
X0096100Y0224634D01*
X0096100Y0226168D01*
X0095333Y0226936D01*
X0092263Y0226936D01*
X0095333Y0223867D01*
X0092263Y0223867D01*
X0091496Y0224634D01*
X0091496Y0226168D01*
X0092263Y0226936D01*
X0091496Y0214659D02*
X0096100Y0214659D01*
X0126500Y0189263D02*
X0128802Y0189263D01*
X0129569Y0188495D01*
X0129569Y0186961D01*
X0128802Y0186193D01*
X0126500Y0186193D01*
X0126500Y0184659D02*
X0126500Y0189263D01*
X0128035Y0186193D02*
X0129569Y0184659D01*
X0131104Y0184659D02*
X0134173Y0184659D01*
X0132639Y0184659D02*
X0132639Y0189263D01*
X0131104Y0187728D01*
X0135708Y0187728D02*
X0135708Y0188495D01*
X0136475Y0189263D01*
X0138010Y0189263D01*
X0138777Y0188495D01*
X0138777Y0187728D01*
X0138010Y0186961D01*
X0136475Y0186961D01*
X0135708Y0187728D01*
X0136475Y0186961D02*
X0135708Y0186193D01*
X0135708Y0185426D01*
X0136475Y0184659D01*
X0138010Y0184659D01*
X0138777Y0185426D01*
X0138777Y0186193D01*
X0138010Y0186961D01*
X0137263Y0168124D02*
X0136496Y0167357D01*
X0136496Y0165822D01*
X0137263Y0165055D01*
X0138031Y0165055D01*
X0138798Y0165822D01*
X0138798Y0168124D01*
X0140333Y0168124D02*
X0137263Y0168124D01*
X0140333Y0168124D02*
X0141100Y0167357D01*
X0141100Y0165822D01*
X0140333Y0165055D01*
X0141100Y0163520D02*
X0139565Y0161985D01*
X0139565Y0162753D02*
X0139565Y0160451D01*
X0141100Y0160451D02*
X0136496Y0160451D01*
X0136496Y0162753D01*
X0137263Y0163520D01*
X0138798Y0163520D01*
X0139565Y0162753D01*
X0138948Y0080624D02*
X0138948Y0077555D01*
X0136646Y0079857D01*
X0141250Y0079857D01*
X0140482Y0076020D02*
X0141250Y0075253D01*
X0141250Y0073718D01*
X0140482Y0072951D01*
X0137413Y0072951D01*
X0136646Y0073718D01*
X0136646Y0075253D01*
X0137413Y0076020D01*
D14*
X0143316Y0065686D02*
X0142999Y0065369D01*
X0142999Y0064735D01*
X0143316Y0064419D01*
X0142999Y0063476D02*
X0142999Y0062843D01*
X0142999Y0063159D02*
X0144583Y0063159D01*
X0144900Y0062843D01*
X0144900Y0062526D01*
X0144583Y0062209D01*
X0144900Y0064419D02*
X0143633Y0065686D01*
X0143316Y0065686D01*
X0144900Y0065686D02*
X0144900Y0064419D01*
X0167999Y0063795D02*
X0168950Y0062844D01*
X0168950Y0064111D01*
X0169900Y0063795D02*
X0167999Y0063795D01*
X0167999Y0061902D02*
X0167999Y0061268D01*
X0167999Y0061585D02*
X0169583Y0061585D01*
X0169900Y0061268D01*
X0169900Y0060951D01*
X0169583Y0060634D01*
X0204706Y0058337D02*
X0246044Y0058337D01*
X0246044Y0028809D01*
X0246038Y0028306D01*
X0246019Y0027803D01*
X0245989Y0027300D01*
X0245946Y0026799D01*
X0245891Y0026298D01*
X0245824Y0025800D01*
X0245744Y0025303D01*
X0245653Y0024808D01*
X0245550Y0024315D01*
X0245434Y0023825D01*
X0245307Y0023338D01*
X0245168Y0022854D01*
X0245017Y0022374D01*
X0244854Y0021898D01*
X0244680Y0021425D01*
X0244495Y0020957D01*
X0244298Y0020494D01*
X0244090Y0020036D01*
X0243871Y0019583D01*
X0243640Y0019135D01*
X0243399Y0018693D01*
X0243148Y0018257D01*
X0242886Y0017828D01*
X0242613Y0017405D01*
X0242330Y0016988D01*
X0242037Y0016579D01*
X0241734Y0016177D01*
X0241422Y0015782D01*
X0241100Y0015395D01*
X0240769Y0015016D01*
X0240428Y0014645D01*
X0240079Y0014283D01*
X0239721Y0013929D01*
X0239354Y0013584D01*
X0238979Y0013248D01*
X0238596Y0012922D01*
X0238206Y0012605D01*
X0237807Y0012297D01*
X0237401Y0011999D01*
X0236989Y0011711D01*
X0236569Y0011434D01*
X0236142Y0011166D01*
X0235710Y0010909D01*
X0235271Y0010663D01*
X0234826Y0010427D01*
X0234375Y0010203D01*
X0233920Y0009989D01*
X0233459Y0009786D01*
X0232993Y0009595D01*
X0232523Y0009415D01*
X0232049Y0009247D01*
X0231570Y0009090D01*
X0231088Y0008945D01*
X0230603Y0008812D01*
X0230114Y0008691D01*
X0229623Y0008581D01*
X0229129Y0008484D01*
X0228633Y0008398D01*
X0228135Y0008325D01*
X0227636Y0008264D01*
X0227135Y0008215D01*
X0226633Y0008178D01*
X0226130Y0008154D01*
X0225627Y0008142D01*
X0225123Y0008142D01*
X0224620Y0008154D01*
X0224117Y0008178D01*
X0223615Y0008215D01*
X0223114Y0008264D01*
X0222615Y0008325D01*
X0222117Y0008398D01*
X0221621Y0008484D01*
X0221127Y0008581D01*
X0220636Y0008691D01*
X0220147Y0008812D01*
X0219662Y0008945D01*
X0219180Y0009090D01*
X0218701Y0009247D01*
X0218227Y0009415D01*
X0217757Y0009595D01*
X0217291Y0009786D01*
X0216830Y0009989D01*
X0216375Y0010203D01*
X0215924Y0010427D01*
X0215479Y0010663D01*
X0215041Y0010909D01*
X0214608Y0011166D01*
X0214181Y0011434D01*
X0213761Y0011711D01*
X0213349Y0011999D01*
X0212943Y0012297D01*
X0212544Y0012605D01*
X0212154Y0012922D01*
X0211771Y0013248D01*
X0211396Y0013584D01*
X0211029Y0013929D01*
X0210671Y0014283D01*
X0210322Y0014645D01*
X0209981Y0015016D01*
X0209650Y0015395D01*
X0209328Y0015782D01*
X0209016Y0016177D01*
X0208713Y0016579D01*
X0208420Y0016988D01*
X0208137Y0017405D01*
X0207864Y0017828D01*
X0207602Y0018257D01*
X0207351Y0018693D01*
X0207110Y0019135D01*
X0206879Y0019583D01*
X0206660Y0020036D01*
X0206452Y0020494D01*
X0206255Y0020957D01*
X0206070Y0021425D01*
X0205896Y0021898D01*
X0205733Y0022374D01*
X0205582Y0022854D01*
X0205443Y0023338D01*
X0205316Y0023825D01*
X0205200Y0024315D01*
X0205097Y0024808D01*
X0205006Y0025303D01*
X0204926Y0025800D01*
X0204859Y0026298D01*
X0204804Y0026799D01*
X0204761Y0027300D01*
X0204731Y0027803D01*
X0204712Y0028306D01*
X0204706Y0028809D01*
X0204706Y0058337D01*
X0197816Y0028809D02*
X0197824Y0029485D01*
X0197849Y0030161D01*
X0197891Y0030836D01*
X0197949Y0031510D01*
X0198023Y0032183D01*
X0198114Y0032853D01*
X0198222Y0033521D01*
X0198346Y0034185D01*
X0198486Y0034847D01*
X0198642Y0035505D01*
X0198814Y0036159D01*
X0199003Y0036809D01*
X0199207Y0037454D01*
X0199427Y0038093D01*
X0199663Y0038727D01*
X0199914Y0039355D01*
X0200180Y0039977D01*
X0200462Y0040592D01*
X0200759Y0041200D01*
X0201070Y0041800D01*
X0201396Y0042393D01*
X0201737Y0042977D01*
X0202092Y0043553D01*
X0202461Y0044120D01*
X0202843Y0044678D01*
X0203239Y0045226D01*
X0203649Y0045764D01*
X0204072Y0046292D01*
X0204507Y0046810D01*
X0204955Y0047316D01*
X0205415Y0047812D01*
X0205888Y0048296D01*
X0206372Y0048769D01*
X0206868Y0049229D01*
X0207374Y0049677D01*
X0207892Y0050112D01*
X0208420Y0050535D01*
X0208958Y0050945D01*
X0209506Y0051341D01*
X0210064Y0051723D01*
X0210631Y0052092D01*
X0211207Y0052447D01*
X0211791Y0052788D01*
X0212384Y0053114D01*
X0212984Y0053425D01*
X0213592Y0053722D01*
X0214207Y0054004D01*
X0214829Y0054270D01*
X0215457Y0054521D01*
X0216091Y0054757D01*
X0216730Y0054977D01*
X0217375Y0055181D01*
X0218025Y0055370D01*
X0218679Y0055542D01*
X0219337Y0055698D01*
X0219999Y0055838D01*
X0220663Y0055962D01*
X0221331Y0056070D01*
X0222001Y0056161D01*
X0222674Y0056235D01*
X0223348Y0056293D01*
X0224023Y0056335D01*
X0224699Y0056360D01*
X0225375Y0056368D01*
X0226051Y0056360D01*
X0226727Y0056335D01*
X0227402Y0056293D01*
X0228076Y0056235D01*
X0228749Y0056161D01*
X0229419Y0056070D01*
X0230087Y0055962D01*
X0230751Y0055838D01*
X0231413Y0055698D01*
X0232071Y0055542D01*
X0232725Y0055370D01*
X0233375Y0055181D01*
X0234020Y0054977D01*
X0234659Y0054757D01*
X0235293Y0054521D01*
X0235921Y0054270D01*
X0236543Y0054004D01*
X0237158Y0053722D01*
X0237766Y0053425D01*
X0238366Y0053114D01*
X0238959Y0052788D01*
X0239543Y0052447D01*
X0240119Y0052092D01*
X0240686Y0051723D01*
X0241244Y0051341D01*
X0241792Y0050945D01*
X0242330Y0050535D01*
X0242858Y0050112D01*
X0243376Y0049677D01*
X0243882Y0049229D01*
X0244378Y0048769D01*
X0244862Y0048296D01*
X0245335Y0047812D01*
X0245795Y0047316D01*
X0246243Y0046810D01*
X0246678Y0046292D01*
X0247101Y0045764D01*
X0247511Y0045226D01*
X0247907Y0044678D01*
X0248289Y0044120D01*
X0248658Y0043553D01*
X0249013Y0042977D01*
X0249354Y0042393D01*
X0249680Y0041800D01*
X0249991Y0041200D01*
X0250288Y0040592D01*
X0250570Y0039977D01*
X0250836Y0039355D01*
X0251087Y0038727D01*
X0251323Y0038093D01*
X0251543Y0037454D01*
X0251747Y0036809D01*
X0251936Y0036159D01*
X0252108Y0035505D01*
X0252264Y0034847D01*
X0252404Y0034185D01*
X0252528Y0033521D01*
X0252636Y0032853D01*
X0252727Y0032183D01*
X0252801Y0031510D01*
X0252859Y0030836D01*
X0252901Y0030161D01*
X0252926Y0029485D01*
X0252934Y0028809D01*
X0252926Y0028133D01*
X0252901Y0027457D01*
X0252859Y0026782D01*
X0252801Y0026108D01*
X0252727Y0025435D01*
X0252636Y0024765D01*
X0252528Y0024097D01*
X0252404Y0023433D01*
X0252264Y0022771D01*
X0252108Y0022113D01*
X0251936Y0021459D01*
X0251747Y0020809D01*
X0251543Y0020164D01*
X0251323Y0019525D01*
X0251087Y0018891D01*
X0250836Y0018263D01*
X0250570Y0017641D01*
X0250288Y0017026D01*
X0249991Y0016418D01*
X0249680Y0015818D01*
X0249354Y0015225D01*
X0249013Y0014641D01*
X0248658Y0014065D01*
X0248289Y0013498D01*
X0247907Y0012940D01*
X0247511Y0012392D01*
X0247101Y0011854D01*
X0246678Y0011326D01*
X0246243Y0010808D01*
X0245795Y0010302D01*
X0245335Y0009806D01*
X0244862Y0009322D01*
X0244378Y0008849D01*
X0243882Y0008389D01*
X0243376Y0007941D01*
X0242858Y0007506D01*
X0242330Y0007083D01*
X0241792Y0006673D01*
X0241244Y0006277D01*
X0240686Y0005895D01*
X0240119Y0005526D01*
X0239543Y0005171D01*
X0238959Y0004830D01*
X0238366Y0004504D01*
X0237766Y0004193D01*
X0237158Y0003896D01*
X0236543Y0003614D01*
X0235921Y0003348D01*
X0235293Y0003097D01*
X0234659Y0002861D01*
X0234020Y0002641D01*
X0233375Y0002437D01*
X0232725Y0002248D01*
X0232071Y0002076D01*
X0231413Y0001920D01*
X0230751Y0001780D01*
X0230087Y0001656D01*
X0229419Y0001548D01*
X0228749Y0001457D01*
X0228076Y0001383D01*
X0227402Y0001325D01*
X0226727Y0001283D01*
X0226051Y0001258D01*
X0225375Y0001250D01*
X0224699Y0001258D01*
X0224023Y0001283D01*
X0223348Y0001325D01*
X0222674Y0001383D01*
X0222001Y0001457D01*
X0221331Y0001548D01*
X0220663Y0001656D01*
X0219999Y0001780D01*
X0219337Y0001920D01*
X0218679Y0002076D01*
X0218025Y0002248D01*
X0217375Y0002437D01*
X0216730Y0002641D01*
X0216091Y0002861D01*
X0215457Y0003097D01*
X0214829Y0003348D01*
X0214207Y0003614D01*
X0213592Y0003896D01*
X0212984Y0004193D01*
X0212384Y0004504D01*
X0211791Y0004830D01*
X0211207Y0005171D01*
X0210631Y0005526D01*
X0210064Y0005895D01*
X0209506Y0006277D01*
X0208958Y0006673D01*
X0208420Y0007083D01*
X0207892Y0007506D01*
X0207374Y0007941D01*
X0206868Y0008389D01*
X0206372Y0008849D01*
X0205888Y0009322D01*
X0205415Y0009806D01*
X0204955Y0010302D01*
X0204507Y0010808D01*
X0204072Y0011326D01*
X0203649Y0011854D01*
X0203239Y0012392D01*
X0202843Y0012940D01*
X0202461Y0013498D01*
X0202092Y0014065D01*
X0201737Y0014641D01*
X0201396Y0015225D01*
X0201070Y0015818D01*
X0200759Y0016418D01*
X0200462Y0017026D01*
X0200180Y0017641D01*
X0199914Y0018263D01*
X0199663Y0018891D01*
X0199427Y0019525D01*
X0199207Y0020164D01*
X0199003Y0020809D01*
X0198814Y0021459D01*
X0198642Y0022113D01*
X0198486Y0022771D01*
X0198346Y0023433D01*
X0198222Y0024097D01*
X0198114Y0024765D01*
X0198023Y0025435D01*
X0197949Y0026108D01*
X0197891Y0026782D01*
X0197849Y0027457D01*
X0197824Y0028133D01*
X0197816Y0028809D01*
X0269706Y0028809D02*
X0269706Y0058337D01*
X0311044Y0058337D01*
X0311044Y0028809D01*
X0311038Y0028306D01*
X0311019Y0027803D01*
X0310989Y0027300D01*
X0310946Y0026799D01*
X0310891Y0026298D01*
X0310824Y0025800D01*
X0310744Y0025303D01*
X0310653Y0024808D01*
X0310550Y0024315D01*
X0310434Y0023825D01*
X0310307Y0023338D01*
X0310168Y0022854D01*
X0310017Y0022374D01*
X0309854Y0021898D01*
X0309680Y0021425D01*
X0309495Y0020957D01*
X0309298Y0020494D01*
X0309090Y0020036D01*
X0308871Y0019583D01*
X0308640Y0019135D01*
X0308399Y0018693D01*
X0308148Y0018257D01*
X0307886Y0017828D01*
X0307613Y0017405D01*
X0307330Y0016988D01*
X0307037Y0016579D01*
X0306734Y0016177D01*
X0306422Y0015782D01*
X0306100Y0015395D01*
X0305769Y0015016D01*
X0305428Y0014645D01*
X0305079Y0014283D01*
X0304721Y0013929D01*
X0304354Y0013584D01*
X0303979Y0013248D01*
X0303596Y0012922D01*
X0303206Y0012605D01*
X0302807Y0012297D01*
X0302401Y0011999D01*
X0301989Y0011711D01*
X0301569Y0011434D01*
X0301142Y0011166D01*
X0300710Y0010909D01*
X0300271Y0010663D01*
X0299826Y0010427D01*
X0299375Y0010203D01*
X0298920Y0009989D01*
X0298459Y0009786D01*
X0297993Y0009595D01*
X0297523Y0009415D01*
X0297049Y0009247D01*
X0296570Y0009090D01*
X0296088Y0008945D01*
X0295603Y0008812D01*
X0295114Y0008691D01*
X0294623Y0008581D01*
X0294129Y0008484D01*
X0293633Y0008398D01*
X0293135Y0008325D01*
X0292636Y0008264D01*
X0292135Y0008215D01*
X0291633Y0008178D01*
X0291130Y0008154D01*
X0290627Y0008142D01*
X0290123Y0008142D01*
X0289620Y0008154D01*
X0289117Y0008178D01*
X0288615Y0008215D01*
X0288114Y0008264D01*
X0287615Y0008325D01*
X0287117Y0008398D01*
X0286621Y0008484D01*
X0286127Y0008581D01*
X0285636Y0008691D01*
X0285147Y0008812D01*
X0284662Y0008945D01*
X0284180Y0009090D01*
X0283701Y0009247D01*
X0283227Y0009415D01*
X0282757Y0009595D01*
X0282291Y0009786D01*
X0281830Y0009989D01*
X0281375Y0010203D01*
X0280924Y0010427D01*
X0280479Y0010663D01*
X0280041Y0010909D01*
X0279608Y0011166D01*
X0279181Y0011434D01*
X0278761Y0011711D01*
X0278349Y0011999D01*
X0277943Y0012297D01*
X0277544Y0012605D01*
X0277154Y0012922D01*
X0276771Y0013248D01*
X0276396Y0013584D01*
X0276029Y0013929D01*
X0275671Y0014283D01*
X0275322Y0014645D01*
X0274981Y0015016D01*
X0274650Y0015395D01*
X0274328Y0015782D01*
X0274016Y0016177D01*
X0273713Y0016579D01*
X0273420Y0016988D01*
X0273137Y0017405D01*
X0272864Y0017828D01*
X0272602Y0018257D01*
X0272351Y0018693D01*
X0272110Y0019135D01*
X0271879Y0019583D01*
X0271660Y0020036D01*
X0271452Y0020494D01*
X0271255Y0020957D01*
X0271070Y0021425D01*
X0270896Y0021898D01*
X0270733Y0022374D01*
X0270582Y0022854D01*
X0270443Y0023338D01*
X0270316Y0023825D01*
X0270200Y0024315D01*
X0270097Y0024808D01*
X0270006Y0025303D01*
X0269926Y0025800D01*
X0269859Y0026298D01*
X0269804Y0026799D01*
X0269761Y0027300D01*
X0269731Y0027803D01*
X0269712Y0028306D01*
X0269706Y0028809D01*
X0262816Y0028809D02*
X0262824Y0029485D01*
X0262849Y0030161D01*
X0262891Y0030836D01*
X0262949Y0031510D01*
X0263023Y0032183D01*
X0263114Y0032853D01*
X0263222Y0033521D01*
X0263346Y0034185D01*
X0263486Y0034847D01*
X0263642Y0035505D01*
X0263814Y0036159D01*
X0264003Y0036809D01*
X0264207Y0037454D01*
X0264427Y0038093D01*
X0264663Y0038727D01*
X0264914Y0039355D01*
X0265180Y0039977D01*
X0265462Y0040592D01*
X0265759Y0041200D01*
X0266070Y0041800D01*
X0266396Y0042393D01*
X0266737Y0042977D01*
X0267092Y0043553D01*
X0267461Y0044120D01*
X0267843Y0044678D01*
X0268239Y0045226D01*
X0268649Y0045764D01*
X0269072Y0046292D01*
X0269507Y0046810D01*
X0269955Y0047316D01*
X0270415Y0047812D01*
X0270888Y0048296D01*
X0271372Y0048769D01*
X0271868Y0049229D01*
X0272374Y0049677D01*
X0272892Y0050112D01*
X0273420Y0050535D01*
X0273958Y0050945D01*
X0274506Y0051341D01*
X0275064Y0051723D01*
X0275631Y0052092D01*
X0276207Y0052447D01*
X0276791Y0052788D01*
X0277384Y0053114D01*
X0277984Y0053425D01*
X0278592Y0053722D01*
X0279207Y0054004D01*
X0279829Y0054270D01*
X0280457Y0054521D01*
X0281091Y0054757D01*
X0281730Y0054977D01*
X0282375Y0055181D01*
X0283025Y0055370D01*
X0283679Y0055542D01*
X0284337Y0055698D01*
X0284999Y0055838D01*
X0285663Y0055962D01*
X0286331Y0056070D01*
X0287001Y0056161D01*
X0287674Y0056235D01*
X0288348Y0056293D01*
X0289023Y0056335D01*
X0289699Y0056360D01*
X0290375Y0056368D01*
X0291051Y0056360D01*
X0291727Y0056335D01*
X0292402Y0056293D01*
X0293076Y0056235D01*
X0293749Y0056161D01*
X0294419Y0056070D01*
X0295087Y0055962D01*
X0295751Y0055838D01*
X0296413Y0055698D01*
X0297071Y0055542D01*
X0297725Y0055370D01*
X0298375Y0055181D01*
X0299020Y0054977D01*
X0299659Y0054757D01*
X0300293Y0054521D01*
X0300921Y0054270D01*
X0301543Y0054004D01*
X0302158Y0053722D01*
X0302766Y0053425D01*
X0303366Y0053114D01*
X0303959Y0052788D01*
X0304543Y0052447D01*
X0305119Y0052092D01*
X0305686Y0051723D01*
X0306244Y0051341D01*
X0306792Y0050945D01*
X0307330Y0050535D01*
X0307858Y0050112D01*
X0308376Y0049677D01*
X0308882Y0049229D01*
X0309378Y0048769D01*
X0309862Y0048296D01*
X0310335Y0047812D01*
X0310795Y0047316D01*
X0311243Y0046810D01*
X0311678Y0046292D01*
X0312101Y0045764D01*
X0312511Y0045226D01*
X0312907Y0044678D01*
X0313289Y0044120D01*
X0313658Y0043553D01*
X0314013Y0042977D01*
X0314354Y0042393D01*
X0314680Y0041800D01*
X0314991Y0041200D01*
X0315288Y0040592D01*
X0315570Y0039977D01*
X0315836Y0039355D01*
X0316087Y0038727D01*
X0316323Y0038093D01*
X0316543Y0037454D01*
X0316747Y0036809D01*
X0316936Y0036159D01*
X0317108Y0035505D01*
X0317264Y0034847D01*
X0317404Y0034185D01*
X0317528Y0033521D01*
X0317636Y0032853D01*
X0317727Y0032183D01*
X0317801Y0031510D01*
X0317859Y0030836D01*
X0317901Y0030161D01*
X0317926Y0029485D01*
X0317934Y0028809D01*
X0317926Y0028133D01*
X0317901Y0027457D01*
X0317859Y0026782D01*
X0317801Y0026108D01*
X0317727Y0025435D01*
X0317636Y0024765D01*
X0317528Y0024097D01*
X0317404Y0023433D01*
X0317264Y0022771D01*
X0317108Y0022113D01*
X0316936Y0021459D01*
X0316747Y0020809D01*
X0316543Y0020164D01*
X0316323Y0019525D01*
X0316087Y0018891D01*
X0315836Y0018263D01*
X0315570Y0017641D01*
X0315288Y0017026D01*
X0314991Y0016418D01*
X0314680Y0015818D01*
X0314354Y0015225D01*
X0314013Y0014641D01*
X0313658Y0014065D01*
X0313289Y0013498D01*
X0312907Y0012940D01*
X0312511Y0012392D01*
X0312101Y0011854D01*
X0311678Y0011326D01*
X0311243Y0010808D01*
X0310795Y0010302D01*
X0310335Y0009806D01*
X0309862Y0009322D01*
X0309378Y0008849D01*
X0308882Y0008389D01*
X0308376Y0007941D01*
X0307858Y0007506D01*
X0307330Y0007083D01*
X0306792Y0006673D01*
X0306244Y0006277D01*
X0305686Y0005895D01*
X0305119Y0005526D01*
X0304543Y0005171D01*
X0303959Y0004830D01*
X0303366Y0004504D01*
X0302766Y0004193D01*
X0302158Y0003896D01*
X0301543Y0003614D01*
X0300921Y0003348D01*
X0300293Y0003097D01*
X0299659Y0002861D01*
X0299020Y0002641D01*
X0298375Y0002437D01*
X0297725Y0002248D01*
X0297071Y0002076D01*
X0296413Y0001920D01*
X0295751Y0001780D01*
X0295087Y0001656D01*
X0294419Y0001548D01*
X0293749Y0001457D01*
X0293076Y0001383D01*
X0292402Y0001325D01*
X0291727Y0001283D01*
X0291051Y0001258D01*
X0290375Y0001250D01*
X0289699Y0001258D01*
X0289023Y0001283D01*
X0288348Y0001325D01*
X0287674Y0001383D01*
X0287001Y0001457D01*
X0286331Y0001548D01*
X0285663Y0001656D01*
X0284999Y0001780D01*
X0284337Y0001920D01*
X0283679Y0002076D01*
X0283025Y0002248D01*
X0282375Y0002437D01*
X0281730Y0002641D01*
X0281091Y0002861D01*
X0280457Y0003097D01*
X0279829Y0003348D01*
X0279207Y0003614D01*
X0278592Y0003896D01*
X0277984Y0004193D01*
X0277384Y0004504D01*
X0276791Y0004830D01*
X0276207Y0005171D01*
X0275631Y0005526D01*
X0275064Y0005895D01*
X0274506Y0006277D01*
X0273958Y0006673D01*
X0273420Y0007083D01*
X0272892Y0007506D01*
X0272374Y0007941D01*
X0271868Y0008389D01*
X0271372Y0008849D01*
X0270888Y0009322D01*
X0270415Y0009806D01*
X0269955Y0010302D01*
X0269507Y0010808D01*
X0269072Y0011326D01*
X0268649Y0011854D01*
X0268239Y0012392D01*
X0267843Y0012940D01*
X0267461Y0013498D01*
X0267092Y0014065D01*
X0266737Y0014641D01*
X0266396Y0015225D01*
X0266070Y0015818D01*
X0265759Y0016418D01*
X0265462Y0017026D01*
X0265180Y0017641D01*
X0264914Y0018263D01*
X0264663Y0018891D01*
X0264427Y0019525D01*
X0264207Y0020164D01*
X0264003Y0020809D01*
X0263814Y0021459D01*
X0263642Y0022113D01*
X0263486Y0022771D01*
X0263346Y0023433D01*
X0263222Y0024097D01*
X0263114Y0024765D01*
X0263023Y0025435D01*
X0262949Y0026108D01*
X0262891Y0026782D01*
X0262849Y0027457D01*
X0262824Y0028133D01*
X0262816Y0028809D01*
X0337999Y0066268D02*
X0337999Y0066902D01*
X0337999Y0066585D02*
X0339583Y0066585D01*
X0339900Y0066268D01*
X0339900Y0065951D01*
X0339583Y0065634D01*
X0339583Y0067844D02*
X0339900Y0068161D01*
X0339900Y0068795D01*
X0339583Y0069111D01*
X0339267Y0069111D01*
X0338950Y0068795D01*
X0338950Y0068478D01*
X0338950Y0068795D02*
X0338633Y0069111D01*
X0338316Y0069111D01*
X0337999Y0068795D01*
X0337999Y0068161D01*
X0338316Y0067844D01*
X0268957Y0185069D02*
X0235493Y0185069D01*
X0235493Y0198848D01*
X0268957Y0198848D01*
X0268957Y0185069D01*
X0258918Y0189006D02*
X0258918Y0194911D01*
X0253013Y0194911D01*
X0251044Y0194911D01*
X0251044Y0189006D01*
X0258918Y0189006D01*
X0253013Y0189006D02*
X0253013Y0194911D01*
X0251044Y0194911D02*
X0245139Y0194911D01*
X0245139Y0189006D01*
X0251044Y0189006D01*
X0228957Y0185069D02*
X0195493Y0185069D01*
X0195493Y0198848D01*
X0228957Y0198848D01*
X0228957Y0185069D01*
X0219312Y0189006D02*
X0213406Y0189006D01*
X0211438Y0189006D01*
X0205532Y0189006D01*
X0205532Y0194911D01*
X0213406Y0194911D01*
X0213406Y0189006D01*
X0211438Y0189006D02*
X0211438Y0194911D01*
X0213406Y0194911D02*
X0219312Y0194911D01*
X0219312Y0189006D01*
X0173050Y0153795D02*
X0172733Y0154111D01*
X0172099Y0154111D01*
X0171782Y0153795D01*
X0171782Y0153478D01*
X0172099Y0152844D01*
X0171148Y0152844D01*
X0171148Y0154111D01*
X0173050Y0153795D02*
X0173050Y0153161D01*
X0172733Y0152844D01*
X0172733Y0151585D02*
X0171148Y0151585D01*
X0171148Y0151268D02*
X0171148Y0151902D01*
X0172733Y0151585D02*
X0173050Y0151268D01*
X0173050Y0150951D01*
X0172733Y0150634D01*
X0097528Y0129610D02*
X0097528Y0129293D01*
X0096260Y0128026D01*
X0096260Y0127709D01*
X0095001Y0128026D02*
X0095001Y0129610D01*
X0094684Y0129610D02*
X0095318Y0129610D01*
X0096260Y0129610D02*
X0097528Y0129610D01*
X0095001Y0128026D02*
X0094684Y0127709D01*
X0094367Y0127709D01*
X0094050Y0128026D01*
X0080800Y0138959D02*
X0066800Y0138959D01*
X0066800Y0144959D01*
X0080800Y0144959D01*
X0080800Y0138959D01*
X0067528Y0129610D02*
X0066894Y0129293D01*
X0066260Y0128659D01*
X0067211Y0128659D01*
X0067528Y0128343D01*
X0067528Y0128026D01*
X0067211Y0127709D01*
X0066577Y0127709D01*
X0066260Y0128026D01*
X0066260Y0128659D01*
X0065318Y0129610D02*
X0064684Y0129610D01*
X0065001Y0129610D02*
X0065001Y0128026D01*
X0064684Y0127709D01*
X0064367Y0127709D01*
X0064050Y0128026D01*
X0039824Y0086919D02*
X0022107Y0086919D01*
X0022107Y0077077D01*
X0020139Y0077077D01*
X0020139Y0073140D01*
X0022107Y0073140D01*
X0022107Y0063297D01*
X0039824Y0063297D01*
X0039824Y0086919D01*
X0057318Y0177642D02*
X0058902Y0177642D01*
X0059219Y0177959D01*
X0059219Y0178593D01*
X0058902Y0178909D01*
X0057318Y0178909D01*
X0057635Y0179852D02*
X0057318Y0180169D01*
X0057318Y0180802D01*
X0057635Y0181119D01*
X0058268Y0180802D02*
X0058268Y0180169D01*
X0057952Y0179852D01*
X0057635Y0179852D01*
X0057001Y0180485D02*
X0059536Y0180485D01*
X0059219Y0180169D02*
X0059219Y0180802D01*
X0058902Y0181119D01*
X0058585Y0181119D01*
X0058268Y0180802D01*
X0058902Y0179852D02*
X0059219Y0180169D01*
X0059219Y0182061D02*
X0059219Y0183329D01*
X0059219Y0182695D02*
X0057318Y0182695D01*
X0057952Y0182061D01*
X0057635Y0184271D02*
X0057318Y0184588D01*
X0057318Y0185222D01*
X0057635Y0185539D01*
X0058902Y0184271D01*
X0059219Y0184588D01*
X0059219Y0185222D01*
X0058902Y0185539D01*
X0057635Y0185539D01*
X0057635Y0184271D02*
X0058902Y0184271D01*
X0065546Y0211293D02*
X0070050Y0211293D01*
X0070050Y0214295D01*
X0070050Y0215897D02*
X0070050Y0218899D01*
X0070050Y0220501D02*
X0070050Y0222753D01*
X0069299Y0223503D01*
X0066297Y0223503D01*
X0065546Y0222753D01*
X0065546Y0220501D01*
X0070050Y0220501D01*
X0067798Y0217398D02*
X0067798Y0215897D01*
X0065546Y0215897D02*
X0065546Y0218899D01*
X0065546Y0215897D02*
X0070050Y0215897D01*
X0070050Y0225105D02*
X0067047Y0228107D01*
X0066297Y0228107D01*
X0065546Y0227357D01*
X0065546Y0225855D01*
X0066297Y0225105D01*
X0070050Y0225105D02*
X0070050Y0228107D01*
X0077068Y0230069D02*
X0110532Y0230069D01*
X0110532Y0243848D01*
X0077068Y0243848D01*
X0077068Y0230069D01*
X0086713Y0234006D02*
X0086713Y0239911D01*
X0092619Y0239911D01*
X0094587Y0239911D01*
X0100493Y0239911D01*
X0100493Y0234006D01*
X0092619Y0234006D01*
X0092619Y0239911D01*
X0094587Y0239911D02*
X0094587Y0234006D01*
X0092619Y0234006D02*
X0086713Y0234006D01*
X0022528Y0226109D02*
X0021260Y0226109D01*
X0021894Y0226109D02*
X0021894Y0228010D01*
X0021260Y0227376D01*
X0020318Y0228010D02*
X0019684Y0228010D01*
X0020001Y0228010D02*
X0020001Y0226426D01*
X0019684Y0226109D01*
X0019367Y0226109D01*
X0019050Y0226426D01*
D15*
X0067565Y0244017D02*
X0067733Y0243924D01*
X0067899Y0243828D01*
X0068063Y0243728D01*
X0068224Y0243623D01*
X0068383Y0243515D01*
X0068539Y0243403D01*
X0068693Y0243287D01*
X0068843Y0243168D01*
X0068991Y0243045D01*
X0069136Y0242919D01*
X0069277Y0242789D01*
X0069416Y0242656D01*
X0069551Y0242519D01*
X0069683Y0242379D01*
X0069811Y0242237D01*
X0069936Y0242091D01*
X0070058Y0241942D01*
X0070176Y0241790D01*
X0070290Y0241636D01*
X0070400Y0241478D01*
X0070507Y0241319D01*
X0070610Y0241156D01*
X0070709Y0240991D01*
X0070804Y0240824D01*
X0070894Y0240655D01*
X0070981Y0240484D01*
X0071064Y0240310D01*
X0071142Y0240135D01*
X0071216Y0239957D01*
X0071286Y0239778D01*
X0071352Y0239598D01*
X0071413Y0239416D01*
X0071470Y0239232D01*
X0071522Y0239047D01*
X0071570Y0238861D01*
X0071614Y0238674D01*
X0071653Y0238486D01*
X0071687Y0238297D01*
X0071717Y0238107D01*
X0071742Y0237917D01*
X0071763Y0237726D01*
X0071779Y0237534D01*
X0071791Y0237342D01*
X0071798Y0237150D01*
X0071800Y0236958D01*
X0059831Y0243905D02*
X0059662Y0243806D01*
X0059496Y0243702D01*
X0059332Y0243595D01*
X0059171Y0243484D01*
X0059013Y0243369D01*
X0058858Y0243250D01*
X0058705Y0243127D01*
X0058556Y0243001D01*
X0058410Y0242871D01*
X0058267Y0242737D01*
X0058127Y0242600D01*
X0057991Y0242460D01*
X0057858Y0242316D01*
X0057729Y0242169D01*
X0057603Y0242019D01*
X0057482Y0241866D01*
X0057363Y0241710D01*
X0057249Y0241551D01*
X0057139Y0241390D01*
X0057033Y0241225D01*
X0056930Y0241059D01*
X0056832Y0240889D01*
X0056738Y0240718D01*
X0056648Y0240544D01*
X0056563Y0240368D01*
X0056481Y0240190D01*
X0056405Y0240010D01*
X0056332Y0239828D01*
X0056264Y0239645D01*
X0056201Y0239460D01*
X0056142Y0239273D01*
X0056088Y0239085D01*
X0056038Y0238896D01*
X0055993Y0238706D01*
X0055953Y0238514D01*
X0055917Y0238322D01*
X0055886Y0238129D01*
X0055860Y0237935D01*
X0055838Y0237740D01*
X0055822Y0237545D01*
X0055810Y0237350D01*
X0055802Y0237154D01*
X0055800Y0236959D01*
X0055802Y0236766D01*
X0055809Y0236573D01*
X0055821Y0236381D01*
X0055837Y0236188D01*
X0055858Y0235996D01*
X0055884Y0235805D01*
X0055914Y0235615D01*
X0055949Y0235425D01*
X0055988Y0235236D01*
X0056032Y0235048D01*
X0056080Y0234861D01*
X0056133Y0234675D01*
X0056190Y0234491D01*
X0056252Y0234308D01*
X0056318Y0234127D01*
X0056389Y0233947D01*
X0056463Y0233769D01*
X0056542Y0233593D01*
X0056626Y0233419D01*
X0056713Y0233247D01*
X0056805Y0233077D01*
X0056901Y0232910D01*
X0057000Y0232744D01*
X0057104Y0232581D01*
X0057211Y0232421D01*
X0057323Y0232264D01*
X0057438Y0232109D01*
X0057557Y0231957D01*
X0057679Y0231808D01*
X0057805Y0231661D01*
X0057935Y0231518D01*
X0058068Y0231378D01*
X0058204Y0231242D01*
X0058344Y0231108D01*
X0058486Y0230979D01*
X0058632Y0230852D01*
X0068922Y0230813D02*
X0069070Y0230940D01*
X0069215Y0231070D01*
X0069356Y0231203D01*
X0069495Y0231340D01*
X0069630Y0231480D01*
X0069761Y0231624D01*
X0069889Y0231771D01*
X0070014Y0231920D01*
X0070135Y0232073D01*
X0070252Y0232228D01*
X0070365Y0232387D01*
X0070474Y0232548D01*
X0070579Y0232712D01*
X0070681Y0232878D01*
X0070778Y0233047D01*
X0070871Y0233217D01*
X0070960Y0233391D01*
X0071045Y0233566D01*
X0071125Y0233743D01*
X0071201Y0233922D01*
X0071273Y0234103D01*
X0071340Y0234286D01*
X0071403Y0234470D01*
X0071461Y0234656D01*
X0071515Y0234843D01*
X0071564Y0235031D01*
X0071609Y0235221D01*
X0071649Y0235411D01*
X0071684Y0235603D01*
X0071715Y0235795D01*
X0071741Y0235988D01*
X0071762Y0236182D01*
X0071779Y0236376D01*
X0071791Y0236570D01*
X0071798Y0236764D01*
X0071800Y0236959D01*
X0105800Y0216959D02*
X0105802Y0216767D01*
X0105809Y0216575D01*
X0105821Y0216383D01*
X0105837Y0216191D01*
X0105858Y0216000D01*
X0105883Y0215810D01*
X0105913Y0215620D01*
X0105947Y0215431D01*
X0105986Y0215243D01*
X0106030Y0215056D01*
X0106078Y0214870D01*
X0106130Y0214685D01*
X0106187Y0214501D01*
X0106248Y0214319D01*
X0106314Y0214139D01*
X0106384Y0213960D01*
X0106458Y0213782D01*
X0106536Y0213607D01*
X0106619Y0213433D01*
X0106706Y0213262D01*
X0106796Y0213093D01*
X0106891Y0212926D01*
X0106990Y0212761D01*
X0107093Y0212598D01*
X0107200Y0212439D01*
X0107310Y0212281D01*
X0107424Y0212127D01*
X0107542Y0211975D01*
X0107664Y0211826D01*
X0107789Y0211680D01*
X0107917Y0211538D01*
X0108049Y0211398D01*
X0108184Y0211261D01*
X0108323Y0211128D01*
X0108464Y0210998D01*
X0108609Y0210872D01*
X0108757Y0210749D01*
X0108907Y0210630D01*
X0109061Y0210514D01*
X0109217Y0210402D01*
X0109376Y0210294D01*
X0109537Y0210189D01*
X0109701Y0210089D01*
X0109867Y0209993D01*
X0110035Y0209900D01*
X0117769Y0210012D02*
X0117938Y0210111D01*
X0118104Y0210215D01*
X0118268Y0210322D01*
X0118429Y0210433D01*
X0118587Y0210548D01*
X0118742Y0210667D01*
X0118895Y0210790D01*
X0119044Y0210916D01*
X0119190Y0211046D01*
X0119333Y0211180D01*
X0119473Y0211317D01*
X0119609Y0211457D01*
X0119742Y0211601D01*
X0119871Y0211748D01*
X0119997Y0211898D01*
X0120118Y0212051D01*
X0120237Y0212207D01*
X0120351Y0212366D01*
X0120461Y0212527D01*
X0120567Y0212692D01*
X0120670Y0212858D01*
X0120768Y0213028D01*
X0120862Y0213199D01*
X0120952Y0213373D01*
X0121037Y0213549D01*
X0121119Y0213727D01*
X0121195Y0213907D01*
X0121268Y0214089D01*
X0121336Y0214272D01*
X0121399Y0214457D01*
X0121458Y0214644D01*
X0121512Y0214832D01*
X0121562Y0215021D01*
X0121607Y0215211D01*
X0121647Y0215403D01*
X0121683Y0215595D01*
X0121714Y0215788D01*
X0121740Y0215982D01*
X0121762Y0216177D01*
X0121778Y0216372D01*
X0121790Y0216567D01*
X0121798Y0216763D01*
X0121800Y0216958D01*
X0121800Y0216959D02*
X0121798Y0217152D01*
X0121791Y0217345D01*
X0121779Y0217537D01*
X0121763Y0217730D01*
X0121742Y0217922D01*
X0121716Y0218113D01*
X0121686Y0218303D01*
X0121651Y0218493D01*
X0121612Y0218682D01*
X0121568Y0218870D01*
X0121520Y0219057D01*
X0121467Y0219243D01*
X0121410Y0219427D01*
X0121348Y0219610D01*
X0121282Y0219791D01*
X0121211Y0219971D01*
X0121137Y0220149D01*
X0121058Y0220325D01*
X0120974Y0220499D01*
X0120887Y0220671D01*
X0120795Y0220841D01*
X0120699Y0221008D01*
X0120600Y0221174D01*
X0120496Y0221337D01*
X0120389Y0221497D01*
X0120277Y0221654D01*
X0120162Y0221809D01*
X0120043Y0221961D01*
X0119921Y0222110D01*
X0119795Y0222257D01*
X0119665Y0222400D01*
X0119532Y0222540D01*
X0119396Y0222676D01*
X0119256Y0222810D01*
X0119114Y0222939D01*
X0118968Y0223066D01*
X0108678Y0223105D02*
X0108530Y0222978D01*
X0108385Y0222848D01*
X0108244Y0222715D01*
X0108105Y0222578D01*
X0107970Y0222438D01*
X0107839Y0222294D01*
X0107711Y0222147D01*
X0107586Y0221998D01*
X0107465Y0221845D01*
X0107348Y0221690D01*
X0107235Y0221531D01*
X0107126Y0221370D01*
X0107021Y0221206D01*
X0106919Y0221040D01*
X0106822Y0220871D01*
X0106729Y0220701D01*
X0106640Y0220527D01*
X0106555Y0220352D01*
X0106475Y0220175D01*
X0106399Y0219996D01*
X0106327Y0219815D01*
X0106260Y0219632D01*
X0106197Y0219448D01*
X0106139Y0219262D01*
X0106085Y0219075D01*
X0106036Y0218887D01*
X0105991Y0218697D01*
X0105951Y0218507D01*
X0105916Y0218315D01*
X0105885Y0218123D01*
X0105859Y0217930D01*
X0105838Y0217736D01*
X0105821Y0217542D01*
X0105809Y0217348D01*
X0105802Y0217154D01*
X0105800Y0216959D01*
X0274194Y0214951D02*
X0274194Y0193967D01*
X0278225Y0193967D01*
X0290975Y0193967D02*
X0298975Y0193967D01*
X0306725Y0193967D02*
X0310725Y0193967D01*
X0318600Y0193967D02*
X0325257Y0193967D01*
X0325257Y0169951D02*
X0286975Y0169951D01*
X0274194Y0164951D02*
X0274194Y0143967D01*
X0278225Y0143967D01*
X0290975Y0143967D02*
X0298975Y0143967D01*
X0306725Y0143967D02*
X0310725Y0143967D01*
X0318600Y0143967D02*
X0325257Y0143967D01*
X0325257Y0219951D02*
X0286975Y0219951D01*
X0197934Y0081998D02*
X0195572Y0081998D01*
X0197934Y0081998D02*
X0197934Y0073533D01*
X0186517Y0073533D02*
X0186517Y0081998D01*
X0188879Y0081998D01*
D16*
X0289867Y0156486D02*
X0289869Y0156604D01*
X0289875Y0156722D01*
X0289885Y0156840D01*
X0289899Y0156957D01*
X0289917Y0157074D01*
X0289939Y0157191D01*
X0289964Y0157306D01*
X0289994Y0157420D01*
X0290028Y0157534D01*
X0290065Y0157646D01*
X0290106Y0157757D01*
X0290151Y0157866D01*
X0290199Y0157974D01*
X0290251Y0158080D01*
X0290307Y0158185D01*
X0290366Y0158287D01*
X0290428Y0158387D01*
X0290494Y0158485D01*
X0290563Y0158581D01*
X0290636Y0158675D01*
X0290711Y0158766D01*
X0290790Y0158854D01*
X0290871Y0158940D01*
X0290956Y0159023D01*
X0291043Y0159103D01*
X0291132Y0159180D01*
X0291225Y0159254D01*
X0291319Y0159324D01*
X0291416Y0159392D01*
X0291516Y0159456D01*
X0291617Y0159517D01*
X0291720Y0159574D01*
X0291826Y0159628D01*
X0291933Y0159679D01*
X0292041Y0159725D01*
X0292151Y0159768D01*
X0292263Y0159807D01*
X0292376Y0159843D01*
X0292490Y0159874D01*
X0292605Y0159902D01*
X0292720Y0159926D01*
X0292837Y0159946D01*
X0292954Y0159962D01*
X0293072Y0159974D01*
X0293190Y0159982D01*
X0293308Y0159986D01*
X0293426Y0159986D01*
X0293544Y0159982D01*
X0293662Y0159974D01*
X0293780Y0159962D01*
X0293897Y0159946D01*
X0294014Y0159926D01*
X0294129Y0159902D01*
X0294244Y0159874D01*
X0294358Y0159843D01*
X0294471Y0159807D01*
X0294583Y0159768D01*
X0294693Y0159725D01*
X0294801Y0159679D01*
X0294908Y0159628D01*
X0295014Y0159574D01*
X0295117Y0159517D01*
X0295218Y0159456D01*
X0295318Y0159392D01*
X0295415Y0159324D01*
X0295509Y0159254D01*
X0295602Y0159180D01*
X0295691Y0159103D01*
X0295778Y0159023D01*
X0295863Y0158940D01*
X0295944Y0158854D01*
X0296023Y0158766D01*
X0296098Y0158675D01*
X0296171Y0158581D01*
X0296240Y0158485D01*
X0296306Y0158387D01*
X0296368Y0158287D01*
X0296427Y0158185D01*
X0296483Y0158080D01*
X0296535Y0157974D01*
X0296583Y0157866D01*
X0296628Y0157757D01*
X0296669Y0157646D01*
X0296706Y0157534D01*
X0296740Y0157420D01*
X0296770Y0157306D01*
X0296795Y0157191D01*
X0296817Y0157074D01*
X0296835Y0156957D01*
X0296849Y0156840D01*
X0296859Y0156722D01*
X0296865Y0156604D01*
X0296867Y0156486D01*
X0296865Y0156368D01*
X0296859Y0156250D01*
X0296849Y0156132D01*
X0296835Y0156015D01*
X0296817Y0155898D01*
X0296795Y0155781D01*
X0296770Y0155666D01*
X0296740Y0155552D01*
X0296706Y0155438D01*
X0296669Y0155326D01*
X0296628Y0155215D01*
X0296583Y0155106D01*
X0296535Y0154998D01*
X0296483Y0154892D01*
X0296427Y0154787D01*
X0296368Y0154685D01*
X0296306Y0154585D01*
X0296240Y0154487D01*
X0296171Y0154391D01*
X0296098Y0154297D01*
X0296023Y0154206D01*
X0295944Y0154118D01*
X0295863Y0154032D01*
X0295778Y0153949D01*
X0295691Y0153869D01*
X0295602Y0153792D01*
X0295509Y0153718D01*
X0295415Y0153648D01*
X0295318Y0153580D01*
X0295218Y0153516D01*
X0295117Y0153455D01*
X0295014Y0153398D01*
X0294908Y0153344D01*
X0294801Y0153293D01*
X0294693Y0153247D01*
X0294583Y0153204D01*
X0294471Y0153165D01*
X0294358Y0153129D01*
X0294244Y0153098D01*
X0294129Y0153070D01*
X0294014Y0153046D01*
X0293897Y0153026D01*
X0293780Y0153010D01*
X0293662Y0152998D01*
X0293544Y0152990D01*
X0293426Y0152986D01*
X0293308Y0152986D01*
X0293190Y0152990D01*
X0293072Y0152998D01*
X0292954Y0153010D01*
X0292837Y0153026D01*
X0292720Y0153046D01*
X0292605Y0153070D01*
X0292490Y0153098D01*
X0292376Y0153129D01*
X0292263Y0153165D01*
X0292151Y0153204D01*
X0292041Y0153247D01*
X0291933Y0153293D01*
X0291826Y0153344D01*
X0291720Y0153398D01*
X0291617Y0153455D01*
X0291516Y0153516D01*
X0291416Y0153580D01*
X0291319Y0153648D01*
X0291225Y0153718D01*
X0291132Y0153792D01*
X0291043Y0153869D01*
X0290956Y0153949D01*
X0290871Y0154032D01*
X0290790Y0154118D01*
X0290711Y0154206D01*
X0290636Y0154297D01*
X0290563Y0154391D01*
X0290494Y0154487D01*
X0290428Y0154585D01*
X0290366Y0154685D01*
X0290307Y0154787D01*
X0290251Y0154892D01*
X0290199Y0154998D01*
X0290151Y0155106D01*
X0290106Y0155215D01*
X0290065Y0155326D01*
X0290028Y0155438D01*
X0289994Y0155552D01*
X0289964Y0155666D01*
X0289939Y0155781D01*
X0289917Y0155898D01*
X0289899Y0156015D01*
X0289885Y0156132D01*
X0289875Y0156250D01*
X0289869Y0156368D01*
X0289867Y0156486D01*
X0317426Y0156486D02*
X0317428Y0156604D01*
X0317434Y0156722D01*
X0317444Y0156840D01*
X0317458Y0156957D01*
X0317476Y0157074D01*
X0317498Y0157191D01*
X0317523Y0157306D01*
X0317553Y0157420D01*
X0317587Y0157534D01*
X0317624Y0157646D01*
X0317665Y0157757D01*
X0317710Y0157866D01*
X0317758Y0157974D01*
X0317810Y0158080D01*
X0317866Y0158185D01*
X0317925Y0158287D01*
X0317987Y0158387D01*
X0318053Y0158485D01*
X0318122Y0158581D01*
X0318195Y0158675D01*
X0318270Y0158766D01*
X0318349Y0158854D01*
X0318430Y0158940D01*
X0318515Y0159023D01*
X0318602Y0159103D01*
X0318691Y0159180D01*
X0318784Y0159254D01*
X0318878Y0159324D01*
X0318975Y0159392D01*
X0319075Y0159456D01*
X0319176Y0159517D01*
X0319279Y0159574D01*
X0319385Y0159628D01*
X0319492Y0159679D01*
X0319600Y0159725D01*
X0319710Y0159768D01*
X0319822Y0159807D01*
X0319935Y0159843D01*
X0320049Y0159874D01*
X0320164Y0159902D01*
X0320279Y0159926D01*
X0320396Y0159946D01*
X0320513Y0159962D01*
X0320631Y0159974D01*
X0320749Y0159982D01*
X0320867Y0159986D01*
X0320985Y0159986D01*
X0321103Y0159982D01*
X0321221Y0159974D01*
X0321339Y0159962D01*
X0321456Y0159946D01*
X0321573Y0159926D01*
X0321688Y0159902D01*
X0321803Y0159874D01*
X0321917Y0159843D01*
X0322030Y0159807D01*
X0322142Y0159768D01*
X0322252Y0159725D01*
X0322360Y0159679D01*
X0322467Y0159628D01*
X0322573Y0159574D01*
X0322676Y0159517D01*
X0322777Y0159456D01*
X0322877Y0159392D01*
X0322974Y0159324D01*
X0323068Y0159254D01*
X0323161Y0159180D01*
X0323250Y0159103D01*
X0323337Y0159023D01*
X0323422Y0158940D01*
X0323503Y0158854D01*
X0323582Y0158766D01*
X0323657Y0158675D01*
X0323730Y0158581D01*
X0323799Y0158485D01*
X0323865Y0158387D01*
X0323927Y0158287D01*
X0323986Y0158185D01*
X0324042Y0158080D01*
X0324094Y0157974D01*
X0324142Y0157866D01*
X0324187Y0157757D01*
X0324228Y0157646D01*
X0324265Y0157534D01*
X0324299Y0157420D01*
X0324329Y0157306D01*
X0324354Y0157191D01*
X0324376Y0157074D01*
X0324394Y0156957D01*
X0324408Y0156840D01*
X0324418Y0156722D01*
X0324424Y0156604D01*
X0324426Y0156486D01*
X0324424Y0156368D01*
X0324418Y0156250D01*
X0324408Y0156132D01*
X0324394Y0156015D01*
X0324376Y0155898D01*
X0324354Y0155781D01*
X0324329Y0155666D01*
X0324299Y0155552D01*
X0324265Y0155438D01*
X0324228Y0155326D01*
X0324187Y0155215D01*
X0324142Y0155106D01*
X0324094Y0154998D01*
X0324042Y0154892D01*
X0323986Y0154787D01*
X0323927Y0154685D01*
X0323865Y0154585D01*
X0323799Y0154487D01*
X0323730Y0154391D01*
X0323657Y0154297D01*
X0323582Y0154206D01*
X0323503Y0154118D01*
X0323422Y0154032D01*
X0323337Y0153949D01*
X0323250Y0153869D01*
X0323161Y0153792D01*
X0323068Y0153718D01*
X0322974Y0153648D01*
X0322877Y0153580D01*
X0322777Y0153516D01*
X0322676Y0153455D01*
X0322573Y0153398D01*
X0322467Y0153344D01*
X0322360Y0153293D01*
X0322252Y0153247D01*
X0322142Y0153204D01*
X0322030Y0153165D01*
X0321917Y0153129D01*
X0321803Y0153098D01*
X0321688Y0153070D01*
X0321573Y0153046D01*
X0321456Y0153026D01*
X0321339Y0153010D01*
X0321221Y0152998D01*
X0321103Y0152990D01*
X0320985Y0152986D01*
X0320867Y0152986D01*
X0320749Y0152990D01*
X0320631Y0152998D01*
X0320513Y0153010D01*
X0320396Y0153026D01*
X0320279Y0153046D01*
X0320164Y0153070D01*
X0320049Y0153098D01*
X0319935Y0153129D01*
X0319822Y0153165D01*
X0319710Y0153204D01*
X0319600Y0153247D01*
X0319492Y0153293D01*
X0319385Y0153344D01*
X0319279Y0153398D01*
X0319176Y0153455D01*
X0319075Y0153516D01*
X0318975Y0153580D01*
X0318878Y0153648D01*
X0318784Y0153718D01*
X0318691Y0153792D01*
X0318602Y0153869D01*
X0318515Y0153949D01*
X0318430Y0154032D01*
X0318349Y0154118D01*
X0318270Y0154206D01*
X0318195Y0154297D01*
X0318122Y0154391D01*
X0318053Y0154487D01*
X0317987Y0154585D01*
X0317925Y0154685D01*
X0317866Y0154787D01*
X0317810Y0154892D01*
X0317758Y0154998D01*
X0317710Y0155106D01*
X0317665Y0155215D01*
X0317624Y0155326D01*
X0317587Y0155438D01*
X0317553Y0155552D01*
X0317523Y0155666D01*
X0317498Y0155781D01*
X0317476Y0155898D01*
X0317458Y0156015D01*
X0317444Y0156132D01*
X0317434Y0156250D01*
X0317428Y0156368D01*
X0317426Y0156486D01*
X0263839Y0191959D02*
X0263841Y0192043D01*
X0263847Y0192126D01*
X0263857Y0192209D01*
X0263871Y0192292D01*
X0263888Y0192374D01*
X0263910Y0192455D01*
X0263935Y0192534D01*
X0263964Y0192613D01*
X0263997Y0192690D01*
X0264033Y0192765D01*
X0264073Y0192839D01*
X0264116Y0192911D01*
X0264163Y0192980D01*
X0264213Y0193047D01*
X0264266Y0193112D01*
X0264322Y0193174D01*
X0264380Y0193234D01*
X0264442Y0193291D01*
X0264506Y0193344D01*
X0264573Y0193395D01*
X0264642Y0193442D01*
X0264713Y0193487D01*
X0264786Y0193527D01*
X0264861Y0193564D01*
X0264938Y0193598D01*
X0265016Y0193628D01*
X0265095Y0193654D01*
X0265176Y0193677D01*
X0265258Y0193695D01*
X0265340Y0193710D01*
X0265423Y0193721D01*
X0265506Y0193728D01*
X0265590Y0193731D01*
X0265674Y0193730D01*
X0265757Y0193725D01*
X0265841Y0193716D01*
X0265923Y0193703D01*
X0266005Y0193687D01*
X0266086Y0193666D01*
X0266167Y0193642D01*
X0266245Y0193614D01*
X0266323Y0193582D01*
X0266399Y0193546D01*
X0266473Y0193507D01*
X0266545Y0193465D01*
X0266615Y0193419D01*
X0266683Y0193370D01*
X0266748Y0193318D01*
X0266811Y0193263D01*
X0266871Y0193205D01*
X0266929Y0193144D01*
X0266983Y0193080D01*
X0267035Y0193014D01*
X0267083Y0192946D01*
X0267128Y0192875D01*
X0267169Y0192802D01*
X0267208Y0192728D01*
X0267242Y0192652D01*
X0267273Y0192574D01*
X0267300Y0192495D01*
X0267324Y0192414D01*
X0267343Y0192333D01*
X0267359Y0192251D01*
X0267371Y0192168D01*
X0267379Y0192084D01*
X0267383Y0192001D01*
X0267383Y0191917D01*
X0267379Y0191834D01*
X0267371Y0191750D01*
X0267359Y0191667D01*
X0267343Y0191585D01*
X0267324Y0191504D01*
X0267300Y0191423D01*
X0267273Y0191344D01*
X0267242Y0191266D01*
X0267208Y0191190D01*
X0267169Y0191116D01*
X0267128Y0191043D01*
X0267083Y0190972D01*
X0267035Y0190904D01*
X0266983Y0190838D01*
X0266929Y0190774D01*
X0266871Y0190713D01*
X0266811Y0190655D01*
X0266748Y0190600D01*
X0266683Y0190548D01*
X0266615Y0190499D01*
X0266545Y0190453D01*
X0266473Y0190411D01*
X0266399Y0190372D01*
X0266323Y0190336D01*
X0266245Y0190304D01*
X0266167Y0190276D01*
X0266086Y0190252D01*
X0266005Y0190231D01*
X0265923Y0190215D01*
X0265841Y0190202D01*
X0265757Y0190193D01*
X0265674Y0190188D01*
X0265590Y0190187D01*
X0265506Y0190190D01*
X0265423Y0190197D01*
X0265340Y0190208D01*
X0265258Y0190223D01*
X0265176Y0190241D01*
X0265095Y0190264D01*
X0265016Y0190290D01*
X0264938Y0190320D01*
X0264861Y0190354D01*
X0264786Y0190391D01*
X0264713Y0190431D01*
X0264642Y0190476D01*
X0264573Y0190523D01*
X0264506Y0190574D01*
X0264442Y0190627D01*
X0264380Y0190684D01*
X0264322Y0190744D01*
X0264266Y0190806D01*
X0264213Y0190871D01*
X0264163Y0190938D01*
X0264116Y0191007D01*
X0264073Y0191079D01*
X0264033Y0191153D01*
X0263997Y0191228D01*
X0263964Y0191305D01*
X0263935Y0191384D01*
X0263910Y0191463D01*
X0263888Y0191544D01*
X0263871Y0191626D01*
X0263857Y0191709D01*
X0263847Y0191792D01*
X0263841Y0191875D01*
X0263839Y0191959D01*
X0237067Y0191959D02*
X0237069Y0192043D01*
X0237075Y0192126D01*
X0237085Y0192209D01*
X0237099Y0192292D01*
X0237116Y0192374D01*
X0237138Y0192455D01*
X0237163Y0192534D01*
X0237192Y0192613D01*
X0237225Y0192690D01*
X0237261Y0192765D01*
X0237301Y0192839D01*
X0237344Y0192911D01*
X0237391Y0192980D01*
X0237441Y0193047D01*
X0237494Y0193112D01*
X0237550Y0193174D01*
X0237608Y0193234D01*
X0237670Y0193291D01*
X0237734Y0193344D01*
X0237801Y0193395D01*
X0237870Y0193442D01*
X0237941Y0193487D01*
X0238014Y0193527D01*
X0238089Y0193564D01*
X0238166Y0193598D01*
X0238244Y0193628D01*
X0238323Y0193654D01*
X0238404Y0193677D01*
X0238486Y0193695D01*
X0238568Y0193710D01*
X0238651Y0193721D01*
X0238734Y0193728D01*
X0238818Y0193731D01*
X0238902Y0193730D01*
X0238985Y0193725D01*
X0239069Y0193716D01*
X0239151Y0193703D01*
X0239233Y0193687D01*
X0239314Y0193666D01*
X0239395Y0193642D01*
X0239473Y0193614D01*
X0239551Y0193582D01*
X0239627Y0193546D01*
X0239701Y0193507D01*
X0239773Y0193465D01*
X0239843Y0193419D01*
X0239911Y0193370D01*
X0239976Y0193318D01*
X0240039Y0193263D01*
X0240099Y0193205D01*
X0240157Y0193144D01*
X0240211Y0193080D01*
X0240263Y0193014D01*
X0240311Y0192946D01*
X0240356Y0192875D01*
X0240397Y0192802D01*
X0240436Y0192728D01*
X0240470Y0192652D01*
X0240501Y0192574D01*
X0240528Y0192495D01*
X0240552Y0192414D01*
X0240571Y0192333D01*
X0240587Y0192251D01*
X0240599Y0192168D01*
X0240607Y0192084D01*
X0240611Y0192001D01*
X0240611Y0191917D01*
X0240607Y0191834D01*
X0240599Y0191750D01*
X0240587Y0191667D01*
X0240571Y0191585D01*
X0240552Y0191504D01*
X0240528Y0191423D01*
X0240501Y0191344D01*
X0240470Y0191266D01*
X0240436Y0191190D01*
X0240397Y0191116D01*
X0240356Y0191043D01*
X0240311Y0190972D01*
X0240263Y0190904D01*
X0240211Y0190838D01*
X0240157Y0190774D01*
X0240099Y0190713D01*
X0240039Y0190655D01*
X0239976Y0190600D01*
X0239911Y0190548D01*
X0239843Y0190499D01*
X0239773Y0190453D01*
X0239701Y0190411D01*
X0239627Y0190372D01*
X0239551Y0190336D01*
X0239473Y0190304D01*
X0239395Y0190276D01*
X0239314Y0190252D01*
X0239233Y0190231D01*
X0239151Y0190215D01*
X0239069Y0190202D01*
X0238985Y0190193D01*
X0238902Y0190188D01*
X0238818Y0190187D01*
X0238734Y0190190D01*
X0238651Y0190197D01*
X0238568Y0190208D01*
X0238486Y0190223D01*
X0238404Y0190241D01*
X0238323Y0190264D01*
X0238244Y0190290D01*
X0238166Y0190320D01*
X0238089Y0190354D01*
X0238014Y0190391D01*
X0237941Y0190431D01*
X0237870Y0190476D01*
X0237801Y0190523D01*
X0237734Y0190574D01*
X0237670Y0190627D01*
X0237608Y0190684D01*
X0237550Y0190744D01*
X0237494Y0190806D01*
X0237441Y0190871D01*
X0237391Y0190938D01*
X0237344Y0191007D01*
X0237301Y0191079D01*
X0237261Y0191153D01*
X0237225Y0191228D01*
X0237192Y0191305D01*
X0237163Y0191384D01*
X0237138Y0191463D01*
X0237116Y0191544D01*
X0237099Y0191626D01*
X0237085Y0191709D01*
X0237075Y0191792D01*
X0237069Y0191875D01*
X0237067Y0191959D01*
X0223839Y0191959D02*
X0223841Y0192043D01*
X0223847Y0192126D01*
X0223857Y0192209D01*
X0223871Y0192292D01*
X0223888Y0192374D01*
X0223910Y0192455D01*
X0223935Y0192534D01*
X0223964Y0192613D01*
X0223997Y0192690D01*
X0224033Y0192765D01*
X0224073Y0192839D01*
X0224116Y0192911D01*
X0224163Y0192980D01*
X0224213Y0193047D01*
X0224266Y0193112D01*
X0224322Y0193174D01*
X0224380Y0193234D01*
X0224442Y0193291D01*
X0224506Y0193344D01*
X0224573Y0193395D01*
X0224642Y0193442D01*
X0224713Y0193487D01*
X0224786Y0193527D01*
X0224861Y0193564D01*
X0224938Y0193598D01*
X0225016Y0193628D01*
X0225095Y0193654D01*
X0225176Y0193677D01*
X0225258Y0193695D01*
X0225340Y0193710D01*
X0225423Y0193721D01*
X0225506Y0193728D01*
X0225590Y0193731D01*
X0225674Y0193730D01*
X0225757Y0193725D01*
X0225841Y0193716D01*
X0225923Y0193703D01*
X0226005Y0193687D01*
X0226086Y0193666D01*
X0226167Y0193642D01*
X0226245Y0193614D01*
X0226323Y0193582D01*
X0226399Y0193546D01*
X0226473Y0193507D01*
X0226545Y0193465D01*
X0226615Y0193419D01*
X0226683Y0193370D01*
X0226748Y0193318D01*
X0226811Y0193263D01*
X0226871Y0193205D01*
X0226929Y0193144D01*
X0226983Y0193080D01*
X0227035Y0193014D01*
X0227083Y0192946D01*
X0227128Y0192875D01*
X0227169Y0192802D01*
X0227208Y0192728D01*
X0227242Y0192652D01*
X0227273Y0192574D01*
X0227300Y0192495D01*
X0227324Y0192414D01*
X0227343Y0192333D01*
X0227359Y0192251D01*
X0227371Y0192168D01*
X0227379Y0192084D01*
X0227383Y0192001D01*
X0227383Y0191917D01*
X0227379Y0191834D01*
X0227371Y0191750D01*
X0227359Y0191667D01*
X0227343Y0191585D01*
X0227324Y0191504D01*
X0227300Y0191423D01*
X0227273Y0191344D01*
X0227242Y0191266D01*
X0227208Y0191190D01*
X0227169Y0191116D01*
X0227128Y0191043D01*
X0227083Y0190972D01*
X0227035Y0190904D01*
X0226983Y0190838D01*
X0226929Y0190774D01*
X0226871Y0190713D01*
X0226811Y0190655D01*
X0226748Y0190600D01*
X0226683Y0190548D01*
X0226615Y0190499D01*
X0226545Y0190453D01*
X0226473Y0190411D01*
X0226399Y0190372D01*
X0226323Y0190336D01*
X0226245Y0190304D01*
X0226167Y0190276D01*
X0226086Y0190252D01*
X0226005Y0190231D01*
X0225923Y0190215D01*
X0225841Y0190202D01*
X0225757Y0190193D01*
X0225674Y0190188D01*
X0225590Y0190187D01*
X0225506Y0190190D01*
X0225423Y0190197D01*
X0225340Y0190208D01*
X0225258Y0190223D01*
X0225176Y0190241D01*
X0225095Y0190264D01*
X0225016Y0190290D01*
X0224938Y0190320D01*
X0224861Y0190354D01*
X0224786Y0190391D01*
X0224713Y0190431D01*
X0224642Y0190476D01*
X0224573Y0190523D01*
X0224506Y0190574D01*
X0224442Y0190627D01*
X0224380Y0190684D01*
X0224322Y0190744D01*
X0224266Y0190806D01*
X0224213Y0190871D01*
X0224163Y0190938D01*
X0224116Y0191007D01*
X0224073Y0191079D01*
X0224033Y0191153D01*
X0223997Y0191228D01*
X0223964Y0191305D01*
X0223935Y0191384D01*
X0223910Y0191463D01*
X0223888Y0191544D01*
X0223871Y0191626D01*
X0223857Y0191709D01*
X0223847Y0191792D01*
X0223841Y0191875D01*
X0223839Y0191959D01*
X0197067Y0191959D02*
X0197069Y0192043D01*
X0197075Y0192126D01*
X0197085Y0192209D01*
X0197099Y0192292D01*
X0197116Y0192374D01*
X0197138Y0192455D01*
X0197163Y0192534D01*
X0197192Y0192613D01*
X0197225Y0192690D01*
X0197261Y0192765D01*
X0197301Y0192839D01*
X0197344Y0192911D01*
X0197391Y0192980D01*
X0197441Y0193047D01*
X0197494Y0193112D01*
X0197550Y0193174D01*
X0197608Y0193234D01*
X0197670Y0193291D01*
X0197734Y0193344D01*
X0197801Y0193395D01*
X0197870Y0193442D01*
X0197941Y0193487D01*
X0198014Y0193527D01*
X0198089Y0193564D01*
X0198166Y0193598D01*
X0198244Y0193628D01*
X0198323Y0193654D01*
X0198404Y0193677D01*
X0198486Y0193695D01*
X0198568Y0193710D01*
X0198651Y0193721D01*
X0198734Y0193728D01*
X0198818Y0193731D01*
X0198902Y0193730D01*
X0198985Y0193725D01*
X0199069Y0193716D01*
X0199151Y0193703D01*
X0199233Y0193687D01*
X0199314Y0193666D01*
X0199395Y0193642D01*
X0199473Y0193614D01*
X0199551Y0193582D01*
X0199627Y0193546D01*
X0199701Y0193507D01*
X0199773Y0193465D01*
X0199843Y0193419D01*
X0199911Y0193370D01*
X0199976Y0193318D01*
X0200039Y0193263D01*
X0200099Y0193205D01*
X0200157Y0193144D01*
X0200211Y0193080D01*
X0200263Y0193014D01*
X0200311Y0192946D01*
X0200356Y0192875D01*
X0200397Y0192802D01*
X0200436Y0192728D01*
X0200470Y0192652D01*
X0200501Y0192574D01*
X0200528Y0192495D01*
X0200552Y0192414D01*
X0200571Y0192333D01*
X0200587Y0192251D01*
X0200599Y0192168D01*
X0200607Y0192084D01*
X0200611Y0192001D01*
X0200611Y0191917D01*
X0200607Y0191834D01*
X0200599Y0191750D01*
X0200587Y0191667D01*
X0200571Y0191585D01*
X0200552Y0191504D01*
X0200528Y0191423D01*
X0200501Y0191344D01*
X0200470Y0191266D01*
X0200436Y0191190D01*
X0200397Y0191116D01*
X0200356Y0191043D01*
X0200311Y0190972D01*
X0200263Y0190904D01*
X0200211Y0190838D01*
X0200157Y0190774D01*
X0200099Y0190713D01*
X0200039Y0190655D01*
X0199976Y0190600D01*
X0199911Y0190548D01*
X0199843Y0190499D01*
X0199773Y0190453D01*
X0199701Y0190411D01*
X0199627Y0190372D01*
X0199551Y0190336D01*
X0199473Y0190304D01*
X0199395Y0190276D01*
X0199314Y0190252D01*
X0199233Y0190231D01*
X0199151Y0190215D01*
X0199069Y0190202D01*
X0198985Y0190193D01*
X0198902Y0190188D01*
X0198818Y0190187D01*
X0198734Y0190190D01*
X0198651Y0190197D01*
X0198568Y0190208D01*
X0198486Y0190223D01*
X0198404Y0190241D01*
X0198323Y0190264D01*
X0198244Y0190290D01*
X0198166Y0190320D01*
X0198089Y0190354D01*
X0198014Y0190391D01*
X0197941Y0190431D01*
X0197870Y0190476D01*
X0197801Y0190523D01*
X0197734Y0190574D01*
X0197670Y0190627D01*
X0197608Y0190684D01*
X0197550Y0190744D01*
X0197494Y0190806D01*
X0197441Y0190871D01*
X0197391Y0190938D01*
X0197344Y0191007D01*
X0197301Y0191079D01*
X0197261Y0191153D01*
X0197225Y0191228D01*
X0197192Y0191305D01*
X0197163Y0191384D01*
X0197138Y0191463D01*
X0197116Y0191544D01*
X0197099Y0191626D01*
X0197085Y0191709D01*
X0197075Y0191792D01*
X0197069Y0191875D01*
X0197067Y0191959D01*
X0105414Y0236959D02*
X0105416Y0237043D01*
X0105422Y0237126D01*
X0105432Y0237209D01*
X0105446Y0237292D01*
X0105463Y0237374D01*
X0105485Y0237455D01*
X0105510Y0237534D01*
X0105539Y0237613D01*
X0105572Y0237690D01*
X0105608Y0237765D01*
X0105648Y0237839D01*
X0105691Y0237911D01*
X0105738Y0237980D01*
X0105788Y0238047D01*
X0105841Y0238112D01*
X0105897Y0238174D01*
X0105955Y0238234D01*
X0106017Y0238291D01*
X0106081Y0238344D01*
X0106148Y0238395D01*
X0106217Y0238442D01*
X0106288Y0238487D01*
X0106361Y0238527D01*
X0106436Y0238564D01*
X0106513Y0238598D01*
X0106591Y0238628D01*
X0106670Y0238654D01*
X0106751Y0238677D01*
X0106833Y0238695D01*
X0106915Y0238710D01*
X0106998Y0238721D01*
X0107081Y0238728D01*
X0107165Y0238731D01*
X0107249Y0238730D01*
X0107332Y0238725D01*
X0107416Y0238716D01*
X0107498Y0238703D01*
X0107580Y0238687D01*
X0107661Y0238666D01*
X0107742Y0238642D01*
X0107820Y0238614D01*
X0107898Y0238582D01*
X0107974Y0238546D01*
X0108048Y0238507D01*
X0108120Y0238465D01*
X0108190Y0238419D01*
X0108258Y0238370D01*
X0108323Y0238318D01*
X0108386Y0238263D01*
X0108446Y0238205D01*
X0108504Y0238144D01*
X0108558Y0238080D01*
X0108610Y0238014D01*
X0108658Y0237946D01*
X0108703Y0237875D01*
X0108744Y0237802D01*
X0108783Y0237728D01*
X0108817Y0237652D01*
X0108848Y0237574D01*
X0108875Y0237495D01*
X0108899Y0237414D01*
X0108918Y0237333D01*
X0108934Y0237251D01*
X0108946Y0237168D01*
X0108954Y0237084D01*
X0108958Y0237001D01*
X0108958Y0236917D01*
X0108954Y0236834D01*
X0108946Y0236750D01*
X0108934Y0236667D01*
X0108918Y0236585D01*
X0108899Y0236504D01*
X0108875Y0236423D01*
X0108848Y0236344D01*
X0108817Y0236266D01*
X0108783Y0236190D01*
X0108744Y0236116D01*
X0108703Y0236043D01*
X0108658Y0235972D01*
X0108610Y0235904D01*
X0108558Y0235838D01*
X0108504Y0235774D01*
X0108446Y0235713D01*
X0108386Y0235655D01*
X0108323Y0235600D01*
X0108258Y0235548D01*
X0108190Y0235499D01*
X0108120Y0235453D01*
X0108048Y0235411D01*
X0107974Y0235372D01*
X0107898Y0235336D01*
X0107820Y0235304D01*
X0107742Y0235276D01*
X0107661Y0235252D01*
X0107580Y0235231D01*
X0107498Y0235215D01*
X0107416Y0235202D01*
X0107332Y0235193D01*
X0107249Y0235188D01*
X0107165Y0235187D01*
X0107081Y0235190D01*
X0106998Y0235197D01*
X0106915Y0235208D01*
X0106833Y0235223D01*
X0106751Y0235241D01*
X0106670Y0235264D01*
X0106591Y0235290D01*
X0106513Y0235320D01*
X0106436Y0235354D01*
X0106361Y0235391D01*
X0106288Y0235431D01*
X0106217Y0235476D01*
X0106148Y0235523D01*
X0106081Y0235574D01*
X0106017Y0235627D01*
X0105955Y0235684D01*
X0105897Y0235744D01*
X0105841Y0235806D01*
X0105788Y0235871D01*
X0105738Y0235938D01*
X0105691Y0236007D01*
X0105648Y0236079D01*
X0105608Y0236153D01*
X0105572Y0236228D01*
X0105539Y0236305D01*
X0105510Y0236384D01*
X0105485Y0236463D01*
X0105463Y0236544D01*
X0105446Y0236626D01*
X0105432Y0236709D01*
X0105422Y0236792D01*
X0105416Y0236875D01*
X0105414Y0236959D01*
X0078642Y0236959D02*
X0078644Y0237043D01*
X0078650Y0237126D01*
X0078660Y0237209D01*
X0078674Y0237292D01*
X0078691Y0237374D01*
X0078713Y0237455D01*
X0078738Y0237534D01*
X0078767Y0237613D01*
X0078800Y0237690D01*
X0078836Y0237765D01*
X0078876Y0237839D01*
X0078919Y0237911D01*
X0078966Y0237980D01*
X0079016Y0238047D01*
X0079069Y0238112D01*
X0079125Y0238174D01*
X0079183Y0238234D01*
X0079245Y0238291D01*
X0079309Y0238344D01*
X0079376Y0238395D01*
X0079445Y0238442D01*
X0079516Y0238487D01*
X0079589Y0238527D01*
X0079664Y0238564D01*
X0079741Y0238598D01*
X0079819Y0238628D01*
X0079898Y0238654D01*
X0079979Y0238677D01*
X0080061Y0238695D01*
X0080143Y0238710D01*
X0080226Y0238721D01*
X0080309Y0238728D01*
X0080393Y0238731D01*
X0080477Y0238730D01*
X0080560Y0238725D01*
X0080644Y0238716D01*
X0080726Y0238703D01*
X0080808Y0238687D01*
X0080889Y0238666D01*
X0080970Y0238642D01*
X0081048Y0238614D01*
X0081126Y0238582D01*
X0081202Y0238546D01*
X0081276Y0238507D01*
X0081348Y0238465D01*
X0081418Y0238419D01*
X0081486Y0238370D01*
X0081551Y0238318D01*
X0081614Y0238263D01*
X0081674Y0238205D01*
X0081732Y0238144D01*
X0081786Y0238080D01*
X0081838Y0238014D01*
X0081886Y0237946D01*
X0081931Y0237875D01*
X0081972Y0237802D01*
X0082011Y0237728D01*
X0082045Y0237652D01*
X0082076Y0237574D01*
X0082103Y0237495D01*
X0082127Y0237414D01*
X0082146Y0237333D01*
X0082162Y0237251D01*
X0082174Y0237168D01*
X0082182Y0237084D01*
X0082186Y0237001D01*
X0082186Y0236917D01*
X0082182Y0236834D01*
X0082174Y0236750D01*
X0082162Y0236667D01*
X0082146Y0236585D01*
X0082127Y0236504D01*
X0082103Y0236423D01*
X0082076Y0236344D01*
X0082045Y0236266D01*
X0082011Y0236190D01*
X0081972Y0236116D01*
X0081931Y0236043D01*
X0081886Y0235972D01*
X0081838Y0235904D01*
X0081786Y0235838D01*
X0081732Y0235774D01*
X0081674Y0235713D01*
X0081614Y0235655D01*
X0081551Y0235600D01*
X0081486Y0235548D01*
X0081418Y0235499D01*
X0081348Y0235453D01*
X0081276Y0235411D01*
X0081202Y0235372D01*
X0081126Y0235336D01*
X0081048Y0235304D01*
X0080970Y0235276D01*
X0080889Y0235252D01*
X0080808Y0235231D01*
X0080726Y0235215D01*
X0080644Y0235202D01*
X0080560Y0235193D01*
X0080477Y0235188D01*
X0080393Y0235187D01*
X0080309Y0235190D01*
X0080226Y0235197D01*
X0080143Y0235208D01*
X0080061Y0235223D01*
X0079979Y0235241D01*
X0079898Y0235264D01*
X0079819Y0235290D01*
X0079741Y0235320D01*
X0079664Y0235354D01*
X0079589Y0235391D01*
X0079516Y0235431D01*
X0079445Y0235476D01*
X0079376Y0235523D01*
X0079309Y0235574D01*
X0079245Y0235627D01*
X0079183Y0235684D01*
X0079125Y0235744D01*
X0079069Y0235806D01*
X0079016Y0235871D01*
X0078966Y0235938D01*
X0078919Y0236007D01*
X0078876Y0236079D01*
X0078836Y0236153D01*
X0078800Y0236228D01*
X0078767Y0236305D01*
X0078738Y0236384D01*
X0078713Y0236463D01*
X0078691Y0236544D01*
X0078674Y0236626D01*
X0078660Y0236709D01*
X0078650Y0236792D01*
X0078644Y0236875D01*
X0078642Y0236959D01*
X0030788Y0214439D02*
X0030790Y0214520D01*
X0030796Y0214602D01*
X0030806Y0214683D01*
X0030820Y0214763D01*
X0030837Y0214842D01*
X0030859Y0214921D01*
X0030884Y0214998D01*
X0030913Y0215075D01*
X0030946Y0215149D01*
X0030983Y0215222D01*
X0031022Y0215293D01*
X0031066Y0215362D01*
X0031112Y0215429D01*
X0031162Y0215493D01*
X0031215Y0215555D01*
X0031271Y0215615D01*
X0031329Y0215671D01*
X0031391Y0215725D01*
X0031455Y0215776D01*
X0031521Y0215823D01*
X0031589Y0215867D01*
X0031660Y0215908D01*
X0031732Y0215945D01*
X0031807Y0215979D01*
X0031882Y0216009D01*
X0031960Y0216035D01*
X0032038Y0216058D01*
X0032117Y0216076D01*
X0032197Y0216091D01*
X0032278Y0216102D01*
X0032359Y0216109D01*
X0032441Y0216112D01*
X0032522Y0216111D01*
X0032603Y0216106D01*
X0032684Y0216097D01*
X0032765Y0216084D01*
X0032845Y0216067D01*
X0032923Y0216047D01*
X0033001Y0216022D01*
X0033078Y0215994D01*
X0033153Y0215962D01*
X0033226Y0215927D01*
X0033297Y0215888D01*
X0033367Y0215845D01*
X0033434Y0215800D01*
X0033500Y0215751D01*
X0033562Y0215699D01*
X0033622Y0215643D01*
X0033679Y0215585D01*
X0033734Y0215525D01*
X0033785Y0215461D01*
X0033833Y0215396D01*
X0033878Y0215328D01*
X0033920Y0215258D01*
X0033958Y0215186D01*
X0033993Y0215112D01*
X0034024Y0215037D01*
X0034051Y0214960D01*
X0034074Y0214882D01*
X0034094Y0214803D01*
X0034110Y0214723D01*
X0034122Y0214642D01*
X0034130Y0214561D01*
X0034134Y0214480D01*
X0034134Y0214398D01*
X0034130Y0214317D01*
X0034122Y0214236D01*
X0034110Y0214155D01*
X0034094Y0214075D01*
X0034074Y0213996D01*
X0034051Y0213918D01*
X0034024Y0213841D01*
X0033993Y0213766D01*
X0033958Y0213692D01*
X0033920Y0213620D01*
X0033878Y0213550D01*
X0033833Y0213482D01*
X0033785Y0213417D01*
X0033734Y0213353D01*
X0033679Y0213293D01*
X0033622Y0213235D01*
X0033562Y0213179D01*
X0033500Y0213127D01*
X0033434Y0213078D01*
X0033367Y0213033D01*
X0033298Y0212990D01*
X0033226Y0212951D01*
X0033153Y0212916D01*
X0033078Y0212884D01*
X0033001Y0212856D01*
X0032923Y0212831D01*
X0032845Y0212811D01*
X0032765Y0212794D01*
X0032684Y0212781D01*
X0032603Y0212772D01*
X0032522Y0212767D01*
X0032441Y0212766D01*
X0032359Y0212769D01*
X0032278Y0212776D01*
X0032197Y0212787D01*
X0032117Y0212802D01*
X0032038Y0212820D01*
X0031960Y0212843D01*
X0031882Y0212869D01*
X0031807Y0212899D01*
X0031732Y0212933D01*
X0031660Y0212970D01*
X0031589Y0213011D01*
X0031521Y0213055D01*
X0031455Y0213102D01*
X0031391Y0213153D01*
X0031329Y0213207D01*
X0031271Y0213263D01*
X0031215Y0213323D01*
X0031162Y0213385D01*
X0031112Y0213449D01*
X0031066Y0213516D01*
X0031022Y0213585D01*
X0030983Y0213656D01*
X0030946Y0213729D01*
X0030913Y0213803D01*
X0030884Y0213880D01*
X0030859Y0213957D01*
X0030837Y0214036D01*
X0030820Y0214115D01*
X0030806Y0214195D01*
X0030796Y0214276D01*
X0030790Y0214358D01*
X0030788Y0214439D01*
X0030788Y0199478D02*
X0030790Y0199559D01*
X0030796Y0199641D01*
X0030806Y0199722D01*
X0030820Y0199802D01*
X0030837Y0199881D01*
X0030859Y0199960D01*
X0030884Y0200037D01*
X0030913Y0200114D01*
X0030946Y0200188D01*
X0030983Y0200261D01*
X0031022Y0200332D01*
X0031066Y0200401D01*
X0031112Y0200468D01*
X0031162Y0200532D01*
X0031215Y0200594D01*
X0031271Y0200654D01*
X0031329Y0200710D01*
X0031391Y0200764D01*
X0031455Y0200815D01*
X0031521Y0200862D01*
X0031589Y0200906D01*
X0031660Y0200947D01*
X0031732Y0200984D01*
X0031807Y0201018D01*
X0031882Y0201048D01*
X0031960Y0201074D01*
X0032038Y0201097D01*
X0032117Y0201115D01*
X0032197Y0201130D01*
X0032278Y0201141D01*
X0032359Y0201148D01*
X0032441Y0201151D01*
X0032522Y0201150D01*
X0032603Y0201145D01*
X0032684Y0201136D01*
X0032765Y0201123D01*
X0032845Y0201106D01*
X0032923Y0201086D01*
X0033001Y0201061D01*
X0033078Y0201033D01*
X0033153Y0201001D01*
X0033226Y0200966D01*
X0033297Y0200927D01*
X0033367Y0200884D01*
X0033434Y0200839D01*
X0033500Y0200790D01*
X0033562Y0200738D01*
X0033622Y0200682D01*
X0033679Y0200624D01*
X0033734Y0200564D01*
X0033785Y0200500D01*
X0033833Y0200435D01*
X0033878Y0200367D01*
X0033920Y0200297D01*
X0033958Y0200225D01*
X0033993Y0200151D01*
X0034024Y0200076D01*
X0034051Y0199999D01*
X0034074Y0199921D01*
X0034094Y0199842D01*
X0034110Y0199762D01*
X0034122Y0199681D01*
X0034130Y0199600D01*
X0034134Y0199519D01*
X0034134Y0199437D01*
X0034130Y0199356D01*
X0034122Y0199275D01*
X0034110Y0199194D01*
X0034094Y0199114D01*
X0034074Y0199035D01*
X0034051Y0198957D01*
X0034024Y0198880D01*
X0033993Y0198805D01*
X0033958Y0198731D01*
X0033920Y0198659D01*
X0033878Y0198589D01*
X0033833Y0198521D01*
X0033785Y0198456D01*
X0033734Y0198392D01*
X0033679Y0198332D01*
X0033622Y0198274D01*
X0033562Y0198218D01*
X0033500Y0198166D01*
X0033434Y0198117D01*
X0033367Y0198072D01*
X0033298Y0198029D01*
X0033226Y0197990D01*
X0033153Y0197955D01*
X0033078Y0197923D01*
X0033001Y0197895D01*
X0032923Y0197870D01*
X0032845Y0197850D01*
X0032765Y0197833D01*
X0032684Y0197820D01*
X0032603Y0197811D01*
X0032522Y0197806D01*
X0032441Y0197805D01*
X0032359Y0197808D01*
X0032278Y0197815D01*
X0032197Y0197826D01*
X0032117Y0197841D01*
X0032038Y0197859D01*
X0031960Y0197882D01*
X0031882Y0197908D01*
X0031807Y0197938D01*
X0031732Y0197972D01*
X0031660Y0198009D01*
X0031589Y0198050D01*
X0031521Y0198094D01*
X0031455Y0198141D01*
X0031391Y0198192D01*
X0031329Y0198246D01*
X0031271Y0198302D01*
X0031215Y0198362D01*
X0031162Y0198424D01*
X0031112Y0198488D01*
X0031066Y0198555D01*
X0031022Y0198624D01*
X0030983Y0198695D01*
X0030946Y0198768D01*
X0030913Y0198842D01*
X0030884Y0198919D01*
X0030859Y0198996D01*
X0030837Y0199075D01*
X0030820Y0199154D01*
X0030806Y0199234D01*
X0030796Y0199315D01*
X0030790Y0199397D01*
X0030788Y0199478D01*
X0289867Y0206486D02*
X0289869Y0206604D01*
X0289875Y0206722D01*
X0289885Y0206840D01*
X0289899Y0206957D01*
X0289917Y0207074D01*
X0289939Y0207191D01*
X0289964Y0207306D01*
X0289994Y0207420D01*
X0290028Y0207534D01*
X0290065Y0207646D01*
X0290106Y0207757D01*
X0290151Y0207866D01*
X0290199Y0207974D01*
X0290251Y0208080D01*
X0290307Y0208185D01*
X0290366Y0208287D01*
X0290428Y0208387D01*
X0290494Y0208485D01*
X0290563Y0208581D01*
X0290636Y0208675D01*
X0290711Y0208766D01*
X0290790Y0208854D01*
X0290871Y0208940D01*
X0290956Y0209023D01*
X0291043Y0209103D01*
X0291132Y0209180D01*
X0291225Y0209254D01*
X0291319Y0209324D01*
X0291416Y0209392D01*
X0291516Y0209456D01*
X0291617Y0209517D01*
X0291720Y0209574D01*
X0291826Y0209628D01*
X0291933Y0209679D01*
X0292041Y0209725D01*
X0292151Y0209768D01*
X0292263Y0209807D01*
X0292376Y0209843D01*
X0292490Y0209874D01*
X0292605Y0209902D01*
X0292720Y0209926D01*
X0292837Y0209946D01*
X0292954Y0209962D01*
X0293072Y0209974D01*
X0293190Y0209982D01*
X0293308Y0209986D01*
X0293426Y0209986D01*
X0293544Y0209982D01*
X0293662Y0209974D01*
X0293780Y0209962D01*
X0293897Y0209946D01*
X0294014Y0209926D01*
X0294129Y0209902D01*
X0294244Y0209874D01*
X0294358Y0209843D01*
X0294471Y0209807D01*
X0294583Y0209768D01*
X0294693Y0209725D01*
X0294801Y0209679D01*
X0294908Y0209628D01*
X0295014Y0209574D01*
X0295117Y0209517D01*
X0295218Y0209456D01*
X0295318Y0209392D01*
X0295415Y0209324D01*
X0295509Y0209254D01*
X0295602Y0209180D01*
X0295691Y0209103D01*
X0295778Y0209023D01*
X0295863Y0208940D01*
X0295944Y0208854D01*
X0296023Y0208766D01*
X0296098Y0208675D01*
X0296171Y0208581D01*
X0296240Y0208485D01*
X0296306Y0208387D01*
X0296368Y0208287D01*
X0296427Y0208185D01*
X0296483Y0208080D01*
X0296535Y0207974D01*
X0296583Y0207866D01*
X0296628Y0207757D01*
X0296669Y0207646D01*
X0296706Y0207534D01*
X0296740Y0207420D01*
X0296770Y0207306D01*
X0296795Y0207191D01*
X0296817Y0207074D01*
X0296835Y0206957D01*
X0296849Y0206840D01*
X0296859Y0206722D01*
X0296865Y0206604D01*
X0296867Y0206486D01*
X0296865Y0206368D01*
X0296859Y0206250D01*
X0296849Y0206132D01*
X0296835Y0206015D01*
X0296817Y0205898D01*
X0296795Y0205781D01*
X0296770Y0205666D01*
X0296740Y0205552D01*
X0296706Y0205438D01*
X0296669Y0205326D01*
X0296628Y0205215D01*
X0296583Y0205106D01*
X0296535Y0204998D01*
X0296483Y0204892D01*
X0296427Y0204787D01*
X0296368Y0204685D01*
X0296306Y0204585D01*
X0296240Y0204487D01*
X0296171Y0204391D01*
X0296098Y0204297D01*
X0296023Y0204206D01*
X0295944Y0204118D01*
X0295863Y0204032D01*
X0295778Y0203949D01*
X0295691Y0203869D01*
X0295602Y0203792D01*
X0295509Y0203718D01*
X0295415Y0203648D01*
X0295318Y0203580D01*
X0295218Y0203516D01*
X0295117Y0203455D01*
X0295014Y0203398D01*
X0294908Y0203344D01*
X0294801Y0203293D01*
X0294693Y0203247D01*
X0294583Y0203204D01*
X0294471Y0203165D01*
X0294358Y0203129D01*
X0294244Y0203098D01*
X0294129Y0203070D01*
X0294014Y0203046D01*
X0293897Y0203026D01*
X0293780Y0203010D01*
X0293662Y0202998D01*
X0293544Y0202990D01*
X0293426Y0202986D01*
X0293308Y0202986D01*
X0293190Y0202990D01*
X0293072Y0202998D01*
X0292954Y0203010D01*
X0292837Y0203026D01*
X0292720Y0203046D01*
X0292605Y0203070D01*
X0292490Y0203098D01*
X0292376Y0203129D01*
X0292263Y0203165D01*
X0292151Y0203204D01*
X0292041Y0203247D01*
X0291933Y0203293D01*
X0291826Y0203344D01*
X0291720Y0203398D01*
X0291617Y0203455D01*
X0291516Y0203516D01*
X0291416Y0203580D01*
X0291319Y0203648D01*
X0291225Y0203718D01*
X0291132Y0203792D01*
X0291043Y0203869D01*
X0290956Y0203949D01*
X0290871Y0204032D01*
X0290790Y0204118D01*
X0290711Y0204206D01*
X0290636Y0204297D01*
X0290563Y0204391D01*
X0290494Y0204487D01*
X0290428Y0204585D01*
X0290366Y0204685D01*
X0290307Y0204787D01*
X0290251Y0204892D01*
X0290199Y0204998D01*
X0290151Y0205106D01*
X0290106Y0205215D01*
X0290065Y0205326D01*
X0290028Y0205438D01*
X0289994Y0205552D01*
X0289964Y0205666D01*
X0289939Y0205781D01*
X0289917Y0205898D01*
X0289899Y0206015D01*
X0289885Y0206132D01*
X0289875Y0206250D01*
X0289869Y0206368D01*
X0289867Y0206486D01*
X0317426Y0206486D02*
X0317428Y0206604D01*
X0317434Y0206722D01*
X0317444Y0206840D01*
X0317458Y0206957D01*
X0317476Y0207074D01*
X0317498Y0207191D01*
X0317523Y0207306D01*
X0317553Y0207420D01*
X0317587Y0207534D01*
X0317624Y0207646D01*
X0317665Y0207757D01*
X0317710Y0207866D01*
X0317758Y0207974D01*
X0317810Y0208080D01*
X0317866Y0208185D01*
X0317925Y0208287D01*
X0317987Y0208387D01*
X0318053Y0208485D01*
X0318122Y0208581D01*
X0318195Y0208675D01*
X0318270Y0208766D01*
X0318349Y0208854D01*
X0318430Y0208940D01*
X0318515Y0209023D01*
X0318602Y0209103D01*
X0318691Y0209180D01*
X0318784Y0209254D01*
X0318878Y0209324D01*
X0318975Y0209392D01*
X0319075Y0209456D01*
X0319176Y0209517D01*
X0319279Y0209574D01*
X0319385Y0209628D01*
X0319492Y0209679D01*
X0319600Y0209725D01*
X0319710Y0209768D01*
X0319822Y0209807D01*
X0319935Y0209843D01*
X0320049Y0209874D01*
X0320164Y0209902D01*
X0320279Y0209926D01*
X0320396Y0209946D01*
X0320513Y0209962D01*
X0320631Y0209974D01*
X0320749Y0209982D01*
X0320867Y0209986D01*
X0320985Y0209986D01*
X0321103Y0209982D01*
X0321221Y0209974D01*
X0321339Y0209962D01*
X0321456Y0209946D01*
X0321573Y0209926D01*
X0321688Y0209902D01*
X0321803Y0209874D01*
X0321917Y0209843D01*
X0322030Y0209807D01*
X0322142Y0209768D01*
X0322252Y0209725D01*
X0322360Y0209679D01*
X0322467Y0209628D01*
X0322573Y0209574D01*
X0322676Y0209517D01*
X0322777Y0209456D01*
X0322877Y0209392D01*
X0322974Y0209324D01*
X0323068Y0209254D01*
X0323161Y0209180D01*
X0323250Y0209103D01*
X0323337Y0209023D01*
X0323422Y0208940D01*
X0323503Y0208854D01*
X0323582Y0208766D01*
X0323657Y0208675D01*
X0323730Y0208581D01*
X0323799Y0208485D01*
X0323865Y0208387D01*
X0323927Y0208287D01*
X0323986Y0208185D01*
X0324042Y0208080D01*
X0324094Y0207974D01*
X0324142Y0207866D01*
X0324187Y0207757D01*
X0324228Y0207646D01*
X0324265Y0207534D01*
X0324299Y0207420D01*
X0324329Y0207306D01*
X0324354Y0207191D01*
X0324376Y0207074D01*
X0324394Y0206957D01*
X0324408Y0206840D01*
X0324418Y0206722D01*
X0324424Y0206604D01*
X0324426Y0206486D01*
X0324424Y0206368D01*
X0324418Y0206250D01*
X0324408Y0206132D01*
X0324394Y0206015D01*
X0324376Y0205898D01*
X0324354Y0205781D01*
X0324329Y0205666D01*
X0324299Y0205552D01*
X0324265Y0205438D01*
X0324228Y0205326D01*
X0324187Y0205215D01*
X0324142Y0205106D01*
X0324094Y0204998D01*
X0324042Y0204892D01*
X0323986Y0204787D01*
X0323927Y0204685D01*
X0323865Y0204585D01*
X0323799Y0204487D01*
X0323730Y0204391D01*
X0323657Y0204297D01*
X0323582Y0204206D01*
X0323503Y0204118D01*
X0323422Y0204032D01*
X0323337Y0203949D01*
X0323250Y0203869D01*
X0323161Y0203792D01*
X0323068Y0203718D01*
X0322974Y0203648D01*
X0322877Y0203580D01*
X0322777Y0203516D01*
X0322676Y0203455D01*
X0322573Y0203398D01*
X0322467Y0203344D01*
X0322360Y0203293D01*
X0322252Y0203247D01*
X0322142Y0203204D01*
X0322030Y0203165D01*
X0321917Y0203129D01*
X0321803Y0203098D01*
X0321688Y0203070D01*
X0321573Y0203046D01*
X0321456Y0203026D01*
X0321339Y0203010D01*
X0321221Y0202998D01*
X0321103Y0202990D01*
X0320985Y0202986D01*
X0320867Y0202986D01*
X0320749Y0202990D01*
X0320631Y0202998D01*
X0320513Y0203010D01*
X0320396Y0203026D01*
X0320279Y0203046D01*
X0320164Y0203070D01*
X0320049Y0203098D01*
X0319935Y0203129D01*
X0319822Y0203165D01*
X0319710Y0203204D01*
X0319600Y0203247D01*
X0319492Y0203293D01*
X0319385Y0203344D01*
X0319279Y0203398D01*
X0319176Y0203455D01*
X0319075Y0203516D01*
X0318975Y0203580D01*
X0318878Y0203648D01*
X0318784Y0203718D01*
X0318691Y0203792D01*
X0318602Y0203869D01*
X0318515Y0203949D01*
X0318430Y0204032D01*
X0318349Y0204118D01*
X0318270Y0204206D01*
X0318195Y0204297D01*
X0318122Y0204391D01*
X0318053Y0204487D01*
X0317987Y0204585D01*
X0317925Y0204685D01*
X0317866Y0204787D01*
X0317810Y0204892D01*
X0317758Y0204998D01*
X0317710Y0205106D01*
X0317665Y0205215D01*
X0317624Y0205326D01*
X0317587Y0205438D01*
X0317553Y0205552D01*
X0317523Y0205666D01*
X0317498Y0205781D01*
X0317476Y0205898D01*
X0317458Y0206015D01*
X0317444Y0206132D01*
X0317434Y0206250D01*
X0317428Y0206368D01*
X0317426Y0206486D01*
D17*
X0107378Y0140410D02*
X0107378Y0140160D01*
X0106377Y0139159D01*
X0106377Y0138909D01*
X0105904Y0139159D02*
X0105904Y0140160D01*
X0105654Y0140410D01*
X0104903Y0140410D01*
X0104903Y0138909D01*
X0105654Y0138909D01*
X0105904Y0139159D01*
X0106377Y0140410D02*
X0107378Y0140410D01*
X0066074Y0177009D02*
X0066074Y0178510D01*
X0065323Y0177759D01*
X0066324Y0177759D01*
X0064851Y0177009D02*
X0063850Y0177009D01*
X0063850Y0178510D01*
D18*
X0035611Y0191211D02*
X0035611Y0195148D01*
X0035611Y0191211D02*
X0031674Y0191211D01*
X0019863Y0191211D02*
X0015926Y0191211D01*
X0035611Y0218770D02*
X0035611Y0222707D01*
X0035540Y0222679D02*
X0031674Y0222679D01*
X0031674Y0222707D01*
X0019863Y0222707D02*
X0015926Y0222707D01*
D19*
X0062816Y0199026D03*
X0065769Y0177463D03*
M02*
