%
M48
M72
T01C0.01378
T02C0.03150
T03C0.03200
T04C0.03346
T05C0.03543
T06C0.03937
T07C0.04000
T08C0.05512
T09C0.07000
%
T01
X163800Y206959
X163800Y201959
X163800Y196959
X308800Y106959
X303800Y106959
X298800Y106959
X223800Y106959
X218800Y106959
X213800Y106959
X239400Y77559
X163800Y46959
X163800Y41959
X163800Y36959
X113800Y106959
X118800Y106959
X123800Y106959
X163800Y96959
X163800Y91959
X163800Y86959
X163800Y136959
X163800Y141959
X163800Y146959
X96000Y162159
X57600Y179559
X42000Y172359
X43800Y162159
X67200Y205359
X43800Y106959
X38800Y106959
X33800Y106959
T02
X28800Y71171
X28800Y79045
T03
X113800Y211959
X113800Y221959
X63800Y241959
X63800Y231959
T04
X32461Y199478
X32461Y214439
T05
X198839Y191959
X225611Y191959
X238839Y191959
X265611Y191959
X80414Y236959
X107186Y236959
T06
X306123Y58337
X290375Y58337
X274627Y58337
X241123Y58337
X225375Y58337
X209627Y58337
T07
X178800Y175384
X178800Y165384
X178800Y155384
X108800Y121959
X98800Y121959
X78800Y121959
X68800Y121959
X150650Y86959
X150650Y76959
X150650Y66959
X175650Y65384
X175650Y75384
X175650Y85384
X345650Y90384
X345650Y80384
X345650Y70384
X133800Y207659
X133800Y196259
T08
X205690Y18967
X245060Y18967
X270690Y18967
X310060Y18967
T09
X293367Y206486
X320926Y206486
X320926Y156486
X293367Y156486
M30
