G75*
%MOIN*%
%OFA0B0*%
%FSLAX25Y25*%
%IPPOS*%
%LPD*%
%AMOC8*
5,1,8,0,0,1.08239X$1,22.5*
%
%ADD10C,0.00000*%
%ADD11R,0.05118X0.05906*%
%ADD12R,0.04724X0.02165*%
%ADD13C,0.07600*%
%ADD14C,0.13843*%
%ADD15C,0.03543*%
%ADD16C,0.02756*%
%ADD17C,0.06614*%
%ADD18R,0.06299X0.07087*%
%ADD19R,0.05118X0.06299*%
%ADD20C,0.00800*%
%ADD21C,0.01000*%
%ADD22C,0.00600*%
D10*
X0001802Y0001500D02*
X0056802Y0001500D01*
X0056802Y0053500D01*
X0056799Y0053742D01*
X0056790Y0053983D01*
X0056776Y0054224D01*
X0056755Y0054465D01*
X0056729Y0054705D01*
X0056697Y0054945D01*
X0056659Y0055184D01*
X0056616Y0055421D01*
X0056566Y0055658D01*
X0056511Y0055893D01*
X0056451Y0056127D01*
X0056384Y0056359D01*
X0056313Y0056590D01*
X0056235Y0056819D01*
X0056152Y0057046D01*
X0056064Y0057271D01*
X0055970Y0057494D01*
X0055871Y0057714D01*
X0055766Y0057932D01*
X0055657Y0058147D01*
X0055542Y0058360D01*
X0055422Y0058570D01*
X0055297Y0058776D01*
X0055167Y0058980D01*
X0055032Y0059181D01*
X0054892Y0059378D01*
X0054748Y0059572D01*
X0054599Y0059762D01*
X0054445Y0059948D01*
X0054287Y0060131D01*
X0054125Y0060310D01*
X0053958Y0060485D01*
X0053787Y0060656D01*
X0053612Y0060823D01*
X0053433Y0060985D01*
X0053250Y0061143D01*
X0053064Y0061297D01*
X0052874Y0061446D01*
X0052680Y0061590D01*
X0052483Y0061730D01*
X0052282Y0061865D01*
X0052078Y0061995D01*
X0051872Y0062120D01*
X0051662Y0062240D01*
X0051449Y0062355D01*
X0051234Y0062464D01*
X0051016Y0062569D01*
X0050796Y0062668D01*
X0050573Y0062762D01*
X0050348Y0062850D01*
X0050121Y0062933D01*
X0049892Y0063011D01*
X0049661Y0063082D01*
X0049429Y0063149D01*
X0049195Y0063209D01*
X0048960Y0063264D01*
X0048723Y0063314D01*
X0048486Y0063357D01*
X0048247Y0063395D01*
X0048007Y0063427D01*
X0047767Y0063453D01*
X0047526Y0063474D01*
X0047285Y0063488D01*
X0047044Y0063497D01*
X0046802Y0063500D01*
X0011802Y0063500D01*
X0011560Y0063497D01*
X0011319Y0063488D01*
X0011078Y0063474D01*
X0010837Y0063453D01*
X0010597Y0063427D01*
X0010357Y0063395D01*
X0010118Y0063357D01*
X0009881Y0063314D01*
X0009644Y0063264D01*
X0009409Y0063209D01*
X0009175Y0063149D01*
X0008943Y0063082D01*
X0008712Y0063011D01*
X0008483Y0062933D01*
X0008256Y0062850D01*
X0008031Y0062762D01*
X0007808Y0062668D01*
X0007588Y0062569D01*
X0007370Y0062464D01*
X0007155Y0062355D01*
X0006942Y0062240D01*
X0006732Y0062120D01*
X0006526Y0061995D01*
X0006322Y0061865D01*
X0006121Y0061730D01*
X0005924Y0061590D01*
X0005730Y0061446D01*
X0005540Y0061297D01*
X0005354Y0061143D01*
X0005171Y0060985D01*
X0004992Y0060823D01*
X0004817Y0060656D01*
X0004646Y0060485D01*
X0004479Y0060310D01*
X0004317Y0060131D01*
X0004159Y0059948D01*
X0004005Y0059762D01*
X0003856Y0059572D01*
X0003712Y0059378D01*
X0003572Y0059181D01*
X0003437Y0058980D01*
X0003307Y0058776D01*
X0003182Y0058570D01*
X0003062Y0058360D01*
X0002947Y0058147D01*
X0002838Y0057932D01*
X0002733Y0057714D01*
X0002634Y0057494D01*
X0002540Y0057271D01*
X0002452Y0057046D01*
X0002369Y0056819D01*
X0002291Y0056590D01*
X0002220Y0056359D01*
X0002153Y0056127D01*
X0002093Y0055893D01*
X0002038Y0055658D01*
X0001988Y0055421D01*
X0001945Y0055184D01*
X0001907Y0054945D01*
X0001875Y0054705D01*
X0001849Y0054465D01*
X0001828Y0054224D01*
X0001814Y0053983D01*
X0001805Y0053742D01*
X0001802Y0053500D01*
X0001802Y0001500D01*
X0028629Y0039000D02*
X0028631Y0039081D01*
X0028637Y0039163D01*
X0028647Y0039244D01*
X0028661Y0039324D01*
X0028678Y0039403D01*
X0028700Y0039482D01*
X0028725Y0039559D01*
X0028754Y0039636D01*
X0028787Y0039710D01*
X0028824Y0039783D01*
X0028863Y0039854D01*
X0028907Y0039923D01*
X0028953Y0039990D01*
X0029003Y0040054D01*
X0029056Y0040116D01*
X0029112Y0040176D01*
X0029170Y0040232D01*
X0029232Y0040286D01*
X0029296Y0040337D01*
X0029362Y0040384D01*
X0029430Y0040428D01*
X0029501Y0040469D01*
X0029573Y0040506D01*
X0029648Y0040540D01*
X0029723Y0040570D01*
X0029801Y0040596D01*
X0029879Y0040619D01*
X0029958Y0040637D01*
X0030038Y0040652D01*
X0030119Y0040663D01*
X0030200Y0040670D01*
X0030282Y0040673D01*
X0030363Y0040672D01*
X0030444Y0040667D01*
X0030525Y0040658D01*
X0030606Y0040645D01*
X0030686Y0040628D01*
X0030764Y0040608D01*
X0030842Y0040583D01*
X0030919Y0040555D01*
X0030994Y0040523D01*
X0031067Y0040488D01*
X0031138Y0040449D01*
X0031208Y0040406D01*
X0031275Y0040361D01*
X0031341Y0040312D01*
X0031403Y0040260D01*
X0031463Y0040204D01*
X0031520Y0040146D01*
X0031575Y0040086D01*
X0031626Y0040022D01*
X0031674Y0039957D01*
X0031719Y0039889D01*
X0031761Y0039819D01*
X0031799Y0039747D01*
X0031834Y0039673D01*
X0031865Y0039598D01*
X0031892Y0039521D01*
X0031915Y0039443D01*
X0031935Y0039364D01*
X0031951Y0039284D01*
X0031963Y0039203D01*
X0031971Y0039122D01*
X0031975Y0039041D01*
X0031975Y0038959D01*
X0031971Y0038878D01*
X0031963Y0038797D01*
X0031951Y0038716D01*
X0031935Y0038636D01*
X0031915Y0038557D01*
X0031892Y0038479D01*
X0031865Y0038402D01*
X0031834Y0038327D01*
X0031799Y0038253D01*
X0031761Y0038181D01*
X0031719Y0038111D01*
X0031674Y0038043D01*
X0031626Y0037978D01*
X0031575Y0037914D01*
X0031520Y0037854D01*
X0031463Y0037796D01*
X0031403Y0037740D01*
X0031341Y0037688D01*
X0031275Y0037639D01*
X0031208Y0037594D01*
X0031139Y0037551D01*
X0031067Y0037512D01*
X0030994Y0037477D01*
X0030919Y0037445D01*
X0030842Y0037417D01*
X0030764Y0037392D01*
X0030686Y0037372D01*
X0030606Y0037355D01*
X0030525Y0037342D01*
X0030444Y0037333D01*
X0030363Y0037328D01*
X0030282Y0037327D01*
X0030200Y0037330D01*
X0030119Y0037337D01*
X0030038Y0037348D01*
X0029958Y0037363D01*
X0029879Y0037381D01*
X0029801Y0037404D01*
X0029723Y0037430D01*
X0029648Y0037460D01*
X0029573Y0037494D01*
X0029501Y0037531D01*
X0029430Y0037572D01*
X0029362Y0037616D01*
X0029296Y0037663D01*
X0029232Y0037714D01*
X0029170Y0037768D01*
X0029112Y0037824D01*
X0029056Y0037884D01*
X0029003Y0037946D01*
X0028953Y0038010D01*
X0028907Y0038077D01*
X0028863Y0038146D01*
X0028824Y0038217D01*
X0028787Y0038290D01*
X0028754Y0038364D01*
X0028725Y0038441D01*
X0028700Y0038518D01*
X0028678Y0038597D01*
X0028661Y0038676D01*
X0028647Y0038756D01*
X0028637Y0038837D01*
X0028631Y0038919D01*
X0028629Y0039000D01*
D11*
X0016042Y0051500D03*
X0008562Y0051500D03*
X0009062Y0023000D03*
X0016542Y0023000D03*
X0026062Y0021500D03*
X0033542Y0021500D03*
X0043062Y0031500D03*
X0050542Y0031500D03*
D12*
X0017920Y0033260D03*
X0017920Y0040740D03*
X0007683Y0040740D03*
X0007683Y0037000D03*
X0007683Y0033260D03*
D13*
X0009302Y0011500D03*
X0019302Y0011500D03*
X0029302Y0011500D03*
X0039302Y0011500D03*
X0049302Y0011500D03*
D14*
X0030302Y0054000D03*
D15*
X0030302Y0028685D03*
X0025971Y0028685D03*
X0034633Y0028685D03*
D16*
X0035302Y0042110D03*
X0025302Y0042110D03*
D17*
X0030302Y0039000D03*
D18*
X0040290Y0021000D03*
X0051314Y0021000D03*
D19*
X0050042Y0042000D03*
X0042562Y0042000D03*
D20*
X0050042Y0042000D02*
X0050602Y0041000D01*
X0050602Y0031400D01*
X0050542Y0031500D01*
X0043062Y0031500D02*
X0042602Y0031100D01*
X0042602Y0027900D01*
X0041802Y0027100D01*
X0041802Y0023900D01*
X0040202Y0022300D01*
X0040290Y0021000D01*
X0041002Y0020700D01*
X0042602Y0020700D01*
X0049002Y0014300D01*
X0049002Y0011900D01*
X0049302Y0011500D01*
X0047402Y0006300D02*
X0042602Y0011100D01*
X0039402Y0011100D01*
X0039302Y0011500D01*
X0040290Y0021000D02*
X0041002Y0021500D01*
X0040202Y0022300D01*
X0035402Y0027100D01*
X0035402Y0027900D01*
X0034633Y0028685D01*
X0026602Y0027900D02*
X0026602Y0021500D01*
X0026062Y0021500D01*
X0025802Y0021500D01*
X0025802Y0018300D01*
X0019402Y0011900D01*
X0019302Y0011500D01*
X0009302Y0011500D02*
X0009002Y0011900D01*
X0008202Y0012700D01*
X0008202Y0017500D01*
X0009002Y0018300D01*
X0009002Y0022300D01*
X0009062Y0023000D01*
X0009002Y0023100D01*
X0008202Y0023900D01*
X0008202Y0032700D01*
X0007683Y0033260D01*
X0008202Y0032700D02*
X0009802Y0032700D01*
X0011402Y0034300D01*
X0011402Y0039100D01*
X0009802Y0040700D01*
X0008202Y0040700D01*
X0007683Y0040740D01*
X0011402Y0044700D02*
X0009802Y0046300D01*
X0009802Y0050300D01*
X0009002Y0051100D01*
X0008562Y0051500D01*
X0011402Y0044700D02*
X0014602Y0044700D01*
X0017802Y0041500D01*
X0017920Y0040740D01*
X0018602Y0040700D01*
X0019402Y0040700D01*
X0024202Y0035900D01*
X0024202Y0034300D01*
X0025802Y0032700D01*
X0025802Y0028700D01*
X0025971Y0028685D01*
X0026602Y0027900D01*
X0047402Y0006300D02*
X0051402Y0006300D01*
X0055402Y0010300D01*
X0055402Y0012700D01*
X0050602Y0017500D01*
X0050602Y0020700D01*
X0051314Y0021000D01*
D21*
X0046664Y0025165D02*
X0047543Y0026043D01*
X0055085Y0026043D01*
X0055302Y0025826D01*
X0055302Y0053500D01*
X0055197Y0054830D01*
X0054376Y0057359D01*
X0052812Y0059510D01*
X0050661Y0061074D01*
X0048132Y0061895D01*
X0046802Y0062000D01*
X0034989Y0062000D01*
X0036975Y0060673D01*
X0039021Y0057611D01*
X0039739Y0054000D01*
X0039021Y0050389D01*
X0036975Y0047327D01*
X0033913Y0045281D01*
X0030302Y0044563D01*
X0026691Y0045281D01*
X0023629Y0047327D01*
X0021583Y0050389D01*
X0020865Y0054000D01*
X0021583Y0057611D01*
X0023629Y0060673D01*
X0025615Y0062000D01*
X0011802Y0062000D01*
X0010472Y0061895D01*
X0007943Y0061074D01*
X0005792Y0059510D01*
X0004228Y0057359D01*
X0003407Y0054830D01*
X0003302Y0053500D01*
X0003302Y0003000D01*
X0055302Y0003000D01*
X0055302Y0007513D01*
X0053302Y0005513D01*
X0052189Y0004400D01*
X0046615Y0004400D01*
X0043156Y0007859D01*
X0042304Y0007007D01*
X0040356Y0006200D01*
X0038248Y0006200D01*
X0036300Y0007007D01*
X0034809Y0008498D01*
X0034299Y0009728D01*
X0034214Y0009466D01*
X0033835Y0008722D01*
X0033345Y0008047D01*
X0032755Y0007457D01*
X0032080Y0006967D01*
X0031336Y0006588D01*
X0030543Y0006330D01*
X0029786Y0006211D01*
X0029786Y0011016D01*
X0028818Y0011016D01*
X0028818Y0006211D01*
X0028061Y0006330D01*
X0027267Y0006588D01*
X0026524Y0006967D01*
X0025849Y0007457D01*
X0025259Y0008047D01*
X0024769Y0008722D01*
X0024390Y0009466D01*
X0024305Y0009728D01*
X0023795Y0008498D01*
X0022304Y0007007D01*
X0020356Y0006200D01*
X0018248Y0006200D01*
X0016300Y0007007D01*
X0014809Y0008498D01*
X0014302Y0009722D01*
X0013795Y0008498D01*
X0012304Y0007007D01*
X0010356Y0006200D01*
X0008248Y0006200D01*
X0006300Y0007007D01*
X0004809Y0008498D01*
X0004002Y0010446D01*
X0004002Y0012554D01*
X0004809Y0014502D01*
X0006300Y0015993D01*
X0006302Y0015994D01*
X0006302Y0018287D01*
X0006562Y0018547D01*
X0005881Y0018547D01*
X0005003Y0019426D01*
X0005003Y0026574D01*
X0005881Y0027453D01*
X0006302Y0027453D01*
X0006302Y0030677D01*
X0004700Y0030677D01*
X0003821Y0031556D01*
X0003821Y0034964D01*
X0004023Y0035166D01*
X0003924Y0035338D01*
X0003821Y0035720D01*
X0003821Y0036959D01*
X0007642Y0036959D01*
X0007642Y0037041D01*
X0003821Y0037041D01*
X0003821Y0038280D01*
X0003924Y0038662D01*
X0004023Y0038834D01*
X0003821Y0039036D01*
X0003821Y0042444D01*
X0004700Y0043323D01*
X0010092Y0043323D01*
X0009502Y0043913D01*
X0009502Y0043913D01*
X0009015Y0044400D01*
X0009015Y0044400D01*
X0007902Y0045513D01*
X0007902Y0047047D01*
X0005381Y0047047D01*
X0004503Y0047926D01*
X0004503Y0055074D01*
X0005381Y0055953D01*
X0011742Y0055953D01*
X0012302Y0055393D01*
X0012562Y0055653D01*
X0012904Y0055851D01*
X0013286Y0055953D01*
X0015542Y0055953D01*
X0015542Y0052000D01*
X0016542Y0052000D01*
X0016542Y0055953D01*
X0018799Y0055953D01*
X0019180Y0055851D01*
X0019522Y0055653D01*
X0019801Y0055374D01*
X0019999Y0055032D01*
X0020101Y0054650D01*
X0020101Y0052000D01*
X0016542Y0052000D01*
X0016542Y0051000D01*
X0016542Y0047047D01*
X0018799Y0047047D01*
X0019180Y0047149D01*
X0019522Y0047347D01*
X0019801Y0047626D01*
X0019999Y0047968D01*
X0020101Y0048350D01*
X0020101Y0051000D01*
X0016542Y0051000D01*
X0015542Y0051000D01*
X0015542Y0047047D01*
X0013286Y0047047D01*
X0012904Y0047149D01*
X0012562Y0047347D01*
X0012302Y0047607D01*
X0011742Y0047047D01*
X0011742Y0047047D01*
X0012189Y0046600D01*
X0015389Y0046600D01*
X0016502Y0045487D01*
X0018666Y0043323D01*
X0020904Y0043323D01*
X0021783Y0042444D01*
X0021783Y0041006D01*
X0024989Y0037800D01*
X0026068Y0036721D01*
X0025847Y0037155D01*
X0025613Y0037874D01*
X0025514Y0038500D01*
X0027129Y0038500D01*
X0027129Y0039500D01*
X0026521Y0039500D01*
X0026141Y0039343D01*
X0025585Y0039232D01*
X0025491Y0039232D01*
X0025491Y0041921D01*
X0025113Y0041921D01*
X0025113Y0039232D01*
X0025019Y0039232D01*
X0024463Y0039343D01*
X0023939Y0039560D01*
X0023467Y0039875D01*
X0023067Y0040276D01*
X0022752Y0040747D01*
X0022535Y0041271D01*
X0022424Y0041827D01*
X0022424Y0041921D01*
X0025113Y0041921D01*
X0025113Y0042299D01*
X0022424Y0042299D01*
X0022424Y0042394D01*
X0022535Y0042950D01*
X0022752Y0043473D01*
X0023067Y0043945D01*
X0023467Y0044346D01*
X0023939Y0044661D01*
X0024463Y0044878D01*
X0025019Y0044988D01*
X0025113Y0044988D01*
X0025113Y0042299D01*
X0025491Y0042299D01*
X0025491Y0044988D01*
X0025585Y0044988D01*
X0026141Y0044878D01*
X0026665Y0044661D01*
X0027137Y0044346D01*
X0027537Y0043945D01*
X0027852Y0043473D01*
X0027964Y0043204D01*
X0028457Y0043455D01*
X0029176Y0043689D01*
X0029802Y0043788D01*
X0029802Y0042173D01*
X0030802Y0042173D01*
X0030802Y0043788D01*
X0031428Y0043689D01*
X0032147Y0043455D01*
X0032640Y0043204D01*
X0032752Y0043473D01*
X0033067Y0043945D01*
X0033467Y0044346D01*
X0033939Y0044661D01*
X0034463Y0044878D01*
X0035019Y0044988D01*
X0035113Y0044988D01*
X0035113Y0042299D01*
X0035491Y0042299D01*
X0038180Y0042299D01*
X0038180Y0042394D01*
X0038069Y0042950D01*
X0037852Y0043473D01*
X0037537Y0043945D01*
X0037137Y0044346D01*
X0036665Y0044661D01*
X0036141Y0044878D01*
X0035585Y0044988D01*
X0035491Y0044988D01*
X0035491Y0042299D01*
X0035491Y0041921D01*
X0035491Y0039232D01*
X0035585Y0039232D01*
X0036141Y0039343D01*
X0036665Y0039560D01*
X0037137Y0039875D01*
X0037537Y0040276D01*
X0037852Y0040747D01*
X0038069Y0041271D01*
X0038180Y0041827D01*
X0038180Y0041921D01*
X0035491Y0041921D01*
X0035113Y0041921D01*
X0035113Y0039232D01*
X0035019Y0039232D01*
X0034463Y0039343D01*
X0034083Y0039500D01*
X0033475Y0039500D01*
X0033475Y0038500D01*
X0035090Y0038500D01*
X0034991Y0037874D01*
X0034757Y0037155D01*
X0034413Y0036481D01*
X0033969Y0035868D01*
X0033434Y0035333D01*
X0032821Y0034889D01*
X0032147Y0034545D01*
X0031428Y0034311D01*
X0030802Y0034212D01*
X0030802Y0035827D01*
X0029802Y0035827D01*
X0029802Y0034212D01*
X0029176Y0034311D01*
X0028457Y0034545D01*
X0027783Y0034889D01*
X0027170Y0035333D01*
X0026635Y0035868D01*
X0026191Y0036481D01*
X0026102Y0036654D01*
X0026102Y0035087D01*
X0026589Y0034600D01*
X0027702Y0033487D01*
X0027702Y0031509D01*
X0027825Y0031459D01*
X0028137Y0031146D01*
X0028216Y0031226D01*
X0028752Y0031584D01*
X0029348Y0031831D01*
X0029916Y0031944D01*
X0029916Y0029071D01*
X0030688Y0029071D01*
X0030688Y0031944D01*
X0031256Y0031831D01*
X0031852Y0031584D01*
X0032388Y0031226D01*
X0032467Y0031146D01*
X0032779Y0031459D01*
X0033982Y0031957D01*
X0035283Y0031957D01*
X0036486Y0031459D01*
X0037406Y0030538D01*
X0037904Y0029336D01*
X0037904Y0028034D01*
X0037685Y0027504D01*
X0039146Y0026043D01*
X0039902Y0026043D01*
X0039902Y0027047D01*
X0039881Y0027047D01*
X0039003Y0027926D01*
X0039003Y0035074D01*
X0039881Y0035953D01*
X0046242Y0035953D01*
X0046802Y0035393D01*
X0047362Y0035953D01*
X0048702Y0035953D01*
X0048702Y0037350D01*
X0046862Y0037350D01*
X0046302Y0037910D01*
X0046042Y0037650D01*
X0045700Y0037453D01*
X0045318Y0037350D01*
X0043062Y0037350D01*
X0043062Y0041500D01*
X0042062Y0041500D01*
X0042062Y0037350D01*
X0039805Y0037350D01*
X0039424Y0037453D01*
X0039082Y0037650D01*
X0038802Y0037929D01*
X0038605Y0038271D01*
X0038503Y0038653D01*
X0038503Y0041500D01*
X0042062Y0041500D01*
X0042062Y0042500D01*
X0042062Y0046650D01*
X0039805Y0046650D01*
X0039424Y0046547D01*
X0039082Y0046350D01*
X0038802Y0046071D01*
X0038605Y0045729D01*
X0038503Y0045347D01*
X0038503Y0042500D01*
X0042062Y0042500D01*
X0043062Y0042500D01*
X0043062Y0046650D01*
X0045318Y0046650D01*
X0045700Y0046547D01*
X0046042Y0046350D01*
X0046302Y0046090D01*
X0046862Y0046650D01*
X0053223Y0046650D01*
X0054101Y0045771D01*
X0054101Y0038229D01*
X0053223Y0037350D01*
X0052502Y0037350D01*
X0052502Y0035953D01*
X0053723Y0035953D01*
X0054601Y0035074D01*
X0054601Y0027926D01*
X0053723Y0027047D01*
X0047362Y0027047D01*
X0046802Y0027607D01*
X0046242Y0027047D01*
X0044436Y0027047D01*
X0043702Y0026313D01*
X0043702Y0026043D01*
X0044061Y0026043D01*
X0044940Y0025165D01*
X0044940Y0021049D01*
X0046664Y0019325D01*
X0046664Y0025165D01*
X0046964Y0025464D02*
X0044640Y0025464D01*
X0044940Y0024466D02*
X0046664Y0024466D01*
X0046664Y0023467D02*
X0044940Y0023467D01*
X0044940Y0022469D02*
X0046664Y0022469D01*
X0046664Y0021470D02*
X0044940Y0021470D01*
X0045517Y0020472D02*
X0046664Y0020472D01*
X0046664Y0019473D02*
X0046516Y0019473D01*
X0043852Y0026463D02*
X0055302Y0026463D01*
X0055302Y0027461D02*
X0054137Y0027461D01*
X0054601Y0028460D02*
X0055302Y0028460D01*
X0055302Y0029458D02*
X0054601Y0029458D01*
X0054601Y0030457D02*
X0055302Y0030457D01*
X0055302Y0031455D02*
X0054601Y0031455D01*
X0054601Y0032454D02*
X0055302Y0032454D01*
X0055302Y0033452D02*
X0054601Y0033452D01*
X0054601Y0034451D02*
X0055302Y0034451D01*
X0055302Y0035449D02*
X0054226Y0035449D01*
X0055302Y0036448D02*
X0052502Y0036448D01*
X0053319Y0037446D02*
X0055302Y0037446D01*
X0055302Y0038445D02*
X0054101Y0038445D01*
X0054101Y0039443D02*
X0055302Y0039443D01*
X0055302Y0040442D02*
X0054101Y0040442D01*
X0054101Y0041440D02*
X0055302Y0041440D01*
X0055302Y0042439D02*
X0054101Y0042439D01*
X0054101Y0043437D02*
X0055302Y0043437D01*
X0055302Y0044436D02*
X0054101Y0044436D01*
X0054101Y0045434D02*
X0055302Y0045434D01*
X0055302Y0046433D02*
X0053439Y0046433D01*
X0055302Y0047432D02*
X0037045Y0047432D01*
X0037712Y0048430D02*
X0055302Y0048430D01*
X0055302Y0049429D02*
X0038379Y0049429D01*
X0039028Y0050427D02*
X0055302Y0050427D01*
X0055302Y0051426D02*
X0039227Y0051426D01*
X0039426Y0052424D02*
X0055302Y0052424D01*
X0055302Y0053423D02*
X0039624Y0053423D01*
X0039655Y0054421D02*
X0055229Y0054421D01*
X0055006Y0055420D02*
X0039457Y0055420D01*
X0039258Y0056418D02*
X0054681Y0056418D01*
X0054334Y0057417D02*
X0039059Y0057417D01*
X0038484Y0058415D02*
X0053608Y0058415D01*
X0052883Y0059414D02*
X0037816Y0059414D01*
X0037149Y0060412D02*
X0051571Y0060412D01*
X0049623Y0061411D02*
X0035871Y0061411D01*
X0024733Y0061411D02*
X0008981Y0061411D01*
X0007033Y0060412D02*
X0023455Y0060412D01*
X0022788Y0059414D02*
X0005721Y0059414D01*
X0004996Y0058415D02*
X0022120Y0058415D01*
X0021545Y0057417D02*
X0004270Y0057417D01*
X0003923Y0056418D02*
X0021346Y0056418D01*
X0021147Y0055420D02*
X0019756Y0055420D01*
X0020101Y0054421D02*
X0020949Y0054421D01*
X0020980Y0053423D02*
X0020101Y0053423D01*
X0020101Y0052424D02*
X0021178Y0052424D01*
X0021377Y0051426D02*
X0016542Y0051426D01*
X0016542Y0052424D02*
X0015542Y0052424D01*
X0015542Y0053423D02*
X0016542Y0053423D01*
X0016542Y0054421D02*
X0015542Y0054421D01*
X0015542Y0055420D02*
X0016542Y0055420D01*
X0012329Y0055420D02*
X0012275Y0055420D01*
X0015542Y0050427D02*
X0016542Y0050427D01*
X0016542Y0049429D02*
X0015542Y0049429D01*
X0015542Y0048430D02*
X0016542Y0048430D01*
X0016542Y0047432D02*
X0015542Y0047432D01*
X0015556Y0046433D02*
X0024967Y0046433D01*
X0023559Y0047432D02*
X0019607Y0047432D01*
X0020101Y0048430D02*
X0022892Y0048430D01*
X0022225Y0049429D02*
X0020101Y0049429D01*
X0020101Y0050427D02*
X0021576Y0050427D01*
X0026461Y0045434D02*
X0016554Y0045434D01*
X0017553Y0044436D02*
X0023603Y0044436D01*
X0022737Y0043437D02*
X0018552Y0043437D01*
X0021783Y0042439D02*
X0022433Y0042439D01*
X0022501Y0041440D02*
X0021783Y0041440D01*
X0022347Y0040442D02*
X0022955Y0040442D01*
X0023346Y0039443D02*
X0024220Y0039443D01*
X0025113Y0039443D02*
X0025491Y0039443D01*
X0025491Y0040442D02*
X0025113Y0040442D01*
X0025113Y0041440D02*
X0025491Y0041440D01*
X0025491Y0042439D02*
X0025113Y0042439D01*
X0025113Y0043437D02*
X0025491Y0043437D01*
X0025491Y0044436D02*
X0025113Y0044436D01*
X0027001Y0044436D02*
X0033603Y0044436D01*
X0032737Y0043437D02*
X0032181Y0043437D01*
X0030802Y0043437D02*
X0029802Y0043437D01*
X0029802Y0042439D02*
X0030802Y0042439D01*
X0028423Y0043437D02*
X0027867Y0043437D01*
X0027129Y0039443D02*
X0026384Y0039443D01*
X0025523Y0038445D02*
X0024344Y0038445D01*
X0025343Y0037446D02*
X0025752Y0037446D01*
X0026102Y0036448D02*
X0026214Y0036448D01*
X0026102Y0035449D02*
X0027054Y0035449D01*
X0026738Y0034451D02*
X0028747Y0034451D01*
X0029802Y0034451D02*
X0030802Y0034451D01*
X0030802Y0035449D02*
X0029802Y0035449D01*
X0031857Y0034451D02*
X0039003Y0034451D01*
X0039378Y0035449D02*
X0033550Y0035449D01*
X0034390Y0036448D02*
X0048702Y0036448D01*
X0046858Y0035449D02*
X0046746Y0035449D01*
X0046766Y0037446D02*
X0045677Y0037446D01*
X0043062Y0037446D02*
X0042062Y0037446D01*
X0042062Y0038445D02*
X0043062Y0038445D01*
X0043062Y0039443D02*
X0042062Y0039443D01*
X0042062Y0040442D02*
X0043062Y0040442D01*
X0043062Y0041440D02*
X0042062Y0041440D01*
X0042062Y0042439D02*
X0038171Y0042439D01*
X0038103Y0041440D02*
X0038503Y0041440D01*
X0038503Y0040442D02*
X0037649Y0040442D01*
X0038503Y0039443D02*
X0036384Y0039443D01*
X0035491Y0039443D02*
X0035113Y0039443D01*
X0035113Y0040442D02*
X0035491Y0040442D01*
X0035491Y0041440D02*
X0035113Y0041440D01*
X0035113Y0042439D02*
X0035491Y0042439D01*
X0035491Y0043437D02*
X0035113Y0043437D01*
X0035113Y0044436D02*
X0035491Y0044436D01*
X0034143Y0045434D02*
X0038526Y0045434D01*
X0039226Y0046433D02*
X0035637Y0046433D01*
X0037001Y0044436D02*
X0038503Y0044436D01*
X0038503Y0043437D02*
X0037867Y0043437D01*
X0034220Y0039443D02*
X0033475Y0039443D01*
X0035081Y0038445D02*
X0038559Y0038445D01*
X0039447Y0037446D02*
X0034852Y0037446D01*
X0039003Y0033452D02*
X0027702Y0033452D01*
X0027702Y0032454D02*
X0039003Y0032454D01*
X0039003Y0031455D02*
X0036489Y0031455D01*
X0037440Y0030457D02*
X0039003Y0030457D01*
X0039003Y0029458D02*
X0037854Y0029458D01*
X0037904Y0028460D02*
X0039003Y0028460D01*
X0039467Y0027461D02*
X0037728Y0027461D01*
X0038726Y0026463D02*
X0039902Y0026463D01*
X0034042Y0021000D02*
X0034042Y0017047D01*
X0035641Y0017047D01*
X0035641Y0016835D01*
X0036429Y0016047D01*
X0036300Y0015993D01*
X0034809Y0014502D01*
X0034299Y0013272D01*
X0034214Y0013534D01*
X0033835Y0014278D01*
X0033345Y0014953D01*
X0032755Y0015543D01*
X0032080Y0016033D01*
X0031336Y0016412D01*
X0030543Y0016669D01*
X0029786Y0016789D01*
X0029786Y0011984D01*
X0028818Y0011984D01*
X0028818Y0016789D01*
X0028061Y0016669D01*
X0027267Y0016412D01*
X0026524Y0016033D01*
X0025849Y0015543D01*
X0025259Y0014953D01*
X0024769Y0014278D01*
X0024390Y0013534D01*
X0024305Y0013272D01*
X0024058Y0013869D01*
X0027236Y0017047D01*
X0029242Y0017047D01*
X0029802Y0017607D01*
X0030062Y0017347D01*
X0030404Y0017149D01*
X0030786Y0017047D01*
X0033042Y0017047D01*
X0033042Y0021000D01*
X0034042Y0021000D01*
X0034042Y0020472D02*
X0033042Y0020472D01*
X0033042Y0019473D02*
X0034042Y0019473D01*
X0034042Y0018475D02*
X0033042Y0018475D01*
X0033042Y0017476D02*
X0034042Y0017476D01*
X0035998Y0016478D02*
X0031133Y0016478D01*
X0029786Y0016478D02*
X0028818Y0016478D01*
X0029671Y0017476D02*
X0029933Y0017476D01*
X0029786Y0015479D02*
X0028818Y0015479D01*
X0028818Y0014481D02*
X0029786Y0014481D01*
X0029786Y0013482D02*
X0028818Y0013482D01*
X0028818Y0012484D02*
X0029786Y0012484D01*
X0029786Y0010487D02*
X0028818Y0010487D01*
X0028818Y0009488D02*
X0029786Y0009488D01*
X0029786Y0008490D02*
X0028818Y0008490D01*
X0028818Y0007491D02*
X0029786Y0007491D01*
X0029786Y0006493D02*
X0028818Y0006493D01*
X0027562Y0006493D02*
X0021063Y0006493D01*
X0022788Y0007491D02*
X0025816Y0007491D01*
X0024938Y0008490D02*
X0023787Y0008490D01*
X0024205Y0009488D02*
X0024383Y0009488D01*
X0024373Y0013482D02*
X0024218Y0013482D01*
X0024670Y0014481D02*
X0024916Y0014481D01*
X0025668Y0015479D02*
X0025786Y0015479D01*
X0026667Y0016478D02*
X0027471Y0016478D01*
X0022372Y0017557D02*
X0021246Y0016431D01*
X0020356Y0016800D01*
X0018248Y0016800D01*
X0016300Y0015993D01*
X0014809Y0014502D01*
X0014302Y0013278D01*
X0013795Y0014502D01*
X0012304Y0015993D01*
X0010356Y0016800D01*
X0010189Y0016800D01*
X0010902Y0017513D01*
X0010902Y0018547D01*
X0012242Y0018547D01*
X0012802Y0019107D01*
X0013062Y0018847D01*
X0013404Y0018649D01*
X0013786Y0018547D01*
X0016042Y0018547D01*
X0016042Y0022500D01*
X0017042Y0022500D01*
X0017042Y0018547D01*
X0019299Y0018547D01*
X0019680Y0018649D01*
X0020022Y0018847D01*
X0020301Y0019126D01*
X0020499Y0019468D01*
X0020601Y0019850D01*
X0020601Y0022500D01*
X0017042Y0022500D01*
X0017042Y0023500D01*
X0016042Y0023500D01*
X0016042Y0027453D01*
X0013786Y0027453D01*
X0013404Y0027351D01*
X0013062Y0027153D01*
X0012802Y0026893D01*
X0012242Y0027453D01*
X0010102Y0027453D01*
X0010102Y0030677D01*
X0010667Y0030677D01*
X0011546Y0031556D01*
X0011546Y0031757D01*
X0011702Y0031913D01*
X0013302Y0033513D01*
X0013302Y0039887D01*
X0012189Y0041000D01*
X0011546Y0041643D01*
X0011546Y0042444D01*
X0011190Y0042800D01*
X0013815Y0042800D01*
X0014115Y0042500D01*
X0014058Y0042444D01*
X0014058Y0039036D01*
X0014937Y0038157D01*
X0019258Y0038157D01*
X0022302Y0035113D01*
X0022302Y0033513D01*
X0023902Y0031913D01*
X0023902Y0031243D01*
X0023198Y0030538D01*
X0022700Y0029336D01*
X0022700Y0028034D01*
X0023198Y0026832D01*
X0024077Y0025953D01*
X0022881Y0025953D01*
X0022003Y0025074D01*
X0022003Y0017926D01*
X0022372Y0017557D01*
X0022291Y0017476D02*
X0010865Y0017476D01*
X0011134Y0016478D02*
X0017470Y0016478D01*
X0015786Y0015479D02*
X0012818Y0015479D01*
X0013804Y0014481D02*
X0014800Y0014481D01*
X0014386Y0013482D02*
X0014218Y0013482D01*
X0014205Y0009488D02*
X0014399Y0009488D01*
X0014817Y0008490D02*
X0013787Y0008490D01*
X0012788Y0007491D02*
X0015816Y0007491D01*
X0017541Y0006493D02*
X0011063Y0006493D01*
X0007541Y0006493D02*
X0003302Y0006493D01*
X0003302Y0005494D02*
X0045521Y0005494D01*
X0046519Y0004496D02*
X0003302Y0004496D01*
X0003302Y0003497D02*
X0055302Y0003497D01*
X0055302Y0004496D02*
X0052285Y0004496D01*
X0053283Y0005494D02*
X0055302Y0005494D01*
X0055302Y0006493D02*
X0054282Y0006493D01*
X0055280Y0007491D02*
X0055302Y0007491D01*
X0044522Y0006493D02*
X0041063Y0006493D01*
X0042788Y0007491D02*
X0043524Y0007491D01*
X0037541Y0006493D02*
X0031042Y0006493D01*
X0032788Y0007491D02*
X0035816Y0007491D01*
X0034817Y0008490D02*
X0033666Y0008490D01*
X0034221Y0009488D02*
X0034399Y0009488D01*
X0034386Y0013482D02*
X0034231Y0013482D01*
X0033688Y0014481D02*
X0034800Y0014481D01*
X0035786Y0015479D02*
X0032818Y0015479D01*
X0023567Y0026463D02*
X0020517Y0026463D01*
X0020499Y0026532D02*
X0020301Y0026874D01*
X0020022Y0027153D01*
X0019680Y0027351D01*
X0019299Y0027453D01*
X0017042Y0027453D01*
X0017042Y0023500D01*
X0020601Y0023500D01*
X0020601Y0026150D01*
X0020499Y0026532D01*
X0020601Y0025464D02*
X0022393Y0025464D01*
X0022003Y0024466D02*
X0020601Y0024466D01*
X0022003Y0023467D02*
X0017042Y0023467D01*
X0017042Y0022469D02*
X0016042Y0022469D01*
X0016042Y0021470D02*
X0017042Y0021470D01*
X0017042Y0020472D02*
X0016042Y0020472D01*
X0016042Y0019473D02*
X0017042Y0019473D01*
X0020500Y0019473D02*
X0022003Y0019473D01*
X0022003Y0018475D02*
X0010902Y0018475D01*
X0006490Y0018475D02*
X0003302Y0018475D01*
X0003302Y0019473D02*
X0005003Y0019473D01*
X0005003Y0020472D02*
X0003302Y0020472D01*
X0003302Y0021470D02*
X0005003Y0021470D01*
X0005003Y0022469D02*
X0003302Y0022469D01*
X0003302Y0023467D02*
X0005003Y0023467D01*
X0005003Y0024466D02*
X0003302Y0024466D01*
X0003302Y0025464D02*
X0005003Y0025464D01*
X0005003Y0026463D02*
X0003302Y0026463D01*
X0003302Y0027461D02*
X0006302Y0027461D01*
X0006302Y0028460D02*
X0003302Y0028460D01*
X0003302Y0029458D02*
X0006302Y0029458D01*
X0006302Y0030457D02*
X0003302Y0030457D01*
X0003302Y0031455D02*
X0003922Y0031455D01*
X0003821Y0032454D02*
X0003302Y0032454D01*
X0003302Y0033452D02*
X0003821Y0033452D01*
X0003821Y0034451D02*
X0003302Y0034451D01*
X0003302Y0035449D02*
X0003894Y0035449D01*
X0003821Y0036448D02*
X0003302Y0036448D01*
X0003302Y0037446D02*
X0003821Y0037446D01*
X0003865Y0038445D02*
X0003302Y0038445D01*
X0003302Y0039443D02*
X0003821Y0039443D01*
X0003821Y0040442D02*
X0003302Y0040442D01*
X0003302Y0041440D02*
X0003821Y0041440D01*
X0003821Y0042439D02*
X0003302Y0042439D01*
X0003302Y0043437D02*
X0009978Y0043437D01*
X0008979Y0044436D02*
X0003302Y0044436D01*
X0003302Y0045434D02*
X0007980Y0045434D01*
X0007902Y0046433D02*
X0003302Y0046433D01*
X0003302Y0047432D02*
X0004997Y0047432D01*
X0004503Y0048430D02*
X0003302Y0048430D01*
X0003302Y0049429D02*
X0004503Y0049429D01*
X0004503Y0050427D02*
X0003302Y0050427D01*
X0003302Y0051426D02*
X0004503Y0051426D01*
X0004503Y0052424D02*
X0003302Y0052424D01*
X0003302Y0053423D02*
X0004503Y0053423D01*
X0004503Y0054421D02*
X0003374Y0054421D01*
X0003598Y0055420D02*
X0004848Y0055420D01*
X0012126Y0047432D02*
X0012477Y0047432D01*
X0011546Y0042439D02*
X0014058Y0042439D01*
X0014058Y0041440D02*
X0011749Y0041440D01*
X0012747Y0040442D02*
X0014058Y0040442D01*
X0014058Y0039443D02*
X0013302Y0039443D01*
X0013302Y0038445D02*
X0014650Y0038445D01*
X0013302Y0037446D02*
X0019969Y0037446D01*
X0020967Y0036448D02*
X0013302Y0036448D01*
X0013302Y0035449D02*
X0014544Y0035449D01*
X0014937Y0035843D02*
X0014058Y0034964D01*
X0014058Y0031556D01*
X0014937Y0030677D01*
X0020904Y0030677D01*
X0021783Y0031556D01*
X0021783Y0034964D01*
X0020904Y0035843D01*
X0014937Y0035843D01*
X0014058Y0034451D02*
X0013302Y0034451D01*
X0013241Y0033452D02*
X0014058Y0033452D01*
X0014058Y0032454D02*
X0012243Y0032454D01*
X0011445Y0031455D02*
X0014159Y0031455D01*
X0010102Y0030457D02*
X0023164Y0030457D01*
X0023902Y0031455D02*
X0021682Y0031455D01*
X0021783Y0032454D02*
X0023361Y0032454D01*
X0022363Y0033452D02*
X0021783Y0033452D01*
X0021783Y0034451D02*
X0022302Y0034451D01*
X0021966Y0035449D02*
X0021297Y0035449D01*
X0022750Y0029458D02*
X0010102Y0029458D01*
X0010102Y0028460D02*
X0022700Y0028460D01*
X0022937Y0027461D02*
X0010102Y0027461D01*
X0016042Y0026463D02*
X0017042Y0026463D01*
X0017042Y0025464D02*
X0016042Y0025464D01*
X0016042Y0024466D02*
X0017042Y0024466D01*
X0020601Y0022469D02*
X0022003Y0022469D01*
X0022003Y0021470D02*
X0020601Y0021470D01*
X0020601Y0020472D02*
X0022003Y0020472D01*
X0021293Y0016478D02*
X0021134Y0016478D01*
X0029916Y0029458D02*
X0030688Y0029458D01*
X0030688Y0030457D02*
X0029916Y0030457D01*
X0029916Y0031455D02*
X0030688Y0031455D01*
X0032045Y0031455D02*
X0032776Y0031455D01*
X0028559Y0031455D02*
X0027828Y0031455D01*
X0042062Y0043437D02*
X0043062Y0043437D01*
X0043062Y0044436D02*
X0042062Y0044436D01*
X0042062Y0045434D02*
X0043062Y0045434D01*
X0043062Y0046433D02*
X0042062Y0046433D01*
X0045898Y0046433D02*
X0046645Y0046433D01*
X0046656Y0027461D02*
X0046948Y0027461D01*
X0006302Y0017476D02*
X0003302Y0017476D01*
X0003302Y0016478D02*
X0006302Y0016478D01*
X0005786Y0015479D02*
X0003302Y0015479D01*
X0003302Y0014481D02*
X0004800Y0014481D01*
X0004386Y0013482D02*
X0003302Y0013482D01*
X0003302Y0012484D02*
X0004002Y0012484D01*
X0004002Y0011485D02*
X0003302Y0011485D01*
X0003302Y0010487D02*
X0004002Y0010487D01*
X0004399Y0009488D02*
X0003302Y0009488D01*
X0003302Y0008490D02*
X0004817Y0008490D01*
X0005816Y0007491D02*
X0003302Y0007491D01*
D22*
X0016542Y0023000D02*
X0016542Y0029638D01*
X0014458Y0031722D01*
X0014458Y0038966D01*
X0010501Y0042923D01*
X0009879Y0042923D01*
X0008802Y0044000D01*
X0007725Y0042923D01*
X0004866Y0042923D01*
X0004221Y0042278D01*
X0004221Y0036919D01*
X0003802Y0036500D01*
X0007183Y0036500D01*
X0007683Y0037000D01*
X0030302Y0028685D02*
X0030302Y0024740D01*
X0033542Y0021500D01*
M02*
