%
M48
M72
T01C0.01378
T02C0.03150
T03C0.03200
T04C0.03543
T05C0.03937
T06C0.04000
T07C0.05906
T08C0.07000
T09C0.28346
%
T01
X39224Y13931
X92639Y9769
X98883Y12543
X151604Y18787
X153685Y14624
X186983Y22949
X207794Y27805
X216118Y34048
X232767Y36823
X236235Y39598
X229992Y40291
X216118Y38210
X202244Y41679
X216118Y42372
X213343Y47922
X223749Y50697
X202938Y57634
X220974Y61102
X230686Y59021
X243866Y60409
X254272Y63877
X241091Y65958
X260515Y70120
X193920Y65265
X180739Y59715
X180046Y52084
X141892Y66652
X124550Y68039
X114838Y65958
X95414Y64571
X91252Y64571
X60035Y45841
X44080Y43066
X71828Y33354
X123856Y31273
X212650Y15318
X248028Y14624
X245254Y25030
X256353Y25724
X262596Y31967
X271614Y36129
X250109Y40985
X252884Y43760
X255659Y46535
X269533Y51391
X297975Y54859
X304912Y43760
X295200Y40985
X312543Y39598
X296587Y27805
X326417Y23643
X335435Y22949
X356246Y16706
T02
X262508Y56363
X262508Y64237
T03
X338008Y16300
X348008Y16300
T04
X373008Y16300
X342808Y27914
X285508Y26300
X285508Y16300
X342808Y54686
X285508Y58800
X285508Y68800
X223008Y70300
X213008Y70300
X203008Y70300
X75008Y54686
X47378Y54686
X47378Y27914
X75008Y27914
X373008Y68800
T05
X190567Y51143
X190567Y41300
X190567Y31457
X135567Y31457
X135567Y41300
X135567Y51143
T06
X248008Y55600
X248008Y67000
T07
X163008Y60985
X108008Y60985
X108008Y21615
X163008Y21615
T08
X55114Y41772
X27555Y41772
X334917Y40828
X362476Y40828
T09
X163008Y41300
X108008Y41300
M30
