G75*
%MOIN*%
%OFA0B0*%
%FSLAX25Y25*%
%IPPOS*%
%LPD*%
%AMOC8*
5,1,8,0,0,1.08239X$1,22.5*
%
%ADD10C,0.08200*%
%ADD11C,0.07800*%
%ADD12R,0.07800X0.07800*%
%ADD13OC8,0.06000*%
%ADD14C,0.06400*%
%ADD15R,0.06312X0.05524*%
%ADD16C,0.04343*%
%ADD17R,0.06706X0.07099*%
%ADD18R,0.05524X0.05524*%
%ADD19R,0.06343X0.06343*%
%ADD20R,0.08200X0.08200*%
%ADD21OC8,0.09658*%
%ADD22C,0.29146*%
D10*
X0248008Y0055600D03*
X0248008Y0067000D03*
D11*
X0223008Y0070300D03*
X0213008Y0070300D03*
X0334917Y0040828D03*
X0362476Y0040828D03*
X0055114Y0041772D03*
X0027555Y0041772D03*
D12*
X0203008Y0070300D03*
D13*
X0338008Y0016300D03*
X0348008Y0016300D03*
D14*
X0262508Y0056363D03*
X0262508Y0064237D03*
D15*
X0334146Y0051143D03*
X0351469Y0041300D03*
X0334146Y0031457D03*
X0083669Y0031457D03*
X0066346Y0031300D03*
X0056039Y0031457D03*
X0066346Y0041300D03*
X0083669Y0041457D03*
X0083669Y0051143D03*
X0066346Y0051300D03*
X0056039Y0051143D03*
X0038717Y0041300D03*
D16*
X0047378Y0054686D03*
X0075008Y0054686D03*
X0075008Y0027914D03*
X0047378Y0027914D03*
X0342808Y0027914D03*
X0342808Y0054686D03*
D17*
X0207508Y0047206D03*
D18*
X0211445Y0034115D03*
X0203571Y0034115D03*
D19*
X0285508Y0026300D03*
X0285508Y0016300D03*
X0373008Y0016300D03*
X0285508Y0058800D03*
X0285508Y0068800D03*
X0373008Y0068800D03*
D20*
X0190567Y0051143D03*
X0190567Y0041300D03*
X0190567Y0031457D03*
X0135567Y0031457D03*
X0135567Y0041300D03*
X0135567Y0051143D03*
D21*
X0108008Y0021615D03*
X0163008Y0021615D03*
X0163008Y0060985D03*
X0108008Y0060985D03*
D22*
X0108008Y0041300D03*
X0163008Y0041300D03*
M02*
