G75*
%MOIN*%
%OFA0B0*%
%FSLAX25Y25*%
%IPPOS*%
%LPD*%
%AMOC8*
5,1,8,0,0,1.08239X$1,22.5*
%
%ADD10C,0.00500*%
%ADD11C,0.01000*%
D10*
X0040488Y0024568D02*
X0040488Y0058032D01*
X0054268Y0058032D01*
X0054268Y0024568D01*
X0040488Y0024568D01*
X0068118Y0024568D02*
X0068118Y0058032D01*
X0081898Y0058032D01*
X0081898Y0024568D01*
X0068118Y0024568D01*
X0072055Y0034213D02*
X0077961Y0034213D01*
X0077961Y0040119D01*
X0077961Y0042087D01*
X0077961Y0047993D01*
X0072055Y0047993D01*
X0072055Y0040119D01*
X0077961Y0040119D01*
X0072055Y0040119D02*
X0072055Y0034213D01*
X0050331Y0034213D02*
X0050331Y0040119D01*
X0050331Y0042087D01*
X0050331Y0047993D01*
X0044425Y0047993D01*
X0044425Y0040119D01*
X0050331Y0040119D01*
X0044425Y0040119D02*
X0044425Y0034213D01*
X0050331Y0034213D01*
X0050331Y0042087D02*
X0044425Y0042087D01*
X0072055Y0042087D02*
X0077961Y0042087D01*
X0278008Y0073800D02*
X0278008Y0008800D01*
X0378008Y0008800D01*
X0378008Y0073800D01*
X0278008Y0073800D01*
X0335918Y0058032D02*
X0335918Y0024568D01*
X0349698Y0024568D01*
X0349698Y0058032D01*
X0335918Y0058032D01*
X0339855Y0048387D02*
X0339855Y0042481D01*
X0339855Y0040513D01*
X0339855Y0034607D01*
X0345761Y0034607D01*
X0345761Y0042481D01*
X0339855Y0042481D01*
X0345761Y0042481D02*
X0345761Y0048387D01*
X0339855Y0048387D01*
X0339855Y0040513D02*
X0345761Y0040513D01*
D11*
X0213217Y0039725D02*
X0213217Y0048190D01*
X0210854Y0048190D01*
X0204161Y0048190D02*
X0201799Y0048190D01*
X0201799Y0039725D01*
M02*
