0
SECTION
2
HEADER
9
$INSUNITS
70
4
9
$ACADVER
1
AC1014
9
$HANDSEED
5
FFFF
0
ENDSEC
0
SECTION
2
TABLES
0
TABLE
2
VPORT
5
8
100
AcDbSymbolTable
0
ENDTAB
0
TABLE
2
LTYPE
5
5
100
AcDbSymbolTable
0
LTYPE
5
14
100
AcDbSymbolTableRecord
100
AcDbLinetypeTableRecord
2
BYBLOCK
70
0
0
LTYPE
5
15
100
AcDbSymbolTableRecord
100
AcDbLinetypeTableRecord
2
BYLAYER
70
0
0
ENDTAB
0
TABLE
2
LAYER
5
2
100
AcDbSymbolTable
70
2
0
LAYER
5
50
100
AcDbSymbolTableRecord
100
AcDbLayerTableRecord
2
0
70
0
6
CONTINUOUS
0
ENDTAB
0
TABLE
2
STYLE
5
3
100
AcDbSymbolTable
70
1
0
STYLE
5
11
100
AcDbSymbolTableRecord
100
AcDbTextStyleTableRecord
2
STANDARD
70
0
0
ENDTAB
0
TABLE
2
VIEW
5
6
100
AcDbSymbolTable
70
0
0
ENDTAB
0
TABLE
2
UCS
5
7
100
AcDbSymbolTable
70
0
0
ENDTAB
0
TABLE
2
APPID
5
9
100
AcDbSymbolTable
70
2
0
APPID
5
12
100
AcDbSymbolTableRecord
100
AcDbRegAppTableRecord
2
ACAD
70
0
0
ENDTAB
0
TABLE
2
DIMSTYLE
5
A
100
AcDbSymbolTable
70
1
0
ENDTAB
0
TABLE
2
BLOCK_RECORD
5
1
100
AcDbSymbolTable
70
1
0
BLOCK_RECORD
5
1F
100
AcDbSymbolTableRecord
100
AcDbBlockTableRecord
2
*MODEL_SPACE
0
BLOCK_RECORD
5
1B
100
AcDbSymbolTableRecord
100
AcDbBlockTableRecord
2
*PAPER_SPACE
0
ENDTAB
0
ENDSEC
0
SECTION
2
BLOCKS
0
BLOCK
5
20
100
AcDbEntity
100
AcDbBlockBegin
2
*MODEL_SPACE
0
ENDBLK
5
21
100
AcDbEntity
100
AcDbBlockEnd
0
BLOCK
5
1C
100
AcDbEntity
100
AcDbBlockBegin
2
*PAPER_SPACE
0
ENDBLK
5
1D
100
AcDbEntity
100
AcDbBlockEnd
0
ENDSEC
0
SECTION
2
ENTITIES
0
LWPOLYLINE
5
100
100
AcDbEntity
8
0
100
AcDbPolyline
90
48
70
1
43
0.0
10
69.250372823698711
20
171.65102284582412
10
69.250372823698711
20
164.0811541008531
10
72.425999399646201
20
164.0811541008531
10
72.425999399646201
20
156.4109104803087
10
69.250372823698711
20
156.4109104803087
10
62.900897125755222
20
156.4109104803087
10
62.900897125755222
20
153.23530099526442
10
56.499499263331714
20
153.23530099526442
10
56.499499263331714
20
156.4109104803087
10
50.201125366506254
20
156.4109104803087
10
50.201125366506254
20
153.23530099526442
10
43.799693322275921
20
153.23530099526442
10
43.799693322275921
20
156.4109104803087
10
37.450251806139399
20
156.4109104803087
10
34.274625230191731
20
156.4109104803087
10
34.274625230191731
20
164.0811541008531
10
37.450251806139399
20
164.0811541008531
10
37.450251806139399
20
171.65102284582412
10
34.274625230191731
20
171.65102284582412
10
34.274625230191731
20
179.32126646636846
10
37.450251806139399
20
179.32126646636846
10
37.450251806139399
20
186.89024648436356
10
34.274625230191731
20
186.89024648436356
10
34.274625230191731
20
194.5613788318839
10
37.450251806139399
20
194.5613788318839
10
37.450251806139399
20
202.13035884987892
10
34.274625230191731
20
202.13035884987892
10
34.274625230191731
20
209.80149119739923
10
37.450251806139399
20
209.80149119739923
10
43.799693322275921
20
209.80149119739923
10
43.799693322275921
20
212.97621195546759
10
50.201125366506254
20
212.97621195546759
10
50.201125366506254
20
209.80149119739923
10
56.499499263331714
20
209.80149119739923
10
56.499499263331714
20
212.97621195546759
10
62.900897125755222
20
212.97621195546759
10
62.900897125755222
20
209.80149119739923
10
69.250372823698711
20
209.80149119739923
10
72.425999399646201
20
209.80149119739923
10
72.425999399646201
20
202.13035884987892
10
69.250372823698711
20
202.13035884987892
10
69.250372823698711
20
194.5613788318839
10
72.425999399646201
20
194.5613788318839
10
72.425999399646201
20
186.89024648436356
10
69.250372823698711
20
186.89024648436356
10
69.250372823698711
20
179.32126646636846
10
72.425999399646201
20
179.32126646636846
10
72.425999399646201
20
171.65102284582412
0
LWPOLYLINE
5
101
100
AcDbEntity
8
0
100
AcDbPolyline
90
52
70
1
43
0.0
10
-8.6779912150905147
20
37.561351276880899
10
-14.43246420262831
20
37.561351276880899
10
-14.43246420262831
20
34.386630518812638
10
-20.289089519691323
20
34.386630518812638
10
-23.464699004735579
20
34.386630518812638
10
-23.464699004735579
20
37.561351276880899
10
-23.464699004735579
20
43.961877503231825
10
-20.289089519691323
20
43.961877503231825
10
-20.289089519691323
20
50.261148672485078
10
-23.464699004735579
20
50.261148672485078
10
-23.464699004735579
20
56.661674898836054
10
-20.289089519691323
20
56.661674898836054
10
-20.289089519691323
20
62.960946068089285
10
-23.464699004735579
20
62.960946068089285
10
-23.464699004735579
20
69.362369566867812
10
-23.464699004735579
20
72.537090324936145
10
-20.289089519691323
20
72.537090324936145
10
-14.43246420262831
20
72.537090324936145
10
-14.43246420262831
20
69.362369566867812
10
-8.6779912150905147
20
69.362369566867812
10
-8.6779912150905147
20
72.537090324936145
10
-2.8213829889308073
20
72.537090324936145
10
-2.8213829889308073
20
69.362369566867812
10
2.9330899986069525
20
69.362369566867812
10
2.9330899986069525
20
72.537090324936145
10
8.7897153156700014
20
72.537090324936145
10
8.7897153156700014
20
69.362369566867812
10
14.54507703018372
20
69.362369566867812
10
14.54507703018372
20
72.537090324936145
10
20.401702347246804
20
72.537090324936145
10
23.576423105315065
20
72.537090324936145
10
23.576423105315065
20
69.362369566867812
10
23.576423105315065
20
62.960946068089285
10
20.401702347246804
20
62.960946068089285
10
20.401702347246804
20
56.661674898836054
10
23.576423105315065
20
56.661674898836054
10
23.576423105315065
20
50.261148672485078
10
20.401702347246804
20
50.261148672485078
10
20.401702347246804
20
43.961877503231825
10
23.576423105315065
20
43.961877503231825
10
23.576423105315065
20
37.561351276880899
10
23.576423105315065
20
34.386630518812638
10
20.401702347246804
20
34.386630518812638
10
14.54507703018372
20
34.386630518812638
10
14.54507703018372
20
37.561351276880899
10
8.7897153156700014
20
37.561351276880899
10
8.7897153156700014
20
34.386630518812638
10
2.9330899986069525
20
34.386630518812638
10
2.9330899986069525
20
37.561351276880899
10
-2.8213829889308073
20
37.561351276880899
10
-2.8213829889308073
20
34.386630518812638
10
-8.6779912150905147
20
34.386630518812638
0
LWPOLYLINE
5
102
100
AcDbEntity
8
0
100
AcDbPolyline
90
6
70
1
43
0.0
10
-23.464699004735579
20
132.1814435600933
10
-20.289089519691323
20
132.1814435600933
10
-20.289089519691323
20
139.80149119739923
10
-14.483531821939231
20
139.80149119739923
10
-14.483531821939231
20
142.97621195546759
10
-23.464699004735579
20
142.97621195546759
0
LWPOLYLINE
5
103
100
AcDbEntity
8
0
100
AcDbPolyline
90
6
70
1
43
0.0
10
-20.289089519691323
20
94.030975208518086
10
-23.464699004735579
20
94.030975208518086
10
-23.464699004735579
20
83.235300995264438
10
-14.483531821939231
20
83.235300995264438
10
-14.483531821939231
20
86.410910480308701
10
-20.289089519691323
20
86.410910480308701
0
LWPOLYLINE
5
104
100
AcDbEntity
8
0
100
AcDbPolyline
90
4
70
1
43
0.0
10
-23.464699004735579
20
116.9413141036745
10
-20.289089519691323
20
116.9413141036745
10
-20.289089519691323
20
124.5103112125729
10
-23.464699004735579
20
124.5103112125729
0
LWPOLYLINE
5
105
100
AcDbEntity
8
0
100
AcDbPolyline
90
4
70
1
43
0.0
10
-20.289089519691323
20
109.27019884705754
10
-23.464699004735579
20
109.27019884705754
10
-23.464699004735579
20
101.7012017381591
10
-20.289089519691323
20
101.7012017381591
0
LWPOLYLINE
5
106
100
AcDbEntity
8
0
100
AcDbPolyline
90
4
70
1
43
0.0
10
-2.8724506082417989
20
83.235300995264438
10
-2.8724506082417989
20
86.410910480308701
10
-8.6269235957795587
20
86.410910480308701
10
-8.6269235957795587
20
83.235300995264438
0
LWPOLYLINE
5
107
100
AcDbEntity
8
0
100
AcDbPolyline
90
4
70
1
43
0.0
10
8.7395364233350037
20
139.80149119739923
10
8.7395364233350037
20
142.97621195546759
10
2.9841747088212855
20
142.97621195546759
10
2.9841747088212855
20
139.80149119739923
0
LWPOLYLINE
5
108
100
AcDbEntity
8
0
100
AcDbPolyline
90
4
70
1
43
0.0
10
-8.6269235957795587
20
139.80149119739923
10
-2.8724506082417989
20
139.80149119739923
10
-2.8724506082417989
20
142.97621195546759
10
-8.6269235957795587
20
142.97621195546759
0
LWPOLYLINE
5
109
100
AcDbEntity
8
0
100
AcDbPolyline
90
4
70
1
43
0.0
10
8.7395364233350037
20
86.410910480308701
10
2.9841747088212855
20
86.410910480308701
10
2.9841747088212855
20
83.235300995264438
10
8.7395364233350037
20
83.235300995264438
0
LWPOLYLINE
5
110
100
AcDbEntity
8
0
100
AcDbPolyline
90
6
70
1
43
0.0
10
23.576423105315065
20
94.030975208518086
10
20.401702347246804
20
94.030975208518086
10
20.401702347246804
20
86.410910480308701
10
14.595255922518753
20
86.410910480308701
10
14.595255922518753
20
83.235300995264438
10
23.576423105315065
20
83.235300995264438
0
LWPOLYLINE
5
111
100
AcDbEntity
8
0
100
AcDbPolyline
90
52
70
1
43
0.0
10
-23.464699004735579
20
175.95037282369873
10
-20.289089519691323
20
175.95037282369873
10
-20.289089519691323
20
182.24963544750034
10
-23.464699004735579
20
182.24963544750034
10
-23.464699004735579
20
188.65106749173043
10
-23.464699004735579
20
191.82577115889544
10
-20.289089519691323
20
191.82577115889544
10
-14.43246420262831
20
191.82577115889544
10
-14.43246420262831
20
188.65106749173043
10
-8.6779912150905147
20
188.65106749173043
10
-8.6779912150905147
20
191.82577115889544
10
-2.8213829889308073
20
191.82577115889544
10
-2.8213829889308073
20
188.65106749173043
10
2.9330899986069525
20
188.65106749173043
10
2.9330899986069525
20
191.82577115889544
10
8.7897153156700014
20
191.82577115889544
10
8.7897153156700014
20
188.65106749173043
10
14.54507703018372
20
188.65106749173043
10
14.54507703018372
20
191.82577115889544
10
20.401702347246804
20
191.82577115889544
10
23.576423105315065
20
191.82577115889544
10
23.576423105315065
20
188.65106749173043
10
23.576423105315065
20
182.24963544750034
10
20.401702347246804
20
182.24963544750034
10
20.401702347246804
20
175.95037282369873
10
23.576423105315065
20
175.95037282369873
10
23.576423105315065
20
169.54982950644444
10
20.401702347246804
20
169.54982950644444
10
20.401702347246804
20
163.2505668826428
10
23.576423105315065
20
163.2505668826428
10
23.576423105315065
20
156.85005774719519
10
23.576423105315065
20
153.67531989822356
10
20.401702347246804
20
153.67531989822356
10
14.54507703018372
20
153.67531989822356
10
14.54507703018372
20
156.85005774719519
10
8.7897153156700014
20
156.85005774719519
10
8.7897153156700014
20
153.67531989822356
10
2.9330899986069525
20
153.67531989822356
10
2.9330899986069525
20
156.85005774719519
10
-2.8213829889308073
20
156.85005774719519
10
-2.8213829889308073
20
153.67531989822356
10
-8.6779912150905147
20
153.67531989822356
10
-8.6779912150905147
20
156.85005774719519
10
-14.43246420262831
20
156.85005774719519
10
-14.43246420262831
20
153.67531989822356
10
-20.289089519691323
20
153.67531989822356
10
-23.464699004735579
20
153.67531989822356
10
-23.464699004735579
20
156.85005774719519
10
-23.464699004735579
20
163.2505668826428
10
-20.289089519691323
20
163.2505668826428
10
-20.289089519691323
20
169.54982950644444
10
-23.464699004735579
20
169.54982950644444
0
LWPOLYLINE
5
112
100
AcDbEntity
8
0
100
AcDbPolyline
90
6
70
1
43
0.0
10
14.595255922518753
20
139.80149119739923
10
20.401702347246804
20
139.80149119739923
10
20.401702347246804
20
132.1814435600933
10
23.576423105315065
20
132.1814435600933
10
23.576423105315065
20
142.97621195546759
10
14.595255922518753
20
142.97621195546759
0
LWPOLYLINE
5
113
100
AcDbEntity
8
0
100
AcDbPolyline
90
4
70
1
43
0.0
10
20.401702347246804
20
109.27019884705754
10
20.401702347246804
20
101.7012017381591
10
23.576423105315065
20
101.7012017381591
10
23.576423105315065
20
109.27019884705754
0
LWPOLYLINE
5
114
100
AcDbEntity
8
0
100
AcDbPolyline
90
52
70
1
43
0.0
10
-23.464699004735579
20
220.98989111757007
10
-20.289089519691323
20
220.98989111757007
10
-20.289089519691323
20
228.55887113556497
10
-23.464699004735579
20
228.55887113556497
10
-23.464699004735579
20
236.23002057398884
10
-20.289089519691323
20
236.23002057398884
10
-20.289089519691323
20
243.79900059198377
10
-23.464699004735579
20
243.79900059198377
10
-23.464699004735579
20
251.47011584860087
10
-20.289089519691323
20
251.47011584860087
10
-20.289089519691323
20
259.09016348590694
10
-14.483531821939231
20
259.09016348590694
10
-14.483531821939231
20
262.26490133487857
10
-8.6269235957795587
20
262.26490133487857
10
-8.6269235957795587
20
259.09016348590694
10
-2.8724506082417989
20
259.09016348590694
10
-2.8724506082417989
20
262.26490133487857
10
2.9841747088212855
20
262.26490133487857
10
2.9841747088212855
20
259.09016348590694
10
8.7395364233350037
20
259.09016348590694
10
8.7395364233350037
20
262.26490133487857
10
14.595255922518753
20
262.26490133487857
10
14.595255922518753
20
259.09016348590694
10
20.401702347246804
20
259.09016348590694
10
20.401702347246804
20
251.47011584860087
10
23.576423105315065
20
251.47011584860087
10
23.576423105315065
20
243.79900059198377
10
20.401702347246804
20
243.79900059198377
10
20.401702347246804
20
236.23002057398884
10
23.576423105315065
20
236.23002057398884
10
23.576423105315065
20
228.55887113556497
10
20.401702347246804
20
228.55887113556497
10
20.401702347246804
20
220.98989111757007
10
23.576423105315065
20
220.98989111757007
10
23.576423105315065
20
213.31877586095291
10
20.401702347246804
20
213.31877586095291
10
20.401702347246804
20
205.69961695062301
10
14.595255922518753
20
205.69961695062301
10
14.595255922518753
20
202.52399037467526
10
8.7395364233350037
20
202.52399037467526
10
8.7395364233350037
20
205.69961695062301
10
2.9841747088212855
20
205.69961695062301
10
2.9841747088212855
20
202.52399037467526
10
-2.8724506082417989
20
202.52399037467526
10
-2.8724506082417989
20
205.69961695062301
10
-8.6269235957795587
20
205.69961695062301
10
-8.6269235957795587
20
202.52399037467526
10
-14.483531821939231
20
202.52399037467526
10
-14.483531821939231
20
205.69961695062301
10
-20.289089519691323
20
205.69961695062301
10
-20.289089519691323
20
213.31877586095291
10
-23.464699004735579
20
213.31877586095291
0
LWPOLYLINE
5
115
100
AcDbEntity
8
0
100
AcDbPolyline
90
4
70
1
43
0.0
10
23.576423105315065
20
124.5103112125729
10
20.401702347246804
20
124.5103112125729
10
20.401702347246804
20
116.9413141036745
10
23.576423105315065
20
116.9413141036745
0
LWPOLYLINE
5
116
100
AcDbEntity
8
0
100
AcDbPolyline
90
48
70
1
43
0.0
10
-37.337630433132212
20
171.65102284582412
10
-37.337630433132212
20
164.0811541008531
10
-34.162909675063879
20
164.0811541008531
10
-34.162909675063879
20
156.4109104803087
10
-37.337630433132212
20
156.4109104803087
10
-43.687977767148105
20
156.4109104803087
10
-43.687977767148105
20
153.23530099526442
10
-50.088503993499032
20
153.23530099526442
10
-50.088503993499032
20
156.4109104803087
10
-56.387775162752298
20
156.4109104803087
10
-56.387775162752298
20
153.23530099526442
10
-62.788301389103168
20
153.23530099526442
10
-62.788301389103168
20
156.4109104803087
10
-69.138648723119118
20
156.4109104803087
10
-72.31336948118738
20
156.4109104803087
10
-72.31336948118738
20
164.0811541008531
10
-69.138648723119118
20
164.0811541008531
10
-69.138648723119118
20
171.65102284582412
10
-72.31336948118738
20
171.65102284582412
10
-72.31336948118738
20
179.32126646636846
10
-69.138648723119118
20
179.32126646636846
10
-69.138648723119118
20
186.89024648436356
10
-72.31336948118738
20
186.89024648436356
10
-72.31336948118738
20
194.5613788318839
10
-69.138648723119118
20
194.5613788318839
10
-69.138648723119118
20
202.13035884987892
10
-72.31336948118738
20
202.13035884987892
10
-72.31336948118738
20
209.80149119739923
10
-69.138648723119118
20
209.80149119739923
10
-62.788301389103168
20
209.80149119739923
10
-62.788301389103168
20
212.97621195546759
10
-56.387775162752298
20
212.97621195546759
10
-56.387775162752298
20
209.80149119739923
10
-50.088503993499032
20
209.80149119739923
10
-50.088503993499032
20
212.97621195546759
10
-43.687977767148105
20
212.97621195546759
10
-43.687977767148105
20
209.80149119739923
10
-37.337630433132212
20
209.80149119739923
10
-34.162909675063879
20
209.80149119739923
10
-34.162909675063879
20
202.13035884987892
10
-37.337630433132212
20
202.13035884987892
10
-37.337630433132212
20
194.5613788318839
10
-34.162909675063879
20
194.5613788318839
10
-34.162909675063879
20
186.89024648436356
10
-37.337630433132212
20
186.89024648436356
10
-37.337630433132212
20
179.32126646636846
10
-34.162909675063879
20
179.32126646636846
10
-34.162909675063879
20
171.65102284582412
0
LWPOLYLINE
5
117
100
AcDbEntity
8
0
100
AcDbPolyline
90
4
70
1
43
0.0
10
50
20
75
10
-50
20
75
10
-50
20
150
10
50
20
150
0
LWPOLYLINE
5
118
100
AcDbEntity
8
0
100
AcDbPolyline
90
4
70
1
43
0.0
10
17.00000025331974
20
137.00000204145908
10
-17.00000025331974
20
137.00000204145908
10
-17.00000025331974
20
89.000001326203346
10
17.00000025331974
20
89.000001326203346
0
CIRCLE
5
119
100
AcDbEntity
8
0
100
AcDbCircle
10
-14.706000000000001
20
241.02000000000001
30
0
40
1.905
0
CIRCLE
5
120
100
AcDbEntity
8
0
100
AcDbCircle
10
15.012000000000004
20
241.02000000000001
30
0
40
1.905
0
CIRCLE
5
121
100
AcDbEntity
8
0
100
AcDbCircle
10
15.266000000000002
20
219.17599999999999
30
0
40
1.905
0
CIRCLE
5
122
100
AcDbEntity
8
0
100
AcDbCircle
10
-14.706000000000001
20
219.17599999999999
30
0
40
1.905
0
LWPOLYLINE
5
123
100
AcDbEntity
8
0
100
AcDbPolyline
90
4
70
1
43
0.0
10
-68.000001013278961
20
178.00000265240669
10
-53.000000789761543
20
178.00000265240669
10
-53.000000789761543
20
192.00000286102295
10
-68.000001013278961
20
192.00000286102295
0
LWPOLYLINE
5
124
100
AcDbEntity
8
0
100
AcDbPolyline
90
4
70
1
43
0.0
10
8.4435213675710052
20
186.84638181668842
10
-11.555227708859412
20
186.84638181668842
10
-11.555227708859412
20
167.89480515583338
10
8.4435213675710052
20
167.89480515583338
0
LWPOLYLINE
5
125
100
AcDbEntity
8
0
100
AcDbPolyline
90
4
70
1
43
0.0
10
15
20
60
10
-15
20
60
10
-15
20
50
10
15
20
50
0
ENDSEC
0
SECTION
2
OBJECTS
0
DICTIONARY
5
C
100
AcDbDictionary
3
ACAD_GROUP
350
D
3
ACAD_MLINESTYLE
350
17
0
DICTIONARY
5
D
100
AcDbDictionary
0
DICTIONARY
5
1A
330
C
100
AcDbDictionary
0
DICTIONARY
5
17
100
AcDbDictionary
0
ENDSEC
0
EOF
