%
M48
M72
T01C0.03150
T02C0.03200
T03C0.03543
T04C0.03937
T05C0.04000
T06C0.04724
T07C0.05118
T08C0.05512
T09C0.11024
T10C0.12598
T11C0.15000
%
T01
X104807Y21526
X112681Y21526
X120555Y21526
T02
X65638Y46100
X60909Y27234
X60909Y17234
X35638Y46100
T03
X77181Y40699
X96291Y64152
X106291Y64152
X116291Y64152
X129681Y40699
X129681Y128199
X119681Y128199
X87181Y128199
X77181Y128199
T04
X96933Y21526
X128429Y21526
T05
X26610Y21310
X26610Y32710
T06
X42559Y169333
X42559Y196892
X94110Y196892
X94110Y169333
T07
X124629Y166443
X124629Y191443
X151929Y191443
X151929Y178943
X151929Y166443
T08
X137929Y166443
X137929Y188443
T09
X47323Y82553
X33937Y101451
T10
X58543Y101451
T11
X29063Y143026
X29063Y57026
X146063Y143026
X147063Y57026
M30
