G75*
%MOIN*%
%OFA0B0*%
%FSLAX25Y25*%
%IPPOS*%
%LPD*%
%AMOC8*
5,1,8,0,0,1.08239X$1,22.5*
%
%ADD10C,0.15800*%
%ADD11C,0.08200*%
%ADD12C,0.07800*%
%ADD13R,0.07800X0.07800*%
%ADD14OC8,0.06000*%
%ADD15C,0.07400*%
%ADD16R,0.07400X0.07400*%
%ADD17C,0.08477*%
%ADD18C,0.06312*%
%ADD19R,0.13300X0.06800*%
%ADD20C,0.05524*%
%ADD21C,0.17398*%
%ADD22C,0.15824*%
D10*
X0029063Y0057026D03*
X0029063Y0143026D03*
X0146063Y0143026D03*
X0147063Y0057026D03*
D11*
X0026610Y0021310D03*
X0026610Y0032710D03*
D12*
X0096291Y0064152D03*
X0106291Y0064152D03*
D13*
X0116291Y0064152D03*
D14*
X0065638Y0046100D03*
X0060909Y0027234D03*
X0060909Y0017234D03*
X0035638Y0046100D03*
D15*
X0096933Y0021526D03*
X0104807Y0021526D03*
X0112681Y0021526D03*
X0120555Y0021526D03*
X0128429Y0021526D03*
D16*
X0129681Y0040699D03*
X0077181Y0040699D03*
X0077181Y0128199D03*
X0087181Y0128199D03*
X0119681Y0128199D03*
X0129681Y0128199D03*
D17*
X0124629Y0166443D03*
X0124629Y0191443D03*
X0151929Y0191443D03*
X0151929Y0178943D03*
X0151929Y0166443D03*
D18*
X0137929Y0166443D03*
X0137929Y0188443D03*
D19*
X0108360Y0190593D03*
X0108360Y0178781D03*
X0108360Y0163033D03*
X0079860Y0158991D03*
X0056809Y0163033D03*
X0056809Y0178781D03*
X0056809Y0190593D03*
X0028309Y0158991D03*
D20*
X0042559Y0169333D03*
X0042559Y0196892D03*
X0094110Y0196892D03*
X0094110Y0169333D03*
D21*
X0058543Y0101451D03*
D22*
X0047323Y0082553D03*
X0033937Y0101451D03*
M02*
