G75*
%MOIN*%
%OFA0B0*%
%FSLAX25Y25*%
%IPPOS*%
%LPD*%
%AMOC8*
5,1,8,0,0,1.08239X$1,22.5*
%
%ADD10C,0.00300*%
%ADD11C,0.00800*%
%ADD12C,0.00500*%
%ADD13C,0.00200*%
%ADD14C,0.00400*%
%ADD15C,0.00600*%
%ADD16C,0.01000*%
%ADD17R,0.01500X0.02000*%
D10*
X0032758Y0018252D02*
X0033725Y0017285D01*
X0034693Y0017285D01*
X0035660Y0018252D01*
X0034209Y0019249D02*
X0034209Y0021184D01*
X0035660Y0022195D02*
X0034693Y0023163D01*
X0033725Y0023163D01*
X0032758Y0022195D01*
X0033725Y0028285D02*
X0032758Y0029252D01*
X0033725Y0028285D02*
X0034693Y0028285D01*
X0035660Y0029252D01*
X0034209Y0030249D02*
X0034209Y0032184D01*
X0033242Y0031216D02*
X0035177Y0031216D01*
X0035660Y0033195D02*
X0034693Y0034163D01*
X0033725Y0034163D01*
X0032758Y0033195D01*
X0038958Y0033018D02*
X0038958Y0031567D01*
X0041860Y0031567D01*
X0040893Y0031567D02*
X0040893Y0033018D01*
X0040409Y0033502D01*
X0039442Y0033502D01*
X0038958Y0033018D01*
X0038958Y0034513D02*
X0039442Y0034513D01*
X0040409Y0035481D01*
X0041860Y0035481D01*
X0040409Y0035481D02*
X0039442Y0036448D01*
X0038958Y0036448D01*
X0041860Y0033502D02*
X0040893Y0032534D01*
X0041860Y0030555D02*
X0041860Y0028620D01*
X0038958Y0028620D01*
X0038958Y0030555D01*
X0040409Y0029588D02*
X0040409Y0028620D01*
X0038958Y0027609D02*
X0038958Y0025674D01*
X0038958Y0026641D02*
X0041860Y0026641D01*
X0041860Y0023695D02*
X0038958Y0023695D01*
X0038958Y0024662D02*
X0038958Y0022727D01*
X0039925Y0021716D02*
X0038958Y0020748D01*
X0039925Y0019781D01*
X0041860Y0019781D01*
X0041377Y0018769D02*
X0041860Y0018285D01*
X0041860Y0016834D01*
X0038958Y0016834D01*
X0038958Y0018285D01*
X0039442Y0018769D01*
X0039925Y0018769D01*
X0040409Y0018285D01*
X0040409Y0016834D01*
X0040409Y0018285D02*
X0040893Y0018769D01*
X0041377Y0018769D01*
X0040409Y0019781D02*
X0040409Y0021716D01*
X0039925Y0021716D02*
X0041860Y0021716D01*
X0053504Y0033522D02*
X0053504Y0036425D01*
X0053504Y0033522D02*
X0055439Y0033522D01*
X0056451Y0033522D02*
X0058386Y0033522D01*
X0059397Y0033522D02*
X0060849Y0033522D01*
X0061332Y0034006D01*
X0061332Y0035941D01*
X0060849Y0036425D01*
X0059397Y0036425D01*
X0059397Y0033522D01*
X0057418Y0034973D02*
X0056451Y0034973D01*
X0056451Y0033522D02*
X0056451Y0036425D01*
X0058386Y0036425D01*
X0062344Y0035457D02*
X0063311Y0036425D01*
X0063311Y0033522D01*
X0062344Y0033522D02*
X0064279Y0033522D01*
X0054732Y0044350D02*
X0055216Y0044834D01*
X0055216Y0046769D01*
X0053281Y0044834D01*
X0053765Y0044350D01*
X0054732Y0044350D01*
X0053281Y0044834D02*
X0053281Y0046769D01*
X0053765Y0047253D01*
X0054732Y0047253D01*
X0055216Y0046769D01*
X0052269Y0046769D02*
X0051786Y0047253D01*
X0050818Y0047253D01*
X0050334Y0046769D01*
X0050334Y0046285D01*
X0050818Y0045802D01*
X0052269Y0045802D01*
X0052269Y0046769D02*
X0052269Y0044834D01*
X0051786Y0044350D01*
X0050818Y0044350D01*
X0050334Y0044834D01*
X0049323Y0044834D02*
X0048839Y0044350D01*
X0047872Y0044350D01*
X0047388Y0044834D01*
X0048355Y0045802D02*
X0048839Y0045802D01*
X0049323Y0045318D01*
X0049323Y0044834D01*
X0048839Y0045802D02*
X0049323Y0046285D01*
X0049323Y0046769D01*
X0048839Y0047253D01*
X0047872Y0047253D01*
X0047388Y0046769D01*
X0048788Y0051350D02*
X0048788Y0054253D01*
X0050239Y0054253D01*
X0050723Y0053769D01*
X0050723Y0052802D01*
X0050239Y0052318D01*
X0048788Y0052318D01*
X0049755Y0052318D02*
X0050723Y0051350D01*
X0051734Y0051834D02*
X0052218Y0051350D01*
X0053186Y0051350D01*
X0053669Y0051834D01*
X0053669Y0052318D01*
X0053186Y0052802D01*
X0051734Y0052802D01*
X0051734Y0051834D01*
X0051734Y0052802D02*
X0052702Y0053769D01*
X0053669Y0054253D01*
X0080697Y0022078D02*
X0080213Y0021594D01*
X0080213Y0019659D01*
X0080697Y0019176D01*
X0081664Y0019176D01*
X0082148Y0019659D01*
X0082148Y0021594D01*
X0081664Y0022078D01*
X0080697Y0022078D01*
X0083160Y0022078D02*
X0085094Y0022078D01*
X0086106Y0022078D02*
X0088041Y0022078D01*
X0087074Y0020627D02*
X0086106Y0020627D01*
X0086106Y0019176D02*
X0086106Y0022078D01*
X0084127Y0020627D02*
X0083160Y0020627D01*
X0083160Y0019176D02*
X0083160Y0022078D01*
X0137213Y0022594D02*
X0137213Y0020659D01*
X0137697Y0020176D01*
X0138664Y0020176D01*
X0139148Y0020659D01*
X0139148Y0022594D01*
X0138664Y0023078D01*
X0137697Y0023078D01*
X0137213Y0022594D01*
X0140160Y0023078D02*
X0140160Y0020176D01*
X0142094Y0020176D02*
X0140160Y0023078D01*
X0142094Y0023078D02*
X0142094Y0020176D01*
X0091556Y0140176D02*
X0090322Y0140176D01*
X0090939Y0140176D02*
X0090939Y0142644D01*
X0090322Y0142644D01*
X0089107Y0142027D02*
X0089107Y0140176D01*
X0089107Y0142027D02*
X0088490Y0142644D01*
X0086638Y0142644D01*
X0086638Y0140176D01*
X0085424Y0141410D02*
X0082955Y0141410D01*
X0082955Y0142027D02*
X0083572Y0142644D01*
X0084807Y0142644D01*
X0085424Y0142027D01*
X0085424Y0141410D01*
X0084807Y0140176D02*
X0083572Y0140176D01*
X0082955Y0140793D01*
X0082955Y0142027D01*
X0081741Y0142027D02*
X0081741Y0140176D01*
X0080507Y0140176D02*
X0080507Y0142027D01*
X0081124Y0142644D01*
X0081741Y0142027D01*
X0080507Y0142027D02*
X0079889Y0142644D01*
X0079272Y0142644D01*
X0079272Y0140176D01*
X0078058Y0140793D02*
X0078058Y0142027D01*
X0077441Y0142644D01*
X0076206Y0142644D01*
X0075589Y0142027D01*
X0075589Y0140793D01*
X0076206Y0140176D01*
X0077441Y0140176D01*
X0078058Y0140793D01*
X0075203Y0144941D02*
X0075203Y0148644D01*
X0077054Y0148644D01*
X0077672Y0148027D01*
X0077672Y0146793D01*
X0077054Y0146176D01*
X0075203Y0146176D01*
X0073982Y0146176D02*
X0072747Y0146176D01*
X0073365Y0146176D02*
X0073365Y0148644D01*
X0072747Y0148644D01*
X0073365Y0149879D02*
X0073365Y0150496D01*
X0069064Y0149879D02*
X0069064Y0146176D01*
X0071533Y0146176D01*
X0071906Y0143879D02*
X0073140Y0142644D01*
X0074375Y0143879D01*
X0074375Y0140176D01*
X0071906Y0140176D02*
X0071906Y0143879D01*
X0067002Y0140176D02*
X0065767Y0140176D01*
X0066384Y0140176D02*
X0066384Y0142644D01*
X0065767Y0142644D01*
X0066384Y0143879D02*
X0066384Y0144496D01*
X0063929Y0143879D02*
X0063929Y0140176D01*
X0063312Y0140176D02*
X0064546Y0140176D01*
X0062097Y0140176D02*
X0062097Y0142644D01*
X0060863Y0143879D01*
X0059629Y0142644D01*
X0059629Y0140176D01*
X0059629Y0142027D02*
X0062097Y0142027D01*
X0063312Y0143879D02*
X0063929Y0143879D01*
X0064157Y0146176D02*
X0063540Y0146176D01*
X0063540Y0146793D01*
X0064157Y0146793D01*
X0064157Y0146176D01*
X0064157Y0148027D02*
X0063540Y0148027D01*
X0063540Y0148644D01*
X0064157Y0148644D01*
X0064157Y0148027D01*
X0062325Y0148027D02*
X0062325Y0147410D01*
X0059856Y0147410D01*
X0059856Y0148027D02*
X0060474Y0148644D01*
X0061708Y0148644D01*
X0062325Y0148027D01*
X0061708Y0146176D02*
X0060474Y0146176D01*
X0059856Y0146793D01*
X0059856Y0148027D01*
X0058642Y0148644D02*
X0056790Y0148644D01*
X0056173Y0148027D01*
X0056790Y0147410D01*
X0058025Y0147410D01*
X0058642Y0146793D01*
X0058025Y0146176D01*
X0056173Y0146176D01*
X0054952Y0146176D02*
X0053718Y0146176D01*
X0054335Y0146176D02*
X0054335Y0148644D01*
X0053718Y0148644D01*
X0052503Y0148644D02*
X0052503Y0146793D01*
X0051886Y0146176D01*
X0051269Y0146793D01*
X0050652Y0146176D01*
X0050035Y0146793D01*
X0050035Y0148644D01*
X0048814Y0148644D02*
X0047579Y0148644D01*
X0048196Y0149262D02*
X0048196Y0146793D01*
X0048814Y0146176D01*
X0046365Y0146176D02*
X0046365Y0148644D01*
X0046365Y0146176D02*
X0044513Y0146176D01*
X0043896Y0146793D01*
X0043896Y0148644D01*
X0042682Y0148027D02*
X0041447Y0148027D01*
X0042682Y0148027D02*
X0042682Y0146793D01*
X0042065Y0146176D01*
X0040830Y0146176D01*
X0040213Y0146793D01*
X0040213Y0149262D01*
X0040830Y0149879D01*
X0042065Y0149879D01*
X0042682Y0149262D01*
X0043065Y0143879D02*
X0041830Y0143879D01*
X0041213Y0143262D01*
X0043065Y0143879D02*
X0043682Y0143262D01*
X0043682Y0142644D01*
X0041213Y0140176D01*
X0043682Y0140176D01*
X0044896Y0140793D02*
X0047365Y0143262D01*
X0047365Y0140793D01*
X0046748Y0140176D01*
X0045513Y0140176D01*
X0044896Y0140793D01*
X0044896Y0143262D01*
X0045513Y0143879D01*
X0046748Y0143879D01*
X0047365Y0143262D01*
X0048579Y0142644D02*
X0049814Y0143879D01*
X0049814Y0140176D01*
X0051048Y0140176D02*
X0048579Y0140176D01*
X0052262Y0140176D02*
X0052262Y0140793D01*
X0054731Y0143262D01*
X0054731Y0143879D01*
X0052262Y0143879D01*
X0054335Y0149879D02*
X0054335Y0150496D01*
X0078886Y0148027D02*
X0078886Y0146793D01*
X0079503Y0146176D01*
X0080738Y0146176D01*
X0081355Y0146793D01*
X0081355Y0148027D01*
X0080738Y0148644D01*
X0079503Y0148644D01*
X0078886Y0148027D01*
X0082569Y0148027D02*
X0085038Y0148027D01*
X0086252Y0146793D02*
X0086869Y0146176D01*
X0088104Y0146176D01*
X0088721Y0146793D01*
X0089935Y0146176D02*
X0089935Y0149879D01*
X0088721Y0149262D02*
X0088104Y0149879D01*
X0086869Y0149879D01*
X0086252Y0149262D01*
X0086252Y0146793D01*
X0089935Y0148027D02*
X0090553Y0148644D01*
X0091787Y0148644D01*
X0092404Y0148027D01*
X0092404Y0146176D01*
X0093619Y0146793D02*
X0094236Y0147410D01*
X0096087Y0147410D01*
X0096087Y0148027D02*
X0096087Y0146176D01*
X0094236Y0146176D01*
X0093619Y0146793D01*
X0094236Y0148644D02*
X0095470Y0148644D01*
X0096087Y0148027D01*
X0097302Y0147410D02*
X0098536Y0148644D01*
X0099153Y0148644D01*
X0100371Y0148027D02*
X0100371Y0146793D01*
X0100988Y0146176D01*
X0102840Y0146176D01*
X0102840Y0145558D02*
X0102840Y0148644D01*
X0100988Y0148644D01*
X0100371Y0148027D01*
X0102840Y0145558D02*
X0102223Y0144941D01*
X0101605Y0144941D01*
X0104054Y0146793D02*
X0104054Y0148027D01*
X0104671Y0148644D01*
X0105906Y0148644D01*
X0106523Y0148027D01*
X0106523Y0147410D01*
X0104054Y0147410D01*
X0104054Y0146793D02*
X0104671Y0146176D01*
X0105906Y0146176D01*
X0107737Y0146176D02*
X0107737Y0148644D01*
X0107737Y0147410D02*
X0108972Y0148644D01*
X0109589Y0148644D01*
X0110807Y0148027D02*
X0113275Y0148027D01*
X0114490Y0148027D02*
X0114490Y0149879D01*
X0116958Y0149879D01*
X0118173Y0149879D02*
X0118173Y0147410D01*
X0119407Y0146176D01*
X0120642Y0147410D01*
X0120642Y0149879D01*
X0121856Y0148027D02*
X0124325Y0148027D01*
X0125539Y0148027D02*
X0126156Y0148644D01*
X0128008Y0148644D01*
X0129222Y0148027D02*
X0129222Y0146793D01*
X0129839Y0146176D01*
X0131074Y0146176D01*
X0131691Y0147410D02*
X0129222Y0147410D01*
X0129222Y0148027D02*
X0129839Y0148644D01*
X0131074Y0148644D01*
X0131691Y0148027D01*
X0131691Y0147410D01*
X0132905Y0148644D02*
X0134140Y0148644D01*
X0133523Y0149262D02*
X0133523Y0146793D01*
X0134140Y0146176D01*
X0135361Y0146793D02*
X0135978Y0146176D01*
X0137830Y0146176D01*
X0137830Y0148644D01*
X0139044Y0148644D02*
X0140896Y0148644D01*
X0141513Y0148027D01*
X0141513Y0146793D01*
X0140896Y0146176D01*
X0139044Y0146176D01*
X0139044Y0144941D02*
X0139044Y0148644D01*
X0142727Y0145558D02*
X0145196Y0145558D01*
X0146410Y0146176D02*
X0146410Y0149879D01*
X0148262Y0149879D01*
X0148879Y0149262D01*
X0148879Y0148027D01*
X0148262Y0147410D01*
X0146410Y0147410D01*
X0147645Y0147410D02*
X0148879Y0146176D01*
X0150093Y0146793D02*
X0150093Y0148027D01*
X0150711Y0148644D01*
X0151945Y0148644D01*
X0152562Y0148027D01*
X0152562Y0147410D01*
X0150093Y0147410D01*
X0150093Y0146793D02*
X0150711Y0146176D01*
X0151945Y0146176D01*
X0155011Y0146176D02*
X0153777Y0148644D01*
X0156245Y0148644D02*
X0155011Y0146176D01*
X0157460Y0146176D02*
X0157460Y0149879D01*
X0159311Y0149879D01*
X0159929Y0149262D01*
X0159929Y0148644D01*
X0159311Y0148027D01*
X0157460Y0148027D01*
X0159311Y0148027D02*
X0159929Y0147410D01*
X0159929Y0146793D01*
X0159311Y0146176D01*
X0157460Y0146176D01*
X0135361Y0146793D02*
X0135361Y0148644D01*
X0128008Y0146793D02*
X0127391Y0147410D01*
X0126156Y0147410D01*
X0125539Y0148027D01*
X0125539Y0146176D02*
X0127391Y0146176D01*
X0128008Y0146793D01*
X0116958Y0146793D02*
X0116341Y0146176D01*
X0115107Y0146176D01*
X0114490Y0146793D01*
X0114490Y0148027D02*
X0115724Y0148644D01*
X0116341Y0148644D01*
X0116958Y0148027D01*
X0116958Y0146793D01*
X0097302Y0146176D02*
X0097302Y0148644D01*
X0090939Y0144496D02*
X0090939Y0143879D01*
D11*
X0021610Y0024510D02*
X0021610Y0019510D01*
X0024110Y0017010D01*
X0029110Y0017010D01*
X0031610Y0019510D01*
X0031610Y0024510D01*
X0029110Y0027010D01*
X0031610Y0029510D01*
X0031610Y0034510D01*
X0029110Y0037010D01*
X0024110Y0037010D01*
X0021610Y0034510D01*
X0021610Y0029510D01*
X0024110Y0027010D01*
X0021610Y0024510D01*
X0017992Y0083734D02*
X0017992Y0119167D01*
X0060906Y0119167D01*
X0060906Y0111687D01*
X0060906Y0092002D02*
X0060906Y0083734D01*
X0056575Y0083734D01*
X0038071Y0083734D02*
X0017992Y0083734D01*
D12*
X0072181Y0035699D02*
X0137181Y0035699D01*
X0137181Y0135699D01*
X0072181Y0135699D01*
X0072181Y0035699D01*
X0087958Y0059402D02*
X0088541Y0059985D01*
X0088541Y0060569D01*
X0087958Y0061153D01*
X0085038Y0061153D01*
X0085038Y0060569D02*
X0085038Y0061737D01*
X0089125Y0063085D02*
X0089125Y0065420D01*
X0088541Y0066768D02*
X0085038Y0066768D01*
X0085038Y0068519D01*
X0085622Y0069103D01*
X0086790Y0069103D01*
X0087374Y0068519D01*
X0087374Y0066768D01*
X0087374Y0067936D02*
X0088541Y0069103D01*
X0088541Y0070451D02*
X0088541Y0072786D01*
X0087958Y0074134D02*
X0088541Y0074718D01*
X0088541Y0075886D01*
X0087958Y0076469D01*
X0086790Y0076469D01*
X0086790Y0075302D01*
X0085622Y0076469D02*
X0085038Y0075886D01*
X0085038Y0074718D01*
X0085622Y0074134D01*
X0087958Y0074134D01*
X0086790Y0071619D02*
X0086790Y0070451D01*
X0088541Y0070451D02*
X0085038Y0070451D01*
X0085038Y0072786D01*
X0089125Y0077817D02*
X0089125Y0080153D01*
X0087958Y0081500D02*
X0088541Y0082084D01*
X0088541Y0083252D01*
X0087958Y0083836D01*
X0086790Y0083836D01*
X0086206Y0083252D01*
X0086206Y0082668D01*
X0086790Y0081500D01*
X0085038Y0081500D01*
X0085038Y0083836D01*
X0085038Y0085184D02*
X0087374Y0085184D01*
X0088541Y0086351D01*
X0087374Y0087519D01*
X0085038Y0087519D01*
X0090291Y0109652D02*
X0090291Y0059152D01*
X0122291Y0059152D01*
X0122291Y0109652D01*
X0090291Y0109652D01*
X0124429Y0157443D02*
X0151929Y0157443D01*
X0151929Y0203443D01*
X0124429Y0203443D01*
X0124429Y0157443D01*
X0128429Y0203443D02*
X0128429Y0211943D01*
X0147929Y0211943D01*
X0147929Y0203443D01*
X0128429Y0203443D01*
X0133154Y0029990D02*
X0092209Y0029990D01*
X0092209Y0013061D01*
X0108744Y0013061D01*
X0108744Y0001250D01*
X0116618Y0001250D01*
X0116618Y0013061D01*
X0133154Y0013061D01*
X0133154Y0029990D01*
X0116618Y0013061D02*
X0108744Y0013061D01*
D13*
X0108439Y0070352D02*
X0108439Y0072553D01*
X0109181Y0072553D02*
X0110282Y0072553D01*
X0110649Y0072186D01*
X0110649Y0070719D01*
X0110282Y0070352D01*
X0109181Y0070352D01*
X0109181Y0072553D01*
X0106972Y0072553D02*
X0108439Y0070352D01*
X0106972Y0070352D02*
X0106972Y0072553D01*
X0106230Y0072186D02*
X0105863Y0072553D01*
X0105129Y0072553D01*
X0104762Y0072186D01*
X0104762Y0070719D01*
X0105129Y0070352D01*
X0105863Y0070352D01*
X0106230Y0070719D01*
X0106230Y0071453D01*
X0105496Y0071453D01*
X0098149Y0072553D02*
X0096681Y0072553D01*
X0097415Y0072553D02*
X0097415Y0070352D01*
X0095939Y0070719D02*
X0095939Y0072553D01*
X0094472Y0072553D02*
X0094472Y0070719D01*
X0094839Y0070352D01*
X0095572Y0070352D01*
X0095939Y0070719D01*
X0093730Y0070719D02*
X0093363Y0070352D01*
X0092629Y0070352D01*
X0092262Y0070719D01*
X0092262Y0072186D01*
X0092629Y0072553D01*
X0093363Y0072553D01*
X0093730Y0072186D01*
X0093730Y0070719D01*
X0115208Y0070352D02*
X0115942Y0070352D01*
X0115575Y0070352D02*
X0115575Y0072553D01*
X0115208Y0072553D02*
X0115942Y0072553D01*
X0116681Y0072553D02*
X0118149Y0070352D01*
X0118149Y0072553D01*
X0116681Y0072553D02*
X0116681Y0070352D01*
X0116309Y0157978D02*
X0116309Y0159446D01*
X0115942Y0159446D02*
X0117410Y0159446D01*
X0117043Y0160188D02*
X0115208Y0160188D01*
X0115942Y0159446D02*
X0115208Y0158712D01*
X0115942Y0157978D01*
X0117410Y0157978D01*
X0117043Y0160188D02*
X0117410Y0160555D01*
X0117410Y0161289D01*
X0117043Y0161656D01*
X0115208Y0161656D01*
X0115208Y0162398D02*
X0115208Y0163499D01*
X0115575Y0163866D01*
X0117043Y0163866D01*
X0117410Y0163499D01*
X0117410Y0162398D01*
X0115208Y0162398D01*
X0115208Y0164608D02*
X0115208Y0165342D01*
X0115208Y0164975D02*
X0117410Y0164975D01*
X0117410Y0164608D02*
X0117410Y0165342D01*
X0117043Y0166081D02*
X0117410Y0166448D01*
X0117410Y0167182D01*
X0117043Y0167549D01*
X0115575Y0167549D01*
X0115208Y0167182D01*
X0115208Y0166448D01*
X0115575Y0166081D01*
X0117043Y0166081D01*
X0117410Y0173978D02*
X0115942Y0173978D01*
X0115208Y0174712D01*
X0115942Y0175446D01*
X0117410Y0175446D01*
X0117043Y0176188D02*
X0117410Y0176555D01*
X0117410Y0177289D01*
X0117043Y0177656D01*
X0115208Y0177656D01*
X0115208Y0178398D02*
X0115208Y0179499D01*
X0115575Y0179866D01*
X0117043Y0179866D01*
X0117410Y0179499D01*
X0117410Y0178398D01*
X0115208Y0178398D01*
X0115208Y0180608D02*
X0115208Y0181342D01*
X0115208Y0180975D02*
X0117410Y0180975D01*
X0117410Y0180608D02*
X0117410Y0181342D01*
X0117043Y0182081D02*
X0117410Y0182448D01*
X0117410Y0183182D01*
X0117043Y0183549D01*
X0115575Y0183549D01*
X0115208Y0183182D01*
X0115208Y0182448D01*
X0115575Y0182081D01*
X0117043Y0182081D01*
X0117043Y0187661D02*
X0115575Y0187661D01*
X0115208Y0188028D01*
X0115208Y0188762D01*
X0115575Y0189129D01*
X0116309Y0189129D02*
X0116309Y0188395D01*
X0116309Y0189129D02*
X0117043Y0189129D01*
X0117410Y0188762D01*
X0117410Y0188028D01*
X0117043Y0187661D01*
X0117410Y0189871D02*
X0115208Y0189871D01*
X0117410Y0191339D01*
X0115208Y0191339D01*
X0115208Y0192081D02*
X0115208Y0193182D01*
X0115575Y0193549D01*
X0117043Y0193549D01*
X0117410Y0193182D01*
X0117410Y0192081D01*
X0115208Y0192081D01*
X0115208Y0176188D02*
X0117043Y0176188D01*
X0116309Y0175446D02*
X0116309Y0173978D01*
X0134506Y0190510D02*
X0134873Y0190143D01*
X0135607Y0190143D01*
X0135974Y0190510D01*
X0135974Y0190877D01*
X0135607Y0191244D01*
X0134873Y0191244D01*
X0134506Y0191611D01*
X0134506Y0191978D01*
X0134873Y0192345D01*
X0135607Y0192345D01*
X0135974Y0191978D01*
X0136716Y0192345D02*
X0137083Y0192345D01*
X0137083Y0190143D01*
X0136716Y0190143D02*
X0137450Y0190143D01*
X0138190Y0190510D02*
X0138190Y0191244D01*
X0138557Y0191611D01*
X0139291Y0191611D01*
X0139657Y0191244D01*
X0139657Y0190877D01*
X0138190Y0190877D01*
X0138190Y0190510D02*
X0138557Y0190143D01*
X0139291Y0190143D01*
X0140399Y0190510D02*
X0140399Y0191244D01*
X0140766Y0191611D01*
X0141500Y0191611D01*
X0141867Y0191244D01*
X0141867Y0190877D01*
X0140399Y0190877D01*
X0140399Y0190510D02*
X0140766Y0190143D01*
X0141500Y0190143D01*
X0142609Y0191611D02*
X0143343Y0190143D01*
X0144077Y0191611D01*
X0144819Y0191244D02*
X0145186Y0191611D01*
X0145920Y0191611D01*
X0146287Y0191244D01*
X0146287Y0190877D01*
X0144819Y0190877D01*
X0144819Y0190510D02*
X0144819Y0191244D01*
X0144819Y0190510D02*
X0145186Y0190143D01*
X0145920Y0190143D01*
X0141503Y0180212D02*
X0141503Y0179845D01*
X0141503Y0179111D02*
X0141503Y0177643D01*
X0141136Y0177643D02*
X0141870Y0177643D01*
X0142609Y0177643D02*
X0142609Y0179111D01*
X0143710Y0179111D01*
X0144077Y0178744D01*
X0144077Y0177643D01*
X0144819Y0178010D02*
X0145186Y0177643D01*
X0146287Y0177643D01*
X0146287Y0177276D02*
X0146287Y0179111D01*
X0145186Y0179111D01*
X0144819Y0178744D01*
X0144819Y0178010D01*
X0145553Y0176909D02*
X0145920Y0176909D01*
X0146287Y0177276D01*
X0141503Y0179111D02*
X0141136Y0179111D01*
X0140394Y0179478D02*
X0140394Y0178744D01*
X0140027Y0178377D01*
X0138926Y0178377D01*
X0138926Y0177643D02*
X0138926Y0179845D01*
X0140027Y0179845D01*
X0140394Y0179478D01*
X0139660Y0178377D02*
X0140394Y0177643D01*
X0141136Y0167345D02*
X0142604Y0167345D01*
X0141870Y0167345D02*
X0141870Y0165143D01*
X0143346Y0165143D02*
X0144080Y0165143D01*
X0143713Y0165143D02*
X0143713Y0166611D01*
X0143346Y0166611D01*
X0143713Y0167345D02*
X0143713Y0167712D01*
X0144819Y0166611D02*
X0144819Y0164409D01*
X0144819Y0165143D02*
X0145920Y0165143D01*
X0146287Y0165510D01*
X0146287Y0166244D01*
X0145920Y0166611D01*
X0144819Y0166611D01*
X0079885Y0165375D02*
X0079885Y0163907D01*
X0079151Y0163173D01*
X0078417Y0163907D01*
X0078417Y0165375D01*
X0077675Y0165375D02*
X0076208Y0165375D01*
X0076208Y0164274D01*
X0076941Y0164641D01*
X0077308Y0164641D01*
X0077675Y0164274D01*
X0077675Y0163540D01*
X0077308Y0163173D01*
X0076574Y0163173D01*
X0076208Y0163540D01*
X0075466Y0164274D02*
X0073998Y0164274D01*
X0074732Y0165008D02*
X0074732Y0163540D01*
X0066467Y0163481D02*
X0066100Y0163848D01*
X0064632Y0163848D01*
X0064265Y0163481D01*
X0064265Y0162380D01*
X0066467Y0162380D01*
X0066467Y0163481D01*
X0066467Y0164590D02*
X0066467Y0165324D01*
X0066467Y0164957D02*
X0064265Y0164957D01*
X0064265Y0164590D02*
X0064265Y0165324D01*
X0064632Y0166063D02*
X0066100Y0166063D01*
X0066467Y0166430D01*
X0066467Y0167164D01*
X0066100Y0167531D01*
X0064632Y0167531D01*
X0064265Y0167164D01*
X0064265Y0166430D01*
X0064632Y0166063D01*
X0064265Y0161638D02*
X0066100Y0161638D01*
X0066467Y0161271D01*
X0066467Y0160537D01*
X0066100Y0160170D01*
X0064265Y0160170D01*
X0064999Y0159428D02*
X0066467Y0159428D01*
X0065366Y0159428D02*
X0065366Y0157960D01*
X0064999Y0157960D02*
X0066467Y0157960D01*
X0064999Y0157960D02*
X0064265Y0158694D01*
X0064999Y0159428D01*
X0064999Y0173960D02*
X0064265Y0174694D01*
X0064999Y0175428D01*
X0066467Y0175428D01*
X0066100Y0176170D02*
X0066467Y0176537D01*
X0066467Y0177271D01*
X0066100Y0177638D01*
X0064265Y0177638D01*
X0064265Y0178380D02*
X0064265Y0179481D01*
X0064632Y0179848D01*
X0066100Y0179848D01*
X0066467Y0179481D01*
X0066467Y0178380D01*
X0064265Y0178380D01*
X0064265Y0176170D02*
X0066100Y0176170D01*
X0065366Y0175428D02*
X0065366Y0173960D01*
X0064999Y0173960D02*
X0066467Y0173960D01*
X0066467Y0180590D02*
X0066467Y0181324D01*
X0066467Y0180957D02*
X0064265Y0180957D01*
X0064265Y0180590D02*
X0064265Y0181324D01*
X0064632Y0182063D02*
X0066100Y0182063D01*
X0066467Y0182430D01*
X0066467Y0183164D01*
X0066100Y0183531D01*
X0064632Y0183531D01*
X0064265Y0183164D01*
X0064265Y0182430D01*
X0064632Y0182063D01*
X0064632Y0187960D02*
X0066100Y0187960D01*
X0066467Y0188327D01*
X0066467Y0189061D01*
X0066100Y0189428D01*
X0065366Y0189428D01*
X0065366Y0188694D01*
X0064632Y0187960D02*
X0064265Y0188327D01*
X0064265Y0189061D01*
X0064632Y0189428D01*
X0064265Y0190170D02*
X0066467Y0191638D01*
X0064265Y0191638D01*
X0064265Y0192380D02*
X0064265Y0193481D01*
X0064632Y0193848D01*
X0066100Y0193848D01*
X0066467Y0193481D01*
X0066467Y0192380D01*
X0064265Y0192380D01*
X0064265Y0190170D02*
X0066467Y0190170D01*
X0028885Y0164824D02*
X0028885Y0163356D01*
X0028151Y0162622D01*
X0027417Y0163356D01*
X0027417Y0164824D01*
X0026675Y0164824D02*
X0025208Y0164824D01*
X0025208Y0163723D01*
X0025941Y0164090D01*
X0026308Y0164090D01*
X0026675Y0163723D01*
X0026675Y0162989D01*
X0026308Y0162622D01*
X0025574Y0162622D01*
X0025208Y0162989D01*
X0024466Y0163723D02*
X0022998Y0163723D01*
X0023732Y0164457D02*
X0023732Y0162989D01*
D14*
X0088526Y0078954D02*
X0088526Y0077553D01*
X0089460Y0078020D01*
X0089927Y0078020D01*
X0090394Y0077553D01*
X0090394Y0076619D01*
X0089927Y0076152D01*
X0088993Y0076152D01*
X0088526Y0076619D01*
X0088526Y0078954D02*
X0090394Y0078954D01*
X0091473Y0078954D02*
X0091473Y0077086D01*
X0092407Y0076152D01*
X0093341Y0077086D01*
X0093341Y0078954D01*
X0096287Y0078954D02*
X0094419Y0076152D01*
X0097366Y0076152D02*
X0099234Y0076152D01*
X0098300Y0076152D02*
X0098300Y0078954D01*
X0097366Y0078020D01*
X0100312Y0078487D02*
X0100779Y0078954D01*
X0101713Y0078954D01*
X0102180Y0078487D01*
X0102180Y0078020D01*
X0100312Y0076152D01*
X0102180Y0076152D01*
X0103259Y0077086D02*
X0104193Y0076152D01*
X0105127Y0077086D01*
X0105127Y0078954D01*
X0103259Y0078954D02*
X0103259Y0077086D01*
X0109152Y0077086D02*
X0110553Y0077086D01*
X0111020Y0077553D01*
X0111020Y0078487D01*
X0110553Y0078954D01*
X0109152Y0078954D01*
X0109152Y0076152D01*
X0110086Y0077086D02*
X0111020Y0076152D01*
X0112098Y0076152D02*
X0113967Y0076152D01*
X0115045Y0076619D02*
X0115045Y0078487D01*
X0115512Y0078954D01*
X0116446Y0078954D01*
X0116913Y0078487D01*
X0116913Y0077553D02*
X0115979Y0077553D01*
X0116913Y0077553D02*
X0116913Y0076619D01*
X0116446Y0076152D01*
X0115512Y0076152D01*
X0115045Y0076619D01*
X0113032Y0077553D02*
X0112098Y0077553D01*
X0112098Y0078954D02*
X0112098Y0076152D01*
X0112098Y0078954D02*
X0113967Y0078954D01*
D15*
X0060638Y0049100D02*
X0060638Y0043100D01*
X0060636Y0043040D01*
X0060631Y0042979D01*
X0060622Y0042920D01*
X0060609Y0042861D01*
X0060593Y0042802D01*
X0060573Y0042745D01*
X0060550Y0042690D01*
X0060523Y0042635D01*
X0060494Y0042583D01*
X0060461Y0042532D01*
X0060425Y0042483D01*
X0060387Y0042437D01*
X0060345Y0042393D01*
X0060301Y0042351D01*
X0060255Y0042313D01*
X0060206Y0042277D01*
X0060155Y0042244D01*
X0060103Y0042215D01*
X0060048Y0042188D01*
X0059993Y0042165D01*
X0059936Y0042145D01*
X0059877Y0042129D01*
X0059818Y0042116D01*
X0059759Y0042107D01*
X0059698Y0042102D01*
X0059638Y0042100D01*
X0058138Y0042100D01*
X0057638Y0042600D01*
X0043638Y0042600D01*
X0043138Y0042100D01*
X0041638Y0042100D01*
X0041578Y0042102D01*
X0041517Y0042107D01*
X0041458Y0042116D01*
X0041399Y0042129D01*
X0041340Y0042145D01*
X0041283Y0042165D01*
X0041228Y0042188D01*
X0041173Y0042215D01*
X0041121Y0042244D01*
X0041070Y0042277D01*
X0041021Y0042313D01*
X0040975Y0042351D01*
X0040931Y0042393D01*
X0040889Y0042437D01*
X0040851Y0042483D01*
X0040815Y0042532D01*
X0040782Y0042583D01*
X0040753Y0042635D01*
X0040726Y0042690D01*
X0040703Y0042745D01*
X0040683Y0042802D01*
X0040667Y0042861D01*
X0040654Y0042920D01*
X0040645Y0042979D01*
X0040640Y0043040D01*
X0040638Y0043100D01*
X0040638Y0049100D01*
X0040640Y0049160D01*
X0040645Y0049221D01*
X0040654Y0049280D01*
X0040667Y0049339D01*
X0040683Y0049398D01*
X0040703Y0049455D01*
X0040726Y0049510D01*
X0040753Y0049565D01*
X0040782Y0049617D01*
X0040815Y0049668D01*
X0040851Y0049717D01*
X0040889Y0049763D01*
X0040931Y0049807D01*
X0040975Y0049849D01*
X0041021Y0049887D01*
X0041070Y0049923D01*
X0041121Y0049956D01*
X0041173Y0049985D01*
X0041228Y0050012D01*
X0041283Y0050035D01*
X0041340Y0050055D01*
X0041399Y0050071D01*
X0041458Y0050084D01*
X0041517Y0050093D01*
X0041578Y0050098D01*
X0041638Y0050100D01*
X0043138Y0050100D01*
X0043638Y0049600D01*
X0057638Y0049600D01*
X0058138Y0050100D01*
X0059638Y0050100D01*
X0059698Y0050098D01*
X0059759Y0050093D01*
X0059818Y0050084D01*
X0059877Y0050071D01*
X0059936Y0050055D01*
X0059993Y0050035D01*
X0060048Y0050012D01*
X0060103Y0049985D01*
X0060155Y0049956D01*
X0060206Y0049923D01*
X0060255Y0049887D01*
X0060301Y0049849D01*
X0060345Y0049807D01*
X0060387Y0049763D01*
X0060425Y0049717D01*
X0060461Y0049668D01*
X0060494Y0049617D01*
X0060523Y0049565D01*
X0060550Y0049510D01*
X0060573Y0049455D01*
X0060593Y0049398D01*
X0060609Y0049339D01*
X0060622Y0049280D01*
X0060631Y0049221D01*
X0060636Y0049160D01*
X0060638Y0049100D01*
X0066909Y0022234D02*
X0066907Y0022080D01*
X0066901Y0021926D01*
X0066891Y0021772D01*
X0066877Y0021618D01*
X0066860Y0021465D01*
X0066838Y0021313D01*
X0066812Y0021161D01*
X0066783Y0021009D01*
X0066749Y0020859D01*
X0066712Y0020709D01*
X0066671Y0020561D01*
X0066626Y0020413D01*
X0066577Y0020267D01*
X0066525Y0020122D01*
X0066469Y0019979D01*
X0066409Y0019836D01*
X0066346Y0019696D01*
X0066279Y0019557D01*
X0066208Y0019420D01*
X0066134Y0019285D01*
X0066057Y0019152D01*
X0065976Y0019020D01*
X0065892Y0018891D01*
X0065804Y0018764D01*
X0065713Y0018640D01*
X0065620Y0018518D01*
X0065522Y0018398D01*
X0065422Y0018281D01*
X0065319Y0018166D01*
X0065213Y0018054D01*
X0065105Y0017945D01*
X0064993Y0017839D01*
X0064879Y0017735D01*
X0064762Y0017635D01*
X0064643Y0017537D01*
X0064521Y0017443D01*
X0064396Y0017352D01*
X0054909Y0022234D02*
X0054911Y0022386D01*
X0054917Y0022537D01*
X0054926Y0022688D01*
X0054940Y0022840D01*
X0054957Y0022990D01*
X0054978Y0023140D01*
X0055003Y0023290D01*
X0055031Y0023439D01*
X0055064Y0023587D01*
X0055100Y0023734D01*
X0055139Y0023881D01*
X0055183Y0024026D01*
X0055230Y0024170D01*
X0055281Y0024313D01*
X0055335Y0024454D01*
X0055393Y0024595D01*
X0055454Y0024733D01*
X0055519Y0024870D01*
X0055588Y0025006D01*
X0055659Y0025139D01*
X0055734Y0025271D01*
X0055813Y0025401D01*
X0055894Y0025528D01*
X0055979Y0025654D01*
X0056067Y0025778D01*
X0056158Y0025899D01*
X0056252Y0026018D01*
X0056350Y0026134D01*
X0056450Y0026248D01*
X0056552Y0026360D01*
X0056658Y0026468D01*
X0056766Y0026574D01*
X0056877Y0026678D01*
X0056991Y0026778D01*
X0057107Y0026876D01*
X0057226Y0026970D01*
X0054909Y0022234D02*
X0054911Y0022082D01*
X0054917Y0021931D01*
X0054926Y0021780D01*
X0054940Y0021628D01*
X0054957Y0021478D01*
X0054978Y0021328D01*
X0055003Y0021178D01*
X0055031Y0021029D01*
X0055064Y0020881D01*
X0055100Y0020734D01*
X0055139Y0020587D01*
X0055183Y0020442D01*
X0055230Y0020298D01*
X0055281Y0020155D01*
X0055335Y0020014D01*
X0055393Y0019873D01*
X0055454Y0019735D01*
X0055519Y0019598D01*
X0055588Y0019462D01*
X0055659Y0019329D01*
X0055734Y0019197D01*
X0055813Y0019067D01*
X0055894Y0018940D01*
X0055979Y0018814D01*
X0056067Y0018690D01*
X0056158Y0018569D01*
X0056252Y0018450D01*
X0056350Y0018334D01*
X0056450Y0018220D01*
X0056552Y0018108D01*
X0056658Y0018000D01*
X0056766Y0017894D01*
X0056877Y0017790D01*
X0056991Y0017690D01*
X0057107Y0017592D01*
X0057226Y0017498D01*
X0066909Y0022234D02*
X0066907Y0022384D01*
X0066901Y0022535D01*
X0066892Y0022685D01*
X0066879Y0022834D01*
X0066862Y0022984D01*
X0066841Y0023133D01*
X0066817Y0023281D01*
X0066789Y0023429D01*
X0066757Y0023576D01*
X0066722Y0023722D01*
X0066682Y0023867D01*
X0066640Y0024011D01*
X0066593Y0024154D01*
X0066543Y0024296D01*
X0066490Y0024437D01*
X0066433Y0024576D01*
X0066373Y0024714D01*
X0066309Y0024850D01*
X0066242Y0024984D01*
X0066171Y0025117D01*
X0066097Y0025248D01*
X0066020Y0025377D01*
X0065939Y0025504D01*
X0065856Y0025629D01*
X0065769Y0025752D01*
X0065680Y0025873D01*
X0065587Y0025991D01*
X0065491Y0026107D01*
X0065393Y0026221D01*
X0065292Y0026332D01*
X0065187Y0026441D01*
X0065081Y0026546D01*
X0064971Y0026650D01*
X0064859Y0026750D01*
X0064745Y0026848D01*
X0064628Y0026942D01*
X0064509Y0027034D01*
X0037953Y0121751D02*
X0037086Y0122618D01*
X0037086Y0124353D01*
X0035874Y0124353D02*
X0034140Y0124353D01*
X0034140Y0123052D01*
X0035007Y0123486D01*
X0035441Y0123486D01*
X0035874Y0123052D01*
X0035874Y0122184D01*
X0035441Y0121751D01*
X0034573Y0121751D01*
X0034140Y0122184D01*
X0032928Y0123052D02*
X0031193Y0123052D01*
X0029981Y0123919D02*
X0029548Y0124353D01*
X0028680Y0124353D01*
X0028247Y0123919D01*
X0028247Y0122184D01*
X0028680Y0121751D01*
X0029548Y0121751D01*
X0029981Y0122184D01*
X0027035Y0122184D02*
X0027035Y0123919D01*
X0026601Y0124353D01*
X0025300Y0124353D01*
X0025300Y0121751D01*
X0026601Y0121751D01*
X0027035Y0122184D01*
X0037953Y0121751D02*
X0038821Y0122618D01*
X0038821Y0124353D01*
D16*
X0029567Y0155159D02*
X0055551Y0155159D01*
X0055551Y0159191D01*
X0055551Y0166941D02*
X0055551Y0174941D01*
X0055551Y0182691D02*
X0055551Y0186691D01*
X0055551Y0194566D02*
X0055551Y0201222D01*
X0081118Y0201222D02*
X0081118Y0162941D01*
X0081118Y0155159D02*
X0107102Y0155159D01*
X0107102Y0159191D01*
X0107102Y0166941D02*
X0107102Y0174941D01*
X0107102Y0182691D02*
X0107102Y0186691D01*
X0107102Y0194566D02*
X0107102Y0201222D01*
X0029567Y0201222D02*
X0029567Y0162941D01*
X0056940Y0029180D02*
X0056771Y0029081D01*
X0056605Y0028977D01*
X0056441Y0028870D01*
X0056280Y0028759D01*
X0056122Y0028644D01*
X0055967Y0028525D01*
X0055814Y0028402D01*
X0055665Y0028276D01*
X0055519Y0028146D01*
X0055376Y0028012D01*
X0055236Y0027875D01*
X0055100Y0027735D01*
X0054967Y0027591D01*
X0054838Y0027444D01*
X0054712Y0027294D01*
X0054591Y0027141D01*
X0054472Y0026985D01*
X0054358Y0026826D01*
X0054248Y0026665D01*
X0054142Y0026500D01*
X0054039Y0026334D01*
X0053941Y0026164D01*
X0053847Y0025993D01*
X0053757Y0025819D01*
X0053672Y0025643D01*
X0053590Y0025465D01*
X0053514Y0025285D01*
X0053441Y0025103D01*
X0053373Y0024920D01*
X0053310Y0024735D01*
X0053251Y0024548D01*
X0053197Y0024360D01*
X0053147Y0024171D01*
X0053102Y0023981D01*
X0053062Y0023789D01*
X0053026Y0023597D01*
X0052995Y0023404D01*
X0052969Y0023210D01*
X0052947Y0023015D01*
X0052931Y0022820D01*
X0052919Y0022625D01*
X0052911Y0022429D01*
X0052909Y0022234D01*
X0064674Y0029293D02*
X0064842Y0029200D01*
X0065008Y0029104D01*
X0065172Y0029004D01*
X0065333Y0028899D01*
X0065492Y0028791D01*
X0065648Y0028679D01*
X0065802Y0028563D01*
X0065952Y0028444D01*
X0066100Y0028321D01*
X0066245Y0028195D01*
X0066386Y0028065D01*
X0066525Y0027932D01*
X0066660Y0027795D01*
X0066792Y0027655D01*
X0066920Y0027513D01*
X0067045Y0027367D01*
X0067167Y0027218D01*
X0067285Y0027066D01*
X0067399Y0026912D01*
X0067509Y0026754D01*
X0067616Y0026595D01*
X0067719Y0026432D01*
X0067818Y0026267D01*
X0067913Y0026100D01*
X0068003Y0025931D01*
X0068090Y0025760D01*
X0068173Y0025586D01*
X0068251Y0025411D01*
X0068325Y0025233D01*
X0068395Y0025054D01*
X0068461Y0024874D01*
X0068522Y0024692D01*
X0068579Y0024508D01*
X0068631Y0024323D01*
X0068679Y0024137D01*
X0068723Y0023950D01*
X0068762Y0023762D01*
X0068796Y0023573D01*
X0068826Y0023383D01*
X0068851Y0023193D01*
X0068872Y0023002D01*
X0068888Y0022810D01*
X0068900Y0022618D01*
X0068907Y0022426D01*
X0068909Y0022234D01*
X0055741Y0016127D02*
X0055595Y0016254D01*
X0055453Y0016383D01*
X0055313Y0016517D01*
X0055177Y0016653D01*
X0055044Y0016793D01*
X0054914Y0016936D01*
X0054788Y0017083D01*
X0054666Y0017232D01*
X0054547Y0017384D01*
X0054432Y0017539D01*
X0054320Y0017696D01*
X0054213Y0017856D01*
X0054109Y0018019D01*
X0054010Y0018185D01*
X0053914Y0018352D01*
X0053822Y0018522D01*
X0053735Y0018694D01*
X0053651Y0018868D01*
X0053572Y0019044D01*
X0053498Y0019222D01*
X0053427Y0019402D01*
X0053361Y0019583D01*
X0053299Y0019766D01*
X0053242Y0019950D01*
X0053189Y0020136D01*
X0053141Y0020323D01*
X0053097Y0020511D01*
X0053058Y0020700D01*
X0053023Y0020890D01*
X0052993Y0021080D01*
X0052967Y0021271D01*
X0052946Y0021463D01*
X0052930Y0021656D01*
X0052918Y0021848D01*
X0052911Y0022041D01*
X0052909Y0022234D01*
X0066031Y0016088D02*
X0066179Y0016215D01*
X0066324Y0016345D01*
X0066465Y0016478D01*
X0066604Y0016615D01*
X0066739Y0016755D01*
X0066870Y0016899D01*
X0066998Y0017046D01*
X0067123Y0017195D01*
X0067244Y0017348D01*
X0067361Y0017503D01*
X0067474Y0017662D01*
X0067583Y0017823D01*
X0067688Y0017987D01*
X0067790Y0018153D01*
X0067887Y0018322D01*
X0067980Y0018492D01*
X0068069Y0018666D01*
X0068154Y0018841D01*
X0068234Y0019018D01*
X0068310Y0019197D01*
X0068382Y0019378D01*
X0068449Y0019561D01*
X0068512Y0019745D01*
X0068570Y0019931D01*
X0068624Y0020118D01*
X0068673Y0020306D01*
X0068718Y0020496D01*
X0068758Y0020686D01*
X0068793Y0020878D01*
X0068824Y0021070D01*
X0068850Y0021263D01*
X0068871Y0021457D01*
X0068888Y0021651D01*
X0068900Y0021845D01*
X0068907Y0022039D01*
X0068909Y0022234D01*
D17*
X0061388Y0046100D03*
X0039888Y0046100D03*
M02*
