G75*
%MOIN*%
%OFA0B0*%
%FSLAX25Y25*%
%IPPOS*%
%LPD*%
%AMOC8*
5,1,8,0,0,1.08239X$1,22.5*
%
%ADD10C,0.07400*%
%ADD11C,0.07000*%
%ADD12R,0.07000X0.07000*%
%ADD13OC8,0.05200*%
%ADD14C,0.06600*%
%ADD15R,0.06600X0.06600*%
%ADD16C,0.07677*%
%ADD17C,0.16598*%
%ADD18C,0.15024*%
%ADD19C,0.01000*%
D10*
X0026610Y0021310D03*
X0026610Y0032710D03*
D11*
X0096291Y0064152D03*
X0106291Y0064152D03*
D12*
X0116291Y0064152D03*
D13*
X0065638Y0046100D03*
X0060909Y0027234D03*
X0060909Y0017234D03*
X0035638Y0046100D03*
D14*
X0096933Y0021526D03*
X0104807Y0021526D03*
X0112681Y0021526D03*
X0120555Y0021526D03*
X0128429Y0021526D03*
D15*
X0129681Y0040699D03*
X0077181Y0040699D03*
X0077181Y0128199D03*
X0087181Y0128199D03*
X0119681Y0128199D03*
X0129681Y0128199D03*
D16*
X0124629Y0166443D03*
X0124629Y0191443D03*
X0151929Y0191443D03*
X0151929Y0178943D03*
X0151929Y0166443D03*
D17*
X0058543Y0101451D03*
D18*
X0047323Y0082553D03*
X0033937Y0101451D03*
D19*
X0087063Y0091026D02*
X0029063Y0033026D01*
X0027063Y0033026D01*
X0026610Y0032710D01*
X0061063Y0018026D02*
X0060909Y0017234D01*
X0061063Y0018026D02*
X0063063Y0018026D01*
X0106063Y0061026D01*
X0106063Y0064026D01*
X0106291Y0064152D01*
X0107063Y0065026D01*
X0107063Y0106026D01*
X0129063Y0128026D01*
X0129681Y0128199D01*
X0130063Y0129026D01*
X0130063Y0181026D01*
X0141063Y0181026D01*
X0151063Y0191026D01*
X0151929Y0191443D01*
X0130063Y0186026D02*
X0130063Y0181026D01*
X0130063Y0186026D02*
X0125063Y0191026D01*
X0124629Y0191443D01*
X0087181Y0128199D02*
X0087063Y0128026D01*
X0087063Y0091026D01*
M02*
