G75*
%MOIN*%
%OFA0B0*%
%FSLAX25Y25*%
%IPPOS*%
%LPD*%
%AMOC8*
5,1,8,0,0,1.08239X$1,22.5*
%
%ADD10C,0.00787*%
%ADD11C,0.00000*%
%ADD12C,0.07400*%
%ADD13C,0.07000*%
%ADD14R,0.07000X0.07000*%
%ADD15OC8,0.05200*%
%ADD16C,0.06600*%
%ADD17R,0.06600X0.06600*%
%ADD18C,0.07677*%
%ADD19R,0.12500X0.06000*%
%ADD20C,0.16598*%
%ADD21C,0.15024*%
%ADD22C,0.01000*%
D10*
X0018063Y0020900D02*
X0018063Y0195317D01*
X0018065Y0195507D01*
X0018072Y0195697D01*
X0018084Y0195887D01*
X0018100Y0196077D01*
X0018120Y0196266D01*
X0018146Y0196455D01*
X0018175Y0196643D01*
X0018210Y0196830D01*
X0018249Y0197016D01*
X0018292Y0197201D01*
X0018340Y0197386D01*
X0018392Y0197569D01*
X0018448Y0197750D01*
X0018509Y0197930D01*
X0018575Y0198109D01*
X0018644Y0198286D01*
X0018718Y0198462D01*
X0018796Y0198635D01*
X0018879Y0198807D01*
X0018965Y0198976D01*
X0019055Y0199144D01*
X0019150Y0199309D01*
X0019248Y0199472D01*
X0019351Y0199632D01*
X0019457Y0199790D01*
X0019567Y0199945D01*
X0019680Y0200098D01*
X0019798Y0200248D01*
X0019919Y0200394D01*
X0020043Y0200538D01*
X0020171Y0200679D01*
X0020302Y0200817D01*
X0020437Y0200952D01*
X0020575Y0201083D01*
X0020716Y0201211D01*
X0020860Y0201335D01*
X0021006Y0201456D01*
X0021156Y0201574D01*
X0021309Y0201687D01*
X0021464Y0201797D01*
X0021622Y0201903D01*
X0021782Y0202006D01*
X0021945Y0202104D01*
X0022110Y0202199D01*
X0022278Y0202289D01*
X0022447Y0202375D01*
X0022619Y0202458D01*
X0022792Y0202536D01*
X0022968Y0202610D01*
X0023145Y0202679D01*
X0023324Y0202745D01*
X0023504Y0202806D01*
X0023685Y0202862D01*
X0023868Y0202914D01*
X0024053Y0202962D01*
X0024238Y0203005D01*
X0024424Y0203044D01*
X0024611Y0203079D01*
X0024799Y0203108D01*
X0024988Y0203134D01*
X0025177Y0203154D01*
X0025367Y0203170D01*
X0025557Y0203182D01*
X0025747Y0203189D01*
X0025937Y0203191D01*
X0150031Y0203191D01*
X0150221Y0203189D01*
X0150411Y0203182D01*
X0150601Y0203170D01*
X0150791Y0203154D01*
X0150980Y0203134D01*
X0151169Y0203108D01*
X0151357Y0203079D01*
X0151544Y0203044D01*
X0151730Y0203005D01*
X0151915Y0202962D01*
X0152100Y0202914D01*
X0152283Y0202862D01*
X0152464Y0202806D01*
X0152644Y0202745D01*
X0152823Y0202679D01*
X0153000Y0202610D01*
X0153176Y0202536D01*
X0153349Y0202458D01*
X0153521Y0202375D01*
X0153690Y0202289D01*
X0153858Y0202199D01*
X0154023Y0202104D01*
X0154186Y0202006D01*
X0154346Y0201903D01*
X0154504Y0201797D01*
X0154659Y0201687D01*
X0154812Y0201574D01*
X0154962Y0201456D01*
X0155108Y0201335D01*
X0155252Y0201211D01*
X0155393Y0201083D01*
X0155531Y0200952D01*
X0155666Y0200817D01*
X0155797Y0200679D01*
X0155925Y0200538D01*
X0156049Y0200394D01*
X0156170Y0200248D01*
X0156288Y0200098D01*
X0156401Y0199945D01*
X0156511Y0199790D01*
X0156617Y0199632D01*
X0156720Y0199472D01*
X0156818Y0199309D01*
X0156913Y0199144D01*
X0157003Y0198976D01*
X0157089Y0198807D01*
X0157172Y0198635D01*
X0157250Y0198462D01*
X0157324Y0198286D01*
X0157393Y0198109D01*
X0157459Y0197930D01*
X0157520Y0197750D01*
X0157576Y0197569D01*
X0157628Y0197386D01*
X0157676Y0197201D01*
X0157719Y0197016D01*
X0157758Y0196830D01*
X0157793Y0196643D01*
X0157822Y0196455D01*
X0157848Y0196266D01*
X0157868Y0196077D01*
X0157884Y0195887D01*
X0157896Y0195697D01*
X0157903Y0195507D01*
X0157905Y0195317D01*
X0157906Y0195317D02*
X0157906Y0020900D01*
X0157905Y0020900D02*
X0157903Y0020710D01*
X0157896Y0020520D01*
X0157884Y0020330D01*
X0157868Y0020140D01*
X0157848Y0019951D01*
X0157822Y0019762D01*
X0157793Y0019574D01*
X0157758Y0019387D01*
X0157719Y0019201D01*
X0157676Y0019016D01*
X0157628Y0018831D01*
X0157576Y0018648D01*
X0157520Y0018467D01*
X0157459Y0018287D01*
X0157393Y0018108D01*
X0157324Y0017931D01*
X0157250Y0017755D01*
X0157172Y0017582D01*
X0157089Y0017410D01*
X0157003Y0017241D01*
X0156913Y0017073D01*
X0156818Y0016908D01*
X0156720Y0016745D01*
X0156617Y0016585D01*
X0156511Y0016427D01*
X0156401Y0016272D01*
X0156288Y0016119D01*
X0156170Y0015969D01*
X0156049Y0015823D01*
X0155925Y0015679D01*
X0155797Y0015538D01*
X0155666Y0015400D01*
X0155531Y0015265D01*
X0155393Y0015134D01*
X0155252Y0015006D01*
X0155108Y0014882D01*
X0154962Y0014761D01*
X0154812Y0014643D01*
X0154659Y0014530D01*
X0154504Y0014420D01*
X0154346Y0014314D01*
X0154186Y0014211D01*
X0154023Y0014113D01*
X0153858Y0014018D01*
X0153690Y0013928D01*
X0153521Y0013842D01*
X0153349Y0013759D01*
X0153176Y0013681D01*
X0153000Y0013607D01*
X0152823Y0013538D01*
X0152644Y0013472D01*
X0152464Y0013411D01*
X0152283Y0013355D01*
X0152100Y0013303D01*
X0151915Y0013255D01*
X0151730Y0013212D01*
X0151544Y0013173D01*
X0151357Y0013138D01*
X0151169Y0013109D01*
X0150980Y0013083D01*
X0150791Y0013063D01*
X0150601Y0013047D01*
X0150411Y0013035D01*
X0150221Y0013028D01*
X0150031Y0013026D01*
X0025937Y0013026D01*
X0025747Y0013028D01*
X0025557Y0013035D01*
X0025367Y0013047D01*
X0025177Y0013063D01*
X0024988Y0013083D01*
X0024799Y0013109D01*
X0024611Y0013138D01*
X0024424Y0013173D01*
X0024238Y0013212D01*
X0024053Y0013255D01*
X0023868Y0013303D01*
X0023685Y0013355D01*
X0023504Y0013411D01*
X0023324Y0013472D01*
X0023145Y0013538D01*
X0022968Y0013607D01*
X0022792Y0013681D01*
X0022619Y0013759D01*
X0022447Y0013842D01*
X0022278Y0013928D01*
X0022110Y0014018D01*
X0021945Y0014113D01*
X0021782Y0014211D01*
X0021622Y0014314D01*
X0021464Y0014420D01*
X0021309Y0014530D01*
X0021156Y0014643D01*
X0021006Y0014761D01*
X0020860Y0014882D01*
X0020716Y0015006D01*
X0020575Y0015134D01*
X0020437Y0015265D01*
X0020302Y0015400D01*
X0020171Y0015538D01*
X0020043Y0015679D01*
X0019919Y0015823D01*
X0019798Y0015969D01*
X0019680Y0016119D01*
X0019567Y0016272D01*
X0019457Y0016427D01*
X0019351Y0016585D01*
X0019248Y0016745D01*
X0019150Y0016908D01*
X0019055Y0017073D01*
X0018965Y0017241D01*
X0018879Y0017410D01*
X0018796Y0017582D01*
X0018718Y0017755D01*
X0018644Y0017931D01*
X0018575Y0018108D01*
X0018509Y0018287D01*
X0018448Y0018467D01*
X0018392Y0018648D01*
X0018340Y0018831D01*
X0018292Y0019016D01*
X0018249Y0019201D01*
X0018210Y0019387D01*
X0018175Y0019574D01*
X0018146Y0019762D01*
X0018120Y0019951D01*
X0018100Y0020140D01*
X0018084Y0020330D01*
X0018072Y0020520D01*
X0018065Y0020710D01*
X0018063Y0020900D01*
D11*
X0021563Y0057026D02*
X0021565Y0057210D01*
X0021572Y0057394D01*
X0021583Y0057578D01*
X0021599Y0057761D01*
X0021619Y0057944D01*
X0021644Y0058126D01*
X0021673Y0058308D01*
X0021707Y0058489D01*
X0021745Y0058669D01*
X0021788Y0058848D01*
X0021835Y0059026D01*
X0021886Y0059203D01*
X0021942Y0059379D01*
X0022001Y0059553D01*
X0022066Y0059725D01*
X0022134Y0059896D01*
X0022206Y0060065D01*
X0022283Y0060233D01*
X0022364Y0060398D01*
X0022449Y0060561D01*
X0022537Y0060723D01*
X0022630Y0060882D01*
X0022727Y0061038D01*
X0022827Y0061193D01*
X0022931Y0061345D01*
X0023039Y0061494D01*
X0023150Y0061640D01*
X0023265Y0061784D01*
X0023384Y0061925D01*
X0023506Y0062063D01*
X0023631Y0062198D01*
X0023760Y0062329D01*
X0023891Y0062458D01*
X0024026Y0062583D01*
X0024164Y0062705D01*
X0024305Y0062824D01*
X0024449Y0062939D01*
X0024595Y0063050D01*
X0024744Y0063158D01*
X0024896Y0063262D01*
X0025051Y0063362D01*
X0025207Y0063459D01*
X0025366Y0063552D01*
X0025528Y0063640D01*
X0025691Y0063725D01*
X0025856Y0063806D01*
X0026024Y0063883D01*
X0026193Y0063955D01*
X0026364Y0064023D01*
X0026536Y0064088D01*
X0026710Y0064147D01*
X0026886Y0064203D01*
X0027063Y0064254D01*
X0027241Y0064301D01*
X0027420Y0064344D01*
X0027600Y0064382D01*
X0027781Y0064416D01*
X0027963Y0064445D01*
X0028145Y0064470D01*
X0028328Y0064490D01*
X0028511Y0064506D01*
X0028695Y0064517D01*
X0028879Y0064524D01*
X0029063Y0064526D01*
X0029247Y0064524D01*
X0029431Y0064517D01*
X0029615Y0064506D01*
X0029798Y0064490D01*
X0029981Y0064470D01*
X0030163Y0064445D01*
X0030345Y0064416D01*
X0030526Y0064382D01*
X0030706Y0064344D01*
X0030885Y0064301D01*
X0031063Y0064254D01*
X0031240Y0064203D01*
X0031416Y0064147D01*
X0031590Y0064088D01*
X0031762Y0064023D01*
X0031933Y0063955D01*
X0032102Y0063883D01*
X0032270Y0063806D01*
X0032435Y0063725D01*
X0032598Y0063640D01*
X0032760Y0063552D01*
X0032919Y0063459D01*
X0033075Y0063362D01*
X0033230Y0063262D01*
X0033382Y0063158D01*
X0033531Y0063050D01*
X0033677Y0062939D01*
X0033821Y0062824D01*
X0033962Y0062705D01*
X0034100Y0062583D01*
X0034235Y0062458D01*
X0034366Y0062329D01*
X0034495Y0062198D01*
X0034620Y0062063D01*
X0034742Y0061925D01*
X0034861Y0061784D01*
X0034976Y0061640D01*
X0035087Y0061494D01*
X0035195Y0061345D01*
X0035299Y0061193D01*
X0035399Y0061038D01*
X0035496Y0060882D01*
X0035589Y0060723D01*
X0035677Y0060561D01*
X0035762Y0060398D01*
X0035843Y0060233D01*
X0035920Y0060065D01*
X0035992Y0059896D01*
X0036060Y0059725D01*
X0036125Y0059553D01*
X0036184Y0059379D01*
X0036240Y0059203D01*
X0036291Y0059026D01*
X0036338Y0058848D01*
X0036381Y0058669D01*
X0036419Y0058489D01*
X0036453Y0058308D01*
X0036482Y0058126D01*
X0036507Y0057944D01*
X0036527Y0057761D01*
X0036543Y0057578D01*
X0036554Y0057394D01*
X0036561Y0057210D01*
X0036563Y0057026D01*
X0036561Y0056842D01*
X0036554Y0056658D01*
X0036543Y0056474D01*
X0036527Y0056291D01*
X0036507Y0056108D01*
X0036482Y0055926D01*
X0036453Y0055744D01*
X0036419Y0055563D01*
X0036381Y0055383D01*
X0036338Y0055204D01*
X0036291Y0055026D01*
X0036240Y0054849D01*
X0036184Y0054673D01*
X0036125Y0054499D01*
X0036060Y0054327D01*
X0035992Y0054156D01*
X0035920Y0053987D01*
X0035843Y0053819D01*
X0035762Y0053654D01*
X0035677Y0053491D01*
X0035589Y0053329D01*
X0035496Y0053170D01*
X0035399Y0053014D01*
X0035299Y0052859D01*
X0035195Y0052707D01*
X0035087Y0052558D01*
X0034976Y0052412D01*
X0034861Y0052268D01*
X0034742Y0052127D01*
X0034620Y0051989D01*
X0034495Y0051854D01*
X0034366Y0051723D01*
X0034235Y0051594D01*
X0034100Y0051469D01*
X0033962Y0051347D01*
X0033821Y0051228D01*
X0033677Y0051113D01*
X0033531Y0051002D01*
X0033382Y0050894D01*
X0033230Y0050790D01*
X0033075Y0050690D01*
X0032919Y0050593D01*
X0032760Y0050500D01*
X0032598Y0050412D01*
X0032435Y0050327D01*
X0032270Y0050246D01*
X0032102Y0050169D01*
X0031933Y0050097D01*
X0031762Y0050029D01*
X0031590Y0049964D01*
X0031416Y0049905D01*
X0031240Y0049849D01*
X0031063Y0049798D01*
X0030885Y0049751D01*
X0030706Y0049708D01*
X0030526Y0049670D01*
X0030345Y0049636D01*
X0030163Y0049607D01*
X0029981Y0049582D01*
X0029798Y0049562D01*
X0029615Y0049546D01*
X0029431Y0049535D01*
X0029247Y0049528D01*
X0029063Y0049526D01*
X0028879Y0049528D01*
X0028695Y0049535D01*
X0028511Y0049546D01*
X0028328Y0049562D01*
X0028145Y0049582D01*
X0027963Y0049607D01*
X0027781Y0049636D01*
X0027600Y0049670D01*
X0027420Y0049708D01*
X0027241Y0049751D01*
X0027063Y0049798D01*
X0026886Y0049849D01*
X0026710Y0049905D01*
X0026536Y0049964D01*
X0026364Y0050029D01*
X0026193Y0050097D01*
X0026024Y0050169D01*
X0025856Y0050246D01*
X0025691Y0050327D01*
X0025528Y0050412D01*
X0025366Y0050500D01*
X0025207Y0050593D01*
X0025051Y0050690D01*
X0024896Y0050790D01*
X0024744Y0050894D01*
X0024595Y0051002D01*
X0024449Y0051113D01*
X0024305Y0051228D01*
X0024164Y0051347D01*
X0024026Y0051469D01*
X0023891Y0051594D01*
X0023760Y0051723D01*
X0023631Y0051854D01*
X0023506Y0051989D01*
X0023384Y0052127D01*
X0023265Y0052268D01*
X0023150Y0052412D01*
X0023039Y0052558D01*
X0022931Y0052707D01*
X0022827Y0052859D01*
X0022727Y0053014D01*
X0022630Y0053170D01*
X0022537Y0053329D01*
X0022449Y0053491D01*
X0022364Y0053654D01*
X0022283Y0053819D01*
X0022206Y0053987D01*
X0022134Y0054156D01*
X0022066Y0054327D01*
X0022001Y0054499D01*
X0021942Y0054673D01*
X0021886Y0054849D01*
X0021835Y0055026D01*
X0021788Y0055204D01*
X0021745Y0055383D01*
X0021707Y0055563D01*
X0021673Y0055744D01*
X0021644Y0055926D01*
X0021619Y0056108D01*
X0021599Y0056291D01*
X0021583Y0056474D01*
X0021572Y0056658D01*
X0021565Y0056842D01*
X0021563Y0057026D01*
X0021563Y0143026D02*
X0021565Y0143210D01*
X0021572Y0143394D01*
X0021583Y0143578D01*
X0021599Y0143761D01*
X0021619Y0143944D01*
X0021644Y0144126D01*
X0021673Y0144308D01*
X0021707Y0144489D01*
X0021745Y0144669D01*
X0021788Y0144848D01*
X0021835Y0145026D01*
X0021886Y0145203D01*
X0021942Y0145379D01*
X0022001Y0145553D01*
X0022066Y0145725D01*
X0022134Y0145896D01*
X0022206Y0146065D01*
X0022283Y0146233D01*
X0022364Y0146398D01*
X0022449Y0146561D01*
X0022537Y0146723D01*
X0022630Y0146882D01*
X0022727Y0147038D01*
X0022827Y0147193D01*
X0022931Y0147345D01*
X0023039Y0147494D01*
X0023150Y0147640D01*
X0023265Y0147784D01*
X0023384Y0147925D01*
X0023506Y0148063D01*
X0023631Y0148198D01*
X0023760Y0148329D01*
X0023891Y0148458D01*
X0024026Y0148583D01*
X0024164Y0148705D01*
X0024305Y0148824D01*
X0024449Y0148939D01*
X0024595Y0149050D01*
X0024744Y0149158D01*
X0024896Y0149262D01*
X0025051Y0149362D01*
X0025207Y0149459D01*
X0025366Y0149552D01*
X0025528Y0149640D01*
X0025691Y0149725D01*
X0025856Y0149806D01*
X0026024Y0149883D01*
X0026193Y0149955D01*
X0026364Y0150023D01*
X0026536Y0150088D01*
X0026710Y0150147D01*
X0026886Y0150203D01*
X0027063Y0150254D01*
X0027241Y0150301D01*
X0027420Y0150344D01*
X0027600Y0150382D01*
X0027781Y0150416D01*
X0027963Y0150445D01*
X0028145Y0150470D01*
X0028328Y0150490D01*
X0028511Y0150506D01*
X0028695Y0150517D01*
X0028879Y0150524D01*
X0029063Y0150526D01*
X0029247Y0150524D01*
X0029431Y0150517D01*
X0029615Y0150506D01*
X0029798Y0150490D01*
X0029981Y0150470D01*
X0030163Y0150445D01*
X0030345Y0150416D01*
X0030526Y0150382D01*
X0030706Y0150344D01*
X0030885Y0150301D01*
X0031063Y0150254D01*
X0031240Y0150203D01*
X0031416Y0150147D01*
X0031590Y0150088D01*
X0031762Y0150023D01*
X0031933Y0149955D01*
X0032102Y0149883D01*
X0032270Y0149806D01*
X0032435Y0149725D01*
X0032598Y0149640D01*
X0032760Y0149552D01*
X0032919Y0149459D01*
X0033075Y0149362D01*
X0033230Y0149262D01*
X0033382Y0149158D01*
X0033531Y0149050D01*
X0033677Y0148939D01*
X0033821Y0148824D01*
X0033962Y0148705D01*
X0034100Y0148583D01*
X0034235Y0148458D01*
X0034366Y0148329D01*
X0034495Y0148198D01*
X0034620Y0148063D01*
X0034742Y0147925D01*
X0034861Y0147784D01*
X0034976Y0147640D01*
X0035087Y0147494D01*
X0035195Y0147345D01*
X0035299Y0147193D01*
X0035399Y0147038D01*
X0035496Y0146882D01*
X0035589Y0146723D01*
X0035677Y0146561D01*
X0035762Y0146398D01*
X0035843Y0146233D01*
X0035920Y0146065D01*
X0035992Y0145896D01*
X0036060Y0145725D01*
X0036125Y0145553D01*
X0036184Y0145379D01*
X0036240Y0145203D01*
X0036291Y0145026D01*
X0036338Y0144848D01*
X0036381Y0144669D01*
X0036419Y0144489D01*
X0036453Y0144308D01*
X0036482Y0144126D01*
X0036507Y0143944D01*
X0036527Y0143761D01*
X0036543Y0143578D01*
X0036554Y0143394D01*
X0036561Y0143210D01*
X0036563Y0143026D01*
X0036561Y0142842D01*
X0036554Y0142658D01*
X0036543Y0142474D01*
X0036527Y0142291D01*
X0036507Y0142108D01*
X0036482Y0141926D01*
X0036453Y0141744D01*
X0036419Y0141563D01*
X0036381Y0141383D01*
X0036338Y0141204D01*
X0036291Y0141026D01*
X0036240Y0140849D01*
X0036184Y0140673D01*
X0036125Y0140499D01*
X0036060Y0140327D01*
X0035992Y0140156D01*
X0035920Y0139987D01*
X0035843Y0139819D01*
X0035762Y0139654D01*
X0035677Y0139491D01*
X0035589Y0139329D01*
X0035496Y0139170D01*
X0035399Y0139014D01*
X0035299Y0138859D01*
X0035195Y0138707D01*
X0035087Y0138558D01*
X0034976Y0138412D01*
X0034861Y0138268D01*
X0034742Y0138127D01*
X0034620Y0137989D01*
X0034495Y0137854D01*
X0034366Y0137723D01*
X0034235Y0137594D01*
X0034100Y0137469D01*
X0033962Y0137347D01*
X0033821Y0137228D01*
X0033677Y0137113D01*
X0033531Y0137002D01*
X0033382Y0136894D01*
X0033230Y0136790D01*
X0033075Y0136690D01*
X0032919Y0136593D01*
X0032760Y0136500D01*
X0032598Y0136412D01*
X0032435Y0136327D01*
X0032270Y0136246D01*
X0032102Y0136169D01*
X0031933Y0136097D01*
X0031762Y0136029D01*
X0031590Y0135964D01*
X0031416Y0135905D01*
X0031240Y0135849D01*
X0031063Y0135798D01*
X0030885Y0135751D01*
X0030706Y0135708D01*
X0030526Y0135670D01*
X0030345Y0135636D01*
X0030163Y0135607D01*
X0029981Y0135582D01*
X0029798Y0135562D01*
X0029615Y0135546D01*
X0029431Y0135535D01*
X0029247Y0135528D01*
X0029063Y0135526D01*
X0028879Y0135528D01*
X0028695Y0135535D01*
X0028511Y0135546D01*
X0028328Y0135562D01*
X0028145Y0135582D01*
X0027963Y0135607D01*
X0027781Y0135636D01*
X0027600Y0135670D01*
X0027420Y0135708D01*
X0027241Y0135751D01*
X0027063Y0135798D01*
X0026886Y0135849D01*
X0026710Y0135905D01*
X0026536Y0135964D01*
X0026364Y0136029D01*
X0026193Y0136097D01*
X0026024Y0136169D01*
X0025856Y0136246D01*
X0025691Y0136327D01*
X0025528Y0136412D01*
X0025366Y0136500D01*
X0025207Y0136593D01*
X0025051Y0136690D01*
X0024896Y0136790D01*
X0024744Y0136894D01*
X0024595Y0137002D01*
X0024449Y0137113D01*
X0024305Y0137228D01*
X0024164Y0137347D01*
X0024026Y0137469D01*
X0023891Y0137594D01*
X0023760Y0137723D01*
X0023631Y0137854D01*
X0023506Y0137989D01*
X0023384Y0138127D01*
X0023265Y0138268D01*
X0023150Y0138412D01*
X0023039Y0138558D01*
X0022931Y0138707D01*
X0022827Y0138859D01*
X0022727Y0139014D01*
X0022630Y0139170D01*
X0022537Y0139329D01*
X0022449Y0139491D01*
X0022364Y0139654D01*
X0022283Y0139819D01*
X0022206Y0139987D01*
X0022134Y0140156D01*
X0022066Y0140327D01*
X0022001Y0140499D01*
X0021942Y0140673D01*
X0021886Y0140849D01*
X0021835Y0141026D01*
X0021788Y0141204D01*
X0021745Y0141383D01*
X0021707Y0141563D01*
X0021673Y0141744D01*
X0021644Y0141926D01*
X0021619Y0142108D01*
X0021599Y0142291D01*
X0021583Y0142474D01*
X0021572Y0142658D01*
X0021565Y0142842D01*
X0021563Y0143026D01*
X0040197Y0169333D02*
X0040199Y0169430D01*
X0040205Y0169527D01*
X0040215Y0169623D01*
X0040229Y0169719D01*
X0040247Y0169815D01*
X0040268Y0169909D01*
X0040294Y0170003D01*
X0040323Y0170095D01*
X0040357Y0170186D01*
X0040393Y0170276D01*
X0040434Y0170364D01*
X0040478Y0170450D01*
X0040526Y0170535D01*
X0040577Y0170617D01*
X0040631Y0170698D01*
X0040689Y0170776D01*
X0040750Y0170851D01*
X0040813Y0170924D01*
X0040880Y0170995D01*
X0040950Y0171062D01*
X0041022Y0171127D01*
X0041097Y0171188D01*
X0041175Y0171247D01*
X0041254Y0171302D01*
X0041336Y0171354D01*
X0041420Y0171402D01*
X0041506Y0171447D01*
X0041594Y0171489D01*
X0041683Y0171527D01*
X0041774Y0171561D01*
X0041866Y0171591D01*
X0041959Y0171618D01*
X0042054Y0171640D01*
X0042149Y0171659D01*
X0042245Y0171674D01*
X0042341Y0171685D01*
X0042438Y0171692D01*
X0042535Y0171695D01*
X0042632Y0171694D01*
X0042729Y0171689D01*
X0042825Y0171680D01*
X0042921Y0171667D01*
X0043017Y0171650D01*
X0043112Y0171629D01*
X0043205Y0171605D01*
X0043298Y0171576D01*
X0043390Y0171544D01*
X0043480Y0171508D01*
X0043568Y0171469D01*
X0043655Y0171425D01*
X0043740Y0171379D01*
X0043823Y0171328D01*
X0043904Y0171275D01*
X0043982Y0171218D01*
X0044059Y0171158D01*
X0044132Y0171095D01*
X0044203Y0171029D01*
X0044271Y0170960D01*
X0044337Y0170888D01*
X0044399Y0170814D01*
X0044458Y0170737D01*
X0044514Y0170658D01*
X0044567Y0170576D01*
X0044617Y0170493D01*
X0044662Y0170407D01*
X0044705Y0170320D01*
X0044744Y0170231D01*
X0044779Y0170141D01*
X0044810Y0170049D01*
X0044837Y0169956D01*
X0044861Y0169862D01*
X0044881Y0169767D01*
X0044897Y0169671D01*
X0044909Y0169575D01*
X0044917Y0169478D01*
X0044921Y0169381D01*
X0044921Y0169285D01*
X0044917Y0169188D01*
X0044909Y0169091D01*
X0044897Y0168995D01*
X0044881Y0168899D01*
X0044861Y0168804D01*
X0044837Y0168710D01*
X0044810Y0168617D01*
X0044779Y0168525D01*
X0044744Y0168435D01*
X0044705Y0168346D01*
X0044662Y0168259D01*
X0044617Y0168173D01*
X0044567Y0168090D01*
X0044514Y0168008D01*
X0044458Y0167929D01*
X0044399Y0167852D01*
X0044337Y0167778D01*
X0044271Y0167706D01*
X0044203Y0167637D01*
X0044132Y0167571D01*
X0044059Y0167508D01*
X0043982Y0167448D01*
X0043904Y0167391D01*
X0043823Y0167338D01*
X0043740Y0167287D01*
X0043655Y0167241D01*
X0043568Y0167197D01*
X0043480Y0167158D01*
X0043390Y0167122D01*
X0043298Y0167090D01*
X0043205Y0167061D01*
X0043112Y0167037D01*
X0043017Y0167016D01*
X0042921Y0166999D01*
X0042825Y0166986D01*
X0042729Y0166977D01*
X0042632Y0166972D01*
X0042535Y0166971D01*
X0042438Y0166974D01*
X0042341Y0166981D01*
X0042245Y0166992D01*
X0042149Y0167007D01*
X0042054Y0167026D01*
X0041959Y0167048D01*
X0041866Y0167075D01*
X0041774Y0167105D01*
X0041683Y0167139D01*
X0041594Y0167177D01*
X0041506Y0167219D01*
X0041420Y0167264D01*
X0041336Y0167312D01*
X0041254Y0167364D01*
X0041175Y0167419D01*
X0041097Y0167478D01*
X0041022Y0167539D01*
X0040950Y0167604D01*
X0040880Y0167671D01*
X0040813Y0167742D01*
X0040750Y0167815D01*
X0040689Y0167890D01*
X0040631Y0167968D01*
X0040577Y0168049D01*
X0040526Y0168131D01*
X0040478Y0168216D01*
X0040434Y0168302D01*
X0040393Y0168390D01*
X0040357Y0168480D01*
X0040323Y0168571D01*
X0040294Y0168663D01*
X0040268Y0168757D01*
X0040247Y0168851D01*
X0040229Y0168947D01*
X0040215Y0169043D01*
X0040205Y0169139D01*
X0040199Y0169236D01*
X0040197Y0169333D01*
X0040197Y0196892D02*
X0040199Y0196989D01*
X0040205Y0197086D01*
X0040215Y0197182D01*
X0040229Y0197278D01*
X0040247Y0197374D01*
X0040268Y0197468D01*
X0040294Y0197562D01*
X0040323Y0197654D01*
X0040357Y0197745D01*
X0040393Y0197835D01*
X0040434Y0197923D01*
X0040478Y0198009D01*
X0040526Y0198094D01*
X0040577Y0198176D01*
X0040631Y0198257D01*
X0040689Y0198335D01*
X0040750Y0198410D01*
X0040813Y0198483D01*
X0040880Y0198554D01*
X0040950Y0198621D01*
X0041022Y0198686D01*
X0041097Y0198747D01*
X0041175Y0198806D01*
X0041254Y0198861D01*
X0041336Y0198913D01*
X0041420Y0198961D01*
X0041506Y0199006D01*
X0041594Y0199048D01*
X0041683Y0199086D01*
X0041774Y0199120D01*
X0041866Y0199150D01*
X0041959Y0199177D01*
X0042054Y0199199D01*
X0042149Y0199218D01*
X0042245Y0199233D01*
X0042341Y0199244D01*
X0042438Y0199251D01*
X0042535Y0199254D01*
X0042632Y0199253D01*
X0042729Y0199248D01*
X0042825Y0199239D01*
X0042921Y0199226D01*
X0043017Y0199209D01*
X0043112Y0199188D01*
X0043205Y0199164D01*
X0043298Y0199135D01*
X0043390Y0199103D01*
X0043480Y0199067D01*
X0043568Y0199028D01*
X0043655Y0198984D01*
X0043740Y0198938D01*
X0043823Y0198887D01*
X0043904Y0198834D01*
X0043982Y0198777D01*
X0044059Y0198717D01*
X0044132Y0198654D01*
X0044203Y0198588D01*
X0044271Y0198519D01*
X0044337Y0198447D01*
X0044399Y0198373D01*
X0044458Y0198296D01*
X0044514Y0198217D01*
X0044567Y0198135D01*
X0044617Y0198052D01*
X0044662Y0197966D01*
X0044705Y0197879D01*
X0044744Y0197790D01*
X0044779Y0197700D01*
X0044810Y0197608D01*
X0044837Y0197515D01*
X0044861Y0197421D01*
X0044881Y0197326D01*
X0044897Y0197230D01*
X0044909Y0197134D01*
X0044917Y0197037D01*
X0044921Y0196940D01*
X0044921Y0196844D01*
X0044917Y0196747D01*
X0044909Y0196650D01*
X0044897Y0196554D01*
X0044881Y0196458D01*
X0044861Y0196363D01*
X0044837Y0196269D01*
X0044810Y0196176D01*
X0044779Y0196084D01*
X0044744Y0195994D01*
X0044705Y0195905D01*
X0044662Y0195818D01*
X0044617Y0195732D01*
X0044567Y0195649D01*
X0044514Y0195567D01*
X0044458Y0195488D01*
X0044399Y0195411D01*
X0044337Y0195337D01*
X0044271Y0195265D01*
X0044203Y0195196D01*
X0044132Y0195130D01*
X0044059Y0195067D01*
X0043982Y0195007D01*
X0043904Y0194950D01*
X0043823Y0194897D01*
X0043740Y0194846D01*
X0043655Y0194800D01*
X0043568Y0194756D01*
X0043480Y0194717D01*
X0043390Y0194681D01*
X0043298Y0194649D01*
X0043205Y0194620D01*
X0043112Y0194596D01*
X0043017Y0194575D01*
X0042921Y0194558D01*
X0042825Y0194545D01*
X0042729Y0194536D01*
X0042632Y0194531D01*
X0042535Y0194530D01*
X0042438Y0194533D01*
X0042341Y0194540D01*
X0042245Y0194551D01*
X0042149Y0194566D01*
X0042054Y0194585D01*
X0041959Y0194607D01*
X0041866Y0194634D01*
X0041774Y0194664D01*
X0041683Y0194698D01*
X0041594Y0194736D01*
X0041506Y0194778D01*
X0041420Y0194823D01*
X0041336Y0194871D01*
X0041254Y0194923D01*
X0041175Y0194978D01*
X0041097Y0195037D01*
X0041022Y0195098D01*
X0040950Y0195163D01*
X0040880Y0195230D01*
X0040813Y0195301D01*
X0040750Y0195374D01*
X0040689Y0195449D01*
X0040631Y0195527D01*
X0040577Y0195608D01*
X0040526Y0195690D01*
X0040478Y0195775D01*
X0040434Y0195861D01*
X0040393Y0195949D01*
X0040357Y0196039D01*
X0040323Y0196130D01*
X0040294Y0196222D01*
X0040268Y0196316D01*
X0040247Y0196410D01*
X0040229Y0196506D01*
X0040215Y0196602D01*
X0040205Y0196698D01*
X0040199Y0196795D01*
X0040197Y0196892D01*
X0091748Y0196892D02*
X0091750Y0196989D01*
X0091756Y0197086D01*
X0091766Y0197182D01*
X0091780Y0197278D01*
X0091798Y0197374D01*
X0091819Y0197468D01*
X0091845Y0197562D01*
X0091874Y0197654D01*
X0091908Y0197745D01*
X0091944Y0197835D01*
X0091985Y0197923D01*
X0092029Y0198009D01*
X0092077Y0198094D01*
X0092128Y0198176D01*
X0092182Y0198257D01*
X0092240Y0198335D01*
X0092301Y0198410D01*
X0092364Y0198483D01*
X0092431Y0198554D01*
X0092501Y0198621D01*
X0092573Y0198686D01*
X0092648Y0198747D01*
X0092726Y0198806D01*
X0092805Y0198861D01*
X0092887Y0198913D01*
X0092971Y0198961D01*
X0093057Y0199006D01*
X0093145Y0199048D01*
X0093234Y0199086D01*
X0093325Y0199120D01*
X0093417Y0199150D01*
X0093510Y0199177D01*
X0093605Y0199199D01*
X0093700Y0199218D01*
X0093796Y0199233D01*
X0093892Y0199244D01*
X0093989Y0199251D01*
X0094086Y0199254D01*
X0094183Y0199253D01*
X0094280Y0199248D01*
X0094376Y0199239D01*
X0094472Y0199226D01*
X0094568Y0199209D01*
X0094663Y0199188D01*
X0094756Y0199164D01*
X0094849Y0199135D01*
X0094941Y0199103D01*
X0095031Y0199067D01*
X0095119Y0199028D01*
X0095206Y0198984D01*
X0095291Y0198938D01*
X0095374Y0198887D01*
X0095455Y0198834D01*
X0095533Y0198777D01*
X0095610Y0198717D01*
X0095683Y0198654D01*
X0095754Y0198588D01*
X0095822Y0198519D01*
X0095888Y0198447D01*
X0095950Y0198373D01*
X0096009Y0198296D01*
X0096065Y0198217D01*
X0096118Y0198135D01*
X0096168Y0198052D01*
X0096213Y0197966D01*
X0096256Y0197879D01*
X0096295Y0197790D01*
X0096330Y0197700D01*
X0096361Y0197608D01*
X0096388Y0197515D01*
X0096412Y0197421D01*
X0096432Y0197326D01*
X0096448Y0197230D01*
X0096460Y0197134D01*
X0096468Y0197037D01*
X0096472Y0196940D01*
X0096472Y0196844D01*
X0096468Y0196747D01*
X0096460Y0196650D01*
X0096448Y0196554D01*
X0096432Y0196458D01*
X0096412Y0196363D01*
X0096388Y0196269D01*
X0096361Y0196176D01*
X0096330Y0196084D01*
X0096295Y0195994D01*
X0096256Y0195905D01*
X0096213Y0195818D01*
X0096168Y0195732D01*
X0096118Y0195649D01*
X0096065Y0195567D01*
X0096009Y0195488D01*
X0095950Y0195411D01*
X0095888Y0195337D01*
X0095822Y0195265D01*
X0095754Y0195196D01*
X0095683Y0195130D01*
X0095610Y0195067D01*
X0095533Y0195007D01*
X0095455Y0194950D01*
X0095374Y0194897D01*
X0095291Y0194846D01*
X0095206Y0194800D01*
X0095119Y0194756D01*
X0095031Y0194717D01*
X0094941Y0194681D01*
X0094849Y0194649D01*
X0094756Y0194620D01*
X0094663Y0194596D01*
X0094568Y0194575D01*
X0094472Y0194558D01*
X0094376Y0194545D01*
X0094280Y0194536D01*
X0094183Y0194531D01*
X0094086Y0194530D01*
X0093989Y0194533D01*
X0093892Y0194540D01*
X0093796Y0194551D01*
X0093700Y0194566D01*
X0093605Y0194585D01*
X0093510Y0194607D01*
X0093417Y0194634D01*
X0093325Y0194664D01*
X0093234Y0194698D01*
X0093145Y0194736D01*
X0093057Y0194778D01*
X0092971Y0194823D01*
X0092887Y0194871D01*
X0092805Y0194923D01*
X0092726Y0194978D01*
X0092648Y0195037D01*
X0092573Y0195098D01*
X0092501Y0195163D01*
X0092431Y0195230D01*
X0092364Y0195301D01*
X0092301Y0195374D01*
X0092240Y0195449D01*
X0092182Y0195527D01*
X0092128Y0195608D01*
X0092077Y0195690D01*
X0092029Y0195775D01*
X0091985Y0195861D01*
X0091944Y0195949D01*
X0091908Y0196039D01*
X0091874Y0196130D01*
X0091845Y0196222D01*
X0091819Y0196316D01*
X0091798Y0196410D01*
X0091780Y0196506D01*
X0091766Y0196602D01*
X0091756Y0196698D01*
X0091750Y0196795D01*
X0091748Y0196892D01*
X0091748Y0169333D02*
X0091750Y0169430D01*
X0091756Y0169527D01*
X0091766Y0169623D01*
X0091780Y0169719D01*
X0091798Y0169815D01*
X0091819Y0169909D01*
X0091845Y0170003D01*
X0091874Y0170095D01*
X0091908Y0170186D01*
X0091944Y0170276D01*
X0091985Y0170364D01*
X0092029Y0170450D01*
X0092077Y0170535D01*
X0092128Y0170617D01*
X0092182Y0170698D01*
X0092240Y0170776D01*
X0092301Y0170851D01*
X0092364Y0170924D01*
X0092431Y0170995D01*
X0092501Y0171062D01*
X0092573Y0171127D01*
X0092648Y0171188D01*
X0092726Y0171247D01*
X0092805Y0171302D01*
X0092887Y0171354D01*
X0092971Y0171402D01*
X0093057Y0171447D01*
X0093145Y0171489D01*
X0093234Y0171527D01*
X0093325Y0171561D01*
X0093417Y0171591D01*
X0093510Y0171618D01*
X0093605Y0171640D01*
X0093700Y0171659D01*
X0093796Y0171674D01*
X0093892Y0171685D01*
X0093989Y0171692D01*
X0094086Y0171695D01*
X0094183Y0171694D01*
X0094280Y0171689D01*
X0094376Y0171680D01*
X0094472Y0171667D01*
X0094568Y0171650D01*
X0094663Y0171629D01*
X0094756Y0171605D01*
X0094849Y0171576D01*
X0094941Y0171544D01*
X0095031Y0171508D01*
X0095119Y0171469D01*
X0095206Y0171425D01*
X0095291Y0171379D01*
X0095374Y0171328D01*
X0095455Y0171275D01*
X0095533Y0171218D01*
X0095610Y0171158D01*
X0095683Y0171095D01*
X0095754Y0171029D01*
X0095822Y0170960D01*
X0095888Y0170888D01*
X0095950Y0170814D01*
X0096009Y0170737D01*
X0096065Y0170658D01*
X0096118Y0170576D01*
X0096168Y0170493D01*
X0096213Y0170407D01*
X0096256Y0170320D01*
X0096295Y0170231D01*
X0096330Y0170141D01*
X0096361Y0170049D01*
X0096388Y0169956D01*
X0096412Y0169862D01*
X0096432Y0169767D01*
X0096448Y0169671D01*
X0096460Y0169575D01*
X0096468Y0169478D01*
X0096472Y0169381D01*
X0096472Y0169285D01*
X0096468Y0169188D01*
X0096460Y0169091D01*
X0096448Y0168995D01*
X0096432Y0168899D01*
X0096412Y0168804D01*
X0096388Y0168710D01*
X0096361Y0168617D01*
X0096330Y0168525D01*
X0096295Y0168435D01*
X0096256Y0168346D01*
X0096213Y0168259D01*
X0096168Y0168173D01*
X0096118Y0168090D01*
X0096065Y0168008D01*
X0096009Y0167929D01*
X0095950Y0167852D01*
X0095888Y0167778D01*
X0095822Y0167706D01*
X0095754Y0167637D01*
X0095683Y0167571D01*
X0095610Y0167508D01*
X0095533Y0167448D01*
X0095455Y0167391D01*
X0095374Y0167338D01*
X0095291Y0167287D01*
X0095206Y0167241D01*
X0095119Y0167197D01*
X0095031Y0167158D01*
X0094941Y0167122D01*
X0094849Y0167090D01*
X0094756Y0167061D01*
X0094663Y0167037D01*
X0094568Y0167016D01*
X0094472Y0166999D01*
X0094376Y0166986D01*
X0094280Y0166977D01*
X0094183Y0166972D01*
X0094086Y0166971D01*
X0093989Y0166974D01*
X0093892Y0166981D01*
X0093796Y0166992D01*
X0093700Y0167007D01*
X0093605Y0167026D01*
X0093510Y0167048D01*
X0093417Y0167075D01*
X0093325Y0167105D01*
X0093234Y0167139D01*
X0093145Y0167177D01*
X0093057Y0167219D01*
X0092971Y0167264D01*
X0092887Y0167312D01*
X0092805Y0167364D01*
X0092726Y0167419D01*
X0092648Y0167478D01*
X0092573Y0167539D01*
X0092501Y0167604D01*
X0092431Y0167671D01*
X0092364Y0167742D01*
X0092301Y0167815D01*
X0092240Y0167890D01*
X0092182Y0167968D01*
X0092128Y0168049D01*
X0092077Y0168131D01*
X0092029Y0168216D01*
X0091985Y0168302D01*
X0091944Y0168390D01*
X0091908Y0168480D01*
X0091874Y0168571D01*
X0091845Y0168663D01*
X0091819Y0168757D01*
X0091798Y0168851D01*
X0091780Y0168947D01*
X0091766Y0169043D01*
X0091756Y0169139D01*
X0091750Y0169236D01*
X0091748Y0169333D01*
X0135173Y0166443D02*
X0135175Y0166548D01*
X0135181Y0166653D01*
X0135191Y0166757D01*
X0135205Y0166861D01*
X0135223Y0166965D01*
X0135245Y0167067D01*
X0135270Y0167169D01*
X0135300Y0167270D01*
X0135333Y0167369D01*
X0135370Y0167467D01*
X0135411Y0167564D01*
X0135456Y0167659D01*
X0135504Y0167752D01*
X0135555Y0167844D01*
X0135611Y0167933D01*
X0135669Y0168020D01*
X0135731Y0168105D01*
X0135795Y0168188D01*
X0135863Y0168268D01*
X0135934Y0168345D01*
X0136008Y0168419D01*
X0136085Y0168491D01*
X0136164Y0168560D01*
X0136246Y0168625D01*
X0136330Y0168688D01*
X0136417Y0168747D01*
X0136506Y0168803D01*
X0136597Y0168856D01*
X0136690Y0168905D01*
X0136784Y0168950D01*
X0136880Y0168992D01*
X0136978Y0169030D01*
X0137077Y0169064D01*
X0137178Y0169095D01*
X0137279Y0169121D01*
X0137382Y0169144D01*
X0137485Y0169163D01*
X0137589Y0169178D01*
X0137693Y0169189D01*
X0137798Y0169196D01*
X0137903Y0169199D01*
X0138008Y0169198D01*
X0138113Y0169193D01*
X0138217Y0169184D01*
X0138321Y0169171D01*
X0138425Y0169154D01*
X0138528Y0169133D01*
X0138630Y0169108D01*
X0138731Y0169080D01*
X0138830Y0169047D01*
X0138929Y0169011D01*
X0139026Y0168971D01*
X0139121Y0168928D01*
X0139215Y0168880D01*
X0139307Y0168830D01*
X0139397Y0168776D01*
X0139485Y0168718D01*
X0139570Y0168657D01*
X0139653Y0168593D01*
X0139734Y0168526D01*
X0139812Y0168456D01*
X0139887Y0168382D01*
X0139959Y0168307D01*
X0140029Y0168228D01*
X0140095Y0168147D01*
X0140159Y0168063D01*
X0140219Y0167977D01*
X0140275Y0167889D01*
X0140329Y0167798D01*
X0140379Y0167706D01*
X0140425Y0167612D01*
X0140468Y0167516D01*
X0140507Y0167418D01*
X0140542Y0167320D01*
X0140573Y0167219D01*
X0140601Y0167118D01*
X0140625Y0167016D01*
X0140645Y0166913D01*
X0140661Y0166809D01*
X0140673Y0166705D01*
X0140681Y0166600D01*
X0140685Y0166495D01*
X0140685Y0166391D01*
X0140681Y0166286D01*
X0140673Y0166181D01*
X0140661Y0166077D01*
X0140645Y0165973D01*
X0140625Y0165870D01*
X0140601Y0165768D01*
X0140573Y0165667D01*
X0140542Y0165566D01*
X0140507Y0165468D01*
X0140468Y0165370D01*
X0140425Y0165274D01*
X0140379Y0165180D01*
X0140329Y0165088D01*
X0140275Y0164997D01*
X0140219Y0164909D01*
X0140159Y0164823D01*
X0140095Y0164739D01*
X0140029Y0164658D01*
X0139959Y0164579D01*
X0139887Y0164504D01*
X0139812Y0164430D01*
X0139734Y0164360D01*
X0139653Y0164293D01*
X0139570Y0164229D01*
X0139485Y0164168D01*
X0139397Y0164110D01*
X0139307Y0164056D01*
X0139215Y0164006D01*
X0139121Y0163958D01*
X0139026Y0163915D01*
X0138929Y0163875D01*
X0138830Y0163839D01*
X0138731Y0163806D01*
X0138630Y0163778D01*
X0138528Y0163753D01*
X0138425Y0163732D01*
X0138321Y0163715D01*
X0138217Y0163702D01*
X0138113Y0163693D01*
X0138008Y0163688D01*
X0137903Y0163687D01*
X0137798Y0163690D01*
X0137693Y0163697D01*
X0137589Y0163708D01*
X0137485Y0163723D01*
X0137382Y0163742D01*
X0137279Y0163765D01*
X0137178Y0163791D01*
X0137077Y0163822D01*
X0136978Y0163856D01*
X0136880Y0163894D01*
X0136784Y0163936D01*
X0136690Y0163981D01*
X0136597Y0164030D01*
X0136506Y0164083D01*
X0136417Y0164139D01*
X0136330Y0164198D01*
X0136246Y0164261D01*
X0136164Y0164326D01*
X0136085Y0164395D01*
X0136008Y0164467D01*
X0135934Y0164541D01*
X0135863Y0164618D01*
X0135795Y0164698D01*
X0135731Y0164781D01*
X0135669Y0164866D01*
X0135611Y0164953D01*
X0135555Y0165042D01*
X0135504Y0165134D01*
X0135456Y0165227D01*
X0135411Y0165322D01*
X0135370Y0165419D01*
X0135333Y0165517D01*
X0135300Y0165616D01*
X0135270Y0165717D01*
X0135245Y0165819D01*
X0135223Y0165921D01*
X0135205Y0166025D01*
X0135191Y0166129D01*
X0135181Y0166233D01*
X0135175Y0166338D01*
X0135173Y0166443D01*
X0135173Y0188443D02*
X0135175Y0188548D01*
X0135181Y0188653D01*
X0135191Y0188757D01*
X0135205Y0188861D01*
X0135223Y0188965D01*
X0135245Y0189067D01*
X0135270Y0189169D01*
X0135300Y0189270D01*
X0135333Y0189369D01*
X0135370Y0189467D01*
X0135411Y0189564D01*
X0135456Y0189659D01*
X0135504Y0189752D01*
X0135555Y0189844D01*
X0135611Y0189933D01*
X0135669Y0190020D01*
X0135731Y0190105D01*
X0135795Y0190188D01*
X0135863Y0190268D01*
X0135934Y0190345D01*
X0136008Y0190419D01*
X0136085Y0190491D01*
X0136164Y0190560D01*
X0136246Y0190625D01*
X0136330Y0190688D01*
X0136417Y0190747D01*
X0136506Y0190803D01*
X0136597Y0190856D01*
X0136690Y0190905D01*
X0136784Y0190950D01*
X0136880Y0190992D01*
X0136978Y0191030D01*
X0137077Y0191064D01*
X0137178Y0191095D01*
X0137279Y0191121D01*
X0137382Y0191144D01*
X0137485Y0191163D01*
X0137589Y0191178D01*
X0137693Y0191189D01*
X0137798Y0191196D01*
X0137903Y0191199D01*
X0138008Y0191198D01*
X0138113Y0191193D01*
X0138217Y0191184D01*
X0138321Y0191171D01*
X0138425Y0191154D01*
X0138528Y0191133D01*
X0138630Y0191108D01*
X0138731Y0191080D01*
X0138830Y0191047D01*
X0138929Y0191011D01*
X0139026Y0190971D01*
X0139121Y0190928D01*
X0139215Y0190880D01*
X0139307Y0190830D01*
X0139397Y0190776D01*
X0139485Y0190718D01*
X0139570Y0190657D01*
X0139653Y0190593D01*
X0139734Y0190526D01*
X0139812Y0190456D01*
X0139887Y0190382D01*
X0139959Y0190307D01*
X0140029Y0190228D01*
X0140095Y0190147D01*
X0140159Y0190063D01*
X0140219Y0189977D01*
X0140275Y0189889D01*
X0140329Y0189798D01*
X0140379Y0189706D01*
X0140425Y0189612D01*
X0140468Y0189516D01*
X0140507Y0189418D01*
X0140542Y0189320D01*
X0140573Y0189219D01*
X0140601Y0189118D01*
X0140625Y0189016D01*
X0140645Y0188913D01*
X0140661Y0188809D01*
X0140673Y0188705D01*
X0140681Y0188600D01*
X0140685Y0188495D01*
X0140685Y0188391D01*
X0140681Y0188286D01*
X0140673Y0188181D01*
X0140661Y0188077D01*
X0140645Y0187973D01*
X0140625Y0187870D01*
X0140601Y0187768D01*
X0140573Y0187667D01*
X0140542Y0187566D01*
X0140507Y0187468D01*
X0140468Y0187370D01*
X0140425Y0187274D01*
X0140379Y0187180D01*
X0140329Y0187088D01*
X0140275Y0186997D01*
X0140219Y0186909D01*
X0140159Y0186823D01*
X0140095Y0186739D01*
X0140029Y0186658D01*
X0139959Y0186579D01*
X0139887Y0186504D01*
X0139812Y0186430D01*
X0139734Y0186360D01*
X0139653Y0186293D01*
X0139570Y0186229D01*
X0139485Y0186168D01*
X0139397Y0186110D01*
X0139307Y0186056D01*
X0139215Y0186006D01*
X0139121Y0185958D01*
X0139026Y0185915D01*
X0138929Y0185875D01*
X0138830Y0185839D01*
X0138731Y0185806D01*
X0138630Y0185778D01*
X0138528Y0185753D01*
X0138425Y0185732D01*
X0138321Y0185715D01*
X0138217Y0185702D01*
X0138113Y0185693D01*
X0138008Y0185688D01*
X0137903Y0185687D01*
X0137798Y0185690D01*
X0137693Y0185697D01*
X0137589Y0185708D01*
X0137485Y0185723D01*
X0137382Y0185742D01*
X0137279Y0185765D01*
X0137178Y0185791D01*
X0137077Y0185822D01*
X0136978Y0185856D01*
X0136880Y0185894D01*
X0136784Y0185936D01*
X0136690Y0185981D01*
X0136597Y0186030D01*
X0136506Y0186083D01*
X0136417Y0186139D01*
X0136330Y0186198D01*
X0136246Y0186261D01*
X0136164Y0186326D01*
X0136085Y0186395D01*
X0136008Y0186467D01*
X0135934Y0186541D01*
X0135863Y0186618D01*
X0135795Y0186698D01*
X0135731Y0186781D01*
X0135669Y0186866D01*
X0135611Y0186953D01*
X0135555Y0187042D01*
X0135504Y0187134D01*
X0135456Y0187227D01*
X0135411Y0187322D01*
X0135370Y0187419D01*
X0135333Y0187517D01*
X0135300Y0187616D01*
X0135270Y0187717D01*
X0135245Y0187819D01*
X0135223Y0187921D01*
X0135205Y0188025D01*
X0135191Y0188129D01*
X0135181Y0188233D01*
X0135175Y0188338D01*
X0135173Y0188443D01*
X0138563Y0143026D02*
X0138565Y0143210D01*
X0138572Y0143394D01*
X0138583Y0143578D01*
X0138599Y0143761D01*
X0138619Y0143944D01*
X0138644Y0144126D01*
X0138673Y0144308D01*
X0138707Y0144489D01*
X0138745Y0144669D01*
X0138788Y0144848D01*
X0138835Y0145026D01*
X0138886Y0145203D01*
X0138942Y0145379D01*
X0139001Y0145553D01*
X0139066Y0145725D01*
X0139134Y0145896D01*
X0139206Y0146065D01*
X0139283Y0146233D01*
X0139364Y0146398D01*
X0139449Y0146561D01*
X0139537Y0146723D01*
X0139630Y0146882D01*
X0139727Y0147038D01*
X0139827Y0147193D01*
X0139931Y0147345D01*
X0140039Y0147494D01*
X0140150Y0147640D01*
X0140265Y0147784D01*
X0140384Y0147925D01*
X0140506Y0148063D01*
X0140631Y0148198D01*
X0140760Y0148329D01*
X0140891Y0148458D01*
X0141026Y0148583D01*
X0141164Y0148705D01*
X0141305Y0148824D01*
X0141449Y0148939D01*
X0141595Y0149050D01*
X0141744Y0149158D01*
X0141896Y0149262D01*
X0142051Y0149362D01*
X0142207Y0149459D01*
X0142366Y0149552D01*
X0142528Y0149640D01*
X0142691Y0149725D01*
X0142856Y0149806D01*
X0143024Y0149883D01*
X0143193Y0149955D01*
X0143364Y0150023D01*
X0143536Y0150088D01*
X0143710Y0150147D01*
X0143886Y0150203D01*
X0144063Y0150254D01*
X0144241Y0150301D01*
X0144420Y0150344D01*
X0144600Y0150382D01*
X0144781Y0150416D01*
X0144963Y0150445D01*
X0145145Y0150470D01*
X0145328Y0150490D01*
X0145511Y0150506D01*
X0145695Y0150517D01*
X0145879Y0150524D01*
X0146063Y0150526D01*
X0146247Y0150524D01*
X0146431Y0150517D01*
X0146615Y0150506D01*
X0146798Y0150490D01*
X0146981Y0150470D01*
X0147163Y0150445D01*
X0147345Y0150416D01*
X0147526Y0150382D01*
X0147706Y0150344D01*
X0147885Y0150301D01*
X0148063Y0150254D01*
X0148240Y0150203D01*
X0148416Y0150147D01*
X0148590Y0150088D01*
X0148762Y0150023D01*
X0148933Y0149955D01*
X0149102Y0149883D01*
X0149270Y0149806D01*
X0149435Y0149725D01*
X0149598Y0149640D01*
X0149760Y0149552D01*
X0149919Y0149459D01*
X0150075Y0149362D01*
X0150230Y0149262D01*
X0150382Y0149158D01*
X0150531Y0149050D01*
X0150677Y0148939D01*
X0150821Y0148824D01*
X0150962Y0148705D01*
X0151100Y0148583D01*
X0151235Y0148458D01*
X0151366Y0148329D01*
X0151495Y0148198D01*
X0151620Y0148063D01*
X0151742Y0147925D01*
X0151861Y0147784D01*
X0151976Y0147640D01*
X0152087Y0147494D01*
X0152195Y0147345D01*
X0152299Y0147193D01*
X0152399Y0147038D01*
X0152496Y0146882D01*
X0152589Y0146723D01*
X0152677Y0146561D01*
X0152762Y0146398D01*
X0152843Y0146233D01*
X0152920Y0146065D01*
X0152992Y0145896D01*
X0153060Y0145725D01*
X0153125Y0145553D01*
X0153184Y0145379D01*
X0153240Y0145203D01*
X0153291Y0145026D01*
X0153338Y0144848D01*
X0153381Y0144669D01*
X0153419Y0144489D01*
X0153453Y0144308D01*
X0153482Y0144126D01*
X0153507Y0143944D01*
X0153527Y0143761D01*
X0153543Y0143578D01*
X0153554Y0143394D01*
X0153561Y0143210D01*
X0153563Y0143026D01*
X0153561Y0142842D01*
X0153554Y0142658D01*
X0153543Y0142474D01*
X0153527Y0142291D01*
X0153507Y0142108D01*
X0153482Y0141926D01*
X0153453Y0141744D01*
X0153419Y0141563D01*
X0153381Y0141383D01*
X0153338Y0141204D01*
X0153291Y0141026D01*
X0153240Y0140849D01*
X0153184Y0140673D01*
X0153125Y0140499D01*
X0153060Y0140327D01*
X0152992Y0140156D01*
X0152920Y0139987D01*
X0152843Y0139819D01*
X0152762Y0139654D01*
X0152677Y0139491D01*
X0152589Y0139329D01*
X0152496Y0139170D01*
X0152399Y0139014D01*
X0152299Y0138859D01*
X0152195Y0138707D01*
X0152087Y0138558D01*
X0151976Y0138412D01*
X0151861Y0138268D01*
X0151742Y0138127D01*
X0151620Y0137989D01*
X0151495Y0137854D01*
X0151366Y0137723D01*
X0151235Y0137594D01*
X0151100Y0137469D01*
X0150962Y0137347D01*
X0150821Y0137228D01*
X0150677Y0137113D01*
X0150531Y0137002D01*
X0150382Y0136894D01*
X0150230Y0136790D01*
X0150075Y0136690D01*
X0149919Y0136593D01*
X0149760Y0136500D01*
X0149598Y0136412D01*
X0149435Y0136327D01*
X0149270Y0136246D01*
X0149102Y0136169D01*
X0148933Y0136097D01*
X0148762Y0136029D01*
X0148590Y0135964D01*
X0148416Y0135905D01*
X0148240Y0135849D01*
X0148063Y0135798D01*
X0147885Y0135751D01*
X0147706Y0135708D01*
X0147526Y0135670D01*
X0147345Y0135636D01*
X0147163Y0135607D01*
X0146981Y0135582D01*
X0146798Y0135562D01*
X0146615Y0135546D01*
X0146431Y0135535D01*
X0146247Y0135528D01*
X0146063Y0135526D01*
X0145879Y0135528D01*
X0145695Y0135535D01*
X0145511Y0135546D01*
X0145328Y0135562D01*
X0145145Y0135582D01*
X0144963Y0135607D01*
X0144781Y0135636D01*
X0144600Y0135670D01*
X0144420Y0135708D01*
X0144241Y0135751D01*
X0144063Y0135798D01*
X0143886Y0135849D01*
X0143710Y0135905D01*
X0143536Y0135964D01*
X0143364Y0136029D01*
X0143193Y0136097D01*
X0143024Y0136169D01*
X0142856Y0136246D01*
X0142691Y0136327D01*
X0142528Y0136412D01*
X0142366Y0136500D01*
X0142207Y0136593D01*
X0142051Y0136690D01*
X0141896Y0136790D01*
X0141744Y0136894D01*
X0141595Y0137002D01*
X0141449Y0137113D01*
X0141305Y0137228D01*
X0141164Y0137347D01*
X0141026Y0137469D01*
X0140891Y0137594D01*
X0140760Y0137723D01*
X0140631Y0137854D01*
X0140506Y0137989D01*
X0140384Y0138127D01*
X0140265Y0138268D01*
X0140150Y0138412D01*
X0140039Y0138558D01*
X0139931Y0138707D01*
X0139827Y0138859D01*
X0139727Y0139014D01*
X0139630Y0139170D01*
X0139537Y0139329D01*
X0139449Y0139491D01*
X0139364Y0139654D01*
X0139283Y0139819D01*
X0139206Y0139987D01*
X0139134Y0140156D01*
X0139066Y0140327D01*
X0139001Y0140499D01*
X0138942Y0140673D01*
X0138886Y0140849D01*
X0138835Y0141026D01*
X0138788Y0141204D01*
X0138745Y0141383D01*
X0138707Y0141563D01*
X0138673Y0141744D01*
X0138644Y0141926D01*
X0138619Y0142108D01*
X0138599Y0142291D01*
X0138583Y0142474D01*
X0138572Y0142658D01*
X0138565Y0142842D01*
X0138563Y0143026D01*
X0139563Y0057026D02*
X0139565Y0057210D01*
X0139572Y0057394D01*
X0139583Y0057578D01*
X0139599Y0057761D01*
X0139619Y0057944D01*
X0139644Y0058126D01*
X0139673Y0058308D01*
X0139707Y0058489D01*
X0139745Y0058669D01*
X0139788Y0058848D01*
X0139835Y0059026D01*
X0139886Y0059203D01*
X0139942Y0059379D01*
X0140001Y0059553D01*
X0140066Y0059725D01*
X0140134Y0059896D01*
X0140206Y0060065D01*
X0140283Y0060233D01*
X0140364Y0060398D01*
X0140449Y0060561D01*
X0140537Y0060723D01*
X0140630Y0060882D01*
X0140727Y0061038D01*
X0140827Y0061193D01*
X0140931Y0061345D01*
X0141039Y0061494D01*
X0141150Y0061640D01*
X0141265Y0061784D01*
X0141384Y0061925D01*
X0141506Y0062063D01*
X0141631Y0062198D01*
X0141760Y0062329D01*
X0141891Y0062458D01*
X0142026Y0062583D01*
X0142164Y0062705D01*
X0142305Y0062824D01*
X0142449Y0062939D01*
X0142595Y0063050D01*
X0142744Y0063158D01*
X0142896Y0063262D01*
X0143051Y0063362D01*
X0143207Y0063459D01*
X0143366Y0063552D01*
X0143528Y0063640D01*
X0143691Y0063725D01*
X0143856Y0063806D01*
X0144024Y0063883D01*
X0144193Y0063955D01*
X0144364Y0064023D01*
X0144536Y0064088D01*
X0144710Y0064147D01*
X0144886Y0064203D01*
X0145063Y0064254D01*
X0145241Y0064301D01*
X0145420Y0064344D01*
X0145600Y0064382D01*
X0145781Y0064416D01*
X0145963Y0064445D01*
X0146145Y0064470D01*
X0146328Y0064490D01*
X0146511Y0064506D01*
X0146695Y0064517D01*
X0146879Y0064524D01*
X0147063Y0064526D01*
X0147247Y0064524D01*
X0147431Y0064517D01*
X0147615Y0064506D01*
X0147798Y0064490D01*
X0147981Y0064470D01*
X0148163Y0064445D01*
X0148345Y0064416D01*
X0148526Y0064382D01*
X0148706Y0064344D01*
X0148885Y0064301D01*
X0149063Y0064254D01*
X0149240Y0064203D01*
X0149416Y0064147D01*
X0149590Y0064088D01*
X0149762Y0064023D01*
X0149933Y0063955D01*
X0150102Y0063883D01*
X0150270Y0063806D01*
X0150435Y0063725D01*
X0150598Y0063640D01*
X0150760Y0063552D01*
X0150919Y0063459D01*
X0151075Y0063362D01*
X0151230Y0063262D01*
X0151382Y0063158D01*
X0151531Y0063050D01*
X0151677Y0062939D01*
X0151821Y0062824D01*
X0151962Y0062705D01*
X0152100Y0062583D01*
X0152235Y0062458D01*
X0152366Y0062329D01*
X0152495Y0062198D01*
X0152620Y0062063D01*
X0152742Y0061925D01*
X0152861Y0061784D01*
X0152976Y0061640D01*
X0153087Y0061494D01*
X0153195Y0061345D01*
X0153299Y0061193D01*
X0153399Y0061038D01*
X0153496Y0060882D01*
X0153589Y0060723D01*
X0153677Y0060561D01*
X0153762Y0060398D01*
X0153843Y0060233D01*
X0153920Y0060065D01*
X0153992Y0059896D01*
X0154060Y0059725D01*
X0154125Y0059553D01*
X0154184Y0059379D01*
X0154240Y0059203D01*
X0154291Y0059026D01*
X0154338Y0058848D01*
X0154381Y0058669D01*
X0154419Y0058489D01*
X0154453Y0058308D01*
X0154482Y0058126D01*
X0154507Y0057944D01*
X0154527Y0057761D01*
X0154543Y0057578D01*
X0154554Y0057394D01*
X0154561Y0057210D01*
X0154563Y0057026D01*
X0154561Y0056842D01*
X0154554Y0056658D01*
X0154543Y0056474D01*
X0154527Y0056291D01*
X0154507Y0056108D01*
X0154482Y0055926D01*
X0154453Y0055744D01*
X0154419Y0055563D01*
X0154381Y0055383D01*
X0154338Y0055204D01*
X0154291Y0055026D01*
X0154240Y0054849D01*
X0154184Y0054673D01*
X0154125Y0054499D01*
X0154060Y0054327D01*
X0153992Y0054156D01*
X0153920Y0053987D01*
X0153843Y0053819D01*
X0153762Y0053654D01*
X0153677Y0053491D01*
X0153589Y0053329D01*
X0153496Y0053170D01*
X0153399Y0053014D01*
X0153299Y0052859D01*
X0153195Y0052707D01*
X0153087Y0052558D01*
X0152976Y0052412D01*
X0152861Y0052268D01*
X0152742Y0052127D01*
X0152620Y0051989D01*
X0152495Y0051854D01*
X0152366Y0051723D01*
X0152235Y0051594D01*
X0152100Y0051469D01*
X0151962Y0051347D01*
X0151821Y0051228D01*
X0151677Y0051113D01*
X0151531Y0051002D01*
X0151382Y0050894D01*
X0151230Y0050790D01*
X0151075Y0050690D01*
X0150919Y0050593D01*
X0150760Y0050500D01*
X0150598Y0050412D01*
X0150435Y0050327D01*
X0150270Y0050246D01*
X0150102Y0050169D01*
X0149933Y0050097D01*
X0149762Y0050029D01*
X0149590Y0049964D01*
X0149416Y0049905D01*
X0149240Y0049849D01*
X0149063Y0049798D01*
X0148885Y0049751D01*
X0148706Y0049708D01*
X0148526Y0049670D01*
X0148345Y0049636D01*
X0148163Y0049607D01*
X0147981Y0049582D01*
X0147798Y0049562D01*
X0147615Y0049546D01*
X0147431Y0049535D01*
X0147247Y0049528D01*
X0147063Y0049526D01*
X0146879Y0049528D01*
X0146695Y0049535D01*
X0146511Y0049546D01*
X0146328Y0049562D01*
X0146145Y0049582D01*
X0145963Y0049607D01*
X0145781Y0049636D01*
X0145600Y0049670D01*
X0145420Y0049708D01*
X0145241Y0049751D01*
X0145063Y0049798D01*
X0144886Y0049849D01*
X0144710Y0049905D01*
X0144536Y0049964D01*
X0144364Y0050029D01*
X0144193Y0050097D01*
X0144024Y0050169D01*
X0143856Y0050246D01*
X0143691Y0050327D01*
X0143528Y0050412D01*
X0143366Y0050500D01*
X0143207Y0050593D01*
X0143051Y0050690D01*
X0142896Y0050790D01*
X0142744Y0050894D01*
X0142595Y0051002D01*
X0142449Y0051113D01*
X0142305Y0051228D01*
X0142164Y0051347D01*
X0142026Y0051469D01*
X0141891Y0051594D01*
X0141760Y0051723D01*
X0141631Y0051854D01*
X0141506Y0051989D01*
X0141384Y0052127D01*
X0141265Y0052268D01*
X0141150Y0052412D01*
X0141039Y0052558D01*
X0140931Y0052707D01*
X0140827Y0052859D01*
X0140727Y0053014D01*
X0140630Y0053170D01*
X0140537Y0053329D01*
X0140449Y0053491D01*
X0140364Y0053654D01*
X0140283Y0053819D01*
X0140206Y0053987D01*
X0140134Y0054156D01*
X0140066Y0054327D01*
X0140001Y0054499D01*
X0139942Y0054673D01*
X0139886Y0054849D01*
X0139835Y0055026D01*
X0139788Y0055204D01*
X0139745Y0055383D01*
X0139707Y0055563D01*
X0139673Y0055744D01*
X0139644Y0055926D01*
X0139619Y0056108D01*
X0139599Y0056291D01*
X0139583Y0056474D01*
X0139572Y0056658D01*
X0139565Y0056842D01*
X0139563Y0057026D01*
D12*
X0026610Y0032710D03*
X0026610Y0021310D03*
D13*
X0096291Y0064152D03*
X0106291Y0064152D03*
D14*
X0116291Y0064152D03*
D15*
X0065638Y0046100D03*
X0060909Y0027234D03*
X0060909Y0017234D03*
X0035638Y0046100D03*
D16*
X0096933Y0021526D03*
X0104807Y0021526D03*
X0112681Y0021526D03*
X0120555Y0021526D03*
X0128429Y0021526D03*
D17*
X0129681Y0040699D03*
X0077181Y0040699D03*
X0077181Y0128199D03*
X0087181Y0128199D03*
X0119681Y0128199D03*
X0129681Y0128199D03*
D18*
X0124629Y0166443D03*
X0124629Y0191443D03*
X0151929Y0191443D03*
X0151929Y0178943D03*
X0151929Y0166443D03*
D19*
X0108360Y0163033D03*
X0108360Y0178781D03*
X0108360Y0190593D03*
X0079860Y0158991D03*
X0056809Y0163033D03*
X0056809Y0178781D03*
X0056809Y0190593D03*
X0028309Y0158991D03*
D20*
X0058543Y0101451D03*
D21*
X0047323Y0082553D03*
X0033937Y0101451D03*
D22*
X0034063Y0091026D01*
X0034063Y0069026D01*
X0067063Y0036026D01*
X0067063Y0027026D01*
X0062063Y0022026D01*
X0027063Y0022026D01*
X0026610Y0021310D01*
X0035638Y0046100D02*
X0036063Y0046026D01*
X0054063Y0028026D01*
X0060063Y0028026D01*
X0060909Y0027234D01*
X0067063Y0027026D02*
X0107063Y0027026D01*
X0112063Y0022026D01*
X0112681Y0021526D01*
X0120555Y0021526D02*
X0121063Y0022026D01*
X0122063Y0023026D01*
X0122063Y0068026D01*
X0120063Y0070026D01*
X0120063Y0128026D01*
X0119681Y0128199D01*
X0116063Y0158026D02*
X0124063Y0166026D01*
X0124629Y0166443D01*
X0125063Y0167026D01*
X0128063Y0167026D01*
X0135063Y0174026D01*
X0144063Y0174026D01*
X0151063Y0167026D01*
X0151929Y0166443D01*
X0151929Y0178943D02*
X0151063Y0179026D01*
X0109063Y0179026D01*
X0108360Y0178781D01*
X0109063Y0178026D01*
X0109063Y0164026D01*
X0108360Y0163033D01*
X0116063Y0158026D02*
X0095063Y0158026D01*
X0089063Y0164026D01*
X0057063Y0164026D01*
X0056809Y0163033D01*
X0057063Y0164026D02*
X0057063Y0178026D01*
X0056809Y0178781D01*
X0057063Y0190026D02*
X0056809Y0190593D01*
X0057063Y0190026D02*
X0108063Y0190026D01*
X0108360Y0190593D01*
X0109063Y0191026D01*
X0124063Y0191026D01*
X0124629Y0191443D01*
X0079860Y0158991D02*
X0079063Y0158026D01*
X0058063Y0158026D01*
X0058063Y0092026D01*
X0065063Y0085026D01*
X0065063Y0047026D01*
X0065638Y0046100D01*
X0066063Y0047026D01*
X0079063Y0047026D01*
X0096063Y0064026D01*
X0096291Y0064152D01*
X0116063Y0065026D02*
X0116291Y0064152D01*
X0116063Y0065026D02*
X0078063Y0103026D01*
X0078063Y0128026D01*
X0077181Y0128199D01*
X0058063Y0158026D02*
X0029063Y0158026D01*
X0028309Y0158991D01*
M02*
