G75*
%MOIN*%
%OFA0B0*%
%FSLAX25Y25*%
%IPPOS*%
%LPD*%
%AMOC8*
5,1,8,0,0,1.08239X$1,22.5*
%
%ADD10C,0.00800*%
%ADD11C,0.00600*%
%ADD12C,0.00300*%
%ADD13C,0.00400*%
%ADD14C,0.00500*%
%ADD15C,0.00200*%
%ADD16C,0.01000*%
D10*
X0046906Y0006158D02*
X0046906Y0008442D01*
X0046906Y0006158D02*
X0075150Y0006158D01*
X0075150Y0008442D01*
X0075150Y0021158D02*
X0075150Y0023442D01*
X0046906Y0023442D01*
X0046906Y0021158D01*
X0196366Y0022658D02*
X0196366Y0024942D01*
X0224610Y0024942D01*
X0224610Y0022658D01*
X0249063Y0012257D02*
X0249063Y0035442D01*
X0261953Y0035442D02*
X0261953Y0012257D01*
X0224610Y0009942D02*
X0224610Y0007658D01*
X0196366Y0007658D01*
X0196366Y0009942D01*
X0294996Y0043544D02*
X0294996Y0046694D01*
X0306020Y0046694D02*
X0306020Y0043544D01*
X0303657Y0043544D01*
X0297358Y0043544D02*
X0294996Y0043544D01*
X0253008Y0053800D02*
X0250508Y0051300D01*
X0245508Y0051300D01*
X0243008Y0053800D01*
X0243008Y0058800D01*
X0245508Y0061300D01*
X0243008Y0063800D01*
X0243008Y0068800D01*
X0245508Y0071300D01*
X0250508Y0071300D01*
X0253008Y0068800D01*
X0253008Y0063800D01*
X0250508Y0061300D01*
X0253008Y0058800D01*
X0253008Y0053800D01*
X0202902Y0052288D02*
X0199752Y0052288D01*
X0199752Y0054650D01*
X0199752Y0060950D02*
X0199752Y0063312D01*
X0202902Y0063312D01*
D11*
X0239606Y0063386D02*
X0242208Y0063386D01*
X0242208Y0065121D01*
X0240907Y0064253D02*
X0240907Y0063386D01*
X0239606Y0063386D02*
X0239606Y0065121D01*
X0239606Y0066333D02*
X0239606Y0067634D01*
X0240039Y0068067D01*
X0240907Y0068067D01*
X0241340Y0067634D01*
X0241340Y0066333D01*
X0241340Y0067200D02*
X0242208Y0068067D01*
X0240907Y0070147D02*
X0240039Y0069279D01*
X0239606Y0069279D01*
X0240907Y0070147D02*
X0242208Y0070147D01*
X0240907Y0070147D02*
X0240039Y0071014D01*
X0239606Y0071014D01*
X0240473Y0072226D02*
X0239606Y0073093D01*
X0242208Y0073093D01*
X0242208Y0072226D02*
X0242208Y0073960D01*
X0242208Y0066333D02*
X0239606Y0066333D01*
X0239606Y0062174D02*
X0239606Y0060440D01*
X0239606Y0061307D02*
X0242208Y0061307D01*
X0239606Y0059228D02*
X0239606Y0057493D01*
X0239606Y0058360D02*
X0242208Y0058360D01*
X0242208Y0056281D02*
X0240473Y0056281D01*
X0239606Y0055414D01*
X0240473Y0054547D01*
X0242208Y0054547D01*
X0240907Y0054547D02*
X0240907Y0056281D01*
X0241340Y0053335D02*
X0241774Y0053335D01*
X0242208Y0052901D01*
X0242208Y0051600D01*
X0239606Y0051600D01*
X0239606Y0052901D01*
X0240039Y0053335D01*
X0240473Y0053335D01*
X0240907Y0052901D01*
X0240907Y0051600D01*
X0240907Y0052901D02*
X0241340Y0053335D01*
X0343008Y0022300D02*
X0343160Y0022298D01*
X0343311Y0022292D01*
X0343462Y0022283D01*
X0343614Y0022269D01*
X0343764Y0022252D01*
X0343914Y0022231D01*
X0344064Y0022206D01*
X0344213Y0022178D01*
X0344361Y0022145D01*
X0344508Y0022109D01*
X0344655Y0022070D01*
X0344800Y0022026D01*
X0344944Y0021979D01*
X0345087Y0021928D01*
X0345228Y0021874D01*
X0345369Y0021816D01*
X0345507Y0021755D01*
X0345644Y0021690D01*
X0345780Y0021621D01*
X0345913Y0021550D01*
X0346045Y0021475D01*
X0346175Y0021396D01*
X0346302Y0021315D01*
X0346428Y0021230D01*
X0346552Y0021142D01*
X0346673Y0021051D01*
X0346792Y0020957D01*
X0346908Y0020859D01*
X0347022Y0020759D01*
X0347134Y0020657D01*
X0347242Y0020551D01*
X0347348Y0020443D01*
X0347452Y0020332D01*
X0347552Y0020218D01*
X0347650Y0020102D01*
X0347744Y0019983D01*
X0343008Y0010300D02*
X0342854Y0010302D01*
X0342700Y0010308D01*
X0342546Y0010318D01*
X0342392Y0010332D01*
X0342239Y0010349D01*
X0342087Y0010371D01*
X0341935Y0010397D01*
X0341783Y0010426D01*
X0341633Y0010460D01*
X0341483Y0010497D01*
X0341335Y0010538D01*
X0341187Y0010583D01*
X0341041Y0010632D01*
X0340896Y0010684D01*
X0340753Y0010740D01*
X0340610Y0010800D01*
X0340470Y0010863D01*
X0340331Y0010930D01*
X0340194Y0011001D01*
X0340059Y0011075D01*
X0339926Y0011152D01*
X0339794Y0011233D01*
X0339665Y0011317D01*
X0339538Y0011405D01*
X0339414Y0011496D01*
X0339292Y0011589D01*
X0339172Y0011687D01*
X0339055Y0011787D01*
X0338940Y0011890D01*
X0338828Y0011996D01*
X0338719Y0012104D01*
X0338613Y0012216D01*
X0338509Y0012330D01*
X0338409Y0012447D01*
X0338311Y0012566D01*
X0338217Y0012688D01*
X0338126Y0012813D01*
X0343008Y0010300D02*
X0343158Y0010302D01*
X0343309Y0010308D01*
X0343459Y0010317D01*
X0343608Y0010330D01*
X0343758Y0010347D01*
X0343907Y0010368D01*
X0344055Y0010392D01*
X0344203Y0010420D01*
X0344350Y0010452D01*
X0344496Y0010487D01*
X0344641Y0010527D01*
X0344785Y0010569D01*
X0344928Y0010616D01*
X0345070Y0010666D01*
X0345211Y0010719D01*
X0345350Y0010776D01*
X0345488Y0010836D01*
X0345624Y0010900D01*
X0345758Y0010967D01*
X0345891Y0011038D01*
X0346022Y0011112D01*
X0346151Y0011189D01*
X0346278Y0011270D01*
X0346403Y0011353D01*
X0346526Y0011440D01*
X0346647Y0011529D01*
X0346765Y0011622D01*
X0346881Y0011718D01*
X0346995Y0011816D01*
X0347106Y0011917D01*
X0347215Y0012022D01*
X0347320Y0012128D01*
X0347424Y0012238D01*
X0347524Y0012350D01*
X0347622Y0012464D01*
X0347716Y0012581D01*
X0347808Y0012700D01*
X0343008Y0022300D02*
X0342856Y0022298D01*
X0342705Y0022292D01*
X0342554Y0022283D01*
X0342402Y0022269D01*
X0342252Y0022252D01*
X0342102Y0022231D01*
X0341952Y0022206D01*
X0341803Y0022178D01*
X0341655Y0022145D01*
X0341508Y0022109D01*
X0341361Y0022070D01*
X0341216Y0022026D01*
X0341072Y0021979D01*
X0340929Y0021928D01*
X0340788Y0021874D01*
X0340647Y0021816D01*
X0340509Y0021755D01*
X0340372Y0021690D01*
X0340236Y0021621D01*
X0340103Y0021550D01*
X0339971Y0021475D01*
X0339841Y0021396D01*
X0339714Y0021315D01*
X0339588Y0021230D01*
X0339464Y0021142D01*
X0339343Y0021051D01*
X0339224Y0020957D01*
X0339108Y0020859D01*
X0338994Y0020759D01*
X0338882Y0020657D01*
X0338774Y0020551D01*
X0338668Y0020443D01*
X0338564Y0020332D01*
X0338464Y0020218D01*
X0338366Y0020102D01*
X0338272Y0019983D01*
D12*
X0330826Y0019357D02*
X0330826Y0018390D01*
X0330343Y0017906D01*
X0328408Y0019841D01*
X0330343Y0019841D01*
X0330826Y0019357D01*
X0328408Y0019841D02*
X0327924Y0019357D01*
X0327924Y0018390D01*
X0328408Y0017906D01*
X0330343Y0017906D01*
X0330343Y0016894D02*
X0328408Y0016894D01*
X0327924Y0016411D01*
X0327924Y0015443D01*
X0328408Y0014960D01*
X0328891Y0014960D01*
X0329375Y0015443D01*
X0329375Y0016894D01*
X0330343Y0016894D02*
X0330826Y0016411D01*
X0330826Y0015443D01*
X0330343Y0014960D01*
X0330343Y0013948D02*
X0330826Y0013464D01*
X0330826Y0012497D01*
X0330343Y0012013D01*
X0329375Y0012980D02*
X0329375Y0013464D01*
X0329859Y0013948D01*
X0330343Y0013948D01*
X0329375Y0013464D02*
X0328891Y0013948D01*
X0328408Y0013948D01*
X0327924Y0013464D01*
X0327924Y0012497D01*
X0328408Y0012013D01*
X0324638Y0010614D02*
X0324155Y0011097D01*
X0323187Y0011097D01*
X0322703Y0010614D01*
X0324638Y0010614D02*
X0324638Y0010130D01*
X0322703Y0008195D01*
X0324638Y0008195D01*
X0321692Y0008195D02*
X0319757Y0008195D01*
X0320724Y0008195D02*
X0320724Y0011097D01*
X0319757Y0010130D01*
X0318745Y0010614D02*
X0318745Y0009646D01*
X0318262Y0009162D01*
X0316810Y0009162D01*
X0317778Y0009162D02*
X0318745Y0008195D01*
X0316810Y0008195D02*
X0316810Y0011097D01*
X0318262Y0011097D01*
X0318745Y0010614D01*
X0347494Y0009781D02*
X0349429Y0009781D01*
X0350440Y0009781D02*
X0352375Y0009781D01*
X0353387Y0009781D02*
X0354838Y0009781D01*
X0355322Y0010265D01*
X0355322Y0012200D01*
X0354838Y0012684D01*
X0353387Y0012684D01*
X0353387Y0009781D01*
X0356333Y0009781D02*
X0358268Y0009781D01*
X0357301Y0009781D02*
X0357301Y0012684D01*
X0356333Y0011716D01*
X0352375Y0012684D02*
X0350440Y0012684D01*
X0350440Y0009781D01*
X0347494Y0009781D02*
X0347494Y0012684D01*
X0350440Y0011233D02*
X0351408Y0011233D01*
X0303709Y0018387D02*
X0301774Y0018387D01*
X0303709Y0020322D01*
X0303709Y0020806D01*
X0303225Y0021289D01*
X0302257Y0021289D01*
X0301774Y0020806D01*
X0300762Y0020806D02*
X0300278Y0021289D01*
X0298827Y0021289D01*
X0298827Y0018387D01*
X0300278Y0018387D01*
X0300762Y0018871D01*
X0300762Y0020806D01*
X0300278Y0026387D02*
X0300762Y0026871D01*
X0300762Y0028806D01*
X0300278Y0029289D01*
X0298827Y0029289D01*
X0298827Y0026387D01*
X0300278Y0026387D01*
X0301774Y0026387D02*
X0303709Y0026387D01*
X0302741Y0026387D02*
X0302741Y0029289D01*
X0301774Y0028322D01*
X0292459Y0033950D02*
X0291008Y0035401D01*
X0290524Y0034917D02*
X0292459Y0036852D01*
X0290524Y0036852D02*
X0290524Y0033950D01*
X0289513Y0033950D02*
X0287578Y0033950D01*
X0289513Y0035885D01*
X0289513Y0036369D01*
X0289029Y0036852D01*
X0288061Y0036852D01*
X0287578Y0036369D01*
X0284125Y0036852D02*
X0283158Y0035885D01*
X0284125Y0036852D02*
X0284125Y0033950D01*
X0283158Y0033950D02*
X0285093Y0033950D01*
X0286104Y0033950D02*
X0286588Y0033950D01*
X0286588Y0034434D01*
X0286104Y0034434D01*
X0286104Y0033950D01*
X0275986Y0034434D02*
X0275986Y0036369D01*
X0274051Y0034434D01*
X0274535Y0033950D01*
X0275502Y0033950D01*
X0275986Y0034434D01*
X0274051Y0034434D02*
X0274051Y0036369D01*
X0274535Y0036852D01*
X0275502Y0036852D01*
X0275986Y0036369D01*
X0273039Y0036852D02*
X0273039Y0033950D01*
X0271104Y0033950D01*
X0271104Y0036852D01*
X0272072Y0035885D01*
X0273039Y0036852D01*
X0272072Y0036852D02*
X0271104Y0035885D01*
X0270093Y0036369D02*
X0270093Y0035401D01*
X0269609Y0034917D01*
X0268158Y0034917D01*
X0268158Y0033950D02*
X0270093Y0033950D01*
X0269125Y0034917D01*
X0269125Y0033950D02*
X0269125Y0036852D01*
X0268158Y0035885D01*
X0268158Y0036852D02*
X0269609Y0036852D01*
X0270093Y0036369D01*
X0268158Y0036852D02*
X0268158Y0033950D01*
X0272072Y0033950D02*
X0272072Y0036852D01*
X0298015Y0036734D02*
X0298499Y0036250D01*
X0299466Y0036250D01*
X0299950Y0036734D01*
X0299950Y0038669D01*
X0299466Y0039152D01*
X0298499Y0039152D01*
X0298015Y0038669D01*
X0298015Y0036734D01*
X0298982Y0037217D02*
X0299950Y0036250D01*
X0300961Y0036250D02*
X0302896Y0038185D01*
X0302896Y0038669D01*
X0302413Y0039152D01*
X0301445Y0039152D01*
X0300961Y0038669D01*
X0300961Y0036250D02*
X0302896Y0036250D01*
X0288039Y0043950D02*
X0286104Y0043950D01*
X0288039Y0045885D01*
X0288039Y0046369D01*
X0287556Y0046852D01*
X0286588Y0046852D01*
X0286104Y0046369D01*
X0285093Y0046369D02*
X0285093Y0045401D01*
X0284609Y0044917D01*
X0283158Y0044917D01*
X0283158Y0043950D02*
X0283158Y0046852D01*
X0284609Y0046852D01*
X0285093Y0046369D01*
X0284125Y0044917D02*
X0285093Y0043950D01*
X0273039Y0044434D02*
X0272556Y0043950D01*
X0271588Y0043950D01*
X0271104Y0044434D01*
X0270093Y0043950D02*
X0269125Y0044917D01*
X0269609Y0044917D02*
X0268158Y0044917D01*
X0268158Y0043950D02*
X0268158Y0046852D01*
X0269609Y0046852D01*
X0270093Y0046369D01*
X0270093Y0045401D01*
X0269609Y0044917D01*
X0272072Y0045401D02*
X0272556Y0045401D01*
X0273039Y0044917D01*
X0273039Y0044434D01*
X0272556Y0045401D02*
X0273039Y0045885D01*
X0273039Y0046369D01*
X0272556Y0046852D01*
X0271588Y0046852D01*
X0271104Y0046369D01*
X0241058Y0051557D02*
X0238155Y0051557D01*
X0238155Y0053008D01*
X0238639Y0053492D01*
X0239607Y0053492D01*
X0240090Y0053008D01*
X0240090Y0051557D01*
X0240090Y0052524D02*
X0241058Y0053492D01*
X0241058Y0054503D02*
X0240574Y0054503D01*
X0238639Y0056438D01*
X0238155Y0056438D01*
X0238155Y0054503D01*
X0231058Y0054503D02*
X0228155Y0054503D01*
X0229607Y0054987D02*
X0231058Y0056438D01*
X0230090Y0054503D02*
X0228155Y0056438D01*
X0231058Y0053492D02*
X0231058Y0051557D01*
X0231058Y0052524D02*
X0228155Y0052524D01*
X0229123Y0051557D01*
X0227995Y0051872D02*
X0226060Y0051872D01*
X0226060Y0048970D01*
X0226142Y0049852D02*
X0226142Y0046950D01*
X0226625Y0046950D02*
X0225658Y0046950D01*
X0227622Y0047434D02*
X0228106Y0046950D01*
X0229073Y0046950D01*
X0229557Y0047434D01*
X0230569Y0046950D02*
X0232504Y0046950D01*
X0231536Y0046950D02*
X0231536Y0049852D01*
X0230569Y0048885D01*
X0229557Y0049369D02*
X0229073Y0049852D01*
X0228106Y0049852D01*
X0227622Y0049369D01*
X0227622Y0047434D01*
X0225049Y0048970D02*
X0225049Y0050905D01*
X0226060Y0050421D02*
X0227028Y0050421D01*
X0226625Y0049852D02*
X0225658Y0049852D01*
X0225049Y0048970D02*
X0223598Y0048970D01*
X0223114Y0049453D01*
X0223114Y0050905D01*
X0222102Y0051388D02*
X0220167Y0049453D01*
X0220651Y0048970D01*
X0221619Y0048970D01*
X0222102Y0049453D01*
X0222102Y0051388D01*
X0221619Y0051872D01*
X0220651Y0051872D01*
X0220167Y0051388D01*
X0220167Y0049453D01*
X0219156Y0048970D02*
X0217221Y0048970D01*
X0218188Y0048970D02*
X0218188Y0051872D01*
X0217221Y0050905D01*
X0210358Y0057684D02*
X0209874Y0057200D01*
X0207939Y0057200D01*
X0207455Y0057684D01*
X0207455Y0058651D01*
X0207939Y0059135D01*
X0209874Y0059135D01*
X0210358Y0058651D01*
X0210358Y0057684D01*
X0209390Y0058167D02*
X0210358Y0059135D01*
X0210358Y0060147D02*
X0210358Y0062081D01*
X0210358Y0061114D02*
X0207455Y0061114D01*
X0208423Y0060147D01*
X0217221Y0060379D02*
X0217705Y0059895D01*
X0218672Y0059895D01*
X0219156Y0060379D01*
X0220167Y0060379D02*
X0220651Y0059895D01*
X0221619Y0059895D01*
X0222102Y0060379D01*
X0222102Y0061346D01*
X0221619Y0061830D01*
X0221135Y0061830D01*
X0220167Y0061346D01*
X0220167Y0062797D01*
X0222102Y0062797D01*
X0219156Y0062314D02*
X0218672Y0062797D01*
X0217705Y0062797D01*
X0217221Y0062314D01*
X0217221Y0060379D01*
X0230455Y0064950D02*
X0230455Y0066401D01*
X0230939Y0066885D01*
X0231907Y0066885D01*
X0232390Y0066401D01*
X0232390Y0064950D01*
X0232390Y0065917D02*
X0233358Y0066885D01*
X0232874Y0067897D02*
X0232390Y0067897D01*
X0231907Y0068380D01*
X0231907Y0069348D01*
X0232390Y0069831D01*
X0232874Y0069831D01*
X0233358Y0069348D01*
X0233358Y0068380D01*
X0232874Y0067897D01*
X0231907Y0068380D02*
X0231423Y0067897D01*
X0230939Y0067897D01*
X0230455Y0068380D01*
X0230455Y0069348D01*
X0230939Y0069831D01*
X0231423Y0069831D01*
X0231907Y0069348D01*
X0240455Y0069831D02*
X0242390Y0067897D01*
X0241907Y0068380D02*
X0243358Y0069831D01*
X0248876Y0069978D02*
X0248876Y0069011D01*
X0249360Y0068527D01*
X0251295Y0068527D01*
X0251778Y0069011D01*
X0251778Y0069978D01*
X0251295Y0070462D01*
X0249360Y0070462D01*
X0248876Y0069978D01*
X0243358Y0067897D02*
X0240455Y0067897D01*
X0243358Y0066885D02*
X0243358Y0064950D01*
X0243358Y0065917D02*
X0240455Y0065917D01*
X0241423Y0064950D01*
X0248876Y0064569D02*
X0248876Y0062634D01*
X0251778Y0062634D01*
X0251778Y0064569D01*
X0251778Y0065581D02*
X0251778Y0067516D01*
X0251295Y0065581D02*
X0249360Y0067516D01*
X0248876Y0067516D01*
X0248876Y0065581D01*
X0251295Y0065581D02*
X0251778Y0065581D01*
X0250327Y0063602D02*
X0250327Y0062634D01*
X0248876Y0061637D02*
X0248876Y0060670D01*
X0248876Y0061153D02*
X0251778Y0061153D01*
X0251778Y0060670D02*
X0251778Y0061637D01*
X0250327Y0059658D02*
X0249360Y0059658D01*
X0248876Y0059174D01*
X0248876Y0057723D01*
X0251778Y0057723D01*
X0250811Y0057723D02*
X0250811Y0059174D01*
X0250327Y0059658D01*
X0233358Y0064950D02*
X0230455Y0064950D01*
X0183486Y0064352D02*
X0181551Y0062417D01*
X0182035Y0062901D02*
X0183486Y0061450D01*
X0181551Y0061450D02*
X0181551Y0064352D01*
X0180539Y0063869D02*
X0178604Y0061934D01*
X0179088Y0061450D01*
X0180056Y0061450D01*
X0180539Y0061934D01*
X0180539Y0063869D01*
X0180056Y0064352D01*
X0179088Y0064352D01*
X0178604Y0063869D01*
X0178604Y0061934D01*
X0177593Y0061450D02*
X0175658Y0061450D01*
X0176625Y0061450D02*
X0176625Y0064352D01*
X0175658Y0063385D01*
X0151146Y0061201D02*
X0149211Y0061201D01*
X0150663Y0062652D01*
X0150663Y0059750D01*
X0148200Y0059750D02*
X0146265Y0059750D01*
X0147232Y0059750D02*
X0147232Y0062652D01*
X0146265Y0061685D01*
X0145253Y0062169D02*
X0145253Y0061201D01*
X0144770Y0060717D01*
X0143318Y0060717D01*
X0143318Y0059750D02*
X0143318Y0062652D01*
X0144770Y0062652D01*
X0145253Y0062169D01*
X0140501Y0062921D02*
X0139534Y0062921D01*
X0138522Y0063405D02*
X0138522Y0061470D01*
X0137071Y0061470D01*
X0136587Y0061953D01*
X0136587Y0063405D01*
X0134608Y0064372D02*
X0134608Y0061470D01*
X0133641Y0061470D02*
X0135576Y0061470D01*
X0132651Y0061470D02*
X0132167Y0061470D01*
X0132167Y0061953D01*
X0132651Y0061953D01*
X0132651Y0061470D01*
X0131156Y0061953D02*
X0130672Y0061470D01*
X0129705Y0061470D01*
X0129221Y0061953D01*
X0131156Y0063888D01*
X0131156Y0061953D01*
X0129221Y0061953D02*
X0129221Y0063888D01*
X0129705Y0064372D01*
X0130672Y0064372D01*
X0131156Y0063888D01*
X0133641Y0063405D02*
X0134608Y0064372D01*
X0139534Y0064372D02*
X0141469Y0064372D01*
X0139534Y0064372D02*
X0139534Y0061470D01*
X0144286Y0060717D02*
X0145253Y0059750D01*
X0118146Y0065734D02*
X0118146Y0066217D01*
X0117663Y0066701D01*
X0116211Y0066701D01*
X0116211Y0065734D01*
X0116695Y0065250D01*
X0117663Y0065250D01*
X0118146Y0065734D01*
X0117179Y0067669D02*
X0116211Y0066701D01*
X0117179Y0067669D02*
X0118146Y0068152D01*
X0114232Y0068152D02*
X0113265Y0067185D01*
X0112253Y0067669D02*
X0112253Y0066701D01*
X0111770Y0066217D01*
X0110318Y0066217D01*
X0111286Y0066217D02*
X0112253Y0065250D01*
X0113265Y0065250D02*
X0115200Y0065250D01*
X0114232Y0065250D02*
X0114232Y0068152D01*
X0112253Y0067669D02*
X0111770Y0068152D01*
X0110318Y0068152D01*
X0110318Y0065250D01*
X0095477Y0063732D02*
X0095477Y0063248D01*
X0094993Y0062764D01*
X0095477Y0062280D01*
X0095477Y0061797D01*
X0094993Y0061313D01*
X0094026Y0061313D01*
X0093542Y0061797D01*
X0092531Y0061797D02*
X0092531Y0063732D01*
X0092047Y0064215D01*
X0090596Y0064215D01*
X0090596Y0061313D01*
X0092047Y0061313D01*
X0092531Y0061797D01*
X0094510Y0062764D02*
X0094993Y0062764D01*
X0095477Y0063732D02*
X0094993Y0064215D01*
X0094026Y0064215D01*
X0093542Y0063732D01*
X0129221Y0072879D02*
X0129705Y0072395D01*
X0130672Y0072395D01*
X0131156Y0072879D01*
X0132167Y0072395D02*
X0134102Y0074330D01*
X0134102Y0074814D01*
X0133619Y0075297D01*
X0132651Y0075297D01*
X0132167Y0074814D01*
X0131156Y0074814D02*
X0130672Y0075297D01*
X0129705Y0075297D01*
X0129221Y0074814D01*
X0129221Y0072879D01*
X0132167Y0072395D02*
X0134102Y0072395D01*
X0141845Y0071750D02*
X0143780Y0071750D01*
X0142813Y0071750D02*
X0142813Y0074652D01*
X0141845Y0073685D01*
X0146265Y0074169D02*
X0146749Y0074652D01*
X0147716Y0074652D01*
X0148200Y0074169D01*
X0148200Y0073685D01*
X0146265Y0071750D01*
X0148200Y0071750D01*
X0149211Y0071750D02*
X0149211Y0074652D01*
X0149211Y0072717D02*
X0151146Y0074652D01*
X0149695Y0073201D02*
X0151146Y0071750D01*
X0145275Y0071750D02*
X0145275Y0072234D01*
X0144792Y0072234D01*
X0144792Y0071750D01*
X0145275Y0071750D01*
X0118146Y0073234D02*
X0117663Y0072750D01*
X0116695Y0072750D01*
X0116211Y0073234D01*
X0118146Y0075169D01*
X0118146Y0073234D01*
X0116211Y0073234D02*
X0116211Y0075169D01*
X0116695Y0075652D01*
X0117663Y0075652D01*
X0118146Y0075169D01*
X0114232Y0075652D02*
X0113265Y0074685D01*
X0114232Y0075652D02*
X0114232Y0072750D01*
X0113265Y0072750D02*
X0115200Y0072750D01*
X0095477Y0073289D02*
X0094993Y0072805D01*
X0094026Y0072805D01*
X0093542Y0073289D01*
X0093542Y0073773D01*
X0094026Y0074256D01*
X0094993Y0074256D01*
X0095477Y0073773D01*
X0095477Y0073289D01*
X0094993Y0074256D02*
X0095477Y0074740D01*
X0095477Y0075224D01*
X0094993Y0075708D01*
X0094026Y0075708D01*
X0093542Y0075224D01*
X0093542Y0074740D01*
X0094026Y0074256D01*
X0092531Y0074256D02*
X0090596Y0074256D01*
X0092047Y0075708D01*
X0092047Y0072805D01*
X0089584Y0072805D02*
X0087649Y0072805D01*
X0088617Y0072805D02*
X0088617Y0075708D01*
X0087649Y0074740D01*
X0086637Y0074256D02*
X0084703Y0074256D01*
X0086154Y0075708D01*
X0086154Y0072805D01*
X0083691Y0072805D02*
X0083691Y0075708D01*
X0081756Y0075708D02*
X0083691Y0072805D01*
X0081756Y0072805D02*
X0081756Y0075708D01*
X0079777Y0075708D02*
X0079777Y0072805D01*
X0080744Y0072805D02*
X0078809Y0072805D01*
X0078809Y0074740D02*
X0079777Y0075708D01*
X0175658Y0074352D02*
X0175658Y0071450D01*
X0175658Y0072417D02*
X0177109Y0072417D01*
X0177593Y0072901D01*
X0177593Y0073869D01*
X0177109Y0074352D01*
X0175658Y0074352D01*
X0178604Y0073385D02*
X0179572Y0074352D01*
X0179572Y0071450D01*
X0180539Y0071450D02*
X0178604Y0071450D01*
X0177593Y0071450D02*
X0176625Y0072417D01*
X0181551Y0071450D02*
X0183486Y0071450D01*
X0182518Y0071450D02*
X0182518Y0074352D01*
X0181551Y0073385D01*
X0297658Y0071852D02*
X0297658Y0068950D01*
X0297658Y0069917D02*
X0299109Y0069917D01*
X0299593Y0070401D01*
X0299593Y0071369D01*
X0299109Y0071852D01*
X0297658Y0071852D01*
X0300604Y0070885D02*
X0301572Y0071852D01*
X0301572Y0068950D01*
X0302539Y0068950D02*
X0300604Y0068950D01*
X0299593Y0068950D02*
X0298625Y0069917D01*
X0331655Y0067938D02*
X0333590Y0066003D01*
X0333107Y0066487D02*
X0334558Y0067938D01*
X0341655Y0067938D02*
X0341655Y0066003D01*
X0343107Y0066003D01*
X0342623Y0066971D01*
X0342623Y0067455D01*
X0343107Y0067938D01*
X0344074Y0067938D01*
X0344558Y0067455D01*
X0344558Y0066487D01*
X0344074Y0066003D01*
X0344558Y0064992D02*
X0343590Y0064024D01*
X0343590Y0064508D02*
X0343107Y0064992D01*
X0342139Y0064992D01*
X0341655Y0064508D01*
X0341655Y0063057D01*
X0344558Y0063057D01*
X0343590Y0063057D02*
X0343590Y0064508D01*
X0345455Y0063950D02*
X0345455Y0065401D01*
X0345939Y0065885D01*
X0346907Y0065885D01*
X0347390Y0065401D01*
X0347390Y0063950D01*
X0347390Y0064917D02*
X0348358Y0065885D01*
X0347874Y0066897D02*
X0346907Y0066897D01*
X0346907Y0068348D01*
X0347390Y0068831D01*
X0347874Y0068831D01*
X0348358Y0068348D01*
X0348358Y0067380D01*
X0347874Y0066897D01*
X0346907Y0066897D02*
X0345939Y0067864D01*
X0345455Y0068831D01*
X0355455Y0068831D02*
X0355455Y0066897D01*
X0356907Y0066897D01*
X0356423Y0067864D01*
X0356423Y0068348D01*
X0356907Y0068831D01*
X0357874Y0068831D01*
X0358358Y0068348D01*
X0358358Y0067380D01*
X0357874Y0066897D01*
X0358358Y0065885D02*
X0358358Y0063950D01*
X0358358Y0064917D02*
X0355455Y0064917D01*
X0356423Y0063950D01*
X0348358Y0063950D02*
X0345455Y0063950D01*
X0334558Y0063541D02*
X0334074Y0063057D01*
X0332139Y0064992D01*
X0334074Y0064992D01*
X0334558Y0064508D01*
X0334558Y0063541D01*
X0334074Y0063057D02*
X0332139Y0063057D01*
X0331655Y0063541D01*
X0331655Y0064508D01*
X0332139Y0064992D01*
X0331655Y0066003D02*
X0334558Y0066003D01*
X0334074Y0062045D02*
X0334558Y0061562D01*
X0334558Y0060594D01*
X0334074Y0060110D01*
X0332139Y0062045D01*
X0334074Y0062045D01*
X0332139Y0062045D02*
X0331655Y0061562D01*
X0331655Y0060594D01*
X0332139Y0060110D01*
X0334074Y0060110D01*
X0334558Y0059099D02*
X0334558Y0057164D01*
X0334558Y0058131D02*
X0331655Y0058131D01*
X0332623Y0057164D01*
X0306959Y0058950D02*
X0305508Y0060401D01*
X0305024Y0059917D02*
X0306959Y0061852D01*
X0305024Y0061852D02*
X0305024Y0058950D01*
X0304013Y0058950D02*
X0302078Y0058950D01*
X0304013Y0060885D01*
X0304013Y0061369D01*
X0303529Y0061852D01*
X0302561Y0061852D01*
X0302078Y0061369D01*
X0299593Y0061369D02*
X0299593Y0060885D01*
X0297658Y0058950D01*
X0299593Y0058950D01*
X0300604Y0058950D02*
X0301088Y0058950D01*
X0301088Y0059434D01*
X0300604Y0059434D01*
X0300604Y0058950D01*
X0299593Y0061369D02*
X0299109Y0061852D01*
X0298142Y0061852D01*
X0297658Y0061369D01*
X0355455Y0070327D02*
X0355939Y0069843D01*
X0357874Y0069843D01*
X0355939Y0071778D01*
X0357874Y0071778D01*
X0358358Y0071294D01*
X0358358Y0070327D01*
X0357874Y0069843D01*
X0355455Y0070327D02*
X0355455Y0071294D01*
X0355939Y0071778D01*
X0355455Y0072790D02*
X0358358Y0072790D01*
X0357390Y0072790D02*
X0355455Y0074725D01*
X0356907Y0073273D02*
X0358358Y0074725D01*
X0196558Y0039438D02*
X0195107Y0037987D01*
X0195590Y0037503D02*
X0193655Y0039438D01*
X0193655Y0037503D02*
X0196558Y0037503D01*
X0196558Y0036492D02*
X0196558Y0034557D01*
X0194623Y0034557D02*
X0193655Y0035524D01*
X0196558Y0035524D01*
X0205155Y0033438D02*
X0205155Y0031503D01*
X0206607Y0031503D01*
X0206123Y0032471D01*
X0206123Y0032955D01*
X0206607Y0033438D01*
X0207574Y0033438D01*
X0208058Y0032955D01*
X0208058Y0031987D01*
X0207574Y0031503D01*
X0208058Y0030492D02*
X0208058Y0028557D01*
X0208058Y0029524D02*
X0205155Y0029524D01*
X0206123Y0028557D01*
X0206607Y0027545D02*
X0207090Y0027062D01*
X0207090Y0025610D01*
X0208058Y0025610D02*
X0205155Y0025610D01*
X0205155Y0027062D01*
X0205639Y0027545D01*
X0206607Y0027545D01*
X0207090Y0026578D02*
X0208058Y0027545D01*
X0207207Y0023633D02*
X0206239Y0023633D01*
X0205755Y0023149D01*
X0207207Y0023633D02*
X0207690Y0023149D01*
X0207690Y0022665D01*
X0207207Y0022182D01*
X0207690Y0021698D01*
X0207690Y0021214D01*
X0207207Y0020730D01*
X0206239Y0020730D01*
X0205755Y0021214D01*
X0204766Y0021214D02*
X0204766Y0020730D01*
X0204282Y0020730D01*
X0204282Y0021214D01*
X0204766Y0021214D01*
X0203271Y0021214D02*
X0202787Y0020730D01*
X0201819Y0020730D01*
X0201336Y0021214D01*
X0202303Y0022182D02*
X0202787Y0022182D01*
X0203271Y0021698D01*
X0203271Y0021214D01*
X0202787Y0022182D02*
X0203271Y0022665D01*
X0203271Y0023149D01*
X0202787Y0023633D01*
X0201819Y0023633D01*
X0201336Y0023149D01*
X0206723Y0022182D02*
X0207207Y0022182D01*
X0208702Y0022665D02*
X0208702Y0021214D01*
X0209186Y0020730D01*
X0210637Y0020730D01*
X0210637Y0022665D01*
X0211648Y0022182D02*
X0212616Y0022182D01*
X0211648Y0023633D02*
X0211648Y0020730D01*
X0211648Y0023633D02*
X0213583Y0023633D01*
X0235221Y0022981D02*
X0235221Y0020512D01*
X0235838Y0019895D01*
X0237072Y0019895D01*
X0237690Y0020512D01*
X0238904Y0020512D02*
X0239521Y0019895D01*
X0240756Y0019895D01*
X0241373Y0020512D01*
X0241373Y0021129D01*
X0240756Y0021746D01*
X0240138Y0021746D01*
X0240756Y0021746D02*
X0241373Y0022364D01*
X0241373Y0022981D01*
X0240756Y0023598D01*
X0239521Y0023598D01*
X0238904Y0022981D01*
X0237690Y0022981D02*
X0237072Y0023598D01*
X0235838Y0023598D01*
X0235221Y0022981D01*
X0248175Y0024940D02*
X0248175Y0026875D01*
X0249626Y0025908D02*
X0249626Y0024940D01*
X0248175Y0024940D02*
X0251078Y0024940D01*
X0251078Y0023929D02*
X0249143Y0023929D01*
X0251078Y0023929D02*
X0251078Y0022478D01*
X0250594Y0021994D01*
X0249143Y0021994D01*
X0248659Y0020982D02*
X0250594Y0019047D01*
X0251078Y0019047D01*
X0248175Y0019047D02*
X0248175Y0020982D01*
X0248659Y0020982D01*
X0259100Y0022478D02*
X0259100Y0023445D01*
X0259584Y0023929D01*
X0259100Y0022478D02*
X0259584Y0021994D01*
X0261519Y0021994D01*
X0262003Y0022478D01*
X0262003Y0023445D01*
X0261519Y0023929D01*
X0268158Y0023950D02*
X0270093Y0023950D01*
X0269125Y0023950D02*
X0269125Y0026852D01*
X0268158Y0025885D01*
X0271104Y0026852D02*
X0271104Y0023950D01*
X0271588Y0025401D02*
X0273039Y0023950D01*
X0271104Y0024917D02*
X0273039Y0026852D01*
X0262003Y0026875D02*
X0262003Y0024940D01*
X0262003Y0025908D02*
X0259100Y0025908D01*
X0260068Y0024940D01*
X0268158Y0021852D02*
X0269609Y0021852D01*
X0270093Y0021369D01*
X0270093Y0020401D01*
X0269609Y0019917D01*
X0268158Y0019917D01*
X0269125Y0019917D02*
X0270093Y0018950D01*
X0271104Y0018950D02*
X0273039Y0018950D01*
X0272072Y0018950D02*
X0272072Y0021852D01*
X0271104Y0020885D01*
X0268158Y0021852D02*
X0268158Y0018950D01*
X0274051Y0018950D02*
X0274051Y0019434D01*
X0275986Y0021369D01*
X0275986Y0021852D01*
X0274051Y0021852D01*
X0251078Y0017552D02*
X0248175Y0017552D01*
X0249626Y0016101D01*
X0249626Y0018036D01*
X0248739Y0012673D02*
X0246270Y0012673D01*
X0246270Y0008970D01*
X0245056Y0008970D02*
X0245056Y0011438D01*
X0246270Y0010821D02*
X0247505Y0010821D01*
X0242587Y0011438D02*
X0242587Y0009587D01*
X0243204Y0008970D01*
X0245056Y0008970D01*
X0241373Y0009587D02*
X0240756Y0008970D01*
X0239521Y0008970D01*
X0238904Y0009587D01*
X0241373Y0012056D01*
X0241373Y0009587D01*
X0238904Y0009587D02*
X0238904Y0012056D01*
X0239521Y0012673D01*
X0240756Y0012673D01*
X0241373Y0012056D01*
X0236455Y0012673D02*
X0235221Y0011438D01*
X0236455Y0012673D02*
X0236455Y0008970D01*
X0235221Y0008970D02*
X0237690Y0008970D01*
X0207583Y0008773D02*
X0207100Y0009256D01*
X0205648Y0009256D01*
X0205648Y0008289D01*
X0206132Y0007805D01*
X0207100Y0007805D01*
X0207583Y0008289D01*
X0207583Y0008773D01*
X0206616Y0010224D02*
X0205648Y0009256D01*
X0206616Y0010224D02*
X0207583Y0010708D01*
X0204637Y0010224D02*
X0204153Y0010708D01*
X0203186Y0010708D01*
X0202702Y0010224D01*
X0202702Y0008289D01*
X0203186Y0007805D01*
X0204153Y0007805D01*
X0204637Y0008289D01*
X0183381Y0009591D02*
X0180912Y0007122D01*
X0180912Y0006505D01*
X0179697Y0007122D02*
X0179080Y0006505D01*
X0177846Y0006505D01*
X0177229Y0007122D01*
X0177229Y0009591D01*
X0177846Y0010208D01*
X0179080Y0010208D01*
X0179697Y0009591D01*
X0180912Y0010208D02*
X0183381Y0010208D01*
X0183381Y0009591D01*
X0177229Y0016196D02*
X0177229Y0019899D01*
X0179080Y0019899D01*
X0179697Y0019282D01*
X0179697Y0018048D01*
X0179080Y0017430D01*
X0177229Y0017430D01*
X0176014Y0018048D02*
X0175397Y0017430D01*
X0174163Y0017430D01*
X0173545Y0018048D01*
X0172321Y0018048D02*
X0172321Y0017430D01*
X0171704Y0017430D01*
X0171704Y0018048D01*
X0172321Y0018048D01*
X0170489Y0018048D02*
X0170489Y0018665D01*
X0169872Y0019282D01*
X0169255Y0019282D01*
X0169872Y0019282D02*
X0170489Y0019899D01*
X0170489Y0020516D01*
X0169872Y0021133D01*
X0168638Y0021133D01*
X0168021Y0020516D01*
X0173545Y0020516D02*
X0174163Y0021133D01*
X0175397Y0021133D01*
X0176014Y0020516D01*
X0176014Y0019899D01*
X0175397Y0019282D01*
X0176014Y0018665D01*
X0176014Y0018048D01*
X0180912Y0017430D02*
X0180912Y0021133D01*
X0183380Y0021133D01*
X0182146Y0019282D02*
X0180912Y0019282D01*
X0175397Y0019282D02*
X0174780Y0019282D01*
X0170489Y0018048D02*
X0169872Y0017430D01*
X0168638Y0017430D01*
X0168021Y0018048D01*
X0095986Y0019434D02*
X0095502Y0018950D01*
X0094535Y0018950D01*
X0094051Y0019434D01*
X0093039Y0018950D02*
X0091104Y0018950D01*
X0092072Y0018950D02*
X0092072Y0021852D01*
X0091104Y0020885D01*
X0090093Y0021369D02*
X0090093Y0020401D01*
X0089609Y0019917D01*
X0088158Y0019917D01*
X0089125Y0019917D02*
X0090093Y0018950D01*
X0088158Y0018950D02*
X0088158Y0021852D01*
X0089609Y0021852D01*
X0090093Y0021369D01*
X0094051Y0021369D02*
X0094535Y0021852D01*
X0095502Y0021852D01*
X0095986Y0021369D01*
X0095986Y0020885D01*
X0095502Y0020401D01*
X0095986Y0019917D01*
X0095986Y0019434D01*
X0095502Y0020401D02*
X0095018Y0020401D01*
X0094051Y0009852D02*
X0095018Y0008885D01*
X0095986Y0009852D01*
X0095986Y0006950D01*
X0094051Y0006950D02*
X0094051Y0009852D01*
X0093039Y0009369D02*
X0091104Y0007434D01*
X0091588Y0006950D01*
X0092556Y0006950D01*
X0093039Y0007434D01*
X0093039Y0009369D01*
X0092556Y0009852D01*
X0091588Y0009852D01*
X0091104Y0009369D01*
X0091104Y0007434D01*
X0090093Y0006950D02*
X0088158Y0006950D01*
X0089125Y0006950D02*
X0089125Y0009852D01*
X0088158Y0008885D01*
X0265658Y0008950D02*
X0267593Y0008950D01*
X0266625Y0008950D02*
X0266625Y0011852D01*
X0265658Y0010885D01*
X0268604Y0011369D02*
X0269088Y0011852D01*
X0270056Y0011852D01*
X0270539Y0011369D01*
X0268604Y0009434D01*
X0269088Y0008950D01*
X0270056Y0008950D01*
X0270539Y0009434D01*
X0270539Y0011369D01*
X0271551Y0011852D02*
X0271551Y0008950D01*
X0272035Y0010401D02*
X0273486Y0008950D01*
X0271551Y0009917D02*
X0273486Y0011852D01*
X0268604Y0011369D02*
X0268604Y0009434D01*
D13*
X0024133Y0005063D02*
X0021831Y0005063D01*
X0021831Y0009667D01*
X0024133Y0009667D01*
X0024900Y0008900D01*
X0024900Y0005830D01*
X0024133Y0005063D01*
X0028737Y0005063D02*
X0028737Y0009667D01*
X0026435Y0007365D01*
X0029504Y0007365D01*
X0052208Y0008569D02*
X0053743Y0010104D01*
X0053743Y0005500D01*
X0055277Y0005500D02*
X0052208Y0005500D01*
X0056812Y0006267D02*
X0057579Y0005500D01*
X0059114Y0005500D01*
X0059881Y0006267D01*
X0059881Y0007802D01*
X0059114Y0008569D01*
X0058346Y0008569D01*
X0056812Y0007802D01*
X0056812Y0010104D01*
X0059881Y0010104D01*
X0061416Y0009337D02*
X0062183Y0010104D01*
X0063718Y0010104D01*
X0064485Y0009337D01*
X0061416Y0006267D01*
X0062183Y0005500D01*
X0063718Y0005500D01*
X0064485Y0006267D01*
X0064485Y0009337D01*
X0066020Y0008569D02*
X0066020Y0006267D01*
X0066787Y0005500D01*
X0069089Y0005500D01*
X0069089Y0008569D01*
X0070624Y0007802D02*
X0072158Y0007802D01*
X0070624Y0005500D02*
X0070624Y0010104D01*
X0073693Y0010104D01*
X0061416Y0009337D02*
X0061416Y0006267D01*
X0063114Y0019500D02*
X0063114Y0024104D01*
X0060812Y0021802D01*
X0063881Y0021802D01*
X0059277Y0023337D02*
X0058510Y0024104D01*
X0056975Y0024104D01*
X0056208Y0023337D01*
X0056208Y0020267D01*
X0056975Y0019500D01*
X0058510Y0019500D01*
X0059277Y0020267D01*
X0201708Y0055967D02*
X0202175Y0055500D01*
X0203109Y0055500D01*
X0203576Y0055967D01*
X0203576Y0056901D01*
X0203109Y0057368D01*
X0202642Y0057368D01*
X0201708Y0056901D01*
X0201708Y0058302D01*
X0203576Y0058302D01*
X0204654Y0058302D02*
X0204654Y0056434D01*
X0205589Y0055500D01*
X0206523Y0056434D01*
X0206523Y0058302D01*
X0209469Y0058302D02*
X0207601Y0055500D01*
X0210547Y0055500D02*
X0212416Y0055500D01*
X0211482Y0055500D02*
X0211482Y0058302D01*
X0210547Y0057368D01*
X0213494Y0057835D02*
X0213961Y0058302D01*
X0214895Y0058302D01*
X0215362Y0057835D01*
X0215362Y0057368D01*
X0213494Y0055500D01*
X0215362Y0055500D01*
X0216440Y0056434D02*
X0217375Y0055500D01*
X0218309Y0056434D01*
X0218309Y0058302D01*
X0216440Y0058302D02*
X0216440Y0056434D01*
X0222334Y0056434D02*
X0223735Y0056434D01*
X0224202Y0056901D01*
X0224202Y0057835D01*
X0223735Y0058302D01*
X0222334Y0058302D01*
X0222334Y0055500D01*
X0223268Y0056434D02*
X0224202Y0055500D01*
X0225280Y0055500D02*
X0227148Y0055500D01*
X0228227Y0055967D02*
X0228694Y0055500D01*
X0229628Y0055500D01*
X0230095Y0055967D01*
X0230095Y0056901D01*
X0229161Y0056901D01*
X0228227Y0057835D02*
X0228227Y0055967D01*
X0226214Y0056901D02*
X0225280Y0056901D01*
X0225280Y0058302D02*
X0225280Y0055500D01*
X0225280Y0058302D02*
X0227148Y0058302D01*
X0228227Y0057835D02*
X0228694Y0058302D01*
X0229628Y0058302D01*
X0230095Y0057835D01*
X0263006Y0047569D02*
X0263006Y0044500D01*
X0261471Y0046035D02*
X0264541Y0046035D01*
X0263006Y0073500D02*
X0263006Y0076569D01*
D14*
X0255815Y0072111D02*
X0273531Y0072111D01*
X0273531Y0048489D01*
X0255815Y0048489D01*
X0255815Y0058331D01*
X0253846Y0058331D01*
X0253846Y0062269D01*
X0255815Y0062269D01*
X0255815Y0072111D01*
X0229008Y0075300D02*
X0229008Y0024800D01*
X0197008Y0024800D01*
X0197008Y0075300D01*
X0229008Y0075300D01*
X0099008Y0071300D02*
X0099008Y0065300D01*
X0085008Y0065300D01*
X0085008Y0071300D01*
X0099008Y0071300D01*
D15*
X0200608Y0064102D02*
X0201342Y0064102D01*
X0200975Y0064102D02*
X0200975Y0061900D01*
X0200608Y0061900D02*
X0201342Y0061900D01*
X0202081Y0061900D02*
X0202081Y0064102D01*
X0203549Y0061900D01*
X0203549Y0064102D01*
X0208108Y0063735D02*
X0208108Y0062267D01*
X0208475Y0061900D01*
X0209209Y0061900D01*
X0209576Y0062267D01*
X0209576Y0063001D01*
X0208842Y0063001D01*
X0209576Y0063735D02*
X0209209Y0064102D01*
X0208475Y0064102D01*
X0208108Y0063735D01*
X0210318Y0064102D02*
X0211786Y0061900D01*
X0211786Y0064102D01*
X0212528Y0064102D02*
X0213629Y0064102D01*
X0213996Y0063735D01*
X0213996Y0062267D01*
X0213629Y0061900D01*
X0212528Y0061900D01*
X0212528Y0064102D01*
X0210318Y0064102D02*
X0210318Y0061900D01*
X0220608Y0062267D02*
X0220608Y0063735D01*
X0220975Y0064102D01*
X0221709Y0064102D01*
X0222076Y0063735D01*
X0222076Y0062267D01*
X0221709Y0061900D01*
X0220975Y0061900D01*
X0220608Y0062267D01*
X0222818Y0062267D02*
X0223185Y0061900D01*
X0223919Y0061900D01*
X0224286Y0062267D01*
X0224286Y0064102D01*
X0225028Y0064102D02*
X0226496Y0064102D01*
X0225762Y0064102D02*
X0225762Y0061900D01*
X0222818Y0062267D02*
X0222818Y0064102D01*
D16*
X0315744Y0049292D02*
X0315744Y0028308D01*
X0319776Y0028308D01*
X0332526Y0028308D02*
X0340526Y0028308D01*
X0348276Y0028308D02*
X0352276Y0028308D01*
X0360151Y0028308D02*
X0366807Y0028308D01*
X0349954Y0020269D02*
X0349855Y0020438D01*
X0349751Y0020604D01*
X0349644Y0020768D01*
X0349533Y0020929D01*
X0349418Y0021087D01*
X0349299Y0021242D01*
X0349176Y0021395D01*
X0349050Y0021544D01*
X0348920Y0021690D01*
X0348786Y0021833D01*
X0348649Y0021973D01*
X0348509Y0022109D01*
X0348365Y0022242D01*
X0348218Y0022371D01*
X0348068Y0022497D01*
X0347915Y0022618D01*
X0347759Y0022737D01*
X0347600Y0022851D01*
X0347439Y0022961D01*
X0347274Y0023067D01*
X0347108Y0023170D01*
X0346938Y0023268D01*
X0346767Y0023362D01*
X0346593Y0023452D01*
X0346417Y0023537D01*
X0346239Y0023619D01*
X0346059Y0023695D01*
X0345877Y0023768D01*
X0345694Y0023836D01*
X0345509Y0023899D01*
X0345322Y0023958D01*
X0345134Y0024012D01*
X0344945Y0024062D01*
X0344755Y0024107D01*
X0344563Y0024147D01*
X0344371Y0024183D01*
X0344178Y0024214D01*
X0343984Y0024240D01*
X0343789Y0024262D01*
X0343594Y0024278D01*
X0343399Y0024290D01*
X0343203Y0024298D01*
X0343008Y0024300D01*
X0350067Y0012535D02*
X0349974Y0012367D01*
X0349878Y0012201D01*
X0349778Y0012037D01*
X0349673Y0011876D01*
X0349565Y0011717D01*
X0349453Y0011561D01*
X0349337Y0011407D01*
X0349218Y0011257D01*
X0349095Y0011109D01*
X0348969Y0010964D01*
X0348839Y0010823D01*
X0348706Y0010684D01*
X0348569Y0010549D01*
X0348429Y0010417D01*
X0348287Y0010289D01*
X0348141Y0010164D01*
X0347992Y0010042D01*
X0347840Y0009924D01*
X0347686Y0009810D01*
X0347528Y0009700D01*
X0347369Y0009593D01*
X0347206Y0009490D01*
X0347041Y0009391D01*
X0346874Y0009296D01*
X0346705Y0009206D01*
X0346534Y0009119D01*
X0346360Y0009036D01*
X0346185Y0008958D01*
X0346007Y0008884D01*
X0345828Y0008814D01*
X0345648Y0008748D01*
X0345466Y0008687D01*
X0345282Y0008630D01*
X0345097Y0008578D01*
X0344911Y0008530D01*
X0344724Y0008486D01*
X0344536Y0008447D01*
X0344347Y0008413D01*
X0344157Y0008383D01*
X0343967Y0008358D01*
X0343776Y0008337D01*
X0343584Y0008321D01*
X0343392Y0008309D01*
X0343200Y0008302D01*
X0343008Y0008300D01*
X0336901Y0021468D02*
X0337028Y0021614D01*
X0337157Y0021756D01*
X0337291Y0021896D01*
X0337427Y0022032D01*
X0337567Y0022165D01*
X0337710Y0022295D01*
X0337857Y0022421D01*
X0338006Y0022543D01*
X0338158Y0022662D01*
X0338313Y0022777D01*
X0338470Y0022889D01*
X0338630Y0022996D01*
X0338793Y0023100D01*
X0338959Y0023199D01*
X0339126Y0023295D01*
X0339296Y0023387D01*
X0339468Y0023474D01*
X0339642Y0023558D01*
X0339818Y0023637D01*
X0339996Y0023711D01*
X0340176Y0023782D01*
X0340357Y0023848D01*
X0340540Y0023910D01*
X0340724Y0023967D01*
X0340910Y0024020D01*
X0341097Y0024068D01*
X0341285Y0024112D01*
X0341474Y0024151D01*
X0341664Y0024186D01*
X0341854Y0024216D01*
X0342045Y0024242D01*
X0342237Y0024263D01*
X0342430Y0024279D01*
X0342622Y0024291D01*
X0342815Y0024298D01*
X0343008Y0024300D01*
X0336862Y0011178D02*
X0336989Y0011030D01*
X0337119Y0010885D01*
X0337252Y0010744D01*
X0337389Y0010605D01*
X0337529Y0010470D01*
X0337673Y0010339D01*
X0337820Y0010211D01*
X0337969Y0010086D01*
X0338122Y0009965D01*
X0338277Y0009848D01*
X0338436Y0009735D01*
X0338597Y0009626D01*
X0338761Y0009521D01*
X0338927Y0009419D01*
X0339096Y0009322D01*
X0339266Y0009229D01*
X0339440Y0009140D01*
X0339615Y0009055D01*
X0339792Y0008975D01*
X0339971Y0008899D01*
X0340152Y0008827D01*
X0340335Y0008760D01*
X0340519Y0008697D01*
X0340705Y0008639D01*
X0340892Y0008585D01*
X0341080Y0008536D01*
X0341270Y0008491D01*
X0341460Y0008451D01*
X0341652Y0008416D01*
X0341844Y0008385D01*
X0342037Y0008359D01*
X0342231Y0008338D01*
X0342425Y0008321D01*
X0342619Y0008309D01*
X0342813Y0008302D01*
X0343008Y0008300D01*
X0328526Y0054292D02*
X0366807Y0054292D01*
X0074287Y0054292D02*
X0074287Y0033308D01*
X0061506Y0028308D02*
X0023224Y0028308D01*
X0023224Y0054292D02*
X0029881Y0054292D01*
X0037756Y0054292D02*
X0041756Y0054292D01*
X0049506Y0054292D02*
X0057506Y0054292D01*
X0070256Y0054292D02*
X0074287Y0054292D01*
M02*
