G75*
%MOIN*%
%OFA0B0*%
%FSLAX25Y25*%
%IPPOS*%
%LPD*%
%AMOC8*
5,1,8,0,0,1.08239X$1,22.5*
%
%ADD10C,0.07400*%
%ADD11C,0.07000*%
%ADD12R,0.07000X0.07000*%
%ADD13OC8,0.05200*%
%ADD14C,0.05600*%
%ADD15R,0.05512X0.04724*%
%ADD16R,0.05906X0.06299*%
%ADD17R,0.04724X0.04724*%
%ADD18R,0.05543X0.05543*%
%ADD19R,0.07400X0.07400*%
%ADD20OC8,0.08858*%
%ADD21C,0.00600*%
%ADD22C,0.02978*%
D10*
X0248008Y0055600D03*
X0248008Y0067000D03*
D11*
X0223008Y0070300D03*
X0213008Y0070300D03*
D12*
X0203008Y0070300D03*
D13*
X0338008Y0016300D03*
X0348008Y0016300D03*
D14*
X0262508Y0056363D03*
X0262508Y0064237D03*
D15*
X0334146Y0051143D03*
X0351469Y0041300D03*
X0334146Y0031457D03*
X0083669Y0031457D03*
X0066346Y0031300D03*
X0056039Y0031457D03*
X0066346Y0041300D03*
X0083669Y0041457D03*
X0083669Y0051143D03*
X0066346Y0051300D03*
X0056039Y0051143D03*
X0038717Y0041300D03*
D16*
X0207508Y0047206D03*
D17*
X0211445Y0034115D03*
X0203571Y0034115D03*
D18*
X0285508Y0026300D03*
X0285508Y0016300D03*
X0373008Y0016300D03*
X0285508Y0058800D03*
X0285508Y0068800D03*
X0373008Y0068800D03*
D19*
X0190567Y0051143D03*
X0190567Y0041300D03*
X0190567Y0031457D03*
X0135567Y0031457D03*
X0135567Y0041300D03*
X0135567Y0051143D03*
D20*
X0163008Y0060985D03*
X0108008Y0060985D03*
X0108008Y0021615D03*
X0163008Y0021615D03*
D21*
X0003008Y0001300D02*
X0388008Y0001300D01*
X0388008Y0081300D01*
X0003008Y0081300D01*
X0003008Y0001300D01*
X0003008Y0001512D02*
X0388008Y0001512D01*
X0388008Y0002110D02*
X0003008Y0002110D01*
X0003008Y0002709D02*
X0388008Y0002709D01*
X0388008Y0003307D02*
X0003008Y0003307D01*
X0003008Y0003906D02*
X0388008Y0003906D01*
X0388008Y0004504D02*
X0003008Y0004504D01*
X0003008Y0005103D02*
X0011225Y0005103D01*
X0011428Y0004900D02*
X0010608Y0005720D01*
X0010608Y0008837D01*
X0007428Y0008837D01*
X0006608Y0009657D01*
X0006608Y0073809D01*
X0007428Y0074629D01*
X0010545Y0074629D01*
X0010545Y0076586D01*
X0010545Y0077746D01*
X0011365Y0078566D01*
X0378667Y0078566D01*
X0379487Y0077746D01*
X0379487Y0074629D01*
X0382588Y0074629D01*
X0383408Y0073809D01*
X0383408Y0009720D01*
X0382588Y0008900D01*
X0379408Y0008900D01*
X0379408Y0005720D01*
X0378588Y0004900D01*
X0011428Y0004900D01*
X0010626Y0005701D02*
X0003008Y0005701D01*
X0003008Y0006300D02*
X0010608Y0006300D01*
X0010608Y0006899D02*
X0003008Y0006899D01*
X0003008Y0007497D02*
X0010608Y0007497D01*
X0010608Y0008096D02*
X0003008Y0008096D01*
X0003008Y0008694D02*
X0010608Y0008694D01*
X0013408Y0008694D02*
X0042499Y0008694D01*
X0042812Y0008381D02*
X0090425Y0008381D01*
X0090455Y0008309D01*
X0091064Y0007700D01*
X0013408Y0007700D01*
X0013408Y0010817D01*
X0012588Y0011637D01*
X0009408Y0011637D01*
X0009408Y0071829D01*
X0012525Y0071829D01*
X0013345Y0072649D01*
X0013345Y0075766D01*
X0195522Y0075766D01*
X0195426Y0075670D01*
X0096227Y0075670D01*
X0095414Y0074857D01*
X0082928Y0062371D01*
X0082928Y0054592D01*
X0080463Y0054592D01*
X0079826Y0053955D01*
X0079826Y0052778D01*
X0077497Y0052778D01*
X0076110Y0051391D01*
X0070190Y0051391D01*
X0070190Y0054113D01*
X0069553Y0054750D01*
X0063140Y0054750D01*
X0062503Y0054113D01*
X0062503Y0048487D01*
X0063140Y0047850D01*
X0069553Y0047850D01*
X0070190Y0048487D01*
X0070190Y0048616D01*
X0077259Y0048616D01*
X0078072Y0049428D01*
X0078646Y0050003D01*
X0079826Y0050003D01*
X0079826Y0048330D01*
X0080234Y0047922D01*
X0078884Y0047922D01*
X0078072Y0047109D01*
X0076684Y0045722D01*
X0076684Y0044335D01*
X0069866Y0037517D01*
X0063623Y0037517D01*
X0062810Y0036704D01*
X0059883Y0033776D01*
X0059883Y0034270D01*
X0059246Y0034907D01*
X0052833Y0034907D01*
X0052196Y0034270D01*
X0052196Y0028645D01*
X0052833Y0028008D01*
X0059246Y0028008D01*
X0059883Y0028645D01*
X0059883Y0030580D01*
X0060610Y0030580D01*
X0062503Y0032473D01*
X0062503Y0028487D01*
X0063140Y0027850D01*
X0065585Y0027850D01*
X0065585Y0026536D01*
X0077378Y0014743D01*
X0078191Y0013931D01*
X0096669Y0013931D01*
X0096669Y0013931D01*
X0057142Y0013931D01*
X0040612Y0030461D01*
X0040612Y0037850D01*
X0041923Y0037850D01*
X0042560Y0038487D01*
X0042560Y0040943D01*
X0042621Y0040882D01*
X0043568Y0040490D01*
X0044593Y0040490D01*
X0045540Y0040882D01*
X0046264Y0041607D01*
X0046657Y0042554D01*
X0046657Y0043579D01*
X0046627Y0043651D01*
X0052196Y0049220D01*
X0052196Y0048330D01*
X0052833Y0047693D01*
X0058244Y0047693D01*
X0057851Y0047300D01*
X0057459Y0046353D01*
X0057459Y0045780D01*
X0056029Y0046372D01*
X0054199Y0046372D01*
X0052508Y0045672D01*
X0051214Y0044378D01*
X0050514Y0042687D01*
X0050514Y0040857D01*
X0051214Y0039167D01*
X0052508Y0037873D01*
X0054199Y0037172D01*
X0056029Y0037172D01*
X0057720Y0037873D01*
X0059014Y0039167D01*
X0059714Y0040857D01*
X0059714Y0042687D01*
X0059626Y0042901D01*
X0060154Y0042372D01*
X0062236Y0040291D01*
X0062503Y0040291D01*
X0062503Y0038487D01*
X0063140Y0037850D01*
X0069553Y0037850D01*
X0070190Y0038487D01*
X0070190Y0044113D01*
X0069553Y0044750D01*
X0063140Y0044750D01*
X0062503Y0044113D01*
X0062503Y0043948D01*
X0062145Y0044306D01*
X0062220Y0044382D01*
X0062612Y0045328D01*
X0062612Y0046353D01*
X0062220Y0047300D01*
X0061495Y0048025D01*
X0060548Y0048417D01*
X0059883Y0048417D01*
X0059883Y0053955D01*
X0059246Y0054592D01*
X0052833Y0054592D01*
X0052196Y0053955D01*
X0052196Y0052084D01*
X0051136Y0052084D01*
X0044665Y0045613D01*
X0044593Y0045643D01*
X0043568Y0045643D01*
X0042621Y0045250D01*
X0042022Y0044651D01*
X0041923Y0044750D01*
X0035510Y0044750D01*
X0034873Y0044113D01*
X0034873Y0038487D01*
X0035510Y0037850D01*
X0037837Y0037850D01*
X0037837Y0029311D01*
X0055180Y0011969D01*
X0055992Y0011156D01*
X0090425Y0011156D01*
X0090425Y0011156D01*
X0043961Y0011156D01*
X0041771Y0013346D01*
X0041801Y0013418D01*
X0041801Y0014443D01*
X0041409Y0015390D01*
X0040684Y0016115D01*
X0039737Y0016507D01*
X0038712Y0016507D01*
X0037765Y0016115D01*
X0037040Y0015390D01*
X0036648Y0014443D01*
X0036648Y0013418D01*
X0037040Y0012471D01*
X0037765Y0011747D01*
X0038712Y0011354D01*
X0039737Y0011354D01*
X0039809Y0011384D01*
X0042812Y0008381D01*
X0041900Y0009293D02*
X0013408Y0009293D01*
X0013408Y0009891D02*
X0041302Y0009891D01*
X0040703Y0010490D02*
X0013408Y0010490D01*
X0013137Y0011088D02*
X0040105Y0011088D01*
X0037910Y0011687D02*
X0009408Y0011687D01*
X0009408Y0012285D02*
X0037226Y0012285D01*
X0036869Y0012884D02*
X0009408Y0012884D01*
X0009408Y0013482D02*
X0036648Y0013482D01*
X0036648Y0014081D02*
X0009408Y0014081D01*
X0009408Y0014679D02*
X0036746Y0014679D01*
X0036994Y0015278D02*
X0009408Y0015278D01*
X0009408Y0015876D02*
X0037526Y0015876D01*
X0038634Y0016475D02*
X0009408Y0016475D01*
X0009408Y0017073D02*
X0050075Y0017073D01*
X0050673Y0016475D02*
X0039815Y0016475D01*
X0040922Y0015876D02*
X0051272Y0015876D01*
X0051870Y0015278D02*
X0041455Y0015278D01*
X0041703Y0014679D02*
X0052469Y0014679D01*
X0053067Y0014081D02*
X0041801Y0014081D01*
X0041801Y0013482D02*
X0053666Y0013482D01*
X0054265Y0012884D02*
X0042234Y0012884D01*
X0042832Y0012285D02*
X0054863Y0012285D01*
X0055462Y0011687D02*
X0043431Y0011687D01*
X0043387Y0009769D02*
X0039224Y0013931D01*
X0054598Y0016475D02*
X0075647Y0016475D01*
X0076245Y0015876D02*
X0055196Y0015876D01*
X0055795Y0015278D02*
X0076844Y0015278D01*
X0077442Y0014679D02*
X0056393Y0014679D01*
X0056992Y0014081D02*
X0078041Y0014081D01*
X0078765Y0015318D02*
X0100270Y0015318D01*
X0106513Y0009075D01*
X0187676Y0009075D01*
X0188370Y0009769D01*
X0349309Y0009769D01*
X0356246Y0016706D01*
X0358634Y0017672D02*
X0369149Y0017672D01*
X0369149Y0018270D02*
X0358324Y0018270D01*
X0358430Y0018165D02*
X0357705Y0018890D01*
X0356758Y0019282D01*
X0355733Y0019282D01*
X0354786Y0018890D01*
X0354062Y0018165D01*
X0353669Y0017218D01*
X0353669Y0016193D01*
X0353699Y0016121D01*
X0348734Y0011156D01*
X0322135Y0011156D01*
X0332541Y0021561D01*
X0333221Y0021561D01*
X0333250Y0021489D01*
X0333975Y0020765D01*
X0334922Y0020372D01*
X0335947Y0020372D01*
X0336894Y0020765D01*
X0337619Y0021489D01*
X0338011Y0022436D01*
X0338011Y0022573D01*
X0339022Y0021561D01*
X0345027Y0021561D01*
X0345840Y0022374D01*
X0353471Y0030005D01*
X0353471Y0037850D01*
X0354676Y0037850D01*
X0355313Y0038487D01*
X0355313Y0044113D01*
X0354676Y0044750D01*
X0348263Y0044750D01*
X0347626Y0044113D01*
X0347626Y0038487D01*
X0348263Y0037850D01*
X0350696Y0037850D01*
X0350696Y0031154D01*
X0343878Y0024336D01*
X0340172Y0024336D01*
X0338209Y0026298D01*
X0337397Y0027111D01*
X0332085Y0027111D01*
X0328993Y0024019D01*
X0328993Y0024155D01*
X0328601Y0025102D01*
X0327876Y0025827D01*
X0327804Y0025856D01*
X0327804Y0031154D01*
X0289650Y0069308D01*
X0289367Y0069591D01*
X0289367Y0072022D01*
X0288730Y0072659D01*
X0282286Y0072659D01*
X0281649Y0072022D01*
X0281649Y0071508D01*
X0262729Y0071508D01*
X0262699Y0071580D01*
X0261974Y0072305D01*
X0261027Y0072697D01*
X0260891Y0072697D01*
X0261090Y0072895D01*
X0289076Y0072895D01*
X0289650Y0072321D01*
X0289650Y0070239D01*
X0290463Y0069427D01*
X0329310Y0030580D01*
X0330303Y0030580D01*
X0330303Y0028645D01*
X0330940Y0028008D01*
X0337353Y0028008D01*
X0337990Y0028645D01*
X0337990Y0034270D01*
X0337353Y0034907D01*
X0330940Y0034907D01*
X0330303Y0034270D01*
X0330303Y0033511D01*
X0292425Y0071389D01*
X0292425Y0073470D01*
X0291038Y0074857D01*
X0290225Y0075670D01*
X0259940Y0075670D01*
X0256472Y0072202D01*
X0255659Y0071389D01*
X0255659Y0066091D01*
X0255659Y0066091D01*
X0255659Y0070695D01*
X0254846Y0071508D01*
X0251378Y0074976D01*
X0243985Y0074976D01*
X0243172Y0074164D01*
X0236929Y0067920D01*
X0236929Y0067227D01*
X0231270Y0061568D01*
X0231198Y0061598D01*
X0230686Y0061598D01*
X0230686Y0073470D01*
X0229873Y0074283D01*
X0228390Y0075766D01*
X0376687Y0075766D01*
X0376687Y0072649D01*
X0377507Y0071829D01*
X0380608Y0071829D01*
X0380608Y0011700D01*
X0377428Y0011700D01*
X0376608Y0010880D01*
X0376608Y0007700D01*
X0188264Y0007700D01*
X0188945Y0008381D01*
X0349883Y0008381D01*
X0355661Y0014159D01*
X0355733Y0014129D01*
X0356758Y0014129D01*
X0357705Y0014521D01*
X0358430Y0015246D01*
X0358822Y0016193D01*
X0358822Y0017218D01*
X0358430Y0018165D01*
X0357726Y0018869D02*
X0369149Y0018869D01*
X0369149Y0019467D02*
X0350055Y0019467D01*
X0349535Y0019987D02*
X0346480Y0019987D01*
X0344320Y0017827D01*
X0344320Y0014773D01*
X0346480Y0012613D01*
X0349535Y0012613D01*
X0351695Y0014773D01*
X0351695Y0017827D01*
X0349535Y0019987D01*
X0345960Y0019467D02*
X0340055Y0019467D01*
X0339535Y0019987D02*
X0336480Y0019987D01*
X0334320Y0017827D01*
X0334320Y0014773D01*
X0336480Y0012613D01*
X0339535Y0012613D01*
X0341695Y0014773D01*
X0341695Y0017827D01*
X0339535Y0019987D01*
X0337392Y0021263D02*
X0380608Y0021263D01*
X0380608Y0021861D02*
X0345327Y0021861D01*
X0345926Y0022460D02*
X0380608Y0022460D01*
X0380608Y0023058D02*
X0346524Y0023058D01*
X0347123Y0023657D02*
X0380608Y0023657D01*
X0380608Y0024255D02*
X0347721Y0024255D01*
X0348320Y0024854D02*
X0380608Y0024854D01*
X0380608Y0025452D02*
X0348918Y0025452D01*
X0349517Y0026051D02*
X0380608Y0026051D01*
X0380608Y0026649D02*
X0350115Y0026649D01*
X0350714Y0027248D02*
X0380608Y0027248D01*
X0380608Y0027846D02*
X0351312Y0027846D01*
X0351911Y0028445D02*
X0380608Y0028445D01*
X0380608Y0029043D02*
X0352509Y0029043D01*
X0353108Y0029642D02*
X0380608Y0029642D01*
X0380608Y0030240D02*
X0353471Y0030240D01*
X0353471Y0030839D02*
X0380608Y0030839D01*
X0380608Y0031437D02*
X0353471Y0031437D01*
X0353471Y0032036D02*
X0380608Y0032036D01*
X0380608Y0032634D02*
X0353471Y0032634D01*
X0353471Y0033233D02*
X0380608Y0033233D01*
X0380608Y0033832D02*
X0353471Y0033832D01*
X0353471Y0034430D02*
X0380608Y0034430D01*
X0380608Y0035029D02*
X0353471Y0035029D01*
X0353471Y0035627D02*
X0380608Y0035627D01*
X0380608Y0036226D02*
X0353471Y0036226D01*
X0353471Y0036824D02*
X0360121Y0036824D01*
X0359871Y0036928D02*
X0361561Y0036228D01*
X0363391Y0036228D01*
X0365082Y0036928D01*
X0366376Y0038222D01*
X0367076Y0039913D01*
X0367076Y0041743D01*
X0366376Y0043433D01*
X0365082Y0044727D01*
X0363391Y0045428D01*
X0361561Y0045428D01*
X0359871Y0044727D01*
X0358577Y0043433D01*
X0357876Y0041743D01*
X0357876Y0039913D01*
X0358577Y0038222D01*
X0359871Y0036928D01*
X0359376Y0037423D02*
X0353471Y0037423D01*
X0354846Y0038021D02*
X0358777Y0038021D01*
X0358412Y0038620D02*
X0355313Y0038620D01*
X0355313Y0039218D02*
X0358164Y0039218D01*
X0357916Y0039817D02*
X0355313Y0039817D01*
X0355313Y0040415D02*
X0357876Y0040415D01*
X0357876Y0041014D02*
X0355313Y0041014D01*
X0355313Y0041612D02*
X0357876Y0041612D01*
X0358070Y0042211D02*
X0355313Y0042211D01*
X0355313Y0042809D02*
X0358318Y0042809D01*
X0358566Y0043408D02*
X0355313Y0043408D01*
X0355313Y0044006D02*
X0359150Y0044006D01*
X0359748Y0044605D02*
X0354820Y0044605D01*
X0348118Y0044605D02*
X0337646Y0044605D01*
X0337523Y0044727D02*
X0335832Y0045428D01*
X0334002Y0045428D01*
X0332312Y0044727D01*
X0331018Y0043433D01*
X0330317Y0041743D01*
X0330317Y0039913D01*
X0331018Y0038222D01*
X0332312Y0036928D01*
X0334002Y0036228D01*
X0335832Y0036228D01*
X0337523Y0036928D01*
X0338817Y0038222D01*
X0339517Y0039913D01*
X0339517Y0041743D01*
X0338817Y0043433D01*
X0337523Y0044727D01*
X0338244Y0044006D02*
X0347626Y0044006D01*
X0347626Y0043408D02*
X0338828Y0043408D01*
X0339076Y0042809D02*
X0347626Y0042809D01*
X0347626Y0042211D02*
X0339323Y0042211D01*
X0339517Y0041612D02*
X0347626Y0041612D01*
X0347626Y0041014D02*
X0339517Y0041014D01*
X0339517Y0040415D02*
X0347626Y0040415D01*
X0347626Y0039817D02*
X0339478Y0039817D01*
X0339230Y0039218D02*
X0347626Y0039218D01*
X0347626Y0038620D02*
X0338982Y0038620D01*
X0338616Y0038021D02*
X0348092Y0038021D01*
X0350696Y0037423D02*
X0338018Y0037423D01*
X0337272Y0036824D02*
X0350696Y0036824D01*
X0350696Y0036226D02*
X0327588Y0036226D01*
X0326990Y0036824D02*
X0332562Y0036824D01*
X0331817Y0037423D02*
X0326391Y0037423D01*
X0325793Y0038021D02*
X0331218Y0038021D01*
X0330853Y0038620D02*
X0325194Y0038620D01*
X0324596Y0039218D02*
X0330605Y0039218D01*
X0330357Y0039817D02*
X0323997Y0039817D01*
X0323399Y0040415D02*
X0330317Y0040415D01*
X0330317Y0041014D02*
X0322800Y0041014D01*
X0322202Y0041612D02*
X0330317Y0041612D01*
X0330511Y0042211D02*
X0321603Y0042211D01*
X0321005Y0042809D02*
X0330759Y0042809D01*
X0331007Y0043408D02*
X0320406Y0043408D01*
X0319808Y0044006D02*
X0331591Y0044006D01*
X0332189Y0044605D02*
X0319209Y0044605D01*
X0318611Y0045203D02*
X0333461Y0045203D01*
X0336374Y0045203D02*
X0361020Y0045203D01*
X0363933Y0045203D02*
X0380608Y0045203D01*
X0380608Y0044605D02*
X0365205Y0044605D01*
X0365803Y0044006D02*
X0380608Y0044006D01*
X0380608Y0043408D02*
X0366387Y0043408D01*
X0366635Y0042809D02*
X0380608Y0042809D01*
X0380608Y0042211D02*
X0366882Y0042211D01*
X0367076Y0041612D02*
X0380608Y0041612D01*
X0380608Y0041014D02*
X0367076Y0041014D01*
X0367076Y0040415D02*
X0380608Y0040415D01*
X0380608Y0039817D02*
X0367037Y0039817D01*
X0366789Y0039218D02*
X0380608Y0039218D01*
X0380608Y0038620D02*
X0366541Y0038620D01*
X0366175Y0038021D02*
X0380608Y0038021D01*
X0380608Y0037423D02*
X0365577Y0037423D01*
X0364831Y0036824D02*
X0380608Y0036824D01*
X0383408Y0036824D02*
X0388008Y0036824D01*
X0388008Y0036226D02*
X0383408Y0036226D01*
X0383408Y0035627D02*
X0388008Y0035627D01*
X0388008Y0035029D02*
X0383408Y0035029D01*
X0383408Y0034430D02*
X0388008Y0034430D01*
X0388008Y0033832D02*
X0383408Y0033832D01*
X0383408Y0033233D02*
X0388008Y0033233D01*
X0388008Y0032634D02*
X0383408Y0032634D01*
X0383408Y0032036D02*
X0388008Y0032036D01*
X0388008Y0031437D02*
X0383408Y0031437D01*
X0383408Y0030839D02*
X0388008Y0030839D01*
X0388008Y0030240D02*
X0383408Y0030240D01*
X0383408Y0029642D02*
X0388008Y0029642D01*
X0388008Y0029043D02*
X0383408Y0029043D01*
X0383408Y0028445D02*
X0388008Y0028445D01*
X0388008Y0027846D02*
X0383408Y0027846D01*
X0383408Y0027248D02*
X0388008Y0027248D01*
X0388008Y0026649D02*
X0383408Y0026649D01*
X0383408Y0026051D02*
X0388008Y0026051D01*
X0388008Y0025452D02*
X0383408Y0025452D01*
X0383408Y0024854D02*
X0388008Y0024854D01*
X0388008Y0024255D02*
X0383408Y0024255D01*
X0383408Y0023657D02*
X0388008Y0023657D01*
X0388008Y0023058D02*
X0383408Y0023058D01*
X0383408Y0022460D02*
X0388008Y0022460D01*
X0388008Y0021861D02*
X0383408Y0021861D01*
X0383408Y0021263D02*
X0388008Y0021263D01*
X0388008Y0020664D02*
X0383408Y0020664D01*
X0383408Y0020066D02*
X0388008Y0020066D01*
X0388008Y0019467D02*
X0383408Y0019467D01*
X0383408Y0018869D02*
X0388008Y0018869D01*
X0388008Y0018270D02*
X0383408Y0018270D01*
X0383408Y0017672D02*
X0388008Y0017672D01*
X0388008Y0017073D02*
X0383408Y0017073D01*
X0383408Y0016475D02*
X0388008Y0016475D01*
X0388008Y0015876D02*
X0383408Y0015876D01*
X0383408Y0015278D02*
X0388008Y0015278D01*
X0388008Y0014679D02*
X0383408Y0014679D01*
X0383408Y0014081D02*
X0388008Y0014081D01*
X0388008Y0013482D02*
X0383408Y0013482D01*
X0383408Y0012884D02*
X0388008Y0012884D01*
X0388008Y0012285D02*
X0383408Y0012285D01*
X0383408Y0011687D02*
X0388008Y0011687D01*
X0388008Y0011088D02*
X0383408Y0011088D01*
X0383408Y0010490D02*
X0388008Y0010490D01*
X0388008Y0009891D02*
X0383408Y0009891D01*
X0382980Y0009293D02*
X0388008Y0009293D01*
X0388008Y0008694D02*
X0379408Y0008694D01*
X0379408Y0008096D02*
X0388008Y0008096D01*
X0388008Y0007497D02*
X0379408Y0007497D01*
X0379408Y0006899D02*
X0388008Y0006899D01*
X0388008Y0006300D02*
X0379408Y0006300D01*
X0379389Y0005701D02*
X0388008Y0005701D01*
X0388008Y0005103D02*
X0378791Y0005103D01*
X0376608Y0008096D02*
X0188659Y0008096D01*
X0186983Y0010462D02*
X0194613Y0018093D01*
X0268146Y0018093D01*
X0282020Y0031967D01*
X0288957Y0031967D01*
X0293813Y0027111D01*
X0293813Y0026417D01*
X0295200Y0025030D01*
X0297975Y0025030D01*
X0312543Y0039598D01*
X0314926Y0038620D02*
X0316414Y0038620D01*
X0315816Y0039218D02*
X0315119Y0039218D01*
X0315119Y0039085D02*
X0315119Y0039915D01*
X0325029Y0030005D01*
X0325029Y0025856D01*
X0324957Y0025827D01*
X0324232Y0025102D01*
X0323840Y0024155D01*
X0323840Y0023130D01*
X0324203Y0022255D01*
X0294387Y0022255D01*
X0289650Y0026992D01*
X0289367Y0027275D01*
X0289367Y0029522D01*
X0288730Y0030159D01*
X0282286Y0030159D01*
X0281649Y0029522D01*
X0281649Y0023078D01*
X0282286Y0022441D01*
X0288730Y0022441D01*
X0289367Y0023078D01*
X0289367Y0023351D01*
X0293238Y0019480D01*
X0326536Y0019480D01*
X0319599Y0012543D01*
X0288832Y0012543D01*
X0289367Y0013078D01*
X0289367Y0019522D01*
X0288730Y0020159D01*
X0282286Y0020159D01*
X0281649Y0019522D01*
X0281649Y0016012D01*
X0250242Y0016012D01*
X0250212Y0016084D01*
X0249591Y0016706D01*
X0268720Y0016706D01*
X0282594Y0030580D01*
X0288382Y0030580D01*
X0292425Y0026536D01*
X0292425Y0025843D01*
X0293813Y0024455D01*
X0294625Y0023643D01*
X0298549Y0023643D01*
X0311958Y0037051D01*
X0312030Y0037021D01*
X0313055Y0037021D01*
X0314002Y0037413D01*
X0314727Y0038138D01*
X0315119Y0039085D01*
X0315119Y0039817D02*
X0315217Y0039817D01*
X0317944Y0041014D02*
X0318876Y0041014D01*
X0318543Y0040415D02*
X0319475Y0040415D01*
X0319141Y0039817D02*
X0320073Y0039817D01*
X0319740Y0039218D02*
X0320672Y0039218D01*
X0320339Y0038620D02*
X0321270Y0038620D01*
X0320937Y0038021D02*
X0321869Y0038021D01*
X0321536Y0037423D02*
X0322467Y0037423D01*
X0322134Y0036824D02*
X0323066Y0036824D01*
X0322733Y0036226D02*
X0323664Y0036226D01*
X0323331Y0035627D02*
X0324263Y0035627D01*
X0323930Y0035029D02*
X0324861Y0035029D01*
X0324528Y0034430D02*
X0325460Y0034430D01*
X0325127Y0033832D02*
X0326058Y0033832D01*
X0325725Y0033233D02*
X0326657Y0033233D01*
X0326324Y0032634D02*
X0327255Y0032634D01*
X0326922Y0032036D02*
X0327854Y0032036D01*
X0327521Y0031437D02*
X0328452Y0031437D01*
X0329051Y0030839D02*
X0327804Y0030839D01*
X0327804Y0030240D02*
X0330303Y0030240D01*
X0330303Y0029642D02*
X0327804Y0029642D01*
X0327804Y0029043D02*
X0330303Y0029043D01*
X0330503Y0028445D02*
X0327804Y0028445D01*
X0327804Y0027846D02*
X0339936Y0027846D01*
X0339936Y0027343D02*
X0340373Y0026288D01*
X0341181Y0025480D01*
X0342237Y0025043D01*
X0343379Y0025043D01*
X0344435Y0025480D01*
X0345242Y0026288D01*
X0345680Y0027343D01*
X0345680Y0028485D01*
X0345242Y0029541D01*
X0344435Y0030349D01*
X0343379Y0030786D01*
X0342237Y0030786D01*
X0341181Y0030349D01*
X0340373Y0029541D01*
X0339936Y0028485D01*
X0339936Y0027343D01*
X0339976Y0027248D02*
X0327804Y0027248D01*
X0327804Y0026649D02*
X0331624Y0026649D01*
X0331025Y0026051D02*
X0327804Y0026051D01*
X0328250Y0025452D02*
X0330427Y0025452D01*
X0329828Y0024854D02*
X0328703Y0024854D01*
X0328951Y0024255D02*
X0329229Y0024255D01*
X0326417Y0023643D02*
X0326417Y0030580D01*
X0288263Y0068733D01*
X0286182Y0068733D01*
X0285508Y0068800D01*
X0285488Y0069427D01*
X0284794Y0070120D01*
X0260515Y0070120D01*
X0262162Y0068124D02*
X0262699Y0068661D01*
X0262729Y0068733D01*
X0281649Y0068733D01*
X0281649Y0065578D01*
X0282286Y0064941D01*
X0288730Y0064941D01*
X0289367Y0065578D01*
X0289367Y0065667D01*
X0297599Y0057435D01*
X0297462Y0057435D01*
X0296515Y0057043D01*
X0295791Y0056318D01*
X0295398Y0055372D01*
X0295398Y0054347D01*
X0295791Y0053400D01*
X0296515Y0052675D01*
X0297462Y0052283D01*
X0298487Y0052283D01*
X0298559Y0052312D01*
X0304536Y0046336D01*
X0304399Y0046336D01*
X0303452Y0045944D01*
X0302728Y0045219D01*
X0302698Y0045147D01*
X0270920Y0045147D01*
X0270920Y0049177D01*
X0270992Y0049206D01*
X0271717Y0049931D01*
X0272109Y0050878D01*
X0272109Y0051903D01*
X0271717Y0052850D01*
X0270992Y0053575D01*
X0270046Y0053967D01*
X0269909Y0053967D01*
X0273576Y0057634D01*
X0281649Y0057634D01*
X0281649Y0055578D01*
X0282286Y0054941D01*
X0288730Y0054941D01*
X0289367Y0055578D01*
X0289367Y0062022D01*
X0288730Y0062659D01*
X0282286Y0062659D01*
X0281649Y0062022D01*
X0281649Y0060409D01*
X0272427Y0060409D01*
X0264102Y0052084D01*
X0254153Y0052084D01*
X0252442Y0053795D01*
X0252795Y0054648D01*
X0252795Y0056552D01*
X0252066Y0058312D01*
X0250720Y0059659D01*
X0248960Y0060387D01*
X0247056Y0060387D01*
X0246443Y0060133D01*
X0246443Y0060921D01*
X0246050Y0061868D01*
X0245326Y0062593D01*
X0244379Y0062985D01*
X0243354Y0062985D01*
X0242479Y0062623D01*
X0242479Y0063744D01*
X0242551Y0063774D01*
X0243275Y0064499D01*
X0243569Y0065207D01*
X0243949Y0064288D01*
X0245296Y0062941D01*
X0247056Y0062213D01*
X0248960Y0062213D01*
X0249562Y0062462D01*
X0252310Y0059715D01*
X0256234Y0059715D01*
X0257046Y0060528D01*
X0258434Y0061915D01*
X0258434Y0068558D01*
X0259056Y0067936D01*
X0260002Y0067544D01*
X0260334Y0067544D01*
X0260306Y0067533D01*
X0259212Y0066439D01*
X0258620Y0065010D01*
X0258620Y0063464D01*
X0259212Y0062035D01*
X0260306Y0060941D01*
X0261735Y0060350D01*
X0263281Y0060350D01*
X0264710Y0060941D01*
X0265803Y0062035D01*
X0266395Y0063464D01*
X0266395Y0065010D01*
X0265803Y0066439D01*
X0264710Y0067533D01*
X0263281Y0068124D01*
X0262162Y0068124D01*
X0262583Y0068545D02*
X0281649Y0068545D01*
X0281649Y0067947D02*
X0263710Y0067947D01*
X0264894Y0067348D02*
X0281649Y0067348D01*
X0281649Y0066750D02*
X0265493Y0066750D01*
X0265923Y0066151D02*
X0281649Y0066151D01*
X0281674Y0065553D02*
X0266171Y0065553D01*
X0266395Y0064954D02*
X0282273Y0064954D01*
X0288743Y0064954D02*
X0290080Y0064954D01*
X0290678Y0064356D02*
X0266395Y0064356D01*
X0266395Y0063757D02*
X0291277Y0063757D01*
X0291875Y0063159D02*
X0266269Y0063159D01*
X0266021Y0062560D02*
X0282187Y0062560D01*
X0281649Y0061962D02*
X0265730Y0061962D01*
X0265132Y0061363D02*
X0281649Y0061363D01*
X0281649Y0060765D02*
X0264283Y0060765D01*
X0263485Y0060166D02*
X0272184Y0060166D01*
X0271586Y0059568D02*
X0264801Y0059568D01*
X0264710Y0059659D02*
X0263281Y0060250D01*
X0261735Y0060250D01*
X0260306Y0059659D01*
X0259212Y0058565D01*
X0258620Y0057136D01*
X0258620Y0055590D01*
X0259212Y0054161D01*
X0260306Y0053067D01*
X0261735Y0052476D01*
X0263281Y0052476D01*
X0264710Y0053067D01*
X0265803Y0054161D01*
X0266395Y0055590D01*
X0266395Y0057136D01*
X0265803Y0058565D01*
X0264710Y0059659D01*
X0265399Y0058969D02*
X0270987Y0058969D01*
X0270389Y0058370D02*
X0265884Y0058370D01*
X0266132Y0057772D02*
X0269790Y0057772D01*
X0269192Y0057173D02*
X0266380Y0057173D01*
X0266395Y0056575D02*
X0268593Y0056575D01*
X0267995Y0055976D02*
X0266395Y0055976D01*
X0266308Y0055378D02*
X0267396Y0055378D01*
X0266798Y0054779D02*
X0266060Y0054779D01*
X0266199Y0054181D02*
X0265812Y0054181D01*
X0265601Y0053582D02*
X0265225Y0053582D01*
X0265002Y0052984D02*
X0264508Y0052984D01*
X0264404Y0052385D02*
X0253852Y0052385D01*
X0253253Y0052984D02*
X0260507Y0052984D01*
X0259791Y0053582D02*
X0252654Y0053582D01*
X0252602Y0054181D02*
X0259204Y0054181D01*
X0258956Y0054779D02*
X0252795Y0054779D01*
X0252795Y0055378D02*
X0258708Y0055378D01*
X0258620Y0055976D02*
X0252795Y0055976D01*
X0252786Y0056575D02*
X0258620Y0056575D01*
X0258636Y0057173D02*
X0252538Y0057173D01*
X0252290Y0057772D02*
X0258884Y0057772D01*
X0259132Y0058370D02*
X0252008Y0058370D01*
X0251409Y0058969D02*
X0259616Y0058969D01*
X0260215Y0059568D02*
X0250811Y0059568D01*
X0251859Y0060166D02*
X0249495Y0060166D01*
X0251260Y0060765D02*
X0246443Y0060765D01*
X0246443Y0060166D02*
X0246521Y0060166D01*
X0243866Y0060409D02*
X0242479Y0059021D01*
X0242479Y0052084D01*
X0248028Y0046535D01*
X0255659Y0046535D01*
X0258008Y0047597D02*
X0268146Y0047597D01*
X0268146Y0046999D02*
X0258235Y0046999D01*
X0258235Y0047047D02*
X0257843Y0047994D01*
X0257118Y0048719D01*
X0256172Y0049111D01*
X0255147Y0049111D01*
X0254200Y0048719D01*
X0253475Y0047994D01*
X0253445Y0047922D01*
X0248603Y0047922D01*
X0243866Y0052659D01*
X0243866Y0053089D01*
X0243949Y0052888D01*
X0245296Y0051541D01*
X0247056Y0050813D01*
X0248960Y0050813D01*
X0250720Y0051541D01*
X0250745Y0051567D01*
X0253003Y0049309D01*
X0254153Y0049309D01*
X0265252Y0049309D01*
X0266065Y0050122D01*
X0266957Y0051014D01*
X0266957Y0050878D01*
X0267349Y0049931D01*
X0268074Y0049206D01*
X0268146Y0049177D01*
X0268146Y0045147D01*
X0257873Y0045147D01*
X0258235Y0046022D01*
X0258235Y0047047D01*
X0258235Y0046400D02*
X0268146Y0046400D01*
X0268146Y0045802D02*
X0258144Y0045802D01*
X0257896Y0045203D02*
X0268146Y0045203D01*
X0270920Y0045203D02*
X0302721Y0045203D01*
X0303310Y0045802D02*
X0270920Y0045802D01*
X0270920Y0046400D02*
X0304472Y0046400D01*
X0303873Y0046999D02*
X0270920Y0046999D01*
X0270920Y0047597D02*
X0303274Y0047597D01*
X0302676Y0048196D02*
X0270920Y0048196D01*
X0270920Y0048794D02*
X0302077Y0048794D01*
X0301479Y0049393D02*
X0271179Y0049393D01*
X0271742Y0049991D02*
X0300880Y0049991D01*
X0300282Y0050590D02*
X0271990Y0050590D01*
X0272109Y0051188D02*
X0299683Y0051188D01*
X0299085Y0051787D02*
X0272109Y0051787D01*
X0271910Y0052385D02*
X0297214Y0052385D01*
X0296206Y0052984D02*
X0271583Y0052984D01*
X0270974Y0053582D02*
X0295715Y0053582D01*
X0295467Y0054181D02*
X0270123Y0054181D01*
X0270722Y0054779D02*
X0295398Y0054779D01*
X0295401Y0055378D02*
X0289167Y0055378D01*
X0289367Y0055976D02*
X0295649Y0055976D01*
X0296047Y0056575D02*
X0289367Y0056575D01*
X0289367Y0057173D02*
X0296830Y0057173D01*
X0297262Y0057772D02*
X0289367Y0057772D01*
X0289367Y0058370D02*
X0296663Y0058370D01*
X0296065Y0058969D02*
X0289367Y0058969D01*
X0289367Y0059568D02*
X0295466Y0059568D01*
X0294868Y0060166D02*
X0289367Y0060166D01*
X0289367Y0060765D02*
X0294269Y0060765D01*
X0293671Y0061363D02*
X0289367Y0061363D01*
X0289367Y0061962D02*
X0293072Y0061962D01*
X0292474Y0062560D02*
X0288829Y0062560D01*
X0295800Y0063159D02*
X0296731Y0063159D01*
X0296398Y0062560D02*
X0297330Y0062560D01*
X0296997Y0061962D02*
X0297928Y0061962D01*
X0297595Y0061363D02*
X0298527Y0061363D01*
X0298194Y0060765D02*
X0299125Y0060765D01*
X0298792Y0060166D02*
X0299724Y0060166D01*
X0299391Y0059568D02*
X0300322Y0059568D01*
X0299989Y0058969D02*
X0300921Y0058969D01*
X0300588Y0058370D02*
X0301519Y0058370D01*
X0301186Y0057772D02*
X0302118Y0057772D01*
X0301785Y0057173D02*
X0302716Y0057173D01*
X0302383Y0056575D02*
X0303315Y0056575D01*
X0302982Y0055976D02*
X0303913Y0055976D01*
X0303580Y0055378D02*
X0304512Y0055378D01*
X0304179Y0054779D02*
X0305110Y0054779D01*
X0304777Y0054181D02*
X0305709Y0054181D01*
X0305376Y0053582D02*
X0306307Y0053582D01*
X0305974Y0052984D02*
X0306906Y0052984D01*
X0306573Y0052385D02*
X0307505Y0052385D01*
X0307171Y0051787D02*
X0308103Y0051787D01*
X0307770Y0051188D02*
X0308702Y0051188D01*
X0308368Y0050590D02*
X0309300Y0050590D01*
X0308967Y0049991D02*
X0309899Y0049991D01*
X0309565Y0049393D02*
X0310497Y0049393D01*
X0310164Y0048794D02*
X0311096Y0048794D01*
X0310762Y0048196D02*
X0311694Y0048196D01*
X0311361Y0047597D02*
X0312293Y0047597D01*
X0311959Y0046999D02*
X0312891Y0046999D01*
X0312558Y0046400D02*
X0313490Y0046400D01*
X0313156Y0045802D02*
X0314088Y0045802D01*
X0313755Y0045203D02*
X0314687Y0045203D01*
X0314353Y0044605D02*
X0315285Y0044605D01*
X0314952Y0044006D02*
X0315884Y0044006D01*
X0315550Y0043408D02*
X0316482Y0043408D01*
X0316149Y0042809D02*
X0317081Y0042809D01*
X0316747Y0042211D02*
X0317679Y0042211D01*
X0317346Y0041612D02*
X0318278Y0041612D01*
X0312860Y0042174D02*
X0312030Y0042174D01*
X0311083Y0041782D01*
X0310358Y0041057D01*
X0309966Y0040110D01*
X0309966Y0039085D01*
X0309996Y0039013D01*
X0299164Y0028181D01*
X0299164Y0028317D01*
X0298772Y0029264D01*
X0298047Y0029989D01*
X0297100Y0030381D01*
X0296075Y0030381D01*
X0296003Y0030351D01*
X0288838Y0037517D01*
X0273828Y0037517D01*
X0292544Y0037517D01*
X0293238Y0036823D01*
X0304099Y0036823D01*
X0308261Y0040985D01*
X0309074Y0041798D01*
X0309074Y0045722D01*
X0300521Y0054275D01*
X0300551Y0054347D01*
X0300551Y0054483D01*
X0312860Y0042174D01*
X0312823Y0042211D02*
X0309074Y0042211D01*
X0309074Y0042809D02*
X0312225Y0042809D01*
X0311626Y0043408D02*
X0309074Y0043408D01*
X0309074Y0044006D02*
X0311028Y0044006D01*
X0310429Y0044605D02*
X0309074Y0044605D01*
X0309074Y0045203D02*
X0309831Y0045203D01*
X0309232Y0045802D02*
X0308994Y0045802D01*
X0308634Y0046400D02*
X0308396Y0046400D01*
X0308035Y0046999D02*
X0307797Y0046999D01*
X0307437Y0047597D02*
X0307199Y0047597D01*
X0306838Y0048196D02*
X0306600Y0048196D01*
X0306240Y0048794D02*
X0306002Y0048794D01*
X0305641Y0049393D02*
X0305403Y0049393D01*
X0305043Y0049991D02*
X0304805Y0049991D01*
X0304444Y0050590D02*
X0304206Y0050590D01*
X0303846Y0051188D02*
X0303608Y0051188D01*
X0303247Y0051787D02*
X0303009Y0051787D01*
X0302649Y0052385D02*
X0302411Y0052385D01*
X0302050Y0052984D02*
X0301812Y0052984D01*
X0301452Y0053582D02*
X0301214Y0053582D01*
X0300853Y0054181D02*
X0300615Y0054181D01*
X0297975Y0054859D02*
X0307687Y0045147D01*
X0307687Y0042372D01*
X0303524Y0038210D01*
X0293813Y0038210D01*
X0293119Y0038904D01*
X0270227Y0038904D01*
X0268839Y0037517D01*
X0268839Y0034048D01*
X0254272Y0019480D01*
X0193920Y0019480D01*
X0186289Y0011850D01*
X0107901Y0011850D01*
X0091252Y0028498D01*
X0091252Y0043066D01*
X0087783Y0046535D01*
X0079459Y0046535D01*
X0078072Y0045147D01*
X0078072Y0043760D01*
X0070441Y0036129D01*
X0064198Y0036129D01*
X0060035Y0031967D01*
X0056567Y0031967D01*
X0056039Y0031457D01*
X0052196Y0031437D02*
X0040612Y0031437D01*
X0040612Y0030839D02*
X0052196Y0030839D01*
X0052196Y0030240D02*
X0049113Y0030240D01*
X0049005Y0030349D02*
X0047949Y0030786D01*
X0046807Y0030786D01*
X0045751Y0030349D01*
X0044943Y0029541D01*
X0044506Y0028485D01*
X0044506Y0027343D01*
X0044943Y0026288D01*
X0045751Y0025480D01*
X0046807Y0025043D01*
X0047949Y0025043D01*
X0049005Y0025480D01*
X0049812Y0026288D01*
X0050250Y0027343D01*
X0050250Y0028485D01*
X0049812Y0029541D01*
X0049005Y0030349D01*
X0049711Y0029642D02*
X0052196Y0029642D01*
X0052196Y0029043D02*
X0050018Y0029043D01*
X0050250Y0028445D02*
X0052396Y0028445D01*
X0050250Y0027846D02*
X0065585Y0027846D01*
X0065585Y0027248D02*
X0050210Y0027248D01*
X0049962Y0026649D02*
X0065585Y0026649D01*
X0066070Y0026051D02*
X0049576Y0026051D01*
X0048939Y0025452D02*
X0066669Y0025452D01*
X0067268Y0024854D02*
X0046218Y0024854D01*
X0045817Y0025452D02*
X0045620Y0025452D01*
X0045180Y0026051D02*
X0045021Y0026051D01*
X0044794Y0026649D02*
X0044423Y0026649D01*
X0044546Y0027248D02*
X0043824Y0027248D01*
X0043226Y0027846D02*
X0044506Y0027846D01*
X0044506Y0028445D02*
X0042627Y0028445D01*
X0042029Y0029043D02*
X0044737Y0029043D01*
X0045045Y0029642D02*
X0041430Y0029642D01*
X0040832Y0030240D02*
X0045643Y0030240D01*
X0039224Y0029886D02*
X0056567Y0012543D01*
X0098883Y0012543D01*
X0101316Y0011687D02*
X0101939Y0011687D01*
X0101459Y0012031D02*
X0101459Y0012167D01*
X0105126Y0008500D01*
X0105926Y0007700D01*
X0094214Y0007700D01*
X0094824Y0008309D01*
X0095216Y0009256D01*
X0095216Y0010281D01*
X0094853Y0011156D01*
X0096669Y0011156D01*
X0096699Y0011084D01*
X0097423Y0010359D01*
X0098370Y0009967D01*
X0099395Y0009967D01*
X0100342Y0010359D01*
X0101067Y0011084D01*
X0101459Y0012031D01*
X0101069Y0011088D02*
X0102538Y0011088D01*
X0103137Y0010490D02*
X0100473Y0010490D01*
X0097293Y0010490D02*
X0095129Y0010490D01*
X0095216Y0009891D02*
X0103735Y0009891D01*
X0104334Y0009293D02*
X0095216Y0009293D01*
X0094983Y0008694D02*
X0104932Y0008694D01*
X0105531Y0008096D02*
X0094610Y0008096D01*
X0090669Y0008096D02*
X0013408Y0008096D01*
X0006972Y0009293D02*
X0003008Y0009293D01*
X0003008Y0009891D02*
X0006608Y0009891D01*
X0006608Y0010490D02*
X0003008Y0010490D01*
X0003008Y0011088D02*
X0006608Y0011088D01*
X0006608Y0011687D02*
X0003008Y0011687D01*
X0003008Y0012285D02*
X0006608Y0012285D01*
X0006608Y0012884D02*
X0003008Y0012884D01*
X0003008Y0013482D02*
X0006608Y0013482D01*
X0006608Y0014081D02*
X0003008Y0014081D01*
X0003008Y0014679D02*
X0006608Y0014679D01*
X0006608Y0015278D02*
X0003008Y0015278D01*
X0003008Y0015876D02*
X0006608Y0015876D01*
X0006608Y0016475D02*
X0003008Y0016475D01*
X0003008Y0017073D02*
X0006608Y0017073D01*
X0006608Y0017672D02*
X0003008Y0017672D01*
X0003008Y0018270D02*
X0006608Y0018270D01*
X0006608Y0018869D02*
X0003008Y0018869D01*
X0003008Y0019467D02*
X0006608Y0019467D01*
X0006608Y0020066D02*
X0003008Y0020066D01*
X0003008Y0020664D02*
X0006608Y0020664D01*
X0006608Y0021263D02*
X0003008Y0021263D01*
X0003008Y0021861D02*
X0006608Y0021861D01*
X0006608Y0022460D02*
X0003008Y0022460D01*
X0003008Y0023058D02*
X0006608Y0023058D01*
X0006608Y0023657D02*
X0003008Y0023657D01*
X0003008Y0024255D02*
X0006608Y0024255D01*
X0006608Y0024854D02*
X0003008Y0024854D01*
X0003008Y0025452D02*
X0006608Y0025452D01*
X0006608Y0026051D02*
X0003008Y0026051D01*
X0003008Y0026649D02*
X0006608Y0026649D01*
X0006608Y0027248D02*
X0003008Y0027248D01*
X0003008Y0027846D02*
X0006608Y0027846D01*
X0006608Y0028445D02*
X0003008Y0028445D01*
X0003008Y0029043D02*
X0006608Y0029043D01*
X0006608Y0029642D02*
X0003008Y0029642D01*
X0003008Y0030240D02*
X0006608Y0030240D01*
X0006608Y0030839D02*
X0003008Y0030839D01*
X0003008Y0031437D02*
X0006608Y0031437D01*
X0006608Y0032036D02*
X0003008Y0032036D01*
X0003008Y0032634D02*
X0006608Y0032634D01*
X0006608Y0033233D02*
X0003008Y0033233D01*
X0003008Y0033832D02*
X0006608Y0033832D01*
X0006608Y0034430D02*
X0003008Y0034430D01*
X0003008Y0035029D02*
X0006608Y0035029D01*
X0006608Y0035627D02*
X0003008Y0035627D01*
X0003008Y0036226D02*
X0006608Y0036226D01*
X0006608Y0036824D02*
X0003008Y0036824D01*
X0003008Y0037423D02*
X0006608Y0037423D01*
X0006608Y0038021D02*
X0003008Y0038021D01*
X0003008Y0038620D02*
X0006608Y0038620D01*
X0006608Y0039218D02*
X0003008Y0039218D01*
X0003008Y0039817D02*
X0006608Y0039817D01*
X0006608Y0040415D02*
X0003008Y0040415D01*
X0003008Y0041014D02*
X0006608Y0041014D01*
X0006608Y0041612D02*
X0003008Y0041612D01*
X0003008Y0042211D02*
X0006608Y0042211D01*
X0006608Y0042809D02*
X0003008Y0042809D01*
X0003008Y0043408D02*
X0006608Y0043408D01*
X0006608Y0044006D02*
X0003008Y0044006D01*
X0003008Y0044605D02*
X0006608Y0044605D01*
X0006608Y0045203D02*
X0003008Y0045203D01*
X0003008Y0045802D02*
X0006608Y0045802D01*
X0006608Y0046400D02*
X0003008Y0046400D01*
X0003008Y0046999D02*
X0006608Y0046999D01*
X0006608Y0047597D02*
X0003008Y0047597D01*
X0003008Y0048196D02*
X0006608Y0048196D01*
X0006608Y0048794D02*
X0003008Y0048794D01*
X0003008Y0049393D02*
X0006608Y0049393D01*
X0006608Y0049991D02*
X0003008Y0049991D01*
X0003008Y0050590D02*
X0006608Y0050590D01*
X0006608Y0051188D02*
X0003008Y0051188D01*
X0003008Y0051787D02*
X0006608Y0051787D01*
X0006608Y0052385D02*
X0003008Y0052385D01*
X0003008Y0052984D02*
X0006608Y0052984D01*
X0006608Y0053582D02*
X0003008Y0053582D01*
X0003008Y0054181D02*
X0006608Y0054181D01*
X0006608Y0054779D02*
X0003008Y0054779D01*
X0003008Y0055378D02*
X0006608Y0055378D01*
X0006608Y0055976D02*
X0003008Y0055976D01*
X0003008Y0056575D02*
X0006608Y0056575D01*
X0006608Y0057173D02*
X0003008Y0057173D01*
X0003008Y0057772D02*
X0006608Y0057772D01*
X0006608Y0058370D02*
X0003008Y0058370D01*
X0003008Y0058969D02*
X0006608Y0058969D01*
X0006608Y0059568D02*
X0003008Y0059568D01*
X0003008Y0060166D02*
X0006608Y0060166D01*
X0006608Y0060765D02*
X0003008Y0060765D01*
X0003008Y0061363D02*
X0006608Y0061363D01*
X0006608Y0061962D02*
X0003008Y0061962D01*
X0003008Y0062560D02*
X0006608Y0062560D01*
X0006608Y0063159D02*
X0003008Y0063159D01*
X0003008Y0063757D02*
X0006608Y0063757D01*
X0006608Y0064356D02*
X0003008Y0064356D01*
X0003008Y0064954D02*
X0006608Y0064954D01*
X0006608Y0065553D02*
X0003008Y0065553D01*
X0003008Y0066151D02*
X0006608Y0066151D01*
X0006608Y0066750D02*
X0003008Y0066750D01*
X0003008Y0067348D02*
X0006608Y0067348D01*
X0006608Y0067947D02*
X0003008Y0067947D01*
X0003008Y0068545D02*
X0006608Y0068545D01*
X0006608Y0069144D02*
X0003008Y0069144D01*
X0003008Y0069742D02*
X0006608Y0069742D01*
X0006608Y0070341D02*
X0003008Y0070341D01*
X0003008Y0070939D02*
X0006608Y0070939D01*
X0006608Y0071538D02*
X0003008Y0071538D01*
X0003008Y0072136D02*
X0006608Y0072136D01*
X0006608Y0072735D02*
X0003008Y0072735D01*
X0003008Y0073333D02*
X0006608Y0073333D01*
X0006731Y0073932D02*
X0003008Y0073932D01*
X0003008Y0074530D02*
X0007329Y0074530D01*
X0010545Y0075129D02*
X0003008Y0075129D01*
X0003008Y0075727D02*
X0010545Y0075727D01*
X0010545Y0076326D02*
X0003008Y0076326D01*
X0003008Y0076924D02*
X0010545Y0076924D01*
X0010545Y0077523D02*
X0003008Y0077523D01*
X0003008Y0078121D02*
X0010920Y0078121D01*
X0003008Y0078720D02*
X0388008Y0078720D01*
X0388008Y0079318D02*
X0003008Y0079318D01*
X0003008Y0079917D02*
X0388008Y0079917D01*
X0388008Y0080515D02*
X0003008Y0080515D01*
X0003008Y0081114D02*
X0388008Y0081114D01*
X0388008Y0078121D02*
X0379111Y0078121D01*
X0379487Y0077523D02*
X0388008Y0077523D01*
X0388008Y0076924D02*
X0379487Y0076924D01*
X0379487Y0076326D02*
X0388008Y0076326D01*
X0388008Y0075727D02*
X0379487Y0075727D01*
X0379487Y0075129D02*
X0388008Y0075129D01*
X0388008Y0074530D02*
X0382687Y0074530D01*
X0383285Y0073932D02*
X0388008Y0073932D01*
X0388008Y0073333D02*
X0383408Y0073333D01*
X0383408Y0072735D02*
X0388008Y0072735D01*
X0388008Y0072136D02*
X0383408Y0072136D01*
X0383408Y0071538D02*
X0388008Y0071538D01*
X0388008Y0070939D02*
X0383408Y0070939D01*
X0383408Y0070341D02*
X0388008Y0070341D01*
X0388008Y0069742D02*
X0383408Y0069742D01*
X0383408Y0069144D02*
X0388008Y0069144D01*
X0388008Y0068545D02*
X0383408Y0068545D01*
X0383408Y0067947D02*
X0388008Y0067947D01*
X0388008Y0067348D02*
X0383408Y0067348D01*
X0383408Y0066750D02*
X0388008Y0066750D01*
X0388008Y0066151D02*
X0383408Y0066151D01*
X0383408Y0065553D02*
X0388008Y0065553D01*
X0388008Y0064954D02*
X0383408Y0064954D01*
X0383408Y0064356D02*
X0388008Y0064356D01*
X0388008Y0063757D02*
X0383408Y0063757D01*
X0383408Y0063159D02*
X0388008Y0063159D01*
X0388008Y0062560D02*
X0383408Y0062560D01*
X0383408Y0061962D02*
X0388008Y0061962D01*
X0388008Y0061363D02*
X0383408Y0061363D01*
X0383408Y0060765D02*
X0388008Y0060765D01*
X0388008Y0060166D02*
X0383408Y0060166D01*
X0383408Y0059568D02*
X0388008Y0059568D01*
X0388008Y0058969D02*
X0383408Y0058969D01*
X0383408Y0058370D02*
X0388008Y0058370D01*
X0388008Y0057772D02*
X0383408Y0057772D01*
X0383408Y0057173D02*
X0388008Y0057173D01*
X0388008Y0056575D02*
X0383408Y0056575D01*
X0383408Y0055976D02*
X0388008Y0055976D01*
X0388008Y0055378D02*
X0383408Y0055378D01*
X0383408Y0054779D02*
X0388008Y0054779D01*
X0388008Y0054181D02*
X0383408Y0054181D01*
X0383408Y0053582D02*
X0388008Y0053582D01*
X0388008Y0052984D02*
X0383408Y0052984D01*
X0383408Y0052385D02*
X0388008Y0052385D01*
X0388008Y0051787D02*
X0383408Y0051787D01*
X0383408Y0051188D02*
X0388008Y0051188D01*
X0388008Y0050590D02*
X0383408Y0050590D01*
X0383408Y0049991D02*
X0388008Y0049991D01*
X0388008Y0049393D02*
X0383408Y0049393D01*
X0383408Y0048794D02*
X0388008Y0048794D01*
X0388008Y0048196D02*
X0383408Y0048196D01*
X0383408Y0047597D02*
X0388008Y0047597D01*
X0388008Y0046999D02*
X0383408Y0046999D01*
X0383408Y0046400D02*
X0388008Y0046400D01*
X0388008Y0045802D02*
X0383408Y0045802D01*
X0383408Y0045203D02*
X0388008Y0045203D01*
X0388008Y0044605D02*
X0383408Y0044605D01*
X0383408Y0044006D02*
X0388008Y0044006D01*
X0388008Y0043408D02*
X0383408Y0043408D01*
X0383408Y0042809D02*
X0388008Y0042809D01*
X0388008Y0042211D02*
X0383408Y0042211D01*
X0383408Y0041612D02*
X0388008Y0041612D01*
X0388008Y0041014D02*
X0383408Y0041014D01*
X0383408Y0040415D02*
X0388008Y0040415D01*
X0388008Y0039817D02*
X0383408Y0039817D01*
X0383408Y0039218D02*
X0388008Y0039218D01*
X0388008Y0038620D02*
X0383408Y0038620D01*
X0383408Y0038021D02*
X0388008Y0038021D01*
X0388008Y0037423D02*
X0383408Y0037423D01*
X0352083Y0040985D02*
X0352083Y0030580D01*
X0344453Y0022949D01*
X0339597Y0022949D01*
X0336822Y0025724D01*
X0332660Y0025724D01*
X0327804Y0020868D01*
X0293813Y0020868D01*
X0288263Y0026417D01*
X0286182Y0026417D01*
X0285508Y0026300D01*
X0281649Y0026051D02*
X0278066Y0026051D01*
X0278664Y0026649D02*
X0281649Y0026649D01*
X0281649Y0027248D02*
X0279263Y0027248D01*
X0279861Y0027846D02*
X0281649Y0027846D01*
X0281649Y0028445D02*
X0280460Y0028445D01*
X0281058Y0029043D02*
X0281649Y0029043D01*
X0281657Y0029642D02*
X0281769Y0029642D01*
X0282255Y0030240D02*
X0288721Y0030240D01*
X0289247Y0029642D02*
X0289320Y0029642D01*
X0289367Y0029043D02*
X0289918Y0029043D01*
X0289367Y0028445D02*
X0290517Y0028445D01*
X0291115Y0027846D02*
X0289367Y0027846D01*
X0289394Y0027248D02*
X0291714Y0027248D01*
X0292312Y0026649D02*
X0289993Y0026649D01*
X0290592Y0026051D02*
X0292425Y0026051D01*
X0292815Y0025452D02*
X0291190Y0025452D01*
X0291789Y0024854D02*
X0293414Y0024854D01*
X0294012Y0024255D02*
X0292387Y0024255D01*
X0292986Y0023657D02*
X0294611Y0023657D01*
X0293584Y0023058D02*
X0323870Y0023058D01*
X0323840Y0023657D02*
X0298564Y0023657D01*
X0299162Y0024255D02*
X0323882Y0024255D01*
X0324130Y0024854D02*
X0299761Y0024854D01*
X0300359Y0025452D02*
X0324583Y0025452D01*
X0325029Y0026051D02*
X0300958Y0026051D01*
X0301556Y0026649D02*
X0325029Y0026649D01*
X0325029Y0027248D02*
X0302155Y0027248D01*
X0302753Y0027846D02*
X0325029Y0027846D01*
X0325029Y0028445D02*
X0303352Y0028445D01*
X0303950Y0029043D02*
X0325029Y0029043D01*
X0325029Y0029642D02*
X0304549Y0029642D01*
X0305147Y0030240D02*
X0324794Y0030240D01*
X0324195Y0030839D02*
X0305746Y0030839D01*
X0306344Y0031437D02*
X0323596Y0031437D01*
X0322998Y0032036D02*
X0306943Y0032036D01*
X0307541Y0032634D02*
X0322399Y0032634D01*
X0321801Y0033233D02*
X0308140Y0033233D01*
X0308738Y0033832D02*
X0321202Y0033832D01*
X0320604Y0034430D02*
X0309337Y0034430D01*
X0309936Y0035029D02*
X0320005Y0035029D01*
X0319407Y0035627D02*
X0310534Y0035627D01*
X0311133Y0036226D02*
X0318808Y0036226D01*
X0318210Y0036824D02*
X0311731Y0036824D01*
X0314011Y0037423D02*
X0317611Y0037423D01*
X0317013Y0038021D02*
X0314610Y0038021D01*
X0309966Y0039218D02*
X0306494Y0039218D01*
X0305896Y0038620D02*
X0309602Y0038620D01*
X0309004Y0038021D02*
X0305297Y0038021D01*
X0304699Y0037423D02*
X0308405Y0037423D01*
X0307807Y0036824D02*
X0304100Y0036824D01*
X0306610Y0035627D02*
X0290727Y0035627D01*
X0290129Y0036226D02*
X0307208Y0036226D01*
X0306011Y0035029D02*
X0291326Y0035029D01*
X0291924Y0034430D02*
X0305413Y0034430D01*
X0304814Y0033832D02*
X0292523Y0033832D01*
X0293121Y0033233D02*
X0304216Y0033233D01*
X0303617Y0032634D02*
X0293720Y0032634D01*
X0294318Y0032036D02*
X0303019Y0032036D01*
X0302420Y0031437D02*
X0294917Y0031437D01*
X0295515Y0030839D02*
X0301822Y0030839D01*
X0301223Y0030240D02*
X0297439Y0030240D01*
X0298394Y0029642D02*
X0300625Y0029642D01*
X0300026Y0029043D02*
X0298863Y0029043D01*
X0299111Y0028445D02*
X0299428Y0028445D01*
X0296587Y0027805D02*
X0288263Y0036129D01*
X0271614Y0036129D01*
X0273828Y0034742D02*
X0287688Y0034742D01*
X0289076Y0033354D01*
X0281445Y0033354D01*
X0280632Y0032542D01*
X0267571Y0019480D01*
X0256234Y0019480D01*
X0269414Y0032661D01*
X0270227Y0033473D01*
X0270227Y0033915D01*
X0271102Y0033553D01*
X0272127Y0033553D01*
X0273074Y0033945D01*
X0273798Y0034670D01*
X0273828Y0034742D01*
X0273559Y0034430D02*
X0288000Y0034430D01*
X0288599Y0033832D02*
X0272800Y0033832D01*
X0270429Y0033832D02*
X0270227Y0033832D01*
X0269986Y0033233D02*
X0281324Y0033233D01*
X0280725Y0032634D02*
X0269388Y0032634D01*
X0268789Y0032036D02*
X0280127Y0032036D01*
X0279528Y0031437D02*
X0268191Y0031437D01*
X0267592Y0030839D02*
X0278930Y0030839D01*
X0278331Y0030240D02*
X0266994Y0030240D01*
X0266395Y0029642D02*
X0277733Y0029642D01*
X0277134Y0029043D02*
X0265797Y0029043D01*
X0265198Y0028445D02*
X0276536Y0028445D01*
X0275937Y0027846D02*
X0264600Y0027846D01*
X0264001Y0027248D02*
X0275339Y0027248D01*
X0274740Y0026649D02*
X0263403Y0026649D01*
X0262804Y0026051D02*
X0274142Y0026051D01*
X0273543Y0025452D02*
X0262206Y0025452D01*
X0261607Y0024854D02*
X0272945Y0024854D01*
X0272346Y0024255D02*
X0261009Y0024255D01*
X0260410Y0023657D02*
X0271748Y0023657D01*
X0271149Y0023058D02*
X0259812Y0023058D01*
X0259213Y0022460D02*
X0270550Y0022460D01*
X0269952Y0021861D02*
X0258615Y0021861D01*
X0258016Y0021263D02*
X0269353Y0021263D01*
X0268755Y0020664D02*
X0257418Y0020664D01*
X0256819Y0020066D02*
X0268156Y0020066D01*
X0271482Y0019467D02*
X0281649Y0019467D01*
X0281649Y0018869D02*
X0270884Y0018869D01*
X0270285Y0018270D02*
X0281649Y0018270D01*
X0281649Y0017672D02*
X0269687Y0017672D01*
X0269088Y0017073D02*
X0281649Y0017073D01*
X0281649Y0016475D02*
X0249822Y0016475D01*
X0246466Y0016706D02*
X0214864Y0016706D01*
X0215226Y0015831D01*
X0215226Y0014806D01*
X0215196Y0014734D01*
X0217386Y0012543D01*
X0246466Y0012543D01*
X0245844Y0013165D01*
X0245452Y0014112D01*
X0245452Y0015137D01*
X0245844Y0016084D01*
X0246466Y0016706D01*
X0246235Y0016475D02*
X0214959Y0016475D01*
X0215207Y0015876D02*
X0245758Y0015876D01*
X0245510Y0015278D02*
X0215226Y0015278D01*
X0215251Y0014679D02*
X0245452Y0014679D01*
X0245465Y0014081D02*
X0215849Y0014081D01*
X0216448Y0013482D02*
X0245713Y0013482D01*
X0246126Y0012884D02*
X0217046Y0012884D01*
X0214850Y0011156D02*
X0213234Y0012772D01*
X0213162Y0012742D01*
X0212137Y0012742D01*
X0211190Y0013134D01*
X0210465Y0013859D01*
X0210073Y0014806D01*
X0210073Y0015831D01*
X0210436Y0016706D01*
X0195188Y0016706D01*
X0189638Y0011156D01*
X0214850Y0011156D01*
X0214319Y0011687D02*
X0190169Y0011687D01*
X0190768Y0012285D02*
X0213721Y0012285D01*
X0211795Y0012884D02*
X0191366Y0012884D01*
X0191965Y0013482D02*
X0210842Y0013482D01*
X0210374Y0014081D02*
X0192563Y0014081D01*
X0193162Y0014679D02*
X0210126Y0014679D01*
X0210073Y0015278D02*
X0193760Y0015278D01*
X0194359Y0015876D02*
X0210092Y0015876D01*
X0210340Y0016475D02*
X0194957Y0016475D01*
X0193226Y0020868D02*
X0186983Y0014624D01*
X0153685Y0014624D01*
X0151109Y0014679D02*
X0107033Y0014679D01*
X0106435Y0015278D02*
X0151167Y0015278D01*
X0151109Y0015137D02*
X0151109Y0014112D01*
X0151471Y0013237D01*
X0108475Y0013237D01*
X0092639Y0029073D01*
X0092639Y0043641D01*
X0091827Y0044454D01*
X0088358Y0047922D01*
X0087105Y0047922D01*
X0087513Y0048330D01*
X0087513Y0053955D01*
X0086876Y0054592D01*
X0085702Y0054592D01*
X0085702Y0061221D01*
X0088676Y0064195D01*
X0088676Y0064058D01*
X0089068Y0063111D01*
X0089793Y0062387D01*
X0090739Y0061994D01*
X0091764Y0061994D01*
X0092711Y0062387D01*
X0093333Y0063008D01*
X0093955Y0062387D01*
X0094902Y0061994D01*
X0095927Y0061994D01*
X0096874Y0062387D01*
X0097598Y0063111D01*
X0097628Y0063183D01*
X0102232Y0063183D01*
X0106394Y0067346D01*
X0112624Y0067346D01*
X0112261Y0066471D01*
X0112261Y0065446D01*
X0112654Y0064499D01*
X0113378Y0063774D01*
X0114325Y0063382D01*
X0115350Y0063382D01*
X0115422Y0063412D01*
X0125243Y0053591D01*
X0125243Y0033487D01*
X0124368Y0033850D01*
X0123343Y0033850D01*
X0122396Y0033457D01*
X0121672Y0032733D01*
X0121280Y0031786D01*
X0121280Y0030761D01*
X0121672Y0029814D01*
X0122396Y0029089D01*
X0123343Y0028697D01*
X0124368Y0028697D01*
X0124440Y0028727D01*
X0134955Y0018212D01*
X0135768Y0017399D01*
X0149390Y0017399D01*
X0149420Y0017327D01*
X0150145Y0016602D01*
X0151091Y0016210D01*
X0151627Y0016210D01*
X0151501Y0016084D01*
X0151109Y0015137D01*
X0151415Y0015876D02*
X0105836Y0015876D01*
X0105723Y0016098D02*
X0110293Y0016098D01*
X0113524Y0019330D01*
X0113524Y0023900D01*
X0111106Y0026318D01*
X0113903Y0027068D01*
X0117386Y0029078D01*
X0120229Y0031922D01*
X0122240Y0035405D01*
X0123281Y0039289D01*
X0123281Y0043311D01*
X0122240Y0047195D01*
X0120229Y0050678D01*
X0117386Y0053522D01*
X0113903Y0055532D01*
X0111106Y0056282D01*
X0113524Y0058700D01*
X0113524Y0063270D01*
X0110293Y0066502D01*
X0105723Y0066502D01*
X0102491Y0063270D01*
X0102491Y0058700D01*
X0104910Y0056282D01*
X0102113Y0055532D01*
X0098630Y0053522D01*
X0095786Y0050678D01*
X0093775Y0047195D01*
X0092735Y0043311D01*
X0092735Y0039289D01*
X0093775Y0035405D01*
X0095786Y0031922D01*
X0098630Y0029078D01*
X0102113Y0027068D01*
X0104910Y0026318D01*
X0102491Y0023900D01*
X0102491Y0019330D01*
X0105723Y0016098D01*
X0105347Y0016475D02*
X0105238Y0016475D01*
X0104748Y0017073D02*
X0104639Y0017073D01*
X0104150Y0017672D02*
X0104041Y0017672D01*
X0103551Y0018270D02*
X0103442Y0018270D01*
X0102953Y0018869D02*
X0102844Y0018869D01*
X0102491Y0019467D02*
X0102245Y0019467D01*
X0102491Y0020066D02*
X0101647Y0020066D01*
X0101048Y0020664D02*
X0102491Y0020664D01*
X0102491Y0021263D02*
X0100450Y0021263D01*
X0099851Y0021861D02*
X0102491Y0021861D01*
X0102491Y0022460D02*
X0099253Y0022460D01*
X0098654Y0023058D02*
X0102491Y0023058D01*
X0102491Y0023657D02*
X0098056Y0023657D01*
X0097457Y0024255D02*
X0102847Y0024255D01*
X0103445Y0024854D02*
X0096859Y0024854D01*
X0096260Y0025452D02*
X0104044Y0025452D01*
X0104642Y0026051D02*
X0095662Y0026051D01*
X0095063Y0026649D02*
X0103673Y0026649D01*
X0101800Y0027248D02*
X0094465Y0027248D01*
X0093866Y0027846D02*
X0100764Y0027846D01*
X0099727Y0028445D02*
X0093268Y0028445D01*
X0092669Y0029043D02*
X0098690Y0029043D01*
X0098066Y0029642D02*
X0092639Y0029642D01*
X0092639Y0030240D02*
X0097468Y0030240D01*
X0096869Y0030839D02*
X0092639Y0030839D01*
X0092639Y0031437D02*
X0096271Y0031437D01*
X0095720Y0032036D02*
X0092639Y0032036D01*
X0092639Y0032634D02*
X0095375Y0032634D01*
X0095029Y0033233D02*
X0092639Y0033233D01*
X0092639Y0033832D02*
X0094684Y0033832D01*
X0094338Y0034430D02*
X0092639Y0034430D01*
X0092639Y0035029D02*
X0093993Y0035029D01*
X0093716Y0035627D02*
X0092639Y0035627D01*
X0092639Y0036226D02*
X0093556Y0036226D01*
X0093395Y0036824D02*
X0092639Y0036824D01*
X0092639Y0037423D02*
X0093235Y0037423D01*
X0093074Y0038021D02*
X0092639Y0038021D01*
X0092639Y0038620D02*
X0092914Y0038620D01*
X0092754Y0039218D02*
X0092639Y0039218D01*
X0092639Y0039817D02*
X0092735Y0039817D01*
X0092735Y0040415D02*
X0092639Y0040415D01*
X0092639Y0041014D02*
X0092735Y0041014D01*
X0092735Y0041612D02*
X0092639Y0041612D01*
X0092639Y0042211D02*
X0092735Y0042211D01*
X0092735Y0042809D02*
X0092639Y0042809D01*
X0092639Y0043408D02*
X0092761Y0043408D01*
X0092921Y0044006D02*
X0092274Y0044006D01*
X0091675Y0044605D02*
X0093081Y0044605D01*
X0093242Y0045203D02*
X0091077Y0045203D01*
X0090478Y0045802D02*
X0093402Y0045802D01*
X0093562Y0046400D02*
X0089880Y0046400D01*
X0089281Y0046999D02*
X0093723Y0046999D01*
X0094008Y0047597D02*
X0088683Y0047597D01*
X0087378Y0048196D02*
X0094353Y0048196D01*
X0094699Y0048794D02*
X0087513Y0048794D01*
X0087513Y0049393D02*
X0095044Y0049393D01*
X0095390Y0049991D02*
X0087513Y0049991D01*
X0087513Y0050590D02*
X0095735Y0050590D01*
X0096297Y0051188D02*
X0087513Y0051188D01*
X0087513Y0051787D02*
X0096895Y0051787D01*
X0097494Y0052385D02*
X0087513Y0052385D01*
X0087513Y0052984D02*
X0098092Y0052984D01*
X0098735Y0053582D02*
X0087513Y0053582D01*
X0087287Y0054181D02*
X0099772Y0054181D01*
X0100808Y0054779D02*
X0085702Y0054779D01*
X0085702Y0055378D02*
X0101845Y0055378D01*
X0103770Y0055976D02*
X0085702Y0055976D01*
X0085702Y0056575D02*
X0104616Y0056575D01*
X0104018Y0057173D02*
X0085702Y0057173D01*
X0085702Y0057772D02*
X0103419Y0057772D01*
X0102821Y0058370D02*
X0085702Y0058370D01*
X0085702Y0058969D02*
X0102491Y0058969D01*
X0102491Y0059568D02*
X0085702Y0059568D01*
X0085702Y0060166D02*
X0102491Y0060166D01*
X0102491Y0060765D02*
X0085702Y0060765D01*
X0085844Y0061363D02*
X0102491Y0061363D01*
X0102491Y0061962D02*
X0086443Y0061962D01*
X0087041Y0062560D02*
X0089619Y0062560D01*
X0089048Y0063159D02*
X0087640Y0063159D01*
X0088238Y0063757D02*
X0088800Y0063757D01*
X0091252Y0064571D02*
X0097495Y0070814D01*
X0182127Y0070814D01*
X0195307Y0057634D01*
X0202938Y0057634D01*
X0212650Y0057634D01*
X0229992Y0040291D01*
X0227416Y0040415D02*
X0226974Y0040415D01*
X0227416Y0040804D02*
X0227416Y0039974D01*
X0213343Y0054046D01*
X0212531Y0054859D01*
X0195354Y0054859D01*
X0195354Y0055293D01*
X0194717Y0055930D01*
X0186417Y0055930D01*
X0185780Y0055293D01*
X0185780Y0054859D01*
X0183395Y0054859D01*
X0181116Y0057139D01*
X0181252Y0057139D01*
X0182199Y0057531D01*
X0182924Y0058256D01*
X0183316Y0059202D01*
X0183316Y0060227D01*
X0182924Y0061174D01*
X0182199Y0061899D01*
X0181252Y0062291D01*
X0180227Y0062291D01*
X0179280Y0061899D01*
X0178858Y0061477D01*
X0170909Y0069427D01*
X0181552Y0069427D01*
X0193920Y0057059D01*
X0194732Y0056246D01*
X0200724Y0056246D01*
X0200754Y0056174D01*
X0201478Y0055450D01*
X0202425Y0055057D01*
X0203450Y0055057D01*
X0204397Y0055450D01*
X0205122Y0056174D01*
X0205152Y0056246D01*
X0212075Y0056246D01*
X0227446Y0040876D01*
X0227416Y0040804D01*
X0227308Y0041014D02*
X0226376Y0041014D01*
X0226709Y0041612D02*
X0225777Y0041612D01*
X0226111Y0042211D02*
X0225179Y0042211D01*
X0225512Y0042809D02*
X0224580Y0042809D01*
X0224914Y0043408D02*
X0223982Y0043408D01*
X0224315Y0044006D02*
X0223383Y0044006D01*
X0223717Y0044605D02*
X0222785Y0044605D01*
X0223118Y0045203D02*
X0222186Y0045203D01*
X0222520Y0045802D02*
X0221588Y0045802D01*
X0221921Y0046400D02*
X0220989Y0046400D01*
X0221323Y0046999D02*
X0220391Y0046999D01*
X0220724Y0047597D02*
X0219792Y0047597D01*
X0220126Y0048196D02*
X0219194Y0048196D01*
X0219527Y0048794D02*
X0218595Y0048794D01*
X0218929Y0049393D02*
X0217997Y0049393D01*
X0218330Y0049991D02*
X0217398Y0049991D01*
X0217732Y0050590D02*
X0216800Y0050590D01*
X0217133Y0051188D02*
X0216201Y0051188D01*
X0216535Y0051787D02*
X0215603Y0051787D01*
X0215936Y0052385D02*
X0215004Y0052385D01*
X0215337Y0052984D02*
X0214406Y0052984D01*
X0214739Y0053582D02*
X0213807Y0053582D01*
X0214140Y0054181D02*
X0213209Y0054181D01*
X0213542Y0054779D02*
X0212610Y0054779D01*
X0212943Y0055378D02*
X0204224Y0055378D01*
X0204924Y0055976D02*
X0212345Y0055976D01*
X0215671Y0056575D02*
X0215909Y0056575D01*
X0216269Y0055976D02*
X0216507Y0055976D01*
X0216868Y0055378D02*
X0217106Y0055378D01*
X0217466Y0054779D02*
X0217704Y0054779D01*
X0218065Y0054181D02*
X0218303Y0054181D01*
X0218663Y0053582D02*
X0218901Y0053582D01*
X0219262Y0052984D02*
X0219500Y0052984D01*
X0219860Y0052385D02*
X0220098Y0052385D01*
X0220459Y0051787D02*
X0220697Y0051787D01*
X0221057Y0051188D02*
X0221172Y0051188D01*
X0221172Y0051209D02*
X0221172Y0051073D01*
X0213224Y0059021D01*
X0205152Y0059021D01*
X0205152Y0059021D01*
X0213462Y0059021D01*
X0221202Y0051281D01*
X0221172Y0051209D01*
X0223749Y0050697D02*
X0214037Y0060409D01*
X0194613Y0060409D01*
X0191145Y0063877D01*
X0191145Y0066652D01*
X0192532Y0068039D01*
X0195307Y0068039D01*
X0196694Y0066652D01*
X0196694Y0065958D01*
X0197388Y0065265D01*
X0209181Y0065265D01*
X0212650Y0068733D01*
X0212650Y0070120D01*
X0213008Y0070300D01*
X0217595Y0070341D02*
X0218420Y0070341D01*
X0218420Y0070939D02*
X0217595Y0070939D01*
X0217595Y0071212D02*
X0217595Y0069388D01*
X0216897Y0067701D01*
X0215606Y0066411D01*
X0213920Y0065713D01*
X0212095Y0065713D01*
X0211739Y0065860D01*
X0211143Y0065265D01*
X0214850Y0065265D01*
X0218582Y0068997D01*
X0218420Y0069388D01*
X0218420Y0071212D01*
X0219119Y0072899D01*
X0220409Y0074189D01*
X0220635Y0074283D01*
X0220161Y0074283D01*
X0218774Y0072895D01*
X0216931Y0072895D01*
X0216118Y0073708D01*
X0216118Y0073708D01*
X0215543Y0074283D01*
X0215380Y0074283D01*
X0215606Y0074189D01*
X0216897Y0072899D01*
X0217595Y0071212D01*
X0217461Y0071538D02*
X0218555Y0071538D01*
X0218803Y0072136D02*
X0217213Y0072136D01*
X0216965Y0072735D02*
X0219051Y0072735D01*
X0219212Y0073333D02*
X0219554Y0073333D01*
X0219810Y0073932D02*
X0220152Y0073932D01*
X0219587Y0075670D02*
X0218199Y0074283D01*
X0217506Y0074283D01*
X0216118Y0075670D01*
X0197388Y0075670D01*
X0196001Y0074283D01*
X0096802Y0074283D01*
X0084315Y0061796D01*
X0084315Y0051391D01*
X0083669Y0051143D01*
X0083621Y0051391D01*
X0078072Y0051391D01*
X0076684Y0050003D01*
X0067666Y0050003D01*
X0066972Y0050697D01*
X0066346Y0051300D01*
X0062503Y0051188D02*
X0059883Y0051188D01*
X0059883Y0050590D02*
X0062503Y0050590D01*
X0062503Y0049991D02*
X0059883Y0049991D01*
X0059883Y0049393D02*
X0062503Y0049393D01*
X0062503Y0048794D02*
X0059883Y0048794D01*
X0061083Y0048196D02*
X0062795Y0048196D01*
X0061923Y0047597D02*
X0078560Y0047597D01*
X0077961Y0046999D02*
X0062345Y0046999D01*
X0062592Y0046400D02*
X0077363Y0046400D01*
X0076764Y0045802D02*
X0062612Y0045802D01*
X0062560Y0045203D02*
X0076684Y0045203D01*
X0076684Y0044605D02*
X0069698Y0044605D01*
X0070190Y0044006D02*
X0076356Y0044006D01*
X0075757Y0043408D02*
X0070190Y0043408D01*
X0070190Y0042809D02*
X0075159Y0042809D01*
X0074560Y0042211D02*
X0070190Y0042211D01*
X0070190Y0041612D02*
X0073962Y0041612D01*
X0073363Y0041014D02*
X0070190Y0041014D01*
X0070190Y0040415D02*
X0072765Y0040415D01*
X0072166Y0039817D02*
X0070190Y0039817D01*
X0070190Y0039218D02*
X0071568Y0039218D01*
X0070969Y0038620D02*
X0070190Y0038620D01*
X0070371Y0038021D02*
X0069723Y0038021D01*
X0073696Y0037423D02*
X0073935Y0037423D01*
X0074295Y0038021D02*
X0074533Y0038021D01*
X0074893Y0038620D02*
X0075132Y0038620D01*
X0075492Y0039218D02*
X0075730Y0039218D01*
X0076091Y0039817D02*
X0076329Y0039817D01*
X0076689Y0040415D02*
X0076927Y0040415D01*
X0077288Y0041014D02*
X0077526Y0041014D01*
X0077886Y0041612D02*
X0078124Y0041612D01*
X0078485Y0042211D02*
X0078723Y0042211D01*
X0078646Y0042372D02*
X0079459Y0043185D01*
X0079459Y0044573D01*
X0080034Y0045147D01*
X0087209Y0045147D01*
X0089865Y0042491D01*
X0089865Y0030460D01*
X0087664Y0032661D01*
X0087513Y0032661D01*
X0087513Y0034270D01*
X0086876Y0034907D01*
X0080463Y0034907D01*
X0079826Y0034270D01*
X0079826Y0028645D01*
X0080463Y0028008D01*
X0086876Y0028008D01*
X0087513Y0028645D01*
X0087513Y0028888D01*
X0088477Y0027924D01*
X0088477Y0027230D01*
X0099002Y0016705D01*
X0079340Y0016705D01*
X0068360Y0027686D01*
X0068360Y0027850D01*
X0069553Y0027850D01*
X0070190Y0028487D01*
X0070190Y0031349D01*
X0070369Y0031170D01*
X0071316Y0030778D01*
X0072341Y0030778D01*
X0073288Y0031170D01*
X0074012Y0031895D01*
X0074405Y0032842D01*
X0074405Y0033867D01*
X0074375Y0033939D01*
X0079826Y0039390D01*
X0079826Y0038645D01*
X0080463Y0038008D01*
X0086876Y0038008D01*
X0087513Y0038645D01*
X0087513Y0044270D01*
X0086876Y0044907D01*
X0080463Y0044907D01*
X0079826Y0044270D01*
X0079826Y0042372D01*
X0078884Y0042372D01*
X0072413Y0035901D01*
X0072341Y0035931D01*
X0072205Y0035931D01*
X0078646Y0042372D01*
X0079083Y0042809D02*
X0079826Y0042809D01*
X0079826Y0043408D02*
X0079459Y0043408D01*
X0079459Y0044006D02*
X0079826Y0044006D01*
X0079491Y0044605D02*
X0080161Y0044605D01*
X0087178Y0044605D02*
X0087751Y0044605D01*
X0087513Y0044006D02*
X0088350Y0044006D01*
X0088948Y0043408D02*
X0087513Y0043408D01*
X0087513Y0042809D02*
X0089547Y0042809D01*
X0089865Y0042211D02*
X0087513Y0042211D01*
X0087513Y0041612D02*
X0089865Y0041612D01*
X0089865Y0041014D02*
X0087513Y0041014D01*
X0087513Y0040415D02*
X0089865Y0040415D01*
X0089865Y0039817D02*
X0087513Y0039817D01*
X0087513Y0039218D02*
X0089865Y0039218D01*
X0089865Y0038620D02*
X0087487Y0038620D01*
X0086889Y0038021D02*
X0089865Y0038021D01*
X0089865Y0037423D02*
X0077859Y0037423D01*
X0078457Y0038021D02*
X0080450Y0038021D01*
X0079851Y0038620D02*
X0079056Y0038620D01*
X0079654Y0039218D02*
X0079826Y0039218D01*
X0079459Y0040985D02*
X0071828Y0033354D01*
X0074405Y0033233D02*
X0079826Y0033233D01*
X0079826Y0032634D02*
X0074319Y0032634D01*
X0074071Y0032036D02*
X0079826Y0032036D01*
X0079826Y0031437D02*
X0073555Y0031437D01*
X0074437Y0030786D02*
X0073381Y0030349D01*
X0072573Y0029541D01*
X0072136Y0028485D01*
X0072136Y0027343D01*
X0072573Y0026288D01*
X0073381Y0025480D01*
X0074437Y0025043D01*
X0075579Y0025043D01*
X0076635Y0025480D01*
X0077442Y0026288D01*
X0077880Y0027343D01*
X0077880Y0028485D01*
X0077442Y0029541D01*
X0076635Y0030349D01*
X0075579Y0030786D01*
X0074437Y0030786D01*
X0073273Y0030240D02*
X0070190Y0030240D01*
X0070190Y0029642D02*
X0072675Y0029642D01*
X0072367Y0029043D02*
X0070190Y0029043D01*
X0070147Y0028445D02*
X0072136Y0028445D01*
X0072136Y0027846D02*
X0068360Y0027846D01*
X0068798Y0027248D02*
X0072176Y0027248D01*
X0072423Y0026649D02*
X0069396Y0026649D01*
X0069995Y0026051D02*
X0072810Y0026051D01*
X0073447Y0025452D02*
X0070593Y0025452D01*
X0071192Y0024854D02*
X0090853Y0024854D01*
X0090255Y0025452D02*
X0076569Y0025452D01*
X0077206Y0026051D02*
X0089656Y0026051D01*
X0089058Y0026649D02*
X0077592Y0026649D01*
X0077840Y0027248D02*
X0088477Y0027248D01*
X0088477Y0027846D02*
X0077880Y0027846D01*
X0077880Y0028445D02*
X0080026Y0028445D01*
X0079826Y0029043D02*
X0077648Y0029043D01*
X0077341Y0029642D02*
X0079826Y0029642D01*
X0079826Y0030240D02*
X0076743Y0030240D01*
X0079826Y0030839D02*
X0072488Y0030839D01*
X0071169Y0030839D02*
X0070190Y0030839D01*
X0066972Y0031273D02*
X0066346Y0031300D01*
X0066972Y0031273D02*
X0066972Y0027111D01*
X0078765Y0015318D01*
X0078972Y0017073D02*
X0098634Y0017073D01*
X0098035Y0017672D02*
X0078374Y0017672D01*
X0077775Y0018270D02*
X0097437Y0018270D01*
X0096838Y0018869D02*
X0077177Y0018869D01*
X0076578Y0019467D02*
X0096240Y0019467D01*
X0095641Y0020066D02*
X0075980Y0020066D01*
X0075381Y0020664D02*
X0095043Y0020664D01*
X0094444Y0021263D02*
X0074783Y0021263D01*
X0074184Y0021861D02*
X0093846Y0021861D01*
X0093247Y0022460D02*
X0073586Y0022460D01*
X0072987Y0023058D02*
X0092649Y0023058D01*
X0092050Y0023657D02*
X0072389Y0023657D01*
X0071790Y0024255D02*
X0091452Y0024255D01*
X0089865Y0027805D02*
X0107207Y0010462D01*
X0186983Y0010462D01*
X0185714Y0013237D02*
X0155899Y0013237D01*
X0155899Y0013237D01*
X0185714Y0013237D01*
X0185714Y0013237D01*
X0186289Y0016012D02*
X0158541Y0016012D01*
X0149523Y0025030D01*
X0132874Y0025030D01*
X0126631Y0031273D01*
X0126631Y0054165D01*
X0114838Y0065958D01*
X0112465Y0064954D02*
X0111840Y0064954D01*
X0112261Y0065553D02*
X0111242Y0065553D01*
X0110643Y0066151D02*
X0112261Y0066151D01*
X0112377Y0066750D02*
X0105798Y0066750D01*
X0105372Y0066151D02*
X0105200Y0066151D01*
X0104774Y0065553D02*
X0104601Y0065553D01*
X0104175Y0064954D02*
X0104003Y0064954D01*
X0103577Y0064356D02*
X0103404Y0064356D01*
X0102978Y0063757D02*
X0102806Y0063757D01*
X0102491Y0063159D02*
X0097618Y0063159D01*
X0097047Y0062560D02*
X0102491Y0062560D01*
X0093781Y0062560D02*
X0092885Y0062560D01*
X0084912Y0064356D02*
X0009408Y0064356D01*
X0009408Y0064954D02*
X0085511Y0064954D01*
X0086109Y0065553D02*
X0009408Y0065553D01*
X0009408Y0066151D02*
X0086708Y0066151D01*
X0087306Y0066750D02*
X0009408Y0066750D01*
X0009408Y0067348D02*
X0087905Y0067348D01*
X0088503Y0067947D02*
X0009408Y0067947D01*
X0009408Y0068545D02*
X0089102Y0068545D01*
X0089701Y0069144D02*
X0009408Y0069144D01*
X0009408Y0069742D02*
X0090299Y0069742D01*
X0090898Y0070341D02*
X0009408Y0070341D01*
X0009408Y0070939D02*
X0091496Y0070939D01*
X0092095Y0071538D02*
X0009408Y0071538D01*
X0012832Y0072136D02*
X0092693Y0072136D01*
X0093292Y0072735D02*
X0013345Y0072735D01*
X0013345Y0073333D02*
X0093890Y0073333D01*
X0094489Y0073932D02*
X0013345Y0073932D01*
X0013345Y0074530D02*
X0095087Y0074530D01*
X0095686Y0075129D02*
X0013345Y0075129D01*
X0013345Y0075727D02*
X0195483Y0075727D01*
X0197612Y0073932D02*
X0198420Y0073932D01*
X0198420Y0074250D02*
X0198420Y0066652D01*
X0198082Y0066652D01*
X0198082Y0067227D01*
X0196694Y0068614D01*
X0195882Y0069427D01*
X0191958Y0069427D01*
X0191145Y0068614D01*
X0190570Y0068039D01*
X0189757Y0067227D01*
X0189757Y0065146D01*
X0182701Y0072202D01*
X0096921Y0072202D01*
X0096108Y0071389D01*
X0091836Y0067117D01*
X0091764Y0067147D01*
X0091628Y0067147D01*
X0097376Y0072895D01*
X0196575Y0072895D01*
X0197963Y0074283D01*
X0198453Y0074283D01*
X0198420Y0074250D01*
X0198420Y0073333D02*
X0197013Y0073333D01*
X0198420Y0072735D02*
X0097216Y0072735D01*
X0096855Y0072136D02*
X0096617Y0072136D01*
X0096257Y0071538D02*
X0096019Y0071538D01*
X0095658Y0070939D02*
X0095420Y0070939D01*
X0095060Y0070341D02*
X0094822Y0070341D01*
X0094461Y0069742D02*
X0094223Y0069742D01*
X0093863Y0069144D02*
X0093625Y0069144D01*
X0093264Y0068545D02*
X0093026Y0068545D01*
X0092666Y0067947D02*
X0092428Y0067947D01*
X0092067Y0067348D02*
X0091829Y0067348D01*
X0095790Y0067147D02*
X0098070Y0069427D01*
X0104551Y0069427D01*
X0101083Y0065958D01*
X0097628Y0065958D01*
X0097598Y0066030D01*
X0096874Y0066755D01*
X0095927Y0067147D01*
X0095790Y0067147D01*
X0095991Y0067348D02*
X0102473Y0067348D01*
X0103071Y0067947D02*
X0096590Y0067947D01*
X0097188Y0068545D02*
X0103670Y0068545D01*
X0104268Y0069144D02*
X0097787Y0069144D01*
X0101657Y0064571D02*
X0105820Y0068733D01*
X0119694Y0068733D01*
X0123162Y0065265D01*
X0140505Y0065265D01*
X0141892Y0066652D01*
X0139316Y0066652D02*
X0139316Y0067164D01*
X0139678Y0068039D01*
X0127126Y0068039D01*
X0127126Y0067527D01*
X0126764Y0066652D01*
X0139316Y0066652D01*
X0139316Y0066750D02*
X0126804Y0066750D01*
X0127052Y0067348D02*
X0139392Y0067348D01*
X0139640Y0067947D02*
X0127126Y0067947D01*
X0125937Y0069427D02*
X0124550Y0068039D01*
X0122218Y0069144D02*
X0121245Y0069144D01*
X0120962Y0069427D02*
X0121973Y0068416D01*
X0121973Y0068552D01*
X0122336Y0069427D01*
X0120962Y0069427D01*
X0125937Y0069427D02*
X0168946Y0069427D01*
X0178658Y0059715D01*
X0180739Y0059715D01*
X0183093Y0060765D02*
X0190214Y0060765D01*
X0189616Y0061363D02*
X0182735Y0061363D01*
X0182048Y0061962D02*
X0189017Y0061962D01*
X0188419Y0062560D02*
X0177775Y0062560D01*
X0177177Y0063159D02*
X0187820Y0063159D01*
X0187222Y0063757D02*
X0176578Y0063757D01*
X0175980Y0064356D02*
X0186623Y0064356D01*
X0186025Y0064954D02*
X0175381Y0064954D01*
X0174783Y0065553D02*
X0185426Y0065553D01*
X0184828Y0066151D02*
X0174184Y0066151D01*
X0173586Y0066750D02*
X0184229Y0066750D01*
X0183631Y0067348D02*
X0172987Y0067348D01*
X0172389Y0067947D02*
X0183032Y0067947D01*
X0182434Y0068545D02*
X0171790Y0068545D01*
X0171192Y0069144D02*
X0181835Y0069144D01*
X0185161Y0069742D02*
X0198420Y0069742D01*
X0198420Y0069144D02*
X0196165Y0069144D01*
X0196763Y0068545D02*
X0198420Y0068545D01*
X0198420Y0067947D02*
X0197362Y0067947D01*
X0197960Y0067348D02*
X0198420Y0067348D01*
X0198420Y0066750D02*
X0198082Y0066750D01*
X0195307Y0065265D02*
X0193920Y0065265D01*
X0195307Y0065265D02*
X0196694Y0063877D01*
X0215424Y0063877D01*
X0222361Y0070814D01*
X0223008Y0070300D01*
X0227595Y0070341D02*
X0227911Y0070341D01*
X0227911Y0070939D02*
X0227595Y0070939D01*
X0227595Y0071212D02*
X0227595Y0069388D01*
X0226897Y0067701D01*
X0225606Y0066411D01*
X0223920Y0065713D01*
X0222095Y0065713D01*
X0220409Y0066411D01*
X0220165Y0066655D01*
X0215999Y0062490D01*
X0196120Y0062490D01*
X0195454Y0063155D01*
X0195379Y0063080D01*
X0194432Y0062688D01*
X0194296Y0062688D01*
X0195188Y0061796D01*
X0214612Y0061796D01*
X0223164Y0053243D01*
X0223236Y0053273D01*
X0224261Y0053273D01*
X0225136Y0052911D01*
X0225136Y0054978D01*
X0221558Y0058556D01*
X0221486Y0058526D01*
X0220462Y0058526D01*
X0219515Y0058918D01*
X0218790Y0059643D01*
X0218398Y0060590D01*
X0218398Y0061615D01*
X0218790Y0062562D01*
X0219515Y0063287D01*
X0220462Y0063679D01*
X0221486Y0063679D01*
X0222433Y0063287D01*
X0223158Y0062562D01*
X0223550Y0061615D01*
X0223550Y0060590D01*
X0223521Y0060518D01*
X0226524Y0057515D01*
X0226524Y0060983D01*
X0227336Y0061796D01*
X0227911Y0062371D01*
X0227911Y0072321D01*
X0225949Y0074283D01*
X0225380Y0074283D01*
X0225606Y0074189D01*
X0226897Y0072899D01*
X0227595Y0071212D01*
X0227461Y0071538D02*
X0227911Y0071538D01*
X0227911Y0072136D02*
X0227213Y0072136D01*
X0226965Y0072735D02*
X0227497Y0072735D01*
X0226898Y0073333D02*
X0226462Y0073333D01*
X0226300Y0073932D02*
X0225864Y0073932D01*
X0226524Y0075670D02*
X0229298Y0072895D01*
X0229298Y0061796D01*
X0227911Y0060409D01*
X0227911Y0052084D01*
X0245254Y0034742D01*
X0245254Y0025030D01*
X0247619Y0026051D02*
X0248475Y0026051D01*
X0248722Y0026298D02*
X0247830Y0025406D01*
X0247830Y0025542D01*
X0247438Y0026489D01*
X0246713Y0027214D01*
X0246641Y0027244D01*
X0246641Y0035316D01*
X0245828Y0036129D01*
X0229298Y0052659D01*
X0229298Y0056807D01*
X0230173Y0056445D01*
X0231198Y0056445D01*
X0232145Y0056837D01*
X0232870Y0057562D01*
X0233262Y0058509D01*
X0233262Y0059534D01*
X0233232Y0059606D01*
X0238678Y0065052D01*
X0238907Y0064499D01*
X0239632Y0063774D01*
X0239704Y0063744D01*
X0239704Y0049428D01*
X0247563Y0041570D01*
X0247533Y0041498D01*
X0247533Y0040473D01*
X0247925Y0039526D01*
X0248650Y0038801D01*
X0248722Y0038771D01*
X0248722Y0026298D01*
X0248722Y0026649D02*
X0247278Y0026649D01*
X0246641Y0027248D02*
X0248722Y0027248D01*
X0248722Y0027846D02*
X0246641Y0027846D01*
X0246641Y0028445D02*
X0248722Y0028445D01*
X0248722Y0029043D02*
X0246641Y0029043D01*
X0246641Y0029642D02*
X0248722Y0029642D01*
X0248722Y0030240D02*
X0246641Y0030240D01*
X0246641Y0030839D02*
X0248722Y0030839D01*
X0248722Y0031437D02*
X0246641Y0031437D01*
X0246641Y0032036D02*
X0248722Y0032036D01*
X0248722Y0032634D02*
X0246641Y0032634D01*
X0246641Y0033233D02*
X0248722Y0033233D01*
X0248722Y0033832D02*
X0246641Y0033832D01*
X0246641Y0034430D02*
X0248722Y0034430D01*
X0248722Y0035029D02*
X0246641Y0035029D01*
X0246330Y0035627D02*
X0248722Y0035627D01*
X0248722Y0036226D02*
X0245732Y0036226D01*
X0245133Y0036824D02*
X0248722Y0036824D01*
X0248722Y0037423D02*
X0244535Y0037423D01*
X0243936Y0038021D02*
X0248722Y0038021D01*
X0248722Y0038620D02*
X0243338Y0038620D01*
X0242739Y0039218D02*
X0248233Y0039218D01*
X0247805Y0039817D02*
X0242141Y0039817D01*
X0241542Y0040415D02*
X0247557Y0040415D01*
X0247533Y0041014D02*
X0240944Y0041014D01*
X0240345Y0041612D02*
X0247520Y0041612D01*
X0246922Y0042211D02*
X0239747Y0042211D01*
X0239148Y0042809D02*
X0246323Y0042809D01*
X0245725Y0043408D02*
X0238550Y0043408D01*
X0237951Y0044006D02*
X0245126Y0044006D01*
X0244528Y0044605D02*
X0237353Y0044605D01*
X0236754Y0045203D02*
X0243929Y0045203D01*
X0243331Y0045802D02*
X0236156Y0045802D01*
X0235557Y0046400D02*
X0242732Y0046400D01*
X0242134Y0046999D02*
X0234959Y0046999D01*
X0234360Y0047597D02*
X0241535Y0047597D01*
X0240937Y0048196D02*
X0233762Y0048196D01*
X0233163Y0048794D02*
X0240338Y0048794D01*
X0239740Y0049393D02*
X0232565Y0049393D01*
X0231966Y0049991D02*
X0239704Y0049991D01*
X0239704Y0050590D02*
X0231368Y0050590D01*
X0230769Y0051188D02*
X0239704Y0051188D01*
X0239704Y0051787D02*
X0230170Y0051787D01*
X0229572Y0052385D02*
X0239704Y0052385D01*
X0239704Y0052984D02*
X0229298Y0052984D01*
X0229298Y0053582D02*
X0239704Y0053582D01*
X0239704Y0054181D02*
X0229298Y0054181D01*
X0229298Y0054779D02*
X0239704Y0054779D01*
X0239704Y0055378D02*
X0229298Y0055378D01*
X0229298Y0055976D02*
X0239704Y0055976D01*
X0239704Y0056575D02*
X0231512Y0056575D01*
X0232482Y0057173D02*
X0239704Y0057173D01*
X0239704Y0057772D02*
X0232957Y0057772D01*
X0233205Y0058370D02*
X0239704Y0058370D01*
X0239704Y0058969D02*
X0233262Y0058969D01*
X0233248Y0059568D02*
X0239704Y0059568D01*
X0239704Y0060166D02*
X0233793Y0060166D01*
X0234391Y0060765D02*
X0239704Y0060765D01*
X0239704Y0061363D02*
X0234990Y0061363D01*
X0235588Y0061962D02*
X0239704Y0061962D01*
X0239704Y0062560D02*
X0236187Y0062560D01*
X0236785Y0063159D02*
X0239704Y0063159D01*
X0239673Y0063757D02*
X0237384Y0063757D01*
X0237982Y0064356D02*
X0239050Y0064356D01*
X0238719Y0064954D02*
X0238581Y0064954D01*
X0241091Y0065958D02*
X0241091Y0050003D01*
X0250109Y0040985D01*
X0250109Y0025724D01*
X0246641Y0022255D01*
X0243172Y0022255D01*
X0211956Y0053472D01*
X0193226Y0053472D01*
X0191145Y0051391D01*
X0190567Y0051143D01*
X0190451Y0051391D01*
X0188370Y0053472D01*
X0182820Y0053472D01*
X0168253Y0068039D01*
X0159928Y0068039D01*
X0143280Y0051391D01*
X0135649Y0051391D01*
X0135567Y0051143D01*
X0130780Y0051188D02*
X0128018Y0051188D01*
X0128018Y0050590D02*
X0130780Y0050590D01*
X0130780Y0049991D02*
X0128018Y0049991D01*
X0128018Y0049393D02*
X0130780Y0049393D01*
X0130780Y0048794D02*
X0128018Y0048794D01*
X0128018Y0048196D02*
X0130780Y0048196D01*
X0130780Y0047597D02*
X0128018Y0047597D01*
X0128018Y0046999D02*
X0130780Y0046999D01*
X0130780Y0046992D02*
X0131417Y0046355D01*
X0139717Y0046355D01*
X0140354Y0046992D01*
X0140354Y0050003D01*
X0143854Y0050003D01*
X0160503Y0066652D01*
X0167678Y0066652D01*
X0179669Y0054661D01*
X0179533Y0054661D01*
X0178586Y0054268D01*
X0177862Y0053544D01*
X0177469Y0052597D01*
X0177469Y0051572D01*
X0177862Y0050625D01*
X0178586Y0049900D01*
X0178658Y0049870D01*
X0178658Y0029311D01*
X0179471Y0028498D01*
X0184436Y0023533D01*
X0184406Y0023461D01*
X0184406Y0022436D01*
X0184799Y0021489D01*
X0185523Y0020765D01*
X0186470Y0020372D01*
X0187495Y0020372D01*
X0188442Y0020765D01*
X0189167Y0021489D01*
X0189559Y0022436D01*
X0189559Y0023461D01*
X0189167Y0024408D01*
X0188442Y0025133D01*
X0187495Y0025525D01*
X0186470Y0025525D01*
X0186398Y0025495D01*
X0181433Y0030461D01*
X0181433Y0049870D01*
X0181505Y0049900D01*
X0182230Y0050625D01*
X0182622Y0051572D01*
X0182622Y0052084D01*
X0185780Y0052084D01*
X0185780Y0046992D01*
X0186417Y0046355D01*
X0194717Y0046355D01*
X0195354Y0046992D01*
X0195354Y0052084D01*
X0211381Y0052084D01*
X0212967Y0050498D01*
X0212831Y0050498D01*
X0211884Y0050106D01*
X0211548Y0049770D01*
X0211548Y0050806D01*
X0210911Y0051443D01*
X0204105Y0051443D01*
X0203468Y0050806D01*
X0203468Y0043961D01*
X0202757Y0044255D01*
X0201732Y0044255D01*
X0200785Y0043863D01*
X0200060Y0043138D01*
X0199668Y0042191D01*
X0199668Y0041166D01*
X0199698Y0041094D01*
X0196813Y0038210D01*
X0196001Y0037398D01*
X0196001Y0027686D01*
X0185714Y0017399D01*
X0166594Y0017399D01*
X0168524Y0019330D01*
X0168524Y0023900D01*
X0166106Y0026318D01*
X0168903Y0027068D01*
X0172386Y0029078D01*
X0175229Y0031922D01*
X0177240Y0035405D01*
X0178281Y0039289D01*
X0178281Y0043311D01*
X0177240Y0047195D01*
X0175229Y0050678D01*
X0172386Y0053522D01*
X0168903Y0055532D01*
X0166106Y0056282D01*
X0168524Y0058700D01*
X0168524Y0063270D01*
X0165293Y0066502D01*
X0160723Y0066502D01*
X0157491Y0063270D01*
X0157491Y0058700D01*
X0159910Y0056282D01*
X0157113Y0055532D01*
X0153630Y0053522D01*
X0150786Y0050678D01*
X0148775Y0047195D01*
X0147735Y0043311D01*
X0147735Y0039289D01*
X0148775Y0035405D01*
X0150786Y0031922D01*
X0153630Y0029078D01*
X0157113Y0027068D01*
X0159910Y0026318D01*
X0157491Y0023900D01*
X0157491Y0019330D01*
X0159422Y0017399D01*
X0159116Y0017399D01*
X0150910Y0025605D01*
X0150098Y0026417D01*
X0133449Y0026417D01*
X0133196Y0026670D01*
X0139717Y0026670D01*
X0140354Y0027307D01*
X0140354Y0035608D01*
X0139717Y0036245D01*
X0131417Y0036245D01*
X0130780Y0035608D01*
X0130780Y0029086D01*
X0128018Y0031848D01*
X0128018Y0054740D01*
X0117384Y0065374D01*
X0117414Y0065446D01*
X0117414Y0066471D01*
X0117052Y0067346D01*
X0119119Y0067346D01*
X0121775Y0064690D01*
X0122588Y0063877D01*
X0141079Y0063877D01*
X0141308Y0064105D01*
X0141380Y0064076D01*
X0142405Y0064076D01*
X0143352Y0064468D01*
X0144076Y0065193D01*
X0144468Y0066139D01*
X0144468Y0067164D01*
X0144106Y0068039D01*
X0157966Y0068039D01*
X0142705Y0052778D01*
X0140354Y0052778D01*
X0140354Y0055293D01*
X0139717Y0055930D01*
X0131417Y0055930D01*
X0130780Y0055293D01*
X0130780Y0046992D01*
X0131371Y0046400D02*
X0128018Y0046400D01*
X0128018Y0045802D02*
X0131131Y0045802D01*
X0131417Y0046087D02*
X0130780Y0045450D01*
X0130780Y0037150D01*
X0131417Y0036513D01*
X0139717Y0036513D01*
X0140354Y0037150D01*
X0140354Y0045450D01*
X0139717Y0046087D01*
X0131417Y0046087D01*
X0130780Y0045203D02*
X0128018Y0045203D01*
X0128018Y0044605D02*
X0130780Y0044605D01*
X0130780Y0044006D02*
X0128018Y0044006D01*
X0128018Y0043408D02*
X0130780Y0043408D01*
X0130780Y0042809D02*
X0128018Y0042809D01*
X0128018Y0042211D02*
X0130780Y0042211D01*
X0130780Y0041612D02*
X0128018Y0041612D01*
X0128018Y0041014D02*
X0130780Y0041014D01*
X0130780Y0040415D02*
X0128018Y0040415D01*
X0128018Y0039817D02*
X0130780Y0039817D01*
X0130780Y0039218D02*
X0128018Y0039218D01*
X0128018Y0038620D02*
X0130780Y0038620D01*
X0130780Y0038021D02*
X0128018Y0038021D01*
X0128018Y0037423D02*
X0130780Y0037423D01*
X0131105Y0036824D02*
X0128018Y0036824D01*
X0128018Y0036226D02*
X0131397Y0036226D01*
X0130799Y0035627D02*
X0128018Y0035627D01*
X0128018Y0035029D02*
X0130780Y0035029D01*
X0130780Y0034430D02*
X0128018Y0034430D01*
X0128018Y0033832D02*
X0130780Y0033832D01*
X0130780Y0033233D02*
X0128018Y0033233D01*
X0128018Y0032634D02*
X0130780Y0032634D01*
X0130780Y0032036D02*
X0128018Y0032036D01*
X0128429Y0031437D02*
X0130780Y0031437D01*
X0130780Y0030839D02*
X0129027Y0030839D01*
X0129626Y0030240D02*
X0130780Y0030240D01*
X0130780Y0029642D02*
X0130224Y0029642D01*
X0125321Y0027846D02*
X0115252Y0027846D01*
X0114215Y0027248D02*
X0125919Y0027248D01*
X0126518Y0026649D02*
X0112342Y0026649D01*
X0111373Y0026051D02*
X0127116Y0026051D01*
X0127715Y0025452D02*
X0111972Y0025452D01*
X0112571Y0024854D02*
X0128313Y0024854D01*
X0128912Y0024255D02*
X0113169Y0024255D01*
X0113524Y0023657D02*
X0129510Y0023657D01*
X0130109Y0023058D02*
X0113524Y0023058D01*
X0113524Y0022460D02*
X0130707Y0022460D01*
X0131306Y0021861D02*
X0113524Y0021861D01*
X0113524Y0021263D02*
X0131904Y0021263D01*
X0132503Y0020664D02*
X0113524Y0020664D01*
X0113524Y0020066D02*
X0133101Y0020066D01*
X0133700Y0019467D02*
X0113524Y0019467D01*
X0113063Y0018869D02*
X0134298Y0018869D01*
X0134897Y0018270D02*
X0112465Y0018270D01*
X0111866Y0017672D02*
X0135495Y0017672D01*
X0136343Y0018787D02*
X0151604Y0018787D01*
X0153931Y0017672D02*
X0154919Y0017672D01*
X0154506Y0017073D02*
X0155517Y0017073D01*
X0155144Y0016809D02*
X0154198Y0017201D01*
X0153662Y0017201D01*
X0153788Y0017327D01*
X0154180Y0018274D01*
X0154180Y0018410D01*
X0156579Y0016012D01*
X0155899Y0016012D01*
X0155869Y0016084D01*
X0155144Y0016809D01*
X0155478Y0016475D02*
X0156116Y0016475D01*
X0158843Y0017672D02*
X0159150Y0017672D01*
X0158551Y0018270D02*
X0158245Y0018270D01*
X0157953Y0018869D02*
X0157646Y0018869D01*
X0157491Y0019467D02*
X0157048Y0019467D01*
X0157491Y0020066D02*
X0156449Y0020066D01*
X0155851Y0020664D02*
X0157491Y0020664D01*
X0157491Y0021263D02*
X0155252Y0021263D01*
X0154654Y0021861D02*
X0157491Y0021861D01*
X0157491Y0022460D02*
X0154055Y0022460D01*
X0153457Y0023058D02*
X0157491Y0023058D01*
X0157491Y0023657D02*
X0152858Y0023657D01*
X0152259Y0024255D02*
X0157847Y0024255D01*
X0158445Y0024854D02*
X0151661Y0024854D01*
X0151062Y0025452D02*
X0159044Y0025452D01*
X0159642Y0026051D02*
X0150464Y0026051D01*
X0155764Y0027846D02*
X0140354Y0027846D01*
X0140354Y0028445D02*
X0154727Y0028445D01*
X0153690Y0029043D02*
X0140354Y0029043D01*
X0140354Y0029642D02*
X0153066Y0029642D01*
X0152468Y0030240D02*
X0140354Y0030240D01*
X0140354Y0030839D02*
X0151869Y0030839D01*
X0151271Y0031437D02*
X0140354Y0031437D01*
X0140354Y0032036D02*
X0150720Y0032036D01*
X0150375Y0032634D02*
X0140354Y0032634D01*
X0140354Y0033233D02*
X0150029Y0033233D01*
X0149684Y0033832D02*
X0140354Y0033832D01*
X0140354Y0034430D02*
X0149338Y0034430D01*
X0148993Y0035029D02*
X0140354Y0035029D01*
X0140335Y0035627D02*
X0148716Y0035627D01*
X0148556Y0036226D02*
X0139737Y0036226D01*
X0140029Y0036824D02*
X0148395Y0036824D01*
X0148235Y0037423D02*
X0140354Y0037423D01*
X0140354Y0038021D02*
X0148074Y0038021D01*
X0147914Y0038620D02*
X0140354Y0038620D01*
X0140354Y0039218D02*
X0147754Y0039218D01*
X0147735Y0039817D02*
X0140354Y0039817D01*
X0140354Y0040415D02*
X0147735Y0040415D01*
X0147735Y0041014D02*
X0140354Y0041014D01*
X0140354Y0041612D02*
X0147735Y0041612D01*
X0147735Y0042211D02*
X0140354Y0042211D01*
X0140354Y0042809D02*
X0147735Y0042809D01*
X0147761Y0043408D02*
X0140354Y0043408D01*
X0140354Y0044006D02*
X0147921Y0044006D01*
X0148081Y0044605D02*
X0140354Y0044605D01*
X0140354Y0045203D02*
X0148242Y0045203D01*
X0148402Y0045802D02*
X0140003Y0045802D01*
X0139762Y0046400D02*
X0148562Y0046400D01*
X0148723Y0046999D02*
X0140354Y0046999D01*
X0140354Y0047597D02*
X0149008Y0047597D01*
X0149353Y0048196D02*
X0140354Y0048196D01*
X0140354Y0048794D02*
X0149699Y0048794D01*
X0150044Y0049393D02*
X0140354Y0049393D01*
X0140354Y0049991D02*
X0150390Y0049991D01*
X0150735Y0050590D02*
X0144441Y0050590D01*
X0145039Y0051188D02*
X0151297Y0051188D01*
X0151895Y0051787D02*
X0145638Y0051787D01*
X0146236Y0052385D02*
X0152494Y0052385D01*
X0153092Y0052984D02*
X0146835Y0052984D01*
X0147433Y0053582D02*
X0153735Y0053582D01*
X0154772Y0054181D02*
X0148032Y0054181D01*
X0148630Y0054779D02*
X0155808Y0054779D01*
X0156845Y0055378D02*
X0149229Y0055378D01*
X0149827Y0055976D02*
X0158770Y0055976D01*
X0159616Y0056575D02*
X0150426Y0056575D01*
X0151025Y0057173D02*
X0159018Y0057173D01*
X0158419Y0057772D02*
X0151623Y0057772D01*
X0152222Y0058370D02*
X0157821Y0058370D01*
X0157491Y0058969D02*
X0152820Y0058969D01*
X0153419Y0059568D02*
X0157491Y0059568D01*
X0157491Y0060166D02*
X0154017Y0060166D01*
X0154616Y0060765D02*
X0157491Y0060765D01*
X0157491Y0061363D02*
X0155214Y0061363D01*
X0155813Y0061962D02*
X0157491Y0061962D01*
X0157491Y0062560D02*
X0156411Y0062560D01*
X0157010Y0063159D02*
X0157491Y0063159D01*
X0157608Y0063757D02*
X0157978Y0063757D01*
X0158207Y0064356D02*
X0158577Y0064356D01*
X0158805Y0064954D02*
X0159175Y0064954D01*
X0159404Y0065553D02*
X0159774Y0065553D01*
X0160002Y0066151D02*
X0160372Y0066151D01*
X0157275Y0067348D02*
X0144392Y0067348D01*
X0144468Y0066750D02*
X0156677Y0066750D01*
X0156078Y0066151D02*
X0144468Y0066151D01*
X0144225Y0065553D02*
X0155480Y0065553D01*
X0154881Y0064954D02*
X0143838Y0064954D01*
X0143081Y0064356D02*
X0154283Y0064356D01*
X0153684Y0063757D02*
X0119001Y0063757D01*
X0119600Y0063159D02*
X0153085Y0063159D01*
X0152487Y0062560D02*
X0120198Y0062560D01*
X0120797Y0061962D02*
X0151888Y0061962D01*
X0151290Y0061363D02*
X0121395Y0061363D01*
X0121994Y0060765D02*
X0150691Y0060765D01*
X0150093Y0060166D02*
X0122592Y0060166D01*
X0123191Y0059568D02*
X0149494Y0059568D01*
X0148896Y0058969D02*
X0123789Y0058969D01*
X0124388Y0058370D02*
X0148297Y0058370D01*
X0147699Y0057772D02*
X0124986Y0057772D01*
X0125585Y0057173D02*
X0147100Y0057173D01*
X0146502Y0056575D02*
X0126183Y0056575D01*
X0126782Y0055976D02*
X0145903Y0055976D01*
X0145305Y0055378D02*
X0140269Y0055378D01*
X0140354Y0054779D02*
X0144706Y0054779D01*
X0144108Y0054181D02*
X0140354Y0054181D01*
X0140354Y0053582D02*
X0143509Y0053582D01*
X0142911Y0052984D02*
X0140354Y0052984D01*
X0130780Y0052984D02*
X0128018Y0052984D01*
X0128018Y0053582D02*
X0130780Y0053582D01*
X0130780Y0054181D02*
X0128018Y0054181D01*
X0127979Y0054779D02*
X0130780Y0054779D01*
X0130865Y0055378D02*
X0127380Y0055378D01*
X0124055Y0054779D02*
X0115207Y0054779D01*
X0114171Y0055378D02*
X0123456Y0055378D01*
X0122858Y0055976D02*
X0112246Y0055976D01*
X0111399Y0056575D02*
X0122259Y0056575D01*
X0121661Y0057173D02*
X0111998Y0057173D01*
X0112596Y0057772D02*
X0121062Y0057772D01*
X0120463Y0058370D02*
X0113195Y0058370D01*
X0113524Y0058969D02*
X0119865Y0058969D01*
X0119266Y0059568D02*
X0113524Y0059568D01*
X0113524Y0060166D02*
X0118668Y0060166D01*
X0118069Y0060765D02*
X0113524Y0060765D01*
X0113524Y0061363D02*
X0117471Y0061363D01*
X0116872Y0061962D02*
X0113524Y0061962D01*
X0113524Y0062560D02*
X0116274Y0062560D01*
X0115675Y0063159D02*
X0113524Y0063159D01*
X0113419Y0063757D02*
X0113037Y0063757D01*
X0112797Y0064356D02*
X0112439Y0064356D01*
X0117414Y0065553D02*
X0120912Y0065553D01*
X0120314Y0066151D02*
X0117414Y0066151D01*
X0117299Y0066750D02*
X0119715Y0066750D01*
X0121511Y0064954D02*
X0117804Y0064954D01*
X0118403Y0064356D02*
X0122109Y0064356D01*
X0121775Y0064690D02*
X0121775Y0064690D01*
X0121844Y0068545D02*
X0121973Y0068545D01*
X0101874Y0066750D02*
X0096879Y0066750D01*
X0097477Y0066151D02*
X0101276Y0066151D01*
X0101657Y0064571D02*
X0095414Y0064571D01*
X0084314Y0063757D02*
X0009408Y0063757D01*
X0009408Y0063159D02*
X0083715Y0063159D01*
X0083117Y0062560D02*
X0009408Y0062560D01*
X0009408Y0061962D02*
X0082928Y0061962D01*
X0082928Y0061363D02*
X0009408Y0061363D01*
X0009408Y0060765D02*
X0082928Y0060765D01*
X0082928Y0060166D02*
X0009408Y0060166D01*
X0009408Y0059568D02*
X0082928Y0059568D01*
X0082928Y0058969D02*
X0009408Y0058969D01*
X0009408Y0058370D02*
X0082928Y0058370D01*
X0082928Y0057772D02*
X0009408Y0057772D01*
X0009408Y0057173D02*
X0045880Y0057173D01*
X0045751Y0057120D02*
X0044943Y0056312D01*
X0044506Y0055257D01*
X0044506Y0054115D01*
X0044943Y0053059D01*
X0045751Y0052251D01*
X0046807Y0051814D01*
X0047949Y0051814D01*
X0049005Y0052251D01*
X0049812Y0053059D01*
X0050250Y0054115D01*
X0050250Y0055257D01*
X0049812Y0056312D01*
X0049005Y0057120D01*
X0047949Y0057557D01*
X0046807Y0057557D01*
X0045751Y0057120D01*
X0045206Y0056575D02*
X0009408Y0056575D01*
X0009408Y0055976D02*
X0044804Y0055976D01*
X0044556Y0055378D02*
X0009408Y0055378D01*
X0009408Y0054779D02*
X0044506Y0054779D01*
X0044506Y0054181D02*
X0009408Y0054181D01*
X0009408Y0053582D02*
X0044727Y0053582D01*
X0045019Y0052984D02*
X0009408Y0052984D01*
X0009408Y0052385D02*
X0045617Y0052385D01*
X0049139Y0052385D02*
X0052196Y0052385D01*
X0052196Y0052984D02*
X0049737Y0052984D01*
X0050029Y0053582D02*
X0052196Y0053582D01*
X0052422Y0054181D02*
X0050250Y0054181D01*
X0050250Y0054779D02*
X0072136Y0054779D01*
X0072136Y0055257D02*
X0072136Y0054115D01*
X0072573Y0053059D01*
X0073381Y0052251D01*
X0074437Y0051814D01*
X0075579Y0051814D01*
X0076635Y0052251D01*
X0077442Y0053059D01*
X0077880Y0054115D01*
X0077880Y0055257D01*
X0077442Y0056312D01*
X0076635Y0057120D01*
X0075579Y0057557D01*
X0074437Y0057557D01*
X0073381Y0057120D01*
X0072573Y0056312D01*
X0072136Y0055257D01*
X0072186Y0055378D02*
X0050200Y0055378D01*
X0049952Y0055976D02*
X0072434Y0055976D01*
X0072836Y0056575D02*
X0049550Y0056575D01*
X0048876Y0057173D02*
X0073510Y0057173D01*
X0076506Y0057173D02*
X0082928Y0057173D01*
X0082928Y0056575D02*
X0077180Y0056575D01*
X0077582Y0055976D02*
X0082928Y0055976D01*
X0082928Y0055378D02*
X0077829Y0055378D01*
X0077880Y0054779D02*
X0082928Y0054779D01*
X0080052Y0054181D02*
X0077880Y0054181D01*
X0077659Y0053582D02*
X0079826Y0053582D01*
X0079826Y0052984D02*
X0077367Y0052984D01*
X0077104Y0052385D02*
X0076769Y0052385D01*
X0076506Y0051787D02*
X0070190Y0051787D01*
X0070190Y0052385D02*
X0073247Y0052385D01*
X0072649Y0052984D02*
X0070190Y0052984D01*
X0070190Y0053582D02*
X0072357Y0053582D01*
X0072136Y0054181D02*
X0070121Y0054181D01*
X0062571Y0054181D02*
X0059657Y0054181D01*
X0059883Y0053582D02*
X0062503Y0053582D01*
X0062503Y0052984D02*
X0059883Y0052984D01*
X0059883Y0052385D02*
X0062503Y0052385D01*
X0062503Y0051787D02*
X0059883Y0051787D01*
X0056039Y0051143D02*
X0055873Y0050697D01*
X0051711Y0050697D01*
X0044080Y0043066D01*
X0046515Y0042211D02*
X0050514Y0042211D01*
X0050514Y0041612D02*
X0046267Y0041612D01*
X0045671Y0041014D02*
X0050514Y0041014D01*
X0050697Y0040415D02*
X0042560Y0040415D01*
X0042560Y0039817D02*
X0050945Y0039817D01*
X0051193Y0039218D02*
X0042560Y0039218D01*
X0042560Y0038620D02*
X0051762Y0038620D01*
X0052360Y0038021D02*
X0042094Y0038021D01*
X0040612Y0037423D02*
X0053595Y0037423D01*
X0056633Y0037423D02*
X0063529Y0037423D01*
X0062969Y0038021D02*
X0057868Y0038021D01*
X0058467Y0038620D02*
X0062503Y0038620D01*
X0062503Y0039218D02*
X0059035Y0039218D01*
X0059283Y0039817D02*
X0062503Y0039817D01*
X0062112Y0040415D02*
X0059531Y0040415D01*
X0059714Y0041014D02*
X0061513Y0041014D01*
X0060915Y0041612D02*
X0059714Y0041612D01*
X0059714Y0042211D02*
X0060316Y0042211D01*
X0059718Y0042809D02*
X0059664Y0042809D01*
X0060729Y0043760D02*
X0060729Y0045147D01*
X0060035Y0045841D01*
X0057459Y0045802D02*
X0057407Y0045802D01*
X0057478Y0046400D02*
X0049377Y0046400D01*
X0049975Y0046999D02*
X0057726Y0046999D01*
X0058148Y0047597D02*
X0050574Y0047597D01*
X0051172Y0048196D02*
X0052330Y0048196D01*
X0052196Y0048794D02*
X0051771Y0048794D01*
X0049043Y0049991D02*
X0009408Y0049991D01*
X0009408Y0049393D02*
X0048445Y0049393D01*
X0047846Y0048794D02*
X0009408Y0048794D01*
X0009408Y0048196D02*
X0047248Y0048196D01*
X0046649Y0047597D02*
X0009408Y0047597D01*
X0009408Y0046999D02*
X0046051Y0046999D01*
X0045452Y0046400D02*
X0009408Y0046400D01*
X0009408Y0045802D02*
X0025262Y0045802D01*
X0024949Y0045672D02*
X0023655Y0044378D01*
X0022955Y0042687D01*
X0022955Y0040857D01*
X0023655Y0039167D01*
X0024949Y0037873D01*
X0026640Y0037172D01*
X0028470Y0037172D01*
X0030161Y0037873D01*
X0031455Y0039167D01*
X0032155Y0040857D01*
X0032155Y0042687D01*
X0031455Y0044378D01*
X0030161Y0045672D01*
X0028470Y0046372D01*
X0026640Y0046372D01*
X0024949Y0045672D01*
X0024481Y0045203D02*
X0009408Y0045203D01*
X0009408Y0044605D02*
X0023882Y0044605D01*
X0023501Y0044006D02*
X0009408Y0044006D01*
X0009408Y0043408D02*
X0023253Y0043408D01*
X0023006Y0042809D02*
X0009408Y0042809D01*
X0009408Y0042211D02*
X0022955Y0042211D01*
X0022955Y0041612D02*
X0009408Y0041612D01*
X0009408Y0041014D02*
X0022955Y0041014D01*
X0023138Y0040415D02*
X0009408Y0040415D01*
X0009408Y0039817D02*
X0023386Y0039817D01*
X0023634Y0039218D02*
X0009408Y0039218D01*
X0009408Y0038620D02*
X0024203Y0038620D01*
X0024801Y0038021D02*
X0009408Y0038021D01*
X0009408Y0037423D02*
X0026036Y0037423D01*
X0029074Y0037423D02*
X0037837Y0037423D01*
X0037837Y0036824D02*
X0009408Y0036824D01*
X0009408Y0036226D02*
X0037837Y0036226D01*
X0037837Y0035627D02*
X0009408Y0035627D01*
X0009408Y0035029D02*
X0037837Y0035029D01*
X0037837Y0034430D02*
X0009408Y0034430D01*
X0009408Y0033832D02*
X0037837Y0033832D01*
X0037837Y0033233D02*
X0009408Y0033233D01*
X0009408Y0032634D02*
X0037837Y0032634D01*
X0037837Y0032036D02*
X0009408Y0032036D01*
X0009408Y0031437D02*
X0037837Y0031437D01*
X0037837Y0030839D02*
X0009408Y0030839D01*
X0009408Y0030240D02*
X0037837Y0030240D01*
X0037837Y0029642D02*
X0009408Y0029642D01*
X0009408Y0029043D02*
X0038105Y0029043D01*
X0038703Y0028445D02*
X0009408Y0028445D01*
X0009408Y0027846D02*
X0039302Y0027846D01*
X0039900Y0027248D02*
X0009408Y0027248D01*
X0009408Y0026649D02*
X0040499Y0026649D01*
X0041097Y0026051D02*
X0009408Y0026051D01*
X0009408Y0025452D02*
X0041696Y0025452D01*
X0042294Y0024854D02*
X0009408Y0024854D01*
X0009408Y0024255D02*
X0042893Y0024255D01*
X0043491Y0023657D02*
X0009408Y0023657D01*
X0009408Y0023058D02*
X0044090Y0023058D01*
X0044688Y0022460D02*
X0009408Y0022460D01*
X0009408Y0021861D02*
X0045287Y0021861D01*
X0045885Y0021263D02*
X0009408Y0021263D01*
X0009408Y0020664D02*
X0046484Y0020664D01*
X0047082Y0020066D02*
X0009408Y0020066D01*
X0009408Y0019467D02*
X0047681Y0019467D01*
X0048279Y0018869D02*
X0009408Y0018869D01*
X0009408Y0018270D02*
X0048878Y0018270D01*
X0049476Y0017672D02*
X0009408Y0017672D01*
X0043387Y0009769D02*
X0092639Y0009769D01*
X0094881Y0011088D02*
X0096697Y0011088D01*
X0108230Y0013482D02*
X0151370Y0013482D01*
X0151122Y0014081D02*
X0107632Y0014081D01*
X0110669Y0016475D02*
X0150453Y0016475D01*
X0149674Y0017073D02*
X0111268Y0017073D01*
X0123856Y0031273D02*
X0136343Y0018787D01*
X0136917Y0020174D02*
X0133449Y0023643D01*
X0148948Y0023643D01*
X0151228Y0021363D01*
X0151091Y0021363D01*
X0150145Y0020971D01*
X0149420Y0020246D01*
X0149390Y0020174D01*
X0136917Y0020174D01*
X0136427Y0020664D02*
X0149838Y0020664D01*
X0150850Y0021263D02*
X0135828Y0021263D01*
X0135230Y0021861D02*
X0150729Y0021861D01*
X0150131Y0022460D02*
X0134631Y0022460D01*
X0134033Y0023058D02*
X0149532Y0023058D01*
X0166373Y0026051D02*
X0181919Y0026051D01*
X0182517Y0025452D02*
X0166972Y0025452D01*
X0167571Y0024854D02*
X0183116Y0024854D01*
X0183714Y0024255D02*
X0168169Y0024255D01*
X0168524Y0023657D02*
X0184313Y0023657D01*
X0184406Y0023058D02*
X0168524Y0023058D01*
X0168524Y0022460D02*
X0184406Y0022460D01*
X0184644Y0021861D02*
X0168524Y0021861D01*
X0168524Y0021263D02*
X0185025Y0021263D01*
X0185766Y0020664D02*
X0168524Y0020664D01*
X0168524Y0020066D02*
X0188381Y0020066D01*
X0188200Y0020664D02*
X0188979Y0020664D01*
X0188940Y0021263D02*
X0189578Y0021263D01*
X0189321Y0021861D02*
X0190176Y0021861D01*
X0190775Y0022460D02*
X0189559Y0022460D01*
X0189559Y0023058D02*
X0191373Y0023058D01*
X0191972Y0023657D02*
X0189478Y0023657D01*
X0189230Y0024255D02*
X0192570Y0024255D01*
X0193169Y0024854D02*
X0188721Y0024854D01*
X0187671Y0025452D02*
X0193767Y0025452D01*
X0194366Y0026051D02*
X0185843Y0026051D01*
X0186417Y0026670D02*
X0194717Y0026670D01*
X0195354Y0027307D01*
X0195354Y0035608D01*
X0194717Y0036245D01*
X0186417Y0036245D01*
X0185780Y0035608D01*
X0185780Y0027307D01*
X0186417Y0026670D01*
X0185839Y0027248D02*
X0184646Y0027248D01*
X0185244Y0026649D02*
X0194964Y0026649D01*
X0195295Y0027248D02*
X0195563Y0027248D01*
X0195354Y0027846D02*
X0196001Y0027846D01*
X0196001Y0028445D02*
X0195354Y0028445D01*
X0195354Y0029043D02*
X0196001Y0029043D01*
X0196001Y0029642D02*
X0195354Y0029642D01*
X0195354Y0030240D02*
X0196001Y0030240D01*
X0196001Y0030839D02*
X0195354Y0030839D01*
X0195354Y0031437D02*
X0196001Y0031437D01*
X0196001Y0032036D02*
X0195354Y0032036D01*
X0195354Y0032634D02*
X0196001Y0032634D01*
X0196001Y0033233D02*
X0195354Y0033233D01*
X0195354Y0033832D02*
X0196001Y0033832D01*
X0196001Y0034430D02*
X0195354Y0034430D01*
X0195354Y0035029D02*
X0196001Y0035029D01*
X0196001Y0035627D02*
X0195335Y0035627D01*
X0194737Y0036226D02*
X0196001Y0036226D01*
X0196001Y0036824D02*
X0195029Y0036824D01*
X0194717Y0036513D02*
X0195354Y0037150D01*
X0195354Y0045450D01*
X0194717Y0046087D01*
X0186417Y0046087D01*
X0185780Y0045450D01*
X0185780Y0037150D01*
X0186417Y0036513D01*
X0194717Y0036513D01*
X0195354Y0037423D02*
X0196026Y0037423D01*
X0196624Y0038021D02*
X0195354Y0038021D01*
X0195354Y0038620D02*
X0197223Y0038620D01*
X0197821Y0039218D02*
X0195354Y0039218D01*
X0195354Y0039817D02*
X0198420Y0039817D01*
X0199018Y0040415D02*
X0195354Y0040415D01*
X0195354Y0041014D02*
X0199617Y0041014D01*
X0199668Y0041612D02*
X0195354Y0041612D01*
X0195354Y0042211D02*
X0199676Y0042211D01*
X0199924Y0042809D02*
X0195354Y0042809D01*
X0195354Y0043408D02*
X0200330Y0043408D01*
X0201131Y0044006D02*
X0195354Y0044006D01*
X0195354Y0044605D02*
X0203468Y0044605D01*
X0203468Y0045203D02*
X0195354Y0045203D01*
X0195003Y0045802D02*
X0203468Y0045802D01*
X0203468Y0046400D02*
X0194762Y0046400D01*
X0195354Y0046999D02*
X0203468Y0046999D01*
X0203468Y0047597D02*
X0195354Y0047597D01*
X0195354Y0048196D02*
X0203468Y0048196D01*
X0203468Y0048794D02*
X0195354Y0048794D01*
X0195354Y0049393D02*
X0203468Y0049393D01*
X0203468Y0049991D02*
X0195354Y0049991D01*
X0195354Y0050590D02*
X0203468Y0050590D01*
X0203851Y0051188D02*
X0195354Y0051188D01*
X0195354Y0051787D02*
X0211679Y0051787D01*
X0211165Y0051188D02*
X0212277Y0051188D01*
X0212876Y0050590D02*
X0211548Y0050590D01*
X0211548Y0049991D02*
X0211769Y0049991D01*
X0213343Y0047922D02*
X0214731Y0047922D01*
X0218893Y0043760D01*
X0218893Y0036823D01*
X0216118Y0034048D01*
X0218569Y0033233D02*
X0230232Y0033233D01*
X0229634Y0033832D02*
X0218694Y0033832D01*
X0218694Y0033536D02*
X0218694Y0034561D01*
X0218665Y0034633D01*
X0220280Y0036248D01*
X0220280Y0043185D01*
X0241210Y0022255D01*
X0194494Y0022255D01*
X0198776Y0026536D01*
X0198776Y0036248D01*
X0201660Y0039132D01*
X0201732Y0039102D01*
X0202757Y0039102D01*
X0203608Y0039455D01*
X0202244Y0038091D01*
X0202244Y0037565D01*
X0200758Y0037565D01*
X0200121Y0036928D01*
X0200121Y0031302D01*
X0200758Y0030665D01*
X0202277Y0030665D01*
X0202363Y0030580D01*
X0202363Y0030580D01*
X0205138Y0027805D01*
X0205217Y0027805D01*
X0205217Y0027292D01*
X0205610Y0026345D01*
X0206334Y0025621D01*
X0207281Y0025228D01*
X0208306Y0025228D01*
X0209253Y0025621D01*
X0209978Y0026345D01*
X0210370Y0027292D01*
X0210370Y0028317D01*
X0209978Y0029264D01*
X0209253Y0029989D01*
X0208306Y0030381D01*
X0207281Y0030381D01*
X0207209Y0030351D01*
X0206981Y0030580D01*
X0206287Y0030580D01*
X0206201Y0030665D01*
X0206383Y0030665D01*
X0207020Y0031302D01*
X0207020Y0036928D01*
X0206383Y0037565D01*
X0205642Y0037565D01*
X0206287Y0038210D01*
X0213542Y0038210D01*
X0213542Y0037698D01*
X0213597Y0037565D01*
X0208632Y0037565D01*
X0207995Y0036928D01*
X0207995Y0031302D01*
X0208632Y0030665D01*
X0214257Y0030665D01*
X0214894Y0031302D01*
X0214894Y0031766D01*
X0215606Y0031472D01*
X0216631Y0031472D01*
X0217578Y0031864D01*
X0218302Y0032589D01*
X0218694Y0033536D01*
X0218694Y0034430D02*
X0229035Y0034430D01*
X0228437Y0035029D02*
X0219061Y0035029D01*
X0219659Y0035627D02*
X0227838Y0035627D01*
X0227240Y0036226D02*
X0220258Y0036226D01*
X0220280Y0036824D02*
X0226641Y0036824D01*
X0226043Y0037423D02*
X0220280Y0037423D01*
X0220280Y0038021D02*
X0225444Y0038021D01*
X0224846Y0038620D02*
X0220280Y0038620D01*
X0220280Y0039218D02*
X0224247Y0039218D01*
X0223649Y0039817D02*
X0220280Y0039817D01*
X0220280Y0040415D02*
X0223050Y0040415D01*
X0222452Y0041014D02*
X0220280Y0041014D01*
X0220280Y0041612D02*
X0221853Y0041612D01*
X0221255Y0042211D02*
X0220280Y0042211D01*
X0220280Y0042809D02*
X0220656Y0042809D01*
X0216118Y0042372D02*
X0213343Y0045147D01*
X0211956Y0045147D01*
X0210569Y0046535D01*
X0207794Y0046535D01*
X0207508Y0047206D01*
X0214740Y0045712D02*
X0215534Y0044919D01*
X0215606Y0044949D01*
X0215742Y0044949D01*
X0214878Y0045813D01*
X0214803Y0045738D01*
X0214740Y0045712D01*
X0214867Y0045802D02*
X0214889Y0045802D01*
X0215249Y0045203D02*
X0215487Y0045203D01*
X0213572Y0042957D02*
X0213542Y0042885D01*
X0213542Y0041860D01*
X0213904Y0040985D01*
X0205138Y0040985D01*
X0204468Y0040315D01*
X0204820Y0041166D01*
X0204820Y0042191D01*
X0204498Y0042969D01*
X0210911Y0042969D01*
X0211548Y0043605D01*
X0211548Y0043760D01*
X0212769Y0043760D01*
X0213572Y0042957D01*
X0213542Y0042809D02*
X0204564Y0042809D01*
X0204812Y0042211D02*
X0213542Y0042211D01*
X0213644Y0041612D02*
X0204820Y0041612D01*
X0204757Y0041014D02*
X0213892Y0041014D01*
X0214731Y0039598D02*
X0205713Y0039598D01*
X0203631Y0037517D01*
X0203631Y0034742D01*
X0203571Y0034115D01*
X0202938Y0034048D01*
X0202938Y0031967D01*
X0205713Y0029192D01*
X0206406Y0029192D01*
X0207794Y0027805D01*
X0210370Y0027846D02*
X0235619Y0027846D01*
X0236218Y0027248D02*
X0210352Y0027248D01*
X0210104Y0026649D02*
X0236816Y0026649D01*
X0237415Y0026051D02*
X0209683Y0026051D01*
X0208847Y0025452D02*
X0238013Y0025452D01*
X0238612Y0024854D02*
X0197093Y0024854D01*
X0197692Y0025452D02*
X0206740Y0025452D01*
X0205904Y0026051D02*
X0198290Y0026051D01*
X0198776Y0026649D02*
X0205484Y0026649D01*
X0205236Y0027248D02*
X0198776Y0027248D01*
X0198776Y0027846D02*
X0205096Y0027846D01*
X0204498Y0028445D02*
X0198776Y0028445D01*
X0198776Y0029043D02*
X0203899Y0029043D01*
X0203301Y0029642D02*
X0198776Y0029642D01*
X0198776Y0030240D02*
X0202702Y0030240D01*
X0200585Y0030839D02*
X0198776Y0030839D01*
X0198776Y0031437D02*
X0200121Y0031437D01*
X0200121Y0032036D02*
X0198776Y0032036D01*
X0198776Y0032634D02*
X0200121Y0032634D01*
X0200121Y0033233D02*
X0198776Y0033233D01*
X0198776Y0033832D02*
X0200121Y0033832D01*
X0200121Y0034430D02*
X0198776Y0034430D01*
X0198776Y0035029D02*
X0200121Y0035029D01*
X0200121Y0035627D02*
X0198776Y0035627D01*
X0198776Y0036226D02*
X0200121Y0036226D01*
X0200121Y0036824D02*
X0199352Y0036824D01*
X0199950Y0037423D02*
X0200616Y0037423D01*
X0200549Y0038021D02*
X0202244Y0038021D01*
X0202773Y0038620D02*
X0201147Y0038620D01*
X0203036Y0039218D02*
X0203371Y0039218D01*
X0204509Y0040415D02*
X0204568Y0040415D01*
X0202244Y0041679D02*
X0197388Y0036823D01*
X0197388Y0027111D01*
X0186289Y0016012D01*
X0185987Y0017672D02*
X0166866Y0017672D01*
X0167465Y0018270D02*
X0186585Y0018270D01*
X0187184Y0018869D02*
X0168063Y0018869D01*
X0168524Y0019467D02*
X0187782Y0019467D01*
X0193226Y0020868D02*
X0247335Y0020868D01*
X0267452Y0040985D01*
X0295200Y0040985D01*
X0297776Y0041014D02*
X0304366Y0041014D01*
X0304399Y0041183D02*
X0304536Y0041183D01*
X0302950Y0039598D01*
X0297414Y0039598D01*
X0297776Y0040473D01*
X0297776Y0041498D01*
X0297414Y0042372D01*
X0302698Y0042372D01*
X0302728Y0042300D01*
X0303452Y0041576D01*
X0304399Y0041183D01*
X0303767Y0040415D02*
X0297753Y0040415D01*
X0297505Y0039817D02*
X0303169Y0039817D01*
X0307093Y0039817D02*
X0309966Y0039817D01*
X0310092Y0040415D02*
X0307691Y0040415D01*
X0308290Y0041014D02*
X0310340Y0041014D01*
X0310913Y0041612D02*
X0308888Y0041612D01*
X0304912Y0043760D02*
X0269533Y0043760D01*
X0269533Y0051391D01*
X0267076Y0050590D02*
X0266532Y0050590D01*
X0265934Y0049991D02*
X0267324Y0049991D01*
X0267887Y0049393D02*
X0265335Y0049393D01*
X0268146Y0048794D02*
X0256936Y0048794D01*
X0257641Y0048196D02*
X0268146Y0048196D01*
X0264677Y0050697D02*
X0253578Y0050697D01*
X0248028Y0056246D01*
X0248008Y0055600D01*
X0243910Y0052984D02*
X0243866Y0052984D01*
X0244140Y0052385D02*
X0244452Y0052385D01*
X0244738Y0051787D02*
X0245051Y0051787D01*
X0245337Y0051188D02*
X0246148Y0051188D01*
X0245935Y0050590D02*
X0251723Y0050590D01*
X0251124Y0051188D02*
X0249867Y0051188D01*
X0252321Y0049991D02*
X0246534Y0049991D01*
X0247132Y0049393D02*
X0252920Y0049393D01*
X0253677Y0048196D02*
X0248329Y0048196D01*
X0247731Y0048794D02*
X0254382Y0048794D01*
X0264677Y0050697D02*
X0273002Y0059021D01*
X0285488Y0059021D01*
X0285508Y0058800D01*
X0281649Y0057173D02*
X0273116Y0057173D01*
X0272517Y0056575D02*
X0281649Y0056575D01*
X0281649Y0055976D02*
X0271919Y0055976D01*
X0271320Y0055378D02*
X0281849Y0055378D01*
X0261531Y0060166D02*
X0256685Y0060166D01*
X0257283Y0060765D02*
X0260733Y0060765D01*
X0259884Y0061363D02*
X0257882Y0061363D01*
X0258434Y0061962D02*
X0259286Y0061962D01*
X0258995Y0062560D02*
X0258434Y0062560D01*
X0258434Y0063159D02*
X0258747Y0063159D01*
X0258620Y0063757D02*
X0258434Y0063757D01*
X0258434Y0064356D02*
X0258620Y0064356D01*
X0258620Y0064954D02*
X0258434Y0064954D01*
X0258434Y0065553D02*
X0258845Y0065553D01*
X0259093Y0066151D02*
X0258434Y0066151D01*
X0258434Y0066750D02*
X0259523Y0066750D01*
X0260121Y0067348D02*
X0258434Y0067348D01*
X0258434Y0067947D02*
X0259045Y0067947D01*
X0258447Y0068545D02*
X0258434Y0068545D01*
X0255659Y0068545D02*
X0255659Y0068545D01*
X0255659Y0067947D02*
X0255659Y0067947D01*
X0255659Y0067348D02*
X0255659Y0067348D01*
X0255659Y0066750D02*
X0255659Y0066750D01*
X0255659Y0066151D02*
X0255659Y0066151D01*
X0252884Y0066151D02*
X0252795Y0066151D01*
X0252812Y0066061D02*
X0252884Y0066091D01*
X0252884Y0069546D01*
X0250228Y0072202D01*
X0245135Y0072202D01*
X0241468Y0068535D01*
X0241604Y0068535D01*
X0242551Y0068142D01*
X0243220Y0067473D01*
X0243220Y0067952D01*
X0243949Y0069712D01*
X0245296Y0071059D01*
X0247056Y0071787D01*
X0248960Y0071787D01*
X0250720Y0071059D01*
X0252066Y0069712D01*
X0252795Y0067952D01*
X0252795Y0066048D01*
X0252793Y0066042D01*
X0252812Y0066061D01*
X0252795Y0066750D02*
X0252884Y0066750D01*
X0252884Y0067348D02*
X0252795Y0067348D01*
X0252795Y0067947D02*
X0252884Y0067947D01*
X0252884Y0068545D02*
X0252550Y0068545D01*
X0252302Y0069144D02*
X0252884Y0069144D01*
X0252688Y0069742D02*
X0252036Y0069742D01*
X0252089Y0070341D02*
X0251438Y0070341D01*
X0251491Y0070939D02*
X0250839Y0070939D01*
X0250892Y0071538D02*
X0249563Y0071538D01*
X0250294Y0072136D02*
X0245069Y0072136D01*
X0244471Y0071538D02*
X0246453Y0071538D01*
X0245177Y0070939D02*
X0243872Y0070939D01*
X0243274Y0070341D02*
X0244578Y0070341D01*
X0243980Y0069742D02*
X0242675Y0069742D01*
X0242077Y0069144D02*
X0243714Y0069144D01*
X0243466Y0068545D02*
X0241478Y0068545D01*
X0242746Y0067947D02*
X0243220Y0067947D01*
X0247335Y0066652D02*
X0248008Y0067000D01*
X0247335Y0066652D02*
X0252884Y0061102D01*
X0255659Y0061102D01*
X0257046Y0062490D01*
X0257046Y0070814D01*
X0260515Y0074283D01*
X0289650Y0074283D01*
X0291038Y0072895D01*
X0291038Y0070814D01*
X0329885Y0031967D01*
X0334047Y0031967D01*
X0334146Y0031457D01*
X0337990Y0031437D02*
X0350696Y0031437D01*
X0350696Y0032036D02*
X0337990Y0032036D01*
X0337990Y0032634D02*
X0350696Y0032634D01*
X0350696Y0033233D02*
X0337990Y0033233D01*
X0337990Y0033832D02*
X0350696Y0033832D01*
X0350696Y0034430D02*
X0337830Y0034430D01*
X0330463Y0034430D02*
X0329384Y0034430D01*
X0329983Y0033832D02*
X0330303Y0033832D01*
X0328785Y0035029D02*
X0350696Y0035029D01*
X0350696Y0035627D02*
X0328187Y0035627D01*
X0337990Y0030839D02*
X0350381Y0030839D01*
X0349782Y0030240D02*
X0344543Y0030240D01*
X0345141Y0029642D02*
X0349184Y0029642D01*
X0348585Y0029043D02*
X0345448Y0029043D01*
X0345680Y0028445D02*
X0347987Y0028445D01*
X0347388Y0027846D02*
X0345680Y0027846D01*
X0345640Y0027248D02*
X0346790Y0027248D01*
X0346191Y0026649D02*
X0345392Y0026649D01*
X0345593Y0026051D02*
X0345006Y0026051D01*
X0344994Y0025452D02*
X0344369Y0025452D01*
X0344396Y0024854D02*
X0339654Y0024854D01*
X0339055Y0025452D02*
X0341247Y0025452D01*
X0340610Y0026051D02*
X0338457Y0026051D01*
X0337858Y0026649D02*
X0340223Y0026649D01*
X0339936Y0028445D02*
X0337790Y0028445D01*
X0337990Y0029043D02*
X0340167Y0029043D01*
X0340475Y0029642D02*
X0337990Y0029642D01*
X0337990Y0030240D02*
X0341073Y0030240D01*
X0338124Y0022460D02*
X0338011Y0022460D01*
X0337773Y0021861D02*
X0338722Y0021861D01*
X0336652Y0020664D02*
X0380608Y0020664D01*
X0380608Y0020066D02*
X0376323Y0020066D01*
X0376230Y0020159D02*
X0369786Y0020159D01*
X0369149Y0019522D01*
X0369149Y0013078D01*
X0369786Y0012441D01*
X0376230Y0012441D01*
X0376867Y0013078D01*
X0376867Y0019522D01*
X0376230Y0020159D01*
X0376867Y0019467D02*
X0380608Y0019467D01*
X0380608Y0018869D02*
X0376867Y0018869D01*
X0376867Y0018270D02*
X0380608Y0018270D01*
X0380608Y0017672D02*
X0376867Y0017672D01*
X0376867Y0017073D02*
X0380608Y0017073D01*
X0380608Y0016475D02*
X0376867Y0016475D01*
X0376867Y0015876D02*
X0380608Y0015876D01*
X0380608Y0015278D02*
X0376867Y0015278D01*
X0376867Y0014679D02*
X0380608Y0014679D01*
X0380608Y0014081D02*
X0376867Y0014081D01*
X0376867Y0013482D02*
X0380608Y0013482D01*
X0380608Y0012884D02*
X0376673Y0012884D01*
X0377415Y0011687D02*
X0353189Y0011687D01*
X0353787Y0012285D02*
X0380608Y0012285D01*
X0376816Y0011088D02*
X0352590Y0011088D01*
X0351992Y0010490D02*
X0376608Y0010490D01*
X0376608Y0009891D02*
X0351393Y0009891D01*
X0350795Y0009293D02*
X0376608Y0009293D01*
X0376608Y0008694D02*
X0350196Y0008694D01*
X0349265Y0011687D02*
X0322666Y0011687D01*
X0323265Y0012285D02*
X0349863Y0012285D01*
X0349806Y0012884D02*
X0350462Y0012884D01*
X0350405Y0013482D02*
X0351060Y0013482D01*
X0351003Y0014081D02*
X0351659Y0014081D01*
X0351602Y0014679D02*
X0352257Y0014679D01*
X0351695Y0015278D02*
X0352856Y0015278D01*
X0353454Y0015876D02*
X0351695Y0015876D01*
X0351695Y0016475D02*
X0353669Y0016475D01*
X0353669Y0017073D02*
X0351695Y0017073D01*
X0351695Y0017672D02*
X0353857Y0017672D01*
X0354167Y0018270D02*
X0351252Y0018270D01*
X0350654Y0018869D02*
X0354765Y0018869D01*
X0358822Y0017073D02*
X0369149Y0017073D01*
X0369149Y0016475D02*
X0358822Y0016475D01*
X0358691Y0015876D02*
X0369149Y0015876D01*
X0369149Y0015278D02*
X0358443Y0015278D01*
X0357863Y0014679D02*
X0369149Y0014679D01*
X0369149Y0014081D02*
X0355583Y0014081D01*
X0354984Y0013482D02*
X0369149Y0013482D01*
X0369343Y0012884D02*
X0354386Y0012884D01*
X0346209Y0012884D02*
X0339806Y0012884D01*
X0340405Y0013482D02*
X0345611Y0013482D01*
X0345012Y0014081D02*
X0341003Y0014081D01*
X0341602Y0014679D02*
X0344414Y0014679D01*
X0344320Y0015278D02*
X0341695Y0015278D01*
X0341695Y0015876D02*
X0344320Y0015876D01*
X0344320Y0016475D02*
X0341695Y0016475D01*
X0341695Y0017073D02*
X0344320Y0017073D01*
X0344320Y0017672D02*
X0341695Y0017672D01*
X0341252Y0018270D02*
X0344763Y0018270D01*
X0345362Y0018869D02*
X0340654Y0018869D01*
X0335960Y0019467D02*
X0330447Y0019467D01*
X0331045Y0020066D02*
X0369693Y0020066D01*
X0335435Y0022949D02*
X0331966Y0022949D01*
X0320173Y0011156D01*
X0216812Y0011156D01*
X0212650Y0015318D01*
X0195298Y0023058D02*
X0240407Y0023058D01*
X0241006Y0022460D02*
X0194699Y0022460D01*
X0195896Y0023657D02*
X0239809Y0023657D01*
X0239210Y0024255D02*
X0196495Y0024255D01*
X0186983Y0022949D02*
X0180046Y0029886D01*
X0180046Y0052084D01*
X0177630Y0052984D02*
X0172924Y0052984D01*
X0173522Y0052385D02*
X0177469Y0052385D01*
X0177469Y0051787D02*
X0174121Y0051787D01*
X0174719Y0051188D02*
X0177628Y0051188D01*
X0177897Y0050590D02*
X0175280Y0050590D01*
X0175626Y0049991D02*
X0178495Y0049991D01*
X0178658Y0049393D02*
X0175971Y0049393D01*
X0176317Y0048794D02*
X0178658Y0048794D01*
X0178658Y0048196D02*
X0176663Y0048196D01*
X0177008Y0047597D02*
X0178658Y0047597D01*
X0178658Y0046999D02*
X0177293Y0046999D01*
X0177453Y0046400D02*
X0178658Y0046400D01*
X0178658Y0045802D02*
X0177614Y0045802D01*
X0177774Y0045203D02*
X0178658Y0045203D01*
X0178658Y0044605D02*
X0177934Y0044605D01*
X0178095Y0044006D02*
X0178658Y0044006D01*
X0178658Y0043408D02*
X0178255Y0043408D01*
X0178281Y0042809D02*
X0178658Y0042809D01*
X0178658Y0042211D02*
X0178281Y0042211D01*
X0178281Y0041612D02*
X0178658Y0041612D01*
X0178658Y0041014D02*
X0178281Y0041014D01*
X0178281Y0040415D02*
X0178658Y0040415D01*
X0178658Y0039817D02*
X0178281Y0039817D01*
X0178262Y0039218D02*
X0178658Y0039218D01*
X0178658Y0038620D02*
X0178102Y0038620D01*
X0177941Y0038021D02*
X0178658Y0038021D01*
X0178658Y0037423D02*
X0177781Y0037423D01*
X0177621Y0036824D02*
X0178658Y0036824D01*
X0178658Y0036226D02*
X0177460Y0036226D01*
X0177300Y0035627D02*
X0178658Y0035627D01*
X0178658Y0035029D02*
X0177023Y0035029D01*
X0176677Y0034430D02*
X0178658Y0034430D01*
X0178658Y0033832D02*
X0176332Y0033832D01*
X0175986Y0033233D02*
X0178658Y0033233D01*
X0178658Y0032634D02*
X0175641Y0032634D01*
X0175295Y0032036D02*
X0178658Y0032036D01*
X0178658Y0031437D02*
X0174745Y0031437D01*
X0174146Y0030839D02*
X0178658Y0030839D01*
X0178658Y0030240D02*
X0173548Y0030240D01*
X0172949Y0029642D02*
X0178658Y0029642D01*
X0178926Y0029043D02*
X0172325Y0029043D01*
X0171289Y0028445D02*
X0179524Y0028445D01*
X0180123Y0027846D02*
X0170252Y0027846D01*
X0169215Y0027248D02*
X0180722Y0027248D01*
X0181320Y0026649D02*
X0167342Y0026649D01*
X0158673Y0026649D02*
X0133217Y0026649D01*
X0140295Y0027248D02*
X0156800Y0027248D01*
X0181433Y0030839D02*
X0185780Y0030839D01*
X0185780Y0031437D02*
X0181433Y0031437D01*
X0181433Y0032036D02*
X0185780Y0032036D01*
X0185780Y0032634D02*
X0181433Y0032634D01*
X0181433Y0033233D02*
X0185780Y0033233D01*
X0185780Y0033832D02*
X0181433Y0033832D01*
X0181433Y0034430D02*
X0185780Y0034430D01*
X0185780Y0035029D02*
X0181433Y0035029D01*
X0181433Y0035627D02*
X0185799Y0035627D01*
X0186397Y0036226D02*
X0181433Y0036226D01*
X0181433Y0036824D02*
X0186105Y0036824D01*
X0185780Y0037423D02*
X0181433Y0037423D01*
X0181433Y0038021D02*
X0185780Y0038021D01*
X0185780Y0038620D02*
X0181433Y0038620D01*
X0181433Y0039218D02*
X0185780Y0039218D01*
X0185780Y0039817D02*
X0181433Y0039817D01*
X0181433Y0040415D02*
X0185780Y0040415D01*
X0185780Y0041014D02*
X0181433Y0041014D01*
X0181433Y0041612D02*
X0185780Y0041612D01*
X0185780Y0042211D02*
X0181433Y0042211D01*
X0181433Y0042809D02*
X0185780Y0042809D01*
X0185780Y0043408D02*
X0181433Y0043408D01*
X0181433Y0044006D02*
X0185780Y0044006D01*
X0185780Y0044605D02*
X0181433Y0044605D01*
X0181433Y0045203D02*
X0185780Y0045203D01*
X0186131Y0045802D02*
X0181433Y0045802D01*
X0181433Y0046400D02*
X0186371Y0046400D01*
X0185780Y0046999D02*
X0181433Y0046999D01*
X0181433Y0047597D02*
X0185780Y0047597D01*
X0185780Y0048196D02*
X0181433Y0048196D01*
X0181433Y0048794D02*
X0185780Y0048794D01*
X0185780Y0049393D02*
X0181433Y0049393D01*
X0181596Y0049991D02*
X0185780Y0049991D01*
X0185780Y0050590D02*
X0182195Y0050590D01*
X0182463Y0051188D02*
X0185780Y0051188D01*
X0185780Y0051787D02*
X0182622Y0051787D01*
X0177900Y0053582D02*
X0172281Y0053582D01*
X0171244Y0054181D02*
X0178499Y0054181D01*
X0179551Y0054779D02*
X0170207Y0054779D01*
X0169171Y0055378D02*
X0178952Y0055378D01*
X0178354Y0055976D02*
X0167246Y0055976D01*
X0166399Y0056575D02*
X0177755Y0056575D01*
X0177157Y0057173D02*
X0166998Y0057173D01*
X0167596Y0057772D02*
X0176558Y0057772D01*
X0175960Y0058370D02*
X0168195Y0058370D01*
X0168524Y0058969D02*
X0175361Y0058969D01*
X0174763Y0059568D02*
X0168524Y0059568D01*
X0168524Y0060166D02*
X0174164Y0060166D01*
X0173566Y0060765D02*
X0168524Y0060765D01*
X0168524Y0061363D02*
X0172967Y0061363D01*
X0172368Y0061962D02*
X0168524Y0061962D01*
X0168524Y0062560D02*
X0171770Y0062560D01*
X0171171Y0063159D02*
X0168524Y0063159D01*
X0168037Y0063757D02*
X0170573Y0063757D01*
X0169974Y0064356D02*
X0167439Y0064356D01*
X0166840Y0064954D02*
X0169376Y0064954D01*
X0168777Y0065553D02*
X0166242Y0065553D01*
X0165643Y0066151D02*
X0168179Y0066151D01*
X0157874Y0067947D02*
X0144144Y0067947D01*
X0178374Y0061962D02*
X0179431Y0061962D01*
X0183316Y0060166D02*
X0190813Y0060166D01*
X0191411Y0059568D02*
X0183316Y0059568D01*
X0183219Y0058969D02*
X0192010Y0058969D01*
X0192608Y0058370D02*
X0182971Y0058370D01*
X0182440Y0057772D02*
X0193207Y0057772D01*
X0193805Y0057173D02*
X0181336Y0057173D01*
X0181679Y0056575D02*
X0194404Y0056575D01*
X0195269Y0055378D02*
X0201652Y0055378D01*
X0200952Y0055976D02*
X0182278Y0055976D01*
X0182876Y0055378D02*
X0185865Y0055378D01*
X0195882Y0059021D02*
X0195882Y0059021D01*
X0200724Y0059021D01*
X0200724Y0059021D01*
X0195882Y0059021D01*
X0195023Y0061962D02*
X0218541Y0061962D01*
X0218398Y0061363D02*
X0215045Y0061363D01*
X0215643Y0060765D02*
X0218398Y0060765D01*
X0218573Y0060166D02*
X0216242Y0060166D01*
X0216840Y0059568D02*
X0218865Y0059568D01*
X0219464Y0058969D02*
X0217439Y0058969D01*
X0218037Y0058370D02*
X0221744Y0058370D01*
X0222342Y0057772D02*
X0218636Y0057772D01*
X0219234Y0057173D02*
X0222941Y0057173D01*
X0223539Y0056575D02*
X0219833Y0056575D01*
X0220431Y0055976D02*
X0224138Y0055976D01*
X0224736Y0055378D02*
X0221030Y0055378D01*
X0221628Y0054779D02*
X0225136Y0054779D01*
X0225136Y0054181D02*
X0222227Y0054181D01*
X0222825Y0053582D02*
X0225136Y0053582D01*
X0225136Y0052984D02*
X0224960Y0052984D01*
X0226524Y0051391D02*
X0226524Y0055553D01*
X0220974Y0061102D01*
X0223550Y0061363D02*
X0226903Y0061363D01*
X0226524Y0060765D02*
X0223550Y0060765D01*
X0223872Y0060166D02*
X0226524Y0060166D01*
X0226524Y0059568D02*
X0224471Y0059568D01*
X0225069Y0058969D02*
X0226524Y0058969D01*
X0226524Y0058370D02*
X0225668Y0058370D01*
X0226266Y0057772D02*
X0226524Y0057772D01*
X0229298Y0056575D02*
X0229859Y0056575D01*
X0230686Y0059021D02*
X0238317Y0066652D01*
X0238317Y0067346D01*
X0244560Y0073589D01*
X0250803Y0073589D01*
X0254272Y0070120D01*
X0254272Y0063877D01*
X0250063Y0061962D02*
X0245957Y0061962D01*
X0246217Y0062560D02*
X0245358Y0062560D01*
X0245079Y0063159D02*
X0242479Y0063159D01*
X0242510Y0063757D02*
X0244480Y0063757D01*
X0243921Y0064356D02*
X0243132Y0064356D01*
X0243464Y0064954D02*
X0243673Y0064954D01*
X0236452Y0066750D02*
X0230686Y0066750D01*
X0230686Y0067348D02*
X0236929Y0067348D01*
X0236955Y0067947D02*
X0230686Y0067947D01*
X0230686Y0068545D02*
X0237554Y0068545D01*
X0238152Y0069144D02*
X0230686Y0069144D01*
X0230686Y0069742D02*
X0238751Y0069742D01*
X0239349Y0070341D02*
X0230686Y0070341D01*
X0230686Y0070939D02*
X0239948Y0070939D01*
X0240547Y0071538D02*
X0230686Y0071538D01*
X0230686Y0072136D02*
X0241145Y0072136D01*
X0241744Y0072735D02*
X0230686Y0072735D01*
X0230686Y0073333D02*
X0242342Y0073333D01*
X0242941Y0073932D02*
X0230224Y0073932D01*
X0229625Y0074530D02*
X0243539Y0074530D01*
X0251824Y0074530D02*
X0258800Y0074530D01*
X0258202Y0073932D02*
X0252422Y0073932D01*
X0253021Y0073333D02*
X0257603Y0073333D01*
X0257005Y0072735D02*
X0253619Y0072735D01*
X0254218Y0072136D02*
X0256406Y0072136D01*
X0255808Y0071538D02*
X0254816Y0071538D01*
X0255415Y0070939D02*
X0255659Y0070939D01*
X0255659Y0070341D02*
X0255659Y0070341D01*
X0255659Y0069742D02*
X0255659Y0069742D01*
X0255659Y0069144D02*
X0255659Y0069144D01*
X0262717Y0071538D02*
X0281649Y0071538D01*
X0281763Y0072136D02*
X0262143Y0072136D01*
X0260929Y0072735D02*
X0289236Y0072735D01*
X0289253Y0072136D02*
X0289650Y0072136D01*
X0289650Y0071538D02*
X0289367Y0071538D01*
X0289367Y0070939D02*
X0289650Y0070939D01*
X0289650Y0070341D02*
X0289367Y0070341D01*
X0289367Y0069742D02*
X0290148Y0069742D01*
X0289814Y0069144D02*
X0290746Y0069144D01*
X0290413Y0068545D02*
X0291345Y0068545D01*
X0291011Y0067947D02*
X0291943Y0067947D01*
X0291610Y0067348D02*
X0292542Y0067348D01*
X0292208Y0066750D02*
X0293140Y0066750D01*
X0292807Y0066151D02*
X0293739Y0066151D01*
X0293406Y0065553D02*
X0294337Y0065553D01*
X0294004Y0064954D02*
X0294936Y0064954D01*
X0294603Y0064356D02*
X0295534Y0064356D01*
X0295201Y0063757D02*
X0296133Y0063757D01*
X0298860Y0064954D02*
X0369773Y0064954D01*
X0369786Y0064941D02*
X0376230Y0064941D01*
X0376867Y0065578D01*
X0376867Y0072022D01*
X0376230Y0072659D01*
X0369786Y0072659D01*
X0369149Y0072022D01*
X0369149Y0065578D01*
X0369786Y0064941D01*
X0369174Y0065553D02*
X0298261Y0065553D01*
X0297663Y0066151D02*
X0369149Y0066151D01*
X0369149Y0066750D02*
X0297064Y0066750D01*
X0296466Y0067348D02*
X0369149Y0067348D01*
X0369149Y0067947D02*
X0295867Y0067947D01*
X0295269Y0068545D02*
X0369149Y0068545D01*
X0369149Y0069144D02*
X0294670Y0069144D01*
X0294072Y0069742D02*
X0369149Y0069742D01*
X0369149Y0070341D02*
X0293473Y0070341D01*
X0292875Y0070939D02*
X0369149Y0070939D01*
X0369149Y0071538D02*
X0292425Y0071538D01*
X0292425Y0072136D02*
X0369263Y0072136D01*
X0376687Y0072735D02*
X0292425Y0072735D01*
X0292425Y0073333D02*
X0376687Y0073333D01*
X0376687Y0073932D02*
X0291963Y0073932D01*
X0291365Y0074530D02*
X0376687Y0074530D01*
X0376687Y0075129D02*
X0290766Y0075129D01*
X0259399Y0075129D02*
X0229027Y0075129D01*
X0228428Y0075727D02*
X0376687Y0075727D01*
X0376753Y0072136D02*
X0377200Y0072136D01*
X0376867Y0071538D02*
X0380608Y0071538D01*
X0380608Y0070939D02*
X0376867Y0070939D01*
X0376867Y0070341D02*
X0380608Y0070341D01*
X0380608Y0069742D02*
X0376867Y0069742D01*
X0376867Y0069144D02*
X0380608Y0069144D01*
X0380608Y0068545D02*
X0376867Y0068545D01*
X0376867Y0067947D02*
X0380608Y0067947D01*
X0380608Y0067348D02*
X0376867Y0067348D01*
X0376867Y0066750D02*
X0380608Y0066750D01*
X0380608Y0066151D02*
X0376867Y0066151D01*
X0376842Y0065553D02*
X0380608Y0065553D01*
X0380608Y0064954D02*
X0376243Y0064954D01*
X0380608Y0064356D02*
X0299458Y0064356D01*
X0300057Y0063757D02*
X0380608Y0063757D01*
X0380608Y0063159D02*
X0300655Y0063159D01*
X0301254Y0062560D02*
X0380608Y0062560D01*
X0380608Y0061962D02*
X0301852Y0061962D01*
X0302451Y0061363D02*
X0380608Y0061363D01*
X0380608Y0060765D02*
X0303050Y0060765D01*
X0303648Y0060166D02*
X0380608Y0060166D01*
X0380608Y0059568D02*
X0304247Y0059568D01*
X0304845Y0058969D02*
X0380608Y0058969D01*
X0380608Y0058370D02*
X0305444Y0058370D01*
X0306042Y0057772D02*
X0380608Y0057772D01*
X0380608Y0057173D02*
X0344306Y0057173D01*
X0344435Y0057120D02*
X0343379Y0057557D01*
X0342237Y0057557D01*
X0341181Y0057120D01*
X0340373Y0056312D01*
X0339936Y0055257D01*
X0339936Y0054115D01*
X0340373Y0053059D01*
X0341181Y0052251D01*
X0342237Y0051814D01*
X0343379Y0051814D01*
X0344435Y0052251D01*
X0345242Y0053059D01*
X0345680Y0054115D01*
X0345680Y0055257D01*
X0345242Y0056312D01*
X0344435Y0057120D01*
X0344980Y0056575D02*
X0380608Y0056575D01*
X0380608Y0055976D02*
X0345382Y0055976D01*
X0345629Y0055378D02*
X0380608Y0055378D01*
X0380608Y0054779D02*
X0345680Y0054779D01*
X0345680Y0054181D02*
X0380608Y0054181D01*
X0380608Y0053582D02*
X0345459Y0053582D01*
X0345167Y0052984D02*
X0380608Y0052984D01*
X0380608Y0052385D02*
X0344569Y0052385D01*
X0341047Y0052385D02*
X0337990Y0052385D01*
X0337990Y0051787D02*
X0380608Y0051787D01*
X0380608Y0051188D02*
X0337990Y0051188D01*
X0337990Y0050590D02*
X0380608Y0050590D01*
X0380608Y0049991D02*
X0337990Y0049991D01*
X0337990Y0049393D02*
X0380608Y0049393D01*
X0380608Y0048794D02*
X0337990Y0048794D01*
X0337990Y0048330D02*
X0337353Y0047693D01*
X0330940Y0047693D01*
X0330303Y0048330D01*
X0330303Y0053955D01*
X0330940Y0054592D01*
X0337353Y0054592D01*
X0337990Y0053955D01*
X0337990Y0048330D01*
X0337856Y0048196D02*
X0380608Y0048196D01*
X0380608Y0047597D02*
X0316217Y0047597D01*
X0316815Y0046999D02*
X0380608Y0046999D01*
X0380608Y0046400D02*
X0317414Y0046400D01*
X0318012Y0045802D02*
X0380608Y0045802D01*
X0352083Y0040985D02*
X0351469Y0041300D01*
X0330437Y0048196D02*
X0315618Y0048196D01*
X0315020Y0048794D02*
X0330303Y0048794D01*
X0330303Y0049393D02*
X0314421Y0049393D01*
X0313823Y0049991D02*
X0330303Y0049991D01*
X0330303Y0050590D02*
X0313224Y0050590D01*
X0312626Y0051188D02*
X0330303Y0051188D01*
X0330303Y0051787D02*
X0312027Y0051787D01*
X0311429Y0052385D02*
X0330303Y0052385D01*
X0330303Y0052984D02*
X0310830Y0052984D01*
X0310232Y0053582D02*
X0330303Y0053582D01*
X0330529Y0054181D02*
X0309633Y0054181D01*
X0309035Y0054779D02*
X0339936Y0054779D01*
X0339936Y0054181D02*
X0337764Y0054181D01*
X0337990Y0053582D02*
X0340157Y0053582D01*
X0340449Y0052984D02*
X0337990Y0052984D01*
X0339986Y0055378D02*
X0308436Y0055378D01*
X0307838Y0055976D02*
X0340234Y0055976D01*
X0340636Y0056575D02*
X0307239Y0056575D01*
X0306641Y0057173D02*
X0341310Y0057173D01*
X0289481Y0065553D02*
X0289342Y0065553D01*
X0250661Y0061363D02*
X0246259Y0061363D01*
X0234058Y0064356D02*
X0230686Y0064356D01*
X0230686Y0064954D02*
X0234657Y0064954D01*
X0235255Y0065553D02*
X0230686Y0065553D01*
X0230686Y0066151D02*
X0235854Y0066151D01*
X0227911Y0066151D02*
X0224979Y0066151D01*
X0225945Y0066750D02*
X0227911Y0066750D01*
X0227911Y0067348D02*
X0226544Y0067348D01*
X0226998Y0067947D02*
X0227911Y0067947D01*
X0227911Y0068545D02*
X0227246Y0068545D01*
X0227494Y0069144D02*
X0227911Y0069144D01*
X0227911Y0069742D02*
X0227595Y0069742D01*
X0218521Y0069144D02*
X0217494Y0069144D01*
X0217595Y0069742D02*
X0218420Y0069742D01*
X0218130Y0068545D02*
X0217246Y0068545D01*
X0216998Y0067947D02*
X0217532Y0067947D01*
X0216933Y0067348D02*
X0216544Y0067348D01*
X0216335Y0066750D02*
X0215945Y0066750D01*
X0215736Y0066151D02*
X0214979Y0066151D01*
X0215138Y0065553D02*
X0211431Y0065553D01*
X0209387Y0067433D02*
X0208606Y0066652D01*
X0207595Y0066652D01*
X0207595Y0074250D01*
X0207563Y0074283D01*
X0210635Y0074283D01*
X0210409Y0074189D01*
X0209119Y0072899D01*
X0208420Y0071212D01*
X0208420Y0069388D01*
X0209119Y0067701D01*
X0209387Y0067433D01*
X0209303Y0067348D02*
X0207595Y0067348D01*
X0207595Y0066750D02*
X0208704Y0066750D01*
X0209017Y0067947D02*
X0207595Y0067947D01*
X0207595Y0068545D02*
X0208769Y0068545D01*
X0208521Y0069144D02*
X0207595Y0069144D01*
X0207595Y0069742D02*
X0208420Y0069742D01*
X0208420Y0070341D02*
X0207595Y0070341D01*
X0207595Y0070939D02*
X0208420Y0070939D01*
X0208555Y0071538D02*
X0207595Y0071538D01*
X0207595Y0072136D02*
X0208803Y0072136D01*
X0209051Y0072735D02*
X0207595Y0072735D01*
X0207595Y0073333D02*
X0209554Y0073333D01*
X0210152Y0073932D02*
X0207595Y0073932D01*
X0215864Y0073932D02*
X0215894Y0073932D01*
X0216462Y0073333D02*
X0216493Y0073333D01*
X0219587Y0075670D02*
X0226524Y0075670D01*
X0198420Y0072136D02*
X0182767Y0072136D01*
X0183365Y0071538D02*
X0198420Y0071538D01*
X0198420Y0070939D02*
X0183964Y0070939D01*
X0184562Y0070341D02*
X0198420Y0070341D01*
X0191675Y0069144D02*
X0185759Y0069144D01*
X0186358Y0068545D02*
X0191076Y0068545D01*
X0191145Y0068614D02*
X0191145Y0068614D01*
X0190570Y0068039D02*
X0190570Y0068039D01*
X0190477Y0067947D02*
X0186956Y0067947D01*
X0187555Y0067348D02*
X0189879Y0067348D01*
X0189757Y0066750D02*
X0188153Y0066750D01*
X0188752Y0066151D02*
X0189757Y0066151D01*
X0189757Y0065553D02*
X0189350Y0065553D01*
X0194424Y0062560D02*
X0196049Y0062560D01*
X0213277Y0058969D02*
X0213515Y0058969D01*
X0213875Y0058370D02*
X0214113Y0058370D01*
X0214474Y0057772D02*
X0214712Y0057772D01*
X0215072Y0057173D02*
X0215310Y0057173D01*
X0216069Y0062560D02*
X0218789Y0062560D01*
X0219387Y0063159D02*
X0216668Y0063159D01*
X0217266Y0063757D02*
X0227911Y0063757D01*
X0227911Y0063159D02*
X0222561Y0063159D01*
X0223159Y0062560D02*
X0227911Y0062560D01*
X0227502Y0061962D02*
X0223407Y0061962D01*
X0227911Y0064356D02*
X0217865Y0064356D01*
X0218463Y0064954D02*
X0227911Y0064954D01*
X0227911Y0065553D02*
X0219062Y0065553D01*
X0219660Y0066151D02*
X0221037Y0066151D01*
X0230686Y0063757D02*
X0233460Y0063757D01*
X0232861Y0063159D02*
X0230686Y0063159D01*
X0230686Y0062560D02*
X0232263Y0062560D01*
X0231664Y0061962D02*
X0230686Y0061962D01*
X0226524Y0051391D02*
X0236235Y0041679D01*
X0236235Y0039598D01*
X0238619Y0038620D02*
X0239414Y0038620D01*
X0238812Y0039085D02*
X0238420Y0038138D01*
X0237695Y0037413D01*
X0236748Y0037021D01*
X0235723Y0037021D01*
X0235343Y0037179D01*
X0235343Y0036310D01*
X0234951Y0035363D01*
X0234226Y0034639D01*
X0233279Y0034246D01*
X0233143Y0034246D01*
X0242677Y0024712D01*
X0242677Y0025542D01*
X0243069Y0026489D01*
X0243794Y0027214D01*
X0243866Y0027244D01*
X0243866Y0034167D01*
X0238812Y0039221D01*
X0238812Y0039085D01*
X0238812Y0039218D02*
X0238815Y0039218D01*
X0238302Y0038021D02*
X0240012Y0038021D01*
X0240611Y0037423D02*
X0237704Y0037423D01*
X0235343Y0036824D02*
X0241209Y0036824D01*
X0241808Y0036226D02*
X0235308Y0036226D01*
X0235060Y0035627D02*
X0242406Y0035627D01*
X0243005Y0035029D02*
X0234616Y0035029D01*
X0233723Y0034430D02*
X0243603Y0034430D01*
X0243866Y0033832D02*
X0233558Y0033832D01*
X0234157Y0033233D02*
X0243866Y0033233D01*
X0243866Y0032634D02*
X0234755Y0032634D01*
X0235354Y0032036D02*
X0243866Y0032036D01*
X0243866Y0031437D02*
X0235952Y0031437D01*
X0236551Y0030839D02*
X0243866Y0030839D01*
X0243866Y0030240D02*
X0237149Y0030240D01*
X0237748Y0029642D02*
X0243866Y0029642D01*
X0243866Y0029043D02*
X0238346Y0029043D01*
X0238945Y0028445D02*
X0243866Y0028445D01*
X0243866Y0027846D02*
X0239543Y0027846D01*
X0240142Y0027248D02*
X0243866Y0027248D01*
X0243229Y0026649D02*
X0240740Y0026649D01*
X0241339Y0026051D02*
X0242888Y0026051D01*
X0242677Y0025452D02*
X0241937Y0025452D01*
X0242536Y0024854D02*
X0242677Y0024854D01*
X0247830Y0025452D02*
X0247876Y0025452D01*
X0252684Y0024255D02*
X0254177Y0024255D01*
X0254169Y0024264D02*
X0254893Y0023539D01*
X0255840Y0023147D01*
X0255977Y0023147D01*
X0253697Y0020868D01*
X0249297Y0020868D01*
X0253776Y0025347D01*
X0253776Y0025211D01*
X0254169Y0024264D01*
X0253924Y0024854D02*
X0253283Y0024854D01*
X0256353Y0025724D02*
X0262596Y0031967D01*
X0265108Y0032634D02*
X0265464Y0032634D01*
X0265172Y0032479D02*
X0264780Y0033426D01*
X0264055Y0034151D01*
X0263109Y0034543D01*
X0262972Y0034543D01*
X0268027Y0039598D01*
X0268958Y0039598D01*
X0268839Y0039479D01*
X0267452Y0038091D01*
X0267452Y0034623D01*
X0265172Y0032343D01*
X0265172Y0032479D01*
X0264860Y0033233D02*
X0266062Y0033233D01*
X0266661Y0033832D02*
X0264375Y0033832D01*
X0263382Y0034430D02*
X0267259Y0034430D01*
X0267452Y0035029D02*
X0263458Y0035029D01*
X0264056Y0035627D02*
X0267452Y0035627D01*
X0267452Y0036226D02*
X0264655Y0036226D01*
X0265253Y0036824D02*
X0267452Y0036824D01*
X0267452Y0037423D02*
X0265852Y0037423D01*
X0266450Y0038021D02*
X0267452Y0038021D01*
X0267049Y0038620D02*
X0267980Y0038620D01*
X0267647Y0039218D02*
X0268579Y0039218D01*
X0264920Y0040415D02*
X0252662Y0040415D01*
X0252686Y0040473D02*
X0252686Y0041183D01*
X0253397Y0041183D01*
X0254344Y0041576D01*
X0255068Y0042300D01*
X0255098Y0042372D01*
X0292986Y0042372D01*
X0292986Y0042372D01*
X0266877Y0042372D01*
X0266065Y0041560D01*
X0251497Y0026992D01*
X0251497Y0038771D01*
X0251569Y0038801D01*
X0252294Y0039526D01*
X0252686Y0040473D01*
X0252686Y0041014D02*
X0265519Y0041014D01*
X0266117Y0041612D02*
X0254380Y0041612D01*
X0254979Y0042211D02*
X0266716Y0042211D01*
X0269533Y0043760D02*
X0252884Y0043760D01*
X0250308Y0043561D02*
X0249597Y0043561D01*
X0249525Y0043532D01*
X0247909Y0045147D01*
X0250670Y0045147D01*
X0250308Y0044272D01*
X0250308Y0043561D01*
X0250308Y0044006D02*
X0249050Y0044006D01*
X0248452Y0044605D02*
X0250446Y0044605D01*
X0234473Y0041479D02*
X0234154Y0041160D01*
X0234154Y0041798D01*
X0234473Y0041479D01*
X0234340Y0041612D02*
X0234154Y0041612D01*
X0232767Y0041679D02*
X0232767Y0036823D01*
X0230348Y0037715D02*
X0229675Y0037715D01*
X0230191Y0037199D01*
X0230191Y0037335D01*
X0230348Y0037715D01*
X0230227Y0037423D02*
X0229967Y0037423D01*
X0216118Y0038210D02*
X0214731Y0039598D01*
X0213542Y0038021D02*
X0206098Y0038021D01*
X0206525Y0037423D02*
X0208490Y0037423D01*
X0207995Y0036824D02*
X0207020Y0036824D01*
X0207020Y0036226D02*
X0207995Y0036226D01*
X0207995Y0035627D02*
X0207020Y0035627D01*
X0207020Y0035029D02*
X0207995Y0035029D01*
X0207995Y0034430D02*
X0207020Y0034430D01*
X0207020Y0033832D02*
X0207995Y0033832D01*
X0207995Y0033233D02*
X0207020Y0033233D01*
X0207020Y0032634D02*
X0207995Y0032634D01*
X0207995Y0032036D02*
X0207020Y0032036D01*
X0207020Y0031437D02*
X0207995Y0031437D01*
X0208459Y0030839D02*
X0206557Y0030839D01*
X0208646Y0030240D02*
X0233225Y0030240D01*
X0233824Y0029642D02*
X0209600Y0029642D01*
X0210069Y0029043D02*
X0234422Y0029043D01*
X0235021Y0028445D02*
X0210317Y0028445D01*
X0214431Y0030839D02*
X0232627Y0030839D01*
X0232028Y0031437D02*
X0214894Y0031437D01*
X0217750Y0032036D02*
X0231429Y0032036D01*
X0230831Y0032634D02*
X0218321Y0032634D01*
X0185780Y0030240D02*
X0181653Y0030240D01*
X0182252Y0029642D02*
X0185780Y0029642D01*
X0185780Y0029043D02*
X0182850Y0029043D01*
X0183449Y0028445D02*
X0185780Y0028445D01*
X0185780Y0027846D02*
X0184047Y0027846D01*
X0154320Y0018270D02*
X0154179Y0018270D01*
X0124722Y0028445D02*
X0116289Y0028445D01*
X0117325Y0029043D02*
X0122507Y0029043D01*
X0121844Y0029642D02*
X0117949Y0029642D01*
X0118548Y0030240D02*
X0121495Y0030240D01*
X0121280Y0030839D02*
X0119146Y0030839D01*
X0119745Y0031437D02*
X0121280Y0031437D01*
X0121383Y0032036D02*
X0120295Y0032036D01*
X0120641Y0032634D02*
X0121631Y0032634D01*
X0122172Y0033233D02*
X0120986Y0033233D01*
X0121332Y0033832D02*
X0123300Y0033832D01*
X0124412Y0033832D02*
X0125243Y0033832D01*
X0125243Y0034430D02*
X0121677Y0034430D01*
X0122023Y0035029D02*
X0125243Y0035029D01*
X0125243Y0035627D02*
X0122300Y0035627D01*
X0122460Y0036226D02*
X0125243Y0036226D01*
X0125243Y0036824D02*
X0122621Y0036824D01*
X0122781Y0037423D02*
X0125243Y0037423D01*
X0125243Y0038021D02*
X0122941Y0038021D01*
X0123102Y0038620D02*
X0125243Y0038620D01*
X0125243Y0039218D02*
X0123262Y0039218D01*
X0123281Y0039817D02*
X0125243Y0039817D01*
X0125243Y0040415D02*
X0123281Y0040415D01*
X0123281Y0041014D02*
X0125243Y0041014D01*
X0125243Y0041612D02*
X0123281Y0041612D01*
X0123281Y0042211D02*
X0125243Y0042211D01*
X0125243Y0042809D02*
X0123281Y0042809D01*
X0123255Y0043408D02*
X0125243Y0043408D01*
X0125243Y0044006D02*
X0123095Y0044006D01*
X0122934Y0044605D02*
X0125243Y0044605D01*
X0125243Y0045203D02*
X0122774Y0045203D01*
X0122614Y0045802D02*
X0125243Y0045802D01*
X0125243Y0046400D02*
X0122453Y0046400D01*
X0122293Y0046999D02*
X0125243Y0046999D01*
X0125243Y0047597D02*
X0122008Y0047597D01*
X0121663Y0048196D02*
X0125243Y0048196D01*
X0125243Y0048794D02*
X0121317Y0048794D01*
X0120971Y0049393D02*
X0125243Y0049393D01*
X0125243Y0049991D02*
X0120626Y0049991D01*
X0120280Y0050590D02*
X0125243Y0050590D01*
X0125243Y0051188D02*
X0119719Y0051188D01*
X0119121Y0051787D02*
X0125243Y0051787D01*
X0125243Y0052385D02*
X0118522Y0052385D01*
X0117924Y0052984D02*
X0125243Y0052984D01*
X0125243Y0053582D02*
X0117281Y0053582D01*
X0116244Y0054181D02*
X0124653Y0054181D01*
X0128018Y0052385D02*
X0130780Y0052385D01*
X0130780Y0051787D02*
X0128018Y0051787D01*
X0083669Y0041457D02*
X0083621Y0040985D01*
X0079459Y0040985D01*
X0066346Y0041300D02*
X0066279Y0041679D01*
X0062810Y0041679D01*
X0060729Y0043760D01*
X0062445Y0044006D02*
X0062503Y0044006D01*
X0062312Y0044605D02*
X0062995Y0044605D01*
X0052821Y0045802D02*
X0048778Y0045802D01*
X0048179Y0045203D02*
X0052040Y0045203D01*
X0051441Y0044605D02*
X0047581Y0044605D01*
X0046982Y0044006D02*
X0051060Y0044006D01*
X0050813Y0043408D02*
X0046657Y0043408D01*
X0046657Y0042809D02*
X0050565Y0042809D01*
X0039224Y0040985D02*
X0038717Y0041300D01*
X0039224Y0040985D02*
X0039224Y0029886D01*
X0040612Y0032036D02*
X0052196Y0032036D01*
X0052196Y0032634D02*
X0040612Y0032634D01*
X0040612Y0033233D02*
X0052196Y0033233D01*
X0052196Y0033832D02*
X0040612Y0033832D01*
X0040612Y0034430D02*
X0052356Y0034430D01*
X0059723Y0034430D02*
X0060536Y0034430D01*
X0059938Y0033832D02*
X0059883Y0033832D01*
X0061135Y0035029D02*
X0040612Y0035029D01*
X0040612Y0035627D02*
X0061733Y0035627D01*
X0062332Y0036226D02*
X0040612Y0036226D01*
X0040612Y0036824D02*
X0062930Y0036824D01*
X0069561Y0034742D02*
X0069599Y0034704D01*
X0069614Y0034742D01*
X0069561Y0034742D01*
X0072499Y0036226D02*
X0072738Y0036226D01*
X0073098Y0036824D02*
X0073336Y0036824D01*
X0076063Y0035627D02*
X0089865Y0035627D01*
X0089865Y0035029D02*
X0075465Y0035029D01*
X0074866Y0034430D02*
X0079986Y0034430D01*
X0079826Y0033832D02*
X0074405Y0033832D01*
X0083669Y0031457D02*
X0084315Y0031273D01*
X0087090Y0031273D01*
X0089865Y0028498D01*
X0089865Y0027805D01*
X0087956Y0028445D02*
X0087313Y0028445D01*
X0089486Y0030839D02*
X0089865Y0030839D01*
X0089865Y0031437D02*
X0088888Y0031437D01*
X0088289Y0032036D02*
X0089865Y0032036D01*
X0089865Y0032634D02*
X0087691Y0032634D01*
X0087513Y0033233D02*
X0089865Y0033233D01*
X0089865Y0033832D02*
X0087513Y0033832D01*
X0087353Y0034430D02*
X0089865Y0034430D01*
X0089865Y0036226D02*
X0076662Y0036226D01*
X0077260Y0036824D02*
X0089865Y0036824D01*
X0062503Y0032036D02*
X0062067Y0032036D01*
X0062503Y0031437D02*
X0061468Y0031437D01*
X0060870Y0030839D02*
X0062503Y0030839D01*
X0062503Y0030240D02*
X0059883Y0030240D01*
X0059883Y0029642D02*
X0062503Y0029642D01*
X0062503Y0029043D02*
X0059883Y0029043D01*
X0059683Y0028445D02*
X0062546Y0028445D01*
X0067866Y0024255D02*
X0046817Y0024255D01*
X0047415Y0023657D02*
X0068465Y0023657D01*
X0069063Y0023058D02*
X0048014Y0023058D01*
X0048612Y0022460D02*
X0069662Y0022460D01*
X0070260Y0021861D02*
X0049211Y0021861D01*
X0049810Y0021263D02*
X0070859Y0021263D01*
X0071457Y0020664D02*
X0050408Y0020664D01*
X0051007Y0020066D02*
X0072056Y0020066D01*
X0072654Y0019467D02*
X0051605Y0019467D01*
X0052204Y0018869D02*
X0073253Y0018869D01*
X0073851Y0018270D02*
X0052802Y0018270D01*
X0053401Y0017672D02*
X0074450Y0017672D01*
X0075048Y0017073D02*
X0053999Y0017073D01*
X0035340Y0038021D02*
X0030309Y0038021D01*
X0030908Y0038620D02*
X0034873Y0038620D01*
X0034873Y0039218D02*
X0031476Y0039218D01*
X0031724Y0039817D02*
X0034873Y0039817D01*
X0034873Y0040415D02*
X0031972Y0040415D01*
X0032155Y0041014D02*
X0034873Y0041014D01*
X0034873Y0041612D02*
X0032155Y0041612D01*
X0032155Y0042211D02*
X0034873Y0042211D01*
X0034873Y0042809D02*
X0032105Y0042809D01*
X0031857Y0043408D02*
X0034873Y0043408D01*
X0034873Y0044006D02*
X0031609Y0044006D01*
X0031228Y0044605D02*
X0035365Y0044605D01*
X0030630Y0045203D02*
X0042574Y0045203D01*
X0044854Y0045802D02*
X0029848Y0045802D01*
X0049642Y0050590D02*
X0009408Y0050590D01*
X0009408Y0051188D02*
X0050240Y0051188D01*
X0050839Y0051787D02*
X0009408Y0051787D01*
X0069898Y0048196D02*
X0079960Y0048196D01*
X0079826Y0048794D02*
X0077437Y0048794D01*
X0078036Y0049393D02*
X0079826Y0049393D01*
X0079826Y0049991D02*
X0078635Y0049991D01*
X0203357Y0044006D02*
X0203468Y0044006D01*
X0211350Y0043408D02*
X0213121Y0043408D01*
X0224125Y0048120D02*
X0229408Y0042838D01*
X0229480Y0042868D01*
X0229616Y0042868D01*
X0224333Y0048150D01*
X0224261Y0048120D01*
X0224125Y0048120D01*
X0224648Y0047597D02*
X0224886Y0047597D01*
X0225247Y0046999D02*
X0225485Y0046999D01*
X0225845Y0046400D02*
X0226083Y0046400D01*
X0226444Y0045802D02*
X0226682Y0045802D01*
X0227042Y0045203D02*
X0227280Y0045203D01*
X0227641Y0044605D02*
X0227879Y0044605D01*
X0228239Y0044006D02*
X0228477Y0044006D01*
X0228838Y0043408D02*
X0229076Y0043408D01*
X0232767Y0041679D02*
X0223749Y0050697D01*
X0252414Y0039817D02*
X0264321Y0039817D01*
X0263723Y0039218D02*
X0251986Y0039218D01*
X0251497Y0038620D02*
X0263124Y0038620D01*
X0262526Y0038021D02*
X0251497Y0038021D01*
X0251497Y0037423D02*
X0261927Y0037423D01*
X0261329Y0036824D02*
X0251497Y0036824D01*
X0251497Y0036226D02*
X0260730Y0036226D01*
X0260132Y0035627D02*
X0251497Y0035627D01*
X0251497Y0035029D02*
X0259533Y0035029D01*
X0258935Y0034430D02*
X0251497Y0034430D01*
X0251497Y0033832D02*
X0258336Y0033832D01*
X0257738Y0033233D02*
X0251497Y0033233D01*
X0251497Y0032634D02*
X0257139Y0032634D01*
X0256541Y0032036D02*
X0251497Y0032036D01*
X0251497Y0031437D02*
X0255942Y0031437D01*
X0255344Y0030839D02*
X0251497Y0030839D01*
X0251497Y0030240D02*
X0254745Y0030240D01*
X0254147Y0029642D02*
X0251497Y0029642D01*
X0251497Y0029043D02*
X0253548Y0029043D01*
X0252950Y0028445D02*
X0251497Y0028445D01*
X0251497Y0027846D02*
X0252351Y0027846D01*
X0251753Y0027248D02*
X0251497Y0027248D01*
X0256729Y0028300D02*
X0260020Y0031591D01*
X0260020Y0031454D01*
X0260050Y0031382D01*
X0256937Y0028270D01*
X0256865Y0028300D01*
X0256729Y0028300D01*
X0256874Y0028445D02*
X0257112Y0028445D01*
X0257472Y0029043D02*
X0257710Y0029043D01*
X0258071Y0029642D02*
X0258309Y0029642D01*
X0258669Y0030240D02*
X0258908Y0030240D01*
X0259268Y0030839D02*
X0259506Y0030839D01*
X0259866Y0031437D02*
X0260027Y0031437D01*
X0262012Y0029420D02*
X0262084Y0029391D01*
X0262220Y0029391D01*
X0258929Y0026100D01*
X0258929Y0026236D01*
X0258899Y0026308D01*
X0262012Y0029420D01*
X0261873Y0029043D02*
X0261635Y0029043D01*
X0261274Y0028445D02*
X0261036Y0028445D01*
X0260676Y0027846D02*
X0260438Y0027846D01*
X0260077Y0027248D02*
X0259839Y0027248D01*
X0259479Y0026649D02*
X0259241Y0026649D01*
X0254776Y0023657D02*
X0252086Y0023657D01*
X0251487Y0023058D02*
X0255888Y0023058D01*
X0255289Y0022460D02*
X0250889Y0022460D01*
X0250290Y0021861D02*
X0254691Y0021861D01*
X0254092Y0021263D02*
X0249692Y0021263D01*
X0272081Y0020066D02*
X0282193Y0020066D01*
X0288823Y0020066D02*
X0292652Y0020066D01*
X0292054Y0020664D02*
X0272679Y0020664D01*
X0273278Y0021263D02*
X0291455Y0021263D01*
X0290857Y0021861D02*
X0273876Y0021861D01*
X0274475Y0022460D02*
X0282267Y0022460D01*
X0281668Y0023058D02*
X0275073Y0023058D01*
X0275672Y0023657D02*
X0281649Y0023657D01*
X0281649Y0024255D02*
X0276270Y0024255D01*
X0276869Y0024854D02*
X0281649Y0024854D01*
X0281649Y0025452D02*
X0277467Y0025452D01*
X0288749Y0022460D02*
X0290258Y0022460D01*
X0289660Y0023058D02*
X0289347Y0023058D01*
X0294183Y0022460D02*
X0324118Y0022460D01*
X0331644Y0020664D02*
X0334218Y0020664D01*
X0333477Y0021263D02*
X0332242Y0021263D01*
X0326523Y0019467D02*
X0289367Y0019467D01*
X0289367Y0018869D02*
X0325924Y0018869D01*
X0325325Y0018270D02*
X0289367Y0018270D01*
X0289367Y0017672D02*
X0324727Y0017672D01*
X0324128Y0017073D02*
X0289367Y0017073D01*
X0289367Y0016475D02*
X0323530Y0016475D01*
X0322931Y0015876D02*
X0289367Y0015876D01*
X0289367Y0015278D02*
X0322333Y0015278D01*
X0321734Y0014679D02*
X0289367Y0014679D01*
X0289367Y0014081D02*
X0321136Y0014081D01*
X0320537Y0013482D02*
X0289367Y0013482D01*
X0289173Y0012884D02*
X0319939Y0012884D01*
X0323863Y0012884D02*
X0336209Y0012884D01*
X0335611Y0013482D02*
X0324462Y0013482D01*
X0325060Y0014081D02*
X0335012Y0014081D01*
X0334414Y0014679D02*
X0325659Y0014679D01*
X0326257Y0015278D02*
X0334320Y0015278D01*
X0334320Y0015876D02*
X0326856Y0015876D01*
X0327454Y0016475D02*
X0334320Y0016475D01*
X0334320Y0017073D02*
X0328053Y0017073D01*
X0328651Y0017672D02*
X0334320Y0017672D01*
X0334763Y0018270D02*
X0329250Y0018270D01*
X0329848Y0018869D02*
X0335362Y0018869D01*
X0285508Y0016300D02*
X0285488Y0016012D01*
X0284101Y0014624D01*
X0248028Y0014624D01*
X0250242Y0013237D02*
X0281649Y0013237D01*
X0281649Y0013078D01*
X0282183Y0012543D01*
X0249591Y0012543D01*
X0250212Y0013165D01*
X0250242Y0013237D01*
X0249931Y0012884D02*
X0281843Y0012884D01*
X0289530Y0036824D02*
X0293237Y0036824D01*
X0292638Y0037423D02*
X0288932Y0037423D01*
X0273828Y0037517D02*
X0273828Y0037517D01*
X0297481Y0042211D02*
X0302817Y0042211D01*
X0303416Y0041612D02*
X0297729Y0041612D01*
D22*
X0295200Y0040985D03*
X0304912Y0043760D03*
X0312543Y0039598D03*
X0271614Y0036129D03*
X0262596Y0031967D03*
X0256353Y0025724D03*
X0245254Y0025030D03*
X0207794Y0027805D03*
X0186983Y0022949D03*
X0212650Y0015318D03*
X0248028Y0014624D03*
X0296587Y0027805D03*
X0326417Y0023643D03*
X0335435Y0022949D03*
X0356246Y0016706D03*
X0250109Y0040985D03*
X0252884Y0043760D03*
X0255659Y0046535D03*
X0269533Y0051391D03*
X0297975Y0054859D03*
X0254272Y0063877D03*
X0243866Y0060409D03*
X0230686Y0059021D03*
X0220974Y0061102D03*
X0202938Y0057634D03*
X0180739Y0059715D03*
X0193920Y0065265D03*
X0241091Y0065958D03*
X0260515Y0070120D03*
X0180046Y0052084D03*
X0213343Y0047922D03*
X0223749Y0050697D03*
X0216118Y0042372D03*
X0229992Y0040291D03*
X0236235Y0039598D03*
X0232767Y0036823D03*
X0216118Y0038210D03*
X0202244Y0041679D03*
X0216118Y0034048D03*
X0151604Y0018787D03*
X0153685Y0014624D03*
X0098883Y0012543D03*
X0092639Y0009769D03*
X0039224Y0013931D03*
X0123856Y0031273D03*
X0071828Y0033354D03*
X0044080Y0043066D03*
X0060035Y0045841D03*
X0091252Y0064571D03*
X0095414Y0064571D03*
X0114838Y0065958D03*
X0124550Y0068039D03*
X0141892Y0066652D03*
M02*
