G75*
%MOIN*%
%OFA0B0*%
%FSLAX25Y25*%
%IPPOS*%
%LPD*%
%AMOC8*
5,1,8,0,0,1.08239X$1,22.5*
%
%ADD10C,0.08200*%
%ADD11OC8,0.06000*%
%ADD12C,0.07800*%
%ADD13R,0.07800X0.07800*%
%ADD14C,0.06400*%
%ADD15R,0.06312X0.05524*%
%ADD16C,0.04343*%
%ADD17R,0.05524X0.10643*%
%ADD18C,0.05524*%
%ADD19R,0.06343X0.06343*%
%ADD20C,0.03778*%
D10*
X0153556Y0061300D03*
X0164956Y0061300D03*
D11*
X0119256Y0036300D03*
X0109256Y0036300D03*
X0124256Y0016300D03*
X0144256Y0016300D03*
D12*
X0099256Y0066300D03*
X0089256Y0066300D03*
D13*
X0079256Y0066300D03*
D14*
X0155319Y0041300D03*
X0163193Y0041300D03*
D15*
X0062917Y0031457D03*
X0045594Y0041300D03*
X0062917Y0051143D03*
X0343094Y0041300D03*
X0360417Y0051143D03*
X0360417Y0031457D03*
D16*
X0351756Y0027914D03*
X0351756Y0054686D03*
X0054256Y0054686D03*
X0054256Y0027914D03*
D17*
X0184413Y0025552D03*
X0194256Y0025552D03*
X0204098Y0025552D03*
X0204098Y0057048D03*
X0194256Y0057048D03*
X0184413Y0057048D03*
D18*
X0063114Y0041772D03*
X0035555Y0041772D03*
X0332898Y0040828D03*
X0360457Y0040828D03*
D19*
X0286756Y0026300D03*
X0286756Y0016300D03*
X0374256Y0016300D03*
X0286756Y0058800D03*
X0286756Y0068800D03*
X0374256Y0068800D03*
D20*
X0062473Y0021994D03*
X0026401Y0031012D03*
X0025013Y0042805D03*
X0082591Y0048354D03*
X0106176Y0054598D03*
X0085365Y0057372D03*
X0068717Y0065697D03*
X0171384Y0043498D03*
X0190808Y0039336D03*
X0201907Y0033093D03*
X0176934Y0028931D03*
X0171384Y0030318D03*
X0199132Y0026156D03*
X0215087Y0025462D03*
X0222718Y0021994D03*
X0195664Y0017831D03*
X0193583Y0014363D03*
X0134618Y0014363D03*
X0110339Y0028931D03*
X0208150Y0048354D03*
X0222718Y0044192D03*
X0242142Y0044886D03*
X0321917Y0041417D03*
X0350359Y0039336D03*
X0372557Y0048354D03*
X0336485Y0050435D03*
X0321917Y0053210D03*
X0276827Y0062922D03*
X0226187Y0066391D03*
X0308043Y0024769D03*
X0342035Y0016444D03*
M02*
