%
M48
M72
T01C0.01378
T02C0.03150
T03C0.03200
T04C0.03543
T05C0.04000
T06C0.04724
%
T01
X62473Y21994
X26401Y31012
X25013Y42805
X82591Y48354
X106176Y54598
X85365Y57372
X68717Y65697
X171384Y43498
X190808Y39336
X201907Y33093
X176934Y28931
X171384Y30318
X199132Y26156
X215087Y25462
X222718Y21994
X195664Y17831
X193583Y14363
X134618Y14363
X110339Y28931
X208150Y48354
X222718Y44192
X242142Y44886
X321917Y41417
X350359Y39336
X372557Y48354
X336485Y50435
X321917Y53210
X276827Y62922
X226187Y66391
X308043Y24769
X342035Y16444
T02
X163193Y41300
X155319Y41300
T03
X119256Y36300
X109256Y36300
X124256Y16300
X144256Y16300
T04
X54256Y27914
X54256Y54686
X79256Y66300
X89256Y66300
X99256Y66300
X286756Y68800
X286756Y58800
X351756Y54686
X374256Y68800
X351756Y27914
X374256Y16300
X286756Y16300
X286756Y26300
T05
X164956Y61300
X153556Y61300
T06
X63114Y41772
X35555Y41772
X332898Y40828
X360457Y40828
M30
