G75*
%MOIN*%
%OFA0B0*%
%FSLAX25Y25*%
%IPPOS*%
%LPD*%
%AMOC8*
5,1,8,0,0,1.08239X$1,22.5*
%
%ADD10C,0.00800*%
%ADD11C,0.00600*%
%ADD12C,0.00300*%
%ADD13C,0.00060*%
%ADD14C,0.01200*%
%ADD15C,0.00500*%
%ADD16C,0.00200*%
%ADD17C,0.00400*%
%ADD18C,0.01000*%
D10*
X0148744Y0020906D02*
X0148744Y0024056D01*
X0151106Y0024056D01*
X0157406Y0024056D02*
X0159768Y0024056D01*
X0159768Y0020906D01*
X0293744Y0043544D02*
X0293744Y0046694D01*
X0304768Y0046694D02*
X0304768Y0043544D01*
X0302406Y0043544D01*
X0296106Y0043544D02*
X0293744Y0043544D01*
X0169256Y0058800D02*
X0166756Y0056300D01*
X0161756Y0056300D01*
X0159256Y0058800D01*
X0156756Y0056300D01*
X0151756Y0056300D01*
X0149256Y0058800D01*
X0149256Y0063800D01*
X0151756Y0066300D01*
X0156756Y0066300D01*
X0159256Y0063800D01*
X0161756Y0066300D01*
X0166756Y0066300D01*
X0169256Y0063800D01*
X0169256Y0058800D01*
D11*
X0170182Y0067100D02*
X0171916Y0067100D01*
X0171049Y0067100D02*
X0171049Y0069702D01*
X0170182Y0068835D01*
X0168970Y0069269D02*
X0168970Y0069702D01*
X0168970Y0069269D02*
X0168102Y0068401D01*
X0168102Y0067100D01*
X0168102Y0068401D02*
X0167235Y0069269D01*
X0167235Y0069702D01*
X0166023Y0069269D02*
X0166023Y0068401D01*
X0165590Y0067967D01*
X0164288Y0067967D01*
X0164288Y0067100D02*
X0164288Y0069702D01*
X0165590Y0069702D01*
X0166023Y0069269D01*
X0165156Y0067967D02*
X0166023Y0067100D01*
X0163077Y0067100D02*
X0161342Y0067100D01*
X0161342Y0069702D01*
X0163077Y0069702D01*
X0160130Y0069702D02*
X0158395Y0069702D01*
X0159263Y0069702D02*
X0159263Y0067100D01*
X0161342Y0068401D02*
X0162209Y0068401D01*
X0156316Y0067100D02*
X0156316Y0069702D01*
X0155449Y0069702D02*
X0157184Y0069702D01*
X0154237Y0068835D02*
X0154237Y0067100D01*
X0154237Y0068401D02*
X0152502Y0068401D01*
X0152502Y0068835D02*
X0152502Y0067100D01*
X0151291Y0067534D02*
X0150857Y0067100D01*
X0149556Y0067100D01*
X0149556Y0069702D01*
X0150857Y0069702D01*
X0151291Y0069269D01*
X0151291Y0068835D01*
X0150857Y0068401D01*
X0149556Y0068401D01*
X0150857Y0068401D02*
X0151291Y0067967D01*
X0151291Y0067534D01*
X0152502Y0068835D02*
X0153370Y0069702D01*
X0154237Y0068835D01*
X0114256Y0030300D02*
X0114102Y0030302D01*
X0113948Y0030308D01*
X0113794Y0030318D01*
X0113640Y0030332D01*
X0113487Y0030349D01*
X0113335Y0030371D01*
X0113183Y0030397D01*
X0113031Y0030426D01*
X0112881Y0030460D01*
X0112731Y0030497D01*
X0112583Y0030538D01*
X0112435Y0030583D01*
X0112289Y0030632D01*
X0112144Y0030684D01*
X0112001Y0030740D01*
X0111858Y0030800D01*
X0111718Y0030863D01*
X0111579Y0030930D01*
X0111442Y0031001D01*
X0111307Y0031075D01*
X0111174Y0031152D01*
X0111042Y0031233D01*
X0110913Y0031317D01*
X0110786Y0031405D01*
X0110662Y0031496D01*
X0110540Y0031589D01*
X0110420Y0031687D01*
X0110303Y0031787D01*
X0110188Y0031890D01*
X0110076Y0031996D01*
X0109967Y0032104D01*
X0109861Y0032216D01*
X0109757Y0032330D01*
X0109657Y0032447D01*
X0109559Y0032566D01*
X0109465Y0032688D01*
X0109374Y0032813D01*
X0114256Y0042300D02*
X0114408Y0042298D01*
X0114559Y0042292D01*
X0114710Y0042283D01*
X0114862Y0042269D01*
X0115012Y0042252D01*
X0115162Y0042231D01*
X0115312Y0042206D01*
X0115461Y0042178D01*
X0115609Y0042145D01*
X0115756Y0042109D01*
X0115903Y0042070D01*
X0116048Y0042026D01*
X0116192Y0041979D01*
X0116335Y0041928D01*
X0116476Y0041874D01*
X0116617Y0041816D01*
X0116755Y0041755D01*
X0116892Y0041690D01*
X0117028Y0041621D01*
X0117161Y0041550D01*
X0117293Y0041475D01*
X0117423Y0041396D01*
X0117550Y0041315D01*
X0117676Y0041230D01*
X0117800Y0041142D01*
X0117921Y0041051D01*
X0118040Y0040957D01*
X0118156Y0040859D01*
X0118270Y0040759D01*
X0118382Y0040657D01*
X0118490Y0040551D01*
X0118596Y0040443D01*
X0118700Y0040332D01*
X0118800Y0040218D01*
X0118898Y0040102D01*
X0118992Y0039983D01*
X0114256Y0042300D02*
X0114104Y0042298D01*
X0113953Y0042292D01*
X0113802Y0042283D01*
X0113650Y0042269D01*
X0113500Y0042252D01*
X0113350Y0042231D01*
X0113200Y0042206D01*
X0113051Y0042178D01*
X0112903Y0042145D01*
X0112756Y0042109D01*
X0112609Y0042070D01*
X0112464Y0042026D01*
X0112320Y0041979D01*
X0112177Y0041928D01*
X0112036Y0041874D01*
X0111895Y0041816D01*
X0111757Y0041755D01*
X0111620Y0041690D01*
X0111484Y0041621D01*
X0111351Y0041550D01*
X0111219Y0041475D01*
X0111089Y0041396D01*
X0110962Y0041315D01*
X0110836Y0041230D01*
X0110712Y0041142D01*
X0110591Y0041051D01*
X0110472Y0040957D01*
X0110356Y0040859D01*
X0110242Y0040759D01*
X0110130Y0040657D01*
X0110022Y0040551D01*
X0109916Y0040443D01*
X0109812Y0040332D01*
X0109712Y0040218D01*
X0109614Y0040102D01*
X0109520Y0039983D01*
X0114256Y0030300D02*
X0114406Y0030302D01*
X0114557Y0030308D01*
X0114707Y0030317D01*
X0114856Y0030330D01*
X0115006Y0030347D01*
X0115155Y0030368D01*
X0115303Y0030392D01*
X0115451Y0030420D01*
X0115598Y0030452D01*
X0115744Y0030487D01*
X0115889Y0030527D01*
X0116033Y0030569D01*
X0116176Y0030616D01*
X0116318Y0030666D01*
X0116459Y0030719D01*
X0116598Y0030776D01*
X0116736Y0030836D01*
X0116872Y0030900D01*
X0117006Y0030967D01*
X0117139Y0031038D01*
X0117270Y0031112D01*
X0117399Y0031189D01*
X0117526Y0031270D01*
X0117651Y0031353D01*
X0117774Y0031440D01*
X0117895Y0031529D01*
X0118013Y0031622D01*
X0118129Y0031718D01*
X0118243Y0031816D01*
X0118354Y0031917D01*
X0118463Y0032022D01*
X0118568Y0032128D01*
X0118672Y0032238D01*
X0118772Y0032350D01*
X0118870Y0032464D01*
X0118964Y0032581D01*
X0119056Y0032700D01*
X0127756Y0020800D02*
X0140756Y0020800D01*
X0139256Y0016300D02*
X0135556Y0016300D01*
X0133056Y0016300D02*
X0129256Y0016300D01*
X0127756Y0011800D02*
X0140756Y0011800D01*
D12*
X0046341Y0008950D02*
X0044406Y0008950D01*
X0045373Y0008950D02*
X0045373Y0011852D01*
X0044406Y0010885D01*
X0047352Y0011369D02*
X0047836Y0011852D01*
X0048804Y0011852D01*
X0049287Y0011369D01*
X0047352Y0009434D01*
X0047836Y0008950D01*
X0048804Y0008950D01*
X0049287Y0009434D01*
X0049287Y0011369D01*
X0050299Y0011852D02*
X0051266Y0010885D01*
X0052234Y0011852D01*
X0052234Y0008950D01*
X0050299Y0008950D02*
X0050299Y0011852D01*
X0047352Y0011369D02*
X0047352Y0009434D01*
X0083066Y0009217D02*
X0084518Y0009217D01*
X0085001Y0009701D01*
X0085001Y0010669D01*
X0084518Y0011152D01*
X0083066Y0011152D01*
X0083066Y0008250D01*
X0084034Y0009217D02*
X0085001Y0008250D01*
X0086013Y0008250D02*
X0087948Y0008250D01*
X0086980Y0008250D02*
X0086980Y0011152D01*
X0086013Y0010185D01*
X0088959Y0010669D02*
X0089443Y0011152D01*
X0090411Y0011152D01*
X0090894Y0010669D01*
X0090894Y0010185D01*
X0088959Y0008250D01*
X0090894Y0008250D01*
X0103066Y0010750D02*
X0103066Y0013652D01*
X0104518Y0013652D01*
X0105001Y0013169D01*
X0105001Y0012201D01*
X0104518Y0011717D01*
X0103066Y0011717D01*
X0104034Y0011717D02*
X0105001Y0010750D01*
X0106013Y0010750D02*
X0107948Y0010750D01*
X0106980Y0010750D02*
X0106980Y0013652D01*
X0106013Y0012685D01*
X0108959Y0012201D02*
X0110894Y0012201D01*
X0110411Y0010750D02*
X0110411Y0013652D01*
X0108959Y0012201D01*
X0108959Y0020750D02*
X0108959Y0023652D01*
X0107948Y0023169D02*
X0107464Y0023652D01*
X0106497Y0023652D01*
X0106013Y0023169D01*
X0107948Y0023169D02*
X0107948Y0022685D01*
X0106013Y0020750D01*
X0107948Y0020750D01*
X0108959Y0021717D02*
X0110894Y0023652D01*
X0109443Y0022201D02*
X0110894Y0020750D01*
X0105023Y0020750D02*
X0104540Y0020750D01*
X0104540Y0021234D01*
X0105023Y0021234D01*
X0105023Y0020750D01*
X0103528Y0020750D02*
X0101593Y0020750D01*
X0102561Y0020750D02*
X0102561Y0023652D01*
X0101593Y0022685D01*
X0090894Y0023734D02*
X0090411Y0023250D01*
X0089443Y0023250D01*
X0088959Y0023734D01*
X0090894Y0025669D01*
X0090894Y0023734D01*
X0088959Y0023734D02*
X0088959Y0025669D01*
X0089443Y0026152D01*
X0090411Y0026152D01*
X0090894Y0025669D01*
X0087948Y0025669D02*
X0087464Y0026152D01*
X0086497Y0026152D01*
X0086013Y0025669D01*
X0086013Y0025185D01*
X0086497Y0024701D01*
X0087948Y0024701D01*
X0087948Y0023734D02*
X0087948Y0025669D01*
X0085001Y0025669D02*
X0085001Y0025185D01*
X0084518Y0024701D01*
X0085001Y0024217D01*
X0085001Y0023734D01*
X0084518Y0023250D01*
X0083550Y0023250D01*
X0083066Y0023734D01*
X0084034Y0024701D02*
X0084518Y0024701D01*
X0086013Y0023734D02*
X0086497Y0023250D01*
X0087464Y0023250D01*
X0087948Y0023734D01*
X0085001Y0025669D02*
X0084518Y0026152D01*
X0083550Y0026152D01*
X0083066Y0025669D01*
X0095120Y0031750D02*
X0097055Y0031750D01*
X0098066Y0031750D02*
X0100001Y0031750D01*
X0101013Y0031750D02*
X0102464Y0031750D01*
X0102948Y0032234D01*
X0102948Y0034169D01*
X0102464Y0034652D01*
X0101013Y0034652D01*
X0101013Y0031750D01*
X0103959Y0031750D02*
X0105894Y0031750D01*
X0104927Y0031750D02*
X0104927Y0034652D01*
X0103959Y0033685D01*
X0100001Y0034652D02*
X0098066Y0034652D01*
X0098066Y0031750D01*
X0095120Y0031750D02*
X0095120Y0034652D01*
X0098066Y0033201D02*
X0099034Y0033201D01*
X0130469Y0034453D02*
X0132404Y0036388D01*
X0132404Y0034453D01*
X0131920Y0033970D01*
X0130953Y0033970D01*
X0130469Y0034453D01*
X0130469Y0036388D01*
X0130953Y0036872D01*
X0131920Y0036872D01*
X0132404Y0036388D01*
X0134889Y0035905D02*
X0135856Y0036872D01*
X0135856Y0033970D01*
X0134889Y0033970D02*
X0136824Y0033970D01*
X0137835Y0034453D02*
X0138319Y0033970D01*
X0139770Y0033970D01*
X0139770Y0035905D01*
X0140782Y0035421D02*
X0141749Y0035421D01*
X0140782Y0033970D02*
X0140782Y0036872D01*
X0142717Y0036872D01*
X0137835Y0035905D02*
X0137835Y0034453D01*
X0133899Y0034453D02*
X0133899Y0033970D01*
X0133415Y0033970D01*
X0133415Y0034453D01*
X0133899Y0034453D01*
X0148382Y0030573D02*
X0149834Y0030573D01*
X0150317Y0030089D01*
X0150317Y0029122D01*
X0149834Y0028638D01*
X0148382Y0028638D01*
X0148382Y0027670D02*
X0148382Y0030573D01*
X0151329Y0030573D02*
X0152296Y0030573D01*
X0151813Y0030573D02*
X0151813Y0027670D01*
X0152296Y0027670D02*
X0151329Y0027670D01*
X0153293Y0027670D02*
X0155228Y0027670D01*
X0156240Y0027670D02*
X0158175Y0027670D01*
X0159186Y0028154D02*
X0159670Y0027670D01*
X0160637Y0027670D01*
X0161121Y0028154D01*
X0161121Y0030089D01*
X0160637Y0030573D01*
X0159670Y0030573D01*
X0159186Y0030089D01*
X0159186Y0028154D01*
X0158175Y0030089D02*
X0156240Y0028154D01*
X0156240Y0027670D01*
X0153293Y0027670D02*
X0153293Y0030573D01*
X0155228Y0030573D01*
X0156240Y0030573D02*
X0158175Y0030573D01*
X0158175Y0030089D01*
X0154261Y0029122D02*
X0153293Y0029122D01*
X0161923Y0024375D02*
X0161923Y0022440D01*
X0164826Y0022440D01*
X0163374Y0022440D02*
X0163374Y0023408D01*
X0172848Y0024375D02*
X0173332Y0023408D01*
X0174300Y0022440D01*
X0174300Y0023892D01*
X0174783Y0024375D01*
X0175267Y0024375D01*
X0175751Y0023892D01*
X0175751Y0022924D01*
X0175267Y0022440D01*
X0174300Y0022440D01*
X0179403Y0022938D02*
X0181338Y0021003D01*
X0180855Y0021487D02*
X0182306Y0022938D01*
X0186903Y0022938D02*
X0186903Y0021003D01*
X0188355Y0021003D01*
X0187871Y0021971D01*
X0187871Y0022455D01*
X0188355Y0022938D01*
X0189322Y0022938D01*
X0189806Y0022455D01*
X0189806Y0021487D01*
X0189322Y0021003D01*
X0189806Y0019992D02*
X0189806Y0018057D01*
X0189806Y0017045D02*
X0188838Y0016078D01*
X0188838Y0016562D02*
X0188838Y0015110D01*
X0189806Y0015110D02*
X0186903Y0015110D01*
X0186903Y0016562D01*
X0187387Y0017045D01*
X0188355Y0017045D01*
X0188838Y0016562D01*
X0187871Y0018057D02*
X0186903Y0019024D01*
X0189806Y0019024D01*
X0182306Y0019024D02*
X0179403Y0019024D01*
X0180371Y0018057D01*
X0182306Y0018057D02*
X0182306Y0019992D01*
X0182306Y0021003D02*
X0179403Y0021003D01*
X0175751Y0020945D02*
X0175751Y0019978D01*
X0175267Y0019494D01*
X0173332Y0019494D01*
X0172848Y0019978D01*
X0172848Y0020945D01*
X0173332Y0021429D01*
X0175267Y0021429D02*
X0175751Y0020945D01*
X0164826Y0021429D02*
X0164826Y0019978D01*
X0164342Y0019494D01*
X0162891Y0019494D01*
X0162891Y0018482D02*
X0163374Y0017999D01*
X0163858Y0018482D01*
X0164342Y0018482D01*
X0164826Y0017999D01*
X0164826Y0017031D01*
X0164342Y0016547D01*
X0163374Y0017515D02*
X0163374Y0017999D01*
X0162891Y0018482D02*
X0162407Y0018482D01*
X0161923Y0017999D01*
X0161923Y0017031D01*
X0162407Y0016547D01*
X0164342Y0015558D02*
X0164826Y0015558D01*
X0164826Y0015074D01*
X0164342Y0015074D01*
X0164342Y0015558D01*
X0164342Y0014063D02*
X0164826Y0013579D01*
X0164826Y0012611D01*
X0164342Y0012128D01*
X0163374Y0013095D02*
X0163374Y0013579D01*
X0163858Y0014063D01*
X0164342Y0014063D01*
X0163374Y0013579D02*
X0162891Y0014063D01*
X0162407Y0014063D01*
X0161923Y0013579D01*
X0161923Y0012611D01*
X0162407Y0012128D01*
X0158537Y0013450D02*
X0156602Y0013450D01*
X0157570Y0013450D02*
X0157570Y0016352D01*
X0156602Y0015385D01*
X0155591Y0015869D02*
X0155591Y0013934D01*
X0155107Y0013450D01*
X0154140Y0013450D01*
X0153656Y0013934D01*
X0153656Y0015869D01*
X0154140Y0016352D01*
X0155107Y0016352D01*
X0155591Y0015869D01*
X0154623Y0014417D02*
X0155591Y0013450D01*
X0162891Y0021429D02*
X0164826Y0021429D01*
X0200469Y0020512D02*
X0201086Y0019895D01*
X0202320Y0019895D01*
X0202938Y0020512D01*
X0204152Y0020512D02*
X0204769Y0019895D01*
X0206004Y0019895D01*
X0206621Y0020512D01*
X0206621Y0021129D01*
X0206004Y0021746D01*
X0205386Y0021746D01*
X0206004Y0021746D02*
X0206621Y0022364D01*
X0206621Y0022981D01*
X0206004Y0023598D01*
X0204769Y0023598D01*
X0204152Y0022981D01*
X0202938Y0022981D02*
X0202320Y0023598D01*
X0201086Y0023598D01*
X0200469Y0022981D01*
X0200469Y0020512D01*
X0211906Y0021434D02*
X0212390Y0020950D01*
X0213357Y0020950D01*
X0213841Y0021434D01*
X0213841Y0023369D01*
X0213357Y0023852D01*
X0212390Y0023852D01*
X0211906Y0023369D01*
X0211906Y0021434D01*
X0214852Y0021917D02*
X0216304Y0021917D01*
X0216787Y0022401D01*
X0216787Y0023369D01*
X0216304Y0023852D01*
X0214852Y0023852D01*
X0214852Y0020950D01*
X0217799Y0020950D02*
X0217799Y0022885D01*
X0218766Y0023852D01*
X0219734Y0022885D01*
X0219734Y0020950D01*
X0220745Y0020950D02*
X0222680Y0022885D01*
X0222680Y0023369D01*
X0222197Y0023852D01*
X0221229Y0023852D01*
X0220745Y0023369D01*
X0219734Y0022401D02*
X0217799Y0022401D01*
X0220745Y0020950D02*
X0222680Y0020950D01*
X0223692Y0020950D02*
X0225627Y0020950D01*
X0224659Y0020950D02*
X0224659Y0023852D01*
X0223692Y0022885D01*
X0226638Y0023369D02*
X0227122Y0023852D01*
X0228090Y0023852D01*
X0228573Y0023369D01*
X0228573Y0022885D01*
X0228090Y0022401D01*
X0228573Y0021917D01*
X0228573Y0021434D01*
X0228090Y0020950D01*
X0227122Y0020950D01*
X0226638Y0021434D01*
X0231036Y0020950D02*
X0231036Y0023852D01*
X0229585Y0022401D01*
X0231520Y0022401D01*
X0232532Y0021434D02*
X0232532Y0023852D01*
X0234467Y0023852D02*
X0234467Y0021434D01*
X0233983Y0020950D01*
X0233015Y0020950D01*
X0232532Y0021434D01*
X0235478Y0020950D02*
X0235478Y0022885D01*
X0236446Y0023852D01*
X0237413Y0022885D01*
X0237413Y0020950D01*
X0237413Y0022401D02*
X0235478Y0022401D01*
X0241923Y0021875D02*
X0241923Y0019940D01*
X0244826Y0019940D01*
X0243374Y0019940D02*
X0243374Y0020908D01*
X0252848Y0020908D02*
X0255751Y0020908D01*
X0255751Y0021875D02*
X0255751Y0019940D01*
X0253816Y0019940D02*
X0252848Y0020908D01*
X0253332Y0018929D02*
X0252848Y0018445D01*
X0252848Y0017478D01*
X0253332Y0016994D01*
X0255267Y0016994D01*
X0255751Y0017478D01*
X0255751Y0018445D01*
X0255267Y0018929D01*
X0244826Y0018929D02*
X0244826Y0017478D01*
X0244342Y0016994D01*
X0242891Y0016994D01*
X0242407Y0015982D02*
X0244342Y0014047D01*
X0244826Y0014531D01*
X0244826Y0015499D01*
X0244342Y0015982D01*
X0242407Y0015982D01*
X0241923Y0015499D01*
X0241923Y0014531D01*
X0242407Y0014047D01*
X0244342Y0014047D01*
X0244826Y0013036D02*
X0244826Y0011101D01*
X0244826Y0012068D02*
X0241923Y0012068D01*
X0242891Y0011101D01*
X0264406Y0010885D02*
X0265373Y0011852D01*
X0265373Y0008950D01*
X0264406Y0008950D02*
X0266341Y0008950D01*
X0267352Y0009434D02*
X0267836Y0008950D01*
X0268804Y0008950D01*
X0269287Y0009434D01*
X0269287Y0011369D01*
X0267352Y0009434D01*
X0267352Y0011369D01*
X0267836Y0011852D01*
X0268804Y0011852D01*
X0269287Y0011369D01*
X0270299Y0011852D02*
X0270299Y0008950D01*
X0270783Y0010401D02*
X0272234Y0008950D01*
X0270299Y0009917D02*
X0272234Y0011852D01*
X0271787Y0018950D02*
X0269852Y0018950D01*
X0270820Y0018950D02*
X0270820Y0021852D01*
X0269852Y0020885D01*
X0268841Y0021369D02*
X0268841Y0020401D01*
X0268357Y0019917D01*
X0266906Y0019917D01*
X0267873Y0019917D02*
X0268841Y0018950D01*
X0266906Y0018950D02*
X0266906Y0021852D01*
X0268357Y0021852D01*
X0268841Y0021369D01*
X0272799Y0021852D02*
X0274734Y0021852D01*
X0274734Y0021369D01*
X0272799Y0019434D01*
X0272799Y0018950D01*
X0271787Y0023950D02*
X0270336Y0025401D01*
X0269852Y0024917D02*
X0271787Y0026852D01*
X0269852Y0026852D02*
X0269852Y0023950D01*
X0268841Y0023950D02*
X0266906Y0023950D01*
X0267873Y0023950D02*
X0267873Y0026852D01*
X0266906Y0025885D01*
X0244826Y0018929D02*
X0242891Y0018929D01*
X0228090Y0022401D02*
X0227606Y0022401D01*
X0213987Y0012673D02*
X0211518Y0012673D01*
X0211518Y0008970D01*
X0210304Y0008970D02*
X0210304Y0011438D01*
X0211518Y0010821D02*
X0212753Y0010821D01*
X0207835Y0011438D02*
X0207835Y0009587D01*
X0208452Y0008970D01*
X0210304Y0008970D01*
X0206621Y0009587D02*
X0206004Y0008970D01*
X0204769Y0008970D01*
X0204152Y0009587D01*
X0206621Y0012056D01*
X0206621Y0009587D01*
X0204152Y0009587D02*
X0204152Y0012056D01*
X0204769Y0012673D01*
X0206004Y0012673D01*
X0206621Y0012056D01*
X0201703Y0012673D02*
X0200469Y0011438D01*
X0201703Y0012673D02*
X0201703Y0008970D01*
X0200469Y0008970D02*
X0202938Y0008970D01*
X0310075Y0020387D02*
X0311526Y0020387D01*
X0312010Y0020871D01*
X0312010Y0022806D01*
X0311526Y0023289D01*
X0310075Y0023289D01*
X0310075Y0020387D01*
X0313022Y0020387D02*
X0314957Y0022322D01*
X0314957Y0022806D01*
X0314473Y0023289D01*
X0313505Y0023289D01*
X0313022Y0022806D01*
X0313022Y0020387D02*
X0314957Y0020387D01*
X0342844Y0012215D02*
X0344295Y0012215D01*
X0344779Y0011732D01*
X0344779Y0009797D01*
X0344295Y0009313D01*
X0342844Y0009313D01*
X0342844Y0012215D01*
X0345790Y0011248D02*
X0346758Y0012215D01*
X0346758Y0009313D01*
X0347725Y0009313D02*
X0345790Y0009313D01*
X0322680Y0033950D02*
X0321229Y0035401D01*
X0320745Y0034917D02*
X0322680Y0036852D01*
X0320745Y0036852D02*
X0320745Y0033950D01*
X0319734Y0034434D02*
X0319250Y0033950D01*
X0318283Y0033950D01*
X0317799Y0034434D01*
X0319734Y0036369D01*
X0319734Y0034434D01*
X0317799Y0034434D02*
X0317799Y0036369D01*
X0318283Y0036852D01*
X0319250Y0036852D01*
X0319734Y0036369D01*
X0316787Y0036852D02*
X0314852Y0036852D01*
X0314852Y0035401D01*
X0315820Y0035885D01*
X0316304Y0035885D01*
X0316787Y0035401D01*
X0316787Y0034434D01*
X0316304Y0033950D01*
X0315336Y0033950D01*
X0314852Y0034434D01*
X0313841Y0033950D02*
X0311906Y0033950D01*
X0312873Y0033950D02*
X0312873Y0036852D01*
X0311906Y0035885D01*
X0301644Y0036250D02*
X0299709Y0036250D01*
X0301644Y0038185D01*
X0301644Y0038669D01*
X0301161Y0039152D01*
X0300193Y0039152D01*
X0299709Y0038669D01*
X0298698Y0038669D02*
X0298698Y0036734D01*
X0298214Y0036250D01*
X0297247Y0036250D01*
X0296763Y0036734D01*
X0296763Y0038669D01*
X0297247Y0039152D01*
X0298214Y0039152D01*
X0298698Y0038669D01*
X0297730Y0037217D02*
X0298698Y0036250D01*
X0274734Y0036369D02*
X0274734Y0034434D01*
X0274250Y0033950D01*
X0273283Y0033950D01*
X0272799Y0034434D01*
X0274734Y0036369D01*
X0274250Y0036852D01*
X0273283Y0036852D01*
X0272799Y0036369D01*
X0272799Y0034434D01*
X0271787Y0033950D02*
X0269852Y0033950D01*
X0270820Y0033950D02*
X0270820Y0036852D01*
X0269852Y0035885D01*
X0268841Y0036369D02*
X0268841Y0035401D01*
X0268357Y0034917D01*
X0266906Y0034917D01*
X0266906Y0033950D02*
X0266906Y0036852D01*
X0268357Y0036852D01*
X0268841Y0036369D01*
X0267873Y0034917D02*
X0268841Y0033950D01*
X0268841Y0038950D02*
X0266906Y0038950D01*
X0267873Y0038950D02*
X0267873Y0041852D01*
X0266906Y0040885D01*
X0269852Y0041852D02*
X0270820Y0040885D01*
X0271787Y0041852D01*
X0271787Y0038950D01*
X0269852Y0038950D02*
X0269852Y0041852D01*
X0256606Y0041897D02*
X0253703Y0041897D01*
X0255155Y0042380D02*
X0256606Y0043831D01*
X0255638Y0041897D02*
X0253703Y0043831D01*
X0246606Y0041897D02*
X0246122Y0041897D01*
X0244187Y0043831D01*
X0243703Y0043831D01*
X0243703Y0041897D01*
X0244187Y0040885D02*
X0245155Y0040885D01*
X0245638Y0040401D01*
X0245638Y0038950D01*
X0245638Y0039917D02*
X0246606Y0040885D01*
X0244187Y0040885D02*
X0243703Y0040401D01*
X0243703Y0038950D01*
X0246606Y0038950D01*
X0253703Y0039917D02*
X0254671Y0038950D01*
X0253703Y0039917D02*
X0256606Y0039917D01*
X0256606Y0038950D02*
X0256606Y0040885D01*
X0218752Y0046950D02*
X0216817Y0046950D01*
X0217784Y0046950D02*
X0217784Y0049852D01*
X0216817Y0048885D01*
X0215805Y0049369D02*
X0215321Y0049852D01*
X0214354Y0049852D01*
X0213870Y0049369D01*
X0213870Y0047434D01*
X0214354Y0046950D01*
X0215321Y0046950D01*
X0215805Y0047434D01*
X0212873Y0046950D02*
X0211906Y0046950D01*
X0212390Y0046950D02*
X0212390Y0049852D01*
X0212873Y0049852D02*
X0211906Y0049852D01*
X0211906Y0053950D02*
X0213841Y0053950D01*
X0212873Y0053950D02*
X0212873Y0056852D01*
X0211906Y0055885D01*
X0214852Y0056852D02*
X0214852Y0053950D01*
X0214852Y0054917D02*
X0216787Y0056852D01*
X0215336Y0055401D02*
X0216787Y0053950D01*
X0194734Y0053950D02*
X0193283Y0055401D01*
X0192799Y0054917D02*
X0194734Y0056852D01*
X0192799Y0056852D02*
X0192799Y0053950D01*
X0191787Y0054434D02*
X0191304Y0053950D01*
X0190336Y0053950D01*
X0189852Y0054434D01*
X0191787Y0056369D01*
X0191787Y0054434D01*
X0189852Y0054434D02*
X0189852Y0056369D01*
X0190336Y0056852D01*
X0191304Y0056852D01*
X0191787Y0056369D01*
X0187873Y0056852D02*
X0186906Y0055885D01*
X0187873Y0056852D02*
X0187873Y0053950D01*
X0186906Y0053950D02*
X0188841Y0053950D01*
X0146243Y0051872D02*
X0144308Y0051872D01*
X0144308Y0048970D01*
X0143297Y0048970D02*
X0143297Y0050905D01*
X0144308Y0050421D02*
X0145276Y0050421D01*
X0141362Y0050905D02*
X0141362Y0049453D01*
X0141846Y0048970D01*
X0143297Y0048970D01*
X0140350Y0049453D02*
X0139867Y0048970D01*
X0138899Y0048970D01*
X0138415Y0049453D01*
X0140350Y0051388D01*
X0140350Y0049453D01*
X0138415Y0049453D02*
X0138415Y0051388D01*
X0138899Y0051872D01*
X0139867Y0051872D01*
X0140350Y0051388D01*
X0136436Y0051872D02*
X0135469Y0050905D01*
X0136436Y0051872D02*
X0136436Y0048970D01*
X0135469Y0048970D02*
X0137404Y0048970D01*
X0135350Y0047314D02*
X0134867Y0047797D01*
X0133899Y0047797D01*
X0133415Y0047314D01*
X0132404Y0047314D02*
X0131920Y0047797D01*
X0130953Y0047797D01*
X0130469Y0047314D01*
X0130469Y0045379D01*
X0130953Y0044895D01*
X0131920Y0044895D01*
X0132404Y0045379D01*
X0133415Y0044895D02*
X0135350Y0046830D01*
X0135350Y0047314D01*
X0135350Y0044895D02*
X0133415Y0044895D01*
X0120894Y0051234D02*
X0120411Y0050750D01*
X0119443Y0050750D01*
X0118959Y0051234D01*
X0118959Y0052201D01*
X0120411Y0052201D01*
X0120894Y0051717D01*
X0120894Y0051234D01*
X0119927Y0053169D02*
X0118959Y0052201D01*
X0119927Y0053169D02*
X0120894Y0053652D01*
X0116980Y0053652D02*
X0116013Y0052685D01*
X0115001Y0053169D02*
X0115001Y0052201D01*
X0114518Y0051717D01*
X0113066Y0051717D01*
X0113066Y0050750D02*
X0113066Y0053652D01*
X0114518Y0053652D01*
X0115001Y0053169D01*
X0116980Y0053652D02*
X0116980Y0050750D01*
X0116013Y0050750D02*
X0117948Y0050750D01*
X0115001Y0050750D02*
X0114034Y0051717D01*
X0116013Y0058250D02*
X0117948Y0058250D01*
X0116980Y0058250D02*
X0116980Y0061152D01*
X0116013Y0060185D01*
X0118959Y0060669D02*
X0118959Y0058734D01*
X0120894Y0060669D01*
X0120894Y0058734D01*
X0120411Y0058250D01*
X0119443Y0058250D01*
X0118959Y0058734D01*
X0122844Y0059313D02*
X0124295Y0059313D01*
X0124779Y0059797D01*
X0124779Y0061732D01*
X0124295Y0062215D01*
X0122844Y0062215D01*
X0122844Y0059313D01*
X0125790Y0059797D02*
X0126274Y0059313D01*
X0127241Y0059313D01*
X0127725Y0059797D01*
X0127725Y0060280D01*
X0127241Y0060764D01*
X0126758Y0060764D01*
X0127241Y0060764D02*
X0127725Y0061248D01*
X0127725Y0061732D01*
X0127241Y0062215D01*
X0126274Y0062215D01*
X0125790Y0061732D01*
X0120894Y0060669D02*
X0120411Y0061152D01*
X0119443Y0061152D01*
X0118959Y0060669D01*
X0135469Y0060379D02*
X0135953Y0059895D01*
X0136920Y0059895D01*
X0137404Y0060379D01*
X0138415Y0060379D02*
X0138899Y0059895D01*
X0139867Y0059895D01*
X0140350Y0060379D01*
X0140350Y0061346D01*
X0139867Y0061830D01*
X0139383Y0061830D01*
X0138415Y0061346D01*
X0138415Y0062797D01*
X0140350Y0062797D01*
X0137404Y0062314D02*
X0136920Y0062797D01*
X0135953Y0062797D01*
X0135469Y0062314D01*
X0135469Y0060379D01*
X0127241Y0070805D02*
X0126274Y0070805D01*
X0125790Y0071289D01*
X0125790Y0071773D01*
X0126274Y0072256D01*
X0127241Y0072256D01*
X0127725Y0071773D01*
X0127725Y0071289D01*
X0127241Y0070805D01*
X0124295Y0070805D02*
X0124295Y0073708D01*
X0122844Y0072256D01*
X0124779Y0072256D01*
X0125790Y0072740D02*
X0126274Y0072256D01*
X0125790Y0072740D02*
X0125790Y0073224D01*
X0126274Y0073708D01*
X0127241Y0073708D01*
X0127725Y0073224D01*
X0127725Y0072740D01*
X0127241Y0072256D01*
X0121832Y0070805D02*
X0119897Y0070805D01*
X0120865Y0070805D02*
X0120865Y0073708D01*
X0119897Y0072740D01*
X0118886Y0072256D02*
X0116951Y0072256D01*
X0118402Y0073708D01*
X0118402Y0070805D01*
X0115939Y0070805D02*
X0115939Y0073708D01*
X0114004Y0073708D02*
X0115939Y0070805D01*
X0114004Y0070805D02*
X0114004Y0073708D01*
X0112025Y0073708D02*
X0112025Y0070805D01*
X0111058Y0070805D02*
X0112992Y0070805D01*
X0111058Y0072740D02*
X0112025Y0073708D01*
X0063394Y0073250D02*
X0063394Y0076152D01*
X0062427Y0075185D01*
X0061459Y0076152D01*
X0061459Y0073250D01*
X0060448Y0073250D02*
X0058513Y0073250D01*
X0059480Y0073250D02*
X0059480Y0076152D01*
X0058513Y0075185D01*
X0059480Y0056152D02*
X0059480Y0053250D01*
X0058513Y0053250D02*
X0060448Y0053250D01*
X0061459Y0053734D02*
X0061943Y0053250D01*
X0062911Y0053250D01*
X0063394Y0053734D01*
X0063394Y0054217D01*
X0062911Y0054701D01*
X0061943Y0054701D01*
X0061459Y0055185D01*
X0061459Y0055669D01*
X0061943Y0056152D01*
X0062911Y0056152D01*
X0063394Y0055669D01*
X0063394Y0055185D01*
X0062911Y0054701D01*
X0061943Y0054701D02*
X0061459Y0054217D01*
X0061459Y0053734D01*
X0059480Y0056152D02*
X0058513Y0055185D01*
X0057501Y0055669D02*
X0057501Y0054701D01*
X0057018Y0054217D01*
X0055566Y0054217D01*
X0055566Y0053250D02*
X0055566Y0056152D01*
X0057018Y0056152D01*
X0057501Y0055669D01*
X0056534Y0054217D02*
X0057501Y0053250D01*
X0186906Y0063950D02*
X0186906Y0066852D01*
X0188357Y0066852D01*
X0188841Y0066369D01*
X0188841Y0065401D01*
X0188357Y0064917D01*
X0186906Y0064917D01*
X0187873Y0064917D02*
X0188841Y0063950D01*
X0189852Y0063950D02*
X0191787Y0063950D01*
X0190820Y0063950D02*
X0190820Y0066852D01*
X0189852Y0065885D01*
X0192799Y0065885D02*
X0193766Y0066852D01*
X0193766Y0063950D01*
X0192799Y0063950D02*
X0194734Y0063950D01*
X0211906Y0063950D02*
X0211906Y0066852D01*
X0213357Y0066852D01*
X0213841Y0066369D01*
X0213841Y0065401D01*
X0213357Y0064917D01*
X0211906Y0064917D01*
X0212873Y0064917D02*
X0213841Y0063950D01*
X0214852Y0064434D02*
X0214852Y0064917D01*
X0215336Y0065401D01*
X0216304Y0065401D01*
X0216787Y0064917D01*
X0216787Y0064434D01*
X0216304Y0063950D01*
X0215336Y0063950D01*
X0214852Y0064434D01*
X0215336Y0065401D02*
X0214852Y0065885D01*
X0214852Y0066369D01*
X0215336Y0066852D01*
X0216304Y0066852D01*
X0216787Y0066369D01*
X0216787Y0065885D01*
X0216304Y0065401D01*
X0266906Y0068950D02*
X0266906Y0071852D01*
X0268357Y0071852D01*
X0268841Y0071369D01*
X0268841Y0070401D01*
X0268357Y0069917D01*
X0266906Y0069917D01*
X0267873Y0069917D02*
X0268841Y0068950D01*
X0269852Y0068950D02*
X0271787Y0070885D01*
X0271787Y0071369D01*
X0271304Y0071852D01*
X0270336Y0071852D01*
X0269852Y0071369D01*
X0269852Y0068950D02*
X0271787Y0068950D01*
X0271809Y0061852D02*
X0271326Y0061369D01*
X0271809Y0061852D02*
X0272777Y0061852D01*
X0273261Y0061369D01*
X0273261Y0060885D01*
X0271326Y0058950D01*
X0273261Y0058950D01*
X0274272Y0058950D02*
X0274272Y0061852D01*
X0274756Y0060401D02*
X0276207Y0058950D01*
X0274272Y0059917D02*
X0276207Y0061852D01*
X0267873Y0061852D02*
X0266906Y0060885D01*
X0267873Y0061852D02*
X0267873Y0058950D01*
X0266906Y0058950D02*
X0268841Y0058950D01*
X0269852Y0058950D02*
X0270336Y0058950D01*
X0270336Y0059434D01*
X0269852Y0059434D01*
X0269852Y0058950D01*
X0270336Y0051852D02*
X0271304Y0051852D01*
X0271787Y0051369D01*
X0271787Y0050885D01*
X0271304Y0050401D01*
X0271787Y0049917D01*
X0271787Y0049434D01*
X0271304Y0048950D01*
X0270336Y0048950D01*
X0269852Y0049434D01*
X0268841Y0048950D02*
X0267873Y0049917D01*
X0268357Y0049917D02*
X0266906Y0049917D01*
X0266906Y0048950D02*
X0266906Y0051852D01*
X0268357Y0051852D01*
X0268841Y0051369D01*
X0268841Y0050401D01*
X0268357Y0049917D01*
X0270820Y0050401D02*
X0271304Y0050401D01*
X0270336Y0051852D02*
X0269852Y0051369D01*
X0306906Y0058950D02*
X0308841Y0060885D01*
X0308841Y0061369D01*
X0308357Y0061852D01*
X0307390Y0061852D01*
X0306906Y0061369D01*
X0311326Y0061369D02*
X0311809Y0061852D01*
X0312777Y0061852D01*
X0313261Y0061369D01*
X0313261Y0060885D01*
X0311326Y0058950D01*
X0313261Y0058950D01*
X0314272Y0058950D02*
X0314272Y0061852D01*
X0314756Y0060401D02*
X0316207Y0058950D01*
X0314272Y0059917D02*
X0316207Y0061852D01*
X0310336Y0059434D02*
X0310336Y0058950D01*
X0309852Y0058950D01*
X0309852Y0059434D01*
X0310336Y0059434D01*
X0308841Y0058950D02*
X0306906Y0058950D01*
X0346906Y0058950D02*
X0348841Y0058950D01*
X0347873Y0058950D02*
X0347873Y0061852D01*
X0346906Y0060885D01*
X0349852Y0061369D02*
X0350336Y0061852D01*
X0351304Y0061852D01*
X0351787Y0061369D01*
X0349852Y0059434D01*
X0350336Y0058950D01*
X0351304Y0058950D01*
X0351787Y0059434D01*
X0351787Y0061369D01*
X0352799Y0061369D02*
X0353283Y0061852D01*
X0354250Y0061852D01*
X0354734Y0061369D01*
X0352799Y0059434D01*
X0353283Y0058950D01*
X0354250Y0058950D01*
X0354734Y0059434D01*
X0354734Y0061369D01*
X0355745Y0061852D02*
X0355745Y0058950D01*
X0355745Y0059917D02*
X0357680Y0061852D01*
X0356229Y0060401D02*
X0357680Y0058950D01*
X0352799Y0059434D02*
X0352799Y0061369D01*
X0349852Y0061369D02*
X0349852Y0059434D01*
X0350336Y0068950D02*
X0349852Y0069434D01*
X0350336Y0068950D02*
X0351304Y0068950D01*
X0351787Y0069434D01*
X0351787Y0070401D01*
X0351304Y0070885D01*
X0350820Y0070885D01*
X0349852Y0070401D01*
X0349852Y0071852D01*
X0351787Y0071852D01*
X0348841Y0071369D02*
X0348841Y0070401D01*
X0348357Y0069917D01*
X0346906Y0069917D01*
X0346906Y0068950D02*
X0346906Y0071852D01*
X0348357Y0071852D01*
X0348841Y0071369D01*
X0347873Y0069917D02*
X0348841Y0068950D01*
X0311787Y0068950D02*
X0309852Y0068950D01*
X0310820Y0068950D02*
X0310820Y0071852D01*
X0309852Y0070885D01*
X0308841Y0071369D02*
X0308841Y0070401D01*
X0308357Y0069917D01*
X0306906Y0069917D01*
X0306906Y0068950D02*
X0306906Y0071852D01*
X0308357Y0071852D01*
X0308841Y0071369D01*
X0307873Y0069917D02*
X0308841Y0068950D01*
X0311906Y0046852D02*
X0313357Y0046852D01*
X0313841Y0046369D01*
X0313841Y0045401D01*
X0313357Y0044917D01*
X0311906Y0044917D01*
X0311906Y0043950D02*
X0311906Y0046852D01*
X0314852Y0045401D02*
X0315820Y0046369D01*
X0316787Y0046852D01*
X0316304Y0045401D02*
X0314852Y0045401D01*
X0314852Y0044434D01*
X0315336Y0043950D01*
X0316304Y0043950D01*
X0316787Y0044434D01*
X0316787Y0044917D01*
X0316304Y0045401D01*
X0313841Y0043950D02*
X0312873Y0044917D01*
X0052234Y0021369D02*
X0052234Y0020885D01*
X0051750Y0020401D01*
X0052234Y0019917D01*
X0052234Y0019434D01*
X0051750Y0018950D01*
X0050783Y0018950D01*
X0050299Y0019434D01*
X0049287Y0018950D02*
X0047352Y0018950D01*
X0048320Y0018950D02*
X0048320Y0021852D01*
X0047352Y0020885D01*
X0046341Y0021369D02*
X0046341Y0020401D01*
X0045857Y0019917D01*
X0044406Y0019917D01*
X0045373Y0019917D02*
X0046341Y0018950D01*
X0044406Y0018950D02*
X0044406Y0021852D01*
X0045857Y0021852D01*
X0046341Y0021369D01*
X0050299Y0021369D02*
X0050783Y0021852D01*
X0051750Y0021852D01*
X0052234Y0021369D01*
X0051750Y0020401D02*
X0051266Y0020401D01*
D13*
X0127727Y0021069D02*
X0127727Y0020529D01*
X0127726Y0020530D02*
X0127646Y0020526D01*
X0127565Y0020519D01*
X0127486Y0020509D01*
X0127406Y0020494D01*
X0127328Y0020476D01*
X0127250Y0020454D01*
X0127174Y0020429D01*
X0127099Y0020400D01*
X0127025Y0020368D01*
X0126953Y0020332D01*
X0126882Y0020293D01*
X0126814Y0020251D01*
X0126747Y0020206D01*
X0126683Y0020157D01*
X0126621Y0020106D01*
X0126562Y0020051D01*
X0126505Y0019994D01*
X0126450Y0019935D01*
X0126399Y0019873D01*
X0126350Y0019809D01*
X0126305Y0019742D01*
X0126263Y0019674D01*
X0126224Y0019603D01*
X0126188Y0019531D01*
X0126156Y0019457D01*
X0126127Y0019382D01*
X0126102Y0019306D01*
X0126080Y0019228D01*
X0126062Y0019150D01*
X0126047Y0019070D01*
X0126037Y0018991D01*
X0126030Y0018910D01*
X0126026Y0018830D01*
X0125487Y0018829D01*
X0125486Y0018830D01*
X0125489Y0018925D01*
X0125497Y0019019D01*
X0125508Y0019113D01*
X0125523Y0019207D01*
X0125542Y0019300D01*
X0125564Y0019392D01*
X0125591Y0019483D01*
X0125621Y0019572D01*
X0125655Y0019661D01*
X0125693Y0019748D01*
X0125735Y0019833D01*
X0125779Y0019916D01*
X0125828Y0019998D01*
X0125879Y0020077D01*
X0125934Y0020154D01*
X0125992Y0020229D01*
X0126054Y0020302D01*
X0126118Y0020371D01*
X0126185Y0020438D01*
X0126254Y0020502D01*
X0126327Y0020564D01*
X0126402Y0020622D01*
X0126479Y0020677D01*
X0126558Y0020728D01*
X0126640Y0020777D01*
X0126723Y0020821D01*
X0126808Y0020863D01*
X0126895Y0020901D01*
X0126984Y0020935D01*
X0127073Y0020965D01*
X0127164Y0020992D01*
X0127256Y0021014D01*
X0127349Y0021033D01*
X0127443Y0021048D01*
X0127537Y0021059D01*
X0127631Y0021067D01*
X0127726Y0021070D01*
X0127726Y0021014D01*
X0127634Y0021011D01*
X0127542Y0021004D01*
X0127450Y0020993D01*
X0127359Y0020978D01*
X0127268Y0020960D01*
X0127179Y0020937D01*
X0127090Y0020911D01*
X0127002Y0020882D01*
X0126916Y0020849D01*
X0126832Y0020812D01*
X0126748Y0020771D01*
X0126667Y0020728D01*
X0126588Y0020681D01*
X0126510Y0020630D01*
X0126435Y0020577D01*
X0126362Y0020520D01*
X0126291Y0020460D01*
X0126223Y0020398D01*
X0126158Y0020333D01*
X0126096Y0020265D01*
X0126036Y0020194D01*
X0125979Y0020121D01*
X0125926Y0020046D01*
X0125875Y0019968D01*
X0125828Y0019889D01*
X0125785Y0019808D01*
X0125744Y0019724D01*
X0125707Y0019640D01*
X0125674Y0019554D01*
X0125645Y0019466D01*
X0125619Y0019377D01*
X0125596Y0019288D01*
X0125578Y0019197D01*
X0125563Y0019106D01*
X0125552Y0019014D01*
X0125545Y0018922D01*
X0125542Y0018830D01*
X0125598Y0018830D01*
X0125601Y0018922D01*
X0125609Y0019015D01*
X0125620Y0019106D01*
X0125635Y0019198D01*
X0125654Y0019288D01*
X0125677Y0019378D01*
X0125703Y0019466D01*
X0125734Y0019554D01*
X0125768Y0019640D01*
X0125806Y0019724D01*
X0125847Y0019807D01*
X0125892Y0019888D01*
X0125940Y0019967D01*
X0125992Y0020043D01*
X0126047Y0020118D01*
X0126105Y0020190D01*
X0126166Y0020259D01*
X0126230Y0020326D01*
X0126297Y0020390D01*
X0126366Y0020451D01*
X0126438Y0020509D01*
X0126513Y0020564D01*
X0126589Y0020616D01*
X0126668Y0020664D01*
X0126749Y0020709D01*
X0126832Y0020750D01*
X0126916Y0020788D01*
X0127002Y0020822D01*
X0127090Y0020853D01*
X0127178Y0020879D01*
X0127268Y0020902D01*
X0127358Y0020921D01*
X0127450Y0020936D01*
X0127541Y0020947D01*
X0127634Y0020955D01*
X0127726Y0020958D01*
X0127726Y0020902D01*
X0127636Y0020899D01*
X0127546Y0020892D01*
X0127457Y0020881D01*
X0127368Y0020866D01*
X0127280Y0020847D01*
X0127193Y0020825D01*
X0127106Y0020799D01*
X0127021Y0020769D01*
X0126938Y0020736D01*
X0126856Y0020699D01*
X0126775Y0020659D01*
X0126696Y0020615D01*
X0126620Y0020568D01*
X0126545Y0020518D01*
X0126472Y0020465D01*
X0126402Y0020408D01*
X0126335Y0020349D01*
X0126270Y0020286D01*
X0126207Y0020221D01*
X0126148Y0020154D01*
X0126091Y0020084D01*
X0126038Y0020011D01*
X0125988Y0019936D01*
X0125941Y0019860D01*
X0125897Y0019781D01*
X0125857Y0019700D01*
X0125820Y0019618D01*
X0125787Y0019535D01*
X0125757Y0019450D01*
X0125731Y0019363D01*
X0125709Y0019276D01*
X0125690Y0019188D01*
X0125675Y0019099D01*
X0125664Y0019010D01*
X0125657Y0018920D01*
X0125654Y0018830D01*
X0125710Y0018830D01*
X0125713Y0018918D01*
X0125720Y0019005D01*
X0125731Y0019092D01*
X0125745Y0019178D01*
X0125763Y0019264D01*
X0125785Y0019349D01*
X0125810Y0019433D01*
X0125839Y0019515D01*
X0125872Y0019597D01*
X0125907Y0019677D01*
X0125947Y0019755D01*
X0125989Y0019832D01*
X0126035Y0019906D01*
X0126084Y0019979D01*
X0126136Y0020049D01*
X0126191Y0020118D01*
X0126249Y0020183D01*
X0126309Y0020247D01*
X0126373Y0020307D01*
X0126438Y0020365D01*
X0126507Y0020420D01*
X0126577Y0020472D01*
X0126650Y0020521D01*
X0126724Y0020567D01*
X0126801Y0020609D01*
X0126879Y0020649D01*
X0126959Y0020684D01*
X0127041Y0020717D01*
X0127123Y0020746D01*
X0127207Y0020771D01*
X0127292Y0020793D01*
X0127378Y0020811D01*
X0127464Y0020825D01*
X0127551Y0020836D01*
X0127638Y0020843D01*
X0127726Y0020846D01*
X0127726Y0020790D01*
X0127638Y0020787D01*
X0127551Y0020779D01*
X0127464Y0020768D01*
X0127378Y0020754D01*
X0127292Y0020735D01*
X0127208Y0020713D01*
X0127124Y0020687D01*
X0127042Y0020657D01*
X0126961Y0020624D01*
X0126881Y0020587D01*
X0126803Y0020547D01*
X0126727Y0020503D01*
X0126653Y0020457D01*
X0126581Y0020406D01*
X0126512Y0020353D01*
X0126445Y0020297D01*
X0126380Y0020238D01*
X0126318Y0020176D01*
X0126259Y0020111D01*
X0126203Y0020044D01*
X0126150Y0019975D01*
X0126099Y0019903D01*
X0126053Y0019829D01*
X0126009Y0019753D01*
X0125969Y0019675D01*
X0125932Y0019595D01*
X0125899Y0019514D01*
X0125869Y0019432D01*
X0125843Y0019348D01*
X0125821Y0019264D01*
X0125802Y0019178D01*
X0125788Y0019092D01*
X0125777Y0019005D01*
X0125769Y0018918D01*
X0125766Y0018830D01*
X0125822Y0018830D01*
X0125825Y0018915D01*
X0125832Y0019000D01*
X0125843Y0019084D01*
X0125857Y0019168D01*
X0125875Y0019251D01*
X0125897Y0019333D01*
X0125922Y0019415D01*
X0125951Y0019495D01*
X0125983Y0019573D01*
X0126019Y0019651D01*
X0126058Y0019726D01*
X0126101Y0019800D01*
X0126146Y0019872D01*
X0126195Y0019942D01*
X0126247Y0020009D01*
X0126301Y0020074D01*
X0126359Y0020137D01*
X0126419Y0020197D01*
X0126482Y0020255D01*
X0126547Y0020309D01*
X0126614Y0020361D01*
X0126684Y0020410D01*
X0126756Y0020455D01*
X0126830Y0020498D01*
X0126905Y0020537D01*
X0126983Y0020573D01*
X0127061Y0020605D01*
X0127141Y0020634D01*
X0127223Y0020659D01*
X0127305Y0020681D01*
X0127388Y0020699D01*
X0127472Y0020713D01*
X0127556Y0020724D01*
X0127641Y0020731D01*
X0127726Y0020734D01*
X0127726Y0020678D01*
X0127641Y0020674D01*
X0127556Y0020667D01*
X0127472Y0020656D01*
X0127388Y0020642D01*
X0127305Y0020623D01*
X0127223Y0020601D01*
X0127142Y0020575D01*
X0127063Y0020545D01*
X0126985Y0020512D01*
X0126908Y0020476D01*
X0126833Y0020435D01*
X0126760Y0020392D01*
X0126689Y0020345D01*
X0126620Y0020295D01*
X0126554Y0020243D01*
X0126489Y0020187D01*
X0126428Y0020128D01*
X0126369Y0020067D01*
X0126313Y0020002D01*
X0126261Y0019936D01*
X0126211Y0019867D01*
X0126164Y0019796D01*
X0126121Y0019723D01*
X0126080Y0019648D01*
X0126044Y0019571D01*
X0126011Y0019493D01*
X0125981Y0019414D01*
X0125955Y0019333D01*
X0125933Y0019251D01*
X0125914Y0019168D01*
X0125900Y0019084D01*
X0125889Y0019000D01*
X0125882Y0018915D01*
X0125878Y0018830D01*
X0125934Y0018830D01*
X0125937Y0018912D01*
X0125944Y0018994D01*
X0125955Y0019076D01*
X0125969Y0019157D01*
X0125987Y0019238D01*
X0126009Y0019317D01*
X0126034Y0019396D01*
X0126063Y0019473D01*
X0126095Y0019549D01*
X0126131Y0019623D01*
X0126169Y0019696D01*
X0126212Y0019767D01*
X0126257Y0019835D01*
X0126305Y0019902D01*
X0126357Y0019967D01*
X0126411Y0020029D01*
X0126468Y0020088D01*
X0126527Y0020145D01*
X0126589Y0020199D01*
X0126654Y0020251D01*
X0126721Y0020299D01*
X0126789Y0020344D01*
X0126860Y0020387D01*
X0126933Y0020425D01*
X0127007Y0020461D01*
X0127083Y0020493D01*
X0127160Y0020522D01*
X0127239Y0020547D01*
X0127318Y0020569D01*
X0127399Y0020587D01*
X0127480Y0020601D01*
X0127562Y0020612D01*
X0127644Y0020619D01*
X0127726Y0020622D01*
X0127726Y0020566D01*
X0127644Y0020562D01*
X0127562Y0020555D01*
X0127480Y0020544D01*
X0127399Y0020530D01*
X0127319Y0020511D01*
X0127240Y0020489D01*
X0127162Y0020463D01*
X0127085Y0020434D01*
X0127010Y0020401D01*
X0126936Y0020364D01*
X0126864Y0020324D01*
X0126794Y0020281D01*
X0126726Y0020235D01*
X0126661Y0020185D01*
X0126597Y0020133D01*
X0126537Y0020077D01*
X0126479Y0020019D01*
X0126423Y0019959D01*
X0126371Y0019895D01*
X0126321Y0019830D01*
X0126275Y0019762D01*
X0126232Y0019692D01*
X0126192Y0019620D01*
X0126155Y0019546D01*
X0126122Y0019471D01*
X0126093Y0019394D01*
X0126067Y0019316D01*
X0126045Y0019237D01*
X0126026Y0019157D01*
X0126012Y0019076D01*
X0126001Y0018994D01*
X0125994Y0018912D01*
X0125990Y0018830D01*
X0143025Y0018829D02*
X0142485Y0018829D01*
X0142486Y0018830D02*
X0142482Y0018910D01*
X0142475Y0018991D01*
X0142465Y0019070D01*
X0142450Y0019150D01*
X0142432Y0019228D01*
X0142410Y0019306D01*
X0142385Y0019382D01*
X0142356Y0019457D01*
X0142324Y0019531D01*
X0142288Y0019603D01*
X0142249Y0019674D01*
X0142207Y0019742D01*
X0142162Y0019809D01*
X0142113Y0019873D01*
X0142062Y0019935D01*
X0142007Y0019994D01*
X0141950Y0020051D01*
X0141891Y0020106D01*
X0141829Y0020157D01*
X0141765Y0020206D01*
X0141698Y0020251D01*
X0141630Y0020293D01*
X0141559Y0020332D01*
X0141487Y0020368D01*
X0141413Y0020400D01*
X0141338Y0020429D01*
X0141262Y0020454D01*
X0141184Y0020476D01*
X0141106Y0020494D01*
X0141026Y0020509D01*
X0140947Y0020519D01*
X0140866Y0020526D01*
X0140786Y0020530D01*
X0140785Y0021069D01*
X0140786Y0021070D01*
X0140881Y0021067D01*
X0140975Y0021059D01*
X0141069Y0021048D01*
X0141163Y0021033D01*
X0141256Y0021014D01*
X0141348Y0020992D01*
X0141439Y0020965D01*
X0141528Y0020935D01*
X0141617Y0020901D01*
X0141704Y0020863D01*
X0141789Y0020821D01*
X0141872Y0020777D01*
X0141954Y0020728D01*
X0142033Y0020677D01*
X0142110Y0020622D01*
X0142185Y0020564D01*
X0142258Y0020502D01*
X0142327Y0020438D01*
X0142394Y0020371D01*
X0142458Y0020302D01*
X0142520Y0020229D01*
X0142578Y0020154D01*
X0142633Y0020077D01*
X0142684Y0019998D01*
X0142733Y0019916D01*
X0142777Y0019833D01*
X0142819Y0019748D01*
X0142857Y0019661D01*
X0142891Y0019572D01*
X0142921Y0019483D01*
X0142948Y0019392D01*
X0142970Y0019300D01*
X0142989Y0019207D01*
X0143004Y0019113D01*
X0143015Y0019019D01*
X0143023Y0018925D01*
X0143026Y0018830D01*
X0142970Y0018830D01*
X0142967Y0018922D01*
X0142960Y0019014D01*
X0142949Y0019106D01*
X0142934Y0019197D01*
X0142916Y0019288D01*
X0142893Y0019377D01*
X0142867Y0019466D01*
X0142838Y0019554D01*
X0142805Y0019640D01*
X0142768Y0019724D01*
X0142727Y0019808D01*
X0142684Y0019889D01*
X0142637Y0019968D01*
X0142586Y0020046D01*
X0142533Y0020121D01*
X0142476Y0020194D01*
X0142416Y0020265D01*
X0142354Y0020333D01*
X0142289Y0020398D01*
X0142221Y0020460D01*
X0142150Y0020520D01*
X0142077Y0020577D01*
X0142002Y0020630D01*
X0141924Y0020681D01*
X0141845Y0020728D01*
X0141764Y0020771D01*
X0141680Y0020812D01*
X0141596Y0020849D01*
X0141510Y0020882D01*
X0141422Y0020911D01*
X0141333Y0020937D01*
X0141244Y0020960D01*
X0141153Y0020978D01*
X0141062Y0020993D01*
X0140970Y0021004D01*
X0140878Y0021011D01*
X0140786Y0021014D01*
X0140786Y0020958D01*
X0140878Y0020955D01*
X0140971Y0020947D01*
X0141062Y0020936D01*
X0141154Y0020921D01*
X0141244Y0020902D01*
X0141334Y0020879D01*
X0141422Y0020853D01*
X0141510Y0020822D01*
X0141596Y0020788D01*
X0141680Y0020750D01*
X0141763Y0020709D01*
X0141844Y0020664D01*
X0141923Y0020616D01*
X0141999Y0020564D01*
X0142074Y0020509D01*
X0142146Y0020451D01*
X0142215Y0020390D01*
X0142282Y0020326D01*
X0142346Y0020259D01*
X0142407Y0020190D01*
X0142465Y0020118D01*
X0142520Y0020043D01*
X0142572Y0019967D01*
X0142620Y0019888D01*
X0142665Y0019807D01*
X0142706Y0019724D01*
X0142744Y0019640D01*
X0142778Y0019554D01*
X0142809Y0019466D01*
X0142835Y0019378D01*
X0142858Y0019288D01*
X0142877Y0019198D01*
X0142892Y0019106D01*
X0142903Y0019015D01*
X0142911Y0018922D01*
X0142914Y0018830D01*
X0142858Y0018830D01*
X0142855Y0018920D01*
X0142848Y0019010D01*
X0142837Y0019099D01*
X0142822Y0019188D01*
X0142803Y0019276D01*
X0142781Y0019363D01*
X0142755Y0019450D01*
X0142725Y0019535D01*
X0142692Y0019618D01*
X0142655Y0019700D01*
X0142615Y0019781D01*
X0142571Y0019860D01*
X0142524Y0019936D01*
X0142474Y0020011D01*
X0142421Y0020084D01*
X0142364Y0020154D01*
X0142305Y0020221D01*
X0142242Y0020286D01*
X0142177Y0020349D01*
X0142110Y0020408D01*
X0142040Y0020465D01*
X0141967Y0020518D01*
X0141892Y0020568D01*
X0141816Y0020615D01*
X0141737Y0020659D01*
X0141656Y0020699D01*
X0141574Y0020736D01*
X0141491Y0020769D01*
X0141406Y0020799D01*
X0141319Y0020825D01*
X0141232Y0020847D01*
X0141144Y0020866D01*
X0141055Y0020881D01*
X0140966Y0020892D01*
X0140876Y0020899D01*
X0140786Y0020902D01*
X0140786Y0020846D01*
X0140874Y0020843D01*
X0140961Y0020836D01*
X0141048Y0020825D01*
X0141134Y0020811D01*
X0141220Y0020793D01*
X0141305Y0020771D01*
X0141389Y0020746D01*
X0141471Y0020717D01*
X0141553Y0020684D01*
X0141633Y0020649D01*
X0141711Y0020609D01*
X0141788Y0020567D01*
X0141862Y0020521D01*
X0141935Y0020472D01*
X0142005Y0020420D01*
X0142074Y0020365D01*
X0142139Y0020307D01*
X0142203Y0020247D01*
X0142263Y0020183D01*
X0142321Y0020118D01*
X0142376Y0020049D01*
X0142428Y0019979D01*
X0142477Y0019906D01*
X0142523Y0019832D01*
X0142565Y0019755D01*
X0142605Y0019677D01*
X0142640Y0019597D01*
X0142673Y0019515D01*
X0142702Y0019433D01*
X0142727Y0019349D01*
X0142749Y0019264D01*
X0142767Y0019178D01*
X0142781Y0019092D01*
X0142792Y0019005D01*
X0142799Y0018918D01*
X0142802Y0018830D01*
X0142746Y0018830D01*
X0142743Y0018918D01*
X0142735Y0019005D01*
X0142724Y0019092D01*
X0142710Y0019178D01*
X0142691Y0019264D01*
X0142669Y0019348D01*
X0142643Y0019432D01*
X0142613Y0019514D01*
X0142580Y0019595D01*
X0142543Y0019675D01*
X0142503Y0019753D01*
X0142459Y0019829D01*
X0142413Y0019903D01*
X0142362Y0019975D01*
X0142309Y0020044D01*
X0142253Y0020111D01*
X0142194Y0020176D01*
X0142132Y0020238D01*
X0142067Y0020297D01*
X0142000Y0020353D01*
X0141931Y0020406D01*
X0141859Y0020457D01*
X0141785Y0020503D01*
X0141709Y0020547D01*
X0141631Y0020587D01*
X0141551Y0020624D01*
X0141470Y0020657D01*
X0141388Y0020687D01*
X0141304Y0020713D01*
X0141220Y0020735D01*
X0141134Y0020754D01*
X0141048Y0020768D01*
X0140961Y0020779D01*
X0140874Y0020787D01*
X0140786Y0020790D01*
X0140786Y0020734D01*
X0140871Y0020731D01*
X0140956Y0020724D01*
X0141040Y0020713D01*
X0141124Y0020699D01*
X0141207Y0020681D01*
X0141289Y0020659D01*
X0141371Y0020634D01*
X0141451Y0020605D01*
X0141529Y0020573D01*
X0141607Y0020537D01*
X0141682Y0020498D01*
X0141756Y0020455D01*
X0141828Y0020410D01*
X0141898Y0020361D01*
X0141965Y0020309D01*
X0142030Y0020255D01*
X0142093Y0020197D01*
X0142153Y0020137D01*
X0142211Y0020074D01*
X0142265Y0020009D01*
X0142317Y0019942D01*
X0142366Y0019872D01*
X0142411Y0019800D01*
X0142454Y0019726D01*
X0142493Y0019651D01*
X0142529Y0019573D01*
X0142561Y0019495D01*
X0142590Y0019415D01*
X0142615Y0019333D01*
X0142637Y0019251D01*
X0142655Y0019168D01*
X0142669Y0019084D01*
X0142680Y0019000D01*
X0142687Y0018915D01*
X0142690Y0018830D01*
X0142634Y0018830D01*
X0142630Y0018915D01*
X0142623Y0019000D01*
X0142612Y0019084D01*
X0142598Y0019168D01*
X0142579Y0019251D01*
X0142557Y0019333D01*
X0142531Y0019414D01*
X0142501Y0019493D01*
X0142468Y0019571D01*
X0142432Y0019648D01*
X0142391Y0019723D01*
X0142348Y0019796D01*
X0142301Y0019867D01*
X0142251Y0019936D01*
X0142199Y0020002D01*
X0142143Y0020067D01*
X0142084Y0020128D01*
X0142023Y0020187D01*
X0141958Y0020243D01*
X0141892Y0020295D01*
X0141823Y0020345D01*
X0141752Y0020392D01*
X0141679Y0020435D01*
X0141604Y0020476D01*
X0141527Y0020512D01*
X0141449Y0020545D01*
X0141370Y0020575D01*
X0141289Y0020601D01*
X0141207Y0020623D01*
X0141124Y0020642D01*
X0141040Y0020656D01*
X0140956Y0020667D01*
X0140871Y0020674D01*
X0140786Y0020678D01*
X0140786Y0020622D01*
X0140868Y0020619D01*
X0140950Y0020612D01*
X0141032Y0020601D01*
X0141113Y0020587D01*
X0141194Y0020569D01*
X0141273Y0020547D01*
X0141352Y0020522D01*
X0141429Y0020493D01*
X0141505Y0020461D01*
X0141579Y0020425D01*
X0141652Y0020387D01*
X0141723Y0020344D01*
X0141791Y0020299D01*
X0141858Y0020251D01*
X0141923Y0020199D01*
X0141985Y0020145D01*
X0142044Y0020088D01*
X0142101Y0020029D01*
X0142155Y0019967D01*
X0142207Y0019902D01*
X0142255Y0019835D01*
X0142300Y0019767D01*
X0142343Y0019696D01*
X0142381Y0019623D01*
X0142417Y0019549D01*
X0142449Y0019473D01*
X0142478Y0019396D01*
X0142503Y0019317D01*
X0142525Y0019238D01*
X0142543Y0019157D01*
X0142557Y0019076D01*
X0142568Y0018994D01*
X0142575Y0018912D01*
X0142578Y0018830D01*
X0142522Y0018830D01*
X0142518Y0018912D01*
X0142511Y0018994D01*
X0142500Y0019076D01*
X0142486Y0019157D01*
X0142467Y0019237D01*
X0142445Y0019316D01*
X0142419Y0019394D01*
X0142390Y0019471D01*
X0142357Y0019546D01*
X0142320Y0019620D01*
X0142280Y0019692D01*
X0142237Y0019762D01*
X0142191Y0019830D01*
X0142141Y0019895D01*
X0142089Y0019959D01*
X0142033Y0020019D01*
X0141975Y0020077D01*
X0141915Y0020133D01*
X0141851Y0020185D01*
X0141786Y0020235D01*
X0141718Y0020281D01*
X0141648Y0020324D01*
X0141576Y0020364D01*
X0141502Y0020401D01*
X0141427Y0020434D01*
X0141350Y0020463D01*
X0141272Y0020489D01*
X0141193Y0020511D01*
X0141113Y0020530D01*
X0141032Y0020544D01*
X0140950Y0020555D01*
X0140868Y0020562D01*
X0140786Y0020566D01*
X0140785Y0011531D02*
X0140785Y0012071D01*
X0140786Y0012070D02*
X0140866Y0012074D01*
X0140947Y0012081D01*
X0141026Y0012091D01*
X0141106Y0012106D01*
X0141184Y0012124D01*
X0141262Y0012146D01*
X0141338Y0012171D01*
X0141413Y0012200D01*
X0141487Y0012232D01*
X0141559Y0012268D01*
X0141630Y0012307D01*
X0141698Y0012349D01*
X0141765Y0012394D01*
X0141829Y0012443D01*
X0141891Y0012494D01*
X0141950Y0012549D01*
X0142007Y0012606D01*
X0142062Y0012665D01*
X0142113Y0012727D01*
X0142162Y0012791D01*
X0142207Y0012858D01*
X0142249Y0012926D01*
X0142288Y0012997D01*
X0142324Y0013069D01*
X0142356Y0013143D01*
X0142385Y0013218D01*
X0142410Y0013294D01*
X0142432Y0013372D01*
X0142450Y0013450D01*
X0142465Y0013530D01*
X0142475Y0013609D01*
X0142482Y0013690D01*
X0142486Y0013770D01*
X0143025Y0013771D01*
X0143026Y0013770D01*
X0143023Y0013675D01*
X0143015Y0013581D01*
X0143004Y0013487D01*
X0142989Y0013393D01*
X0142970Y0013300D01*
X0142948Y0013208D01*
X0142921Y0013117D01*
X0142891Y0013028D01*
X0142857Y0012939D01*
X0142819Y0012852D01*
X0142777Y0012767D01*
X0142733Y0012684D01*
X0142684Y0012602D01*
X0142633Y0012523D01*
X0142578Y0012446D01*
X0142520Y0012371D01*
X0142458Y0012298D01*
X0142394Y0012229D01*
X0142327Y0012162D01*
X0142258Y0012098D01*
X0142185Y0012036D01*
X0142110Y0011978D01*
X0142033Y0011923D01*
X0141954Y0011872D01*
X0141872Y0011823D01*
X0141789Y0011779D01*
X0141704Y0011737D01*
X0141617Y0011699D01*
X0141528Y0011665D01*
X0141439Y0011635D01*
X0141348Y0011608D01*
X0141256Y0011586D01*
X0141163Y0011567D01*
X0141069Y0011552D01*
X0140975Y0011541D01*
X0140881Y0011533D01*
X0140786Y0011530D01*
X0140786Y0011586D01*
X0140878Y0011589D01*
X0140970Y0011596D01*
X0141062Y0011607D01*
X0141153Y0011622D01*
X0141244Y0011640D01*
X0141333Y0011663D01*
X0141422Y0011689D01*
X0141510Y0011718D01*
X0141596Y0011751D01*
X0141680Y0011788D01*
X0141764Y0011829D01*
X0141845Y0011872D01*
X0141924Y0011919D01*
X0142002Y0011970D01*
X0142077Y0012023D01*
X0142150Y0012080D01*
X0142221Y0012140D01*
X0142289Y0012202D01*
X0142354Y0012267D01*
X0142416Y0012335D01*
X0142476Y0012406D01*
X0142533Y0012479D01*
X0142586Y0012554D01*
X0142637Y0012632D01*
X0142684Y0012711D01*
X0142727Y0012792D01*
X0142768Y0012876D01*
X0142805Y0012960D01*
X0142838Y0013046D01*
X0142867Y0013134D01*
X0142893Y0013223D01*
X0142916Y0013312D01*
X0142934Y0013403D01*
X0142949Y0013494D01*
X0142960Y0013586D01*
X0142967Y0013678D01*
X0142970Y0013770D01*
X0142914Y0013770D01*
X0142911Y0013678D01*
X0142903Y0013585D01*
X0142892Y0013494D01*
X0142877Y0013402D01*
X0142858Y0013312D01*
X0142835Y0013222D01*
X0142809Y0013134D01*
X0142778Y0013046D01*
X0142744Y0012960D01*
X0142706Y0012876D01*
X0142665Y0012793D01*
X0142620Y0012712D01*
X0142572Y0012633D01*
X0142520Y0012557D01*
X0142465Y0012482D01*
X0142407Y0012410D01*
X0142346Y0012341D01*
X0142282Y0012274D01*
X0142215Y0012210D01*
X0142146Y0012149D01*
X0142074Y0012091D01*
X0141999Y0012036D01*
X0141923Y0011984D01*
X0141844Y0011936D01*
X0141763Y0011891D01*
X0141680Y0011850D01*
X0141596Y0011812D01*
X0141510Y0011778D01*
X0141422Y0011747D01*
X0141334Y0011721D01*
X0141244Y0011698D01*
X0141154Y0011679D01*
X0141062Y0011664D01*
X0140971Y0011653D01*
X0140878Y0011645D01*
X0140786Y0011642D01*
X0140786Y0011698D01*
X0140876Y0011701D01*
X0140966Y0011708D01*
X0141055Y0011719D01*
X0141144Y0011734D01*
X0141232Y0011753D01*
X0141319Y0011775D01*
X0141406Y0011801D01*
X0141491Y0011831D01*
X0141574Y0011864D01*
X0141656Y0011901D01*
X0141737Y0011941D01*
X0141816Y0011985D01*
X0141892Y0012032D01*
X0141967Y0012082D01*
X0142040Y0012135D01*
X0142110Y0012192D01*
X0142177Y0012251D01*
X0142242Y0012314D01*
X0142305Y0012379D01*
X0142364Y0012446D01*
X0142421Y0012516D01*
X0142474Y0012589D01*
X0142524Y0012664D01*
X0142571Y0012740D01*
X0142615Y0012819D01*
X0142655Y0012900D01*
X0142692Y0012982D01*
X0142725Y0013065D01*
X0142755Y0013150D01*
X0142781Y0013237D01*
X0142803Y0013324D01*
X0142822Y0013412D01*
X0142837Y0013501D01*
X0142848Y0013590D01*
X0142855Y0013680D01*
X0142858Y0013770D01*
X0142802Y0013770D01*
X0142799Y0013682D01*
X0142792Y0013595D01*
X0142781Y0013508D01*
X0142767Y0013422D01*
X0142749Y0013336D01*
X0142727Y0013251D01*
X0142702Y0013167D01*
X0142673Y0013085D01*
X0142640Y0013003D01*
X0142605Y0012923D01*
X0142565Y0012845D01*
X0142523Y0012768D01*
X0142477Y0012694D01*
X0142428Y0012621D01*
X0142376Y0012551D01*
X0142321Y0012482D01*
X0142263Y0012417D01*
X0142203Y0012353D01*
X0142139Y0012293D01*
X0142074Y0012235D01*
X0142005Y0012180D01*
X0141935Y0012128D01*
X0141862Y0012079D01*
X0141788Y0012033D01*
X0141711Y0011991D01*
X0141633Y0011951D01*
X0141553Y0011916D01*
X0141471Y0011883D01*
X0141389Y0011854D01*
X0141305Y0011829D01*
X0141220Y0011807D01*
X0141134Y0011789D01*
X0141048Y0011775D01*
X0140961Y0011764D01*
X0140874Y0011757D01*
X0140786Y0011754D01*
X0140786Y0011810D01*
X0140874Y0011813D01*
X0140961Y0011821D01*
X0141048Y0011832D01*
X0141134Y0011846D01*
X0141220Y0011865D01*
X0141304Y0011887D01*
X0141388Y0011913D01*
X0141470Y0011943D01*
X0141551Y0011976D01*
X0141631Y0012013D01*
X0141709Y0012053D01*
X0141785Y0012097D01*
X0141859Y0012143D01*
X0141931Y0012194D01*
X0142000Y0012247D01*
X0142067Y0012303D01*
X0142132Y0012362D01*
X0142194Y0012424D01*
X0142253Y0012489D01*
X0142309Y0012556D01*
X0142362Y0012625D01*
X0142413Y0012697D01*
X0142459Y0012771D01*
X0142503Y0012847D01*
X0142543Y0012925D01*
X0142580Y0013005D01*
X0142613Y0013086D01*
X0142643Y0013168D01*
X0142669Y0013252D01*
X0142691Y0013336D01*
X0142710Y0013422D01*
X0142724Y0013508D01*
X0142735Y0013595D01*
X0142743Y0013682D01*
X0142746Y0013770D01*
X0142690Y0013770D01*
X0142687Y0013685D01*
X0142680Y0013600D01*
X0142669Y0013516D01*
X0142655Y0013432D01*
X0142637Y0013349D01*
X0142615Y0013267D01*
X0142590Y0013185D01*
X0142561Y0013105D01*
X0142529Y0013027D01*
X0142493Y0012949D01*
X0142454Y0012874D01*
X0142411Y0012800D01*
X0142366Y0012728D01*
X0142317Y0012658D01*
X0142265Y0012591D01*
X0142211Y0012526D01*
X0142153Y0012463D01*
X0142093Y0012403D01*
X0142030Y0012345D01*
X0141965Y0012291D01*
X0141898Y0012239D01*
X0141828Y0012190D01*
X0141756Y0012145D01*
X0141682Y0012102D01*
X0141607Y0012063D01*
X0141529Y0012027D01*
X0141451Y0011995D01*
X0141371Y0011966D01*
X0141289Y0011941D01*
X0141207Y0011919D01*
X0141124Y0011901D01*
X0141040Y0011887D01*
X0140956Y0011876D01*
X0140871Y0011869D01*
X0140786Y0011866D01*
X0140786Y0011922D01*
X0140871Y0011926D01*
X0140956Y0011933D01*
X0141040Y0011944D01*
X0141124Y0011958D01*
X0141207Y0011977D01*
X0141289Y0011999D01*
X0141370Y0012025D01*
X0141449Y0012055D01*
X0141527Y0012088D01*
X0141604Y0012124D01*
X0141679Y0012165D01*
X0141752Y0012208D01*
X0141823Y0012255D01*
X0141892Y0012305D01*
X0141958Y0012357D01*
X0142023Y0012413D01*
X0142084Y0012472D01*
X0142143Y0012533D01*
X0142199Y0012598D01*
X0142251Y0012664D01*
X0142301Y0012733D01*
X0142348Y0012804D01*
X0142391Y0012877D01*
X0142432Y0012952D01*
X0142468Y0013029D01*
X0142501Y0013107D01*
X0142531Y0013186D01*
X0142557Y0013267D01*
X0142579Y0013349D01*
X0142598Y0013432D01*
X0142612Y0013516D01*
X0142623Y0013600D01*
X0142630Y0013685D01*
X0142634Y0013770D01*
X0142578Y0013770D01*
X0142575Y0013688D01*
X0142568Y0013606D01*
X0142557Y0013524D01*
X0142543Y0013443D01*
X0142525Y0013362D01*
X0142503Y0013283D01*
X0142478Y0013204D01*
X0142449Y0013127D01*
X0142417Y0013051D01*
X0142381Y0012977D01*
X0142343Y0012904D01*
X0142300Y0012833D01*
X0142255Y0012765D01*
X0142207Y0012698D01*
X0142155Y0012633D01*
X0142101Y0012571D01*
X0142044Y0012512D01*
X0141985Y0012455D01*
X0141923Y0012401D01*
X0141858Y0012349D01*
X0141791Y0012301D01*
X0141723Y0012256D01*
X0141652Y0012213D01*
X0141579Y0012175D01*
X0141505Y0012139D01*
X0141429Y0012107D01*
X0141352Y0012078D01*
X0141273Y0012053D01*
X0141194Y0012031D01*
X0141113Y0012013D01*
X0141032Y0011999D01*
X0140950Y0011988D01*
X0140868Y0011981D01*
X0140786Y0011978D01*
X0140786Y0012034D01*
X0140868Y0012038D01*
X0140950Y0012045D01*
X0141032Y0012056D01*
X0141113Y0012070D01*
X0141193Y0012089D01*
X0141272Y0012111D01*
X0141350Y0012137D01*
X0141427Y0012166D01*
X0141502Y0012199D01*
X0141576Y0012236D01*
X0141648Y0012276D01*
X0141718Y0012319D01*
X0141786Y0012365D01*
X0141851Y0012415D01*
X0141915Y0012467D01*
X0141975Y0012523D01*
X0142033Y0012581D01*
X0142089Y0012641D01*
X0142141Y0012705D01*
X0142191Y0012770D01*
X0142237Y0012838D01*
X0142280Y0012908D01*
X0142320Y0012980D01*
X0142357Y0013054D01*
X0142390Y0013129D01*
X0142419Y0013206D01*
X0142445Y0013284D01*
X0142467Y0013363D01*
X0142486Y0013443D01*
X0142500Y0013524D01*
X0142511Y0013606D01*
X0142518Y0013688D01*
X0142522Y0013770D01*
X0125487Y0013771D02*
X0126027Y0013771D01*
X0126026Y0013770D02*
X0126030Y0013690D01*
X0126037Y0013609D01*
X0126047Y0013530D01*
X0126062Y0013450D01*
X0126080Y0013372D01*
X0126102Y0013294D01*
X0126127Y0013218D01*
X0126156Y0013143D01*
X0126188Y0013069D01*
X0126224Y0012997D01*
X0126263Y0012926D01*
X0126305Y0012858D01*
X0126350Y0012791D01*
X0126399Y0012727D01*
X0126450Y0012665D01*
X0126505Y0012606D01*
X0126562Y0012549D01*
X0126621Y0012494D01*
X0126683Y0012443D01*
X0126747Y0012394D01*
X0126814Y0012349D01*
X0126882Y0012307D01*
X0126953Y0012268D01*
X0127025Y0012232D01*
X0127099Y0012200D01*
X0127174Y0012171D01*
X0127250Y0012146D01*
X0127328Y0012124D01*
X0127406Y0012106D01*
X0127486Y0012091D01*
X0127565Y0012081D01*
X0127646Y0012074D01*
X0127726Y0012070D01*
X0127727Y0011531D01*
X0127726Y0011530D01*
X0127631Y0011533D01*
X0127537Y0011541D01*
X0127443Y0011552D01*
X0127349Y0011567D01*
X0127256Y0011586D01*
X0127164Y0011608D01*
X0127073Y0011635D01*
X0126984Y0011665D01*
X0126895Y0011699D01*
X0126808Y0011737D01*
X0126723Y0011779D01*
X0126640Y0011823D01*
X0126558Y0011872D01*
X0126479Y0011923D01*
X0126402Y0011978D01*
X0126327Y0012036D01*
X0126254Y0012098D01*
X0126185Y0012162D01*
X0126118Y0012229D01*
X0126054Y0012298D01*
X0125992Y0012371D01*
X0125934Y0012446D01*
X0125879Y0012523D01*
X0125828Y0012602D01*
X0125779Y0012684D01*
X0125735Y0012767D01*
X0125693Y0012852D01*
X0125655Y0012939D01*
X0125621Y0013028D01*
X0125591Y0013117D01*
X0125564Y0013208D01*
X0125542Y0013300D01*
X0125523Y0013393D01*
X0125508Y0013487D01*
X0125497Y0013581D01*
X0125489Y0013675D01*
X0125486Y0013770D01*
X0125542Y0013770D01*
X0125545Y0013678D01*
X0125552Y0013586D01*
X0125563Y0013494D01*
X0125578Y0013403D01*
X0125596Y0013312D01*
X0125619Y0013223D01*
X0125645Y0013134D01*
X0125674Y0013046D01*
X0125707Y0012960D01*
X0125744Y0012876D01*
X0125785Y0012792D01*
X0125828Y0012711D01*
X0125875Y0012632D01*
X0125926Y0012554D01*
X0125979Y0012479D01*
X0126036Y0012406D01*
X0126096Y0012335D01*
X0126158Y0012267D01*
X0126223Y0012202D01*
X0126291Y0012140D01*
X0126362Y0012080D01*
X0126435Y0012023D01*
X0126510Y0011970D01*
X0126588Y0011919D01*
X0126667Y0011872D01*
X0126748Y0011829D01*
X0126832Y0011788D01*
X0126916Y0011751D01*
X0127002Y0011718D01*
X0127090Y0011689D01*
X0127179Y0011663D01*
X0127268Y0011640D01*
X0127359Y0011622D01*
X0127450Y0011607D01*
X0127542Y0011596D01*
X0127634Y0011589D01*
X0127726Y0011586D01*
X0127726Y0011642D01*
X0127634Y0011645D01*
X0127541Y0011653D01*
X0127450Y0011664D01*
X0127358Y0011679D01*
X0127268Y0011698D01*
X0127178Y0011721D01*
X0127090Y0011747D01*
X0127002Y0011778D01*
X0126916Y0011812D01*
X0126832Y0011850D01*
X0126749Y0011891D01*
X0126668Y0011936D01*
X0126589Y0011984D01*
X0126513Y0012036D01*
X0126438Y0012091D01*
X0126366Y0012149D01*
X0126297Y0012210D01*
X0126230Y0012274D01*
X0126166Y0012341D01*
X0126105Y0012410D01*
X0126047Y0012482D01*
X0125992Y0012557D01*
X0125940Y0012633D01*
X0125892Y0012712D01*
X0125847Y0012793D01*
X0125806Y0012876D01*
X0125768Y0012960D01*
X0125734Y0013046D01*
X0125703Y0013134D01*
X0125677Y0013222D01*
X0125654Y0013312D01*
X0125635Y0013402D01*
X0125620Y0013494D01*
X0125609Y0013585D01*
X0125601Y0013678D01*
X0125598Y0013770D01*
X0125654Y0013770D01*
X0125657Y0013680D01*
X0125664Y0013590D01*
X0125675Y0013501D01*
X0125690Y0013412D01*
X0125709Y0013324D01*
X0125731Y0013237D01*
X0125757Y0013150D01*
X0125787Y0013065D01*
X0125820Y0012982D01*
X0125857Y0012900D01*
X0125897Y0012819D01*
X0125941Y0012740D01*
X0125988Y0012664D01*
X0126038Y0012589D01*
X0126091Y0012516D01*
X0126148Y0012446D01*
X0126207Y0012379D01*
X0126270Y0012314D01*
X0126335Y0012251D01*
X0126402Y0012192D01*
X0126472Y0012135D01*
X0126545Y0012082D01*
X0126620Y0012032D01*
X0126696Y0011985D01*
X0126775Y0011941D01*
X0126856Y0011901D01*
X0126938Y0011864D01*
X0127021Y0011831D01*
X0127106Y0011801D01*
X0127193Y0011775D01*
X0127280Y0011753D01*
X0127368Y0011734D01*
X0127457Y0011719D01*
X0127546Y0011708D01*
X0127636Y0011701D01*
X0127726Y0011698D01*
X0127726Y0011754D01*
X0127638Y0011757D01*
X0127551Y0011764D01*
X0127464Y0011775D01*
X0127378Y0011789D01*
X0127292Y0011807D01*
X0127207Y0011829D01*
X0127123Y0011854D01*
X0127041Y0011883D01*
X0126959Y0011916D01*
X0126879Y0011951D01*
X0126801Y0011991D01*
X0126724Y0012033D01*
X0126650Y0012079D01*
X0126577Y0012128D01*
X0126507Y0012180D01*
X0126438Y0012235D01*
X0126373Y0012293D01*
X0126309Y0012353D01*
X0126249Y0012417D01*
X0126191Y0012482D01*
X0126136Y0012551D01*
X0126084Y0012621D01*
X0126035Y0012694D01*
X0125989Y0012768D01*
X0125947Y0012845D01*
X0125907Y0012923D01*
X0125872Y0013003D01*
X0125839Y0013085D01*
X0125810Y0013167D01*
X0125785Y0013251D01*
X0125763Y0013336D01*
X0125745Y0013422D01*
X0125731Y0013508D01*
X0125720Y0013595D01*
X0125713Y0013682D01*
X0125710Y0013770D01*
X0125766Y0013770D01*
X0125769Y0013682D01*
X0125777Y0013595D01*
X0125788Y0013508D01*
X0125802Y0013422D01*
X0125821Y0013336D01*
X0125843Y0013252D01*
X0125869Y0013168D01*
X0125899Y0013086D01*
X0125932Y0013005D01*
X0125969Y0012925D01*
X0126009Y0012847D01*
X0126053Y0012771D01*
X0126099Y0012697D01*
X0126150Y0012625D01*
X0126203Y0012556D01*
X0126259Y0012489D01*
X0126318Y0012424D01*
X0126380Y0012362D01*
X0126445Y0012303D01*
X0126512Y0012247D01*
X0126581Y0012194D01*
X0126653Y0012143D01*
X0126727Y0012097D01*
X0126803Y0012053D01*
X0126881Y0012013D01*
X0126961Y0011976D01*
X0127042Y0011943D01*
X0127124Y0011913D01*
X0127208Y0011887D01*
X0127292Y0011865D01*
X0127378Y0011846D01*
X0127464Y0011832D01*
X0127551Y0011821D01*
X0127638Y0011813D01*
X0127726Y0011810D01*
X0127726Y0011866D01*
X0127641Y0011869D01*
X0127556Y0011876D01*
X0127472Y0011887D01*
X0127388Y0011901D01*
X0127305Y0011919D01*
X0127223Y0011941D01*
X0127141Y0011966D01*
X0127061Y0011995D01*
X0126983Y0012027D01*
X0126905Y0012063D01*
X0126830Y0012102D01*
X0126756Y0012145D01*
X0126684Y0012190D01*
X0126614Y0012239D01*
X0126547Y0012291D01*
X0126482Y0012345D01*
X0126419Y0012403D01*
X0126359Y0012463D01*
X0126301Y0012526D01*
X0126247Y0012591D01*
X0126195Y0012658D01*
X0126146Y0012728D01*
X0126101Y0012800D01*
X0126058Y0012874D01*
X0126019Y0012949D01*
X0125983Y0013027D01*
X0125951Y0013105D01*
X0125922Y0013185D01*
X0125897Y0013267D01*
X0125875Y0013349D01*
X0125857Y0013432D01*
X0125843Y0013516D01*
X0125832Y0013600D01*
X0125825Y0013685D01*
X0125822Y0013770D01*
X0125878Y0013770D01*
X0125882Y0013685D01*
X0125889Y0013600D01*
X0125900Y0013516D01*
X0125914Y0013432D01*
X0125933Y0013349D01*
X0125955Y0013267D01*
X0125981Y0013186D01*
X0126011Y0013107D01*
X0126044Y0013029D01*
X0126080Y0012952D01*
X0126121Y0012877D01*
X0126164Y0012804D01*
X0126211Y0012733D01*
X0126261Y0012664D01*
X0126313Y0012598D01*
X0126369Y0012533D01*
X0126428Y0012472D01*
X0126489Y0012413D01*
X0126554Y0012357D01*
X0126620Y0012305D01*
X0126689Y0012255D01*
X0126760Y0012208D01*
X0126833Y0012165D01*
X0126908Y0012124D01*
X0126985Y0012088D01*
X0127063Y0012055D01*
X0127142Y0012025D01*
X0127223Y0011999D01*
X0127305Y0011977D01*
X0127388Y0011958D01*
X0127472Y0011944D01*
X0127556Y0011933D01*
X0127641Y0011926D01*
X0127726Y0011922D01*
X0127726Y0011978D01*
X0127644Y0011981D01*
X0127562Y0011988D01*
X0127480Y0011999D01*
X0127399Y0012013D01*
X0127318Y0012031D01*
X0127239Y0012053D01*
X0127160Y0012078D01*
X0127083Y0012107D01*
X0127007Y0012139D01*
X0126933Y0012175D01*
X0126860Y0012213D01*
X0126789Y0012256D01*
X0126721Y0012301D01*
X0126654Y0012349D01*
X0126589Y0012401D01*
X0126527Y0012455D01*
X0126468Y0012512D01*
X0126411Y0012571D01*
X0126357Y0012633D01*
X0126305Y0012698D01*
X0126257Y0012765D01*
X0126212Y0012833D01*
X0126169Y0012904D01*
X0126131Y0012977D01*
X0126095Y0013051D01*
X0126063Y0013127D01*
X0126034Y0013204D01*
X0126009Y0013283D01*
X0125987Y0013362D01*
X0125969Y0013443D01*
X0125955Y0013524D01*
X0125944Y0013606D01*
X0125937Y0013688D01*
X0125934Y0013770D01*
X0125990Y0013770D01*
X0125994Y0013688D01*
X0126001Y0013606D01*
X0126012Y0013524D01*
X0126026Y0013443D01*
X0126045Y0013363D01*
X0126067Y0013284D01*
X0126093Y0013206D01*
X0126122Y0013129D01*
X0126155Y0013054D01*
X0126192Y0012980D01*
X0126232Y0012908D01*
X0126275Y0012838D01*
X0126321Y0012770D01*
X0126371Y0012705D01*
X0126423Y0012641D01*
X0126479Y0012581D01*
X0126537Y0012523D01*
X0126597Y0012467D01*
X0126661Y0012415D01*
X0126726Y0012365D01*
X0126794Y0012319D01*
X0126864Y0012276D01*
X0126936Y0012236D01*
X0127010Y0012199D01*
X0127085Y0012166D01*
X0127162Y0012137D01*
X0127240Y0012111D01*
X0127319Y0012089D01*
X0127399Y0012070D01*
X0127480Y0012056D01*
X0127562Y0012045D01*
X0127644Y0012038D01*
X0127726Y0012034D01*
D14*
X0133056Y0013300D02*
X0133056Y0016300D01*
X0133056Y0019300D01*
X0135556Y0019300D02*
X0135556Y0016300D01*
X0135556Y0013300D01*
D15*
X0135964Y0010554D02*
X0137466Y0010554D01*
X0138216Y0009803D01*
X0135214Y0006801D01*
X0135964Y0006050D01*
X0137466Y0006050D01*
X0138216Y0006801D01*
X0138216Y0009803D01*
X0139818Y0009053D02*
X0139818Y0006801D01*
X0140568Y0006050D01*
X0142820Y0006050D01*
X0142820Y0009053D01*
X0144422Y0008302D02*
X0145923Y0008302D01*
X0144422Y0010554D02*
X0147424Y0010554D01*
X0144422Y0010554D02*
X0144422Y0006050D01*
X0135214Y0006801D02*
X0135214Y0009803D01*
X0135964Y0010554D01*
X0133612Y0010554D02*
X0130610Y0010554D01*
X0130610Y0008302D01*
X0132111Y0009053D01*
X0132862Y0009053D01*
X0133612Y0008302D01*
X0133612Y0006801D01*
X0132862Y0006050D01*
X0131360Y0006050D01*
X0130610Y0006801D01*
X0129008Y0006050D02*
X0126006Y0006050D01*
X0127507Y0006050D02*
X0127507Y0010554D01*
X0126006Y0009053D01*
X0105256Y0020800D02*
X0073256Y0020800D01*
X0073256Y0071300D01*
X0105256Y0071300D01*
X0105256Y0020800D01*
X0126006Y0022801D02*
X0126757Y0022050D01*
X0128258Y0022050D01*
X0129008Y0022801D01*
X0126006Y0022801D02*
X0126006Y0025803D01*
X0126757Y0026554D01*
X0128258Y0026554D01*
X0129008Y0025803D01*
X0130610Y0024302D02*
X0132862Y0026554D01*
X0132862Y0022050D01*
X0133612Y0024302D02*
X0130610Y0024302D01*
X0157287Y0032639D02*
X0157287Y0034607D01*
X0147445Y0034607D01*
X0147445Y0052324D01*
X0171067Y0052324D01*
X0171067Y0034607D01*
X0161224Y0034607D01*
X0161224Y0032639D01*
X0157287Y0032639D01*
X0131256Y0063300D02*
X0117256Y0063300D01*
X0117256Y0069300D01*
X0131256Y0069300D01*
X0131256Y0063300D01*
D16*
X0102744Y0060102D02*
X0101276Y0060102D01*
X0102010Y0060102D02*
X0102010Y0057900D01*
X0100534Y0058267D02*
X0100534Y0060102D01*
X0099066Y0060102D02*
X0099066Y0058267D01*
X0099433Y0057900D01*
X0100167Y0057900D01*
X0100534Y0058267D01*
X0098324Y0058267D02*
X0098324Y0059735D01*
X0097957Y0060102D01*
X0097223Y0060102D01*
X0096856Y0059735D01*
X0096856Y0058267D01*
X0097223Y0057900D01*
X0097957Y0057900D01*
X0098324Y0058267D01*
X0090244Y0058267D02*
X0090244Y0059735D01*
X0089877Y0060102D01*
X0088776Y0060102D01*
X0088776Y0057900D01*
X0089877Y0057900D01*
X0090244Y0058267D01*
X0088034Y0057900D02*
X0088034Y0060102D01*
X0086566Y0060102D02*
X0088034Y0057900D01*
X0086566Y0057900D02*
X0086566Y0060102D01*
X0085824Y0059735D02*
X0085457Y0060102D01*
X0084723Y0060102D01*
X0084356Y0059735D01*
X0084356Y0058267D01*
X0084723Y0057900D01*
X0085457Y0057900D01*
X0085824Y0058267D01*
X0085824Y0059001D01*
X0085090Y0059001D01*
X0079797Y0057900D02*
X0079797Y0060102D01*
X0078329Y0060102D02*
X0079797Y0057900D01*
X0078329Y0057900D02*
X0078329Y0060102D01*
X0077590Y0060102D02*
X0076856Y0060102D01*
X0077223Y0060102D02*
X0077223Y0057900D01*
X0076856Y0057900D02*
X0077590Y0057900D01*
D17*
X0077956Y0054302D02*
X0077956Y0052901D01*
X0078890Y0053368D01*
X0079357Y0053368D01*
X0079824Y0052901D01*
X0079824Y0051967D01*
X0079357Y0051500D01*
X0078423Y0051500D01*
X0077956Y0051967D01*
X0080902Y0052434D02*
X0081837Y0051500D01*
X0082771Y0052434D01*
X0082771Y0054302D01*
X0080902Y0054302D02*
X0080902Y0052434D01*
X0083849Y0051500D02*
X0085717Y0054302D01*
X0086795Y0053368D02*
X0087730Y0054302D01*
X0087730Y0051500D01*
X0088664Y0051500D02*
X0086795Y0051500D01*
X0089742Y0051500D02*
X0091610Y0053368D01*
X0091610Y0053835D01*
X0091143Y0054302D01*
X0090209Y0054302D01*
X0089742Y0053835D01*
X0092688Y0054302D02*
X0092688Y0052434D01*
X0093623Y0051500D01*
X0094557Y0052434D01*
X0094557Y0054302D01*
X0098582Y0054302D02*
X0099983Y0054302D01*
X0100450Y0053835D01*
X0100450Y0052901D01*
X0099983Y0052434D01*
X0098582Y0052434D01*
X0099516Y0052434D02*
X0100450Y0051500D01*
X0101528Y0051500D02*
X0103396Y0051500D01*
X0104475Y0051967D02*
X0104942Y0051500D01*
X0105876Y0051500D01*
X0106343Y0051967D01*
X0106343Y0052901D01*
X0105409Y0052901D01*
X0106343Y0053835D02*
X0105876Y0054302D01*
X0104942Y0054302D01*
X0104475Y0053835D01*
X0104475Y0051967D01*
X0101528Y0051500D02*
X0101528Y0054302D01*
X0103396Y0054302D01*
X0102462Y0052901D02*
X0101528Y0052901D01*
X0098582Y0051500D02*
X0098582Y0054302D01*
X0091610Y0051500D02*
X0089742Y0051500D01*
X0079824Y0054302D02*
X0077956Y0054302D01*
X0141852Y0041802D02*
X0144921Y0041802D01*
X0170852Y0041802D02*
X0173921Y0041802D01*
X0172387Y0043337D02*
X0172387Y0040267D01*
D18*
X0183547Y0039725D02*
X0183547Y0048190D01*
X0185909Y0048190D01*
X0192602Y0048190D02*
X0194965Y0048190D01*
X0194965Y0039725D01*
X0233547Y0054410D02*
X0235909Y0054410D01*
X0233547Y0054410D02*
X0233547Y0062875D01*
X0244965Y0062875D02*
X0244965Y0054410D01*
X0242602Y0054410D01*
X0318724Y0049292D02*
X0318724Y0023308D01*
X0322756Y0023308D01*
X0330506Y0023308D02*
X0338506Y0023308D01*
X0346256Y0023308D02*
X0350256Y0023308D01*
X0358131Y0023308D02*
X0364787Y0023308D01*
X0364787Y0049292D02*
X0326506Y0049292D01*
X0121202Y0040269D02*
X0121103Y0040438D01*
X0120999Y0040604D01*
X0120892Y0040768D01*
X0120781Y0040929D01*
X0120666Y0041087D01*
X0120547Y0041242D01*
X0120424Y0041395D01*
X0120298Y0041544D01*
X0120168Y0041690D01*
X0120034Y0041833D01*
X0119897Y0041973D01*
X0119757Y0042109D01*
X0119613Y0042242D01*
X0119466Y0042371D01*
X0119316Y0042497D01*
X0119163Y0042618D01*
X0119007Y0042737D01*
X0118848Y0042851D01*
X0118687Y0042961D01*
X0118522Y0043067D01*
X0118356Y0043170D01*
X0118186Y0043268D01*
X0118015Y0043362D01*
X0117841Y0043452D01*
X0117665Y0043537D01*
X0117487Y0043619D01*
X0117307Y0043695D01*
X0117125Y0043768D01*
X0116942Y0043836D01*
X0116757Y0043899D01*
X0116570Y0043958D01*
X0116382Y0044012D01*
X0116193Y0044062D01*
X0116003Y0044107D01*
X0115811Y0044147D01*
X0115619Y0044183D01*
X0115426Y0044214D01*
X0115232Y0044240D01*
X0115037Y0044262D01*
X0114842Y0044278D01*
X0114647Y0044290D01*
X0114451Y0044298D01*
X0114256Y0044300D01*
X0121315Y0032535D02*
X0121222Y0032367D01*
X0121126Y0032201D01*
X0121026Y0032037D01*
X0120921Y0031876D01*
X0120813Y0031717D01*
X0120701Y0031561D01*
X0120585Y0031407D01*
X0120466Y0031257D01*
X0120343Y0031109D01*
X0120217Y0030964D01*
X0120087Y0030823D01*
X0119954Y0030684D01*
X0119817Y0030549D01*
X0119677Y0030417D01*
X0119535Y0030289D01*
X0119389Y0030164D01*
X0119240Y0030042D01*
X0119088Y0029924D01*
X0118934Y0029810D01*
X0118776Y0029700D01*
X0118617Y0029593D01*
X0118454Y0029490D01*
X0118289Y0029391D01*
X0118122Y0029296D01*
X0117953Y0029206D01*
X0117782Y0029119D01*
X0117608Y0029036D01*
X0117433Y0028958D01*
X0117255Y0028884D01*
X0117076Y0028814D01*
X0116896Y0028748D01*
X0116714Y0028687D01*
X0116530Y0028630D01*
X0116345Y0028578D01*
X0116159Y0028530D01*
X0115972Y0028486D01*
X0115784Y0028447D01*
X0115595Y0028413D01*
X0115405Y0028383D01*
X0115215Y0028358D01*
X0115024Y0028337D01*
X0114832Y0028321D01*
X0114640Y0028309D01*
X0114448Y0028302D01*
X0114256Y0028300D01*
X0108149Y0041468D02*
X0108276Y0041614D01*
X0108405Y0041756D01*
X0108539Y0041896D01*
X0108675Y0042032D01*
X0108815Y0042165D01*
X0108958Y0042295D01*
X0109105Y0042421D01*
X0109254Y0042543D01*
X0109406Y0042662D01*
X0109561Y0042777D01*
X0109718Y0042889D01*
X0109878Y0042996D01*
X0110041Y0043100D01*
X0110207Y0043199D01*
X0110374Y0043295D01*
X0110544Y0043387D01*
X0110716Y0043474D01*
X0110890Y0043558D01*
X0111066Y0043637D01*
X0111244Y0043711D01*
X0111424Y0043782D01*
X0111605Y0043848D01*
X0111788Y0043910D01*
X0111972Y0043967D01*
X0112158Y0044020D01*
X0112345Y0044068D01*
X0112533Y0044112D01*
X0112722Y0044151D01*
X0112912Y0044186D01*
X0113102Y0044216D01*
X0113293Y0044242D01*
X0113485Y0044263D01*
X0113678Y0044279D01*
X0113870Y0044291D01*
X0114063Y0044298D01*
X0114256Y0044300D01*
X0108110Y0031178D02*
X0108237Y0031030D01*
X0108367Y0030885D01*
X0108500Y0030744D01*
X0108637Y0030605D01*
X0108777Y0030470D01*
X0108921Y0030339D01*
X0109068Y0030211D01*
X0109217Y0030086D01*
X0109370Y0029965D01*
X0109525Y0029848D01*
X0109684Y0029735D01*
X0109845Y0029626D01*
X0110009Y0029521D01*
X0110175Y0029419D01*
X0110344Y0029322D01*
X0110514Y0029229D01*
X0110688Y0029140D01*
X0110863Y0029055D01*
X0111040Y0028975D01*
X0111219Y0028899D01*
X0111400Y0028827D01*
X0111583Y0028760D01*
X0111767Y0028697D01*
X0111953Y0028639D01*
X0112140Y0028585D01*
X0112328Y0028536D01*
X0112518Y0028491D01*
X0112708Y0028451D01*
X0112900Y0028416D01*
X0113092Y0028385D01*
X0113285Y0028359D01*
X0113479Y0028338D01*
X0113673Y0028321D01*
X0113867Y0028309D01*
X0114061Y0028302D01*
X0114256Y0028300D01*
X0077287Y0033308D02*
X0077287Y0059292D01*
X0073256Y0059292D01*
X0065506Y0059292D02*
X0057506Y0059292D01*
X0058331Y0058091D02*
X0049866Y0058091D01*
X0049866Y0060454D01*
X0049756Y0059292D02*
X0045756Y0059292D01*
X0037881Y0059292D02*
X0031224Y0059292D01*
X0049866Y0067146D02*
X0049866Y0069509D01*
X0058331Y0069509D01*
X0069506Y0033308D02*
X0031224Y0033308D01*
M02*
