G75*
%MOIN*%
%OFA0B0*%
%FSLAX25Y25*%
%IPPOS*%
%LPD*%
%AMOC8*
5,1,8,0,0,1.08239X$1,22.5*
%
%ADD10C,0.07400*%
%ADD11OC8,0.05200*%
%ADD12C,0.07000*%
%ADD13R,0.07000X0.07000*%
%ADD14C,0.05600*%
%ADD15R,0.05512X0.04724*%
%ADD16R,0.04724X0.09843*%
%ADD17R,0.05543X0.05543*%
%ADD18C,0.00600*%
%ADD19C,0.02978*%
D10*
X0153556Y0061300D03*
X0164956Y0061300D03*
D11*
X0119256Y0036300D03*
X0109256Y0036300D03*
X0124256Y0016300D03*
X0144256Y0016300D03*
D12*
X0099256Y0066300D03*
X0089256Y0066300D03*
D13*
X0079256Y0066300D03*
D14*
X0155319Y0041300D03*
X0163193Y0041300D03*
D15*
X0062917Y0031457D03*
X0045594Y0041300D03*
X0062917Y0051143D03*
X0343094Y0041300D03*
X0360417Y0051143D03*
X0360417Y0031457D03*
D16*
X0204098Y0025552D03*
X0194256Y0025552D03*
X0184413Y0025552D03*
X0184413Y0057048D03*
X0194256Y0057048D03*
X0204098Y0057048D03*
D17*
X0286756Y0058800D03*
X0286756Y0068800D03*
X0374256Y0068800D03*
X0286756Y0026300D03*
X0286756Y0016300D03*
X0374256Y0016300D03*
D18*
X0389256Y0001300D02*
X0004256Y0001300D01*
X0004256Y0081300D01*
X0389256Y0081300D01*
X0389256Y0001300D01*
X0389256Y0001549D02*
X0004256Y0001549D01*
X0004256Y0002148D02*
X0007260Y0002148D01*
X0006650Y0002400D02*
X0008341Y0001700D01*
X0382671Y0001700D01*
X0383395Y0002000D01*
X0383969Y0002000D01*
X0385550Y0002655D01*
X0386760Y0003864D01*
X0387414Y0005445D01*
X0387414Y0076919D01*
X0386760Y0078500D01*
X0385550Y0079709D01*
X0383969Y0080364D01*
X0383965Y0080364D01*
X0382671Y0080900D01*
X0008341Y0080900D01*
X0006650Y0080200D01*
X0005356Y0078906D01*
X0004656Y0077215D01*
X0004656Y0005385D01*
X0005356Y0003694D01*
X0006650Y0002400D01*
X0006304Y0002746D02*
X0004256Y0002746D01*
X0004256Y0003345D02*
X0005706Y0003345D01*
X0005253Y0003943D02*
X0004256Y0003943D01*
X0004256Y0004542D02*
X0005005Y0004542D01*
X0004757Y0005140D02*
X0004256Y0005140D01*
X0004256Y0005739D02*
X0004656Y0005739D01*
X0004656Y0006337D02*
X0004256Y0006337D01*
X0004256Y0006936D02*
X0004656Y0006936D01*
X0004656Y0007534D02*
X0004256Y0007534D01*
X0004256Y0008133D02*
X0004656Y0008133D01*
X0004656Y0008731D02*
X0004256Y0008731D01*
X0004256Y0009330D02*
X0004656Y0009330D01*
X0004656Y0009928D02*
X0004256Y0009928D01*
X0004256Y0010527D02*
X0004656Y0010527D01*
X0004656Y0011125D02*
X0004256Y0011125D01*
X0004256Y0011724D02*
X0004656Y0011724D01*
X0004656Y0012322D02*
X0004256Y0012322D01*
X0004256Y0012921D02*
X0004656Y0012921D01*
X0004656Y0013519D02*
X0004256Y0013519D01*
X0004256Y0014118D02*
X0004656Y0014118D01*
X0004656Y0014716D02*
X0004256Y0014716D01*
X0004256Y0015315D02*
X0004656Y0015315D01*
X0004656Y0015913D02*
X0004256Y0015913D01*
X0004256Y0016512D02*
X0004656Y0016512D01*
X0004656Y0017110D02*
X0004256Y0017110D01*
X0004256Y0017709D02*
X0004656Y0017709D01*
X0004656Y0018307D02*
X0004256Y0018307D01*
X0004256Y0018906D02*
X0004656Y0018906D01*
X0004656Y0019504D02*
X0004256Y0019504D01*
X0004256Y0020103D02*
X0004656Y0020103D01*
X0004656Y0020701D02*
X0004256Y0020701D01*
X0004256Y0021300D02*
X0004656Y0021300D01*
X0004656Y0021899D02*
X0004256Y0021899D01*
X0004256Y0022497D02*
X0004656Y0022497D01*
X0004656Y0023096D02*
X0004256Y0023096D01*
X0004256Y0023694D02*
X0004656Y0023694D01*
X0004656Y0024293D02*
X0004256Y0024293D01*
X0004256Y0024891D02*
X0004656Y0024891D01*
X0004656Y0025490D02*
X0004256Y0025490D01*
X0004256Y0026088D02*
X0004656Y0026088D01*
X0004656Y0026687D02*
X0004256Y0026687D01*
X0004256Y0027285D02*
X0004656Y0027285D01*
X0004656Y0027884D02*
X0004256Y0027884D01*
X0004256Y0028482D02*
X0004656Y0028482D01*
X0004656Y0029081D02*
X0004256Y0029081D01*
X0004256Y0029679D02*
X0004656Y0029679D01*
X0004656Y0030278D02*
X0004256Y0030278D01*
X0004256Y0030876D02*
X0004656Y0030876D01*
X0004656Y0031475D02*
X0004256Y0031475D01*
X0004256Y0032073D02*
X0004656Y0032073D01*
X0004656Y0032672D02*
X0004256Y0032672D01*
X0004256Y0033270D02*
X0004656Y0033270D01*
X0004656Y0033869D02*
X0004256Y0033869D01*
X0004256Y0034467D02*
X0004656Y0034467D01*
X0004656Y0035066D02*
X0004256Y0035066D01*
X0004256Y0035664D02*
X0004656Y0035664D01*
X0004656Y0036263D02*
X0004256Y0036263D01*
X0004256Y0036861D02*
X0004656Y0036861D01*
X0004656Y0037460D02*
X0004256Y0037460D01*
X0004256Y0038058D02*
X0004656Y0038058D01*
X0004656Y0038657D02*
X0004256Y0038657D01*
X0004256Y0039255D02*
X0004656Y0039255D01*
X0004656Y0039854D02*
X0004256Y0039854D01*
X0004256Y0040452D02*
X0004656Y0040452D01*
X0004656Y0041051D02*
X0004256Y0041051D01*
X0004256Y0041649D02*
X0004656Y0041649D01*
X0004656Y0042248D02*
X0004256Y0042248D01*
X0004256Y0042846D02*
X0004656Y0042846D01*
X0004656Y0043445D02*
X0004256Y0043445D01*
X0004256Y0044043D02*
X0004656Y0044043D01*
X0004656Y0044642D02*
X0004256Y0044642D01*
X0004256Y0045240D02*
X0004656Y0045240D01*
X0004656Y0045839D02*
X0004256Y0045839D01*
X0004256Y0046437D02*
X0004656Y0046437D01*
X0004656Y0047036D02*
X0004256Y0047036D01*
X0004256Y0047634D02*
X0004656Y0047634D01*
X0004656Y0048233D02*
X0004256Y0048233D01*
X0004256Y0048832D02*
X0004656Y0048832D01*
X0004656Y0049430D02*
X0004256Y0049430D01*
X0004256Y0050029D02*
X0004656Y0050029D01*
X0004656Y0050627D02*
X0004256Y0050627D01*
X0004256Y0051226D02*
X0004656Y0051226D01*
X0004656Y0051824D02*
X0004256Y0051824D01*
X0004256Y0052423D02*
X0004656Y0052423D01*
X0004656Y0053021D02*
X0004256Y0053021D01*
X0004256Y0053620D02*
X0004656Y0053620D01*
X0004656Y0054218D02*
X0004256Y0054218D01*
X0004256Y0054817D02*
X0004656Y0054817D01*
X0004656Y0055415D02*
X0004256Y0055415D01*
X0004256Y0056014D02*
X0004656Y0056014D01*
X0004656Y0056612D02*
X0004256Y0056612D01*
X0004256Y0057211D02*
X0004656Y0057211D01*
X0004656Y0057809D02*
X0004256Y0057809D01*
X0004256Y0058408D02*
X0004656Y0058408D01*
X0004656Y0059006D02*
X0004256Y0059006D01*
X0004256Y0059605D02*
X0004656Y0059605D01*
X0004656Y0060203D02*
X0004256Y0060203D01*
X0004256Y0060802D02*
X0004656Y0060802D01*
X0004656Y0061400D02*
X0004256Y0061400D01*
X0004256Y0061999D02*
X0004656Y0061999D01*
X0004656Y0062597D02*
X0004256Y0062597D01*
X0004256Y0063196D02*
X0004656Y0063196D01*
X0004656Y0063794D02*
X0004256Y0063794D01*
X0004256Y0064393D02*
X0004656Y0064393D01*
X0004656Y0064991D02*
X0004256Y0064991D01*
X0004256Y0065590D02*
X0004656Y0065590D01*
X0004656Y0066188D02*
X0004256Y0066188D01*
X0004256Y0066787D02*
X0004656Y0066787D01*
X0004656Y0067385D02*
X0004256Y0067385D01*
X0004256Y0067984D02*
X0004656Y0067984D01*
X0004656Y0068582D02*
X0004256Y0068582D01*
X0004256Y0069181D02*
X0004656Y0069181D01*
X0004656Y0069779D02*
X0004256Y0069779D01*
X0004256Y0070378D02*
X0004656Y0070378D01*
X0004656Y0070976D02*
X0004256Y0070976D01*
X0004256Y0071575D02*
X0004656Y0071575D01*
X0004656Y0072173D02*
X0004256Y0072173D01*
X0004256Y0072772D02*
X0004656Y0072772D01*
X0004656Y0073370D02*
X0004256Y0073370D01*
X0004256Y0073969D02*
X0004656Y0073969D01*
X0004656Y0074568D02*
X0004256Y0074568D01*
X0004256Y0075166D02*
X0004656Y0075166D01*
X0004656Y0075765D02*
X0004256Y0075765D01*
X0004256Y0076363D02*
X0004656Y0076363D01*
X0004656Y0076962D02*
X0004256Y0076962D01*
X0004256Y0077560D02*
X0004799Y0077560D01*
X0005047Y0078159D02*
X0004256Y0078159D01*
X0004256Y0078757D02*
X0005295Y0078757D01*
X0005806Y0079356D02*
X0004256Y0079356D01*
X0004256Y0079954D02*
X0006405Y0079954D01*
X0007502Y0080553D02*
X0004256Y0080553D01*
X0004256Y0081151D02*
X0389256Y0081151D01*
X0389256Y0080553D02*
X0383510Y0080553D01*
X0384959Y0079954D02*
X0389256Y0079954D01*
X0389256Y0079356D02*
X0385903Y0079356D01*
X0386502Y0078757D02*
X0389256Y0078757D01*
X0389256Y0078159D02*
X0386901Y0078159D01*
X0387149Y0077560D02*
X0389256Y0077560D01*
X0389256Y0076962D02*
X0387397Y0076962D01*
X0387414Y0076363D02*
X0389256Y0076363D01*
X0389256Y0075765D02*
X0387414Y0075765D01*
X0387414Y0075166D02*
X0389256Y0075166D01*
X0389256Y0074568D02*
X0387414Y0074568D01*
X0387414Y0073969D02*
X0389256Y0073969D01*
X0389256Y0073370D02*
X0387414Y0073370D01*
X0387414Y0072772D02*
X0389256Y0072772D01*
X0389256Y0072173D02*
X0387414Y0072173D01*
X0387414Y0071575D02*
X0389256Y0071575D01*
X0389256Y0070976D02*
X0387414Y0070976D01*
X0387414Y0070378D02*
X0389256Y0070378D01*
X0389256Y0069779D02*
X0387414Y0069779D01*
X0387414Y0069181D02*
X0389256Y0069181D01*
X0389256Y0068582D02*
X0387414Y0068582D01*
X0387414Y0067984D02*
X0389256Y0067984D01*
X0389256Y0067385D02*
X0387414Y0067385D01*
X0387414Y0066787D02*
X0389256Y0066787D01*
X0389256Y0066188D02*
X0387414Y0066188D01*
X0387414Y0065590D02*
X0389256Y0065590D01*
X0389256Y0064991D02*
X0387414Y0064991D01*
X0387414Y0064393D02*
X0389256Y0064393D01*
X0389256Y0063794D02*
X0387414Y0063794D01*
X0387414Y0063196D02*
X0389256Y0063196D01*
X0389256Y0062597D02*
X0387414Y0062597D01*
X0387414Y0061999D02*
X0389256Y0061999D01*
X0389256Y0061400D02*
X0387414Y0061400D01*
X0387414Y0060802D02*
X0389256Y0060802D01*
X0389256Y0060203D02*
X0387414Y0060203D01*
X0387414Y0059605D02*
X0389256Y0059605D01*
X0389256Y0059006D02*
X0387414Y0059006D01*
X0387414Y0058408D02*
X0389256Y0058408D01*
X0389256Y0057809D02*
X0387414Y0057809D01*
X0387414Y0057211D02*
X0389256Y0057211D01*
X0389256Y0056612D02*
X0387414Y0056612D01*
X0387414Y0056014D02*
X0389256Y0056014D01*
X0389256Y0055415D02*
X0387414Y0055415D01*
X0387414Y0054817D02*
X0389256Y0054817D01*
X0389256Y0054218D02*
X0387414Y0054218D01*
X0387414Y0053620D02*
X0389256Y0053620D01*
X0389256Y0053021D02*
X0387414Y0053021D01*
X0387414Y0052423D02*
X0389256Y0052423D01*
X0389256Y0051824D02*
X0387414Y0051824D01*
X0387414Y0051226D02*
X0389256Y0051226D01*
X0389256Y0050627D02*
X0387414Y0050627D01*
X0387414Y0050029D02*
X0389256Y0050029D01*
X0389256Y0049430D02*
X0387414Y0049430D01*
X0387414Y0048832D02*
X0389256Y0048832D01*
X0389256Y0048233D02*
X0387414Y0048233D01*
X0387414Y0047634D02*
X0389256Y0047634D01*
X0389256Y0047036D02*
X0387414Y0047036D01*
X0387414Y0046437D02*
X0389256Y0046437D01*
X0389256Y0045839D02*
X0387414Y0045839D01*
X0387414Y0045240D02*
X0389256Y0045240D01*
X0389256Y0044642D02*
X0387414Y0044642D01*
X0387414Y0044043D02*
X0389256Y0044043D01*
X0389256Y0043445D02*
X0387414Y0043445D01*
X0387414Y0042846D02*
X0389256Y0042846D01*
X0389256Y0042248D02*
X0387414Y0042248D01*
X0387414Y0041649D02*
X0389256Y0041649D01*
X0389256Y0041051D02*
X0387414Y0041051D01*
X0387414Y0040452D02*
X0389256Y0040452D01*
X0389256Y0039854D02*
X0387414Y0039854D01*
X0387414Y0039255D02*
X0389256Y0039255D01*
X0389256Y0038657D02*
X0387414Y0038657D01*
X0387414Y0038058D02*
X0389256Y0038058D01*
X0389256Y0037460D02*
X0387414Y0037460D01*
X0387414Y0036861D02*
X0389256Y0036861D01*
X0389256Y0036263D02*
X0387414Y0036263D01*
X0387414Y0035664D02*
X0389256Y0035664D01*
X0389256Y0035066D02*
X0387414Y0035066D01*
X0387414Y0034467D02*
X0389256Y0034467D01*
X0389256Y0033869D02*
X0387414Y0033869D01*
X0387414Y0033270D02*
X0389256Y0033270D01*
X0389256Y0032672D02*
X0387414Y0032672D01*
X0387414Y0032073D02*
X0389256Y0032073D01*
X0389256Y0031475D02*
X0387414Y0031475D01*
X0387414Y0030876D02*
X0389256Y0030876D01*
X0389256Y0030278D02*
X0387414Y0030278D01*
X0387414Y0029679D02*
X0389256Y0029679D01*
X0389256Y0029081D02*
X0387414Y0029081D01*
X0387414Y0028482D02*
X0389256Y0028482D01*
X0389256Y0027884D02*
X0387414Y0027884D01*
X0387414Y0027285D02*
X0389256Y0027285D01*
X0389256Y0026687D02*
X0387414Y0026687D01*
X0387414Y0026088D02*
X0389256Y0026088D01*
X0389256Y0025490D02*
X0387414Y0025490D01*
X0387414Y0024891D02*
X0389256Y0024891D01*
X0389256Y0024293D02*
X0387414Y0024293D01*
X0387414Y0023694D02*
X0389256Y0023694D01*
X0389256Y0023096D02*
X0387414Y0023096D01*
X0387414Y0022497D02*
X0389256Y0022497D01*
X0389256Y0021899D02*
X0387414Y0021899D01*
X0387414Y0021300D02*
X0389256Y0021300D01*
X0389256Y0020701D02*
X0387414Y0020701D01*
X0387414Y0020103D02*
X0389256Y0020103D01*
X0389256Y0019504D02*
X0387414Y0019504D01*
X0387414Y0018906D02*
X0389256Y0018906D01*
X0389256Y0018307D02*
X0387414Y0018307D01*
X0387414Y0017709D02*
X0389256Y0017709D01*
X0389256Y0017110D02*
X0387414Y0017110D01*
X0387414Y0016512D02*
X0389256Y0016512D01*
X0389256Y0015913D02*
X0387414Y0015913D01*
X0387414Y0015315D02*
X0389256Y0015315D01*
X0389256Y0014716D02*
X0387414Y0014716D01*
X0387414Y0014118D02*
X0389256Y0014118D01*
X0389256Y0013519D02*
X0387414Y0013519D01*
X0387414Y0012921D02*
X0389256Y0012921D01*
X0389256Y0012322D02*
X0387414Y0012322D01*
X0387414Y0011724D02*
X0389256Y0011724D01*
X0389256Y0011125D02*
X0387414Y0011125D01*
X0387414Y0010527D02*
X0389256Y0010527D01*
X0389256Y0009928D02*
X0387414Y0009928D01*
X0387414Y0009330D02*
X0389256Y0009330D01*
X0389256Y0008731D02*
X0387414Y0008731D01*
X0387414Y0008133D02*
X0389256Y0008133D01*
X0389256Y0007534D02*
X0387414Y0007534D01*
X0387414Y0006936D02*
X0389256Y0006936D01*
X0389256Y0006337D02*
X0387414Y0006337D01*
X0387414Y0005739D02*
X0389256Y0005739D01*
X0389256Y0005140D02*
X0387288Y0005140D01*
X0387040Y0004542D02*
X0389256Y0004542D01*
X0389256Y0003943D02*
X0386792Y0003943D01*
X0386240Y0003345D02*
X0389256Y0003345D01*
X0389256Y0002746D02*
X0385641Y0002746D01*
X0384326Y0002148D02*
X0389256Y0002148D01*
X0377156Y0010900D02*
X0292668Y0010900D01*
X0294050Y0012282D01*
X0352321Y0012282D01*
X0373132Y0033093D01*
X0373945Y0033906D01*
X0373945Y0046140D01*
X0374017Y0046170D01*
X0374742Y0046895D01*
X0375134Y0047842D01*
X0375134Y0048867D01*
X0374742Y0049814D01*
X0374017Y0050538D01*
X0373070Y0050931D01*
X0372045Y0050931D01*
X0371098Y0050538D01*
X0370373Y0049814D01*
X0369981Y0048867D01*
X0369981Y0047842D01*
X0370373Y0046895D01*
X0371098Y0046170D01*
X0371170Y0046140D01*
X0371170Y0035055D01*
X0351172Y0015057D01*
X0344249Y0015057D01*
X0344611Y0015932D01*
X0344611Y0016957D01*
X0344219Y0017903D01*
X0343494Y0018628D01*
X0342547Y0019020D01*
X0341522Y0019020D01*
X0340575Y0018628D01*
X0339850Y0017903D01*
X0339821Y0017831D01*
X0316942Y0017831D01*
X0310590Y0024184D01*
X0310620Y0024256D01*
X0310620Y0025281D01*
X0310257Y0026156D01*
X0332204Y0026156D01*
X0333017Y0026969D01*
X0343898Y0037850D01*
X0346301Y0037850D01*
X0346938Y0038487D01*
X0346938Y0044113D01*
X0346301Y0044750D01*
X0339888Y0044750D01*
X0339251Y0044113D01*
X0339251Y0042898D01*
X0338546Y0044601D01*
X0336874Y0046273D01*
X0344928Y0046273D01*
X0348972Y0042230D01*
X0348972Y0041550D01*
X0348900Y0041520D01*
X0348175Y0040796D01*
X0347783Y0039849D01*
X0347783Y0038824D01*
X0348175Y0037877D01*
X0348900Y0037152D01*
X0349847Y0036760D01*
X0350872Y0036760D01*
X0351818Y0037152D01*
X0352543Y0037877D01*
X0352935Y0038824D01*
X0352935Y0039849D01*
X0352543Y0040796D01*
X0351818Y0041520D01*
X0351746Y0041550D01*
X0351746Y0043379D01*
X0350934Y0044192D01*
X0346078Y0049048D01*
X0338699Y0049048D01*
X0339061Y0049923D01*
X0339061Y0050948D01*
X0338669Y0051895D01*
X0337944Y0052620D01*
X0336998Y0053012D01*
X0335973Y0053012D01*
X0335026Y0052620D01*
X0334301Y0051895D01*
X0334271Y0051823D01*
X0324131Y0051823D01*
X0324494Y0052698D01*
X0324494Y0053723D01*
X0324101Y0054670D01*
X0323377Y0055394D01*
X0322430Y0055787D01*
X0321405Y0055787D01*
X0320458Y0055394D01*
X0319733Y0054670D01*
X0319703Y0054598D01*
X0283645Y0054598D01*
X0280870Y0057372D01*
X0282897Y0057372D01*
X0282897Y0055578D01*
X0283534Y0054941D01*
X0289978Y0054941D01*
X0290615Y0055578D01*
X0290615Y0062022D01*
X0290409Y0062228D01*
X0353253Y0062228D01*
X0359377Y0056104D01*
X0359377Y0054592D01*
X0357828Y0054592D01*
X0357828Y0055894D01*
X0356903Y0058125D01*
X0355195Y0059833D01*
X0352964Y0060757D01*
X0350548Y0060757D01*
X0348317Y0059833D01*
X0346609Y0058125D01*
X0345684Y0055894D01*
X0345684Y0053478D01*
X0346609Y0051247D01*
X0348317Y0049539D01*
X0350548Y0048614D01*
X0352964Y0048614D01*
X0355195Y0049539D01*
X0356574Y0050917D01*
X0356574Y0048330D01*
X0357211Y0047693D01*
X0363624Y0047693D01*
X0364261Y0048330D01*
X0364261Y0053955D01*
X0363624Y0054592D01*
X0362152Y0054592D01*
X0362152Y0057253D01*
X0355215Y0064190D01*
X0354402Y0065003D01*
X0291275Y0065003D01*
X0290615Y0065664D01*
X0290615Y0071700D01*
X0370397Y0071700D01*
X0370397Y0065578D01*
X0371034Y0064941D01*
X0377156Y0064941D01*
X0377156Y0020159D01*
X0371034Y0020159D01*
X0370397Y0019522D01*
X0370397Y0013078D01*
X0371034Y0012441D01*
X0377156Y0012441D01*
X0377156Y0010900D01*
X0377156Y0011125D02*
X0292894Y0011125D01*
X0293492Y0011724D02*
X0377156Y0011724D01*
X0377156Y0012322D02*
X0352362Y0012322D01*
X0352960Y0012921D02*
X0370554Y0012921D01*
X0370397Y0013519D02*
X0353559Y0013519D01*
X0354157Y0014118D02*
X0370397Y0014118D01*
X0370397Y0014716D02*
X0354756Y0014716D01*
X0355354Y0015315D02*
X0370397Y0015315D01*
X0370397Y0015913D02*
X0355953Y0015913D01*
X0356551Y0016512D02*
X0370397Y0016512D01*
X0370397Y0017110D02*
X0357150Y0017110D01*
X0357748Y0017709D02*
X0370397Y0017709D01*
X0370397Y0018307D02*
X0358347Y0018307D01*
X0358945Y0018906D02*
X0370397Y0018906D01*
X0370397Y0019504D02*
X0359544Y0019504D01*
X0360142Y0020103D02*
X0370978Y0020103D01*
X0377156Y0020701D02*
X0360741Y0020701D01*
X0361339Y0021300D02*
X0377156Y0021300D01*
X0377156Y0021899D02*
X0361938Y0021899D01*
X0362536Y0022497D02*
X0377156Y0022497D01*
X0377156Y0023096D02*
X0363135Y0023096D01*
X0363733Y0023694D02*
X0377156Y0023694D01*
X0377156Y0024293D02*
X0364332Y0024293D01*
X0364930Y0024891D02*
X0377156Y0024891D01*
X0377156Y0025490D02*
X0365529Y0025490D01*
X0366127Y0026088D02*
X0377156Y0026088D01*
X0377156Y0026687D02*
X0366726Y0026687D01*
X0367324Y0027285D02*
X0377156Y0027285D01*
X0377156Y0027884D02*
X0367923Y0027884D01*
X0368521Y0028482D02*
X0377156Y0028482D01*
X0377156Y0029081D02*
X0369120Y0029081D01*
X0369718Y0029679D02*
X0377156Y0029679D01*
X0377156Y0030278D02*
X0370317Y0030278D01*
X0370915Y0030876D02*
X0377156Y0030876D01*
X0377156Y0031475D02*
X0371514Y0031475D01*
X0372112Y0032073D02*
X0377156Y0032073D01*
X0377156Y0032672D02*
X0372711Y0032672D01*
X0373309Y0033270D02*
X0377156Y0033270D01*
X0377156Y0033869D02*
X0373908Y0033869D01*
X0373945Y0034467D02*
X0377156Y0034467D01*
X0377156Y0035066D02*
X0373945Y0035066D01*
X0373945Y0035664D02*
X0377156Y0035664D01*
X0377156Y0036263D02*
X0373945Y0036263D01*
X0373945Y0036861D02*
X0377156Y0036861D01*
X0377156Y0037460D02*
X0373945Y0037460D01*
X0373945Y0038058D02*
X0377156Y0038058D01*
X0377156Y0038657D02*
X0373945Y0038657D01*
X0373945Y0039255D02*
X0377156Y0039255D01*
X0377156Y0039854D02*
X0373945Y0039854D01*
X0373945Y0040452D02*
X0377156Y0040452D01*
X0377156Y0041051D02*
X0373945Y0041051D01*
X0373945Y0041649D02*
X0377156Y0041649D01*
X0377156Y0042248D02*
X0373945Y0042248D01*
X0373945Y0042846D02*
X0377156Y0042846D01*
X0377156Y0043445D02*
X0373945Y0043445D01*
X0373945Y0044043D02*
X0377156Y0044043D01*
X0377156Y0044642D02*
X0373945Y0044642D01*
X0373945Y0045240D02*
X0377156Y0045240D01*
X0377156Y0045839D02*
X0373945Y0045839D01*
X0374284Y0046437D02*
X0377156Y0046437D01*
X0377156Y0047036D02*
X0374800Y0047036D01*
X0375048Y0047634D02*
X0377156Y0047634D01*
X0377156Y0048233D02*
X0375134Y0048233D01*
X0375134Y0048832D02*
X0377156Y0048832D01*
X0377156Y0049430D02*
X0374901Y0049430D01*
X0374527Y0050029D02*
X0377156Y0050029D01*
X0377156Y0050627D02*
X0373803Y0050627D01*
X0371312Y0050627D02*
X0364261Y0050627D01*
X0364261Y0050029D02*
X0370588Y0050029D01*
X0370214Y0049430D02*
X0364261Y0049430D01*
X0364261Y0048832D02*
X0369981Y0048832D01*
X0369981Y0048233D02*
X0364164Y0048233D01*
X0364231Y0046475D02*
X0361782Y0047490D01*
X0359131Y0047490D01*
X0356683Y0046475D01*
X0354809Y0044601D01*
X0353794Y0042153D01*
X0353794Y0039502D01*
X0354809Y0037054D01*
X0356683Y0035180D01*
X0357341Y0034907D01*
X0357211Y0034907D01*
X0356574Y0034270D01*
X0356574Y0031683D01*
X0355195Y0033061D01*
X0352964Y0033986D01*
X0350548Y0033986D01*
X0348317Y0033061D01*
X0346609Y0031353D01*
X0345684Y0029122D01*
X0345684Y0026706D01*
X0346609Y0024475D01*
X0348317Y0022767D01*
X0350548Y0021843D01*
X0352964Y0021843D01*
X0355195Y0022767D01*
X0356903Y0024475D01*
X0357828Y0026706D01*
X0357828Y0028008D01*
X0363624Y0028008D01*
X0364261Y0028645D01*
X0364261Y0034270D01*
X0363624Y0034907D01*
X0363573Y0034907D01*
X0364231Y0035180D01*
X0366105Y0037054D01*
X0367119Y0039502D01*
X0367119Y0042153D01*
X0366105Y0044601D01*
X0364231Y0046475D01*
X0364269Y0046437D02*
X0370831Y0046437D01*
X0371170Y0045839D02*
X0364867Y0045839D01*
X0365466Y0045240D02*
X0371170Y0045240D01*
X0371170Y0044642D02*
X0366064Y0044642D01*
X0366336Y0044043D02*
X0371170Y0044043D01*
X0371170Y0043445D02*
X0366584Y0043445D01*
X0366832Y0042846D02*
X0371170Y0042846D01*
X0371170Y0042248D02*
X0367079Y0042248D01*
X0367119Y0041649D02*
X0371170Y0041649D01*
X0371170Y0041051D02*
X0367119Y0041051D01*
X0367119Y0040452D02*
X0371170Y0040452D01*
X0371170Y0039854D02*
X0367119Y0039854D01*
X0367017Y0039255D02*
X0371170Y0039255D01*
X0371170Y0038657D02*
X0366769Y0038657D01*
X0366521Y0038058D02*
X0371170Y0038058D01*
X0371170Y0037460D02*
X0366273Y0037460D01*
X0365912Y0036861D02*
X0371170Y0036861D01*
X0371170Y0036263D02*
X0365314Y0036263D01*
X0364715Y0035664D02*
X0371170Y0035664D01*
X0371170Y0035066D02*
X0363956Y0035066D01*
X0364063Y0034467D02*
X0370582Y0034467D01*
X0369984Y0033869D02*
X0364261Y0033869D01*
X0364261Y0033270D02*
X0369385Y0033270D01*
X0368787Y0032672D02*
X0364261Y0032672D01*
X0364261Y0032073D02*
X0368188Y0032073D01*
X0367590Y0031475D02*
X0364261Y0031475D01*
X0364261Y0030876D02*
X0366991Y0030876D01*
X0366393Y0030278D02*
X0364261Y0030278D01*
X0364261Y0029679D02*
X0365794Y0029679D01*
X0365196Y0029081D02*
X0364261Y0029081D01*
X0364098Y0028482D02*
X0364597Y0028482D01*
X0363999Y0027884D02*
X0357828Y0027884D01*
X0357828Y0027285D02*
X0363400Y0027285D01*
X0362802Y0026687D02*
X0357819Y0026687D01*
X0357571Y0026088D02*
X0362203Y0026088D01*
X0361605Y0025490D02*
X0357323Y0025490D01*
X0357076Y0024891D02*
X0361006Y0024891D01*
X0360408Y0024293D02*
X0356721Y0024293D01*
X0356122Y0023694D02*
X0359809Y0023694D01*
X0359211Y0023096D02*
X0355524Y0023096D01*
X0354544Y0022497D02*
X0358612Y0022497D01*
X0358014Y0021899D02*
X0353099Y0021899D01*
X0350413Y0021899D02*
X0312875Y0021899D01*
X0312277Y0022497D02*
X0348968Y0022497D01*
X0347988Y0023096D02*
X0311678Y0023096D01*
X0311080Y0023694D02*
X0347389Y0023694D01*
X0346791Y0024293D02*
X0310620Y0024293D01*
X0310620Y0024891D02*
X0346436Y0024891D01*
X0346188Y0025490D02*
X0310533Y0025490D01*
X0310285Y0026088D02*
X0345940Y0026088D01*
X0345692Y0026687D02*
X0332735Y0026687D01*
X0333333Y0027285D02*
X0345684Y0027285D01*
X0345684Y0027884D02*
X0333932Y0027884D01*
X0334530Y0028482D02*
X0345684Y0028482D01*
X0345684Y0029081D02*
X0335129Y0029081D01*
X0335727Y0029679D02*
X0345915Y0029679D01*
X0346163Y0030278D02*
X0336326Y0030278D01*
X0336924Y0030876D02*
X0346411Y0030876D01*
X0346730Y0031475D02*
X0337523Y0031475D01*
X0338121Y0032073D02*
X0347328Y0032073D01*
X0347927Y0032672D02*
X0338720Y0032672D01*
X0339318Y0033270D02*
X0348821Y0033270D01*
X0350266Y0033869D02*
X0339917Y0033869D01*
X0340515Y0034467D02*
X0356771Y0034467D01*
X0356958Y0035066D02*
X0341114Y0035066D01*
X0341712Y0035664D02*
X0356198Y0035664D01*
X0355600Y0036263D02*
X0342311Y0036263D01*
X0342909Y0036861D02*
X0349602Y0036861D01*
X0348592Y0037460D02*
X0343508Y0037460D01*
X0342728Y0038643D02*
X0331629Y0027543D01*
X0287926Y0027543D01*
X0287232Y0026850D01*
X0286756Y0026300D01*
X0290615Y0026156D02*
X0305829Y0026156D01*
X0305467Y0025281D01*
X0305467Y0024256D01*
X0305859Y0023309D01*
X0306584Y0022584D01*
X0307531Y0022192D01*
X0308556Y0022192D01*
X0308628Y0022222D01*
X0315793Y0015057D01*
X0339821Y0015057D01*
X0292901Y0015057D01*
X0292088Y0014244D01*
X0290126Y0012282D01*
X0283645Y0012282D01*
X0280870Y0015057D01*
X0282897Y0015057D01*
X0282897Y0013078D01*
X0283534Y0012441D01*
X0289978Y0012441D01*
X0290615Y0013078D01*
X0290615Y0019522D01*
X0289978Y0020159D01*
X0283534Y0020159D01*
X0282897Y0019522D01*
X0282897Y0017831D01*
X0228842Y0017831D01*
X0225265Y0021409D01*
X0225294Y0021481D01*
X0225294Y0022506D01*
X0224902Y0023453D01*
X0224178Y0024178D01*
X0223231Y0024570D01*
X0222401Y0024570D01*
X0240607Y0042777D01*
X0240682Y0042702D01*
X0241629Y0042309D01*
X0242654Y0042309D01*
X0242726Y0042339D01*
X0245036Y0040030D01*
X0319703Y0040030D01*
X0319733Y0039958D01*
X0320458Y0039233D01*
X0321405Y0038841D01*
X0322430Y0038841D01*
X0323377Y0039233D01*
X0324101Y0039958D01*
X0324494Y0040905D01*
X0324494Y0041930D01*
X0324101Y0042877D01*
X0323377Y0043601D01*
X0322430Y0043994D01*
X0321405Y0043994D01*
X0320458Y0043601D01*
X0319733Y0042877D01*
X0319703Y0042805D01*
X0246185Y0042805D01*
X0244688Y0044301D01*
X0244718Y0044373D01*
X0244718Y0045398D01*
X0244326Y0046345D01*
X0243601Y0047070D01*
X0242654Y0047462D01*
X0242518Y0047462D01*
X0242716Y0047661D01*
X0333136Y0047661D01*
X0333306Y0047490D01*
X0331572Y0047490D01*
X0329124Y0046475D01*
X0327250Y0044601D01*
X0326235Y0042153D01*
X0326235Y0039502D01*
X0327250Y0037054D01*
X0329124Y0035180D01*
X0331572Y0034165D01*
X0334223Y0034165D01*
X0336671Y0035180D01*
X0338546Y0037054D01*
X0339251Y0038757D01*
X0339251Y0038487D01*
X0339888Y0037850D01*
X0339974Y0037850D01*
X0331054Y0028931D01*
X0290615Y0028931D01*
X0290615Y0029522D01*
X0289978Y0030159D01*
X0283534Y0030159D01*
X0282897Y0029522D01*
X0282897Y0023078D01*
X0283534Y0022441D01*
X0289978Y0022441D01*
X0290615Y0023078D01*
X0290615Y0026156D01*
X0290615Y0026088D02*
X0305801Y0026088D01*
X0305553Y0025490D02*
X0290615Y0025490D01*
X0290615Y0024891D02*
X0305467Y0024891D01*
X0305467Y0024293D02*
X0290615Y0024293D01*
X0290615Y0023694D02*
X0305700Y0023694D01*
X0306073Y0023096D02*
X0290615Y0023096D01*
X0290034Y0022497D02*
X0306795Y0022497D01*
X0308951Y0021899D02*
X0225294Y0021899D01*
X0225294Y0022497D02*
X0283478Y0022497D01*
X0282897Y0023096D02*
X0225050Y0023096D01*
X0224661Y0023694D02*
X0282897Y0023694D01*
X0282897Y0024293D02*
X0223901Y0024293D01*
X0222722Y0024891D02*
X0282897Y0024891D01*
X0282897Y0025490D02*
X0223320Y0025490D01*
X0223919Y0026088D02*
X0282897Y0026088D01*
X0282897Y0026687D02*
X0224517Y0026687D01*
X0225116Y0027285D02*
X0282897Y0027285D01*
X0282897Y0027884D02*
X0225714Y0027884D01*
X0226313Y0028482D02*
X0282897Y0028482D01*
X0282897Y0029081D02*
X0226911Y0029081D01*
X0227510Y0029679D02*
X0283054Y0029679D01*
X0290458Y0029679D02*
X0331803Y0029679D01*
X0331204Y0029081D02*
X0290615Y0029081D01*
X0308043Y0024769D02*
X0316368Y0016444D01*
X0342035Y0016444D01*
X0344611Y0016512D02*
X0352627Y0016512D01*
X0353226Y0017110D02*
X0344547Y0017110D01*
X0344299Y0017709D02*
X0353824Y0017709D01*
X0354423Y0018307D02*
X0343815Y0018307D01*
X0342824Y0018906D02*
X0355021Y0018906D01*
X0355620Y0019504D02*
X0315269Y0019504D01*
X0315868Y0018906D02*
X0341246Y0018906D01*
X0340254Y0018307D02*
X0316466Y0018307D01*
X0313141Y0017709D02*
X0290615Y0017709D01*
X0290615Y0018307D02*
X0312542Y0018307D01*
X0311944Y0018906D02*
X0290615Y0018906D01*
X0290615Y0019504D02*
X0311345Y0019504D01*
X0310747Y0020103D02*
X0290034Y0020103D01*
X0283478Y0020103D02*
X0226571Y0020103D01*
X0227169Y0019504D02*
X0282897Y0019504D01*
X0282897Y0018906D02*
X0227768Y0018906D01*
X0228366Y0018307D02*
X0282897Y0018307D01*
X0290615Y0017110D02*
X0313739Y0017110D01*
X0314338Y0016512D02*
X0290615Y0016512D01*
X0290615Y0015913D02*
X0314936Y0015913D01*
X0315535Y0015315D02*
X0290615Y0015315D01*
X0290615Y0014716D02*
X0292561Y0014716D01*
X0291962Y0014118D02*
X0290615Y0014118D01*
X0290615Y0013519D02*
X0291364Y0013519D01*
X0290765Y0012921D02*
X0290458Y0012921D01*
X0290167Y0012322D02*
X0283604Y0012322D01*
X0283054Y0012921D02*
X0283006Y0012921D01*
X0282897Y0013519D02*
X0282407Y0013519D01*
X0282897Y0014118D02*
X0281809Y0014118D01*
X0281210Y0014716D02*
X0282897Y0014716D01*
X0279602Y0014363D02*
X0283070Y0010894D01*
X0290701Y0010894D01*
X0293476Y0013669D01*
X0351746Y0013669D01*
X0372557Y0034480D01*
X0372557Y0048354D01*
X0370067Y0047634D02*
X0347491Y0047634D01*
X0348090Y0047036D02*
X0358036Y0047036D01*
X0356645Y0046437D02*
X0348688Y0046437D01*
X0349287Y0045839D02*
X0356046Y0045839D01*
X0355448Y0045240D02*
X0349885Y0045240D01*
X0350484Y0044642D02*
X0354849Y0044642D01*
X0354578Y0044043D02*
X0351082Y0044043D01*
X0351681Y0043445D02*
X0354330Y0043445D01*
X0354082Y0042846D02*
X0351746Y0042846D01*
X0351746Y0042248D02*
X0353834Y0042248D01*
X0353794Y0041649D02*
X0351746Y0041649D01*
X0352288Y0041051D02*
X0353794Y0041051D01*
X0353794Y0040452D02*
X0352685Y0040452D01*
X0352933Y0039854D02*
X0353794Y0039854D01*
X0353897Y0039255D02*
X0352935Y0039255D01*
X0352866Y0038657D02*
X0354145Y0038657D01*
X0354393Y0038058D02*
X0352618Y0038058D01*
X0352126Y0037460D02*
X0354641Y0037460D01*
X0355001Y0036861D02*
X0351116Y0036861D01*
X0348100Y0038058D02*
X0346509Y0038058D01*
X0346938Y0038657D02*
X0347852Y0038657D01*
X0347783Y0039255D02*
X0346938Y0039255D01*
X0346938Y0039854D02*
X0347785Y0039854D01*
X0348033Y0040452D02*
X0346938Y0040452D01*
X0346938Y0041051D02*
X0348430Y0041051D01*
X0348972Y0041649D02*
X0346938Y0041649D01*
X0346938Y0042248D02*
X0348954Y0042248D01*
X0348355Y0042846D02*
X0346938Y0042846D01*
X0346938Y0043445D02*
X0347757Y0043445D01*
X0347158Y0044043D02*
X0346938Y0044043D01*
X0346560Y0044642D02*
X0346408Y0044642D01*
X0345961Y0045240D02*
X0337907Y0045240D01*
X0338505Y0044642D02*
X0339781Y0044642D01*
X0339251Y0044043D02*
X0338777Y0044043D01*
X0339025Y0043445D02*
X0339251Y0043445D01*
X0343094Y0041300D02*
X0342728Y0040724D01*
X0342728Y0038643D01*
X0339680Y0038058D02*
X0338962Y0038058D01*
X0338714Y0037460D02*
X0339584Y0037460D01*
X0338985Y0036861D02*
X0338353Y0036861D01*
X0338387Y0036263D02*
X0337755Y0036263D01*
X0337788Y0035664D02*
X0337156Y0035664D01*
X0337190Y0035066D02*
X0336397Y0035066D01*
X0336591Y0034467D02*
X0334952Y0034467D01*
X0335992Y0033869D02*
X0231699Y0033869D01*
X0231101Y0033270D02*
X0335394Y0033270D01*
X0334795Y0032672D02*
X0230502Y0032672D01*
X0229904Y0032073D02*
X0334197Y0032073D01*
X0333598Y0031475D02*
X0229305Y0031475D01*
X0228707Y0030876D02*
X0333000Y0030876D01*
X0332401Y0030278D02*
X0228108Y0030278D01*
X0222702Y0030876D02*
X0211635Y0030876D01*
X0211037Y0031475D02*
X0223300Y0031475D01*
X0223899Y0032073D02*
X0210438Y0032073D01*
X0209840Y0032672D02*
X0224497Y0032672D01*
X0225096Y0033270D02*
X0209241Y0033270D01*
X0208643Y0033869D02*
X0225694Y0033869D01*
X0226293Y0034467D02*
X0208044Y0034467D01*
X0207446Y0035066D02*
X0226891Y0035066D01*
X0227490Y0035664D02*
X0206847Y0035664D01*
X0206249Y0036263D02*
X0228088Y0036263D01*
X0228687Y0036861D02*
X0205650Y0036861D01*
X0205052Y0037460D02*
X0229285Y0037460D01*
X0229884Y0038058D02*
X0204453Y0038058D01*
X0203988Y0038523D02*
X0203175Y0039336D01*
X0194970Y0039336D01*
X0194970Y0042686D01*
X0186616Y0051039D01*
X0187226Y0051039D01*
X0187863Y0051676D01*
X0187863Y0062420D01*
X0187226Y0063057D01*
X0181601Y0063057D01*
X0180964Y0062420D01*
X0180964Y0051676D01*
X0181601Y0051039D01*
X0182692Y0051039D01*
X0183296Y0050435D01*
X0192172Y0041560D01*
X0191320Y0041913D01*
X0190295Y0041913D01*
X0189348Y0041520D01*
X0188624Y0040796D01*
X0188594Y0040724D01*
X0186765Y0040724D01*
X0185952Y0039911D01*
X0177518Y0031477D01*
X0177446Y0031507D01*
X0176421Y0031507D01*
X0175474Y0031115D01*
X0174750Y0030390D01*
X0174357Y0029443D01*
X0174357Y0028418D01*
X0174750Y0027471D01*
X0175474Y0026747D01*
X0176421Y0026354D01*
X0177446Y0026354D01*
X0178393Y0026747D01*
X0179118Y0027471D01*
X0179510Y0028418D01*
X0179510Y0029443D01*
X0179480Y0029515D01*
X0187914Y0037949D01*
X0188594Y0037949D01*
X0188624Y0037877D01*
X0189046Y0037455D01*
X0188727Y0037136D01*
X0183177Y0031586D01*
X0183177Y0031561D01*
X0181601Y0031561D01*
X0180964Y0030924D01*
X0180964Y0020180D01*
X0181601Y0019543D01*
X0187226Y0019543D01*
X0187863Y0020180D01*
X0187863Y0030924D01*
X0187226Y0031561D01*
X0187075Y0031561D01*
X0190689Y0035174D01*
X0192770Y0035174D01*
X0194157Y0036561D01*
X0202026Y0036561D01*
X0203271Y0035317D01*
X0202420Y0035669D01*
X0201395Y0035669D01*
X0200448Y0035277D01*
X0199723Y0034552D01*
X0199515Y0034050D01*
X0199132Y0033668D01*
X0199132Y0033668D01*
X0197745Y0032280D01*
X0197745Y0028370D01*
X0197705Y0028354D01*
X0197705Y0030924D01*
X0197069Y0031561D01*
X0191443Y0031561D01*
X0190806Y0030924D01*
X0190806Y0020180D01*
X0191443Y0019543D01*
X0191502Y0019543D01*
X0191502Y0019100D01*
X0186071Y0013669D01*
X0147224Y0013669D01*
X0145836Y0012282D01*
X0142823Y0012282D01*
X0132537Y0022568D01*
X0132537Y0022568D01*
X0131724Y0023381D01*
X0066061Y0023381D01*
X0065050Y0022370D01*
X0065050Y0022506D01*
X0065020Y0022578D01*
X0072066Y0029624D01*
X0072879Y0030437D01*
X0072879Y0044192D01*
X0151386Y0044192D01*
X0152050Y0043528D01*
X0152023Y0043502D01*
X0151431Y0042073D01*
X0151431Y0040527D01*
X0152023Y0039098D01*
X0153117Y0038004D01*
X0154546Y0037413D01*
X0156092Y0037413D01*
X0157521Y0038004D01*
X0158614Y0039098D01*
X0159206Y0040527D01*
X0159206Y0042073D01*
X0158614Y0043502D01*
X0157521Y0044596D01*
X0156092Y0045187D01*
X0154546Y0045187D01*
X0154382Y0045120D01*
X0153348Y0046154D01*
X0153348Y0046154D01*
X0152535Y0046967D01*
X0084805Y0046967D01*
X0161553Y0046967D01*
X0162366Y0047780D01*
X0178202Y0063616D01*
X0191621Y0063616D01*
X0192180Y0063057D01*
X0191443Y0063057D01*
X0190806Y0062420D01*
X0190806Y0051676D01*
X0191443Y0051039D01*
X0197069Y0051039D01*
X0197705Y0051676D01*
X0197705Y0062420D01*
X0197069Y0063057D01*
X0194970Y0063057D01*
X0194970Y0064190D01*
X0193583Y0065578D01*
X0193464Y0065697D01*
X0204801Y0065697D01*
X0211738Y0058760D01*
X0207548Y0058760D01*
X0207548Y0062420D01*
X0206911Y0063057D01*
X0201286Y0063057D01*
X0200649Y0062420D01*
X0200649Y0051676D01*
X0201286Y0051039D01*
X0206911Y0051039D01*
X0207548Y0051676D01*
X0207548Y0055985D01*
X0278333Y0055985D01*
X0281683Y0052636D01*
X0282495Y0051823D01*
X0319703Y0051823D01*
X0319703Y0051823D01*
X0228387Y0051823D01*
X0223303Y0046739D01*
X0223231Y0046768D01*
X0222206Y0046768D01*
X0222134Y0046739D01*
X0219131Y0049742D01*
X0210364Y0049742D01*
X0210335Y0049814D01*
X0209610Y0050538D01*
X0208663Y0050931D01*
X0207638Y0050931D01*
X0206691Y0050538D01*
X0205966Y0049814D01*
X0205574Y0048867D01*
X0205574Y0047842D01*
X0205966Y0046895D01*
X0206691Y0046170D01*
X0207638Y0045778D01*
X0208663Y0045778D01*
X0209610Y0046170D01*
X0210335Y0046895D01*
X0210364Y0046967D01*
X0217981Y0046967D01*
X0220172Y0044777D01*
X0220142Y0044705D01*
X0220142Y0043680D01*
X0220534Y0042733D01*
X0221259Y0042008D01*
X0222206Y0041616D01*
X0223231Y0041616D01*
X0224178Y0042008D01*
X0224902Y0042733D01*
X0225294Y0043680D01*
X0225294Y0044705D01*
X0225265Y0044777D01*
X0229536Y0049048D01*
X0240180Y0049048D01*
X0237980Y0046848D01*
X0237980Y0046154D01*
X0217664Y0025838D01*
X0217664Y0025975D01*
X0217272Y0026922D01*
X0216547Y0027646D01*
X0215600Y0028039D01*
X0214575Y0028039D01*
X0214503Y0028009D01*
X0203988Y0038523D01*
X0203855Y0038657D02*
X0230482Y0038657D01*
X0231081Y0039255D02*
X0203256Y0039255D01*
X0202601Y0037949D02*
X0193583Y0037949D01*
X0193583Y0042111D01*
X0183871Y0051823D01*
X0183871Y0056679D01*
X0184413Y0057048D01*
X0180964Y0057211D02*
X0171797Y0057211D01*
X0172396Y0057809D02*
X0180964Y0057809D01*
X0180964Y0058408D02*
X0172994Y0058408D01*
X0173593Y0059006D02*
X0180964Y0059006D01*
X0180964Y0059605D02*
X0174191Y0059605D01*
X0174790Y0060203D02*
X0180964Y0060203D01*
X0180964Y0060802D02*
X0175388Y0060802D01*
X0175987Y0061400D02*
X0180964Y0061400D01*
X0180964Y0061999D02*
X0176585Y0061999D01*
X0177184Y0062597D02*
X0181141Y0062597D01*
X0177782Y0063196D02*
X0192041Y0063196D01*
X0190984Y0062597D02*
X0187685Y0062597D01*
X0187863Y0061999D02*
X0190806Y0061999D01*
X0190806Y0061400D02*
X0187863Y0061400D01*
X0187863Y0060802D02*
X0190806Y0060802D01*
X0190806Y0060203D02*
X0187863Y0060203D01*
X0187863Y0059605D02*
X0190806Y0059605D01*
X0190806Y0059006D02*
X0187863Y0059006D01*
X0187863Y0058408D02*
X0190806Y0058408D01*
X0190806Y0057809D02*
X0187863Y0057809D01*
X0187863Y0057211D02*
X0190806Y0057211D01*
X0190806Y0056612D02*
X0187863Y0056612D01*
X0187863Y0056014D02*
X0190806Y0056014D01*
X0190806Y0055415D02*
X0187863Y0055415D01*
X0187863Y0054817D02*
X0190806Y0054817D01*
X0190806Y0054218D02*
X0187863Y0054218D01*
X0187863Y0053620D02*
X0190806Y0053620D01*
X0190806Y0053021D02*
X0187863Y0053021D01*
X0187863Y0052423D02*
X0190806Y0052423D01*
X0190806Y0051824D02*
X0187863Y0051824D01*
X0187412Y0051226D02*
X0191257Y0051226D01*
X0187029Y0050627D02*
X0206905Y0050627D01*
X0207097Y0051226D02*
X0227789Y0051226D01*
X0227191Y0050627D02*
X0209396Y0050627D01*
X0210120Y0050029D02*
X0226592Y0050029D01*
X0225994Y0049430D02*
X0219442Y0049430D01*
X0220041Y0048832D02*
X0225395Y0048832D01*
X0224797Y0048233D02*
X0220639Y0048233D01*
X0221238Y0047634D02*
X0224198Y0047634D01*
X0223600Y0047036D02*
X0221836Y0047036D01*
X0219109Y0045839D02*
X0208810Y0045839D01*
X0209877Y0046437D02*
X0218511Y0046437D01*
X0219708Y0045240D02*
X0192415Y0045240D01*
X0193014Y0044642D02*
X0220142Y0044642D01*
X0220142Y0044043D02*
X0193612Y0044043D01*
X0194211Y0043445D02*
X0220239Y0043445D01*
X0220487Y0042846D02*
X0194809Y0042846D01*
X0194970Y0042248D02*
X0221019Y0042248D01*
X0222124Y0041649D02*
X0194970Y0041649D01*
X0194970Y0041051D02*
X0232876Y0041051D01*
X0232278Y0040452D02*
X0194970Y0040452D01*
X0194970Y0039854D02*
X0231679Y0039854D01*
X0237086Y0039255D02*
X0320436Y0039255D01*
X0319837Y0039854D02*
X0237684Y0039854D01*
X0238283Y0040452D02*
X0244613Y0040452D01*
X0244015Y0041051D02*
X0238881Y0041051D01*
X0239480Y0041649D02*
X0243416Y0041649D01*
X0242818Y0042248D02*
X0240078Y0042248D01*
X0235270Y0043445D02*
X0225197Y0043445D01*
X0225294Y0044043D02*
X0235869Y0044043D01*
X0236467Y0044642D02*
X0225294Y0044642D01*
X0225729Y0045240D02*
X0237066Y0045240D01*
X0237664Y0045839D02*
X0226327Y0045839D01*
X0226926Y0046437D02*
X0237980Y0046437D01*
X0238168Y0047036D02*
X0227524Y0047036D01*
X0228123Y0047634D02*
X0238766Y0047634D01*
X0239365Y0048233D02*
X0228721Y0048233D01*
X0229320Y0048832D02*
X0239963Y0048832D01*
X0242142Y0049048D02*
X0333710Y0049048D01*
X0335098Y0047661D01*
X0345503Y0047661D01*
X0350359Y0042805D01*
X0350359Y0039336D01*
X0339251Y0038657D02*
X0339210Y0038657D01*
X0328639Y0035664D02*
X0233495Y0035664D01*
X0232896Y0035066D02*
X0329399Y0035066D01*
X0330844Y0034467D02*
X0232298Y0034467D01*
X0234093Y0036263D02*
X0328041Y0036263D01*
X0327442Y0036861D02*
X0234692Y0036861D01*
X0235290Y0037460D02*
X0327081Y0037460D01*
X0326834Y0038058D02*
X0235889Y0038058D01*
X0236487Y0038657D02*
X0326586Y0038657D01*
X0326338Y0039255D02*
X0323399Y0039255D01*
X0323997Y0039854D02*
X0326235Y0039854D01*
X0326235Y0040452D02*
X0324306Y0040452D01*
X0324494Y0041051D02*
X0326235Y0041051D01*
X0326235Y0041649D02*
X0324494Y0041649D01*
X0324362Y0042248D02*
X0326275Y0042248D01*
X0326523Y0042846D02*
X0324114Y0042846D01*
X0323533Y0043445D02*
X0326771Y0043445D01*
X0327019Y0044043D02*
X0244946Y0044043D01*
X0244718Y0044642D02*
X0327290Y0044642D01*
X0327889Y0045240D02*
X0244718Y0045240D01*
X0244536Y0045839D02*
X0328487Y0045839D01*
X0329086Y0046437D02*
X0244234Y0046437D01*
X0243635Y0047036D02*
X0330477Y0047036D01*
X0333162Y0047634D02*
X0242690Y0047634D01*
X0242142Y0049048D02*
X0239367Y0046273D01*
X0239367Y0045580D01*
X0216475Y0022687D01*
X0213700Y0022687D01*
X0210925Y0025462D01*
X0204682Y0025462D01*
X0204098Y0025552D01*
X0207548Y0024075D02*
X0210351Y0024075D01*
X0212313Y0022113D01*
X0213125Y0021300D01*
X0207548Y0021300D01*
X0207548Y0020701D02*
X0214608Y0020701D01*
X0214009Y0020103D02*
X0207471Y0020103D01*
X0207548Y0020180D02*
X0207548Y0024075D01*
X0207548Y0023694D02*
X0210731Y0023694D01*
X0211330Y0023096D02*
X0207548Y0023096D01*
X0207548Y0022497D02*
X0211928Y0022497D01*
X0212527Y0021899D02*
X0207548Y0021899D01*
X0213125Y0021300D02*
X0215206Y0021300D01*
X0213125Y0019219D01*
X0197878Y0019219D01*
X0197848Y0019291D01*
X0197332Y0019807D01*
X0197705Y0020180D01*
X0197705Y0023958D01*
X0198620Y0023580D01*
X0199645Y0023580D01*
X0200592Y0023972D01*
X0200649Y0024029D01*
X0200649Y0020180D01*
X0201286Y0019543D01*
X0206911Y0019543D01*
X0207548Y0020180D01*
X0213411Y0019504D02*
X0197634Y0019504D01*
X0197628Y0020103D02*
X0200726Y0020103D01*
X0200649Y0020701D02*
X0197705Y0020701D01*
X0197705Y0021300D02*
X0200649Y0021300D01*
X0200649Y0021899D02*
X0197705Y0021899D01*
X0197705Y0022497D02*
X0200649Y0022497D01*
X0200649Y0023096D02*
X0197705Y0023096D01*
X0197705Y0023694D02*
X0198343Y0023694D01*
X0199921Y0023694D02*
X0200649Y0023694D01*
X0194256Y0025552D02*
X0193583Y0025462D01*
X0193583Y0019913D01*
X0192889Y0019219D01*
X0192889Y0018525D01*
X0186646Y0012282D01*
X0147798Y0012282D01*
X0146411Y0010894D01*
X0142249Y0010894D01*
X0131150Y0021994D01*
X0066635Y0021994D01*
X0063861Y0019219D01*
X0034031Y0019219D01*
X0023626Y0029624D01*
X0023626Y0041417D01*
X0025013Y0042805D01*
X0027590Y0042846D02*
X0028893Y0042846D01*
X0028893Y0043098D02*
X0028893Y0040447D01*
X0029907Y0037999D01*
X0031781Y0036124D01*
X0034230Y0035110D01*
X0036880Y0035110D01*
X0039329Y0036124D01*
X0041203Y0037999D01*
X0041751Y0039322D01*
X0041751Y0038487D01*
X0042388Y0037850D01*
X0048801Y0037850D01*
X0049438Y0038487D01*
X0049438Y0044113D01*
X0048801Y0044750D01*
X0046518Y0044750D01*
X0046518Y0045461D01*
X0040968Y0051010D01*
X0040156Y0051823D01*
X0027907Y0051823D01*
X0021664Y0045580D01*
X0020851Y0044767D01*
X0020851Y0028356D01*
X0037500Y0011707D01*
X0038307Y0010900D01*
X0013856Y0010900D01*
X0013856Y0071700D01*
X0150452Y0071700D01*
X0137512Y0058760D01*
X0087579Y0058760D01*
X0087549Y0058832D01*
X0086825Y0059557D01*
X0085878Y0059949D01*
X0084853Y0059949D01*
X0084781Y0059919D01*
X0082987Y0061713D01*
X0083206Y0061713D01*
X0083843Y0062350D01*
X0083843Y0070250D01*
X0083206Y0070887D01*
X0075305Y0070887D01*
X0074669Y0070250D01*
X0074669Y0062350D01*
X0075305Y0061713D01*
X0079063Y0061713D01*
X0079241Y0061535D01*
X0082819Y0057957D01*
X0082789Y0057885D01*
X0082789Y0056860D01*
X0083151Y0055985D01*
X0080390Y0055985D01*
X0074266Y0062109D01*
X0074266Y0066272D01*
X0073453Y0067084D01*
X0070679Y0069859D01*
X0066754Y0069859D01*
X0065942Y0069046D01*
X0064554Y0067659D01*
X0064554Y0063735D01*
X0065367Y0062922D01*
X0068717Y0059573D01*
X0068717Y0045592D01*
X0066888Y0047420D01*
X0066155Y0047724D01*
X0066761Y0048330D01*
X0066761Y0053955D01*
X0066124Y0054592D01*
X0060328Y0054592D01*
X0060328Y0055894D01*
X0059403Y0058125D01*
X0057695Y0059833D01*
X0055464Y0060757D01*
X0053048Y0060757D01*
X0050817Y0059833D01*
X0049109Y0058125D01*
X0048184Y0055894D01*
X0048184Y0053478D01*
X0049109Y0051247D01*
X0050817Y0049539D01*
X0053048Y0048614D01*
X0055464Y0048614D01*
X0055536Y0048644D01*
X0055536Y0047542D01*
X0050799Y0042805D01*
X0049987Y0041992D01*
X0049987Y0038523D01*
X0043862Y0032399D01*
X0028615Y0032399D01*
X0028585Y0032471D01*
X0027860Y0033196D01*
X0026913Y0033588D01*
X0025888Y0033588D01*
X0025013Y0033226D01*
X0025013Y0040228D01*
X0025526Y0040228D01*
X0026473Y0040621D01*
X0027198Y0041345D01*
X0027590Y0042292D01*
X0027590Y0043317D01*
X0027198Y0044264D01*
X0026473Y0044989D01*
X0025526Y0045381D01*
X0025390Y0045381D01*
X0029057Y0049048D01*
X0039006Y0049048D01*
X0043305Y0044750D01*
X0042388Y0044750D01*
X0041784Y0044145D01*
X0041203Y0045546D01*
X0039329Y0047420D01*
X0036880Y0048435D01*
X0034230Y0048435D01*
X0031781Y0047420D01*
X0029907Y0045546D01*
X0028893Y0043098D01*
X0029037Y0043445D02*
X0027537Y0043445D01*
X0027289Y0044043D02*
X0029285Y0044043D01*
X0029533Y0044642D02*
X0026820Y0044642D01*
X0025865Y0045240D02*
X0029780Y0045240D01*
X0030200Y0045839D02*
X0025847Y0045839D01*
X0026446Y0046437D02*
X0030798Y0046437D01*
X0031397Y0047036D02*
X0027045Y0047036D01*
X0027643Y0047634D02*
X0032298Y0047634D01*
X0033743Y0048233D02*
X0028242Y0048233D01*
X0028840Y0048832D02*
X0039223Y0048832D01*
X0039821Y0048233D02*
X0037367Y0048233D01*
X0038812Y0047634D02*
X0040420Y0047634D01*
X0041018Y0047036D02*
X0039713Y0047036D01*
X0040312Y0046437D02*
X0041617Y0046437D01*
X0042215Y0045839D02*
X0040910Y0045839D01*
X0041330Y0045240D02*
X0042814Y0045240D01*
X0042281Y0044642D02*
X0041578Y0044642D01*
X0045131Y0044886D02*
X0039581Y0050435D01*
X0028482Y0050435D01*
X0022239Y0044192D01*
X0022239Y0028931D01*
X0038887Y0012282D01*
X0120744Y0012282D01*
X0122131Y0010894D01*
X0126294Y0010894D01*
X0129762Y0014363D01*
X0134618Y0014363D01*
X0137057Y0013519D02*
X0137662Y0013519D01*
X0137194Y0013851D02*
X0137194Y0013987D01*
X0140281Y0010900D01*
X0128261Y0010900D01*
X0130337Y0012976D01*
X0132404Y0012976D01*
X0132434Y0012904D01*
X0133159Y0012179D01*
X0134106Y0011787D01*
X0135131Y0011787D01*
X0136078Y0012179D01*
X0136802Y0012904D01*
X0137194Y0013851D01*
X0136809Y0012921D02*
X0138260Y0012921D01*
X0138859Y0012322D02*
X0136221Y0012322D01*
X0133015Y0012322D02*
X0129684Y0012322D01*
X0130282Y0012921D02*
X0132427Y0012921D01*
X0129085Y0011724D02*
X0139457Y0011724D01*
X0140056Y0011125D02*
X0128487Y0011125D01*
X0125759Y0012322D02*
X0122666Y0012322D01*
X0122706Y0012282D02*
X0121319Y0013669D01*
X0039462Y0013669D01*
X0035300Y0017831D01*
X0064435Y0017831D01*
X0065248Y0018644D01*
X0067210Y0020606D01*
X0130575Y0020606D01*
X0134242Y0016939D01*
X0134106Y0016939D01*
X0133159Y0016547D01*
X0132434Y0015822D01*
X0132404Y0015750D01*
X0129188Y0015750D01*
X0128375Y0014938D01*
X0125719Y0012282D01*
X0122706Y0012282D01*
X0122729Y0012613D02*
X0125783Y0012613D01*
X0127943Y0014773D01*
X0127943Y0017827D01*
X0125783Y0019987D01*
X0122729Y0019987D01*
X0120569Y0017827D01*
X0120569Y0014773D01*
X0122729Y0012613D01*
X0122420Y0012921D02*
X0122067Y0012921D01*
X0121822Y0013519D02*
X0121469Y0013519D01*
X0121223Y0014118D02*
X0039013Y0014118D01*
X0038415Y0014716D02*
X0120625Y0014716D01*
X0120569Y0015315D02*
X0037816Y0015315D01*
X0037218Y0015913D02*
X0120569Y0015913D01*
X0120569Y0016512D02*
X0036619Y0016512D01*
X0036021Y0017110D02*
X0120569Y0017110D01*
X0120569Y0017709D02*
X0035422Y0017709D01*
X0032097Y0017110D02*
X0013856Y0017110D01*
X0013856Y0016512D02*
X0032695Y0016512D01*
X0033294Y0015913D02*
X0013856Y0015913D01*
X0013856Y0015315D02*
X0033892Y0015315D01*
X0034491Y0014716D02*
X0013856Y0014716D01*
X0013856Y0014118D02*
X0035089Y0014118D01*
X0035688Y0013519D02*
X0013856Y0013519D01*
X0013856Y0012921D02*
X0036286Y0012921D01*
X0036885Y0012322D02*
X0013856Y0012322D01*
X0013856Y0011724D02*
X0037483Y0011724D01*
X0038082Y0011125D02*
X0013856Y0011125D01*
X0013856Y0017709D02*
X0031498Y0017709D01*
X0030900Y0018307D02*
X0013856Y0018307D01*
X0013856Y0018906D02*
X0030301Y0018906D01*
X0029703Y0019504D02*
X0013856Y0019504D01*
X0013856Y0020103D02*
X0029104Y0020103D01*
X0028506Y0020701D02*
X0013856Y0020701D01*
X0013856Y0021300D02*
X0027907Y0021300D01*
X0027309Y0021899D02*
X0013856Y0021899D01*
X0013856Y0022497D02*
X0026710Y0022497D01*
X0026112Y0023096D02*
X0013856Y0023096D01*
X0013856Y0023694D02*
X0025513Y0023694D01*
X0024915Y0024293D02*
X0013856Y0024293D01*
X0013856Y0024891D02*
X0024316Y0024891D01*
X0023718Y0025490D02*
X0013856Y0025490D01*
X0013856Y0026088D02*
X0023119Y0026088D01*
X0022521Y0026687D02*
X0013856Y0026687D01*
X0013856Y0027285D02*
X0021922Y0027285D01*
X0021324Y0027884D02*
X0013856Y0027884D01*
X0013856Y0028482D02*
X0020851Y0028482D01*
X0020851Y0029081D02*
X0013856Y0029081D01*
X0013856Y0029679D02*
X0020851Y0029679D01*
X0020851Y0030278D02*
X0013856Y0030278D01*
X0013856Y0030876D02*
X0020851Y0030876D01*
X0020851Y0031475D02*
X0013856Y0031475D01*
X0013856Y0032073D02*
X0020851Y0032073D01*
X0020851Y0032672D02*
X0013856Y0032672D01*
X0013856Y0033270D02*
X0020851Y0033270D01*
X0020851Y0033869D02*
X0013856Y0033869D01*
X0013856Y0034467D02*
X0020851Y0034467D01*
X0020851Y0035066D02*
X0013856Y0035066D01*
X0013856Y0035664D02*
X0020851Y0035664D01*
X0020851Y0036263D02*
X0013856Y0036263D01*
X0013856Y0036861D02*
X0020851Y0036861D01*
X0020851Y0037460D02*
X0013856Y0037460D01*
X0013856Y0038058D02*
X0020851Y0038058D01*
X0020851Y0038657D02*
X0013856Y0038657D01*
X0013856Y0039255D02*
X0020851Y0039255D01*
X0020851Y0039854D02*
X0013856Y0039854D01*
X0013856Y0040452D02*
X0020851Y0040452D01*
X0020851Y0041051D02*
X0013856Y0041051D01*
X0013856Y0041649D02*
X0020851Y0041649D01*
X0020851Y0042248D02*
X0013856Y0042248D01*
X0013856Y0042846D02*
X0020851Y0042846D01*
X0020851Y0043445D02*
X0013856Y0043445D01*
X0013856Y0044043D02*
X0020851Y0044043D01*
X0020851Y0044642D02*
X0013856Y0044642D01*
X0013856Y0045240D02*
X0021325Y0045240D01*
X0021923Y0045839D02*
X0013856Y0045839D01*
X0013856Y0046437D02*
X0022522Y0046437D01*
X0023120Y0047036D02*
X0013856Y0047036D01*
X0013856Y0047634D02*
X0023719Y0047634D01*
X0024317Y0048233D02*
X0013856Y0048233D01*
X0013856Y0048832D02*
X0024916Y0048832D01*
X0025514Y0049430D02*
X0013856Y0049430D01*
X0013856Y0050029D02*
X0026113Y0050029D01*
X0026711Y0050627D02*
X0013856Y0050627D01*
X0013856Y0051226D02*
X0027310Y0051226D01*
X0013856Y0051824D02*
X0048869Y0051824D01*
X0048621Y0052423D02*
X0013856Y0052423D01*
X0013856Y0053021D02*
X0048374Y0053021D01*
X0048184Y0053620D02*
X0013856Y0053620D01*
X0013856Y0054218D02*
X0048184Y0054218D01*
X0048184Y0054817D02*
X0013856Y0054817D01*
X0013856Y0055415D02*
X0048184Y0055415D01*
X0048234Y0056014D02*
X0013856Y0056014D01*
X0013856Y0056612D02*
X0048482Y0056612D01*
X0048730Y0057211D02*
X0013856Y0057211D01*
X0013856Y0057809D02*
X0048978Y0057809D01*
X0049391Y0058408D02*
X0013856Y0058408D01*
X0013856Y0059006D02*
X0049990Y0059006D01*
X0050588Y0059605D02*
X0013856Y0059605D01*
X0013856Y0060203D02*
X0051710Y0060203D01*
X0056802Y0060203D02*
X0068086Y0060203D01*
X0068684Y0059605D02*
X0057924Y0059605D01*
X0058522Y0059006D02*
X0068717Y0059006D01*
X0068717Y0058408D02*
X0059121Y0058408D01*
X0059534Y0057809D02*
X0068717Y0057809D01*
X0068717Y0057211D02*
X0059782Y0057211D01*
X0060030Y0056612D02*
X0068717Y0056612D01*
X0068717Y0056014D02*
X0060278Y0056014D01*
X0060328Y0055415D02*
X0068717Y0055415D01*
X0068717Y0054817D02*
X0060328Y0054817D01*
X0066498Y0054218D02*
X0068717Y0054218D01*
X0068717Y0053620D02*
X0066761Y0053620D01*
X0066761Y0053021D02*
X0068717Y0053021D01*
X0068717Y0052423D02*
X0066761Y0052423D01*
X0066761Y0051824D02*
X0068717Y0051824D01*
X0068717Y0051226D02*
X0066761Y0051226D01*
X0066761Y0050627D02*
X0068717Y0050627D01*
X0068717Y0050029D02*
X0066761Y0050029D01*
X0066761Y0049430D02*
X0068717Y0049430D01*
X0068717Y0048832D02*
X0066761Y0048832D01*
X0066664Y0048233D02*
X0068717Y0048233D01*
X0068717Y0047634D02*
X0066371Y0047634D01*
X0067272Y0047036D02*
X0068717Y0047036D01*
X0068717Y0046437D02*
X0067871Y0046437D01*
X0068469Y0045839D02*
X0068717Y0045839D01*
X0071491Y0045580D02*
X0151961Y0045580D01*
X0154735Y0042805D01*
X0154735Y0041417D01*
X0155319Y0041300D01*
X0158886Y0042846D02*
X0159626Y0042846D01*
X0159378Y0042248D02*
X0159134Y0042248D01*
X0159306Y0042073D02*
X0159306Y0040527D01*
X0159897Y0039098D01*
X0160032Y0038964D01*
X0142943Y0021875D01*
X0142943Y0019987D01*
X0142729Y0019987D01*
X0140569Y0017827D01*
X0140569Y0014773D01*
X0142729Y0012613D01*
X0145783Y0012613D01*
X0147943Y0014773D01*
X0147943Y0017827D01*
X0145783Y0019987D01*
X0145717Y0019987D01*
X0145717Y0020725D01*
X0162409Y0037417D01*
X0162420Y0037413D01*
X0163966Y0037413D01*
X0165395Y0038004D01*
X0166488Y0039098D01*
X0167080Y0040527D01*
X0167080Y0042073D01*
X0166488Y0043502D01*
X0165395Y0044596D01*
X0163966Y0045187D01*
X0162420Y0045187D01*
X0160991Y0044596D01*
X0159897Y0043502D01*
X0159306Y0042073D01*
X0159306Y0041649D02*
X0159206Y0041649D01*
X0159206Y0041051D02*
X0159306Y0041051D01*
X0159336Y0040452D02*
X0159175Y0040452D01*
X0158928Y0039854D02*
X0159584Y0039854D01*
X0159832Y0039255D02*
X0158680Y0039255D01*
X0158173Y0038657D02*
X0159725Y0038657D01*
X0159126Y0038058D02*
X0157575Y0038058D01*
X0158528Y0037460D02*
X0156206Y0037460D01*
X0154432Y0037460D02*
X0122943Y0037460D01*
X0122943Y0037827D02*
X0120783Y0039987D01*
X0117729Y0039987D01*
X0115569Y0037827D01*
X0115569Y0034773D01*
X0115587Y0034754D01*
X0111873Y0031040D01*
X0111798Y0031115D01*
X0110851Y0031507D01*
X0109826Y0031507D01*
X0108879Y0031115D01*
X0108154Y0030390D01*
X0107762Y0029443D01*
X0107762Y0028418D01*
X0108154Y0027471D01*
X0108879Y0026747D01*
X0109826Y0026354D01*
X0110851Y0026354D01*
X0111798Y0026747D01*
X0112523Y0027471D01*
X0112731Y0027973D01*
X0117549Y0032792D01*
X0117729Y0032613D01*
X0120783Y0032613D01*
X0122943Y0034773D01*
X0122943Y0037827D01*
X0122712Y0038058D02*
X0153063Y0038058D01*
X0152464Y0038657D02*
X0122114Y0038657D01*
X0121515Y0039255D02*
X0151958Y0039255D01*
X0151710Y0039854D02*
X0120917Y0039854D01*
X0117595Y0039854D02*
X0110917Y0039854D01*
X0110783Y0039987D02*
X0107729Y0039987D01*
X0105569Y0037827D01*
X0105569Y0034773D01*
X0107729Y0032613D01*
X0110783Y0032613D01*
X0112943Y0034773D01*
X0112943Y0037827D01*
X0110783Y0039987D01*
X0111515Y0039255D02*
X0116996Y0039255D01*
X0116398Y0038657D02*
X0112114Y0038657D01*
X0112712Y0038058D02*
X0115799Y0038058D01*
X0115569Y0037460D02*
X0112943Y0037460D01*
X0112943Y0036861D02*
X0115569Y0036861D01*
X0115569Y0036263D02*
X0112943Y0036263D01*
X0112943Y0035664D02*
X0115569Y0035664D01*
X0115569Y0035066D02*
X0112943Y0035066D01*
X0112638Y0034467D02*
X0115300Y0034467D01*
X0114702Y0033869D02*
X0112039Y0033869D01*
X0111441Y0033270D02*
X0114103Y0033270D01*
X0113505Y0032672D02*
X0110842Y0032672D01*
X0110929Y0031475D02*
X0112308Y0031475D01*
X0112906Y0032073D02*
X0072879Y0032073D01*
X0072879Y0031475D02*
X0109748Y0031475D01*
X0108641Y0030876D02*
X0072879Y0030876D01*
X0072719Y0030278D02*
X0108108Y0030278D01*
X0107860Y0029679D02*
X0072121Y0029679D01*
X0071522Y0029081D02*
X0107762Y0029081D01*
X0107762Y0028482D02*
X0070924Y0028482D01*
X0070325Y0027884D02*
X0107984Y0027884D01*
X0108341Y0027285D02*
X0069727Y0027285D01*
X0069128Y0026687D02*
X0109024Y0026687D01*
X0111653Y0026687D02*
X0147754Y0026687D01*
X0147156Y0026088D02*
X0068530Y0026088D01*
X0067931Y0025490D02*
X0146557Y0025490D01*
X0145959Y0024891D02*
X0067333Y0024891D01*
X0066734Y0024293D02*
X0145360Y0024293D01*
X0144762Y0023694D02*
X0066136Y0023694D01*
X0065775Y0023096D02*
X0065537Y0023096D01*
X0065177Y0022497D02*
X0065050Y0022497D01*
X0062473Y0021994D02*
X0071491Y0031012D01*
X0071491Y0045580D01*
X0071491Y0062922D01*
X0068717Y0065697D01*
X0071293Y0065321D02*
X0071491Y0065122D01*
X0071491Y0064884D01*
X0071263Y0065112D01*
X0071293Y0065184D01*
X0071293Y0065321D01*
X0071384Y0064991D02*
X0071491Y0064991D01*
X0072879Y0065697D02*
X0072879Y0061535D01*
X0079816Y0054598D01*
X0106176Y0054598D01*
X0108626Y0055415D02*
X0148487Y0055415D01*
X0147889Y0056014D02*
X0138690Y0056014D01*
X0138661Y0055985D02*
X0139474Y0056798D01*
X0145717Y0063041D01*
X0145717Y0058185D01*
X0149880Y0054023D01*
X0150692Y0053210D01*
X0157391Y0053210D01*
X0161833Y0057652D01*
X0162244Y0057241D01*
X0164004Y0056513D01*
X0165908Y0056513D01*
X0167668Y0057241D01*
X0169014Y0058588D01*
X0169743Y0060348D01*
X0169743Y0062252D01*
X0169014Y0064012D01*
X0167668Y0065359D01*
X0166851Y0065697D01*
X0176359Y0065697D01*
X0160404Y0049742D01*
X0084805Y0049742D01*
X0084775Y0049814D01*
X0084050Y0050538D01*
X0083103Y0050931D01*
X0082078Y0050931D01*
X0081131Y0050538D01*
X0080406Y0049814D01*
X0080014Y0048867D01*
X0080014Y0047842D01*
X0080377Y0046967D01*
X0072879Y0046967D01*
X0072879Y0059573D01*
X0078428Y0054023D01*
X0079241Y0053210D01*
X0103962Y0053210D01*
X0103992Y0053138D01*
X0104717Y0052413D01*
X0105664Y0052021D01*
X0106689Y0052021D01*
X0107636Y0052413D01*
X0108361Y0053138D01*
X0108753Y0054085D01*
X0108753Y0055110D01*
X0108390Y0055985D01*
X0138661Y0055985D01*
X0139288Y0056612D02*
X0147290Y0056612D01*
X0146692Y0057211D02*
X0139887Y0057211D01*
X0140485Y0057809D02*
X0146093Y0057809D01*
X0145717Y0058408D02*
X0141084Y0058408D01*
X0141682Y0059006D02*
X0145717Y0059006D01*
X0145717Y0059605D02*
X0142281Y0059605D01*
X0142879Y0060203D02*
X0145717Y0060203D01*
X0145717Y0060802D02*
X0143478Y0060802D01*
X0144077Y0061400D02*
X0145717Y0061400D01*
X0145717Y0061999D02*
X0144675Y0061999D01*
X0145274Y0062597D02*
X0145717Y0062597D01*
X0148492Y0062597D02*
X0148911Y0062597D01*
X0148769Y0062252D02*
X0148769Y0060348D01*
X0149497Y0058588D01*
X0150844Y0057241D01*
X0152604Y0056513D01*
X0154508Y0056513D01*
X0156268Y0057241D01*
X0157614Y0058588D01*
X0158343Y0060348D01*
X0158343Y0062252D01*
X0158275Y0062418D01*
X0162247Y0066391D01*
X0165954Y0066391D01*
X0166503Y0065841D01*
X0165908Y0066087D01*
X0164004Y0066087D01*
X0162244Y0065359D01*
X0160897Y0064012D01*
X0160169Y0062252D01*
X0160169Y0060348D01*
X0160296Y0060039D01*
X0156242Y0055985D01*
X0151842Y0055985D01*
X0148492Y0059335D01*
X0148492Y0063735D01*
X0152535Y0067778D01*
X0159710Y0067778D01*
X0156779Y0064847D01*
X0156268Y0065359D01*
X0154508Y0066087D01*
X0152604Y0066087D01*
X0150844Y0065359D01*
X0149497Y0064012D01*
X0148769Y0062252D01*
X0148769Y0061999D02*
X0148492Y0061999D01*
X0148492Y0061400D02*
X0148769Y0061400D01*
X0148769Y0060802D02*
X0148492Y0060802D01*
X0148492Y0060203D02*
X0148828Y0060203D01*
X0149076Y0059605D02*
X0148492Y0059605D01*
X0148820Y0059006D02*
X0149324Y0059006D01*
X0149419Y0058408D02*
X0149678Y0058408D01*
X0150017Y0057809D02*
X0150276Y0057809D01*
X0150616Y0057211D02*
X0150918Y0057211D01*
X0151214Y0056612D02*
X0152363Y0056612D01*
X0151813Y0056014D02*
X0156270Y0056014D01*
X0156869Y0056612D02*
X0154749Y0056612D01*
X0156193Y0057211D02*
X0157468Y0057211D01*
X0158066Y0057809D02*
X0156835Y0057809D01*
X0157434Y0058408D02*
X0158665Y0058408D01*
X0159263Y0059006D02*
X0157788Y0059006D01*
X0158036Y0059605D02*
X0159862Y0059605D01*
X0160228Y0060203D02*
X0158283Y0060203D01*
X0158343Y0060802D02*
X0160169Y0060802D01*
X0160169Y0061400D02*
X0158343Y0061400D01*
X0158343Y0061999D02*
X0160169Y0061999D01*
X0160311Y0062597D02*
X0158454Y0062597D01*
X0159052Y0063196D02*
X0160559Y0063196D01*
X0160807Y0063794D02*
X0159651Y0063794D01*
X0160249Y0064393D02*
X0161278Y0064393D01*
X0160848Y0064991D02*
X0161877Y0064991D01*
X0161446Y0065590D02*
X0162802Y0065590D01*
X0162045Y0066188D02*
X0166156Y0066188D01*
X0167109Y0065590D02*
X0176252Y0065590D01*
X0175654Y0064991D02*
X0168035Y0064991D01*
X0168633Y0064393D02*
X0175055Y0064393D01*
X0174457Y0063794D02*
X0169105Y0063794D01*
X0169352Y0063196D02*
X0173858Y0063196D01*
X0173260Y0062597D02*
X0169600Y0062597D01*
X0169743Y0061999D02*
X0172661Y0061999D01*
X0172063Y0061400D02*
X0169743Y0061400D01*
X0169743Y0060802D02*
X0171464Y0060802D01*
X0170866Y0060203D02*
X0169683Y0060203D01*
X0169436Y0059605D02*
X0170267Y0059605D01*
X0169669Y0059006D02*
X0169188Y0059006D01*
X0169070Y0058408D02*
X0168834Y0058408D01*
X0168472Y0057809D02*
X0168235Y0057809D01*
X0167873Y0057211D02*
X0167593Y0057211D01*
X0167275Y0056612D02*
X0166149Y0056612D01*
X0166676Y0056014D02*
X0160195Y0056014D01*
X0160793Y0056612D02*
X0163763Y0056612D01*
X0162318Y0057211D02*
X0161392Y0057211D01*
X0159596Y0055415D02*
X0166077Y0055415D01*
X0165479Y0054817D02*
X0158998Y0054817D01*
X0158399Y0054218D02*
X0164880Y0054218D01*
X0164282Y0053620D02*
X0157801Y0053620D01*
X0156817Y0054598D02*
X0151267Y0054598D01*
X0147105Y0058760D01*
X0147105Y0064309D01*
X0151961Y0069165D01*
X0167222Y0069165D01*
X0167916Y0068472D01*
X0206069Y0068472D01*
X0214394Y0060147D01*
X0278908Y0060147D01*
X0283070Y0064309D01*
X0290007Y0064309D01*
X0290701Y0063616D01*
X0353828Y0063616D01*
X0360765Y0056679D01*
X0360765Y0051823D01*
X0360417Y0051143D01*
X0364261Y0051226D02*
X0377156Y0051226D01*
X0377156Y0051824D02*
X0364261Y0051824D01*
X0364261Y0052423D02*
X0377156Y0052423D01*
X0377156Y0053021D02*
X0364261Y0053021D01*
X0364261Y0053620D02*
X0377156Y0053620D01*
X0377156Y0054218D02*
X0363998Y0054218D01*
X0362152Y0054817D02*
X0377156Y0054817D01*
X0377156Y0055415D02*
X0362152Y0055415D01*
X0362152Y0056014D02*
X0377156Y0056014D01*
X0377156Y0056612D02*
X0362152Y0056612D01*
X0362152Y0057211D02*
X0377156Y0057211D01*
X0377156Y0057809D02*
X0361596Y0057809D01*
X0360998Y0058408D02*
X0377156Y0058408D01*
X0377156Y0059006D02*
X0360399Y0059006D01*
X0359801Y0059605D02*
X0377156Y0059605D01*
X0377156Y0060203D02*
X0359202Y0060203D01*
X0358604Y0060802D02*
X0377156Y0060802D01*
X0377156Y0061400D02*
X0358005Y0061400D01*
X0357407Y0061999D02*
X0377156Y0061999D01*
X0377156Y0062597D02*
X0356808Y0062597D01*
X0356210Y0063196D02*
X0377156Y0063196D01*
X0377156Y0063794D02*
X0355611Y0063794D01*
X0355013Y0064393D02*
X0377156Y0064393D01*
X0370983Y0064991D02*
X0354414Y0064991D01*
X0353482Y0061999D02*
X0290615Y0061999D01*
X0290615Y0061400D02*
X0354081Y0061400D01*
X0354679Y0060802D02*
X0290615Y0060802D01*
X0290615Y0060203D02*
X0349210Y0060203D01*
X0348088Y0059605D02*
X0290615Y0059605D01*
X0290615Y0059006D02*
X0347490Y0059006D01*
X0346891Y0058408D02*
X0290615Y0058408D01*
X0290615Y0057809D02*
X0346478Y0057809D01*
X0346230Y0057211D02*
X0290615Y0057211D01*
X0290615Y0056612D02*
X0345982Y0056612D01*
X0345734Y0056014D02*
X0290615Y0056014D01*
X0290452Y0055415D02*
X0320508Y0055415D01*
X0319880Y0054817D02*
X0283426Y0054817D01*
X0283060Y0055415D02*
X0282827Y0055415D01*
X0282897Y0056014D02*
X0282229Y0056014D01*
X0281630Y0056612D02*
X0282897Y0056612D01*
X0282897Y0057211D02*
X0281032Y0057211D01*
X0278908Y0057372D02*
X0283070Y0053210D01*
X0321917Y0053210D01*
X0324288Y0054218D02*
X0345684Y0054218D01*
X0345684Y0053620D02*
X0324494Y0053620D01*
X0324494Y0053021D02*
X0345874Y0053021D01*
X0346121Y0052423D02*
X0338141Y0052423D01*
X0338698Y0051824D02*
X0346369Y0051824D01*
X0346630Y0051226D02*
X0338946Y0051226D01*
X0339061Y0050627D02*
X0347228Y0050627D01*
X0347827Y0050029D02*
X0339061Y0050029D01*
X0338857Y0049430D02*
X0348578Y0049430D01*
X0350023Y0048832D02*
X0346294Y0048832D01*
X0346893Y0048233D02*
X0356671Y0048233D01*
X0356574Y0048832D02*
X0353488Y0048832D01*
X0354933Y0049430D02*
X0356574Y0049430D01*
X0356574Y0050029D02*
X0355685Y0050029D01*
X0356284Y0050627D02*
X0356574Y0050627D01*
X0357828Y0054817D02*
X0359377Y0054817D01*
X0359377Y0055415D02*
X0357828Y0055415D01*
X0357778Y0056014D02*
X0359377Y0056014D01*
X0358869Y0056612D02*
X0357530Y0056612D01*
X0357282Y0057211D02*
X0358271Y0057211D01*
X0357672Y0057809D02*
X0357034Y0057809D01*
X0357074Y0058408D02*
X0356621Y0058408D01*
X0356475Y0059006D02*
X0356022Y0059006D01*
X0355876Y0059605D02*
X0355424Y0059605D01*
X0355278Y0060203D02*
X0354302Y0060203D01*
X0345684Y0055415D02*
X0323327Y0055415D01*
X0323954Y0054817D02*
X0345684Y0054817D01*
X0334829Y0052423D02*
X0324380Y0052423D01*
X0324132Y0051824D02*
X0334272Y0051824D01*
X0336485Y0050435D02*
X0228961Y0050435D01*
X0222718Y0044192D01*
X0218556Y0048354D01*
X0208150Y0048354D01*
X0205807Y0049430D02*
X0188226Y0049430D01*
X0188824Y0048832D02*
X0205574Y0048832D01*
X0205574Y0048233D02*
X0189423Y0048233D01*
X0190021Y0047634D02*
X0205660Y0047634D01*
X0205908Y0047036D02*
X0190620Y0047036D01*
X0191218Y0046437D02*
X0206424Y0046437D01*
X0207491Y0045839D02*
X0191817Y0045839D01*
X0189090Y0044642D02*
X0173699Y0044642D01*
X0173568Y0044958D02*
X0172844Y0045683D01*
X0171897Y0046075D01*
X0170872Y0046075D01*
X0169925Y0045683D01*
X0169200Y0044958D01*
X0168808Y0044011D01*
X0168808Y0042986D01*
X0169200Y0042039D01*
X0169925Y0041314D01*
X0169997Y0041284D01*
X0169997Y0032532D01*
X0169925Y0032502D01*
X0169200Y0031778D01*
X0168808Y0030831D01*
X0168808Y0029806D01*
X0169200Y0028859D01*
X0169925Y0028134D01*
X0170872Y0027742D01*
X0171897Y0027742D01*
X0172844Y0028134D01*
X0173568Y0028859D01*
X0173961Y0029806D01*
X0173961Y0030831D01*
X0173568Y0031778D01*
X0172844Y0032502D01*
X0172772Y0032532D01*
X0172772Y0041284D01*
X0172844Y0041314D01*
X0173568Y0042039D01*
X0173961Y0042986D01*
X0173961Y0044011D01*
X0173568Y0044958D01*
X0173286Y0045240D02*
X0188491Y0045240D01*
X0187893Y0045839D02*
X0172466Y0045839D01*
X0170302Y0045839D02*
X0153663Y0045839D01*
X0153065Y0046437D02*
X0187294Y0046437D01*
X0186696Y0047036D02*
X0161622Y0047036D01*
X0162221Y0047634D02*
X0186097Y0047634D01*
X0185499Y0048233D02*
X0162820Y0048233D01*
X0163418Y0048832D02*
X0184900Y0048832D01*
X0184302Y0049430D02*
X0164017Y0049430D01*
X0164615Y0050029D02*
X0183703Y0050029D01*
X0183105Y0050627D02*
X0165214Y0050627D01*
X0165812Y0051226D02*
X0181415Y0051226D01*
X0180964Y0051824D02*
X0166411Y0051824D01*
X0167009Y0052423D02*
X0180964Y0052423D01*
X0180964Y0053021D02*
X0167608Y0053021D01*
X0168206Y0053620D02*
X0180964Y0053620D01*
X0180964Y0054218D02*
X0168805Y0054218D01*
X0169403Y0054817D02*
X0180964Y0054817D01*
X0180964Y0055415D02*
X0170002Y0055415D01*
X0170600Y0056014D02*
X0180964Y0056014D01*
X0180964Y0056612D02*
X0171199Y0056612D01*
X0163683Y0053021D02*
X0108243Y0053021D01*
X0108560Y0053620D02*
X0150283Y0053620D01*
X0149684Y0054218D02*
X0108753Y0054218D01*
X0108753Y0054817D02*
X0149086Y0054817D01*
X0156817Y0054598D02*
X0163060Y0060841D01*
X0164447Y0060841D01*
X0164956Y0061300D01*
X0161672Y0067778D02*
X0155429Y0061535D01*
X0154042Y0061535D01*
X0153556Y0061300D01*
X0149159Y0063196D02*
X0148492Y0063196D01*
X0148552Y0063794D02*
X0149407Y0063794D01*
X0149150Y0064393D02*
X0149878Y0064393D01*
X0149749Y0064991D02*
X0150477Y0064991D01*
X0150347Y0065590D02*
X0151402Y0065590D01*
X0150946Y0066188D02*
X0158121Y0066188D01*
X0157522Y0065590D02*
X0155709Y0065590D01*
X0156635Y0064991D02*
X0156924Y0064991D01*
X0158719Y0066787D02*
X0151544Y0066787D01*
X0152143Y0067385D02*
X0159318Y0067385D01*
X0161672Y0067778D02*
X0166528Y0067778D01*
X0167222Y0067084D01*
X0205376Y0067084D01*
X0213700Y0058760D01*
X0286539Y0058760D01*
X0286756Y0058800D01*
X0282897Y0060147D02*
X0280870Y0060147D01*
X0283645Y0062922D01*
X0289432Y0062922D01*
X0289695Y0062659D01*
X0283534Y0062659D01*
X0282897Y0062022D01*
X0282897Y0060147D01*
X0282897Y0060203D02*
X0280926Y0060203D01*
X0281524Y0060802D02*
X0282897Y0060802D01*
X0282897Y0061400D02*
X0282123Y0061400D01*
X0282721Y0061999D02*
X0282897Y0061999D01*
X0283320Y0062597D02*
X0283472Y0062597D01*
X0282495Y0065697D02*
X0279403Y0062605D01*
X0279403Y0063435D01*
X0279011Y0064381D01*
X0278286Y0065106D01*
X0277339Y0065498D01*
X0276314Y0065498D01*
X0276242Y0065469D01*
X0273933Y0067778D01*
X0228401Y0067778D01*
X0228401Y0067778D01*
X0282897Y0067778D01*
X0282897Y0065697D01*
X0282495Y0065697D01*
X0282388Y0065590D02*
X0276121Y0065590D01*
X0275523Y0066188D02*
X0282897Y0066188D01*
X0282897Y0066787D02*
X0274924Y0066787D01*
X0274326Y0067385D02*
X0282897Y0067385D01*
X0286539Y0069165D02*
X0286756Y0068800D01*
X0286539Y0069165D02*
X0207457Y0069165D01*
X0206763Y0069859D01*
X0168609Y0069859D01*
X0167916Y0070553D01*
X0151267Y0070553D01*
X0138087Y0057372D01*
X0085365Y0057372D01*
X0079816Y0062922D01*
X0079816Y0065697D01*
X0079256Y0066300D01*
X0083843Y0066188D02*
X0084669Y0066188D01*
X0084669Y0065590D02*
X0083843Y0065590D01*
X0083843Y0064991D02*
X0084833Y0064991D01*
X0084669Y0065387D02*
X0085367Y0063701D01*
X0086657Y0062411D01*
X0088343Y0061713D01*
X0090168Y0061713D01*
X0091854Y0062411D01*
X0093145Y0063701D01*
X0093843Y0065387D01*
X0093843Y0067212D01*
X0093145Y0068899D01*
X0091854Y0070189D01*
X0090168Y0070887D01*
X0088343Y0070887D01*
X0086657Y0070189D01*
X0085367Y0068899D01*
X0084669Y0067212D01*
X0084669Y0065387D01*
X0084669Y0066787D02*
X0083843Y0066787D01*
X0083843Y0067385D02*
X0084740Y0067385D01*
X0084988Y0067984D02*
X0083843Y0067984D01*
X0083843Y0068582D02*
X0085236Y0068582D01*
X0085649Y0069181D02*
X0083843Y0069181D01*
X0083843Y0069779D02*
X0086248Y0069779D01*
X0087113Y0070378D02*
X0083716Y0070378D01*
X0091398Y0070378D02*
X0097113Y0070378D01*
X0096657Y0070189D02*
X0098343Y0070887D01*
X0100168Y0070887D01*
X0101854Y0070189D01*
X0103145Y0068899D01*
X0103843Y0067212D01*
X0103843Y0065387D01*
X0103145Y0063701D01*
X0101854Y0062411D01*
X0100168Y0061713D01*
X0098343Y0061713D01*
X0096657Y0062411D01*
X0095367Y0063701D01*
X0094669Y0065387D01*
X0094669Y0067212D01*
X0095367Y0068899D01*
X0096657Y0070189D01*
X0096248Y0069779D02*
X0092264Y0069779D01*
X0092863Y0069181D02*
X0095649Y0069181D01*
X0095236Y0068582D02*
X0093276Y0068582D01*
X0093524Y0067984D02*
X0094988Y0067984D01*
X0094740Y0067385D02*
X0093772Y0067385D01*
X0093843Y0066787D02*
X0094669Y0066787D01*
X0094669Y0066188D02*
X0093843Y0066188D01*
X0093843Y0065590D02*
X0094669Y0065590D01*
X0094833Y0064991D02*
X0093679Y0064991D01*
X0093431Y0064393D02*
X0095081Y0064393D01*
X0095328Y0063794D02*
X0093183Y0063794D01*
X0092639Y0063196D02*
X0095873Y0063196D01*
X0096471Y0062597D02*
X0092041Y0062597D01*
X0090859Y0061999D02*
X0097653Y0061999D01*
X0100859Y0061999D02*
X0140751Y0061999D01*
X0141349Y0062597D02*
X0102041Y0062597D01*
X0102639Y0063196D02*
X0141948Y0063196D01*
X0142546Y0063794D02*
X0103183Y0063794D01*
X0103431Y0064393D02*
X0143145Y0064393D01*
X0143743Y0064991D02*
X0103679Y0064991D01*
X0103843Y0065590D02*
X0144342Y0065590D01*
X0144940Y0066188D02*
X0103843Y0066188D01*
X0103843Y0066787D02*
X0145539Y0066787D01*
X0146137Y0067385D02*
X0103772Y0067385D01*
X0103524Y0067984D02*
X0146736Y0067984D01*
X0147334Y0068582D02*
X0103276Y0068582D01*
X0102863Y0069181D02*
X0147933Y0069181D01*
X0148532Y0069779D02*
X0102264Y0069779D01*
X0101398Y0070378D02*
X0149130Y0070378D01*
X0149729Y0070976D02*
X0013856Y0070976D01*
X0013856Y0070378D02*
X0074796Y0070378D01*
X0074669Y0069779D02*
X0070758Y0069779D01*
X0071357Y0069181D02*
X0074669Y0069181D01*
X0074669Y0068582D02*
X0071955Y0068582D01*
X0072554Y0067984D02*
X0074669Y0067984D01*
X0074669Y0067385D02*
X0073152Y0067385D01*
X0073751Y0066787D02*
X0074669Y0066787D01*
X0074669Y0066188D02*
X0074266Y0066188D01*
X0074266Y0065590D02*
X0074669Y0065590D01*
X0074669Y0064991D02*
X0074266Y0064991D01*
X0074266Y0064393D02*
X0074669Y0064393D01*
X0074669Y0063794D02*
X0074266Y0063794D01*
X0074266Y0063196D02*
X0074669Y0063196D01*
X0074669Y0062597D02*
X0074266Y0062597D01*
X0074377Y0061999D02*
X0075019Y0061999D01*
X0074975Y0061400D02*
X0079375Y0061400D01*
X0079974Y0060802D02*
X0075574Y0060802D01*
X0076172Y0060203D02*
X0080572Y0060203D01*
X0081171Y0059605D02*
X0076771Y0059605D01*
X0077369Y0059006D02*
X0081769Y0059006D01*
X0082368Y0058408D02*
X0077968Y0058408D01*
X0078566Y0057809D02*
X0082789Y0057809D01*
X0082789Y0057211D02*
X0079165Y0057211D01*
X0079763Y0056612D02*
X0082892Y0056612D01*
X0083140Y0056014D02*
X0080362Y0056014D01*
X0077635Y0054817D02*
X0072879Y0054817D01*
X0072879Y0055415D02*
X0077036Y0055415D01*
X0076438Y0056014D02*
X0072879Y0056014D01*
X0072879Y0056612D02*
X0075839Y0056612D01*
X0075241Y0057211D02*
X0072879Y0057211D01*
X0072879Y0057809D02*
X0074642Y0057809D01*
X0074044Y0058408D02*
X0072879Y0058408D01*
X0072879Y0059006D02*
X0073445Y0059006D01*
X0070104Y0060147D02*
X0065942Y0064309D01*
X0065942Y0067084D01*
X0067329Y0068472D01*
X0070104Y0068472D01*
X0072879Y0065697D01*
X0064554Y0065590D02*
X0013856Y0065590D01*
X0013856Y0066188D02*
X0064554Y0066188D01*
X0064554Y0066787D02*
X0013856Y0066787D01*
X0013856Y0067385D02*
X0064554Y0067385D01*
X0064879Y0067984D02*
X0013856Y0067984D01*
X0013856Y0068582D02*
X0065478Y0068582D01*
X0066076Y0069181D02*
X0013856Y0069181D01*
X0013856Y0069779D02*
X0066675Y0069779D01*
X0064554Y0064991D02*
X0013856Y0064991D01*
X0013856Y0064393D02*
X0064554Y0064393D01*
X0064554Y0063794D02*
X0013856Y0063794D01*
X0013856Y0063196D02*
X0065093Y0063196D01*
X0065367Y0062922D02*
X0065367Y0062922D01*
X0065692Y0062597D02*
X0013856Y0062597D01*
X0013856Y0061999D02*
X0066290Y0061999D01*
X0066889Y0061400D02*
X0013856Y0061400D01*
X0013856Y0060802D02*
X0067487Y0060802D01*
X0070104Y0060147D02*
X0070104Y0035174D01*
X0066635Y0031706D01*
X0063167Y0031706D01*
X0062917Y0031457D01*
X0059074Y0031683D02*
X0057695Y0033061D01*
X0055464Y0033986D01*
X0053048Y0033986D01*
X0050817Y0033061D01*
X0049109Y0031353D01*
X0048184Y0029122D01*
X0048184Y0026706D01*
X0049109Y0024475D01*
X0050817Y0022767D01*
X0053048Y0021843D01*
X0055464Y0021843D01*
X0057695Y0022767D01*
X0059403Y0024475D01*
X0060328Y0026706D01*
X0060328Y0028008D01*
X0066124Y0028008D01*
X0066761Y0028645D01*
X0066761Y0030318D01*
X0067210Y0030318D01*
X0070104Y0033212D01*
X0070104Y0031586D01*
X0063058Y0024540D01*
X0062986Y0024570D01*
X0061961Y0024570D01*
X0061014Y0024178D01*
X0060289Y0023453D01*
X0059897Y0022506D01*
X0059897Y0021481D01*
X0060259Y0020606D01*
X0034606Y0020606D01*
X0026777Y0028435D01*
X0026913Y0028435D01*
X0027860Y0028828D01*
X0028585Y0029552D01*
X0028615Y0029624D01*
X0045012Y0029624D01*
X0045824Y0030437D01*
X0052761Y0037374D01*
X0052761Y0040843D01*
X0058311Y0046392D01*
X0058311Y0047780D01*
X0059074Y0048543D01*
X0059074Y0048330D01*
X0059711Y0047693D01*
X0059998Y0047693D01*
X0059340Y0047420D01*
X0057466Y0045546D01*
X0056452Y0043098D01*
X0056452Y0040447D01*
X0057466Y0037999D01*
X0059340Y0036124D01*
X0061789Y0035110D01*
X0064439Y0035110D01*
X0066888Y0036124D01*
X0068717Y0037953D01*
X0068717Y0035749D01*
X0066761Y0033793D01*
X0066761Y0034270D01*
X0066124Y0034907D01*
X0059711Y0034907D01*
X0059074Y0034270D01*
X0059074Y0031683D01*
X0059074Y0032073D02*
X0058683Y0032073D01*
X0059074Y0032672D02*
X0058085Y0032672D01*
X0057191Y0033270D02*
X0059074Y0033270D01*
X0059074Y0033869D02*
X0055746Y0033869D01*
X0052766Y0033869D02*
X0049256Y0033869D01*
X0049855Y0034467D02*
X0059271Y0034467D01*
X0060451Y0035664D02*
X0051052Y0035664D01*
X0051650Y0036263D02*
X0059202Y0036263D01*
X0058604Y0036861D02*
X0052249Y0036861D01*
X0052761Y0037460D02*
X0058005Y0037460D01*
X0057441Y0038058D02*
X0052761Y0038058D01*
X0052761Y0038657D02*
X0057194Y0038657D01*
X0056946Y0039255D02*
X0052761Y0039255D01*
X0052761Y0039854D02*
X0056698Y0039854D01*
X0056452Y0040452D02*
X0052761Y0040452D01*
X0052970Y0041051D02*
X0056452Y0041051D01*
X0056452Y0041649D02*
X0053568Y0041649D01*
X0054167Y0042248D02*
X0056452Y0042248D01*
X0056452Y0042846D02*
X0054765Y0042846D01*
X0055364Y0043445D02*
X0056596Y0043445D01*
X0056844Y0044043D02*
X0055962Y0044043D01*
X0056561Y0044642D02*
X0057092Y0044642D01*
X0057159Y0045240D02*
X0057340Y0045240D01*
X0057758Y0045839D02*
X0057759Y0045839D01*
X0058311Y0046437D02*
X0058357Y0046437D01*
X0058311Y0047036D02*
X0058956Y0047036D01*
X0058311Y0047634D02*
X0059857Y0047634D01*
X0059171Y0048233D02*
X0058764Y0048233D01*
X0056924Y0048354D02*
X0056924Y0046967D01*
X0051374Y0041417D01*
X0051374Y0037949D01*
X0044437Y0031012D01*
X0026401Y0031012D01*
X0028113Y0029081D02*
X0048184Y0029081D01*
X0048184Y0028482D02*
X0027026Y0028482D01*
X0027329Y0027884D02*
X0048184Y0027884D01*
X0048184Y0027285D02*
X0027927Y0027285D01*
X0028526Y0026687D02*
X0048192Y0026687D01*
X0048440Y0026088D02*
X0029124Y0026088D01*
X0029723Y0025490D02*
X0048688Y0025490D01*
X0048936Y0024891D02*
X0030321Y0024891D01*
X0030920Y0024293D02*
X0049291Y0024293D01*
X0049889Y0023694D02*
X0031518Y0023694D01*
X0032117Y0023096D02*
X0050488Y0023096D01*
X0051468Y0022497D02*
X0032715Y0022497D01*
X0033314Y0021899D02*
X0052913Y0021899D01*
X0055599Y0021899D02*
X0059897Y0021899D01*
X0059897Y0022497D02*
X0057044Y0022497D01*
X0058024Y0023096D02*
X0060141Y0023096D01*
X0060530Y0023694D02*
X0058622Y0023694D01*
X0059221Y0024293D02*
X0061291Y0024293D01*
X0059576Y0024891D02*
X0063409Y0024891D01*
X0064007Y0025490D02*
X0059823Y0025490D01*
X0060071Y0026088D02*
X0064606Y0026088D01*
X0065204Y0026687D02*
X0060319Y0026687D01*
X0060328Y0027285D02*
X0065803Y0027285D01*
X0066401Y0027884D02*
X0060328Y0027884D01*
X0066598Y0028482D02*
X0067000Y0028482D01*
X0066761Y0029081D02*
X0067598Y0029081D01*
X0068197Y0029679D02*
X0066761Y0029679D01*
X0066761Y0030278D02*
X0068795Y0030278D01*
X0069394Y0030876D02*
X0067768Y0030876D01*
X0068367Y0031475D02*
X0069992Y0031475D01*
X0070104Y0032073D02*
X0068965Y0032073D01*
X0069564Y0032672D02*
X0070104Y0032672D01*
X0072879Y0032672D02*
X0107669Y0032672D01*
X0107071Y0033270D02*
X0072879Y0033270D01*
X0072879Y0033869D02*
X0106472Y0033869D01*
X0105874Y0034467D02*
X0072879Y0034467D01*
X0072879Y0035066D02*
X0105569Y0035066D01*
X0105569Y0035664D02*
X0072879Y0035664D01*
X0072879Y0036263D02*
X0105569Y0036263D01*
X0105569Y0036861D02*
X0072879Y0036861D01*
X0072879Y0037460D02*
X0105569Y0037460D01*
X0105799Y0038058D02*
X0072879Y0038058D01*
X0072879Y0038657D02*
X0106398Y0038657D01*
X0106996Y0039255D02*
X0072879Y0039255D01*
X0072879Y0039854D02*
X0107595Y0039854D01*
X0122943Y0036861D02*
X0157929Y0036861D01*
X0157331Y0036263D02*
X0122943Y0036263D01*
X0122943Y0035664D02*
X0156732Y0035664D01*
X0156134Y0035066D02*
X0122943Y0035066D01*
X0122638Y0034467D02*
X0155535Y0034467D01*
X0154937Y0033869D02*
X0122039Y0033869D01*
X0121441Y0033270D02*
X0154338Y0033270D01*
X0153740Y0032672D02*
X0120842Y0032672D01*
X0117669Y0032672D02*
X0117429Y0032672D01*
X0116831Y0032073D02*
X0153141Y0032073D01*
X0152543Y0031475D02*
X0116232Y0031475D01*
X0115634Y0030876D02*
X0151944Y0030876D01*
X0151346Y0030278D02*
X0115035Y0030278D01*
X0114437Y0029679D02*
X0150747Y0029679D01*
X0150148Y0029081D02*
X0113838Y0029081D01*
X0113239Y0028482D02*
X0149550Y0028482D01*
X0148951Y0027884D02*
X0112694Y0027884D01*
X0112337Y0027285D02*
X0148353Y0027285D01*
X0151679Y0026687D02*
X0175619Y0026687D01*
X0174936Y0027285D02*
X0152277Y0027285D01*
X0152876Y0027884D02*
X0170529Y0027884D01*
X0169577Y0028482D02*
X0153474Y0028482D01*
X0154073Y0029081D02*
X0169108Y0029081D01*
X0168860Y0029679D02*
X0154671Y0029679D01*
X0155270Y0030278D02*
X0168808Y0030278D01*
X0168827Y0030876D02*
X0155868Y0030876D01*
X0156467Y0031475D02*
X0169075Y0031475D01*
X0169496Y0032073D02*
X0157065Y0032073D01*
X0157664Y0032672D02*
X0169997Y0032672D01*
X0169997Y0033270D02*
X0158262Y0033270D01*
X0158861Y0033869D02*
X0169997Y0033869D01*
X0169997Y0034467D02*
X0159459Y0034467D01*
X0160058Y0035066D02*
X0169997Y0035066D01*
X0169997Y0035664D02*
X0160656Y0035664D01*
X0161255Y0036263D02*
X0169997Y0036263D01*
X0169997Y0036861D02*
X0161853Y0036861D01*
X0164080Y0037460D02*
X0169997Y0037460D01*
X0169997Y0038058D02*
X0165449Y0038058D01*
X0166047Y0038657D02*
X0169997Y0038657D01*
X0169997Y0039255D02*
X0166554Y0039255D01*
X0166802Y0039854D02*
X0169997Y0039854D01*
X0169997Y0040452D02*
X0167049Y0040452D01*
X0167080Y0041051D02*
X0169997Y0041051D01*
X0169590Y0041649D02*
X0167080Y0041649D01*
X0167008Y0042248D02*
X0169114Y0042248D01*
X0168866Y0042846D02*
X0166760Y0042846D01*
X0166512Y0043445D02*
X0168808Y0043445D01*
X0168821Y0044043D02*
X0165947Y0044043D01*
X0165283Y0044642D02*
X0169069Y0044642D01*
X0169483Y0045240D02*
X0154262Y0045240D01*
X0151535Y0044043D02*
X0072879Y0044043D01*
X0072879Y0043445D02*
X0152000Y0043445D01*
X0151752Y0042846D02*
X0072879Y0042846D01*
X0072879Y0042248D02*
X0151504Y0042248D01*
X0151431Y0041649D02*
X0072879Y0041649D01*
X0072879Y0041051D02*
X0151431Y0041051D01*
X0151462Y0040452D02*
X0072879Y0040452D01*
X0068717Y0037460D02*
X0068223Y0037460D01*
X0068717Y0036861D02*
X0067625Y0036861D01*
X0067026Y0036263D02*
X0068717Y0036263D01*
X0068632Y0035664D02*
X0065777Y0035664D01*
X0068034Y0035066D02*
X0050453Y0035066D01*
X0047726Y0036263D02*
X0039467Y0036263D01*
X0040066Y0036861D02*
X0048324Y0036861D01*
X0048923Y0037460D02*
X0040664Y0037460D01*
X0041228Y0038058D02*
X0042180Y0038058D01*
X0041751Y0038657D02*
X0041476Y0038657D01*
X0041724Y0039255D02*
X0041751Y0039255D01*
X0049009Y0038058D02*
X0049521Y0038058D01*
X0049438Y0038657D02*
X0049987Y0038657D01*
X0049987Y0039255D02*
X0049438Y0039255D01*
X0049438Y0039854D02*
X0049987Y0039854D01*
X0049987Y0040452D02*
X0049438Y0040452D01*
X0049438Y0041051D02*
X0049987Y0041051D01*
X0049987Y0041649D02*
X0049438Y0041649D01*
X0049438Y0042248D02*
X0050243Y0042248D01*
X0050841Y0042846D02*
X0049438Y0042846D01*
X0049438Y0043445D02*
X0051440Y0043445D01*
X0052038Y0044043D02*
X0049438Y0044043D01*
X0048908Y0044642D02*
X0052637Y0044642D01*
X0053235Y0045240D02*
X0046518Y0045240D01*
X0046140Y0045839D02*
X0053834Y0045839D01*
X0054432Y0046437D02*
X0045541Y0046437D01*
X0044943Y0047036D02*
X0055031Y0047036D01*
X0055536Y0047634D02*
X0044344Y0047634D01*
X0043746Y0048233D02*
X0055536Y0048233D01*
X0056924Y0048354D02*
X0060392Y0051823D01*
X0062473Y0051823D01*
X0062917Y0051143D01*
X0052523Y0048832D02*
X0043147Y0048832D01*
X0042549Y0049430D02*
X0051078Y0049430D01*
X0050327Y0050029D02*
X0041950Y0050029D01*
X0041352Y0050627D02*
X0049728Y0050627D01*
X0049130Y0051226D02*
X0040753Y0051226D01*
X0045131Y0044886D02*
X0045131Y0041417D01*
X0045594Y0041300D01*
X0029882Y0038058D02*
X0025013Y0038058D01*
X0025013Y0037460D02*
X0030446Y0037460D01*
X0031044Y0036861D02*
X0025013Y0036861D01*
X0025013Y0036263D02*
X0031643Y0036263D01*
X0032892Y0035664D02*
X0025013Y0035664D01*
X0025013Y0035066D02*
X0046529Y0035066D01*
X0047127Y0035664D02*
X0038218Y0035664D01*
X0045332Y0033869D02*
X0025013Y0033869D01*
X0025013Y0034467D02*
X0045930Y0034467D01*
X0044733Y0033270D02*
X0027681Y0033270D01*
X0028384Y0032672D02*
X0044135Y0032672D01*
X0046862Y0031475D02*
X0049230Y0031475D01*
X0048911Y0030876D02*
X0046263Y0030876D01*
X0045665Y0030278D02*
X0048663Y0030278D01*
X0048415Y0029679D02*
X0045066Y0029679D01*
X0047460Y0032073D02*
X0049828Y0032073D01*
X0050427Y0032672D02*
X0048059Y0032672D01*
X0048658Y0033270D02*
X0051321Y0033270D01*
X0066563Y0034467D02*
X0067435Y0034467D01*
X0066837Y0033869D02*
X0066761Y0033869D01*
X0029635Y0038657D02*
X0025013Y0038657D01*
X0025013Y0039255D02*
X0029387Y0039255D01*
X0029139Y0039854D02*
X0025013Y0039854D01*
X0026067Y0040452D02*
X0028893Y0040452D01*
X0028893Y0041051D02*
X0026903Y0041051D01*
X0027323Y0041649D02*
X0028893Y0041649D01*
X0028893Y0042248D02*
X0027571Y0042248D01*
X0025121Y0033270D02*
X0025013Y0033270D01*
X0033912Y0021300D02*
X0059972Y0021300D01*
X0060220Y0020701D02*
X0034511Y0020701D01*
X0064911Y0018307D02*
X0121049Y0018307D01*
X0121647Y0018906D02*
X0065510Y0018906D01*
X0066108Y0019504D02*
X0122246Y0019504D01*
X0126266Y0019504D02*
X0131677Y0019504D01*
X0132275Y0018906D02*
X0126865Y0018906D01*
X0127463Y0018307D02*
X0132874Y0018307D01*
X0133472Y0017709D02*
X0127943Y0017709D01*
X0127943Y0017110D02*
X0134071Y0017110D01*
X0133123Y0016512D02*
X0127943Y0016512D01*
X0127943Y0015913D02*
X0132525Y0015913D01*
X0128752Y0015315D02*
X0127943Y0015315D01*
X0127887Y0014716D02*
X0128154Y0014716D01*
X0127555Y0014118D02*
X0127289Y0014118D01*
X0126956Y0013519D02*
X0126690Y0013519D01*
X0126358Y0012921D02*
X0126092Y0012921D01*
X0138593Y0016512D02*
X0140569Y0016512D01*
X0140569Y0017110D02*
X0137995Y0017110D01*
X0137396Y0017709D02*
X0140569Y0017709D01*
X0141049Y0018307D02*
X0136798Y0018307D01*
X0136199Y0018906D02*
X0141647Y0018906D01*
X0142246Y0019504D02*
X0135601Y0019504D01*
X0135002Y0020103D02*
X0142943Y0020103D01*
X0142943Y0020701D02*
X0134404Y0020701D01*
X0133805Y0021300D02*
X0142943Y0021300D01*
X0142966Y0021899D02*
X0133207Y0021899D01*
X0132608Y0022497D02*
X0143565Y0022497D01*
X0144163Y0023096D02*
X0132010Y0023096D01*
X0131078Y0020103D02*
X0066707Y0020103D01*
X0110339Y0028931D02*
X0111726Y0028931D01*
X0118663Y0035868D01*
X0119256Y0036300D01*
X0158073Y0044043D02*
X0160439Y0044043D01*
X0159874Y0043445D02*
X0158638Y0043445D01*
X0157409Y0044642D02*
X0161103Y0044642D01*
X0171384Y0043498D02*
X0171384Y0030318D01*
X0173961Y0030278D02*
X0174703Y0030278D01*
X0174455Y0029679D02*
X0173908Y0029679D01*
X0173660Y0029081D02*
X0174357Y0029081D01*
X0174357Y0028482D02*
X0173192Y0028482D01*
X0172239Y0027884D02*
X0174579Y0027884D01*
X0178249Y0026687D02*
X0180964Y0026687D01*
X0180964Y0027285D02*
X0178932Y0027285D01*
X0179289Y0027884D02*
X0180964Y0027884D01*
X0180964Y0028482D02*
X0179510Y0028482D01*
X0179510Y0029081D02*
X0180964Y0029081D01*
X0180964Y0029679D02*
X0179644Y0029679D01*
X0180243Y0030278D02*
X0180964Y0030278D01*
X0180964Y0030876D02*
X0180841Y0030876D01*
X0181440Y0031475D02*
X0181515Y0031475D01*
X0182038Y0032073D02*
X0183664Y0032073D01*
X0184262Y0032672D02*
X0182637Y0032672D01*
X0183235Y0033270D02*
X0184861Y0033270D01*
X0185459Y0033869D02*
X0183834Y0033869D01*
X0184432Y0034467D02*
X0186058Y0034467D01*
X0186656Y0035066D02*
X0185031Y0035066D01*
X0185629Y0035664D02*
X0187255Y0035664D01*
X0187853Y0036263D02*
X0186228Y0036263D01*
X0186827Y0036861D02*
X0188452Y0036861D01*
X0189041Y0037460D02*
X0187425Y0037460D01*
X0190114Y0036561D02*
X0192195Y0036561D01*
X0193583Y0037949D01*
X0190114Y0036561D02*
X0184565Y0031012D01*
X0184565Y0026156D01*
X0184413Y0025552D01*
X0180964Y0025490D02*
X0150482Y0025490D01*
X0151080Y0026088D02*
X0180964Y0026088D01*
X0180964Y0024891D02*
X0149883Y0024891D01*
X0149285Y0024293D02*
X0180964Y0024293D01*
X0180964Y0023694D02*
X0148686Y0023694D01*
X0148088Y0023096D02*
X0180964Y0023096D01*
X0180964Y0022497D02*
X0147489Y0022497D01*
X0146891Y0021899D02*
X0180964Y0021899D01*
X0180964Y0021300D02*
X0146292Y0021300D01*
X0145717Y0020701D02*
X0180964Y0020701D01*
X0181041Y0020103D02*
X0145717Y0020103D01*
X0146266Y0019504D02*
X0191502Y0019504D01*
X0191308Y0018906D02*
X0146865Y0018906D01*
X0147463Y0018307D02*
X0190709Y0018307D01*
X0190111Y0017709D02*
X0147943Y0017709D01*
X0147943Y0017110D02*
X0189512Y0017110D01*
X0188914Y0016512D02*
X0147943Y0016512D01*
X0147943Y0015913D02*
X0188315Y0015913D01*
X0187717Y0015315D02*
X0147943Y0015315D01*
X0147887Y0014716D02*
X0187118Y0014716D01*
X0186520Y0014118D02*
X0147289Y0014118D01*
X0147074Y0013519D02*
X0146690Y0013519D01*
X0146475Y0012921D02*
X0146092Y0012921D01*
X0145877Y0012322D02*
X0142783Y0012322D01*
X0142420Y0012921D02*
X0142185Y0012921D01*
X0141822Y0013519D02*
X0141586Y0013519D01*
X0141223Y0014118D02*
X0140988Y0014118D01*
X0140625Y0014716D02*
X0140389Y0014716D01*
X0140569Y0015315D02*
X0139790Y0015315D01*
X0139192Y0015913D02*
X0140569Y0015913D01*
X0144256Y0016300D02*
X0144330Y0016444D01*
X0144330Y0021300D01*
X0163754Y0040724D01*
X0163193Y0041300D01*
X0172772Y0041051D02*
X0188879Y0041051D01*
X0189660Y0041649D02*
X0173179Y0041649D01*
X0173655Y0042248D02*
X0191484Y0042248D01*
X0191956Y0041649D02*
X0192082Y0041649D01*
X0190885Y0042846D02*
X0173903Y0042846D01*
X0173961Y0043445D02*
X0190287Y0043445D01*
X0189688Y0044043D02*
X0173947Y0044043D01*
X0172772Y0040452D02*
X0186493Y0040452D01*
X0185895Y0039854D02*
X0172772Y0039854D01*
X0172772Y0039255D02*
X0185296Y0039255D01*
X0184698Y0038657D02*
X0172772Y0038657D01*
X0172772Y0038058D02*
X0184099Y0038058D01*
X0183501Y0037460D02*
X0172772Y0037460D01*
X0172772Y0036861D02*
X0182902Y0036861D01*
X0182304Y0036263D02*
X0172772Y0036263D01*
X0172772Y0035664D02*
X0181705Y0035664D01*
X0181107Y0035066D02*
X0172772Y0035066D01*
X0172772Y0034467D02*
X0180508Y0034467D01*
X0179910Y0033869D02*
X0172772Y0033869D01*
X0172772Y0033270D02*
X0179311Y0033270D01*
X0178713Y0032672D02*
X0172772Y0032672D01*
X0173273Y0032073D02*
X0178114Y0032073D01*
X0176343Y0031475D02*
X0173694Y0031475D01*
X0173942Y0030876D02*
X0175236Y0030876D01*
X0176934Y0028931D02*
X0187339Y0039336D01*
X0190808Y0039336D01*
X0202601Y0037949D02*
X0215087Y0025462D01*
X0212511Y0025838D02*
X0211500Y0026850D01*
X0207548Y0026850D01*
X0207548Y0030924D01*
X0206911Y0031561D01*
X0204018Y0031561D01*
X0204091Y0031634D01*
X0204483Y0032580D01*
X0204483Y0033605D01*
X0204131Y0034457D01*
X0212541Y0026047D01*
X0212511Y0025975D01*
X0212511Y0025838D01*
X0212499Y0026088D02*
X0212261Y0026088D01*
X0211901Y0026687D02*
X0211663Y0026687D01*
X0211302Y0027285D02*
X0207548Y0027285D01*
X0207548Y0027884D02*
X0210704Y0027884D01*
X0210105Y0028482D02*
X0207548Y0028482D01*
X0207548Y0029081D02*
X0209507Y0029081D01*
X0208908Y0029679D02*
X0207548Y0029679D01*
X0207548Y0030278D02*
X0208310Y0030278D01*
X0207711Y0030876D02*
X0207548Y0030876D01*
X0207113Y0031475D02*
X0206997Y0031475D01*
X0206514Y0032073D02*
X0204273Y0032073D01*
X0204483Y0032672D02*
X0205916Y0032672D01*
X0205317Y0033270D02*
X0204483Y0033270D01*
X0204374Y0033869D02*
X0204719Y0033869D01*
X0201907Y0033093D02*
X0200520Y0033093D01*
X0199132Y0031706D01*
X0199132Y0026156D01*
X0190806Y0026088D02*
X0187863Y0026088D01*
X0187863Y0025490D02*
X0190806Y0025490D01*
X0190806Y0024891D02*
X0187863Y0024891D01*
X0187863Y0024293D02*
X0190806Y0024293D01*
X0190806Y0023694D02*
X0187863Y0023694D01*
X0187863Y0023096D02*
X0190806Y0023096D01*
X0190806Y0022497D02*
X0187863Y0022497D01*
X0187863Y0021899D02*
X0190806Y0021899D01*
X0190806Y0021300D02*
X0187863Y0021300D01*
X0187863Y0020701D02*
X0190806Y0020701D01*
X0190884Y0020103D02*
X0187786Y0020103D01*
X0195664Y0017831D02*
X0213700Y0017831D01*
X0240754Y0044886D01*
X0242142Y0044886D01*
X0245610Y0041417D01*
X0321917Y0041417D01*
X0319721Y0042846D02*
X0246143Y0042846D01*
X0245545Y0043445D02*
X0320301Y0043445D01*
X0337308Y0045839D02*
X0345363Y0045839D01*
X0362877Y0047036D02*
X0370315Y0047036D01*
X0356574Y0033869D02*
X0353246Y0033869D01*
X0354691Y0033270D02*
X0356574Y0033270D01*
X0356574Y0032672D02*
X0355585Y0032672D01*
X0356183Y0032073D02*
X0356574Y0032073D01*
X0357415Y0021300D02*
X0313474Y0021300D01*
X0314072Y0020701D02*
X0356817Y0020701D01*
X0356218Y0020103D02*
X0314671Y0020103D01*
X0310148Y0020701D02*
X0225972Y0020701D01*
X0225374Y0021300D02*
X0309550Y0021300D01*
X0286756Y0016300D02*
X0286539Y0016444D01*
X0228268Y0016444D01*
X0222718Y0021994D01*
X0220142Y0021899D02*
X0219729Y0021899D01*
X0220142Y0022311D02*
X0220142Y0021481D01*
X0220534Y0020534D01*
X0221259Y0019810D01*
X0222206Y0019417D01*
X0223231Y0019417D01*
X0223303Y0019447D01*
X0226999Y0015750D01*
X0197226Y0015750D01*
X0197848Y0016372D01*
X0197878Y0016444D01*
X0214275Y0016444D01*
X0215087Y0017257D01*
X0220142Y0022311D01*
X0220217Y0021300D02*
X0219131Y0021300D01*
X0218532Y0020701D02*
X0220465Y0020701D01*
X0220965Y0020103D02*
X0217934Y0020103D01*
X0217335Y0019504D02*
X0221995Y0019504D01*
X0223844Y0018906D02*
X0216737Y0018906D01*
X0216138Y0018307D02*
X0224442Y0018307D01*
X0225041Y0017709D02*
X0215540Y0017709D01*
X0214941Y0017110D02*
X0225639Y0017110D01*
X0226238Y0016512D02*
X0214342Y0016512D01*
X0226836Y0015913D02*
X0197389Y0015913D01*
X0193583Y0014363D02*
X0279602Y0014363D01*
X0279027Y0012976D02*
X0195797Y0012976D01*
X0195767Y0012904D01*
X0195042Y0012179D01*
X0194095Y0011787D01*
X0193070Y0011787D01*
X0192123Y0012179D01*
X0191399Y0012904D01*
X0191006Y0013851D01*
X0191006Y0014680D01*
X0188033Y0011707D01*
X0187226Y0010900D01*
X0281102Y0010900D01*
X0279027Y0012976D01*
X0279082Y0012921D02*
X0195774Y0012921D01*
X0195186Y0012322D02*
X0279680Y0012322D01*
X0280279Y0011724D02*
X0188050Y0011724D01*
X0188648Y0012322D02*
X0191980Y0012322D01*
X0191391Y0012921D02*
X0189247Y0012921D01*
X0189845Y0013519D02*
X0191143Y0013519D01*
X0191006Y0014118D02*
X0190444Y0014118D01*
X0187451Y0011125D02*
X0280877Y0011125D01*
X0339821Y0015057D02*
X0339821Y0015057D01*
X0344356Y0015315D02*
X0351430Y0015315D01*
X0352028Y0015913D02*
X0344603Y0015913D01*
X0233475Y0041649D02*
X0223312Y0041649D01*
X0224417Y0042248D02*
X0234073Y0042248D01*
X0234672Y0042846D02*
X0224949Y0042846D01*
X0202923Y0035664D02*
X0202432Y0035664D01*
X0202325Y0036263D02*
X0193859Y0036263D01*
X0193260Y0035664D02*
X0201383Y0035664D01*
X0200236Y0035066D02*
X0190581Y0035066D01*
X0189982Y0034467D02*
X0199688Y0034467D01*
X0199333Y0033869D02*
X0189384Y0033869D01*
X0188785Y0033270D02*
X0198735Y0033270D01*
X0198136Y0032672D02*
X0188187Y0032672D01*
X0187588Y0032073D02*
X0197745Y0032073D01*
X0197745Y0031475D02*
X0197154Y0031475D01*
X0197705Y0030876D02*
X0197745Y0030876D01*
X0197745Y0030278D02*
X0197705Y0030278D01*
X0197705Y0029679D02*
X0197745Y0029679D01*
X0197745Y0029081D02*
X0197705Y0029081D01*
X0197705Y0028482D02*
X0197745Y0028482D01*
X0200520Y0028482D02*
X0200649Y0028482D01*
X0200592Y0028340D02*
X0200520Y0028370D01*
X0200520Y0030879D01*
X0200649Y0030825D01*
X0200649Y0028283D01*
X0200592Y0028340D01*
X0200649Y0029081D02*
X0200520Y0029081D01*
X0200520Y0029679D02*
X0200649Y0029679D01*
X0200649Y0030278D02*
X0200520Y0030278D01*
X0200520Y0030876D02*
X0200526Y0030876D01*
X0191357Y0031475D02*
X0187312Y0031475D01*
X0187863Y0030876D02*
X0190806Y0030876D01*
X0190806Y0030278D02*
X0187863Y0030278D01*
X0187863Y0029679D02*
X0190806Y0029679D01*
X0190806Y0029081D02*
X0187863Y0029081D01*
X0187863Y0028482D02*
X0190806Y0028482D01*
X0190806Y0027884D02*
X0187863Y0027884D01*
X0187863Y0027285D02*
X0190806Y0027285D01*
X0190806Y0026687D02*
X0187863Y0026687D01*
X0212234Y0030278D02*
X0222103Y0030278D01*
X0221504Y0029679D02*
X0212833Y0029679D01*
X0213431Y0029081D02*
X0220906Y0029081D01*
X0220307Y0028482D02*
X0214030Y0028482D01*
X0215974Y0027884D02*
X0219709Y0027884D01*
X0219110Y0027285D02*
X0216908Y0027285D01*
X0217369Y0026687D02*
X0218512Y0026687D01*
X0217913Y0026088D02*
X0217617Y0026088D01*
X0177628Y0065003D02*
X0160979Y0048354D01*
X0082591Y0048354D01*
X0080247Y0049430D02*
X0072879Y0049430D01*
X0072879Y0048832D02*
X0080014Y0048832D01*
X0080014Y0048233D02*
X0072879Y0048233D01*
X0072879Y0047634D02*
X0080100Y0047634D01*
X0080348Y0047036D02*
X0072879Y0047036D01*
X0084805Y0046967D02*
X0084805Y0046967D01*
X0084560Y0050029D02*
X0160691Y0050029D01*
X0161289Y0050627D02*
X0083836Y0050627D01*
X0081345Y0050627D02*
X0072879Y0050627D01*
X0072879Y0050029D02*
X0080621Y0050029D01*
X0072879Y0051226D02*
X0161888Y0051226D01*
X0162486Y0051824D02*
X0072879Y0051824D01*
X0072879Y0052423D02*
X0104708Y0052423D01*
X0104109Y0053021D02*
X0072879Y0053021D01*
X0072879Y0053620D02*
X0078832Y0053620D01*
X0078233Y0054218D02*
X0072879Y0054218D01*
X0087579Y0055985D02*
X0087579Y0055985D01*
X0103962Y0055985D01*
X0103962Y0055985D01*
X0087579Y0055985D01*
X0087375Y0059006D02*
X0137758Y0059006D01*
X0138357Y0059605D02*
X0086709Y0059605D01*
X0084497Y0060203D02*
X0138955Y0060203D01*
X0139554Y0060802D02*
X0083898Y0060802D01*
X0083300Y0061400D02*
X0140152Y0061400D01*
X0177628Y0065003D02*
X0192195Y0065003D01*
X0193583Y0063616D01*
X0193583Y0057372D01*
X0194256Y0057048D01*
X0197705Y0057211D02*
X0200649Y0057211D01*
X0200649Y0057809D02*
X0197705Y0057809D01*
X0197705Y0058408D02*
X0200649Y0058408D01*
X0200649Y0059006D02*
X0197705Y0059006D01*
X0197705Y0059605D02*
X0200649Y0059605D01*
X0200649Y0060203D02*
X0197705Y0060203D01*
X0197705Y0060802D02*
X0200649Y0060802D01*
X0200649Y0061400D02*
X0197705Y0061400D01*
X0197705Y0061999D02*
X0200649Y0061999D01*
X0200826Y0062597D02*
X0197528Y0062597D01*
X0194970Y0063196D02*
X0207302Y0063196D01*
X0207370Y0062597D02*
X0207900Y0062597D01*
X0207548Y0061999D02*
X0208499Y0061999D01*
X0209097Y0061400D02*
X0207548Y0061400D01*
X0207548Y0060802D02*
X0209696Y0060802D01*
X0210295Y0060203D02*
X0207548Y0060203D01*
X0207548Y0059605D02*
X0210893Y0059605D01*
X0211492Y0059006D02*
X0207548Y0059006D01*
X0204682Y0057372D02*
X0204098Y0057048D01*
X0204682Y0057372D02*
X0278908Y0057372D01*
X0278903Y0055415D02*
X0207548Y0055415D01*
X0207548Y0054817D02*
X0279502Y0054817D01*
X0280100Y0054218D02*
X0207548Y0054218D01*
X0207548Y0053620D02*
X0280699Y0053620D01*
X0281297Y0053021D02*
X0207548Y0053021D01*
X0207548Y0052423D02*
X0281896Y0052423D01*
X0282494Y0051824D02*
X0207548Y0051824D01*
X0206181Y0050029D02*
X0187627Y0050029D01*
X0197255Y0051226D02*
X0201100Y0051226D01*
X0200649Y0051824D02*
X0197705Y0051824D01*
X0197705Y0052423D02*
X0200649Y0052423D01*
X0200649Y0053021D02*
X0197705Y0053021D01*
X0197705Y0053620D02*
X0200649Y0053620D01*
X0200649Y0054218D02*
X0197705Y0054218D01*
X0197705Y0054817D02*
X0200649Y0054817D01*
X0200649Y0055415D02*
X0197705Y0055415D01*
X0197705Y0056014D02*
X0200649Y0056014D01*
X0200649Y0056612D02*
X0197705Y0056612D01*
X0208725Y0067778D02*
X0214968Y0061535D01*
X0274613Y0061535D01*
X0274250Y0062410D01*
X0274250Y0063435D01*
X0274280Y0063507D01*
X0272784Y0065003D01*
X0228401Y0065003D01*
X0228371Y0064931D01*
X0227646Y0064206D01*
X0226699Y0063814D01*
X0225674Y0063814D01*
X0224727Y0064206D01*
X0224002Y0064931D01*
X0223610Y0065878D01*
X0223610Y0066903D01*
X0223973Y0067778D01*
X0208725Y0067778D01*
X0209118Y0067385D02*
X0223810Y0067385D01*
X0223610Y0066787D02*
X0209716Y0066787D01*
X0210315Y0066188D02*
X0223610Y0066188D01*
X0223730Y0065590D02*
X0210913Y0065590D01*
X0211512Y0064991D02*
X0223978Y0064991D01*
X0224541Y0064393D02*
X0212110Y0064393D01*
X0212709Y0063794D02*
X0273992Y0063794D01*
X0274250Y0063196D02*
X0213307Y0063196D01*
X0213906Y0062597D02*
X0274250Y0062597D01*
X0274421Y0061999D02*
X0214504Y0061999D01*
X0206703Y0063794D02*
X0194970Y0063794D01*
X0194768Y0064393D02*
X0206105Y0064393D01*
X0205506Y0064991D02*
X0194169Y0064991D01*
X0193571Y0065590D02*
X0204908Y0065590D01*
X0208031Y0070553D02*
X0207338Y0071246D01*
X0169184Y0071246D01*
X0168731Y0071700D01*
X0282897Y0071700D01*
X0282897Y0070553D01*
X0208031Y0070553D01*
X0207608Y0070976D02*
X0282897Y0070976D01*
X0282897Y0071575D02*
X0168856Y0071575D01*
X0150327Y0071575D02*
X0013856Y0071575D01*
X0069093Y0063120D02*
X0070104Y0062109D01*
X0070104Y0062347D01*
X0069301Y0063150D01*
X0069229Y0063120D01*
X0069093Y0063120D01*
X0069616Y0062597D02*
X0069854Y0062597D01*
X0083492Y0061999D02*
X0087653Y0061999D01*
X0086471Y0062597D02*
X0083843Y0062597D01*
X0083843Y0063196D02*
X0085873Y0063196D01*
X0085328Y0063794D02*
X0083843Y0063794D01*
X0083843Y0064393D02*
X0085081Y0064393D01*
X0107645Y0052423D02*
X0163085Y0052423D01*
X0227832Y0064393D02*
X0273394Y0064393D01*
X0272795Y0064991D02*
X0228396Y0064991D01*
X0226187Y0066391D02*
X0273358Y0066391D01*
X0276827Y0062922D01*
X0279254Y0063794D02*
X0280593Y0063794D01*
X0279994Y0063196D02*
X0279403Y0063196D01*
X0279000Y0064393D02*
X0281191Y0064393D01*
X0281790Y0064991D02*
X0278401Y0064991D01*
X0290615Y0066188D02*
X0370397Y0066188D01*
X0370397Y0065590D02*
X0290689Y0065590D01*
X0290615Y0066787D02*
X0370397Y0066787D01*
X0370397Y0067385D02*
X0290615Y0067385D01*
X0290615Y0067984D02*
X0370397Y0067984D01*
X0370397Y0068582D02*
X0290615Y0068582D01*
X0290615Y0069181D02*
X0370397Y0069181D01*
X0370397Y0069779D02*
X0290615Y0069779D01*
X0290615Y0070378D02*
X0370397Y0070378D01*
X0370397Y0070976D02*
X0290615Y0070976D01*
X0290615Y0071575D02*
X0370397Y0071575D01*
D19*
X0321917Y0053210D03*
X0336485Y0050435D03*
X0372557Y0048354D03*
X0350359Y0039336D03*
X0321917Y0041417D03*
X0242142Y0044886D03*
X0222718Y0044192D03*
X0208150Y0048354D03*
X0171384Y0043498D03*
X0190808Y0039336D03*
X0201907Y0033093D03*
X0176934Y0028931D03*
X0171384Y0030318D03*
X0199132Y0026156D03*
X0215087Y0025462D03*
X0222718Y0021994D03*
X0195664Y0017831D03*
X0193583Y0014363D03*
X0134618Y0014363D03*
X0110339Y0028931D03*
X0062473Y0021994D03*
X0026401Y0031012D03*
X0025013Y0042805D03*
X0082591Y0048354D03*
X0106176Y0054598D03*
X0085365Y0057372D03*
X0068717Y0065697D03*
X0226187Y0066391D03*
X0276827Y0062922D03*
X0308043Y0024769D03*
X0342035Y0016444D03*
M02*
