G75*
%MOIN*%
%OFA0B0*%
%FSLAX25Y25*%
%IPPOS*%
%LPD*%
%AMOC8*
5,1,8,0,0,1.08239X$1,22.5*
%
%ADD10C,0.00500*%
%ADD11C,0.00800*%
D10*
X0047366Y0024568D02*
X0047366Y0058032D01*
X0061146Y0058032D01*
X0061146Y0024568D01*
X0047366Y0024568D01*
X0051303Y0034213D02*
X0057209Y0034213D01*
X0057209Y0040119D01*
X0057209Y0042087D01*
X0057209Y0047993D01*
X0051303Y0047993D01*
X0051303Y0040119D01*
X0057209Y0040119D01*
X0057209Y0042087D02*
X0051303Y0042087D01*
X0051303Y0040119D02*
X0051303Y0034213D01*
X0279256Y0008800D02*
X0379256Y0008800D01*
X0379256Y0073800D01*
X0279256Y0073800D01*
X0279256Y0008800D01*
X0344866Y0024568D02*
X0344866Y0058032D01*
X0358646Y0058032D01*
X0358646Y0024568D01*
X0344866Y0024568D01*
X0348803Y0034213D02*
X0354709Y0034213D01*
X0354709Y0040119D01*
X0354709Y0042087D01*
X0354709Y0047993D01*
X0348803Y0047993D01*
X0348803Y0040119D01*
X0354709Y0040119D01*
X0348803Y0040119D02*
X0348803Y0034213D01*
X0348803Y0042087D02*
X0354709Y0042087D01*
D11*
X0211972Y0047599D02*
X0211972Y0035001D01*
X0206854Y0035001D01*
X0181657Y0035001D02*
X0176539Y0035001D01*
X0176539Y0047599D01*
X0181657Y0047599D01*
X0206854Y0047599D02*
X0211972Y0047599D01*
M02*
