G75*
%MOIN*%
%OFA0B0*%
%FSLAX25Y25*%
%IPPOS*%
%LPD*%
%AMOC8*
5,1,8,0,0,1.08239X$1,22.5*
%
%ADD10R,0.05512X0.04331*%
%ADD11R,0.04331X0.05512*%
%ADD12R,0.05512X0.05512*%
%ADD13R,0.04724X0.02756*%
%ADD14R,0.08661X0.02362*%
%ADD15R,0.03150X0.03543*%
%ADD16R,0.03937X0.04331*%
%ADD17R,0.05118X0.05906*%
%ADD18R,0.04331X0.03937*%
%ADD19R,0.05906X0.06299*%
%ADD20R,0.04724X0.04724*%
%ADD21R,0.06000X0.12500*%
%ADD22R,0.06299X0.05906*%
D10*
X0169256Y0017363D03*
X0169256Y0025237D03*
X0249256Y0022737D03*
X0249256Y0014863D03*
D11*
X0208193Y0016300D03*
X0200319Y0016300D03*
X0138193Y0041300D03*
X0130319Y0041300D03*
X0135319Y0056300D03*
X0143193Y0056300D03*
D12*
X0306776Y0016300D03*
X0321736Y0016300D03*
X0336776Y0016300D03*
X0351736Y0016300D03*
D13*
X0131539Y0066300D03*
X0116972Y0066300D03*
D14*
X0209020Y0043800D03*
X0229492Y0043800D03*
X0229492Y0038800D03*
X0209020Y0038800D03*
X0209020Y0033800D03*
X0229492Y0033800D03*
X0229492Y0028800D03*
X0209020Y0028800D03*
D15*
X0157996Y0017363D03*
X0150516Y0017363D03*
X0154256Y0025631D03*
X0295516Y0050237D03*
X0302996Y0050237D03*
X0299256Y0041969D03*
D16*
X0043409Y0016300D03*
X0050102Y0016300D03*
X0105909Y0016300D03*
X0112602Y0016300D03*
X0265909Y0016300D03*
X0272602Y0016300D03*
X0272602Y0031300D03*
X0265909Y0031300D03*
X0310909Y0041300D03*
X0317602Y0041300D03*
X0272602Y0046300D03*
X0265909Y0046300D03*
X0217602Y0061300D03*
X0210909Y0061300D03*
X0192602Y0061300D03*
X0185909Y0061300D03*
X0122602Y0056300D03*
X0115909Y0056300D03*
X0265909Y0066300D03*
X0272602Y0066300D03*
X0305909Y0066300D03*
X0312602Y0066300D03*
X0345909Y0066300D03*
X0352602Y0066300D03*
D17*
X0092996Y0016300D03*
X0085516Y0016300D03*
D18*
X0184256Y0017954D03*
X0184256Y0024646D03*
X0249256Y0037954D03*
X0249256Y0044646D03*
D19*
X0239256Y0055394D03*
X0189256Y0047206D03*
D20*
X0193193Y0034115D03*
X0185319Y0034115D03*
X0063941Y0059863D03*
X0063941Y0067737D03*
X0235319Y0068485D03*
X0243193Y0068485D03*
D21*
X0327591Y0057050D03*
X0364157Y0057050D03*
X0375080Y0057050D03*
X0364346Y0025440D03*
X0068421Y0025550D03*
X0031854Y0025550D03*
X0020932Y0025550D03*
X0031665Y0057160D03*
D22*
X0050850Y0063800D03*
M02*
