G75*
%MOIN*%
%OFA0B0*%
%FSLAX25Y25*%
%IPPOS*%
%LPD*%
%AMOC8*
5,1,8,0,0,1.08239X$1,22.5*
%
%ADD10R,0.05512X0.04331*%
%ADD11R,0.04331X0.05512*%
%ADD12R,0.06299X0.07087*%
%ADD13R,0.05512X0.05512*%
%ADD14R,0.04724X0.02756*%
%ADD15R,0.08661X0.02362*%
%ADD16R,0.03543X0.03150*%
%ADD17R,0.03150X0.03543*%
%ADD18R,0.03937X0.04331*%
%ADD19R,0.05906X0.05118*%
%ADD20R,0.04331X0.03937*%
%ADD21R,0.06000X0.12500*%
D10*
X0184300Y0037363D03*
X0201300Y0037363D03*
X0201300Y0045237D03*
X0184300Y0045237D03*
X0251300Y0022737D03*
X0251300Y0014863D03*
X0201300Y0012363D03*
X0201300Y0020237D03*
D11*
X0229363Y0016300D03*
X0237237Y0016300D03*
D12*
X0159812Y0017300D03*
X0148788Y0017300D03*
D13*
X0049780Y0016300D03*
X0034820Y0016300D03*
X0293820Y0014300D03*
X0308780Y0014300D03*
X0308780Y0022300D03*
X0293820Y0022300D03*
D14*
X0097583Y0068300D03*
X0083017Y0068300D03*
D15*
X0216064Y0043800D03*
X0236536Y0043800D03*
X0236536Y0038800D03*
X0236536Y0033800D03*
X0236536Y0028800D03*
X0216064Y0028800D03*
X0216064Y0033800D03*
X0216064Y0038800D03*
D16*
X0187237Y0056560D03*
X0178969Y0060300D03*
X0187237Y0064040D03*
D17*
X0292560Y0050237D03*
X0300040Y0050237D03*
X0296300Y0041969D03*
D18*
X0070454Y0014300D03*
X0077146Y0014300D03*
X0181954Y0017300D03*
X0188646Y0017300D03*
X0262954Y0016300D03*
X0269646Y0016300D03*
X0269646Y0031300D03*
X0262954Y0031300D03*
X0262954Y0041300D03*
X0269646Y0041300D03*
X0277954Y0041300D03*
X0284646Y0041300D03*
X0204646Y0061300D03*
X0197954Y0061300D03*
X0225954Y0062300D03*
X0232646Y0062300D03*
X0294954Y0066300D03*
X0301646Y0066300D03*
X0130646Y0068300D03*
X0123954Y0068300D03*
D19*
X0319300Y0022040D03*
X0319300Y0014560D03*
D20*
X0251300Y0033954D03*
X0251300Y0040646D03*
X0216300Y0019646D03*
X0216300Y0012954D03*
X0337300Y0062954D03*
X0349300Y0062954D03*
X0349300Y0069646D03*
X0337300Y0069646D03*
D21*
X0325402Y0057050D03*
X0361969Y0057050D03*
X0372891Y0057050D03*
X0354158Y0025440D03*
X0061213Y0025550D03*
X0024646Y0025550D03*
X0013724Y0025550D03*
X0032457Y0057160D03*
M02*
