%
M48
M72
T01C0.01378
T02C0.02756
T03C0.03150
T04C0.03200
T05C0.03543
T06C0.03937
T07C0.04000
T08C0.05906
T09C0.07000
T10C0.28346
%
T01
X54859Y16012
X75670Y9769
X104112Y9769
X95787Y22255
X91625Y22255
X87463Y22255
X79139Y22949
X82607Y26417
X54859Y26417
X70120Y33354
X44454Y48616
X38210Y51391
X76364Y50003
X84688Y59715
X95094Y73589
X166545Y60409
X174869Y56246
X182500Y63877
X192212Y68039
X216491Y74283
X296961Y54165
X303898Y47228
X274069Y45147
X295573Y37517
X299042Y34742
X251176Y29192
X229672Y35435
X227591Y38904
X226203Y43760
X208861Y37517
X201924Y32661
X175563Y32661
X211635Y24336
X195680Y14624
X245627Y12543
X324709Y23643
X233140Y50697
X217185Y50697
X195680Y45841
X191518Y43066
X178338Y43066
X170707Y42372
X166545Y41679
X162383Y41679
X172788Y45841
X364250Y65958
T02
X136221Y59450
T03
X62237Y65300
X54363Y65300
T04
X336300Y16300
X346300Y16300
T05
X371300Y16300
X341100Y27914
X283800Y26300
X283800Y16300
X341100Y54686
X283800Y58800
X283800Y68800
X371300Y68800
X166300Y70300
X156300Y70300
X146300Y70300
X73300Y54686
X45670Y54686
X45670Y27914
X73300Y27914
T06
X133859Y31457
X133859Y41300
X133859Y51143
T07
X266300Y55600
X266300Y67000
T08
X106300Y60985
X106300Y21615
T09
X55906Y41772
X28347Y41772
X330709Y40828
X358269Y40828
T10
X106300Y41300
M30
