G75*
%MOIN*%
%OFA0B0*%
%FSLAX25Y25*%
%IPPOS*%
%LPD*%
%AMOC8*
5,1,8,0,0,1.08239X$1,22.5*
%
%ADD10C,0.00800*%
%ADD11C,0.00600*%
%ADD12C,0.00300*%
%ADD13C,0.00400*%
%ADD14C,0.00500*%
%ADD15C,0.00200*%
%ADD16C,0.01000*%
D10*
X0180544Y0054788D02*
X0183694Y0054788D01*
X0180544Y0054788D02*
X0180544Y0057150D01*
X0180544Y0063450D02*
X0180544Y0065812D01*
X0183694Y0065812D01*
X0261300Y0063800D02*
X0261300Y0068800D01*
X0263800Y0071300D01*
X0268800Y0071300D01*
X0271300Y0068800D01*
X0271300Y0063800D01*
X0268800Y0061300D01*
X0271300Y0058800D01*
X0271300Y0053800D01*
X0268800Y0051300D01*
X0263800Y0051300D01*
X0261300Y0053800D01*
X0261300Y0058800D01*
X0263800Y0061300D01*
X0261300Y0063800D01*
X0290788Y0046694D02*
X0290788Y0043544D01*
X0293150Y0043544D01*
X0299450Y0043544D02*
X0301812Y0043544D01*
X0301812Y0046694D01*
D11*
X0260500Y0051600D02*
X0260500Y0052901D01*
X0260066Y0053335D01*
X0259633Y0053335D01*
X0259199Y0052901D01*
X0259199Y0051600D01*
X0260500Y0051600D02*
X0257898Y0051600D01*
X0257898Y0052901D01*
X0258331Y0053335D01*
X0258765Y0053335D01*
X0259199Y0052901D01*
X0259199Y0054547D02*
X0259199Y0056281D01*
X0258765Y0056281D02*
X0260500Y0056281D01*
X0258765Y0056281D02*
X0257898Y0055414D01*
X0258765Y0054547D01*
X0260500Y0054547D01*
X0257898Y0057493D02*
X0257898Y0059228D01*
X0257898Y0058360D02*
X0260500Y0058360D01*
X0257898Y0060440D02*
X0257898Y0062174D01*
X0257898Y0061307D02*
X0260500Y0061307D01*
X0260500Y0063386D02*
X0257898Y0063386D01*
X0257898Y0065121D01*
X0259199Y0064253D02*
X0259199Y0063386D01*
X0260500Y0063386D02*
X0260500Y0065121D01*
X0260500Y0066333D02*
X0257898Y0066333D01*
X0257898Y0067634D01*
X0258331Y0068067D01*
X0259199Y0068067D01*
X0259633Y0067634D01*
X0259633Y0066333D01*
X0259633Y0067200D02*
X0260500Y0068067D01*
X0259199Y0070147D02*
X0258331Y0069279D01*
X0257898Y0069279D01*
X0259199Y0070147D02*
X0260500Y0070147D01*
X0259199Y0070147D02*
X0258331Y0071014D01*
X0257898Y0071014D01*
X0258765Y0072226D02*
X0257898Y0073093D01*
X0260500Y0073093D01*
X0260500Y0072226D02*
X0260500Y0073960D01*
X0341300Y0022300D02*
X0341452Y0022298D01*
X0341603Y0022292D01*
X0341754Y0022283D01*
X0341906Y0022269D01*
X0342056Y0022252D01*
X0342206Y0022231D01*
X0342356Y0022206D01*
X0342505Y0022178D01*
X0342653Y0022145D01*
X0342800Y0022109D01*
X0342947Y0022070D01*
X0343092Y0022026D01*
X0343236Y0021979D01*
X0343379Y0021928D01*
X0343520Y0021874D01*
X0343661Y0021816D01*
X0343799Y0021755D01*
X0343936Y0021690D01*
X0344072Y0021621D01*
X0344205Y0021550D01*
X0344337Y0021475D01*
X0344467Y0021396D01*
X0344594Y0021315D01*
X0344720Y0021230D01*
X0344844Y0021142D01*
X0344965Y0021051D01*
X0345084Y0020957D01*
X0345200Y0020859D01*
X0345314Y0020759D01*
X0345426Y0020657D01*
X0345534Y0020551D01*
X0345640Y0020443D01*
X0345744Y0020332D01*
X0345844Y0020218D01*
X0345942Y0020102D01*
X0346036Y0019983D01*
X0341300Y0010300D02*
X0341146Y0010302D01*
X0340992Y0010308D01*
X0340838Y0010318D01*
X0340684Y0010332D01*
X0340531Y0010349D01*
X0340379Y0010371D01*
X0340227Y0010397D01*
X0340075Y0010426D01*
X0339925Y0010460D01*
X0339775Y0010497D01*
X0339627Y0010538D01*
X0339479Y0010583D01*
X0339333Y0010632D01*
X0339188Y0010684D01*
X0339045Y0010740D01*
X0338902Y0010800D01*
X0338762Y0010863D01*
X0338623Y0010930D01*
X0338486Y0011001D01*
X0338351Y0011075D01*
X0338218Y0011152D01*
X0338086Y0011233D01*
X0337957Y0011317D01*
X0337830Y0011405D01*
X0337706Y0011496D01*
X0337584Y0011589D01*
X0337464Y0011687D01*
X0337347Y0011787D01*
X0337232Y0011890D01*
X0337120Y0011996D01*
X0337011Y0012104D01*
X0336905Y0012216D01*
X0336801Y0012330D01*
X0336701Y0012447D01*
X0336603Y0012566D01*
X0336509Y0012688D01*
X0336418Y0012813D01*
X0341300Y0010300D02*
X0341450Y0010302D01*
X0341601Y0010308D01*
X0341751Y0010317D01*
X0341900Y0010330D01*
X0342050Y0010347D01*
X0342199Y0010368D01*
X0342347Y0010392D01*
X0342495Y0010420D01*
X0342642Y0010452D01*
X0342788Y0010487D01*
X0342933Y0010527D01*
X0343077Y0010569D01*
X0343220Y0010616D01*
X0343362Y0010666D01*
X0343503Y0010719D01*
X0343642Y0010776D01*
X0343780Y0010836D01*
X0343916Y0010900D01*
X0344050Y0010967D01*
X0344183Y0011038D01*
X0344314Y0011112D01*
X0344443Y0011189D01*
X0344570Y0011270D01*
X0344695Y0011353D01*
X0344818Y0011440D01*
X0344939Y0011529D01*
X0345057Y0011622D01*
X0345173Y0011718D01*
X0345287Y0011816D01*
X0345398Y0011917D01*
X0345507Y0012022D01*
X0345612Y0012128D01*
X0345716Y0012238D01*
X0345816Y0012350D01*
X0345914Y0012464D01*
X0346008Y0012581D01*
X0346100Y0012700D01*
X0341300Y0022300D02*
X0341148Y0022298D01*
X0340997Y0022292D01*
X0340846Y0022283D01*
X0340694Y0022269D01*
X0340544Y0022252D01*
X0340394Y0022231D01*
X0340244Y0022206D01*
X0340095Y0022178D01*
X0339947Y0022145D01*
X0339800Y0022109D01*
X0339653Y0022070D01*
X0339508Y0022026D01*
X0339364Y0021979D01*
X0339221Y0021928D01*
X0339080Y0021874D01*
X0338939Y0021816D01*
X0338801Y0021755D01*
X0338664Y0021690D01*
X0338528Y0021621D01*
X0338395Y0021550D01*
X0338263Y0021475D01*
X0338133Y0021396D01*
X0338006Y0021315D01*
X0337880Y0021230D01*
X0337756Y0021142D01*
X0337635Y0021051D01*
X0337516Y0020957D01*
X0337400Y0020859D01*
X0337286Y0020759D01*
X0337174Y0020657D01*
X0337066Y0020551D01*
X0336960Y0020443D01*
X0336856Y0020332D01*
X0336756Y0020218D01*
X0336658Y0020102D01*
X0336564Y0019983D01*
D12*
X0329119Y0019357D02*
X0329119Y0018390D01*
X0328635Y0017906D01*
X0326700Y0019841D01*
X0328635Y0019841D01*
X0329119Y0019357D01*
X0326700Y0019841D02*
X0326216Y0019357D01*
X0326216Y0018390D01*
X0326700Y0017906D01*
X0328635Y0017906D01*
X0328635Y0016894D02*
X0326700Y0016894D01*
X0326216Y0016411D01*
X0326216Y0015443D01*
X0326700Y0014960D01*
X0327184Y0014960D01*
X0327667Y0015443D01*
X0327667Y0016894D01*
X0328635Y0016894D02*
X0329119Y0016411D01*
X0329119Y0015443D01*
X0328635Y0014960D01*
X0328635Y0013948D02*
X0329119Y0013464D01*
X0329119Y0012497D01*
X0328635Y0012013D01*
X0327667Y0012980D02*
X0327667Y0013464D01*
X0328151Y0013948D01*
X0328635Y0013948D01*
X0327667Y0013464D02*
X0327184Y0013948D01*
X0326700Y0013948D01*
X0326216Y0013464D01*
X0326216Y0012497D01*
X0326700Y0012013D01*
X0322931Y0010614D02*
X0322447Y0011097D01*
X0321479Y0011097D01*
X0320996Y0010614D01*
X0322931Y0010614D02*
X0322931Y0010130D01*
X0320996Y0008195D01*
X0322931Y0008195D01*
X0319984Y0008195D02*
X0318049Y0008195D01*
X0319017Y0008195D02*
X0319017Y0011097D01*
X0318049Y0010130D01*
X0317038Y0010614D02*
X0317038Y0009646D01*
X0316554Y0009162D01*
X0315103Y0009162D01*
X0316070Y0009162D02*
X0317038Y0008195D01*
X0315103Y0008195D02*
X0315103Y0011097D01*
X0316554Y0011097D01*
X0317038Y0010614D01*
X0345786Y0009781D02*
X0347721Y0009781D01*
X0348732Y0009781D02*
X0350667Y0009781D01*
X0351679Y0009781D02*
X0353130Y0009781D01*
X0353614Y0010265D01*
X0353614Y0012200D01*
X0353130Y0012684D01*
X0351679Y0012684D01*
X0351679Y0009781D01*
X0348732Y0009781D02*
X0348732Y0012684D01*
X0350667Y0012684D01*
X0354626Y0011716D02*
X0355593Y0012684D01*
X0355593Y0009781D01*
X0354626Y0009781D02*
X0356561Y0009781D01*
X0349700Y0011233D02*
X0348732Y0011233D01*
X0345786Y0012684D02*
X0345786Y0009781D01*
X0302001Y0018387D02*
X0300066Y0018387D01*
X0302001Y0020322D01*
X0302001Y0020806D01*
X0301517Y0021289D01*
X0300550Y0021289D01*
X0300066Y0020806D01*
X0299054Y0020806D02*
X0298571Y0021289D01*
X0297119Y0021289D01*
X0297119Y0018387D01*
X0298571Y0018387D01*
X0299054Y0018871D01*
X0299054Y0020806D01*
X0298571Y0026387D02*
X0297119Y0026387D01*
X0297119Y0029289D01*
X0298571Y0029289D01*
X0299054Y0028806D01*
X0299054Y0026871D01*
X0298571Y0026387D01*
X0300066Y0026387D02*
X0302001Y0026387D01*
X0301033Y0026387D02*
X0301033Y0029289D01*
X0300066Y0028322D01*
X0288251Y0033950D02*
X0286800Y0035401D01*
X0286316Y0034917D02*
X0288251Y0036852D01*
X0286316Y0036852D02*
X0286316Y0033950D01*
X0285305Y0033950D02*
X0283370Y0033950D01*
X0285305Y0035885D01*
X0285305Y0036369D01*
X0284821Y0036852D01*
X0283854Y0036852D01*
X0283370Y0036369D01*
X0279917Y0036852D02*
X0279917Y0033950D01*
X0278950Y0033950D02*
X0280885Y0033950D01*
X0281897Y0033950D02*
X0282380Y0033950D01*
X0282380Y0034434D01*
X0281897Y0034434D01*
X0281897Y0033950D01*
X0279917Y0036852D02*
X0278950Y0035885D01*
X0271778Y0036369D02*
X0269843Y0034434D01*
X0270327Y0033950D01*
X0271294Y0033950D01*
X0271778Y0034434D01*
X0271778Y0036369D01*
X0271294Y0036852D01*
X0270327Y0036852D01*
X0269843Y0036369D01*
X0269843Y0034434D01*
X0268831Y0033950D02*
X0268831Y0036852D01*
X0267864Y0035885D01*
X0266897Y0036852D01*
X0266897Y0033950D01*
X0268831Y0033950D01*
X0267864Y0033950D02*
X0267864Y0036852D01*
X0266897Y0035885D01*
X0265885Y0036369D02*
X0265885Y0035401D01*
X0265401Y0034917D01*
X0263950Y0034917D01*
X0263950Y0033950D02*
X0265885Y0033950D01*
X0264917Y0034917D01*
X0264917Y0033950D02*
X0264917Y0036852D01*
X0263950Y0035885D01*
X0263950Y0036852D02*
X0265401Y0036852D01*
X0265885Y0036369D01*
X0263950Y0036852D02*
X0263950Y0033950D01*
X0256850Y0034057D02*
X0253948Y0034057D01*
X0253948Y0035508D01*
X0254431Y0035992D01*
X0255399Y0035992D01*
X0255883Y0035508D01*
X0255883Y0034057D01*
X0255883Y0035024D02*
X0256850Y0035992D01*
X0256850Y0037003D02*
X0256366Y0037003D01*
X0254431Y0038938D01*
X0253948Y0038938D01*
X0253948Y0037003D01*
X0246850Y0037003D02*
X0243948Y0037003D01*
X0245399Y0037487D02*
X0246850Y0038938D01*
X0245883Y0037003D02*
X0243948Y0038938D01*
X0246850Y0035992D02*
X0246850Y0034057D01*
X0246850Y0035024D02*
X0243948Y0035024D01*
X0244915Y0034057D01*
X0263950Y0025885D02*
X0264917Y0026852D01*
X0264917Y0023950D01*
X0263950Y0023950D02*
X0265885Y0023950D01*
X0266897Y0023950D02*
X0266897Y0026852D01*
X0268831Y0026852D02*
X0266897Y0024917D01*
X0267380Y0025401D02*
X0268831Y0023950D01*
X0267864Y0021852D02*
X0267864Y0018950D01*
X0266897Y0018950D02*
X0268831Y0018950D01*
X0269843Y0018950D02*
X0269843Y0019434D01*
X0271778Y0021369D01*
X0271778Y0021852D01*
X0269843Y0021852D01*
X0267864Y0021852D02*
X0266897Y0020885D01*
X0265885Y0021369D02*
X0265885Y0020401D01*
X0265401Y0019917D01*
X0263950Y0019917D01*
X0264917Y0019917D02*
X0265885Y0018950D01*
X0263950Y0018950D02*
X0263950Y0021852D01*
X0265401Y0021852D01*
X0265885Y0021369D01*
X0257795Y0020908D02*
X0254892Y0020908D01*
X0255860Y0019940D01*
X0257795Y0019940D02*
X0257795Y0021875D01*
X0246870Y0019940D02*
X0243967Y0019940D01*
X0243967Y0021875D01*
X0245418Y0020908D02*
X0245418Y0019940D01*
X0244935Y0018929D02*
X0246870Y0018929D01*
X0246870Y0017478D01*
X0246386Y0016994D01*
X0244935Y0016994D01*
X0244451Y0015982D02*
X0246386Y0014047D01*
X0246870Y0014531D01*
X0246870Y0015499D01*
X0246386Y0015982D01*
X0244451Y0015982D01*
X0243967Y0015499D01*
X0243967Y0014531D01*
X0244451Y0014047D01*
X0246386Y0014047D01*
X0246870Y0013036D02*
X0246870Y0011101D01*
X0246870Y0012068D02*
X0243967Y0012068D01*
X0244935Y0011101D01*
X0241797Y0010821D02*
X0240562Y0010821D01*
X0239348Y0011438D02*
X0239348Y0008970D01*
X0237496Y0008970D01*
X0236879Y0009587D01*
X0236879Y0011438D01*
X0235665Y0012056D02*
X0233196Y0009587D01*
X0233813Y0008970D01*
X0235048Y0008970D01*
X0235665Y0009587D01*
X0235665Y0012056D01*
X0235048Y0012673D01*
X0233813Y0012673D01*
X0233196Y0012056D01*
X0233196Y0009587D01*
X0231982Y0008970D02*
X0229513Y0008970D01*
X0230747Y0008970D02*
X0230747Y0012673D01*
X0229513Y0011438D01*
X0223850Y0011057D02*
X0223850Y0012992D01*
X0223850Y0012024D02*
X0220948Y0012024D01*
X0221915Y0011057D01*
X0221431Y0010045D02*
X0222399Y0010045D01*
X0222883Y0009562D01*
X0222883Y0008110D01*
X0223850Y0008110D02*
X0220948Y0008110D01*
X0220948Y0009562D01*
X0221431Y0010045D01*
X0222883Y0009078D02*
X0223850Y0010045D01*
X0209795Y0009945D02*
X0209795Y0008978D01*
X0209311Y0008494D01*
X0207376Y0008494D01*
X0206892Y0008978D01*
X0206892Y0009945D01*
X0207376Y0010429D01*
X0208344Y0011440D02*
X0208344Y0012892D01*
X0208827Y0013375D01*
X0209311Y0013375D01*
X0209795Y0012892D01*
X0209795Y0011924D01*
X0209311Y0011440D01*
X0208344Y0011440D01*
X0207376Y0012408D01*
X0206892Y0013375D01*
X0196870Y0012999D02*
X0196870Y0012031D01*
X0196386Y0011547D01*
X0196386Y0010558D02*
X0196870Y0010558D01*
X0196870Y0010074D01*
X0196386Y0010074D01*
X0196386Y0010558D01*
X0194451Y0011547D02*
X0193967Y0012031D01*
X0193967Y0012999D01*
X0194451Y0013482D01*
X0194935Y0013482D01*
X0195418Y0012999D01*
X0195902Y0013482D01*
X0196386Y0013482D01*
X0196870Y0012999D01*
X0195418Y0012999D02*
X0195418Y0012515D01*
X0194935Y0014494D02*
X0196386Y0014494D01*
X0196870Y0014978D01*
X0196870Y0016429D01*
X0194935Y0016429D01*
X0195418Y0017440D02*
X0195418Y0018408D01*
X0193967Y0019375D02*
X0193967Y0017440D01*
X0196870Y0017440D01*
X0209448Y0018024D02*
X0210415Y0017057D01*
X0209448Y0018024D02*
X0212350Y0018024D01*
X0212350Y0017057D02*
X0212350Y0018992D01*
X0212350Y0020003D02*
X0209448Y0020003D01*
X0210899Y0020487D02*
X0212350Y0021938D01*
X0211383Y0020003D02*
X0209448Y0021938D01*
X0229513Y0022981D02*
X0229513Y0020512D01*
X0230130Y0019895D01*
X0231365Y0019895D01*
X0231982Y0020512D01*
X0233196Y0020512D02*
X0233813Y0019895D01*
X0235048Y0019895D01*
X0235665Y0020512D01*
X0235665Y0021129D01*
X0235048Y0021746D01*
X0234431Y0021746D01*
X0235048Y0021746D02*
X0235665Y0022364D01*
X0235665Y0022981D01*
X0235048Y0023598D01*
X0233813Y0023598D01*
X0233196Y0022981D01*
X0231982Y0022981D02*
X0231365Y0023598D01*
X0230130Y0023598D01*
X0229513Y0022981D01*
X0254892Y0018445D02*
X0254892Y0017478D01*
X0255376Y0016994D01*
X0257311Y0016994D01*
X0257795Y0017478D01*
X0257795Y0018445D01*
X0257311Y0018929D01*
X0255376Y0018929D02*
X0254892Y0018445D01*
X0243031Y0012673D02*
X0240562Y0012673D01*
X0240562Y0008970D01*
X0261450Y0008950D02*
X0263385Y0008950D01*
X0262417Y0008950D02*
X0262417Y0011852D01*
X0261450Y0010885D01*
X0264397Y0011369D02*
X0264880Y0011852D01*
X0265848Y0011852D01*
X0266331Y0011369D01*
X0264397Y0009434D01*
X0264880Y0008950D01*
X0265848Y0008950D01*
X0266331Y0009434D01*
X0266331Y0011369D01*
X0267343Y0011852D02*
X0267343Y0008950D01*
X0267827Y0010401D02*
X0269278Y0008950D01*
X0264397Y0009434D02*
X0264397Y0011369D01*
X0267343Y0009917D02*
X0269278Y0011852D01*
X0223850Y0014487D02*
X0223366Y0014003D01*
X0223850Y0014487D02*
X0223850Y0015455D01*
X0223366Y0015938D01*
X0222399Y0015938D01*
X0221915Y0015455D01*
X0221915Y0014971D01*
X0222399Y0014003D01*
X0220948Y0014003D01*
X0220948Y0015938D01*
X0209795Y0009945D02*
X0209311Y0010429D01*
X0196870Y0008579D02*
X0196870Y0007611D01*
X0196386Y0007128D01*
X0195418Y0008095D02*
X0195418Y0008579D01*
X0195902Y0009063D01*
X0196386Y0009063D01*
X0196870Y0008579D01*
X0195418Y0008579D02*
X0194935Y0009063D01*
X0194451Y0009063D01*
X0193967Y0008579D01*
X0193967Y0007611D01*
X0194451Y0007128D01*
X0186455Y0009750D02*
X0186455Y0012652D01*
X0185003Y0011201D01*
X0186938Y0011201D01*
X0183992Y0009750D02*
X0182057Y0009750D01*
X0183024Y0009750D02*
X0183024Y0012652D01*
X0182057Y0011685D01*
X0181045Y0012169D02*
X0181045Y0011201D01*
X0180562Y0010717D01*
X0179110Y0010717D01*
X0179110Y0009750D02*
X0179110Y0012652D01*
X0180562Y0012652D01*
X0181045Y0012169D01*
X0180078Y0010717D02*
X0181045Y0009750D01*
X0181067Y0021750D02*
X0180584Y0021750D01*
X0180584Y0022234D01*
X0181067Y0022234D01*
X0181067Y0021750D01*
X0182057Y0021750D02*
X0183992Y0023685D01*
X0183992Y0024169D01*
X0183508Y0024652D01*
X0182541Y0024652D01*
X0182057Y0024169D01*
X0185003Y0024652D02*
X0185003Y0021750D01*
X0185003Y0022717D02*
X0186938Y0024652D01*
X0185487Y0023201D02*
X0186938Y0021750D01*
X0183992Y0021750D02*
X0182057Y0021750D01*
X0179572Y0021750D02*
X0177637Y0021750D01*
X0178605Y0021750D02*
X0178605Y0024652D01*
X0177637Y0023685D01*
X0193967Y0032611D02*
X0194451Y0032128D01*
X0196386Y0032128D01*
X0194451Y0034063D01*
X0196386Y0034063D01*
X0196870Y0033579D01*
X0196870Y0032611D01*
X0196386Y0032128D01*
X0193967Y0032611D02*
X0193967Y0033579D01*
X0194451Y0034063D01*
X0196386Y0035074D02*
X0196386Y0035558D01*
X0196870Y0035558D01*
X0196870Y0035074D01*
X0196386Y0035074D01*
X0196870Y0036547D02*
X0196870Y0038482D01*
X0196870Y0037515D02*
X0193967Y0037515D01*
X0194935Y0036547D01*
X0194935Y0039494D02*
X0196386Y0039494D01*
X0196870Y0039978D01*
X0196870Y0041429D01*
X0194935Y0041429D01*
X0195418Y0042440D02*
X0195418Y0043408D01*
X0193967Y0044375D02*
X0193967Y0042440D01*
X0196870Y0042440D01*
X0190795Y0042924D02*
X0190311Y0042440D01*
X0190795Y0042924D02*
X0190795Y0043892D01*
X0190311Y0044375D01*
X0189344Y0044375D01*
X0188860Y0043892D01*
X0188860Y0043408D01*
X0189344Y0042440D01*
X0187892Y0042440D01*
X0187892Y0044375D01*
X0179870Y0042440D02*
X0176967Y0042440D01*
X0176967Y0044375D01*
X0178418Y0043408D02*
X0178418Y0042440D01*
X0177935Y0041429D02*
X0179870Y0041429D01*
X0179870Y0039978D01*
X0179386Y0039494D01*
X0177935Y0039494D01*
X0177451Y0038482D02*
X0179386Y0036547D01*
X0179870Y0037031D01*
X0179870Y0037999D01*
X0179386Y0038482D01*
X0177451Y0038482D01*
X0176967Y0037999D01*
X0176967Y0037031D01*
X0177451Y0036547D01*
X0179386Y0036547D01*
X0179870Y0035536D02*
X0179870Y0033601D01*
X0179870Y0034568D02*
X0176967Y0034568D01*
X0177935Y0033601D01*
X0187892Y0039978D02*
X0188376Y0039494D01*
X0190311Y0039494D01*
X0190795Y0039978D01*
X0190795Y0040945D01*
X0190311Y0041429D01*
X0188376Y0041429D02*
X0187892Y0040945D01*
X0187892Y0039978D01*
X0204892Y0039978D02*
X0205376Y0039494D01*
X0207311Y0039494D01*
X0207795Y0039978D01*
X0207795Y0040945D01*
X0207311Y0041429D01*
X0207795Y0042440D02*
X0205860Y0044375D01*
X0205376Y0044375D01*
X0204892Y0043892D01*
X0204892Y0042924D01*
X0205376Y0042440D01*
X0205376Y0041429D02*
X0204892Y0040945D01*
X0204892Y0039978D01*
X0207795Y0042440D02*
X0207795Y0044375D01*
X0218950Y0046950D02*
X0219917Y0046950D01*
X0219434Y0046950D02*
X0219434Y0049852D01*
X0219917Y0049852D02*
X0218950Y0049852D01*
X0220914Y0049369D02*
X0220914Y0047434D01*
X0221398Y0046950D01*
X0222366Y0046950D01*
X0222849Y0047434D01*
X0223861Y0046950D02*
X0225796Y0046950D01*
X0224828Y0046950D02*
X0224828Y0049852D01*
X0223861Y0048885D01*
X0222849Y0049369D02*
X0222366Y0049852D01*
X0221398Y0049852D01*
X0220914Y0049369D01*
X0206778Y0053950D02*
X0205327Y0055401D01*
X0204843Y0054917D02*
X0206778Y0056852D01*
X0204843Y0056852D02*
X0204843Y0053950D01*
X0203831Y0054434D02*
X0203348Y0053950D01*
X0202380Y0053950D01*
X0201897Y0054434D01*
X0203831Y0056369D01*
X0203831Y0054434D01*
X0201897Y0054434D02*
X0201897Y0056369D01*
X0202380Y0056852D01*
X0203348Y0056852D01*
X0203831Y0056369D01*
X0199917Y0056852D02*
X0198950Y0055885D01*
X0199917Y0056852D02*
X0199917Y0053950D01*
X0198950Y0053950D02*
X0200885Y0053950D01*
X0191150Y0060184D02*
X0190666Y0059700D01*
X0188731Y0059700D01*
X0188248Y0060184D01*
X0188248Y0061151D01*
X0188731Y0061635D01*
X0190666Y0061635D01*
X0191150Y0061151D01*
X0191150Y0060184D01*
X0190183Y0060667D02*
X0191150Y0061635D01*
X0191150Y0062647D02*
X0191150Y0064581D01*
X0191150Y0063614D02*
X0188248Y0063614D01*
X0189215Y0062647D01*
X0198950Y0063950D02*
X0198950Y0066852D01*
X0200401Y0066852D01*
X0200885Y0066369D01*
X0200885Y0065401D01*
X0200401Y0064917D01*
X0198950Y0064917D01*
X0199917Y0064917D02*
X0200885Y0063950D01*
X0201897Y0063950D02*
X0203831Y0063950D01*
X0202864Y0063950D02*
X0202864Y0066852D01*
X0201897Y0065885D01*
X0204843Y0065885D02*
X0205811Y0066852D01*
X0205811Y0063950D01*
X0206778Y0063950D02*
X0204843Y0063950D01*
X0226950Y0064950D02*
X0226950Y0067852D01*
X0228401Y0067852D01*
X0228885Y0067369D01*
X0228885Y0066401D01*
X0228401Y0065917D01*
X0226950Y0065917D01*
X0227917Y0065917D02*
X0228885Y0064950D01*
X0229897Y0065434D02*
X0230380Y0064950D01*
X0231348Y0064950D01*
X0231831Y0065434D01*
X0231831Y0065917D01*
X0231348Y0066401D01*
X0230380Y0066401D01*
X0229897Y0066885D01*
X0229897Y0067369D01*
X0230380Y0067852D01*
X0231348Y0067852D01*
X0231831Y0067369D01*
X0231831Y0066885D01*
X0231348Y0066401D01*
X0230380Y0066401D02*
X0229897Y0065917D01*
X0229897Y0065434D01*
X0229897Y0057852D02*
X0229897Y0054950D01*
X0229897Y0055917D02*
X0231831Y0057852D01*
X0227917Y0057852D02*
X0227917Y0054950D01*
X0226950Y0054950D02*
X0228885Y0054950D01*
X0230380Y0056401D02*
X0231831Y0054950D01*
X0227917Y0057852D02*
X0226950Y0056885D01*
X0263950Y0046852D02*
X0265401Y0046852D01*
X0265885Y0046369D01*
X0265885Y0045401D01*
X0265401Y0044917D01*
X0263950Y0044917D01*
X0263950Y0043950D02*
X0263950Y0046852D01*
X0266897Y0046369D02*
X0267380Y0046852D01*
X0268348Y0046852D01*
X0268831Y0046369D01*
X0268831Y0045885D01*
X0268348Y0045401D01*
X0268831Y0044917D01*
X0268831Y0044434D01*
X0268348Y0043950D01*
X0267380Y0043950D01*
X0266897Y0044434D01*
X0265885Y0043950D02*
X0264917Y0044917D01*
X0267864Y0045401D02*
X0268348Y0045401D01*
X0278950Y0044917D02*
X0280401Y0044917D01*
X0280885Y0045401D01*
X0280885Y0046369D01*
X0280401Y0046852D01*
X0278950Y0046852D01*
X0278950Y0043950D01*
X0279917Y0044917D02*
X0280885Y0043950D01*
X0281897Y0043950D02*
X0283831Y0045885D01*
X0283831Y0046369D01*
X0283348Y0046852D01*
X0282380Y0046852D01*
X0281897Y0046369D01*
X0281897Y0043950D02*
X0283831Y0043950D01*
X0293807Y0038669D02*
X0294291Y0039152D01*
X0295258Y0039152D01*
X0295742Y0038669D01*
X0295742Y0036734D01*
X0295258Y0036250D01*
X0294291Y0036250D01*
X0293807Y0036734D01*
X0293807Y0038669D01*
X0294774Y0037217D02*
X0295742Y0036250D01*
X0296753Y0036250D02*
X0298688Y0038185D01*
X0298688Y0038669D01*
X0298205Y0039152D01*
X0297237Y0039152D01*
X0296753Y0038669D01*
X0296753Y0036250D02*
X0298688Y0036250D01*
X0329948Y0058131D02*
X0330915Y0057164D01*
X0329948Y0058131D02*
X0332850Y0058131D01*
X0332850Y0057164D02*
X0332850Y0059099D01*
X0332366Y0060110D02*
X0330431Y0062045D01*
X0332366Y0062045D01*
X0332850Y0061562D01*
X0332850Y0060594D01*
X0332366Y0060110D01*
X0330431Y0060110D01*
X0329948Y0060594D01*
X0329948Y0061562D01*
X0330431Y0062045D01*
X0330431Y0063057D02*
X0329948Y0063541D01*
X0329948Y0064508D01*
X0330431Y0064992D01*
X0332366Y0063057D01*
X0332850Y0063541D01*
X0332850Y0064508D01*
X0332366Y0064992D01*
X0330431Y0064992D01*
X0329948Y0066003D02*
X0332850Y0066003D01*
X0331883Y0066003D02*
X0329948Y0067938D01*
X0331399Y0066487D02*
X0332850Y0067938D01*
X0339948Y0067938D02*
X0339948Y0066003D01*
X0341399Y0066003D01*
X0340915Y0066971D01*
X0340915Y0067455D01*
X0341399Y0067938D01*
X0342366Y0067938D01*
X0342850Y0067455D01*
X0342850Y0066487D01*
X0342366Y0066003D01*
X0342850Y0064992D02*
X0341883Y0064024D01*
X0341883Y0064508D02*
X0341883Y0063057D01*
X0342850Y0063057D02*
X0339948Y0063057D01*
X0339948Y0064508D01*
X0340431Y0064992D01*
X0341399Y0064992D01*
X0341883Y0064508D01*
X0343748Y0063950D02*
X0343748Y0065401D01*
X0344231Y0065885D01*
X0345199Y0065885D01*
X0345683Y0065401D01*
X0345683Y0063950D01*
X0346650Y0063950D02*
X0343748Y0063950D01*
X0345683Y0064917D02*
X0346650Y0065885D01*
X0346166Y0066897D02*
X0346650Y0067380D01*
X0346650Y0068348D01*
X0346166Y0068831D01*
X0345683Y0068831D01*
X0345199Y0068348D01*
X0345199Y0066897D01*
X0346166Y0066897D01*
X0345199Y0066897D02*
X0344231Y0067864D01*
X0343748Y0068831D01*
X0353748Y0068831D02*
X0353748Y0066897D01*
X0355199Y0066897D01*
X0354715Y0067864D01*
X0354715Y0068348D01*
X0355199Y0068831D01*
X0356166Y0068831D01*
X0356650Y0068348D01*
X0356650Y0067380D01*
X0356166Y0066897D01*
X0356650Y0065885D02*
X0356650Y0063950D01*
X0356650Y0064917D02*
X0353748Y0064917D01*
X0354715Y0063950D01*
X0332366Y0063057D02*
X0330431Y0063057D01*
X0305251Y0061852D02*
X0303316Y0059917D01*
X0303800Y0060401D02*
X0305251Y0058950D01*
X0303316Y0058950D02*
X0303316Y0061852D01*
X0302305Y0061369D02*
X0302305Y0060885D01*
X0300370Y0058950D01*
X0302305Y0058950D01*
X0299380Y0058950D02*
X0298897Y0058950D01*
X0298897Y0059434D01*
X0299380Y0059434D01*
X0299380Y0058950D01*
X0297885Y0058950D02*
X0295950Y0058950D01*
X0297885Y0060885D01*
X0297885Y0061369D01*
X0297401Y0061852D01*
X0296434Y0061852D01*
X0295950Y0061369D01*
X0300370Y0061369D02*
X0300854Y0061852D01*
X0301821Y0061852D01*
X0302305Y0061369D01*
X0300831Y0068950D02*
X0298897Y0068950D01*
X0299864Y0068950D02*
X0299864Y0071852D01*
X0298897Y0070885D01*
X0297885Y0071369D02*
X0297885Y0070401D01*
X0297401Y0069917D01*
X0295950Y0069917D01*
X0295950Y0068950D02*
X0295950Y0071852D01*
X0297401Y0071852D01*
X0297885Y0071369D01*
X0296917Y0069917D02*
X0297885Y0068950D01*
X0353748Y0070327D02*
X0354231Y0069843D01*
X0356166Y0069843D01*
X0354231Y0071778D01*
X0356166Y0071778D01*
X0356650Y0071294D01*
X0356650Y0070327D01*
X0356166Y0069843D01*
X0353748Y0070327D02*
X0353748Y0071294D01*
X0354231Y0071778D01*
X0353748Y0072790D02*
X0356650Y0072790D01*
X0355683Y0072790D02*
X0353748Y0074725D01*
X0355199Y0073273D02*
X0356650Y0074725D01*
X0128938Y0072669D02*
X0128938Y0070734D01*
X0128455Y0070250D01*
X0127487Y0070250D01*
X0127003Y0070734D01*
X0128938Y0072669D01*
X0128455Y0073152D01*
X0127487Y0073152D01*
X0127003Y0072669D01*
X0127003Y0070734D01*
X0125992Y0070250D02*
X0124057Y0070250D01*
X0125024Y0070250D02*
X0125024Y0073152D01*
X0124057Y0072185D01*
X0125024Y0065652D02*
X0125024Y0062750D01*
X0124057Y0062750D02*
X0125992Y0062750D01*
X0127003Y0063234D02*
X0127487Y0062750D01*
X0128455Y0062750D01*
X0128938Y0063234D01*
X0128938Y0063717D01*
X0128455Y0064201D01*
X0127003Y0064201D01*
X0127003Y0063234D01*
X0127003Y0064201D02*
X0127971Y0065169D01*
X0128938Y0065652D01*
X0125024Y0065652D02*
X0124057Y0064685D01*
X0123045Y0065169D02*
X0123045Y0064201D01*
X0122562Y0063717D01*
X0121110Y0063717D01*
X0122078Y0063717D02*
X0123045Y0062750D01*
X0121110Y0062750D02*
X0121110Y0065652D01*
X0122562Y0065652D01*
X0123045Y0065169D01*
X0093769Y0063732D02*
X0093769Y0063248D01*
X0093285Y0062764D01*
X0093769Y0062280D01*
X0093769Y0061797D01*
X0093285Y0061313D01*
X0092318Y0061313D01*
X0091834Y0061797D01*
X0090823Y0061797D02*
X0090823Y0063732D01*
X0090339Y0064215D01*
X0088888Y0064215D01*
X0088888Y0061313D01*
X0090339Y0061313D01*
X0090823Y0061797D01*
X0092802Y0062764D02*
X0093285Y0062764D01*
X0093769Y0063732D02*
X0093285Y0064215D01*
X0092318Y0064215D01*
X0091834Y0063732D01*
X0092318Y0072805D02*
X0091834Y0073289D01*
X0091834Y0073773D01*
X0092318Y0074256D01*
X0093285Y0074256D01*
X0093769Y0073773D01*
X0093769Y0073289D01*
X0093285Y0072805D01*
X0092318Y0072805D01*
X0092318Y0074256D02*
X0091834Y0074740D01*
X0091834Y0075224D01*
X0092318Y0075708D01*
X0093285Y0075708D01*
X0093769Y0075224D01*
X0093769Y0074740D01*
X0093285Y0074256D01*
X0090823Y0074256D02*
X0088888Y0074256D01*
X0090339Y0075708D01*
X0090339Y0072805D01*
X0087876Y0072805D02*
X0085941Y0072805D01*
X0086909Y0072805D02*
X0086909Y0075708D01*
X0085941Y0074740D01*
X0084930Y0074256D02*
X0082995Y0074256D01*
X0084446Y0075708D01*
X0084446Y0072805D01*
X0081983Y0072805D02*
X0081983Y0075708D01*
X0080048Y0075708D02*
X0081983Y0072805D01*
X0080048Y0072805D02*
X0080048Y0075708D01*
X0078069Y0075708D02*
X0078069Y0072805D01*
X0077102Y0072805D02*
X0079037Y0072805D01*
X0077102Y0074740D02*
X0078069Y0075708D01*
X0059682Y0054573D02*
X0060165Y0054089D01*
X0060165Y0052154D01*
X0059682Y0051670D01*
X0058714Y0051670D01*
X0058230Y0052154D01*
X0058230Y0054089D01*
X0058714Y0054573D01*
X0059682Y0054573D01*
X0057219Y0054573D02*
X0057219Y0054089D01*
X0055284Y0052154D01*
X0055284Y0051670D01*
X0057219Y0051670D01*
X0054272Y0051670D02*
X0052337Y0051670D01*
X0052337Y0054573D01*
X0054272Y0054573D01*
X0055284Y0054573D02*
X0057219Y0054573D01*
X0051340Y0054573D02*
X0050373Y0054573D01*
X0050857Y0054573D02*
X0050857Y0051670D01*
X0051340Y0051670D02*
X0050373Y0051670D01*
X0049361Y0053122D02*
X0048878Y0052638D01*
X0047426Y0052638D01*
X0047426Y0051670D02*
X0047426Y0054573D01*
X0048878Y0054573D01*
X0049361Y0054089D01*
X0049361Y0053122D01*
X0052337Y0053122D02*
X0053305Y0053122D01*
X0071450Y0021852D02*
X0072901Y0021852D01*
X0073385Y0021369D01*
X0073385Y0020401D01*
X0072901Y0019917D01*
X0071450Y0019917D01*
X0072417Y0019917D02*
X0073385Y0018950D01*
X0074397Y0018950D02*
X0076331Y0018950D01*
X0075364Y0018950D02*
X0075364Y0021852D01*
X0074397Y0020885D01*
X0077343Y0021369D02*
X0077827Y0021852D01*
X0078794Y0021852D01*
X0079278Y0021369D01*
X0079278Y0020885D01*
X0078794Y0020401D01*
X0079278Y0019917D01*
X0079278Y0019434D01*
X0078794Y0018950D01*
X0077827Y0018950D01*
X0077343Y0019434D01*
X0078311Y0020401D02*
X0078794Y0020401D01*
X0071450Y0018950D02*
X0071450Y0021852D01*
X0072417Y0009852D02*
X0072417Y0006950D01*
X0071450Y0006950D02*
X0073385Y0006950D01*
X0074397Y0007434D02*
X0076331Y0009369D01*
X0076331Y0007434D01*
X0075848Y0006950D01*
X0074880Y0006950D01*
X0074397Y0007434D01*
X0074397Y0009369D01*
X0074880Y0009852D01*
X0075848Y0009852D01*
X0076331Y0009369D01*
X0077343Y0009852D02*
X0078311Y0008885D01*
X0079278Y0009852D01*
X0079278Y0006950D01*
X0077343Y0006950D02*
X0077343Y0009852D01*
X0072417Y0009852D02*
X0071450Y0008885D01*
D13*
X0039925Y0007563D02*
X0037623Y0007563D01*
X0037623Y0012167D01*
X0039925Y0012167D01*
X0040692Y0011400D01*
X0040692Y0008330D01*
X0039925Y0007563D01*
X0044529Y0007563D02*
X0044529Y0012167D01*
X0042227Y0009865D01*
X0045296Y0009865D01*
X0145500Y0011069D02*
X0147035Y0012604D01*
X0147035Y0008000D01*
X0148569Y0008000D02*
X0145500Y0008000D01*
X0150104Y0008767D02*
X0150871Y0008000D01*
X0152406Y0008000D01*
X0153173Y0008767D01*
X0153173Y0010302D01*
X0152406Y0011069D01*
X0151639Y0011069D01*
X0150104Y0010302D01*
X0150104Y0012604D01*
X0153173Y0012604D01*
X0154708Y0011837D02*
X0155475Y0012604D01*
X0157010Y0012604D01*
X0157777Y0011837D01*
X0154708Y0008767D01*
X0155475Y0008000D01*
X0157010Y0008000D01*
X0157777Y0008767D01*
X0157777Y0011837D01*
X0159312Y0011069D02*
X0159312Y0008767D01*
X0160079Y0008000D01*
X0162381Y0008000D01*
X0162381Y0011069D01*
X0163916Y0010302D02*
X0165450Y0010302D01*
X0163916Y0008000D02*
X0163916Y0012604D01*
X0166985Y0012604D01*
X0154708Y0011837D02*
X0154708Y0008767D01*
X0156406Y0022000D02*
X0156406Y0026604D01*
X0154104Y0024302D01*
X0157173Y0024302D01*
X0152569Y0025837D02*
X0151802Y0026604D01*
X0150267Y0026604D01*
X0149500Y0025837D01*
X0149500Y0022767D01*
X0150267Y0022000D01*
X0151802Y0022000D01*
X0152569Y0022767D01*
X0153840Y0055500D02*
X0155708Y0055500D01*
X0154774Y0055500D02*
X0154774Y0058302D01*
X0153840Y0057368D01*
X0152761Y0058302D02*
X0150893Y0055500D01*
X0149815Y0056434D02*
X0148881Y0055500D01*
X0147947Y0056434D01*
X0147947Y0058302D01*
X0146868Y0058302D02*
X0145000Y0058302D01*
X0145000Y0056901D01*
X0145934Y0057368D01*
X0146401Y0057368D01*
X0146868Y0056901D01*
X0146868Y0055967D01*
X0146401Y0055500D01*
X0145467Y0055500D01*
X0145000Y0055967D01*
X0149815Y0056434D02*
X0149815Y0058302D01*
X0156786Y0057835D02*
X0157253Y0058302D01*
X0158187Y0058302D01*
X0158654Y0057835D01*
X0158654Y0057368D01*
X0156786Y0055500D01*
X0158654Y0055500D01*
X0159733Y0056434D02*
X0160667Y0055500D01*
X0161601Y0056434D01*
X0161601Y0058302D01*
X0159733Y0058302D02*
X0159733Y0056434D01*
X0165626Y0056434D02*
X0167027Y0056434D01*
X0167494Y0056901D01*
X0167494Y0057835D01*
X0167027Y0058302D01*
X0165626Y0058302D01*
X0165626Y0055500D01*
X0166560Y0056434D02*
X0167494Y0055500D01*
X0168572Y0055500D02*
X0170440Y0055500D01*
X0171519Y0055967D02*
X0171986Y0055500D01*
X0172920Y0055500D01*
X0173387Y0055967D01*
X0173387Y0056901D01*
X0172453Y0056901D01*
X0171519Y0057835D02*
X0171519Y0055967D01*
X0169506Y0056901D02*
X0168572Y0056901D01*
X0168572Y0058302D02*
X0168572Y0055500D01*
X0168572Y0058302D02*
X0170440Y0058302D01*
X0171519Y0057835D02*
X0171986Y0058302D01*
X0172920Y0058302D01*
X0173387Y0057835D01*
X0072965Y0065802D02*
X0069896Y0065802D01*
X0071431Y0067337D02*
X0071431Y0064267D01*
X0043965Y0065802D02*
X0040896Y0065802D01*
D14*
X0046489Y0058607D02*
X0046489Y0076324D01*
X0070111Y0076324D01*
X0070111Y0058607D01*
X0060269Y0058607D01*
X0060269Y0056639D01*
X0056331Y0056639D01*
X0056331Y0058607D01*
X0046489Y0058607D01*
X0083300Y0065300D02*
X0083300Y0071300D01*
X0097300Y0071300D01*
X0097300Y0065300D01*
X0083300Y0065300D01*
X0140300Y0075300D02*
X0140300Y0024800D01*
X0172300Y0024800D01*
X0172300Y0075300D01*
X0140300Y0075300D01*
D15*
X0143900Y0064102D02*
X0144634Y0064102D01*
X0144267Y0064102D02*
X0144267Y0061900D01*
X0143900Y0061900D02*
X0144634Y0061900D01*
X0145373Y0061900D02*
X0145373Y0064102D01*
X0146841Y0061900D01*
X0146841Y0064102D01*
X0151400Y0063735D02*
X0151400Y0062267D01*
X0151767Y0061900D01*
X0152501Y0061900D01*
X0152868Y0062267D01*
X0152868Y0063001D01*
X0152134Y0063001D01*
X0152868Y0063735D02*
X0152501Y0064102D01*
X0151767Y0064102D01*
X0151400Y0063735D01*
X0153610Y0064102D02*
X0155078Y0061900D01*
X0155078Y0064102D01*
X0155820Y0064102D02*
X0156921Y0064102D01*
X0157288Y0063735D01*
X0157288Y0062267D01*
X0156921Y0061900D01*
X0155820Y0061900D01*
X0155820Y0064102D01*
X0153610Y0064102D02*
X0153610Y0061900D01*
X0163900Y0062267D02*
X0163900Y0063735D01*
X0164267Y0064102D01*
X0165001Y0064102D01*
X0165368Y0063735D01*
X0165368Y0062267D01*
X0165001Y0061900D01*
X0164267Y0061900D01*
X0163900Y0062267D01*
X0166110Y0062267D02*
X0166477Y0061900D01*
X0167211Y0061900D01*
X0167578Y0062267D01*
X0167578Y0064102D01*
X0168320Y0064102D02*
X0169788Y0064102D01*
X0169054Y0064102D02*
X0169054Y0061900D01*
X0166110Y0062267D02*
X0166110Y0064102D01*
D16*
X0075080Y0054292D02*
X0071048Y0054292D01*
X0075080Y0054292D02*
X0075080Y0033308D01*
X0062298Y0028308D02*
X0024017Y0028308D01*
X0024017Y0054292D02*
X0030673Y0054292D01*
X0038548Y0054292D02*
X0042548Y0054292D01*
X0050298Y0054292D02*
X0058298Y0054292D01*
X0311536Y0049292D02*
X0311536Y0028308D01*
X0315568Y0028308D01*
X0328318Y0028308D02*
X0336318Y0028308D01*
X0344068Y0028308D02*
X0348068Y0028308D01*
X0355943Y0028308D02*
X0362599Y0028308D01*
X0348246Y0020269D02*
X0348147Y0020438D01*
X0348043Y0020604D01*
X0347936Y0020768D01*
X0347825Y0020929D01*
X0347710Y0021087D01*
X0347591Y0021242D01*
X0347468Y0021395D01*
X0347342Y0021544D01*
X0347212Y0021690D01*
X0347078Y0021833D01*
X0346941Y0021973D01*
X0346801Y0022109D01*
X0346657Y0022242D01*
X0346510Y0022371D01*
X0346360Y0022497D01*
X0346207Y0022618D01*
X0346051Y0022737D01*
X0345892Y0022851D01*
X0345731Y0022961D01*
X0345566Y0023067D01*
X0345400Y0023170D01*
X0345230Y0023268D01*
X0345059Y0023362D01*
X0344885Y0023452D01*
X0344709Y0023537D01*
X0344531Y0023619D01*
X0344351Y0023695D01*
X0344169Y0023768D01*
X0343986Y0023836D01*
X0343801Y0023899D01*
X0343614Y0023958D01*
X0343426Y0024012D01*
X0343237Y0024062D01*
X0343047Y0024107D01*
X0342855Y0024147D01*
X0342663Y0024183D01*
X0342470Y0024214D01*
X0342276Y0024240D01*
X0342081Y0024262D01*
X0341886Y0024278D01*
X0341691Y0024290D01*
X0341495Y0024298D01*
X0341300Y0024300D01*
X0348359Y0012535D02*
X0348266Y0012367D01*
X0348170Y0012201D01*
X0348070Y0012037D01*
X0347965Y0011876D01*
X0347857Y0011717D01*
X0347745Y0011561D01*
X0347629Y0011407D01*
X0347510Y0011257D01*
X0347387Y0011109D01*
X0347261Y0010964D01*
X0347131Y0010823D01*
X0346998Y0010684D01*
X0346861Y0010549D01*
X0346721Y0010417D01*
X0346579Y0010289D01*
X0346433Y0010164D01*
X0346284Y0010042D01*
X0346132Y0009924D01*
X0345978Y0009810D01*
X0345820Y0009700D01*
X0345661Y0009593D01*
X0345498Y0009490D01*
X0345333Y0009391D01*
X0345166Y0009296D01*
X0344997Y0009206D01*
X0344826Y0009119D01*
X0344652Y0009036D01*
X0344477Y0008958D01*
X0344299Y0008884D01*
X0344120Y0008814D01*
X0343940Y0008748D01*
X0343758Y0008687D01*
X0343574Y0008630D01*
X0343389Y0008578D01*
X0343203Y0008530D01*
X0343016Y0008486D01*
X0342828Y0008447D01*
X0342639Y0008413D01*
X0342449Y0008383D01*
X0342259Y0008358D01*
X0342068Y0008337D01*
X0341876Y0008321D01*
X0341684Y0008309D01*
X0341492Y0008302D01*
X0341300Y0008300D01*
X0335193Y0021468D02*
X0335320Y0021614D01*
X0335449Y0021756D01*
X0335583Y0021896D01*
X0335719Y0022032D01*
X0335859Y0022165D01*
X0336002Y0022295D01*
X0336149Y0022421D01*
X0336298Y0022543D01*
X0336450Y0022662D01*
X0336605Y0022777D01*
X0336762Y0022889D01*
X0336922Y0022996D01*
X0337085Y0023100D01*
X0337251Y0023199D01*
X0337418Y0023295D01*
X0337588Y0023387D01*
X0337760Y0023474D01*
X0337934Y0023558D01*
X0338110Y0023637D01*
X0338288Y0023711D01*
X0338468Y0023782D01*
X0338649Y0023848D01*
X0338832Y0023910D01*
X0339016Y0023967D01*
X0339202Y0024020D01*
X0339389Y0024068D01*
X0339577Y0024112D01*
X0339766Y0024151D01*
X0339956Y0024186D01*
X0340146Y0024216D01*
X0340337Y0024242D01*
X0340529Y0024263D01*
X0340722Y0024279D01*
X0340914Y0024291D01*
X0341107Y0024298D01*
X0341300Y0024300D01*
X0335154Y0011178D02*
X0335281Y0011030D01*
X0335411Y0010885D01*
X0335544Y0010744D01*
X0335681Y0010605D01*
X0335821Y0010470D01*
X0335965Y0010339D01*
X0336112Y0010211D01*
X0336261Y0010086D01*
X0336414Y0009965D01*
X0336569Y0009848D01*
X0336728Y0009735D01*
X0336889Y0009626D01*
X0337053Y0009521D01*
X0337219Y0009419D01*
X0337388Y0009322D01*
X0337558Y0009229D01*
X0337732Y0009140D01*
X0337907Y0009055D01*
X0338084Y0008975D01*
X0338263Y0008899D01*
X0338444Y0008827D01*
X0338627Y0008760D01*
X0338811Y0008697D01*
X0338997Y0008639D01*
X0339184Y0008585D01*
X0339372Y0008536D01*
X0339562Y0008491D01*
X0339752Y0008451D01*
X0339944Y0008416D01*
X0340136Y0008385D01*
X0340329Y0008359D01*
X0340523Y0008338D01*
X0340717Y0008321D01*
X0340911Y0008309D01*
X0341105Y0008302D01*
X0341300Y0008300D01*
X0324318Y0054292D02*
X0362599Y0054292D01*
M02*
