G75*
%MOIN*%
%OFA0B0*%
%FSLAX25Y25*%
%IPPOS*%
%LPD*%
%AMOC8*
5,1,8,0,0,1.08239X$1,22.5*
%
%ADD10C,0.00300*%
%ADD11C,0.00600*%
%ADD12C,0.00500*%
%ADD13R,0.07400X0.01700*%
%ADD14C,0.01000*%
%ADD15R,0.01500X0.02000*%
%ADD16C,0.00200*%
%ADD17C,0.00400*%
D10*
X0029733Y0016040D02*
X0029733Y0018509D01*
X0030967Y0019743D01*
X0032201Y0018509D01*
X0032201Y0016040D01*
X0033416Y0016040D02*
X0034650Y0016040D01*
X0034033Y0016040D02*
X0034033Y0019743D01*
X0033416Y0019743D01*
X0032201Y0017891D02*
X0029733Y0017891D01*
X0035871Y0018509D02*
X0036488Y0018509D01*
X0036488Y0016040D01*
X0035871Y0016040D02*
X0037106Y0016040D01*
X0042010Y0016040D02*
X0042010Y0019743D01*
X0043244Y0018509D01*
X0044479Y0019743D01*
X0044479Y0016040D01*
X0045693Y0016657D02*
X0046310Y0016040D01*
X0047545Y0016040D01*
X0048162Y0016657D01*
X0048162Y0017891D01*
X0047545Y0018509D01*
X0046310Y0018509D01*
X0045693Y0017891D01*
X0045693Y0016657D01*
X0049376Y0016040D02*
X0049376Y0018509D01*
X0049993Y0018509D01*
X0050610Y0017891D01*
X0051228Y0018509D01*
X0051845Y0017891D01*
X0051845Y0016040D01*
X0050610Y0016040D02*
X0050610Y0017891D01*
X0053059Y0017891D02*
X0053676Y0018509D01*
X0054911Y0018509D01*
X0055528Y0017891D01*
X0055528Y0017274D01*
X0053059Y0017274D01*
X0053059Y0016657D02*
X0053059Y0017891D01*
X0053059Y0016657D02*
X0053676Y0016040D01*
X0054911Y0016040D01*
X0056742Y0016040D02*
X0056742Y0018509D01*
X0058594Y0018509D01*
X0059211Y0017891D01*
X0059211Y0016040D01*
X0060426Y0016040D02*
X0061660Y0016040D01*
X0061043Y0016040D02*
X0061043Y0018509D01*
X0060426Y0018509D01*
X0061043Y0019743D02*
X0061043Y0020360D01*
X0062884Y0022280D02*
X0062267Y0022897D01*
X0062267Y0024131D01*
X0062884Y0024749D01*
X0064119Y0024749D01*
X0064736Y0024131D01*
X0064736Y0023514D01*
X0062267Y0023514D01*
X0062884Y0022280D02*
X0064119Y0022280D01*
X0065950Y0022897D02*
X0066567Y0023514D01*
X0068419Y0023514D01*
X0068419Y0024131D02*
X0068419Y0022280D01*
X0066567Y0022280D01*
X0065950Y0022897D01*
X0066567Y0024749D02*
X0067802Y0024749D01*
X0068419Y0024131D01*
X0069633Y0024749D02*
X0070251Y0024749D01*
X0070868Y0024131D01*
X0071485Y0024749D01*
X0072102Y0024131D01*
X0072102Y0022280D01*
X0073317Y0022280D02*
X0075168Y0022280D01*
X0075785Y0022897D01*
X0075785Y0024131D01*
X0075168Y0024749D01*
X0073317Y0024749D01*
X0073317Y0021046D01*
X0072099Y0019743D02*
X0070864Y0019743D01*
X0070247Y0019126D01*
X0070247Y0016657D01*
X0072716Y0019126D01*
X0072716Y0016657D01*
X0072099Y0016040D01*
X0070864Y0016040D01*
X0070247Y0016657D01*
X0069033Y0016040D02*
X0066564Y0016040D01*
X0069033Y0018509D01*
X0069033Y0019126D01*
X0068416Y0019743D01*
X0067181Y0019743D01*
X0066564Y0019126D01*
X0069633Y0022280D02*
X0069633Y0024749D01*
X0070868Y0024131D02*
X0070868Y0022280D01*
X0072099Y0019743D02*
X0072716Y0019126D01*
X0073930Y0018509D02*
X0075165Y0019743D01*
X0075165Y0016040D01*
X0076399Y0016040D02*
X0073930Y0016040D01*
X0077614Y0016040D02*
X0077614Y0016657D01*
X0080082Y0019126D01*
X0080082Y0019743D01*
X0077614Y0019743D01*
X0081917Y0022280D02*
X0083152Y0024749D01*
X0084366Y0022897D02*
X0084983Y0022897D01*
X0084983Y0022280D01*
X0084366Y0022280D01*
X0084366Y0022897D01*
X0086208Y0022897D02*
X0088676Y0025366D01*
X0088676Y0022897D01*
X0088059Y0022280D01*
X0086825Y0022280D01*
X0086208Y0022897D01*
X0086208Y0025366D01*
X0086825Y0025983D01*
X0088059Y0025983D01*
X0088676Y0025366D01*
X0089891Y0022897D02*
X0090508Y0022897D01*
X0090508Y0022280D01*
X0089891Y0022280D01*
X0089891Y0022897D01*
X0091732Y0022897D02*
X0092349Y0022280D01*
X0093584Y0022280D01*
X0094201Y0022897D01*
X0094201Y0025366D01*
X0093584Y0025983D01*
X0092349Y0025983D01*
X0091732Y0025366D01*
X0091732Y0024749D01*
X0092349Y0024131D01*
X0094201Y0024131D01*
X0095415Y0024749D02*
X0097267Y0024749D01*
X0097884Y0024131D01*
X0097884Y0022897D01*
X0097267Y0022280D01*
X0095415Y0022280D01*
X0095415Y0025983D01*
X0103245Y0022185D02*
X0104196Y0023136D01*
X0104196Y0020284D01*
X0105146Y0020284D02*
X0103245Y0020284D01*
X0106145Y0020759D02*
X0108046Y0022661D01*
X0108046Y0020759D01*
X0107571Y0020284D01*
X0106620Y0020284D01*
X0106145Y0020759D01*
X0106145Y0022661D01*
X0106620Y0023136D01*
X0107571Y0023136D01*
X0108046Y0022661D01*
X0109045Y0022185D02*
X0109045Y0020759D01*
X0109520Y0020284D01*
X0110947Y0020284D01*
X0110947Y0022185D01*
X0110018Y0030036D02*
X0109068Y0030036D01*
X0108592Y0030511D01*
X0107594Y0030511D02*
X0107118Y0030036D01*
X0106168Y0030036D01*
X0105692Y0030511D01*
X0105692Y0032413D01*
X0106168Y0032888D01*
X0107118Y0032888D01*
X0107594Y0032413D01*
X0108592Y0032413D02*
X0109068Y0032888D01*
X0110018Y0032888D01*
X0110494Y0032413D01*
X0110494Y0031937D01*
X0110018Y0031462D01*
X0110494Y0030987D01*
X0110494Y0030511D01*
X0110018Y0030036D01*
X0110018Y0031462D02*
X0109543Y0031462D01*
X0081917Y0022280D02*
X0080683Y0024749D01*
X0061049Y0024749D02*
X0060432Y0024749D01*
X0059198Y0023514D01*
X0059198Y0022280D02*
X0059198Y0024749D01*
X0057983Y0025366D02*
X0057366Y0025983D01*
X0055515Y0025983D01*
X0055515Y0022280D01*
X0055515Y0023514D02*
X0057366Y0023514D01*
X0057983Y0024131D01*
X0057983Y0025366D01*
X0050614Y0024749D02*
X0049997Y0024749D01*
X0048762Y0023514D01*
X0047548Y0023514D02*
X0045079Y0023514D01*
X0045079Y0022897D02*
X0045079Y0024131D01*
X0045696Y0024749D01*
X0046931Y0024749D01*
X0047548Y0024131D01*
X0047548Y0023514D01*
X0046931Y0022280D02*
X0045696Y0022280D01*
X0045079Y0022897D01*
X0043858Y0022280D02*
X0042624Y0022280D01*
X0043241Y0022280D02*
X0043241Y0025983D01*
X0042624Y0025983D01*
X0041406Y0024749D02*
X0039554Y0023514D01*
X0041406Y0022280D01*
X0039554Y0022280D02*
X0039554Y0025983D01*
X0038340Y0024749D02*
X0036488Y0024749D01*
X0035871Y0024131D01*
X0035871Y0022897D01*
X0036488Y0022280D01*
X0038340Y0022280D01*
X0036488Y0020360D02*
X0036488Y0019743D01*
X0034650Y0022280D02*
X0033416Y0022280D01*
X0034033Y0022280D02*
X0034033Y0024749D01*
X0033416Y0024749D01*
X0034033Y0025983D02*
X0034033Y0026600D01*
X0032201Y0025983D02*
X0029733Y0025983D01*
X0030967Y0025983D02*
X0030967Y0022280D01*
X0048762Y0022280D02*
X0048762Y0024749D01*
X0048914Y0051827D02*
X0049389Y0052302D01*
X0049389Y0054204D01*
X0048914Y0054679D01*
X0047963Y0054679D01*
X0047488Y0054204D01*
X0047488Y0052302D01*
X0047963Y0051827D01*
X0048914Y0051827D01*
X0050388Y0051827D02*
X0050388Y0054679D01*
X0052290Y0051827D01*
X0052290Y0054679D01*
X0053288Y0054679D02*
X0053288Y0051827D01*
X0055190Y0051827D01*
X0054239Y0053253D02*
X0053288Y0053253D01*
X0053288Y0054679D02*
X0055190Y0054679D01*
X0046489Y0054679D02*
X0046489Y0051827D01*
X0046489Y0053253D02*
X0044588Y0053253D01*
X0043589Y0053253D02*
X0043114Y0052778D01*
X0041688Y0052778D01*
X0041688Y0051827D02*
X0041688Y0054679D01*
X0043114Y0054679D01*
X0043589Y0054204D01*
X0043589Y0053253D01*
X0044588Y0051827D02*
X0044588Y0054679D01*
X0040689Y0053253D02*
X0038788Y0051827D01*
X0040689Y0053253D02*
X0038788Y0054679D01*
X0055268Y0072807D02*
X0054317Y0073758D01*
X0057169Y0073758D01*
X0057169Y0072807D02*
X0057169Y0074709D01*
X0056694Y0075708D02*
X0054792Y0077609D01*
X0056694Y0077609D01*
X0057169Y0077134D01*
X0057169Y0076183D01*
X0056694Y0075708D01*
X0054792Y0075708D01*
X0054317Y0076183D01*
X0054317Y0077134D01*
X0054792Y0077609D01*
X0054792Y0078608D02*
X0054317Y0079083D01*
X0054317Y0080034D01*
X0054792Y0080509D01*
X0056694Y0078608D01*
X0057169Y0079083D01*
X0057169Y0080034D01*
X0056694Y0080509D01*
X0054792Y0080509D01*
X0055268Y0081508D02*
X0055268Y0082934D01*
X0055743Y0083409D01*
X0057169Y0083409D01*
X0057169Y0081508D02*
X0055268Y0081508D01*
X0054792Y0078608D02*
X0056694Y0078608D01*
X0079412Y0078760D02*
X0079412Y0077334D01*
X0080363Y0077809D01*
X0080838Y0077809D01*
X0081314Y0077334D01*
X0081314Y0076383D01*
X0080838Y0075907D01*
X0079888Y0075907D01*
X0079412Y0076383D01*
X0079412Y0078760D02*
X0081314Y0078760D01*
X0082312Y0078284D02*
X0082788Y0078760D01*
X0083738Y0078760D01*
X0084214Y0078284D01*
X0082312Y0076383D01*
X0082788Y0075907D01*
X0083738Y0075907D01*
X0084214Y0076383D01*
X0084214Y0078284D01*
X0085212Y0078284D02*
X0085688Y0078760D01*
X0086638Y0078760D01*
X0087114Y0078284D01*
X0085212Y0076383D01*
X0085688Y0075907D01*
X0086638Y0075907D01*
X0087114Y0076383D01*
X0087114Y0078284D01*
X0085212Y0078284D02*
X0085212Y0076383D01*
X0082312Y0076383D02*
X0082312Y0078284D01*
X0082049Y0080804D02*
X0081098Y0081754D01*
X0081573Y0081754D02*
X0080147Y0081754D01*
X0080147Y0080804D02*
X0080147Y0083656D01*
X0081573Y0083656D01*
X0082049Y0083180D01*
X0082049Y0082230D01*
X0081573Y0081754D01*
X0083048Y0081279D02*
X0083048Y0080804D01*
X0083048Y0081279D02*
X0084949Y0083180D01*
X0084949Y0083656D01*
X0083048Y0083656D01*
X0083597Y0070671D02*
X0084548Y0070671D01*
X0085023Y0070196D01*
X0085023Y0069721D01*
X0084548Y0069245D01*
X0083597Y0069245D01*
X0083122Y0069721D01*
X0083122Y0070196D01*
X0083597Y0070671D01*
X0083597Y0069245D02*
X0083122Y0068770D01*
X0083122Y0068295D01*
X0083597Y0067819D01*
X0084548Y0067819D01*
X0085023Y0068295D01*
X0085023Y0068770D01*
X0084548Y0069245D01*
X0082123Y0069245D02*
X0081647Y0068770D01*
X0080221Y0068770D01*
X0080221Y0067819D02*
X0080221Y0070671D01*
X0081647Y0070671D01*
X0082123Y0070196D01*
X0082123Y0069245D01*
X0081172Y0068770D02*
X0082123Y0067819D01*
X0081581Y0065346D02*
X0082057Y0064871D01*
X0080155Y0062969D01*
X0080631Y0062494D01*
X0081581Y0062494D01*
X0082057Y0062969D01*
X0082057Y0064871D01*
X0081581Y0065346D02*
X0080631Y0065346D01*
X0080155Y0064871D01*
X0080155Y0062969D01*
X0079157Y0062969D02*
X0078681Y0062494D01*
X0077730Y0062494D01*
X0077255Y0062969D01*
X0077255Y0063920D02*
X0078206Y0064395D01*
X0078681Y0064395D01*
X0079157Y0063920D01*
X0079157Y0062969D01*
X0077255Y0063920D02*
X0077255Y0065346D01*
X0079157Y0065346D01*
X0083055Y0064871D02*
X0083055Y0062969D01*
X0084957Y0064871D01*
X0084957Y0062969D01*
X0084481Y0062494D01*
X0083531Y0062494D01*
X0083055Y0062969D01*
X0083055Y0064871D02*
X0083531Y0065346D01*
X0084481Y0065346D01*
X0084957Y0064871D01*
X0118434Y0072037D02*
X0119402Y0072037D01*
X0118918Y0072037D02*
X0118918Y0074939D01*
X0118434Y0074939D02*
X0119402Y0074939D01*
X0120399Y0074455D02*
X0120399Y0072520D01*
X0120882Y0072037D01*
X0121850Y0072037D01*
X0122334Y0072520D01*
X0123345Y0072037D02*
X0125280Y0072037D01*
X0124313Y0072037D02*
X0124313Y0074939D01*
X0123345Y0073972D01*
X0122334Y0074455D02*
X0121850Y0074939D01*
X0120882Y0074939D01*
X0120399Y0074455D01*
X0152828Y0068583D02*
X0153778Y0069534D01*
X0153778Y0066681D01*
X0152828Y0066681D02*
X0154729Y0066681D01*
X0155728Y0067157D02*
X0157629Y0069058D01*
X0157629Y0067157D01*
X0157154Y0066681D01*
X0156203Y0066681D01*
X0155728Y0067157D01*
X0155728Y0069058D01*
X0156203Y0069534D01*
X0157154Y0069534D01*
X0157629Y0069058D01*
X0158628Y0068583D02*
X0158628Y0067157D01*
X0159103Y0066681D01*
X0160529Y0066681D01*
X0160529Y0068583D01*
X0160372Y0076906D02*
X0158470Y0076906D01*
X0159421Y0076906D02*
X0159421Y0079758D01*
X0158470Y0078807D01*
X0157472Y0079283D02*
X0156996Y0079758D01*
X0156046Y0079758D01*
X0155570Y0079283D01*
X0155570Y0077381D01*
X0156046Y0076906D01*
X0156996Y0076906D01*
X0157472Y0077381D01*
X0168235Y0057380D02*
X0169686Y0057380D01*
X0170170Y0056896D01*
X0170170Y0055929D01*
X0169686Y0055445D01*
X0168235Y0055445D01*
X0169202Y0055445D02*
X0170170Y0054478D01*
X0171181Y0055929D02*
X0173116Y0055929D01*
X0172633Y0057380D02*
X0171181Y0055929D01*
X0172633Y0054478D02*
X0172633Y0057380D01*
X0168235Y0057380D02*
X0168235Y0054478D01*
X0168599Y0052287D02*
X0168599Y0049385D01*
X0167632Y0049385D02*
X0169567Y0049385D01*
X0170578Y0049868D02*
X0172513Y0051803D01*
X0172513Y0049868D01*
X0172030Y0049385D01*
X0171062Y0049385D01*
X0170578Y0049868D01*
X0170578Y0051803D01*
X0171062Y0052287D01*
X0172030Y0052287D01*
X0172513Y0051803D01*
X0173525Y0052287D02*
X0173525Y0049385D01*
X0173525Y0050352D02*
X0175460Y0052287D01*
X0174009Y0050836D02*
X0175460Y0049385D01*
X0173426Y0044573D02*
X0171525Y0044573D01*
X0171525Y0043147D01*
X0172476Y0043622D01*
X0172951Y0043622D01*
X0173426Y0043147D01*
X0173426Y0042196D01*
X0172951Y0041721D01*
X0172000Y0041721D01*
X0171525Y0042196D01*
X0170526Y0041721D02*
X0169575Y0042672D01*
X0170051Y0042672D02*
X0168625Y0042672D01*
X0168625Y0041721D02*
X0168625Y0044573D01*
X0170051Y0044573D01*
X0170526Y0044098D01*
X0170526Y0043147D01*
X0170051Y0042672D01*
X0170623Y0039480D02*
X0171573Y0039480D01*
X0172049Y0039005D01*
X0170147Y0037103D01*
X0170623Y0036628D01*
X0171573Y0036628D01*
X0172049Y0037103D01*
X0172049Y0039005D01*
X0173048Y0039480D02*
X0173048Y0036628D01*
X0173048Y0037579D02*
X0174949Y0039480D01*
X0173523Y0038054D02*
X0174949Y0036628D01*
X0170147Y0037103D02*
X0170147Y0039005D01*
X0170623Y0039480D01*
X0169149Y0039480D02*
X0167247Y0039480D01*
X0167247Y0038054D01*
X0168198Y0038529D01*
X0168673Y0038529D01*
X0169149Y0038054D01*
X0169149Y0037103D01*
X0168673Y0036628D01*
X0167723Y0036628D01*
X0167247Y0037103D01*
X0166249Y0036628D02*
X0164347Y0036628D01*
X0165298Y0036628D02*
X0165298Y0039480D01*
X0164347Y0038529D01*
X0168218Y0030175D02*
X0169644Y0030175D01*
X0170120Y0029700D01*
X0170120Y0028749D01*
X0169644Y0028274D01*
X0168218Y0028274D01*
X0168218Y0027323D02*
X0168218Y0030175D01*
X0169169Y0028274D02*
X0170120Y0027323D01*
X0171118Y0027799D02*
X0171594Y0027323D01*
X0172544Y0027323D01*
X0173020Y0027799D01*
X0173020Y0028274D01*
X0172544Y0028749D01*
X0171118Y0028749D01*
X0171118Y0027799D01*
X0171118Y0028749D02*
X0172069Y0029700D01*
X0173020Y0030175D01*
X0173135Y0025043D02*
X0173610Y0024568D01*
X0171708Y0022666D01*
X0172184Y0022191D01*
X0173135Y0022191D01*
X0173610Y0022666D01*
X0173610Y0024568D01*
X0173135Y0025043D02*
X0172184Y0025043D01*
X0171708Y0024568D01*
X0171708Y0022666D01*
X0170710Y0022666D02*
X0170234Y0022191D01*
X0169284Y0022191D01*
X0168808Y0022666D01*
X0170710Y0024568D01*
X0170710Y0022666D01*
X0168808Y0022666D02*
X0168808Y0024568D01*
X0169284Y0025043D01*
X0170234Y0025043D01*
X0170710Y0024568D01*
X0166859Y0025043D02*
X0166859Y0022191D01*
X0165908Y0022191D02*
X0167810Y0022191D01*
X0165908Y0024092D02*
X0166859Y0025043D01*
X0174609Y0025043D02*
X0174609Y0022191D01*
X0174609Y0023142D02*
X0176510Y0025043D01*
X0175084Y0023617D02*
X0176510Y0022191D01*
X0206081Y0032674D02*
X0206081Y0035526D01*
X0207507Y0035526D01*
X0207982Y0035050D01*
X0207982Y0034100D01*
X0207507Y0033624D01*
X0206081Y0033624D01*
X0208981Y0032674D02*
X0209931Y0032674D01*
X0209456Y0032674D02*
X0209456Y0035526D01*
X0208981Y0035526D02*
X0209931Y0035526D01*
X0210914Y0035526D02*
X0210914Y0032674D01*
X0212816Y0032674D01*
X0213814Y0032674D02*
X0215716Y0032674D01*
X0216714Y0033149D02*
X0217190Y0032674D01*
X0218140Y0032674D01*
X0218616Y0033149D01*
X0218616Y0035050D01*
X0218140Y0035526D01*
X0217190Y0035526D01*
X0216714Y0035050D01*
X0216714Y0033149D01*
X0215716Y0035050D02*
X0213814Y0033149D01*
X0213814Y0032674D01*
X0211865Y0034100D02*
X0210914Y0034100D01*
X0210914Y0035526D02*
X0212816Y0035526D01*
X0213814Y0035526D02*
X0215716Y0035526D01*
X0215716Y0035050D01*
X0220587Y0042697D02*
X0220112Y0043172D01*
X0220112Y0044123D01*
X0220587Y0044598D01*
X0221063Y0044598D01*
X0222964Y0042697D01*
X0222964Y0044598D01*
X0222489Y0045597D02*
X0220587Y0047498D01*
X0222489Y0047498D01*
X0222964Y0047023D01*
X0222964Y0046072D01*
X0222489Y0045597D01*
X0220587Y0045597D01*
X0220112Y0046072D01*
X0220112Y0047023D01*
X0220587Y0047498D01*
X0220112Y0048497D02*
X0222964Y0048497D01*
X0222013Y0048497D02*
X0221063Y0049923D01*
X0222013Y0048497D02*
X0222964Y0049923D01*
X0203980Y0048593D02*
X0203980Y0047643D01*
X0203505Y0047167D01*
X0202554Y0047643D02*
X0202554Y0049069D01*
X0203505Y0049069D02*
X0201603Y0049069D01*
X0201128Y0048593D01*
X0201128Y0047643D01*
X0201603Y0047167D01*
X0202079Y0047167D01*
X0202554Y0047643D01*
X0202554Y0046168D02*
X0203029Y0045693D01*
X0203029Y0044267D01*
X0203029Y0045218D02*
X0203980Y0046168D01*
X0202554Y0046168D02*
X0201603Y0046168D01*
X0201128Y0045693D01*
X0201128Y0044267D01*
X0203980Y0044267D01*
X0203980Y0048593D02*
X0203505Y0049069D01*
X0168599Y0052287D02*
X0167632Y0051320D01*
X0210903Y0073826D02*
X0212804Y0073826D01*
X0211853Y0073826D02*
X0211853Y0076678D01*
X0210903Y0075727D01*
X0213803Y0076678D02*
X0213803Y0073826D01*
X0213803Y0074776D02*
X0215704Y0076678D01*
X0214278Y0075252D02*
X0215704Y0073826D01*
X0216207Y0080341D02*
X0215731Y0080816D01*
X0217633Y0082717D01*
X0217633Y0080816D01*
X0217157Y0080341D01*
X0216207Y0080341D01*
X0215731Y0080816D02*
X0215731Y0082717D01*
X0216207Y0083193D01*
X0217157Y0083193D01*
X0217633Y0082717D01*
X0214733Y0080341D02*
X0212831Y0080341D01*
X0213782Y0080341D02*
X0213782Y0083193D01*
X0212831Y0082242D01*
X0211832Y0082717D02*
X0211832Y0081767D01*
X0211357Y0081291D01*
X0209931Y0081291D01*
X0209931Y0080341D02*
X0209931Y0083193D01*
X0211357Y0083193D01*
X0211832Y0082717D01*
X0210882Y0081291D02*
X0211832Y0080341D01*
X0237678Y0066255D02*
X0238154Y0066730D01*
X0239104Y0066730D01*
X0239580Y0066255D01*
X0239580Y0065780D01*
X0237678Y0063878D01*
X0239580Y0063878D01*
X0240579Y0063878D02*
X0240579Y0066730D01*
X0242480Y0063878D01*
X0242480Y0066730D01*
X0243479Y0066730D02*
X0243479Y0065304D01*
X0244429Y0065780D01*
X0244905Y0065780D01*
X0245380Y0065304D01*
X0245380Y0064354D01*
X0244905Y0063878D01*
X0243954Y0063878D01*
X0243479Y0064354D01*
X0246379Y0065304D02*
X0248280Y0065304D01*
X0249279Y0064829D02*
X0249279Y0064354D01*
X0249754Y0063878D01*
X0250705Y0063878D01*
X0251180Y0064354D01*
X0251180Y0064829D01*
X0250705Y0065304D01*
X0249754Y0065304D01*
X0249279Y0065780D01*
X0249279Y0066255D01*
X0249754Y0066730D01*
X0250705Y0066730D01*
X0251180Y0066255D01*
X0251180Y0065780D01*
X0250705Y0065304D01*
X0249754Y0065304D02*
X0249279Y0064829D01*
X0247805Y0063878D02*
X0247805Y0066730D01*
X0246379Y0065304D01*
X0245380Y0066730D02*
X0243479Y0066730D01*
X0252179Y0065304D02*
X0254080Y0065304D01*
X0253605Y0063878D02*
X0253605Y0066730D01*
X0252179Y0065304D01*
X0250915Y0057120D02*
X0250915Y0054268D01*
X0251865Y0054268D02*
X0249964Y0054268D01*
X0248965Y0054268D02*
X0248015Y0055219D01*
X0248490Y0055219D02*
X0247064Y0055219D01*
X0247064Y0054268D02*
X0247064Y0057120D01*
X0248490Y0057120D01*
X0248965Y0056645D01*
X0248965Y0055694D01*
X0248490Y0055219D01*
X0249964Y0056169D02*
X0250915Y0057120D01*
X0251718Y0052449D02*
X0252669Y0052449D01*
X0253144Y0051974D01*
X0251243Y0050073D01*
X0251718Y0049597D01*
X0252669Y0049597D01*
X0253144Y0050073D01*
X0253144Y0051974D01*
X0254143Y0052449D02*
X0254143Y0049597D01*
X0254143Y0050548D02*
X0256045Y0052449D01*
X0254619Y0051023D02*
X0256045Y0049597D01*
X0251243Y0050073D02*
X0251243Y0051974D01*
X0251718Y0052449D01*
X0250244Y0051974D02*
X0248343Y0050073D01*
X0248818Y0049597D01*
X0249769Y0049597D01*
X0250244Y0050073D01*
X0250244Y0051974D01*
X0249769Y0052449D01*
X0248818Y0052449D01*
X0248343Y0051974D01*
X0248343Y0050073D01*
X0247344Y0049597D02*
X0245443Y0049597D01*
X0246394Y0049597D02*
X0246394Y0052449D01*
X0245443Y0051499D01*
X0246817Y0043774D02*
X0248243Y0043774D01*
X0248718Y0043298D01*
X0248718Y0042348D01*
X0248243Y0041872D01*
X0246817Y0041872D01*
X0246817Y0040922D02*
X0246817Y0043774D01*
X0247767Y0041872D02*
X0248718Y0040922D01*
X0249717Y0040922D02*
X0251618Y0042823D01*
X0251618Y0043298D01*
X0251143Y0043774D01*
X0250192Y0043774D01*
X0249717Y0043298D01*
X0249717Y0040922D02*
X0251618Y0040922D01*
X0251267Y0038956D02*
X0250316Y0038956D01*
X0249841Y0038481D01*
X0251267Y0038956D02*
X0251742Y0038481D01*
X0251742Y0038006D01*
X0249841Y0036104D01*
X0251742Y0036104D01*
X0252741Y0036104D02*
X0252741Y0038956D01*
X0253217Y0037530D02*
X0254643Y0036104D01*
X0252741Y0037055D02*
X0254643Y0038956D01*
X0248866Y0036580D02*
X0248391Y0036580D01*
X0248391Y0036104D01*
X0248866Y0036104D01*
X0248866Y0036580D01*
X0247392Y0036104D02*
X0245491Y0036104D01*
X0246442Y0036104D02*
X0246442Y0038956D01*
X0245491Y0038006D01*
X0247014Y0029880D02*
X0248440Y0029880D01*
X0248915Y0029405D01*
X0248915Y0028454D01*
X0248440Y0027979D01*
X0247014Y0027979D01*
X0247964Y0027979D02*
X0248915Y0027028D01*
X0249914Y0027503D02*
X0250389Y0027028D01*
X0251340Y0027028D01*
X0251815Y0027503D01*
X0251815Y0027979D01*
X0251340Y0028454D01*
X0250864Y0028454D01*
X0251340Y0028454D02*
X0251815Y0028929D01*
X0251815Y0029405D01*
X0251340Y0029880D01*
X0250389Y0029880D01*
X0249914Y0029405D01*
X0247014Y0029880D02*
X0247014Y0027028D01*
X0247394Y0024362D02*
X0247394Y0021510D01*
X0246444Y0021510D02*
X0248345Y0021510D01*
X0249344Y0021510D02*
X0249344Y0024362D01*
X0250294Y0023411D01*
X0251245Y0024362D01*
X0251245Y0021510D01*
X0247394Y0024362D02*
X0246444Y0023411D01*
X0283932Y0018242D02*
X0283932Y0015390D01*
X0285358Y0015390D01*
X0285834Y0015865D01*
X0285834Y0017767D01*
X0285358Y0018242D01*
X0283932Y0018242D01*
X0286833Y0017292D02*
X0287783Y0018242D01*
X0287783Y0015390D01*
X0286833Y0015390D02*
X0288734Y0015390D01*
X0315323Y0029489D02*
X0316749Y0029489D01*
X0317225Y0029964D01*
X0317225Y0031865D01*
X0316749Y0032341D01*
X0315323Y0032341D01*
X0315323Y0029489D01*
X0318223Y0029489D02*
X0320125Y0031390D01*
X0320125Y0031865D01*
X0319649Y0032341D01*
X0318699Y0032341D01*
X0318223Y0031865D01*
X0318223Y0029489D02*
X0320125Y0029489D01*
X0362359Y0053008D02*
X0364260Y0054434D01*
X0362359Y0055860D01*
X0365259Y0055860D02*
X0365259Y0053008D01*
X0365259Y0054434D02*
X0367160Y0054434D01*
X0368159Y0054434D02*
X0369109Y0054434D01*
X0368159Y0053008D02*
X0370060Y0053008D01*
X0371059Y0053008D02*
X0371059Y0054910D01*
X0372010Y0055860D01*
X0372960Y0054910D01*
X0372960Y0053008D01*
X0373959Y0053008D02*
X0375385Y0053008D01*
X0375860Y0053484D01*
X0375860Y0055385D01*
X0375385Y0055860D01*
X0373959Y0055860D01*
X0373959Y0053008D01*
X0372960Y0054434D02*
X0371059Y0054434D01*
X0370060Y0055860D02*
X0368159Y0055860D01*
X0368159Y0053008D01*
X0367160Y0053008D02*
X0367160Y0055860D01*
X0376859Y0055385D02*
X0376859Y0054910D01*
X0377334Y0054434D01*
X0378285Y0054434D01*
X0378760Y0053959D01*
X0378760Y0053484D01*
X0378285Y0053008D01*
X0377334Y0053008D01*
X0376859Y0053484D01*
X0376859Y0055385D02*
X0377334Y0055860D01*
X0378285Y0055860D01*
X0378760Y0055385D01*
X0379759Y0055860D02*
X0379759Y0053008D01*
X0381661Y0053008D01*
X0380710Y0054434D02*
X0379759Y0054434D01*
X0379759Y0055860D02*
X0381661Y0055860D01*
X0382659Y0055860D02*
X0384561Y0055860D01*
X0383610Y0055860D02*
X0383610Y0053008D01*
X0248864Y0082076D02*
X0246962Y0082076D01*
X0248389Y0083502D01*
X0248389Y0080650D01*
X0245964Y0080650D02*
X0245013Y0081601D01*
X0244538Y0080650D02*
X0244062Y0081125D01*
X0244062Y0083027D01*
X0244538Y0083502D01*
X0245488Y0083502D01*
X0245964Y0083027D01*
X0245964Y0081125D01*
X0245488Y0080650D01*
X0244538Y0080650D01*
X0031801Y0078790D02*
X0031326Y0079266D01*
X0030375Y0079266D01*
X0029899Y0078790D01*
X0028901Y0078790D02*
X0028425Y0079266D01*
X0027475Y0079266D01*
X0026999Y0078790D01*
X0026999Y0076889D01*
X0027475Y0076414D01*
X0028425Y0076414D01*
X0028901Y0076889D01*
X0029899Y0076414D02*
X0031801Y0078315D01*
X0031801Y0078790D01*
X0031801Y0076414D02*
X0029899Y0076414D01*
D11*
X0034201Y0073642D02*
X0034201Y0081642D01*
X0034203Y0081702D01*
X0034208Y0081763D01*
X0034217Y0081822D01*
X0034230Y0081881D01*
X0034246Y0081940D01*
X0034266Y0081997D01*
X0034289Y0082052D01*
X0034316Y0082107D01*
X0034345Y0082159D01*
X0034378Y0082210D01*
X0034414Y0082259D01*
X0034452Y0082305D01*
X0034494Y0082349D01*
X0034538Y0082391D01*
X0034584Y0082429D01*
X0034633Y0082465D01*
X0034684Y0082498D01*
X0034736Y0082527D01*
X0034791Y0082554D01*
X0034846Y0082577D01*
X0034903Y0082597D01*
X0034962Y0082613D01*
X0035021Y0082626D01*
X0035080Y0082635D01*
X0035141Y0082640D01*
X0035201Y0082642D01*
X0052201Y0082642D01*
X0052261Y0082640D01*
X0052322Y0082635D01*
X0052381Y0082626D01*
X0052440Y0082613D01*
X0052499Y0082597D01*
X0052556Y0082577D01*
X0052611Y0082554D01*
X0052666Y0082527D01*
X0052718Y0082498D01*
X0052769Y0082465D01*
X0052818Y0082429D01*
X0052864Y0082391D01*
X0052908Y0082349D01*
X0052950Y0082305D01*
X0052988Y0082259D01*
X0053024Y0082210D01*
X0053057Y0082159D01*
X0053086Y0082107D01*
X0053113Y0082052D01*
X0053136Y0081997D01*
X0053156Y0081940D01*
X0053172Y0081881D01*
X0053185Y0081822D01*
X0053194Y0081763D01*
X0053199Y0081702D01*
X0053201Y0081642D01*
X0053201Y0073642D01*
X0053199Y0073582D01*
X0053194Y0073521D01*
X0053185Y0073462D01*
X0053172Y0073403D01*
X0053156Y0073344D01*
X0053136Y0073287D01*
X0053113Y0073232D01*
X0053086Y0073177D01*
X0053057Y0073125D01*
X0053024Y0073074D01*
X0052988Y0073025D01*
X0052950Y0072979D01*
X0052908Y0072935D01*
X0052864Y0072893D01*
X0052818Y0072855D01*
X0052769Y0072819D01*
X0052718Y0072786D01*
X0052666Y0072757D01*
X0052611Y0072730D01*
X0052556Y0072707D01*
X0052499Y0072687D01*
X0052440Y0072671D01*
X0052381Y0072658D01*
X0052322Y0072649D01*
X0052261Y0072644D01*
X0052201Y0072642D01*
X0035201Y0072642D01*
X0035141Y0072644D01*
X0035080Y0072649D01*
X0035021Y0072658D01*
X0034962Y0072671D01*
X0034903Y0072687D01*
X0034846Y0072707D01*
X0034791Y0072730D01*
X0034736Y0072757D01*
X0034684Y0072786D01*
X0034633Y0072819D01*
X0034584Y0072855D01*
X0034538Y0072893D01*
X0034494Y0072935D01*
X0034452Y0072979D01*
X0034414Y0073025D01*
X0034378Y0073074D01*
X0034345Y0073125D01*
X0034316Y0073177D01*
X0034289Y0073232D01*
X0034266Y0073287D01*
X0034246Y0073344D01*
X0034230Y0073403D01*
X0034217Y0073462D01*
X0034208Y0073521D01*
X0034203Y0073582D01*
X0034201Y0073642D01*
X0042201Y0077642D02*
X0042701Y0077642D01*
X0044701Y0077642D02*
X0045201Y0077642D01*
X0072555Y0080209D02*
X0072555Y0074209D01*
X0072557Y0074149D01*
X0072562Y0074088D01*
X0072571Y0074029D01*
X0072584Y0073970D01*
X0072600Y0073911D01*
X0072620Y0073854D01*
X0072643Y0073799D01*
X0072670Y0073744D01*
X0072699Y0073692D01*
X0072732Y0073641D01*
X0072768Y0073592D01*
X0072806Y0073546D01*
X0072848Y0073502D01*
X0072892Y0073460D01*
X0072938Y0073422D01*
X0072987Y0073386D01*
X0073038Y0073353D01*
X0073090Y0073324D01*
X0073145Y0073297D01*
X0073200Y0073274D01*
X0073257Y0073254D01*
X0073316Y0073238D01*
X0073375Y0073225D01*
X0073434Y0073216D01*
X0073495Y0073211D01*
X0073555Y0073209D01*
X0075055Y0073209D01*
X0075555Y0073709D01*
X0089555Y0073709D01*
X0090055Y0073209D01*
X0091555Y0073209D01*
X0091615Y0073211D01*
X0091676Y0073216D01*
X0091735Y0073225D01*
X0091794Y0073238D01*
X0091853Y0073254D01*
X0091910Y0073274D01*
X0091965Y0073297D01*
X0092020Y0073324D01*
X0092072Y0073353D01*
X0092123Y0073386D01*
X0092172Y0073422D01*
X0092218Y0073460D01*
X0092262Y0073502D01*
X0092304Y0073546D01*
X0092342Y0073592D01*
X0092378Y0073641D01*
X0092411Y0073692D01*
X0092440Y0073744D01*
X0092467Y0073799D01*
X0092490Y0073854D01*
X0092510Y0073911D01*
X0092526Y0073970D01*
X0092539Y0074029D01*
X0092548Y0074088D01*
X0092553Y0074149D01*
X0092555Y0074209D01*
X0092555Y0080209D01*
X0092553Y0080269D01*
X0092548Y0080330D01*
X0092539Y0080389D01*
X0092526Y0080448D01*
X0092510Y0080507D01*
X0092490Y0080564D01*
X0092467Y0080619D01*
X0092440Y0080674D01*
X0092411Y0080726D01*
X0092378Y0080777D01*
X0092342Y0080826D01*
X0092304Y0080872D01*
X0092262Y0080916D01*
X0092218Y0080958D01*
X0092172Y0080996D01*
X0092123Y0081032D01*
X0092072Y0081065D01*
X0092020Y0081094D01*
X0091965Y0081121D01*
X0091910Y0081144D01*
X0091853Y0081164D01*
X0091794Y0081180D01*
X0091735Y0081193D01*
X0091676Y0081202D01*
X0091615Y0081207D01*
X0091555Y0081209D01*
X0090055Y0081209D01*
X0089555Y0080709D01*
X0075555Y0080709D01*
X0075055Y0081209D01*
X0073555Y0081209D01*
X0073495Y0081207D01*
X0073434Y0081202D01*
X0073375Y0081193D01*
X0073316Y0081180D01*
X0073257Y0081164D01*
X0073200Y0081144D01*
X0073145Y0081121D01*
X0073090Y0081094D01*
X0073038Y0081065D01*
X0072987Y0081032D01*
X0072938Y0080996D01*
X0072892Y0080958D01*
X0072848Y0080916D01*
X0072806Y0080872D01*
X0072768Y0080826D01*
X0072732Y0080777D01*
X0072699Y0080726D01*
X0072670Y0080674D01*
X0072643Y0080619D01*
X0072620Y0080564D01*
X0072600Y0080507D01*
X0072584Y0080448D01*
X0072571Y0080389D01*
X0072562Y0080330D01*
X0072557Y0080269D01*
X0072555Y0080209D01*
X0073720Y0068169D02*
X0075220Y0068169D01*
X0075720Y0067669D01*
X0089720Y0067669D01*
X0090220Y0068169D01*
X0091720Y0068169D01*
X0091780Y0068167D01*
X0091841Y0068162D01*
X0091900Y0068153D01*
X0091959Y0068140D01*
X0092018Y0068124D01*
X0092075Y0068104D01*
X0092130Y0068081D01*
X0092185Y0068054D01*
X0092237Y0068025D01*
X0092288Y0067992D01*
X0092337Y0067956D01*
X0092383Y0067918D01*
X0092427Y0067876D01*
X0092469Y0067832D01*
X0092507Y0067786D01*
X0092543Y0067737D01*
X0092576Y0067686D01*
X0092605Y0067634D01*
X0092632Y0067579D01*
X0092655Y0067524D01*
X0092675Y0067467D01*
X0092691Y0067408D01*
X0092704Y0067349D01*
X0092713Y0067290D01*
X0092718Y0067229D01*
X0092720Y0067169D01*
X0092720Y0061169D01*
X0092718Y0061109D01*
X0092713Y0061048D01*
X0092704Y0060989D01*
X0092691Y0060930D01*
X0092675Y0060871D01*
X0092655Y0060814D01*
X0092632Y0060759D01*
X0092605Y0060704D01*
X0092576Y0060652D01*
X0092543Y0060601D01*
X0092507Y0060552D01*
X0092469Y0060506D01*
X0092427Y0060462D01*
X0092383Y0060420D01*
X0092337Y0060382D01*
X0092288Y0060346D01*
X0092237Y0060313D01*
X0092185Y0060284D01*
X0092130Y0060257D01*
X0092075Y0060234D01*
X0092018Y0060214D01*
X0091959Y0060198D01*
X0091900Y0060185D01*
X0091841Y0060176D01*
X0091780Y0060171D01*
X0091720Y0060169D01*
X0090220Y0060169D01*
X0089720Y0060669D01*
X0075720Y0060669D01*
X0075220Y0060169D01*
X0073720Y0060169D01*
X0073660Y0060171D01*
X0073599Y0060176D01*
X0073540Y0060185D01*
X0073481Y0060198D01*
X0073422Y0060214D01*
X0073365Y0060234D01*
X0073310Y0060257D01*
X0073255Y0060284D01*
X0073203Y0060313D01*
X0073152Y0060346D01*
X0073103Y0060382D01*
X0073057Y0060420D01*
X0073013Y0060462D01*
X0072971Y0060506D01*
X0072933Y0060552D01*
X0072897Y0060601D01*
X0072864Y0060652D01*
X0072835Y0060704D01*
X0072808Y0060759D01*
X0072785Y0060814D01*
X0072765Y0060871D01*
X0072749Y0060930D01*
X0072736Y0060989D01*
X0072727Y0061048D01*
X0072722Y0061109D01*
X0072720Y0061169D01*
X0072720Y0067169D01*
X0072722Y0067229D01*
X0072727Y0067290D01*
X0072736Y0067349D01*
X0072749Y0067408D01*
X0072765Y0067467D01*
X0072785Y0067524D01*
X0072808Y0067579D01*
X0072835Y0067634D01*
X0072864Y0067686D01*
X0072897Y0067737D01*
X0072933Y0067786D01*
X0072971Y0067832D01*
X0073013Y0067876D01*
X0073057Y0067918D01*
X0073103Y0067956D01*
X0073152Y0067992D01*
X0073203Y0068025D01*
X0073255Y0068054D01*
X0073310Y0068081D01*
X0073365Y0068104D01*
X0073422Y0068124D01*
X0073481Y0068140D01*
X0073540Y0068153D01*
X0073599Y0068162D01*
X0073660Y0068167D01*
X0073720Y0068169D01*
X0111988Y0082850D02*
X0119488Y0082850D01*
X0119490Y0082724D01*
X0119496Y0082599D01*
X0119506Y0082474D01*
X0119520Y0082349D01*
X0119537Y0082224D01*
X0119559Y0082100D01*
X0119584Y0081977D01*
X0119614Y0081855D01*
X0119647Y0081734D01*
X0119684Y0081614D01*
X0119724Y0081495D01*
X0119769Y0081378D01*
X0119817Y0081261D01*
X0119869Y0081147D01*
X0119924Y0081034D01*
X0119983Y0080923D01*
X0120045Y0080814D01*
X0120111Y0080707D01*
X0120180Y0080602D01*
X0120252Y0080499D01*
X0120327Y0080398D01*
X0120406Y0080300D01*
X0120488Y0080205D01*
X0120572Y0080112D01*
X0120660Y0080022D01*
X0120750Y0079934D01*
X0120843Y0079850D01*
X0120938Y0079768D01*
X0121036Y0079689D01*
X0121137Y0079614D01*
X0121240Y0079542D01*
X0121345Y0079473D01*
X0121452Y0079407D01*
X0121561Y0079345D01*
X0121672Y0079286D01*
X0121785Y0079231D01*
X0121899Y0079179D01*
X0122016Y0079131D01*
X0122133Y0079086D01*
X0122252Y0079046D01*
X0122372Y0079009D01*
X0122493Y0078976D01*
X0122615Y0078946D01*
X0122738Y0078921D01*
X0122862Y0078899D01*
X0122987Y0078882D01*
X0123112Y0078868D01*
X0123237Y0078858D01*
X0123362Y0078852D01*
X0123488Y0078850D01*
X0123614Y0078852D01*
X0123739Y0078858D01*
X0123864Y0078868D01*
X0123989Y0078882D01*
X0124114Y0078899D01*
X0124238Y0078921D01*
X0124361Y0078946D01*
X0124483Y0078976D01*
X0124604Y0079009D01*
X0124724Y0079046D01*
X0124843Y0079086D01*
X0124960Y0079131D01*
X0125077Y0079179D01*
X0125191Y0079231D01*
X0125304Y0079286D01*
X0125415Y0079345D01*
X0125524Y0079407D01*
X0125631Y0079473D01*
X0125736Y0079542D01*
X0125839Y0079614D01*
X0125940Y0079689D01*
X0126038Y0079768D01*
X0126133Y0079850D01*
X0126226Y0079934D01*
X0126316Y0080022D01*
X0126404Y0080112D01*
X0126488Y0080205D01*
X0126570Y0080300D01*
X0126649Y0080398D01*
X0126724Y0080499D01*
X0126796Y0080602D01*
X0126865Y0080707D01*
X0126931Y0080814D01*
X0126993Y0080923D01*
X0127052Y0081034D01*
X0127107Y0081147D01*
X0127159Y0081261D01*
X0127207Y0081378D01*
X0127252Y0081495D01*
X0127292Y0081614D01*
X0127329Y0081734D01*
X0127362Y0081855D01*
X0127392Y0081977D01*
X0127417Y0082100D01*
X0127439Y0082224D01*
X0127456Y0082349D01*
X0127470Y0082474D01*
X0127480Y0082599D01*
X0127486Y0082724D01*
X0127488Y0082850D01*
X0134988Y0082850D01*
X0134988Y0042850D01*
X0111988Y0042850D01*
X0111988Y0082850D01*
X0153476Y0083016D02*
X0181976Y0083016D01*
X0182074Y0083014D01*
X0182172Y0083008D01*
X0182270Y0082999D01*
X0182367Y0082985D01*
X0182464Y0082968D01*
X0182560Y0082947D01*
X0182655Y0082922D01*
X0182749Y0082894D01*
X0182841Y0082861D01*
X0182933Y0082826D01*
X0183023Y0082786D01*
X0183111Y0082744D01*
X0183198Y0082697D01*
X0183282Y0082648D01*
X0183365Y0082595D01*
X0183445Y0082539D01*
X0183524Y0082479D01*
X0183600Y0082417D01*
X0183673Y0082352D01*
X0183744Y0082284D01*
X0183812Y0082213D01*
X0183877Y0082140D01*
X0183939Y0082064D01*
X0183999Y0081985D01*
X0184055Y0081905D01*
X0184108Y0081822D01*
X0184157Y0081738D01*
X0184204Y0081651D01*
X0184246Y0081563D01*
X0184286Y0081473D01*
X0184321Y0081381D01*
X0184354Y0081289D01*
X0184382Y0081195D01*
X0184407Y0081100D01*
X0184428Y0081004D01*
X0184445Y0080907D01*
X0184459Y0080810D01*
X0184468Y0080712D01*
X0184474Y0080614D01*
X0184476Y0080516D01*
X0184476Y0065516D01*
X0184474Y0065418D01*
X0184468Y0065320D01*
X0184459Y0065222D01*
X0184445Y0065125D01*
X0184428Y0065028D01*
X0184407Y0064932D01*
X0184382Y0064837D01*
X0184354Y0064743D01*
X0184321Y0064651D01*
X0184286Y0064559D01*
X0184246Y0064469D01*
X0184204Y0064381D01*
X0184157Y0064294D01*
X0184108Y0064210D01*
X0184055Y0064127D01*
X0183999Y0064047D01*
X0183939Y0063968D01*
X0183877Y0063892D01*
X0183812Y0063819D01*
X0183744Y0063748D01*
X0183673Y0063680D01*
X0183600Y0063615D01*
X0183524Y0063553D01*
X0183445Y0063493D01*
X0183365Y0063437D01*
X0183282Y0063384D01*
X0183198Y0063335D01*
X0183111Y0063288D01*
X0183023Y0063246D01*
X0182933Y0063206D01*
X0182841Y0063171D01*
X0182749Y0063138D01*
X0182655Y0063110D01*
X0182560Y0063085D01*
X0182464Y0063064D01*
X0182367Y0063047D01*
X0182270Y0063033D01*
X0182172Y0063024D01*
X0182074Y0063018D01*
X0181976Y0063016D01*
X0153476Y0063016D01*
X0153232Y0063019D01*
X0152989Y0063028D01*
X0152746Y0063043D01*
X0152503Y0063063D01*
X0152261Y0063090D01*
X0152020Y0063123D01*
X0151780Y0063161D01*
X0151540Y0063205D01*
X0151302Y0063255D01*
X0151065Y0063311D01*
X0150829Y0063373D01*
X0150595Y0063440D01*
X0150363Y0063513D01*
X0150132Y0063592D01*
X0149904Y0063676D01*
X0149677Y0063766D01*
X0149453Y0063861D01*
X0149231Y0063962D01*
X0149012Y0064068D01*
X0148796Y0064179D01*
X0148582Y0064296D01*
X0148371Y0064417D01*
X0148163Y0064544D01*
X0147958Y0064676D01*
X0147757Y0064813D01*
X0147559Y0064955D01*
X0147364Y0065101D01*
X0147173Y0065252D01*
X0146986Y0065408D01*
X0146803Y0065568D01*
X0146623Y0065733D01*
X0146448Y0065902D01*
X0146277Y0066075D01*
X0146110Y0066253D01*
X0145948Y0066434D01*
X0145790Y0066619D01*
X0145636Y0066808D01*
X0145487Y0067001D01*
X0145343Y0067197D01*
X0145204Y0067397D01*
X0145069Y0067600D01*
X0144940Y0067807D01*
X0144816Y0068016D01*
X0144697Y0068228D01*
X0144583Y0068444D01*
X0144474Y0068661D01*
X0144371Y0068882D01*
X0144273Y0069105D01*
X0144180Y0069330D01*
X0144093Y0069558D01*
X0144012Y0069787D01*
X0143936Y0070019D01*
X0143866Y0070252D01*
X0143801Y0070487D01*
X0143742Y0070723D01*
X0143689Y0070961D01*
X0143642Y0071200D01*
X0143601Y0071440D01*
X0143566Y0071681D01*
X0143536Y0071922D01*
X0143512Y0072165D01*
X0143495Y0072408D01*
X0143483Y0072651D01*
X0143477Y0072894D01*
X0143477Y0073138D01*
X0143483Y0073381D01*
X0143495Y0073624D01*
X0143512Y0073867D01*
X0143536Y0074110D01*
X0143566Y0074351D01*
X0143601Y0074592D01*
X0143642Y0074832D01*
X0143689Y0075071D01*
X0143742Y0075309D01*
X0143801Y0075545D01*
X0143866Y0075780D01*
X0143936Y0076013D01*
X0144012Y0076245D01*
X0144093Y0076474D01*
X0144180Y0076702D01*
X0144273Y0076927D01*
X0144371Y0077150D01*
X0144474Y0077371D01*
X0144583Y0077588D01*
X0144697Y0077804D01*
X0144816Y0078016D01*
X0144940Y0078225D01*
X0145069Y0078432D01*
X0145204Y0078635D01*
X0145343Y0078835D01*
X0145487Y0079031D01*
X0145636Y0079224D01*
X0145790Y0079413D01*
X0145948Y0079598D01*
X0146110Y0079779D01*
X0146277Y0079957D01*
X0146448Y0080130D01*
X0146623Y0080299D01*
X0146803Y0080464D01*
X0146986Y0080624D01*
X0147173Y0080780D01*
X0147364Y0080931D01*
X0147559Y0081077D01*
X0147757Y0081219D01*
X0147958Y0081356D01*
X0148163Y0081488D01*
X0148371Y0081615D01*
X0148582Y0081736D01*
X0148796Y0081853D01*
X0149012Y0081964D01*
X0149231Y0082070D01*
X0149453Y0082171D01*
X0149677Y0082266D01*
X0149904Y0082356D01*
X0150132Y0082440D01*
X0150363Y0082519D01*
X0150595Y0082592D01*
X0150829Y0082659D01*
X0151065Y0082721D01*
X0151302Y0082777D01*
X0151540Y0082827D01*
X0151780Y0082871D01*
X0152020Y0082909D01*
X0152261Y0082942D01*
X0152503Y0082969D01*
X0152746Y0082989D01*
X0152989Y0083004D01*
X0153232Y0083013D01*
X0153476Y0083016D01*
X0174976Y0071816D02*
X0174976Y0070516D01*
X0178476Y0070516D01*
X0181976Y0070516D01*
X0181976Y0071816D01*
X0174976Y0071816D01*
X0174976Y0068516D02*
X0174976Y0065516D01*
X0173476Y0067016D02*
X0176476Y0067016D01*
X0178476Y0068016D02*
X0178476Y0070516D01*
X0178476Y0074516D02*
X0178476Y0076516D01*
X0203634Y0078315D02*
X0203634Y0072315D01*
X0203636Y0072255D01*
X0203641Y0072194D01*
X0203650Y0072135D01*
X0203663Y0072076D01*
X0203679Y0072017D01*
X0203699Y0071960D01*
X0203722Y0071905D01*
X0203749Y0071850D01*
X0203778Y0071798D01*
X0203811Y0071747D01*
X0203847Y0071698D01*
X0203885Y0071652D01*
X0203927Y0071608D01*
X0203971Y0071566D01*
X0204017Y0071528D01*
X0204066Y0071492D01*
X0204117Y0071459D01*
X0204169Y0071430D01*
X0204224Y0071403D01*
X0204279Y0071380D01*
X0204336Y0071360D01*
X0204395Y0071344D01*
X0204454Y0071331D01*
X0204513Y0071322D01*
X0204574Y0071317D01*
X0204634Y0071315D01*
X0206134Y0071315D01*
X0206634Y0071815D01*
X0220634Y0071815D01*
X0221134Y0071315D01*
X0222634Y0071315D01*
X0222694Y0071317D01*
X0222755Y0071322D01*
X0222814Y0071331D01*
X0222873Y0071344D01*
X0222932Y0071360D01*
X0222989Y0071380D01*
X0223044Y0071403D01*
X0223099Y0071430D01*
X0223151Y0071459D01*
X0223202Y0071492D01*
X0223251Y0071528D01*
X0223297Y0071566D01*
X0223341Y0071608D01*
X0223383Y0071652D01*
X0223421Y0071698D01*
X0223457Y0071747D01*
X0223490Y0071798D01*
X0223519Y0071850D01*
X0223546Y0071905D01*
X0223569Y0071960D01*
X0223589Y0072017D01*
X0223605Y0072076D01*
X0223618Y0072135D01*
X0223627Y0072194D01*
X0223632Y0072255D01*
X0223634Y0072315D01*
X0223634Y0078315D01*
X0223632Y0078375D01*
X0223627Y0078436D01*
X0223618Y0078495D01*
X0223605Y0078554D01*
X0223589Y0078613D01*
X0223569Y0078670D01*
X0223546Y0078725D01*
X0223519Y0078780D01*
X0223490Y0078832D01*
X0223457Y0078883D01*
X0223421Y0078932D01*
X0223383Y0078978D01*
X0223341Y0079022D01*
X0223297Y0079064D01*
X0223251Y0079102D01*
X0223202Y0079138D01*
X0223151Y0079171D01*
X0223099Y0079200D01*
X0223044Y0079227D01*
X0222989Y0079250D01*
X0222932Y0079270D01*
X0222873Y0079286D01*
X0222814Y0079299D01*
X0222755Y0079308D01*
X0222694Y0079313D01*
X0222634Y0079315D01*
X0221134Y0079315D01*
X0220634Y0078815D01*
X0206634Y0078815D01*
X0206134Y0079315D01*
X0204634Y0079315D01*
X0204574Y0079313D01*
X0204513Y0079308D01*
X0204454Y0079299D01*
X0204395Y0079286D01*
X0204336Y0079270D01*
X0204279Y0079250D01*
X0204224Y0079227D01*
X0204169Y0079200D01*
X0204117Y0079171D01*
X0204066Y0079138D01*
X0204017Y0079102D01*
X0203971Y0079064D01*
X0203927Y0079022D01*
X0203885Y0078978D01*
X0203847Y0078932D01*
X0203811Y0078883D01*
X0203778Y0078832D01*
X0203749Y0078780D01*
X0203722Y0078725D01*
X0203699Y0078670D01*
X0203679Y0078613D01*
X0203663Y0078554D01*
X0203650Y0078495D01*
X0203641Y0078436D01*
X0203636Y0078375D01*
X0203634Y0078315D01*
X0180000Y0054697D02*
X0178500Y0054697D01*
X0178000Y0054197D01*
X0164000Y0054197D01*
X0163500Y0054697D01*
X0162000Y0054697D01*
X0161940Y0054695D01*
X0161879Y0054690D01*
X0161820Y0054681D01*
X0161761Y0054668D01*
X0161702Y0054652D01*
X0161645Y0054632D01*
X0161590Y0054609D01*
X0161535Y0054582D01*
X0161483Y0054553D01*
X0161432Y0054520D01*
X0161383Y0054484D01*
X0161337Y0054446D01*
X0161293Y0054404D01*
X0161251Y0054360D01*
X0161213Y0054314D01*
X0161177Y0054265D01*
X0161144Y0054214D01*
X0161115Y0054162D01*
X0161088Y0054107D01*
X0161065Y0054052D01*
X0161045Y0053995D01*
X0161029Y0053936D01*
X0161016Y0053877D01*
X0161007Y0053818D01*
X0161002Y0053757D01*
X0161000Y0053697D01*
X0161000Y0047697D01*
X0161002Y0047637D01*
X0161007Y0047576D01*
X0161016Y0047517D01*
X0161029Y0047458D01*
X0161045Y0047399D01*
X0161065Y0047342D01*
X0161088Y0047287D01*
X0161115Y0047232D01*
X0161144Y0047180D01*
X0161177Y0047129D01*
X0161213Y0047080D01*
X0161251Y0047034D01*
X0161293Y0046990D01*
X0161337Y0046948D01*
X0161383Y0046910D01*
X0161432Y0046874D01*
X0161483Y0046841D01*
X0161535Y0046812D01*
X0161590Y0046785D01*
X0161645Y0046762D01*
X0161702Y0046742D01*
X0161761Y0046726D01*
X0161820Y0046713D01*
X0161879Y0046704D01*
X0161940Y0046699D01*
X0162000Y0046697D01*
X0163500Y0046697D01*
X0164000Y0047197D01*
X0178000Y0047197D01*
X0178500Y0046697D01*
X0180000Y0046697D01*
X0180060Y0046699D01*
X0180121Y0046704D01*
X0180180Y0046713D01*
X0180239Y0046726D01*
X0180298Y0046742D01*
X0180355Y0046762D01*
X0180410Y0046785D01*
X0180465Y0046812D01*
X0180517Y0046841D01*
X0180568Y0046874D01*
X0180617Y0046910D01*
X0180663Y0046948D01*
X0180707Y0046990D01*
X0180749Y0047034D01*
X0180787Y0047080D01*
X0180823Y0047129D01*
X0180856Y0047180D01*
X0180885Y0047232D01*
X0180912Y0047287D01*
X0180935Y0047342D01*
X0180955Y0047399D01*
X0180971Y0047458D01*
X0180984Y0047517D01*
X0180993Y0047576D01*
X0180998Y0047637D01*
X0181000Y0047697D01*
X0181000Y0053697D01*
X0180998Y0053757D01*
X0180993Y0053818D01*
X0180984Y0053877D01*
X0180971Y0053936D01*
X0180955Y0053995D01*
X0180935Y0054052D01*
X0180912Y0054107D01*
X0180885Y0054162D01*
X0180856Y0054214D01*
X0180823Y0054265D01*
X0180787Y0054314D01*
X0180749Y0054360D01*
X0180707Y0054404D01*
X0180663Y0054446D01*
X0180617Y0054484D01*
X0180568Y0054520D01*
X0180517Y0054553D01*
X0180465Y0054582D01*
X0180410Y0054609D01*
X0180355Y0054632D01*
X0180298Y0054652D01*
X0180239Y0054668D01*
X0180180Y0054681D01*
X0180121Y0054690D01*
X0180060Y0054695D01*
X0180000Y0054697D01*
X0179961Y0042008D02*
X0178461Y0042008D01*
X0177961Y0041508D01*
X0163961Y0041508D01*
X0163461Y0042008D01*
X0161961Y0042008D01*
X0161901Y0042006D01*
X0161840Y0042001D01*
X0161781Y0041992D01*
X0161722Y0041979D01*
X0161663Y0041963D01*
X0161606Y0041943D01*
X0161551Y0041920D01*
X0161496Y0041893D01*
X0161444Y0041864D01*
X0161393Y0041831D01*
X0161344Y0041795D01*
X0161298Y0041757D01*
X0161254Y0041715D01*
X0161212Y0041671D01*
X0161174Y0041625D01*
X0161138Y0041576D01*
X0161105Y0041525D01*
X0161076Y0041473D01*
X0161049Y0041418D01*
X0161026Y0041363D01*
X0161006Y0041306D01*
X0160990Y0041247D01*
X0160977Y0041188D01*
X0160968Y0041129D01*
X0160963Y0041068D01*
X0160961Y0041008D01*
X0160961Y0035008D01*
X0160963Y0034948D01*
X0160968Y0034887D01*
X0160977Y0034828D01*
X0160990Y0034769D01*
X0161006Y0034710D01*
X0161026Y0034653D01*
X0161049Y0034598D01*
X0161076Y0034543D01*
X0161105Y0034491D01*
X0161138Y0034440D01*
X0161174Y0034391D01*
X0161212Y0034345D01*
X0161254Y0034301D01*
X0161298Y0034259D01*
X0161344Y0034221D01*
X0161393Y0034185D01*
X0161444Y0034152D01*
X0161496Y0034123D01*
X0161551Y0034096D01*
X0161606Y0034073D01*
X0161663Y0034053D01*
X0161722Y0034037D01*
X0161781Y0034024D01*
X0161840Y0034015D01*
X0161901Y0034010D01*
X0161961Y0034008D01*
X0163461Y0034008D01*
X0163961Y0034508D01*
X0177961Y0034508D01*
X0178461Y0034008D01*
X0179961Y0034008D01*
X0180021Y0034010D01*
X0180082Y0034015D01*
X0180141Y0034024D01*
X0180200Y0034037D01*
X0180259Y0034053D01*
X0180316Y0034073D01*
X0180371Y0034096D01*
X0180426Y0034123D01*
X0180478Y0034152D01*
X0180529Y0034185D01*
X0180578Y0034221D01*
X0180624Y0034259D01*
X0180668Y0034301D01*
X0180710Y0034345D01*
X0180748Y0034391D01*
X0180784Y0034440D01*
X0180817Y0034491D01*
X0180846Y0034543D01*
X0180873Y0034598D01*
X0180896Y0034653D01*
X0180916Y0034710D01*
X0180932Y0034769D01*
X0180945Y0034828D01*
X0180954Y0034887D01*
X0180959Y0034948D01*
X0180961Y0035008D01*
X0180961Y0041008D01*
X0180959Y0041068D01*
X0180954Y0041129D01*
X0180945Y0041188D01*
X0180932Y0041247D01*
X0180916Y0041306D01*
X0180896Y0041363D01*
X0180873Y0041418D01*
X0180846Y0041473D01*
X0180817Y0041525D01*
X0180784Y0041576D01*
X0180748Y0041625D01*
X0180710Y0041671D01*
X0180668Y0041715D01*
X0180624Y0041757D01*
X0180578Y0041795D01*
X0180529Y0041831D01*
X0180478Y0041864D01*
X0180426Y0041893D01*
X0180371Y0041920D01*
X0180316Y0041943D01*
X0180259Y0041963D01*
X0180200Y0041979D01*
X0180141Y0041992D01*
X0180082Y0042001D01*
X0180021Y0042006D01*
X0179961Y0042008D01*
X0179646Y0027492D02*
X0178146Y0027492D01*
X0177646Y0026992D01*
X0163646Y0026992D01*
X0163146Y0027492D01*
X0161646Y0027492D01*
X0161586Y0027490D01*
X0161525Y0027485D01*
X0161466Y0027476D01*
X0161407Y0027463D01*
X0161348Y0027447D01*
X0161291Y0027427D01*
X0161236Y0027404D01*
X0161181Y0027377D01*
X0161129Y0027348D01*
X0161078Y0027315D01*
X0161029Y0027279D01*
X0160983Y0027241D01*
X0160939Y0027199D01*
X0160897Y0027155D01*
X0160859Y0027109D01*
X0160823Y0027060D01*
X0160790Y0027009D01*
X0160761Y0026957D01*
X0160734Y0026902D01*
X0160711Y0026847D01*
X0160691Y0026790D01*
X0160675Y0026731D01*
X0160662Y0026672D01*
X0160653Y0026613D01*
X0160648Y0026552D01*
X0160646Y0026492D01*
X0160646Y0020492D01*
X0160648Y0020432D01*
X0160653Y0020371D01*
X0160662Y0020312D01*
X0160675Y0020253D01*
X0160691Y0020194D01*
X0160711Y0020137D01*
X0160734Y0020082D01*
X0160761Y0020027D01*
X0160790Y0019975D01*
X0160823Y0019924D01*
X0160859Y0019875D01*
X0160897Y0019829D01*
X0160939Y0019785D01*
X0160983Y0019743D01*
X0161029Y0019705D01*
X0161078Y0019669D01*
X0161129Y0019636D01*
X0161181Y0019607D01*
X0161236Y0019580D01*
X0161291Y0019557D01*
X0161348Y0019537D01*
X0161407Y0019521D01*
X0161466Y0019508D01*
X0161525Y0019499D01*
X0161586Y0019494D01*
X0161646Y0019492D01*
X0163146Y0019492D01*
X0163646Y0019992D01*
X0177646Y0019992D01*
X0178146Y0019492D01*
X0179646Y0019492D01*
X0179706Y0019494D01*
X0179767Y0019499D01*
X0179826Y0019508D01*
X0179885Y0019521D01*
X0179944Y0019537D01*
X0180001Y0019557D01*
X0180056Y0019580D01*
X0180111Y0019607D01*
X0180163Y0019636D01*
X0180214Y0019669D01*
X0180263Y0019705D01*
X0180309Y0019743D01*
X0180353Y0019785D01*
X0180395Y0019829D01*
X0180433Y0019875D01*
X0180469Y0019924D01*
X0180502Y0019975D01*
X0180531Y0020027D01*
X0180558Y0020082D01*
X0180581Y0020137D01*
X0180601Y0020194D01*
X0180617Y0020253D01*
X0180630Y0020312D01*
X0180639Y0020371D01*
X0180644Y0020432D01*
X0180646Y0020492D01*
X0180646Y0026492D01*
X0180644Y0026552D01*
X0180639Y0026613D01*
X0180630Y0026672D01*
X0180617Y0026731D01*
X0180601Y0026790D01*
X0180581Y0026847D01*
X0180558Y0026902D01*
X0180531Y0026957D01*
X0180502Y0027009D01*
X0180469Y0027060D01*
X0180433Y0027109D01*
X0180395Y0027155D01*
X0180353Y0027199D01*
X0180309Y0027241D01*
X0180263Y0027279D01*
X0180214Y0027315D01*
X0180163Y0027348D01*
X0180111Y0027377D01*
X0180056Y0027404D01*
X0180001Y0027427D01*
X0179944Y0027447D01*
X0179885Y0027463D01*
X0179826Y0027476D01*
X0179767Y0027485D01*
X0179706Y0027490D01*
X0179646Y0027492D01*
X0135110Y0033094D02*
X0135110Y0018094D01*
X0135108Y0017996D01*
X0135102Y0017898D01*
X0135093Y0017800D01*
X0135079Y0017703D01*
X0135062Y0017606D01*
X0135041Y0017510D01*
X0135016Y0017415D01*
X0134988Y0017321D01*
X0134955Y0017229D01*
X0134920Y0017137D01*
X0134880Y0017047D01*
X0134838Y0016959D01*
X0134791Y0016872D01*
X0134742Y0016788D01*
X0134689Y0016705D01*
X0134633Y0016625D01*
X0134573Y0016546D01*
X0134511Y0016470D01*
X0134446Y0016397D01*
X0134378Y0016326D01*
X0134307Y0016258D01*
X0134234Y0016193D01*
X0134158Y0016131D01*
X0134079Y0016071D01*
X0133999Y0016015D01*
X0133916Y0015962D01*
X0133832Y0015913D01*
X0133745Y0015866D01*
X0133657Y0015824D01*
X0133567Y0015784D01*
X0133475Y0015749D01*
X0133383Y0015716D01*
X0133289Y0015688D01*
X0133194Y0015663D01*
X0133098Y0015642D01*
X0133001Y0015625D01*
X0132904Y0015611D01*
X0132806Y0015602D01*
X0132708Y0015596D01*
X0132610Y0015594D01*
X0104110Y0015594D01*
X0103866Y0015597D01*
X0103623Y0015606D01*
X0103380Y0015621D01*
X0103137Y0015641D01*
X0102895Y0015668D01*
X0102654Y0015701D01*
X0102414Y0015739D01*
X0102174Y0015783D01*
X0101936Y0015833D01*
X0101699Y0015889D01*
X0101463Y0015951D01*
X0101229Y0016018D01*
X0100997Y0016091D01*
X0100766Y0016170D01*
X0100538Y0016254D01*
X0100311Y0016344D01*
X0100087Y0016439D01*
X0099865Y0016540D01*
X0099646Y0016646D01*
X0099430Y0016757D01*
X0099216Y0016874D01*
X0099005Y0016995D01*
X0098797Y0017122D01*
X0098592Y0017254D01*
X0098391Y0017391D01*
X0098193Y0017533D01*
X0097998Y0017679D01*
X0097807Y0017830D01*
X0097620Y0017986D01*
X0097437Y0018146D01*
X0097257Y0018311D01*
X0097082Y0018480D01*
X0096911Y0018653D01*
X0096744Y0018831D01*
X0096582Y0019012D01*
X0096424Y0019197D01*
X0096270Y0019386D01*
X0096121Y0019579D01*
X0095977Y0019775D01*
X0095838Y0019975D01*
X0095703Y0020178D01*
X0095574Y0020385D01*
X0095450Y0020594D01*
X0095331Y0020806D01*
X0095217Y0021022D01*
X0095108Y0021239D01*
X0095005Y0021460D01*
X0094907Y0021683D01*
X0094814Y0021908D01*
X0094727Y0022136D01*
X0094646Y0022365D01*
X0094570Y0022597D01*
X0094500Y0022830D01*
X0094435Y0023065D01*
X0094376Y0023301D01*
X0094323Y0023539D01*
X0094276Y0023778D01*
X0094235Y0024018D01*
X0094200Y0024259D01*
X0094170Y0024500D01*
X0094146Y0024743D01*
X0094129Y0024986D01*
X0094117Y0025229D01*
X0094111Y0025472D01*
X0094111Y0025716D01*
X0094117Y0025959D01*
X0094129Y0026202D01*
X0094146Y0026445D01*
X0094170Y0026688D01*
X0094200Y0026929D01*
X0094235Y0027170D01*
X0094276Y0027410D01*
X0094323Y0027649D01*
X0094376Y0027887D01*
X0094435Y0028123D01*
X0094500Y0028358D01*
X0094570Y0028591D01*
X0094646Y0028823D01*
X0094727Y0029052D01*
X0094814Y0029280D01*
X0094907Y0029505D01*
X0095005Y0029728D01*
X0095108Y0029949D01*
X0095217Y0030166D01*
X0095331Y0030382D01*
X0095450Y0030594D01*
X0095574Y0030803D01*
X0095703Y0031010D01*
X0095838Y0031213D01*
X0095977Y0031413D01*
X0096121Y0031609D01*
X0096270Y0031802D01*
X0096424Y0031991D01*
X0096582Y0032176D01*
X0096744Y0032357D01*
X0096911Y0032535D01*
X0097082Y0032708D01*
X0097257Y0032877D01*
X0097437Y0033042D01*
X0097620Y0033202D01*
X0097807Y0033358D01*
X0097998Y0033509D01*
X0098193Y0033655D01*
X0098391Y0033797D01*
X0098592Y0033934D01*
X0098797Y0034066D01*
X0099005Y0034193D01*
X0099216Y0034314D01*
X0099430Y0034431D01*
X0099646Y0034542D01*
X0099865Y0034648D01*
X0100087Y0034749D01*
X0100311Y0034844D01*
X0100538Y0034934D01*
X0100766Y0035018D01*
X0100997Y0035097D01*
X0101229Y0035170D01*
X0101463Y0035237D01*
X0101699Y0035299D01*
X0101936Y0035355D01*
X0102174Y0035405D01*
X0102414Y0035449D01*
X0102654Y0035487D01*
X0102895Y0035520D01*
X0103137Y0035547D01*
X0103380Y0035567D01*
X0103623Y0035582D01*
X0103866Y0035591D01*
X0104110Y0035594D01*
X0132610Y0035594D01*
X0132708Y0035592D01*
X0132806Y0035586D01*
X0132904Y0035577D01*
X0133001Y0035563D01*
X0133098Y0035546D01*
X0133194Y0035525D01*
X0133289Y0035500D01*
X0133383Y0035472D01*
X0133475Y0035439D01*
X0133567Y0035404D01*
X0133657Y0035364D01*
X0133745Y0035322D01*
X0133832Y0035275D01*
X0133916Y0035226D01*
X0133999Y0035173D01*
X0134079Y0035117D01*
X0134158Y0035057D01*
X0134234Y0034995D01*
X0134307Y0034930D01*
X0134378Y0034862D01*
X0134446Y0034791D01*
X0134511Y0034718D01*
X0134573Y0034642D01*
X0134633Y0034563D01*
X0134689Y0034483D01*
X0134742Y0034400D01*
X0134791Y0034316D01*
X0134838Y0034229D01*
X0134880Y0034141D01*
X0134920Y0034051D01*
X0134955Y0033959D01*
X0134988Y0033867D01*
X0135016Y0033773D01*
X0135041Y0033678D01*
X0135062Y0033582D01*
X0135079Y0033485D01*
X0135093Y0033388D01*
X0135102Y0033290D01*
X0135108Y0033192D01*
X0135110Y0033094D01*
X0129110Y0029094D02*
X0129110Y0027094D01*
X0125610Y0024394D02*
X0125610Y0023094D01*
X0129110Y0023094D01*
X0132610Y0023094D01*
X0132610Y0024394D01*
X0125610Y0024394D01*
X0129110Y0023094D02*
X0129110Y0020594D01*
X0127110Y0019594D02*
X0124110Y0019594D01*
X0125610Y0018094D02*
X0125610Y0021094D01*
X0239539Y0020126D02*
X0239539Y0026126D01*
X0239541Y0026186D01*
X0239546Y0026247D01*
X0239555Y0026306D01*
X0239568Y0026365D01*
X0239584Y0026424D01*
X0239604Y0026481D01*
X0239627Y0026536D01*
X0239654Y0026591D01*
X0239683Y0026643D01*
X0239716Y0026694D01*
X0239752Y0026743D01*
X0239790Y0026789D01*
X0239832Y0026833D01*
X0239876Y0026875D01*
X0239922Y0026913D01*
X0239971Y0026949D01*
X0240022Y0026982D01*
X0240074Y0027011D01*
X0240129Y0027038D01*
X0240184Y0027061D01*
X0240241Y0027081D01*
X0240300Y0027097D01*
X0240359Y0027110D01*
X0240418Y0027119D01*
X0240479Y0027124D01*
X0240539Y0027126D01*
X0242039Y0027126D01*
X0242539Y0026626D01*
X0256539Y0026626D01*
X0257039Y0027126D01*
X0258539Y0027126D01*
X0258599Y0027124D01*
X0258660Y0027119D01*
X0258719Y0027110D01*
X0258778Y0027097D01*
X0258837Y0027081D01*
X0258894Y0027061D01*
X0258949Y0027038D01*
X0259004Y0027011D01*
X0259056Y0026982D01*
X0259107Y0026949D01*
X0259156Y0026913D01*
X0259202Y0026875D01*
X0259246Y0026833D01*
X0259288Y0026789D01*
X0259326Y0026743D01*
X0259362Y0026694D01*
X0259395Y0026643D01*
X0259424Y0026591D01*
X0259451Y0026536D01*
X0259474Y0026481D01*
X0259494Y0026424D01*
X0259510Y0026365D01*
X0259523Y0026306D01*
X0259532Y0026247D01*
X0259537Y0026186D01*
X0259539Y0026126D01*
X0259539Y0020126D01*
X0259537Y0020066D01*
X0259532Y0020005D01*
X0259523Y0019946D01*
X0259510Y0019887D01*
X0259494Y0019828D01*
X0259474Y0019771D01*
X0259451Y0019716D01*
X0259424Y0019661D01*
X0259395Y0019609D01*
X0259362Y0019558D01*
X0259326Y0019509D01*
X0259288Y0019463D01*
X0259246Y0019419D01*
X0259202Y0019377D01*
X0259156Y0019339D01*
X0259107Y0019303D01*
X0259056Y0019270D01*
X0259004Y0019241D01*
X0258949Y0019214D01*
X0258894Y0019191D01*
X0258837Y0019171D01*
X0258778Y0019155D01*
X0258719Y0019142D01*
X0258660Y0019133D01*
X0258599Y0019128D01*
X0258539Y0019126D01*
X0257039Y0019126D01*
X0256539Y0019626D01*
X0242539Y0019626D01*
X0242039Y0019126D01*
X0240539Y0019126D01*
X0240479Y0019128D01*
X0240418Y0019133D01*
X0240359Y0019142D01*
X0240300Y0019155D01*
X0240241Y0019171D01*
X0240184Y0019191D01*
X0240129Y0019214D01*
X0240074Y0019241D01*
X0240022Y0019270D01*
X0239971Y0019303D01*
X0239922Y0019339D01*
X0239876Y0019377D01*
X0239832Y0019419D01*
X0239790Y0019463D01*
X0239752Y0019509D01*
X0239716Y0019558D01*
X0239683Y0019609D01*
X0239654Y0019661D01*
X0239627Y0019716D01*
X0239604Y0019771D01*
X0239584Y0019828D01*
X0239568Y0019887D01*
X0239555Y0019946D01*
X0239546Y0020005D01*
X0239541Y0020066D01*
X0239539Y0020126D01*
X0240815Y0033386D02*
X0242315Y0033386D01*
X0242815Y0033886D01*
X0256815Y0033886D01*
X0257315Y0033386D01*
X0258815Y0033386D01*
X0258875Y0033388D01*
X0258936Y0033393D01*
X0258995Y0033402D01*
X0259054Y0033415D01*
X0259113Y0033431D01*
X0259170Y0033451D01*
X0259225Y0033474D01*
X0259280Y0033501D01*
X0259332Y0033530D01*
X0259383Y0033563D01*
X0259432Y0033599D01*
X0259478Y0033637D01*
X0259522Y0033679D01*
X0259564Y0033723D01*
X0259602Y0033769D01*
X0259638Y0033818D01*
X0259671Y0033869D01*
X0259700Y0033921D01*
X0259727Y0033976D01*
X0259750Y0034031D01*
X0259770Y0034088D01*
X0259786Y0034147D01*
X0259799Y0034206D01*
X0259808Y0034265D01*
X0259813Y0034326D01*
X0259815Y0034386D01*
X0259815Y0040386D01*
X0259813Y0040446D01*
X0259808Y0040507D01*
X0259799Y0040566D01*
X0259786Y0040625D01*
X0259770Y0040684D01*
X0259750Y0040741D01*
X0259727Y0040796D01*
X0259700Y0040851D01*
X0259671Y0040903D01*
X0259638Y0040954D01*
X0259602Y0041003D01*
X0259564Y0041049D01*
X0259522Y0041093D01*
X0259478Y0041135D01*
X0259432Y0041173D01*
X0259383Y0041209D01*
X0259332Y0041242D01*
X0259280Y0041271D01*
X0259225Y0041298D01*
X0259170Y0041321D01*
X0259113Y0041341D01*
X0259054Y0041357D01*
X0258995Y0041370D01*
X0258936Y0041379D01*
X0258875Y0041384D01*
X0258815Y0041386D01*
X0257315Y0041386D01*
X0256815Y0040886D01*
X0242815Y0040886D01*
X0242315Y0041386D01*
X0240815Y0041386D01*
X0240755Y0041384D01*
X0240694Y0041379D01*
X0240635Y0041370D01*
X0240576Y0041357D01*
X0240517Y0041341D01*
X0240460Y0041321D01*
X0240405Y0041298D01*
X0240350Y0041271D01*
X0240298Y0041242D01*
X0240247Y0041209D01*
X0240198Y0041173D01*
X0240152Y0041135D01*
X0240108Y0041093D01*
X0240066Y0041049D01*
X0240028Y0041003D01*
X0239992Y0040954D01*
X0239959Y0040903D01*
X0239930Y0040851D01*
X0239903Y0040796D01*
X0239880Y0040741D01*
X0239860Y0040684D01*
X0239844Y0040625D01*
X0239831Y0040566D01*
X0239822Y0040507D01*
X0239817Y0040446D01*
X0239815Y0040386D01*
X0239815Y0034386D01*
X0239817Y0034326D01*
X0239822Y0034265D01*
X0239831Y0034206D01*
X0239844Y0034147D01*
X0239860Y0034088D01*
X0239880Y0034031D01*
X0239903Y0033976D01*
X0239930Y0033921D01*
X0239959Y0033869D01*
X0239992Y0033818D01*
X0240028Y0033769D01*
X0240066Y0033723D01*
X0240108Y0033679D01*
X0240152Y0033637D01*
X0240198Y0033599D01*
X0240247Y0033563D01*
X0240298Y0033530D01*
X0240350Y0033501D01*
X0240405Y0033474D01*
X0240460Y0033451D01*
X0240517Y0033431D01*
X0240576Y0033415D01*
X0240635Y0033402D01*
X0240694Y0033393D01*
X0240755Y0033388D01*
X0240815Y0033386D01*
X0240894Y0046752D02*
X0242394Y0046752D01*
X0242894Y0047252D01*
X0256894Y0047252D01*
X0257394Y0046752D01*
X0258894Y0046752D01*
X0258954Y0046754D01*
X0259015Y0046759D01*
X0259074Y0046768D01*
X0259133Y0046781D01*
X0259192Y0046797D01*
X0259249Y0046817D01*
X0259304Y0046840D01*
X0259359Y0046867D01*
X0259411Y0046896D01*
X0259462Y0046929D01*
X0259511Y0046965D01*
X0259557Y0047003D01*
X0259601Y0047045D01*
X0259643Y0047089D01*
X0259681Y0047135D01*
X0259717Y0047184D01*
X0259750Y0047235D01*
X0259779Y0047287D01*
X0259806Y0047342D01*
X0259829Y0047397D01*
X0259849Y0047454D01*
X0259865Y0047513D01*
X0259878Y0047572D01*
X0259887Y0047631D01*
X0259892Y0047692D01*
X0259894Y0047752D01*
X0259894Y0053752D01*
X0259892Y0053812D01*
X0259887Y0053873D01*
X0259878Y0053932D01*
X0259865Y0053991D01*
X0259849Y0054050D01*
X0259829Y0054107D01*
X0259806Y0054162D01*
X0259779Y0054217D01*
X0259750Y0054269D01*
X0259717Y0054320D01*
X0259681Y0054369D01*
X0259643Y0054415D01*
X0259601Y0054459D01*
X0259557Y0054501D01*
X0259511Y0054539D01*
X0259462Y0054575D01*
X0259411Y0054608D01*
X0259359Y0054637D01*
X0259304Y0054664D01*
X0259249Y0054687D01*
X0259192Y0054707D01*
X0259133Y0054723D01*
X0259074Y0054736D01*
X0259015Y0054745D01*
X0258954Y0054750D01*
X0258894Y0054752D01*
X0257394Y0054752D01*
X0256894Y0054252D01*
X0242894Y0054252D01*
X0242394Y0054752D01*
X0240894Y0054752D01*
X0240834Y0054750D01*
X0240773Y0054745D01*
X0240714Y0054736D01*
X0240655Y0054723D01*
X0240596Y0054707D01*
X0240539Y0054687D01*
X0240484Y0054664D01*
X0240429Y0054637D01*
X0240377Y0054608D01*
X0240326Y0054575D01*
X0240277Y0054539D01*
X0240231Y0054501D01*
X0240187Y0054459D01*
X0240145Y0054415D01*
X0240107Y0054369D01*
X0240071Y0054320D01*
X0240038Y0054269D01*
X0240009Y0054217D01*
X0239982Y0054162D01*
X0239959Y0054107D01*
X0239939Y0054050D01*
X0239923Y0053991D01*
X0239910Y0053932D01*
X0239901Y0053873D01*
X0239896Y0053812D01*
X0239894Y0053752D01*
X0239894Y0047752D01*
X0239896Y0047692D01*
X0239901Y0047631D01*
X0239910Y0047572D01*
X0239923Y0047513D01*
X0239939Y0047454D01*
X0239959Y0047397D01*
X0239982Y0047342D01*
X0240009Y0047287D01*
X0240038Y0047235D01*
X0240071Y0047184D01*
X0240107Y0047135D01*
X0240145Y0047089D01*
X0240187Y0047045D01*
X0240231Y0047003D01*
X0240277Y0046965D01*
X0240326Y0046929D01*
X0240377Y0046896D01*
X0240429Y0046867D01*
X0240484Y0046840D01*
X0240539Y0046817D01*
X0240596Y0046797D01*
X0240655Y0046781D01*
X0240714Y0046768D01*
X0240773Y0046759D01*
X0240834Y0046754D01*
X0240894Y0046752D01*
X0281276Y0040319D02*
X0281276Y0034319D01*
X0281278Y0034259D01*
X0281283Y0034198D01*
X0281292Y0034139D01*
X0281305Y0034080D01*
X0281321Y0034021D01*
X0281341Y0033964D01*
X0281364Y0033909D01*
X0281391Y0033854D01*
X0281420Y0033802D01*
X0281453Y0033751D01*
X0281489Y0033702D01*
X0281527Y0033656D01*
X0281569Y0033612D01*
X0281613Y0033570D01*
X0281659Y0033532D01*
X0281708Y0033496D01*
X0281759Y0033463D01*
X0281811Y0033434D01*
X0281866Y0033407D01*
X0281921Y0033384D01*
X0281978Y0033364D01*
X0282037Y0033348D01*
X0282096Y0033335D01*
X0282155Y0033326D01*
X0282216Y0033321D01*
X0282276Y0033319D01*
X0283776Y0033319D01*
X0284276Y0033819D01*
X0298276Y0033819D01*
X0298776Y0033319D01*
X0300276Y0033319D01*
X0300336Y0033321D01*
X0300397Y0033326D01*
X0300456Y0033335D01*
X0300515Y0033348D01*
X0300574Y0033364D01*
X0300631Y0033384D01*
X0300686Y0033407D01*
X0300741Y0033434D01*
X0300793Y0033463D01*
X0300844Y0033496D01*
X0300893Y0033532D01*
X0300939Y0033570D01*
X0300983Y0033612D01*
X0301025Y0033656D01*
X0301063Y0033702D01*
X0301099Y0033751D01*
X0301132Y0033802D01*
X0301161Y0033854D01*
X0301188Y0033909D01*
X0301211Y0033964D01*
X0301231Y0034021D01*
X0301247Y0034080D01*
X0301260Y0034139D01*
X0301269Y0034198D01*
X0301274Y0034259D01*
X0301276Y0034319D01*
X0301276Y0040319D01*
X0301274Y0040379D01*
X0301269Y0040440D01*
X0301260Y0040499D01*
X0301247Y0040558D01*
X0301231Y0040617D01*
X0301211Y0040674D01*
X0301188Y0040729D01*
X0301161Y0040784D01*
X0301132Y0040836D01*
X0301099Y0040887D01*
X0301063Y0040936D01*
X0301025Y0040982D01*
X0300983Y0041026D01*
X0300939Y0041068D01*
X0300893Y0041106D01*
X0300844Y0041142D01*
X0300793Y0041175D01*
X0300741Y0041204D01*
X0300686Y0041231D01*
X0300631Y0041254D01*
X0300574Y0041274D01*
X0300515Y0041290D01*
X0300456Y0041303D01*
X0300397Y0041312D01*
X0300336Y0041317D01*
X0300276Y0041319D01*
X0298776Y0041319D01*
X0298276Y0040819D01*
X0284276Y0040819D01*
X0283776Y0041319D01*
X0282276Y0041319D01*
X0282216Y0041317D01*
X0282155Y0041312D01*
X0282096Y0041303D01*
X0282037Y0041290D01*
X0281978Y0041274D01*
X0281921Y0041254D01*
X0281866Y0041231D01*
X0281811Y0041204D01*
X0281759Y0041175D01*
X0281708Y0041142D01*
X0281659Y0041106D01*
X0281613Y0041068D01*
X0281569Y0041026D01*
X0281527Y0040982D01*
X0281489Y0040936D01*
X0281453Y0040887D01*
X0281420Y0040836D01*
X0281391Y0040784D01*
X0281364Y0040729D01*
X0281341Y0040674D01*
X0281321Y0040617D01*
X0281305Y0040558D01*
X0281292Y0040499D01*
X0281283Y0040440D01*
X0281278Y0040379D01*
X0281276Y0040319D01*
D12*
X0265134Y0061736D02*
X0377929Y0061736D01*
X0377929Y0082996D01*
X0265134Y0082996D01*
X0265134Y0061736D01*
X0266512Y0063114D02*
X0266512Y0081618D01*
X0298008Y0081618D01*
X0298008Y0063114D01*
X0266512Y0063114D01*
X0252839Y0073453D02*
X0251783Y0073453D01*
X0256811Y0068481D02*
X0256699Y0068251D01*
X0256582Y0068024D01*
X0256460Y0067800D01*
X0256332Y0067579D01*
X0256198Y0067362D01*
X0256060Y0067147D01*
X0255916Y0066936D01*
X0255767Y0066729D01*
X0255613Y0066525D01*
X0255455Y0066325D01*
X0255291Y0066129D01*
X0255123Y0065937D01*
X0254950Y0065749D01*
X0254772Y0065565D01*
X0254591Y0065386D01*
X0254404Y0065211D01*
X0254214Y0065041D01*
X0254020Y0064876D01*
X0253821Y0064715D01*
X0253619Y0064559D01*
X0253413Y0064408D01*
X0253203Y0064262D01*
X0252990Y0064122D01*
X0252774Y0063986D01*
X0252554Y0063856D01*
X0252331Y0063731D01*
X0252106Y0063612D01*
X0251877Y0063498D01*
X0251646Y0063390D01*
X0251412Y0063287D01*
X0251176Y0063190D01*
X0250937Y0063099D01*
X0250697Y0063014D01*
X0250454Y0062934D01*
X0250209Y0062861D01*
X0249963Y0062793D01*
X0249715Y0062732D01*
X0249466Y0062677D01*
X0249216Y0062627D01*
X0248964Y0062584D01*
X0248711Y0062547D01*
X0248458Y0062516D01*
X0248204Y0062491D01*
X0247949Y0062472D01*
X0247694Y0062460D01*
X0247439Y0062454D01*
X0247183Y0062454D01*
X0246928Y0062460D01*
X0246673Y0062472D01*
X0246418Y0062491D01*
X0246164Y0062516D01*
X0245911Y0062547D01*
X0245658Y0062584D01*
X0245406Y0062627D01*
X0245156Y0062677D01*
X0244907Y0062732D01*
X0244659Y0062793D01*
X0244413Y0062861D01*
X0244168Y0062934D01*
X0243925Y0063014D01*
X0243685Y0063099D01*
X0243446Y0063190D01*
X0243210Y0063287D01*
X0242976Y0063390D01*
X0242745Y0063498D01*
X0242516Y0063612D01*
X0242291Y0063731D01*
X0242068Y0063856D01*
X0241848Y0063986D01*
X0241632Y0064122D01*
X0241419Y0064262D01*
X0241209Y0064408D01*
X0241003Y0064559D01*
X0240801Y0064715D01*
X0240602Y0064876D01*
X0240408Y0065041D01*
X0240218Y0065211D01*
X0240031Y0065386D01*
X0239850Y0065565D01*
X0239672Y0065749D01*
X0239499Y0065937D01*
X0239331Y0066129D01*
X0239167Y0066325D01*
X0239009Y0066525D01*
X0238855Y0066729D01*
X0238706Y0066936D01*
X0238562Y0067147D01*
X0238424Y0067362D01*
X0238290Y0067579D01*
X0238162Y0067800D01*
X0238040Y0068024D01*
X0237923Y0068251D01*
X0237811Y0068481D01*
X0241783Y0073453D02*
X0242839Y0073453D01*
X0255557Y0079452D02*
X0255703Y0079263D01*
X0255844Y0079070D01*
X0255981Y0078875D01*
X0256114Y0078676D01*
X0256242Y0078474D01*
X0256365Y0078269D01*
X0256484Y0078062D01*
X0256598Y0077852D01*
X0256707Y0077639D01*
X0256811Y0077424D01*
X0255557Y0079453D02*
X0239065Y0079453D01*
X0239065Y0079452D02*
X0238913Y0079255D01*
X0238766Y0079053D01*
X0238623Y0078849D01*
X0238486Y0078641D01*
X0238353Y0078430D01*
X0238225Y0078215D01*
X0238103Y0077998D01*
X0237986Y0077778D01*
X0237874Y0077555D01*
X0237767Y0077330D01*
X0225094Y0068382D02*
X0225094Y0044169D01*
X0224898Y0044169D02*
X0217614Y0036492D01*
X0205606Y0036492D01*
X0198323Y0044366D01*
X0198323Y0068382D01*
X0225094Y0068382D01*
X0180904Y0081769D02*
X0178635Y0081769D01*
X0179770Y0081769D02*
X0179770Y0078366D01*
X0176179Y0078366D02*
X0176179Y0081769D01*
X0177313Y0081769D02*
X0175044Y0081769D01*
X0131538Y0034347D02*
X0129269Y0034347D01*
X0130403Y0034347D02*
X0130403Y0030944D01*
X0126812Y0030944D02*
X0126812Y0034347D01*
X0125678Y0034347D02*
X0127947Y0034347D01*
X0199937Y0031638D02*
X0199937Y0013921D01*
X0209780Y0013921D01*
X0209780Y0011953D01*
X0213717Y0011953D01*
X0213717Y0013921D01*
X0223559Y0013921D01*
X0223559Y0031638D01*
X0199937Y0031638D01*
X0297220Y0072366D02*
X0346039Y0072366D01*
X0346039Y0081421D02*
X0346039Y0062917D01*
X0376748Y0062917D01*
X0376748Y0081421D01*
X0346039Y0081421D01*
D13*
X0178476Y0073866D03*
X0129110Y0026444D03*
D14*
X0062280Y0035811D02*
X0062280Y0061795D01*
X0058248Y0061795D01*
X0050498Y0061795D02*
X0042498Y0061795D01*
X0034748Y0061795D02*
X0030748Y0061795D01*
X0022873Y0061795D02*
X0016217Y0061795D01*
X0042701Y0074642D02*
X0042701Y0077642D01*
X0042701Y0080642D01*
X0044701Y0080642D02*
X0044701Y0077642D01*
X0044701Y0074642D01*
X0054498Y0035811D02*
X0016217Y0035811D01*
X0276413Y0017976D02*
X0281413Y0017976D01*
X0281413Y0022976D01*
X0279913Y0022976D01*
X0281413Y0022976D02*
X0281413Y0027976D01*
X0286413Y0027976D01*
X0291413Y0027976D02*
X0291413Y0022976D01*
X0291413Y0017976D01*
X0281413Y0022976D01*
X0291413Y0027976D01*
X0291413Y0022976D02*
X0292913Y0022976D01*
X0310701Y0023039D02*
X0312201Y0023039D01*
X0312201Y0028039D01*
X0322201Y0023039D01*
X0322201Y0028039D01*
X0327201Y0028039D01*
X0323701Y0023039D02*
X0322201Y0023039D01*
X0322201Y0018039D01*
X0317201Y0018039D01*
X0312201Y0018039D02*
X0312201Y0023039D01*
X0312201Y0018039D02*
X0322201Y0023039D01*
X0337122Y0025122D02*
X0341154Y0025122D01*
X0337122Y0025122D02*
X0337122Y0051106D01*
X0344904Y0051106D02*
X0383185Y0051106D01*
X0383185Y0025122D02*
X0376529Y0025122D01*
X0368654Y0025122D02*
X0364654Y0025122D01*
X0356904Y0025122D02*
X0348904Y0025122D01*
D15*
X0302026Y0037319D03*
X0280526Y0037319D03*
X0260565Y0037386D03*
X0239065Y0037386D03*
X0239144Y0050752D03*
X0260644Y0050752D03*
X0224384Y0075315D03*
X0202884Y0075315D03*
X0181750Y0050697D03*
X0160250Y0050697D03*
X0160211Y0038008D03*
X0181711Y0038008D03*
X0181396Y0023492D03*
X0159896Y0023492D03*
X0238789Y0023126D03*
X0260289Y0023126D03*
X0093470Y0064169D03*
X0071970Y0064169D03*
X0071805Y0077209D03*
X0093305Y0077209D03*
D16*
X0114639Y0068258D02*
X0114639Y0066790D01*
X0115006Y0066423D01*
X0115740Y0066423D01*
X0116107Y0066790D01*
X0116107Y0068258D01*
X0115740Y0068625D01*
X0115006Y0068625D01*
X0114639Y0068258D01*
X0116849Y0068625D02*
X0116849Y0066423D01*
X0116849Y0067157D02*
X0117950Y0067157D01*
X0118317Y0067524D01*
X0118317Y0068258D01*
X0117950Y0068625D01*
X0116849Y0068625D01*
X0119059Y0067891D02*
X0119793Y0068625D01*
X0120527Y0067891D01*
X0120527Y0066423D01*
X0121269Y0066423D02*
X0122737Y0067891D01*
X0122737Y0068258D01*
X0122370Y0068625D01*
X0121636Y0068625D01*
X0121269Y0068258D01*
X0120527Y0067524D02*
X0119059Y0067524D01*
X0119059Y0067891D02*
X0119059Y0066423D01*
X0121269Y0066423D02*
X0122737Y0066423D01*
X0123479Y0066423D02*
X0124947Y0066423D01*
X0124213Y0066423D02*
X0124213Y0068625D01*
X0123479Y0067891D01*
X0125689Y0068258D02*
X0126056Y0068625D01*
X0126790Y0068625D01*
X0127157Y0068258D01*
X0127157Y0067891D01*
X0126790Y0067524D01*
X0127157Y0067157D01*
X0127157Y0066790D01*
X0126790Y0066423D01*
X0126056Y0066423D01*
X0125689Y0066790D01*
X0126423Y0067524D02*
X0126790Y0067524D01*
X0127899Y0067524D02*
X0129367Y0067524D01*
X0130109Y0067157D02*
X0131209Y0067157D01*
X0131576Y0067524D01*
X0131576Y0068258D01*
X0131209Y0068625D01*
X0130109Y0068625D01*
X0130109Y0066423D01*
X0129000Y0066423D02*
X0129000Y0068625D01*
X0127899Y0067524D01*
X0132318Y0067524D02*
X0133786Y0067524D01*
X0133786Y0067891D02*
X0133786Y0066423D01*
X0132318Y0066423D02*
X0132318Y0067891D01*
X0133052Y0068625D01*
X0133786Y0067891D01*
D17*
X0224879Y0022651D02*
X0224879Y0019581D01*
X0223344Y0021116D02*
X0226413Y0021116D01*
X0197413Y0021116D02*
X0194344Y0021116D01*
X0287083Y0041676D02*
X0287083Y0045179D01*
X0288834Y0045179D01*
X0289418Y0044596D01*
X0289418Y0043428D01*
X0288834Y0042844D01*
X0287083Y0042844D01*
X0288250Y0042844D02*
X0289418Y0041676D01*
X0290674Y0041676D02*
X0293009Y0041676D01*
X0291841Y0041676D02*
X0291841Y0045179D01*
X0290674Y0044012D01*
X0294265Y0044012D02*
X0295432Y0045179D01*
X0295432Y0041676D01*
X0294265Y0041676D02*
X0296600Y0041676D01*
X0308641Y0075913D02*
X0310943Y0075913D01*
X0311710Y0076680D01*
X0311710Y0077447D01*
X0310943Y0078215D01*
X0308641Y0078215D01*
X0308641Y0075913D02*
X0308641Y0080517D01*
X0310943Y0080517D01*
X0311710Y0079749D01*
X0311710Y0078982D01*
X0310943Y0078215D01*
X0313245Y0078215D02*
X0316314Y0078215D01*
X0316314Y0078982D02*
X0316314Y0075913D01*
X0316314Y0078982D02*
X0314780Y0080517D01*
X0313245Y0078982D01*
X0313245Y0075913D01*
X0319383Y0075913D02*
X0319383Y0080517D01*
X0317849Y0080517D02*
X0320918Y0080517D01*
X0322453Y0080517D02*
X0325522Y0080517D01*
X0327057Y0080517D02*
X0327057Y0075913D01*
X0330126Y0075913D01*
X0331661Y0075913D02*
X0331661Y0080517D01*
X0333963Y0080517D01*
X0334730Y0079749D01*
X0334730Y0078215D01*
X0333963Y0077447D01*
X0331661Y0077447D01*
X0333195Y0077447D02*
X0334730Y0075913D01*
X0337799Y0075913D02*
X0337799Y0078215D01*
X0339334Y0079749D01*
X0339334Y0080517D01*
X0337799Y0078215D02*
X0336264Y0079749D01*
X0336264Y0080517D01*
X0330126Y0080517D02*
X0327057Y0080517D01*
X0327057Y0078215D02*
X0328591Y0078215D01*
X0323987Y0075913D02*
X0323987Y0080517D01*
X0358050Y0078805D02*
X0361120Y0078805D01*
X0286317Y0078805D02*
X0283247Y0078805D01*
X0284782Y0080340D02*
X0284782Y0077270D01*
M02*
