G75*
G70*
%OFA0B0*%
%FSLAX24Y24*%
%IPPOS*%
%LPD*%
%AMOC8*
5,1,8,0,0,1.08239X$1,22.5*
%
%ADD10C,0.0970*%
%ADD11C,0.0780*%
%ADD12C,0.0820*%
%ADD13C,0.0828*%
%ADD14R,0.0820X0.0820*%
D10*
X008182Y004186D03*
X008197Y010339D03*
D11*
X006257Y014522D03*
X006257Y015522D03*
X006257Y016522D03*
X006257Y017522D03*
X006257Y018522D03*
X006257Y019522D03*
X006257Y020522D03*
X006257Y021522D03*
X010171Y021519D03*
X010171Y020519D03*
X010171Y019519D03*
X010171Y018519D03*
X010171Y017519D03*
X010171Y016519D03*
X010171Y015519D03*
X010171Y014519D03*
X015171Y014519D03*
X015171Y015519D03*
X015171Y016519D03*
X015171Y017519D03*
X015171Y018519D03*
X015171Y019519D03*
X015171Y020519D03*
X015171Y021519D03*
X001257Y021522D03*
X001257Y020522D03*
X001257Y019522D03*
X001257Y018522D03*
X001257Y017522D03*
X001257Y016522D03*
X001257Y015522D03*
X001257Y014522D03*
D12*
X001976Y001756D03*
X001978Y002750D03*
X001978Y003750D03*
X001978Y004750D03*
X001978Y005750D03*
X001978Y006750D03*
X001978Y007750D03*
X001978Y008750D03*
X001978Y009750D03*
X001978Y010750D03*
X001978Y011750D03*
X001978Y012750D03*
X002978Y012750D03*
X002978Y011750D03*
X002978Y010750D03*
X002978Y009750D03*
X002978Y008750D03*
X002978Y007750D03*
X002978Y006750D03*
X002978Y005750D03*
X002978Y004750D03*
X002978Y003750D03*
X002978Y002750D03*
X002976Y001756D03*
X003976Y001756D03*
X003978Y002750D03*
X003978Y003750D03*
X003978Y004750D03*
X003978Y005750D03*
X003978Y006750D03*
X003978Y007750D03*
X003978Y008750D03*
X003978Y009750D03*
X003978Y010750D03*
X003978Y011750D03*
X003978Y012750D03*
X005228Y012750D03*
X005228Y011750D03*
X005228Y010750D03*
X005228Y009750D03*
X005228Y008750D03*
X005228Y007750D03*
X005228Y006750D03*
X005228Y005750D03*
X005228Y004750D03*
X005228Y003750D03*
X005228Y002750D03*
X005228Y001750D03*
X006228Y005750D03*
X010228Y005750D03*
X011228Y005750D03*
X011228Y004750D03*
X011228Y003750D03*
X011228Y002750D03*
X012478Y002750D03*
X012468Y001750D03*
X013468Y001750D03*
X013478Y002750D03*
X013478Y003750D03*
X013478Y004750D03*
X013478Y005750D03*
X013478Y006750D03*
X013478Y007750D03*
X013478Y008750D03*
X013478Y009750D03*
X013478Y010750D03*
X013478Y011750D03*
X013478Y012750D03*
X012478Y012750D03*
X012478Y011750D03*
X012478Y010750D03*
X012478Y009750D03*
X012478Y008750D03*
X012478Y007750D03*
X012478Y006750D03*
X012478Y005750D03*
X012478Y004750D03*
X012478Y003750D03*
X014478Y003750D03*
X014478Y004750D03*
X014478Y005750D03*
X014478Y006750D03*
X014478Y007750D03*
X014478Y008750D03*
X014478Y009750D03*
X014478Y010750D03*
X014478Y011750D03*
X014478Y012750D03*
X011228Y012750D03*
X011228Y011750D03*
X011228Y010750D03*
X011228Y009750D03*
X011228Y008750D03*
X011228Y007750D03*
X011228Y006750D03*
X014478Y002750D03*
X014468Y001750D03*
X010228Y012750D03*
X009228Y012750D03*
X008228Y012750D03*
X007228Y012750D03*
X006228Y012750D03*
X007397Y014732D03*
X007397Y015732D03*
X007397Y016732D03*
X008103Y018000D03*
X008103Y019000D03*
X008103Y020000D03*
X009103Y020000D03*
X009103Y019000D03*
X009103Y018000D03*
X008425Y016730D03*
X008425Y015730D03*
X008425Y014730D03*
X008746Y021528D03*
X007746Y021528D03*
D13*
X005233Y021527D03*
X005233Y020527D03*
X005233Y019527D03*
X005233Y018527D03*
X005233Y017527D03*
X005233Y016527D03*
X003233Y016527D03*
X003233Y017527D03*
X003233Y018527D03*
X003233Y019527D03*
X003233Y020527D03*
X003233Y021527D03*
X011203Y019502D03*
X011203Y018502D03*
X011203Y017502D03*
X011203Y016502D03*
X011203Y015502D03*
X011203Y014502D03*
X013203Y014502D03*
X013203Y015502D03*
X013203Y016502D03*
X013203Y017502D03*
X013203Y018502D03*
X013203Y019502D03*
D14*
X011228Y001750D03*
M02*
