G75*
G70*
%OFA0B0*%
%FSLAX24Y24*%
%IPPOS*%
%LPD*%
%AMOC8*
5,1,8,0,0,1.08239X$1,22.5*
%
%ADD10C,0.0050*%
%ADD11C,0.0040*%
%ADD12C,0.0030*%
%ADD13C,0.0080*%
%ADD14C,0.0060*%
%ADD15C,0.0020*%
%ADD16C,0.0010*%
D10*
X001103Y000125D02*
X001103Y000500D01*
X000757Y014022D02*
X000757Y022022D01*
X006757Y022022D01*
X006757Y014022D01*
X000757Y014022D01*
X002257Y014522D02*
X002257Y015022D01*
X003257Y015022D01*
X003257Y014522D01*
X002257Y014522D01*
X003507Y016522D02*
X003507Y018522D01*
X005507Y018522D01*
X005507Y016522D01*
X003507Y016522D01*
X003257Y020522D02*
X003213Y020524D01*
X003170Y020530D01*
X003128Y020539D01*
X003086Y020552D01*
X003046Y020569D01*
X003007Y020589D01*
X002970Y020612D01*
X002936Y020639D01*
X002903Y020668D01*
X002874Y020701D01*
X002847Y020735D01*
X002824Y020772D01*
X002804Y020811D01*
X002787Y020851D01*
X002774Y020893D01*
X002765Y020935D01*
X002759Y020978D01*
X002757Y021022D01*
X002759Y021066D01*
X002765Y021109D01*
X002774Y021151D01*
X002787Y021193D01*
X002804Y021233D01*
X002824Y021272D01*
X002847Y021309D01*
X002874Y021343D01*
X002903Y021376D01*
X002936Y021405D01*
X002970Y021432D01*
X003007Y021455D01*
X003046Y021475D01*
X003086Y021492D01*
X003128Y021505D01*
X003170Y021514D01*
X003213Y021520D01*
X003257Y021522D01*
X003301Y021520D01*
X003344Y021514D01*
X003386Y021505D01*
X003428Y021492D01*
X003468Y021475D01*
X003507Y021455D01*
X003544Y021432D01*
X003578Y021405D01*
X003611Y021376D01*
X003640Y021343D01*
X003667Y021309D01*
X003690Y021272D01*
X003710Y021233D01*
X003727Y021193D01*
X003740Y021151D01*
X003749Y021109D01*
X003755Y021066D01*
X003757Y021022D01*
X003755Y020978D01*
X003749Y020935D01*
X003740Y020893D01*
X003727Y020851D01*
X003710Y020811D01*
X003690Y020772D01*
X003667Y020735D01*
X003640Y020701D01*
X003611Y020668D01*
X003578Y020639D01*
X003544Y020612D01*
X003507Y020589D01*
X003468Y020569D01*
X003428Y020552D01*
X003386Y020539D01*
X003344Y020530D01*
X003301Y020524D01*
X003257Y020522D01*
X009671Y022019D02*
X009671Y014019D01*
X015671Y014019D01*
X015671Y022019D01*
X009671Y022019D01*
X010921Y019519D02*
X010921Y017519D01*
X012921Y017519D01*
X012921Y019519D01*
X010921Y019519D01*
X013171Y021019D02*
X014171Y021019D01*
X014171Y021519D01*
X013171Y021519D01*
X013171Y021019D01*
X013171Y015519D02*
X013215Y015517D01*
X013258Y015511D01*
X013300Y015502D01*
X013342Y015489D01*
X013382Y015472D01*
X013421Y015452D01*
X013458Y015429D01*
X013492Y015402D01*
X013525Y015373D01*
X013554Y015340D01*
X013581Y015306D01*
X013604Y015269D01*
X013624Y015230D01*
X013641Y015190D01*
X013654Y015148D01*
X013663Y015106D01*
X013669Y015063D01*
X013671Y015019D01*
X013669Y014975D01*
X013663Y014932D01*
X013654Y014890D01*
X013641Y014848D01*
X013624Y014808D01*
X013604Y014769D01*
X013581Y014732D01*
X013554Y014698D01*
X013525Y014665D01*
X013492Y014636D01*
X013458Y014609D01*
X013421Y014586D01*
X013382Y014566D01*
X013342Y014549D01*
X013300Y014536D01*
X013258Y014527D01*
X013215Y014521D01*
X013171Y014519D01*
X013127Y014521D01*
X013084Y014527D01*
X013042Y014536D01*
X013000Y014549D01*
X012960Y014566D01*
X012921Y014586D01*
X012884Y014609D01*
X012850Y014636D01*
X012817Y014665D01*
X012788Y014698D01*
X012761Y014732D01*
X012738Y014769D01*
X012718Y014808D01*
X012701Y014848D01*
X012688Y014890D01*
X012679Y014932D01*
X012673Y014975D01*
X012671Y015019D01*
X012673Y015063D01*
X012679Y015106D01*
X012688Y015148D01*
X012701Y015190D01*
X012718Y015230D01*
X012738Y015269D01*
X012761Y015306D01*
X012788Y015340D01*
X012817Y015373D01*
X012850Y015402D01*
X012884Y015429D01*
X012921Y015452D01*
X012960Y015472D01*
X013000Y015489D01*
X013042Y015502D01*
X013084Y015511D01*
X013127Y015517D01*
X013171Y015519D01*
D11*
X013149Y020289D02*
X013073Y020366D01*
X013073Y020442D01*
X013149Y020519D01*
X013303Y020519D01*
X013380Y020442D01*
X013380Y020366D01*
X013303Y020289D01*
X013149Y020289D01*
X013149Y020519D02*
X013073Y020596D01*
X013073Y020673D01*
X013149Y020749D01*
X013303Y020749D01*
X013380Y020673D01*
X013380Y020596D01*
X013303Y020519D01*
X013533Y020442D02*
X013610Y020519D01*
X013763Y020519D01*
X013840Y020442D01*
X013840Y020366D01*
X013763Y020289D01*
X013610Y020289D01*
X013533Y020366D01*
X013533Y020442D01*
X013610Y020519D02*
X013533Y020596D01*
X013533Y020673D01*
X013610Y020749D01*
X013763Y020749D01*
X013840Y020673D01*
X013840Y020596D01*
X013763Y020519D01*
X012919Y020519D02*
X012689Y020519D01*
X012612Y020596D01*
X012612Y020673D01*
X012689Y020749D01*
X012842Y020749D01*
X012919Y020673D01*
X012919Y020366D01*
X012842Y020289D01*
X012689Y020289D01*
X012612Y020366D01*
X012459Y020519D02*
X012152Y020519D01*
X012382Y020749D01*
X012382Y020289D01*
X011998Y020289D02*
X011998Y020596D01*
X011845Y020749D01*
X011691Y020596D01*
X011691Y020289D01*
X011691Y020519D02*
X011998Y020519D01*
X004624Y015676D02*
X004624Y015599D01*
X004547Y015522D01*
X004393Y015522D01*
X004317Y015599D01*
X004317Y015676D01*
X004393Y015752D01*
X004547Y015752D01*
X004624Y015676D01*
X004547Y015522D02*
X004624Y015445D01*
X004624Y015369D01*
X004547Y015292D01*
X004393Y015292D01*
X004317Y015369D01*
X004317Y015445D01*
X004393Y015522D01*
X004163Y015445D02*
X004163Y015369D01*
X004086Y015292D01*
X003933Y015292D01*
X003856Y015369D01*
X003856Y015445D01*
X003933Y015522D01*
X004086Y015522D01*
X004163Y015445D01*
X004086Y015522D02*
X004163Y015599D01*
X004163Y015676D01*
X004086Y015752D01*
X003933Y015752D01*
X003856Y015676D01*
X003856Y015599D01*
X003933Y015522D01*
X003703Y015522D02*
X003473Y015522D01*
X003396Y015599D01*
X003396Y015676D01*
X003473Y015752D01*
X003626Y015752D01*
X003703Y015676D01*
X003703Y015369D01*
X003626Y015292D01*
X003473Y015292D01*
X003396Y015369D01*
X003242Y015522D02*
X002935Y015522D01*
X003166Y015752D01*
X003166Y015292D01*
X002782Y015292D02*
X002782Y015599D01*
X002628Y015752D01*
X002475Y015599D01*
X002475Y015292D01*
X002475Y015522D02*
X002782Y015522D01*
D12*
X002515Y020752D02*
X002268Y020752D01*
X002207Y020814D01*
X002207Y020937D01*
X002268Y020999D01*
X002392Y020999D02*
X002392Y020876D01*
X002392Y020999D02*
X002515Y020999D01*
X002577Y020937D01*
X002577Y020814D01*
X002515Y020752D01*
X002577Y021120D02*
X002207Y021120D01*
X002577Y021367D01*
X002207Y021367D01*
X002207Y021489D02*
X002207Y021674D01*
X002268Y021736D01*
X002515Y021736D01*
X002577Y021674D01*
X002577Y021489D01*
X002207Y021489D01*
X011511Y022206D02*
X011511Y022453D01*
X011635Y022577D01*
X011758Y022453D01*
X011758Y022206D01*
X011758Y022391D02*
X011511Y022391D01*
X011880Y022391D02*
X012127Y022391D01*
X012248Y022453D02*
X012310Y022391D01*
X012495Y022391D01*
X012495Y022268D02*
X012495Y022515D01*
X012433Y022577D01*
X012310Y022577D01*
X012248Y022515D01*
X012248Y022453D01*
X012248Y022268D02*
X012310Y022206D01*
X012433Y022206D01*
X012495Y022268D01*
X012616Y022268D02*
X012616Y022330D01*
X012678Y022391D01*
X012802Y022391D01*
X012863Y022330D01*
X012863Y022268D01*
X012802Y022206D01*
X012678Y022206D01*
X012616Y022268D01*
X012678Y022391D02*
X012616Y022453D01*
X012616Y022515D01*
X012678Y022577D01*
X012802Y022577D01*
X012863Y022515D01*
X012863Y022453D01*
X012802Y022391D01*
X012985Y022330D02*
X013046Y022391D01*
X013170Y022391D01*
X013232Y022330D01*
X013232Y022268D01*
X013170Y022206D01*
X013046Y022206D01*
X012985Y022268D01*
X012985Y022330D01*
X013046Y022391D02*
X012985Y022453D01*
X012985Y022515D01*
X013046Y022577D01*
X013170Y022577D01*
X013232Y022515D01*
X013232Y022453D01*
X013170Y022391D01*
X013353Y022145D02*
X013600Y022145D01*
X013721Y022206D02*
X013968Y022453D01*
X013968Y022515D01*
X013906Y022577D01*
X013783Y022577D01*
X013721Y022515D01*
X013721Y022206D02*
X013968Y022206D01*
X012065Y022206D02*
X012065Y022577D01*
X011880Y022391D01*
X013913Y015197D02*
X013851Y015136D01*
X013851Y014951D01*
X014221Y014951D01*
X014221Y015136D01*
X014160Y015197D01*
X013913Y015197D01*
X013851Y014829D02*
X014221Y014829D01*
X013851Y014582D01*
X014221Y014582D01*
X014160Y014461D02*
X014036Y014461D01*
X014036Y014337D01*
X013913Y014214D02*
X014160Y014214D01*
X014221Y014276D01*
X014221Y014399D01*
X014160Y014461D01*
X013913Y014461D02*
X013851Y014399D01*
X013851Y014276D01*
X013913Y014214D01*
D13*
X013728Y013250D02*
X013228Y013250D01*
X012978Y013000D01*
X012728Y013250D01*
X012228Y013250D01*
X011978Y013000D01*
X011978Y012500D01*
X012228Y012250D01*
X011978Y012000D01*
X011978Y011500D01*
X012228Y011250D01*
X011978Y011000D01*
X011978Y010500D01*
X012228Y010250D01*
X011978Y010000D01*
X011978Y009500D01*
X012228Y009250D01*
X011978Y009000D01*
X011978Y008500D01*
X012228Y008250D01*
X011978Y008000D01*
X011978Y007500D01*
X012228Y007250D01*
X011978Y007000D01*
X011978Y006500D01*
X012228Y006250D01*
X011978Y006000D01*
X011978Y005500D01*
X012228Y005250D01*
X011978Y005000D01*
X011978Y004500D01*
X012228Y004250D01*
X011978Y004000D01*
X011978Y003500D01*
X012228Y003250D01*
X011978Y003000D01*
X011978Y002500D01*
X012228Y002250D01*
X012728Y002250D01*
X012978Y002500D01*
X012978Y003000D01*
X012728Y003250D01*
X012978Y003500D01*
X012978Y004000D01*
X012728Y004250D01*
X012978Y004500D01*
X012978Y005000D01*
X012728Y005250D01*
X012978Y005500D01*
X012978Y006000D01*
X012728Y006250D01*
X012978Y006500D01*
X012978Y007000D01*
X012728Y007250D01*
X012978Y007500D01*
X012978Y008000D01*
X012728Y008250D01*
X012978Y008500D01*
X012978Y009000D01*
X012728Y009250D01*
X012978Y009500D01*
X012978Y010000D01*
X012728Y010250D01*
X012978Y010500D01*
X012978Y011000D01*
X012728Y011250D01*
X012978Y011500D01*
X012978Y012000D01*
X012728Y012250D01*
X012978Y012500D01*
X012978Y013000D01*
X012978Y012500D01*
X013228Y012250D01*
X012978Y012000D01*
X012978Y011500D01*
X013228Y011250D01*
X012978Y011000D01*
X012978Y010500D01*
X013228Y010250D01*
X012978Y010000D01*
X012978Y009500D01*
X013228Y009250D01*
X012978Y009000D01*
X012978Y008500D01*
X013228Y008250D01*
X012978Y008000D01*
X012978Y007500D01*
X013228Y007250D01*
X012978Y007000D01*
X012978Y006500D01*
X013228Y006250D01*
X012978Y006000D01*
X012978Y005500D01*
X013228Y005250D01*
X012978Y005000D01*
X012978Y004500D01*
X013228Y004250D01*
X012978Y004000D01*
X012978Y003500D01*
X013228Y003250D01*
X012978Y003000D01*
X012978Y002500D01*
X013228Y002250D01*
X013728Y002250D01*
X013978Y002500D01*
X013978Y003000D01*
X014228Y003250D01*
X013978Y003500D01*
X013978Y004000D01*
X014228Y004250D01*
X013978Y004500D01*
X013978Y005000D01*
X014228Y005250D01*
X013978Y005500D01*
X013978Y006000D01*
X014228Y006250D01*
X013978Y006500D01*
X013978Y007000D01*
X014228Y007250D01*
X013978Y007500D01*
X013978Y008000D01*
X014228Y008250D01*
X013978Y008500D01*
X013978Y009000D01*
X014228Y009250D01*
X013978Y009500D01*
X013978Y010000D01*
X014228Y010250D01*
X013978Y010500D01*
X013978Y011000D01*
X014228Y011250D01*
X013978Y011500D01*
X013978Y012000D01*
X014228Y012250D01*
X013978Y012500D01*
X013978Y013000D01*
X014228Y013250D01*
X014728Y013250D01*
X014978Y013000D01*
X014978Y012500D01*
X014728Y012250D01*
X014978Y012000D01*
X014978Y011500D01*
X014728Y011250D01*
X014978Y011000D01*
X014978Y010500D01*
X014728Y010250D01*
X014978Y010000D01*
X014978Y009500D01*
X014728Y009250D01*
X014978Y009000D01*
X014978Y008500D01*
X014728Y008250D01*
X014978Y008000D01*
X014978Y007500D01*
X014728Y007250D01*
X014978Y007000D01*
X014978Y006500D01*
X014728Y006250D01*
X014978Y006000D01*
X014978Y005500D01*
X014728Y005250D01*
X014978Y005000D01*
X014978Y004500D01*
X014728Y004250D01*
X014978Y004000D01*
X014978Y003500D01*
X014728Y003250D01*
X014978Y003000D01*
X014978Y002500D01*
X014728Y002250D01*
X014228Y002250D01*
X013978Y002500D01*
X013978Y003000D01*
X013728Y003250D01*
X013978Y003500D01*
X013978Y004000D01*
X013728Y004250D01*
X013978Y004500D01*
X013978Y005000D01*
X013728Y005250D01*
X013978Y005500D01*
X013978Y006000D01*
X013728Y006250D01*
X013978Y006500D01*
X013978Y007000D01*
X013728Y007250D01*
X013978Y007500D01*
X013978Y008000D01*
X013728Y008250D01*
X013978Y008500D01*
X013978Y009000D01*
X013728Y009250D01*
X013978Y009500D01*
X013978Y010000D01*
X013728Y010250D01*
X013978Y010500D01*
X013978Y011000D01*
X013728Y011250D01*
X013978Y011500D01*
X013978Y012000D01*
X013728Y012250D01*
X013978Y012500D01*
X013978Y013000D01*
X013728Y013250D01*
X009353Y017500D02*
X009603Y017750D01*
X009603Y018250D01*
X009353Y018500D01*
X009603Y018750D01*
X009603Y019250D01*
X009353Y019500D01*
X009603Y019750D01*
X009603Y020250D01*
X009353Y020500D01*
X008853Y020500D01*
X008603Y020250D01*
X008603Y019750D01*
X008353Y019500D01*
X008603Y019250D01*
X008603Y018750D01*
X008353Y018500D01*
X008603Y018250D01*
X008603Y017750D01*
X008353Y017500D01*
X007853Y017500D01*
X007603Y017750D01*
X007603Y018250D01*
X007853Y018500D01*
X007603Y018750D01*
X007603Y019250D01*
X007853Y019500D01*
X007603Y019750D01*
X007603Y020250D01*
X007853Y020500D01*
X008353Y020500D01*
X008603Y020250D01*
X008603Y019750D01*
X008853Y019500D01*
X008603Y019250D01*
X008603Y018750D01*
X008853Y018500D01*
X008603Y018250D01*
X008603Y017750D01*
X008853Y017500D01*
X009353Y017500D01*
X008925Y016980D02*
X008925Y016480D01*
X008675Y016230D01*
X008925Y015980D01*
X008925Y015480D01*
X008675Y015230D01*
X008925Y014980D01*
X008925Y014480D01*
X008675Y014230D01*
X008175Y014230D01*
X007925Y014480D01*
X007925Y014980D01*
X008175Y015230D01*
X007925Y015480D01*
X007925Y015980D01*
X008175Y016230D01*
X007925Y016480D01*
X007925Y016980D01*
X008175Y017230D01*
X008675Y017230D01*
X008925Y016980D01*
X007897Y016982D02*
X007897Y016482D01*
X007647Y016232D01*
X007897Y015982D01*
X007897Y015482D01*
X007647Y015232D01*
X007897Y014982D01*
X007897Y014482D01*
X007647Y014232D01*
X007147Y014232D01*
X006897Y014482D01*
X006897Y014982D01*
X007147Y015232D01*
X006897Y015482D01*
X006897Y015982D01*
X007147Y016232D01*
X006897Y016482D01*
X006897Y016982D01*
X007147Y017232D01*
X007647Y017232D01*
X007897Y016982D01*
X007996Y021028D02*
X007496Y021028D01*
X007246Y021278D01*
X007246Y021778D01*
X007496Y022028D01*
X007996Y022028D01*
X008246Y021778D01*
X008496Y022028D01*
X008996Y022028D01*
X009246Y021778D01*
X009246Y021278D01*
X008996Y021028D01*
X008496Y021028D01*
X008246Y021278D01*
X007996Y021028D01*
X004228Y013250D02*
X003728Y013250D01*
X003478Y013000D01*
X003478Y012500D01*
X003728Y012250D01*
X003478Y012000D01*
X003478Y011500D01*
X003728Y011250D01*
X003478Y011000D01*
X003478Y010500D01*
X003728Y010250D01*
X003478Y010000D01*
X003478Y009500D01*
X003728Y009250D01*
X003478Y009000D01*
X003478Y008500D01*
X003728Y008250D01*
X003478Y008000D01*
X003478Y007500D01*
X003728Y007250D01*
X003478Y007000D01*
X003478Y006500D01*
X003728Y006250D01*
X003478Y006000D01*
X003478Y005500D01*
X003728Y005250D01*
X003478Y005000D01*
X003478Y004500D01*
X003728Y004250D01*
X003478Y004000D01*
X003478Y003500D01*
X003728Y003250D01*
X003478Y003000D01*
X003478Y002500D01*
X003728Y002250D01*
X004228Y002250D01*
X004478Y002500D01*
X004478Y003000D01*
X004228Y003250D01*
X004478Y003500D01*
X004478Y004000D01*
X004228Y004250D01*
X004478Y004500D01*
X004478Y005000D01*
X004228Y005250D01*
X004478Y005500D01*
X004478Y006000D01*
X004228Y006250D01*
X004478Y006500D01*
X004478Y007000D01*
X004228Y007250D01*
X004478Y007500D01*
X004478Y008000D01*
X004228Y008250D01*
X004478Y008500D01*
X004478Y009000D01*
X004228Y009250D01*
X004478Y009500D01*
X004478Y010000D01*
X004228Y010250D01*
X004478Y010500D01*
X004478Y011000D01*
X004228Y011250D01*
X004478Y011500D01*
X004478Y012000D01*
X004228Y012250D01*
X004478Y012500D01*
X004478Y013000D01*
X004228Y013250D01*
X003478Y013000D02*
X003478Y012500D01*
X003228Y012250D01*
X003478Y012000D01*
X003478Y011500D01*
X003228Y011250D01*
X003478Y011000D01*
X003478Y010500D01*
X003228Y010250D01*
X003478Y010000D01*
X003478Y009500D01*
X003228Y009250D01*
X003478Y009000D01*
X003478Y008500D01*
X003228Y008250D01*
X003478Y008000D01*
X003478Y007500D01*
X003228Y007250D01*
X003478Y007000D01*
X003478Y006500D01*
X003228Y006250D01*
X003478Y006000D01*
X003478Y005500D01*
X003228Y005250D01*
X003478Y005000D01*
X003478Y004500D01*
X003228Y004250D01*
X003478Y004000D01*
X003478Y003500D01*
X003228Y003250D01*
X003478Y003000D01*
X003478Y002500D01*
X003228Y002250D01*
X002728Y002250D01*
X002478Y002500D01*
X002228Y002250D01*
X001728Y002250D01*
X001478Y002500D01*
X001478Y003000D01*
X001728Y003250D01*
X001478Y003500D01*
X001478Y004000D01*
X001728Y004250D01*
X001478Y004500D01*
X001478Y005000D01*
X001728Y005250D01*
X001478Y005500D01*
X001478Y006000D01*
X001728Y006250D01*
X001478Y006500D01*
X001478Y007000D01*
X001728Y007250D01*
X001478Y007500D01*
X001478Y008000D01*
X001728Y008250D01*
X001478Y008500D01*
X001478Y009000D01*
X001728Y009250D01*
X001478Y009500D01*
X001478Y010000D01*
X001728Y010250D01*
X001478Y010500D01*
X001478Y011000D01*
X001728Y011250D01*
X001478Y011500D01*
X001478Y012000D01*
X001728Y012250D01*
X001478Y012500D01*
X001478Y013000D01*
X001728Y013250D01*
X002228Y013250D01*
X002478Y013000D01*
X002478Y012500D01*
X002228Y012250D01*
X002478Y012000D01*
X002478Y011500D01*
X002228Y011250D01*
X002478Y011000D01*
X002478Y010500D01*
X002228Y010250D01*
X002478Y010000D01*
X002478Y009500D01*
X002228Y009250D01*
X002478Y009000D01*
X002478Y008500D01*
X002228Y008250D01*
X002478Y008000D01*
X002478Y007500D01*
X002228Y007250D01*
X002478Y007000D01*
X002478Y006500D01*
X002228Y006250D01*
X002478Y006000D01*
X002478Y005500D01*
X002228Y005250D01*
X002478Y005000D01*
X002478Y004500D01*
X002228Y004250D01*
X002478Y004000D01*
X002478Y003500D01*
X002228Y003250D01*
X002478Y003000D01*
X002478Y002500D01*
X002478Y003000D01*
X002728Y003250D01*
X002478Y003500D01*
X002478Y004000D01*
X002728Y004250D01*
X002478Y004500D01*
X002478Y005000D01*
X002728Y005250D01*
X002478Y005500D01*
X002478Y006000D01*
X002728Y006250D01*
X002478Y006500D01*
X002478Y007000D01*
X002728Y007250D01*
X002478Y007500D01*
X002478Y008000D01*
X002728Y008250D01*
X002478Y008500D01*
X002478Y009000D01*
X002728Y009250D01*
X002478Y009500D01*
X002478Y010000D01*
X002728Y010250D01*
X002478Y010500D01*
X002478Y011000D01*
X002728Y011250D01*
X002478Y011500D01*
X002478Y012000D01*
X002728Y012250D01*
X002478Y012500D01*
X002478Y013000D01*
X002728Y013250D01*
X003228Y013250D01*
X003478Y013000D01*
X003726Y002256D02*
X004226Y002256D01*
X004476Y002006D01*
X004476Y001506D01*
X004226Y001256D01*
X003726Y001256D01*
X003476Y001506D01*
X003226Y001256D01*
X002726Y001256D01*
X002476Y001506D01*
X002226Y001256D01*
X001726Y001256D01*
X001476Y001506D01*
X001476Y002006D01*
X001726Y002256D01*
X002226Y002256D01*
X002476Y002006D01*
X002726Y002256D01*
X003226Y002256D01*
X003476Y002006D01*
X003726Y002256D01*
X011968Y002000D02*
X011968Y001500D01*
X012218Y001250D01*
X012718Y001250D01*
X012968Y001500D01*
X013218Y001250D01*
X013718Y001250D01*
X013968Y001500D01*
X014218Y001250D01*
X014718Y001250D01*
X014968Y001500D01*
X014968Y002000D01*
X014718Y002250D01*
X014218Y002250D01*
X013968Y002000D01*
X013718Y002250D01*
X013218Y002250D01*
X012968Y002000D01*
X012718Y002250D01*
X012218Y002250D01*
X011968Y002000D01*
D14*
X011728Y001250D02*
X010728Y001250D01*
X008628Y001250D01*
X008626Y001289D01*
X008620Y001328D01*
X008611Y001366D01*
X008598Y001403D01*
X008581Y001439D01*
X008561Y001472D01*
X008537Y001504D01*
X008511Y001533D01*
X008482Y001559D01*
X008450Y001583D01*
X008417Y001603D01*
X008381Y001620D01*
X008344Y001633D01*
X008306Y001642D01*
X008267Y001648D01*
X008228Y001650D01*
X008189Y001648D01*
X008150Y001642D01*
X008112Y001633D01*
X008075Y001620D01*
X008039Y001603D01*
X008006Y001583D01*
X007974Y001559D01*
X007945Y001533D01*
X007919Y001504D01*
X007895Y001472D01*
X007875Y001439D01*
X007858Y001403D01*
X007845Y001366D01*
X007836Y001328D01*
X007830Y001289D01*
X007828Y001250D01*
X005728Y001250D01*
X005728Y013250D01*
X010728Y013250D01*
X011728Y013250D01*
X011728Y001250D01*
X010728Y001250D02*
X010728Y013250D01*
X005728Y013250D02*
X004728Y013250D01*
X004728Y001250D01*
X005728Y001250D01*
D15*
X006825Y017895D02*
X006825Y018115D01*
X006899Y018042D01*
X006972Y018115D01*
X006972Y017895D01*
X007046Y017932D02*
X007083Y017895D01*
X007156Y017895D01*
X007193Y017932D01*
X007193Y017968D01*
X007156Y018005D01*
X007083Y018005D01*
X007046Y018042D01*
X007046Y018078D01*
X007083Y018115D01*
X007156Y018115D01*
X007193Y018078D01*
X007267Y018078D02*
X007304Y018115D01*
X007377Y018115D01*
X007414Y018078D01*
X007414Y018042D01*
X007377Y018005D01*
X007414Y017968D01*
X007414Y017932D01*
X007377Y017895D01*
X007304Y017895D01*
X007267Y017932D01*
X007341Y018005D02*
X007377Y018005D01*
X007414Y018895D02*
X007267Y018895D01*
X007414Y019042D01*
X007414Y019078D01*
X007377Y019115D01*
X007304Y019115D01*
X007267Y019078D01*
X007193Y019078D02*
X007156Y019115D01*
X007083Y019115D01*
X007046Y019078D01*
X007046Y019042D01*
X007083Y019005D01*
X007156Y019005D01*
X007193Y018968D01*
X007193Y018932D01*
X007156Y018895D01*
X007083Y018895D01*
X007046Y018932D01*
X006972Y018895D02*
X006972Y019115D01*
X006899Y019042D01*
X006825Y019115D01*
X006825Y018895D01*
X006825Y019895D02*
X006825Y020115D01*
X006899Y020042D01*
X006972Y020115D01*
X006972Y019895D01*
X007046Y019932D02*
X007083Y019895D01*
X007156Y019895D01*
X007193Y019932D01*
X007193Y019968D01*
X007156Y020005D01*
X007083Y020005D01*
X007046Y020042D01*
X007046Y020078D01*
X007083Y020115D01*
X007156Y020115D01*
X007193Y020078D01*
X007267Y020042D02*
X007341Y020115D01*
X007341Y019895D01*
X007414Y019895D02*
X007267Y019895D01*
X007416Y022255D02*
X007526Y022255D01*
X007563Y022292D01*
X007526Y022329D01*
X007452Y022329D01*
X007416Y022365D01*
X007452Y022402D01*
X007563Y022402D01*
X007637Y022365D02*
X007673Y022402D01*
X007747Y022402D01*
X007784Y022365D01*
X007784Y022255D01*
X007858Y022292D02*
X007894Y022329D01*
X008005Y022329D01*
X008005Y022365D02*
X008005Y022255D01*
X007894Y022255D01*
X007858Y022292D01*
X007894Y022402D02*
X007968Y022402D01*
X008005Y022365D01*
X008079Y022329D02*
X008152Y022402D01*
X008189Y022402D01*
X008263Y022365D02*
X008263Y022292D01*
X008300Y022255D01*
X008373Y022255D01*
X008410Y022329D02*
X008263Y022329D01*
X008263Y022365D02*
X008300Y022402D01*
X008373Y022402D01*
X008410Y022365D01*
X008410Y022329D01*
X008705Y022402D02*
X008705Y022182D01*
X008705Y022255D02*
X008815Y022255D01*
X008852Y022292D01*
X008852Y022365D01*
X008815Y022402D01*
X008705Y022402D01*
X008926Y022365D02*
X008926Y022292D01*
X008963Y022255D01*
X009036Y022255D01*
X009073Y022292D01*
X009073Y022365D01*
X009036Y022402D01*
X008963Y022402D01*
X008926Y022365D01*
X009147Y022402D02*
X009147Y022292D01*
X009184Y022255D01*
X009220Y022292D01*
X009257Y022255D01*
X009294Y022292D01*
X009294Y022402D01*
X009368Y022365D02*
X009405Y022402D01*
X009478Y022402D01*
X009515Y022365D01*
X009515Y022329D01*
X009368Y022329D01*
X009368Y022365D02*
X009368Y022292D01*
X009405Y022255D01*
X009478Y022255D01*
X009589Y022255D02*
X009589Y022402D01*
X009662Y022402D02*
X009699Y022402D01*
X009662Y022402D02*
X009589Y022329D01*
X008079Y022255D02*
X008079Y022402D01*
X007637Y022475D02*
X007637Y022255D01*
D16*
X007672Y020896D02*
X007747Y020896D01*
X007722Y020846D02*
X007672Y020846D01*
X007647Y020871D01*
X007672Y020896D01*
X007722Y020846D02*
X007747Y020821D01*
X007722Y020796D01*
X007647Y020796D01*
X007600Y020821D02*
X007575Y020846D01*
X007525Y020846D01*
X007500Y020871D01*
X007525Y020896D01*
X007600Y020896D01*
X007600Y020821D02*
X007575Y020796D01*
X007500Y020796D01*
X007453Y020796D02*
X007378Y020796D01*
X007353Y020821D01*
X007378Y020846D01*
X007453Y020846D01*
X007453Y020871D02*
X007453Y020796D01*
X007453Y020871D02*
X007428Y020896D01*
X007378Y020896D01*
X007305Y020871D02*
X007305Y020821D01*
X007280Y020796D01*
X007205Y020796D01*
X007205Y020746D02*
X007205Y020896D01*
X007280Y020896D01*
X007305Y020871D01*
X007942Y020896D02*
X007992Y020796D01*
X008042Y020896D01*
X008089Y020871D02*
X008114Y020896D01*
X008164Y020896D01*
X008189Y020871D01*
X008189Y020846D01*
X008089Y020846D01*
X008089Y020821D02*
X008089Y020871D01*
X008089Y020821D02*
X008114Y020796D01*
X008164Y020796D01*
X008237Y020796D02*
X008337Y020896D01*
X008384Y020896D02*
X008434Y020896D01*
X008409Y020921D02*
X008409Y020821D01*
X008434Y020796D01*
X008482Y020771D02*
X008582Y020771D01*
X008630Y020796D02*
X008730Y020796D01*
X008680Y020796D02*
X008680Y020946D01*
X008630Y020896D01*
X008924Y020896D02*
X008974Y020896D01*
X008949Y020921D02*
X008949Y020821D01*
X008974Y020796D01*
X009022Y020821D02*
X009047Y020796D01*
X009097Y020796D01*
X009122Y020821D01*
X009122Y020871D01*
X009097Y020896D01*
X009047Y020896D01*
X009022Y020871D01*
X009022Y020821D01*
X009317Y020896D02*
X009367Y020796D01*
X009417Y020896D01*
X009464Y020871D02*
X009489Y020896D01*
X009539Y020896D01*
X009564Y020871D01*
X009564Y020846D01*
X009464Y020846D01*
X009464Y020821D02*
X009464Y020871D01*
X009464Y020821D02*
X009489Y020796D01*
X009539Y020796D01*
X009612Y020796D02*
X009712Y020896D01*
X009759Y020896D02*
X009809Y020896D01*
X009784Y020921D02*
X009784Y020821D01*
X009809Y020796D01*
X009857Y020771D02*
X009957Y020771D01*
X010005Y020796D02*
X010105Y020896D01*
X010105Y020921D01*
X010080Y020946D01*
X010030Y020946D01*
X010005Y020921D01*
X010005Y020796D02*
X010105Y020796D01*
X009712Y020796D02*
X009612Y020896D01*
X008337Y020796D02*
X008237Y020896D01*
M02*
