%
M48
M72
T01C0.0400
T02C0.0433
T03C0.0890
%
T01
X1976Y1756
X1978Y2750
X1978Y3750
X1978Y4750
X1978Y5750
X1978Y6750
X1978Y7750
X1978Y8750
X1978Y9750
X1978Y10750
X1978Y11750
X1978Y12750
X2978Y12750
X2978Y11750
X2978Y10750
X2978Y9750
X2978Y8750
X2978Y7750
X2978Y6750
X2978Y5750
X2978Y4750
X2978Y3750
X2978Y2750
X2976Y1756
X3976Y1756
X3978Y2750
X3978Y3750
X3978Y4750
X3978Y5750
X3978Y6750
X3978Y7750
X3978Y8750
X3978Y9750
X3978Y10750
X3978Y11750
X3978Y12750
X5228Y12750
X5228Y11750
X5228Y10750
X5228Y9750
X5228Y8750
X5228Y7750
X5228Y6750
X5228Y5750
X5228Y4750
X5228Y3750
X5228Y2750
X5228Y1750
X6228Y5750
X10228Y5750
X11228Y5750
X11228Y4750
X11228Y3750
X11228Y2750
X11228Y1750
X12468Y1750
X12478Y2750
X12478Y3750
X12478Y4750
X12478Y5750
X12478Y6750
X12478Y7750
X12478Y8750
X12478Y9750
X12478Y10750
X12478Y11750
X12478Y12750
X13478Y12750
X13478Y11750
X13478Y10750
X13478Y9750
X13478Y8750
X13478Y7750
X13478Y6750
X13478Y5750
X13478Y4750
X13478Y3750
X13478Y2750
X13468Y1750
X14468Y1750
X14478Y2750
X14478Y3750
X14478Y4750
X14478Y5750
X14478Y6750
X14478Y7750
X14478Y8750
X14478Y9750
X14478Y10750
X14478Y11750
X14478Y12750
X15171Y14519
X15171Y15519
X15171Y16519
X15171Y17519
X15171Y18519
X15171Y19519
X15171Y20519
X15171Y21519
X10171Y21519
X10171Y20519
X10171Y19519
X10171Y18519
X10171Y17519
X10171Y16519
X10171Y15519
X10171Y14519
X10228Y12750
X11228Y12750
X11228Y11750
X11228Y10750
X11228Y9750
X11228Y8750
X11228Y7750
X11228Y6750
X9228Y12750
X8228Y12750
X7228Y12750
X6228Y12750
X6257Y14522
X6257Y15522
X6257Y16522
X6257Y17522
X6257Y18522
X6257Y19522
X6257Y20522
X6257Y21522
X7746Y21528
X8746Y21528
X9103Y20000
X9103Y19000
X9103Y18000
X8103Y18000
X8103Y19000
X8103Y20000
X8425Y16730
X8425Y15730
X8425Y14730
X7397Y14732
X7397Y15732
X7397Y16732
X1257Y16522
X1257Y15522
X1257Y14522
X1257Y17522
X1257Y18522
X1257Y19522
X1257Y20522
X1257Y21522
T02
X3233Y21527
X3233Y20527
X3233Y19527
X3233Y18527
X3233Y17527
X3233Y16527
X5233Y16527
X5233Y17527
X5233Y18527
X5233Y19527
X5233Y20527
X5233Y21527
X11203Y19502
X11203Y18502
X11203Y17502
X11203Y16502
X11203Y15502
X11203Y14502
X13203Y14502
X13203Y15502
X13203Y16502
X13203Y17502
X13203Y18502
X13203Y19502
T03
X8197Y10339
X8182Y4186
M30
