%
M48
M72
T01C0.01378
T02C0.02362
T03C0.03150
T04C0.03200
T05C0.03346
T06C0.03543
T07C0.04000
T08C0.07000
%
T01
X116008Y34646
X123208Y34646
X110608Y40046
X97408Y38246
X89608Y37046
X92008Y41246
X73408Y44246
X65608Y40046
X73408Y36446
X15808Y42446
X104008Y59246
X176608Y55646
X186808Y50846
X186808Y47246
X179608Y47246
X209608Y54446
X221008Y57446
X197008Y63446
X219808Y65246
X227008Y72446
X227008Y76046
X276208Y66446
X309208Y63446
X295408Y57446
X295408Y53846
X295408Y49646
X275008Y49046
X275008Y52646
X261208Y47846
X288208Y40046
X248008Y39446
X222208Y45446
X213208Y40646
X179608Y37646
X165808Y35846
X171208Y29846
X182608Y28046
X206608Y30446
X245008Y31646
X266608Y27446
X273208Y28646
X290008Y19046
X327208Y20846
X343408Y23246
X336808Y25046
X339808Y27446
X327208Y28046
X327208Y24446
X359608Y18446
X369208Y25646
X380608Y29246
X392008Y23246
X419008Y34646
X392608Y43046
X363808Y52046
X380008Y56246
X389608Y56246
X388408Y65846
X345808Y65846
X291208Y82646
X172408Y83246
X164608Y75446
X121408Y78446
X103408Y83246
X93208Y83246
X83008Y81446
X93808Y78446
T02
X128323Y82689
X167693Y82689
X298323Y82689
X337693Y82689
X333756Y43319
X318008Y43319
X302260Y43319
X163756Y43319
X148008Y43319
X132260Y43319
T03
X202508Y64909
X202508Y72783
T04
X368008Y69846
X368008Y79846
X368008Y54846
X368008Y44846
X368008Y30846
X368008Y20846
T05
X240488Y30008
X225528Y30008
T06
X111394Y73846
X84622Y73846
X71394Y74217
X44622Y74217
X394622Y74046
X421394Y74046
T07
X423708Y23846
X412308Y23846
T08
X410917Y49374
X438476Y49374
X55114Y50319
X27555Y50319
M30
