G75*
%MOIN*%
%OFA0B0*%
%FSLAX25Y25*%
%IPPOS*%
%LPD*%
%AMOC8*
5,1,8,0,0,1.08239X$1,22.5*
%
%ADD10C,0.00800*%
%ADD11C,0.00600*%
%ADD12C,0.00300*%
%ADD13C,0.00400*%
%ADD14C,0.00500*%
%ADD15C,0.01000*%
%ADD16C,0.00100*%
%ADD17C,0.00200*%
%ADD18C,0.01200*%
D10*
X0046906Y0014705D02*
X0046906Y0016988D01*
X0046906Y0014705D02*
X0075150Y0014705D01*
X0075150Y0016988D01*
X0116366Y0016205D02*
X0116366Y0018488D01*
X0116366Y0016205D02*
X0144610Y0016205D01*
X0144610Y0018488D01*
X0144610Y0031205D02*
X0144610Y0033488D01*
X0116366Y0033488D01*
X0116366Y0031205D01*
X0075150Y0031988D02*
X0075150Y0029705D01*
X0075150Y0031988D02*
X0046906Y0031988D01*
X0046906Y0029705D01*
X0112252Y0050835D02*
X0115402Y0050835D01*
X0112252Y0050835D02*
X0112252Y0053197D01*
X0112252Y0059496D02*
X0112252Y0061858D01*
X0115402Y0061858D01*
X0214996Y0064453D02*
X0214996Y0067602D01*
X0217358Y0067602D01*
X0223657Y0067602D02*
X0226020Y0067602D01*
X0226020Y0064453D01*
X0227783Y0062504D02*
X0227783Y0068409D01*
X0237232Y0068409D02*
X0237232Y0062504D01*
X0227783Y0062504D01*
X0242453Y0064283D02*
X0242453Y0066055D01*
X0260563Y0066055D01*
X0260563Y0064283D01*
X0262906Y0064185D02*
X0264283Y0062610D01*
X0273929Y0062610D01*
X0275110Y0064185D01*
X0275110Y0068909D01*
X0277906Y0068909D02*
X0277906Y0064185D01*
X0279283Y0062610D01*
X0288929Y0062610D01*
X0290110Y0064185D01*
X0290110Y0068909D01*
X0262906Y0068909D02*
X0262906Y0064185D01*
X0247571Y0064283D02*
X0247571Y0056409D01*
X0242453Y0056409D02*
X0242453Y0054638D01*
X0260563Y0054638D01*
X0260563Y0056409D01*
X0253717Y0048996D02*
X0253717Y0042697D01*
X0249780Y0042697D02*
X0246236Y0042697D01*
X0242299Y0042697D02*
X0242299Y0048996D01*
X0281843Y0044246D02*
X0281845Y0044293D01*
X0281851Y0044340D01*
X0281861Y0044387D01*
X0281874Y0044432D01*
X0281892Y0044476D01*
X0281913Y0044518D01*
X0281937Y0044559D01*
X0281965Y0044597D01*
X0281996Y0044633D01*
X0282030Y0044666D01*
X0282066Y0044696D01*
X0282105Y0044723D01*
X0282146Y0044747D01*
X0282189Y0044767D01*
X0282233Y0044783D01*
X0282279Y0044796D01*
X0282325Y0044805D01*
X0282373Y0044810D01*
X0282420Y0044811D01*
X0282467Y0044808D01*
X0282514Y0044801D01*
X0282560Y0044790D01*
X0282605Y0044776D01*
X0282649Y0044757D01*
X0282690Y0044735D01*
X0282730Y0044710D01*
X0282768Y0044681D01*
X0282803Y0044650D01*
X0282836Y0044615D01*
X0282865Y0044578D01*
X0282891Y0044539D01*
X0282914Y0044497D01*
X0282933Y0044454D01*
X0282949Y0044409D01*
X0282961Y0044363D01*
X0282969Y0044317D01*
X0282973Y0044270D01*
X0282973Y0044222D01*
X0282969Y0044175D01*
X0282961Y0044129D01*
X0282949Y0044083D01*
X0282933Y0044038D01*
X0282914Y0043995D01*
X0282891Y0043953D01*
X0282865Y0043914D01*
X0282836Y0043877D01*
X0282803Y0043842D01*
X0282768Y0043811D01*
X0282730Y0043782D01*
X0282691Y0043757D01*
X0282649Y0043735D01*
X0282605Y0043716D01*
X0282560Y0043702D01*
X0282514Y0043691D01*
X0282467Y0043684D01*
X0282420Y0043681D01*
X0282373Y0043682D01*
X0282325Y0043687D01*
X0282279Y0043696D01*
X0282233Y0043709D01*
X0282189Y0043725D01*
X0282146Y0043745D01*
X0282105Y0043769D01*
X0282066Y0043796D01*
X0282030Y0043826D01*
X0281996Y0043859D01*
X0281965Y0043895D01*
X0281937Y0043933D01*
X0281913Y0043974D01*
X0281892Y0044016D01*
X0281874Y0044060D01*
X0281861Y0044105D01*
X0281851Y0044152D01*
X0281845Y0044199D01*
X0281843Y0044246D01*
X0316783Y0035689D02*
X0326232Y0035689D01*
X0326232Y0029783D01*
X0316783Y0029783D02*
X0316783Y0035689D01*
X0341299Y0036496D02*
X0341299Y0030197D01*
X0352717Y0030197D02*
X0352717Y0036496D01*
X0348780Y0036496D02*
X0345236Y0036496D01*
X0285650Y0034988D02*
X0285650Y0032705D01*
X0285650Y0034988D02*
X0257406Y0034988D01*
X0257406Y0032705D01*
X0316783Y0021909D02*
X0316783Y0017579D01*
X0318358Y0016004D01*
X0324657Y0016004D01*
X0326232Y0017579D01*
X0326232Y0021909D01*
X0285650Y0019988D02*
X0285650Y0017705D01*
X0257406Y0017705D01*
X0257406Y0019988D01*
X0408008Y0021346D02*
X0410508Y0018846D01*
X0415508Y0018846D01*
X0418008Y0021346D01*
X0420508Y0018846D01*
X0425508Y0018846D01*
X0428008Y0021346D01*
X0428008Y0026346D01*
X0425508Y0028846D01*
X0420508Y0028846D01*
X0418008Y0026346D01*
X0415508Y0028846D01*
X0410508Y0028846D01*
X0408008Y0026346D01*
X0408008Y0021346D01*
X0290110Y0076390D02*
X0290110Y0083083D01*
X0277709Y0083083D01*
X0277709Y0076390D01*
X0275110Y0076390D02*
X0275110Y0083083D01*
X0262709Y0083083D01*
X0262709Y0076390D01*
X0237232Y0076283D02*
X0237232Y0080614D01*
X0235657Y0082189D01*
X0229358Y0082189D01*
X0227783Y0080614D01*
X0227783Y0076283D01*
D11*
X0271409Y0060646D02*
X0285606Y0060646D01*
X0239229Y0045549D02*
X0239229Y0042946D01*
X0240096Y0042946D02*
X0238361Y0042946D01*
X0237150Y0043380D02*
X0237150Y0045549D01*
X0238361Y0044681D02*
X0239229Y0045549D01*
X0235415Y0045549D02*
X0235415Y0043380D01*
X0235849Y0042946D01*
X0236716Y0042946D01*
X0237150Y0043380D01*
X0271409Y0042047D02*
X0285606Y0042047D01*
X0354308Y0036249D02*
X0354308Y0034080D01*
X0354742Y0033646D01*
X0355609Y0033646D01*
X0356043Y0034080D01*
X0356043Y0036249D01*
X0357254Y0035815D02*
X0357688Y0036249D01*
X0358555Y0036249D01*
X0358989Y0035815D01*
X0358555Y0034948D02*
X0357688Y0034948D01*
X0357254Y0035381D01*
X0357254Y0035815D01*
X0358122Y0036682D02*
X0358122Y0033213D01*
X0358555Y0033646D02*
X0358989Y0034080D01*
X0358989Y0034514D01*
X0358555Y0034948D01*
X0358555Y0033646D02*
X0357688Y0033646D01*
X0357254Y0034080D01*
X0360201Y0034080D02*
X0360201Y0033646D01*
X0360201Y0034080D02*
X0361936Y0035815D01*
X0361936Y0036249D01*
X0360201Y0036249D01*
X0374008Y0025847D02*
X0374006Y0025693D01*
X0374000Y0025539D01*
X0373990Y0025385D01*
X0373976Y0025231D01*
X0373959Y0025078D01*
X0373937Y0024926D01*
X0373911Y0024774D01*
X0373882Y0024622D01*
X0373848Y0024472D01*
X0373811Y0024322D01*
X0373770Y0024174D01*
X0373725Y0024026D01*
X0373676Y0023880D01*
X0373624Y0023735D01*
X0373568Y0023592D01*
X0373508Y0023449D01*
X0373445Y0023309D01*
X0373378Y0023170D01*
X0373307Y0023033D01*
X0373233Y0022898D01*
X0373156Y0022765D01*
X0373075Y0022633D01*
X0372991Y0022504D01*
X0372903Y0022377D01*
X0372812Y0022253D01*
X0372719Y0022131D01*
X0372621Y0022011D01*
X0372521Y0021894D01*
X0372418Y0021779D01*
X0372312Y0021667D01*
X0372204Y0021558D01*
X0372092Y0021452D01*
X0371978Y0021348D01*
X0371861Y0021248D01*
X0371742Y0021150D01*
X0371620Y0021056D01*
X0371495Y0020965D01*
X0362008Y0025846D02*
X0362010Y0025998D01*
X0362016Y0026149D01*
X0362025Y0026300D01*
X0362039Y0026452D01*
X0362056Y0026602D01*
X0362077Y0026752D01*
X0362102Y0026902D01*
X0362130Y0027051D01*
X0362163Y0027199D01*
X0362199Y0027346D01*
X0362238Y0027493D01*
X0362282Y0027638D01*
X0362329Y0027782D01*
X0362380Y0027925D01*
X0362434Y0028066D01*
X0362492Y0028207D01*
X0362553Y0028345D01*
X0362618Y0028482D01*
X0362687Y0028618D01*
X0362758Y0028751D01*
X0362833Y0028883D01*
X0362912Y0029013D01*
X0362993Y0029140D01*
X0363078Y0029266D01*
X0363166Y0029390D01*
X0363257Y0029511D01*
X0363351Y0029630D01*
X0363449Y0029746D01*
X0363549Y0029860D01*
X0363651Y0029972D01*
X0363757Y0030080D01*
X0363865Y0030186D01*
X0363976Y0030290D01*
X0364090Y0030390D01*
X0364206Y0030488D01*
X0364325Y0030582D01*
X0362008Y0025846D02*
X0362010Y0025694D01*
X0362016Y0025543D01*
X0362025Y0025392D01*
X0362039Y0025240D01*
X0362056Y0025090D01*
X0362077Y0024940D01*
X0362102Y0024790D01*
X0362130Y0024641D01*
X0362163Y0024493D01*
X0362199Y0024346D01*
X0362238Y0024199D01*
X0362282Y0024054D01*
X0362329Y0023910D01*
X0362380Y0023767D01*
X0362434Y0023626D01*
X0362492Y0023485D01*
X0362553Y0023347D01*
X0362618Y0023210D01*
X0362687Y0023074D01*
X0362758Y0022941D01*
X0362833Y0022809D01*
X0362912Y0022679D01*
X0362993Y0022552D01*
X0363078Y0022426D01*
X0363166Y0022302D01*
X0363257Y0022181D01*
X0363351Y0022062D01*
X0363449Y0021946D01*
X0363549Y0021832D01*
X0363651Y0021720D01*
X0363757Y0021612D01*
X0363865Y0021506D01*
X0363976Y0021402D01*
X0364090Y0021302D01*
X0364206Y0021204D01*
X0364325Y0021110D01*
X0374008Y0025846D02*
X0374006Y0025996D01*
X0374000Y0026147D01*
X0373991Y0026297D01*
X0373978Y0026446D01*
X0373961Y0026596D01*
X0373940Y0026745D01*
X0373916Y0026893D01*
X0373888Y0027041D01*
X0373856Y0027188D01*
X0373821Y0027334D01*
X0373781Y0027479D01*
X0373739Y0027623D01*
X0373692Y0027766D01*
X0373642Y0027908D01*
X0373589Y0028049D01*
X0373532Y0028188D01*
X0373472Y0028326D01*
X0373408Y0028462D01*
X0373341Y0028596D01*
X0373270Y0028729D01*
X0373196Y0028860D01*
X0373119Y0028989D01*
X0373038Y0029116D01*
X0372955Y0029241D01*
X0372868Y0029364D01*
X0372779Y0029485D01*
X0372686Y0029603D01*
X0372590Y0029719D01*
X0372492Y0029833D01*
X0372391Y0029944D01*
X0372286Y0030053D01*
X0372180Y0030158D01*
X0372070Y0030262D01*
X0371958Y0030362D01*
X0371844Y0030460D01*
X0371727Y0030554D01*
X0371608Y0030646D01*
X0408308Y0030948D02*
X0409609Y0030948D01*
X0410043Y0030514D01*
X0410043Y0030080D01*
X0409609Y0029646D01*
X0408308Y0029646D01*
X0408308Y0032249D01*
X0409609Y0032249D01*
X0410043Y0031815D01*
X0410043Y0031381D01*
X0409609Y0030948D01*
X0411254Y0030948D02*
X0412989Y0030948D01*
X0412989Y0031381D02*
X0412989Y0029646D01*
X0411254Y0029646D02*
X0411254Y0031381D01*
X0412122Y0032249D01*
X0412989Y0031381D01*
X0414201Y0032249D02*
X0415936Y0032249D01*
X0415068Y0032249D02*
X0415068Y0029646D01*
X0418015Y0029646D02*
X0418015Y0032249D01*
X0418882Y0032249D02*
X0417147Y0032249D01*
X0420094Y0032249D02*
X0420094Y0029646D01*
X0421829Y0029646D01*
X0423040Y0029646D02*
X0423040Y0032249D01*
X0424342Y0032249D01*
X0424775Y0031815D01*
X0424775Y0030948D01*
X0424342Y0030514D01*
X0423040Y0030514D01*
X0423908Y0030514D02*
X0424775Y0029646D01*
X0426854Y0029646D02*
X0426854Y0030948D01*
X0427722Y0031815D01*
X0427722Y0032249D01*
X0428934Y0031381D02*
X0429801Y0032249D01*
X0429801Y0029646D01*
X0428934Y0029646D02*
X0430668Y0029646D01*
X0426854Y0030948D02*
X0425987Y0031815D01*
X0425987Y0032249D01*
X0421829Y0032249D02*
X0420094Y0032249D01*
X0420094Y0030948D02*
X0420961Y0030948D01*
X0364325Y0054582D02*
X0364206Y0054488D01*
X0364090Y0054390D01*
X0363976Y0054290D01*
X0363865Y0054186D01*
X0363757Y0054080D01*
X0363651Y0053972D01*
X0363549Y0053860D01*
X0363449Y0053746D01*
X0363351Y0053630D01*
X0363257Y0053511D01*
X0363166Y0053390D01*
X0363078Y0053266D01*
X0362993Y0053140D01*
X0362912Y0053013D01*
X0362833Y0052883D01*
X0362758Y0052751D01*
X0362687Y0052618D01*
X0362618Y0052482D01*
X0362553Y0052345D01*
X0362492Y0052207D01*
X0362434Y0052066D01*
X0362380Y0051925D01*
X0362329Y0051782D01*
X0362282Y0051638D01*
X0362238Y0051493D01*
X0362199Y0051346D01*
X0362163Y0051199D01*
X0362130Y0051051D01*
X0362102Y0050902D01*
X0362077Y0050752D01*
X0362056Y0050602D01*
X0362039Y0050452D01*
X0362025Y0050300D01*
X0362016Y0050149D01*
X0362010Y0049998D01*
X0362008Y0049846D01*
X0371608Y0054646D02*
X0371727Y0054554D01*
X0371844Y0054460D01*
X0371958Y0054362D01*
X0372070Y0054262D01*
X0372180Y0054158D01*
X0372286Y0054053D01*
X0372391Y0053944D01*
X0372492Y0053833D01*
X0372590Y0053719D01*
X0372686Y0053603D01*
X0372779Y0053485D01*
X0372868Y0053364D01*
X0372955Y0053241D01*
X0373038Y0053116D01*
X0373119Y0052989D01*
X0373196Y0052860D01*
X0373270Y0052729D01*
X0373341Y0052596D01*
X0373408Y0052462D01*
X0373472Y0052326D01*
X0373532Y0052188D01*
X0373589Y0052049D01*
X0373642Y0051908D01*
X0373692Y0051766D01*
X0373739Y0051623D01*
X0373781Y0051479D01*
X0373821Y0051334D01*
X0373856Y0051188D01*
X0373888Y0051041D01*
X0373916Y0050893D01*
X0373940Y0050745D01*
X0373961Y0050596D01*
X0373978Y0050446D01*
X0373991Y0050297D01*
X0374000Y0050147D01*
X0374006Y0049996D01*
X0374008Y0049846D01*
X0364325Y0045110D02*
X0364206Y0045204D01*
X0364090Y0045302D01*
X0363976Y0045402D01*
X0363865Y0045506D01*
X0363757Y0045612D01*
X0363651Y0045720D01*
X0363549Y0045832D01*
X0363449Y0045946D01*
X0363351Y0046062D01*
X0363257Y0046181D01*
X0363166Y0046302D01*
X0363078Y0046426D01*
X0362993Y0046552D01*
X0362912Y0046679D01*
X0362833Y0046809D01*
X0362758Y0046941D01*
X0362687Y0047074D01*
X0362618Y0047210D01*
X0362553Y0047347D01*
X0362492Y0047485D01*
X0362434Y0047626D01*
X0362380Y0047767D01*
X0362329Y0047910D01*
X0362282Y0048054D01*
X0362238Y0048199D01*
X0362199Y0048346D01*
X0362163Y0048493D01*
X0362130Y0048641D01*
X0362102Y0048790D01*
X0362077Y0048940D01*
X0362056Y0049090D01*
X0362039Y0049240D01*
X0362025Y0049392D01*
X0362016Y0049543D01*
X0362010Y0049694D01*
X0362008Y0049846D01*
X0371495Y0044965D02*
X0371620Y0045056D01*
X0371742Y0045150D01*
X0371861Y0045248D01*
X0371978Y0045348D01*
X0372092Y0045452D01*
X0372204Y0045558D01*
X0372312Y0045667D01*
X0372418Y0045779D01*
X0372521Y0045894D01*
X0372621Y0046011D01*
X0372719Y0046131D01*
X0372812Y0046253D01*
X0372903Y0046377D01*
X0372991Y0046504D01*
X0373075Y0046633D01*
X0373156Y0046765D01*
X0373233Y0046898D01*
X0373307Y0047033D01*
X0373378Y0047170D01*
X0373445Y0047309D01*
X0373508Y0047449D01*
X0373568Y0047592D01*
X0373624Y0047735D01*
X0373676Y0047880D01*
X0373725Y0048026D01*
X0373770Y0048174D01*
X0373811Y0048322D01*
X0373848Y0048472D01*
X0373882Y0048622D01*
X0373911Y0048774D01*
X0373937Y0048926D01*
X0373959Y0049078D01*
X0373976Y0049231D01*
X0373990Y0049385D01*
X0374000Y0049539D01*
X0374006Y0049693D01*
X0374008Y0049847D01*
X0362008Y0074846D02*
X0362010Y0074998D01*
X0362016Y0075149D01*
X0362025Y0075300D01*
X0362039Y0075452D01*
X0362056Y0075602D01*
X0362077Y0075752D01*
X0362102Y0075902D01*
X0362130Y0076051D01*
X0362163Y0076199D01*
X0362199Y0076346D01*
X0362238Y0076493D01*
X0362282Y0076638D01*
X0362329Y0076782D01*
X0362380Y0076925D01*
X0362434Y0077066D01*
X0362492Y0077207D01*
X0362553Y0077345D01*
X0362618Y0077482D01*
X0362687Y0077618D01*
X0362758Y0077751D01*
X0362833Y0077883D01*
X0362912Y0078013D01*
X0362993Y0078140D01*
X0363078Y0078266D01*
X0363166Y0078390D01*
X0363257Y0078511D01*
X0363351Y0078630D01*
X0363449Y0078746D01*
X0363549Y0078860D01*
X0363651Y0078972D01*
X0363757Y0079080D01*
X0363865Y0079186D01*
X0363976Y0079290D01*
X0364090Y0079390D01*
X0364206Y0079488D01*
X0364325Y0079582D01*
X0374008Y0074847D02*
X0374006Y0074693D01*
X0374000Y0074539D01*
X0373990Y0074385D01*
X0373976Y0074231D01*
X0373959Y0074078D01*
X0373937Y0073926D01*
X0373911Y0073774D01*
X0373882Y0073622D01*
X0373848Y0073472D01*
X0373811Y0073322D01*
X0373770Y0073174D01*
X0373725Y0073026D01*
X0373676Y0072880D01*
X0373624Y0072735D01*
X0373568Y0072592D01*
X0373508Y0072449D01*
X0373445Y0072309D01*
X0373378Y0072170D01*
X0373307Y0072033D01*
X0373233Y0071898D01*
X0373156Y0071765D01*
X0373075Y0071633D01*
X0372991Y0071504D01*
X0372903Y0071377D01*
X0372812Y0071253D01*
X0372719Y0071131D01*
X0372621Y0071011D01*
X0372521Y0070894D01*
X0372418Y0070779D01*
X0372312Y0070667D01*
X0372204Y0070558D01*
X0372092Y0070452D01*
X0371978Y0070348D01*
X0371861Y0070248D01*
X0371742Y0070150D01*
X0371620Y0070056D01*
X0371495Y0069965D01*
X0374008Y0074846D02*
X0374006Y0074996D01*
X0374000Y0075147D01*
X0373991Y0075297D01*
X0373978Y0075446D01*
X0373961Y0075596D01*
X0373940Y0075745D01*
X0373916Y0075893D01*
X0373888Y0076041D01*
X0373856Y0076188D01*
X0373821Y0076334D01*
X0373781Y0076479D01*
X0373739Y0076623D01*
X0373692Y0076766D01*
X0373642Y0076908D01*
X0373589Y0077049D01*
X0373532Y0077188D01*
X0373472Y0077326D01*
X0373408Y0077462D01*
X0373341Y0077596D01*
X0373270Y0077729D01*
X0373196Y0077860D01*
X0373119Y0077989D01*
X0373038Y0078116D01*
X0372955Y0078241D01*
X0372868Y0078364D01*
X0372779Y0078485D01*
X0372686Y0078603D01*
X0372590Y0078719D01*
X0372492Y0078833D01*
X0372391Y0078944D01*
X0372286Y0079053D01*
X0372180Y0079158D01*
X0372070Y0079262D01*
X0371958Y0079362D01*
X0371844Y0079460D01*
X0371727Y0079554D01*
X0371608Y0079646D01*
X0362008Y0074846D02*
X0362010Y0074694D01*
X0362016Y0074543D01*
X0362025Y0074392D01*
X0362039Y0074240D01*
X0362056Y0074090D01*
X0362077Y0073940D01*
X0362102Y0073790D01*
X0362130Y0073641D01*
X0362163Y0073493D01*
X0362199Y0073346D01*
X0362238Y0073199D01*
X0362282Y0073054D01*
X0362329Y0072910D01*
X0362380Y0072767D01*
X0362434Y0072626D01*
X0362492Y0072485D01*
X0362553Y0072347D01*
X0362618Y0072210D01*
X0362687Y0072074D01*
X0362758Y0071941D01*
X0362833Y0071809D01*
X0362912Y0071679D01*
X0362993Y0071552D01*
X0363078Y0071426D01*
X0363166Y0071302D01*
X0363257Y0071181D01*
X0363351Y0071062D01*
X0363449Y0070946D01*
X0363549Y0070832D01*
X0363651Y0070720D01*
X0363757Y0070612D01*
X0363865Y0070506D01*
X0363976Y0070402D01*
X0364090Y0070302D01*
X0364206Y0070204D01*
X0364325Y0070110D01*
D12*
X0358303Y0065602D02*
X0357686Y0066219D01*
X0355217Y0066219D01*
X0357686Y0063750D01*
X0358303Y0064368D01*
X0358303Y0065602D01*
X0355217Y0066219D02*
X0354600Y0065602D01*
X0354600Y0064368D01*
X0355217Y0063750D01*
X0357686Y0063750D01*
X0358303Y0062536D02*
X0358303Y0060067D01*
X0358303Y0061302D02*
X0354600Y0061302D01*
X0355834Y0060067D01*
X0355217Y0058853D02*
X0354600Y0058236D01*
X0354600Y0057001D01*
X0355217Y0056384D01*
X0357686Y0056384D01*
X0358303Y0057001D01*
X0358303Y0058236D01*
X0357686Y0058853D01*
X0347378Y0058853D02*
X0347378Y0056384D01*
X0347378Y0055160D02*
X0347378Y0054542D01*
X0346760Y0054542D01*
X0346760Y0055160D01*
X0347378Y0055160D01*
X0348412Y0054180D02*
X0350880Y0054180D01*
X0348412Y0054180D02*
X0348412Y0050477D01*
X0347197Y0050477D02*
X0347197Y0052946D01*
X0347378Y0052711D02*
X0346760Y0053328D01*
X0344292Y0053328D01*
X0346760Y0050859D01*
X0347378Y0051476D01*
X0347378Y0052711D01*
X0348412Y0052328D02*
X0349646Y0052328D01*
X0346760Y0050859D02*
X0344292Y0050859D01*
X0343674Y0051476D01*
X0343674Y0052711D01*
X0344292Y0053328D01*
X0344729Y0052946D02*
X0344729Y0051094D01*
X0345346Y0050477D01*
X0347197Y0050477D01*
X0343514Y0050477D02*
X0341045Y0050477D01*
X0339821Y0050477D02*
X0339821Y0051094D01*
X0339204Y0051094D01*
X0339204Y0050477D01*
X0339821Y0050477D01*
X0337989Y0051094D02*
X0337372Y0050477D01*
X0336138Y0050477D01*
X0335521Y0051094D01*
X0337989Y0053563D01*
X0337989Y0051094D01*
X0335521Y0051094D02*
X0335521Y0053563D01*
X0336138Y0054180D01*
X0337372Y0054180D01*
X0337989Y0053563D01*
X0341045Y0052946D02*
X0342280Y0054180D01*
X0342280Y0050477D01*
X0344909Y0056384D02*
X0343674Y0057618D01*
X0347378Y0057618D01*
X0346760Y0060067D02*
X0347378Y0060684D01*
X0347378Y0062536D01*
X0344909Y0062536D01*
X0345526Y0063750D02*
X0345526Y0064985D01*
X0343674Y0066219D02*
X0343674Y0063750D01*
X0347378Y0063750D01*
X0346760Y0060067D02*
X0344909Y0060067D01*
X0345963Y0043255D02*
X0345963Y0039552D01*
X0344729Y0039552D02*
X0347197Y0039552D01*
X0348412Y0039552D02*
X0350881Y0042020D01*
X0350881Y0042638D01*
X0350263Y0043255D01*
X0349029Y0043255D01*
X0348412Y0042638D01*
X0345963Y0043255D02*
X0344729Y0042020D01*
X0343514Y0042638D02*
X0342897Y0043255D01*
X0341663Y0043255D01*
X0341045Y0042638D01*
X0341045Y0040169D01*
X0341663Y0039552D01*
X0342897Y0039552D01*
X0343514Y0040169D01*
X0348412Y0039552D02*
X0350881Y0039552D01*
X0374526Y0031107D02*
X0374526Y0029172D01*
X0374526Y0030139D02*
X0371624Y0030139D01*
X0372591Y0029172D01*
X0372108Y0028160D02*
X0371624Y0027677D01*
X0371624Y0026225D01*
X0374526Y0026225D01*
X0374526Y0027677D01*
X0374043Y0028160D01*
X0372108Y0028160D01*
X0371624Y0025214D02*
X0371624Y0023279D01*
X0374526Y0023279D01*
X0374526Y0025214D01*
X0373075Y0024246D02*
X0373075Y0023279D01*
X0374526Y0022267D02*
X0374526Y0020332D01*
X0371624Y0020332D01*
X0384092Y0025434D02*
X0384092Y0026885D01*
X0384576Y0027369D01*
X0386511Y0027369D01*
X0386995Y0026885D01*
X0386995Y0025434D01*
X0384092Y0025434D01*
X0391092Y0025434D02*
X0391092Y0026885D01*
X0391576Y0027369D01*
X0393511Y0027369D01*
X0393995Y0026885D01*
X0393995Y0025434D01*
X0391092Y0025434D01*
X0392060Y0028381D02*
X0391092Y0029348D01*
X0393995Y0029348D01*
X0393995Y0028381D02*
X0393995Y0030316D01*
X0386995Y0030316D02*
X0386995Y0028381D01*
X0385060Y0030316D01*
X0384576Y0030316D01*
X0384092Y0029832D01*
X0384092Y0028864D01*
X0384576Y0028381D01*
X0405924Y0027904D02*
X0405924Y0026936D01*
X0406408Y0026452D01*
X0408343Y0026452D01*
X0406408Y0028387D01*
X0408343Y0028387D01*
X0408826Y0027904D01*
X0408826Y0026936D01*
X0408343Y0026452D01*
X0408343Y0025441D02*
X0406408Y0025441D01*
X0405924Y0024957D01*
X0405924Y0023990D01*
X0406408Y0023506D01*
X0406891Y0023506D01*
X0407375Y0023990D01*
X0407375Y0025441D01*
X0408343Y0025441D02*
X0408826Y0024957D01*
X0408826Y0023990D01*
X0408343Y0023506D01*
X0408343Y0022494D02*
X0408826Y0022011D01*
X0408826Y0021043D01*
X0408343Y0020559D01*
X0407375Y0021527D02*
X0407375Y0022011D01*
X0407859Y0022494D01*
X0408343Y0022494D01*
X0407375Y0022011D02*
X0406891Y0022494D01*
X0406408Y0022494D01*
X0405924Y0022011D01*
X0405924Y0021043D01*
X0406408Y0020559D01*
X0402638Y0019160D02*
X0402155Y0019644D01*
X0401187Y0019644D01*
X0400703Y0019160D01*
X0402638Y0019160D02*
X0402638Y0018676D01*
X0400703Y0016741D01*
X0402638Y0016741D01*
X0399692Y0016741D02*
X0397757Y0016741D01*
X0398724Y0016741D02*
X0398724Y0019644D01*
X0397757Y0018676D01*
X0396745Y0019160D02*
X0396745Y0018193D01*
X0396262Y0017709D01*
X0394810Y0017709D01*
X0394810Y0016741D02*
X0394810Y0019644D01*
X0396262Y0019644D01*
X0396745Y0019160D01*
X0395778Y0017709D02*
X0396745Y0016741D01*
X0405924Y0027904D02*
X0406408Y0028387D01*
X0278495Y0021919D02*
X0276560Y0021919D01*
X0276560Y0019016D01*
X0275549Y0019016D02*
X0275549Y0020951D01*
X0276560Y0020467D02*
X0277528Y0020467D01*
X0274098Y0019016D02*
X0273614Y0019500D01*
X0273614Y0020951D01*
X0272602Y0021435D02*
X0270667Y0019500D01*
X0270667Y0019016D01*
X0269172Y0019016D02*
X0269172Y0021919D01*
X0267721Y0020467D01*
X0269656Y0020467D01*
X0270667Y0021919D02*
X0272602Y0021919D01*
X0272602Y0021435D01*
X0274098Y0019016D02*
X0275549Y0019016D01*
X0272602Y0029941D02*
X0270667Y0029941D01*
X0271635Y0029941D02*
X0271635Y0032844D01*
X0270667Y0031876D01*
X0269656Y0032360D02*
X0269172Y0032844D01*
X0268205Y0032844D01*
X0267721Y0032360D01*
X0267721Y0030425D01*
X0268205Y0029941D01*
X0269172Y0029941D01*
X0269656Y0030425D01*
X0216558Y0026001D02*
X0216558Y0025034D01*
X0216074Y0024550D01*
X0215107Y0024550D01*
X0215107Y0026001D01*
X0215590Y0026485D01*
X0216074Y0026485D01*
X0216558Y0026001D01*
X0215107Y0024550D02*
X0214139Y0025517D01*
X0213655Y0026485D01*
X0209358Y0026894D02*
X0209358Y0025927D01*
X0208874Y0025443D01*
X0206939Y0027378D01*
X0208874Y0027378D01*
X0209358Y0026894D01*
X0208874Y0025443D02*
X0206939Y0025443D01*
X0206455Y0025927D01*
X0206455Y0026894D01*
X0206939Y0027378D01*
X0206939Y0028389D02*
X0206455Y0028873D01*
X0206455Y0029841D01*
X0206939Y0030324D01*
X0208874Y0028389D01*
X0209358Y0028873D01*
X0209358Y0029841D01*
X0208874Y0030324D01*
X0206939Y0030324D01*
X0206455Y0031336D02*
X0209358Y0031336D01*
X0208390Y0031336D02*
X0206455Y0033271D01*
X0206104Y0033464D02*
X0208039Y0035399D01*
X0206104Y0035399D02*
X0206104Y0032496D01*
X0205093Y0032496D02*
X0203158Y0032496D01*
X0204125Y0032496D02*
X0204125Y0035399D01*
X0203158Y0034431D01*
X0206588Y0033948D02*
X0208039Y0032496D01*
X0207907Y0031820D02*
X0209358Y0033271D01*
X0195358Y0030324D02*
X0193907Y0028873D01*
X0194390Y0028389D02*
X0192455Y0030324D01*
X0192455Y0028389D02*
X0195358Y0028389D01*
X0194874Y0027378D02*
X0195358Y0026894D01*
X0195358Y0025927D01*
X0194874Y0025443D01*
X0192939Y0027378D01*
X0194874Y0027378D01*
X0196455Y0027378D02*
X0196455Y0025443D01*
X0197907Y0025443D01*
X0197423Y0026410D01*
X0197423Y0026894D01*
X0197907Y0027378D01*
X0198874Y0027378D01*
X0199358Y0026894D01*
X0199358Y0025927D01*
X0198874Y0025443D01*
X0199358Y0024431D02*
X0198390Y0023464D01*
X0198390Y0023948D02*
X0198390Y0022496D01*
X0199358Y0022496D02*
X0196455Y0022496D01*
X0196455Y0023948D01*
X0196939Y0024431D01*
X0197907Y0024431D01*
X0198390Y0023948D01*
X0195358Y0024431D02*
X0195358Y0022496D01*
X0195358Y0023464D02*
X0192455Y0023464D01*
X0193423Y0022496D01*
X0185358Y0024996D02*
X0182455Y0024996D01*
X0182455Y0026448D01*
X0182939Y0026931D01*
X0183907Y0026931D01*
X0184390Y0026448D01*
X0184390Y0024996D01*
X0184390Y0025964D02*
X0185358Y0026931D01*
X0185358Y0027943D02*
X0185358Y0029878D01*
X0185358Y0028910D02*
X0182455Y0028910D01*
X0183423Y0027943D01*
X0176373Y0029059D02*
X0176373Y0029676D01*
X0175756Y0030293D01*
X0175138Y0030293D01*
X0175756Y0030293D02*
X0176373Y0030910D01*
X0176373Y0031527D01*
X0175756Y0032145D01*
X0174521Y0032145D01*
X0173904Y0031527D01*
X0172690Y0031527D02*
X0172072Y0032145D01*
X0170838Y0032145D01*
X0170221Y0031527D01*
X0170221Y0029059D01*
X0170838Y0028441D01*
X0172072Y0028441D01*
X0172690Y0029059D01*
X0173904Y0029059D02*
X0174521Y0028441D01*
X0175756Y0028441D01*
X0176373Y0029059D01*
X0182455Y0030889D02*
X0182455Y0032824D01*
X0182939Y0032824D01*
X0184874Y0030889D01*
X0185358Y0030889D01*
X0192455Y0026894D02*
X0192939Y0027378D01*
X0192455Y0026894D02*
X0192455Y0025927D01*
X0192939Y0025443D01*
X0194874Y0025443D01*
X0206455Y0023464D02*
X0207423Y0022496D01*
X0206455Y0023464D02*
X0209358Y0023464D01*
X0209358Y0024431D02*
X0209358Y0022496D01*
X0213655Y0023055D02*
X0213655Y0021603D01*
X0216558Y0021603D01*
X0215590Y0021603D02*
X0215590Y0023055D01*
X0215107Y0023538D01*
X0214139Y0023538D01*
X0213655Y0023055D01*
X0215590Y0022571D02*
X0216558Y0023538D01*
X0208874Y0028389D02*
X0206939Y0028389D01*
X0183739Y0021219D02*
X0181270Y0021219D01*
X0181270Y0017516D01*
X0180056Y0017516D02*
X0180056Y0019985D01*
X0181270Y0019368D02*
X0182505Y0019368D01*
X0177587Y0019985D02*
X0177587Y0018133D01*
X0178204Y0017516D01*
X0180056Y0017516D01*
X0176373Y0018133D02*
X0175756Y0017516D01*
X0174521Y0017516D01*
X0173904Y0018133D01*
X0176373Y0020602D01*
X0176373Y0018133D01*
X0173904Y0018133D02*
X0173904Y0020602D01*
X0174521Y0021219D01*
X0175756Y0021219D01*
X0176373Y0020602D01*
X0171455Y0021219D02*
X0170221Y0019985D01*
X0171455Y0021219D02*
X0171455Y0017516D01*
X0170221Y0017516D02*
X0172690Y0017516D01*
X0163058Y0017103D02*
X0163058Y0019038D01*
X0163058Y0018071D02*
X0160155Y0018071D01*
X0161123Y0017103D01*
X0161607Y0016092D02*
X0162090Y0015608D01*
X0162090Y0014157D01*
X0162090Y0015124D02*
X0163058Y0016092D01*
X0161607Y0016092D02*
X0160639Y0016092D01*
X0160155Y0015608D01*
X0160155Y0014157D01*
X0163058Y0014157D01*
X0162574Y0020050D02*
X0163058Y0020534D01*
X0163058Y0021501D01*
X0162574Y0021985D01*
X0161607Y0021985D01*
X0161123Y0021501D01*
X0161123Y0021017D01*
X0161607Y0020050D01*
X0160155Y0020050D01*
X0160155Y0021985D01*
X0151558Y0023103D02*
X0151558Y0025038D01*
X0151558Y0024071D02*
X0148655Y0024071D01*
X0149623Y0023103D01*
X0150590Y0026050D02*
X0148655Y0027985D01*
X0150107Y0026534D02*
X0151558Y0027985D01*
X0151558Y0026050D02*
X0148655Y0026050D01*
X0131648Y0029277D02*
X0131648Y0032179D01*
X0133583Y0032179D01*
X0132616Y0030728D02*
X0131648Y0030728D01*
X0130637Y0031212D02*
X0130637Y0029277D01*
X0129186Y0029277D01*
X0128702Y0029761D01*
X0128702Y0031212D01*
X0127690Y0031212D02*
X0127207Y0030728D01*
X0127690Y0030244D01*
X0127690Y0029761D01*
X0127207Y0029277D01*
X0126239Y0029277D01*
X0125755Y0029761D01*
X0124766Y0029761D02*
X0124766Y0029277D01*
X0124282Y0029277D01*
X0124282Y0029761D01*
X0124766Y0029761D01*
X0123271Y0029761D02*
X0122787Y0029277D01*
X0121819Y0029277D01*
X0121336Y0029761D01*
X0122303Y0030728D02*
X0122787Y0030728D01*
X0123271Y0030244D01*
X0123271Y0029761D01*
X0122787Y0030728D02*
X0123271Y0031212D01*
X0123271Y0031695D01*
X0122787Y0032179D01*
X0121819Y0032179D01*
X0121336Y0031695D01*
X0121619Y0032516D02*
X0120651Y0032516D01*
X0120167Y0033000D01*
X0122102Y0034935D01*
X0122102Y0033000D01*
X0121619Y0032516D01*
X0120167Y0033000D02*
X0120167Y0034935D01*
X0120651Y0035419D01*
X0121619Y0035419D01*
X0122102Y0034935D01*
X0123114Y0034451D02*
X0123114Y0033000D01*
X0123598Y0032516D01*
X0125049Y0032516D01*
X0125049Y0034451D01*
X0126060Y0033967D02*
X0127028Y0033967D01*
X0126060Y0032516D02*
X0126060Y0035419D01*
X0127995Y0035419D01*
X0118188Y0035419D02*
X0117221Y0034451D01*
X0118188Y0035419D02*
X0118188Y0032516D01*
X0117221Y0032516D02*
X0119156Y0032516D01*
X0125755Y0031695D02*
X0126239Y0032179D01*
X0127207Y0032179D01*
X0127690Y0031695D01*
X0127690Y0031212D01*
X0127207Y0030728D02*
X0126723Y0030728D01*
X0112803Y0034684D02*
X0112186Y0034067D01*
X0109717Y0034067D01*
X0109100Y0034684D01*
X0109100Y0035919D01*
X0109717Y0036536D01*
X0112186Y0036536D02*
X0112803Y0035919D01*
X0112803Y0034684D01*
X0103112Y0034067D02*
X0099409Y0034067D01*
X0099409Y0035919D01*
X0100026Y0036536D01*
X0101260Y0036536D01*
X0101878Y0035919D01*
X0101878Y0034067D01*
X0101260Y0032853D02*
X0101878Y0032236D01*
X0101878Y0031001D01*
X0101260Y0030384D01*
X0101260Y0029160D02*
X0101878Y0029160D01*
X0101878Y0028542D01*
X0101260Y0028542D01*
X0101260Y0029160D01*
X0100672Y0028844D02*
X0099705Y0028844D01*
X0099221Y0028360D01*
X0099221Y0026425D01*
X0099705Y0025941D01*
X0100672Y0025941D01*
X0101156Y0026425D01*
X0101878Y0026711D02*
X0101878Y0025476D01*
X0101260Y0024859D01*
X0102167Y0025941D02*
X0104102Y0027876D01*
X0104102Y0028360D01*
X0103619Y0028844D01*
X0102651Y0028844D01*
X0102167Y0028360D01*
X0101156Y0028360D02*
X0100672Y0028844D01*
X0098792Y0030384D02*
X0098174Y0031001D01*
X0098174Y0032236D01*
X0098792Y0032853D01*
X0099409Y0032853D01*
X0100026Y0032236D01*
X0100643Y0032853D01*
X0101260Y0032853D01*
X0100026Y0032236D02*
X0100026Y0031618D01*
X0090646Y0034280D02*
X0090163Y0033796D01*
X0089195Y0033796D01*
X0088711Y0034280D01*
X0090646Y0036215D01*
X0090646Y0034280D01*
X0091526Y0034859D02*
X0091042Y0035343D01*
X0091526Y0034859D02*
X0092493Y0034859D01*
X0092977Y0035343D01*
X0092977Y0035827D01*
X0092493Y0036311D01*
X0092010Y0036311D01*
X0092493Y0036311D02*
X0092977Y0036794D01*
X0092977Y0037278D01*
X0092493Y0037762D01*
X0091526Y0037762D01*
X0091042Y0037278D01*
X0090031Y0037278D02*
X0089547Y0037762D01*
X0088096Y0037762D01*
X0088096Y0034859D01*
X0089547Y0034859D01*
X0090031Y0035343D01*
X0090031Y0037278D01*
X0090163Y0036699D02*
X0090646Y0036215D01*
X0090163Y0036699D02*
X0089195Y0036699D01*
X0088711Y0036215D01*
X0088711Y0034280D01*
X0087700Y0033796D02*
X0085765Y0033796D01*
X0086732Y0033796D02*
X0086732Y0036699D01*
X0085765Y0035731D01*
X0098174Y0037750D02*
X0098174Y0040219D01*
X0100026Y0038985D02*
X0100026Y0037750D01*
X0101878Y0037750D02*
X0098174Y0037750D01*
X0109100Y0037750D02*
X0109100Y0040219D01*
X0109717Y0040219D01*
X0112186Y0037750D01*
X0112803Y0037750D01*
X0117705Y0043441D02*
X0118672Y0043441D01*
X0119156Y0043925D01*
X0120167Y0043925D02*
X0120651Y0043441D01*
X0121619Y0043441D01*
X0122102Y0043925D01*
X0122102Y0044893D01*
X0121619Y0045376D01*
X0121135Y0045376D01*
X0120167Y0044893D01*
X0120167Y0046344D01*
X0122102Y0046344D01*
X0119156Y0045860D02*
X0118672Y0046344D01*
X0117705Y0046344D01*
X0117221Y0045860D01*
X0117221Y0043925D01*
X0117705Y0043441D01*
X0105986Y0047496D02*
X0104535Y0048948D01*
X0104051Y0048464D02*
X0105986Y0050399D01*
X0104051Y0050399D02*
X0104051Y0047496D01*
X0103039Y0047980D02*
X0102556Y0047496D01*
X0101588Y0047496D01*
X0101104Y0047980D01*
X0103039Y0049915D01*
X0103039Y0047980D01*
X0101104Y0047980D02*
X0101104Y0049915D01*
X0101588Y0050399D01*
X0102556Y0050399D01*
X0103039Y0049915D01*
X0099125Y0050399D02*
X0098158Y0049431D01*
X0099125Y0050399D02*
X0099125Y0047496D01*
X0098158Y0047496D02*
X0100093Y0047496D01*
X0092977Y0047319D02*
X0092977Y0046835D01*
X0092493Y0046352D01*
X0091526Y0046352D01*
X0091042Y0046835D01*
X0091042Y0047319D01*
X0091526Y0047803D01*
X0092493Y0047803D01*
X0092977Y0047319D01*
X0092493Y0047803D02*
X0092977Y0048287D01*
X0092977Y0048770D01*
X0092493Y0049254D01*
X0091526Y0049254D01*
X0091042Y0048770D01*
X0091042Y0048287D01*
X0091526Y0047803D01*
X0090031Y0047803D02*
X0088096Y0047803D01*
X0089547Y0049254D01*
X0089547Y0046352D01*
X0087084Y0046352D02*
X0085149Y0046352D01*
X0086117Y0046352D02*
X0086117Y0049254D01*
X0085149Y0048287D01*
X0085663Y0048296D02*
X0085663Y0051199D01*
X0084211Y0049748D01*
X0086146Y0049748D01*
X0083654Y0049254D02*
X0082203Y0047803D01*
X0084137Y0047803D01*
X0083200Y0048296D02*
X0081265Y0048296D01*
X0081191Y0049254D02*
X0081191Y0046352D01*
X0079256Y0049254D01*
X0079256Y0046352D01*
X0078244Y0046352D02*
X0076309Y0046352D01*
X0077277Y0046352D02*
X0077277Y0049254D01*
X0076309Y0048287D01*
X0078318Y0048296D02*
X0078318Y0051199D01*
X0079770Y0051199D01*
X0080253Y0050715D01*
X0080253Y0049748D01*
X0079770Y0049264D01*
X0078318Y0049264D01*
X0079286Y0049264D02*
X0080253Y0048296D01*
X0082232Y0048296D02*
X0082232Y0051199D01*
X0081265Y0050231D01*
X0083654Y0049254D02*
X0083654Y0046352D01*
X0119955Y0056230D02*
X0120439Y0055746D01*
X0122374Y0055746D01*
X0122858Y0056230D01*
X0122858Y0057198D01*
X0122374Y0057681D01*
X0120439Y0057681D01*
X0119955Y0057198D01*
X0119955Y0056230D01*
X0121890Y0056714D02*
X0122858Y0057681D01*
X0122858Y0058693D02*
X0122858Y0060628D01*
X0122858Y0059660D02*
X0119955Y0059660D01*
X0120923Y0058693D01*
X0105986Y0057496D02*
X0104051Y0057496D01*
X0105018Y0057496D02*
X0105018Y0060399D01*
X0104051Y0059431D01*
X0102072Y0060399D02*
X0102072Y0057496D01*
X0103039Y0057496D02*
X0101104Y0057496D01*
X0100093Y0057496D02*
X0099125Y0058464D01*
X0099609Y0058464D02*
X0098158Y0058464D01*
X0098158Y0057496D02*
X0098158Y0060399D01*
X0099609Y0060399D01*
X0100093Y0059915D01*
X0100093Y0058948D01*
X0099609Y0058464D01*
X0101104Y0059431D02*
X0102072Y0060399D01*
X0086146Y0060296D02*
X0084695Y0061748D01*
X0084211Y0061264D02*
X0086146Y0063199D01*
X0084211Y0063199D02*
X0084211Y0060296D01*
X0083200Y0060296D02*
X0081265Y0060296D01*
X0083200Y0062231D01*
X0083200Y0062715D01*
X0082716Y0063199D01*
X0081749Y0063199D01*
X0081265Y0062715D01*
X0077813Y0063199D02*
X0077813Y0060296D01*
X0078780Y0060296D02*
X0076845Y0060296D01*
X0079792Y0060296D02*
X0080275Y0060296D01*
X0080275Y0060780D01*
X0079792Y0060780D01*
X0079792Y0060296D01*
X0077813Y0063199D02*
X0076845Y0062231D01*
X0175658Y0058399D02*
X0176625Y0058399D01*
X0176142Y0058399D02*
X0176142Y0055496D01*
X0176625Y0055496D02*
X0175658Y0055496D01*
X0177622Y0055980D02*
X0178106Y0055496D01*
X0179073Y0055496D01*
X0179557Y0055980D01*
X0180569Y0055496D02*
X0182504Y0055496D01*
X0181536Y0055496D02*
X0181536Y0058399D01*
X0180569Y0057431D01*
X0179557Y0057915D02*
X0179073Y0058399D01*
X0178106Y0058399D01*
X0177622Y0057915D01*
X0177622Y0055980D01*
X0183265Y0056796D02*
X0183265Y0059699D01*
X0184716Y0059699D01*
X0185200Y0059215D01*
X0185200Y0058248D01*
X0184716Y0057764D01*
X0183265Y0057764D01*
X0184232Y0057764D02*
X0185200Y0056796D01*
X0186211Y0056796D02*
X0186211Y0057280D01*
X0188146Y0059215D01*
X0188146Y0059699D01*
X0186211Y0059699D01*
X0203158Y0055399D02*
X0204609Y0055399D01*
X0205093Y0054915D01*
X0205093Y0053948D01*
X0204609Y0053464D01*
X0203158Y0053464D01*
X0204125Y0053464D02*
X0205093Y0052496D01*
X0206104Y0052980D02*
X0206588Y0052496D01*
X0207556Y0052496D01*
X0208039Y0052980D01*
X0208039Y0053464D01*
X0207556Y0053948D01*
X0207072Y0053948D01*
X0207556Y0053948D02*
X0208039Y0054431D01*
X0208039Y0054915D01*
X0207556Y0055399D01*
X0206588Y0055399D01*
X0206104Y0054915D01*
X0203158Y0055399D02*
X0203158Y0052496D01*
X0218158Y0052496D02*
X0218158Y0055399D01*
X0219609Y0055399D01*
X0220093Y0054915D01*
X0220093Y0053948D01*
X0219609Y0053464D01*
X0218158Y0053464D01*
X0219125Y0053464D02*
X0220093Y0052496D01*
X0221104Y0052496D02*
X0223039Y0054431D01*
X0223039Y0054915D01*
X0222556Y0055399D01*
X0221588Y0055399D01*
X0221104Y0054915D01*
X0221104Y0052496D02*
X0223039Y0052496D01*
X0223061Y0045399D02*
X0222578Y0044915D01*
X0223061Y0045399D02*
X0224029Y0045399D01*
X0224513Y0044915D01*
X0224513Y0044431D01*
X0222578Y0042496D01*
X0224513Y0042496D01*
X0225524Y0042496D02*
X0225524Y0045399D01*
X0226008Y0043948D02*
X0227459Y0042496D01*
X0225524Y0043464D02*
X0227459Y0045399D01*
X0219125Y0045399D02*
X0219125Y0042496D01*
X0218158Y0042496D02*
X0220093Y0042496D01*
X0221104Y0042496D02*
X0221588Y0042496D01*
X0221588Y0042980D01*
X0221104Y0042980D01*
X0221104Y0042496D01*
X0219125Y0045399D02*
X0218158Y0044431D01*
X0210986Y0044915D02*
X0210986Y0042980D01*
X0210502Y0042496D01*
X0209535Y0042496D01*
X0209051Y0042980D01*
X0210986Y0044915D01*
X0210502Y0045399D01*
X0209535Y0045399D01*
X0209051Y0044915D01*
X0209051Y0042980D01*
X0208039Y0042496D02*
X0208039Y0045399D01*
X0207072Y0044431D01*
X0206104Y0045399D01*
X0206104Y0042496D01*
X0208039Y0042496D01*
X0207072Y0042496D02*
X0207072Y0045399D01*
X0206104Y0044431D01*
X0205093Y0043948D02*
X0204609Y0043464D01*
X0203158Y0043464D01*
X0204125Y0043464D02*
X0205093Y0042496D01*
X0203158Y0042496D01*
X0203158Y0045399D01*
X0204609Y0045399D01*
X0205093Y0044915D01*
X0205093Y0043948D01*
X0204125Y0045399D02*
X0204125Y0042496D01*
X0203158Y0044431D02*
X0204125Y0045399D01*
X0191778Y0066270D02*
X0188876Y0066270D01*
X0188876Y0067721D01*
X0189360Y0068205D01*
X0190327Y0068205D01*
X0190811Y0067721D01*
X0190811Y0066270D01*
X0188146Y0066796D02*
X0186695Y0068248D01*
X0186211Y0067764D02*
X0188146Y0069699D01*
X0188876Y0069700D02*
X0191778Y0069700D01*
X0191778Y0069216D02*
X0191778Y0070184D01*
X0191778Y0071181D02*
X0188876Y0071181D01*
X0188876Y0073116D01*
X0188876Y0074127D02*
X0188876Y0076062D01*
X0189360Y0076062D01*
X0191295Y0074127D01*
X0191778Y0074127D01*
X0191778Y0076062D01*
X0192390Y0076443D02*
X0190455Y0078378D01*
X0191295Y0079009D02*
X0189360Y0079009D01*
X0188876Y0078525D01*
X0188876Y0077557D01*
X0189360Y0077074D01*
X0191295Y0077074D01*
X0191778Y0077557D01*
X0191778Y0078525D01*
X0191295Y0079009D01*
X0193358Y0078378D02*
X0191907Y0076927D01*
X0193358Y0076443D02*
X0190455Y0076443D01*
X0193358Y0075431D02*
X0193358Y0073496D01*
X0193358Y0074464D02*
X0190455Y0074464D01*
X0191423Y0073496D01*
X0191778Y0073116D02*
X0191778Y0071181D01*
X0190327Y0071181D02*
X0190327Y0072148D01*
X0188876Y0070184D02*
X0188876Y0069216D01*
X0186211Y0069699D02*
X0186211Y0066796D01*
X0185200Y0066796D02*
X0183265Y0066796D01*
X0184232Y0066796D02*
X0184232Y0069699D01*
X0183265Y0068731D01*
X0183358Y0073496D02*
X0180455Y0073496D01*
X0180455Y0074948D01*
X0180939Y0075431D01*
X0181907Y0075431D01*
X0182390Y0074948D01*
X0182390Y0073496D01*
X0182390Y0074464D02*
X0183358Y0075431D01*
X0182874Y0076443D02*
X0182390Y0076443D01*
X0181907Y0076927D01*
X0181907Y0077894D01*
X0182390Y0078378D01*
X0182874Y0078378D01*
X0183358Y0077894D01*
X0183358Y0076927D01*
X0182874Y0076443D01*
X0181907Y0076927D02*
X0181423Y0076443D01*
X0180939Y0076443D01*
X0180455Y0076927D01*
X0180455Y0077894D01*
X0180939Y0078378D01*
X0181423Y0078378D01*
X0181907Y0077894D01*
X0217408Y0074415D02*
X0217408Y0072480D01*
X0217892Y0071996D01*
X0218859Y0071996D01*
X0219343Y0072480D01*
X0219343Y0074415D01*
X0218859Y0074899D01*
X0217892Y0074899D01*
X0217408Y0074415D01*
X0217658Y0074915D02*
X0218142Y0075399D01*
X0219109Y0075399D01*
X0219593Y0074915D01*
X0219593Y0074431D01*
X0217658Y0072496D01*
X0219593Y0072496D01*
X0219343Y0071996D02*
X0218375Y0072964D01*
X0220354Y0071996D02*
X0222289Y0073931D01*
X0222289Y0074415D01*
X0221806Y0074899D01*
X0220838Y0074899D01*
X0220354Y0074415D01*
X0222078Y0074915D02*
X0222561Y0075399D01*
X0223529Y0075399D01*
X0224013Y0074915D01*
X0224013Y0074431D01*
X0222078Y0072496D01*
X0224013Y0072496D01*
X0225024Y0072496D02*
X0225024Y0075399D01*
X0225024Y0073464D02*
X0226959Y0075399D01*
X0225508Y0073948D02*
X0226959Y0072496D01*
X0222289Y0071996D02*
X0220354Y0071996D01*
X0220604Y0072496D02*
X0221088Y0072496D01*
X0221088Y0072980D01*
X0220604Y0072980D01*
X0220604Y0072496D01*
X0220604Y0082496D02*
X0222539Y0082496D01*
X0221572Y0082496D02*
X0221572Y0085399D01*
X0220604Y0084431D01*
X0219593Y0084915D02*
X0219593Y0083948D01*
X0219109Y0083464D01*
X0217658Y0083464D01*
X0218625Y0083464D02*
X0219593Y0082496D01*
X0217658Y0082496D02*
X0217658Y0085399D01*
X0219109Y0085399D01*
X0219593Y0084915D01*
X0093146Y0029199D02*
X0092179Y0028715D01*
X0091211Y0027748D01*
X0092663Y0027748D01*
X0093146Y0027264D01*
X0093146Y0026780D01*
X0092663Y0026296D01*
X0091695Y0026296D01*
X0091211Y0026780D01*
X0091211Y0027748D01*
X0089232Y0029199D02*
X0089232Y0026296D01*
X0088265Y0026296D02*
X0090200Y0026296D01*
X0087253Y0026296D02*
X0086286Y0027264D01*
X0086770Y0027264D02*
X0085318Y0027264D01*
X0085318Y0026296D02*
X0085318Y0029199D01*
X0086770Y0029199D01*
X0087253Y0028715D01*
X0087253Y0027748D01*
X0086770Y0027264D01*
X0088265Y0028231D02*
X0089232Y0029199D01*
X0098174Y0026711D02*
X0098792Y0027328D01*
X0099409Y0027328D01*
X0100026Y0026711D01*
X0100643Y0027328D01*
X0101260Y0027328D01*
X0101878Y0026711D01*
X0102167Y0025941D02*
X0104102Y0025941D01*
X0100026Y0026094D02*
X0100026Y0026711D01*
X0098174Y0026711D02*
X0098174Y0025476D01*
X0098792Y0024859D01*
X0093558Y0023501D02*
X0093558Y0022534D01*
X0093074Y0022050D01*
X0093558Y0021038D02*
X0093558Y0019103D01*
X0093558Y0020071D02*
X0090655Y0020071D01*
X0091623Y0019103D01*
X0092107Y0018092D02*
X0092590Y0017608D01*
X0092590Y0016157D01*
X0092590Y0017124D02*
X0093558Y0018092D01*
X0092107Y0018092D02*
X0091139Y0018092D01*
X0090655Y0017608D01*
X0090655Y0016157D01*
X0093558Y0016157D01*
X0099221Y0015500D02*
X0099705Y0015016D01*
X0100672Y0015016D01*
X0101156Y0015500D01*
X0101156Y0017435D01*
X0099221Y0015500D01*
X0099221Y0017435D01*
X0099705Y0017919D01*
X0100672Y0017919D01*
X0101156Y0017435D01*
X0103641Y0016951D02*
X0104608Y0017919D01*
X0104608Y0015016D01*
X0103641Y0015016D02*
X0105576Y0015016D01*
X0106587Y0015500D02*
X0107071Y0015016D01*
X0108522Y0015016D01*
X0108522Y0016951D01*
X0109534Y0016467D02*
X0110501Y0016467D01*
X0109534Y0015016D02*
X0109534Y0017919D01*
X0111469Y0017919D01*
X0106587Y0016951D02*
X0106587Y0015500D01*
X0102651Y0015500D02*
X0102651Y0015016D01*
X0102167Y0015016D01*
X0102167Y0015500D01*
X0102651Y0015500D01*
X0122702Y0016835D02*
X0123186Y0016352D01*
X0124153Y0016352D01*
X0124637Y0016835D01*
X0125648Y0016835D02*
X0126132Y0016352D01*
X0127100Y0016352D01*
X0127583Y0016835D01*
X0127583Y0017319D01*
X0127100Y0017803D01*
X0125648Y0017803D01*
X0125648Y0016835D01*
X0125648Y0017803D02*
X0126616Y0018770D01*
X0127583Y0019254D01*
X0124637Y0018770D02*
X0124153Y0019254D01*
X0123186Y0019254D01*
X0122702Y0018770D01*
X0122702Y0016835D01*
X0093558Y0023501D02*
X0093074Y0023985D01*
X0092590Y0023985D01*
X0092107Y0023501D01*
X0092107Y0023017D01*
X0092107Y0023501D02*
X0091623Y0023985D01*
X0091139Y0023985D01*
X0090655Y0023501D01*
X0090655Y0022534D01*
X0091139Y0022050D01*
X0081558Y0022050D02*
X0078655Y0022050D01*
X0079623Y0023017D01*
X0078655Y0023985D01*
X0081558Y0023985D01*
X0081074Y0021038D02*
X0079139Y0021038D01*
X0081074Y0019103D01*
X0081558Y0019587D01*
X0081558Y0020555D01*
X0081074Y0021038D01*
X0079139Y0021038D02*
X0078655Y0020555D01*
X0078655Y0019587D01*
X0079139Y0019103D01*
X0081074Y0019103D01*
X0081558Y0018092D02*
X0081558Y0016157D01*
X0081558Y0017124D02*
X0078655Y0017124D01*
X0079623Y0016157D01*
X0206658Y0016431D02*
X0207625Y0017399D01*
X0207625Y0014496D01*
X0206658Y0014496D02*
X0208593Y0014496D01*
X0209604Y0014980D02*
X0210088Y0014496D01*
X0211056Y0014496D01*
X0211539Y0014980D01*
X0211539Y0015948D01*
X0211056Y0016431D01*
X0210572Y0016431D01*
X0209604Y0015948D01*
X0209604Y0017399D01*
X0211539Y0017399D01*
X0212551Y0016915D02*
X0213035Y0017399D01*
X0214002Y0017399D01*
X0214486Y0016915D01*
X0212551Y0014980D01*
X0213035Y0014496D01*
X0214002Y0014496D01*
X0214486Y0014980D01*
X0214486Y0016915D01*
X0215497Y0017399D02*
X0215497Y0014496D01*
X0215497Y0015464D02*
X0217432Y0017399D01*
X0212551Y0016915D02*
X0212551Y0014980D01*
X0215981Y0015948D02*
X0217432Y0014496D01*
D13*
X0024133Y0013609D02*
X0021831Y0013609D01*
X0021831Y0018213D01*
X0024133Y0018213D01*
X0024900Y0017446D01*
X0024900Y0014377D01*
X0024133Y0013609D01*
X0028737Y0013609D02*
X0028737Y0018213D01*
X0026435Y0015911D01*
X0029504Y0015911D01*
X0052208Y0017116D02*
X0053743Y0018650D01*
X0053743Y0014046D01*
X0055277Y0014046D02*
X0052208Y0014046D01*
X0056812Y0014814D02*
X0057579Y0014046D01*
X0059114Y0014046D01*
X0059881Y0014814D01*
X0059881Y0016348D01*
X0059114Y0017116D01*
X0058346Y0017116D01*
X0056812Y0016348D01*
X0056812Y0018650D01*
X0059881Y0018650D01*
X0061416Y0017883D02*
X0062183Y0018650D01*
X0063718Y0018650D01*
X0064485Y0017883D01*
X0061416Y0014814D01*
X0062183Y0014046D01*
X0063718Y0014046D01*
X0064485Y0014814D01*
X0064485Y0017883D01*
X0066020Y0017116D02*
X0066020Y0014814D01*
X0066787Y0014046D01*
X0069089Y0014046D01*
X0069089Y0017116D01*
X0070624Y0016348D02*
X0072158Y0016348D01*
X0070624Y0014046D02*
X0070624Y0018650D01*
X0073693Y0018650D01*
X0061416Y0017883D02*
X0061416Y0014814D01*
X0063114Y0028046D02*
X0063114Y0032650D01*
X0060812Y0030348D01*
X0063881Y0030348D01*
X0059277Y0028814D02*
X0058510Y0028046D01*
X0056975Y0028046D01*
X0056208Y0028814D01*
X0056208Y0031883D01*
X0056975Y0032650D01*
X0058510Y0032650D01*
X0059277Y0031883D01*
X0201471Y0054581D02*
X0204541Y0054581D01*
X0203006Y0053046D02*
X0203006Y0056116D01*
X0231708Y0057546D02*
X0231708Y0062150D01*
X0234010Y0062150D01*
X0234777Y0061383D01*
X0234777Y0059848D01*
X0234010Y0059081D01*
X0231708Y0059081D01*
X0233243Y0059081D02*
X0234777Y0057546D01*
X0236312Y0057546D02*
X0239381Y0057546D01*
X0237846Y0057546D02*
X0237846Y0062150D01*
X0236312Y0060616D01*
X0240916Y0060616D02*
X0241683Y0059848D01*
X0243218Y0059848D01*
X0243985Y0059081D01*
X0243985Y0058314D01*
X0243218Y0057546D01*
X0241683Y0057546D01*
X0240916Y0058314D01*
X0240916Y0059081D01*
X0241683Y0059848D01*
X0240916Y0060616D02*
X0240916Y0061383D01*
X0241683Y0062150D01*
X0243218Y0062150D01*
X0243985Y0061383D01*
X0243985Y0060616D01*
X0243218Y0059848D01*
X0263814Y0061058D02*
X0264581Y0060291D01*
X0266116Y0060291D01*
X0266883Y0061058D01*
X0266883Y0061825D01*
X0266116Y0062593D01*
X0263814Y0062593D01*
X0263814Y0061058D01*
X0263814Y0062593D02*
X0265349Y0064127D01*
X0266883Y0064894D01*
X0268418Y0064127D02*
X0268418Y0063360D01*
X0269185Y0062593D01*
X0270720Y0062593D01*
X0271487Y0061825D01*
X0271487Y0061058D01*
X0270720Y0060291D01*
X0269185Y0060291D01*
X0268418Y0061058D01*
X0268418Y0061825D01*
X0269185Y0062593D01*
X0270720Y0062593D02*
X0271487Y0063360D01*
X0271487Y0064127D01*
X0270720Y0064894D01*
X0269185Y0064894D01*
X0268418Y0064127D01*
X0273022Y0063360D02*
X0273022Y0061058D01*
X0273789Y0060291D01*
X0276091Y0060291D01*
X0276091Y0063360D01*
X0277626Y0062593D02*
X0279161Y0062593D01*
X0278814Y0062593D02*
X0280349Y0063360D01*
X0281116Y0063360D01*
X0281883Y0062593D01*
X0281883Y0061058D01*
X0281116Y0060291D01*
X0279581Y0060291D01*
X0278814Y0061058D01*
X0277626Y0060291D02*
X0277626Y0064894D01*
X0280695Y0064894D01*
X0281883Y0064894D02*
X0278814Y0064894D01*
X0278814Y0062593D01*
X0283418Y0062593D02*
X0283418Y0061058D01*
X0284185Y0060291D01*
X0285720Y0060291D01*
X0286487Y0061058D01*
X0286487Y0061825D01*
X0285720Y0062593D01*
X0283418Y0062593D01*
X0284953Y0064127D01*
X0286487Y0064894D01*
X0288022Y0063360D02*
X0290324Y0063360D01*
X0291091Y0062593D01*
X0291091Y0060291D01*
X0293393Y0060291D02*
X0293393Y0064127D01*
X0294161Y0064894D01*
X0294161Y0062593D02*
X0292626Y0062593D01*
X0288022Y0063360D02*
X0288022Y0060291D01*
X0245520Y0052150D02*
X0245520Y0047546D01*
X0245520Y0049081D02*
X0247822Y0047546D01*
X0243985Y0048314D02*
X0243218Y0047546D01*
X0241683Y0047546D01*
X0240916Y0048314D01*
X0243985Y0051383D01*
X0243985Y0048314D01*
X0243218Y0049546D02*
X0241683Y0049546D01*
X0240916Y0050314D01*
X0240916Y0051383D02*
X0241683Y0052150D01*
X0243218Y0052150D01*
X0243985Y0051383D01*
X0243985Y0051848D02*
X0241683Y0051848D01*
X0240916Y0052616D01*
X0240916Y0053383D01*
X0241683Y0054150D01*
X0243218Y0054150D01*
X0243985Y0053383D01*
X0243985Y0050314D01*
X0243218Y0049546D01*
X0245520Y0049081D02*
X0247822Y0050616D01*
X0240916Y0051383D02*
X0240916Y0048314D01*
X0239381Y0048314D02*
X0238614Y0047546D01*
X0237079Y0047546D01*
X0236312Y0048314D01*
X0239381Y0051383D01*
X0239381Y0048314D01*
X0239381Y0049546D02*
X0236312Y0049546D01*
X0236312Y0048314D02*
X0236312Y0051383D01*
X0237079Y0052150D01*
X0238614Y0052150D01*
X0239381Y0051383D01*
X0237846Y0054150D02*
X0236312Y0052616D01*
X0234777Y0053383D02*
X0234777Y0051848D01*
X0234010Y0051081D01*
X0231708Y0051081D01*
X0231708Y0050616D02*
X0233243Y0052150D01*
X0233243Y0047546D01*
X0234777Y0047546D02*
X0231708Y0047546D01*
X0231708Y0049546D02*
X0231708Y0054150D01*
X0234010Y0054150D01*
X0234777Y0053383D01*
X0237846Y0054150D02*
X0237846Y0049546D01*
X0234777Y0049546D02*
X0233243Y0051081D01*
X0233243Y0044150D02*
X0233243Y0039546D01*
X0234777Y0039546D02*
X0231708Y0039546D01*
X0236312Y0040314D02*
X0237079Y0039546D01*
X0238614Y0039546D01*
X0239381Y0040314D01*
X0239381Y0041848D01*
X0238614Y0042616D01*
X0237846Y0042616D01*
X0236312Y0041848D01*
X0236312Y0044150D01*
X0239381Y0044150D01*
X0240916Y0044150D02*
X0240916Y0039546D01*
X0240916Y0041081D02*
X0243218Y0039546D01*
X0240916Y0041081D02*
X0243218Y0042616D01*
X0233243Y0044150D02*
X0231708Y0042616D01*
X0322896Y0029650D02*
X0322896Y0025046D01*
X0324431Y0026581D02*
X0325965Y0025046D01*
X0327500Y0025046D02*
X0330569Y0028116D01*
X0330569Y0028883D01*
X0329802Y0029650D01*
X0328267Y0029650D01*
X0327500Y0028883D01*
X0325965Y0028883D02*
X0325198Y0029650D01*
X0322896Y0029650D01*
X0325965Y0028883D02*
X0325965Y0027348D01*
X0325198Y0026581D01*
X0322896Y0026581D01*
X0329267Y0026116D02*
X0330802Y0027650D01*
X0330802Y0023046D01*
X0329267Y0023046D02*
X0332337Y0023046D01*
X0333871Y0023046D02*
X0333871Y0027650D01*
X0335173Y0028116D02*
X0335173Y0028883D01*
X0334406Y0029650D01*
X0332871Y0029650D01*
X0332104Y0028883D01*
X0335173Y0028116D02*
X0332104Y0025046D01*
X0335173Y0025046D01*
X0333871Y0024581D02*
X0336173Y0026116D01*
X0333871Y0024581D02*
X0336173Y0023046D01*
X0330569Y0025046D02*
X0327500Y0025046D01*
X0348708Y0025081D02*
X0351010Y0025081D01*
X0351777Y0025848D01*
X0351777Y0027383D01*
X0351010Y0028150D01*
X0348708Y0028150D01*
X0348708Y0023546D01*
X0350243Y0025081D02*
X0351777Y0023546D01*
X0353312Y0023546D02*
X0356381Y0026616D01*
X0356381Y0027383D01*
X0355614Y0028150D01*
X0354079Y0028150D01*
X0353312Y0027383D01*
X0357916Y0025848D02*
X0360985Y0025848D01*
X0360218Y0028150D02*
X0357916Y0025848D01*
X0356381Y0023546D02*
X0353312Y0023546D01*
X0360218Y0023546D02*
X0360218Y0028150D01*
X0335173Y0035046D02*
X0332871Y0036581D01*
X0335173Y0038116D01*
X0329802Y0039650D02*
X0328267Y0038116D01*
X0329802Y0039650D02*
X0329802Y0035046D01*
X0328267Y0035046D02*
X0331337Y0035046D01*
X0332871Y0035046D02*
X0332871Y0039650D01*
X0334639Y0017650D02*
X0334639Y0013046D01*
X0336173Y0013046D02*
X0333104Y0013046D01*
X0331569Y0013046D02*
X0328500Y0013046D01*
X0331569Y0016116D01*
X0331569Y0016883D01*
X0330802Y0017650D01*
X0329267Y0017650D01*
X0328500Y0016883D01*
X0326965Y0016883D02*
X0326965Y0015348D01*
X0326198Y0014581D01*
X0323896Y0014581D01*
X0325431Y0014581D02*
X0326965Y0013046D01*
X0323896Y0013046D02*
X0323896Y0017650D01*
X0326198Y0017650D01*
X0326965Y0016883D01*
X0333104Y0016116D02*
X0334639Y0017650D01*
X0348708Y0016616D02*
X0350243Y0018150D01*
X0350243Y0013546D01*
X0351777Y0013546D02*
X0348708Y0013546D01*
X0353312Y0014314D02*
X0356381Y0017383D01*
X0356381Y0014314D01*
X0355614Y0013546D01*
X0354079Y0013546D01*
X0353312Y0014314D01*
X0353312Y0017383D01*
X0354079Y0018150D01*
X0355614Y0018150D01*
X0356381Y0017383D01*
X0357916Y0017383D02*
X0358683Y0018150D01*
X0360218Y0018150D01*
X0360985Y0017383D01*
X0357916Y0014314D01*
X0358683Y0013546D01*
X0360218Y0013546D01*
X0360985Y0014314D01*
X0360985Y0017383D01*
X0357916Y0017383D02*
X0357916Y0014314D01*
X0357218Y0069046D02*
X0357218Y0073650D01*
X0355683Y0072883D02*
X0354916Y0073650D01*
X0353381Y0073650D01*
X0352614Y0072883D01*
X0355683Y0072883D02*
X0355683Y0072116D01*
X0352614Y0069046D01*
X0355683Y0069046D01*
X0357218Y0070581D02*
X0359520Y0069046D01*
X0357218Y0070581D02*
X0359520Y0072116D01*
X0351079Y0069814D02*
X0351079Y0069046D01*
X0350312Y0069046D01*
X0350312Y0069814D01*
X0351079Y0069814D01*
X0348777Y0069046D02*
X0345708Y0069046D01*
X0347243Y0069046D02*
X0347243Y0073650D01*
X0345708Y0072116D01*
X0345708Y0079046D02*
X0345708Y0083650D01*
X0348010Y0083650D01*
X0348777Y0082883D01*
X0348777Y0081348D01*
X0348010Y0080581D01*
X0345708Y0080581D01*
X0347243Y0080581D02*
X0348777Y0079046D01*
X0350312Y0079046D02*
X0353381Y0082116D01*
X0353381Y0082883D01*
X0352614Y0083650D01*
X0351079Y0083650D01*
X0350312Y0082883D01*
X0354916Y0082883D02*
X0355683Y0083650D01*
X0357218Y0083650D01*
X0357985Y0082883D01*
X0354916Y0079814D01*
X0355683Y0079046D01*
X0357218Y0079046D01*
X0357985Y0079814D01*
X0357985Y0082883D01*
X0354916Y0082883D02*
X0354916Y0079814D01*
X0353381Y0079046D02*
X0350312Y0079046D01*
X0286881Y0082751D02*
X0286114Y0081983D01*
X0284579Y0081983D01*
X0283812Y0082751D01*
X0282277Y0082751D02*
X0281510Y0081983D01*
X0279975Y0081983D01*
X0279208Y0082751D01*
X0279208Y0085820D01*
X0279975Y0086587D01*
X0281510Y0086587D01*
X0282277Y0085820D01*
X0283812Y0085820D02*
X0283812Y0085053D01*
X0284579Y0084285D01*
X0286881Y0084285D01*
X0286881Y0082751D02*
X0286881Y0085820D01*
X0286114Y0086587D01*
X0284579Y0086587D01*
X0283812Y0085820D01*
X0275718Y0086587D02*
X0273416Y0084285D01*
X0276485Y0084285D01*
X0275718Y0081983D02*
X0275718Y0086587D01*
X0270346Y0086587D02*
X0270346Y0081983D01*
X0268812Y0081983D02*
X0271881Y0081983D01*
X0267277Y0082751D02*
X0266510Y0081983D01*
X0264975Y0081983D01*
X0264208Y0082751D01*
X0264208Y0085820D01*
X0264975Y0086587D01*
X0266510Y0086587D01*
X0267277Y0085820D01*
X0268812Y0085053D02*
X0270346Y0086587D01*
X0248808Y0085858D02*
X0244204Y0085858D01*
X0245739Y0088160D02*
X0247273Y0085858D01*
X0248808Y0088160D01*
X0248041Y0084324D02*
X0247273Y0084324D01*
X0246506Y0083556D01*
X0246506Y0081254D01*
X0248041Y0081254D01*
X0248808Y0082022D01*
X0248808Y0083556D01*
X0248041Y0084324D01*
X0244971Y0082789D02*
X0246506Y0081254D01*
X0247273Y0079720D02*
X0246506Y0078952D01*
X0246506Y0076650D01*
X0248041Y0076650D01*
X0248808Y0077418D01*
X0248808Y0078952D01*
X0248041Y0079720D01*
X0247273Y0079720D01*
X0244971Y0078185D02*
X0244204Y0079720D01*
X0238808Y0078952D02*
X0238041Y0079720D01*
X0234971Y0079720D01*
X0234204Y0078952D01*
X0234204Y0077418D01*
X0234971Y0076650D01*
X0235739Y0076650D01*
X0236506Y0077418D01*
X0236506Y0079720D01*
X0238808Y0078952D02*
X0238808Y0077418D01*
X0238041Y0076650D01*
X0244971Y0078185D02*
X0246506Y0076650D01*
X0247273Y0075116D02*
X0246506Y0074348D01*
X0246506Y0072814D01*
X0245739Y0072046D01*
X0244971Y0072046D01*
X0244204Y0072814D01*
X0244204Y0074348D01*
X0244971Y0075116D01*
X0245739Y0075116D01*
X0246506Y0074348D01*
X0247273Y0075116D02*
X0248041Y0075116D01*
X0248808Y0074348D01*
X0248808Y0072814D01*
X0248041Y0072046D01*
X0247273Y0072046D01*
X0246506Y0072814D01*
X0238808Y0072046D02*
X0234204Y0072046D01*
X0234204Y0074348D01*
X0234971Y0075116D01*
X0236506Y0075116D01*
X0237273Y0074348D01*
X0237273Y0072046D01*
X0237273Y0073581D02*
X0238808Y0075116D01*
X0244971Y0082789D02*
X0244204Y0084324D01*
X0203006Y0085116D02*
X0203006Y0082046D01*
X0426896Y0082546D02*
X0429965Y0082546D01*
X0428431Y0082546D02*
X0428431Y0087150D01*
X0426896Y0085616D01*
X0431500Y0086383D02*
X0432267Y0087150D01*
X0433802Y0087150D01*
X0434569Y0086383D01*
X0431500Y0083314D01*
X0432267Y0082546D01*
X0433802Y0082546D01*
X0434569Y0083314D01*
X0434569Y0086383D01*
X0436104Y0086383D02*
X0436871Y0087150D01*
X0438406Y0087150D01*
X0439173Y0086383D01*
X0436104Y0083314D01*
X0436871Y0082546D01*
X0438406Y0082546D01*
X0439173Y0083314D01*
X0439173Y0086383D01*
X0436104Y0086383D02*
X0436104Y0083314D01*
X0431500Y0083314D02*
X0431500Y0086383D01*
X0432267Y0077150D02*
X0431500Y0076383D01*
X0432267Y0077150D02*
X0433802Y0077150D01*
X0434569Y0076383D01*
X0434569Y0075616D01*
X0431500Y0072546D01*
X0434569Y0072546D01*
X0436104Y0073314D02*
X0436871Y0072546D01*
X0438406Y0072546D01*
X0439173Y0073314D01*
X0439173Y0074081D01*
X0438406Y0074848D01*
X0437639Y0074848D01*
X0438406Y0074848D02*
X0439173Y0075616D01*
X0439173Y0076383D01*
X0438406Y0077150D01*
X0436871Y0077150D01*
X0436104Y0076383D01*
X0429965Y0076383D02*
X0429965Y0074848D01*
X0429198Y0074081D01*
X0426896Y0074081D01*
X0426896Y0072546D02*
X0426896Y0077150D01*
X0429198Y0077150D01*
X0429965Y0076383D01*
X0428431Y0074081D02*
X0429965Y0072546D01*
D14*
X0374258Y0065244D02*
X0374258Y0063743D01*
X0373507Y0062992D01*
X0373507Y0061391D02*
X0370505Y0061391D01*
X0369754Y0060640D01*
X0369754Y0058389D01*
X0374258Y0058389D01*
X0374258Y0060640D01*
X0373507Y0061391D01*
X0370505Y0062992D02*
X0369754Y0063743D01*
X0369754Y0065244D01*
X0370505Y0065995D01*
X0371255Y0065995D01*
X0372006Y0065244D01*
X0372757Y0065995D01*
X0373507Y0065995D01*
X0374258Y0065244D01*
X0372006Y0065244D02*
X0372006Y0064494D01*
X0379102Y0059705D02*
X0390913Y0059705D01*
X0390913Y0041988D01*
X0379102Y0041988D01*
X0379102Y0059705D01*
X0374258Y0056787D02*
X0374258Y0053785D01*
X0369754Y0053785D01*
X0369754Y0056787D01*
X0372006Y0055286D02*
X0372006Y0053785D01*
X0374258Y0052183D02*
X0374258Y0049181D01*
X0369754Y0049181D01*
X0337693Y0043319D02*
X0298323Y0043319D01*
X0298323Y0082689D01*
X0337693Y0082689D01*
X0337693Y0043319D01*
X0369754Y0040244D02*
X0369754Y0038743D01*
X0370505Y0037992D01*
X0371255Y0040995D02*
X0374258Y0037992D01*
X0374258Y0040995D01*
X0371255Y0040995D02*
X0370505Y0040995D01*
X0369754Y0040244D01*
X0370505Y0036391D02*
X0369754Y0035640D01*
X0369754Y0033389D01*
X0374258Y0033389D01*
X0374258Y0035640D01*
X0373507Y0036391D01*
X0370505Y0036391D01*
X0369754Y0031787D02*
X0369754Y0028785D01*
X0374258Y0028785D01*
X0374258Y0031787D01*
X0372006Y0030286D02*
X0372006Y0028785D01*
X0374258Y0027183D02*
X0374258Y0024181D01*
X0369754Y0024181D01*
X0213858Y0020074D02*
X0213858Y0018806D01*
X0213858Y0019440D02*
X0211956Y0019440D01*
X0212590Y0018806D01*
X0211956Y0017864D02*
X0211956Y0017230D01*
X0211956Y0017547D02*
X0213541Y0017547D01*
X0213858Y0017230D01*
X0213858Y0016913D01*
X0213541Y0016596D01*
X0096508Y0038846D02*
X0096508Y0044846D01*
X0082508Y0044846D01*
X0082508Y0038846D01*
X0096508Y0038846D01*
X0128323Y0043319D02*
X0167693Y0043319D01*
X0167693Y0082689D01*
X0128323Y0082689D01*
X0128323Y0043319D01*
X0195815Y0057035D02*
X0213531Y0057035D01*
X0213531Y0080657D01*
X0195815Y0080657D01*
X0195815Y0070815D01*
X0193846Y0070815D01*
X0193846Y0066878D01*
X0195815Y0066878D01*
X0195815Y0057035D01*
X0126807Y0072846D02*
X0126813Y0073366D01*
X0126833Y0073886D01*
X0126864Y0074406D01*
X0126909Y0074924D01*
X0126966Y0075441D01*
X0127036Y0075957D01*
X0127119Y0076471D01*
X0127214Y0076982D01*
X0127322Y0077491D01*
X0127442Y0077997D01*
X0127575Y0078501D01*
X0127720Y0079000D01*
X0127877Y0079496D01*
X0128046Y0079988D01*
X0128228Y0080476D01*
X0128421Y0080959D01*
X0128626Y0081438D01*
X0128843Y0081911D01*
X0129071Y0082378D01*
X0129310Y0082840D01*
X0129561Y0083296D01*
X0129823Y0083745D01*
X0130096Y0084188D01*
X0130380Y0084625D01*
X0130674Y0085054D01*
X0130979Y0085475D01*
X0131294Y0085890D01*
X0131619Y0086296D01*
X0131954Y0086694D01*
X0132299Y0087084D01*
X0132653Y0087465D01*
X0133017Y0087837D01*
X0133389Y0088201D01*
X0133770Y0088555D01*
X0134160Y0088900D01*
X0134558Y0089235D01*
X0134964Y0089560D01*
X0135379Y0089875D01*
X0135800Y0090180D01*
X0136229Y0090474D01*
X0136666Y0090758D01*
X0137109Y0091031D01*
X0137558Y0091293D01*
X0138014Y0091544D01*
X0138476Y0091783D01*
X0138943Y0092011D01*
X0139416Y0092228D01*
X0139895Y0092433D01*
X0140378Y0092626D01*
X0140866Y0092808D01*
X0141358Y0092977D01*
X0141854Y0093134D01*
X0142353Y0093279D01*
X0142857Y0093412D01*
X0143363Y0093532D01*
X0143872Y0093640D01*
X0144383Y0093735D01*
X0144897Y0093818D01*
X0145413Y0093888D01*
X0145930Y0093945D01*
X0146448Y0093990D01*
X0146968Y0094021D01*
X0147488Y0094041D01*
X0148008Y0094047D01*
X0148528Y0094041D01*
X0149048Y0094021D01*
X0149568Y0093990D01*
X0150086Y0093945D01*
X0150603Y0093888D01*
X0151119Y0093818D01*
X0151633Y0093735D01*
X0152144Y0093640D01*
X0152653Y0093532D01*
X0153159Y0093412D01*
X0153663Y0093279D01*
X0154162Y0093134D01*
X0154658Y0092977D01*
X0155150Y0092808D01*
X0155638Y0092626D01*
X0156121Y0092433D01*
X0156600Y0092228D01*
X0157073Y0092011D01*
X0157540Y0091783D01*
X0158002Y0091544D01*
X0158458Y0091293D01*
X0158907Y0091031D01*
X0159350Y0090758D01*
X0159787Y0090474D01*
X0160216Y0090180D01*
X0160637Y0089875D01*
X0161052Y0089560D01*
X0161458Y0089235D01*
X0161856Y0088900D01*
X0162246Y0088555D01*
X0162627Y0088201D01*
X0162999Y0087837D01*
X0163363Y0087465D01*
X0163717Y0087084D01*
X0164062Y0086694D01*
X0164397Y0086296D01*
X0164722Y0085890D01*
X0165037Y0085475D01*
X0165342Y0085054D01*
X0165636Y0084625D01*
X0165920Y0084188D01*
X0166193Y0083745D01*
X0166455Y0083296D01*
X0166706Y0082840D01*
X0166945Y0082378D01*
X0167173Y0081911D01*
X0167390Y0081438D01*
X0167595Y0080959D01*
X0167788Y0080476D01*
X0167970Y0079988D01*
X0168139Y0079496D01*
X0168296Y0079000D01*
X0168441Y0078501D01*
X0168574Y0077997D01*
X0168694Y0077491D01*
X0168802Y0076982D01*
X0168897Y0076471D01*
X0168980Y0075957D01*
X0169050Y0075441D01*
X0169107Y0074924D01*
X0169152Y0074406D01*
X0169183Y0073886D01*
X0169203Y0073366D01*
X0169209Y0072846D01*
X0169203Y0072326D01*
X0169183Y0071806D01*
X0169152Y0071286D01*
X0169107Y0070768D01*
X0169050Y0070251D01*
X0168980Y0069735D01*
X0168897Y0069221D01*
X0168802Y0068710D01*
X0168694Y0068201D01*
X0168574Y0067695D01*
X0168441Y0067191D01*
X0168296Y0066692D01*
X0168139Y0066196D01*
X0167970Y0065704D01*
X0167788Y0065216D01*
X0167595Y0064733D01*
X0167390Y0064254D01*
X0167173Y0063781D01*
X0166945Y0063314D01*
X0166706Y0062852D01*
X0166455Y0062396D01*
X0166193Y0061947D01*
X0165920Y0061504D01*
X0165636Y0061067D01*
X0165342Y0060638D01*
X0165037Y0060217D01*
X0164722Y0059802D01*
X0164397Y0059396D01*
X0164062Y0058998D01*
X0163717Y0058608D01*
X0163363Y0058227D01*
X0162999Y0057855D01*
X0162627Y0057491D01*
X0162246Y0057137D01*
X0161856Y0056792D01*
X0161458Y0056457D01*
X0161052Y0056132D01*
X0160637Y0055817D01*
X0160216Y0055512D01*
X0159787Y0055218D01*
X0159350Y0054934D01*
X0158907Y0054661D01*
X0158458Y0054399D01*
X0158002Y0054148D01*
X0157540Y0053909D01*
X0157073Y0053681D01*
X0156600Y0053464D01*
X0156121Y0053259D01*
X0155638Y0053066D01*
X0155150Y0052884D01*
X0154658Y0052715D01*
X0154162Y0052558D01*
X0153663Y0052413D01*
X0153159Y0052280D01*
X0152653Y0052160D01*
X0152144Y0052052D01*
X0151633Y0051957D01*
X0151119Y0051874D01*
X0150603Y0051804D01*
X0150086Y0051747D01*
X0149568Y0051702D01*
X0149048Y0051671D01*
X0148528Y0051651D01*
X0148008Y0051645D01*
X0147488Y0051651D01*
X0146968Y0051671D01*
X0146448Y0051702D01*
X0145930Y0051747D01*
X0145413Y0051804D01*
X0144897Y0051874D01*
X0144383Y0051957D01*
X0143872Y0052052D01*
X0143363Y0052160D01*
X0142857Y0052280D01*
X0142353Y0052413D01*
X0141854Y0052558D01*
X0141358Y0052715D01*
X0140866Y0052884D01*
X0140378Y0053066D01*
X0139895Y0053259D01*
X0139416Y0053464D01*
X0138943Y0053681D01*
X0138476Y0053909D01*
X0138014Y0054148D01*
X0137558Y0054399D01*
X0137109Y0054661D01*
X0136666Y0054934D01*
X0136229Y0055218D01*
X0135800Y0055512D01*
X0135379Y0055817D01*
X0134964Y0056132D01*
X0134558Y0056457D01*
X0134160Y0056792D01*
X0133770Y0057137D01*
X0133389Y0057491D01*
X0133017Y0057855D01*
X0132653Y0058227D01*
X0132299Y0058608D01*
X0131954Y0058998D01*
X0131619Y0059396D01*
X0131294Y0059802D01*
X0130979Y0060217D01*
X0130674Y0060638D01*
X0130380Y0061067D01*
X0130096Y0061504D01*
X0129823Y0061947D01*
X0129561Y0062396D01*
X0129310Y0062852D01*
X0129071Y0063314D01*
X0128843Y0063781D01*
X0128626Y0064254D01*
X0128421Y0064733D01*
X0128228Y0065216D01*
X0128046Y0065704D01*
X0127877Y0066196D01*
X0127720Y0066692D01*
X0127575Y0067191D01*
X0127442Y0067695D01*
X0127322Y0068201D01*
X0127214Y0068710D01*
X0127119Y0069221D01*
X0127036Y0069735D01*
X0126966Y0070251D01*
X0126909Y0070768D01*
X0126864Y0071286D01*
X0126833Y0071806D01*
X0126813Y0072326D01*
X0126807Y0072846D01*
X0120449Y0072846D02*
X0120457Y0073522D01*
X0120482Y0074198D01*
X0120524Y0074873D01*
X0120582Y0075547D01*
X0120656Y0076220D01*
X0120747Y0076890D01*
X0120855Y0077558D01*
X0120979Y0078222D01*
X0121119Y0078884D01*
X0121275Y0079542D01*
X0121447Y0080196D01*
X0121636Y0080846D01*
X0121840Y0081491D01*
X0122060Y0082130D01*
X0122296Y0082764D01*
X0122547Y0083392D01*
X0122813Y0084014D01*
X0123095Y0084629D01*
X0123392Y0085237D01*
X0123703Y0085837D01*
X0124029Y0086430D01*
X0124370Y0087014D01*
X0124725Y0087590D01*
X0125094Y0088157D01*
X0125476Y0088715D01*
X0125872Y0089263D01*
X0126282Y0089801D01*
X0126705Y0090329D01*
X0127140Y0090847D01*
X0127588Y0091353D01*
X0128048Y0091849D01*
X0128521Y0092333D01*
X0129005Y0092806D01*
X0129501Y0093266D01*
X0130007Y0093714D01*
X0130525Y0094149D01*
X0131053Y0094572D01*
X0131591Y0094982D01*
X0132139Y0095378D01*
X0132697Y0095760D01*
X0133264Y0096129D01*
X0133840Y0096484D01*
X0134424Y0096825D01*
X0135017Y0097151D01*
X0135617Y0097462D01*
X0136225Y0097759D01*
X0136840Y0098041D01*
X0137462Y0098307D01*
X0138090Y0098558D01*
X0138724Y0098794D01*
X0139363Y0099014D01*
X0140008Y0099218D01*
X0140658Y0099407D01*
X0141312Y0099579D01*
X0141970Y0099735D01*
X0142632Y0099875D01*
X0143296Y0099999D01*
X0143964Y0100107D01*
X0144634Y0100198D01*
X0145307Y0100272D01*
X0145981Y0100330D01*
X0146656Y0100372D01*
X0147332Y0100397D01*
X0148008Y0100405D01*
X0148684Y0100397D01*
X0149360Y0100372D01*
X0150035Y0100330D01*
X0150709Y0100272D01*
X0151382Y0100198D01*
X0152052Y0100107D01*
X0152720Y0099999D01*
X0153384Y0099875D01*
X0154046Y0099735D01*
X0154704Y0099579D01*
X0155358Y0099407D01*
X0156008Y0099218D01*
X0156653Y0099014D01*
X0157292Y0098794D01*
X0157926Y0098558D01*
X0158554Y0098307D01*
X0159176Y0098041D01*
X0159791Y0097759D01*
X0160399Y0097462D01*
X0160999Y0097151D01*
X0161592Y0096825D01*
X0162176Y0096484D01*
X0162752Y0096129D01*
X0163319Y0095760D01*
X0163877Y0095378D01*
X0164425Y0094982D01*
X0164963Y0094572D01*
X0165491Y0094149D01*
X0166009Y0093714D01*
X0166515Y0093266D01*
X0167011Y0092806D01*
X0167495Y0092333D01*
X0167968Y0091849D01*
X0168428Y0091353D01*
X0168876Y0090847D01*
X0169311Y0090329D01*
X0169734Y0089801D01*
X0170144Y0089263D01*
X0170540Y0088715D01*
X0170922Y0088157D01*
X0171291Y0087590D01*
X0171646Y0087014D01*
X0171987Y0086430D01*
X0172313Y0085837D01*
X0172624Y0085237D01*
X0172921Y0084629D01*
X0173203Y0084014D01*
X0173469Y0083392D01*
X0173720Y0082764D01*
X0173956Y0082130D01*
X0174176Y0081491D01*
X0174380Y0080846D01*
X0174569Y0080196D01*
X0174741Y0079542D01*
X0174897Y0078884D01*
X0175037Y0078222D01*
X0175161Y0077558D01*
X0175269Y0076890D01*
X0175360Y0076220D01*
X0175434Y0075547D01*
X0175492Y0074873D01*
X0175534Y0074198D01*
X0175559Y0073522D01*
X0175567Y0072846D01*
X0175559Y0072170D01*
X0175534Y0071494D01*
X0175492Y0070819D01*
X0175434Y0070145D01*
X0175360Y0069472D01*
X0175269Y0068802D01*
X0175161Y0068134D01*
X0175037Y0067470D01*
X0174897Y0066808D01*
X0174741Y0066150D01*
X0174569Y0065496D01*
X0174380Y0064846D01*
X0174176Y0064201D01*
X0173956Y0063562D01*
X0173720Y0062928D01*
X0173469Y0062300D01*
X0173203Y0061678D01*
X0172921Y0061063D01*
X0172624Y0060455D01*
X0172313Y0059855D01*
X0171987Y0059262D01*
X0171646Y0058678D01*
X0171291Y0058102D01*
X0170922Y0057535D01*
X0170540Y0056977D01*
X0170144Y0056429D01*
X0169734Y0055891D01*
X0169311Y0055363D01*
X0168876Y0054845D01*
X0168428Y0054339D01*
X0167968Y0053843D01*
X0167495Y0053359D01*
X0167011Y0052886D01*
X0166515Y0052426D01*
X0166009Y0051978D01*
X0165491Y0051543D01*
X0164963Y0051120D01*
X0164425Y0050710D01*
X0163877Y0050314D01*
X0163319Y0049932D01*
X0162752Y0049563D01*
X0162176Y0049208D01*
X0161592Y0048867D01*
X0160999Y0048541D01*
X0160399Y0048230D01*
X0159791Y0047933D01*
X0159176Y0047651D01*
X0158554Y0047385D01*
X0157926Y0047134D01*
X0157292Y0046898D01*
X0156653Y0046678D01*
X0156008Y0046474D01*
X0155358Y0046285D01*
X0154704Y0046113D01*
X0154046Y0045957D01*
X0153384Y0045817D01*
X0152720Y0045693D01*
X0152052Y0045585D01*
X0151382Y0045494D01*
X0150709Y0045420D01*
X0150035Y0045362D01*
X0149360Y0045320D01*
X0148684Y0045295D01*
X0148008Y0045287D01*
X0147332Y0045295D01*
X0146656Y0045320D01*
X0145981Y0045362D01*
X0145307Y0045420D01*
X0144634Y0045494D01*
X0143964Y0045585D01*
X0143296Y0045693D01*
X0142632Y0045817D01*
X0141970Y0045957D01*
X0141312Y0046113D01*
X0140658Y0046285D01*
X0140008Y0046474D01*
X0139363Y0046678D01*
X0138724Y0046898D01*
X0138090Y0047134D01*
X0137462Y0047385D01*
X0136840Y0047651D01*
X0136225Y0047933D01*
X0135617Y0048230D01*
X0135017Y0048541D01*
X0134424Y0048867D01*
X0133840Y0049208D01*
X0133264Y0049563D01*
X0132697Y0049932D01*
X0132139Y0050314D01*
X0131591Y0050710D01*
X0131053Y0051120D01*
X0130525Y0051543D01*
X0130007Y0051978D01*
X0129501Y0052426D01*
X0129005Y0052886D01*
X0128521Y0053359D01*
X0128048Y0053843D01*
X0127588Y0054339D01*
X0127140Y0054845D01*
X0126705Y0055363D01*
X0126282Y0055891D01*
X0125872Y0056429D01*
X0125476Y0056977D01*
X0125094Y0057535D01*
X0124725Y0058102D01*
X0124370Y0058678D01*
X0124029Y0059262D01*
X0123703Y0059855D01*
X0123392Y0060455D01*
X0123095Y0061063D01*
X0122813Y0061678D01*
X0122547Y0062300D01*
X0122296Y0062928D01*
X0122060Y0063562D01*
X0121840Y0064201D01*
X0121636Y0064846D01*
X0121447Y0065496D01*
X0121275Y0066150D01*
X0121119Y0066808D01*
X0120979Y0067470D01*
X0120855Y0068134D01*
X0120747Y0068802D01*
X0120656Y0069472D01*
X0120582Y0070145D01*
X0120524Y0070819D01*
X0120482Y0071494D01*
X0120457Y0072170D01*
X0120449Y0072846D01*
X0296807Y0072846D02*
X0296813Y0073366D01*
X0296833Y0073886D01*
X0296864Y0074406D01*
X0296909Y0074924D01*
X0296966Y0075441D01*
X0297036Y0075957D01*
X0297119Y0076471D01*
X0297214Y0076982D01*
X0297322Y0077491D01*
X0297442Y0077997D01*
X0297575Y0078501D01*
X0297720Y0079000D01*
X0297877Y0079496D01*
X0298046Y0079988D01*
X0298228Y0080476D01*
X0298421Y0080959D01*
X0298626Y0081438D01*
X0298843Y0081911D01*
X0299071Y0082378D01*
X0299310Y0082840D01*
X0299561Y0083296D01*
X0299823Y0083745D01*
X0300096Y0084188D01*
X0300380Y0084625D01*
X0300674Y0085054D01*
X0300979Y0085475D01*
X0301294Y0085890D01*
X0301619Y0086296D01*
X0301954Y0086694D01*
X0302299Y0087084D01*
X0302653Y0087465D01*
X0303017Y0087837D01*
X0303389Y0088201D01*
X0303770Y0088555D01*
X0304160Y0088900D01*
X0304558Y0089235D01*
X0304964Y0089560D01*
X0305379Y0089875D01*
X0305800Y0090180D01*
X0306229Y0090474D01*
X0306666Y0090758D01*
X0307109Y0091031D01*
X0307558Y0091293D01*
X0308014Y0091544D01*
X0308476Y0091783D01*
X0308943Y0092011D01*
X0309416Y0092228D01*
X0309895Y0092433D01*
X0310378Y0092626D01*
X0310866Y0092808D01*
X0311358Y0092977D01*
X0311854Y0093134D01*
X0312353Y0093279D01*
X0312857Y0093412D01*
X0313363Y0093532D01*
X0313872Y0093640D01*
X0314383Y0093735D01*
X0314897Y0093818D01*
X0315413Y0093888D01*
X0315930Y0093945D01*
X0316448Y0093990D01*
X0316968Y0094021D01*
X0317488Y0094041D01*
X0318008Y0094047D01*
X0318528Y0094041D01*
X0319048Y0094021D01*
X0319568Y0093990D01*
X0320086Y0093945D01*
X0320603Y0093888D01*
X0321119Y0093818D01*
X0321633Y0093735D01*
X0322144Y0093640D01*
X0322653Y0093532D01*
X0323159Y0093412D01*
X0323663Y0093279D01*
X0324162Y0093134D01*
X0324658Y0092977D01*
X0325150Y0092808D01*
X0325638Y0092626D01*
X0326121Y0092433D01*
X0326600Y0092228D01*
X0327073Y0092011D01*
X0327540Y0091783D01*
X0328002Y0091544D01*
X0328458Y0091293D01*
X0328907Y0091031D01*
X0329350Y0090758D01*
X0329787Y0090474D01*
X0330216Y0090180D01*
X0330637Y0089875D01*
X0331052Y0089560D01*
X0331458Y0089235D01*
X0331856Y0088900D01*
X0332246Y0088555D01*
X0332627Y0088201D01*
X0332999Y0087837D01*
X0333363Y0087465D01*
X0333717Y0087084D01*
X0334062Y0086694D01*
X0334397Y0086296D01*
X0334722Y0085890D01*
X0335037Y0085475D01*
X0335342Y0085054D01*
X0335636Y0084625D01*
X0335920Y0084188D01*
X0336193Y0083745D01*
X0336455Y0083296D01*
X0336706Y0082840D01*
X0336945Y0082378D01*
X0337173Y0081911D01*
X0337390Y0081438D01*
X0337595Y0080959D01*
X0337788Y0080476D01*
X0337970Y0079988D01*
X0338139Y0079496D01*
X0338296Y0079000D01*
X0338441Y0078501D01*
X0338574Y0077997D01*
X0338694Y0077491D01*
X0338802Y0076982D01*
X0338897Y0076471D01*
X0338980Y0075957D01*
X0339050Y0075441D01*
X0339107Y0074924D01*
X0339152Y0074406D01*
X0339183Y0073886D01*
X0339203Y0073366D01*
X0339209Y0072846D01*
X0339203Y0072326D01*
X0339183Y0071806D01*
X0339152Y0071286D01*
X0339107Y0070768D01*
X0339050Y0070251D01*
X0338980Y0069735D01*
X0338897Y0069221D01*
X0338802Y0068710D01*
X0338694Y0068201D01*
X0338574Y0067695D01*
X0338441Y0067191D01*
X0338296Y0066692D01*
X0338139Y0066196D01*
X0337970Y0065704D01*
X0337788Y0065216D01*
X0337595Y0064733D01*
X0337390Y0064254D01*
X0337173Y0063781D01*
X0336945Y0063314D01*
X0336706Y0062852D01*
X0336455Y0062396D01*
X0336193Y0061947D01*
X0335920Y0061504D01*
X0335636Y0061067D01*
X0335342Y0060638D01*
X0335037Y0060217D01*
X0334722Y0059802D01*
X0334397Y0059396D01*
X0334062Y0058998D01*
X0333717Y0058608D01*
X0333363Y0058227D01*
X0332999Y0057855D01*
X0332627Y0057491D01*
X0332246Y0057137D01*
X0331856Y0056792D01*
X0331458Y0056457D01*
X0331052Y0056132D01*
X0330637Y0055817D01*
X0330216Y0055512D01*
X0329787Y0055218D01*
X0329350Y0054934D01*
X0328907Y0054661D01*
X0328458Y0054399D01*
X0328002Y0054148D01*
X0327540Y0053909D01*
X0327073Y0053681D01*
X0326600Y0053464D01*
X0326121Y0053259D01*
X0325638Y0053066D01*
X0325150Y0052884D01*
X0324658Y0052715D01*
X0324162Y0052558D01*
X0323663Y0052413D01*
X0323159Y0052280D01*
X0322653Y0052160D01*
X0322144Y0052052D01*
X0321633Y0051957D01*
X0321119Y0051874D01*
X0320603Y0051804D01*
X0320086Y0051747D01*
X0319568Y0051702D01*
X0319048Y0051671D01*
X0318528Y0051651D01*
X0318008Y0051645D01*
X0317488Y0051651D01*
X0316968Y0051671D01*
X0316448Y0051702D01*
X0315930Y0051747D01*
X0315413Y0051804D01*
X0314897Y0051874D01*
X0314383Y0051957D01*
X0313872Y0052052D01*
X0313363Y0052160D01*
X0312857Y0052280D01*
X0312353Y0052413D01*
X0311854Y0052558D01*
X0311358Y0052715D01*
X0310866Y0052884D01*
X0310378Y0053066D01*
X0309895Y0053259D01*
X0309416Y0053464D01*
X0308943Y0053681D01*
X0308476Y0053909D01*
X0308014Y0054148D01*
X0307558Y0054399D01*
X0307109Y0054661D01*
X0306666Y0054934D01*
X0306229Y0055218D01*
X0305800Y0055512D01*
X0305379Y0055817D01*
X0304964Y0056132D01*
X0304558Y0056457D01*
X0304160Y0056792D01*
X0303770Y0057137D01*
X0303389Y0057491D01*
X0303017Y0057855D01*
X0302653Y0058227D01*
X0302299Y0058608D01*
X0301954Y0058998D01*
X0301619Y0059396D01*
X0301294Y0059802D01*
X0300979Y0060217D01*
X0300674Y0060638D01*
X0300380Y0061067D01*
X0300096Y0061504D01*
X0299823Y0061947D01*
X0299561Y0062396D01*
X0299310Y0062852D01*
X0299071Y0063314D01*
X0298843Y0063781D01*
X0298626Y0064254D01*
X0298421Y0064733D01*
X0298228Y0065216D01*
X0298046Y0065704D01*
X0297877Y0066196D01*
X0297720Y0066692D01*
X0297575Y0067191D01*
X0297442Y0067695D01*
X0297322Y0068201D01*
X0297214Y0068710D01*
X0297119Y0069221D01*
X0297036Y0069735D01*
X0296966Y0070251D01*
X0296909Y0070768D01*
X0296864Y0071286D01*
X0296833Y0071806D01*
X0296813Y0072326D01*
X0296807Y0072846D01*
X0290449Y0072846D02*
X0290457Y0073522D01*
X0290482Y0074198D01*
X0290524Y0074873D01*
X0290582Y0075547D01*
X0290656Y0076220D01*
X0290747Y0076890D01*
X0290855Y0077558D01*
X0290979Y0078222D01*
X0291119Y0078884D01*
X0291275Y0079542D01*
X0291447Y0080196D01*
X0291636Y0080846D01*
X0291840Y0081491D01*
X0292060Y0082130D01*
X0292296Y0082764D01*
X0292547Y0083392D01*
X0292813Y0084014D01*
X0293095Y0084629D01*
X0293392Y0085237D01*
X0293703Y0085837D01*
X0294029Y0086430D01*
X0294370Y0087014D01*
X0294725Y0087590D01*
X0295094Y0088157D01*
X0295476Y0088715D01*
X0295872Y0089263D01*
X0296282Y0089801D01*
X0296705Y0090329D01*
X0297140Y0090847D01*
X0297588Y0091353D01*
X0298048Y0091849D01*
X0298521Y0092333D01*
X0299005Y0092806D01*
X0299501Y0093266D01*
X0300007Y0093714D01*
X0300525Y0094149D01*
X0301053Y0094572D01*
X0301591Y0094982D01*
X0302139Y0095378D01*
X0302697Y0095760D01*
X0303264Y0096129D01*
X0303840Y0096484D01*
X0304424Y0096825D01*
X0305017Y0097151D01*
X0305617Y0097462D01*
X0306225Y0097759D01*
X0306840Y0098041D01*
X0307462Y0098307D01*
X0308090Y0098558D01*
X0308724Y0098794D01*
X0309363Y0099014D01*
X0310008Y0099218D01*
X0310658Y0099407D01*
X0311312Y0099579D01*
X0311970Y0099735D01*
X0312632Y0099875D01*
X0313296Y0099999D01*
X0313964Y0100107D01*
X0314634Y0100198D01*
X0315307Y0100272D01*
X0315981Y0100330D01*
X0316656Y0100372D01*
X0317332Y0100397D01*
X0318008Y0100405D01*
X0318684Y0100397D01*
X0319360Y0100372D01*
X0320035Y0100330D01*
X0320709Y0100272D01*
X0321382Y0100198D01*
X0322052Y0100107D01*
X0322720Y0099999D01*
X0323384Y0099875D01*
X0324046Y0099735D01*
X0324704Y0099579D01*
X0325358Y0099407D01*
X0326008Y0099218D01*
X0326653Y0099014D01*
X0327292Y0098794D01*
X0327926Y0098558D01*
X0328554Y0098307D01*
X0329176Y0098041D01*
X0329791Y0097759D01*
X0330399Y0097462D01*
X0330999Y0097151D01*
X0331592Y0096825D01*
X0332176Y0096484D01*
X0332752Y0096129D01*
X0333319Y0095760D01*
X0333877Y0095378D01*
X0334425Y0094982D01*
X0334963Y0094572D01*
X0335491Y0094149D01*
X0336009Y0093714D01*
X0336515Y0093266D01*
X0337011Y0092806D01*
X0337495Y0092333D01*
X0337968Y0091849D01*
X0338428Y0091353D01*
X0338876Y0090847D01*
X0339311Y0090329D01*
X0339734Y0089801D01*
X0340144Y0089263D01*
X0340540Y0088715D01*
X0340922Y0088157D01*
X0341291Y0087590D01*
X0341646Y0087014D01*
X0341987Y0086430D01*
X0342313Y0085837D01*
X0342624Y0085237D01*
X0342921Y0084629D01*
X0343203Y0084014D01*
X0343469Y0083392D01*
X0343720Y0082764D01*
X0343956Y0082130D01*
X0344176Y0081491D01*
X0344380Y0080846D01*
X0344569Y0080196D01*
X0344741Y0079542D01*
X0344897Y0078884D01*
X0345037Y0078222D01*
X0345161Y0077558D01*
X0345269Y0076890D01*
X0345360Y0076220D01*
X0345434Y0075547D01*
X0345492Y0074873D01*
X0345534Y0074198D01*
X0345559Y0073522D01*
X0345567Y0072846D01*
X0345559Y0072170D01*
X0345534Y0071494D01*
X0345492Y0070819D01*
X0345434Y0070145D01*
X0345360Y0069472D01*
X0345269Y0068802D01*
X0345161Y0068134D01*
X0345037Y0067470D01*
X0344897Y0066808D01*
X0344741Y0066150D01*
X0344569Y0065496D01*
X0344380Y0064846D01*
X0344176Y0064201D01*
X0343956Y0063562D01*
X0343720Y0062928D01*
X0343469Y0062300D01*
X0343203Y0061678D01*
X0342921Y0061063D01*
X0342624Y0060455D01*
X0342313Y0059855D01*
X0341987Y0059262D01*
X0341646Y0058678D01*
X0341291Y0058102D01*
X0340922Y0057535D01*
X0340540Y0056977D01*
X0340144Y0056429D01*
X0339734Y0055891D01*
X0339311Y0055363D01*
X0338876Y0054845D01*
X0338428Y0054339D01*
X0337968Y0053843D01*
X0337495Y0053359D01*
X0337011Y0052886D01*
X0336515Y0052426D01*
X0336009Y0051978D01*
X0335491Y0051543D01*
X0334963Y0051120D01*
X0334425Y0050710D01*
X0333877Y0050314D01*
X0333319Y0049932D01*
X0332752Y0049563D01*
X0332176Y0049208D01*
X0331592Y0048867D01*
X0330999Y0048541D01*
X0330399Y0048230D01*
X0329791Y0047933D01*
X0329176Y0047651D01*
X0328554Y0047385D01*
X0327926Y0047134D01*
X0327292Y0046898D01*
X0326653Y0046678D01*
X0326008Y0046474D01*
X0325358Y0046285D01*
X0324704Y0046113D01*
X0324046Y0045957D01*
X0323384Y0045817D01*
X0322720Y0045693D01*
X0322052Y0045585D01*
X0321382Y0045494D01*
X0320709Y0045420D01*
X0320035Y0045362D01*
X0319360Y0045320D01*
X0318684Y0045295D01*
X0318008Y0045287D01*
X0317332Y0045295D01*
X0316656Y0045320D01*
X0315981Y0045362D01*
X0315307Y0045420D01*
X0314634Y0045494D01*
X0313964Y0045585D01*
X0313296Y0045693D01*
X0312632Y0045817D01*
X0311970Y0045957D01*
X0311312Y0046113D01*
X0310658Y0046285D01*
X0310008Y0046474D01*
X0309363Y0046678D01*
X0308724Y0046898D01*
X0308090Y0047134D01*
X0307462Y0047385D01*
X0306840Y0047651D01*
X0306225Y0047933D01*
X0305617Y0048230D01*
X0305017Y0048541D01*
X0304424Y0048867D01*
X0303840Y0049208D01*
X0303264Y0049563D01*
X0302697Y0049932D01*
X0302139Y0050314D01*
X0301591Y0050710D01*
X0301053Y0051120D01*
X0300525Y0051543D01*
X0300007Y0051978D01*
X0299501Y0052426D01*
X0299005Y0052886D01*
X0298521Y0053359D01*
X0298048Y0053843D01*
X0297588Y0054339D01*
X0297140Y0054845D01*
X0296705Y0055363D01*
X0296282Y0055891D01*
X0295872Y0056429D01*
X0295476Y0056977D01*
X0295094Y0057535D01*
X0294725Y0058102D01*
X0294370Y0058678D01*
X0294029Y0059262D01*
X0293703Y0059855D01*
X0293392Y0060455D01*
X0293095Y0061063D01*
X0292813Y0061678D01*
X0292547Y0062300D01*
X0292296Y0062928D01*
X0292060Y0063562D01*
X0291840Y0064201D01*
X0291636Y0064846D01*
X0291447Y0065496D01*
X0291275Y0066150D01*
X0291119Y0066808D01*
X0290979Y0067470D01*
X0290855Y0068134D01*
X0290747Y0068802D01*
X0290656Y0069472D01*
X0290582Y0070145D01*
X0290524Y0070819D01*
X0290482Y0071494D01*
X0290457Y0072170D01*
X0290449Y0072846D01*
D15*
X0371773Y0081905D02*
X0371941Y0081812D01*
X0372107Y0081716D01*
X0372271Y0081616D01*
X0372432Y0081511D01*
X0372591Y0081403D01*
X0372747Y0081291D01*
X0372901Y0081175D01*
X0373051Y0081056D01*
X0373199Y0080933D01*
X0373344Y0080807D01*
X0373485Y0080677D01*
X0373624Y0080544D01*
X0373759Y0080407D01*
X0373891Y0080267D01*
X0374019Y0080125D01*
X0374144Y0079979D01*
X0374266Y0079830D01*
X0374384Y0079678D01*
X0374498Y0079524D01*
X0374608Y0079366D01*
X0374715Y0079207D01*
X0374818Y0079044D01*
X0374917Y0078879D01*
X0375012Y0078712D01*
X0375102Y0078543D01*
X0375189Y0078372D01*
X0375272Y0078198D01*
X0375350Y0078023D01*
X0375424Y0077845D01*
X0375494Y0077666D01*
X0375560Y0077486D01*
X0375621Y0077304D01*
X0375678Y0077120D01*
X0375730Y0076935D01*
X0375778Y0076749D01*
X0375822Y0076562D01*
X0375861Y0076374D01*
X0375895Y0076185D01*
X0375925Y0075995D01*
X0375950Y0075805D01*
X0375971Y0075614D01*
X0375987Y0075422D01*
X0375999Y0075230D01*
X0376006Y0075038D01*
X0376008Y0074846D01*
X0364039Y0081793D02*
X0363870Y0081694D01*
X0363704Y0081590D01*
X0363540Y0081483D01*
X0363379Y0081372D01*
X0363221Y0081257D01*
X0363066Y0081138D01*
X0362913Y0081015D01*
X0362764Y0080889D01*
X0362618Y0080759D01*
X0362475Y0080625D01*
X0362335Y0080488D01*
X0362199Y0080348D01*
X0362066Y0080204D01*
X0361937Y0080057D01*
X0361811Y0079907D01*
X0361690Y0079754D01*
X0361571Y0079598D01*
X0361457Y0079439D01*
X0361347Y0079278D01*
X0361241Y0079113D01*
X0361138Y0078947D01*
X0361040Y0078777D01*
X0360946Y0078606D01*
X0360856Y0078432D01*
X0360771Y0078256D01*
X0360689Y0078078D01*
X0360613Y0077898D01*
X0360540Y0077716D01*
X0360472Y0077533D01*
X0360409Y0077348D01*
X0360350Y0077161D01*
X0360296Y0076973D01*
X0360246Y0076784D01*
X0360201Y0076594D01*
X0360161Y0076402D01*
X0360125Y0076210D01*
X0360094Y0076017D01*
X0360068Y0075823D01*
X0360046Y0075628D01*
X0360030Y0075433D01*
X0360018Y0075238D01*
X0360010Y0075042D01*
X0360008Y0074847D01*
X0360008Y0074846D02*
X0360010Y0074653D01*
X0360017Y0074460D01*
X0360029Y0074268D01*
X0360045Y0074075D01*
X0360066Y0073883D01*
X0360092Y0073692D01*
X0360122Y0073502D01*
X0360157Y0073312D01*
X0360196Y0073123D01*
X0360240Y0072935D01*
X0360288Y0072748D01*
X0360341Y0072562D01*
X0360398Y0072378D01*
X0360460Y0072195D01*
X0360526Y0072014D01*
X0360597Y0071834D01*
X0360671Y0071656D01*
X0360750Y0071480D01*
X0360834Y0071306D01*
X0360921Y0071134D01*
X0361013Y0070964D01*
X0361109Y0070797D01*
X0361208Y0070631D01*
X0361312Y0070468D01*
X0361419Y0070308D01*
X0361531Y0070151D01*
X0361646Y0069996D01*
X0361765Y0069844D01*
X0361887Y0069695D01*
X0362013Y0069548D01*
X0362143Y0069405D01*
X0362276Y0069265D01*
X0362412Y0069129D01*
X0362552Y0068995D01*
X0362694Y0068866D01*
X0362840Y0068739D01*
X0373130Y0068700D02*
X0373278Y0068827D01*
X0373423Y0068957D01*
X0373564Y0069090D01*
X0373703Y0069227D01*
X0373838Y0069367D01*
X0373969Y0069511D01*
X0374097Y0069658D01*
X0374222Y0069807D01*
X0374343Y0069960D01*
X0374460Y0070115D01*
X0374573Y0070274D01*
X0374682Y0070435D01*
X0374787Y0070599D01*
X0374889Y0070765D01*
X0374986Y0070934D01*
X0375079Y0071104D01*
X0375168Y0071278D01*
X0375253Y0071453D01*
X0375333Y0071630D01*
X0375409Y0071809D01*
X0375481Y0071990D01*
X0375548Y0072173D01*
X0375611Y0072357D01*
X0375669Y0072543D01*
X0375723Y0072730D01*
X0375772Y0072918D01*
X0375817Y0073108D01*
X0375857Y0073298D01*
X0375892Y0073490D01*
X0375923Y0073682D01*
X0375949Y0073875D01*
X0375970Y0074069D01*
X0375987Y0074263D01*
X0375999Y0074457D01*
X0376006Y0074651D01*
X0376008Y0074846D01*
X0404526Y0062839D02*
X0442807Y0062839D01*
X0391744Y0057839D02*
X0391744Y0036854D01*
X0395776Y0036854D01*
X0408526Y0036854D02*
X0416526Y0036854D01*
X0424276Y0036854D02*
X0428276Y0036854D01*
X0436151Y0036854D02*
X0442807Y0036854D01*
X0364039Y0032793D02*
X0363870Y0032694D01*
X0363704Y0032590D01*
X0363540Y0032483D01*
X0363379Y0032372D01*
X0363221Y0032257D01*
X0363066Y0032138D01*
X0362913Y0032015D01*
X0362764Y0031889D01*
X0362618Y0031759D01*
X0362475Y0031625D01*
X0362335Y0031488D01*
X0362199Y0031348D01*
X0362066Y0031204D01*
X0361937Y0031057D01*
X0361811Y0030907D01*
X0361690Y0030754D01*
X0361571Y0030598D01*
X0361457Y0030439D01*
X0361347Y0030278D01*
X0361241Y0030113D01*
X0361138Y0029947D01*
X0361040Y0029777D01*
X0360946Y0029606D01*
X0360856Y0029432D01*
X0360771Y0029256D01*
X0360689Y0029078D01*
X0360613Y0028898D01*
X0360540Y0028716D01*
X0360472Y0028533D01*
X0360409Y0028348D01*
X0360350Y0028161D01*
X0360296Y0027973D01*
X0360246Y0027784D01*
X0360201Y0027594D01*
X0360161Y0027402D01*
X0360125Y0027210D01*
X0360094Y0027017D01*
X0360068Y0026823D01*
X0360046Y0026628D01*
X0360030Y0026433D01*
X0360018Y0026238D01*
X0360010Y0026042D01*
X0360008Y0025847D01*
X0371773Y0032905D02*
X0371941Y0032812D01*
X0372107Y0032716D01*
X0372271Y0032616D01*
X0372432Y0032511D01*
X0372591Y0032403D01*
X0372747Y0032291D01*
X0372901Y0032175D01*
X0373051Y0032056D01*
X0373199Y0031933D01*
X0373344Y0031807D01*
X0373485Y0031677D01*
X0373624Y0031544D01*
X0373759Y0031407D01*
X0373891Y0031267D01*
X0374019Y0031125D01*
X0374144Y0030979D01*
X0374266Y0030830D01*
X0374384Y0030678D01*
X0374498Y0030524D01*
X0374608Y0030366D01*
X0374715Y0030207D01*
X0374818Y0030044D01*
X0374917Y0029879D01*
X0375012Y0029712D01*
X0375102Y0029543D01*
X0375189Y0029372D01*
X0375272Y0029198D01*
X0375350Y0029023D01*
X0375424Y0028845D01*
X0375494Y0028666D01*
X0375560Y0028486D01*
X0375621Y0028304D01*
X0375678Y0028120D01*
X0375730Y0027935D01*
X0375778Y0027749D01*
X0375822Y0027562D01*
X0375861Y0027374D01*
X0375895Y0027185D01*
X0375925Y0026995D01*
X0375950Y0026805D01*
X0375971Y0026614D01*
X0375987Y0026422D01*
X0375999Y0026230D01*
X0376006Y0026038D01*
X0376008Y0025846D01*
X0362840Y0019739D02*
X0362694Y0019866D01*
X0362552Y0019995D01*
X0362412Y0020129D01*
X0362276Y0020265D01*
X0362143Y0020405D01*
X0362013Y0020548D01*
X0361887Y0020695D01*
X0361765Y0020844D01*
X0361646Y0020996D01*
X0361531Y0021151D01*
X0361419Y0021308D01*
X0361312Y0021468D01*
X0361208Y0021631D01*
X0361109Y0021797D01*
X0361013Y0021964D01*
X0360921Y0022134D01*
X0360834Y0022306D01*
X0360750Y0022480D01*
X0360671Y0022656D01*
X0360597Y0022834D01*
X0360526Y0023014D01*
X0360460Y0023195D01*
X0360398Y0023378D01*
X0360341Y0023562D01*
X0360288Y0023748D01*
X0360240Y0023935D01*
X0360196Y0024123D01*
X0360157Y0024312D01*
X0360122Y0024502D01*
X0360092Y0024692D01*
X0360066Y0024883D01*
X0360045Y0025075D01*
X0360029Y0025268D01*
X0360017Y0025460D01*
X0360010Y0025653D01*
X0360008Y0025846D01*
X0373130Y0019700D02*
X0373278Y0019827D01*
X0373423Y0019957D01*
X0373564Y0020090D01*
X0373703Y0020227D01*
X0373838Y0020367D01*
X0373969Y0020511D01*
X0374097Y0020658D01*
X0374222Y0020807D01*
X0374343Y0020960D01*
X0374460Y0021115D01*
X0374573Y0021274D01*
X0374682Y0021435D01*
X0374787Y0021599D01*
X0374889Y0021765D01*
X0374986Y0021934D01*
X0375079Y0022104D01*
X0375168Y0022278D01*
X0375253Y0022453D01*
X0375333Y0022630D01*
X0375409Y0022809D01*
X0375481Y0022990D01*
X0375548Y0023173D01*
X0375611Y0023357D01*
X0375669Y0023543D01*
X0375723Y0023730D01*
X0375772Y0023918D01*
X0375817Y0024108D01*
X0375857Y0024298D01*
X0375892Y0024490D01*
X0375923Y0024682D01*
X0375949Y0024875D01*
X0375970Y0025069D01*
X0375987Y0025263D01*
X0375999Y0025457D01*
X0376006Y0025651D01*
X0376008Y0025846D01*
X0376008Y0049846D02*
X0376006Y0050038D01*
X0375999Y0050230D01*
X0375987Y0050422D01*
X0375971Y0050614D01*
X0375950Y0050805D01*
X0375925Y0050995D01*
X0375895Y0051185D01*
X0375861Y0051374D01*
X0375822Y0051562D01*
X0375778Y0051749D01*
X0375730Y0051935D01*
X0375678Y0052120D01*
X0375621Y0052304D01*
X0375560Y0052486D01*
X0375494Y0052666D01*
X0375424Y0052845D01*
X0375350Y0053023D01*
X0375272Y0053198D01*
X0375189Y0053372D01*
X0375102Y0053543D01*
X0375012Y0053712D01*
X0374917Y0053879D01*
X0374818Y0054044D01*
X0374715Y0054207D01*
X0374608Y0054366D01*
X0374498Y0054524D01*
X0374384Y0054678D01*
X0374266Y0054830D01*
X0374144Y0054979D01*
X0374019Y0055125D01*
X0373891Y0055267D01*
X0373759Y0055407D01*
X0373624Y0055544D01*
X0373485Y0055677D01*
X0373344Y0055807D01*
X0373199Y0055933D01*
X0373051Y0056056D01*
X0372901Y0056175D01*
X0372747Y0056291D01*
X0372591Y0056403D01*
X0372432Y0056511D01*
X0372271Y0056616D01*
X0372107Y0056716D01*
X0371941Y0056812D01*
X0371773Y0056905D01*
X0364039Y0056793D02*
X0363870Y0056694D01*
X0363704Y0056590D01*
X0363540Y0056483D01*
X0363379Y0056372D01*
X0363221Y0056257D01*
X0363066Y0056138D01*
X0362913Y0056015D01*
X0362764Y0055889D01*
X0362618Y0055759D01*
X0362475Y0055625D01*
X0362335Y0055488D01*
X0362199Y0055348D01*
X0362066Y0055204D01*
X0361937Y0055057D01*
X0361811Y0054907D01*
X0361690Y0054754D01*
X0361571Y0054598D01*
X0361457Y0054439D01*
X0361347Y0054278D01*
X0361241Y0054113D01*
X0361138Y0053947D01*
X0361040Y0053777D01*
X0360946Y0053606D01*
X0360856Y0053432D01*
X0360771Y0053256D01*
X0360689Y0053078D01*
X0360613Y0052898D01*
X0360540Y0052716D01*
X0360472Y0052533D01*
X0360409Y0052348D01*
X0360350Y0052161D01*
X0360296Y0051973D01*
X0360246Y0051784D01*
X0360201Y0051594D01*
X0360161Y0051402D01*
X0360125Y0051210D01*
X0360094Y0051017D01*
X0360068Y0050823D01*
X0360046Y0050628D01*
X0360030Y0050433D01*
X0360018Y0050238D01*
X0360010Y0050042D01*
X0360008Y0049847D01*
X0360008Y0049846D02*
X0360010Y0049653D01*
X0360017Y0049460D01*
X0360029Y0049268D01*
X0360045Y0049075D01*
X0360066Y0048883D01*
X0360092Y0048692D01*
X0360122Y0048502D01*
X0360157Y0048312D01*
X0360196Y0048123D01*
X0360240Y0047935D01*
X0360288Y0047748D01*
X0360341Y0047562D01*
X0360398Y0047378D01*
X0360460Y0047195D01*
X0360526Y0047014D01*
X0360597Y0046834D01*
X0360671Y0046656D01*
X0360750Y0046480D01*
X0360834Y0046306D01*
X0360921Y0046134D01*
X0361013Y0045964D01*
X0361109Y0045797D01*
X0361208Y0045631D01*
X0361312Y0045468D01*
X0361419Y0045308D01*
X0361531Y0045151D01*
X0361646Y0044996D01*
X0361765Y0044844D01*
X0361887Y0044695D01*
X0362013Y0044548D01*
X0362143Y0044405D01*
X0362276Y0044265D01*
X0362412Y0044129D01*
X0362552Y0043995D01*
X0362694Y0043866D01*
X0362840Y0043739D01*
X0373130Y0043700D02*
X0373278Y0043827D01*
X0373423Y0043957D01*
X0373564Y0044090D01*
X0373703Y0044227D01*
X0373838Y0044367D01*
X0373969Y0044511D01*
X0374097Y0044658D01*
X0374222Y0044807D01*
X0374343Y0044960D01*
X0374460Y0045115D01*
X0374573Y0045274D01*
X0374682Y0045435D01*
X0374787Y0045599D01*
X0374889Y0045765D01*
X0374986Y0045934D01*
X0375079Y0046104D01*
X0375168Y0046278D01*
X0375253Y0046453D01*
X0375333Y0046630D01*
X0375409Y0046809D01*
X0375481Y0046990D01*
X0375548Y0047173D01*
X0375611Y0047357D01*
X0375669Y0047543D01*
X0375723Y0047730D01*
X0375772Y0047918D01*
X0375817Y0048108D01*
X0375857Y0048298D01*
X0375892Y0048490D01*
X0375923Y0048682D01*
X0375949Y0048875D01*
X0375970Y0049069D01*
X0375987Y0049263D01*
X0375999Y0049457D01*
X0376006Y0049651D01*
X0376008Y0049846D01*
X0074287Y0041854D02*
X0074287Y0062839D01*
X0070256Y0062839D01*
X0057506Y0062839D02*
X0049506Y0062839D01*
X0041756Y0062839D02*
X0037756Y0062839D01*
X0029881Y0062839D02*
X0023224Y0062839D01*
X0023224Y0036854D02*
X0061506Y0036854D01*
D16*
X0225520Y0062647D02*
X0225770Y0062396D01*
X0226771Y0062396D01*
X0227021Y0062647D01*
X0227021Y0063147D01*
X0226771Y0063397D01*
X0226771Y0063870D02*
X0226520Y0063870D01*
X0226270Y0064120D01*
X0226270Y0064620D01*
X0226520Y0064871D01*
X0226771Y0064871D01*
X0227021Y0064620D01*
X0227021Y0064120D01*
X0226771Y0063870D01*
X0226270Y0064120D02*
X0226020Y0063870D01*
X0225770Y0063870D01*
X0225520Y0064120D01*
X0225520Y0064620D01*
X0225770Y0064871D01*
X0226020Y0064871D01*
X0226270Y0064620D01*
X0225770Y0063397D02*
X0225520Y0063147D01*
X0225520Y0062647D01*
X0240245Y0053297D02*
X0240745Y0053798D01*
X0240745Y0052296D01*
X0240245Y0052296D02*
X0241246Y0052296D01*
X0241718Y0052547D02*
X0242719Y0053548D01*
X0242719Y0052547D01*
X0242469Y0052296D01*
X0241969Y0052296D01*
X0241718Y0052547D01*
X0241718Y0053548D01*
X0241969Y0053798D01*
X0242469Y0053798D01*
X0242719Y0053548D01*
X0243192Y0053798D02*
X0243942Y0053798D01*
X0244192Y0053548D01*
X0244192Y0053297D01*
X0243942Y0053047D01*
X0243192Y0053047D01*
X0243942Y0053047D02*
X0244192Y0052797D01*
X0244192Y0052547D01*
X0243942Y0052296D01*
X0243192Y0052296D01*
X0243192Y0053798D01*
X0244665Y0053548D02*
X0244915Y0053798D01*
X0245415Y0053798D01*
X0245666Y0053548D01*
X0245666Y0052547D01*
X0245415Y0052296D01*
X0244915Y0052296D01*
X0244665Y0052547D01*
X0244665Y0053548D01*
X0245165Y0052797D02*
X0245666Y0052296D01*
X0246138Y0052547D02*
X0247139Y0053548D01*
X0247139Y0052547D01*
X0246889Y0052296D01*
X0246388Y0052296D01*
X0246138Y0052547D01*
X0246138Y0053548D01*
X0246388Y0053798D01*
X0246889Y0053798D01*
X0247139Y0053548D01*
X0247611Y0053297D02*
X0248112Y0053798D01*
X0248112Y0052296D01*
X0248612Y0052296D02*
X0247611Y0052296D01*
X0249085Y0052547D02*
X0249335Y0052296D01*
X0249835Y0052296D01*
X0250085Y0052547D01*
X0250085Y0053047D01*
X0249835Y0053297D01*
X0249585Y0053297D01*
X0249085Y0053047D01*
X0249085Y0053798D01*
X0250085Y0053798D01*
X0257611Y0053798D02*
X0257611Y0052296D01*
X0258362Y0052296D01*
X0258612Y0052547D01*
X0258612Y0053548D01*
X0258362Y0053798D01*
X0257611Y0053798D01*
X0259085Y0053798D02*
X0260085Y0053798D01*
X0260085Y0053548D01*
X0259085Y0052547D01*
X0259085Y0052296D01*
X0276957Y0049843D02*
X0277457Y0049343D01*
X0277207Y0048871D02*
X0276957Y0048620D01*
X0276957Y0048120D01*
X0277207Y0047870D01*
X0277457Y0047870D01*
X0277707Y0048120D01*
X0277707Y0048620D01*
X0277957Y0048871D01*
X0278208Y0048871D01*
X0278458Y0048620D01*
X0278458Y0048120D01*
X0278208Y0047870D01*
X0278208Y0047397D02*
X0276957Y0047397D01*
X0276957Y0046396D02*
X0278208Y0046396D01*
X0278458Y0046647D01*
X0278458Y0047147D01*
X0278208Y0047397D01*
X0278708Y0048370D02*
X0276706Y0048370D01*
X0278458Y0049343D02*
X0278458Y0050344D01*
X0278458Y0049843D02*
X0276957Y0049843D01*
X0279457Y0050094D02*
X0280207Y0049343D01*
X0280207Y0050344D01*
X0279707Y0050816D02*
X0279457Y0051066D01*
X0279457Y0051567D01*
X0279707Y0051817D01*
X0280708Y0050816D01*
X0280958Y0051066D01*
X0280958Y0051567D01*
X0280708Y0051817D01*
X0279707Y0051817D01*
X0279457Y0052289D02*
X0280207Y0052289D01*
X0279957Y0052790D01*
X0279957Y0053040D01*
X0280207Y0053290D01*
X0280708Y0053290D01*
X0280958Y0053040D01*
X0280958Y0052540D01*
X0280708Y0052289D01*
X0279457Y0052289D02*
X0279457Y0053290D01*
X0280207Y0053763D02*
X0280207Y0054513D01*
X0280457Y0054764D01*
X0280708Y0054764D01*
X0280958Y0054513D01*
X0280958Y0054013D01*
X0280708Y0053763D01*
X0280207Y0053763D01*
X0279707Y0054263D01*
X0279457Y0054764D01*
X0280207Y0055236D02*
X0280207Y0056237D01*
X0279707Y0056709D02*
X0280708Y0056709D01*
X0280958Y0056959D01*
X0280958Y0057460D01*
X0280708Y0057710D01*
X0280958Y0058182D02*
X0279457Y0058182D01*
X0279707Y0057710D02*
X0279457Y0057460D01*
X0279457Y0056959D01*
X0279707Y0056709D01*
X0280207Y0058182D02*
X0280207Y0059183D01*
X0279457Y0059183D02*
X0280958Y0059183D01*
X0280958Y0059656D02*
X0280958Y0060156D01*
X0280958Y0059906D02*
X0279457Y0059906D01*
X0279457Y0059656D02*
X0279457Y0060156D01*
X0279457Y0060638D02*
X0279457Y0061389D01*
X0279707Y0061639D01*
X0280207Y0061639D01*
X0280457Y0061389D01*
X0280457Y0060638D01*
X0280958Y0060638D02*
X0279457Y0060638D01*
X0279707Y0050816D02*
X0280708Y0050816D01*
X0280958Y0050094D02*
X0279457Y0050094D01*
X0279707Y0048871D02*
X0280207Y0048871D01*
X0280457Y0048620D01*
X0280457Y0047870D01*
X0280958Y0047870D02*
X0279457Y0047870D01*
X0279457Y0048620D01*
X0279707Y0048871D01*
X0279457Y0047397D02*
X0279457Y0046396D01*
X0279457Y0046897D02*
X0280958Y0046897D01*
X0326994Y0035174D02*
X0327244Y0035424D01*
X0327494Y0035424D01*
X0327744Y0035174D01*
X0327994Y0035424D01*
X0328245Y0035424D01*
X0328495Y0035174D01*
X0328495Y0034673D01*
X0328245Y0034423D01*
X0328495Y0033951D02*
X0328495Y0032950D01*
X0328495Y0033450D02*
X0326994Y0033450D01*
X0327494Y0032950D01*
X0327244Y0032478D02*
X0326994Y0032227D01*
X0326994Y0031727D01*
X0327244Y0031477D01*
X0328245Y0031477D01*
X0328495Y0031727D01*
X0328495Y0032227D01*
X0328245Y0032478D01*
X0327244Y0034423D02*
X0326994Y0034673D01*
X0326994Y0035174D01*
X0327744Y0035174D02*
X0327744Y0034924D01*
X0326801Y0023818D02*
X0326801Y0022817D01*
X0328302Y0022817D01*
X0328302Y0022344D02*
X0327301Y0022344D01*
X0327551Y0022817D02*
X0327551Y0023317D01*
X0328302Y0022344D02*
X0328302Y0021594D01*
X0328052Y0021344D01*
X0327301Y0021344D01*
X0327051Y0020871D02*
X0328052Y0019870D01*
X0328302Y0020121D01*
X0328302Y0020621D01*
X0328052Y0020871D01*
X0327051Y0020871D01*
X0326801Y0020621D01*
X0326801Y0020121D01*
X0327051Y0019870D01*
X0328052Y0019870D01*
X0328302Y0019398D02*
X0328302Y0018397D01*
X0328302Y0018898D02*
X0326801Y0018898D01*
X0327301Y0018397D01*
X0312835Y0012798D02*
X0312085Y0012047D01*
X0313085Y0012047D01*
X0312835Y0011296D02*
X0312835Y0012798D01*
X0311612Y0011296D02*
X0310611Y0011296D01*
X0310611Y0012798D01*
X0303085Y0012798D02*
X0303085Y0011296D01*
X0303085Y0012047D02*
X0302085Y0012047D01*
X0301612Y0012297D02*
X0301612Y0011296D01*
X0300862Y0011296D01*
X0300611Y0011547D01*
X0300611Y0012297D01*
X0300139Y0012548D02*
X0299138Y0011547D01*
X0299138Y0011296D01*
X0298652Y0011296D02*
X0298401Y0011296D01*
X0298401Y0011547D01*
X0298652Y0011547D01*
X0298652Y0011296D01*
X0297929Y0011296D02*
X0296928Y0011296D01*
X0297929Y0012297D01*
X0297929Y0012548D01*
X0297679Y0012798D01*
X0297178Y0012798D01*
X0296928Y0012548D01*
X0299138Y0012798D02*
X0300139Y0012798D01*
X0300139Y0012548D01*
X0302085Y0012798D02*
X0302085Y0011296D01*
X0227214Y0074003D02*
X0226213Y0075004D01*
X0225963Y0075004D01*
X0225712Y0074753D01*
X0225712Y0074253D01*
X0225963Y0074003D01*
X0227214Y0074003D02*
X0227214Y0075004D01*
X0227214Y0075476D02*
X0227214Y0075726D01*
X0226964Y0075726D01*
X0226964Y0075476D01*
X0227214Y0075476D01*
X0227214Y0076213D02*
X0226213Y0077213D01*
X0225963Y0077213D01*
X0225712Y0076963D01*
X0225712Y0076463D01*
X0225963Y0076213D01*
X0227214Y0076213D02*
X0227214Y0077213D01*
X0227214Y0077686D02*
X0227214Y0078437D01*
X0226964Y0078687D01*
X0226463Y0078687D01*
X0226213Y0078437D01*
X0226213Y0077686D01*
X0227714Y0077686D01*
X0226463Y0079159D02*
X0226463Y0079660D01*
X0225963Y0079409D02*
X0225712Y0079660D01*
X0225963Y0079409D02*
X0227214Y0079409D01*
D17*
X0226842Y0048248D02*
X0226842Y0046846D01*
X0226375Y0046846D02*
X0227309Y0046846D01*
X0227849Y0046846D02*
X0228783Y0047781D01*
X0228783Y0048014D01*
X0228549Y0048248D01*
X0228082Y0048248D01*
X0227849Y0048014D01*
X0226842Y0048248D02*
X0226375Y0047781D01*
X0225836Y0048014D02*
X0225603Y0048248D01*
X0225136Y0048248D01*
X0224902Y0048014D01*
X0224902Y0047080D01*
X0225136Y0046846D01*
X0225603Y0046846D01*
X0225836Y0047080D01*
X0225836Y0047547D01*
X0225369Y0047547D01*
X0224363Y0046846D02*
X0223429Y0046846D01*
X0223429Y0048248D01*
X0224363Y0048248D01*
X0223896Y0047547D02*
X0223429Y0047547D01*
X0222890Y0047547D02*
X0222656Y0047314D01*
X0221955Y0047314D01*
X0221955Y0046846D02*
X0221955Y0048248D01*
X0222656Y0048248D01*
X0222890Y0048014D01*
X0222890Y0047547D01*
X0222423Y0047314D02*
X0222890Y0046846D01*
X0221416Y0047314D02*
X0221416Y0048248D01*
X0220482Y0048248D02*
X0220482Y0047314D01*
X0220949Y0046846D01*
X0221416Y0047314D01*
X0227849Y0046846D02*
X0228783Y0046846D01*
X0229322Y0046613D02*
X0230256Y0046613D01*
X0230795Y0047080D02*
X0231029Y0046846D01*
X0231496Y0046846D01*
X0231729Y0047080D01*
X0231729Y0047314D01*
X0231496Y0047547D01*
X0231029Y0047547D01*
X0230795Y0047781D01*
X0230795Y0048014D01*
X0231029Y0048248D01*
X0231496Y0048248D01*
X0231729Y0048014D01*
X0232268Y0048014D02*
X0232268Y0047080D01*
X0232502Y0046846D01*
X0232969Y0046846D01*
X0233202Y0047080D01*
X0233202Y0048014D01*
X0232969Y0048248D01*
X0232502Y0048248D01*
X0232268Y0048014D01*
X0233742Y0048248D02*
X0234676Y0048248D01*
X0234209Y0048248D02*
X0234209Y0046846D01*
X0235215Y0046846D02*
X0236149Y0047781D01*
X0236149Y0048014D01*
X0235915Y0048248D01*
X0235448Y0048248D01*
X0235215Y0048014D01*
X0235215Y0046846D02*
X0236149Y0046846D01*
X0236688Y0047080D02*
X0236922Y0046846D01*
X0237389Y0046846D01*
X0237622Y0047080D01*
X0237622Y0047314D01*
X0237389Y0047547D01*
X0237155Y0047547D01*
X0237389Y0047547D02*
X0237622Y0047781D01*
X0237622Y0048014D01*
X0237389Y0048248D01*
X0236922Y0048248D01*
X0236688Y0048014D01*
X0238161Y0047547D02*
X0239095Y0047547D01*
X0239635Y0047547D02*
X0240102Y0047781D01*
X0240335Y0047781D01*
X0240569Y0047547D01*
X0240569Y0047080D01*
X0240335Y0046846D01*
X0239868Y0046846D01*
X0239635Y0047080D01*
X0239635Y0047547D02*
X0239635Y0048248D01*
X0240569Y0048248D01*
X0354108Y0032348D02*
X0354108Y0030946D01*
X0354808Y0030946D01*
X0355042Y0031180D01*
X0355042Y0032114D01*
X0354808Y0032348D01*
X0354108Y0032348D01*
X0355581Y0032348D02*
X0355581Y0030946D01*
X0356048Y0031414D01*
X0356515Y0030946D01*
X0356515Y0032348D01*
X0357054Y0032114D02*
X0357288Y0032348D01*
X0357755Y0032348D01*
X0357989Y0032114D01*
X0357054Y0031180D01*
X0357288Y0030946D01*
X0357755Y0030946D01*
X0357989Y0031180D01*
X0357989Y0032114D01*
X0358528Y0031881D02*
X0358995Y0032348D01*
X0358995Y0030946D01*
X0358528Y0030946D02*
X0359462Y0030946D01*
X0360001Y0030946D02*
X0360001Y0031881D01*
X0360468Y0032348D01*
X0360935Y0031881D01*
X0360935Y0030946D01*
X0360935Y0031647D02*
X0360001Y0031647D01*
X0357054Y0031180D02*
X0357054Y0032114D01*
D18*
X0248756Y0033157D02*
X0248756Y0029220D01*
X0248756Y0033157D02*
X0244819Y0033157D01*
X0221197Y0033157D02*
X0217260Y0033157D01*
X0217288Y0033086D02*
X0217288Y0029220D01*
X0217260Y0029220D01*
X0217260Y0017409D02*
X0217260Y0013472D01*
X0248756Y0013472D02*
X0248756Y0017409D01*
M02*
