G75*
%MOIN*%
%OFA0B0*%
%FSLAX25Y25*%
%IPPOS*%
%LPD*%
%AMOC8*
5,1,8,0,0,1.08239X$1,22.5*
%
%ADD10C,0.00400*%
%ADD11R,0.04331X0.05512*%
%ADD12OC8,0.05200*%
%ADD13C,0.05600*%
%ADD14R,0.03150X0.03543*%
%ADD15R,0.03937X0.04331*%
%ADD16R,0.05787X0.05000*%
%ADD17R,0.03937X0.05512*%
%ADD18R,0.08661X0.06299*%
%ADD19R,0.01575X0.03937*%
%ADD20C,0.07400*%
%ADD21R,0.01200X0.00600*%
%ADD22R,0.03075X0.05709*%
%ADD23R,0.03000X0.05709*%
%ADD24R,0.07087X0.05906*%
%ADD25R,0.09843X0.05906*%
%ADD26R,0.01181X0.03756*%
%ADD27R,0.02165X0.04724*%
%ADD28R,0.16535X0.05512*%
%ADD29R,0.04331X0.03937*%
%ADD30R,0.06299X0.07087*%
%ADD31R,0.05937X0.05937*%
%ADD32R,0.08268X0.08268*%
%ADD33R,0.02717X0.04724*%
%ADD34R,0.02165X0.03150*%
%ADD35R,0.08661X0.05512*%
%ADD36R,0.10236X0.05512*%
%ADD37R,0.08661X0.02362*%
%ADD38C,0.00600*%
%ADD39C,0.02578*%
D10*
X0016970Y0085647D02*
X0016970Y0087849D01*
X0018071Y0087849D01*
X0018438Y0087482D01*
X0018438Y0086748D01*
X0018071Y0086381D01*
X0016970Y0086381D01*
X0019364Y0086381D02*
X0020098Y0086381D01*
X0019731Y0086381D02*
X0019731Y0087849D01*
X0019364Y0087849D01*
X0019731Y0088583D02*
X0019731Y0088950D01*
X0020960Y0087482D02*
X0021327Y0087849D01*
X0022061Y0087849D01*
X0022428Y0087482D01*
X0022428Y0087115D01*
X0020960Y0087115D01*
X0020960Y0086748D02*
X0020960Y0087482D01*
X0020960Y0086748D02*
X0021327Y0086381D01*
X0022061Y0086381D01*
X0023354Y0086381D02*
X0024822Y0086381D01*
X0025748Y0086748D02*
X0025748Y0087482D01*
X0026115Y0087849D01*
X0026849Y0087849D01*
X0027216Y0087482D01*
X0027216Y0086748D01*
X0026849Y0086381D01*
X0026115Y0086381D01*
X0025748Y0086748D01*
X0024822Y0087849D02*
X0023354Y0086381D01*
X0023354Y0087849D02*
X0024822Y0087849D01*
X0028142Y0087482D02*
X0029610Y0087482D01*
X0030536Y0087115D02*
X0031270Y0087849D01*
X0031637Y0087849D01*
X0032531Y0087482D02*
X0032898Y0087849D01*
X0033632Y0087849D01*
X0033999Y0087482D01*
X0033999Y0087115D01*
X0032531Y0087115D01*
X0032531Y0086748D02*
X0032531Y0087482D01*
X0032531Y0086748D02*
X0032898Y0086381D01*
X0033632Y0086381D01*
X0034925Y0087849D02*
X0035659Y0086381D01*
X0036393Y0087849D01*
X0037319Y0087482D02*
X0038787Y0087482D01*
X0039713Y0086748D02*
X0040080Y0086381D01*
X0040814Y0086381D01*
X0041181Y0086748D01*
X0041181Y0087115D01*
X0040814Y0087482D01*
X0040447Y0087482D01*
X0040814Y0087482D02*
X0041181Y0087849D01*
X0041181Y0088216D01*
X0040814Y0088583D01*
X0040080Y0088583D01*
X0039713Y0088216D01*
X0042108Y0087482D02*
X0043575Y0087482D01*
X0044502Y0087849D02*
X0045236Y0088583D01*
X0045236Y0086381D01*
X0044502Y0086381D02*
X0045970Y0086381D01*
X0046896Y0086748D02*
X0048364Y0088216D01*
X0048364Y0086748D01*
X0047997Y0086381D01*
X0047263Y0086381D01*
X0046896Y0086748D01*
X0046896Y0088216D01*
X0047263Y0088583D01*
X0047997Y0088583D01*
X0048364Y0088216D01*
X0030536Y0087849D02*
X0030536Y0086381D01*
D11*
X0130916Y0056697D03*
X0138790Y0056697D03*
X0041628Y0039878D03*
X0033754Y0039878D03*
X0049479Y0022500D03*
X0057353Y0022500D03*
D12*
X0175030Y0020768D03*
X0175030Y0030768D03*
X0333628Y0050768D03*
X0333628Y0060768D03*
D13*
X0132030Y0025913D03*
X0124156Y0025913D03*
D14*
X0106648Y0022843D03*
X0099168Y0022843D03*
X0102908Y0031110D03*
D15*
X0088920Y0037280D03*
X0082227Y0037280D03*
X0068160Y0037413D03*
X0061467Y0037413D03*
X0061703Y0049461D03*
X0068396Y0049461D03*
X0040061Y0053307D03*
X0033369Y0053307D03*
X0062109Y0061878D03*
X0068802Y0061878D03*
X0066223Y0076421D03*
X0072916Y0076421D03*
X0167676Y0081232D03*
X0174369Y0081232D03*
X0193077Y0073004D03*
X0199770Y0073004D03*
X0209928Y0058980D03*
X0216620Y0058980D03*
X0261837Y0050220D03*
X0268530Y0050220D03*
X0280302Y0051386D03*
X0286994Y0051386D03*
X0268628Y0036201D03*
X0261935Y0036201D03*
X0280408Y0020453D03*
X0287101Y0020453D03*
X0322660Y0020453D03*
X0329353Y0020453D03*
X0352191Y0045685D03*
X0358884Y0045685D03*
X0350054Y0068209D03*
X0343361Y0068209D03*
X0299042Y0068378D03*
X0292349Y0068378D03*
X0343487Y0083169D03*
X0350180Y0083169D03*
X0156006Y0045161D03*
X0149313Y0045161D03*
X0089034Y0022610D03*
X0082341Y0022610D03*
X0071782Y0022472D03*
X0065089Y0022472D03*
X0041475Y0022524D03*
X0034782Y0022524D03*
D16*
X0243640Y0071882D03*
X0243640Y0088811D03*
D17*
X0022660Y0032846D03*
X0026400Y0024185D03*
X0018920Y0024185D03*
D18*
X0173266Y0045846D03*
X0173266Y0056870D03*
D19*
X0341105Y0037618D03*
X0343664Y0037618D03*
X0346223Y0037618D03*
X0348782Y0037618D03*
X0348782Y0020295D03*
X0346223Y0020295D03*
X0343664Y0020295D03*
X0341105Y0020295D03*
D20*
X0151388Y0022702D03*
X0151388Y0034102D03*
D21*
X0205093Y0027075D03*
X0207652Y0027075D03*
X0210211Y0027075D03*
D22*
X0201534Y0032075D03*
D23*
X0213770Y0032075D03*
D24*
X0222160Y0021346D03*
X0193144Y0021346D03*
D25*
X0207652Y0021346D03*
D26*
X0311372Y0055898D03*
X0313341Y0055898D03*
X0315309Y0055898D03*
X0315309Y0061298D03*
X0313341Y0061298D03*
X0311372Y0061298D03*
D27*
X0245487Y0064256D03*
X0238006Y0064256D03*
X0238006Y0054019D03*
X0241746Y0054019D03*
X0245487Y0054019D03*
D28*
X0241400Y0033224D03*
X0241400Y0018657D03*
D29*
X0261132Y0020177D03*
X0267825Y0020177D03*
X0301573Y0020531D03*
X0308266Y0020531D03*
X0286668Y0035280D03*
X0279975Y0035280D03*
X0301731Y0036201D03*
X0308424Y0036201D03*
X0322306Y0038240D03*
X0328998Y0038240D03*
X0244825Y0044106D03*
X0238132Y0044106D03*
X0200880Y0059106D03*
X0194187Y0059106D03*
X0263865Y0084185D03*
X0270557Y0084185D03*
X0277534Y0084264D03*
X0284227Y0084264D03*
X0292258Y0084421D03*
X0298951Y0084421D03*
D30*
X0222101Y0073240D03*
X0211077Y0073240D03*
D31*
X0206077Y0046862D03*
X0190329Y0046862D03*
X0221825Y0046862D03*
D32*
X0225762Y0086232D03*
X0186392Y0086232D03*
D33*
X0266754Y0072815D03*
X0274235Y0072815D03*
X0274235Y0062578D03*
X0270494Y0062578D03*
X0266754Y0062578D03*
D34*
X0317392Y0077185D03*
X0321132Y0077185D03*
X0324872Y0077185D03*
X0324872Y0086634D03*
X0321132Y0086634D03*
X0317392Y0086634D03*
D35*
X0127337Y0077177D03*
X0114739Y0077177D03*
D36*
X0139739Y0076783D03*
X0155880Y0076783D03*
D37*
X0103321Y0066567D03*
X0103321Y0061567D03*
X0103321Y0056567D03*
X0103321Y0051567D03*
X0082849Y0051567D03*
X0082849Y0056567D03*
X0082849Y0061567D03*
X0082849Y0066567D03*
D38*
X0050002Y0022498D02*
X0054202Y0018298D01*
X0059802Y0018298D01*
X0063302Y0021798D01*
X0064702Y0021798D01*
X0065089Y0022472D01*
X0071782Y0022472D02*
X0072402Y0022498D01*
X0073802Y0022498D01*
X0085702Y0034398D01*
X0085702Y0039998D01*
X0096202Y0050498D01*
X0102502Y0050498D01*
X0103202Y0051198D01*
X0103321Y0051567D01*
X0098302Y0053998D02*
X0096202Y0051898D01*
X0082902Y0051898D01*
X0082849Y0051567D01*
X0082202Y0051198D01*
X0082202Y0037898D01*
X0082227Y0037280D01*
X0082202Y0037198D01*
X0068202Y0037198D01*
X0068160Y0037413D01*
X0067502Y0037198D01*
X0064702Y0034398D01*
X0064702Y0032998D01*
X0066802Y0025998D02*
X0057702Y0035098D01*
X0057702Y0051198D01*
X0068202Y0061698D01*
X0068802Y0061878D01*
X0073102Y0065898D02*
X0077302Y0061698D01*
X0077302Y0059598D01*
X0078002Y0058898D01*
X0094102Y0058898D01*
X0094802Y0059598D01*
X0097602Y0059598D01*
X0098302Y0058898D01*
X0108102Y0058898D01*
X0110902Y0056098D01*
X0110902Y0046998D01*
X0131902Y0025998D01*
X0132030Y0025913D01*
X0136102Y0023898D02*
X0134002Y0021798D01*
X0127702Y0021798D01*
X0124202Y0025298D01*
X0124156Y0025913D01*
X0123502Y0025998D01*
X0121402Y0028098D01*
X0108802Y0028098D01*
X0108802Y0053298D01*
X0108102Y0053998D01*
X0098302Y0053998D01*
X0096202Y0056798D02*
X0103202Y0056798D01*
X0103321Y0056567D01*
X0089902Y0056098D02*
X0087802Y0053998D01*
X0066102Y0053998D01*
X0061902Y0049798D01*
X0061703Y0049461D01*
X0068396Y0049461D02*
X0068902Y0049098D01*
X0071002Y0046998D01*
X0061902Y0037898D01*
X0061467Y0037413D01*
X0071002Y0046998D02*
X0076602Y0041398D01*
X0088920Y0037280D02*
X0089202Y0037898D01*
X0097602Y0046298D01*
X0103202Y0045598D02*
X0088502Y0030898D01*
X0093402Y0031598D02*
X0102502Y0031598D01*
X0102908Y0031110D01*
X0108802Y0028098D02*
X0087802Y0028098D01*
X0082902Y0023198D01*
X0082341Y0022610D01*
X0089034Y0022610D02*
X0089202Y0022498D01*
X0092002Y0019698D01*
X0101102Y0019698D01*
X0103902Y0022498D01*
X0106002Y0022498D01*
X0106648Y0022843D01*
X0104602Y0025998D02*
X0101802Y0023198D01*
X0099702Y0023198D01*
X0099168Y0022843D01*
X0104602Y0025998D02*
X0113002Y0025998D01*
X0113702Y0025298D01*
X0136102Y0023898D02*
X0136102Y0044198D01*
X0131202Y0049098D01*
X0131202Y0056098D01*
X0130916Y0056697D01*
X0133302Y0061698D02*
X0138202Y0056798D01*
X0138790Y0056697D01*
X0138902Y0056798D01*
X0173202Y0056798D01*
X0173266Y0056870D01*
X0178102Y0052598D02*
X0184402Y0058898D01*
X0193502Y0058898D01*
X0194187Y0059106D01*
X0194202Y0059598D01*
X0197002Y0062398D01*
X0197002Y0063798D01*
X0193502Y0065898D02*
X0193502Y0072898D01*
X0193077Y0073004D01*
X0199770Y0073004D02*
X0199802Y0072898D01*
X0199802Y0060298D01*
X0200502Y0059598D01*
X0200880Y0059106D01*
X0201202Y0058898D01*
X0208902Y0051198D01*
X0209602Y0051198D01*
X0232002Y0028798D01*
X0250902Y0028798D01*
X0260002Y0037898D01*
X0261935Y0036201D01*
X0261402Y0036498D01*
X0260002Y0037898D01*
X0248802Y0049098D01*
X0251602Y0051898D01*
X0251602Y0063098D01*
X0257202Y0068698D01*
X0247402Y0078498D01*
X0218702Y0078498D01*
X0213802Y0073598D01*
X0211702Y0073598D01*
X0211077Y0073240D01*
X0205402Y0073598D02*
X0205402Y0057498D01*
X0215902Y0046998D01*
X0221502Y0046998D01*
X0221825Y0046862D01*
X0233402Y0053298D02*
X0237602Y0049098D01*
X0237602Y0044198D01*
X0238132Y0044106D01*
X0239702Y0038598D02*
X0244602Y0043498D01*
X0244825Y0044106D01*
X0248102Y0046998D02*
X0248102Y0039998D01*
X0241802Y0033698D01*
X0241400Y0033224D01*
X0261935Y0036201D02*
X0262102Y0035798D01*
X0276802Y0021098D01*
X0280302Y0021098D01*
X0280408Y0020453D01*
X0281002Y0020398D01*
X0284502Y0016898D01*
X0304102Y0016898D01*
X0307602Y0020398D01*
X0308266Y0020531D01*
X0308302Y0021098D01*
X0322302Y0021098D01*
X0322660Y0020453D01*
X0323002Y0020398D01*
X0326502Y0016898D01*
X0332102Y0016898D01*
X0336302Y0021098D01*
X0336302Y0039298D01*
X0334202Y0041398D01*
X0334202Y0050498D01*
X0333628Y0050768D01*
X0333502Y0050498D01*
X0323002Y0060998D01*
X0323002Y0065198D01*
X0321602Y0066598D01*
X0321602Y0077098D01*
X0321132Y0077185D01*
X0317392Y0077185D02*
X0316702Y0077098D01*
X0316702Y0069398D01*
X0321602Y0064498D01*
X0321602Y0060998D01*
X0318802Y0058198D01*
X0318802Y0035798D01*
X0329302Y0025298D01*
X0329302Y0021098D01*
X0329353Y0020453D01*
X0336302Y0015498D02*
X0340502Y0019698D01*
X0341105Y0020295D01*
X0341202Y0020398D01*
X0341202Y0026698D01*
X0344002Y0029498D01*
X0339102Y0034398D01*
X0339102Y0060998D01*
X0334202Y0065898D01*
X0334202Y0072198D01*
X0326502Y0079898D01*
X0315302Y0079898D01*
X0314602Y0079198D01*
X0314602Y0075698D01*
X0297802Y0058898D01*
X0281002Y0058898D01*
X0276802Y0054698D01*
X0276802Y0049098D01*
X0286602Y0039298D01*
X0286602Y0035798D01*
X0286668Y0035280D01*
X0283802Y0031598D02*
X0280302Y0035098D01*
X0279975Y0035280D01*
X0278902Y0030198D02*
X0273302Y0035798D01*
X0269102Y0035798D02*
X0268628Y0036201D01*
X0269102Y0035798D02*
X0278202Y0026698D01*
X0286602Y0025298D02*
X0286602Y0021098D01*
X0287101Y0020453D01*
X0295002Y0021098D02*
X0285902Y0030198D01*
X0278902Y0030198D01*
X0283802Y0031598D02*
X0318802Y0031598D01*
X0313202Y0039998D02*
X0309002Y0035798D01*
X0308424Y0036201D01*
X0308302Y0036498D01*
X0305502Y0039298D01*
X0289402Y0039298D01*
X0280302Y0048398D01*
X0280302Y0051386D01*
X0282402Y0056098D02*
X0286602Y0051898D01*
X0286994Y0051386D01*
X0286602Y0046298D02*
X0292202Y0040698D01*
X0309702Y0040698D01*
X0313202Y0039998D02*
X0313202Y0055398D01*
X0313341Y0055898D01*
X0315309Y0055898D02*
X0315302Y0055398D01*
X0315302Y0051898D01*
X0316002Y0051198D01*
X0310402Y0049798D02*
X0310402Y0054698D01*
X0311102Y0055398D01*
X0311372Y0055898D01*
X0311102Y0056098D01*
X0311102Y0057498D01*
X0309002Y0059598D01*
X0309002Y0065898D01*
X0313902Y0070798D01*
X0316702Y0069398D02*
X0311102Y0063798D01*
X0311102Y0061698D01*
X0311372Y0061298D01*
X0313202Y0061698D02*
X0313341Y0061298D01*
X0313202Y0061698D02*
X0313202Y0063798D01*
X0313902Y0064498D01*
X0316702Y0064498D01*
X0318802Y0062398D01*
X0325102Y0063098D02*
X0325802Y0062398D01*
X0325102Y0063098D02*
X0325102Y0077098D01*
X0324872Y0077185D01*
X0325102Y0083398D02*
X0335602Y0072898D01*
X0335602Y0070098D01*
X0346102Y0059598D01*
X0346102Y0037898D01*
X0346223Y0037618D01*
X0348202Y0037198D02*
X0348782Y0037618D01*
X0348902Y0037898D01*
X0351002Y0037898D01*
X0358702Y0045598D01*
X0358884Y0045685D01*
X0352402Y0046298D02*
X0352191Y0045685D01*
X0352402Y0046298D02*
X0348902Y0049798D01*
X0341902Y0046998D02*
X0341202Y0046298D01*
X0341202Y0037898D01*
X0341105Y0037618D01*
X0341202Y0037198D01*
X0341202Y0035098D01*
X0341902Y0034398D01*
X0347502Y0034398D01*
X0348202Y0035098D01*
X0348202Y0037198D01*
X0333502Y0037898D02*
X0329302Y0037898D01*
X0328998Y0038240D01*
X0323002Y0038598D02*
X0322306Y0038240D01*
X0323002Y0038598D02*
X0323002Y0045598D01*
X0301731Y0036201D02*
X0301302Y0036498D01*
X0297102Y0036498D01*
X0267702Y0020398D02*
X0262102Y0025998D01*
X0232702Y0025998D01*
X0218002Y0040698D01*
X0188602Y0040698D01*
X0183702Y0045598D01*
X0173902Y0045598D01*
X0173266Y0045846D01*
X0167602Y0042098D02*
X0161302Y0035798D01*
X0167602Y0042098D02*
X0170402Y0039298D01*
X0200502Y0039298D01*
X0213102Y0026698D01*
X0225002Y0026698D01*
X0227102Y0024598D01*
X0248102Y0024598D01*
X0252302Y0020398D01*
X0260702Y0020398D01*
X0261132Y0020177D01*
X0267702Y0020398D02*
X0267825Y0020177D01*
X0268402Y0019698D01*
X0275402Y0019698D01*
X0279602Y0015498D01*
X0336302Y0015498D01*
X0343664Y0020295D02*
X0344002Y0020398D01*
X0344002Y0022498D01*
X0345402Y0023898D01*
X0344002Y0025298D01*
X0345402Y0023898D02*
X0351002Y0029498D01*
X0362202Y0029498D01*
X0365002Y0032298D01*
X0365002Y0053298D01*
X0350302Y0067998D01*
X0350054Y0068209D01*
X0349602Y0068698D01*
X0344002Y0074298D01*
X0344002Y0082698D01*
X0343487Y0083169D01*
X0350180Y0083169D02*
X0350302Y0082698D01*
X0350302Y0075698D01*
X0366402Y0059598D01*
X0366402Y0056098D01*
X0366402Y0031598D01*
X0362202Y0027398D01*
X0365002Y0024598D01*
X0369202Y0024598D02*
X0369202Y0042098D01*
X0362202Y0042798D02*
X0362202Y0049798D01*
X0344002Y0067998D01*
X0343361Y0068209D01*
X0302702Y0065898D02*
X0297102Y0060298D01*
X0277502Y0060298D01*
X0276102Y0058898D01*
X0271202Y0058898D01*
X0269802Y0060298D01*
X0270494Y0062578D01*
X0269802Y0062398D01*
X0269802Y0060298D01*
X0262102Y0052598D01*
X0262102Y0050498D01*
X0261837Y0050220D01*
X0261402Y0049798D01*
X0253702Y0049798D01*
X0248802Y0049098D02*
X0245302Y0049098D01*
X0241802Y0052598D01*
X0241802Y0053998D01*
X0241746Y0054019D01*
X0238302Y0053998D02*
X0238006Y0054019D01*
X0238302Y0054698D01*
X0238302Y0058898D01*
X0243202Y0063798D01*
X0243202Y0071498D01*
X0243640Y0071882D01*
X0240402Y0075698D02*
X0247402Y0075698D01*
X0248102Y0074998D01*
X0248102Y0066598D01*
X0246002Y0064498D01*
X0245487Y0064256D01*
X0245302Y0063798D01*
X0248802Y0060298D01*
X0245302Y0056098D02*
X0242502Y0058898D01*
X0245302Y0056098D02*
X0245302Y0054698D01*
X0245487Y0054019D01*
X0242502Y0047698D02*
X0238302Y0051898D01*
X0238302Y0053998D01*
X0233402Y0053298D02*
X0233402Y0059598D01*
X0237602Y0063798D01*
X0238006Y0064256D01*
X0238302Y0064498D01*
X0238302Y0069398D01*
X0232702Y0067998D02*
X0240402Y0075698D01*
X0252302Y0079898D02*
X0243902Y0088298D01*
X0243640Y0088811D01*
X0243202Y0088298D01*
X0235502Y0080598D01*
X0209602Y0080598D01*
X0206802Y0077798D01*
X0206802Y0068698D01*
X0207502Y0067998D01*
X0214502Y0067998D01*
X0219402Y0072898D01*
X0221502Y0072898D01*
X0222101Y0073240D01*
X0205402Y0073598D02*
X0198402Y0080598D01*
X0174602Y0080598D01*
X0174369Y0081232D01*
X0167676Y0081232D02*
X0167602Y0080598D01*
X0159902Y0080598D01*
X0156402Y0077098D01*
X0155880Y0076783D01*
X0139739Y0076783D02*
X0139602Y0076398D01*
X0139602Y0074998D01*
X0136102Y0071498D01*
X0121402Y0074998D02*
X0121402Y0079898D01*
X0122802Y0081298D01*
X0131902Y0081298D01*
X0133302Y0079898D01*
X0133302Y0061698D01*
X0138790Y0056697D02*
X0138202Y0056098D01*
X0138202Y0023898D01*
X0132602Y0018298D01*
X0069602Y0018298D01*
X0068202Y0019698D01*
X0068202Y0025298D01*
X0067502Y0025998D01*
X0066802Y0025998D01*
X0057353Y0022500D02*
X0057002Y0023198D01*
X0057002Y0031598D01*
X0040202Y0048398D01*
X0040202Y0053298D01*
X0040061Y0053307D01*
X0039502Y0053998D01*
X0038802Y0054698D01*
X0038802Y0058198D01*
X0038102Y0061698D02*
X0033902Y0057498D01*
X0033902Y0053998D01*
X0033369Y0053307D01*
X0033902Y0053298D01*
X0033902Y0047698D01*
X0041602Y0039998D01*
X0041628Y0039878D01*
X0041602Y0039298D01*
X0041602Y0023198D01*
X0041475Y0022524D01*
X0041602Y0022498D01*
X0049302Y0022498D01*
X0049479Y0022500D01*
X0050002Y0022498D01*
X0038102Y0019698D02*
X0038102Y0035098D01*
X0033902Y0039298D01*
X0033754Y0039878D01*
X0019202Y0039998D02*
X0019202Y0024598D01*
X0018920Y0024185D01*
X0019202Y0023898D01*
X0024102Y0018998D01*
X0037402Y0018998D01*
X0038102Y0019698D01*
X0034782Y0022524D02*
X0034602Y0023198D01*
X0030402Y0023198D01*
X0030402Y0050498D01*
X0029702Y0051198D01*
X0029702Y0055398D01*
X0043702Y0069398D01*
X0067502Y0069398D01*
X0066802Y0070098D01*
X0066802Y0076398D01*
X0066223Y0076421D01*
X0072916Y0076421D02*
X0073102Y0076398D01*
X0073102Y0065898D01*
X0082849Y0066567D02*
X0082902Y0065898D01*
X0082902Y0061698D01*
X0082849Y0061567D01*
X0075902Y0060998D02*
X0075902Y0058898D01*
X0078002Y0056798D01*
X0082202Y0056798D01*
X0082849Y0056567D01*
X0075902Y0060998D02*
X0067502Y0069398D01*
X0064002Y0079898D02*
X0056302Y0072198D01*
X0049302Y0072198D01*
X0056302Y0076398D02*
X0068902Y0088998D01*
X0099002Y0088998D02*
X0103202Y0088998D01*
X0114402Y0077798D01*
X0114739Y0077177D01*
X0108102Y0076398D02*
X0080102Y0076398D01*
X0076602Y0079898D01*
X0064002Y0079898D01*
X0082902Y0066598D02*
X0087802Y0071498D01*
X0108102Y0071498D01*
X0103902Y0066598D02*
X0103321Y0066567D01*
X0103902Y0066598D02*
X0113002Y0066598D01*
X0121402Y0074998D01*
X0127002Y0077098D02*
X0127337Y0077177D01*
X0127002Y0077098D02*
X0114402Y0064498D01*
X0122802Y0056098D01*
X0122802Y0055398D01*
X0131202Y0046998D01*
X0131202Y0044898D01*
X0149313Y0045161D02*
X0149402Y0045598D01*
X0157802Y0053998D01*
X0163402Y0052598D02*
X0156402Y0045598D01*
X0156006Y0045161D01*
X0156402Y0044898D01*
X0156402Y0028098D01*
X0167602Y0016898D01*
X0226402Y0016898D01*
X0227802Y0018298D01*
X0241102Y0018298D01*
X0241400Y0018657D01*
X0213770Y0032075D02*
X0213102Y0032298D01*
X0213102Y0037898D01*
X0201902Y0032298D02*
X0201202Y0032998D01*
X0177402Y0032998D01*
X0175302Y0030898D01*
X0175030Y0030768D01*
X0156402Y0028098D02*
X0151502Y0023198D01*
X0151388Y0022702D01*
X0201534Y0032075D02*
X0201902Y0032298D01*
X0167602Y0042098D02*
X0167602Y0049798D01*
X0169002Y0051198D01*
X0192802Y0051198D01*
X0200502Y0058898D01*
X0200880Y0059106D01*
X0209928Y0058980D02*
X0210302Y0059598D01*
X0218702Y0067998D01*
X0232702Y0067998D01*
X0257202Y0068698D02*
X0270502Y0081998D01*
X0270502Y0084098D01*
X0270557Y0084185D01*
X0271202Y0084798D01*
X0277502Y0084798D01*
X0277534Y0084264D01*
X0279602Y0079898D02*
X0283802Y0084098D01*
X0284227Y0084264D01*
X0292258Y0084421D02*
X0292902Y0084098D01*
X0292902Y0073598D01*
X0295702Y0070798D01*
X0295702Y0065898D01*
X0294302Y0064498D01*
X0289402Y0064498D01*
X0289402Y0063098D01*
X0289402Y0064498D02*
X0282402Y0064498D01*
X0274702Y0072198D01*
X0274235Y0072815D01*
X0271902Y0076398D02*
X0269802Y0074298D01*
X0269802Y0067298D01*
X0267002Y0064498D01*
X0267002Y0063098D01*
X0266754Y0062578D01*
X0274235Y0062578D02*
X0274702Y0063098D01*
X0278202Y0063098D01*
X0266302Y0067998D02*
X0266302Y0072198D01*
X0266754Y0072815D01*
X0271902Y0076398D02*
X0276102Y0076398D01*
X0283802Y0068698D01*
X0292202Y0068698D01*
X0292349Y0068378D01*
X0298502Y0068698D02*
X0299042Y0068378D01*
X0298502Y0068698D02*
X0298502Y0072198D01*
X0297802Y0072898D01*
X0299202Y0075698D02*
X0302702Y0072198D01*
X0302702Y0065898D01*
X0299202Y0075698D02*
X0299202Y0084098D01*
X0298951Y0084421D01*
X0299202Y0084798D01*
X0307602Y0084798D01*
X0309002Y0087598D02*
X0313202Y0083398D01*
X0325102Y0083398D01*
X0328602Y0084098D02*
X0328602Y0087598D01*
X0326502Y0089698D01*
X0319502Y0089698D01*
X0318802Y0088998D01*
X0318802Y0088298D01*
X0317402Y0086898D01*
X0317392Y0086634D01*
X0321132Y0086634D02*
X0321602Y0086898D01*
X0324402Y0086898D01*
X0324872Y0086634D01*
X0309002Y0087598D02*
X0267002Y0087598D01*
X0264202Y0084798D01*
X0263865Y0084185D01*
X0233402Y0059598D02*
X0217302Y0059598D01*
X0216620Y0058980D01*
X0178102Y0052598D02*
X0163402Y0052598D01*
X0114402Y0064498D02*
X0111602Y0061698D01*
X0103902Y0061698D01*
X0103321Y0061567D01*
X0082902Y0066598D02*
X0082849Y0066567D01*
X0062109Y0061878D02*
X0061902Y0061698D01*
X0038102Y0061698D01*
X0030402Y0023198D02*
X0027602Y0023198D01*
X0026902Y0023898D01*
X0026400Y0024185D01*
X0242502Y0047698D02*
X0247402Y0047698D01*
X0248102Y0046998D01*
X0268402Y0050498D02*
X0268530Y0050220D01*
X0268402Y0050498D02*
X0268402Y0054698D01*
X0344002Y0029498D02*
X0347502Y0032998D01*
X0352402Y0032998D01*
X0362202Y0042798D01*
X0362202Y0027398D02*
X0355202Y0020398D01*
X0348902Y0020398D01*
X0348782Y0020295D01*
X0362902Y0018298D02*
X0369202Y0024598D01*
X0301573Y0020531D02*
X0301302Y0021098D01*
X0295002Y0021098D01*
D39*
X0286602Y0025298D03*
X0278202Y0026698D03*
X0273302Y0035798D03*
X0297102Y0036498D03*
X0309702Y0040698D03*
X0323002Y0045598D03*
X0310402Y0049798D03*
X0316002Y0051198D03*
X0341902Y0046998D03*
X0348902Y0049798D03*
X0366402Y0056098D03*
X0325802Y0062398D03*
X0318802Y0062398D03*
X0289402Y0063098D03*
X0278202Y0063098D03*
X0266302Y0067998D03*
X0248802Y0060298D03*
X0242502Y0058898D03*
X0268402Y0054698D03*
X0282402Y0056098D03*
X0253702Y0049798D03*
X0286602Y0046298D03*
X0239702Y0038598D03*
X0213102Y0037898D03*
X0161302Y0035798D03*
X0131202Y0044898D03*
X0103202Y0045598D03*
X0097602Y0046298D03*
X0076602Y0041398D03*
X0064702Y0032998D03*
X0088502Y0030898D03*
X0093402Y0031598D03*
X0113702Y0025298D03*
X0019202Y0039998D03*
X0038802Y0058198D03*
X0089902Y0056098D03*
X0096202Y0056798D03*
X0108102Y0071498D03*
X0108102Y0076398D03*
X0136102Y0071498D03*
X0193502Y0065898D03*
X0197002Y0063798D03*
X0157802Y0053998D03*
X0238302Y0069398D03*
X0252302Y0079898D03*
X0279602Y0079898D03*
X0297802Y0072898D03*
X0313902Y0070798D03*
X0328602Y0084098D03*
X0307602Y0084798D03*
X0369202Y0042098D03*
X0333502Y0037898D03*
X0318802Y0031598D03*
X0344002Y0025298D03*
X0365002Y0024598D03*
X0362902Y0018298D03*
X0099002Y0088998D03*
X0068902Y0088998D03*
X0056302Y0076398D03*
X0049302Y0072198D03*
M02*
