G75*
%MOIN*%
%OFA0B0*%
%FSLAX25Y25*%
%IPPOS*%
%LPD*%
%AMOC8*
5,1,8,0,0,1.08239X$1,22.5*
%
%ADD10R,0.04331X0.05512*%
%ADD11R,0.03150X0.03543*%
%ADD12R,0.03937X0.04331*%
%ADD13R,0.05787X0.05000*%
%ADD14R,0.03937X0.05512*%
%ADD15R,0.08661X0.06299*%
%ADD16R,0.01575X0.03937*%
%ADD17R,0.03075X0.05709*%
%ADD18R,0.03000X0.05709*%
%ADD19R,0.07087X0.05906*%
%ADD20R,0.05906X0.02756*%
%ADD21R,0.02165X0.04724*%
%ADD22R,0.16535X0.05512*%
%ADD23R,0.04331X0.03937*%
%ADD24R,0.06299X0.07087*%
%ADD25R,0.02717X0.04724*%
%ADD26R,0.02165X0.03150*%
%ADD27R,0.08661X0.05512*%
%ADD28R,0.10236X0.05512*%
%ADD29R,0.08661X0.02362*%
D10*
X0049479Y0022500D03*
X0057353Y0022500D03*
X0041628Y0039878D03*
X0033754Y0039878D03*
X0130916Y0056697D03*
X0138790Y0056697D03*
D11*
X0102908Y0031110D03*
X0106648Y0022843D03*
X0099168Y0022843D03*
D12*
X0034782Y0022524D03*
X0041475Y0022524D03*
X0065089Y0022472D03*
X0071782Y0022472D03*
X0082341Y0022610D03*
X0089034Y0022610D03*
X0088920Y0037280D03*
X0082227Y0037280D03*
X0068160Y0037413D03*
X0061467Y0037413D03*
X0061703Y0049461D03*
X0068396Y0049461D03*
X0040061Y0053307D03*
X0033369Y0053307D03*
X0062109Y0061878D03*
X0068802Y0061878D03*
X0066223Y0076421D03*
X0072916Y0076421D03*
X0167676Y0081232D03*
X0174369Y0081232D03*
X0193077Y0073004D03*
X0199770Y0073004D03*
X0209928Y0058980D03*
X0216620Y0058980D03*
X0261837Y0050220D03*
X0268530Y0050220D03*
X0280302Y0051386D03*
X0286994Y0051386D03*
X0268628Y0036201D03*
X0261935Y0036201D03*
X0280408Y0020453D03*
X0287101Y0020453D03*
X0322660Y0020453D03*
X0329353Y0020453D03*
X0352191Y0045685D03*
X0358884Y0045685D03*
X0350054Y0068209D03*
X0343361Y0068209D03*
X0299042Y0068378D03*
X0292349Y0068378D03*
X0343487Y0083169D03*
X0350180Y0083169D03*
X0156006Y0045161D03*
X0149313Y0045161D03*
D13*
X0243640Y0071882D03*
X0243640Y0088811D03*
D14*
X0022660Y0032846D03*
X0026400Y0024185D03*
X0018920Y0024185D03*
D15*
X0173266Y0045846D03*
X0173266Y0056870D03*
D16*
X0341105Y0037618D03*
X0343664Y0037618D03*
X0346223Y0037618D03*
X0348782Y0037618D03*
X0348782Y0020295D03*
X0346223Y0020295D03*
X0343664Y0020295D03*
X0341105Y0020295D03*
D17*
X0201534Y0032075D03*
D18*
X0213770Y0032075D03*
D19*
X0222156Y0021346D03*
X0193148Y0021346D03*
D20*
X0207652Y0021346D03*
D21*
X0238006Y0054019D03*
X0241746Y0054019D03*
X0245487Y0054019D03*
X0245487Y0064256D03*
X0238006Y0064256D03*
D22*
X0241400Y0033224D03*
X0241400Y0018657D03*
D23*
X0261132Y0020177D03*
X0267825Y0020177D03*
X0301573Y0020531D03*
X0308266Y0020531D03*
X0286668Y0035280D03*
X0279975Y0035280D03*
X0301731Y0036201D03*
X0308424Y0036201D03*
X0322306Y0038240D03*
X0328998Y0038240D03*
X0244825Y0044106D03*
X0238132Y0044106D03*
X0200880Y0059106D03*
X0194187Y0059106D03*
X0263865Y0084185D03*
X0270557Y0084185D03*
X0277534Y0084264D03*
X0284227Y0084264D03*
X0292258Y0084421D03*
X0298951Y0084421D03*
D24*
X0222101Y0073240D03*
X0211077Y0073240D03*
D25*
X0266754Y0072815D03*
X0274235Y0072815D03*
X0274235Y0062578D03*
X0270494Y0062578D03*
X0266754Y0062578D03*
D26*
X0317392Y0077185D03*
X0321132Y0077185D03*
X0324872Y0077185D03*
X0324872Y0086634D03*
X0321132Y0086634D03*
X0317392Y0086634D03*
D27*
X0127337Y0077177D03*
X0114739Y0077177D03*
D28*
X0139739Y0076783D03*
X0155880Y0076783D03*
D29*
X0103321Y0066567D03*
X0103321Y0061567D03*
X0103321Y0056567D03*
X0103321Y0051567D03*
X0082849Y0051567D03*
X0082849Y0056567D03*
X0082849Y0061567D03*
X0082849Y0066567D03*
M02*
