G75*
%MOIN*%
%OFA0B0*%
%FSLAX25Y25*%
%IPPOS*%
%LPD*%
%AMOC8*
5,1,8,0,0,1.08239X$1,22.5*
%
%ADD10C,0.00500*%
%ADD11C,0.00400*%
%ADD12C,0.00800*%
%ADD13C,0.02559*%
%ADD14C,0.01200*%
%ADD15C,0.00787*%
%ADD16C,0.00600*%
D10*
X0018073Y0026291D02*
X0018073Y0028839D01*
X0018073Y0026291D02*
X0027916Y0026291D01*
X0027916Y0028339D01*
X0018073Y0034453D02*
X0018073Y0048917D01*
X0027916Y0044791D02*
X0027916Y0058579D01*
X0018073Y0054453D02*
X0018073Y0068917D01*
X0027916Y0064531D02*
X0027916Y0077079D01*
X0018073Y0077079D01*
X0018073Y0075031D01*
X0144271Y0074774D02*
X0144271Y0072872D01*
X0144271Y0073506D02*
X0145222Y0073506D01*
X0145539Y0073823D01*
X0145539Y0074457D01*
X0145222Y0074774D01*
X0144271Y0074774D01*
X0146481Y0073823D02*
X0146481Y0073189D01*
X0146798Y0072872D01*
X0147431Y0072872D01*
X0147748Y0073189D01*
X0147748Y0073823D01*
X0147431Y0074140D01*
X0146798Y0074140D01*
X0146481Y0073823D01*
X0148691Y0074140D02*
X0148691Y0073189D01*
X0149007Y0072872D01*
X0149324Y0073189D01*
X0149641Y0072872D01*
X0149958Y0073189D01*
X0149958Y0074140D01*
X0150900Y0073823D02*
X0151217Y0074140D01*
X0151851Y0074140D01*
X0152168Y0073823D01*
X0152168Y0073506D01*
X0150900Y0073506D01*
X0150900Y0073189D02*
X0150900Y0073823D01*
X0150900Y0073189D02*
X0151217Y0072872D01*
X0151851Y0072872D01*
X0153110Y0072872D02*
X0153110Y0074140D01*
X0153110Y0073506D02*
X0153744Y0074140D01*
X0154061Y0074140D01*
X0157162Y0074140D02*
X0157479Y0073823D01*
X0158113Y0073823D01*
X0158430Y0073506D01*
X0158430Y0073189D01*
X0158113Y0072872D01*
X0157479Y0072872D01*
X0157162Y0073189D01*
X0157162Y0074140D02*
X0157162Y0074457D01*
X0157479Y0074774D01*
X0158113Y0074774D01*
X0158430Y0074457D01*
X0159372Y0073823D02*
X0159689Y0074140D01*
X0160322Y0074140D01*
X0160639Y0073823D01*
X0160639Y0073189D01*
X0160322Y0072872D01*
X0159689Y0072872D01*
X0159372Y0073189D01*
X0159372Y0073823D01*
X0161582Y0074140D02*
X0161582Y0073189D01*
X0161898Y0072872D01*
X0162849Y0072872D01*
X0162849Y0074140D01*
X0163791Y0074140D02*
X0163791Y0072872D01*
X0163791Y0073506D02*
X0164425Y0074140D01*
X0164742Y0074140D01*
X0165633Y0073823D02*
X0165950Y0074140D01*
X0166901Y0074140D01*
X0167843Y0073823D02*
X0168160Y0074140D01*
X0168794Y0074140D01*
X0169111Y0073823D01*
X0169111Y0073506D01*
X0167843Y0073506D01*
X0167843Y0073189D02*
X0167843Y0073823D01*
X0167843Y0073189D02*
X0168160Y0072872D01*
X0168794Y0072872D01*
X0166901Y0072872D02*
X0165950Y0072872D01*
X0165633Y0073189D01*
X0165633Y0073823D01*
X0159534Y0086275D02*
X0158267Y0086275D01*
X0159534Y0087543D01*
X0159534Y0087860D01*
X0159218Y0088177D01*
X0158584Y0088177D01*
X0158267Y0087860D01*
X0157325Y0087860D02*
X0157325Y0087226D01*
X0157008Y0086909D01*
X0156057Y0086909D01*
X0156057Y0086275D02*
X0156057Y0088177D01*
X0157008Y0088177D01*
X0157325Y0087860D01*
X0155115Y0088177D02*
X0154481Y0088177D01*
X0154798Y0088177D02*
X0154798Y0086592D01*
X0154481Y0086275D01*
X0154164Y0086275D01*
X0153847Y0086592D01*
D11*
X0066183Y0021469D02*
X0066183Y0016547D01*
X0078388Y0016547D01*
X0082719Y0020878D01*
X0082719Y0028752D01*
X0078388Y0033083D01*
X0066183Y0033083D01*
X0066183Y0028161D01*
X0069727Y0030720D02*
X0069727Y0018909D01*
X0066183Y0016547D02*
X0066183Y0033083D01*
X0066833Y0034196D02*
X0067567Y0034196D01*
X0067934Y0034563D01*
X0068860Y0034196D02*
X0070328Y0034196D01*
X0069594Y0034196D02*
X0069594Y0036398D01*
X0068860Y0035664D01*
X0067934Y0036031D02*
X0067567Y0036398D01*
X0066833Y0036398D01*
X0066466Y0036031D01*
X0066466Y0034563D01*
X0066833Y0034196D01*
X0071254Y0034563D02*
X0071254Y0035297D01*
X0072355Y0035297D01*
X0072722Y0034930D01*
X0072722Y0034563D01*
X0072355Y0034196D01*
X0071621Y0034196D01*
X0071254Y0034563D01*
X0071254Y0035297D02*
X0071988Y0036031D01*
X0072722Y0036398D01*
X0072477Y0038183D02*
X0073944Y0038183D01*
X0073211Y0038183D02*
X0073211Y0040385D01*
X0072477Y0039651D01*
X0074871Y0040018D02*
X0074871Y0038550D01*
X0076339Y0040018D01*
X0076339Y0038550D01*
X0075972Y0038183D01*
X0075238Y0038183D01*
X0074871Y0038550D01*
X0074871Y0040018D02*
X0075238Y0040385D01*
X0075972Y0040385D01*
X0076339Y0040018D01*
X0077265Y0039651D02*
X0077265Y0038550D01*
X0077632Y0038183D01*
X0078733Y0038183D01*
X0078733Y0039651D01*
X0079659Y0039284D02*
X0080393Y0039284D01*
X0079659Y0038183D02*
X0079659Y0040385D01*
X0081127Y0040385D01*
X0081321Y0042138D02*
X0069117Y0042138D01*
X0064786Y0046469D01*
X0064786Y0054343D01*
X0069117Y0058673D01*
X0081321Y0058673D01*
X0081321Y0053752D01*
X0077778Y0056311D02*
X0077778Y0044500D01*
X0081321Y0042138D02*
X0081321Y0047059D01*
X0065377Y0050406D02*
X0065379Y0050594D01*
X0065386Y0050783D01*
X0065398Y0050971D01*
X0065414Y0051158D01*
X0065435Y0051346D01*
X0065460Y0051532D01*
X0065490Y0051718D01*
X0065525Y0051904D01*
X0065564Y0052088D01*
X0065607Y0052271D01*
X0065655Y0052454D01*
X0065708Y0052635D01*
X0065764Y0052814D01*
X0065826Y0052992D01*
X0065891Y0053169D01*
X0065961Y0053344D01*
X0066036Y0053517D01*
X0066114Y0053688D01*
X0066197Y0053858D01*
X0066283Y0054025D01*
X0066374Y0054190D01*
X0066469Y0054353D01*
X0066568Y0054513D01*
X0066671Y0054671D01*
X0066777Y0054826D01*
X0066888Y0054979D01*
X0067002Y0055129D01*
X0067120Y0055276D01*
X0067241Y0055420D01*
X0067366Y0055562D01*
X0067494Y0055700D01*
X0067626Y0055834D01*
X0067760Y0055966D01*
X0067898Y0056094D01*
X0068040Y0056219D01*
X0068184Y0056340D01*
X0068331Y0056458D01*
X0068481Y0056572D01*
X0068634Y0056683D01*
X0068789Y0056789D01*
X0068947Y0056892D01*
X0069107Y0056991D01*
X0069270Y0057086D01*
X0069435Y0057177D01*
X0069602Y0057263D01*
X0069772Y0057346D01*
X0069943Y0057424D01*
X0070116Y0057499D01*
X0070291Y0057569D01*
X0070468Y0057634D01*
X0070646Y0057696D01*
X0070825Y0057752D01*
X0071006Y0057805D01*
X0071189Y0057853D01*
X0071372Y0057896D01*
X0071556Y0057935D01*
X0071742Y0057970D01*
X0071928Y0058000D01*
X0072114Y0058025D01*
X0072302Y0058046D01*
X0072489Y0058062D01*
X0072677Y0058074D01*
X0072866Y0058081D01*
X0073054Y0058083D01*
X0073242Y0058081D01*
X0073431Y0058074D01*
X0073619Y0058062D01*
X0073806Y0058046D01*
X0073994Y0058025D01*
X0074180Y0058000D01*
X0074366Y0057970D01*
X0074552Y0057935D01*
X0074736Y0057896D01*
X0074919Y0057853D01*
X0075102Y0057805D01*
X0075283Y0057752D01*
X0075462Y0057696D01*
X0075640Y0057634D01*
X0075817Y0057569D01*
X0075992Y0057499D01*
X0076165Y0057424D01*
X0076336Y0057346D01*
X0076506Y0057263D01*
X0076673Y0057177D01*
X0076838Y0057086D01*
X0077001Y0056991D01*
X0077161Y0056892D01*
X0077319Y0056789D01*
X0077474Y0056683D01*
X0077627Y0056572D01*
X0077777Y0056458D01*
X0077924Y0056340D01*
X0078068Y0056219D01*
X0078210Y0056094D01*
X0078348Y0055966D01*
X0078482Y0055834D01*
X0078614Y0055700D01*
X0078742Y0055562D01*
X0078867Y0055420D01*
X0078988Y0055276D01*
X0079106Y0055129D01*
X0079220Y0054979D01*
X0079331Y0054826D01*
X0079437Y0054671D01*
X0079540Y0054513D01*
X0079639Y0054353D01*
X0079734Y0054190D01*
X0079825Y0054025D01*
X0079911Y0053858D01*
X0079994Y0053688D01*
X0080072Y0053517D01*
X0080147Y0053344D01*
X0080217Y0053169D01*
X0080282Y0052992D01*
X0080344Y0052814D01*
X0080400Y0052635D01*
X0080453Y0052454D01*
X0080501Y0052271D01*
X0080544Y0052088D01*
X0080583Y0051904D01*
X0080618Y0051718D01*
X0080648Y0051532D01*
X0080673Y0051346D01*
X0080694Y0051158D01*
X0080710Y0050971D01*
X0080722Y0050783D01*
X0080729Y0050594D01*
X0080731Y0050406D01*
X0080729Y0050218D01*
X0080722Y0050029D01*
X0080710Y0049841D01*
X0080694Y0049654D01*
X0080673Y0049466D01*
X0080648Y0049280D01*
X0080618Y0049094D01*
X0080583Y0048908D01*
X0080544Y0048724D01*
X0080501Y0048541D01*
X0080453Y0048358D01*
X0080400Y0048177D01*
X0080344Y0047998D01*
X0080282Y0047820D01*
X0080217Y0047643D01*
X0080147Y0047468D01*
X0080072Y0047295D01*
X0079994Y0047124D01*
X0079911Y0046954D01*
X0079825Y0046787D01*
X0079734Y0046622D01*
X0079639Y0046459D01*
X0079540Y0046299D01*
X0079437Y0046141D01*
X0079331Y0045986D01*
X0079220Y0045833D01*
X0079106Y0045683D01*
X0078988Y0045536D01*
X0078867Y0045392D01*
X0078742Y0045250D01*
X0078614Y0045112D01*
X0078482Y0044978D01*
X0078348Y0044846D01*
X0078210Y0044718D01*
X0078068Y0044593D01*
X0077924Y0044472D01*
X0077777Y0044354D01*
X0077627Y0044240D01*
X0077474Y0044129D01*
X0077319Y0044023D01*
X0077161Y0043920D01*
X0077001Y0043821D01*
X0076838Y0043726D01*
X0076673Y0043635D01*
X0076506Y0043549D01*
X0076336Y0043466D01*
X0076165Y0043388D01*
X0075992Y0043313D01*
X0075817Y0043243D01*
X0075640Y0043178D01*
X0075462Y0043116D01*
X0075283Y0043060D01*
X0075102Y0043007D01*
X0074919Y0042959D01*
X0074736Y0042916D01*
X0074552Y0042877D01*
X0074366Y0042842D01*
X0074180Y0042812D01*
X0073994Y0042787D01*
X0073806Y0042766D01*
X0073619Y0042750D01*
X0073431Y0042738D01*
X0073242Y0042731D01*
X0073054Y0042729D01*
X0072866Y0042731D01*
X0072677Y0042738D01*
X0072489Y0042750D01*
X0072302Y0042766D01*
X0072114Y0042787D01*
X0071928Y0042812D01*
X0071742Y0042842D01*
X0071556Y0042877D01*
X0071372Y0042916D01*
X0071189Y0042959D01*
X0071006Y0043007D01*
X0070825Y0043060D01*
X0070646Y0043116D01*
X0070468Y0043178D01*
X0070291Y0043243D01*
X0070116Y0043313D01*
X0069943Y0043388D01*
X0069772Y0043466D01*
X0069602Y0043549D01*
X0069435Y0043635D01*
X0069270Y0043726D01*
X0069107Y0043821D01*
X0068947Y0043920D01*
X0068789Y0044023D01*
X0068634Y0044129D01*
X0068481Y0044240D01*
X0068331Y0044354D01*
X0068184Y0044472D01*
X0068040Y0044593D01*
X0067898Y0044718D01*
X0067760Y0044846D01*
X0067626Y0044978D01*
X0067494Y0045112D01*
X0067366Y0045250D01*
X0067241Y0045392D01*
X0067120Y0045536D01*
X0067002Y0045683D01*
X0066888Y0045833D01*
X0066777Y0045986D01*
X0066671Y0046141D01*
X0066568Y0046299D01*
X0066469Y0046459D01*
X0066374Y0046622D01*
X0066283Y0046787D01*
X0066197Y0046954D01*
X0066114Y0047124D01*
X0066036Y0047295D01*
X0065961Y0047468D01*
X0065891Y0047643D01*
X0065826Y0047820D01*
X0065764Y0047998D01*
X0065708Y0048177D01*
X0065655Y0048358D01*
X0065607Y0048541D01*
X0065564Y0048724D01*
X0065525Y0048908D01*
X0065490Y0049094D01*
X0065460Y0049280D01*
X0065435Y0049466D01*
X0065414Y0049654D01*
X0065398Y0049841D01*
X0065386Y0050029D01*
X0065379Y0050218D01*
X0065377Y0050406D01*
X0066165Y0053751D02*
X0066248Y0053918D01*
X0066335Y0054082D01*
X0066427Y0054245D01*
X0066522Y0054405D01*
X0066621Y0054562D01*
X0066724Y0054717D01*
X0066831Y0054870D01*
X0066942Y0055020D01*
X0067056Y0055167D01*
X0067173Y0055312D01*
X0067294Y0055453D01*
X0067419Y0055592D01*
X0067546Y0055727D01*
X0067677Y0055860D01*
X0067812Y0055989D01*
X0067949Y0056115D01*
X0068089Y0056237D01*
X0068233Y0056356D01*
X0068379Y0056472D01*
X0068528Y0056583D01*
X0068679Y0056692D01*
X0068833Y0056796D01*
X0068990Y0056897D01*
X0069149Y0056994D01*
X0069310Y0057087D01*
X0069474Y0057176D01*
X0069640Y0057261D01*
X0069807Y0057342D01*
X0069977Y0057419D01*
X0070149Y0057492D01*
X0070322Y0057560D01*
X0070497Y0057624D01*
X0070673Y0057684D01*
X0070851Y0057740D01*
X0071030Y0057792D01*
X0071210Y0057839D01*
X0071391Y0057881D01*
X0071573Y0057920D01*
X0071757Y0057953D01*
X0071940Y0057983D01*
X0072125Y0058007D01*
X0072310Y0058028D01*
X0072496Y0058044D01*
X0072682Y0058055D01*
X0072868Y0058062D01*
X0073054Y0058064D01*
X0073240Y0058062D01*
X0073426Y0058055D01*
X0073612Y0058044D01*
X0073798Y0058028D01*
X0073983Y0058007D01*
X0074168Y0057983D01*
X0074351Y0057953D01*
X0074535Y0057920D01*
X0074717Y0057881D01*
X0074898Y0057839D01*
X0075078Y0057792D01*
X0075257Y0057740D01*
X0075435Y0057684D01*
X0075611Y0057624D01*
X0075786Y0057560D01*
X0075959Y0057492D01*
X0076131Y0057419D01*
X0076301Y0057342D01*
X0076468Y0057261D01*
X0076634Y0057176D01*
X0076798Y0057087D01*
X0076959Y0056994D01*
X0077118Y0056897D01*
X0077275Y0056796D01*
X0077429Y0056692D01*
X0077580Y0056583D01*
X0077729Y0056472D01*
X0077875Y0056356D01*
X0078019Y0056237D01*
X0078159Y0056115D01*
X0078296Y0055989D01*
X0078431Y0055860D01*
X0078562Y0055727D01*
X0078689Y0055592D01*
X0078814Y0055453D01*
X0078935Y0055312D01*
X0079052Y0055167D01*
X0079166Y0055020D01*
X0079277Y0054870D01*
X0079384Y0054717D01*
X0079487Y0054562D01*
X0079586Y0054405D01*
X0079681Y0054245D01*
X0079773Y0054082D01*
X0079860Y0053918D01*
X0079943Y0053751D01*
X0079943Y0047060D02*
X0079860Y0046893D01*
X0079773Y0046729D01*
X0079681Y0046566D01*
X0079586Y0046406D01*
X0079487Y0046249D01*
X0079384Y0046094D01*
X0079277Y0045941D01*
X0079166Y0045791D01*
X0079052Y0045644D01*
X0078935Y0045499D01*
X0078814Y0045358D01*
X0078689Y0045219D01*
X0078562Y0045084D01*
X0078431Y0044951D01*
X0078296Y0044822D01*
X0078159Y0044696D01*
X0078019Y0044574D01*
X0077875Y0044455D01*
X0077729Y0044339D01*
X0077580Y0044228D01*
X0077429Y0044119D01*
X0077275Y0044015D01*
X0077118Y0043914D01*
X0076959Y0043817D01*
X0076798Y0043724D01*
X0076634Y0043635D01*
X0076468Y0043550D01*
X0076301Y0043469D01*
X0076131Y0043392D01*
X0075959Y0043319D01*
X0075786Y0043251D01*
X0075611Y0043187D01*
X0075435Y0043127D01*
X0075257Y0043071D01*
X0075078Y0043019D01*
X0074898Y0042972D01*
X0074717Y0042930D01*
X0074535Y0042891D01*
X0074351Y0042858D01*
X0074168Y0042828D01*
X0073983Y0042804D01*
X0073798Y0042783D01*
X0073612Y0042767D01*
X0073426Y0042756D01*
X0073240Y0042749D01*
X0073054Y0042747D01*
X0072868Y0042749D01*
X0072682Y0042756D01*
X0072496Y0042767D01*
X0072310Y0042783D01*
X0072125Y0042804D01*
X0071940Y0042828D01*
X0071757Y0042858D01*
X0071573Y0042891D01*
X0071391Y0042930D01*
X0071210Y0042972D01*
X0071030Y0043019D01*
X0070851Y0043071D01*
X0070673Y0043127D01*
X0070497Y0043187D01*
X0070322Y0043251D01*
X0070149Y0043319D01*
X0069977Y0043392D01*
X0069807Y0043469D01*
X0069640Y0043550D01*
X0069474Y0043635D01*
X0069310Y0043724D01*
X0069149Y0043817D01*
X0068990Y0043914D01*
X0068833Y0044015D01*
X0068679Y0044119D01*
X0068528Y0044228D01*
X0068379Y0044339D01*
X0068233Y0044455D01*
X0068089Y0044574D01*
X0067949Y0044696D01*
X0067812Y0044822D01*
X0067677Y0044951D01*
X0067546Y0045084D01*
X0067419Y0045219D01*
X0067294Y0045358D01*
X0067173Y0045499D01*
X0067056Y0045644D01*
X0066942Y0045791D01*
X0066831Y0045941D01*
X0066724Y0046094D01*
X0066621Y0046249D01*
X0066522Y0046406D01*
X0066427Y0046566D01*
X0066335Y0046729D01*
X0066248Y0046893D01*
X0066165Y0047060D01*
X0081321Y0042138D02*
X0081321Y0058673D01*
X0075615Y0060439D02*
X0075248Y0060072D01*
X0074514Y0060072D01*
X0074147Y0060439D01*
X0073221Y0060072D02*
X0071753Y0060072D01*
X0072487Y0060072D02*
X0072487Y0062274D01*
X0071753Y0061540D01*
X0070827Y0061907D02*
X0070460Y0062274D01*
X0069726Y0062274D01*
X0069359Y0061907D01*
X0069359Y0060439D01*
X0069726Y0060072D01*
X0070460Y0060072D01*
X0070827Y0060439D01*
X0074147Y0061907D02*
X0074514Y0062274D01*
X0075248Y0062274D01*
X0075615Y0061907D01*
X0075615Y0061540D01*
X0075248Y0061173D01*
X0075615Y0060806D01*
X0075615Y0060439D01*
X0075248Y0061173D02*
X0074881Y0061173D01*
X0085759Y0063946D02*
X0087227Y0063946D01*
X0086493Y0063946D02*
X0086493Y0066148D01*
X0085759Y0065414D01*
X0088153Y0065047D02*
X0088887Y0065414D01*
X0089254Y0065414D01*
X0089621Y0065047D01*
X0089621Y0064313D01*
X0089254Y0063946D01*
X0088520Y0063946D01*
X0088153Y0064313D01*
X0088153Y0065047D02*
X0088153Y0066148D01*
X0089621Y0066148D01*
X0090547Y0065781D02*
X0090914Y0066148D01*
X0091648Y0066148D01*
X0092015Y0065781D01*
X0090547Y0064313D01*
X0090914Y0063946D01*
X0091648Y0063946D01*
X0092015Y0064313D01*
X0092015Y0065781D01*
X0092941Y0066148D02*
X0092941Y0063946D01*
X0092941Y0064680D02*
X0094042Y0065414D01*
X0092941Y0064680D02*
X0094042Y0063946D01*
X0090547Y0064313D02*
X0090547Y0065781D01*
X0107211Y0065158D02*
X0107945Y0065892D01*
X0107945Y0063690D01*
X0107211Y0063690D02*
X0108679Y0063690D01*
X0109605Y0064057D02*
X0109972Y0063690D01*
X0110706Y0063690D01*
X0111073Y0064057D01*
X0111073Y0064791D01*
X0110706Y0065158D01*
X0110339Y0065158D01*
X0109605Y0064791D01*
X0109605Y0065892D01*
X0111073Y0065892D01*
X0111999Y0065525D02*
X0112366Y0065892D01*
X0113100Y0065892D01*
X0113467Y0065525D01*
X0111999Y0064057D01*
X0112366Y0063690D01*
X0113100Y0063690D01*
X0113467Y0064057D01*
X0113467Y0065525D01*
X0114393Y0065892D02*
X0114393Y0063690D01*
X0114393Y0064424D02*
X0115494Y0063690D01*
X0114393Y0064424D02*
X0115494Y0065158D01*
X0111999Y0065525D02*
X0111999Y0064057D01*
X0132309Y0063759D02*
X0132309Y0062291D01*
X0132676Y0061924D01*
X0133410Y0061924D01*
X0133777Y0062291D01*
X0134703Y0061924D02*
X0136171Y0061924D01*
X0135437Y0061924D02*
X0135437Y0064126D01*
X0134703Y0063392D01*
X0133777Y0063759D02*
X0133410Y0064126D01*
X0132676Y0064126D01*
X0132309Y0063759D01*
X0137097Y0063025D02*
X0138565Y0063025D01*
X0138198Y0061924D02*
X0138198Y0064126D01*
X0137097Y0063025D01*
X0157092Y0065192D02*
X0158560Y0065192D01*
X0159486Y0065192D02*
X0160954Y0066660D01*
X0160954Y0067027D01*
X0160587Y0067394D01*
X0159853Y0067394D01*
X0159486Y0067027D01*
X0157092Y0067394D02*
X0157092Y0065192D01*
X0159486Y0065192D02*
X0160954Y0065192D01*
X0198817Y0069578D02*
X0198817Y0070679D01*
X0199184Y0071046D01*
X0199551Y0071046D01*
X0199918Y0070679D01*
X0199918Y0069578D01*
X0199918Y0070679D02*
X0200285Y0071046D01*
X0200652Y0071046D01*
X0201019Y0070679D01*
X0201019Y0069578D01*
X0198817Y0069578D01*
X0199551Y0071972D02*
X0198817Y0072706D01*
X0201019Y0072706D01*
X0201019Y0071972D02*
X0201019Y0073440D01*
X0200652Y0074366D02*
X0201019Y0074733D01*
X0201019Y0075467D01*
X0200652Y0075834D01*
X0200285Y0075834D01*
X0199918Y0075467D01*
X0199918Y0075100D01*
X0199918Y0075467D02*
X0199551Y0075834D01*
X0199184Y0075834D01*
X0198817Y0075467D01*
X0198817Y0074733D01*
X0199184Y0074366D01*
X0204336Y0074534D02*
X0205070Y0075268D01*
X0205070Y0073066D01*
X0204336Y0073066D02*
X0205804Y0073066D01*
X0206730Y0073433D02*
X0208198Y0074901D01*
X0208198Y0073433D01*
X0207831Y0073066D01*
X0207097Y0073066D01*
X0206730Y0073433D01*
X0206730Y0074901D01*
X0207097Y0075268D01*
X0207831Y0075268D01*
X0208198Y0074901D01*
X0209124Y0074534D02*
X0209124Y0073433D01*
X0209491Y0073066D01*
X0210592Y0073066D01*
X0210592Y0074534D01*
X0211518Y0074167D02*
X0212252Y0074167D01*
X0211518Y0073066D02*
X0211518Y0075268D01*
X0212986Y0075268D01*
X0220352Y0074475D02*
X0221086Y0075209D01*
X0221086Y0073007D01*
X0220352Y0073007D02*
X0221820Y0073007D01*
X0222746Y0073374D02*
X0223113Y0073007D01*
X0223847Y0073007D01*
X0224214Y0073374D01*
X0224214Y0074842D01*
X0222746Y0073374D01*
X0222746Y0074842D01*
X0223113Y0075209D01*
X0223847Y0075209D01*
X0224214Y0074842D01*
X0225140Y0074842D02*
X0225507Y0075209D01*
X0226241Y0075209D01*
X0226608Y0074842D01*
X0225140Y0073374D01*
X0225507Y0073007D01*
X0226241Y0073007D01*
X0226608Y0073374D01*
X0226608Y0074842D01*
X0227534Y0075209D02*
X0227534Y0073007D01*
X0227534Y0073741D02*
X0228635Y0073007D01*
X0227534Y0073741D02*
X0228635Y0074475D01*
X0225140Y0074842D02*
X0225140Y0073374D01*
X0244671Y0077114D02*
X0245038Y0076747D01*
X0245772Y0076747D01*
X0246139Y0077114D01*
X0246139Y0077481D01*
X0245772Y0077848D01*
X0244671Y0077848D01*
X0244671Y0077114D01*
X0244671Y0077848D02*
X0245405Y0078582D01*
X0246139Y0078949D01*
X0247065Y0078582D02*
X0247432Y0078949D01*
X0248166Y0078949D01*
X0248533Y0078582D01*
X0248533Y0078215D01*
X0248166Y0077848D01*
X0247432Y0077848D01*
X0247065Y0078215D01*
X0247065Y0078582D01*
X0247432Y0077848D02*
X0247065Y0077481D01*
X0247065Y0077114D01*
X0247432Y0076747D01*
X0248166Y0076747D01*
X0248533Y0077114D01*
X0248533Y0077481D01*
X0248166Y0077848D01*
X0249459Y0078215D02*
X0249459Y0077114D01*
X0249826Y0076747D01*
X0250927Y0076747D01*
X0250927Y0078215D01*
X0251853Y0077848D02*
X0252587Y0077848D01*
X0251853Y0076747D02*
X0251853Y0078949D01*
X0253321Y0078949D01*
X0253640Y0077040D02*
X0253273Y0076673D01*
X0253273Y0075205D01*
X0253640Y0074838D01*
X0254374Y0074838D01*
X0254741Y0075205D01*
X0255667Y0074838D02*
X0257135Y0074838D01*
X0256401Y0074838D02*
X0256401Y0077040D01*
X0255667Y0076306D01*
X0254741Y0076673D02*
X0254374Y0077040D01*
X0253640Y0077040D01*
X0258061Y0076673D02*
X0258061Y0076306D01*
X0258428Y0075939D01*
X0259162Y0075939D01*
X0259529Y0075572D01*
X0259529Y0075205D01*
X0259162Y0074838D01*
X0258428Y0074838D01*
X0258061Y0075205D01*
X0258061Y0075572D01*
X0258428Y0075939D01*
X0259162Y0075939D02*
X0259529Y0076306D01*
X0259529Y0076673D01*
X0259162Y0077040D01*
X0258428Y0077040D01*
X0258061Y0076673D01*
X0268307Y0076610D02*
X0268307Y0077344D01*
X0268674Y0077711D01*
X0270142Y0076243D01*
X0270509Y0076610D01*
X0270509Y0077344D01*
X0270142Y0077711D01*
X0268674Y0077711D01*
X0268674Y0078637D02*
X0268307Y0079004D01*
X0268307Y0079738D01*
X0268674Y0080105D01*
X0269041Y0080105D01*
X0269408Y0079738D01*
X0269775Y0080105D01*
X0270142Y0080105D01*
X0270509Y0079738D01*
X0270509Y0079004D01*
X0270142Y0078637D01*
X0269408Y0079371D02*
X0269408Y0079738D01*
X0268307Y0076610D02*
X0268674Y0076243D01*
X0270142Y0076243D01*
X0270142Y0075316D02*
X0270509Y0074950D01*
X0270509Y0074216D01*
X0270142Y0073849D01*
X0269408Y0073849D02*
X0269041Y0074583D01*
X0269041Y0074950D01*
X0269408Y0075316D01*
X0270142Y0075316D01*
X0268307Y0075316D02*
X0268307Y0073849D01*
X0269408Y0073849D01*
X0269408Y0072922D02*
X0269408Y0071455D01*
X0268307Y0072555D01*
X0270509Y0072555D01*
X0270142Y0070528D02*
X0270509Y0070161D01*
X0270509Y0069427D01*
X0270142Y0069060D01*
X0268674Y0069060D01*
X0268307Y0069427D01*
X0268307Y0070161D01*
X0268674Y0070528D01*
X0259955Y0068851D02*
X0258487Y0068851D01*
X0258487Y0066649D01*
X0257561Y0066649D02*
X0257561Y0067750D01*
X0257194Y0068117D01*
X0256093Y0068117D01*
X0256093Y0066649D01*
X0255167Y0067016D02*
X0255167Y0067383D01*
X0254800Y0067750D01*
X0253699Y0067750D01*
X0253699Y0067016D01*
X0254066Y0066649D01*
X0254800Y0066649D01*
X0255167Y0067016D01*
X0254433Y0068484D02*
X0253699Y0067750D01*
X0252773Y0067750D02*
X0252773Y0067016D01*
X0252406Y0066649D01*
X0251672Y0066649D01*
X0251305Y0067016D01*
X0251305Y0067750D02*
X0252039Y0068117D01*
X0252406Y0068117D01*
X0252773Y0067750D01*
X0252773Y0068851D02*
X0251305Y0068851D01*
X0251305Y0067750D01*
X0254433Y0068484D02*
X0255167Y0068851D01*
X0258487Y0067750D02*
X0259221Y0067750D01*
X0268307Y0067767D02*
X0268307Y0067033D01*
X0268674Y0066666D01*
X0269041Y0066666D01*
X0269408Y0067033D01*
X0269408Y0067767D01*
X0269775Y0068134D01*
X0270142Y0068134D01*
X0270509Y0067767D01*
X0270509Y0067033D01*
X0270142Y0066666D01*
X0268674Y0068134D02*
X0268307Y0067767D01*
X0285460Y0071151D02*
X0285460Y0071884D01*
X0285460Y0071518D02*
X0287662Y0071518D01*
X0287662Y0071884D02*
X0287662Y0071151D01*
X0287295Y0072747D02*
X0287662Y0073114D01*
X0287662Y0073847D01*
X0287295Y0074214D01*
X0287295Y0075141D02*
X0287662Y0075508D01*
X0287662Y0076242D01*
X0287295Y0076609D01*
X0285827Y0076609D01*
X0285460Y0076242D01*
X0285460Y0075508D01*
X0285827Y0075141D01*
X0286194Y0075141D01*
X0286561Y0075508D01*
X0286561Y0076609D01*
X0285827Y0074214D02*
X0285460Y0073847D01*
X0285460Y0073114D01*
X0285827Y0072747D01*
X0287295Y0072747D01*
X0292941Y0075361D02*
X0293308Y0074994D01*
X0294042Y0074994D01*
X0294409Y0075361D01*
X0295336Y0074994D02*
X0296803Y0074994D01*
X0296069Y0074994D02*
X0296069Y0077196D01*
X0295336Y0076462D01*
X0294409Y0076829D02*
X0294042Y0077196D01*
X0293308Y0077196D01*
X0292941Y0076829D01*
X0292941Y0075361D01*
X0297730Y0075361D02*
X0298097Y0074994D01*
X0298831Y0074994D01*
X0299197Y0075361D01*
X0299197Y0076829D01*
X0298831Y0077196D01*
X0298097Y0077196D01*
X0297730Y0076829D01*
X0297730Y0076462D01*
X0298097Y0076095D01*
X0299197Y0076095D01*
X0297702Y0079302D02*
X0297702Y0081504D01*
X0296968Y0080770D01*
X0296234Y0081504D01*
X0296234Y0079302D01*
X0295308Y0079302D02*
X0293840Y0079302D01*
X0294574Y0079302D02*
X0294574Y0081504D01*
X0293840Y0080770D01*
X0294099Y0088007D02*
X0293365Y0088741D01*
X0293732Y0088741D02*
X0292631Y0088741D01*
X0292631Y0088007D02*
X0292631Y0090209D01*
X0293732Y0090209D01*
X0294099Y0089842D01*
X0294099Y0089108D01*
X0293732Y0088741D01*
X0295026Y0088374D02*
X0295393Y0088007D01*
X0296126Y0088007D01*
X0296493Y0088374D01*
X0296493Y0088741D01*
X0296126Y0089108D01*
X0295026Y0089108D01*
X0295026Y0088374D01*
X0295026Y0089108D02*
X0295759Y0089842D01*
X0296493Y0090209D01*
X0251006Y0089673D02*
X0250639Y0089306D01*
X0249905Y0089306D01*
X0249538Y0089673D01*
X0251006Y0091141D01*
X0251006Y0089673D01*
X0249538Y0089673D02*
X0249538Y0091141D01*
X0249905Y0091508D01*
X0250639Y0091508D01*
X0251006Y0091141D01*
X0248612Y0091141D02*
X0248245Y0091508D01*
X0247511Y0091508D01*
X0247144Y0091141D01*
X0246218Y0091141D02*
X0245851Y0091508D01*
X0245117Y0091508D01*
X0244750Y0091141D01*
X0244750Y0089673D01*
X0245117Y0089306D01*
X0245851Y0089306D01*
X0246218Y0089673D01*
X0247144Y0089306D02*
X0248612Y0090774D01*
X0248612Y0091141D01*
X0248612Y0089306D02*
X0247144Y0089306D01*
X0226001Y0086646D02*
X0226001Y0086279D01*
X0224533Y0084811D01*
X0224533Y0084444D01*
X0223607Y0084444D02*
X0222873Y0085178D01*
X0223240Y0085178D02*
X0222139Y0085178D01*
X0222139Y0084444D02*
X0222139Y0086646D01*
X0223240Y0086646D01*
X0223607Y0086279D01*
X0223607Y0085545D01*
X0223240Y0085178D01*
X0224533Y0086646D02*
X0226001Y0086646D01*
X0211380Y0086449D02*
X0211380Y0086082D01*
X0209912Y0084614D01*
X0209912Y0084247D01*
X0208986Y0084247D02*
X0207518Y0084247D01*
X0208252Y0084247D02*
X0208252Y0086449D01*
X0207518Y0085715D01*
X0206592Y0086082D02*
X0206225Y0086449D01*
X0205491Y0086449D01*
X0205124Y0086082D01*
X0205124Y0084614D01*
X0205491Y0084247D01*
X0206225Y0084247D01*
X0206592Y0084614D01*
X0201019Y0084309D02*
X0200652Y0083942D01*
X0201019Y0084309D02*
X0201019Y0085043D01*
X0200652Y0085410D01*
X0200285Y0085410D01*
X0199918Y0085043D01*
X0199918Y0084676D01*
X0199918Y0085043D02*
X0199551Y0085410D01*
X0199184Y0085410D01*
X0198817Y0085043D01*
X0198817Y0084309D01*
X0199184Y0083942D01*
X0201019Y0083016D02*
X0201019Y0081548D01*
X0201019Y0082282D02*
X0198817Y0082282D01*
X0199551Y0081548D01*
X0199918Y0080622D02*
X0199918Y0079154D01*
X0200652Y0078228D02*
X0201019Y0077861D01*
X0201019Y0077127D01*
X0200652Y0076760D01*
X0199184Y0078228D01*
X0200652Y0078228D01*
X0199184Y0078228D02*
X0198817Y0077861D01*
X0198817Y0077127D01*
X0199184Y0076760D01*
X0200652Y0076760D01*
X0185019Y0076578D02*
X0185019Y0077679D01*
X0184652Y0078046D01*
X0183184Y0078046D01*
X0182817Y0077679D01*
X0182817Y0076578D01*
X0185019Y0076578D01*
X0185019Y0078972D02*
X0185019Y0080440D01*
X0185019Y0079706D02*
X0182817Y0079706D01*
X0183551Y0078972D01*
X0172848Y0081548D02*
X0171381Y0081548D01*
X0172115Y0081548D02*
X0172115Y0079346D01*
X0170454Y0079346D02*
X0170454Y0080814D01*
X0169720Y0081548D01*
X0168987Y0080814D01*
X0168987Y0079346D01*
X0168060Y0079713D02*
X0167693Y0079346D01*
X0166592Y0079346D01*
X0166592Y0081548D01*
X0167693Y0081548D01*
X0168060Y0081181D01*
X0168060Y0080814D01*
X0167693Y0080447D01*
X0166592Y0080447D01*
X0165666Y0080080D02*
X0164932Y0079346D01*
X0164198Y0080080D01*
X0164198Y0081548D01*
X0165666Y0081548D02*
X0165666Y0080080D01*
X0167693Y0080447D02*
X0168060Y0080080D01*
X0168060Y0079713D01*
X0168987Y0080447D02*
X0170454Y0080447D01*
X0148801Y0081154D02*
X0148801Y0079686D01*
X0148067Y0078952D01*
X0147333Y0079686D01*
X0147333Y0081154D01*
X0146407Y0080787D02*
X0146040Y0081154D01*
X0145306Y0081154D01*
X0144939Y0080787D01*
X0146407Y0080787D02*
X0146407Y0080420D01*
X0144939Y0078952D01*
X0146407Y0078952D01*
X0144013Y0078952D02*
X0142545Y0078952D01*
X0143279Y0078952D02*
X0143279Y0081154D01*
X0142545Y0080420D01*
X0114928Y0077198D02*
X0114928Y0076831D01*
X0114561Y0076464D01*
X0114928Y0076097D01*
X0114928Y0075730D01*
X0114561Y0075363D01*
X0113828Y0075363D01*
X0113461Y0075730D01*
X0112534Y0075363D02*
X0111066Y0075363D01*
X0111800Y0075363D02*
X0111800Y0077565D01*
X0111066Y0076831D01*
X0110140Y0077198D02*
X0110140Y0076464D01*
X0109773Y0076097D01*
X0108672Y0076097D01*
X0108672Y0075363D02*
X0108672Y0077565D01*
X0109773Y0077565D01*
X0110140Y0077198D01*
X0109406Y0076097D02*
X0110140Y0075363D01*
X0114194Y0076464D02*
X0114561Y0076464D01*
X0114928Y0077198D02*
X0114561Y0077565D01*
X0113828Y0077565D01*
X0113461Y0077198D01*
X0092635Y0076966D02*
X0091167Y0076966D01*
X0092268Y0078067D01*
X0092268Y0075865D01*
X0090241Y0075865D02*
X0088773Y0075865D01*
X0089507Y0075865D02*
X0089507Y0078067D01*
X0088773Y0077333D01*
X0087847Y0077700D02*
X0087847Y0076966D01*
X0087480Y0076599D01*
X0086379Y0076599D01*
X0086379Y0075865D02*
X0086379Y0078067D01*
X0087480Y0078067D01*
X0087847Y0077700D01*
X0087113Y0076599D02*
X0087847Y0075865D01*
X0032156Y0074994D02*
X0031055Y0074994D01*
X0030688Y0074627D01*
X0030688Y0073526D01*
X0032156Y0073526D01*
X0032156Y0072664D02*
X0032156Y0071930D01*
X0032156Y0072297D02*
X0030688Y0072297D01*
X0030688Y0071930D01*
X0029954Y0072297D02*
X0029587Y0072297D01*
X0029954Y0071004D02*
X0031422Y0071004D01*
X0032156Y0070270D01*
X0031422Y0069536D01*
X0029954Y0069536D01*
X0014833Y0063079D02*
X0014100Y0063813D01*
X0012632Y0063813D01*
X0014100Y0062345D02*
X0014833Y0063079D01*
X0014100Y0062345D02*
X0012632Y0062345D01*
X0012999Y0061419D02*
X0013366Y0061419D01*
X0013733Y0061052D01*
X0014100Y0061419D01*
X0014466Y0061419D01*
X0014833Y0061052D01*
X0014833Y0060318D01*
X0014466Y0059951D01*
X0013733Y0060685D02*
X0013733Y0061052D01*
X0012999Y0061419D02*
X0012632Y0061052D01*
X0012632Y0060318D01*
X0012999Y0059951D01*
X0029954Y0055159D02*
X0030321Y0055526D01*
X0031789Y0055526D01*
X0032156Y0055159D01*
X0032156Y0054058D01*
X0029954Y0054058D01*
X0029954Y0055159D01*
X0029954Y0053132D02*
X0032156Y0053132D01*
X0029954Y0051664D01*
X0032156Y0051664D01*
X0031789Y0050738D02*
X0031055Y0050738D01*
X0031055Y0050004D01*
X0030321Y0050738D02*
X0029954Y0050371D01*
X0029954Y0049637D01*
X0030321Y0049270D01*
X0031789Y0049270D01*
X0032156Y0049637D01*
X0032156Y0050371D01*
X0031789Y0050738D01*
X0037876Y0050551D02*
X0038977Y0049450D01*
X0038977Y0050918D01*
X0040078Y0050551D02*
X0037876Y0050551D01*
X0038243Y0051844D02*
X0037876Y0052211D01*
X0037876Y0052945D01*
X0038243Y0053312D01*
X0039711Y0051844D01*
X0040078Y0052211D01*
X0040078Y0052945D01*
X0039711Y0053312D01*
X0038243Y0053312D01*
X0038243Y0054238D02*
X0037876Y0054605D01*
X0037876Y0055339D01*
X0038243Y0055706D01*
X0038610Y0055706D01*
X0038977Y0055339D01*
X0039344Y0055706D01*
X0039711Y0055706D01*
X0040078Y0055339D01*
X0040078Y0054605D01*
X0039711Y0054238D01*
X0038977Y0054972D02*
X0038977Y0055339D01*
X0038243Y0056632D02*
X0037876Y0056999D01*
X0037876Y0057733D01*
X0038243Y0058100D01*
X0039711Y0056632D01*
X0040078Y0056999D01*
X0040078Y0057733D01*
X0039711Y0058100D01*
X0038243Y0058100D01*
X0038243Y0059026D02*
X0037876Y0059393D01*
X0037876Y0060127D01*
X0038243Y0060494D01*
X0039711Y0059026D01*
X0040078Y0059393D01*
X0040078Y0060127D01*
X0039711Y0060494D01*
X0038243Y0060494D01*
X0038243Y0059026D02*
X0039711Y0059026D01*
X0039711Y0056632D02*
X0038243Y0056632D01*
X0038243Y0051844D02*
X0039711Y0051844D01*
X0039711Y0048524D02*
X0040078Y0048157D01*
X0040078Y0047423D01*
X0039711Y0047056D01*
X0038977Y0047423D02*
X0038977Y0048157D01*
X0039344Y0048524D01*
X0039711Y0048524D01*
X0038977Y0047423D02*
X0038610Y0047056D01*
X0038243Y0047056D01*
X0037876Y0047423D01*
X0037876Y0048157D01*
X0038243Y0048524D01*
X0038243Y0046130D02*
X0037876Y0045763D01*
X0037876Y0045029D01*
X0038243Y0044662D01*
X0039711Y0044662D01*
X0040078Y0045029D01*
X0040078Y0045763D01*
X0039711Y0046130D01*
X0040078Y0043800D02*
X0040078Y0043066D01*
X0040078Y0043433D02*
X0037876Y0043433D01*
X0037876Y0043066D02*
X0037876Y0043800D01*
X0014833Y0043053D02*
X0014466Y0043420D01*
X0014833Y0043053D02*
X0014833Y0042319D01*
X0014466Y0041952D01*
X0012999Y0041952D01*
X0012632Y0042319D01*
X0012632Y0043053D01*
X0012999Y0043420D01*
X0013366Y0041025D02*
X0014833Y0041025D01*
X0013733Y0041025D02*
X0013733Y0039558D01*
X0013366Y0039558D02*
X0012632Y0040292D01*
X0013366Y0041025D01*
X0013366Y0039558D02*
X0014833Y0039558D01*
X0030348Y0033053D02*
X0030348Y0032319D01*
X0030715Y0031952D01*
X0032183Y0031952D01*
X0032550Y0032319D01*
X0032550Y0033053D01*
X0032183Y0033420D01*
X0030715Y0033420D02*
X0030348Y0033053D01*
X0030715Y0031025D02*
X0030348Y0030659D01*
X0030348Y0029558D01*
X0032550Y0029558D01*
X0032550Y0030659D01*
X0032183Y0031025D01*
X0030715Y0031025D01*
X0024797Y0023687D02*
X0024797Y0021485D01*
X0024063Y0021485D02*
X0025531Y0021485D01*
X0023137Y0022586D02*
X0022770Y0022219D01*
X0021669Y0022219D01*
X0021669Y0021485D02*
X0021669Y0023687D01*
X0022770Y0023687D01*
X0023137Y0023320D01*
X0023137Y0022586D01*
X0024063Y0022953D02*
X0024797Y0023687D01*
X0020743Y0023687D02*
X0020009Y0023687D01*
X0020376Y0023687D02*
X0020376Y0021852D01*
X0020009Y0021485D01*
X0019642Y0021485D01*
X0019275Y0021852D01*
X0066774Y0024815D02*
X0066776Y0025003D01*
X0066783Y0025192D01*
X0066795Y0025380D01*
X0066811Y0025567D01*
X0066832Y0025755D01*
X0066857Y0025941D01*
X0066887Y0026127D01*
X0066922Y0026313D01*
X0066961Y0026497D01*
X0067004Y0026680D01*
X0067052Y0026863D01*
X0067105Y0027044D01*
X0067161Y0027223D01*
X0067223Y0027401D01*
X0067288Y0027578D01*
X0067358Y0027753D01*
X0067433Y0027926D01*
X0067511Y0028097D01*
X0067594Y0028267D01*
X0067680Y0028434D01*
X0067771Y0028599D01*
X0067866Y0028762D01*
X0067965Y0028922D01*
X0068068Y0029080D01*
X0068174Y0029235D01*
X0068285Y0029388D01*
X0068399Y0029538D01*
X0068517Y0029685D01*
X0068638Y0029829D01*
X0068763Y0029971D01*
X0068891Y0030109D01*
X0069023Y0030243D01*
X0069157Y0030375D01*
X0069295Y0030503D01*
X0069437Y0030628D01*
X0069581Y0030749D01*
X0069728Y0030867D01*
X0069878Y0030981D01*
X0070031Y0031092D01*
X0070186Y0031198D01*
X0070344Y0031301D01*
X0070504Y0031400D01*
X0070667Y0031495D01*
X0070832Y0031586D01*
X0070999Y0031672D01*
X0071169Y0031755D01*
X0071340Y0031833D01*
X0071513Y0031908D01*
X0071688Y0031978D01*
X0071865Y0032043D01*
X0072043Y0032105D01*
X0072222Y0032161D01*
X0072403Y0032214D01*
X0072586Y0032262D01*
X0072769Y0032305D01*
X0072953Y0032344D01*
X0073139Y0032379D01*
X0073325Y0032409D01*
X0073511Y0032434D01*
X0073699Y0032455D01*
X0073886Y0032471D01*
X0074074Y0032483D01*
X0074263Y0032490D01*
X0074451Y0032492D01*
X0074639Y0032490D01*
X0074828Y0032483D01*
X0075016Y0032471D01*
X0075203Y0032455D01*
X0075391Y0032434D01*
X0075577Y0032409D01*
X0075763Y0032379D01*
X0075949Y0032344D01*
X0076133Y0032305D01*
X0076316Y0032262D01*
X0076499Y0032214D01*
X0076680Y0032161D01*
X0076859Y0032105D01*
X0077037Y0032043D01*
X0077214Y0031978D01*
X0077389Y0031908D01*
X0077562Y0031833D01*
X0077733Y0031755D01*
X0077903Y0031672D01*
X0078070Y0031586D01*
X0078235Y0031495D01*
X0078398Y0031400D01*
X0078558Y0031301D01*
X0078716Y0031198D01*
X0078871Y0031092D01*
X0079024Y0030981D01*
X0079174Y0030867D01*
X0079321Y0030749D01*
X0079465Y0030628D01*
X0079607Y0030503D01*
X0079745Y0030375D01*
X0079879Y0030243D01*
X0080011Y0030109D01*
X0080139Y0029971D01*
X0080264Y0029829D01*
X0080385Y0029685D01*
X0080503Y0029538D01*
X0080617Y0029388D01*
X0080728Y0029235D01*
X0080834Y0029080D01*
X0080937Y0028922D01*
X0081036Y0028762D01*
X0081131Y0028599D01*
X0081222Y0028434D01*
X0081308Y0028267D01*
X0081391Y0028097D01*
X0081469Y0027926D01*
X0081544Y0027753D01*
X0081614Y0027578D01*
X0081679Y0027401D01*
X0081741Y0027223D01*
X0081797Y0027044D01*
X0081850Y0026863D01*
X0081898Y0026680D01*
X0081941Y0026497D01*
X0081980Y0026313D01*
X0082015Y0026127D01*
X0082045Y0025941D01*
X0082070Y0025755D01*
X0082091Y0025567D01*
X0082107Y0025380D01*
X0082119Y0025192D01*
X0082126Y0025003D01*
X0082128Y0024815D01*
X0082126Y0024627D01*
X0082119Y0024438D01*
X0082107Y0024250D01*
X0082091Y0024063D01*
X0082070Y0023875D01*
X0082045Y0023689D01*
X0082015Y0023503D01*
X0081980Y0023317D01*
X0081941Y0023133D01*
X0081898Y0022950D01*
X0081850Y0022767D01*
X0081797Y0022586D01*
X0081741Y0022407D01*
X0081679Y0022229D01*
X0081614Y0022052D01*
X0081544Y0021877D01*
X0081469Y0021704D01*
X0081391Y0021533D01*
X0081308Y0021363D01*
X0081222Y0021196D01*
X0081131Y0021031D01*
X0081036Y0020868D01*
X0080937Y0020708D01*
X0080834Y0020550D01*
X0080728Y0020395D01*
X0080617Y0020242D01*
X0080503Y0020092D01*
X0080385Y0019945D01*
X0080264Y0019801D01*
X0080139Y0019659D01*
X0080011Y0019521D01*
X0079879Y0019387D01*
X0079745Y0019255D01*
X0079607Y0019127D01*
X0079465Y0019002D01*
X0079321Y0018881D01*
X0079174Y0018763D01*
X0079024Y0018649D01*
X0078871Y0018538D01*
X0078716Y0018432D01*
X0078558Y0018329D01*
X0078398Y0018230D01*
X0078235Y0018135D01*
X0078070Y0018044D01*
X0077903Y0017958D01*
X0077733Y0017875D01*
X0077562Y0017797D01*
X0077389Y0017722D01*
X0077214Y0017652D01*
X0077037Y0017587D01*
X0076859Y0017525D01*
X0076680Y0017469D01*
X0076499Y0017416D01*
X0076316Y0017368D01*
X0076133Y0017325D01*
X0075949Y0017286D01*
X0075763Y0017251D01*
X0075577Y0017221D01*
X0075391Y0017196D01*
X0075203Y0017175D01*
X0075016Y0017159D01*
X0074828Y0017147D01*
X0074639Y0017140D01*
X0074451Y0017138D01*
X0074263Y0017140D01*
X0074074Y0017147D01*
X0073886Y0017159D01*
X0073699Y0017175D01*
X0073511Y0017196D01*
X0073325Y0017221D01*
X0073139Y0017251D01*
X0072953Y0017286D01*
X0072769Y0017325D01*
X0072586Y0017368D01*
X0072403Y0017416D01*
X0072222Y0017469D01*
X0072043Y0017525D01*
X0071865Y0017587D01*
X0071688Y0017652D01*
X0071513Y0017722D01*
X0071340Y0017797D01*
X0071169Y0017875D01*
X0070999Y0017958D01*
X0070832Y0018044D01*
X0070667Y0018135D01*
X0070504Y0018230D01*
X0070344Y0018329D01*
X0070186Y0018432D01*
X0070031Y0018538D01*
X0069878Y0018649D01*
X0069728Y0018763D01*
X0069581Y0018881D01*
X0069437Y0019002D01*
X0069295Y0019127D01*
X0069157Y0019255D01*
X0069023Y0019387D01*
X0068891Y0019521D01*
X0068763Y0019659D01*
X0068638Y0019801D01*
X0068517Y0019945D01*
X0068399Y0020092D01*
X0068285Y0020242D01*
X0068174Y0020395D01*
X0068068Y0020550D01*
X0067965Y0020708D01*
X0067866Y0020868D01*
X0067771Y0021031D01*
X0067680Y0021196D01*
X0067594Y0021363D01*
X0067511Y0021533D01*
X0067433Y0021704D01*
X0067358Y0021877D01*
X0067288Y0022052D01*
X0067223Y0022229D01*
X0067161Y0022407D01*
X0067105Y0022586D01*
X0067052Y0022767D01*
X0067004Y0022950D01*
X0066961Y0023133D01*
X0066922Y0023317D01*
X0066887Y0023503D01*
X0066857Y0023689D01*
X0066832Y0023875D01*
X0066811Y0024063D01*
X0066795Y0024250D01*
X0066783Y0024438D01*
X0066776Y0024627D01*
X0066774Y0024815D01*
X0067562Y0021469D02*
X0067645Y0021302D01*
X0067732Y0021138D01*
X0067824Y0020975D01*
X0067919Y0020815D01*
X0068018Y0020658D01*
X0068121Y0020503D01*
X0068228Y0020350D01*
X0068339Y0020200D01*
X0068453Y0020053D01*
X0068570Y0019908D01*
X0068691Y0019767D01*
X0068816Y0019628D01*
X0068943Y0019493D01*
X0069074Y0019360D01*
X0069209Y0019231D01*
X0069346Y0019105D01*
X0069486Y0018983D01*
X0069630Y0018864D01*
X0069776Y0018748D01*
X0069925Y0018637D01*
X0070076Y0018528D01*
X0070230Y0018424D01*
X0070387Y0018323D01*
X0070546Y0018226D01*
X0070707Y0018133D01*
X0070871Y0018044D01*
X0071037Y0017959D01*
X0071204Y0017878D01*
X0071374Y0017801D01*
X0071546Y0017728D01*
X0071719Y0017660D01*
X0071894Y0017596D01*
X0072070Y0017536D01*
X0072248Y0017480D01*
X0072427Y0017428D01*
X0072607Y0017381D01*
X0072788Y0017339D01*
X0072970Y0017300D01*
X0073154Y0017267D01*
X0073337Y0017237D01*
X0073522Y0017213D01*
X0073707Y0017192D01*
X0073893Y0017176D01*
X0074079Y0017165D01*
X0074265Y0017158D01*
X0074451Y0017156D01*
X0074637Y0017158D01*
X0074823Y0017165D01*
X0075009Y0017176D01*
X0075195Y0017192D01*
X0075380Y0017213D01*
X0075565Y0017237D01*
X0075748Y0017267D01*
X0075932Y0017300D01*
X0076114Y0017339D01*
X0076295Y0017381D01*
X0076475Y0017428D01*
X0076654Y0017480D01*
X0076832Y0017536D01*
X0077008Y0017596D01*
X0077183Y0017660D01*
X0077356Y0017728D01*
X0077528Y0017801D01*
X0077698Y0017878D01*
X0077865Y0017959D01*
X0078031Y0018044D01*
X0078195Y0018133D01*
X0078356Y0018226D01*
X0078515Y0018323D01*
X0078672Y0018424D01*
X0078826Y0018528D01*
X0078977Y0018637D01*
X0079126Y0018748D01*
X0079272Y0018864D01*
X0079416Y0018983D01*
X0079556Y0019105D01*
X0079693Y0019231D01*
X0079828Y0019360D01*
X0079959Y0019493D01*
X0080086Y0019628D01*
X0080211Y0019767D01*
X0080332Y0019908D01*
X0080449Y0020053D01*
X0080563Y0020200D01*
X0080674Y0020350D01*
X0080781Y0020503D01*
X0080884Y0020658D01*
X0080983Y0020815D01*
X0081078Y0020975D01*
X0081170Y0021138D01*
X0081257Y0021302D01*
X0081340Y0021469D01*
X0083710Y0019940D02*
X0084444Y0020674D01*
X0084444Y0018472D01*
X0083710Y0018472D02*
X0085178Y0018472D01*
X0086104Y0018839D02*
X0087572Y0020307D01*
X0087572Y0018839D01*
X0087205Y0018472D01*
X0086471Y0018472D01*
X0086104Y0018839D01*
X0086104Y0020307D01*
X0086471Y0020674D01*
X0087205Y0020674D01*
X0087572Y0020307D01*
X0088498Y0019940D02*
X0088498Y0018839D01*
X0088865Y0018472D01*
X0089966Y0018472D01*
X0089966Y0019940D01*
X0090892Y0019573D02*
X0091626Y0019573D01*
X0090892Y0018472D02*
X0090892Y0020674D01*
X0092360Y0020674D01*
X0092620Y0021882D02*
X0092620Y0016961D01*
X0104825Y0016961D01*
X0109156Y0021291D01*
X0109156Y0029165D01*
X0104825Y0033496D01*
X0092620Y0033496D01*
X0092620Y0028575D01*
X0096164Y0031134D02*
X0096164Y0019323D01*
X0092620Y0016961D02*
X0092620Y0033496D01*
X0093388Y0035255D02*
X0093021Y0035622D01*
X0093021Y0037090D01*
X0093388Y0037457D01*
X0094122Y0037457D01*
X0094489Y0037090D01*
X0095415Y0036723D02*
X0096149Y0037457D01*
X0096149Y0035255D01*
X0095415Y0035255D02*
X0096883Y0035255D01*
X0097809Y0035622D02*
X0098176Y0035255D01*
X0098910Y0035255D01*
X0099277Y0035622D01*
X0099277Y0036356D01*
X0098910Y0036723D01*
X0098543Y0036723D01*
X0097809Y0036356D01*
X0097809Y0037457D01*
X0099277Y0037457D01*
X0094489Y0035622D02*
X0094122Y0035255D01*
X0093388Y0035255D01*
X0121555Y0033305D02*
X0121555Y0031837D01*
X0123023Y0033305D01*
X0123023Y0031837D01*
X0122656Y0031470D01*
X0121922Y0031470D01*
X0121555Y0031837D01*
X0123949Y0031837D02*
X0124316Y0031837D01*
X0124316Y0031470D01*
X0123949Y0031470D01*
X0123949Y0031837D01*
X0125146Y0031470D02*
X0126614Y0031470D01*
X0125880Y0031470D02*
X0125880Y0033672D01*
X0125146Y0032938D01*
X0123023Y0033305D02*
X0122656Y0033672D01*
X0121922Y0033672D01*
X0121555Y0033305D01*
X0127540Y0032938D02*
X0127540Y0031837D01*
X0127907Y0031470D01*
X0129008Y0031470D01*
X0129008Y0032938D01*
X0129934Y0032571D02*
X0130668Y0032571D01*
X0129934Y0031470D02*
X0129934Y0033672D01*
X0131402Y0033672D01*
X0126655Y0027886D02*
X0125921Y0027519D01*
X0125187Y0026785D01*
X0126288Y0026785D01*
X0126655Y0026418D01*
X0126655Y0026051D01*
X0126288Y0025684D01*
X0125554Y0025684D01*
X0125187Y0026051D01*
X0125187Y0026785D01*
X0124261Y0025684D02*
X0122793Y0025684D01*
X0123527Y0025684D02*
X0123527Y0027886D01*
X0122793Y0027152D01*
X0121867Y0026785D02*
X0121500Y0026418D01*
X0120399Y0026418D01*
X0120399Y0025684D02*
X0120399Y0027886D01*
X0121500Y0027886D01*
X0121867Y0027519D01*
X0121867Y0026785D01*
X0121133Y0026418D02*
X0121867Y0025684D01*
X0118955Y0021307D02*
X0117487Y0021307D01*
X0117487Y0019106D01*
X0116561Y0019106D02*
X0116561Y0020573D01*
X0117487Y0020206D02*
X0118221Y0020206D01*
X0116561Y0019106D02*
X0115460Y0019106D01*
X0115093Y0019472D01*
X0115093Y0020573D01*
X0114167Y0020940D02*
X0112699Y0019472D01*
X0113066Y0019106D01*
X0113800Y0019106D01*
X0114167Y0019472D01*
X0114167Y0020940D01*
X0113800Y0021307D01*
X0113066Y0021307D01*
X0112699Y0020940D01*
X0112699Y0019472D01*
X0111773Y0019106D02*
X0110305Y0019106D01*
X0111039Y0019106D02*
X0111039Y0021307D01*
X0110305Y0020573D01*
X0125557Y0017270D02*
X0126291Y0018004D01*
X0126291Y0015802D01*
X0125557Y0015802D02*
X0127025Y0015802D01*
X0127951Y0015802D02*
X0127951Y0018004D01*
X0129052Y0017270D02*
X0127951Y0016536D01*
X0129052Y0015802D01*
X0150006Y0018543D02*
X0150006Y0020011D01*
X0150372Y0020378D01*
X0151106Y0020378D01*
X0151473Y0020011D01*
X0151473Y0018543D01*
X0151106Y0018176D01*
X0150372Y0018176D01*
X0150006Y0018543D01*
X0152400Y0018176D02*
X0152400Y0020378D01*
X0153500Y0020378D01*
X0153867Y0020011D01*
X0153867Y0019277D01*
X0153500Y0018910D01*
X0152400Y0018910D01*
X0154794Y0019277D02*
X0156262Y0019277D01*
X0156262Y0019644D02*
X0156262Y0018176D01*
X0157188Y0018176D02*
X0158656Y0019644D01*
X0158656Y0020011D01*
X0158289Y0020378D01*
X0157555Y0020378D01*
X0157188Y0020011D01*
X0156262Y0019644D02*
X0155528Y0020378D01*
X0154794Y0019644D01*
X0154794Y0018176D01*
X0157188Y0018176D02*
X0158656Y0018176D01*
X0159582Y0018176D02*
X0161050Y0018176D01*
X0160316Y0018176D02*
X0160316Y0020378D01*
X0159582Y0019644D01*
X0161976Y0020011D02*
X0162343Y0020378D01*
X0163077Y0020378D01*
X0163444Y0020011D01*
X0163444Y0019644D01*
X0163077Y0019277D01*
X0163444Y0018910D01*
X0163444Y0018543D01*
X0163077Y0018176D01*
X0162343Y0018176D01*
X0161976Y0018543D01*
X0162710Y0019277D02*
X0163077Y0019277D01*
X0164370Y0019277D02*
X0165838Y0019277D01*
X0165471Y0018176D02*
X0165471Y0020378D01*
X0164370Y0019277D01*
X0166764Y0018543D02*
X0167131Y0018176D01*
X0167865Y0018176D01*
X0168232Y0018543D01*
X0168232Y0020378D01*
X0169158Y0019644D02*
X0169892Y0020378D01*
X0170626Y0019644D01*
X0170626Y0018176D01*
X0170626Y0019277D02*
X0169158Y0019277D01*
X0169158Y0019644D02*
X0169158Y0018176D01*
X0166764Y0018543D02*
X0166764Y0020378D01*
X0233641Y0020041D02*
X0233641Y0019307D01*
X0234008Y0018941D01*
X0233641Y0018014D02*
X0233641Y0017280D01*
X0233641Y0017647D02*
X0235476Y0017647D01*
X0235843Y0017280D01*
X0235843Y0016913D01*
X0235476Y0016546D01*
X0235843Y0018941D02*
X0234375Y0020408D01*
X0234008Y0020408D01*
X0233641Y0020041D01*
X0235843Y0020408D02*
X0235843Y0018941D01*
X0297988Y0032728D02*
X0297988Y0034929D01*
X0296887Y0033828D01*
X0298355Y0033828D01*
X0299281Y0033095D02*
X0299281Y0032728D01*
X0299281Y0033095D02*
X0300749Y0034562D01*
X0300749Y0034929D01*
X0299281Y0034929D01*
X0301675Y0034562D02*
X0302042Y0034929D01*
X0302776Y0034929D01*
X0303143Y0034562D01*
X0301675Y0033095D01*
X0302042Y0032728D01*
X0302776Y0032728D01*
X0303143Y0033095D01*
X0303143Y0034562D01*
X0301675Y0034562D02*
X0301675Y0033095D01*
X0307707Y0031211D02*
X0308808Y0031211D01*
X0309175Y0030844D01*
X0309175Y0030477D01*
X0308808Y0030110D01*
X0307707Y0030110D01*
X0307707Y0029009D02*
X0307707Y0031211D01*
X0308808Y0030110D02*
X0309175Y0029743D01*
X0309175Y0029376D01*
X0308808Y0029009D01*
X0307707Y0029009D01*
X0310101Y0029376D02*
X0310468Y0029743D01*
X0311569Y0029743D01*
X0311569Y0030110D02*
X0311569Y0029009D01*
X0310468Y0029009D01*
X0310101Y0029376D01*
X0310468Y0030477D02*
X0311202Y0030477D01*
X0311569Y0030110D01*
X0312495Y0030477D02*
X0313229Y0030477D01*
X0312862Y0030844D02*
X0312862Y0029376D01*
X0313229Y0029009D01*
X0314458Y0029376D02*
X0314825Y0029009D01*
X0314458Y0029376D02*
X0314458Y0030844D01*
X0314091Y0030477D02*
X0314825Y0030477D01*
X0315687Y0030110D02*
X0316054Y0030477D01*
X0316788Y0030477D01*
X0317155Y0030110D01*
X0317155Y0029743D01*
X0315687Y0029743D01*
X0315687Y0029376D02*
X0315687Y0030110D01*
X0315687Y0029376D02*
X0316054Y0029009D01*
X0316788Y0029009D01*
X0318081Y0029009D02*
X0318081Y0030477D01*
X0318081Y0029743D02*
X0318815Y0030477D01*
X0319182Y0030477D01*
X0320076Y0030477D02*
X0320076Y0029376D01*
X0320443Y0029009D01*
X0321544Y0029009D01*
X0321544Y0028642D02*
X0321177Y0028275D01*
X0320810Y0028275D01*
X0321544Y0028642D02*
X0321544Y0030477D01*
X0333655Y0029551D02*
X0333655Y0027350D01*
X0333655Y0028084D02*
X0334756Y0028084D01*
X0335123Y0028451D01*
X0335123Y0029184D01*
X0334756Y0029551D01*
X0333655Y0029551D01*
X0336049Y0029184D02*
X0336416Y0029551D01*
X0337150Y0029551D01*
X0337517Y0029184D01*
X0337517Y0028818D01*
X0336049Y0027350D01*
X0337517Y0027350D01*
X0338443Y0027717D02*
X0338810Y0027350D01*
X0339544Y0027350D01*
X0339911Y0027717D01*
X0339911Y0028451D01*
X0339544Y0028818D01*
X0339177Y0028818D01*
X0338443Y0028451D01*
X0338443Y0029551D01*
X0339911Y0029551D01*
X0344162Y0029624D02*
X0344162Y0028156D01*
X0344529Y0027789D01*
X0345263Y0027789D01*
X0345630Y0028156D01*
X0346556Y0027789D02*
X0348024Y0029257D01*
X0348024Y0029624D01*
X0347657Y0029991D01*
X0346923Y0029991D01*
X0346556Y0029624D01*
X0345630Y0029624D02*
X0345263Y0029991D01*
X0344529Y0029991D01*
X0344162Y0029624D01*
X0346556Y0027789D02*
X0348024Y0027789D01*
X0348950Y0027789D02*
X0350418Y0029257D01*
X0350418Y0029624D01*
X0350051Y0029991D01*
X0349317Y0029991D01*
X0348950Y0029624D01*
X0348950Y0027789D02*
X0350418Y0027789D01*
X0363847Y0028129D02*
X0364948Y0028129D01*
X0365315Y0028496D01*
X0365315Y0029230D01*
X0364948Y0029597D01*
X0363847Y0029597D01*
X0363847Y0027395D01*
X0364581Y0028129D02*
X0365315Y0027395D01*
X0366241Y0027395D02*
X0367709Y0028863D01*
X0367709Y0029230D01*
X0367342Y0029597D01*
X0366608Y0029597D01*
X0366241Y0029230D01*
X0368635Y0028496D02*
X0369736Y0028496D01*
X0370103Y0028129D01*
X0370103Y0027762D01*
X0369736Y0027395D01*
X0369002Y0027395D01*
X0368635Y0027762D01*
X0368635Y0028496D01*
X0369369Y0029230D01*
X0370103Y0029597D01*
X0367709Y0027395D02*
X0366241Y0027395D01*
X0379545Y0027414D02*
X0379545Y0025212D01*
X0379545Y0025946D02*
X0380646Y0025946D01*
X0381013Y0026313D01*
X0381013Y0027047D01*
X0380646Y0027414D01*
X0379545Y0027414D01*
X0381939Y0027047D02*
X0381939Y0026680D01*
X0382306Y0026313D01*
X0383407Y0026313D01*
X0383407Y0027047D02*
X0383040Y0027414D01*
X0382306Y0027414D01*
X0381939Y0027047D01*
X0383407Y0027047D02*
X0383407Y0025579D01*
X0383040Y0025212D01*
X0382306Y0025212D01*
X0381939Y0025579D01*
X0381013Y0025212D02*
X0380279Y0025946D01*
X0393250Y0026111D02*
X0394351Y0026111D01*
X0394718Y0026478D01*
X0394718Y0027212D01*
X0394351Y0027579D01*
X0393250Y0027579D01*
X0393250Y0025377D01*
X0393984Y0026111D02*
X0394718Y0025377D01*
X0395644Y0025377D02*
X0397112Y0025377D01*
X0396378Y0025377D02*
X0396378Y0027579D01*
X0395644Y0026845D01*
X0398038Y0027212D02*
X0398038Y0025744D01*
X0399506Y0027212D01*
X0399506Y0025744D01*
X0399139Y0025377D01*
X0398405Y0025377D01*
X0398038Y0025744D01*
X0398038Y0027212D02*
X0398405Y0027579D01*
X0399139Y0027579D01*
X0399506Y0027212D01*
X0398927Y0029169D02*
X0398927Y0030636D01*
X0400028Y0030636D01*
X0400395Y0030269D01*
X0400395Y0029169D01*
X0401322Y0029169D02*
X0401322Y0031370D01*
X0402789Y0031370D01*
X0402055Y0030269D02*
X0401322Y0030269D01*
X0398001Y0029535D02*
X0397634Y0029169D01*
X0396900Y0029169D01*
X0396533Y0029535D01*
X0398001Y0031003D01*
X0398001Y0029535D01*
X0396533Y0029535D02*
X0396533Y0031003D01*
X0396900Y0031370D01*
X0397634Y0031370D01*
X0398001Y0031003D01*
X0394873Y0031370D02*
X0394139Y0030636D01*
X0394873Y0031370D02*
X0394873Y0029169D01*
X0394139Y0029169D02*
X0395607Y0029169D01*
X0388971Y0031331D02*
X0387503Y0031331D01*
X0387503Y0029129D01*
X0386576Y0029129D02*
X0386576Y0030597D01*
X0387503Y0030230D02*
X0388237Y0030230D01*
X0386576Y0029129D02*
X0385476Y0029129D01*
X0385109Y0029496D01*
X0385109Y0030597D01*
X0384182Y0030964D02*
X0382715Y0029496D01*
X0383081Y0029129D01*
X0383815Y0029129D01*
X0384182Y0029496D01*
X0384182Y0030964D01*
X0383815Y0031331D01*
X0383081Y0031331D01*
X0382715Y0030964D01*
X0382715Y0029496D01*
X0381788Y0029129D02*
X0380320Y0029129D01*
X0381054Y0029129D02*
X0381054Y0031331D01*
X0380320Y0030597D01*
X0372487Y0036039D02*
X0371019Y0036039D01*
X0371753Y0036039D02*
X0371753Y0038240D01*
X0371019Y0037506D01*
X0370093Y0038240D02*
X0368625Y0036773D01*
X0368992Y0037140D02*
X0370093Y0036039D01*
X0368625Y0036039D02*
X0368625Y0038240D01*
X0367699Y0038240D02*
X0366965Y0037873D01*
X0366231Y0037140D01*
X0367332Y0037140D01*
X0367699Y0036773D01*
X0367699Y0036406D01*
X0367332Y0036039D01*
X0366598Y0036039D01*
X0366231Y0036406D01*
X0366231Y0037140D01*
X0365304Y0036773D02*
X0365304Y0036406D01*
X0364937Y0036039D01*
X0364204Y0036039D01*
X0363837Y0036406D01*
X0364204Y0037140D02*
X0364937Y0037140D01*
X0365304Y0036773D01*
X0365304Y0037873D02*
X0364937Y0038240D01*
X0364204Y0038240D01*
X0363837Y0037873D01*
X0363837Y0037506D01*
X0364204Y0037140D01*
X0362910Y0037873D02*
X0362910Y0036406D01*
X0362543Y0036039D01*
X0361809Y0036039D01*
X0361443Y0036406D01*
X0361443Y0037873D01*
X0361809Y0038240D01*
X0362543Y0038240D01*
X0362910Y0037873D01*
X0362176Y0036773D02*
X0362910Y0036039D01*
X0363802Y0038988D02*
X0369707Y0038988D01*
X0382368Y0040047D02*
X0382368Y0041515D01*
X0382735Y0041882D01*
X0383469Y0041882D01*
X0383836Y0041515D01*
X0384762Y0041515D02*
X0385129Y0041882D01*
X0385863Y0041882D01*
X0386230Y0041515D01*
X0386230Y0041148D01*
X0384762Y0039680D01*
X0386230Y0039680D01*
X0387156Y0040047D02*
X0387523Y0039680D01*
X0388257Y0039680D01*
X0388624Y0040047D01*
X0388624Y0040414D01*
X0388257Y0040781D01*
X0387890Y0040781D01*
X0388257Y0040781D02*
X0388624Y0041148D01*
X0388624Y0041515D01*
X0388257Y0041882D01*
X0387523Y0041882D01*
X0387156Y0041515D01*
X0383836Y0040047D02*
X0383469Y0039680D01*
X0382735Y0039680D01*
X0382368Y0040047D01*
X0394927Y0040165D02*
X0395294Y0039798D01*
X0396028Y0039798D01*
X0396395Y0040165D01*
X0397321Y0039798D02*
X0398789Y0041266D01*
X0398789Y0041633D01*
X0398422Y0042000D01*
X0397688Y0042000D01*
X0397321Y0041633D01*
X0396395Y0041633D02*
X0396028Y0042000D01*
X0395294Y0042000D01*
X0394927Y0041633D01*
X0394927Y0040165D01*
X0397321Y0039798D02*
X0398789Y0039798D01*
X0399715Y0040899D02*
X0401183Y0040899D01*
X0400816Y0039798D02*
X0400816Y0042000D01*
X0399715Y0040899D01*
X0398597Y0049976D02*
X0398597Y0051444D01*
X0398597Y0050710D02*
X0400798Y0050710D01*
X0400798Y0052370D02*
X0398597Y0052370D01*
X0398597Y0053471D01*
X0398964Y0053838D01*
X0399697Y0053838D01*
X0400064Y0053471D01*
X0400064Y0052370D01*
X0400431Y0054764D02*
X0400798Y0055131D01*
X0400798Y0055865D01*
X0400431Y0056232D01*
X0400064Y0056232D01*
X0399697Y0055865D01*
X0399697Y0055131D01*
X0399331Y0054764D01*
X0398964Y0054764D01*
X0398597Y0055131D01*
X0398597Y0055865D01*
X0398964Y0056232D01*
X0398597Y0057158D02*
X0398597Y0058626D01*
X0398964Y0058626D01*
X0400431Y0057158D01*
X0400798Y0057158D01*
X0400798Y0059552D02*
X0399331Y0059552D01*
X0398597Y0060286D01*
X0399331Y0061020D01*
X0400798Y0061020D01*
X0399697Y0061020D02*
X0399697Y0059552D01*
X0399697Y0061946D02*
X0399697Y0063414D01*
X0399331Y0064340D02*
X0399697Y0064707D01*
X0399697Y0065808D01*
X0398964Y0065808D02*
X0398597Y0065441D01*
X0398597Y0064707D01*
X0398964Y0064340D01*
X0399331Y0064340D01*
X0400431Y0064340D02*
X0400798Y0064707D01*
X0400798Y0065441D01*
X0400431Y0065808D01*
X0398964Y0065808D01*
X0398597Y0063047D02*
X0399697Y0061946D01*
X0398597Y0063047D02*
X0400798Y0063047D01*
X0383459Y0058745D02*
X0381991Y0060213D01*
X0381624Y0060213D01*
X0381624Y0058745D01*
X0381991Y0057819D02*
X0381624Y0057452D01*
X0381624Y0056718D01*
X0381991Y0056351D01*
X0383459Y0056351D01*
X0383826Y0056718D01*
X0383826Y0057452D01*
X0383459Y0057819D01*
X0383459Y0058745D02*
X0383826Y0058745D01*
X0376953Y0059164D02*
X0375485Y0059164D01*
X0375485Y0056962D01*
X0374559Y0056962D02*
X0374559Y0058430D01*
X0375485Y0058063D02*
X0376219Y0058063D01*
X0374559Y0056962D02*
X0373458Y0056962D01*
X0373091Y0057329D01*
X0373091Y0058430D01*
X0372165Y0058797D02*
X0370697Y0057329D01*
X0371064Y0056962D01*
X0371798Y0056962D01*
X0372165Y0057329D01*
X0372165Y0058797D01*
X0371798Y0059164D01*
X0371064Y0059164D01*
X0370697Y0058797D01*
X0370697Y0057329D01*
X0369771Y0056962D02*
X0368303Y0056962D01*
X0369037Y0056962D02*
X0369037Y0059164D01*
X0368303Y0058430D01*
X0358112Y0056725D02*
X0358112Y0054523D01*
X0356644Y0054523D02*
X0356644Y0056725D01*
X0357378Y0055991D01*
X0358112Y0056725D01*
X0355718Y0056358D02*
X0354250Y0054890D01*
X0354617Y0054523D01*
X0355351Y0054523D01*
X0355718Y0054890D01*
X0355718Y0056358D01*
X0355351Y0056725D01*
X0354617Y0056725D01*
X0354250Y0056358D01*
X0354250Y0054890D01*
X0353324Y0054523D02*
X0351856Y0054523D01*
X0352590Y0054523D02*
X0352590Y0056725D01*
X0351856Y0055991D01*
X0342175Y0055583D02*
X0340708Y0055583D01*
X0340708Y0053381D01*
X0339781Y0053381D02*
X0339781Y0054849D01*
X0340708Y0054482D02*
X0341441Y0054482D01*
X0338680Y0053381D02*
X0338313Y0053748D01*
X0338313Y0054849D01*
X0337387Y0055216D02*
X0335919Y0053748D01*
X0335919Y0053381D01*
X0335089Y0053381D02*
X0334722Y0053381D01*
X0334722Y0053748D01*
X0335089Y0053748D01*
X0335089Y0053381D01*
X0333429Y0053381D02*
X0333429Y0055583D01*
X0332328Y0054482D01*
X0333796Y0054482D01*
X0335919Y0055583D02*
X0337387Y0055583D01*
X0337387Y0055216D01*
X0338680Y0053381D02*
X0339781Y0053381D01*
X0340964Y0050307D02*
X0342065Y0050307D01*
X0342432Y0049940D01*
X0342432Y0049573D01*
X0342065Y0049206D01*
X0340964Y0049206D01*
X0340964Y0048106D02*
X0342065Y0048106D01*
X0342432Y0048472D01*
X0342432Y0048839D01*
X0342065Y0049206D01*
X0343358Y0048472D02*
X0343725Y0048106D01*
X0344459Y0048106D01*
X0344826Y0048472D01*
X0344826Y0049940D01*
X0344459Y0050307D01*
X0343725Y0050307D01*
X0343358Y0049940D01*
X0343358Y0048472D01*
X0344092Y0048839D02*
X0344826Y0048106D01*
X0345752Y0048106D02*
X0347220Y0049573D01*
X0347220Y0049940D01*
X0346853Y0050307D01*
X0346119Y0050307D01*
X0345752Y0049940D01*
X0348146Y0049940D02*
X0348146Y0049573D01*
X0348513Y0049206D01*
X0349614Y0049206D01*
X0349614Y0048472D02*
X0349614Y0049940D01*
X0349247Y0050307D01*
X0348513Y0050307D01*
X0348146Y0049940D01*
X0350540Y0050307D02*
X0352008Y0050307D01*
X0352008Y0049940D01*
X0350540Y0048472D01*
X0350540Y0048106D01*
X0349614Y0048472D02*
X0349247Y0048106D01*
X0348513Y0048106D01*
X0348146Y0048472D01*
X0347220Y0048106D02*
X0345752Y0048106D01*
X0340964Y0048106D02*
X0340964Y0050307D01*
X0352934Y0050307D02*
X0354402Y0048106D01*
X0352934Y0048106D02*
X0354402Y0050307D01*
X0363802Y0050012D02*
X0369707Y0050012D01*
X0369263Y0051393D02*
X0367795Y0051393D01*
X0368529Y0051393D02*
X0368529Y0053595D01*
X0367795Y0052861D01*
X0366869Y0053228D02*
X0366502Y0053595D01*
X0365768Y0053595D01*
X0365401Y0053228D01*
X0365401Y0051760D01*
X0365768Y0051393D01*
X0366502Y0051393D01*
X0366869Y0051760D01*
X0364539Y0051393D02*
X0363805Y0051393D01*
X0364172Y0051393D02*
X0364172Y0053595D01*
X0363805Y0053595D02*
X0364539Y0053595D01*
X0370189Y0052861D02*
X0370923Y0053595D01*
X0370923Y0051393D01*
X0370189Y0051393D02*
X0371657Y0051393D01*
X0381624Y0054755D02*
X0381624Y0055489D01*
X0381624Y0055122D02*
X0383826Y0055122D01*
X0383826Y0054755D02*
X0383826Y0055489D01*
X0357718Y0062528D02*
X0357351Y0062161D01*
X0356617Y0062161D01*
X0356250Y0062528D01*
X0356250Y0062895D01*
X0356617Y0063262D01*
X0357351Y0063262D01*
X0357718Y0062895D01*
X0357718Y0062528D01*
X0357351Y0063262D02*
X0357718Y0063629D01*
X0357718Y0063996D01*
X0357351Y0064362D01*
X0356617Y0064362D01*
X0356250Y0063996D01*
X0356250Y0063629D01*
X0356617Y0063262D01*
X0355324Y0063629D02*
X0355324Y0063996D01*
X0354957Y0064362D01*
X0354223Y0064362D01*
X0353856Y0063996D01*
X0352930Y0063996D02*
X0352930Y0063262D01*
X0352563Y0062895D01*
X0351462Y0062895D01*
X0352196Y0062895D02*
X0352930Y0062161D01*
X0353856Y0062161D02*
X0355324Y0063629D01*
X0355324Y0062161D02*
X0353856Y0062161D01*
X0351462Y0062161D02*
X0351462Y0064362D01*
X0352563Y0064362D01*
X0352930Y0063996D01*
X0334647Y0063106D02*
X0333179Y0063106D01*
X0333913Y0063106D02*
X0333913Y0065307D01*
X0333179Y0064573D01*
X0332253Y0064573D02*
X0330785Y0063106D01*
X0332253Y0063106D01*
X0332253Y0064573D02*
X0332253Y0064940D01*
X0331886Y0065307D01*
X0331152Y0065307D01*
X0330785Y0064940D01*
X0329859Y0064940D02*
X0329492Y0065307D01*
X0328758Y0065307D01*
X0328391Y0064940D01*
X0328391Y0063472D01*
X0328758Y0063106D01*
X0329492Y0063106D01*
X0329859Y0063472D01*
X0316730Y0062536D02*
X0315262Y0061068D01*
X0315629Y0061435D02*
X0316730Y0060334D01*
X0315262Y0060334D02*
X0315262Y0062536D01*
X0314336Y0062536D02*
X0314336Y0062169D01*
X0312868Y0060701D01*
X0312868Y0060334D01*
X0312038Y0060334D02*
X0311671Y0060334D01*
X0311671Y0060701D01*
X0312038Y0060701D01*
X0312038Y0060334D01*
X0310378Y0060334D02*
X0310378Y0062536D01*
X0309277Y0061435D01*
X0310745Y0061435D01*
X0312868Y0062536D02*
X0314336Y0062536D01*
X0300379Y0065936D02*
X0298911Y0065936D01*
X0298911Y0063734D01*
X0297985Y0064101D02*
X0297618Y0063734D01*
X0296517Y0063734D01*
X0296517Y0063000D02*
X0296517Y0065202D01*
X0297618Y0065202D01*
X0297985Y0064835D01*
X0297985Y0064101D01*
X0298911Y0064835D02*
X0299645Y0064835D01*
X0295591Y0065202D02*
X0295591Y0065569D01*
X0295224Y0065936D01*
X0294490Y0065936D01*
X0294123Y0065569D01*
X0295591Y0065202D02*
X0294123Y0063734D01*
X0295591Y0063734D01*
X0293293Y0063734D02*
X0292926Y0063734D01*
X0292926Y0064101D01*
X0293293Y0064101D01*
X0293293Y0063734D01*
X0291999Y0063734D02*
X0290532Y0063734D01*
X0291999Y0065202D01*
X0291999Y0065569D01*
X0291632Y0065936D01*
X0290898Y0065936D01*
X0290532Y0065569D01*
X0307961Y0068104D02*
X0307961Y0070306D01*
X0309062Y0070306D01*
X0309429Y0069939D01*
X0309429Y0069205D01*
X0309062Y0068838D01*
X0307961Y0068838D01*
X0308695Y0068838D02*
X0309429Y0068104D01*
X0310355Y0068104D02*
X0311823Y0069572D01*
X0311823Y0069939D01*
X0311456Y0070306D01*
X0310722Y0070306D01*
X0310355Y0069939D01*
X0312749Y0069205D02*
X0314217Y0069205D01*
X0313850Y0070306D02*
X0312749Y0069205D01*
X0311823Y0068104D02*
X0310355Y0068104D01*
X0313850Y0068104D02*
X0313850Y0070306D01*
X0367880Y0069850D02*
X0368247Y0069483D01*
X0368980Y0069483D01*
X0369347Y0069850D01*
X0370274Y0069483D02*
X0371741Y0070951D01*
X0371741Y0071318D01*
X0371375Y0071685D01*
X0370641Y0071685D01*
X0370274Y0071318D01*
X0369347Y0071318D02*
X0368980Y0071685D01*
X0368247Y0071685D01*
X0367880Y0071318D01*
X0367880Y0069850D01*
X0370274Y0069483D02*
X0371741Y0069483D01*
X0372668Y0069850D02*
X0373035Y0069483D01*
X0373769Y0069483D01*
X0374136Y0069850D01*
X0374136Y0070217D01*
X0373769Y0070584D01*
X0372668Y0070584D01*
X0372668Y0069850D01*
X0372668Y0070584D02*
X0373402Y0071318D01*
X0374136Y0071685D01*
X0387752Y0075820D02*
X0389220Y0075820D01*
X0388486Y0075820D02*
X0388486Y0078022D01*
X0387752Y0077288D01*
X0390146Y0077655D02*
X0390146Y0076187D01*
X0391614Y0077655D01*
X0391614Y0076187D01*
X0391247Y0075820D01*
X0390513Y0075820D01*
X0390146Y0076187D01*
X0390146Y0077655D02*
X0390513Y0078022D01*
X0391247Y0078022D01*
X0391614Y0077655D01*
X0392540Y0077288D02*
X0393641Y0077288D01*
X0394008Y0076921D01*
X0394008Y0075820D01*
X0394934Y0075820D02*
X0394934Y0078022D01*
X0396402Y0078022D01*
X0395668Y0076921D02*
X0394934Y0076921D01*
X0392540Y0077288D02*
X0392540Y0075820D01*
X0376789Y0077925D02*
X0376789Y0079393D01*
X0375321Y0077925D01*
X0375688Y0077558D01*
X0376422Y0077558D01*
X0376789Y0077925D01*
X0375321Y0077925D02*
X0375321Y0079393D01*
X0375688Y0079760D01*
X0376422Y0079760D01*
X0376789Y0079393D01*
X0374395Y0079393D02*
X0374028Y0079760D01*
X0373294Y0079760D01*
X0372927Y0079393D01*
X0372927Y0079026D01*
X0373294Y0078659D01*
X0374395Y0078659D01*
X0374395Y0077925D02*
X0374395Y0079393D01*
X0374395Y0077925D02*
X0374028Y0077558D01*
X0373294Y0077558D01*
X0372927Y0077925D01*
X0372001Y0077925D02*
X0371634Y0077558D01*
X0370900Y0077558D01*
X0370533Y0077925D01*
X0371267Y0078659D02*
X0371634Y0078659D01*
X0372001Y0078292D01*
X0372001Y0077925D01*
X0371634Y0078659D02*
X0372001Y0079026D01*
X0372001Y0079393D01*
X0371634Y0079760D01*
X0370900Y0079760D01*
X0370533Y0079393D01*
X0370580Y0087006D02*
X0370580Y0089207D01*
X0371681Y0089207D01*
X0372048Y0088840D01*
X0372048Y0088106D01*
X0371681Y0087739D01*
X0370580Y0087739D01*
X0371314Y0087739D02*
X0372048Y0087006D01*
X0372974Y0087372D02*
X0373341Y0087006D01*
X0374075Y0087006D01*
X0374442Y0087372D01*
X0374442Y0088106D01*
X0374075Y0088473D01*
X0373708Y0088473D01*
X0372974Y0088106D01*
X0372974Y0089207D01*
X0374442Y0089207D01*
X0388965Y0088758D02*
X0388965Y0087290D01*
X0389332Y0086923D01*
X0390066Y0086923D01*
X0390433Y0087290D01*
X0391359Y0086923D02*
X0392827Y0088391D01*
X0392827Y0088758D01*
X0392460Y0089125D01*
X0391726Y0089125D01*
X0391359Y0088758D01*
X0390433Y0088758D02*
X0390066Y0089125D01*
X0389332Y0089125D01*
X0388965Y0088758D01*
X0391359Y0086923D02*
X0392827Y0086923D01*
X0393753Y0087290D02*
X0394120Y0086923D01*
X0394854Y0086923D01*
X0395221Y0087290D01*
X0395221Y0088024D01*
X0394854Y0088391D01*
X0394487Y0088391D01*
X0393753Y0088024D01*
X0393753Y0089125D01*
X0395221Y0089125D01*
X0251509Y0062344D02*
X0251509Y0061977D01*
X0251142Y0061610D01*
X0251509Y0061243D01*
X0251509Y0060876D01*
X0251142Y0060509D01*
X0250408Y0060509D01*
X0250041Y0060876D01*
X0249114Y0060509D02*
X0247647Y0060509D01*
X0247647Y0062711D01*
X0250041Y0062344D02*
X0250408Y0062711D01*
X0251142Y0062711D01*
X0251509Y0062344D01*
X0251142Y0061610D02*
X0250775Y0061610D01*
X0242863Y0054040D02*
X0243230Y0053673D01*
X0243230Y0053306D01*
X0242863Y0052939D01*
X0242129Y0052939D01*
X0241762Y0053306D01*
X0241762Y0053673D01*
X0242129Y0054040D01*
X0242863Y0054040D01*
X0242863Y0052939D02*
X0243230Y0052572D01*
X0243230Y0052205D01*
X0242863Y0051838D01*
X0242129Y0051838D01*
X0241762Y0052205D01*
X0241762Y0052572D01*
X0242129Y0052939D01*
X0240836Y0052939D02*
X0240469Y0052572D01*
X0239368Y0052572D01*
X0240102Y0052572D02*
X0240836Y0051838D01*
X0240836Y0052939D02*
X0240836Y0053673D01*
X0240469Y0054040D01*
X0239368Y0054040D01*
X0239368Y0051838D01*
X0212049Y0051791D02*
X0210581Y0050323D01*
X0210581Y0049956D01*
X0209655Y0049956D02*
X0208187Y0049956D01*
X0209655Y0051424D01*
X0209655Y0051791D01*
X0209288Y0052158D01*
X0208554Y0052158D01*
X0208187Y0051791D01*
X0207261Y0051791D02*
X0206894Y0052158D01*
X0206160Y0052158D01*
X0205793Y0051791D01*
X0205793Y0050323D01*
X0206160Y0049956D01*
X0206894Y0049956D01*
X0207261Y0050323D01*
X0210581Y0052158D02*
X0212049Y0052158D01*
X0212049Y0051791D01*
X0240443Y0042444D02*
X0241176Y0043177D01*
X0241176Y0040976D01*
X0240443Y0040976D02*
X0241910Y0040976D01*
X0242837Y0041343D02*
X0243204Y0040976D01*
X0243937Y0040976D01*
X0244304Y0041343D01*
X0244304Y0042077D01*
X0243937Y0042444D01*
X0243571Y0042444D01*
X0242837Y0042077D01*
X0242837Y0043177D01*
X0244304Y0043177D01*
X0245231Y0043177D02*
X0245231Y0040976D01*
X0245231Y0041710D02*
X0246332Y0040976D01*
X0245231Y0041710D02*
X0246332Y0042444D01*
X0264545Y0037968D02*
X0264912Y0038335D01*
X0265646Y0038335D01*
X0266013Y0037968D01*
X0266013Y0037601D01*
X0264545Y0036133D01*
X0266013Y0036133D01*
X0266939Y0036133D02*
X0267306Y0036133D01*
X0267306Y0036500D01*
X0266939Y0036500D01*
X0266939Y0036133D01*
X0268136Y0036133D02*
X0268136Y0036500D01*
X0269604Y0037968D01*
X0269604Y0038335D01*
X0268136Y0038335D01*
X0270530Y0037601D02*
X0270530Y0036500D01*
X0270897Y0036133D01*
X0271998Y0036133D01*
X0271998Y0037601D01*
X0272924Y0037234D02*
X0274392Y0037234D01*
X0274392Y0038335D02*
X0274392Y0036133D01*
X0272924Y0036133D02*
X0272924Y0038335D01*
X0294671Y0044330D02*
X0294671Y0046532D01*
X0295772Y0046532D01*
X0296139Y0046165D01*
X0296139Y0045431D01*
X0295772Y0045064D01*
X0294671Y0045064D01*
X0295405Y0045064D02*
X0296139Y0044330D01*
X0297065Y0044330D02*
X0298533Y0044330D01*
X0297799Y0044330D02*
X0297799Y0046532D01*
X0297065Y0045798D01*
X0299459Y0045798D02*
X0300193Y0046532D01*
X0300193Y0044330D01*
X0299459Y0044330D02*
X0300927Y0044330D01*
X0305435Y0044896D02*
X0307637Y0044896D01*
X0307637Y0044163D02*
X0307637Y0045630D01*
X0307270Y0046557D02*
X0305802Y0048024D01*
X0307270Y0048024D01*
X0307637Y0047657D01*
X0307637Y0046924D01*
X0307270Y0046557D01*
X0305802Y0046557D01*
X0305435Y0046924D01*
X0305435Y0047657D01*
X0305802Y0048024D01*
X0305435Y0044896D02*
X0306169Y0044163D01*
X0305802Y0043236D02*
X0305435Y0042869D01*
X0305435Y0042135D01*
X0305802Y0041768D01*
X0307270Y0041768D01*
X0307637Y0042135D01*
X0307637Y0042869D01*
X0307270Y0043236D01*
X0307637Y0040906D02*
X0307637Y0040172D01*
X0307637Y0040539D02*
X0305435Y0040539D01*
X0305435Y0040172D02*
X0305435Y0040906D01*
X0329257Y0038786D02*
X0329991Y0039520D01*
X0329991Y0037318D01*
X0329257Y0037318D02*
X0330725Y0037318D01*
X0331652Y0037685D02*
X0332019Y0037318D01*
X0332752Y0037318D01*
X0333119Y0037685D01*
X0333119Y0039153D01*
X0331652Y0037685D01*
X0331652Y0039153D01*
X0332019Y0039520D01*
X0332752Y0039520D01*
X0333119Y0039153D01*
X0334046Y0039520D02*
X0334780Y0038786D01*
X0335513Y0039520D01*
X0335513Y0037318D01*
X0334046Y0037318D02*
X0334046Y0039520D01*
X0346499Y0038833D02*
X0347233Y0038833D01*
X0346866Y0038833D02*
X0346866Y0036631D01*
X0346499Y0036631D02*
X0347233Y0036631D01*
X0348095Y0036998D02*
X0348462Y0036631D01*
X0349196Y0036631D01*
X0349563Y0036998D01*
X0350489Y0036998D02*
X0350489Y0037365D01*
X0350856Y0037732D01*
X0351590Y0037732D01*
X0351957Y0037365D01*
X0351957Y0036998D01*
X0351590Y0036631D01*
X0350856Y0036631D01*
X0350489Y0036998D01*
X0350856Y0037732D02*
X0350489Y0038099D01*
X0350489Y0038466D01*
X0350856Y0038833D01*
X0351590Y0038833D01*
X0351957Y0038466D01*
X0351957Y0038099D01*
X0351590Y0037732D01*
X0349563Y0038466D02*
X0349196Y0038833D01*
X0348462Y0038833D01*
X0348095Y0038466D01*
X0348095Y0036998D01*
X0336065Y0047066D02*
X0334597Y0045598D01*
X0334597Y0045231D01*
X0333671Y0045231D02*
X0332203Y0045231D01*
X0333671Y0046699D01*
X0333671Y0047066D01*
X0333304Y0047433D01*
X0332570Y0047433D01*
X0332203Y0047066D01*
X0331277Y0047066D02*
X0331277Y0046332D01*
X0330910Y0045965D01*
X0329809Y0045965D01*
X0329809Y0045231D02*
X0329809Y0047433D01*
X0330910Y0047433D01*
X0331277Y0047066D01*
X0330543Y0045965D02*
X0331277Y0045231D01*
X0334597Y0047433D02*
X0336065Y0047433D01*
X0336065Y0047066D01*
X0325359Y0052100D02*
X0323891Y0052100D01*
X0324625Y0052100D02*
X0324625Y0054302D01*
X0323891Y0053568D01*
X0322965Y0053568D02*
X0322598Y0053201D01*
X0322965Y0052834D01*
X0322965Y0052467D01*
X0322598Y0052100D01*
X0321864Y0052100D01*
X0321497Y0052467D01*
X0320571Y0052467D02*
X0320204Y0052100D01*
X0319470Y0052100D01*
X0319103Y0052467D01*
X0319103Y0052834D01*
X0319470Y0053201D01*
X0320204Y0053201D01*
X0320571Y0052834D01*
X0320571Y0052467D01*
X0320204Y0053201D02*
X0320571Y0053568D01*
X0320571Y0053935D01*
X0320204Y0054302D01*
X0319470Y0054302D01*
X0319103Y0053935D01*
X0319103Y0053568D01*
X0319470Y0053201D01*
X0318177Y0053568D02*
X0317810Y0053201D01*
X0318177Y0052834D01*
X0318177Y0052467D01*
X0317810Y0052100D01*
X0317076Y0052100D01*
X0316709Y0052467D01*
X0317443Y0053201D02*
X0317810Y0053201D01*
X0318177Y0053568D02*
X0318177Y0053935D01*
X0317810Y0054302D01*
X0317076Y0054302D01*
X0316709Y0053935D01*
X0315783Y0053935D02*
X0314315Y0052467D01*
X0314315Y0052100D01*
X0313389Y0053201D02*
X0313022Y0052834D01*
X0311921Y0052834D01*
X0311921Y0052100D02*
X0311921Y0054302D01*
X0313022Y0054302D01*
X0313389Y0053935D01*
X0313389Y0053201D01*
X0314315Y0054302D02*
X0315783Y0054302D01*
X0315783Y0053935D01*
X0310995Y0053935D02*
X0310628Y0054302D01*
X0309894Y0054302D01*
X0309527Y0053935D01*
X0309527Y0052467D01*
X0309894Y0052100D01*
X0310628Y0052100D01*
X0310995Y0052467D01*
X0308601Y0052100D02*
X0308601Y0054302D01*
X0307867Y0053568D01*
X0307133Y0054302D01*
X0307133Y0052100D01*
X0321497Y0053935D02*
X0321864Y0054302D01*
X0322598Y0054302D01*
X0322965Y0053935D01*
X0322965Y0053568D01*
X0322598Y0053201D02*
X0322231Y0053201D01*
X0334389Y0028084D02*
X0335123Y0027350D01*
X0328520Y0024483D02*
X0328520Y0023015D01*
X0328520Y0023749D02*
X0326319Y0023749D01*
X0327053Y0023015D01*
X0326319Y0022088D02*
X0326319Y0021355D01*
X0326319Y0021722D02*
X0328153Y0021722D01*
X0328520Y0021355D01*
X0328520Y0020988D01*
X0328153Y0020621D01*
X0334194Y0018303D02*
X0334561Y0018670D01*
X0335295Y0018670D01*
X0335662Y0018303D01*
X0335662Y0017936D01*
X0335295Y0017569D01*
X0335662Y0017202D01*
X0335662Y0016835D01*
X0335295Y0016468D01*
X0334561Y0016468D01*
X0334194Y0016835D01*
X0334928Y0017569D02*
X0335295Y0017569D01*
X0336589Y0018303D02*
X0336956Y0018670D01*
X0337689Y0018670D01*
X0338056Y0018303D01*
X0338056Y0017936D01*
X0337689Y0017569D01*
X0338056Y0017202D01*
X0338056Y0016835D01*
X0337689Y0016468D01*
X0336956Y0016468D01*
X0336589Y0016835D01*
X0337322Y0017569D02*
X0337689Y0017569D01*
X0338983Y0016835D02*
X0338983Y0018303D01*
X0339350Y0018670D01*
X0340084Y0018670D01*
X0340450Y0018303D01*
X0338983Y0016835D01*
X0339350Y0016468D01*
X0340084Y0016468D01*
X0340450Y0016835D01*
X0340450Y0018303D01*
X0347658Y0018364D02*
X0347658Y0016896D01*
X0349125Y0018364D01*
X0349125Y0016896D01*
X0348758Y0016529D01*
X0348024Y0016529D01*
X0347658Y0016896D01*
X0347658Y0018364D02*
X0348024Y0018731D01*
X0348758Y0018731D01*
X0349125Y0018364D01*
X0350052Y0016896D02*
X0350419Y0016896D01*
X0350419Y0016529D01*
X0350052Y0016529D01*
X0350052Y0016896D01*
X0351249Y0016529D02*
X0352716Y0016529D01*
X0351983Y0016529D02*
X0351983Y0018731D01*
X0351249Y0017997D01*
X0353643Y0017997D02*
X0353643Y0016896D01*
X0354010Y0016529D01*
X0355111Y0016529D01*
X0355111Y0017997D01*
X0356037Y0017630D02*
X0356771Y0017630D01*
X0356037Y0018731D02*
X0357505Y0018731D01*
X0356037Y0018731D02*
X0356037Y0016529D01*
X0363049Y0016135D02*
X0364517Y0017603D01*
X0364517Y0017970D01*
X0364150Y0018337D01*
X0363416Y0018337D01*
X0363049Y0017970D01*
X0366640Y0017970D02*
X0367007Y0018337D01*
X0367741Y0018337D01*
X0368108Y0017970D01*
X0368108Y0017603D01*
X0366640Y0016135D01*
X0368108Y0016135D01*
X0369034Y0016135D02*
X0369034Y0018337D01*
X0370135Y0017603D02*
X0369034Y0016869D01*
X0370135Y0016135D01*
X0365810Y0016135D02*
X0365443Y0016135D01*
X0365443Y0016502D01*
X0365810Y0016502D01*
X0365810Y0016135D01*
X0364517Y0016135D02*
X0363049Y0016135D01*
X0381206Y0016420D02*
X0381940Y0017154D01*
X0381940Y0014952D01*
X0381206Y0014952D02*
X0382674Y0014952D01*
X0383600Y0015319D02*
X0383967Y0014952D01*
X0384701Y0014952D01*
X0385068Y0015319D01*
X0385068Y0016787D01*
X0383600Y0015319D01*
X0383600Y0016787D01*
X0383967Y0017154D01*
X0384701Y0017154D01*
X0385068Y0016787D01*
X0385994Y0016787D02*
X0385994Y0015319D01*
X0387462Y0016787D01*
X0387462Y0015319D01*
X0387095Y0014952D01*
X0386361Y0014952D01*
X0385994Y0015319D01*
X0385994Y0016787D02*
X0386361Y0017154D01*
X0387095Y0017154D01*
X0387462Y0016787D01*
X0388388Y0017154D02*
X0388388Y0014952D01*
X0388388Y0015686D02*
X0389489Y0016420D01*
X0388388Y0015686D02*
X0389489Y0014952D01*
X0395793Y0014846D02*
X0397261Y0014846D01*
X0396527Y0014846D02*
X0396527Y0017048D01*
X0395793Y0016314D01*
X0398187Y0016314D02*
X0398921Y0017048D01*
X0398921Y0014846D01*
X0398187Y0014846D02*
X0399655Y0014846D01*
X0400581Y0014846D02*
X0400581Y0017048D01*
X0401682Y0016314D02*
X0400581Y0015580D01*
X0401682Y0014846D01*
X0320146Y0015894D02*
X0318678Y0015894D01*
X0319412Y0016628D02*
X0319412Y0015160D01*
X0309690Y0015835D02*
X0308222Y0015835D01*
X0212991Y0039169D02*
X0212991Y0041370D01*
X0214459Y0041370D01*
X0212065Y0040636D02*
X0212065Y0039169D01*
X0210964Y0039169D01*
X0210597Y0039535D01*
X0210597Y0040636D01*
X0209671Y0041003D02*
X0208203Y0039535D01*
X0208203Y0039169D01*
X0207373Y0039169D02*
X0207006Y0039169D01*
X0207006Y0039535D01*
X0207373Y0039535D01*
X0207373Y0039169D01*
X0205713Y0039169D02*
X0205713Y0041370D01*
X0204612Y0040269D01*
X0206080Y0040269D01*
X0209671Y0041003D02*
X0209671Y0041370D01*
X0208203Y0041370D01*
X0212991Y0040269D02*
X0213725Y0040269D01*
X0173839Y0049129D02*
X0173839Y0050597D01*
X0173105Y0051331D01*
X0172371Y0050597D01*
X0172371Y0049129D01*
X0171445Y0049129D02*
X0171445Y0050230D01*
X0171078Y0050597D01*
X0170711Y0050230D01*
X0170711Y0049129D01*
X0169977Y0049129D02*
X0169977Y0050597D01*
X0170344Y0050597D01*
X0170711Y0050230D01*
X0172371Y0050230D02*
X0173839Y0050230D01*
X0169051Y0049496D02*
X0168684Y0049129D01*
X0167950Y0049129D01*
X0167583Y0049496D01*
X0169051Y0050964D01*
X0169051Y0049496D01*
X0167583Y0049496D02*
X0167583Y0050964D01*
X0167950Y0051331D01*
X0168684Y0051331D01*
X0169051Y0050964D01*
X0166657Y0050964D02*
X0165189Y0049496D01*
X0165556Y0049129D01*
X0166290Y0049129D01*
X0166657Y0049496D01*
X0166657Y0050964D01*
X0166290Y0051331D01*
X0165556Y0051331D01*
X0165189Y0050964D01*
X0165189Y0049496D01*
X0164263Y0049496D02*
X0163896Y0049129D01*
X0163162Y0049129D01*
X0162795Y0049496D01*
X0162795Y0050230D02*
X0163529Y0050597D01*
X0163896Y0050597D01*
X0164263Y0050230D01*
X0164263Y0049496D01*
X0162795Y0050230D02*
X0162795Y0051331D01*
X0164263Y0051331D01*
X0161869Y0051331D02*
X0160401Y0049129D01*
X0159475Y0049129D02*
X0159475Y0051331D01*
X0159475Y0050230D02*
X0158007Y0050230D01*
X0157081Y0050597D02*
X0157081Y0049129D01*
X0155980Y0049129D01*
X0155613Y0049496D01*
X0155613Y0050597D01*
X0154687Y0050964D02*
X0153219Y0049496D01*
X0153586Y0049129D01*
X0154320Y0049129D01*
X0154687Y0049496D01*
X0154687Y0050964D01*
X0154320Y0051331D01*
X0153586Y0051331D01*
X0153219Y0050964D01*
X0153219Y0049496D01*
X0152293Y0049496D02*
X0151926Y0049129D01*
X0151192Y0049129D01*
X0150825Y0049496D01*
X0152293Y0050964D01*
X0152293Y0049496D01*
X0150825Y0049496D02*
X0150825Y0050964D01*
X0151192Y0051331D01*
X0151926Y0051331D01*
X0152293Y0050964D01*
X0149165Y0051331D02*
X0148431Y0050597D01*
X0149165Y0051331D02*
X0149165Y0049129D01*
X0148431Y0049129D02*
X0149899Y0049129D01*
X0158007Y0049129D02*
X0158007Y0051331D01*
X0142156Y0054382D02*
X0140688Y0054382D01*
X0140688Y0052180D01*
X0139762Y0052180D02*
X0139762Y0053648D01*
X0140688Y0053281D02*
X0141422Y0053281D01*
X0139762Y0052180D02*
X0138661Y0052180D01*
X0138294Y0052547D01*
X0138294Y0053648D01*
X0136634Y0054382D02*
X0136634Y0052180D01*
X0135900Y0052180D02*
X0137368Y0052180D01*
X0135070Y0052180D02*
X0134703Y0052180D01*
X0134703Y0052547D01*
X0135070Y0052547D01*
X0135070Y0052180D01*
X0133777Y0052547D02*
X0133410Y0052180D01*
X0132676Y0052180D01*
X0132309Y0052547D01*
X0133777Y0054015D01*
X0133777Y0052547D01*
X0133777Y0054015D02*
X0133410Y0054382D01*
X0132676Y0054382D01*
X0132309Y0054015D01*
X0132309Y0052547D01*
X0135900Y0053648D02*
X0136634Y0054382D01*
X0151974Y0045197D02*
X0152708Y0045197D01*
X0152341Y0045197D02*
X0152341Y0042995D01*
X0151974Y0042995D02*
X0152708Y0042995D01*
X0153570Y0043362D02*
X0153937Y0042995D01*
X0154671Y0042995D01*
X0155038Y0043362D01*
X0155964Y0042995D02*
X0157432Y0044463D01*
X0157432Y0044830D01*
X0157065Y0045197D01*
X0156331Y0045197D01*
X0155964Y0044830D01*
X0155038Y0044830D02*
X0154671Y0045197D01*
X0153937Y0045197D01*
X0153570Y0044830D01*
X0153570Y0043362D01*
X0155964Y0042995D02*
X0157432Y0042995D01*
X0130024Y0042517D02*
X0128556Y0042517D01*
X0130024Y0043985D01*
X0130024Y0044352D01*
X0129657Y0044719D01*
X0128923Y0044719D01*
X0128556Y0044352D01*
X0126896Y0044719D02*
X0126896Y0042517D01*
X0126162Y0042517D02*
X0127630Y0042517D01*
X0126162Y0043985D02*
X0126896Y0044719D01*
X0125236Y0044352D02*
X0124869Y0044719D01*
X0124135Y0044719D01*
X0123768Y0044352D01*
X0123768Y0042884D01*
X0124135Y0042517D01*
X0124869Y0042517D01*
X0125236Y0042884D01*
X0099943Y0043257D02*
X0098842Y0043991D01*
X0099943Y0044725D01*
X0098842Y0045459D02*
X0098842Y0043257D01*
X0097915Y0043257D02*
X0096448Y0043257D01*
X0097181Y0043257D02*
X0097181Y0045459D01*
X0096448Y0044725D01*
X0096540Y0054744D02*
X0095806Y0055478D01*
X0096173Y0055478D02*
X0095072Y0055478D01*
X0095072Y0054744D02*
X0095072Y0056946D01*
X0096173Y0056946D01*
X0096540Y0056579D01*
X0096540Y0055845D01*
X0096173Y0055478D01*
X0097466Y0054744D02*
X0098934Y0054744D01*
X0098200Y0054744D02*
X0098200Y0056946D01*
X0097466Y0056212D01*
X0099860Y0055845D02*
X0100594Y0056212D01*
X0100961Y0056212D01*
X0101328Y0055845D01*
X0101328Y0055111D01*
X0100961Y0054744D01*
X0100227Y0054744D01*
X0099860Y0055111D01*
X0099860Y0055845D02*
X0099860Y0056946D01*
X0101328Y0056946D01*
X0199918Y0086336D02*
X0199918Y0087804D01*
X0199918Y0088730D02*
X0199918Y0089464D01*
X0201019Y0088730D02*
X0198817Y0088730D01*
X0198817Y0090198D01*
X0209912Y0086449D02*
X0211380Y0086449D01*
X0093211Y0025228D02*
X0093213Y0025416D01*
X0093220Y0025605D01*
X0093232Y0025793D01*
X0093248Y0025980D01*
X0093269Y0026168D01*
X0093294Y0026354D01*
X0093324Y0026540D01*
X0093359Y0026726D01*
X0093398Y0026910D01*
X0093441Y0027093D01*
X0093489Y0027276D01*
X0093542Y0027457D01*
X0093598Y0027636D01*
X0093660Y0027814D01*
X0093725Y0027991D01*
X0093795Y0028166D01*
X0093870Y0028339D01*
X0093948Y0028510D01*
X0094031Y0028680D01*
X0094117Y0028847D01*
X0094208Y0029012D01*
X0094303Y0029175D01*
X0094402Y0029335D01*
X0094505Y0029493D01*
X0094611Y0029648D01*
X0094722Y0029801D01*
X0094836Y0029951D01*
X0094954Y0030098D01*
X0095075Y0030242D01*
X0095200Y0030384D01*
X0095328Y0030522D01*
X0095460Y0030656D01*
X0095594Y0030788D01*
X0095732Y0030916D01*
X0095874Y0031041D01*
X0096018Y0031162D01*
X0096165Y0031280D01*
X0096315Y0031394D01*
X0096468Y0031505D01*
X0096623Y0031611D01*
X0096781Y0031714D01*
X0096941Y0031813D01*
X0097104Y0031908D01*
X0097269Y0031999D01*
X0097436Y0032085D01*
X0097606Y0032168D01*
X0097777Y0032246D01*
X0097950Y0032321D01*
X0098125Y0032391D01*
X0098302Y0032456D01*
X0098480Y0032518D01*
X0098659Y0032574D01*
X0098840Y0032627D01*
X0099023Y0032675D01*
X0099206Y0032718D01*
X0099390Y0032757D01*
X0099576Y0032792D01*
X0099762Y0032822D01*
X0099948Y0032847D01*
X0100136Y0032868D01*
X0100323Y0032884D01*
X0100511Y0032896D01*
X0100700Y0032903D01*
X0100888Y0032905D01*
X0101076Y0032903D01*
X0101265Y0032896D01*
X0101453Y0032884D01*
X0101640Y0032868D01*
X0101828Y0032847D01*
X0102014Y0032822D01*
X0102200Y0032792D01*
X0102386Y0032757D01*
X0102570Y0032718D01*
X0102753Y0032675D01*
X0102936Y0032627D01*
X0103117Y0032574D01*
X0103296Y0032518D01*
X0103474Y0032456D01*
X0103651Y0032391D01*
X0103826Y0032321D01*
X0103999Y0032246D01*
X0104170Y0032168D01*
X0104340Y0032085D01*
X0104507Y0031999D01*
X0104672Y0031908D01*
X0104835Y0031813D01*
X0104995Y0031714D01*
X0105153Y0031611D01*
X0105308Y0031505D01*
X0105461Y0031394D01*
X0105611Y0031280D01*
X0105758Y0031162D01*
X0105902Y0031041D01*
X0106044Y0030916D01*
X0106182Y0030788D01*
X0106316Y0030656D01*
X0106448Y0030522D01*
X0106576Y0030384D01*
X0106701Y0030242D01*
X0106822Y0030098D01*
X0106940Y0029951D01*
X0107054Y0029801D01*
X0107165Y0029648D01*
X0107271Y0029493D01*
X0107374Y0029335D01*
X0107473Y0029175D01*
X0107568Y0029012D01*
X0107659Y0028847D01*
X0107745Y0028680D01*
X0107828Y0028510D01*
X0107906Y0028339D01*
X0107981Y0028166D01*
X0108051Y0027991D01*
X0108116Y0027814D01*
X0108178Y0027636D01*
X0108234Y0027457D01*
X0108287Y0027276D01*
X0108335Y0027093D01*
X0108378Y0026910D01*
X0108417Y0026726D01*
X0108452Y0026540D01*
X0108482Y0026354D01*
X0108507Y0026168D01*
X0108528Y0025980D01*
X0108544Y0025793D01*
X0108556Y0025605D01*
X0108563Y0025416D01*
X0108565Y0025228D01*
X0108563Y0025040D01*
X0108556Y0024851D01*
X0108544Y0024663D01*
X0108528Y0024476D01*
X0108507Y0024288D01*
X0108482Y0024102D01*
X0108452Y0023916D01*
X0108417Y0023730D01*
X0108378Y0023546D01*
X0108335Y0023363D01*
X0108287Y0023180D01*
X0108234Y0022999D01*
X0108178Y0022820D01*
X0108116Y0022642D01*
X0108051Y0022465D01*
X0107981Y0022290D01*
X0107906Y0022117D01*
X0107828Y0021946D01*
X0107745Y0021776D01*
X0107659Y0021609D01*
X0107568Y0021444D01*
X0107473Y0021281D01*
X0107374Y0021121D01*
X0107271Y0020963D01*
X0107165Y0020808D01*
X0107054Y0020655D01*
X0106940Y0020505D01*
X0106822Y0020358D01*
X0106701Y0020214D01*
X0106576Y0020072D01*
X0106448Y0019934D01*
X0106316Y0019800D01*
X0106182Y0019668D01*
X0106044Y0019540D01*
X0105902Y0019415D01*
X0105758Y0019294D01*
X0105611Y0019176D01*
X0105461Y0019062D01*
X0105308Y0018951D01*
X0105153Y0018845D01*
X0104995Y0018742D01*
X0104835Y0018643D01*
X0104672Y0018548D01*
X0104507Y0018457D01*
X0104340Y0018371D01*
X0104170Y0018288D01*
X0103999Y0018210D01*
X0103826Y0018135D01*
X0103651Y0018065D01*
X0103474Y0018000D01*
X0103296Y0017938D01*
X0103117Y0017882D01*
X0102936Y0017829D01*
X0102753Y0017781D01*
X0102570Y0017738D01*
X0102386Y0017699D01*
X0102200Y0017664D01*
X0102014Y0017634D01*
X0101828Y0017609D01*
X0101640Y0017588D01*
X0101453Y0017572D01*
X0101265Y0017560D01*
X0101076Y0017553D01*
X0100888Y0017551D01*
X0100700Y0017553D01*
X0100511Y0017560D01*
X0100323Y0017572D01*
X0100136Y0017588D01*
X0099948Y0017609D01*
X0099762Y0017634D01*
X0099576Y0017664D01*
X0099390Y0017699D01*
X0099206Y0017738D01*
X0099023Y0017781D01*
X0098840Y0017829D01*
X0098659Y0017882D01*
X0098480Y0017938D01*
X0098302Y0018000D01*
X0098125Y0018065D01*
X0097950Y0018135D01*
X0097777Y0018210D01*
X0097606Y0018288D01*
X0097436Y0018371D01*
X0097269Y0018457D01*
X0097104Y0018548D01*
X0096941Y0018643D01*
X0096781Y0018742D01*
X0096623Y0018845D01*
X0096468Y0018951D01*
X0096315Y0019062D01*
X0096165Y0019176D01*
X0096018Y0019294D01*
X0095874Y0019415D01*
X0095732Y0019540D01*
X0095594Y0019668D01*
X0095460Y0019800D01*
X0095328Y0019934D01*
X0095200Y0020072D01*
X0095075Y0020214D01*
X0094954Y0020358D01*
X0094836Y0020505D01*
X0094722Y0020655D01*
X0094611Y0020808D01*
X0094505Y0020963D01*
X0094402Y0021121D01*
X0094303Y0021281D01*
X0094208Y0021444D01*
X0094117Y0021609D01*
X0094031Y0021776D01*
X0093948Y0021946D01*
X0093870Y0022117D01*
X0093795Y0022290D01*
X0093725Y0022465D01*
X0093660Y0022642D01*
X0093598Y0022820D01*
X0093542Y0022999D01*
X0093489Y0023180D01*
X0093441Y0023363D01*
X0093398Y0023546D01*
X0093359Y0023730D01*
X0093324Y0023916D01*
X0093294Y0024102D01*
X0093269Y0024288D01*
X0093248Y0024476D01*
X0093232Y0024663D01*
X0093220Y0024851D01*
X0093213Y0025040D01*
X0093211Y0025228D01*
X0093999Y0021882D02*
X0094082Y0021715D01*
X0094169Y0021551D01*
X0094261Y0021388D01*
X0094356Y0021228D01*
X0094455Y0021071D01*
X0094558Y0020916D01*
X0094665Y0020763D01*
X0094776Y0020613D01*
X0094890Y0020466D01*
X0095007Y0020321D01*
X0095128Y0020180D01*
X0095253Y0020041D01*
X0095380Y0019906D01*
X0095511Y0019773D01*
X0095646Y0019644D01*
X0095783Y0019518D01*
X0095923Y0019396D01*
X0096067Y0019277D01*
X0096213Y0019161D01*
X0096362Y0019050D01*
X0096513Y0018941D01*
X0096667Y0018837D01*
X0096824Y0018736D01*
X0096983Y0018639D01*
X0097144Y0018546D01*
X0097308Y0018457D01*
X0097474Y0018372D01*
X0097641Y0018291D01*
X0097811Y0018214D01*
X0097983Y0018141D01*
X0098156Y0018073D01*
X0098331Y0018009D01*
X0098507Y0017949D01*
X0098685Y0017893D01*
X0098864Y0017841D01*
X0099044Y0017794D01*
X0099225Y0017752D01*
X0099407Y0017713D01*
X0099591Y0017680D01*
X0099774Y0017650D01*
X0099959Y0017626D01*
X0100144Y0017605D01*
X0100330Y0017589D01*
X0100516Y0017578D01*
X0100702Y0017571D01*
X0100888Y0017569D01*
X0101074Y0017571D01*
X0101260Y0017578D01*
X0101446Y0017589D01*
X0101632Y0017605D01*
X0101817Y0017626D01*
X0102002Y0017650D01*
X0102185Y0017680D01*
X0102369Y0017713D01*
X0102551Y0017752D01*
X0102732Y0017794D01*
X0102912Y0017841D01*
X0103091Y0017893D01*
X0103269Y0017949D01*
X0103445Y0018009D01*
X0103620Y0018073D01*
X0103793Y0018141D01*
X0103965Y0018214D01*
X0104135Y0018291D01*
X0104302Y0018372D01*
X0104468Y0018457D01*
X0104632Y0018546D01*
X0104793Y0018639D01*
X0104952Y0018736D01*
X0105109Y0018837D01*
X0105263Y0018941D01*
X0105414Y0019050D01*
X0105563Y0019161D01*
X0105709Y0019277D01*
X0105853Y0019396D01*
X0105993Y0019518D01*
X0106130Y0019644D01*
X0106265Y0019773D01*
X0106396Y0019906D01*
X0106523Y0020041D01*
X0106648Y0020180D01*
X0106769Y0020321D01*
X0106886Y0020466D01*
X0107000Y0020613D01*
X0107111Y0020763D01*
X0107218Y0020916D01*
X0107321Y0021071D01*
X0107420Y0021228D01*
X0107515Y0021388D01*
X0107607Y0021551D01*
X0107694Y0021715D01*
X0107777Y0021882D01*
X0107777Y0028574D02*
X0107694Y0028741D01*
X0107607Y0028905D01*
X0107515Y0029068D01*
X0107420Y0029228D01*
X0107321Y0029385D01*
X0107218Y0029540D01*
X0107111Y0029693D01*
X0107000Y0029843D01*
X0106886Y0029990D01*
X0106769Y0030135D01*
X0106648Y0030276D01*
X0106523Y0030415D01*
X0106396Y0030550D01*
X0106265Y0030683D01*
X0106130Y0030812D01*
X0105993Y0030938D01*
X0105853Y0031060D01*
X0105709Y0031179D01*
X0105563Y0031295D01*
X0105414Y0031406D01*
X0105263Y0031515D01*
X0105109Y0031619D01*
X0104952Y0031720D01*
X0104793Y0031817D01*
X0104632Y0031910D01*
X0104468Y0031999D01*
X0104302Y0032084D01*
X0104135Y0032165D01*
X0103965Y0032242D01*
X0103793Y0032315D01*
X0103620Y0032383D01*
X0103445Y0032447D01*
X0103269Y0032507D01*
X0103091Y0032563D01*
X0102912Y0032615D01*
X0102732Y0032662D01*
X0102551Y0032704D01*
X0102369Y0032743D01*
X0102185Y0032776D01*
X0102002Y0032806D01*
X0101817Y0032830D01*
X0101632Y0032851D01*
X0101446Y0032867D01*
X0101260Y0032878D01*
X0101074Y0032885D01*
X0100888Y0032887D01*
X0100702Y0032885D01*
X0100516Y0032878D01*
X0100330Y0032867D01*
X0100144Y0032851D01*
X0099959Y0032830D01*
X0099774Y0032806D01*
X0099591Y0032776D01*
X0099407Y0032743D01*
X0099225Y0032704D01*
X0099044Y0032662D01*
X0098864Y0032615D01*
X0098685Y0032563D01*
X0098507Y0032507D01*
X0098331Y0032447D01*
X0098156Y0032383D01*
X0097983Y0032315D01*
X0097811Y0032242D01*
X0097641Y0032165D01*
X0097474Y0032084D01*
X0097308Y0031999D01*
X0097144Y0031910D01*
X0096983Y0031817D01*
X0096824Y0031720D01*
X0096667Y0031619D01*
X0096513Y0031515D01*
X0096362Y0031406D01*
X0096213Y0031295D01*
X0096067Y0031179D01*
X0095923Y0031060D01*
X0095783Y0030938D01*
X0095646Y0030812D01*
X0095511Y0030683D01*
X0095380Y0030550D01*
X0095253Y0030415D01*
X0095128Y0030276D01*
X0095007Y0030135D01*
X0094890Y0029990D01*
X0094776Y0029843D01*
X0094665Y0029693D01*
X0094558Y0029540D01*
X0094455Y0029385D01*
X0094356Y0029228D01*
X0094261Y0029068D01*
X0094169Y0028905D01*
X0094082Y0028741D01*
X0093999Y0028574D01*
X0081340Y0028161D02*
X0081257Y0028328D01*
X0081170Y0028492D01*
X0081078Y0028655D01*
X0080983Y0028815D01*
X0080884Y0028972D01*
X0080781Y0029127D01*
X0080674Y0029280D01*
X0080563Y0029430D01*
X0080449Y0029577D01*
X0080332Y0029722D01*
X0080211Y0029863D01*
X0080086Y0030002D01*
X0079959Y0030137D01*
X0079828Y0030270D01*
X0079693Y0030399D01*
X0079556Y0030525D01*
X0079416Y0030647D01*
X0079272Y0030766D01*
X0079126Y0030882D01*
X0078977Y0030993D01*
X0078826Y0031102D01*
X0078672Y0031206D01*
X0078515Y0031307D01*
X0078356Y0031404D01*
X0078195Y0031497D01*
X0078031Y0031586D01*
X0077865Y0031671D01*
X0077698Y0031752D01*
X0077528Y0031829D01*
X0077356Y0031902D01*
X0077183Y0031970D01*
X0077008Y0032034D01*
X0076832Y0032094D01*
X0076654Y0032150D01*
X0076475Y0032202D01*
X0076295Y0032249D01*
X0076114Y0032291D01*
X0075932Y0032330D01*
X0075748Y0032363D01*
X0075565Y0032393D01*
X0075380Y0032417D01*
X0075195Y0032438D01*
X0075009Y0032454D01*
X0074823Y0032465D01*
X0074637Y0032472D01*
X0074451Y0032474D01*
X0074265Y0032472D01*
X0074079Y0032465D01*
X0073893Y0032454D01*
X0073707Y0032438D01*
X0073522Y0032417D01*
X0073337Y0032393D01*
X0073154Y0032363D01*
X0072970Y0032330D01*
X0072788Y0032291D01*
X0072607Y0032249D01*
X0072427Y0032202D01*
X0072248Y0032150D01*
X0072070Y0032094D01*
X0071894Y0032034D01*
X0071719Y0031970D01*
X0071546Y0031902D01*
X0071374Y0031829D01*
X0071204Y0031752D01*
X0071037Y0031671D01*
X0070871Y0031586D01*
X0070707Y0031497D01*
X0070546Y0031404D01*
X0070387Y0031307D01*
X0070230Y0031206D01*
X0070076Y0031102D01*
X0069925Y0030993D01*
X0069776Y0030882D01*
X0069630Y0030766D01*
X0069486Y0030647D01*
X0069346Y0030525D01*
X0069209Y0030399D01*
X0069074Y0030270D01*
X0068943Y0030137D01*
X0068816Y0030002D01*
X0068691Y0029863D01*
X0068570Y0029722D01*
X0068453Y0029577D01*
X0068339Y0029430D01*
X0068228Y0029280D01*
X0068121Y0029127D01*
X0068018Y0028972D01*
X0067919Y0028815D01*
X0067824Y0028655D01*
X0067732Y0028492D01*
X0067645Y0028328D01*
X0067562Y0028161D01*
D12*
X0186010Y0069323D02*
X0186010Y0087433D01*
X0187782Y0087433D01*
X0195656Y0087433D02*
X0197428Y0087433D01*
X0197428Y0069323D01*
X0195656Y0069323D01*
X0187782Y0069323D02*
X0186010Y0069323D01*
X0187782Y0082315D02*
X0195656Y0082315D01*
X0272195Y0077500D02*
X0272195Y0071201D01*
X0276132Y0071201D02*
X0279676Y0071201D01*
X0283613Y0071201D02*
X0283613Y0077500D01*
X0274518Y0062437D02*
X0254046Y0062437D01*
X0252983Y0061374D01*
X0252983Y0040902D01*
X0254046Y0039839D01*
X0274518Y0039839D01*
X0275581Y0040902D01*
X0275581Y0061374D01*
X0274518Y0062437D01*
X0385101Y0063894D02*
X0385101Y0051689D01*
X0397207Y0051689D01*
X0397207Y0063894D01*
X0385101Y0063894D01*
X0325081Y0025484D02*
X0322581Y0027984D01*
X0317581Y0027984D01*
X0315081Y0025484D01*
X0312581Y0027984D01*
X0307581Y0027984D01*
X0305081Y0025484D01*
X0305081Y0020484D01*
X0307581Y0017984D01*
X0312581Y0017984D01*
X0315081Y0020484D01*
X0317581Y0017984D01*
X0322581Y0017984D01*
X0325081Y0020484D01*
X0325081Y0025484D01*
D13*
X0387660Y0054248D03*
D14*
X0270691Y0033157D02*
X0270691Y0029220D01*
X0270691Y0033157D02*
X0266754Y0033157D01*
X0243132Y0033157D02*
X0239195Y0033157D01*
X0239223Y0033086D02*
X0239223Y0029220D01*
X0239195Y0029220D01*
X0239195Y0017409D02*
X0239195Y0013472D01*
X0270691Y0013472D02*
X0270691Y0017409D01*
D15*
X0354112Y0045331D03*
D16*
X0320494Y0046116D02*
X0320494Y0039735D01*
X0320013Y0039735D01*
X0316843Y0039735D02*
X0316469Y0039735D01*
X0313102Y0039735D02*
X0312729Y0039735D01*
X0309559Y0039735D02*
X0309077Y0039735D01*
X0309077Y0046116D01*
X0309559Y0046116D01*
X0312729Y0046116D02*
X0316843Y0046116D01*
X0320013Y0046116D02*
X0320494Y0046116D01*
X0162518Y0077327D02*
X0162518Y0083327D01*
X0162516Y0083387D01*
X0162511Y0083448D01*
X0162502Y0083507D01*
X0162489Y0083566D01*
X0162473Y0083625D01*
X0162453Y0083682D01*
X0162430Y0083737D01*
X0162403Y0083792D01*
X0162374Y0083844D01*
X0162341Y0083895D01*
X0162305Y0083944D01*
X0162267Y0083990D01*
X0162225Y0084034D01*
X0162181Y0084076D01*
X0162135Y0084114D01*
X0162086Y0084150D01*
X0162035Y0084183D01*
X0161983Y0084212D01*
X0161928Y0084239D01*
X0161873Y0084262D01*
X0161816Y0084282D01*
X0161757Y0084298D01*
X0161698Y0084311D01*
X0161639Y0084320D01*
X0161578Y0084325D01*
X0161518Y0084327D01*
X0151518Y0084327D01*
X0151458Y0084325D01*
X0151397Y0084320D01*
X0151338Y0084311D01*
X0151279Y0084298D01*
X0151220Y0084282D01*
X0151163Y0084262D01*
X0151108Y0084239D01*
X0151053Y0084212D01*
X0151001Y0084183D01*
X0150950Y0084150D01*
X0150901Y0084114D01*
X0150855Y0084076D01*
X0150811Y0084034D01*
X0150769Y0083990D01*
X0150731Y0083944D01*
X0150695Y0083895D01*
X0150662Y0083844D01*
X0150633Y0083792D01*
X0150606Y0083737D01*
X0150583Y0083682D01*
X0150563Y0083625D01*
X0150547Y0083566D01*
X0150534Y0083507D01*
X0150525Y0083448D01*
X0150520Y0083387D01*
X0150518Y0083327D01*
X0150518Y0077327D01*
X0150520Y0077267D01*
X0150525Y0077206D01*
X0150534Y0077147D01*
X0150547Y0077088D01*
X0150563Y0077029D01*
X0150583Y0076972D01*
X0150606Y0076917D01*
X0150633Y0076862D01*
X0150662Y0076810D01*
X0150695Y0076759D01*
X0150731Y0076710D01*
X0150769Y0076664D01*
X0150811Y0076620D01*
X0150855Y0076578D01*
X0150901Y0076540D01*
X0150950Y0076504D01*
X0151001Y0076471D01*
X0151053Y0076442D01*
X0151108Y0076415D01*
X0151163Y0076392D01*
X0151220Y0076372D01*
X0151279Y0076356D01*
X0151338Y0076343D01*
X0151397Y0076334D01*
X0151458Y0076329D01*
X0151518Y0076327D01*
X0161518Y0076327D01*
X0161578Y0076329D01*
X0161639Y0076334D01*
X0161698Y0076343D01*
X0161757Y0076356D01*
X0161816Y0076372D01*
X0161873Y0076392D01*
X0161928Y0076415D01*
X0161983Y0076442D01*
X0162035Y0076471D01*
X0162086Y0076504D01*
X0162135Y0076540D01*
X0162181Y0076578D01*
X0162225Y0076620D01*
X0162267Y0076664D01*
X0162305Y0076710D01*
X0162341Y0076759D01*
X0162374Y0076810D01*
X0162403Y0076862D01*
X0162430Y0076917D01*
X0162453Y0076972D01*
X0162473Y0077029D01*
X0162489Y0077088D01*
X0162502Y0077147D01*
X0162511Y0077206D01*
X0162516Y0077267D01*
X0162518Y0077327D01*
M02*
