G75*
%MOIN*%
%OFA0B0*%
%FSLAX25Y25*%
%IPPOS*%
%LPD*%
%AMOC8*
5,1,8,0,0,1.08239X$1,22.5*
%
%ADD10C,0.06600*%
%ADD11R,0.12000X0.12000*%
%ADD12R,0.08661X0.09843*%
%ADD13R,0.11024X0.09843*%
%ADD14R,0.09843X0.11024*%
%ADD15OC8,0.05200*%
%ADD16C,0.07400*%
%ADD17R,0.04724X0.05512*%
%ADD18C,0.02000*%
%ADD19C,0.02400*%
%ADD20C,0.01200*%
%ADD21C,0.02578*%
D10*
X0187227Y0018516D03*
X0195101Y0018516D03*
X0202975Y0018516D03*
X0210849Y0018516D03*
X0218723Y0018516D03*
X0226597Y0018516D03*
D11*
X0233683Y0061823D03*
X0180140Y0061823D03*
D12*
X0028172Y0036035D03*
X0020691Y0066350D03*
D13*
X0057306Y0066350D03*
D14*
X0073644Y0048240D03*
D15*
X0289195Y0030996D03*
X0289195Y0020996D03*
X0353770Y0073752D03*
X0353770Y0083752D03*
D16*
X0320781Y0022984D03*
X0309381Y0022984D03*
D17*
X0321872Y0070799D03*
X0312030Y0088122D03*
X0331715Y0088122D03*
D18*
X0353546Y0073464D02*
X0353770Y0073752D01*
X0353546Y0073464D02*
X0353546Y0068064D01*
X0349046Y0063564D01*
X0376496Y0063564D02*
X0332846Y0019914D01*
X0332396Y0019014D01*
X0324746Y0019014D01*
X0321146Y0022614D01*
X0320781Y0022984D01*
X0319796Y0022614D01*
X0316646Y0022614D01*
X0310796Y0016764D01*
X0281096Y0016764D01*
X0258596Y0039264D01*
X0254996Y0039264D01*
X0254096Y0039714D01*
X0248246Y0039714D01*
X0248246Y0041964D01*
X0248246Y0039714D02*
X0221696Y0039714D01*
X0208196Y0053214D01*
X0207296Y0053664D01*
X0200996Y0047364D01*
X0200096Y0047814D01*
X0179846Y0047814D01*
X0159596Y0068064D01*
X0159596Y0068964D01*
X0158696Y0072114D02*
X0141146Y0054564D01*
X0140696Y0053664D01*
X0140696Y0047364D01*
X0122246Y0038814D02*
X0115046Y0046014D01*
X0103796Y0046014D01*
X0073644Y0048240D02*
X0073196Y0047814D01*
X0068246Y0042864D01*
X0068246Y0040614D01*
X0067346Y0040164D01*
X0063296Y0036114D01*
X0028196Y0036114D01*
X0028172Y0036035D01*
X0073196Y0049164D02*
X0073644Y0048240D01*
X0073196Y0049164D02*
X0057446Y0064914D01*
X0057446Y0066264D01*
X0057306Y0066350D01*
X0023246Y0058614D02*
X0020996Y0060864D01*
X0020996Y0066264D01*
X0020691Y0066350D01*
X0122246Y0038814D02*
X0139346Y0038814D01*
X0142496Y0035664D01*
X0143396Y0035214D01*
X0156896Y0021714D01*
X0163646Y0021714D01*
X0164546Y0018564D02*
X0155096Y0018564D01*
X0138896Y0034764D01*
X0138446Y0035664D01*
X0128096Y0025314D01*
X0153296Y0016314D02*
X0153746Y0015864D01*
X0177596Y0015864D01*
X0185246Y0023514D01*
X0197846Y0023514D01*
X0202796Y0018564D01*
X0202975Y0018516D01*
X0218546Y0026214D02*
X0226196Y0018564D01*
X0226597Y0018516D01*
X0218546Y0026214D02*
X0172196Y0026214D01*
X0164546Y0018564D01*
X0153296Y0016314D02*
X0088946Y0016314D01*
X0207296Y0053664D02*
X0207296Y0068964D01*
X0158696Y0072114D02*
X0262196Y0072114D01*
X0263096Y0072564D01*
X0263546Y0071664D01*
X0304046Y0031164D01*
X0304046Y0020364D01*
X0376496Y0063564D02*
X0376496Y0071214D01*
X0263096Y0072564D02*
X0263096Y0078864D01*
D19*
X0088946Y0016314D03*
X0128096Y0025314D03*
X0163646Y0021714D03*
X0142496Y0035664D03*
X0138446Y0035664D03*
X0103796Y0046014D03*
X0068246Y0040614D03*
X0140696Y0047364D03*
X0140696Y0053664D03*
X0200996Y0047364D03*
X0248246Y0041964D03*
X0254096Y0039714D03*
X0304046Y0020364D03*
X0332396Y0019014D03*
X0344996Y0043314D03*
X0361196Y0058164D03*
X0349046Y0063564D03*
X0376496Y0071214D03*
X0284696Y0081564D03*
X0271196Y0081564D03*
X0263096Y0078864D03*
X0238796Y0080214D03*
X0263096Y0072564D03*
X0207296Y0068964D03*
X0159596Y0068964D03*
X0023246Y0058614D03*
D20*
X0238796Y0080214D02*
X0260846Y0080214D01*
X0262196Y0081564D01*
X0271196Y0081564D01*
X0284696Y0081564D01*
X0312030Y0088122D02*
X0312146Y0087864D01*
X0312146Y0025764D01*
X0309446Y0023064D01*
X0309381Y0022984D01*
X0352975Y0028752D02*
X0364786Y0028752D01*
X0378172Y0043713D01*
X0378565Y0043713D01*
X0344996Y0043314D02*
X0344996Y0058164D01*
X0361196Y0058164D01*
X0344996Y0058164D02*
X0334646Y0058164D01*
X0322046Y0070764D01*
X0321872Y0070799D01*
D21*
X0378172Y0043713D03*
X0352975Y0028752D03*
X0278565Y0036564D03*
M02*
