G75*
%MOIN*%
%OFA0B0*%
%FSLAX25Y25*%
%IPPOS*%
%LPD*%
%AMOC8*
5,1,8,0,0,1.08239X$1,22.5*
%
%ADD10C,0.00800*%
%ADD11C,0.00400*%
%ADD12C,0.00276*%
%ADD13R,0.03937X0.05906*%
%ADD14R,0.05906X0.05906*%
%ADD15C,0.00600*%
%ADD16C,0.01000*%
%ADD17C,0.00500*%
D10*
X0011243Y0039382D02*
X0011243Y0041350D01*
X0002384Y0041350D01*
X0001400Y0042335D01*
X0001400Y0060051D01*
X0002384Y0061035D01*
X0011243Y0061035D01*
X0011243Y0063004D01*
X0068329Y0063004D01*
X0068329Y0039382D01*
X0011243Y0039382D01*
X0011243Y0041350D02*
X0011243Y0061035D01*
X0182699Y0053358D02*
X0182699Y0025012D01*
X0184865Y0025012D01*
X0184865Y0022846D01*
X0228959Y0022846D01*
X0228959Y0025012D01*
X0231124Y0025012D01*
X0231124Y0053358D01*
X0197660Y0061823D02*
X0197663Y0062050D01*
X0197671Y0062277D01*
X0197685Y0062504D01*
X0197705Y0062730D01*
X0197730Y0062956D01*
X0197760Y0063181D01*
X0197796Y0063405D01*
X0197838Y0063628D01*
X0197885Y0063850D01*
X0197937Y0064071D01*
X0197995Y0064291D01*
X0198058Y0064509D01*
X0198127Y0064725D01*
X0198201Y0064940D01*
X0198280Y0065153D01*
X0198364Y0065364D01*
X0198454Y0065572D01*
X0198548Y0065779D01*
X0198648Y0065983D01*
X0198752Y0066184D01*
X0198862Y0066383D01*
X0198976Y0066579D01*
X0199095Y0066773D01*
X0199219Y0066963D01*
X0199348Y0067150D01*
X0199481Y0067334D01*
X0199618Y0067515D01*
X0199760Y0067692D01*
X0199906Y0067866D01*
X0200057Y0068036D01*
X0200211Y0068203D01*
X0200370Y0068365D01*
X0200532Y0068524D01*
X0200699Y0068678D01*
X0200869Y0068829D01*
X0201043Y0068975D01*
X0201220Y0069117D01*
X0201401Y0069254D01*
X0201585Y0069387D01*
X0201772Y0069516D01*
X0201962Y0069640D01*
X0202156Y0069759D01*
X0202352Y0069873D01*
X0202551Y0069983D01*
X0202752Y0070087D01*
X0202956Y0070187D01*
X0203163Y0070281D01*
X0203371Y0070371D01*
X0203582Y0070455D01*
X0203795Y0070534D01*
X0204010Y0070608D01*
X0204226Y0070677D01*
X0204444Y0070740D01*
X0204664Y0070798D01*
X0204885Y0070850D01*
X0205107Y0070897D01*
X0205330Y0070939D01*
X0205554Y0070975D01*
X0205779Y0071005D01*
X0206005Y0071030D01*
X0206231Y0071050D01*
X0206458Y0071064D01*
X0206685Y0071072D01*
X0206912Y0071075D01*
X0207139Y0071072D01*
X0207366Y0071064D01*
X0207593Y0071050D01*
X0207819Y0071030D01*
X0208045Y0071005D01*
X0208270Y0070975D01*
X0208494Y0070939D01*
X0208717Y0070897D01*
X0208939Y0070850D01*
X0209160Y0070798D01*
X0209380Y0070740D01*
X0209598Y0070677D01*
X0209814Y0070608D01*
X0210029Y0070534D01*
X0210242Y0070455D01*
X0210453Y0070371D01*
X0210661Y0070281D01*
X0210868Y0070187D01*
X0211072Y0070087D01*
X0211273Y0069983D01*
X0211472Y0069873D01*
X0211668Y0069759D01*
X0211862Y0069640D01*
X0212052Y0069516D01*
X0212239Y0069387D01*
X0212423Y0069254D01*
X0212604Y0069117D01*
X0212781Y0068975D01*
X0212955Y0068829D01*
X0213125Y0068678D01*
X0213292Y0068524D01*
X0213454Y0068365D01*
X0213613Y0068203D01*
X0213767Y0068036D01*
X0213918Y0067866D01*
X0214064Y0067692D01*
X0214206Y0067515D01*
X0214343Y0067334D01*
X0214476Y0067150D01*
X0214605Y0066963D01*
X0214729Y0066773D01*
X0214848Y0066579D01*
X0214962Y0066383D01*
X0215072Y0066184D01*
X0215176Y0065983D01*
X0215276Y0065779D01*
X0215370Y0065572D01*
X0215460Y0065364D01*
X0215544Y0065153D01*
X0215623Y0064940D01*
X0215697Y0064725D01*
X0215766Y0064509D01*
X0215829Y0064291D01*
X0215887Y0064071D01*
X0215939Y0063850D01*
X0215986Y0063628D01*
X0216028Y0063405D01*
X0216064Y0063181D01*
X0216094Y0062956D01*
X0216119Y0062730D01*
X0216139Y0062504D01*
X0216153Y0062277D01*
X0216161Y0062050D01*
X0216164Y0061823D01*
X0216161Y0061596D01*
X0216153Y0061369D01*
X0216139Y0061142D01*
X0216119Y0060916D01*
X0216094Y0060690D01*
X0216064Y0060465D01*
X0216028Y0060241D01*
X0215986Y0060018D01*
X0215939Y0059796D01*
X0215887Y0059575D01*
X0215829Y0059355D01*
X0215766Y0059137D01*
X0215697Y0058921D01*
X0215623Y0058706D01*
X0215544Y0058493D01*
X0215460Y0058282D01*
X0215370Y0058074D01*
X0215276Y0057867D01*
X0215176Y0057663D01*
X0215072Y0057462D01*
X0214962Y0057263D01*
X0214848Y0057067D01*
X0214729Y0056873D01*
X0214605Y0056683D01*
X0214476Y0056496D01*
X0214343Y0056312D01*
X0214206Y0056131D01*
X0214064Y0055954D01*
X0213918Y0055780D01*
X0213767Y0055610D01*
X0213613Y0055443D01*
X0213454Y0055281D01*
X0213292Y0055122D01*
X0213125Y0054968D01*
X0212955Y0054817D01*
X0212781Y0054671D01*
X0212604Y0054529D01*
X0212423Y0054392D01*
X0212239Y0054259D01*
X0212052Y0054130D01*
X0211862Y0054006D01*
X0211668Y0053887D01*
X0211472Y0053773D01*
X0211273Y0053663D01*
X0211072Y0053559D01*
X0210868Y0053459D01*
X0210661Y0053365D01*
X0210453Y0053275D01*
X0210242Y0053191D01*
X0210029Y0053112D01*
X0209814Y0053038D01*
X0209598Y0052969D01*
X0209380Y0052906D01*
X0209160Y0052848D01*
X0208939Y0052796D01*
X0208717Y0052749D01*
X0208494Y0052707D01*
X0208270Y0052671D01*
X0208045Y0052641D01*
X0207819Y0052616D01*
X0207593Y0052596D01*
X0207366Y0052582D01*
X0207139Y0052574D01*
X0206912Y0052571D01*
X0206685Y0052574D01*
X0206458Y0052582D01*
X0206231Y0052596D01*
X0206005Y0052616D01*
X0205779Y0052641D01*
X0205554Y0052671D01*
X0205330Y0052707D01*
X0205107Y0052749D01*
X0204885Y0052796D01*
X0204664Y0052848D01*
X0204444Y0052906D01*
X0204226Y0052969D01*
X0204010Y0053038D01*
X0203795Y0053112D01*
X0203582Y0053191D01*
X0203371Y0053275D01*
X0203163Y0053365D01*
X0202956Y0053459D01*
X0202752Y0053559D01*
X0202551Y0053663D01*
X0202352Y0053773D01*
X0202156Y0053887D01*
X0201962Y0054006D01*
X0201772Y0054130D01*
X0201585Y0054259D01*
X0201401Y0054392D01*
X0201220Y0054529D01*
X0201043Y0054671D01*
X0200869Y0054817D01*
X0200699Y0054968D01*
X0200532Y0055122D01*
X0200370Y0055281D01*
X0200211Y0055443D01*
X0200057Y0055610D01*
X0199906Y0055780D01*
X0199760Y0055954D01*
X0199618Y0056131D01*
X0199481Y0056312D01*
X0199348Y0056496D01*
X0199219Y0056683D01*
X0199095Y0056873D01*
X0198976Y0057067D01*
X0198862Y0057263D01*
X0198752Y0057462D01*
X0198648Y0057663D01*
X0198548Y0057867D01*
X0198454Y0058074D01*
X0198364Y0058282D01*
X0198280Y0058493D01*
X0198201Y0058706D01*
X0198127Y0058921D01*
X0198058Y0059137D01*
X0197995Y0059355D01*
X0197937Y0059575D01*
X0197885Y0059796D01*
X0197838Y0060018D01*
X0197796Y0060241D01*
X0197760Y0060465D01*
X0197730Y0060690D01*
X0197705Y0060916D01*
X0197685Y0061142D01*
X0197671Y0061369D01*
X0197663Y0061596D01*
X0197660Y0061823D01*
X0195495Y0061823D02*
X0195498Y0062103D01*
X0195509Y0062383D01*
X0195526Y0062663D01*
X0195550Y0062942D01*
X0195581Y0063221D01*
X0195619Y0063498D01*
X0195663Y0063775D01*
X0195714Y0064050D01*
X0195772Y0064324D01*
X0195837Y0064597D01*
X0195909Y0064868D01*
X0195987Y0065137D01*
X0196071Y0065404D01*
X0196162Y0065669D01*
X0196260Y0065932D01*
X0196364Y0066192D01*
X0196474Y0066450D01*
X0196591Y0066704D01*
X0196714Y0066956D01*
X0196843Y0067205D01*
X0196978Y0067450D01*
X0197119Y0067693D01*
X0197266Y0067931D01*
X0197419Y0068166D01*
X0197578Y0068397D01*
X0197742Y0068624D01*
X0197911Y0068847D01*
X0198087Y0069066D01*
X0198267Y0069280D01*
X0198453Y0069490D01*
X0198643Y0069695D01*
X0198839Y0069896D01*
X0199040Y0070092D01*
X0199245Y0070282D01*
X0199455Y0070468D01*
X0199669Y0070648D01*
X0199888Y0070824D01*
X0200111Y0070993D01*
X0200338Y0071157D01*
X0200569Y0071316D01*
X0200804Y0071469D01*
X0201042Y0071616D01*
X0201285Y0071757D01*
X0201530Y0071892D01*
X0201779Y0072021D01*
X0202031Y0072144D01*
X0202285Y0072261D01*
X0202543Y0072371D01*
X0202803Y0072475D01*
X0203066Y0072573D01*
X0203331Y0072664D01*
X0203598Y0072748D01*
X0203867Y0072826D01*
X0204138Y0072898D01*
X0204411Y0072963D01*
X0204685Y0073021D01*
X0204960Y0073072D01*
X0205237Y0073116D01*
X0205514Y0073154D01*
X0205793Y0073185D01*
X0206072Y0073209D01*
X0206352Y0073226D01*
X0206632Y0073237D01*
X0206912Y0073240D01*
X0207192Y0073237D01*
X0207472Y0073226D01*
X0207752Y0073209D01*
X0208031Y0073185D01*
X0208310Y0073154D01*
X0208587Y0073116D01*
X0208864Y0073072D01*
X0209139Y0073021D01*
X0209413Y0072963D01*
X0209686Y0072898D01*
X0209957Y0072826D01*
X0210226Y0072748D01*
X0210493Y0072664D01*
X0210758Y0072573D01*
X0211021Y0072475D01*
X0211281Y0072371D01*
X0211539Y0072261D01*
X0211793Y0072144D01*
X0212045Y0072021D01*
X0212294Y0071892D01*
X0212539Y0071757D01*
X0212782Y0071616D01*
X0213020Y0071469D01*
X0213255Y0071316D01*
X0213486Y0071157D01*
X0213713Y0070993D01*
X0213936Y0070824D01*
X0214155Y0070648D01*
X0214369Y0070468D01*
X0214579Y0070282D01*
X0214784Y0070092D01*
X0214985Y0069896D01*
X0215181Y0069695D01*
X0215371Y0069490D01*
X0215557Y0069280D01*
X0215737Y0069066D01*
X0215913Y0068847D01*
X0216082Y0068624D01*
X0216246Y0068397D01*
X0216405Y0068166D01*
X0216558Y0067931D01*
X0216705Y0067693D01*
X0216846Y0067450D01*
X0216981Y0067205D01*
X0217110Y0066956D01*
X0217233Y0066704D01*
X0217350Y0066450D01*
X0217460Y0066192D01*
X0217564Y0065932D01*
X0217662Y0065669D01*
X0217753Y0065404D01*
X0217837Y0065137D01*
X0217915Y0064868D01*
X0217987Y0064597D01*
X0218052Y0064324D01*
X0218110Y0064050D01*
X0218161Y0063775D01*
X0218205Y0063498D01*
X0218243Y0063221D01*
X0218274Y0062942D01*
X0218298Y0062663D01*
X0218315Y0062383D01*
X0218326Y0062103D01*
X0218329Y0061823D01*
X0218326Y0061543D01*
X0218315Y0061263D01*
X0218298Y0060983D01*
X0218274Y0060704D01*
X0218243Y0060425D01*
X0218205Y0060148D01*
X0218161Y0059871D01*
X0218110Y0059596D01*
X0218052Y0059322D01*
X0217987Y0059049D01*
X0217915Y0058778D01*
X0217837Y0058509D01*
X0217753Y0058242D01*
X0217662Y0057977D01*
X0217564Y0057714D01*
X0217460Y0057454D01*
X0217350Y0057196D01*
X0217233Y0056942D01*
X0217110Y0056690D01*
X0216981Y0056441D01*
X0216846Y0056196D01*
X0216705Y0055953D01*
X0216558Y0055715D01*
X0216405Y0055480D01*
X0216246Y0055249D01*
X0216082Y0055022D01*
X0215913Y0054799D01*
X0215737Y0054580D01*
X0215557Y0054366D01*
X0215371Y0054156D01*
X0215181Y0053951D01*
X0214985Y0053750D01*
X0214784Y0053554D01*
X0214579Y0053364D01*
X0214369Y0053178D01*
X0214155Y0052998D01*
X0213936Y0052822D01*
X0213713Y0052653D01*
X0213486Y0052489D01*
X0213255Y0052330D01*
X0213020Y0052177D01*
X0212782Y0052030D01*
X0212539Y0051889D01*
X0212294Y0051754D01*
X0212045Y0051625D01*
X0211793Y0051502D01*
X0211539Y0051385D01*
X0211281Y0051275D01*
X0211021Y0051171D01*
X0210758Y0051073D01*
X0210493Y0050982D01*
X0210226Y0050898D01*
X0209957Y0050820D01*
X0209686Y0050748D01*
X0209413Y0050683D01*
X0209139Y0050625D01*
X0208864Y0050574D01*
X0208587Y0050530D01*
X0208310Y0050492D01*
X0208031Y0050461D01*
X0207752Y0050437D01*
X0207472Y0050420D01*
X0207192Y0050409D01*
X0206912Y0050406D01*
X0206632Y0050409D01*
X0206352Y0050420D01*
X0206072Y0050437D01*
X0205793Y0050461D01*
X0205514Y0050492D01*
X0205237Y0050530D01*
X0204960Y0050574D01*
X0204685Y0050625D01*
X0204411Y0050683D01*
X0204138Y0050748D01*
X0203867Y0050820D01*
X0203598Y0050898D01*
X0203331Y0050982D01*
X0203066Y0051073D01*
X0202803Y0051171D01*
X0202543Y0051275D01*
X0202285Y0051385D01*
X0202031Y0051502D01*
X0201779Y0051625D01*
X0201530Y0051754D01*
X0201285Y0051889D01*
X0201042Y0052030D01*
X0200804Y0052177D01*
X0200569Y0052330D01*
X0200338Y0052489D01*
X0200111Y0052653D01*
X0199888Y0052822D01*
X0199669Y0052998D01*
X0199455Y0053178D01*
X0199245Y0053364D01*
X0199040Y0053554D01*
X0198839Y0053750D01*
X0198643Y0053951D01*
X0198453Y0054156D01*
X0198267Y0054366D01*
X0198087Y0054580D01*
X0197911Y0054799D01*
X0197742Y0055022D01*
X0197578Y0055249D01*
X0197419Y0055480D01*
X0197266Y0055715D01*
X0197119Y0055953D01*
X0196978Y0056196D01*
X0196843Y0056441D01*
X0196714Y0056690D01*
X0196591Y0056942D01*
X0196474Y0057196D01*
X0196364Y0057454D01*
X0196260Y0057714D01*
X0196162Y0057977D01*
X0196071Y0058242D01*
X0195987Y0058509D01*
X0195909Y0058778D01*
X0195837Y0059049D01*
X0195772Y0059322D01*
X0195714Y0059596D01*
X0195663Y0059871D01*
X0195619Y0060148D01*
X0195581Y0060425D01*
X0195550Y0060704D01*
X0195526Y0060983D01*
X0195509Y0061263D01*
X0195498Y0061543D01*
X0195495Y0061823D01*
X0182699Y0072256D02*
X0182699Y0084854D01*
X0184865Y0084854D01*
X0184865Y0087020D01*
X0228959Y0087020D01*
X0228959Y0084854D01*
X0231124Y0084854D01*
X0231124Y0072256D01*
D11*
X0027835Y0016893D02*
X0027502Y0017227D01*
X0027502Y0017894D01*
X0027835Y0018227D01*
X0028169Y0018227D01*
X0028502Y0017894D01*
X0028502Y0017560D01*
X0028502Y0017894D02*
X0028836Y0018227D01*
X0029170Y0018227D01*
X0029503Y0017894D01*
X0029503Y0017227D01*
X0029170Y0016893D01*
X0028502Y0019103D02*
X0028502Y0020437D01*
X0028169Y0021313D02*
X0028169Y0022314D01*
X0028502Y0022647D01*
X0029170Y0022647D01*
X0029503Y0022314D01*
X0029503Y0021313D01*
X0027502Y0021313D01*
X0028169Y0021980D02*
X0027502Y0022647D01*
X0027502Y0023523D02*
X0027502Y0024190D01*
X0027502Y0023856D02*
X0028836Y0023856D01*
X0028836Y0023523D01*
X0029503Y0023856D02*
X0029837Y0023856D01*
X0028836Y0024996D02*
X0027502Y0024996D01*
X0028836Y0024996D02*
X0028836Y0025997D01*
X0028502Y0026330D01*
X0027502Y0026330D01*
X0027835Y0027206D02*
X0027502Y0027539D01*
X0027502Y0028540D01*
X0027168Y0028540D02*
X0028836Y0028540D01*
X0028836Y0027539D01*
X0028502Y0027206D01*
X0027835Y0027206D01*
X0026834Y0027873D02*
X0026834Y0028207D01*
X0027168Y0028540D01*
X0041890Y0034947D02*
X0042257Y0034580D01*
X0042991Y0034580D01*
X0043358Y0034947D01*
X0042624Y0035681D02*
X0042257Y0035681D01*
X0041890Y0035314D01*
X0041890Y0034947D01*
X0042257Y0035681D02*
X0041890Y0036048D01*
X0041890Y0036415D01*
X0042257Y0036782D01*
X0042991Y0036782D01*
X0043358Y0036415D01*
X0044284Y0036782D02*
X0045018Y0036782D01*
X0044651Y0036782D02*
X0044651Y0034947D01*
X0045018Y0034580D01*
X0045385Y0034580D01*
X0045752Y0034947D01*
X0083002Y0043893D02*
X0083002Y0045227D01*
X0083002Y0046103D02*
X0083002Y0047437D01*
X0084003Y0048313D02*
X0084003Y0049647D01*
X0084003Y0048980D02*
X0082002Y0048980D01*
X0082002Y0050523D02*
X0082002Y0051190D01*
X0082002Y0050856D02*
X0083336Y0050856D01*
X0083336Y0050523D01*
X0084003Y0050856D02*
X0084337Y0050856D01*
X0083336Y0051996D02*
X0083336Y0052997D01*
X0083002Y0053330D01*
X0082335Y0053330D01*
X0082002Y0052997D01*
X0082002Y0051996D01*
X0081334Y0051996D02*
X0083336Y0051996D01*
X0084003Y0056416D02*
X0084003Y0057750D01*
X0084003Y0057083D02*
X0082002Y0057083D01*
X0082335Y0058625D02*
X0083002Y0058625D01*
X0083336Y0058959D01*
X0083336Y0059626D01*
X0083002Y0059960D01*
X0082669Y0059960D01*
X0082669Y0058625D01*
X0082335Y0058625D02*
X0082002Y0058959D01*
X0082002Y0059626D01*
X0082002Y0060835D02*
X0082002Y0061836D01*
X0082335Y0062170D01*
X0082669Y0061836D01*
X0082669Y0061169D01*
X0083002Y0060835D01*
X0083336Y0061169D01*
X0083336Y0062170D01*
X0083336Y0063045D02*
X0083336Y0063712D01*
X0083670Y0063379D02*
X0082335Y0063379D01*
X0082002Y0063712D01*
X0058503Y0074227D02*
X0058170Y0073893D01*
X0058503Y0074227D02*
X0058503Y0074894D01*
X0058170Y0075227D01*
X0057836Y0075227D01*
X0056502Y0073893D01*
X0056502Y0075227D01*
X0057502Y0076103D02*
X0057502Y0077437D01*
X0058503Y0078313D02*
X0058503Y0079647D01*
X0058503Y0078980D02*
X0056502Y0078980D01*
X0056502Y0080523D02*
X0056502Y0081190D01*
X0056502Y0080856D02*
X0057836Y0080856D01*
X0057836Y0080523D01*
X0058503Y0080856D02*
X0058837Y0080856D01*
X0057836Y0081996D02*
X0055834Y0081996D01*
X0056502Y0081996D02*
X0056502Y0082997D01*
X0056835Y0083330D01*
X0057502Y0083330D01*
X0057836Y0082997D01*
X0057836Y0081996D01*
X0022003Y0080356D02*
X0020002Y0080356D01*
X0020002Y0080023D02*
X0020002Y0080690D01*
X0020335Y0081496D02*
X0020002Y0081829D01*
X0020002Y0082497D01*
X0020669Y0082830D02*
X0020669Y0081496D01*
X0021002Y0081496D02*
X0021336Y0081829D01*
X0021336Y0082497D01*
X0021002Y0082830D01*
X0020669Y0082830D01*
X0020669Y0083706D02*
X0020669Y0085040D01*
X0021002Y0085040D01*
X0021336Y0084707D01*
X0021336Y0084039D01*
X0021002Y0083706D01*
X0020335Y0083706D01*
X0020002Y0084039D01*
X0020002Y0084707D01*
X0021336Y0085916D02*
X0020002Y0086583D01*
X0021336Y0087250D01*
X0021002Y0088125D02*
X0021336Y0088459D01*
X0021336Y0089126D01*
X0021002Y0089460D01*
X0020669Y0089460D01*
X0020669Y0088125D01*
X0021002Y0088125D02*
X0020335Y0088125D01*
X0020002Y0088459D01*
X0020002Y0089126D01*
X0020335Y0081496D02*
X0021002Y0081496D01*
X0022003Y0080356D02*
X0022003Y0080023D01*
X0021670Y0079147D02*
X0022003Y0078814D01*
X0022003Y0078146D01*
X0021670Y0077813D01*
X0021336Y0077813D01*
X0021002Y0078146D01*
X0021002Y0078814D01*
X0020669Y0079147D01*
X0020335Y0079147D01*
X0020002Y0078814D01*
X0020002Y0078146D01*
X0020335Y0077813D01*
X0021002Y0076937D02*
X0021002Y0075603D01*
X0020002Y0074727D02*
X0020002Y0073393D01*
X0020002Y0074060D02*
X0022003Y0074060D01*
X0021336Y0073393D01*
X0082002Y0044894D02*
X0084003Y0044894D01*
X0083002Y0043893D01*
X0186636Y0040957D02*
X0186638Y0041058D01*
X0186644Y0041159D01*
X0186654Y0041260D01*
X0186668Y0041360D01*
X0186686Y0041459D01*
X0186708Y0041558D01*
X0186733Y0041656D01*
X0186763Y0041753D01*
X0186796Y0041848D01*
X0186833Y0041942D01*
X0186874Y0042035D01*
X0186918Y0042126D01*
X0186966Y0042215D01*
X0187018Y0042302D01*
X0187073Y0042387D01*
X0187131Y0042469D01*
X0187192Y0042550D01*
X0187257Y0042628D01*
X0187324Y0042703D01*
X0187394Y0042775D01*
X0187468Y0042845D01*
X0187544Y0042912D01*
X0187622Y0042976D01*
X0187703Y0043036D01*
X0187786Y0043093D01*
X0187872Y0043147D01*
X0187960Y0043198D01*
X0188049Y0043245D01*
X0188140Y0043289D01*
X0188233Y0043328D01*
X0188328Y0043365D01*
X0188423Y0043397D01*
X0188520Y0043426D01*
X0188619Y0043450D01*
X0188717Y0043471D01*
X0188817Y0043488D01*
X0188917Y0043501D01*
X0189018Y0043510D01*
X0189119Y0043515D01*
X0189220Y0043516D01*
X0189321Y0043513D01*
X0189422Y0043506D01*
X0189523Y0043495D01*
X0189623Y0043480D01*
X0189722Y0043461D01*
X0189821Y0043438D01*
X0189918Y0043412D01*
X0190015Y0043381D01*
X0190110Y0043347D01*
X0190203Y0043309D01*
X0190296Y0043267D01*
X0190386Y0043222D01*
X0190475Y0043173D01*
X0190561Y0043121D01*
X0190645Y0043065D01*
X0190728Y0043006D01*
X0190807Y0042944D01*
X0190885Y0042879D01*
X0190959Y0042811D01*
X0191031Y0042739D01*
X0191100Y0042666D01*
X0191166Y0042589D01*
X0191229Y0042510D01*
X0191289Y0042428D01*
X0191345Y0042344D01*
X0191398Y0042258D01*
X0191448Y0042170D01*
X0191494Y0042080D01*
X0191537Y0041989D01*
X0191576Y0041895D01*
X0191611Y0041800D01*
X0191642Y0041704D01*
X0191670Y0041607D01*
X0191694Y0041509D01*
X0191714Y0041410D01*
X0191730Y0041310D01*
X0191742Y0041209D01*
X0191750Y0041109D01*
X0191754Y0041008D01*
X0191754Y0040906D01*
X0191750Y0040805D01*
X0191742Y0040705D01*
X0191730Y0040604D01*
X0191714Y0040504D01*
X0191694Y0040405D01*
X0191670Y0040307D01*
X0191642Y0040210D01*
X0191611Y0040114D01*
X0191576Y0040019D01*
X0191537Y0039925D01*
X0191494Y0039834D01*
X0191448Y0039744D01*
X0191398Y0039656D01*
X0191345Y0039570D01*
X0191289Y0039486D01*
X0191229Y0039404D01*
X0191166Y0039325D01*
X0191100Y0039248D01*
X0191031Y0039175D01*
X0190959Y0039103D01*
X0190885Y0039035D01*
X0190807Y0038970D01*
X0190728Y0038908D01*
X0190645Y0038849D01*
X0190561Y0038793D01*
X0190474Y0038741D01*
X0190386Y0038692D01*
X0190296Y0038647D01*
X0190203Y0038605D01*
X0190110Y0038567D01*
X0190015Y0038533D01*
X0189918Y0038502D01*
X0189821Y0038476D01*
X0189722Y0038453D01*
X0189623Y0038434D01*
X0189523Y0038419D01*
X0189422Y0038408D01*
X0189321Y0038401D01*
X0189220Y0038398D01*
X0189119Y0038399D01*
X0189018Y0038404D01*
X0188917Y0038413D01*
X0188817Y0038426D01*
X0188717Y0038443D01*
X0188619Y0038464D01*
X0188520Y0038488D01*
X0188423Y0038517D01*
X0188328Y0038549D01*
X0188233Y0038586D01*
X0188140Y0038625D01*
X0188049Y0038669D01*
X0187960Y0038716D01*
X0187872Y0038767D01*
X0187786Y0038821D01*
X0187703Y0038878D01*
X0187622Y0038938D01*
X0187544Y0039002D01*
X0187468Y0039069D01*
X0187394Y0039139D01*
X0187324Y0039211D01*
X0187257Y0039286D01*
X0187192Y0039364D01*
X0187131Y0039445D01*
X0187073Y0039527D01*
X0187018Y0039612D01*
X0186966Y0039699D01*
X0186918Y0039788D01*
X0186874Y0039879D01*
X0186833Y0039972D01*
X0186796Y0040066D01*
X0186763Y0040161D01*
X0186733Y0040258D01*
X0186708Y0040356D01*
X0186686Y0040455D01*
X0186668Y0040554D01*
X0186654Y0040654D01*
X0186644Y0040755D01*
X0186638Y0040856D01*
X0186636Y0040957D01*
X0222069Y0040957D02*
X0222071Y0041058D01*
X0222077Y0041159D01*
X0222087Y0041260D01*
X0222101Y0041360D01*
X0222119Y0041459D01*
X0222141Y0041558D01*
X0222166Y0041656D01*
X0222196Y0041753D01*
X0222229Y0041848D01*
X0222266Y0041942D01*
X0222307Y0042035D01*
X0222351Y0042126D01*
X0222399Y0042215D01*
X0222451Y0042302D01*
X0222506Y0042387D01*
X0222564Y0042469D01*
X0222625Y0042550D01*
X0222690Y0042628D01*
X0222757Y0042703D01*
X0222827Y0042775D01*
X0222901Y0042845D01*
X0222977Y0042912D01*
X0223055Y0042976D01*
X0223136Y0043036D01*
X0223219Y0043093D01*
X0223305Y0043147D01*
X0223393Y0043198D01*
X0223482Y0043245D01*
X0223573Y0043289D01*
X0223666Y0043328D01*
X0223761Y0043365D01*
X0223856Y0043397D01*
X0223953Y0043426D01*
X0224052Y0043450D01*
X0224150Y0043471D01*
X0224250Y0043488D01*
X0224350Y0043501D01*
X0224451Y0043510D01*
X0224552Y0043515D01*
X0224653Y0043516D01*
X0224754Y0043513D01*
X0224855Y0043506D01*
X0224956Y0043495D01*
X0225056Y0043480D01*
X0225155Y0043461D01*
X0225254Y0043438D01*
X0225351Y0043412D01*
X0225448Y0043381D01*
X0225543Y0043347D01*
X0225636Y0043309D01*
X0225729Y0043267D01*
X0225819Y0043222D01*
X0225908Y0043173D01*
X0225994Y0043121D01*
X0226078Y0043065D01*
X0226161Y0043006D01*
X0226240Y0042944D01*
X0226318Y0042879D01*
X0226392Y0042811D01*
X0226464Y0042739D01*
X0226533Y0042666D01*
X0226599Y0042589D01*
X0226662Y0042510D01*
X0226722Y0042428D01*
X0226778Y0042344D01*
X0226831Y0042258D01*
X0226881Y0042170D01*
X0226927Y0042080D01*
X0226970Y0041989D01*
X0227009Y0041895D01*
X0227044Y0041800D01*
X0227075Y0041704D01*
X0227103Y0041607D01*
X0227127Y0041509D01*
X0227147Y0041410D01*
X0227163Y0041310D01*
X0227175Y0041209D01*
X0227183Y0041109D01*
X0227187Y0041008D01*
X0227187Y0040906D01*
X0227183Y0040805D01*
X0227175Y0040705D01*
X0227163Y0040604D01*
X0227147Y0040504D01*
X0227127Y0040405D01*
X0227103Y0040307D01*
X0227075Y0040210D01*
X0227044Y0040114D01*
X0227009Y0040019D01*
X0226970Y0039925D01*
X0226927Y0039834D01*
X0226881Y0039744D01*
X0226831Y0039656D01*
X0226778Y0039570D01*
X0226722Y0039486D01*
X0226662Y0039404D01*
X0226599Y0039325D01*
X0226533Y0039248D01*
X0226464Y0039175D01*
X0226392Y0039103D01*
X0226318Y0039035D01*
X0226240Y0038970D01*
X0226161Y0038908D01*
X0226078Y0038849D01*
X0225994Y0038793D01*
X0225907Y0038741D01*
X0225819Y0038692D01*
X0225729Y0038647D01*
X0225636Y0038605D01*
X0225543Y0038567D01*
X0225448Y0038533D01*
X0225351Y0038502D01*
X0225254Y0038476D01*
X0225155Y0038453D01*
X0225056Y0038434D01*
X0224956Y0038419D01*
X0224855Y0038408D01*
X0224754Y0038401D01*
X0224653Y0038398D01*
X0224552Y0038399D01*
X0224451Y0038404D01*
X0224350Y0038413D01*
X0224250Y0038426D01*
X0224150Y0038443D01*
X0224052Y0038464D01*
X0223953Y0038488D01*
X0223856Y0038517D01*
X0223761Y0038549D01*
X0223666Y0038586D01*
X0223573Y0038625D01*
X0223482Y0038669D01*
X0223393Y0038716D01*
X0223305Y0038767D01*
X0223219Y0038821D01*
X0223136Y0038878D01*
X0223055Y0038938D01*
X0222977Y0039002D01*
X0222901Y0039069D01*
X0222827Y0039139D01*
X0222757Y0039211D01*
X0222690Y0039286D01*
X0222625Y0039364D01*
X0222564Y0039445D01*
X0222506Y0039527D01*
X0222451Y0039612D01*
X0222399Y0039699D01*
X0222351Y0039788D01*
X0222307Y0039879D01*
X0222266Y0039972D01*
X0222229Y0040066D01*
X0222196Y0040161D01*
X0222166Y0040258D01*
X0222141Y0040356D01*
X0222119Y0040455D01*
X0222101Y0040554D01*
X0222087Y0040654D01*
X0222077Y0040755D01*
X0222071Y0040856D01*
X0222069Y0040957D01*
X0276650Y0029407D02*
X0276650Y0029040D01*
X0276650Y0029407D02*
X0277016Y0029774D01*
X0278851Y0029774D01*
X0278851Y0028673D01*
X0278484Y0028306D01*
X0277750Y0028306D01*
X0277383Y0028673D01*
X0277383Y0029774D01*
X0277750Y0030700D02*
X0278484Y0030700D01*
X0278851Y0031067D01*
X0278851Y0031801D01*
X0278484Y0032168D01*
X0278117Y0032168D01*
X0278117Y0030700D01*
X0277750Y0030700D02*
X0277383Y0031067D01*
X0277383Y0031801D01*
X0278851Y0027412D02*
X0278851Y0027045D01*
X0278117Y0026311D01*
X0277383Y0026311D02*
X0278851Y0026311D01*
X0278484Y0025385D02*
X0277383Y0025385D01*
X0277383Y0024284D01*
X0277750Y0023917D01*
X0278117Y0024284D01*
X0278117Y0025385D01*
X0278484Y0025385D02*
X0278851Y0025018D01*
X0278851Y0024284D01*
X0278484Y0022991D02*
X0277383Y0022991D01*
X0278484Y0022991D02*
X0278851Y0022624D01*
X0278851Y0021890D01*
X0278484Y0021523D01*
X0279585Y0021523D02*
X0277383Y0021523D01*
X0277750Y0020597D02*
X0277383Y0020230D01*
X0277383Y0019496D01*
X0277750Y0019129D01*
X0279218Y0019129D01*
X0279585Y0019496D01*
X0279585Y0020230D01*
X0279218Y0020597D01*
X0288424Y0015040D02*
X0289892Y0015040D01*
X0289158Y0014306D02*
X0289158Y0015774D01*
X0299112Y0021102D02*
X0299112Y0022569D01*
X0299112Y0023496D02*
X0299112Y0024964D01*
X0299112Y0025890D02*
X0299112Y0026991D01*
X0299479Y0027358D01*
X0300947Y0027358D01*
X0301314Y0026991D01*
X0301314Y0025890D01*
X0299112Y0025890D01*
X0301314Y0024964D02*
X0301314Y0023496D01*
X0299112Y0023496D01*
X0300213Y0023496D02*
X0300213Y0024230D01*
X0301314Y0021102D02*
X0299112Y0021102D01*
X0300213Y0028284D02*
X0300213Y0029752D01*
X0299112Y0029385D02*
X0301314Y0029385D01*
X0300213Y0028284D01*
X0289118Y0035133D02*
X0289118Y0036601D01*
X0353810Y0068093D02*
X0353810Y0069561D01*
X0345269Y0073739D02*
X0343067Y0073739D01*
X0343801Y0073739D02*
X0343801Y0074840D01*
X0344168Y0075207D01*
X0344902Y0075207D01*
X0345269Y0074840D01*
X0345269Y0073739D01*
X0344168Y0076133D02*
X0343434Y0076133D01*
X0343067Y0076500D01*
X0343067Y0077234D01*
X0343434Y0077601D01*
X0344168Y0077601D01*
X0344535Y0077234D01*
X0344535Y0076500D01*
X0344168Y0076133D01*
X0344535Y0078527D02*
X0343434Y0078527D01*
X0343067Y0078894D01*
X0343434Y0079261D01*
X0343067Y0079628D01*
X0343434Y0079995D01*
X0344535Y0079995D01*
X0344168Y0080921D02*
X0344535Y0081288D01*
X0344535Y0082022D01*
X0344168Y0082389D01*
X0343801Y0082389D01*
X0343801Y0080921D01*
X0343434Y0080921D02*
X0344168Y0080921D01*
X0343434Y0080921D02*
X0343067Y0081288D01*
X0343067Y0082022D01*
X0343067Y0083315D02*
X0344535Y0083315D01*
X0343801Y0083315D02*
X0344535Y0084049D01*
X0344535Y0084416D01*
X0328722Y0087295D02*
X0327254Y0087295D01*
X0327254Y0089497D01*
X0327254Y0088396D02*
X0327988Y0088396D01*
X0326328Y0087295D02*
X0324860Y0087295D01*
X0324860Y0089497D01*
X0323934Y0089130D02*
X0323934Y0087662D01*
X0323567Y0087295D01*
X0322833Y0087295D01*
X0322466Y0087662D01*
X0322466Y0089130D01*
X0322833Y0089497D01*
X0323567Y0089497D01*
X0323934Y0089130D01*
X0324860Y0088396D02*
X0325594Y0088396D01*
X0319241Y0089497D02*
X0319241Y0087295D01*
X0317774Y0087295D02*
X0319241Y0089497D01*
X0317774Y0089497D02*
X0317774Y0087295D01*
X0316847Y0087662D02*
X0316480Y0087295D01*
X0315747Y0087295D01*
X0315380Y0087662D01*
X0315380Y0089130D01*
X0315747Y0089497D01*
X0316480Y0089497D01*
X0316847Y0089130D01*
X0316847Y0087662D01*
X0353233Y0089339D02*
X0354701Y0089339D01*
X0353967Y0088605D02*
X0353967Y0090073D01*
X0362941Y0083781D02*
X0362941Y0083047D01*
X0363308Y0082680D01*
X0363308Y0081754D02*
X0364776Y0081754D01*
X0365143Y0081387D01*
X0365143Y0080286D01*
X0362941Y0080286D01*
X0362941Y0081387D01*
X0363308Y0081754D01*
X0364776Y0082680D02*
X0365143Y0083047D01*
X0365143Y0083781D01*
X0364776Y0084148D01*
X0364409Y0084148D01*
X0364042Y0083781D01*
X0363675Y0084148D01*
X0363308Y0084148D01*
X0362941Y0083781D01*
X0364042Y0083781D02*
X0364042Y0083414D01*
X0365143Y0079360D02*
X0365143Y0077892D01*
X0362941Y0077892D01*
X0362941Y0079360D01*
X0364042Y0078626D02*
X0364042Y0077892D01*
X0362941Y0076966D02*
X0362941Y0075498D01*
X0365143Y0075498D01*
X0234768Y0075169D02*
X0234768Y0076270D01*
X0234401Y0076637D01*
X0233667Y0076637D01*
X0233300Y0076270D01*
X0233300Y0075169D01*
X0232566Y0075169D02*
X0234768Y0075169D01*
X0234401Y0077563D02*
X0232933Y0077563D01*
X0232566Y0077930D01*
X0232566Y0078664D01*
X0232933Y0079031D01*
X0234401Y0079031D01*
X0234768Y0078664D01*
X0234768Y0077930D01*
X0234401Y0077563D01*
X0234768Y0079957D02*
X0234768Y0081425D01*
X0234768Y0080691D02*
X0232566Y0080691D01*
X0232566Y0082351D02*
X0232566Y0083819D01*
X0232566Y0083085D02*
X0234768Y0083085D01*
X0234034Y0082351D01*
X0222069Y0082689D02*
X0222071Y0082790D01*
X0222077Y0082891D01*
X0222087Y0082992D01*
X0222101Y0083092D01*
X0222119Y0083191D01*
X0222141Y0083290D01*
X0222166Y0083388D01*
X0222196Y0083485D01*
X0222229Y0083580D01*
X0222266Y0083674D01*
X0222307Y0083767D01*
X0222351Y0083858D01*
X0222399Y0083947D01*
X0222451Y0084034D01*
X0222506Y0084119D01*
X0222564Y0084201D01*
X0222625Y0084282D01*
X0222690Y0084360D01*
X0222757Y0084435D01*
X0222827Y0084507D01*
X0222901Y0084577D01*
X0222977Y0084644D01*
X0223055Y0084708D01*
X0223136Y0084768D01*
X0223219Y0084825D01*
X0223305Y0084879D01*
X0223393Y0084930D01*
X0223482Y0084977D01*
X0223573Y0085021D01*
X0223666Y0085060D01*
X0223761Y0085097D01*
X0223856Y0085129D01*
X0223953Y0085158D01*
X0224052Y0085182D01*
X0224150Y0085203D01*
X0224250Y0085220D01*
X0224350Y0085233D01*
X0224451Y0085242D01*
X0224552Y0085247D01*
X0224653Y0085248D01*
X0224754Y0085245D01*
X0224855Y0085238D01*
X0224956Y0085227D01*
X0225056Y0085212D01*
X0225155Y0085193D01*
X0225254Y0085170D01*
X0225351Y0085144D01*
X0225448Y0085113D01*
X0225543Y0085079D01*
X0225636Y0085041D01*
X0225729Y0084999D01*
X0225819Y0084954D01*
X0225908Y0084905D01*
X0225994Y0084853D01*
X0226078Y0084797D01*
X0226161Y0084738D01*
X0226240Y0084676D01*
X0226318Y0084611D01*
X0226392Y0084543D01*
X0226464Y0084471D01*
X0226533Y0084398D01*
X0226599Y0084321D01*
X0226662Y0084242D01*
X0226722Y0084160D01*
X0226778Y0084076D01*
X0226831Y0083990D01*
X0226881Y0083902D01*
X0226927Y0083812D01*
X0226970Y0083721D01*
X0227009Y0083627D01*
X0227044Y0083532D01*
X0227075Y0083436D01*
X0227103Y0083339D01*
X0227127Y0083241D01*
X0227147Y0083142D01*
X0227163Y0083042D01*
X0227175Y0082941D01*
X0227183Y0082841D01*
X0227187Y0082740D01*
X0227187Y0082638D01*
X0227183Y0082537D01*
X0227175Y0082437D01*
X0227163Y0082336D01*
X0227147Y0082236D01*
X0227127Y0082137D01*
X0227103Y0082039D01*
X0227075Y0081942D01*
X0227044Y0081846D01*
X0227009Y0081751D01*
X0226970Y0081657D01*
X0226927Y0081566D01*
X0226881Y0081476D01*
X0226831Y0081388D01*
X0226778Y0081302D01*
X0226722Y0081218D01*
X0226662Y0081136D01*
X0226599Y0081057D01*
X0226533Y0080980D01*
X0226464Y0080907D01*
X0226392Y0080835D01*
X0226318Y0080767D01*
X0226240Y0080702D01*
X0226161Y0080640D01*
X0226078Y0080581D01*
X0225994Y0080525D01*
X0225907Y0080473D01*
X0225819Y0080424D01*
X0225729Y0080379D01*
X0225636Y0080337D01*
X0225543Y0080299D01*
X0225448Y0080265D01*
X0225351Y0080234D01*
X0225254Y0080208D01*
X0225155Y0080185D01*
X0225056Y0080166D01*
X0224956Y0080151D01*
X0224855Y0080140D01*
X0224754Y0080133D01*
X0224653Y0080130D01*
X0224552Y0080131D01*
X0224451Y0080136D01*
X0224350Y0080145D01*
X0224250Y0080158D01*
X0224150Y0080175D01*
X0224052Y0080196D01*
X0223953Y0080220D01*
X0223856Y0080249D01*
X0223761Y0080281D01*
X0223666Y0080318D01*
X0223573Y0080357D01*
X0223482Y0080401D01*
X0223393Y0080448D01*
X0223305Y0080499D01*
X0223219Y0080553D01*
X0223136Y0080610D01*
X0223055Y0080670D01*
X0222977Y0080734D01*
X0222901Y0080801D01*
X0222827Y0080871D01*
X0222757Y0080943D01*
X0222690Y0081018D01*
X0222625Y0081096D01*
X0222564Y0081177D01*
X0222506Y0081259D01*
X0222451Y0081344D01*
X0222399Y0081431D01*
X0222351Y0081520D01*
X0222307Y0081611D01*
X0222266Y0081704D01*
X0222229Y0081798D01*
X0222196Y0081893D01*
X0222166Y0081990D01*
X0222141Y0082088D01*
X0222119Y0082187D01*
X0222101Y0082286D01*
X0222087Y0082386D01*
X0222077Y0082487D01*
X0222071Y0082588D01*
X0222069Y0082689D01*
X0186636Y0082689D02*
X0186638Y0082790D01*
X0186644Y0082891D01*
X0186654Y0082992D01*
X0186668Y0083092D01*
X0186686Y0083191D01*
X0186708Y0083290D01*
X0186733Y0083388D01*
X0186763Y0083485D01*
X0186796Y0083580D01*
X0186833Y0083674D01*
X0186874Y0083767D01*
X0186918Y0083858D01*
X0186966Y0083947D01*
X0187018Y0084034D01*
X0187073Y0084119D01*
X0187131Y0084201D01*
X0187192Y0084282D01*
X0187257Y0084360D01*
X0187324Y0084435D01*
X0187394Y0084507D01*
X0187468Y0084577D01*
X0187544Y0084644D01*
X0187622Y0084708D01*
X0187703Y0084768D01*
X0187786Y0084825D01*
X0187872Y0084879D01*
X0187960Y0084930D01*
X0188049Y0084977D01*
X0188140Y0085021D01*
X0188233Y0085060D01*
X0188328Y0085097D01*
X0188423Y0085129D01*
X0188520Y0085158D01*
X0188619Y0085182D01*
X0188717Y0085203D01*
X0188817Y0085220D01*
X0188917Y0085233D01*
X0189018Y0085242D01*
X0189119Y0085247D01*
X0189220Y0085248D01*
X0189321Y0085245D01*
X0189422Y0085238D01*
X0189523Y0085227D01*
X0189623Y0085212D01*
X0189722Y0085193D01*
X0189821Y0085170D01*
X0189918Y0085144D01*
X0190015Y0085113D01*
X0190110Y0085079D01*
X0190203Y0085041D01*
X0190296Y0084999D01*
X0190386Y0084954D01*
X0190475Y0084905D01*
X0190561Y0084853D01*
X0190645Y0084797D01*
X0190728Y0084738D01*
X0190807Y0084676D01*
X0190885Y0084611D01*
X0190959Y0084543D01*
X0191031Y0084471D01*
X0191100Y0084398D01*
X0191166Y0084321D01*
X0191229Y0084242D01*
X0191289Y0084160D01*
X0191345Y0084076D01*
X0191398Y0083990D01*
X0191448Y0083902D01*
X0191494Y0083812D01*
X0191537Y0083721D01*
X0191576Y0083627D01*
X0191611Y0083532D01*
X0191642Y0083436D01*
X0191670Y0083339D01*
X0191694Y0083241D01*
X0191714Y0083142D01*
X0191730Y0083042D01*
X0191742Y0082941D01*
X0191750Y0082841D01*
X0191754Y0082740D01*
X0191754Y0082638D01*
X0191750Y0082537D01*
X0191742Y0082437D01*
X0191730Y0082336D01*
X0191714Y0082236D01*
X0191694Y0082137D01*
X0191670Y0082039D01*
X0191642Y0081942D01*
X0191611Y0081846D01*
X0191576Y0081751D01*
X0191537Y0081657D01*
X0191494Y0081566D01*
X0191448Y0081476D01*
X0191398Y0081388D01*
X0191345Y0081302D01*
X0191289Y0081218D01*
X0191229Y0081136D01*
X0191166Y0081057D01*
X0191100Y0080980D01*
X0191031Y0080907D01*
X0190959Y0080835D01*
X0190885Y0080767D01*
X0190807Y0080702D01*
X0190728Y0080640D01*
X0190645Y0080581D01*
X0190561Y0080525D01*
X0190474Y0080473D01*
X0190386Y0080424D01*
X0190296Y0080379D01*
X0190203Y0080337D01*
X0190110Y0080299D01*
X0190015Y0080265D01*
X0189918Y0080234D01*
X0189821Y0080208D01*
X0189722Y0080185D01*
X0189623Y0080166D01*
X0189523Y0080151D01*
X0189422Y0080140D01*
X0189321Y0080133D01*
X0189220Y0080130D01*
X0189119Y0080131D01*
X0189018Y0080136D01*
X0188917Y0080145D01*
X0188817Y0080158D01*
X0188717Y0080175D01*
X0188619Y0080196D01*
X0188520Y0080220D01*
X0188423Y0080249D01*
X0188328Y0080281D01*
X0188233Y0080318D01*
X0188140Y0080357D01*
X0188049Y0080401D01*
X0187960Y0080448D01*
X0187872Y0080499D01*
X0187786Y0080553D01*
X0187703Y0080610D01*
X0187622Y0080670D01*
X0187544Y0080734D01*
X0187468Y0080801D01*
X0187394Y0080871D01*
X0187324Y0080943D01*
X0187257Y0081018D01*
X0187192Y0081096D01*
X0187131Y0081177D01*
X0187073Y0081259D01*
X0187018Y0081344D01*
X0186966Y0081431D01*
X0186918Y0081520D01*
X0186874Y0081611D01*
X0186833Y0081704D01*
X0186796Y0081798D01*
X0186763Y0081893D01*
X0186733Y0081990D01*
X0186708Y0082088D01*
X0186686Y0082187D01*
X0186668Y0082286D01*
X0186654Y0082386D01*
X0186644Y0082487D01*
X0186638Y0082588D01*
X0186636Y0082689D01*
X0180615Y0081992D02*
X0178413Y0081992D01*
X0179147Y0081992D02*
X0180615Y0083460D01*
X0179514Y0082359D02*
X0178413Y0083460D01*
X0178780Y0081066D02*
X0178413Y0080699D01*
X0178413Y0079965D01*
X0178780Y0079598D01*
X0180248Y0081066D01*
X0178780Y0081066D01*
X0180248Y0081066D02*
X0180615Y0080699D01*
X0180615Y0079965D01*
X0180248Y0079598D01*
X0178780Y0079598D01*
X0178413Y0078672D02*
X0178413Y0077204D01*
X0178413Y0077938D02*
X0180615Y0077938D01*
X0179881Y0077204D01*
D12*
X0002384Y0061035D02*
X0002384Y0041350D01*
D13*
X0027778Y0036429D03*
X0020494Y0066154D03*
D14*
X0057306Y0066154D03*
X0071676Y0048240D03*
D15*
X0292795Y0021196D02*
X0292914Y0021288D01*
X0293031Y0021382D01*
X0293145Y0021480D01*
X0293257Y0021580D01*
X0293367Y0021684D01*
X0293473Y0021789D01*
X0293578Y0021898D01*
X0293679Y0022009D01*
X0293777Y0022123D01*
X0293873Y0022239D01*
X0293966Y0022357D01*
X0294055Y0022478D01*
X0294142Y0022601D01*
X0294225Y0022726D01*
X0294306Y0022853D01*
X0294383Y0022982D01*
X0294457Y0023113D01*
X0294528Y0023246D01*
X0294595Y0023380D01*
X0294659Y0023516D01*
X0294719Y0023654D01*
X0294776Y0023793D01*
X0294829Y0023934D01*
X0294879Y0024076D01*
X0294926Y0024219D01*
X0294968Y0024363D01*
X0295008Y0024508D01*
X0295043Y0024654D01*
X0295075Y0024801D01*
X0295103Y0024949D01*
X0295127Y0025097D01*
X0295148Y0025246D01*
X0295165Y0025396D01*
X0295178Y0025545D01*
X0295187Y0025695D01*
X0295193Y0025846D01*
X0295195Y0025996D01*
X0285512Y0021260D02*
X0285393Y0021354D01*
X0285277Y0021452D01*
X0285163Y0021552D01*
X0285052Y0021656D01*
X0284944Y0021762D01*
X0284838Y0021870D01*
X0284736Y0021982D01*
X0284636Y0022096D01*
X0284538Y0022212D01*
X0284444Y0022331D01*
X0284353Y0022452D01*
X0284265Y0022576D01*
X0284180Y0022702D01*
X0284099Y0022829D01*
X0284020Y0022959D01*
X0283945Y0023091D01*
X0283874Y0023224D01*
X0283805Y0023360D01*
X0283740Y0023497D01*
X0283679Y0023635D01*
X0283621Y0023776D01*
X0283567Y0023917D01*
X0283516Y0024060D01*
X0283469Y0024204D01*
X0283425Y0024349D01*
X0283386Y0024496D01*
X0283350Y0024643D01*
X0283317Y0024791D01*
X0283289Y0024940D01*
X0283264Y0025090D01*
X0283243Y0025240D01*
X0283226Y0025390D01*
X0283212Y0025542D01*
X0283203Y0025693D01*
X0283197Y0025844D01*
X0283195Y0025996D01*
X0292682Y0030878D02*
X0292807Y0030787D01*
X0292929Y0030693D01*
X0293048Y0030595D01*
X0293165Y0030495D01*
X0293279Y0030391D01*
X0293391Y0030285D01*
X0293499Y0030176D01*
X0293605Y0030064D01*
X0293708Y0029949D01*
X0293808Y0029832D01*
X0293906Y0029712D01*
X0293999Y0029590D01*
X0294090Y0029466D01*
X0294178Y0029339D01*
X0294262Y0029210D01*
X0294343Y0029078D01*
X0294420Y0028945D01*
X0294494Y0028810D01*
X0294565Y0028673D01*
X0294632Y0028534D01*
X0294695Y0028394D01*
X0294755Y0028251D01*
X0294811Y0028108D01*
X0294863Y0027963D01*
X0294912Y0027817D01*
X0294957Y0027669D01*
X0294998Y0027521D01*
X0295035Y0027371D01*
X0295069Y0027221D01*
X0295098Y0027069D01*
X0295124Y0026917D01*
X0295146Y0026765D01*
X0295163Y0026612D01*
X0295177Y0026458D01*
X0295187Y0026304D01*
X0295193Y0026150D01*
X0295195Y0025996D01*
X0285512Y0030732D02*
X0285393Y0030638D01*
X0285277Y0030540D01*
X0285163Y0030440D01*
X0285052Y0030336D01*
X0284944Y0030230D01*
X0284838Y0030122D01*
X0284736Y0030010D01*
X0284636Y0029896D01*
X0284538Y0029780D01*
X0284444Y0029661D01*
X0284353Y0029540D01*
X0284265Y0029416D01*
X0284180Y0029290D01*
X0284099Y0029163D01*
X0284020Y0029033D01*
X0283945Y0028901D01*
X0283874Y0028768D01*
X0283805Y0028632D01*
X0283740Y0028495D01*
X0283679Y0028357D01*
X0283621Y0028216D01*
X0283567Y0028075D01*
X0283516Y0027932D01*
X0283469Y0027788D01*
X0283425Y0027643D01*
X0283386Y0027496D01*
X0283350Y0027349D01*
X0283317Y0027201D01*
X0283289Y0027052D01*
X0283264Y0026902D01*
X0283243Y0026752D01*
X0283226Y0026602D01*
X0283212Y0026450D01*
X0283203Y0026299D01*
X0283197Y0026148D01*
X0283195Y0025996D01*
X0359770Y0078752D02*
X0359768Y0078904D01*
X0359762Y0079055D01*
X0359753Y0079206D01*
X0359739Y0079358D01*
X0359722Y0079508D01*
X0359701Y0079658D01*
X0359676Y0079808D01*
X0359648Y0079957D01*
X0359615Y0080105D01*
X0359579Y0080252D01*
X0359540Y0080399D01*
X0359496Y0080544D01*
X0359449Y0080688D01*
X0359398Y0080831D01*
X0359344Y0080972D01*
X0359286Y0081113D01*
X0359225Y0081251D01*
X0359160Y0081388D01*
X0359091Y0081524D01*
X0359020Y0081657D01*
X0358945Y0081789D01*
X0358866Y0081919D01*
X0358785Y0082046D01*
X0358700Y0082172D01*
X0358612Y0082296D01*
X0358521Y0082417D01*
X0358427Y0082536D01*
X0358329Y0082652D01*
X0358229Y0082766D01*
X0358127Y0082878D01*
X0358021Y0082986D01*
X0357913Y0083092D01*
X0357802Y0083196D01*
X0357688Y0083296D01*
X0357572Y0083394D01*
X0357453Y0083488D01*
X0347770Y0078752D02*
X0347772Y0078598D01*
X0347778Y0078444D01*
X0347788Y0078290D01*
X0347802Y0078136D01*
X0347819Y0077983D01*
X0347841Y0077831D01*
X0347867Y0077679D01*
X0347896Y0077527D01*
X0347930Y0077377D01*
X0347967Y0077227D01*
X0348008Y0077079D01*
X0348053Y0076931D01*
X0348102Y0076785D01*
X0348154Y0076640D01*
X0348210Y0076497D01*
X0348270Y0076354D01*
X0348333Y0076214D01*
X0348400Y0076075D01*
X0348471Y0075938D01*
X0348545Y0075803D01*
X0348622Y0075670D01*
X0348703Y0075538D01*
X0348787Y0075409D01*
X0348875Y0075282D01*
X0348966Y0075158D01*
X0349059Y0075036D01*
X0349157Y0074916D01*
X0349257Y0074799D01*
X0349360Y0074684D01*
X0349466Y0074572D01*
X0349574Y0074463D01*
X0349686Y0074357D01*
X0349800Y0074253D01*
X0349917Y0074153D01*
X0350036Y0074055D01*
X0350158Y0073961D01*
X0350283Y0073870D01*
X0347770Y0078752D02*
X0347772Y0078902D01*
X0347778Y0079053D01*
X0347787Y0079203D01*
X0347800Y0079352D01*
X0347817Y0079502D01*
X0347838Y0079651D01*
X0347862Y0079799D01*
X0347890Y0079947D01*
X0347922Y0080094D01*
X0347957Y0080240D01*
X0347997Y0080385D01*
X0348039Y0080529D01*
X0348086Y0080672D01*
X0348136Y0080814D01*
X0348189Y0080955D01*
X0348246Y0081094D01*
X0348306Y0081232D01*
X0348370Y0081368D01*
X0348437Y0081502D01*
X0348508Y0081635D01*
X0348582Y0081766D01*
X0348659Y0081895D01*
X0348740Y0082022D01*
X0348823Y0082147D01*
X0348910Y0082270D01*
X0348999Y0082391D01*
X0349092Y0082509D01*
X0349188Y0082625D01*
X0349286Y0082739D01*
X0349387Y0082850D01*
X0349492Y0082959D01*
X0349598Y0083064D01*
X0349708Y0083168D01*
X0349820Y0083268D01*
X0349934Y0083366D01*
X0350051Y0083460D01*
X0350170Y0083552D01*
X0359770Y0078752D02*
X0359768Y0078600D01*
X0359762Y0078449D01*
X0359753Y0078298D01*
X0359739Y0078146D01*
X0359722Y0077996D01*
X0359701Y0077846D01*
X0359676Y0077696D01*
X0359648Y0077547D01*
X0359615Y0077399D01*
X0359579Y0077252D01*
X0359540Y0077105D01*
X0359496Y0076960D01*
X0359449Y0076816D01*
X0359398Y0076673D01*
X0359344Y0076532D01*
X0359286Y0076391D01*
X0359225Y0076253D01*
X0359160Y0076116D01*
X0359091Y0075980D01*
X0359020Y0075847D01*
X0358945Y0075715D01*
X0358866Y0075585D01*
X0358785Y0075458D01*
X0358700Y0075332D01*
X0358612Y0075208D01*
X0358521Y0075087D01*
X0358427Y0074968D01*
X0358329Y0074852D01*
X0358229Y0074738D01*
X0358127Y0074626D01*
X0358021Y0074518D01*
X0357913Y0074412D01*
X0357802Y0074308D01*
X0357688Y0074208D01*
X0357572Y0074110D01*
X0357453Y0074016D01*
D16*
X0345770Y0078752D02*
X0345772Y0078944D01*
X0345779Y0079136D01*
X0345791Y0079328D01*
X0345807Y0079520D01*
X0345828Y0079711D01*
X0345853Y0079901D01*
X0345883Y0080091D01*
X0345917Y0080280D01*
X0345956Y0080468D01*
X0346000Y0080655D01*
X0346048Y0080841D01*
X0346100Y0081026D01*
X0346157Y0081210D01*
X0346218Y0081392D01*
X0346284Y0081572D01*
X0346354Y0081751D01*
X0346428Y0081929D01*
X0346506Y0082104D01*
X0346589Y0082278D01*
X0346676Y0082449D01*
X0346766Y0082618D01*
X0346861Y0082785D01*
X0346960Y0082950D01*
X0347063Y0083113D01*
X0347170Y0083272D01*
X0347280Y0083430D01*
X0347394Y0083584D01*
X0347512Y0083736D01*
X0347634Y0083885D01*
X0347759Y0084031D01*
X0347887Y0084173D01*
X0348019Y0084313D01*
X0348154Y0084450D01*
X0348293Y0084583D01*
X0348434Y0084713D01*
X0348579Y0084839D01*
X0348727Y0084962D01*
X0348877Y0085081D01*
X0349031Y0085197D01*
X0349187Y0085309D01*
X0349346Y0085417D01*
X0349507Y0085522D01*
X0349671Y0085622D01*
X0349837Y0085718D01*
X0350005Y0085811D01*
X0357739Y0085698D02*
X0357908Y0085599D01*
X0358074Y0085495D01*
X0358238Y0085388D01*
X0358399Y0085277D01*
X0358557Y0085162D01*
X0358712Y0085043D01*
X0358865Y0084920D01*
X0359014Y0084794D01*
X0359160Y0084664D01*
X0359303Y0084530D01*
X0359443Y0084393D01*
X0359579Y0084253D01*
X0359712Y0084109D01*
X0359841Y0083962D01*
X0359967Y0083812D01*
X0360088Y0083659D01*
X0360207Y0083503D01*
X0360321Y0083344D01*
X0360431Y0083183D01*
X0360537Y0083018D01*
X0360640Y0082852D01*
X0360738Y0082682D01*
X0360832Y0082511D01*
X0360922Y0082337D01*
X0361007Y0082161D01*
X0361089Y0081983D01*
X0361165Y0081803D01*
X0361238Y0081621D01*
X0361306Y0081438D01*
X0361369Y0081253D01*
X0361428Y0081066D01*
X0361482Y0080878D01*
X0361532Y0080689D01*
X0361577Y0080499D01*
X0361617Y0080307D01*
X0361653Y0080115D01*
X0361684Y0079922D01*
X0361710Y0079728D01*
X0361732Y0079533D01*
X0361748Y0079338D01*
X0361760Y0079143D01*
X0361768Y0078947D01*
X0361770Y0078752D01*
X0361768Y0078559D01*
X0361761Y0078366D01*
X0361749Y0078174D01*
X0361733Y0077981D01*
X0361712Y0077789D01*
X0361686Y0077598D01*
X0361656Y0077408D01*
X0361621Y0077218D01*
X0361582Y0077029D01*
X0361538Y0076841D01*
X0361490Y0076654D01*
X0361437Y0076468D01*
X0361380Y0076284D01*
X0361318Y0076101D01*
X0361252Y0075920D01*
X0361181Y0075740D01*
X0361107Y0075562D01*
X0361028Y0075386D01*
X0360944Y0075212D01*
X0360857Y0075040D01*
X0360765Y0074870D01*
X0360669Y0074703D01*
X0360570Y0074537D01*
X0360466Y0074374D01*
X0360359Y0074214D01*
X0360247Y0074057D01*
X0360132Y0073902D01*
X0360013Y0073750D01*
X0359891Y0073601D01*
X0359765Y0073454D01*
X0359635Y0073311D01*
X0359502Y0073171D01*
X0359366Y0073035D01*
X0359226Y0072901D01*
X0359084Y0072772D01*
X0358938Y0072645D01*
X0348648Y0072606D02*
X0348500Y0072733D01*
X0348355Y0072863D01*
X0348214Y0072996D01*
X0348075Y0073133D01*
X0347940Y0073273D01*
X0347809Y0073417D01*
X0347681Y0073564D01*
X0347556Y0073713D01*
X0347435Y0073866D01*
X0347318Y0074021D01*
X0347205Y0074180D01*
X0347096Y0074341D01*
X0346991Y0074505D01*
X0346889Y0074671D01*
X0346792Y0074840D01*
X0346699Y0075010D01*
X0346610Y0075184D01*
X0346525Y0075359D01*
X0346445Y0075536D01*
X0346369Y0075715D01*
X0346297Y0075896D01*
X0346230Y0076079D01*
X0346167Y0076263D01*
X0346109Y0076449D01*
X0346055Y0076636D01*
X0346006Y0076824D01*
X0345961Y0077014D01*
X0345921Y0077204D01*
X0345886Y0077396D01*
X0345855Y0077588D01*
X0345829Y0077781D01*
X0345808Y0077975D01*
X0345791Y0078169D01*
X0345779Y0078363D01*
X0345772Y0078557D01*
X0345770Y0078752D01*
X0297195Y0025996D02*
X0297193Y0025804D01*
X0297186Y0025612D01*
X0297174Y0025420D01*
X0297158Y0025228D01*
X0297137Y0025037D01*
X0297112Y0024847D01*
X0297082Y0024657D01*
X0297048Y0024468D01*
X0297009Y0024280D01*
X0296965Y0024093D01*
X0296917Y0023907D01*
X0296865Y0023722D01*
X0296808Y0023538D01*
X0296747Y0023356D01*
X0296681Y0023176D01*
X0296611Y0022997D01*
X0296537Y0022819D01*
X0296459Y0022644D01*
X0296376Y0022470D01*
X0296289Y0022299D01*
X0296199Y0022130D01*
X0296104Y0021963D01*
X0296005Y0021798D01*
X0295902Y0021635D01*
X0295795Y0021476D01*
X0295685Y0021318D01*
X0295571Y0021164D01*
X0295453Y0021012D01*
X0295331Y0020863D01*
X0295206Y0020717D01*
X0295078Y0020575D01*
X0294946Y0020435D01*
X0294811Y0020298D01*
X0294672Y0020165D01*
X0294531Y0020035D01*
X0294386Y0019909D01*
X0294238Y0019786D01*
X0294088Y0019667D01*
X0293934Y0019551D01*
X0293778Y0019439D01*
X0293619Y0019331D01*
X0293458Y0019226D01*
X0293294Y0019126D01*
X0293128Y0019030D01*
X0292960Y0018937D01*
X0285226Y0019050D02*
X0285057Y0019149D01*
X0284891Y0019253D01*
X0284727Y0019360D01*
X0284566Y0019471D01*
X0284408Y0019586D01*
X0284253Y0019705D01*
X0284100Y0019828D01*
X0283951Y0019954D01*
X0283805Y0020084D01*
X0283662Y0020218D01*
X0283522Y0020355D01*
X0283386Y0020495D01*
X0283253Y0020639D01*
X0283124Y0020786D01*
X0282998Y0020936D01*
X0282877Y0021089D01*
X0282758Y0021245D01*
X0282644Y0021404D01*
X0282534Y0021565D01*
X0282428Y0021730D01*
X0282325Y0021896D01*
X0282227Y0022066D01*
X0282133Y0022237D01*
X0282043Y0022411D01*
X0281958Y0022587D01*
X0281876Y0022765D01*
X0281800Y0022945D01*
X0281727Y0023127D01*
X0281659Y0023310D01*
X0281596Y0023495D01*
X0281537Y0023682D01*
X0281483Y0023870D01*
X0281433Y0024059D01*
X0281388Y0024249D01*
X0281348Y0024441D01*
X0281312Y0024633D01*
X0281281Y0024826D01*
X0281255Y0025020D01*
X0281233Y0025215D01*
X0281217Y0025410D01*
X0281205Y0025605D01*
X0281197Y0025801D01*
X0281195Y0025996D01*
X0281197Y0026189D01*
X0281204Y0026382D01*
X0281216Y0026574D01*
X0281232Y0026767D01*
X0281253Y0026959D01*
X0281279Y0027150D01*
X0281309Y0027340D01*
X0281344Y0027530D01*
X0281383Y0027719D01*
X0281427Y0027907D01*
X0281475Y0028094D01*
X0281528Y0028280D01*
X0281585Y0028464D01*
X0281647Y0028647D01*
X0281713Y0028828D01*
X0281784Y0029008D01*
X0281858Y0029186D01*
X0281937Y0029362D01*
X0282021Y0029536D01*
X0282108Y0029708D01*
X0282200Y0029878D01*
X0282296Y0030045D01*
X0282395Y0030211D01*
X0282499Y0030374D01*
X0282606Y0030534D01*
X0282718Y0030691D01*
X0282833Y0030846D01*
X0282952Y0030998D01*
X0283074Y0031147D01*
X0283200Y0031294D01*
X0283330Y0031437D01*
X0283463Y0031577D01*
X0283599Y0031713D01*
X0283739Y0031847D01*
X0283881Y0031976D01*
X0284027Y0032103D01*
X0294317Y0032142D02*
X0294465Y0032015D01*
X0294610Y0031885D01*
X0294751Y0031752D01*
X0294890Y0031615D01*
X0295025Y0031475D01*
X0295156Y0031331D01*
X0295284Y0031184D01*
X0295409Y0031035D01*
X0295530Y0030882D01*
X0295647Y0030727D01*
X0295760Y0030568D01*
X0295869Y0030407D01*
X0295974Y0030243D01*
X0296076Y0030077D01*
X0296173Y0029908D01*
X0296266Y0029738D01*
X0296355Y0029564D01*
X0296440Y0029389D01*
X0296520Y0029212D01*
X0296596Y0029033D01*
X0296668Y0028852D01*
X0296735Y0028669D01*
X0296798Y0028485D01*
X0296856Y0028299D01*
X0296910Y0028112D01*
X0296959Y0027924D01*
X0297004Y0027734D01*
X0297044Y0027544D01*
X0297079Y0027352D01*
X0297110Y0027160D01*
X0297136Y0026967D01*
X0297157Y0026773D01*
X0297174Y0026579D01*
X0297186Y0026385D01*
X0297193Y0026191D01*
X0297195Y0025996D01*
D17*
X0325272Y0068685D02*
X0326598Y0068685D01*
X0327040Y0069127D01*
X0327040Y0070011D01*
X0326598Y0070453D01*
X0325272Y0070453D01*
X0325272Y0071337D02*
X0325272Y0068685D01*
X0328172Y0069127D02*
X0328172Y0070895D01*
X0328614Y0071337D01*
X0329498Y0071337D01*
X0329940Y0070895D01*
X0329940Y0069127D01*
X0329498Y0068685D01*
X0328614Y0068685D01*
X0328172Y0069127D01*
X0331072Y0068685D02*
X0331072Y0071337D01*
X0331956Y0070453D01*
X0332840Y0071337D01*
X0332840Y0068685D01*
X0333972Y0068685D02*
X0333972Y0071337D01*
X0335740Y0071337D01*
X0336872Y0071337D02*
X0336872Y0068685D01*
X0338198Y0068685D01*
X0338640Y0069127D01*
X0338640Y0070011D01*
X0338198Y0070453D01*
X0336872Y0070453D01*
X0337756Y0070453D02*
X0338640Y0071337D01*
X0338605Y0072571D02*
X0305140Y0072571D01*
X0305140Y0086350D01*
X0338605Y0086350D01*
X0338605Y0072571D01*
X0334856Y0070011D02*
X0333972Y0070011D01*
X0333972Y0068685D02*
X0335740Y0068685D01*
X0328959Y0076508D02*
X0323054Y0076508D01*
X0315180Y0076508D01*
X0315180Y0082413D01*
X0321085Y0082413D01*
X0323054Y0082413D01*
X0323054Y0076508D01*
X0321085Y0076508D02*
X0321085Y0082413D01*
X0323054Y0082413D02*
X0328959Y0082413D01*
X0328959Y0076508D01*
M02*
