%
M48
M72
T01C0.0120
T02C0.0138
T03C0.0320
T04C0.0335
T05C0.0354
T06C0.0400
T07C0.0433
T08C0.0669
T09C0.0800
T10C0.0984
%
T01
X8895Y1631
X12810Y2531
X16365Y2171
X14250Y3566
X13845Y3566
X10380Y4601
X6825Y4061
X14070Y4736
X14070Y5366
X20100Y4736
X24825Y4196
X25410Y3971
X30405Y2036
X33240Y1901
X34500Y4331
X36120Y5816
X34905Y6356
X37650Y7121
X28470Y8156
X27120Y8156
X26310Y7886
X23880Y8021
X26310Y7256
X20730Y6896
X15960Y6896
X2325Y5861
T02
X27857Y3656
X35297Y2875
X37817Y4371
T03
X28920Y3100
X28920Y2100
X35377Y7375
X35377Y8375
T04
X26242Y3001
X24746Y3001
T05
X30849Y7946
X33526Y7946
T06
X32078Y2298
X30938Y2298
T07
X22660Y1852
X21872Y1852
X21085Y1852
X20297Y1852
X19510Y1852
X18723Y1852
T08
X5258Y5119
X2502Y5119
T09
X18014Y6182
X23368Y6182
T10
X29825Y5277
X11715Y5277
M30
