G75*
%MOIN*%
%OFA0B0*%
%FSLAX25Y25*%
%IPPOS*%
%LPD*%
%AMOC8*
5,1,8,0,0,1.08239X$1,22.5*
%
%ADD10C,0.00400*%
%ADD11R,0.07874X0.03937*%
%ADD12R,0.03937X0.04331*%
%ADD13C,0.06600*%
%ADD14R,0.12000X0.12000*%
%ADD15R,0.05118X0.05906*%
%ADD16R,0.08661X0.05512*%
%ADD17R,0.08661X0.02362*%
%ADD18R,0.04331X0.05512*%
%ADD19R,0.06299X0.08661*%
%ADD20OC8,0.05200*%
%ADD21R,0.05787X0.05000*%
%ADD22R,0.01575X0.03937*%
%ADD23C,0.07400*%
%ADD24R,0.01200X0.00600*%
%ADD25R,0.03075X0.05709*%
%ADD26R,0.03000X0.05709*%
%ADD27R,0.07087X0.05906*%
%ADD28R,0.09843X0.05906*%
%ADD29R,0.01181X0.03756*%
%ADD30R,0.02165X0.04724*%
%ADD31R,0.16535X0.05512*%
%ADD32R,0.04331X0.03937*%
%ADD33R,0.06299X0.07087*%
%ADD34R,0.02717X0.04724*%
%ADD35R,0.03150X0.02165*%
%ADD36R,0.02500X0.05000*%
%ADD37C,0.02000*%
%ADD38C,0.02400*%
%ADD39C,0.01200*%
%ADD40C,0.02578*%
D10*
X0027254Y0086381D02*
X0027254Y0088583D01*
X0027987Y0087849D01*
X0028721Y0088583D01*
X0028721Y0086381D01*
X0029648Y0086381D02*
X0031116Y0086381D01*
X0032042Y0086381D02*
X0032042Y0088583D01*
X0032776Y0087849D01*
X0033510Y0088583D01*
X0033510Y0086381D01*
X0034436Y0086748D02*
X0034803Y0086381D01*
X0035537Y0086381D01*
X0035904Y0086748D01*
X0035904Y0087115D01*
X0035537Y0087482D01*
X0034803Y0087482D01*
X0034436Y0087849D01*
X0034436Y0088216D01*
X0034803Y0088583D01*
X0035537Y0088583D01*
X0035904Y0088216D01*
X0036830Y0087482D02*
X0038298Y0087482D01*
X0039224Y0087115D02*
X0039958Y0087849D01*
X0040325Y0087849D01*
X0041219Y0087482D02*
X0041219Y0086748D01*
X0041586Y0086381D01*
X0042320Y0086381D01*
X0042687Y0087115D02*
X0041219Y0087115D01*
X0041219Y0087482D02*
X0041586Y0087849D01*
X0042320Y0087849D01*
X0042687Y0087482D01*
X0042687Y0087115D01*
X0043613Y0087849D02*
X0044347Y0086381D01*
X0045081Y0087849D01*
X0046007Y0087482D02*
X0047475Y0087482D01*
X0048401Y0087849D02*
X0049135Y0088583D01*
X0049135Y0086381D01*
X0048401Y0086381D02*
X0049869Y0086381D01*
X0050795Y0087482D02*
X0052263Y0087482D01*
X0051896Y0086381D02*
X0051896Y0088583D01*
X0050795Y0087482D01*
X0039224Y0087849D02*
X0039224Y0086381D01*
X0031116Y0088583D02*
X0029648Y0088583D01*
X0029648Y0086381D01*
X0029648Y0087482D02*
X0030382Y0087482D01*
D11*
X0016498Y0071685D03*
X0029491Y0061685D03*
X0016498Y0051685D03*
X0029491Y0041685D03*
X0016498Y0031685D03*
D12*
X0095691Y0050051D03*
X0102384Y0050051D03*
X0108339Y0070632D03*
X0115032Y0070632D03*
X0092581Y0070819D03*
X0085888Y0070819D03*
X0220306Y0079776D03*
X0226998Y0079776D03*
X0292569Y0084606D03*
X0299262Y0084606D03*
X0370030Y0082957D03*
X0376723Y0082957D03*
X0315278Y0065425D03*
X0308585Y0065425D03*
X0350416Y0059461D03*
X0357109Y0059461D03*
X0335455Y0042531D03*
X0328762Y0042531D03*
X0301743Y0039701D03*
X0295050Y0039701D03*
X0248164Y0047563D03*
X0241471Y0047563D03*
X0333443Y0023016D03*
X0340136Y0023016D03*
X0363408Y0023240D03*
X0370101Y0023240D03*
X0381266Y0021933D03*
X0387959Y0021933D03*
X0394778Y0021752D03*
X0401471Y0021752D03*
X0130101Y0021252D03*
X0123408Y0021252D03*
D13*
X0187227Y0018516D03*
X0195101Y0018516D03*
X0202975Y0018516D03*
X0210849Y0018516D03*
X0218723Y0018516D03*
X0226597Y0018516D03*
D14*
X0233683Y0061823D03*
X0180140Y0061823D03*
D15*
X0130439Y0038193D03*
X0123746Y0038193D03*
D16*
X0079353Y0050406D03*
X0066754Y0050406D03*
X0068152Y0024815D03*
X0080750Y0024815D03*
X0094589Y0025228D03*
X0107187Y0025228D03*
D17*
X0149038Y0024795D03*
X0149038Y0029795D03*
X0169510Y0029795D03*
X0169510Y0024795D03*
X0169510Y0034795D03*
X0169510Y0039795D03*
X0149038Y0039795D03*
X0149038Y0034795D03*
D18*
X0139983Y0058280D03*
X0132109Y0058280D03*
D19*
X0153369Y0058673D03*
X0164392Y0058673D03*
D20*
X0289195Y0030996D03*
X0289195Y0020996D03*
X0353770Y0073752D03*
X0353770Y0083752D03*
D21*
X0191719Y0086843D03*
X0191719Y0069913D03*
D22*
X0387365Y0066453D03*
X0389924Y0066453D03*
X0392483Y0066453D03*
X0395042Y0066453D03*
X0395042Y0049130D03*
X0392483Y0049130D03*
X0389924Y0049130D03*
X0387365Y0049130D03*
D23*
X0320781Y0022984D03*
X0309381Y0022984D03*
D24*
X0257502Y0027075D03*
X0254943Y0027075D03*
X0252384Y0027075D03*
D25*
X0248825Y0032075D03*
D26*
X0261061Y0032075D03*
D27*
X0269451Y0021346D03*
X0240435Y0021346D03*
D28*
X0254943Y0021346D03*
D29*
X0347648Y0040662D03*
X0349617Y0040662D03*
X0351585Y0040662D03*
X0351585Y0046062D03*
X0349617Y0046062D03*
X0347648Y0046062D03*
D30*
X0281644Y0069232D03*
X0274164Y0069232D03*
X0274164Y0079469D03*
X0277904Y0079469D03*
X0281644Y0079469D03*
D31*
X0264282Y0058421D03*
X0264282Y0043854D03*
D32*
X0211833Y0045681D03*
X0205140Y0045681D03*
X0292502Y0070445D03*
X0299195Y0070445D03*
X0258920Y0072138D03*
X0252227Y0072138D03*
X0211557Y0079972D03*
X0204865Y0079972D03*
X0331282Y0060012D03*
X0337975Y0060012D03*
X0369707Y0064579D03*
X0376400Y0064579D03*
X0388920Y0082768D03*
X0395613Y0082768D03*
X0394550Y0035366D03*
X0401243Y0035366D03*
X0387620Y0035327D03*
X0380928Y0035327D03*
X0355534Y0023240D03*
X0348841Y0023240D03*
D33*
X0258998Y0084264D03*
X0247975Y0084264D03*
D34*
X0311046Y0048044D03*
X0318526Y0048044D03*
X0318526Y0037807D03*
X0314786Y0037807D03*
X0311046Y0037807D03*
D35*
X0362030Y0040760D03*
X0371479Y0040760D03*
X0371479Y0044500D03*
X0362030Y0044500D03*
X0362030Y0048240D03*
X0371479Y0048240D03*
D36*
X0159718Y0080327D03*
X0156518Y0080327D03*
X0153318Y0080327D03*
D37*
X0088946Y0016314D02*
X0080846Y0024414D01*
X0080750Y0024815D01*
X0088496Y0021714D02*
X0088496Y0028914D01*
X0092996Y0033414D01*
X0106946Y0033414D01*
X0106946Y0052314D01*
X0102896Y0056364D01*
X0102896Y0070314D01*
X0102446Y0071214D01*
X0106046Y0074814D01*
X0110996Y0074814D01*
X0115046Y0070764D01*
X0115032Y0070632D01*
X0108746Y0070314D02*
X0108339Y0070632D01*
X0108746Y0070314D02*
X0119546Y0059514D01*
X0130796Y0059514D01*
X0131696Y0058614D01*
X0132109Y0058280D01*
X0132596Y0057714D01*
X0139796Y0050514D01*
X0164546Y0050514D01*
X0164546Y0058614D01*
X0164392Y0058673D01*
X0172196Y0060864D02*
X0172196Y0055464D01*
X0177146Y0050514D01*
X0232046Y0050514D01*
X0243746Y0038814D01*
X0249146Y0038814D01*
X0254096Y0043764D01*
X0254096Y0047364D01*
X0257696Y0050964D01*
X0281486Y0050964D01*
X0293526Y0063004D01*
X0298536Y0063004D01*
X0304946Y0069414D01*
X0304946Y0073914D01*
X0306721Y0075689D01*
X0310049Y0075689D01*
X0314687Y0080327D01*
X0327778Y0080327D01*
X0333291Y0074814D01*
X0341846Y0074814D01*
X0353096Y0063564D01*
X0362096Y0063564D01*
X0376496Y0049164D01*
X0386396Y0049164D01*
X0387296Y0048714D01*
X0387365Y0049130D01*
X0387296Y0048714D02*
X0387296Y0042864D01*
X0394496Y0035664D01*
X0394550Y0035366D01*
X0394046Y0034764D01*
X0390896Y0031614D01*
X0380996Y0031614D01*
X0380996Y0022164D01*
X0381266Y0021933D01*
X0376496Y0017664D02*
X0371096Y0023064D01*
X0370101Y0023240D01*
X0371096Y0021714D01*
X0365246Y0015864D01*
X0331496Y0015864D01*
X0329246Y0018114D01*
X0328346Y0017664D01*
X0306746Y0017664D01*
X0304046Y0020364D01*
X0318896Y0024864D02*
X0320696Y0023064D01*
X0320781Y0022984D01*
X0318896Y0024864D02*
X0318896Y0037464D01*
X0318526Y0037807D01*
X0328762Y0042531D02*
X0329246Y0041964D01*
X0329246Y0018114D01*
X0332396Y0019014D02*
X0333296Y0019914D01*
X0333296Y0022614D01*
X0333443Y0023016D01*
X0367946Y0031164D02*
X0369746Y0029364D01*
X0369746Y0023514D01*
X0370101Y0023240D01*
X0376496Y0017664D02*
X0397196Y0017664D01*
X0401246Y0021714D01*
X0401471Y0021752D01*
X0380996Y0031614D02*
X0380996Y0035214D01*
X0380928Y0035327D01*
X0383696Y0039264D02*
X0387296Y0035664D01*
X0387620Y0035327D01*
X0375146Y0039264D02*
X0373796Y0037914D01*
X0367946Y0037914D01*
X0367946Y0040164D01*
X0363896Y0044214D01*
X0362096Y0044214D01*
X0362030Y0044500D01*
X0375146Y0039264D02*
X0383696Y0039264D01*
X0367946Y0037914D02*
X0367946Y0031164D01*
X0344996Y0059064D02*
X0328796Y0042864D01*
X0328762Y0042531D01*
X0281546Y0062214D02*
X0272996Y0053664D01*
X0256346Y0053664D01*
X0250496Y0047814D01*
X0248246Y0047814D01*
X0248164Y0047563D01*
X0248246Y0046914D01*
X0248246Y0041964D01*
X0254096Y0039714D02*
X0258146Y0043764D01*
X0263996Y0043764D01*
X0264282Y0043854D01*
X0205140Y0045681D02*
X0205046Y0046014D01*
X0203696Y0047364D01*
X0200996Y0047364D01*
X0169496Y0040164D02*
X0169510Y0039795D01*
X0169496Y0040164D02*
X0164546Y0045114D01*
X0164546Y0050514D01*
X0140696Y0053664D02*
X0140696Y0057714D01*
X0139983Y0058280D01*
X0139796Y0058614D01*
X0135746Y0062664D01*
X0131696Y0062664D01*
X0116846Y0077514D01*
X0092546Y0077514D01*
X0086246Y0071214D01*
X0085888Y0070819D01*
X0084896Y0070764D01*
X0071846Y0057714D01*
X0023696Y0057714D01*
X0023246Y0058614D01*
X0023696Y0057714D02*
X0017846Y0051864D01*
X0016946Y0051864D01*
X0016498Y0051685D01*
X0029546Y0041964D02*
X0029491Y0041685D01*
X0029546Y0041964D02*
X0058346Y0041964D01*
X0066446Y0050064D01*
X0066754Y0050406D01*
X0079353Y0050406D02*
X0079496Y0050064D01*
X0095246Y0050064D01*
X0095691Y0050051D01*
X0102384Y0050051D02*
X0102446Y0049614D01*
X0102446Y0047364D01*
X0103796Y0046014D01*
X0124046Y0039714D02*
X0127196Y0042864D01*
X0140696Y0042864D01*
X0140696Y0047364D01*
X0140696Y0042864D02*
X0153746Y0042864D01*
X0155096Y0041514D01*
X0155096Y0028014D01*
X0151946Y0024864D01*
X0149246Y0024864D01*
X0149038Y0024795D01*
X0155096Y0021264D02*
X0130346Y0021264D01*
X0130101Y0021252D01*
X0123408Y0021252D02*
X0123146Y0020814D01*
X0098846Y0020814D01*
X0094796Y0024864D01*
X0094589Y0025228D01*
X0088496Y0021714D02*
X0092996Y0017214D01*
X0155096Y0017214D01*
X0162746Y0024864D01*
X0169496Y0024864D01*
X0169510Y0024795D01*
X0163646Y0021714D02*
X0166796Y0018564D01*
X0187046Y0018564D01*
X0187227Y0018516D01*
X0194696Y0018564D02*
X0195101Y0018516D01*
X0194696Y0018564D02*
X0184346Y0028914D01*
X0170396Y0028914D01*
X0169510Y0029795D01*
X0169496Y0029364D01*
X0163196Y0029364D01*
X0155096Y0021264D01*
X0128096Y0025314D02*
X0107396Y0025314D01*
X0107187Y0025228D01*
X0132146Y0037914D02*
X0140246Y0029814D01*
X0148796Y0029814D01*
X0149038Y0029795D01*
X0130346Y0037014D02*
X0126746Y0033414D01*
X0106946Y0033414D01*
X0123746Y0038193D02*
X0124046Y0038364D01*
X0124046Y0039714D01*
X0130439Y0038193D02*
X0130346Y0037014D01*
X0130796Y0037914D02*
X0130439Y0038193D01*
X0130796Y0037914D02*
X0132146Y0037914D01*
X0138446Y0035664D02*
X0142496Y0039714D01*
X0148796Y0039714D01*
X0149038Y0039795D01*
X0148346Y0035664D02*
X0142496Y0035664D01*
X0148346Y0035664D02*
X0148796Y0035214D01*
X0149038Y0034795D01*
X0169510Y0034795D02*
X0169946Y0034764D01*
X0186596Y0034764D01*
X0202796Y0018564D01*
X0202975Y0018516D01*
X0068246Y0024864D02*
X0068152Y0024815D01*
X0068246Y0024864D02*
X0068246Y0040614D01*
X0153369Y0058673D02*
X0153746Y0059064D01*
X0162746Y0068064D01*
X0163646Y0067614D01*
X0165446Y0067614D01*
X0172196Y0060864D01*
X0162746Y0068064D02*
X0162746Y0083364D01*
X0161396Y0084714D01*
X0154646Y0084714D01*
X0153296Y0083364D01*
X0153296Y0080664D01*
X0153318Y0080327D01*
X0156446Y0080214D02*
X0156518Y0080327D01*
X0156446Y0080214D02*
X0156446Y0077064D01*
X0155546Y0076164D01*
X0122246Y0076164D01*
X0118196Y0080214D01*
X0025046Y0080214D01*
X0016946Y0072114D01*
X0016498Y0071685D01*
X0092581Y0070819D02*
X0092996Y0071214D01*
X0102446Y0071214D01*
X0159596Y0068964D02*
X0159596Y0080214D01*
X0159718Y0080327D01*
X0204865Y0079972D02*
X0205046Y0079764D01*
X0205046Y0071214D01*
X0207296Y0068964D01*
X0239246Y0083814D02*
X0244196Y0078864D01*
X0253196Y0078864D01*
X0258146Y0083814D01*
X0258998Y0084264D01*
X0259046Y0084264D01*
X0263096Y0080214D01*
X0263996Y0080664D01*
X0268046Y0084714D01*
X0274796Y0084714D01*
X0277496Y0082014D01*
X0277496Y0079764D01*
X0277904Y0079469D01*
X0263096Y0078864D02*
X0263096Y0080214D01*
X0239246Y0083814D02*
X0223946Y0083814D01*
X0220796Y0080664D01*
X0220306Y0079776D01*
X0219896Y0079764D01*
X0211796Y0079764D01*
X0211557Y0079972D01*
X0258920Y0072138D02*
X0259046Y0072564D01*
X0263096Y0072564D01*
X0281546Y0068964D02*
X0281644Y0069232D01*
X0281546Y0068964D02*
X0281546Y0062214D01*
X0344996Y0059064D02*
X0350396Y0059064D01*
X0350416Y0059461D01*
X0349046Y0059964D01*
X0349046Y0063564D01*
X0369746Y0073464D02*
X0375596Y0067614D01*
X0376496Y0067164D01*
X0388646Y0079314D01*
X0388646Y0082014D01*
X0388920Y0082768D01*
X0389096Y0082914D01*
X0392696Y0086514D01*
X0398546Y0086514D01*
X0399446Y0085614D01*
X0399446Y0065364D01*
X0395396Y0061314D01*
X0395396Y0049164D01*
X0395042Y0049130D01*
X0376400Y0064579D02*
X0376496Y0064914D01*
X0376496Y0067164D01*
X0376496Y0071214D02*
X0376496Y0082914D01*
X0376723Y0082957D01*
X0369746Y0073464D02*
X0353996Y0073464D01*
X0353770Y0073752D01*
D38*
X0376496Y0071214D03*
X0349046Y0063564D03*
X0361196Y0058164D03*
X0344996Y0043314D03*
X0254096Y0039714D03*
X0248246Y0041964D03*
X0200996Y0047364D03*
X0142496Y0035664D03*
X0138446Y0035664D03*
X0103796Y0046014D03*
X0068246Y0040614D03*
X0128096Y0025314D03*
X0163646Y0021714D03*
X0088946Y0016314D03*
X0140696Y0047364D03*
X0140696Y0053664D03*
X0159596Y0068964D03*
X0207296Y0068964D03*
X0238796Y0080214D03*
X0263096Y0078864D03*
X0271196Y0081564D03*
X0284696Y0081564D03*
X0263096Y0072564D03*
X0304046Y0020364D03*
X0332396Y0019014D03*
X0023246Y0058614D03*
D39*
X0191719Y0069913D02*
X0191996Y0069864D01*
X0202796Y0069864D01*
X0206396Y0066264D01*
X0224396Y0066264D01*
X0233846Y0075714D01*
X0273446Y0075714D01*
X0278171Y0070989D01*
X0281546Y0074364D01*
X0281546Y0079314D01*
X0281644Y0079469D01*
X0284696Y0081564D02*
X0292796Y0081564D01*
X0292796Y0070764D01*
X0292502Y0070445D01*
X0299195Y0070445D02*
X0299546Y0070764D01*
X0299546Y0084264D01*
X0299262Y0084606D01*
X0299996Y0082914D01*
X0336896Y0082914D01*
X0349946Y0069864D01*
X0358946Y0069864D01*
X0363896Y0064914D01*
X0369296Y0064914D01*
X0369707Y0064579D01*
X0369746Y0064464D01*
X0370646Y0064464D01*
X0373796Y0061314D01*
X0384596Y0061314D01*
X0387296Y0064014D01*
X0387746Y0064014D01*
X0388646Y0063114D01*
X0394046Y0063114D01*
X0394946Y0064014D01*
X0394946Y0066264D01*
X0395042Y0066453D01*
X0392696Y0066714D02*
X0392483Y0066453D01*
X0392696Y0066714D02*
X0392696Y0079764D01*
X0395396Y0082464D01*
X0395613Y0082768D01*
X0370030Y0082957D02*
X0369746Y0083364D01*
X0353996Y0083364D01*
X0353770Y0083752D01*
X0299262Y0084606D02*
X0299096Y0085164D01*
X0298196Y0085164D01*
X0294146Y0089214D01*
X0252746Y0089214D01*
X0248246Y0084714D01*
X0247975Y0084264D01*
X0247796Y0084264D01*
X0245546Y0086514D01*
X0191996Y0086514D01*
X0191719Y0086843D01*
X0226998Y0079776D02*
X0227096Y0080214D01*
X0238796Y0080214D01*
X0271196Y0081564D02*
X0272096Y0081564D01*
X0273896Y0079764D01*
X0274164Y0079469D01*
X0292796Y0081564D02*
X0292796Y0084264D01*
X0292569Y0084606D01*
X0255896Y0068964D02*
X0252746Y0072114D01*
X0252227Y0072138D01*
X0251846Y0072114D01*
X0241496Y0061764D01*
X0241496Y0047814D01*
X0241471Y0047563D01*
X0233846Y0045564D02*
X0242846Y0036564D01*
X0243526Y0036564D01*
X0244190Y0035900D01*
X0244190Y0028652D01*
X0248822Y0024020D01*
X0248822Y0017897D01*
X0249955Y0016764D01*
X0287846Y0016764D01*
X0288014Y0016764D01*
X0296846Y0016764D01*
X0303146Y0023064D01*
X0308996Y0023064D01*
X0309381Y0022984D01*
X0309446Y0023514D01*
X0314396Y0028464D01*
X0314396Y0037464D01*
X0314786Y0037807D01*
X0314846Y0037914D01*
X0314846Y0039714D01*
X0316646Y0041514D01*
X0319346Y0041514D01*
X0337796Y0059964D01*
X0337975Y0060012D01*
X0331282Y0060012D02*
X0331046Y0059964D01*
X0318896Y0047814D01*
X0318526Y0048044D01*
X0317996Y0047814D01*
X0314396Y0044214D01*
X0293696Y0044214D01*
X0285146Y0035664D01*
X0285146Y0029364D01*
X0288067Y0026443D01*
X0254457Y0026443D01*
X0248825Y0032075D01*
X0261061Y0032075D02*
X0261061Y0036351D01*
X0260849Y0036564D01*
X0278565Y0036564D01*
X0278897Y0036564D01*
X0280928Y0038594D01*
X0280928Y0044946D01*
X0295496Y0059514D01*
X0302674Y0059514D01*
X0308585Y0065425D01*
X0315278Y0065425D02*
X0315278Y0052276D01*
X0311046Y0048044D01*
X0335455Y0042531D02*
X0335546Y0042414D01*
X0335546Y0027114D01*
X0336896Y0025764D01*
X0336896Y0020364D01*
X0337796Y0019464D01*
X0365696Y0019464D01*
X0366596Y0020364D01*
X0366596Y0029364D01*
X0362096Y0033864D01*
X0362096Y0040164D01*
X0362030Y0040760D01*
X0361646Y0041064D01*
X0360746Y0041064D01*
X0353546Y0048264D01*
X0353546Y0048714D01*
X0353096Y0049164D01*
X0350396Y0049164D01*
X0349496Y0048264D01*
X0349496Y0046464D01*
X0349617Y0046062D01*
X0347648Y0046062D02*
X0347246Y0046464D01*
X0347246Y0049164D01*
X0356696Y0058614D01*
X0357109Y0059461D01*
X0356696Y0059064D01*
X0361646Y0054114D01*
X0361646Y0048264D01*
X0362030Y0048240D01*
X0371096Y0048264D02*
X0371479Y0048240D01*
X0373644Y0048240D01*
X0378172Y0043713D01*
X0371546Y0044214D02*
X0371479Y0044500D01*
X0371546Y0044214D02*
X0371546Y0041064D01*
X0371479Y0040760D01*
X0351746Y0040614D02*
X0351585Y0040662D01*
X0351746Y0040614D02*
X0351746Y0034764D01*
X0362996Y0023514D01*
X0363408Y0023240D01*
X0355534Y0023240D02*
X0355534Y0026193D01*
X0352975Y0028752D01*
X0349617Y0024824D02*
X0347857Y0023064D01*
X0340496Y0023064D01*
X0340136Y0023016D01*
X0347857Y0023064D02*
X0348596Y0023064D01*
X0348841Y0023240D01*
X0349617Y0024824D02*
X0349617Y0040662D01*
X0347696Y0040614D02*
X0347648Y0040662D01*
X0347246Y0041064D01*
X0344996Y0043314D01*
X0361196Y0058164D02*
X0371096Y0048264D01*
X0389924Y0049130D02*
X0389996Y0048714D01*
X0389996Y0046464D01*
X0400796Y0035664D01*
X0401243Y0035366D01*
X0401246Y0034764D01*
X0394496Y0028014D01*
X0394496Y0022614D01*
X0394778Y0021752D01*
X0394496Y0022164D01*
X0388196Y0022164D01*
X0387959Y0021933D01*
X0355534Y0023240D02*
X0355346Y0023514D01*
X0311046Y0037807D02*
X0310796Y0037914D01*
X0309446Y0039264D01*
X0301796Y0039264D01*
X0301743Y0039701D01*
X0295050Y0039701D02*
X0295046Y0039264D01*
X0295046Y0037014D01*
X0289196Y0031164D01*
X0289195Y0030996D01*
X0288067Y0026443D02*
X0288746Y0025764D01*
X0288746Y0021264D01*
X0289195Y0020996D01*
X0260849Y0036564D02*
X0243526Y0036564D01*
X0233846Y0045564D02*
X0212246Y0045564D01*
X0211833Y0045681D01*
X0264282Y0058421D02*
X0264446Y0058614D01*
X0268946Y0058614D01*
X0276596Y0066264D01*
X0276596Y0069414D01*
X0278171Y0070989D01*
X0274164Y0069232D02*
X0273896Y0068964D01*
X0255896Y0068964D01*
X0387365Y0066453D02*
X0387746Y0066264D01*
X0387746Y0064014D01*
D40*
X0378172Y0043713D03*
X0352975Y0028752D03*
X0278565Y0036564D03*
M02*
